<?xml version="1.0" encoding="UTF-8" standalone="no"?><!DOCTYPE svg PUBLIC "-//W3C//DTD SVG 1.1//EN" "http://www.w3.org/Graphics/SVG/1.1/DTD/svg11.dtd"><svg width="100%" height="100%" viewBox="0 0 200 200" version="1.1" xmlns="http://www.w3.org/2000/svg" xmlns:xlink="http://www.w3.org/1999/xlink" xml:space="preserve" xmlns:serif="http://www.serif.com/" style="fill-rule:evenodd;clip-rule:evenodd;stroke-linejoin:round;stroke-miterlimit:2;"><path d="M117.299,102.885c-0.321,-0.078 -0.005,-0.296 -0,0c5.078,1.243 9.836,3.06 13.975,5.45c17.261,9.965 17.261,26.147 0,36.112c-17.26,9.966 -45.288,9.966 -62.548,0c-17.261,-9.965 -17.261,-26.147 -0,-36.112c4.144,-2.393 8.909,-4.211 13.993,-5.454c0.001,-0.293 0.315,-0.077 0,0c-0.002,3.598 -0.077,7.428 -0.186,8.745c-0.227,2.744 1.473,5.531 5.099,7.625c6.826,3.941 17.91,3.941 24.736,0c3.412,-1.97 5.119,-4.555 5.119,-7.14c-0,-1.44 -0.133,-5.51 -0.188,-9.226Z" style="fill:#e2e2e2;fill-opacity:0.52;"/><path d="M74.088,140.951c14.301,-8.257 37.523,-8.257 51.824,0c14.301,8.257 14.301,21.663 -0,29.92c-14.301,8.257 -37.523,8.257 -51.824,0c-14.301,-8.257 -14.301,-21.663 0,-29.92Z" style="fill:#e2e2e2;fill-opacity:0.52;"/><path d="M83.667,102.657c0.254,0.162 0.518,0.322 0.79,0.479c8.578,4.953 22.508,4.953 31.086,0c0.272,-0.157 0.536,-0.317 0.79,-0.479c5.442,1.245 10.542,3.137 14.941,5.678c8.5,4.907 12.814,11.321 12.943,17.758c0.133,6.636 -7.051,27.092 -7.71,31.606c-0.701,4.805 -4.232,9.498 -10.595,13.172c-14.301,8.257 -37.523,8.257 -51.824,0c-6.471,-3.736 -10.013,-8.526 -10.628,-13.417c-0.063,-0.5 -7.81,-24.725 -7.677,-31.361c0.129,-6.437 4.443,-12.851 12.943,-17.758c4.399,-2.541 9.499,-4.433 14.941,-5.678Z" style="fill:#e2e2e2;fill-opacity:0.52;"/><path d="M117.287,102.003c0.045,3.932 0.2,8.553 0.2,10.107c-0,2.585 -1.707,5.17 -5.119,7.141c-6.826,3.941 -17.91,3.941 -24.736,-0c-3.626,-2.094 -5.326,-4.881 -5.099,-7.625c0.118,-1.425 0.196,-5.788 0.186,-9.619c0.533,0.391 1.113,0.769 1.738,1.129c8.578,4.953 22.508,4.953 31.086,0c0.627,-0.362 1.209,-0.74 1.744,-1.133Z" style="fill:#e2e2e2;fill-opacity:0.52;"/><path d="M82.661,108.351c-0.032,1.462 -0.076,2.651 -0.128,3.275c-0.227,2.744 1.473,5.531 5.099,7.625c6.826,3.941 17.91,3.941 24.736,0c3.412,-1.97 5.119,-4.555 5.119,-7.14c-0,-0.717 -0.033,-2.085 -0.073,-3.738c3.519,1.032 6.819,2.397 9.76,4.095c7.385,4.264 11.134,9.837 11.246,15.43c0.115,5.766 -6.127,23.54 -6.699,27.462c-0.609,4.175 -3.678,8.253 -9.207,11.445c-12.426,7.174 -32.602,7.174 -45.028,0c-5.623,-3.246 -8.701,-7.408 -9.236,-11.658c-0.054,-0.434 -6.785,-21.483 -6.67,-27.249c0.112,-5.593 3.861,-11.166 11.246,-15.43c2.962,-1.71 6.288,-3.082 9.835,-4.117Z" style="fill:#fff;fill-opacity:0.52;"/><path d="M66.129,148.02c-2.606,-6.511 0.48,-13.628 9.258,-18.696c13.538,-7.816 35.52,-7.816 49.058,-0c8.911,5.145 11.957,12.403 9.135,18.993c-0.933,3.186 -1.679,5.805 -1.859,7.043c-0.609,4.175 -3.678,8.253 -9.207,11.445c-12.426,7.174 -32.602,7.174 -45.028,0c-5.623,-3.246 -8.701,-7.408 -9.236,-11.658c-0.02,-0.16 -0.947,-3.121 -2.104,-7.086l-0.017,-0.041Z" style="fill:#25bcb2;fill-opacity:0.83;"/><path d="M78.044,94.717c-0.087,-1.153 -0.082,-5.695 -0.004,-6.831c0.21,-3.079 2.349,-6.122 6.417,-8.471c8.578,-4.953 22.508,-4.953 31.086,0c3.766,2.175 5.879,4.944 6.338,7.786c0.22,1.361 0.117,6.103 0.094,7.127c-0.071,3.193 -2.215,6.374 -6.432,8.808c-8.578,4.953 -22.508,4.953 -31.086,0c-2.406,-1.389 -4.137,-3.02 -5.194,-4.759c-0.72,-1.185 -1.126,-2.419 -1.219,-3.66Z" style="fill:#e2e2e2;fill-opacity:0.52;"/><path d="M78.044,94.717c-0.087,-1.153 -0.082,-5.695 -0.004,-6.831c0.21,-3.079 2.349,-6.122 6.417,-8.471c8.578,-4.953 22.508,-4.953 31.086,0c3.766,2.175 5.879,4.944 6.338,7.786c0.22,1.361 0.117,6.103 0.094,7.127c-0.071,3.193 -2.215,6.374 -6.432,8.808c-8.578,4.953 -22.508,4.953 -31.086,0c-4.046,-2.335 -6.183,-5.357 -6.413,-8.419Z" style="fill:#e2e2e2;fill-opacity:0.52;"/><path d="M75.387,129.324c13.538,-7.816 35.52,-7.816 49.058,-0c13.537,7.816 13.537,20.507 -0,28.323c-13.538,7.816 -35.52,7.816 -49.058,0c-13.537,-7.816 -13.537,-20.507 0,-28.323Z" style="fill:#fff;fill-opacity:0.21;"/><path d="M84.457,79.415c8.578,-4.953 22.508,-4.953 31.086,0c8.579,4.953 8.579,12.996 0,17.948c-8.578,4.953 -22.508,4.953 -31.086,0c-8.579,-4.952 -8.579,-12.995 -0,-17.948Z" style="fill:#fff;fill-opacity:0.52;"/><path d="M85.022,94.57c0.048,-0.389 -0.037,-12.359 -0.037,-14.54c0,-2.181 1.44,-4.362 4.32,-6.025c5.759,-3.325 15.111,-3.325 20.87,0c2.879,1.663 4.319,3.844 4.319,6.025c0,2.181 0,12.962 0,15.143c0,2.181 -1.44,4.363 -4.319,6.025c-5.759,3.325 -15.111,3.325 -20.87,0c-3.145,-1.816 -4.573,-4.25 -4.283,-6.628Z" style="fill:#001a35;"/><path d="M106.176,106.343c-0.023,4.312 -0.092,9.005 0.146,11.129c0.742,6.609 -0.11,8.861 0.733,11.756c1.306,4.477 -6.872,13.185 -12.672,16.878c-4.331,2.758 -2.716,4.383 -2.744,7.887c-0.005,0.621 6.202,3.731 13.787,2.728c3.99,-0.527 8.329,-1.993 11.955,-3.226c0.412,-0.14 -3.014,-1.98 -6.26,-1.902c-5.479,0.133 -5.847,6.05 -13.764,1.127c-2.044,-1.271 4.628,-9.435 12.874,-8.432c9.134,1.112 14.673,7.178 15.091,7.521c1.447,1.185 5.278,5.759 -1.509,9.359c-4.021,2.134 -18.637,4.17 -20.988,4.289c-1.849,0.094 -12.211,0.584 -14.492,-0.367c-3.548,-1.48 -6.846,-10.55 -5.52,-16.533c1.816,-8.197 13.725,-16.532 13.394,-17.694c-0.755,-2.655 0.81,-9.522 0.587,-13.67c-0.112,-2.066 -1.392,-6.721 -2.242,-10.735c3.815,0.56 7.839,0.522 11.624,-0.115Z" style="fill:#e2e2e2;"/><path d="M84.986,89.458c0.022,2.164 1.462,4.324 4.319,5.974c5.759,3.325 15.111,3.325 20.87,-0c2.879,-1.663 4.319,-3.844 4.319,-6.025c0,2.181 0,3.585 0,5.766c0,2.181 -1.44,4.363 -4.319,6.025c-5.759,3.325 -15.111,3.325 -20.87,0c-3.145,-1.816 -4.573,-4.25 -4.283,-6.628c0.048,-0.389 -0.037,-2.982 -0.037,-5.163l0.001,0.051Z" style="fill:#e2e2e2;fill-opacity:0.52;"/><path d="M89.3,74.005c5.759,-3.325 15.111,-3.325 20.87,0c5.759,3.325 5.759,8.724 -0,12.049c-5.759,3.325 -15.111,3.325 -20.87,0c-5.759,-3.325 -5.759,-8.724 -0,-12.049Z" style="fill:#fff;fill-opacity:0.18;"/><path d="M117.287,102.003c0.045,3.932 0.2,8.553 0.2,10.107c-0,2.585 -1.707,5.17 -5.119,7.141c-6.826,3.941 -17.91,3.941 -24.736,-0c-3.626,-2.094 -5.326,-4.881 -5.099,-7.625c0.118,-1.425 0.196,-5.788 0.186,-9.619c0.533,0.391 1.113,0.769 1.738,1.129c8.578,4.953 22.508,4.953 31.086,0c0.627,-0.362 1.209,-0.74 1.744,-1.133Z" style="fill:#e2e2e2;fill-opacity:0.52;"/><path d="M104.064,55.166c-0.936,-1.785 -5.937,-3.872 -11.627,2.162c-1.559,1.654 2.512,5.611 2.713,9.33c0.223,4.148 -1.342,11.015 -0.587,13.67c0.33,1.162 3.303,2.015 5.116,2.256c2.974,0.396 5.08,-2.165 5.732,-3.891c1.028,-2.72 0.009,-5.147 -0.733,-11.756c-0.471,-4.197 0.175,-10.266 -0.614,-11.771Z" style="fill:#e2e2e2;"/><path d="M82.661,108.351c-0.032,1.462 -0.076,2.651 -0.128,3.275c-0.227,2.744 1.473,5.531 5.099,7.625c6.826,3.941 17.91,3.941 24.736,0c3.412,-1.97 5.119,-4.555 5.119,-7.14c-0,-0.717 -0.033,-2.085 -0.073,-3.738c3.519,1.032 6.819,2.397 9.76,4.095c7.385,4.264 11.134,9.837 11.246,15.43c0.115,5.766 -6.127,23.54 -6.699,27.462c-0.609,4.175 -3.678,8.253 -9.207,11.445c-12.426,7.174 -32.602,7.174 -45.028,0c-5.623,-3.246 -8.701,-7.408 -9.236,-11.658c-0.054,-0.434 -6.785,-21.483 -6.67,-27.249c0.112,-5.593 3.861,-11.166 11.246,-15.43c2.962,-1.71 6.288,-3.082 9.835,-4.117Z" style="fill:#fff;fill-opacity:0.43;"/><path d="M98.882,22.936c4.525,0 8.428,29.993 8.428,34.518c0,4.525 -3.674,8.199 -8.199,8.199c-4.525,-0 -8.198,-3.674 -8.198,-8.199c-0,-4.525 3.444,-34.518 7.969,-34.518Z" style="fill:#ffc579;fill-opacity:0.67;"/><path d="M98.98,40.043c2.586,0 4.816,17.139 4.816,19.725c0,2.585 -2.099,4.685 -4.685,4.685c-2.585,-0 -4.685,-2.1 -4.685,-4.685c0,-2.586 1.968,-19.725 4.554,-19.725Z" style="fill:#fffe79;fill-opacity:0.67;"/></svg>