<?xml version="1.0" encoding="UTF-8" standalone="no"?><!DOCTYPE svg PUBLIC "-//W3C//DTD SVG 1.1//EN" "http://www.w3.org/Graphics/SVG/1.1/DTD/svg11.dtd"><svg width="100%" height="100%" viewBox="0 0 200 200" version="1.1" xmlns="http://www.w3.org/2000/svg" xmlns:xlink="http://www.w3.org/1999/xlink" xml:space="preserve" xmlns:serif="http://www.serif.com/" style="fill-rule:evenodd;clip-rule:evenodd;stroke-linejoin:round;stroke-miterlimit:2;"><path d="M119.058,91.977c-0.353,-0.087 -0.005,-0.327 0,-0c5.595,1.369 10.837,3.371 15.398,6.003c19.016,10.98 19.016,28.807 -0,39.786c-19.017,10.98 -49.895,10.98 -68.912,0c-19.016,-10.979 -19.016,-28.806 0,-39.786c4.566,-2.636 9.816,-4.639 15.418,-6.008c0,-0.323 0.346,-0.085 -0,-0c-0.003,3.964 -0.086,8.183 -0.206,9.634c-0.249,3.024 1.623,6.094 5.618,8.401c7.521,4.342 19.731,4.342 27.252,-0c3.76,-2.171 5.64,-5.019 5.64,-7.867c-0,-1.586 -0.146,-6.069 -0.208,-10.163Z" style="fill:#e2e2e2;fill-opacity:0.52;"/><path d="M71.453,133.914c15.755,-9.096 41.339,-9.096 57.094,0c15.756,9.097 15.756,23.867 0,32.964c-15.755,9.096 -41.339,9.096 -57.094,-0c-15.756,-9.097 -15.756,-23.867 -0,-32.964Z" style="fill:#e2e2e2;fill-opacity:0.52;"/><path d="M82.006,91.725c0.28,0.179 0.57,0.355 0.869,0.528c9.452,5.457 24.798,5.457 34.25,0c0.299,-0.173 0.589,-0.349 0.869,-0.528c5.996,1.371 11.614,3.457 16.462,6.255c9.364,5.406 14.117,12.473 14.259,19.565c0.146,7.311 -7.769,29.847 -8.494,34.821c-0.772,5.294 -4.664,10.464 -11.674,14.512c-15.755,9.096 -41.339,9.096 -57.094,-0c-7.129,-4.116 -11.033,-9.394 -11.71,-14.782c-0.07,-0.55 -8.604,-27.24 -8.458,-34.551c0.142,-7.092 4.895,-14.159 14.259,-19.565c4.848,-2.798 10.466,-4.884 16.462,-6.255Z" style="fill:#e2e2e2;fill-opacity:0.52;"/><path d="M119.045,91.005c0.05,4.332 0.221,9.422 0.221,11.135c-0,2.848 -1.88,5.696 -5.64,7.867c-7.521,4.341 -19.731,4.341 -27.252,-0c-3.995,-2.307 -5.867,-5.378 -5.618,-8.401c0.13,-1.57 0.216,-6.376 0.205,-10.597c0.588,0.431 1.226,0.847 1.914,1.244c9.452,5.457 24.798,5.457 34.25,0c0.69,-0.399 1.331,-0.816 1.92,-1.248Z" style="fill:#e2e2e2;fill-opacity:0.52;"/><path d="M80.897,97.999c-0.035,1.61 -0.084,2.919 -0.141,3.607c-0.249,3.024 1.623,6.094 5.618,8.401c7.521,4.342 19.731,4.342 27.252,-0c3.76,-2.171 5.64,-5.019 5.64,-7.867c-0,-0.789 -0.037,-2.297 -0.081,-4.117c3.878,1.137 7.513,2.64 10.753,4.511c8.136,4.697 12.266,10.838 12.39,17c0.127,6.352 -6.75,25.934 -7.381,30.255c-0.67,4.6 -4.051,9.093 -10.143,12.609c-13.69,7.904 -35.918,7.904 -49.608,0c-6.195,-3.576 -9.586,-8.162 -10.175,-12.843c-0.06,-0.479 -7.476,-23.669 -7.349,-30.021c0.124,-6.162 4.254,-12.303 12.39,-17c3.263,-1.884 6.928,-3.396 10.835,-4.535Z" style="fill:#fff;fill-opacity:0.52;"/><path d="M62.684,141.702c-2.871,-7.173 0.529,-15.014 10.2,-20.598c14.914,-8.611 39.132,-8.611 54.047,0c9.818,5.669 13.173,13.665 10.064,20.926c-1.027,3.509 -1.849,6.395 -2.048,7.759c-0.67,4.6 -4.051,9.093 -10.143,12.609c-13.69,7.904 -35.918,7.904 -49.608,0c-6.195,-3.576 -9.586,-8.162 -10.175,-12.843c-0.022,-0.177 -1.044,-3.439 -2.319,-7.808l-0.018,-0.045Z" style="fill:#25bcb2;fill-opacity:0.83;"/><path d="M75.81,82.977c-0.095,-1.27 -0.089,-6.274 -0.004,-7.526c0.232,-3.392 2.588,-6.744 7.069,-9.332c9.452,-5.456 24.798,-5.456 34.25,0c4.148,2.396 6.476,5.447 6.982,8.578c0.243,1.499 0.129,6.723 0.104,7.852c-0.079,3.518 -2.441,7.022 -7.086,9.704c-9.452,5.457 -24.798,5.457 -34.25,0c-2.65,-1.53 -4.557,-3.328 -5.721,-5.243c-0.793,-1.306 -1.241,-2.666 -1.344,-4.033Z" style="fill:#e2e2e2;fill-opacity:0.52;"/><path d="M75.81,82.977c-0.095,-1.27 -0.089,-6.274 -0.004,-7.526c0.232,-3.392 2.588,-6.744 7.069,-9.332c9.452,-5.456 24.798,-5.456 34.25,0c4.148,2.396 6.476,5.447 6.982,8.578c0.243,1.499 0.129,6.723 0.104,7.852c-0.079,3.518 -2.441,7.022 -7.086,9.704c-9.452,5.457 -24.798,5.457 -34.25,0c-4.456,-2.573 -6.811,-5.903 -7.065,-9.276Z" style="fill:#e2e2e2;fill-opacity:0.52;"/><path d="M72.884,121.104c14.914,-8.611 39.132,-8.611 54.047,0c14.915,8.612 14.915,22.594 0,31.205c-14.915,8.611 -39.133,8.611 -54.047,-0c-14.915,-8.611 -14.915,-22.593 -0,-31.205Z" style="fill:#fff;fill-opacity:0.21;"/><path d="M82.875,66.119c9.452,-5.456 24.798,-5.456 34.25,0c9.451,5.457 9.451,14.317 -0,19.774c-9.452,5.457 -24.798,5.457 -34.25,0c-9.451,-5.457 -9.451,-14.317 0,-19.774Z" style="fill:#fff;fill-opacity:0.52;"/><path d="M83.499,82.816c0.052,-0.429 -0.041,-13.617 -0.041,-16.02c0,-2.403 1.586,-4.806 4.759,-6.637c6.345,-3.664 16.648,-3.664 22.993,-0c3.172,1.831 4.759,4.234 4.759,6.637c-0,2.403 -0,14.281 -0,16.684c-0,2.403 -1.587,4.806 -4.759,6.638c-6.345,3.663 -16.648,3.663 -22.993,-0c-3.465,-2.001 -5.038,-4.683 -4.718,-7.302Z" style="fill:#001a35;"/><path d="M106.804,95.786c-0.026,4.75 -0.101,9.921 0.161,12.262c0.817,7.28 -0.122,9.762 0.808,12.95c1.438,4.933 -7.572,14.527 -13.961,18.596c-4.772,3.039 -2.993,4.829 -3.024,8.688c-0.005,0.685 6.833,4.111 15.19,3.006c4.396,-0.581 9.176,-2.196 13.171,-3.554c0.454,-0.154 -3.32,-2.181 -6.897,-2.095c-6.036,0.146 -6.442,6.665 -15.164,1.241c-2.251,-1.4 5.099,-10.395 14.183,-9.289c10.064,1.225 16.166,7.908 16.626,8.285c1.594,1.306 5.816,6.346 -1.661,10.312c-4.431,2.35 -20.534,4.594 -23.123,4.725c-2.037,0.104 -13.454,0.643 -15.967,-0.405c-3.909,-1.63 -7.542,-11.622 -6.082,-18.214c2.002,-9.031 15.121,-18.214 14.757,-19.494c-0.831,-2.925 0.893,-10.49 0.647,-15.06c-0.123,-2.276 -1.534,-7.405 -2.47,-11.828c4.203,0.618 8.637,0.575 12.806,-0.126Z" style="fill:#e2e2e2;"/><path d="M83.458,77.184c0.025,2.384 1.611,4.763 4.759,6.581c6.345,3.663 16.648,3.663 22.993,-0c3.172,-1.832 4.759,-4.235 4.759,-6.638c-0,2.403 -0,3.95 -0,6.353c-0,2.403 -1.587,4.806 -4.759,6.638c-6.345,3.663 -16.648,3.663 -22.993,-0c-3.465,-2.001 -5.038,-4.683 -4.718,-7.302c0.052,-0.429 -0.041,-3.286 -0.041,-5.689l0,0.057Z" style="fill:#e2e2e2;fill-opacity:0.52;"/><path d="M88.211,60.159c6.346,-3.664 16.648,-3.664 22.993,-0c6.345,3.663 6.345,9.611 0,13.275c-6.345,3.663 -16.647,3.663 -22.993,-0c-6.345,-3.664 -6.345,-9.612 0,-13.275Z" style="fill:#fff;fill-opacity:0.18;"/><path d="M119.045,91.005c0.05,4.332 0.221,9.422 0.221,11.135c-0,2.848 -1.88,5.696 -5.64,7.867c-7.521,4.341 -19.731,4.341 -27.252,-0c-3.995,-2.307 -5.867,-5.378 -5.618,-8.401c0.13,-1.57 0.216,-6.376 0.205,-10.597c0.588,0.431 1.226,0.847 1.914,1.244c9.452,5.457 24.798,5.457 34.25,0c0.69,-0.399 1.331,-0.816 1.92,-1.248Z" style="fill:#e2e2e2;fill-opacity:0.52;"/><path d="M104.478,39.403c-1.031,-1.967 -6.541,-4.265 -12.81,2.383c-1.718,1.821 2.767,6.181 2.988,10.278c0.247,4.57 -1.478,12.136 -0.646,15.06c0.364,1.281 3.639,2.221 5.636,2.487c3.277,0.435 5.597,-2.386 6.316,-4.288c1.132,-2.997 0.009,-5.67 -0.808,-12.951c-0.519,-4.624 0.193,-11.31 -0.676,-12.969Z" style="fill:#e2e2e2;"/><path d="M80.897,97.999c-0.035,1.61 -0.084,2.919 -0.141,3.607c-0.249,3.024 1.623,6.094 5.618,8.401c7.521,4.342 19.731,4.342 27.252,-0c3.76,-2.171 5.64,-5.019 5.64,-7.867c-0,-0.789 -0.037,-2.297 -0.081,-4.117c3.878,1.137 7.513,2.64 10.753,4.511c8.136,4.697 12.266,10.838 12.39,17c0.127,6.352 -6.75,25.934 -7.381,30.255c-0.67,4.6 -4.051,9.093 -10.143,12.609c-13.69,7.904 -35.918,7.904 -49.608,0c-6.195,-3.576 -9.586,-8.162 -10.175,-12.843c-0.06,-0.479 -7.476,-23.669 -7.349,-30.021c0.124,-6.162 4.254,-12.303 12.39,-17c3.263,-1.884 6.928,-3.396 10.835,-4.535Z" style="fill:#fff;fill-opacity:0.43;"/></svg>