<?xml version="1.0" encoding="UTF-8" standalone="no"?><!DOCTYPE svg PUBLIC "-//W3C//DTD SVG 1.1//EN" "http://www.w3.org/Graphics/SVG/1.1/DTD/svg11.dtd"><svg width="100%" height="100%" viewBox="0 0 200 200" version="1.1" xmlns="http://www.w3.org/2000/svg" xmlns:xlink="http://www.w3.org/1999/xlink" xml:space="preserve" xmlns:serif="http://www.serif.com/" style="fill-rule:evenodd;clip-rule:evenodd;stroke-linejoin:round;stroke-miterlimit:2;"><path d="M75.397,122.844c-0.096,-1.277 -0.09,-6.306 -0.004,-7.564c0.233,-3.409 2.601,-6.778 7.105,-9.378c9.498,-5.484 24.922,-5.484 34.42,-0c4.17,2.407 6.509,5.473 7.018,8.62c0.244,1.507 0.13,6.757 0.104,7.891c-0.079,3.536 -2.453,7.058 -7.122,9.753c-9.498,5.485 -24.922,5.485 -34.42,0c-4.479,-2.585 -6.846,-5.932 -7.101,-9.322Z" style="fill:#e2e2e2;fill-opacity:0.42;"/><path d="M75.397,122.844c-0.096,-1.277 -0.09,-6.306 -0.004,-7.564c0.233,-3.409 2.601,-6.778 7.105,-9.378c9.498,-5.484 24.922,-5.484 34.42,-0c4.17,2.407 6.509,5.473 7.018,8.62c0.244,1.507 0.13,6.757 0.104,7.891c-0.079,3.536 -2.453,7.058 -7.122,9.753c-9.498,5.485 -24.922,5.485 -34.42,0c-2.664,-1.537 -4.581,-3.344 -5.75,-5.269c-0.798,-1.312 -1.248,-2.679 -1.351,-4.053Z" style="fill:#e2e2e2;fill-opacity:0.42;"/><path d="M82.498,105.902c9.498,-5.484 24.922,-5.484 34.42,-0c9.499,5.484 9.499,14.388 0,19.872c-9.498,5.484 -24.922,5.484 -34.42,0c-9.499,-5.484 -9.499,-14.388 -0,-19.872Z" style="fill:#fff;fill-opacity:0.49;"/><path d="M86.713,108.336c7.172,-4.141 18.818,-4.141 25.989,-0c7.172,4.14 7.172,10.864 0,15.004c-7.171,4.141 -18.817,4.141 -25.989,0c-7.171,-4.14 -7.171,-10.864 0,-15.004Z" style="fill:#e2e2e2;fill-opacity:0.42;"/><path d="M81.342,115.532l-0.007,-0l-0,-24.981c-0,-10.141 8.232,-18.373 18.373,-18.373l0.16,-0c10.052,-0 18.213,8.161 18.213,18.213l0,25.141l-0.007,-0c0.139,2.817 -1.651,5.66 -5.372,7.808c-7.171,4.141 -18.817,4.141 -25.989,0c-3.72,-2.148 -5.511,-4.991 -5.371,-7.808Z" style="fill:#e2e2e2;fill-opacity:0.42;"/><path d="M85.185,117.454l-0.123,-0l0,-26.653c0,-6.525 6.563,-14.331 14.646,-14.331l0.128,-0c8.012,-0 14.518,7.759 14.518,14.228l-0,26.756l-0.124,-0c0,1.733 -1.417,3.466 -4.251,4.787c-5.669,2.642 -14.873,2.642 -20.542,0c-2.834,-1.321 -4.252,-3.054 -4.252,-4.787Z" style="fill:#fff;fill-opacity:0.49;"/></svg>