<svg width="100%" height="100%" viewBox="0 0 200 200" version="1.1" xmlns="http://www.w3.org/2000/svg" xmlns:xlink="http://www.w3.org/1999/xlink" xml:space="preserve" xmlns:serif="http://www.serif.com/" style="fill-rule:evenodd;clip-rule:evenodd;stroke-linejoin:round;stroke-miterlimit:2;"><g><path d="M71.785,141.773c-0.301,-4.505 -1.623,-14.557 -8.957,-23.931c-3.477,-4.445 -7.282,-7.427 -10.263,-9.358l17.522,-10.694c3.154,2.058 8.958,6.444 13.452,14.114c4.646,7.931 5.56,15.394 5.767,19.175c-5.84,3.565 -11.681,7.13 -17.521,10.694" style="fill:#212121;fill-rule:nonzero;"/><path d="M105.465,161.219c-0.607,-10.53 -3.217,-31.329 -16.287,-53.34c-12.256,-20.64 -27.896,-32.562 -36.613,-38.286c5.841,-3.565 11.681,-7.129 17.522,-10.694c8.735,5.71 22.722,16.492 34.316,34.415c15.12,23.374 17.951,46.192 18.584,57.21c-5.841,3.565 -11.681,7.13 -17.522,10.695" style="fill:#212121;fill-rule:nonzero;"/><path d="M139.794,181.039c-1.027,-18.046 -5.626,-55.231 -30.1,-93.496c-19.284,-30.151 -42.72,-48.172 -57.13,-57.59c5.842,-3.565 11.683,-7.13 17.523,-10.693c13.984,8.517 40.858,27.46 61.472,61.887c22.3,37.241 25.366,72.717 25.758,89.197l-17.523,10.695Z" style="fill:#212121;fill-rule:nonzero;"/></g><path d="M71.869,141.528c-0.301,-4.504 -1.623,-14.557 -8.957,-23.931c-3.477,-4.445 -7.282,-7.427 -10.263,-9.357l17.522,-10.694c3.154,2.058 8.959,6.443 13.453,14.113c4.646,7.932 5.559,15.394 5.766,19.175c-5.84,3.565 -11.681,7.13 -17.521,10.694" style="fill:#fff;fill-opacity:0.26;fill-rule:nonzero;"/><path d="M105.549,160.974c-0.607,-10.53 -3.217,-31.329 -16.287,-53.34c-12.256,-20.64 -27.896,-32.562 -36.613,-38.285c5.841,-3.565 11.682,-7.129 17.522,-10.694c8.735,5.709 22.723,16.491 34.316,34.414c15.12,23.374 17.951,46.192 18.584,57.21c-5.84,3.565 -11.681,7.13 -17.522,10.695" style="fill:#fff;fill-opacity:0.26;fill-rule:nonzero;"/><path d="M139.878,180.794c-1.027,-18.046 -5.626,-55.23 -30.1,-93.496c-19.284,-30.151 -42.72,-48.172 -57.13,-57.589c5.842,-3.565 11.683,-7.13 17.523,-10.694c13.984,8.517 40.858,27.461 61.472,61.888c22.3,37.241 25.366,72.716 25.758,89.197l-17.523,10.694Z" style="fill:#fff;fill-opacity:0.26;fill-rule:nonzero;"/><g><path d="M139.794,181.039c0,-55.627 -39.053,-123.272 -87.23,-151.086l0,22.01c37.65,21.736 68.169,74.598 68.169,118.071l19.061,11.005Z" style="fill:#212121;fill-rule:nonzero;"/><path d="M52.565,69.593l-0,19.554c19.864,11.469 35.966,39.359 35.966,62.295l16.934,9.777c-0,-33.736 -23.684,-74.758 -52.9,-91.626" style="fill:#212121;fill-rule:nonzero;"/><path d="M71.785,141.773c-0,-12.257 -8.606,-27.16 -19.22,-33.289l0,22.193l19.22,11.096Z" style="fill:#212121;fill-rule:nonzero;"/></g></svg>
