<?xml version="1.0" encoding="UTF-8" standalone="no"?><!DOCTYPE svg PUBLIC "-//W3C//DTD SVG 1.1//EN" "http://www.w3.org/Graphics/SVG/1.1/DTD/svg11.dtd"><svg width="100%" height="100%" viewBox="0 0 200 200" version="1.1" xmlns="http://www.w3.org/2000/svg" xmlns:xlink="http://www.w3.org/1999/xlink" xml:space="preserve" xmlns:serif="http://www.serif.com/" style="fill-rule:evenodd;clip-rule:evenodd;stroke-linejoin:round;stroke-miterlimit:2;"><path d="M133.5,22.67c0,0 -3.612,29.852 -12.397,35.228c-6.552,4.009 -11.185,-10.594 -20.585,-5.415c-12.113,6.673 -10.674,17.989 -21.569,24.464c-8.555,5.084 -12.916,-6.877 -21.218,-1.895c-10.13,6.079 -6.451,22.901 -17.735,29.941c-8.437,5.263 -9.881,16.235 -9.881,16.235l0,30.685l103.385,-59.689l0,-69.554Z" style="fill:#25bcb4;"/><path d="M133.5,22.67l-6.015,-3.473c-0,0 -3.613,29.852 -12.397,35.228c-0.954,0.584 -1.868,0.773 -2.76,0.686c-1.227,-0.985 -2.504,-1.984 -3.88,-2.703c-0.718,-0.375 -5.146,-3.135 -6.776,-3.836c-2.095,-0.9 -4.43,-1.071 -7.17,0.438c-12.112,6.673 -10.673,17.989 -21.569,24.464c-8.555,5.084 -12.915,-6.877 -21.217,-1.895c-10.131,6.079 -6.452,22.901 -17.735,29.941c-8.438,5.263 -9.881,16.235 -9.881,16.235l-0,30.685l6.015,3.473l103.385,-59.689l0,-69.554Z" style="fill:#25bcb4;"/><path d="M133.5,22.67l-6.015,-3.473c-0,0 -3.613,29.852 -12.397,35.228c-0.954,0.584 -1.868,0.773 -2.76,0.686c-1.227,-0.985 -2.504,-1.984 -3.88,-2.703c-0.718,-0.375 -5.146,-3.135 -6.776,-3.836c-2.095,-0.9 -4.43,-1.071 -7.17,0.438c-12.112,6.673 -10.673,17.989 -21.569,24.464c-8.555,5.084 -12.915,-6.877 -21.217,-1.895c-10.131,6.079 -6.452,22.901 -17.735,29.941c-8.438,5.263 -9.881,16.235 -9.881,16.235l-0,30.685l6.015,3.473l103.385,-59.689l0,-69.554Z" style="fill:#25bcb4;"/><path d="M133.5,22.67l-6.015,-3.473c-0,0 -3.613,29.852 -12.397,35.228c-0.954,0.584 -1.868,0.773 -2.76,0.686c-1.227,-0.985 -2.504,-1.984 -3.88,-2.703c-0.718,-0.375 -5.146,-3.135 -6.776,-3.836c-2.095,-0.9 -4.43,-1.071 -7.17,0.438c-12.112,6.673 -10.673,17.989 -21.569,24.464c-8.555,5.084 -12.915,-6.877 -21.217,-1.895c-10.131,6.079 -6.452,22.901 -17.735,29.941c-8.438,5.263 -9.881,16.235 -9.881,16.235l-0,30.685l6.015,3.473l103.385,-59.689l0,-69.554Z" style="fill:#fbfbfb;fill-opacity:0.18;"/><path d="M133.5,22.67c0,0 -3.612,29.852 -12.397,35.228c-6.552,4.009 -11.185,-10.594 -20.585,-5.415c-12.113,6.673 -10.674,17.989 -21.569,24.464c-8.555,5.084 -12.916,-6.877 -21.218,-1.895c-10.13,6.079 -6.451,22.901 -17.735,29.941c-8.437,5.263 -9.881,16.235 -9.881,16.235l0,30.685l103.385,-59.689l0,-69.554Z" style="fill:#25bcb4;"/><path d="M147.183,46.67c-0,-0 -3.613,11.824 -12.397,17.199c-6.552,4.009 -8.44,-20.533 -17.84,-15.354c-12.113,6.673 -15.402,35.115 -26.297,41.59c-8.556,5.084 -9.317,-3.824 -17.619,1.158c-10.13,6.079 -8.555,32.261 -19.839,39.301c-8.437,5.263 -9.393,1.026 -9.393,1.026l-0,30.685l103.385,-59.689l-0,-55.916Z" style="fill:#001a35;"/><path d="M152.609,49.803l-5.426,-3.133c-0,-0 -3.593,11.757 -12.323,17.153c-2.414,-4.234 -4.655,-10.872 -8.268,-12.518c-0.731,-0.333 -4.549,-2.872 -5.874,-3.308c-1.115,-0.368 -2.358,-0.261 -3.772,0.518c-12.113,6.673 -15.402,35.115 -26.297,41.59c-8.556,5.084 -9.317,-3.824 -17.619,1.158c-10.13,6.079 -8.555,32.261 -19.839,39.301c-8.437,5.263 -9.393,1.026 -9.393,1.026l-0,30.685l5.426,3.133l103.385,-59.689l-0,-55.916Z" style="fill:#001a35;"/><path d="M152.609,49.803l-5.426,-3.133c-0,-0 -3.593,11.757 -12.323,17.153c-2.414,-4.234 -4.655,-10.872 -8.268,-12.518c-0.731,-0.333 -4.549,-2.872 -5.874,-3.308c-1.115,-0.368 -2.358,-0.261 -3.772,0.518c-12.113,6.673 -15.402,35.115 -26.297,41.59c-8.556,5.084 -9.317,-3.824 -17.619,1.158c-10.13,6.079 -8.555,32.261 -19.839,39.301c-8.437,5.263 -9.393,1.026 -9.393,1.026l-0,30.685l5.426,3.133l103.385,-59.689l-0,-55.916Z" style="fill:#f5f5f5;fill-opacity:0.16;"/><path d="M152.609,49.803c-0,-0 -3.613,11.823 -12.397,17.199c-6.552,4.009 -8.439,-20.533 -17.84,-15.355c-12.113,6.673 -15.402,35.116 -26.297,41.591c-8.555,5.084 -9.317,-3.824 -17.619,1.158c-10.13,6.079 -8.555,32.261 -19.839,39.3c-8.437,5.264 -9.393,1.027 -9.393,1.027l-0,30.685l103.385,-59.689l-0,-55.916Z" style="fill:#001a35;"/><path d="M169.573,46.67c0,-0 -4.037,16.57 -12.822,21.945c-6.552,4.01 -7.783,-2.148 -17.183,3.031c-12.113,6.673 -14.321,37.55 -25.216,44.025c-8.556,5.084 -9.609,-11.016 -17.911,-6.034c-10.131,6.079 -9.513,19.092 -20.797,26.131c-8.437,5.264 -9.456,-5.123 -9.456,-5.123l0,46.505l103.385,-59.689l0,-70.791Z" style="fill:#ff8e16;"/><path d="M175.9,50.323l-6.327,-3.653c0,-0 -4.037,16.57 -12.822,21.945c-6.552,4.01 -7.783,-2.148 -17.183,3.031c-12.113,6.673 -14.321,37.55 -25.216,44.025c-0.907,0.539 -1.73,0.84 -2.485,0.953c-1.28,-1.488 -2.533,-3.031 -4.047,-3.801c-0.832,-0.424 -5.215,-3.213 -6.694,-3.823c-1.306,-0.538 -2.811,-0.488 -4.685,0.637c-10.131,6.079 -9.513,19.092 -20.797,26.131c-0.915,0.572 -1.743,0.958 -2.493,1.195c-0.513,-1.414 -0.636,-2.665 -0.636,-2.665l-6.327,-3.653l0,46.505l6.327,3.653l103.385,-59.69l0,-70.79Z" style="fill:#ff8e16;"/><path d="M175.9,50.323l-6.327,-3.653c0,-0 -4.037,16.57 -12.822,21.945c-6.552,4.01 -7.783,-2.148 -17.183,3.031c-12.113,6.673 -14.321,37.55 -25.216,44.025c-0.907,0.539 -1.73,0.84 -2.485,0.953c-1.28,-1.488 -2.533,-3.031 -4.047,-3.801c-0.832,-0.424 -5.215,-3.213 -6.694,-3.823c-1.306,-0.538 -2.811,-0.488 -4.685,0.637c-10.131,6.079 -9.513,19.092 -20.797,26.131c-0.915,0.572 -1.743,0.958 -2.493,1.195c-0.513,-1.414 -0.636,-2.665 -0.636,-2.665l-6.327,-3.653l0,46.505l6.327,3.653l103.385,-59.69l0,-70.79Z" style="fill:#fff;fill-opacity:0.13;"/><path d="M175.9,50.323c0,-0 -4.037,16.57 -12.822,21.945c-6.552,4.009 -7.783,-2.148 -17.183,3.03c-12.113,6.673 -14.321,37.551 -25.216,44.026c-8.556,5.084 -9.609,-11.016 -17.911,-6.034c-10.131,6.079 -9.513,19.092 -20.797,26.131c-8.437,5.264 -9.456,-5.123 -9.456,-5.123l0,46.505l103.385,-59.69l0,-70.79Z" style="fill:#ff8e16;"/></svg>