<?xml version="1.0" encoding="UTF-8" standalone="no"?><!DOCTYPE svg PUBLIC "-//W3C//DTD SVG 1.1//EN" "http://www.w3.org/Graphics/SVG/1.1/DTD/svg11.dtd"><svg width="100%" height="100%" viewBox="0 0 200 200" version="1.1" xmlns="http://www.w3.org/2000/svg" xmlns:xlink="http://www.w3.org/1999/xlink" xml:space="preserve" xmlns:serif="http://www.serif.com/" style="fill-rule:evenodd;clip-rule:evenodd;stroke-linejoin:round;stroke-miterlimit:2;"><path d="M95.121,48.372l-0,7.91c-0,-0 1.361,1.551 2.374,3.723c-0.578,0.85 -1.417,1.654 -2.592,2.374c-6.067,3.719 -12.92,1.119 -22.099,6.181c-2.564,1.414 -3.521,3.243 -3.552,5.303c-0.022,1.455 0.174,6.268 0.054,7.164c-0.562,4.196 3.32,9.506 5.36,14.228c-0.404,0.457 -0.923,0.88 -1.573,1.266c-8.046,4.785 -22.865,-2.609 -30.633,2.056c-3.035,1.822 -3.905,3.681 -4.025,5.577c-0.122,1.926 -0.01,7.86 -0.014,8.309c-0.59,1.418 -1.803,2.857 -4.137,4.317c-7.729,4.837 -17.774,0.16 -17.774,0.16l-0,7.91l68.293,39.429l98.687,-56.977l0,-7.91l-88.369,-51.02Z" style="fill:#ff8e16;"/><path d="M95.121,48.372c-0,-0 7.916,9.021 -0.218,14.007c-6.067,3.719 -12.92,1.119 -22.099,6.181c-11.827,6.523 10.536,21.869 0.289,27.961c-8.046,4.785 -22.865,-2.609 -30.633,2.056c-9.481,5.693 2.162,11.734 -8.176,18.203c-7.729,4.837 -17.774,0.16 -17.774,0.16l68.293,39.429l98.687,-56.977l-88.369,-51.02Z" style="fill:#fff;fill-opacity:0.14;"/><path d="M112.853,51.306l0,7.302c0,0 8.458,6.61 11.912,12.549c-0.165,0.132 -0.345,0.258 -0.541,0.378c-6.067,3.719 -24.772,-1.974 -33.951,3.088c-11.827,6.523 -0.412,11.527 -10.66,17.62c-8.046,4.784 -24.178,0.277 -31.947,4.942c-1.93,1.16 -2.673,2.374 -2.717,3.628c-0.05,1.398 0.101,6.155 0.012,7.112c-0.216,2.309 2.035,4.755 3.65,7.237c-0.425,0.402 -0.95,0.802 -1.587,1.201c-2.796,1.75 -3.664,3.604 -3.634,5.258c0.028,1.482 -0.004,6.126 -0,7.231c0.008,2.952 2.907,5.285 2.907,5.285l38.506,22.231l98.687,-56.977l0,-7.303l-70.637,-40.782Z" style="fill:#25bcb4;"/><path d="M112.853,51.306c0,-0 19.505,15.243 11.371,20.229c-6.067,3.719 -24.772,-1.974 -33.951,3.088c-11.827,6.523 -0.412,11.527 -10.66,17.62c-8.046,4.784 -24.178,0.277 -31.947,4.942c-9.48,5.693 9.695,12.709 -0.642,19.178c-7.729,4.837 -0.727,10.471 -0.727,10.471l38.506,22.231l98.687,-56.977l-70.637,-40.782Z" style="fill:#fcfcfc;fill-opacity:0.14;"/><path d="M137.266,57.705c0,-0 4.602,6.639 -3.533,11.625c-6.067,3.719 -29.057,-7.475 -38.236,-2.413c-11.828,6.523 6.975,21.004 -3.272,27.097c-8.047,4.784 -16.501,0.742 -24.27,5.408c-9.48,5.693 14.42,17.755 4.083,24.224c-7.73,4.837 -12.602,3.078 -12.602,3.078l25.367,14.646l98.687,-56.978l-46.224,-26.687Z" style="fill:#001a35;"/><path d="M137.611,65.6l-0.345,-0.199c0,-0 0.095,0.137 0.234,0.386c-0.737,1.201 -1.926,2.414 -3.767,3.543c-6.067,3.719 -29.057,-7.475 -38.236,-2.413c-2.768,1.527 -3.859,3.489 -4.036,5.679c-0.129,1.594 -0.024,8.019 -0.026,8.273c-0.038,3.427 1.928,7.346 3.109,10.994c-0.505,0.796 -1.256,1.519 -2.319,2.151c-8.047,4.784 -16.501,0.742 -24.27,5.408c-1.412,0.848 -2.084,1.837 -2.238,2.929c-0.215,1.526 0.049,6.882 -0.026,7.943c-0.253,3.594 4.776,8.23 7.422,12.554c-0.307,0.274 -0.664,0.54 -1.075,0.798c-7.73,4.837 -12.602,3.078 -12.602,3.078l0,7.696l25.367,14.645l98.687,-56.977l0,-7.696l-46.224,-26.687c0,-0 2.671,3.854 0.345,7.895Z" style="fill:#001a35;"/><path d="M137.266,57.705c0,-0 4.602,6.639 -3.533,11.625c-6.067,3.719 -29.057,-7.475 -38.236,-2.413c-11.828,6.523 6.975,21.004 -3.272,27.097c-8.047,4.784 -16.501,0.742 -24.27,5.408c-9.48,5.693 14.42,17.755 4.083,24.224c-7.73,4.837 -12.602,3.078 -12.602,3.078l25.367,14.646l98.687,-56.978l-46.224,-26.687Z" style="fill:#f6f6f6;fill-opacity:0.09;"/></svg>