<?xml version="1.0" encoding="UTF-8" standalone="no"?><!DOCTYPE svg PUBLIC "-//W3C//DTD SVG 1.1//EN" "http://www.w3.org/Graphics/SVG/1.1/DTD/svg11.dtd"><svg width="100%" height="100%" viewBox="0 0 200 200" version="1.1" xmlns="http://www.w3.org/2000/svg" xmlns:xlink="http://www.w3.org/1999/xlink" xml:space="preserve" xmlns:serif="http://www.serif.com/" style="fill-rule:evenodd;clip-rule:evenodd;stroke-linejoin:round;stroke-miterlimit:2;"><path d="M149.196,158.02c0.438,1.231 0.737,2.475 0.896,3.725l0.137,0.569l-0.074,-0c0.744,7.94 -4.133,16.025 -14.631,22.086c-19.606,11.319 -51.442,11.319 -71.048,-0c-10.45,-6.034 -15.331,-14.073 -14.641,-21.979l-0.064,0l0.11,-0.459c0.16,-1.391 0.491,-2.776 0.995,-4.143l18.564,-77.291l0,0.106c0.047,4.482 3.029,8.956 8.946,12.373c11.929,6.887 31.299,6.887 43.228,-0c5.964,-3.444 8.946,-7.962 8.946,-12.479l18.636,77.492Z" style="fill:#b2b2b2;fill-opacity:0.21;"/><path d="M78.386,68.049c11.929,-6.887 31.299,-6.887 43.228,0c11.928,6.888 11.928,18.07 -0,24.958c-11.929,6.887 -31.299,6.887 -43.228,-0c-11.928,-6.888 -11.928,-18.07 0,-24.958Z" style="fill:#b2b2b2;fill-opacity:0.21;"/><path d="M78.386,68.049c11.929,-6.887 31.299,-6.887 43.228,0c11.928,6.888 11.928,18.07 -0,24.958c-11.929,6.887 -31.299,6.887 -43.228,-0c-11.928,-6.888 -11.928,-18.07 0,-24.958Z" style="fill:#b2b2b2;fill-opacity:0.21;"/><path d="M84.732,71.713c8.427,-4.865 22.109,-4.865 30.536,0c8.426,4.865 8.426,12.765 -0,17.63c-8.427,4.865 -22.109,4.865 -30.536,-0c-8.426,-4.865 -8.426,-12.765 0,-17.63Z" style="fill:#b2b2b2;fill-opacity:0.21;"/><path d="M84.732,71.713c8.427,-4.865 22.109,-4.865 30.536,0c8.426,4.865 8.426,12.765 -0,17.63c-8.427,4.865 -22.109,4.865 -30.536,-0c-8.426,-4.865 -8.426,-12.765 0,-17.63Z" style="fill:#b2b2b2;fill-opacity:0.21;"/><path d="M84.732,71.713c8.427,-4.865 22.109,-4.865 30.536,0c8.426,4.865 8.426,12.765 -0,17.63c-8.427,4.865 -22.109,4.865 -30.536,-0c-8.426,-4.865 -8.426,-12.765 0,-17.63Z" style="fill:#b2b2b2;fill-opacity:0.21;"/><path d="M70.093,146.623c16.506,-9.53 43.308,-9.53 59.814,-0c16.506,9.53 16.506,25.004 0,34.533c-16.506,9.53 -43.308,9.53 -59.814,0c-16.506,-9.529 -16.506,-25.003 -0,-34.533Z" style="fill:#b2b2b2;fill-opacity:0.21;"/><g><g><path d="M97.686,167.656l-0,-154.383l0.005,-0c-0.062,-0.702 0.371,-1.417 1.299,-1.952c1.739,-1.005 4.563,-1.005 6.302,-0c1.075,0.62 1.485,1.48 1.231,2.283l0,153.157c0.254,0.804 -0.156,1.663 -1.231,2.284c-1.739,1.004 -4.563,1.004 -6.302,-0c-0.68,-0.392 -1.094,-0.88 -1.242,-1.389l-0.062,-0Z" style="fill:#323232;"/><path d="M98.99,11.321c1.739,-1.005 4.563,-1.005 6.302,-0c1.739,1.004 1.739,2.634 -0,3.638c-1.739,1.004 -4.563,1.004 -6.302,-0c-1.739,-1.004 -1.739,-2.634 -0,-3.638Z" style="fill:#a4a4a4;fill-opacity:0.32;"/></g><g><path d="M111.292,181.32l-27.285,-154.383l0.006,-0.002c-0.184,-0.685 0.102,-1.515 0.892,-2.298c1.48,-1.468 4.17,-2.22 6.005,-1.68c1.134,0.334 1.677,1.084 1.577,1.955l27.069,153.158c0.383,0.735 0.144,1.704 -0.77,2.611c-1.48,1.468 -4.171,2.221 -6.005,1.68c-0.717,-0.211 -1.198,-0.588 -1.429,-1.058l-0.06,0.017Z" style="fill:#323232;"/><path d="M111.292,181.32l-27.285,-154.383l0.006,-0.002c-0.184,-0.685 0.102,-1.515 0.892,-2.298c1.48,-1.468 4.17,-2.22 6.005,-1.68c1.134,0.334 1.677,1.084 1.577,1.955l27.069,153.158c0.383,0.735 0.144,1.704 -0.77,2.611c-1.48,1.468 -4.171,2.221 -6.005,1.68c-0.717,-0.211 -1.198,-0.588 -1.429,-1.058l-0.06,0.017Z" style="fill:#919191;fill-opacity:0.11;"/><path d="M84.905,24.637c1.48,-1.468 4.17,-2.22 6.005,-1.68c1.835,0.541 2.123,2.171 0.643,3.639c-1.48,1.467 -4.17,2.22 -6.005,1.679c-1.835,-0.54 -2.123,-2.17 -0.643,-3.638Z" style="fill:#a4a4a4;fill-opacity:0.32;"/></g><g><path d="M89.559,175.354l19.483,-154.383l0.006,0.001c0.028,-0.714 0.54,-1.344 1.513,-1.698c1.823,-0.665 4.577,-0.113 6.146,1.23c0.97,0.831 1.262,1.771 0.913,2.524l-19.328,153.158c0.146,0.853 -0.363,1.632 -1.49,2.043c-1.823,0.664 -4.577,0.112 -6.146,-1.231c-0.613,-0.525 -0.956,-1.094 -1.036,-1.632l-0.061,-0.012Z" style="fill:#323232;"/><path d="M89.559,175.354l19.483,-154.383l0.006,0.001c0.028,-0.714 0.54,-1.344 1.513,-1.698c1.823,-0.665 4.577,-0.113 6.146,1.23c0.97,0.831 1.262,1.771 0.913,2.524l-19.328,153.158c0.146,0.853 -0.363,1.632 -1.49,2.043c-1.823,0.664 -4.577,0.112 -6.146,-1.231c-0.613,-0.525 -0.956,-1.094 -1.036,-1.632l-0.061,-0.012Z" style="fill:#7d7d7d;fill-opacity:0.12;"/><path d="M110.593,19.424c1.823,-0.665 4.577,-0.113 6.147,1.231c1.569,1.343 1.364,2.974 -0.459,3.638c-1.823,0.665 -4.577,0.113 -6.147,-1.231c-1.569,-1.343 -1.364,-2.974 0.459,-3.638Z" style="fill:#a4a4a4;fill-opacity:0.32;"/></g><g><path d="M75.028,159.373l34.096,-110.918l0.005,0.002c0.017,-0.08 0.037,-0.16 0.061,-0.239c0.541,-1.76 2.842,-2.617 5.137,-1.913c2.294,0.705 3.718,2.706 3.178,4.466c-0.025,0.08 -0.053,0.158 -0.085,0.235l0.056,0.017l-34.216,111.308l-0.056,-0.017c-0.606,1.679 -2.855,2.482 -5.097,1.794c-2.294,-0.705 -3.718,-2.706 -3.178,-4.466c0.028,-0.092 0.061,-0.182 0.099,-0.269Z" style="fill:#323232;"/><path d="M114.72,46.165c2.294,0.705 3.718,2.706 3.178,4.466c-0.541,1.761 -2.842,2.618 -5.137,1.913c-2.294,-0.704 -3.718,-2.705 -3.178,-4.465c0.541,-1.761 2.842,-2.618 5.137,-1.914Z" style="fill:#919191;fill-opacity:0.22;"/></g></g><g><path d="M111.292,181.32l-27.285,-154.383l0.006,-0.002c-0.184,-0.685 0.102,-1.515 0.892,-2.298c1.48,-1.468 4.17,-2.22 6.005,-1.68c1.134,0.334 1.677,1.084 1.577,1.955l27.069,153.158c0.383,0.735 0.144,1.704 -0.77,2.611c-1.48,1.468 -4.171,2.221 -6.005,1.68c-0.717,-0.211 -1.198,-0.588 -1.429,-1.058l-0.06,0.017Z" style="fill:#323232;"/><path d="M84.905,24.637c1.48,-1.468 4.17,-2.22 6.005,-1.68c1.835,0.541 2.123,2.171 0.643,3.639c-1.48,1.467 -4.17,2.22 -6.005,1.679c-1.835,-0.54 -2.123,-2.17 -0.643,-3.638Z" style="fill:#a4a4a4;fill-opacity:0.32;"/></g><g><path d="M111.292,181.32l-27.285,-154.383l0.006,-0.002c-0.184,-0.685 0.102,-1.515 0.892,-2.298c1.48,-1.468 4.17,-2.22 6.005,-1.68c1.134,0.334 1.677,1.084 1.577,1.955l27.069,153.158c0.383,0.735 0.144,1.704 -0.77,2.611c-1.48,1.468 -4.171,2.221 -6.005,1.68c-0.717,-0.211 -1.198,-0.588 -1.429,-1.058l-0.06,0.017Z" style="fill:#323232;"/><path d="M84.905,24.637c1.48,-1.468 4.17,-2.22 6.005,-1.68c1.835,0.541 2.123,2.171 0.643,3.639c-1.48,1.467 -4.17,2.22 -6.005,1.679c-1.835,-0.54 -2.123,-2.17 -0.643,-3.638Z" style="fill:#a4a4a4;fill-opacity:0.32;"/></g><path d="M62.416,144.163c0.182,-5.413 3.848,-10.795 10.997,-14.922c3.356,-1.938 7.191,-3.432 11.285,-4.483c0.346,-0.089 1.043,-0.257 1.043,-0.257l-3.688,12.097c1.22,3.831 7.541,1.641 9.381,-0.933l3.915,-12.823l0.908,-0.366l-0.878,7.592c1.552,2.613 3.51,3.844 7.277,2.497l2.796,15.714c4.608,3.615 7.681,3.902 8.901,0.17l-4.395,-24.986c0.342,-0.7 12.244,2.652 16.629,5.778c5.047,3.599 8.86,7.49 10.337,11.635c0.448,1.259 0.701,3.302 0.688,2.809l4.044,15.965c0.161,0.519 0.293,1.04 0.396,1.563l0.284,1.12l-0.109,0c0.792,6.789 -3.302,13.734 -12.283,18.919c-16.506,9.53 -43.308,9.53 -59.814,0c-8.867,-5.119 -12.971,-11.954 -12.311,-18.661l-0.057,0.001l0.102,-0.403c0.148,-1.168 0.441,-2.331 0.878,-3.479l3.674,-14.547Z" style="fill:#3ffff2;fill-opacity:0.21;"/><path d="M59.165,157.756l19.719,-78.093l0,0.075c0.033,3.166 2.139,6.326 6.32,8.74c8.426,4.865 22.109,4.865 30.536,-0c4.213,-2.433 6.32,-5.624 6.32,-8.815l20.019,79.034c0.161,0.518 0.293,1.039 0.396,1.562l0.284,1.12l-0.109,0c0.792,6.789 -3.302,13.734 -12.283,18.919c-16.506,9.53 -43.308,9.53 -59.815,0c-8.867,-5.119 -12.97,-11.954 -12.311,-18.66l-0.056,-0l0.102,-0.403c0.148,-1.168 0.44,-2.331 0.878,-3.479Z" style="fill:#b2b2b2;fill-opacity:0.21;"/><path d="M73.413,129.241c3.356,-1.938 7.191,-3.432 11.285,-4.483c0.346,-0.089 1.043,-0.257 1.043,-0.257l-3.688,12.097c1.22,3.831 7.541,1.641 9.381,-0.933l3.915,-12.823l0.908,-0.366l-0.878,7.592c1.552,2.613 3.51,3.844 7.277,2.497l2.796,15.714c4.608,3.615 7.681,3.902 8.901,0.17l-4.395,-24.986c0.342,-0.7 12.244,2.652 16.629,5.778c6.579,4.692 11.062,9.88 11.004,15.48c-0.057,5.514 -3.725,11.017 -11.004,15.22c-14.674,8.471 -38.5,8.471 -53.174,-0c-14.673,-8.472 -14.673,-22.228 0,-30.7Z" style="fill:#fff;fill-opacity:0.3;"/></svg>