<?xml version="1.0" encoding="UTF-8" standalone="no"?><!DOCTYPE svg PUBLIC "-//W3C//DTD SVG 1.1//EN" "http://www.w3.org/Graphics/SVG/1.1/DTD/svg11.dtd"><svg width="100%" height="100%" viewBox="0 0 200 200" version="1.1" xmlns="http://www.w3.org/2000/svg" xmlns:xlink="http://www.w3.org/1999/xlink" xml:space="preserve" xmlns:serif="http://www.serif.com/" style="fill-rule:evenodd;clip-rule:evenodd;stroke-linejoin:round;stroke-miterlimit:2;"><path d="M46.516,144.531l0,29.063l7.771,4.486l7.77,-4.486l-0,-29.063l-7.77,-4.486l-7.771,4.486Z" style="fill:#001a35;"/><path d="M54.287,149.017l-7.771,-4.486l0,29.063l7.771,4.486l-0,-29.063Z" style="fill:#fff;fill-opacity:0.25;"/><path d="M54.287,140.045l-7.771,4.486l7.771,4.486l7.77,-4.486l-7.77,-4.486Z" style="fill:#fff;fill-opacity:0.25;"/><path d="M54.287,140.045l-7.771,4.486l7.771,4.486l7.77,-4.486l-7.77,-4.486Z" style="fill:#fff;fill-opacity:0.25;"/><path d="M46.516,128.737l0,29.398l7.771,4.486l7.77,-4.486l-0,-29.398l-7.77,-4.487l-7.771,4.487Z" style="fill:#25bcb4;"/><path d="M54.287,133.223l-7.771,-4.486l0,29.398l7.771,4.486l-0,-29.398Z" style="fill:#fff;fill-opacity:0.25;"/><path d="M54.287,124.25l-7.771,4.487l7.771,4.486l7.77,-4.486l-7.77,-4.487Z" style="fill:#fff;fill-opacity:0.25;"/><path d="M54.287,124.25l-7.771,4.487l7.771,4.486l7.77,-4.486l-7.77,-4.487Z" style="fill:#fff;fill-opacity:0.25;"/><path d="M46.516,89.786l0,44.367l7.771,4.487l7.77,-4.487l-0,-44.367l-7.77,-4.486l-7.771,4.486Z" style="fill:#ff8e16;"/><path d="M54.287,94.272l-7.771,-4.486l0,44.367l7.771,4.487l-0,-44.368Z" style="fill:#fff;fill-opacity:0.25;"/><path d="M54.287,85.3l-7.771,4.486l7.771,4.486l7.77,-4.486l-7.77,-4.486Z" style="fill:#fff;fill-opacity:0.25;"/><path d="M54.287,85.3l-7.771,4.486l7.771,4.486l7.77,-4.486l-7.77,-4.486Z" style="fill:#fff;fill-opacity:0.25;"/><path d="M64.74,134.009l0,29.063l7.771,4.486l7.77,-4.486l-0,-29.063l-7.77,-4.486l-7.771,4.486Z" style="fill:#001a35;"/><path d="M72.511,138.495l-7.771,-4.486l0,29.063l7.771,4.486l-0,-29.063Z" style="fill:#fff;fill-opacity:0.25;"/><path d="M72.511,129.523l-7.771,4.486l7.771,4.486l7.77,-4.486l-7.77,-4.486Z" style="fill:#fff;fill-opacity:0.25;"/><path d="M72.511,129.523l-7.771,4.486l7.771,4.486l7.77,-4.486l-7.77,-4.486Z" style="fill:#fff;fill-opacity:0.25;"/><path d="M64.74,114.824l0,29.398l7.771,4.487l7.77,-4.487l-0,-29.398l-7.77,-4.486l-7.771,4.486Z" style="fill:#25bcb4;"/><path d="M72.511,119.31l-7.771,-4.486l0,29.398l7.771,4.487l-0,-29.399Z" style="fill:#fff;fill-opacity:0.25;"/><path d="M72.511,110.338l-7.771,4.486l7.771,4.486l7.77,-4.486l-7.77,-4.486Z" style="fill:#fff;fill-opacity:0.25;"/><path d="M72.511,110.338l-7.771,4.486l7.771,4.486l7.77,-4.486l-7.77,-4.486Z" style="fill:#fff;fill-opacity:0.25;"/><path d="M64.74,79.264l0,46.719l7.771,4.486l7.77,-4.486l-0,-46.719l-7.77,-4.486l-7.771,4.486Z" style="fill:#ff8e16;"/><path d="M72.511,83.75l-7.771,-4.486l0,46.719l7.771,4.486l-0,-46.719Z" style="fill:#fff;fill-opacity:0.25;"/><path d="M72.511,74.778l-7.771,4.486l7.771,4.486l7.77,-4.486l-7.77,-4.486Z" style="fill:#fff;fill-opacity:0.25;"/><path d="M72.511,74.778l-7.771,4.486l7.771,4.486l7.77,-4.486l-7.77,-4.486Z" style="fill:#fff;fill-opacity:0.25;"/><path d="M83.073,123.425l-0,29.063l7.77,4.486l7.77,-4.486l0,-29.063l-7.77,-4.486l-7.77,4.486Z" style="fill:#001a35;"/><path d="M90.843,127.911l-7.77,-4.486l-0,29.063l7.77,4.486l-0,-29.063Z" style="fill:#fff;fill-opacity:0.25;"/><path d="M90.843,118.939l-7.77,4.486l7.77,4.486l7.77,-4.486l-7.77,-4.486Z" style="fill:#fff;fill-opacity:0.25;"/><path d="M90.843,118.939l-7.77,4.486l7.77,4.486l7.77,-4.486l-7.77,-4.486Z" style="fill:#fff;fill-opacity:0.25;"/><path d="M83.073,97.868l-0,29.398l7.77,4.486l7.77,-4.486l0,-29.398l-7.77,-4.486l-7.77,4.486Z" style="fill:#25bcb4;"/><path d="M90.843,102.354l-7.77,-4.486l-0,29.398l7.77,4.486l-0,-29.398Z" style="fill:#fff;fill-opacity:0.25;"/><path d="M90.843,93.382l-7.77,4.486l7.77,4.486l7.77,-4.486l-7.77,-4.486Z" style="fill:#fff;fill-opacity:0.25;"/><path d="M90.843,93.382l-7.77,4.486l7.77,4.486l7.77,-4.486l-7.77,-4.486Z" style="fill:#fff;fill-opacity:0.25;"/><path d="M83.073,68.68l-0,49.164l7.77,4.486l7.77,-4.486l0,-49.164l-7.77,-4.486l-7.77,4.486Z" style="fill:#ff8e16;"/><path d="M90.843,73.166l-7.77,-4.486l-0,49.164l7.77,4.486l-0,-49.164Z" style="fill:#fff;fill-opacity:0.25;"/><path d="M90.843,64.194l-7.77,4.486l7.77,4.486l7.77,-4.486l-7.77,-4.486Z" style="fill:#fff;fill-opacity:0.25;"/><path d="M90.843,64.194l-7.77,4.486l7.77,4.486l7.77,-4.486l-7.77,-4.486Z" style="fill:#fff;fill-opacity:0.25;"/><path d="M101.297,112.904l-0,29.062l7.77,4.486l7.77,-4.486l0,-29.062l-7.77,-4.487l-7.77,4.487Z" style="fill:#001a35;"/><path d="M109.067,117.39l-7.77,-4.486l-0,29.062l7.77,4.486l0,-29.062Z" style="fill:#fff;fill-opacity:0.25;"/><path d="M109.067,108.417l-7.77,4.487l7.77,4.486l7.77,-4.486l-7.77,-4.487Z" style="fill:#fff;fill-opacity:0.25;"/><path d="M109.067,108.417l-7.77,4.487l7.77,4.486l7.77,-4.486l-7.77,-4.487Z" style="fill:#fff;fill-opacity:0.25;"/><path d="M101.297,83.505l-0,29.399l7.77,4.486l7.77,-4.486l0,-29.399l-7.77,-4.486l-7.77,4.486Z" style="fill:#25bcb4;"/><path d="M109.067,87.991l-7.77,-4.486l-0,29.399l7.77,4.486l0,-29.399Z" style="fill:#fff;fill-opacity:0.25;"/><path d="M109.067,79.019l-7.77,4.486l7.77,4.486l7.77,-4.486l-7.77,-4.486Z" style="fill:#fff;fill-opacity:0.25;"/><path d="M109.067,79.019l-7.77,4.486l7.77,4.486l7.77,-4.486l-7.77,-4.486Z" style="fill:#fff;fill-opacity:0.25;"/><path d="M101.297,58.159l-0,45.735l7.77,4.486l7.77,-4.486l0,-45.735l-7.77,-4.487l-7.77,4.487Z" style="fill:#ff8e16;"/><path d="M109.067,62.645l-7.77,-4.486l-0,45.735l7.77,4.486l0,-45.735Z" style="fill:#fff;fill-opacity:0.25;"/><path d="M109.067,53.672l-7.77,4.487l7.77,4.486l7.77,-4.486l-7.77,-4.487Z" style="fill:#fff;fill-opacity:0.25;"/><path d="M109.067,53.672l-7.77,4.487l7.77,4.486l7.77,-4.486l-7.77,-4.487Z" style="fill:#fff;fill-opacity:0.25;"/><path d="M119.719,94.234l0,37.096l7.77,4.486l7.771,-4.486l-0,-37.096l-7.771,-4.486l-7.77,4.486Z" style="fill:#001a35;"/><path d="M127.489,98.721l-7.77,-4.487l0,37.096l7.77,4.486l0,-37.095Z" style="fill:#fff;fill-opacity:0.25;"/><path d="M119.719,68.383l0,29.398l7.77,4.486l7.771,-4.486l-0,-29.398l-7.771,-4.486l-7.77,4.486Z" style="fill:#25bcb4;"/><path d="M127.489,72.869l-7.77,-4.486l0,29.398l7.77,4.486l0,-29.398Z" style="fill:#fff;fill-opacity:0.25;"/><path d="M127.489,63.897l-7.77,4.486l7.77,4.486l7.771,-4.486l-7.771,-4.486Z" style="fill:#fff;fill-opacity:0.25;"/><path d="M127.489,63.897l-7.77,4.486l7.77,4.486l7.771,-4.486l-7.771,-4.486Z" style="fill:#fff;fill-opacity:0.25;"/><path d="M119.719,47.522l0,38.947l7.77,4.486l7.771,-4.486l-0,-38.947l-7.771,-4.486l-7.77,4.486Z" style="fill:#ff8e16;"/><path d="M127.489,52.009l-7.77,-4.487l0,38.947l7.77,4.486l0,-38.946Z" style="fill:#fff;fill-opacity:0.25;"/><path d="M127.489,43.036l-7.77,4.486l7.77,4.487l7.771,-4.487l-7.771,-4.486Z" style="fill:#fff;fill-opacity:0.25;"/><path d="M127.489,43.036l-7.77,4.486l7.77,4.487l7.771,-4.487l-7.771,-4.486Z" style="fill:#fff;fill-opacity:0.25;"/><path d="M137.943,74.862l0,45.946l7.77,4.487l7.771,-4.487l-0,-45.946l-7.771,-4.486l-7.77,4.486Z" style="fill:#001a35;"/><path d="M145.713,79.348l-7.77,-4.486l0,45.946l7.77,4.487l0,-45.947Z" style="fill:#fff;fill-opacity:0.25;"/><path d="M137.943,50.065l0,29.399l7.77,4.486l7.771,-4.486l-0,-29.399l-7.771,-4.486l-7.77,4.486Z" style="fill:#25bcb4;"/><path d="M145.713,54.552l-7.77,-4.487l0,29.399l7.77,4.486l0,-29.398Z" style="fill:#fff;fill-opacity:0.25;"/><path d="M145.713,45.579l-7.77,4.486l7.77,4.487l7.771,-4.487l-7.771,-4.486Z" style="fill:#fff;fill-opacity:0.25;"/><path d="M145.713,45.579l-7.77,4.486l7.77,4.487l7.771,-4.487l-7.771,-4.486Z" style="fill:#fff;fill-opacity:0.25;"/><path d="M137.943,37.001l0,32.25l7.77,4.486l7.771,-4.486l-0,-32.25l-7.771,-4.486l-7.77,4.486Z" style="fill:#ff8e16;"/><path d="M145.713,41.487l-7.77,-4.486l0,32.25l7.77,4.486l0,-32.25Z" style="fill:#fff;fill-opacity:0.25;"/><path d="M145.713,32.515l-7.77,4.486l7.77,4.486l7.771,-4.486l-7.771,-4.486Z" style="fill:#fff;fill-opacity:0.25;"/><path d="M145.713,32.515l-7.77,4.486l7.77,4.486l7.771,-4.486l-7.771,-4.486Z" style="fill:#fff;fill-opacity:0.25;"/></svg>