<?xml version="1.0" encoding="UTF-8" standalone="no"?><!DOCTYPE svg PUBLIC "-//W3C//DTD SVG 1.1//EN" "http://www.w3.org/Graphics/SVG/1.1/DTD/svg11.dtd"><svg width="100%" height="100%" viewBox="0 0 200 200" version="1.1" xmlns="http://www.w3.org/2000/svg" xmlns:xlink="http://www.w3.org/1999/xlink" xml:space="preserve" xmlns:serif="http://www.serif.com/" style="fill-rule:evenodd;clip-rule:evenodd;stroke-linejoin:round;stroke-miterlimit:2;"><path d="M82.514,143.758l0,11.674l5.691,3.286l5.691,-3.286l0,-11.674l-5.691,-3.285l-5.691,3.285Z" style="fill:#25bcb2;"/><path d="M88.205,147.044l-5.691,-3.286l0,11.674l5.691,3.286l0,-11.674Z" style="fill:#fff;fill-opacity:0.25;"/><path d="M88.205,140.473l-5.691,3.285l5.691,3.286l5.691,-3.286l-5.691,-3.285Z" style="fill:#fff;fill-opacity:0.25;"/><path d="M88.205,140.473l-5.691,3.285l5.691,3.286l5.691,-3.286l-5.691,-3.285Z" style="fill:#fff;fill-opacity:0.25;"/><path d="M93.896,127.221l0,21.531l5.691,3.285l5.691,-3.285l-0,-21.531l-5.691,-3.286l-5.691,3.286Z" style="fill:#ff8e16;"/><path d="M99.587,130.506l-5.691,-3.285l0,21.531l5.691,3.285l-0,-21.531Z" style="fill:#fff;fill-opacity:0.25;"/><path d="M99.587,123.935l-5.691,3.286l5.691,3.285l5.691,-3.285l-5.691,-3.286Z" style="fill:#fff;fill-opacity:0.25;"/><path d="M99.587,123.935l-5.691,3.286l5.691,3.285l5.691,-3.285l-5.691,-3.286Z" style="fill:#fff;fill-opacity:0.25;"/><path d="M54.06,139.362l0,34.673l5.691,3.286l5.691,-3.286l0,-34.673l-5.691,-3.286l-5.691,3.286Z" style="fill:#ff8e16;"/><path d="M59.751,142.647l-5.691,-3.285l0,34.673l5.691,3.286l0,-34.674Z" style="fill:#fff;fill-opacity:0.25;"/><path d="M59.751,136.076l-5.691,3.286l5.691,3.285l5.691,-3.285l-5.691,-3.286Z" style="fill:#fff;fill-opacity:0.25;"/><path d="M59.751,136.076l-5.691,3.286l5.691,3.285l5.691,-3.285l-5.691,-3.286Z" style="fill:#fff;fill-opacity:0.25;"/><path d="M122.771,105.145l0,26.855l5.691,3.286l5.691,-3.286l0,-26.855l-5.691,-3.285l-5.691,3.285Z" style="fill:#25bcb2;"/><path d="M128.462,108.431l-5.691,-3.286l0,26.855l5.691,3.286l0,-26.855Z" style="fill:#fff;fill-opacity:0.25;"/><path d="M128.462,101.86l-5.691,3.285l5.691,3.286l5.691,-3.286l-5.691,-3.285Z" style="fill:#fff;fill-opacity:0.25;"/><path d="M128.462,101.86l-5.691,3.285l5.691,3.286l5.691,-3.286l-5.691,-3.285Z" style="fill:#fff;fill-opacity:0.25;"/><path d="M134.153,67.908l0,55.413l5.691,3.285l5.691,-3.285l-0,-55.413l-5.691,-3.285l-5.691,3.285Z" style="fill:#ff8e16;"/><path d="M139.844,71.194l-5.691,-3.286l0,55.413l5.691,3.285l-0,-55.412Z" style="fill:#fff;fill-opacity:0.25;"/><path d="M139.844,64.623l-5.691,3.285l5.691,3.286l5.691,-3.286l-5.691,-3.285Z" style="fill:#fff;fill-opacity:0.25;"/><path d="M139.844,64.623l-5.691,3.285l5.691,3.286l5.691,-3.286l-5.691,-3.285Z" style="fill:#fff;fill-opacity:0.25;"/><path d="M65.442,97.019l0,68.555l5.691,3.286l5.691,-3.286l-0,-68.555l-5.691,-3.285l-5.691,3.285Z" style="fill:#001a35;"/><path d="M71.133,100.305l-5.691,-3.286l0,68.555l5.691,3.286l-0,-68.555Z" style="fill:#fff;fill-opacity:0.25;"/><path d="M71.133,93.734l-5.691,3.285l5.691,3.286l5.691,-3.286l-5.691,-3.285Z" style="fill:#fff;fill-opacity:0.25;"/><path d="M71.133,93.734l-5.691,3.285l5.691,3.286l5.691,-3.286l-5.691,-3.285Z" style="fill:#fff;fill-opacity:0.25;"/><path d="M105.278,72.837l-0,68.555l5.691,3.286l5.69,-3.286l0,-68.555l-5.69,-3.286l-5.691,3.286Z" style="fill:#001a35;"/><path d="M110.969,76.123l-5.691,-3.286l-0,68.555l5.691,3.286l-0,-68.555Z" style="fill:#fff;fill-opacity:0.25;"/><path d="M110.969,69.551l-5.691,3.286l5.691,3.286l5.69,-3.286l-5.69,-3.286Z" style="fill:#fff;fill-opacity:0.25;"/><path d="M110.969,69.551l-5.691,3.286l5.691,3.286l5.69,-3.286l-5.69,-3.286Z" style="fill:#fff;fill-opacity:0.25;"/><path d="M145.535,19.308l-0,95.979l5.691,3.286l5.69,-3.286l0,-95.979l-5.69,-3.285l-5.691,3.285Z" style="fill:#001a35;"/><path d="M151.226,22.594l-5.691,-3.286l-0,95.979l5.691,3.286l-0,-95.979Z" style="fill:#fff;fill-opacity:0.25;"/><path d="M151.226,16.023l-5.691,3.285l5.691,3.286l5.69,-3.286l-5.69,-3.285Z" style="fill:#fff;fill-opacity:0.25;"/><path d="M151.226,16.023l-5.691,3.285l5.691,3.286l5.69,-3.286l-5.69,-3.285Z" style="fill:#fff;fill-opacity:0.25;"/><path d="M43.084,172.592l-0,8.1l5.69,3.285l5.691,-3.285l0,-8.1l-5.691,-3.286l-5.69,3.286Z" style="fill:#25bcb2;"/><path d="M48.774,175.877l-5.69,-3.285l-0,8.1l5.69,3.285l0,-8.1Z" style="fill:#fff;fill-opacity:0.25;"/><path d="M48.774,169.306l-5.69,3.286l5.69,3.285l5.691,-3.285l-5.691,-3.286Z" style="fill:#fff;fill-opacity:0.25;"/><path d="M48.774,169.306l-5.69,3.286l5.69,3.285l5.691,-3.285l-5.691,-3.286Z" style="fill:#fff;fill-opacity:0.25;"/></svg>