<?xml version="1.0" encoding="UTF-8" standalone="no"?><!DOCTYPE svg PUBLIC "-//W3C//DTD SVG 1.1//EN" "http://www.w3.org/Graphics/SVG/1.1/DTD/svg11.dtd"><svg width="100%" height="100%" viewBox="0 0 200 200" version="1.1" xmlns="http://www.w3.org/2000/svg" xmlns:xlink="http://www.w3.org/1999/xlink" xml:space="preserve" xmlns:serif="http://www.serif.com/" style="fill-rule:evenodd;clip-rule:evenodd;stroke-linejoin:round;stroke-miterlimit:2;"><path d="M87.831,155.915l-0,8.631l4.207,2.429l4.208,-2.429l-0,-8.631l-4.208,-2.43l-4.207,2.43Z" style="fill:#001a35;"/><path d="M92.038,158.344l-4.207,-2.429l-0,8.631l4.207,2.429l0,-8.631Z" style="fill:#fff;fill-opacity:0.25;"/><path d="M92.038,153.485l-4.207,2.43l4.207,2.429l4.208,-2.429l-4.208,-2.43Z" style="fill:#fff;fill-opacity:0.25;"/><path d="M92.038,153.485l-4.207,2.43l4.207,2.429l4.208,-2.429l-4.208,-2.43Z" style="fill:#fff;fill-opacity:0.25;"/><path d="M96.246,143.827l-0,15.919l4.207,2.429l4.208,-2.429l0,-15.919l-4.208,-2.43l-4.207,2.43Z" style="fill:#001a35;"/><path d="M100.453,146.256l-4.207,-2.429l-0,15.919l4.207,2.429l0,-15.919Z" style="fill:#fff;fill-opacity:0.25;"/><path d="M100.453,141.397l-4.207,2.43l4.207,2.429l4.208,-2.429l-4.208,-2.43Z" style="fill:#fff;fill-opacity:0.25;"/><path d="M100.453,141.397l-4.207,2.43l4.207,2.429l4.208,-2.429l-4.208,-2.43Z" style="fill:#fff;fill-opacity:0.25;"/><path d="M113.076,124.636l0,25.637l4.208,2.429l4.208,-2.429l-0,-25.637l-4.208,-2.429l-4.208,2.429Z" style="fill:#001a35;"/><path d="M117.284,127.066l-4.208,-2.43l0,25.637l4.208,2.429l0,-25.636Z" style="fill:#fff;fill-opacity:0.25;"/><path d="M117.284,122.207l-4.208,2.429l4.208,2.43l4.208,-2.43l-4.208,-2.429Z" style="fill:#fff;fill-opacity:0.25;"/><path d="M117.284,122.207l-4.208,2.429l4.208,2.43l4.208,-2.43l-4.208,-2.429Z" style="fill:#fff;fill-opacity:0.25;"/><path d="M104.661,135.025l0,19.856l4.208,2.43l4.207,-2.43l0,-19.856l-4.207,-2.429l-4.208,2.429Z" style="fill:#001a35;"/><path d="M108.869,137.455l-4.208,-2.43l0,19.856l4.208,2.43l-0,-19.856Z" style="fill:#fff;fill-opacity:0.25;"/><path d="M108.869,132.596l-4.208,2.429l4.208,2.43l4.207,-2.43l-4.207,-2.429Z" style="fill:#fff;fill-opacity:0.25;"/><path d="M108.869,132.596l-4.208,2.429l4.208,2.43l4.207,-2.43l-4.207,-2.429Z" style="fill:#fff;fill-opacity:0.25;"/><path d="M121.492,113.786l-0,31.075l4.207,2.429l4.208,-2.429l-0,-31.075l-4.208,-2.429l-4.207,2.429Z" style="fill:#001a35;"/><path d="M125.699,116.215l-4.207,-2.429l-0,31.075l4.207,2.429l0,-31.075Z" style="fill:#fff;fill-opacity:0.25;"/><path d="M125.699,111.357l-4.207,2.429l4.207,2.429l4.208,-2.429l-4.208,-2.429Z" style="fill:#fff;fill-opacity:0.25;"/><path d="M125.699,111.357l-4.207,2.429l4.207,2.429l4.208,-2.429l-4.208,-2.429Z" style="fill:#fff;fill-opacity:0.25;"/><path d="M129.896,98.991l0,40.97l4.208,2.429l4.207,-2.429l0,-40.97l-4.207,-2.43l-4.208,2.43Z" style="fill:#001a35;"/><path d="M134.104,101.42l-4.208,-2.429l0,40.97l4.208,2.429l-0,-40.97Z" style="fill:#fff;fill-opacity:0.25;"/><path d="M134.104,96.561l-4.208,2.43l4.208,2.429l4.207,-2.429l-4.207,-2.43Z" style="fill:#fff;fill-opacity:0.25;"/><path d="M134.104,96.561l-4.208,2.43l4.208,2.429l4.207,-2.429l-4.207,-2.43Z" style="fill:#fff;fill-opacity:0.25;"/><path d="M138.311,84.255l0,50.688l4.208,2.43l4.208,-2.43l-0,-50.688l-4.208,-2.429l-4.208,2.429Z" style="fill:#001a35;"/><path d="M142.519,86.685l-4.208,-2.43l0,50.688l4.208,2.43l-0,-50.688Z" style="fill:#fff;fill-opacity:0.25;"/><path d="M142.519,81.826l-4.208,2.429l4.208,2.43l4.208,-2.43l-4.208,-2.429Z" style="fill:#fff;fill-opacity:0.25;"/><path d="M142.519,81.826l-4.208,2.429l4.208,2.43l4.208,-2.43l-4.208,-2.429Z" style="fill:#fff;fill-opacity:0.25;"/><path d="M146.727,67.751l-0,62.498l4.207,2.429l4.208,-2.429l-0,-62.498l-4.208,-2.429l-4.207,2.429Z" style="fill:#001a35;"/><path d="M150.934,70.18l-4.207,-2.429l-0,62.498l4.207,2.429l0,-62.498Z" style="fill:#fff;fill-opacity:0.25;"/><path d="M150.934,65.322l-4.207,2.429l4.207,2.429l4.208,-2.429l-4.208,-2.429Z" style="fill:#fff;fill-opacity:0.25;"/><path d="M150.934,65.322l-4.207,2.429l4.207,2.429l4.208,-2.429l-4.208,-2.429Z" style="fill:#fff;fill-opacity:0.25;"/><path d="M155.142,53.963l-0,70.965l4.207,2.429l4.208,-2.429l0,-70.965l-4.208,-2.429l-4.207,2.429Z" style="fill:#001a35;"/><path d="M159.349,56.393l-4.207,-2.43l-0,70.965l4.207,2.429l0,-70.964Z" style="fill:#fff;fill-opacity:0.25;"/><path d="M159.349,51.534l-4.207,2.429l4.207,2.43l4.208,-2.43l-4.208,-2.429Z" style="fill:#fff;fill-opacity:0.25;"/><path d="M159.349,51.534l-4.207,2.429l4.207,2.43l4.208,-2.43l-4.208,-2.429Z" style="fill:#fff;fill-opacity:0.25;"/><path d="M79.415,163.533l0,5.989l4.208,2.429l4.208,-2.429l-0,-5.989l-4.208,-2.43l-4.208,2.43Z" style="fill:#001a35;"/><path d="M83.623,165.962l-4.208,-2.429l0,5.989l4.208,2.429l-0,-5.989Z" style="fill:#fff;fill-opacity:0.25;"/><path d="M83.623,161.103l-4.208,2.43l4.208,2.429l4.208,-2.429l-4.208,-2.43Z" style="fill:#fff;fill-opacity:0.25;"/><path d="M83.623,161.103l-4.208,2.43l4.208,2.429l4.208,-2.429l-4.208,-2.43Z" style="fill:#fff;fill-opacity:0.25;"/><path d="M71.299,169.694l0,4.104l4.208,2.429l4.208,-2.429l-0,-4.104l-4.208,-2.429l-4.208,2.429Z" style="fill:#001a35;"/><path d="M75.507,172.124l-4.208,-2.43l0,4.104l4.208,2.429l0,-4.103Z" style="fill:#fff;fill-opacity:0.25;"/><path d="M75.507,167.265l-4.208,2.429l4.208,2.43l4.208,-2.43l-4.208,-2.429Z" style="fill:#fff;fill-opacity:0.25;"/><path d="M75.507,167.265l-4.208,2.429l4.208,2.43l4.208,-2.43l-4.208,-2.429Z" style="fill:#fff;fill-opacity:0.25;"/><path d="M62.884,176.228l0,2.772l4.208,2.429l4.207,-2.429l0,-2.772l-4.207,-2.43l-4.208,2.43Z" style="fill:#001a35;"/><path d="M67.092,178.657l-4.208,-2.429l0,2.772l4.208,2.429l-0,-2.772Z" style="fill:#fff;fill-opacity:0.25;"/><path d="M67.092,173.798l-4.208,2.43l4.208,2.429l4.207,-2.429l-4.207,-2.43Z" style="fill:#fff;fill-opacity:0.25;"/><path d="M67.092,173.798l-4.208,2.43l4.208,2.429l4.207,-2.429l-4.207,-2.43Z" style="fill:#fff;fill-opacity:0.25;"/><path d="M54.384,182.234l0,1.775l4.208,2.43l4.207,-2.43l0,-1.775l-4.207,-2.429l-4.208,2.429Z" style="fill:#001a35;"/><path d="M58.592,184.663l-4.208,-2.429l0,1.775l4.208,2.43l-0,-1.776Z" style="fill:#fff;fill-opacity:0.25;"/><path d="M58.592,179.805l-4.208,2.429l4.208,2.429l4.207,-2.429l-4.207,-2.429Z" style="fill:#fff;fill-opacity:0.25;"/><path d="M58.592,179.805l-4.208,2.429l4.208,2.429l4.207,-2.429l-4.207,-2.429Z" style="fill:#fff;fill-opacity:0.25;"/><path d="M45.969,187.269l-0,1.775l4.208,2.429l4.207,-2.429l0,-1.775l-4.207,-2.43l-4.208,2.43Z" style="fill:#001a35;"/><path d="M50.177,189.698l-4.208,-2.429l-0,1.775l4.208,2.429l-0,-1.775Z" style="fill:#fff;fill-opacity:0.25;"/><path d="M50.177,184.839l-4.208,2.43l4.208,2.429l4.207,-2.429l-4.207,-2.43Z" style="fill:#fff;fill-opacity:0.25;"/><path d="M50.177,184.839l-4.208,2.43l4.208,2.429l4.207,-2.429l-4.207,-2.43Z" style="fill:#fff;fill-opacity:0.25;"/><path d="M36.443,192.69l-0,1.775l4.208,2.43l4.207,-2.43l0,-1.775l-4.207,-2.429l-4.208,2.429Z" style="fill:#001a35;"/><path d="M40.651,195.119l-4.208,-2.429l-0,1.775l4.208,2.43l-0,-1.776Z" style="fill:#fff;fill-opacity:0.25;"/><path d="M40.651,190.261l-4.208,2.429l4.208,2.429l4.207,-2.429l-4.207,-2.429Z" style="fill:#fff;fill-opacity:0.25;"/><path d="M40.651,190.261l-4.208,2.429l4.208,2.429l4.207,-2.429l-4.207,-2.429Z" style="fill:#fff;fill-opacity:0.25;"/><path d="M36.443,176.854l-0,15.92l4.208,2.429l4.207,-2.429l0,-15.92l-4.207,-2.429l-4.208,2.429Z" style="fill:#25bcb4;"/><path d="M40.651,179.283l-4.208,-2.429l-0,15.92l4.208,2.429l-0,-15.92Z" style="fill:#fff;fill-opacity:0.25;"/><path d="M40.651,174.425l-4.208,2.429l4.208,2.429l4.207,-2.429l-4.207,-2.429Z" style="fill:#fff;fill-opacity:0.25;"/><path d="M40.651,174.425l-4.208,2.429l4.208,2.429l4.207,-2.429l-4.207,-2.429Z" style="fill:#fff;fill-opacity:0.25;"/><path d="M36.443,171.493l-0,8.631l4.208,2.43l4.207,-2.43l0,-8.631l-4.207,-2.43l-4.208,2.43Z" style="fill:#ff8e16;"/><path d="M40.651,173.922l-4.208,-2.429l-0,8.631l4.208,2.43l-0,-8.632Z" style="fill:#fff;fill-opacity:0.25;"/><path d="M40.651,169.063l-4.208,2.43l4.208,2.429l4.207,-2.429l-4.207,-2.43Z" style="fill:#fff;fill-opacity:0.25;"/><path d="M40.651,169.063l-4.208,2.43l4.208,2.429l4.207,-2.429l-4.207,-2.43Z" style="fill:#fff;fill-opacity:0.25;"/><path d="M45.969,171.349l-0,15.92l4.208,2.429l4.207,-2.429l0,-15.92l-4.207,-2.429l-4.208,2.429Z" style="fill:#25bcb4;"/><path d="M50.177,173.778l-4.208,-2.429l-0,15.92l4.208,2.429l-0,-15.92Z" style="fill:#fff;fill-opacity:0.25;"/><path d="M50.177,168.92l-4.208,2.429l4.208,2.429l4.207,-2.429l-4.207,-2.429Z" style="fill:#fff;fill-opacity:0.25;"/><path d="M50.177,168.92l-4.208,2.429l4.208,2.429l4.207,-2.429l-4.207,-2.429Z" style="fill:#fff;fill-opacity:0.25;"/><path d="M45.969,168.895l-0,8.631l4.208,2.429l4.207,-2.429l0,-8.631l-4.207,-2.43l-4.208,2.43Z" style="fill:#ff8e16;"/><path d="M50.177,171.324l-4.208,-2.429l-0,8.631l4.208,2.429l-0,-8.631Z" style="fill:#fff;fill-opacity:0.25;"/><path d="M50.177,166.465l-4.208,2.43l4.208,2.429l4.207,-2.429l-4.207,-2.43Z" style="fill:#fff;fill-opacity:0.25;"/><path d="M50.177,166.465l-4.208,2.43l4.208,2.429l4.207,-2.429l-4.207,-2.43Z" style="fill:#fff;fill-opacity:0.25;"/><path d="M54.384,166.465l0,15.92l4.208,2.429l4.207,-2.429l0,-15.92l-4.207,-2.429l-4.208,2.429Z" style="fill:#25bcb4;"/><path d="M58.592,168.895l-4.208,-2.43l0,15.92l4.208,2.429l-0,-15.919Z" style="fill:#fff;fill-opacity:0.25;"/><path d="M58.592,164.036l-4.208,2.429l4.208,2.43l4.207,-2.43l-4.207,-2.429Z" style="fill:#fff;fill-opacity:0.25;"/><path d="M58.592,164.036l-4.208,2.429l4.208,2.43l4.207,-2.43l-4.207,-2.429Z" style="fill:#fff;fill-opacity:0.25;"/><path d="M54.384,160.48l0,13.659l4.208,2.429l4.207,-2.429l0,-13.659l-4.207,-2.429l-4.208,2.429Z" style="fill:#ff8e16;"/><path d="M58.592,162.909l-4.208,-2.429l0,13.659l4.208,2.429l-0,-13.659Z" style="fill:#fff;fill-opacity:0.25;"/><path d="M58.592,158.051l-4.208,2.429l4.208,2.429l4.207,-2.429l-4.207,-2.429Z" style="fill:#fff;fill-opacity:0.25;"/><path d="M58.592,158.051l-4.208,2.429l4.208,2.429l4.207,-2.429l-4.207,-2.429Z" style="fill:#fff;fill-opacity:0.25;"/><path d="M62.799,160.48l0,15.919l4.208,2.43l4.208,-2.43l-0,-15.919l-4.208,-2.429l-4.208,2.429Z" style="fill:#25bcb4;"/><path d="M67.007,162.909l-4.208,-2.429l0,15.919l4.208,2.43l0,-15.92Z" style="fill:#fff;fill-opacity:0.25;"/><path d="M67.007,158.051l-4.208,2.429l4.208,2.429l4.208,-2.429l-4.208,-2.429Z" style="fill:#fff;fill-opacity:0.25;"/><path d="M67.007,158.051l-4.208,2.429l4.208,2.429l4.208,-2.429l-4.208,-2.429Z" style="fill:#fff;fill-opacity:0.25;"/><path d="M62.799,157.352l0,13.659l4.208,2.429l4.208,-2.429l-0,-13.659l-4.208,-2.429l-4.208,2.429Z" style="fill:#ff8e16;"/><path d="M67.007,159.781l-4.208,-2.429l0,13.659l4.208,2.429l0,-13.659Z" style="fill:#fff;fill-opacity:0.25;"/><path d="M67.007,154.923l-4.208,2.429l4.208,2.429l4.208,-2.429l-4.208,-2.429Z" style="fill:#fff;fill-opacity:0.25;"/><path d="M67.007,154.923l-4.208,2.429l4.208,2.429l4.208,-2.429l-4.208,-2.429Z" style="fill:#fff;fill-opacity:0.25;"/><path d="M71.215,154.084l-0,15.919l4.207,2.43l4.208,-2.43l-0,-15.919l-4.208,-2.429l-4.207,2.429Z" style="fill:#25bcb4;"/><path d="M75.422,156.513l-4.207,-2.429l-0,15.919l4.207,2.43l0,-15.92Z" style="fill:#fff;fill-opacity:0.25;"/><path d="M75.422,151.655l-4.207,2.429l4.207,2.429l4.208,-2.429l-4.208,-2.429Z" style="fill:#fff;fill-opacity:0.25;"/><path d="M75.422,151.655l-4.207,2.429l4.207,2.429l4.208,-2.429l-4.208,-2.429Z" style="fill:#fff;fill-opacity:0.25;"/><path d="M71.215,152.351l-0,13.659l4.207,2.43l4.208,-2.43l-0,-13.659l-4.208,-2.429l-4.207,2.429Z" style="fill:#ff8e16;"/><path d="M75.422,154.78l-4.207,-2.429l-0,13.659l4.207,2.43l0,-13.66Z" style="fill:#fff;fill-opacity:0.25;"/><path d="M75.422,149.922l-4.207,2.429l4.207,2.429l4.208,-2.429l-4.208,-2.429Z" style="fill:#fff;fill-opacity:0.25;"/><path d="M75.422,149.922l-4.207,2.429l4.207,2.429l4.208,-2.429l-4.208,-2.429Z" style="fill:#fff;fill-opacity:0.25;"/><path d="M79.415,147.613l0,15.92l4.208,2.429l4.208,-2.429l-0,-15.92l-4.208,-2.429l-4.208,2.429Z" style="fill:#25bcb4;"/><path d="M83.623,150.043l-4.208,-2.43l0,15.92l4.208,2.429l-0,-15.919Z" style="fill:#fff;fill-opacity:0.25;"/><path d="M83.623,145.184l-4.208,2.429l4.208,2.43l4.208,-2.43l-4.208,-2.429Z" style="fill:#fff;fill-opacity:0.25;"/><path d="M83.623,145.184l-4.208,2.429l4.208,2.43l4.208,-2.43l-4.208,-2.429Z" style="fill:#fff;fill-opacity:0.25;"/><path d="M79.415,145.88l0,13.659l4.208,2.43l4.208,-2.43l-0,-13.659l-4.208,-2.429l-4.208,2.429Z" style="fill:#ff8e16;"/><path d="M83.623,148.31l-4.208,-2.43l0,13.659l4.208,2.43l-0,-13.659Z" style="fill:#fff;fill-opacity:0.25;"/><path d="M83.623,143.451l-4.208,2.429l4.208,2.43l4.208,-2.43l-4.208,-2.429Z" style="fill:#fff;fill-opacity:0.25;"/><path d="M83.623,143.451l-4.208,2.429l4.208,2.43l4.208,-2.43l-4.208,-2.429Z" style="fill:#fff;fill-opacity:0.25;"/><path d="M87.831,140.057l-0,15.92l4.207,2.429l4.208,-2.429l-0,-15.92l-4.208,-2.429l-4.207,2.429Z" style="fill:#25bcb4;"/><path d="M92.038,142.487l-4.207,-2.43l-0,15.92l4.207,2.429l0,-15.919Z" style="fill:#fff;fill-opacity:0.25;"/><path d="M92.038,137.628l-4.207,2.429l4.207,2.43l4.208,-2.43l-4.208,-2.429Z" style="fill:#fff;fill-opacity:0.25;"/><path d="M92.038,137.628l-4.207,2.429l4.207,2.43l4.208,-2.43l-4.208,-2.429Z" style="fill:#fff;fill-opacity:0.25;"/><path d="M87.831,139.485l-0,13.659l4.207,2.429l4.208,-2.429l-0,-13.659l-4.208,-2.43l-4.207,2.43Z" style="fill:#ff8e16;"/><path d="M92.038,141.914l-4.207,-2.429l-0,13.659l4.207,2.429l0,-13.659Z" style="fill:#fff;fill-opacity:0.25;"/><path d="M92.038,137.055l-4.207,2.43l4.207,2.429l4.208,-2.429l-4.208,-2.43Z" style="fill:#fff;fill-opacity:0.25;"/><path d="M92.038,137.055l-4.207,2.43l4.207,2.429l4.208,-2.429l-4.208,-2.43Z" style="fill:#fff;fill-opacity:0.25;"/><path d="M104.661,119.255l0,15.92l4.208,2.429l4.207,-2.429l0,-15.92l-4.207,-2.429l-4.208,2.429Z" style="fill:#25bcb4;"/><path d="M108.869,121.685l-4.208,-2.43l0,15.92l4.208,2.429l-0,-15.919Z" style="fill:#fff;fill-opacity:0.25;"/><path d="M108.869,116.826l-4.208,2.429l4.208,2.43l4.207,-2.43l-4.207,-2.429Z" style="fill:#fff;fill-opacity:0.25;"/><path d="M108.869,116.826l-4.208,2.429l4.208,2.43l4.207,-2.43l-4.207,-2.429Z" style="fill:#fff;fill-opacity:0.25;"/><path d="M104.661,119.255l0,13.66l4.208,2.429l4.207,-2.429l0,-13.66l-4.207,-2.429l-4.208,2.429Z" style="fill:#ff8e16;"/><path d="M108.869,121.685l-4.208,-2.43l0,13.66l4.208,2.429l-0,-13.659Z" style="fill:#fff;fill-opacity:0.25;"/><path d="M108.869,116.826l-4.208,2.429l4.208,2.43l4.207,-2.43l-4.207,-2.429Z" style="fill:#fff;fill-opacity:0.25;"/><path d="M108.869,116.826l-4.208,2.429l4.208,2.43l4.207,-2.43l-4.207,-2.429Z" style="fill:#fff;fill-opacity:0.25;"/><path d="M96.246,131.314l-0,12.513l4.207,2.429l4.208,-2.429l0,-12.513l-4.208,-2.429l-4.207,2.429Z" style="fill:#25bcb4;"/><path d="M100.453,133.743l-4.207,-2.429l-0,12.513l4.207,2.429l0,-12.513Z" style="fill:#fff;fill-opacity:0.25;"/><path d="M100.453,128.885l-4.207,2.429l4.207,2.429l4.208,-2.429l-4.208,-2.429Z" style="fill:#fff;fill-opacity:0.25;"/><path d="M100.453,128.885l-4.207,2.429l4.207,2.429l4.208,-2.429l-4.208,-2.429Z" style="fill:#fff;fill-opacity:0.25;"/><path d="M96.246,128.514l-0,13.659l4.207,2.43l4.208,-2.43l0,-13.659l-4.208,-2.429l-4.207,2.429Z" style="fill:#ff8e16;"/><path d="M100.453,130.944l-4.207,-2.43l-0,13.659l4.207,2.43l0,-13.659Z" style="fill:#fff;fill-opacity:0.25;"/><path d="M100.453,126.085l-4.207,2.429l4.207,2.43l4.208,-2.43l-4.208,-2.429Z" style="fill:#fff;fill-opacity:0.25;"/><path d="M100.453,126.085l-4.207,2.429l4.207,2.43l4.208,-2.43l-4.208,-2.429Z" style="fill:#fff;fill-opacity:0.25;"/><path d="M121.492,100.007l-0,15.919l4.207,2.43l4.208,-2.43l-0,-15.919l-4.208,-2.429l-4.207,2.429Z" style="fill:#25bcb4;"/><path d="M125.699,102.436l-4.207,-2.429l-0,15.919l4.207,2.43l0,-15.92Z" style="fill:#fff;fill-opacity:0.25;"/><path d="M125.699,97.578l-4.207,2.429l4.207,2.429l4.208,-2.429l-4.208,-2.429Z" style="fill:#fff;fill-opacity:0.25;"/><path d="M125.699,97.578l-4.207,2.429l4.207,2.429l4.208,-2.429l-4.208,-2.429Z" style="fill:#fff;fill-opacity:0.25;"/><path d="M121.492,90.059l-0.011,23.51l4.207,2.429l4.208,-2.429l0.011,-23.51l-4.208,-2.43l-4.207,2.43Z" style="fill:#ff8e16;"/><path d="M125.699,92.488l-4.207,-2.429l-0.011,23.51l4.207,2.429l0.011,-23.51Z" style="fill:#fff;fill-opacity:0.25;"/><path d="M125.699,87.629l-4.207,2.43l4.207,2.429l4.208,-2.429l-4.208,-2.43Z" style="fill:#fff;fill-opacity:0.25;"/><path d="M125.699,87.629l-4.207,2.43l4.207,2.429l4.208,-2.429l-4.208,-2.43Z" style="fill:#fff;fill-opacity:0.25;"/><path d="M113.076,108.717l0,15.919l4.208,2.43l4.208,-2.43l-0,-15.919l-4.208,-2.429l-4.208,2.429Z" style="fill:#25bcb4;"/><path d="M117.284,111.146l-4.208,-2.429l0,15.919l4.208,2.43l0,-15.92Z" style="fill:#fff;fill-opacity:0.25;"/><path d="M117.284,106.288l-4.208,2.429l4.208,2.429l4.208,-2.429l-4.208,-2.429Z" style="fill:#fff;fill-opacity:0.25;"/><path d="M117.284,106.288l-4.208,2.429l4.208,2.429l4.208,-2.429l-4.208,-2.429Z" style="fill:#fff;fill-opacity:0.25;"/><path d="M113.076,99.318l0,24.208l4.208,2.429l4.208,-2.429l-0,-24.208l-4.208,-2.43l-4.208,2.43Z" style="fill:#ff8e16;"/><path d="M117.284,101.747l-4.208,-2.429l0,24.208l4.208,2.429l0,-24.208Z" style="fill:#fff;fill-opacity:0.25;"/><path d="M117.284,96.888l-4.208,2.43l4.208,2.429l4.208,-2.429l-4.208,-2.43Z" style="fill:#fff;fill-opacity:0.25;"/><path d="M117.284,96.888l-4.208,2.43l4.208,2.429l4.208,-2.429l-4.208,-2.43Z" style="fill:#fff;fill-opacity:0.25;"/><path d="M138.311,74.361l0,15.92l4.208,2.429l4.208,-2.429l-0,-15.92l-4.208,-2.429l-4.208,2.429Z" style="fill:#25bcb4;"/><path d="M142.519,76.79l-4.208,-2.429l0,15.92l4.208,2.429l-0,-15.92Z" style="fill:#fff;fill-opacity:0.25;"/><path d="M142.519,71.932l-4.208,2.429l4.208,2.429l4.208,-2.429l-4.208,-2.429Z" style="fill:#fff;fill-opacity:0.25;"/><path d="M142.519,71.932l-4.208,2.429l4.208,2.429l4.208,-2.429l-4.208,-2.429Z" style="fill:#fff;fill-opacity:0.25;"/><path d="M138.311,42.482l0,43.211l4.208,2.429l4.208,-2.429l-0,-43.211l-4.208,-2.429l-4.208,2.429Z" style="fill:#ff8e16;"/><path d="M142.519,44.911l-4.208,-2.429l0,43.211l4.208,2.429l-0,-43.211Z" style="fill:#fff;fill-opacity:0.25;"/><path d="M142.519,40.053l-4.208,2.429l4.208,2.429l4.208,-2.429l-4.208,-2.429Z" style="fill:#fff;fill-opacity:0.25;"/><path d="M142.519,40.053l-4.208,2.429l4.208,2.429l4.208,-2.429l-4.208,-2.429Z" style="fill:#fff;fill-opacity:0.25;"/><path d="M129.896,83.071l0,15.92l4.208,2.429l4.207,-2.429l0,-15.92l-4.207,-2.429l-4.208,2.429Z" style="fill:#25bcb4;"/><path d="M134.104,85.5l-4.208,-2.429l0,15.92l4.208,2.429l-0,-15.92Z" style="fill:#fff;fill-opacity:0.25;"/><path d="M134.104,80.642l-4.208,2.429l4.208,2.429l4.207,-2.429l-4.207,-2.429Z" style="fill:#fff;fill-opacity:0.25;"/><path d="M134.104,80.642l-4.208,2.429l4.208,2.429l4.207,-2.429l-4.207,-2.429Z" style="fill:#fff;fill-opacity:0.25;"/><path d="M129.896,64.559l0,31.174l4.208,2.429l4.207,-2.429l0,-31.174l-4.207,-2.429l-4.208,2.429Z" style="fill:#ff8e16;"/><path d="M134.104,66.988l-4.208,-2.429l0,31.174l4.208,2.429l-0,-31.174Z" style="fill:#fff;fill-opacity:0.25;"/><path d="M134.104,62.13l-4.208,2.429l4.208,2.429l4.207,-2.429l-4.207,-2.429Z" style="fill:#fff;fill-opacity:0.25;"/><path d="M134.104,62.13l-4.208,2.429l4.208,2.429l4.207,-2.429l-4.207,-2.429Z" style="fill:#fff;fill-opacity:0.25;"/><path d="M155.142,43.191l-0,15.919l4.207,2.43l4.208,-2.43l0,-15.919l-4.208,-2.429l-4.207,2.429Z" style="fill:#25bcb4;"/><path d="M159.349,45.62l-4.207,-2.429l-0,15.919l4.207,2.43l0,-15.92Z" style="fill:#fff;fill-opacity:0.25;"/><path d="M159.349,40.762l-4.207,2.429l4.207,2.429l4.208,-2.429l-4.208,-2.429Z" style="fill:#fff;fill-opacity:0.25;"/><path d="M159.349,40.762l-4.207,2.429l4.207,2.429l4.208,-2.429l-4.208,-2.429Z" style="fill:#fff;fill-opacity:0.25;"/><path d="M155.142,5.535l-0,46.781l4.207,2.43l4.208,-2.43l0,-46.781l-4.208,-2.43l-4.207,2.43Z" style="fill:#ff8e16;"/><path d="M159.349,7.964l-4.207,-2.429l-0,46.781l4.207,2.43l0,-46.782Z" style="fill:#fff;fill-opacity:0.25;"/><path d="M159.349,3.105l-4.207,2.43l4.207,2.429l4.208,-2.429l-4.208,-2.43Z" style="fill:#fff;fill-opacity:0.25;"/><path d="M159.349,3.105l-4.207,2.43l4.207,2.429l4.208,-2.429l-4.208,-2.43Z" style="fill:#fff;fill-opacity:0.25;"/><path d="M146.727,51.901l-0,15.919l4.207,2.43l4.208,-2.43l-0,-15.919l-4.208,-2.429l-4.207,2.429Z" style="fill:#25bcb4;"/><path d="M150.934,54.33l-4.207,-2.429l-0,15.919l4.207,2.43l0,-15.92Z" style="fill:#fff;fill-opacity:0.25;"/><path d="M150.934,49.472l-4.207,2.429l4.207,2.429l4.208,-2.429l-4.208,-2.429Z" style="fill:#fff;fill-opacity:0.25;"/><path d="M150.934,49.472l-4.207,2.429l4.207,2.429l4.208,-2.429l-4.208,-2.429Z" style="fill:#fff;fill-opacity:0.25;"/><path d="M146.727,18.704l-0,41.157l4.207,2.429l4.208,-2.429l-0,-41.157l-4.208,-2.429l-4.207,2.429Z" style="fill:#ff8e16;"/><path d="M150.934,21.133l-4.207,-2.429l-0,41.157l4.207,2.429l0,-41.157Z" style="fill:#fff;fill-opacity:0.25;"/><path d="M150.934,16.275l-4.207,2.429l4.207,2.429l4.208,-2.429l-4.208,-2.429Z" style="fill:#fff;fill-opacity:0.25;"/><path d="M150.934,16.275l-4.207,2.429l4.207,2.429l4.208,-2.429l-4.208,-2.429Z" style="fill:#fff;fill-opacity:0.25;"/></svg>