<?xml version="1.0" encoding="UTF-8" standalone="no"?><!DOCTYPE svg PUBLIC "-//W3C//DTD SVG 1.1//EN" "http://www.w3.org/Graphics/SVG/1.1/DTD/svg11.dtd"><svg width="100%" height="100%" viewBox="0 0 200 200" version="1.1" xmlns="http://www.w3.org/2000/svg" xmlns:xlink="http://www.w3.org/1999/xlink" xml:space="preserve" xmlns:serif="http://www.serif.com/" style="fill-rule:evenodd;clip-rule:evenodd;stroke-linejoin:round;stroke-miterlimit:2;"><path d="M149.482,12.457l-98.964,57.137l0,117.949l98.964,-57.137l-0,-117.949Z" style="fill:#ebebeb;"/><g><path d="M75.318,135.697l-9.679,5.588l0,28.628l9.679,-5.588l-0,-28.628Z" style="fill:#3483a5;"/><path d="M59.762,71.372l-2.899,1.673l0,103.789c0,-0 87.56,-50.552 87.56,-50.552l-0,-1.855l-85.954,49.626l-0,-5.878l1.293,-0.746l-0,-1.855l-1.293,0.747l-0,-4.034l1.293,-0.746l-0,-1.854l-1.293,0.746l-0,-4.033l1.293,-0.747l-0,-1.854l-1.293,0.747l-0,-4.034l1.293,-0.746l-0,-1.855l-1.293,0.747l-0,-4.034l2.885,-1.665l-0,-1.854l-2.885,1.665l-0,-4.033l1.293,-0.747l-0,-1.854l-1.293,0.747l-0,-4.034l1.293,-0.746l-0,-1.855l-1.293,0.747l-0,-4.034l1.293,-0.746l-0,-1.854l-1.293,0.746l-0,-4.033l1.293,-0.747l-0,-1.854l-1.293,0.747l-0,-4.034l2.885,-1.666l-0,-1.854l-2.885,1.666l-0,-4.034l1.293,-0.746l-0,-1.854l-1.293,0.746l-0,-4.033l1.293,-0.747l-0,-1.854l-1.293,0.747l-0,-4.034l1.293,-0.747l-0,-1.854l-1.293,0.747l-0,-4.034l1.293,-0.746l-0,-1.854l-1.293,0.746l-0,-4.033l2.885,-1.666l-0,-1.854l-2.885,1.666l-0,-4.034l1.293,-0.747l-0,-1.854l-1.293,0.747l-0,-4.034l1.293,-0.746l-0,-1.854Z" style="fill:#346175;"/><path d="M94.317,112.867l-9.678,5.588l-0,40.489l9.678,-5.588l0,-40.489Z" style="fill:#3483a5;"/><path d="M113.317,83.18l-9.678,5.588l-0,59.206l9.678,-5.588l0,-59.206Z" style="fill:#3483a5;"/><path d="M132.317,57.669l-9.678,5.588l-0,73.747l9.678,-5.587l0,-73.748Z" style="fill:#3483a5;"/></g></svg>