<?xml version="1.0" encoding="UTF-8" standalone="no"?><!DOCTYPE svg PUBLIC "-//W3C//DTD SVG 1.1//EN" "http://www.w3.org/Graphics/SVG/1.1/DTD/svg11.dtd"><svg width="100%" height="100%" viewBox="0 0 200 200" version="1.1" xmlns="http://www.w3.org/2000/svg" xmlns:xlink="http://www.w3.org/1999/xlink" xml:space="preserve" xmlns:serif="http://www.serif.com/" style="fill-rule:evenodd;clip-rule:evenodd;stroke-linejoin:round;stroke-miterlimit:2;"><path d="M138.851,85.592l0,29.063l7.771,4.486l7.77,-4.486l-0,-29.063l-7.77,-4.486l-7.771,4.486Z" style="fill:#001a35;"/><path d="M146.622,90.078l-7.771,-4.486l0,29.063l7.771,4.486l-0,-29.063Z" style="fill:#fff;fill-opacity:0.25;"/><path d="M146.622,81.106l-7.771,4.486l7.771,4.486l7.77,-4.486l-7.77,-4.486Z" style="fill:#fff;fill-opacity:0.25;"/><path d="M146.622,81.106l-7.771,4.486l7.771,4.486l7.77,-4.486l-7.77,-4.486Z" style="fill:#fff;fill-opacity:0.25;"/><path d="M138.851,56.194l0,29.398l7.771,4.486l7.77,-4.486l-0,-29.398l-7.77,-4.486l-7.771,4.486Z" style="fill:#25bcb4;"/><path d="M146.622,60.68l-7.771,-4.486l0,29.398l7.771,4.486l-0,-29.398Z" style="fill:#fff;fill-opacity:0.25;"/><path d="M146.622,51.708l-7.771,4.486l7.771,4.486l7.77,-4.486l-7.77,-4.486Z" style="fill:#fff;fill-opacity:0.25;"/><path d="M146.622,51.708l-7.771,4.486l7.771,4.486l7.77,-4.486l-7.77,-4.486Z" style="fill:#fff;fill-opacity:0.25;"/><path d="M138.851,30.847l0,49.164l7.771,4.486l7.77,-4.486l-0,-49.164l-7.77,-4.486l-7.771,4.486Z" style="fill:#ff8e16;"/><path d="M146.622,35.333l-7.771,-4.486l0,49.164l7.771,4.486l-0,-49.164Z" style="fill:#fff;fill-opacity:0.25;"/><path d="M146.622,26.361l-7.771,4.486l7.771,4.486l7.77,-4.486l-7.77,-4.486Z" style="fill:#fff;fill-opacity:0.25;"/><path d="M146.622,26.361l-7.771,4.486l7.771,4.486l7.77,-4.486l-7.77,-4.486Z" style="fill:#fff;fill-opacity:0.25;"/><path d="M123.311,108.756l-0,14.174l7.77,4.486l7.77,-4.486l0,-14.174l-7.77,-4.486l-7.77,4.486Z" style="fill:#001a35;"/><path d="M131.081,113.242l-7.77,-4.486l-0,14.174l7.77,4.486l0,-14.174Z" style="fill:#fff;fill-opacity:0.25;"/><path d="M131.081,104.27l-7.77,4.486l7.77,4.486l7.77,-4.486l-7.77,-4.486Z" style="fill:#fff;fill-opacity:0.25;"/><path d="M131.081,104.27l-7.77,4.486l7.77,4.486l7.77,-4.486l-7.77,-4.486Z" style="fill:#fff;fill-opacity:0.25;"/><path d="M123.311,80.106l-0,29.399l7.77,4.486l7.77,-4.486l0,-29.399l-7.77,-4.486l-7.77,4.486Z" style="fill:#25bcb4;"/><path d="M131.081,84.592l-7.77,-4.486l-0,29.399l7.77,4.486l0,-29.399Z" style="fill:#fff;fill-opacity:0.25;"/><path d="M131.081,75.62l-7.77,4.486l7.77,4.486l7.77,-4.486l-7.77,-4.486Z" style="fill:#fff;fill-opacity:0.25;"/><path d="M131.081,75.62l-7.77,4.486l7.77,4.486l7.77,-4.486l-7.77,-4.486Z" style="fill:#fff;fill-opacity:0.25;"/><path d="M123.311,53.201l-0,46.583l7.77,4.486l7.77,-4.486l0,-46.583l-7.77,-4.486l-7.77,4.486Z" style="fill:#ff8e16;"/><path d="M131.081,57.688l-7.77,-4.487l-0,46.583l7.77,4.486l0,-46.582Z" style="fill:#fff;fill-opacity:0.25;"/><path d="M131.081,48.715l-7.77,4.486l7.77,4.487l7.77,-4.487l-7.77,-4.486Z" style="fill:#fff;fill-opacity:0.25;"/><path d="M131.081,48.715l-7.77,4.486l7.77,4.487l7.77,-4.487l-7.77,-4.486Z" style="fill:#fff;fill-opacity:0.25;"/><path d="M107.77,123.627l0,7.577l7.771,4.487l7.77,-4.487l-0,-7.577l-7.77,-4.486l-7.771,4.486Z" style="fill:#001a35;"/><path d="M115.541,128.113l-7.771,-4.486l0,7.577l7.771,4.487l-0,-7.578Z" style="fill:#fff;fill-opacity:0.25;"/><path d="M115.541,119.141l-7.771,4.486l7.771,4.486l7.77,-4.486l-7.77,-4.486Z" style="fill:#fff;fill-opacity:0.25;"/><path d="M115.541,119.141l-7.771,4.486l7.771,4.486l7.77,-4.486l-7.77,-4.486Z" style="fill:#fff;fill-opacity:0.25;"/><path d="M107.77,94.827l0,29.399l7.771,4.486l7.77,-4.486l-0,-29.399l-7.77,-4.486l-7.771,4.486Z" style="fill:#25bcb4;"/><path d="M115.541,99.313l-7.771,-4.486l0,29.399l7.771,4.486l-0,-29.399Z" style="fill:#fff;fill-opacity:0.25;"/><path d="M115.541,90.341l-7.771,4.486l7.771,4.486l7.77,-4.486l-7.77,-4.486Z" style="fill:#fff;fill-opacity:0.25;"/><path d="M115.541,90.341l-7.771,4.486l7.771,4.486l7.77,-4.486l-7.77,-4.486Z" style="fill:#fff;fill-opacity:0.25;"/><path d="M107.77,70.548l0,41.221l7.771,4.487l7.77,-4.487l-0,-41.221l-7.77,-4.486l-7.771,4.486Z" style="fill:#ff8e16;"/><path d="M115.541,75.034l-7.771,-4.486l0,41.221l7.771,4.487l-0,-41.222Z" style="fill:#fff;fill-opacity:0.25;"/><path d="M115.541,66.062l-7.771,4.486l7.771,4.486l7.77,-4.486l-7.77,-4.486Z" style="fill:#fff;fill-opacity:0.25;"/><path d="M115.541,66.062l-7.771,4.486l7.771,4.486l7.77,-4.486l-7.77,-4.486Z" style="fill:#fff;fill-opacity:0.25;"/><path d="M92.386,135.72l0,5.12l7.77,4.486l7.771,-4.486l-0,-5.12l-7.771,-4.486l-7.77,4.486Z" style="fill:#001a35;"/><path d="M100.156,140.206l-7.77,-4.486l0,5.12l7.77,4.486l0,-5.12Z" style="fill:#fff;fill-opacity:0.25;"/><path d="M100.156,131.234l-7.77,4.486l7.77,4.486l7.771,-4.486l-7.771,-4.486Z" style="fill:#fff;fill-opacity:0.25;"/><path d="M100.156,131.234l-7.77,4.486l7.77,4.486l7.771,-4.486l-7.771,-4.486Z" style="fill:#fff;fill-opacity:0.25;"/><path d="M92.23,106.638l-0,29.399l7.77,4.486l7.77,-4.486l0,-29.399l-7.77,-4.486l-7.77,4.486Z" style="fill:#25bcb4;"/><path d="M100,111.125l-7.77,-4.487l-0,29.399l7.77,4.486l-0,-29.398Z" style="fill:#fff;fill-opacity:0.25;"/><path d="M100,102.152l-7.77,4.486l7.77,4.487l7.77,-4.487l-7.77,-4.486Z" style="fill:#fff;fill-opacity:0.25;"/><path d="M100,102.152l-7.77,4.486l7.77,4.487l7.77,-4.487l-7.77,-4.486Z" style="fill:#fff;fill-opacity:0.25;"/><path d="M92.23,89.163l-0,31.764l7.77,4.487l7.77,-4.487l0,-31.764l-7.77,-4.486l-7.77,4.486Z" style="fill:#ff8e16;"/><path d="M100,93.649l-7.77,-4.486l-0,31.764l7.77,4.487l-0,-31.765Z" style="fill:#fff;fill-opacity:0.25;"/><path d="M100,84.677l-7.77,4.486l7.77,4.486l7.77,-4.486l-7.77,-4.486Z" style="fill:#fff;fill-opacity:0.25;"/><path d="M100,84.677l-7.77,4.486l7.77,4.486l7.77,-4.486l-7.77,-4.486Z" style="fill:#fff;fill-opacity:0.25;"/><path d="M76.689,146.812l0,3.278l7.77,4.486l7.771,-4.486l-0,-3.278l-7.771,-4.486l-7.77,4.486Z" style="fill:#001a35;"/><path d="M84.459,151.298l-7.77,-4.486l0,3.278l7.77,4.486l0,-3.278Z" style="fill:#fff;fill-opacity:0.25;"/><path d="M84.459,142.326l-7.77,4.486l7.77,4.486l7.771,-4.486l-7.771,-4.486Z" style="fill:#fff;fill-opacity:0.25;"/><path d="M84.459,142.326l-7.77,4.486l7.77,4.486l7.771,-4.486l-7.771,-4.486Z" style="fill:#fff;fill-opacity:0.25;"/><path d="M76.689,117.692l0,29.398l7.77,4.486l7.771,-4.486l-0,-29.398l-7.771,-4.487l-7.77,4.487Z" style="fill:#25bcb4;"/><path d="M84.459,122.178l-7.77,-4.486l0,29.398l7.77,4.486l0,-29.398Z" style="fill:#fff;fill-opacity:0.25;"/><path d="M84.459,113.205l-7.77,4.487l7.77,4.486l7.771,-4.486l-7.771,-4.487Z" style="fill:#fff;fill-opacity:0.25;"/><path d="M84.459,113.205l-7.77,4.487l7.77,4.486l7.771,-4.486l-7.771,-4.487Z" style="fill:#fff;fill-opacity:0.25;"/><path d="M76.689,106.638l0,25.225l7.77,4.486l7.771,-4.486l-0,-25.225l-7.771,-4.486l-7.77,4.486Z" style="fill:#ff8e16;"/><path d="M84.459,111.125l-7.77,-4.487l0,25.225l7.77,4.486l0,-25.224Z" style="fill:#fff;fill-opacity:0.25;"/><path d="M84.459,102.152l-7.77,4.486l7.77,4.487l7.771,-4.487l-7.771,-4.486Z" style="fill:#fff;fill-opacity:0.25;"/><path d="M84.459,102.152l-7.77,4.486l7.77,4.487l7.771,-4.487l-7.771,-4.486Z" style="fill:#fff;fill-opacity:0.25;"/><path d="M61.149,156.109l-0,3.278l7.77,4.486l7.77,-4.486l0,-3.278l-7.77,-4.486l-7.77,4.486Z" style="fill:#001a35;"/><path d="M68.919,160.595l-7.77,-4.486l-0,3.278l7.77,4.486l-0,-3.278Z" style="fill:#fff;fill-opacity:0.25;"/><path d="M68.919,151.623l-7.77,4.486l7.77,4.486l7.77,-4.486l-7.77,-4.486Z" style="fill:#fff;fill-opacity:0.25;"/><path d="M68.919,151.623l-7.77,4.486l7.77,4.486l7.77,-4.486l-7.77,-4.486Z" style="fill:#fff;fill-opacity:0.25;"/><path d="M61.149,126.711l-0,29.398l7.77,4.486l7.77,-4.486l0,-29.398l-7.77,-4.487l-7.77,4.487Z" style="fill:#25bcb4;"/><path d="M68.919,131.197l-7.77,-4.486l-0,29.398l7.77,4.486l-0,-29.398Z" style="fill:#fff;fill-opacity:0.25;"/><path d="M68.919,122.224l-7.77,4.487l7.77,4.486l7.77,-4.486l-7.77,-4.487Z" style="fill:#fff;fill-opacity:0.25;"/><path d="M68.919,122.224l-7.77,4.487l7.77,4.486l7.77,-4.486l-7.77,-4.487Z" style="fill:#fff;fill-opacity:0.25;"/><path d="M61.149,124.421l-0,10.213l7.77,4.486l7.77,-4.486l0,-10.213l-7.77,-4.486l-7.77,4.486Z" style="fill:#ff8e16;"/><path d="M68.919,128.907l-7.77,-4.486l-0,10.213l7.77,4.486l-0,-10.213Z" style="fill:#fff;fill-opacity:0.25;"/><path d="M68.919,119.935l-7.77,4.486l7.77,4.486l7.77,-4.486l-7.77,-4.486Z" style="fill:#fff;fill-opacity:0.25;"/><path d="M68.919,119.935l-7.77,4.486l7.77,4.486l7.77,-4.486l-7.77,-4.486Z" style="fill:#fff;fill-opacity:0.25;"/><path d="M45.608,165.875l0,3.278l7.77,4.486l7.771,-4.486l-0,-3.278l-7.771,-4.487l-7.77,4.487Z" style="fill:#001a35;"/><path d="M53.378,170.361l-7.77,-4.486l0,3.278l7.77,4.486l0,-3.278Z" style="fill:#fff;fill-opacity:0.25;"/><path d="M53.378,161.388l-7.77,4.487l7.77,4.486l7.771,-4.486l-7.771,-4.487Z" style="fill:#fff;fill-opacity:0.25;"/><path d="M53.378,161.388l-7.77,4.487l7.77,4.486l7.771,-4.486l-7.771,-4.487Z" style="fill:#fff;fill-opacity:0.25;"/><path d="M45.608,139.29l0,26.717l7.77,4.486l7.771,-4.486l-0,-26.717l-7.771,-4.486l-7.77,4.486Z" style="fill:#25bcb4;"/><path d="M53.378,143.776l-7.77,-4.486l0,26.717l7.77,4.486l0,-26.717Z" style="fill:#fff;fill-opacity:0.25;"/><path d="M53.378,134.804l-7.77,4.486l7.77,4.486l7.771,-4.486l-7.771,-4.486Z" style="fill:#fff;fill-opacity:0.25;"/><path d="M53.378,134.804l-7.77,4.486l7.77,4.486l7.771,-4.486l-7.771,-4.486Z" style="fill:#fff;fill-opacity:0.25;"/><path d="M45.608,139.29l0,6.132l7.77,4.486l7.771,-4.486l-0,-6.132l-7.771,-4.486l-7.77,4.486Z" style="fill:#ff8e16;"/><path d="M53.378,143.776l-7.77,-4.486l0,6.132l7.77,4.486l0,-6.132Z" style="fill:#fff;fill-opacity:0.25;"/><path d="M53.378,134.804l-7.77,4.486l7.77,4.486l7.771,-4.486l-7.771,-4.486Z" style="fill:#fff;fill-opacity:0.25;"/><path d="M53.378,134.804l-7.77,4.486l7.77,4.486l7.771,-4.486l-7.771,-4.486Z" style="fill:#fff;fill-opacity:0.25;"/></svg>