<?xml version="1.0" encoding="UTF-8" standalone="no"?><!DOCTYPE svg PUBLIC "-//W3C//DTD SVG 1.1//EN" "http://www.w3.org/Graphics/SVG/1.1/DTD/svg11.dtd"><svg width="100%" height="100%" viewBox="0 0 200 200" version="1.1" xmlns="http://www.w3.org/2000/svg" xmlns:xlink="http://www.w3.org/1999/xlink" xml:space="preserve" xmlns:serif="http://www.serif.com/" style="fill-rule:evenodd;clip-rule:evenodd;stroke-linejoin:round;stroke-miterlimit:2;"><path d="M85.243,138.44l0,10.467l5.102,2.946l5.103,-2.946l-0,-10.467l-5.103,-2.946l-5.102,2.946Z" style="fill:#001a35;"/><path d="M90.345,141.386l-5.102,-2.946l0,10.467l5.102,2.946l0,-10.467Z" style="fill:#fff;fill-opacity:0.25;"/><path d="M90.345,135.494l-5.102,2.946l5.102,2.946l5.103,-2.946l-5.103,-2.946Z" style="fill:#fff;fill-opacity:0.25;"/><path d="M90.345,135.494l-5.102,2.946l5.102,2.946l5.103,-2.946l-5.103,-2.946Z" style="fill:#fff;fill-opacity:0.25;"/><path d="M95.448,123.782l-0,19.304l5.102,2.946l5.102,-2.946l0,-19.304l-5.102,-2.946l-5.102,2.946Z" style="fill:#001a35;"/><path d="M100.55,126.728l-5.102,-2.946l-0,19.304l5.102,2.946l-0,-19.304Z" style="fill:#fff;fill-opacity:0.25;"/><path d="M100.55,120.836l-5.102,2.946l5.102,2.946l5.102,-2.946l-5.102,-2.946Z" style="fill:#fff;fill-opacity:0.25;"/><path d="M100.55,120.836l-5.102,2.946l5.102,2.946l5.102,-2.946l-5.102,-2.946Z" style="fill:#fff;fill-opacity:0.25;"/><path d="M115.857,100.512l-0,31.087l5.102,2.946l5.102,-2.946l0,-31.087l-5.102,-2.946l-5.102,2.946Z" style="fill:#001a35;"/><path d="M120.959,103.457l-5.102,-2.945l-0,31.087l5.102,2.946l-0,-31.088Z" style="fill:#fff;fill-opacity:0.25;"/><path d="M120.959,97.566l-5.102,2.946l5.102,2.945l5.102,-2.945l-5.102,-2.946Z" style="fill:#fff;fill-opacity:0.25;"/><path d="M120.959,97.566l-5.102,2.946l5.102,2.945l5.102,-2.945l-5.102,-2.946Z" style="fill:#fff;fill-opacity:0.25;"/><path d="M105.652,113.11l0,24.077l5.102,2.946l5.103,-2.946l-0,-24.077l-5.103,-2.946l-5.102,2.946Z" style="fill:#001a35;"/><path d="M110.754,116.055l-5.102,-2.945l0,24.077l5.102,2.946l0,-24.078Z" style="fill:#fff;fill-opacity:0.25;"/><path d="M110.754,110.164l-5.102,2.946l5.102,2.945l5.103,-2.945l-5.103,-2.946Z" style="fill:#fff;fill-opacity:0.25;"/><path d="M110.754,110.164l-5.102,2.946l5.102,2.945l5.103,-2.945l-5.103,-2.946Z" style="fill:#fff;fill-opacity:0.25;"/><path d="M126.061,87.355l0,37.682l5.102,2.945l5.103,-2.945l-0,-37.682l-5.103,-2.946l-5.102,2.946Z" style="fill:#001a35;"/><path d="M131.163,90.3l-5.102,-2.945l0,37.682l5.102,2.945l0,-37.682Z" style="fill:#fff;fill-opacity:0.25;"/><path d="M131.163,84.409l-5.102,2.946l5.102,2.945l5.103,-2.945l-5.103,-2.946Z" style="fill:#fff;fill-opacity:0.25;"/><path d="M131.163,84.409l-5.102,2.946l5.102,2.945l5.103,-2.945l-5.103,-2.946Z" style="fill:#fff;fill-opacity:0.25;"/><path d="M136.252,69.413l0,49.682l5.103,2.946l5.102,-2.946l-0,-49.682l-5.102,-2.946l-5.103,2.946Z" style="fill:#001a35;"/><path d="M141.355,72.359l-5.103,-2.946l0,49.682l5.103,2.946l-0,-49.682Z" style="fill:#fff;fill-opacity:0.25;"/><path d="M141.355,66.467l-5.103,2.946l5.103,2.946l5.102,-2.946l-5.102,-2.946Z" style="fill:#fff;fill-opacity:0.25;"/><path d="M141.355,66.467l-5.103,2.946l5.103,2.946l5.102,-2.946l-5.102,-2.946Z" style="fill:#fff;fill-opacity:0.25;"/><path d="M146.457,51.545l-0,61.465l5.102,2.946l5.102,-2.946l0,-61.465l-5.102,-2.945l-5.102,2.945Z" style="fill:#001a35;"/><path d="M151.559,54.491l-5.102,-2.946l-0,61.465l5.102,2.946l0,-61.465Z" style="fill:#fff;fill-opacity:0.25;"/><path d="M151.559,48.6l-5.102,2.945l5.102,2.946l5.102,-2.946l-5.102,-2.945Z" style="fill:#fff;fill-opacity:0.25;"/><path d="M151.559,48.6l-5.102,2.945l5.102,2.946l5.102,-2.946l-5.102,-2.945Z" style="fill:#fff;fill-opacity:0.25;"/><path d="M156.661,31.532l0,75.786l5.103,2.945l5.102,-2.945l-0,-75.786l-5.102,-2.946l-5.103,2.946Z" style="fill:#001a35;"/><path d="M161.764,34.478l-5.103,-2.946l0,75.786l5.103,2.945l-0,-75.785Z" style="fill:#fff;fill-opacity:0.25;"/><path d="M161.764,28.586l-5.103,2.946l5.103,2.946l5.102,-2.946l-5.102,-2.946Z" style="fill:#fff;fill-opacity:0.25;"/><path d="M161.764,28.586l-5.103,2.946l5.103,2.946l5.102,-2.946l-5.102,-2.946Z" style="fill:#fff;fill-opacity:0.25;"/><path d="M166.866,14.813l-0,86.052l5.102,2.946l5.102,-2.946l0,-86.052l-5.102,-2.946l-5.102,2.946Z" style="fill:#001a35;"/><path d="M171.968,17.758l-5.102,-2.945l-0,86.052l5.102,2.946l0,-86.053Z" style="fill:#fff;fill-opacity:0.25;"/><path d="M171.968,11.867l-5.102,2.946l5.102,2.945l5.102,-2.945l-5.102,-2.946Z" style="fill:#fff;fill-opacity:0.25;"/><path d="M171.968,11.867l-5.102,2.946l5.102,2.945l5.102,-2.945l-5.102,-2.946Z" style="fill:#fff;fill-opacity:0.25;"/><path d="M75.039,147.678l-0,7.262l5.102,2.946l5.102,-2.946l0,-7.262l-5.102,-2.946l-5.102,2.946Z" style="fill:#001a35;"/><path d="M80.141,150.624l-5.102,-2.946l-0,7.262l5.102,2.946l-0,-7.262Z" style="fill:#fff;fill-opacity:0.25;"/><path d="M80.141,144.732l-5.102,2.946l5.102,2.946l5.102,-2.946l-5.102,-2.946Z" style="fill:#fff;fill-opacity:0.25;"/><path d="M80.141,144.732l-5.102,2.946l5.102,2.946l5.102,-2.946l-5.102,-2.946Z" style="fill:#fff;fill-opacity:0.25;"/><path d="M65.197,155.15l0,4.975l5.102,2.946l5.103,-2.946l-0,-4.975l-5.103,-2.946l-5.102,2.946Z" style="fill:#001a35;"/><path d="M70.299,158.096l-5.102,-2.946l0,4.975l5.102,2.946l0,-4.975Z" style="fill:#fff;fill-opacity:0.25;"/><path d="M70.299,152.204l-5.102,2.946l5.102,2.946l5.103,-2.946l-5.103,-2.946Z" style="fill:#fff;fill-opacity:0.25;"/><path d="M70.299,152.204l-5.102,2.946l5.102,2.946l5.103,-2.946l-5.103,-2.946Z" style="fill:#fff;fill-opacity:0.25;"/><path d="M54.993,163.072l-0,3.362l5.102,2.946l5.102,-2.946l0,-3.362l-5.102,-2.946l-5.102,2.946Z" style="fill:#001a35;"/><path d="M60.095,166.018l-5.102,-2.946l-0,3.362l5.102,2.946l-0,-3.362Z" style="fill:#fff;fill-opacity:0.25;"/><path d="M60.095,160.126l-5.102,2.946l5.102,2.946l5.102,-2.946l-5.102,-2.946Z" style="fill:#fff;fill-opacity:0.25;"/><path d="M60.095,160.126l-5.102,2.946l5.102,2.946l5.102,-2.946l-5.102,-2.946Z" style="fill:#fff;fill-opacity:0.25;"/><path d="M44.686,170.356l-0,2.152l5.102,2.946l5.102,-2.946l0,-2.152l-5.102,-2.946l-5.102,2.946Z" style="fill:#001a35;"/><path d="M49.788,173.301l-5.102,-2.945l-0,2.152l5.102,2.946l-0,-2.153Z" style="fill:#fff;fill-opacity:0.25;"/><path d="M49.788,167.41l-5.102,2.946l5.102,2.945l5.102,-2.945l-5.102,-2.946Z" style="fill:#fff;fill-opacity:0.25;"/><path d="M49.788,167.41l-5.102,2.946l5.102,2.945l5.102,-2.945l-5.102,-2.946Z" style="fill:#fff;fill-opacity:0.25;"/><path d="M34.481,176.46l0,2.153l5.102,2.946l5.103,-2.946l-0,-2.153l-5.103,-2.945l-5.102,2.945Z" style="fill:#001a35;"/><path d="M39.583,179.406l-5.102,-2.946l0,2.153l5.102,2.946l0,-2.153Z" style="fill:#fff;fill-opacity:0.25;"/><path d="M39.583,173.515l-5.102,2.945l5.102,2.946l5.103,-2.946l-5.103,-2.945Z" style="fill:#fff;fill-opacity:0.25;"/><path d="M39.583,173.515l-5.102,2.945l5.102,2.946l5.103,-2.946l-5.103,-2.945Z" style="fill:#fff;fill-opacity:0.25;"/><path d="M22.93,183.035l-0,2.152l5.102,2.946l5.102,-2.946l0,-2.152l-5.102,-2.946l-5.102,2.946Z" style="fill:#001a35;"/><path d="M28.032,185.981l-5.102,-2.946l-0,2.152l5.102,2.946l-0,-2.152Z" style="fill:#fff;fill-opacity:0.25;"/><path d="M28.032,180.089l-5.102,2.946l5.102,2.946l5.102,-2.946l-5.102,-2.946Z" style="fill:#fff;fill-opacity:0.25;"/><path d="M28.032,180.089l-5.102,2.946l5.102,2.946l5.102,-2.946l-5.102,-2.946Z" style="fill:#fff;fill-opacity:0.25;"/></svg>