<?xml version="1.0" encoding="UTF-8" standalone="no"?><!DOCTYPE svg PUBLIC "-//W3C//DTD SVG 1.1//EN" "http://www.w3.org/Graphics/SVG/1.1/DTD/svg11.dtd"><svg width="100%" height="100%" viewBox="0 0 200 200" version="1.1" xmlns="http://www.w3.org/2000/svg" xmlns:xlink="http://www.w3.org/1999/xlink" xml:space="preserve" xmlns:serif="http://www.serif.com/" style="fill-rule:evenodd;clip-rule:evenodd;stroke-linejoin:round;stroke-miterlimit:2;"><path d="M43.651,160.302l-0,16.517l8.051,4.648l8.051,-4.648l0,-16.517l-8.051,-4.648l-8.051,4.648Z" style="fill:#001a35;"/><path d="M51.702,164.951l-8.051,-4.649l-0,16.517l8.051,4.648l0,-16.516Z" style="fill:#fff;fill-opacity:0.25;"/><path d="M51.702,155.654l-8.051,4.648l8.051,4.649l8.051,-4.649l-8.051,-4.648Z" style="fill:#fff;fill-opacity:0.25;"/><path d="M51.702,155.654l-8.051,4.648l8.051,4.649l8.051,-4.649l-8.051,-4.648Z" style="fill:#fff;fill-opacity:0.25;"/><path d="M59.753,137.172l0,30.462l8.052,4.648l8.051,-4.648l0,-30.462l-8.051,-4.649l-8.052,4.649Z" style="fill:#001a35;"/><path d="M67.805,141.82l-8.052,-4.648l0,30.462l8.052,4.648l-0,-30.462Z" style="fill:#fff;fill-opacity:0.25;"/><path d="M67.805,132.523l-8.052,4.649l8.052,4.648l8.051,-4.648l-8.051,-4.649Z" style="fill:#fff;fill-opacity:0.25;"/><path d="M67.805,132.523l-8.052,4.649l8.052,4.648l8.051,-4.648l-8.051,-4.649Z" style="fill:#fff;fill-opacity:0.25;"/><path d="M91.959,100.451l0,49.056l8.051,4.648l8.052,-4.648l-0,-49.056l-8.052,-4.649l-8.051,4.649Z" style="fill:#001a35;"/><path d="M100.01,105.099l-8.051,-4.648l0,49.056l8.051,4.648l0,-49.056Z" style="fill:#fff;fill-opacity:0.25;"/><path d="M100.01,95.802l-8.051,4.649l8.051,4.648l8.052,-4.648l-8.052,-4.649Z" style="fill:#fff;fill-opacity:0.25;"/><path d="M100.01,95.802l-8.051,4.649l8.051,4.648l8.052,-4.648l-8.052,-4.649Z" style="fill:#fff;fill-opacity:0.25;"/><path d="M75.856,120.33l0,37.995l8.052,4.648l8.051,-4.648l0,-37.995l-8.051,-4.648l-8.052,4.648Z" style="fill:#001a35;"/><path d="M83.908,124.979l-8.052,-4.649l0,37.995l8.052,4.648l-0,-37.994Z" style="fill:#fff;fill-opacity:0.25;"/><path d="M83.908,115.682l-8.052,4.648l8.052,4.649l8.051,-4.649l-8.051,-4.648Z" style="fill:#fff;fill-opacity:0.25;"/><path d="M83.908,115.682l-8.052,4.648l8.052,4.649l8.051,-4.649l-8.051,-4.648Z" style="fill:#fff;fill-opacity:0.25;"/><path d="M108.062,79.689l-0,59.462l8.051,4.649l8.052,-4.649l-0,-59.462l-8.052,-4.649l-8.051,4.649Z" style="fill:#001a35;"/><path d="M116.113,84.337l-8.051,-4.648l-0,59.462l8.051,4.649l0,-59.463Z" style="fill:#fff;fill-opacity:0.25;"/><path d="M116.113,75.04l-8.051,4.649l8.051,4.648l8.052,-4.648l-8.052,-4.649Z" style="fill:#fff;fill-opacity:0.25;"/><path d="M116.113,75.04l-8.051,4.649l8.051,4.648l8.052,-4.648l-8.052,-4.649Z" style="fill:#fff;fill-opacity:0.25;"/><path d="M124.144,51.377l-0,78.398l8.051,4.648l8.052,-4.648l-0,-78.398l-8.052,-4.648l-8.051,4.648Z" style="fill:#001a35;"/><path d="M132.195,56.025l-8.051,-4.648l-0,78.398l8.051,4.648l0,-78.398Z" style="fill:#fff;fill-opacity:0.25;"/><path d="M132.195,46.729l-8.051,4.648l8.051,4.648l8.052,-4.648l-8.052,-4.648Z" style="fill:#fff;fill-opacity:0.25;"/><path d="M132.195,46.729l-8.051,4.648l8.051,4.648l8.052,-4.648l-8.052,-4.648Z" style="fill:#fff;fill-opacity:0.25;"/><path d="M140.247,23.181l-0,96.992l8.051,4.649l8.051,-4.649l0,-96.992l-8.051,-4.648l-8.051,4.648Z" style="fill:#001a35;"/><path d="M148.298,27.83l-8.051,-4.649l-0,96.992l8.051,4.649l-0,-96.992Z" style="fill:#fff;fill-opacity:0.25;"/><path d="M148.298,18.533l-8.051,4.648l8.051,4.649l8.051,-4.649l-8.051,-4.648Z" style="fill:#fff;fill-opacity:0.25;"/><path d="M148.298,18.533l-8.051,4.648l8.051,4.649l8.051,-4.649l-8.051,-4.648Z" style="fill:#fff;fill-opacity:0.25;"/></svg>