<?xml version="1.0" encoding="UTF-8" standalone="no"?><!DOCTYPE svg PUBLIC "-//W3C//DTD SVG 1.1//EN" "http://www.w3.org/Graphics/SVG/1.1/DTD/svg11.dtd"><svg width="100%" height="100%" viewBox="0 0 200 200" version="1.1" xmlns="http://www.w3.org/2000/svg" xmlns:xlink="http://www.w3.org/1999/xlink" xml:space="preserve" xmlns:serif="http://www.serif.com/" style="fill-rule:evenodd;clip-rule:evenodd;stroke-linejoin:round;stroke-miterlimit:2;"><path d="M99.796,127.033l0,16.374l7.982,4.608l7.982,-4.608l-0,-16.374l-7.982,-4.608l-7.982,4.608Z" style="fill:#001a35;"/><path d="M107.778,131.641l-7.982,-4.608l0,16.374l7.982,4.608l-0,-16.374Z" style="fill:#fff;fill-opacity:0.25;"/><path d="M107.778,122.425l-7.982,4.608l7.982,4.608l7.982,-4.608l-7.982,-4.608Z" style="fill:#fff;fill-opacity:0.25;"/><path d="M107.778,122.425l-7.982,4.608l7.982,4.608l7.982,-4.608l-7.982,-4.608Z" style="fill:#fff;fill-opacity:0.25;"/><path d="M115.76,104.103l-0,30.199l7.981,4.608l7.982,-4.608l-0,-30.199l-7.982,-4.608l-7.981,4.608Z" style="fill:#001a35;"/><path d="M123.741,108.712l-7.981,-4.609l-0,30.199l7.981,4.608l0,-30.198Z" style="fill:#fff;fill-opacity:0.25;"/><path d="M123.741,99.495l-7.981,4.608l7.981,4.609l7.982,-4.609l-7.982,-4.608Z" style="fill:#fff;fill-opacity:0.25;"/><path d="M123.741,99.495l-7.981,4.608l7.981,4.609l7.982,-4.609l-7.982,-4.608Z" style="fill:#fff;fill-opacity:0.25;"/><path d="M147.686,67.701l0,48.631l7.982,4.608l7.981,-4.608l0,-48.631l-7.981,-4.609l-7.982,4.609Z" style="fill:#001a35;"/><path d="M155.668,72.309l-7.982,-4.608l0,48.631l7.982,4.608l-0,-48.631Z" style="fill:#fff;fill-opacity:0.25;"/><path d="M155.668,63.092l-7.982,4.609l7.982,4.608l7.981,-4.608l-7.981,-4.609Z" style="fill:#fff;fill-opacity:0.25;"/><path d="M155.668,63.092l-7.982,4.609l7.982,4.608l7.981,-4.608l-7.981,-4.609Z" style="fill:#fff;fill-opacity:0.25;"/><path d="M131.723,87.408l-0,37.665l7.981,4.608l7.982,-4.608l0,-37.665l-7.982,-4.608l-7.981,4.608Z" style="fill:#001a35;"/><path d="M139.704,92.016l-7.981,-4.608l-0,37.665l7.981,4.608l0,-37.665Z" style="fill:#fff;fill-opacity:0.25;"/><path d="M139.704,82.8l-7.981,4.608l7.981,4.608l7.982,-4.608l-7.982,-4.608Z" style="fill:#fff;fill-opacity:0.25;"/><path d="M139.704,82.8l-7.981,4.608l7.981,4.608l7.982,-4.608l-7.982,-4.608Z" style="fill:#fff;fill-opacity:0.25;"/><path d="M83.833,141.484l0,11.361l7.982,4.608l7.981,-4.608l0,-11.361l-7.981,-4.608l-7.982,4.608Z" style="fill:#001a35;"/><path d="M91.815,146.093l-7.982,-4.609l0,11.361l7.982,4.608l-0,-11.36Z" style="fill:#fff;fill-opacity:0.25;"/><path d="M91.815,136.876l-7.982,4.608l7.982,4.609l7.981,-4.609l-7.981,-4.608Z" style="fill:#fff;fill-opacity:0.25;"/><path d="M91.815,136.876l-7.982,4.608l7.982,4.609l7.981,-4.609l-7.981,-4.608Z" style="fill:#fff;fill-opacity:0.25;"/><path d="M68.438,153.173l-0,7.783l7.981,4.609l7.982,-4.609l0,-7.783l-7.982,-4.608l-7.981,4.608Z" style="fill:#001a35;"/><path d="M76.419,157.781l-7.981,-4.608l-0,7.783l7.981,4.609l0,-7.784Z" style="fill:#fff;fill-opacity:0.25;"/><path d="M76.419,148.565l-7.981,4.608l7.981,4.608l7.982,-4.608l-7.982,-4.608Z" style="fill:#fff;fill-opacity:0.25;"/><path d="M76.419,148.565l-7.981,4.608l7.981,4.608l7.982,-4.608l-7.982,-4.608Z" style="fill:#fff;fill-opacity:0.25;"/><path d="M52.475,165.566l-0,5.259l7.981,4.608l7.982,-4.608l-0,-5.259l-7.982,-4.608l-7.981,4.608Z" style="fill:#001a35;"/><path d="M60.456,170.174l-7.981,-4.608l-0,5.259l7.981,4.608l0,-5.259Z" style="fill:#fff;fill-opacity:0.25;"/><path d="M60.456,160.958l-7.981,4.608l7.981,4.608l7.982,-4.608l-7.982,-4.608Z" style="fill:#fff;fill-opacity:0.25;"/><path d="M60.456,160.958l-7.981,4.608l7.981,4.608l7.982,-4.608l-7.982,-4.608Z" style="fill:#fff;fill-opacity:0.25;"/><path d="M36.351,176.96l-0,3.367l7.981,4.609l7.982,-4.609l-0,-3.367l-7.982,-4.608l-7.981,4.608Z" style="fill:#001a35;"/><path d="M44.332,181.568l-7.981,-4.608l-0,3.367l7.981,4.609l0,-3.368Z" style="fill:#fff;fill-opacity:0.25;"/><path d="M44.332,172.352l-7.981,4.608l7.981,4.608l7.982,-4.608l-7.982,-4.608Z" style="fill:#fff;fill-opacity:0.25;"/><path d="M44.332,172.352l-7.981,4.608l7.981,4.608l7.982,-4.608l-7.982,-4.608Z" style="fill:#fff;fill-opacity:0.25;"/><path d="M36.351,147.047l-0,30.198l7.981,4.609l7.982,-4.609l-0,-30.198l-7.982,-4.608l-7.981,4.608Z" style="fill:#25bcb4;"/><path d="M44.332,151.656l-7.981,-4.609l-0,30.198l7.981,4.609l0,-30.198Z" style="fill:#fff;fill-opacity:0.25;"/><path d="M44.332,142.439l-7.981,4.608l7.981,4.609l7.982,-4.609l-7.982,-4.608Z" style="fill:#fff;fill-opacity:0.25;"/><path d="M44.332,142.439l-7.981,4.608l7.981,4.609l7.982,-4.609l-7.982,-4.608Z" style="fill:#fff;fill-opacity:0.25;"/><path d="M36.351,135.693l-0,25.911l7.981,4.608l7.982,-4.608l-0,-25.911l-7.982,-4.608l-7.981,4.608Z" style="fill:#ff8e16;"/><path d="M44.332,140.302l-7.981,-4.609l-0,25.911l7.981,4.608l0,-25.91Z" style="fill:#fff;fill-opacity:0.25;"/><path d="M44.332,131.085l-7.981,4.608l7.981,4.609l7.982,-4.609l-7.982,-4.608Z" style="fill:#fff;fill-opacity:0.25;"/><path d="M44.332,131.085l-7.981,4.608l7.981,4.609l7.982,-4.609l-7.982,-4.608Z" style="fill:#fff;fill-opacity:0.25;"/><path d="M52.314,135.693l-0,30.199l7.982,4.608l7.981,-4.608l0,-30.199l-7.981,-4.608l-7.982,4.608Z" style="fill:#25bcb4;"/><path d="M60.296,140.302l-7.982,-4.609l-0,30.199l7.982,4.608l-0,-30.198Z" style="fill:#fff;fill-opacity:0.25;"/><path d="M60.296,131.085l-7.982,4.608l7.982,4.609l7.981,-4.609l-7.981,-4.608Z" style="fill:#fff;fill-opacity:0.25;"/><path d="M60.296,131.085l-7.982,4.608l7.982,4.609l7.981,-4.609l-7.981,-4.608Z" style="fill:#fff;fill-opacity:0.25;"/><path d="M52.314,129.76l-0,25.911l7.982,4.608l7.981,-4.608l0,-25.911l-7.981,-4.608l-7.982,4.608Z" style="fill:#ff8e16;"/><path d="M60.296,134.368l-7.982,-4.608l-0,25.911l7.982,4.608l-0,-25.911Z" style="fill:#fff;fill-opacity:0.25;"/><path d="M60.296,125.152l-7.982,4.608l7.982,4.608l7.981,-4.608l-7.981,-4.608Z" style="fill:#fff;fill-opacity:0.25;"/><path d="M60.296,125.152l-7.982,4.608l7.982,4.608l7.981,-4.608l-7.981,-4.608Z" style="fill:#fff;fill-opacity:0.25;"/><path d="M68.277,123.561l0,30.198l7.982,4.608l7.981,-4.608l0,-30.198l-7.981,-4.608l-7.982,4.608Z" style="fill:#25bcb4;"/><path d="M76.259,128.169l-7.982,-4.608l0,30.198l7.982,4.608l-0,-30.198Z" style="fill:#fff;fill-opacity:0.25;"/><path d="M76.259,118.953l-7.982,4.608l7.982,4.608l7.981,-4.608l-7.981,-4.608Z" style="fill:#fff;fill-opacity:0.25;"/><path d="M76.259,118.953l-7.982,4.608l7.982,4.608l7.981,-4.608l-7.981,-4.608Z" style="fill:#fff;fill-opacity:0.25;"/><path d="M68.277,120.274l0,25.91l7.982,4.609l7.981,-4.609l0,-25.91l-7.981,-4.608l-7.982,4.608Z" style="fill:#ff8e16;"/><path d="M76.259,124.882l-7.982,-4.608l0,25.91l7.982,4.609l-0,-25.911Z" style="fill:#fff;fill-opacity:0.25;"/><path d="M76.259,115.666l-7.982,4.608l7.982,4.608l7.981,-4.608l-7.981,-4.608Z" style="fill:#fff;fill-opacity:0.25;"/><path d="M76.259,115.666l-7.982,4.608l7.982,4.608l7.981,-4.608l-7.981,-4.608Z" style="fill:#fff;fill-opacity:0.25;"/><path d="M83.833,111.286l0,30.198l7.982,4.609l7.981,-4.609l0,-30.198l-7.981,-4.608l-7.982,4.608Z" style="fill:#25bcb4;"/><path d="M91.815,115.894l-7.982,-4.608l0,30.198l7.982,4.609l-0,-30.199Z" style="fill:#fff;fill-opacity:0.25;"/><path d="M91.815,106.678l-7.982,4.608l7.982,4.608l7.981,-4.608l-7.981,-4.608Z" style="fill:#fff;fill-opacity:0.25;"/><path d="M91.815,106.678l-7.982,4.608l7.982,4.608l7.981,-4.608l-7.981,-4.608Z" style="fill:#fff;fill-opacity:0.25;"/><path d="M83.833,107.999l0,25.911l7.982,4.608l7.981,-4.608l0,-25.911l-7.981,-4.608l-7.982,4.608Z" style="fill:#ff8e16;"/><path d="M91.815,112.607l-7.982,-4.608l0,25.911l7.982,4.608l-0,-25.911Z" style="fill:#fff;fill-opacity:0.25;"/><path d="M91.815,103.391l-7.982,4.608l7.982,4.608l7.981,-4.608l-7.981,-4.608Z" style="fill:#fff;fill-opacity:0.25;"/><path d="M91.815,103.391l-7.982,4.608l7.982,4.608l7.981,-4.608l-7.981,-4.608Z" style="fill:#fff;fill-opacity:0.25;"/><path d="M99.796,96.953l0,30.198l7.982,4.608l7.982,-4.608l-0,-30.198l-7.982,-4.608l-7.982,4.608Z" style="fill:#25bcb4;"/><path d="M107.778,101.561l-7.982,-4.608l0,30.198l7.982,4.608l-0,-30.198Z" style="fill:#fff;fill-opacity:0.25;"/><path d="M107.778,92.345l-7.982,4.608l7.982,4.608l7.982,-4.608l-7.982,-4.608Z" style="fill:#fff;fill-opacity:0.25;"/><path d="M107.778,92.345l-7.982,4.608l7.982,4.608l7.982,-4.608l-7.982,-4.608Z" style="fill:#fff;fill-opacity:0.25;"/><path d="M99.796,95.867l0,25.91l7.982,4.608l7.982,-4.608l-0,-25.91l-7.982,-4.608l-7.982,4.608Z" style="fill:#ff8e16;"/><path d="M107.778,100.475l-7.982,-4.608l0,25.91l7.982,4.608l-0,-25.91Z" style="fill:#fff;fill-opacity:0.25;"/><path d="M107.778,91.259l-7.982,4.608l7.982,4.608l7.982,-4.608l-7.982,-4.608Z" style="fill:#fff;fill-opacity:0.25;"/><path d="M107.778,91.259l-7.982,4.608l7.982,4.608l7.982,-4.608l-7.982,-4.608Z" style="fill:#fff;fill-opacity:0.25;"/><path d="M131.723,57.493l-0,30.198l7.981,4.609l7.982,-4.609l0,-30.198l-7.982,-4.608l-7.981,4.608Z" style="fill:#25bcb4;"/><path d="M139.704,62.102l-7.981,-4.609l-0,30.198l7.981,4.609l0,-30.198Z" style="fill:#fff;fill-opacity:0.25;"/><path d="M139.704,52.885l-7.981,4.608l7.981,4.609l7.982,-4.609l-7.982,-4.608Z" style="fill:#fff;fill-opacity:0.25;"/><path d="M139.704,52.885l-7.981,4.608l7.981,4.609l7.982,-4.609l-7.982,-4.608Z" style="fill:#fff;fill-opacity:0.25;"/><path d="M131.723,57.493l-0,25.911l7.981,4.608l7.982,-4.608l0,-25.911l-7.982,-4.608l-7.981,4.608Z" style="fill:#ff8e16;"/><path d="M139.704,62.102l-7.981,-4.609l-0,25.911l7.981,4.608l0,-25.91Z" style="fill:#fff;fill-opacity:0.25;"/><path d="M139.704,52.885l-7.981,4.608l7.981,4.609l7.982,-4.609l-7.982,-4.608Z" style="fill:#fff;fill-opacity:0.25;"/><path d="M139.704,52.885l-7.981,4.608l7.981,4.609l7.982,-4.609l-7.982,-4.608Z" style="fill:#fff;fill-opacity:0.25;"/><path d="M115.76,80.367l-0,23.736l7.981,4.609l7.982,-4.609l-0,-23.736l-7.982,-4.608l-7.981,4.608Z" style="fill:#25bcb4;"/><path d="M123.741,84.976l-7.981,-4.609l-0,23.736l7.981,4.609l0,-23.736Z" style="fill:#fff;fill-opacity:0.25;"/><path d="M123.741,75.759l-7.981,4.608l7.981,4.609l7.982,-4.609l-7.982,-4.608Z" style="fill:#fff;fill-opacity:0.25;"/><path d="M123.741,75.759l-7.981,4.608l7.981,4.609l7.982,-4.609l-7.982,-4.608Z" style="fill:#fff;fill-opacity:0.25;"/><path d="M115.76,75.057l-0,25.91l7.981,4.608l7.982,-4.608l-0,-25.91l-7.982,-4.608l-7.981,4.608Z" style="fill:#ff8e16;"/><path d="M123.741,79.665l-7.981,-4.608l-0,25.91l7.981,4.608l0,-25.91Z" style="fill:#fff;fill-opacity:0.25;"/><path d="M123.741,70.449l-7.981,4.608l7.981,4.608l7.982,-4.608l-7.982,-4.608Z" style="fill:#fff;fill-opacity:0.25;"/><path d="M123.741,70.449l-7.981,4.608l7.981,4.608l7.982,-4.608l-7.982,-4.608Z" style="fill:#fff;fill-opacity:0.25;"/><path d="M147.686,37.502l0,30.199l7.982,4.608l7.981,-4.608l0,-30.199l-7.981,-4.608l-7.982,4.608Z" style="fill:#25bcb4;"/><path d="M155.668,42.111l-7.982,-4.609l0,30.199l7.982,4.608l-0,-30.198Z" style="fill:#fff;fill-opacity:0.25;"/><path d="M155.668,32.894l-7.982,4.608l7.982,4.609l7.981,-4.609l-7.981,-4.608Z" style="fill:#fff;fill-opacity:0.25;"/><path d="M155.668,32.894l-7.982,4.608l7.982,4.609l7.981,-4.609l-7.981,-4.608Z" style="fill:#fff;fill-opacity:0.25;"/><path d="M147.686,19.673l0,45.921l7.982,4.608l7.981,-4.608l0,-45.921l-7.981,-4.609l-7.982,4.609Z" style="fill:#ff8e16;"/><path d="M155.668,24.281l-7.982,-4.608l0,45.921l7.982,4.608l-0,-45.921Z" style="fill:#fff;fill-opacity:0.25;"/><path d="M155.668,15.064l-7.982,4.609l7.982,4.608l7.981,-4.608l-7.981,-4.609Z" style="fill:#fff;fill-opacity:0.25;"/><path d="M155.668,15.064l-7.982,4.609l7.982,4.608l7.981,-4.608l-7.981,-4.609Z" style="fill:#fff;fill-opacity:0.25;"/></svg>