<?xml version="1.0" encoding="UTF-8" standalone="no"?><!DOCTYPE svg PUBLIC "-//W3C//DTD SVG 1.1//EN" "http://www.w3.org/Graphics/SVG/1.1/DTD/svg11.dtd"><svg width="100%" height="100%" viewBox="0 0 200 200" version="1.1" xmlns="http://www.w3.org/2000/svg" xmlns:xlink="http://www.w3.org/1999/xlink" xml:space="preserve" xmlns:serif="http://www.serif.com/" style="fill-rule:evenodd;clip-rule:evenodd;stroke-linejoin:round;stroke-miterlimit:2;"><path d="M149.869,71.581c0.075,23.587 0.374,71.518 -0.028,77.401c-0.461,6.743 -5.146,13.407 -14.053,18.549c-18.788,10.848 -49.294,10.848 -68.082,0c-9.394,-5.423 -14.091,-12.538 -14.091,-19.653l0,-58.192l22.147,-4.263c20.195,6.561 46.278,4.882 63.46,-5.038c4.55,-2.627 8.099,-5.614 10.647,-8.804Z" style="fill:#dedede;fill-opacity:0.49;"/><path d="M146.014,75.582c-0.043,12.463 0.426,66.016 -0.014,72.455c-0.426,6.227 -4.752,12.381 -12.978,17.13c-17.35,10.017 -45.523,10.017 -62.873,-0c-8.675,-5.009 -13.013,-11.579 -13.013,-18.15l0,-58.009l18.626,-3.584c20.195,6.561 46.278,4.881 63.46,-5.039c2.588,-1.494 4.853,-3.105 6.792,-4.803Z" style="fill:#fff;fill-opacity:0.49;"/><path d="M57.136,147.017c0,-6.571 -0.012,-27.972 -0.012,-34.542c0,-6.571 4.338,-13.142 13.013,-18.15c17.351,-10.018 45.523,-10.018 62.874,-0c8.81,5.086 13.147,11.785 13.009,18.458c-0.133,6.467 0.452,28.348 -0.02,35.254c-0.426,6.227 -4.752,12.381 -12.978,17.13c-17.35,10.017 -45.523,10.017 -62.873,-0c-8.675,-5.009 -13.013,-11.579 -13.013,-18.15Z" style="fill:#9edbd4;fill-opacity:0.86;"/><path d="M51.821,69.025c-1.844,-2.997 -2.854,-6.126 -3.032,-9.268c-0.055,-0.973 -0.054,-4.819 -0.004,-5.769c0.396,-7.517 5.558,-14.966 15.487,-20.699c20.683,-11.941 54.267,-11.941 74.95,0c9.749,5.629 14.903,12.913 15.461,20.291c0.082,1.085 0.073,5.059 0.033,5.959c-0.336,7.568 -5.501,15.077 -15.494,20.846c-17.182,9.92 -43.265,11.6 -63.46,5.039l-25.071,4.825c-1.751,0.337 -3.537,-0.379 -4.571,-1.832c-0.56,-0.786 -0.844,-1.711 -0.845,-2.638c-0,-0.719 0.005,-3.454 0,-4.166c-0.005,-0.794 0.197,-1.591 0.611,-2.307l5.935,-10.281Z" style="fill:#dedede;fill-opacity:0.49;"/><path d="M70.196,128.576c17.413,-10.054 45.688,-10.054 63.102,0c17.413,10.054 17.413,26.378 -0,36.432c-17.414,10.053 -45.689,10.053 -63.102,-0c-17.413,-10.054 -17.413,-26.378 0,-36.432Z" style="fill:#fff;fill-opacity:0.2;"/><path d="M70.196,94.45c17.413,-10.053 45.688,-10.053 63.102,0c17.413,10.054 17.413,26.379 -0,36.432c-17.414,10.054 -45.689,10.054 -63.102,0c-17.413,-10.053 -17.413,-26.378 0,-36.432Z" style="fill:#fff;fill-opacity:0.2;"/><path d="M52.989,67.003c-1.844,-2.996 -4.025,-7.019 -4.203,-10.161c-0.055,-0.973 -0.051,-1.904 -0.001,-2.854c0.396,-7.517 5.558,-14.966 15.487,-20.699c20.683,-11.941 54.267,-11.941 74.95,0c9.749,5.629 14.903,12.913 15.461,20.291c0.082,1.085 0.052,1.315 0.012,2.216c-0.336,7.567 -5.501,15.076 -15.494,20.846c-17.181,9.919 -43.265,11.599 -63.46,5.038l-25.07,4.825c-1.752,0.337 -3.538,-0.379 -4.572,-1.831c-0.56,-0.787 -0.844,-1.711 -0.845,-2.639c-0,-0.718 0.026,0.29 0.021,-0.422c-0.005,-0.794 0.197,-1.591 0.611,-2.307l7.103,-12.303Zm5.395,-0.011c-8.644,-10.348 -5.537,-23.159 9.322,-31.738c18.788,-10.847 49.294,-10.847 68.082,-0c18.787,10.847 18.866,28.885 -0.357,38.941c-18.805,9.838 -40.72,9.573 -60.275,3.887c-1.125,-0.327 -0.256,-0.041 -1.3,-0.517l-22.896,4.215c-0.329,0.063 -0.665,-0.072 -0.86,-0.345c-0.194,-0.273 1.028,-1.875 1.196,-2.165l7.088,-12.278Z" style="fill:#fff;fill-opacity:0.49;"/></svg>