<?xml version="1.0" encoding="UTF-8" standalone="no"?><!DOCTYPE svg PUBLIC "-//W3C//DTD SVG 1.1//EN" "http://www.w3.org/Graphics/SVG/1.1/DTD/svg11.dtd"><svg width="100%" height="100%" viewBox="0 0 200 200" version="1.1" xmlns="http://www.w3.org/2000/svg" xmlns:xlink="http://www.w3.org/1999/xlink" xml:space="preserve" xmlns:serif="http://www.serif.com/" style="fill-rule:evenodd;clip-rule:evenodd;stroke-linejoin:round;stroke-miterlimit:2;"><path d="M151.28,70.777c0.077,24.255 0.385,73.542 -0.029,79.591c-0.474,6.934 -5.291,13.786 -14.451,19.074c-19.319,11.154 -50.688,11.154 -70.008,0c-9.659,-5.577 -14.489,-12.893 -14.489,-20.209l-0,-59.839l22.773,-4.383c20.766,6.746 47.588,5.019 65.256,-5.181c4.678,-2.701 8.328,-5.773 10.948,-9.053Z" style="fill:#dedede;fill-opacity:0.49;"/><path d="M147.316,74.891c-0.044,12.816 0.438,67.884 -0.014,74.505c-0.438,6.403 -4.887,12.731 -13.345,17.615c-17.842,10.301 -46.812,10.301 -64.653,-0c-8.92,-5.15 -13.381,-11.907 -13.381,-18.664l0,-59.65l19.153,-3.686c20.766,6.747 47.588,5.02 65.256,-5.181c2.661,-1.536 4.99,-3.193 6.984,-4.939Z" style="fill:#fff;fill-opacity:0.49;"/><path d="M50.458,68.148c-1.896,-3.081 -2.935,-6.299 -3.118,-9.53c-0.057,-1 -0.056,-4.955 -0.004,-5.932c0.407,-7.73 5.715,-15.39 15.925,-21.284c21.268,-12.28 55.802,-12.28 77.071,-0c10.025,5.788 15.324,13.277 15.898,20.865c0.085,1.116 0.075,5.201 0.034,6.127c-0.345,7.782 -5.656,15.503 -15.932,21.436c-17.668,10.201 -44.49,11.928 -65.256,5.181l-25.78,4.962c-1.8,0.346 -3.638,-0.39 -4.701,-1.883c-0.576,-0.809 -0.867,-1.76 -0.868,-2.713c-0.001,-0.739 0.005,-3.552 -0,-4.284c-0.005,-0.817 0.202,-1.636 0.627,-2.372l6.104,-10.573Z" style="fill:#dedede;fill-opacity:0.49;"/><path d="M55.923,148.347l0,-56.409c0,-6.756 4.461,-13.513 13.381,-18.663c17.841,-10.301 46.811,-10.301 64.653,-0c9.06,5.23 13.519,12.118 13.377,18.98c-0.137,6.65 0.453,50.04 -0.032,57.141c-0.438,6.403 -4.887,12.731 -13.345,17.615c-17.842,10.301 -46.812,10.301 -64.653,-0c-8.92,-5.15 -13.381,-11.907 -13.381,-18.664Z" style="fill:#9edbd4;fill-opacity:0.86;"/><path d="M69.353,129.385c17.906,-10.338 46.981,-10.338 64.887,-0c17.906,10.338 17.906,27.124 -0,37.462c-17.906,10.338 -46.981,10.338 -64.887,0c-17.906,-10.338 -17.906,-27.124 -0,-37.462Z" style="fill:#fff;fill-opacity:0.2;"/><path d="M69.353,73.424c17.906,-10.338 46.981,-10.338 64.887,-0c17.906,10.338 17.906,27.124 -0,37.462c-17.906,10.338 -46.981,10.338 -64.887,0c-17.906,-10.338 -17.906,-27.124 -0,-37.462Z" style="fill:#fff;fill-opacity:0.2;"/><path d="M51.658,66.069c-1.896,-3.081 -4.138,-7.217 -4.321,-10.448c-0.056,-1.001 -0.053,-1.958 -0.001,-2.935c0.407,-7.73 5.715,-15.39 15.925,-21.284c21.268,-12.28 55.802,-12.28 77.071,-0c10.025,5.788 15.324,13.277 15.898,20.865c0.085,1.116 0.054,1.352 0.013,2.278c-0.346,7.781 -5.657,15.503 -15.933,21.436c-17.667,10.2 -44.489,11.927 -65.255,5.181l-25.78,4.961c-1.801,0.347 -3.638,-0.389 -4.702,-1.883c-0.575,-0.809 -0.867,-1.759 -0.868,-2.713c-0,-0.739 0.027,0.298 0.022,-0.434c-0.005,-0.817 0.202,-1.636 0.627,-2.372l7.304,-12.652Zm5.549,-0.011c-8.889,-10.641 -5.694,-23.815 9.585,-32.636c19.32,-11.154 50.689,-11.154 70.008,-0c19.32,11.154 19.4,29.702 -0.366,40.043c-19.338,10.117 -41.873,9.844 -61.981,3.997c-1.157,-0.337 -0.263,-0.043 -1.336,-0.532l-23.544,4.334c-0.339,0.065 -0.685,-0.073 -0.885,-0.354c-0.2,-0.281 1.057,-1.928 1.229,-2.227l7.29,-12.625Z" style="fill:#fff;fill-opacity:0.49;"/></svg>