<?xml version="1.0" encoding="UTF-8" standalone="no"?><!DOCTYPE svg PUBLIC "-//W3C//DTD SVG 1.1//EN" "http://www.w3.org/Graphics/SVG/1.1/DTD/svg11.dtd"><svg width="100%" height="100%" viewBox="0 0 200 200" version="1.1" xmlns="http://www.w3.org/2000/svg" xmlns:xlink="http://www.w3.org/1999/xlink" xml:space="preserve" xmlns:serif="http://www.serif.com/" style="fill-rule:evenodd;clip-rule:evenodd;stroke-linejoin:round;stroke-miterlimit:2;"><path d="M151.3,69.507c0.078,24.482 0.389,74.231 -0.029,80.338c-0.478,6.998 -5.34,13.915 -14.586,19.252c-19.5,11.259 -51.164,11.259 -70.664,0c-9.751,-5.629 -14.626,-13.014 -14.626,-20.399l0,-60.4l22.987,-4.423c20.961,6.809 48.034,5.066 65.867,-5.23c4.723,-2.727 8.407,-5.827 11.051,-9.138Z" style="fill:#dedede;fill-opacity:0.49;"/><path d="M147.299,73.66c-0.044,12.936 0.443,68.52 -0.014,75.204c-0.442,6.462 -4.932,12.85 -13.471,17.779c-18.008,10.398 -47.249,10.398 -65.258,0c-9.004,-5.198 -13.506,-12.018 -13.506,-18.838l-0,-60.209l19.332,-3.721c20.961,6.81 48.034,5.066 65.867,-5.229c2.687,-1.552 5.037,-3.224 7.05,-4.986Z" style="fill:#fff;fill-opacity:0.49;"/><path d="M55.05,147.805c-0,-6.82 -0.012,-4.895 -0.012,-11.715c-0,-6.819 4.502,-13.639 13.506,-18.838c18.009,-10.397 47.25,-10.397 65.258,-0c9.145,5.28 13.646,12.232 13.504,19.158c-0.139,6.713 0.469,5.285 -0.021,12.454c-0.442,6.462 -4.932,12.85 -13.471,17.779c-18.008,10.398 -47.249,10.398 -65.258,0c-9.004,-5.198 -13.506,-12.018 -13.506,-18.838Z" style="fill:#9edbd4;fill-opacity:0.86;"/><path d="M49.533,66.854c-1.914,-3.11 -2.963,-6.358 -3.147,-9.619c-0.058,-1.011 -0.056,-5.002 -0.004,-5.988c0.41,-7.803 5.769,-15.534 16.074,-21.484c21.468,-12.395 56.326,-12.395 77.793,-0c10.119,5.842 15.468,13.402 16.048,21.06c0.085,1.127 0.076,5.251 0.034,6.186c-0.348,7.854 -5.709,15.648 -16.082,21.637c-17.833,10.295 -44.906,12.039 -65.867,5.229l-26.022,5.008c-1.817,0.35 -3.672,-0.393 -4.745,-1.901c-0.581,-0.816 -0.875,-1.776 -0.876,-2.738c-0.001,-0.746 0.005,-3.586 -0,-4.324c-0.006,-0.824 0.204,-1.652 0.633,-2.395l6.161,-10.671Z" style="fill:#dedede;fill-opacity:0.49;"/><path d="M68.605,128.664c18.074,-10.435 47.422,-10.435 65.496,0c18.073,10.435 18.073,27.379 -0,37.814c-18.074,10.435 -47.422,10.435 -65.496,0c-18.074,-10.435 -18.074,-27.379 0,-37.814Z" style="fill:#fff;fill-opacity:0.2;"/><path d="M68.605,117.08c18.074,-10.435 47.422,-10.435 65.496,-0c18.073,10.435 18.073,27.379 -0,37.814c-18.074,10.435 -47.422,10.435 -65.496,-0c-18.074,-10.435 -18.074,-27.379 0,-37.814Z" style="fill:#fff;fill-opacity:0.2;"/><path d="M50.745,64.755c-1.914,-3.11 -4.177,-7.285 -4.362,-10.546c-0.057,-1.01 -0.053,-1.976 -0.001,-2.962c0.41,-7.803 5.769,-15.534 16.074,-21.484c21.468,-12.395 56.326,-12.395 77.793,-0c10.119,5.842 15.468,13.402 16.048,21.06c0.085,1.127 0.054,1.365 0.013,2.3c-0.349,7.854 -5.71,15.648 -16.083,21.637c-17.833,10.296 -44.906,12.039 -65.866,5.229l-26.022,5.008c-1.818,0.35 -3.672,-0.393 -4.746,-1.901c-0.581,-0.816 -0.875,-1.775 -0.876,-2.738c-0.001,-0.746 0.027,0.3 0.022,-0.438c-0.006,-0.824 0.204,-1.652 0.633,-2.395l7.373,-12.77Zm5.6,-0.011c-8.972,-10.741 -5.747,-24.038 9.676,-32.942c19.5,-11.259 51.164,-11.259 70.664,-0c19.5,11.258 19.582,29.98 -0.37,40.418c-19.519,10.212 -42.265,9.936 -62.562,4.035c-1.167,-0.34 -0.265,-0.043 -1.349,-0.537l-23.765,4.374c-0.341,0.066 -0.69,-0.073 -0.892,-0.357c-0.202,-0.284 1.066,-1.946 1.241,-2.247l7.357,-12.744Z" style="fill:#fff;fill-opacity:0.49;"/></svg>