<?xml version="1.0" encoding="UTF-8" standalone="no"?><!DOCTYPE svg PUBLIC "-//W3C//DTD SVG 1.1//EN" "http://www.w3.org/Graphics/SVG/1.1/DTD/svg11.dtd"><svg width="100%" height="100%" viewBox="0 0 200 200" version="1.1" xmlns="http://www.w3.org/2000/svg" xmlns:xlink="http://www.w3.org/1999/xlink" xml:space="preserve" xmlns:serif="http://www.serif.com/" style="fill-rule:evenodd;clip-rule:evenodd;stroke-linejoin:round;stroke-miterlimit:2;"><path d="M12.236,95.595c-0.155,1.012 -0.054,13.27 -0.02,14.07c0.038,0.906 0.716,1.854 2.005,2.598l125.781,72.619c2.425,1.401 6.1,1.553 8.2,0.34l38.199,-22.054c0.894,-0.516 1.36,-1.197 1.413,-1.917c0.071,-0.971 0.01,-13.822 0.001,-13.957c-0.053,-0.896 -0.731,-1.828 -2.003,-2.563l-125.781,-72.619c-2.425,-1.401 -6.099,-1.553 -8.2,-0.34l-38.199,22.054c-0.833,0.481 -1.294,1.104 -1.396,1.769Z" style="fill:#6A4C30;"/><path d="M60.031,72.112c-2.425,-1.401 -6.099,-1.553 -8.2,-0.34l-38.199,22.054c-2.1,1.213 -1.836,3.334 0.589,4.734l125.781,72.62c2.425,1.4 6.1,1.553 8.2,0.34l38.199,-22.054c2.1,-1.213 1.837,-3.334 -0.589,-4.735l-125.781,-72.619Z" style="fill:#fff;fill-opacity:0.08;"/><path d="M90.71,79.696l0,-10.972c6.449,-3.117 15.899,-3.116 22.346,0.002l-0,10.97l-0.581,0l0.022,-0.023c-0.548,-0.599 -1.258,-1.163 -2.132,-1.667c-4.683,-2.703 -12.286,-2.703 -16.968,0c-0.874,0.504 -1.584,1.068 -2.132,1.667l0.022,0.023l-0.577,0Z" style="fill:#6a4c30;"/><path d="M90.71,68.724c6.449,-3.117 15.899,-3.116 22.346,0.002l-0,5.192c-0.585,-0.865 -1.482,-1.676 -2.691,-2.374c-4.683,-2.704 -12.286,-2.704 -16.968,-0c-1.207,0.697 -2.102,1.505 -2.687,2.368l0,-5.188Z" style="fill:#fff;fill-opacity:0.07;"/><path d="M110.129,68.011l0,48.044l3.48,2.009l3.48,-2.009l0,-48.044l-3.48,-2.009l-3.48,2.009Z" style="fill:#6A4C30;"/><path d="M113.609,70.02l-3.48,-2.009l0,48.044l3.48,2.009l0,-48.044Z" style="fill:#fff;fill-opacity:0.08;"/><path d="M113.609,66.002l-3.48,2.009l3.48,2.009l3.48,-2.009l-3.48,-2.009Z" style="fill:#fff;fill-opacity:0.08;"/><path d="M113.609,66.002l-3.48,2.009l3.48,2.009l3.48,-2.009l-3.48,-2.009Z" style="fill:#fff;fill-opacity:0.08;"/><path d="M110.129,68.011l0,49.497l3.48,2.009l3.48,-2.009l0,-49.497l-3.48,-2.009l-3.48,2.009Z" style="fill:#6A4C30;"/><path d="M113.609,70.02l-3.48,-2.009l0,49.497l3.48,2.009l0,-49.497Z" style="fill:#fff;fill-opacity:0.08;"/><path d="M113.609,66.002l-3.48,2.009l3.48,2.009l3.48,-2.009l-3.48,-2.009Z" style="fill:#fff;fill-opacity:0.08;"/><path d="M113.609,66.002l-3.48,2.009l3.48,2.009l3.48,-2.009l-3.48,-2.009Z" style="fill:#fff;fill-opacity:0.08;"/><path d="M90.802,53.211c-1.804,-1.397 -2.714,-3.058 -2.73,-4.721c-0.007,-0.684 -0.102,-3.967 0.089,-4.935c0.342,-1.73 1.66,-3.406 3.955,-4.731c5.394,-3.114 14.151,-3.114 19.545,-0c2.554,1.475 3.899,3.385 4.033,5.319c0.054,0.776 0.019,4.213 0.008,4.492c-0.066,1.618 -0.979,3.227 -2.738,4.584l-0,64.65c-0,6.108 -4.959,11.067 -11.067,11.067c-6.123,-0 -11.095,-4.972 -11.095,-11.095l0,-64.63Z" style="fill:#d6d6d6;fill-opacity:0.25;"/><path d="M92.111,38.824c5.393,-3.114 14.151,-3.114 19.544,-0c5.394,3.114 5.394,8.17 0,11.284c-5.393,3.114 -14.151,3.114 -19.544,-0c-5.394,-3.114 -5.394,-8.17 -0,-11.284Z" style="fill:#fff;fill-opacity:0.25;"/><path d="M93.066,54.587c5.097,2.445 12.533,2.447 17.634,0.006l-0,62.155c-0,4.86 -3.946,8.806 -8.806,8.806c-4.872,-0 -8.828,-3.956 -8.828,-8.829l0,-62.138Z" style="fill:#fff;fill-opacity:0.25;"/><path d="M93.026,77.142c-0.242,-1.467 0.609,-2.983 2.553,-4.105c3.457,-1.996 9.071,-1.996 12.528,0c1.944,1.122 2.795,2.638 2.552,4.105l0,39.629c0,4.86 -3.945,8.806 -8.805,8.806c-4.872,-0 -8.828,-3.956 -8.828,-8.828l-0,-39.607Z" style="fill:#25bcb2;fill-opacity:0.61;"/><path d="M95.538,73.06c3.458,-1.996 9.071,-1.996 12.529,0c3.457,1.996 3.457,5.237 -0,7.233c-3.458,1.997 -9.071,1.997 -12.529,0c-3.457,-1.996 -3.457,-5.237 0,-7.233Z" style="fill:#fff;fill-opacity:0.23;"/><path d="M95.006,40.495c3.796,-2.191 9.958,-2.191 13.754,0c3.795,2.192 3.795,5.75 -0,7.941c-3.796,2.191 -9.958,2.191 -13.754,0c-3.795,-2.191 -3.795,-5.749 0,-7.941Z" style="fill:#d6d6d6;fill-opacity:0.25;"/><path d="M90.914,68.642l0,10.617c0,0 0.292,0.358 0.459,0.533c0.529,0.553 1.2,1.073 2.013,1.542c4.667,2.695 12.246,2.695 16.913,0c0.976,-0.563 1.748,-1.2 2.316,-1.88c0.112,-0.134 0.312,-0.407 0.312,-0.407l0,-10.331c0.417,0.199 0.821,0.412 1.211,0.637c3.511,2.027 5.206,4.709 5.083,7.367c-0.046,1.007 0.106,5.506 -0.022,6.793c-0.235,2.374 -1.922,4.709 -5.061,6.521c-6.786,3.918 -17.805,3.918 -24.591,0c-3.454,-1.994 -5.15,-4.622 -5.088,-7.238c0.025,-1.05 -0.05,-5.427 0.005,-6.613c0.114,-2.48 1.808,-4.94 5.083,-6.83c0.439,-0.254 0.896,-0.491 1.367,-0.711Z" style="fill:#6A4C30;"/><path d="M90.914,68.642l0,10.617c0,0 0.292,0.358 0.459,0.533c0.529,0.553 1.2,1.073 2.013,1.542c4.667,2.695 12.246,2.695 16.913,0c0.976,-0.563 1.748,-1.2 2.316,-1.88c0.112,-0.134 0.312,-0.407 0.312,-0.407l0,-10.331c0.417,0.199 0.821,0.412 1.211,0.637c3.511,2.027 5.206,4.709 5.083,7.367c-0.046,1.007 0.106,5.506 -0.022,6.793c-0.235,2.374 -1.922,4.709 -5.061,6.521c-6.786,3.918 -17.805,3.918 -24.591,0c-3.454,-1.994 -5.15,-4.622 -5.088,-7.238c0.025,-1.05 -0.05,-5.427 0.005,-6.613c0.114,-2.48 1.808,-4.94 5.083,-6.83c0.439,-0.254 0.896,-0.491 1.367,-0.711Z" style="fill:#6A4C30;"/><path d="M90.881,68.657l0,5.03c-1.9,2.524 -1.063,5.572 2.51,7.635c4.664,2.693 12.239,2.693 16.904,-0c3.495,-2.018 4.371,-4.979 2.629,-7.47l0,-5.138c0.415,0.198 0.817,0.41 1.206,0.634c6.781,3.915 6.781,10.273 -0,14.188c-6.782,3.915 -17.793,3.915 -24.574,-0c-6.782,-3.915 -6.782,-10.273 -0,-14.188c0.425,-0.246 0.868,-0.476 1.325,-0.691Z" style="fill:#fff;fill-opacity:0.13;"/><path d="M90.914,68.642l0,10.617c0,0 0.292,0.358 0.459,0.533c0.529,0.553 1.2,1.073 2.013,1.542c4.667,2.695 12.246,2.695 16.913,0c0.976,-0.563 1.748,-1.2 2.316,-1.88c0.112,-0.134 0.312,-0.407 0.312,-0.407l0,-10.331c0.417,0.199 0.821,0.412 1.211,0.637c3.511,2.027 5.206,4.709 5.083,7.367c-0.046,1.007 0.106,5.506 -0.022,6.793c-0.235,2.374 -1.922,4.709 -5.061,6.521c-6.786,3.918 -17.805,3.918 -24.591,0c-3.454,-1.994 -5.15,-4.622 -5.088,-7.238c0.025,-1.05 -0.05,-5.427 0.005,-6.613c0.114,-2.48 1.808,-4.94 5.083,-6.83c0.439,-0.254 0.896,-0.491 1.367,-0.711Z" style="fill:#6A4C30;"/><path d="M90.914,68.642l0,10.617c0,0 0.292,0.358 0.459,0.533c0.529,0.553 1.2,1.073 2.013,1.542c4.667,2.695 12.246,2.695 16.913,0c0.976,-0.563 1.748,-1.2 2.316,-1.88c0.112,-0.134 0.312,-0.407 0.312,-0.407l0,-10.331c0.417,0.199 0.821,0.412 1.211,0.637c3.511,2.027 5.206,4.709 5.083,7.367c-0.046,1.007 0.106,5.506 -0.022,6.793c-0.235,2.374 -1.922,4.709 -5.061,6.521c-6.786,3.918 -17.805,3.918 -24.591,0c-3.454,-1.994 -5.15,-4.622 -5.088,-7.238c0.025,-1.05 -0.05,-5.427 0.005,-6.613c0.114,-2.48 1.808,-4.94 5.083,-6.83c0.439,-0.254 0.896,-0.491 1.367,-0.711Z" style="fill:#6A4C30;"/><path d="M90.881,68.657l0,5.03c-1.9,2.524 -1.063,5.572 2.51,7.635c4.664,2.693 12.239,2.693 16.904,-0c3.495,-2.018 4.371,-4.979 2.629,-7.47l0,-5.138c0.415,0.198 0.817,0.41 1.206,0.634c6.781,3.915 6.781,10.273 -0,14.188c-6.782,3.915 -17.793,3.915 -24.574,-0c-6.782,-3.915 -6.782,-10.273 -0,-14.188c0.425,-0.246 0.868,-0.476 1.325,-0.691Z" style="fill:#fff;fill-opacity:0.13;"/><path d="M51.845,57.167l-0,-10.972c6.449,-3.117 15.899,-3.117 22.346,0.002l-0,10.97l-0.581,0l0.021,-0.023c-0.547,-0.6 -1.257,-1.163 -2.131,-1.667c-4.683,-2.704 -12.286,-2.704 -16.968,-0c-0.874,0.504 -1.585,1.067 -2.132,1.667l0.022,0.023l-0.577,0Z" style="fill:#6a4c30;"/><path d="M51.845,46.195c6.449,-3.117 15.899,-3.117 22.346,0.002l-0,5.191c-0.585,-0.864 -1.482,-1.675 -2.691,-2.373c-4.683,-2.704 -12.286,-2.704 -16.968,-0c-1.207,0.696 -2.103,1.505 -2.687,2.368l-0,-5.188Z" style="fill:#fff;fill-opacity:0.07;"/><path d="M71.264,45.481l0,48.045l3.48,2.009l3.48,-2.009l0,-48.045l-3.48,-2.009l-3.48,2.009Z" style="fill:#6A4C30;"/><path d="M74.744,47.491l-3.48,-2.01l0,48.045l3.48,2.009l0,-48.044Z" style="fill:#fff;fill-opacity:0.08;"/><path d="M74.744,43.472l-3.48,2.009l3.48,2.01l3.48,-2.01l-3.48,-2.009Z" style="fill:#fff;fill-opacity:0.08;"/><path d="M74.744,43.472l-3.48,2.009l3.48,2.01l3.48,-2.01l-3.48,-2.009Z" style="fill:#fff;fill-opacity:0.08;"/><path d="M71.264,45.481l0,49.498l3.48,2.009l3.48,-2.009l0,-49.498l-3.48,-2.009l-3.48,2.009Z" style="fill:#6A4C30;"/><path d="M74.744,47.491l-3.48,-2.01l0,49.498l3.48,2.009l0,-49.497Z" style="fill:#fff;fill-opacity:0.08;"/><path d="M74.744,43.472l-3.48,2.009l3.48,2.01l3.48,-2.01l-3.48,-2.009Z" style="fill:#fff;fill-opacity:0.08;"/><path d="M74.744,43.472l-3.48,2.009l3.48,2.01l3.48,-2.01l-3.48,-2.009Z" style="fill:#fff;fill-opacity:0.08;"/><path d="M51.937,30.681c-1.804,-1.396 -2.715,-3.057 -2.731,-4.721c-0.006,-0.683 -0.101,-3.967 0.09,-4.935c0.342,-1.729 1.66,-3.405 3.955,-4.73c5.394,-3.114 14.151,-3.114 19.545,-0c2.554,1.474 3.899,3.385 4.033,5.319c0.054,0.776 0.019,4.213 0.008,4.492c-0.067,1.618 -0.979,3.227 -2.739,4.584l0,64.65c0,6.108 -4.958,11.066 -11.066,11.066c-6.123,0 -11.095,-4.971 -11.095,-11.095l0,-64.63Z" style="fill:#d6d6d6;fill-opacity:0.25;"/><path d="M53.246,16.295c5.393,-3.114 14.151,-3.114 19.544,-0c5.393,3.113 5.393,8.17 -0,11.284c-5.393,3.113 -14.151,3.113 -19.544,-0c-5.394,-3.114 -5.394,-8.171 -0,-11.284Z" style="fill:#fff;fill-opacity:0.25;"/><path d="M54.201,32.058c5.097,2.445 12.533,2.447 17.634,0.005l-0,62.156c-0,4.86 -3.946,8.805 -8.806,8.805c-4.872,0 -8.828,-3.955 -8.828,-8.828l-0,-62.138Z" style="fill:#fff;fill-opacity:0.25;"/><path d="M54.161,76.055c-0.242,-1.467 0.608,-2.983 2.552,-4.105c3.458,-1.996 9.071,-1.996 12.529,-0c1.944,1.122 2.795,2.638 2.552,4.105l0,18.187c0,4.86 -3.945,8.806 -8.805,8.806c-4.872,-0 -8.828,-3.956 -8.828,-8.829l-0,-18.164Z" style="fill:#25bcb2;fill-opacity:0.61;"/><path d="M56.673,72.06c3.457,-1.996 9.071,-1.996 12.528,0c3.458,1.997 3.458,5.238 0,7.234c-3.457,1.996 -9.071,1.996 -12.528,-0c-3.457,-1.996 -3.457,-5.237 0,-7.234Z" style="fill:#fff;fill-opacity:0.23;"/><path d="M56.141,17.966c3.795,-2.191 9.958,-2.191 13.754,0c3.795,2.192 3.795,5.75 -0,7.941c-3.796,2.191 -9.959,2.191 -13.754,-0c-3.795,-2.191 -3.795,-5.749 0,-7.941Z" style="fill:#d6d6d6;fill-opacity:0.25;"/><path d="M52.049,46.113l0,10.617c0,0 0.292,0.358 0.458,0.532c0.53,0.554 1.201,1.074 2.014,1.543c4.667,2.695 12.246,2.695 16.913,-0c0.976,-0.564 1.748,-1.2 2.316,-1.88c0.112,-0.134 0.312,-0.407 0.312,-0.407l-0,-10.331c0.417,0.199 0.821,0.411 1.211,0.637c3.511,2.027 5.206,4.708 5.083,7.367c-0.046,1.007 0.105,5.505 -0.022,6.793c-0.235,2.374 -1.922,4.709 -5.061,6.521c-6.786,3.918 -17.805,3.918 -24.591,0c-3.454,-1.994 -5.15,-4.622 -5.088,-7.238c0.025,-1.05 -0.05,-5.428 0.005,-6.613c0.114,-2.48 1.808,-4.94 5.083,-6.83c0.439,-0.254 0.896,-0.491 1.367,-0.711Z" style="fill:#6A4C30;"/><path d="M52.049,46.113l0,10.617c0,0 0.292,0.358 0.458,0.532c0.53,0.554 1.201,1.074 2.014,1.543c4.667,2.695 12.246,2.695 16.913,-0c0.976,-0.564 1.748,-1.2 2.316,-1.88c0.112,-0.134 0.312,-0.407 0.312,-0.407l-0,-10.331c0.417,0.199 0.821,0.411 1.211,0.637c3.511,2.027 5.206,4.708 5.083,7.367c-0.046,1.007 0.105,5.505 -0.022,6.793c-0.235,2.374 -1.922,4.709 -5.061,6.521c-6.786,3.918 -17.805,3.918 -24.591,0c-3.454,-1.994 -5.15,-4.622 -5.088,-7.238c0.025,-1.05 -0.05,-5.428 0.005,-6.613c0.114,-2.48 1.808,-4.94 5.083,-6.83c0.439,-0.254 0.896,-0.491 1.367,-0.711Z" style="fill:#6A4C30;"/><path d="M52.016,46.127l0,5.03c-1.9,2.525 -1.063,5.573 2.509,7.636c4.665,2.693 12.24,2.693 16.905,-0c3.495,-2.018 4.371,-4.979 2.629,-7.47l-0,-5.139c0.415,0.199 0.817,0.41 1.206,0.635c6.781,3.915 6.781,10.272 -0,14.188c-6.782,3.915 -17.793,3.915 -24.575,-0c-6.781,-3.916 -6.781,-10.273 0,-14.188c0.426,-0.246 0.869,-0.477 1.326,-0.692Z" style="fill:#fff;fill-opacity:0.13;"/><path d="M52.049,46.113l0,10.617c0,0 0.292,0.358 0.458,0.532c0.53,0.554 1.201,1.074 2.014,1.543c4.667,2.695 12.246,2.695 16.913,-0c0.976,-0.564 1.748,-1.2 2.316,-1.88c0.112,-0.134 0.312,-0.407 0.312,-0.407l-0,-10.331c0.417,0.199 0.821,0.411 1.211,0.637c3.511,2.027 5.206,4.708 5.083,7.367c-0.046,1.007 0.105,5.505 -0.022,6.793c-0.235,2.374 -1.922,4.709 -5.061,6.521c-6.786,3.918 -17.805,3.918 -24.591,0c-3.454,-1.994 -5.15,-4.622 -5.088,-7.238c0.025,-1.05 -0.05,-5.428 0.005,-6.613c0.114,-2.48 1.808,-4.94 5.083,-6.83c0.439,-0.254 0.896,-0.491 1.367,-0.711Z" style="fill:#6A4C30;"/><path d="M52.049,46.113l0,10.617c0,0 0.292,0.358 0.458,0.532c0.53,0.554 1.201,1.074 2.014,1.543c4.667,2.695 12.246,2.695 16.913,-0c0.976,-0.564 1.748,-1.2 2.316,-1.88c0.112,-0.134 0.312,-0.407 0.312,-0.407l-0,-10.331c0.417,0.199 0.821,0.411 1.211,0.637c3.511,2.027 5.206,4.708 5.083,7.367c-0.046,1.007 0.105,5.505 -0.022,6.793c-0.235,2.374 -1.922,4.709 -5.061,6.521c-6.786,3.918 -17.805,3.918 -24.591,0c-3.454,-1.994 -5.15,-4.622 -5.088,-7.238c0.025,-1.05 -0.05,-5.428 0.005,-6.613c0.114,-2.48 1.808,-4.94 5.083,-6.83c0.439,-0.254 0.896,-0.491 1.367,-0.711Z" style="fill:#6A4C30;"/><path d="M52.016,46.127l0,5.03c-1.9,2.525 -1.063,5.573 2.509,7.636c4.665,2.693 12.24,2.693 16.905,-0c3.495,-2.018 4.371,-4.979 2.629,-7.47l-0,-5.139c0.415,0.199 0.817,0.41 1.206,0.635c6.781,3.915 6.781,10.272 -0,14.188c-6.782,3.915 -17.793,3.915 -24.575,-0c-6.781,-3.916 -6.781,-10.273 0,-14.188c0.426,-0.246 0.869,-0.477 1.326,-0.692Z" style="fill:#fff;fill-opacity:0.13;"/><path d="M130.323,102.567l0,-10.972c6.449,-3.118 15.899,-3.117 22.346,0.002l-0,10.97l-0.581,-0l0.022,-0.023c-0.548,-0.6 -1.258,-1.163 -2.132,-1.667c-4.682,-2.704 -12.286,-2.704 -16.968,-0c-0.874,0.504 -1.584,1.067 -2.132,1.667l0.022,0.023l-0.577,-0Z" style="fill:#6a4c30;"/><path d="M130.323,91.595c6.449,-3.118 15.899,-3.117 22.346,0.002l-0,5.191c-0.584,-0.864 -1.482,-1.675 -2.691,-2.374c-4.682,-2.703 -12.286,-2.703 -16.968,0c-1.207,0.697 -2.102,1.506 -2.687,2.368l0,-5.187Z" style="fill:#fff;fill-opacity:0.07;"/><path d="M149.742,90.881l0,48.045l3.48,2.009l3.48,-2.009l0,-48.045l-3.48,-2.009l-3.48,2.009Z" style="fill:#6A4C30;"/><path d="M153.222,92.89l-3.48,-2.009l0,48.045l3.48,2.009l0,-48.045Z" style="fill:#fff;fill-opacity:0.08;"/><path d="M153.222,88.872l-3.48,2.009l3.48,2.009l3.48,-2.009l-3.48,-2.009Z" style="fill:#fff;fill-opacity:0.08;"/><path d="M153.222,88.872l-3.48,2.009l3.48,2.009l3.48,-2.009l-3.48,-2.009Z" style="fill:#fff;fill-opacity:0.08;"/><path d="M149.742,90.881l0,49.498l3.48,2.009l3.48,-2.009l0,-49.498l-3.48,-2.009l-3.48,2.009Z" style="fill:#6A4C30;"/><path d="M153.222,92.89l-3.48,-2.009l0,49.498l3.48,2.009l0,-49.498Z" style="fill:#fff;fill-opacity:0.08;"/><path d="M153.222,88.872l-3.48,2.009l3.48,2.009l3.48,-2.009l-3.48,-2.009Z" style="fill:#fff;fill-opacity:0.08;"/><path d="M153.222,88.872l-3.48,2.009l3.48,2.009l3.48,-2.009l-3.48,-2.009Z" style="fill:#fff;fill-opacity:0.08;"/><path d="M130.415,76.081c-1.804,-1.396 -2.714,-3.057 -2.73,-4.721c-0.007,-0.684 -0.102,-3.967 0.089,-4.935c0.342,-1.729 1.66,-3.406 3.955,-4.731c5.394,-3.113 14.151,-3.113 19.545,0c2.554,1.475 3.899,3.386 4.033,5.32c0.055,0.776 0.019,4.213 0.008,4.492c-0.066,1.618 -0.979,3.226 -2.738,4.584l-0,64.65c-0,6.108 -4.959,11.066 -11.067,11.066c-6.123,0 -11.095,-4.971 -11.095,-11.095l0,-64.63Z" style="fill:#d6d6d6;fill-opacity:0.25;"/><path d="M131.724,61.694c5.393,-3.113 14.151,-3.113 19.544,0c5.394,3.114 5.394,8.17 0,11.284c-5.393,3.114 -14.151,3.114 -19.544,0c-5.394,-3.114 -5.394,-8.17 -0,-11.284Z" style="fill:#fff;fill-opacity:0.25;"/><path d="M132.679,77.458c5.097,2.445 12.533,2.447 17.634,0.005l-0,62.156c-0,4.86 -3.946,8.805 -8.806,8.805c-4.872,0 -8.828,-3.956 -8.828,-8.828l0,-62.138Z" style="fill:#fff;fill-opacity:0.25;"/><path d="M134.619,63.366c3.796,-2.191 9.958,-2.191 13.754,0c3.795,2.191 3.795,5.749 -0,7.941c-3.796,2.191 -9.958,2.191 -13.754,-0c-3.795,-2.192 -3.795,-5.75 0,-7.941Z" style="fill:#d6d6d6;fill-opacity:0.25;"/><path d="M130.527,91.513l0,10.617c0,0 0.292,0.358 0.459,0.532c0.529,0.553 1.2,1.074 2.013,1.543c4.667,2.694 12.246,2.694 16.913,-0c0.976,-0.564 1.748,-1.201 2.316,-1.88c0.112,-0.134 0.312,-0.407 0.312,-0.407l0,-10.332c0.417,0.2 0.821,0.412 1.211,0.637c3.511,2.028 5.206,4.709 5.084,7.368c-0.047,1.007 0.105,5.505 -0.023,6.793c-0.235,2.374 -1.922,4.709 -5.061,6.521c-6.786,3.918 -17.805,3.918 -24.591,-0c-3.454,-1.994 -5.15,-4.622 -5.088,-7.238c0.025,-1.05 -0.05,-5.428 0.005,-6.613c0.114,-2.48 1.808,-4.94 5.083,-6.831c0.439,-0.253 0.896,-0.49 1.367,-0.71Z" style="fill:#6A4C30;"/><path d="M130.527,91.513l0,10.617c0,0 0.292,0.358 0.459,0.532c0.529,0.553 1.2,1.074 2.013,1.543c4.667,2.694 12.246,2.694 16.913,-0c0.976,-0.564 1.748,-1.201 2.316,-1.88c0.112,-0.134 0.312,-0.407 0.312,-0.407l0,-10.332c0.417,0.2 0.821,0.412 1.211,0.637c3.511,2.028 5.206,4.709 5.084,7.368c-0.047,1.007 0.105,5.505 -0.023,6.793c-0.235,2.374 -1.922,4.709 -5.061,6.521c-6.786,3.918 -17.805,3.918 -24.591,-0c-3.454,-1.994 -5.15,-4.622 -5.088,-7.238c0.025,-1.05 -0.05,-5.428 0.005,-6.613c0.114,-2.48 1.808,-4.94 5.083,-6.831c0.439,-0.253 0.896,-0.49 1.367,-0.71Z" style="fill:#6A4C30;"/><path d="M130.494,91.527l0,5.03c-1.9,2.524 -1.063,5.573 2.51,7.635c4.664,2.694 12.239,2.694 16.904,0c3.495,-2.017 4.371,-4.978 2.629,-7.469l0,-5.139c0.415,0.199 0.817,0.41 1.206,0.635c6.781,3.915 6.781,10.272 -0,14.188c-6.782,3.915 -17.793,3.915 -24.574,-0c-6.782,-3.916 -6.782,-10.273 -0,-14.188c0.425,-0.246 0.868,-0.477 1.325,-0.692Z" style="fill:#fff;fill-opacity:0.13;"/><path d="M130.527,91.513l0,10.617c0,0 0.292,0.358 0.459,0.532c0.529,0.553 1.2,1.074 2.013,1.543c4.667,2.694 12.246,2.694 16.913,-0c0.976,-0.564 1.748,-1.201 2.316,-1.88c0.112,-0.134 0.312,-0.407 0.312,-0.407l0,-10.332c0.417,0.2 0.821,0.412 1.211,0.637c3.511,2.028 5.206,4.709 5.084,7.368c-0.047,1.007 0.105,5.505 -0.023,6.793c-0.235,2.374 -1.922,4.709 -5.061,6.521c-6.786,3.918 -17.805,3.918 -24.591,-0c-3.454,-1.994 -5.15,-4.622 -5.088,-7.238c0.025,-1.05 -0.05,-5.428 0.005,-6.613c0.114,-2.48 1.808,-4.94 5.083,-6.831c0.439,-0.253 0.896,-0.49 1.367,-0.71Z" style="fill:#6A4C30;"/><path d="M130.527,91.513l0,10.617c0,0 0.292,0.358 0.459,0.532c0.529,0.553 1.2,1.074 2.013,1.543c4.667,2.694 12.246,2.694 16.913,-0c0.976,-0.564 1.748,-1.201 2.316,-1.88c0.112,-0.134 0.312,-0.407 0.312,-0.407l0,-10.332c0.417,0.2 0.821,0.412 1.211,0.637c3.511,2.028 5.206,4.709 5.084,7.368c-0.047,1.007 0.105,5.505 -0.023,6.793c-0.235,2.374 -1.922,4.709 -5.061,6.521c-6.786,3.918 -17.805,3.918 -24.591,-0c-3.454,-1.994 -5.15,-4.622 -5.088,-7.238c0.025,-1.05 -0.05,-5.428 0.005,-6.613c0.114,-2.48 1.808,-4.94 5.083,-6.831c0.439,-0.253 0.896,-0.49 1.367,-0.71Z" style="fill:#6A4C30;"/><path d="M130.494,91.527l0,5.03c-1.9,2.524 -1.063,5.573 2.51,7.635c4.664,2.694 12.239,2.694 16.904,0c3.495,-2.017 4.371,-4.978 2.629,-7.469l0,-5.139c0.415,0.199 0.817,0.41 1.206,0.635c6.781,3.915 6.781,10.272 -0,14.188c-6.782,3.915 -17.793,3.915 -24.574,-0c-6.782,-3.916 -6.782,-10.273 -0,-14.188c0.425,-0.246 0.868,-0.477 1.325,-0.692Z" style="fill:#fff;fill-opacity:0.13;"/></svg>
