<?xml version="1.0" encoding="UTF-8" standalone="no"?><!DOCTYPE svg PUBLIC "-//W3C//DTD SVG 1.1//EN" "http://www.w3.org/Graphics/SVG/1.1/DTD/svg11.dtd"><svg width="100%" height="100%" viewBox="0 0 200 200" version="1.1" xmlns="http://www.w3.org/2000/svg" xmlns:xlink="http://www.w3.org/1999/xlink" xml:space="preserve" xmlns:serif="http://www.serif.com/" style="fill-rule:evenodd;clip-rule:evenodd;stroke-linejoin:round;stroke-miterlimit:2;"><path d="M152.674,69.982c0.08,24.914 0.396,75.542 -0.029,81.756c-0.487,7.122 -5.435,14.16 -14.844,19.592c-19.845,11.458 -52.067,11.458 -71.912,0c-9.922,-5.728 -14.883,-13.243 -14.883,-20.759l-0,-61.466l23.393,-4.502c21.33,6.93 48.881,5.156 67.029,-5.321c4.806,-2.775 8.555,-5.931 11.246,-9.3Z" style="fill:#dedede;fill-opacity:0.49;"/><path d="M148.602,74.209c-0.045,13.164 0.451,69.729 -0.014,76.53c-0.45,6.577 -5.019,13.077 -13.708,18.094c-18.327,10.581 -48.084,10.581 -66.41,-0c-9.164,-5.29 -13.745,-12.231 -13.745,-19.171l-0,-61.272l19.674,-3.786c21.33,6.93 48.881,5.156 67.029,-5.322c2.734,-1.578 5.126,-3.28 7.174,-5.073Z" style="fill:#fff;fill-opacity:0.49;"/><path d="M68.519,130.184c18.393,-10.62 48.259,-10.62 66.652,-0c18.393,10.619 18.393,27.862 -0,38.481c-18.393,10.619 -48.259,10.619 -66.652,-0c-18.392,-10.619 -18.392,-27.862 0,-38.481Z" style="fill:#fff;fill-opacity:0.49;"/><path d="M49.111,67.282c-1.948,-3.165 -3.015,-6.47 -3.203,-9.789c-0.058,-1.028 -0.057,-5.09 -0.004,-6.093c0.418,-7.941 5.871,-15.809 16.358,-21.864c21.847,-12.613 57.32,-12.613 79.166,0c10.298,5.946 15.741,13.639 16.331,21.433c0.087,1.146 0.077,5.343 0.035,6.294c-0.355,7.993 -5.81,15.925 -16.366,22.019c-18.148,10.478 -45.699,12.252 -67.029,5.322l-26.481,5.096c-1.85,0.356 -3.737,-0.4 -4.83,-1.934c-0.591,-0.831 -0.89,-1.807 -0.891,-2.787c-0.001,-0.759 0.005,-3.648 -0,-4.4c-0.006,-0.839 0.208,-1.681 0.644,-2.437l6.27,-10.86Z" style="fill:#dedede;fill-opacity:0.49;"/><path d="M50.344,65.147c-1.948,-3.165 -4.251,-7.414 -4.439,-10.733c-0.058,-1.028 -0.054,-2.011 -0.001,-3.014c0.418,-7.941 5.871,-15.809 16.358,-21.864c21.847,-12.613 57.32,-12.613 79.166,0c10.298,5.946 15.741,13.639 16.331,21.433c0.087,1.146 0.055,1.388 0.013,2.34c-0.355,7.993 -5.81,15.924 -16.366,22.019c-18.148,10.477 -45.699,12.251 -67.029,5.322l-26.482,5.096c-1.849,0.356 -3.736,-0.4 -4.829,-1.935c-0.591,-0.83 -0.891,-1.807 -0.891,-2.786c-0.001,-0.76 0.027,0.306 0.022,-0.446c-0.006,-0.839 0.208,-1.681 0.644,-2.437l7.503,-12.995Zm5.699,-0.012c-9.131,-10.93 -5.849,-24.462 9.846,-33.524c19.845,-11.457 52.067,-11.457 71.912,0c19.845,11.458 19.927,30.51 -0.376,41.132c-19.864,10.392 -43.012,10.112 -63.667,4.106c-1.188,-0.345 -0.269,-0.044 -1.372,-0.546l-24.184,4.452c-0.348,0.067 -0.703,-0.076 -0.909,-0.364c-0.206,-0.289 1.086,-1.98 1.263,-2.287l7.487,-12.969Z" style="fill:#fff;fill-opacity:0.49;"/></svg>