<?xml version="1.0" encoding="UTF-8" standalone="no"?><!DOCTYPE svg PUBLIC "-//W3C//DTD SVG 1.1//EN" "http://www.w3.org/Graphics/SVG/1.1/DTD/svg11.dtd"><svg width="100%" height="100%" viewBox="0 0 200 200" version="1.1" xmlns="http://www.w3.org/2000/svg" xmlns:xlink="http://www.w3.org/1999/xlink" xml:space="preserve" xmlns:serif="http://www.serif.com/" style="fill-rule:evenodd;clip-rule:evenodd;stroke-linejoin:round;stroke-miterlimit:2;"><path d="M23.111,101.129c-0.136,0.887 -0.047,11.625 -0.018,12.326c0.034,0.794 0.628,1.624 1.757,2.276l110.195,63.622c2.125,1.226 5.344,1.36 7.184,0.297l33.466,-19.321c0.784,-0.453 1.192,-1.049 1.238,-1.68c0.062,-0.851 0.008,-12.109 0.001,-12.227c-0.047,-0.785 -0.64,-1.602 -1.755,-2.245l-110.195,-63.622c-2.125,-1.227 -5.344,-1.36 -7.184,-0.298l-33.466,19.322c-0.73,0.421 -1.134,0.967 -1.223,1.55Z" style="fill:#6A4C30;"/><path d="M64.984,80.555c-2.125,-1.227 -5.344,-1.36 -7.184,-0.298l-33.466,19.322c-1.84,1.062 -1.609,2.921 0.516,4.148l110.195,63.621c2.125,1.227 5.344,1.36 7.184,0.298l33.466,-19.322c1.84,-1.062 1.609,-2.921 -0.516,-4.147l-110.195,-63.622Z" style="fill:#fff;fill-opacity:0.08;"/><path d="M123.75,100.659c0.367,0.287 0.775,0.561 1.225,0.821c4.902,2.83 12.862,2.83 17.764,-0c0.146,-0.085 0.288,-0.171 0.426,-0.259l0,35.506c0,5.35 -4.344,9.695 -9.695,9.695c-5.364,-0 -9.72,-4.356 -9.72,-9.72l0,-36.043Z" style="fill:#e2e2e2;fill-opacity:0.31;"/><path d="M125.733,101.883c4.414,2.165 10.815,2.285 15.449,0.361l-0,33.5c-0,4.258 -3.457,7.715 -7.714,7.715c-4.269,-0 -7.735,-3.466 -7.735,-7.735l0,-33.841Z" style="fill:#e2e2e2;fill-opacity:0.31;"/><path d="M125.751,100.96c-0.212,-1.285 0.533,-2.613 2.236,-3.596c3.029,-1.749 7.947,-1.749 10.976,-0c1.703,0.983 2.449,2.311 2.237,3.596l-0,34.719c-0,4.257 -3.457,7.714 -7.715,7.714c-4.268,0 -7.734,-3.466 -7.734,-7.734l-0,-34.699Z" style="fill:#61bab0;fill-opacity:0.84;"/><path d="M127.952,97.384c3.029,-1.749 7.947,-1.749 10.976,-0c3.029,1.749 3.029,4.588 -0,6.337c-3.029,1.749 -7.947,1.749 -10.976,-0c-3.029,-1.749 -3.029,-4.588 0,-6.337Z" style="fill:#fff;fill-opacity:0.31;"/><path d="M125.733,101.91c4.414,2.165 10.815,2.285 15.449,0.361l-0,33.5c-0,4.258 -3.457,7.714 -7.714,7.714c-4.269,0 -7.735,-3.465 -7.735,-7.734l0,-33.841Z" style="fill:#e2e2e2;fill-opacity:0.31;"/><path d="M125.751,100.987c-0.212,-1.285 0.533,-2.614 2.236,-3.597c3.029,-1.749 7.947,-1.749 10.976,0c1.703,0.983 2.449,2.312 2.237,3.597l-0,34.718c-0,4.258 -3.457,7.715 -7.715,7.715c-4.268,-0 -7.734,-3.466 -7.734,-7.735l-0,-34.698Z" style="fill:#61bab0;fill-opacity:0.84;"/><path d="M127.952,97.41c3.029,-1.748 7.947,-1.748 10.976,0c3.029,1.749 3.029,4.589 -0,6.337c-3.029,1.749 -7.947,1.749 -10.976,0c-3.029,-1.748 -3.029,-4.588 0,-6.337Z" style="fill:#e2e2e2;fill-opacity:0.31;"/><path d="M134.245,118.253c-0.034,-0.726 0.428,-1.46 1.388,-2.014c1.852,-1.069 4.859,-1.069 6.712,0c0.959,0.554 1.422,1.288 1.387,2.014l0.01,0.006l0,44.899l-0.015,0.009c0.071,0.751 -0.39,1.516 -1.382,2.089c-1.853,1.07 -4.86,1.07 -6.712,0c-0.993,-0.573 -1.454,-1.338 -1.382,-2.089l-0.016,-0.009l-0,-44.899l0.01,-0.006Z" style="fill:#6A4C30;"/><path d="M135.633,116.239c1.852,-1.069 4.859,-1.069 6.712,0c1.852,1.07 1.852,2.806 -0,3.876c-1.853,1.069 -4.86,1.069 -6.712,-0c-1.853,-1.07 -1.853,-2.806 -0,-3.876Z" style="fill:#fff;fill-opacity:0.09;"/><path d="M164.514,100.778c-0.035,-0.727 0.428,-1.46 1.387,-2.014c1.853,-1.07 4.86,-1.07 6.712,-0c0.96,0.554 1.422,1.287 1.388,2.014l0.01,0.006l0,44.898l-0.016,0.01c0.072,0.751 -0.389,1.515 -1.382,2.089c-1.852,1.069 -4.859,1.069 -6.712,-0c-0.992,-0.574 -1.453,-1.338 -1.382,-2.089l-0.015,-0.01l-0,-44.898l0.01,-0.006Z" style="fill:#6A4C30;"/><path d="M165.901,98.764c1.853,-1.07 4.86,-1.07 6.712,-0c1.852,1.069 1.852,2.806 0,3.875c-1.852,1.069 -4.859,1.069 -6.712,-0c-1.852,-1.069 -1.852,-2.806 0,-3.875Z" style="fill:#fff;fill-opacity:0.09;"/><path d="M26.95,56.307c-0.034,-0.727 0.428,-1.46 1.388,-2.014c1.852,-1.07 4.86,-1.07 6.712,-0c0.959,0.554 1.422,1.287 1.387,2.014l0.011,0.006l-0,44.898l-0.016,0.01c0.071,0.75 -0.389,1.515 -1.382,2.088c-1.852,1.07 -4.86,1.07 -6.712,0c-0.993,-0.573 -1.454,-1.338 -1.382,-2.088l-0.016,-0.01l-0,-44.898l0.01,-0.006Z" style="fill:#6A4C30;"/><path d="M28.338,54.293c1.852,-1.07 4.86,-1.07 6.712,-0c1.852,1.069 1.852,2.805 -0,3.875c-1.852,1.069 -4.86,1.069 -6.712,-0c-1.852,-1.07 -1.852,-2.806 -0,-3.875Z" style="fill:#fff;fill-opacity:0.09;"/><path d="M57.219,38.831c-0.035,-0.727 0.428,-1.46 1.388,-2.014c1.852,-1.069 4.859,-1.069 6.711,0c0.96,0.554 1.423,1.287 1.388,2.014l0.01,0.006l0,44.899l-0.016,0.009c0.072,0.751 -0.389,1.516 -1.382,2.089c-1.852,1.069 -4.859,1.069 -6.711,-0c-0.993,-0.573 -1.454,-1.338 -1.382,-2.089l-0.016,-0.009l-0,-44.899l0.01,-0.006Z" style="fill:#6A4C30;"/><path d="M58.607,36.817c1.852,-1.069 4.859,-1.069 6.711,0c1.853,1.069 1.853,2.806 0,3.875c-1.852,1.07 -4.859,1.07 -6.711,0c-1.853,-1.069 -1.853,-2.806 -0,-3.875Z" style="fill:#fff;fill-opacity:0.09;"/><path d="M88.435,80.27c0.367,0.286 0.775,0.561 1.224,0.82c4.903,2.831 12.862,2.831 17.764,0c0.147,-0.084 0.289,-0.17 0.427,-0.258l-0,35.505c-0,5.351 -4.344,9.695 -9.695,9.695c-5.365,0 -9.72,-4.355 -9.72,-9.72l-0,-36.042Z" style="fill:#e2e2e2;fill-opacity:0.31;"/><path d="M90.418,81.494c4.414,2.165 10.815,2.285 15.449,0.361l-0,33.5c-0,4.258 -3.457,7.714 -7.715,7.714c-4.268,0 -7.734,-3.465 -7.734,-7.734l-0,-33.841Z" style="fill:#e2e2e2;fill-opacity:0.31;"/><path d="M90.436,107.433c-0.213,-1.285 0.533,-2.613 2.236,-3.596c3.029,-1.749 7.947,-1.749 10.976,-0c1.703,0.983 2.448,2.311 2.236,3.596l0,7.856c0,4.258 -3.456,7.715 -7.714,7.715c-4.269,-0 -7.734,-3.466 -7.734,-7.735l-0,-7.836Z" style="fill:#61bab0;fill-opacity:0.84;"/><path d="M92.637,103.83c3.029,-1.749 7.947,-1.749 10.976,0c3.028,1.749 3.028,4.588 -0,6.337c-3.029,1.749 -7.947,1.749 -10.976,0c-3.029,-1.749 -3.029,-4.588 -0,-6.337Z" style="fill:#fff;fill-opacity:0.31;"/><path d="M54.766,60.831c0.367,0.287 0.775,0.561 1.225,0.821c4.902,2.83 12.862,2.83 17.764,-0c0.146,-0.085 0.288,-0.171 0.426,-0.259l0,35.506c0,5.351 -4.344,9.695 -9.695,9.695c-5.365,-0 -9.72,-4.356 -9.72,-9.72l0,-36.043Z" style="fill:#e2e2e2;fill-opacity:0.31;"/><path d="M56.749,62.056c4.414,2.164 10.815,2.284 15.449,0.36l-0,33.5c-0,4.258 -3.457,7.715 -7.714,7.715c-4.269,-0 -7.735,-3.466 -7.735,-7.735l0,-33.84Z" style="fill:#e2e2e2;fill-opacity:0.31;"/><path d="M56.767,75.475c-0.212,-1.285 0.533,-2.613 2.236,-3.597c3.029,-1.748 7.947,-1.748 10.976,0c1.703,0.984 2.449,2.312 2.237,3.597l-0,20.376c-0,4.257 -3.457,7.714 -7.715,7.714c-4.268,0 -7.734,-3.465 -7.734,-7.734l-0,-20.356Z" style="fill:#61bab0;fill-opacity:0.84;"/><path d="M58.968,71.873c3.029,-1.748 7.947,-1.748 10.976,0c3.029,1.749 3.029,4.589 -0,6.337c-3.029,1.749 -7.947,1.749 -10.976,0c-3.029,-1.748 -3.029,-4.588 0,-6.337Z" style="fill:#fff;fill-opacity:0.31;"/><path d="M23.165,54.037c-0.136,0.886 -0.047,5.006 -0.017,5.706c0.033,0.794 0.627,1.624 1.755,2.275l110.139,63.589c2.123,1.226 5.341,1.359 7.18,0.297l33.449,-19.311c0.783,-0.452 1.19,-1.049 1.237,-1.679c0.062,-0.851 0.008,-5.489 0.001,-5.607c-0.047,-0.785 -0.64,-1.602 -1.754,-2.245l-110.138,-63.588c-2.124,-1.226 -5.342,-1.36 -7.181,-0.298l-33.448,19.312c-0.73,0.421 -1.133,0.967 -1.223,1.549Zm98.585,44.454c0.588,-1.076 1.619,-2.087 3.095,-2.939c4.902,-2.831 12.862,-2.831 17.764,-0c1.475,0.852 2.507,1.863 3.094,2.939c-0.587,1.076 -1.619,2.088 -3.094,2.94c-4.902,2.83 -12.862,2.83 -17.764,0c-1.476,-0.852 -2.507,-1.864 -3.095,-2.94Zm-35.469,-20.478c0.587,-1.076 1.619,-2.088 3.094,-2.94c4.902,-2.83 12.862,-2.83 17.764,0c1.476,0.852 2.507,1.864 3.095,2.94c-0.588,1.076 -1.619,2.088 -3.095,2.94c-4.902,2.83 -12.862,2.83 -17.764,-0c-1.475,-0.852 -2.507,-1.864 -3.094,-2.94Zm-33.37,-19.266c0.588,-1.076 1.619,-2.088 3.095,-2.939c4.902,-2.831 12.862,-2.831 17.764,-0c1.475,0.851 2.507,1.863 3.094,2.939c-0.587,1.076 -1.619,2.088 -3.094,2.94c-4.902,2.83 -12.862,2.83 -17.764,0c-1.476,-0.852 -2.507,-1.864 -3.095,-2.94Z" style="fill:#6A4C30;"/><path d="M65.017,33.474c-2.124,-1.226 -5.342,-1.36 -7.181,-0.298l-33.448,19.312c-1.84,1.062 -1.609,2.919 0.515,4.145l110.139,63.589c2.123,1.226 5.341,1.359 7.18,0.297l33.449,-19.311c1.839,-1.062 1.608,-2.92 -0.516,-4.146l-110.138,-63.588Zm56.733,65.017c0.588,-1.076 1.619,-2.087 3.095,-2.939c4.902,-2.831 12.862,-2.831 17.764,-0c1.475,0.852 2.507,1.863 3.094,2.939c-0.587,1.076 -1.619,2.088 -3.094,2.94c-4.902,2.83 -12.862,2.83 -17.764,0c-1.476,-0.852 -2.507,-1.864 -3.095,-2.94Zm-35.469,-20.478c0.587,-1.076 1.619,-2.088 3.094,-2.94c4.902,-2.83 12.862,-2.83 17.764,0c1.476,0.852 2.507,1.864 3.095,2.94c-0.588,1.076 -1.619,2.088 -3.095,2.94c-4.902,2.83 -12.862,2.83 -17.764,-0c-1.475,-0.852 -2.507,-1.864 -3.094,-2.94Zm-33.37,-19.266c0.588,-1.076 1.619,-2.088 3.095,-2.939c4.902,-2.831 12.862,-2.831 17.764,-0c1.475,0.851 2.507,1.863 3.094,2.939c-0.587,1.076 -1.619,2.088 -3.094,2.94c-4.902,2.83 -12.862,2.83 -17.764,0c-1.476,-0.852 -2.507,-1.864 -3.095,-2.94Z" style="fill:#fff;fill-opacity:0.08;"/><path d="M52.911,58.747c-1.363,-2.497 -0.332,-5.338 3.095,-7.316c4.902,-2.83 12.862,-2.83 17.764,-0c3.426,1.978 4.458,4.819 3.094,7.316c-0.587,-1.076 -1.619,-2.088 -3.094,-2.939c-4.902,-2.831 -12.862,-2.831 -17.764,-0c-1.476,0.851 -2.507,1.863 -3.095,2.939Z" style="fill:#6a4c30;"/><path d="M86.281,78.013c-1.364,-2.497 -0.333,-5.338 3.094,-7.316c4.902,-2.831 12.862,-2.831 17.764,-0c3.427,1.978 4.458,4.819 3.095,7.316c-0.588,-1.076 -1.619,-2.088 -3.095,-2.94c-4.902,-2.83 -12.862,-2.83 -17.764,0c-1.475,0.852 -2.507,1.864 -3.094,2.94Z" style="fill:#6a4c30;"/><path d="M121.75,98.491c-1.363,-2.497 -0.332,-5.338 3.095,-7.316c4.902,-2.83 12.862,-2.83 17.764,0c3.426,1.978 4.458,4.819 3.094,7.316c-0.587,-1.076 -1.619,-2.087 -3.094,-2.939c-4.902,-2.831 -12.862,-2.831 -17.764,-0c-1.476,0.852 -2.507,1.863 -3.095,2.939Z" style="fill:#6a4c30;"/><path d="M125.733,101.908l0,-20.596c4.466,2.142 10.981,2.144 15.449,0.005l-0,20.933c-4.629,1.93 -11.03,1.816 -15.449,-0.342Z" style="fill:#fff;fill-opacity:0.31;"/><path d="M123.75,100.69l0,-20.584c-1.581,-1.223 -2.378,-2.678 -2.392,-4.136c-0.006,-0.599 -0.089,-3.475 0.078,-4.323c0.3,-1.515 1.455,-2.984 3.465,-4.145c4.725,-2.728 12.398,-2.728 17.123,0c2.238,1.292 3.416,2.966 3.534,4.66c0.047,0.68 0.016,3.691 0.006,3.936c-0.058,1.417 -0.858,2.827 -2.399,4.016l0,21.109c-0.144,0.092 -0.293,0.182 -0.447,0.271c-4.902,2.831 -12.862,2.831 -17.764,0c-0.441,-0.254 -0.842,-0.523 -1.204,-0.804Z" style="fill:#e2e2e2;fill-opacity:0.31;"/><path d="M124.896,67.502c4.725,-2.728 12.398,-2.728 17.123,0c4.725,2.728 4.725,7.158 -0,9.886c-4.725,2.728 -12.398,2.728 -17.123,-0c-4.725,-2.728 -4.725,-7.158 0,-9.886Z" style="fill:#fff;fill-opacity:0.31;"/><path d="M127.433,68.94c3.325,-1.92 8.724,-1.92 12.049,0c3.325,1.92 3.325,5.037 0,6.957c-3.325,1.92 -8.724,1.92 -12.049,-0c-3.325,-1.92 -3.325,-5.037 -0,-6.957Z" style="fill:#e2e2e2;fill-opacity:0.31;"/><path d="M88.435,80.274l-0,-20.584c-1.581,-1.223 -2.379,-2.678 -2.393,-4.136c-0.005,-0.599 -0.089,-3.475 0.079,-4.323c0.299,-1.515 1.454,-2.984 3.465,-4.145c4.725,-2.728 12.397,-2.728 17.123,0c2.237,1.292 3.415,2.966 3.533,4.66c0.048,0.68 0.017,3.691 0.007,3.936c-0.058,1.418 -0.858,2.827 -2.399,4.016l-0,21.109c-0.144,0.092 -0.293,0.183 -0.447,0.271c-4.902,2.831 -12.862,2.831 -17.764,0c-0.441,-0.254 -0.843,-0.523 -1.204,-0.804Z" style="fill:#e2e2e2;fill-opacity:0.31;"/><path d="M90.418,81.492l-0,-20.596c4.465,2.143 10.98,2.144 15.449,0.005l-0,20.933c-4.629,1.93 -11.03,1.816 -15.449,-0.342Z" style="fill:#fff;fill-opacity:0.31;"/><path d="M89.581,47.086c4.725,-2.728 12.397,-2.728 17.123,0c4.725,2.728 4.725,7.158 -0,9.886c-4.726,2.728 -12.398,2.728 -17.123,-0c-4.725,-2.728 -4.725,-7.158 -0,-9.886Z" style="fill:#fff;fill-opacity:0.31;"/><path d="M92.118,48.551c3.325,-1.92 8.724,-1.92 12.049,-0c3.325,1.919 3.325,5.037 -0,6.956c-3.325,1.92 -8.724,1.92 -12.049,0c-3.326,-1.919 -3.326,-5.037 -0,-6.956Z" style="fill:#e2e2e2;fill-opacity:0.31;"/><path d="M54.766,60.835l0,-20.583c-1.581,-1.224 -2.378,-2.679 -2.392,-4.136c-0.006,-0.599 -0.089,-3.476 0.078,-4.324c0.3,-1.515 1.455,-2.984 3.465,-4.144c4.725,-2.728 12.398,-2.728 17.123,-0c2.238,1.292 3.416,2.966 3.534,4.66c0.047,0.679 0.016,3.691 0.006,3.935c-0.058,1.418 -0.858,2.827 -2.399,4.016l0,21.109c-0.144,0.092 -0.293,0.183 -0.447,0.272c-4.902,2.83 -12.862,2.83 -17.764,-0c-0.441,-0.255 -0.842,-0.524 -1.204,-0.805Z" style="fill:#e2e2e2;fill-opacity:0.31;"/><path d="M56.749,62.054l0,-20.596c4.466,2.142 10.981,2.144 15.449,0.005l-0,20.933c-4.629,1.93 -11.03,1.816 -15.449,-0.342Z" style="fill:#fff;fill-opacity:0.31;"/><path d="M55.912,27.648c4.725,-2.728 12.398,-2.728 17.123,-0c4.725,2.728 4.725,7.157 -0,9.885c-4.725,2.728 -12.398,2.728 -17.123,0c-4.725,-2.728 -4.725,-7.157 0,-9.885Z" style="fill:#fff;fill-opacity:0.31;"/><path d="M58.449,29.112c3.325,-1.92 8.724,-1.92 12.049,0c3.325,1.92 3.325,5.037 0,6.957c-3.325,1.92 -8.724,1.92 -12.049,-0c-3.325,-1.92 -3.325,-5.037 -0,-6.957Z" style="fill:#e2e2e2;fill-opacity:0.31;"/></svg>
