<?xml version="1.0" encoding="UTF-8" standalone="no"?><!DOCTYPE svg PUBLIC "-//W3C//DTD SVG 1.1//EN" "http://www.w3.org/Graphics/SVG/1.1/DTD/svg11.dtd"><svg width="100%" height="100%" viewBox="0 0 200 200" version="1.1" xmlns="http://www.w3.org/2000/svg" xmlns:xlink="http://www.w3.org/1999/xlink" xml:space="preserve" xmlns:serif="http://www.serif.com/" style="fill-rule:evenodd;clip-rule:evenodd;stroke-linejoin:round;stroke-miterlimit:2;"><path d="M66.251,67.93l-3.493,2.02l-0,4.162l3.493,-6.182Z"/><g><path d="M66.251,67.93l-3.493,2.02l-0,4.162l3.493,-6.182Z" style="fill:#8a8a8a;fill-opacity:0.27;"/><path d="M66.251,67.93l-3.493,2.02l-0,4.162l3.493,-6.182Z" style="fill:#8a8a8a;fill-opacity:0.33;"/></g><path d="M176.352,131.559l-3.494,2.02l0,4.161l3.494,-6.181Z"/><path d="M176.352,131.559l-3.494,2.02l0,4.161l3.494,-6.181Z" style="fill:#8a8a8a;fill-opacity:0.27;"/><path d="M176.352,131.559l-3.494,2.02l0,4.161l3.494,-6.181Z" style="fill:#8a8a8a;fill-opacity:0.27;"/><path d="M176.352,131.559l-3.494,2.02l0,4.161l3.494,-6.181Z"/><g><path d="M176.352,131.559l-3.494,2.02l0,4.161l3.494,-6.181Z" style="fill:#8a8a8a;fill-opacity:0.27;"/><path d="M176.352,131.559l-3.494,2.02l0,4.161l3.494,-6.181Z" style="fill:#8a8a8a;fill-opacity:0.33;"/></g><path d="M132.738,154.248l-0,4.901l9.934,5.736l8.489,-4.901l-0,-4.9l-9.935,-5.736l-8.488,4.9Z"/><path d="M132.738,154.248l-0,4.901l9.934,5.736l8.489,-4.901l-0,-4.9l-8.489,4.9l-9.934,-5.736Z" style="fill:#8a8a8a;fill-opacity:0.24;"/><path d="M132.738,154.248l-0,4.901l9.934,5.736l0,-4.901l-9.934,-5.736Z" style="fill:#8a8a8a;fill-opacity:0.24;"/><path d="M122.993,184.479l2.115,-1.221c1.59,-3.038 3.939,-5.737 6.557,-7.248l36.269,-20.94c2.618,-1.511 4.966,-1.525 6.556,-0.323l2.115,-1.22c-0,-0.362 -0.017,-0.709 -0.049,-1.043l0.049,-0.002c-0,-5.526 -7.295,-8.693 -12.081,-5.93l-10.281,5.936l-0,-9.667l0.012,-0.042l-3.422,-1.962l-8.887,5.131l-0,13.639l-13.691,7.905c-4.786,2.763 -8.671,9.493 -8.671,15.019l3.409,1.968Z"/><path d="M122.993,184.479c0,-5.526 3.886,-12.255 8.672,-15.018l13.691,-7.905l-0,-13.639l8.887,-5.131l-0,0.035l0.012,-0.042l-3.422,-1.962l-8.887,5.131l-0,13.639l-13.691,7.905c-4.786,2.763 -8.671,9.493 -8.671,15.019l3.409,1.968Zm31.25,-31.991l-0,3.937l13.691,-7.905c4.473,-2.582 8.159,-0.791 8.622,3.964l0.049,-0.002c-0,-5.526 -7.295,-8.693 -12.081,-5.93l-10.281,5.936Z" style="fill:#8a8a8a;fill-opacity:0.29;"/><path d="M141.946,159.587l3.41,1.969l-0,-13.639l-3.41,-1.969l-0,13.639Z" style="fill:#8a8a8a;fill-opacity:0.29;"/><path d="M21.276,125.753l2.115,-1.221c1.59,-3.039 3.939,-5.737 6.556,-7.248l36.27,-20.941c2.618,-1.511 4.966,-1.524 6.556,-0.322l2.115,-1.221c-0,-0.361 -0.017,-0.709 -0.049,-1.042l0.049,-0.003c-0,-5.526 -7.295,-8.693 -12.081,-5.93l-10.281,5.936l-0,-9.666l0.012,-0.043l-3.422,-1.961l-8.887,5.131l-0,13.639l-13.692,7.904c-4.785,2.763 -8.671,9.493 -8.671,15.019l3.41,1.969Z"/><path d="M21.276,125.753c0,-5.526 3.886,-12.256 8.671,-15.019l13.691,-7.904l0,-13.639l8.888,-5.131l-0,0.035l0.012,-0.043l-3.422,-1.961l-8.887,5.131l-0,13.639l-13.692,7.904c-4.785,2.763 -8.671,9.493 -8.671,15.019l3.41,1.969Zm31.25,-31.992l-0,3.938l13.691,-7.905c4.472,-2.582 8.159,-0.792 8.622,3.964l0.049,-0.003c-0,-5.526 -7.295,-8.693 -12.081,-5.93l-10.281,5.936Z" style="fill:#8a8a8a;fill-opacity:0.29;"/><path d="M40.229,100.861l3.409,1.969l0,-13.639l-3.409,-1.969l-0,13.639Z" style="fill:#8a8a8a;fill-opacity:0.29;"/><g><path d="M62.773,17.54l-8.819,47.39l8.819,5.091l3.497,-2.019l8.819,-47.39l-8.819,-5.091l-3.497,2.019Z"/><path d="M62.773,17.54l8.819,5.091l-8.819,47.39l3.497,-2.019l8.819,-47.39l-8.819,-5.091l-3.497,2.019Z" style="fill:#8a8a8a;fill-opacity:0.29;"/><path d="M75.089,20.612l-3.497,2.019l-8.819,47.39l3.497,-2.019l8.819,-47.39Z" style="fill:#8a8a8a;fill-opacity:0.29;"/></g><g><path d="M14.826,87.514l0,4.163l8.828,5.097l39.122,-22.588l0,-4.163l-8.827,-5.096l-39.123,22.587Z"/><g><path d="M62.776,70.023l-39.122,22.587l-8.828,-5.096l0,4.163l8.828,5.097l39.122,-22.588l0,-4.163Z" style="fill:#8a8a8a;fill-opacity:0.29;"/><path d="M62.776,70.023l-39.122,22.587l-0,4.164l39.122,-22.588l0,-4.163Z" style="fill:#8a8a8a;fill-opacity:0.29;"/></g></g><g><path d="M65.243,56.401l-2.232,12.706l102.892,59.405l0.001,-0.005l0.033,0.025l3.193,-1.883l2.233,-12.706l-102.893,-59.405l-3.227,1.863Z" style="fill:#725835;"/><path d="M65.243,56.401l102.893,59.405l-2.232,12.701l0.033,0.025l3.193,-1.883l2.233,-12.706l-102.893,-59.405l-3.227,1.863Z" style="fill:#8a8a8a;fill-opacity:0.26;"/><path d="M171.363,113.943l-3.227,1.863l-2.232,12.701l0.033,0.025l3.193,-1.883l2.233,-12.706Z" style="fill:#8a8a8a;fill-opacity:0.26;"/></g><g><path d="M68.342,40.47l-2.233,12.705l102.893,59.405l0.001,-0.004l0.033,0.024l3.193,-1.883l2.232,-12.705l-102.892,-59.405l-3.227,1.863Z" style="fill:#725835;"/><path d="M68.342,40.47l102.892,59.405l-2.231,12.701l0.033,0.024l3.193,-1.883l2.232,-12.705l-102.892,-59.405l-3.227,1.863Z" style="fill:#8a8a8a;fill-opacity:0.26;"/><path d="M174.461,98.012l-3.227,1.863l-2.231,12.701l0.033,0.024l3.193,-1.883l2.232,-12.705Z" style="fill:#8a8a8a;fill-opacity:0.26;"/></g><g><path d="M71.29,24.451l-2.233,12.706l102.893,59.405l0,-0.005l0.034,0.024l3.192,-1.882l2.233,-12.706l-102.892,-59.405l-3.227,1.863Z" style="fill:#725835;"/><path d="M71.29,24.451l102.892,59.405l-2.232,12.701l0.034,0.024l3.192,-1.882l2.233,-12.706l-102.892,-59.405l-3.227,1.863Z" style="fill:#8a8a8a;fill-opacity:0.26;"/><path d="M177.409,81.993l-3.227,1.863l-2.232,12.701l0.034,0.024l3.192,-1.882l2.233,-12.706Z" style="fill:#8a8a8a;fill-opacity:0.26;"/></g><path d="M52.348,80.184l102.676,59.28l10.441,-6.027l-0,-4.127l-102.677,-59.28l-10.44,6.028l-0,4.126Z" style="fill:#725835;"/><path d="M155.024,135.338l-102.676,-59.28l-0,4.126l102.676,59.28l10.441,-6.027l-0,-4.127l-10.441,6.028Z" style="fill:#8a8a8a;fill-opacity:0.27;"/><path d="M155.024,135.338l0,4.126l10.441,-6.027l-0,-4.127l-10.441,6.028Z" style="fill:#8a8a8a;fill-opacity:0.38;"/><g><path d="M38.334,88.275l102.676,59.28l10.441,-6.027l-0,-4.127l-102.677,-59.28l-10.44,6.028l-0,4.126Z" style="fill:#725835;"/><path d="M141.01,143.429l-102.676,-59.28l-0,4.126l102.676,59.28l10.441,-6.027l-0,-4.127l-10.441,6.028Z" style="fill:#8a8a8a;fill-opacity:0.27;"/><path d="M141.01,143.429l0,4.126l10.441,-6.027l-0,-4.127l-10.441,6.028Z" style="fill:#949494;fill-opacity:0.38;"/></g><g><path d="M24.32,96.366l102.676,59.28l10.441,-6.028l-0,-4.126l-102.677,-59.28l-10.44,6.028l-0,4.126Z" style="fill:#725835;"/><path d="M126.996,151.52l-102.676,-59.28l-0,4.126l102.676,59.28l10.441,-6.028l-0,-4.126l-10.441,6.028Z" style="fill:#8a8a8a;fill-opacity:0.27;"/><path d="M126.996,151.52l0,4.126l10.441,-6.028l-0,-4.126l-10.441,6.028Z" style="fill:#8a8a8a;fill-opacity:0.38;"/></g><g><path d="M124.908,151.07l0,4.163l8.828,5.096l39.122,-22.587l0,-4.163l-8.827,-5.097l-39.123,22.588Z"/><g><path d="M172.858,133.579l-39.122,22.587l-8.828,-5.096l0,4.163l8.828,5.096l39.122,-22.587l0,-4.163Z" style="fill:#8a8a8a;fill-opacity:0.29;"/><path d="M172.858,133.579l-39.122,22.587l-0,4.163l39.122,-22.587l0,-4.163Z" style="fill:#8a8a8a;fill-opacity:0.29;"/></g></g><path d="M172.858,81.097l-8.819,47.39l8.819,5.092l3.497,-2.019l8.819,-47.39l-8.819,-5.092l-3.497,2.019Z"/><path d="M172.858,81.097l8.819,5.092l-8.819,47.39l3.497,-2.019l8.819,-47.39l-8.819,-5.092l-3.497,2.019Z" style="fill:#8a8a8a;fill-opacity:0.29;"/><path d="M185.174,84.17l-3.497,2.019l-8.819,47.39l3.497,-2.019l8.819,-47.39Z" style="fill:#8a8a8a;fill-opacity:0.29;"/><path d="M173.087,131.823l-8.731,-5.04l-1.922,2.665l8.73,5.04l1.923,-2.665Z"/><path d="M63.074,68.307l-8.806,-5.084l-1.923,2.665l8.806,5.084l1.923,-2.665Z"/></svg>
