<?xml version="1.0" encoding="UTF-8" standalone="no"?><!DOCTYPE svg PUBLIC "-//W3C//DTD SVG 1.1//EN" "http://www.w3.org/Graphics/SVG/1.1/DTD/svg11.dtd"><svg width="100%" height="100%" viewBox="0 0 200 200" version="1.1" xmlns="http://www.w3.org/2000/svg" xmlns:xlink="http://www.w3.org/1999/xlink" xml:space="preserve" xmlns:serif="http://www.serif.com/" style="fill-rule:evenodd;clip-rule:evenodd;stroke-linejoin:round;stroke-miterlimit:2;"><g><g><g><path d="M139.415,145.226l0,4.732l9.52,5.539l8.134,-4.732l0,-4.733l-9.52,-5.539l-8.134,4.733Z"/><path d="M139.415,145.226l0,4.732l9.52,5.539l8.134,-4.732l0,-4.733l-8.134,4.733l-9.52,-5.539Z" style="fill:#8d8d8d;fill-opacity:0.24;"/><path d="M139.415,145.226l0,4.732l9.52,5.539l0,-4.732l-9.52,-5.539Z" style="fill:#8d8d8d;fill-opacity:0.24;"/></g><g><path d="M130.078,174.419l2.026,-1.179c1.524,-2.935 3.774,-5.54 6.283,-7l34.755,-20.221c2.508,-1.46 4.759,-1.473 6.283,-0.312l2.026,-1.179c-0,-0.349 -0.016,-0.684 -0.047,-1.006l0.047,-0.003c-0,-5.336 -6.991,-8.394 -11.577,-5.726l-9.852,5.732l0,-9.334l0.012,-0.041l-3.279,-1.895l-8.516,4.955l-0,13.171l-13.12,7.633c-4.586,2.668 -8.309,9.167 -8.309,14.503l3.268,1.902Z"/><path d="M130.078,174.419c-0,-5.337 3.723,-11.835 8.309,-14.504l13.119,-7.633l0,-13.17l8.516,-4.955l0,0.034l0.012,-0.041l-3.279,-1.895l-8.516,4.955l-0,13.171l-13.12,7.633c-4.586,2.668 -8.309,9.167 -8.309,14.503l3.268,1.902Zm29.944,-30.894l0,3.802l13.12,-7.633c4.286,-2.494 7.818,-0.765 8.262,3.828l0.047,-0.003c-0,-5.336 -6.991,-8.394 -11.577,-5.726l-9.852,5.732Z" style="fill:#8a8a8a;fill-opacity:0.29;"/><path d="M148.239,150.381l3.267,1.901l0,-13.17l-3.267,-1.902l-0,13.171Z" style="fill:#8a8a8a;fill-opacity:0.29;"/></g><g><path d="M32.608,117.708l2.026,-1.179c1.524,-2.934 3.774,-5.54 6.283,-6.999l34.755,-20.222c2.508,-1.459 4.759,-1.472 6.283,-0.311l2.026,-1.179c-0,-0.349 -0.016,-0.684 -0.047,-1.006l0.047,-0.003c-0,-5.336 -6.991,-8.395 -11.577,-5.726l-9.852,5.732l0,-9.335l0.012,-0.041l-3.279,-1.894l-8.516,4.955l-0,13.171l-13.12,7.633c-4.585,2.668 -8.309,9.167 -8.309,14.503l3.268,1.901Z"/><path d="M32.608,117.708c-0,-5.336 3.723,-11.835 8.309,-14.503l13.119,-7.633l0,-13.171l8.516,-4.955l0,0.034l0.012,-0.041l-3.279,-1.894l-8.516,4.955l-0,13.171l-13.12,7.633c-4.585,2.668 -8.309,9.167 -8.309,14.503l3.268,1.901Zm29.944,-30.893l0,3.802l13.12,-7.633c4.286,-2.494 7.818,-0.765 8.262,3.828l0.047,-0.003c-0,-5.336 -6.991,-8.395 -11.577,-5.726l-9.852,5.732Z" style="fill:#8a8a8a;fill-opacity:0.29;"/><path d="M50.769,93.671l3.267,1.901l0,-13.171l-3.267,-1.901l-0,13.171Z" style="fill:#8a8a8a;fill-opacity:0.29;"/></g><g><path d="M26.427,80.782l0,4.02l8.459,4.922l37.489,-21.812l0,-4.021l-8.459,-4.921l-37.489,21.812Z"/><g><path d="M72.375,63.891l-37.489,21.812l-8.459,-4.921l0,4.02l8.459,4.922l37.489,-21.812l0,-4.021Z" style="fill:#858585;fill-opacity:0.29;"/><path d="M72.375,63.891l-37.489,21.812l0,4.021l37.489,-21.812l0,-4.021Z" style="fill:#858585;fill-opacity:0.29;"/></g></g><path d="M62.382,73.704l98.389,57.245l10.005,-5.821l-0,-3.985l-98.39,-57.245l-10.004,5.821l-0,3.985Z" style="fill:#725835;"/><path d="M160.771,126.964l-98.389,-57.245l-0,3.985l98.389,57.245l10.005,-5.821l-0,-3.985l-10.005,5.821Z" style="fill:#8d8d8d;fill-opacity:0.27;"/><path d="M160.771,126.964l0,3.985l10.005,-5.821l-0,-3.985l-10.005,5.821Z" style="fill:#949494;fill-opacity:0.38;"/><g><path d="M48.953,81.517l98.389,57.245l10.005,-5.821l-0,-3.985l-98.389,-57.245l-10.005,5.821l0,3.985Z" style="fill:#725835;"/><path d="M147.342,134.777l-98.389,-57.245l0,3.985l98.389,57.245l10.005,-5.821l-0,-3.985l-10.005,5.821Z" style="fill:#8d8d8d;fill-opacity:0.27;"/><path d="M147.342,134.777l0,3.985l10.005,-5.821l-0,-3.985l-10.005,5.821Z" style="fill:#949494;fill-opacity:0.38;"/></g><g><path d="M35.524,89.33l98.39,57.245l10.004,-5.821l-0,-3.984l-98.389,-57.246l-10.005,5.821l0,3.985Z" style="fill:#725835;"/><path d="M133.914,142.591l-98.39,-57.246l0,3.985l98.39,57.245l10.004,-5.821l-0,-3.984l-10.004,5.821Z" style="fill:#8d8d8d;fill-opacity:0.27;"/><path d="M133.914,142.591l-0,3.984l10.004,-5.821l-0,-3.984l-10.004,5.821Z" style="fill:#949494;fill-opacity:0.38;"/></g><g><path d="M131.913,142.156l-0,4.02l8.458,4.922l37.489,-21.812l0,-4.021l-8.458,-4.921l-37.489,21.812Z"/><g><path d="M177.86,125.265l-37.489,21.812l-8.458,-4.921l-0,4.02l8.458,4.922l37.489,-21.812l0,-4.021Z" style="fill:#858585;fill-opacity:0.29;"/><path d="M177.86,125.265l-37.489,21.812l0,4.021l37.489,-21.812l0,-4.021Z" style="fill:#858585;fill-opacity:0.29;"/></g></g></g><g><path d="M18.549,39.925l7.925,45.289l10.046,5.573l5.298,2.982l-1.973,-4.582l-7.924,-45.29l-10.1,-5.876l-3.272,1.904Z"/><path d="M18.549,39.925l10.1,5.876l7.871,44.986l3.325,-1.6l-7.924,-45.29l-10.1,-5.876l-3.272,1.904Z" style="fill:#8c8c8c;fill-opacity:0.34;"/><path d="M31.921,43.897l-3.272,1.904l7.871,44.986l5.289,2.985l-1.964,-4.585l-7.924,-45.29Z" style="fill:#8c8c8c;fill-opacity:0.34;"/></g><g><path d="M28.98,47.105c0,0 2.118,12.104 2.118,12.104l90.6,52.714c-0,-0 3.258,-1.896 3.258,-1.896l-2.118,-12.104l-90.6,-52.713l-3.258,1.895Z" style="fill:#725835;"/><path d="M28.98,47.105l90.6,52.714l2.118,12.104l3.258,-1.896l-2.118,-12.104l-90.6,-52.713l-3.258,1.895Z" style="fill:#a3a3a3;fill-opacity:0.28;"/></g><g><path d="M34.204,77.611c0,-0 2.118,12.104 2.118,12.104l90.6,52.713c0,0 3.258,-1.895 3.258,-1.895l-2.118,-12.104l-90.6,-52.713l-3.258,1.895Z" style="fill:#725835;"/><path d="M34.204,77.611l90.6,52.713l2.118,12.104l3.258,-1.895l-2.118,-12.104l-90.6,-52.713l-3.258,1.895Z" style="fill:#a3a3a3;fill-opacity:0.28;"/></g><g><path d="M31.503,62.524c-0,-0 2.118,12.104 2.118,12.104l90.6,52.713c-0,0 3.257,-1.895 3.257,-1.895l-2.118,-12.104l-90.6,-52.713l-3.257,1.895Z" style="fill:#725835;"/><path d="M31.503,62.524l90.6,52.713l2.118,12.104l3.257,-1.895l-2.118,-12.104l-90.6,-52.713l-3.257,1.895Z" style="fill:#a3a3a3;fill-opacity:0.28;"/></g><g><path d="M119.107,98.055l7.924,45.289l10.1,5.877l-0.053,-0.304l0.053,0.15l3.272,-1.75l-7.925,-45.289l-10.099,-5.877l-3.272,1.904Z"/><path d="M119.107,98.055l10.1,5.876l7.871,44.986l0.053,0.15l3.272,-1.75l-7.925,-45.289l-10.099,-5.877l-3.272,1.904Z" style="fill:#8c8c8c;fill-opacity:0.34;"/><path d="M132.478,102.028l-3.271,1.903l7.911,45.256l3.23,1.835l0.055,-3.705l-7.925,-45.289Z" style="fill:#8c8c8c;fill-opacity:0.34;"/></g></g></svg>