<?xml version="1.0" encoding="UTF-8" standalone="no"?><!DOCTYPE svg PUBLIC "-//W3C//DTD SVG 1.1//EN" "http://www.w3.org/Graphics/SVG/1.1/DTD/svg11.dtd"><svg width="100%" height="100%" viewBox="0 0 200 200" version="1.1" xmlns="http://www.w3.org/2000/svg" xmlns:xlink="http://www.w3.org/1999/xlink" xml:space="preserve" xmlns:serif="http://www.serif.com/" style="fill-rule:evenodd;clip-rule:evenodd;stroke-linejoin:round;stroke-miterlimit:2;"><path d="M100.043,33.34l-3.5,-1.855l-73.714,26.76l0,87.209l3.501,1.856l73.713,-26.76l0,-87.21Z" style="fill:#001b35;"/><path d="M100.043,123.689l0,-90.349c0,0 -23.15,15.227 -34.624,19.776c-11.474,4.549 -34.22,7.518 -34.22,7.518l-0,87.209l7.347,4.113c0,0 22.884,-4.469 33.134,-9.181c9.534,-4.382 28.363,-19.086 28.363,-19.086Z" style="fill:#ebebeb;"/><path d="M22.829,145.454l3.501,1.856l-0,-87.21l-3.501,-1.855l0,87.209Z" style="fill:#f0f0f0;fill-opacity:0.15;"/><path d="M96.551,31.489l6.906,-0.002l73.714,26.76l-0,87.21l-3.501,1.855l-73.713,-26.76l-3.406,-89.063Z" style="fill:#001b35;"/><path d="M177.171,145.457l-3.501,1.855l0,-87.209l-73.713,-26.761l3.5,-1.855l73.714,26.76l-0,87.21Z" style="fill:#f0f0f0;fill-opacity:0.15;"/><path d="M177.171,145.457l-3.501,1.855l0,-87.209l3.501,-1.856l-0,87.21Z" style="fill:#f0f0f0;fill-opacity:0.15;"/><path d="M99.957,33.342c-0,0 23.15,15.227 34.624,19.776c11.474,4.549 34.22,7.518 34.22,7.518l0,87.21c0,-0 -25.618,-4.108 -37.092,-8.657c-10.674,-4.231 -31.752,-18.637 -31.752,-18.637l-0,-87.21Z" style="fill:#001b35;"/><path d="M99.957,36.482c-0,-0 20.679,15.554 30.928,20.265c10.25,4.712 30.569,8.002 30.569,8.002l-0,87.21c-0,-0 -22.884,-4.47 -33.134,-9.181c-9.534,-4.383 -28.363,-19.086 -28.363,-19.086l-0,-87.21Z" style="fill:#001b35;"/><path d="M99.957,123.692l-0,-90.297l0.043,-0.024c-0,-0 23.395,15.313 34.581,19.747c11.474,4.549 34.22,7.518 34.22,7.518l0,87.21l-7.347,4.113c-0,-0 -22.884,-4.47 -33.134,-9.181c-9.534,-4.383 -28.363,-19.086 -28.363,-19.086Z" style="fill:#ebebeb;"/><path d="M100.043,33.399c1.552,1.017 23.473,15.333 34.538,19.719c11.474,4.549 34.22,7.518 34.22,7.518l0,87.21l-7.347,4.113c-0,-0 -22.884,-4.47 -33.134,-9.181c-9.273,-4.263 -27.339,-18.288 -28.322,-19.054c-1.017,0.792 -19.055,14.793 -28.318,19.051c-10.25,4.712 -33.134,9.181 -33.134,9.181l-7.347,-4.113l-0,-87.209c-0,-0 22.746,-2.969 34.22,-7.518c11.065,-4.387 32.986,-18.702 34.538,-19.719l0.041,-0.027l0.045,0.029Z" style="fill:#ebebeb;"/><path d="M31.199,147.843l7.347,4.113l0,-87.209c0,-0 20.319,-3.291 30.569,-8.002c10.249,-4.711 30.842,-20.216 30.842,-20.216l-0,-3.139c-0,-0 -23.064,15.177 -34.538,19.726c-11.474,4.549 -34.22,7.518 -34.22,7.518l-0,87.209Z" style="fill:#cacaca;fill-opacity:0.24;"/><path d="M31.199,147.843l7.347,4.113l0,-87.209l-7.347,-4.113l-0,87.209Z" style="fill:#cacaca;fill-opacity:0.24;"/><path d="M168.801,147.846l-7.347,4.113l-0,-87.21c-0,0 -20.319,-3.29 -30.569,-8.002c-10.249,-4.711 -30.928,-20.265 -30.928,-20.265l-0,-3.085l0.043,-0.026c-0,-0 23.395,15.313 34.581,19.747c11.474,4.549 34.22,7.518 34.22,7.518l0,87.21Z" style="fill:#cacaca;fill-opacity:0.24;"/><path d="M168.801,147.846l-7.347,4.113l-0,-87.21l7.347,-4.113l0,87.21Z" style="fill:#cacaca;fill-opacity:0.24;"/><path d="M22.829,145.454l3.501,1.856l-0,-87.21l73.713,-26.76l3.382,-1.849l-6.882,-0.006l-73.714,26.76l0,87.209Z" style="fill:#f0f0f0;fill-opacity:0.15;"/><path d="M31.804,148.193l0.488,0.274l-0,-87.21l-0.488,-0.273l-0,87.209Z" style="fill:#848484;fill-opacity:0.24;"/><path d="M32.997,148.861l0.687,0.385l-0,-87.21l-0.687,-0.384l-0,87.209Z" style="fill:#848484;fill-opacity:0.24;"/><path d="M34.473,149.688l0.241,0.135l0,-87.21l-0.241,-0.135l0,87.21Z" style="fill:#848484;fill-opacity:0.24;"/><path d="M37.455,151.357l0.241,0.135l-0,-87.21l-0.241,-0.135l-0,87.21Z" style="fill:#848484;fill-opacity:0.24;"/><path d="M35.666,150.344l0.488,0.273l0,-87.209l-0.488,-0.273l0,87.209Z" style="fill:#848484;fill-opacity:0.24;"/><path d="M168.33,148.121l-0.488,0.273l0,-87.21l0.488,-0.273l0,87.21Z" style="fill:#848484;fill-opacity:0.24;"/><path d="M167.137,148.789l-0.687,0.384l0,-87.209l0.687,-0.385l0,87.21Z" style="fill:#848484;fill-opacity:0.24;"/><path d="M165.661,149.615l-0.241,0.135l-0,-87.209l0.241,-0.135l-0,87.209Z" style="fill:#848484;fill-opacity:0.24;"/><path d="M162.68,151.284l-0.241,0.135l-0,-87.21l0.241,-0.134l-0,87.209Z" style="fill:#848484;fill-opacity:0.24;"/><path d="M164.468,150.272l-0.488,0.273l-0,-87.21l0.488,-0.273l-0,87.21Z" style="fill:#848484;fill-opacity:0.24;"/><path d="M31.804,60.984l0.488,0.281c-0,0 25.903,-3.625 36.153,-8.336c10.249,-4.712 31.512,-19.025 31.512,-19.025l-0,-0.445c-0,0 -21.939,15.381 -33.414,19.93c-11.474,4.549 -34.739,7.595 -34.739,7.595Z" style="fill:#818181;fill-opacity:0.24;"/><path d="M33.007,61.647l0.677,0.381c-0,0 25.566,-3.802 35.816,-8.513c10.249,-4.711 30.457,-19.162 30.457,-19.162l-0,-0.218c-0,0 -20.885,15.291 -32.359,19.84c-11.474,4.549 -34.591,7.672 -34.591,7.672Z" style="fill:#818181;fill-opacity:0.24;"/><path d="M35.661,63.134l0.512,0.283c0,0 24.36,-4.228 34.61,-8.939c10.249,-4.711 29.174,-19.301 29.174,-19.301l-0,-0.218c-0,0 -19.602,15.43 -31.076,19.979c-11.474,4.549 -33.22,8.196 -33.22,8.196Z" style="fill:#818181;fill-opacity:0.24;"/><path d="M37.45,64.13l0.258,0.145c-0,-0 22.379,-4.063 32.628,-8.774c10.25,-4.711 29.621,-19.639 29.621,-19.639l-0,-0.218c-0,-0 -20.048,15.768 -31.522,20.317c-11.474,4.549 -30.985,8.169 -30.985,8.169Z" style="fill:#818181;fill-opacity:0.24;"/><path d="M34.481,62.47l0.242,0.137c0,0 22.098,-3.316 35.287,-8.674c9.179,-3.73 29.947,-19.239 29.947,-19.239l-0,-0.176c-0,0 -19.994,15.35 -31.468,19.899c-11.474,4.549 -34.008,8.053 -34.008,8.053Z" style="fill:#818181;fill-opacity:0.24;"/><path d="M168.329,60.904l-0.488,0.281c-0,0 -25.904,-3.625 -36.153,-8.336c-10.25,-4.711 -31.512,-19.025 -31.512,-19.025l-0,-0.444c-0,-0 21.939,15.38 33.413,19.929c11.474,4.549 34.74,7.595 34.74,7.595Z" style="fill:#818181;fill-opacity:0.24;"/><path d="M167.126,61.567l-0.677,0.381c-0,0 -25.567,-3.801 -35.816,-8.512c-10.25,-4.712 -30.457,-19.163 -30.457,-19.163l-0,-0.218c-0,0 20.884,15.292 32.358,19.841c11.474,4.549 34.592,7.671 34.592,7.671Z" style="fill:#818181;fill-opacity:0.24;"/><path d="M164.471,63.055l-0.511,0.282c-0,0 -24.36,-4.228 -34.61,-8.939c-10.25,-4.711 -29.174,-19.301 -29.174,-19.301l-0,-0.218c-0,0 19.601,15.43 31.075,19.979c11.475,4.549 33.22,8.197 33.22,8.197Z" style="fill:#818181;fill-opacity:0.24;"/><path d="M162.683,64.05l-0.258,0.145c0,0 -22.379,-4.063 -32.629,-8.774c-10.249,-4.711 -29.62,-19.639 -29.62,-19.639l-0,-0.218c-0,0 20.048,15.768 31.522,20.317c11.474,4.549 30.985,8.169 30.985,8.169Z" style="fill:#818181;fill-opacity:0.24;"/><path d="M165.652,62.391l-0.242,0.136c-0,0 -22.099,-3.316 -35.288,-8.674c-9.179,-3.729 -29.946,-19.239 -29.946,-19.239l-0,-0.176c-0,0 19.993,15.35 31.467,19.899c11.474,4.549 34.009,8.054 34.009,8.054Z" style="fill:#818181;fill-opacity:0.24;"/><path d="M99.957,34.469c-0,-0 18.156,18.728 27.155,24.918c8.999,6.191 26.839,12.224 26.839,12.224l0,89.945c0,-0 -20.092,-7.583 -29.091,-13.773c-8.371,-5.759 -24.903,-23.369 -24.903,-23.369l-0,-89.945Z" style="fill:#ebebeb;"/><path d="M99.957,34.469c-0,-0 14.66,20.323 21.926,27.304c7.266,6.98 21.671,14.58 21.671,14.58l-0,89.945c-0,0 -16.223,-9.347 -23.49,-16.328c-6.759,-6.494 -20.107,-25.556 -20.107,-25.556l-0,-89.945Z" style="fill:#ebebeb;"/><path d="M99.957,34.469c-0,-0 10.524,22.421 15.741,30.441c5.216,8.021 15.558,17.682 15.558,17.682l-0,89.945c-0,-0 -11.647,-11.669 -16.864,-19.69c-4.852,-7.46 -14.435,-28.433 -14.435,-28.433l-0,-89.945Z" style="fill:#ebebeb;"/><path d="M99.957,34.469c-0,-0 18.156,18.728 27.155,24.918c8.999,6.191 26.839,12.224 26.839,12.224l0,89.945c0,-0 -20.092,-7.583 -29.091,-13.773c-8.371,-5.759 -24.903,-23.369 -24.903,-23.369l-0,-89.945Z" style="fill:#ebebeb;"/><path d="M99.957,34.469c-0,-0 10.524,22.421 15.741,30.441c5.216,8.021 15.558,17.682 15.558,17.682l-0,89.945c-0,-0 -11.647,-11.669 -16.864,-19.69c-4.852,-7.46 -14.435,-28.433 -14.435,-28.433l-0,-89.945Z" style="fill:#ebebeb;"/><path d="M99.957,34.469c-0,-0 0.987,25.01 1.476,34.315c0.49,9.304 1.46,21.51 1.46,21.51l-0,89.945c-0,-0 -1.093,-14.535 -1.582,-23.839c-0.455,-8.655 -1.354,-31.986 -1.354,-31.986l-0,-89.945Z" style="fill:#ebebeb;"/><path d="M99.957,34.469c-0,-0 -18.157,18.728 -27.156,24.918c-8.999,6.191 -26.839,12.224 -26.839,12.224l-0,89.945c-0,-0 20.092,-7.583 29.091,-13.773c8.371,-5.759 24.904,-23.369 24.904,-23.369l-0,-89.945Z" style="fill:#ebebeb;"/><path d="M99.957,34.469c-0,-0 -10.525,22.421 -15.742,30.441c-5.216,8.021 -15.558,17.682 -15.558,17.682l0,89.945c0,-0 11.647,-11.669 16.864,-19.69c4.852,-7.46 14.436,-28.433 14.436,-28.433l-0,-89.945Z" style="fill:#ebebeb;"/><path d="M99.957,34.469c-0,-0 18.156,18.728 27.155,24.918c8.999,6.191 26.839,12.224 26.839,12.224l0,89.945c0,-0 -20.092,-7.583 -29.091,-13.773c-8.371,-5.759 -24.903,-23.369 -24.903,-23.369l-0,-89.945Z" style="fill:#7c7c7c;fill-opacity:0.06;"/><path d="M99.957,34.469c-0,-0 14.66,20.323 21.926,27.304c7.266,6.98 21.671,14.58 21.671,14.58l-0,89.945c-0,0 -16.223,-9.347 -23.49,-16.328c-6.759,-6.494 -20.107,-25.556 -20.107,-25.556l-0,-89.945Z" style="fill:#ebebeb;"/><path d="M99.957,34.469c-0,-0 10.524,22.421 15.741,30.441c5.216,8.021 15.558,17.682 15.558,17.682l-0,89.945c-0,-0 -11.647,-11.669 -16.864,-19.69c-4.852,-7.46 -14.435,-28.433 -14.435,-28.433l-0,-89.945Z" style="fill:#7c7c7c;fill-opacity:0.06;"/><path d="M99.957,34.469c-0,-0 5.063,23.735 7.572,32.407c2.51,8.672 7.484,19.625 7.484,19.625l0,89.945c0,-0 -5.603,-13.124 -8.112,-21.796c-2.334,-8.067 -6.944,-30.236 -6.944,-30.236l-0,-89.945Z" style="fill:#ebebeb;"/><path d="M99.957,34.469c-0,-0 0.987,25.01 1.476,34.315c0.49,9.304 1.46,21.51 1.46,21.51l-0,89.945c-0,-0 -1.093,-14.535 -1.582,-23.839c-0.455,-8.655 -1.354,-31.986 -1.354,-31.986l-0,-89.945Z" style="fill:#7c7c7c;fill-opacity:0.06;"/><path d="M99.957,34.469c-0,-0 -18.157,18.728 -27.156,24.918c-8.999,6.191 -26.839,12.224 -26.839,12.224l-0,89.945c-0,-0 20.092,-7.583 29.091,-13.773c8.371,-5.759 24.904,-23.369 24.904,-23.369l-0,-89.945Z" style="fill:#7c7c7c;fill-opacity:0.06;"/><path d="M99.957,34.469c-0,-0 -14.661,20.323 -21.927,27.304c-7.266,6.98 -21.671,14.58 -21.671,14.58l0,89.945c0,0 16.224,-9.347 23.49,-16.328c6.759,-6.494 20.108,-25.556 20.108,-25.556l-0,-89.945Z" style="fill:#ebebeb;"/><path d="M99.957,34.469c-0,-0 -10.525,22.421 -15.742,30.441c-5.216,8.021 -15.558,17.682 -15.558,17.682l0,89.945c0,-0 11.647,-11.669 16.864,-19.69c4.852,-7.46 14.436,-28.433 14.436,-28.433l-0,-89.945Z" style="fill:#7c7c7c;fill-opacity:0.06;"/><path d="M99.957,34.469c-0,-0 -5.149,23.751 -7.701,32.431c-2.552,8.68 -7.611,19.649 -7.611,19.649l-0,89.945c-0,-0 5.698,-13.141 8.25,-21.821c2.373,-8.075 7.062,-30.259 7.062,-30.259l-0,-89.945Z" style="fill:#ebebeb;"/></svg>