<?xml version="1.0" encoding="UTF-8" standalone="no"?><!DOCTYPE svg PUBLIC "-//W3C//DTD SVG 1.1//EN" "http://www.w3.org/Graphics/SVG/1.1/DTD/svg11.dtd"><svg width="100%" height="100%" viewBox="0 0 200 200" version="1.1" xmlns="http://www.w3.org/2000/svg" xmlns:xlink="http://www.w3.org/1999/xlink" xml:space="preserve" xmlns:serif="http://www.serif.com/" style="fill-rule:evenodd;clip-rule:evenodd;stroke-linejoin:round;stroke-miterlimit:2;"><path d="M80.323,10.829l-18.757,9.233l-18.204,125.069l76.315,44.06l18.757,-9.234l18.204,-125.068l-76.315,-44.06Z" style="fill:#001b35;"/><path d="M61.591,20.048l3.03,-1.491l76.348,44.079l-3.03,1.491l-76.348,-44.079Z" style="fill:#e4e4e4;fill-opacity:0.14;"/><path d="M64.615,18.555l12.713,-6.256l73.665,42.53l-12.712,6.257l-73.666,-42.531Z" style="fill:#efefef;"/><path d="M66.16,17.808l0.664,-0.327l73.665,42.531l-0.664,0.326l-73.665,-42.53Z" style="fill:#6e6e6e;fill-opacity:0.14;"/><path d="M68.851,16.469l0.903,-0.445l73.672,42.535l-0.904,0.444l-73.671,-42.534Z" style="fill:#6e6e6e;fill-opacity:0.14;"/><path d="M73.407,14.239l0.664,-0.327l73.665,42.531l-0.664,0.326l-73.665,-42.53Z" style="fill:#6e6e6e;fill-opacity:0.14;"/><path d="M75.272,13.306l0.903,-0.445l73.672,42.535l-0.904,0.444l-73.671,-42.534Z" style="fill:#6e6e6e;fill-opacity:0.14;"/><path d="M71.652,15.096l0.244,-0.12l73.675,42.536l-0.244,0.12l-73.675,-42.536Z" style="fill:#6e6e6e;fill-opacity:0.14;"/><path d="M138.283,61.086l12.71,-6.256l2.671,1.542l-12.711,6.255l-2.67,-1.541Z" style="fill:#e4e4e4;fill-opacity:0.14;"/><path d="M137.933,64.132l18.705,-9.243l-18.197,125.064l-18.753,9.235l18.245,-125.056Z" style="fill:#efefef;fill-opacity:0.21;"/><path d="M77.305,12.278l2.985,-1.469l76.348,44.08l-2.985,1.469l-76.348,-44.08Z" style="fill:#e4e4e4;fill-opacity:0.14;"/></svg>