<?xml version="1.0" encoding="UTF-8" standalone="no"?><!DOCTYPE svg PUBLIC "-//W3C//DTD SVG 1.1//EN" "http://www.w3.org/Graphics/SVG/1.1/DTD/svg11.dtd"><svg width="100%" height="100%" viewBox="0 0 200 200" version="1.1" xmlns="http://www.w3.org/2000/svg" xmlns:xlink="http://www.w3.org/1999/xlink" xml:space="preserve" xmlns:serif="http://www.serif.com/" style="fill-rule:evenodd;clip-rule:evenodd;stroke-linejoin:round;stroke-miterlimit:2;"><path d="M100.043,40.381l-3.466,-1.895l-72.987,27.328l0,89.057l3.466,1.895l72.987,-27.327l0,-89.058Z" style="fill:#001b35;"/><path d="M100.043,132.645l0,-92.264c0,0 -22.922,15.55 -34.283,20.195c-11.361,4.645 -33.883,7.677 -33.883,7.677l0,89.058l7.275,4.2c0,0 22.659,-4.564 32.807,-9.375c9.44,-4.476 28.084,-19.491 28.084,-19.491Z" style="fill:#ebebeb;"/><path d="M23.59,154.871l3.466,1.895l0,-89.058l-3.466,-1.894l0,89.057Z" style="fill:#f0f0f0;fill-opacity:0.15;"/><path d="M96.585,38.491l6.838,-0.002l72.987,27.327l-0,89.058l-3.466,1.895l-72.987,-27.328l-3.372,-90.95Z" style="fill:#001b35;"/><path d="M176.41,154.874l-3.466,1.895l-0,-89.058l-72.987,-27.327l3.466,-1.895l72.987,27.327l-0,89.058Z" style="fill:#f0f0f0;fill-opacity:0.15;"/><path d="M176.41,154.874l-3.466,1.895l-0,-89.058l3.466,-1.895l-0,89.058Z" style="fill:#f0f0f0;fill-opacity:0.15;"/><path d="M99.957,40.384c-0,-0 22.922,15.549 34.283,20.194c11.361,4.646 33.883,7.678 33.883,7.678l-0,89.058c-0,-0 -25.366,-4.195 -36.727,-8.84c-10.568,-4.322 -31.439,-19.033 -31.439,-19.033l-0,-89.057Z" style="fill:#001b35;"/><path d="M99.957,43.589c-0,0 20.475,15.884 30.624,20.695c10.148,4.811 30.267,8.172 30.267,8.172l-0,89.058c-0,-0 -22.659,-4.565 -32.807,-9.376c-9.44,-4.475 -28.084,-19.491 -28.084,-19.491l-0,-89.058Z" style="fill:#001b35;"/><path d="M99.957,132.647l-0,-92.21l0.043,-0.024c-0,-0 23.165,15.637 34.24,20.165c11.361,4.646 33.883,7.678 33.883,7.678l-0,89.058l-7.275,4.2c-0,-0 -22.659,-4.565 -32.807,-9.376c-9.44,-4.475 -28.084,-19.491 -28.084,-19.491Z" style="fill:#ebebeb;"/><path d="M100.043,40.442c1.536,1.038 23.241,15.657 34.197,20.136c11.361,4.646 33.883,7.678 33.883,7.678l-0,89.058l-7.275,4.2c-0,-0 -22.659,-4.565 -32.807,-9.376c-9.182,-4.353 -27.069,-18.676 -28.043,-19.457c-1.007,0.808 -18.867,15.106 -28.039,19.455c-10.148,4.811 -32.807,9.375 -32.807,9.375l-7.275,-4.2l0,-89.058c0,0 22.522,-3.032 33.883,-7.677c10.956,-4.48 32.661,-19.099 34.197,-20.137l0.041,-0.028l0.045,0.031Z" style="fill:#ebebeb;"/><path d="M31.877,157.311l7.275,4.2l0,-89.058c0,0 20.119,-3.36 30.267,-8.171c10.149,-4.811 30.538,-20.644 30.538,-20.644l-0,-3.206c-0,-0 -22.836,15.499 -34.197,20.144c-11.361,4.645 -33.883,7.677 -33.883,7.677l0,89.058Z" style="fill:#cacaca;fill-opacity:0.24;"/><path d="M31.877,157.311l7.275,4.2l0,-89.058l-7.275,-4.2l0,89.058Z" style="fill:#cacaca;fill-opacity:0.24;"/><path d="M99.957,132.647l-0,-92.21l0.043,-0.024c-0,-0 23.165,15.637 34.24,20.165c11.361,4.646 33.883,7.678 33.883,7.678l-0,89.058l-7.275,4.2c-0,-0 -22.659,-4.565 -32.807,-9.376c-9.44,-4.475 -28.084,-19.491 -28.084,-19.491Z" style="fill:#dbdbdb;fill-opacity:0.32;"/><path d="M168.123,157.314l-7.275,4.2l-0,-89.058c-0,-0 -20.119,-3.361 -30.267,-8.172c-10.149,-4.811 -30.624,-20.695 -30.624,-20.695l-0,-3.15l0.043,-0.026c0,-0 23.165,15.637 34.24,20.165c11.361,4.646 33.883,7.678 33.883,7.678l-0,89.058Z" style="fill:#cacaca;fill-opacity:0.24;"/><path d="M168.123,157.314l-7.275,4.2l-0,-89.058l7.275,-4.2l-0,89.058Z" style="fill:#cacaca;fill-opacity:0.24;"/><path d="M23.59,154.871l3.466,1.895l0,-89.058l72.987,-27.327l3.349,-1.888l-6.815,-0.007l-72.987,27.328l0,89.057Z" style="fill:#f0f0f0;fill-opacity:0.15;"/><path d="M32.476,157.669l0.483,0.279l0,-89.058l-0.483,-0.279l0,89.058Z" style="fill:#848484;fill-opacity:0.24;"/><path d="M33.657,158.351l0.681,0.392l-0,-89.058l-0.681,-0.392l0,89.058Z" style="fill:#848484;fill-opacity:0.24;"/><path d="M35.119,159.195l0.239,0.137l-0,-89.058l-0.239,-0.137l0,89.058Z" style="fill:#848484;fill-opacity:0.24;"/><path d="M38.071,160.899l0.239,0.138l-0,-89.058l-0.239,-0.138l0,89.058Z" style="fill:#848484;fill-opacity:0.24;"/><path d="M36.301,159.865l0.483,0.279l-0,-89.058l-0.483,-0.279l-0,89.058Z" style="fill:#848484;fill-opacity:0.24;"/><path d="M167.657,157.594l-0.484,0.279l0,-89.057l0.484,-0.279l-0,89.057Z" style="fill:#848484;fill-opacity:0.24;"/><path d="M166.475,158.276l-0.68,0.393l0,-89.058l0.68,-0.392l0,89.057Z" style="fill:#848484;fill-opacity:0.24;"/><path d="M165.013,159.121l-0.238,0.137l-0,-89.058l0.238,-0.137l0,89.058Z" style="fill:#848484;fill-opacity:0.24;"/><path d="M162.062,160.825l-0.239,0.138l-0,-89.058l0.239,-0.138l-0,89.058Z" style="fill:#848484;fill-opacity:0.24;"/><path d="M163.832,159.791l-0.483,0.279l-0,-89.058l0.483,-0.279l0,89.058Z" style="fill:#848484;fill-opacity:0.24;"/><path d="M32.476,68.611l0.483,0.287c0,-0 25.648,-3.702 35.797,-8.513c10.148,-4.811 31.201,-19.428 31.201,-19.428l-0,-0.454c-0,-0 -21.723,15.706 -33.084,20.352c-11.361,4.645 -34.397,7.756 -34.397,7.756Z" style="fill:#818181;fill-opacity:0.24;"/><path d="M33.667,69.288l0.671,0.389c-0,0 25.314,-3.882 35.462,-8.693c10.149,-4.811 30.157,-19.569 30.157,-19.569l-0,-0.222c-0,-0 -20.678,15.615 -32.039,20.261c-11.361,4.645 -34.251,7.834 -34.251,7.834Z" style="fill:#818181;fill-opacity:0.24;"/><path d="M36.296,70.807l0.506,0.288c0,0 24.12,-4.317 34.269,-9.128c10.148,-4.811 28.886,-19.71 28.886,-19.71l-0,-0.223c-0,0 -19.408,15.757 -30.769,20.403c-11.361,4.645 -32.892,8.37 -32.892,8.37Z" style="fill:#818181;fill-opacity:0.24;"/><path d="M38.066,71.823l0.256,0.148c-0,0 22.158,-4.149 32.307,-8.96c10.148,-4.811 29.328,-20.055 29.328,-20.055l-0,-0.222c-0,-0 -19.85,16.102 -31.211,20.747c-11.361,4.646 -30.68,8.342 -30.68,8.342Z" style="fill:#818181;fill-opacity:0.24;"/><path d="M35.127,70.129l0.24,0.139c-0,0 21.88,-3.386 34.939,-8.858c9.088,-3.808 29.651,-19.646 29.651,-19.646l-0,-0.18c-0,0 -19.796,15.675 -31.157,20.321c-11.361,4.645 -33.673,8.224 -33.673,8.224Z" style="fill:#818181;fill-opacity:0.24;"/><path d="M167.655,68.529l-0.483,0.288c-0,-0 -25.648,-3.703 -35.797,-8.514c-10.148,-4.811 -31.201,-19.427 -31.201,-19.427l0,-0.454c0,-0 21.723,15.706 33.084,20.351c11.361,4.646 34.397,7.756 34.397,7.756Z" style="fill:#818181;fill-opacity:0.24;"/><path d="M166.464,69.206l-0.67,0.39c-0,-0 -25.315,-3.882 -35.463,-8.694c-10.149,-4.811 -30.157,-19.568 -30.157,-19.568l0,-0.222c0,-0 20.679,15.615 32.04,20.26c11.361,4.646 34.25,7.834 34.25,7.834Z" style="fill:#818181;fill-opacity:0.24;"/><path d="M163.835,70.725l-0.506,0.289c-0,0 -24.12,-4.317 -34.268,-9.128c-10.149,-4.812 -28.887,-19.711 -28.887,-19.711l0,-0.222c0,0 19.408,15.757 30.769,20.402c11.361,4.646 32.892,8.37 32.892,8.37Z" style="fill:#818181;fill-opacity:0.24;"/><path d="M162.065,71.742l-0.255,0.148c-0,0 -22.159,-4.149 -32.307,-8.96c-10.149,-4.811 -29.329,-20.055 -29.329,-20.055l0,-0.223c0,0 19.85,16.102 31.211,20.748c11.361,4.645 30.68,8.342 30.68,8.342Z" style="fill:#818181;fill-opacity:0.24;"/><path d="M165.005,70.048l-0.24,0.139c-0,-0 -21.881,-3.387 -34.94,-8.858c-9.088,-3.809 -29.651,-19.647 -29.651,-19.647l0,-0.179c0,-0 19.796,15.675 31.157,20.32c11.361,4.645 33.674,8.225 33.674,8.225Z" style="fill:#818181;fill-opacity:0.24;"/></svg>