<?xml version="1.0" encoding="UTF-8" standalone="no"?><!DOCTYPE svg PUBLIC "-//W3C//DTD SVG 1.1//EN" "http://www.w3.org/Graphics/SVG/1.1/DTD/svg11.dtd"><svg width="100%" height="100%" viewBox="0 0 200 200" version="1.1" xmlns="http://www.w3.org/2000/svg" xmlns:xlink="http://www.w3.org/1999/xlink" xml:space="preserve" xmlns:serif="http://www.serif.com/" style="fill-rule:evenodd;clip-rule:evenodd;stroke-linejoin:round;stroke-miterlimit:2;"><path d="M184.471,103.867l-67.686,39.078l0,10.973l67.686,-39.078l-0,-10.973Z" style="fill:#f5f5f5;"/><path d="M187.539,93.8l0,-0.001c0,0 0.023,4.686 -0.001,5.68c-0.04,1.656 -1.065,3.232 -3.113,4.414l-67.639,39.051l0,10.974l67.639,-39.051l0.046,-0.066l-0,-9.456c2.018,1.51 3.055,3.277 3.068,4.971c0,0.017 0.001,0.034 0,0.051l0.001,-0c-0,-0 0.025,5.027 -0.002,6.088c-0.04,1.656 -1.065,3.231 -3.113,4.413l-67.639,39.051l0,0.01l-4.881,2.818l-0,-22.61l4.881,-2.818l0,-0.002l67.639,-39.051c2.069,-1.195 3.094,-2.791 3.114,-4.466Z" style="fill:#99b7bd;"/><path id="highlights" d="M187.539,93.8l0,-0.001c0,0 0.023,4.686 -0.001,5.68c-0.04,1.656 -1.065,3.232 -3.113,4.414l-67.639,39.051l0,10.974l67.639,-39.051l0.046,-0.066l-0,-9.456c2.018,1.51 3.055,3.277 3.068,4.971c0,0.017 0.001,0.034 0,0.051l0.001,-0c-0,-0 0.025,5.027 -0.002,6.088c-0.04,1.656 -1.065,3.231 -3.113,4.413l-67.639,39.051l0,0.01l-4.881,2.818l-0,-22.61l4.881,-2.818l0,-0.002l67.639,-39.051c2.069,-1.195 3.094,-2.791 3.114,-4.466Z" style="fill:#7d7d7d;fill-opacity:0.2;"/><path d="M84.985,40.854l-72.522,41.871l99.44,57.412l72.522,-41.871c4.614,-2.664 4.035,-7.324 -1.293,-10.4l-80.134,-46.265c-5.327,-3.076 -13.399,-3.411 -18.013,-0.747Z" style="fill:#99b7bd;"/><path d="M111.905,140.138l-99.438,-57.411l-0,22.61l99.438,57.41l-0,-22.609Z" style="fill:#99b7bd;"/><g id="shadows"><path d="M111.905,140.138l-99.438,-57.411l-0,22.61l99.438,57.41l-0,-22.609Z" style="fill:#7d7d7d;fill-opacity:0.2;"/><path d="M18.383,79.307l-0.72,0.42l99.347,57.447l0.813,-0.455l-99.44,-57.412Z" style="fill:#7d7d7d;fill-opacity:0.2;"/><path d="M184.471,103.867l-67.686,39.078l0,0.233l67.686,-39.078l-0,-0.233Z" style="fill:#7d7d7d;fill-opacity:0.2;"/><path d="M184.471,105.443l-67.685,39.078l-0,0.265l67.685,-39.078l-0,-0.265Z" style="fill:#7d7d7d;fill-opacity:0.2;"/><path d="M184.471,107.278l-67.686,39.078l0,0.243l67.686,-39.078l-0,-0.243Z" style="fill:#7d7d7d;fill-opacity:0.2;"/><path d="M184.471,109.055l-67.686,39.078l0,0.243l67.686,-39.078l-0,-0.243Z" style="fill:#7d7d7d;fill-opacity:0.2;"/><path d="M184.471,113.165l-67.686,39.078l0,0.243l67.686,-39.078l-0,-0.243Z" style="fill:#7d7d7d;fill-opacity:0.2;"/><path d="M184.471,111.146l-67.686,39.078l0,0.243l67.686,-39.078l-0,-0.243Z" style="fill:#7d7d7d;fill-opacity:0.2;"/></g><path d="M184.471,105.345c4.036,3.02 4.146,7.07 -0,9.495l-0,-9.495Z" style="fill:#99b7bd;"/></svg>
