<?xml version="1.0" encoding="UTF-8" standalone="no"?><!DOCTYPE svg PUBLIC "-//W3C//DTD SVG 1.1//EN" "http://www.w3.org/Graphics/SVG/1.1/DTD/svg11.dtd"><svg width="100%" height="100%" viewBox="0 0 200 200" version="1.1" xmlns="http://www.w3.org/2000/svg" xmlns:xlink="http://www.w3.org/1999/xlink" xml:space="preserve" xmlns:serif="http://www.serif.com/" style="fill-rule:evenodd;clip-rule:evenodd;stroke-linejoin:round;stroke-miterlimit:2;"><path d="M178.702,117.588l-0,-10.36l-3.715,2.145l0,5.969l-68.371,39.475l-87.237,-50.367l0,-4.394c-1.99,1.168 -2.948,2.731 -2.912,4.362l0.102,0.828l0.309,0.919l0.541,0.95l0.573,0.723l0.79,0.773l0.953,0.739l0.812,0.52l0.123,0.072l76.43,44.127l0.971,0.513l0.522,0.243l0.519,0.219l0.802,0.301c0.211,0.074 0.425,0.145 0.64,0.212c0.845,0.262 1.718,0.47 2.603,0.623l1.263,0.18c1.289,0.145 2.583,0.174 3.831,0.086c0.582,-0.042 1.155,-0.109 1.711,-0.202l0.359,-0.064l1.145,-0.262l0.901,-0.276c0.499,-0.172 0.975,-0.371 1.423,-0.596l0.491,-0.265l64.421,-37.193Z" style="fill:#9dbbc5;"/><path d="M83.952,46.589l-0,-0l-64.515,37.248c-4.401,2.54 -3.848,6.985 1.233,9.919l76.43,44.127c5.082,2.934 12.78,3.253 17.181,0.712l64.424,-37.195l0.006,0.003l4.891,-2.824l-94.85,-54.761l-4.8,2.771Z" style="fill:#9dbbc5;"/><path d="M83.952,46.589l-0,-0l-64.515,37.248c-4.401,2.54 -3.848,6.985 1.233,9.919l76.43,44.127c5.082,2.934 12.78,3.253 17.181,0.712l64.424,-37.195l0.006,0.003l4.891,-2.824l-94.85,-54.761l-4.8,2.771Z" style="fill:#9dbbc5;"/><path d="M178.702,107.228l-0,10.25l-3.715,-2.144l0,0.008l-68.371,39.475l-87.237,-50.367l0,-4.394c-1.99,1.168 -2.948,2.731 -2.912,4.362c0,0 0.006,0.275 0,0c-0.004,0.185 -0.082,4.101 0.005,5.752c0.098,1.887 1.518,3.854 4.198,5.401l76.43,44.127c5.082,2.934 12.78,3.253 17.181,0.712l64.515,-37.247l0,-0.003l4.806,-2.775l-0,-21.806l-4.855,2.803l-0.006,-0.003l-64.46,37.216l-0.598,0.318l-0.44,0.203c-0.097,0.042 -0.195,0.083 -0.294,0.123c-0.256,0.103 -0.519,0.199 -0.789,0.287c-0.066,0.022 -0.132,0.043 -0.199,0.063l-0.875,0.241l-0.648,0.142c-0.661,0.13 -1.346,0.222 -2.046,0.277c-0.166,0.013 -0.333,0.024 -0.501,0.033l-0.781,0.026c-0.284,0.004 -0.57,0.002 -0.858,-0.006l-0.61,-0.025l-1.309,-0.113l-0.589,-0.077c-0.688,-0.099 -1.373,-0.232 -2.045,-0.398l-1.159,-0.323c-0.499,-0.155 -0.989,-0.329 -1.465,-0.523l-0.391,-0.165l-0.977,-0.463l-0.607,-0.332l-76.43,-44.127c-2.756,-1.591 -4.18,-3.627 -4.203,-5.563l-0.001,-0.001c0,0 -0.031,4.87 0.002,5.907c0.061,1.912 1.483,3.914 4.202,5.484l76.43,44.126c5.082,2.934 12.78,3.253 17.181,0.712l64.421,-37.193Z" style="fill:#9dbbc5;"/><path d="M106.616,154.817l0.308,-0.179l68.063,-39.296l0,-5.969l-60.706,35.048c-1.966,1.136 -4.592,1.7 -7.348,1.715c-3.315,-0.033 -7.111,-0.855 -9.833,-2.427l-76.43,-44.126c-0.469,-0.271 -0.899,-0.555 -1.291,-0.849l0,5.716l87.237,50.367Z" style="fill:#f3f3f3;"/><g><path d="M174.987,109.373l-60.706,35.048c-2.042,1.179 -4.794,1.743 -7.665,1.714l-0,8.682l68.371,-39.475l0,-5.969Z" style="fill:#7d7d7d;fill-opacity:0.27;"/><path d="M83.112,47.074l0.749,-0.433l94.85,54.762l-0.749,0.432l-94.85,-54.761Z" style="fill:#7d7d7d;fill-opacity:0.27;"/><path d="M178.702,107.228l-0,10.36l-64.421,37.193c-4.401,2.541 -12.099,2.221 -17.181,-0.712l-76.43,-44.127c-2.738,-1.581 -4.161,-3.6 -4.203,-5.524c-0.004,0.185 -0.082,4.101 0.005,5.752c0.098,1.887 1.518,3.854 4.198,5.401l76.43,44.127c5.082,2.934 12.78,3.253 17.181,0.712l64.515,-37.247l0,-0.003l4.806,-2.775l-0,-21.806l-4.855,2.803l-0.006,-0.003l-64.46,37.216l-0.598,0.318l-0.44,0.203c-0.097,0.042 -0.195,0.083 -0.294,0.123c-0.256,0.103 -0.519,0.199 -0.789,0.287c-0.066,0.022 -0.132,0.043 -0.199,0.063l-0.875,0.241l-0.648,0.142c-0.661,0.13 -1.346,0.222 -2.046,0.277c-0.166,0.013 -0.333,0.024 -0.501,0.033l-0.781,0.026c-0.284,0.004 -0.57,0.002 -0.858,-0.006l-0.61,-0.025l-1.309,-0.113l-0.589,-0.077c-0.688,-0.099 -1.373,-0.232 -2.045,-0.398l-1.159,-0.323c-0.499,-0.155 -0.989,-0.329 -1.465,-0.523l-0.391,-0.165l-0.977,-0.463l-0.607,-0.332l-76.43,-44.127c-2.756,-1.591 -4.18,-3.627 -4.203,-5.563l-0.001,-0.001c0,0 -0.031,4.87 0.002,5.907c0.061,1.912 1.483,3.914 4.202,5.484l76.43,44.126c5.082,2.934 12.78,3.253 17.181,0.712l64.421,-37.193Z" style="fill:#7d7d7d;fill-opacity:0.27;"/><path d="M107.572,140.293l-0,5.829c2.521,-0.092 4.895,-0.653 6.709,-1.701l64.421,-37.193l-0,10.36l-64.421,37.193c-1.814,1.047 -4.188,1.608 -6.709,1.701l-0,5.629c2.521,-0.092 4.895,-0.653 6.709,-1.701l64.515,-37.247l0,-0.003l4.806,-2.775l-0,-21.806l-4.855,2.803l-0.006,-0.003l-64.46,37.216l-0.598,0.318l-0.44,0.203c-0.097,0.042 -0.195,0.083 -0.294,0.123c-0.256,0.103 -0.519,0.199 -0.789,0.287c-0.066,0.022 -0.132,0.043 -0.199,0.063l-0.875,0.241l-0.648,0.142c-0.661,0.13 -1.346,0.222 -2.046,0.277c-0.166,0.013 -0.333,0.024 -0.501,0.033l-0.319,0.011Z" style="fill:#7d7d7d;fill-opacity:0.27;"/><path d="M106.617,149.752l-87.238,-50.366l0,0.325l87.238,50.367l0,-0.326Z" style="fill:#7d7d7d;fill-opacity:0.27;"/><path d="M106.617,151.442l-87.237,-50.366l-0,0.325l87.237,50.367l0,-0.326Z" style="fill:#7d7d7d;fill-opacity:0.27;"/><path d="M106.617,153.06l-87.237,-50.367l-0,0.325l87.237,50.367l0,-0.325Z" style="fill:#7d7d7d;fill-opacity:0.27;"/><path d="M174.986,113.58l-68.371,39.474l-0,0.328l68.371,-39.474l0,-0.328Z" style="fill:#7d7d7d;fill-opacity:0.27;"/><path d="M174.986,111.967l-68.371,39.474l-0,0.329l68.371,-39.475l0,-0.328Z" style="fill:#7d7d7d;fill-opacity:0.27;"/><path d="M174.986,110.287l-68.371,39.474l-0,0.329l68.371,-39.474l0,-0.329Z" style="fill:#7d7d7d;fill-opacity:0.27;"/></g><path d="M174.987,109.373l0,5.961l3.715,2.144l-0,-10.25l-3.715,2.145Z" style="fill:#7f7f7f;fill-opacity:0.2;"/><path d="M174.987,115.334l0,0.008l-68.371,39.475l-0,-0l-87.237,-50.367l0,-4.394c-1.99,1.168 -2.948,2.731 -2.912,4.362l0.102,0.828l0.309,0.919l0.541,0.95l0.573,0.723l0.79,0.773l0.953,0.739l0.812,0.52l0.123,0.072l76.43,44.127l0.971,0.513l0.522,0.243l0.519,0.219l0.802,0.301c0.211,0.074 0.425,0.145 0.64,0.212c0.845,0.262 1.718,0.47 2.603,0.623l1.263,0.18c1.289,0.145 2.583,0.174 3.831,0.086c0.582,-0.042 1.155,-0.109 1.711,-0.202l0.359,-0.064l1.145,-0.262l0.901,-0.276c0.499,-0.172 0.975,-0.371 1.423,-0.596l0.491,-0.265l64.421,-37.193l-0,-0.11l-3.715,-2.144Z" style="fill:#9dbbc5;"/></svg>