<?xml version="1.0" encoding="UTF-8" standalone="no"?><!DOCTYPE svg PUBLIC "-//W3C//DTD SVG 1.1//EN" "http://www.w3.org/Graphics/SVG/1.1/DTD/svg11.dtd"><svg width="100%" height="100%" viewBox="0 0 200 200" version="1.1" xmlns="http://www.w3.org/2000/svg" xmlns:xlink="http://www.w3.org/1999/xlink" xml:space="preserve" xmlns:serif="http://www.serif.com/" style="fill-rule:evenodd;clip-rule:evenodd;stroke-linejoin:round;stroke-miterlimit:2;"><path d="M153.258,57.581l-71.76,-41.431l-17.118,117.605l71.76,41.431l17.118,-117.605Z" style="fill:#e4e4e4;"/><path d="M81.498,16.15l-17.638,8.683l-17.118,117.605l71.76,41.43l17.638,-8.682l17.118,-117.605l-71.76,-41.431Z" style="fill:#001b35;"/><path d="M63.883,24.819l2.849,-1.402l71.792,41.449l-2.849,1.402l-71.792,-41.449Z" style="fill:#e4e4e4;fill-opacity:0.14;"/><path d="M69.255,24.874l11.954,-5.884l69.269,39.993l-11.954,5.883l-69.269,-39.992Z" style="fill:#efefef;"/><path d="M138.392,64.829l12.094,-5.9l-16.937,117.54l-12.122,5.951l16.965,-117.591Z" style="fill:#efefef;"/><path d="M66.732,23.417l11.917,-5.865l2.56,1.478l-11.917,5.865l-2.56,-1.478Z" style="fill:#e4e4e4;fill-opacity:0.14;"/><path d="M78.617,17.534l2.849,-1.402l71.792,41.449l-2.849,1.402l-71.792,-41.449Z" style="fill:#e4e4e4;fill-opacity:0.14;"/><path d="M71.879,27.004l0.601,-0.296l66.643,38.477l-0.6,0.295l-66.644,-38.476Z" style="fill:#6e6e6e;fill-opacity:0.14;"/><path d="M74.314,25.793l0.817,-0.403l66.649,38.48l-0.817,0.403l-66.649,-38.48Z" style="fill:#6e6e6e;fill-opacity:0.14;"/><path d="M78.436,23.775l0.6,-0.296l66.644,38.477l-0.601,0.296l-66.643,-38.477Z" style="fill:#6e6e6e;fill-opacity:0.14;"/><path d="M80.123,22.931l0.817,-0.402l66.649,38.48l-0.817,0.402l-66.649,-38.48Z" style="fill:#6e6e6e;fill-opacity:0.14;"/><path d="M76.848,24.551l0.221,-0.109l66.652,38.482l-0.221,0.108l-66.652,-38.481Z" style="fill:#6e6e6e;fill-opacity:0.14;"/><path d="M138.519,65.487l0.6,-0.294l-16.223,113.056l-0.6,0.294l16.223,-113.056Z" style="fill:#6e6e6e;fill-opacity:0.14;"/><path d="M140.966,64.268l0.816,-0.4l-16.224,113.066l-0.816,0.4l16.224,-113.066Z" style="fill:#6e6e6e;fill-opacity:0.14;"/><path d="M145.071,62.271l0.6,-0.294l-16.223,113.056l-0.6,0.294l16.223,-113.056Z" style="fill:#6e6e6e;fill-opacity:0.14;"/><path d="M146.772,61.417l0.816,-0.4l-16.224,113.065l-0.816,0.401l16.224,-113.066Z" style="fill:#6e6e6e;fill-opacity:0.14;"/><path d="M143.491,63.038l0.221,-0.108l-16.225,113.069l-0.22,0.109l16.224,-113.07Z" style="fill:#6e6e6e;fill-opacity:0.14;"/></svg>