<?xml version="1.0" encoding="UTF-8" standalone="no"?><!DOCTYPE svg PUBLIC "-//W3C//DTD SVG 1.1//EN" "http://www.w3.org/Graphics/SVG/1.1/DTD/svg11.dtd"><svg width="100%" height="100%" viewBox="0 0 200 200" version="1.1" xmlns="http://www.w3.org/2000/svg" xmlns:xlink="http://www.w3.org/1999/xlink" xml:space="preserve" xmlns:serif="http://www.serif.com/" style="fill-rule:evenodd;clip-rule:evenodd;stroke-linejoin:round;stroke-miterlimit:2;"><path d="M58.46,21.161l-20.58,11.882l0,85.948l103.66,59.848l20.58,-11.882l-0,-85.948l-103.66,-59.848Z" style="fill:#001b35;"/><path d="M158.046,88.065l-12.433,7.178l0,81.244l12.433,-7.178l-0,-81.244Z" style="fill:#ebebeb;"/><path d="M148.516,93.567l-1.187,0.686l0,81.243l1.187,-0.685l0,-81.244Z" style="fill:#5e5e5e;fill-opacity:0.1;"/><path d="M150.845,92.223l-0.628,0.363l-0,81.243l0.628,-0.363l-0,-81.243Z" style="fill:#5e5e5e;fill-opacity:0.1;"/><path d="M153.346,90.779l-1.187,0.685l0,81.244l1.187,-0.686l-0,-81.243Z" style="fill:#5e5e5e;fill-opacity:0.1;"/><path d="M155.039,89.801l-0.322,0.186l0,81.244l0.322,-0.186l0,-81.244Z" style="fill:#5e5e5e;fill-opacity:0.1;"/><path d="M157.185,88.562l-0.628,0.363l0,81.243l0.628,-0.362l0,-81.244Z" style="fill:#5e5e5e;fill-opacity:0.1;"/><path d="M162.12,81.009l-20.58,11.882l-0,85.948l4.073,-2.352l0,-81.244l12.433,-7.178l-0,81.244l4.074,-2.352l-0,-85.948Z" style="fill:#fff;fill-opacity:0.15;"/><path d="M58.46,21.161l-20.58,11.882l103.66,59.848l20.58,-11.882l-103.66,-59.848Z" style="fill:#ebebeb;fill-opacity:0.07;"/></svg>