<?xml version="1.0" encoding="UTF-8" standalone="no"?><!DOCTYPE svg PUBLIC "-//W3C//DTD SVG 1.1//EN" "http://www.w3.org/Graphics/SVG/1.1/DTD/svg11.dtd"><svg width="100%" height="100%" viewBox="0 0 200 200" version="1.1" xmlns="http://www.w3.org/2000/svg" xmlns:xlink="http://www.w3.org/1999/xlink" xml:space="preserve" xmlns:serif="http://www.serif.com/" style="fill-rule:evenodd;clip-rule:evenodd;stroke-linejoin:round;stroke-miterlimit:2;"><g><path d="M158.463,53.435l-78.774,-45.48l-18.791,129.099l78.774,45.48l18.791,-129.099Z" style="fill:#e4e4e4;"/><path d="M79.689,7.955l-19.361,9.531l-18.791,129.099l78.774,45.48l19.361,-9.531l18.791,-129.099l-78.774,-45.48Z" style="fill:#001b35;"/><path d="M60.353,17.471l3.127,-1.539l78.809,45.5l-3.127,1.539l-78.809,-45.5Z" style="fill:#e4e4e4;fill-opacity:0.14;"/><path d="M66.25,17.531l13.122,-6.458l76.039,43.901l-13.122,6.458l-76.039,-43.901Z" style="fill:#efefef;"/><path d="M142.145,61.391l13.275,-6.476l-18.592,129.028l-13.306,6.532l18.623,-129.084Z" style="fill:#efefef;"/><path d="M63.48,15.932l13.082,-6.438l2.81,1.622l-13.082,6.438l-2.81,-1.622Z" style="fill:#e4e4e4;fill-opacity:0.14;"/><path d="M76.527,9.474l3.127,-1.539l78.809,45.5l-3.127,1.539l-78.809,-45.5Z" style="fill:#e4e4e4;fill-opacity:0.14;"/></g><path d="M67.915,16.712l0.685,-0.337l76.039,43.901l-0.685,0.338l-76.039,-43.902Z" style="fill:#6e6e6e;fill-opacity:0.14;"/><path d="M70.692,15.331l0.933,-0.459l76.046,43.905l-0.933,0.459l-76.046,-43.905Z" style="fill:#6e6e6e;fill-opacity:0.14;"/><path d="M75.395,13.028l0.686,-0.337l76.039,43.901l-0.685,0.338l-76.04,-43.902Z" style="fill:#6e6e6e;fill-opacity:0.14;"/><path d="M77.32,12.066l0.933,-0.459l76.046,43.905l-0.933,0.459l-76.046,-43.905Z" style="fill:#6e6e6e;fill-opacity:0.14;"/><path d="M73.584,13.914l0.252,-0.125l76.049,43.907l-0.252,0.124l-76.049,-43.906Z" style="fill:#6e6e6e;fill-opacity:0.14;"/><path d="M143.95,60.621l0.684,-0.335l-18.51,128.995l-0.684,0.336l18.51,-128.996Z" style="fill:#6e6e6e;fill-opacity:0.14;"/><path d="M146.741,59.231l0.932,-0.457l-18.511,129.006l-0.932,0.457l18.511,-129.006Z" style="fill:#6e6e6e;fill-opacity:0.14;"/><path d="M151.425,56.952l0.685,-0.336l-18.51,128.996l-0.685,0.335l18.51,-128.995Z" style="fill:#6e6e6e;fill-opacity:0.14;"/><path d="M153.366,55.978l0.932,-0.457l-18.512,129.006l-0.932,0.457l18.512,-129.006Z" style="fill:#6e6e6e;fill-opacity:0.14;"/><path d="M149.623,57.827l0.252,-0.124l-18.512,129.011l-0.252,0.124l18.512,-129.011Z" style="fill:#6e6e6e;fill-opacity:0.14;"/></svg>