<?xml version="1.0" encoding="UTF-8" standalone="no"?><!DOCTYPE svg PUBLIC "-//W3C//DTD SVG 1.1//EN" "http://www.w3.org/Graphics/SVG/1.1/DTD/svg11.dtd"><svg width="100%" height="100%" viewBox="0 0 200 200" version="1.1" xmlns="http://www.w3.org/2000/svg" xmlns:xlink="http://www.w3.org/1999/xlink" xml:space="preserve" xmlns:serif="http://www.serif.com/" style="fill-rule:evenodd;clip-rule:evenodd;stroke-linejoin:round;stroke-miterlimit:2;"><path d="M50.246,14.705l-14.137,11.656l26.727,108.873l86.918,50.182l14.137,-11.656l-26.727,-108.873l-86.918,-50.182Z" style="fill:#001b35;"/><path d="M122.681,73.088l2.704,1.562l9.413,-7.761l-2.705,-1.562l-9.412,7.761Z" style="fill:#fbfbfb;fill-opacity:0.12;"/><path d="M123.027,76.543l-86.918,-50.182l26.727,108.873l86.918,50.182l-26.727,-108.873Z" style="fill:#001b35;"/><path d="M47.601,16.643l87.126,50.302l2.435,-2.059l-87.126,-50.302l-2.435,2.059Z" style="fill:#fbfbfb;fill-opacity:0.12;"/><path d="M38.399,24.467l84.436,48.711l9.205,-7.784l-84.239,-48.671l-9.402,7.744Z" style="fill:#eee;"/><path d="M41.653,21.798l84.436,48.71l0.586,-0.695l-84.239,-48.671l-0.783,0.656Z" style="fill:#939393;fill-opacity:0.2;"/><path d="M39.704,23.41l84.435,48.71l0.586,-0.695l-84.239,-48.671l-0.782,0.656Z" style="fill:#939393;fill-opacity:0.2;"/><path d="M46.112,18.129l84.31,48.637l0.711,-0.622l-84.239,-48.671l-0.782,0.656Z" style="fill:#939393;fill-opacity:0.2;"/><path d="M44.762,19.228l84.336,48.66l0.431,-0.373l-84.292,-48.683l-0.475,0.396Z" style="fill:#939393;fill-opacity:0.2;"/><path d="M43.262,20.436l84.335,48.659l0.431,-0.372l-84.291,-48.683l-0.475,0.396Z" style="fill:#939393;fill-opacity:0.2;"/><path d="M36.109,26.361l87.127,50.302l2.286,-1.934l-87.126,-50.302l-2.287,1.934Z" style="fill:#fbfbfb;fill-opacity:0.12;"/><path d="M137.162,64.906l-13.96,11.726l26.552,108.784l14.137,-11.626l-26.729,-108.884Z" style="fill:#eee;fill-opacity:0.2;"/></svg>