<?xml version="1.0" encoding="UTF-8" standalone="no"?><!DOCTYPE svg PUBLIC "-//W3C//DTD SVG 1.1//EN" "http://www.w3.org/Graphics/SVG/1.1/DTD/svg11.dtd"><svg width="100%" height="100%" viewBox="0 0 200 200" version="1.1" xmlns="http://www.w3.org/2000/svg" xmlns:xlink="http://www.w3.org/1999/xlink" xml:space="preserve" xmlns:serif="http://www.serif.com/" style="fill-rule:evenodd;clip-rule:evenodd;stroke-linejoin:round;stroke-miterlimit:2;"><path d="M49.578,13.568l-14.325,11.811l27.082,110.319l88.072,50.849l14.325,-11.811l-27.082,-110.319l-88.072,-50.849Z" style="fill:#001b35;"/><path d="M123.325,76.228l-88.072,-50.849l27.082,110.319l88.072,50.849l-27.082,-110.319Z" style="fill:#001b35;"/><path d="M46.897,15.532l88.284,50.971l2.467,-2.087l-88.283,-50.971l-2.468,2.087Z" style="fill:#fbfbfb;fill-opacity:0.12;"/><path d="M40.276,24.982l85.578,49.408l9.327,-7.887l-85.578,-49.409l-9.327,7.888Z" style="fill:#eee;"/><path d="M35.253,25.379l88.284,50.971l2.317,-1.96l-88.284,-50.97l-2.317,1.959Z" style="fill:#fbfbfb;fill-opacity:0.12;"/><path d="M37.535,23.497l2.741,1.583l9.537,-7.864l-2.74,-1.582l-9.538,7.863Z" style="fill:#fbfbfb;fill-opacity:0.12;"/><path d="M135.145,66.523l-9.291,7.867l26.998,110.169l9.193,-7.519l-26.9,-110.517Z" style="fill:#eee;"/><path d="M125.854,74.39l-2.308,1.954l26.848,110.211l2.508,-2.025l-27.048,-110.14Z" style="fill:#fff;fill-opacity:0.1;"/><path d="M137.648,64.442l-2.467,2.061l26.864,110.488l2.702,-2.25l-27.099,-110.299Z" style="fill:#fff;fill-opacity:0.19;"/><path d="M127.821,72.719l-0.704,0.588l26.831,110.352l0.938,-0.776l-27.065,-110.164Z" style="fill:#6d6d6d;fill-opacity:0.14;"/><path d="M134.228,67.318l-0.704,0.587l26.831,110.353l0.938,-0.777l-27.065,-110.163Z" style="fill:#6d6d6d;fill-opacity:0.14;"/><path d="M129.797,71.075l-0.704,0.588l26.831,110.352l0.938,-0.776l-27.065,-110.164Z" style="fill:#6d6d6d;fill-opacity:0.14;"/><path d="M131.114,69.946l-0.398,0.332l26.831,110.353l0.632,-0.522l-27.065,-110.163Z" style="fill:#6d6d6d;fill-opacity:0.14;"/><path d="M132.604,68.706l-0.398,0.332l26.831,110.352l0.632,-0.521l-27.065,-110.163Z" style="fill:#6d6d6d;fill-opacity:0.14;"/><path d="M43.503,22.311l85.557,49.357l0.754,-0.611l-85.518,-49.411l-0.793,0.665Z" style="fill:#939393;fill-opacity:0.2;"/><path d="M41.527,23.945l85.557,49.357l0.777,-0.598l-85.541,-49.424l-0.793,0.665Z" style="fill:#939393;fill-opacity:0.2;"/><path d="M48.02,18.593l85.49,49.353l0.721,-0.63l-85.418,-49.388l-0.793,0.665Z" style="fill:#939393;fill-opacity:0.2;"/><path d="M46.653,19.707l85.539,49.354l0.437,-0.377l-85.495,-49.378l-0.481,0.401Z" style="fill:#939393;fill-opacity:0.2;"/><path d="M45.132,20.93l85.565,49.37l0.437,-0.378l-85.52,-49.393l-0.482,0.401Z" style="fill:#939393;fill-opacity:0.2;"/></svg>