<?xml version="1.0" encoding="UTF-8" standalone="no"?><!DOCTYPE svg PUBLIC "-//W3C//DTD SVG 1.1//EN" "http://www.w3.org/Graphics/SVG/1.1/DTD/svg11.dtd"><svg width="100%" height="100%" viewBox="0 0 200 200" version="1.1" xmlns="http://www.w3.org/2000/svg" xmlns:xlink="http://www.w3.org/1999/xlink" xml:space="preserve" xmlns:serif="http://www.serif.com/" style="fill-rule:evenodd;clip-rule:evenodd;stroke-linejoin:round;stroke-miterlimit:2;"><path d="M74.179,97.13l63.672,36.761l0.001,3.459l46.473,-34.834l0,-3.459l-63.673,-36.762l-46.473,34.835Z" style="fill:#001b35;"/><path d="M74.178,97.129l-55.863,22.615l63.673,36.762l55.863,-22.615l-63.673,-36.762Z" style="fill:#001b35;"/><path d="M74.178,100.588l-55.863,22.615l63.673,36.762l55.863,-22.615l-63.673,-36.762Z" style="fill:#001b35;"/><path d="M18.315,119.744l0,3.459l63.673,36.762l55.863,-22.615l0,-3.459l-63.673,-36.762l-55.863,22.615Z" style="fill:#001b35;"/><path d="M81.988,156.506l-63.673,-36.762l0,3.459l63.673,36.762l55.863,-22.615l0,-3.459l-55.863,22.615Z" style="fill:#f9f9f9;fill-opacity:0.11;"/><path d="M81.988,156.506l-63.673,-36.762l0,3.459l63.673,36.762l0,-3.459Z" style="fill:#f9f9f9;fill-opacity:0.11;"/><path d="M120.652,62.295l-46.473,34.835l63.673,36.761l46.473,-34.834l-63.673,-36.762Z" style="fill:#001b35;"/><path d="M121.271,66.335c0,-0 -14.942,5.717 -20.461,9.854c-7.284,5.459 -23.237,22.9 -23.237,22.9l56.719,32.747c-0,-0 16.119,-17.345 23.402,-22.804c5.52,-4.138 20.462,-9.855 20.462,-9.855l-56.885,-32.842Z" style="fill:#f2f2f2;"/><path d="M77.573,92.679l56.719,32.746l-0,6.411c-0,-0 16.119,-17.345 23.402,-22.804c5.52,-4.138 20.462,-9.855 20.462,-9.855l-0,-6.411l-56.885,-32.842c0,-0 -14.942,5.717 -20.461,9.854c-7.284,5.46 -23.237,22.901 -23.237,22.901Z" style="fill:#f2f2f2;"/><path d="M121.271,59.924c0,-0 -14.942,5.717 -20.461,9.854c-7.284,5.46 -23.237,22.901 -23.237,22.901l56.885,32.842c-0,-0 15.953,-17.441 23.236,-22.9c5.52,-4.138 20.462,-9.855 20.462,-9.855l-56.885,-32.842Z" style="fill:#f2f2f2;"/><path d="M121.271,59.924c0,-0 -14.942,5.717 -20.461,9.854c-7.284,5.46 -23.237,22.901 -23.237,22.901l56.885,32.842c-0,-0 15.953,-17.441 23.236,-22.9c5.52,-4.138 20.462,-9.855 20.462,-9.855l-56.885,-32.842Z" style="fill:#f2f2f2;"/><path d="M121.271,59.924c0,-0 -14.942,5.717 -20.461,9.854c-7.284,5.46 -23.237,22.901 -23.237,22.901l56.719,32.586c-0,-0 16.119,-17.185 23.402,-22.644c5.52,-4.138 20.462,-9.855 20.462,-9.855l-56.885,-32.842Z" style="fill:#9a9a9a;fill-opacity:0.08;"/><path d="M178.156,99.177l-0,-6.602c-0,-0 -14.942,5.717 -20.462,9.854c-7.283,5.459 -23.402,22.805 -23.402,22.805l-0,6.602c-0,-0 16.328,-17.507 23.611,-22.966c5.519,-4.137 20.253,-9.693 20.253,-9.693Z" style="fill:#7d7d7d;fill-opacity:0.25;"/><path d="M178.156,94.153l-0,-0.447c-0,-0 -14.942,5.717 -20.462,9.854c-7.283,5.459 -23.402,22.804 -23.402,22.804l-0,0.561c-0,-0 16.328,-17.504 23.611,-22.963c5.519,-4.138 20.253,-9.809 20.253,-9.809Z" style="fill:#7d7d7d;fill-opacity:0.25;"/><path d="M178.156,96.768l-0,-0.338c-0,-0 -14.942,5.717 -20.462,9.854c-7.283,5.459 -23.402,22.805 -23.402,22.805l-0,0.451c-0,-0 16.328,-17.504 23.611,-22.963c5.519,-4.137 20.253,-9.809 20.253,-9.809Z" style="fill:#7d7d7d;fill-opacity:0.25;"/><path d="M178.156,98.097l-0,-0.307c-0,0 -14.942,5.717 -20.462,9.855c-7.283,5.459 -23.402,22.804 -23.402,22.804l-0,0.419c-0,0 16.328,-17.504 23.611,-22.963c5.519,-4.137 20.253,-9.808 20.253,-9.808Z" style="fill:#7d7d7d;fill-opacity:0.25;"/><path d="M178.156,95.49l-0,-0.161c-0,0 -14.942,5.717 -20.462,9.855c-7.283,5.459 -23.402,22.804 -23.402,22.804l-0,0.273c-0,0 16.328,-17.503 23.611,-22.962c5.519,-4.138 20.253,-9.809 20.253,-9.809Z" style="fill:#7d7d7d;fill-opacity:0.25;"/><path d="M184.325,102.516l0,-3.459l-46.473,34.834l-0.001,0l0.001,3.459l46.473,-34.834Z" style="fill:#1a334a;"/><path d="M76.203,98.299c0,-0 -19.376,1.505 -26.154,4.249c-8.719,3.53 -26.155,16.927 -26.155,16.927l58.088,33.537c0,0 17.437,-13.397 26.155,-16.926c6.778,-2.744 26.155,-4.25 26.155,-4.25l-58.089,-33.537Z" style="fill:#f2f2f2;"/><path d="M23.894,112.882l-0,6.593l58.088,33.537c0,0 17.437,-13.397 26.155,-16.926c6.778,-2.744 26.155,-4.25 26.155,-4.25l-0,-6.593l-56.529,-32.54c-0,-0 -20.936,0.508 -27.714,3.252c-8.719,3.53 -26.155,16.927 -26.155,16.927Z" style="fill:#f2f2f2;"/><path d="M134.292,131.836l-0,-6.593c-0,-0 -19.377,1.506 -26.155,4.249c-8.718,3.53 -26.155,16.927 -26.155,16.927l-58.088,-33.537l-0,6.593l58.088,33.537c0,0 17.437,-13.397 26.155,-16.926c6.778,-2.744 26.155,-4.25 26.155,-4.25Z" style="fill:#818181;fill-opacity:0.13;"/><path d="M81.982,152.023l0,-0.377l-58.088,-33.538l-0,0.377l58.088,33.538Z" style="fill:#818181;fill-opacity:0.13;"/><path d="M81.982,150.782l0,-0.558l-58.088,-33.537l-0,0.557l58.088,33.538Z" style="fill:#818181;fill-opacity:0.13;"/><path d="M81.982,148.09l0,-0.558l-58.088,-33.537l-0,0.557l58.088,33.538Z" style="fill:#818181;fill-opacity:0.13;"/><path d="M81.982,149.447l0,-0.285l-58.088,-33.538l-0,0.285l58.088,33.538Z" style="fill:#818181;fill-opacity:0.13;"/><path d="M134.292,131.836l-0,-6.593c-0,-0 -19.377,1.506 -26.155,4.249c-8.718,3.53 -26.155,16.927 -26.155,16.927l0,6.593c0,0 17.437,-13.397 26.155,-16.926c6.778,-2.744 26.155,-4.25 26.155,-4.25Z" style="fill:#818181;fill-opacity:0.13;"/><path d="M134.292,129.54l-0,-0.459c-0,-0 -19.377,1.505 -26.155,4.249c-8.718,3.53 -26.155,16.927 -26.155,16.927l0,0.459c0,0 17.437,-13.397 26.155,-16.927c6.778,-2.744 26.155,-4.249 26.155,-4.249Z" style="fill:#818181;fill-opacity:0.13;"/><path d="M134.292,126.928l-0,-0.554c-0,0 -19.377,1.506 -26.155,4.25c-8.718,3.529 -26.155,16.927 -26.155,16.927l0,0.553c0,0 17.437,-13.397 26.155,-16.926c6.778,-2.744 26.155,-4.25 26.155,-4.25Z" style="fill:#818181;fill-opacity:0.13;"/><path d="M134.292,128.261l-0,-0.271c-0,-0 -19.377,1.505 -26.155,4.249c-8.718,3.53 -26.155,16.927 -26.155,16.927l0,0.272c0,-0 17.437,-13.398 26.155,-16.927c6.778,-2.744 26.155,-4.25 26.155,-4.25Z" style="fill:#818181;fill-opacity:0.13;"/><path d="M134.292,130.871l-0,-0.419c-0,0 -19.377,1.506 -26.155,4.25c-8.718,3.529 -26.155,16.927 -26.155,16.927l0,0.419c0,-0 17.437,-13.398 26.155,-16.927c6.778,-2.744 26.155,-4.25 26.155,-4.25Z" style="fill:#818181;fill-opacity:0.13;"/><path d="M111.682,46.838c0,-0 -12.57,8.867 -16.878,14.613c-5.685,7.582 -17.231,30.876 -17.231,30.876l56.885,32.842c-0,0 11.546,-23.294 17.23,-30.875c4.309,-5.746 16.879,-14.614 16.879,-14.614l-56.885,-32.842Z" style="fill:#f2f2f2;"/><path d="M90.711,41.928c0,0 -7.382,10.082 -9.041,16.448c-2.19,8.4 -4.097,33.951 -4.097,33.951l56.885,32.842c-0,0 1.907,-25.551 4.096,-33.95c1.66,-6.366 9.042,-16.448 9.042,-16.448l-56.885,-32.843Z" style="fill:#f2f2f2;"/><path d="M48.601,55.444c0,-0 3.398,15.038 7.099,19.663c8.6,10.75 21.873,17.22 21.873,17.22l56.885,32.842c-0,0 -13.98,-7.1 -21.874,-17.219c-3.644,-4.671 -7.098,-19.664 -7.098,-19.664l-56.885,-32.842Z" style="fill:#f2f2f2;"/><path d="M76.203,91.354c0,-0 -19.982,-2.986 -27.078,-2.597c-9.127,0.499 -27.683,5.594 -27.683,5.594l58.088,33.538c0,-0 18.557,-5.095 27.683,-5.595c7.096,-0.388 27.079,2.597 27.079,2.597l-58.089,-33.537Z" style="fill:#f2f2f2;"/><path d="M90.711,41.928c0,0 -7.382,10.082 -9.041,16.448c-2.19,8.4 -4.097,33.951 -4.097,33.951l56.885,32.842c-0,0 1.907,-25.551 4.096,-33.95c1.66,-6.366 9.042,-16.448 9.042,-16.448l-56.885,-32.843Z" style="fill:#757575;fill-opacity:0.09;"/><path d="M66.185,45.44c0,-0 -1.315,9.213 0.124,15.135c1.898,7.815 11.264,31.752 11.264,31.752l56.885,32.842c-0,0 -9.367,-23.937 -11.265,-31.751c-1.438,-5.923 -0.123,-15.136 -0.123,-15.136l-56.885,-32.842Z" style="fill:#f2f2f2;"/><path d="M48.601,55.444c0,-0 3.398,15.038 7.099,19.663c8.6,10.75 21.873,17.22 21.873,17.22l56.885,32.842c-0,0 -13.98,-7.1 -21.874,-17.219c-3.644,-4.671 -7.098,-19.664 -7.098,-19.664l-56.885,-32.842Z" style="fill:#757575;fill-opacity:0.09;"/><path d="M76.203,91.354c0,-0 -19.982,-2.986 -27.078,-2.597c-9.127,0.499 -27.683,5.594 -27.683,5.594l58.088,33.538c0,-0 18.557,-5.095 27.683,-5.595c7.096,-0.388 27.079,2.597 27.079,2.597l-58.089,-33.537Z" style="fill:#757575;fill-opacity:0.09;"/><path d="M76.203,91.354c0,-0 -17.303,-6.564 -22.994,-8.052c-7.32,-1.915 -20.924,-3.435 -20.924,-3.435l58.089,33.538c-0,-0 13.604,1.52 20.923,3.434c5.691,1.488 22.995,8.052 22.995,8.052l-58.089,-33.537Z" style="fill:#f2f2f2;"/></svg>