<?xml version="1.0" encoding="UTF-8" standalone="no"?><!DOCTYPE svg PUBLIC "-//W3C//DTD SVG 1.1//EN" "http://www.w3.org/Graphics/SVG/1.1/DTD/svg11.dtd"><svg width="100%" height="100%" viewBox="0 0 200 200" version="1.1" xmlns="http://www.w3.org/2000/svg" xmlns:xlink="http://www.w3.org/1999/xlink" xml:space="preserve" xmlns:serif="http://www.serif.com/" style="fill-rule:evenodd;clip-rule:evenodd;stroke-linejoin:round;stroke-miterlimit:2;"><path d="M79.842,123.01l54.265,31.33l3.274,-1.89l-0,-85.404l-54.265,-31.33l-3.274,1.89l-0,85.404Z" style="fill:#255c2b;"/><path d="M79.842,37.606l54.265,31.33l-0,85.404l3.274,-1.89l-0,-85.404l-54.265,-31.33l-3.274,1.89Z" style="fill:#808080;fill-opacity:0.38;"/><path d="M137.381,67.046l-3.274,1.89l-0,85.404l3.274,-1.89l-0,-85.404Z" style="fill:#808080;fill-opacity:0.38;"/><path d="M79.842,37.606l-14.584,8.421l54.265,31.329l14.584,-8.42l-54.265,-31.33Z" style="fill:#eee;"/><path d="M134.107,68.936l-13.949,8.054l0,85.404l13.949,-8.054l-0,-85.404Z" style="fill:#eee;"/><path d="M79.842,37.606l-13.949,8.054l3.495,2.017l13.949,-8.053l-3.495,-2.018Z" style="fill:#255c2b;"/><path d="M79.842,37.606l-13.949,8.054l3.495,2.017l13.949,-8.053l-3.495,-2.018Z" style="fill:#255c2b;"/><path d="M79.842,37.606l-13.949,8.054l3.495,2.017l13.949,-8.053l-3.495,-2.018Z" style="fill:#255c2b;"/><path d="M62.619,132.954l54.265,31.33l3.274,-1.89l0,-85.404l-54.265,-31.33l-3.274,1.89l0,85.404Z" style="fill:#255c2b;"/><path d="M62.619,47.55l54.265,31.33l0,85.404l3.274,-1.89l0,-85.404l-54.265,-31.33l-3.274,1.89Z" style="fill:#808080;fill-opacity:0.38;"/><path d="M120.158,76.99l-3.274,1.89l0,85.404l3.274,-1.89l0,-85.404Z" style="fill:#808080;fill-opacity:0.38;"/><path d="M79.842,37.606l-13.949,8.054l3.495,2.017l13.949,-8.053l-3.495,-2.018Z" style="fill:#808080;fill-opacity:0.29;"/><path d="M71.328,46.484l-0.423,0.244l50.834,29.349l0.423,-0.244l-50.834,-29.349Z" style="fill:#808080;fill-opacity:0.11;"/><path d="M82.164,40.227l-0.743,0.429l50.834,29.349l0.743,-0.429l-50.834,-29.349Z" style="fill:#808080;fill-opacity:0.11;"/><path d="M80.224,41.348l-0.422,0.244l50.833,29.348l0.423,-0.243l-50.834,-29.349Z" style="fill:#808080;fill-opacity:0.11;"/><path d="M79.025,42.04l-0.423,0.244l50.834,29.349l0.422,-0.244l-50.833,-29.349Z" style="fill:#808080;fill-opacity:0.11;"/><path d="M77.204,43.091l-0.221,0.128l50.833,29.349l0.221,-0.128l-50.833,-29.349Z" style="fill:#808080;fill-opacity:0.11;"/><path d="M75.185,44.257l-0.945,0.546l50.834,29.349l0.944,-0.546l-50.833,-29.349Z" style="fill:#808080;fill-opacity:0.11;"/><path d="M73.043,45.494l-0.596,0.344l50.834,29.349l0.596,-0.344l-50.834,-29.349Z" style="fill:#808080;fill-opacity:0.11;"/><path d="M122.173,75.826l-0.422,0.244l-0,85.404l0.422,-0.244l0,-85.404Z" style="fill:#808080;fill-opacity:0.11;"/><path d="M133.01,69.57l-0.744,0.429l0,85.404l0.744,-0.429l-0,-85.404Z" style="fill:#808080;fill-opacity:0.11;"/><path d="M131.069,70.69l-0.422,0.244l-0,85.404l0.422,-0.244l0,-85.404Z" style="fill:#808080;fill-opacity:0.11;"/><path d="M129.87,71.382l-0.422,0.244l-0,85.404l0.422,-0.243l0,-85.405Z" style="fill:#808080;fill-opacity:0.11;"/><path d="M128.049,72.434l-0.221,0.127l0,85.404l0.221,-0.127l-0,-85.404Z" style="fill:#808080;fill-opacity:0.11;"/><path d="M126.03,73.599l-0.945,0.546l0,85.404l0.945,-0.545l-0,-85.405Z" style="fill:#808080;fill-opacity:0.11;"/><path d="M123.888,74.836l-0.596,0.344l0,85.404l0.596,-0.344l0,-85.404Z" style="fill:#808080;fill-opacity:0.11;"/></svg>
