<?xml version="1.0" encoding="UTF-8" standalone="no"?><!DOCTYPE svg PUBLIC "-//W3C//DTD SVG 1.1//EN" "http://www.w3.org/Graphics/SVG/1.1/DTD/svg11.dtd"><svg width="100%" height="100%" viewBox="0 0 200 200" version="1.1" xmlns="http://www.w3.org/2000/svg" xmlns:xlink="http://www.w3.org/1999/xlink" xml:space="preserve" xmlns:serif="http://www.serif.com/" style="fill-rule:evenodd;clip-rule:evenodd;stroke-linejoin:round;stroke-miterlimit:2;"><path d="M66.915,16.984l0,123.789l76.214,44.002l2.648,-1.528l-0,-123.789l-76.214,-44.002l-2.648,1.528Z" style="fill:#6c5046;"/><path d="M66.915,16.984l76.214,44.002l0,123.789l2.648,-1.528l-0,-123.789l-76.214,-44.002l-2.648,1.528Z" style="fill:#858585;fill-opacity:0.28;"/><path d="M57.828,22.231l-0,123.789l76.214,44.002l2.647,-1.529l0,-123.789l-76.214,-44.002l-2.647,1.529Z" style="fill:#6c5046;"/><path d="M57.828,22.231l76.214,44.002l-0,123.789l2.647,-1.529l0,-123.789l-76.214,-44.002l-2.647,1.529Z" style="fill:#858585;fill-opacity:0.28;"/><path d="M145.777,59.527l-11.713,6.763l-0,123.719l11.713,-6.762l-0,-123.72Z" style="fill:#6c5046;"/><path d="M145.777,59.527l-11.713,6.763l-0,123.719l11.713,-6.762l-0,-123.72Z" style="fill:#858585;fill-opacity:0.14;"/><path d="M67.077,16.891l-6.602,3.811l76.275,44.037l6.602,-3.811l-76.275,-44.037Z" style="fill:#efefef;"/><path d="M63.994,18.671l-0.436,0.251l76.274,44.037l0.437,-0.252l-76.275,-44.036Z" style="fill:#858585;fill-opacity:0.28;"/><path d="M65.764,17.649l-0.382,0.221l76.274,44.036l0.382,-0.22l-76.274,-44.037Z" style="fill:#858585;fill-opacity:0.28;"/><path d="M61.343,20.201l-0.189,0.109l76.274,44.037l0.19,-0.109l-76.275,-44.037Z" style="fill:#858585;fill-opacity:0.28;"/><path d="M66.522,17.211l-0.169,0.098l76.274,44.037l0.169,-0.098l-76.274,-44.037Z" style="fill:#858585;fill-opacity:0.28;"/><path d="M62.916,19.293l-0.189,0.109l76.274,44.037l0.189,-0.109l-76.274,-44.037Z" style="fill:#858585;fill-opacity:0.28;"/><path d="M62.371,19.608l-0.273,0.157l76.274,44.037l0.273,-0.157l-76.274,-44.037Z" style="fill:#858585;fill-opacity:0.28;"/><path d="M143.352,58.057l-11.774,6.798l2.486,1.435l11.773,-6.798l-2.485,-1.435Z" style="fill:#6c5046;"/><path d="M143.352,58.057l-11.774,6.798l2.486,1.435l11.773,-6.798l-2.485,-1.435Z" style="fill:#858585;fill-opacity:0.16;"/><path d="M145.837,59.492l-76.274,-44.036l-2.648,1.528l73.789,42.602l-6.44,3.718l-73.789,-42.602l-2.647,1.529l73.788,42.602l-0.038,0.022l2.464,1.422l2.647,-1.503l9.148,-5.282Z" style="fill:#858585;fill-opacity:0.28;"/></svg>
