<?xml version="1.0" encoding="UTF-8" standalone="no"?><!DOCTYPE svg PUBLIC "-//W3C//DTD SVG 1.1//EN" "http://www.w3.org/Graphics/SVG/1.1/DTD/svg11.dtd"><svg width="100%" height="100%" viewBox="0 0 200 200" version="1.1" xmlns="http://www.w3.org/2000/svg" xmlns:xlink="http://www.w3.org/1999/xlink" xml:space="preserve" xmlns:serif="http://www.serif.com/" style="fill-rule:evenodd;clip-rule:evenodd;stroke-linejoin:round;stroke-miterlimit:2;"><path d="M71.895,86.73l65.934,38.067l0,3.582l48.124,-36.072l-0,-3.581l-65.935,-38.068l-48.123,36.072Z" style="fill:#001b35;"/><path d="M71.894,86.73l-57.847,23.418l65.935,38.067l57.847,-23.418l-65.935,-38.067Z" style="fill:#001b35;"/><path d="M71.894,90.311l-57.847,23.419l65.935,38.067l57.847,-23.418l-65.935,-38.068Z" style="fill:#001b35;"/><path d="M14.047,110.148l0,3.582l65.935,38.067l57.847,-23.418l-0,-3.582l-65.935,-38.067l-57.847,23.418Z" style="fill:#001b35;"/><path d="M79.982,148.215l-65.935,-38.067l0,3.582l65.935,38.067l57.847,-23.418l-0,-3.582l-57.847,23.418Z" style="fill:#f9f9f9;fill-opacity:0.11;"/><path d="M79.982,148.215l-65.935,-38.067l0,3.582l65.935,38.067l-0,-3.582Z" style="fill:#f9f9f9;fill-opacity:0.11;"/><path d="M120.018,50.658l-48.123,36.072l65.934,38.068l48.124,-36.072l-65.935,-38.068Z" style="fill:#001b35;"/><path d="M120.66,54.841c-0,0 -15.473,5.921 -21.189,10.205c-7.541,5.653 -24.062,23.713 -24.062,23.713l58.734,33.91c-0,0 16.692,-17.961 24.233,-23.614c5.716,-4.285 21.189,-10.205 21.189,-10.205l-58.905,-34.009Z" style="fill:#f2f2f2;"/><path d="M75.409,82.121l58.734,33.91l-0,6.638c-0,0 16.692,-17.961 24.233,-23.614c5.716,-4.285 21.189,-10.205 21.189,-10.205l-0,-6.638l-58.905,-34.009c-0,0 -15.473,5.92 -21.189,10.205c-7.541,5.653 -24.062,23.713 -24.062,23.713Z" style="fill:#f2f2f2;"/><path d="M120.66,48.203c-0,0 -15.473,5.92 -21.189,10.205c-7.541,5.653 -24.062,23.713 -24.062,23.713l58.905,34.009c0,-0 16.521,-18.061 24.062,-23.714c5.716,-4.284 21.189,-10.204 21.189,-10.204l-58.905,-34.009Z" style="fill:#f2f2f2;"/><path d="M120.66,48.203c-0,0 -15.473,5.92 -21.189,10.205c-7.541,5.653 -24.062,23.713 -24.062,23.713l58.905,34.009c0,-0 16.521,-18.061 24.062,-23.714c5.716,-4.284 21.189,-10.204 21.189,-10.204l-58.905,-34.009Z" style="fill:#f2f2f2;"/><path d="M120.66,48.203c-0,0 -15.473,5.92 -21.189,10.205c-7.541,5.653 -24.062,23.713 -24.062,23.713l58.734,33.744c-0,-0 16.692,-17.796 24.233,-23.449c5.716,-4.284 21.189,-10.204 21.189,-10.204l-58.905,-34.009Z" style="fill:#9a9a9a;fill-opacity:0.08;"/><path d="M179.565,88.85l-0,-6.837c-0,0 -15.473,5.921 -21.189,10.205c-7.541,5.653 -24.233,23.614 -24.233,23.614l-0,6.837c-0,0 16.907,-18.129 24.449,-23.782c5.716,-4.284 20.973,-10.037 20.973,-10.037Z" style="fill:#7d7d7d;fill-opacity:0.25;"/><path d="M179.565,83.648l-0,-0.464c-0,0 -15.473,5.921 -21.189,10.205c-7.541,5.653 -24.233,23.614 -24.233,23.614l-0,0.58c-0,0 16.907,-18.125 24.449,-23.778c5.716,-4.284 20.973,-10.157 20.973,-10.157Z" style="fill:#7d7d7d;fill-opacity:0.25;"/><path d="M179.565,86.356l-0,-0.351c-0,0 -15.473,5.921 -21.189,10.205c-7.541,5.653 -24.233,23.614 -24.233,23.614l-0,0.467c-0,0 16.907,-18.125 24.449,-23.778c5.716,-4.284 20.973,-10.157 20.973,-10.157Z" style="fill:#7d7d7d;fill-opacity:0.25;"/><path d="M179.565,87.732l-0,-0.318c-0,0 -15.473,5.92 -21.189,10.205c-7.541,5.653 -24.233,23.614 -24.233,23.614l-0,0.434c-0,-0 16.907,-18.125 24.449,-23.778c5.716,-4.285 20.973,-10.157 20.973,-10.157Z" style="fill:#7d7d7d;fill-opacity:0.25;"/><path d="M179.565,85.032l-0,-0.166c-0,-0 -15.473,5.92 -21.189,10.204c-7.541,5.653 -24.233,23.614 -24.233,23.614l-0,0.283c-0,0 16.907,-18.125 24.449,-23.778c5.716,-4.284 20.973,-10.157 20.973,-10.157Z" style="fill:#7d7d7d;fill-opacity:0.25;"/><path d="M185.953,92.307l-0,-3.581l-48.124,36.072l-0,-0.001l0,3.582l48.124,-36.072Z" style="fill:#1a334a;"/><path d="M73.991,87.941c0,-0 -20.065,1.559 -27.084,4.4c-9.027,3.655 -27.083,17.528 -27.083,17.528l60.151,34.729c0,-0 18.056,-13.874 27.084,-17.528c7.019,-2.842 27.084,-4.401 27.084,-4.401l-60.152,-34.728Z" style="fill:#f2f2f2;"/><path d="M19.824,103.042l-0,6.827l60.151,34.729c0,-0 18.056,-13.874 27.084,-17.528c7.019,-2.842 27.084,-4.401 27.084,-4.401l-0,-6.827l-58.537,-33.696c0,-0 -21.68,0.527 -28.699,3.368c-9.027,3.655 -27.083,17.528 -27.083,17.528Z" style="fill:#f2f2f2;"/><path d="M134.143,122.669l-0,-6.827c-0,-0 -20.065,1.559 -27.084,4.4c-9.028,3.655 -27.084,17.528 -27.084,17.528l-60.151,-34.728l-0,6.827l60.151,34.729c0,-0 18.056,-13.874 27.084,-17.528c7.019,-2.842 27.084,-4.401 27.084,-4.401Z" style="fill:#818181;fill-opacity:0.13;"/><path d="M79.975,143.573l0,-0.391l-60.151,-34.728l-0,0.39l60.151,34.729Z" style="fill:#818181;fill-opacity:0.13;"/><path d="M79.975,142.288l0,-0.578l-60.151,-34.728l-0,0.577l60.151,34.729Z" style="fill:#818181;fill-opacity:0.13;"/><path d="M79.975,139.5l0,-0.577l-60.151,-34.729l-0,0.578l60.151,34.728Z" style="fill:#818181;fill-opacity:0.13;"/><path d="M79.975,140.905l0,-0.295l-60.151,-34.728l-0,0.295l60.151,34.728Z" style="fill:#818181;fill-opacity:0.13;"/><path d="M134.143,122.669l-0,-6.827c-0,-0 -20.065,1.559 -27.084,4.4c-9.028,3.655 -27.084,17.528 -27.084,17.528l0,6.828c0,-0 18.056,-13.874 27.084,-17.528c7.019,-2.842 27.084,-4.401 27.084,-4.401Z" style="fill:#818181;fill-opacity:0.13;"/><path d="M134.143,120.291l-0,-0.475c-0,-0 -20.065,1.559 -27.084,4.401c-9.028,3.654 -27.084,17.527 -27.084,17.527l0,0.476c0,-0 18.056,-13.873 27.084,-17.528c7.019,-2.841 27.084,-4.401 27.084,-4.401Z" style="fill:#818181;fill-opacity:0.13;"/><path d="M134.143,117.587l-0,-0.574c-0,0 -20.065,1.56 -27.084,4.401c-9.028,3.655 -27.084,17.528 -27.084,17.528l0,0.573c0,0 18.056,-13.873 27.084,-17.528c7.019,-2.841 27.084,-4.4 27.084,-4.4Z" style="fill:#818181;fill-opacity:0.13;"/><path d="M134.143,118.967l-0,-0.281c-0,0 -20.065,1.559 -27.084,4.401c-9.028,3.655 -27.084,17.528 -27.084,17.528l0,0.281c0,0 18.056,-13.873 27.084,-17.528c7.019,-2.841 27.084,-4.401 27.084,-4.401Z" style="fill:#818181;fill-opacity:0.13;"/><path d="M134.143,121.67l-0,-0.434c-0,0 -20.065,1.559 -27.084,4.401c-9.028,3.655 -27.084,17.528 -27.084,17.528l0,0.434c0,-0 18.056,-13.874 27.084,-17.528c7.019,-2.842 27.084,-4.401 27.084,-4.401Z" style="fill:#818181;fill-opacity:0.13;"/></svg>