<?xml version="1.0" encoding="UTF-8" standalone="no"?><!DOCTYPE svg PUBLIC "-//W3C//DTD SVG 1.1//EN" "http://www.w3.org/Graphics/SVG/1.1/DTD/svg11.dtd"><svg width="100%" height="100%" viewBox="0 0 200 200" version="1.1" xmlns="http://www.w3.org/2000/svg" xmlns:xlink="http://www.w3.org/1999/xlink" xml:space="preserve" xmlns:serif="http://www.serif.com/" style="fill-rule:evenodd;clip-rule:evenodd;stroke-linejoin:round;stroke-miterlimit:2;"><path d="M66.724,72.211l-0,4.525l63.32,36.558c0,0 18.824,-2.947 26.383,-5.611c8.642,-3.047 25.473,-12.666 25.473,-12.666l0.486,-10.6l-63.321,-36.558c0,0 -14.367,10.819 -23.091,14.878c-8.506,3.958 -29.25,9.474 -29.25,9.474Z" style="fill:#f2f2f2;"/><path d="M181.9,95.017l0.486,-10.6c-0,0 -17.026,12.056 -25.749,16.115c-7.63,3.549 -26.593,8.237 -26.593,8.237l0,4.525c0,0 18.824,-2.947 26.383,-5.611c8.642,-3.047 25.473,-12.666 25.473,-12.666Z" style="fill:#e2e2e2;"/><path d="M181.928,94.178l0.03,-0.56c0,-0 -17.265,9.757 -25.322,12.851c-7.855,3.016 -25.166,5.844 -25.166,5.844l0,0.186c0,-0 17.398,-2.975 24.957,-5.639c8.642,-3.047 25.501,-12.682 25.501,-12.682Z" style="fill:#525252;fill-opacity:0.1;"/><path d="M182.196,88.501l0.03,-0.559c-0,-0 -17.38,11.601 -25.436,14.695c-7.856,3.016 -25.32,8.016 -25.32,8.016l0,0.088c0,0 17.552,-5.049 25.11,-7.713c8.643,-3.046 25.616,-14.527 25.616,-14.527Z" style="fill:#525252;fill-opacity:0.1;"/><path d="M182.274,86.905l0.038,-1.049c0,-0 -17.407,12.599 -25.464,15.693c-7.856,3.017 -25.378,8.613 -25.378,8.613l0,0.241c0,0 17.61,-5.576 25.169,-8.24c8.642,-3.046 25.635,-15.258 25.635,-15.258Z" style="fill:#525252;fill-opacity:0.1;"/><path d="M182.079,91.113l0.03,-0.559c0,-0 -17.265,10.67 -25.322,13.764c-7.856,3.016 -25.317,6.865 -25.317,6.865l0,0.186c0,-0 17.549,-3.996 25.108,-6.66c8.642,-3.046 25.501,-13.596 25.501,-13.596Z" style="fill:#525252;fill-opacity:0.1;"/><path d="M181.999,92.827l0.03,-0.198c-0,0 -17.277,9.732 -25.333,12.826c-7.856,3.016 -25.226,6.247 -25.226,6.247l0,0.186c0,-0 17.458,-3.378 25.016,-6.042c8.643,-3.046 25.513,-13.019 25.513,-13.019Z" style="fill:#525252;fill-opacity:0.1;"/><path d="M68.356,72.648c0,-0 -16.484,16.266 -24.93,22.399c-7.546,5.478 -25.747,14.393 -25.747,14.393l63.114,36.925c-0,-0 16.779,-7.883 23.623,-12.852c8.446,-6.132 27.054,-23.94 27.054,-23.94l-63.114,-36.925Z" style="fill:#f2f2f2;"/><path d="M68.356,76.086c0,0 -16.134,18.764 -24.43,25.964c-7.413,6.432 -25.349,17.232 -25.349,17.232l63.114,36.925c-0,0 16.54,-9.589 23.263,-15.422c8.296,-7.2 26.516,-27.774 26.516,-27.774l-63.114,-36.925Z" style="fill:#f2f2f2;"/><path d="M17.679,109.44l0.898,9.842l63.114,36.925c-0,0 16.54,-9.589 23.263,-15.422c8.296,-7.2 26.516,-27.774 26.516,-27.774l0,-3.438l-63.114,-36.925c0,-0 -16.484,16.266 -24.93,22.399c-7.546,5.478 -25.747,14.393 -25.747,14.393Z" style="fill:#f2f2f2;"/><path d="M68.356,72.648c0,-0 -16.484,16.266 -24.93,22.399c-7.546,5.478 -25.747,14.393 -25.747,14.393l63.114,36.925c-0,-0 16.779,-7.883 23.623,-12.852c8.446,-6.132 27.054,-23.94 27.054,-23.94l-63.114,-36.925Z" style="fill:#f2f2f2;"/><path d="M131.47,113.011l0,-3.438c0,-0 -18.608,17.808 -27.054,23.94c-6.844,4.969 -23.623,12.852 -23.623,12.852l-63.114,-36.925l0.898,9.842l63.114,36.925c-0,0 16.54,-9.589 23.263,-15.422c8.296,-7.2 26.516,-27.774 26.516,-27.774Z" style="fill:#b3b3b3;fill-opacity:0.14;"/><path d="M131.47,113.011l0,-3.438c0,-0 -18.608,17.808 -27.054,23.94c-6.844,4.969 -23.623,12.852 -23.623,12.852l0.898,9.842c-0,0 16.54,-9.589 23.263,-15.422c8.296,-7.2 26.516,-27.774 26.516,-27.774Z" style="fill:#b3b3b3;fill-opacity:0.14;"/><path d="M131.47,110.388l0,-0.226c0,0 -18.418,19.301 -26.864,25.433c-6.844,4.968 -23.618,12.889 -23.618,12.889l0.053,0.627c0,0 16.735,-7.79 23.913,-13.067c8.815,-6.481 26.516,-25.656 26.516,-25.656Z" style="fill:#b3b3b3;fill-opacity:0.14;"/><path d="M131.47,111.455l0,-0.226c0,0 -19.107,20.893 -27.553,27.025c-6.844,4.968 -22.641,13.366 -22.641,13.366l0.057,0.658c-0,0 15.754,-8.298 22.932,-13.575c8.815,-6.481 27.205,-27.248 27.205,-27.248Z" style="fill:#b3b3b3;fill-opacity:0.14;"/><path d="M131.47,110.738l0,-0.088c0,-0 -18.912,20.355 -27.359,26.487c-6.844,4.969 -22.959,13.125 -22.959,13.125l0.027,0.328c-0,-0 15.764,-7.969 22.942,-13.246c8.815,-6.481 27.349,-26.606 27.349,-26.606Z" style="fill:#b3b3b3;fill-opacity:0.14;"/><path d="M131.47,111.758l0,-0.087c0,-0 -18.645,21.474 -27.091,27.606c-6.844,4.969 -22.959,13.867 -22.959,13.867l0.026,0.328c0,-0 15.765,-8.711 22.942,-13.988c8.815,-6.481 27.082,-27.726 27.082,-27.726Z" style="fill:#b3b3b3;fill-opacity:0.14;"/><path d="M131.387,112.635l-0,-0.088c-0,0 -18.44,21.409 -26.886,27.541c-6.844,4.968 -22.973,14.323 -22.973,14.323l0.04,0.406c0,0 15.765,-9.246 22.942,-14.522c8.815,-6.482 26.877,-27.66 26.877,-27.66Z" style="fill:#b3b3b3;fill-opacity:0.14;"/><path d="M14.521,106.197l-0,3.066l65.014,37.535l52.203,-37.401l-0,-3.065l-65.014,-37.536l-52.203,37.401Z" style="fill:#001b35;"/><path d="M66.724,68.796l-52.203,37.401l65.014,37.536l52.203,-37.401l-65.014,-37.536Z" style="fill:#001b35;"/><path d="M79.535,143.733l-65.014,-37.536l-0,3.066l65.014,37.535l52.203,-37.401l-0,-3.065l-52.203,37.401Z" style="fill:#f9f9f9;fill-opacity:0.13;"/><path d="M79.535,143.733l-65.014,-37.536l-0,3.066l65.014,37.535l-0,-3.065Z" style="fill:#f9f9f9;fill-opacity:0.13;"/><path d="M120.465,43.793l-53.741,25.003l65.014,37.536l53.741,-25.003l-65.014,-37.536Z" style="fill:#001b35;"/><path d="M120.465,43.793l-53.741,25.003l65.014,37.536l53.741,-25.003l-65.014,-37.536Z" style="fill:#001b35;"/><path d="M66.724,68.796l65.014,37.536l-0,3.001l53.741,-25.003l0,-3.001l-65.014,-37.536l-53.741,25.003Z" style="fill:#001b35;"/><path d="M120.465,43.793l-53.741,25.003l65.014,37.536l53.741,-25.003l-65.014,-37.536Z" style="fill:#001b35;"/><path d="M70.486,65.165l-8.767,5.279l66.528,36.758l8.85,-5.244l-66.611,-36.793Z" style="fill:#001b35;"/><path d="M70.486,65.165l-0.257,0.236l66.537,36.753l0.331,-0.196l-66.611,-36.793Z" style="fill:#dbdbdb;fill-opacity:0.13;"/><path d="M61.719,70.444l0.014,1.934l66.455,36.586l0.064,-1.765l-66.533,-36.755Z" style="fill:#dbdbdb;fill-opacity:0.13;"/><path d="M131.738,106.332l-0,3.001l53.741,-25.003l0,-3.001l-53.741,25.003Z" style="fill:#fff;fill-opacity:0.12;"/><path d="M137.097,101.958l-8.846,5.241l-0.063,1.765l8.909,-5.143l-0,-1.863Z" style="fill:#001b35;"/><path d="M137.097,101.958l-8.846,5.241l-0.063,1.765l8.909,-5.143l-0,-1.863Z" style="fill:#dbdbdb;fill-opacity:0.13;"/><path d="M81.568,154.838l-0.041,-0.434l-63.059,-36.407l0.032,0.426l63.068,36.415Z" style="fill:#818181;fill-opacity:0.13;"/><path d="M81.329,152.28l-0.053,-0.657l-63.053,-36.4l0.06,0.637l63.046,36.42Z" style="fill:#818181;fill-opacity:0.13;"/><path d="M81.041,149.111l-0.054,-0.634l-63.044,-36.412l0.06,0.635l63.038,36.411Z" style="fill:#818181;fill-opacity:0.13;"/><path d="M81.179,150.59l-0.032,-0.326l-63.038,-36.409l0.031,0.326l63.039,36.409Z" style="fill:#818181;fill-opacity:0.13;"/><path d="M81.441,153.454l-0.032,-0.326l-63.032,-36.403l0.031,0.325l63.033,36.404Z" style="fill:#818181;fill-opacity:0.13;"/></svg>