<?xml version="1.0" encoding="UTF-8" standalone="no"?><!DOCTYPE svg PUBLIC "-//W3C//DTD SVG 1.1//EN" "http://www.w3.org/Graphics/SVG/1.1/DTD/svg11.dtd"><svg width="100%" height="100%" viewBox="0 0 200 200" version="1.1" xmlns="http://www.w3.org/2000/svg" xmlns:xlink="http://www.w3.org/1999/xlink" xml:space="preserve" xmlns:serif="http://www.serif.com/" style="fill-rule:evenodd;clip-rule:evenodd;stroke-linejoin:round;stroke-miterlimit:2;"><path d="M154.16,15.396l-2.324,-1.342l-72.158,21.698l2.324,1.342l0,87.2l72.158,-21.698l-0,-87.2Z" style="fill:#001b35;"/><path d="M154.16,15.396l-72.158,21.698l0,87.2l72.158,-21.698l-0,-87.2Z" style="fill:#f2f2f2;fill-opacity:0.1;"/><path d="M150.416,21.173c0,0 -18.222,11.462 -27.394,14.22c-11.402,3.428 -41.02,6.352 -41.02,6.352l0,77.897c0,-0 29.618,-2.852 41.02,-6.28c9.177,-2.76 27.394,-14.293 27.394,-14.293l0,-77.896Z" style="fill:#eee;"/><path d="M160.246,26.848l-9.83,-5.675c0,0 -18.222,11.462 -27.394,14.22c-11.402,3.428 -41.02,6.352 -41.02,6.352l9.83,5.675l-0,77.897c-0,-0 29.617,-2.851 41.02,-6.28c9.177,-2.76 27.394,-14.292 27.394,-14.292l-0,-77.897Z" style="fill:#eee;"/><path d="M91.832,47.42c-0,0 29.617,-2.923 41.02,-6.352c9.171,-2.758 27.394,-14.22 27.394,-14.22l-9.83,-5.675c0,0 -18.222,11.462 -27.394,14.22c-11.402,3.428 -41.02,6.352 -41.02,6.352l9.83,5.675Z" style="fill:#c9c9c9;fill-opacity:0.32;"/><path d="M83.739,42.748c0,0 29.618,-2.924 41.02,-6.352c9.172,-2.758 27.395,-14.22 27.395,-14.22l-0.933,-0.539c-0,0 -18.223,11.462 -27.394,14.22c-11.403,3.429 -41.021,6.353 -41.021,6.353l0.933,0.538Z" style="fill:#c9c9c9;fill-opacity:0.32;"/><path d="M89.75,46.218c-0,0 29.617,-2.923 41.02,-6.352c9.171,-2.758 27.394,-14.22 27.394,-14.22l-0.933,-0.538c-0,-0 -18.223,11.461 -27.394,14.219c-11.402,3.429 -41.02,6.353 -41.02,6.353l0.933,0.538Z" style="fill:#c9c9c9;fill-opacity:0.32;"/><path d="M85.297,43.648c0,-0 29.618,-2.924 41.02,-6.353c9.172,-2.758 27.394,-14.22 27.394,-14.22l-0.595,-0.343c0,0 -18.222,11.462 -27.394,14.22c-11.402,3.428 -41.02,6.352 -41.02,6.352l0.595,0.344Z" style="fill:#c9c9c9;fill-opacity:0.32;"/><path d="M87.858,45.126c0,0 29.618,-2.924 41.02,-6.352c9.172,-2.758 27.394,-14.22 27.394,-14.22l-0.594,-0.343c-0,-0 -18.223,11.461 -27.395,14.219c-11.402,3.429 -41.02,6.353 -41.02,6.353l0.595,0.343Z" style="fill:#c9c9c9;fill-opacity:0.32;"/><path d="M86.705,44.46c-0,0 29.617,-2.923 41.02,-6.352c9.171,-2.758 27.394,-14.22 27.394,-14.22l-0.595,-0.343c0,-0 -18.223,11.461 -27.394,14.219c-11.402,3.429 -41.02,6.353 -41.02,6.353l0.595,0.343Z" style="fill:#c9c9c9;fill-opacity:0.32;"/><path d="M91.256,47.088c0,0 29.618,-2.924 41.02,-6.353c9.171,-2.757 27.394,-14.219 27.394,-14.219l-0.595,-0.344c0,0 -18.222,11.462 -27.394,14.22c-11.402,3.429 -41.02,6.353 -41.02,6.353l0.595,0.343Z" style="fill:#c9c9c9;fill-opacity:0.32;"/><path d="M82.002,37.094l-47.83,50.281l0,87.2l47.83,-50.281l0,-87.2Z" style="fill:#001b35;"/><path d="M79.66,35.741l-47.83,50.282l-0,87.2l47.83,-50.282l-0,-87.2Z" style="fill:#001b35;"/><path d="M82.002,37.094l-2.342,-1.353l-47.83,50.282l-0,87.2l2.342,1.352l47.83,-50.281l0,-87.2Z" style="fill:#001b35;"/><path d="M82.002,37.094l-47.83,50.281l0,87.2l47.83,-50.281l0,-87.2Z" style="fill:#fff;fill-opacity:0.1;"/><path d="M34.172,87.282l-2.342,-1.353l-0,87.294l2.342,1.352l0,-87.293Z" style="fill:#fff;fill-opacity:0.1;"/><path d="M34.172,87.282l-2.342,-1.353l-0,87.294l2.342,1.352l0,-87.293Z" style="fill:#fff;fill-opacity:0.1;"/><path d="M91.832,47.42l-9.83,-5.675c0,0 -7.765,16.074 -12.568,21.123c-7.486,7.87 -32.348,26.096 -32.348,26.096l0,77.896l9.83,5.675c-0,0 24.89,-18.256 32.376,-26.126c4.796,-5.041 12.54,-21.092 12.54,-21.092l-0,-77.897Z" style="fill:#eee;"/><path d="M37.086,166.86l9.83,5.675l-0,-77.896c-0,0 24.862,-18.226 32.348,-26.096c4.803,-5.049 12.568,-21.123 12.568,-21.123l-9.83,-5.675c0,0 -7.765,16.074 -12.568,21.123c-7.486,7.87 -32.348,26.096 -32.348,26.096l0,77.896Z" style="fill:#7f7f7f;fill-opacity:0.12;"/><path d="M37.891,89.428l0.933,0.539c-0,-0 24.861,-18.226 32.347,-26.096c4.804,-5.049 12.568,-21.123 12.568,-21.123l-0.933,-0.538c0,-0 -7.764,16.073 -12.568,21.123c-7.486,7.869 -32.347,26.095 -32.347,26.095Z" style="fill:#7f7f7f;fill-opacity:0.12;"/><path d="M43.904,92.9l0.933,0.539c-0,-0 24.862,-18.226 32.348,-26.096c4.803,-5.05 12.568,-21.123 12.568,-21.123l-0.933,-0.538c-0,-0 -7.765,16.073 -12.568,21.122c-7.486,7.87 -32.348,26.096 -32.348,26.096Z" style="fill:#7f7f7f;fill-opacity:0.12;"/><path d="M39.831,90.549l0.52,0.3c0,0 24.862,-18.226 32.348,-26.096c4.803,-5.049 12.568,-21.123 12.568,-21.123l-0.52,-0.3c-0,-0 -7.765,16.073 -12.568,21.123c-7.486,7.869 -32.348,26.096 -32.348,26.096Z" style="fill:#7f7f7f;fill-opacity:0.12;"/><path d="M41.22,91.35l0.426,0.247c0,-0 24.862,-18.226 32.348,-26.096c4.803,-5.05 12.568,-21.123 12.568,-21.123l-0.427,-0.246c0,-0 -7.764,16.073 -12.568,21.123c-7.486,7.869 -32.347,26.095 -32.347,26.095Z" style="fill:#7f7f7f;fill-opacity:0.12;"/><path d="M42.39,92.026l0.52,0.3c0,0 24.862,-18.226 32.348,-26.096c4.803,-5.049 12.568,-21.122 12.568,-21.122l-0.521,-0.301c0,0 -7.764,16.073 -12.568,21.123c-7.486,7.87 -32.347,26.096 -32.347,26.096Z" style="fill:#7f7f7f;fill-opacity:0.12;"/><path d="M45.682,93.927l0.427,0.246c-0,0 24.862,-18.226 32.348,-26.096c4.803,-5.049 12.568,-21.122 12.568,-21.122l-0.427,-0.247c0,0 -7.765,16.074 -12.568,21.123c-7.486,7.87 -32.348,26.096 -32.348,26.096Z" style="fill:#7f7f7f;fill-opacity:0.12;"/><path d="M37.086,166.86l9.83,5.675l-0,-77.896l-9.83,-5.675l0,77.896Z" style="fill:#7f7f7f;fill-opacity:0.12;"/><path d="M37.891,167.325l0.933,0.538l-0,-77.896l-0.933,-0.539l-0,77.897Z" style="fill:#7f7f7f;fill-opacity:0.12;"/><path d="M43.888,170.787l0.933,0.539l-0,-77.897l-0.933,-0.538l-0,77.896Z" style="fill:#7f7f7f;fill-opacity:0.12;"/><path d="M39.841,168.451l0.51,0.294l0,-77.896l-0.51,-0.294l0,77.896Z" style="fill:#7f7f7f;fill-opacity:0.12;"/><path d="M42.403,169.93l0.51,0.294l-0,-77.896l-0.51,-0.295l-0,77.897Z" style="fill:#7f7f7f;fill-opacity:0.12;"/><path d="M41.24,169.258l0.405,0.234l-0,-77.896l-0.405,-0.234l-0,77.896Z" style="fill:#7f7f7f;fill-opacity:0.12;"/><path d="M45.688,171.826l0.405,0.234l0,-77.896l-0.405,-0.234l-0,77.896Z" style="fill:#7f7f7f;fill-opacity:0.12;"/><path d="M163.9,32.437c-0,-0 -19.924,9.543 -29.952,11.335c-12.467,2.228 -44.85,2.034 -44.85,2.034l-0,77.896c-0,0 32.383,0.267 44.85,-1.961c10.034,-1.793 29.952,-11.408 29.952,-11.408l-0,-77.896Z" style="fill:#eee;"/><path d="M157.512,73.784c0,-0 -18.223,-1.47 -27.394,-5.221c-11.402,-4.663 -41.02,-22.757 -41.02,-22.757l-0,77.896c-0,0 29.618,18.167 41.02,22.83c9.177,3.753 27.394,5.148 27.394,5.148l0,-77.896Z" style="fill:#eee;"/><path d="M107.888,102.322c0,-0 -5.005,-9.072 -7.524,-16.648c-3.131,-9.419 -11.266,-39.868 -11.266,-39.868l-0,77.896c-0,0 8.135,30.522 11.266,39.941c2.521,7.581 7.524,16.575 7.524,16.575l0,-77.896Z" style="fill:#eee;"/><path d="M89.098,123.702l-0,-77.896c-0,-0 -4.926,17.712 -7.973,23.776c-4.749,9.449 -20.521,32.924 -20.521,32.924l-0,77.896c-0,-0 15.79,-23.511 20.539,-32.96c3.042,-6.054 7.955,-23.74 7.955,-23.74Z" style="fill:#eee;"/><path d="M163.9,32.437c-0,-0 -19.924,9.543 -29.952,11.335c-12.467,2.228 -44.85,2.034 -44.85,2.034l-0,77.896c-0,0 32.383,0.267 44.85,-1.961c10.034,-1.793 29.952,-11.408 29.952,-11.408l-0,-77.896Z" style="fill:#9d9d9d;fill-opacity:0.11;"/><path d="M168.17,51.702c0,-0 -21.061,4.412 -31.662,3.621c-13.178,-0.983 -47.41,-9.517 -47.41,-9.517l-0,77.896c-0,0 34.232,8.608 47.41,9.59c10.607,0.791 31.662,-3.694 31.662,-3.694l0,-77.896Z" style="fill:#eee;"/><path d="M157.512,73.784c0,-0 -18.223,-1.47 -27.394,-5.221c-11.402,-4.663 -41.02,-22.757 -41.02,-22.757l-0,77.896c-0,0 29.618,18.167 41.02,22.83c9.177,3.753 27.394,5.148 27.394,5.148l0,-77.896Z" style="fill:#9d9d9d;fill-opacity:0.11;"/><path d="M134.795,87.113c0,-0 -12.172,-5.02 -18.298,-10.558c-7.616,-6.884 -27.399,-30.749 -27.399,-30.749l-0,77.896c-0,0 19.783,23.938 27.399,30.822c6.13,5.541 18.298,10.485 18.298,10.485l0,-77.896Z" style="fill:#eee;"/><path d="M107.888,102.322c0,-0 -5.005,-9.072 -7.524,-16.648c-3.131,-9.419 -11.266,-39.868 -11.266,-39.868l-0,77.896c-0,0 8.135,30.522 11.266,39.941c2.521,7.581 7.524,16.575 7.524,16.575l0,-77.896Z" style="fill:#9d9d9d;fill-opacity:0.11;"/><path d="M89.098,123.702l-0,-77.896c-0,-0 -4.926,17.712 -7.973,23.776c-4.749,9.449 -20.521,32.924 -20.521,32.924l-0,77.896c-0,-0 15.79,-23.511 20.539,-32.96c3.042,-6.054 7.955,-23.74 7.955,-23.74Z" style="fill:#9d9d9d;fill-opacity:0.11;"/><path d="M89.098,123.702l-0,-77.896c-0,-0 -1.462,18.561 -2.366,25.149c-1.41,10.268 -6.091,36.459 -6.091,36.459l0,77.896c0,-0 4.687,-26.23 6.096,-36.498c0.903,-6.578 2.361,-25.11 2.361,-25.11Z" style="fill:#eee;"/></svg>