<?xml version="1.0" encoding="UTF-8" standalone="no"?><!DOCTYPE svg PUBLIC "-//W3C//DTD SVG 1.1//EN" "http://www.w3.org/Graphics/SVG/1.1/DTD/svg11.dtd"><svg width="100%" height="100%" viewBox="0 0 200 200" version="1.1" xmlns="http://www.w3.org/2000/svg" xmlns:xlink="http://www.w3.org/1999/xlink" xml:space="preserve" xmlns:serif="http://www.serif.com/" style="fill-rule:evenodd;clip-rule:evenodd;stroke-linejoin:round;stroke-miterlimit:2;"><path d="M156.113,23.809l-2.244,-1.296l-69.663,20.948l2.243,1.296l0,84.186l69.664,-20.948l0,-84.186Z" style="fill:#001b35;"/><path d="M156.113,23.809l-69.664,20.948l0,84.186l69.664,-20.948l0,-84.186Z" style="fill:#f2f2f2;fill-opacity:0.1;"/><path d="M152.499,29.387c-0,-0 -17.593,11.065 -26.447,13.728c-11.009,3.31 -39.603,6.133 -39.603,6.133l0,75.204c0,-0 28.594,-2.753 39.603,-6.063c8.86,-2.664 26.447,-13.798 26.447,-13.798l-0,-75.204Z" style="fill:#eee;"/><path d="M161.989,34.866l-9.49,-5.479c-0,-0 -17.593,11.065 -26.447,13.728c-11.009,3.31 -39.603,6.133 -39.603,6.133l9.49,5.479l0,75.204c0,-0 28.594,-2.753 39.603,-6.063c8.86,-2.664 26.447,-13.798 26.447,-13.798l-0,-75.204Z" style="fill:#eee;"/><path d="M161.989,34.866c-0,-0 -17.593,11.065 -26.447,13.728c-11.009,3.31 -39.603,6.133 -39.603,6.133l0,75.204c0,-0 28.594,-2.753 39.603,-6.063c8.86,-2.664 26.447,-13.798 26.447,-13.798l-0,-75.204Z" style="fill:#dedede;fill-opacity:0.29;"/><path d="M95.939,54.727c0,-0 28.594,-2.823 39.603,-6.133c8.854,-2.663 26.447,-13.728 26.447,-13.728l-9.49,-5.479c-0,-0 -17.593,11.065 -26.447,13.728c-11.009,3.31 -39.603,6.133 -39.603,6.133l9.49,5.479Z" style="fill:#c9c9c9;fill-opacity:0.32;"/><path d="M88.127,50.216c-0,0 28.594,-2.823 39.602,-6.133c8.854,-2.662 26.447,-13.728 26.447,-13.728l-0.9,-0.52c-0,-0 -17.593,11.066 -26.448,13.728c-11.008,3.31 -39.602,6.133 -39.602,6.133l0.901,0.52Z" style="fill:#c9c9c9;fill-opacity:0.32;"/><path d="M93.929,53.566c0,0 28.594,-2.823 39.603,-6.133c8.854,-2.662 26.447,-13.728 26.447,-13.728l-0.901,-0.52c0,0 -17.593,11.066 -26.447,13.728c-11.008,3.31 -39.602,6.133 -39.602,6.133l0.9,0.52Z" style="fill:#c9c9c9;fill-opacity:0.32;"/><path d="M89.631,51.084c-0,0 28.594,-2.822 39.602,-6.133c8.854,-2.662 26.447,-13.728 26.447,-13.728l-0.574,-0.331c-0,-0 -17.593,11.065 -26.447,13.728c-11.009,3.31 -39.603,6.133 -39.603,6.133l0.575,0.331Z" style="fill:#c9c9c9;fill-opacity:0.32;"/><path d="M92.103,52.512c0,-0 28.594,-2.823 39.602,-6.133c8.855,-2.663 26.448,-13.728 26.448,-13.728l-0.575,-0.332c0,0 -17.593,11.066 -26.447,13.728c-11.008,3.31 -39.602,6.133 -39.602,6.133l0.574,0.332Z" style="fill:#c9c9c9;fill-opacity:0.32;"/><path d="M90.989,51.869c0,0 28.595,-2.823 39.603,-6.133c8.854,-2.663 26.447,-13.728 26.447,-13.728l-0.574,-0.332c-0,0 -17.593,11.066 -26.448,13.728c-11.008,3.311 -39.602,6.133 -39.602,6.133l0.574,0.332Z" style="fill:#c9c9c9;fill-opacity:0.32;"/><path d="M95.383,54.406c0,-0 28.595,-2.823 39.603,-6.133c8.854,-2.663 26.447,-13.728 26.447,-13.728l-0.574,-0.332c-0,0 -17.593,11.066 -26.448,13.728c-11.008,3.31 -39.602,6.133 -39.602,6.133l0.574,0.332Z" style="fill:#c9c9c9;fill-opacity:0.32;"/><path d="M86.449,44.757l-46.176,48.544l-0,84.186l46.176,-48.544l0,-84.186Z" style="fill:#001b35;"/><path d="M84.188,43.451l-46.177,48.544l0,84.186l46.177,-48.544l-0,-84.186Z" style="fill:#001b35;"/><path d="M86.449,44.757l-2.261,-1.306l-46.177,48.544l0,84.186l2.262,1.306l46.176,-48.544l0,-84.186Z" style="fill:#001b35;"/><path d="M86.449,44.757l-46.176,48.544l-0,84.186l46.176,-48.544l0,-84.186Z" style="fill:#fff;fill-opacity:0.1;"/><path d="M40.273,93.21l-2.262,-1.306l0,84.277l2.262,1.306l-0,-84.277Z" style="fill:#fff;fill-opacity:0.1;"/><path d="M40.273,93.21l-2.262,-1.306l0,84.277l2.262,1.306l-0,-84.277Z" style="fill:#fff;fill-opacity:0.1;"/><path d="M95.939,54.727l-9.49,-5.479c0,-0 -7.496,15.517 -12.133,20.392c-7.228,7.598 -31.23,25.194 -31.23,25.194l-0,75.204l9.49,5.479c-0,0 24.03,-17.625 31.257,-25.223c4.63,-4.867 12.106,-20.363 12.106,-20.363l0,-75.204Z" style="fill:#eee;"/><path d="M43.086,170.038l9.49,5.479l-0,-75.204c-0,0 24.002,-17.596 31.23,-25.194c4.637,-4.875 12.133,-20.392 12.133,-20.392l-9.49,-5.479c0,-0 -7.496,15.517 -12.133,20.392c-7.228,7.598 -31.23,25.194 -31.23,25.194l-0,75.204Z" style="fill:#7f7f7f;fill-opacity:0.12;"/><path d="M43.863,95.283l0.9,0.52c0,-0 24.003,-17.596 31.23,-25.194c4.637,-4.875 12.134,-20.393 12.134,-20.393l-0.901,-0.52c-0,0 -7.496,15.518 -12.134,20.393c-7.227,7.598 -31.229,25.194 -31.229,25.194Z" style="fill:#7f7f7f;fill-opacity:0.12;"/><path d="M49.668,98.634l0.901,0.52c-0,0 24.002,-17.596 31.229,-25.193c4.638,-4.875 12.134,-20.393 12.134,-20.393l-0.901,-0.52c0,-0 -7.496,15.518 -12.133,20.393c-7.228,7.597 -31.23,25.193 -31.23,25.193Z" style="fill:#7f7f7f;fill-opacity:0.12;"/><path d="M45.736,96.364l0.502,0.29c0,0 24.003,-17.596 31.23,-25.194c4.637,-4.875 12.134,-20.392 12.134,-20.392l-0.503,-0.29c0,-0 -7.496,15.517 -12.134,20.392c-7.227,7.598 -31.229,25.194 -31.229,25.194Z" style="fill:#7f7f7f;fill-opacity:0.12;"/><path d="M47.076,97.138l0.412,0.238c0,-0 24.003,-17.596 31.23,-25.194c4.637,-4.875 12.134,-20.393 12.134,-20.393l-0.412,-0.237c-0,-0 -7.497,15.517 -12.134,20.392c-7.227,7.598 -31.23,25.194 -31.23,25.194Z" style="fill:#7f7f7f;fill-opacity:0.12;"/><path d="M48.206,97.79l0.502,0.29c0,0 24.003,-17.596 31.23,-25.193c4.637,-4.875 12.134,-20.393 12.134,-20.393l-0.503,-0.29c0,-0 -7.496,15.517 -12.133,20.392c-7.228,7.598 -31.23,25.194 -31.23,25.194Z" style="fill:#7f7f7f;fill-opacity:0.12;"/><path d="M51.385,99.626l0.412,0.237c-0,0 24.002,-17.596 31.229,-25.193c4.638,-4.875 12.134,-20.393 12.134,-20.393l-0.412,-0.238c0,0 -7.496,15.518 -12.133,20.393c-7.228,7.598 -31.23,25.194 -31.23,25.194Z" style="fill:#7f7f7f;fill-opacity:0.12;"/><path d="M43.086,170.038l9.49,5.479l-0,-75.204l-9.49,-5.479l-0,75.204Z" style="fill:#7f7f7f;fill-opacity:0.12;"/><path d="M43.863,170.487l0.9,0.52l0,-75.204l-0.9,-0.52l-0,75.204Z" style="fill:#7f7f7f;fill-opacity:0.12;"/><path d="M49.652,173.829l0.901,0.52l0,-75.204l-0.901,-0.52l0,75.204Z" style="fill:#7f7f7f;fill-opacity:0.12;"/><path d="M45.746,171.574l0.492,0.284l0,-75.204l-0.492,-0.284l-0,75.204Z" style="fill:#7f7f7f;fill-opacity:0.12;"/><path d="M48.219,173.002l0.492,0.284l0,-75.204l-0.492,-0.284l-0,75.204Z" style="fill:#7f7f7f;fill-opacity:0.12;"/><path d="M47.096,172.353l0.391,0.226l0,-75.204l-0.391,-0.226l-0,75.204Z" style="fill:#7f7f7f;fill-opacity:0.12;"/><path d="M51.39,174.833l0.392,0.226l-0,-75.204l-0.392,-0.226l0,75.204Z" style="fill:#7f7f7f;fill-opacity:0.12;"/></svg>