<?xml version="1.0" encoding="UTF-8" standalone="no"?><!DOCTYPE svg PUBLIC "-//W3C//DTD SVG 1.1//EN" "http://www.w3.org/Graphics/SVG/1.1/DTD/svg11.dtd"><svg width="100%" height="100%" viewBox="0 0 200 200" version="1.1" xmlns="http://www.w3.org/2000/svg" xmlns:xlink="http://www.w3.org/1999/xlink" xml:space="preserve" xmlns:serif="http://www.serif.com/" style="fill-rule:evenodd;clip-rule:evenodd;stroke-linejoin:round;stroke-miterlimit:2;"><path d="M66.976,17.019l-0,123.789l76.214,44.002l2.647,-1.529l0,-123.789l-76.214,-44.002l-2.647,1.529Z" style="fill:#6c5046;"/><path d="M143.412,60.962l-6.662,3.847l-0,123.719l6.662,-3.846l-0,-123.72Z" style="fill:#efefef;"/><path d="M66.976,17.019l76.214,44.002l-0,123.789l2.647,-1.529l0,-123.789l-76.214,-44.002l-2.647,1.529Z" style="fill:#858585;fill-opacity:0.28;"/><path d="M57.888,22.266l0,123.789l76.214,44.002l2.648,-1.529l-0,-123.789l-76.214,-44.002l-2.648,1.529Z" style="fill:#6c5046;"/><path d="M57.888,22.266l76.214,44.002l0,123.789l2.648,-1.529l-0,-123.789l-76.214,-44.002l-2.648,1.529Z" style="fill:#858585;fill-opacity:0.28;"/><path d="M67.138,16.925l-6.602,3.812l76.274,44.037l6.602,-3.812l-76.274,-44.037Z" style="fill:#efefef;"/><path d="M64.055,18.705l-0.436,0.252l76.274,44.037l0.436,-0.252l-76.274,-44.037Z" style="fill:#858585;fill-opacity:0.28;"/><path d="M65.824,17.684l-0.382,0.22l76.274,44.037l0.382,-0.22l-76.274,-44.037Z" style="fill:#858585;fill-opacity:0.28;"/><path d="M61.404,20.236l-0.189,0.109l76.274,44.037l0.189,-0.109l-76.274,-44.037Z" style="fill:#858585;fill-opacity:0.28;"/><path d="M66.583,17.246l-0.17,0.098l76.275,44.037l0.169,-0.098l-76.274,-44.037Z" style="fill:#858585;fill-opacity:0.28;"/><path d="M62.977,19.328l-0.189,0.109l76.274,44.037l0.189,-0.109l-76.274,-44.037Z" style="fill:#858585;fill-opacity:0.28;"/><path d="M62.431,19.643l-0.272,0.157l76.274,44.037l0.273,-0.157l-76.275,-44.037Z" style="fill:#858585;fill-opacity:0.28;"/><path d="M140.319,62.748l-0.436,0.252l0,123.719l0.436,-0.252l0,-123.719Z" style="fill:#858585;fill-opacity:0.28;"/><path d="M142.089,61.726l-0.382,0.221l-0,123.719l0.382,-0.22l-0,-123.72Z" style="fill:#858585;fill-opacity:0.28;"/><path d="M137.668,64.279l-0.189,0.109l0,123.719l0.189,-0.109l0,-123.719Z" style="fill:#858585;fill-opacity:0.28;"/><path d="M142.847,61.289l-0.169,0.097l-0,123.72l0.169,-0.098l0,-123.719Z" style="fill:#858585;fill-opacity:0.28;"/><path d="M139.241,63.371l-0.189,0.109l0,123.719l0.189,-0.109l0,-123.719Z" style="fill:#858585;fill-opacity:0.28;"/><path d="M138.696,63.685l-0.273,0.158l0,123.719l0.273,-0.157l-0,-123.72Z" style="fill:#858585;fill-opacity:0.28;"/><path d="M69.623,15.49l-11.773,6.798l2.485,1.435l11.774,-6.798l-2.486,-1.435Z" style="fill:#6c5046;"/><path d="M69.662,15.513l-11.774,6.797l2.486,1.435l11.773,-6.797l-2.485,-1.435Z" style="fill:#858585;fill-opacity:0.16;"/></svg>
