<?xml version="1.0" encoding="UTF-8" standalone="no"?><!DOCTYPE svg PUBLIC "-//W3C//DTD SVG 1.1//EN" "http://www.w3.org/Graphics/SVG/1.1/DTD/svg11.dtd"><svg width="100%" height="100%" viewBox="0 0 200 200" version="1.1" xmlns="http://www.w3.org/2000/svg" xmlns:xlink="http://www.w3.org/1999/xlink" xml:space="preserve" xmlns:serif="http://www.serif.com/" style="fill-rule:evenodd;clip-rule:evenodd;stroke-linejoin:round;stroke-miterlimit:2;"><path d="M79.842,122.965l54.265,31.33l3.274,-1.89l-0,-85.404l-54.265,-31.33l-3.274,1.89l-0,85.404Z" style="fill:#255c2b;"/><path d="M79.842,37.561l54.265,31.33l-0,85.404l3.274,-1.89l-0,-85.404l-54.265,-31.33l-3.274,1.89Z" style="fill:#808080;fill-opacity:0.38;"/><path d="M137.381,67.001l-3.274,1.89l-0,85.404l3.274,-1.89l-0,-85.404Z" style="fill:#808080;fill-opacity:0.38;"/><path d="M79.842,37.561l-14.584,8.42l54.265,31.33l14.584,-8.42l-54.265,-31.33Z" style="fill:#eee;"/><path d="M134.107,68.891l-13.949,8.053l0,85.404l13.949,-8.053l-0,-85.404Z" style="fill:#eee;"/><path d="M130.676,66.91l-13.949,8.053l3.495,2.018l13.948,-8.054l-3.494,-2.017Z" style="fill:#255c2b;"/><path d="M130.676,66.91l-13.949,8.053l3.495,2.018l13.948,-8.054l-3.494,-2.017Z" style="fill:#255c2b;"/><path d="M130.676,66.91l-13.949,8.053l3.495,2.018l13.948,-8.054l-3.494,-2.017Z" style="fill:#255c2b;"/><path d="M62.619,132.908l54.265,31.33l3.274,-1.89l0,-85.404l-54.265,-31.33l-3.274,1.89l0,85.404Z" style="fill:#255c2b;"/><path d="M62.619,47.504l54.265,31.33l0,85.404l3.274,-1.89l0,-85.404l-54.265,-31.33l-3.274,1.89Z" style="fill:#808080;fill-opacity:0.38;"/><path d="M120.158,76.944l-3.274,1.89l0,85.404l3.274,-1.89l0,-85.404Z" style="fill:#808080;fill-opacity:0.38;"/><path d="M130.676,66.91l-13.949,8.053l3.495,2.018l13.948,-8.054l-3.494,-2.017Z" style="fill:#808080;fill-opacity:0.29;"/><path d="M137.381,67.001l-20.654,11.924l-0,85.404l20.654,-11.924l-0,-85.404Z" style="fill:#255c2b;"/><path d="M137.381,67.001l-20.654,11.924l-0,85.404l20.654,-11.924l-0,-85.404Z" style="fill:#808080;fill-opacity:0.11;"/><path d="M67.589,44.635l-0.422,0.244l50.834,29.349l0.422,-0.244l-50.834,-29.349Z" style="fill:#808080;fill-opacity:0.11;"/><path d="M78.426,38.378l-0.743,0.429l50.834,29.349l0.743,-0.429l-50.834,-29.349Z" style="fill:#808080;fill-opacity:0.11;"/><path d="M76.486,39.498l-0.423,0.244l50.834,29.349l0.423,-0.244l-50.834,-29.349Z" style="fill:#808080;fill-opacity:0.11;"/><path d="M75.286,40.191l-0.422,0.244l50.834,29.349l0.422,-0.244l-50.834,-29.349Z" style="fill:#808080;fill-opacity:0.11;"/><path d="M73.465,41.242l-0.221,0.128l50.834,29.349l0.221,-0.128l-50.834,-29.349Z" style="fill:#808080;fill-opacity:0.11;"/><path d="M71.446,42.408l-0.945,0.546l50.834,29.348l0.945,-0.545l-50.834,-29.349Z" style="fill:#808080;fill-opacity:0.11;"/><path d="M69.305,43.645l-0.596,0.344l50.833,29.349l0.596,-0.344l-50.833,-29.349Z" style="fill:#808080;fill-opacity:0.11;"/></svg>
