<?xml version="1.0" encoding="UTF-8" standalone="no"?><!DOCTYPE svg PUBLIC "-//W3C//DTD SVG 1.1//EN" "http://www.w3.org/Graphics/SVG/1.1/DTD/svg11.dtd"><svg width="100%" height="100%" viewBox="0 0 100 100" version="1.1" xmlns="http://www.w3.org/2000/svg" xmlns:xlink="http://www.w3.org/1999/xlink" xml:space="preserve" xmlns:serif="http://www.serif.com/" style="fill-rule:evenodd;clip-rule:evenodd;stroke-linejoin:round;stroke-miterlimit:2;"><g><path d="M49.797,92.693l-36.203,-20.902l-0,-41.804l36.203,20.902l-0,41.804Z" style="fill:#a0c6cf;fill-rule:nonzero;"/><path d="M86,71.791l-36.203,20.902l-0,-41.804l36.203,-20.902l-0,41.804Z" style="fill:#a0c6cf;fill-rule:nonzero;"/><path d="M49.797,50.889l-36.203,-20.902l36.203,-20.902l36.203,20.902l-36.203,20.902Z" style="fill:#a0c6cf;fill-rule:nonzero;"/></g><path d="M49.797,92.693l-36.203,-20.902l-0,-41.804l36.203,20.902l-0,41.804Z" style="fill:#828282;fill-opacity:0.22;fill-rule:nonzero;"/><path d="M86,71.791l-36.203,20.902l-0,-41.804l36.203,-20.902l-0,41.804Z" style="fill:#828282;fill-opacity:0.22;fill-rule:nonzero;"/><path d="M86,71.791l-36.203,20.902l-0,-41.804l36.203,-20.902l-0,41.804Z" style="fill:#828282;fill-opacity:0.22;fill-rule:nonzero;"/></svg>
