<?xml version="1.0" encoding="UTF-8" standalone="no"?><!DOCTYPE svg PUBLIC "-//W3C//DTD SVG 1.1//EN" "http://www.w3.org/Graphics/SVG/1.1/DTD/svg11.dtd"><svg width="100%" height="100%" viewBox="0 0 200 200" version="1.1" xmlns="http://www.w3.org/2000/svg" xmlns:xlink="http://www.w3.org/1999/xlink" xml:space="preserve" xmlns:serif="http://www.serif.com/" style="fill-rule:evenodd;clip-rule:evenodd;stroke-linejoin:round;stroke-miterlimit:2;"><path d="M80.372,145.467c10.833,-5.788 28.423,-5.788 39.256,-0c10.833,5.788 10.833,15.187 0,20.975c-10.833,5.788 -28.423,5.788 -39.256,0c-10.833,-5.788 -10.833,-15.187 -0,-20.975Z" style="fill:#ededed;"/><path d="M72.271,155.336c0.279,-3.589 2.979,-7.132 8.101,-9.869c10.833,-5.788 28.423,-5.788 39.256,-0c5.121,2.736 7.821,6.279 8.101,9.865l-0,0.004c-0.279,3.588 -2.979,7.132 -8.101,9.869c-10.833,5.788 -28.423,5.788 -39.256,-0c-5.122,-2.737 -7.822,-6.281 -8.101,-9.869Zm-0.023,0.529l-0,0.001l-0,-0.001Zm55.504,0l0,0.001l0,-0.001Zm-55.503,-0.091l0,0.005l0,-0.005Zm55.502,0l-0,0.005l-0,-0.005Zm-55.499,-0.091l-0,0.008l-0,-0.008Zm55.496,0l0,0.008l0,-0.008Zm-0.003,-0.09l0,0.01l-0,-0.01Zm-55.49,-0l-0,0.01l0,-0.01Zm0.005,-0.091l-0.001,0.012l0.001,-0.012Zm55.48,-0l0.001,0.012l-0.001,-0.012Zm-55.474,-0.091l-0.001,0.014l0.001,-0.014Zm55.468,0l0.001,0.014l-0.001,-0.014Z" style="fill:#d2d2d2;"/><path d="M82.465,144.349c9.678,-5.172 25.392,-5.172 35.07,-0c9.678,5.171 9.678,13.567 0,18.738c-9.678,5.172 -25.392,5.172 -35.07,0c-9.678,-5.171 -9.678,-13.567 -0,-18.738Z" style="fill:#676767;fill-opacity:0.25;"/><path d="M80.372,140.765c10.833,-5.789 28.423,-5.789 39.256,-0c10.833,5.788 10.833,15.186 0,20.975c-10.833,5.788 -28.423,5.788 -39.256,-0c-10.833,-5.789 -10.833,-15.187 -0,-20.975Z" style="fill:#ededed;"/><path d="M72.271,150.633c0.279,-3.588 2.979,-7.132 8.101,-9.868c10.833,-5.789 28.423,-5.789 39.256,-0c5.121,2.736 7.821,6.278 8.101,9.864l-0,0.004c-0.279,3.589 -2.979,7.133 -8.101,9.869c-10.833,5.789 -28.423,5.789 -39.256,0c-5.122,-2.736 -7.822,-6.28 -8.101,-9.869Zm-0.023,0.53l-0,0.001l-0,-0.001Zm55.504,-0l0,0.001l0,-0.001Zm-55.503,-0.091l0,0.005l0,-0.005Zm55.502,-0l-0,0.005l-0,-0.005Zm-55.499,-0.091l-0,0.008l-0,-0.008Zm55.496,0l0,0.008l0,-0.008Zm-0.003,-0.091l0,0.011l-0,-0.011Zm-55.49,0l-0,0.011l0,-0.011Zm0.005,-0.09l-0.001,0.012l0.001,-0.012Zm55.48,-0l0.001,0.012l-0.001,-0.012Zm-55.474,-0.091l-0.001,0.014l0.001,-0.014Zm55.468,-0l0.001,0.014l-0.001,-0.014Z" style="fill:#d2d2d2;"/><path d="M82.465,139.646c9.678,-5.171 25.392,-5.171 35.07,0c9.678,5.171 9.678,13.568 0,18.739c-9.678,5.171 -25.392,5.171 -35.07,0c-9.678,-5.171 -9.678,-13.568 -0,-18.739Z" style="fill:#676767;fill-opacity:0.25;"/><path d="M80.372,135.935c10.833,-5.788 28.423,-5.788 39.256,0c10.833,5.788 10.833,15.187 0,20.975c-10.833,5.789 -28.423,5.789 -39.256,0c-10.833,-5.788 -10.833,-15.187 -0,-20.975Z" style="fill:#ededed;"/><path d="M72.271,145.804c0.279,-3.588 2.979,-7.132 8.101,-9.869c10.833,-5.788 28.423,-5.788 39.256,0c5.121,2.736 7.821,6.279 8.101,9.865l-0,0.004c-0.279,3.589 -2.979,7.132 -8.101,9.869c-10.833,5.788 -28.423,5.788 -39.256,0c-5.122,-2.737 -7.822,-6.28 -8.101,-9.869Zm-0.023,0.53l-0,0l-0,-0Zm55.504,-0l0,0l0,-0Zm-55.503,-0.091l0,0.004l0,-0.004Zm55.502,-0l-0,0.004l-0,-0.004Zm-55.499,-0.091l-0,0.008l-0,-0.008Zm55.496,-0l0,0.008l0,-0.008Zm-0.003,-0.091l0,0.01l-0,-0.01Zm-55.49,-0l-0,0.01l0,-0.01Zm0.005,-0.091l-0.001,0.013l0.001,-0.013Zm55.48,0l0.001,0.013l-0.001,-0.013Zm-55.474,-0.09l-0.001,0.014l0.001,-0.014Zm55.468,-0l0.001,0.014l-0.001,-0.014Z" style="fill:#d2d2d2;"/><path d="M82.465,134.817c9.678,-5.171 25.392,-5.171 35.07,-0c9.678,5.171 9.678,13.568 0,18.739c-9.678,5.171 -25.392,5.171 -35.07,-0c-9.678,-5.171 -9.678,-13.568 -0,-18.739Z" style="fill:#676767;fill-opacity:0.25;"/><path d="M80.372,131.255c10.833,-5.788 28.423,-5.788 39.256,0c10.833,5.789 10.833,15.187 0,20.976c-10.833,5.788 -28.423,5.788 -39.256,-0c-10.833,-5.789 -10.833,-15.187 -0,-20.976Z" style="fill:#ededed;"/><path d="M72.271,141.124c0.279,-3.588 2.979,-7.132 8.101,-9.869c10.833,-5.788 28.423,-5.788 39.256,0c5.121,2.736 7.821,6.279 8.101,9.865l-0,0.004c-0.279,3.589 -2.979,7.132 -8.101,9.869c-10.833,5.788 -28.423,5.788 -39.256,0c-5.122,-2.737 -7.822,-6.28 -8.101,-9.869Zm-0.023,0.53l-0,0l-0,-0Zm55.504,-0l0,0l0,-0Zm-55.503,-0.091l0,0.005l0,-0.005Zm55.502,-0l-0,0.005l-0,-0.005Zm-55.499,-0.091l-0,0.008l-0,-0.008Zm55.496,-0l0,0.008l0,-0.008Zm-0.003,-0.091l0,0.011l-0,-0.011Zm-55.49,0l-0,0.011l0,-0.011Zm0.005,-0.091l-0.001,0.013l0.001,-0.013Zm55.48,0l0.001,0.013l-0.001,-0.013Zm-55.474,-0.09l-0.001,0.014l0.001,-0.014Zm55.468,-0l0.001,0.014l-0.001,-0.014Z" style="fill:#d2d2d2;"/><path d="M82.465,130.137c9.678,-5.171 25.392,-5.171 35.07,0c9.678,5.171 9.678,13.568 0,18.739c-9.678,5.171 -25.392,5.171 -35.07,-0c-9.678,-5.171 -9.678,-13.568 -0,-18.739Z" style="fill:#676767;fill-opacity:0.25;"/><path d="M80.372,126.643c10.833,-5.789 28.423,-5.789 39.256,-0c10.833,5.788 10.833,15.187 0,20.975c-10.833,5.788 -28.423,5.788 -39.256,-0c-10.833,-5.788 -10.833,-15.187 -0,-20.975Z" style="fill:#ededed;"/><path d="M72.271,136.511c0.279,-3.588 2.979,-7.132 8.101,-9.868c10.833,-5.789 28.423,-5.789 39.256,-0c5.121,2.736 7.821,6.279 8.101,9.864l-0,0.004c-0.279,3.589 -2.979,7.133 -8.101,9.869c-10.833,5.789 -28.423,5.789 -39.256,0c-5.122,-2.736 -7.822,-6.28 -8.101,-9.869Zm-0.023,0.53l-0,0.001l-0,-0.001Zm55.504,-0l0,0.001l0,-0.001Zm-55.503,-0.091l0,0.005l0,-0.005Zm55.502,0l-0,0.005l-0,-0.005Zm-55.499,-0.091l-0,0.008l-0,-0.008Zm55.496,0l0,0.008l0,-0.008Zm-0.003,-0.091l0,0.011l-0,-0.011Zm-55.49,0l-0,0.011l0,-0.011Zm0.005,-0.09l-0.001,0.012l0.001,-0.012Zm55.48,-0l0.001,0.012l-0.001,-0.012Zm-55.474,-0.091l-0.001,0.014l0.001,-0.014Zm55.468,0l0.001,0.014l-0.001,-0.014Z" style="fill:#d2d2d2;"/><path d="M82.465,125.524c9.678,-5.171 25.392,-5.171 35.07,0c9.678,5.171 9.678,13.568 0,18.739c-9.678,5.171 -25.392,5.171 -35.07,0c-9.678,-5.171 -9.678,-13.568 -0,-18.739Z" style="fill:#676767;fill-opacity:0.25;"/><path d="M80.372,121.963c10.833,-5.789 28.423,-5.789 39.256,-0c10.833,5.788 10.833,15.187 0,20.975c-10.833,5.788 -28.423,5.788 -39.256,-0c-10.833,-5.788 -10.833,-15.187 -0,-20.975Z" style="fill:#ededed;"/><path d="M72.271,131.832c0.279,-3.589 2.979,-7.133 8.101,-9.869c10.833,-5.789 28.423,-5.789 39.256,-0c5.121,2.736 7.821,6.279 8.101,9.865l-0,0.004c-0.279,3.588 -2.979,7.132 -8.101,9.869c-10.833,5.788 -28.423,5.788 -39.256,-0c-5.122,-2.737 -7.822,-6.281 -8.101,-9.869Zm-0.023,0.529l-0,0.001l-0,-0.001Zm55.504,0l0,0.001l0,-0.001Zm-55.503,-0.091l0,0.005l0,-0.005Zm55.502,0l-0,0.005l-0,-0.005Zm-55.499,-0.091l-0,0.008l-0,-0.008Zm55.496,0l0,0.008l0,-0.008Zm-0.003,-0.091l0,0.011l-0,-0.011Zm-55.49,0l-0,0.011l0,-0.011Zm0.005,-0.09l-0.001,0.012l0.001,-0.012Zm55.48,-0l0.001,0.012l-0.001,-0.012Zm-55.474,-0.091l-0.001,0.014l0.001,-0.014Zm55.468,0l0.001,0.014l-0.001,-0.014Z" style="fill:#d2d2d2;"/><path d="M82.465,120.845c9.678,-5.172 25.392,-5.172 35.07,-0c9.678,5.171 9.678,13.567 0,18.738c-9.678,5.172 -25.392,5.172 -35.07,0c-9.678,-5.171 -9.678,-13.567 -0,-18.738Z" style="fill:#676767;fill-opacity:0.25;"/><path d="M80.372,117.196c10.833,-5.788 28.423,-5.788 39.256,0c10.833,5.789 10.833,15.187 0,20.976c-10.833,5.788 -28.423,5.788 -39.256,-0c-10.833,-5.789 -10.833,-15.187 -0,-20.976Z" style="fill:#ededed;"/><path d="M72.271,127.065c0.279,-3.588 2.979,-7.132 8.101,-9.869c10.833,-5.788 28.423,-5.788 39.256,0c5.121,2.736 7.821,6.279 8.101,9.865l-0,0.004c-0.279,3.589 -2.979,7.132 -8.101,9.869c-10.833,5.788 -28.423,5.788 -39.256,0c-5.122,-2.737 -7.822,-6.28 -8.101,-9.869Zm-0.023,0.53l-0,0l-0,-0Zm55.504,-0l0,0l0,-0Zm-55.503,-0.091l0,0.005l0,-0.005Zm55.502,-0l-0,0.005l-0,-0.005Zm-55.499,-0.091l-0,0.008l-0,-0.008Zm55.496,-0l0,0.008l0,-0.008Zm-0.003,-0.091l0,0.011l-0,-0.011Zm-55.49,0l-0,0.011l0,-0.011Zm0.005,-0.091l-0.001,0.013l0.001,-0.013Zm55.48,0l0.001,0.013l-0.001,-0.013Zm-55.474,-0.09l-0.001,0.014l0.001,-0.014Zm55.468,-0l0.001,0.014l-0.001,-0.014Z" style="fill:#d2d2d2;"/><path d="M82.465,116.078c9.678,-5.171 25.392,-5.171 35.07,0c9.678,5.171 9.678,13.568 0,18.739c-9.678,5.171 -25.392,5.171 -35.07,-0c-9.678,-5.171 -9.678,-13.568 -0,-18.739Z" style="fill:#676767;fill-opacity:0.25;"/><path d="M80.372,112.516c10.833,-5.788 28.423,-5.788 39.256,0c10.833,5.789 10.833,15.187 0,20.976c-10.833,5.788 -28.423,5.788 -39.256,-0c-10.833,-5.789 -10.833,-15.187 -0,-20.976Z" style="fill:#ededed;"/><path d="M72.271,122.385c0.279,-3.588 2.979,-7.132 8.101,-9.869c10.833,-5.788 28.423,-5.788 39.256,0c5.121,2.737 7.821,6.279 8.101,9.865l-0,0.004c-0.279,3.589 -2.979,7.133 -8.101,9.869c-10.833,5.789 -28.423,5.789 -39.256,0c-5.122,-2.736 -7.822,-6.28 -8.101,-9.869Zm-0.023,0.53l-0,0l-0,-0Zm55.504,-0l0,0l0,-0Zm-55.503,-0.091l0,0.005l0,-0.005Zm55.502,-0l-0,0.005l-0,-0.005Zm-55.499,-0.091l-0,0.008l-0,-0.008Zm55.496,0l0,0.008l0,-0.008Zm-0.003,-0.091l0,0.011l-0,-0.011Zm-55.49,0l-0,0.011l0,-0.011Zm0.005,-0.09l-0.001,0.012l0.001,-0.012Zm55.48,-0l0.001,0.012l-0.001,-0.012Zm-55.474,-0.091l-0.001,0.014l0.001,-0.014Zm55.468,-0l0.001,0.014l-0.001,-0.014Z" style="fill:#d2d2d2;"/><path d="M82.465,111.398c9.678,-5.171 25.392,-5.171 35.07,0c9.678,5.171 9.678,13.568 0,18.739c-9.678,5.171 -25.392,5.171 -35.07,0c-9.678,-5.171 -9.678,-13.568 -0,-18.739Z" style="fill:#676767;fill-opacity:0.25;"/><path d="M75.423,77.264c0.216,-0.774 2.311,-3.071 6.174,-4.306c1.116,-0.357 2.378,-0.625 3.786,-0.743c3.32,-0.277 6.829,-0.38 10.964,1.75c3.098,1.597 5.78,3.302 8.083,5.095c2.028,0.587 4.231,1.513 6.579,2.795c9.818,5.361 17.796,17.464 17.796,27.631c0,2.601 -0.522,4.806 -1.463,6.563c-0.595,1.113 -3.809,4.878 -5.892,6.092c-2.034,1.184 -4.581,1.608 -6.708,2.085c-0.177,0.054 -0.357,0.104 -0.54,0.149l-0.077,0.019c-0.051,0.012 -0.102,0.023 -0.153,0.035l-0.155,0.033l-0.072,0.014c-0.103,0.02 -0.206,0.039 -0.31,0.056l-0.09,0.015l-0.16,0.024l-0.161,0.021l-0.094,0.011c-0.097,0.011 -0.194,0.021 -0.291,0.03l-0.104,0.009l-0.165,0.012l-0.167,0.01l-0.072,0.003l-0.095,0.004l-0.169,0.005l-0.099,0.002l-0.07,0.001l-0.052,0l-0.119,0l-0.127,-0.001l-0.045,-0.001l-0.079,-0.002l-0.093,-0.002l-0.174,-0.007l-0.107,-0.006l-0.068,-0.004l-0.058,-0.003l-0.117,-0.008l-0.136,-0.011l-0.127,-0.011l-0.092,-0.009l-0.178,-0.019l-0.115,-0.013l-0.065,-0.008l-0.064,-0.009l-0.125,-0.017c-0.051,-0.007 -0.103,-0.014 -0.155,-0.022l-0.111,-0.017l-0.108,-0.017l-0.164,-0.029l-0.122,-0.022l-0.133,-0.025l-0.122,-0.024c-0.055,-0.011 -0.11,-0.022 -0.165,-0.034l-0.113,-0.025l-0.104,-0.023c-0.056,-0.013 -0.113,-0.026 -0.169,-0.039l-0.131,-0.032l-0.135,-0.034l-0.119,-0.031c-0.058,-0.015 -0.117,-0.031 -0.175,-0.047l-0.115,-0.032l-0.098,-0.028c-0.119,-0.034 -0.237,-0.07 -0.356,-0.107l-0.097,-0.03l-0.11,-0.035l0,0.032c0,-0 -5.66,3.175 -6.062,3.397c-0.479,0.263 -1.181,0.223 -1.962,-0.182l-5.217,-2.699c-1.44,-0.746 -2.608,-2.445 -2.608,-3.794l-0,-3.578c-0,0 -1.837,-1.193 -2.712,-1.921c-0.634,-0.529 -1.743,-1.607 -2.392,-2.248l-0.093,0.078c-0.014,0.011 -0.027,0.023 -0.04,0.034l-0.1,-0.342l-0.097,-0.096l-0.192,-0.139l-0.192,-0.14l-0.191,-0.142l-0.191,-0.144l-0.19,-0.145l-0.189,-0.148l-0.188,-0.148l-0.187,-0.151l-0.186,-0.152l-0.109,-0.09l-0.077,-0.064l-0.109,-0.091l-0.076,-0.064l-0.109,-0.093l-0.074,-0.064l-0.11,-0.095l-0.073,-0.063l-0.11,-0.097l-0.073,-0.063l-0.109,-0.098l-0.072,-0.064l-0.109,-0.099l-0.071,-0.064l-0.11,-0.1l-0.069,-0.064l-0.11,-0.102l-0.069,-0.064l-0.11,-0.104l-0.067,-0.064l-0.11,-0.104l-0.067,-0.064l-0.11,-0.107l-0.065,-0.064l-0.11,-0.107l-0.065,-0.064l-0.11,-0.109l-0.063,-0.064l-0.11,-0.111l-0.063,-0.063l-0.11,-0.112l-0.061,-0.064l-0.11,-0.113l-0.061,-0.064l-0.11,-0.115l-0.059,-0.063l-0.11,-0.116l-0.059,-0.063l-0.109,-0.118l-0.058,-0.063l-0.109,-0.119l-0.057,-0.063l-0.109,-0.121l-0.056,-0.062l-0.109,-0.122l-0.055,-0.062l-0.109,-0.124l-0.054,-0.062l-0.109,-0.125l-0.053,-0.061l-0.108,-0.127l-0.053,-0.061l-0.108,-0.128l-0.051,-0.061l-0.108,-0.129l-0.05,-0.061l-0.108,-0.131l-0.049,-0.06l-0.108,-0.132l-0.048,-0.06l-0.107,-0.134l-0.048,-0.059l-0.107,-0.135l-0.047,-0.06l-0.106,-0.136l-0.046,-0.059l-0.106,-0.137l-0.045,-0.059l-0.106,-0.139l-0.044,-0.058l-0.105,-0.14l-0.043,-0.058l-0.105,-0.142l-0.042,-0.057l-0.105,-0.143l-0.041,-0.057l-0.104,-0.144l-0.041,-0.057l-0.104,-0.146l-0.039,-0.056l-0.103,-0.147l-0.039,-0.055l-0.103,-0.148l-0.038,-0.056l-0.102,-0.149l-0.139,-0.206l-0.137,-0.206l-0.136,-0.207l-0.135,-0.208l-0.133,-0.208l-0.132,-0.21l-0.13,-0.21l-0.129,-0.21l-0.127,-0.211l-0.126,-0.212l-0.125,-0.213l-0.123,-0.213l-0.121,-0.214l-0.12,-0.214l-0.118,-0.215l-0.117,-0.215l-0.115,-0.216l-0.114,-0.216l-0.112,-0.217l-0.11,-0.217l-0.109,-0.218l-0.107,-0.218l-0.106,-0.218l-0.104,-0.219l-0.102,-0.219l-0.1,-0.22l-0.099,-0.22l-0.097,-0.22l-0.096,-0.22l-0.094,-0.221l-0.092,-0.221l-0.09,-0.221l-0.088,-0.221l-0.087,-0.222l-0.085,-0.221l-0.083,-0.222l-0.081,-0.222l-0.08,-0.222l-0.078,-0.222l-0.075,-0.222l-0.074,-0.222l-0.072,-0.223l-0.071,-0.222l-0.068,-0.222l-0.066,-0.222l-0.065,-0.222l-0.062,-0.222l-0.061,-0.222l-0.059,-0.222l-0.056,-0.222l-0.055,-0.222l-0.053,-0.221l-0.05,-0.221l-0.049,-0.221l-0.05,-0.238l-0.044,-0.219l-0.043,-0.22l-0.04,-0.219l-0.038,-0.219l-0.036,-0.219l-0.034,-0.218l-0.032,-0.218l-0.029,-0.218l-0.028,-0.217l-0.026,-0.217l-0.023,-0.216l-0.021,-0.216l-0.019,-0.216l-0.017,-0.215l-0.014,-0.214l-0.013,-0.214l-0.01,-0.214l-0.008,-0.212l-0.005,-0.213l-0.004,-0.211c-0.001,-0.071 -0.001,-0.141 -0.001,-0.211l0.001,-0.212l0.004,-0.211l0.001,-0.05l0.002,-0.063l0.002,-0.095l0.003,-0.074l0.003,-0.057l0.002,-0.076l0.005,-0.098l0.003,-0.047l0.003,-0.06l0.004,-0.068l0.003,-0.053l0.005,-0.082l0.007,-0.084l0.004,-0.06l0.004,-0.057l0.009,-0.105l0.008,-0.094l0.019,-0.193c0.008,-0.07 0.015,-0.139 0.023,-0.208c0.007,-0.057 0.014,-0.114 0.021,-0.17l0.004,-0.028c0.007,-0.056 0.015,-0.112 0.022,-0.167l0.004,-0.029c0.008,-0.056 0.017,-0.112 0.025,-0.167l0.004,-0.022c0.009,-0.059 0.018,-0.117 0.028,-0.174l0.017,-0.103l0.016,-0.09c0.01,-0.055 0.02,-0.109 0.031,-0.164l0.005,-0.026c0.011,-0.054 0.021,-0.108 0.032,-0.16l0.006,-0.026c0.011,-0.054 0.023,-0.108 0.034,-0.161l0.02,-0.089l0.023,-0.096c0.013,-0.055 0.026,-0.109 0.039,-0.163l0.005,-0.021c0.013,-0.052 0.027,-0.104 0.04,-0.155l0.007,-0.024l0.044,-0.162l0.004,-0.013c0.014,-0.052 0.029,-0.104 0.045,-0.156l0.026,-0.088l0.026,-0.086c0.016,-0.052 0.033,-0.103 0.049,-0.153l0.006,-0.02c0.017,-0.049 0.033,-0.098 0.05,-0.148l0.007,-0.021c0.017,-0.049 0.034,-0.099 0.052,-0.147l0.005,-0.015c0.037,-0.103 0.075,-0.205 0.115,-0.305l0.004,-0.011c0.019,-0.048 0.038,-0.096 0.058,-0.144l0.007,-0.018c0.019,-0.047 0.039,-0.094 0.059,-0.141l0.007,-0.016c0.02,-0.048 0.041,-0.095 0.062,-0.142l0.004,-0.008c0.043,-0.098 0.088,-0.195 0.134,-0.29l0.005,-0.01c0.022,-0.047 0.045,-0.092 0.068,-0.137l0.007,-0.015c0.023,-0.045 0.046,-0.089 0.069,-0.134l0.006,-0.012c0.074,-0.14 0.15,-0.278 0.229,-0.413l0.005,-0.009c0.026,-0.044 0.051,-0.087 0.077,-0.129l0.007,-0.011c0.026,-0.043 0.053,-0.086 0.079,-0.128l0.004,-0.006c0.083,-0.132 0.17,-0.262 0.258,-0.388l0.005,-0.007c0.029,-0.041 0.058,-0.081 0.087,-0.122l0.005,-0.006c0.121,-0.167 0.248,-0.329 0.378,-0.485l0.004,-0.004c0.032,-0.039 0.065,-0.077 0.097,-0.115l0.003,-0.002c0.1,-0.116 0.203,-0.229 0.309,-0.338l-0,-0c0.034,-0.036 0.07,-0.072 0.105,-0.108l0.003,-0.003c0.143,-0.143 0.291,-0.281 0.442,-0.413l0,-0c0.038,-0.033 0.077,-0.066 0.115,-0.098l0.001,-0.001c0.154,-0.13 0.312,-0.254 0.474,-0.371l0.001,-0.001c0.041,-0.029 0.082,-0.058 0.123,-0.087Zm31.365,37.062l0.123,0.015l0.019,0.002l0.117,0.012l0.022,0.001l0.117,0.01l0.139,0.008l0.116,0.004l0.021,0.001l0.112,0.002l0.02,-0l0.116,-0.001l0.089,-0.002l0.074,-0.002l0.071,-0.004l0.069,-0.004l0.068,-0.005l0.068,-0.005l0.085,-0.009l0.073,-0.008l0.068,-0.009l0.067,-0.009l0.065,-0.01l0.065,-0.01l0.081,-0.015l0.072,-0.014l0.065,-0.014l0.064,-0.014l0.064,-0.015l0.062,-0.015l0.077,-0.021l0.069,-0.019l0.063,-0.019l0.061,-0.02l0.061,-0.019l0.059,-0.021l0.073,-0.026l0.067,-0.026l0.06,-0.023l0.058,-0.025l0.058,-0.024l0.057,-0.026l0.068,-0.031l0.065,-0.032l0.057,-0.029l0.055,-0.028l0.054,-0.03l0.054,-0.03l0.064,-0.037l0.062,-0.038l0.054,-0.033l0.052,-0.034l0.051,-0.034l0.05,-0.034l0.061,-0.043l0.059,-0.044l0.05,-0.038l0.048,-0.038l0.048,-0.038l0.047,-0.04l0.058,-0.05l0.055,-0.048l0.045,-0.042l0.045,-0.043l0.044,-0.042l0.044,-0.044l0.043,-0.044l0.039,-0.042l0.042,-0.045l0.041,-0.046l0.041,-0.047l0.04,-0.047l0.039,-0.048l0.023,-0.029l0.035,-0.045l0.038,-0.049l0.038,-0.05l0.037,-0.051l0.036,-0.052l0.035,-0.051l0.022,-0.033l0.065,-0.1l0.065,-0.106l0.06,-0.104l0.055,-0.102l0.058,-0.112l0.05,-0.102l0.055,-0.12l0.049,-0.115l0.05,-0.122l0.042,-0.11l0.044,-0.126l0.042,-0.128l0.036,-0.115l0.004,-0.015l0.036,-0.125l0.033,-0.127l0.029,-0.123l0.004,-0.015l0.027,-0.122l0.028,-0.143c-0.959,0.401 -3.549,1.658 -5.268,2.5c-0.144,0.161 -0.297,0.309 -0.459,0.444l-0.029,0.024l-0.032,0.025c-0.061,0.049 -0.123,0.096 -0.186,0.141l-0.003,0.002c-0.063,0.045 -0.126,0.088 -0.191,0.128l-0.006,0.004c-0.064,0.041 -0.13,0.079 -0.196,0.116l-0.034,0.019l-0.041,0.022c-0.045,0.023 -0.09,0.046 -0.135,0.068l-0.039,0.019l-0.042,0.019c-0.045,0.021 -0.09,0.041 -0.137,0.061l-0.102,0.041l-0.053,0.021l-0.074,0.027l-0.106,0.037l-0.054,0.018c-0.022,0.007 -0.044,0.013 -0.065,0.02c0.613,0.171 1.287,0.294 1.626,0.351l-0,-0.017Zm1.241,-15.999l0.045,0.168l0.009,-0.108l-0.054,-0.06Zm-9.146,-3.525l0.067,0.105l0.058,0.093c0.02,0.033 0.041,0.066 0.061,0.099l0.063,0.106l0.049,0.081l0.065,0.112c0.019,0.033 0.038,0.066 0.056,0.1l0.061,0.109l0.04,0.072l0.061,0.114l0.055,0.105l0.057,0.112l0.033,0.065l0.026,0.053l0.031,0.064l0.053,0.109l0.052,0.111l0.028,0.063l0.026,0.056l0.028,0.062l0.048,0.112l0.047,0.11l0.026,0.063l0.023,0.056l0.025,0.063l0.045,0.114l0.041,0.108l0.043,0.118l0.024,0.066l0.04,0.115l0.035,0.105l0.038,0.117l0.023,0.072l0.035,0.114l0.03,0.102c-0,0 -0.065,-0.086 -0.065,-0.086c-0.702,-0.959 -1.172,-2.017 -1.428,-3.14Z" style="fill:#f5f5f5;"/><path d="M85.672,112.576c-8.238,-5.876 -14.477,-16.601 -14.477,-25.593c-0,-10.167 7.974,-14.271 17.796,-9.211c3.099,1.596 5.781,3.302 8.084,5.095c2.028,0.586 4.231,1.513 6.578,2.794c9.819,5.362 17.797,17.465 17.797,27.632c-0,8.999 -6.248,13.266 -14.495,10.602l0,0.032c0,-0 -1.116,-0.053 -3.056,-0.672l-2.36,-0.784l0,3.578c0,1.349 -1.169,1.839 -2.608,1.093l-5.217,-2.699c-1.44,-0.746 -2.608,-2.445 -2.608,-3.794l-0,-3.578c-0,0 -1.837,-1.193 -2.712,-1.921c-0.762,-0.635 -2.209,-2.064 -2.722,-2.574Zm21.116,1.767l-0,-0.017c3.366,0.429 5.764,-1.697 5.764,-5.638c-0,-3.438 -1.823,-7.381 -4.523,-10.361c0.642,2.337 0.938,4.715 0.938,7.104c0,5.141 -1.235,7.776 -3.805,8.561c0.613,0.171 1.287,0.294 1.626,0.351Zm-9.907,-22.04c2.55,2.632 3.889,5.572 3.889,8.455c0,2.958 -0.386,4.069 -1.924,4.193c-0.313,0.025 -1.44,-0.033 -2.56,-0.527c-1.12,-0.494 -2.232,-1.423 -2.615,-1.826c-1.44,-1.516 -2.368,-3.469 -2.368,-6.141c-0,-3.391 1.914,-4.817 5.578,-4.154Zm-9.539,12.326c-2.672,-3.51 -4.055,-7.488 -4.055,-12.573c0,-2.429 0.472,-4.439 1.356,-6.002c-2.712,0.181 -4.55,2.087 -4.55,5.534c0,3.941 2.397,8.549 5.764,11.605l-0,0.027c0.287,0.285 0.907,0.892 1.485,1.409Z" style="fill:#a7a7a7;fill-opacity:0.14;"/><path d="M72.403,121.43l-0.155,-0.079c-5.099,-2.612 -9.696,-5.921 -13.631,-9.781c-9.109,-8.936 -14.668,-20.828 -14.668,-33.874c0,-27.731 25.116,-50.245 56.051,-50.245c30.935,0 56.051,22.514 56.051,50.245c-0,18.683 -11.4,34.997 -28.299,43.655l-0.155,0.079c0.854,4.303 -1.803,8.767 -7.969,12.062c-10.833,5.788 -28.423,5.788 -39.256,-0c-6.166,-3.295 -8.823,-7.759 -7.969,-12.062Zm3.039,-4.271l-0.138,-0.071c-4.537,-2.324 -8.628,-5.269 -12.13,-8.704c-8.106,-7.952 -13.052,-18.534 -13.052,-30.143c-0,-24.677 22.349,-44.712 49.878,-44.712c27.529,-0 49.878,20.035 49.878,44.712c0,16.625 -10.144,31.143 -25.182,38.847l-0.138,0.071c0.76,3.828 -1.604,7.801 -7.091,10.733c-9.64,5.151 -25.294,5.151 -34.934,-0c-5.487,-2.932 -7.851,-6.905 -7.091,-10.733Z" style="fill:#fff;fill-opacity:0.38;"/><path d="M72.403,121.43l-0.155,-0.079c-5.099,-2.612 -9.696,-5.921 -13.631,-9.781c-9.109,-8.936 -14.668,-20.828 -14.668,-33.874c0,-27.731 25.116,-50.245 56.051,-50.245c30.935,0 56.051,22.514 56.051,50.245c-0,18.683 -11.4,34.997 -28.299,43.655l-0.155,0.079c0.854,4.303 -1.803,8.767 -7.969,12.062c-10.833,5.788 -28.423,5.788 -39.256,-0c-6.166,-3.295 -8.823,-7.759 -7.969,-12.062Z" style="fill:#ffdc2b;fill-opacity:0.43;"/></svg>