<?xml version="1.0" encoding="UTF-8" standalone="no"?><!DOCTYPE svg PUBLIC "-//W3C//DTD SVG 1.1//EN" "http://www.w3.org/Graphics/SVG/1.1/DTD/svg11.dtd"><svg width="100%" height="100%" viewBox="0 0 200 200" version="1.1" xmlns="http://www.w3.org/2000/svg" xmlns:xlink="http://www.w3.org/1999/xlink" xml:space="preserve" xmlns:serif="http://www.serif.com/" style="fill-rule:evenodd;clip-rule:evenodd;stroke-linejoin:round;stroke-miterlimit:2;"><path d="M122.848,24.938c0.393,-0.1 2.076,-0.194 2.518,-0.165c0.442,0.029 0.956,0.204 1.536,0.539l48.037,27.734c2.981,1.721 6.569,7.019 8.007,11.824l-33.089,49.086l-1.979,2.489l-0,-2.369l-58.794,-33.945l33.09,-49.086l-0.045,-0.025c-1.036,-3.46 -0.677,-5.727 0.719,-6.082Z" style="fill:#c4a584;"/><path d="M30.29,114.076l-0,27.212l58.794,33.944l58.794,-33.944l-0,-27.212l-58.794,-33.945l-58.794,33.945Z" style="fill:#c4a584;"/><path d="M122.129,31.02c-1.438,-4.805 -0.187,-7.309 2.794,-5.588l48.037,27.734c2.981,1.721 6.569,7.019 8.008,11.824l-33.09,49.086l-58.794,-33.945l33.09,-49.086l-0.045,-0.025Z" style="fill:#f1f1f1;fill-opacity:0.03;"/><path d="M147.878,114.076l-58.794,33.944l-58.794,-33.944l-0,27.212l58.794,33.944l58.794,-33.944l-0,-27.212Z" style="fill:#c4a584;"/><path d="M89.084,80.131l-58.794,33.945l23.479,13.574l35.315,-20.389l-0,-27.13Z" style="fill:#c4a584;"/><path d="M89.084,80.131l58.794,33.945l-23.48,13.574l-35.314,-20.389l-0,-27.13Z" style="fill:#c4a584;"/><path d="M110.476,119.628l-35.292,20.376l0.666,0.385l35.293,-20.376l-0.667,-0.385Z" style="fill:#c4a584;"/><path d="M89.084,148.02l-58.794,-33.944l-0,27.212l58.794,33.944l-0,-27.212Z" style="fill:#c4a584;"/><path d="M180.968,64.99l-58.839,-33.97c-1.438,-4.805 -0.187,-7.309 2.794,-5.588l48.037,27.734c2.981,1.721 6.569,7.019 8.008,11.824Z" style="fill:#c4a584;"/><path d="M147.878,114.076l-58.794,33.944l-58.794,-33.944l-0,27.212l58.794,33.944l58.794,-33.944l-0,-27.212Z" style="fill:#1d1d1d;fill-opacity:0.05;"/><path d="M89.084,80.131l58.794,33.945l-23.48,13.574l-35.314,-20.389l-0,-27.13Z" style="fill:#1d1d1d;fill-opacity:0.05;"/><path d="M89.084,80.131l58.794,33.945l-23.48,13.574l-35.314,-20.389l-0,-27.13Z" style="fill:#1d1d1d;fill-opacity:0.05;"/><path d="M110.476,119.628l-35.292,20.376l0.666,0.385l35.293,-20.376l-0.667,-0.385Z" style="fill:#1d1d1d;fill-opacity:0.05;"/><path d="M89.084,148.02l-58.794,-33.944l-0,27.212l58.794,33.944l-0,-27.212Z" style="fill:#1d1d1d;fill-opacity:0.05;"/><path d="M180.968,64.99l-58.839,-33.97c-1.438,-4.805 -0.187,-7.309 2.794,-5.588l48.037,27.734c2.981,1.721 6.569,7.019 8.008,11.824Z" style="fill:#1d1d1d;fill-opacity:0.05;"/><path d="M89.084,148.02l-58.794,-33.944l-0,27.212l58.794,33.944l-0,-27.212Z" style="fill:#c4a584;fill-opacity:0.11;"/><path d="M67.638,134.523l-12.463,-7.195l-5.124,0.419c0,1.864 1.135,4.032 2.533,4.839l11.434,6.602c1.398,0.807 3.619,-0.563 3.62,-1.557c0.002,-3.108 -0,-3.108 -0,-3.108Z" style="fill:#c4a584;"/><path d="M69.07,134.812l-1.432,0.826l21.446,12.382l1.432,-0.826l-21.446,-12.382Z" style="fill:#c4a584;"/><path d="M31.722,113.249l-1.432,0.827l19.777,11.418l1.432,-0.827l-19.777,-11.418Z" style="fill:#c4a584;"/><path d="M51.499,124.667l-1.448,0.836l0,2.811c0,1.551 0.945,3.355 2.108,4.027l12.013,6.935c0.525,0.304 1.336,0.496 1.723,0.318c1.537,-0.708 1.743,-1.982 1.743,-1.982c-0,0 -1.15,1.213 -2.018,0.829l-12.013,-6.936c-1.163,-0.672 -2.108,-2.476 -2.108,-4.027l0,-2.811Z" style="fill:#c4a584;"/><path d="M58.166,125.111l-6.667,-0.444c0,0 -0.028,2.268 0.007,2.963c0.023,0.451 0.204,1.209 0.204,1.209l6.456,-3.728Z" style="fill:#c4a584;"/><path d="M51.499,124.683c-0.002,0.198 -0.026,2.285 0.007,2.947c0.023,0.451 0.204,1.209 0.204,1.209l37.374,-21.578l-0,-27.13l-57.362,33.118l19.777,11.434Z" style="fill:#1d1d1d;fill-opacity:0.05;"/><path d="M89.084,80.131l-57.362,33.118l1.251,0.722l57.361,-33.118l-1.25,-0.722Z" style="fill:#c4a584;"/><path d="M146.627,113.353l-57.362,33.118l1.251,0.723l57.362,-33.118l-1.251,-0.723Z" style="fill:#c4a584;"/><path d="M69.07,134.812l-1.432,0.826l21.446,12.382l1.432,-0.826l-21.446,-12.382Z" style="fill:#f1f1f1;fill-opacity:0.03;"/><path d="M31.722,113.249l-1.432,0.827l19.777,11.418l1.432,-0.827l-19.777,-11.418Z" style="fill:#f1f1f1;fill-opacity:0.03;"/><path d="M51.499,124.667l-1.448,0.836l0,2.811c0,1.551 0.945,3.355 2.108,4.027l12.013,6.935c0.525,0.304 1.336,0.496 1.723,0.318c1.537,-0.708 1.743,-1.982 1.743,-1.982c-0,0 -1.15,1.213 -2.018,0.829l-12.013,-6.936c-1.163,-0.672 -2.108,-2.476 -2.108,-4.027l0,-2.811Z" style="fill:#f1f1f1;fill-opacity:0.03;"/><path d="M89.084,80.131l-57.362,33.118l1.251,0.722l57.361,-33.118l-1.25,-0.722Z" style="fill:#f1f1f1;fill-opacity:0.03;"/><path d="M146.627,113.353l-57.362,33.118l1.251,0.723l57.362,-33.118l-1.251,-0.723Z" style="fill:#f1f1f1;fill-opacity:0.03;"/></svg>