<?xml version="1.0" encoding="UTF-8" standalone="no"?><!DOCTYPE svg PUBLIC "-//W3C//DTD SVG 1.1//EN" "http://www.w3.org/Graphics/SVG/1.1/DTD/svg11.dtd"><svg width="100%" height="100%" viewBox="0 0 200 200" version="1.1" xmlns="http://www.w3.org/2000/svg" xmlns:xlink="http://www.w3.org/1999/xlink" xml:space="preserve" xmlns:serif="http://www.serif.com/" style="fill-rule:evenodd;clip-rule:evenodd;stroke-linejoin:round;stroke-miterlimit:2;"><path d="M36.326,99.056l-0,56.285l63.674,36.762l63.674,-36.762l0,-56.285l-63.674,-36.763l-63.674,36.763Z" style="fill:#c4a584;"/><path d="M163.674,99.056l-63.674,36.762l-63.674,-36.762l-0,56.285l63.674,36.762l63.674,-36.762l0,-56.285Z" style="fill:#171717;fill-opacity:0.11;"/><path d="M100,62.293l-63.674,36.763l48.712,28.144l14.962,-8.639l0,-56.268Z" style="fill:#171717;fill-opacity:0.11;"/><path d="M100,62.293l63.674,36.763l-48.697,28.153l-14.977,-8.648l-0,-56.268Z" style="fill:#171717;fill-opacity:0.11;"/><path d="M100,135.818l-63.674,-36.762l-0,56.268l63.674,36.762l-0,-56.268Z" style="fill:#171717;fill-opacity:0.11;"/><path d="M100,62.293l63.674,36.763l-48.697,28.153l-14.977,-8.648l0,-56.268Z" style="fill:#171717;fill-opacity:0.11;"/><path d="M37.62,98.308l-1.294,0.748l63.674,36.762l1.294,-0.747l-63.674,-36.763Z" style="fill:#c4a584;"/><path d="M37.62,98.308l-1.294,0.748l63.674,36.762l1.294,-0.747l-63.674,-36.763Z" style="fill:#fff;fill-opacity:0.14;"/><path d="M98.706,135.091l1.294,0.747l63.674,-36.763l-1.294,-0.747l-63.674,36.763Z" style="fill:#c4a584;"/><path d="M98.706,135.091l1.294,0.747l63.674,-36.763l-1.294,-0.747l-63.674,36.763Z" style="fill:#fff;fill-opacity:0.14;"/><path d="M36.326,99.075l1.294,0.748l63.674,-36.763l-1.294,-0.747l-63.674,36.762Z" style="fill:#c4a584;"/><path d="M36.326,99.075l1.294,0.748l63.674,-36.763l-1.294,-0.747l-63.674,36.762Z" style="fill:#fff;fill-opacity:0.14;"/><path d="M37.62,98.308l-1.294,0.748l63.674,36.762l1.294,-0.747l-63.674,-36.763Z" style="fill:#fff;fill-opacity:0.11;"/><path d="M98.706,135.091l1.294,0.747l63.674,-36.763l-1.294,-0.747l-63.674,36.763Z" style="fill:#fff;fill-opacity:0.11;"/><path d="M36.326,99.075l1.294,0.748l63.674,-36.763l-1.294,-0.747l-63.674,36.762Z" style="fill:#fff;fill-opacity:0.11;"/><path d="M136.695,45.426l-63.658,-36.753l25.634,54.431l63.658,36.753l-25.634,-54.431Z" style="fill:#c4a584;"/><path d="M138.056,44.659l-2.387,-1.378l26.66,56.576l1.345,-0.782l0,-0.019l-25.618,-54.397Z" style="fill:#c4a584;"/><path d="M132.467,49.982l-63.674,-36.763l-0.63,-1.389l63.674,36.762l0.63,1.39Z" style="fill:#c4a584;"/><path d="M132.467,49.982l-63.674,-36.763l-0.63,-1.389l63.674,36.762l0.63,1.39Z" style="fill:#fff;fill-opacity:0.11;"/><path d="M138.056,44.659c0,0 25.618,54.397 25.618,54.397l0,0.019l-1.345,0.782l-24.963,-52.974l-4.899,3.099l-0.63,-1.39l6.219,-3.933Z" style="fill:#fff;fill-opacity:0.11;"/><path d="M138.056,44.659l-63.674,-36.762l-6.219,3.933l63.674,36.762l6.219,-3.933Z" style="fill:#c4a584;"/><path d="M138.056,44.659l-63.674,-36.762l-6.219,3.933l63.674,36.762l6.219,-3.933Z" style="fill:#171717;fill-opacity:0.11;"/></svg>