<?xml version="1.0" encoding="UTF-8" standalone="no"?><!DOCTYPE svg PUBLIC "-//W3C//DTD SVG 1.1//EN" "http://www.w3.org/Graphics/SVG/1.1/DTD/svg11.dtd"><svg width="100%" height="100%" viewBox="0 0 200 200" version="1.1" xmlns="http://www.w3.org/2000/svg" xmlns:xlink="http://www.w3.org/1999/xlink" xml:space="preserve" xmlns:serif="http://www.serif.com/" style="fill-rule:evenodd;clip-rule:evenodd;stroke-linejoin:round;stroke-miterlimit:2;"><path d="M114.416,89.852l-81.893,47.281l50.725,29.286l81.894,-47.281l-50.726,-29.286Z" style="fill:#c4a584;"/><path d="M114.416,42.571l-81.893,47.281l50.725,29.286l81.894,-47.281l-50.726,-29.286Z" style="fill:#c4a584;"/><path d="M114.416,42.571l0,47.281l50.726,29.286l-0,-47.281l-50.726,-29.286Z" style="fill:#c4a584;"/><path d="M112.95,43.417c0,0 -78.836,45.517 -78.836,45.517l40.459,23.502l38.377,-21.738c0,0 9.779,5.646 9.779,5.646l40.946,-23.64l-50.725,-29.287Z" style="fill:#080808;fill-opacity:0.05;"/><path d="M112.95,43.417l0,47.281l9.779,5.646l40.946,-23.64l-50.725,-29.287Z" style="fill:#080808;fill-opacity:0.05;"/><path d="M12.111,90.824l81.893,-47.281l20.412,-0.972l-81.893,47.281c0,-0 0,1.962 0,1.962l-20.412,0.972l0,-1.962Z" style="fill:#c4a584;"/><path d="M112.95,90.698l-80.427,46.435l50.725,29.286l80.427,-46.434l-50.725,-29.287Z" style="fill:#c4a584;"/><path d="M165.142,71.857l-81.894,47.281l0,47.281l81.894,-47.281l-0,-47.281Z" style="fill:#080808;fill-opacity:0.05;"/><path d="M32.523,89.852l0,47.281l50.725,29.286l0,-47.281l-50.725,-29.286Z" style="fill:#c4a584;"/><path d="M165.142,71.857l-81.894,47.281l22.748,27.142l81.893,-47.281l-22.747,-27.142Z" style="fill:#c4a584;"/><path d="M32.523,89.852c0,-0 50.725,29.286 50.725,29.286c0,0 22.748,27.142 22.748,27.142l-1.597,0.922l-21.151,-25.236l0,44.453l-50.725,-29.286l0,-45.283l-20.412,0.936l0,-1.962l20.412,-0.972Z" style="fill:#080808;fill-opacity:0.05;"/><path d="M32.523,89.852c0,-0 50.725,29.286 50.725,29.286l0,47.281l-50.725,-29.286l0,-45.283l-20.412,0.936l0,-1.962l20.412,-0.972Z" style="fill:#080808;fill-opacity:0.05;"/><g><path d="M12.111,90.824l81.893,-47.281l20.412,-0.972l-81.893,47.281l-20.412,0.972Z" style="fill:#ebebeb;fill-opacity:0.15;"/><path d="M165.142,71.857l-81.894,47.281l22.748,27.142l81.893,-47.281l-22.747,-27.142Z" style="fill:#ebebeb;fill-opacity:0.15;"/><path d="M33.989,89.005l-1.466,0.847l50.725,29.286l1.467,-0.846l-50.726,-29.287Z" style="fill:#ebebeb;fill-opacity:0.15;"/><path d="M114.416,42.571l-1.466,0.846l50.725,29.287l1.467,-0.847l-50.726,-29.286Z" style="fill:#ebebeb;fill-opacity:0.15;"/></g></svg>