<?xml version="1.0" encoding="UTF-8" standalone="no"?><!DOCTYPE svg PUBLIC "-//W3C//DTD SVG 1.1//EN" "http://www.w3.org/Graphics/SVG/1.1/DTD/svg11.dtd"><svg width="100%" height="100%" viewBox="0 0 200 200" version="1.1" xmlns="http://www.w3.org/2000/svg" xmlns:xlink="http://www.w3.org/1999/xlink" xml:space="preserve" xmlns:serif="http://www.serif.com/" style="fill-rule:evenodd;clip-rule:evenodd;stroke-linejoin:round;stroke-miterlimit:2;"><path d="M81.026,161.841c-0,-0 99.71,-57.568 99.71,-57.568l-0,-30.456l-99.71,57.568l-61.762,-35.658l0,30.456l61.762,35.658Z" style="fill:#c4a584;"/><path d="M118.974,38.159l0,30.456l61.762,35.658l-0,-30.456l-61.762,-35.658Z" style="fill:#c4a584;"/><path d="M118.974,38.159l-99.71,57.568l0,30.456l99.71,-57.568l0,-30.456Z" style="fill:#c4a584;"/><path d="M118.974,38.159l-99.71,57.568l61.762,35.658l99.71,-57.568l-61.762,-35.658Z" style="fill:#c4a584;"/><path d="M144.474,52.881l-99.71,57.568l10.762,6.214l99.71,-57.568l-10.762,-6.214Z" style="fill:#141414;fill-opacity:0.07;"/><path d="M149.413,55.733l-99.71,57.568l0.884,0.51l99.71,-57.567l-0.884,-0.511Z" style="fill:#141414;fill-opacity:0.07;"/><path d="M180.736,73.817l-99.71,57.568l-0,30.456l99.71,-57.568l-0,-30.456Z" style="fill:#141414;fill-opacity:0.07;"/><path d="M19.264,95.727l0,30.456l61.762,35.658l-0,-30.456l-61.762,-35.658Z" style="fill:#141414;fill-opacity:0.07;"/><path d="M19.264,95.727l0,30.456l61.762,35.658l-0,-30.456l-61.762,-35.658Z" style="fill:#141414;fill-opacity:0.07;"/></svg>