<?xml version="1.0" encoding="UTF-8" standalone="no"?><!DOCTYPE svg PUBLIC "-//W3C//DTD SVG 1.1//EN" "http://www.w3.org/Graphics/SVG/1.1/DTD/svg11.dtd"><svg width="100%" height="100%" viewBox="0 0 200 200" version="1.1" xmlns="http://www.w3.org/2000/svg" xmlns:xlink="http://www.w3.org/1999/xlink" xml:space="preserve" xmlns:serif="http://www.serif.com/" style="fill-rule:evenodd;clip-rule:evenodd;stroke-linejoin:round;stroke-miterlimit:2;"><path d="M125.372,53.294l-25.372,-14.649l-75.862,43.799l-0,35.112l75.862,43.799l75.862,-43.799l0,-35.112l-27.842,-16.075l-0,3.394c-0,2.572 -1.566,3.756 -3.495,2.642l-15.658,-9.04c-1.929,-1.113 -3.495,-4.105 -3.495,-6.677l0,-3.394Z" style="fill:#c4a584;"/><path d="M125.372,53.294l0,3.394c0,2.572 1.566,5.564 3.495,6.677l15.658,9.04c1.929,1.114 3.495,-0.07 3.495,-2.642l-0,-3.394l27.842,16.075l-30.295,17.515l-45.567,-26.308l0,-35.006l25.372,14.649Z" style="fill-opacity:0.07;"/><path d="M125.372,53.294l0,3.394c0,2.572 1.566,5.564 3.495,6.677l15.658,9.04c1.929,1.114 3.495,-0.07 3.495,-2.642l-0,-3.394l27.842,16.075l-30.295,17.515l-45.567,-26.308l0,-35.006l25.372,14.649Z" style="fill-opacity:0.07;"/><path d="M125.372,53.294l0,3.394c0,2.572 1.566,5.564 3.495,6.677l15.658,9.04c1.929,1.114 3.495,-0.07 3.495,-2.642l-0,-3.394l27.842,16.075l-30.295,17.515l-45.567,-26.308l-0,-35.006l25.372,14.649Z" style="fill:#fcfcfc;fill-opacity:0.07;"/><path d="M123.569,54.335l0,3.394c0,2.571 1.566,5.564 3.495,6.677l15.658,9.04c1.929,1.114 3.495,-0.07 3.495,-2.642l-0,-3.394l27.842,16.075l-28.492,16.474l-45.567,-26.308l-0,-32.924l23.569,13.608Z" style="fill:#c4a484;"/><path d="M100,126.243c0,0 75.862,-43.799 75.862,-43.799l0,35.112l-75.862,43.799c-0,-0 -75.862,-43.799 -75.862,-43.799l-0,-35.112l25.519,14.734l-0.02,0.011l-0,3.626c-0,2.002 1.218,4.33 2.719,5.197l15.501,8.949c0.677,0.391 1.724,0.639 2.222,0.41c1.047,-0.483 1.615,-1.168 1.919,-1.708c0.208,-0.276 0.33,-0.561 0.33,-0.825c0.001,-1.16 0.001,-1.985 0.001,-2.571l27.671,15.976Z" style="fill:#1b1b1b;fill-opacity:0.12;"/><path d="M51.505,96.111l-1.868,1.078l-0,3.626c-0,2.002 1.218,4.33 2.719,5.197l15.501,8.949c0.677,0.391 1.724,0.639 2.222,0.41c1.984,-0.914 2.249,-2.558 2.249,-2.558c0,0 -1.483,1.565 -2.603,1.069l-15.501,-8.949c-1.501,-0.866 -2.719,-3.195 -2.719,-5.196l-0,-3.626Z" style="fill:#1b1b1b;fill-opacity:0.12;"/><path d="M123.569,54.335l1.803,-1.041l0,3.394c0,2.572 1.566,5.564 3.495,6.677l15.658,9.04c0.44,0.254 0.86,0.389 1.248,0.414c-0.597,1.08 -1.741,1.384 -3.051,0.627l-15.658,-9.04c-1.929,-1.113 -3.495,-4.106 -3.495,-6.677l0,-3.394Z" style="fill:#1b1b1b;fill-opacity:0.12;"/><path d="M51.505,96.111l-1.868,1.078l-0,3.626c-0,2.002 1.218,4.33 2.719,5.197l15.501,8.949c0.677,0.391 1.724,0.639 2.222,0.41c1.984,-0.914 2.249,-2.558 2.249,-2.558c0,0 -1.483,1.565 -2.603,1.069l-15.501,-8.949c-1.501,-0.866 -2.719,-3.195 -2.719,-5.196l-0,-3.626Z" style="fill:#1b1b1b;fill-opacity:0.12;"/><path d="M123.569,54.335l1.803,-1.041l0,3.394c0,2.572 1.566,5.564 3.495,6.677l15.658,9.04c0.44,0.254 0.86,0.389 1.248,0.414c-0.597,1.08 -1.741,1.384 -3.051,0.627l-15.658,-9.04c-1.929,-1.113 -3.495,-4.106 -3.495,-6.677l0,-3.394Z" style="fill:#1b1b1b;fill-opacity:0.12;"/><path d="M100,126.243l75.862,-43.799l0,35.112l-75.862,43.799l0,-35.112Z" style="fill:#1b1b1b;fill-opacity:0.12;"/><path d="M100,40.649c0,-0 23.569,13.686 23.569,13.686l0,3.394c0,2.571 1.566,5.564 3.495,6.677l15.658,9.04c1.929,1.114 3.495,-0.07 3.495,-2.642l-0,-3.394l27.842,16.075l-28.492,16.474l-45.567,-26.308c-0,-0 -48.227,27.844 -48.227,27.844c0,-0 -0.245,-0.798 -0.272,-1.328c-0.044,-0.898 0.004,-4.056 0.004,-4.056l-23.784,-13.732l72.279,-41.73Z" style="fill:#1b1b1b;fill-opacity:0.12;"/><path d="M100,40.649c-0,-0 -0,33.002 -0,33.002c-0,-0 -48.227,27.844 -48.227,27.844c0,-0 -0.245,-0.798 -0.272,-1.328c-0.044,-0.898 0.004,-4.056 0.004,-4.056l-23.784,-13.732l72.279,-41.73Z" style="fill:#1b1b1b;fill-opacity:0.12;"/><path d="M127.603,89.608l-45.538,26.292l0.86,0.496l45.538,-26.291l-0.86,-0.497Z" style="fill:#1b1b1b;fill-opacity:0.12;"/><path d="M24.138,82.444l25.519,14.734l1.848,-1.067l-23.784,-13.732l72.166,-41.665l23.784,13.731l1.848,-1.066l-25.519,-14.734l-75.862,43.799Z" style="fill:#c4a584;"/><path d="M100.113,124.174l-25.937,-14.974l-1.848,1.067l27.672,15.976l75.862,-43.799l-27.828,-16.066l-1.848,1.066l26.093,15.065l-72.166,41.665Z" style="fill:#c4a584;"/><path d="M24.138,82.444l25.519,14.734l1.848,-1.067l-23.784,-13.732l72.166,-41.665l23.784,13.731l1.848,-1.066l-25.519,-14.734l-75.862,43.799Z" style="fill:#f3f3f3;fill-opacity:0.15;"/><path d="M100.113,124.174l-25.937,-14.974l-1.848,1.067l27.672,15.976l75.862,-43.799l-27.828,-16.066l-1.848,1.066l26.093,15.065l-72.166,41.665Z" style="fill:#f3f3f3;fill-opacity:0.15;"/></svg>