<?xml version="1.0" encoding="UTF-8" standalone="no"?><!DOCTYPE svg PUBLIC "-//W3C//DTD SVG 1.1//EN" "http://www.w3.org/Graphics/SVG/1.1/DTD/svg11.dtd"><svg width="100%" height="100%" viewBox="0 0 200 200" version="1.1" xmlns="http://www.w3.org/2000/svg" xmlns:xlink="http://www.w3.org/1999/xlink" xml:space="preserve" xmlns:serif="http://www.serif.com/" style="fill-rule:evenodd;clip-rule:evenodd;stroke-linejoin:round;stroke-miterlimit:2;"><path d="M168.455,131.415l-0,-62.83l-68.455,-39.523l-68.455,39.523l0,62.83l68.455,39.523l68.455,-39.523Z" style="fill:#c4a584;"/><path d="M168.455,68.585l-68.455,39.522l-68.455,-39.522l0,63.091l68.455,39.262l68.455,-39.262l-0,-63.091Z" style="fill:#1a1a1a;fill-opacity:0.08;"/><path d="M100,108.107l-68.455,-39.522l0,62.83l68.455,39.523l-0,-62.831Z" style="fill:#1a1a1a;fill-opacity:0.08;"/><path d="M125.022,43.509l-68.455,39.522l9.442,5.452l68.455,-39.523l-9.442,-5.451Z" style="fill:#1a1a1a;fill-opacity:0.08;"/><path d="M129.355,46.011l-68.455,39.522l0.776,0.448l68.455,-39.522l-0.776,-0.448Z" style="fill:#1a1a1a;fill-opacity:0.08;"/></svg>