<?xml version="1.0" encoding="UTF-8" standalone="no"?><!DOCTYPE svg PUBLIC "-//W3C//DTD SVG 1.1//EN" "http://www.w3.org/Graphics/SVG/1.1/DTD/svg11.dtd"><svg width="100%" height="100%" viewBox="0 0 200 200" version="1.1" xmlns="http://www.w3.org/2000/svg" xmlns:xlink="http://www.w3.org/1999/xlink" xml:space="preserve" xmlns:serif="http://www.serif.com/" style="fill-rule:evenodd;clip-rule:evenodd;stroke-linejoin:round;stroke-miterlimit:2;"><path d="M39.497,154.709l39.609,22.868l79.219,-45.737l-39.609,-22.869l-79.219,45.738Z" style="fill:#c4a584;"/><path d="M158.325,40.366l-39.609,-22.869l-0,91.474l39.609,22.869l0,-91.474Z" style="fill:#c4a584;"/><path d="M118.716,17.497l-79.219,45.737l-0,91.475l79.219,-45.738l-0,-91.474Z" style="fill:#c4a584;"/><path d="M79.106,86.103l-39.609,-22.869l-0,91.475l39.609,22.868l0,-91.474Z" style="fill:#c4a584;"/><path d="M171.012,21.337l-12.687,19.029l0,91.474l12.687,-19.029l-0,-91.474Z" style="fill:#c4a584;"/><path d="M118.716,108.971c-0,0 -79.219,45.738 -79.219,45.738l39.609,22.868l79.219,-45.737c0,0 0,-91.474 0,-91.474l-39.609,-22.869l-0,91.474Z" style="fill:#151515;fill-opacity:0.05;"/><path d="M118.716,108.971c-0,0 39.609,22.869 39.609,22.869c0,0 0,-91.474 0,-91.474l-39.609,-22.869l-0,91.474Z" style="fill:#151515;fill-opacity:0.05;"/><path d="M39.497,63.234l-0,91.475l39.609,22.868l0,-91.474c0,-0 -39.609,-22.869 -39.609,-22.869Z" style="fill:#151515;fill-opacity:0.05;"/><path d="M118.716,73.235l-79.219,45.738l-0,0.793l79.219,-45.737l-0,-0.794Z" style="fill:#151515;fill-opacity:0.05;"/><path d="M171.012,21.337l-2.068,-0l-12.112,18.167l1.493,0.862l0,91.474l12.687,-19.029l-0,-91.474Z" style="fill:#c4a584;"/><path d="M39.497,63.234l39.609,22.869l79.219,-45.737l-39.609,-22.869l-79.219,45.737Z" style="fill:#c4a584;"/><path d="M39.497,63.234l-0,91.475l39.609,22.868l0,-91.474l79.219,-45.737l-39.609,-22.869c-0,-0 -79.219,45.737 -79.219,45.737Z" style="fill:#151515;fill-opacity:0.05;"/><path d="M79.106,86.103l-1.977,-1.142l-48.141,4.926l0,91.475l1.977,1.141l48.141,-4.926l0,-91.474Z" style="fill:#c4a584;"/><path d="M158.325,40.386l-79.219,45.737l0,2.247l79.219,-45.737l0,-2.247Z" style="fill:#c4a584;"/><path d="M158.325,129.593l-79.219,45.737l0,2.247l79.219,-45.737l0,-2.247Z" style="fill:#c4a584;"/><path d="M171.012,21.337l-12.687,19.029l0,91.474l12.687,-19.029l-0,-91.474Z" style="fill:#f9f9f9;fill-opacity:0.07;"/><path d="M79.106,86.103l-48.141,4.926l0,91.474l48.141,-4.926l0,-91.474Z" style="fill:#f9f9f9;fill-opacity:0.07;"/><path d="M158.325,40.386l-79.219,45.737l0,2.247l79.219,-45.737l0,-2.247Z" style="fill:#f9f9f9;fill-opacity:0.07;"/><path d="M158.325,129.593l-79.219,45.737l0,2.247l79.219,-45.737l0,-2.247Z" style="fill:#f9f9f9;fill-opacity:0.07;"/></svg>