<?xml version="1.0" encoding="UTF-8" standalone="no"?><!DOCTYPE svg PUBLIC "-//W3C//DTD SVG 1.1//EN" "http://www.w3.org/Graphics/SVG/1.1/DTD/svg11.dtd"><svg width="100%" height="100%" viewBox="0 0 200 200" version="1.1" xmlns="http://www.w3.org/2000/svg" xmlns:xlink="http://www.w3.org/1999/xlink" xml:space="preserve" xmlns:serif="http://www.serif.com/" style="fill-rule:evenodd;clip-rule:evenodd;stroke-linejoin:round;stroke-miterlimit:2;"><path d="M34.48,75.709l-0,56.667l65.52,37.828l65.52,-37.828l0,-56.667l-65.52,-37.828l-65.52,37.828Z" style="fill:#c4a584;"/><path d="M165.52,75.709l-65.52,-37.828l-0,56.607l65.52,-18.779Z" style="fill:#1b1b1b;fill-opacity:0.1;"/><path d="M165.52,75.709l-65.52,-37.828l-0,56.607l65.52,-18.779Z" style="fill:#1b1b1b;fill-opacity:0.1;"/><path d="M130.403,46.253l-65.52,37.828l0,1.47l65.52,-37.828l0,-1.47Z" style="fill:#c4a584;"/><path d="M136.043,49.514l-65.52,37.828l29.477,26.195l65.52,-37.828l-29.477,-26.195Z" style="fill:#c4a584;"/><path d="M136.043,49.514l-65.52,37.828l0.837,0.744l65.52,-37.828l-0.837,-0.744Z" style="fill:#c4a584;"/><path d="M100,37.881l-65.52,37.828l30.399,8.375l65.52,-37.828l-30.399,-8.375Z" style="fill:#c4a584;"/><path d="M46.004,80.336l-6.918,-1.968l55.203,31.872l-6.46,-5.756l-41.825,-24.148Z" style="fill:#c4a584;"/><path d="M123.726,51.579l-1.755,1.013l4.317,2.555l1.809,-1.044l-4.371,-2.524Z" style="fill:#c4a584;"/><path d="M46.004,80.336l-6.918,-1.968l55.203,31.872l-6.46,-5.756l-41.825,-24.148Z" style="fill:#f1f1f1;fill-opacity:0.1;"/><path d="M123.726,51.579l-1.755,1.013l4.317,2.555l1.809,-1.044l-4.371,-2.524Z" style="fill:#f1f1f1;fill-opacity:0.1;"/><path d="M78.955,96.663l-2.336,1.348l10.779,6.224l-8.443,-7.572Z" style="fill:#1b1b1b;fill-opacity:0.1;"/><path d="M165.52,75.709l-65.52,37.828l-65.52,-37.828l-0,56.667l65.52,37.828l65.52,-37.828l0,-56.667Z" style="fill:#1b1b1b;fill-opacity:0.1;"/><path d="M100,113.537l-65.52,-37.828l-0,56.667l65.52,37.828l-0,-56.667Z" style="fill:#1b1b1b;fill-opacity:0.1;"/><path d="M70.523,87.342l0,1.891l23.697,20.967l5.78,3.337l-29.477,-26.195Z" style="fill:#1b1b1b;fill-opacity:0.1;"/><path d="M64.879,84.084l0.004,1.546l-25.758,-7.239l-4.645,-2.682l30.399,8.375Z" style="fill:#1b1b1b;fill-opacity:0.1;"/><path d="M70.523,87.342l0,1.891l23.697,20.967l5.78,3.337l-29.477,-26.195Z" style="fill:#1b1b1b;fill-opacity:0.1;"/><path d="M64.879,84.084l0.004,1.546l-25.758,-7.239l-4.645,-2.682l30.399,8.375Z" style="fill:#1b1b1b;fill-opacity:0.1;"/><path d="M130.403,46.253l-65.52,37.828l0,1.47l65.52,-37.828l0,-1.47Z" style="fill:#1b1b1b;fill-opacity:0.1;"/><path d="M130.403,46.253l-65.52,37.828l0,1.47l65.52,-37.828l0,-1.47Z" style="fill:#1b1b1b;fill-opacity:0.1;"/><path d="M136.043,49.514l-65.52,37.828l4.798,4.264l65.52,-37.828l-4.798,-4.264Z" style="fill:#1b1b1b;fill-opacity:0.1;"/><path d="M125.239,44.834l-65.52,37.828l5.16,1.422l65.52,-37.828l-5.16,-1.422Z" style="fill:#1b1b1b;fill-opacity:0.1;"/></svg>