<?xml version="1.0" encoding="UTF-8" standalone="no"?><!DOCTYPE svg PUBLIC "-//W3C//DTD SVG 1.1//EN" "http://www.w3.org/Graphics/SVG/1.1/DTD/svg11.dtd"><svg width="100%" height="100%" viewBox="0 0 200 200" version="1.1" xmlns="http://www.w3.org/2000/svg" xmlns:xlink="http://www.w3.org/1999/xlink" xml:space="preserve" xmlns:serif="http://www.serif.com/" style="fill-rule:evenodd;clip-rule:evenodd;stroke-linejoin:round;stroke-miterlimit:2;"><path d="M26.938,83.092l-0,33.816l73.062,42.182l73.062,-42.182l0,-33.816l-73.062,-42.182l-73.062,42.182Z" style="fill:#c4a584;"/><path d="M173.062,83.092l-73.062,42.183l-73.062,-42.183l-0,33.816l73.062,42.182l73.062,-42.182l0,-33.816Z" style="fill:#212121;fill-opacity:0.1;"/><path d="M100,125.275l-73.062,-42.183l-0,33.816l73.062,42.182l-0,-33.815Z" style="fill:#212121;fill-opacity:0.1;"/><path d="M126.706,56.329l-73.062,42.182l10.078,5.818l73.062,-42.182l-10.078,-5.818Z" style="fill:#212121;fill-opacity:0.1;"/><path d="M131.331,58.999l-73.062,42.182l0.828,0.478l73.062,-42.182l-0.828,-0.478Z" style="fill:#212121;fill-opacity:0.1;"/></svg>