<?xml version="1.0" encoding="UTF-8" standalone="no"?><!DOCTYPE svg PUBLIC "-//W3C//DTD SVG 1.1//EN" "http://www.w3.org/Graphics/SVG/1.1/DTD/svg11.dtd"><svg width="100%" height="100%" viewBox="0 0 200 200" version="1.1" xmlns="http://www.w3.org/2000/svg" xmlns:xlink="http://www.w3.org/1999/xlink" xml:space="preserve" xmlns:serif="http://www.serif.com/" style="fill-rule:evenodd;clip-rule:evenodd;stroke-linejoin:round;stroke-miterlimit:2;"><path d="M117.245,33.24l0,51.268l54.335,31.37l0,-51.268l-54.335,-31.37Z" style="fill:#c4a584;"/><path d="M116.577,84.122l-88.799,51.268l55.003,31.756l88.799,-51.268l-55.003,-31.756Z" style="fill:#c4a584;"/><path d="M116.577,33.594l-88.799,51.269l0,50.527l88.799,-51.268l0,-50.528Z" style="fill:#c4a584;"/><path d="M82.781,116.619l-55.003,-31.756l0,50.527l55.003,31.756c0,0 89.441,-51.638 89.441,-51.638l-0,-50.528l-89.441,51.639Z" style="fill:#c4a584;"/><path d="M172.222,64.98l-89.441,51.639l0,50.527l89.441,-51.638l-0,-50.528Z" style="fill:#090909;fill-opacity:0.07;"/><path d="M27.778,84.863l0,50.527l55.003,31.756l0,-50.527l-55.003,-31.756Z" style="fill:#090909;fill-opacity:0.07;"/><path d="M27.778,84.863l0,50.527l55.003,31.756l0,-50.527l-55.003,-31.756Z" style="fill:#090909;fill-opacity:0.07;"/><path d="M117.219,33.224l-88.799,51.268l55.003,31.756l88.799,-51.268l-55.003,-31.756Z" style="fill:#c4a584;"/><path d="M137.683,45.039l-89.441,51.638l9.585,5.534l89.441,-51.638l-9.585,-5.534Z" style="fill:#090909;fill-opacity:0.07;"/><path d="M142.081,47.579l-89.44,51.638l0.788,0.455l89.44,-51.639l-0.788,-0.454Z" style="fill:#090909;fill-opacity:0.07;"/></svg>