<?xml version="1.0" encoding="UTF-8" standalone="no"?><!DOCTYPE svg PUBLIC "-//W3C//DTD SVG 1.1//EN" "http://www.w3.org/Graphics/SVG/1.1/DTD/svg11.dtd"><svg width="100%" height="100%" viewBox="0 0 200 200" version="1.1" xmlns="http://www.w3.org/2000/svg" xmlns:xlink="http://www.w3.org/1999/xlink" xml:space="preserve" xmlns:serif="http://www.serif.com/" style="fill-rule:evenodd;clip-rule:evenodd;stroke-linejoin:round;stroke-miterlimit:2;"><path d="M118.474,147.241l12.591,11.029l63.025,-36.387l0,-1.268l-31.512,-28.008c-0,0 -63.025,-36.388 -63.025,-36.388l-30.768,-3.299l-63.025,36.388l0,1.395l30.767,3.299l0,27.775l63.026,36.388l18.921,-10.924Z" style="fill:#c4a584;"/><g><path d="M36.527,94.002l0,27.775l63.026,36.388l-0,-27.348l0.78,0.616l30.732,26.837l-0.05,-1.411l-31.462,-27.864l-63.026,-36.388c0,0 -30.767,-3.299 -30.767,-3.299l0,1.395l30.767,3.299Z" style="fill:#232323;fill-opacity:0.12;"/><path d="M98.137,57.037c-0,-0 63.025,36.387 63.025,36.387l-25.169,14.551l-37.856,-21.856l-35.024,20.221l-25.072,-14.607l60.096,-34.696Z" style="fill:#232323;fill-opacity:0.12;"/><path d="M98.137,57.037l63.025,36.387l-25.169,14.551l-37.856,-21.856l-0,-29.082Z" style="fill:#232323;fill-opacity:0.12;"/><path d="M121.084,99.368l-35.008,20.211l0.715,0.413l35.007,-20.212l-0.714,-0.412Z" style="fill:#232323;fill-opacity:0.12;"/><path d="M118.474,147.241l-18.921,-16.506l-0,27.43l18.921,-10.924Z" style="fill:#232323;fill-opacity:0.12;"/><path d="M118.474,147.241l-18.921,-16.506l-0,27.43l18.921,-10.924Z" style="fill:#232323;fill-opacity:0.12;"/></g><g><path d="M162.677,92.569l-63.124,36.445l31.463,27.845l63.224,-36.484l-31.563,-27.806Z" style="fill:#eee;fill-opacity:0.09;"/><path d="M68.785,52.92l-63.025,36.388l30.767,3.299l63.026,-36.388l-30.768,-3.299Z" style="fill:#eee;fill-opacity:0.09;"/><path d="M99.578,129.009l-63.051,-36.402l1.416,-0.817l63.05,36.402l-1.415,0.817Z" style="fill:#eee;fill-opacity:0.09;"/><path d="M161.461,93.597l-63.789,-36.829l1.881,-0.549l63.124,36.35l-1.216,1.028Z" style="fill:#eee;fill-opacity:0.09;"/></g><g><g><g><path d="M74.181,122.96l-0.27,0.617l-1.686,-1.76l-0.354,0.806l1.292,1.348l-0.26,0.593l-1.291,-1.348l-0.361,0.824l1.687,1.759l-0.27,0.617l-2.646,-2.76l1.514,-3.456l2.645,2.76Z" style="fill:#9b0606;fill-rule:nonzero;stroke:#9b0606;stroke-width:0.5px;"/><path d="M73.914,125.183l1.523,1.589l-0.259,0.593l-1.523,-1.589l0.259,-0.593Z" style="fill:#9b0606;fill-rule:nonzero;stroke:#9b0606;stroke-width:0.5px;"/><path d="M78.089,129.771c0.012,0.099 0.02,0.199 0.027,0.3c0.006,0.102 0.01,0.203 0.013,0.304c0.062,-0.036 0.126,-0.068 0.19,-0.097c0.064,-0.028 0.129,-0.054 0.194,-0.076l1.819,-0.645c0.032,-0.011 0.061,-0.014 0.088,-0.01c0.027,0.004 0.055,0.015 0.083,0.032c0.027,0.018 0.057,0.042 0.089,0.073c0.032,0.031 0.068,0.068 0.11,0.111l0.727,0.759l-1.513,3.456l-0.84,-0.877l0.87,-1.987c0.042,-0.097 0.094,-0.195 0.154,-0.296l-1.867,0.641c-0.058,0.02 -0.122,0.014 -0.191,-0.017c-0.07,-0.031 -0.142,-0.085 -0.215,-0.162l-0.13,-0.135c-0.073,-0.077 -0.132,-0.159 -0.177,-0.247c-0.045,-0.089 -0.072,-0.178 -0.082,-0.269l-0.315,-2.921c-0.017,0.064 -0.035,0.124 -0.056,0.183c-0.02,0.058 -0.04,0.111 -0.06,0.156l-0.87,1.988l-0.841,-0.877l1.514,-3.456l0.727,0.759c0.042,0.044 0.077,0.082 0.108,0.116c0.03,0.034 0.056,0.068 0.077,0.101c0.021,0.033 0.037,0.069 0.05,0.106c0.012,0.037 0.021,0.081 0.027,0.13l0.29,2.857Z" style="fill:#9b0606;fill-rule:nonzero;stroke:#9b0606;stroke-width:0.5px;"/><path d="M84.417,138.674l-0.739,-0.77c-0.082,-0.087 -0.143,-0.174 -0.183,-0.262c-0.039,-0.089 -0.058,-0.169 -0.057,-0.241l0.022,-0.856l-1.563,-1.63l-0.506,0.35c-0.038,0.024 -0.093,0.026 -0.163,0.005c-0.07,-0.022 -0.144,-0.074 -0.223,-0.156l-0.745,-0.777l3.104,-1.796l0.976,1.018l0.077,5.115Zm-2.061,-4.075l1.122,1.171l0.037,-1.341c0.002,-0.085 0.004,-0.186 0.007,-0.302c0.003,-0.115 0.009,-0.237 0.018,-0.366c-0.072,0.065 -0.142,0.122 -0.21,0.171c-0.068,0.049 -0.129,0.089 -0.184,0.12l-0.79,0.547Z" style="fill:#9b0606;fill-rule:nonzero;stroke:#9b0606;stroke-width:0.5px;"/><path d="M85.794,140.11l-0.959,-1l1.513,-3.456l0.959,1l-1.513,3.456Z" style="fill:#9b0606;fill-rule:nonzero;stroke:#9b0606;stroke-width:0.5px;"/><path d="M87.789,141.259l1.523,1.589l-0.281,0.64l-2.476,-2.583l1.513,-3.456l0.954,0.994l-1.233,2.816Z" style="fill:#9b0606;fill-rule:nonzero;stroke:#9b0606;stroke-width:0.5px;"/></g><path d="M95.375,141.713c0.163,-0.374 -0.033,-1.02 -0.439,-1.444l-25.257,-26.351c-0.406,-0.424 -0.867,-0.464 -1.031,-0.09l-3.572,8.158c-0.164,0.374 0.033,1.02 0.438,1.443l25.258,26.352c0.405,0.424 0.867,0.464 1.031,0.089l3.572,-8.157Zm-1.767,-0.856l-2.978,6.803c-0,0 -23.788,-24.818 -23.788,-24.818c0,-0 2.979,-6.803 2.979,-6.803l23.787,24.818Z" style="fill:#9b0606;"/></g></g></svg>