<?xml version="1.0" encoding="UTF-8" standalone="no"?><!DOCTYPE svg PUBLIC "-//W3C//DTD SVG 1.1//EN" "http://www.w3.org/Graphics/SVG/1.1/DTD/svg11.dtd"><svg width="100%" height="100%" viewBox="0 0 200 200" version="1.1" xmlns="http://www.w3.org/2000/svg" xmlns:xlink="http://www.w3.org/1999/xlink" xml:space="preserve" xmlns:serif="http://www.serif.com/" style="fill-rule:evenodd;clip-rule:evenodd;stroke-linejoin:round;stroke-miterlimit:2;"><path d="M164.479,124.594l0,-48.889l-53.264,-30.752l-53.265,30.752l0,48.889l53.265,30.752l53.264,-30.752Z" style="fill:#c4a584;"/><path d="M164.479,75.705l-53.264,30.753l-53.265,-30.753l0,49.091l53.265,30.55l53.264,-30.55l0,-49.091Z" style="fill:#101010;fill-opacity:0.07;"/><path d="M111.215,106.458l-53.265,-30.753l0,48.889l53.265,30.752l-0,-48.888Z" style="fill:#101010;fill-opacity:0.07;"/><path d="M111.241,44.998l53.238,30.737l-42.367,24.458l-10.923,-6.307c-0,0 -10.872,6.277 -10.872,6.277l-42.367,-24.458l53.291,-30.767l-0,0.06Z" style="fill:#101010;fill-opacity:0.07;"/><path d="M111.241,44.938l53.291,30.767l-42.367,24.458l-10.924,-6.307l-0,-48.918Z" style="fill:#101010;fill-opacity:0.07;"/><path d="M112.461,45.702l-1.22,-0.704l-53.291,30.767l1.22,0.705l53.291,-30.768Z" style="fill:#c4a584;"/><path d="M59.17,75.001l-1.22,0.704l53.291,30.768l1.22,-0.705l-53.291,-30.767Z" style="fill:#c4a584;"/><path d="M111.189,44.968l-1.22,0.704l53.29,30.768l1.22,-0.705l-53.29,-30.767Z" style="fill:#c4a584;"/><path d="M164.479,75.735l-1.22,-0.704l-53.29,30.767l1.22,0.705l53.29,-30.768Z" style="fill:#c4a584;"/><path d="M112.461,45.702l-1.22,-0.704l-53.291,30.767l1.22,0.705l53.291,-30.768Z" style="fill:#f3f3f3;fill-opacity:0.08;"/><path d="M59.17,75.001l-1.22,0.704l53.291,30.768l1.22,-0.705l-53.291,-30.767Z" style="fill:#f3f3f3;fill-opacity:0.08;"/><path d="M112.435,45.687l-1.22,0.705l50.825,29.343l1.219,-0.704l-50.824,-29.344Z" style="fill:#f3f3f3;fill-opacity:0.08;"/><path d="M164.479,75.735l-1.22,-0.704l-52.018,30.033l1.22,0.704l52.018,-30.033Z" style="fill:#f3f3f3;fill-opacity:0.08;"/><path d="M42.766,66.939l-0.042,-0.024l-0.007,0.018l-0.021,-0.002l0.018,0.011l-26.262,67.868l57.517,33.208l-0.043,0.11l7.686,1.108l26.83,-68.166l-57.591,-33.25l-8.085,-0.881Z" style="fill:#c4a584;"/><path d="M100.362,100.189l-0.009,0.006l-26.427,67.933l7.686,1.108l26.83,-68.166l-8.156,-0.889l0.076,0.008Z" style="fill:#101010;fill-opacity:0.07;"/><path d="M100.362,100.189l-0.009,0.006l8.089,0.875l-57.591,-33.25l-8.155,-0.889l57.59,33.25l0.076,0.008Z" style="fill:#f3f3f3;fill-opacity:0.08;"/></svg>