<?xml version="1.0" encoding="UTF-8" standalone="no"?><!DOCTYPE svg PUBLIC "-//W3C//DTD SVG 1.1//EN" "http://www.w3.org/Graphics/SVG/1.1/DTD/svg11.dtd"><svg width="100%" height="100%" viewBox="0 0 200 200" version="1.1" xmlns="http://www.w3.org/2000/svg" xmlns:xlink="http://www.w3.org/1999/xlink" xml:space="preserve" xmlns:serif="http://www.serif.com/" style="fill-rule:evenodd;clip-rule:evenodd;stroke-linejoin:round;stroke-miterlimit:2;"><path d="M161.826,132.332l0,-56.747l-61.826,-35.695l-61.826,35.695l-0,56.747l61.826,35.695l61.826,-35.695Z" style="fill:#c4a584;"/><path d="M161.826,132.332l0,-56.747l-61.826,-35.695l-61.826,35.695l-0,56.747l61.826,35.695l61.826,-35.695Z" style="fill:#161616;fill-opacity:0.07;"/><path d="M161.826,75.585l-61.826,35.696l-61.826,-35.696l-0,56.982l61.826,35.46l61.826,-35.46l0,-56.982Z" style="fill:#161616;fill-opacity:0.07;"/><path d="M100,111.281l-61.826,-35.696l-0,56.747l61.826,35.695l0,-56.746Z" style="fill:#161616;fill-opacity:0.07;"/><path d="M100,105.632l-63.791,-36.829l-0,12.62l63.791,36.83l-0,-12.621Z" style="fill:#c4a584;"/><path d="M100,31.973l-63.791,36.83l63.791,36.829l63.791,-36.829l-63.791,-36.83Z" style="fill:#c4a584;"/><path d="M100,105.632l63.791,-36.829l0,12.62l-63.791,36.83l0,-12.621Z" style="fill:#c4a584;"/><path d="M100,118.253l-63.791,-36.83l-0,-12.62l63.791,36.829l63.791,-36.829l0,12.62l-63.791,36.83Z" style="fill:#161616;fill-opacity:0.07;"/><path d="M100,118.253l-63.791,-36.83l-0,-12.62l63.791,36.829l-0,12.621Z" style="fill:#161616;fill-opacity:0.07;"/></svg>