<?xml version="1.0" encoding="UTF-8" standalone="no"?><!DOCTYPE svg PUBLIC "-//W3C//DTD SVG 1.1//EN" "http://www.w3.org/Graphics/SVG/1.1/DTD/svg11.dtd"><svg width="100%" height="100%" viewBox="0 0 200 200" version="1.1" xmlns="http://www.w3.org/2000/svg" xmlns:xlink="http://www.w3.org/1999/xlink" xml:space="preserve" xmlns:serif="http://www.serif.com/" style="fill-rule:evenodd;clip-rule:evenodd;stroke-linejoin:round;stroke-miterlimit:2;"><path d="M100,100c-0,0 -46.906,-27.081 -46.906,-27.081l-0,54.162l46.906,27.082c0,-0 46.906,-27.082 46.906,-27.082l0,-54.162l-46.906,27.081Z" style="fill:#c4a584;"/><path d="M100,100l-46.906,-27.081l-0,54.162l46.906,27.082l-0,-54.163Z" style="fill:#1f1f1e;fill-opacity:0.13;"/><path d="M100,100l-46.906,-27.081l-0,54.162l46.906,27.082l-0,-54.163Z" style="fill:#1f1f1e;fill-opacity:0.13;"/><path d="M146.906,72.919l-46.906,27.081l0,54.163l46.906,-27.082l0,-54.162Z" style="fill:#1f1f1e;fill-opacity:0.13;"/><path d="M100,45.837l-46.906,27.082l46.906,27.081l46.906,-27.081l-46.906,-27.082Z" style="fill:#c4a584;"/><path d="M116.187,55.183l-46.906,27.081l10.866,6.274l46.906,-27.082l-10.866,-6.273Z" style="fill:#1f1f1e;fill-opacity:0.13;"/><path d="M121.174,58.062l-46.907,27.081l0.894,0.516l46.906,-27.081l-0.893,-0.516Z" style="fill:#1f1f1e;fill-opacity:0.13;"/></svg>