<?xml version="1.0" encoding="UTF-8" standalone="no"?><!DOCTYPE svg PUBLIC "-//W3C//DTD SVG 1.1//EN" "http://www.w3.org/Graphics/SVG/1.1/DTD/svg11.dtd"><svg width="100%" height="100%" viewBox="0 0 200 200" version="1.1" xmlns="http://www.w3.org/2000/svg" xmlns:xlink="http://www.w3.org/1999/xlink" xml:space="preserve" xmlns:serif="http://www.serif.com/" style="fill-rule:evenodd;clip-rule:evenodd;stroke-linejoin:round;stroke-miterlimit:2;"><path d="M27.086,88.875l0,34.647l74.859,43.22l74.859,-43.22l-0,-34.647l-74.859,-43.22l-74.859,43.22Z" style="fill:#c4a584;"/><path d="M176.804,88.875l-74.859,43.219l-74.859,-43.219l0,34.647l74.859,43.22l74.859,-43.22l-0,-34.647Z" style="fill:#c4a584;fill-opacity:0.11;"/><path d="M101.945,132.094l-74.859,-43.219l0,34.647l74.859,43.22l0,-34.648Z" style="fill:#c4a584;fill-opacity:0.11;"/><path d="M101.945,132.094l-74.859,-43.219l0,34.647l74.859,43.22l74.859,-43.22l-0,-34.647l-74.859,43.219Z" style="fill:#181818;fill-opacity:0.07;"/><path d="M101.945,132.094l-74.859,-43.219l0,34.647l74.859,43.22l0,-34.648Z" style="fill:#181818;fill-opacity:0.07;"/><path d="M174.98,87.822l-73.035,42.167l1.823,1.053l73.036,-42.167l-1.824,-1.053Z" style="fill:#dfdfdf;fill-opacity:0.16;"/><path d="M83.735,110.267l1.784,1.03c6.031,3.482 13.064,1.013 15.694,-5.51l-0.046,-0.026l71.699,-14.601l3.938,-2.274l-77.421,15.845l0.046,0.026c-2.63,6.523 -9.663,8.992 -15.694,5.51Z" style="fill:#dfdfdf;fill-opacity:0.16;"/><path d="M76.463,115.277l-1.824,1.052l27.306,15.765l1.823,-1.052l-27.305,-15.765Z" style="fill:#dfdfdf;fill-opacity:0.16;"/><path d="M28.91,87.822l-1.824,1.053l25.182,14.538l1.823,-1.052l-25.181,-14.539Z" style="fill:#dfdfdf;fill-opacity:0.16;"/><path d="M74.64,116.33l-22.372,-12.917l-0.02,3.196c-0,2.373 0.791,4.429 2.571,5.456l15.563,8.986c1.78,1.027 4.256,-0.592 4.257,-1.857c0.003,-3.957 0.001,-2.864 0.001,-2.864Z" style="fill:#c4a584;"/><path d="M74.64,116.33l-22.372,-12.917l-0.02,3.196c-0,2.373 0.791,4.429 2.571,5.456l15.563,8.986c1.78,1.027 4.256,-0.592 4.257,-1.857c0.003,-3.957 0.001,-2.864 0.001,-2.864Z" style="fill:#c4a584;"/><path d="M54.091,102.361c0,-0 -0.014,3.127 0.036,4.008c0.026,0.436 0.27,1.281 0.27,1.281l47.548,-27.452l0,-34.543l-73.036,42.168c-0,-0 25.182,14.538 25.182,14.538Z" style="fill:#181818;fill-opacity:0.07;"/><path d="M101.945,45.655l74.859,43.22l-29.895,17.283l-44.964,-25.96l0,-34.543Z" style="fill:#c4a584;fill-opacity:0.07;"/><path d="M101.945,45.655l74.859,43.22l-29.895,17.283l-44.964,-25.96l0,-34.543Z" style="fill:#c4a584;fill-opacity:0.07;"/><path d="M24.524,61.511l-0.01,-0.006c-2.63,6.523 0.13,14.646 6.162,18.128l53.059,30.634c6.031,3.482 13.064,1.013 15.694,-5.51l-0.046,-0.026l77.421,-15.845l-74.859,-43.219l-77.421,15.844Z" style="fill:#c4a584;"/><path d="M99.408,104.745l-74.915,-43.252l-0.38,0.943c-2.421,6.002 0.12,13.477 5.67,16.682l54.802,31.64c5.551,3.204 12.022,0.933 14.443,-5.07l0.38,-0.943Z" style="fill:#181818;fill-opacity:0.07;"/><path d="M36.895,83.212l-7.985,4.61l1.823,1.053l7.985,-4.61l-1.823,-1.053Z" style="fill:#c4a584;"/><path d="M36.895,83.212l-7.985,4.61l1.823,1.053l7.985,-4.61l-1.823,-1.053Z" style="fill:#dfdfdf;fill-opacity:0.16;"/><path d="M120.803,101.762l-2.622,0.534l-32.101,18.533l0.849,0.49l33.874,-19.557Z" style="fill:#181818;fill-opacity:0.07;"/><path d="M54.091,102.361l-1.843,1.064l-0,3.578c-0,1.975 1.202,4.272 2.684,5.128l15.295,8.83c0.668,0.386 1.701,0.631 2.193,0.405c1.957,-0.902 2.219,-2.524 2.219,-2.524c0,0 -1.463,1.545 -2.569,1.055l-15.295,-8.831c-1.481,-0.855 -2.684,-3.152 -2.684,-5.127l0,-3.578Z" style="fill:#dfdfdf;fill-opacity:0.16;"/></svg>