<?xml version="1.0" encoding="UTF-8" standalone="no"?><!DOCTYPE svg PUBLIC "-//W3C//DTD SVG 1.1//EN" "http://www.w3.org/Graphics/SVG/1.1/DTD/svg11.dtd"><svg width="100%" height="100%" viewBox="0 0 200 200" version="1.1" xmlns="http://www.w3.org/2000/svg" xmlns:xlink="http://www.w3.org/1999/xlink" xml:space="preserve" xmlns:serif="http://www.serif.com/" style="fill-rule:evenodd;clip-rule:evenodd;stroke-linejoin:round;stroke-miterlimit:2;"><path d="M26.409,83.749l0,52.473l56.296,32.502l-0,-52.473l-56.296,-32.502Z" style="fill:#c4a584;"/><path d="M117.295,83.749l-90.886,52.473l56.296,32.502l90.886,-52.473l-56.296,-32.502Z" style="fill:#c4a584;"/><path d="M117.295,31.276l-90.886,52.473l56.296,32.502l90.886,-52.473l-56.296,-32.502Z" style="fill:#c4a584;"/><path d="M28.036,82.81l-1.627,0.939l56.296,32.502l1.626,-0.939l-56.295,-32.502Z" style="fill:#c4a584;"/><path d="M117.295,31.276l-1.626,0.939l56.295,32.502l1.627,-0.939l-56.296,-32.502Z" style="fill:#efefef;fill-opacity:0.09;"/><path d="M117.295,31.276l0,52.473l56.296,32.502l-0,-52.473l-56.296,-32.502Z" style="fill:#c4a584;"/><g><path d="M117.295,31.276l-90.886,52.473l26.507,3.272l90.886,-52.473l-26.507,-3.272Z" style="fill:#c4a584;"/><path d="M148.707,35.855l-90.886,52.473l24.884,27.923l90.886,-52.473l-24.884,-27.923Z" style="fill:#c4a584;"/></g><path d="M143.802,34.548l-90.886,52.473l-0,1.287l90.886,-52.473l-0,-1.287Z" style="fill:#c4a584;"/><path d="M117.295,32.034l-90.886,52.473l0,51.715l90.886,-52.473l0,-51.715Z" style="fill:#1e1e1e;fill-opacity:0.09;"/><path d="M117.295,32.034l-90.886,52.473l0,51.715l90.886,-52.473l0,-51.715Z" style="fill:#c4a584;"/><path d="M82.705,116.251l-56.296,-32.502l0,52.473l56.296,32.502c-0,0 90.886,-52.473 90.886,-52.473l-0,-52.473l-90.886,52.473Z" style="fill:#1e1e1e;fill-opacity:0.09;"/><path d="M26.409,83.749l0,52.473l56.296,32.502l-0,-52.473l-56.296,-32.502Z" style="fill:#1e1e1e;fill-opacity:0.09;"/><path d="M134.497,41.207l-17.202,9.932l0,2.852l19.672,-11.358l-2.47,-1.426Z" style="fill:#1e1e1e;fill-opacity:0.09;"/><path d="M143.802,34.548l-90.886,52.473l-0,1.287l90.886,-52.473l-0,-1.287Z" style="fill:#1e1e1e;fill-opacity:0.09;"/><path d="M143.802,34.548l-90.886,52.473l-0,1.287l90.886,-52.473l-0,-1.287Z" style="fill:#1e1e1e;fill-opacity:0.09;"/><path d="M29.245,85.386l-2.836,-1.637l26.507,3.272l-0,1.287l-23.671,-2.922Z" style="fill:#c4a584;"/><path d="M29.245,85.386l-2.836,-1.637l26.507,3.272l-0,1.287l-23.671,-2.922Z" style="fill:#1e1e1e;fill-opacity:0.09;"/><path d="M138.918,33.945l-90.886,52.473l4.884,0.603l90.886,-52.473l-4.884,-0.603Z" style="fill:#1e1e1e;fill-opacity:0.09;"/><path d="M148.707,35.855l-90.886,52.473l4.063,4.559l90.886,-52.473l-4.063,-4.559Z" style="fill:#1e1e1e;fill-opacity:0.09;"/><path d="M148.707,35.855l-90.886,52.473l0.809,0.908l90.886,-52.473l-0.809,-0.908Z" style="fill:#1e1e1e;fill-opacity:0.09;"/><path d="M57.37,89.759l0.463,-1.438l24.872,27.882l-3.511,-1.979l-21.824,-24.465Z" style="fill:#1e1e1e;fill-opacity:0.09;"/><path d="M33.4,85.907l-4.106,-0.493l49.804,28.754l-3.373,-3.825l-42.325,-24.436Z" style="fill:#c4a584;"/><g><path d="M134.497,41.207l-1.627,0.939l2.47,1.426l1.627,-0.939l-2.47,-1.426Z" style="fill:#c4a584;"/><g><path d="M152.687,40.322l-90.886,52.473l20.904,23.456l90.886,-52.473l-20.904,-23.456Z" style="fill:#f7f7f7;fill-opacity:0.09;"/><path d="M117.295,31.276l-90.886,52.473l21.593,2.665l90.886,-52.473l-21.593,-2.665Z" style="fill:#f7f7f7;fill-opacity:0.09;"/><path d="M33.4,85.907l-4.106,-0.493l49.804,28.754l-3.373,-3.825l-42.325,-24.436Z" style="fill:#f7f7f7;fill-opacity:0.09;"/><path d="M134.497,41.207l-1.627,0.939l2.47,1.426l1.627,-0.939l-2.47,-1.426Z" style="fill:#f7f7f7;fill-opacity:0.09;"/></g></g></svg>