<?xml version="1.0" encoding="UTF-8" standalone="no"?><!DOCTYPE svg PUBLIC "-//W3C//DTD SVG 1.1//EN" "http://www.w3.org/Graphics/SVG/1.1/DTD/svg11.dtd"><svg width="100%" height="100%" viewBox="0 0 200 200" version="1.1" xmlns="http://www.w3.org/2000/svg" xmlns:xlink="http://www.w3.org/1999/xlink" xml:space="preserve" xmlns:serif="http://www.serif.com/" style="fill-rule:evenodd;clip-rule:evenodd;stroke-linejoin:round;stroke-miterlimit:2;"><path d="M117.085,48.741l-0,44.855l48.123,27.784l-0,-44.855l-48.123,-27.784Z" style="fill:#c4a584;"/><path d="M117.085,93.596l-77.692,44.855l48.123,27.784l77.692,-44.855l-48.123,-27.784Z" style="fill:#c4a584;"/><path d="M117.085,49.389l-77.692,44.855l0,44.207l77.692,-44.855l-0,-44.207Z" style="fill:#b5997a;"/><path d="M117.085,48.741l-77.692,44.855l48.123,27.784l77.692,-44.855l-48.123,-27.784Z" style="fill:#c4a584;"/><path d="M165.208,76.525c-0,-0 -48.123,-27.784 -48.123,-27.784l20.067,1.171l48.123,27.783l-0.248,1.538l-18.529,-1.081l-1.29,-1.627Z" style="fill:#c4a584;"/><path d="M40.784,92.793l-1.391,0.803l48.123,27.784l1.391,-0.803l-48.123,-27.784Z" style="fill:#c4a584;"/><path d="M117.085,48.741l-1.391,0.803l48.123,27.784l1.391,-0.803l-48.123,-27.784Z" style="fill:#c4a584;"/><path d="M20.029,94.519c-0,-0 77.691,-44.855 77.691,-44.855l19.365,-0.923l-77.692,44.855c0,0 -1.342,1.926 -1.342,1.926l-18.022,0.858l-0,-1.861Z" style="fill:#c4a584;"/><path d="M87.516,121.38l-48.123,-27.784l0,44.855l48.123,27.784c0,0 77.692,-44.855 77.692,-44.855l-0,-44.855l-77.692,44.855Z" style="fill:#161616;fill-opacity:0.06;"/><path d="M39.393,93.596l0,44.855l48.123,27.784l0,-44.855l-48.123,-27.784Z" style="fill:#161616;fill-opacity:0.06;"/><path d="M185.027,79.233l-18.529,-1.081l-1.29,-1.627l20.067,1.17l-0.248,1.538Z" style="fill:#161616;fill-opacity:0.06;"/><path d="M115.669,94.413l9.278,5.356l38.845,-22.427l-48.123,-27.784l-74.877,43.231l38.852,22.423l36.025,-20.799Z" style="fill:#161616;fill-opacity:0.06;"/><path d="M115.686,49.549l-0,44.855l9.277,5.356l38.845,-22.427l-48.122,-27.784Z" style="fill:#161616;fill-opacity:0.06;"/><path d="M39.393,93.596l-1.342,1.926l-18.022,0.858l-0,-1.861l19.364,-0.923Z" style="fill:#161616;fill-opacity:0.06;"/><path d="M87.516,121.38c0,-0 21.58,25.749 21.58,25.749l-1.515,0.875l-20.065,-23.875l0,0.336l-24.845,35.229l-1.336,-0.771l26.181,-37.543Z" style="fill:#161616;fill-opacity:0.06;"/><path d="M87.516,121.38c0,-0 0,3.085 0,3.085l-24.845,35.229l-49.459,-28.555l26.181,-37.543l48.123,27.784Z" style="fill:#c4a584;"/><path d="M87.516,124.465l-24.845,35.229l-1.336,-0.771l26.181,-37.543l0,3.085Z" style="fill:#161616;fill-opacity:0.06;"/><path d="M165.208,76.525l-77.692,44.855l21.58,25.749l77.692,-44.855l-21.58,-25.749Z" style="fill:#c4a584;"/><path d="M40.784,92.793l-1.391,0.803l48.123,27.784l1.391,-0.803l-48.123,-27.784Z" style="fill:#eaeaea;fill-opacity:0.06;"/><path d="M117.085,48.741l-1.391,0.803l48.123,27.784l1.391,-0.803l-48.123,-27.784Z" style="fill:#eaeaea;fill-opacity:0.06;"/><path d="M20.029,94.519c-0,-0 77.691,-44.855 77.691,-44.855l19.365,-0.923l-77.692,44.855c0,0 -1.342,1.926 -1.342,1.926l-18.022,0.858l-0,-1.861Z" style="fill:#eaeaea;fill-opacity:0.06;"/><path d="M165.208,76.525l-77.692,44.855l21.58,25.749l77.692,-44.855l-21.58,-25.749Z" style="fill:#eaeaea;fill-opacity:0.06;"/></svg>