<?xml version="1.0" encoding="UTF-8" standalone="no"?><!DOCTYPE svg PUBLIC "-//W3C//DTD SVG 1.1//EN" "http://www.w3.org/Graphics/SVG/1.1/DTD/svg11.dtd"><svg width="100%" height="100%" viewBox="0 0 200 200" version="1.1" xmlns="http://www.w3.org/2000/svg" xmlns:xlink="http://www.w3.org/1999/xlink" xml:space="preserve" xmlns:serif="http://www.serif.com/" style="fill-rule:evenodd;clip-rule:evenodd;stroke-linejoin:round;stroke-miterlimit:2;"><path d="M22.28,82.014l0,35.972l77.72,44.871l77.72,-44.871l-0,-35.972l-77.72,-44.871l-77.72,44.871Zm119.653,-2.73c-0,-1.733 -1.055,-3.749 -2.355,-4.499l-11.498,-6.639c-1.3,-0.75 -2.355,0.048 -2.355,1.78c-0,1.733 1.055,3.749 2.355,4.5l11.498,6.638c1.3,0.751 2.355,-0.047 2.355,-1.78Z" style="fill:#c4a584;"/><path d="M100,73.006l-46.682,26.952l-31.038,-17.944l77.72,-44.871l77.72,44.871l-31.038,17.944l-46.682,-26.952Zm41.933,6.278c-0,-1.733 -1.055,-3.749 -2.355,-4.499l-11.498,-6.639c-1.3,-0.75 -2.355,0.048 -2.355,1.78c-0,1.733 1.055,3.749 2.355,4.5l11.498,6.638c1.3,0.751 2.355,-0.047 2.355,-1.78Z" style="fill:#171717;fill-opacity:0.09;"/><path d="M177.72,82.014l-77.72,44.872l-77.72,-44.872l0,35.972l77.72,44.871l77.72,-44.871l-0,-35.972Zm-110.835,43.739c0,-1.733 -1.055,-3.749 -2.355,-4.5l-11.498,-6.638c-1.3,-0.751 -2.355,0.047 -2.355,1.78c0,1.733 1.055,3.749 2.355,4.499l11.498,6.639c1.3,0.75 2.355,-0.048 2.355,-1.78Z" style="fill:#171717;fill-opacity:0.09;"/><path d="M100,162.857l-0,-35.971l-77.72,-44.872l0,35.972l77.72,44.871Zm-33.115,-37.104c0,-1.733 -1.055,-3.749 -2.355,-4.5l-11.498,-6.638c-1.3,-0.751 -2.355,0.047 -2.355,1.78c0,1.733 1.055,3.749 2.355,4.499l11.498,6.639c1.3,0.75 2.355,-0.048 2.355,-1.78Z" style="fill:#171717;fill-opacity:0.09;"/><path d="M66.887,125.79c-0,-1.712 -1.043,-3.704 -2.327,-4.446l-11.556,-6.672c-1.284,-0.741 -2.327,0.047 -2.327,1.76c0,1.712 1.043,3.705 2.327,4.446l11.556,6.672c1.284,0.741 2.327,-0.047 2.327,-1.76Z" style="fill:#c4a584;"/><path d="M100,37.143l77.72,44.871l-31.038,17.944l-46.682,-26.952l-0,-35.863Zm41.933,42.141c-0,-1.733 -1.055,-3.749 -2.355,-4.499l-11.498,-6.639c-1.3,-0.75 -2.355,0.048 -2.355,1.78c-0,1.733 1.055,3.749 2.355,4.5l11.498,6.638c1.3,0.751 2.355,-0.047 2.355,-1.78Z" style="fill:#171717;fill-opacity:0.09;"/><path d="M128.124,89.264l-45.153,26.069l1.192,0.688l45.152,-26.069l-1.191,-0.688Z" style="fill:#171717;fill-opacity:0.09;"/><path d="M66.88,125.999c0,-0 0.026,-0.315 -0.025,-0.762c-0.036,-0.311 -0.09,-0.547 -0.09,-0.547l-1.882,1.086l1.192,0.688l0.805,-0.465Z" style="fill:#171717;fill-opacity:0.09;"/><path d="M141.745,80.406c-0.193,-0.044 -0.395,-0.124 -0.603,-0.245l-11.499,-6.638c-1.299,-0.751 -2.355,-2.767 -2.355,-4.499c0,-0.437 0.067,-0.814 0.188,-1.122c-1.007,-0.226 -1.751,0.569 -1.751,2.024c-0,1.733 1.055,3.749 2.355,4.5l11.498,6.638c0.972,0.562 1.808,0.256 2.167,-0.658Z" style="fill:#c4a584;"/><path d="M23.717,81.185l-1.437,0.829l77.72,44.872l1.437,-0.83l-77.72,-44.871Z" style="fill:#c4a584;"/><path d="M100,37.143l-1.437,0.829l77.72,44.872l1.437,-0.83l-77.72,-44.871Z" style="fill:#c4a584;"/><path d="M98.563,126.056l1.437,0.83l77.72,-44.872l-1.437,-0.829l-77.72,44.871Z" style="fill:#c4a584;"/><path d="M22.28,82.014l1.437,0.83l77.72,-44.872l-1.437,-0.829l-77.72,44.871Z" style="fill:#c4a584;"/><path d="M141.745,80.406c-0.193,-0.044 -0.395,-0.124 -0.603,-0.245l-11.499,-6.638c-1.299,-0.751 -2.355,-2.767 -2.355,-4.499c0,-0.437 0.067,-0.814 0.188,-1.122c-1.007,-0.226 -1.751,0.569 -1.751,2.024c-0,1.733 1.055,3.749 2.355,4.5l11.498,6.638c0.972,0.562 1.808,0.256 2.167,-0.658Z" style="fill:#f5f5f5;fill-opacity:0.13;"/><path d="M66.734,126.774c-0.164,-0.046 -0.334,-0.119 -0.509,-0.22l-11.498,-6.638c-1.3,-0.751 -2.355,-2.767 -2.355,-4.5c-0,-0.39 0.053,-0.733 0.151,-1.021c-1.055,-0.3 -1.846,0.5 -1.846,2c0,1.733 1.055,3.749 2.355,4.499l11.498,6.639c1.007,0.581 1.867,0.233 2.204,-0.759Z" style="fill:#f5f5f5;fill-opacity:0.13;"/><path d="M23.717,81.185l-1.437,0.829l77.72,44.872l1.437,-0.83l-77.72,-44.871Z" style="fill:#f5f5f5;fill-opacity:0.13;"/><path d="M100,37.143l-1.437,0.829l77.72,44.872l1.437,-0.83l-77.72,-44.871Z" style="fill:#f5f5f5;fill-opacity:0.13;"/><path d="M100,125.227l1.437,0.829l74.848,-43.214l-1.436,-0.829l-74.849,43.214Z" style="fill:#f5f5f5;fill-opacity:0.13;"/><path d="M23.708,81.19l1.437,0.829l74.855,-43.217l-1.437,-0.83l-74.855,43.218Z" style="fill:#f5f5f5;fill-opacity:0.13;"/></svg>