<?xml version="1.0" encoding="UTF-8" standalone="no"?><!DOCTYPE svg PUBLIC "-//W3C//DTD SVG 1.1//EN" "http://www.w3.org/Graphics/SVG/1.1/DTD/svg11.dtd"><svg width="100%" height="100%" viewBox="0 0 200 200" version="1.1" xmlns="http://www.w3.org/2000/svg" xmlns:xlink="http://www.w3.org/1999/xlink" xml:space="preserve" xmlns:serif="http://www.serif.com/" style="fill-rule:evenodd;clip-rule:evenodd;stroke-linejoin:round;stroke-miterlimit:2;"><g><path d="M23.248,75.332c-1.823,-7.4 2.401,-12.673 2.401,-14.372c0,-4.088 2.976,-19.518 4.81,-21.621c1.619,-1.855 8.657,15.049 8.657,15.049c0,0 1.199,-0.316 3.348,0.679c1.769,0.818 2.002,0.908 2.002,0.908c0,0 8.419,-12.466 9.943,-9.43c1.105,2.201 3.378,10.805 2.882,17.098c-0.106,1.344 1.379,3.733 1.488,4.898c0,-0 3.65,1.026 9.273,1.869c8.104,1.216 19.169,0.056 24.905,4.234c13.403,5.821 24.539,24.322 29.467,32.147c5.808,-2.44 14.902,-6.878 24.455,-11.661c16.904,-8.464 34.163,0.459 37.483,3.302c6.155,5.269 7.164,10.905 -0.378,11.664c-2.089,0.21 -14.978,-10.941 -34.431,0.614c-11.672,6.933 -20.925,12.613 -20.63,13.493c0,0 2.743,11.025 1.496,16.492c-1.225,5.371 -0.564,11.641 -10.068,16.904c-5.328,2.951 -14.64,1.214 -19.125,3.92c-2.665,1.608 -4.71,2.281 -6.408,3.104c-1.33,0.644 -8.496,1.514 -10.78,-0.282c-2.486,-1.955 -0.951,-4.464 -0.951,-4.464l-2.491,2.292l-2.298,3.569c-0,0 -10.025,5.859 -14.329,6.453c-3.301,0.456 -7.6,-2.521 -9.259,-3.764c-1.002,-0.752 -0.57,-2.967 -0.57,-2.967c0,-0 -1.258,1.055 -2.093,0.891c-1.44,-0.282 -5.521,-1.724 -6.673,-3.314c-1.151,-1.59 -0.809,-4.23 -0.234,-6.225c0.618,-2.141 3.7,-4.064 3.938,-6.621c0.409,-4.395 -0.658,-10.582 -1.485,-19.749c-0.373,-4.142 -3.624,-5.211 -4.488,-7.208c-2.224,-5.142 -3.741,-6.194 -4.925,-17.271c-0.727,-6.79 -2.581,-17.123 -2.581,-17.123c0,0 -2.246,-0.185 -5.347,-1.013c-3.1,-0.827 -5.065,-2.247 -6.621,-4.632c-1.556,-2.385 -1.45,-2.325 -1.308,-4.265c0.102,-1.386 0.925,-3.598 0.925,-3.598Z" style="fill:#001a35;"/><path d="M36.677,74.042c1.289,0.57 2.978,1.737 2.408,3.027c-0.57,1.29 -2.563,2.213 -3.853,1.643c-1.29,-0.57 -2.777,-1.218 -2.207,-2.508c0.569,-1.29 2.362,-2.732 3.652,-2.162Z" style="fill:#efe361;"/><path d="M35.465,74.222c0.294,0.037 0.585,1.126 0.584,2.304c-0.001,1.178 -0.295,2.001 -0.588,1.963c-0.294,-0.037 -0.538,-1.017 -0.537,-2.195c0.001,-1.178 0.247,-2.11 0.541,-2.072Z" style="fill:#001a35;"/><path d="M37.388,74.814c0.322,0.142 0.515,0.571 0.373,0.892c-0.142,0.322 -0.566,0.416 -0.888,0.274c-0.322,-0.143 -0.615,-0.518 -0.473,-0.84c0.142,-0.321 0.666,-0.468 0.988,-0.326Z" style="fill:#fff;"/><path d="M24.94,80.307c0.633,0.366 1.497,0.792 1.497,1.213c0,0.42 -0.631,0.362 -1.264,-0.003c-0.634,-0.366 -1.39,-1.071 -1.39,-1.491c0,-0.42 0.523,-0.084 1.157,0.281Z" style="fill:#ffd3fe;"/><path d="M25.062,68.316c0.746,0.276 1.647,3.182 1.191,4.607c-0.456,1.425 -1.242,0.859 -1.988,0.584c-0.746,-0.276 -1.041,-2.607 -0.585,-4.031c0.456,-1.425 0.636,-1.435 1.382,-1.16Z" style="fill:#efe361;"/><path d="M25.02,68.71c0.218,0.005 0.447,1.057 0.46,2.228c0.013,1.172 -0.194,2.023 -0.413,2.017c-0.218,-0.005 -0.41,-0.953 -0.424,-2.125c-0.013,-1.171 0.159,-2.126 0.377,-2.12Z" style="fill:#001a35;"/><path d="M25.523,69.36c0.196,0.009 0.379,0.352 0.364,0.728c-0.014,0.375 -0.221,0.641 -0.417,0.632c-0.197,-0.009 -0.422,-0.259 -0.408,-0.634c0.015,-0.376 0.264,-0.735 0.461,-0.726Z" style="fill:#fff;"/></g></svg>