<?xml version="1.0" encoding="UTF-8" standalone="no"?><!DOCTYPE svg PUBLIC "-//W3C//DTD SVG 1.1//EN" "http://www.w3.org/Graphics/SVG/1.1/DTD/svg11.dtd"><svg width="100%" height="100%" viewBox="0 0 200 200" version="1.1" xmlns="http://www.w3.org/2000/svg" xmlns:xlink="http://www.w3.org/1999/xlink" xml:space="preserve" xmlns:serif="http://www.serif.com/" style="fill-rule:evenodd;clip-rule:evenodd;stroke-linejoin:round;stroke-miterlimit:2;"><g><path d="M40.603,60.892c-0,0 -2.334,-2.441 -3.542,-4.878c-2.176,-4.39 -6.293,-12.811 -4.335,-15.054c1.727,-1.979 16.13,7.742 16.13,7.742c-0,0 2.238,-2.262 4.505,-3.376c3.242,-1.594 4.172,-1.391 4.172,-1.391c-0,0 2.804,-18.982 4.863,-17.139c0.511,0.457 7.003,9.761 8.96,17.01c0.154,0.569 5.228,5.07 6.963,8.231c2.499,4.555 2.615,9.236 2.684,9.969c-0,0 3.871,1.769 9.871,2.669c8.647,1.297 20.453,0.06 26.574,4.518c14.302,6.211 26.184,25.953 31.443,34.302c9.425,6.265 14.858,6.907 17.577,17.979c3.829,15.59 -1.759,22.469 -3.09,28.303c-1.307,5.732 -7.754,11.562 -18.725,15.31c-21.874,7.472 -18.698,-0.647 -18.698,-0.647c-0,-0 -4.709,-0.114 -6.521,0.764c-1.419,0.687 -9.065,1.616 -11.503,-0.301c-2.652,-2.086 -1.014,-4.763 -1.014,-4.763l-2.658,2.446l-2.453,3.808c0,0 -10.696,6.251 -15.29,6.886c-3.521,0.486 -8.109,-2.69 -9.878,-4.017c-1.07,-0.802 -0.609,-3.166 -0.609,-3.166c0,0 -1.343,1.126 -2.233,0.951c-1.537,-0.301 -5.892,-1.84 -7.12,-3.536c-1.229,-1.697 -0.864,-4.514 -0.25,-6.642c0.659,-2.285 3.948,-4.337 4.202,-7.065c0.436,-4.69 -0.702,-11.291 -1.585,-21.074c-0.398,-4.419 -3.866,-5.559 -4.788,-7.691c-2.374,-5.486 -3.992,-6.609 -5.256,-18.429c-0.775,-7.244 -2.902,-22.406 -2.902,-22.406c-0,-0 -3.124,0.051 -6.276,-1.285c-3.563,-1.509 -5.555,-3.719 -7.215,-6.264c-1.66,-2.545 -2.003,-11.764 -2.003,-11.764Z" style="fill:#001a35;"/><path d="M65.552,49.995c1.645,-0.178 4.046,0.016 4.224,1.661c0.178,1.645 -1.305,3.753 -2.95,3.931c-1.645,0.179 -3.537,0.393 -3.715,-1.252c-0.178,-1.645 0.796,-4.162 2.441,-4.34Z" style="fill:#25bcb4;"/><path d="M64.835,50.65c0.479,-0.156 1.452,0.738 2.008,1.914c0.557,1.175 0.487,2.19 0.009,2.346c-0.479,0.156 -1.327,-0.661 -1.883,-1.836c-0.557,-1.176 -0.612,-2.268 -0.134,-2.424Z" style="fill:#001a35;"/><path d="M66.728,50.361c0.41,-0.045 0.859,0.277 0.903,0.688c0.045,0.41 -0.332,0.754 -0.742,0.799c-0.41,0.044 -0.928,-0.165 -0.973,-0.575c-0.044,-0.411 0.402,-0.868 0.812,-0.912Z" style="fill:#fff;"/><path d="M50.875,57.51c1.62,0.339 3.843,1.265 3.505,2.884c-0.339,1.62 -2.4,3.167 -4.02,2.829c-1.619,-0.339 -3.485,-0.719 -3.147,-2.338c0.338,-1.62 2.043,-3.713 3.662,-3.375Z" style="fill:#25bcb4;"/><path d="M50.215,58.041c0.462,-0.081 1.267,0.945 1.655,2.187c0.387,1.242 0.211,2.231 -0.251,2.312c-0.461,0.082 -1.159,-0.849 -1.546,-2.091c-0.388,-1.241 -0.319,-2.326 0.142,-2.408Z" style="fill:#001a35;"/><path d="M51.88,58.221c0.404,0.085 0.732,0.529 0.647,0.933c-0.084,0.404 -0.549,0.616 -0.952,0.531c-0.404,-0.084 -0.833,-0.443 -0.748,-0.847c0.084,-0.404 0.649,-0.701 1.053,-0.617Z" style="fill:#fff;"/><path d="M61.228,60.35c0.589,-0.333 1.353,-0.854 1.577,-0.466c0.224,0.388 -0.198,1.004 -0.787,1.337c-0.588,0.332 -1.433,0.482 -1.657,0.094c-0.225,-0.388 0.279,-0.632 0.867,-0.965Z" style="fill:#ffd3fe;"/></g></svg>