<?xml version="1.0" encoding="UTF-8" standalone="no"?><!DOCTYPE svg PUBLIC "-//W3C//DTD SVG 1.1//EN" "http://www.w3.org/Graphics/SVG/1.1/DTD/svg11.dtd"><svg width="100%" height="100%" viewBox="0 0 200 200" version="1.1" xmlns="http://www.w3.org/2000/svg" xmlns:xlink="http://www.w3.org/1999/xlink" xml:space="preserve" xmlns:serif="http://www.serif.com/" style="fill-rule:evenodd;clip-rule:evenodd;stroke-linejoin:round;stroke-miterlimit:2;"><g><path d="M12.611,69.058c-1.923,-7.807 2.533,-13.37 2.533,-15.162c0,-4.312 3.139,-20.59 5.074,-22.808c1.708,-1.957 9.133,15.875 9.133,15.875c-0,0 1.265,-0.333 3.531,0.716c1.867,0.864 2.113,0.958 2.113,0.958c-0,0 8.881,-13.15 10.489,-9.948c1.165,2.322 3.563,11.399 3.04,18.038c-0.112,1.418 1.455,3.937 1.57,5.166c-0,0 3.85,1.083 9.782,1.972c8.548,1.282 20.048,2.666 26.099,7.074c14.139,6.14 26.06,25.471 31.259,33.725c6.127,-2.574 15.887,-7.282 25.965,-12.328c17.832,-8.928 35.871,-1.91 39.374,1.089c6.493,5.559 7.494,8.092 -0.462,8.893c-2.204,0.221 -16.246,-11.261 -36.768,0.929c-12.312,7.314 -22.513,13.535 -22.202,14.464c0,-0 3.842,14.531 2.527,20.299c-1.292,5.666 -3.197,11.522 -13.223,17.074c-5.62,3.113 -12.842,2.039 -17.574,4.894c-2.811,1.695 -4.968,2.405 -6.76,3.273c-1.402,0.68 -8.962,1.598 -11.372,-0.297c-2.622,-2.062 -1.003,-4.709 -1.003,-4.709l-2.628,2.418l-2.424,3.765c0,0 -19.765,4.107 -24.306,4.735c-3.481,0.481 -8.017,-2.66 -9.767,-3.971c-1.058,-0.793 -0.601,-3.13 -0.601,-3.13l3.514,-7.331l-1.554,-2.537c0,-0 -13.055,3.962 -13.357,3.903c-1.52,-0.298 -5.825,-1.82 -7.039,-3.497c-1.214,-1.677 -0.854,-4.462 -0.247,-6.566c0.651,-2.259 4.163,-3.169 5.263,-5.644c2.225,-5.008 5.271,-6.966 4.399,-16.637c-0.394,-4.369 -0.381,-4.555 -1.292,-6.662c-2.346,-5.424 -2.735,-5.689 -3.985,-17.375c-0.766,-7.162 1.177,-14.592 1.177,-14.592c0,0 0.382,-2.013 -2.889,-2.885c-3.27,-0.873 -5.343,-2.371 -6.985,-4.887c-1.641,-2.516 -1.529,-2.453 -1.379,-4.5c0.107,-1.461 0.975,-3.794 0.975,-3.794Z" style="fill:#efefef;"/><path d="M12.514,69.329c0.06,-0.172 0.004,-0.271 0.004,-0.271c-1.923,-7.807 2.533,-13.37 2.533,-15.162c-0,-4.312 3.186,-20.74 5.121,-22.958c1.708,-1.957 9.24,15.812 9.24,15.812c0,0 1.152,-0.344 3.419,0.705c1.867,0.864 2.164,0.85 2.164,0.85c-0,-0 8.926,-13.088 10.534,-9.885c1.166,2.321 3.761,11.45 3.239,18.089c-0.112,1.418 1.454,3.937 1.569,5.166c0,-0 2.409,0.81 6.702,1.572c-0.178,10.379 -8.745,18.816 -19.124,18.645c-10.384,-0.172 -17.714,-4.799 -18.022,-15.179c-0.083,-2.792 0.207,-3.573 -0.025,-3.804c-0.136,-0.135 -0.856,1.601 -1.357,2.582c-1.582,3.095 -3.14,3.914 -5.997,3.838Z" style="fill:#001a35;"/><path d="M28.004,67.889c1.359,0.911 3.054,2.584 2.144,3.943c-0.91,1.359 -3.373,2.013 -4.732,1.103c-1.359,-0.91 -2.929,-1.95 -2.019,-3.309c0.911,-1.359 3.248,-2.647 4.607,-1.737Z" style="fill:#25bcb4;"/><path d="M27.027,67.923c0.687,0.277 1.08,1.663 0.755,2.907c-0.326,1.244 -1.248,1.877 -1.935,1.601c-0.687,-0.277 -0.998,-1.51 -0.673,-2.754c0.326,-1.244 1.166,-2.031 1.853,-1.754Z" style="fill:#001a35;"/><path d="M28.662,68.914c0.339,0.227 0.474,0.756 0.247,1.095c-0.227,0.339 -0.731,0.36 -1.07,0.133c-0.339,-0.227 -0.598,-0.714 -0.371,-1.053c0.227,-0.339 0.855,-0.402 1.194,-0.175Z" style="fill:#fff;"/><path d="M14.396,74.306c0.668,0.386 1.58,0.835 1.58,1.279c-0,0.443 -0.666,0.382 -1.334,-0.004c-0.668,-0.385 -1.466,-1.129 -1.466,-1.572c0,-0.443 0.552,-0.089 1.22,0.297Z" style="fill:#ffd3fe;"/><path d="M14.876,60.908c0.945,0.325 2.086,3.752 1.509,5.432c-0.577,1.68 -1.574,1.013 -2.519,0.688c-0.944,-0.324 -1.318,-3.073 -0.74,-4.753c0.577,-1.68 0.805,-1.691 1.75,-1.367Z" style="fill:#25bcb4;"/><path d="M14.803,61.372c0.526,0.012 1.065,1.258 1.082,2.639c0.017,1.382 -0.496,2.379 -1.022,2.367c-0.526,-0.013 -0.979,-1.136 -0.996,-2.517c-0.017,-1.381 0.409,-2.502 0.936,-2.489Z" style="fill:#001a35;"/><path d="M15.46,62.139c0.249,0.01 0.48,0.416 0.462,0.858c-0.019,0.443 -0.281,0.756 -0.529,0.746c-0.249,-0.011 -0.535,-0.306 -0.516,-0.749c0.018,-0.442 0.334,-0.866 0.583,-0.855Z" style="fill:#fff;"/><path d="M126.024,119.356c0,-0 2.174,14.784 1.578,17.397c-1.292,5.666 -2.412,13.631 -12.438,19.184c-5.62,3.113 -15.443,1.281 -20.175,4.135c-1.007,0.608 -1.929,1.088 -2.782,1.495c-7.969,-5.424 -12.888,-15.415 -19.194,-17.718c-22.569,-8.243 -19.772,-31.675 -19.772,-49.454c0,-12.058 4.77,-16.107 11.017,-24.62c1.306,-1.779 0.612,-3.717 -0.794,-5.583c7.983,0.652 17.419,0.253 22.651,4.064c8.781,3.813 18.606,11.604 24.548,19.836l0.014,0.02l8.491,12.875c0,0 13.23,-6.184 17.019,-7.963c0.288,-0.135 0.535,0.058 0.704,-0.025l-0,-0c2.009,-0.994 4.051,-2.322 6.127,-3.362c17.832,-8.928 36.934,0.519 40.437,3.518c6.493,5.56 7.095,12.302 -0.86,13.103c-2.205,0.222 -16.222,-11.915 -36.743,0.274c-2.694,1.601 -19.828,12.724 -19.828,12.724l-0.005,0.025l-0.002,0.022l0,0.017l0.003,0.02l0.004,0.016Z" style="fill:#001a35;"/></g></svg>