<?xml version="1.0" encoding="UTF-8" standalone="no"?><!DOCTYPE svg PUBLIC "-//W3C//DTD SVG 1.1//EN" "http://www.w3.org/Graphics/SVG/1.1/DTD/svg11.dtd"><svg width="100%" height="100%" viewBox="0 0 200 200" version="1.1" xmlns="http://www.w3.org/2000/svg" xmlns:xlink="http://www.w3.org/1999/xlink" xml:space="preserve" xmlns:serif="http://www.serif.com/" style="fill-rule:evenodd;clip-rule:evenodd;stroke-linejoin:round;stroke-miterlimit:2;"><g><path d="M8.349,120.742c0.245,-8.385 -0.434,-36.53 26.941,-48.675c12.842,-5.697 37.627,-21.464 47.184,-19.787c17.815,3.127 37.074,8.03 42.022,15.886c5.832,-2.45 14.962,-6.906 24.553,-11.708c16.972,-8.497 34.299,0.461 37.633,3.315c6.179,5.291 7.192,10.949 -0.38,11.711c-2.098,0.211 -15.038,-10.984 -34.569,0.617c-11.718,6.961 -21.008,12.663 -20.712,13.547c0,-0 -1.177,3.699 -2.429,9.188c-1.23,5.393 -0.567,11.687 -10.109,16.972c-5.349,2.962 -14.698,1.218 -19.201,3.935c-2.675,1.614 -4.728,2.29 -6.434,3.116c-1.334,0.647 -8.529,1.521 -10.823,-0.283c-2.495,-1.962 -0.954,-4.481 -0.954,-4.481l-9.823,6.648l-2.308,3.583l-2.485,11.444c-0,-0 4.489,3.34 3.736,9.822c-0.523,4.51 -5.751,2.965 -5.751,2.965c-0,0 -5.031,18.149 -6.621,19.368c-4.933,3.78 -8.42,1.081 -9.996,-1.972c-0.577,-1.118 2.296,-17.185 2.296,-17.185c0,-0 -18.989,0.399 -29.085,-5.97c-11.544,-7.282 -12.691,-21.855 -12.685,-22.056Z" style="fill:#c4a584;"/><path d="M57.366,122.196c1.933,-7.073 -2.941,-13.192 -2.971,-14.898c-0.072,-4.103 5.905,-22.064 3.792,-24.533c-1.865,-2.178 -19.151,15.304 -19.151,15.304c-0,0 -1.486,-1.172 -3.901,-0.594c-1.989,0.476 -6.218,1.226 -6.218,1.226c0,0 -14.69,-11.635 -16.362,-8.885c-1.212,1.993 2.144,13.472 3.53,18.477c0.367,1.328 -1.586,4.825 -1.689,5.973c0,-0 -1.212,7.932 1.243,11.887c2.455,3.955 12.166,6.891 12.166,6.891c0,0 3.019,4.839 9.802,4.603c4.117,-0.143 12.28,-2.511 13.003,-8.099c0.182,-1.406 6.756,-7.352 6.756,-7.352Z" style="fill:#c4a584;"/><path d="M58.134,122.704c2.004,-7.331 -3.049,-13.674 -3.079,-15.442c-0.075,-4.254 6.121,-22.872 3.93,-25.431c-1.933,-2.258 -19.852,15.864 -19.852,15.864c0,0 -1.54,-1.215 -4.043,-0.616c-2.061,0.493 -6.445,1.271 -6.445,1.271c-0,0 -14.057,-11.435 -15.79,-8.584c-1.256,2.066 1.792,11.879 2.488,18.527c0.149,1.42 -1.644,5.001 -1.751,6.191c0,0 -1.256,8.223 1.289,12.322c2.545,4.1 12.611,7.143 12.611,7.143c0,0 3.129,5.016 10.161,4.772c4.267,-0.149 12.728,-2.604 13.478,-8.396c0.189,-1.457 7.003,-7.621 7.003,-7.621Zm-0.768,-0.508c1.933,-7.073 -2.941,-13.192 -2.971,-14.898c-0.072,-4.103 5.905,-22.064 3.792,-24.533c-1.865,-2.178 -19.151,15.304 -19.151,15.304c-0,0 -1.486,-1.172 -3.901,-0.594c-1.989,0.476 -6.218,1.226 -6.218,1.226c0,0 -13.56,-11.031 -15.232,-8.281c-1.212,1.993 1.728,11.459 2.4,17.873c0.143,1.37 -1.586,4.825 -1.689,5.973c0,-0 -1.212,7.932 1.243,11.887c2.455,3.955 12.166,6.891 12.166,6.891c0,0 3.019,4.839 9.802,4.603c4.117,-0.143 12.28,-2.511 13.003,-8.099c0.182,-1.406 6.756,-7.352 6.756,-7.352Z" style="fill:#05090c;fill-opacity:0.1;"/><path d="M28.949,125.895c0.016,0.368 4.004,0.643 5.209,0.436c1.205,-0.207 2.639,1.096 2.623,0.728c-0.017,-0.367 -1.561,-1.614 -2.766,-1.407c-1.205,0.207 -5.082,-0.124 -5.066,0.243Z" style="fill:#001a35;"/><path d="M50.687,120.521c0.137,0.341 -2.903,2.115 -3.94,2.386c-1.037,0.271 -1.638,2.007 -1.775,1.665c-0.138,-0.341 0.574,-2.068 1.611,-2.339c1.037,-0.271 3.967,-2.054 4.104,-1.712Z" style="fill:#001a35;"/><path d="M17.549,102.727c0.787,0.668 0.491,0.654 -0.149,1.718c-0.202,0.337 0.506,1.456 0.382,1.726c-0.129,0.281 -0.613,-0.615 -0.735,-0.324c-0.117,0.28 0.562,1.87 0.414,2.063c-0.258,0.337 -0.91,1.667 -0.977,1.493c-0.171,-0.444 -0.083,-3.603 -0.577,-5.704c-0.745,-3.164 -1.96,-9.725 -1.96,-9.725c0.072,0.626 3.102,8.329 3.602,8.753Z" style="fill:#ffd3fe;"/><path d="M53.254,100.53c-0.891,0.675 -0.571,0.678 0.058,1.867c0.199,0.377 -0.635,1.544 -0.516,1.844c0.123,0.312 0.7,-0.628 0.814,-0.306c0.11,0.309 -0.308,1.605 -0.16,1.823c0.259,0.38 0.493,1.411 0.576,1.227c0.212,-0.471 0.305,-3.893 0.966,-6.136c0.996,-3.378 2.704,-10.401 2.704,-10.401c-0.116,0.673 -3.875,9.653 -4.442,10.082Z" style="fill:#ffd3fe;"/><path d="M42.59,130.582c0.636,-0.165 1.504,-0.463 1.504,-0.042c-0,0.422 -0.634,0.895 -1.27,1.06c-0.636,0.165 -1.395,0.093 -1.395,-0.329c0,-0.421 0.525,-0.524 1.161,-0.689Z" style="fill:#ffd3fe;"/></g></svg>