<?xml version="1.0" encoding="UTF-8" standalone="no"?><!DOCTYPE svg PUBLIC "-//W3C//DTD SVG 1.1//EN" "http://www.w3.org/Graphics/SVG/1.1/DTD/svg11.dtd"><svg width="100%" height="100%" viewBox="0 0 200 200" version="1.1" xmlns="http://www.w3.org/2000/svg" xmlns:xlink="http://www.w3.org/1999/xlink" xml:space="preserve" xmlns:serif="http://www.serif.com/" style="fill-rule:evenodd;clip-rule:evenodd;stroke-linejoin:round;stroke-miterlimit:2;"><g><path d="M9.713,93.206c-1.902,-7.723 2.506,-13.226 2.506,-14.999c-0,-4.266 3.105,-20.369 5.019,-22.563c1.69,-1.936 9.035,15.705 9.035,15.705c-0,-0 1.251,-0.33 3.494,0.708c1.846,0.854 2.089,0.948 2.089,0.948c0,-0 8.786,-13.01 10.377,-9.841c1.153,2.296 3.524,11.276 3.007,17.843c-0.11,1.403 1.439,3.896 1.553,5.111c-0,0 16.581,-22.071 31.054,-27.168c17.734,-6.246 38.537,8.346 43.68,16.512c6.061,-2.546 15.551,-7.178 25.521,-12.17c17.641,-8.832 35.651,0.479 39.117,3.446c6.423,5.5 7.475,11.381 -0.395,12.173c-2.181,0.22 -15.631,-11.418 -35.932,0.641c-12.181,7.235 -21.837,13.163 -21.529,14.081c0,0 -1.224,3.845 -2.525,9.551c-1.278,5.605 -0.589,12.148 -10.507,17.641c-5.56,3.079 -15.278,1.267 -19.959,4.091c-2.78,1.677 -4.914,2.379 -6.687,3.238c-1.387,0.672 -8.866,1.581 -11.25,-0.294c-2.594,-2.04 -0.992,-4.658 -0.992,-4.658l-23.432,10.794l-2.398,3.725c-0,-0 -10.461,6.114 -14.954,6.734c-3.444,0.476 -7.931,-2.631 -9.661,-3.928c-1.047,-0.785 -0.596,-3.097 -0.596,-3.097c0,0 -1.313,1.101 -2.184,0.931c-1.503,-0.295 -5.762,-1.8 -6.963,-3.459c-1.202,-1.659 -0.845,-4.414 -0.245,-6.496c0.644,-2.234 3.861,-4.241 4.11,-6.909c0.426,-4.587 2.537,-14.195 2.537,-14.195c-0,0 -2.345,-0.193 -5.58,-1.056c-3.236,-0.864 -5.286,-2.346 -6.91,-4.835c-1.624,-2.489 -1.513,-2.426 -1.365,-4.451c0.106,-1.446 0.965,-3.754 0.965,-3.754Z" style="fill:#abb0b4;"/><path d="M25.109,91.165c1.481,0.653 3.419,1.992 2.765,3.473c-0.653,1.48 -2.94,2.54 -4.421,1.887c-1.48,-0.654 -3.188,-1.397 -2.534,-2.878c0.653,-1.48 2.71,-3.136 4.19,-2.482Z" style="fill:#efe361;"/><path d="M23.993,91.366c0.38,0.047 0.762,1.229 0.766,2.501c0.005,1.272 -0.369,2.155 -0.748,2.108c-0.38,-0.047 -0.7,-1.11 -0.705,-2.382c-0.005,-1.272 0.308,-2.274 0.687,-2.227Z" style="fill:#001a35;"/><path d="M25.926,92.05c0.369,0.163 0.592,0.655 0.429,1.024c-0.163,0.369 -0.65,0.477 -1.02,0.314c-0.369,-0.163 -0.706,-0.594 -0.543,-0.963c0.163,-0.369 0.765,-0.538 1.134,-0.375Z" style="fill:#fff;"/><path d="M11.478,98.398c0.662,0.381 1.564,0.826 1.564,1.265c-0,0.438 -0.659,0.378 -1.32,-0.003c-0.661,-0.382 -1.45,-1.118 -1.45,-1.556c-0,-0.438 0.545,-0.088 1.206,0.294Z" style="fill:#ffd3fe;"/><path d="M11.953,85.144c0.935,0.321 2.064,3.712 1.493,5.374c-0.571,1.661 -1.557,1.001 -2.491,0.68c-0.935,-0.321 -1.304,-3.04 -0.733,-4.702c0.571,-1.661 0.797,-1.673 1.731,-1.352Z" style="fill:#efe361;"/><path d="M11.9,85.603c0.286,0.007 0.586,1.233 0.602,2.6c0.017,1.367 -0.256,2.359 -0.543,2.352c-0.286,-0.007 -0.538,-1.113 -0.555,-2.479c-0.016,-1.367 0.209,-2.48 0.496,-2.473Z" style="fill:#001a35;"/><path d="M12.531,86.361c0.246,0.01 0.475,0.412 0.457,0.849c-0.018,0.438 -0.277,0.748 -0.524,0.738c-0.246,-0.01 -0.528,-0.302 -0.51,-0.74c0.018,-0.438 0.331,-0.857 0.577,-0.847Z" style="fill:#fff;"/></g></svg>