<?xml version="1.0" encoding="UTF-8" standalone="no"?><!DOCTYPE svg PUBLIC "-//W3C//DTD SVG 1.1//EN" "http://www.w3.org/Graphics/SVG/1.1/DTD/svg11.dtd"><svg width="100%" height="100%" viewBox="0 0 200 200" version="1.1" xmlns="http://www.w3.org/2000/svg" xmlns:xlink="http://www.w3.org/1999/xlink" xml:space="preserve" xmlns:serif="http://www.serif.com/" style="fill-rule:evenodd;clip-rule:evenodd;stroke-linejoin:round;stroke-miterlimit:2;"><g><path d="M183.196,116.54c6.846,-0 -29.884,-44.558 -56.908,-49.809c-19.012,-3.694 -39.697,8.598 -44.996,17.009c-6.243,-2.623 -16.019,-7.394 -26.289,-12.536c-18.172,-9.098 -36.725,0.494 -40.295,3.55c-6.617,5.665 -7.701,11.723 0.407,12.539c2.246,0.226 16.102,-11.761 37.014,0.661c12.547,7.453 22.494,13.559 22.177,14.505c-0,-0 1.261,3.96 2.601,9.838c1.317,5.774 0.607,12.514 10.824,18.172c5.727,3.172 15.738,1.305 20.56,4.214c2.864,1.728 5.062,2.452 6.888,3.336c1.429,0.693 9.133,1.628 11.589,-0.303c2.672,-2.101 1.022,-4.798 1.022,-4.798l24.137,11.119l2.471,3.837c-0,0 10.776,6.298 15.404,6.937c3.547,0.49 8.17,-2.71 9.952,-4.046c1.078,-0.809 0.613,-3.19 0.613,-3.19c0,0 1.353,1.134 2.25,0.958c1.549,-0.303 5.936,-1.854 7.174,-3.563c1.237,-1.709 0.87,-4.547 0.251,-6.691c-0.663,-2.302 -3.977,-4.369 -4.233,-7.118c-0.439,-4.725 -2.613,-14.621 -2.613,-14.621Z" style="fill:#abb0b4;"/><path d="M148.673,95.956c0.506,0.189 35.068,29.924 35.518,27.362c1.663,-4.513 -0.886,-28.587 0.125,-30.118c1.846,-2.795 3.119,-6.103 3.119,-6.103c-0,0 0.837,-2.274 1.435,-5.671c0.598,-3.397 0.104,-5.957 -1.517,-8.554c-1.62,-2.597 -1.61,-2.467 -3.566,-3.207c-1.396,-0.529 -3.925,-0.728 -3.925,-0.728c-6.39,-5.13 -13.444,-3.401 -15.1,-4.17c-3.985,-1.852 -20.376,-5.941 -23.257,-5.105c-2.541,0.737 10.75,15.257 10.75,15.257c-0,-0 -0.851,1.026 -0.856,3.571c-0.003,2.096 -0.021,2.363 -0.021,2.363c-0,0 -15.967,2.561 -13.698,5.422c1.645,2.074 4.634,7.314 10.993,9.681Z" style="fill:#abb0b4;"/><path d="M137.459,85.021c2.607,-1.775 6.987,-3.427 11.478,-3.956c-3.351,1.144 -6.628,2.411 -9.728,3.969c3.535,6.487 15.059,10.61 20.708,13.207c0,0 -13.781,-4.046 -16.458,-6.155c-2.427,-1.912 -6,-7.065 -6,-7.065Z" style="fill:#383838;fill-opacity:0.22;"/><path d="M170.462,82.532c-0.05,1.666 0.333,4.062 1.999,4.113c1.666,0.05 3.668,-1.604 3.718,-3.27c0.051,-1.666 0.119,-3.583 -1.547,-3.634c-1.666,-0.051 -4.119,1.125 -4.17,2.791Z" style="fill:#efe361;"/><path d="M171.064,81.765c-0.105,0.433 0.883,1.282 2.107,1.749c1.225,0.467 2.224,0.377 2.329,-0.056c0.105,-0.433 -0.794,-1.171 -2.018,-1.638c-1.224,-0.468 -2.314,-0.488 -2.418,-0.055Z" style="fill:#001a35;"/><path d="M170.922,83.684c-0.013,0.416 0.346,0.841 0.761,0.854c0.416,0.012 0.732,-0.393 0.745,-0.808c0.013,-0.416 -0.238,-0.92 -0.653,-0.933c-0.416,-0.012 -0.84,0.471 -0.853,0.887Z" style="fill:#fff;"/><path d="M183.242,73.079c0.061,0.784 0.074,1.82 0.481,2.015c0.408,0.195 0.645,-0.444 0.584,-1.228c-0.061,-0.783 -0.394,-1.844 -0.801,-2.039c-0.407,-0.194 -0.324,0.468 -0.264,1.252Z" style="fill:#ffd3fe;"/><path d="M170.715,67.63c-0.117,1.011 2.532,3.568 4.33,3.776c1.798,0.207 1.623,-1.002 1.74,-2.013c0.117,-1.012 -2.246,-2.563 -4.044,-2.771c-1.798,-0.208 -1.909,-0.003 -2.026,1.008Z" style="fill:#efe361;"/><path d="M171.169,67.776c-0.166,0.368 0.797,1.291 2.059,1.914c1.263,0.622 2.351,0.711 2.516,0.343c0.166,-0.368 -0.713,-1.177 -1.975,-1.8c-1.263,-0.623 -2.435,-0.825 -2.6,-0.457Z" style="fill:#001a35;"/><path d="M171.589,68.707c-0.1,0.234 0.171,0.625 0.586,0.803c0.416,0.177 0.819,0.075 0.918,-0.159c0.1,-0.233 -0.046,-0.626 -0.461,-0.803c-0.415,-0.178 -0.943,-0.074 -1.043,0.159Z" style="fill:#fff;"/></g></svg>