<?xml version="1.0" encoding="UTF-8" standalone="no"?><!DOCTYPE svg PUBLIC "-//W3C//DTD SVG 1.1//EN" "http://www.w3.org/Graphics/SVG/1.1/DTD/svg11.dtd"><svg width="100%" height="100%" viewBox="0 0 200 200" version="1.1" xmlns="http://www.w3.org/2000/svg" xmlns:xlink="http://www.w3.org/1999/xlink" xml:space="preserve" xmlns:serif="http://www.serif.com/" style="fill-rule:evenodd;clip-rule:evenodd;stroke-linejoin:round;stroke-miterlimit:2;"><g><path d="M31.937,95.761c-1.503,-6.104 0.57,-10.949 1.863,-13.922c0.237,-0.545 0.448,-1.028 0.606,-1.443c0.107,-0.281 -0.121,-1.035 -0.327,-1.669c-0.145,-0.446 -0.279,-0.832 -0.279,-0.954c0,-0.294 0.866,0.429 0.803,-0.391c-0.048,-0.623 -0.114,-1.294 -0.197,-1.856c-0.128,-0.862 -0.406,-1.142 -0.327,-1.762c0.092,-0.715 0.539,0.163 0.933,-0.138c0.261,-0.199 0.498,-1.482 0.593,-2.047c0.938,-5.559 1.262,-12.08 1.883,-15.39c0.149,-0.79 -0.226,-1.74 0.049,-2.056c0.339,-0.388 0.974,-0.054 1.786,0.754c0.333,0.33 0.652,-0.564 1.036,-0.092c0.372,0.457 0.94,2.041 1.345,2.599c0.474,0.654 2.826,2.819 3.308,3.53c3.344,4.928 5.174,10.751 5.174,10.751c-0,-0 1.379,-0.363 3.85,0.78c2.035,0.941 2.302,1.045 2.302,1.045c0,-0 6.507,-9.634 9.818,-11.184c0.364,-0.17 1.292,-1.754 1.566,-1.705c0.274,0.048 -0.107,1.729 0.051,2.044c0.161,0.32 0.745,-0.695 0.94,-0.159c0.226,0.622 0.066,2.827 0.311,3.68c0.092,0.321 0.698,-0.032 0.79,0.316c0.138,0.523 -0.238,1.763 -0.104,2.337c0.24,1.029 0.469,2.13 0.671,3.269c0.593,3.354 2.497,5.625 2.497,5.625c1.707,-8.569 18.832,-17.304 34.142,-19.712c5.81,-0.914 11.762,-0.628 17.441,0.693c0.603,0.14 4.267,-0.847 4.863,-0.684c0.596,0.163 -1.877,1.477 -1.288,1.663c0.459,0.145 2.277,0.049 2.732,0.208c0.426,0.149 -0.512,0.552 -0.09,0.713c11.649,4.449 21.334,13.396 24.96,25.206c5.985,2.907 7.674,8 8.805,12.96c0.102,0.443 0.753,2.55 2.005,4.44c1.092,1.648 2.816,3.126 2.763,3.242c0,0 -1.663,0.058 -2.723,-0.492c-1.362,-0.708 -2.204,-2.024 -2.277,-1.566c-0.524,3.27 -0.233,5.129 -1.187,8.64c-0.085,0.314 -0.201,1.058 -0.413,3.38c-0.028,0.297 -0.255,2.543 0.107,3.282c0.437,0.894 1.072,1.743 1.076,2.093c0.009,0.81 -1.594,-0.394 -1.415,0.244c0.724,2.577 2.772,4.303 2.616,4.746c-0.168,0.476 -2.806,-1.13 -3.984,-3.098c-1.015,-1.695 -1.136,-2.812 -1.316,-2.42c-0.931,2.034 -1.548,2.947 -3.042,4.607c-1.086,1.207 -4.415,5.222 -6.288,8.279c-0.878,1.433 -2.337,3.267 -2.605,5.151c-0.252,1.769 0.692,3.613 -0.228,4.329c-0.61,0.475 -2.406,-1.304 -3.082,-3.102c-0.719,-1.914 -0.322,-3.855 -1.05,-3.339c-0.244,0.173 -1.075,1.415 -1.369,2.597c-0.319,1.289 -0.102,2.526 -0.377,2.714c-0.414,0.283 -1.192,-0.464 -1.561,-1.409c-0.236,-0.605 -0.052,-1.61 -0.328,-1.43c-2.244,1.466 -4.627,2.912 -7.119,4.292c-0.696,0.385 -3.888,1.985 -5.622,3.49c-1.555,1.348 -1.625,2.618 -2.869,2.867c-0.615,0.123 -1.267,-1.386 -1.246,-2.558c0.014,-0.778 0.809,-1.397 0.356,-1.333c-1.883,0.264 -6.504,2.289 -8.525,2.402c-2.418,0.136 -7.698,-0.883 -12.636,0.025c-3.364,0.619 -6.898,3.44 -7.975,3.013c-1.688,-0.67 0.431,-4.464 2.518,-6.75c1.252,-1.371 2.87,-1.435 2.591,-2.098c-0.119,-0.282 -0.948,-1.361 -1.797,-1.649c-0.962,-0.326 -1.949,0.139 -1.959,-0.209c-0.042,-1.543 1.398,-2.037 2.756,-3.229c1.276,-1.121 2.473,-2.989 2.473,-2.989l-11.246,0.731c0,-0 -7.725,5.167 -12.676,5.851c-3.795,0.524 -8.74,-2.9 -10.647,-4.33c-1.153,-0.864 -0.656,-3.412 -0.656,-3.412c0,0 -1.447,1.214 -2.407,1.025c-1.656,-0.324 -6.349,-1.983 -7.673,-3.811c-1.324,-1.829 -1.632,-5.198 -0.27,-7.159c0.752,-1.081 1.29,-1.7 1.29,-1.7c0,0 -1.373,-0.16 -3.146,-1.229c-1.252,-0.756 -1.97,-3.778 -2.944,-3.881c-1.509,-0.159 -0.528,2.308 -1.828,1.511c-1.386,-0.85 -2.366,-7.233 -2.366,-7.233c-0,-0 -2.584,-0.213 -6.149,-1.165c-3.566,-0.951 -5.826,-2.584 -7.615,-5.327c-1.79,-2.743 -1.667,-2.674 -1.504,-4.905c0.116,-1.594 1.063,-4.137 1.063,-4.137Z" style="fill:#001a35;"/><path d="M48.904,93.512c1.631,0.72 3.767,2.195 3.047,3.826c-0.72,1.632 -3.241,2.8 -4.872,2.08c-1.631,-0.72 -3.513,-1.539 -2.793,-3.171c0.72,-1.631 2.986,-3.455 4.618,-2.735Z" style="fill:#efe361;"/><path d="M47.674,93.733c0.418,0.052 0.839,1.355 0.844,2.757c0.005,1.401 -0.407,2.375 -0.825,2.323c-0.418,-0.052 -0.771,-1.224 -0.776,-2.626c-0.006,-1.401 0.339,-2.506 0.757,-2.454Z" style="fill:#001a35;"/><path d="M49.804,94.487c0.407,0.18 0.652,0.722 0.472,1.129c-0.18,0.407 -0.716,0.525 -1.123,0.346c-0.407,-0.18 -0.778,-0.655 -0.598,-1.061c0.179,-0.407 0.842,-0.594 1.249,-0.414Z" style="fill:#fff;"/><path d="M33.883,101.482c0.728,0.421 1.722,0.911 1.722,1.394c0,0.483 -0.726,0.417 -1.454,-0.003c-0.729,-0.421 -1.598,-1.231 -1.598,-1.714c-0,-0.484 0.601,-0.097 1.33,0.323Z" style="fill:#ffd3fe;"/><path d="M34.406,86.877c1.03,0.354 2.275,4.09 1.645,5.921c-0.629,1.832 -1.716,1.104 -2.745,0.75c-1.03,-0.354 -1.438,-3.35 -0.808,-5.181c0.629,-1.831 0.878,-1.844 1.908,-1.49Z" style="fill:#efe361;"/><path d="M34.347,87.383c0.315,0.007 0.646,1.359 0.664,2.865c0.018,1.506 -0.283,2.599 -0.598,2.592c-0.316,-0.008 -0.594,-1.227 -0.612,-2.733c-0.018,-1.505 0.23,-2.732 0.546,-2.724Z" style="fill:#001a35;"/><path d="M35.042,88.218c0.272,0.011 0.524,0.453 0.504,0.936c-0.02,0.483 -0.305,0.824 -0.577,0.813c-0.271,-0.011 -0.582,-0.333 -0.562,-0.816c0.02,-0.483 0.364,-0.944 0.635,-0.933Z" style="fill:#fff;"/></g></svg>