<?xml version="1.0" encoding="UTF-8" standalone="no"?><!DOCTYPE svg PUBLIC "-//W3C//DTD SVG 1.1//EN" "http://www.w3.org/Graphics/SVG/1.1/DTD/svg11.dtd"><svg width="100%" height="100%" viewBox="0 0 200 200" version="1.1" xmlns="http://www.w3.org/2000/svg" xmlns:xlink="http://www.w3.org/1999/xlink" xml:space="preserve" xmlns:serif="http://www.serif.com/" style="fill-rule:evenodd;clip-rule:evenodd;stroke-linejoin:round;stroke-miterlimit:2;"><g><path d="M162.468,157.952c0,-0 14.819,-11.355 19.164,-16.636c27.475,-33.387 -16.843,-60.417 -16.961,-59.155c-0,-0 -22.442,-15.377 -37.468,-20.67c-18.411,-6.484 -40.008,8.666 -45.348,17.143c-6.292,-2.643 -16.145,-7.452 -26.495,-12.634c-18.314,-9.17 -37.012,0.497 -40.61,3.577c-6.669,5.71 -7.761,11.815 0.409,12.638c2.264,0.228 16.229,-11.854 37.305,0.665c12.645,7.512 22.67,13.666 22.35,14.619c0,0 1.271,3.992 2.622,9.915c1.327,5.82 3.999,8.786 10.908,18.315c2.355,3.248 5.244,2.645 7.234,4.945c6.63,7.659 7.895,13.985 10.29,14.036c4.507,0.096 5.968,-7.347 3.197,-14.734c-1.184,-3.157 5.102,2.471 6.942,3.362c1.441,0.698 9.205,1.641 11.68,-0.305c2.693,-2.118 1.03,-4.836 1.03,-4.836l24.326,11.206l9.425,18.549Z" style="fill:#abb0b4;"/><path d="M110.807,117.484c-1.975,-8.018 2.602,-13.731 2.602,-15.572c-0,-4.429 3.223,-21.146 5.211,-23.424c1.753,-2.01 9.379,16.304 9.379,16.304c0,0 1.299,-0.342 3.627,0.735c1.918,0.887 2.17,0.984 2.17,0.984c-0,0 9.121,-13.506 10.772,-10.216c1.197,2.384 3.66,11.707 3.123,18.524c-0.115,1.457 1.494,4.045 1.612,5.306l15.368,44.125l-2.49,3.867c-0,0 -10.861,6.347 -15.525,6.992c-3.575,0.494 -8.234,-2.732 -10.031,-4.079c-1.086,-0.814 -0.617,-3.214 -0.617,-3.214c-0,-0 -1.364,1.143 -2.268,0.966c-1.561,-0.307 -5.982,-1.869 -7.229,-3.591c-1.248,-1.723 -0.877,-4.583 -0.254,-6.744c0.669,-2.32 -0.757,-6.58 -1.278,-9.313c-0.921,-4.826 -0.79,-7.016 -0.79,-7.016c0,0 -2.434,-0.201 -5.793,-1.097c-3.359,-0.896 -5.488,-2.434 -7.174,-5.018c-1.686,-2.585 -1.57,-2.52 -1.417,-4.622c0.11,-1.501 1.002,-3.897 1.002,-3.897Z" style="fill:#abb0b4;"/><path d="M124.26,134.091l-0.198,0.027c0,-0 -0.017,-0.258 -0.024,-0.375c-0.053,-0.927 -0.027,-1.371 -0.027,-1.371c0,-0 -2.516,-0.208 -5.988,-1.134c-3.472,-0.926 -5.673,-2.517 -7.416,-5.188c-1.743,-2.671 -1.623,-2.605 -1.464,-4.777c0.113,-1.552 1.035,-4.029 1.035,-4.029c-2.041,-8.289 2.689,-14.194 2.689,-16.097c0,-4.578 3.333,-21.859 5.387,-24.214c1.813,-2.077 9.696,16.854 9.696,16.854c-0,0 1.343,-0.354 3.749,0.76c1.982,0.917 2.243,1.017 2.243,1.017c-0,0 9.428,-13.961 11.136,-10.561c1.237,2.465 3.782,12.102 3.227,19.149c-0.118,1.506 1.545,4.181 1.667,5.485l6.156,2.504l-0.839,-0l-5.986,-2.016c-0.118,-1.261 -1.727,-3.849 -1.612,-5.306c0.537,-6.817 -1.926,-16.14 -3.123,-18.524c-1.651,-3.29 -10.772,10.216 -10.772,10.216c-0,0 -0.252,-0.097 -2.17,-0.984c-2.328,-1.077 -3.627,-0.735 -3.627,-0.735c0,0 -7.626,-18.314 -9.379,-16.304c-1.988,2.278 -5.211,18.995 -5.211,23.424c-0,1.841 -4.577,7.554 -2.602,15.572c-0,-0 -0.892,2.396 -1.002,3.897c-0.153,2.102 -0.269,2.037 1.417,4.622c1.686,2.584 3.815,4.122 7.174,5.018c3.359,0.896 5.793,1.097 5.793,1.097c0,0 -0.03,0.513 0.042,1.589c0.008,0.121 0.029,0.384 0.029,0.384Z" style="fill:#4c4c4c;fill-opacity:0.2;"/><path d="M113.982,123.603c0.655,0.377 1.547,0.818 1.547,1.251c0,0.434 -0.652,0.375 -1.306,-0.003c-0.654,-0.377 -1.434,-1.105 -1.434,-1.539c-0,-0.433 0.539,-0.087 1.193,0.291Z" style="fill:#ffd3fe;"/><path d="M111.504,112.288c-0.251,0.292 1.208,2.186 1.972,2.692c0.763,0.507 0.576,2.298 0.828,2.007c0.251,-0.291 0.341,-2.101 -0.422,-2.607c-0.763,-0.507 -2.127,-2.383 -2.378,-2.092Z" style="fill:#001a35;"/><path d="M130.436,121.304c-0.141,0.358 -4.508,-0.349 -5.491,-0.887c-0.983,-0.537 -2.685,0.351 -2.545,-0.007c0.141,-0.358 1.921,-1.16 2.904,-0.623c0.983,0.537 5.272,1.159 5.132,1.517Z" style="fill:#001a35;"/></g></svg>