<?xml version="1.0" encoding="UTF-8" standalone="no"?><!DOCTYPE svg PUBLIC "-//W3C//DTD SVG 1.1//EN" "http://www.w3.org/Graphics/SVG/1.1/DTD/svg11.dtd"><svg width="100%" height="100%" viewBox="0 0 200 200" version="1.1" xmlns="http://www.w3.org/2000/svg" xmlns:xlink="http://www.w3.org/1999/xlink" xml:space="preserve" xmlns:serif="http://www.serif.com/" style="fill-rule:evenodd;clip-rule:evenodd;stroke-linejoin:round;stroke-miterlimit:2;"><g><path d="M77.382,103.428c2.415,-1.345 36.468,-26.63 46.1,-28.809c2.984,-0.675 6.302,1.152 6.302,1.152c0,-0 8.1,-9.812 12.868,-23.492c5.131,-14.722 1.988,-36.082 4.604,-40.998c2.915,-5.481 7.157,-5.833 10.081,5.984c1.476,5.967 0.747,27.708 -4.759,42.48c-4.745,12.73 -12.814,21.283 -12.814,21.283c-0,-0 4.415,5.198 4.83,7.902c0.694,4.517 -0.668,19.2 -0.668,19.2l1.574,22.179l-2.17,20.377c-1.304,4.502 -5.692,6.517 -12.041,6.952c-3.809,-4.868 -3.174,-6.025 3.238,-11.302c1.375,-3.218 2.075,-7.092 1.057,-12.64c-2.035,-2.303 -4.841,-3.616 -7.146,-8.39l-0.897,-0.617l-0.233,16.747c-3.16,6.414 -7.48,7.261 -12.041,6.951c-2.553,-5.836 -0.033,-10.247 5.48,-13.818c-0.046,-3.11 -0.609,-6.305 -1.781,-9.601c-1.358,-0.623 -2.819,-1.471 -4.428,-2.534c-6.424,6.31 -13.475,11.489 -20.622,16.496l-3.117,40.738c0.192,3.344 -1.63,8.319 -1.63,8.319c-0,0 -3.625,3.866 -7.223,4.363c-2.757,0.381 -6.35,-2.107 -7.736,-3.146c-0.838,-0.628 -0.477,-2.479 -0.477,-2.479c0,0 2.289,-3.369 3.827,-6.524c1.05,-2.154 1.378,-12.626 0.289,-19.362c-0.755,-4.675 -4.536,-8.477 -4.536,-8.477l0.086,25.544c-0,-0 -6.284,6.67 -6.5,6.628c-1.203,-0.236 -6.243,-2.087 -7.205,-3.416c-0.962,-1.328 -0.676,-3.534 -0.196,-5.201c0.516,-1.789 3.092,-3.396 3.291,-5.533c0.341,-3.673 -0.55,-8.843 -1.241,-16.504c-0.312,-3.461 -1.399,-3.708 -2.121,-5.377c-1.858,-4.297 -3.126,-5.176 -4.116,-14.433c-0.607,-5.673 -2.156,-14.308 -2.156,-14.308c-0,-0 -1.877,-0.155 -4.468,-0.846c-2.591,-0.691 -4.233,-1.878 -5.534,-3.871c-1.3,-1.993 -1.211,-1.944 -1.092,-3.565c0.084,-1.158 0.772,-3.006 0.772,-3.006c-1.523,-6.184 2.007,-10.59 2.007,-12.01c-0,-3.416 2.486,-16.311 4.019,-18.067c1.353,-1.551 7.235,12.575 7.235,12.575c-0,0 1.002,-0.264 2.797,0.567c1.479,0.684 1.673,0.759 1.673,0.759c0,0 7.036,-10.417 8.309,-7.88c0.924,1.839 2.823,9.03 2.409,14.288c-0.089,1.123 1.152,3.119 1.243,4.093c0,-0 2.659,1.853 4.857,0.629Z" style="fill:#ededed;"/><path d="M55.791,106.777c1.186,0.523 2.738,1.595 2.214,2.781c-0.523,1.185 -2.355,2.034 -3.54,1.511c-1.185,-0.524 -2.553,-1.119 -2.029,-2.304c0.523,-1.186 2.17,-2.511 3.355,-1.988Z" style="fill:#efe361;"/><path d="M54.831,106.941c0.273,0.023 0.583,0.955 0.625,1.973c0.041,1.017 -0.2,1.738 -0.473,1.714c-0.273,-0.023 -0.535,-0.862 -0.577,-1.88c-0.042,-1.018 0.152,-1.831 0.425,-1.807Z" style="fill:#001a35;"/><path d="M55.872,107.521c0.295,0.131 0.474,0.525 0.343,0.821c-0.131,0.295 -0.521,0.381 -0.816,0.251c-0.296,-0.131 -0.566,-0.475 -0.435,-0.771c0.131,-0.296 0.612,-0.431 0.908,-0.301Z" style="fill:#fff;"/><path d="M44.876,112.568c0.53,0.306 1.252,0.662 1.252,1.013c-0,0.351 -0.528,0.304 -1.057,-0.002c-0.529,-0.306 -1.161,-0.895 -1.161,-1.246c-0,-0.351 0.437,-0.07 0.966,0.235Z" style="fill:#9e9d9e;"/><path d="M45.256,101.956c0.749,0.257 1.653,2.972 1.196,4.302c-0.457,1.331 -1.247,0.803 -1.995,0.546c-0.749,-0.258 -1.044,-2.435 -0.587,-3.765c0.457,-1.331 0.638,-1.341 1.386,-1.083Z" style="fill:#efe361;"/><path d="M45.213,102.323c0.23,0.006 0.47,0.988 0.483,2.082c0.013,1.094 -0.205,1.889 -0.435,1.884c-0.229,-0.006 -0.431,-0.891 -0.444,-1.986c-0.013,-1.094 0.167,-1.985 0.396,-1.98Z" style="fill:#001a35;"/><path d="M45.719,102.93c0.197,0.008 0.381,0.33 0.366,0.68c-0.015,0.351 -0.222,0.599 -0.419,0.591c-0.198,-0.008 -0.424,-0.242 -0.409,-0.593c0.015,-0.351 0.265,-0.686 0.462,-0.678Z" style="fill:#fff;"/></g></svg>