<?xml version="1.0" encoding="UTF-8" standalone="no"?><!DOCTYPE svg PUBLIC "-//W3C//DTD SVG 1.1//EN" "http://www.w3.org/Graphics/SVG/1.1/DTD/svg11.dtd"><svg width="100%" height="100%" viewBox="0 0 200 200" version="1.1" xmlns="http://www.w3.org/2000/svg" xmlns:xlink="http://www.w3.org/1999/xlink" xml:space="preserve" xmlns:serif="http://www.serif.com/" style="fill-rule:evenodd;clip-rule:evenodd;stroke-linejoin:round;stroke-miterlimit:2;"><g><path d="M81.152,97.719c11.698,-8.226 32.092,-22.338 39.291,-23.967c3.087,-0.698 6.518,1.191 6.518,1.191c-0,0 8.376,-10.147 13.307,-24.293c5.307,-15.225 2.056,-37.314 4.761,-42.399c3.015,-5.667 7.402,-6.031 10.425,6.189c1.527,6.171 0.773,28.654 -4.921,43.93c-4.907,13.165 -13.252,22.01 -13.252,22.01c0,-0 4.566,5.375 4.996,8.171c0.717,4.672 -0.691,19.857 -0.691,19.857l1.627,22.936l-2.244,21.073c-1.348,4.655 -5.886,6.74 -12.452,7.189c-3.939,-5.035 -3.282,-6.231 3.348,-11.688c1.422,-3.327 2.147,-7.334 1.093,-13.072c-2.104,-2.381 -5.006,-3.739 -7.389,-8.676l-0.928,-0.638l-0.241,17.319c-3.268,6.633 -7.736,7.508 -12.452,7.189c-2.64,-6.036 -0.034,-10.598 5.667,-14.291c-0.047,-3.215 -0.629,-6.52 -1.841,-9.928c-1.405,-0.644 -2.916,-1.522 -4.579,-2.621c-6.644,6.525 -13.936,11.881 -21.327,17.059l-3.224,42.129c0.199,3.458 -1.686,8.604 -1.686,8.604c0,-0 -3.748,3.998 -7.468,4.512c-2.852,0.394 -6.568,-2.179 -8.001,-3.254c-0.867,-0.649 -0.493,-2.564 -0.493,-2.564c0,0 2.367,-3.483 3.957,-6.746c1.086,-2.228 1.425,-13.057 0.299,-20.024c-0.781,-4.834 -4.69,-8.766 -4.69,-8.766l0.088,26.416c0,0 -6.498,6.898 -6.721,6.855c-1.245,-0.244 -6.457,-2.159 -7.452,-3.533c-0.994,-1.374 -0.699,-3.655 -0.202,-5.379c0.533,-1.85 3.197,-3.512 3.403,-5.722c0.353,-3.798 -0.569,-9.144 -1.283,-17.067c-0.323,-3.579 -1.447,-3.835 -2.194,-5.561c-1.922,-4.443 -3.232,-5.352 -4.256,-14.925c-0.533,-4.98 -1.768,-12.165 -2.129,-14.225c-1.337,-3.628 0.712,-22.98 -0.101,-24.211c-1.484,-2.247 -2.507,-4.906 -2.507,-4.906c0,-0 -0.673,-1.828 -1.154,-4.559c-0.48,-2.731 -0.083,-4.789 1.22,-6.877c1.302,-2.088 1.294,-1.982 2.866,-2.578c1.123,-0.425 3.156,-0.585 3.156,-0.585c5.136,-4.124 10.807,-2.734 12.139,-3.352c3.203,-1.489 16.38,-4.776 18.695,-4.104c2.043,0.593 -8.641,12.265 -8.641,12.265c-0,-0 0.684,0.824 0.687,2.87c0.003,1.685 0.018,1.9 0.018,1.9c-0,0 12.835,2.059 11.011,4.359c-1.322,1.667 -3.725,5.879 -8.837,7.782c-0.407,0.152 1.957,-0.561 4.784,-1.294Z" style="fill:#c4a584;"/><path d="M58.852,88.222c0.041,1.339 -0.267,3.265 -1.606,3.306c-1.34,0.041 -2.949,-1.289 -2.99,-2.628c-0.041,-1.34 -0.095,-2.881 1.244,-2.922c1.339,-0.041 3.311,0.904 3.352,2.244Z" style="fill:#25bcb4;"/><path d="M58.364,87.586c0.143,0.59 -0.594,1.512 -1.578,1.888c-0.984,0.375 -1.846,0.063 -1.988,-0.527c-0.143,-0.59 0.53,-1.385 1.514,-1.76c0.985,-0.376 1.909,-0.191 2.052,0.399Z" style="fill:#001a35;"/><path d="M58.483,89.148c0.01,0.334 -0.278,0.676 -0.612,0.686c-0.335,0.01 -0.589,-0.315 -0.599,-0.649c-0.01,-0.334 0.191,-0.74 0.525,-0.75c0.334,-0.01 0.675,0.379 0.686,0.713Z" style="fill:#fff;"/><path d="M48.578,80.623c-0.049,0.63 -0.059,1.463 -0.386,1.62c-0.328,0.156 -0.518,-0.357 -0.469,-0.987c0.048,-0.63 0.316,-1.483 0.644,-1.639c0.327,-0.157 0.26,0.376 0.211,1.006Z" style="fill:#ffd3fe;"/><path d="M58.649,76.242c0.094,0.813 -2.035,2.868 -3.481,3.035c-1.445,0.168 -1.305,-0.805 -1.399,-1.618c-0.093,-0.813 1.806,-2.06 3.251,-2.227c1.446,-0.167 1.535,-0.003 1.629,0.81Z" style="fill:#25bcb4;"/><path d="M58.281,76.352c0.176,0.393 -0.553,1.232 -1.568,1.733c-1.015,0.5 -1.934,0.474 -2.111,0.081c-0.176,-0.393 0.493,-1.125 1.508,-1.626c1.015,-0.5 1.994,-0.582 2.171,-0.188Z" style="fill:#001a35;"/><path d="M57.946,77.109c0.081,0.187 -0.137,0.502 -0.471,0.644c-0.334,0.143 -0.658,0.061 -0.738,-0.127c-0.08,-0.188 0.037,-0.503 0.371,-0.646c0.333,-0.143 0.758,-0.059 0.838,0.129Z" style="fill:#fff;"/></g></svg>