<?xml version="1.0" encoding="UTF-8" standalone="no"?><!DOCTYPE svg PUBLIC "-//W3C//DTD SVG 1.1//EN" "http://www.w3.org/Graphics/SVG/1.1/DTD/svg11.dtd"><svg width="100%" height="100%" viewBox="0 0 200 200" version="1.1" xmlns="http://www.w3.org/2000/svg" xmlns:xlink="http://www.w3.org/1999/xlink" xml:space="preserve" xmlns:serif="http://www.serif.com/" style="fill-rule:evenodd;clip-rule:evenodd;stroke-linejoin:round;stroke-miterlimit:2;"><g><path d="M89.322,116.667c3.132,0.256 6.297,0.313 9.435,0.171c0.049,6.06 0.123,15.252 0.2,25.205c0.182,23.659 0.384,51.622 0.32,52.063c-0.089,0.615 -0.541,1.216 -1.356,1.687c-1.829,1.056 -4.8,1.056 -6.629,-0c-0.865,-0.5 -1.329,-1.287 -1.368,-1.942c-0.037,-0.603 -0.452,-56.82 -0.602,-77.184Z"/><path d="M51.807,93.378c0.585,4.997 3.77,9.934 9.546,14.074c0.196,24.864 0.492,63.915 0.416,64.437c-0.089,0.616 -0.541,1.217 -1.355,1.687c-1.83,1.056 -4.8,1.056 -6.63,-0c-0.864,-0.499 -1.328,-1.287 -1.368,-1.942c-0.037,-0.614 -0.467,-58.871 -0.609,-78.256Z"/><path d="M51.72,82.866l85.797,0.744c0,-0 0.176,3.458 -0.053,10.331c-0.195,5.826 -4.617,11.483 -12.228,15.877c-16.598,9.583 -43.793,9.442 -60.692,-0.315c-8.449,-4.878 -12.735,-11.242 -12.834,-17.585c-0.098,-6.343 0.01,-9.052 0.01,-9.052Z"/><path d="M137.248,95.853c0.172,21.383 0.598,75.422 0.509,76.036c-0.089,0.616 -0.541,1.217 -1.355,1.687c-1.83,1.056 -4.801,1.056 -6.63,-0c-0.865,-0.499 -1.328,-1.287 -1.368,-1.942c-0.03,-0.496 -0.317,-38.653 -0.5,-63.497c5.221,-3.596 8.492,-7.855 9.344,-12.284Z" style="fill:#555;"/><path d="M137.248,95.853c0.172,21.383 0.598,75.422 0.509,76.036c-0.089,0.616 -0.541,1.217 -1.355,1.687c-1.83,1.056 -4.801,1.056 -6.63,-0c-0.865,-0.499 -1.328,-1.287 -1.368,-1.942c-0.03,-0.496 -0.317,-38.653 -0.5,-63.497c5.221,-3.596 8.492,-7.855 9.344,-12.284Z"/><path d="M63.999,64.282c16.599,-9.583 43.794,-9.443 60.693,0.314c16.899,9.757 17.143,25.458 0.544,35.041c-16.598,9.583 -43.793,9.442 -60.692,-0.315c-16.899,-9.756 -17.143,-25.457 -0.545,-35.04Zm3.479,2.008c14.713,-8.494 38.818,-8.369 53.797,0.279c14.979,8.648 15.195,22.565 0.483,31.059c-14.713,8.495 -38.818,8.37 -53.797,-0.278c-14.979,-8.648 -15.195,-22.566 -0.483,-31.06Z" style="fill:#555;"/><path d="M127.797,43.861c-1.511,-1.224 -3.219,-2.397 -5.136,-3.504c-8.2,-4.734 -18.503,-7.505 -29.112,-8.302c0.05,6.177 0.123,15.308 0.199,25.131c-3.176,0.006 -6.345,0.215 -9.443,0.625c-0.075,-10.145 -0.21,-46.122 -0.21,-46.122c-0,-1.756 0.712,-3.436 1.974,-4.657c1.261,-1.221 2.964,-1.878 4.719,-1.821c11.572,0.534 22.963,3.359 31.873,8.503c10.509,6.068 14.735,14.098 14.736,22.002c-0,1.342 -0.071,4.418 -0.168,7.988c0.158,19.47 0.47,35.446 0.378,36.085c-0.089,0.615 -0.541,1.216 -1.356,1.686c-1.829,1.056 -4.8,1.056 -6.629,0c-0.865,-0.499 -1.329,-1.286 -1.368,-1.941c-0.037,-0.611 -0.313,-15.989 -0.457,-35.673Z"/><path d="M127.814,27.767c-3.09,-10.607 -31.003,-15.587 -35.454,-15.077c-1.533,6.21 -0.646,8.936 0.328,13.084c18.371,0.823 26.288,6.498 35.422,11.788l-0.296,-9.795Z" style="fill:#709798;"/><g><path d="M52.064,93.392c0.584,4.996 3.77,9.933 9.545,14.074c0.197,24.863 0.493,63.915 0.417,64.437c-0.089,0.615 -0.541,1.216 -1.356,1.686c-1.829,1.056 -4.8,1.056 -6.629,0c-0.865,-0.499 -1.329,-1.286 -1.368,-1.941c-0.037,-0.615 -0.467,-58.871 -0.609,-78.256Z" style="fill:#a6a6a6;fill-opacity:0.28;"/><path d="M51.977,82.879l85.797,0.744c-0,-0 0.176,3.459 -0.054,10.331c-0.194,5.826 -4.617,11.483 -12.227,15.877c-16.598,9.583 -43.794,9.442 -60.693,-0.314c-8.449,-4.879 -12.735,-11.243 -12.833,-17.586c-0.099,-6.343 0.01,-9.052 0.01,-9.052Z" style="fill:#a6a6a6;fill-opacity:0.28;"/><path d="M137.504,95.866c0.173,21.383 0.599,75.422 0.51,76.037c-0.089,0.615 -0.541,1.216 -1.356,1.686c-1.829,1.056 -4.8,1.056 -6.629,0c-0.865,-0.499 -1.329,-1.286 -1.368,-1.941c-0.03,-0.497 -0.317,-38.654 -0.501,-63.497c5.222,-3.596 8.492,-7.856 9.344,-12.285Z" style="fill:#a6a6a6;fill-opacity:0.28;"/><path d="M89.579,116.681c3.131,0.255 6.297,0.312 9.435,0.17c0.165,20.465 0.61,76.642 0.519,77.268c-0.089,0.616 -0.541,1.217 -1.355,1.687c-1.83,1.056 -4.8,1.056 -6.63,-0c-0.865,-0.499 -1.328,-1.287 -1.368,-1.942c-0.036,-0.603 -0.452,-56.82 -0.601,-77.183Z" style="fill:#a6a6a6;fill-opacity:0.28;"/></g><path d="M63.999,64.282c16.599,-9.583 43.794,-9.443 60.693,0.314c16.899,9.757 17.143,25.458 0.544,35.041c-16.598,9.583 -43.793,9.442 -60.692,-0.315c-16.899,-9.756 -17.143,-25.457 -0.545,-35.04Z" style="fill:#709798;"/></g><path d="M63.999,64.282c16.599,-9.583 43.794,-9.443 60.693,0.314c16.899,9.757 17.143,25.458 0.544,35.041c-16.598,9.583 -43.793,9.442 -60.692,-0.315c-16.899,-9.756 -17.143,-25.457 -0.545,-35.04Zm54.377,3.96c-2.695,-1.556 -5.721,-2.802 -8.943,-3.738c-5.247,-1.525 -11.013,-2.226 -16.712,-2.102c-3.766,0.082 -7.503,0.525 -11.042,1.329c-4.106,0.934 -7.944,2.354 -11.25,4.263c-0.06,0.035 -0.12,0.07 -0.18,0.105l-2.389,1.561c-2.668,1.947 -4.587,4.128 -5.76,6.416c-1.43,2.793 -1.749,5.745 -0.958,8.626c0.876,3.195 3.117,6.301 6.718,9.003l2.389,1.61c0.2,0.121 0.404,0.242 0.61,0.361c4.555,2.629 10.055,4.375 15.847,5.233c1.844,0.273 3.717,0.456 5.598,0.549c3.422,0.17 6.872,0.041 10.223,-0.385c5.985,-0.763 11.653,-2.478 16.28,-5.148l-1.965,1.047l0.581,-0.293l0.01,-0.005c0.749,-0.386 1.484,-0.8 2.2,-1.244c0.572,-0.354 1.132,-0.728 1.676,-1.123c1.008,-0.73 1.964,-1.533 2.839,-2.418c0.132,-0.133 0.262,-0.268 0.39,-0.406c0.874,-0.936 1.656,-1.963 2.292,-3.077c0.101,-0.176 0.197,-0.354 0.29,-0.534c0.216,-0.418 0.41,-0.847 0.58,-1.286c0.042,-0.108 0.082,-0.217 0.121,-0.326c0.206,-0.576 0.369,-1.167 0.485,-1.768c0.084,-0.434 0.144,-0.874 0.177,-1.316c0.034,-0.444 0.042,-0.89 0.024,-1.335c-0.027,-0.645 -0.109,-1.288 -0.242,-1.92c-0.099,-0.468 -0.226,-0.93 -0.379,-1.384c-0.105,-0.312 -0.222,-0.621 -0.351,-0.925c-0.096,-0.227 -0.198,-0.452 -0.307,-0.674c-0.084,-0.172 -0.172,-0.343 -0.263,-0.513c-0.66,-1.224 -1.493,-2.35 -2.431,-3.374c-0.157,-0.172 -0.317,-0.34 -0.48,-0.506c-0.215,-0.219 -0.434,-0.434 -0.658,-0.643c-0.298,-0.278 -0.602,-0.548 -0.914,-0.81c-0.38,-0.32 -0.77,-0.628 -1.168,-0.925c-0.525,-0.391 -1.064,-0.764 -1.615,-1.118c-0.739,-0.477 -1.499,-0.921 -2.275,-1.336l-0.001,-0.001l-0.581,-0.304l1.534,0.834Z"/></svg>