<?xml version="1.0" encoding="UTF-8" standalone="no"?><!DOCTYPE svg PUBLIC "-//W3C//DTD SVG 1.1//EN" "http://www.w3.org/Graphics/SVG/1.1/DTD/svg11.dtd"><svg width="100%" height="100%" viewBox="0 0 200 200" version="1.1" xmlns="http://www.w3.org/2000/svg" xmlns:xlink="http://www.w3.org/1999/xlink" xml:space="preserve" xmlns:serif="http://www.serif.com/" style="fill-rule:evenodd;clip-rule:evenodd;stroke-linejoin:round;stroke-miterlimit:2;"><g><path d="M142.63,82.738c0.172,21.383 0.598,75.422 0.509,76.036c-0.089,0.616 -0.541,1.217 -1.355,1.687c-1.83,1.056 -4.8,1.056 -6.63,-0c-0.865,-0.499 -1.328,-1.287 -1.368,-1.942c-0.03,-0.496 -0.317,-38.653 -0.5,-63.497c5.221,-3.596 8.492,-7.855 9.344,-12.284Z"/><path d="M57.102,69.751l85.797,0.744c0,-0 0.176,3.458 -0.053,10.331c-0.195,5.826 -4.617,11.483 -12.227,15.877c-16.599,9.583 -43.794,9.442 -60.693,-0.315c-8.449,-4.878 -12.735,-11.242 -12.834,-17.585c-0.098,-6.343 0.01,-9.052 0.01,-9.052Z"/><path d="M57.189,80.264c0.585,4.996 3.77,9.933 9.546,14.073c0.196,24.864 0.492,63.915 0.417,64.437c-0.09,0.616 -0.541,1.217 -1.356,1.687c-1.83,1.056 -4.8,1.056 -6.63,-0c-0.864,-0.499 -1.328,-1.287 -1.368,-1.942c-0.037,-0.614 -0.467,-58.87 -0.609,-78.255Z"/><path d="M94.704,103.552c3.132,0.256 6.297,0.313 9.436,0.171c0.165,20.464 0.61,76.641 0.519,77.268c-0.089,0.615 -0.541,1.216 -1.356,1.687c-1.829,1.056 -4.8,1.056 -6.629,-0c-0.865,-0.5 -1.329,-1.287 -1.368,-1.942c-0.037,-0.603 -0.452,-56.82 -0.602,-77.184Z"/><g><path d="M57.446,80.277c0.584,4.996 3.77,9.933 9.545,14.074c0.197,24.863 0.493,63.915 0.417,64.437c-0.089,0.615 -0.541,1.216 -1.356,1.686c-1.829,1.056 -4.8,1.056 -6.629,0c-0.865,-0.499 -1.329,-1.286 -1.368,-1.941c-0.037,-0.615 -0.467,-58.871 -0.609,-78.256Z" style="fill:#a6a6a6;fill-opacity:0.28;"/><path d="M57.359,69.764l85.797,0.744c-0,-0 0.176,3.459 -0.054,10.331c-0.194,5.826 -4.617,11.483 -12.227,15.877c-16.598,9.583 -43.794,9.442 -60.692,-0.314c-8.45,-4.879 -12.736,-11.243 -12.834,-17.586c-0.099,-6.343 0.01,-9.052 0.01,-9.052Z" style="fill:#a6a6a6;fill-opacity:0.28;"/><path d="M142.886,82.751c0.173,21.383 0.599,75.422 0.51,76.037c-0.089,0.615 -0.541,1.216 -1.356,1.686c-1.829,1.056 -4.8,1.056 -6.629,0c-0.865,-0.499 -1.329,-1.286 -1.368,-1.941c-0.03,-0.497 -0.317,-38.654 -0.501,-63.497c5.222,-3.596 8.493,-7.856 9.344,-12.285Z" style="fill:#a6a6a6;fill-opacity:0.28;"/><path d="M94.961,103.566c3.131,0.255 6.297,0.312 9.435,0.17c0.165,20.465 0.61,76.642 0.519,77.268c-0.089,0.616 -0.541,1.217 -1.355,1.687c-1.83,1.056 -4.8,1.056 -6.63,-0c-0.864,-0.499 -1.328,-1.287 -1.368,-1.942c-0.036,-0.603 -0.452,-56.82 -0.601,-77.183Z" style="fill:#a6a6a6;fill-opacity:0.28;"/></g><path d="M69.381,51.167c16.599,-9.583 43.794,-9.442 60.693,0.314c16.899,9.757 17.143,25.458 0.545,35.041c-16.599,9.583 -43.794,9.442 -60.693,-0.314c-16.899,-9.757 -17.143,-25.458 -0.545,-35.041Z" style="fill:#709798;"/><path d="M69.381,51.167c16.599,-9.583 43.794,-9.442 60.693,0.314c16.899,9.757 17.143,25.458 0.545,35.041c-16.599,9.583 -43.794,9.442 -60.693,-0.314c-16.899,-9.757 -17.143,-25.458 -0.545,-35.041Zm54.377,3.96c-13.35,-7.707 -34.834,-7.819 -47.947,-0.248c-13.112,7.571 -12.92,19.975 0.431,27.682c12.099,6.986 30.879,7.732 44.053,2.175l1.106,-0.488l0.028,-0.013c0.303,-0.14 0.604,-0.283 0.903,-0.431c0.616,-0.306 1.222,-0.629 1.818,-0.972c0.659,-0.38 1.305,-0.783 1.933,-1.212c0.482,-0.329 0.953,-0.674 1.412,-1.035c0.336,-0.265 0.666,-0.539 0.987,-0.822c0.213,-0.188 0.422,-0.379 0.626,-0.574c0.174,-0.166 0.344,-0.334 0.512,-0.506c1.011,-1.036 1.911,-2.186 2.624,-3.448c0.097,-0.172 0.19,-0.345 0.28,-0.521c0.131,-0.256 0.254,-0.517 0.368,-0.781c0.139,-0.32 0.265,-0.645 0.376,-0.975c0.152,-0.446 0.278,-0.901 0.376,-1.362c0.143,-0.669 0.227,-1.35 0.249,-2.033c0.015,-0.475 0,-0.951 -0.044,-1.424c-0.043,-0.468 -0.115,-0.932 -0.215,-1.392c-0.139,-0.643 -0.331,-1.275 -0.57,-1.889c-0.226,-0.581 -0.493,-1.145 -0.795,-1.69c-0.745,-1.346 -1.697,-2.571 -2.768,-3.672c-0.174,-0.179 -0.351,-0.354 -0.53,-0.527c-0.994,-0.951 -2.075,-1.809 -3.21,-2.584c-0.589,-0.403 -1.193,-0.784 -1.808,-1.144c-0.575,-0.338 -1.161,-0.658 -1.754,-0.961c-0.26,-0.133 -0.522,-0.262 -0.784,-0.389l-0.014,-0.007l-1.106,-0.51l3.463,1.753Z"/><path d="M95.762,60.373c0.058,0.735 -5.816,-0.05 -17.225,-5.135c-8.528,-3.8 -13.294,-12.73 -13.292,-12.514c0.044,6.178 0.109,15.309 0.176,25.132c-2.829,0.006 -5.653,0.215 -8.413,0.625c-0.068,-10.145 -0.188,-46.122 -0.188,-46.122c0,-1.756 0.635,-3.436 1.759,-4.657c1.124,-1.222 3.448,-1.549 4.79,-0.745c3.069,1.837 8.614,12.215 24.652,20.099c14.11,6.937 16.294,1.426 16.294,9.33c0,1.342 -0.063,4.418 -0.149,7.988c0.141,19.47 0.419,35.446 0.337,36.084c-0.08,0.616 -0.482,1.217 -1.208,1.687c-1.63,1.056 -4.277,1.056 -5.908,0c-0.77,-0.499 -1.183,-1.286 -1.218,-1.941c-0.033,-0.612 -0.279,-10.147 -0.407,-29.831Z"/><path d="M64.318,33.878c7.578,16.901 26.592,20.843 31.04,21.381c0.088,-5.014 0.335,-3.498 0.352,-7.759c-17.678,-5.068 -25.079,-11.106 -31.697,-21.395l0.305,7.773Z" style="fill:#709798;"/></g></svg>