<?xml version="1.0" encoding="UTF-8" standalone="no"?><!DOCTYPE svg PUBLIC "-//W3C//DTD SVG 1.1//EN" "http://www.w3.org/Graphics/SVG/1.1/DTD/svg11.dtd"><svg width="100%" height="100%" viewBox="0 0 200 200" version="1.1" xmlns="http://www.w3.org/2000/svg" xmlns:xlink="http://www.w3.org/1999/xlink" xml:space="preserve" xmlns:serif="http://www.serif.com/" style="fill-rule:evenodd;clip-rule:evenodd;stroke-linejoin:round;stroke-miterlimit:2;"><g><path d="M95.915,112.161c2.416,0.198 4.858,0.242 7.278,0.132c0.038,4.675 0.095,11.766 0.154,19.445c0.141,18.251 0.296,39.823 0.247,40.163c-0.069,0.475 -0.417,0.939 -1.046,1.301c-1.411,0.815 -3.703,0.815 -5.114,0c-0.667,-0.385 -1.025,-0.992 -1.055,-1.497c-0.029,-0.466 -0.349,-43.834 -0.464,-59.544Z" style="fill:#141414;"/><path d="M66.974,94.195c0.451,3.855 2.908,7.664 7.364,10.858c0.151,19.181 0.379,49.307 0.321,49.709c-0.069,0.475 -0.417,0.939 -1.046,1.301c-1.411,0.815 -3.703,0.815 -5.114,0c-0.667,-0.385 -1.025,-0.992 -1.055,-1.497c-0.029,-0.474 -0.361,-45.416 -0.47,-60.371Z" style="fill:#141414;"/><path d="M132.887,96.104c0.133,16.496 0.461,58.184 0.393,58.658c-0.069,0.475 -0.418,0.939 -1.046,1.301c-1.412,0.815 -3.703,0.815 -5.115,0c-0.667,-0.385 -1.024,-0.992 -1.055,-1.497c-0.023,-0.384 -0.244,-29.819 -0.386,-48.985c4.028,-2.774 6.551,-6.06 7.209,-9.477Z" style="fill:#141414;"/><path d="M67.172,94.206c0.451,3.854 2.908,7.663 7.364,10.857c0.151,19.181 0.379,49.307 0.321,49.709c-0.069,0.475 -0.417,0.939 -1.046,1.302c-1.411,0.814 -3.703,0.814 -5.114,-0c-0.667,-0.386 -1.025,-0.993 -1.055,-1.498c-0.029,-0.474 -0.361,-45.416 -0.47,-60.37Z" style="fill:#a6a6a6;fill-opacity:0.28;"/><path d="M133.085,96.114c0.132,16.496 0.461,58.184 0.393,58.658c-0.069,0.475 -0.418,0.939 -1.046,1.302c-1.412,0.814 -3.703,0.814 -5.115,-0c-0.667,-0.386 -1.024,-0.993 -1.055,-1.498c-0.023,-0.383 -0.244,-29.819 -0.386,-48.985c4.028,-2.774 6.551,-6.06 7.209,-9.477Z" style="fill:#a6a6a6;fill-opacity:0.28;"/><path d="M96.113,112.172c2.415,0.197 4.857,0.241 7.278,0.131c0.128,15.788 0.471,59.125 0.401,59.608c-0.069,0.475 -0.417,0.939 -1.046,1.302c-1.411,0.814 -3.703,0.814 -5.114,-0c-0.667,-0.386 -1.025,-0.993 -1.056,-1.498c-0.028,-0.466 -0.348,-43.834 -0.463,-59.543Z" style="fill:#a6a6a6;fill-opacity:0.28;"/><path d="M66.907,86.086l66.187,0.573c0,0 0.136,2.669 -0.041,7.97c-0.15,4.494 -3.562,8.859 -9.432,12.248c-12.805,7.393 -33.785,7.285 -46.821,-0.242c-6.519,-3.763 -9.825,-8.673 -9.901,-13.566c-0.076,-4.893 0.008,-6.983 0.008,-6.983Z" style="fill:#141414;"/><path d="M66.865,86.086l66.188,0.573c-0,0 0.135,2.669 -0.042,7.97c-0.15,4.494 -3.561,8.859 -9.432,12.248c-12.805,7.393 -33.785,7.285 -46.821,-0.242c-6.519,-3.763 -9.825,-8.673 -9.901,-13.566c-0.076,-4.893 0.008,-6.983 0.008,-6.983Z" style="fill:#a6a6a6;fill-opacity:0.28;"/><path d="M76.379,71.749c12.805,-7.393 33.785,-7.284 46.821,0.242c13.037,7.527 13.225,19.64 0.421,27.032c-12.805,7.393 -33.785,7.285 -46.821,-0.242c-13.037,-7.527 -13.225,-19.639 -0.421,-27.032Zm2.684,1.549c11.35,-6.553 29.946,-6.456 41.501,0.215c11.556,6.672 11.723,17.408 0.373,23.961c-11.35,6.553 -29.946,6.456 -41.501,-0.215c-11.556,-6.671 -11.723,-17.408 -0.373,-23.961Z" style="fill:#555;"/><path d="M125.596,55.995c-1.166,-0.944 -2.483,-1.849 -3.962,-2.703c-6.326,-3.652 -14.274,-5.789 -22.458,-6.405c0.038,4.766 0.094,11.81 0.153,19.388c-2.45,0.005 -4.895,0.165 -7.285,0.482c-0.058,-7.826 -0.162,-35.58 -0.162,-35.58c0,-1.355 0.549,-2.651 1.523,-3.593c0.973,-0.942 2.287,-1.449 3.641,-1.405c8.926,0.412 17.714,2.592 24.588,6.56c8.107,4.68 11.367,10.875 11.367,16.973c0.001,1.035 -0.054,3.409 -0.129,6.163c0.122,15.019 0.363,27.344 0.292,27.837c-0.069,0.474 -0.418,0.938 -1.046,1.301c-1.411,0.815 -3.703,0.815 -5.114,-0c-0.668,-0.385 -1.025,-0.993 -1.056,-1.498c-0.028,-0.472 -0.241,-12.334 -0.352,-27.52Z" style="fill:#141414;"/><path d="M125.609,43.58c-2.384,-8.183 -23.917,-12.025 -27.351,-11.631c-1.182,4.79 -0.498,6.894 0.253,10.094c14.173,0.634 20.28,5.012 27.326,9.093l-0.228,-7.556Z" style="fill:#709798;"/><path d="M76.379,71.749c12.805,-7.393 33.785,-7.284 46.821,0.242c13.037,7.527 13.225,19.64 0.421,27.032c-12.805,7.393 -33.785,7.285 -46.821,-0.242c-13.037,-7.527 -13.225,-19.639 -0.421,-27.032Zm4.961,2.864c10.115,-5.841 26.69,-5.755 36.988,0.191c10.299,5.946 10.448,15.515 0.332,21.356c-10.115,5.84 -26.69,5.754 -36.988,-0.192c-10.299,-5.946 -10.448,-15.515 -0.332,-21.355Z" style="fill:#141414;"/><path d="M81.132,74.493c10.228,-5.906 26.987,-5.819 37.401,0.193c10.413,6.013 10.563,15.688 0.335,21.594c-10.228,5.905 -26.987,5.818 -37.401,-0.194c-10.413,-6.012 -10.563,-15.688 -0.335,-21.593Z" style="fill:#709798;"/></g></svg>