<?xml version="1.0" encoding="UTF-8" standalone="no"?><!DOCTYPE svg PUBLIC "-//W3C//DTD SVG 1.1//EN" "http://www.w3.org/Graphics/SVG/1.1/DTD/svg11.dtd"><svg width="100%" height="100%" viewBox="0 0 200 200" version="1.1" xmlns="http://www.w3.org/2000/svg" xmlns:xlink="http://www.w3.org/1999/xlink" xml:space="preserve" xmlns:serif="http://www.serif.com/" style="fill-rule:evenodd;clip-rule:evenodd;stroke-linejoin:round;stroke-miterlimit:2;"><path d="M32.783,116.211c-0.015,-4.015 -0.015,-12.317 0,-16.331c0.037,-9.909 6.597,-19.811 19.68,-27.365c26.239,-15.149 68.845,-15.149 95.084,0c13.083,7.554 19.643,17.456 19.68,27.364c0.015,4.015 -0.015,12.205 -0,16.163c0.036,9.964 -6.523,19.936 -19.68,27.532c-26.239,15.149 -68.845,15.149 -95.084,-0c-13.083,-7.553 -19.642,-17.455 -19.68,-27.363Zm101.667,-4.441c-1.669,1.621 -3.711,3.15 -6.125,4.544c-15.63,9.024 -41.01,9.024 -56.64,0c-2.415,-1.394 -4.456,-2.923 -6.125,-4.544c1.669,-1.621 3.71,-3.15 6.125,-4.544c15.63,-9.024 41.01,-9.024 56.64,-0c2.414,1.394 4.456,2.923 6.125,4.544Z" style="fill:#25bcb4;"/><path d="M52.463,72.515c26.239,-15.149 68.845,-15.149 95.084,0c26.239,15.149 26.239,39.748 0,54.897c-26.239,15.149 -68.845,15.149 -95.084,0c-26.24,-15.149 -26.24,-39.748 -0,-54.897Zm19.222,11.098c15.63,-9.024 41.01,-9.024 56.64,0c15.63,9.024 15.63,23.677 -0,32.701c-15.63,9.024 -41.01,9.024 -56.64,0c-15.63,-9.024 -15.63,-23.677 0,-32.701Z" style="fill:#f3f3f3;fill-opacity:0.35;"/><path d="M71.682,83.614l-19.233,-11.099c26.256,-15.159 68.827,-15.159 95.084,0c11.749,6.783 18.731,15.838 19.6,25.417l-27.081,0.815c0,-0 -0.004,0.192 0.002,0.279c0.303,4.396 -1.595,8.845 -5.608,12.745c-0.206,0.2 -0.206,0.2 0,-0c-1.668,-1.621 -3.71,-3.15 -6.125,-4.544c-14.676,-8.474 -37.949,-8.991 -53.674,-1.551c-0.511,0.242 -1.508,0.75 -1.508,0.75l-1.457,-22.812Z" style="fill:#001a35;"/><path d="M52.449,72.523c26.256,-15.159 68.827,-15.159 95.084,0c11.749,6.783 18.731,15.838 19.6,25.417l-27.095,0.82c-0.519,-5.714 -4.683,-11.114 -11.691,-15.16c-15.661,-9.042 -41.052,-9.042 -56.713,0l-19.185,-11.077Z" style="fill:#fff;fill-opacity:0.09;"/></svg>