<?xml version="1.0" encoding="UTF-8" standalone="no"?><!DOCTYPE svg PUBLIC "-//W3C//DTD SVG 1.1//EN" "http://www.w3.org/Graphics/SVG/1.1/DTD/svg11.dtd"><svg width="100%" height="100%" viewBox="0 0 200 200" version="1.1" xmlns="http://www.w3.org/2000/svg" xmlns:xlink="http://www.w3.org/1999/xlink" xml:space="preserve" xmlns:serif="http://www.serif.com/" style="fill-rule:evenodd;clip-rule:evenodd;stroke-linejoin:round;stroke-miterlimit:2;"><path d="M32.838,115.906c-0.447,-4.489 -0.111,-13.824 -0.111,-17.57c-0,-9.953 6.57,-19.907 19.712,-27.494c26.283,-15.175 68.96,-15.175 95.243,-0c13.219,7.632 19.79,17.658 19.711,27.671c-0.028,3.687 0.001,11.401 0.001,15.147c-0,9.954 -6.571,19.907 -19.712,27.495c-26.283,15.174 -68.96,15.174 -95.243,-0c-12.153,-7.017 -18.687,-16.057 -19.601,-25.249Z" style="fill:#25bcb4;"/><path d="M52.439,70.842c26.283,-15.175 68.96,-15.175 95.243,-0c26.283,15.174 26.283,39.814 -0,54.988c-26.283,15.175 -68.96,15.175 -95.243,0c-26.283,-15.174 -26.283,-39.814 -0,-54.988Z" style="fill:#fff;fill-opacity:0.24;"/><path d="M52.439,70.842c26.301,-15.185 68.942,-15.185 95.243,-0c7.515,4.339 13.145,9.643 16.429,15.479l-64.051,12.015l-47.621,-27.494Z" style="fill:#001a35;"/></svg>