<?xml version="1.0" encoding="UTF-8" standalone="no"?><!DOCTYPE svg PUBLIC "-//W3C//DTD SVG 1.1//EN" "http://www.w3.org/Graphics/SVG/1.1/DTD/svg11.dtd"><svg width="100%" height="100%" viewBox="0 0 200 200" version="1.1" xmlns="http://www.w3.org/2000/svg" xmlns:xlink="http://www.w3.org/1999/xlink" xml:space="preserve" xmlns:serif="http://www.serif.com/" style="fill-rule:evenodd;clip-rule:evenodd;stroke-linejoin:round;stroke-miterlimit:2;"><path d="M17.47,73.409l2.484,-2.484l13.397,13.397l0.582,-0.582l-13.397,-13.397l-1.164,-0l-1.902,1.902l-0,1.164Z" style="fill:#fff;"/><path d="M34.991,79.828l-0.582,0.582l16.595,16.595l-1.903,1.902l-16.594,-16.595l-0.582,0.583l16.594,16.594l1.164,0l1.903,-1.902l-0,-1.164l-16.595,-16.595Z" style="fill:#fff;"/><path d="M35.834,81.839l0.583,-0.582l-13.398,-13.398l1.903,-1.902l13.397,13.397l0.582,-0.582l-13.397,-13.397l-1.164,-0l-1.903,1.902l0,1.164l13.397,13.398Z" style="fill:#fff;"/><path d="M39.959,74.86l-0.582,0.582l16.594,16.595l-1.902,1.902l-16.595,-16.594l-0.582,0.582l16.595,16.594l1.164,0l1.902,-1.902l0,-1.164l-16.594,-16.595Z" style="fill:#fff;"/><path d="M40.803,76.87l0.582,-0.582l-13.397,-13.398l1.903,-1.902l13.397,13.397l0.582,-0.582l-13.397,-13.397l-1.164,0l-1.903,1.902l0,1.165l13.397,13.397Z" style="fill:#fff;"/><path d="M44.928,69.891l-0.582,0.582l16.594,16.595l-1.902,1.903l-16.595,-16.595l-0.582,0.582l16.595,16.595l1.164,-0l1.902,-1.903l0,-1.164l-16.594,-16.595Z" style="fill:#fff;"/><path d="M45.766,71.907l0.582,-0.582l-13.397,-13.397l1.902,-1.902l13.397,13.397l0.582,-0.582l-13.397,-13.397l-1.164,-0l-1.902,1.902l-0,1.164l13.397,13.397Z" style="fill:#fff;"/><path d="M50.744,66.94l0.582,-0.582l-13.397,-13.397l4.161,-4.162l8.666,8.666l0.582,-0.582l-8.666,-8.666l-1.164,-0l-4.161,4.162l-0,1.164l13.397,13.397Z" style="fill:#fff;"/><path d="M37.345,52.384l-0.582,0.582l29.14,29.14l-1.903,1.902l-16.594,-16.595l-0.582,0.583l16.594,16.594l1.164,0l1.903,-1.902l-0,-1.164l-29.14,-29.14Z" style="fill:#fff;"/><rect x="4.8" y="43.74" width="190.389" height="112.52" style="fill:#d6dadf;"/><path d="M146.362,43.733l-0.823,0l-0,20.973l-2.691,0l0,-20.973l-0.823,0l0,20.973l0.823,0.823l2.691,0l0.823,-0.823l0,-20.973Z" style="fill:#fff;"/><rect x="138.505" y="43.803" width="0.823" height="21.758" style="fill:#fff;"/><path d="M153.391,43.72l-0.823,-0l-0,20.973l-2.691,-0l0,-20.973l-0.823,-0l0,20.973l0.823,0.823l2.691,0l0.823,-0.823l-0,-20.973Z" style="fill:#fff;"/><path d="M160.414,43.719l-0.823,0l-0,20.973l-2.691,0l0,-20.973l-0.823,0l0,20.973l0.823,0.824l2.691,-0l0.823,-0.824l-0,-20.973Z" style="fill:#fff;"/><path d="M167.426,43.733l-0.823,0l0,20.973l-2.69,0l-0,-20.973l-0.823,0l-0,20.973l0.823,0.823l2.69,0l0.823,-0.823l0,-20.973Z" style="fill:#fff;"/><path d="M44.681,137.328l-0.888,0.823l-0,2.69l0.888,0.824l43.607,-0l0.889,-0.824l-0,-2.69l-0.889,-0.823l-43.607,-0Zm0,0.823l0,2.69l43.607,0l0,-2.69l-43.607,-0Z" style="fill:#fff;"/><path d="M44.681,130.491l-0.888,0.823l-0,2.691l0.888,0.823l43.607,-0l0.889,-0.823l-0,-2.691l-0.889,-0.823l-43.607,0Zm0,0.823l0,2.691l43.607,-0l0,-2.691l-43.607,0Z" style="fill:#fff;"/><path d="M44.681,123.817l-0.888,0.823l-0,2.691l0.888,0.823l43.607,-0l0.889,-0.823l-0,-2.691l-0.889,-0.823l-43.607,0Zm0,0.823l0,2.691l43.607,-0l0,-2.691l-43.607,0Z" style="fill:#fff;"/><path d="M44.681,116.936l-0.888,0.823l-0,2.69l0.888,0.823l43.607,0l0.889,-0.823l-0,-2.69l-0.889,-0.823l-43.607,-0Zm0,0.823l0,2.69l43.607,0l0,-2.69l-43.607,-0Z" style="fill:#fff;"/><path d="M11.921,73.409l2.484,-2.484l13.398,13.397l0.582,-0.582l-13.398,-13.397l-1.164,-0l-1.902,1.902l-0,1.164Z" style="fill:#fff;"/><path d="M29.442,79.828l-0.582,0.582l16.595,16.595l-1.902,1.902l-16.595,-16.595l-0.582,0.583l16.594,16.594l1.165,0l1.902,-1.902l0,-1.164l-16.595,-16.595Z" style="fill:#fff;"/><path d="M30.286,81.839l0.582,-0.582l-13.397,-13.398l1.902,-1.902l13.397,13.397l0.582,-0.582l-13.397,-13.397l-1.164,-0l-1.902,1.902l-0,1.164l13.397,13.398Z" style="fill:#fff;"/><path d="M34.41,74.86l-0.582,0.582l16.595,16.595l-1.903,1.902l-16.594,-16.594l-0.582,0.582l16.594,16.594l1.164,0l1.903,-1.902l-0,-1.164l-16.595,-16.595Z" style="fill:#fff;"/><path d="M35.255,76.87l0.582,-0.582l-13.397,-13.398l1.902,-1.902l13.397,13.397l0.582,-0.582l-13.397,-13.397l-1.164,0l-1.903,1.902l0,1.165l13.398,13.397Z" style="fill:#fff;"/><path d="M39.379,69.891l-0.582,0.582l16.595,16.595l-1.903,1.903l-16.595,-16.595l-0.582,0.582l16.595,16.595l1.164,-0l1.903,-1.903l-0,-1.164l-16.595,-16.595Z" style="fill:#fff;"/><path d="M40.217,71.907l0.582,-0.582l-13.397,-13.397l1.902,-1.902l13.398,13.397l0.582,-0.582l-13.398,-13.397l-1.164,-0l-1.902,1.902l-0,1.164l13.397,13.397Z" style="fill:#fff;"/><path d="M45.195,66.94l0.582,-0.582l-13.397,-13.397l4.161,-4.162l8.666,8.666l0.582,-0.582l-8.666,-8.666l-1.164,-0l-4.161,4.162l-0,1.164l13.397,13.397Z" style="fill:#fff;"/><path d="M31.797,52.384l-0.582,0.582l29.139,29.14l-1.902,1.902l-16.595,-16.595l-0.582,0.583l16.594,16.594l1.165,0l1.902,-1.902l0,-1.164l-29.139,-29.14Z" style="fill:#fff;"/><path d="M16.894,110.588l0,-1.961l-3.202,-0l0,1.964c-1.657,0.06 -2.972,0.908 -2.972,1.943l0,13.952c0,1.035 1.315,1.883 2.972,1.943l0,1.994l3.202,-0l0,-1.991l1.756,0l0,1.991l3.202,-0l0,-1.991l1.756,0l0,1.991l3.203,-0l-0,-1.991l1.756,0l-0,1.991l3.202,-0l-0,-1.991l1.756,0l-0,1.991l3.202,-0l-0,-1.994c1.657,-0.06 2.972,-0.908 2.972,-1.943l-0,-13.952c-0,-1.035 -1.315,-1.883 -2.972,-1.943l-0,-1.964l-3.202,-0l-0,1.961l-1.756,-0l-0,-1.961l-3.202,-0l-0,1.961l-1.756,-0l-0,-1.961l-3.203,-0l0,1.961l-1.756,-0l0,-1.961l-3.202,-0l0,1.961l-1.756,-0Z" style="fill:#fff;"/><path d="M156.024,90.926l-0,-1.755l-2.575,-0l-0,1.758c-1.332,0.054 -2.39,0.812 -2.39,1.738l0,12.486c0,0.926 1.058,1.684 2.39,1.738l-0,1.784l2.575,0l-0,-1.781l1.412,0l-0,1.781l2.575,0l-0,-1.781l1.412,0l-0,1.781l2.575,0l-0,-1.781l1.412,0l-0,1.781l2.575,0l-0,-1.781l1.412,0l-0,1.781l2.575,0l-0,-1.784c1.332,-0.054 2.389,-0.812 2.389,-1.738l0,-12.486c0,-0.926 -1.057,-1.684 -2.389,-1.738l-0,-1.758l-2.575,-0l-0,1.755l-1.412,-0l-0,-1.755l-2.575,-0l-0,1.755l-1.412,-0l-0,-1.755l-2.575,-0l-0,1.755l-1.412,-0l-0,-1.755l-2.575,-0l-0,1.755l-1.412,-0Z" style="fill:#fff;"/><path d="M184.705,87.675l-0,-1.435l-11.523,-0c-1.884,-0 -3.413,1.529 -3.413,3.413l0,10.237l1.425,0l-0,-10.168c-0,-1.13 0.917,-2.047 2.047,-2.047l11.464,-0Z" style="fill:#fff;"/><path d="M180.775,83.732l-0,-1.435l-11.523,0c-1.884,0 -3.413,1.53 -3.413,3.413l0,10.238l1.425,-0l-0,-10.168c-0,-1.13 0.917,-2.048 2.047,-2.048l11.464,0Z" style="fill:#fff;"/><path d="M176.885,79.854l-0,-1.435l-11.523,0c-1.884,0 -3.413,1.529 -3.413,3.413l0,10.238l1.424,-0l0,-10.168c0,-1.131 0.918,-2.048 2.048,-2.048l11.464,0Z" style="fill:#fff;"/><path d="M172.975,75.947l0,-1.434l-11.523,-0c-1.883,-0 -3.413,1.529 -3.413,3.412l0,12.182l1.425,0l-0,-12.112c-0,-1.13 0.917,-2.048 2.047,-2.048l11.464,0Z" style="fill:#fff;"/><path d="M178.43,72.036l0,-1.435l-20.888,0c-1.883,0 -3.412,1.529 -3.412,3.413l-0,18.548l1.424,-0l0,-18.478c0,-1.13 0.918,-2.048 2.048,-2.048l20.828,0Z" style="fill:#fff;"/><circle cx="185.634" cy="87.025" r="2.034" style="fill:#fff;"/><circle cx="180.889" cy="83.044" r="2.034" style="fill:#fff;"/><circle cx="176.396" cy="78.938" r="2.034" style="fill:#fff;"/><circle cx="171.645" cy="75.358" r="2.034" style="fill:#fff;"/><circle cx="176.396" cy="71.353" r="2.034" style="fill:#fff;"/><rect x="169.728" y="90.08" width="1.424" height="11.488" style="fill:#fff;"/><rect x="165.819" y="90.08" width="1.424" height="11.488" style="fill:#fff;"/><rect x="161.909" y="90.08" width="1.424" height="11.488" style="fill:#fff;"/><rect x="158.023" y="90.08" width="1.424" height="11.488" style="fill:#fff;"/><rect x="154.089" y="90.08" width="1.424" height="11.488" style="fill:#fff;"/><path d="M184.705,110.171l-0,1.435l-11.523,-0c-1.884,-0 -3.413,-1.529 -3.413,-3.413l0,-10.237l1.425,-0l-0,10.168c-0,1.13 0.917,2.047 2.047,2.047l11.464,0Z" style="fill:#fff;"/><path d="M180.775,114.114l-0,1.435l-11.523,-0c-1.884,-0 -3.413,-1.53 -3.413,-3.413l0,-10.238l1.425,0l-0,10.168c-0,1.13 0.917,2.048 2.047,2.048l11.464,-0Z" style="fill:#fff;"/><path d="M176.885,117.992l-0,1.435l-11.523,-0c-1.884,-0 -3.413,-1.529 -3.413,-3.413l0,-10.238l1.424,0l0,10.168c0,1.13 0.918,2.048 2.048,2.048l11.464,-0Z" style="fill:#fff;"/><path d="M172.975,121.899l0,1.434l-11.523,0c-1.883,0 -3.413,-1.529 -3.413,-3.412l0,-12.182l1.425,-0l-0,12.112c-0,1.13 0.917,2.048 2.047,2.048l11.464,-0Z" style="fill:#fff;"/><path d="M178.43,125.81l0,1.435l-20.888,-0c-1.883,-0 -3.412,-1.53 -3.412,-3.413l-0,-18.548l1.424,-0l0,18.478c0,1.13 0.918,2.048 2.048,2.048l20.828,-0Z" style="fill:#fff;"/><circle cx="185.634" cy="110.821" r="2.034" style="fill:#fff;"/><circle cx="180.889" cy="114.802" r="2.034" style="fill:#fff;"/><circle cx="176.396" cy="118.908" r="2.034" style="fill:#fff;"/><circle cx="171.645" cy="122.488" r="2.034" style="fill:#fff;"/><circle cx="176.396" cy="126.493" r="2.034" style="fill:#fff;"/><rect x="169.728" y="96.278" width="1.424" height="11.488" style="fill:#fff;"/><rect x="165.819" y="96.278" width="1.424" height="11.488" style="fill:#fff;"/><rect x="161.909" y="96.278" width="1.424" height="11.488" style="fill:#fff;"/><rect x="158.023" y="96.278" width="1.424" height="11.488" style="fill:#fff;"/><rect x="154.089" y="96.278" width="1.424" height="11.488" style="fill:#fff;"/><path d="M146.887,90.926l-0,-1.755l2.575,-0l-0,1.758c1.332,0.054 2.39,0.812 2.39,1.738l-0,12.486c-0,0.926 -1.058,1.684 -2.39,1.738l-0,1.784l-2.575,0l-0,-1.781l-1.412,0l-0,1.781l-2.575,0l0,-1.781l-1.412,0l-0,1.781l-2.575,0l0,-1.781l-1.412,0l-0,1.781l-2.575,0l0,-1.781l-1.412,0l-0,1.781l-2.575,0l0,-1.784c-1.332,-0.054 -2.39,-0.812 -2.39,-1.738l0,-12.486c0,-0.926 1.058,-1.684 2.39,-1.738l0,-1.758l2.575,-0l-0,1.755l1.412,-0l0,-1.755l2.575,-0l-0,1.755l1.412,-0l0,-1.755l2.575,-0l-0,1.755l1.412,-0l0,-1.755l2.575,-0l-0,1.755l1.412,-0Z" style="fill:#fff;"/><path d="M118.206,87.675l-0,-1.435l11.523,-0c1.883,-0 3.412,1.529 3.412,3.413l0,10.237l-1.424,0l0,-10.168c0,-1.13 -0.917,-2.047 -2.048,-2.047l-11.463,-0Z" style="fill:#fff;"/><path d="M122.136,83.732l-0,-1.435l11.523,0c1.884,0 3.413,1.53 3.413,3.413l-0,10.238l-1.425,-0l0,-10.168c0,-1.13 -0.917,-2.048 -2.047,-2.048l-11.464,0Z" style="fill:#fff;"/><path d="M126.026,79.854l-0,-1.435l11.523,0c1.884,0 3.413,1.529 3.413,3.413l-0,10.238l-1.425,-0l0,-10.168c0,-1.131 -0.917,-2.048 -2.047,-2.048l-11.464,0Z" style="fill:#fff;"/><path d="M129.936,75.947l-0,-1.434l11.523,-0c1.883,-0 3.412,1.529 3.412,3.412l0,12.182l-1.424,0l-0,-12.112c-0,-1.13 -0.918,-2.048 -2.048,-2.048l-11.463,0Z" style="fill:#fff;"/><path d="M124.48,72.036l0,-1.435l20.888,0c1.884,0 3.413,1.529 3.413,3.413l-0,18.548l-1.425,-0l0,-18.478c0,-1.13 -0.917,-2.048 -2.047,-2.048l-20.829,0Z" style="fill:#fff;"/><circle cx="117.277" cy="87.025" r="2.034" style="fill:#fff;"/><circle cx="122.022" cy="83.044" r="2.034" style="fill:#fff;"/><circle cx="126.515" cy="78.938" r="2.034" style="fill:#fff;"/><circle cx="131.266" cy="75.358" r="2.034" style="fill:#fff;"/><circle cx="126.515" cy="71.353" r="2.034" style="fill:#fff;"/><rect x="131.758" y="90.08" width="1.424" height="11.488" style="fill:#fff;"/><rect x="135.667" y="90.08" width="1.424" height="11.488" style="fill:#fff;"/><rect x="139.577" y="90.08" width="1.424" height="11.488" style="fill:#fff;"/><rect x="143.463" y="90.08" width="1.424" height="11.488" style="fill:#fff;"/><rect x="147.397" y="90.08" width="1.424" height="11.488" style="fill:#fff;"/><path d="M118.206,110.171l-0,1.435l11.523,-0c1.883,-0 3.412,-1.529 3.412,-3.413l0,-10.237l-1.424,-0l0,10.168c0,1.13 -0.917,2.047 -2.048,2.047l-11.463,0Z" style="fill:#fff;"/><path d="M122.136,114.114l-0,1.435l11.523,-0c1.884,-0 3.413,-1.53 3.413,-3.413l-0,-10.238l-1.425,0l0,10.168c0,1.13 -0.917,2.048 -2.047,2.048l-11.464,-0Z" style="fill:#fff;"/><path d="M126.026,117.992l-0,1.435l11.523,-0c1.884,-0 3.413,-1.529 3.413,-3.413l-0,-10.238l-1.425,0l0,10.168c0,1.13 -0.917,2.048 -2.047,2.048l-11.464,-0Z" style="fill:#fff;"/><path d="M129.936,121.899l-0,1.434l11.523,0c1.883,0 3.412,-1.529 3.412,-3.412l0,-12.182l-1.424,-0l-0,12.112c-0,1.13 -0.918,2.048 -2.048,2.048l-11.463,-0Z" style="fill:#fff;"/><path d="M124.48,125.81l0,1.435l20.888,-0c1.884,-0 3.413,-1.53 3.413,-3.413l-0,-18.548l-1.425,-0l0,18.478c0,1.13 -0.917,2.048 -2.047,2.048l-20.829,-0Z" style="fill:#fff;"/><circle cx="117.277" cy="110.821" r="2.034" style="fill:#fff;"/><circle cx="122.022" cy="114.802" r="2.034" style="fill:#fff;"/><circle cx="126.515" cy="118.908" r="2.034" style="fill:#fff;"/><circle cx="131.266" cy="122.488" r="2.034" style="fill:#fff;"/><circle cx="126.515" cy="126.493" r="2.034" style="fill:#fff;"/><rect x="131.758" y="96.278" width="1.424" height="11.488" style="fill:#fff;"/><rect x="135.667" y="96.278" width="1.424" height="11.488" style="fill:#fff;"/><rect x="139.577" y="96.278" width="1.424" height="11.488" style="fill:#fff;"/><rect x="143.463" y="96.278" width="1.424" height="11.488" style="fill:#fff;"/><rect x="147.397" y="96.278" width="1.424" height="11.488" style="fill:#fff;"/><path d="M108.172,113.242c-0,-1.059 0.859,-1.918 1.918,-1.918c1.059,-0 1.918,0.859 1.918,1.918c0,1.059 -0.859,1.918 -1.918,1.918c-1.059,0 -1.918,-0.859 -1.918,-1.918Zm0.959,-0c0,-0.53 0.43,-0.959 0.959,-0.959c0.53,-0 0.959,0.429 0.959,0.959c0,0.529 -0.429,0.959 -0.959,0.959c-0.529,-0 -0.959,-0.43 -0.959,-0.959Z" style="fill:#fff;"/><path d="M108.172,107.881c-0,-1.059 0.859,-1.919 1.918,-1.919c1.059,0 1.918,0.86 1.918,1.919c0,1.058 -0.859,1.918 -1.918,1.918c-1.059,-0 -1.918,-0.86 -1.918,-1.918Zm0.959,-0c0,-0.53 0.43,-0.96 0.959,-0.96c0.53,0 0.959,0.43 0.959,0.96c0,0.529 -0.429,0.959 -0.959,0.959c-0.529,-0 -0.959,-0.43 -0.959,-0.959Z" style="fill:#fff;"/><path d="M108.172,102.724c-0,-1.059 0.859,-1.918 1.918,-1.918c1.059,-0 1.918,0.859 1.918,1.918c0,1.059 -0.859,1.918 -1.918,1.918c-1.059,0 -1.918,-0.859 -1.918,-1.918Zm0.959,-0c0,-0.53 0.43,-0.959 0.959,-0.959c0.53,-0 0.959,0.429 0.959,0.959c0,0.529 -0.429,0.959 -0.959,0.959c-0.529,-0 -0.959,-0.43 -0.959,-0.959Z" style="fill:#fff;"/><path d="M103.783,116.158c0,-1.059 0.86,-1.918 1.918,-1.918c1.059,-0 1.919,0.859 1.919,1.918c-0,1.059 -0.86,1.918 -1.919,1.918c-1.058,0 -1.918,-0.859 -1.918,-1.918Zm0.959,-0c0,-0.529 0.43,-0.959 0.959,-0.959c0.53,-0 0.959,0.43 0.959,0.959c0,0.529 -0.429,0.959 -0.959,0.959c-0.529,0 -0.959,-0.43 -0.959,-0.959Z" style="fill:#fff;"/><path d="M103.783,110.797c0,-1.059 0.86,-1.918 1.918,-1.918c1.059,-0 1.919,0.859 1.919,1.918c-0,1.058 -0.86,1.918 -1.919,1.918c-1.058,0 -1.918,-0.86 -1.918,-1.918Zm0.959,-0c0,-0.53 0.43,-0.959 0.959,-0.959c0.53,-0 0.959,0.429 0.959,0.959c0,0.529 -0.429,0.959 -0.959,0.959c-0.529,-0 -0.959,-0.43 -0.959,-0.959Z" style="fill:#fff;"/><path d="M103.783,105.64c0,-1.059 0.86,-1.918 1.918,-1.918c1.059,-0 1.919,0.859 1.919,1.918c-0,1.059 -0.86,1.918 -1.919,1.918c-1.058,0 -1.918,-0.859 -1.918,-1.918Zm0.959,-0c0,-0.529 0.43,-0.959 0.959,-0.959c0.53,-0 0.959,0.43 0.959,0.959c0,0.529 -0.429,0.959 -0.959,0.959c-0.529,0 -0.959,-0.43 -0.959,-0.959Z" style="fill:#fff;"/><path d="M88.993,56.62c-0,-1.35 1.096,-2.447 2.447,-2.447c1.351,0 2.447,1.097 2.447,2.447c0,1.351 -1.096,2.448 -2.447,2.448c-1.351,-0 -2.447,-1.097 -2.447,-2.448Zm1.223,0c0,-0.675 0.549,-1.223 1.224,-1.223c0.675,-0 1.223,0.548 1.223,1.223c0,0.676 -0.548,1.224 -1.223,1.224c-0.675,-0 -1.224,-0.548 -1.224,-1.224Z" style="fill:#fff;"/><path d="M90.733,50.291l0,4.598l1.413,-0l0,-4.598l-1.413,-0Z" style="fill:#fff;"/><path d="M88.993,48.8c-0,-1.351 1.096,-2.447 2.447,-2.447c1.351,-0 2.447,1.096 2.447,2.447c0,1.351 -1.096,2.447 -2.447,2.447c-1.351,0 -2.447,-1.096 -2.447,-2.447Zm1.223,-0c0,-0.675 0.549,-1.224 1.224,-1.224c0.675,0 1.223,0.549 1.223,1.224c0,0.675 -0.548,1.224 -1.223,1.224c-0.675,-0 -1.224,-0.549 -1.224,-1.224Z" style="fill:#fff;"/><path d="M94.909,62.452c0,-1.351 1.097,-2.447 2.448,-2.447c1.35,-0 2.447,1.096 2.447,2.447c-0,1.351 -1.097,2.447 -2.447,2.447c-1.351,0 -2.448,-1.096 -2.448,-2.447Zm1.224,-0c0,-0.675 0.548,-1.224 1.224,-1.224c0.675,0 1.223,0.549 1.223,1.224c0,0.675 -0.548,1.223 -1.223,1.223c-0.676,0 -1.224,-0.548 -1.224,-1.223Z" style="fill:#fff;"/><path d="M96.65,50.524l0,10.013l1.413,-0l0,-10.013l-1.413,0Z" style="fill:#fff;"/><path d="M94.909,49.034c0,-1.351 1.097,-2.448 2.448,-2.448c1.35,0 2.447,1.097 2.447,2.448c-0,1.35 -1.097,2.447 -2.447,2.447c-1.351,-0 -2.448,-1.097 -2.448,-2.447Zm1.224,-0c0,-0.676 0.548,-1.224 1.224,-1.224c0.675,-0 1.223,0.548 1.223,1.224c0,0.675 -0.548,1.223 -1.223,1.223c-0.676,0 -1.224,-0.548 -1.224,-1.223Z" style="fill:#fff;"/><path d="M100.613,68.182c0,-1.351 1.097,-2.448 2.447,-2.448c1.351,0 2.448,1.097 2.448,2.448c-0,1.35 -1.097,2.447 -2.448,2.447c-1.35,-0 -2.447,-1.097 -2.447,-2.447Zm1.224,-0c-0,-0.676 0.548,-1.224 1.223,-1.224c0.676,-0 1.224,0.548 1.224,1.224c0,0.675 -0.548,1.223 -1.224,1.223c-0.675,0 -1.223,-0.548 -1.223,-1.223Z" style="fill:#fff;"/><path d="M102.354,50.869l0,15.787l1.413,-0l-0,-15.787l-1.413,0Z" style="fill:#fff;"/><path d="M100.613,49.137c0,-1.35 1.097,-2.447 2.447,-2.447c1.351,0 2.448,1.097 2.448,2.447c-0,1.351 -1.097,2.448 -2.448,2.448c-1.35,-0 -2.447,-1.097 -2.447,-2.448Zm1.224,0c-0,-0.675 0.548,-1.223 1.223,-1.223c0.676,-0 1.224,0.548 1.224,1.223c0,0.676 -0.548,1.224 -1.224,1.224c-0.675,-0 -1.223,-0.548 -1.223,-1.224Z" style="fill:#fff;"/><path d="M112.076,68.107c-0,-1.351 1.096,-2.448 2.447,-2.448c1.35,0 2.447,1.097 2.447,2.448c0,1.35 -1.097,2.447 -2.447,2.447c-1.351,-0 -2.447,-1.097 -2.447,-2.447Zm1.223,-0c0,-0.676 0.549,-1.224 1.224,-1.224c0.675,-0 1.223,0.548 1.223,1.224c0,0.675 -0.548,1.223 -1.223,1.223c-0.675,0 -1.224,-0.548 -1.224,-1.223Z" style="fill:#fff;"/><path d="M113.816,50.794l0,15.787l1.413,-0l0,-15.787l-1.413,0Z" style="fill:#fff;"/><path d="M112.076,49.062c-0,-1.35 1.096,-2.447 2.447,-2.447c1.35,0 2.447,1.097 2.447,2.447c0,1.351 -1.097,2.448 -2.447,2.448c-1.351,-0 -2.447,-1.097 -2.447,-2.448Zm1.223,0c0,-0.675 0.549,-1.223 1.224,-1.223c0.675,-0 1.223,0.548 1.223,1.223c0,0.676 -0.548,1.224 -1.223,1.224c-0.675,0 -1.224,-0.548 -1.224,-1.224Z" style="fill:#fff;"/><path d="M106.288,73.826c-0,-1.351 1.096,-2.448 2.447,-2.448c1.351,0 2.447,1.097 2.447,2.448c0,1.35 -1.096,2.447 -2.447,2.447c-1.351,-0 -2.447,-1.097 -2.447,-2.447Zm1.223,-0c0,-0.676 0.549,-1.224 1.224,-1.224c0.675,-0 1.224,0.548 1.224,1.224c-0,0.675 -0.549,1.223 -1.224,1.223c-0.675,0 -1.224,-0.548 -1.224,-1.223Z" style="fill:#fff;"/><path d="M108.029,50.524l-0,21.57l1.412,-0l0,-21.57l-1.412,0Z" style="fill:#fff;"/><path d="M106.288,49.034c-0,-1.351 1.096,-2.448 2.447,-2.448c1.351,0 2.447,1.097 2.447,2.448c0,1.35 -1.096,2.447 -2.447,2.447c-1.351,-0 -2.447,-1.097 -2.447,-2.447Zm1.223,-0c0,-0.676 0.549,-1.224 1.224,-1.224c0.675,-0 1.224,0.548 1.224,1.224c-0,0.675 -0.549,1.223 -1.224,1.223c-0.675,0 -1.224,-0.548 -1.224,-1.223Z" style="fill:#fff;"/><path d="M117.908,62.452c0,-1.351 1.097,-2.447 2.448,-2.447c1.35,-0 2.447,1.096 2.447,2.447c-0,1.351 -1.097,2.447 -2.447,2.447c-1.351,0 -2.448,-1.096 -2.448,-2.447Zm1.224,-0c0,-0.675 0.548,-1.224 1.224,-1.224c0.675,0 1.223,0.549 1.223,1.224c0,0.675 -0.548,1.223 -1.223,1.223c-0.676,0 -1.224,-0.548 -1.224,-1.223Z" style="fill:#fff;"/><path d="M119.649,50.524l0,10.013l1.413,-0l0,-10.013l-1.413,0Z" style="fill:#fff;"/><path d="M117.908,49.034c0,-1.351 1.097,-2.448 2.448,-2.448c1.35,0 2.447,1.097 2.447,2.448c-0,1.35 -1.097,2.447 -2.447,2.447c-1.351,-0 -2.448,-1.097 -2.448,-2.447Zm1.224,-0c0,-0.676 0.548,-1.224 1.224,-1.224c0.675,-0 1.223,0.548 1.223,1.224c0,0.675 -0.548,1.223 -1.223,1.223c-0.676,0 -1.224,-0.548 -1.224,-1.223Z" style="fill:#fff;"/><path d="M83.289,62.218c-0,-1.35 1.096,-2.447 2.447,-2.447c1.351,0 2.447,1.097 2.447,2.447c0,1.351 -1.096,2.447 -2.447,2.447c-1.351,0 -2.447,-1.096 -2.447,-2.447Zm1.223,0c0,-0.675 0.549,-1.223 1.224,-1.223c0.675,-0 1.224,0.548 1.224,1.223c-0,0.676 -0.549,1.224 -1.224,1.224c-0.675,-0 -1.224,-0.548 -1.224,-1.224Z" style="fill:#fff;"/><path d="M85.03,50.291l-0,10.012l1.412,0l0,-10.012l-1.412,-0Z" style="fill:#fff;"/><path d="M83.289,48.8c-0,-1.351 1.096,-2.447 2.447,-2.447c1.351,-0 2.447,1.096 2.447,2.447c0,1.351 -1.096,2.447 -2.447,2.447c-1.351,0 -2.447,-1.096 -2.447,-2.447Zm1.223,-0c0,-0.675 0.549,-1.224 1.224,-1.224c0.675,0 1.224,0.549 1.224,1.224c-0,0.675 -0.549,1.224 -1.224,1.224c-0.675,-0 -1.224,-0.549 -1.224,-1.224Z" style="fill:#fff;"/><path d="M123.781,56.868c-0,-1.35 1.096,-2.447 2.447,-2.447c1.351,0 2.447,1.097 2.447,2.447c0,1.351 -1.096,2.448 -2.447,2.448c-1.351,-0 -2.447,-1.097 -2.447,-2.448Zm1.223,0c0,-0.675 0.549,-1.223 1.224,-1.223c0.675,-0 1.223,0.548 1.223,1.223c0,0.676 -0.548,1.224 -1.223,1.224c-0.675,-0 -1.224,-0.548 -1.224,-1.224Z" style="fill:#fff;"/><path d="M125.521,50.539l0,4.598l1.413,-0l0,-4.598l-1.413,-0Z" style="fill:#fff;"/><path d="M123.781,49.048c-0,-1.351 1.096,-2.447 2.447,-2.447c1.351,-0 2.447,1.096 2.447,2.447c0,1.351 -1.096,2.447 -2.447,2.447c-1.351,0 -2.447,-1.096 -2.447,-2.447Zm1.223,-0c0,-0.675 0.549,-1.224 1.224,-1.224c0.675,0 1.223,0.549 1.223,1.224c0,0.675 -0.548,1.224 -1.223,1.224c-0.675,-0 -1.224,-0.549 -1.224,-1.224Z" style="fill:#fff;"/><path d="M129.651,62.49c-0,-1.351 1.096,-2.447 2.447,-2.447c1.35,-0 2.447,1.096 2.447,2.447c-0,1.351 -1.097,2.447 -2.447,2.447c-1.351,0 -2.447,-1.096 -2.447,-2.447Zm1.223,-0c0,-0.675 0.548,-1.224 1.224,-1.224c0.675,0 1.223,0.549 1.223,1.224c0,0.675 -0.548,1.224 -1.223,1.224c-0.676,-0 -1.224,-0.549 -1.224,-1.224Z" style="fill:#fff;"/><path d="M131.391,50.562l0,10.013l1.413,0l0,-10.013l-1.413,0Z" style="fill:#fff;"/><path d="M129.651,49.072c-0,-1.351 1.096,-2.448 2.447,-2.448c1.35,0 2.447,1.097 2.447,2.448c-0,1.35 -1.097,2.447 -2.447,2.447c-1.351,-0 -2.447,-1.097 -2.447,-2.447Zm1.223,-0c0,-0.676 0.548,-1.224 1.224,-1.224c0.675,-0 1.223,0.548 1.223,1.224c0,0.675 -0.548,1.223 -1.223,1.223c-0.676,0 -1.224,-0.548 -1.224,-1.223Z" style="fill:#fff;"/><path d="M104.122,144.068c-0,-1.353 1.098,-2.452 2.452,-2.452c1.353,-0 2.452,1.099 2.452,2.452c-0,1.353 -1.099,2.452 -2.452,2.452c-1.354,-0 -2.452,-1.099 -2.452,-2.452Zm1.226,-0c-0,-0.677 0.549,-1.226 1.226,-1.226c0.676,-0 1.226,0.549 1.226,1.226c-0,0.677 -0.55,1.226 -1.226,1.226c-0.677,-0 -1.226,-0.549 -1.226,-1.226Z" style="fill:#fff;"/><path d="M106.021,132.117l-0,10.032l1.415,0l0,-10.032l-1.415,-0Z" style="fill:#fff;"/><path d="M104.122,130.623c-0,-1.354 1.098,-2.452 2.452,-2.452c1.353,-0 2.452,1.098 2.452,2.452c-0,1.353 -1.099,2.452 -2.452,2.452c-1.354,-0 -2.452,-1.099 -2.452,-2.452Zm1.226,-0c-0,-0.677 0.549,-1.226 1.226,-1.226c0.676,-0 1.226,0.549 1.226,1.226c-0,0.676 -0.55,1.226 -1.226,1.226c-0.677,-0 -1.226,-0.55 -1.226,-1.226Z" style="fill:#fff;"/><path d="M99.217,150.285c0,-1.354 1.099,-2.452 2.453,-2.452c1.353,-0 2.452,1.098 2.452,2.452c-0,1.353 -1.099,2.452 -2.452,2.452c-1.354,-0 -2.453,-1.099 -2.453,-2.452Zm1.226,-0c0,-0.677 0.55,-1.226 1.227,-1.226c0.676,-0 1.226,0.549 1.226,1.226c-0,0.676 -0.55,1.226 -1.226,1.226c-0.677,-0 -1.227,-0.55 -1.227,-1.226Z" style="fill:#fff;"/><path d="M101.116,125.9l0,22.65l1.416,-0l0,-22.65l-1.416,-0Z" style="fill:#fff;"/><path d="M99.217,124.406c0,-1.353 1.099,-2.452 2.453,-2.452c1.353,-0 2.452,1.099 2.452,2.452c-0,1.353 -1.099,2.452 -2.452,2.452c-1.354,-0 -2.453,-1.099 -2.453,-2.452Zm1.226,-0c0,-0.677 0.55,-1.226 1.227,-1.226c0.676,-0 1.226,0.549 1.226,1.226c-0,0.677 -0.55,1.226 -1.226,1.226c-0.677,-0 -1.227,-0.549 -1.227,-1.226Z" style="fill:#fff;"/><path d="M113.93,144.068c0,-1.353 1.099,-2.452 2.452,-2.452c1.354,-0 2.452,1.099 2.452,2.452c0,1.353 -1.098,2.452 -2.452,2.452c-1.353,-0 -2.452,-1.099 -2.452,-2.452Zm1.226,-0c0,-0.677 0.55,-1.226 1.226,-1.226c0.677,-0 1.226,0.549 1.226,1.226c0,0.677 -0.549,1.226 -1.226,1.226c-0.676,-0 -1.226,-0.549 -1.226,-1.226Z" style="fill:#fff;"/><path d="M115.829,132.117l-0,10.032l1.416,0l-0,-10.032l-1.416,-0Z" style="fill:#fff;"/><path d="M113.93,130.623c0,-1.354 1.099,-2.452 2.452,-2.452c1.354,-0 2.452,1.098 2.452,2.452c0,1.353 -1.098,2.452 -2.452,2.452c-1.353,-0 -2.452,-1.099 -2.452,-2.452Zm1.226,-0c0,-0.677 0.55,-1.226 1.226,-1.226c0.677,-0 1.226,0.549 1.226,1.226c0,0.676 -0.549,1.226 -1.226,1.226c-0.676,-0 -1.226,-0.55 -1.226,-1.226Z" style="fill:#fff;"/><path d="M94.313,144.068c0,-1.353 1.099,-2.452 2.452,-2.452c1.354,-0 2.452,1.099 2.452,2.452c0,1.353 -1.098,2.452 -2.452,2.452c-1.353,-0 -2.452,-1.099 -2.452,-2.452Zm1.226,-0c0,-0.677 0.55,-1.226 1.226,-1.226c0.677,-0 1.226,0.549 1.226,1.226c0,0.677 -0.549,1.226 -1.226,1.226c-0.676,-0 -1.226,-0.549 -1.226,-1.226Z" style="fill:#fff;"/><path d="M96.212,132.117l0,10.032l1.416,0l-0,-10.032l-1.416,-0Z" style="fill:#fff;"/><path d="M94.313,130.623c0,-1.354 1.099,-2.452 2.452,-2.452c1.354,-0 2.452,1.098 2.452,2.452c0,1.353 -1.098,2.452 -2.452,2.452c-1.353,-0 -2.452,-1.099 -2.452,-2.452Zm1.226,-0c0,-0.677 0.55,-1.226 1.226,-1.226c0.677,-0 1.226,0.549 1.226,1.226c0,0.676 -0.549,1.226 -1.226,1.226c-0.676,-0 -1.226,-0.55 -1.226,-1.226Z" style="fill:#fff;"/><path d="M109.026,150.285c-0,-1.354 1.099,-2.452 2.452,-2.452c1.353,-0 2.452,1.098 2.452,2.452c0,1.353 -1.099,2.452 -2.452,2.452c-1.353,-0 -2.452,-1.099 -2.452,-2.452Zm1.226,-0c-0,-0.677 0.549,-1.226 1.226,-1.226c0.677,-0 1.226,0.549 1.226,1.226c0,0.676 -0.549,1.226 -1.226,1.226c-0.677,-0 -1.226,-0.55 -1.226,-1.226Z" style="fill:#fff;"/><path d="M110.925,125.9l-0,22.65l1.415,-0l0,-22.65l-1.415,-0Z" style="fill:#fff;"/><path d="M109.026,124.406c-0,-1.353 1.099,-2.452 2.452,-2.452c1.353,-0 2.452,1.099 2.452,2.452c0,1.353 -1.099,2.452 -2.452,2.452c-1.353,-0 -2.452,-1.099 -2.452,-2.452Zm1.226,-0c-0,-0.677 0.549,-1.226 1.226,-1.226c0.677,-0 1.226,0.549 1.226,1.226c0,0.677 -0.549,1.226 -1.226,1.226c-0.677,-0 -1.226,-0.549 -1.226,-1.226Z" style="fill:#fff;"/><path d="M192.875,127.543c-0,-1.609 -1.307,-2.915 -2.916,-2.915c-1.608,-0 -2.915,1.306 -2.915,2.915c0,1.609 1.307,2.915 2.915,2.915c1.609,-0 2.916,-1.306 2.916,-2.915Zm-1.458,-0c0,-0.805 -0.653,-1.458 -1.458,-1.458c-0.804,0 -1.457,0.653 -1.457,1.458c-0,0.804 0.653,1.457 1.457,1.457c0.805,0 1.458,-0.653 1.458,-1.457Z" style="fill:#fff;"/><path d="M187.769,122.912c0,-1.609 -1.306,-2.915 -2.915,-2.915c-1.608,0 -2.915,1.306 -2.915,2.915c0,1.609 1.307,2.915 2.915,2.915c1.609,0 2.915,-1.306 2.915,-2.915Zm-1.457,0c-0,-0.804 -0.653,-1.457 -1.458,-1.457c-0.804,-0 -1.457,0.653 -1.457,1.457c-0,0.805 0.653,1.458 1.457,1.458c0.805,-0 1.458,-0.653 1.458,-1.458Z" style="fill:#fff;"/><path d="M192.875,117.903c-0,-1.609 -1.307,-2.915 -2.916,-2.915c-1.608,-0 -2.915,1.306 -2.915,2.915c0,1.608 1.307,2.915 2.915,2.915c1.609,-0 2.916,-1.307 2.916,-2.915Zm-1.458,-0c0,-0.805 -0.653,-1.458 -1.458,-1.458c-0.804,0 -1.457,0.653 -1.457,1.458c-0,0.804 0.653,1.457 1.457,1.457c0.805,0 1.458,-0.653 1.458,-1.457Z" style="fill:#fff;"/><path d="M82.241,92.758l-3.658,-3.659l-4.326,4.326l3.659,3.659l4.325,-4.326Z" style="fill:#fff;"/><path d="M81.701,90.983l-1.344,-1.343l-5.559,5.56l1.343,1.343l5.56,-5.56Z" style="fill:#fff;"/><path d="M87.729,98.246l-3.658,-3.659l-4.326,4.326l3.659,3.658l4.325,-4.325Z" style="fill:#fff;"/><path d="M87.189,96.471l-1.344,-1.343l-5.56,5.56l1.344,1.343l5.56,-5.56Z" style="fill:#fff;"/><path d="M77.034,87.551l-3.658,-3.659l-4.326,4.326l3.659,3.659l4.325,-4.326Z" style="fill:#fff;"/><path d="M76.494,85.776l-1.344,-1.343l-5.559,5.56l1.343,1.343l5.56,-5.56Z" style="fill:#fff;"/><path d="M72.656,82.642l0,-5.174l-6.117,0l0,5.174l6.117,0Z" style="fill:#fff;"/><path d="M73.529,81.005l0,-1.9l-7.863,0l0,1.9l7.863,0Z" style="fill:#fff;"/><path d="M72.656,82.642l0,-5.174l-6.117,0l0,5.174l6.117,0Z" style="fill:#fff;"/><path d="M73.529,81.005l0,-1.9l-7.863,0l0,1.9l7.863,0Z" style="fill:#fff;"/><rect x="100.828" y="87.289" width="5.174" height="6.117" style="fill:#fff;"/><rect x="102.465" y="86.416" width="1.9" height="7.863" style="fill:#fff;"/><path d="M98.435,76.564l-3.659,-3.658l-4.325,4.325l3.658,3.659l4.326,-4.326Z" style="fill:#fff;"/><path d="M97.895,74.789l-1.344,-1.343l-5.56,5.56l1.344,1.343l5.56,-5.56Z" style="fill:#fff;"/><path d="M103.923,82.052l-3.659,-3.659l-4.325,4.326l3.658,3.659l4.326,-4.326Z" style="fill:#fff;"/><path d="M103.382,80.277l-1.343,-1.343l-5.56,5.56l1.344,1.343l5.559,-5.56Z" style="fill:#fff;"/><path d="M93.228,71.357l-3.658,-3.658l-4.326,4.325l3.659,3.659l4.325,-4.326Z" style="fill:#fff;"/><path d="M92.688,69.583l-1.344,-1.344l-5.56,5.56l1.344,1.343l5.56,-5.559Z" style="fill:#fff;"/><path d="M76.302,71.012l-3.659,-3.658l-4.325,4.325l3.658,3.659l4.326,-4.326Z" style="fill:#fff;"/><path d="M75.761,69.238l-1.343,-1.344l-5.56,5.56l1.344,1.343l5.559,-5.559Z" style="fill:#fff;"/><path d="M104.475,98.864l-3.658,-3.659l-4.326,4.326l3.659,3.659l4.325,-4.326Z" style="fill:#fff;"/><path d="M103.935,97.089l-1.344,-1.343l-5.559,5.56l1.343,1.343l5.56,-5.56Z" style="fill:#fff;"/><path d="M86.849,81.733l0,-3.828l-3.828,-3.828l-3.828,0l-3.828,3.828l0,3.828l3.828,3.828l3.828,0l3.828,-3.828Z" style="fill:#fff;"/><path d="M97.544,92.428l0,-3.828l-3.828,-3.828l-3.828,0l-3.828,3.828l0,3.828l3.828,3.828l3.828,0l3.828,-3.828Z" style="fill:#fff;"/><rect x="49.109" y="145.108" width="4.64" height="5.942" style="fill:#fff;"/><rect x="50.578" y="144.26" width="1.704" height="7.637" style="fill:#fff;"/><rect x="56.575" y="145.108" width="4.64" height="5.942" style="fill:#fff;"/><rect x="58.043" y="144.26" width="1.704" height="7.637" style="fill:#fff;"/><rect x="64.04" y="145.108" width="4.64" height="5.942" style="fill:#fff;"/><rect x="65.508" y="144.26" width="1.704" height="7.637" style="fill:#fff;"/><rect x="71.506" y="145.108" width="4.64" height="5.942" style="fill:#fff;"/><rect x="72.974" y="144.26" width="1.704" height="7.637" style="fill:#fff;"/><rect x="50.989" y="117.245" width="0.88" height="30.58" style="fill:#fff;"/><rect x="58.447" y="117.24" width="0.88" height="30.58" style="fill:#fff;"/><rect x="65.956" y="117.654" width="0.88" height="30.58" style="fill:#fff;"/><rect x="73.413" y="117.65" width="0.88" height="30.58" style="fill:#fff;"/><rect x="79.346" y="145.04" width="4.64" height="5.942" style="fill:#fff;"/><rect x="80.814" y="144.192" width="1.704" height="7.637" style="fill:#fff;"/><rect x="81.253" y="117.582" width="0.88" height="30.58" style="fill:#fff;"/><circle cx="51.429" cy="110.53" r="1.789" style="fill:#fff;"/><rect x="50.989" y="110.276" width="0.88" height="7.54" style="fill:#fff;"/><circle cx="58.886" cy="103.058" r="1.789" style="fill:#fff;"/><rect x="58.447" y="102.804" width="0.88" height="15.145" style="fill:#fff;"/><circle cx="81.607" cy="110.764" r="1.789" style="fill:#fff;"/><rect x="81.167" y="110.51" width="0.88" height="7.54" style="fill:#fff;"/><circle cx="73.88" cy="103.033" r="1.789" style="fill:#fff;"/><rect x="73.44" y="102.779" width="0.88" height="15.145" style="fill:#fff;"/><circle cx="66.396" cy="110.536" r="1.789" style="fill:#fff;"/><rect x="65.956" y="110.282" width="0.88" height="22.333" style="fill:#fff;"/><path d="M59.32,66.269l4.662,4.662l-4.641,4.641l-4.662,-4.662l4.641,-4.641Z" style="fill:#fff;"/><path d="M52.46,59.384l4.662,4.663l-4.641,4.641l-4.662,-4.663l4.641,-4.641Z" style="fill:#fff;"/><path d="M45.569,52.585l4.662,4.662l-4.641,4.641l-4.662,-4.662l4.641,-4.641Z" style="fill:#fff;"/><path d="M57.485,93.77c0.21,-1.212 1.268,-2.134 2.54,-2.134c1.271,0 2.329,0.922 2.54,2.134l-5.08,0Z" style="fill:#fff;"/><path d="M62.565,94.658c-0.211,1.212 -1.269,2.134 -2.54,2.134c-1.272,0 -2.33,-0.922 -2.54,-2.134l5.08,0Z" style="fill:#fff;"/><path d="M60.025,89.894c2.384,-0 4.32,1.936 4.32,4.32c0,2.385 -1.936,4.321 -4.32,4.321c-2.385,-0 -4.321,-1.936 -4.321,-4.321c0,-2.384 1.936,-4.32 4.321,-4.32Zm-0,0.507c2.104,0 3.813,1.709 3.813,3.813c-0,2.105 -1.709,3.813 -3.813,3.813c-2.105,0 -3.813,-1.708 -3.813,-3.813c-0,-2.104 1.708,-3.813 3.813,-3.813Z" style="fill:#fff;"/><circle cx="60.055" cy="94.222" r="2.57" style="fill:#fff;"/><path d="M28.35,83.72l-0.582,0.582l-13.398,-13.397l-4.161,4.16l8.666,8.667l-0.582,0.582l-8.666,-8.667l-0,-1.164l4.161,-4.161l1.165,0l13.397,13.398Z" style="fill:#fff;"/><path d="M18.546,88.612l-4.662,-4.662l4.641,-4.641l4.662,4.662l-4.641,4.641Z" style="fill:#fff;"/><path d="M20.258,104.243l-0,-0.92l-3.289,0c-1.207,0 -2.187,0.98 -2.187,2.188l-0,4.101l0.913,-0l-0,-4.056c-0,-0.725 0.588,-1.313 1.312,-1.313l3.251,-0Z" style="fill:#fff;"/><path d="M30.109,104.233l0,-0.92l3.289,0c1.207,0 2.188,0.981 2.188,2.188l-0,4.101l-0.914,-0l0,-4.056c0,-0.725 -0.588,-1.313 -1.312,-1.313l-3.251,0Z" style="fill:#fff;"/><rect x="29.655" y="103.325" width="0.909" height="5.424" style="fill:#fff;"/><rect x="24.707" y="93.113" width="0.909" height="15.753" style="fill:#fff;"/><path d="M30.511,104.254l0,-0.928l-11.23,-0l0,0.928l11.23,-0Z" style="fill:#fff;"/><rect x="19.803" y="103.586" width="0.909" height="5.424" style="fill:#fff;"/><path d="M77.3,49.211l-2.451,-2.452l-14.229,0l-2.452,2.452l0,4.903l2.452,2.451l14.229,-0l2.451,-2.451l0,-4.903Z" style="fill:#fff;"/><path d="M28.73,94.635l-1.785,-1.784l-3.568,-0l-1.785,1.784l0,3.768l1.785,1.784l3.568,0l1.785,-1.784l-0,-3.768Z" style="fill:#fff;"/><path d="M179.515,47.667l-0,10.136l-0.82,0l-0,-10.136l0.82,-0Z" style="fill:#fff;"/><path d="M181.861,46.685l0,14.913l-0.82,0l0,-14.747l0.82,-0.166Z" style="fill:#fff;"/><path d="M184.198,44.98l0,14.347l-0.849,-0l0,-14.347l0.849,-0Z" style="fill:#fff;"/><path d="M186.488,46.864l0,9.955l-0.823,-0l-0,-10.516l0.823,0.561Z" style="fill:#fff;"/><path d="M188.88,47.844l-0,5.681l-0.876,-0l0,-5.681l0.876,-0Z" style="fill:#fff;"/><path d="M195.185,56.977l-5.142,-0c-1.121,-0 -2.031,-0.91 -2.031,-2.031l0,-6.094l0.848,-0l-0,6.052c-0,0.673 0.546,1.219 1.219,1.219l5.106,-0l-0,0.854Z" style="fill:#fff;"/><path d="M195.185,59.324l-7.481,-0c-1.121,-0 -2.031,-0.91 -2.031,-2.032l-0,-6.094l0.848,0l-0,6.053c-0,0.673 0.546,1.219 1.218,1.219l7.446,-0l-0,0.854Z" style="fill:#fff;"/><path d="M195.185,61.632l-9.797,0c-1.121,0 -2.031,-0.91 -2.031,-2.031l0,-6.094l0.848,-0l0,6.052c0,0.673 0.546,1.219 1.219,1.219l9.761,0l-0,0.854Z" style="fill:#fff;"/><path d="M195.185,63.911l-12.133,-0c-1.121,-0 -2.031,-0.911 -2.031,-2.032l-0,-7.251l0.848,-0l-0,7.21c-0,0.672 0.546,1.219 1.219,1.219l12.097,-0l-0,0.854Z" style="fill:#fff;"/><path d="M195.185,66.286l-14.451,-0c-1.121,-0 -2.031,-0.91 -2.031,-2.032l-0,-11.04l0.848,-0l-0,10.999c-0,0.673 0.546,1.219 1.219,1.219l14.415,-0l-0,0.854Z" style="fill:#fff;"/><path d="M181.258,43.732c-0.016,1.405 -1.161,2.54 -2.57,2.54c-1.408,0 -2.553,-1.135 -2.569,-2.54l5.139,0Z" style="fill:#fff;"/><path d="M191.601,43.732c-0.028,1.394 -1.169,2.517 -2.569,2.517c-1.401,-0 -2.541,-1.123 -2.57,-2.517l5.139,0Z" style="fill:#fff;"/><rect x="182.577" y="44.465" width="2.516" height="0.549" style="fill:#fff;"/><path d="M174.904,43.732c0.008,2.098 1.713,3.8 3.813,3.8c1.85,-0 3.394,-1.321 3.741,-3.07l0.516,0c-0.353,2.031 -2.126,3.577 -4.257,3.577c-2.38,0 -4.313,-1.928 -4.32,-4.307l0.507,0Z" style="fill:#fff;"/><path d="M193.295,43.732c-0.007,2.379 -1.94,4.307 -4.32,4.307c-2.131,0 -3.904,-1.546 -4.257,-3.577l0.516,0c0.347,1.749 1.891,3.07 3.741,3.07c2.1,-0 3.806,-1.702 3.813,-3.8l0.507,0Z" style="fill:#fff;"/><path d="M24.584,43.74l-17.673,-0l-0,2.415l2.451,2.451l12.77,0l2.452,-2.451l-0,-2.415Z" style="fill:#fff;"/><path d="M10.778,50.718l-5.611,5.611l0.64,0.64l5.611,-5.611l-0.64,-0.64Z" style="fill:#fff;"/><path d="M13.029,52.017l-6.563,6.563l0.641,0.64l6.562,-6.562l-0.64,-0.641Z" style="fill:#fff;"/><path d="M15.37,53.369l-7.48,7.48l0.64,0.64l7.48,-7.48l-0.64,-0.64Z" style="fill:#fff;"/><path d="M17.66,54.691l-8.502,8.502l0.64,0.64l8.502,-8.502l-0.64,-0.64Z" style="fill:#fff;"/><path d="M20.155,55.947l-9.701,9.702l0.64,0.64l9.701,-9.701l-0.64,-0.641Z" style="fill:#fff;"/><path d="M19.975,56.576l0,-8.595l0.82,0l0,8.595l-0.82,0Z" style="fill:#fff;"/><path d="M17.629,55.994l0,-8.17l0.82,0l-0,7.356l-0.82,0.814Z" style="fill:#fff;"/><path d="M15.292,54.719l-0,-6.869l0.849,-0l-0,6.041l-0.849,0.828Z" style="fill:#fff;"/><path d="M13.002,53.322l-0,-5.373l0.823,-0l0,4.56l-0.823,0.813Z" style="fill:#fff;"/><path d="M10.61,52.161l0,-4.002l0.876,-0l0,3.129l-0.876,0.873Z" style="fill:#fff;"/><path d="M4.8,58.51l3.029,0l-0.82,0.824l-2.209,0l-0,-0.824Z" style="fill:#fff;"/><path d="M4.8,60.8l4.421,0l-0.86,0.85l-3.561,-0l-0,-0.85Z" style="fill:#fff;"/><path d="M4.8,63.138l5.709,-0l-0.786,0.82l-4.923,-0l-0,-0.82Z" style="fill:#fff;"/><path d="M4.8,65.484l7.125,0l-0.85,0.82l-6.275,-0l-0,-0.82Z" style="fill:#fff;"/><path d="M4.8,56.119l1.911,-0.043l-0.899,0.896l-1.012,0.023l-0,-0.876Z" style="fill:#fff;"/><path d="M24.584,156.281l-17.673,-0l-0,-2.416l2.451,-2.451l12.77,0l2.452,2.451l-0,2.416Z" style="fill:#fff;"/><path d="M10.778,149.282l-5.611,-5.611l0.64,-0.64l5.611,5.611l-0.64,0.64Z" style="fill:#fff;"/><path d="M13.029,147.983l-6.563,-6.562l0.641,-0.641l6.562,6.563l-0.64,0.64Z" style="fill:#fff;"/><path d="M15.37,146.631l-7.48,-7.48l0.64,-0.64l7.48,7.48l-0.64,0.64Z" style="fill:#fff;"/><path d="M17.66,145.309l-8.502,-8.502l0.64,-0.64l8.502,8.502l-0.64,0.64Z" style="fill:#fff;"/><path d="M20.155,144.053l-9.701,-9.702l0.64,-0.64l9.701,9.702l-0.64,0.64Z" style="fill:#fff;"/><path d="M19.975,143.424l0,8.595l0.82,-0l0,-8.595l-0.82,0Z" style="fill:#fff;"/><path d="M17.629,144.006l0,8.17l0.82,-0l-0,-7.356l-0.82,-0.814Z" style="fill:#fff;"/><path d="M15.292,145.282l-0,6.868l0.849,0l-0,-6.041l-0.849,-0.827Z" style="fill:#fff;"/><path d="M13.002,146.678l-0,5.373l0.823,0l0,-4.56l-0.823,-0.813Z" style="fill:#fff;"/><path d="M10.61,147.839l0,4.002l0.876,0l0,-3.128l-0.876,-0.874Z" style="fill:#fff;"/><path d="M4.8,141.49l3.029,-0l-0.82,-0.824l-2.209,0l-0,0.824Z" style="fill:#fff;"/><path d="M4.8,139.2l4.421,-0l-0.86,-0.849l-3.561,-0l-0,0.849Z" style="fill:#fff;"/><path d="M4.8,136.862l5.709,0l-0.786,-0.819l-4.923,-0l-0,0.819Z" style="fill:#fff;"/><path d="M4.8,134.516l7.125,0l-0.85,-0.82l-6.275,0l-0,0.82Z" style="fill:#fff;"/><path d="M4.8,143.881l1.911,0.044l-0.899,-0.896l-1.012,-0.024l-0,0.876Z" style="fill:#fff;"/><path d="M181.258,156.258c-0.016,-1.405 -1.161,-2.54 -2.57,-2.54c-1.408,-0 -2.553,1.135 -2.569,2.54l5.139,-0Z" style="fill:#fff;"/><path d="M191.601,156.258c-0.028,-1.394 -1.169,-2.517 -2.569,-2.517c-1.401,-0 -2.541,1.123 -2.57,2.517l5.139,-0Z" style="fill:#fff;"/><rect x="182.577" y="154.976" width="2.516" height="0.549" style="fill:#fff;"/><path d="M174.904,156.258c0.008,-2.099 1.713,-3.8 3.813,-3.8c1.85,-0 3.394,1.32 3.741,3.069l0.516,0c-0.353,-2.03 -2.126,-3.576 -4.257,-3.576c-2.38,-0 -4.313,1.928 -4.32,4.307l0.507,-0Z" style="fill:#fff;"/><path d="M193.295,156.258c-0.007,-2.379 -1.94,-4.307 -4.32,-4.307c-2.131,-0 -3.904,1.546 -4.257,3.576l0.516,0c0.347,-1.749 1.891,-3.069 3.741,-3.069c2.1,-0 3.806,1.701 3.813,3.8l0.507,-0Z" style="fill:#fff;"/><path d="M179.53,152.288l-0,-10.137l-0.82,0l0,10.137l0.82,-0Z" style="fill:#fff;"/><path d="M181.876,153.269l0,-14.912l-0.82,-0l0,14.672l0.82,0.24Z" style="fill:#fff;"/><path d="M184.214,154.975l-0,-14.347l-0.85,-0l0,14.347l0.85,0Z" style="fill:#fff;"/><path d="M186.504,153.091l-0,-9.955l-0.824,-0l-0,10.516l0.824,-0.561Z" style="fill:#fff;"/><path d="M188.895,152.111l-0,-5.681l-0.876,-0l0,5.681l0.876,-0Z" style="fill:#fff;"/><path d="M195.2,142.978l-5.141,-0c-1.121,-0 -2.032,0.91 -2.032,2.031l0,6.094l0.848,-0l0,-6.052c0,-0.673 0.546,-1.219 1.219,-1.219l5.106,-0l0,-0.854Z" style="fill:#fff;"/><path d="M195.2,140.631l-7.481,-0c-1.121,-0 -2.031,0.91 -2.031,2.031l-0,6.094l0.848,0l-0,-6.052c-0,-0.673 0.546,-1.219 1.219,-1.219l7.445,-0l0,-0.854Z" style="fill:#fff;"/><path d="M195.2,138.322l-9.796,0c-1.121,0 -2.032,0.911 -2.032,2.032l0,6.094l0.848,-0l0,-6.053c0,-0.672 0.546,-1.219 1.219,-1.219l9.761,0l0,-0.854Z" style="fill:#fff;"/><path d="M195.2,136.044l-12.133,0c-1.121,0 -2.031,0.91 -2.031,2.031l0,7.252l0.848,-0l-0,-7.21c-0,-0.673 0.546,-1.219 1.219,-1.219l12.097,0l0,-0.854Z" style="fill:#fff;"/><path d="M195.2,133.669l-14.451,-0c-1.121,-0 -2.031,0.91 -2.031,2.031l0,11.041l0.848,-0l-0,-10.999c-0,-0.673 0.546,-1.219 1.219,-1.219l14.415,-0l0,-0.854Z" style="fill:#fff;"/><circle cx="81.107" cy="80.063" r="3.584" style="fill:#d6dadf;"/><circle cx="91.802" cy="90.514" r="3.584" style="fill:#d6dadf;"/><rect x="122.014" y="135.514" width="2.974" height="14.69" style="fill:#fff;"/><rect x="122.955" y="133.419" width="1.092" height="18.881" style="fill:#fff;"/><rect x="126.941" y="135.54" width="2.974" height="14.69" style="fill:#fff;"/><rect x="127.882" y="133.445" width="1.092" height="18.881" style="fill:#fff;"/><rect x="132.043" y="135.472" width="2.974" height="14.69" style="fill:#fff;"/><rect x="132.984" y="133.376" width="1.092" height="18.881" style="fill:#fff;"/><path d="M138.505,156.263l0.823,-0l0,-23.558l2.691,0l-0,18.947l0,-0l0,4.611l0.823,-0l0,-6.629l-0,-0l-0,-16.929l-0.823,-0.823l-2.691,0l-0.823,0.823l0,23.558Zm7.028,-0l0.823,-0l-0,-6.629l-0.002,-0l-0,-16.929l2.69,0l0,18.947l0.001,-0l-0,4.611l0.823,-0l-0,-6.629l-0.001,-0l0,-16.929l-0.823,-0.823l-2.69,0l-0.823,0.823l-0,18.947l0.002,-0l-0,4.611Zm7.025,-0l0.823,-0l0,-6.629l-0,-0l-0,-16.929l2.69,0l0,18.947l0.001,-0l-0,4.611l0.823,-0l-0,-6.629l-0.001,-0l0,-16.929l-0.823,-0.823l-2.69,0l-0.823,0.823l-0,18.947l0,-0l0,4.611Zm7.027,-0l0.823,-0l0,-6.629l-0.009,-0l-0,-16.929l2.69,0l0,18.947l0.001,-0l-0,4.611l0.823,-0l-0,-6.629l-0.001,-0l0,-16.929l-0.823,-0.823l-2.69,0l-0.823,0.823l-0,18.947l0.009,-0l0,4.611Zm7.841,-0l0,-24.37l-0.823,-0l0,24.37l0.823,-0Z" style="fill:#fff;"/></svg>