<?xml version="1.0" encoding="UTF-8" standalone="no"?><!DOCTYPE svg PUBLIC "-//W3C//DTD SVG 1.1//EN" "http://www.w3.org/Graphics/SVG/1.1/DTD/svg11.dtd"><svg width="100%" height="100%" viewBox="0 0 200 200" version="1.1" xmlns="http://www.w3.org/2000/svg" xmlns:xlink="http://www.w3.org/1999/xlink" xml:space="preserve" xmlns:serif="http://www.serif.com/" style="fill-rule:evenodd;clip-rule:evenodd;stroke-linejoin:round;stroke-miterlimit:2;"><g><path d="M170.169,29.326l-40.15,23.18l0,0.231l-2.542,12.718l1.493,-0.862l2.218,-11.096l38.981,-22.505l-0,-1.666Z" style="fill:#3483a5;"/><path d="M30.018,184.184l40.149,-23.18l0,-0.231l3.922,-19.62l-1.493,0.862l-3.598,17.998l-38.98,22.506l-0,1.665Z" style="fill:#3483a5;"/><g><path d="M137.235,33.204l-3.703,2.139l-0,11.846l3.703,-2.138l0,-11.847Z" style="fill:#3483a5;"/><path d="M144.892,28.784l-3.703,2.138l-0,11.846l3.703,-2.138l-0,-11.846Z" style="fill:#3483a5;"/><path d="M152.313,24.499l-3.703,2.138l-0,11.847l3.703,-2.138l-0,-11.847Z" style="fill:#3483a5;"/><path d="M160.008,20.057l-3.703,2.138l-0,11.846l3.703,-2.138l-0,-11.846Z" style="fill:#3483a5;"/><path d="M167.353,15.816l-3.703,2.138l0,11.846l3.703,-2.138l0,-11.846Z" style="fill:#3483a5;"/></g><g><path d="M34.765,163.857l-3.704,2.138l0,11.846l3.704,-2.138l-0,-11.846Z" style="fill:#3483a5;"/><path d="M42.422,159.436l-3.704,2.138l0,11.847l3.704,-2.138l-0,-11.847Z" style="fill:#3483a5;"/><path d="M49.842,155.152l-3.703,2.138l0,11.846l3.703,-2.138l0,-11.846Z" style="fill:#3483a5;"/><path d="M57.538,150.709l-3.704,2.138l0,11.846l3.704,-2.138l-0,-11.846Z" style="fill:#3483a5;"/><path d="M64.883,146.468l-3.703,2.138l-0,11.846l3.703,-2.138l0,-11.846Z" style="fill:#3483a5;"/></g><g><path d="M33.721,73.099l-3.703,2.138l-0,11.847l3.703,-2.138l0,-11.847Z" style="fill:#3483a5;"/><path d="M41.378,68.678l-3.703,2.138l-0,11.847l3.703,-2.138l-0,-11.847Z" style="fill:#3483a5;"/><path d="M48.799,64.394l-3.703,2.138l-0,11.846l3.703,-2.138l-0,-11.846Z" style="fill:#3483a5;"/><path d="M56.494,59.951l-3.703,2.138l-0,11.847l3.703,-2.138l0,-11.847Z" style="fill:#3483a5;"/><path d="M63.84,55.71l-3.704,2.138l0,11.847l3.704,-2.138l-0,-11.847Z" style="fill:#3483a5;"/><path d="M71.314,51.395l-3.703,2.138l-0,11.846l3.703,-2.138l-0,-11.846Z" style="fill:#3483a5;"/></g><path d="M97.937,56.452c20.045,-11.573 36.32,-2.177 36.32,20.969c-0,23.147 -16.275,51.335 -36.32,62.908c-20.045,11.573 -36.32,2.177 -36.32,-20.969c0,-23.147 16.275,-51.335 36.32,-62.908Z" style="fill:#3483a5;"/><path d="M138.83,100.776c1.169,-0.675 2.118,-0.127 2.118,1.223c-0,1.35 -0.949,2.993 -2.118,3.668c-1.169,0.675 -2.118,0.127 -2.118,-1.222c-0,-1.35 0.949,-2.994 2.118,-3.669Z" style="fill:#3483a5;"/><path d="M138.83,108.623c1.169,-0.675 2.118,-0.127 2.118,1.223c-0,1.35 -0.949,2.994 -2.118,3.669c-1.169,0.674 -2.118,0.127 -2.118,-1.223c-0,-1.35 0.949,-2.994 2.118,-3.669Z" style="fill:#3483a5;"/><path d="M138.83,116.471c1.169,-0.675 2.118,-0.127 2.118,1.222c-0,1.35 -0.949,2.994 -2.118,3.669c-1.169,0.675 -2.118,0.127 -2.118,-1.223c-0,-1.35 0.949,-2.994 2.118,-3.668Z" style="fill:#3483a5;"/><path d="M138.83,124.318c1.169,-0.675 2.118,-0.127 2.118,1.223c-0,1.349 -0.949,2.993 -2.118,3.668c-1.169,0.675 -2.118,0.127 -2.118,-1.223c-0,-1.35 0.949,-2.993 2.118,-3.668Z" style="fill:#3483a5;"/><path d="M97.937,56.452c-20.059,11.581 -36.32,39.746 -36.32,62.908c0,23.146 16.275,32.542 36.32,20.969c7.022,-4.054 13.892,-10.371 19.781,-18.186l-19.781,-23.752l0,-41.939Z" style="fill-opacity:0.13;"/><path d="M97.937,56.452c-20.059,11.581 -36.32,39.746 -36.32,62.908c0,0.976 0.03,1.935 0.089,2.874l36.231,-23.843l0,-41.939Z" style="fill-opacity:0.13;"/><path d="M97.937,56.452c-7.887,4.554 -15.559,11.948 -21.858,21.065l21.858,20.874l0,-41.939Z" style="fill-opacity:0.13;"/><path d="M97.937,56.452c-1.903,1.099 -3.802,2.368 -5.682,3.797l5.682,38.142l0,-41.939Z" style="fill-opacity:0.13;"/><path d="M162.294,88.904l-19.738,11.396l-0,1.541l19.738,-11.395l-0,-1.542Z" style="fill:#3483a5;"/><path d="M49.782,80.043l-19.738,11.396l-0,1.541l19.738,-11.396l-0,-1.541Z" style="fill:#3483a5;"/><path d="M49.675,83.772l-19.737,11.396l-0,1.541l19.737,-11.395l0,-1.542Z" style="fill:#3483a5;"/><path d="M49.569,87.501l-19.738,11.396l0,1.541l19.738,-11.395l0,-1.542Z" style="fill:#3483a5;"/><path d="M162.294,96.751l-19.738,11.396l-0,1.541l19.738,-11.395l-0,-1.542Z" style="fill:#3483a5;"/><path d="M162.294,104.599l-19.738,11.395l-0,1.542l19.738,-11.396l-0,-1.541Z" style="fill:#3483a5;"/><path d="M162.294,112.446l-19.738,11.396l-0,1.541l19.738,-11.396l-0,-1.541Z" style="fill:#3483a5;"/></g></svg>