<?xml version="1.0" encoding="UTF-8" standalone="no"?><!DOCTYPE svg PUBLIC "-//W3C//DTD SVG 1.1//EN" "http://www.w3.org/Graphics/SVG/1.1/DTD/svg11.dtd"><svg width="100%" height="100%" viewBox="0 0 200 200" version="1.1" xmlns="http://www.w3.org/2000/svg" xmlns:xlink="http://www.w3.org/1999/xlink" xml:space="preserve" xmlns:serif="http://www.serif.com/" style="fill-rule:evenodd;clip-rule:evenodd;stroke-linejoin:round;stroke-miterlimit:2;"><path d="M72.179,162.097c-4.594,-2.018 -11.588,-5.817 -15.872,-9.443c-6.935,-5.871 -11.092,-16.051 -11.092,-29.744c-0,-31.707 22.293,-70.32 49.752,-86.174c13.353,-7.709 25.484,-8.626 34.423,-3.889c3.904,2.069 8.949,4.683 12.994,7.652c7.717,5.667 12.401,16.243 12.401,30.776c0,31.707 -22.293,70.321 -49.752,86.174c-12.587,7.267 -24.088,8.499 -32.854,4.648Z" style="fill:#25bcb4;"/><path d="M105.414,42.551c27.46,-15.854 49.753,-2.983 49.753,28.724c0,31.707 -22.293,70.321 -49.753,86.174c-27.459,15.854 -49.752,2.983 -49.752,-28.724c-0,-31.707 22.293,-70.321 49.752,-86.174Z" style="fill:#fff;fill-opacity:0.26;"/><path d="M105.033,42.551l-10.066,-5.815c0,0 1.473,-0.831 2.203,-1.216c12.481,-6.577 23.775,-7.148 32.22,-2.673c3.486,1.848 5.632,2.831 11.31,6.508c8.717,5.316 14.085,16.345 14.085,31.92c0,12.819 -3.712,27.412 -10.547,41.459l-39.205,-12.734l-0,-57.449Z" style="fill:#001a35;"/><path d="M105.033,42.551l-10.066,-5.815c0,0 1.473,-0.831 2.203,-1.216c12.481,-6.577 23.775,-7.148 32.22,-2.673c3.644,1.931 6.85,3.51 12.032,6.983c-8.555,-5.654 -20.532,-5.598 -33.889,1.348c-0.828,0.431 -2.5,1.373 -2.5,1.373Z" style="fill:#fff;fill-opacity:0.11;"/><path d="M105.033,42.551c27.477,-15.865 49.752,-3.004 49.752,28.724c0,19.454 -8.526,42.509 -22.655,61.262l-27.097,-32.537l-0,-57.449Z" style="fill:#001a35;"/></svg>