<?xml version="1.0" encoding="UTF-8" standalone="no"?><!DOCTYPE svg PUBLIC "-//W3C//DTD SVG 1.1//EN" "http://www.w3.org/Graphics/SVG/1.1/DTD/svg11.dtd"><svg width="100%" height="100%" viewBox="0 0 200 200" version="1.1" xmlns="http://www.w3.org/2000/svg" xmlns:xlink="http://www.w3.org/1999/xlink" xml:space="preserve" xmlns:serif="http://www.serif.com/" style="fill-rule:evenodd;clip-rule:evenodd;stroke-linejoin:round;stroke-miterlimit:2;"><path d="M161.15,82.611c-0,25.381 -17.816,56.239 -39.796,68.929c-21.981,12.69 -39.791,2.401 -39.791,-22.979c0,-25.375 17.81,-56.229 39.791,-68.92c21.98,-12.69 39.796,-2.404 39.796,22.97" style="fill:#ededed;fill-rule:nonzero;stroke:#000;stroke-width:0.3px;"/><path d="M127.234,104.214c-0,-2.631 -1.851,-3.698 -4.13,-2.382c-2.28,1.316 -4.131,4.52 -4.131,7.151c0,2.63 1.851,3.698 4.131,2.382c2.279,-1.317 4.13,-4.521 4.13,-7.151Z" style="fill:#818181;fill-opacity:0.48;stroke:#333;stroke-width:0.25px;stroke-linejoin:miter;stroke-miterlimit:10;"/><g><path d="M122.663,101.943c-0.845,-5.657 -1.52,-11.406 -2.043,-17.248c-0.306,-2.893 -0.966,-5.587 -0.563,-8.889c0.426,-3.315 1.102,-6.775 2.759,-10.801l0.603,-0.348c1.633,2.133 2.269,4.841 2.671,7.678c0.386,2.853 -0.298,6.317 -0.636,9.581c-0.563,6.463 -1.287,13.02 -2.188,19.678l-0.603,0.349Z" style="fill:#808080;fill-opacity:0.47;fill-rule:nonzero;stroke:#333;stroke-width:0.25px;stroke-linejoin:miter;stroke-miterlimit:10;"/><path d="M127.181,103.483c3.496,-2.839 6.997,-5.521 10.492,-8.051c1.847,-1.329 3.682,-3.185 5.523,-3.795c1.847,-0.649 3.682,-1.054 5.523,-0.426l0,0.613c-1.846,2.751 -3.682,4.472 -5.528,5.942c-1.841,1.51 -3.682,1.777 -5.523,2.57c-3.479,1.488 -6.957,2.828 -10.436,4.009c0.001,-0.044 0.002,-0.088 0.002,-0.131c-0,-0.259 -0.018,-0.503 -0.053,-0.731Z" style="fill:#808080;fill-opacity:0.47;fill-rule:nonzero;stroke:#333;stroke-width:0.25px;stroke-linejoin:miter;stroke-miterlimit:10;"/></g><g><path d="M90.743,160.014c-8.353,-4.456 -13.556,-14.494 -13.556,-28.927c0,-28.151 19.792,-62.433 44.171,-76.508c11.438,-6.604 21.866,-7.593 29.714,-3.876l-34.949,-20.178c-8.081,-5.586 -19.729,-5.3 -32.669,2.17c-24.378,14.075 -44.17,48.357 -44.17,76.509c0,14.343 4.882,24.362 13.149,28.863l0.188,0.101l38.053,21.97l0.069,-0.124Z" style="fill:#1b1b1b;stroke:#000;stroke-width:0.25px;stroke-linejoin:miter;stroke-miterlimit:10;"/><path d="M90.656,160.164l0,11.728c0,0.612 0.254,1.188 0.687,1.6c-0,-0 -29.519,-17.043 -36.896,-21.302c-1.025,-0.592 -1.656,-1.685 -1.656,-2.868c-0,-3.599 -0,-11.02 -0,-11.02l37.865,21.862Z" style="fill:#1b1b1b;stroke:#000;stroke-width:0.3px;stroke-linecap:round;stroke-miterlimit:1.5;"/><path d="M151.984,124.656l0.072,-0.042l-0,13.103c-0,1.578 -0.842,3.035 -2.208,3.824c-9.235,5.332 -44.805,25.868 -55.88,32.263c-0.683,0.394 -1.525,0.394 -2.208,-0c-0.683,-0.395 -1.104,-1.124 -1.104,-1.912c0,-4.634 0,-11.829 0,-11.829l0.073,-0.042c7.94,4.243 18.734,3.438 30.626,-3.428c11.892,-6.866 22.687,-18.526 30.629,-31.937Z" style="fill:#1b1b1b;stroke:#000;stroke-width:0.25px;stroke-linejoin:miter;stroke-miterlimit:10;"/><path d="M165.429,80.106c0,-28.151 -19.792,-39.579 -44.17,-25.505c-24.378,14.075 -44.17,48.357 -44.17,76.509c-0,28.151 19.792,39.579 44.17,25.504c24.378,-14.074 44.17,-48.357 44.17,-76.508Zm-4.378,2.528c0,25.381 -17.815,56.238 -39.796,68.929c-21.98,12.69 -39.79,2.401 -39.79,-22.98c-0,-25.374 17.81,-56.229 39.79,-68.919c21.981,-12.691 39.796,-2.405 39.796,22.97Z" style="fill:#1b1b1b;stroke:#000;stroke-width:0.25px;stroke-linejoin:miter;stroke-miterlimit:10;"/><g><path d="M122.663,101.943c-0.845,-5.657 -1.52,-11.406 -2.043,-17.248c-0.306,-2.893 -0.966,-5.587 -0.563,-8.889c0.426,-3.315 1.102,-6.775 2.759,-10.801l0.603,-0.348c1.633,2.133 2.269,4.841 2.671,7.678c0.386,2.853 -0.298,6.317 -0.636,9.581c-0.563,6.463 -1.287,13.02 -2.188,19.678l-0.603,0.349Z" style="fill:#1b1b1b;fill-rule:nonzero;stroke:#000;stroke-width:0.25px;stroke-linejoin:miter;stroke-miterlimit:10;"/><path d="M127.181,103.483c3.496,-2.839 6.997,-5.521 10.492,-8.051c1.847,-1.329 3.682,-3.185 5.523,-3.795c1.847,-0.649 3.682,-1.054 5.523,-0.426l0,0.613c-1.846,2.751 -3.682,4.472 -5.528,5.942c-1.841,1.51 -3.682,1.777 -5.523,2.57c-3.479,1.488 -6.957,2.828 -10.436,4.009c0.001,-0.044 0.002,-0.088 0.002,-0.131c-0,-0.259 -0.018,-0.503 -0.053,-0.731Z" style="fill:#1b1b1b;fill-rule:nonzero;stroke:#000;stroke-width:0.25px;stroke-linejoin:miter;stroke-miterlimit:10;"/></g><g><path d="M122.663,101.943c-0.845,-5.657 -1.52,-11.406 -2.043,-17.248c-0.306,-2.893 -0.966,-5.587 -0.563,-8.889c0.426,-3.315 1.102,-6.775 2.759,-10.801l0.603,-0.348c1.633,2.133 2.269,4.841 2.671,7.678c0.386,2.853 -0.298,6.317 -0.636,9.581c-0.563,6.463 -1.287,13.02 -2.188,19.678l-0.603,0.349Z" style="fill:#6f6f6f;fill-opacity:0.44;fill-rule:nonzero;stroke:#000;stroke-width:0.25px;stroke-linejoin:miter;stroke-miterlimit:10;"/><path d="M127.181,103.483c3.496,-2.839 6.997,-5.521 10.492,-8.051c1.847,-1.329 3.682,-3.185 5.523,-3.795c1.847,-0.649 3.682,-1.054 5.523,-0.426l0,0.613c-1.846,2.751 -3.682,4.472 -5.528,5.942c-1.841,1.51 -3.682,1.777 -5.523,2.57c-3.479,1.488 -6.957,2.828 -10.436,4.009c0.001,-0.044 0.002,-0.088 0.002,-0.131c-0,-0.259 -0.018,-0.503 -0.053,-0.731Z" style="fill:#6f6f6f;fill-opacity:0.44;fill-rule:nonzero;stroke:#000;stroke-width:0.25px;stroke-linejoin:miter;stroke-miterlimit:10;"/></g><g><path d="M122.647,101.927l-1.627,-0.915c-0.845,-5.656 -1.521,-11.405 -2.043,-17.247c-0.306,-2.893 -0.966,-5.588 -0.564,-8.889c0.427,-3.315 1.103,-6.775 2.76,-10.801l2.085,0.432c0.01,0.076 0.02,0.152 0.03,0.226l-0.472,0.272c-1.657,4.026 -2.333,7.486 -2.759,10.801c-0.403,3.302 0.257,5.996 0.563,8.889c0.52,5.812 2.056,17.199 2.056,17.199l-0.029,0.033Z" style="fill:#1b1b1b;fill-rule:nonzero;stroke:#000;stroke-width:0.25px;stroke-linejoin:miter;stroke-miterlimit:10;"/><path d="M126.447,101.87c3.001,-2.398 6.004,-4.681 9.005,-6.853c1.846,-1.329 3.682,-3.185 5.522,-3.795c1.847,-0.649 3.682,-1.053 5.523,-0.426l0,0.107c-1.099,0.046 -2.198,0.346 -3.301,0.734c-1.841,0.61 -3.676,2.466 -5.523,3.795c-3.495,2.53 -6.996,5.212 -10.492,8.051c-0.105,-0.692 -0.362,-1.236 -0.734,-1.613Z" style="fill:#1b1b1b;fill-rule:nonzero;stroke:#000;stroke-width:0.25px;stroke-linejoin:miter;stroke-miterlimit:10;"/></g><path d="M127.234,104.214c-0,-2.631 -1.851,-3.698 -4.13,-2.382c-2.28,1.316 -4.131,4.52 -4.131,7.151c0,2.63 1.851,3.698 4.131,2.382c2.279,-1.317 4.13,-4.521 4.13,-7.151Z" style="fill:#1b1b1b;stroke:#000;stroke-width:0.25px;stroke-linejoin:miter;stroke-miterlimit:10;"/><path d="M123.438,100.309c0.323,0.035 0.622,0.127 0.896,0.26c0.721,0.35 1.593,0.894 1.593,0.894l-0.012,0.022c-0.737,-0.366 -1.726,-0.28 -2.811,0.347c-2.28,1.316 -4.131,4.52 -4.131,7.151c0,1.403 0.526,2.361 1.363,2.75l-0.007,0.013c0,0 -1.212,-0.668 -1.965,-1.145c-0.707,-0.447 -1.141,-1.354 -1.141,-2.629c0,-2.506 1.68,-5.533 3.811,-6.952l1.629,0.923l0.603,-0.349c0.058,-0.428 0.116,-0.857 0.172,-1.285Z" style="fill:#1b1b1b;stroke:#000;stroke-width:0.25px;stroke-linejoin:miter;stroke-miterlimit:10;"/></g><path d="M90.656,160.164l0,11.728c0,0.612 0.254,1.188 0.687,1.6c-0,-0 -29.519,-17.043 -36.896,-21.302c-1.025,-0.592 -1.656,-1.685 -1.656,-2.868c-0,-3.599 -0,-11.02 -0,-11.02l37.865,21.862Z" style="fill:#7f7f7f;fill-opacity:0.15;stroke:#000;stroke-width:0.3px;stroke-linecap:round;stroke-miterlimit:1.5;"/><path d="M151.984,124.656l0.072,-0.042l-0,13.103c-0,1.578 -0.842,3.035 -2.208,3.824c-9.235,5.332 -44.805,25.868 -55.88,32.263c-0.683,0.394 -1.525,0.394 -2.208,-0c-0.683,-0.395 -1.104,-1.124 -1.104,-1.912c0,-4.634 0,-11.829 0,-11.829l0.073,-0.042c7.94,4.243 18.734,3.438 30.626,-3.428c11.892,-6.866 22.687,-18.526 30.629,-31.937Z" style="fill:#727272;fill-opacity:0.48;stroke:#000;stroke-width:0.25px;stroke-linejoin:miter;stroke-miterlimit:10;"/><path d="M165.429,80.106c0,-28.151 -19.792,-39.579 -44.17,-25.505c-24.378,14.075 -44.17,48.357 -44.17,76.509c-0,28.151 19.792,39.579 44.17,25.504c24.378,-14.074 44.17,-48.357 44.17,-76.508Zm-4.378,2.528c0,25.381 -17.815,56.238 -39.796,68.929c-21.98,12.69 -39.79,2.401 -39.79,-22.98c-0,-25.374 17.81,-56.229 39.79,-68.919c21.981,-12.691 39.796,-2.405 39.796,22.97Z" style="fill:#838383;fill-opacity:0.23;stroke:#000;stroke-width:0.25px;stroke-linejoin:miter;stroke-miterlimit:10;"/><path d="M127.234,104.214c-0,-2.631 -1.851,-3.698 -4.13,-2.382c-2.28,1.316 -4.131,4.52 -4.131,7.151c0,2.63 1.851,3.698 4.131,2.382c2.279,-1.317 4.13,-4.521 4.13,-7.151Z" style="fill:#7e7e7e;stroke:#333;stroke-width:0.25px;stroke-linejoin:miter;stroke-miterlimit:10;"/></svg>