<?xml version="1.0" encoding="UTF-8" standalone="no"?><!DOCTYPE svg PUBLIC "-//W3C//DTD SVG 1.1//EN" "http://www.w3.org/Graphics/SVG/1.1/DTD/svg11.dtd"><svg width="100%" height="100%" viewBox="0 0 200 200" version="1.1" xmlns="http://www.w3.org/2000/svg" xmlns:xlink="http://www.w3.org/1999/xlink" xml:space="preserve" xmlns:serif="http://www.serif.com/" style="fill-rule:evenodd;clip-rule:evenodd;stroke-linejoin:round;stroke-miterlimit:1.5;"><g><g><path d="M104.785,50.448l-4.255,2.566c-0.844,1.089 -0.458,3.296 0.614,3.788l3.831,-2.31c1.229,-0.521 0.835,-3.405 -0.19,-4.044Z" style="fill:#79a1a7;"/><path d="M111.645,54.492l-4.254,2.566c-0.845,1.089 -0.458,3.296 0.613,3.788l3.831,-2.31c1.229,-0.521 0.835,-3.405 -0.19,-4.044Z" style="fill:#79a1a7;"/><path d="M118.505,58.536l-4.254,2.566c-0.845,1.089 -0.458,3.295 0.613,3.788l3.831,-2.311c1.23,-0.52 0.835,-3.404 -0.19,-4.043Z" style="fill:#79a1a7;"/><path d="M125.365,62.58l-4.254,2.566c-0.845,1.089 -0.458,3.295 0.614,3.788l3.83,-2.311c1.23,-0.52 0.835,-3.404 -0.19,-4.043Z" style="fill:#79a1a7;"/><path d="M131.933,66.623l-4.254,2.565c-0.845,1.089 -0.458,3.296 0.614,3.788l3.83,-2.31c1.23,-0.521 0.835,-3.405 -0.19,-4.043Z" style="fill:#79a1a7;"/><path d="M138.82,70.667l-4.254,2.565c-0.845,1.089 -0.458,3.296 0.613,3.788l3.831,-2.31c1.23,-0.521 0.835,-3.405 -0.19,-4.043Z" style="fill:#79a1a7;"/><path d="M145.787,74.823l-4.255,2.566c-0.845,1.089 -0.458,3.296 0.614,3.788l3.831,-2.311c1.229,-0.52 0.835,-3.404 -0.19,-4.043Z" style="fill:#79a1a7;"/><path d="M152.171,78.78l-4.255,2.566c-0.845,1.089 -0.458,3.295 0.614,3.787l3.831,-2.31c1.229,-0.52 0.835,-3.405 -0.19,-4.043Z" style="fill:#79a1a7;"/><path d="M158.638,82.675l-4.254,2.566c-0.845,1.089 -0.458,3.296 0.613,3.788l3.831,-2.311c1.23,-0.52 0.835,-3.404 -0.19,-4.043Z" style="fill:#79a1a7;"/><path d="M164.876,86.619l-4.255,2.566c-0.844,1.089 -0.458,3.295 0.614,3.788l3.831,-2.311c1.229,-0.52 0.835,-3.405 -0.19,-4.043Z" style="fill:#79a1a7;"/><path d="M171.091,90.44l-4.254,2.566c-0.845,1.089 -0.458,3.296 0.614,3.788l3.83,-2.31c1.23,-0.521 0.835,-3.405 -0.19,-4.044Z" style="fill:#79a1a7;"/><path d="M178.034,94.62l-4.254,2.566c-0.845,1.088 -0.458,3.295 0.614,3.787l3.831,-2.31c1.229,-0.52 0.834,-3.405 -0.191,-4.043Z" style="fill:#79a1a7;"/><path d="M184.463,98.359l-4.255,2.565c-0.845,1.089 -0.458,3.296 0.614,3.788l3.831,-2.31c1.229,-0.521 0.835,-3.405 -0.19,-4.043Z" style="fill:#79a1a7;"/></g><path d="M18.728,101.651l-0.013,3.493l81.826,49.349l81.826,-49.349l0.014,-3.493l-81.827,-49.348l-81.826,49.348Z" style="fill:#79a1a7;"/><path d="M182.381,101.651l-81.827,49.349l-81.826,-49.349l-0.013,3.493l81.826,49.349l81.826,-49.349l0.014,-3.493Z" style="fill:#878787;fill-opacity:0.54;"/><path d="M100.541,154.493l0.013,-3.493l-81.826,-49.349l-0.013,3.493l81.826,49.349Z" style="fill:#878787;fill-opacity:0.54;"/><g><path d="M172.759,107.534l-25.856,-1.8l-0.556,-13.778l-26.644,-3.328l-1.236,-13.315l-24.576,-2.91l-2.879,-13.87" style="fill:none;stroke:#707070;stroke-opacity:0.49;stroke-width:0.55px;"/><path d="M148.291,122.29l-25.856,-1.8l-0.555,-13.778l-26.644,-3.328l-1.236,-13.315l-24.576,-2.911l-2.88,-13.869" style="fill:none;stroke:#707070;stroke-opacity:0.49;stroke-width:0.55px;"/><path d="M169.589,109.445l-25.856,-1.799l-0.555,-13.779l-26.644,-3.328l-1.236,-13.314l-24.577,-2.911l-2.879,-13.87" style="fill:none;stroke:#707070;stroke-opacity:0.49;stroke-width:0.55px;"/><path d="M126.27,135.571l-25.856,-1.8l-0.555,-13.778l-26.644,-3.328l-1.237,-13.315l-24.576,-2.91l-2.879,-13.87" style="fill:none;stroke:#707070;stroke-opacity:0.49;stroke-width:0.55px;"/><path d="M122.323,137.574l-25.856,-1.799l-0.555,-13.778l-26.644,-3.329l-1.236,-13.314l-24.577,-2.911l-2.879,-13.869" style="fill:none;stroke:#707070;stroke-opacity:0.49;stroke-width:0.55px;"/></g><g><path d="M19.608,102.389l-4.254,2.565c-0.845,1.089 -0.458,3.296 0.613,3.788l3.831,-2.31c1.23,-0.521 0.835,-3.405 -0.19,-4.043Z" style="fill:#79a1a7;"/><path d="M26.468,106.432l-4.254,2.566c-0.845,1.089 -0.458,3.296 0.614,3.788l3.83,-2.31c1.23,-0.521 0.835,-3.405 -0.19,-4.044Z" style="fill:#79a1a7;"/><path d="M33.328,110.476l-4.254,2.566c-0.845,1.089 -0.458,3.296 0.614,3.788l3.83,-2.31c1.23,-0.521 0.835,-3.405 -0.19,-4.044Z" style="fill:#79a1a7;"/><path d="M40.188,114.52l-4.254,2.566c-0.845,1.089 -0.458,3.295 0.614,3.788l3.83,-2.311c1.23,-0.52 0.835,-3.404 -0.19,-4.043Z" style="fill:#79a1a7;"/><path d="M46.756,118.563l-4.254,2.566c-0.845,1.088 -0.458,3.295 0.614,3.787l3.831,-2.31c1.229,-0.52 0.834,-3.405 -0.191,-4.043Z" style="fill:#79a1a7;"/><path d="M53.643,122.607l-4.254,2.566c-0.845,1.088 -0.458,3.295 0.614,3.787l3.83,-2.31c1.23,-0.52 0.835,-3.405 -0.19,-4.043Z" style="fill:#79a1a7;"/><path d="M60.61,126.763l-4.255,2.566c-0.845,1.089 -0.458,3.296 0.614,3.788l3.831,-2.31c1.229,-0.521 0.835,-3.405 -0.19,-4.044Z" style="fill:#79a1a7;"/><path d="M66.994,130.72l-4.255,2.566c-0.845,1.089 -0.458,3.295 0.614,3.787l3.831,-2.31c1.229,-0.52 0.835,-3.405 -0.19,-4.043Z" style="fill:#79a1a7;"/><path d="M73.461,134.615l-4.254,2.566c-0.845,1.089 -0.458,3.296 0.614,3.788l3.83,-2.31c1.23,-0.521 0.835,-3.405 -0.19,-4.044Z" style="fill:#79a1a7;"/><path d="M79.699,138.559l-4.254,2.566c-0.845,1.089 -0.458,3.295 0.613,3.788l3.831,-2.311c1.23,-0.52 0.835,-3.404 -0.19,-4.043Z" style="fill:#79a1a7;"/><path d="M85.914,142.38l-4.254,2.566c-0.845,1.089 -0.458,3.296 0.614,3.788l3.83,-2.31c1.23,-0.521 0.835,-3.405 -0.19,-4.044Z" style="fill:#79a1a7;"/><path d="M92.857,146.56l-4.254,2.566c-0.845,1.089 -0.458,3.295 0.614,3.787l3.831,-2.31c1.229,-0.52 0.834,-3.405 -0.191,-4.043Z" style="fill:#79a1a7;"/><path d="M99.286,150.299l-4.255,2.566c-0.844,1.088 -0.458,3.295 0.614,3.787l3.831,-2.31c1.229,-0.52 0.835,-3.405 -0.19,-4.043Z" style="fill:#79a1a7;"/></g></g></svg>