<?xml version="1.0" encoding="UTF-8" standalone="no"?><!DOCTYPE svg PUBLIC "-//W3C//DTD SVG 1.1//EN" "http://www.w3.org/Graphics/SVG/1.1/DTD/svg11.dtd"><svg width="100%" height="100%" viewBox="0 0 200 200" version="1.1" xmlns="http://www.w3.org/2000/svg" xmlns:xlink="http://www.w3.org/1999/xlink" xml:space="preserve" xmlns:serif="http://www.serif.com/" style="fill-rule:evenodd;clip-rule:evenodd;stroke-linejoin:round;stroke-miterlimit:2;"><path d="M33.788,107.961c-0.301,-2.346 -0.298,-11.666 -0.014,-13.975c1.085,-8.812 7.457,-17.447 19.116,-24.179c25.711,-14.844 67.459,-14.844 93.17,0c12.125,7.001 18.532,16.062 19.221,25.238c0.147,1.959 0.189,10.841 -0.174,13.319c-1.266,8.633 -7.615,17.064 -19.047,23.665c-25.711,14.844 -67.459,14.844 -93.17,-0c-11.61,-6.703 -17.978,-15.295 -19.102,-24.068Z" style="fill:#8db7bb;"/><path d="M165.341,96.419c0.09,3.205 0.072,9.854 -0.234,11.945c-1.266,8.633 -7.615,17.064 -19.047,23.665c-25.711,14.844 -67.459,14.844 -93.17,-0c-11.61,-6.703 -17.978,-15.295 -19.102,-24.068c-0.222,-1.731 -0.279,-7.26 -0.179,-10.966c0.127,9.639 6.554,19.256 19.281,26.604c25.711,14.844 67.459,14.844 93.17,-0c12.981,-7.495 19.408,-17.35 19.281,-27.18Z" style="fill:#6f6f6f;fill-opacity:0.21;"/></svg>