<?xml version="1.0" encoding="UTF-8" standalone="no"?><!DOCTYPE svg PUBLIC "-//W3C//DTD SVG 1.1//EN" "http://www.w3.org/Graphics/SVG/1.1/DTD/svg11.dtd"><svg width="100%" height="100%" viewBox="0 0 200 200" version="1.1" xmlns="http://www.w3.org/2000/svg" xmlns:xlink="http://www.w3.org/1999/xlink" xml:space="preserve" xmlns:serif="http://www.serif.com/" style="fill-rule:evenodd;clip-rule:evenodd;stroke-linejoin:round;stroke-miterlimit:2;"><g id="fill"><path d="M28.29,141.611c5.929,3.428 3.894,2.252 3.894,2.252c-0.639,-0.842 -0.677,-1.647 -0.353,-2.43c-0.033,-0.596 28.905,-49.521 30.363,-52.604c0.26,-0.55 1.276,-0.515 1.276,-0.325c-0,-0 -4.113,-2.497 -4.587,-2.624c-0.474,-0.127 -0.974,0.08 -1.219,0.505c-6.295,10.907 -25.406,44.019 -30.167,52.267c-0.598,1.036 -0.243,2.361 0.793,2.959Z" style="fill:#6ca39c;"/><path d="M137.581,39.788c-0.335,-0.193 -0.749,-0.194 -1.084,-0c-0.335,0.194 -0.542,0.551 -0.542,0.939c0,3.185 0.001,9.563 0.001,12.263c0,0.775 0.414,1.491 1.086,1.878c3.529,2.033 4.276,2.464 4.276,2.464c-0.641,-0.49 -0.989,-1.146 -0.935,-2.031l-0.002,-11.723c-0.096,-1.013 0.666,-1.646 1.577,-1.263c-0,0 1.191,0.692 -4.377,-2.527Z" style="fill:#6ca39c;"/><path d="M159.399,67.753l-4.404,-2.544c-0,-0 0.431,0.38 0.505,0.658c0.075,0.278 0.036,0.574 -0.108,0.823c-2.943,5.097 -16.944,29.341 -19.142,33.146c-0.19,0.33 -0.29,0.704 -0.29,1.085c0,1.737 0,7.007 0.001,10.764c-0,0.491 0.355,0.848 0.803,1.047c0.471,0.21 4.101,2.402 4.101,2.402l-0.485,-0.807l0.303,-11.939l19.009,-32.924c0.499,-0.726 0.258,-1.362 -0.293,-1.711Z" style="fill:#6ca39c;"/><path d="M129.166,49.233c-0,-0 -3.767,-2.173 -4.149,-2.409c-0.39,-0.242 -0.849,-0.339 -1.245,-0.108c-2.521,1.472 -6.097,3.56 -7.195,4.201c-0.215,0.126 -0.381,0.322 -0.468,0.555c-2.17,5.788 -29.77,79.417 -35.502,94.707c-0.159,0.426 -0.036,0.906 0.309,1.203c0.345,0.296 4.445,2.571 4.445,2.571c-0.211,-0.191 -0.32,-0.4 -0.37,-0.601c-0.055,-0.224 -0.025,-0.45 0.067,-0.681c0.044,-0.11 0.088,-0.246 0.143,-0.38l35.306,-94.126c0.133,-0.319 0.289,-0.559 0.48,-0.682l7.162,-4.18c0.304,-0.177 0.64,-0.214 1.017,-0.07Z" style="fill:#6ca39c;"/><path d="M62.493,161.38c0.335,0.193 0.748,0.194 1.084,0c0.335,-0.194 0.542,-0.551 0.542,-0.939c-0,-3.185 -0.001,-9.563 -0.001,-12.263c-0,-0.775 -0.414,-1.491 -1.086,-1.878c-3.529,-2.033 -14.642,-8.433 -17.953,-10.341c-0.249,-0.143 -0.431,-0.38 -0.506,-0.658c-0.074,-0.278 -0.035,-0.574 0.108,-0.823c2.944,-5.097 16.945,-29.341 19.142,-33.146c0.191,-0.33 0.291,-0.704 0.291,-1.085c-0,-1.737 -0.001,-7.007 -0.001,-10.764c-0,-0.491 -0.33,-0.92 -0.803,-1.047c-0.474,-0.127 -0.974,0.08 -1.219,0.505c-6.295,10.906 -25.407,44.019 -30.167,52.266c-0.598,1.036 -0.244,2.361 0.792,2.96c5.93,3.428 24.209,13.994 29.777,17.213Z" style="fill:#6ca39c;"/><path d="M142.008,42.344c-0.336,-0.194 -0.749,-0.194 -1.084,-0c-0.336,0.193 -0.543,0.551 -0.543,0.938c0.001,3.186 0.001,9.564 0.001,12.263c0.001,0.775 0.414,1.491 1.086,1.878c3.529,2.033 14.642,8.434 17.953,10.341c0.249,0.144 0.431,0.381 0.506,0.658c0.074,0.278 0.036,0.574 -0.108,0.823c-2.944,5.097 -16.944,29.342 -19.142,33.147c-0.19,0.33 -0.291,0.704 -0.291,1.084c0.001,1.738 0.001,7.007 0.001,10.765c0,0.491 0.33,0.92 0.804,1.047c0.473,0.127 0.973,-0.08 1.219,-0.505c6.295,-10.907 25.406,-44.019 30.166,-52.267c0.599,-1.036 0.244,-2.361 -0.792,-2.96c-5.929,-3.427 -24.209,-13.994 -29.776,-17.212Z" style="fill:#6ca39c;"/><path d="M129.759,50.589c0.162,-0.43 0.035,-0.914 -0.315,-1.21c-0.351,-0.296 -0.849,-0.339 -1.245,-0.107c-2.521,1.471 -6.098,3.56 -7.195,4.201c-0.216,0.125 -0.381,0.321 -0.469,0.555c-2.169,5.787 -29.77,79.417 -35.501,94.707c-0.16,0.426 -0.037,0.906 0.308,1.202c0.345,0.297 0.838,0.346 1.235,0.124c2.448,-1.368 5.909,-3.302 7.005,-3.914c0.223,-0.125 0.395,-0.325 0.485,-0.565c2.205,-5.867 29.866,-79.488 35.692,-94.993Z" style="fill:#6ca39c;"/></g><g id="shadows"><path d="M28.29,141.611c5.929,3.428 3.894,2.252 3.894,2.252c-0.639,-0.842 -0.677,-1.647 -0.353,-2.43c-0.033,-0.596 28.905,-49.521 30.363,-52.604c0.26,-0.55 1.276,-0.515 1.276,-0.325c-0,-0 -4.113,-2.497 -4.587,-2.624c-0.474,-0.127 -0.974,0.08 -1.219,0.505c-6.295,10.907 -25.406,44.019 -30.167,52.267c-0.598,1.036 -0.243,2.361 0.793,2.959Z" style="fill:#808080;fill-opacity:0.47;"/><path d="M137.581,39.788c-0.335,-0.193 -0.749,-0.194 -1.084,-0c-0.335,0.194 -0.542,0.551 -0.542,0.939c0,3.185 0.001,9.563 0.001,12.263c0,0.775 0.414,1.491 1.086,1.878c3.529,2.033 4.276,2.464 4.276,2.464c-0.641,-0.49 -0.989,-1.146 -0.935,-2.031l-0.002,-11.723c-0.096,-1.013 0.666,-1.646 1.577,-1.263c-0,0 1.191,0.692 -4.377,-2.527Z" style="fill:#808080;fill-opacity:0.47;"/><path d="M159.399,67.753l-4.404,-2.544c-0,-0 0.431,0.38 0.505,0.658c0.075,0.278 0.036,0.574 -0.108,0.823c-2.943,5.097 -16.944,29.341 -19.142,33.146c-0.19,0.33 -0.29,0.704 -0.29,1.085c0,1.737 0,7.007 0.001,10.764c-0,0.491 0.355,0.848 0.803,1.047c0.471,0.21 4.101,2.402 4.101,2.402l-0.485,-0.807l0.303,-11.939l19.009,-32.924c0.499,-0.726 0.258,-1.362 -0.293,-1.711Z" style="fill:#808080;fill-opacity:0.47;"/><path d="M129.166,49.233c-0,-0 -3.767,-2.173 -4.149,-2.409c-0.39,-0.242 -0.849,-0.339 -1.245,-0.108c-2.521,1.472 -6.097,3.56 -7.195,4.201c-0.215,0.126 -0.381,0.322 -0.468,0.555c-2.17,5.788 -29.77,79.417 -35.502,94.707c-0.159,0.426 -0.036,0.906 0.309,1.203c0.345,0.296 4.445,2.571 4.445,2.571c-0.211,-0.191 -0.32,-0.4 -0.37,-0.601c-0.055,-0.224 -0.025,-0.45 0.067,-0.681c0.044,-0.11 0.088,-0.246 0.143,-0.38l35.306,-94.126c0.133,-0.319 0.289,-0.559 0.48,-0.682l7.162,-4.18c0.304,-0.177 0.64,-0.214 1.017,-0.07Z" style="fill:#808080;fill-opacity:0.47;"/></g></svg>