<?xml version="1.0" encoding="UTF-8" standalone="no"?><!DOCTYPE svg PUBLIC "-//W3C//DTD SVG 1.1//EN" "http://www.w3.org/Graphics/SVG/1.1/DTD/svg11.dtd"><svg width="100%" height="100%" viewBox="0 0 200 200" version="1.1" xmlns="http://www.w3.org/2000/svg" xmlns:xlink="http://www.w3.org/1999/xlink" xml:space="preserve" xmlns:serif="http://www.serif.com/" style="fill-rule:evenodd;clip-rule:evenodd;stroke-linejoin:round;stroke-miterlimit:2;"><path d="M50.036,138.378c-0.024,-2.218 -0.006,-10.907 -0.001,-13.079c0.017,-7.285 4.835,-14.568 14.454,-20.121c19.272,-11.127 50.564,-11.127 69.836,-0c9.618,5.552 14.436,12.833 14.454,20.117c0.006,2.173 -0.005,10.718 0,12.863c0.019,7.312 -4.799,14.628 -14.454,20.202c-19.272,11.126 -50.564,11.126 -69.836,-0c-9.558,-5.518 -14.375,-12.743 -14.453,-19.982Zm62.961,-17.202l-11.271,-6.409c5.366,0.177 10.727,0.93 16.082,2.455l-4.811,3.954Z" style="fill:#e3b500;"/><path d="M50.035,81.859l-7.069,-3.365l-3.486,5.564c0,0 10.57,42.056 10.593,42.397c0.466,6.921 5.272,13.763 14.416,19.043c19.272,11.126 50.564,11.126 69.836,-0c9.636,-5.564 14.454,-12.862 14.454,-20.16c0,-7.299 11.741,-49.32 11.741,-49.32l-1.711,-13.058l-20.515,9.285l-18.654,-30.573l-7.81,-2.262l-27.478,25.523l-22.491,-16.07l-5.681,1.616l-6.145,31.38Zm62.962,39.317l-11.271,-6.409c5.366,0.177 10.727,0.93 16.082,2.455l-4.811,3.954Z" style="fill:#e3b500;"/><path d="M101.792,114.769l-16.418,-9.453l-20.232,8.839l-17.432,-27.43l6.874,5.784l7.245,-36.062l23.674,16.653l28.027,-26.472l21.028,34.197l22.064,-9.868l-0.019,0.046l-0.118,0.032l-0.419,1.262l-10.734,25.883l-2.187,-1.697l-25.337,20.739c-5.333,-1.519 -10.672,-2.271 -16.016,-2.453Z" style="fill:#393939;fill-opacity:0.15;"/><path d="M143.145,96.483l3.881,3.012l9.459,-28.46l6.819,-1.906c-0,-0 -14.525,48.91 -14.525,56.209c0,7.298 -4.818,14.596 -14.454,20.16c-19.272,11.126 -50.564,11.126 -69.836,-0c-9.144,-5.28 -13.95,-12.122 -14.416,-19.043c-0.023,-0.341 -10.593,-42.397 -10.593,-42.397l4.782,-2.76l20.88,32.857l20.232,-8.839l27.584,15.882l30.187,-24.715Z" style="fill:#e3b500;"/><path d="M146.821,101.545l3.092,3.017l13.391,-35.433c-0,-0 -14.525,48.91 -14.525,56.209c0,7.298 -4.818,14.596 -14.454,20.16c-19.272,11.126 -50.564,11.126 -69.836,-0c-9.144,-5.28 -13.95,-12.122 -14.416,-19.043c-0.023,-0.341 -10.593,-42.397 -10.593,-42.397l21.944,36.751l22.976,-9.552l28.924,16.7l33.497,-26.412Z" style="fill:#393939;fill-opacity:0.15;"/><circle cx="115.57" cy="42.066" r="8.771" style="fill:#e3b500;"/><path d="M121.294,35.422c1.865,1.61 3.047,3.99 3.047,6.644c-0,4.841 -3.93,8.772 -8.771,8.772c-4.124,-0 -7.587,-2.853 -8.523,-6.69c1.537,1.325 3.538,2.127 5.724,2.127c4.841,0 8.772,-3.93 8.772,-8.771c-0,-0.717 -0.087,-1.414 -0.249,-2.082Z" style="fill:#393939;fill-opacity:0.15;"/><circle cx="41.29" cy="83.117" r="8.771" style="fill:#e3b500;"/><path d="M47.014,76.473c1.866,1.609 3.047,3.99 3.047,6.644c0,4.841 -3.93,8.771 -8.771,8.771c-4.124,0 -7.587,-2.852 -8.523,-6.689c1.537,1.325 3.538,2.127 5.725,2.127c4.841,-0 8.771,-3.93 8.771,-8.771c-0,-0.717 -0.086,-1.414 -0.249,-2.082Z" style="fill:#393939;fill-opacity:0.15;"/><circle cx="58.832" cy="49.991" r="8.771" style="fill:#e3b500;"/><path d="M64.556,43.347c1.866,1.609 3.048,3.99 3.048,6.644c-0,4.841 -3.931,8.771 -8.772,8.771c-4.124,0 -7.587,-2.852 -8.522,-6.69c1.537,1.326 3.537,2.128 5.724,2.128c4.841,-0 8.771,-3.931 8.771,-8.772c0,-0.717 -0.086,-1.414 -0.249,-2.081Z" style="fill:#393939;fill-opacity:0.15;"/><circle cx="158.71" cy="64.401" r="8.771" style="fill:#e3b500;"/><path d="M164.434,57.757c1.866,1.609 3.047,3.99 3.047,6.644c0,4.841 -3.93,8.771 -8.771,8.771c-4.124,0 -7.587,-2.852 -8.522,-6.69c1.536,1.326 3.537,2.128 5.724,2.128c4.841,-0 8.771,-3.931 8.771,-8.772c0,-0.716 -0.086,-1.413 -0.249,-2.081Z" style="fill:#393939;fill-opacity:0.15;"/><path d="M74.04,106.925c-0.183,1.068 -0.134,2.17 0.101,3.3l-8.998,3.93l-0.616,-0.964c2.614,-2.446 5.819,-4.513 9.513,-6.266Z" style="fill:#393939;fill-opacity:0.15;"/><path d="M89.324,102.547c13.101,-2.141 27.605,-0.214 38.864,6.162l-10.38,8.513c-5.481,-1.53 -10.843,-2.359 -16.082,-2.455l-10.262,-5.925c0.118,-2.358 -0.549,-4.471 -2.14,-6.295Z" style="fill:#393939;fill-opacity:0.15;"/><circle cx="82.696" cy="108.288" r="8.771" style="fill:#e3b500;"/><path d="M88.42,101.644c1.866,1.609 3.047,3.989 3.047,6.644c0,4.841 -3.93,8.771 -8.771,8.771c-4.124,-0 -7.587,-2.852 -8.522,-6.69c1.536,1.326 3.537,2.127 5.724,2.127c4.841,0 8.771,-3.93 8.771,-8.771c0,-0.717 -0.086,-1.414 -0.249,-2.081Z" style="fill:#393939;fill-opacity:0.15;"/><circle cx="141.168" cy="97.527" r="8.771" style="fill:#e3b500;"/><path d="M146.892,90.883c1.865,1.609 3.047,3.99 3.047,6.644c-0,4.841 -3.93,8.771 -8.771,8.771c-4.124,0 -7.588,-2.852 -8.523,-6.689c1.537,1.325 3.538,2.127 5.724,2.127c4.841,-0 8.772,-3.93 8.772,-8.771c-0,-0.717 -0.087,-1.414 -0.249,-2.082Z" style="fill:#393939;fill-opacity:0.15;"/></svg>