<?xml version="1.0" encoding="UTF-8" standalone="no"?><!DOCTYPE svg PUBLIC "-//W3C//DTD SVG 1.1//EN" "http://www.w3.org/Graphics/SVG/1.1/DTD/svg11.dtd"><svg width="100%" height="100%" viewBox="0 0 200 200" version="1.1" xmlns="http://www.w3.org/2000/svg" xmlns:xlink="http://www.w3.org/1999/xlink" xml:space="preserve" xmlns:serif="http://www.serif.com/" style="fill-rule:evenodd;clip-rule:evenodd;stroke-linejoin:round;stroke-miterlimit:2;"><g><path d="M135.014,39.482c8.486,-4.317 15.974,-4.379 21.852,-1.505c6.106,2.985 10.64,5.192 10.64,5.192l-0.061,0.108c6.372,3.409 10.337,11.07 10.337,22.082c0,20.372 -13.573,44.948 -30.836,56.613l-0.08,-27.133c7.014,-8.616 11.753,-20.035 11.753,-29.986c0,-4.304 -0.887,-7.859 -2.46,-10.55c-2.843,-0.307 -6.078,0.297 -9.533,1.912c-0.751,-5.979 -4.621,-11.852 -11.612,-16.733Z" style="fill:#FAFAFA;"/><path d="M43.957,58.02c0.154,-7.478 5.169,-14.931 15.045,-20.633c20.065,-11.584 52.646,-11.584 72.711,0c9.876,5.702 14.891,13.155 15.045,20.633l0.26,88.3c-0.478,7.232 -5.665,14.3 -15.219,19.816c-20.112,11.612 -52.771,11.612 -72.884,0c-9.553,-5.516 -14.74,-12.594 -15.217,-19.826l0.259,-88.29Z" style="fill:#FAFAFA;"/><path d="M146.866,94.839c7.014,-8.616 11.753,-20.035 11.753,-29.986c0,-4.304 -0.887,-7.859 -2.46,-10.55c6.766,0.732 11.306,6.636 11.306,16.375c0,13.717 -9.006,30.224 -20.557,38.33l-0.042,-14.169Z" style="fill:#808080;fill-opacity:0.3;"/><path d="M146.938,119.252l0.08,27.068c-0.478,7.232 -5.665,14.3 -15.219,19.816c-20.112,11.612 -52.771,11.612 -72.884,0c-9.553,-5.516 -14.74,-12.594 -15.217,-19.826l0.015,-5.279c16.143,41.771 100.246,17.449 103.225,-21.779Z" style="fill:#808080;fill-opacity:0.3;"/><path d="M60.982,66.459c-5.448,-7.741 -2.737,-16.956 8.134,-23.233c14.483,-8.361 38,-8.361 52.483,0c10.871,6.277 13.582,15.492 8.134,23.233c-1.811,-2.574 -4.522,-4.983 -8.134,-7.069c-14.483,-8.362 -38,-8.362 -52.483,0c-3.612,2.086 -6.323,4.495 -8.134,7.069Z" style="fill:#808080;fill-opacity:0.3;"/><path d="M60.982,66.459c1.811,-2.574 4.522,-4.983 8.134,-7.069c14.483,-8.362 38,-8.362 52.483,0c3.612,2.086 6.323,4.495 8.134,7.069c-1.811,2.573 -4.522,4.983 -8.134,7.068c-14.483,8.362 -38,8.362 -52.483,0c-3.612,-2.085 -6.323,-4.495 -8.134,-7.068Z" style="fill:#986b4e;"/></g></svg>
