<?xml version="1.0" encoding="UTF-8" standalone="no"?><!DOCTYPE svg PUBLIC "-//W3C//DTD SVG 1.1//EN" "http://www.w3.org/Graphics/SVG/1.1/DTD/svg11.dtd"><svg width="100%" height="100%" viewBox="0 0 200 200" version="1.1" xmlns="http://www.w3.org/2000/svg" xmlns:xlink="http://www.w3.org/1999/xlink" xml:space="preserve" xmlns:serif="http://www.serif.com/" style="fill-rule:evenodd;clip-rule:evenodd;stroke-linejoin:round;stroke-miterlimit:2;"><g><path d="M137.22,41.311c1.905,-1.485 3.864,-2.818 5.863,-3.972c9.309,-5.375 17.515,-5.687 23.849,-2.59c6.106,2.985 10.64,5.192 10.64,5.192l-0.06,0.108c6.371,3.41 10.337,11.07 10.337,22.082c-0,18.332 -10.991,40.068 -25.771,52.737c3.35,-11.467 5.217,-24.46 5.274,-38.827c0.036,-1.314 -0.034,-2.629 -0.21,-3.938c0.997,-3.551 1.543,-7.099 1.543,-10.478c0,-4.304 -0.886,-7.859 -2.46,-10.549c-2.931,-0.317 -6.278,0.335 -9.856,2.065c-2.871,-2.656 -6.305,-5.166 -10.301,-7.473c-2.788,-1.61 -5.747,-3.062 -8.848,-4.357Z" style="fill:#FAFAFA;"/><path d="M21.9,76.041c-0.302,-10.977 6.793,-22.007 21.284,-30.373c28.391,-16.392 74.492,-16.392 102.884,-0c14.491,8.366 21.585,19.396 21.284,30.373c-0.24,60.648 -32.735,96.8 -72.726,96.8c-39.991,-0 -72.486,-36.152 -72.726,-96.8Zm0.008,0.246l-0,-0.01l-0,0.01Z" style="fill:#FAFAFA;"/><path d="M167.142,72.103c0.997,-3.551 1.543,-7.099 1.543,-10.478c0,-4.304 -0.886,-7.859 -2.46,-10.549c6.766,0.732 11.306,6.635 11.306,16.374c0,9.926 -4.715,21.313 -11.698,29.919c0.968,-6.722 1.489,-13.838 1.519,-21.328c0.036,-1.313 -0.034,-2.627 -0.21,-3.938Z" style="fill:#808080;fill-opacity:0.33;"/><path d="M42.662,84.939c-5.978,-10.859 -1.512,-23.229 13.398,-31.837c21.285,-12.289 55.847,-12.289 77.132,-0c14.91,8.608 19.375,20.978 13.397,31.837c-2.557,-4.645 -7.023,-9.013 -13.397,-12.694c-21.285,-12.289 -55.847,-12.289 -77.132,0c-6.375,3.681 -10.841,8.049 -13.398,12.694Z" style="fill:#FAFAFA;"/><path d="M167.321,78.664c-1.153,59.066 -33.284,94.177 -72.695,94.177c-21.427,-0 -40.703,-10.379 -54.019,-29.346c13.308,11.589 29.552,17.773 47.079,17.773c38.83,0 71.366,-30.353 79.635,-82.604Z" style="fill:#808080;fill-opacity:0.33;"/><path d="M56.06,53.102c21.285,-12.289 55.847,-12.289 77.132,-0c21.285,12.289 21.285,32.243 -0,44.532c-21.285,12.289 -55.847,12.289 -77.132,-0c-21.285,-12.289 -21.285,-32.243 -0,-44.532Z" style="fill:#808080;fill-opacity:0.33;"/><path d="M42.662,84.939c2.557,-4.645 7.023,-9.013 13.398,-12.694c21.285,-12.289 55.847,-12.289 77.132,0c6.374,3.681 10.84,8.049 13.397,12.694c-2.557,4.646 -7.023,9.014 -13.397,12.695c-21.285,12.289 -55.847,12.289 -77.132,-0c-6.375,-3.681 -10.841,-8.049 -13.398,-12.695Z" style="fill:#926348;"/></g></svg>
