<?xml version="1.0" encoding="UTF-8" standalone="no"?><!DOCTYPE svg PUBLIC "-//W3C//DTD SVG 1.1//EN" "http://www.w3.org/Graphics/SVG/1.1/DTD/svg11.dtd"><svg width="100%" height="100%" viewBox="0 0 200 200" version="1.1" xmlns="http://www.w3.org/2000/svg" xmlns:xlink="http://www.w3.org/1999/xlink" xml:space="preserve" xmlns:serif="http://www.serif.com/" style="fill-rule:evenodd;clip-rule:evenodd;stroke-linejoin:round;stroke-miterlimit:2;"><path d="M149.457,61.773c0.03,3.908 0.062,8.356 0.096,13.138c0.225,31.979 0.518,78.921 0.436,79.486c-0.104,0.717 -0.631,1.417 -1.58,1.965c-2.131,1.231 -5.592,1.231 -7.723,0c-1.008,-0.581 -1.548,-1.499 -1.594,-2.262c-0.035,-0.578 -0.369,-57.043 -0.583,-86.006l10.948,-6.321Z" style="fill:#4c392b;"/><path d="M100,90.328l5.277,-3.047c0.056,6.989 0.123,15.428 0.191,24.331c0.24,31.04 0.504,67.725 0.42,68.304c-0.116,0.807 -0.709,1.596 -1.778,2.213c-2.4,1.386 -6.298,1.386 -8.698,-0c-1.134,-0.655 -1.743,-1.688 -1.795,-2.547c-0.043,-0.724 -0.502,-62.346 -0.73,-93.361l7.113,4.107Z" style="fill:#4c392b;"/><path d="M50.004,61.463l11.058,6.383c0.224,29.807 0.484,85.962 0.399,86.551c-0.104,0.717 -0.63,1.417 -1.579,1.965c-2.132,1.231 -5.593,1.231 -7.724,0c-1.007,-0.581 -1.548,-1.499 -1.594,-2.262c-0.037,-0.614 -0.363,-61.23 -0.56,-92.637Z" style="fill:#4c392b;"/><path d="M45.964,48.03l-0,11.1l54.036,31.198l54.036,-31.198l0,-11.1l-54.036,-31.198l-54.036,31.198Z" style="fill:#63432a;"/><g><path d="M154.036,59.13l0,-11.1l-54.036,31.197l-54.036,-31.197l-0,11.1l54.036,31.198l54.036,-31.198Z" style="fill-opacity:0.09;"/><path d="M55.735,64.771l5.278,3.048c0.227,30.511 0.531,86.003 0.448,86.578c-0.104,0.717 -0.63,1.417 -1.579,1.965c-0.584,0.337 -1.267,0.582 -1.995,0.734c-0.369,-0.153 -0.715,-0.392 -1.011,-0.718c-0.53,-0.582 -0.814,-1.499 -0.838,-2.262c-0.018,-0.573 -0.19,-58.381 -0.303,-89.345Z" style="fill-opacity:0.09;"/><path d="M148.999,46.25c-4.157,-2.139 -8.144,-0.598 -12.411,-2.297c-11.87,-4.728 -23.456,-10.25 -28.476,-7.238c-4.541,2.726 6.069,9.414 12.254,15.76c3.055,3.134 -0.835,5.575 3.397,8.617c-0.32,-0.164 -0.637,-0.339 -0.953,-0.529c-7.178,-4.308 -2.614,-6.816 -7.196,-10.94c-8.786,-7.907 -22.771,-16.62 -18.229,-19.345c5.02,-3.013 19.831,4.444 34.764,11.011c5.623,2.473 9.974,0.808 15.703,4.247c0.411,0.247 0.793,0.484 1.147,0.714Z" style="fill-opacity:0.09;"/><path d="M105.156,87.351c-0.084,8.447 -0.446,22.556 -0.371,32.275c0.213,27.563 0.447,60.14 0.373,60.654c-0.104,0.717 -0.63,1.417 -1.579,1.965c-0.584,0.337 -1.267,0.582 -1.995,0.734c-0.369,-0.153 -0.715,-0.393 -1.011,-0.718c-0.53,-0.582 -0.814,-1.499 -0.838,-2.262c-0.021,-0.646 -0.237,-61.76 -0.343,-90.023l0.608,0.352l5.156,-2.977Z" style="fill-opacity:0.09;"/><path d="M149.362,61.829c0.246,31.024 0.717,91.943 0.627,92.568c-0.104,0.717 -0.631,1.417 -1.58,1.965c-0.584,0.338 -1.268,0.582 -1.996,0.735c-0.369,-0.154 -0.715,-0.393 -1.012,-0.719c-0.53,-0.582 -0.814,-1.499 -0.839,-2.262c-0.017,-0.566 -0.268,-59.615 -0.384,-89.294l5.184,-2.993Z" style="fill-opacity:0.09;"/><path d="M63.283,38.03c7.152,4.664 13.967,9.142 20.276,13.347c0.73,0.486 2.17,1.449 2.17,1.449c28.065,23.818 15.148,20.002 -11.502,6.926c0,0 -2.157,-1.196 -3.25,-1.803l-20.691,-11.585l-0.288,-0.194c0.031,-0.177 0.065,-0.353 0.102,-0.528l3.568,-2.06c0.676,0.341 1.33,0.669 1.817,0.91c0.311,0.154 0.619,0.306 0.924,0.455c3.616,1.775 6.819,3.255 9.508,4.366c1.191,0.492 2.281,0.912 3.263,1.252c0.712,0.247 1.367,0.453 1.96,0.615c1.761,0.478 2.985,0.569 3.588,0.206c2.08,-1.252 -2.825,-6.025 -12.046,-13.009l0.601,-0.347Z" style="fill-opacity:0.09;"/><path d="M125.37,64.58c-3.334,-0.916 -6.746,-2.219 -10.295,-4.349c-0.228,-0.136 -0.45,-0.272 -0.666,-0.406c4.258,2.431 8.616,3.141 12.937,3.614l-1.976,1.141Zm-43.357,-37.363c5.559,5.098 14.736,11.57 21.666,17.655c5.475,4.807 1.873,7.861 7.028,12.377c-7.122,-5.696 -3.751,-8.889 -11.318,-14.952c-5.846,-4.683 -12.695,-9.611 -18.905,-14.198l1.529,-0.882Zm52.117,9.32c-2.877,-0.408 -5.79,-0.858 -9.066,-2.325c-10.953,-4.907 -31.445,-13.696 -31.445,-13.696l1.843,-1.064c-0,-0 17.985,8.732 25.873,12.522c4.12,1.98 7.572,2.775 10.967,3.507l1.828,1.056Z" style="fill-opacity:0.09;"/></g></svg>