<?xml version="1.0" encoding="UTF-8" standalone="no"?><!DOCTYPE svg PUBLIC "-//W3C//DTD SVG 1.1//EN" "http://www.w3.org/Graphics/SVG/1.1/DTD/svg11.dtd"><svg width="100%" height="100%" viewBox="0 0 200 200" version="1.1" xmlns="http://www.w3.org/2000/svg" xmlns:xlink="http://www.w3.org/1999/xlink" xml:space="preserve" xmlns:serif="http://www.serif.com/" style="fill-rule:evenodd;clip-rule:evenodd;stroke-linejoin:round;stroke-miterlimit:2;"><path d="M55.564,45.264l0,9.128l44.436,25.655l44.436,-25.655l-0,-9.128l-44.436,-25.655l-44.436,25.655Z" style="fill:#63432a;"/><path d="M71.934,154.45c-0,-0 -4.721,7.012 -4.721,7.012l32.787,18.929l32.787,-18.929l-4.721,-7.012l-28.066,-16.205l-28.066,16.205Z" style="fill:#63432a;"/><path d="M128.066,154.45l-28.066,16.204l-28.066,-16.204c-0,-0 -4.721,7.012 -4.721,7.012l32.787,18.929l32.787,-18.929l-4.721,-7.012Z" style="fill:#292929;fill-opacity:0.32;"/><path d="M144.436,54.392l-0,-9.128l-44.436,25.654l-44.436,-25.654l0,9.128l44.436,25.655l44.436,-25.655Z" style="fill:#292929;fill-opacity:0.32;"/><path d="M140.293,43.8c-3.418,-1.759 -6.697,-0.491 -10.206,-1.889c-9.761,-3.888 -19.288,-8.429 -23.416,-5.952c-3.735,2.242 4.99,7.741 10.077,12.96c2.512,2.578 -0.687,4.584 2.793,7.086c-0.263,-0.134 -0.524,-0.279 -0.783,-0.435c-5.904,-3.542 -2.15,-5.605 -5.918,-8.996c-7.225,-6.502 -18.725,-13.667 -14.99,-15.908c4.128,-2.478 16.307,3.655 28.587,9.055c4.624,2.033 8.202,0.664 12.913,3.492c0.339,0.203 0.652,0.398 0.943,0.587Z" style="fill:#292929;fill-opacity:0.32;"/><path d="M104.24,77.599c-0.069,6.946 -0.367,18.548 -0.305,26.541c0.175,22.666 0.368,49.455 0.307,49.877c-0.086,0.59 -0.519,1.166 -1.299,1.616c-0.48,0.277 -1.042,0.479 -1.641,0.604c-0.303,-0.126 -0.587,-0.323 -0.831,-0.591c-0.436,-0.478 -0.669,-1.233 -0.689,-1.86c-0.017,-0.531 -0.195,-50.787 -0.282,-74.028l0.5,0.289l4.24,-2.448Z" style="fill:#292929;fill-opacity:0.32;"/><path d="M69.807,37.041c5.881,3.835 11.485,7.517 16.673,10.975c0.6,0.4 1.785,1.192 1.785,1.192c23.078,19.586 12.456,16.448 -9.459,5.695c0,0 -1.773,-0.983 -2.672,-1.483l-17.015,-9.526l-0.237,-0.16c0.026,-0.145 0.054,-0.29 0.084,-0.434l2.933,-1.694c0.556,0.28 1.094,0.55 1.495,0.748c0.256,0.127 0.509,0.252 0.76,0.375c2.974,1.459 5.607,2.676 7.818,3.59c0.98,0.405 1.877,0.75 2.683,1.03c0.586,0.203 1.125,0.372 1.613,0.505c1.448,0.394 2.455,0.468 2.95,0.17c1.71,-1.03 -2.323,-4.955 -9.906,-10.698l0.495,-0.285Z" style="fill:#292929;fill-opacity:0.32;"/><path d="M120.862,58.874c-2.741,-0.754 -5.547,-1.825 -8.465,-3.577c-0.188,-0.112 -0.37,-0.223 -0.548,-0.334c3.502,1.999 7.085,2.583 10.638,2.972l-1.625,0.939Zm-35.653,-30.726c4.571,4.193 12.117,9.515 17.816,14.519c4.502,3.953 1.541,6.465 5.78,10.178c-5.857,-4.684 -3.085,-7.309 -9.307,-12.295c-4.807,-3.852 -10.44,-7.904 -15.547,-11.676l1.258,-0.726Zm42.857,7.665c-2.366,-0.335 -4.761,-0.705 -7.455,-1.912c-9.007,-4.036 -25.859,-11.263 -25.859,-11.263l1.516,-0.875c0,0 14.79,7.181 21.277,10.298c3.388,1.628 6.226,2.282 9.018,2.884l1.503,0.868Z" style="fill:#292929;fill-opacity:0.32;"/><path d="M100,80.047l4.34,-2.506c0.046,5.748 0.1,12.687 0.157,20.009c0.197,25.524 0.414,55.692 0.345,56.168c-0.096,0.664 -0.583,1.312 -1.462,1.82c-1.974,1.139 -5.179,1.139 -7.153,-0c-0.933,-0.539 -1.433,-1.388 -1.476,-2.095c-0.035,-0.595 -0.413,-51.269 -0.601,-76.774l5.85,3.378Z" style="fill:#4c392b;"/></svg>