<?xml version="1.0" encoding="UTF-8" standalone="no"?><!DOCTYPE svg PUBLIC "-//W3C//DTD SVG 1.1//EN" "http://www.w3.org/Graphics/SVG/1.1/DTD/svg11.dtd"><svg width="100%" height="100%" viewBox="0 0 200 200" version="1.1" xmlns="http://www.w3.org/2000/svg" xmlns:xlink="http://www.w3.org/1999/xlink" xml:space="preserve" xmlns:serif="http://www.serif.com/" style="fill-rule:evenodd;clip-rule:evenodd;stroke-linejoin:round;stroke-miterlimit:2;"><path d="M49.757,53.017c-0.738,-7.857 4.019,-15.804 14.305,-21.742c19.418,-11.211 51.233,-11.046 71.003,0.368c10.626,6.135 15.623,14.279 14.956,22.243l0.048,0c-0,0 0.205,4.047 -0.063,12.086c-0.228,6.816 -5.401,13.435 -14.304,18.575c-19.418,11.211 -51.234,11.046 -71.003,-0.368c-9.885,-5.707 -14.899,-13.153 -15.014,-20.573c-0.115,-7.42 0.012,-10.589 0.012,-10.589l0.06,0Z" style="fill:#654c39;"/><path d="M93.686,92.56c3.664,0.299 7.367,0.365 11.038,0.2c0.058,7.089 0.144,17.842 0.233,29.487c0.214,27.678 0.45,60.391 0.375,60.907c-0.104,0.72 -0.633,1.423 -1.586,1.973c-2.14,1.236 -5.616,1.236 -7.756,-0c-1.011,-0.584 -1.554,-1.505 -1.6,-2.272c-0.043,-0.706 -0.529,-66.472 -0.704,-90.295Z" style="fill:#4c392b;"/><path d="M49.798,65.315c0.684,5.845 4.411,11.621 11.167,16.464c0.23,29.088 0.576,74.773 0.488,75.384c-0.104,0.72 -0.633,1.423 -1.586,1.973c-2.14,1.236 -5.616,1.236 -7.756,0c-1.011,-0.584 -1.554,-1.505 -1.6,-2.271c-0.044,-0.719 -0.547,-68.872 -0.713,-91.55Z" style="fill:#4c392b;"/><path d="M149.753,68.209c0.202,25.016 0.701,88.235 0.596,88.954c-0.104,0.72 -0.633,1.423 -1.586,1.973c-2.14,1.236 -5.615,1.236 -7.755,0c-1.012,-0.584 -1.554,-1.505 -1.601,-2.271c-0.035,-0.581 -0.37,-45.22 -0.585,-74.284c6.108,-4.207 9.935,-9.19 10.931,-14.372Z" style="fill:#4c392b;"/><path d="M49.757,53.017c0.656,6.977 5.644,13.884 14.942,19.252c19.769,11.413 51.585,11.578 71.003,0.367c8.98,-5.185 13.747,-11.901 14.319,-18.75l0.048,0c-0,0 0.205,4.047 -0.063,12.086c-0.228,6.816 -5.401,13.435 -14.304,18.575c-19.418,11.211 -51.234,11.046 -71.003,-0.368c-9.885,-5.707 -14.899,-13.153 -15.014,-20.573c-0.115,-7.42 0.012,-10.589 0.012,-10.589l0.06,0Z" style="fill-opacity:0.25;"/><path d="M149.741,68.659c0.216,26.9 0.708,87.816 0.608,88.504c-0.104,0.72 -0.633,1.423 -1.586,1.973c-0.586,0.339 -1.273,0.584 -2.004,0.737c-0.371,-0.153 -0.718,-0.394 -1.017,-0.721c-0.532,-0.584 -0.817,-1.506 -0.841,-2.272c-0.019,-0.581 -0.195,-50.065 -0.308,-79.129c2.503,-3.278 4.239,-5.145 5.148,-9.092Z" style="fill:#343434;fill-opacity:0.22;"/><path d="M104.725,92.819c0.057,7.09 0.143,17.816 0.232,29.428c0.214,27.678 0.45,60.391 0.375,60.907c-0.104,0.72 -0.633,1.423 -1.586,1.973c-0.586,0.338 -1.272,0.584 -2.003,0.737c-0.371,-0.154 -0.718,-0.395 -1.016,-0.722c-0.531,-0.584 -0.817,-1.505 -0.841,-2.271c-0.022,-0.703 -0.276,-65.987 -0.369,-90.032c0.872,0.013 1.743,0.012 2.613,-0.001c0.865,0.04 1.731,0.034 2.595,-0.019Z" style="fill:#343434;fill-opacity:0.22;"/><path d="M55.678,77.165c1.486,1.607 3.249,3.153 5.287,4.614c0.23,29.088 0.576,74.773 0.488,75.384c-0.104,0.72 -0.633,1.423 -1.586,1.973c-0.586,0.338 -1.272,0.584 -2.003,0.737c-0.371,-0.154 -0.718,-0.394 -1.015,-0.721c-0.532,-0.584 -0.817,-1.506 -0.842,-2.272c-0.019,-0.618 -0.218,-51.169 -0.329,-79.715Z" style="fill:#343434;fill-opacity:0.22;"/><path d="M82.914,42.259c-2.335,-1.348 -2.728,-1.048 -4.71,-2.055c-3.8,-1.929 -8.463,-4.589 -8.937,-4.315c-0.524,0.303 3.78,2.931 7.779,5.481c1.506,0.96 1.391,1.322 3.254,2.398c2.737,1.581 2.698,1.188 4.905,2.278c3.285,1.621 8.31,4.341 8.741,4.092c0.494,-0.285 -3.574,-2.549 -7.166,-4.879c-1.659,-1.077 -1.714,-1.758 -3.866,-3Z" style="fill:#343434;fill-opacity:0.22;"/><path d="M75.17,76.936c-0.233,-0.278 -0.534,-0.571 -1,-0.9c-4.74,-3.349 -9.97,-6.735 -8.636,-7.505c1.207,-0.697 7.084,2.614 12.14,4.859c2.637,1.171 3.721,0.455 6.645,2.143c2.696,1.557 2.037,2.829 3.982,4.255c0.142,0.104 0.285,0.207 0.43,0.311c-4.696,-0.663 -9.269,-1.717 -13.561,-3.163Z" style="fill:#343434;fill-opacity:0.22;"/><path d="M57.129,36.305c9.437,6.132 18.393,11.996 26.514,17.408c0.733,0.489 2.179,1.455 2.179,1.455c28.182,23.917 15.211,20.085 -11.55,6.955c0,0 -2.166,-1.201 -3.263,-1.811l-20.777,-11.633l-0.29,-0.195c0.231,-1.305 0.615,-2.602 1.152,-3.88c1.106,0.561 3.202,1.623 4.358,2.195c0.312,0.155 0.622,0.307 0.928,0.458c3.631,1.782 6.847,3.268 9.547,4.383c1.196,0.495 2.291,0.916 3.277,1.258c0.715,0.248 1.372,0.455 1.969,0.617c1.767,0.481 2.997,0.572 3.602,0.207c2.484,-1.496 -4.952,-7.99 -17.8,-17.273l0.063,-0.059l0.091,-0.085Zm-1.237,1.212c1.086,0.714 1.829,1.28 2.059,1.539c-0.636,-0.411 -1.427,-0.84 -2.316,-1.269c0.084,-0.09 0.17,-0.18 0.257,-0.27Z" style="fill:#343434;fill-opacity:0.22;"/><path d="M139.903,69.876c-7.952,-1.775 -15.867,-2.023 -24.613,-7.272c-0.228,-0.137 -0.451,-0.273 -0.669,-0.408c8.96,5.115 18.354,2.645 26.929,6.289l0.063,0.026c-0.544,0.463 -1.113,0.918 -1.71,1.365Zm-61.507,-44.344c3.964,5.386 16.552,13.835 25.451,21.649c5.497,4.827 1.881,7.894 7.057,12.428c-7.151,-5.719 -3.767,-8.925 -11.365,-15.013c-7.579,-6.073 -16.838,-12.554 -24.226,-18.178c1.013,-0.317 2.042,-0.613 3.083,-0.886Zm68.966,17.483l0.006,0.012l-0.23,-0.143l0.224,0.131Zm-49.037,-20.039c7.391,3.514 15.33,7.448 23.252,11.254c8.033,3.859 13.537,3.236 21.003,6.37c-5.964,-2.233 -10.939,-1.292 -17.26,-4.124c-10.998,-4.927 -21.967,-10.201 -30.747,-13.391c1.248,-0.064 2.5,-0.1 3.752,-0.109Z" style="fill:#343434;fill-opacity:0.22;"/><path d="M142.957,67.303c-3.107,-1.17 -6.407,-1.304 -9.73,-1.602c3.022,0.028 6.058,-0.103 8.655,0.857c0.447,0.164 0.889,0.332 1.327,0.503c-0.083,0.08 -0.167,0.161 -0.252,0.242Zm6.398,-18.739c-4.173,-2.147 -8.178,-0.599 -12.462,-2.306c-11.919,-4.748 -23.553,-10.293 -28.594,-7.268c-4.561,2.737 6.094,9.453 12.305,15.826c3.067,3.147 -0.839,5.598 3.41,8.652c-0.321,-0.164 -0.639,-0.34 -0.956,-0.53c-7.209,-4.326 -2.625,-6.845 -7.227,-10.986c-8.822,-7.94 -22.865,-16.689 -18.304,-19.426c5.04,-3.025 19.913,4.463 34.908,11.057c5.647,2.483 10.016,0.812 15.769,4.264c0.413,0.248 0.796,0.487 1.151,0.717Z" style="fill:#343434;fill-opacity:0.22;"/></svg>