<?xml version="1.0" encoding="UTF-8" standalone="no"?><!DOCTYPE svg PUBLIC "-//W3C//DTD SVG 1.1//EN" "http://www.w3.org/Graphics/SVG/1.1/DTD/svg11.dtd"><svg width="100%" height="100%" viewBox="0 0 200 200" version="1.1" xmlns="http://www.w3.org/2000/svg" xmlns:xlink="http://www.w3.org/1999/xlink" xml:space="preserve" xmlns:serif="http://www.serif.com/" style="fill-rule:evenodd;clip-rule:evenodd;stroke-linejoin:round;stroke-miterlimit:2;"><path d="M110.262,90.087c0.429,-0.974 0.925,-2.358 3.889,-2.542c1.711,-0.106 4.987,1.456 4.987,1.456c-0,0 -2.642,-2.131 2.812,-2.908c4.528,-0.645 9.903,2.66 9.903,2.66c-0,-0 -1.532,-1.842 1.514,-2.348c4.905,-0.814 6.827,1.523 8.865,3.006c10.217,7.43 22.53,16.913 14.399,20.758c-8.131,3.845 -13.233,0.748 -23.759,-6.538c-10.527,-7.287 -24.701,-8.798 -22.61,-13.544Z" style="fill:#202020;fill-opacity:0.67;"/><path d="M36.066,45.757c0.429,-0.974 0.926,-2.358 3.889,-2.542c1.711,-0.106 4.987,1.456 4.987,1.456c0,0 -2.642,-2.131 2.812,-2.908c4.528,-0.645 9.903,2.66 9.903,2.66c-0,-0 -1.532,-1.842 1.514,-2.348c4.905,-0.814 6.827,1.523 8.865,3.006c10.217,7.43 22.53,16.913 14.399,20.758c-8.131,3.845 -13.233,0.748 -23.759,-6.538c-10.527,-7.287 -24.7,-8.798 -22.61,-13.544Z" style="fill:#202020;fill-opacity:0.67;"/><path d="M48.884,90.591c-1.688,0.248 -4.084,0.535 -4.403,2.246c-0.184,0.988 2.522,2.879 2.522,2.879c-0,-0 -3.692,-1.525 -5.037,1.624c-1.117,2.614 4.606,5.717 4.606,5.717c0,-0 -3.189,-0.885 -4.065,0.874c-1.41,2.832 2.637,3.941 5.205,5.118c12.869,5.899 29.294,13.008 35.954,8.313c6.66,-4.694 1.297,-7.64 -11.324,-13.717c-12.621,-6.077 -15.238,-14.261 -23.458,-13.054Z" style="fill:#202020;fill-opacity:0.67;"/><path d="M131.532,138.292c-1.658,0.398 -4.019,0.897 -4.184,2.63c-0.095,1.001 2.769,2.642 2.769,2.642c0,0 -3.813,-1.189 -4.872,2.068c-0.878,2.703 5.099,5.282 5.099,5.282c0,0 -3.256,-0.596 -3.971,1.234c-1.151,2.947 2.98,3.69 5.642,4.633c13.345,4.725 30.34,10.337 36.553,5.066c6.214,-5.271 0.609,-7.726 -12.504,-12.65c-13.114,-4.925 -16.453,-12.842 -24.532,-10.905Z" style="fill:#202020;fill-opacity:0.67;"/></svg>