<?xml version="1.0" encoding="UTF-8" standalone="no"?><!DOCTYPE svg PUBLIC "-//W3C//DTD SVG 1.1//EN" "http://www.w3.org/Graphics/SVG/1.1/DTD/svg11.dtd"><svg width="100%" height="100%" viewBox="0 0 200 200" version="1.1" xmlns="http://www.w3.org/2000/svg" xmlns:xlink="http://www.w3.org/1999/xlink" xml:space="preserve" xmlns:serif="http://www.serif.com/" style="fill-rule:evenodd;clip-rule:evenodd;stroke-linejoin:round;stroke-miterlimit:2;"><path d="M71.895,91.553c1.163,-1.644 1.96,-1.713 4.21,-1.461c1.298,0.146 3.4,3.164 3.4,3.164c-0,-0 -1.324,-5.28 3.203,-5.592c3.759,-0.26 5.449,3.309 5.449,3.309c0,0 -0.144,-2.85 2.448,-3.152c4.174,-0.487 4.276,5.75 4.401,8.779c0.623,15.181 0.906,34.415 -8.221,39.649c-9.126,5.234 -9.98,-1.257 -10.948,-16.244c-0.968,-14.987 -9.612,-20.439 -3.942,-28.452Z" style="fill:#dfc55d;"/><path d="M57.51,52.755c-0.047,-0.683 0.084,-1.421 0.422,-2.214c1.053,-2.465 18.703,-4.755 29.069,-3.43c7.876,1.007 23.533,14.415 21.954,19.473c-0.051,0.162 -0.102,0.318 -0.154,0.468c-0.029,0.109 -0.067,0.215 -0.112,0.319l-0.016,0.035c-0.129,0.341 -0.266,0.649 -0.417,0.926c-2.904,6.265 -4.829,6.18 -16.496,3.455c-9.142,-2.135 -28.201,-10.557 -32.665,-14.233c-1.562,-1.287 -2.26,-2.901 -1.585,-4.799Z" style="fill:#dfc55d;"/><path d="M52.922,103.341c-1.655,-0.564 -3.936,-1.454 -6.015,0.683c-1.2,1.233 -0.976,5.223 -0.976,5.223c0,0 -1.426,-4.022 -5.878,-0.493c-3.695,2.929 -2.268,10.158 -2.268,10.158c-0,-0 -1.692,-2.89 -4.281,-0.986c-4.169,3.066 -2.008,6.717 -1.139,9.67c4.354,14.802 10.356,33.128 20.832,30.346c10.476,-2.781 9.178,-9.607 5.219,-24.517c-3.96,-14.911 2.567,-27.334 -5.494,-30.084Z" style="fill:#dfc55d;"/><path d="M108.315,68.204c-2.937,6.394 -4.809,6.326 -16.555,3.583c-9.142,-2.135 -28.201,-10.557 -32.665,-14.233c-1.555,-1.281 -2.253,-2.886 -1.594,-4.772c0.099,1.316 0.864,2.426 2.086,3.323c4.691,3.444 22.633,10.445 31.834,12.231c12.333,2.394 15.342,2.902 16.894,-0.132Zm0.511,-1.252c-0.032,0.144 -0.078,0.284 -0.137,0.419c-0.032,0.072 -0.063,0.143 -0.094,0.213c0.08,-0.199 0.156,-0.409 0.231,-0.632Z" style="fill:#6b6b6b;fill-opacity:0.13;"/><path d="M108.315,68.204c-2.937,6.394 -4.809,6.326 -16.555,3.583c-9.142,-2.135 -28.201,-10.557 -32.665,-14.233c-1.555,-1.281 -2.253,-2.886 -1.594,-4.772c0.099,1.316 0.864,2.426 2.086,3.323c4.691,3.444 22.633,10.445 31.834,12.231c12.333,2.394 15.342,2.902 16.894,-0.132Zm0.511,-1.252c-0.032,0.144 -0.078,0.284 -0.137,0.419c-0.032,0.072 -0.063,0.143 -0.094,0.213c0.08,-0.199 0.156,-0.409 0.231,-0.632Z" style="fill:#6b6b6b;fill-opacity:0.13;"/><path d="M31.36,120.514c-0.952,2.4 0.371,4.926 1.005,7.082c4.354,14.802 10.356,33.128 20.832,30.346c7.634,-2.027 9.016,-6.201 7.671,-14.088c-0.216,4.517 -2.437,7.208 -8.107,8.713c-10.476,2.782 -16.479,-15.544 -20.833,-30.346c-0.161,-0.548 -0.366,-1.119 -0.568,-1.707Zm25.425,-12.853c0.941,3.672 0.056,9.171 0.249,15.666c-0.831,-5.964 -0.307,-11.36 -0.249,-15.666Z" style="fill:#6b6b6b;fill-opacity:0.13;"/><path d="M31.36,120.514c-0.952,2.4 0.371,4.926 1.005,7.082c4.354,14.802 10.356,33.128 20.832,30.346c7.634,-2.027 9.016,-6.201 7.671,-14.088c-0.216,4.517 -2.437,7.208 -8.107,8.713c-10.476,2.782 -16.479,-15.544 -20.833,-30.346c-0.161,-0.548 -0.366,-1.119 -0.568,-1.707Zm25.425,-12.853c0.941,3.672 0.056,9.171 0.249,15.666c-0.831,-5.964 -0.307,-11.36 -0.249,-15.666Z" style="fill:#6b6b6b;fill-opacity:0.13;"/><path d="M70.378,95.45c-0.952,2.399 0.37,4.926 1.004,7.081c4.354,14.802 10.357,33.128 20.832,30.347c7.634,-2.027 5.234,-6.881 -0.436,-5.375c-10.476,2.781 -16.478,-15.545 -20.833,-30.347c-0.161,-0.548 -0.366,-1.119 -0.567,-1.706Z" style="fill:#6b6b6b;fill-opacity:0.13;"/><path d="M70.378,95.45c-0.952,2.399 0.37,4.926 1.004,7.081c4.354,14.802 10.357,33.128 20.832,30.347c7.634,-2.027 5.234,-6.881 -0.436,-5.375c-10.476,2.781 -16.478,-15.545 -20.833,-30.347c-0.161,-0.548 -0.366,-1.119 -0.567,-1.706Z" style="fill:#6b6b6b;fill-opacity:0.13;"/><path d="M105.454,72.405c-8.975,0.1 -58.853,51.543 -58.853,69.839c-0,11.689 15.742,42.783 22.635,41.992c3.968,-0.455 11.688,-15.695 11.688,-15.695c-1.764,1.57 15.019,9.846 22.387,8.349c19.559,-3.973 37.183,-17.506 51.899,-24.248c14.145,-6.48 4.926,-28.398 -6.495,-45.06c-9.56,-13.946 -24.967,-35.381 -43.261,-35.177Z" style="fill:#f3f3f3;"/><path d="M133.907,99.435c16.358,18.999 15.586,52.724 9.634,57.75c0,0 9.752,-19.605 2.545,-40.064c-4.184,-11.877 -12.179,-17.686 -12.179,-17.686Z" style="fill:#6b6b6b;fill-opacity:0.13;"/><path d="M96.501,110.895c0.513,-12.669 -15.008,48.921 -42.824,50.252c-2.219,0.807 9.415,22.318 14.778,23.035c3.901,0.521 8.143,-7.158 12.452,-15.404c6.292,-12.037 14.883,-40.314 15.594,-57.883Z" style="fill:#6b6b6b;fill-opacity:0.13;"/><path d="M107.908,16.949c8.975,0.1 29.422,13.418 29.422,31.714c0,18.295 -15.086,31.981 -33.382,31.981c-18.296,0 -31.183,-14.159 -31.183,-32.455c0,-18.296 16.848,-31.443 35.143,-31.24Z" style="fill:#f3f3f3;"/><path d="M128.755,28.725c4.91,5.337 8.575,12.191 8.575,19.938c0,18.295 -15.086,31.981 -33.382,31.981c-10.518,0 -19.249,-4.68 -24.772,-12.136c5.507,5.815 13.296,9.348 22.435,9.348c18.296,0 33.382,-13.686 33.382,-31.981c0,-6.457 -2.546,-12.294 -6.238,-17.15Z" style="fill:#727070;fill-opacity:0.17;"/><path d="M152.995,137.087c-0.645,-1.636 -6.901,-0.123 -7.379,1.993c-0.295,1.311 0.91,-3.962 0.425,-6.742c-0.369,-2.116 -1.072,-3.599 -1.552,-3.118c-1.724,1.726 -5.339,7.102 -10.444,4.631l-20.655,24.874l23.458,3.726c14.9,-6.59 12.859,-18.673 16.147,-25.364Z" style="fill:#f3f3f3;"/><path d="M152.995,137.087c-0.645,-1.636 -6.901,-0.123 -7.379,1.993c-0.295,1.311 0.91,-3.962 0.425,-6.742c-0.369,-2.116 -1.072,-3.599 -1.552,-3.118c-1.724,1.726 -5.339,7.102 -10.444,4.631c1.421,1.586 1.487,4.181 9.602,0.78c0.941,1.922 0.343,5.42 -0.954,9.633c2.018,-1.156 6.236,-6.629 8.413,-5.145c-5.065,13.354 -6.836,18.899 -14.258,23.332c14.9,-6.59 12.859,-18.673 16.147,-25.364Z" style="fill:#6b6b6b;fill-opacity:0.13;"/></svg>