<?xml version="1.0" encoding="UTF-8" standalone="no"?><!DOCTYPE svg PUBLIC "-//W3C//DTD SVG 1.1//EN" "http://www.w3.org/Graphics/SVG/1.1/DTD/svg11.dtd"><svg width="100%" height="100%" viewBox="0 0 200 200" version="1.1" xmlns="http://www.w3.org/2000/svg" xmlns:xlink="http://www.w3.org/1999/xlink" xml:space="preserve" xmlns:serif="http://www.serif.com/" style="fill-rule:evenodd;clip-rule:evenodd;stroke-linejoin:round;stroke-miterlimit:2;"><path d="M72.832,93.606c1.179,-1.667 1.986,-1.736 4.266,-1.48c1.316,0.147 3.445,3.205 3.445,3.205c-0,-0 -1.342,-5.35 3.245,-5.666c3.808,-0.263 5.521,3.353 5.521,3.353c0,-0 -0.146,-2.888 2.48,-3.194c4.229,-0.493 4.332,5.826 4.458,8.895c0.632,15.381 0.918,34.868 -8.328,40.171c-9.246,5.303 -10.112,-1.274 -11.092,-16.458c-0.981,-15.184 -9.739,-20.708 -3.995,-28.826Z" style="fill:#dfc55d;"/><path d="M58.258,54.297c-0.048,-0.692 0.085,-1.44 0.428,-2.243c1.067,-2.497 18.949,-4.818 29.451,-3.475c7.98,1.02 23.843,14.605 22.243,19.729c-0.051,0.164 -0.103,0.322 -0.155,0.474c-0.03,0.11 -0.068,0.218 -0.114,0.324l-0.016,0.035c-0.131,0.345 -0.27,0.657 -0.422,0.938c-2.943,6.347 -4.893,6.261 -16.714,3.5c-9.262,-2.163 -28.572,-10.695 -33.094,-14.42c-1.584,-1.304 -2.29,-2.939 -1.607,-4.862Z" style="fill:#dfc55d;"/><path d="M53.61,105.549c-1.677,-0.572 -3.988,-1.473 -6.094,0.691c-1.216,1.25 -0.989,5.292 -0.989,5.292c0,0 -1.445,-4.074 -5.955,-0.499c-3.744,2.967 -2.298,10.291 -2.298,10.291c-0,0 -1.715,-2.928 -4.338,-0.999c-4.224,3.107 -2.034,6.805 -1.154,9.797c4.412,14.997 10.493,33.565 21.107,30.746c10.613,-2.818 9.299,-9.733 5.287,-24.84c-4.011,-15.107 2.601,-27.694 -5.566,-30.479Z" style="fill:#dfc55d;"/><path d="M109.732,69.95c-2.976,6.477 -4.873,6.409 -16.773,3.629c-9.262,-2.163 -28.572,-10.695 -33.094,-14.42c-1.576,-1.298 -2.284,-2.924 -1.616,-4.835c0.1,1.334 0.875,2.458 2.114,3.367c4.752,3.489 22.93,10.582 32.252,12.392c12.496,2.426 15.545,2.94 17.117,-0.133Zm0.518,-1.269c-0.033,0.146 -0.079,0.287 -0.139,0.425c-0.032,0.072 -0.064,0.144 -0.095,0.215c0.08,-0.201 0.158,-0.415 0.234,-0.64Z" style="fill:#727070;fill-opacity:0.13;"/><path d="M109.732,69.95c-2.976,6.477 -4.873,6.409 -16.773,3.629c-9.262,-2.163 -28.572,-10.695 -33.094,-14.42c-1.576,-1.298 -2.284,-2.924 -1.616,-4.835c0.1,1.334 0.875,2.458 2.114,3.367c4.752,3.489 22.93,10.582 32.252,12.392c12.496,2.426 15.545,2.94 17.117,-0.133Zm0.518,-1.269c-0.033,0.146 -0.079,0.287 -0.139,0.425c-0.032,0.072 -0.064,0.144 -0.095,0.215c0.08,-0.201 0.158,-0.415 0.234,-0.64Z" style="fill:#727070;fill-opacity:0.13;"/><path d="M31.765,122.948c-0.965,2.431 0.375,4.991 1.017,7.174c4.412,14.997 10.493,33.565 21.107,30.746c7.734,-2.053 9.134,-6.282 7.772,-14.273c-0.219,4.576 -2.469,7.302 -8.214,8.828c-10.614,2.818 -16.696,-15.749 -21.107,-30.746c-0.163,-0.555 -0.371,-1.134 -0.575,-1.729Zm25.759,-13.022c0.953,3.719 0.056,9.291 0.252,15.871c-0.842,-6.042 -0.311,-11.509 -0.252,-15.871Z" style="fill:#727070;fill-opacity:0.13;"/><path d="M31.765,122.948c-0.965,2.431 0.375,4.991 1.017,7.174c4.412,14.997 10.493,33.565 21.107,30.746c7.734,-2.053 9.134,-6.282 7.772,-14.273c-0.219,4.576 -2.469,7.302 -8.214,8.828c-10.614,2.818 -16.696,-15.749 -21.107,-30.746c-0.163,-0.555 -0.371,-1.134 -0.575,-1.729Zm25.759,-13.022c0.953,3.719 0.056,9.291 0.252,15.871c-0.842,-6.042 -0.311,-11.509 -0.252,-15.871Z" style="fill:#727070;fill-opacity:0.13;"/><path d="M71.295,97.553c-0.964,2.431 0.375,4.991 1.018,7.175c4.411,14.997 10.493,33.564 21.106,30.746c7.734,-2.054 5.303,-6.971 -0.442,-5.446c-10.613,2.819 -16.695,-15.749 -21.106,-30.746c-0.164,-0.555 -0.372,-1.134 -0.576,-1.729Z" style="fill:#727070;fill-opacity:0.13;"/><path d="M71.295,97.553c-0.964,2.431 0.375,4.991 1.018,7.175c4.411,14.997 10.493,33.564 21.106,30.746c7.734,-2.054 5.303,-6.971 -0.442,-5.446c-10.613,2.819 -16.695,-15.749 -21.106,-30.746c-0.164,-0.555 -0.372,-1.134 -0.576,-1.729Z" style="fill:#727070;fill-opacity:0.13;"/><path d="M106.833,74.205c-9.093,0.102 -59.627,52.222 -59.627,70.759c-0,11.843 15.949,43.345 22.932,42.544c4.021,-0.461 11.842,-15.901 11.842,-15.901c-1.787,1.59 15.064,8.469 22.683,8.458c30.882,-0.042 41.291,-20.689 41.291,-20.689c0,0 7.664,-2.216 11.29,-3.877c14.331,-6.566 4.991,-28.773 -6.58,-45.653c-9.686,-14.13 -25.296,-35.847 -43.831,-35.641Z" style="fill:#f8f8f8;"/><path d="M135.66,101.591c16.574,19.249 15.792,53.418 9.762,58.51c-0,0 9.88,-19.863 2.578,-40.591c-4.239,-12.034 -12.34,-17.919 -12.34,-17.919Z" style="fill:#727070;fill-opacity:0.13;"/><path d="M97.762,113.202c0.52,-12.835 -15.205,49.565 -43.387,50.913c-2.248,0.818 9.539,22.612 14.972,23.338c3.953,0.528 8.25,-7.252 12.617,-15.606c6.374,-12.196 15.078,-40.845 15.798,-58.645Z" style="fill:#727070;fill-opacity:0.13;"/><path d="M109.319,18.02c9.094,0.102 29.81,13.594 29.81,32.131c-0,18.536 -15.285,32.402 -33.822,32.402c-18.536,0 -31.592,-14.345 -31.592,-32.882c-0,-18.536 17.069,-31.857 35.604,-31.651Z" style="fill:#f8f8f8;"/><path d="M130.441,29.951c4.974,5.407 8.688,12.351 8.688,20.2c-0,18.536 -15.285,32.402 -33.822,32.402c-10.656,0 -19.502,-4.741 -25.097,-12.296c5.579,5.892 13.471,9.471 22.73,9.471c18.536,0 33.821,-13.866 33.821,-32.402c0,-6.542 -2.58,-12.455 -6.32,-17.375Z" style="fill:#727070;fill-opacity:0.17;"/><path d="M140.932,187.817c1.509,-0.947 -1.163,-6.897 -3.359,-6.978c-1.36,-0.05 4.115,0.168 6.794,-0.833c2.038,-0.761 3.385,-1.737 2.816,-2.126c-2.04,-1.395 -8.067,-3.994 -6.557,-9.538l4.747,-8.552l-42.734,16.496l10.027,0.172c2.175,3.171 4.475,5.371 6.816,6.905c7.712,5.055 15.869,2.898 21.45,4.454Z" style="fill:#f8f8f8;"/><path d="M140.932,187.817c1.509,-0.947 -1.163,-6.897 -3.359,-6.978c-1.36,-0.05 4.115,0.168 6.794,-0.833c2.038,-0.761 3.385,-1.737 2.816,-2.126c-2.04,-1.395 -8.067,-3.994 -6.557,-9.538c-1.315,1.71 -3.887,2.259 1.011,9.707c-1.738,1.296 -5.333,1.352 -9.771,0.844c1.528,1.794 7.763,4.976 6.69,7.42c-14.242,-2.557 -20.094,-3.288 -25.89,-9.855c9.337,13.613 20.99,9.33 28.266,11.359Z" style="fill:#727070;fill-opacity:0.13;"/></svg>
