<?xml version="1.0" encoding="UTF-8" standalone="no"?><!DOCTYPE svg PUBLIC "-//W3C//DTD SVG 1.1//EN" "http://www.w3.org/Graphics/SVG/1.1/DTD/svg11.dtd"><svg width="100%" height="100%" viewBox="0 0 200 200" version="1.1" xmlns="http://www.w3.org/2000/svg" xmlns:xlink="http://www.w3.org/1999/xlink" xml:space="preserve" xmlns:serif="http://www.serif.com/" style="fill-rule:evenodd;clip-rule:evenodd;stroke-linejoin:round;stroke-miterlimit:2;"><path d="M107.122,169.53l-14.783,-0l-1.262,23.338l19.153,-11.166l-3.108,-12.172Z" style="fill:#dfc55d;"/><path d="M107.122,169.53l-14.783,-0l-1.262,23.338l19.153,-11.166l-3.108,-12.172Z" style="fill:#717171;fill-opacity:0.2;"/><path d="M107.122,169.53l-14.783,-0l-1.262,23.338l19.153,-11.166l-3.108,-12.172Z" style="fill:#717171;fill-opacity:0.2;"/><path d="M75.138,151.653l-22.344,-4.996l-7.653,25.261l31.699,-5.816l-1.702,-14.449Z" style="fill:#dfc55d;"/><path d="M75.138,151.653l-22.344,-4.996l-7.653,25.261l31.699,-5.816l-1.702,-14.449Z" style="fill:#717171;fill-opacity:0.18;"/><path d="M75.138,151.653l-22.344,-4.996l-7.653,25.261l31.699,-5.816l-1.702,-14.449Z" style="fill:#717171;fill-opacity:0.18;"/><path d="M110.187,68.119c9.82,0.11 64.39,56.393 64.39,76.41c0,12.789 -17.223,46.808 -24.764,45.943c-4.342,-0.498 -12.788,-17.172 -12.788,-17.172c1.93,1.718 -16.432,10.772 -24.494,9.134c-21.398,-4.346 -40.68,-19.152 -56.781,-26.529c-15.476,-7.09 -5.389,-31.07 7.106,-49.299c10.459,-15.258 27.316,-38.71 47.331,-38.487Z" style="fill:#f8f8f8;"/><path d="M85.959,85.321c-21.763,14.667 -28.528,69.284 -22.016,74.783c0,0 -10.669,-21.449 -2.784,-43.833c4.577,-12.995 24.8,-30.95 24.8,-30.95Z" style="fill:#9c9c9c;fill-opacity:0.18;"/><path d="M117.226,104.016c-1.957,-13.733 9.861,52.347 19.799,69.284c1.93,1.718 -16.432,10.772 -24.494,9.134c-21.398,-4.346 10.748,-35.924 4.695,-78.418Z" style="fill:#858585;fill-opacity:0.16;"/><path d="M107.974,6.424c9.82,0.11 32.191,14.68 32.191,34.697c-0,20.017 -16.506,34.99 -36.523,34.99c-20.017,0 -34.116,-15.491 -34.116,-35.508c-0,-20.017 18.432,-34.402 38.448,-34.179Z" style="fill:#f8f8f8;"/><path d="M136.091,26.505c2.498,4.375 4.074,9.303 4.074,14.616c-0,20.017 -16.506,34.99 -36.523,34.99c-15.405,0 -27.305,-9.175 -31.971,-22.527c5.743,10.171 16.297,16.787 29.378,16.787c20.017,-0 36.523,-14.974 36.523,-34.991c-0,-3.1 -0.537,-6.07 -1.481,-8.875Z" style="fill:#848484;fill-opacity:0.13;"/><path d="M70.387,138.266c1.591,-1.061 3.753,-2.642 6.552,-0.967c1.615,0.967 2.498,5.249 2.498,5.249c0,0 0.379,-4.653 6.077,-2.172c4.73,2.06 5.251,10.105 5.251,10.105c0,-0 0.978,-3.532 4.251,-2.245c5.269,2.072 4.009,6.539 3.919,9.905c-0.448,16.875 -1.649,37.94 -13.507,37.94c-11.859,-0 -12.403,-7.582 -12.403,-24.461c-0,-16.878 -10.39,-28.183 -2.638,-33.354Z" style="fill:#dfc55d;"/><path d="M98.555,151.302c0.964,2.129 0.437,4.705 0.38,6.839c-0.448,16.875 -1.649,37.94 -13.507,37.94c-8.612,-0 -11.257,-3.999 -12.06,-12.653c1.267,5.98 4.296,8.778 11.5,8.778c11.858,-0 13.06,-21.065 13.507,-37.94c0.025,-0.928 0.139,-1.941 0.18,-2.964Zm-31.04,-7.324c0.066,4.683 3.212,11.167 4.72,19.359c-0.809,-7.852 -3.534,-14.328 -4.72,-19.359Z" style="fill:#808080;fill-opacity:0.16;"/><path d="M23.285,118.939c1.48,-1.211 2.587,-2.067 5.607,-0.833c3.264,1.335 3.815,4.217 3.815,4.217c0,0 1.368,-3.333 6.532,-2.005c3.987,1.025 5.417,6.961 5.417,6.961c0,-0 1.901,-1.501 4.108,-0.805c3.85,1.213 4.624,6.119 4.861,9.478c1.014,14.342 1.513,30.321 -5.426,36.682c-1.209,1.108 -2.643,1.924 -4.339,2.389c-4.195,1.149 -8.162,-1.278 -11.162,-17.888c-3.015,-16.699 -16.627,-32.298 -9.413,-38.196Z" style="fill:#dfc55d;"/><path d="M49.471,126.753c3.24,1.561 3.932,6.057 4.154,9.199c1.014,14.342 1.513,30.321 -5.426,36.682c-1.209,1.108 -2.643,1.924 -4.339,2.389c-2.758,0.756 -5.417,-0.034 -7.767,-5.383c1.385,0.938 2.83,0.975 4.303,0.572c1.696,-0.465 3.13,-1.281 4.339,-2.389c6.939,-6.361 6.44,-22.34 5.427,-36.682c-0.094,-1.328 -0.272,-2.899 -0.691,-4.388Zm-8.767,-5.787c0.456,0.295 0.866,0.654 1.234,1.05c-0.467,0.232 -0.745,0.451 -0.745,0.451c-0,0 -0.151,-0.623 -0.489,-1.501Z" style="fill:#858585;fill-opacity:0.22;"/><path d="M76.991,54.916c8.442,-2.362 28.771,0.697 29.024,6.466c0.377,8.627 -1.095,9.407 -14.486,12.511c-10.006,2.32 -32.784,3.259 -38.941,1.806c-2.445,-0.577 -4.001,-2.104 -3.911,-4.878c0.095,-2.93 17.204,-12.796 28.314,-15.905Z" style="fill:#dfc55d;"/><path d="M76.991,54.916c8.442,-2.362 28.771,0.697 29.024,6.466c0.377,8.627 -1.095,9.407 -14.486,12.511c-10.006,2.32 -32.784,3.259 -38.941,1.806c-2.445,-0.577 -4.001,-2.104 -3.911,-4.878c0.095,-2.93 17.204,-12.796 28.314,-15.905Z" style="fill:#dfc55d;"/><path d="M74.93,51.978c8.218,-2.816 30.064,2.784 30.957,8.512c0.84,5.39 -1.099,6.03 -16.358,10.179c-9.896,2.691 -30.891,4.484 -37.158,3.37c-2.489,-0.443 -4.172,-1.881 -4.321,-4.654c-0.157,-2.928 16.063,-13.701 26.88,-17.407Z" style="fill:#dfc55d;"/><path d="M106.05,62.38c0.205,7.695 -1.666,8.533 -14.521,11.513c-10.006,2.32 -32.784,3.259 -38.941,1.806c-2.146,-0.507 -3.607,-1.745 -3.871,-3.915c0.733,1.244 2.02,1.964 3.654,2.255c6.267,1.114 27.262,-0.679 37.158,-3.37c13.263,-3.606 16.463,-4.562 16.521,-8.289Zm-0.103,-1.476c0.038,0.157 0.06,0.316 0.068,0.478c0.003,0.085 0.007,0.17 0.01,0.254c-0.018,-0.234 -0.044,-0.477 -0.078,-0.732Z" style="fill:#808080;fill-opacity:0.35;"/><ellipse cx="80.637" cy="43.007" rx="4.26" ry="4.508"/><circle cx="108.759" cy="49.719" r="4.66"/><path d="M89.882,110.81l3.723,-22.98c-0.737,1.281 -2.234,2.616 -3.421,3.364c-4.144,2.61 -8.376,4.049 -13.308,4.049c-0.344,-0 0.055,2.56 3.415,4.08c1.952,0.884 3.979,0.752 3.979,0.752c-0,-0 -1.4,2.45 -2.814,4.065c-2.1,2.399 -6.073,4.146 -6.073,4.146c-0,0 1.105,0.949 4.357,0.81c1.44,-0.062 2.71,-0.78 2.71,-0.78c0,0 0.199,1.884 -0.023,3.91c-0.124,1.137 -1.053,3.066 -1.053,3.066c0,-0 2.346,-0.363 4.358,-1.39c2.093,-1.068 3.596,-2.173 4.15,-3.092Z" style="fill:#fff;fill-opacity:0.9;"/><path d="M89,111.051l4.461,-22.848c0.248,1.457 1.19,3.227 2.045,4.34c2.985,3.883 6.457,6.698 11.084,8.405c0.323,0.119 -0.937,2.383 -4.616,2.646c-2.138,0.153 -3.993,-0.672 -3.993,-0.672c-0,0 0.465,2.783 1.232,4.788c1.14,2.978 4.264,5.992 4.264,5.992c-0,-0 -1.366,0.507 -4.369,-0.749c-1.33,-0.556 -2.273,-1.669 -2.273,-1.669c0,-0 -0.838,1.698 -1.332,3.676c-0.277,1.109 -0.073,3.241 -0.073,3.241c0,-0 -2.075,-1.153 -3.607,-2.812c-1.594,-1.727 -2.622,-3.284 -2.823,-4.338Z" style="fill:#fff;fill-opacity:0.9;"/></svg>
