<?xml version="1.0" encoding="UTF-8" standalone="no"?><!DOCTYPE svg PUBLIC "-//W3C//DTD SVG 1.1//EN" "http://www.w3.org/Graphics/SVG/1.1/DTD/svg11.dtd"><svg width="100%" height="100%" viewBox="0 0 200 200" version="1.1" xmlns="http://www.w3.org/2000/svg" xmlns:xlink="http://www.w3.org/1999/xlink" xml:space="preserve" xmlns:serif="http://www.serif.com/" style="fill-rule:evenodd;clip-rule:evenodd;stroke-linejoin:round;stroke-miterlimit:2;"><g><path d="M85.834,116.14l-27.26,-15.738l0,15.808l27.26,15.739l-0,-15.809Z" style="fill:#eee;"/><path d="M134.503,86.992l8.226,-4.67c1.311,-0.917 1.205,-1.244 1.164,-2.236c0,0 0.006,14.295 0.007,19.136c0.001,0.979 -0.521,1.882 -1.368,2.372c-2.409,1.391 -7.155,4.13 -7.155,4.13l-0.001,-18.091l-0.873,-0.641Z" style="fill:#eee;"/><path d="M104.72,69.868l-47.805,27.6l30.635,17.687l47.804,-27.6l-30.634,-17.687Z" style="fill:#9eb6ba;"/><path d="M135.363,87.542l-47.741,27.563l0,19.894l47.741,-27.562l-0,-19.895Z" style="fill:#9eb6ba;"/><path d="M56.894,97.569l0,-0.072l28.852,16.658l0,-0.052l1.775,1.025l0,0.052l0.018,0.011l0,1.887l-0.018,-0.01l0,15.898l0.077,0.044l-0.011,1.998l-30.735,-17.748l-0.025,-19.729l0.067,0.038Zm1.7,18.685l-0.019,-15.898l27.171,15.687l0,15.897l-27.152,-15.686Z" style="fill:#9eb6ba;"/><g><path d="M85.834,116.14l-27.26,-15.738l0,15.808l27.26,15.739l-0,-15.809Z" style="fill:#808080;fill-opacity:0.16;"/><path d="M135.363,87.542l-47.741,27.563l0,19.894l47.741,-27.562l-0,-19.895Z" style="fill:#808080;fill-opacity:0.16;"/><path d="M134.503,86.992l8.226,-4.67c1.311,-0.917 1.205,-1.244 1.164,-2.236c0,0 0.006,14.295 0.007,19.136c0.001,0.979 -0.521,1.882 -1.368,2.372c-2.409,1.391 -7.155,4.13 -7.155,4.13l-0.001,-18.091l-0.873,-0.641Z" style="fill:#808080;fill-opacity:0.16;"/><path d="M135.363,87.542l-47.741,27.563l0,19.894l47.741,-27.562l-0,-19.895Z" style="fill:#808080;fill-opacity:0.16;"/><path d="M134.503,86.992l8.226,-4.67c1.311,-0.917 1.205,-1.244 1.164,-2.236c0,0 0.006,14.295 0.007,19.136c0.001,0.979 -0.521,1.882 -1.368,2.372c-2.409,1.391 -7.155,4.13 -7.155,4.13l-0.001,-18.091l-0.873,-0.641Z" style="fill:#808080;fill-opacity:0.16;"/><path d="M56.894,97.569l0,-0.072l28.852,16.658l0,-0.052l1.775,1.025l0,0.052l0.018,0.011l0,1.887l-0.018,-0.01l0,15.898l0.077,0.044l-0.011,1.998l-30.735,-17.748l-0.025,-19.729l0.067,0.038Zm1.7,18.685l-0.019,-15.898l27.171,15.687l0,15.897l-27.152,-15.686Z" style="fill:#808080;fill-opacity:0.16;"/></g><path d="M121.82,65.695c-2.117,-1.222 -4.725,-1.222 -6.842,-0c-3.596,2.076 -8.739,5.046 -8.739,5.046l28.214,16.289c0,0 4.526,-2.613 8.056,-4.651c0.846,-0.489 1.368,-1.392 1.368,-2.37c-0,-0.978 -0.522,-1.881 -1.368,-2.37c-5.587,-3.225 -15.482,-8.938 -20.689,-11.944Z" style="fill:#eee;"/></g></svg>