<?xml version="1.0" encoding="UTF-8" standalone="no"?><!DOCTYPE svg PUBLIC "-//W3C//DTD SVG 1.1//EN" "http://www.w3.org/Graphics/SVG/1.1/DTD/svg11.dtd"><svg width="100%" height="100%" viewBox="0 0 200 200" version="1.1" xmlns="http://www.w3.org/2000/svg" xmlns:xlink="http://www.w3.org/1999/xlink" xml:space="preserve" xmlns:serif="http://www.serif.com/" style="fill-rule:evenodd;clip-rule:evenodd;stroke-linejoin:round;stroke-miterlimit:2;"><path d="M142.428,84.83l-45.697,26.383l-0,17.213l45.697,-26.383l-0,-17.213Z" style="fill:#9eb6ba;"/><path d="M142.428,84.83l-45.697,26.383l-0,17.213l45.697,-26.383l-0,-17.213Z" style="fill:#848484;fill-opacity:0.15;"/><path d="M142.428,84.83l-45.697,26.383l-0,17.213l45.697,-26.383l-0,-17.213Z" style="fill:#848484;fill-opacity:0.15;"/><path d="M142.428,84.83l-45.697,26.383l-0,17.213l45.697,-26.383l-0,-17.213Z" style="fill:#848484;fill-opacity:0.15;"/><path d="M112.524,67.565l-45.72,26.397l29.928,17.279l45.72,-26.397l-29.928,-17.279Z" style="fill:#9eb6ba;"/><path d="M68.124,96.632l-1.372,0.81l0.028,-3.472l29.952,17.271l-0.017,17.194l-2.926,-1.466l1.446,-0.894l-0.158,-13.879l-26.953,-15.564Z" style="fill:#9eb6ba;"/><path d="M68.124,96.632l-1.372,0.81l0.028,-3.472l29.952,17.271l-0.017,17.194l-2.926,-1.466l1.446,-0.894l-0.158,-13.879l-26.953,-15.564Z" style="fill:#8a8a8a;fill-opacity:0.18;"/><path d="M68.128,96.687l-11.387,6.574l27.07,15.629l11.387,-6.575l-27.07,-15.628Z" style="fill:#eee;"/><path d="M95.215,126.144l-11.341,6.518l-0.063,-13.772l11.387,-6.575l0.017,13.829Z" style="fill:#eee;"/><path d="M56.736,103.279l0.005,13.776l27.07,15.629l-0.027,-13.804l-27.048,-15.601Z" style="fill:#eee;"/><path d="M95.215,126.144l-11.341,6.518l-0.063,-13.772l11.387,-6.575l0.017,13.829Z" style="fill:#848484;fill-opacity:0.15;"/><path d="M95.215,126.144l-11.341,6.518l-0.063,-13.772l11.387,-6.575l0.017,13.829Z" style="fill:#848484;fill-opacity:0.15;"/><path d="M56.736,103.279l0.005,13.776l27.07,15.629l-0.027,-13.804l-27.048,-15.601Z" style="fill:#848484;fill-opacity:0.15;"/></svg>