<?xml version="1.0" encoding="UTF-8" standalone="no"?><!DOCTYPE svg PUBLIC "-//W3C//DTD SVG 1.1//EN" "http://www.w3.org/Graphics/SVG/1.1/DTD/svg11.dtd"><svg width="100%" height="100%" viewBox="0 0 200 200" version="1.1" xmlns="http://www.w3.org/2000/svg" xmlns:xlink="http://www.w3.org/1999/xlink" xml:space="preserve" xmlns:serif="http://www.serif.com/" style="fill-rule:evenodd;clip-rule:evenodd;stroke-linejoin:round;stroke-miterlimit:2;"><path d="M83.607,85.443l-0,-41.293c-2.67,-2.066 -4.016,-4.523 -4.04,-6.985c-0.01,-1.011 -0.151,-5.868 0.132,-7.301c0.506,-2.558 2.457,-5.038 5.852,-6.998c7.979,-4.607 20.935,-4.607 28.914,-0c3.779,2.182 5.769,5.008 5.968,7.869c0.08,1.148 0.028,6.233 0.011,6.646c-0.098,2.394 -1.449,4.773 -4.051,6.782l-0,41.433l31.613,53.674c8.263,11.034 4.59,24.345 -11.02,33.358c-20.413,11.785 -53.559,11.785 -73.973,-0c-15.295,-8.831 -19.13,-21.79 -11.503,-32.691l32.097,-54.494Z" style="fill:#d3d3d3;fill-opacity:0.31;"/><path d="M85.543,22.866c7.979,-4.607 20.935,-4.607 28.914,-0c7.979,4.606 7.979,12.087 -0,16.693c-7.979,4.607 -20.935,4.607 -28.914,0c-7.98,-4.606 -7.98,-12.087 -0,-16.693Z" style="fill:#fff;fill-opacity:0.31;"/><path d="M90.529,25.769c5.227,-3.018 13.715,-3.018 18.942,0c5.227,3.018 5.227,7.919 -0,10.936c-5.227,3.018 -13.715,3.018 -18.942,0c-5.227,-3.017 -5.227,-7.918 -0,-10.936Z" style="fill:#d3d3d3;fill-opacity:0.31;"/><path d="M68.426,130.175c17.426,-10.061 45.722,-10.061 63.148,0c17.427,10.061 17.427,26.398 0,36.459c-17.426,10.061 -45.722,10.061 -63.148,-0c-17.427,-10.061 -17.427,-26.398 -0,-36.459Z" style="fill:#d3d3d3;fill-opacity:0.31;"/><path d="M86.956,85.458l-0,-39.272c7.541,3.618 18.542,3.62 26.088,0.008l-0,39.264l30.529,53.275c7.5,10.014 4.166,22.096 -10.002,30.277c-18.529,10.697 -48.614,10.697 -67.142,-0c-13.883,-8.016 -17.364,-19.778 -10.441,-29.672l30.968,-53.88Z" style="fill:#fff;fill-opacity:0.31;"/><path d="M82.206,93.825c0.891,-1.545 2.4,-2.996 4.528,-4.224c7.322,-4.228 19.21,-4.228 26.532,-0c2.154,1.243 3.674,2.715 4.561,4.281c0.049,0.053 0.088,0.106 0.116,0.161l13.305,22.234l12.884,22.482c7.595,10.144 4.219,22.38 -10.131,30.665c-18.766,10.835 -49.237,10.835 -68.002,0c-14.061,-8.118 -17.586,-20.03 -10.575,-30.051c-0,-0 6.256,-10.884 13.179,-22.931c0.123,-0.213 13.278,-22.204 13.419,-22.405c0.04,-0.073 0.102,-0.143 0.184,-0.212Z" style="fill:#82d3ca;fill-opacity:0.87;"/><path d="M86.734,89.601c7.322,-4.228 19.21,-4.228 26.532,-0c7.322,4.227 7.322,11.091 -0,15.318c-7.322,4.227 -19.21,4.227 -26.532,-0c-7.322,-4.227 -7.322,-11.091 0,-15.318Z" style="fill:#fff;fill-opacity:0.31;"/><path d="M68.021,130.092c17.65,-10.19 46.308,-10.19 63.958,0c17.65,10.19 17.65,26.736 -0,36.926c-17.65,10.19 -46.308,10.19 -63.958,0c-17.65,-10.19 -17.65,-26.736 0,-36.926Z" style="fill:#fff;fill-opacity:0.14;"/></svg>