<?xml version="1.0" encoding="UTF-8" standalone="no"?><!DOCTYPE svg PUBLIC "-//W3C//DTD SVG 1.1//EN" "http://www.w3.org/Graphics/SVG/1.1/DTD/svg11.dtd"><svg width="100%" height="100%" viewBox="0 0 200 200" version="1.1" xmlns="http://www.w3.org/2000/svg" xmlns:xlink="http://www.w3.org/1999/xlink" xml:space="preserve" xmlns:serif="http://www.serif.com/" style="fill-rule:evenodd;clip-rule:evenodd;stroke-linejoin:round;stroke-miterlimit:2;"><path d="M84.253,85.596l0,-39.665c-2.564,-1.985 -3.858,-4.345 -3.88,-6.71c-0.01,-0.971 -0.145,-5.637 0.127,-7.012c0.486,-2.458 2.359,-4.84 5.621,-6.723c7.664,-4.426 20.109,-4.426 27.774,-0c3.63,2.095 5.541,4.811 5.732,7.559c0.077,1.102 0.027,5.987 0.011,6.384c-0.095,2.299 -1.392,4.585 -3.892,6.514l0,39.8l30.368,51.557c7.937,10.599 4.408,23.385 -10.586,32.043c-19.609,11.32 -51.448,11.32 -71.056,-0c-14.693,-8.483 -18.376,-20.931 -11.05,-31.402l30.831,-52.345Z" style="fill:#d0d0d0;fill-opacity:0.38;"/><path d="M86.113,25.486c7.664,-4.426 20.109,-4.426 27.774,-0c7.664,4.425 7.664,11.61 -0,16.035c-7.665,4.425 -20.11,4.425 -27.774,0c-7.665,-4.425 -7.665,-11.61 -0,-16.035Z" style="fill:#fff;fill-opacity:0.38;"/><path d="M90.902,28.275c5.021,-2.899 13.174,-2.899 18.195,-0c5.021,2.899 5.021,7.606 0,10.505c-5.021,2.899 -13.174,2.899 -18.195,-0c-5.021,-2.899 -5.021,-7.606 0,-10.505Z" style="fill:#d0d0d0;fill-opacity:0.38;"/><path d="M69.671,128.564c16.739,-9.664 43.919,-9.664 60.658,-0c16.739,9.664 16.739,25.357 0,35.021c-16.739,9.665 -43.919,9.665 -60.658,0c-16.739,-9.664 -16.739,-25.357 -0,-35.021Z" style="fill:#d0d0d0;fill-opacity:0.38;"/><path d="M87.47,85.61l0,-37.723c7.244,3.475 17.811,3.477 25.059,0.008l0,37.715l29.326,51.174c7.204,9.62 4.002,21.226 -9.608,29.083c-17.798,10.276 -46.697,10.276 -64.494,0c-13.336,-7.699 -16.679,-18.997 -10.03,-28.501l29.747,-51.756Z" style="fill:#fff;fill-opacity:0.38;"/><path d="M61.513,129.849c1.81,-3.603 5.393,-6.999 10.306,-9.836c15.553,-8.979 40.808,-8.979 56.361,0c5.034,2.906 8.518,6.257 10.293,9.955l3.918,6.842c7.297,9.743 4.053,21.497 -9.731,29.456c-18.026,10.407 -47.295,10.407 -65.321,-0c-13.506,-7.798 -16.892,-19.241 -10.157,-28.867c-0,-0 4.255,-7.4 4.331,-7.55Z" style="fill:#7cd2c8;fill-opacity:0.83;"/><path d="M71.819,120.013c15.553,-8.979 40.808,-8.979 56.361,0c15.554,8.98 15.554,23.561 0,32.541c-15.553,8.979 -40.808,8.979 -56.361,-0c-15.553,-8.98 -15.553,-23.561 0,-32.541Z" style="fill:#fff;fill-opacity:0.38;"/><path d="M69.282,128.484c16.954,-9.788 44.482,-9.788 61.436,0c16.954,9.789 16.954,25.682 -0,35.47c-16.954,9.789 -44.482,9.789 -61.436,0c-16.954,-9.788 -16.954,-25.681 0,-35.47Z" style="fill:#fff;fill-opacity:0.15;"/></svg>