<?xml version="1.0" encoding="UTF-8" standalone="no"?><!DOCTYPE svg PUBLIC "-//W3C//DTD SVG 1.1//EN" "http://www.w3.org/Graphics/SVG/1.1/DTD/svg11.dtd"><svg width="100%" height="100%" viewBox="0 0 200 200" version="1.1" xmlns="http://www.w3.org/2000/svg" xmlns:xlink="http://www.w3.org/1999/xlink" xml:space="preserve" xmlns:serif="http://www.serif.com/" style="fill-rule:evenodd;clip-rule:evenodd;stroke-linejoin:round;stroke-miterlimit:2;"><path d="M84.746,86.046l-0,-38.425c-2.485,-1.922 -3.738,-4.209 -3.76,-6.499c-0.009,-0.942 -0.14,-5.462 0.124,-6.794c0.47,-2.381 2.285,-4.689 5.445,-6.513c7.424,-4.287 19.481,-4.287 26.906,0c3.516,2.031 5.367,4.661 5.553,7.323c0.074,1.068 0.025,5.8 0.01,6.184c-0.092,2.228 -1.348,4.442 -3.77,6.311l0,38.556l29.418,49.945c7.689,10.268 4.271,22.654 -10.255,31.041c-18.995,10.967 -49.839,10.967 -68.835,-0c-14.233,-8.218 -17.801,-20.276 -10.704,-30.42l29.868,-50.709Z" style="fill:#bcbcbc;fill-opacity:0.29;"/><path d="M86.547,27.815c7.425,-4.287 19.481,-4.287 26.906,0c7.425,4.287 7.425,11.248 -0,15.534c-7.425,4.287 -19.481,4.287 -26.906,0c-7.425,-4.286 -7.425,-11.247 -0,-15.534Z" style="fill:#fff;fill-opacity:0.33;"/><path d="M91.187,30.517c4.864,-2.808 12.762,-2.808 17.626,0c4.864,2.808 4.864,7.368 -0,10.177c-4.864,2.808 -12.762,2.808 -17.626,-0c-4.864,-2.809 -4.864,-7.369 -0,-10.177Z" style="fill:#bcbcbc;fill-opacity:0.29;"/><path d="M87.862,86.06l0,-36.544c7.017,3.366 17.254,3.369 24.276,0.008l-0,36.536l28.409,49.574c6.978,9.319 3.876,20.562 -9.308,28.174c-17.242,9.954 -45.237,9.954 -62.478,-0c-12.919,-7.459 -16.158,-18.403 -9.716,-27.61l28.817,-50.138Z" style="fill:#fff;fill-opacity:0.33;"/><path d="M70.619,127.671c16.216,-9.362 42.546,-9.362 58.762,-0c16.216,9.362 16.216,24.564 0,33.926c-16.216,9.362 -42.546,9.362 -58.762,0c-16.216,-9.362 -16.216,-24.564 -0,-33.926Z" style="fill:#fff;fill-opacity:0.33;"/></svg>