<?xml version="1.0" encoding="UTF-8" standalone="no"?><!DOCTYPE svg PUBLIC "-//W3C//DTD SVG 1.1//EN" "http://www.w3.org/Graphics/SVG/1.1/DTD/svg11.dtd"><svg width="100%" height="100%" viewBox="0 0 200 200" version="1.1" xmlns="http://www.w3.org/2000/svg" xmlns:xlink="http://www.w3.org/1999/xlink" xml:space="preserve" xmlns:serif="http://www.serif.com/" style="fill-rule:evenodd;clip-rule:evenodd;stroke-linejoin:round;stroke-miterlimit:2;"><path d="M82.729,84.664l-0,-43.505c-2.813,-2.177 -4.232,-4.766 -4.256,-7.359c-0.01,-1.066 -0.159,-6.183 0.139,-7.692c0.533,-2.695 2.588,-5.308 6.165,-7.373c8.407,-4.854 22.057,-4.854 30.463,-0c3.982,2.298 6.077,5.276 6.287,8.29c0.084,1.21 0.029,6.567 0.012,7.002c-0.104,2.522 -1.526,5.029 -4.268,7.145l-0,43.653l33.307,56.548c8.705,11.625 4.835,25.649 -11.611,35.144c-21.507,12.417 -56.428,12.417 -77.934,0c-16.115,-9.304 -20.155,-22.956 -12.12,-34.441l33.816,-57.412Z" style="fill:#cbcbcb;fill-opacity:0.36;"/><path d="M84.768,18.735c8.407,-4.854 22.057,-4.854 30.463,-0c8.407,4.853 8.407,12.734 0,17.587c-8.406,4.854 -22.056,4.854 -30.463,0c-8.406,-4.853 -8.406,-12.734 0,-17.587Z" style="fill:#fff;fill-opacity:0.36;"/><path d="M90.022,21.794c5.507,-3.18 14.449,-3.18 19.956,-0c5.507,3.179 5.507,8.342 -0,11.522c-5.507,3.179 -14.449,3.179 -19.956,-0c-5.507,-3.18 -5.507,-8.343 -0,-11.522Z" style="fill:#cbcbcb;fill-opacity:0.36;"/><path d="M66.735,131.791c18.359,-10.6 48.171,-10.6 66.53,0c18.36,10.6 18.36,27.812 0,38.412c-18.359,10.6 -48.171,10.6 -66.53,-0c-18.36,-10.6 -18.36,-27.812 -0,-38.412Z" style="fill:#cbcbcb;fill-opacity:0.36;"/><path d="M86.257,84.679l0,-41.375c7.945,3.811 19.535,3.814 27.485,0.009l0,41.366l32.165,56.128c7.901,10.551 4.389,23.28 -10.539,31.899c-19.52,11.27 -51.216,11.27 -70.737,-0c-14.627,-8.445 -18.294,-20.837 -11,-31.261l32.626,-56.766Z" style="fill:#fff;fill-opacity:0.36;"/><path d="M67.338,116.668c1.611,-2.909 4.414,-5.645 8.408,-7.951c13.386,-7.728 35.121,-7.728 48.508,0c4.213,2.433 7.101,5.344 8.661,8.43l0.006,0.002l13.574,23.686c8.003,10.687 4.445,23.579 -10.673,32.308c-19.771,11.414 -51.874,11.414 -71.644,-0c-14.814,-8.553 -18.528,-21.104 -11.141,-31.662c-0,0 6.59,-11.466 13.885,-24.158c0.129,-0.225 0.268,-0.444 0.416,-0.655Z" style="fill:#7ad1c7;fill-opacity:0.87;"/><path d="M75.746,108.717c13.386,-7.728 35.121,-7.728 48.508,0c13.386,7.729 13.386,20.278 -0,28.006c-13.387,7.728 -35.122,7.728 -48.508,-0c-13.386,-7.728 -13.386,-20.277 0,-28.006Z" style="fill:#fff;fill-opacity:0.36;"/><path d="M66.308,131.704c18.595,-10.736 48.789,-10.736 67.384,-0c18.594,10.736 18.594,28.168 -0,38.904c-18.595,10.735 -48.789,10.735 -67.384,-0c-18.594,-10.736 -18.594,-28.168 0,-38.904Z" style="fill:#fff;fill-opacity:0.18;"/></svg>