<?xml version="1.0" encoding="UTF-8" standalone="no"?><!DOCTYPE svg PUBLIC "-//W3C//DTD SVG 1.1//EN" "http://www.w3.org/Graphics/SVG/1.1/DTD/svg11.dtd"><svg width="100%" height="100%" viewBox="0 0 200 200" version="1.1" xmlns="http://www.w3.org/2000/svg" xmlns:xlink="http://www.w3.org/1999/xlink" xml:space="preserve" xmlns:serif="http://www.serif.com/" style="fill-rule:evenodd;clip-rule:evenodd;stroke-linejoin:round;stroke-miterlimit:2;"><path d="M58.498,182.851c0.719,0.426 3.673,2.192 4.507,2.59c1.302,0.62 2.947,0.491 4.734,-0.541l68.207,-39.38c4.218,-2.435 7.642,-8.978 7.642,-14.601l0,-105.105c0,-2.768 -0.829,-4.801 -2.175,-5.861c-0.807,-0.637 -4.029,-2.41 -4.803,-2.818c-1.323,-0.697 -3.02,-0.596 -4.871,0.472l-68.206,39.38c-4.218,2.435 -7.643,8.978 -7.643,14.602l0,105.105c0,3.053 1.01,5.212 2.608,6.157Z" style="fill:#f6f6f6;"/><path d="M58.498,182.909c0.719,0.426 3.673,2.192 4.507,2.59c1.302,0.62 2.947,0.491 4.734,-0.541l68.207,-39.38c4.218,-2.435 7.642,-8.978 7.642,-14.601l0,-105.163c0,-2.768 -0.829,-4.801 -2.175,-5.861c-0.807,-0.637 -4.029,-2.41 -4.803,-2.818c-1.323,-0.697 -3.02,-0.596 -4.871,0.472l-68.206,39.38c-4.218,2.435 -7.643,8.978 -7.643,14.602l0,102.542c0,3.053 1.01,7.833 2.608,8.778Z" style="fill:#b3b3b3;fill-opacity:0.3;"/><path d="M143.588,25.814c0,-5.624 -3.424,-8.213 -7.642,-5.778l-68.207,39.379c-4.218,2.436 -7.642,8.979 -7.642,14.602l-0,105.105c-0,5.624 3.424,8.213 7.642,5.778l68.207,-39.38c4.218,-2.435 7.642,-8.978 7.642,-14.601l0,-105.105Z" style="fill:#f6f6f6;"/><path d="M131.623,49.565l-61.151,35.305l0,2.91l61.151,-35.306l0,-2.909Z" style="fill:#b3b3b3;fill-opacity:0.3;"/><path d="M131.623,39.894l-61.151,35.305l0,2.909l61.151,-35.305l0,-2.909Z" style="fill:#b3b3b3;fill-opacity:0.3;"/><path d="M131.623,59.236l-61.151,35.305l0,2.91l61.151,-35.306l0,-2.909Z" style="fill:#b3b3b3;fill-opacity:0.3;"/><path d="M131.623,68.907l-61.151,35.305l0,2.91l61.151,-35.305l0,-2.91Z" style="fill:#b3b3b3;fill-opacity:0.3;"/><path d="M131.623,78.578l-61.151,35.306l0,2.909l61.151,-35.305l0,-2.91Z" style="fill:#b3b3b3;fill-opacity:0.3;"/><path d="M131.875,87.695l-61.151,35.305l0,2.91l61.151,-35.306l-0,-2.909Z" style="fill:#b3b3b3;fill-opacity:0.3;"/><path d="M55.89,128.999l-10.981,6.339l0,35.378l13.789,7.96l82.259,-47.492l-0,-35.377l-2.807,-1.621l-79.424,45.855l-2.836,-1.637l0,-9.405Z" style="fill:#001a35;"/><path d="M58.698,143.299l-13.789,-7.961l0,35.378l13.789,7.96l-0,-35.377Z" style="fill:#001a35;"/><path d="M58.698,143.299l-13.789,-7.961l0,35.378l13.789,7.96l-0,-35.377Z" style="fill:#fff;fill-opacity:0.09;"/><path d="M58.726,140.041l-8.146,-4.703l5.31,-3.065l0,-3.274l-10.981,6.339l13.789,7.961l82.259,-47.492l-2.807,-1.621l-79.424,45.855Z" style="fill:#001a35;"/><path d="M58.726,140.041l-8.146,-4.703l5.31,-3.065l0,-3.274l-10.981,6.339l13.789,7.961l82.259,-47.492l-2.807,-1.621l-79.424,45.855Z" style="fill:#fff;fill-opacity:0.09;"/><path d="M58.726,140.041l-8.146,-4.703l5.31,-3.065l0,-3.274l-10.981,6.339l13.789,7.961l82.259,-47.492l-2.807,-1.621l-79.424,45.855Z" style="fill:#fff;fill-opacity:0.09;"/><path d="M96.755,144.872c0.446,-0.258 0.841,-0.537 1.185,-0.837c0.344,-0.301 0.669,-0.624 0.975,-0.971l0,-2.816l-1.376,0.795c-0.204,0.118 -0.363,0.137 -0.478,0.059c-0.114,-0.078 -0.172,-0.228 -0.172,-0.449l0,-2.37l4.95,-2.858l0,7.837c-0.356,0.554 -0.727,1.068 -1.113,1.541c-0.385,0.473 -0.796,0.916 -1.233,1.33c-0.436,0.413 -0.901,0.8 -1.395,1.162c-0.494,0.362 -1.024,0.706 -1.591,1.033c-1.019,0.589 -1.962,0.893 -2.829,0.914c-0.866,0.02 -1.617,-0.21 -2.25,-0.689c-0.634,-0.479 -1.131,-1.195 -1.491,-2.146c-0.36,-0.952 -0.54,-2.107 -0.54,-3.467c-0,-1.384 0.172,-2.756 0.516,-4.114c0.344,-1.358 0.836,-2.642 1.476,-3.853c0.641,-1.211 1.415,-2.312 2.323,-3.303c0.907,-0.991 1.922,-1.811 3.043,-2.458c0.58,-0.335 1.125,-0.586 1.635,-0.753c0.509,-0.166 0.979,-0.264 1.409,-0.291c0.43,-0.027 0.824,0.009 1.18,0.109c0.357,0.099 0.676,0.247 0.956,0.442l-0.936,2.439c-0.09,0.23 -0.196,0.432 -0.321,0.605c-0.124,0.174 -0.259,0.303 -0.406,0.388c-0.191,0.11 -0.388,0.139 -0.592,0.087c-0.255,-0.057 -0.496,-0.094 -0.722,-0.112c-0.226,-0.018 -0.457,-0.006 -0.693,0.037c-0.235,0.042 -0.484,0.118 -0.745,0.226c-0.261,0.108 -0.554,0.256 -0.879,0.444c-0.606,0.35 -1.15,0.806 -1.634,1.37c-0.485,0.565 -0.897,1.204 -1.238,1.919c-0.341,0.715 -0.604,1.489 -0.788,2.322c-0.185,0.833 -0.278,1.695 -0.278,2.587c0,0.986 0.102,1.802 0.306,2.449c0.204,0.647 0.486,1.129 0.846,1.448c0.36,0.319 0.787,0.474 1.281,0.465c0.493,-0.009 1.033,-0.183 1.619,-0.521Z" style="fill:#98e5ff;fill-rule:nonzero;"/><path d="M108.223,127.942c0.752,-0.434 1.437,-0.672 2.055,-0.714c0.618,-0.043 1.148,0.101 1.591,0.432c0.443,0.33 0.787,0.843 1.032,1.538c0.246,0.695 0.368,1.565 0.368,2.61c0,1.053 -0.122,2.074 -0.368,3.06c-0.245,0.987 -0.589,1.904 -1.032,2.75c-0.443,0.846 -0.973,1.606 -1.591,2.282c-0.618,0.675 -1.303,1.23 -2.055,1.664c-0.758,0.438 -1.448,0.676 -2.069,0.717c-0.621,0.04 -1.156,-0.106 -1.605,-0.437c-0.449,-0.331 -0.797,-0.848 -1.042,-1.552c-0.245,-0.704 -0.368,-1.582 -0.368,-2.635c0,-1.045 0.123,-2.057 0.368,-3.035c0.245,-0.979 0.593,-1.89 1.042,-2.736c0.449,-0.845 0.984,-1.605 1.605,-2.278c0.621,-0.672 1.311,-1.228 2.069,-1.666Zm0,10.691c0.682,-0.393 1.184,-1.004 1.505,-1.831c0.322,-0.827 0.483,-1.895 0.483,-3.203c0,-1.308 -0.161,-2.188 -0.483,-2.639c-0.321,-0.452 -0.823,-0.48 -1.505,-0.087c-0.7,0.405 -1.213,1.019 -1.538,1.844c-0.325,0.825 -0.488,1.891 -0.488,3.2c0,1.308 0.163,2.189 0.488,2.642c0.325,0.454 0.838,0.479 1.538,0.074Z" style="fill:#98e5ff;fill-rule:nonzero;"/></svg>