<?xml version="1.0" encoding="UTF-8" standalone="no"?><!DOCTYPE svg PUBLIC "-//W3C//DTD SVG 1.1//EN" "http://www.w3.org/Graphics/SVG/1.1/DTD/svg11.dtd"><svg width="100%" height="100%" viewBox="0 0 200 200" version="1.1" xmlns="http://www.w3.org/2000/svg" xmlns:xlink="http://www.w3.org/1999/xlink" xml:space="preserve" xmlns:serif="http://www.serif.com/" style="fill-rule:evenodd;clip-rule:evenodd;stroke-linejoin:round;stroke-miterlimit:2;"><path d="M58.498,182.851c0.719,0.426 3.673,2.192 4.507,2.59c1.302,0.62 2.947,0.491 4.734,-0.541l68.207,-39.38c4.218,-2.435 7.642,-8.978 7.642,-14.601l0,-105.105c0,-2.768 -0.829,-4.801 -2.175,-5.861c-0.807,-0.637 -4.029,-2.41 -4.803,-2.818c-1.323,-0.697 -3.02,-0.596 -4.871,0.472l-68.206,39.38c-4.218,2.435 -7.643,8.978 -7.643,14.602l0,105.105c0,3.053 1.01,5.212 2.608,6.157Z" style="fill:#f6f6f6;"/><path d="M58.498,182.909c0.719,0.426 3.673,2.192 4.507,2.59c1.302,0.62 2.947,0.491 4.734,-0.541l68.207,-39.38c4.218,-2.435 7.642,-8.978 7.642,-14.601l0,-105.163c0,-2.768 -0.829,-4.801 -2.175,-5.861c-0.807,-0.637 -4.029,-2.41 -4.803,-2.818c-1.323,-0.697 -3.02,-0.596 -4.871,0.472l-68.206,39.38c-4.218,2.435 -7.643,8.978 -7.643,14.602l0,102.542c0,3.053 1.01,7.833 2.608,8.778Z" style="fill:#b3b3b3;fill-opacity:0.3;"/><path d="M143.588,25.814c0,-5.624 -3.424,-8.213 -7.642,-5.778l-68.207,39.379c-4.218,2.436 -7.642,8.979 -7.642,14.602l-0,105.105c-0,5.624 3.424,8.213 7.642,5.778l68.207,-39.38c4.218,-2.435 7.642,-8.978 7.642,-14.601l0,-105.105Z" style="fill:#f6f6f6;"/><path d="M131.623,49.565l-61.151,35.305l0,2.91l61.151,-35.306l0,-2.909Z" style="fill:#b3b3b3;fill-opacity:0.3;"/><path d="M131.623,39.894l-61.151,35.305l0,2.909l61.151,-35.305l0,-2.909Z" style="fill:#b3b3b3;fill-opacity:0.3;"/><path d="M131.623,59.236l-61.151,35.305l0,2.91l61.151,-35.306l0,-2.909Z" style="fill:#b3b3b3;fill-opacity:0.3;"/><path d="M131.623,68.907l-61.151,35.305l0,2.91l61.151,-35.305l0,-2.91Z" style="fill:#b3b3b3;fill-opacity:0.3;"/><path d="M131.623,78.578l-61.151,35.306l0,2.909l61.151,-35.305l0,-2.91Z" style="fill:#b3b3b3;fill-opacity:0.3;"/><path d="M131.875,87.695l-61.151,35.305l0,2.91l61.151,-35.306l-0,-2.909Z" style="fill:#b3b3b3;fill-opacity:0.3;"/><path d="M55.89,128.999l-10.981,6.339l0,35.378l13.789,7.96l82.259,-47.492l-0,-35.377l-2.807,-1.621l-79.424,45.855l-2.836,-1.637l0,-9.405Z" style="fill:#001a35;"/><path d="M58.698,143.299l-13.789,-7.961l0,35.378l13.789,7.96l-0,-35.377Z" style="fill:#001a35;"/><path d="M58.698,143.299l-13.789,-7.961l0,35.378l13.789,7.96l-0,-35.377Z" style="fill:#fff;fill-opacity:0.09;"/><path d="M58.726,140.041l-8.146,-4.703l5.31,-3.065l0,-3.274l-10.981,6.339l13.789,7.961l82.259,-47.492l-2.807,-1.621l-79.424,45.855Z" style="fill:#001a35;"/><path d="M58.726,140.041l-8.146,-4.703l5.31,-3.065l0,-3.274l-10.981,6.339l13.789,7.961l82.259,-47.492l-2.807,-1.621l-79.424,45.855Z" style="fill:#fff;fill-opacity:0.09;"/><path d="M58.726,140.041l-8.146,-4.703l5.31,-3.065l0,-3.274l-10.981,6.339l13.789,7.961l82.259,-47.492l-2.807,-1.621l-79.424,45.855Z" style="fill:#fff;fill-opacity:0.09;"/><path d="M82.099,148.839l-0,7.194l-3.384,1.954l0,-19.448l4.745,-2.74c1.055,-0.608 1.954,-0.983 2.698,-1.123c0.744,-0.141 1.352,-0.089 1.822,0.156c0.471,0.244 0.813,0.656 1.026,1.236c0.214,0.58 0.321,1.283 0.321,2.111c-0,0.632 -0.064,1.264 -0.19,1.898c-0.127,0.634 -0.316,1.261 -0.566,1.882c-0.25,0.62 -0.557,1.223 -0.921,1.806c-0.364,0.584 -0.783,1.133 -1.256,1.647c0.226,0.02 0.438,0.084 0.635,0.193c0.197,0.109 0.369,0.281 0.516,0.517l3.103,4.975l-3.063,1.769c-0.567,0.328 -0.975,0.278 -1.221,-0.149l-2.423,-4.248c-0.107,-0.187 -0.232,-0.293 -0.376,-0.317c-0.143,-0.024 -0.345,0.04 -0.605,0.19l-0.861,0.497Zm-0,-3.11l1.361,-0.786c0.461,-0.266 0.853,-0.57 1.177,-0.913c0.323,-0.343 0.589,-0.712 0.796,-1.107c0.206,-0.395 0.357,-0.804 0.45,-1.228c0.093,-0.423 0.14,-0.848 0.14,-1.275c0,-0.854 -0.208,-1.401 -0.626,-1.641c-0.417,-0.24 -1.062,-0.107 -1.937,0.397l-1.361,0.787l-0,5.766Z" style="fill:#ef3628;fill-rule:nonzero;"/><path d="M94.933,134.782l-0,8.783c-0,0.685 0.117,1.147 0.35,1.386c0.234,0.239 0.578,0.227 1.031,-0.035c0.341,-0.196 0.659,-0.474 0.956,-0.832c0.297,-0.358 0.586,-0.788 0.866,-1.288l0,-9.864l3.104,-1.791l-0,13.841l-1.922,1.11c-0.387,0.224 -0.641,0.139 -0.761,-0.255l-0.19,-0.691c-0.201,0.374 -0.408,0.727 -0.621,1.059c-0.214,0.333 -0.442,0.643 -0.686,0.93c-0.243,0.288 -0.505,0.555 -0.786,0.801c-0.28,0.246 -0.587,0.466 -0.921,0.658c-0.567,0.328 -1.069,0.487 -1.506,0.477c-0.437,-0.011 -0.806,-0.165 -1.107,-0.463c-0.3,-0.298 -0.527,-0.723 -0.68,-1.275c-0.154,-0.553 -0.231,-1.211 -0.231,-1.976l0,-8.783l3.104,-1.792Z" style="fill:#ef3628;fill-rule:nonzero;"/><path d="M103.642,143.595l0,-19.982l3.104,-1.791l-0,7.608c0.387,-0.731 0.826,-1.391 1.316,-1.981c0.491,-0.591 1.066,-1.076 1.727,-1.458c0.541,-0.312 1.041,-0.445 1.502,-0.4c0.46,0.046 0.857,0.273 1.191,0.681c0.334,0.408 0.596,0.993 0.786,1.755c0.19,0.762 0.285,1.7 0.285,2.812c0,1.041 -0.108,2.065 -0.325,3.071c-0.217,1.006 -0.521,1.947 -0.911,2.822c-0.391,0.875 -0.858,1.652 -1.402,2.33c-0.544,0.679 -1.146,1.21 -1.807,1.591c-0.307,0.177 -0.582,0.296 -0.826,0.357c-0.243,0.06 -0.467,0.076 -0.67,0.047c-0.204,-0.03 -0.391,-0.098 -0.561,-0.204c-0.17,-0.106 -0.335,-0.233 -0.495,-0.381l-0.111,0.757c-0.046,0.312 -0.131,0.557 -0.255,0.735c-0.123,0.178 -0.285,0.325 -0.485,0.441l-2.063,1.19Zm5.066,-13.87c-0.227,0.131 -0.432,0.279 -0.616,0.443c-0.183,0.163 -0.354,0.344 -0.51,0.541c-0.157,0.198 -0.302,0.417 -0.436,0.659c-0.133,0.242 -0.267,0.508 -0.4,0.798l-0,5.873c0.233,0.213 0.487,0.309 0.761,0.289c0.273,-0.02 0.56,-0.117 0.861,-0.291c0.286,-0.165 0.55,-0.393 0.79,-0.683c0.241,-0.29 0.449,-0.653 0.626,-1.089c0.177,-0.436 0.315,-0.949 0.415,-1.541c0.101,-0.592 0.151,-1.27 0.151,-2.036c-0,-0.729 -0.04,-1.32 -0.12,-1.772c-0.081,-0.452 -0.192,-0.79 -0.336,-1.015c-0.143,-0.224 -0.315,-0.345 -0.515,-0.363c-0.201,-0.018 -0.424,0.045 -0.671,0.187Z" style="fill:#ef3628;fill-rule:nonzero;"/><path d="M119.099,138.262c-0.093,0.33 -0.207,0.598 -0.34,0.804c-0.134,0.206 -0.347,0.394 -0.641,0.563l-2.322,1.341l2.002,-6.762l-4.145,-10.234l2.743,-1.584c0.241,-0.139 0.427,-0.175 0.561,-0.11c0.133,0.065 0.227,0.18 0.28,0.345l1.702,4.984c0.16,0.459 0.29,0.936 0.39,1.43c0.067,-0.323 0.141,-0.646 0.221,-0.968c0.08,-0.322 0.157,-0.647 0.23,-0.974l1.542,-6.83c0.053,-0.235 0.158,-0.467 0.315,-0.696c0.157,-0.228 0.325,-0.395 0.506,-0.499l2.502,-1.445l-5.546,20.635Z" style="fill:#ef3628;fill-rule:nonzero;"/></svg>