<?xml version="1.0" encoding="UTF-8" standalone="no"?><!DOCTYPE svg PUBLIC "-//W3C//DTD SVG 1.1//EN" "http://www.w3.org/Graphics/SVG/1.1/DTD/svg11.dtd"><svg width="100%" height="100%" viewBox="0 0 200 200" version="1.1" xmlns="http://www.w3.org/2000/svg" xmlns:xlink="http://www.w3.org/1999/xlink" xml:space="preserve" xmlns:serif="http://www.serif.com/" style="fill-rule:evenodd;clip-rule:evenodd;stroke-linejoin:round;stroke-miterlimit:2;"><path d="M58.498,182.851c0.719,0.426 3.673,2.192 4.507,2.59c1.302,0.62 2.947,0.491 4.734,-0.541l68.207,-39.38c4.218,-2.435 7.642,-8.978 7.642,-14.601l0,-105.105c0,-2.768 -0.829,-4.801 -2.175,-5.861c-0.807,-0.637 -4.029,-2.41 -4.803,-2.818c-1.323,-0.697 -3.02,-0.596 -4.871,0.472l-68.206,39.38c-4.218,2.435 -7.643,8.978 -7.643,14.602l0,105.105c0,3.053 1.01,5.212 2.608,6.157Z" style="fill:#f6f6f6;"/><path d="M58.498,182.909c0.719,0.426 3.673,2.192 4.507,2.59c1.302,0.62 2.947,0.491 4.734,-0.541l68.207,-39.38c4.218,-2.435 7.642,-8.978 7.642,-14.601l0,-105.163c0,-2.768 -0.829,-4.801 -2.175,-5.861c-0.807,-0.637 -4.029,-2.41 -4.803,-2.818c-1.323,-0.697 -3.02,-0.596 -4.871,0.472l-68.206,39.38c-4.218,2.435 -7.643,8.978 -7.643,14.602l0,102.542c0,3.053 1.01,7.833 2.608,8.778Z" style="fill:#b3b3b3;fill-opacity:0.3;"/><path d="M143.588,25.814c0,-5.624 -3.424,-8.213 -7.642,-5.778l-68.207,39.379c-4.218,2.436 -7.642,8.979 -7.642,14.602l-0,105.105c-0,5.624 3.424,8.213 7.642,5.778l68.207,-39.38c4.218,-2.435 7.642,-8.978 7.642,-14.601l0,-105.105Z" style="fill:#f6f6f6;"/><path d="M131.623,49.565l-61.151,35.305l0,2.91l61.151,-35.306l0,-2.909Z" style="fill:#b3b3b3;fill-opacity:0.3;"/><path d="M131.623,39.894l-61.151,35.305l0,2.909l61.151,-35.305l0,-2.909Z" style="fill:#b3b3b3;fill-opacity:0.3;"/><path d="M131.623,59.236l-61.151,35.305l0,2.91l61.151,-35.306l0,-2.909Z" style="fill:#b3b3b3;fill-opacity:0.3;"/><path d="M131.623,68.907l-61.151,35.305l0,2.91l61.151,-35.305l0,-2.91Z" style="fill:#b3b3b3;fill-opacity:0.3;"/><path d="M131.623,78.578l-61.151,35.306l0,2.909l61.151,-35.305l0,-2.91Z" style="fill:#b3b3b3;fill-opacity:0.3;"/><path d="M131.875,87.695l-61.151,35.305l0,2.91l61.151,-35.306l-0,-2.909Z" style="fill:#b3b3b3;fill-opacity:0.3;"/><path d="M55.89,128.999l-10.981,6.339l0,35.378l13.789,7.96l82.259,-47.492l-0,-35.377l-2.807,-1.621l-79.424,45.855l-2.836,-1.637l0,-9.405Z" style="fill:#001a35;"/><path d="M58.698,143.299l-13.789,-7.961l0,35.378l13.789,7.96l-0,-35.377Z" style="fill:#001a35;"/><path d="M58.698,143.299l-13.789,-7.961l0,35.378l13.789,7.96l-0,-35.377Z" style="fill:#fff;fill-opacity:0.09;"/><path d="M58.726,140.041l-8.146,-4.703l5.31,-3.065l0,-3.274l-10.981,6.339l13.789,7.961l82.259,-47.492l-2.807,-1.621l-79.424,45.855Z" style="fill:#001a35;"/><path d="M58.726,140.041l-8.146,-4.703l5.31,-3.065l0,-3.274l-10.981,6.339l13.789,7.961l82.259,-47.492l-2.807,-1.621l-79.424,45.855Z" style="fill:#fff;fill-opacity:0.09;"/><path d="M58.726,140.041l-8.146,-4.703l5.31,-3.065l0,-3.274l-10.981,6.339l13.789,7.961l82.259,-47.492l-2.807,-1.621l-79.424,45.855Z" style="fill:#fff;fill-opacity:0.09;"/><path d="M98.85,142.596c0.076,-0.044 0.152,-0.069 0.228,-0.075c0.076,-0.006 0.148,0.018 0.218,0.07l1.272,1.051c-0.557,1.292 -1.255,2.427 -2.093,3.405c-0.839,0.978 -1.831,1.797 -2.977,2.459c-1.051,0.607 -1.992,0.912 -2.825,0.915c-0.832,0.004 -1.538,-0.247 -2.117,-0.752c-0.579,-0.505 -1.024,-1.245 -1.334,-2.217c-0.31,-0.973 -0.465,-2.135 -0.465,-3.485c-0,-1.376 0.177,-2.742 0.532,-4.099c0.354,-1.357 0.849,-2.636 1.486,-3.839c0.636,-1.203 1.397,-2.292 2.283,-3.268c0.886,-0.976 1.864,-1.772 2.934,-2.39c0.519,-0.3 1.008,-0.521 1.467,-0.663c0.459,-0.143 0.887,-0.222 1.286,-0.237c0.399,-0.015 0.766,0.031 1.102,0.137c0.335,0.105 0.633,0.265 0.892,0.478l-1.082,2.562c-0.07,0.158 -0.152,0.313 -0.247,0.465c-0.095,0.152 -0.228,0.277 -0.399,0.376c-0.114,0.066 -0.221,0.094 -0.323,0.085c-0.101,-0.009 -0.209,-0.029 -0.323,-0.06c-0.113,-0.032 -0.238,-0.065 -0.375,-0.1c-0.136,-0.036 -0.297,-0.048 -0.484,-0.037c-0.187,0.01 -0.405,0.054 -0.655,0.131c-0.25,0.077 -0.543,0.212 -0.878,0.406c-0.583,0.336 -1.114,0.78 -1.595,1.332c-0.481,0.552 -0.894,1.183 -1.239,1.893c-0.345,0.71 -0.614,1.483 -0.807,2.32c-0.193,0.838 -0.29,1.708 -0.29,2.611c0,0.945 0.097,1.729 0.29,2.352c0.193,0.623 0.455,1.089 0.788,1.4c0.332,0.31 0.72,0.468 1.163,0.474c0.443,0.006 0.918,-0.138 1.424,-0.43c0.291,-0.168 0.557,-0.341 0.798,-0.517c0.24,-0.177 0.463,-0.372 0.669,-0.583c0.206,-0.212 0.402,-0.445 0.589,-0.701c0.186,-0.255 0.375,-0.548 0.564,-0.877c0.076,-0.128 0.159,-0.245 0.247,-0.351c0.089,-0.106 0.181,-0.186 0.276,-0.241Z" style="fill:#c2aad8;fill-rule:nonzero;"/><path d="M109.075,136.464l-0.664,5.384l-1.367,0.79c-0.121,0.069 -0.233,0.1 -0.338,0.093c-0.104,-0.007 -0.194,-0.046 -0.27,-0.116c-0.076,-0.07 -0.136,-0.17 -0.181,-0.301c-0.044,-0.131 -0.066,-0.284 -0.066,-0.462c-0,-0.042 0.002,-0.089 0.005,-0.142c0.003,-0.052 0.008,-0.101 0.014,-0.147l0.456,-3.707l-1.567,0.905l-0.465,3.902c-0.032,0.263 -0.089,0.505 -0.171,0.725c-0.082,0.221 -0.184,0.42 -0.304,0.6c-0.12,0.179 -0.251,0.335 -0.394,0.468c-0.142,0.132 -0.289,0.243 -0.441,0.33l-1.311,0.757l0.665,-5.384l-0.836,0.482c-0.24,0.139 -0.427,0.169 -0.56,0.089c-0.133,-0.079 -0.199,-0.304 -0.199,-0.676c-0,-0.076 0.003,-0.158 0.009,-0.246c0.007,-0.088 0.016,-0.182 0.029,-0.282l0.152,-1.303l1.68,-0.97l0.399,-3.218l-1.889,1.091l0.228,-1.727c0.057,-0.421 0.182,-0.78 0.375,-1.077c0.193,-0.298 0.498,-0.567 0.916,-0.808l0.645,-0.373l0.494,-3.994c0.051,-0.426 0.193,-0.818 0.427,-1.177c0.235,-0.359 0.504,-0.626 0.807,-0.801l1.349,-0.779l-0.665,5.359l1.576,-0.91l0.665,-5.359l1.31,-0.756c0.279,-0.161 0.505,-0.19 0.679,-0.088c0.174,0.102 0.261,0.313 0.261,0.634l0,0.095c0,0.029 -0.003,0.067 -0.009,0.113l-0.494,3.969l1.842,-1.064l-0.228,1.727c-0.057,0.429 -0.182,0.791 -0.375,1.084c-0.193,0.293 -0.499,0.56 -0.916,0.801l-0.599,0.345l-0.398,3.218l1.035,-0.598c0.24,-0.138 0.427,-0.168 0.56,-0.089c0.133,0.08 0.199,0.305 0.199,0.676c0,0.076 -0.003,0.158 -0.009,0.246c-0.007,0.088 -0.016,0.182 -0.029,0.283l-0.152,1.303l-1.88,1.085Zm-3.712,-0.604l1.576,-0.91l0.399,-3.218l-1.576,0.91l-0.399,3.218Z" style="fill:#c2aad8;fill-rule:nonzero;"/></svg>