<?xml version="1.0" encoding="UTF-8" standalone="no"?><!DOCTYPE svg PUBLIC "-//W3C//DTD SVG 1.1//EN" "http://www.w3.org/Graphics/SVG/1.1/DTD/svg11.dtd"><svg width="100%" height="100%" viewBox="0 0 200 200" version="1.1" xmlns="http://www.w3.org/2000/svg" xmlns:xlink="http://www.w3.org/1999/xlink" xml:space="preserve" xmlns:serif="http://www.serif.com/" style="fill-rule:evenodd;clip-rule:evenodd;stroke-linejoin:round;stroke-miterlimit:2;"><path d="M58.498,182.851c0.719,0.426 3.673,2.192 4.507,2.59c1.302,0.62 2.947,0.491 4.734,-0.541l68.207,-39.38c4.218,-2.435 7.642,-8.978 7.642,-14.601l0,-105.105c0,-2.768 -0.829,-4.801 -2.175,-5.861c-0.807,-0.637 -4.029,-2.41 -4.803,-2.818c-1.323,-0.697 -3.02,-0.596 -4.871,0.472l-68.206,39.38c-4.218,2.435 -7.643,8.978 -7.643,14.602l0,105.105c0,3.053 1.01,5.212 2.608,6.157Z" style="fill:#f6f6f6;"/><path d="M58.498,182.909c0.719,0.426 3.673,2.192 4.507,2.59c1.302,0.62 2.947,0.491 4.734,-0.541l68.207,-39.38c4.218,-2.435 7.642,-8.978 7.642,-14.601l0,-105.163c0,-2.768 -0.829,-4.801 -2.175,-5.861c-0.807,-0.637 -4.029,-2.41 -4.803,-2.818c-1.323,-0.697 -3.02,-0.596 -4.871,0.472l-68.206,39.38c-4.218,2.435 -7.643,8.978 -7.643,14.602l0,102.542c0,3.053 1.01,7.833 2.608,8.778Z" style="fill:#b3b3b3;fill-opacity:0.3;"/><path d="M143.588,25.814c0,-5.624 -3.424,-8.213 -7.642,-5.778l-68.207,39.379c-4.218,2.436 -7.642,8.979 -7.642,14.602l-0,105.105c-0,5.624 3.424,8.213 7.642,5.778l68.207,-39.38c4.218,-2.435 7.642,-8.978 7.642,-14.601l0,-105.105Z" style="fill:#f6f6f6;"/><path d="M131.623,49.565l-61.151,35.305l0,2.91l61.151,-35.306l0,-2.909Z" style="fill:#b3b3b3;fill-opacity:0.3;"/><path d="M131.623,39.894l-61.151,35.305l0,2.909l61.151,-35.305l0,-2.909Z" style="fill:#b3b3b3;fill-opacity:0.3;"/><path d="M131.623,59.236l-61.151,35.305l0,2.91l61.151,-35.306l0,-2.909Z" style="fill:#b3b3b3;fill-opacity:0.3;"/><path d="M131.623,68.907l-61.151,35.305l0,2.91l61.151,-35.305l0,-2.91Z" style="fill:#b3b3b3;fill-opacity:0.3;"/><path d="M131.623,78.578l-61.151,35.306l0,2.909l61.151,-35.305l0,-2.91Z" style="fill:#b3b3b3;fill-opacity:0.3;"/><path d="M131.875,87.695l-61.151,35.305l0,2.91l61.151,-35.306l-0,-2.909Z" style="fill:#b3b3b3;fill-opacity:0.3;"/><path d="M55.89,128.999l-10.981,6.339l0,35.378l13.789,7.96l82.259,-47.492l-0,-35.377l-2.807,-1.621l-79.424,45.855l-2.836,-1.637l0,-9.405Z" style="fill:#001a35;"/><path d="M58.698,143.299l-13.789,-7.961l0,35.378l13.789,7.96l-0,-35.377Z" style="fill:#001a35;"/><path d="M58.698,143.299l-13.789,-7.961l0,35.378l13.789,7.96l-0,-35.377Z" style="fill:#fff;fill-opacity:0.09;"/><path d="M58.726,140.041l-8.146,-4.703l5.31,-3.065l0,-3.274l-10.981,6.339l13.789,7.961l82.259,-47.492l-2.807,-1.621l-79.424,45.855Z" style="fill:#001a35;"/><path d="M58.726,140.041l-8.146,-4.703l5.31,-3.065l0,-3.274l-10.981,6.339l13.789,7.961l82.259,-47.492l-2.807,-1.621l-79.424,45.855Z" style="fill:#fff;fill-opacity:0.09;"/><path d="M58.726,140.041l-8.146,-4.703l5.31,-3.065l0,-3.274l-10.981,6.339l13.789,7.961l82.259,-47.492l-2.807,-1.621l-79.424,45.855Z" style="fill:#fff;fill-opacity:0.09;"/><path d="M93.597,145.775c0.082,-0.048 0.164,-0.074 0.246,-0.081c0.082,-0.006 0.16,0.019 0.235,0.076l1.372,1.132c-0.6,1.394 -1.353,2.617 -2.257,3.672c-0.904,1.054 -1.974,1.938 -3.209,2.651c-1.133,0.654 -2.148,0.983 -3.046,0.987c-0.897,0.004 -1.658,-0.266 -2.282,-0.811c-0.625,-0.545 -1.104,-1.342 -1.439,-2.391c-0.334,-1.049 -0.501,-2.301 -0.501,-3.757c-0,-1.483 0.191,-2.956 0.573,-4.419c0.382,-1.463 0.916,-2.842 1.602,-4.139c0.686,-1.297 1.506,-2.471 2.462,-3.524c0.955,-1.052 2.01,-1.911 3.163,-2.576c0.56,-0.324 1.087,-0.562 1.582,-0.716c0.494,-0.153 0.957,-0.238 1.387,-0.255c0.43,-0.016 0.825,0.033 1.187,0.147c0.362,0.115 0.683,0.287 0.962,0.516l-1.167,2.762c-0.075,0.171 -0.163,0.338 -0.266,0.502c-0.102,0.164 -0.245,0.299 -0.43,0.405c-0.123,0.071 -0.239,0.102 -0.348,0.092c-0.109,-0.01 -0.225,-0.031 -0.348,-0.065c-0.123,-0.034 -0.257,-0.07 -0.404,-0.108c-0.147,-0.038 -0.321,-0.051 -0.522,-0.04c-0.202,0.012 -0.437,0.059 -0.707,0.142c-0.269,0.083 -0.585,0.229 -0.946,0.437c-0.628,0.363 -1.202,0.842 -1.72,1.437c-0.519,0.595 -0.964,1.275 -1.336,2.04c-0.372,0.766 -0.662,1.6 -0.87,2.502c-0.208,0.903 -0.312,1.841 -0.312,2.815c-0,1.019 0.104,1.864 0.312,2.536c0.208,0.671 0.491,1.174 0.849,1.509c0.359,0.334 0.777,0.505 1.254,0.511c0.478,0.006 0.99,-0.148 1.536,-0.463c0.314,-0.182 0.6,-0.368 0.86,-0.558c0.259,-0.191 0.5,-0.4 0.722,-0.628c0.221,-0.229 0.433,-0.48 0.634,-0.756c0.201,-0.275 0.405,-0.591 0.609,-0.945c0.082,-0.139 0.171,-0.265 0.266,-0.379c0.096,-0.114 0.195,-0.201 0.297,-0.26Z" style="fill:#71c6fa;fill-rule:nonzero;"/><path d="M105.339,128.295c-0.103,0.278 -0.21,0.503 -0.323,0.678c-0.112,0.174 -0.257,0.312 -0.435,0.415c-0.157,0.09 -0.326,0.122 -0.507,0.094c-0.18,-0.027 -0.385,-0.057 -0.614,-0.089c-0.228,-0.032 -0.489,-0.029 -0.783,0.009c-0.293,0.037 -0.628,0.164 -1.003,0.381c-0.648,0.374 -1.131,0.837 -1.448,1.389c-0.318,0.552 -0.477,1.142 -0.477,1.77c0,0.4 0.096,0.677 0.287,0.83c0.191,0.154 0.442,0.237 0.753,0.248c0.31,0.012 0.665,-0.017 1.064,-0.089c0.399,-0.071 0.807,-0.129 1.223,-0.174c0.417,-0.044 0.824,-0.05 1.224,-0.017c0.399,0.034 0.754,0.165 1.064,0.396c0.311,0.23 0.562,0.583 0.753,1.06c0.191,0.476 0.286,1.129 0.286,1.957c0,0.919 -0.119,1.848 -0.358,2.786c-0.239,0.939 -0.585,1.837 -1.039,2.695c-0.454,0.858 -1.013,1.65 -1.679,2.375c-0.665,0.726 -1.421,1.333 -2.267,1.821c-0.464,0.268 -0.937,0.477 -1.418,0.628c-0.481,0.15 -0.947,0.239 -1.397,0.267c-0.451,0.028 -0.874,-0.003 -1.27,-0.093c-0.395,-0.09 -0.74,-0.245 -1.034,-0.467l1.024,-2.748c0.075,-0.207 0.181,-0.4 0.317,-0.579c0.137,-0.179 0.284,-0.313 0.441,-0.404c0.204,-0.118 0.411,-0.151 0.619,-0.098c0.208,0.052 0.444,0.108 0.706,0.165c0.263,0.058 0.565,0.074 0.906,0.05c0.341,-0.024 0.744,-0.17 1.208,-0.438c0.628,-0.362 1.116,-0.828 1.464,-1.398c0.348,-0.569 0.522,-1.254 0.522,-2.055c0,-0.464 -0.095,-0.786 -0.287,-0.967c-0.191,-0.181 -0.441,-0.278 -0.752,-0.289c-0.31,-0.012 -0.664,0.023 -1.059,0.106c-0.396,0.083 -0.802,0.156 -1.219,0.219c-0.416,0.063 -0.822,0.079 -1.218,0.048c-0.396,-0.031 -0.749,-0.168 -1.059,-0.412c-0.311,-0.244 -0.562,-0.626 -0.753,-1.149c-0.191,-0.522 -0.286,-1.247 -0.286,-2.175c-0,-0.746 0.112,-1.539 0.338,-2.379c0.225,-0.839 0.556,-1.663 0.992,-2.47c0.437,-0.807 0.973,-1.56 1.608,-2.259c0.634,-0.698 1.361,-1.284 2.18,-1.757c0.457,-0.264 0.903,-0.473 1.336,-0.628c0.433,-0.154 0.844,-0.251 1.233,-0.289c0.389,-0.038 0.753,-0.025 1.091,0.039c0.337,0.065 0.639,0.184 0.906,0.358l-0.86,2.639Z" style="fill:#71c6fa;fill-rule:nonzero;"/><path d="M116.435,121.889c-0.102,0.277 -0.21,0.503 -0.322,0.677c-0.113,0.174 -0.258,0.313 -0.435,0.415c-0.157,0.091 -0.326,0.122 -0.507,0.095c-0.181,-0.028 -0.386,-0.058 -0.614,-0.089c-0.229,-0.032 -0.49,-0.029 -0.783,0.008c-0.294,0.038 -0.628,0.165 -1.003,0.381c-0.649,0.375 -1.132,0.838 -1.449,1.39c-0.317,0.551 -0.476,1.141 -0.476,1.769c0,0.4 0.096,0.677 0.287,0.831c0.191,0.153 0.442,0.236 0.752,0.248c0.311,0.012 0.665,-0.018 1.065,-0.089c0.399,-0.072 0.807,-0.13 1.223,-0.174c0.416,-0.045 0.824,-0.051 1.223,-0.017c0.399,0.033 0.754,0.165 1.065,0.395c0.31,0.23 0.561,0.584 0.752,1.06c0.191,0.477 0.287,1.129 0.287,1.957c-0,0.919 -0.12,1.848 -0.358,2.787c-0.239,0.938 -0.586,1.837 -1.039,2.695c-0.454,0.858 -1.014,1.649 -1.679,2.375c-0.666,0.725 -1.421,1.332 -2.268,1.821c-0.464,0.268 -0.936,0.477 -1.417,0.627c-0.482,0.151 -0.947,0.24 -1.398,0.268c-0.45,0.028 -0.873,-0.003 -1.269,-0.093c-0.396,-0.09 -0.741,-0.246 -1.034,-0.468l1.024,-2.747c0.075,-0.208 0.181,-0.401 0.317,-0.579c0.136,-0.179 0.283,-0.314 0.44,-0.405c0.205,-0.118 0.411,-0.151 0.619,-0.098c0.209,0.053 0.444,0.108 0.707,0.166c0.263,0.057 0.565,0.074 0.906,0.05c0.341,-0.024 0.744,-0.17 1.208,-0.438c0.628,-0.363 1.115,-0.829 1.464,-1.398c0.348,-0.57 0.522,-1.255 0.522,-2.056c-0,-0.464 -0.096,-0.786 -0.287,-0.967c-0.191,-0.181 -0.442,-0.277 -0.752,-0.289c-0.311,-0.012 -0.664,0.024 -1.06,0.107c-0.396,0.083 -0.802,0.156 -1.218,0.219c-0.416,0.062 -0.822,0.078 -1.218,0.048c-0.396,-0.031 -0.749,-0.168 -1.06,-0.412c-0.31,-0.244 -0.561,-0.627 -0.752,-1.149c-0.191,-0.522 -0.287,-1.247 -0.287,-2.175c0,-0.747 0.113,-1.54 0.338,-2.379c0.225,-0.84 0.556,-1.664 0.993,-2.471c0.437,-0.807 0.972,-1.56 1.607,-2.258c0.635,-0.699 1.362,-1.285 2.181,-1.757c0.457,-0.264 0.902,-0.474 1.335,-0.628c0.434,-0.155 0.845,-0.251 1.234,-0.289c0.389,-0.039 0.752,-0.025 1.09,0.039c0.338,0.064 0.64,0.183 0.906,0.357l-0.86,2.64Z" style="fill:#71c6fa;fill-rule:nonzero;"/></svg>