<?xml version="1.0" encoding="UTF-8" standalone="no"?><!DOCTYPE svg PUBLIC "-//W3C//DTD SVG 1.1//EN" "http://www.w3.org/Graphics/SVG/1.1/DTD/svg11.dtd"><svg width="100%" height="100%" viewBox="0 0 200 200" version="1.1" xmlns="http://www.w3.org/2000/svg" xmlns:xlink="http://www.w3.org/1999/xlink" xml:space="preserve" xmlns:serif="http://www.serif.com/" style="fill-rule:evenodd;clip-rule:evenodd;stroke-linejoin:round;stroke-miterlimit:2;"><path d="M58.498,182.851c0.719,0.426 3.673,2.192 4.507,2.59c1.302,0.62 2.947,0.491 4.734,-0.541l68.207,-39.38c4.218,-2.435 7.642,-8.978 7.642,-14.601l0,-105.105c0,-2.768 -0.829,-4.801 -2.175,-5.861c-0.807,-0.637 -4.029,-2.41 -4.803,-2.818c-1.323,-0.697 -3.02,-0.596 -4.871,0.472l-68.206,39.38c-4.218,2.435 -7.643,8.978 -7.643,14.602l0,105.105c0,3.053 1.01,5.212 2.608,6.157Z" style="fill:#f6f6f6;"/><path d="M58.498,182.909c0.719,0.426 3.673,2.192 4.507,2.59c1.302,0.62 2.947,0.491 4.734,-0.541l68.207,-39.38c4.218,-2.435 7.642,-8.978 7.642,-14.601l0,-105.163c0,-2.768 -0.829,-4.801 -2.175,-5.861c-0.807,-0.637 -4.029,-2.41 -4.803,-2.818c-1.323,-0.697 -3.02,-0.596 -4.871,0.472l-68.206,39.38c-4.218,2.435 -7.643,8.978 -7.643,14.602l0,102.542c0,3.053 1.01,7.833 2.608,8.778Z" style="fill:#b3b3b3;fill-opacity:0.3;"/><path d="M143.588,25.814c0,-5.624 -3.424,-8.213 -7.642,-5.778l-68.207,39.379c-4.218,2.436 -7.642,8.979 -7.642,14.602l-0,105.105c-0,5.624 3.424,8.213 7.642,5.778l68.207,-39.38c4.218,-2.435 7.642,-8.978 7.642,-14.601l0,-105.105Z" style="fill:#f6f6f6;"/><path d="M131.623,49.565l-61.151,35.305l0,2.91l61.151,-35.306l0,-2.909Z" style="fill:#b3b3b3;fill-opacity:0.3;"/><path d="M131.623,39.894l-61.151,35.305l0,2.909l61.151,-35.305l0,-2.909Z" style="fill:#b3b3b3;fill-opacity:0.3;"/><path d="M131.623,59.236l-61.151,35.305l0,2.91l61.151,-35.306l0,-2.909Z" style="fill:#b3b3b3;fill-opacity:0.3;"/><path d="M131.623,68.907l-61.151,35.305l0,2.91l61.151,-35.305l0,-2.91Z" style="fill:#b3b3b3;fill-opacity:0.3;"/><path d="M131.623,78.578l-61.151,35.306l0,2.909l61.151,-35.305l0,-2.91Z" style="fill:#b3b3b3;fill-opacity:0.3;"/><path d="M131.875,87.695l-61.151,35.305l0,2.91l61.151,-35.306l-0,-2.909Z" style="fill:#b3b3b3;fill-opacity:0.3;"/><path d="M55.89,128.999l-10.981,6.339l0,35.378l13.789,7.96l82.259,-47.492l-0,-35.377l-2.807,-1.621l-79.424,45.855l-2.836,-1.637l0,-9.405Z" style="fill:#001a35;"/><path d="M58.698,143.299l-13.789,-7.961l0,35.378l13.789,7.96l-0,-35.377Z" style="fill:#001a35;"/><path d="M58.698,143.299l-13.789,-7.961l0,35.378l13.789,7.96l-0,-35.377Z" style="fill:#fff;fill-opacity:0.09;"/><path d="M58.726,140.041l-8.146,-4.703l5.31,-3.065l0,-3.274l-10.981,6.339l13.789,7.961l82.259,-47.492l-2.807,-1.621l-79.424,45.855Z" style="fill:#001a35;"/><path d="M58.726,140.041l-8.146,-4.703l5.31,-3.065l0,-3.274l-10.981,6.339l13.789,7.961l82.259,-47.492l-2.807,-1.621l-79.424,45.855Z" style="fill:#fff;fill-opacity:0.09;"/><path d="M58.726,140.041l-8.146,-4.703l5.31,-3.065l0,-3.274l-10.981,6.339l13.789,7.961l82.259,-47.492l-2.807,-1.621l-79.424,45.855Z" style="fill:#fff;fill-opacity:0.09;"/><path d="M89.048,145.877c-0,1.005 -0.094,1.975 -0.283,2.908c-0.189,0.934 -0.473,1.805 -0.853,2.614c-0.381,0.809 -0.858,1.542 -1.433,2.2c-0.575,0.658 -1.252,1.212 -2.032,1.661c-0.352,0.204 -0.7,0.38 -1.043,0.529c-0.343,0.148 -0.7,0.272 -1.071,0.371l0.167,-2.533c0.012,-0.221 0.075,-0.431 0.19,-0.629c0.114,-0.198 0.273,-0.356 0.477,-0.474c0.106,-0.06 0.235,-0.113 0.39,-0.157c0.155,-0.044 0.34,-0.128 0.557,-0.253c0.303,-0.175 0.567,-0.383 0.793,-0.625c0.225,-0.241 0.412,-0.535 0.561,-0.88c0.148,-0.346 0.259,-0.75 0.334,-1.213c0.074,-0.464 0.111,-1.004 0.111,-1.623l-0,-11.575l3.135,-1.81l-0,11.489Z" style="fill:#ff8e16;fill-rule:nonzero;"/><path d="M97.915,147.287c-0.272,0.157 -0.478,0.226 -0.617,0.208c-0.139,-0.019 -0.255,-0.158 -0.348,-0.418l-0.204,-0.587c-0.241,0.411 -0.473,0.784 -0.695,1.119c-0.223,0.335 -0.453,0.643 -0.691,0.924c-0.238,0.282 -0.492,0.536 -0.761,0.761c-0.269,0.225 -0.567,0.433 -0.895,0.622c-0.439,0.253 -0.838,0.407 -1.196,0.462c-0.359,0.055 -0.664,0.006 -0.914,-0.147c-0.25,-0.152 -0.444,-0.409 -0.58,-0.772c-0.136,-0.362 -0.204,-0.832 -0.204,-1.409c0,-0.454 0.087,-0.969 0.26,-1.548c0.173,-0.578 0.473,-1.186 0.9,-1.824c0.426,-0.638 1.001,-1.297 1.725,-1.979c0.723,-0.681 1.635,-1.356 2.736,-2.025l0,-0.544c0,-0.75 -0.116,-1.225 -0.348,-1.426c-0.232,-0.2 -0.561,-0.176 -0.988,0.07c-0.34,0.196 -0.618,0.406 -0.834,0.63c-0.217,0.224 -0.41,0.447 -0.58,0.669c-0.17,0.222 -0.336,0.429 -0.496,0.62c-0.161,0.192 -0.353,0.352 -0.575,0.481c-0.198,0.114 -0.367,0.147 -0.506,0.1c-0.139,-0.048 -0.249,-0.143 -0.329,-0.286l-0.52,-0.9c0.582,-1.02 1.226,-1.901 1.934,-2.644c0.708,-0.742 1.467,-1.348 2.277,-1.815c0.582,-0.336 1.106,-0.513 1.573,-0.531c0.466,-0.018 0.862,0.104 1.187,0.366c0.324,0.262 0.573,0.652 0.746,1.17c0.174,0.519 0.26,1.145 0.26,1.879l0,8.014l-1.317,0.76Zm-3.302,-0.431c0.371,-0.214 0.696,-0.488 0.974,-0.822c0.278,-0.334 0.56,-0.777 0.844,-1.328l0,-1.781c-0.575,0.365 -1.048,0.704 -1.419,1.017c-0.371,0.313 -0.665,0.606 -0.881,0.88c-0.217,0.273 -0.367,0.529 -0.45,0.767c-0.084,0.237 -0.125,0.468 -0.125,0.69c-0,0.437 0.089,0.693 0.269,0.766c0.179,0.074 0.442,0.011 0.788,-0.189Z" style="fill:#ff8e16;fill-rule:nonzero;"/><path d="M106.226,142.489l-2.616,1.51l-3.729,-10.672l2.393,-1.382c0.205,-0.117 0.376,-0.153 0.515,-0.105c0.139,0.047 0.234,0.152 0.283,0.313l1.336,4.979c0.105,0.41 0.205,0.809 0.301,1.199c0.096,0.39 0.178,0.788 0.246,1.194c0.068,-0.485 0.152,-0.978 0.25,-1.481c0.099,-0.502 0.205,-1.02 0.316,-1.554l1.391,-6.554c0.05,-0.218 0.142,-0.431 0.278,-0.637c0.136,-0.206 0.297,-0.363 0.483,-0.47l2.281,-1.318l-3.728,14.978Z" style="fill:#ff8e16;fill-rule:nonzero;"/><path d="M117.801,135.806c-0.272,0.157 -0.477,0.226 -0.617,0.207c-0.139,-0.018 -0.255,-0.157 -0.347,-0.417l-0.204,-0.587c-0.242,0.411 -0.473,0.784 -0.696,1.119c-0.223,0.334 -0.453,0.642 -0.691,0.924c-0.238,0.282 -0.492,0.535 -0.761,0.761c-0.269,0.225 -0.567,0.433 -0.895,0.622c-0.439,0.253 -0.838,0.407 -1.196,0.462c-0.359,0.054 -0.663,0.005 -0.914,-0.147c-0.25,-0.152 -0.444,-0.409 -0.58,-0.772c-0.136,-0.362 -0.204,-0.832 -0.204,-1.409c0,-0.454 0.087,-0.97 0.26,-1.548c0.173,-0.578 0.473,-1.186 0.9,-1.824c0.426,-0.638 1.002,-1.298 1.725,-1.979c0.723,-0.682 1.636,-1.357 2.736,-2.025l0,-0.544c0,-0.751 -0.116,-1.226 -0.348,-1.426c-0.231,-0.2 -0.561,-0.177 -0.987,0.07c-0.341,0.196 -0.619,0.406 -0.835,0.63c-0.217,0.224 -0.41,0.447 -0.58,0.669c-0.17,0.221 -0.335,0.428 -0.496,0.62c-0.161,0.192 -0.353,0.352 -0.575,0.48c-0.198,0.115 -0.367,0.148 -0.506,0.101c-0.139,-0.048 -0.249,-0.143 -0.329,-0.286l-0.519,-0.9c0.581,-1.02 1.225,-1.901 1.934,-2.644c0.708,-0.743 1.467,-1.348 2.277,-1.816c0.581,-0.335 1.105,-0.512 1.572,-0.53c0.467,-0.018 0.862,0.104 1.187,0.366c0.325,0.262 0.573,0.652 0.747,1.17c0.173,0.519 0.259,1.145 0.259,1.878l0,8.014l-1.317,0.761Zm-3.302,-0.431c0.371,-0.215 0.696,-0.488 0.974,-0.822c0.278,-0.334 0.56,-0.777 0.844,-1.329l0,-1.78c-0.575,0.365 -1.048,0.704 -1.419,1.017c-0.371,0.313 -0.665,0.606 -0.881,0.88c-0.216,0.273 -0.366,0.528 -0.45,0.766c-0.083,0.238 -0.125,0.468 -0.125,0.691c-0,0.437 0.09,0.692 0.269,0.766c0.179,0.074 0.442,0.011 0.788,-0.189Z" style="fill:#ff8e16;fill-rule:nonzero;"/></svg>