<?xml version="1.0" encoding="UTF-8" standalone="no"?><!DOCTYPE svg PUBLIC "-//W3C//DTD SVG 1.1//EN" "http://www.w3.org/Graphics/SVG/1.1/DTD/svg11.dtd"><svg width="100%" height="100%" viewBox="0 0 200 200" version="1.1" xmlns="http://www.w3.org/2000/svg" xmlns:xlink="http://www.w3.org/1999/xlink" xml:space="preserve" xmlns:serif="http://www.serif.com/" style="fill-rule:evenodd;clip-rule:evenodd;stroke-linejoin:round;stroke-miterlimit:2;"><path d="M58.498,182.851c0.719,0.426 3.673,2.192 4.507,2.59c1.302,0.62 2.947,0.491 4.734,-0.541l68.207,-39.38c4.218,-2.435 7.642,-8.978 7.642,-14.601l0,-105.105c0,-2.768 -0.829,-4.801 -2.175,-5.861c-0.807,-0.637 -4.029,-2.41 -4.803,-2.818c-1.323,-0.697 -3.02,-0.596 -4.871,0.472l-68.206,39.38c-4.218,2.435 -7.643,8.978 -7.643,14.602l0,105.105c0,3.053 1.01,5.212 2.608,6.157Z" style="fill:#f6f6f6;"/><path d="M58.498,182.909c0.719,0.426 3.673,2.192 4.507,2.59c1.302,0.62 2.947,0.491 4.734,-0.541l68.207,-39.38c4.218,-2.435 7.642,-8.978 7.642,-14.601l0,-105.163c0,-2.768 -0.829,-4.801 -2.175,-5.861c-0.807,-0.637 -4.029,-2.41 -4.803,-2.818c-1.323,-0.697 -3.02,-0.596 -4.871,0.472l-68.206,39.38c-4.218,2.435 -7.643,8.978 -7.643,14.602l0,102.542c0,3.053 1.01,7.833 2.608,8.778Z" style="fill:#b3b3b3;fill-opacity:0.3;"/><path d="M143.588,25.814c0,-5.624 -3.424,-8.213 -7.642,-5.778l-68.207,39.379c-4.218,2.436 -7.642,8.979 -7.642,14.602l-0,105.105c-0,5.624 3.424,8.213 7.642,5.778l68.207,-39.38c4.218,-2.435 7.642,-8.978 7.642,-14.601l0,-105.105Z" style="fill:#f6f6f6;"/><path d="M131.623,49.565l-61.151,35.305l0,2.91l61.151,-35.306l0,-2.909Z" style="fill:#b3b3b3;fill-opacity:0.3;"/><path d="M131.623,39.894l-61.151,35.305l0,2.909l61.151,-35.305l0,-2.909Z" style="fill:#b3b3b3;fill-opacity:0.3;"/><path d="M131.623,59.236l-61.151,35.305l0,2.91l61.151,-35.306l0,-2.909Z" style="fill:#b3b3b3;fill-opacity:0.3;"/><path d="M131.623,68.907l-61.151,35.305l0,2.91l61.151,-35.305l0,-2.91Z" style="fill:#b3b3b3;fill-opacity:0.3;"/><path d="M131.623,78.578l-61.151,35.306l0,2.909l61.151,-35.305l0,-2.91Z" style="fill:#b3b3b3;fill-opacity:0.3;"/><path d="M131.875,87.695l-61.151,35.305l0,2.91l61.151,-35.306l-0,-2.909Z" style="fill:#b3b3b3;fill-opacity:0.3;"/><path d="M55.89,128.999l-10.981,6.339l0,35.378l13.789,7.96l82.259,-47.492l-0,-35.377l-2.807,-1.621l-79.424,45.855l-2.836,-1.637l0,-9.405Z" style="fill:#001a35;"/><path d="M58.698,143.299l-13.789,-7.961l0,35.378l13.789,7.96l-0,-35.377Z" style="fill:#001a35;"/><path d="M58.698,143.299l-13.789,-7.961l0,35.378l13.789,7.96l-0,-35.377Z" style="fill:#fff;fill-opacity:0.09;"/><path d="M58.726,140.041l-8.146,-4.703l5.31,-3.065l0,-3.274l-10.981,6.339l13.789,7.961l82.259,-47.492l-2.807,-1.621l-79.424,45.855Z" style="fill:#001a35;"/><path d="M58.726,140.041l-8.146,-4.703l5.31,-3.065l0,-3.274l-10.981,6.339l13.789,7.961l82.259,-47.492l-2.807,-1.621l-79.424,45.855Z" style="fill:#fff;fill-opacity:0.09;"/><path d="M58.726,140.041l-8.146,-4.703l5.31,-3.065l0,-3.274l-10.981,6.339l13.789,7.961l82.259,-47.492l-2.807,-1.621l-79.424,45.855Z" style="fill:#fff;fill-opacity:0.09;"/><path d="M82.057,154.42l-2.221,1.282c-0.248,0.144 -0.453,0.185 -0.614,0.123c-0.161,-0.061 -0.273,-0.195 -0.335,-0.4l-0.728,-2.449l-4.695,2.711l-0.729,3.29c-0.056,0.244 -0.167,0.498 -0.33,0.762c-0.164,0.264 -0.365,0.464 -0.602,0.601l-2.237,1.292l4.779,-19.222l2.932,-1.693l4.78,13.703Zm-7.932,-1.714l3.373,-1.947l-1.136,-3.853c-0.073,-0.244 -0.16,-0.531 -0.258,-0.862c-0.099,-0.331 -0.197,-0.694 -0.293,-1.091c-0.09,0.512 -0.183,0.991 -0.279,1.438c-0.097,0.448 -0.187,0.839 -0.272,1.174l-1.135,5.141Z" style="fill:#ef3628;fill-rule:nonzero;"/><path d="M83.057,153.843l-0,-11.717l1.627,-0.94c0.164,-0.094 0.301,-0.124 0.411,-0.09c0.11,0.034 0.188,0.136 0.233,0.306l0.152,0.59c0.17,-0.309 0.345,-0.606 0.526,-0.891c0.18,-0.285 0.374,-0.549 0.58,-0.793c0.206,-0.243 0.43,-0.47 0.67,-0.68c0.24,-0.21 0.501,-0.397 0.783,-0.56c0.481,-0.277 0.906,-0.411 1.276,-0.403c0.37,0.009 0.682,0.137 0.936,0.386c0.254,0.249 0.447,0.609 0.577,1.08c0.129,0.471 0.194,1.027 0.194,1.667l0,7.446l-2.627,1.517l0,-7.446c0,-0.573 -0.098,-0.962 -0.296,-1.168c-0.198,-0.206 -0.489,-0.198 -0.873,0.024c-0.288,0.166 -0.559,0.405 -0.814,0.718c-0.254,0.312 -0.497,0.675 -0.728,1.087l-0,8.35l-2.627,1.517Z" style="fill:#ef3628;fill-rule:nonzero;"/><path d="M95.988,134.456c0.373,-0.215 0.725,-0.369 1.055,-0.462c0.331,-0.093 0.637,-0.13 0.92,-0.113l2.652,-1.531l0,1.277c0,0.196 -0.041,0.374 -0.123,0.534c-0.082,0.16 -0.221,0.328 -0.419,0.502l-0.644,0.564c0.079,0.293 0.118,0.621 0.118,0.982c0,0.588 -0.091,1.168 -0.275,1.741c-0.184,0.573 -0.435,1.116 -0.754,1.628c-0.319,0.512 -0.696,0.982 -1.131,1.41c-0.435,0.428 -0.902,0.786 -1.399,1.073c-0.277,0.159 -0.536,0.287 -0.779,0.382c-0.192,0.261 -0.288,0.49 -0.288,0.686c-0,0.196 0.077,0.292 0.233,0.289c0.155,-0.003 0.36,-0.061 0.614,-0.174c0.254,-0.113 0.545,-0.258 0.873,-0.436c0.327,-0.178 0.661,-0.344 1,-0.498c0.339,-0.154 0.672,-0.277 1,-0.368c0.327,-0.092 0.618,-0.101 0.873,-0.03c0.254,0.072 0.459,0.246 0.614,0.521c0.155,0.276 0.233,0.696 0.233,1.261c0,0.527 -0.096,1.099 -0.288,1.714c-0.192,0.616 -0.475,1.227 -0.848,1.834c-0.372,0.607 -0.83,1.186 -1.372,1.736c-0.543,0.551 -1.164,1.028 -1.865,1.433c-0.689,0.397 -1.284,0.654 -1.784,0.77c-0.499,0.115 -0.915,0.127 -1.245,0.035c-0.331,-0.091 -0.575,-0.276 -0.733,-0.554c-0.158,-0.278 -0.238,-0.616 -0.238,-1.015c0,-0.52 0.119,-1.028 0.356,-1.522c0.238,-0.495 0.563,-0.963 0.975,-1.405c-0.198,-0.059 -0.356,-0.19 -0.475,-0.392c-0.118,-0.203 -0.178,-0.512 -0.178,-0.926c0,-0.173 0.023,-0.369 0.068,-0.587c0.045,-0.218 0.116,-0.445 0.212,-0.682c0.096,-0.236 0.218,-0.479 0.364,-0.73c0.147,-0.25 0.322,-0.498 0.526,-0.744c-0.458,-0.059 -0.818,-0.281 -1.081,-0.664c-0.262,-0.383 -0.394,-0.929 -0.394,-1.637c0,-0.587 0.094,-1.17 0.28,-1.749c0.186,-0.578 0.442,-1.125 0.767,-1.64c0.325,-0.515 0.708,-0.989 1.148,-1.42c0.441,-0.432 0.918,-0.796 1.432,-1.093Zm1.949,11.225c0,-0.188 -0.043,-0.314 -0.131,-0.376c-0.088,-0.063 -0.206,-0.085 -0.356,-0.066c-0.15,0.019 -0.325,0.071 -0.525,0.157c-0.201,0.085 -0.417,0.187 -0.649,0.306c-0.231,0.119 -0.471,0.244 -0.72,0.376c-0.248,0.133 -0.494,0.25 -0.737,0.353c-0.164,0.245 -0.298,0.49 -0.403,0.735c-0.104,0.245 -0.156,0.484 -0.156,0.717c-0,0.166 0.026,0.301 0.08,0.406c0.054,0.104 0.148,0.167 0.284,0.186c0.136,0.02 0.318,-0.008 0.547,-0.084c0.228,-0.075 0.518,-0.214 0.868,-0.417c0.379,-0.218 0.689,-0.428 0.932,-0.628c0.243,-0.201 0.437,-0.395 0.581,-0.584c0.144,-0.188 0.244,-0.373 0.301,-0.552c0.056,-0.18 0.084,-0.356 0.084,-0.529Zm-1.949,-5.779c0.435,-0.251 0.75,-0.578 0.945,-0.98c0.195,-0.403 0.293,-0.834 0.293,-1.293c-0,-0.475 -0.098,-0.791 -0.293,-0.95c-0.195,-0.159 -0.51,-0.112 -0.945,0.139c-0.435,0.251 -0.75,0.568 -0.945,0.952c-0.194,0.384 -0.292,0.813 -0.292,1.288c0,0.226 0.024,0.419 0.072,0.579c0.048,0.161 0.123,0.282 0.225,0.362c0.101,0.081 0.23,0.116 0.385,0.105c0.156,-0.01 0.341,-0.078 0.555,-0.202Z" style="fill:#ef3628;fill-rule:nonzero;"/><path d="M104.208,129.914l0,7.435c0,0.58 0.099,0.971 0.297,1.173c0.198,0.202 0.489,0.192 0.873,-0.029c0.288,-0.167 0.558,-0.402 0.809,-0.705c0.251,-0.303 0.496,-0.667 0.733,-1.09l0,-8.35l2.627,-1.516l0,11.717l-1.627,0.939c-0.328,0.189 -0.542,0.117 -0.644,-0.216l-0.161,-0.585c-0.17,0.317 -0.345,0.615 -0.525,0.897c-0.181,0.281 -0.375,0.544 -0.581,0.787c-0.206,0.243 -0.428,0.469 -0.665,0.678c-0.237,0.208 -0.497,0.394 -0.78,0.557c-0.48,0.278 -0.905,0.412 -1.275,0.403c-0.37,-0.008 -0.682,-0.139 -0.937,-0.391c-0.254,-0.253 -0.446,-0.613 -0.576,-1.08c-0.13,-0.467 -0.195,-1.025 -0.195,-1.673l0,-7.434l2.627,-1.517Z" style="fill:#ef3628;fill-rule:nonzero;"/><path d="M114.293,118.894l-0,16.915l-2.627,1.516l-0,-16.914l2.627,-1.517Z" style="fill:#ef3628;fill-rule:nonzero;"/><path d="M122.479,131.083c-0.249,0.143 -0.437,0.206 -0.564,0.189c-0.127,-0.017 -0.233,-0.144 -0.318,-0.381l-0.186,-0.537c-0.22,0.376 -0.432,0.717 -0.636,1.023c-0.203,0.305 -0.413,0.587 -0.631,0.844c-0.217,0.258 -0.449,0.489 -0.695,0.695c-0.246,0.206 -0.518,0.396 -0.818,0.569c-0.401,0.231 -0.765,0.372 -1.093,0.422c-0.327,0.05 -0.606,0.005 -0.834,-0.134c-0.229,-0.139 -0.406,-0.374 -0.53,-0.706c-0.124,-0.331 -0.187,-0.76 -0.187,-1.287c0,-0.415 0.08,-0.886 0.238,-1.414c0.158,-0.528 0.432,-1.084 0.822,-1.667c0.39,-0.583 0.915,-1.185 1.576,-1.808c0.661,-0.623 1.494,-1.24 2.5,-1.85l-0,-0.497c-0,-0.686 -0.106,-1.12 -0.318,-1.303c-0.212,-0.182 -0.513,-0.161 -0.902,0.064c-0.311,0.179 -0.565,0.371 -0.763,0.576c-0.198,0.204 -0.374,0.408 -0.53,0.611c-0.155,0.202 -0.306,0.391 -0.453,0.566c-0.147,0.176 -0.322,0.322 -0.526,0.439c-0.18,0.105 -0.334,0.135 -0.461,0.092c-0.127,-0.044 -0.228,-0.131 -0.301,-0.262l-0.475,-0.822c0.531,-0.931 1.12,-1.737 1.767,-2.415c0.647,-0.679 1.34,-1.232 2.081,-1.659c0.531,-0.306 1.009,-0.468 1.436,-0.484c0.426,-0.017 0.788,0.094 1.085,0.334c0.296,0.239 0.524,0.595 0.682,1.069c0.158,0.474 0.237,1.046 0.237,1.716l0,7.322l-1.203,0.695Zm-3.017,-0.394c0.339,-0.196 0.635,-0.446 0.89,-0.751c0.254,-0.305 0.511,-0.71 0.771,-1.214l-0,-1.627c-0.526,0.334 -0.958,0.643 -1.297,0.93c-0.339,0.286 -0.607,0.554 -0.805,0.803c-0.197,0.25 -0.334,0.484 -0.411,0.701c-0.076,0.217 -0.114,0.427 -0.114,0.631c-0,0.399 0.082,0.632 0.246,0.7c0.163,0.067 0.404,0.009 0.72,-0.173Z" style="fill:#ef3628;fill-rule:nonzero;"/><path d="M125.546,129.311l0,-11.717l1.56,-0.9c0.13,-0.075 0.238,-0.123 0.326,-0.143c0.087,-0.02 0.161,-0.016 0.22,0.014c0.06,0.03 0.105,0.088 0.136,0.176c0.031,0.087 0.058,0.2 0.08,0.338l0.144,1.012c0.322,-0.848 0.684,-1.581 1.085,-2.196c0.401,-0.616 0.839,-1.061 1.314,-1.335c0.401,-0.232 0.723,-0.289 0.966,-0.174l-0.339,2.772c-0.023,0.172 -0.068,0.309 -0.136,0.412c-0.068,0.103 -0.158,0.187 -0.271,0.253c-0.096,0.055 -0.209,0.103 -0.339,0.144c-0.13,0.042 -0.294,0.119 -0.492,0.233c-0.689,0.398 -1.231,1.201 -1.627,2.409l0,7.186l-2.627,1.516Z" style="fill:#ef3628;fill-rule:nonzero;"/></svg>