<?xml version="1.0" encoding="UTF-8" standalone="no"?><!DOCTYPE svg PUBLIC "-//W3C//DTD SVG 1.1//EN" "http://www.w3.org/Graphics/SVG/1.1/DTD/svg11.dtd"><svg width="100%" height="100%" viewBox="0 0 200 200" version="1.1" xmlns="http://www.w3.org/2000/svg" xmlns:xlink="http://www.w3.org/1999/xlink" xml:space="preserve" xmlns:serif="http://www.serif.com/" style="fill-rule:evenodd;clip-rule:evenodd;stroke-linejoin:round;stroke-miterlimit:2;"><path d="M58.498,182.851c0.719,0.426 3.673,2.192 4.507,2.59c1.302,0.62 2.947,0.491 4.734,-0.541l68.207,-39.38c4.218,-2.435 7.642,-8.978 7.642,-14.601l0,-105.105c0,-2.768 -0.829,-4.801 -2.175,-5.861c-0.807,-0.637 -4.029,-2.41 -4.803,-2.818c-1.323,-0.697 -3.02,-0.596 -4.871,0.472l-68.206,39.38c-4.218,2.435 -7.643,8.978 -7.643,14.602l0,105.105c0,3.053 1.01,5.212 2.608,6.157Z" style="fill:#f6f6f6;"/><path d="M58.498,182.909c0.719,0.426 3.673,2.192 4.507,2.59c1.302,0.62 2.947,0.491 4.734,-0.541l68.207,-39.38c4.218,-2.435 7.642,-8.978 7.642,-14.601l0,-105.163c0,-2.768 -0.829,-4.801 -2.175,-5.861c-0.807,-0.637 -4.029,-2.41 -4.803,-2.818c-1.323,-0.697 -3.02,-0.596 -4.871,0.472l-68.206,39.38c-4.218,2.435 -7.643,8.978 -7.643,14.602l0,102.542c0,3.053 1.01,7.833 2.608,8.778Z" style="fill:#b3b3b3;fill-opacity:0.3;"/><path d="M143.588,25.814c0,-5.624 -3.424,-8.213 -7.642,-5.778l-68.207,39.379c-4.218,2.436 -7.642,8.979 -7.642,14.602l-0,105.105c-0,5.624 3.424,8.213 7.642,5.778l68.207,-39.38c4.218,-2.435 7.642,-8.978 7.642,-14.601l0,-105.105Z" style="fill:#f6f6f6;"/><path d="M131.623,49.565l-61.151,35.305l0,2.91l61.151,-35.306l0,-2.909Z" style="fill:#b3b3b3;fill-opacity:0.3;"/><path d="M131.623,39.894l-61.151,35.305l0,2.909l61.151,-35.305l0,-2.909Z" style="fill:#b3b3b3;fill-opacity:0.3;"/><path d="M131.623,59.236l-61.151,35.305l0,2.91l61.151,-35.306l0,-2.909Z" style="fill:#b3b3b3;fill-opacity:0.3;"/><path d="M131.623,68.907l-61.151,35.305l0,2.91l61.151,-35.305l0,-2.91Z" style="fill:#b3b3b3;fill-opacity:0.3;"/><path d="M131.623,78.578l-61.151,35.306l0,2.909l61.151,-35.305l0,-2.91Z" style="fill:#b3b3b3;fill-opacity:0.3;"/><path d="M131.875,87.695l-61.151,35.305l0,2.91l61.151,-35.306l-0,-2.909Z" style="fill:#b3b3b3;fill-opacity:0.3;"/><path d="M55.89,128.999l-10.981,6.339l0,35.378l13.789,7.96l82.259,-47.492l-0,-35.377l-2.807,-1.621l-79.424,45.855l-2.836,-1.637l0,-9.405Z" style="fill:#001a35;"/><path d="M58.698,143.299l-13.789,-7.961l0,35.378l13.789,7.96l-0,-35.377Z" style="fill:#001a35;"/><path d="M58.698,143.299l-13.789,-7.961l0,35.378l13.789,7.96l-0,-35.377Z" style="fill:#fff;fill-opacity:0.09;"/><path d="M58.726,140.041l-8.146,-4.703l5.31,-3.065l0,-3.274l-10.981,6.339l13.789,7.961l82.259,-47.492l-2.807,-1.621l-79.424,45.855Z" style="fill:#001a35;"/><path d="M58.726,140.041l-8.146,-4.703l5.31,-3.065l0,-3.274l-10.981,6.339l13.789,7.961l82.259,-47.492l-2.807,-1.621l-79.424,45.855Z" style="fill:#fff;fill-opacity:0.09;"/><path d="M58.726,140.041l-8.146,-4.703l5.31,-3.065l0,-3.274l-10.981,6.339l13.789,7.961l82.259,-47.492l-2.807,-1.621l-79.424,45.855Z" style="fill:#fff;fill-opacity:0.09;"/><path d="M87.842,138.913c-0.088,0.238 -0.181,0.432 -0.277,0.581c-0.097,0.15 -0.221,0.269 -0.374,0.357c-0.135,0.078 -0.28,0.105 -0.435,0.081c-0.155,-0.024 -0.331,-0.049 -0.527,-0.076c-0.197,-0.028 -0.421,-0.025 -0.673,0.007c-0.252,0.032 -0.539,0.141 -0.861,0.327c-0.557,0.322 -0.972,0.719 -1.244,1.193c-0.273,0.474 -0.409,0.98 -0.409,1.52c0,0.343 0.082,0.581 0.246,0.713c0.164,0.132 0.38,0.203 0.646,0.213c0.267,0.01 0.572,-0.015 0.915,-0.077c0.342,-0.061 0.693,-0.111 1.05,-0.149c0.357,-0.038 0.708,-0.043 1.05,-0.015c0.343,0.029 0.648,0.142 0.915,0.34c0.266,0.198 0.482,0.501 0.646,0.91c0.164,0.41 0.246,0.97 0.246,1.681c-0,0.789 -0.103,1.587 -0.308,2.393c-0.205,0.806 -0.502,1.577 -0.892,2.314c-0.39,0.737 -0.87,1.416 -1.442,2.039c-0.571,0.623 -1.22,1.144 -1.947,1.564c-0.398,0.23 -0.804,0.41 -1.217,0.539c-0.413,0.129 -0.813,0.205 -1.2,0.23c-0.387,0.024 -0.75,-0.003 -1.09,-0.08c-0.34,-0.078 -0.636,-0.211 -0.888,-0.402l0.879,-2.359c0.065,-0.178 0.155,-0.344 0.273,-0.497c0.117,-0.154 0.243,-0.27 0.378,-0.348c0.175,-0.101 0.353,-0.129 0.531,-0.084c0.179,0.045 0.381,0.093 0.607,0.142c0.226,0.05 0.485,0.064 0.778,0.043c0.293,-0.02 0.639,-0.146 1.037,-0.376c0.539,-0.311 0.958,-0.711 1.257,-1.2c0.299,-0.489 0.449,-1.078 0.449,-1.765c-0,-0.399 -0.082,-0.676 -0.247,-0.831c-0.164,-0.155 -0.379,-0.238 -0.646,-0.248c-0.266,-0.01 -0.57,0.02 -0.909,0.092c-0.34,0.071 -0.689,0.133 -1.047,0.187c-0.357,0.054 -0.706,0.068 -1.046,0.042c-0.339,-0.027 -0.643,-0.145 -0.909,-0.354c-0.267,-0.209 -0.482,-0.538 -0.646,-0.987c-0.165,-0.448 -0.247,-1.071 -0.247,-1.868c0,-0.64 0.097,-1.321 0.291,-2.042c0.193,-0.721 0.477,-1.429 0.852,-2.122c0.375,-0.693 0.835,-1.339 1.38,-1.939c0.545,-0.6 1.169,-1.103 1.873,-1.509c0.392,-0.227 0.775,-0.406 1.147,-0.539c0.372,-0.133 0.725,-0.216 1.059,-0.248c0.334,-0.033 0.646,-0.022 0.936,0.033c0.29,0.056 0.55,0.158 0.778,0.307l-0.738,2.267Z" style="fill:#ef3628;fill-rule:nonzero;"/><path d="M96.808,138.073c-0.082,0.18 -0.161,0.331 -0.238,0.453c-0.076,0.122 -0.184,0.224 -0.325,0.305c-0.135,0.078 -0.256,0.105 -0.365,0.082c-0.108,-0.024 -0.23,-0.049 -0.364,-0.077c-0.135,-0.028 -0.293,-0.032 -0.475,-0.013c-0.182,0.019 -0.407,0.106 -0.677,0.262c-0.334,0.193 -0.623,0.441 -0.866,0.746c-0.243,0.304 -0.444,0.655 -0.602,1.051c-0.158,0.396 -0.275,0.837 -0.352,1.322c-0.076,0.486 -0.114,1.006 -0.114,1.56c0,1.165 0.169,1.962 0.506,2.393c0.337,0.43 0.801,0.475 1.393,0.133c0.316,-0.183 0.567,-0.38 0.752,-0.592c0.184,-0.212 0.341,-0.42 0.47,-0.623c0.129,-0.204 0.247,-0.391 0.356,-0.563c0.108,-0.172 0.244,-0.306 0.409,-0.401c0.216,-0.125 0.38,-0.114 0.492,0.033l0.791,0.844c-0.281,0.592 -0.577,1.113 -0.888,1.561c-0.31,0.449 -0.628,0.844 -0.954,1.184c-0.325,0.34 -0.652,0.634 -0.98,0.882c-0.328,0.248 -0.647,0.462 -0.958,0.641c-0.557,0.322 -1.088,0.488 -1.595,0.5c-0.507,0.011 -0.953,-0.14 -1.336,-0.454c-0.384,-0.313 -0.689,-0.796 -0.915,-1.447c-0.225,-0.651 -0.338,-1.477 -0.338,-2.477c-0,-0.875 0.098,-1.75 0.294,-2.625c0.197,-0.875 0.487,-1.703 0.871,-2.483c0.383,-0.781 0.858,-1.494 1.424,-2.141c0.565,-0.647 1.22,-1.185 1.964,-1.615c0.715,-0.413 1.342,-0.622 1.881,-0.629c0.54,-0.006 1.026,0.158 1.46,0.494l-0.721,1.694Z" style="fill:#ef3628;fill-rule:nonzero;"/><path d="M105.071,142.573c-0.258,0.149 -0.453,0.214 -0.585,0.197c-0.132,-0.018 -0.242,-0.15 -0.329,-0.396l-0.194,-0.556c-0.228,0.389 -0.448,0.743 -0.659,1.06c-0.211,0.317 -0.429,0.609 -0.655,0.876c-0.226,0.267 -0.466,0.507 -0.721,0.721c-0.255,0.214 -0.538,0.41 -0.848,0.589c-0.416,0.241 -0.794,0.387 -1.134,0.438c-0.34,0.052 -0.629,0.006 -0.866,-0.139c-0.237,-0.144 -0.42,-0.388 -0.549,-0.731c-0.129,-0.344 -0.194,-0.789 -0.194,-1.336c0,-0.43 0.082,-0.919 0.246,-1.467c0.165,-0.548 0.449,-1.124 0.853,-1.728c0.404,-0.605 0.949,-1.23 1.635,-1.876c0.686,-0.646 1.55,-1.286 2.593,-1.919l0,-0.516c0,-0.711 -0.11,-1.161 -0.329,-1.351c-0.22,-0.189 -0.532,-0.168 -0.937,0.066c-0.322,0.186 -0.586,0.385 -0.791,0.597c-0.205,0.212 -0.388,0.424 -0.549,0.634c-0.161,0.21 -0.318,0.406 -0.47,0.588c-0.153,0.182 -0.334,0.333 -0.545,0.455c-0.188,0.108 -0.348,0.14 -0.479,0.095c-0.132,-0.045 -0.236,-0.135 -0.312,-0.271l-0.493,-0.853c0.551,-0.966 1.162,-1.801 1.833,-2.505c0.671,-0.704 1.39,-1.278 2.158,-1.721c0.551,-0.318 1.048,-0.485 1.49,-0.503c0.442,-0.017 0.818,0.099 1.125,0.347c0.308,0.248 0.544,0.618 0.708,1.109c0.164,0.492 0.246,1.085 0.246,1.78l-0,7.595l-1.248,0.721Zm-3.13,-0.409c0.352,-0.203 0.66,-0.462 0.923,-0.779c0.264,-0.316 0.531,-0.736 0.8,-1.258l0,-1.688c-0.545,0.346 -0.993,0.667 -1.345,0.964c-0.351,0.297 -0.63,0.575 -0.835,0.834c-0.205,0.259 -0.347,0.501 -0.426,0.726c-0.079,0.226 -0.119,0.444 -0.119,0.655c0,0.414 0.085,0.656 0.255,0.726c0.17,0.07 0.419,0.01 0.747,-0.18Z" style="fill:#ef3628;fill-rule:nonzero;"/><path d="M111.066,121.566l-0,17.546l-2.725,1.573l-0,-17.546l2.725,-1.573Z" style="fill:#ef3628;fill-rule:nonzero;"/><path d="M119.557,134.209c-0.258,0.149 -0.453,0.215 -0.584,0.197c-0.132,-0.018 -0.242,-0.15 -0.33,-0.396l-0.193,-0.556c-0.229,0.39 -0.449,0.743 -0.66,1.06c-0.211,0.317 -0.429,0.609 -0.655,0.876c-0.225,0.267 -0.465,0.508 -0.72,0.721c-0.255,0.214 -0.538,0.41 -0.849,0.59c-0.416,0.24 -0.794,0.386 -1.134,0.438c-0.34,0.051 -0.628,0.005 -0.865,-0.139c-0.238,-0.145 -0.421,-0.389 -0.55,-0.732c-0.129,-0.344 -0.193,-0.789 -0.193,-1.336c-0,-0.43 0.082,-0.919 0.246,-1.466c0.164,-0.548 0.448,-1.125 0.853,-1.729c0.404,-0.605 0.949,-1.23 1.635,-1.876c0.685,-0.646 1.55,-1.286 2.593,-1.919l-0,-0.516c-0,-0.711 -0.11,-1.161 -0.33,-1.351c-0.22,-0.189 -0.532,-0.167 -0.936,0.066c-0.322,0.186 -0.586,0.385 -0.791,0.598c-0.205,0.212 -0.388,0.423 -0.55,0.633c-0.161,0.21 -0.318,0.406 -0.47,0.588c-0.152,0.182 -0.334,0.334 -0.545,0.455c-0.187,0.109 -0.347,0.14 -0.479,0.095c-0.132,-0.045 -0.236,-0.135 -0.312,-0.271l-0.492,-0.852c0.551,-0.967 1.161,-1.802 1.832,-2.506c0.671,-0.704 1.391,-1.277 2.158,-1.721c0.551,-0.318 1.048,-0.485 1.49,-0.502c0.443,-0.017 0.818,0.098 1.126,0.346c0.307,0.248 0.543,0.618 0.707,1.11c0.164,0.491 0.246,1.084 0.246,1.78l0,7.594l-1.248,0.721Zm-3.129,-0.408c0.351,-0.203 0.659,-0.463 0.923,-0.779c0.263,-0.317 0.53,-0.736 0.8,-1.259l-0,-1.688c-0.545,0.346 -0.994,0.667 -1.345,0.964c-0.352,0.297 -0.63,0.575 -0.835,0.834c-0.205,0.259 -0.348,0.501 -0.427,0.727c-0.079,0.225 -0.118,0.443 -0.118,0.654c-0,0.414 0.085,0.656 0.255,0.726c0.17,0.07 0.419,0.01 0.747,-0.179Z" style="fill:#ef3628;fill-rule:nonzero;"/></svg>