<?xml version="1.0" encoding="UTF-8" standalone="no"?><!DOCTYPE svg PUBLIC "-//W3C//DTD SVG 1.1//EN" "http://www.w3.org/Graphics/SVG/1.1/DTD/svg11.dtd"><svg width="100%" height="100%" viewBox="0 0 200 200" version="1.1" xmlns="http://www.w3.org/2000/svg" xmlns:xlink="http://www.w3.org/1999/xlink" xml:space="preserve" xmlns:serif="http://www.serif.com/" style="fill-rule:evenodd;clip-rule:evenodd;stroke-linejoin:round;stroke-miterlimit:2;"><path d="M58.498,182.851c0.719,0.426 3.673,2.192 4.507,2.59c1.302,0.62 2.947,0.491 4.734,-0.541l68.207,-39.38c4.218,-2.435 7.642,-8.978 7.642,-14.601l0,-105.105c0,-2.768 -0.829,-4.801 -2.175,-5.861c-0.807,-0.637 -4.029,-2.41 -4.803,-2.818c-1.323,-0.697 -3.02,-0.596 -4.871,0.472l-68.206,39.38c-4.218,2.435 -7.643,8.978 -7.643,14.602l0,105.105c0,3.053 1.01,5.212 2.608,6.157Z" style="fill:#f6f6f6;"/><path d="M58.498,182.909c0.719,0.426 3.673,2.192 4.507,2.59c1.302,0.62 2.947,0.491 4.734,-0.541l68.207,-39.38c4.218,-2.435 7.642,-8.978 7.642,-14.601l0,-105.163c0,-2.768 -0.829,-4.801 -2.175,-5.861c-0.807,-0.637 -4.029,-2.41 -4.803,-2.818c-1.323,-0.697 -3.02,-0.596 -4.871,0.472l-68.206,39.38c-4.218,2.435 -7.643,8.978 -7.643,14.602l0,102.542c0,3.053 1.01,7.833 2.608,8.778Z" style="fill:#b3b3b3;fill-opacity:0.3;"/><path d="M143.588,25.814c0,-5.624 -3.424,-8.213 -7.642,-5.778l-68.207,39.379c-4.218,2.436 -7.642,8.979 -7.642,14.602l-0,105.105c-0,5.624 3.424,8.213 7.642,5.778l68.207,-39.38c4.218,-2.435 7.642,-8.978 7.642,-14.601l0,-105.105Z" style="fill:#f6f6f6;"/><path d="M131.623,49.565l-61.151,35.305l0,2.91l61.151,-35.306l0,-2.909Z" style="fill:#b3b3b3;fill-opacity:0.3;"/><path d="M131.623,39.894l-61.151,35.305l0,2.909l61.151,-35.305l0,-2.909Z" style="fill:#b3b3b3;fill-opacity:0.3;"/><path d="M131.623,59.236l-61.151,35.305l0,2.91l61.151,-35.306l0,-2.909Z" style="fill:#b3b3b3;fill-opacity:0.3;"/><path d="M131.623,68.907l-61.151,35.305l0,2.91l61.151,-35.305l0,-2.91Z" style="fill:#b3b3b3;fill-opacity:0.3;"/><path d="M131.623,78.578l-61.151,35.306l0,2.909l61.151,-35.305l0,-2.91Z" style="fill:#b3b3b3;fill-opacity:0.3;"/><path d="M131.875,87.695l-61.151,35.305l0,2.91l61.151,-35.306l-0,-2.909Z" style="fill:#b3b3b3;fill-opacity:0.3;"/><path d="M55.89,128.999l-10.981,6.339l0,35.378l13.789,7.96l82.259,-47.492l-0,-35.377l-2.807,-1.621l-79.424,45.855l-2.836,-1.637l0,-9.405Z" style="fill:#001a35;"/><path d="M58.698,143.299l-13.789,-7.961l0,35.378l13.789,7.96l-0,-35.377Z" style="fill:#001a35;"/><path d="M58.698,143.299l-13.789,-7.961l0,35.378l13.789,7.96l-0,-35.377Z" style="fill:#fff;fill-opacity:0.09;"/><path d="M58.726,140.041l-8.146,-4.703l5.31,-3.065l0,-3.274l-10.981,6.339l13.789,7.961l82.259,-47.492l-2.807,-1.621l-79.424,45.855Z" style="fill:#001a35;"/><path d="M58.726,140.041l-8.146,-4.703l5.31,-3.065l0,-3.274l-10.981,6.339l13.789,7.961l82.259,-47.492l-2.807,-1.621l-79.424,45.855Z" style="fill:#fff;fill-opacity:0.09;"/><path d="M58.726,140.041l-8.146,-4.703l5.31,-3.065l0,-3.274l-10.981,6.339l13.789,7.961l82.259,-47.492l-2.807,-1.621l-79.424,45.855Z" style="fill:#fff;fill-opacity:0.09;"/><path d="M77.749,148.51l0.517,-0.298c0.48,-0.277 0.824,-0.676 1.035,-1.198l3.143,-7.895c0.172,-0.431 0.368,-0.77 0.589,-1.017c0.22,-0.246 0.49,-0.462 0.809,-0.646l2.817,-1.626l-4.139,9.913c-0.147,0.357 -0.3,0.672 -0.46,0.943c-0.159,0.271 -0.322,0.514 -0.488,0.729c0.242,-0.021 0.464,0.015 0.666,0.107c0.201,0.093 0.384,0.265 0.55,0.519l4.216,6.201l-2.894,1.67c-0.185,0.107 -0.343,0.182 -0.474,0.223c-0.131,0.042 -0.244,0.056 -0.34,0.043c-0.096,-0.013 -0.179,-0.048 -0.249,-0.105c-0.07,-0.057 -0.137,-0.132 -0.201,-0.222l-3.162,-4.651c-0.115,-0.172 -0.26,-0.257 -0.436,-0.253c-0.175,0.003 -0.413,0.092 -0.713,0.265l-0.786,0.453l0,7.92l-3.238,1.87l0,-18.612l3.238,-1.869l0,7.536Z" style="fill:#f6f6f6;fill-rule:nonzero;"/><path d="M92.139,137.827c0.753,-0.436 1.44,-0.674 2.06,-0.717c0.619,-0.043 1.151,0.102 1.595,0.433c0.444,0.331 0.788,0.845 1.034,1.542c0.246,0.697 0.369,1.569 0.369,2.617c0,1.056 -0.123,2.078 -0.369,3.068c-0.246,0.989 -0.59,1.908 -1.034,2.756c-0.444,0.848 -0.976,1.61 -1.595,2.287c-0.62,0.678 -1.307,1.234 -2.06,1.669c-0.76,0.439 -1.452,0.678 -2.074,0.718c-0.623,0.04 -1.16,-0.105 -1.61,-0.437c-0.45,-0.332 -0.798,-0.851 -1.044,-1.556c-0.246,-0.706 -0.369,-1.586 -0.369,-2.642c0,-1.048 0.123,-2.062 0.369,-3.043c0.246,-0.98 0.594,-1.894 1.044,-2.742c0.45,-0.848 0.987,-1.609 1.61,-2.283c0.622,-0.675 1.314,-1.232 2.074,-1.67Zm-0,10.717c0.683,-0.395 1.186,-1.007 1.509,-1.836c0.322,-0.829 0.483,-1.899 0.483,-3.211c0,-1.311 -0.161,-2.193 -0.483,-2.646c-0.323,-0.452 -0.826,-0.481 -1.509,-0.086c-0.703,0.405 -1.217,1.021 -1.543,1.848c-0.325,0.827 -0.488,1.896 -0.488,3.207c-0,1.312 0.163,2.195 0.488,2.65c0.326,0.455 0.84,0.479 1.543,0.074Z" style="fill:#f6f6f6;fill-rule:nonzero;"/><path d="M102.313,145.608c-0.473,0.272 -0.889,0.422 -1.25,0.447c-0.361,0.025 -0.664,-0.06 -0.91,-0.254c-0.246,-0.194 -0.433,-0.493 -0.561,-0.896c-0.127,-0.403 -0.191,-0.899 -0.191,-1.486l-0,-6.847l-0.843,0.487c-0.154,0.088 -0.285,0.098 -0.393,0.028c-0.109,-0.069 -0.163,-0.231 -0.163,-0.487l-0,-1.545l1.581,-1.322l0.584,-3.569c0.077,-0.453 0.294,-0.783 0.652,-0.989l1.552,-0.896l-0,3.87l2.414,-1.394l-0,2.708l-2.414,1.394l-0,6.579c-0,0.306 0.055,0.527 0.167,0.663c0.112,0.136 0.273,0.142 0.484,0.021c0.109,-0.063 0.2,-0.13 0.273,-0.203c0.074,-0.072 0.137,-0.143 0.192,-0.212c0.054,-0.07 0.105,-0.134 0.153,-0.191c0.048,-0.058 0.104,-0.105 0.168,-0.142c0.089,-0.051 0.161,-0.065 0.215,-0.041c0.054,0.024 0.11,0.079 0.168,0.165l0.9,1.358c-0.383,0.604 -0.814,1.141 -1.293,1.609c-0.479,0.468 -0.974,0.85 -1.485,1.145Z" style="fill:#f6f6f6;fill-rule:nonzero;"/><path d="M109.556,122.099l-0,19.123l-2.97,1.714l-0,-19.122l2.97,-1.715Z" style="fill:#f6f6f6;fill-rule:nonzero;"/><path d="M115.017,124.822l-0,13.247l-2.97,1.714l-0,-13.246l2.97,-1.715Zm0.344,-3.826c0,0.315 -0.047,0.638 -0.143,0.97c-0.096,0.332 -0.227,0.651 -0.393,0.955c-0.166,0.305 -0.359,0.582 -0.58,0.833c-0.22,0.251 -0.455,0.448 -0.704,0.592c-0.242,0.14 -0.469,0.209 -0.68,0.207c-0.211,-0.002 -0.398,-0.06 -0.56,-0.174c-0.163,-0.115 -0.291,-0.284 -0.384,-0.507c-0.092,-0.223 -0.139,-0.493 -0.139,-0.808c0,-0.323 0.047,-0.652 0.139,-0.987c0.093,-0.334 0.221,-0.655 0.384,-0.962c0.162,-0.307 0.349,-0.581 0.56,-0.822c0.211,-0.241 0.438,-0.431 0.68,-0.571c0.249,-0.144 0.484,-0.22 0.704,-0.228c0.221,-0.008 0.414,0.046 0.58,0.163c0.166,0.118 0.297,0.289 0.393,0.515c0.096,0.225 0.143,0.5 0.143,0.824Z" style="fill:#f6f6f6;fill-rule:nonzero;"/><path d="M117.412,136.686l-0,-13.246l1.839,-1.062c0.185,-0.107 0.34,-0.141 0.465,-0.103c0.124,0.039 0.212,0.155 0.263,0.347l0.173,0.666c0.191,-0.349 0.389,-0.684 0.594,-1.007c0.204,-0.322 0.423,-0.621 0.656,-0.896c0.233,-0.275 0.485,-0.531 0.757,-0.769c0.271,-0.238 0.567,-0.449 0.886,-0.633c0.543,-0.314 1.023,-0.465 1.442,-0.456c0.418,0.01 0.771,0.155 1.058,0.437c0.288,0.281 0.505,0.688 0.652,1.22c0.147,0.533 0.22,1.161 0.22,1.885l0,8.418l-2.97,1.714l0,-8.418c0,-0.647 -0.112,-1.087 -0.335,-1.32c-0.224,-0.233 -0.553,-0.224 -0.987,0.027c-0.326,0.188 -0.632,0.459 -0.92,0.812c-0.287,0.353 -0.562,0.763 -0.823,1.23l-0,9.439l-2.97,1.715Z" style="fill:#f6f6f6;fill-rule:nonzero;"/></svg>