<?xml version="1.0" encoding="UTF-8" standalone="no"?><!DOCTYPE svg PUBLIC "-//W3C//DTD SVG 1.1//EN" "http://www.w3.org/Graphics/SVG/1.1/DTD/svg11.dtd"><svg width="100%" height="100%" viewBox="0 0 200 200" version="1.1" xmlns="http://www.w3.org/2000/svg" xmlns:xlink="http://www.w3.org/1999/xlink" xml:space="preserve" xmlns:serif="http://www.serif.com/" style="fill-rule:evenodd;clip-rule:evenodd;stroke-linejoin:round;stroke-miterlimit:2;"><path d="M58.498,182.851c0.719,0.426 3.673,2.192 4.507,2.59c1.302,0.62 2.947,0.491 4.734,-0.541l68.207,-39.38c4.218,-2.435 7.642,-8.978 7.642,-14.601l0,-105.105c0,-2.768 -0.829,-4.801 -2.175,-5.861c-0.807,-0.637 -4.029,-2.41 -4.803,-2.818c-1.323,-0.697 -3.02,-0.596 -4.871,0.472l-68.206,39.38c-4.218,2.435 -7.643,8.978 -7.643,14.602l0,105.105c0,3.053 1.01,5.212 2.608,6.157Z" style="fill:#f6f6f6;"/><path d="M58.498,182.909c0.719,0.426 3.673,2.192 4.507,2.59c1.302,0.62 2.947,0.491 4.734,-0.541l68.207,-39.38c4.218,-2.435 7.642,-8.978 7.642,-14.601l0,-105.163c0,-2.768 -0.829,-4.801 -2.175,-5.861c-0.807,-0.637 -4.029,-2.41 -4.803,-2.818c-1.323,-0.697 -3.02,-0.596 -4.871,0.472l-68.206,39.38c-4.218,2.435 -7.643,8.978 -7.643,14.602l0,102.542c0,3.053 1.01,7.833 2.608,8.778Z" style="fill:#b3b3b3;fill-opacity:0.3;"/><path d="M143.588,25.814c0,-5.624 -3.424,-8.213 -7.642,-5.778l-68.207,39.379c-4.218,2.436 -7.642,8.979 -7.642,14.602l-0,105.105c-0,5.624 3.424,8.213 7.642,5.778l68.207,-39.38c4.218,-2.435 7.642,-8.978 7.642,-14.601l0,-105.105Z" style="fill:#f6f6f6;"/><path d="M131.623,49.565l-61.151,35.305l0,2.91l61.151,-35.306l0,-2.909Z" style="fill:#b3b3b3;fill-opacity:0.3;"/><path d="M131.623,39.894l-61.151,35.305l0,2.909l61.151,-35.305l0,-2.909Z" style="fill:#b3b3b3;fill-opacity:0.3;"/><path d="M131.623,59.236l-61.151,35.305l0,2.91l61.151,-35.306l0,-2.909Z" style="fill:#b3b3b3;fill-opacity:0.3;"/><path d="M131.623,68.907l-61.151,35.305l0,2.91l61.151,-35.305l0,-2.91Z" style="fill:#b3b3b3;fill-opacity:0.3;"/><path d="M131.623,78.578l-61.151,35.306l0,2.909l61.151,-35.305l0,-2.91Z" style="fill:#b3b3b3;fill-opacity:0.3;"/><path d="M131.875,87.695l-61.151,35.305l0,2.91l61.151,-35.306l-0,-2.909Z" style="fill:#b3b3b3;fill-opacity:0.3;"/><path d="M55.89,128.999l-10.981,6.339l0,35.378l13.789,7.96l82.259,-47.492l-0,-35.377l-2.807,-1.621l-79.424,45.855l-2.836,-1.637l0,-9.405Z" style="fill:#001a35;"/><path d="M58.698,143.299l-13.789,-7.961l0,35.378l13.789,7.96l-0,-35.377Z" style="fill:#001a35;"/><path d="M58.698,143.299l-13.789,-7.961l0,35.378l13.789,7.96l-0,-35.377Z" style="fill:#fff;fill-opacity:0.09;"/><path d="M58.726,140.041l-8.146,-4.703l5.31,-3.065l0,-3.274l-10.981,6.339l13.789,7.961l82.259,-47.492l-2.807,-1.621l-79.424,45.855Z" style="fill:#001a35;"/><path d="M58.726,140.041l-8.146,-4.703l5.31,-3.065l0,-3.274l-10.981,6.339l13.789,7.961l82.259,-47.492l-2.807,-1.621l-79.424,45.855Z" style="fill:#fff;fill-opacity:0.09;"/><path d="M58.726,140.041l-8.146,-4.703l5.31,-3.065l0,-3.274l-10.981,6.339l13.789,7.961l82.259,-47.492l-2.807,-1.621l-79.424,45.855Z" style="fill:#fff;fill-opacity:0.09;"/><path d="M76.097,152.231l0,5.655l-2.943,1.7l-0,-16.92l4.476,-2.584c0.894,-0.517 1.662,-0.819 2.304,-0.907c0.641,-0.087 1.17,-0.003 1.585,0.252c0.415,0.256 0.721,0.664 0.919,1.223c0.197,0.56 0.296,1.231 0.296,2.013c-0,0.843 -0.102,1.676 -0.305,2.498c-0.203,0.822 -0.514,1.605 -0.932,2.35c-0.418,0.744 -0.948,1.443 -1.589,2.096c-0.642,0.653 -1.401,1.233 -2.278,1.739l-1.533,0.885Zm0,-2.961l1.533,-0.885c0.767,-0.443 1.318,-1.005 1.655,-1.687c0.337,-0.683 0.505,-1.461 0.505,-2.336c0,-0.387 -0.043,-0.714 -0.131,-0.981c-0.087,-0.267 -0.219,-0.464 -0.396,-0.59c-0.177,-0.126 -0.4,-0.173 -0.67,-0.141c-0.27,0.032 -0.591,0.155 -0.963,0.37l-1.533,0.885l0,5.365Z" style="fill:#f8ec4b;fill-rule:nonzero;"/><path d="M87.959,154.161c-0.081,0.287 -0.18,0.52 -0.296,0.699c-0.116,0.18 -0.302,0.343 -0.557,0.491l-2.021,1.166l1.742,-5.883l-3.605,-8.903l2.386,-1.378c0.209,-0.121 0.372,-0.153 0.488,-0.096c0.116,0.057 0.197,0.157 0.244,0.301l1.48,4.336c0.139,0.399 0.253,0.814 0.34,1.243c0.058,-0.281 0.122,-0.562 0.191,-0.842c0.07,-0.28 0.137,-0.562 0.201,-0.847l1.341,-5.942c0.046,-0.205 0.138,-0.407 0.274,-0.605c0.137,-0.199 0.283,-0.344 0.44,-0.434l2.177,-1.257l-4.825,17.951Z" style="fill:#f8ec4b;fill-rule:nonzero;"/><path d="M97.069,145.964c-0.429,0.248 -0.808,0.383 -1.136,0.406c-0.328,0.023 -0.604,-0.054 -0.828,-0.231c-0.223,-0.176 -0.393,-0.448 -0.509,-0.814c-0.116,-0.367 -0.174,-0.817 -0.174,-1.351l-0,-6.225l-0.767,0.443c-0.139,0.08 -0.258,0.089 -0.357,0.026c-0.098,-0.063 -0.148,-0.211 -0.148,-0.443l0,-1.405l1.437,-1.201l0.532,-3.245c0.069,-0.412 0.267,-0.712 0.592,-0.899l1.411,-0.815l-0,3.519l2.194,-1.267l0,2.461l-2.194,1.267l-0,5.981c-0,0.279 0.05,0.48 0.152,0.603c0.102,0.123 0.248,0.129 0.44,0.019c0.099,-0.057 0.181,-0.118 0.248,-0.184c0.067,-0.066 0.125,-0.13 0.174,-0.194c0.05,-0.063 0.096,-0.121 0.14,-0.173c0.043,-0.052 0.094,-0.095 0.152,-0.129c0.081,-0.047 0.147,-0.059 0.196,-0.037c0.049,0.022 0.1,0.072 0.152,0.15l0.819,1.234c-0.348,0.55 -0.74,1.037 -1.176,1.463c-0.435,0.425 -0.885,0.772 -1.35,1.041Z" style="fill:#f8ec4b;fill-rule:nonzero;"/><path d="M100.867,143.585l-0,-17.383l2.7,-1.559l-0,6.398c0.325,-0.559 0.677,-1.063 1.058,-1.511c0.38,-0.448 0.834,-0.824 1.363,-1.129c0.493,-0.285 0.93,-0.423 1.311,-0.414c0.38,0.008 0.701,0.141 0.962,0.396c0.261,0.256 0.459,0.626 0.592,1.11c0.134,0.484 0.2,1.055 0.2,1.713l0,7.653l-2.699,1.558l-0,-7.652c-0,-0.588 -0.102,-0.989 -0.305,-1.2c-0.203,-0.212 -0.502,-0.204 -0.897,0.024c-0.296,0.171 -0.575,0.417 -0.836,0.738c-0.262,0.322 -0.511,0.694 -0.749,1.118l-0,8.582l-2.7,1.558Z" style="fill:#f8ec4b;fill-rule:nonzero;"/><path d="M114.993,123.201c0.685,-0.395 1.31,-0.612 1.873,-0.651c0.563,-0.039 1.046,0.093 1.45,0.394c0.403,0.301 0.717,0.768 0.94,1.402c0.224,0.633 0.336,1.426 0.336,2.378c-0,0.96 -0.112,1.89 -0.336,2.789c-0.223,0.9 -0.537,1.735 -0.94,2.506c-0.404,0.771 -0.887,1.464 -1.45,2.08c-0.563,0.615 -1.188,1.121 -1.873,1.516c-0.691,0.399 -1.319,0.617 -1.885,0.653c-0.566,0.037 -1.054,-0.096 -1.464,-0.397c-0.409,-0.302 -0.725,-0.774 -0.949,-1.415c-0.223,-0.641 -0.335,-1.442 -0.335,-2.402c-0,-0.952 0.112,-1.874 0.335,-2.765c0.224,-0.892 0.54,-1.723 0.949,-2.494c0.41,-0.77 0.898,-1.462 1.464,-2.075c0.566,-0.614 1.194,-1.12 1.885,-1.519Zm0,9.743c0.622,-0.358 1.079,-0.915 1.372,-1.668c0.293,-0.754 0.44,-1.727 0.44,-2.919c-0,-1.193 -0.147,-1.994 -0.44,-2.406c-0.293,-0.411 -0.75,-0.437 -1.372,-0.079c-0.638,0.369 -1.106,0.929 -1.402,1.681c-0.296,0.751 -0.444,1.723 -0.444,2.916c-0,1.192 0.148,1.995 0.444,2.408c0.296,0.414 0.764,0.436 1.402,0.067Z" style="fill:#f8ec4b;fill-rule:nonzero;"/><path d="M121.072,131.92l0,-12.043l1.673,-0.965c0.168,-0.097 0.309,-0.128 0.422,-0.093c0.113,0.035 0.193,0.14 0.239,0.315l0.157,0.606c0.174,-0.317 0.354,-0.623 0.54,-0.916c0.186,-0.293 0.385,-0.564 0.597,-0.814c0.212,-0.25 0.441,-0.484 0.688,-0.7c0.247,-0.216 0.515,-0.407 0.805,-0.575c0.494,-0.285 0.931,-0.423 1.311,-0.414c0.381,0.009 0.701,0.141 0.963,0.396c0.261,0.256 0.458,0.626 0.592,1.11c0.133,0.484 0.2,1.055 0.2,1.713l0,7.653l-2.7,1.559l0,-7.653c0,-0.588 -0.101,-0.988 -0.305,-1.2c-0.203,-0.212 -0.502,-0.204 -0.897,0.024c-0.296,0.171 -0.574,0.417 -0.836,0.739c-0.261,0.321 -0.511,0.693 -0.749,1.117l0,8.582l-2.7,1.559Z" style="fill:#f8ec4b;fill-rule:nonzero;"/></svg>