<?xml version="1.0" encoding="UTF-8" standalone="no"?><!DOCTYPE svg PUBLIC "-//W3C//DTD SVG 1.1//EN" "http://www.w3.org/Graphics/SVG/1.1/DTD/svg11.dtd"><svg width="100%" height="100%" viewBox="0 0 200 200" version="1.1" xmlns="http://www.w3.org/2000/svg" xmlns:xlink="http://www.w3.org/1999/xlink" xml:space="preserve" xmlns:serif="http://www.serif.com/" style="fill-rule:evenodd;clip-rule:evenodd;stroke-linejoin:round;stroke-miterlimit:2;"><path d="M58.498,182.851c0.719,0.426 3.673,2.192 4.507,2.59c1.302,0.62 2.947,0.491 4.734,-0.541l68.207,-39.38c4.218,-2.435 7.642,-8.978 7.642,-14.601l0,-105.105c0,-2.768 -0.829,-4.801 -2.175,-5.861c-0.807,-0.637 -4.029,-2.41 -4.803,-2.818c-1.323,-0.697 -3.02,-0.596 -4.871,0.472l-68.206,39.38c-4.218,2.435 -7.643,8.978 -7.643,14.602l0,105.105c0,3.053 1.01,5.212 2.608,6.157Z" style="fill:#f6f6f6;"/><path d="M58.498,182.909c0.719,0.426 3.673,2.192 4.507,2.59c1.302,0.62 2.947,0.491 4.734,-0.541l68.207,-39.38c4.218,-2.435 7.642,-8.978 7.642,-14.601l0,-105.163c0,-2.768 -0.829,-4.801 -2.175,-5.861c-0.807,-0.637 -4.029,-2.41 -4.803,-2.818c-1.323,-0.697 -3.02,-0.596 -4.871,0.472l-68.206,39.38c-4.218,2.435 -7.643,8.978 -7.643,14.602l0,102.542c0,3.053 1.01,7.833 2.608,8.778Z" style="fill:#b3b3b3;fill-opacity:0.3;"/><path d="M143.588,25.814c0,-5.624 -3.424,-8.213 -7.642,-5.778l-68.207,39.379c-4.218,2.436 -7.642,8.979 -7.642,14.602l-0,105.105c-0,5.624 3.424,8.213 7.642,5.778l68.207,-39.38c4.218,-2.435 7.642,-8.978 7.642,-14.601l0,-105.105Z" style="fill:#f6f6f6;"/><path d="M131.623,49.565l-61.151,35.305l0,2.91l61.151,-35.306l0,-2.909Z" style="fill:#b3b3b3;fill-opacity:0.3;"/><path d="M131.623,39.894l-61.151,35.305l0,2.909l61.151,-35.305l0,-2.909Z" style="fill:#b3b3b3;fill-opacity:0.3;"/><path d="M131.623,59.236l-61.151,35.305l0,2.91l61.151,-35.306l0,-2.909Z" style="fill:#b3b3b3;fill-opacity:0.3;"/><path d="M131.623,68.907l-61.151,35.305l0,2.91l61.151,-35.305l0,-2.91Z" style="fill:#b3b3b3;fill-opacity:0.3;"/><path d="M131.623,78.578l-61.151,35.306l0,2.909l61.151,-35.305l0,-2.91Z" style="fill:#b3b3b3;fill-opacity:0.3;"/><path d="M131.875,87.695l-61.151,35.305l0,2.91l61.151,-35.306l-0,-2.909Z" style="fill:#b3b3b3;fill-opacity:0.3;"/><path d="M55.89,128.999l-10.981,6.339l0,35.378l13.789,7.96l82.259,-47.492l-0,-35.377l-2.807,-1.621l-79.424,45.855l-2.836,-1.637l0,-9.405Z" style="fill:#001a35;"/><path d="M58.698,143.299l-13.789,-7.961l0,35.378l13.789,7.96l-0,-35.377Z" style="fill:#001a35;"/><path d="M58.698,143.299l-13.789,-7.961l0,35.378l13.789,7.96l-0,-35.377Z" style="fill:#fff;fill-opacity:0.09;"/><path d="M58.726,140.041l-8.146,-4.703l5.31,-3.065l0,-3.274l-10.981,6.339l13.789,7.961l82.259,-47.492l-2.807,-1.621l-79.424,45.855Z" style="fill:#001a35;"/><path d="M58.726,140.041l-8.146,-4.703l5.31,-3.065l0,-3.274l-10.981,6.339l13.789,7.961l82.259,-47.492l-2.807,-1.621l-79.424,45.855Z" style="fill:#fff;fill-opacity:0.09;"/><path d="M58.726,140.041l-8.146,-4.703l5.31,-3.065l0,-3.274l-10.981,6.339l13.789,7.961l82.259,-47.492l-2.807,-1.621l-79.424,45.855Z" style="fill:#fff;fill-opacity:0.09;"/><path d="M85.253,148.926l0,6.326l-3.293,1.902l0,-18.926l5.008,-2.891c1,-0.578 1.859,-0.916 2.577,-1.014c0.717,-0.098 1.308,-0.004 1.773,0.282c0.464,0.286 0.807,0.742 1.027,1.368c0.221,0.626 0.332,1.376 0.332,2.251c-0,0.944 -0.114,1.875 -0.341,2.794c-0.228,0.92 -0.575,1.796 -1.043,2.629c-0.467,0.832 -1.06,1.614 -1.778,2.345c-0.717,0.73 -1.567,1.378 -2.547,1.945l-1.715,0.989Zm0,-3.312l1.715,-0.99c0.857,-0.495 1.474,-1.124 1.851,-1.887c0.376,-0.763 0.565,-1.634 0.565,-2.612c-0,-0.433 -0.049,-0.799 -0.146,-1.098c-0.098,-0.299 -0.245,-0.519 -0.444,-0.66c-0.198,-0.141 -0.448,-0.194 -0.75,-0.158c-0.302,0.036 -0.661,0.174 -1.076,0.414l-1.715,0.99l0,6.001Z" style="fill:#c2aad8;fill-rule:nonzero;"/><path d="M106.783,142.822l-3.312,1.912l0,-8.001l-5.767,3.329l-0,8.002l-3.313,1.912l0,-18.925l3.313,-1.913l-0,7.911l5.767,-3.33l0,-7.911l3.312,-1.912l0,18.926Z" style="fill:#c2aad8;fill-rule:nonzero;"/><path d="M112.414,133.245l0,6.326l-3.293,1.901l0,-18.926l5.008,-2.891c1,-0.577 1.859,-0.915 2.577,-1.014c0.717,-0.098 1.308,-0.004 1.773,0.282c0.464,0.286 0.807,0.742 1.028,1.368c0.22,0.626 0.331,1.376 0.331,2.251c-0,0.944 -0.114,1.876 -0.341,2.795c-0.227,0.919 -0.575,1.795 -1.042,2.628c-0.468,0.833 -1.061,1.615 -1.778,2.345c-0.718,0.73 -1.567,1.379 -2.548,1.945l-1.715,0.99Zm0,-3.312l1.715,-0.99c0.857,-0.495 1.474,-1.124 1.851,-1.887c0.377,-0.763 0.565,-1.634 0.565,-2.613c0,-0.433 -0.049,-0.799 -0.146,-1.097c-0.098,-0.299 -0.245,-0.519 -0.443,-0.66c-0.198,-0.141 -0.448,-0.194 -0.751,-0.158c-0.302,0.036 -0.66,0.173 -1.076,0.413l-1.715,0.99l0,6.002Z" style="fill:#c2aad8;fill-rule:nonzero;"/></svg>