<?xml version="1.0" encoding="UTF-8" standalone="no"?><!DOCTYPE svg PUBLIC "-//W3C//DTD SVG 1.1//EN" "http://www.w3.org/Graphics/SVG/1.1/DTD/svg11.dtd"><svg width="100%" height="100%" viewBox="0 0 200 200" version="1.1" xmlns="http://www.w3.org/2000/svg" xmlns:xlink="http://www.w3.org/1999/xlink" xml:space="preserve" xmlns:serif="http://www.serif.com/" style="fill-rule:evenodd;clip-rule:evenodd;stroke-linejoin:round;stroke-miterlimit:2;"><g><path d="M183.105,113.508l0,1.244l-70.378,40.633l-95.832,-55.329l-0,-1.244l70.378,-40.633l95.832,55.329Z" style="fill:#050505;"/><g><path d="M114.314,136.791l63.881,-23.306l-63.881,36.882l-0,-13.576Z" style="fill:#f7f7f7;"/><path d="M114.323,148.575l63.87,-35.478l-0.008,0.443l-63.869,35.478l0.007,-0.443Z" style="fill:#858585;fill-opacity:0.28;"/><path d="M114.35,146.914l63.817,-33.555l-0.008,0.224l-63.817,33.555l0.008,-0.224Z" style="fill:#858585;fill-opacity:0.28;"/><path d="M114.395,144.531l63.701,-31.24l-0.029,0.459l-63.701,31.24l0.029,-0.459Z" style="fill:#858585;fill-opacity:0.28;"/><path d="M114.38,143.08l63.597,-29.775l-0.016,0.21l-63.597,29.775l0.016,-0.21Z" style="fill:#858585;fill-opacity:0.28;"/></g><path d="M16.895,86.48l70.378,-31.158l95.832,55.328l0,1.115l-70.378,31.158l-0,-1.115l-95.832,-55.328Z" style="fill:#050505;"/><path d="M16.895,86.48l95.832,55.328l-0,13.577l-95.832,-55.329l-0,-13.576Z" style="fill:#050505;"/><path d="M112.727,155.385l-0,-13.577l70.378,-31.158l0,1.115l-68.822,30.469l0,11.008l68.822,-39.734l0,1.244l-70.378,40.633Z" style="fill:#9b9b9b;fill-opacity:0.25;"/><path d="M16.895,86.48l95.832,55.328l-0,13.577l-95.832,-55.329l-0,-13.576Z" style="fill:#949494;fill-opacity:0.28;"/><path d="M44.175,86.392l40.239,-17.814l15.466,8.929l-40.24,17.814l-15.465,-8.929Z" style="fill:#f7f7f7;"/><path d="M112.727,155.385l-0,-13.577l70.378,-31.158l0,1.115l-68.822,30.469l0,11.008l68.822,-39.734l0,1.244l-70.378,40.633Z" style="fill:#9b9b9b;fill-opacity:0.25;"/></g></svg>