<?xml version="1.0" encoding="UTF-8" standalone="no"?><!DOCTYPE svg PUBLIC "-//W3C//DTD SVG 1.1//EN" "http://www.w3.org/Graphics/SVG/1.1/DTD/svg11.dtd"><svg width="100%" height="100%" viewBox="0 0 200 200" version="1.1" xmlns="http://www.w3.org/2000/svg" xmlns:xlink="http://www.w3.org/1999/xlink" xml:space="preserve" xmlns:serif="http://www.serif.com/" style="fill-rule:evenodd;clip-rule:evenodd;stroke-linejoin:round;stroke-miterlimit:2;"><path d="M58.498,182.851c0.719,0.426 3.673,2.192 4.507,2.59c1.302,0.62 2.947,0.491 4.734,-0.541l68.207,-39.38c4.218,-2.435 7.642,-8.978 7.642,-14.601l0,-105.105c0,-2.768 -0.829,-4.801 -2.175,-5.861c-0.807,-0.637 -4.029,-2.41 -4.803,-2.818c-1.323,-0.697 -3.02,-0.596 -4.871,0.472l-68.206,39.38c-4.218,2.435 -7.643,8.978 -7.643,14.602l0,105.105c0,3.053 1.01,5.212 2.608,6.157Z" style="fill:#f6f6f6;"/><path d="M58.498,182.909c0.719,0.426 3.673,2.192 4.507,2.59c1.302,0.62 2.947,0.491 4.734,-0.541l68.207,-39.38c4.218,-2.435 7.642,-8.978 7.642,-14.601l0,-105.163c0,-2.768 -0.829,-4.801 -2.175,-5.861c-0.807,-0.637 -4.029,-2.41 -4.803,-2.818c-1.323,-0.697 -3.02,-0.596 -4.871,0.472l-68.206,39.38c-4.218,2.435 -7.643,8.978 -7.643,14.602l0,102.542c0,3.053 1.01,7.833 2.608,8.778Z" style="fill:#b3b3b3;fill-opacity:0.3;"/><path d="M143.588,25.814c0,-5.624 -3.424,-8.213 -7.642,-5.778l-68.207,39.379c-4.218,2.436 -7.642,8.979 -7.642,14.602l-0,105.105c-0,5.624 3.424,8.213 7.642,5.778l68.207,-39.38c4.218,-2.435 7.642,-8.978 7.642,-14.601l0,-105.105Z" style="fill:#f6f6f6;"/><path d="M131.623,49.565l-61.151,35.305l0,2.91l61.151,-35.306l0,-2.909Z" style="fill:#b3b3b3;fill-opacity:0.3;"/><path d="M131.623,39.894l-61.151,35.305l0,2.909l61.151,-35.305l0,-2.909Z" style="fill:#b3b3b3;fill-opacity:0.3;"/><path d="M131.623,59.236l-61.151,35.305l0,2.91l61.151,-35.306l0,-2.909Z" style="fill:#b3b3b3;fill-opacity:0.3;"/><path d="M131.623,68.907l-61.151,35.305l0,2.91l61.151,-35.305l0,-2.91Z" style="fill:#b3b3b3;fill-opacity:0.3;"/><path d="M131.623,78.578l-61.151,35.306l0,2.909l61.151,-35.305l0,-2.91Z" style="fill:#b3b3b3;fill-opacity:0.3;"/><path d="M131.875,87.695l-61.151,35.305l0,2.91l61.151,-35.306l-0,-2.909Z" style="fill:#b3b3b3;fill-opacity:0.3;"/><path d="M55.89,128.999l-10.981,6.339l0,35.378l13.789,7.96l82.259,-47.492l-0,-35.377l-2.807,-1.621l-79.424,45.855l-2.836,-1.637l0,-9.405Z" style="fill:#001a35;"/><path d="M58.698,143.299l-13.789,-7.961l0,35.378l13.789,7.96l-0,-35.377Z" style="fill:#001a35;"/><path d="M58.698,143.299l-13.789,-7.961l0,35.378l13.789,7.96l-0,-35.377Z" style="fill:#fff;fill-opacity:0.09;"/><path d="M58.726,140.041l-8.146,-4.703l5.31,-3.065l0,-3.274l-10.981,6.339l13.789,7.961l82.259,-47.492l-2.807,-1.621l-79.424,45.855Z" style="fill:#001a35;"/><path d="M58.726,140.041l-8.146,-4.703l5.31,-3.065l0,-3.274l-10.981,6.339l13.789,7.961l82.259,-47.492l-2.807,-1.621l-79.424,45.855Z" style="fill:#fff;fill-opacity:0.09;"/><path d="M58.726,140.041l-8.146,-4.703l5.31,-3.065l0,-3.274l-10.981,6.339l13.789,7.961l82.259,-47.492l-2.807,-1.621l-79.424,45.855Z" style="fill:#fff;fill-opacity:0.09;"/><path d="M74.298,142.477c0.122,-0.071 0.224,-0.122 0.308,-0.156c0.083,-0.033 0.158,-0.048 0.224,-0.046c0.067,0.002 0.13,0.023 0.191,0.061c0.061,0.039 0.131,0.099 0.208,0.18l5.753,6.377c-0.022,-0.297 -0.039,-0.589 -0.05,-0.874c-0.011,-0.286 -0.016,-0.558 -0.016,-0.817l-0,-8.546l2.477,-1.43l0,16.15l-1.463,0.845c-0.216,0.125 -0.399,0.186 -0.549,0.184c-0.149,-0.003 -0.294,-0.082 -0.432,-0.238l-5.712,-6.324c0.017,0.271 0.031,0.538 0.042,0.801c0.011,0.264 0.017,0.514 0.017,0.75l-0,8.657l-2.478,1.431l0,-16.151l1.48,-0.854Z" style="fill:#25bcb4;fill-rule:nonzero;"/><path d="M89.229,138.334c0.654,-0.377 1.25,-0.584 1.788,-0.621c0.537,-0.037 0.999,0.088 1.384,0.375c0.385,0.288 0.684,0.734 0.898,1.339c0.213,0.604 0.32,1.361 0.32,2.27c-0,0.917 -0.107,1.804 -0.32,2.662c-0.214,0.859 -0.513,1.656 -0.898,2.392c-0.385,0.736 -0.847,1.398 -1.384,1.985c-0.538,0.588 -1.134,1.07 -1.788,1.448c-0.659,0.381 -1.259,0.589 -1.8,0.624c-0.54,0.034 -1.006,-0.092 -1.396,-0.38c-0.391,-0.288 -0.693,-0.738 -0.907,-1.35c-0.213,-0.612 -0.32,-1.377 -0.32,-2.293c0,-0.909 0.107,-1.789 0.32,-2.64c0.214,-0.851 0.516,-1.644 0.907,-2.38c0.39,-0.735 0.856,-1.396 1.396,-1.981c0.541,-0.586 1.141,-1.069 1.8,-1.45Zm0,9.301c0.593,-0.343 1.03,-0.874 1.31,-1.593c0.279,-0.72 0.419,-1.649 0.419,-2.787c0,-1.138 -0.14,-1.903 -0.419,-2.296c-0.28,-0.392 -0.717,-0.417 -1.31,-0.075c-0.609,0.352 -1.056,0.887 -1.338,1.604c-0.283,0.718 -0.424,1.645 -0.424,2.783c-0,1.138 0.141,1.905 0.424,2.299c0.282,0.395 0.729,0.417 1.338,0.065Z" style="fill:#25bcb4;fill-rule:nonzero;"/><path d="M101.084,143.162c-0.16,0.093 -0.295,0.122 -0.403,0.089c-0.108,-0.034 -0.184,-0.134 -0.229,-0.3l-0.199,-0.761c-0.172,0.343 -0.352,0.669 -0.54,0.977c-0.189,0.308 -0.393,0.598 -0.611,0.868c-0.219,0.271 -0.455,0.518 -0.707,0.741c-0.252,0.223 -0.525,0.419 -0.819,0.589c-0.449,0.259 -0.865,0.366 -1.247,0.321c-0.382,-0.045 -0.712,-0.239 -0.989,-0.582c-0.277,-0.342 -0.495,-0.832 -0.653,-1.469c-0.158,-0.636 -0.237,-1.42 -0.237,-2.351c0,-0.857 0.089,-1.705 0.266,-2.543c0.177,-0.837 0.428,-1.618 0.753,-2.341c0.324,-0.723 0.713,-1.367 1.168,-1.932c0.454,-0.565 0.956,-1.007 1.504,-1.323c0.444,-0.256 0.819,-0.386 1.127,-0.39c0.307,-0.004 0.586,0.062 0.835,0.199l0,-5.819l2.578,-1.488l-0,16.594l-1.597,0.921Zm-2.61,-0.954c0.188,-0.108 0.359,-0.231 0.511,-0.367c0.153,-0.136 0.293,-0.285 0.42,-0.447c0.127,-0.163 0.248,-0.343 0.362,-0.542c0.113,-0.198 0.225,-0.418 0.336,-0.66l0,-4.877c-0.199,-0.173 -0.411,-0.252 -0.636,-0.237c-0.224,0.015 -0.461,0.095 -0.71,0.239c-0.239,0.137 -0.458,0.327 -0.657,0.567c-0.2,0.241 -0.373,0.543 -0.52,0.905c-0.147,0.361 -0.262,0.788 -0.345,1.28c-0.083,0.491 -0.125,1.051 -0.125,1.679c0,0.606 0.034,1.096 0.1,1.472c0.067,0.375 0.16,0.656 0.279,0.842c0.119,0.186 0.262,0.287 0.428,0.302c0.166,0.015 0.352,-0.037 0.557,-0.156Z" style="fill:#25bcb4;fill-rule:nonzero;"/><path d="M108.367,127.285c0.571,-0.329 1.093,-0.513 1.567,-0.55c0.474,-0.037 0.881,0.071 1.222,0.325c0.341,0.254 0.607,0.653 0.798,1.197c0.192,0.543 0.287,1.229 0.287,2.057c0,0.258 -0.008,0.474 -0.025,0.646c-0.016,0.172 -0.047,0.319 -0.091,0.441c-0.045,0.121 -0.104,0.222 -0.179,0.302c-0.075,0.081 -0.17,0.154 -0.287,0.221l-4.971,2.871c0.083,0.912 0.302,1.483 0.656,1.71c0.355,0.228 0.812,0.18 1.372,-0.143c0.299,-0.173 0.557,-0.37 0.773,-0.591c0.216,-0.221 0.409,-0.439 0.578,-0.655c0.169,-0.216 0.324,-0.413 0.466,-0.59c0.141,-0.178 0.289,-0.312 0.444,-0.401c0.206,-0.119 0.361,-0.108 0.466,0.03l0.748,0.799c-0.266,0.56 -0.553,1.056 -0.86,1.489c-0.308,0.432 -0.624,0.814 -0.948,1.145c-0.324,0.332 -0.648,0.619 -0.973,0.861c-0.324,0.243 -0.633,0.449 -0.927,0.619c-0.604,0.348 -1.17,0.544 -1.7,0.588c-0.529,0.043 -0.992,-0.08 -1.388,-0.368c-0.396,-0.289 -0.71,-0.751 -0.94,-1.387c-0.23,-0.635 -0.345,-1.463 -0.345,-2.483c0,-0.768 0.099,-1.553 0.296,-2.354c0.196,-0.801 0.479,-1.566 0.848,-2.296c0.368,-0.73 0.814,-1.398 1.338,-2.004c0.524,-0.605 1.115,-1.098 1.775,-1.479Zm0.05,2.344c-0.493,0.284 -0.879,0.693 -1.156,1.227c-0.277,0.533 -0.46,1.176 -0.548,1.929l3.217,-1.857c-0,-0.274 -0.026,-0.525 -0.079,-0.753c-0.053,-0.228 -0.139,-0.409 -0.258,-0.544c-0.119,-0.134 -0.275,-0.208 -0.469,-0.222c-0.194,-0.014 -0.43,0.06 -0.707,0.22Z" style="fill:#25bcb4;fill-rule:nonzero;"/><path d="M113.222,134.414c0,-0.266 0.038,-0.535 0.112,-0.807c0.075,-0.273 0.178,-0.531 0.308,-0.777c0.13,-0.245 0.284,-0.468 0.461,-0.671c0.178,-0.202 0.372,-0.364 0.582,-0.485c0.205,-0.119 0.397,-0.179 0.574,-0.182c0.177,-0.002 0.333,0.043 0.466,0.136c0.133,0.093 0.236,0.233 0.311,0.419c0.075,0.186 0.113,0.411 0.113,0.678c-0,0.266 -0.038,0.537 -0.113,0.813c-0.075,0.276 -0.178,0.537 -0.311,0.784c-0.133,0.246 -0.289,0.469 -0.466,0.667c-0.177,0.199 -0.369,0.357 -0.574,0.476c-0.21,0.121 -0.404,0.185 -0.582,0.192c-0.177,0.006 -0.331,-0.038 -0.461,-0.133c-0.13,-0.095 -0.233,-0.237 -0.308,-0.427c-0.074,-0.189 -0.112,-0.417 -0.112,-0.683Z" style="fill:#25bcb4;fill-rule:nonzero;"/><path d="M120.305,120.57l0,11.517c0,0.54 -0.051,1.077 -0.154,1.613c-0.102,0.536 -0.271,1.051 -0.507,1.545c-0.235,0.495 -0.546,0.957 -0.931,1.386c-0.385,0.429 -0.863,0.809 -1.434,1.138c-0.21,0.122 -0.406,0.218 -0.586,0.289c-0.18,0.071 -0.367,0.129 -0.561,0.174l0.083,-1.855c0.011,-0.161 0.05,-0.298 0.116,-0.41c0.067,-0.113 0.2,-0.227 0.399,-0.342c0.2,-0.115 0.363,-0.231 0.491,-0.349c0.127,-0.118 0.229,-0.254 0.303,-0.408c0.075,-0.154 0.128,-0.334 0.158,-0.541c0.031,-0.206 0.046,-0.456 0.046,-0.752l0,-11.517l2.577,-1.488Zm0.3,-3.321c-0,0.274 -0.042,0.554 -0.125,0.843c-0.083,0.288 -0.197,0.564 -0.341,0.828c-0.144,0.264 -0.312,0.505 -0.503,0.723c-0.191,0.217 -0.395,0.389 -0.611,0.513c-0.211,0.122 -0.407,0.182 -0.59,0.18c-0.183,-0.001 -0.345,-0.052 -0.487,-0.151c-0.141,-0.1 -0.252,-0.246 -0.332,-0.44c-0.081,-0.194 -0.121,-0.427 -0.121,-0.701c0,-0.281 0.04,-0.566 0.121,-0.856c0.08,-0.291 0.191,-0.569 0.332,-0.835c0.142,-0.267 0.304,-0.504 0.487,-0.713c0.183,-0.209 0.379,-0.375 0.59,-0.496c0.216,-0.125 0.42,-0.191 0.611,-0.198c0.191,-0.007 0.359,0.04 0.503,0.142c0.144,0.102 0.258,0.25 0.341,0.446c0.083,0.196 0.125,0.434 0.125,0.715Z" style="fill:#25bcb4;fill-rule:nonzero;"/><path d="M127.621,118.862c-0.066,0.179 -0.137,0.32 -0.212,0.422c-0.075,0.102 -0.17,0.187 -0.287,0.254c-0.122,0.071 -0.243,0.106 -0.365,0.106c-0.122,0 -0.254,0.001 -0.395,0.001c-0.142,0 -0.301,0.017 -0.478,0.049c-0.178,0.032 -0.38,0.114 -0.607,0.245c-0.327,0.189 -0.578,0.417 -0.753,0.684c-0.174,0.267 -0.261,0.548 -0.261,0.844c-0,0.214 0.056,0.358 0.17,0.433c0.114,0.075 0.265,0.112 0.453,0.11c0.189,-0.002 0.402,-0.023 0.64,-0.065c0.239,-0.041 0.482,-0.075 0.732,-0.101c0.249,-0.025 0.493,-0.028 0.731,-0.006c0.239,0.021 0.452,0.094 0.641,0.218c0.188,0.124 0.339,0.319 0.453,0.586c0.113,0.267 0.17,0.633 0.17,1.099c0,0.569 -0.078,1.138 -0.233,1.708c-0.155,0.57 -0.386,1.117 -0.694,1.642c-0.307,0.525 -0.687,1.014 -1.139,1.467c-0.452,0.453 -0.971,0.849 -1.559,1.188c-0.293,0.17 -0.587,0.303 -0.881,0.398c-0.294,0.096 -0.578,0.16 -0.852,0.193c-0.274,0.033 -0.528,0.029 -0.761,-0.01c-0.232,-0.039 -0.432,-0.11 -0.598,-0.214l0.598,-1.609c0.072,-0.19 0.158,-0.356 0.258,-0.498c0.1,-0.143 0.23,-0.26 0.391,-0.353c0.149,-0.087 0.284,-0.12 0.403,-0.1c0.119,0.02 0.248,0.042 0.387,0.065c0.138,0.023 0.3,0.026 0.486,0.007c0.186,-0.018 0.42,-0.109 0.702,-0.272c0.2,-0.115 0.369,-0.241 0.507,-0.376c0.139,-0.136 0.25,-0.275 0.333,-0.419c0.083,-0.144 0.144,-0.287 0.183,-0.427c0.039,-0.141 0.058,-0.274 0.058,-0.4c0,-0.229 -0.058,-0.384 -0.174,-0.464c-0.117,-0.081 -0.269,-0.12 -0.458,-0.119c-0.188,0.002 -0.403,0.026 -0.644,0.073c-0.241,0.047 -0.486,0.083 -0.736,0.109c-0.249,0.026 -0.494,0.025 -0.735,-0.002c-0.242,-0.027 -0.456,-0.114 -0.645,-0.26c-0.188,-0.146 -0.341,-0.37 -0.457,-0.673c-0.116,-0.302 -0.175,-0.715 -0.175,-1.24c0,-0.488 0.071,-0.992 0.212,-1.514c0.142,-0.521 0.354,-1.029 0.636,-1.525c0.283,-0.496 0.638,-0.965 1.064,-1.407c0.427,-0.442 0.926,-0.828 1.497,-1.158c0.31,-0.179 0.611,-0.316 0.902,-0.41c0.291,-0.094 0.564,-0.148 0.819,-0.162c0.255,-0.014 0.488,0.008 0.698,0.068c0.211,0.059 0.396,0.15 0.557,0.271l-0.582,1.544Z" style="fill:#25bcb4;fill-rule:nonzero;"/></svg>