<?xml version="1.0" encoding="UTF-8" standalone="no"?><!DOCTYPE svg PUBLIC "-//W3C//DTD SVG 1.1//EN" "http://www.w3.org/Graphics/SVG/1.1/DTD/svg11.dtd"><svg width="100%" height="100%" viewBox="0 0 200 200" version="1.1" xmlns="http://www.w3.org/2000/svg" xmlns:xlink="http://www.w3.org/1999/xlink" xml:space="preserve" xmlns:serif="http://www.serif.com/" style="fill-rule:evenodd;clip-rule:evenodd;stroke-linejoin:round;stroke-miterlimit:2;"><path d="M58.498,182.851c0.719,0.426 3.673,2.192 4.507,2.59c1.302,0.62 2.947,0.491 4.734,-0.541l68.207,-39.38c4.218,-2.435 7.642,-8.978 7.642,-14.601l0,-105.105c0,-2.768 -0.829,-4.801 -2.175,-5.861c-0.807,-0.637 -4.029,-2.41 -4.803,-2.818c-1.323,-0.697 -3.02,-0.596 -4.871,0.472l-68.206,39.38c-4.218,2.435 -7.643,8.978 -7.643,14.602l0,105.105c0,3.053 1.01,5.212 2.608,6.157Z" style="fill:#f6f6f6;"/><path d="M58.498,182.909c0.719,0.426 3.673,2.192 4.507,2.59c1.302,0.62 2.947,0.491 4.734,-0.541l68.207,-39.38c4.218,-2.435 7.642,-8.978 7.642,-14.601l0,-105.163c0,-2.768 -0.829,-4.801 -2.175,-5.861c-0.807,-0.637 -4.029,-2.41 -4.803,-2.818c-1.323,-0.697 -3.02,-0.596 -4.871,0.472l-68.206,39.38c-4.218,2.435 -7.643,8.978 -7.643,14.602l0,102.542c0,3.053 1.01,7.833 2.608,8.778Z" style="fill:#b3b3b3;fill-opacity:0.3;"/><path d="M143.588,25.814c0,-5.624 -3.424,-8.213 -7.642,-5.778l-68.207,39.379c-4.218,2.436 -7.642,8.979 -7.642,14.602l-0,105.105c-0,5.624 3.424,8.213 7.642,5.778l68.207,-39.38c4.218,-2.435 7.642,-8.978 7.642,-14.601l0,-105.105Z" style="fill:#f6f6f6;"/><path d="M131.623,49.565l-61.151,35.305l0,2.91l61.151,-35.306l0,-2.909Z" style="fill:#b3b3b3;fill-opacity:0.3;"/><path d="M131.623,39.894l-61.151,35.305l0,2.909l61.151,-35.305l0,-2.909Z" style="fill:#b3b3b3;fill-opacity:0.3;"/><path d="M131.623,59.236l-61.151,35.305l0,2.91l61.151,-35.306l0,-2.909Z" style="fill:#b3b3b3;fill-opacity:0.3;"/><path d="M131.623,68.907l-61.151,35.305l0,2.91l61.151,-35.305l0,-2.91Z" style="fill:#b3b3b3;fill-opacity:0.3;"/><path d="M131.623,78.578l-61.151,35.306l0,2.909l61.151,-35.305l0,-2.91Z" style="fill:#b3b3b3;fill-opacity:0.3;"/><path d="M131.875,87.695l-61.151,35.305l0,2.91l61.151,-35.306l-0,-2.909Z" style="fill:#b3b3b3;fill-opacity:0.3;"/><path d="M55.89,128.999l-10.981,6.339l0,35.378l13.789,7.96l82.259,-47.492l-0,-35.377l-2.807,-1.621l-79.424,45.855l-2.836,-1.637l0,-9.405Z" style="fill:#001a35;"/><path d="M58.698,143.299l-13.789,-7.961l0,35.378l13.789,7.96l-0,-35.377Z" style="fill:#001a35;"/><path d="M58.698,143.299l-13.789,-7.961l0,35.378l13.789,7.96l-0,-35.377Z" style="fill:#fff;fill-opacity:0.09;"/><path d="M58.726,140.041l-8.146,-4.703l5.31,-3.065l0,-3.274l-10.981,6.339l13.789,7.961l82.259,-47.492l-2.807,-1.621l-79.424,45.855Z" style="fill:#001a35;"/><path d="M58.726,140.041l-8.146,-4.703l5.31,-3.065l0,-3.274l-10.981,6.339l13.789,7.961l82.259,-47.492l-2.807,-1.621l-79.424,45.855Z" style="fill:#fff;fill-opacity:0.09;"/><path d="M58.726,140.041l-8.146,-4.703l5.31,-3.065l0,-3.274l-10.981,6.339l13.789,7.961l82.259,-47.492l-2.807,-1.621l-79.424,45.855Z" style="fill:#fff;fill-opacity:0.09;"/><path d="M79.827,150.348l0,6.847l-3.22,1.859l0,-18.509l4.516,-2.607c1.004,-0.58 1.86,-0.936 2.568,-1.07c0.708,-0.134 1.286,-0.084 1.734,0.149c0.448,0.232 0.773,0.625 0.976,1.176c0.204,0.552 0.305,1.222 0.305,2.009c0,0.601 -0.06,1.204 -0.181,1.807c-0.12,0.603 -0.3,1.2 -0.538,1.791c-0.238,0.59 -0.53,1.163 -0.877,1.719c-0.346,0.556 -0.744,1.078 -1.195,1.567c0.216,0.019 0.417,0.081 0.605,0.184c0.187,0.104 0.351,0.268 0.49,0.492l2.954,4.735l-2.915,1.683c-0.54,0.312 -0.928,0.265 -1.163,-0.142l-2.305,-4.042c-0.102,-0.178 -0.221,-0.279 -0.358,-0.302c-0.136,-0.023 -0.328,0.038 -0.576,0.181l-0.82,0.473Zm0,-2.96l1.296,-0.748c0.438,-0.253 0.812,-0.543 1.12,-0.869c0.308,-0.326 0.56,-0.677 0.757,-1.053c0.197,-0.377 0.34,-0.766 0.429,-1.169c0.089,-0.403 0.133,-0.807 0.133,-1.214c0,-0.813 -0.198,-1.334 -0.595,-1.562c-0.397,-0.228 -1.012,-0.102 -1.844,0.379l-1.296,0.748l0,5.488Z" style="fill:#98e5ff;fill-rule:nonzero;"/><path d="M93.509,135.919c0.654,-0.378 1.253,-0.588 1.796,-0.63c0.543,-0.043 1.01,0.081 1.401,0.372c0.39,0.291 0.695,0.748 0.914,1.371c0.219,0.623 0.329,1.409 0.329,2.358c-0,0.296 -0.01,0.543 -0.029,0.74c-0.019,0.198 -0.054,0.366 -0.104,0.505c-0.051,0.14 -0.12,0.256 -0.205,0.347c-0.086,0.092 -0.196,0.177 -0.329,0.254l-5.697,3.289c0.095,1.046 0.346,1.699 0.752,1.96c0.407,0.261 0.931,0.206 1.572,-0.164c0.343,-0.198 0.639,-0.424 0.886,-0.677c0.248,-0.253 0.469,-0.503 0.662,-0.751c0.194,-0.247 0.372,-0.473 0.534,-0.676c0.162,-0.204 0.332,-0.357 0.51,-0.46c0.235,-0.135 0.413,-0.124 0.533,0.035l0.858,0.915c-0.305,0.642 -0.634,1.211 -0.986,1.707c-0.353,0.495 -0.715,0.933 -1.086,1.313c-0.372,0.379 -0.744,0.708 -1.115,0.986c-0.372,0.278 -0.726,0.515 -1.063,0.709c-0.692,0.4 -1.341,0.624 -1.948,0.674c-0.607,0.049 -1.137,-0.091 -1.591,-0.422c-0.454,-0.33 -0.813,-0.86 -1.077,-1.589c-0.263,-0.728 -0.395,-1.677 -0.395,-2.846c-0,-0.88 0.113,-1.78 0.338,-2.697c0.226,-0.918 0.55,-1.795 0.972,-2.632c0.422,-0.837 0.934,-1.602 1.534,-2.296c0.6,-0.694 1.278,-1.259 2.034,-1.695Zm0.057,2.685c-0.565,0.327 -1.007,0.796 -1.324,1.407c-0.318,0.611 -0.527,1.348 -0.629,2.211l3.687,-2.129c0,-0.313 -0.03,-0.601 -0.09,-0.862c-0.061,-0.262 -0.159,-0.47 -0.296,-0.624c-0.136,-0.154 -0.316,-0.239 -0.538,-0.254c-0.222,-0.016 -0.492,0.068 -0.81,0.251Z" style="fill:#98e5ff;fill-rule:nonzero;"/><path d="M106.467,141.815c-0.28,0.161 -0.491,0.232 -0.634,0.213c-0.143,-0.019 -0.262,-0.162 -0.357,-0.429l-0.21,-0.603c-0.248,0.423 -0.486,0.806 -0.714,1.149c-0.229,0.344 -0.466,0.661 -0.71,0.95c-0.245,0.289 -0.505,0.55 -0.782,0.781c-0.276,0.232 -0.582,0.445 -0.919,0.639c-0.451,0.261 -0.861,0.419 -1.229,0.475c-0.368,0.056 -0.681,0.006 -0.938,-0.151c-0.258,-0.156 -0.456,-0.42 -0.596,-0.793c-0.14,-0.372 -0.21,-0.855 -0.21,-1.448c0,-0.465 0.089,-0.995 0.267,-1.589c0.178,-0.594 0.486,-1.219 0.924,-1.874c0.439,-0.655 1.029,-1.333 1.773,-2.033c0.743,-0.7 1.68,-1.393 2.81,-2.08l0,-0.559c0,-0.771 -0.119,-1.259 -0.357,-1.464c-0.238,-0.206 -0.577,-0.182 -1.015,0.071c-0.349,0.202 -0.635,0.418 -0.857,0.648c-0.223,0.23 -0.421,0.458 -0.596,0.686c-0.174,0.228 -0.344,0.441 -0.509,0.638c-0.166,0.197 -0.363,0.361 -0.591,0.493c-0.203,0.117 -0.377,0.152 -0.519,0.103c-0.143,-0.049 -0.256,-0.147 -0.339,-0.294l-0.533,-0.924c0.597,-1.048 1.259,-1.953 1.986,-2.716c0.728,-0.763 1.507,-1.384 2.339,-1.865c0.597,-0.344 1.136,-0.526 1.615,-0.545c0.48,-0.018 0.886,0.107 1.22,0.376c0.333,0.269 0.589,0.67 0.767,1.202c0.178,0.533 0.267,1.176 0.267,1.93l-0,8.232l-1.353,0.781Zm-3.392,-0.443c0.381,-0.22 0.714,-0.502 1,-0.844c0.286,-0.343 0.575,-0.798 0.867,-1.365l0,-1.829c-0.591,0.375 -1.076,0.723 -1.458,1.045c-0.381,0.321 -0.682,0.623 -0.905,0.903c-0.222,0.281 -0.376,0.544 -0.462,0.788c-0.085,0.244 -0.128,0.481 -0.128,0.71c-0,0.448 0.092,0.711 0.276,0.786c0.184,0.076 0.454,0.011 0.81,-0.194Z" style="fill:#98e5ff;fill-rule:nonzero;"/><path d="M117.042,125.66c-0.089,0.196 -0.174,0.36 -0.257,0.492c-0.083,0.132 -0.2,0.242 -0.353,0.33c-0.146,0.085 -0.277,0.114 -0.395,0.089c-0.117,-0.025 -0.249,-0.053 -0.395,-0.083c-0.146,-0.03 -0.318,-0.035 -0.515,-0.014c-0.197,0.02 -0.441,0.115 -0.733,0.284c-0.362,0.209 -0.675,0.478 -0.939,0.808c-0.263,0.33 -0.481,0.71 -0.653,1.139c-0.171,0.43 -0.298,0.907 -0.381,1.433c-0.082,0.527 -0.123,1.09 -0.123,1.692c-0,1.262 0.182,2.126 0.547,2.592c0.366,0.467 0.869,0.515 1.51,0.145c0.343,-0.198 0.615,-0.412 0.815,-0.642c0.2,-0.23 0.37,-0.455 0.51,-0.675c0.14,-0.221 0.268,-0.424 0.386,-0.611c0.117,-0.186 0.265,-0.331 0.443,-0.433c0.235,-0.136 0.413,-0.124 0.533,0.035l0.858,0.915c-0.305,0.642 -0.626,1.206 -0.963,1.692c-0.336,0.487 -0.681,0.914 -1.033,1.283c-0.353,0.369 -0.707,0.688 -1.063,0.956c-0.355,0.269 -0.701,0.501 -1.038,0.695c-0.604,0.349 -1.18,0.529 -1.729,0.541c-0.55,0.013 -1.033,-0.151 -1.449,-0.491c-0.416,-0.34 -0.746,-0.863 -0.99,-1.568c-0.245,-0.706 -0.367,-1.601 -0.367,-2.685c-0,-0.949 0.106,-1.897 0.319,-2.846c0.213,-0.948 0.527,-1.845 0.943,-2.691c0.416,-0.846 0.931,-1.619 1.544,-2.32c0.613,-0.702 1.322,-1.285 2.129,-1.751c0.775,-0.447 1.455,-0.674 2.039,-0.681c0.584,-0.008 1.111,0.171 1.582,0.535l-0.782,1.835Z" style="fill:#98e5ff;fill-rule:nonzero;"/><path d="M122.644,132.678c-0.47,0.271 -0.884,0.419 -1.243,0.444c-0.359,0.025 -0.66,-0.059 -0.905,-0.252c-0.245,-0.193 -0.43,-0.49 -0.557,-0.891c-0.127,-0.401 -0.191,-0.894 -0.191,-1.478l0,-6.809l-0.838,0.484c-0.153,0.088 -0.283,0.097 -0.391,0.028c-0.108,-0.069 -0.162,-0.23 -0.162,-0.484l0,-1.537l1.572,-1.314l0.581,-3.55c0.077,-0.45 0.292,-0.778 0.648,-0.984l1.544,-0.891l-0,3.849l2.401,-1.386l-0,2.693l-2.401,1.386l-0,6.543c-0,0.305 0.055,0.524 0.166,0.659c0.112,0.135 0.272,0.142 0.482,0.021c0.108,-0.062 0.198,-0.129 0.271,-0.201c0.073,-0.072 0.137,-0.143 0.191,-0.212c0.054,-0.069 0.104,-0.132 0.152,-0.19c0.048,-0.057 0.103,-0.104 0.167,-0.14c0.089,-0.052 0.16,-0.065 0.214,-0.041c0.054,0.023 0.11,0.078 0.167,0.164l0.895,1.35c-0.381,0.601 -0.809,1.135 -1.286,1.6c-0.476,0.466 -0.968,0.845 -1.477,1.139Z" style="fill:#98e5ff;fill-rule:nonzero;"/></svg>