<?xml version="1.0" encoding="UTF-8" standalone="no"?><!DOCTYPE svg PUBLIC "-//W3C//DTD SVG 1.1//EN" "http://www.w3.org/Graphics/SVG/1.1/DTD/svg11.dtd"><svg width="100%" height="100%" viewBox="0 0 200 200" version="1.1" xmlns="http://www.w3.org/2000/svg" xmlns:xlink="http://www.w3.org/1999/xlink" xml:space="preserve" xmlns:serif="http://www.serif.com/" style="fill-rule:evenodd;clip-rule:evenodd;stroke-linejoin:round;stroke-miterlimit:2;"><path d="M58.498,182.851c0.719,0.426 3.673,2.192 4.507,2.59c1.302,0.62 2.947,0.491 4.734,-0.541l68.207,-39.38c4.218,-2.435 7.642,-8.978 7.642,-14.601l0,-105.105c0,-2.768 -0.829,-4.801 -2.175,-5.861c-0.807,-0.637 -4.029,-2.41 -4.803,-2.818c-1.323,-0.697 -3.02,-0.596 -4.871,0.472l-68.206,39.38c-4.218,2.435 -7.643,8.978 -7.643,14.602l0,105.105c0,3.053 1.01,5.212 2.608,6.157Z" style="fill:#f6f6f6;"/><path d="M58.498,182.909c0.719,0.426 3.673,2.192 4.507,2.59c1.302,0.62 2.947,0.491 4.734,-0.541l68.207,-39.38c4.218,-2.435 7.642,-8.978 7.642,-14.601l0,-105.163c0,-2.768 -0.829,-4.801 -2.175,-5.861c-0.807,-0.637 -4.029,-2.41 -4.803,-2.818c-1.323,-0.697 -3.02,-0.596 -4.871,0.472l-68.206,39.38c-4.218,2.435 -7.643,8.978 -7.643,14.602l0,102.542c0,3.053 1.01,7.833 2.608,8.778Z" style="fill:#b3b3b3;fill-opacity:0.3;"/><path d="M143.588,25.814c0,-5.624 -3.424,-8.213 -7.642,-5.778l-68.207,39.379c-4.218,2.436 -7.642,8.979 -7.642,14.602l-0,105.105c-0,5.624 3.424,8.213 7.642,5.778l68.207,-39.38c4.218,-2.435 7.642,-8.978 7.642,-14.601l0,-105.105Z" style="fill:#f6f6f6;"/><path d="M131.623,49.565l-61.151,35.305l0,2.91l61.151,-35.306l0,-2.909Z" style="fill:#b3b3b3;fill-opacity:0.3;"/><path d="M131.623,39.894l-61.151,35.305l0,2.909l61.151,-35.305l0,-2.909Z" style="fill:#b3b3b3;fill-opacity:0.3;"/><path d="M131.623,59.236l-61.151,35.305l0,2.91l61.151,-35.306l0,-2.909Z" style="fill:#b3b3b3;fill-opacity:0.3;"/><path d="M131.623,68.907l-61.151,35.305l0,2.91l61.151,-35.305l0,-2.91Z" style="fill:#b3b3b3;fill-opacity:0.3;"/><path d="M131.623,78.578l-61.151,35.306l0,2.909l61.151,-35.305l0,-2.91Z" style="fill:#b3b3b3;fill-opacity:0.3;"/><path d="M131.875,87.695l-61.151,35.305l0,2.91l61.151,-35.306l-0,-2.909Z" style="fill:#b3b3b3;fill-opacity:0.3;"/><path d="M55.89,128.999l-10.981,6.339l0,35.378l13.789,7.96l82.259,-47.492l-0,-35.377l-2.807,-1.621l-79.424,45.855l-2.836,-1.637l0,-9.405Z" style="fill:#001a35;"/><path d="M58.698,143.299l-13.789,-7.961l0,35.378l13.789,7.96l-0,-35.377Z" style="fill:#001a35;"/><path d="M58.698,143.299l-13.789,-7.961l0,35.378l13.789,7.96l-0,-35.377Z" style="fill:#fff;fill-opacity:0.09;"/><path d="M58.726,140.041l-8.146,-4.703l5.31,-3.065l0,-3.274l-10.981,6.339l13.789,7.961l82.259,-47.492l-2.807,-1.621l-79.424,45.855Z" style="fill:#001a35;"/><path d="M58.726,140.041l-8.146,-4.703l5.31,-3.065l0,-3.274l-10.981,6.339l13.789,7.961l82.259,-47.492l-2.807,-1.621l-79.424,45.855Z" style="fill:#fff;fill-opacity:0.09;"/><path d="M58.726,140.041l-8.146,-4.703l5.31,-3.065l0,-3.274l-10.981,6.339l13.789,7.961l82.259,-47.492l-2.807,-1.621l-79.424,45.855Z" style="fill:#fff;fill-opacity:0.09;"/><path d="M74.487,144.921l-0,2.531l-2.905,1.678l-0,11.232l-2.395,1.383l-0,-11.233l-2.905,1.677l-0,-2.531l8.205,-4.737Z" style="fill:#71c6fa;fill-rule:nonzero;"/><path d="M77.207,159.655c-0.066,0.234 -0.146,0.423 -0.241,0.569c-0.094,0.146 -0.245,0.279 -0.453,0.399l-1.644,0.949l1.417,-4.786l-2.933,-7.243l1.941,-1.121c0.17,-0.098 0.303,-0.124 0.397,-0.078c0.095,0.046 0.161,0.128 0.198,0.245l1.205,3.527c0.113,0.325 0.205,0.662 0.276,1.012c0.048,-0.229 0.099,-0.457 0.156,-0.685c0.057,-0.228 0.111,-0.458 0.163,-0.69l1.091,-4.833c0.038,-0.167 0.112,-0.331 0.223,-0.493c0.111,-0.162 0.231,-0.279 0.358,-0.353l1.772,-1.023l-3.926,14.604Z" style="fill:#71c6fa;fill-rule:nonzero;"/><path d="M82.039,157.432l0,-12.904l1.361,-0.786c0.137,-0.079 0.251,-0.104 0.344,-0.075c0.092,0.028 0.157,0.114 0.194,0.256l0.163,0.623c0.142,-0.289 0.294,-0.566 0.457,-0.83c0.163,-0.264 0.338,-0.512 0.525,-0.742c0.186,-0.231 0.387,-0.443 0.602,-0.636c0.215,-0.193 0.45,-0.364 0.705,-0.511c0.382,-0.221 0.737,-0.312 1.063,-0.274c0.326,0.039 0.607,0.204 0.843,0.496c0.236,0.292 0.421,0.709 0.556,1.252c0.135,0.543 0.202,1.208 0.202,1.995c-0,0.737 -0.077,1.461 -0.23,2.173c-0.154,0.713 -0.369,1.378 -0.645,1.998c-0.276,0.619 -0.607,1.169 -0.992,1.649c-0.385,0.481 -0.811,0.856 -1.279,1.126c-0.383,0.221 -0.704,0.334 -0.964,0.339c-0.259,0.005 -0.496,-0.054 -0.708,-0.177l-0,3.76l-2.197,1.268Zm3.586,-12.924c-0.161,0.092 -0.306,0.197 -0.436,0.313c-0.13,0.116 -0.25,0.243 -0.361,0.383c-0.111,0.14 -0.214,0.295 -0.309,0.466c-0.094,0.171 -0.189,0.36 -0.283,0.565l-0,4.157c0.165,0.15 0.345,0.218 0.538,0.204c0.194,-0.014 0.397,-0.083 0.61,-0.205c0.203,-0.118 0.389,-0.279 0.559,-0.484c0.171,-0.205 0.318,-0.462 0.443,-0.771c0.126,-0.308 0.224,-0.672 0.294,-1.09c0.071,-0.419 0.107,-0.899 0.107,-1.441c-0,-0.517 -0.029,-0.935 -0.085,-1.255c-0.057,-0.32 -0.136,-0.559 -0.238,-0.718c-0.101,-0.158 -0.223,-0.244 -0.365,-0.257c-0.141,-0.012 -0.3,0.032 -0.474,0.133Z" style="fill:#71c6fa;fill-rule:nonzero;"/><path d="M93.376,137.831c0.487,-0.281 0.932,-0.437 1.336,-0.468c0.403,-0.032 0.751,0.06 1.041,0.277c0.291,0.216 0.517,0.556 0.68,1.019c0.163,0.464 0.245,1.048 0.245,1.753c-0,0.221 -0.007,0.404 -0.022,0.551c-0.014,0.147 -0.04,0.272 -0.077,0.376c-0.038,0.104 -0.089,0.19 -0.153,0.258c-0.064,0.068 -0.145,0.131 -0.244,0.188l-4.237,2.446c0.071,0.778 0.257,1.264 0.559,1.458c0.303,0.194 0.692,0.153 1.17,-0.122c0.255,-0.148 0.474,-0.315 0.659,-0.503c0.184,-0.189 0.348,-0.375 0.492,-0.559c0.144,-0.184 0.276,-0.351 0.397,-0.503c0.12,-0.151 0.247,-0.265 0.379,-0.341c0.175,-0.101 0.307,-0.093 0.397,0.026l0.637,0.68c-0.226,0.477 -0.471,0.9 -0.733,1.269c-0.262,0.369 -0.531,0.694 -0.808,0.976c-0.276,0.283 -0.552,0.527 -0.829,0.734c-0.276,0.207 -0.539,0.382 -0.79,0.527c-0.515,0.297 -0.998,0.464 -1.449,0.501c-0.451,0.037 -0.845,-0.067 -1.183,-0.313c-0.338,-0.246 -0.605,-0.64 -0.801,-1.182c-0.196,-0.542 -0.294,-1.247 -0.294,-2.116c0,-0.655 0.084,-1.324 0.252,-2.007c0.168,-0.682 0.408,-1.335 0.723,-1.957c0.314,-0.622 0.694,-1.191 1.14,-1.707c0.447,-0.516 0.951,-0.936 1.513,-1.261Zm0.042,1.997c-0.42,0.243 -0.748,0.592 -0.984,1.046c-0.237,0.455 -0.392,1.003 -0.468,1.645l2.742,-1.583c0,-0.233 -0.022,-0.447 -0.067,-0.642c-0.045,-0.194 -0.118,-0.349 -0.22,-0.463c-0.101,-0.115 -0.235,-0.178 -0.4,-0.19c-0.166,-0.011 -0.366,0.051 -0.603,0.187Z" style="fill:#71c6fa;fill-rule:nonzero;"/><path d="M103.692,130.855c-0.071,0.192 -0.145,0.348 -0.223,0.469c-0.078,0.121 -0.178,0.216 -0.301,0.287c-0.109,0.063 -0.226,0.085 -0.351,0.066c-0.125,-0.019 -0.267,-0.04 -0.425,-0.062c-0.158,-0.022 -0.339,-0.02 -0.542,0.006c-0.203,0.026 -0.435,0.114 -0.694,0.264c-0.449,0.259 -0.783,0.579 -1.003,0.961c-0.22,0.382 -0.329,0.79 -0.329,1.225c-0,0.277 0.066,0.469 0.198,0.575c0.132,0.106 0.306,0.164 0.521,0.172c0.215,0.008 0.46,-0.013 0.737,-0.062c0.276,-0.049 0.558,-0.089 0.846,-0.12c0.288,-0.031 0.571,-0.035 0.847,-0.012c0.276,0.023 0.522,0.114 0.737,0.274c0.215,0.159 0.388,0.403 0.521,0.733c0.132,0.33 0.198,0.782 0.198,1.355c0,0.636 -0.083,1.279 -0.248,1.929c-0.165,0.649 -0.405,1.271 -0.719,1.865c-0.314,0.594 -0.702,1.142 -1.162,1.644c-0.461,0.502 -0.984,0.922 -1.569,1.26c-0.322,0.186 -0.649,0.33 -0.982,0.434c-0.333,0.105 -0.655,0.166 -0.967,0.186c-0.312,0.019 -0.605,-0.002 -0.878,-0.065c-0.274,-0.062 -0.513,-0.17 -0.716,-0.323l0.708,-1.902c0.052,-0.143 0.126,-0.277 0.22,-0.401c0.095,-0.124 0.196,-0.217 0.305,-0.28c0.141,-0.081 0.284,-0.104 0.428,-0.068c0.144,0.037 0.307,0.075 0.489,0.115c0.182,0.04 0.391,0.051 0.627,0.035c0.237,-0.017 0.515,-0.118 0.836,-0.304c0.435,-0.25 0.773,-0.573 1.014,-0.967c0.24,-0.394 0.361,-0.869 0.361,-1.423c-0,-0.321 -0.066,-0.544 -0.198,-0.669c-0.133,-0.125 -0.306,-0.192 -0.521,-0.2c-0.215,-0.009 -0.46,0.016 -0.734,0.074c-0.274,0.057 -0.555,0.107 -0.843,0.151c-0.288,0.043 -0.569,0.055 -0.843,0.033c-0.274,-0.021 -0.518,-0.116 -0.733,-0.285c-0.215,-0.169 -0.389,-0.434 -0.521,-0.795c-0.132,-0.361 -0.198,-0.863 -0.198,-1.506c-0,-0.516 0.078,-1.065 0.233,-1.646c0.156,-0.581 0.385,-1.151 0.688,-1.71c0.302,-0.559 0.673,-1.08 1.112,-1.564c0.439,-0.483 0.942,-0.888 1.509,-1.216c0.317,-0.182 0.625,-0.327 0.925,-0.434c0.3,-0.107 0.584,-0.174 0.854,-0.2c0.269,-0.027 0.52,-0.018 0.754,0.027c0.234,0.044 0.443,0.127 0.627,0.247l-0.595,1.827Z" style="fill:#71c6fa;fill-rule:nonzero;"/><path d="M110.919,130.178c-0.066,0.145 -0.13,0.267 -0.191,0.365c-0.061,0.099 -0.149,0.181 -0.262,0.246c-0.109,0.063 -0.207,0.085 -0.294,0.066c-0.088,-0.019 -0.186,-0.039 -0.294,-0.062c-0.109,-0.022 -0.237,-0.025 -0.383,-0.01c-0.146,0.015 -0.328,0.085 -0.546,0.211c-0.269,0.155 -0.501,0.356 -0.697,0.601c-0.196,0.246 -0.358,0.528 -0.486,0.847c-0.127,0.32 -0.222,0.675 -0.283,1.066c-0.062,0.391 -0.092,0.811 -0.092,1.258c-0,0.938 0.136,1.581 0.407,1.928c0.272,0.347 0.646,0.383 1.123,0.107c0.255,-0.147 0.457,-0.306 0.606,-0.477c0.149,-0.171 0.275,-0.338 0.379,-0.502c0.104,-0.164 0.2,-0.315 0.287,-0.454c0.087,-0.139 0.197,-0.246 0.329,-0.323c0.175,-0.1 0.307,-0.092 0.397,0.026l0.638,0.681c-0.227,0.477 -0.465,0.897 -0.716,1.259c-0.25,0.361 -0.506,0.679 -0.768,0.954c-0.263,0.274 -0.526,0.511 -0.79,0.711c-0.265,0.2 -0.522,0.372 -0.773,0.517c-0.449,0.259 -0.877,0.393 -1.286,0.402c-0.408,0.009 -0.767,-0.113 -1.077,-0.366c-0.309,-0.252 -0.555,-0.641 -0.737,-1.166c-0.181,-0.525 -0.272,-1.19 -0.272,-1.996c-0,-0.706 0.079,-1.411 0.237,-2.117c0.158,-0.705 0.392,-1.372 0.701,-2.001c0.31,-0.629 0.692,-1.204 1.148,-1.726c0.456,-0.521 0.984,-0.955 1.584,-1.301c0.576,-0.333 1.081,-0.502 1.516,-0.507c0.435,-0.005 0.827,0.127 1.176,0.398l-0.581,1.365Z" style="fill:#71c6fa;fill-rule:nonzero;"/><path d="M112.506,136.734l0,-9.796l1.304,-0.753c0.109,-0.063 0.2,-0.103 0.273,-0.12c0.073,-0.017 0.134,-0.013 0.184,0.012c0.05,0.025 0.087,0.074 0.113,0.147c0.026,0.073 0.049,0.167 0.068,0.282l0.12,0.847c0.269,-0.709 0.572,-1.322 0.907,-1.837c0.335,-0.514 0.702,-0.886 1.098,-1.115c0.336,-0.194 0.605,-0.242 0.808,-0.146l-0.283,2.318c-0.019,0.143 -0.057,0.258 -0.114,0.344c-0.056,0.086 -0.132,0.157 -0.226,0.211c-0.081,0.047 -0.175,0.087 -0.284,0.121c-0.109,0.035 -0.246,0.1 -0.411,0.195c-0.576,0.333 -1.03,1.004 -1.36,2.014l-0,6.008l-2.197,1.268Z" style="fill:#71c6fa;fill-rule:nonzero;"/><path d="M120.626,122.25l0,9.796l-2.196,1.268l-0,-9.796l2.196,-1.268Zm0.255,-2.831c0,0.233 -0.035,0.473 -0.106,0.718c-0.071,0.246 -0.168,0.481 -0.291,0.707c-0.122,0.225 -0.265,0.43 -0.428,0.615c-0.163,0.186 -0.337,0.332 -0.521,0.438c-0.18,0.104 -0.347,0.155 -0.503,0.154c-0.156,-0.002 -0.294,-0.045 -0.415,-0.13c-0.12,-0.084 -0.215,-0.209 -0.283,-0.374c-0.069,-0.166 -0.103,-0.365 -0.103,-0.598c0,-0.239 0.034,-0.482 0.103,-0.73c0.068,-0.247 0.163,-0.484 0.283,-0.711c0.121,-0.227 0.259,-0.43 0.415,-0.608c0.156,-0.178 0.323,-0.319 0.503,-0.423c0.184,-0.106 0.358,-0.162 0.521,-0.168c0.163,-0.006 0.306,0.034 0.428,0.121c0.123,0.086 0.22,0.213 0.291,0.38c0.071,0.167 0.106,0.37 0.106,0.609Z" style="fill:#71c6fa;fill-rule:nonzero;"/><path d="M122.397,134.132l0,-12.905l1.361,-0.785c0.137,-0.08 0.251,-0.105 0.343,-0.076c0.093,0.029 0.157,0.114 0.195,0.256l0.163,0.624c0.142,-0.29 0.294,-0.567 0.457,-0.831c0.163,-0.264 0.338,-0.511 0.525,-0.742c0.186,-0.23 0.387,-0.442 0.602,-0.636c0.215,-0.193 0.45,-0.363 0.705,-0.511c0.382,-0.221 0.737,-0.312 1.063,-0.273c0.326,0.038 0.607,0.204 0.843,0.496c0.236,0.291 0.421,0.709 0.556,1.251c0.135,0.543 0.202,1.208 0.202,1.995c-0,0.737 -0.077,1.462 -0.23,2.174c-0.154,0.712 -0.369,1.378 -0.645,1.997c-0.276,0.619 -0.607,1.169 -0.992,1.65c-0.385,0.48 -0.811,0.855 -1.279,1.125c-0.383,0.221 -0.704,0.334 -0.964,0.339c-0.259,0.005 -0.496,-0.053 -0.708,-0.176l-0,3.76l-2.197,1.268Zm3.586,-12.925c-0.161,0.093 -0.306,0.197 -0.436,0.313c-0.13,0.116 -0.251,0.244 -0.362,0.383c-0.111,0.14 -0.213,0.296 -0.308,0.467c-0.094,0.171 -0.189,0.359 -0.283,0.565l-0,4.156c0.165,0.151 0.345,0.219 0.538,0.204c0.194,-0.014 0.397,-0.082 0.61,-0.205c0.203,-0.117 0.389,-0.279 0.559,-0.484c0.17,-0.205 0.318,-0.462 0.443,-0.77c0.125,-0.309 0.223,-0.672 0.294,-1.091c0.071,-0.419 0.107,-0.899 0.107,-1.441c-0,-0.516 -0.029,-0.934 -0.085,-1.254c-0.057,-0.32 -0.136,-0.56 -0.238,-0.718c-0.101,-0.159 -0.223,-0.245 -0.365,-0.257c-0.141,-0.013 -0.3,0.031 -0.474,0.132Z" style="fill:#71c6fa;fill-rule:nonzero;"/><path d="M133.167,124.957c-0.349,0.202 -0.658,0.312 -0.925,0.331c-0.266,0.018 -0.491,-0.044 -0.673,-0.188c-0.182,-0.144 -0.32,-0.365 -0.414,-0.663c-0.095,-0.298 -0.142,-0.664 -0.142,-1.099l0,-5.064l-0.623,0.36c-0.114,0.066 -0.211,0.073 -0.291,0.022c-0.08,-0.052 -0.12,-0.172 -0.12,-0.361l-0,-1.143l1.169,-0.977l0.432,-2.64c0.057,-0.335 0.217,-0.579 0.482,-0.731l1.148,-0.663l-0,2.862l1.785,-1.03l0,2.002l-1.785,1.031l-0,4.865c-0,0.227 0.041,0.391 0.124,0.491c0.082,0.1 0.202,0.105 0.357,0.015c0.081,-0.046 0.148,-0.096 0.202,-0.149c0.055,-0.054 0.102,-0.106 0.142,-0.158c0.04,-0.051 0.078,-0.098 0.113,-0.141c0.036,-0.042 0.077,-0.077 0.124,-0.104c0.067,-0.038 0.12,-0.049 0.16,-0.031c0.04,0.018 0.081,0.059 0.124,0.122l0.666,1.004c-0.284,0.447 -0.602,0.844 -0.957,1.19c-0.354,0.347 -0.72,0.629 -1.098,0.847Z" style="fill:#71c6fa;fill-rule:nonzero;"/></svg>