<?xml version="1.0" encoding="UTF-8" standalone="no"?><!DOCTYPE svg PUBLIC "-//W3C//DTD SVG 1.1//EN" "http://www.w3.org/Graphics/SVG/1.1/DTD/svg11.dtd"><svg width="100%" height="100%" viewBox="0 0 200 200" version="1.1" xmlns="http://www.w3.org/2000/svg" xmlns:xlink="http://www.w3.org/1999/xlink" xml:space="preserve" xmlns:serif="http://www.serif.com/" style="fill-rule:evenodd;clip-rule:evenodd;stroke-linejoin:round;stroke-miterlimit:2;"><path d="M58.498,182.851c0.719,0.426 3.673,2.192 4.507,2.59c1.302,0.62 2.947,0.491 4.734,-0.541l68.207,-39.38c4.218,-2.435 7.642,-8.978 7.642,-14.601l0,-105.105c0,-2.768 -0.829,-4.801 -2.175,-5.861c-0.807,-0.637 -4.029,-2.41 -4.803,-2.818c-1.323,-0.697 -3.02,-0.596 -4.871,0.472l-68.206,39.38c-4.218,2.435 -7.643,8.978 -7.643,14.602l0,105.105c0,3.053 1.01,5.212 2.608,6.157Z" style="fill:#f6f6f6;"/><path d="M58.498,182.909c0.719,0.426 3.673,2.192 4.507,2.59c1.302,0.62 2.947,0.491 4.734,-0.541l68.207,-39.38c4.218,-2.435 7.642,-8.978 7.642,-14.601l0,-105.163c0,-2.768 -0.829,-4.801 -2.175,-5.861c-0.807,-0.637 -4.029,-2.41 -4.803,-2.818c-1.323,-0.697 -3.02,-0.596 -4.871,0.472l-68.206,39.38c-4.218,2.435 -7.643,8.978 -7.643,14.602l0,102.542c0,3.053 1.01,7.833 2.608,8.778Z" style="fill:#b3b3b3;fill-opacity:0.3;"/><path d="M143.588,25.814c0,-5.624 -3.424,-8.213 -7.642,-5.778l-68.207,39.379c-4.218,2.436 -7.642,8.979 -7.642,14.602l-0,105.105c-0,5.624 3.424,8.213 7.642,5.778l68.207,-39.38c4.218,-2.435 7.642,-8.978 7.642,-14.601l0,-105.105Z" style="fill:#f6f6f6;"/><path d="M131.623,49.565l-61.151,35.305l0,2.91l61.151,-35.306l0,-2.909Z" style="fill:#b3b3b3;fill-opacity:0.3;"/><path d="M131.623,39.894l-61.151,35.305l0,2.909l61.151,-35.305l0,-2.909Z" style="fill:#b3b3b3;fill-opacity:0.3;"/><path d="M131.623,59.236l-61.151,35.305l0,2.91l61.151,-35.306l0,-2.909Z" style="fill:#b3b3b3;fill-opacity:0.3;"/><path d="M131.623,68.907l-61.151,35.305l0,2.91l61.151,-35.305l0,-2.91Z" style="fill:#b3b3b3;fill-opacity:0.3;"/><path d="M131.623,78.578l-61.151,35.306l0,2.909l61.151,-35.305l0,-2.91Z" style="fill:#b3b3b3;fill-opacity:0.3;"/><path d="M131.875,87.695l-61.151,35.305l0,2.91l61.151,-35.306l-0,-2.909Z" style="fill:#b3b3b3;fill-opacity:0.3;"/><path d="M55.89,128.999l-10.981,6.339l0,35.378l13.789,7.96l82.259,-47.492l-0,-35.377l-2.807,-1.621l-79.424,45.855l-2.836,-1.637l0,-9.405Z" style="fill:#001a35;"/><path d="M58.698,143.299l-13.789,-7.961l0,35.378l13.789,7.96l-0,-35.377Z" style="fill:#001a35;"/><path d="M58.698,143.299l-13.789,-7.961l0,35.378l13.789,7.96l-0,-35.377Z" style="fill:#fff;fill-opacity:0.09;"/><path d="M58.726,140.041l-8.146,-4.703l5.31,-3.065l0,-3.274l-10.981,6.339l13.789,7.961l82.259,-47.492l-2.807,-1.621l-79.424,45.855Z" style="fill:#001a35;"/><path d="M58.726,140.041l-8.146,-4.703l5.31,-3.065l0,-3.274l-10.981,6.339l13.789,7.961l82.259,-47.492l-2.807,-1.621l-79.424,45.855Z" style="fill:#fff;fill-opacity:0.09;"/><path d="M58.726,140.041l-8.146,-4.703l5.31,-3.065l0,-3.274l-10.981,6.339l13.789,7.961l82.259,-47.492l-2.807,-1.621l-79.424,45.855Z" style="fill:#fff;fill-opacity:0.09;"/><path d="M92.227,135.372c-0.093,0.254 -0.192,0.461 -0.295,0.62c-0.103,0.16 -0.236,0.286 -0.398,0.38c-0.144,0.083 -0.298,0.112 -0.464,0.087c-0.166,-0.025 -0.353,-0.052 -0.562,-0.082c-0.21,-0.029 -0.449,-0.026 -0.717,0.008c-0.269,0.035 -0.575,0.151 -0.919,0.349c-0.593,0.343 -1.036,0.767 -1.326,1.272c-0.291,0.505 -0.436,1.045 -0.436,1.62c0,0.367 0.088,0.62 0.263,0.761c0.175,0.14 0.404,0.216 0.688,0.227c0.285,0.011 0.61,-0.016 0.975,-0.082c0.366,-0.065 0.739,-0.118 1.12,-0.159c0.381,-0.041 0.755,-0.046 1.12,-0.016c0.366,0.031 0.691,0.152 0.975,0.362c0.284,0.211 0.514,0.535 0.689,0.971c0.175,0.436 0.262,1.034 0.262,1.792c0,0.841 -0.109,1.692 -0.328,2.551c-0.219,0.859 -0.536,1.682 -0.951,2.467c-0.416,0.786 -0.928,1.511 -1.537,2.175c-0.609,0.664 -1.301,1.22 -2.076,1.667c-0.425,0.246 -0.858,0.437 -1.298,0.575c-0.441,0.137 -0.867,0.219 -1.28,0.245c-0.412,0.025 -0.799,-0.003 -1.162,-0.085c-0.362,-0.083 -0.678,-0.225 -0.946,-0.429l0.937,-2.515c0.069,-0.19 0.165,-0.366 0.29,-0.53c0.125,-0.164 0.26,-0.287 0.403,-0.37c0.188,-0.109 0.377,-0.139 0.567,-0.09c0.191,0.048 0.407,0.098 0.647,0.151c0.241,0.053 0.517,0.068 0.83,0.046c0.312,-0.022 0.681,-0.156 1.106,-0.401c0.574,-0.332 1.021,-0.758 1.34,-1.28c0.318,-0.521 0.478,-1.148 0.478,-1.882c-0,-0.425 -0.088,-0.72 -0.263,-0.885c-0.175,-0.166 -0.404,-0.254 -0.689,-0.265c-0.284,-0.011 -0.607,0.022 -0.97,0.098c-0.362,0.076 -0.734,0.142 -1.115,0.2c-0.381,0.058 -0.753,0.072 -1.115,0.044c-0.363,-0.028 -0.686,-0.154 -0.97,-0.377c-0.285,-0.223 -0.514,-0.574 -0.689,-1.052c-0.175,-0.478 -0.263,-1.142 -0.263,-1.992c0,-0.683 0.104,-1.409 0.31,-2.178c0.206,-0.768 0.509,-1.522 0.909,-2.261c0.4,-0.74 0.89,-1.429 1.471,-2.068c0.581,-0.64 1.247,-1.176 1.997,-1.609c0.418,-0.242 0.826,-0.433 1.223,-0.575c0.397,-0.142 0.773,-0.23 1.129,-0.265c0.356,-0.035 0.689,-0.023 0.998,0.036c0.31,0.059 0.586,0.168 0.83,0.327l-0.788,2.417Z" style="fill:#f6f6f6;fill-rule:nonzero;"/><path d="M108.254,131.517c0,0.784 -0.061,1.571 -0.183,2.362c-0.121,0.791 -0.296,1.568 -0.524,2.333c-0.228,0.765 -0.51,1.515 -0.844,2.249c-0.334,0.735 -0.714,1.433 -1.139,2.095l3.459,3.039l-2.606,1.504c-0.375,0.217 -0.715,0.353 -1.021,0.409c-0.307,0.056 -0.578,-0.031 -0.816,-0.26l-1.696,-1.558c-0.275,0.234 -0.555,0.454 -0.839,0.66c-0.284,0.206 -0.576,0.395 -0.876,0.568c-1.063,0.613 -2.031,0.935 -2.906,0.965c-0.874,0.03 -1.623,-0.194 -2.244,-0.672c-0.622,-0.478 -1.103,-1.186 -1.444,-2.122c-0.34,-0.936 -0.511,-2.063 -0.511,-3.379c0,-1.316 0.171,-2.639 0.511,-3.969c0.341,-1.33 0.822,-2.59 1.444,-3.782c0.621,-1.193 1.37,-2.279 2.244,-3.258c0.875,-0.98 1.843,-1.777 2.906,-2.39c1.062,-0.613 2.029,-0.932 2.9,-0.956c0.872,-0.025 1.617,0.201 2.236,0.677c0.618,0.476 1.098,1.182 1.438,2.119c0.341,0.936 0.511,2.058 0.511,3.366Zm-3.243,1.873c0,-0.9 -0.087,-1.66 -0.262,-2.279c-0.175,-0.62 -0.426,-1.085 -0.755,-1.396c-0.328,-0.31 -0.729,-0.461 -1.204,-0.454c-0.475,0.008 -1.015,0.186 -1.621,0.536c-0.613,0.354 -1.158,0.802 -1.636,1.344c-0.478,0.543 -0.881,1.159 -1.209,1.848c-0.328,0.689 -0.579,1.445 -0.754,2.267c-0.175,0.821 -0.263,1.682 -0.263,2.582c0,0.908 0.088,1.672 0.263,2.291c0.175,0.62 0.426,1.085 0.754,1.395c0.328,0.311 0.731,0.459 1.209,0.446c0.478,-0.014 1.023,-0.197 1.636,-0.551c0.606,-0.35 1.146,-0.793 1.621,-1.33c0.475,-0.536 0.876,-1.149 1.204,-1.838c0.329,-0.69 0.58,-1.445 0.755,-2.267c0.175,-0.821 0.262,-1.686 0.262,-2.594Z" style="fill:#f6f6f6;fill-rule:nonzero;"/><path d="M112.94,134.548l5.061,-2.922l0,3.374l-8.228,4.751l-0,-18.208l3.167,-1.829l0,14.834Z" style="fill:#f6f6f6;fill-rule:nonzero;"/></svg>