<?xml version="1.0" encoding="UTF-8" standalone="no"?><!DOCTYPE svg PUBLIC "-//W3C//DTD SVG 1.1//EN" "http://www.w3.org/Graphics/SVG/1.1/DTD/svg11.dtd"><svg width="100%" height="100%" viewBox="0 0 200 200" version="1.1" xmlns="http://www.w3.org/2000/svg" xmlns:xlink="http://www.w3.org/1999/xlink" xml:space="preserve" xmlns:serif="http://www.serif.com/" style="fill-rule:evenodd;clip-rule:evenodd;stroke-linejoin:round;stroke-miterlimit:2;"><path d="M58.498,182.851c0.719,0.426 3.673,2.192 4.507,2.59c1.302,0.62 2.947,0.491 4.734,-0.541l68.207,-39.38c4.218,-2.435 7.642,-8.978 7.642,-14.601l0,-105.105c0,-2.768 -0.829,-4.801 -2.175,-5.861c-0.807,-0.637 -4.029,-2.41 -4.803,-2.818c-1.323,-0.697 -3.02,-0.596 -4.871,0.472l-68.206,39.38c-4.218,2.435 -7.643,8.978 -7.643,14.602l0,105.105c0,3.053 1.01,5.212 2.608,6.157Z" style="fill:#f6f6f6;"/><path d="M58.498,182.909c0.719,0.426 3.673,2.192 4.507,2.59c1.302,0.62 2.947,0.491 4.734,-0.541l68.207,-39.38c4.218,-2.435 7.642,-8.978 7.642,-14.601l0,-105.163c0,-2.768 -0.829,-4.801 -2.175,-5.861c-0.807,-0.637 -4.029,-2.41 -4.803,-2.818c-1.323,-0.697 -3.02,-0.596 -4.871,0.472l-68.206,39.38c-4.218,2.435 -7.643,8.978 -7.643,14.602l0,102.542c0,3.053 1.01,7.833 2.608,8.778Z" style="fill:#b3b3b3;fill-opacity:0.3;"/><path d="M143.588,25.814c0,-5.624 -3.424,-8.213 -7.642,-5.778l-68.207,39.379c-4.218,2.436 -7.642,8.979 -7.642,14.602l-0,105.105c-0,5.624 3.424,8.213 7.642,5.778l68.207,-39.38c4.218,-2.435 7.642,-8.978 7.642,-14.601l0,-105.105Z" style="fill:#f6f6f6;"/><path d="M131.623,49.565l-61.151,35.305l0,2.91l61.151,-35.306l0,-2.909Z" style="fill:#b3b3b3;fill-opacity:0.3;"/><path d="M131.623,39.894l-61.151,35.305l0,2.909l61.151,-35.305l0,-2.909Z" style="fill:#b3b3b3;fill-opacity:0.3;"/><path d="M131.623,59.236l-61.151,35.305l0,2.91l61.151,-35.306l0,-2.909Z" style="fill:#b3b3b3;fill-opacity:0.3;"/><path d="M131.623,68.907l-61.151,35.305l0,2.91l61.151,-35.305l0,-2.91Z" style="fill:#b3b3b3;fill-opacity:0.3;"/><path d="M131.623,78.578l-61.151,35.306l0,2.909l61.151,-35.305l0,-2.91Z" style="fill:#b3b3b3;fill-opacity:0.3;"/><path d="M131.875,87.695l-61.151,35.305l0,2.91l61.151,-35.306l-0,-2.909Z" style="fill:#b3b3b3;fill-opacity:0.3;"/><path d="M55.89,128.999l-10.981,6.339l0,35.378l13.789,7.96l82.259,-47.492l-0,-35.377l-2.807,-1.621l-79.424,45.855l-2.836,-1.637l0,-9.405Z" style="fill:#001a35;"/><path d="M58.698,143.299l-13.789,-7.961l0,35.378l13.789,7.96l-0,-35.377Z" style="fill:#001a35;"/><path d="M58.698,143.299l-13.789,-7.961l0,35.378l13.789,7.96l-0,-35.377Z" style="fill:#fff;fill-opacity:0.09;"/><path d="M58.726,140.041l-8.146,-4.703l5.31,-3.065l0,-3.274l-10.981,6.339l13.789,7.961l82.259,-47.492l-2.807,-1.621l-79.424,45.855Z" style="fill:#001a35;"/><path d="M87.724,154.097l-3.373,1.948l0,-8.148l-5.872,3.391l-0,8.147l-3.373,1.947l0,-19.271l3.373,-1.947l-0,8.055l5.872,-3.391l0,-8.055l3.373,-1.947l0,19.271Z" style="fill:#fc6969;fill-rule:nonzero;"/><path d="M100.6,127.392l0,3.545l-4.067,2.348l0,15.726l-3.353,1.936l0,-15.726l-4.067,2.348l-0,-3.545l11.487,-6.632Z" style="fill:#fc6969;fill-rule:nonzero;"/><path d="M109.379,132.786c0.133,0.259 0.26,0.533 0.382,0.824c0.123,0.291 0.24,0.594 0.352,0.908c0.113,-0.453 0.232,-0.899 0.357,-1.337c0.126,-0.439 0.255,-0.868 0.387,-1.288l3.71,-11.877c0.067,-0.206 0.134,-0.375 0.204,-0.508c0.069,-0.132 0.147,-0.245 0.233,-0.339c0.086,-0.094 0.183,-0.177 0.292,-0.248c0.11,-0.072 0.237,-0.15 0.382,-0.234l2.56,-1.478l-0,19.271l-2.956,1.707l-0,-11.084c-0,-0.538 0.019,-1.131 0.059,-1.78l-3.829,12.117c-0.119,0.378 -0.279,0.704 -0.481,0.979c-0.202,0.275 -0.432,0.487 -0.689,0.636l-0.457,0.264c-0.258,0.149 -0.488,0.202 -0.689,0.16c-0.202,-0.043 -0.362,-0.184 -0.481,-0.424l-3.849,-7.697c0.026,0.293 0.046,0.588 0.059,0.884c0.013,0.297 0.02,0.573 0.02,0.829l0,11.084l-2.956,1.706l-0,-19.271l2.559,-1.477c0.146,-0.084 0.273,-0.153 0.382,-0.207c0.109,-0.055 0.207,-0.085 0.293,-0.09c0.086,-0.006 0.164,0.018 0.233,0.07c0.069,0.053 0.137,0.144 0.203,0.273l3.72,7.627Z" style="fill:#fc6969;fill-rule:nonzero;"/><path d="M123.971,129.599l5.357,-3.093l0,3.571l-8.709,5.029l-0,-19.271l3.352,-1.936l0,15.7Z" style="fill:#fc6969;fill-rule:nonzero;"/><path d="M58.726,140.041l-8.146,-4.703l5.31,-3.065l0,-3.274l-10.981,6.339l13.789,7.961l82.259,-47.492l-2.807,-1.621l-79.424,45.855Z" style="fill:#fff;fill-opacity:0.09;"/><path d="M58.726,140.041l-8.146,-4.703l5.31,-3.065l0,-3.274l-10.981,6.339l13.789,7.961l82.259,-47.492l-2.807,-1.621l-79.424,45.855Z" style="fill:#fff;fill-opacity:0.09;"/></svg>