<?xml version="1.0" encoding="UTF-8" standalone="no"?><!DOCTYPE svg PUBLIC "-//W3C//DTD SVG 1.1//EN" "http://www.w3.org/Graphics/SVG/1.1/DTD/svg11.dtd"><svg width="100%" height="100%" viewBox="0 0 200 200" version="1.1" xmlns="http://www.w3.org/2000/svg" xmlns:xlink="http://www.w3.org/1999/xlink" xml:space="preserve" xmlns:serif="http://www.serif.com/" style="fill-rule:evenodd;clip-rule:evenodd;stroke-linejoin:round;stroke-miterlimit:2;"><path d="M58.498,182.851c0.719,0.426 3.673,2.192 4.507,2.59c1.302,0.62 2.947,0.491 4.734,-0.541l68.207,-39.38c4.218,-2.435 7.642,-8.978 7.642,-14.601l0,-105.105c0,-2.768 -0.829,-4.801 -2.175,-5.861c-0.807,-0.637 -4.029,-2.41 -4.803,-2.818c-1.323,-0.697 -3.02,-0.596 -4.871,0.472l-68.206,39.38c-4.218,2.435 -7.643,8.978 -7.643,14.602l0,105.105c0,3.053 1.01,5.212 2.608,6.157Z" style="fill:#f6f6f6;"/><path d="M58.498,182.909c0.719,0.426 3.673,2.192 4.507,2.59c1.302,0.62 2.947,0.491 4.734,-0.541l68.207,-39.38c4.218,-2.435 7.642,-8.978 7.642,-14.601l0,-105.163c0,-2.768 -0.829,-4.801 -2.175,-5.861c-0.807,-0.637 -4.029,-2.41 -4.803,-2.818c-1.323,-0.697 -3.02,-0.596 -4.871,0.472l-68.206,39.38c-4.218,2.435 -7.643,8.978 -7.643,14.602l0,102.542c0,3.053 1.01,7.833 2.608,8.778Z" style="fill:#b3b3b3;fill-opacity:0.3;"/><path d="M143.588,25.814c0,-5.624 -3.424,-8.213 -7.642,-5.778l-68.207,39.379c-4.218,2.436 -7.642,8.979 -7.642,14.602l-0,105.105c-0,5.624 3.424,8.213 7.642,5.778l68.207,-39.38c4.218,-2.435 7.642,-8.978 7.642,-14.601l0,-105.105Z" style="fill:#f6f6f6;"/><path d="M131.623,49.565l-61.151,35.305l0,2.91l61.151,-35.306l0,-2.909Z" style="fill:#b3b3b3;fill-opacity:0.3;"/><path d="M131.623,39.894l-61.151,35.305l0,2.909l61.151,-35.305l0,-2.909Z" style="fill:#b3b3b3;fill-opacity:0.3;"/><path d="M131.623,59.236l-61.151,35.305l0,2.91l61.151,-35.306l0,-2.909Z" style="fill:#b3b3b3;fill-opacity:0.3;"/><path d="M131.623,68.907l-61.151,35.305l0,2.91l61.151,-35.305l0,-2.91Z" style="fill:#b3b3b3;fill-opacity:0.3;"/><path d="M131.623,78.578l-61.151,35.306l0,2.909l61.151,-35.305l0,-2.91Z" style="fill:#b3b3b3;fill-opacity:0.3;"/><path d="M131.875,87.695l-61.151,35.305l0,2.91l61.151,-35.306l-0,-2.909Z" style="fill:#b3b3b3;fill-opacity:0.3;"/><path d="M55.89,128.999l-10.981,6.339l0,35.378l13.789,7.96l82.259,-47.492l-0,-35.377l-2.807,-1.621l-79.424,45.855l-2.836,-1.637l0,-9.405Z" style="fill:#001a35;"/><path d="M58.698,143.299l-13.789,-7.961l0,35.378l13.789,7.96l-0,-35.377Z" style="fill:#001a35;"/><path d="M58.698,143.299l-13.789,-7.961l0,35.378l13.789,7.96l-0,-35.377Z" style="fill:#fff;fill-opacity:0.09;"/><path d="M58.726,140.041l-8.146,-4.703l5.31,-3.065l0,-3.274l-10.981,6.339l13.789,7.961l82.259,-47.492l-2.807,-1.621l-79.424,45.855Z" style="fill:#001a35;"/><path d="M58.726,140.041l-8.146,-4.703l5.31,-3.065l0,-3.274l-10.981,6.339l13.789,7.961l82.259,-47.492l-2.807,-1.621l-79.424,45.855Z" style="fill:#fff;fill-opacity:0.09;"/><path d="M58.726,140.041l-8.146,-4.703l5.31,-3.065l0,-3.274l-10.981,6.339l13.789,7.961l82.259,-47.492l-2.807,-1.621l-79.424,45.855Z" style="fill:#fff;fill-opacity:0.09;"/><path d="M85.72,139.768c-0.097,0.264 -0.199,0.479 -0.306,0.644c-0.107,0.166 -0.245,0.298 -0.414,0.395c-0.149,0.086 -0.31,0.116 -0.482,0.09c-0.172,-0.026 -0.366,-0.054 -0.584,-0.085c-0.217,-0.03 -0.465,-0.027 -0.744,0.008c-0.279,0.036 -0.597,0.157 -0.954,0.363c-0.616,0.356 -1.076,0.796 -1.377,1.321c-0.302,0.524 -0.453,1.085 -0.453,1.682c0,0.38 0.091,0.644 0.273,0.79c0.181,0.146 0.42,0.224 0.715,0.236c0.295,0.011 0.633,-0.017 1.012,-0.085c0.38,-0.068 0.767,-0.123 1.163,-0.166c0.396,-0.042 0.784,-0.047 1.163,-0.016c0.38,0.032 0.717,0.157 1.013,0.376c0.295,0.219 0.533,0.555 0.715,1.008c0.182,0.453 0.272,1.073 0.272,1.861c0,0.873 -0.113,1.757 -0.34,2.649c-0.227,0.892 -0.557,1.746 -0.988,2.562c-0.432,0.816 -0.964,1.569 -1.596,2.258c-0.633,0.69 -1.351,1.267 -2.156,1.732c-0.441,0.254 -0.891,0.453 -1.348,0.596c-0.457,0.143 -0.9,0.228 -1.328,0.255c-0.429,0.026 -0.831,-0.003 -1.207,-0.089c-0.377,-0.085 -0.704,-0.233 -0.983,-0.444l0.973,-2.613c0.071,-0.197 0.172,-0.38 0.302,-0.55c0.129,-0.17 0.269,-0.298 0.418,-0.384c0.195,-0.113 0.391,-0.144 0.589,-0.094c0.198,0.05 0.422,0.103 0.672,0.157c0.249,0.055 0.536,0.071 0.861,0.048c0.324,-0.023 0.707,-0.162 1.148,-0.416c0.597,-0.345 1.061,-0.788 1.392,-1.329c0.331,-0.542 0.496,-1.193 0.496,-1.955c0,-0.441 -0.09,-0.747 -0.272,-0.919c-0.182,-0.172 -0.42,-0.264 -0.715,-0.275c-0.296,-0.011 -0.631,0.023 -1.008,0.101c-0.376,0.079 -0.762,0.149 -1.158,0.208c-0.396,0.06 -0.782,0.075 -1.158,0.046c-0.376,-0.029 -0.712,-0.16 -1.007,-0.391c-0.296,-0.232 -0.534,-0.596 -0.716,-1.093c-0.181,-0.496 -0.272,-1.186 -0.272,-2.068c-0,-0.709 0.107,-1.463 0.321,-2.262c0.214,-0.798 0.529,-1.581 0.944,-2.348c0.415,-0.768 0.925,-1.484 1.528,-2.148c0.603,-0.664 1.294,-1.221 2.073,-1.67c0.435,-0.251 0.858,-0.45 1.27,-0.597c0.412,-0.147 0.803,-0.239 1.173,-0.275c0.37,-0.036 0.715,-0.024 1.036,0.037c0.322,0.061 0.609,0.175 0.862,0.34l-0.818,2.509Z" style="fill:#ff8e16;fill-rule:nonzero;"/><path d="M87.2,140.523l2.413,-1.393c0.214,-0.124 0.399,-0.166 0.555,-0.126c0.156,0.04 0.25,0.154 0.282,0.343l1.012,5.45c0.078,0.414 0.15,0.818 0.214,1.213c0.065,0.395 0.124,0.79 0.176,1.184c0.091,-0.477 0.186,-0.958 0.287,-1.444c0.1,-0.487 0.199,-0.992 0.297,-1.515l1.265,-6.778c0.039,-0.221 0.133,-0.442 0.282,-0.662c0.149,-0.22 0.321,-0.387 0.516,-0.499l1.343,-0.775c0.214,-0.124 0.397,-0.163 0.55,-0.117c0.152,0.046 0.248,0.158 0.287,0.334l1.207,5.35c0.091,0.406 0.183,0.799 0.277,1.177c0.094,0.378 0.184,0.763 0.268,1.156c0.052,-0.463 0.115,-0.929 0.19,-1.401c0.074,-0.471 0.154,-0.969 0.238,-1.494l1.071,-6.652c0.032,-0.226 0.125,-0.448 0.277,-0.666c0.153,-0.218 0.326,-0.383 0.521,-0.495l2.297,-1.326l-3.134,15.266l-2.453,1.416c-0.13,0.075 -0.24,0.087 -0.331,0.035c-0.091,-0.051 -0.162,-0.183 -0.214,-0.395l-1.44,-5.878c-0.065,-0.265 -0.127,-0.528 -0.185,-0.788c-0.059,-0.261 -0.111,-0.525 -0.156,-0.793c-0.045,0.329 -0.096,0.659 -0.151,0.989c-0.055,0.331 -0.118,0.668 -0.19,1.012l-1.459,7.526c-0.098,0.506 -0.312,0.854 -0.643,1.045l-2.336,1.349l-3.133,-11.648Z" style="fill:#ff8e16;fill-rule:nonzero;"/><path d="M107.307,128.914l-0,13.457l-3.017,1.742l-0,-13.457l3.017,-1.742Zm0.35,-3.887c0,0.32 -0.048,0.648 -0.146,0.986c-0.097,0.337 -0.23,0.66 -0.399,0.97c-0.168,0.309 -0.365,0.591 -0.589,0.846c-0.223,0.255 -0.462,0.455 -0.715,0.601c-0.246,0.142 -0.477,0.213 -0.691,0.211c-0.214,-0.002 -0.404,-0.061 -0.569,-0.178c-0.166,-0.116 -0.295,-0.288 -0.39,-0.515c-0.094,-0.226 -0.141,-0.5 -0.141,-0.82c0,-0.329 0.047,-0.663 0.141,-1.003c0.095,-0.34 0.224,-0.665 0.39,-0.977c0.165,-0.312 0.355,-0.59 0.569,-0.835c0.214,-0.245 0.445,-0.438 0.691,-0.581c0.253,-0.146 0.492,-0.223 0.715,-0.231c0.224,-0.008 0.421,0.047 0.589,0.166c0.169,0.119 0.302,0.293 0.399,0.522c0.098,0.23 0.146,0.509 0.146,0.838Z" style="fill:#ff8e16;fill-rule:nonzero;"/><path d="M110.188,140.708l-0,-10.693l-0.662,0.2c-0.227,0.062 -0.41,0.06 -0.55,-0.006c-0.139,-0.067 -0.209,-0.243 -0.209,-0.529l-0,-1.583l1.421,-0.82l-0,-0.766c-0,-0.77 0.092,-1.519 0.277,-2.249c0.185,-0.73 0.451,-1.415 0.798,-2.057c0.347,-0.642 0.771,-1.228 1.27,-1.758c0.5,-0.531 1.068,-0.98 1.703,-1.347c0.247,-0.142 0.476,-0.255 0.687,-0.338c0.211,-0.083 0.429,-0.146 0.657,-0.191l-0.059,1.993c-0.006,0.142 -0.034,0.273 -0.083,0.392c-0.048,0.119 -0.108,0.227 -0.18,0.324c-0.071,0.098 -0.15,0.185 -0.238,0.261c-0.088,0.077 -0.174,0.139 -0.258,0.188c-0.266,0.154 -0.503,0.325 -0.71,0.514c-0.208,0.189 -0.382,0.413 -0.521,0.671c-0.14,0.258 -0.245,0.552 -0.316,0.883c-0.072,0.331 -0.107,0.717 -0.107,1.158l-0,0.636l2.374,-1.371l0,2.751l-2.277,1.315l-0,10.68l-3.017,1.742Z" style="fill:#ff8e16;fill-rule:nonzero;"/><path d="M120.329,135.06c-0.48,0.278 -0.903,0.429 -1.27,0.455c-0.367,0.025 -0.675,-0.061 -0.925,-0.258c-0.249,-0.198 -0.439,-0.501 -0.569,-0.911c-0.13,-0.409 -0.195,-0.912 -0.195,-1.509l0,-6.956l-0.856,0.495c-0.156,0.089 -0.289,0.099 -0.399,0.029c-0.11,-0.071 -0.166,-0.236 -0.166,-0.495l0,-1.57l1.606,-1.343l0.594,-3.626c0.078,-0.46 0.298,-0.795 0.662,-1.005l1.576,-0.91l0,3.932l2.453,-1.416l0,2.751l-2.453,1.416l0,6.683c0,0.312 0.057,0.536 0.171,0.674c0.113,0.138 0.277,0.145 0.491,0.021c0.111,-0.064 0.203,-0.132 0.278,-0.205c0.074,-0.074 0.139,-0.146 0.194,-0.217c0.055,-0.07 0.107,-0.135 0.156,-0.193c0.049,-0.059 0.105,-0.107 0.17,-0.144c0.091,-0.053 0.164,-0.067 0.219,-0.042c0.055,0.024 0.112,0.08 0.171,0.168l0.914,1.379c-0.389,0.614 -0.827,1.159 -1.313,1.634c-0.487,0.476 -0.99,0.864 -1.509,1.163Z" style="fill:#ff8e16;fill-rule:nonzero;"/></svg>