<?xml version="1.0" encoding="UTF-8" standalone="no"?><!DOCTYPE svg PUBLIC "-//W3C//DTD SVG 1.1//EN" "http://www.w3.org/Graphics/SVG/1.1/DTD/svg11.dtd"><svg width="100%" height="100%" viewBox="0 0 200 200" version="1.1" xmlns="http://www.w3.org/2000/svg" xmlns:xlink="http://www.w3.org/1999/xlink" xml:space="preserve" xmlns:serif="http://www.serif.com/" style="fill-rule:evenodd;clip-rule:evenodd;stroke-linejoin:round;stroke-miterlimit:2;"><path d="M58.498,182.851c0.719,0.426 3.673,2.192 4.507,2.59c1.302,0.62 2.947,0.491 4.734,-0.541l68.207,-39.38c4.218,-2.435 7.642,-8.978 7.642,-14.601l0,-105.105c0,-2.768 -0.829,-4.801 -2.175,-5.861c-0.807,-0.637 -4.029,-2.41 -4.803,-2.818c-1.323,-0.697 -3.02,-0.596 -4.871,0.472l-68.206,39.38c-4.218,2.435 -7.643,8.978 -7.643,14.602l0,105.105c0,3.053 1.01,5.212 2.608,6.157Z" style="fill:#f6f6f6;"/><path d="M58.498,182.909c0.719,0.426 3.673,2.192 4.507,2.59c1.302,0.62 2.947,0.491 4.734,-0.541l68.207,-39.38c4.218,-2.435 7.642,-8.978 7.642,-14.601l0,-105.163c0,-2.768 -0.829,-4.801 -2.175,-5.861c-0.807,-0.637 -4.029,-2.41 -4.803,-2.818c-1.323,-0.697 -3.02,-0.596 -4.871,0.472l-68.206,39.38c-4.218,2.435 -7.643,8.978 -7.643,14.602l0,102.542c0,3.053 1.01,7.833 2.608,8.778Z" style="fill:#b3b3b3;fill-opacity:0.3;"/><path d="M143.588,25.814c0,-5.624 -3.424,-8.213 -7.642,-5.778l-68.207,39.379c-4.218,2.436 -7.642,8.979 -7.642,14.602l-0,105.105c-0,5.624 3.424,8.213 7.642,5.778l68.207,-39.38c4.218,-2.435 7.642,-8.978 7.642,-14.601l0,-105.105Z" style="fill:#f6f6f6;"/><path d="M131.623,49.565l-61.151,35.305l0,2.91l61.151,-35.306l0,-2.909Z" style="fill:#b3b3b3;fill-opacity:0.3;"/><path d="M131.623,39.894l-61.151,35.305l0,2.909l61.151,-35.305l0,-2.909Z" style="fill:#b3b3b3;fill-opacity:0.3;"/><path d="M131.623,59.236l-61.151,35.305l0,2.91l61.151,-35.306l0,-2.909Z" style="fill:#b3b3b3;fill-opacity:0.3;"/><path d="M131.623,68.907l-61.151,35.305l0,2.91l61.151,-35.305l0,-2.91Z" style="fill:#b3b3b3;fill-opacity:0.3;"/><path d="M131.623,78.578l-61.151,35.306l0,2.909l61.151,-35.305l0,-2.91Z" style="fill:#b3b3b3;fill-opacity:0.3;"/><path d="M131.875,87.695l-61.151,35.305l0,2.91l61.151,-35.306l-0,-2.909Z" style="fill:#b3b3b3;fill-opacity:0.3;"/><path d="M55.89,128.999l-10.981,6.339l0,35.378l13.789,7.96l82.259,-47.492l-0,-35.377l-2.807,-1.621l-79.424,45.855l-2.836,-1.637l0,-9.405Z" style="fill:#001a35;"/><path d="M58.698,143.299l-13.789,-7.961l0,35.378l13.789,7.96l-0,-35.377Z" style="fill:#001a35;"/><path d="M58.698,143.299l-13.789,-7.961l0,35.378l13.789,7.96l-0,-35.377Z" style="fill:#fff;fill-opacity:0.09;"/><path d="M58.726,140.041l-8.146,-4.703l5.31,-3.065l0,-3.274l-10.981,6.339l13.789,7.961l82.259,-47.492l-2.807,-1.621l-79.424,45.855Z" style="fill:#001a35;"/><path d="M58.726,140.041l-8.146,-4.703l5.31,-3.065l0,-3.274l-10.981,6.339l13.789,7.961l82.259,-47.492l-2.807,-1.621l-79.424,45.855Z" style="fill:#fff;fill-opacity:0.09;"/><path d="M58.726,140.041l-8.146,-4.703l5.31,-3.065l0,-3.274l-10.981,6.339l13.789,7.961l82.259,-47.492l-2.807,-1.621l-79.424,45.855Z" style="fill:#fff;fill-opacity:0.09;"/><path d="M81.754,137.08l2.823,-1.63c0.304,-0.176 0.553,-0.228 0.747,-0.155c0.194,0.073 0.332,0.237 0.415,0.494l2.927,9.104c0.131,0.395 0.265,0.83 0.399,1.305c0.135,0.476 0.262,0.984 0.379,1.525c0.097,-0.664 0.21,-1.311 0.338,-1.938c0.128,-0.628 0.254,-1.212 0.378,-1.755l2.906,-12.472c0.07,-0.298 0.205,-0.609 0.405,-0.932c0.201,-0.324 0.447,-0.569 0.737,-0.737l2.844,-1.642l-6.061,23.662l-3.176,1.834l-6.061,-16.663Z" style="fill:#25bcb4;fill-rule:nonzero;"/><path d="M100.166,132.262l-0,9.105c-0,0.711 0.121,1.19 0.363,1.437c0.242,0.248 0.598,0.236 1.069,-0.036c0.353,-0.203 0.683,-0.491 0.991,-0.862c0.308,-0.372 0.607,-0.817 0.898,-1.335l-0,-10.227l3.217,-1.857l0,14.35l-1.993,1.15c-0.401,0.232 -0.664,0.144 -0.788,-0.264l-0.198,-0.716c-0.207,0.387 -0.422,0.753 -0.643,1.098c-0.221,0.345 -0.458,0.666 -0.711,0.964c-0.253,0.298 -0.524,0.575 -0.815,0.83c-0.29,0.255 -0.609,0.483 -0.955,0.683c-0.588,0.339 -1.108,0.504 -1.562,0.493c-0.453,-0.01 -0.835,-0.17 -1.146,-0.479c-0.312,-0.309 -0.547,-0.75 -0.706,-1.322c-0.159,-0.573 -0.239,-1.256 -0.239,-2.049l0,-9.106l3.218,-1.857Z" style="fill:#25bcb4;fill-rule:nonzero;"/><path d="M113.803,124.166c0.713,-0.411 1.365,-0.64 1.957,-0.686c0.591,-0.047 1.1,0.089 1.525,0.406c0.426,0.317 0.758,0.815 0.997,1.493c0.238,0.679 0.358,1.535 0.358,2.568c-0,0.323 -0.011,0.592 -0.031,0.807c-0.021,0.215 -0.059,0.398 -0.114,0.55c-0.056,0.152 -0.13,0.278 -0.224,0.378c-0.093,0.1 -0.212,0.192 -0.358,0.276l-6.206,3.584c0.104,1.139 0.377,1.851 0.82,2.135c0.443,0.284 1.013,0.224 1.712,-0.179c0.374,-0.216 0.696,-0.462 0.965,-0.738c0.27,-0.275 0.511,-0.548 0.722,-0.817c0.211,-0.27 0.405,-0.515 0.581,-0.737c0.176,-0.222 0.361,-0.389 0.555,-0.501c0.256,-0.148 0.45,-0.135 0.581,0.038l0.935,0.997c-0.333,0.699 -0.691,1.319 -1.075,1.859c-0.384,0.54 -0.778,1.017 -1.183,1.43c-0.405,0.414 -0.809,0.772 -1.214,1.075c-0.405,0.303 -0.791,0.56 -1.157,0.772c-0.755,0.435 -1.462,0.68 -2.123,0.734c-0.661,0.054 -1.238,-0.099 -1.733,-0.459c-0.495,-0.36 -0.886,-0.937 -1.173,-1.731c-0.287,-0.794 -0.431,-1.827 -0.431,-3.1c0,-0.96 0.123,-1.939 0.369,-2.939c0.245,-1 0.598,-1.956 1.058,-2.867c0.461,-0.911 1.018,-1.745 1.671,-2.501c0.654,-0.756 1.393,-1.371 2.216,-1.847Zm0.063,2.926c-0.616,0.355 -1.097,0.866 -1.443,1.532c-0.346,0.665 -0.574,1.468 -0.685,2.409l4.017,-2.319c-0,-0.342 -0.033,-0.655 -0.099,-0.94c-0.066,-0.285 -0.173,-0.511 -0.322,-0.679c-0.149,-0.168 -0.344,-0.26 -0.586,-0.277c-0.242,-0.017 -0.536,0.074 -0.882,0.274Z" style="fill:#25bcb4;fill-rule:nonzero;"/></svg>