<?xml version="1.0" encoding="UTF-8" standalone="no"?><!DOCTYPE svg PUBLIC "-//W3C//DTD SVG 1.1//EN" "http://www.w3.org/Graphics/SVG/1.1/DTD/svg11.dtd"><svg width="100%" height="100%" viewBox="0 0 200 200" version="1.1" xmlns="http://www.w3.org/2000/svg" xmlns:xlink="http://www.w3.org/1999/xlink" xml:space="preserve" xmlns:serif="http://www.serif.com/" style="fill-rule:evenodd;clip-rule:evenodd;stroke-linejoin:round;stroke-miterlimit:2;"><path d="M58.498,182.851c0.719,0.426 3.673,2.192 4.507,2.59c1.302,0.62 2.947,0.491 4.734,-0.541l68.207,-39.38c4.218,-2.435 7.642,-8.978 7.642,-14.601l0,-105.105c0,-2.768 -0.829,-4.801 -2.175,-5.861c-0.807,-0.637 -4.029,-2.41 -4.803,-2.818c-1.323,-0.697 -3.02,-0.596 -4.871,0.472l-68.206,39.38c-4.218,2.435 -7.643,8.978 -7.643,14.602l0,105.105c0,3.053 1.01,5.212 2.608,6.157Z" style="fill:#f6f6f6;"/><path d="M58.498,182.909c0.719,0.426 3.673,2.192 4.507,2.59c1.302,0.62 2.947,0.491 4.734,-0.541l68.207,-39.38c4.218,-2.435 7.642,-8.978 7.642,-14.601l0,-105.163c0,-2.768 -0.829,-4.801 -2.175,-5.861c-0.807,-0.637 -4.029,-2.41 -4.803,-2.818c-1.323,-0.697 -3.02,-0.596 -4.871,0.472l-68.206,39.38c-4.218,2.435 -7.643,8.978 -7.643,14.602l0,102.542c0,3.053 1.01,7.833 2.608,8.778Z" style="fill:#b3b3b3;fill-opacity:0.3;"/><path d="M143.588,25.814c0,-5.624 -3.424,-8.213 -7.642,-5.778l-68.207,39.379c-4.218,2.436 -7.642,8.979 -7.642,14.602l-0,105.105c-0,5.624 3.424,8.213 7.642,5.778l68.207,-39.38c4.218,-2.435 7.642,-8.978 7.642,-14.601l0,-105.105Z" style="fill:#f6f6f6;"/><path d="M131.623,49.565l-61.151,35.305l0,2.91l61.151,-35.306l0,-2.909Z" style="fill:#b3b3b3;fill-opacity:0.3;"/><path d="M131.623,39.894l-61.151,35.305l0,2.909l61.151,-35.305l0,-2.909Z" style="fill:#b3b3b3;fill-opacity:0.3;"/><path d="M131.623,59.236l-61.151,35.305l0,2.91l61.151,-35.306l0,-2.909Z" style="fill:#b3b3b3;fill-opacity:0.3;"/><path d="M131.623,68.907l-61.151,35.305l0,2.91l61.151,-35.305l0,-2.91Z" style="fill:#b3b3b3;fill-opacity:0.3;"/><path d="M131.623,78.578l-61.151,35.306l0,2.909l61.151,-35.305l0,-2.91Z" style="fill:#b3b3b3;fill-opacity:0.3;"/><path d="M131.875,87.695l-61.151,35.305l0,2.91l61.151,-35.306l-0,-2.909Z" style="fill:#b3b3b3;fill-opacity:0.3;"/><path d="M55.89,128.999l-10.981,6.339l0,35.378l13.789,7.96l82.259,-47.492l-0,-35.377l-2.807,-1.621l-79.424,45.855l-2.836,-1.637l0,-9.405Z" style="fill:#001a35;"/><path d="M58.698,143.299l-13.789,-7.961l0,35.378l13.789,7.96l-0,-35.377Z" style="fill:#001a35;"/><path d="M58.698,143.299l-13.789,-7.961l0,35.378l13.789,7.96l-0,-35.377Z" style="fill:#fff;fill-opacity:0.09;"/><path d="M58.726,140.041l-8.146,-4.703l5.31,-3.065l0,-3.274l-10.981,6.339l13.789,7.961l82.259,-47.492l-2.807,-1.621l-79.424,45.855Z" style="fill:#001a35;"/><path d="M58.726,140.041l-8.146,-4.703l5.31,-3.065l0,-3.274l-10.981,6.339l13.789,7.961l82.259,-47.492l-2.807,-1.621l-79.424,45.855Z" style="fill:#fff;fill-opacity:0.09;"/><path d="M58.726,140.041l-8.146,-4.703l5.31,-3.065l0,-3.274l-10.981,6.339l13.789,7.961l82.259,-47.492l-2.807,-1.621l-79.424,45.855Z" style="fill:#fff;fill-opacity:0.09;"/><path d="M88.877,146.484l-0,5.576l-2.903,1.676l0,-16.684l4.414,-2.548c0.882,-0.509 1.639,-0.807 2.272,-0.894c0.632,-0.086 1.153,-0.003 1.563,0.249c0.409,0.252 0.711,0.654 0.906,1.206c0.194,0.551 0.292,1.213 0.292,1.984c-0,0.832 -0.1,1.653 -0.301,2.464c-0.2,0.81 -0.506,1.582 -0.919,2.316c-0.412,0.735 -0.934,1.424 -1.567,2.067c-0.633,0.644 -1.381,1.216 -2.246,1.715l-1.511,0.873Zm-0,-2.92l1.511,-0.873c0.756,-0.436 1.3,-0.991 1.632,-1.663c0.332,-0.673 0.498,-1.441 0.498,-2.303c0,-0.382 -0.043,-0.704 -0.129,-0.968c-0.086,-0.263 -0.216,-0.457 -0.391,-0.582c-0.174,-0.124 -0.395,-0.17 -0.661,-0.139c-0.266,0.032 -0.582,0.153 -0.949,0.365l-1.511,0.873l-0,5.29Z" style="fill:#f6f6f6;fill-rule:nonzero;"/><path d="M100.488,133.299c0.589,-0.34 1.129,-0.53 1.619,-0.568c0.489,-0.039 0.91,0.073 1.262,0.336c0.352,0.262 0.627,0.674 0.824,1.236c0.198,0.561 0.297,1.27 0.297,2.125c-0,0.267 -0.009,0.489 -0.026,0.667c-0.017,0.178 -0.049,0.33 -0.095,0.455c-0.045,0.126 -0.107,0.23 -0.184,0.313c-0.077,0.083 -0.176,0.159 -0.296,0.228l-5.136,2.965c0.086,0.943 0.312,1.532 0.678,1.767c0.367,0.235 0.839,0.186 1.417,-0.148c0.31,-0.179 0.576,-0.382 0.799,-0.61c0.223,-0.228 0.422,-0.454 0.597,-0.677c0.175,-0.223 0.335,-0.426 0.481,-0.609c0.146,-0.184 0.299,-0.322 0.459,-0.415c0.212,-0.122 0.372,-0.111 0.481,0.032l0.773,0.825c-0.275,0.578 -0.571,1.091 -0.889,1.538c-0.317,0.447 -0.644,0.841 -0.979,1.183c-0.335,0.343 -0.67,0.639 -1.004,0.89c-0.335,0.25 -0.655,0.463 -0.958,0.638c-0.624,0.361 -1.21,0.563 -1.756,0.608c-0.547,0.045 -1.025,-0.082 -1.434,-0.38c-0.41,-0.298 -0.733,-0.776 -0.971,-1.432c-0.238,-0.657 -0.356,-1.512 -0.356,-2.566c-0,-0.794 0.101,-1.604 0.305,-2.431c0.203,-0.828 0.495,-1.618 0.876,-2.373c0.38,-0.754 0.841,-1.444 1.382,-2.069c0.541,-0.625 1.152,-1.135 1.834,-1.528Zm0.051,2.421c-0.509,0.294 -0.907,0.716 -1.193,1.267c-0.287,0.551 -0.476,1.215 -0.567,1.993l3.323,-1.918c0,-0.283 -0.027,-0.542 -0.081,-0.778c-0.055,-0.235 -0.143,-0.423 -0.267,-0.562c-0.123,-0.139 -0.284,-0.215 -0.485,-0.229c-0.2,-0.014 -0.443,0.061 -0.73,0.227Z" style="fill:#f6f6f6;fill-rule:nonzero;"/><path d="M106.018,142.163l0,-11.874l1.581,-0.912c0.131,-0.076 0.241,-0.125 0.33,-0.145c0.089,-0.021 0.163,-0.016 0.223,0.014c0.061,0.03 0.106,0.09 0.138,0.178c0.031,0.089 0.059,0.203 0.081,0.342l0.146,1.027c0.327,-0.86 0.693,-1.602 1.1,-2.226c0.406,-0.624 0.85,-1.075 1.331,-1.353c0.406,-0.235 0.733,-0.293 0.979,-0.176l-0.344,2.809c-0.023,0.174 -0.068,0.313 -0.137,0.417c-0.069,0.105 -0.16,0.19 -0.275,0.256c-0.097,0.057 -0.212,0.105 -0.343,0.147c-0.132,0.042 -0.298,0.12 -0.498,0.236c-0.699,0.403 -1.249,1.217 -1.649,2.441l-0,7.282l-2.663,1.537Z" style="fill:#f6f6f6;fill-rule:nonzero;"/><path d="M115.86,119.34l0,17.141l-2.662,1.537l-0,-17.141l2.662,-1.537Z" style="fill:#f6f6f6;fill-rule:nonzero;"/></svg>