<?xml version="1.0" encoding="UTF-8" standalone="no"?><!DOCTYPE svg PUBLIC "-//W3C//DTD SVG 1.1//EN" "http://www.w3.org/Graphics/SVG/1.1/DTD/svg11.dtd"><svg width="100%" height="100%" viewBox="0 0 200 200" version="1.1" xmlns="http://www.w3.org/2000/svg" xmlns:xlink="http://www.w3.org/1999/xlink" xml:space="preserve" xmlns:serif="http://www.serif.com/" style="fill-rule:evenodd;clip-rule:evenodd;stroke-linejoin:round;stroke-miterlimit:2;"><path d="M58.498,182.851c0.719,0.426 3.673,2.192 4.507,2.59c1.302,0.62 2.947,0.491 4.734,-0.541l68.207,-39.38c4.218,-2.435 7.642,-8.978 7.642,-14.601l0,-105.105c0,-2.768 -0.829,-4.801 -2.175,-5.861c-0.807,-0.637 -4.029,-2.41 -4.803,-2.818c-1.323,-0.697 -3.02,-0.596 -4.871,0.472l-68.206,39.38c-4.218,2.435 -7.643,8.978 -7.643,14.602l0,105.105c0,3.053 1.01,5.212 2.608,6.157Z" style="fill:#f6f6f6;"/><path d="M58.498,182.909c0.719,0.426 3.673,2.192 4.507,2.59c1.302,0.62 2.947,0.491 4.734,-0.541l68.207,-39.38c4.218,-2.435 7.642,-8.978 7.642,-14.601l0,-105.163c0,-2.768 -0.829,-4.801 -2.175,-5.861c-0.807,-0.637 -4.029,-2.41 -4.803,-2.818c-1.323,-0.697 -3.02,-0.596 -4.871,0.472l-68.206,39.38c-4.218,2.435 -7.643,8.978 -7.643,14.602l0,102.542c0,3.053 1.01,7.833 2.608,8.778Z" style="fill:#b3b3b3;fill-opacity:0.3;"/><path d="M143.588,25.814c0,-5.624 -3.424,-8.213 -7.642,-5.778l-68.207,39.379c-4.218,2.436 -7.642,8.979 -7.642,14.602l-0,105.105c-0,5.624 3.424,8.213 7.642,5.778l68.207,-39.38c4.218,-2.435 7.642,-8.978 7.642,-14.601l0,-105.105Z" style="fill:#f6f6f6;"/><path d="M131.623,49.565l-61.151,35.305l0,2.91l61.151,-35.306l0,-2.909Z" style="fill:#b3b3b3;fill-opacity:0.3;"/><path d="M131.623,39.894l-61.151,35.305l0,2.909l61.151,-35.305l0,-2.909Z" style="fill:#b3b3b3;fill-opacity:0.3;"/><path d="M131.623,59.236l-61.151,35.305l0,2.91l61.151,-35.306l0,-2.909Z" style="fill:#b3b3b3;fill-opacity:0.3;"/><path d="M131.623,68.907l-61.151,35.305l0,2.91l61.151,-35.305l0,-2.91Z" style="fill:#b3b3b3;fill-opacity:0.3;"/><path d="M131.623,78.578l-61.151,35.306l0,2.909l61.151,-35.305l0,-2.91Z" style="fill:#b3b3b3;fill-opacity:0.3;"/><path d="M131.875,87.695l-61.151,35.305l0,2.91l61.151,-35.306l-0,-2.909Z" style="fill:#b3b3b3;fill-opacity:0.3;"/><path d="M55.89,128.999l-10.981,6.339l0,35.378l13.789,7.96l82.259,-47.492l-0,-35.377l-2.807,-1.621l-79.424,45.855l-2.836,-1.637l0,-9.405Z" style="fill:#001a35;"/><path d="M58.698,143.299l-13.789,-7.961l0,35.378l13.789,7.96l-0,-35.377Z" style="fill:#001a35;"/><path d="M58.698,143.299l-13.789,-7.961l0,35.378l13.789,7.96l-0,-35.377Z" style="fill:#fff;fill-opacity:0.09;"/><path d="M58.726,140.041l-8.146,-4.703l5.31,-3.065l0,-3.274l-10.981,6.339l13.789,7.961l82.259,-47.492l-2.807,-1.621l-79.424,45.855Z" style="fill:#001a35;"/><path d="M58.726,140.041l-8.146,-4.703l5.31,-3.065l0,-3.274l-10.981,6.339l13.789,7.961l82.259,-47.492l-2.807,-1.621l-79.424,45.855Z" style="fill:#fff;fill-opacity:0.09;"/><path d="M58.726,140.041l-8.146,-4.703l5.31,-3.065l0,-3.274l-10.981,6.339l13.789,7.961l82.259,-47.492l-2.807,-1.621l-79.424,45.855Z" style="fill:#fff;fill-opacity:0.09;"/><path d="M94.349,145.134c0.078,-0.045 0.155,-0.07 0.233,-0.076c0.077,-0.006 0.151,0.018 0.222,0.071l1.297,1.071c-0.568,1.317 -1.279,2.474 -2.134,3.471c-0.855,0.996 -1.866,1.832 -3.034,2.506c-1.071,0.618 -2.03,0.929 -2.879,0.933c-0.848,0.004 -1.567,-0.252 -2.158,-0.767c-0.59,-0.515 -1.043,-1.268 -1.359,-2.26c-0.316,-0.991 -0.474,-2.175 -0.474,-3.552c-0,-1.402 0.18,-2.794 0.542,-4.177c0.361,-1.383 0.866,-2.687 1.514,-3.913c0.648,-1.226 1.424,-2.336 2.327,-3.331c0.904,-0.994 1.9,-1.806 2.991,-2.436c0.529,-0.305 1.027,-0.531 1.495,-0.676c0.467,-0.145 0.905,-0.226 1.311,-0.241c0.406,-0.015 0.781,0.031 1.123,0.139c0.341,0.108 0.645,0.271 0.909,0.488l-1.103,2.611c-0.071,0.161 -0.155,0.319 -0.252,0.474c-0.096,0.155 -0.232,0.283 -0.406,0.383c-0.116,0.067 -0.226,0.096 -0.329,0.087c-0.103,-0.009 -0.213,-0.03 -0.329,-0.062c-0.116,-0.032 -0.244,-0.066 -0.382,-0.102c-0.139,-0.036 -0.304,-0.048 -0.494,-0.037c-0.19,0.011 -0.413,0.055 -0.668,0.134c-0.254,0.078 -0.553,0.216 -0.895,0.413c-0.593,0.343 -1.135,0.795 -1.626,1.358c-0.49,0.563 -0.911,1.206 -1.262,1.929c-0.352,0.724 -0.626,1.512 -0.823,2.365c-0.197,0.854 -0.295,1.741 -0.295,2.661c-0,0.963 0.098,1.763 0.295,2.397c0.197,0.635 0.465,1.111 0.803,1.427c0.339,0.316 0.734,0.477 1.186,0.483c0.451,0.006 0.935,-0.14 1.451,-0.438c0.297,-0.171 0.568,-0.347 0.813,-0.527c0.245,-0.181 0.473,-0.378 0.682,-0.594c0.21,-0.216 0.41,-0.454 0.6,-0.714c0.191,-0.261 0.383,-0.559 0.576,-0.894c0.078,-0.131 0.161,-0.25 0.252,-0.358c0.09,-0.108 0.184,-0.19 0.28,-0.246Z" style="fill:#98e5ff;fill-rule:nonzero;"/><path d="M103.243,129.651l-0,5.11l3.58,-2.067l0,2.864l-3.58,2.067l-0,5.136l-2.439,1.408l0,-5.136l-3.561,2.056l-0,-2.864l3.561,-2.056l0,-5.11l2.439,-1.408Z" style="fill:#98e5ff;fill-rule:nonzero;"/><path d="M114.468,123.17l0,5.11l3.581,-2.068l-0,2.865l-3.581,2.067l0,5.136l-2.438,1.407l-0,-5.135l-3.562,2.056l0,-2.864l3.562,-2.056l-0,-5.11l2.438,-1.408Z" style="fill:#98e5ff;fill-rule:nonzero;"/></svg>