<?xml version="1.0" encoding="UTF-8" standalone="no"?><!DOCTYPE svg PUBLIC "-//W3C//DTD SVG 1.1//EN" "http://www.w3.org/Graphics/SVG/1.1/DTD/svg11.dtd"><svg width="100%" height="100%" viewBox="0 0 200 200" version="1.1" xmlns="http://www.w3.org/2000/svg" xmlns:xlink="http://www.w3.org/1999/xlink" xml:space="preserve" xmlns:serif="http://www.serif.com/" style="fill-rule:evenodd;clip-rule:evenodd;stroke-linejoin:round;stroke-miterlimit:2;"><path d="M58.498,182.851c0.719,0.426 3.673,2.192 4.507,2.59c1.302,0.62 2.947,0.491 4.734,-0.541l68.207,-39.38c4.218,-2.435 7.642,-8.978 7.642,-14.601l0,-105.105c0,-2.768 -0.829,-4.801 -2.175,-5.861c-0.807,-0.637 -4.029,-2.41 -4.803,-2.818c-1.323,-0.697 -3.02,-0.596 -4.871,0.472l-68.206,39.38c-4.218,2.435 -7.643,8.978 -7.643,14.602l0,105.105c0,3.053 1.01,5.212 2.608,6.157Z" style="fill:#f6f6f6;"/><path d="M58.498,182.909c0.719,0.426 3.673,2.192 4.507,2.59c1.302,0.62 2.947,0.491 4.734,-0.541l68.207,-39.38c4.218,-2.435 7.642,-8.978 7.642,-14.601l0,-105.163c0,-2.768 -0.829,-4.801 -2.175,-5.861c-0.807,-0.637 -4.029,-2.41 -4.803,-2.818c-1.323,-0.697 -3.02,-0.596 -4.871,0.472l-68.206,39.38c-4.218,2.435 -7.643,8.978 -7.643,14.602l0,102.542c0,3.053 1.01,7.833 2.608,8.778Z" style="fill:#b3b3b3;fill-opacity:0.3;"/><path d="M143.588,25.814c0,-5.624 -3.424,-8.213 -7.642,-5.778l-68.207,39.379c-4.218,2.436 -7.642,8.979 -7.642,14.602l-0,105.105c-0,5.624 3.424,8.213 7.642,5.778l68.207,-39.38c4.218,-2.435 7.642,-8.978 7.642,-14.601l0,-105.105Z" style="fill:#f6f6f6;"/><path d="M131.623,49.565l-61.151,35.305l0,2.91l61.151,-35.306l0,-2.909Z" style="fill:#b3b3b3;fill-opacity:0.3;"/><path d="M131.623,39.894l-61.151,35.305l0,2.909l61.151,-35.305l0,-2.909Z" style="fill:#b3b3b3;fill-opacity:0.3;"/><path d="M131.623,59.236l-61.151,35.305l0,2.91l61.151,-35.306l0,-2.909Z" style="fill:#b3b3b3;fill-opacity:0.3;"/><path d="M131.623,68.907l-61.151,35.305l0,2.91l61.151,-35.305l0,-2.91Z" style="fill:#b3b3b3;fill-opacity:0.3;"/><path d="M131.623,78.578l-61.151,35.306l0,2.909l61.151,-35.305l0,-2.91Z" style="fill:#b3b3b3;fill-opacity:0.3;"/><path d="M131.875,87.695l-61.151,35.305l0,2.91l61.151,-35.306l-0,-2.909Z" style="fill:#b3b3b3;fill-opacity:0.3;"/><path d="M55.89,128.999l-10.981,6.339l0,35.378l13.789,7.96l82.259,-47.492l-0,-35.377l-2.807,-1.621l-79.424,45.855l-2.836,-1.637l0,-9.405Z" style="fill:#001a35;"/><path d="M58.698,143.299l-13.789,-7.961l0,35.378l13.789,7.96l-0,-35.377Z" style="fill:#001a35;"/><path d="M58.698,143.299l-13.789,-7.961l0,35.378l13.789,7.96l-0,-35.377Z" style="fill:#fff;fill-opacity:0.09;"/><path d="M58.726,140.041l-8.146,-4.703l5.31,-3.065l0,-3.274l-10.981,6.339l13.789,7.961l82.259,-47.492l-2.807,-1.621l-79.424,45.855Z" style="fill:#001a35;"/><path d="M58.726,140.041l-8.146,-4.703l5.31,-3.065l0,-3.274l-10.981,6.339l13.789,7.961l82.259,-47.492l-2.807,-1.621l-79.424,45.855Z" style="fill:#fff;fill-opacity:0.09;"/><path d="M58.726,140.041l-8.146,-4.703l5.31,-3.065l0,-3.274l-10.981,6.339l13.789,7.961l82.259,-47.492l-2.807,-1.621l-79.424,45.855Z" style="fill:#fff;fill-opacity:0.09;"/><path d="M71.703,154.598c-0,0.795 -0.075,1.562 -0.224,2.3c-0.149,0.737 -0.374,1.426 -0.674,2.065c-0.301,0.64 -0.679,1.22 -1.133,1.739c-0.455,0.52 -0.99,0.958 -1.606,1.314c-0.278,0.16 -0.553,0.3 -0.825,0.417c-0.271,0.118 -0.553,0.215 -0.846,0.294l0.132,-2.002c0.009,-0.175 0.06,-0.341 0.15,-0.498c0.09,-0.156 0.216,-0.281 0.378,-0.374c0.083,-0.048 0.185,-0.089 0.307,-0.124c0.123,-0.035 0.269,-0.102 0.44,-0.2c0.24,-0.139 0.449,-0.303 0.627,-0.494c0.179,-0.191 0.326,-0.423 0.444,-0.696c0.117,-0.273 0.205,-0.593 0.264,-0.959c0.058,-0.366 0.088,-0.794 0.088,-1.282l-0,-9.15l2.478,-1.431l-0,9.081Z" style="fill:#ff8e16;fill-rule:nonzero;"/><path d="M78.712,155.713c-0.216,0.124 -0.378,0.179 -0.488,0.164c-0.11,-0.014 -0.202,-0.124 -0.275,-0.33l-0.161,-0.464c-0.191,0.325 -0.374,0.62 -0.55,0.885c-0.176,0.264 -0.358,0.508 -0.546,0.73c-0.188,0.223 -0.389,0.424 -0.601,0.602c-0.213,0.178 -0.449,0.342 -0.708,0.491c-0.347,0.201 -0.662,0.322 -0.946,0.365c-0.283,0.044 -0.524,0.005 -0.722,-0.115c-0.198,-0.121 -0.351,-0.324 -0.458,-0.611c-0.108,-0.286 -0.161,-0.658 -0.161,-1.114c-0,-0.358 0.068,-0.766 0.205,-1.223c0.137,-0.457 0.374,-0.938 0.711,-1.442c0.337,-0.504 0.792,-1.026 1.364,-1.564c0.572,-0.539 1.292,-1.073 2.162,-1.601l0,-0.43c0,-0.593 -0.091,-0.969 -0.274,-1.127c-0.184,-0.158 -0.444,-0.14 -0.781,0.055c-0.269,0.155 -0.489,0.321 -0.66,0.498c-0.171,0.177 -0.324,0.354 -0.458,0.529c-0.135,0.175 -0.265,0.339 -0.393,0.49c-0.127,0.152 -0.278,0.278 -0.454,0.38c-0.156,0.09 -0.29,0.117 -0.4,0.079c-0.11,-0.037 -0.196,-0.113 -0.26,-0.226l-0.41,-0.711c0.459,-0.806 0.969,-1.503 1.528,-2.09c0.56,-0.587 1.16,-1.065 1.8,-1.435c0.459,-0.265 0.874,-0.405 1.243,-0.419c0.369,-0.014 0.682,0.082 0.938,0.289c0.257,0.207 0.453,0.515 0.59,0.925c0.137,0.41 0.206,0.905 0.206,1.485l-0,6.334l-1.041,0.601Zm-2.61,-0.34c0.293,-0.17 0.549,-0.386 0.769,-0.65c0.22,-0.264 0.443,-0.614 0.667,-1.05l0,-1.408c-0.454,0.289 -0.828,0.557 -1.121,0.804c-0.293,0.248 -0.526,0.48 -0.697,0.696c-0.171,0.216 -0.289,0.418 -0.355,0.606c-0.066,0.188 -0.099,0.37 -0.099,0.546c-0,0.345 0.071,0.547 0.212,0.605c0.142,0.058 0.35,0.009 0.624,-0.149Z" style="fill:#ff8e16;fill-rule:nonzero;"/><path d="M85.28,151.921l-2.067,1.193l-2.947,-8.435l1.891,-1.092c0.162,-0.093 0.297,-0.121 0.407,-0.084c0.11,0.038 0.185,0.12 0.224,0.248l1.056,3.936c0.083,0.323 0.162,0.639 0.238,0.947c0.076,0.308 0.14,0.623 0.194,0.944c0.054,-0.383 0.12,-0.773 0.198,-1.17c0.078,-0.397 0.161,-0.807 0.249,-1.229l1.1,-5.181c0.039,-0.172 0.112,-0.34 0.22,-0.503c0.107,-0.163 0.235,-0.287 0.381,-0.372l1.804,-1.041l-2.948,11.839Z" style="fill:#ff8e16;fill-rule:nonzero;"/><path d="M94.43,146.638c-0.215,0.124 -0.377,0.179 -0.487,0.164c-0.11,-0.015 -0.202,-0.125 -0.275,-0.33l-0.162,-0.464c-0.19,0.325 -0.374,0.62 -0.549,0.884c-0.176,0.265 -0.358,0.509 -0.547,0.731c-0.188,0.223 -0.388,0.423 -0.601,0.602c-0.212,0.178 -0.448,0.342 -0.707,0.491c-0.347,0.2 -0.663,0.322 -0.946,0.365c-0.284,0.043 -0.524,0.005 -0.722,-0.116c-0.198,-0.12 -0.351,-0.323 -0.458,-0.61c-0.108,-0.286 -0.162,-0.658 -0.162,-1.114c0,-0.358 0.069,-0.766 0.206,-1.223c0.136,-0.457 0.373,-0.938 0.711,-1.442c0.337,-0.504 0.791,-1.026 1.363,-1.564c0.572,-0.539 1.293,-1.073 2.163,-1.601l0,-0.43c0,-0.593 -0.092,-0.969 -0.275,-1.127c-0.183,-0.158 -0.443,-0.14 -0.781,0.055c-0.268,0.155 -0.488,0.321 -0.659,0.498c-0.172,0.177 -0.324,0.353 -0.459,0.529c-0.134,0.175 -0.265,0.339 -0.392,0.49c-0.127,0.152 -0.278,0.278 -0.454,0.38c-0.157,0.09 -0.29,0.117 -0.4,0.079c-0.11,-0.037 -0.197,-0.113 -0.26,-0.226l-0.411,-0.711c0.46,-0.806 0.969,-1.503 1.529,-2.09c0.559,-0.587 1.159,-1.065 1.8,-1.435c0.459,-0.265 0.873,-0.405 1.242,-0.419c0.369,-0.015 0.682,0.082 0.939,0.289c0.256,0.207 0.453,0.515 0.59,0.925c0.137,0.41 0.205,0.905 0.205,1.485l0,6.334l-1.041,0.601Zm-2.61,-0.341c0.293,-0.169 0.55,-0.386 0.77,-0.649c0.22,-0.264 0.442,-0.614 0.667,-1.05l0,-1.408c-0.454,0.289 -0.828,0.557 -1.122,0.804c-0.293,0.248 -0.525,0.479 -0.696,0.695c-0.171,0.217 -0.29,0.419 -0.356,0.607c-0.066,0.188 -0.099,0.37 -0.099,0.545c0,0.346 0.071,0.548 0.213,0.606c0.142,0.058 0.349,0.008 0.623,-0.15Z" style="fill:#ff8e16;fill-rule:nonzero;"/><path d="M103.037,130.32c-0.073,0.198 -0.15,0.36 -0.231,0.485c-0.08,0.125 -0.184,0.224 -0.311,0.297c-0.113,0.065 -0.234,0.088 -0.363,0.068c-0.13,-0.02 -0.276,-0.041 -0.44,-0.064c-0.164,-0.023 -0.351,-0.021 -0.561,0.006c-0.21,0.027 -0.45,0.118 -0.718,0.273c-0.465,0.268 -0.811,0.6 -1.038,0.995c-0.227,0.395 -0.341,0.818 -0.341,1.267c0,0.287 0.069,0.485 0.206,0.595c0.136,0.11 0.316,0.17 0.538,0.178c0.223,0.009 0.477,-0.013 0.763,-0.064c0.286,-0.051 0.578,-0.092 0.876,-0.124c0.298,-0.032 0.59,-0.036 0.876,-0.013c0.286,0.024 0.54,0.119 0.763,0.284c0.222,0.164 0.402,0.418 0.538,0.759c0.137,0.341 0.206,0.808 0.206,1.401c-0,0.659 -0.086,1.324 -0.257,1.996c-0.171,0.672 -0.419,1.316 -0.744,1.93c-0.325,0.615 -0.726,1.182 -1.202,1.701c-0.477,0.52 -1.018,0.954 -1.624,1.304c-0.333,0.192 -0.671,0.342 -1.016,0.45c-0.344,0.107 -0.678,0.171 -1,0.191c-0.323,0.02 -0.626,-0.002 -0.91,-0.066c-0.283,-0.065 -0.53,-0.176 -0.74,-0.335l0.733,-1.968c0.054,-0.148 0.13,-0.286 0.227,-0.415c0.098,-0.128 0.203,-0.224 0.316,-0.289c0.146,-0.085 0.294,-0.108 0.443,-0.07c0.149,0.037 0.318,0.077 0.506,0.118c0.188,0.041 0.405,0.053 0.649,0.036c0.244,-0.017 0.533,-0.122 0.865,-0.314c0.45,-0.259 0.799,-0.593 1.048,-1.001c0.25,-0.408 0.374,-0.898 0.374,-1.472c0,-0.332 -0.068,-0.563 -0.205,-0.693c-0.137,-0.129 -0.316,-0.198 -0.539,-0.207c-0.222,-0.008 -0.475,0.017 -0.759,0.077c-0.283,0.059 -0.574,0.111 -0.872,0.156c-0.298,0.045 -0.589,0.057 -0.872,0.035c-0.284,-0.022 -0.537,-0.121 -0.759,-0.295c-0.223,-0.175 -0.402,-0.449 -0.539,-0.823c-0.137,-0.374 -0.205,-0.893 -0.205,-1.558c-0,-0.534 0.08,-1.102 0.242,-1.704c0.161,-0.601 0.398,-1.191 0.711,-1.769c0.312,-0.578 0.696,-1.117 1.151,-1.618c0.454,-0.5 0.975,-0.919 1.561,-1.258c0.328,-0.189 0.647,-0.339 0.957,-0.45c0.31,-0.111 0.605,-0.18 0.883,-0.207c0.279,-0.027 0.539,-0.018 0.781,0.028c0.242,0.046 0.459,0.132 0.649,0.256l-0.616,1.891Z" style="fill:#ff8e16;fill-rule:nonzero;"/><path d="M110.515,129.619c-0.068,0.15 -0.134,0.276 -0.198,0.378c-0.063,0.102 -0.154,0.187 -0.271,0.255c-0.112,0.064 -0.214,0.087 -0.304,0.068c-0.091,-0.02 -0.192,-0.041 -0.304,-0.064c-0.113,-0.023 -0.245,-0.027 -0.396,-0.011c-0.152,0.016 -0.34,0.089 -0.565,0.218c-0.278,0.161 -0.519,0.369 -0.722,0.623c-0.203,0.253 -0.37,0.546 -0.502,0.876c-0.132,0.33 -0.23,0.698 -0.293,1.103c-0.064,0.405 -0.096,0.839 -0.096,1.301c0,0.971 0.141,1.636 0.422,1.995c0.281,0.359 0.668,0.396 1.162,0.111c0.264,-0.152 0.473,-0.317 0.627,-0.493c0.154,-0.177 0.284,-0.35 0.392,-0.52c0.107,-0.17 0.206,-0.326 0.297,-0.47c0.09,-0.143 0.204,-0.254 0.341,-0.333c0.181,-0.105 0.317,-0.096 0.41,0.027l0.66,0.704c-0.234,0.494 -0.481,0.928 -0.74,1.302c-0.259,0.374 -0.524,0.703 -0.796,0.987c-0.271,0.284 -0.543,0.529 -0.817,0.736c-0.274,0.207 -0.54,0.385 -0.799,0.535c-0.465,0.268 -0.908,0.407 -1.331,0.416c-0.423,0.01 -0.794,-0.116 -1.114,-0.378c-0.321,-0.262 -0.575,-0.664 -0.763,-1.207c-0.188,-0.543 -0.282,-1.232 -0.282,-2.066c-0,-0.73 0.082,-1.46 0.246,-2.189c0.163,-0.73 0.405,-1.421 0.725,-2.072c0.32,-0.65 0.716,-1.245 1.188,-1.785c0.472,-0.539 1.018,-0.988 1.639,-1.347c0.596,-0.344 1.119,-0.519 1.569,-0.524c0.449,-0.006 0.855,0.131 1.217,0.411l-0.602,1.413Z" style="fill:#ff8e16;fill-rule:nonzero;"/><path d="M112.158,136.403l-0,-10.137l1.349,-0.779c0.112,-0.065 0.206,-0.106 0.282,-0.124c0.076,-0.017 0.139,-0.013 0.19,0.013c0.052,0.025 0.091,0.076 0.118,0.152c0.027,0.075 0.05,0.173 0.069,0.292l0.125,0.876c0.279,-0.734 0.591,-1.368 0.938,-1.9c0.348,-0.533 0.726,-0.918 1.137,-1.155c0.347,-0.2 0.625,-0.25 0.836,-0.15l-0.294,2.398c-0.019,0.148 -0.058,0.267 -0.117,0.356c-0.059,0.089 -0.137,0.162 -0.235,0.218c-0.083,0.048 -0.18,0.09 -0.293,0.126c-0.112,0.035 -0.254,0.103 -0.425,0.201c-0.596,0.345 -1.066,1.039 -1.408,2.084l0,6.217l-2.272,1.312Z" style="fill:#ff8e16;fill-rule:nonzero;"/><path d="M120.559,121.415l0,10.137l-2.272,1.312l-0,-10.137l2.272,-1.312Zm0.264,-2.928c0,0.241 -0.036,0.488 -0.11,0.743c-0.073,0.254 -0.173,0.497 -0.3,0.73c-0.127,0.233 -0.275,0.446 -0.444,0.638c-0.168,0.191 -0.348,0.342 -0.539,0.452c-0.185,0.108 -0.359,0.161 -0.52,0.159c-0.161,-0.001 -0.304,-0.046 -0.429,-0.133c-0.125,-0.088 -0.222,-0.217 -0.293,-0.388c-0.071,-0.171 -0.107,-0.377 -0.107,-0.618c0,-0.248 0.036,-0.5 0.107,-0.756c0.071,-0.256 0.168,-0.501 0.293,-0.736c0.125,-0.235 0.268,-0.444 0.429,-0.629c0.161,-0.184 0.335,-0.33 0.52,-0.437c0.191,-0.11 0.371,-0.168 0.539,-0.174c0.169,-0.007 0.317,0.035 0.444,0.125c0.127,0.089 0.227,0.22 0.3,0.393c0.074,0.173 0.11,0.383 0.11,0.631Z" style="fill:#ff8e16;fill-rule:nonzero;"/><path d="M122.392,133.71l0,-13.353l1.408,-0.813c0.142,-0.081 0.26,-0.108 0.356,-0.078c0.095,0.03 0.162,0.118 0.201,0.265l0.169,0.646c0.146,-0.3 0.304,-0.587 0.473,-0.86c0.168,-0.273 0.349,-0.529 0.542,-0.768c0.193,-0.238 0.401,-0.458 0.623,-0.658c0.223,-0.2 0.466,-0.376 0.73,-0.528c0.396,-0.229 0.762,-0.323 1.1,-0.283c0.337,0.039 0.628,0.21 0.872,0.513c0.244,0.302 0.436,0.733 0.576,1.295c0.139,0.561 0.208,1.249 0.208,2.064c0,0.762 -0.079,1.512 -0.238,2.249c-0.159,0.737 -0.381,1.426 -0.667,2.067c-0.286,0.64 -0.628,1.209 -1.026,1.707c-0.399,0.497 -0.84,0.885 -1.324,1.164c-0.396,0.229 -0.728,0.346 -0.997,0.351c-0.269,0.005 -0.513,-0.055 -0.733,-0.183l0,3.891l-2.273,1.312Zm3.71,-13.374c-0.166,0.096 -0.316,0.204 -0.451,0.324c-0.134,0.12 -0.259,0.253 -0.374,0.397c-0.115,0.145 -0.221,0.305 -0.319,0.482c-0.097,0.177 -0.195,0.372 -0.293,0.585l0,4.301c0.171,0.156 0.357,0.226 0.557,0.211c0.201,-0.014 0.411,-0.085 0.631,-0.212c0.21,-0.122 0.403,-0.288 0.579,-0.501c0.176,-0.212 0.329,-0.478 0.458,-0.797c0.13,-0.319 0.231,-0.696 0.304,-1.129c0.074,-0.433 0.11,-0.93 0.11,-1.491c0,-0.534 -0.029,-0.967 -0.088,-1.298c-0.058,-0.331 -0.14,-0.578 -0.245,-0.743c-0.105,-0.164 -0.231,-0.252 -0.378,-0.265c-0.146,-0.014 -0.31,0.032 -0.491,0.136Z" style="fill:#ff8e16;fill-rule:nonzero;"/><path d="M133.536,124.217c-0.362,0.208 -0.68,0.322 -0.957,0.342c-0.276,0.019 -0.508,-0.046 -0.696,-0.194c-0.188,-0.149 -0.331,-0.378 -0.429,-0.686c-0.098,-0.309 -0.147,-0.688 -0.147,-1.138l0,-5.239l-0.645,0.372c-0.117,0.068 -0.217,0.075 -0.3,0.022c-0.083,-0.053 -0.125,-0.177 -0.125,-0.372l-0,-1.183l1.21,-1.011l0.447,-2.732c0.059,-0.346 0.225,-0.599 0.498,-0.757l1.188,-0.686l0,2.962l1.848,-1.066l-0,2.072l-1.848,1.067l0,5.034c0,0.235 0.043,0.404 0.128,0.508c0.086,0.103 0.209,0.109 0.371,0.015c0.083,-0.047 0.152,-0.099 0.209,-0.154c0.056,-0.056 0.105,-0.11 0.146,-0.163c0.042,-0.054 0.081,-0.102 0.118,-0.146c0.036,-0.044 0.079,-0.08 0.128,-0.108c0.068,-0.04 0.123,-0.051 0.165,-0.032c0.041,0.018 0.084,0.06 0.128,0.126l0.689,1.039c-0.293,0.463 -0.623,0.873 -0.989,1.232c-0.367,0.358 -0.746,0.65 -1.137,0.876Z" style="fill:#ff8e16;fill-rule:nonzero;"/></svg>