<?xml version="1.0" encoding="UTF-8" standalone="no"?><!DOCTYPE svg PUBLIC "-//W3C//DTD SVG 1.1//EN" "http://www.w3.org/Graphics/SVG/1.1/DTD/svg11.dtd"><svg width="100%" height="100%" viewBox="0 0 200 200" version="1.1" xmlns="http://www.w3.org/2000/svg" xmlns:xlink="http://www.w3.org/1999/xlink" xml:space="preserve" xmlns:serif="http://www.serif.com/" style="fill-rule:evenodd;clip-rule:evenodd;stroke-linejoin:round;stroke-miterlimit:2;"><rect x="25" y="49.574" width="150" height="100" style="fill:#fcfcfc;"/><rect x="25" y="49.574" width="75" height="100" style="fill:#063;"/><g><path d="M115.338,116.052c-4.281,5.069 -10.682,8.29 -17.829,8.29c-12.876,-0 -23.329,-10.454 -23.329,-23.329c-0,-12.876 10.453,-23.329 23.329,-23.329c7.147,-0 13.548,3.221 17.829,8.289c-2.633,-1.58 -5.713,-2.49 -9.005,-2.49c-9.674,0 -17.529,7.855 -17.529,17.53c0,9.674 7.855,17.529 17.529,17.529c3.292,-0 6.372,-0.909 9.005,-2.49Z" style="fill:#ce0000;"/><path d="M112.586,93.432l0.343,6.544l6.33,1.696l-6.118,2.348l0.343,6.544l-4.124,-5.092l-6.118,2.348l3.569,-5.496l-4.124,-5.092l6.33,1.696l3.569,-5.496Z" style="fill:#ce0000;"/></g></svg>
