<?xml version="1.0" encoding="UTF-8" standalone="no"?><!DOCTYPE svg PUBLIC "-//W3C//DTD SVG 1.1//EN" "http://www.w3.org/Graphics/SVG/1.1/DTD/svg11.dtd"><svg width="100%" height="100%" viewBox="0 0 200 200" version="1.1" xmlns="http://www.w3.org/2000/svg" xmlns:xlink="http://www.w3.org/1999/xlink" xml:space="preserve" xmlns:serif="http://www.serif.com/" style="fill-rule:evenodd;clip-rule:evenodd;stroke-linejoin:round;stroke-miterlimit:2;"><rect x="24.66" y="51.557" width="150" height="100" style="fill:#fcfcfc;"/><rect x="24.66" y="51.557" width="150" height="6.862" style="fill:#dc0000;"/><rect x="24.66" y="65.964" width="150" height="6.862" style="fill:#dc0000;"/><rect x="24.66" y="80.37" width="150" height="6.862" style="fill:#dc0000;"/><rect x="24.66" y="94.777" width="150" height="6.862" style="fill:#dc0000;"/><rect x="24.66" y="109.183" width="150" height="6.862" style="fill:#dc0000;"/><rect x="24.66" y="123.589" width="150" height="6.862" style="fill:#dc0000;"/><rect x="24.66" y="137.996" width="150" height="6.862" style="fill:#dc0000;"/><rect x="24.66" y="51.557" width="75" height="57.693" style="fill:#090071;"/><path d="M72.329,99.494c-3.166,1.82 -6.835,2.861 -10.746,2.861c-11.931,-0 -21.618,-9.687 -21.618,-21.618c0,-11.931 9.687,-21.617 21.618,-21.617c3.911,-0 7.58,1.04 10.746,2.86c-1.321,-0.288 -2.693,-0.44 -4.1,-0.44c-10.595,0 -19.197,8.602 -19.197,19.197c0,10.595 8.602,19.197 19.197,19.197c1.407,0 2.779,-0.152 4.1,-0.44Z" style="fill:#ffd551;"/><path d="M77.53,68.249l1.151,8.088l4.545,-6.788l-2.473,7.786l7.041,-4.143l-5.607,5.942l8.141,-0.679l-7.629,2.921l7.629,2.921l-8.141,-0.678l5.607,5.942l-7.041,-4.144l2.473,7.786l-4.545,-6.788l-1.151,8.088l-1.15,-8.088l-4.545,6.788l2.473,-7.786l-7.041,4.144l5.607,-5.942l-8.141,0.678l7.629,-2.921l-7.629,-2.921l8.141,0.679l-5.607,-5.942l7.041,4.143l-2.473,-7.786l4.545,6.788l1.15,-8.088Z" style="fill:#ffd551;"/></svg>
