<?xml version="1.0" encoding="UTF-8" standalone="no"?><!DOCTYPE svg PUBLIC "-//W3C//DTD SVG 1.1//EN" "http://www.w3.org/Graphics/SVG/1.1/DTD/svg11.dtd"><svg width="100%" height="100%" viewBox="0 0 200 200" version="1.1" xmlns="http://www.w3.org/2000/svg" xmlns:xlink="http://www.w3.org/1999/xlink" xml:space="preserve" xmlns:serif="http://www.serif.com/" style="fill-rule:evenodd;clip-rule:evenodd;stroke-linejoin:round;stroke-miterlimit:2;"><rect x="25.42" y="49.256" width="150" height="100" style="fill:#d01b33;"/><rect x="25.42" y="49.256" width="75" height="50" style="fill:#09287d;"/><path d="M62.964,52.185l1.267,3.901l4.102,0l-3.318,2.411l1.267,3.901l-3.318,-2.411l-3.318,2.411l1.267,-3.901l-3.318,-2.411l4.102,0l1.267,-3.901Z" style="fill:#fcfcfc;"/><path d="M48.921,63.343l1.268,3.901l4.101,-0l-3.318,2.411l1.268,3.901l-3.319,-2.411l-3.318,2.411l1.268,-3.901l-3.319,-2.411l4.102,-0l1.267,-3.901Z" style="fill:#fcfcfc;"/><path d="M77.937,62.276l1.267,3.901l4.102,-0l-3.318,2.41l1.267,3.901l-3.318,-2.411l-3.318,2.411l1.267,-3.901l-3.318,-2.41l4.101,-0l1.268,-3.901Z" style="fill:#fcfcfc;"/><path d="M70.148,73.828l0.755,2.325l2.445,0l-1.978,1.437l0.755,2.325l-1.977,-1.437l-1.978,1.437l0.755,-2.325l-1.978,-1.437l2.445,0l0.756,-2.325Z" style="fill:#fcfcfc;"/><path d="M63.067,82.716l1.521,4.681l4.922,0l-3.982,2.894l1.521,4.681l-3.982,-2.893l-3.982,2.893l1.521,-4.681l-3.982,-2.894l4.922,0l1.521,-4.681Z" style="fill:#fcfcfc;"/></svg>
