<?xml version="1.0" encoding="UTF-8" standalone="no"?><!DOCTYPE svg PUBLIC "-//W3C//DTD SVG 1.1//EN" "http://www.w3.org/Graphics/SVG/1.1/DTD/svg11.dtd"><svg width="100%" height="100%" viewBox="0 0 200 200" version="1.1" xmlns="http://www.w3.org/2000/svg" xmlns:xlink="http://www.w3.org/1999/xlink" xml:space="preserve" xmlns:serif="http://www.serif.com/" style="fill-rule:evenodd;clip-rule:evenodd;stroke-linejoin:round;stroke-miterlimit:2;"><g><g><path d="M157.928,96.868l-109.177,-75.794l0,147.825l109.177,-0l-63.81,-71.748l63.81,-0.283Z" style="fill:#c8102e;"/><path d="M157.928,96.868l-109.177,-75.794l0,147.825l109.177,-0l-63.81,-71.748l63.81,-0.283Zm-14.282,-4.437l-59.513,0.264l63.771,71.704c-0,-0 -94.653,-0 -94.653,-0c0,-0 0,-134.723 0,-134.723l90.395,62.755Z" style="fill:#003683;"/><path d="M79.163,107.11l3.466,7.583l6.794,-4.834l-0.79,8.3l8.301,-0.789l-4.834,6.794l7.583,3.466l-7.583,3.467l4.834,6.793l-8.301,-0.789l0.79,8.3l-6.794,-4.834l-3.466,7.583l-3.467,-7.583l-6.794,4.834l0.79,-8.3l-8.301,0.789l4.834,-6.793l-7.583,-3.467l7.583,-3.466l-4.834,-6.794l8.301,0.789l-0.79,-8.3l6.794,4.834l3.467,-7.583Z" style="fill:#fff9f9;"/><path d="M67.463,78.277l1.008,-0.815l-3.221,-2.617l3.98,-1.174l-1.974,-3.65l4.127,0.439l-0.427,-4.128l3.644,1.984l1.186,-3.977l2.607,3.228l2.617,-3.22l1.174,3.98l3.65,-1.974l-0.438,4.126l4.127,-0.426l-1.984,3.644l3.977,1.185l-3.228,2.608l0.864,0.702c3.965,-1.878 7.372,-4.746 9.901,-8.284c-1.707,9.96 -10.392,17.55 -20.835,17.55c-10.444,-0 -19.128,-7.59 -20.836,-17.55c2.567,3.591 6.039,6.492 10.081,8.369Z" style="fill:#fff9f9;"/></g></g></svg>
