<?xml version="1.0" encoding="UTF-8" standalone="no"?><!DOCTYPE svg PUBLIC "-//W3C//DTD SVG 1.1//EN" "http://www.w3.org/Graphics/SVG/1.1/DTD/svg11.dtd"><svg width="100%" height="100%" viewBox="0 0 200 200" version="1.1" xmlns="http://www.w3.org/2000/svg" xmlns:xlink="http://www.w3.org/1999/xlink" xml:space="preserve" xmlns:serif="http://www.serif.com/" style="fill-rule:evenodd;clip-rule:evenodd;stroke-linejoin:round;stroke-miterlimit:2;"><rect x="27.019" y="50.342" width="150" height="100" style="fill:#fcfcfc;"/><rect x="27.019" y="50.342" width="150" height="100" style="fill:#ed2939;"/><rect x="27.019" y="50.342" width="150" height="33.333" style="fill:#0098e5;"/><rect x="27.019" y="117.009" width="150" height="33.333" style="fill:#009214;"/><rect x="27.019" y="50.342" width="150" height="33.333" style="fill:#00b9e4;"/><rect x="27.019" y="117.009" width="150" height="33.333" style="fill:#3f9c35;"/><g><path d="M107.292,106.757c-1.855,2.196 -4.629,3.592 -7.726,3.592c-5.579,-0 -10.108,-4.53 -10.108,-10.109c-0,-5.579 4.529,-10.109 10.108,-10.109c3.097,0 5.871,1.396 7.726,3.592c-1.141,-0.685 -2.476,-1.079 -3.902,-1.079c-4.192,0 -7.595,3.404 -7.595,7.596c-0,4.192 3.403,7.595 7.595,7.595c1.426,0 2.761,-0.394 3.902,-1.078Z" style="fill:#f6f6f6;"/><path d="M110.717,97.303l2.443,-0.952l-0.98,2.374l2.401,1.056l-2.377,0.972l0.956,2.457l-2.355,-0.987l-1.074,2.407l-1.051,-2.33l-2.379,0.91l0.91,-2.402l-2.33,-1.027l2.351,-1.031l-0.931,-2.399l2.395,0.936l1.035,-2.356l0.986,2.372Z" style="fill:#f6f6f6;"/></g></svg>
