<?xml version="1.0" encoding="UTF-8" standalone="no"?><!DOCTYPE svg PUBLIC "-//W3C//DTD SVG 1.1//EN" "http://www.w3.org/Graphics/SVG/1.1/DTD/svg11.dtd"><svg width="100%" height="100%" viewBox="0 0 200 200" version="1.1" xmlns="http://www.w3.org/2000/svg" xmlns:xlink="http://www.w3.org/1999/xlink" xml:space="preserve" xmlns:serif="http://www.serif.com/" style="fill-rule:evenodd;clip-rule:evenodd;stroke-linejoin:round;stroke-miterlimit:2;"><rect x="25.017" y="45.927" width="150" height="100" style="fill:#fcfcfc;"/><rect x="25.017" y="45.927" width="37.28" height="100" style="fill:#ff0602;"/><rect x="137.737" y="45.927" width="37.28" height="100" style="fill:#ff0602;"/><path d="M98.633,132.88l0.434,-18.602l-14.765,2.55l2.764,-6.302l-17.155,-9.493l3.226,-3.456l-2.324,-10.915l8.334,2.353l1.219,-5.344l8.442,7.843l1.268,-2.537l-2.648,-14.62l5.789,1.957l6.8,-10.661l6.8,10.661l5.789,-1.957l-2.647,14.62l1.267,2.537l8.442,-7.843l1.22,5.344l8.333,-2.353l-2.324,10.915l3.226,3.456l-17.154,9.493l2.764,6.302l-14.766,-2.55l0.434,18.602l-1.384,-0.028l-1.384,0.028Z" style="fill:#ff0602;"/></svg>
