<?xml version="1.0" encoding="UTF-8" standalone="no"?><!DOCTYPE svg PUBLIC "-//W3C//DTD SVG 1.1//EN" "http://www.w3.org/Graphics/SVG/1.1/DTD/svg11.dtd"><svg width="100%" height="100%" viewBox="0 0 200 200" version="1.1" xmlns="http://www.w3.org/2000/svg" xmlns:xlink="http://www.w3.org/1999/xlink" xml:space="preserve" xmlns:serif="http://www.serif.com/" style="fill-rule:evenodd;clip-rule:evenodd;stroke-linejoin:round;stroke-miterlimit:2;"><rect x="25" y="50" width="150" height="100" style="fill:#65b5dd;"/><path d="M99.948,64.887l1.778,5.471l5.753,0l-4.654,3.382l1.778,5.471l-4.655,-3.381l-4.654,3.381l1.778,-5.471l-4.655,-3.382l5.753,0l1.778,-5.471Z" style="fill:#fcfcfc;"/><path d="M68.192,92.321l3.811,4.309l5.277,-2.292l-2.921,4.956l3.811,4.31l-5.616,-1.247l-2.922,4.957l-0.55,-5.727l-5.616,-1.247l5.276,-2.293l-0.55,-5.726Z" style="fill:#fcfcfc;"/><path d="M131.954,92.321l-3.811,4.309l-5.276,-2.292l2.921,4.956l-3.812,4.31l5.617,-1.247l2.921,4.957l0.55,-5.727l5.616,-1.247l-5.276,-2.293l0.55,-5.726Z" style="fill:#fcfcfc;"/><path d="M95.702,119.612l4.495,3.59l4.804,-3.166l-2.025,5.385l4.495,3.589l-5.747,-0.261l-2.025,5.385l-1.527,-5.547l-5.747,-0.262l4.804,-3.166l-1.527,-5.547Z" style="fill:#fcfcfc;"/></svg>
