<?xml version="1.0" encoding="UTF-8" standalone="no"?><!DOCTYPE svg PUBLIC "-//W3C//DTD SVG 1.1//EN" "http://www.w3.org/Graphics/SVG/1.1/DTD/svg11.dtd"><svg width="100%" height="100%" viewBox="0 0 200 200" version="1.1" xmlns="http://www.w3.org/2000/svg" xmlns:xlink="http://www.w3.org/1999/xlink" xml:space="preserve" xmlns:serif="http://www.serif.com/" style="fill-rule:evenodd;clip-rule:evenodd;stroke-linejoin:round;stroke-miterlimit:2;"><rect x="23.831" y="52.147" width="150" height="100" style="fill:#090071;"/><rect x="23.831" y="52.147" width="150" height="100" style="fill:#090071;"/><rect x="23.831" y="52.147" width="150" height="100" style="fill:#012169;"/><path d="M32.171,52.147l-8.34,0l-0,18.338l63.22,41.943l10.997,-16.575l-65.877,-43.706Z" style="fill:#fcfcfc;"/><path d="M23.831,56.822l-0,10.27l64.778,42.977l4.731,-7.132l-69.509,-46.115Z" style="fill:#c8102e;"/><path d="M173.831,67.04l-0,-14.893l-14.667,0l-63.063,42.413l11.464,17.046l66.266,-44.566Z" style="fill:#fcfcfc;"/><path d="M173.831,56.789l-0,-4.642l-8.433,0l-67.35,45.296l4.776,7.101l71.007,-47.755Z" style="fill:#c8102e;"/><path d="M173.831,133.996l-59.071,-39.191l-11.174,16.843l61.043,40.499l9.202,0l-0,-18.151Z" style="fill:#fcfcfc;"/><path d="M173.831,137.774l-60.807,-40.342l-4.731,7.131l65.538,43.481l-0,-10.27Z" style="fill:#c8102e;"/><path d="M23.831,138.108l-0,14.039l15.517,0l65.598,-44.118l-11.333,-16.852l-69.782,46.931Z" style="fill:#fcfcfc;"/><path d="M23.831,148.359l-0,3.788l9.703,0l69.597,-46.807l-4.776,-7.101l-74.524,50.12Z" style="fill:#c8102e;"/><rect x="83.482" y="52.176" width="30.698" height="100.709" style="fill:#fcfcfc;"/><path d="M173.831,118.446l-0,-32.075l-150,0l-0,32.075l150,0Z" style="fill:#fcfcfc;"/><rect x="90.273" y="52.176" width="17.116" height="100.709" style="fill:#c8102e;"/><path d="M173.831,111.657l-0,-18.497l-150,-0l-0,18.497l150,0Z" style="fill:#c8102e;"/></svg>
