<?xml version="1.0" encoding="UTF-8" standalone="no"?><!DOCTYPE svg PUBLIC "-//W3C//DTD SVG 1.1//EN" "http://www.w3.org/Graphics/SVG/1.1/DTD/svg11.dtd"><svg width="100%" height="100%" viewBox="0 0 200 200" version="1.1" xmlns="http://www.w3.org/2000/svg" xmlns:xlink="http://www.w3.org/1999/xlink" xml:space="preserve" xmlns:serif="http://www.serif.com/" style="fill-rule:evenodd;clip-rule:evenodd;stroke-linejoin:round;stroke-miterlimit:2;"><rect x="25" y="50" width="150" height="100" style="fill:#fcfcfc;"/><rect x="25" y="50" width="150" height="25" style="fill:#ffd551;"/><rect x="25" y="99.947" width="150" height="25" style="fill:#c30000;"/><rect x="25" y="125" width="150" height="25" style="fill:#1d52a9;"/><path d="M100.092,99.936l-75.092,-49.936l-0,99.894l75.092,-49.958Z" style="fill:#00981e;"/><path d="M58.981,120.398c-2.377,0.835 -4.931,1.289 -7.591,1.289c-12.652,0 -22.923,-10.272 -22.923,-22.924c-0,-12.652 10.271,-22.924 22.923,-22.924c2.66,0 5.214,0.454 7.591,1.289c-8.926,3.135 -15.334,11.643 -15.334,21.635c0,9.993 6.408,18.501 15.334,21.635Z" style="fill:#fcfcfc;"/><path d="M59.362,78.938l0.967,2.974l3.127,0l-2.53,1.839l0.967,2.974l-2.531,-1.838l-2.53,1.838l0.967,-2.974l-2.53,-1.839l3.127,0l0.966,-2.974Z" style="fill:#fcfcfc;"/><path d="M59.338,89.239l0.967,2.974l3.127,-0l-2.53,1.838l0.966,2.974l-2.53,-1.838l-2.53,1.838l0.967,-2.974l-2.53,-1.838l3.127,-0l0.966,-2.974Z" style="fill:#fcfcfc;"/><path d="M59.314,99.539l0.966,2.974l3.128,0l-2.53,1.838l0.966,2.975l-2.53,-1.838l-2.53,1.838l0.966,-2.975l-2.53,-1.838l3.128,0l0.966,-2.974Z" style="fill:#fcfcfc;"/><path d="M59.29,109.839l0.966,2.975l3.128,-0l-2.53,1.838l0.966,2.974l-2.53,-1.838l-2.53,1.838l0.966,-2.974l-2.53,-1.838l3.128,-0l0.966,-2.975Z" style="fill:#fcfcfc;"/></svg>
