<?xml version="1.0" encoding="UTF-8" standalone="no"?><!DOCTYPE svg PUBLIC "-//W3C//DTD SVG 1.1//EN" "http://www.w3.org/Graphics/SVG/1.1/DTD/svg11.dtd"><svg width="100%" height="100%" viewBox="0 0 200 200" version="1.1" xmlns="http://www.w3.org/2000/svg" xmlns:xlink="http://www.w3.org/1999/xlink" xml:space="preserve" xmlns:serif="http://www.serif.com/" style="fill-rule:evenodd;clip-rule:evenodd;stroke-linejoin:round;stroke-miterlimit:2;"><rect x="22.411" y="52.465" width="150" height="100" style="fill:#00247d;"/><rect x="22.411" y="52.465" width="150" height="33.333" style="fill:#fc0;"/><rect x="22.411" y="119.62" width="150" height="33.333" style="fill:#cf142b;"/><g><path d="M91.005,86.887l1.513,2.863l3.19,-0.555l-2.255,2.324l1.513,2.863l-2.907,-1.427l-2.255,2.324l0.459,-3.206l-2.907,-1.426l3.19,-0.555l0.459,-3.205Z" style="fill:#f7f7f8;"/><path d="M78.045,92.036l2.534,2.016l2.7,-1.788l-1.133,3.033l2.534,2.015l-3.235,-0.14l-1.133,3.033l-0.866,-3.12l-3.235,-0.141l2.7,-1.788l-0.866,-3.12Z" style="fill:#f7f7f8;"/><path d="M68.518,101.492l3.151,0.743l1.681,-2.767l0.267,3.227l3.151,0.743l-2.986,1.251l0.267,3.227l-2.113,-2.454l-2.986,1.251l1.68,-2.767l-2.112,-2.454Z" style="fill:#f7f7f8;"/><path d="M63.456,113.665l3.192,-0.54l0.473,-3.203l1.501,2.869l3.192,-0.54l-2.265,2.313l1.5,2.87l-2.9,-1.44l-2.266,2.314l0.473,-3.203l-2.9,-1.44Z" style="fill:#f7f7f8;"/><path d="M103.817,86.664l-1.513,2.863l-3.19,-0.555l2.255,2.324l-1.513,2.863l2.907,-1.427l2.255,2.323l-0.459,-3.205l2.907,-1.426l-3.19,-0.555l-0.459,-3.205Z" style="fill:#f7f7f8;"/><path d="M116.776,91.813l-2.534,2.016l-2.7,-1.788l1.134,3.033l-2.534,2.015l3.234,-0.14l1.134,3.033l0.866,-3.12l3.234,-0.141l-2.699,-1.788l0.865,-3.12Z" style="fill:#f7f7f8;"/><path d="M126.304,101.269l-3.152,0.743l-1.68,-2.767l-0.267,3.226l-3.152,0.744l2.987,1.251l-0.267,3.227l2.112,-2.454l2.987,1.251l-1.681,-2.768l2.113,-2.453Z" style="fill:#f7f7f8;"/><path d="M131.366,113.442l-3.193,-0.54l-0.473,-3.203l-1.5,2.869l-3.192,-0.54l2.265,2.313l-1.5,2.87l2.9,-1.44l2.265,2.314l-0.473,-3.203l2.901,-1.44Z" style="fill:#f7f7f8;"/></g></svg>
