<?xml version="1.0" encoding="UTF-8" standalone="no"?><!DOCTYPE svg PUBLIC "-//W3C//DTD SVG 1.1//EN" "http://www.w3.org/Graphics/SVG/1.1/DTD/svg11.dtd"><svg width="100%" height="100%" viewBox="0 0 200 200" version="1.1" xmlns="http://www.w3.org/2000/svg" xmlns:xlink="http://www.w3.org/1999/xlink" xml:space="preserve" xmlns:serif="http://www.serif.com/" style="fill-rule:evenodd;clip-rule:evenodd;stroke-linejoin:round;stroke-miterlimit:2;"><rect x="25.888" y="52.837" width="150" height="100" style="fill:#00981e;"/><rect x="25.888" y="80.323" width="150" height="45.029" style="fill:#fbd640;"/><path d="M64.419,102.773l-38.531,-49.936l0,99.894l38.531,-49.958Z" style="fill:#d01b33;"/><path d="M100.888,92.14l2.655,8.172l8.593,0l-6.952,5.051l2.656,8.172l-6.952,-5.051l-6.951,5.051l2.655,-8.172l-6.951,-5.051l8.592,0l2.655,-8.172Z" style="fill:#191919;"/><path d="M138.35,92.14l2.655,8.172l8.592,0l-6.951,5.051l2.655,8.172l-6.951,-5.051l-6.952,5.051l2.655,-8.172l-6.951,-5.051l8.592,0l2.656,-8.172Z" style="fill:#191919;"/></svg>
