<?xml version="1.0" encoding="UTF-8" standalone="no"?><!DOCTYPE svg PUBLIC "-//W3C//DTD SVG 1.1//EN" "http://www.w3.org/Graphics/SVG/1.1/DTD/svg11.dtd"><svg width="100%" height="100%" viewBox="0 0 200 200" version="1.1" xmlns="http://www.w3.org/2000/svg" xmlns:xlink="http://www.w3.org/1999/xlink" xml:space="preserve" xmlns:serif="http://www.serif.com/" style="fill-rule:evenodd;clip-rule:evenodd;stroke-linejoin:round;stroke-miterlimit:2;"><rect x="24.297" y="49.456" width="150" height="100" style="fill:#0d3b9f;"/><rect x="24.297" y="84.752" width="150" height="29.41" style="fill:#fcfcfc;"/><path d="M99.297,94.618l1.086,3.343l3.515,0l-2.844,2.066l1.086,3.343l-2.843,-2.066l-2.844,2.066l1.086,-3.343l-2.843,-2.066l3.515,0l1.086,-3.343Z" style="fill:#0d3b9f;"/><path d="M81.387,86.657l1.086,3.343l3.515,-0l-2.844,2.066l1.087,3.343l-2.844,-2.066l-2.844,2.066l1.086,-3.343l-2.843,-2.066l3.515,-0l1.086,-3.343Z" style="fill:#0d3b9f;"/><path d="M81.387,102.001l1.086,3.343l3.515,0l-2.844,2.066l1.087,3.343l-2.844,-2.066l-2.844,2.066l1.086,-3.343l-2.843,-2.066l3.515,0l1.086,-3.343Z" style="fill:#0d3b9f;"/><path d="M117.207,86.518l1.086,3.342l3.515,0l-2.844,2.066l1.086,3.343l-2.843,-2.066l-2.844,2.066l1.086,-3.343l-2.843,-2.066l3.515,0l1.086,-3.342Z" style="fill:#0d3b9f;"/><path d="M117.207,101.862l1.086,3.343l3.515,-0l-2.844,2.066l1.086,3.343l-2.843,-2.066l-2.844,2.066l1.086,-3.343l-2.843,-2.066l3.515,-0l1.086,-3.343Z" style="fill:#0d3b9f;"/></svg>
