<?xml version="1.0" encoding="UTF-8" standalone="no"?><!DOCTYPE svg PUBLIC "-//W3C//DTD SVG 1.1//EN" "http://www.w3.org/Graphics/SVG/1.1/DTD/svg11.dtd"><svg width="100%" height="100%" viewBox="0 0 200 200" version="1.1" xmlns="http://www.w3.org/2000/svg" xmlns:xlink="http://www.w3.org/1999/xlink" xml:space="preserve" xmlns:serif="http://www.serif.com/" style="fill-rule:evenodd;clip-rule:evenodd;stroke-linejoin:round;stroke-miterlimit:2;"><rect x="25.221" y="46.862" width="150" height="100" style="fill:#0025aa;"/><rect x="25.221" y="46.618" width="150" height="33.333" style="fill:#fcfcfc;"/><rect x="25.221" y="113.773" width="150" height="33.333" style="fill:#dc0000;"/><path d="M92.34,67.655l-45.061,0.206l-2.273,29.331c1.959,17.076 11.989,24.485 24.19,28.492c13.951,-4.54 23.777,-12.765 25.203,-28.492l-2.059,-29.537Z" style="fill:#fcfcfc;"/><path d="M90.718,69.735l-41.832,0.19l-2.11,27.23c1.818,15.852 11.13,22.73 22.456,26.449c12.952,-4.214 22.073,-11.849 23.397,-26.449l-1.911,-27.42Z" style="fill:#dc0000;"/><path d="M48.935,106.197c0.539,-3.698 3.727,-6.542 7.574,-6.542c2.393,0 4.532,1.102 5.936,2.825c1.263,-2.492 3.849,-4.201 6.832,-4.201c3.173,0 5.898,1.935 7.057,4.689c1.34,-2.225 3.779,-3.714 6.563,-3.714c3.982,-0 7.258,3.048 7.62,6.936c-3.624,8.906 -11.321,14.172 -21.285,17.414c-8.89,-2.919 -16.539,-7.784 -20.297,-17.407Z" style="fill:#0025aa;"/><path d="M67.615,98.46l0,-5.431l-10.863,2.067l-0.097,-6.911l10.96,1.118l0,-4.662l-8.817,0.505l-0.117,-6.332l8.266,1.118l-1.697,-8.464l4.453,0.02l4.452,-0.02l-1.697,8.464l8.266,-1.118l-0.117,6.332l-8.817,-0.505l-0,4.662l10.96,-1.118l-0.097,6.911l-10.863,-2.067l-0,5.673c-0.788,-0.274 -1.633,-0.423 -2.513,-0.423c-0.571,0 -1.127,0.063 -1.662,0.181Z" style="fill:#fcfcfc;"/></svg>
