<?xml version="1.0" encoding="UTF-8" standalone="no"?><!DOCTYPE svg PUBLIC "-//W3C//DTD SVG 1.1//EN" "http://www.w3.org/Graphics/SVG/1.1/DTD/svg11.dtd"><svg width="100%" height="100%" viewBox="0 0 200 200" version="1.1" xmlns="http://www.w3.org/2000/svg" xmlns:xlink="http://www.w3.org/1999/xlink" xml:space="preserve" xmlns:serif="http://www.serif.com/" style="fill-rule:evenodd;clip-rule:evenodd;stroke-linejoin:round;stroke-miterlimit:2;"><rect x="24.369" y="53.144" width="150" height="100" style="fill:#fcfcfc;"/><path d="M107.927,93.895l0,-41.106l-17.116,0l0,41.106l-66.442,-0l0,18.498l66.442,-0l0,41.105l17.116,0l0,-41.105l66.442,-0l0,-18.498l-66.442,-0Z" style="fill:#f00f00;"/><path d="M60.127,69.401l0.965,-7.202l-9.193,-0l0.8,7.156l-7.237,-0.719l0,9.192l7.117,-0.57l-0.68,7.008l9.193,-0l-0.757,-7.244l7.194,0.806l0,-9.192l-7.402,0.765Z" style="fill:#f00f00;"/><path d="M60.127,128.703l0.965,-7.202l-9.193,-0l0.8,7.156l-7.237,-0.719l0,9.192l7.117,-0.57l-0.68,7.008l9.193,-0l-0.757,-7.244l7.194,0.806l0,-9.192l-7.402,0.765Z" style="fill:#f00f00;"/><path d="M145.076,69.401l0.965,-7.202l-9.192,-0l0.799,7.156l-7.237,-0.719l0,9.192l7.117,-0.57l-0.679,7.008l9.192,-0l-0.757,-7.244l7.194,0.806l0,-9.192l-7.402,0.765Z" style="fill:#f00f00;"/><path d="M145.076,128.703l0.965,-7.202l-9.192,-0l0.799,7.156l-7.237,-0.719l0,9.192l7.117,-0.57l-0.679,7.008l9.192,-0l-0.757,-7.244l7.194,0.806l0,-9.192l-7.402,0.765Z" style="fill:#f00f00;"/></svg>
