<?xml version="1.0" encoding="UTF-8" standalone="no"?><!DOCTYPE svg PUBLIC "-//W3C//DTD SVG 1.1//EN" "http://www.w3.org/Graphics/SVG/1.1/DTD/svg11.dtd"><svg width="100%" height="100%" viewBox="0 0 200 200" version="1.1" xmlns="http://www.w3.org/2000/svg" xmlns:xlink="http://www.w3.org/1999/xlink" xml:space="preserve" xmlns:serif="http://www.serif.com/" style="fill-rule:evenodd;clip-rule:evenodd;stroke-linejoin:round;stroke-miterlimit:2;"><rect x="25.445" y="50.729" width="150" height="100" style="fill:#012169;"/><path d="M140.002,60.516l1.816,5.588l5.876,0l-4.754,3.454l1.816,5.588l-4.754,-3.453l-4.754,3.453l1.816,-5.588l-4.754,-3.454l5.876,0l1.816,-5.588Z" style="fill:#c8102e;"/><path d="M140.002,60.516l1.816,5.588l5.876,0l-4.754,3.454l1.816,5.588l-4.754,-3.453l-4.754,3.453l1.816,-5.588l-4.754,-3.454l5.876,0l1.816,-5.588Zm0,2.265l1.307,4.023l4.231,0c-0,0 -3.423,2.487 -3.423,2.487l1.308,4.023c-0,-0 -3.423,-2.487 -3.423,-2.487l-3.422,2.487c-0,-0 1.307,-4.023 1.307,-4.023l-3.422,-2.487c-0,0 4.23,0 4.23,0l1.307,-4.023Z" style="fill:#fcfcfc;"/><path d="M117.306,82.307l1.816,5.589l5.876,-0l-4.754,3.454l1.816,5.588l-4.754,-3.454l-4.754,3.454l1.816,-5.588l-4.754,-3.454l5.876,-0l1.816,-5.589Z" style="fill:#c8102e;"/><path d="M117.306,82.307l1.816,5.589l5.876,-0l-4.754,3.454l1.816,5.588l-4.754,-3.454l-4.754,3.454l1.816,-5.588l-4.754,-3.454l5.876,-0l1.816,-5.589Zm-0,2.266l1.307,4.023l4.23,-0c0,-0 -3.422,2.486 -3.422,2.486l1.307,4.023c0,0 -3.422,-2.486 -3.422,-2.486l-3.423,2.486c0,0 1.308,-4.023 1.308,-4.023l-3.423,-2.486c0,-0 4.231,-0 4.231,-0l1.307,-4.023Z" style="fill:#fcfcfc;"/><path d="M140.002,124.106l1.816,5.588l5.876,0l-4.754,3.454l1.816,5.589l-4.754,-3.454l-4.754,3.454l1.816,-5.589l-4.754,-3.454l5.876,0l1.816,-5.588Z" style="fill:#c8102e;"/><path d="M140.002,124.106l1.816,5.588l5.876,0l-4.754,3.454l1.816,5.589l-4.754,-3.454l-4.754,3.454l1.816,-5.589l-4.754,-3.454l5.876,0l1.816,-5.588Zm0,2.265l1.307,4.023l4.231,0c-0,0 -3.423,2.487 -3.423,2.487l1.308,4.023c-0,0 -3.423,-2.486 -3.423,-2.486l-3.422,2.486c-0,0 1.307,-4.023 1.307,-4.023l-3.422,-2.487c-0,0 4.23,0 4.23,0l1.307,-4.023Z" style="fill:#fcfcfc;"/><path d="M159.634,78.641l1.447,4.454l4.683,-0l-3.789,2.753l1.447,4.453l-3.788,-2.752l-3.789,2.752l1.447,-4.453l-3.788,-2.753l4.682,-0l1.448,-4.454Z" style="fill:#c8102e;"/><path d="M159.634,78.641l1.447,4.454l4.683,-0l-3.789,2.753l1.447,4.453l-3.788,-2.752l-3.789,2.752l1.447,-4.453l-3.788,-2.753l4.682,-0l1.448,-4.454Zm-0,2.266l0.938,2.888l3.037,-0c0,-0 -2.457,1.785 -2.457,1.785l0.939,2.889c-0,-0 -2.457,-1.786 -2.457,-1.786l-2.458,1.786c0,-0 0.939,-2.889 0.939,-2.889l-2.457,-1.785c-0,-0 3.037,-0 3.037,-0l0.939,-2.888Z" style="fill:#fcfcfc;"/><path d="M29.599,51.097l-4.154,0l0,9.133l31.485,20.889l5.477,-8.255l-32.808,-21.767Z" style="fill:#fcfcfc;"/><path d="M25.445,53.425l0,5.115l32.261,21.404l2.357,-3.552l-34.618,-22.967Z" style="fill:#c8102e;"/><path d="M100.149,58.514l0,-7.417l-7.304,0l-31.407,21.123l5.709,8.49l33.002,-22.196Z" style="fill:#fcfcfc;"/><path d="M100.149,53.409l0,-2.312l-4.199,0l-33.543,22.559l2.379,3.536l35.363,-23.783Z" style="fill:#c8102e;"/><path d="M100.149,91.86l-29.419,-19.518l-5.565,8.388l30.402,20.17l4.582,0l0,-9.04Z" style="fill:#fcfcfc;"/><path d="M100.149,93.742l-30.283,-20.092l-2.356,3.552l32.639,21.655l0,-5.115Z" style="fill:#c8102e;"/><path d="M25.445,93.908l0,6.992l7.728,0l32.67,-21.972l-5.644,-8.393l-34.754,23.373Z" style="fill:#fcfcfc;"/><path d="M25.445,99.014l0,1.886l4.832,0l34.662,-23.311l-2.379,-3.537l-37.115,24.962Z" style="fill:#c8102e;"/><rect x="55.153" y="51.112" width="15.289" height="50.156" style="fill:#fcfcfc;"/><path d="M100.149,84.116l0,-15.974l-74.704,-0l0,15.974l74.704,0Z" style="fill:#fcfcfc;"/><rect x="58.535" y="51.112" width="8.524" height="50.156" style="fill:#c8102e;"/><path d="M100.149,80.735l0,-9.212l-74.704,-0l0,9.212l74.704,0Z" style="fill:#c8102e;"/></svg>
