<?xml version="1.0" encoding="UTF-8" standalone="no"?><!DOCTYPE svg PUBLIC "-//W3C//DTD SVG 1.1//EN" "http://www.w3.org/Graphics/SVG/1.1/DTD/svg11.dtd"><svg width="100%" height="100%" viewBox="0 0 200 200" version="1.1" xmlns="http://www.w3.org/2000/svg" xmlns:xlink="http://www.w3.org/1999/xlink" xml:space="preserve" xmlns:serif="http://www.serif.com/" style="fill-rule:evenodd;clip-rule:evenodd;stroke-linejoin:round;stroke-miterlimit:2;"><rect x="26.053" y="57.759" width="150" height="100" style="fill:#fcfcfc;"/><circle cx="101.053" cy="107.759" r="27.802" style="fill:#cd2e3a;"/><path d="M97.888,114.404c1.415,-1.481 3.549,-5.454 3.549,-5.454c1.449,-5.953 6.914,-9.643 13.31,-9.643c6.396,-0 11.139,3.414 12.588,9.367c0,0 0.88,3.67 0.478,5.363c-0.226,1.508 -0.407,3.094 -1.086,4.398c-4.19,10.053 -14.113,17.126 -25.674,17.126c-9.725,-0 -18.29,-5.004 -23.26,-12.575c-1.472,-2.243 -2.484,-4.449 -3.407,-7.343c-1.704,-5.346 -1.097,-12.585 -0.228,-14.659c-0,0 -0.392,9.611 3.933,13.902c1.867,1.853 5.507,3.518 9.399,3.415c5.942,-0.158 8.467,-1.876 10.398,-3.897Z" style="fill:#0047a0;"/><path d="M65.355,68.815l-16.984,16.984l3.277,3.277l16.984,-16.984l-3.277,-3.277Z" style="fill:#070707;"/><path d="M60.648,64.109l-16.983,16.984l3.276,3.277l16.984,-16.984l-3.277,-3.277Z" style="fill:#070707;"/><path d="M69.999,73.459l-16.984,16.984l3.277,3.277l16.984,-16.984l-3.277,-3.277Z" style="fill:#070707;"/><path d="M148.263,87.727l-16.984,-16.984l3.277,-3.277l16.984,16.984l-3.277,3.277Z" style="fill:#070707;"/><path d="M152.907,83.083l-7.712,-7.712l3.277,-3.277l7.712,7.712l-3.277,3.277Z" style="fill:#070707;"/><path d="M148.263,87.727l-16.984,-16.984l3.277,-3.277l16.984,16.984l-3.277,3.277Z" style="fill:#070707;"/><path d="M143.976,74.152l-8.053,-8.053l3.277,-3.277l8.053,8.053l-3.277,3.277Z" style="fill:#070707;"/><path d="M143.699,92.197l-7.712,-7.712l3.277,-3.277l7.712,7.712l-3.277,3.277Z" style="fill:#070707;"/><path d="M134.768,83.266l-8.053,-8.053l3.277,-3.277l8.053,8.053l-3.277,3.277Z" style="fill:#070707;"/><path d="M65.355,147.267l-7.4,-7.4l3.277,-3.277l7.4,7.4l-3.277,3.277Z" style="fill:#070707;"/><path d="M56.583,138.399l-8.177,-8.177l3.277,-3.277l8.177,8.177l-3.277,3.277Z" style="fill:#070707;"/><path d="M60.648,151.973l-16.983,-16.984l3.276,-3.277l16.984,16.984l-3.277,3.277Z" style="fill:#070707;"/><path d="M69.999,142.623l-16.984,-16.984l3.277,-3.277l16.984,16.984l-3.277,3.277Z" style="fill:#070707;"/><path d="M148.263,128.355l-7.902,7.901l3.277,3.277l7.902,-7.901l-3.277,-3.277Z" style="fill:#070707;"/><path d="M143.557,123.648l-7.902,7.902l3.277,3.277l7.901,-7.902l-3.276,-3.277Z" style="fill:#070707;"/><path d="M152.907,132.999l-7.902,7.901l3.277,3.277l7.902,-7.901l-3.277,-3.277Z" style="fill:#070707;"/><path d="M138.9,137.718l-7.621,7.621l3.277,3.277l7.621,-7.621l-3.277,-3.277Z" style="fill:#070707;"/><path d="M134.194,133.011l-7.621,7.621l3.276,3.277l7.622,-7.621l-3.277,-3.277Z" style="fill:#070707;"/><path d="M143.544,142.362l-7.621,7.621l3.277,3.277l7.621,-7.621l-3.277,-3.277Z" style="fill:#070707;"/></svg>
