<?xml version="1.0" encoding="UTF-8" standalone="no"?><!DOCTYPE svg PUBLIC "-//W3C//DTD SVG 1.1//EN" "http://www.w3.org/Graphics/SVG/1.1/DTD/svg11.dtd"><svg width="100%" height="100%" viewBox="0 0 200 200" version="1.1" xmlns="http://www.w3.org/2000/svg" xmlns:xlink="http://www.w3.org/1999/xlink" xml:space="preserve" xmlns:serif="http://www.serif.com/" style="fill-rule:evenodd;clip-rule:evenodd;stroke-linejoin:round;stroke-miterlimit:2;"><rect x="27.192" y="51.289" width="150" height="100" style="fill:#fcfcfc;"/><rect x="27.192" y="51.289" width="150" height="7.526" style="fill:#b22234;"/><rect x="27.192" y="66.701" width="150" height="7.526" style="fill:#b22234;"/><rect x="27.192" y="82.114" width="150" height="7.526" style="fill:#b22234;"/><rect x="27.192" y="97.526" width="150" height="7.526" style="fill:#b22234;"/><rect x="27.192" y="112.938" width="150" height="7.526" style="fill:#b22234;"/><rect x="27.192" y="128.351" width="150" height="7.526" style="fill:#b22234;"/><rect x="27.192" y="143.763" width="150" height="7.526" style="fill:#b22234;"/><rect x="27.192" y="51.289" width="74.462" height="53.717" style="fill:#3c3b6e;"/><path d="M31.3,52.839l0.645,1.993l2.089,0l-1.69,1.232l0.645,1.993l-1.689,-1.232l-1.689,1.232l0.645,-1.993l-1.689,-1.232l2.088,0l0.645,-1.993Z" style="fill:#fcfcfc;"/><path d="M31.3,64.131l0.645,1.993l2.089,-0l-1.69,1.232l0.645,1.993l-1.689,-1.232l-1.689,1.232l0.645,-1.993l-1.689,-1.232l2.088,-0l0.645,-1.993Z" style="fill:#fcfcfc;"/><path d="M31.3,75.423l0.645,1.993l2.089,-0l-1.69,1.232l0.645,1.993l-1.689,-1.232l-1.689,1.232l0.645,-1.993l-1.689,-1.232l2.088,-0l0.645,-1.993Z" style="fill:#fcfcfc;"/><path d="M31.3,86.715l0.645,1.993l2.089,-0l-1.69,1.231l0.645,1.993l-1.689,-1.231l-1.689,1.231l0.645,-1.993l-1.689,-1.231l2.088,-0l0.645,-1.993Z" style="fill:#fcfcfc;"/><path d="M31.3,98.006l0.645,1.994l2.089,-0l-1.69,1.231l0.645,1.993l-1.689,-1.231l-1.689,1.231l0.645,-1.993l-1.689,-1.231l2.088,-0l0.645,-1.994Z" style="fill:#fcfcfc;"/><path d="M37.219,58.266l0.645,1.993l2.088,0l-1.689,1.232l0.645,1.993l-1.689,-1.232l-1.69,1.232l0.645,-1.993l-1.689,-1.232l2.088,0l0.646,-1.993Z" style="fill:#fcfcfc;"/><path d="M37.219,69.758l0.645,1.993l2.088,-0l-1.689,1.232l0.645,1.993l-1.689,-1.232l-1.69,1.232l0.645,-1.993l-1.689,-1.232l2.088,-0l0.646,-1.993Z" style="fill:#fcfcfc;"/><path d="M37.368,81.045l0.645,1.993l2.088,-0l-1.689,1.231l0.645,1.993l-1.689,-1.231l-1.689,1.231l0.645,-1.993l-1.689,-1.231l2.088,-0l0.645,-1.993Z" style="fill:#fcfcfc;"/><path d="M37.444,92.783l0.645,1.993l2.088,0l-1.689,1.232l0.645,1.993l-1.689,-1.232l-1.69,1.232l0.646,-1.993l-1.69,-1.232l2.088,0l0.646,-1.993Z" style="fill:#fcfcfc;"/><path d="M44.292,52.839l0.645,1.993l2.088,0l-1.689,1.232l0.645,1.993l-1.689,-1.232l-1.689,1.232l0.645,-1.993l-1.689,-1.232l2.088,0l0.645,-1.993Z" style="fill:#fcfcfc;"/><path d="M44.292,64.131l0.645,1.993l2.088,-0l-1.689,1.232l0.645,1.993l-1.689,-1.232l-1.689,1.232l0.645,-1.993l-1.689,-1.232l2.088,-0l0.645,-1.993Z" style="fill:#fcfcfc;"/><path d="M44.292,75.423l0.645,1.993l2.088,-0l-1.689,1.232l0.645,1.993l-1.689,-1.232l-1.689,1.232l0.645,-1.993l-1.689,-1.232l2.088,-0l0.645,-1.993Z" style="fill:#fcfcfc;"/><path d="M44.292,86.715l0.645,1.993l2.088,-0l-1.689,1.231l0.645,1.993l-1.689,-1.231l-1.689,1.231l0.645,-1.993l-1.689,-1.231l2.088,-0l0.645,-1.993Z" style="fill:#fcfcfc;"/><path d="M44.292,98.006l0.645,1.994l2.088,-0l-1.689,1.231l0.645,1.993l-1.689,-1.231l-1.689,1.231l0.645,-1.993l-1.689,-1.231l2.088,-0l0.645,-1.994Z" style="fill:#fcfcfc;"/><path d="M50.21,58.266l0.645,1.993l2.088,0l-1.689,1.232l0.645,1.993l-1.689,-1.232l-1.689,1.232l0.645,-1.993l-1.689,-1.232l2.088,0l0.645,-1.993Z" style="fill:#fcfcfc;"/><path d="M50.21,69.758l0.645,1.993l2.088,-0l-1.689,1.232l0.645,1.993l-1.689,-1.232l-1.689,1.232l0.645,-1.993l-1.689,-1.232l2.088,-0l0.645,-1.993Z" style="fill:#fcfcfc;"/><path d="M50.36,81.045l0.645,1.993l2.088,-0l-1.689,1.231l0.645,1.993l-1.689,-1.231l-1.69,1.231l0.646,-1.993l-1.69,-1.231l2.088,-0l0.646,-1.993Z" style="fill:#fcfcfc;"/><path d="M50.435,92.783l0.645,1.993l2.088,0l-1.689,1.232l0.645,1.993l-1.689,-1.232l-1.689,1.232l0.645,-1.993l-1.689,-1.232l2.088,0l0.645,-1.993Z" style="fill:#fcfcfc;"/><path d="M57.283,52.839l0.646,1.993l2.088,0l-1.69,1.232l0.646,1.993l-1.69,-1.232l-1.689,1.232l0.645,-1.993l-1.689,-1.232l2.088,0l0.645,-1.993Z" style="fill:#fcfcfc;"/><path d="M57.283,64.131l0.646,1.993l2.088,-0l-1.69,1.232l0.646,1.993l-1.69,-1.232l-1.689,1.232l0.645,-1.993l-1.689,-1.232l2.088,-0l0.645,-1.993Z" style="fill:#fcfcfc;"/><path d="M57.283,75.423l0.646,1.993l2.088,-0l-1.69,1.232l0.646,1.993l-1.69,-1.232l-1.689,1.232l0.645,-1.993l-1.689,-1.232l2.088,-0l0.645,-1.993Z" style="fill:#fcfcfc;"/><path d="M57.283,86.715l0.646,1.993l2.088,-0l-1.69,1.231l0.646,1.993l-1.69,-1.231l-1.689,1.231l0.645,-1.993l-1.689,-1.231l2.088,-0l0.645,-1.993Z" style="fill:#fcfcfc;"/><path d="M57.283,98.006l0.646,1.994l2.088,-0l-1.69,1.231l0.646,1.993l-1.69,-1.231l-1.689,1.231l0.645,-1.993l-1.689,-1.231l2.088,-0l0.645,-1.994Z" style="fill:#fcfcfc;"/><path d="M63.202,58.266l0.645,1.993l2.088,0l-1.689,1.232l0.645,1.993l-1.689,-1.232l-1.69,1.232l0.646,-1.993l-1.69,-1.232l2.088,0l0.646,-1.993Z" style="fill:#fcfcfc;"/><path d="M63.202,69.758l0.645,1.993l2.088,-0l-1.689,1.232l0.645,1.993l-1.689,-1.232l-1.69,1.232l0.646,-1.993l-1.69,-1.232l2.088,-0l0.646,-1.993Z" style="fill:#fcfcfc;"/><path d="M63.351,81.045l0.645,1.993l2.088,-0l-1.689,1.231l0.645,1.993l-1.689,-1.231l-1.689,1.231l0.645,-1.993l-1.689,-1.231l2.088,-0l0.645,-1.993Z" style="fill:#fcfcfc;"/><path d="M63.427,92.783l0.645,1.993l2.088,0l-1.689,1.232l0.645,1.993l-1.689,-1.232l-1.689,1.232l0.645,-1.993l-1.69,-1.232l2.089,0l0.645,-1.993Z" style="fill:#fcfcfc;"/><path d="M70.275,52.839l0.645,1.993l2.088,0l-1.689,1.232l0.645,1.993l-1.689,-1.232l-1.689,1.232l0.645,-1.993l-1.689,-1.232l2.088,0l0.645,-1.993Z" style="fill:#fcfcfc;"/><path d="M70.275,64.131l0.645,1.993l2.088,-0l-1.689,1.232l0.645,1.993l-1.689,-1.232l-1.689,1.232l0.645,-1.993l-1.689,-1.232l2.088,-0l0.645,-1.993Z" style="fill:#fcfcfc;"/><path d="M70.275,75.423l0.645,1.993l2.088,-0l-1.689,1.232l0.645,1.993l-1.689,-1.232l-1.689,1.232l0.645,-1.993l-1.689,-1.232l2.088,-0l0.645,-1.993Z" style="fill:#fcfcfc;"/><path d="M70.275,86.715l0.645,1.993l2.088,-0l-1.689,1.231l0.645,1.993l-1.689,-1.231l-1.689,1.231l0.645,-1.993l-1.689,-1.231l2.088,-0l0.645,-1.993Z" style="fill:#fcfcfc;"/><path d="M70.275,98.006l0.645,1.994l2.088,-0l-1.689,1.231l0.645,1.993l-1.689,-1.231l-1.689,1.231l0.645,-1.993l-1.689,-1.231l2.088,-0l0.645,-1.994Z" style="fill:#fcfcfc;"/><path d="M76.193,58.266l0.646,1.993l2.088,0l-1.69,1.232l0.646,1.993l-1.69,-1.232l-1.689,1.232l0.645,-1.993l-1.689,-1.232l2.088,0l0.645,-1.993Z" style="fill:#fcfcfc;"/><path d="M76.193,69.758l0.646,1.993l2.088,-0l-1.69,1.232l0.646,1.993l-1.69,-1.232l-1.689,1.232l0.645,-1.993l-1.689,-1.232l2.088,-0l0.645,-1.993Z" style="fill:#fcfcfc;"/><path d="M76.343,81.045l0.645,1.993l2.088,-0l-1.689,1.231l0.645,1.993l-1.689,-1.231l-1.69,1.231l0.646,-1.993l-1.69,-1.231l2.088,-0l0.646,-1.993Z" style="fill:#fcfcfc;"/><path d="M76.418,92.783l0.646,1.993l2.088,0l-1.69,1.232l0.646,1.993l-1.69,-1.232l-1.689,1.232l0.645,-1.993l-1.689,-1.232l2.088,0l0.645,-1.993Z" style="fill:#fcfcfc;"/><path d="M83.267,52.839l0.645,1.993l2.088,0l-1.689,1.232l0.645,1.993l-1.689,-1.232l-1.69,1.232l0.646,-1.993l-1.69,-1.232l2.088,0l0.646,-1.993Z" style="fill:#fcfcfc;"/><path d="M83.267,64.131l0.645,1.993l2.088,-0l-1.689,1.232l0.645,1.993l-1.689,-1.232l-1.69,1.232l0.646,-1.993l-1.69,-1.232l2.088,-0l0.646,-1.993Z" style="fill:#fcfcfc;"/><path d="M83.267,75.423l0.645,1.993l2.088,-0l-1.689,1.232l0.645,1.993l-1.689,-1.232l-1.69,1.232l0.646,-1.993l-1.69,-1.232l2.088,-0l0.646,-1.993Z" style="fill:#fcfcfc;"/><path d="M83.267,86.715l0.645,1.993l2.088,-0l-1.689,1.231l0.645,1.993l-1.689,-1.231l-1.69,1.231l0.646,-1.993l-1.69,-1.231l2.088,-0l0.646,-1.993Z" style="fill:#fcfcfc;"/><path d="M83.267,98.006l0.645,1.994l2.088,-0l-1.689,1.231l0.645,1.993l-1.689,-1.231l-1.69,1.231l0.646,-1.993l-1.69,-1.231l2.088,-0l0.646,-1.994Z" style="fill:#fcfcfc;"/><path d="M89.185,58.266l0.645,1.993l2.088,0l-1.689,1.232l0.645,1.993l-1.689,-1.232l-1.689,1.232l0.645,-1.993l-1.689,-1.232l2.088,0l0.645,-1.993Z" style="fill:#fcfcfc;"/><path d="M89.185,69.758l0.645,1.993l2.088,-0l-1.689,1.232l0.645,1.993l-1.689,-1.232l-1.689,1.232l0.645,-1.993l-1.689,-1.232l2.088,-0l0.645,-1.993Z" style="fill:#fcfcfc;"/><path d="M89.334,81.045l0.646,1.993l2.088,-0l-1.69,1.231l0.646,1.993l-1.69,-1.231l-1.689,1.231l0.645,-1.993l-1.689,-1.231l2.088,-0l0.645,-1.993Z" style="fill:#fcfcfc;"/><path d="M89.41,92.783l0.645,1.993l2.088,0l-1.689,1.232l0.645,1.993l-1.689,-1.232l-1.689,1.232l0.645,-1.993l-1.689,-1.232l2.088,0l0.645,-1.993Z" style="fill:#fcfcfc;"/><path d="M96.258,52.839l0.645,1.993l2.088,0l-1.689,1.232l0.645,1.993l-1.689,-1.232l-1.689,1.232l0.645,-1.993l-1.689,-1.232l2.088,0l0.645,-1.993Z" style="fill:#fcfcfc;"/><path d="M96.258,64.131l0.645,1.993l2.088,-0l-1.689,1.232l0.645,1.993l-1.689,-1.232l-1.689,1.232l0.645,-1.993l-1.689,-1.232l2.088,-0l0.645,-1.993Z" style="fill:#fcfcfc;"/><path d="M96.258,75.423l0.645,1.993l2.088,-0l-1.689,1.232l0.645,1.993l-1.689,-1.232l-1.689,1.232l0.645,-1.993l-1.689,-1.232l2.088,-0l0.645,-1.993Z" style="fill:#fcfcfc;"/><path d="M96.258,86.715l0.645,1.993l2.088,-0l-1.689,1.231l0.645,1.993l-1.689,-1.231l-1.689,1.231l0.645,-1.993l-1.689,-1.231l2.088,-0l0.645,-1.993Z" style="fill:#fcfcfc;"/><path d="M96.258,98.006l0.645,1.994l2.088,-0l-1.689,1.231l0.645,1.993l-1.689,-1.231l-1.689,1.231l0.645,-1.993l-1.689,-1.231l2.088,-0l0.645,-1.994Z" style="fill:#fcfcfc;"/></svg>
