<?xml version="1.0" encoding="UTF-8" standalone="no"?><!DOCTYPE svg PUBLIC "-//W3C//DTD SVG 1.1//EN" "http://www.w3.org/Graphics/SVG/1.1/DTD/svg11.dtd"><svg width="100%" height="100%" viewBox="0 0 200 200" version="1.1" xmlns="http://www.w3.org/2000/svg" xmlns:xlink="http://www.w3.org/1999/xlink" xml:space="preserve" xmlns:serif="http://www.serif.com/" style="fill-rule:evenodd;clip-rule:evenodd;stroke-linejoin:round;stroke-miterlimit:2;"><rect x="25.493" y="49.65" width="150" height="100" style="fill:#007fff;"/><path d="M52.695,57.193l4.684,14.414l15.156,0l-12.262,8.909l4.684,14.414l-12.262,-8.908l-12.262,8.908l4.684,-14.414l-12.262,-8.909l15.157,0l4.683,-14.414Z" style="fill:#f7d618;"/><path d="M175.493,75.802l-138.929,73.848l-11.042,-0l-0.029,-0.052l-0,-26.03l139.061,-73.918l10.939,-0l-0,26.152Z" style="fill:#f7d618;"/><path d="M175.493,70.109l-149.64,79.541l-0.331,-0l-0.029,-0.052l-0,-20.337l149.773,-79.611l0.227,-0l-0,20.459Z" style="fill:#ce1021;"/></svg>
