<?xml version="1.0" encoding="UTF-8" standalone="no"?><!DOCTYPE svg PUBLIC "-//W3C//DTD SVG 1.1//EN" "http://www.w3.org/Graphics/SVG/1.1/DTD/svg11.dtd"><svg width="100%" height="100%" viewBox="0 0 200 200" version="1.1" xmlns="http://www.w3.org/2000/svg" xmlns:xlink="http://www.w3.org/1999/xlink" xml:space="preserve" xmlns:serif="http://www.serif.com/" style="fill-rule:evenodd;clip-rule:evenodd;stroke-linejoin:round;stroke-miterlimit:2;"><rect x="23.796" y="50.178" width="150" height="100" style="fill:#00a95c;"/><rect x="23.796" y="50.178" width="150" height="25" style="fill:#d01c1f;"/><rect x="23.796" y="125.178" width="150" height="25" style="fill:#d01c1f;"/><path d="M68.256,88.758c6.06,10.594 17.472,17.74 30.54,17.74c13.067,-0 24.479,-7.146 30.539,-17.74c-1.788,15.274 -14.789,27.142 -30.539,27.142c-15.751,-0 -28.752,-11.868 -30.54,-27.142Z" style="fill:#ffd700;"/><path d="M98.796,84.055l2.161,6.653l6.996,-0l-5.66,4.112l2.162,6.653l-5.659,-4.112l-5.66,4.112l2.162,-6.653l-5.659,-4.112l6.995,-0l2.162,-6.653Z" style="fill:#ffd700;"/></svg>
