<?xml version="1.0" encoding="UTF-8" standalone="no"?><!DOCTYPE svg PUBLIC "-//W3C//DTD SVG 1.1//EN" "http://www.w3.org/Graphics/SVG/1.1/DTD/svg11.dtd"><svg width="100%" height="100%" viewBox="0 0 200 200" version="1.1" xmlns="http://www.w3.org/2000/svg" xmlns:xlink="http://www.w3.org/1999/xlink" xml:space="preserve" xmlns:serif="http://www.serif.com/" style="fill-rule:evenodd;clip-rule:evenodd;stroke-linejoin:round;stroke-miterlimit:2;"><rect x="24.757" y="48.212" width="150" height="100" style="fill:#fcfcfc;"/><rect x="24.757" y="48.212" width="74.704" height="49.803" style="fill:#090071;"/><rect x="24.757" y="48.212" width="74.704" height="49.803" style="fill:#090071;"/><rect x="24.757" y="48.212" width="150" height="100" style="fill:#00008b;"/><path d="M28.911,48.212l-4.154,-0l0,9.133l31.486,20.888l5.476,-8.255l-32.808,-21.766Z" style="fill:#fcfcfc;"/><path d="M24.757,50.54l0,5.115l32.262,21.403l2.356,-3.551l-34.618,-22.967Z" style="fill:#f00;"/><path d="M99.462,55.629l-0,-7.417l-7.305,-0l-31.407,21.122l5.71,8.49l33.002,-22.195Z" style="fill:#fcfcfc;"/><path d="M99.462,50.524l-0,-2.312l-4.2,-0l-33.543,22.558l2.379,3.537l35.364,-23.783Z" style="fill:#f00;"/><path d="M99.462,88.975l-29.419,-19.518l-5.565,8.388l30.401,20.17l4.583,-0l-0,-9.04Z" style="fill:#fcfcfc;"/><path d="M99.462,90.856l-30.284,-20.091l-2.356,3.552l32.64,21.654l-0,-5.115Z" style="fill:#f00;"/><path d="M24.757,91.023l0,6.992l7.728,-0l32.67,-21.972l-5.644,-8.393l-34.754,23.373Z" style="fill:#fcfcfc;"/><path d="M24.757,96.128l0,1.887l4.833,-0l34.661,-23.311l-2.379,-3.537l-37.115,24.961Z" style="fill:#f00;"/><rect x="54.465" y="48.226" width="15.289" height="50.156" style="fill:#fcfcfc;"/><path d="M99.462,81.231l-0,-15.975l-74.705,0l0,15.975l74.705,-0Z" style="fill:#fcfcfc;"/><rect x="57.847" y="48.226" width="8.524" height="50.156" style="fill:#f00;"/><path d="M99.462,77.85l-0,-9.213l-74.705,0l0,9.213l74.705,-0Z" style="fill:#f00;"/><path d="M150.419,90.726l0.679,2.091l2.199,-0l-1.779,1.292l0.679,2.091l-1.778,-1.292l-1.779,1.292l0.679,-2.091l-1.779,-1.292l2.199,-0l0.68,-2.091Z" style="fill:#fcfcfc;"/><path d="M61.253,111.138l2.913,6.577l7.21,-1.131l-3.825,5.712l5.241,4.732l-6.729,0.186l0.67,6.882l-5.48,-4.666l-5.479,4.666l0.623,-6.979l-6.938,-0.991l5.497,-4.3l-3.683,-6.01l7.313,1.722l2.667,-6.4Z" style="fill:#fcfcfc;"/><path d="M140.099,54.764l1.411,3.393l3.491,-0.584l-1.853,2.948l2.538,2.441l-3.258,0.096l0.324,3.55l-2.653,-2.407l-2.653,2.407l0.302,-3.6l-3.359,-0.512l2.661,-2.218l-1.783,-3.101l3.541,0.889l1.291,-3.302Z" style="fill:#fcfcfc;"/><path d="M117.509,81.463l1.41,3.393l3.491,-0.583l-1.852,2.947l2.538,2.441l-3.259,0.096l0.325,3.55l-2.653,-2.407l-2.653,2.407l0.301,-3.6l-3.359,-0.512l2.662,-2.218l-1.784,-3.1l3.541,0.888l1.292,-3.302Z" style="fill:#fcfcfc;"/><path d="M160.676,70.293l1.41,3.393l3.491,-0.583l-1.852,2.947l2.538,2.441l-3.259,0.096l0.325,3.55l-2.653,-2.407l-2.653,2.407l0.301,-3.6l-3.359,-0.512l2.662,-2.218l-1.784,-3.1l3.541,0.888l1.292,-3.302Z" style="fill:#fcfcfc;"/><path d="M140.099,122.502l1.411,3.393l3.491,-0.583l-1.853,2.947l2.538,2.441l-3.258,0.096l0.324,3.551l-2.653,-2.408l-2.653,2.408l0.302,-3.601l-3.359,-0.511l2.661,-2.219l-1.783,-3.1l3.541,0.888l1.291,-3.302Z" style="fill:#fcfcfc;"/></svg>
