<?xml version="1.0" encoding="UTF-8" standalone="no"?><!DOCTYPE svg PUBLIC "-//W3C//DTD SVG 1.1//EN" "http://www.w3.org/Graphics/SVG/1.1/DTD/svg11.dtd"><svg width="100%" height="100%" viewBox="0 0 200 200" version="1.1" xmlns="http://www.w3.org/2000/svg" xmlns:xlink="http://www.w3.org/1999/xlink" xml:space="preserve" xmlns:serif="http://www.serif.com/" style="fill-rule:evenodd;clip-rule:evenodd;stroke-linejoin:round;stroke-miterlimit:2;"><rect x="25" y="50" width="150" height="100" style="fill:#070707;"/><path d="M106.466,110.621c-2.143,1.699 -4.853,2.714 -7.797,2.714c-6.936,0 -12.567,-5.631 -12.567,-12.566c0,-6.936 5.631,-12.567 12.567,-12.567c2.057,0 3.999,0.496 5.713,1.373c-0.596,-0.1 -1.207,-0.152 -1.831,-0.152c-6.049,-0 -10.96,4.911 -10.96,10.959c0,6.049 4.911,10.96 10.96,10.96c1.379,0 2.699,-0.255 3.915,-0.721Z" style="fill:#fcfcfc;"/><path d="M106.185,93.309l2.781,4.282l4.932,-1.322l-3.213,3.968l2.781,4.283l-4.767,-1.83l-3.214,3.968l0.267,-5.099l-4.766,-1.83l4.932,-1.321l0.267,-5.099Z" style="fill:#fcfcfc;"/><rect x="25" y="50" width="150" height="25" style="fill:#f00;"/><rect x="25" y="125" width="150" height="25" style="fill:#007e19;"/></svg>
