<?xml version="1.0" encoding="UTF-8" standalone="no"?><!DOCTYPE svg PUBLIC "-//W3C//DTD SVG 1.1//EN" "http://www.w3.org/Graphics/SVG/1.1/DTD/svg11.dtd"><svg width="100%" height="100%" viewBox="0 0 200 200" version="1.1" xmlns="http://www.w3.org/2000/svg" xmlns:xlink="http://www.w3.org/1999/xlink" xml:space="preserve" xmlns:serif="http://www.serif.com/" style="fill-rule:evenodd;clip-rule:evenodd;stroke-linejoin:round;stroke-miterlimit:2;"><rect x="22.878" y="54.15" width="150" height="100" style="fill:#fcfcfc;"/><rect x="22.878" y="54.15" width="150" height="49.947" style="fill:#ff0635;"/><path d="M63.458,98.996c-1.296,0.266 -2.636,0.406 -4.008,0.406c-10.952,-0 -19.844,-8.892 -19.844,-19.845c-0,-10.952 8.892,-19.844 19.844,-19.844c1.564,-0 3.086,0.181 4.545,0.524c-9.033,1.855 -15.837,9.858 -15.837,19.438c0,9.389 6.534,17.263 15.3,19.321Z" style="fill:#fcfcfc;"/><path d="M69.436,62.915l0.962,2.958l3.11,-0l-2.516,1.828l0.961,2.958l-2.517,-1.828l-2.516,1.828l0.961,-2.958l-2.516,-1.828l3.11,-0l0.961,-2.958Z" style="fill:#fcfcfc;"/><path d="M58.214,72.391l0.961,2.958l3.111,-0l-2.517,1.828l0.961,2.958l-2.516,-1.828l-2.517,1.828l0.962,-2.958l-2.517,-1.828l3.111,-0l0.961,-2.958Z" style="fill:#fcfcfc;"/><path d="M62.286,85.419l0.961,2.958l3.11,-0l-2.516,1.828l0.961,2.958l-2.516,-1.828l-2.517,1.828l0.961,-2.958l-2.516,-1.828l3.11,-0l0.962,-2.958Z" style="fill:#fcfcfc;"/><path d="M76.11,85.441l0.961,2.958l3.11,0l-2.516,1.829l0.961,2.958l-2.516,-1.828l-2.517,1.828l0.962,-2.958l-2.517,-1.829l3.111,0l0.961,-2.958Z" style="fill:#fcfcfc;"/><path d="M80.181,72.283l0.962,2.958l3.11,0l-2.516,1.828l0.961,2.959l-2.517,-1.829l-2.516,1.829l0.961,-2.959l-2.516,-1.828l3.11,0l0.961,-2.958Z" style="fill:#fcfcfc;"/></svg>
