<?xml version="1.0" encoding="UTF-8" standalone="no"?><!DOCTYPE svg PUBLIC "-//W3C//DTD SVG 1.1//EN" "http://www.w3.org/Graphics/SVG/1.1/DTD/svg11.dtd"><svg width="100%" height="100%" viewBox="0 0 200 200" version="1.1" xmlns="http://www.w3.org/2000/svg" xmlns:xlink="http://www.w3.org/1999/xlink" xml:space="preserve" xmlns:serif="http://www.serif.com/" style="fill-rule:evenodd;clip-rule:evenodd;stroke-linejoin:round;stroke-miterlimit:2;"><rect x="23.86" y="50.747" width="150" height="100" style="fill:#e30a17;"/><path d="M97.526,118.542c-5.004,5.925 -12.487,9.691 -20.843,9.691c-15.052,-0 -27.273,-12.221 -27.273,-27.273c-0,-15.053 12.221,-27.273 27.273,-27.273c8.356,-0 15.839,3.765 20.843,9.691c-3.077,-1.848 -6.679,-2.911 -10.527,-2.911c-11.31,0 -20.492,9.182 -20.492,20.493c-0,11.31 9.182,20.492 20.492,20.492c3.848,0 7.45,-1.062 10.527,-2.91Z" style="fill:#fcfcfc;"/><path d="M108.152,90.511l5.932,5.341l6.912,-3.991l-3.247,7.291l5.931,5.341l-7.937,-0.835l-3.246,7.292l-1.66,-7.807l-7.937,-0.834l6.912,-3.991l-1.66,-7.807Z" style="fill:#fcfcfc;"/></svg>
