<?xml version="1.0" encoding="UTF-8" standalone="no"?><!DOCTYPE svg PUBLIC "-//W3C//DTD SVG 1.1//EN" "http://www.w3.org/Graphics/SVG/1.1/DTD/svg11.dtd"><svg width="100%" height="100%" viewBox="0 0 200 200" version="1.1" xmlns="http://www.w3.org/2000/svg" xmlns:xlink="http://www.w3.org/1999/xlink" xml:space="preserve" xmlns:serif="http://www.serif.com/" style="fill-rule:evenodd;clip-rule:evenodd;stroke-linejoin:round;stroke-miterlimit:2;"><rect x="25" y="50" width="150" height="100" style="fill:#e41c25;"/><path d="M47.009,61.65l2.97,9.14l9.61,-0l-7.775,5.649l2.97,9.14l-7.775,-5.649l-7.775,5.649l2.97,-9.14l-7.775,-5.649l9.61,-0l2.97,-9.14Z" style="fill:#ff0;"/><path d="M70.4,54.048l0.189,3.501l3.387,0.902l-3.27,1.261l0.188,3.501l-2.21,-2.722l-3.271,1.262l1.905,-2.943l-2.21,-2.721l3.387,0.902l1.905,-2.943Z" style="fill:#ff0;"/><path d="M84.819,64.628l-1.428,3.202l2.604,2.347l-3.486,-0.368l-1.428,3.201l-0.726,-3.429l-3.487,-0.369l3.037,-1.751l-0.727,-3.429l2.604,2.347l3.037,-1.751Z" style="fill:#ff0;"/><path d="M81.479,78.681l1.011,3.356l3.505,0.075l-2.879,2l1.012,3.356l-2.792,-2.12l-2.879,1.999l1.154,-3.31l-2.791,-2.121l3.504,0.075l1.155,-3.31Z" style="fill:#ff0;"/><path d="M70.515,89.565l-0.006,3.505l3.332,1.089l-3.336,1.078l-0.005,3.505l-2.056,-2.839l-3.336,1.078l2.065,-2.833l-2.056,-2.84l3.332,1.089l2.066,-2.832Z" style="fill:#ff0;"/></svg>
