<?xml version="1.0" encoding="UTF-8" standalone="no"?><!DOCTYPE svg PUBLIC "-//W3C//DTD SVG 1.1//EN" "http://www.w3.org/Graphics/SVG/1.1/DTD/svg11.dtd"><svg width="100%" height="100%" viewBox="0 0 200 200" version="1.1" xmlns="http://www.w3.org/2000/svg" xmlns:xlink="http://www.w3.org/1999/xlink" xml:space="preserve" xmlns:serif="http://www.serif.com/" style="fill-rule:evenodd;clip-rule:evenodd;stroke-linejoin:round;stroke-miterlimit:2;"><rect x="24.845" y="48.81" width="150" height="100" style="fill:#01411c;"/><path d="M102.347,70.974c-3.774,4.903 -6.018,11.04 -6.018,17.698c0,16.035 13.018,29.053 29.053,29.053c9.084,0 17.2,-4.178 22.528,-10.714c-4.109,12.216 -15.663,21.026 -29.258,21.026c-17.033,0 -30.862,-13.828 -30.862,-30.861c0,-11.049 5.819,-20.75 14.557,-26.202Z" style="fill:#fcfcfc;"/><path d="M125.349,73.56l5.673,4.897l6.41,-3.882l-2.904,6.908l5.672,4.897l-7.467,-0.628l-2.904,6.909l-1.711,-7.296l-7.468,-0.627l6.41,-3.882l-1.711,-7.296Z" style="fill:#fcfcfc;"/><rect x="24.845" y="48.81" width="37.127" height="100" style="fill:#fcfcfc;"/></svg>
