<?xml version="1.0" encoding="UTF-8" standalone="no"?><!DOCTYPE svg PUBLIC "-//W3C//DTD SVG 1.1//EN" "http://www.w3.org/Graphics/SVG/1.1/DTD/svg11.dtd"><svg width="100%" height="100%" viewBox="0 0 200 200" version="1.1" xmlns="http://www.w3.org/2000/svg" xmlns:xlink="http://www.w3.org/1999/xlink" xml:space="preserve" xmlns:serif="http://www.serif.com/" style="fill-rule:evenodd;clip-rule:evenodd;stroke-linejoin:round;stroke-miterlimit:2;"><rect x="26.298" y="49.438" width="150" height="100" style="fill:#009deb;"/><path d="M163.719,55.337l1.535,4.724l4.967,-0l-4.018,2.919l1.535,4.724l-4.019,-2.919l-4.018,2.919l1.535,-4.724l-4.019,-2.919l4.967,-0l1.535,-4.724Z" style="fill:#ffd551;"/><path d="M162.672,90.942l1.535,4.724l4.967,0l-4.018,2.92l1.535,4.724l-4.019,-2.92l-4.018,2.92l1.535,-4.724l-4.019,-2.92l4.967,0l1.535,-4.724Z" style="fill:#ffd551;"/><path d="M100.251,129.517l1.535,4.724l4.967,-0l-4.019,2.919l1.535,4.724l-4.018,-2.919l-4.019,2.919l1.535,-4.724l-4.018,-2.919l4.967,-0l1.535,-4.724Z" style="fill:#ffd551;"/><path d="M149.92,99.891l1.534,4.724l4.967,0l-4.018,2.92l1.535,4.723l-4.018,-2.919l-4.019,2.919l1.535,-4.723l-4.018,-2.92l4.967,0l1.535,-4.724Z" style="fill:#ffd551;"/><path d="M141.21,118.209l-1.709,4.664l3.908,3.066l-4.963,-0.183l-1.709,4.664l-1.359,-4.778l-4.964,-0.183l4.124,-2.769l-1.36,-4.778l3.908,3.066l4.124,-2.769Z" style="fill:#ffd551;"/><path d="M122.876,103.822l-1.708,4.664l3.908,3.066l-4.964,-0.184l-1.708,4.664l-1.36,-4.777l-4.963,-0.184l4.123,-2.769l-1.359,-4.777l3.908,3.066l4.123,-2.769Z" style="fill:#ffd551;"/><path d="M122.876,122.368l-1.708,4.664l3.908,3.066l-4.964,-0.184l-1.708,4.664l-1.36,-4.777l-4.963,-0.184l4.123,-2.769l-1.359,-4.777l3.908,3.066l4.123,-2.769Z" style="fill:#ffd551;"/><path d="M156.465,68.637l-1.078,4.848l4.278,2.524l-4.945,0.473l-1.078,4.849l-1.977,-4.557l-4.945,0.473l3.722,-3.289l-1.977,-4.556l4.278,2.524l3.722,-3.289Z" style="fill:#ffd551;"/><path d="M141.919,77.755l-1.496,4.737l4.042,2.886l-4.967,0.041l-1.496,4.736l-1.574,-4.711l-4.967,0.041l3.995,-2.953l-1.574,-4.711l4.042,2.887l3.995,-2.953Z" style="fill:#ffd551;"/><rect x="26.298" y="49.438" width="74.704" height="49.803" style="fill:#090071;"/><rect x="26.298" y="49.438" width="74.704" height="49.803" style="fill:#090071;"/><path d="M30.451,49.438l-4.153,-0l-0,9.133l31.485,20.888l5.477,-8.255l-32.809,-21.766Z" style="fill:#fcfcfc;"/><path d="M26.298,51.766l-0,5.115l32.261,21.403l2.356,-3.551l-34.617,-22.967Z" style="fill:#b40000;"/><path d="M101.002,56.855l0,-7.417l-7.304,-0l-31.408,21.122l5.71,8.49l33.002,-22.195Z" style="fill:#fcfcfc;"/><path d="M101.002,51.75l0,-2.312l-4.2,-0l-33.542,22.558l2.379,3.537l35.363,-23.783Z" style="fill:#b40000;"/><path d="M101.002,90.201l-29.419,-19.518l-5.565,8.388l30.402,20.17l4.582,-0l0,-9.04Z" style="fill:#fcfcfc;"/><path d="M101.002,92.082l-30.283,-20.091l-2.356,3.552l32.639,21.654l0,-5.115Z" style="fill:#b40000;"/><path d="M26.298,92.249l-0,6.992l7.728,-0l32.67,-21.972l-5.645,-8.393l-34.753,23.373Z" style="fill:#fcfcfc;"/><path d="M26.298,97.354l-0,1.887l4.832,-0l34.662,-23.311l-2.379,-3.537l-37.115,24.961Z" style="fill:#b40000;"/><rect x="56.006" y="49.452" width="15.289" height="50.156" style="fill:#fcfcfc;"/><path d="M101.002,82.457l0,-15.975l-74.704,0l-0,15.975l74.704,-0Z" style="fill:#fcfcfc;"/><rect x="59.388" y="49.452" width="8.524" height="50.156" style="fill:#b40000;"/><path d="M101.002,79.076l0,-9.213l-74.704,0l-0,9.213l74.704,-0Z" style="fill:#b40000;"/></svg>
