<?xml version="1.0" encoding="UTF-8" standalone="no"?><!DOCTYPE svg PUBLIC "-//W3C//DTD SVG 1.1//EN" "http://www.w3.org/Graphics/SVG/1.1/DTD/svg11.dtd"><svg width="100%" height="100%" viewBox="0 0 200 200" version="1.1" xmlns="http://www.w3.org/2000/svg" xmlns:xlink="http://www.w3.org/1999/xlink" xml:space="preserve" xmlns:serif="http://www.serif.com/" style="fill-rule:evenodd;clip-rule:evenodd;stroke-linejoin:round;stroke-miterlimit:2;"><rect x="25" y="50" width="150" height="100" style="fill:#e70013;"/><circle cx="100" cy="100" r="32.337" style="fill:#fcfcfc;"/><path d="M119.988,115.625c-4.577,5.42 -11.422,8.864 -19.064,8.864c-13.767,-0 -24.944,-11.177 -24.944,-24.945c-0,-13.767 11.177,-24.944 24.944,-24.944c7.642,-0 14.487,3.444 19.064,8.863c-2.815,-1.69 -6.109,-2.662 -9.628,-2.662c-10.345,0 -18.743,8.399 -18.743,18.743c-0,10.345 8.398,18.743 18.743,18.743c3.519,0 6.813,-0.972 9.628,-2.662Z" style="fill:#e70013;"/><path d="M102.893,88.059l7.187,6.471l8.376,-4.836l-3.934,8.836l7.187,6.471l-9.618,-1.01l-3.934,8.835l-2.011,-9.46l-9.618,-1.011l8.375,-4.836l-2.01,-9.46Z" style="fill:#e70013;"/></svg>
