<?xml version="1.0" encoding="UTF-8" standalone="no"?><!DOCTYPE svg PUBLIC "-//W3C//DTD SVG 1.1//EN" "http://www.w3.org/Graphics/SVG/1.1/DTD/svg11.dtd"><svg width="100%" height="100%" viewBox="0 0 200 200" version="1.1" xmlns="http://www.w3.org/2000/svg" xmlns:xlink="http://www.w3.org/1999/xlink" xml:space="preserve" xmlns:serif="http://www.serif.com/" style="fill-rule:evenodd;clip-rule:evenodd;stroke-linejoin:round;stroke-miterlimit:2;"><path d="M99.989,43.456l-24.481,14.135l24.481,14.134l24.481,-14.134l-24.481,-14.135Z" style="fill:#99a88e;"/><path d="M99.989,71.725l-24.481,14.134l24.481,14.135l24.481,-14.135l-24.481,-14.134Z" style="fill:#99a88e;"/><path d="M75.508,57.591l-24.482,14.134l24.482,14.134l24.481,-14.134l-24.481,-14.134Z" style="fill:#dadada;"/><path d="M124.47,57.591l-24.481,14.134l24.481,14.134l24.481,-14.134l-24.481,-14.134Z" style="fill:#dadada;"/><path d="M51.026,71.725l-24.481,14.134l24.481,14.135l24.482,-14.135l-24.482,-14.134Z" style="fill:#99a88e;"/><path d="M51.026,99.994l-24.481,14.134l24.481,14.134l24.482,-14.134l-24.482,-14.134Z" style="fill:#99a88e;"/><path d="M26.545,85.859l-24.481,14.135l24.481,14.134l24.481,-14.134l-24.481,-14.135Z" style="fill:#dadada;"/><path d="M75.508,85.859l-24.482,14.135l24.482,14.134l24.481,-14.134l-24.481,-14.135Z" style="fill:#dadada;"/><path d="M148.974,71.738l-24.482,14.134l24.482,14.134l24.481,-14.134l-24.481,-14.134Z" style="fill:#99a88e;"/><path d="M148.974,100.006l-24.482,14.135l24.482,14.134l24.481,-14.134l-24.481,-14.135Z" style="fill:#99a88e;"/><path d="M124.492,85.872l-24.481,14.134l24.481,14.135l24.482,-14.135l-24.482,-14.134Z" style="fill:#dadada;"/><path d="M173.455,85.872l-24.481,14.134l24.481,14.135l24.481,-14.135l-24.481,-14.134Z" style="fill:#dadada;"/><path d="M100.011,100.006l-24.481,14.135l24.481,14.134l24.481,-14.134l-24.481,-14.135Z" style="fill:#99a88e;"/><path d="M100.011,128.275l-24.481,14.134l24.481,14.135l24.481,-14.135l-24.481,-14.134Z" style="fill:#99a88e;"/><path d="M75.53,114.141l-24.481,14.134l24.481,14.134l24.481,-14.134l-24.481,-14.134Z" style="fill:#dadada;"/><path d="M124.492,114.141l-24.481,14.134l24.481,14.134l24.482,-14.134l-24.482,-14.134Z" style="fill:#dadada;"/></svg>