<?xml version="1.0" encoding="UTF-8" standalone="no"?><!DOCTYPE svg PUBLIC "-//W3C//DTD SVG 1.1//EN" "http://www.w3.org/Graphics/SVG/1.1/DTD/svg11.dtd"><svg width="100%" height="100%" viewBox="0 0 200 200" version="1.1" xmlns="http://www.w3.org/2000/svg" xmlns:xlink="http://www.w3.org/1999/xlink" xml:space="preserve" xmlns:serif="http://www.serif.com/" style="fill-rule:evenodd;clip-rule:evenodd;stroke-linejoin:round;stroke-miterlimit:2;"><path d="M104.331,43.045l-51.556,29.766l48.028,27.729l51.556,-29.765l-48.028,-27.73Z" style="fill:#532d11;"/><path d="M104.331,43.045l46.861,27.056l-11.562,6.676l-46.862,-27.056l11.563,-6.676Z" style="fill:#d6d6d6;fill-opacity:0.09;"/><path d="M139.279,67.331c1.964,1.192 1.016,2.442 2.415,3.583c1.105,0.901 2.343,1.753 3.409,2.512c0.05,0.035 0.148,0.105 0.148,0.105l-2.902,1.676c0,-0 -0.155,-0.06 -0.233,-0.091c-1.586,-0.615 -3.272,-1.32 -4.716,-1.843c-2.405,-0.871 -2.991,-0.183 -5.536,-1.616c0.037,0.022 0.076,0.045 0.115,0.068c3.492,2.015 3.946,1.224 7.014,2.468c0.867,0.351 1.81,0.756 2.776,1.177c0.057,0.024 0.17,0.073 0.17,0.073l3.543,-2.045c-0,0 -0.103,-0.071 -0.154,-0.106c-0.677,-0.468 -1.356,-0.95 -2.01,-1.441c-1.954,-1.467 -1.138,-2.846 -3.882,-4.431c-0.053,-0.031 -0.105,-0.06 -0.157,-0.089Zm-8.293,3.72c-0.857,-0.794 -0.496,-1.456 -1.583,-2.297c-3.501,-2.707 -7.456,-5.4 -5.961,-6.263c1.352,-0.781 5.942,1.777 10.071,3.406c1.854,0.732 3.032,0.251 4.773,0.939c-2.197,-0.951 -3.428,-0.501 -5.765,-1.512c-5.208,-2.251 -11.198,-5.618 -12.55,-4.837c-1.495,0.863 3.798,4.328 8.569,7.769c1.482,1.069 1.243,1.801 2.446,2.795Z" style="fill:#d6d6d6;fill-opacity:0.09;"/><path d="M140.625,69.806c0.01,0.402 -0.04,0.806 0.329,1.152c1.578,1.48 3.91,2.638 2.817,3.27c-0.957,0.552 -3.949,-0.773 -6.131,-1.423c-0.771,-0.23 -1.279,-0.195 -1.803,-0.234c0.616,0.092 1.193,0.097 2.146,0.431c1.538,0.541 4.967,1.858 4.967,1.858l1.859,-1.074c0,0 -2.305,-1.628 -3.495,-2.62c-0.518,-0.432 -0.569,-0.894 -0.689,-1.36Zm-6.58,2.146c-0.825,-0.555 -0.231,-1.088 -0.886,-1.658c-1.823,-1.586 -3.952,-3.134 -2.791,-3.804c1.051,-0.607 3.63,0.81 6.077,1.637c1.209,0.408 2.149,-0.112 3.322,0.454c-0.063,-0.043 -0.13,-0.086 -0.203,-0.128c-1.662,-0.959 -2.629,-0.349 -4.219,-0.961c-3.048,-1.174 -6.408,-3.042 -7.459,-2.435c-1.162,0.67 1.714,2.649 4.246,4.644c0.953,0.751 0.312,1.332 1.637,2.098c0.095,0.055 0.187,0.106 0.276,0.153Z" style="fill:#d6d6d6;fill-opacity:0.09;"/><path d="M107.853,49.886c1.044,0.919 2.088,1.833 4.584,3.274c6.678,3.856 6.569,2.906 11.948,5.568c5.374,2.659 12.663,6.525 17.187,8.597c-4.988,-2.589 -10.655,-5.613 -15.219,-7.956c-6.929,-3.557 -6.548,-2.449 -15.298,-7.501c-1.325,-0.765 -2.352,-1.409 -3.202,-1.982Zm-10.275,-2.942l-0.085,0.049c-0,0 15.3,10.586 19.825,13.464c-1.001,-0.786 -9.493,-7.158 -11.288,-8.274c-2.829,-1.76 -8.452,-5.239 -8.452,-5.239Z" style="fill:#d6d6d6;fill-opacity:0.09;"/><path d="M67.132,64.522l46.862,27.056l11.562,-6.676l-46.862,-27.055l-11.562,6.675Z" style="fill:#d6d6d6;fill-opacity:0.09;"/><path d="M109.195,84.7c2.065,1.133 4.23,0.586 6.206,1.394c1.561,0.638 3.037,1.353 4.351,1.968c0.061,0.029 0.183,0.086 0.183,0.086l2.902,-1.676c-0,0 -0.104,-0.089 -0.157,-0.134c-1.066,-0.916 -2.286,-1.889 -3.192,-2.723c-1.509,-1.389 -0.317,-1.727 -2.8,-3.197c0.039,0.022 0.078,0.044 0.118,0.067c3.491,2.016 2.12,2.278 4.275,4.049c0.609,0.501 1.31,1.045 2.038,1.603c0.042,0.033 0.128,0.098 0.128,0.098l-3.543,2.046c0,-0 -0.122,-0.06 -0.184,-0.089c-0.81,-0.391 -1.645,-0.783 -2.495,-1.161c-2.541,-1.128 -4.931,-0.656 -7.675,-2.241c-0.053,-0.03 -0.104,-0.06 -0.155,-0.09Zm6.443,-4.788c-1.374,-0.495 -2.521,-0.287 -3.977,-0.914c-4.689,-2.021 -9.354,-4.305 -10.849,-3.442c-1.353,0.781 3.079,3.431 5.901,5.815c1.266,1.07 0.433,1.75 1.626,2.755c-1.648,-1.268 -0.868,-1.979 -2.619,-3.328c-3.9,-3.007 -9.731,-6.465 -8.379,-7.246c1.495,-0.863 7.498,2.193 13.457,4.948c1.851,0.855 3.119,0.717 4.84,1.412Z" style="fill:#d6d6d6;fill-opacity:0.09;"/><path d="M113.483,85.477c0.696,0.006 1.396,-0.023 1.994,0.189c2.565,0.912 4.57,2.258 5.664,1.627c0.956,-0.552 -1.338,-2.28 -2.465,-3.54c-0.398,-0.445 -0.337,-0.738 -0.405,-1.041c0.16,0.356 0.168,0.689 0.748,1.239c0.936,0.888 3.217,2.868 3.217,2.868l-1.859,1.074c-0,-0 -2.82,-1.331 -4.539,-2.018c-0.749,-0.3 -1.549,-0.329 -2.355,-0.398Zm3.716,-3.799c-0.961,-0.477 -1.884,-0.133 -2.872,-0.512c-2.746,-1.052 -5.427,-2.282 -6.588,-1.611c-1.051,0.607 1.404,2.096 2.835,3.508c0.707,0.698 -0.193,1.241 0.786,1.919c-0.074,-0.037 -0.147,-0.076 -0.221,-0.118c-1.661,-0.959 -0.604,-1.517 -1.665,-2.435c-2.033,-1.761 -5.269,-3.7 -4.218,-4.307c1.162,-0.671 4.589,0.989 8.044,2.451c1.302,0.551 2.308,0.18 3.634,0.946c0.095,0.055 0.183,0.108 0.265,0.159Z" style="fill:#d6d6d6;fill-opacity:0.09;"/><path d="M78.981,66.556c1.591,0.602 3.174,1.205 5.67,2.647c6.678,3.855 5.033,3.792 9.643,6.898c4.606,3.102 11.302,7.311 14.892,9.922c-4.486,-2.879 -9.723,-6.151 -13.781,-8.786c-6.16,-4.001 -4.243,-3.781 -12.992,-8.832c-1.326,-0.766 -2.441,-1.359 -3.432,-1.849Zm-5.097,-5.932l0.086,-0.05c-0,0 18.335,8.834 23.32,11.446c-1.362,-0.578 -12.398,-5.48 -14.332,-6.516c-3.048,-1.634 -9.074,-4.88 -9.074,-4.88Z" style="fill:#d6d6d6;fill-opacity:0.09;"/><path d="M115.59,64.274l24.014,13.865l-11.563,6.675l-24.014,-13.864l11.563,-6.676Z" style="fill:#d6d6d6;fill-opacity:0.09;"/><path d="M130.718,80.564c-1.461,-0.755 -1.571,-0.694 -0.638,-0.003l0.446,0.273c0.622,0.383 0.337,0.208 0.961,0.59c0.39,0.238 0.78,0.476 1.171,0.713l0.272,-0.156c-0.09,-0.055 -0.526,-0.359 -2.212,-1.417Zm1.94,1.573l-5.677,-3.483c0.46,0.129 0.479,0.067 -0.244,-0.409c-1.841,-1.166 -1.489,-1.125 -1.351,-1.205c0.265,-0.152 8.479,4.405 8.479,4.405c-0,-0 -0.935,0.536 -0.935,0.536l0.004,0.002l0.931,-0.538l0.41,-0.236c0,0 -14.377,-8.001 -14.866,-7.718c-0.522,0.301 13.249,8.646 13.249,8.646Z" style="fill:#d6d6d6;fill-opacity:0.09;"/><path d="M125.398,78.565l0.017,0.278c0.48,0.304 1.246,0.773 1.73,1.079l1.164,0.737c0.538,0.341 1.075,0.682 1.611,1.023c0.508,0.399 1.502,1.186 1.502,1.186l0.142,-0.081c-0.089,-0.063 -0.872,-0.614 -1.378,-0.937l-0.266,-0.168c-0.786,-0.618 -1.649,-1.269 -2.853,-2.061c-0.143,-0.094 -0.291,-0.19 -0.444,-0.288c-0.199,-0.128 -0.406,-0.258 -0.623,-0.393c-0.1,-0.063 -0.501,-0.312 -0.602,-0.375Zm0.015,0.261l0,-0.251c-0.935,-0.582 -1.875,-1.164 -2.811,-1.744l-1.211,-0.75c-1.276,-0.79 -2.542,-1.574 -3.783,-2.343c-0.344,-0.214 -0.687,-0.427 -1.027,-0.638c-0.251,-0.156 -0.502,-0.312 -0.751,-0.467c-1.433,-0.973 -2.618,-1.823 -3.447,-2.499c-0.484,-0.395 -0.847,-0.731 -1.066,-0.998c-0.259,-0.314 -0.317,-0.532 -0.139,-0.635c0.125,-0.072 0.373,-0.058 0.728,0.03c0.242,0.06 0.534,0.155 0.87,0.28c0.104,0.039 -0.257,-0.228 -0.143,-0.355c0.095,-0.107 1.218,0.517 1.651,0.711c0.962,0.432 2.102,1.258 3.368,1.897c1.699,0.856 3.624,1.864 5.647,2.931c0.187,0.099 0.376,0.198 0.565,0.298c1.457,0.77 2.959,1.565 4.458,2.352c0.511,0.269 1.023,0.537 1.532,0.802c0.414,0.216 0.826,0.43 1.236,0.642c0.626,0.324 1.247,0.643 1.858,0.954c1.126,0.573 2.853,1.291 2.853,1.291l-0.456,0.265l-3.781,2.188l0.008,0.006l3.773,-2.194l1.621,-0.937c-0,-0 -4.539,-1.626 -8.529,-3.718c-5.397,-2.829 -11.389,-6.116 -16.444,-8.81c-0.238,-0.126 -0.706,-0.376 -0.706,-0.376l-2.499,1.443c-0,0 0.313,0.201 0.471,0.302c1.995,1.275 4.222,2.67 6.571,4.13c0.779,0.529 1.631,1.094 2.54,1.688c0.306,0.2 0.619,0.403 0.937,0.61l0.762,0.492c1.674,1.078 3.485,2.226 5.344,3.403Z" style="fill:#d6d6d6;fill-opacity:0.09;"/><path d="M91.541,50.389l22.743,13.131l-11.562,6.676l-22.744,-13.131l11.563,-6.676Z" style="fill:#d6d6d6;fill-opacity:0.09;"/><path d="M93.144,56.785c-1.708,-0.764 -2.621,-1.068 -0.134,0.59c0.611,0.289 0.37,0.148 1.477,0.787c2.855,1.648 3.286,2.344 5.553,3.734c3.125,1.917 8.33,5.039 8.33,5.039l-0.487,0.281c0,-0 -6.194,-3.326 -8.995,-4.817c-2.826,-1.504 -2.569,-1.102 -6.201,-3.198c-1.179,-0.681 -1.814,-1.115 -2.379,-1.519l-0.088,0l-0,-0.063c-0.583,-0.418 -1.116,-0.814 -2.136,-1.434c-1.073,-0.652 -3.21,-1.947 -3.21,-1.947l0.936,-0.54c0,-0 1.893,1.038 2.796,1.526c0.665,0.359 0.091,0.064 0.533,0.269c1.816,0.291 1.252,-0.089 -0.624,-1.005c-2.304,-1.126 -2.254,-1.011 -2.254,-1.011l-0.036,-0.019l-1.623,0.937c0,0 0.507,0.31 0.76,0.465c2.672,1.637 2.732,2.117 5.97,3.986c4.758,2.747 4.465,2.195 8.19,4.154c2.437,1.281 8.141,4.343 8.141,4.343l1.028,-0.594c0,0 -4.899,-2.937 -7.461,-4.523c-2.957,-1.83 -3.445,-2.786 -7.186,-4.945c-0.687,-0.397 -0.248,-0.153 -0.9,-0.496Z" style="fill:#d6d6d6;fill-opacity:0.09;"/><path d="M91.27,60.088l-0.01,0.55c1.333,0.729 2.834,1.475 3.681,1.853c2.279,1.019 3.443,1.208 6.979,2.957c1.456,0.721 4.699,2.369 4.699,2.369l0.118,0.061l0.285,-0.165l-0.119,-0.061c0,-0 -2.054,-1.068 -3.016,-1.562c-3.633,-1.865 -5.257,-2.448 -7.24,-3.308c-0.573,-0.249 -1.176,-0.52 -1.865,-0.853c-0.843,-0.406 -2.306,-1.185 -3.512,-1.841Zm-3.489,-7.506c0.064,0.018 1.584,0.461 3.707,1.342c0.741,0.308 1.555,0.67 2.407,1.085c0.763,0.373 1.556,0.789 2.353,1.249c0.32,0.184 0.621,0.364 0.905,0.539c4.378,2.696 4.746,4.299 8.552,6.764c1.288,0.834 3.9,2.478 3.9,2.478l0.152,0.095l-2.735,1.579l3.261,-1.882l-0.112,-0.069c0,-0 -1.617,-1.008 -2.419,-1.514c-5.386,-3.394 -6.007,-5.311 -12.886,-9.283c-2.607,-1.505 -5.924,-3.05 -5.924,-3.05l-1.161,0.667Zm0,-0l-0.002,-0.001l-0.743,0.43l-3.688,2.12c-0,0 1.234,0.933 2.039,1.476c1.044,0.919 2.088,1.833 4.585,3.274c0.459,0.265 0.886,0.508 1.285,0.73l-0,-0.515c-0.786,-0.433 -1.667,-0.93 -2.668,-1.507c-1.326,-0.766 -2.353,-1.41 -3.202,-1.982c-0.556,-0.49 -1.888,-1.554 -1.888,-1.554l3.537,-2.042l0.745,-0.429Z" style="fill:#d6d6d6;fill-opacity:0.09;"/><path d="M89.866,79.166l24.014,13.865l-11.563,6.676l-24.014,-13.865l11.563,-6.676Z" style="fill:#d6d6d6;fill-opacity:0.09;"/><path d="M106.934,97.029l1.617,-0.928c0,0 -1.086,-0.604 -2.671,-1.475c-0.379,-0.208 -0.786,-0.431 -1.213,-0.665c-2.328,-1.272 -5.262,-2.858 -7.514,-4.014c-0.508,-0.261 -0.981,-0.5 -1.405,-0.709c-1.164,-0.574 9.41,5.185 8.952,5.798c-0.32,0.427 -10.029,-5.74 -8.356,-4.635c0.258,0.171 0.528,0.348 0.809,0.53c0.112,0.072 0.225,0.146 0.34,0.22c0.216,0.14 0.438,0.282 0.663,0.426c0.228,0.147 0.461,0.295 0.696,0.444c3.721,2.365 8.082,5.008 8.082,5.008Zm0.276,-0.153l0.931,-0.539c-0,-0 -2.292,-1.138 -2.556,-0.985c-0.287,0.166 1.625,1.524 1.625,1.524Z" style="fill:#d6d6d6;fill-opacity:0.09;"/><path d="M102.745,95.477l-0.048,-0.034l-0,0.179c0.321,0.204 0.697,0.442 1.018,0.646c0.11,0.07 0.221,0.14 0.331,0.21c0.03,0.019 0.06,0.038 0.09,0.058c0,-0 0.06,0.038 0.06,0.038c0.004,0.003 0.008,0.006 0.012,0.009c0.008,0.007 0.016,0.013 0.025,0.019c0.021,0.017 0.042,0.034 0.064,0.051c0.065,0.052 0.131,0.103 0.197,0.155c0.195,0.154 0.39,0.308 0.585,0.462c0.152,0.121 0.304,0.241 0.456,0.361c0.04,0.032 0.08,0.064 0.12,0.095c0.01,0.009 0.021,0.017 0.032,0.026c0.004,0.003 0.007,0.011 0.011,0.009c0.049,-0.024 0.096,-0.053 0.142,-0.082c0.001,-0.001 -0.003,-0.002 -0.005,-0.003l-0.033,-0.024c-0.026,-0.018 -0.053,-0.037 -0.079,-0.055c-0.079,-0.055 -0.157,-0.11 -0.236,-0.165c-0.123,-0.085 -0.246,-0.17 -0.37,-0.254c-0.111,-0.076 -0.222,-0.151 -0.334,-0.226c-0.048,-0.031 -0.095,-0.063 -0.143,-0.094c-0.043,-0.028 -0.087,-0.057 -0.13,-0.084c-0.016,-0.011 -0.032,-0.021 -0.048,-0.031c-0.089,-0.057 -0.177,-0.113 -0.266,-0.169c-0.002,-0.002 -0.004,-0.003 -0.006,-0.005l-0.047,-0.037c-0.035,-0.028 -0.071,-0.055 -0.106,-0.083c-0.107,-0.083 -0.214,-0.166 -0.321,-0.249c-0.172,-0.131 -0.344,-0.262 -0.518,-0.391c-0.097,-0.072 -0.194,-0.143 -0.292,-0.215c-0.053,-0.039 -0.107,-0.078 -0.161,-0.117Zm-4.448,-6.982l-7.533,-4.056l-4.495,-2.413c-0.237,-0.126 -0.706,-0.375 -0.706,-0.375l-2.499,1.442c-0,0 0.313,0.201 0.471,0.302c1.995,1.275 4.223,2.67 6.571,4.13c3.667,2.49 8.965,5.789 14.09,9.049l-1.499,-0.952l-0,-0.179l1.499,1.131c-1.001,-0.787 -2.125,-1.626 -3.919,-2.742c-3.426,-2.131 -6.915,-4.282 -10.171,-6.307c-3.264,-2.216 -5.239,-3.793 -4.652,-4.132c0.131,-0.075 0.397,-0.056 0.78,0.043c0.129,0.034 0.271,0.077 0.426,0.128c0.213,0.071 0.45,0.159 0.709,0.261c0.584,0.232 1.28,0.54 2.065,0.91c0.067,0.031 0.134,0.062 0.201,0.094c0.351,0.167 1.1,0.533 1.1,0.533l0.029,0.017c1.52,0.94 1.979,1.883 1.878,2.066c-0.172,0.312 -2.622,-0.435 -3.548,-1.009c0.243,0.262 3.131,2.041 4.36,1.477c0.502,-0.23 -1.243,-1.804 -1.837,-2.126l0,0l-0.041,-0.021l2.2,1.134c4.056,2.095 8.996,4.77 13.449,7.035c1.125,0.573 2.852,1.291 2.852,1.291l-0.456,0.266l-3.781,2.187l0.008,0.006l3.773,-2.193l1.621,-0.938c-0,0 -4.539,-1.626 -8.528,-3.717c-1.106,-0.58 -2.237,-1.179 -3.38,-1.788l-1.037,-0.554Z" style="fill:#d6d6d6;fill-opacity:0.09;"/><path d="M65.817,65.281l22.743,13.132l-11.562,6.675l-22.744,-13.131l11.563,-6.676Z" style="fill:#d6d6d6;fill-opacity:0.09;"/><path d="M68.926,76.758l-0,0.487l-4.678,-2.472c6.678,3.856 6.569,2.906 11.948,5.568c1.457,0.721 4.699,2.369 4.699,2.369l0.118,0.06l0.285,-0.164l-0.118,-0.062c-0,-0 -2.055,-1.068 -3.017,-1.562c-4.554,-2.337 -5.95,-2.66 -8.856,-4.041c-0.095,-0.046 -0.282,-0.135 -0.381,-0.183Zm-6.868,-9.284c0.063,0.019 1.583,0.461 3.706,1.343c1.405,0.583 3.074,1.36 4.76,2.333c0.312,0.18 0.606,0.355 0.883,0.526c4.399,2.704 4.762,4.308 8.574,6.777c1.288,0.834 3.9,2.478 3.9,2.478l0.152,0.095l-2.735,1.58l3.261,-1.883l-0.112,-0.069c0,-0 -1.617,-1.008 -2.419,-1.513c-4.726,-2.979 -5.783,-4.82 -10.621,-7.911c-0.675,-0.431 -1.423,-0.886 -2.265,-1.373c-2.607,-1.505 -5.924,-3.05 -5.924,-3.05l-1.16,0.667Zm-0.746,0.429l-3.688,2.121c0,-0 1.234,0.933 2.039,1.475c1.044,0.919 2.088,1.833 4.585,3.274c6.678,3.856 6.569,2.906 11.948,5.568l-7.27,-3.09l-0,-0.493c-0.537,-0.261 -1.126,-0.558 -1.794,-0.909c-0.212,-0.111 -0.431,-0.227 -0.659,-0.35c-0.141,-0.075 -0.286,-0.153 -0.434,-0.234c-0.91,-0.494 -1.953,-1.079 -3.173,-1.784c-1.326,-0.766 -2.354,-1.41 -3.203,-1.982c-0.556,-0.49 -1.887,-1.554 -1.887,-1.554l3.536,-2.042l0.746,-0.429c-0.002,-0 -0.002,-0 -0.002,-0l-0.744,0.429Z" style="fill:#d6d6d6;fill-opacity:0.09;"/><path d="M66.934,71.398l-0,0.74l1.778,0.887l0.051,0.029c0.55,0.318 1.011,0.6 1.412,0.859c0.479,0.309 0.872,0.585 1.233,0.847c0.267,0.193 0.322,0.392 0.237,0.562c-0.044,0.089 -0.127,0.171 -0.238,0.238c-0.089,0.055 -0.196,0.101 -0.316,0.135c-0.411,0.12 -0.972,0.108 -1.468,-0.142c-0.263,-0.133 -0.559,-0.287 -0.91,-0.477l-0.773,-0.427c-0.163,-0.091 -0.337,-0.189 -0.521,-0.295c-0.145,-0.082 -0.296,-0.169 -0.455,-0.261c-2.472,-1.427 -2.556,-1.771 -4.603,-3.016c-1.074,-0.652 -3.211,-1.947 -3.211,-1.947l0.936,-0.54c0,-0 1.491,0.818 2.458,1.343l0.339,0.184l0.199,0.099l0.174,0.091c0.01,0.006 0.027,0.001 0.037,0.006c0.034,0.018 0.059,0.046 0.091,0.062c0.047,0.026 0.092,0.049 0.134,0.072c0.723,0.381 0.821,0.402 1.206,0.588l2.21,1.103l-0,-0.74c-1.407,-0.762 -2.721,-1.403 -3.788,-1.896l-0.389,-0.178c-1.353,-0.615 -2.22,-0.955 -2.22,-0.955l-0.036,-0.019l-1.623,0.937c0,0 0.507,0.31 0.76,0.465c2.382,1.459 2.688,1.999 5.021,3.424c0.284,0.173 0.598,0.36 0.949,0.562c0.271,0.157 0.525,0.302 0.764,0.438c3.974,2.255 3.064,1.378 6.577,3.226c2.437,1.281 2.872,0.84 0.31,-0.746c-1.368,-0.847 0.039,-1.045 -0.84,-1.723c-1.019,-0.788 -2.09,-1.6 -4.099,-2.76c-0.314,-0.182 -1.078,-0.605 -1.386,-0.775Zm1.779,1.627l-0.061,-0.035l0.061,0.035Zm-0.061,-0.035c0,0 0,0 0,0Z" style="fill:#d6d6d6;fill-opacity:0.09;"/><path d="M52.921,72.742l-51.556,29.766l48.029,27.729l51.556,-29.765l-48.029,-27.73Z" style="fill:#532d11;"/><path d="M52.921,72.742l46.862,27.056l-11.563,6.676l-46.861,-27.056l11.562,-6.676Z" style="fill:#d6d6d6;fill-opacity:0.09;"/><path d="M87.869,97.028c1.964,1.192 1.016,2.442 2.415,3.583c1.106,0.901 2.343,1.753 3.41,2.512c0.049,0.035 0.148,0.105 0.148,0.105l-2.902,1.676c-0,-0 -0.155,-0.06 -0.234,-0.091c-1.586,-0.615 -3.271,-1.32 -4.715,-1.843c-2.406,-0.871 -2.992,-0.183 -5.537,-1.616c0.038,0.022 0.076,0.045 0.116,0.068c3.491,2.016 3.945,1.224 7.013,2.468c0.867,0.351 1.81,0.756 2.777,1.177c0.056,0.024 0.17,0.074 0.17,0.074l3.542,-2.046c0,0 -0.102,-0.07 -0.154,-0.106c-0.676,-0.468 -1.356,-0.95 -2.01,-1.441c-1.954,-1.467 -1.137,-2.846 -3.882,-4.431c-0.052,-0.03 -0.105,-0.06 -0.157,-0.089Zm-8.292,3.72c-0.857,-0.794 -0.496,-1.456 -1.583,-2.297c-3.501,-2.707 -7.457,-5.4 -5.962,-6.263c1.352,-0.781 5.943,1.777 10.072,3.407c1.854,0.731 3.031,0.25 4.772,0.938c-2.196,-0.951 -3.427,-0.501 -5.765,-1.512c-5.207,-2.251 -11.197,-5.618 -12.549,-4.837c-1.495,0.863 3.798,4.329 8.569,7.769c1.482,1.069 1.242,1.801 2.446,2.795Z" style="fill:#d6d6d6;fill-opacity:0.09;"/><path d="M89.215,99.503c0.011,0.402 -0.039,0.806 0.329,1.152c1.578,1.48 3.911,2.638 2.817,3.27c-0.956,0.552 -3.948,-0.773 -6.131,-1.423c-0.771,-0.23 -1.279,-0.195 -1.803,-0.234c0.616,0.092 1.193,0.097 2.146,0.432c1.538,0.54 4.967,1.857 4.967,1.857l1.86,-1.074c0,0 -2.305,-1.628 -3.495,-2.62c-0.519,-0.432 -0.569,-0.894 -0.69,-1.36Zm-6.58,2.146c-0.825,-0.555 -0.23,-1.088 -0.885,-1.658c-1.824,-1.586 -3.953,-3.134 -2.791,-3.804c1.051,-0.607 3.63,0.811 6.077,1.637c1.208,0.408 2.149,-0.112 3.322,0.454c-0.063,-0.043 -0.131,-0.085 -0.204,-0.128c-1.661,-0.959 -2.628,-0.349 -4.218,-0.961c-3.049,-1.174 -6.409,-3.042 -7.459,-2.435c-1.162,0.67 1.713,2.649 4.245,4.644c0.954,0.751 0.312,1.332 1.638,2.098c0.095,0.055 0.187,0.106 0.275,0.153Z" style="fill:#d6d6d6;fill-opacity:0.09;"/><path d="M56.444,79.583c1.043,0.919 2.088,1.833 4.584,3.274c6.678,3.856 6.569,2.906 11.948,5.568c5.373,2.659 12.663,6.525 17.187,8.597c-4.988,-2.589 -10.656,-5.613 -15.22,-7.956c-6.929,-3.557 -6.548,-2.449 -15.297,-7.501c-1.326,-0.765 -2.353,-1.409 -3.202,-1.982Zm-10.275,-2.942l-0.086,0.049c0,0 15.301,10.587 19.825,13.464c-1.001,-0.786 -9.493,-7.158 -11.287,-8.274c-2.83,-1.76 -8.452,-5.239 -8.452,-5.239Z" style="fill:#d6d6d6;fill-opacity:0.09;"/><path d="M15.722,94.219l46.862,27.056l11.563,-6.676l-46.862,-27.055l-11.563,6.675Z" style="fill:#d6d6d6;fill-opacity:0.09;"/><path d="M57.786,114.397c2.065,1.134 4.229,0.586 6.205,1.394c1.562,0.638 3.037,1.353 4.352,1.968c0.061,0.029 0.182,0.086 0.182,0.086l2.902,-1.676c0,0 -0.104,-0.089 -0.156,-0.134c-1.067,-0.916 -2.287,-1.889 -3.192,-2.723c-1.509,-1.389 -0.318,-1.727 -2.8,-3.197c0.039,0.022 0.078,0.044 0.117,0.067c3.492,2.016 2.12,2.278 4.275,4.049c0.609,0.501 1.31,1.045 2.038,1.603c0.043,0.033 0.128,0.099 0.128,0.099l-3.542,2.045c-0,-0 -0.123,-0.06 -0.184,-0.089c-0.81,-0.391 -1.645,-0.783 -2.495,-1.16c-2.541,-1.129 -4.931,-0.657 -7.676,-2.242c-0.053,-0.03 -0.104,-0.06 -0.154,-0.09Zm6.443,-4.788c-1.375,-0.495 -2.521,-0.286 -3.978,-0.914c-4.689,-2.021 -9.354,-4.305 -10.849,-3.442c-1.352,0.781 3.079,3.431 5.901,5.815c1.267,1.07 0.434,1.75 1.626,2.755c-1.647,-1.268 -0.867,-1.979 -2.618,-3.328c-3.9,-3.007 -9.731,-6.465 -8.379,-7.246c1.495,-0.863 7.497,2.193 13.457,4.948c1.851,0.855 3.119,0.717 4.84,1.412Z" style="fill:#d6d6d6;fill-opacity:0.09;"/><path d="M62.073,115.174c0.697,0.006 1.396,-0.023 1.995,0.19c2.564,0.911 4.57,2.257 5.664,1.626c0.956,-0.552 -1.339,-2.28 -2.465,-3.54c-0.398,-0.445 -0.337,-0.738 -0.406,-1.041c0.161,0.356 0.169,0.689 0.748,1.239c0.936,0.888 3.218,2.868 3.218,2.868l-1.86,1.074c0,-0 -2.82,-1.331 -4.539,-2.018c-0.748,-0.3 -1.548,-0.329 -2.355,-0.398Zm3.717,-3.799c-0.962,-0.477 -1.885,-0.133 -2.872,-0.512c-2.747,-1.052 -5.427,-2.282 -6.589,-1.611c-1.051,0.607 1.404,2.096 2.836,3.508c0.706,0.698 -0.194,1.241 0.785,1.919c-0.073,-0.037 -0.147,-0.076 -0.22,-0.118c-1.661,-0.959 -0.605,-1.517 -1.665,-2.435c-2.033,-1.761 -5.269,-3.7 -4.218,-4.307c1.161,-0.671 4.588,0.989 8.044,2.451c1.301,0.551 2.308,0.18 3.633,0.946c0.096,0.055 0.184,0.108 0.266,0.159Z" style="fill:#d6d6d6;fill-opacity:0.09;"/><path d="M27.571,96.253c1.592,0.602 3.175,1.205 5.671,2.647c6.678,3.855 5.032,3.792 9.643,6.898c4.605,3.102 11.302,7.311 14.891,9.923c-4.485,-2.88 -9.722,-6.152 -13.78,-8.787c-6.161,-4.001 -4.243,-3.781 -12.993,-8.832c-1.325,-0.766 -2.44,-1.358 -3.432,-1.849Zm-5.096,-5.932l0.085,-0.05c0,0 18.336,8.834 23.32,11.446c-1.362,-0.578 -12.398,-5.48 -14.331,-6.516c-3.048,-1.634 -9.074,-4.88 -9.074,-4.88Z" style="fill:#d6d6d6;fill-opacity:0.09;"/><path d="M64.18,93.971l24.015,13.865l-11.563,6.675l-24.014,-13.864l11.562,-6.676Z" style="fill:#d6d6d6;fill-opacity:0.09;"/><path d="M79.309,110.261c-1.461,-0.755 -1.571,-0.693 -0.638,-0.003l0.445,0.273c0.623,0.383 0.338,0.208 0.962,0.59c0.39,0.238 0.78,0.476 1.171,0.713l0.272,-0.156c-0.09,-0.055 -0.526,-0.359 -2.212,-1.417Zm1.94,1.573l-5.677,-3.482c0.46,0.128 0.478,0.066 -0.244,-0.41c-1.841,-1.166 -1.489,-1.125 -1.351,-1.205c0.264,-0.152 8.478,4.405 8.478,4.405c0,-0 -0.934,0.536 -0.934,0.536l0.004,0.002l0.93,-0.538l0.411,-0.236c-0,0 -14.378,-8.001 -14.867,-7.718c-0.521,0.301 13.25,8.646 13.25,8.646Z" style="fill:#d6d6d6;fill-opacity:0.09;"/><path d="M73.989,108.262l0.017,0.278c0.48,0.304 1.246,0.773 1.73,1.079l1.164,0.737c0.537,0.341 1.075,0.682 1.61,1.023c0.509,0.399 1.503,1.187 1.503,1.187l0.141,-0.082c-0.089,-0.063 -0.872,-0.614 -1.378,-0.936l-0.266,-0.169c-0.786,-0.618 -1.648,-1.269 -2.852,-2.061c-0.143,-0.094 -0.291,-0.19 -0.445,-0.288c-0.198,-0.128 -0.405,-0.258 -0.622,-0.393c-0.1,-0.063 -0.502,-0.312 -0.602,-0.375Zm0.015,0.261l-0,-0.251c-0.936,-0.582 -1.875,-1.164 -2.812,-1.744l-1.211,-0.75c-1.275,-0.79 -2.541,-1.574 -3.782,-2.343c-0.345,-0.214 -0.687,-0.427 -1.027,-0.638c-0.252,-0.156 -0.502,-0.312 -0.751,-0.467c-1.434,-0.973 -2.619,-1.823 -3.447,-2.499c-0.485,-0.395 -0.847,-0.731 -1.067,-0.997c-0.259,-0.315 -0.317,-0.533 -0.138,-0.636c0.124,-0.072 0.372,-0.058 0.727,0.03c0.242,0.06 0.534,0.155 0.871,0.28c0.103,0.039 -0.258,-0.228 -0.144,-0.355c0.095,-0.107 1.219,0.517 1.652,0.711c0.961,0.432 2.102,1.258 3.368,1.897c1.698,0.856 3.623,1.864 5.646,2.931c0.188,0.099 0.376,0.198 0.566,0.298c1.457,0.77 2.958,1.565 4.457,2.352c0.512,0.269 1.023,0.537 1.532,0.802c0.414,0.216 0.826,0.43 1.236,0.642c0.627,0.324 1.247,0.643 1.859,0.954c1.125,0.573 2.853,1.291 2.853,1.291l-0.456,0.265l-3.782,2.188l0.009,0.006l3.773,-2.194l1.62,-0.937c0,-0 -4.538,-1.626 -8.528,-3.718c-5.398,-2.829 -11.389,-6.116 -16.445,-8.81c-0.237,-0.126 -0.706,-0.376 -0.706,-0.376l-2.499,1.443c0,0 0.313,0.201 0.472,0.302c1.995,1.275 4.222,2.67 6.571,4.13c0.779,0.529 1.631,1.094 2.54,1.688c0.306,0.2 0.618,0.403 0.937,0.61l0.762,0.492c1.674,1.078 3.485,2.226 5.344,3.403Z" style="fill:#d6d6d6;fill-opacity:0.09;"/><path d="M40.131,80.086l22.744,13.131l-11.563,6.676l-22.744,-13.131l11.563,-6.676Z" style="fill:#d6d6d6;fill-opacity:0.09;"/><path d="M41.735,86.482c-1.708,-0.764 -2.621,-1.068 -0.135,0.59c0.612,0.289 0.371,0.148 1.477,0.787c2.855,1.648 3.286,2.344 5.553,3.734c3.126,1.917 8.331,5.039 8.331,5.039l-0.487,0.281c-0,0 -6.194,-3.326 -8.995,-4.817c-2.826,-1.504 -2.57,-1.102 -6.201,-3.198c-1.179,-0.681 -1.815,-1.115 -2.379,-1.519l-0.089,0l0,-0.063c-0.583,-0.418 -1.116,-0.814 -2.135,-1.434c-1.073,-0.652 -3.211,-1.947 -3.211,-1.947l0.937,-0.54c-0,-0 1.892,1.038 2.796,1.526c0.664,0.359 0.091,0.064 0.532,0.269c1.816,0.291 1.253,-0.089 -0.623,-1.005c-2.305,-1.126 -2.254,-1.011 -2.254,-1.011l-0.036,-0.019l-1.623,0.937c-0,0 0.507,0.31 0.759,0.465c2.673,1.637 2.733,2.117 5.971,3.986c4.758,2.747 4.465,2.195 8.19,4.154c2.436,1.281 8.14,4.343 8.14,4.343l1.029,-0.593c-0,-0 -4.9,-2.938 -7.462,-4.524c-2.956,-1.83 -3.445,-2.786 -7.185,-4.945c-0.687,-0.397 -0.249,-0.153 -0.9,-0.496Z" style="fill:#d6d6d6;fill-opacity:0.09;"/><path d="M39.861,89.785l-0.01,0.55c1.333,0.73 2.834,1.475 3.68,1.853c2.279,1.019 3.444,1.208 6.979,2.957c1.457,0.721 4.7,2.37 4.7,2.37l0.118,0.06l0.284,-0.165l-0.118,-0.061c0,-0 -2.054,-1.068 -3.016,-1.562c-3.634,-1.865 -5.257,-2.448 -7.241,-3.308c-0.572,-0.249 -1.175,-0.52 -1.865,-0.853c-0.842,-0.406 -2.306,-1.185 -3.511,-1.841Zm-3.489,-7.506c0.064,0.018 1.584,0.461 3.706,1.342c0.741,0.308 1.556,0.67 2.407,1.085c0.764,0.373 1.557,0.789 2.354,1.249c0.319,0.184 0.62,0.364 0.904,0.539c4.379,2.696 4.747,4.299 8.552,6.764c1.288,0.834 3.901,2.478 3.901,2.478l0.152,0.095l-2.736,1.579l3.261,-1.882l-0.111,-0.069c-0,-0 -1.618,-1.008 -2.42,-1.514c-5.385,-3.394 -6.007,-5.311 -12.886,-9.283c-2.606,-1.505 -5.923,-3.05 -5.923,-3.05l-1.161,0.667Zm0,0l-0.002,-0.001l-0.744,0.43l-3.687,2.12c-0,0 1.234,0.933 2.039,1.476c1.043,0.919 2.088,1.833 4.584,3.274c0.459,0.265 0.886,0.508 1.286,0.73l-0,-0.515c-0.786,-0.433 -1.668,-0.93 -2.668,-1.507c-1.326,-0.766 -2.353,-1.41 -3.202,-1.982c-0.557,-0.49 -1.888,-1.554 -1.888,-1.554l3.536,-2.042l0.746,-0.429Z" style="fill:#d6d6d6;fill-opacity:0.09;"/><path d="M38.457,108.863l24.014,13.865l-11.563,6.676l-24.014,-13.865l11.563,-6.676Z" style="fill:#d6d6d6;fill-opacity:0.09;"/><path d="M55.525,126.726l1.617,-0.928c-0,0 -1.086,-0.604 -2.671,-1.475c-0.379,-0.208 -0.786,-0.431 -1.214,-0.665c-2.327,-1.272 -5.262,-2.858 -7.514,-4.014c-0.507,-0.261 -0.98,-0.5 -1.404,-0.709c-1.165,-0.573 9.41,5.185 8.952,5.798c-0.32,0.427 -10.03,-5.74 -8.357,-4.635c0.258,0.171 0.529,0.348 0.809,0.53c0.112,0.072 0.225,0.146 0.34,0.22c0.217,0.14 0.438,0.282 0.663,0.426c0.229,0.147 0.462,0.295 0.697,0.444c3.721,2.365 8.082,5.008 8.082,5.008Zm0.276,-0.153l0.931,-0.539c-0,-0 -2.292,-1.138 -2.556,-0.985c-0.288,0.166 1.625,1.524 1.625,1.524Z" style="fill:#d6d6d6;fill-opacity:0.09;"/><path d="M51.335,125.174l-0.048,-0.034l0,0.179c0.322,0.204 0.698,0.442 1.019,0.646c0.11,0.07 0.22,0.14 0.33,0.21c0.03,0.019 0.061,0.039 0.091,0.058c-0,-0 0.06,0.038 0.06,0.038c0.004,0.003 0.008,0.006 0.012,0.009c0.008,0.007 0.016,0.013 0.024,0.02c0.022,0.016 0.043,0.033 0.064,0.05c0.066,0.052 0.132,0.103 0.197,0.155c0.195,0.154 0.39,0.308 0.585,0.462c0.152,0.121 0.305,0.241 0.457,0.362c0.04,0.031 0.079,0.063 0.119,0.094c0.011,0.009 0.022,0.017 0.033,0.026c0.003,0.003 0.007,0.011 0.011,0.009c0.049,-0.024 0.095,-0.053 0.141,-0.082c0.002,-0.001 -0.003,-0.002 -0.004,-0.003l-0.033,-0.024c-0.027,-0.018 -0.053,-0.037 -0.079,-0.055c-0.079,-0.055 -0.158,-0.11 -0.236,-0.165c-0.123,-0.085 -0.247,-0.17 -0.37,-0.254c-0.111,-0.076 -0.223,-0.151 -0.335,-0.226c-0.047,-0.031 -0.095,-0.063 -0.143,-0.094c-0.043,-0.028 -0.086,-0.056 -0.129,-0.084c-0.016,-0.011 -0.032,-0.021 -0.049,-0.031c-0.088,-0.057 -0.177,-0.113 -0.265,-0.169c-0.002,-0.002 -0.004,-0.003 -0.006,-0.005l-0.047,-0.037c-0.036,-0.028 -0.071,-0.055 -0.107,-0.083c-0.106,-0.083 -0.213,-0.166 -0.321,-0.249c-0.171,-0.131 -0.344,-0.262 -0.517,-0.391c-0.097,-0.072 -0.194,-0.143 -0.292,-0.215c-0.054,-0.039 -0.108,-0.078 -0.162,-0.117Zm-4.447,-6.982l-7.533,-4.056l-4.495,-2.413c-0.238,-0.126 -0.707,-0.375 -0.707,-0.375l-2.499,1.443c0,-0 0.313,0.2 0.472,0.301c1.995,1.275 4.222,2.67 6.571,4.131c3.667,2.489 8.964,5.788 14.09,9.048l-1.5,-0.952l0,-0.179l1.5,1.131c-1.001,-0.787 -2.125,-1.626 -3.92,-2.742c-3.425,-2.131 -6.915,-4.282 -10.17,-6.306c-3.265,-2.217 -5.239,-3.794 -4.652,-4.133c0.131,-0.075 0.397,-0.056 0.779,0.043c0.129,0.034 0.271,0.077 0.426,0.128c0.213,0.071 0.45,0.159 0.709,0.261c0.584,0.232 1.28,0.54 2.066,0.91c0.066,0.031 0.133,0.062 0.201,0.095c0.35,0.166 1.1,0.532 1.1,0.532l0.029,0.017c1.519,0.94 1.979,1.883 1.878,2.066c-0.173,0.313 -2.622,-0.435 -3.548,-1.009c0.242,0.262 3.13,2.041 4.36,1.478c0.502,-0.231 -1.244,-1.805 -1.837,-2.127l-0,0l-0.042,-0.021l2.2,1.134c4.057,2.095 8.997,4.771 13.449,7.035c1.126,0.573 2.853,1.291 2.853,1.291l-0.456,0.266l-3.782,2.187l0.009,0.006l3.773,-2.193l1.62,-0.938c0,0 -4.538,-1.626 -8.528,-3.717c-1.106,-0.58 -2.237,-1.179 -3.38,-1.788l-1.036,-0.554Z" style="fill:#d6d6d6;fill-opacity:0.09;"/><path d="M14.407,94.978l22.744,13.132l-11.563,6.675l-22.743,-13.131l11.562,-6.676Z" style="fill:#d6d6d6;fill-opacity:0.09;"/><path d="M17.517,106.455l-0,0.487l-4.679,-2.471c6.678,3.855 6.569,2.905 11.948,5.567c1.457,0.721 4.7,2.369 4.7,2.369l0.118,0.06l0.284,-0.164l-0.118,-0.062c0,-0 -2.054,-1.068 -3.016,-1.562c-4.554,-2.337 -5.95,-2.66 -8.857,-4.041c-0.095,-0.046 -0.282,-0.135 -0.38,-0.183Zm-6.869,-9.284c0.064,0.019 1.584,0.461 3.706,1.343c1.406,0.583 3.075,1.36 4.761,2.333c0.311,0.18 0.605,0.355 0.883,0.526c4.399,2.704 4.762,4.308 8.573,6.777c1.289,0.834 3.901,2.478 3.901,2.478l0.152,0.095l-2.736,1.58l3.261,-1.883l-0.111,-0.069c0,-0 -1.617,-1.008 -2.419,-1.513c-4.727,-2.979 -5.784,-4.82 -10.621,-7.911c-0.675,-0.431 -1.423,-0.886 -2.265,-1.373c-2.607,-1.505 -5.924,-3.05 -5.924,-3.05l-1.161,0.667Zm-0.746,0.429l-3.687,2.121c-0,-0 1.234,0.933 2.039,1.475c1.043,0.919 2.088,1.833 4.584,3.275c6.678,3.855 6.569,2.905 11.948,5.567l-7.269,-3.09l-0,-0.493c-0.537,-0.26 -1.127,-0.558 -1.795,-0.909c-0.211,-0.111 -0.43,-0.227 -0.658,-0.35c-0.142,-0.075 -0.286,-0.153 -0.434,-0.234c-0.91,-0.494 -1.953,-1.079 -3.174,-1.784c-1.326,-0.766 -2.353,-1.41 -3.202,-1.982c-0.557,-0.49 -1.888,-1.554 -1.888,-1.554l3.536,-2.042l0.746,-0.429c-0.001,-0 -0.002,-0 -0.002,-0l-0.744,0.429Z" style="fill:#d6d6d6;fill-opacity:0.09;"/><path d="M15.524,101.095l0,0.74l1.779,0.887l0.051,0.029c0.55,0.318 1.01,0.6 1.411,0.859c0.479,0.309 0.873,0.585 1.234,0.847c0.266,0.193 0.322,0.393 0.237,0.562c-0.044,0.09 -0.127,0.171 -0.238,0.238c-0.089,0.055 -0.196,0.101 -0.316,0.135c-0.411,0.12 -0.973,0.108 -1.468,-0.142c-0.263,-0.133 -0.559,-0.287 -0.911,-0.477l-0.772,-0.427c-0.164,-0.091 -0.337,-0.189 -0.522,-0.295c-0.144,-0.082 -0.296,-0.169 -0.455,-0.261c-2.471,-1.427 -2.555,-1.771 -4.603,-3.016c-1.073,-0.652 -3.211,-1.946 -3.211,-1.946l0.937,-0.541c-0,-0 1.49,0.818 2.457,1.343l0.339,0.184l0.199,0.099l0.175,0.091c0.01,0.006 0.027,0.001 0.036,0.006c0.034,0.018 0.06,0.046 0.091,0.063c0.048,0.025 0.092,0.048 0.135,0.071c0.722,0.381 0.82,0.402 1.206,0.588l2.209,1.103l0,-0.74c-1.407,-0.762 -2.721,-1.403 -3.788,-1.896l-0.389,-0.178c-1.352,-0.615 -2.219,-0.955 -2.219,-0.955l-0.036,-0.019l-1.623,0.937c-0,0 0.507,0.31 0.76,0.465c2.382,1.46 2.688,1.999 5.021,3.424c0.284,0.173 0.598,0.36 0.949,0.563c0.27,0.156 0.524,0.301 0.764,0.437c3.974,2.255 3.064,1.378 6.577,3.226c2.437,1.281 2.872,0.84 0.31,-0.746c-1.369,-0.847 0.038,-1.045 -0.84,-1.723c-1.019,-0.787 -2.09,-1.6 -4.099,-2.76c-0.314,-0.181 -1.078,-0.605 -1.387,-0.775Zm1.779,1.627l-0.06,-0.035l0.06,0.035Zm-0.06,-0.035c-0,0 -0,0 -0,0Z" style="fill:#d6d6d6;fill-opacity:0.09;"/><path d="M150.606,69.763l-51.556,29.765l48.029,27.73l51.556,-29.766l-48.029,-27.729Z" style="fill:#532d11;"/><path d="M150.606,69.763l46.862,27.055l-11.562,6.676l-46.862,-27.056l11.562,-6.675Z" style="fill:#d6d6d6;fill-opacity:0.09;"/><path d="M185.555,94.048c1.964,1.192 1.015,2.442 2.414,3.583c1.106,0.901 2.343,1.753 3.41,2.512c0.05,0.036 0.148,0.106 0.148,0.106l-2.902,1.675c0,-0 -0.155,-0.06 -0.233,-0.09c-1.586,-0.616 -3.272,-1.32 -4.716,-1.843c-2.406,-0.872 -2.992,-0.184 -5.537,-1.617c0.038,0.023 0.077,0.045 0.116,0.068c3.491,2.016 3.946,1.224 7.013,2.468c0.868,0.352 1.81,0.757 2.777,1.177c0.057,0.024 0.17,0.074 0.17,0.074l3.542,-2.045c0,-0 -0.102,-0.071 -0.154,-0.107c-0.676,-0.467 -1.356,-0.95 -2.009,-1.44c-1.955,-1.467 -1.138,-2.847 -3.883,-4.432c-0.052,-0.03 -0.105,-0.06 -0.156,-0.089Zm-8.293,3.72c-0.857,-0.794 -0.496,-1.456 -1.583,-2.296c-3.501,-2.708 -7.457,-5.401 -5.962,-6.264c1.353,-0.781 5.943,1.778 10.072,3.407c1.854,0.731 3.031,0.25 4.772,0.939c-2.196,-0.952 -3.427,-0.501 -5.765,-1.512c-5.207,-2.252 -11.197,-5.619 -12.549,-4.838c-1.495,0.863 3.798,4.329 8.569,7.77c1.482,1.068 1.243,1.8 2.446,2.794Z" style="fill:#d6d6d6;fill-opacity:0.09;"/><path d="M186.9,96.523c0.011,0.403 -0.039,0.806 0.329,1.152c1.578,1.48 3.911,2.639 2.817,3.27c-0.956,0.552 -3.948,-0.773 -6.13,-1.423c-0.772,-0.23 -1.279,-0.195 -1.804,-0.234c0.616,0.093 1.194,0.097 2.146,0.432c1.538,0.54 4.967,1.857 4.967,1.857l1.86,-1.073c0,-0 -2.305,-1.628 -3.495,-2.621c-0.519,-0.432 -0.569,-0.894 -0.69,-1.36Zm-6.58,2.146c-0.824,-0.555 -0.23,-1.088 -0.885,-1.658c-1.823,-1.586 -3.953,-3.133 -2.791,-3.804c1.051,-0.607 3.63,0.811 6.077,1.637c1.208,0.408 2.149,-0.112 3.322,0.454c-0.063,-0.043 -0.131,-0.085 -0.204,-0.127c-1.661,-0.959 -2.628,-0.35 -4.218,-0.962c-3.049,-1.173 -6.408,-3.042 -7.459,-2.435c-1.162,0.671 1.714,2.649 4.246,4.644c0.953,0.751 0.311,1.333 1.637,2.098c0.095,0.055 0.187,0.106 0.275,0.153Z" style="fill:#d6d6d6;fill-opacity:0.09;"/><path d="M154.129,76.604c1.043,0.918 2.088,1.832 4.584,3.274c6.678,3.855 6.569,2.905 11.948,5.567c5.373,2.659 12.663,6.525 17.187,8.598c-4.988,-2.59 -10.655,-5.614 -15.22,-7.957c-6.928,-3.556 -6.548,-2.449 -15.297,-7.501c-1.326,-0.765 -2.352,-1.409 -3.202,-1.981Zm-10.275,-2.943l-0.086,0.05c0,-0 15.301,10.586 19.825,13.463c-1.001,-0.786 -9.492,-7.158 -11.287,-8.274c-2.829,-1.76 -8.452,-5.239 -8.452,-5.239Z" style="fill:#d6d6d6;fill-opacity:0.09;"/><path d="M113.407,91.239l46.862,27.056l11.563,-6.675l-46.862,-27.056l-11.563,6.675Z" style="fill:#d6d6d6;fill-opacity:0.09;"/><path d="M155.471,111.417c2.065,1.134 4.229,0.586 6.205,1.394c1.562,0.638 3.037,1.353 4.352,1.969c0.061,0.028 0.183,0.085 0.183,0.085l2.901,-1.675c0,-0 -0.104,-0.09 -0.156,-0.135c-1.067,-0.916 -2.286,-1.889 -3.192,-2.723c-1.509,-1.389 -0.318,-1.727 -2.8,-3.196c0.039,0.021 0.078,0.044 0.118,0.066c3.491,2.016 2.119,2.278 4.274,4.05c0.609,0.5 1.311,1.045 2.039,1.603c0.042,0.032 0.128,0.098 0.128,0.098l-3.543,2.045c0,0 -0.122,-0.059 -0.184,-0.089c-0.81,-0.39 -1.645,-0.783 -2.495,-1.16c-2.541,-1.129 -4.931,-0.657 -7.676,-2.242c-0.052,-0.03 -0.104,-0.06 -0.154,-0.09Zm6.443,-4.788c-1.375,-0.495 -2.521,-0.286 -3.977,-0.914c-4.689,-2.021 -9.355,-4.305 -10.85,-3.442c-1.352,0.781 3.08,3.431 5.901,5.815c1.267,1.07 0.434,1.75 1.627,2.755c-1.648,-1.268 -0.868,-1.978 -2.619,-3.328c-3.9,-3.006 -9.731,-6.465 -8.379,-7.246c1.495,-0.863 7.497,2.193 13.457,4.948c1.851,0.856 3.119,0.717 4.84,1.412Z" style="fill:#d6d6d6;fill-opacity:0.09;"/><path d="M159.758,112.194c0.697,0.006 1.396,-0.023 1.995,0.19c2.564,0.911 4.57,2.258 5.664,1.626c0.956,-0.552 -1.338,-2.28 -2.465,-3.539c-0.398,-0.446 -0.337,-0.739 -0.405,-1.042c0.16,0.356 0.168,0.689 0.748,1.239c0.935,0.888 3.217,2.868 3.217,2.868l-1.86,1.074c0,-0 -2.82,-1.331 -4.539,-2.018c-0.748,-0.299 -1.548,-0.329 -2.355,-0.398Zm3.717,-3.799c-0.962,-0.476 -1.885,-0.133 -2.872,-0.511c-2.746,-1.053 -5.427,-2.282 -6.589,-1.612c-1.051,0.607 1.404,2.096 2.836,3.509c0.707,0.697 -0.194,1.241 0.786,1.918c-0.074,-0.036 -0.148,-0.076 -0.221,-0.118c-1.661,-0.959 -0.605,-1.517 -1.665,-2.435c-2.033,-1.76 -5.269,-3.7 -4.218,-4.307c1.162,-0.67 4.589,0.99 8.044,2.452c1.301,0.55 2.308,0.179 3.634,0.945c0.095,0.055 0.183,0.108 0.265,0.159Z" style="fill:#d6d6d6;fill-opacity:0.09;"/><path d="M125.256,93.273c1.592,0.603 3.175,1.206 5.671,2.647c6.678,3.855 5.032,3.792 9.643,6.898c4.606,3.102 11.302,7.311 14.891,9.923c-4.485,-2.88 -9.722,-6.152 -13.78,-8.787c-6.16,-4 -4.243,-3.781 -12.992,-8.832c-1.326,-0.765 -2.441,-1.358 -3.433,-1.849Zm-5.096,-5.932l0.085,-0.049c0,-0 18.336,8.833 23.321,11.446c-1.363,-0.578 -12.399,-5.481 -14.332,-6.517c-3.048,-1.634 -9.074,-4.88 -9.074,-4.88Z" style="fill:#d6d6d6;fill-opacity:0.09;"/><path d="M161.866,90.991l24.014,13.865l-11.563,6.676l-24.014,-13.865l11.563,-6.676Z" style="fill:#d6d6d6;fill-opacity:0.09;"/><path d="M176.994,107.281c-1.461,-0.754 -1.571,-0.693 -0.638,-0.003l0.445,0.273c0.623,0.384 0.338,0.209 0.962,0.59c0.39,0.238 0.78,0.476 1.171,0.713l0.272,-0.156c-0.09,-0.055 -0.526,-0.358 -2.212,-1.417Zm1.94,1.573l-5.677,-3.482c0.46,0.129 0.478,0.067 -0.244,-0.409c-1.841,-1.167 -1.489,-1.126 -1.351,-1.205c0.264,-0.153 8.479,4.404 8.479,4.404c-0,-0 -0.935,0.536 -0.935,0.536l0.004,0.003l0.931,-0.539l0.41,-0.236c-0,0 -14.377,-8 -14.867,-7.718c-0.521,0.301 13.25,8.646 13.25,8.646Z" style="fill:#d6d6d6;fill-opacity:0.09;"/><path d="M171.674,105.282l0.017,0.278c0.48,0.304 1.246,0.773 1.73,1.079l1.164,0.737c0.537,0.341 1.075,0.682 1.611,1.023c0.508,0.399 1.502,1.187 1.502,1.187l0.141,-0.082c-0.089,-0.063 -0.871,-0.614 -1.378,-0.936l-0.265,-0.169c-0.787,-0.618 -1.649,-1.269 -2.853,-2.06c-0.143,-0.095 -0.291,-0.191 -0.445,-0.289c-0.198,-0.127 -0.405,-0.258 -0.622,-0.393c-0.1,-0.062 -0.502,-0.312 -0.602,-0.375Zm0.015,0.261l0,-0.251c-0.936,-0.581 -1.875,-1.164 -2.812,-1.744l-1.21,-0.75c-1.276,-0.79 -2.542,-1.573 -3.783,-2.343c-0.344,-0.214 -0.687,-0.426 -1.027,-0.638c-0.252,-0.156 -0.502,-0.312 -0.751,-0.466c-1.434,-0.974 -2.619,-1.824 -3.447,-2.5c-0.485,-0.395 -0.847,-0.731 -1.066,-0.997c-0.26,-0.315 -0.318,-0.533 -0.139,-0.636c0.125,-0.072 0.373,-0.058 0.727,0.03c0.243,0.06 0.534,0.155 0.871,0.281c0.104,0.038 -0.257,-0.229 -0.144,-0.356c0.095,-0.107 1.219,0.517 1.652,0.712c0.961,0.431 2.102,1.258 3.368,1.896c1.698,0.856 3.623,1.864 5.646,2.931c0.188,0.099 0.377,0.199 0.566,0.299c1.457,0.769 2.958,1.564 4.457,2.351c0.512,0.269 1.023,0.537 1.533,0.802c0.413,0.216 0.826,0.43 1.235,0.642c0.627,0.324 1.248,0.643 1.859,0.954c1.126,0.573 2.853,1.291 2.853,1.291l-0.456,0.266l-3.782,2.187l0.009,0.006l3.773,-2.193l1.62,-0.938c0,0 -4.538,-1.626 -8.528,-3.717c-5.398,-2.83 -11.389,-6.116 -16.444,-8.811c-0.238,-0.126 -0.707,-0.375 -0.707,-0.375l-2.499,1.443c0,-0 0.313,0.2 0.472,0.301c1.995,1.275 4.222,2.67 6.571,4.131c0.779,0.528 1.631,1.094 2.54,1.687c0.306,0.2 0.618,0.404 0.937,0.61l0.762,0.492c1.674,1.078 3.485,2.227 5.344,3.403Z" style="fill:#d6d6d6;fill-opacity:0.09;"/><path d="M137.816,77.106l22.744,13.132l-11.563,6.675l-22.743,-13.131l11.562,-6.676Z" style="fill:#d6d6d6;fill-opacity:0.09;"/><path d="M139.42,83.502c-1.708,-0.763 -2.621,-1.068 -0.135,0.59c0.612,0.29 0.371,0.148 1.477,0.787c2.856,1.648 3.287,2.344 5.554,3.734c3.125,1.918 8.33,5.039 8.33,5.039l-0.487,0.281c-0,0 -6.194,-3.325 -8.995,-4.817c-2.826,-1.504 -2.57,-1.102 -6.201,-3.198c-1.179,-0.681 -1.815,-1.115 -2.379,-1.518l-0.089,-0l0,-0.064c-0.583,-0.418 -1.115,-0.814 -2.135,-1.434c-1.073,-0.652 -3.211,-1.946 -3.211,-1.946l0.937,-0.541c-0,-0 1.893,1.039 2.796,1.527c0.665,0.359 0.091,0.063 0.532,0.268c1.816,0.291 1.253,-0.088 -0.623,-1.005c-2.305,-1.126 -2.254,-1.011 -2.254,-1.011l-0.036,-0.019l-1.623,0.937c-0,0 0.507,0.31 0.76,0.465c2.672,1.637 2.732,2.117 5.97,3.987c4.758,2.747 4.465,2.194 8.19,4.153c2.437,1.281 8.14,4.344 8.14,4.344l1.029,-0.594c-0,-0 -4.899,-2.938 -7.462,-4.524c-2.956,-1.83 -3.444,-2.785 -7.185,-4.945c-0.687,-0.397 -0.248,-0.153 -0.9,-0.496Z" style="fill:#d6d6d6;fill-opacity:0.09;"/><path d="M137.546,86.806l-0.01,0.549c1.333,0.73 2.834,1.475 3.68,1.853c2.279,1.019 3.444,1.208 6.979,2.958c1.457,0.721 4.7,2.369 4.7,2.369l0.118,0.06l0.284,-0.164l-0.118,-0.062c0,-0 -2.054,-1.068 -3.016,-1.562c-3.633,-1.865 -5.257,-2.447 -7.241,-3.308c-0.572,-0.249 -1.175,-0.52 -1.865,-0.852c-0.842,-0.406 -2.305,-1.186 -3.511,-1.841Zm-3.489,-7.507c0.064,0.019 1.584,0.461 3.706,1.343c0.741,0.308 1.556,0.669 2.408,1.084c0.763,0.373 1.556,0.789 2.353,1.249c0.32,0.185 0.621,0.364 0.905,0.539c4.378,2.696 4.746,4.3 8.551,6.764c1.289,0.834 3.901,2.478 3.901,2.478l0.152,0.095l-2.736,1.58l3.261,-1.883l-0.111,-0.069c0,-0 -1.617,-1.008 -2.42,-1.513c-5.385,-3.395 -6.006,-5.312 -12.885,-9.284c-2.607,-1.505 -5.924,-3.05 -5.924,-3.05l-1.161,0.667Zm0,0l-0.002,-0l-0.744,0.429l-3.687,2.121c-0,-0 1.234,0.933 2.039,1.475c1.043,0.919 2.088,1.833 4.584,3.275c0.46,0.265 0.887,0.507 1.286,0.729l-0,-0.515c-0.786,-0.432 -1.667,-0.929 -2.668,-1.507c-1.326,-0.766 -2.353,-1.41 -3.202,-1.982c-0.557,-0.49 -1.888,-1.554 -1.888,-1.554l3.536,-2.042l0.746,-0.429Z" style="fill:#d6d6d6;fill-opacity:0.09;"/><path d="M136.142,105.884l24.014,13.864l-11.563,6.676l-24.014,-13.865l11.563,-6.675Z" style="fill:#d6d6d6;fill-opacity:0.09;"/><path d="M153.21,123.746l1.617,-0.927c-0,-0 -1.086,-0.605 -2.671,-1.475c-0.379,-0.208 -0.786,-0.432 -1.214,-0.665c-2.327,-1.273 -5.262,-2.858 -7.513,-4.015c-0.508,-0.261 -0.981,-0.5 -1.405,-0.709c-1.165,-0.573 9.41,5.185 8.952,5.798c-0.32,0.428 -10.03,-5.739 -8.356,-4.635c0.258,0.171 0.528,0.348 0.809,0.53c0.111,0.073 0.225,0.146 0.339,0.22c0.217,0.14 0.438,0.282 0.663,0.426c0.229,0.147 0.462,0.295 0.697,0.445c3.721,2.365 8.082,5.007 8.082,5.007Zm0.276,-0.153l0.931,-0.539c-0,0 -2.292,-1.137 -2.556,-0.985c-0.288,0.166 1.625,1.524 1.625,1.524Z" style="fill:#d6d6d6;fill-opacity:0.09;"/><path d="M149.02,122.194l-0.047,-0.034l-0,0.179c0.321,0.204 0.697,0.442 1.018,0.646c0.11,0.07 0.22,0.14 0.331,0.211c0.03,0.019 0.06,0.038 0.09,0.057c-0,-0 0.06,0.038 0.06,0.038c0.004,0.003 0.008,0.006 0.012,0.009c0.008,0.007 0.016,0.013 0.024,0.02c0.022,0.017 0.043,0.033 0.064,0.05c0.066,0.052 0.132,0.104 0.197,0.155c0.196,0.154 0.391,0.308 0.585,0.463c0.153,0.12 0.305,0.24 0.457,0.361c0.04,0.031 0.08,0.063 0.119,0.094c0.011,0.009 0.022,0.018 0.033,0.026c0.004,0.003 0.007,0.011 0.011,0.009c0.049,-0.023 0.095,-0.053 0.142,-0.082c0.001,-0.001 -0.004,-0.002 -0.005,-0.003l-0.033,-0.023c-0.027,-0.019 -0.053,-0.037 -0.079,-0.056c-0.079,-0.055 -0.157,-0.11 -0.236,-0.164c-0.123,-0.086 -0.247,-0.171 -0.37,-0.255c-0.111,-0.076 -0.223,-0.151 -0.334,-0.225c-0.048,-0.032 -0.096,-0.064 -0.143,-0.095c-0.044,-0.028 -0.087,-0.056 -0.13,-0.084c-0.016,-0.01 -0.032,-0.021 -0.048,-0.031c-0.089,-0.056 -0.178,-0.112 -0.266,-0.169c-0.002,-0.001 -0.004,-0.003 -0.006,-0.005l-0.047,-0.036c-0.036,-0.028 -0.071,-0.056 -0.107,-0.084c-0.106,-0.083 -0.213,-0.166 -0.32,-0.248c-0.172,-0.132 -0.344,-0.262 -0.518,-0.391c-0.097,-0.073 -0.194,-0.144 -0.292,-0.215c-0.054,-0.04 -0.108,-0.079 -0.162,-0.118Zm-4.447,-6.982l-7.533,-4.056l-4.495,-2.412c-0.238,-0.127 -0.706,-0.376 -0.706,-0.376l-2.499,1.443c-0,-0 0.312,0.2 0.471,0.302c1.995,1.274 4.222,2.669 6.571,4.13c3.667,2.49 8.965,5.788 14.09,9.048l-1.499,-0.952l-0,-0.179l1.499,1.131c-1.001,-0.786 -2.125,-1.626 -3.92,-2.742c-3.425,-2.13 -6.914,-4.281 -10.17,-6.306c-3.265,-2.217 -5.239,-3.793 -4.652,-4.132c0.131,-0.076 0.397,-0.057 0.779,0.043c0.129,0.033 0.272,0.076 0.426,0.128c0.214,0.071 0.45,0.158 0.709,0.26c0.585,0.232 1.28,0.54 2.066,0.91c0.066,0.031 0.133,0.063 0.201,0.095c0.35,0.166 1.1,0.532 1.1,0.532l0.029,0.017c1.52,0.941 1.979,1.883 1.878,2.066c-0.172,0.313 -2.622,-0.435 -3.548,-1.009c0.243,0.262 3.13,2.041 4.36,1.478c0.502,-0.23 -1.244,-1.804 -1.837,-2.126l-0,-0l-0.042,-0.022l2.2,1.134c4.057,2.095 8.997,4.771 13.449,7.036c1.126,0.572 2.853,1.291 2.853,1.291l-0.456,0.265l-3.781,2.187l0.008,0.006l3.773,-2.193l1.621,-0.938c-0,0 -4.539,-1.626 -8.529,-3.717c-1.106,-0.58 -2.237,-1.179 -3.379,-1.788l-1.037,-0.554Z" style="fill:#d6d6d6;fill-opacity:0.09;"/><path d="M112.092,91.999l22.744,13.131l-11.563,6.675l-22.743,-13.131l11.562,-6.675Z" style="fill:#d6d6d6;fill-opacity:0.09;"/><path d="M115.202,103.476l-0,0.486l-4.678,-2.471c6.677,3.855 6.569,2.905 11.948,5.567c1.456,0.721 4.699,2.369 4.699,2.369l0.118,0.06l0.285,-0.164l-0.119,-0.062c0,0 -2.054,-1.068 -3.016,-1.562c-4.554,-2.337 -5.95,-2.66 -8.856,-4.041c-0.096,-0.045 -0.283,-0.135 -0.381,-0.182Zm-6.869,-9.284c0.064,0.018 1.584,0.46 3.707,1.342c1.405,0.584 3.074,1.36 4.76,2.333c0.312,0.18 0.605,0.355 0.883,0.526c4.399,2.704 4.762,4.309 8.573,6.777c1.289,0.835 3.901,2.479 3.901,2.479l0.152,0.095l-2.735,1.579l3.26,-1.883l-0.111,-0.069c0,0 -1.617,-1.008 -2.419,-1.513c-4.727,-2.979 -5.784,-4.82 -10.621,-7.911c-0.675,-0.431 -1.423,-0.886 -2.265,-1.372c-2.607,-1.505 -5.924,-3.051 -5.924,-3.051l-1.161,0.668Zm-0.746,0.428l-3.687,2.121c-0,-0 1.234,0.933 2.039,1.475c1.043,0.919 2.088,1.833 4.585,3.275c6.677,3.855 6.569,2.905 11.948,5.567l-7.27,-3.089l-0,-0.494c-0.537,-0.26 -1.126,-0.557 -1.795,-0.908c-0.211,-0.112 -0.43,-0.228 -0.658,-0.35c-0.141,-0.076 -0.286,-0.154 -0.434,-0.235c-0.91,-0.494 -1.953,-1.079 -3.174,-1.784c-1.326,-0.765 -2.353,-1.409 -3.202,-1.982c-0.556,-0.49 -1.888,-1.554 -1.888,-1.554l3.536,-2.042l0.746,-0.428c-0.001,-0.001 -0.002,-0.001 -0.002,-0.001l-0.744,0.429Z" style="fill:#d6d6d6;fill-opacity:0.09;"/><path d="M113.209,98.115l0,0.74l1.779,0.887l0.051,0.029c0.55,0.318 1.011,0.6 1.411,0.859c0.479,0.31 0.873,0.585 1.234,0.847c0.267,0.194 0.322,0.393 0.237,0.563c-0.044,0.089 -0.127,0.17 -0.238,0.238c-0.089,0.054 -0.196,0.1 -0.316,0.135c-0.411,0.119 -0.973,0.107 -1.468,-0.143c-0.263,-0.132 -0.559,-0.287 -0.91,-0.477l-0.773,-0.426c-0.164,-0.092 -0.337,-0.19 -0.521,-0.295c-0.145,-0.083 -0.297,-0.17 -0.456,-0.262c-2.471,-1.427 -2.555,-1.771 -4.603,-3.015c-1.073,-0.653 -3.21,-1.947 -3.21,-1.947l0.936,-0.541c-0,0 1.49,0.818 2.458,1.343l0.338,0.184l0.2,0.099l0.174,0.092c0.01,0.005 0.027,-0 0.036,0.005c0.034,0.018 0.06,0.046 0.092,0.063c0.047,0.025 0.091,0.049 0.134,0.071c0.723,0.381 0.82,0.402 1.206,0.589l2.209,1.102l0,-0.74c-1.406,-0.762 -2.721,-1.402 -3.788,-1.895l-0.388,-0.179c-1.353,-0.615 -2.22,-0.954 -2.22,-0.954l-0.036,-0.02l-1.623,0.938c0,-0 0.507,0.31 0.76,0.465c2.382,1.459 2.688,1.999 5.021,3.423c0.284,0.174 0.598,0.36 0.949,0.563c0.27,0.156 0.524,0.301 0.764,0.437c3.974,2.255 3.064,1.379 6.577,3.226c2.437,1.282 2.872,0.84 0.31,-0.746c-1.369,-0.847 0.038,-1.044 -0.84,-1.723c-1.019,-0.787 -2.09,-1.6 -4.099,-2.76c-0.314,-0.181 -1.078,-0.604 -1.387,-0.775Zm1.78,1.627l-0.061,-0.035l0.061,0.035Zm-0.061,-0.035c-0,0 -0,0 -0,0Z" style="fill:#d6d6d6;fill-opacity:0.09;"/><path d="M99.197,99.46l-51.556,29.765l48.028,27.73l51.556,-29.766l-48.028,-27.729Z" style="fill:#532d11;"/><path d="M99.197,99.46l46.862,27.055l-11.563,6.676l-46.862,-27.056l11.563,-6.675Z" style="fill:#d6d6d6;fill-opacity:0.09;"/><path d="M134.145,123.745c1.964,1.192 1.016,2.442 2.415,3.583c1.106,0.901 2.343,1.753 3.41,2.512c0.049,0.036 0.147,0.106 0.147,0.106l-2.901,1.675c-0,-0 -0.156,-0.06 -0.234,-0.09c-1.586,-0.616 -3.272,-1.32 -4.715,-1.843c-2.406,-0.872 -2.992,-0.184 -5.537,-1.617c0.038,0.023 0.076,0.045 0.116,0.068c3.491,2.016 3.945,1.224 7.013,2.468c0.867,0.352 1.81,0.757 2.777,1.177c0.056,0.024 0.169,0.074 0.169,0.074l3.543,-2.045c-0,-0 -0.103,-0.071 -0.154,-0.107c-0.677,-0.467 -1.356,-0.95 -2.01,-1.44c-1.954,-1.467 -1.137,-2.847 -3.882,-4.432c-0.053,-0.03 -0.105,-0.06 -0.157,-0.089Zm-8.292,3.72c-0.858,-0.794 -0.496,-1.455 -1.584,-2.296c-3.5,-2.708 -7.456,-5.401 -5.961,-6.264c1.352,-0.781 5.943,1.778 10.072,3.407c1.853,0.731 3.031,0.25 4.772,0.939c-2.196,-0.952 -3.427,-0.501 -5.765,-1.512c-5.207,-2.252 -11.197,-5.619 -12.55,-4.838c-1.494,0.863 3.798,4.329 8.57,7.77c1.482,1.068 1.242,1.801 2.446,2.794Z" style="fill:#d6d6d6;fill-opacity:0.09;"/><path d="M135.491,126.22c0.011,0.403 -0.039,0.806 0.329,1.152c1.578,1.481 3.911,2.639 2.817,3.27c-0.956,0.552 -3.949,-0.773 -6.131,-1.423c-0.771,-0.23 -1.279,-0.195 -1.803,-0.234c0.616,0.093 1.193,0.097 2.146,0.432c1.538,0.54 4.967,1.857 4.967,1.857l1.86,-1.073c-0,-0 -2.305,-1.628 -3.496,-2.621c-0.518,-0.432 -0.569,-0.894 -0.689,-1.36Zm-6.58,2.146c-0.825,-0.555 -0.23,-1.088 -0.886,-1.658c-1.823,-1.586 -3.952,-3.133 -2.79,-3.804c1.05,-0.607 3.629,0.811 6.076,1.637c1.209,0.408 2.15,-0.112 3.323,0.454c-0.063,-0.043 -0.131,-0.085 -0.204,-0.127c-1.661,-0.959 -2.628,-0.35 -4.218,-0.962c-3.049,-1.173 -6.409,-3.042 -7.46,-2.435c-1.161,0.671 1.714,2.649 4.246,4.644c0.954,0.751 0.312,1.333 1.638,2.098c0.095,0.055 0.186,0.106 0.275,0.153Z" style="fill:#d6d6d6;fill-opacity:0.09;"/><path d="M102.719,106.301c1.044,0.919 2.088,1.833 4.584,3.274c6.678,3.855 6.57,2.905 11.949,5.567c5.373,2.659 12.663,6.525 17.186,8.598c-4.987,-2.59 -10.655,-5.614 -15.219,-7.957c-6.929,-3.556 -6.548,-2.449 -15.298,-7.501c-1.325,-0.765 -2.352,-1.409 -3.202,-1.981Zm-10.274,-2.943l-0.086,0.05c-0,-0 15.3,10.586 19.825,13.464c-1.001,-0.787 -9.493,-7.159 -11.287,-8.275c-2.83,-1.76 -8.452,-5.239 -8.452,-5.239Z" style="fill:#d6d6d6;fill-opacity:0.09;"/><path d="M61.998,120.937l46.862,27.055l11.562,-6.675l-46.861,-27.056l-11.563,6.676Z" style="fill:#d6d6d6;fill-opacity:0.09;"/><path d="M104.062,141.114c2.064,1.134 4.229,0.586 6.205,1.394c1.562,0.638 3.037,1.353 4.352,1.969c0.061,0.028 0.182,0.085 0.182,0.085l2.902,-1.675c-0,-0 -0.104,-0.09 -0.157,-0.135c-1.066,-0.916 -2.286,-1.889 -3.191,-2.723c-1.51,-1.389 -0.318,-1.727 -2.8,-3.196c0.039,0.021 0.078,0.044 0.117,0.067c3.491,2.015 2.12,2.278 4.275,4.049c0.609,0.5 1.31,1.045 2.038,1.603c0.043,0.032 0.128,0.098 0.128,0.098l-3.542,2.045c-0,0 -0.123,-0.059 -0.184,-0.089c-0.81,-0.39 -1.646,-0.783 -2.496,-1.16c-2.54,-1.129 -4.93,-0.657 -7.675,-2.242c-0.053,-0.03 -0.104,-0.06 -0.154,-0.09Zm6.442,-4.788c-1.374,-0.495 -2.52,-0.286 -3.977,-0.914c-4.689,-2.021 -9.354,-4.305 -10.849,-3.442c-1.352,0.781 3.079,3.431 5.901,5.815c1.267,1.07 0.433,1.75 1.626,2.755c-1.648,-1.268 -0.868,-1.978 -2.619,-3.328c-3.9,-3.006 -9.731,-6.465 -8.378,-7.245c1.494,-0.863 7.497,2.192 13.456,4.947c1.852,0.856 3.12,0.717 4.84,1.412Z" style="fill:#d6d6d6;fill-opacity:0.09;"/><path d="M108.349,141.891c0.696,0.006 1.396,-0.023 1.995,0.19c2.564,0.911 4.57,2.258 5.663,1.626c0.956,-0.552 -1.338,-2.28 -2.464,-3.539c-0.399,-0.446 -0.337,-0.739 -0.406,-1.042c0.161,0.356 0.169,0.689 0.748,1.239c0.936,0.888 3.218,2.868 3.218,2.868l-1.86,1.074c-0,-0 -2.82,-1.331 -4.539,-2.018c-0.749,-0.299 -1.549,-0.329 -2.355,-0.398Zm3.717,-3.799c-0.962,-0.476 -1.885,-0.133 -2.872,-0.511c-2.747,-1.053 -5.428,-2.282 -6.589,-1.612c-1.051,0.607 1.404,2.096 2.835,3.509c0.707,0.698 -0.193,1.241 0.786,1.918c-0.074,-0.036 -0.147,-0.076 -0.22,-0.118c-1.661,-0.959 -0.605,-1.517 -1.665,-2.435c-2.033,-1.76 -5.269,-3.7 -4.218,-4.307c1.161,-0.67 4.588,0.99 8.044,2.452c1.301,0.55 2.307,0.18 3.633,0.945c0.095,0.055 0.184,0.108 0.266,0.159Z" style="fill:#d6d6d6;fill-opacity:0.09;"/><path d="M73.847,122.97c1.591,0.603 3.174,1.206 5.671,2.647c6.677,3.855 5.032,3.793 9.642,6.898c4.606,3.102 11.302,7.311 14.892,9.923c-4.485,-2.88 -9.723,-6.152 -13.781,-8.787c-6.16,-4 -4.242,-3.781 -12.992,-8.832c-1.325,-0.765 -2.441,-1.358 -3.432,-1.849Zm-5.097,-5.932l0.086,-0.049c0,-0 18.336,8.833 23.32,11.446c-1.362,-0.578 -12.398,-5.481 -14.331,-6.517c-3.048,-1.634 -9.075,-4.88 -9.075,-4.88Z" style="fill:#d6d6d6;fill-opacity:0.09;"/><path d="M110.456,120.688l24.014,13.865l-11.562,6.676l-24.015,-13.865l11.563,-6.676Z" style="fill:#d6d6d6;fill-opacity:0.09;"/><path d="M125.584,136.978c-1.461,-0.754 -1.57,-0.693 -0.638,-0.003l0.446,0.273c0.623,0.384 0.337,0.209 0.961,0.59c0.39,0.238 0.781,0.476 1.172,0.713l0.271,-0.156c-0.089,-0.055 -0.526,-0.358 -2.212,-1.417Zm1.941,1.573l-5.678,-3.482c0.461,0.129 0.479,0.067 -0.243,-0.409c-1.841,-1.167 -1.489,-1.126 -1.351,-1.205c0.264,-0.153 8.478,4.404 8.478,4.404c0,-0 -0.935,0.536 -0.935,0.536l0.004,0.003l0.931,-0.539l0.41,-0.236c0,0 -14.377,-8 -14.866,-7.718c-0.522,0.301 13.25,8.646 13.25,8.646Z" style="fill:#d6d6d6;fill-opacity:0.09;"/><path d="M120.264,134.979l0.018,0.278c0.479,0.304 1.245,0.773 1.729,1.079l1.164,0.737c0.538,0.341 1.075,0.682 1.611,1.023c0.509,0.399 1.502,1.187 1.502,1.187l0.142,-0.082c-0.089,-0.063 -0.872,-0.614 -1.378,-0.936l-0.266,-0.169c-0.786,-0.618 -1.648,-1.268 -2.852,-2.06c-0.144,-0.094 -0.292,-0.191 -0.445,-0.289c-0.198,-0.127 -0.405,-0.258 -0.622,-0.393c-0.101,-0.062 -0.502,-0.312 -0.603,-0.375Zm0.016,0.261l-0,-0.251c-0.936,-0.581 -1.875,-1.164 -2.812,-1.744l-1.211,-0.75c-1.275,-0.79 -2.541,-1.573 -3.782,-2.343c-0.345,-0.214 -0.687,-0.426 -1.028,-0.638c-0.251,-0.156 -0.502,-0.312 -0.751,-0.466c-1.433,-0.974 -2.618,-1.824 -3.446,-2.499c-0.485,-0.396 -0.848,-0.732 -1.067,-0.998c-0.259,-0.315 -0.317,-0.533 -0.139,-0.636c0.125,-0.072 0.373,-0.058 0.728,0.03c0.242,0.06 0.534,0.155 0.871,0.281c0.103,0.038 -0.258,-0.229 -0.144,-0.356c0.095,-0.107 1.219,0.517 1.652,0.712c0.961,0.431 2.101,1.258 3.368,1.896c1.698,0.856 3.623,1.864 5.646,2.931c0.188,0.099 0.376,0.199 0.565,0.299c1.458,0.769 2.959,1.564 4.458,2.351c0.512,0.269 1.023,0.537 1.532,0.802c0.414,0.216 0.826,0.43 1.236,0.643c0.626,0.324 1.247,0.642 1.859,0.954c1.125,0.572 2.852,1.291 2.852,1.291l-0.456,0.265l-3.781,2.187l0.008,0.006l3.773,-2.193l1.621,-0.938c-0,0 -4.539,-1.626 -8.528,-3.717c-5.398,-2.83 -11.39,-6.116 -16.445,-8.811c-0.237,-0.126 -0.706,-0.375 -0.706,-0.375l-2.499,1.443c-0,-0 0.313,0.2 0.472,0.301c1.994,1.275 4.222,2.67 6.57,4.131c0.779,0.528 1.632,1.094 2.54,1.687c0.306,0.2 0.619,0.404 0.937,0.61l0.762,0.492c1.675,1.078 3.486,2.227 5.345,3.403Z" style="fill:#d6d6d6;fill-opacity:0.09;"/><path d="M86.407,106.803l22.744,13.132l-11.563,6.675l-22.744,-13.131l11.563,-6.676Z" style="fill:#d6d6d6;fill-opacity:0.09;"/><path d="M88.011,113.199c-1.708,-0.763 -2.622,-1.068 -0.135,0.59c0.611,0.29 0.371,0.148 1.477,0.787c2.855,1.648 3.286,2.344 5.553,3.735c3.126,1.917 8.331,5.038 8.331,5.038l-0.488,0.281c0,0 -6.193,-3.325 -8.994,-4.817c-2.827,-1.504 -2.57,-1.102 -6.201,-3.198c-1.179,-0.681 -1.815,-1.115 -2.38,-1.518l-0.088,-0l-0,-0.064c-0.583,-0.417 -1.116,-0.814 -2.135,-1.434c-1.074,-0.652 -3.211,-1.946 -3.211,-1.946l0.936,-0.541c0,-0 1.893,1.039 2.797,1.527c0.664,0.359 0.09,0.063 0.532,0.268c1.816,0.291 1.252,-0.088 -0.623,-1.005c-2.305,-1.126 -2.255,-1.011 -2.255,-1.011l-0.035,-0.019l-1.624,0.937c0,0 0.507,0.31 0.76,0.465c2.672,1.637 2.732,2.117 5.97,3.987c4.758,2.747 4.466,2.194 8.19,4.153c2.437,1.281 8.141,4.344 8.141,4.344l1.028,-0.594c0,-0 -4.899,-2.938 -7.461,-4.524c-2.956,-1.83 -3.445,-2.785 -7.186,-4.945c-0.687,-0.397 -0.248,-0.153 -0.899,-0.496Z" style="fill:#d6d6d6;fill-opacity:0.09;"/><path d="M86.136,116.503l-0.009,0.549c1.332,0.73 2.833,1.475 3.68,1.853c2.279,1.019 3.444,1.208 6.979,2.958c1.457,0.721 4.699,2.369 4.699,2.369l0.118,0.06l0.285,-0.164l-0.118,-0.062c-0,-0 -2.055,-1.068 -3.017,-1.562c-3.633,-1.865 -5.256,-2.447 -7.24,-3.308c-0.573,-0.248 -1.175,-0.52 -1.865,-0.852c-0.842,-0.406 -2.306,-1.186 -3.512,-1.841Zm-3.488,-7.507c0.063,0.019 1.583,0.461 3.706,1.343c0.741,0.308 1.556,0.669 2.407,1.084c0.763,0.373 1.557,0.789 2.353,1.249c0.32,0.185 0.621,0.364 0.905,0.539c4.379,2.696 4.747,4.3 8.552,6.764c1.288,0.834 3.9,2.478 3.9,2.478l0.152,0.095l-2.735,1.58l3.261,-1.883l-0.111,-0.069c-0,-0 -1.618,-1.008 -2.42,-1.513c-5.386,-3.395 -6.007,-5.312 -12.886,-9.284c-2.607,-1.504 -5.924,-3.05 -5.924,-3.05l-1.16,0.667Zm-0,0l-0.002,-0l-0.744,0.429l-3.688,2.121c0,-0 1.234,0.933 2.039,1.475c1.044,0.919 2.088,1.833 4.585,3.275c0.459,0.265 0.886,0.507 1.285,0.729l0,-0.515c-0.786,-0.432 -1.667,-0.929 -2.667,-1.507c-1.326,-0.765 -2.353,-1.41 -3.203,-1.982c-0.556,-0.49 -1.887,-1.554 -1.887,-1.554l3.536,-2.042l0.746,-0.429Z" style="fill:#d6d6d6;fill-opacity:0.09;"/><path d="M84.732,135.581l24.014,13.864l-11.562,6.676l-24.014,-13.865l11.562,-6.675Z" style="fill:#d6d6d6;fill-opacity:0.09;"/><path d="M101.801,153.444l1.617,-0.928c-0,-0 -1.086,-0.605 -2.672,-1.475c-0.378,-0.208 -0.786,-0.432 -1.213,-0.665c-2.328,-1.273 -5.262,-2.858 -7.514,-4.015c-0.508,-0.261 -0.981,-0.5 -1.404,-0.708c-1.165,-0.574 9.409,5.184 8.951,5.797c-0.319,0.428 -10.029,-5.739 -8.356,-4.634c0.258,0.17 0.529,0.347 0.809,0.529c0.112,0.073 0.225,0.146 0.34,0.22c0.216,0.14 0.438,0.282 0.663,0.426c0.229,0.147 0.461,0.295 0.697,0.445c3.72,2.365 8.082,5.008 8.082,5.008Zm0.276,-0.154l0.93,-0.539c0,0 -2.291,-1.137 -2.556,-0.985c-0.287,0.166 1.626,1.524 1.626,1.524Z" style="fill:#d6d6d6;fill-opacity:0.09;"/><path d="M97.611,151.891l-0.048,-0.034l0,0.179c0.321,0.204 0.697,0.442 1.018,0.646c0.111,0.07 0.221,0.141 0.331,0.211c0.03,0.019 0.06,0.038 0.09,0.057c0,-0 0.06,0.038 0.06,0.038c0.005,0.003 0.008,0.006 0.012,0.01c0.009,0.006 0.017,0.012 0.025,0.019c0.021,0.017 0.043,0.033 0.064,0.05c0.066,0.052 0.131,0.104 0.197,0.156c0.195,0.153 0.39,0.307 0.585,0.462c0.152,0.12 0.304,0.24 0.456,0.361c0.04,0.031 0.08,0.063 0.12,0.094c0.011,0.009 0.022,0.018 0.032,0.026c0.004,0.003 0.007,0.011 0.012,0.009c0.049,-0.023 0.095,-0.053 0.141,-0.082c0.002,-0.001 -0.003,-0.002 -0.005,-0.003l-0.033,-0.023c-0.026,-0.019 -0.052,-0.037 -0.079,-0.056c-0.078,-0.055 -0.157,-0.11 -0.236,-0.164c-0.123,-0.086 -0.246,-0.171 -0.37,-0.255c-0.111,-0.076 -0.222,-0.151 -0.334,-0.225c-0.047,-0.032 -0.095,-0.063 -0.143,-0.095c-0.043,-0.028 -0.086,-0.056 -0.13,-0.084c-0.016,-0.01 -0.032,-0.021 -0.048,-0.031c-0.088,-0.056 -0.177,-0.112 -0.266,-0.169c-0.002,-0.001 -0.004,-0.003 -0.006,-0.004l-0.047,-0.037c-0.035,-0.028 -0.071,-0.056 -0.106,-0.084c-0.107,-0.083 -0.214,-0.166 -0.321,-0.248c-0.171,-0.132 -0.344,-0.262 -0.517,-0.391c-0.097,-0.072 -0.195,-0.144 -0.292,-0.215c-0.054,-0.039 -0.108,-0.079 -0.162,-0.118Zm-4.447,-6.982l-7.534,-4.056l-4.495,-2.412c-0.237,-0.127 -0.706,-0.376 -0.706,-0.376l-2.499,1.443c0,-0 0.313,0.2 0.472,0.302c1.994,1.274 4.222,2.669 6.571,4.13c3.667,2.49 8.964,5.788 14.089,9.048l-1.499,-0.952l0,-0.179l1.499,1.131c-1,-0.786 -2.125,-1.626 -3.919,-2.742c-3.426,-2.13 -6.915,-4.281 -10.17,-6.306c-3.265,-2.217 -5.24,-3.793 -4.653,-4.132c0.131,-0.076 0.397,-0.057 0.78,0.043c0.129,0.033 0.271,0.076 0.426,0.128c0.213,0.071 0.45,0.158 0.709,0.261c0.584,0.231 1.28,0.539 2.066,0.909c0.066,0.031 0.133,0.063 0.2,0.095c0.351,0.166 1.101,0.532 1.101,0.532l0.028,0.017c1.52,0.941 1.98,1.883 1.879,2.066c-0.173,0.313 -2.622,-0.435 -3.548,-1.009c0.242,0.262 3.13,2.041 4.359,1.478c0.503,-0.23 -1.243,-1.804 -1.837,-2.126l0,-0l-0.041,-0.022l2.2,1.134c4.056,2.095 8.997,4.771 13.449,7.036c1.125,0.572 2.853,1.291 2.853,1.291l-0.456,0.265l-3.782,2.187l0.008,0.006l3.774,-2.193l1.62,-0.938c0,0 -4.539,-1.626 -8.528,-3.717c-1.106,-0.58 -2.237,-1.179 -3.38,-1.788l-1.036,-0.554Z" style="fill:#d6d6d6;fill-opacity:0.09;"/><path d="M60.683,121.696l22.744,13.131l-11.563,6.676l-22.744,-13.132l11.563,-6.675Z" style="fill:#d6d6d6;fill-opacity:0.09;"/><path d="M63.792,133.173l0,0.486l-4.678,-2.471c6.678,3.855 6.569,2.905 11.948,5.567c1.457,0.721 4.7,2.369 4.7,2.369l0.118,0.06l0.284,-0.164l-0.118,-0.062c-0,0 -2.055,-1.068 -3.017,-1.562c-4.553,-2.337 -5.95,-2.66 -8.856,-4.041c-0.095,-0.045 -0.282,-0.135 -0.381,-0.182Zm-6.868,-9.284c0.064,0.018 1.584,0.46 3.706,1.342c1.405,0.584 3.075,1.36 4.76,2.333c0.312,0.18 0.606,0.355 0.884,0.526c4.399,2.704 4.762,4.309 8.573,6.777c1.288,0.835 3.901,2.479 3.901,2.479l0.152,0.095l-2.736,1.579l3.261,-1.883l-0.111,-0.069c-0,0 -1.618,-1.008 -2.42,-1.513c-4.726,-2.979 -5.783,-4.82 -10.62,-7.911c-0.675,-0.431 -1.424,-0.886 -2.266,-1.372c-2.606,-1.505 -5.923,-3.051 -5.923,-3.051l-1.161,0.668Zm-0.746,0.428l-3.688,2.121c0,-0 1.235,0.933 2.039,1.475c1.044,0.919 2.088,1.833 4.585,3.275c6.678,3.855 6.569,2.905 11.948,5.567l-7.27,-3.089l0,-0.494c-0.536,-0.26 -1.126,-0.557 -1.794,-0.908c-0.211,-0.111 -0.431,-0.228 -0.659,-0.35c-0.141,-0.076 -0.285,-0.154 -0.434,-0.235c-0.909,-0.494 -1.952,-1.079 -3.173,-1.784c-1.326,-0.765 -2.353,-1.409 -3.203,-1.982c-0.556,-0.49 -1.887,-1.554 -1.887,-1.554l3.536,-2.042l0.746,-0.428c-0.001,-0.001 -0.002,-0.001 -0.002,-0.001l-0.744,0.429Z" style="fill:#d6d6d6;fill-opacity:0.09;"/><path d="M61.8,127.812l0,0.74l1.779,0.887l0.05,0.029c0.551,0.318 1.011,0.6 1.412,0.859c0.479,0.31 0.873,0.585 1.234,0.847c0.266,0.194 0.321,0.393 0.237,0.563c-0.045,0.089 -0.128,0.17 -0.238,0.238c-0.089,0.054 -0.197,0.1 -0.316,0.135c-0.412,0.119 -0.973,0.107 -1.468,-0.143c-0.264,-0.132 -0.56,-0.287 -0.911,-0.477l-0.773,-0.426c-0.163,-0.092 -0.336,-0.19 -0.521,-0.295c-0.145,-0.083 -0.296,-0.17 -0.455,-0.262c-2.471,-1.427 -2.556,-1.771 -4.603,-3.015c-1.073,-0.653 -3.211,-1.947 -3.211,-1.947l0.936,-0.541c0,0 1.491,0.818 2.458,1.343l0.339,0.184l0.199,0.099l0.175,0.092c0.009,0.005 0.026,0 0.036,0.005c0.034,0.018 0.059,0.046 0.091,0.063c0.047,0.025 0.092,0.049 0.135,0.071c0.722,0.381 0.82,0.402 1.206,0.589l2.209,1.102l0,-0.74c-1.407,-0.762 -2.721,-1.402 -3.788,-1.895l-0.389,-0.179c-1.353,-0.614 -2.219,-0.954 -2.219,-0.954l-0.036,-0.02l-1.623,0.938c-0,-0 0.507,0.31 0.759,0.465c2.383,1.459 2.689,1.999 5.022,3.423c0.284,0.174 0.597,0.36 0.949,0.563c0.27,0.156 0.524,0.301 0.764,0.437c3.973,2.255 3.064,1.379 6.577,3.226c2.436,1.282 2.871,0.84 0.309,-0.746c-1.368,-0.847 0.039,-1.044 -0.839,-1.723c-1.019,-0.787 -2.09,-1.6 -4.1,-2.76c-0.314,-0.181 -1.078,-0.604 -1.386,-0.775Zm1.779,1.627l-0.06,-0.035l0.06,0.035Zm-0.06,-0.035c-0,0 -0,0 -0,0Z" style="fill:#d6d6d6;fill-opacity:0.09;"/></svg>