<?xml version="1.0" encoding="UTF-8" standalone="no"?><!DOCTYPE svg PUBLIC "-//W3C//DTD SVG 1.1//EN" "http://www.w3.org/Graphics/SVG/1.1/DTD/svg11.dtd"><svg width="100%" height="100%" viewBox="0 0 200 200" version="1.1" xmlns="http://www.w3.org/2000/svg" xmlns:xlink="http://www.w3.org/1999/xlink" xml:space="preserve" xmlns:serif="http://www.serif.com/" style="fill-rule:evenodd;clip-rule:evenodd;stroke-linejoin:round;stroke-miterlimit:2;"><path d="M63.275,113.7c-0.206,0.246 -0.407,0.467 -0.407,0.467c-0.757,0.802 -2.233,1.953 -7.114,4.964c-8.007,4.93 -15.296,9.371 -26.959,13.961c-2.814,1.107 -5.184,1.948 -6.706,2.475c-1.457,-0.437 -2.838,-0.478 -3.492,-0.101c-0.521,0.301 -0.445,0.785 -0.365,1.239c0.224,1.254 1.548,2.212 2.613,3.266c0.578,0.575 1.255,1.651 2.317,1.957c1.335,0.384 2.008,-0.435 3.271,-0.571c1.4,-0.15 2.929,0.373 4.314,0.145c0.426,-0.04 0.852,-0.466 1.103,-1.845c3.659,-2.666 7.627,-5.392 11.914,-8.148c8.098,-5.207 16.731,-10.128 25.852,-14.737c5.852,-1.319 11.933,-2.271 18.137,-2.842c6.205,-0.57 22.155,-2.02 66.905,7.191c2.099,0.394 4.093,0.955 5.926,1.664c4.919,1.962 5.463,3.901 7.41,3.923c3.363,0.039 6.695,-5.706 8.251,-10.68c1.741,-5.536 1.655,-11.212 -0.255,-16.729c-2.746,-7.581 -5.283,-14.515 -14.436,-17.427c-3.785,-1.201 -9.365,-1.933 -12.032,-5.049c-1.152,-1.346 -0.787,-2.005 -1.715,-3.626c-0.396,-0.751 -2.051,-3.459 -9.613,-7.061c-18.259,-8.701 -35.986,-10.849 -35.986,-10.849c0,-0 -20.686,-2.552 -43.795,2.778c-2.583,0.613 -5.93,1.539 -6.227,2.993c-0.388,1.801 3.971,3.418 5.603,4.114c10.366,4.504 10.066,15.659 9.468,37.966c0,-0 -0.186,5.994 -3.982,10.562Z" style="fill:#fbed21;fill-rule:nonzero;"/><path d="M63.275,113.7c-0.206,0.246 -0.407,0.467 -0.407,0.467c-0.757,0.802 -2.233,1.953 -7.114,4.964c-8.007,4.93 -15.296,9.371 -26.959,13.961c-2.814,1.107 -5.184,1.948 -6.706,2.475c-1.457,-0.437 -2.838,-0.478 -3.492,-0.101c-0.521,0.301 -0.445,0.785 -0.365,1.239c0.224,1.254 1.548,2.212 2.613,3.266c0.578,0.575 1.255,1.651 2.317,1.957c1.335,0.384 2.008,-0.435 3.271,-0.571c1.4,-0.15 2.929,0.373 4.314,0.145c0.426,-0.04 0.852,-0.466 1.103,-1.845c3.659,-2.666 7.627,-5.392 11.914,-8.148c8.098,-5.207 16.731,-10.128 25.852,-14.737c5.852,-1.319 11.933,-2.271 18.137,-2.842c6.205,-0.57 22.155,-2.02 66.905,7.191c2.099,0.394 4.093,0.955 5.926,1.664c4.919,1.962 5.463,3.901 7.41,3.923c3.363,0.039 6.695,-5.706 8.251,-10.68c1.741,-5.536 1.655,-11.212 -0.255,-16.729c-2.746,-7.581 -5.283,-14.515 -14.436,-17.427c-3.785,-1.201 -9.365,-1.933 -12.032,-5.049c-1.152,-1.346 -0.787,-2.005 -1.715,-3.626c-0.396,-0.751 -2.051,-3.459 -9.613,-7.061c-18.259,-8.701 -35.986,-10.849 -35.986,-10.849c0,-0 -20.686,-2.552 -43.795,2.778c-2.583,0.613 -5.93,1.539 -6.227,2.993c-0.388,1.801 3.971,3.418 5.603,4.114c10.366,4.504 10.066,15.659 9.468,37.966c0,-0 -0.186,5.994 -3.982,10.562Z" style="fill:#919191;fill-opacity:0.48;fill-rule:nonzero;"/><path d="M63.306,110.821c-0.205,0.246 -0.407,0.468 -0.407,0.468c-0.757,0.802 -2.233,1.953 -7.113,4.964c-8.007,4.93 -15.296,9.371 -26.959,13.961c-2.815,1.107 -5.185,1.948 -6.706,2.475c-1.457,-0.437 -2.426,1.2 -3.08,1.578c-0.521,0.301 -0.89,2.04 -0.81,2.495c0.225,1.254 1.581,-0.724 2.646,0.331c0.578,0.575 1.255,1.651 2.316,1.956c1.336,0.385 2.009,-0.434 3.272,-0.571c1.4,-0.149 2.929,0.374 4.314,0.145c0.426,-0.039 0.852,-0.465 1.103,-1.844c3.659,-2.667 7.627,-5.392 11.914,-8.148c8.097,-5.208 16.73,-10.129 25.852,-14.737c5.852,-1.319 11.933,-2.272 18.137,-2.842c6.204,-0.57 22.154,-2.021 66.904,7.19c2.099,0.395 4.094,0.955 5.927,1.665c4.918,1.961 5.224,6.878 7.172,6.9c3.362,0.039 6.933,-8.683 8.489,-13.658c1.741,-5.535 1.655,-11.211 -0.255,-16.728c-2.746,-7.582 -5.284,-14.515 -14.436,-17.427c-3.785,-1.202 -9.365,-1.933 -12.032,-5.05c-1.153,-1.346 -0.787,-2.005 -1.716,-3.625c-0.395,-0.752 -2.05,-3.46 -9.612,-7.061c-18.259,-8.702 -35.986,-10.85 -35.986,-10.85c0,0 -20.686,-2.552 -43.795,2.779c-2.583,0.612 -6.109,4.74 -6.406,6.193c-0.388,1.801 4.15,0.217 5.782,0.914c10.366,4.504 10.065,15.659 9.468,37.966c0,-0 -0.186,5.993 -3.983,10.561Z" style="fill:#fbed21;fill-rule:nonzero;"/></svg>