<?xml version="1.0" encoding="UTF-8" standalone="no"?><!DOCTYPE svg PUBLIC "-//W3C//DTD SVG 1.1//EN" "http://www.w3.org/Graphics/SVG/1.1/DTD/svg11.dtd"><svg width="100%" height="100%" viewBox="0 0 200 200" version="1.1" xmlns="http://www.w3.org/2000/svg" xmlns:xlink="http://www.w3.org/1999/xlink" xml:space="preserve" xmlns:serif="http://www.serif.com/" style="fill-rule:evenodd;clip-rule:evenodd;stroke-linejoin:round;stroke-miterlimit:2;"><path d="M90.099,80.499c-0.226,-0.089 -0.481,-0.201 -0.481,-0.201c-0.126,-0.052 -0.208,-0.09 -0.208,-0.09c-1.16,-0.528 -2.761,-1.492 -6.796,-4.566c-6.611,-5.033 -12.546,-9.605 -18.038,-16.533c-1.32,-1.669 -2.289,-3.062 -2.891,-3.954c0.924,-0.708 1.211,-1.434 0.708,-1.843c-0.398,-0.325 -1.181,-0.361 -1.916,-0.387c-2.039,-0.081 -3.772,0.475 -5.622,0.876c-1.009,0.217 -2.832,0.407 -3.483,0.926c-0.82,0.648 0.374,1.134 0.396,1.83c0.018,0.768 -1.057,1.499 -0.913,2.269c-0.007,0.23 0.606,0.524 2.767,0.875c3.678,2.365 7.402,4.904 11.132,7.619c7.03,5.127 13.521,10.492 19.438,16.067c1.953,2.381 4.468,6.471 1.68,10.094c-1.09,1.417 -4.655,4.919 -27.305,7.607c-25.925,3.092 -42.168,0.994 -44.106,4.462c-0.984,1.754 1.715,4.879 5.295,6.371c1.837,0.764 2.36,0.457 3.855,1.134c4.35,1.924 2.445,5.509 4.936,9.046c1.153,1.638 3.669,3.885 9.964,5.914c28.723,-12.157 35.612,-14.792 35.857,-14.608c0.245,0.185 -8.002,3.471 -16.083,9.489c-4.201,3.129 -7.748,6.534 -10.568,10.143c8.103,0.212 11.915,1.587 13.7,3.184c1.593,1.429 0.755,2.312 2.596,3.562c2.943,1.998 7.308,1.227 14.218,2.2c8.269,1.161 6.941,2.942 13.153,3.521c7.637,0.701 17.225,-1.306 23.154,-3.95c1.744,-0.778 3.431,-1.723 6.415,-2.058c3.951,-0.435 5.902,0.699 9.244,0.314c1.904,-0.22 4.589,-0.969 7.333,-3.564c-0.945,-2.021 -2.39,-4.876 -4.468,-8.238c-5.863,-9.475 -11.689,-14.783 -10.786,-15.116c0.903,-0.334 7.284,5.109 22.749,16.075c1.725,1.226 3.193,2.252 4.274,3.008c2.892,-0.721 5.497,-1.777 7.652,-3.104c2.869,-1.799 2.875,-2.904 6.366,-4.804c2.258,-1.233 2.701,-1.012 5.429,-2.444c2.092,-1.097 4.147,-2.179 5.645,-3.805c1.319,-1.436 1.172,-2.169 2.8,-7.426c0.412,-1.332 0.753,-2.4 0.985,-3.049c-7.786,-2.437 -15.828,-4.591 -24.08,-6.448c-12.031,-2.707 -20.054,-3.794 -19.911,-4.179c0.143,-0.386 8.542,0.064 46.761,4.091c1.183,-2.808 1.654,-5.701 1.398,-8.588c-0.226,-2.696 -1.946,-5.926 -5.348,-12.396c-3.222,-6.112 -4.214,-7.001 -5.662,-7.835c-3.16,-1.828 -6.315,-2.135 -7.778,-4.332c-1.177,-1.774 0.275,-2.478 -0.503,-4.514c-0.986,-2.592 -4.924,-5.581 -8.459,-5.615c-5.115,-0.042 -5.791,6.142 -15.43,13.536c-3.879,2.98 -11.986,9.087 -25.372,11.057c-13.154,1.932 -23.542,-1.56 -23.693,-1.623Z" style="fill:#ebdc07;fill-rule:nonzero;"/><path d="M90.099,80.499c-0.226,-0.089 -0.481,-0.201 -0.481,-0.201c-0.126,-0.052 -0.208,-0.09 -0.208,-0.09c-1.16,-0.528 -2.761,-1.492 -6.796,-4.566c-6.611,-5.033 -12.546,-9.605 -18.038,-16.533c-1.32,-1.669 -2.289,-3.062 -2.891,-3.954c0.924,-0.708 1.211,-1.434 0.708,-1.843c-0.398,-0.325 -1.181,-0.361 -1.916,-0.387c-2.039,-0.081 -3.772,0.475 -5.622,0.876c-1.009,0.217 -2.832,0.407 -3.483,0.926c-0.82,0.648 0.374,1.134 0.396,1.83c0.018,0.768 -1.057,1.499 -0.913,2.269c-0.007,0.23 0.606,0.524 2.767,0.875c3.678,2.365 7.402,4.904 11.132,7.619c7.03,5.127 13.521,10.492 19.438,16.067c1.953,2.381 4.468,6.471 1.68,10.094c-1.09,1.417 -4.655,4.919 -27.305,7.607c-25.925,3.092 -42.168,0.994 -44.106,4.462c-0.984,1.754 1.715,4.879 5.295,6.371c1.837,0.764 2.36,0.457 3.855,1.134c4.35,1.924 2.445,5.509 4.936,9.046c1.153,1.638 3.669,3.885 9.964,5.914c28.723,-12.157 35.612,-14.792 35.857,-14.608c0.245,0.185 -8.002,3.471 -16.083,9.489c-4.201,3.129 -7.748,6.534 -10.568,10.143c8.103,0.212 11.915,1.587 13.7,3.184c1.593,1.429 0.755,2.312 2.596,3.562c2.943,1.998 7.308,1.227 14.218,2.2c8.269,1.161 6.941,2.942 13.153,3.521c7.637,0.701 17.225,-1.306 23.154,-3.95c1.744,-0.778 3.431,-1.723 6.415,-2.058c3.951,-0.435 5.902,0.699 9.244,0.314c1.904,-0.22 4.589,-0.969 7.333,-3.564c-0.945,-2.021 -2.39,-4.876 -4.468,-8.238c-5.863,-9.475 -11.689,-14.783 -10.786,-15.116c0.903,-0.334 7.284,5.109 22.749,16.075c1.725,1.226 3.193,2.252 4.274,3.008c2.892,-0.721 5.497,-1.777 7.652,-3.104c2.869,-1.799 2.875,-2.904 6.366,-4.804c2.258,-1.233 2.701,-1.012 5.429,-2.444c2.092,-1.097 4.147,-2.179 5.645,-3.805c1.319,-1.436 1.172,-2.169 2.8,-7.426c0.412,-1.332 0.753,-2.4 0.985,-3.049c-7.786,-2.437 -15.828,-4.591 -24.08,-6.448c-12.031,-2.707 -20.054,-3.794 -19.911,-4.179c0.143,-0.386 8.542,0.064 46.761,4.091c1.183,-2.808 1.654,-5.701 1.398,-8.588c-0.226,-2.696 -1.946,-5.926 -5.348,-12.396c-3.222,-6.112 -4.214,-7.001 -5.662,-7.835c-3.16,-1.828 -6.315,-2.135 -7.778,-4.332c-1.177,-1.774 0.275,-2.478 -0.503,-4.514c-0.986,-2.592 -4.924,-5.581 -8.459,-5.615c-5.115,-0.042 -5.791,6.142 -15.43,13.536c-3.879,2.98 -11.986,9.087 -25.372,11.057c-13.154,1.932 -23.542,-1.56 -23.693,-1.623Z" style="fill:#8d8d8d;fill-opacity:0.44;fill-rule:nonzero;"/><path d="M90.276,76.729c-0.226,-0.089 -0.482,-0.201 -0.482,-0.201c-0.125,-0.052 -0.208,-0.09 -0.208,-0.09c-1.16,-0.528 -2.761,-1.492 -6.795,-4.566c-6.611,-5.033 -12.547,-9.605 -18.038,-16.533c-1.32,-1.669 -2.289,-3.062 -2.891,-3.954c0.924,-0.708 1.211,-1.434 0.708,-1.843c-0.398,-0.325 -1.181,-0.361 -1.916,-0.387c-2.039,-0.081 -3.772,0.475 -5.622,0.876c-1.009,0.217 -2.832,0.407 -3.484,0.926c-0.819,0.648 -0.609,3.522 -0.587,4.218c0.018,0.768 -0.227,2.923 -0.084,3.693c-0.006,0.23 2.609,-1.16 4.77,-0.809c3.679,2.366 5.554,2.776 9.284,5.491c7.03,5.127 13.52,10.492 19.438,16.067c1.953,2.381 4.468,6.471 1.68,10.094c-1.09,1.417 -4.655,4.919 -27.305,7.607c-25.925,3.092 -42.23,4.71 -44.168,8.177c-0.984,1.754 1.777,1.164 5.357,2.656c1.836,0.764 2.36,0.457 3.855,1.134c4.35,1.924 2.445,5.509 4.936,9.046c1.153,1.638 3.619,7.482 9.914,9.511c25.902,-15.844 35.662,-18.389 35.907,-18.205c0.244,0.185 -8.002,3.471 -16.083,9.489c-4.201,3.129 -7.811,10.012 -10.631,13.621c8.102,0.212 11.978,-1.891 13.763,-0.294c1.593,1.429 0.755,2.312 2.596,3.562c2.943,1.998 7.308,1.227 14.218,2.2c8.269,1.161 6.941,2.942 13.153,3.521c7.636,0.701 17.225,-1.306 23.154,-3.95c1.744,-0.778 3.43,-1.723 6.415,-2.058c3.951,-0.435 5.902,0.699 9.244,0.314c1.904,-0.22 4.313,2.202 7.057,-0.392c-0.946,-2.021 -2.115,-8.048 -4.193,-11.41c-5.862,-9.475 -11.688,-14.783 -10.786,-15.116c0.903,-0.334 7.285,5.109 22.75,16.075c1.725,1.226 3.049,5.732 4.131,6.488c2.892,-0.72 5.64,-5.257 7.795,-6.584c2.869,-1.799 2.875,-2.904 6.366,-4.804c2.258,-1.233 2.701,-1.012 5.429,-2.444c2.092,-1.097 4.147,-2.179 5.645,-3.805c1.319,-1.436 3.565,-6.156 3.797,-6.805c-7.786,-2.437 -15.841,-8.261 -24.092,-10.118c-12.031,-2.707 -20.054,-3.794 -19.912,-4.179c0.143,-0.386 10.402,-0.856 46.607,7.607c1.183,-2.809 1.809,-9.217 1.553,-12.104c-0.226,-2.696 -1.946,-5.926 -5.348,-12.396c-3.222,-6.112 -4.214,-7.001 -5.662,-7.835c-3.16,-1.828 -6.315,-2.135 -7.778,-4.332c-1.177,-1.774 0.275,-2.478 -0.504,-4.514c-0.985,-2.592 -4.923,-5.581 -8.458,-5.615c-5.116,-0.042 -5.791,6.142 -15.43,13.536c-3.879,2.98 -11.986,9.087 -25.372,11.057c-13.154,1.932 -23.542,-1.56 -23.693,-1.623Z" style="fill:#ebdc07;fill-rule:nonzero;"/></svg>
