<?xml version="1.0" encoding="UTF-8" standalone="no"?><!DOCTYPE svg PUBLIC "-//W3C//DTD SVG 1.1//EN" "http://www.w3.org/Graphics/SVG/1.1/DTD/svg11.dtd"><svg width="100%" height="100%" viewBox="0 0 200 200" version="1.1" xmlns="http://www.w3.org/2000/svg" xmlns:xlink="http://www.w3.org/1999/xlink" xml:space="preserve" xmlns:serif="http://www.serif.com/" style="fill-rule:evenodd;clip-rule:evenodd;stroke-linejoin:round;stroke-miterlimit:2;"><path d="M73.072,109.862c-0.191,0.228 -0.378,0.433 -0.378,0.433c-0.702,0.744 -2.07,1.811 -6.596,4.603c-7.425,4.572 -14.183,8.69 -24.998,12.946c-2.61,1.026 -4.808,1.806 -6.219,2.295c-1.351,-0.405 -2.631,-0.444 -3.238,-0.094c-0.483,0.279 -0.412,0.727 -0.338,1.149c0.208,1.163 1.435,2.051 2.423,3.028c0.536,0.534 1.164,1.532 2.148,1.815c1.238,0.356 1.863,-0.403 3.034,-0.53c1.298,-0.138 2.716,0.347 4.017,0.145c0.395,-0.037 0.79,-0.432 1.023,-1.711c3.393,-2.472 7.069,-4.997 11.048,-7.555c7.508,-4.829 15.513,-9.392 23.971,-13.665c3.574,-1.293 9.616,-3.002 16.819,-2.635c15.816,0.826 25.721,11.184 28.081,13.626c9.799,10.227 11.912,14.49 11.912,14.49c0.86,1.718 1.485,3.374 3.559,3.757c3.46,0.637 6.617,-3.055 18.19,-9.545c7.478,-4.191 9.728,-4.647 12.032,-7.464c2.194,-2.684 0.878,-3.159 3.968,-7.313c2.201,-2.965 4.067,-4.328 3.27,-6.258c-0.695,-1.697 -2.564,-1.701 -3.824,-3.259c-2.666,-3.307 3.817,-5.669 4.639,-11.606c0.222,-1.594 0.825,-5.926 -3.27,-9.451c-1.436,-1.236 -3.549,-2.456 -4.938,-4.888c-0.928,-1.647 -0.597,-2.213 -1.327,-3.417c-0.878,-1.44 -2.984,-3.303 -8.515,-4.989c-1.53,0.114 -4.028,0.313 -7.104,0.602c-7.104,0.668 -9.354,1.072 -10.017,0.489c-1.016,-0.888 2.384,-3.279 3.566,-4.095c2.772,-1.951 4.409,-2.139 4.363,-2.927c-0.021,-1.437 -5.629,-1.71 -12.702,-3.948c-8.166,-2.589 -7.442,-4.371 -14.924,-6.332c-3.301,-0.867 -6.734,-1.203 -13.591,-1.871c-8.546,-0.833 -12.822,-1.253 -18.19,-1.082c-10.709,0.334 -18.762,2.609 -22.353,3.643c-6.733,1.945 -5.083,2.361 -13.982,5.108c-8.124,2.507 -11.09,2.647 -14.462,5.091c-2.353,1.693 -2.138,2.497 -5.7,4.88c-2.939,1.969 -4.939,2.655 -4.653,3.59c0.399,1.285 4.737,1.745 7.605,2.195c5.813,0.913 10.356,2.917 19.45,6.92c10.007,4.405 19.421,8.554 19.883,14.034c0.307,3.794 -3.562,9.649 -3.682,9.796Z" style="fill:#e8d90f;fill-rule:nonzero;"/><path d="M73.01,109.871c-0.191,0.228 -0.377,0.433 -0.377,0.433c-0.702,0.744 -2.071,1.811 -6.597,4.603c-7.425,4.572 -14.183,8.69 -24.998,12.946c-2.61,1.026 -4.808,1.806 -6.218,2.295c-1.351,-0.405 -2.632,-0.444 -3.239,-0.094c-0.483,0.279 -0.412,0.727 -0.338,1.149c0.208,1.163 1.435,2.051 2.423,3.028c0.536,0.534 1.164,1.532 2.148,1.815c1.238,0.356 1.863,-0.403 3.034,-0.53c1.298,-0.138 2.716,0.347 4.017,0.145c0.395,-0.037 0.791,-0.432 1.023,-1.711c3.394,-2.472 7.069,-4.997 11.048,-7.555c7.509,-4.829 15.514,-9.392 23.972,-13.665c3.573,-1.293 9.615,-3.002 16.818,-2.635c15.816,0.826 25.721,11.184 28.081,13.626c9.799,10.227 11.912,14.49 11.912,14.49c0.86,1.718 1.485,3.374 3.559,3.757c3.46,0.637 6.617,-3.055 18.19,-9.545c7.478,-4.191 9.729,-4.647 12.032,-7.464c2.194,-2.684 0.878,-3.159 3.968,-7.313c2.201,-2.965 4.067,-4.328 3.27,-6.258c-0.695,-1.697 -2.564,-1.701 -3.824,-3.259c-2.666,-3.307 3.817,-5.669 4.639,-11.606c0.222,-1.594 0.825,-5.926 -3.27,-9.451c-1.436,-1.236 -3.548,-2.456 -4.938,-4.888c-0.928,-1.647 -0.596,-2.213 -1.326,-3.417c-0.879,-1.44 -2.985,-3.303 -8.515,-4.989c-1.531,0.114 -4.029,0.313 -7.104,0.602c-7.105,0.668 -9.355,1.072 -10.018,0.489c-1.016,-0.888 2.384,-3.279 3.566,-4.095c2.773,-1.951 4.409,-2.138 4.363,-2.927c-0.021,-1.437 -5.629,-1.71 -12.702,-3.948c-8.165,-2.589 -7.442,-4.371 -14.924,-6.332c-3.301,-0.867 -6.733,-1.203 -13.59,-1.871c-8.547,-0.833 -12.822,-1.253 -18.191,-1.082c-10.709,0.334 -18.762,2.609 -22.353,3.643c-6.733,1.945 -5.082,2.361 -13.982,5.108c-8.123,2.507 -11.09,2.648 -14.462,5.091c-2.353,1.693 -2.138,2.497 -5.7,4.88c-2.938,1.969 -4.938,2.655 -4.653,3.59c0.399,1.285 4.738,1.745 7.605,2.195c5.813,0.913 10.356,2.917 19.45,6.921c10.007,4.404 19.421,8.553 19.883,14.033c0.307,3.794 -3.562,9.649 -3.682,9.796Z" style="fill:#848484;fill-opacity:0.52;fill-rule:nonzero;"/><path d="M72.841,107.627c-0.191,0.228 -0.378,0.434 -0.378,0.434c-0.702,0.743 -2.07,1.81 -6.596,4.602c-7.425,4.572 -14.183,8.69 -24.998,12.946c-2.61,1.027 -4.808,1.807 -6.219,2.296c-1.351,-0.406 -2.671,1.915 -3.278,2.265c-0.483,0.279 -0.045,1.077 0.029,1.499c0.208,1.163 1.108,-0.659 2.096,0.319c0.536,0.533 1.164,1.531 2.148,1.814c1.238,0.357 1.862,-0.403 3.033,-0.529c1.299,-0.139 3.104,2.693 4.406,2.491c0.395,-0.037 0.649,-0.649 0.882,-1.928c3.393,-2.472 6.822,-7.127 10.801,-9.685c7.508,-4.828 15.513,-9.391 23.971,-13.665c3.574,-1.293 9.616,-3.001 16.819,-2.635c15.816,0.827 25.721,11.185 28.081,13.626c9.799,10.228 11.911,14.49 11.911,14.49c0.861,1.719 1.485,3.375 3.56,3.757c3.46,0.638 6.617,-3.054 18.19,-9.545c7.478,-4.191 9.728,-4.647 12.032,-7.463c2.194,-2.684 0.878,-3.159 3.968,-7.313c2.201,-2.966 4.339,-2.102 3.542,-4.033c-0.695,-1.696 -2.837,-3.926 -4.096,-5.484c-2.667,-3.307 3.817,-5.67 4.639,-11.606c0.222,-1.595 0.825,-5.926 -3.27,-9.451c-1.436,-1.237 -3.549,-2.457 -4.939,-4.888c-0.927,-1.648 -0.596,-2.214 -1.326,-3.417c-0.878,-1.44 -2.984,-3.304 -8.515,-4.99c-1.531,0.114 -4.028,0.314 -7.104,0.603c-7.104,0.668 -9.354,1.071 -10.017,0.489c-1.016,-0.888 2.384,-3.279 3.566,-4.096c2.772,-1.951 4.684,0.024 4.638,-0.764c-0.021,-1.438 -5.905,-3.873 -12.977,-6.111c-8.166,-2.588 -7.443,-4.37 -14.924,-6.331c-3.302,-0.868 -6.734,-1.204 -13.591,-1.872c-8.547,-0.833 -12.822,-1.252 -18.19,-1.081c-10.709,0.334 -18.762,2.608 -22.353,3.643c-6.734,1.945 -5.083,2.36 -13.982,5.108c-8.124,2.506 -11.09,2.647 -14.462,5.091c-2.353,1.692 -2.138,2.497 -5.7,4.879c-2.939,1.97 -4.616,4.57 -4.331,5.505c0.399,1.285 4.415,-0.169 7.283,0.281c5.813,0.912 10.356,2.916 19.45,6.92c10.007,4.405 19.421,8.553 19.883,14.034c0.307,3.794 -3.562,9.649 -3.682,9.795Z" style="fill:#e8d90f;fill-rule:nonzero;"/></svg>
