<?xml version="1.0" encoding="UTF-8" standalone="no"?><!DOCTYPE svg PUBLIC "-//W3C//DTD SVG 1.1//EN" "http://www.w3.org/Graphics/SVG/1.1/DTD/svg11.dtd"><svg width="100%" height="100%" viewBox="0 0 200 200" version="1.1" xmlns="http://www.w3.org/2000/svg" xmlns:xlink="http://www.w3.org/1999/xlink" xml:space="preserve" xmlns:serif="http://www.serif.com/" style="fill-rule:evenodd;clip-rule:evenodd;stroke-linejoin:round;stroke-miterlimit:2;"><path d="M130.867,96.476c0.196,-0.118 0.44,-0.248 0.44,-0.248c0.113,-0.065 0.194,-0.107 0.194,-0.107c1.136,-0.589 3.118,-1.361 9.249,-3.193c10.04,-3.002 19.15,-5.689 32.335,-7.7c3.176,-0.482 5.803,-0.808 7.483,-1.004c1.087,0.667 2.317,0.963 3.128,0.74c0.642,-0.177 0.843,-0.631 1.019,-1.059c0.5,-1.185 -0.175,-2.301 -0.557,-3.459c-0.205,-0.632 -0.221,-1.738 -1.022,-2.212c-0.999,-0.595 -6.106,-0.977 -7.337,-1.087c-1.357,-0.124 -5.116,-0.647 -6.5,-0.698c-0.405,-0.044 1.588,1.738 0.59,2.947c-4.82,1.747 -5.875,2.778 -11.319,4.494c-10.279,3.232 -20.885,6.105 -31.76,8.604c-4.543,0.73 -12.2,1.491 -18.1,-0.786c-2.307,-0.89 -7.859,-3.601 -8.62,-17.392c-0.896,-15.788 -0.884,-25.659 -6.659,-27.409c-2.921,-0.887 -2.365,0.841 -5.627,2.683c-1.67,0.946 -1.222,1.308 -2.678,2.068c-4.158,2.219 -10.147,0.469 -16.825,1.312c-3.092,0.39 -13.835,0.813 -18.52,4.158c23.396,18.015 26.17,24.201 25.801,24.313c-0.368,0.111 -4.716,-5.315 -13.911,-11.125c-4.782,-3.02 -16.287,-6.352 -22.158,-8.645c-1.798,4.727 1.229,7.375 -1.901,8.144c-2.801,0.686 -4.212,0.038 -6.74,0.9c-4.041,1.38 -3.449,4.082 -6.38,7.974c-3.502,4.658 -6.409,3.564 -8.523,7.115c-2.579,4.367 -0.725,10.358 2.898,14.309c1.065,1.162 2.436,2.32 2.502,4.133c0.072,2.4 -2.27,3.348 -2.179,5.381c0.053,1.158 -4.643,2.149 -0.549,4.218c3.732,-0.2 14.569,0.172 20.864,-0.459c17.745,-1.782 28.132,-4.275 28.561,-3.685c0.43,0.59 -10.294,3.385 -32.356,10.551c-2.466,0.799 -10.647,0.785 -12.171,1.288c0.763,1.828 8.283,4.241 10.244,5.741c2.669,2.003 4.617,2.201 7.356,4.588c1.777,1.544 1.31,1.766 3.357,3.622c1.567,1.423 3.115,2.821 5.72,3.988c2.301,1.028 10.231,3.178 11.336,3.429c5.668,-4.15 17.356,-7.862 22.083,-12.388c6.889,-6.598 10.217,-11.125 10.872,-10.973c0.656,0.152 -0.319,6.267 -21.611,26.067c4.746,1.19 15.941,2.684 21.078,3.041c4.795,0.341 10.796,-0.102 22.806,-0.965c11.349,-0.821 13.092,-1.248 14.818,-1.952c3.779,-1.537 4.875,-3.338 9.008,-3.812c3.336,-0.381 4.322,0.597 8.051,0.497c4.745,-0.124 10.71,-1.914 11.391,-3.986c0.974,-3.001 -9.815,-4.485 -21.165,-11.453c-4.575,-2.804 -13.922,-8.645 -15.044,-16.862c-1.095,-8.074 6.89,-13.569 7.028,-13.646Z" style="fill:#ecdc00;fill-rule:nonzero;"/><path d="M130.867,96.476c0.196,-0.118 0.44,-0.248 0.44,-0.248c0.113,-0.065 0.194,-0.107 0.194,-0.107c1.136,-0.589 3.118,-1.361 9.249,-3.193c10.04,-3.002 19.15,-5.689 32.335,-7.7c3.176,-0.482 5.803,-0.808 7.483,-1.004c1.087,0.667 2.317,0.963 3.128,0.74c0.642,-0.177 0.843,-0.631 1.019,-1.059c0.5,-1.185 -0.175,-2.301 -0.557,-3.459c-0.205,-0.632 -0.221,-1.738 -1.022,-2.212c-0.999,-0.595 -6.106,-0.977 -7.337,-1.087c-1.357,-0.124 -5.116,-0.647 -6.5,-0.698c-0.405,-0.044 1.588,1.738 0.59,2.947c-4.82,1.747 -5.875,2.778 -11.319,4.494c-10.279,3.232 -20.885,6.105 -31.76,8.604c-4.543,0.73 -12.2,1.491 -18.1,-0.786c-2.307,-0.89 -7.859,-3.601 -8.62,-17.392c-0.896,-15.788 -0.884,-25.659 -6.659,-27.409c-2.921,-0.887 -2.365,0.841 -5.627,2.683c-1.67,0.946 -1.222,1.308 -2.678,2.068c-4.158,2.219 -10.147,0.469 -16.825,1.312c-3.092,0.39 -13.835,0.813 -18.52,4.158c23.396,18.015 26.17,24.201 25.801,24.313c-0.368,0.111 -4.716,-5.315 -13.911,-11.125c-4.782,-3.02 -16.287,-6.352 -22.158,-8.645c-1.798,4.727 1.229,7.375 -1.901,8.144c-2.801,0.686 -4.212,0.038 -6.74,0.9c-4.041,1.38 -3.449,4.082 -6.38,7.974c-3.502,4.658 -6.409,3.564 -8.523,7.115c-2.579,4.367 -0.725,10.358 2.898,14.309c1.065,1.162 2.436,2.32 2.502,4.133c0.072,2.4 -2.27,3.348 -2.179,5.381c0.053,1.158 -4.643,2.149 -0.549,4.218c3.732,-0.2 14.569,0.172 20.864,-0.459c17.745,-1.782 28.132,-4.275 28.561,-3.685c0.43,0.59 -10.294,3.385 -32.356,10.551c-2.466,0.799 -10.647,0.785 -12.171,1.288c0.763,1.828 8.283,4.241 10.244,5.741c2.669,2.003 4.617,2.201 7.356,4.588c1.777,1.544 1.31,1.766 3.357,3.622c1.567,1.423 3.115,2.821 5.72,3.988c2.301,1.028 10.231,3.178 11.336,3.429c5.668,-4.15 17.356,-7.862 22.083,-12.388c6.889,-6.598 10.217,-11.125 10.872,-10.973c0.656,0.152 -0.319,6.267 -21.611,26.067c4.746,1.19 15.941,2.684 21.078,3.041c4.795,0.341 10.796,-0.102 22.806,-0.965c11.349,-0.821 13.092,-1.248 14.818,-1.952c3.779,-1.537 4.875,-3.338 9.008,-3.812c3.336,-0.381 4.322,0.597 8.051,0.497c4.745,-0.124 10.71,-1.914 11.391,-3.986c0.974,-3.001 -9.815,-4.485 -21.165,-11.453c-4.575,-2.804 -13.922,-8.645 -15.044,-16.862c-1.095,-8.074 6.89,-13.569 7.028,-13.646Z" style="fill:#878787;fill-opacity:0.46;fill-rule:nonzero;"/><path d="M130.874,92.945c0.197,-0.118 0.44,-0.248 0.44,-0.248c0.114,-0.065 0.194,-0.107 0.194,-0.107c1.137,-0.589 3.118,-1.361 9.249,-3.193c10.04,-3.002 19.15,-5.689 32.335,-7.7c3.177,-0.483 5.804,-0.808 7.483,-1.004c1.088,0.667 2.004,3.425 2.815,3.201c0.643,-0.177 1.173,-1.4 1.349,-1.828c0.501,-1.185 -0.192,-3.993 -0.574,-5.151c-0.205,-0.632 -0.221,-1.738 -1.022,-2.212c-0.999,-0.595 -6.106,-0.977 -7.336,-1.087c-1.358,-0.124 -4.913,1.04 -5.911,2.249c-4.82,1.747 -5.875,2.777 -11.319,4.494c-10.279,3.232 -20.885,6.105 -31.76,8.604c-4.543,0.73 -12.199,1.49 -18.1,-0.786c-2.307,-0.89 -7.859,-3.602 -8.619,-17.392c-0.897,-15.788 -0.885,-25.659 -6.66,-27.409c-2.921,-0.887 -2.365,0.841 -5.626,2.683c-1.671,0.946 -1.222,1.308 -2.678,2.068c-4.159,2.219 -10.148,0.469 -16.826,1.312c-3.092,0.39 -13.924,4.121 -18.609,7.466c23.407,13.204 26.259,20.893 25.89,21.005c-0.368,0.111 -4.716,-5.315 -13.91,-11.125c-4.783,-3.02 -16.288,-6.352 -22.159,-8.645c-1.798,4.727 1.229,7.375 -1.9,8.144c-2.802,0.686 -4.213,0.038 -6.741,0.9c-4.041,1.38 -3.448,4.082 -6.38,7.974c-3.501,4.658 -6.409,3.564 -8.523,7.115c-2.579,4.367 -0.724,10.358 2.898,14.309c1.065,1.162 2.437,2.32 2.502,4.133c0.072,2.4 -2.27,3.348 -2.179,5.381c0.054,1.158 -5.444,4.884 -1.349,6.954c3.731,-0.201 15.37,-2.564 21.665,-3.195c17.744,-1.782 28.131,-4.275 28.561,-3.685c0.429,0.589 -10.294,3.385 -32.357,10.551c-2.465,0.799 -10.975,3.789 -12.499,4.293c0.763,1.827 8.611,1.236 10.572,2.736c2.67,2.003 4.618,2.201 7.356,4.588c1.778,1.544 1.311,1.766 3.357,3.622c1.568,1.423 3.115,2.821 5.72,3.988c2.301,1.028 10.223,6.702 11.328,6.953c5.668,-4.15 17.365,-11.386 22.091,-15.912c6.89,-6.598 10.218,-11.125 10.873,-10.973c0.655,0.152 -0.289,9.825 -21.581,29.626c4.746,1.189 15.91,-0.875 21.047,-0.518c4.796,0.341 10.796,-0.103 22.807,-0.965c11.348,-0.821 13.091,-1.248 14.817,-1.953c3.779,-1.536 4.875,-3.337 9.008,-3.811c3.336,-0.381 4.323,0.597 8.051,0.497c4.745,-0.124 11.132,0.693 11.814,-1.38c0.974,-3 -10.238,-7.091 -21.588,-14.059c-4.575,-2.804 -13.922,-8.645 -15.043,-16.862c-1.096,-8.074 6.89,-13.569 7.027,-13.646Z" style="fill:#ecdc00;fill-rule:nonzero;"/></svg>
