<?xml version="1.0" encoding="UTF-8" standalone="no"?><!DOCTYPE svg PUBLIC "-//W3C//DTD SVG 1.1//EN" "http://www.w3.org/Graphics/SVG/1.1/DTD/svg11.dtd"><svg width="100%" height="100%" viewBox="0 0 200 200" version="1.1" xmlns="http://www.w3.org/2000/svg" xmlns:xlink="http://www.w3.org/1999/xlink" xml:space="preserve" xmlns:serif="http://www.serif.com/" style="fill-rule:evenodd;clip-rule:evenodd;stroke-linejoin:round;stroke-miterlimit:2;"><path d="M126.229,103.116c0.438,-0.114 0.847,-0.212 0.847,-0.212c1.498,-0.345 3.963,-0.721 11.232,-1.391c11.915,-1.093 22.707,-2.054 37.184,-1.78c3.493,0.067 6.333,0.188 8.142,0.276c0.687,0.762 1.751,1.215 2.697,1.144c0.753,-0.056 1.228,-0.428 1.669,-0.78c1.212,-0.972 1.21,-2.067 1.524,-3.153c0.174,-0.592 0.824,-1.575 0.309,-2.121c-0.647,-0.686 -2.098,-0.303 -3.265,-0.592c-1.292,-0.322 -1.941,-1.168 -3.308,-1.429c-0.387,-0.102 -1.203,0.074 -2.936,0.99c-5.904,0.797 -12.121,1.542 -18.629,2.211c-12.295,1.265 -24.702,2.159 -37.155,2.678c-6.172,-0.846 -12.12,-2.027 -17.743,-3.52c-5.624,-1.493 -20.063,-5.344 -45.828,-25.712c-1.25,-0.928 -2.232,-1.943 -2.919,-3.017c-1.778,-2.922 -0.062,-4.486 -1.604,-5.099c-2.661,-1.061 -11.72,2.054 -18.495,5.159c-7.546,3.451 -13.779,7.565 -18.369,12.124c-6.208,6.303 -11.866,12.074 -7.738,16.98c1.71,2.027 5.387,4.266 4.071,7.329c-0.567,1.323 -1.593,1.686 -2.646,3.138c-0.516,0.662 -2.191,3.12 -0.108,8.034c5.025,11.87 16.897,18.858 16.897,18.858c0,-0 13.805,8.186 38.31,11.44c2.757,0.352 6.479,0.712 8.332,-0.244c2.311,-1.178 0.6,-3.68 0.06,-4.682c-3.336,-6.425 9.291,-14.366 34.539,-30.246c-0,-0 6.804,-4.259 14.93,-6.383Z" style="fill:#eedf11;fill-rule:nonzero;"/><path d="M126.229,103.116c0.438,-0.114 0.847,-0.212 0.847,-0.212c1.498,-0.345 3.963,-0.721 11.232,-1.391c11.915,-1.093 22.707,-2.054 37.184,-1.78c3.493,0.067 6.333,0.188 8.142,0.276c0.687,0.762 1.751,1.215 2.697,1.144c0.753,-0.056 1.228,-0.428 1.669,-0.78c1.212,-0.972 1.21,-2.067 1.524,-3.153c0.174,-0.592 0.824,-1.575 0.309,-2.121c-0.647,-0.686 -2.098,-0.303 -3.265,-0.592c-1.292,-0.322 -1.941,-1.168 -3.308,-1.429c-0.387,-0.102 -1.203,0.074 -2.936,0.99c-5.904,0.797 -12.121,1.542 -18.629,2.211c-12.295,1.265 -24.702,2.159 -37.155,2.678c-6.172,-0.846 -12.12,-2.027 -17.743,-3.52c-5.624,-1.493 -20.063,-5.344 -45.828,-25.712c-1.25,-0.928 -2.232,-1.943 -2.919,-3.017c-1.778,-2.922 -0.062,-4.486 -1.604,-5.099c-2.661,-1.061 -11.72,2.054 -18.495,5.159c-7.546,3.451 -13.779,7.565 -18.369,12.124c-6.208,6.303 -11.866,12.074 -7.738,16.98c1.71,2.027 5.387,4.266 4.071,7.329c-0.567,1.323 -1.593,1.686 -2.646,3.138c-0.516,0.662 -2.191,3.12 -0.108,8.034c5.025,11.87 16.897,18.858 16.897,18.858c0,-0 13.805,8.186 38.31,11.44c2.757,0.352 6.479,0.712 8.332,-0.244c2.311,-1.178 0.6,-3.68 0.06,-4.682c-3.336,-6.425 9.291,-14.366 34.539,-30.246c-0,-0 6.804,-4.259 14.93,-6.383Z" style="fill:#838383;fill-opacity:0.49;fill-rule:nonzero;"/><path d="M126.549,100.063c0.439,-0.114 0.847,-0.211 0.847,-0.211c1.499,-0.345 3.964,-0.721 11.233,-1.392c11.914,-1.093 22.707,-2.054 37.184,-1.779c3.493,0.066 6.333,0.188 8.142,0.275c0.687,0.762 1.914,3.694 2.86,3.623c0.753,-0.057 1.065,-2.906 1.506,-3.258c1.211,-0.972 1.325,-0.908 1.639,-1.994c0.174,-0.592 -1.904,-3.583 -3.071,-3.873c-1.292,-0.322 -1.941,-1.168 -3.309,-1.428c-0.386,-0.102 -1.202,0.074 -2.935,0.99c-5.904,0.797 -12.121,1.542 -18.63,2.211c-12.294,1.264 -24.701,2.159 -37.154,2.678c-6.172,-0.847 -12.12,-2.027 -17.744,-3.52c-5.623,-1.494 -20.062,-5.345 -45.827,-25.712c-1.25,-0.928 -2.233,-1.944 -2.919,-3.018c-1.778,-2.921 -0.063,-4.485 -1.605,-5.098c-2.66,-1.061 -11.72,2.054 -18.494,5.158c-7.547,3.452 -13.779,7.566 -18.369,12.125c-6.209,6.302 -11.866,12.074 -7.738,16.98c1.71,2.027 5.386,4.266 4.071,7.329c-0.568,1.323 -1.593,1.685 -2.646,3.137c-0.516,0.663 -2.192,3.12 -0.108,8.035c5.024,11.87 16.897,18.857 16.897,18.857c-0,0 13.804,8.187 38.309,11.441c2.758,0.351 6.252,3.67 8.104,2.714c2.312,-1.178 0.828,-6.638 0.289,-7.641c-3.336,-6.425 9.291,-14.365 34.539,-30.245c-0,-0 6.804,-4.259 14.929,-6.384Z" style="fill:#eedf11;fill-rule:nonzero;"/></svg>
