<?xml version="1.0" encoding="UTF-8" standalone="no"?><!DOCTYPE svg PUBLIC "-//W3C//DTD SVG 1.1//EN" "http://www.w3.org/Graphics/SVG/1.1/DTD/svg11.dtd"><svg width="100%" height="100%" viewBox="0 0 200 200" version="1.1" xmlns="http://www.w3.org/2000/svg" xmlns:xlink="http://www.w3.org/1999/xlink" xml:space="preserve" xmlns:serif="http://www.serif.com/" style="fill-rule:evenodd;clip-rule:evenodd;stroke-linejoin:round;stroke-miterlimit:2;"><path d="M78.407,166.189c-0,-0.641 -0.051,-4.984 0.033,-5.857c0.286,-2.957 2.383,-5.865 6.29,-8.121c8.432,-4.868 22.123,-4.868 30.555,-0c4.215,2.434 6.323,5.627 6.323,8.82c0,0.641 0,4.517 0,5.158c0,3.193 -2.108,6.386 -6.323,8.82c-8.432,4.868 -22.123,4.868 -30.555,-0c-4.215,-2.434 -6.323,-5.627 -6.323,-8.82Z" style="fill:#dedede;fill-opacity:0.81;"/><path d="M84.73,152.211c8.432,-4.868 22.123,-4.868 30.555,-0c8.431,4.868 8.431,12.772 -0,17.64c-8.432,4.868 -22.123,4.868 -30.555,0c-8.431,-4.868 -8.431,-12.772 0,-17.64Z" style="fill:#fff;fill-opacity:0.5;"/><path d="M90.019,153.791c5.497,-3.173 14.422,-3.173 19.919,0c5.497,3.174 5.497,8.327 -0,11.501c-5.497,3.173 -14.422,3.173 -19.919,-0c-5.497,-3.174 -5.497,-8.327 -0,-11.501Z" style="fill:#dedede;fill-opacity:0.5;"/><path d="M115.25,36.255c0.024,7.445 0.08,122.079 -0.047,123.936c-0.145,2.129 -1.624,4.232 -4.436,5.856c-5.93,3.424 -15.56,3.424 -21.491,-0c-2.965,-1.712 -4.448,-3.958 -4.448,-6.204l0.038,-117.873l6.991,-1.346c6.375,2.071 14.609,1.541 20.032,-1.59c1.436,-0.83 2.557,-1.773 3.361,-2.779Z" style="fill:#dedede;fill-opacity:0.5;"/><path d="M84.3,35.448c-0.582,-0.946 -0.901,-1.934 -0.957,-2.926c-0.018,-0.307 -0.017,-1.521 -0.002,-1.821c0.125,-2.373 1.755,-4.724 4.889,-6.534c6.529,-3.769 17.13,-3.769 23.659,0c3.078,1.777 4.704,4.076 4.881,6.405c0.025,0.343 0.023,1.597 0.01,1.881c-0.106,2.389 -1.736,4.76 -4.891,6.581c-5.423,3.131 -13.657,3.661 -20.032,1.59l-7.914,1.523c-0.553,0.107 -1.117,-0.119 -1.443,-0.578c-0.177,-0.248 -0.266,-0.54 -0.267,-0.833c0,-0.226 0.002,-1.09 0,-1.315c-0.001,-0.25 0.063,-0.502 0.193,-0.728l1.874,-3.245Z" style="fill:#dedede;fill-opacity:0.5;"/><path d="M84.3,35.448c-0.582,-0.946 -0.901,-1.934 -0.957,-2.926c-0.018,-0.307 -0.017,-1.521 -0.002,-1.821c0.125,-2.373 1.755,-4.724 4.889,-6.534c6.529,-3.769 17.13,-3.769 23.659,0c3.078,1.777 4.704,4.076 4.881,6.405c0.025,0.343 0.023,1.597 0.01,1.881c-0.106,2.389 -1.736,4.76 -4.891,6.581c-5.423,3.131 -13.657,3.661 -20.032,1.59l-7.914,1.523c-0.553,0.107 -1.117,-0.119 -1.443,-0.578c-0.177,-0.248 -0.266,-0.54 -0.267,-0.833c0,-0.226 0.002,-1.09 0,-1.315c-0.001,-0.25 0.063,-0.502 0.193,-0.728l1.874,-3.245Z" style="fill:#dedede;fill-opacity:0.5;"/><path d="M114.031,37.519c-0.011,19.805 0.095,120.392 -0.04,122.374c-0.135,1.965 -1.5,3.908 -4.097,5.407c-5.477,3.162 -14.37,3.162 -19.847,0c-2.738,-1.581 -4.107,-3.655 -4.107,-5.729c-0,-1.774 0.027,-90.794 0.035,-117.815l5.882,-1.132c6.375,2.071 14.609,1.541 20.032,-1.59c0.816,-0.471 1.53,-0.979 2.142,-1.515Z" style="fill:#fff;fill-opacity:0.5;"/><path d="M85.94,159.571c-0,-2.074 0.037,-53.504 0.037,-55.579c0,-2.074 1.37,-4.148 4.108,-5.729c5.477,-3.162 14.37,-3.162 19.847,0c2.781,1.606 4.15,3.72 4.107,5.827c-0.042,2.041 0.101,53.623 -0.048,55.803c-0.135,1.965 -1.5,3.908 -4.097,5.407c-5.477,3.162 -14.37,3.162 -19.847,0c-2.738,-1.581 -4.107,-3.655 -4.107,-5.729Z" style="fill:#7ad1c7;fill-opacity:0.7;"/><path d="M90.09,98.276c5.47,-3.157 14.35,-3.157 19.82,0c5.469,3.158 5.469,8.285 -0,11.443c-5.47,3.157 -14.35,3.157 -19.82,-0c-5.469,-3.158 -5.469,-8.285 0,-11.443Z" style="fill:#fff;fill-opacity:0.32;"/><path d="M84.668,34.81c-0.582,-0.946 -1.27,-2.216 -1.326,-3.208c-0.018,-0.307 -0.016,-0.601 -0.001,-0.901c0.125,-2.373 1.755,-4.724 4.889,-6.534c6.529,-3.769 17.13,-3.769 23.659,0c3.078,1.777 4.704,4.076 4.881,6.405c0.025,0.343 0.016,0.415 0.003,0.7c-0.106,2.388 -1.736,4.759 -4.891,6.58c-5.423,3.131 -13.657,3.661 -20.032,1.591l-7.913,1.523c-0.553,0.106 -1.117,-0.12 -1.444,-0.579c-0.176,-0.248 -0.266,-0.54 -0.266,-0.832c-0,-0.227 0.008,0.091 0.006,-0.134c-0.001,-0.25 0.063,-0.502 0.193,-0.728l2.242,-3.883Zm1.704,-0.004c-2.729,-3.267 -1.748,-7.311 2.942,-10.019c5.931,-3.424 15.56,-3.424 21.491,0c5.931,3.424 5.955,9.118 -0.112,12.293c-5.937,3.105 -12.855,3.022 -19.027,1.227c-0.355,-0.104 -0.081,-0.013 -0.41,-0.164l-7.228,1.331c-0.104,0.02 -0.21,-0.023 -0.272,-0.109c-0.061,-0.086 0.325,-0.592 0.378,-0.683l2.238,-3.876Z" style="fill:#fff;fill-opacity:0.5;"/><path d="M107.821,159.03c0,0 1.495,-0.016 4.5,-2.622c1.284,-1.114 1.739,-2.675 1.739,-2.675l0,1.282c0,0 -0.272,1.436 -1.726,2.667c-2.774,2.351 -4.503,2.487 -4.503,2.487l-0.01,-1.139Z" style="fill:#00204b;"/><path d="M107.821,152.097c0,0 1.495,-0.016 4.5,-2.622c1.284,-1.114 1.739,-2.675 1.739,-2.675l0,1.282c0,0 -0.272,1.435 -1.726,2.667c-2.774,2.35 -4.503,2.487 -4.503,2.487l-0.01,-1.139Z" style="fill:#00204b;"/><path d="M107.821,145.189c0,-0 1.495,-0.017 4.5,-2.623c1.284,-1.114 1.739,-2.675 1.739,-2.675l0,1.283c0,-0 -0.272,1.435 -1.726,2.666c-2.774,2.351 -4.503,2.488 -4.503,2.488l-0.01,-1.139Z" style="fill:#00204b;"/><path d="M107.821,138.256c0,-0 1.495,-0.017 4.5,-2.623c1.284,-1.114 1.739,-2.675 1.739,-2.675l0,1.283c0,-0 -0.272,1.435 -1.726,2.666c-2.774,2.351 -4.503,2.488 -4.503,2.488l-0.01,-1.139Z" style="fill:#00204b;"/><path d="M107.821,123.488c0,0 1.495,-0.016 4.5,-2.622c1.284,-1.114 1.739,-2.675 1.739,-2.675l0,1.282c0,0 -0.272,1.436 -1.726,2.667c-2.774,2.351 -4.503,2.487 -4.503,2.487l-0.01,-1.139Z" style="fill:#00204b;"/><path d="M107.821,116.555c0,0 1.495,-0.016 4.5,-2.622c1.284,-1.114 1.739,-2.675 1.739,-2.675l0,1.282c0,0 -0.272,1.435 -1.726,2.667c-2.774,2.35 -4.503,2.487 -4.503,2.487l-0.01,-1.139Z" style="fill:#00204b;"/><path d="M107.821,109.647c0,-0 1.495,-0.017 4.5,-2.623c1.284,-1.114 1.739,-2.675 1.739,-2.675l0,1.283c0,-0 -0.272,1.435 -1.726,2.667c-2.774,2.35 -4.503,2.487 -4.503,2.487l-0.01,-1.139Z" style="fill:#00204b;"/><path d="M107.821,102.714c0,-0 1.495,-0.017 4.5,-2.623c1.284,-1.114 1.739,-2.675 1.739,-2.675l0,1.283c0,-0 -0.272,1.435 -1.726,2.666c-2.774,2.351 -4.503,2.488 -4.503,2.488l-0.01,-1.139Z" style="fill:#00204b;"/><path d="M104.745,96.546c0,0 2.56,0.072 6.175,-2.305c2.122,-1.395 3.14,-3.46 3.14,-3.46l0,1.265c0,-0 -0.674,1.994 -3.119,3.448c-3.655,2.172 -6.181,2.103 -6.181,2.103l-0.015,-1.051Z" style="fill:#00204b;"/><path d="M107.821,88.681c0,-0 1.495,-0.017 4.5,-2.623c1.284,-1.114 1.739,-2.675 1.739,-2.675l0,1.283c0,-0 -0.272,1.435 -1.726,2.667c-2.774,2.35 -4.503,2.487 -4.503,2.487l-0.01,-1.139Z" style="fill:#00204b;"/><path d="M107.821,81.748c0,-0 1.495,-0.017 4.5,-2.623c1.284,-1.114 1.739,-2.675 1.739,-2.675l0,1.283c0,-0 -0.272,1.435 -1.726,2.666c-2.774,2.351 -4.503,2.488 -4.503,2.488l-0.01,-1.139Z" style="fill:#00204b;"/><path d="M107.821,74.839c0,0 1.495,-0.016 4.5,-2.623c1.284,-1.114 1.739,-2.674 1.739,-2.674l0,1.282c0,0 -0.272,1.435 -1.726,2.667c-2.774,2.35 -4.503,2.487 -4.503,2.487l-0.01,-1.139Z" style="fill:#00204b;"/><path d="M107.821,67.906c0,-0 1.495,-0.017 4.5,-2.623c1.284,-1.114 1.739,-2.674 1.739,-2.674l0,1.282c0,0 -0.272,1.435 -1.726,2.667c-2.774,2.35 -4.503,2.487 -4.503,2.487l-0.01,-1.139Z" style="fill:#00204b;"/><path d="M104.745,61.739c0,-0 2.56,0.072 6.175,-2.306c2.122,-1.394 3.14,-3.459 3.14,-3.459l0,1.264c0,0 -0.674,1.995 -3.119,3.448c-3.655,2.172 -6.181,2.103 -6.181,2.103l-0.015,-1.05Z" style="fill:#00204b;"/><path d="M104.745,132.088c0,0 2.56,0.072 6.175,-2.305c2.122,-1.395 3.14,-3.46 3.14,-3.46l0,1.265c0,-0 -0.674,1.994 -3.119,3.448c-3.655,2.172 -6.181,2.103 -6.181,2.103l-0.015,-1.051Z" style="fill:#00204b;"/></svg>