<?xml version="1.0" encoding="UTF-8" standalone="no"?><!DOCTYPE svg PUBLIC "-//W3C//DTD SVG 1.1//EN" "http://www.w3.org/Graphics/SVG/1.1/DTD/svg11.dtd"><svg width="100%" height="100%" viewBox="0 0 200 200" version="1.1" xmlns="http://www.w3.org/2000/svg" xmlns:xlink="http://www.w3.org/1999/xlink" xml:space="preserve" xmlns:serif="http://www.serif.com/" style="fill-rule:evenodd;clip-rule:evenodd;stroke-linejoin:round;stroke-miterlimit:2;"><path d="M78.185,166.869c-0,-0.647 -0.051,-5.035 0.034,-5.917c0.288,-2.987 2.406,-5.925 6.354,-8.204c8.519,-4.918 22.35,-4.918 30.869,-0c4.259,2.458 6.388,5.684 6.388,8.911c0,0.647 0,4.563 0,5.21c0,3.226 -2.129,6.452 -6.388,8.911c-8.519,4.918 -22.35,4.918 -30.868,-0c-4.259,-2.459 -6.389,-5.685 -6.389,-8.911Z" style="fill:#dedede;fill-opacity:0.81;"/><path d="M84.573,152.748c8.519,-4.918 22.35,-4.918 30.869,-0c8.518,4.918 8.518,12.903 -0,17.821c-8.519,4.918 -22.35,4.918 -30.869,0c-8.518,-4.918 -8.518,-12.903 0,-17.821Z" style="fill:#fff;fill-opacity:0.5;"/><path d="M89.916,154.344c5.554,-3.206 14.571,-3.206 20.124,0c5.553,3.207 5.553,8.413 -0,11.619c-5.553,3.206 -14.57,3.206 -20.124,-0c-5.553,-3.206 -5.553,-8.412 0,-11.619Z" style="fill:#dedede;fill-opacity:0.5;"/><path d="M115.407,35.599c0.024,7.523 0.081,123.335 -0.048,125.211c-0.147,2.15 -1.64,4.275 -4.481,5.916c-5.992,3.459 -15.721,3.459 -21.712,-0c-2.996,-1.73 -4.494,-3.999 -4.494,-6.268l0.039,-119.085l7.062,-1.359c6.441,2.092 14.759,1.557 20.238,-1.607c1.451,-0.838 2.583,-1.79 3.396,-2.808Z" style="fill:#dedede;fill-opacity:0.5;"/><path d="M84.138,34.784c-0.588,-0.955 -0.91,-1.953 -0.967,-2.955c-0.017,-0.311 -0.017,-1.537 -0.001,-1.84c0.126,-2.398 1.773,-4.773 4.939,-6.601c6.596,-3.808 17.306,-3.808 23.902,-0c3.109,1.795 4.753,4.118 4.931,6.471c0.026,0.346 0.023,1.613 0.011,1.9c-0.108,2.414 -1.755,4.808 -4.942,6.648c-5.479,3.164 -13.797,3.699 -20.238,1.607l-7.995,1.539c-0.558,0.107 -1.128,-0.121 -1.458,-0.584c-0.178,-0.251 -0.269,-0.546 -0.269,-0.842c-0,-0.229 0.001,-1.101 -0,-1.328c-0.002,-0.253 0.063,-0.508 0.194,-0.736l1.893,-3.279Z" style="fill:#dedede;fill-opacity:0.5;"/><path d="M84.138,34.784c-0.588,-0.955 -0.91,-1.953 -0.967,-2.955c-0.017,-0.311 -0.017,-1.537 -0.001,-1.84c0.126,-2.398 1.773,-4.773 4.939,-6.601c6.596,-3.808 17.306,-3.808 23.902,-0c3.109,1.795 4.753,4.118 4.931,6.471c0.026,0.346 0.023,1.613 0.011,1.9c-0.108,2.414 -1.755,4.808 -4.942,6.648c-5.479,3.164 -13.797,3.699 -20.238,1.607l-7.995,1.539c-0.558,0.107 -1.128,-0.121 -1.458,-0.584c-0.178,-0.251 -0.269,-0.546 -0.269,-0.842c-0,-0.229 0.001,-1.101 -0,-1.328c-0.002,-0.253 0.063,-0.508 0.194,-0.736l1.893,-3.279Z" style="fill:#dedede;fill-opacity:0.5;"/><path d="M114.176,36.877c-0.012,20.009 0.095,121.629 -0.041,123.632c-0.136,1.985 -1.516,3.948 -4.139,5.462c-5.533,3.195 -14.518,3.195 -20.051,0c-2.767,-1.597 -4.15,-3.692 -4.15,-5.788c0,-1.792 0.028,-91.727 0.036,-119.025l5.942,-1.144c6.441,2.092 14.759,1.557 20.238,-1.607c0.825,-0.476 1.546,-0.989 2.165,-1.53Z" style="fill:#fff;fill-opacity:0.5;"/><path d="M84.511,34.139c-0.588,-0.955 -1.284,-2.238 -1.34,-3.24c-0.018,-0.31 -0.017,-0.607 -0.001,-0.91c0.126,-2.398 1.773,-4.773 4.939,-6.601c6.596,-3.808 17.306,-3.808 23.902,-0c3.109,1.795 4.753,4.118 4.931,6.471c0.026,0.346 0.017,0.419 0.004,0.706c-0.107,2.414 -1.754,4.808 -4.941,6.648c-5.48,3.164 -13.798,3.699 -20.238,1.607l-7.996,1.539c-0.558,0.107 -1.128,-0.121 -1.458,-0.584c-0.178,-0.251 -0.269,-0.546 -0.269,-0.842c-0,-0.229 0.008,0.093 0.007,-0.134c-0.002,-0.253 0.063,-0.508 0.194,-0.736l2.266,-3.924Zm1.72,-0.003c-2.756,-3.3 -1.765,-7.386 2.973,-10.122c5.992,-3.459 15.721,-3.459 21.712,0c5.992,3.459 6.017,9.212 -0.113,12.419c-5.998,3.138 -12.987,3.053 -19.223,1.24c-0.359,-0.105 -0.081,-0.014 -0.414,-0.165l-7.302,1.344c-0.105,0.02 -0.212,-0.023 -0.274,-0.11c-0.063,-0.087 0.327,-0.598 0.381,-0.691l2.26,-3.915Z" style="fill:#fff;fill-opacity:0.5;"/><path d="M107.902,159.637c-0,0 1.51,-0.017 4.545,-2.649c1.298,-1.126 1.758,-2.703 1.758,-2.703l-0,1.296c-0,-0 -0.275,1.45 -1.744,2.694c-2.803,2.375 -4.549,2.513 -4.549,2.513l-0.01,-1.151Z" style="fill:#00204b;"/><path d="M107.902,152.633c-0,-0 1.51,-0.017 4.545,-2.65c1.298,-1.125 1.758,-2.702 1.758,-2.702l-0,1.295c-0,0 -0.275,1.45 -1.744,2.695c-2.803,2.374 -4.549,2.512 -4.549,2.512l-0.01,-1.15Z" style="fill:#00204b;"/><path d="M107.902,145.653c-0,0 1.51,-0.016 4.545,-2.649c1.298,-1.126 1.758,-2.703 1.758,-2.703l-0,1.296c-0,-0 -0.275,1.45 -1.744,2.694c-2.803,2.375 -4.549,2.513 -4.549,2.513l-0.01,-1.151Z" style="fill:#00204b;"/><path d="M107.902,138.649c-0,-0 1.51,-0.017 4.545,-2.65c1.298,-1.125 1.758,-2.702 1.758,-2.702l-0,1.296c-0,-0 -0.275,1.449 -1.744,2.694c-2.803,2.374 -4.549,2.513 -4.549,2.513l-0.01,-1.151Z" style="fill:#00204b;"/><path d="M107.902,123.73c-0,-0 1.51,-0.017 4.545,-2.65c1.298,-1.125 1.758,-2.702 1.758,-2.702l-0,1.296c-0,-0 -0.275,1.449 -1.744,2.694c-2.803,2.374 -4.549,2.513 -4.549,2.513l-0.01,-1.151Z" style="fill:#00204b;"/><path d="M107.902,116.725c-0,0 1.51,-0.016 4.545,-2.649c1.298,-1.126 1.758,-2.702 1.758,-2.702l-0,1.295c-0,0 -0.275,1.45 -1.744,2.694c-2.803,2.375 -4.549,2.513 -4.549,2.513l-0.01,-1.151Z" style="fill:#00204b;"/><path d="M107.902,109.746c-0,-0 1.51,-0.017 4.545,-2.65c1.298,-1.125 1.758,-2.702 1.758,-2.702l-0,1.296c-0,-0 -0.275,1.45 -1.744,2.694c-2.803,2.374 -4.549,2.513 -4.549,2.513l-0.01,-1.151Z" style="fill:#00204b;"/><path d="M107.902,102.741c-0,0 1.51,-0.016 4.545,-2.649c1.298,-1.126 1.758,-2.702 1.758,-2.702l-0,1.295c-0,0 -0.275,1.45 -1.744,2.694c-2.803,2.375 -4.549,2.513 -4.549,2.513l-0.01,-1.151Z" style="fill:#00204b;"/><path d="M104.794,96.511c-0,-0 2.586,0.073 6.239,-2.329c2.143,-1.409 3.172,-3.495 3.172,-3.495l-0,1.277c-0,-0 -0.681,2.015 -3.152,3.483c-3.693,2.195 -6.244,2.125 -6.244,2.125l-0.015,-1.061Z" style="fill:#00204b;"/><path d="M107.902,88.564c-0,0 1.51,-0.016 4.545,-2.649c1.298,-1.126 1.758,-2.702 1.758,-2.702l-0,1.295c-0,0 -0.275,1.45 -1.744,2.694c-2.803,2.375 -4.549,2.513 -4.549,2.513l-0.01,-1.151Z" style="fill:#00204b;"/><path d="M107.902,81.56c-0,-0 1.51,-0.017 4.545,-2.65c1.298,-1.125 1.758,-2.702 1.758,-2.702l-0,1.296c-0,-0 -0.275,1.45 -1.744,2.694c-2.803,2.374 -4.549,2.513 -4.549,2.513l-0.01,-1.151Z" style="fill:#00204b;"/><path d="M107.902,74.58c-0,0 1.51,-0.016 4.545,-2.649c1.298,-1.126 1.758,-2.702 1.758,-2.702l-0,1.295c-0,0 -0.275,1.45 -1.744,2.694c-2.803,2.375 -4.549,2.513 -4.549,2.513l-0.01,-1.151Z" style="fill:#00204b;"/><path d="M107.902,67.576c-0,0 1.51,-0.017 4.545,-2.65c1.298,-1.125 1.758,-2.702 1.758,-2.702l-0,1.296c-0,-0 -0.275,1.45 -1.744,2.694c-2.803,2.375 -4.549,2.513 -4.549,2.513l-0.01,-1.151Z" style="fill:#00204b;"/><path d="M104.794,61.345c-0,0 2.586,0.073 6.239,-2.329c2.143,-1.409 3.172,-3.495 3.172,-3.495l-0,1.278c-0,-0 -0.681,2.015 -3.152,3.483c-3.693,2.194 -6.244,2.125 -6.244,2.125l-0.015,-1.062Z" style="fill:#00204b;"/><path d="M104.794,132.418c-0,0 2.586,0.073 6.239,-2.329c2.143,-1.409 3.172,-3.495 3.172,-3.495l-0,1.277c-0,0 -0.681,2.015 -3.152,3.484c-3.693,2.194 -6.244,2.124 -6.244,2.124l-0.015,-1.061Z" style="fill:#00204b;"/></svg>