<?xml version="1.0" encoding="UTF-8" standalone="no"?><!DOCTYPE svg PUBLIC "-//W3C//DTD SVG 1.1//EN" "http://www.w3.org/Graphics/SVG/1.1/DTD/svg11.dtd"><svg width="100%" height="100%" viewBox="0 0 200 200" version="1.1" xmlns="http://www.w3.org/2000/svg" xmlns:xlink="http://www.w3.org/1999/xlink" xml:space="preserve" xmlns:serif="http://www.serif.com/" style="fill-rule:evenodd;clip-rule:evenodd;stroke-linejoin:round;stroke-miterlimit:2;"><path d="M77.034,170.397c0,-0.682 -0.054,-5.301 0.036,-6.23c0.303,-3.144 2.533,-6.237 6.69,-8.637c8.967,-5.177 23.528,-5.177 32.496,0c4.484,2.589 6.726,5.985 6.726,9.381c-0,0.682 0,4.804 -0,5.486c-0,3.396 -2.242,6.792 -6.726,9.381c-8.967,5.177 -23.529,5.177 -32.496,-0c-4.484,-2.589 -6.726,-5.985 -6.726,-9.381Z" style="fill:#dedede;fill-opacity:0.81;"/><path d="M83.76,155.53c8.967,-5.177 23.528,-5.177 32.496,0c8.968,5.178 8.968,13.585 0,18.762c-8.968,5.178 -23.529,5.178 -32.496,0c-8.968,-5.177 -8.968,-13.584 -0,-18.762Z" style="fill:#fff;fill-opacity:0.5;"/><path d="M89.384,157.211c5.847,-3.375 15.339,-3.375 21.186,0c5.846,3.376 5.846,8.856 -0,12.232c-5.847,3.375 -15.339,3.375 -21.186,-0c-5.846,-3.376 -5.846,-8.856 0,-12.232Z" style="fill:#dedede;fill-opacity:0.5;"/><path d="M116.22,32.202c0.025,7.919 0.085,129.841 -0.05,131.816c-0.155,2.264 -1.728,4.501 -4.718,6.228c-6.308,3.641 -16.55,3.641 -22.858,-0c-3.153,-1.821 -4.73,-4.21 -4.73,-6.599l0.04,-125.367l7.435,-1.431c6.78,2.203 15.538,1.639 21.306,-1.691c1.528,-0.882 2.719,-1.885 3.575,-2.956Z" style="fill:#dedede;fill-opacity:0.5;"/><path d="M83.302,31.344c-0.619,-1.006 -0.959,-2.057 -1.018,-3.112c-0.019,-0.326 -0.019,-1.618 -0.002,-1.936c0.133,-2.524 1.866,-5.025 5.2,-6.95c6.944,-4.009 18.219,-4.009 25.163,0c3.273,1.89 5.003,4.335 5.191,6.812c0.027,0.365 0.024,1.699 0.011,2.001c-0.113,2.541 -1.847,5.062 -5.202,6.999c-5.768,3.33 -14.526,3.894 -21.306,1.691l-8.417,1.62c-0.588,0.113 -1.187,-0.127 -1.535,-0.615c-0.188,-0.264 -0.283,-0.574 -0.283,-0.885c-0,-0.242 0.002,-1.16 -0,-1.399c-0.002,-0.266 0.066,-0.534 0.205,-0.774l1.993,-3.452Z" style="fill:#dedede;fill-opacity:0.5;"/><path d="M83.302,31.344c-0.619,-1.006 -0.959,-2.057 -1.018,-3.112c-0.019,-0.326 -0.019,-1.618 -0.002,-1.936c0.133,-2.524 1.866,-5.025 5.2,-6.95c6.944,-4.009 18.219,-4.009 25.163,0c3.273,1.89 5.003,4.335 5.191,6.812c0.027,0.365 0.024,1.699 0.011,2.001c-0.113,2.541 -1.847,5.062 -5.202,6.999c-5.768,3.33 -14.526,3.894 -21.306,1.691l-8.417,1.62c-0.588,0.113 -1.187,-0.127 -1.535,-0.615c-0.188,-0.264 -0.283,-0.574 -0.283,-0.885c-0,-0.242 0.002,-1.16 -0,-1.399c-0.002,-0.266 0.066,-0.534 0.205,-0.774l1.993,-3.452Z" style="fill:#dedede;fill-opacity:0.5;"/><path d="M114.924,33.547c-0.012,21.064 0.1,128.046 -0.044,130.154c-0.143,2.09 -1.595,4.156 -4.357,5.751c-5.825,3.363 -15.283,3.363 -21.109,-0c-2.912,-1.682 -4.368,-3.888 -4.368,-6.094c-0,-1.887 0.029,-96.566 0.038,-125.305l6.255,-1.204c6.78,2.203 15.538,1.639 21.306,-1.691c0.868,-0.501 1.627,-1.041 2.279,-1.611Z" style="fill:#fff;fill-opacity:0.5;"/><path d="M85.046,163.358c-0,-2.206 0.04,-26.215 0.04,-28.421c0,-2.206 1.456,-4.412 4.369,-6.094c5.825,-3.363 15.283,-3.363 21.108,0c2.959,1.708 4.414,3.957 4.368,6.197c-0.045,2.172 0.108,26.342 -0.051,28.661c-0.143,2.09 -1.595,4.156 -4.357,5.751c-5.825,3.363 -15.283,3.363 -21.109,-0c-2.912,-1.682 -4.368,-3.888 -4.368,-6.094Z" style="fill:#7ad1c7;fill-opacity:0.7;"/><path d="M89.46,128.83c5.817,-3.359 15.263,-3.359 21.08,-0c5.816,3.358 5.816,8.811 -0,12.17c-5.817,3.358 -15.263,3.358 -21.08,-0c-5.817,-3.359 -5.817,-8.812 0,-12.17Z" style="fill:#fff;fill-opacity:0.32;"/><path d="M83.694,30.665c-0.619,-1.006 -1.351,-2.356 -1.411,-3.411c-0.019,-0.327 -0.018,-0.64 -0.001,-0.958c0.133,-2.524 1.866,-5.025 5.2,-6.95c6.944,-4.009 18.219,-4.009 25.163,0c3.273,1.89 5.003,4.335 5.191,6.812c0.027,0.365 0.017,0.442 0.004,0.744c-0.113,2.541 -1.847,5.062 -5.202,6.999c-5.768,3.33 -14.526,3.894 -21.306,1.692l-8.417,1.619c-0.588,0.114 -1.187,-0.127 -1.535,-0.614c-0.188,-0.264 -0.283,-0.575 -0.283,-0.886c-0,-0.241 0.009,0.097 0.007,-0.142c-0.002,-0.266 0.066,-0.534 0.205,-0.774l2.385,-4.131Zm1.811,-0.004c-2.902,-3.474 -1.859,-7.775 3.13,-10.655c6.307,-3.642 16.549,-3.642 22.857,-0c6.308,3.641 6.334,9.697 -0.12,13.074c-6.313,3.303 -13.671,3.214 -20.236,1.305c-0.378,-0.11 -0.086,-0.014 -0.436,-0.174l-7.687,1.415c-0.111,0.021 -0.224,-0.024 -0.289,-0.116c-0.066,-0.091 0.345,-0.629 0.401,-0.727l2.38,-4.122Z" style="fill:#fff;fill-opacity:0.5;"/><path d="M108.319,162.783c-0,0 1.589,-0.017 4.785,-2.789c1.366,-1.185 1.85,-2.845 1.85,-2.845l0,1.364c0,-0 -0.289,1.526 -1.835,2.836c-2.951,2.5 -4.79,2.646 -4.79,2.646l-0.01,-1.212Z" style="fill:#00204b;"/><path d="M108.319,155.409c-0,0 1.589,-0.017 4.785,-2.789c1.366,-1.185 1.85,-2.845 1.85,-2.845l0,1.364c0,0 -0.289,1.526 -1.835,2.836c-2.951,2.5 -4.79,2.646 -4.79,2.646l-0.01,-1.212Z" style="fill:#00204b;"/><path d="M108.319,148.062c-0,-0 1.589,-0.018 4.785,-2.79c1.366,-1.185 1.85,-2.844 1.85,-2.844l0,1.363c0,0 -0.289,1.527 -1.835,2.837c-2.951,2.499 -4.79,2.645 -4.79,2.645l-0.01,-1.211Z" style="fill:#00204b;"/><path d="M108.319,140.688c-0,-0 1.589,-0.018 4.785,-2.79c1.366,-1.185 1.85,-2.844 1.85,-2.844l0,1.363c0,0 -0.289,1.527 -1.835,2.837c-2.951,2.5 -4.79,2.645 -4.79,2.645l-0.01,-1.211Z" style="fill:#00204b;"/><path d="M108.319,124.982c-0,-0 1.589,-0.018 4.785,-2.79c1.366,-1.185 1.85,-2.844 1.85,-2.844l0,1.363c0,0 -0.289,1.527 -1.835,2.837c-2.951,2.5 -4.79,2.645 -4.79,2.645l-0.01,-1.211Z" style="fill:#00204b;"/><path d="M108.319,117.608c-0,-0 1.589,-0.018 4.785,-2.79c1.366,-1.185 1.85,-2.844 1.85,-2.844l0,1.364c0,-0 -0.289,1.526 -1.835,2.836c-2.951,2.5 -4.79,2.645 -4.79,2.645l-0.01,-1.211Z" style="fill:#00204b;"/><path d="M108.319,110.26c-0,-0 1.589,-0.018 4.785,-2.789c1.366,-1.185 1.85,-2.845 1.85,-2.845l0,1.364c0,-0 -0.289,1.526 -1.835,2.836c-2.951,2.5 -4.79,2.645 -4.79,2.645l-0.01,-1.211Z" style="fill:#00204b;"/><path d="M108.319,102.886c-0,0 1.589,-0.017 4.785,-2.789c1.366,-1.185 1.85,-2.845 1.85,-2.845l0,1.364c0,-0 -0.289,1.526 -1.835,2.836c-2.951,2.5 -4.79,2.646 -4.79,2.646l-0.01,-1.212Z" style="fill:#00204b;"/><path d="M105.047,96.327c-0,-0 2.723,0.076 6.568,-2.452c2.256,-1.483 3.339,-3.68 3.339,-3.68l0,1.345c0,-0 -0.717,2.122 -3.318,3.667c-3.887,2.31 -6.574,2.237 -6.574,2.237l-0.015,-1.117Z" style="fill:#00204b;"/><path d="M108.319,87.961c-0,0 1.589,-0.017 4.785,-2.789c1.366,-1.185 1.85,-2.845 1.85,-2.845l0,1.364c0,-0 -0.289,1.526 -1.835,2.836c-2.951,2.5 -4.79,2.646 -4.79,2.646l-0.01,-1.212Z" style="fill:#00204b;"/><path d="M108.319,80.587c-0,0 1.589,-0.017 4.785,-2.789c1.366,-1.185 1.85,-2.845 1.85,-2.845l0,1.364c0,-0 -0.289,1.526 -1.835,2.836c-2.951,2.5 -4.79,2.646 -4.79,2.646l-0.01,-1.212Z" style="fill:#00204b;"/><path d="M108.319,73.239c-0,0 1.589,-0.017 4.785,-2.789c1.366,-1.185 1.85,-2.845 1.85,-2.845l0,1.364c0,0 -0.289,1.527 -1.835,2.837c-2.951,2.499 -4.79,2.645 -4.79,2.645l-0.01,-1.212Z" style="fill:#00204b;"/><path d="M108.319,65.866c-0,-0 1.589,-0.018 4.785,-2.79c1.366,-1.185 1.85,-2.844 1.85,-2.844l0,1.363c0,0 -0.289,1.527 -1.835,2.837c-2.951,2.499 -4.79,2.645 -4.79,2.645l-0.01,-1.211Z" style="fill:#00204b;"/><path d="M105.047,59.306c-0,0 2.723,0.077 6.568,-2.452c2.256,-1.483 3.339,-3.679 3.339,-3.679l0,1.344c0,0 -0.717,2.122 -3.318,3.668c-3.887,2.31 -6.574,2.236 -6.574,2.236l-0.015,-1.117Z" style="fill:#00204b;"/><path d="M105.047,134.128c-0,0 2.723,0.077 6.568,-2.451c2.256,-1.484 3.339,-3.68 3.339,-3.68l0,1.345c0,-0 -0.717,2.121 -3.318,3.667c-3.887,2.31 -6.574,2.237 -6.574,2.237l-0.015,-1.118Z" style="fill:#00204b;"/></svg>