<?xml version="1.0" encoding="UTF-8" standalone="no"?><!DOCTYPE svg PUBLIC "-//W3C//DTD SVG 1.1//EN" "http://www.w3.org/Graphics/SVG/1.1/DTD/svg11.dtd"><svg width="100%" height="100%" viewBox="0 0 200 200" version="1.1" xmlns="http://www.w3.org/2000/svg" xmlns:xlink="http://www.w3.org/1999/xlink" xml:space="preserve" xmlns:serif="http://www.serif.com/" style="fill-rule:evenodd;clip-rule:evenodd;stroke-linejoin:round;stroke-miterlimit:2;"><path d="M77.103,170.188c-0,-0.68 -0.054,-5.285 0.035,-6.211c0.303,-3.135 2.526,-6.219 6.67,-8.611c8.941,-5.162 23.459,-5.162 32.4,-0c4.471,2.581 6.706,5.966 6.706,9.353c0,0.679 0,4.789 0,5.469c0,3.386 -2.235,6.772 -6.705,9.353c-8.941,5.162 -23.46,5.162 -32.401,-0c-4.47,-2.581 -6.705,-5.967 -6.705,-9.353Z" style="fill:#dedede;fill-opacity:0.81;"/><path d="M83.808,155.366c8.941,-5.162 23.459,-5.162 32.4,-0c8.941,5.162 8.941,13.544 0,18.706c-8.941,5.162 -23.459,5.162 -32.4,-0c-8.941,-5.162 -8.941,-13.544 0,-18.706Z" style="fill:#fff;fill-opacity:0.5;"/><path d="M89.416,157.042c5.829,-3.366 15.294,-3.366 21.123,-0c5.829,3.365 5.829,8.829 -0,12.195c-5.829,3.365 -15.294,3.365 -21.123,-0c-5.829,-3.366 -5.829,-8.83 0,-12.195Z" style="fill:#dedede;fill-opacity:0.5;"/><path d="M116.172,32.404c0.025,7.895 0.085,129.455 -0.05,131.424c-0.154,2.257 -1.722,4.488 -4.704,6.209c-6.289,3.631 -16.5,3.631 -22.789,0c-3.145,-1.815 -4.717,-4.197 -4.717,-6.578l0.04,-124.995l7.414,-1.427c6.759,2.196 15.491,1.634 21.242,-1.686c1.523,-0.88 2.711,-1.88 3.564,-2.947Z" style="fill:#dedede;fill-opacity:0.5;"/><path d="M83.352,31.548c-0.617,-1.003 -0.956,-2.05 -1.015,-3.102c-0.019,-0.326 -0.018,-1.613 -0.002,-1.931c0.133,-2.517 1.861,-5.01 5.185,-6.929c6.923,-3.997 18.165,-3.997 25.088,0c3.263,1.884 4.988,4.322 5.175,6.792c0.028,0.364 0.025,1.693 0.011,1.995c-0.112,2.533 -1.841,5.047 -5.186,6.978c-5.751,3.32 -14.483,3.883 -21.242,1.686l-8.392,1.615c-0.587,0.113 -1.185,-0.126 -1.531,-0.613c-0.187,-0.263 -0.282,-0.572 -0.282,-0.883c-0.001,-0.24 0.001,-1.156 -0,-1.394c-0.002,-0.266 0.065,-0.533 0.204,-0.772l1.987,-3.442Z" style="fill:#dedede;fill-opacity:0.5;"/><path d="M83.352,31.548c-0.617,-1.003 -0.956,-2.05 -1.015,-3.102c-0.019,-0.326 -0.018,-1.613 -0.002,-1.931c0.133,-2.517 1.861,-5.01 5.185,-6.929c6.923,-3.997 18.165,-3.997 25.088,0c3.263,1.884 4.988,4.322 5.175,6.792c0.028,0.364 0.025,1.693 0.011,1.995c-0.112,2.533 -1.841,5.047 -5.186,6.978c-5.751,3.32 -14.483,3.883 -21.242,1.686l-8.392,1.615c-0.587,0.113 -1.185,-0.126 -1.531,-0.613c-0.187,-0.263 -0.282,-0.572 -0.282,-0.883c-0.001,-0.24 0.001,-1.156 -0,-1.394c-0.002,-0.266 0.065,-0.533 0.204,-0.772l1.987,-3.442Z" style="fill:#dedede;fill-opacity:0.5;"/><path d="M114.88,33.745c-0.012,21.001 0.1,127.665 -0.044,129.767c-0.142,2.084 -1.59,4.144 -4.344,5.734c-5.807,3.353 -15.238,3.353 -21.046,-0c-2.904,-1.677 -4.355,-3.876 -4.355,-6.076c-0,-1.881 0.029,-96.279 0.037,-124.932l6.238,-1.201c6.759,2.197 15.491,1.634 21.242,-1.686c0.865,-0.5 1.622,-1.038 2.272,-1.606Z" style="fill:#fff;fill-opacity:0.5;"/><path d="M85.091,163.17c-0,-2.199 0.165,-96.429 0.165,-98.628c-0,-2.2 1.452,-4.399 4.356,-6.076c5.808,-3.353 15.238,-3.353 21.046,0c2.949,1.703 4.401,3.945 4.355,6.179c-0.045,2.165 -0.018,96.555 -0.176,98.867c-0.143,2.084 -1.591,4.144 -4.345,5.734c-5.807,3.353 -15.238,3.353 -21.046,-0c-2.904,-1.677 -4.355,-3.876 -4.355,-6.076Z" style="fill:#7ad1c7;fill-opacity:0.7;"/><path d="M89.492,58.473c5.8,-3.349 15.217,-3.349 21.017,-0c5.799,3.348 5.799,8.785 -0,12.134c-5.8,3.348 -15.217,3.348 -21.017,-0c-5.799,-3.349 -5.799,-8.786 0,-12.134Z" style="fill:#fff;fill-opacity:0.32;"/><path d="M83.743,30.871c-0.618,-1.003 -1.348,-2.349 -1.407,-3.401c-0.019,-0.326 -0.017,-0.637 -0.001,-0.955c0.133,-2.517 1.861,-5.01 5.185,-6.929c6.923,-3.997 18.165,-3.997 25.088,0c3.263,1.884 4.988,4.322 5.175,6.792c0.028,0.364 0.018,0.44 0.004,0.742c-0.112,2.533 -1.841,5.046 -5.186,6.978c-5.751,3.32 -14.483,3.882 -21.242,1.686l-8.392,1.615c-0.587,0.113 -1.185,-0.126 -1.531,-0.613c-0.187,-0.263 -0.282,-0.572 -0.282,-0.883c-0.001,-0.24 0.008,0.097 0.007,-0.141c-0.002,-0.266 0.065,-0.533 0.204,-0.772l2.378,-4.119Zm1.806,-0.003c-2.894,-3.464 -1.854,-7.753 3.12,-10.624c6.289,-3.631 16.5,-3.631 22.789,-0c6.289,3.631 6.316,9.669 -0.119,13.035c-6.295,3.293 -13.631,3.204 -20.176,1.301c-0.377,-0.11 -0.086,-0.014 -0.435,-0.173l-7.664,1.411c-0.111,0.021 -0.223,-0.024 -0.288,-0.116c-0.066,-0.091 0.344,-0.627 0.4,-0.725l2.373,-4.109Z" style="fill:#fff;fill-opacity:0.5;"/><path d="M108.294,162.597c0,0 1.585,-0.017 4.772,-2.781c1.362,-1.181 1.844,-2.836 1.844,-2.836l0,1.36c0,-0 -0.288,1.521 -1.83,2.827c-2.942,2.493 -4.775,2.638 -4.775,2.638l-0.011,-1.208Z" style="fill:#00204b;"/><path d="M108.294,155.245c0,0 1.585,-0.017 4.772,-2.781c1.362,-1.181 1.844,-2.836 1.844,-2.836l0,1.36c0,-0 -0.288,1.521 -1.83,2.827c-2.942,2.493 -4.775,2.638 -4.775,2.638l-0.011,-1.208Z" style="fill:#00204b;"/><path d="M108.294,147.919c0,0 1.585,-0.017 4.772,-2.781c1.362,-1.181 1.844,-2.836 1.844,-2.836l0,1.36c0,-0 -0.288,1.522 -1.83,2.828c-2.942,2.492 -4.775,2.637 -4.775,2.637l-0.011,-1.208Z" style="fill:#00204b;"/><path d="M108.294,140.567c0,0 1.585,-0.017 4.772,-2.781c1.362,-1.181 1.844,-2.836 1.844,-2.836l0,1.36c0,-0 -0.288,1.522 -1.83,2.828c-2.942,2.492 -4.775,2.637 -4.775,2.637l-0.011,-1.208Z" style="fill:#00204b;"/><path d="M108.294,124.908c0,-0 1.585,-0.018 4.772,-2.781c1.362,-1.182 1.844,-2.836 1.844,-2.836l0,1.359c0,0 -0.288,1.522 -1.83,2.828c-2.942,2.493 -4.775,2.638 -4.775,2.638l-0.011,-1.208Z" style="fill:#00204b;"/><path d="M108.294,117.556c0,-0 1.585,-0.018 4.772,-2.781c1.362,-1.182 1.844,-2.837 1.844,-2.837l0,1.36c0,0 -0.288,1.522 -1.83,2.828c-2.942,2.493 -4.775,2.638 -4.775,2.638l-0.011,-1.208Z" style="fill:#00204b;"/><path d="M108.294,110.23c0,-0 1.585,-0.018 4.772,-2.781c1.362,-1.182 1.844,-2.836 1.844,-2.836l0,1.359c0,0 -0.288,1.522 -1.83,2.828c-2.942,2.493 -4.775,2.638 -4.775,2.638l-0.011,-1.208Z" style="fill:#00204b;"/><path d="M108.294,102.878c0,-0 1.585,-0.018 4.772,-2.781c1.362,-1.182 1.844,-2.836 1.844,-2.836l0,1.359c0,0 -0.288,1.522 -1.83,2.828c-2.942,2.493 -4.775,2.638 -4.775,2.638l-0.011,-1.208Z" style="fill:#00204b;"/><path d="M105.032,96.338c0,-0 2.715,0.076 6.549,-2.444c2.249,-1.479 3.329,-3.669 3.329,-3.669l0,1.341c0,-0 -0.714,2.115 -3.308,3.656c-3.876,2.303 -6.554,2.23 -6.554,2.23l-0.016,-1.114Z" style="fill:#00204b;"/><path d="M108.294,87.997c0,0 1.585,-0.017 4.772,-2.781c1.362,-1.181 1.844,-2.836 1.844,-2.836l0,1.36c0,-0 -0.288,1.522 -1.83,2.828c-2.942,2.492 -4.775,2.637 -4.775,2.637l-0.011,-1.208Z" style="fill:#00204b;"/><path d="M108.294,80.645c0,0 1.585,-0.017 4.772,-2.781c1.362,-1.181 1.844,-2.836 1.844,-2.836l0,1.36c0,-0 -0.288,1.522 -1.83,2.828c-2.942,2.492 -4.775,2.637 -4.775,2.637l-0.011,-1.208Z" style="fill:#00204b;"/><path d="M108.294,73.319c0,0 1.585,-0.017 4.772,-2.781c1.362,-1.181 1.844,-2.836 1.844,-2.836l0,1.36c0,-0 -0.288,1.522 -1.83,2.828c-2.942,2.492 -4.775,2.637 -4.775,2.637l-0.011,-1.208Z" style="fill:#00204b;"/><path d="M108.294,65.967c0,0 1.585,-0.017 4.772,-2.781c1.362,-1.181 1.844,-2.836 1.844,-2.836l0,1.36c0,-0 -0.288,1.522 -1.83,2.828c-2.942,2.492 -4.775,2.637 -4.775,2.637l-0.011,-1.208Z" style="fill:#00204b;"/><path d="M105.032,59.427c0,0 2.715,0.077 6.549,-2.444c2.249,-1.479 3.329,-3.669 3.329,-3.669l0,1.341c0,-0 -0.714,2.115 -3.308,3.656c-3.876,2.303 -6.554,2.23 -6.554,2.23l-0.016,-1.114Z" style="fill:#00204b;"/><path d="M105.032,134.027c0,0 2.715,0.077 6.549,-2.444c2.249,-1.479 3.329,-3.669 3.329,-3.669l0,1.341c0,-0 -0.714,2.115 -3.308,3.656c-3.876,2.303 -6.554,2.23 -6.554,2.23l-0.016,-1.114Z" style="fill:#00204b;"/></svg>