<?xml version="1.0" encoding="UTF-8" standalone="no"?><!DOCTYPE svg PUBLIC "-//W3C//DTD SVG 1.1//EN" "http://www.w3.org/Graphics/SVG/1.1/DTD/svg11.dtd"><svg width="100%" height="100%" viewBox="0 0 200 200" version="1.1" xmlns="http://www.w3.org/2000/svg" xmlns:xlink="http://www.w3.org/1999/xlink" xml:space="preserve" xmlns:serif="http://www.serif.com/" style="fill-rule:evenodd;clip-rule:evenodd;stroke-linejoin:round;stroke-miterlimit:2;"><path d="M161.432,28.219c0,-0 -1.242,0.325 -1.971,0.746l-111.41,64.323c-3.722,2.149 -6.743,7.922 -6.743,12.884l-0,59.764c-0,1.37 0.23,2.536 0.642,3.461c0.624,-0.105 1.286,-0.351 1.972,-0.747l111.41,-64.322c3.722,-2.149 6.743,-7.922 6.743,-12.885l0,-59.764c0,-1.37 -0.23,-2.536 -0.643,-3.46Z" style="fill:#001a35;"/><path d="M161.432,28.219c0.413,0.924 0.643,2.09 0.643,3.46l0,59.764c0,4.963 -3.022,10.736 -6.743,12.885l-111.41,64.322c-0.686,0.396 -1.348,0.642 -1.972,0.747c1.079,2.425 3.407,3.193 6.101,1.637l111.41,-64.322c3.722,-2.149 6.743,-7.922 6.743,-12.885l0,-59.764c0,-4.048 -2.01,-6.313 -4.772,-5.844Z" style="fill:#1a1a1a;fill-opacity:0.11;"/><path d="M166.204,93.827l-4.129,-2.384c0,4.963 -3.022,10.736 -6.743,12.885l-111.41,64.322c-0.686,0.396 -1.348,0.642 -1.972,0.747c1.079,2.425 3.407,3.193 6.101,1.637l111.41,-64.322c3.722,-2.149 6.743,-7.922 6.743,-12.885Z" style="fill:#1a1a1a;fill-opacity:0.11;"/><path d="M159.461,106.712l-4.129,-2.384l-111.41,64.322c-0.686,0.396 -1.348,0.642 -1.972,0.747c1.079,2.425 3.407,3.193 6.101,1.637l111.41,-64.322Z" style="fill:#1a1a1a;fill-opacity:0.11;"/><path d="M106.737,114.642l0,3.128l5.63,3.25l5.63,-3.25l-0,-3.128l-5.63,-3.25l-5.63,3.25Z" style="fill:#cecece;"/><path d="M112.367,117.892l-5.63,-3.25l0,3.128l5.63,3.25l0,-3.128Z" style="fill:#b2b2b2;fill-opacity:0.46;"/><path d="M112.367,117.892l-5.63,-3.25l0,3.128l5.63,3.25l0,-3.128Z" style="fill:#b2b2b2;fill-opacity:0.46;"/><path d="M112.367,111.392l-5.63,3.25l5.63,3.25l5.63,-3.25l-5.63,-3.25Z" style="fill:#b2b2b2;fill-opacity:0.46;"/><path d="M106.737,108.51l0,3.128l5.63,3.25l5.63,-3.25l-0,-3.128l-5.63,-3.251l-5.63,3.251Z" style="fill:#cecece;"/><path d="M112.367,111.76l-5.63,-3.25l0,3.128l5.63,3.25l0,-3.128Z" style="fill:#b2b2b2;fill-opacity:0.46;"/><path d="M112.367,111.76l-5.63,-3.25l0,3.128l5.63,3.25l0,-3.128Z" style="fill:#b2b2b2;fill-opacity:0.46;"/><path d="M112.367,105.259l-5.63,3.251l5.63,3.25l5.63,-3.25l-5.63,-3.251Z" style="fill:#b2b2b2;fill-opacity:0.46;"/><path d="M98.539,119.375l0,3.128l5.63,3.25l5.629,-3.25l0,-3.128l-5.629,-3.25l-5.63,3.25Z" style="fill:#cecece;"/><path d="M104.169,122.626l-5.63,-3.251l0,3.128l5.63,3.25l-0,-3.127Z" style="fill:#b2b2b2;fill-opacity:0.46;"/><path d="M104.169,122.626l-5.63,-3.251l0,3.128l5.63,3.25l-0,-3.127Z" style="fill:#b2b2b2;fill-opacity:0.46;"/><path d="M104.169,116.125l-5.63,3.25l5.63,3.251l5.629,-3.251l-5.629,-3.25Z" style="fill:#b2b2b2;fill-opacity:0.46;"/><path d="M98.539,113.243l0,3.128l5.63,3.25l5.629,-3.25l0,-3.128l-5.629,-3.25l-5.63,3.25Z" style="fill:#cecece;"/><path d="M104.169,116.493l-5.63,-3.25l0,3.128l5.63,3.25l-0,-3.128Z" style="fill:#b2b2b2;fill-opacity:0.46;"/><path d="M104.169,116.493l-5.63,-3.25l0,3.128l5.63,3.25l-0,-3.128Z" style="fill:#b2b2b2;fill-opacity:0.46;"/><path d="M104.169,109.993l-5.63,3.25l5.63,3.25l5.629,-3.25l-5.629,-3.25Z" style="fill:#b2b2b2;fill-opacity:0.46;"/><path d="M119.479,64.851c-0.849,0.755 -1.482,2.137 -1.482,3.35l-0,48.796c-0,1.213 0.633,1.864 1.482,1.639l0,-53.785Zm0.878,-0.507l0,53.785c0.849,-0.755 1.482,-2.138 1.482,-3.35l0,-48.797c0,-1.212 -0.633,-1.864 -1.482,-1.638Z" style="fill:#f3f3f3;fill-opacity:0.19;"/><path d="M131.309,58.02c-0.849,0.755 -1.482,2.138 -1.482,3.35l0,48.797c0,1.213 0.633,1.864 1.482,1.639l0,-53.786Zm0.879,-0.507l-0,53.786c0.849,-0.755 1.482,-2.138 1.482,-3.35l-0,-48.797c-0,-1.213 -0.633,-1.864 -1.482,-1.639Z" style="fill:#f3f3f3;fill-opacity:0.19;"/><path d="M90.238,124.168l-0,3.128l5.629,3.25l5.63,-3.25l-0,-3.128l-5.63,-3.25l-5.629,3.25Z" style="fill:#cecece;"/><path d="M95.867,127.418l-5.629,-3.25l-0,3.128l5.629,3.25l0,-3.128Z" style="fill:#b2b2b2;fill-opacity:0.46;"/><path d="M95.867,127.418l-5.629,-3.25l-0,3.128l5.629,3.25l0,-3.128Z" style="fill:#b2b2b2;fill-opacity:0.46;"/><path d="M95.867,120.918l-5.629,3.25l5.629,3.25l5.63,-3.25l-5.63,-3.25Z" style="fill:#b2b2b2;fill-opacity:0.46;"/><path d="M90.238,118.036l-0,3.128l5.629,3.25l5.63,-3.25l-0,-3.128l-5.63,-3.251l-5.629,3.251Z" style="fill:#cecece;"/><path d="M95.867,121.286l-5.629,-3.25l-0,3.128l5.629,3.25l0,-3.128Z" style="fill:#b2b2b2;fill-opacity:0.46;"/><path d="M95.867,121.286l-5.629,-3.25l-0,3.128l5.629,3.25l0,-3.128Z" style="fill:#b2b2b2;fill-opacity:0.46;"/><path d="M95.867,114.785l-5.629,3.251l5.629,3.25l5.63,-3.25l-5.63,-3.251Z" style="fill:#b2b2b2;fill-opacity:0.46;"/><path d="M82.171,129.074l0,3.128l5.63,3.251l5.63,-3.251l-0,-3.128l-5.63,-3.25l-5.63,3.25Z" style="fill:#cecece;"/><path d="M87.801,132.325l-5.63,-3.251l0,3.128l5.63,3.251l0,-3.128Z" style="fill:#b2b2b2;fill-opacity:0.46;"/><path d="M87.801,132.325l-5.63,-3.251l0,3.128l5.63,3.251l0,-3.128Z" style="fill:#b2b2b2;fill-opacity:0.46;"/><path d="M87.801,125.824l-5.63,3.25l5.63,3.251l5.63,-3.251l-5.63,-3.25Z" style="fill:#b2b2b2;fill-opacity:0.46;"/><path d="M82.171,122.942l0,3.128l5.63,3.25l5.63,-3.25l-0,-3.128l-5.63,-3.25l-5.63,3.25Z" style="fill:#cecece;"/><path d="M87.801,126.192l-5.63,-3.25l0,3.128l5.63,3.25l0,-3.128Z" style="fill:#b2b2b2;fill-opacity:0.46;"/><path d="M87.801,126.192l-5.63,-3.25l0,3.128l5.63,3.25l0,-3.128Z" style="fill:#b2b2b2;fill-opacity:0.46;"/><path d="M87.801,119.692l-5.63,3.25l5.63,3.25l5.63,-3.25l-5.63,-3.25Z" style="fill:#b2b2b2;fill-opacity:0.46;"/><path d="M142.711,51.685c-0.849,0.755 -1.482,2.137 -1.482,3.35l-0,48.796c-0,1.213 0.633,1.864 1.482,1.639l-0,-53.785Zm0.878,-0.507l-0,53.785c0.849,-0.755 1.482,-2.138 1.482,-3.35l0,-48.797c0,-1.212 -0.633,-1.864 -1.482,-1.638Z" style="fill:#f3f3f3;fill-opacity:0.19;"/><path d="M116.779,76.889l-0,3.213l4.337,2.505l5.784,-3.339l-0,-3.214l-4.338,-2.504l-5.783,3.339Z" style="fill:#001a35;"/><path d="M121.116,79.393l-4.337,-2.504l-0,3.213l4.337,2.505l0,-3.214Z" style="fill:#e1e1e1;fill-opacity:0.12;"/><path d="M121.116,79.393l-4.337,-2.504l-0,3.213l4.337,2.505l0,-3.214Z" style="fill:#e1e1e1;fill-opacity:0.12;"/><path d="M121.116,79.393l-4.337,-2.504l-0,3.213l4.337,2.505l0,-3.214Z" style="fill:#e1e1e1;fill-opacity:0.12;"/><path d="M126.9,76.054l-5.784,3.339l0,3.214l5.784,-3.339l-0,-3.214Z" style="fill:#e1e1e1;fill-opacity:0.12;"/><path d="M122.562,73.55l-5.783,3.339l4.337,2.504l5.784,-3.339l-4.338,-2.504Z" style="fill:#e1e1e1;fill-opacity:0.12;"/><path d="M122.562,73.55l-5.783,3.339l4.337,2.504l5.784,-3.339l-4.338,-2.504Z" style="fill:#e1e1e1;fill-opacity:0.12;"/><path d="M128.609,98.505l0,3.213l4.338,2.505l5.783,-3.339l0,-3.214l-4.337,-2.504l-5.784,3.339Z" style="fill:#001a35;"/><path d="M132.947,101.009l-4.338,-2.504l0,3.213l4.338,2.505l-0,-3.214Z" style="fill:#e1e1e1;fill-opacity:0.12;"/><path d="M132.947,101.009l-4.338,-2.504l0,3.213l4.338,2.505l-0,-3.214Z" style="fill:#e1e1e1;fill-opacity:0.12;"/><path d="M132.947,101.009l-4.338,-2.504l0,3.213l4.338,2.505l-0,-3.214Z" style="fill:#e1e1e1;fill-opacity:0.12;"/><path d="M138.73,97.67l-5.783,3.339l-0,3.214l5.783,-3.339l0,-3.214Z" style="fill:#e1e1e1;fill-opacity:0.12;"/><path d="M134.393,95.166l-5.784,3.339l4.338,2.504l5.783,-3.339l-4.337,-2.504Z" style="fill:#e1e1e1;fill-opacity:0.12;"/><path d="M134.393,95.166l-5.784,3.339l4.338,2.504l5.783,-3.339l-4.337,-2.504Z" style="fill:#e1e1e1;fill-opacity:0.12;"/><path d="M140.011,72.573l-0,3.214l4.337,2.504l5.783,-3.339l0,-3.213l-4.337,-2.505l-5.783,3.339Z" style="fill:#001a35;"/><path d="M144.348,75.078l-4.337,-2.505l-0,3.214l4.337,2.504l0,-3.213Z" style="fill:#e1e1e1;fill-opacity:0.12;"/><path d="M144.348,75.078l-4.337,-2.505l-0,3.214l4.337,2.504l0,-3.213Z" style="fill:#e1e1e1;fill-opacity:0.12;"/><path d="M144.348,75.078l-4.337,-2.505l-0,3.214l4.337,2.504l0,-3.213Z" style="fill:#e1e1e1;fill-opacity:0.12;"/><path d="M150.131,71.739l-5.783,3.339l0,3.213l5.783,-3.339l0,-3.213Z" style="fill:#e1e1e1;fill-opacity:0.12;"/><path d="M145.794,69.234l-5.783,3.339l4.337,2.505l5.783,-3.339l-4.337,-2.505Z" style="fill:#e1e1e1;fill-opacity:0.12;"/><path d="M145.794,69.234l-5.783,3.339l4.337,2.505l5.783,-3.339l-4.337,-2.505Z" style="fill:#e1e1e1;fill-opacity:0.12;"/><path d="M92.638,104.302l-4.482,2.587l0,1.608l4.482,-2.588l-0,-1.607Z" style="fill:#25bcb2;"/><path d="M92.638,101.41l-4.482,2.588l0,1.607l4.482,-2.587l-0,-1.608Z" style="fill:#25bcb2;"/><path d="M92.638,98.518l-4.482,2.588l0,1.607l4.482,-2.587l-0,-1.608Z" style="fill:#25bcb2;"/><path d="M92.638,95.627l-4.482,2.587l0,1.608l4.482,-2.588l-0,-1.607Z" style="fill:#25bcb2;"/><path d="M92.638,92.735l-4.482,2.587l0,1.608l4.482,-2.588l-0,-1.607Z" style="fill:#25bcb2;"/><path d="M92.638,89.843l-4.482,2.588l0,1.607l4.482,-2.587l-0,-1.608Z" style="fill:#25bcb2;"/><path d="M86.653,107.757l-4.482,2.588l0,1.607l4.482,-2.587l0,-1.608Z" style="fill:#25bcb2;"/><path d="M86.653,104.866l-4.482,2.587l0,1.607l4.482,-2.587l0,-1.607Z" style="fill:#25bcb2;"/><path d="M98.405,100.972l-4.481,2.588l-0,1.607l4.481,-2.587l0,-1.608Z" style="fill:#25bcb2;"/><path d="M98.405,98.08l-4.481,2.588l-0,1.607l4.481,-2.587l0,-1.608Z" style="fill:#25bcb2;"/><path d="M98.405,95.189l-4.481,2.587l-0,1.608l4.481,-2.588l0,-1.607Z" style="fill:#25bcb2;"/><path d="M104.112,97.678l-4.482,2.587l-0,1.608l4.482,-2.588l-0,-1.607Z" style="fill:#25bcb2;"/><path d="M104.112,94.786l-4.482,2.587l-0,1.608l4.482,-2.588l-0,-1.607Z" style="fill:#25bcb2;"/><path d="M104.112,91.894l-4.482,2.588l-0,1.607l4.482,-2.587l-0,-1.608Z" style="fill:#25bcb2;"/><path d="M104.112,89.002l-4.482,2.588l-0,1.607l4.482,-2.587l-0,-1.608Z" style="fill:#25bcb2;"/><path d="M104.112,86.111l-4.482,2.587l-0,1.608l4.482,-2.588l-0,-1.607Z" style="fill:#25bcb2;"/><path d="M104.112,83.219l-4.482,2.587l-0,1.608l4.482,-2.588l-0,-1.607Z" style="fill:#25bcb2;"/><path d="M104.112,80.327l-4.482,2.588l-0,1.607l4.482,-2.587l-0,-1.608Z" style="fill:#25bcb2;"/><path d="M110.088,94.227l-4.482,2.588l-0,1.607l4.482,-2.587l-0,-1.608Z" style="fill:#25bcb2;"/><path d="M92.638,107.284l-4.482,2.587l0,1.608l4.482,-2.588l-0,-1.607Z" style="fill:#25bcb2;"/><path d="M86.653,110.739l-4.482,2.588l0,1.607l4.482,-2.587l0,-1.608Z" style="fill:#25bcb2;"/><path d="M98.405,103.954l-4.481,2.587l-0,1.608l4.481,-2.588l0,-1.607Z" style="fill:#25bcb2;"/><path d="M104.112,100.659l-4.482,2.588l-0,1.607l4.482,-2.587l-0,-1.608Z" style="fill:#25bcb2;"/><path d="M110.088,97.209l-4.482,2.588l-0,1.607l4.482,-2.587l-0,-1.608Z" style="fill:#25bcb2;"/><path d="M110.088,91.336l-4.482,2.587l-0,1.608l4.482,-2.588l-0,-1.607Z" style="fill:#25bcb2;"/><path d="M110.088,88.444l-4.482,2.587l-0,1.608l4.482,-2.588l-0,-1.607Z" style="fill:#25bcb2;"/><path d="M110.088,85.552l-4.482,2.588l-0,1.607l4.482,-2.587l-0,-1.608Z" style="fill:#25bcb2;"/><path d="M110.088,82.66l-4.482,2.588l-0,1.607l4.482,-2.587l-0,-1.608Z" style="fill:#25bcb2;"/><path d="M110.088,79.769l-4.482,2.587l-0,1.608l4.482,-2.588l-0,-1.607Z" style="fill:#25bcb2;"/><path d="M110.088,76.877l-4.482,2.587l-0,1.608l4.482,-2.588l-0,-1.607Z" style="fill:#25bcb2;"/><path d="M110.088,73.801l-4.482,2.588l-0,1.607l4.482,-2.587l-0,-1.608Z" style="fill:#25bcb2;"/><path d="M110.088,70.909l-4.482,2.588l-0,1.607l4.482,-2.587l-0,-1.608Z" style="fill:#25bcb2;"/><path d="M67.453,129.068c-5.03,2.904 -9.115,9.979 -9.115,15.788c0,5.809 4.085,8.167 9.115,5.263c5.031,-2.905 9.116,-9.979 9.116,-15.789c-0,-5.809 -4.085,-8.167 -9.116,-5.262Z" style="fill:#001a35;"/><path d="M73.653,128.301c-1.004,-0.497 -4.975,-3.005 -6.2,-3.569c-1.614,-0.744 -3.749,-0.531 -6.089,0.82c-5.031,2.904 -9.116,9.979 -9.116,15.788c0,2.702 0.884,4.657 2.336,5.684c1.1,0.778 5.336,3.071 6.345,3.683c1.656,1.005 3.968,0.888 6.524,-0.588c5.031,-2.905 9.116,-9.979 9.116,-15.789c-0,-3.045 -1.123,-5.142 -2.916,-6.029Z" style="fill:#cecece;"/><path d="M73.646,128.297c-1.014,-0.504 -4.971,-3.002 -6.193,-3.565c-1.614,-0.744 -3.749,-0.531 -6.089,0.82c-5.031,2.904 -9.116,9.979 -9.116,15.788c0,2.702 0.884,4.657 2.336,5.684c1.096,0.775 5.308,3.056 6.335,3.677c-1.597,-0.974 -2.581,-2.994 -2.581,-5.845c0,-5.809 4.085,-12.884 9.115,-15.788c2.391,-1.38 4.567,-1.572 6.193,-0.771Z" style="fill:#353535;fill-opacity:0.17;"/><path d="M67.219,134.496c-2.371,1.37 -4.297,4.704 -4.297,7.442c0,2.739 1.926,3.85 4.297,2.481c2.371,-1.369 4.296,-4.704 4.296,-7.442c0,-2.738 -1.925,-3.85 -4.296,-2.481Z" style="fill:#25bcb4;"/><path d="M67.219,136.213c-1.551,0.895 -2.81,3.076 -2.81,4.867c-0,1.791 1.259,2.518 2.81,1.623c1.551,-0.896 2.81,-3.077 2.81,-4.868c0,-1.791 -1.259,-2.518 -2.81,-1.622Z" style="fill:#efefef;fill-opacity:0.45;"/><path d="M67.453,97.524c-5.03,2.905 -9.115,9.979 -9.115,15.788c0,5.81 4.085,8.168 9.115,5.263c5.031,-2.904 9.116,-9.979 9.116,-15.788c-0,-5.809 -4.085,-8.167 -9.116,-5.263Z" style="fill:#001a35;"/><path d="M73.653,96.757c-1.004,-0.497 -4.975,-3.004 -6.2,-3.568c-1.614,-0.744 -3.749,-0.532 -6.089,0.819c-5.031,2.905 -9.116,9.979 -9.116,15.788c0,2.702 0.884,4.658 2.336,5.684c1.1,0.778 5.336,3.072 6.345,3.684c1.656,1.004 3.968,0.887 6.524,-0.589c5.031,-2.904 9.116,-9.979 9.116,-15.788c-0,-3.045 -1.123,-5.142 -2.916,-6.03Z" style="fill:#cecece;"/><path d="M73.646,96.754c-1.014,-0.505 -4.971,-3.003 -6.193,-3.565c-1.614,-0.744 -3.749,-0.532 -6.089,0.819c-5.031,2.905 -9.116,9.979 -9.116,15.788c0,2.702 0.884,4.658 2.336,5.684c1.096,0.776 5.308,3.057 6.335,3.678c-1.597,-0.975 -2.581,-2.994 -2.581,-5.846c0,-5.809 4.085,-12.883 9.115,-15.788c2.391,-1.38 4.567,-1.572 6.193,-0.77Z" style="fill:#353535;fill-opacity:0.17;"/><path d="M67.219,102.953c-2.371,1.369 -4.297,4.704 -4.297,7.442c0,2.738 1.926,3.85 4.297,2.481c2.371,-1.37 4.296,-4.704 4.296,-7.442c0,-2.739 -1.925,-3.85 -4.296,-2.481Z" style="fill:#25bcb4;"/><path d="M67.219,104.669c-1.551,0.896 -2.81,3.077 -2.81,4.868c-0,1.791 1.259,2.518 2.81,1.622c1.551,-0.895 2.81,-3.076 2.81,-4.867c0,-1.791 -1.259,-2.518 -2.81,-1.623Z" style="fill:#efefef;fill-opacity:0.45;"/></svg>