<?xml version="1.0" encoding="UTF-8" standalone="no"?><!DOCTYPE svg PUBLIC "-//W3C//DTD SVG 1.1//EN" "http://www.w3.org/Graphics/SVG/1.1/DTD/svg11.dtd"><svg width="100%" height="100%" viewBox="0 0 200 200" version="1.1" xmlns="http://www.w3.org/2000/svg" xmlns:xlink="http://www.w3.org/1999/xlink" xml:space="preserve" xmlns:serif="http://www.serif.com/" style="fill-rule:evenodd;clip-rule:evenodd;stroke-linejoin:round;stroke-miterlimit:2;"><g><path d="M33.167,156.373c0.147,0.111 5.501,4.231 6.454,4.78c0.788,0.454 1.816,0.411 2.939,-0.237l121.094,-69.914c2.482,-1.433 4.496,-5.282 4.496,-8.59l0,-35.308c0,-1.603 -0.473,-2.786 -1.242,-3.418c-0.819,-0.673 -5.476,-4.065 -6.29,-4.68c-0.813,-0.616 -1.937,-0.638 -3.178,0.078l-121.094,69.914c-2.482,1.433 -4.496,5.282 -4.496,8.59l-0,35.308c-0,1.654 0.503,2.862 1.317,3.477Z" style="fill:#001a35;"/><g><path d="M168.15,47.104c0,-3.309 -2.014,-4.832 -4.496,-3.399l-121.094,69.914c-2.481,1.432 -4.496,5.281 -4.496,8.59l0,35.308c0,3.309 2.015,4.832 4.496,3.399l121.094,-69.914c2.482,-1.433 4.496,-5.282 4.496,-8.59l0,-35.308Z" style="fill:#ebebeb;fill-opacity:0.1;"/><path d="M168.15,47.104c0,-3.309 -2.014,-4.832 -4.496,-3.399l-121.094,69.914c-2.481,1.432 -4.496,5.281 -4.496,8.59l0,35.308c0,3.309 2.015,4.832 4.496,3.399l121.094,-69.914c2.482,-1.433 4.496,-5.282 4.496,-8.59l0,-35.308Z" style="fill:#ebebeb;fill-opacity:0.1;"/><path d="M39.62,161.152l0.001,0.001c0.026,0.015 -0.001,-0.001 -0.001,-0.001Zm-0.083,-0.049c-0.904,-0.575 -1.473,-1.828 -1.473,-3.586l0,-35.308c0,-3.309 2.015,-7.158 4.496,-8.59l121.094,-69.914c1.318,-0.761 2.504,-0.688 3.326,0.043c-0.023,-0.021 -0.047,-0.042 -0.072,-0.062c-0.819,-0.673 -5.476,-4.065 -6.29,-4.68c-0.813,-0.616 -1.937,-0.638 -3.178,0.078l-121.094,69.914c-2.482,1.433 -4.496,5.282 -4.496,8.59l-0,35.308c-0,1.654 0.503,2.862 1.317,3.477c0.143,0.108 5.224,4.018 6.37,4.73Z" style="fill:#ebebeb;fill-opacity:0.1;"/><path d="M31.85,117.588l6.214,4.621c0,-3.309 2.015,-7.158 4.496,-8.59l-6.214,-4.621c-2.482,1.433 -4.496,5.282 -4.496,8.59Z" style="fill:#ebebeb;fill-opacity:0.1;"/><path d="M31.85,117.588l6.214,4.621c0,-3.309 1.493,-5.473 2.621,-6.9l-6.238,-4.624c-1.065,1.51 -2.597,3.595 -2.597,6.903Z" style="fill:#ebebeb;fill-opacity:0.1;"/></g><path d="M156.377,57.424c0.004,0.084 0.006,0.169 0.006,0.256l-0,19.218c-0,2.495 -1.52,5.399 -3.392,6.48l-106.851,61.69c0.1,2.318 1.579,3.352 3.385,2.309l107.158,-61.868c1.872,-1.081 3.392,-3.984 3.392,-6.48l-0,-19.218c-0,-2.495 -1.52,-3.644 -3.392,-2.563l-0.306,0.176Z" style="fill-opacity:0.21;"/><path d="M156.38,57.423l-106.852,61.691c-1.871,1.08 -3.391,3.984 -3.391,6.479l-0,19.218c-0,0.087 0.002,0.172 0.006,0.256l106.851,-61.691c1.872,-1.081 3.391,-3.984 3.391,-6.48l0,-19.218c0,-0.087 -0.001,-0.172 -0.005,-0.255Z" style="fill:#25bcb4;"/><g><g><path d="M99.167,107.758l-2.667,1.54l0,1.594l2.667,-1.54l0,-1.594Z" style="fill:#001b35;fill-opacity:0.21;"/><path d="M103.507,105.252l-2.667,1.54l0,1.594l2.667,-1.54l-0,-1.594Z" style="fill:#001b35;fill-opacity:0.21;"/><path d="M107.847,102.747l-2.667,1.539l0,1.595l2.667,-1.54l-0,-1.594Z" style="fill:#001b35;fill-opacity:0.21;"/><path d="M112.187,100.241l-2.667,1.54l-0,1.594l2.667,-1.54l-0,-1.594Z" style="fill:#001b35;fill-opacity:0.21;"/><path d="M116.527,97.735l-2.667,1.54l-0,1.594l2.667,-1.54l-0,-1.594Z" style="fill:#001b35;fill-opacity:0.21;"/><path d="M120.867,95.23l-2.667,1.54l-0,1.594l2.667,-1.54l-0,-1.594Z" style="fill:#001b35;fill-opacity:0.21;"/><path d="M125.207,92.724l-2.667,1.54l-0,1.594l2.667,-1.54l-0,-1.594Z" style="fill:#001b35;fill-opacity:0.21;"/><path d="M129.546,90.218l-2.666,1.54l-0,1.594l2.666,-1.539l0,-1.595Z" style="fill:#001b35;fill-opacity:0.21;"/><path d="M133.886,87.713l-2.666,1.54l-0,1.594l2.666,-1.54l0,-1.594Z" style="fill:#001b35;fill-opacity:0.21;"/><path d="M138.226,85.207l-2.667,1.54l0,1.594l2.667,-1.54l0,-1.594Z" style="fill:#001b35;fill-opacity:0.21;"/><path d="M142.566,82.702l-2.667,1.539l0,1.594l2.667,-1.539l0,-1.594Z" style="fill:#001b35;fill-opacity:0.21;"/><path d="M146.906,80.196l-2.667,1.54l0,1.594l2.667,-1.54l0,-1.594Z" style="fill:#001b35;fill-opacity:0.21;"/><path d="M151.246,77.69l-2.667,1.54l0,1.594l2.667,-1.54l0,-1.594Z" style="fill:#001b35;fill-opacity:0.21;"/><path d="M99.167,104.89l-2.667,1.54l0,1.594l2.667,-1.539l0,-1.595Z" style="fill:#001b35;fill-opacity:0.21;"/><path d="M103.507,102.385l-2.667,1.54l0,1.594l2.667,-1.54l-0,-1.594Z" style="fill:#001b35;fill-opacity:0.21;"/><path d="M107.847,99.879l-2.667,1.54l0,1.594l2.667,-1.54l-0,-1.594Z" style="fill:#001b35;fill-opacity:0.21;"/><path d="M112.187,97.374l-2.667,1.539l-0,1.594l2.667,-1.539l-0,-1.594Z" style="fill:#001b35;fill-opacity:0.21;"/><path d="M116.527,94.868l-2.667,1.54l-0,1.594l2.667,-1.54l-0,-1.594Z" style="fill:#001b35;fill-opacity:0.21;"/><path d="M120.867,92.362l-2.667,1.54l-0,1.594l2.667,-1.54l-0,-1.594Z" style="fill:#001b35;fill-opacity:0.21;"/><path d="M125.207,89.857l-2.667,1.539l-0,1.594l2.667,-1.539l-0,-1.594Z" style="fill:#001b35;fill-opacity:0.21;"/><path d="M129.546,87.351l-2.666,1.54l-0,1.594l2.666,-1.54l0,-1.594Z" style="fill:#001b35;fill-opacity:0.21;"/><path d="M133.886,84.845l-2.666,1.54l-0,1.594l2.666,-1.54l0,-1.594Z" style="fill:#001b35;fill-opacity:0.21;"/><path d="M138.226,82.34l-2.667,1.539l0,1.594l2.667,-1.539l0,-1.594Z" style="fill:#001b35;fill-opacity:0.21;"/><path d="M142.566,79.834l-2.667,1.54l0,1.594l2.667,-1.54l0,-1.594Z" style="fill:#001b35;fill-opacity:0.21;"/><path d="M146.906,77.328l-2.667,1.54l0,1.594l2.667,-1.54l0,-1.594Z" style="fill:#001b35;fill-opacity:0.21;"/><path d="M151.246,74.823l-2.667,1.539l0,1.594l2.667,-1.539l0,-1.594Z" style="fill:#001b35;fill-opacity:0.21;"/><path d="M99.167,102.023l-2.667,1.54l0,1.594l2.667,-1.54l0,-1.594Z" style="fill:#001b35;fill-opacity:0.21;"/><path d="M103.507,99.517l-2.667,1.54l0,1.594l2.667,-1.54l-0,-1.594Z" style="fill:#001b35;fill-opacity:0.21;"/><path d="M107.847,97.012l-2.667,1.539l0,1.594l2.667,-1.539l-0,-1.594Z" style="fill:#001b35;fill-opacity:0.21;"/><path d="M112.187,94.506l-2.667,1.54l-0,1.594l2.667,-1.54l-0,-1.594Z" style="fill:#001b35;fill-opacity:0.21;"/><path d="M116.527,92l-2.667,1.54l-0,1.594l2.667,-1.54l-0,-1.594Z" style="fill:#001b35;fill-opacity:0.21;"/><path d="M120.867,89.495l-2.667,1.539l-0,1.594l2.667,-1.539l-0,-1.594Z" style="fill:#001b35;fill-opacity:0.21;"/><path d="M125.207,86.989l-2.667,1.54l-0,1.594l2.667,-1.54l-0,-1.594Z" style="fill:#001b35;fill-opacity:0.21;"/><path d="M129.546,84.483l-2.666,1.54l-0,1.594l2.666,-1.54l0,-1.594Z" style="fill:#001b35;fill-opacity:0.21;"/><path d="M133.886,81.978l-2.666,1.539l-0,1.594l2.666,-1.539l0,-1.594Z" style="fill:#001b35;fill-opacity:0.21;"/><path d="M138.226,79.472l-2.667,1.54l0,1.594l2.667,-1.54l0,-1.594Z" style="fill:#001b35;fill-opacity:0.21;"/><path d="M142.566,76.966l-2.667,1.54l0,1.594l2.667,-1.54l0,-1.594Z" style="fill:#001b35;fill-opacity:0.21;"/><path d="M146.906,74.461l-2.667,1.539l0,1.594l2.667,-1.539l0,-1.594Z" style="fill:#001b35;fill-opacity:0.21;"/><path d="M151.246,71.955l-2.667,1.54l0,1.594l2.667,-1.54l0,-1.594Z" style="fill:#001b35;fill-opacity:0.21;"/><path d="M99.167,99.155l-2.667,1.54l0,1.594l2.667,-1.54l0,-1.594Z" style="fill:#001b35;fill-opacity:0.21;"/><path d="M103.507,96.65l-2.667,1.539l0,1.594l2.667,-1.539l-0,-1.594Z" style="fill:#001b35;fill-opacity:0.21;"/><path d="M107.847,94.144l-2.667,1.54l0,1.594l2.667,-1.54l-0,-1.594Z" style="fill:#001b35;fill-opacity:0.21;"/><path d="M112.187,91.638l-2.667,1.54l-0,1.594l2.667,-1.54l-0,-1.594Z" style="fill:#001b35;fill-opacity:0.21;"/><path d="M116.527,89.133l-2.667,1.539l-0,1.594l2.667,-1.539l-0,-1.594Z" style="fill:#001b35;fill-opacity:0.21;"/><path d="M120.867,86.627l-2.667,1.54l-0,1.594l2.667,-1.54l-0,-1.594Z" style="fill:#001b35;fill-opacity:0.21;"/><path d="M125.207,84.121l-2.667,1.54l-0,1.594l2.667,-1.54l-0,-1.594Z" style="fill:#001b35;fill-opacity:0.21;"/><path d="M129.546,81.616l-2.666,1.539l-0,1.595l2.666,-1.54l0,-1.594Z" style="fill:#001b35;fill-opacity:0.21;"/><path d="M133.886,79.11l-2.666,1.54l-0,1.594l2.666,-1.54l0,-1.594Z" style="fill:#001b35;fill-opacity:0.21;"/><path d="M138.226,76.604l-2.667,1.54l0,1.594l2.667,-1.539l0,-1.595Z" style="fill:#001b35;fill-opacity:0.21;"/><path d="M142.566,74.099l-2.667,1.54l0,1.594l2.667,-1.54l0,-1.594Z" style="fill:#001b35;fill-opacity:0.21;"/><path d="M146.906,71.593l-2.667,1.54l0,1.594l2.667,-1.54l0,-1.594Z" style="fill:#001b35;fill-opacity:0.21;"/><path d="M151.246,69.088l-2.667,1.539l0,1.594l2.667,-1.539l0,-1.594Z" style="fill:#001b35;fill-opacity:0.21;"/><path d="M99.167,96.288l-2.667,1.539l0,1.595l2.667,-1.54l0,-1.594Z" style="fill:#001b35;fill-opacity:0.21;"/><path d="M103.507,93.782l-2.667,1.54l0,1.594l2.667,-1.54l-0,-1.594Z" style="fill:#001b35;fill-opacity:0.21;"/><path d="M107.847,91.276l-2.667,1.54l0,1.594l2.667,-1.54l-0,-1.594Z" style="fill:#001b35;fill-opacity:0.21;"/><path d="M112.187,88.771l-2.667,1.539l-0,1.595l2.667,-1.54l-0,-1.594Z" style="fill:#001b35;fill-opacity:0.21;"/><path d="M116.527,86.265l-2.667,1.54l-0,1.594l2.667,-1.54l-0,-1.594Z" style="fill:#001b35;fill-opacity:0.21;"/><path d="M120.867,83.759l-2.667,1.54l-0,1.594l2.667,-1.539l-0,-1.595Z" style="fill:#001b35;fill-opacity:0.21;"/><path d="M125.207,81.254l-2.667,1.54l-0,1.594l2.667,-1.54l-0,-1.594Z" style="fill:#001b35;fill-opacity:0.21;"/><path d="M129.546,78.748l-2.666,1.54l-0,1.594l2.666,-1.54l0,-1.594Z" style="fill:#001b35;fill-opacity:0.21;"/><path d="M133.886,76.243l-2.666,1.539l-0,1.594l2.666,-1.539l0,-1.594Z" style="fill:#001b35;fill-opacity:0.21;"/><path d="M138.226,73.737l-2.667,1.54l0,1.594l2.667,-1.54l0,-1.594Z" style="fill:#001b35;fill-opacity:0.21;"/><path d="M142.566,71.231l-2.667,1.54l0,1.594l2.667,-1.54l0,-1.594Z" style="fill:#001b35;fill-opacity:0.21;"/><path d="M146.906,68.726l-2.667,1.539l0,1.594l2.667,-1.539l0,-1.594Z" style="fill:#001b35;fill-opacity:0.21;"/><path d="M151.246,66.22l-2.667,1.54l0,1.594l2.667,-1.54l0,-1.594Z" style="fill:#001b35;fill-opacity:0.21;"/><path d="M99.167,93.42l-2.667,1.54l0,1.594l2.667,-1.54l0,-1.594Z" style="fill:#001b35;fill-opacity:0.21;"/><path d="M103.507,90.915l-2.667,1.539l0,1.594l2.667,-1.539l-0,-1.594Z" style="fill:#001b35;fill-opacity:0.21;"/><path d="M107.847,88.409l-2.667,1.54l0,1.594l2.667,-1.54l-0,-1.594Z" style="fill:#001b35;fill-opacity:0.21;"/><path d="M112.187,85.903l-2.667,1.54l-0,1.594l2.667,-1.54l-0,-1.594Z" style="fill:#001b35;fill-opacity:0.21;"/><path d="M116.527,83.398l-2.667,1.539l-0,1.594l2.667,-1.539l-0,-1.594Z" style="fill:#001b35;fill-opacity:0.21;"/><path d="M120.867,80.892l-2.667,1.54l-0,1.594l2.667,-1.54l-0,-1.594Z" style="fill:#001b35;fill-opacity:0.21;"/><path d="M125.207,78.386l-2.667,1.54l-0,1.594l2.667,-1.54l-0,-1.594Z" style="fill:#001b35;fill-opacity:0.21;"/><path d="M129.546,75.881l-2.666,1.539l-0,1.594l2.666,-1.539l0,-1.594Z" style="fill:#001b35;fill-opacity:0.21;"/><path d="M133.886,73.375l-2.666,1.54l-0,1.594l2.666,-1.54l0,-1.594Z" style="fill:#001b35;fill-opacity:0.21;"/><path d="M138.226,70.869l-2.667,1.54l0,1.594l2.667,-1.54l0,-1.594Z" style="fill:#001b35;fill-opacity:0.21;"/><path d="M142.566,68.364l-2.667,1.539l0,1.594l2.667,-1.539l0,-1.594Z" style="fill:#001b35;fill-opacity:0.21;"/><path d="M146.906,65.858l-2.667,1.54l0,1.594l2.667,-1.54l0,-1.594Z" style="fill:#001b35;fill-opacity:0.21;"/><path d="M151.246,63.352l-2.667,1.54l0,1.594l2.667,-1.54l0,-1.594Z" style="fill:#001b35;fill-opacity:0.21;"/><path d="M99.167,110.715l-2.667,1.54l0,1.594l2.667,-1.54l0,-1.594Z" style="fill:#001b35;fill-opacity:0.21;"/><path d="M103.507,108.209l-2.667,1.54l0,1.594l2.667,-1.54l-0,-1.594Z" style="fill:#001b35;fill-opacity:0.21;"/><path d="M107.847,105.704l-2.667,1.539l0,1.594l2.667,-1.539l-0,-1.594Z" style="fill:#001b35;fill-opacity:0.21;"/><path d="M112.187,103.198l-2.667,1.54l-0,1.594l2.667,-1.54l-0,-1.594Z" style="fill:#001b35;fill-opacity:0.21;"/><path d="M116.527,100.692l-2.667,1.54l-0,1.594l2.667,-1.54l-0,-1.594Z" style="fill:#001b35;fill-opacity:0.21;"/><path d="M120.867,98.187l-2.667,1.539l-0,1.594l2.667,-1.539l-0,-1.594Z" style="fill:#001b35;fill-opacity:0.21;"/><path d="M125.207,95.681l-2.667,1.54l-0,1.594l2.667,-1.54l-0,-1.594Z" style="fill:#001b35;fill-opacity:0.21;"/><path d="M129.546,93.175l-2.666,1.54l-0,1.594l2.666,-1.54l0,-1.594Z" style="fill:#001b35;fill-opacity:0.21;"/><path d="M133.886,90.67l-2.666,1.539l-0,1.594l2.666,-1.539l0,-1.594Z" style="fill:#001b35;fill-opacity:0.21;"/><path d="M138.226,88.164l-2.667,1.54l0,1.594l2.667,-1.54l0,-1.594Z" style="fill:#001b35;fill-opacity:0.21;"/><path d="M142.566,85.658l-2.667,1.54l0,1.594l2.667,-1.54l0,-1.594Z" style="fill:#001b35;fill-opacity:0.21;"/><path d="M146.906,83.153l-2.667,1.539l0,1.595l2.667,-1.54l0,-1.594Z" style="fill:#001b35;fill-opacity:0.21;"/><path d="M151.246,80.647l-2.667,1.54l0,1.594l2.667,-1.54l0,-1.594Z" style="fill:#001b35;fill-opacity:0.21;"/></g></g><g><g><path d="M99.167,107.758l-2.667,1.54l0,1.594l2.667,-1.54l0,-1.594Z" style="fill:#001a35;"/><path d="M103.507,105.252l-2.667,1.54l0,1.594l2.667,-1.54l-0,-1.594Z" style="fill:#001a35;"/><path d="M107.847,102.747l-2.667,1.539l0,1.595l2.667,-1.54l-0,-1.594Z" style="fill:#001a35;"/><path d="M112.187,100.241l-2.667,1.54l-0,1.594l2.667,-1.54l-0,-1.594Z" style="fill:#001a35;"/><path d="M120.867,95.23l-2.667,1.54l-0,1.594l2.667,-1.54l-0,-1.594Z" style="fill:#001a35;"/><path d="M125.207,92.724l-2.667,1.54l-0,1.594l2.667,-1.54l-0,-1.594Z" style="fill:#001a35;"/><path d="M129.546,90.218l-2.666,1.54l-0,1.594l2.666,-1.539l0,-1.595Z" style="fill:#001a35;"/><path d="M133.886,87.713l-2.666,1.54l-0,1.594l2.666,-1.54l0,-1.594Z" style="fill:#001a35;"/><path d="M138.226,85.207l-2.667,1.54l0,1.594l2.667,-1.54l0,-1.594Z" style="fill:#001a35;"/><path d="M142.566,82.702l-2.667,1.539l0,1.594l2.667,-1.539l0,-1.594Z" style="fill:#001a35;"/><path d="M146.906,80.196l-2.667,1.54l0,1.594l2.667,-1.54l0,-1.594Z" style="fill:#001a35;"/><path d="M151.246,77.69l-2.667,1.54l0,1.594l2.667,-1.54l0,-1.594Z" style="fill:#001a35;"/><path d="M99.167,104.89l-2.667,1.54l0,1.594l2.667,-1.539l0,-1.595Z" style="fill:#001a35;"/><path d="M103.507,102.385l-2.667,1.54l0,1.594l2.667,-1.54l-0,-1.594Z" style="fill:#001a35;"/><path d="M112.187,97.374l-2.667,1.539l-0,1.594l2.667,-1.539l-0,-1.594Z" style="fill:#001a35;"/><path d="M120.867,92.362l-2.667,1.54l-0,1.594l2.667,-1.54l-0,-1.594Z" style="fill:#001a35;"/><path d="M125.207,89.857l-2.667,1.539l-0,1.594l2.667,-1.539l-0,-1.594Z" style="fill:#001a35;"/><path d="M133.886,84.845l-2.666,1.54l-0,1.594l2.666,-1.54l0,-1.594Z" style="fill:#001a35;"/><path d="M138.226,82.34l-2.667,1.539l0,1.594l2.667,-1.539l0,-1.594Z" style="fill:#001a35;"/><path d="M142.566,79.834l-2.667,1.54l0,1.594l2.667,-1.54l0,-1.594Z" style="fill:#001a35;"/><path d="M146.906,77.328l-2.667,1.54l0,1.594l2.667,-1.54l0,-1.594Z" style="fill:#001a35;"/><path d="M151.246,74.823l-2.667,1.539l0,1.594l2.667,-1.539l0,-1.594Z" style="fill:#001a35;"/><path d="M103.507,99.517l-2.667,1.54l0,1.594l2.667,-1.54l-0,-1.594Z" style="fill:#001a35;"/><path d="M112.187,94.506l-2.667,1.54l-0,1.594l2.667,-1.54l-0,-1.594Z" style="fill:#001a35;"/><path d="M125.207,86.989l-2.667,1.54l-0,1.594l2.667,-1.54l-0,-1.594Z" style="fill:#001a35;"/><path d="M125.207,84.121l-2.667,1.54l-0,1.594l2.667,-1.54l-0,-1.594Z" style="fill:#001a35;"/><path d="M133.886,81.978l-2.666,1.539l-0,1.594l2.666,-1.539l0,-1.594Z" style="fill:#001a35;"/><path d="M142.566,76.966l-2.667,1.54l0,1.594l2.667,-1.54l0,-1.594Z" style="fill:#001a35;"/><path d="M151.246,71.955l-2.667,1.54l0,1.594l2.667,-1.54l0,-1.594Z" style="fill:#001a35;"/><path d="M112.187,91.638l-2.667,1.54l-0,1.594l2.667,-1.54l-0,-1.594Z" style="fill:#001a35;"/><path d="M133.886,79.11l-2.666,1.54l-0,1.594l2.666,-1.54l0,-1.594Z" style="fill:#001a35;"/><path d="M142.566,74.099l-2.667,1.54l0,1.594l2.667,-1.54l0,-1.594Z" style="fill:#001a35;"/><path d="M151.246,69.088l-2.667,1.539l0,1.594l2.667,-1.539l0,-1.594Z" style="fill:#001a35;"/><path d="M112.187,88.771l-2.667,1.539l-0,1.595l2.667,-1.54l-0,-1.594Z" style="fill:#001a35;"/><path d="M133.886,76.243l-2.666,1.539l-0,1.594l2.666,-1.539l0,-1.594Z" style="fill:#001a35;"/><path d="M142.566,71.231l-2.667,1.54l0,1.594l2.667,-1.54l0,-1.594Z" style="fill:#001a35;"/><path d="M151.246,66.22l-2.667,1.54l0,1.594l2.667,-1.54l0,-1.594Z" style="fill:#001a35;"/><path d="M133.886,73.375l-2.666,1.54l-0,1.594l2.666,-1.54l0,-1.594Z" style="fill:#001a35;"/><path d="M151.246,63.352l-2.667,1.54l0,1.594l2.667,-1.54l0,-1.594Z" style="fill:#001a35;"/><path d="M99.167,110.715l-2.667,1.54l0,1.594l2.667,-1.54l0,-1.594Z" style="fill:#001a35;"/><path d="M103.507,108.209l-2.667,1.54l0,1.594l2.667,-1.54l-0,-1.594Z" style="fill:#001a35;"/><path d="M107.847,105.704l-2.667,1.539l0,1.594l2.667,-1.539l-0,-1.594Z" style="fill:#001a35;"/><path d="M112.187,103.198l-2.667,1.54l-0,1.594l2.667,-1.54l-0,-1.594Z" style="fill:#001a35;"/><path d="M116.527,100.692l-2.667,1.54l-0,1.594l2.667,-1.54l-0,-1.594Z" style="fill:#001a35;"/><path d="M120.867,98.187l-2.667,1.539l-0,1.594l2.667,-1.539l-0,-1.594Z" style="fill:#001a35;"/><path d="M125.207,95.681l-2.667,1.54l-0,1.594l2.667,-1.54l-0,-1.594Z" style="fill:#001a35;"/><path d="M129.546,93.175l-2.666,1.54l-0,1.594l2.666,-1.54l0,-1.594Z" style="fill:#001a35;"/><path d="M133.886,90.67l-2.666,1.539l-0,1.594l2.666,-1.539l0,-1.594Z" style="fill:#001a35;"/><path d="M138.226,88.164l-2.667,1.54l0,1.594l2.667,-1.54l0,-1.594Z" style="fill:#001a35;"/><path d="M142.566,85.658l-2.667,1.54l0,1.594l2.667,-1.54l0,-1.594Z" style="fill:#001a35;"/><path d="M146.906,83.153l-2.667,1.539l0,1.595l2.667,-1.54l0,-1.594Z" style="fill:#001a35;"/><path d="M151.246,80.647l-2.667,1.54l0,1.594l2.667,-1.54l0,-1.594Z" style="fill:#001a35;"/></g></g><g><path d="M49.652,123.731l-0,5.645l2.544,1.469l6.054,-3.495l-0,-5.646l-2.544,-1.468l-6.054,3.495Z" style="fill:#001a35;"/><g><path d="M49.652,123.731l-0,5.645l2.544,1.469l6.054,-3.495l-0,-5.646l-2.544,-1.468l-6.054,3.495Z" style="fill:#e7e7e7;fill-opacity:0.05;"/><path d="M52.196,125.199l-2.544,-1.468l-0,5.645l2.544,1.469l6.054,-3.495l-0,-5.646l-6.054,3.495Z" style="fill:#e7e7e7;fill-opacity:0.05;"/><path d="M49.652,123.731l-0,5.645l2.544,1.469l-0,-5.646l-2.544,-1.468Z" style="fill:#e7e7e7;fill-opacity:0.05;"/></g></g><g><path d="M49.652,132.314l-0,5.645l2.544,1.469l6.054,-3.495l-0,-5.646l-2.544,-1.469l-6.054,3.496Z" style="fill:#001a35;"/><g><path d="M49.652,132.314l-0,5.645l2.544,1.469l6.054,-3.495l-0,-5.646l-2.544,-1.469l-6.054,3.496Z" style="fill:#e7e7e7;fill-opacity:0.05;"/><path d="M52.196,133.782l-2.544,-1.468l-0,5.645l2.544,1.469l6.054,-3.495l-0,-5.646l-6.054,3.495Z" style="fill:#e7e7e7;fill-opacity:0.05;"/><path d="M49.652,132.314l-0,5.645l2.544,1.469l-0,-5.646l-2.544,-1.468Z" style="fill:#e7e7e7;fill-opacity:0.05;"/></g></g><g><path d="M58.25,118.767l-0,5.646l2.543,1.468l6.054,-3.495l0,-5.646l-2.544,-1.468l-6.053,3.495Z" style="fill:#001a35;"/><g><path d="M58.25,118.767l-0,5.646l2.543,1.468l6.054,-3.495l0,-5.646l-2.544,-1.468l-6.053,3.495Z" style="fill:#e7e7e7;fill-opacity:0.05;"/><path d="M60.793,120.236l-2.543,-1.469l-0,5.646l2.543,1.468l6.054,-3.495l0,-5.646l-6.054,3.496Z" style="fill:#e7e7e7;fill-opacity:0.05;"/><path d="M58.25,118.767l-0,5.646l2.543,1.468l0,-5.645l-2.543,-1.469Z" style="fill:#e7e7e7;fill-opacity:0.05;"/></g></g><g><path d="M58.25,127.35l-0,5.646l2.543,1.468l6.054,-3.495l0,-5.646l-2.544,-1.468l-6.053,3.495Z" style="fill:#001a35;"/><g><path d="M58.25,127.35l-0,5.646l2.543,1.468l6.054,-3.495l0,-5.646l-2.544,-1.468l-6.053,3.495Z" style="fill:#e7e7e7;fill-opacity:0.05;"/><path d="M60.793,128.818l-2.543,-1.468l-0,5.646l2.543,1.468l6.054,-3.495l0,-5.646l-6.054,3.495Z" style="fill:#e7e7e7;fill-opacity:0.05;"/><path d="M58.25,127.35l-0,5.646l2.543,1.468l0,-5.646l-2.543,-1.468Z" style="fill:#e7e7e7;fill-opacity:0.05;"/></g></g><g><path d="M66.847,113.803l0,5.646l2.544,1.469l6.054,-3.496l-0,-5.645l-2.544,-1.469l-6.054,3.495Z" style="fill:#25bcb4;"/><g><path d="M66.847,113.803l0,5.646l2.544,1.469l6.054,-3.496l-0,-5.645l-2.544,-1.469l-6.054,3.495Z" style="fill:#0e0e0e;fill-opacity:0.25;"/><path d="M69.391,115.272l-2.544,-1.469l0,5.646l2.544,1.469l6.054,-3.496l-0,-5.645l-6.054,3.495Z" style="fill:#0e0e0e;fill-opacity:0.25;"/><path d="M66.847,113.803l0,5.646l2.544,1.469l-0,-5.646l-2.544,-1.469Z" style="fill:#0e0e0e;fill-opacity:0.25;"/></g></g><g><path d="M58.25,127.35l-0,5.646l2.543,1.468l6.054,-3.495l0,-5.646l-2.544,-1.468l-6.053,3.495Z" style="fill:#cf1901;"/><g><path d="M60.793,128.818l-2.543,-1.468l-0,5.646l2.543,1.468l6.054,-3.495l0,-5.646l-6.054,3.495Z" style="fill:#0e0e0e;fill-opacity:0.25;"/><path d="M58.25,127.35l-0,5.646l2.543,1.468l0,-5.646l-2.543,-1.468Z" style="fill:#0e0e0e;fill-opacity:0.25;"/></g></g><g><path d="M66.847,122.386l0,5.646l2.544,1.468l6.054,-3.495l-0,-5.646l-2.544,-1.468l-6.054,3.495Z" style="fill:#001a35;"/><g><path d="M66.847,122.386l0,5.646l2.544,1.468l6.054,-3.495l-0,-5.646l-2.544,-1.468l-6.054,3.495Z" style="fill:#e7e7e7;fill-opacity:0.05;"/><path d="M69.391,123.855l-2.544,-1.469l0,5.646l2.544,1.468l6.054,-3.495l-0,-5.646l-6.054,3.496Z" style="fill:#e7e7e7;fill-opacity:0.05;"/><path d="M66.847,122.386l0,5.646l2.544,1.468l-0,-5.645l-2.544,-1.469Z" style="fill:#e7e7e7;fill-opacity:0.05;"/></g></g><g><path d="M75.445,108.839l-0,5.646l2.543,1.469l6.054,-3.495l0,-5.646l-2.544,-1.469l-6.053,3.495Z" style="fill:#001a35;"/><g><path d="M75.445,108.839l-0,5.646l2.543,1.469l6.054,-3.495l0,-5.646l-2.544,-1.469l-6.053,3.495Z" style="fill:#e7e7e7;fill-opacity:0.05;"/><path d="M77.988,110.308l-2.543,-1.469l-0,5.646l2.543,1.469l6.054,-3.495l0,-5.646l-6.054,3.495Z" style="fill:#e7e7e7;fill-opacity:0.05;"/><path d="M75.445,108.839l-0,5.646l2.543,1.469l0,-5.646l-2.543,-1.469Z" style="fill:#e7e7e7;fill-opacity:0.05;"/></g></g><g><path d="M75.445,117.422l-0,5.646l2.543,1.469l6.054,-3.496l0,-5.645l-2.544,-1.469l-6.053,3.495Z" style="fill:#001a35;"/><g><path d="M75.445,117.422l-0,5.646l2.543,1.469l6.054,-3.496l0,-5.645l-2.544,-1.469l-6.053,3.495Z" style="fill:#e7e7e7;fill-opacity:0.05;"/><path d="M77.988,118.891l-2.543,-1.469l-0,5.646l2.543,1.469l6.054,-3.496l0,-5.645l-6.054,3.495Z" style="fill:#e7e7e7;fill-opacity:0.05;"/><path d="M75.445,117.422l-0,5.646l2.543,1.469l0,-5.646l-2.543,-1.469Z" style="fill:#e7e7e7;fill-opacity:0.05;"/></g></g><g><path d="M75.445,108.839l-0,5.646l2.543,1.469l6.054,-3.495l0,-5.646l-2.544,-1.469l-6.053,3.495Z" style="fill:#001a35;"/><g><path d="M75.445,108.839l-0,5.646l2.543,1.469l6.054,-3.495l0,-5.646l-2.544,-1.469l-6.053,3.495Z" style="fill:#e7e7e7;fill-opacity:0.05;"/><path d="M77.988,110.308l-2.543,-1.469l-0,5.646l2.543,1.469l6.054,-3.495l0,-5.646l-6.054,3.495Z" style="fill:#e7e7e7;fill-opacity:0.05;"/><path d="M75.445,108.839l-0,5.646l2.543,1.469l0,-5.646l-2.543,-1.469Z" style="fill:#e7e7e7;fill-opacity:0.05;"/></g></g><g><path d="M75.445,117.422l-0,5.646l2.543,1.469l6.054,-3.496l0,-5.645l-2.544,-1.469l-6.053,3.495Z" style="fill:#001a35;"/><g><path d="M75.445,117.422l-0,5.646l2.543,1.469l6.054,-3.496l0,-5.645l-2.544,-1.469l-6.053,3.495Z" style="fill:#e7e7e7;fill-opacity:0.05;"/><path d="M77.988,118.891l-2.543,-1.469l-0,5.646l2.543,1.469l6.054,-3.496l0,-5.645l-6.054,3.495Z" style="fill:#e7e7e7;fill-opacity:0.05;"/><path d="M75.445,117.422l-0,5.646l2.543,1.469l0,-5.646l-2.543,-1.469Z" style="fill:#e7e7e7;fill-opacity:0.05;"/></g></g><g><path d="M84.042,103.876l0,5.645l2.544,1.469l6.054,-3.495l-0,-5.646l-2.544,-1.469l-6.054,3.496Z" style="fill:#001a35;"/><g><path d="M84.042,103.876l0,5.645l2.544,1.469l6.054,-3.495l-0,-5.646l-2.544,-1.469l-6.054,3.496Z" style="fill:#e7e7e7;fill-opacity:0.05;"/><path d="M86.586,105.344l-2.544,-1.468l0,5.645l2.544,1.469l6.054,-3.495l-0,-5.646l-6.054,3.495Z" style="fill:#e7e7e7;fill-opacity:0.05;"/><path d="M84.042,103.876l0,5.645l2.544,1.469l-0,-5.646l-2.544,-1.468Z" style="fill:#e7e7e7;fill-opacity:0.05;"/></g></g><g><path d="M84.042,112.459l0,5.645l2.544,1.469l6.054,-3.495l-0,-5.646l-2.544,-1.469l-6.054,3.496Z" style="fill:#001a35;"/><g><path d="M84.042,112.459l0,5.645l2.544,1.469l6.054,-3.495l-0,-5.646l-2.544,-1.469l-6.054,3.496Z" style="fill:#e7e7e7;fill-opacity:0.05;"/><path d="M86.586,113.927l-2.544,-1.468l0,5.645l2.544,1.469l6.054,-3.495l-0,-5.646l-6.054,3.495Z" style="fill:#e7e7e7;fill-opacity:0.05;"/><path d="M84.042,112.459l0,5.645l2.544,1.469l-0,-5.646l-2.544,-1.468Z" style="fill:#e7e7e7;fill-opacity:0.05;"/></g></g><g><path d="M84.042,112.459l0,5.645l2.544,1.469l6.054,-3.495l-0,-5.646l-2.544,-1.469l-6.054,3.496Z" style="fill:#007edf;"/><g><path d="M86.586,113.927l-2.544,-1.468l0,5.645l2.544,1.469l6.054,-3.495l-0,-5.646l-6.054,3.495Z" style="fill:#0e0e0e;fill-opacity:0.25;"/><path d="M84.042,112.459l0,5.645l2.544,1.469l-0,-5.646l-2.544,-1.468Z" style="fill:#0e0e0e;fill-opacity:0.25;"/></g></g></g></svg>