<?xml version="1.0" encoding="UTF-8" standalone="no"?><!DOCTYPE svg PUBLIC "-//W3C//DTD SVG 1.1//EN" "http://www.w3.org/Graphics/SVG/1.1/DTD/svg11.dtd"><svg width="100%" height="100%" viewBox="0 0 200 200" version="1.1" xmlns="http://www.w3.org/2000/svg" xmlns:xlink="http://www.w3.org/1999/xlink" xml:space="preserve" xmlns:serif="http://www.serif.com/" style="fill-rule:evenodd;clip-rule:evenodd;stroke-linejoin:round;stroke-miterlimit:2;"><path d="M147.718,79.683l-0,-49.071c-0,-1.122 -0.331,-1.951 -0.87,-2.393c-0.573,-0.471 -3.834,-2.846 -4.404,-3.277c-0.569,-0.431 -1.356,-0.447 -2.225,0.055l-84.789,48.953c-1.737,1.003 -3.148,3.698 -3.148,6.015l0,49.07c0,0.124 0.004,0.243 0.012,0.359c-0.008,0.125 -0.012,0.249 -0.012,0.372l0,39.063c0,1.158 0.352,2.003 0.922,2.434c0.103,0.078 3.852,2.963 4.519,3.347c0.552,0.318 1.272,0.288 2.058,-0.166l84.789,-48.953c1.737,-1.003 3.148,-3.698 3.148,-6.014l-0,-39.063c-0,-0.123 -0.004,-0.242 -0.012,-0.358c0.008,-0.125 0.012,-0.25 0.012,-0.373Z" style="fill:#cecece;"/><path d="M52.282,79.965l0,88.864c0,1.158 0.352,2.003 0.922,2.434c0.1,0.076 3.658,2.813 4.461,3.312c-0.634,-0.402 -1.032,-1.28 -1.032,-2.511l0,-88.864c0,-2.316 1.411,-5.011 3.148,-6.015l84.789,-48.952c0.892,-0.515 1.697,-0.485 2.27,-0.02l0.005,0.004l0.054,0.046c-0.017,-0.015 -0.034,-0.03 -0.051,-0.044l-0.008,-0.006c-0.595,-0.487 -3.828,-2.842 -4.396,-3.271c-0.569,-0.431 -1.356,-0.447 -2.225,0.055l-84.789,48.953c-1.737,1.003 -3.148,3.698 -3.148,6.015Z" style="fill:#e9e9e9;fill-opacity:0.5;"/><path d="M52.282,79.965l4.351,3.235c0,-2.316 1.411,-5.011 3.148,-6.015l-4.351,-3.235c-1.737,1.003 -3.148,3.698 -3.148,6.015Z" style="fill:#e9e9e9;fill-opacity:0.5;"/><path d="M52.282,79.965l4.351,3.235c0,-2.316 1.045,-3.832 1.835,-4.831l-4.367,-3.238c-0.746,1.058 -1.819,2.517 -1.819,4.834Z" style="fill:#e9e9e9;fill-opacity:0.5;"/><path d="M137.248,67.742c0.21,-0.122 0.469,-0.122 0.679,-0c0.21,0.121 0.34,0.345 0.34,0.588l-0,0.001c-0,0.727 -0.389,1.399 -1.018,1.763c-1.698,0.98 -5.086,2.936 -6.783,3.916c-0.21,0.121 -0.469,0.121 -0.679,-0c-0.21,-0.121 -0.34,-0.346 -0.34,-0.588l0,-0.001c0,-0.728 0.389,-1.4 1.018,-1.764c1.698,-0.979 5.086,-2.935 6.783,-3.915Z" style="fill:#001b35;"/><path d="M124.559,75.068c0.21,-0.122 0.469,-0.122 0.679,-0c0.21,0.121 0.339,0.345 0.339,0.588l0,0.001c0,0.727 -0.388,1.4 -1.018,1.763c-1.697,0.98 -5.085,2.936 -6.782,3.916c-0.211,0.121 -0.469,0.121 -0.679,0c-0.211,-0.121 -0.34,-0.345 -0.34,-0.588l0,-0.001c0,-0.727 0.388,-1.4 1.018,-1.763c1.697,-0.98 5.085,-2.936 6.783,-3.916Z" style="fill:#001b35;"/><path d="M111.869,82.394c0.21,-0.121 0.469,-0.121 0.679,0c0.21,0.121 0.34,0.345 0.34,0.588l-0,0.001c-0,0.728 -0.388,1.4 -1.018,1.764c-1.697,0.979 -5.086,2.935 -6.783,3.915c-0.21,0.122 -0.469,0.122 -0.679,0c-0.21,-0.121 -0.339,-0.345 -0.339,-0.588l-0,-0.001c-0,-0.727 0.388,-1.399 1.018,-1.763c1.697,-0.98 5.085,-2.936 6.782,-3.916Z" style="fill:#001b35;"/><path d="M99.18,89.72c0.21,-0.121 0.469,-0.121 0.679,0c0.21,0.122 0.339,0.346 0.339,0.588l0,0.002c0,0.727 -0.388,1.399 -1.018,1.763c-1.697,0.98 -5.085,2.936 -6.782,3.916c-0.21,0.121 -0.469,0.121 -0.679,-0c-0.21,-0.122 -0.34,-0.346 -0.34,-0.588l0,-0.002c0,-0.727 0.388,-1.399 1.018,-1.763c1.697,-0.98 5.085,-2.936 6.783,-3.916Z" style="fill:#001b35;"/><path d="M86.49,97.047c0.21,-0.122 0.469,-0.122 0.679,-0c0.21,0.121 0.34,0.345 0.34,0.588l-0,0.001c-0,0.727 -0.388,1.399 -1.018,1.763c-1.697,0.98 -5.085,2.936 -6.783,3.916c-0.21,0.121 -0.469,0.121 -0.679,-0c-0.21,-0.121 -0.339,-0.346 -0.339,-0.588l-0,-0.001c-0,-0.728 0.388,-1.4 1.018,-1.764c1.697,-0.979 5.085,-2.935 6.782,-3.915Z" style="fill:#001b35;"/><path d="M73.801,104.373c0.21,-0.121 0.469,-0.121 0.679,-0c0.21,0.121 0.339,0.345 0.339,0.588l0,0.001c0,0.727 -0.388,1.4 -1.018,1.763c-1.697,0.98 -5.085,2.936 -6.782,3.916c-0.21,0.121 -0.469,0.121 -0.679,0c-0.21,-0.121 -0.34,-0.345 -0.34,-0.588l0,-0.001c0,-0.727 0.388,-1.4 1.018,-1.763c1.697,-0.98 5.085,-2.936 6.783,-3.916Z" style="fill:#001b35;"/><path d="M128.362,67.423c0.21,-0.121 0.469,-0.121 0.679,0c0.21,0.121 0.339,0.346 0.339,0.588c0,0.001 0,0.001 0,0.001c0,0.728 -0.388,1.4 -1.018,1.764c-0.528,0.305 -1.171,0.676 -1.699,0.981c-0.21,0.121 -0.469,0.121 -0.679,-0c-0.21,-0.121 -0.34,-0.345 -0.34,-0.588c0,-0 0,-0.001 0,-0.001c0,-0.728 0.388,-1.4 1.018,-1.764c0.528,-0.304 1.172,-0.676 1.7,-0.981Z" style="fill:#001b35;"/><path d="M115.673,74.749c0.21,-0.121 0.468,-0.121 0.679,0c0.21,0.122 0.339,0.346 0.339,0.588c0,0.001 0,0.001 0,0.002c0,0.727 -0.388,1.399 -1.018,1.763c-0.528,0.305 -1.172,0.676 -1.7,0.981c-0.21,0.122 -0.469,0.122 -0.679,0c-0.21,-0.121 -0.339,-0.345 -0.339,-0.588c-0,-0 -0,-0.001 -0,-0.001c-0,-0.727 0.388,-1.4 1.018,-1.763c0.528,-0.305 1.171,-0.677 1.7,-0.982Z" style="fill:#001b35;"/><path d="M102.983,82.076c0.21,-0.122 0.469,-0.122 0.679,-0c0.21,0.121 0.34,0.345 0.34,0.588c-0,0 -0,0 -0,0.001c-0,0.727 -0.389,1.399 -1.018,1.763c-0.529,0.305 -1.172,0.677 -1.7,0.981c-0.21,0.122 -0.469,0.122 -0.679,0c-0.21,-0.121 -0.34,-0.345 -0.34,-0.588c0,0 0,-0 0,-0.001c0,-0.727 0.388,-1.399 1.018,-1.763c0.528,-0.305 1.172,-0.676 1.7,-0.981Z" style="fill:#001b35;"/><path d="M90.294,89.402c0.21,-0.121 0.469,-0.121 0.679,-0c0.21,0.121 0.339,0.345 0.339,0.588c0,0 0,0.001 0,0.001c0,0.728 -0.388,1.4 -1.018,1.763c-0.528,0.305 -1.171,0.677 -1.7,0.982c-0.21,0.121 -0.469,0.121 -0.679,-0c-0.21,-0.122 -0.339,-0.346 -0.339,-0.588c-0,-0.001 -0,-0.001 -0,-0.002c-0,-0.727 0.388,-1.399 1.018,-1.763c0.528,-0.305 1.171,-0.676 1.7,-0.981Z" style="fill:#001b35;"/><path d="M77.604,96.728c0.21,-0.121 0.469,-0.121 0.679,0c0.21,0.121 0.34,0.346 0.34,0.588c-0,0.001 -0,0.001 -0,0.001c-0,0.728 -0.388,1.4 -1.018,1.764c-0.529,0.305 -1.172,0.676 -1.7,0.981c-0.21,0.121 -0.469,0.121 -0.679,-0c-0.21,-0.121 -0.34,-0.345 -0.34,-0.588c0,-0 0,-0.001 0,-0.001c0,-0.728 0.388,-1.4 1.018,-1.764c0.529,-0.304 1.172,-0.676 1.7,-0.981Z" style="fill:#001b35;"/><path d="M64.915,104.054c0.21,-0.121 0.469,-0.121 0.679,0c0.21,0.122 0.339,0.346 0.339,0.588c0,0.001 0,0.001 0,0.002c0,0.727 -0.388,1.399 -1.018,1.763c-0.528,0.305 -1.171,0.676 -1.7,0.981c-0.21,0.122 -0.469,0.122 -0.679,0c-0.21,-0.121 -0.339,-0.345 -0.339,-0.588c-0,-0 -0,-0.001 -0,-0.001c-0,-0.727 0.388,-1.4 1.018,-1.763c0.528,-0.305 1.172,-0.677 1.7,-0.982Z" style="fill:#001b35;"/><path d="M137.18,56.862c0.21,-0.121 0.469,-0.121 0.679,0c0.21,0.121 0.339,0.346 0.339,0.588l0,0.001c0,0.728 -0.388,1.4 -1.017,1.764c-1.698,0.979 -5.086,2.935 -6.783,3.915c-0.21,0.122 -0.469,0.122 -0.679,0c-0.21,-0.121 -0.34,-0.345 -0.34,-0.588l0,-0.001c0,-0.727 0.388,-1.399 1.018,-1.763c1.697,-0.98 5.086,-2.936 6.783,-3.916Z" style="fill:#001b35;"/><path d="M124.491,64.188c0.21,-0.121 0.468,-0.121 0.679,0c0.21,0.122 0.339,0.346 0.339,0.588l0,0.002c0,0.727 -0.388,1.399 -1.018,1.763c-1.697,0.98 -5.085,2.936 -6.783,3.916c-0.21,0.121 -0.468,0.121 -0.679,-0c-0.21,-0.122 -0.339,-0.346 -0.339,-0.588l-0,-0.002c-0,-0.727 0.388,-1.399 1.018,-1.763c1.697,-0.98 5.085,-2.936 6.783,-3.916Z" style="fill:#001b35;"/><path d="M111.801,71.515c0.21,-0.122 0.469,-0.122 0.679,-0c0.21,0.121 0.34,0.345 0.34,0.588l-0,0.001c-0,0.727 -0.388,1.399 -1.018,1.763c-1.697,0.98 -5.086,2.936 -6.783,3.916c-0.21,0.121 -0.469,0.121 -0.679,-0c-0.21,-0.121 -0.339,-0.345 -0.339,-0.588l-0,-0.001c-0,-0.728 0.388,-1.4 1.018,-1.764c1.697,-0.979 5.085,-2.935 6.782,-3.915Z" style="fill:#001b35;"/><path d="M99.112,78.841c0.21,-0.121 0.469,-0.121 0.679,-0c0.21,0.121 0.339,0.345 0.339,0.588l0,0.001c0,0.727 -0.388,1.4 -1.018,1.763c-1.697,0.98 -5.085,2.936 -6.782,3.916c-0.21,0.122 -0.469,0.122 -0.679,0c-0.21,-0.121 -0.34,-0.345 -0.34,-0.588l0,-0.001c0,-0.727 0.388,-1.4 1.018,-1.763c1.697,-0.98 5.085,-2.936 6.783,-3.916Z" style="fill:#001b35;"/><path d="M86.422,86.167c0.21,-0.121 0.469,-0.121 0.679,0c0.21,0.121 0.34,0.346 0.34,0.588l-0,0.001c-0,0.728 -0.388,1.4 -1.018,1.764c-1.697,0.979 -5.085,2.935 -6.783,3.915c-0.21,0.122 -0.469,0.122 -0.679,0c-0.21,-0.121 -0.339,-0.345 -0.339,-0.588l-0,-0.001c-0,-0.727 0.388,-1.399 1.018,-1.763c1.697,-0.98 5.085,-2.936 6.782,-3.916Z" style="fill:#001b35;"/><path d="M73.733,93.493c0.21,-0.121 0.469,-0.121 0.679,0c0.21,0.122 0.339,0.346 0.339,0.588l0,0.002c0,0.727 -0.388,1.399 -1.018,1.763c-1.697,0.98 -5.085,2.936 -6.782,3.916c-0.21,0.121 -0.469,0.121 -0.679,-0c-0.21,-0.122 -0.34,-0.346 -0.34,-0.588l0,-0.002c0,-0.727 0.388,-1.399 1.018,-1.763c1.697,-0.98 5.085,-2.936 6.783,-3.916Z" style="fill:#001b35;"/><path d="M128.294,56.544c0.21,-0.122 0.469,-0.122 0.679,-0c0.21,0.121 0.339,0.345 0.339,0.588c0,0 0,0 0,0.001c0,0.727 -0.388,1.399 -1.018,1.763c-0.528,0.305 -1.171,0.677 -1.699,0.982c-0.211,0.121 -0.469,0.121 -0.679,-0c-0.21,-0.122 -0.34,-0.346 -0.34,-0.589c0,0 0,-0 0,-0.001c0,-0.727 0.388,-1.399 1.018,-1.763c0.528,-0.305 1.172,-0.676 1.7,-0.981Z" style="fill:#001b35;"/><path d="M115.604,63.87c0.211,-0.121 0.469,-0.121 0.679,-0c0.211,0.121 0.34,0.345 0.34,0.588c-0,0 -0,0.001 -0,0.001c-0,0.728 -0.388,1.4 -1.018,1.763c-0.528,0.305 -1.172,0.677 -1.7,0.982c-0.21,0.121 -0.469,0.121 -0.679,-0c-0.21,-0.122 -0.339,-0.346 -0.339,-0.588c-0,-0.001 -0,-0.001 -0,-0.001c-0,-0.728 0.388,-1.4 1.018,-1.764c0.528,-0.305 1.171,-0.676 1.699,-0.981Z" style="fill:#001b35;"/><path d="M102.915,71.196c0.21,-0.121 0.469,-0.121 0.679,0c0.21,0.121 0.34,0.346 0.34,0.588c-0,0.001 -0,0.001 -0,0.001c-0,0.728 -0.389,1.4 -1.018,1.764c-0.529,0.305 -1.172,0.676 -1.7,0.981c-0.21,0.121 -0.469,0.121 -0.679,0c-0.21,-0.121 -0.34,-0.345 -0.34,-0.588c0,-0 0,-0.001 0,-0.001c0,-0.728 0.388,-1.4 1.018,-1.763c0.528,-0.305 1.172,-0.677 1.7,-0.982Z" style="fill:#001b35;"/><path d="M90.226,78.522c0.21,-0.121 0.468,-0.121 0.679,0c0.21,0.122 0.339,0.346 0.339,0.588c0,0.001 0,0.001 0,0.002c0,0.727 -0.388,1.399 -1.018,1.763c-0.528,0.305 -1.172,0.676 -1.7,0.981c-0.21,0.122 -0.469,0.122 -0.679,0c-0.21,-0.121 -0.339,-0.345 -0.339,-0.588c-0,-0 -0,-0.001 -0,-0.001c-0,-0.727 0.388,-1.4 1.018,-1.763c0.528,-0.305 1.171,-0.677 1.7,-0.982Z" style="fill:#001b35;"/><path d="M77.536,85.849c0.21,-0.122 0.469,-0.122 0.679,-0c0.21,0.121 0.34,0.345 0.34,0.588c-0,0 -0,0 -0,0.001c-0,0.727 -0.388,1.399 -1.018,1.763c-0.529,0.305 -1.172,0.677 -1.7,0.982c-0.21,0.121 -0.469,0.121 -0.679,-0c-0.21,-0.122 -0.34,-0.346 -0.34,-0.589c0,0 0,-0 0,-0.001c0,-0.727 0.388,-1.399 1.018,-1.763c0.528,-0.305 1.172,-0.676 1.7,-0.981Z" style="fill:#001b35;"/><path d="M64.847,93.175c0.21,-0.121 0.469,-0.121 0.679,-0c0.21,0.121 0.339,0.345 0.339,0.588c0,0 0,0.001 0,0.001c0,0.728 -0.388,1.4 -1.018,1.763c-0.528,0.305 -1.171,0.677 -1.7,0.982c-0.21,0.121 -0.469,0.121 -0.679,-0c-0.21,-0.122 -0.339,-0.346 -0.339,-0.588c-0,-0.001 -0,-0.001 -0,-0.001c-0,-0.728 0.388,-1.4 1.018,-1.764c0.528,-0.305 1.171,-0.676 1.7,-0.981Z" style="fill:#001b35;"/><path d="M137.334,45.532c0.21,-0.121 0.468,-0.121 0.679,0c0.21,0.121 0.339,0.345 0.339,0.588l0,0.001c0,0.728 -0.388,1.4 -1.018,1.763c-1.697,0.98 -5.085,2.936 -6.783,3.916c-0.21,0.122 -0.468,0.122 -0.679,0c-0.21,-0.121 -0.339,-0.345 -0.339,-0.588l-0,-0.001c-0,-0.727 0.388,-1.399 1.018,-1.763c1.697,-0.98 5.085,-2.936 6.783,-3.916Z" style="fill:#001b35;"/><path d="M124.644,52.858c0.21,-0.121 0.469,-0.121 0.679,0c0.21,0.122 0.34,0.346 0.34,0.588l-0,0.002c-0,0.727 -0.388,1.399 -1.018,1.763c-1.697,0.98 -5.086,2.936 -6.783,3.916c-0.21,0.121 -0.469,0.121 -0.679,-0c-0.21,-0.122 -0.339,-0.346 -0.339,-0.588l-0,-0.002c-0,-0.727 0.388,-1.399 1.018,-1.763c1.697,-0.98 5.085,-2.936 6.782,-3.916Z" style="fill:#001b35;"/><path d="M111.955,60.185c0.21,-0.122 0.469,-0.122 0.679,-0c0.21,0.121 0.339,0.345 0.339,0.588l0,0.001c0,0.727 -0.388,1.399 -1.018,1.763c-1.697,0.98 -5.085,2.936 -6.782,3.916c-0.21,0.121 -0.469,0.121 -0.679,-0c-0.21,-0.121 -0.34,-0.346 -0.34,-0.588l0,-0.001c0,-0.728 0.388,-1.4 1.018,-1.764c1.697,-0.979 5.085,-2.936 6.783,-3.915Z" style="fill:#001b35;"/><path d="M99.265,67.511c0.21,-0.122 0.469,-0.122 0.679,-0c0.21,0.121 0.34,0.345 0.34,0.588l-0,0.001c-0,0.727 -0.388,1.4 -1.018,1.763c-1.697,0.98 -5.085,2.936 -6.783,3.916c-0.21,0.121 -0.469,0.121 -0.679,0c-0.21,-0.121 -0.339,-0.345 -0.339,-0.588l-0,-0.001c-0,-0.727 0.388,-1.4 1.018,-1.763c1.697,-0.98 5.085,-2.936 6.782,-3.916Z" style="fill:#001b35;"/><path d="M86.576,74.837c0.21,-0.121 0.469,-0.121 0.679,0c0.21,0.121 0.339,0.345 0.339,0.588l0,0.001c0,0.728 -0.388,1.4 -1.018,1.764c-1.697,0.979 -5.085,2.935 -6.782,3.915c-0.21,0.122 -0.469,0.122 -0.679,0c-0.21,-0.121 -0.34,-0.345 -0.34,-0.588l0,-0.001c0,-0.727 0.388,-1.399 1.018,-1.763c1.697,-0.98 5.085,-2.936 6.783,-3.916Z" style="fill:#001b35;"/><path d="M73.886,82.163c0.21,-0.121 0.469,-0.121 0.679,0c0.21,0.122 0.34,0.346 0.34,0.588l-0,0.002c-0,0.727 -0.388,1.399 -1.018,1.763c-1.697,0.98 -5.085,2.936 -6.783,3.916c-0.21,0.121 -0.469,0.121 -0.679,-0c-0.21,-0.122 -0.339,-0.346 -0.339,-0.588l-0,-0.002c-0,-0.727 0.388,-1.399 1.018,-1.763c1.697,-0.98 5.085,-2.936 6.782,-3.916Z" style="fill:#001b35;"/><path d="M128.447,45.214c0.211,-0.122 0.469,-0.122 0.679,-0c0.211,0.121 0.34,0.345 0.34,0.588c-0,0 -0,0 -0,0.001c-0,0.727 -0.388,1.399 -1.018,1.763c-0.528,0.305 -1.172,0.676 -1.7,0.981c-0.21,0.122 -0.469,0.122 -0.679,0c-0.21,-0.121 -0.339,-0.345 -0.339,-0.588c-0,-0 -0,-0 -0,-0.001c-0,-0.727 0.388,-1.399 1.018,-1.763c0.528,-0.305 1.171,-0.676 1.699,-0.981Z" style="fill:#001b35;"/><path d="M115.758,52.54c0.21,-0.121 0.469,-0.121 0.679,-0c0.21,0.121 0.339,0.345 0.339,0.588c0,0 0,0.001 0,0.001c0,0.727 -0.388,1.4 -1.018,1.763c-0.528,0.305 -1.171,0.677 -1.699,0.982c-0.21,0.121 -0.469,0.121 -0.679,-0c-0.21,-0.122 -0.34,-0.346 -0.34,-0.588c0,-0.001 0,-0.001 0,-0.002c0,-0.727 0.388,-1.399 1.018,-1.763c0.528,-0.305 1.172,-0.676 1.7,-0.981Z" style="fill:#001b35;"/><path d="M103.069,59.866c0.21,-0.121 0.468,-0.121 0.679,0c0.21,0.121 0.339,0.346 0.339,0.588c0,0.001 0,0.001 0,0.001c0,0.728 -0.388,1.4 -1.018,1.764c-0.528,0.305 -1.172,0.676 -1.7,0.981c-0.21,0.121 -0.469,0.121 -0.679,-0c-0.21,-0.121 -0.339,-0.346 -0.339,-0.588c-0,-0 -0,-0.001 -0,-0.001c-0,-0.728 0.388,-1.4 1.018,-1.764c0.528,-0.304 1.171,-0.676 1.7,-0.981Z" style="fill:#001b35;"/><path d="M90.379,67.192c0.21,-0.121 0.469,-0.121 0.679,0c0.21,0.122 0.34,0.346 0.34,0.588c-0,0.001 -0,0.001 -0,0.002c-0,0.727 -0.388,1.399 -1.018,1.763c-0.529,0.305 -1.172,0.676 -1.7,0.981c-0.21,0.121 -0.469,0.121 -0.679,0c-0.21,-0.121 -0.34,-0.345 -0.34,-0.588c0,-0 0,-0.001 0,-0.001c0,-0.727 0.388,-1.4 1.018,-1.763c0.528,-0.305 1.172,-0.677 1.7,-0.982Z" style="fill:#001b35;"/><path d="M77.69,74.519c0.21,-0.122 0.469,-0.122 0.679,-0c0.21,0.121 0.339,0.345 0.339,0.588c0,0 0,0 0,0.001c0,0.727 -0.388,1.399 -1.018,1.763c-0.528,0.305 -1.171,0.676 -1.7,0.981c-0.21,0.122 -0.469,0.122 -0.679,0c-0.21,-0.121 -0.339,-0.345 -0.339,-0.588c-0,0 -0,-0 -0,-0.001c-0,-0.727 0.388,-1.399 1.018,-1.763c0.528,-0.305 1.171,-0.676 1.7,-0.981Z" style="fill:#001b35;"/><path d="M65,81.845c0.21,-0.121 0.469,-0.121 0.679,-0c0.21,0.121 0.34,0.345 0.34,0.588c-0,0 -0,0.001 -0,0.001c-0,0.727 -0.388,1.4 -1.018,1.763c-0.528,0.305 -1.172,0.677 -1.7,0.982c-0.21,0.121 -0.469,0.121 -0.679,-0c-0.21,-0.122 -0.34,-0.346 -0.34,-0.588c0,-0.001 0,-0.001 0,-0.002c0,-0.727 0.388,-1.399 1.018,-1.763c0.529,-0.305 1.172,-0.676 1.7,-0.981Z" style="fill:#001b35;"/><path d="M128.412,78.81c0.21,-0.121 0.468,-0.121 0.679,0c0.21,0.121 0.339,0.345 0.339,0.588c0,0 0,0.001 0,0.001c0,0.728 -0.388,1.4 -1.018,1.764c-0.528,0.304 -1.172,0.676 -1.7,0.981c-0.21,0.121 -0.469,0.121 -0.679,-0c-0.21,-0.121 -0.339,-0.346 -0.339,-0.588c-0,-0.001 -0,-0.001 -0,-0.001c-0,-0.728 0.388,-1.4 1.018,-1.764c0.528,-0.305 1.171,-0.676 1.7,-0.981Z" style="fill:#001b35;"/><path d="M115.722,86.136c0.21,-0.121 0.469,-0.121 0.679,0c0.21,0.122 0.34,0.346 0.34,0.588c-0,0.001 -0,0.001 -0,0.002c-0,0.727 -0.388,1.399 -1.018,1.763c-0.529,0.305 -1.172,0.676 -1.7,0.981c-0.21,0.121 -0.469,0.121 -0.679,0c-0.21,-0.121 -0.34,-0.345 -0.34,-0.588c0,-0 0,-0.001 0,-0.001c0,-0.727 0.388,-1.4 1.018,-1.763c0.528,-0.305 1.172,-0.677 1.7,-0.982Z" style="fill:#001b35;"/><path d="M103.033,93.463c0.21,-0.122 0.469,-0.122 0.679,-0c0.21,0.121 0.339,0.345 0.339,0.588c0,-0 0,0 0,0.001c0,0.727 -0.388,1.399 -1.018,1.763c-0.528,0.305 -1.171,0.676 -1.7,0.981c-0.21,0.122 -0.469,0.122 -0.679,0c-0.21,-0.121 -0.339,-0.345 -0.339,-0.588c-0,-0 -0,-0 -0,-0.001c-0,-0.727 0.388,-1.399 1.018,-1.763c0.528,-0.305 1.171,-0.676 1.7,-0.981Z" style="fill:#001b35;"/><path d="M90.343,100.789c0.21,-0.121 0.469,-0.121 0.679,-0c0.21,0.121 0.34,0.345 0.34,0.588c-0,0 -0,0.001 -0,0.001c-0,0.727 -0.388,1.4 -1.018,1.763c-0.528,0.305 -1.172,0.677 -1.7,0.982c-0.21,0.121 -0.469,0.121 -0.679,-0c-0.21,-0.122 -0.34,-0.346 -0.34,-0.588c0,-0.001 0,-0.001 0,-0.002c0,-0.727 0.388,-1.399 1.018,-1.763c0.529,-0.305 1.172,-0.676 1.7,-0.981Z" style="fill:#001b35;"/><path d="M77.654,108.115c0.21,-0.121 0.469,-0.121 0.679,0c0.21,0.121 0.339,0.346 0.339,0.588c0,0 0,0.001 0,0.001c0,0.728 -0.388,1.4 -1.018,1.764c-0.528,0.304 -1.171,0.676 -1.7,0.981c-0.21,0.121 -0.468,0.121 -0.679,-0c-0.21,-0.121 -0.339,-0.346 -0.339,-0.588c-0,-0.001 -0,-0.001 -0,-0.001c-0,-0.728 0.388,-1.4 1.018,-1.764c0.528,-0.305 1.172,-0.676 1.7,-0.981Z" style="fill:#001b35;"/><path d="M64.964,115.441c0.21,-0.121 0.469,-0.121 0.679,0c0.21,0.122 0.34,0.346 0.34,0.588c-0,0.001 -0,0.001 -0,0.002c-0,0.727 -0.388,1.399 -1.018,1.763c-0.528,0.305 -1.172,0.676 -1.7,0.981c-0.21,0.121 -0.469,0.121 -0.679,0c-0.21,-0.121 -0.339,-0.345 -0.339,-0.588c-0,-0 -0,-0.001 -0,-0.001c-0,-0.727 0.388,-1.4 1.018,-1.763c0.528,-0.305 1.171,-0.677 1.699,-0.982Z" style="fill:#001b35;"/><path d="M141.118,60.058c0.21,-0.121 0.469,-0.121 0.679,0c0.21,0.121 0.34,0.346 0.34,0.588c-0,0.001 -0,0.001 -0,0.001c-0,0.728 -0.388,1.4 -1.018,1.764c-0.528,0.305 -1.172,0.676 -1.7,0.981c-0.21,0.121 -0.469,0.121 -0.679,0c-0.21,-0.121 -0.34,-0.345 -0.34,-0.588c0,-0 0,-0.001 0,-0.001c0,-0.728 0.389,-1.4 1.019,-1.763c0.528,-0.305 1.171,-0.677 1.699,-0.982Z" style="fill:#001b35;"/><path d="M141.05,49.179c0.21,-0.122 0.469,-0.122 0.679,-0c0.21,0.121 0.34,0.345 0.34,0.588c-0,0 -0,0.001 -0,0.001c-0,0.727 -0.388,1.4 -1.018,1.763c-0.528,0.305 -1.172,0.677 -1.7,0.982c-0.21,0.121 -0.469,0.121 -0.679,-0c-0.21,-0.122 -0.34,-0.346 -0.34,-0.588c0,-0.001 0,-0.001 0,-0.002c0,-0.727 0.389,-1.399 1.018,-1.763c0.529,-0.305 1.172,-0.676 1.7,-0.981Z" style="fill:#001b35;"/><path d="M141.204,37.849c0.21,-0.122 0.469,-0.122 0.679,-0c0.21,0.121 0.339,0.345 0.339,0.588c0,0 0,0.001 0,0.001c0,0.727 -0.388,1.399 -1.018,1.763c-0.528,0.305 -1.171,0.677 -1.7,0.982c-0.21,0.121 -0.468,0.121 -0.679,-0c-0.21,-0.122 -0.339,-0.346 -0.339,-0.588c-0,-0.001 -0,-0.001 -0,-0.002c-0,-0.727 0.388,-1.399 1.018,-1.763c0.528,-0.305 1.172,-0.676 1.7,-0.981Z" style="fill:#001b35;"/><path d="M141.168,71.445c0.21,-0.121 0.469,-0.121 0.679,0c0.21,0.121 0.339,0.346 0.339,0.588c0,0.001 0,0.001 0,0.001c0,0.728 -0.388,1.4 -1.018,1.764c-0.528,0.305 -1.171,0.676 -1.699,0.981c-0.211,0.121 -0.469,0.121 -0.679,0c-0.21,-0.121 -0.34,-0.345 -0.34,-0.588c0,-0 0,-0.001 0,-0.001c0,-0.728 0.388,-1.4 1.018,-1.763c0.528,-0.305 1.172,-0.677 1.7,-0.982Z" style="fill:#001b35;"/><path d="M137.248,113.644c0.21,-0.121 0.469,-0.121 0.679,-0c0.21,0.121 0.34,0.345 0.34,0.588l-0,0.001c-0,0.727 -0.389,1.4 -1.018,1.763c-1.698,0.98 -5.086,2.936 -6.783,3.916c-0.21,0.122 -0.469,0.122 -0.679,0c-0.21,-0.121 -0.34,-0.345 -0.34,-0.588l0,-0.001c0,-0.727 0.389,-1.4 1.018,-1.763c1.698,-0.98 5.086,-2.936 6.783,-3.916Z" style="fill:#001b35;"/><path d="M124.559,120.97c0.21,-0.121 0.469,-0.121 0.679,0c0.21,0.121 0.339,0.346 0.339,0.588l0,0.001c0,0.728 -0.388,1.4 -1.018,1.764c-1.697,0.979 -5.085,2.935 -6.782,3.915c-0.211,0.122 -0.469,0.122 -0.679,0c-0.211,-0.121 -0.34,-0.345 -0.34,-0.588l0,-0.001c0,-0.727 0.388,-1.399 1.018,-1.763c1.697,-0.98 5.085,-2.936 6.783,-3.916Z" style="fill:#001b35;"/><path d="M111.869,128.296c0.21,-0.121 0.469,-0.121 0.679,0c0.21,0.122 0.34,0.346 0.34,0.588l-0,0.002c-0,0.727 -0.388,1.399 -1.018,1.763c-1.697,0.98 -5.086,2.936 -6.783,3.916c-0.21,0.121 -0.469,0.121 -0.679,-0c-0.21,-0.122 -0.339,-0.346 -0.339,-0.588l-0,-0.002c-0,-0.727 0.388,-1.399 1.018,-1.763c1.697,-0.98 5.085,-2.936 6.782,-3.916Z" style="fill:#001b35;"/><path d="M99.18,135.623c0.21,-0.122 0.469,-0.122 0.679,-0c0.21,0.121 0.339,0.345 0.339,0.588l0,0.001c0,0.727 -0.388,1.399 -1.018,1.763c-1.697,0.98 -5.085,2.936 -6.782,3.916c-0.21,0.121 -0.469,0.121 -0.679,-0c-0.21,-0.121 -0.34,-0.345 -0.34,-0.588l0,-0.001c0,-0.728 0.388,-1.4 1.018,-1.764c1.697,-0.979 5.085,-2.935 6.783,-3.915Z" style="fill:#001b35;"/><path d="M86.49,142.949c0.21,-0.121 0.469,-0.121 0.679,-0c0.21,0.121 0.34,0.345 0.34,0.588l-0,0.001c-0,0.727 -0.388,1.4 -1.018,1.763c-1.697,0.98 -5.085,2.936 -6.783,3.916c-0.21,0.122 -0.469,0.122 -0.679,0c-0.21,-0.121 -0.339,-0.345 -0.339,-0.588l-0,-0.001c-0,-0.727 0.388,-1.4 1.018,-1.763c1.697,-0.98 5.085,-2.936 6.782,-3.916Z" style="fill:#001b35;"/><path d="M73.801,150.275c0.21,-0.121 0.469,-0.121 0.679,0c0.21,0.121 0.339,0.346 0.339,0.588l0,0.001c0,0.728 -0.388,1.4 -1.018,1.764c-1.697,0.979 -5.085,2.936 -6.782,3.915c-0.21,0.122 -0.469,0.122 -0.679,0c-0.21,-0.121 -0.34,-0.345 -0.34,-0.588l0,-0.001c0,-0.727 0.388,-1.399 1.018,-1.763c1.697,-0.98 5.085,-2.936 6.783,-3.916Z" style="fill:#001b35;"/><path d="M128.362,113.325c0.21,-0.121 0.469,-0.121 0.679,0c0.21,0.122 0.339,0.346 0.339,0.588c0,0.001 0,0.001 0,0.002c0,0.727 -0.388,1.399 -1.018,1.763c-0.528,0.305 -1.171,0.676 -1.699,0.981c-0.21,0.122 -0.469,0.122 -0.679,0c-0.21,-0.121 -0.34,-0.345 -0.34,-0.588c0,-0 0,-0.001 0,-0.001c0,-0.727 0.388,-1.4 1.018,-1.763c0.528,-0.305 1.172,-0.677 1.7,-0.982Z" style="fill:#001b35;"/><path d="M115.673,120.652c0.21,-0.122 0.468,-0.122 0.679,-0c0.21,0.121 0.339,0.345 0.339,0.588c0,0 0,0 0,0.001c0,0.727 -0.388,1.399 -1.018,1.763c-0.528,0.305 -1.172,0.677 -1.7,0.982c-0.21,0.121 -0.469,0.121 -0.679,-0c-0.21,-0.122 -0.339,-0.346 -0.339,-0.589c-0,0 -0,-0 -0,-0.001c-0,-0.727 0.388,-1.399 1.018,-1.763c0.528,-0.305 1.171,-0.676 1.7,-0.981Z" style="fill:#001b35;"/><path d="M102.983,127.978c0.21,-0.121 0.469,-0.121 0.679,-0c0.21,0.121 0.34,0.345 0.34,0.588c-0,0 -0,0.001 -0,0.001c-0,0.728 -0.389,1.4 -1.018,1.763c-0.529,0.305 -1.172,0.677 -1.7,0.982c-0.21,0.121 -0.469,0.121 -0.679,-0c-0.21,-0.122 -0.34,-0.346 -0.34,-0.588c0,-0.001 0,-0.001 0,-0.001c0,-0.728 0.388,-1.4 1.018,-1.764c0.528,-0.305 1.172,-0.676 1.7,-0.981Z" style="fill:#001b35;"/><path d="M90.294,135.304c0.21,-0.121 0.469,-0.121 0.679,0c0.21,0.121 0.339,0.346 0.339,0.588c0,0.001 0,0.001 0,0.001c0,0.728 -0.388,1.4 -1.018,1.764c-0.528,0.305 -1.171,0.676 -1.7,0.981c-0.21,0.121 -0.469,0.121 -0.679,0c-0.21,-0.121 -0.339,-0.345 -0.339,-0.588c-0,-0 -0,-0.001 -0,-0.001c-0,-0.728 0.388,-1.4 1.018,-1.763c0.528,-0.305 1.171,-0.677 1.7,-0.982Z" style="fill:#001b35;"/><path d="M77.604,142.63c0.21,-0.121 0.469,-0.121 0.679,0c0.21,0.122 0.34,0.346 0.34,0.588c-0,0.001 -0,0.001 -0,0.002c-0,0.727 -0.388,1.399 -1.018,1.763c-0.529,0.305 -1.172,0.676 -1.7,0.981c-0.21,0.122 -0.469,0.122 -0.679,0c-0.21,-0.121 -0.34,-0.345 -0.34,-0.588c0,-0 0,-0.001 0,-0.001c0,-0.727 0.388,-1.4 1.018,-1.763c0.529,-0.305 1.172,-0.677 1.7,-0.982Z" style="fill:#001b35;"/><path d="M64.915,149.957c0.21,-0.122 0.469,-0.122 0.679,-0c0.21,0.121 0.339,0.345 0.339,0.588c0,0 0,0 0,0.001c0,0.727 -0.388,1.399 -1.018,1.763c-0.528,0.305 -1.171,0.677 -1.7,0.982c-0.21,0.121 -0.469,0.121 -0.679,-0c-0.21,-0.122 -0.339,-0.346 -0.339,-0.589c-0,0 -0,-0 -0,-0.001c-0,-0.727 0.388,-1.399 1.018,-1.763c0.528,-0.305 1.172,-0.676 1.7,-0.981Z" style="fill:#001b35;"/><path d="M137.18,102.764c0.21,-0.121 0.469,-0.121 0.679,0c0.21,0.122 0.339,0.346 0.339,0.588l0,0.002c0,0.727 -0.388,1.399 -1.017,1.763c-1.698,0.98 -5.086,2.936 -6.783,3.916c-0.21,0.121 -0.469,0.121 -0.679,-0c-0.21,-0.122 -0.34,-0.346 -0.34,-0.588l0,-0.001c0,-0.728 0.388,-1.4 1.018,-1.764c1.697,-0.98 5.086,-2.936 6.783,-3.916Z" style="fill:#001b35;"/><path d="M124.491,110.091c0.21,-0.122 0.468,-0.122 0.679,-0c0.21,0.121 0.339,0.345 0.339,0.588l0,0.001c0,0.727 -0.388,1.399 -1.018,1.763c-1.697,0.98 -5.085,2.936 -6.783,3.916c-0.21,0.121 -0.468,0.121 -0.679,0c-0.21,-0.121 -0.339,-0.345 -0.339,-0.588l-0,-0.001c-0,-0.728 0.388,-1.4 1.018,-1.763c1.697,-0.98 5.085,-2.936 6.783,-3.916Z" style="fill:#001b35;"/><path d="M111.801,117.417c0.21,-0.121 0.469,-0.121 0.679,-0c0.21,0.121 0.34,0.345 0.34,0.588l-0,0.001c-0,0.728 -0.388,1.4 -1.018,1.763c-1.697,0.98 -5.086,2.936 -6.783,3.916c-0.21,0.122 -0.469,0.122 -0.679,0c-0.21,-0.121 -0.339,-0.345 -0.339,-0.588l-0,-0.001c-0,-0.727 0.388,-1.4 1.018,-1.763c1.697,-0.98 5.085,-2.936 6.782,-3.916Z" style="fill:#001b35;"/><path d="M99.112,124.743c0.21,-0.121 0.469,-0.121 0.679,0c0.21,0.121 0.339,0.346 0.339,0.588l0,0.001c0,0.728 -0.388,1.4 -1.018,1.764c-1.697,0.979 -5.085,2.936 -6.782,3.916c-0.21,0.121 -0.469,0.121 -0.679,-0c-0.21,-0.122 -0.34,-0.346 -0.34,-0.589l0,-0.001c0,-0.727 0.388,-1.399 1.018,-1.763c1.697,-0.98 5.085,-2.936 6.783,-3.916Z" style="fill:#001b35;"/><path d="M86.422,132.069c0.21,-0.121 0.469,-0.121 0.679,0c0.21,0.122 0.34,0.346 0.34,0.588l-0,0.002c-0,0.727 -0.388,1.399 -1.018,1.763c-1.697,0.98 -5.085,2.936 -6.783,3.916c-0.21,0.121 -0.469,0.121 -0.679,-0c-0.21,-0.122 -0.339,-0.346 -0.339,-0.588l-0,-0.001c-0,-0.728 0.388,-1.4 1.018,-1.764c1.697,-0.979 5.085,-2.936 6.782,-3.916Z" style="fill:#001b35;"/><path d="M73.733,139.396c0.21,-0.122 0.469,-0.122 0.679,-0c0.21,0.121 0.339,0.345 0.339,0.588l0,0.001c0,0.727 -0.388,1.399 -1.018,1.763c-1.697,0.98 -5.085,2.936 -6.782,3.916c-0.21,0.121 -0.469,0.121 -0.679,0c-0.21,-0.121 -0.34,-0.345 -0.34,-0.588l0,-0.001c0,-0.728 0.388,-1.4 1.018,-1.763c1.697,-0.98 5.085,-2.936 6.783,-3.916Z" style="fill:#001b35;"/><path d="M128.294,102.446c0.21,-0.121 0.469,-0.121 0.679,-0c0.21,0.121 0.339,0.345 0.339,0.588c0,0 0,0.001 0,0.001c0,0.728 -0.388,1.4 -1.018,1.763c-0.528,0.305 -1.171,0.677 -1.699,0.982c-0.211,0.121 -0.469,0.121 -0.679,-0c-0.21,-0.121 -0.34,-0.346 -0.34,-0.588c0,-0.001 0,-0.001 0,-0.001c0,-0.728 0.388,-1.4 1.018,-1.764c0.528,-0.305 1.172,-0.676 1.7,-0.981Z" style="fill:#001b35;"/><path d="M115.604,109.772c0.211,-0.121 0.469,-0.121 0.679,0c0.211,0.121 0.34,0.346 0.34,0.588c-0,0.001 -0,0.001 -0,0.001c-0,0.728 -0.388,1.4 -1.018,1.764c-0.528,0.305 -1.172,0.676 -1.7,0.981c-0.21,0.121 -0.469,0.121 -0.679,0c-0.21,-0.121 -0.339,-0.345 -0.339,-0.588c-0,-0 -0,-0.001 -0,-0.001c-0,-0.728 0.388,-1.4 1.018,-1.763c0.528,-0.305 1.171,-0.677 1.699,-0.982Z" style="fill:#001b35;"/><path d="M102.915,117.098c0.21,-0.121 0.469,-0.121 0.679,0c0.21,0.122 0.34,0.346 0.34,0.588c-0,0.001 -0,0.001 -0,0.002c-0,0.727 -0.389,1.399 -1.018,1.763c-0.529,0.305 -1.172,0.676 -1.7,0.981c-0.21,0.122 -0.469,0.122 -0.679,0c-0.21,-0.121 -0.34,-0.345 -0.34,-0.588c0,-0 0,-0.001 0,-0.001c0,-0.727 0.388,-1.399 1.018,-1.763c0.528,-0.305 1.172,-0.677 1.7,-0.982Z" style="fill:#001b35;"/><path d="M90.226,124.425c0.21,-0.122 0.468,-0.122 0.679,-0c0.21,0.121 0.339,0.345 0.339,0.588c0,0 0,0.001 0,0.001c0,0.727 -0.388,1.399 -1.018,1.763c-0.528,0.305 -1.172,0.677 -1.7,0.982c-0.21,0.121 -0.469,0.121 -0.679,-0c-0.21,-0.122 -0.339,-0.346 -0.339,-0.588c-0,-0.001 -0,-0.001 -0,-0.002c-0,-0.727 0.388,-1.399 1.018,-1.763c0.528,-0.305 1.171,-0.676 1.7,-0.981Z" style="fill:#001b35;"/><path d="M77.536,131.751c0.21,-0.121 0.469,-0.121 0.679,-0c0.21,0.121 0.34,0.345 0.34,0.588c-0,0 -0,0.001 -0,0.001c-0,0.728 -0.388,1.4 -1.018,1.763c-0.529,0.305 -1.172,0.677 -1.7,0.982c-0.21,0.121 -0.469,0.121 -0.679,-0c-0.21,-0.121 -0.34,-0.346 -0.34,-0.588c0,-0.001 0,-0.001 0,-0.001c0,-0.728 0.388,-1.4 1.018,-1.764c0.528,-0.305 1.172,-0.676 1.7,-0.981Z" style="fill:#001b35;"/><path d="M64.847,139.077c0.21,-0.121 0.469,-0.121 0.679,0c0.21,0.121 0.339,0.346 0.339,0.588c0,0.001 0,0.001 0,0.001c0,0.728 -0.388,1.4 -1.018,1.764c-0.528,0.305 -1.171,0.676 -1.7,0.981c-0.21,0.121 -0.469,0.121 -0.679,0c-0.21,-0.121 -0.339,-0.345 -0.339,-0.588c-0,-0 -0,-0.001 -0,-0.001c-0,-0.728 0.388,-1.4 1.018,-1.763c0.528,-0.305 1.171,-0.677 1.7,-0.982Z" style="fill:#001b35;"/><path d="M137.334,91.434c0.21,-0.121 0.468,-0.121 0.679,0c0.21,0.122 0.339,0.346 0.339,0.588l0,0.002c0,0.727 -0.388,1.399 -1.018,1.763c-1.697,0.98 -5.085,2.936 -6.783,3.916c-0.21,0.121 -0.468,0.121 -0.679,-0c-0.21,-0.122 -0.339,-0.346 -0.339,-0.588l-0,-0.002c-0,-0.727 0.388,-1.399 1.018,-1.763c1.697,-0.98 5.085,-2.936 6.783,-3.916Z" style="fill:#001b35;"/><path d="M124.644,98.761c0.21,-0.122 0.469,-0.122 0.679,-0c0.21,0.121 0.34,0.345 0.34,0.588l-0,0.001c-0,0.727 -0.388,1.399 -1.018,1.763c-1.697,0.98 -5.086,2.936 -6.783,3.916c-0.21,0.121 -0.469,0.121 -0.679,-0c-0.21,-0.121 -0.339,-0.345 -0.339,-0.588l-0,-0.001c-0,-0.728 0.388,-1.4 1.018,-1.764c1.697,-0.979 5.085,-2.935 6.782,-3.915Z" style="fill:#001b35;"/><path d="M111.955,106.087c0.21,-0.121 0.469,-0.121 0.679,-0c0.21,0.121 0.339,0.345 0.339,0.588l0,0.001c0,0.727 -0.388,1.4 -1.018,1.763c-1.697,0.98 -5.085,2.936 -6.782,3.916c-0.21,0.121 -0.469,0.121 -0.679,0c-0.21,-0.121 -0.34,-0.345 -0.34,-0.588l0,-0.001c0,-0.727 0.388,-1.4 1.018,-1.763c1.697,-0.98 5.085,-2.936 6.783,-3.916Z" style="fill:#001b35;"/><path d="M99.265,113.413c0.21,-0.121 0.469,-0.121 0.679,0c0.21,0.121 0.34,0.346 0.34,0.588l-0,0.001c-0,0.728 -0.388,1.4 -1.018,1.764c-1.697,0.979 -5.085,2.935 -6.783,3.915c-0.21,0.122 -0.469,0.122 -0.679,0c-0.21,-0.121 -0.339,-0.345 -0.339,-0.588l-0,-0.001c-0,-0.727 0.388,-1.399 1.018,-1.763c1.697,-0.98 5.085,-2.936 6.782,-3.916Z" style="fill:#001b35;"/><path d="M86.576,120.739c0.21,-0.121 0.469,-0.121 0.679,0c0.21,0.122 0.339,0.346 0.339,0.588l0,0.002c0,0.727 -0.388,1.399 -1.018,1.763c-1.697,0.98 -5.085,2.936 -6.782,3.916c-0.21,0.121 -0.469,0.121 -0.679,-0c-0.21,-0.122 -0.34,-0.346 -0.34,-0.588l0,-0.002c0,-0.727 0.388,-1.399 1.018,-1.763c1.697,-0.98 5.085,-2.936 6.783,-3.916Z" style="fill:#001b35;"/><path d="M73.886,128.066c0.21,-0.122 0.469,-0.122 0.679,-0c0.21,0.121 0.34,0.345 0.34,0.588l-0,0.001c-0,0.727 -0.388,1.399 -1.018,1.763c-1.697,0.98 -5.085,2.936 -6.783,3.916c-0.21,0.121 -0.469,0.121 -0.679,-0c-0.21,-0.121 -0.339,-0.345 -0.339,-0.588l-0,-0.001c-0,-0.728 0.388,-1.4 1.018,-1.764c1.697,-0.979 5.085,-2.935 6.782,-3.915Z" style="fill:#001b35;"/><path d="M137.334,80.188c0.21,-0.121 0.468,-0.121 0.679,-0c0.21,0.121 0.339,0.345 0.339,0.588l0,0.001c0,0.728 -0.388,1.4 -1.018,1.763c-1.697,0.98 -5.085,2.936 -6.783,3.916c-0.21,0.122 -0.468,0.122 -0.679,0c-0.21,-0.121 -0.339,-0.345 -0.339,-0.588l-0,-0.001c-0,-0.727 0.388,-1.399 1.018,-1.763c1.697,-0.98 5.085,-2.936 6.783,-3.916Z" style="fill:#001b35;"/><path d="M124.644,87.514c0.21,-0.121 0.469,-0.121 0.679,0c0.21,0.121 0.34,0.346 0.34,0.588l-0,0.001c-0,0.728 -0.388,1.4 -1.018,1.764c-1.697,0.979 -5.086,2.936 -6.783,3.916c-0.21,0.121 -0.469,0.121 -0.679,-0c-0.21,-0.122 -0.339,-0.346 -0.339,-0.588l-0,-0.002c-0,-0.727 0.388,-1.399 1.018,-1.763c1.697,-0.98 5.085,-2.936 6.782,-3.916Z" style="fill:#001b35;"/><path d="M111.955,94.84c0.21,-0.121 0.469,-0.121 0.679,0c0.21,0.122 0.339,0.346 0.339,0.588l0,0.002c0,0.727 -0.388,1.399 -1.018,1.763c-1.697,0.98 -5.085,2.936 -6.782,3.916c-0.21,0.121 -0.469,0.121 -0.679,-0c-0.21,-0.121 -0.34,-0.346 -0.34,-0.588l0,-0.001c0,-0.728 0.388,-1.4 1.018,-1.764c1.697,-0.979 5.085,-2.936 6.783,-3.916Z" style="fill:#001b35;"/><path d="M99.265,102.167c0.21,-0.122 0.469,-0.122 0.679,-0c0.21,0.121 0.34,0.345 0.34,0.588l-0,0.001c-0,0.727 -0.388,1.399 -1.018,1.763c-1.697,0.98 -5.085,2.936 -6.783,3.916c-0.21,0.121 -0.469,0.121 -0.679,0c-0.21,-0.121 -0.339,-0.345 -0.339,-0.588l-0,-0.001c-0,-0.728 0.388,-1.4 1.018,-1.763c1.697,-0.98 5.085,-2.936 6.782,-3.916Z" style="fill:#001b35;"/><path d="M86.576,109.493c0.21,-0.121 0.469,-0.121 0.679,-0c0.21,0.121 0.339,0.345 0.339,0.588l0,0.001c0,0.728 -0.388,1.4 -1.018,1.763c-1.697,0.98 -5.085,2.936 -6.782,3.916c-0.21,0.122 -0.469,0.122 -0.679,0c-0.21,-0.121 -0.34,-0.345 -0.34,-0.588l0,-0.001c0,-0.727 0.388,-1.399 1.018,-1.763c1.697,-0.98 5.085,-2.936 6.783,-3.916Z" style="fill:#001b35;"/><path d="M73.886,116.819c0.21,-0.121 0.469,-0.121 0.679,0c0.21,0.121 0.34,0.346 0.34,0.588l-0,0.001c-0,0.728 -0.388,1.4 -1.018,1.764c-1.697,0.979 -5.085,2.936 -6.783,3.916c-0.21,0.121 -0.469,0.121 -0.679,-0c-0.21,-0.122 -0.339,-0.346 -0.339,-0.588l-0,-0.002c-0,-0.727 0.388,-1.399 1.018,-1.763c1.697,-0.98 5.085,-2.936 6.782,-3.916Z" style="fill:#001b35;"/><path d="M128.447,91.116c0.211,-0.121 0.469,-0.121 0.679,-0c0.211,0.121 0.34,0.345 0.34,0.588c-0,0 -0,0.001 -0,0.001c-0,0.728 -0.388,1.4 -1.018,1.763c-0.528,0.305 -1.172,0.677 -1.7,0.982c-0.21,0.121 -0.469,0.121 -0.679,-0c-0.21,-0.122 -0.339,-0.346 -0.339,-0.588c-0,-0.001 -0,-0.001 -0,-0.002c-0,-0.727 0.388,-1.399 1.018,-1.763c0.528,-0.305 1.171,-0.676 1.699,-0.981Z" style="fill:#001b35;"/><path d="M115.758,98.442c0.21,-0.121 0.469,-0.121 0.679,0c0.21,0.121 0.339,0.346 0.339,0.588c0,0.001 0,0.001 0,0.001c0,0.728 -0.388,1.4 -1.018,1.764c-0.528,0.305 -1.171,0.676 -1.699,0.981c-0.21,0.121 -0.469,0.121 -0.679,-0c-0.21,-0.121 -0.34,-0.345 -0.34,-0.588c0,-0 0,-0.001 0,-0.001c0,-0.728 0.388,-1.4 1.018,-1.764c0.528,-0.304 1.172,-0.676 1.7,-0.981Z" style="fill:#001b35;"/><path d="M103.069,105.768c0.21,-0.121 0.468,-0.121 0.679,0c0.21,0.122 0.339,0.346 0.339,0.588c0,0.001 0,0.001 0,0.002c0,0.727 -0.388,1.399 -1.018,1.763c-0.528,0.305 -1.172,0.676 -1.7,0.981c-0.21,0.122 -0.469,0.122 -0.679,0c-0.21,-0.121 -0.339,-0.345 -0.339,-0.588c-0,-0 -0,-0.001 -0,-0.001c-0,-0.727 0.388,-1.4 1.018,-1.763c0.528,-0.305 1.171,-0.677 1.7,-0.982Z" style="fill:#001b35;"/><path d="M90.379,113.095c0.21,-0.122 0.469,-0.122 0.679,-0c0.21,0.121 0.34,0.345 0.34,0.588c-0,0 -0,0 -0,0.001c-0,0.727 -0.388,1.399 -1.018,1.763c-0.529,0.305 -1.172,0.677 -1.7,0.982c-0.21,0.121 -0.469,0.121 -0.679,-0.001c-0.21,-0.121 -0.34,-0.345 -0.34,-0.588c0,0 0,-0 0,-0.001c0,-0.727 0.388,-1.399 1.018,-1.763c0.528,-0.305 1.172,-0.676 1.7,-0.981Z" style="fill:#001b35;"/><path d="M77.69,120.421c0.21,-0.121 0.469,-0.121 0.679,-0c0.21,0.121 0.339,0.345 0.339,0.588c0,0 0,0.001 0,0.001c0,0.728 -0.388,1.4 -1.018,1.763c-0.528,0.305 -1.171,0.677 -1.7,0.982c-0.21,0.121 -0.469,0.121 -0.679,-0c-0.21,-0.122 -0.339,-0.346 -0.339,-0.588c-0,-0.001 -0,-0.001 -0,-0.002c-0,-0.727 0.388,-1.399 1.018,-1.763c0.528,-0.305 1.171,-0.676 1.7,-0.981Z" style="fill:#001b35;"/><path d="M65,127.747c0.21,-0.121 0.469,-0.121 0.679,0c0.21,0.121 0.34,0.346 0.34,0.588c-0,0.001 -0,0.001 -0,0.001c-0,0.728 -0.388,1.4 -1.018,1.764c-0.528,0.305 -1.172,0.676 -1.7,0.981c-0.21,0.121 -0.469,0.121 -0.679,0c-0.21,-0.121 -0.34,-0.345 -0.34,-0.588c0,-0 0,-0.001 0,-0.001c0,-0.728 0.388,-1.4 1.018,-1.763c0.529,-0.305 1.172,-0.677 1.7,-0.982Z" style="fill:#001b35;"/><path d="M128.412,124.712c0.21,-0.121 0.468,-0.121 0.679,0c0.21,0.122 0.339,0.346 0.339,0.588c0,0.001 0,0.001 0,0.002c0,0.727 -0.388,1.399 -1.018,1.763c-0.528,0.305 -1.172,0.676 -1.7,0.981c-0.21,0.122 -0.469,0.122 -0.679,0c-0.21,-0.121 -0.339,-0.345 -0.339,-0.588c-0,-0 -0,-0.001 -0,-0.001c-0,-0.727 0.388,-1.4 1.018,-1.763c0.528,-0.305 1.171,-0.677 1.7,-0.982Z" style="fill:#001b35;"/><path d="M115.722,132.039c0.21,-0.122 0.469,-0.122 0.679,-0c0.21,0.121 0.34,0.345 0.34,0.588c-0,0 -0,0 -0,0.001c-0,0.727 -0.388,1.399 -1.018,1.763c-0.529,0.305 -1.172,0.676 -1.7,0.981c-0.21,0.122 -0.469,0.122 -0.679,0c-0.21,-0.121 -0.34,-0.345 -0.34,-0.588c0,0 0,-0 0,-0.001c0,-0.727 0.388,-1.399 1.018,-1.763c0.528,-0.305 1.172,-0.676 1.7,-0.981Z" style="fill:#001b35;"/><path d="M103.033,139.365c0.21,-0.121 0.469,-0.121 0.679,-0c0.21,0.121 0.339,0.345 0.339,0.588c0,0 0,0.001 0,0.001c0,0.728 -0.388,1.4 -1.018,1.763c-0.528,0.305 -1.171,0.677 -1.7,0.982c-0.21,0.121 -0.469,0.121 -0.679,-0c-0.21,-0.122 -0.339,-0.346 -0.339,-0.588c-0,-0.001 -0,-0.001 -0,-0.002c-0,-0.727 0.388,-1.399 1.018,-1.763c0.528,-0.305 1.171,-0.676 1.7,-0.981Z" style="fill:#001b35;"/><path d="M90.343,146.691c0.21,-0.121 0.469,-0.121 0.679,0c0.21,0.121 0.34,0.346 0.34,0.588c-0,0.001 -0,0.001 -0,0.001c-0,0.728 -0.388,1.4 -1.018,1.764c-0.528,0.305 -1.172,0.676 -1.7,0.981c-0.21,0.121 -0.469,0.121 -0.679,-0c-0.21,-0.121 -0.34,-0.345 -0.34,-0.588c0,-0 0,-0.001 0,-0.001c0,-0.728 0.388,-1.4 1.018,-1.764c0.529,-0.304 1.172,-0.676 1.7,-0.981Z" style="fill:#001b35;"/><path d="M77.654,154.017c0.21,-0.121 0.469,-0.121 0.679,0c0.21,0.122 0.339,0.346 0.339,0.588c0,0.001 0,0.001 0,0.002c0,0.727 -0.388,1.399 -1.018,1.763c-0.528,0.305 -1.171,0.676 -1.7,0.981c-0.21,0.122 -0.468,0.122 -0.679,0c-0.21,-0.121 -0.339,-0.345 -0.339,-0.588c-0,-0 -0,-0.001 -0,-0.001c-0,-0.727 0.388,-1.4 1.018,-1.763c0.528,-0.305 1.172,-0.677 1.7,-0.982Z" style="fill:#001b35;"/><path d="M64.964,161.344c0.21,-0.122 0.469,-0.122 0.679,-0c0.21,0.121 0.34,0.345 0.34,0.588c-0,0 -0,0 -0,0.001c-0,0.727 -0.388,1.399 -1.018,1.763c-0.528,0.305 -1.172,0.677 -1.7,0.981c-0.21,0.122 -0.469,0.122 -0.679,0c-0.21,-0.121 -0.339,-0.345 -0.339,-0.588c-0,0 -0,-0 -0,-0.001c-0,-0.727 0.388,-1.399 1.018,-1.763c0.528,-0.305 1.171,-0.676 1.699,-0.981Z" style="fill:#001b35;"/><path d="M141.118,105.96c0.21,-0.121 0.469,-0.121 0.679,0c0.21,0.122 0.34,0.346 0.34,0.589c-0,-0 -0,0 -0,0.001c-0,0.727 -0.388,1.399 -1.018,1.763c-0.528,0.305 -1.172,0.676 -1.7,0.981c-0.21,0.122 -0.469,0.122 -0.679,0c-0.21,-0.121 -0.34,-0.345 -0.34,-0.588c0,-0 0,-0 0,-0.001c0,-0.727 0.389,-1.399 1.019,-1.763c0.528,-0.305 1.171,-0.677 1.699,-0.982Z" style="fill:#001b35;"/><path d="M141.05,95.081c0.21,-0.121 0.469,-0.121 0.679,0c0.21,0.121 0.34,0.345 0.34,0.588c-0,0 -0,0.001 -0,0.001c-0,0.728 -0.388,1.4 -1.018,1.764c-0.528,0.304 -1.172,0.676 -1.7,0.981c-0.21,0.121 -0.469,0.121 -0.679,-0c-0.21,-0.121 -0.34,-0.346 -0.34,-0.588c0,-0.001 0,-0.001 0,-0.001c0,-0.728 0.389,-1.4 1.018,-1.764c0.529,-0.305 1.172,-0.676 1.7,-0.981Z" style="fill:#001b35;"/><path d="M141.204,83.751c0.21,-0.121 0.469,-0.121 0.679,-0c0.21,0.121 0.339,0.345 0.339,0.588c0,0 0,0.001 0,0.001c0,0.728 -0.388,1.4 -1.018,1.763c-0.528,0.305 -1.171,0.677 -1.7,0.982c-0.21,0.121 -0.468,0.121 -0.679,-0c-0.21,-0.121 -0.339,-0.346 -0.339,-0.588c-0,-0.001 -0,-0.001 -0,-0.001c-0,-0.728 0.388,-1.4 1.018,-1.764c0.528,-0.305 1.172,-0.676 1.7,-0.981Z" style="fill:#001b35;"/><path d="M141.168,117.347c0.21,-0.121 0.469,-0.121 0.679,0c0.21,0.122 0.339,0.346 0.339,0.588c0,0.001 0,0.001 0,0.002c0,0.727 -0.388,1.399 -1.018,1.763c-0.528,0.305 -1.171,0.676 -1.699,0.981c-0.211,0.122 -0.469,0.122 -0.679,0c-0.21,-0.121 -0.34,-0.345 -0.34,-0.588c0,-0 0,-0.001 0,-0.001c0,-0.727 0.388,-1.399 1.018,-1.763c0.528,-0.305 1.172,-0.677 1.7,-0.982Z" style="fill:#001b35;"/><path d="M124.045,78.454c0.126,0.057 3.947,2.273 4.043,2.355c0.466,0.4 0.751,1.131 0.751,2.115l0,13.825c0,2.067 -1.258,4.471 -2.808,5.366l-40.259,23.244c-0.613,0.353 -1.179,0.419 -1.641,0.241c-0.107,-0.041 -3.597,-1.946 -4.109,-2.38c-0.471,-0.398 -0.759,-1.131 -0.759,-2.12l0,-13.826c0,-2.067 1.259,-4.471 2.809,-5.366l40.259,-23.243c0.645,-0.373 1.239,-0.425 1.714,-0.211Z" style="fill:#001a35;"/><path d="M86.269,109.937c-0,-1.339 0.815,-2.896 1.819,-3.476l35.627,-20.569c1.004,-0.579 1.819,0.037 1.819,1.375l-0,8.955c-0,1.339 -0.815,2.896 -1.819,3.476l-35.627,20.569c-1.004,0.58 -1.819,-0.036 -1.819,-1.375l-0,-8.955Z" style="fill:#25bcb4;"/><path d="M127.693,80.568c-0.466,-0.188 -1.04,-0.126 -1.662,0.233l-40.259,23.243c-1.55,0.895 -2.809,3.3 -2.809,5.366l0,13.826c0,1.074 0.34,1.847 0.885,2.216c-0.86,-0.463 -3.395,-1.867 -3.826,-2.232c-0.471,-0.398 -0.759,-1.131 -0.759,-2.12l0,-13.826c0,-2.067 1.259,-4.471 2.809,-5.366l40.259,-23.243c0.645,-0.373 1.239,-0.425 1.714,-0.211c0.103,0.046 2.649,1.521 3.648,2.114Z" style="fill:#f0f0f0;fill-opacity:0.15;"/></svg>