<?xml version="1.0" encoding="UTF-8" standalone="no"?><!DOCTYPE svg PUBLIC "-//W3C//DTD SVG 1.1//EN" "http://www.w3.org/Graphics/SVG/1.1/DTD/svg11.dtd"><svg width="100%" height="100%" viewBox="0 0 200 200" version="1.1" xmlns="http://www.w3.org/2000/svg" xmlns:xlink="http://www.w3.org/1999/xlink" xml:space="preserve" xmlns:serif="http://www.serif.com/" style="fill-rule:evenodd;clip-rule:evenodd;stroke-linejoin:round;stroke-miterlimit:2;"><path d="M49.234,154.044c0.171,0.13 6.395,4.919 7.503,5.557c0.916,0.528 2.111,0.478 3.416,-0.276l86.918,-50.181c2.884,-1.666 5.226,-6.14 5.226,-9.986l-0,-41.046c-0,-1.863 -0.55,-3.238 -1.444,-3.973c-0.952,-0.782 -6.366,-4.725 -7.312,-5.441c-0.946,-0.715 -2.252,-0.741 -3.694,0.092l-86.918,50.181c-2.884,1.666 -5.226,6.14 -5.226,9.986l0,41.045c0,1.923 0.585,3.327 1.531,4.042Z" style="fill:#dbdbdb;"/><path d="M86.437,116.529c0,-6.649 -4.048,-9.71 -9.035,-6.831l-1.168,0.674c-4.987,2.879 -9.035,10.615 -9.035,17.265c-0,6.649 4.048,9.71 9.035,6.83l1.168,-0.674c4.987,-2.879 9.035,-10.615 9.035,-17.264Z" style="fill:#001a35;"/><path d="M83.245,118.372c-0,-4.442 -2.705,-6.487 -6.037,-4.563l-0.78,0.45c-3.332,1.924 -6.037,7.092 -6.037,11.534c0,4.442 2.705,6.487 6.037,4.564l0.78,-0.451c3.332,-1.923 6.037,-7.091 6.037,-11.534Z" style="fill:#25bcb4;"/><path d="M85.415,118.702c-1.238,-3.879 -2.98,-4.472 -4.258,-5.21c-1.059,-0.611 -2.44,-0.554 -3.949,0.317l-0.78,0.45c-3.332,1.924 -6.037,7.092 -6.037,11.534c0,2.432 0.811,4.145 2.091,4.882c1.058,0.61 3.697,1.297 6.36,0.586c5.102,-1.363 8.597,-6.217 6.573,-12.559Z" style="fill:#25bcb4;"/><path d="M85.947,123.278c-1.61,2.306 -4.073,3.957 -6.943,4.723c-3.328,0.889 -6.626,0.031 -7.948,-0.731c-0.215,-0.124 -0.419,-0.27 -0.611,-0.436c0.199,1.881 0.948,3.214 2.037,3.841c1.058,0.61 3.697,1.297 6.36,0.586c3.786,-1.011 6.687,-3.945 7.105,-7.983Z" style="fill:#e9e9e9;fill-opacity:0.21;"/><path d="M113.659,100.813c-0,-6.649 -4.049,-9.71 -9.036,-6.831l-1.167,0.674c-4.987,2.879 -9.036,10.615 -9.036,17.264c-0,6.65 4.049,9.71 9.036,6.831l1.167,-0.674c4.987,-2.879 9.036,-10.615 9.036,-17.264Z" style="fill:#001a35;"/><path d="M110.466,102.656c-0,-4.442 -2.705,-6.487 -6.037,-4.563l-0.78,0.45c-3.331,1.923 -6.036,7.092 -6.036,11.534c-0,4.442 2.705,6.487 6.036,4.563l0.78,-0.45c3.332,-1.923 6.037,-7.092 6.037,-11.534Z" style="fill:#25bcb4;"/><path d="M112.637,102.986c-1.238,-3.879 -2.98,-4.472 -4.259,-5.21c-1.059,-0.612 -2.439,-0.555 -3.949,0.317l-0.78,0.45c-3.331,1.923 -6.036,7.092 -6.036,11.534c-0,2.431 0.81,4.145 2.09,4.882c1.059,0.61 3.697,1.297 6.361,0.585c5.101,-1.362 8.596,-6.216 6.573,-12.558Z" style="fill:#ffe017;"/><path d="M113.168,107.562c-1.609,2.306 -4.073,3.956 -6.943,4.723c-3.328,0.889 -6.625,0.03 -7.948,-0.732c-0.215,-0.123 -0.419,-0.269 -0.611,-0.436c0.199,1.881 0.948,3.215 2.037,3.842c1.059,0.61 3.697,1.297 6.361,0.585c3.786,-1.011 6.687,-3.945 7.104,-7.982Z" style="fill:#e9e9e9;fill-opacity:0.21;"/><path d="M56.736,159.6l0.001,0.001c0.03,0.017 -0.001,-0.001 -0.001,-0.001Zm-0.096,-0.058c-1.052,-0.668 -1.713,-2.125 -1.713,-4.168l0,-41.045c0,-3.846 2.342,-8.321 5.226,-9.986l86.918,-50.182c1.531,-0.884 2.91,-0.799 3.866,0.05c-0.028,-0.024 -0.056,-0.048 -0.084,-0.072c-0.952,-0.782 -6.366,-4.725 -7.312,-5.441c-0.946,-0.715 -2.252,-0.741 -3.694,0.092l-86.918,50.181c-2.884,1.666 -5.226,6.14 -5.226,9.986l0,41.045c0,1.923 0.585,3.327 1.531,4.042c0.167,0.126 6.073,4.671 7.406,5.498Z" style="fill:#e9e9e9;fill-opacity:0.5;"/><path d="M47.703,108.957l7.224,5.372c0,-3.846 2.342,-8.321 5.226,-9.986l-7.224,-5.372c-2.884,1.666 -5.226,6.14 -5.226,9.986Z" style="fill:#e9e9e9;fill-opacity:0.5;"/><path d="M47.703,108.957l7.224,5.372c0,-3.846 1.735,-6.363 3.047,-8.022l-7.251,-5.375c-1.238,1.756 -3.02,4.179 -3.02,8.025Z" style="fill:#e9e9e9;fill-opacity:0.5;"/><path d="M141.959,84.734c-0,-6.649 -4.049,-9.71 -9.036,-6.831l-1.167,0.674c-4.987,2.879 -9.036,10.615 -9.036,17.264c-0,6.65 4.049,9.71 9.036,6.831l1.167,-0.674c4.987,-2.879 9.036,-10.615 9.036,-17.264Z" style="fill:#001a35;"/><path d="M138.766,86.577c-0,-4.442 -2.705,-6.487 -6.037,-4.563l-0.78,0.45c-3.331,1.924 -6.036,7.092 -6.036,11.534c-0,4.442 2.705,6.487 6.036,4.563l0.78,-0.45c3.332,-1.923 6.037,-7.092 6.037,-11.534Z" style="fill:#25bcb4;"/><path d="M140.937,86.907c-1.238,-3.879 -2.98,-4.472 -4.259,-5.21c-1.059,-0.612 -2.439,-0.555 -3.949,0.317l-0.78,0.45c-3.331,1.924 -6.036,7.092 -6.036,11.534c-0,2.431 0.81,4.145 2.09,4.882c1.059,0.61 3.697,1.297 6.361,0.585c5.101,-1.362 8.596,-6.216 6.573,-12.558Z" style="fill:#d10318;"/><path d="M141.468,91.483c-1.609,2.306 -4.073,3.956 -6.943,4.723c-3.328,0.889 -6.625,0.03 -7.948,-0.732c-0.215,-0.123 -0.419,-0.269 -0.611,-0.436c0.199,1.881 0.948,3.215 2.037,3.842c1.059,0.61 3.697,1.297 6.361,0.585c3.786,-1.011 6.687,-3.945 7.104,-7.982Z" style="fill:#e9e9e9;fill-opacity:0.21;"/></svg>