<?xml version="1.0" encoding="UTF-8" standalone="no"?><!DOCTYPE svg PUBLIC "-//W3C//DTD SVG 1.1//EN" "http://www.w3.org/Graphics/SVG/1.1/DTD/svg11.dtd"><svg width="100%" height="100%" viewBox="0 0 200 200" version="1.1" xmlns="http://www.w3.org/2000/svg" xmlns:xlink="http://www.w3.org/1999/xlink" xml:space="preserve" xmlns:serif="http://www.serif.com/" style="fill-rule:evenodd;clip-rule:evenodd;stroke-linejoin:round;stroke-miterlimit:2;"><path d="M42.212,163.332c0.127,0.096 4.757,3.658 5.581,4.133c0.682,0.392 1.57,0.355 2.541,-0.205l104.705,-60.452c2.145,-1.238 3.887,-4.566 3.887,-7.427l0,-30.53c0,-1.385 -0.408,-2.409 -1.074,-2.955c-0.708,-0.581 -4.734,-3.515 -5.438,-4.047c-0.704,-0.532 -1.675,-0.551 -2.748,0.068l-104.705,60.452c-2.145,1.238 -3.887,4.566 -3.887,7.427l-0,30.529c-0,1.43 0.435,2.475 1.138,3.007Z" style="fill:#cecece;"/><path d="M158.926,68.851c0,-2.86 -1.742,-4.177 -3.887,-2.938l-104.705,60.451c-2.145,1.239 -3.887,4.567 -3.887,7.427l-0,30.53c-0,2.861 1.742,4.177 3.887,2.939l104.705,-60.452c2.145,-1.238 3.887,-4.566 3.887,-7.427l0,-30.53Z" style="fill:#cecece;"/><path d="M47.792,167.464l0.001,0.001c0.022,0.013 -0.001,-0.001 -0.001,-0.001Zm-0.071,-0.043c-0.783,-0.497 -1.274,-1.58 -1.274,-3.1l-0,-30.53c-0,-2.86 1.742,-6.188 3.887,-7.427l104.705,-60.451c1.139,-0.658 2.165,-0.595 2.876,0.037c-0.021,-0.019 -0.041,-0.036 -0.063,-0.054c-0.708,-0.581 -4.734,-3.515 -5.438,-4.047c-0.704,-0.532 -1.675,-0.551 -2.748,0.068l-104.705,60.452c-2.145,1.238 -3.887,4.566 -3.887,7.427l-0,30.529c-0,1.43 0.435,2.475 1.138,3.007c0.124,0.093 4.517,3.474 5.509,4.089Z" style="fill:#e9e9e9;fill-opacity:0.5;"/><path d="M41.074,129.796l5.373,3.995c-0,-2.86 1.742,-6.188 3.887,-7.427l-5.373,-3.995c-2.145,1.238 -3.887,4.566 -3.887,7.427Z" style="fill:#e9e9e9;fill-opacity:0.5;"/><path d="M41.074,129.796l5.373,3.995c-0,-2.86 1.29,-4.732 2.266,-5.966l-5.394,-3.998c-0.92,1.306 -2.245,3.108 -2.245,5.969Z" style="fill:#e9e9e9;fill-opacity:0.5;"/><path d="M42.212,133.36c0.127,0.096 4.757,3.658 5.581,4.133c0.682,0.393 1.57,0.356 2.541,-0.205l104.705,-60.451c2.145,-1.239 3.887,-4.567 3.887,-7.428l0,-30.529c0,-1.386 -0.408,-2.409 -1.074,-2.955c-0.708,-0.582 -4.734,-3.515 -5.438,-4.047c-0.704,-0.532 -1.675,-0.552 -2.748,0.068l-104.705,60.451c-2.145,1.239 -3.887,4.567 -3.887,7.427l-0,30.53c-0,1.43 0.435,2.474 1.138,3.006Z" style="fill:#cecece;"/><path d="M158.926,38.88c0,-2.861 -1.742,-4.178 -3.887,-2.939l-104.705,60.451c-2.145,1.239 -3.887,4.567 -3.887,7.428l-0,30.529c-0,2.861 1.742,4.178 3.887,2.939l104.705,-60.451c2.145,-1.239 3.887,-4.567 3.887,-7.428l0,-30.529Z" style="fill:#cecece;"/><path d="M47.792,137.493l0.001,0c0.022,0.013 -0.001,-0 -0.001,-0Zm-0.071,-0.043c-0.783,-0.497 -1.274,-1.581 -1.274,-3.101l-0,-30.529c-0,-2.861 1.742,-6.189 3.887,-7.428l104.705,-60.451c1.139,-0.658 2.165,-0.595 2.876,0.037c-0.021,-0.018 -0.041,-0.036 -0.063,-0.053c-0.708,-0.582 -4.734,-3.515 -5.438,-4.047c-0.704,-0.532 -1.675,-0.552 -2.748,0.068l-104.705,60.451c-2.145,1.239 -3.887,4.567 -3.887,7.427l-0,30.53c-0,1.43 0.435,2.474 1.138,3.006c0.124,0.094 4.517,3.474 5.509,4.09Z" style="fill:#e9e9e9;fill-opacity:0.5;"/><path d="M41.074,99.824l5.373,3.996c-0,-2.861 1.742,-6.189 3.887,-7.428l-5.373,-3.995c-2.145,1.239 -3.887,4.567 -3.887,7.427Z" style="fill:#e9e9e9;fill-opacity:0.5;"/><path d="M41.074,99.824l5.373,3.996c-0,-2.861 1.29,-4.733 2.266,-5.966l-5.394,-3.998c-0.92,1.306 -2.245,3.108 -2.245,5.968Z" style="fill:#e9e9e9;fill-opacity:0.5;"/><path d="M57.03,103.229c-0.824,0.734 -1.439,2.076 -1.439,3.253l0,47.376c0,1.177 0.615,1.81 1.439,1.591l0,-52.22Zm0.853,-0.492l-0,52.22c0.824,-0.733 1.439,-2.076 1.439,-3.253l-0,-47.376c-0,-1.177 -0.615,-1.809 -1.439,-1.591Z" style="fill:#001a35;fill-opacity:0.19;"/><path d="M68.516,96.598c-0.824,0.733 -1.439,2.075 -1.439,3.253l0,47.376c0,1.177 0.615,1.809 1.439,1.591l0,-52.22Zm0.853,-0.492l-0,52.219c0.824,-0.733 1.439,-2.075 1.439,-3.252l-0,-47.376c-0,-1.178 -0.615,-1.81 -1.439,-1.591Z" style="fill:#001a35;fill-opacity:0.19;"/><path d="M79.585,90.447c-0.824,0.733 -1.439,2.075 -1.439,3.252l0,47.376c0,1.178 0.615,1.81 1.439,1.591l0,-52.219Zm0.853,-0.492l0,52.219c0.824,-0.733 1.439,-2.075 1.439,-3.252l0,-47.377c0,-1.177 -0.615,-1.809 -1.439,-1.59Z" style="fill:#001a35;fill-opacity:0.19;"/><path d="M54.409,114.917l-0,3.12l4.211,2.431l5.615,-3.241l-0,-3.12l-4.211,-2.431l-5.615,3.241Z" style="fill:#001a35;"/><path d="M58.62,117.349l-4.211,-2.432l-0,3.12l4.211,2.431l-0,-3.119Z" style="fill:#e1e1e1;fill-opacity:0.12;"/><path d="M58.62,117.349l-4.211,-2.432l-0,3.12l4.211,2.431l-0,-3.119Z" style="fill:#e1e1e1;fill-opacity:0.12;"/><path d="M58.62,117.349l-4.211,-2.432l-0,3.12l4.211,2.431l-0,-3.119Z" style="fill:#e1e1e1;fill-opacity:0.12;"/><path d="M64.235,114.107l-5.615,3.242l-0,3.119l5.615,-3.241l-0,-3.12Z" style="fill:#e1e1e1;fill-opacity:0.12;"/><path d="M60.024,111.676l-5.615,3.241l4.211,2.432l5.615,-3.242l-4.211,-2.431Z" style="fill:#e1e1e1;fill-opacity:0.12;"/><path d="M60.024,111.676l-5.615,3.241l4.211,2.432l5.615,-3.242l-4.211,-2.431Z" style="fill:#e1e1e1;fill-opacity:0.12;"/><path d="M65.895,135.904l-0,3.12l4.211,2.431l5.615,-3.241l-0,-3.12l-4.211,-2.432l-5.615,3.242Z" style="fill:#001a35;"/><path d="M70.106,138.336l-4.211,-2.432l-0,3.12l4.211,2.431l-0,-3.119Z" style="fill:#e1e1e1;fill-opacity:0.12;"/><path d="M70.106,138.336l-4.211,-2.432l-0,3.12l4.211,2.431l-0,-3.119Z" style="fill:#e1e1e1;fill-opacity:0.12;"/><path d="M70.106,138.336l-4.211,-2.432l-0,3.12l4.211,2.431l-0,-3.119Z" style="fill:#e1e1e1;fill-opacity:0.12;"/><path d="M75.721,135.094l-5.615,3.242l-0,3.119l5.615,-3.241l-0,-3.12Z" style="fill:#e1e1e1;fill-opacity:0.12;"/><path d="M71.51,132.662l-5.615,3.242l4.211,2.432l5.615,-3.242l-4.211,-2.432Z" style="fill:#e1e1e1;fill-opacity:0.12;"/><path d="M71.51,132.662l-5.615,3.242l4.211,2.432l5.615,-3.242l-4.211,-2.432Z" style="fill:#e1e1e1;fill-opacity:0.12;"/><path d="M76.964,110.727l-0,3.12l4.211,2.431l5.615,-3.241l0,-3.12l-4.211,-2.431l-5.615,3.241Z" style="fill:#001a35;"/><path d="M81.175,113.159l-4.211,-2.432l-0,3.12l4.211,2.431l0,-3.119Z" style="fill:#e1e1e1;fill-opacity:0.12;"/><path d="M81.175,113.159l-4.211,-2.432l-0,3.12l4.211,2.431l0,-3.119Z" style="fill:#e1e1e1;fill-opacity:0.12;"/><path d="M81.175,113.159l-4.211,-2.432l-0,3.12l4.211,2.431l0,-3.119Z" style="fill:#e1e1e1;fill-opacity:0.12;"/><path d="M86.79,109.917l-5.615,3.242l0,3.119l5.615,-3.241l0,-3.12Z" style="fill:#e1e1e1;fill-opacity:0.12;"/><path d="M82.579,107.486l-5.615,3.241l4.211,2.432l5.615,-3.242l-4.211,-2.431Z" style="fill:#e1e1e1;fill-opacity:0.12;"/><path d="M82.579,107.486l-5.615,3.241l4.211,2.432l5.615,-3.242l-4.211,-2.431Z" style="fill:#e1e1e1;fill-opacity:0.12;"/><path d="M91.567,83.289c-0.824,0.734 -1.439,2.076 -1.439,3.253l0,47.376c0,1.177 0.615,1.81 1.439,1.591l0,-52.22Zm0.853,-0.492l-0,52.22c0.824,-0.733 1.439,-2.076 1.439,-3.253l-0,-47.376c-0,-1.177 -0.615,-1.809 -1.439,-1.591Z" style="fill:#001a35;fill-opacity:0.19;"/><path d="M103.053,76.658c-0.824,0.733 -1.439,2.075 -1.439,3.253l0,47.376c0,1.177 0.615,1.809 1.439,1.591l0,-52.22Zm0.853,-0.492l-0,52.219c0.824,-0.733 1.439,-2.075 1.439,-3.252l-0,-47.376c-0,-1.178 -0.615,-1.81 -1.439,-1.591Z" style="fill:#001a35;fill-opacity:0.19;"/><path d="M114.123,70.507c-0.825,0.733 -1.439,2.075 -1.439,3.252l-0,47.376c-0,1.178 0.614,1.81 1.439,1.591l-0,-52.219Zm0.852,-0.492l0,52.219c0.825,-0.733 1.439,-2.075 1.439,-3.252l0,-47.377c0,-1.177 -0.614,-1.809 -1.439,-1.59Z" style="fill:#001a35;fill-opacity:0.19;"/><path d="M88.946,94.977l-0,3.12l4.211,2.431l5.615,-3.241l-0,-3.12l-4.211,-2.431l-5.615,3.241Z" style="fill:#001a35;"/><path d="M93.157,97.409l-4.211,-2.432l-0,3.12l4.211,2.431l0,-3.119Z" style="fill:#e1e1e1;fill-opacity:0.12;"/><path d="M93.157,97.409l-4.211,-2.432l-0,3.12l4.211,2.431l0,-3.119Z" style="fill:#e1e1e1;fill-opacity:0.12;"/><path d="M93.157,97.409l-4.211,-2.432l-0,3.12l4.211,2.431l0,-3.119Z" style="fill:#e1e1e1;fill-opacity:0.12;"/><path d="M98.772,94.167l-5.615,3.242l0,3.119l5.615,-3.241l-0,-3.12Z" style="fill:#e1e1e1;fill-opacity:0.12;"/><path d="M94.561,91.736l-5.615,3.241l4.211,2.432l5.615,-3.242l-4.211,-2.431Z" style="fill:#e1e1e1;fill-opacity:0.12;"/><path d="M94.561,91.736l-5.615,3.241l4.211,2.432l5.615,-3.242l-4.211,-2.431Z" style="fill:#e1e1e1;fill-opacity:0.12;"/><path d="M100.432,115.964l-0,3.12l4.211,2.431l5.615,-3.242l-0,-3.119l-4.211,-2.432l-5.615,3.242Z" style="fill:#001a35;"/><path d="M104.643,118.395l-4.211,-2.431l-0,3.12l4.211,2.431l0,-3.12Z" style="fill:#e1e1e1;fill-opacity:0.12;"/><path d="M104.643,118.395l-4.211,-2.431l-0,3.12l4.211,2.431l0,-3.12Z" style="fill:#e1e1e1;fill-opacity:0.12;"/><path d="M104.643,118.395l-4.211,-2.431l-0,3.12l4.211,2.431l0,-3.12Z" style="fill:#e1e1e1;fill-opacity:0.12;"/><path d="M110.258,115.154l-5.615,3.241l0,3.12l5.615,-3.242l-0,-3.119Z" style="fill:#e1e1e1;fill-opacity:0.12;"/><path d="M106.047,112.722l-5.615,3.242l4.211,2.431l5.615,-3.241l-4.211,-2.432Z" style="fill:#e1e1e1;fill-opacity:0.12;"/><path d="M106.047,112.722l-5.615,3.242l4.211,2.431l5.615,-3.241l-4.211,-2.432Z" style="fill:#e1e1e1;fill-opacity:0.12;"/><path d="M111.501,90.787l0,3.12l4.211,2.431l5.615,-3.241l0,-3.12l-4.211,-2.432l-5.615,3.242Z" style="fill:#001a35;"/><path d="M115.712,93.219l-4.211,-2.432l0,3.12l4.211,2.431l0,-3.119Z" style="fill:#e1e1e1;fill-opacity:0.12;"/><path d="M115.712,93.219l-4.211,-2.432l0,3.12l4.211,2.431l0,-3.119Z" style="fill:#e1e1e1;fill-opacity:0.12;"/><path d="M115.712,93.219l-4.211,-2.432l0,3.12l4.211,2.431l0,-3.119Z" style="fill:#e1e1e1;fill-opacity:0.12;"/><path d="M121.327,89.977l-5.615,3.242l0,3.119l5.615,-3.241l0,-3.12Z" style="fill:#e1e1e1;fill-opacity:0.12;"/><path d="M117.116,87.545l-5.615,3.242l4.211,2.432l5.615,-3.242l-4.211,-2.432Z" style="fill:#e1e1e1;fill-opacity:0.12;"/><path d="M117.116,87.545l-5.615,3.242l4.211,2.432l5.615,-3.242l-4.211,-2.432Z" style="fill:#e1e1e1;fill-opacity:0.12;"/><path d="M123.949,64.594c-0.825,0.733 -1.439,2.075 -1.439,3.253l-0,47.376c-0,1.177 0.614,1.809 1.439,1.59l-0,-52.219Zm0.852,-0.492l0,52.219c0.825,-0.733 1.439,-2.075 1.439,-3.252l0,-47.376c0,-1.178 -0.614,-1.81 -1.439,-1.591Z" style="fill:#001a35;fill-opacity:0.19;"/><path d="M135.435,57.962c-0.824,0.734 -1.439,2.076 -1.439,3.253l-0,47.376c-0,1.177 0.615,1.81 1.439,1.591l-0,-52.22Zm0.852,-0.492l0,52.22c0.825,-0.733 1.439,-2.076 1.439,-3.253l0,-47.376c0,-1.177 -0.614,-1.809 -1.439,-1.591Z" style="fill:#001a35;fill-opacity:0.19;"/><path d="M146.504,51.811c-0.824,0.733 -1.439,2.076 -1.439,3.253l0,47.376c0,1.177 0.615,1.809 1.439,1.591l0,-52.22Zm0.853,-0.492l-0,52.22c0.824,-0.734 1.439,-2.076 1.439,-3.253l-0,-47.376c-0,-1.177 -0.615,-1.81 -1.439,-1.591Z" style="fill:#001a35;fill-opacity:0.19;"/><path d="M121.327,76.282l0,3.12l4.212,2.431l5.614,-3.242l0,-3.12l-4.211,-2.431l-5.615,3.242Z" style="fill:#001a35;"/><path d="M125.539,78.713l-4.212,-2.431l0,3.12l4.212,2.431l-0,-3.12Z" style="fill:#e1e1e1;fill-opacity:0.12;"/><path d="M125.539,78.713l-4.212,-2.431l0,3.12l4.212,2.431l-0,-3.12Z" style="fill:#e1e1e1;fill-opacity:0.12;"/><path d="M125.539,78.713l-4.212,-2.431l0,3.12l4.212,2.431l-0,-3.12Z" style="fill:#e1e1e1;fill-opacity:0.12;"/><path d="M131.153,75.471l-5.614,3.242l-0,3.12l5.614,-3.242l0,-3.12Z" style="fill:#e1e1e1;fill-opacity:0.12;"/><path d="M126.942,73.04l-5.615,3.242l4.212,2.431l5.614,-3.242l-4.211,-2.431Z" style="fill:#e1e1e1;fill-opacity:0.12;"/><path d="M126.942,73.04l-5.615,3.242l4.212,2.431l5.614,-3.242l-4.211,-2.431Z" style="fill:#e1e1e1;fill-opacity:0.12;"/><path d="M132.813,97.269l0,3.119l4.212,2.432l5.615,-3.242l-0,-3.12l-4.212,-2.431l-5.615,3.242Z" style="fill:#001a35;"/><path d="M137.025,99.7l-4.212,-2.431l0,3.119l4.212,2.432l-0,-3.12Z" style="fill:#e1e1e1;fill-opacity:0.12;"/><path d="M137.025,99.7l-4.212,-2.431l0,3.119l4.212,2.432l-0,-3.12Z" style="fill:#e1e1e1;fill-opacity:0.12;"/><path d="M137.025,99.7l-4.212,-2.431l0,3.119l4.212,2.432l-0,-3.12Z" style="fill:#e1e1e1;fill-opacity:0.12;"/><path d="M142.64,96.458l-5.615,3.242l-0,3.12l5.615,-3.242l-0,-3.12Z" style="fill:#e1e1e1;fill-opacity:0.12;"/><path d="M138.428,94.027l-5.615,3.242l4.212,2.431l5.615,-3.242l-4.212,-2.431Z" style="fill:#e1e1e1;fill-opacity:0.12;"/><path d="M138.428,94.027l-5.615,3.242l4.212,2.431l5.615,-3.242l-4.212,-2.431Z" style="fill:#e1e1e1;fill-opacity:0.12;"/><path d="M143.883,72.092l-0,3.12l4.211,2.431l5.615,-3.242l-0,-3.12l-4.211,-2.431l-5.615,3.242Z" style="fill:#001a35;"/><path d="M148.094,74.523l-4.211,-2.431l-0,3.12l4.211,2.431l-0,-3.12Z" style="fill:#e1e1e1;fill-opacity:0.12;"/><path d="M148.094,74.523l-4.211,-2.431l-0,3.12l4.211,2.431l-0,-3.12Z" style="fill:#e1e1e1;fill-opacity:0.12;"/><path d="M148.094,74.523l-4.211,-2.431l-0,3.12l4.211,2.431l-0,-3.12Z" style="fill:#e1e1e1;fill-opacity:0.12;"/><path d="M153.709,71.281l-5.615,3.242l-0,3.12l5.615,-3.242l-0,-3.12Z" style="fill:#e1e1e1;fill-opacity:0.12;"/><path d="M149.498,68.85l-5.615,3.242l4.211,2.431l5.615,-3.242l-4.211,-2.431Z" style="fill:#e1e1e1;fill-opacity:0.12;"/><path d="M149.498,68.85l-5.615,3.242l4.211,2.431l5.615,-3.242l-4.211,-2.431Z" style="fill:#e1e1e1;fill-opacity:0.12;"/></svg>