<?xml version="1.0" encoding="UTF-8" standalone="no"?><!DOCTYPE svg PUBLIC "-//W3C//DTD SVG 1.1//EN" "http://www.w3.org/Graphics/SVG/1.1/DTD/svg11.dtd"><svg width="100%" height="100%" viewBox="0 0 200 200" version="1.1" xmlns="http://www.w3.org/2000/svg" xmlns:xlink="http://www.w3.org/1999/xlink" xml:space="preserve" xmlns:serif="http://www.serif.com/" style="fill-rule:evenodd;clip-rule:evenodd;stroke-linejoin:round;stroke-miterlimit:2;"><path d="M155.283,31.198c-0,0 -1.191,0.312 -1.89,0.716l-106.786,61.652c-3.567,2.06 -6.463,7.594 -6.463,12.35l-0,57.284c-0,1.313 0.221,2.43 0.616,3.317c0.597,-0.101 1.232,-0.336 1.89,-0.716l106.785,-61.653c3.567,-2.059 6.464,-7.593 6.464,-12.349l-0,-57.284c-0,-1.313 -0.221,-2.431 -0.616,-3.317Z" style="fill:#001a35;"/><path d="M155.283,31.198c0.395,0.886 0.616,2.004 0.616,3.317l-0,57.284c-0,4.756 -2.897,10.29 -6.464,12.349l-106.785,61.653c-0.658,0.379 -1.293,0.615 -1.89,0.716c1.034,2.324 3.265,3.06 5.847,1.569l106.786,-61.653c3.567,-2.059 6.463,-7.593 6.463,-12.349l0,-57.284c0,-3.88 -1.927,-6.052 -4.573,-5.602Z" style="fill:#001A35;fill-opacity:0.11;"/><path d="M159.856,94.084l-3.957,-2.285c-0,4.756 -2.897,10.29 -6.464,12.349l-106.785,61.653c-0.658,0.379 -1.293,0.615 -1.89,0.716c1.034,2.324 3.265,3.06 5.847,1.569l106.786,-61.653c3.567,-2.059 6.463,-7.593 6.463,-12.349Z" style="fill:#001A35;fill-opacity:0.11;"/><path d="M153.393,106.433l-3.958,-2.285l-106.785,61.653c-0.658,0.379 -1.293,0.615 -1.89,0.716c1.034,2.324 3.265,3.06 5.847,1.569l106.786,-61.653Z" style="fill:#001A35;fill-opacity:0.11;"/><path d="M52.674,113.387l-0.942,-0.713l-1.885,1.088l-0.942,1.8l0,11.083l0.942,0.712l1.885,-1.088l0.942,-1.8l-0,-11.082Z" style="fill:#dedede;fill-opacity:0.47;"/><path d="M63.105,106.363l1.088,-1.716l-0,-2.176l-1.088,-0.46l-9.598,5.542l-1.088,1.716l0,2.175l1.088,0.46l9.598,-5.541Z" style="fill:#dedede;fill-opacity:0.47;"/><path d="M63.938,117.971l0.942,0.712l1.885,-1.087l0.942,-1.801l-0,-11.082l-0.942,-0.713l-1.885,1.088l-0.942,1.801l0,11.082Z" style="fill:#dedede;fill-opacity:0.47;"/><path d="M53.507,124.718l-1.088,1.716l0,2.176l1.088,0.459l9.598,-5.541l1.088,-1.716l-0,-2.176l-1.088,-0.46l-9.598,5.542Z" style="fill:#dedede;fill-opacity:0.47;"/><path d="M52.674,130.401l-0.942,-0.712l-1.885,1.088l-0.942,1.8l0,11.083l0.942,0.712l1.885,-1.088l0.942,-1.8l-0,-11.083Z" style="fill:#dedede;fill-opacity:0.47;"/><path d="M63.938,134.986l0.942,0.712l1.885,-1.088l0.942,-1.8l-0,-11.083l-0.942,-0.712l-1.885,1.088l-0.942,1.8l0,11.083Z" style="fill:#dedede;fill-opacity:0.47;"/><path d="M53.507,141.732l-1.088,1.716l0,2.176l1.088,0.46l9.598,-5.542l1.088,-1.716l-0,-2.175l-1.088,-0.46l-9.598,5.541Z" style="fill:#dedede;fill-opacity:0.47;"/><path d="M63.105,106.363l1.088,-1.716l-0,-2.176l-1.088,-0.46l-9.598,5.542l-1.088,1.716l0,2.175l1.088,0.46l9.598,-5.541Z" style="fill:#25bcb4;"/><path d="M63.938,117.971l0.942,0.712l1.885,-1.087l0.942,-1.801l-0,-11.082l-0.942,-0.713l-1.885,1.088l-0.942,1.801l0,11.082Z" style="fill:#25bcb4;"/><path d="M53.507,124.718l-1.088,1.716l0,2.176l1.088,0.459l9.598,-5.541l1.088,-1.716l-0,-2.176l-1.088,-0.46l-9.598,5.542Z" style="fill:#25bcb4;"/><path d="M52.674,130.401l-0.942,-0.712l-1.885,1.088l-0.942,1.8l0,11.083l0.942,0.712l1.885,-1.088l0.942,-1.8l-0,-11.083Z" style="fill:#25bcb4;"/><path d="M63.938,134.986l0.942,0.712l1.885,-1.088l0.942,-1.8l-0,-11.083l-0.942,-0.712l-1.885,1.088l-0.942,1.8l0,11.083Z" style="fill:#25bcb4;"/><path d="M53.507,141.732l-1.088,1.716l0,2.176l1.088,0.46l9.598,-5.542l1.088,-1.716l-0,-2.175l-1.088,-0.46l-9.598,5.541Z" style="fill:#25bcb4;"/><path d="M78.196,98.652l-0.943,-0.713l-1.884,1.088l-0.942,1.8l-0,11.083l0.942,0.712l1.884,-1.087l0.943,-1.801l-0,-11.082Z" style="fill:#dedede;fill-opacity:0.47;"/><path d="M88.627,91.628l1.088,-1.716l-0,-2.176l-1.088,-0.46l-9.598,5.542l-1.088,1.716l-0,2.176l1.088,0.459l9.598,-5.541Z" style="fill:#dedede;fill-opacity:0.47;"/><path d="M89.46,103.236l0.942,0.713l1.884,-1.088l0.943,-1.801l-0,-11.082l-0.943,-0.713l-1.884,1.088l-0.942,1.801l-0,11.082Z" style="fill:#dedede;fill-opacity:0.47;"/><path d="M79.029,109.983l-1.088,1.716l-0,2.176l1.088,0.459l9.598,-5.541l1.088,-1.716l-0,-2.176l-1.088,-0.46l-9.598,5.542Z" style="fill:#dedede;fill-opacity:0.47;"/><path d="M78.196,115.666l-0.943,-0.712l-1.884,1.088l-0.942,1.8l-0,11.083l0.942,0.712l1.884,-1.088l0.943,-1.8l-0,-11.083Z" style="fill:#dedede;fill-opacity:0.47;"/><path d="M89.46,120.251l0.942,0.712l1.884,-1.088l0.943,-1.8l-0,-11.083l-0.943,-0.712l-1.884,1.088l-0.942,1.8l-0,11.083Z" style="fill:#dedede;fill-opacity:0.47;"/><path d="M79.029,126.997l-1.088,1.716l-0,2.176l1.088,0.46l9.598,-5.541l1.088,-1.716l-0,-2.176l-1.088,-0.46l-9.598,5.541Z" style="fill:#dedede;fill-opacity:0.47;"/><path d="M89.46,103.236l0.942,0.713l1.884,-1.088l0.943,-1.801l-0,-11.082l-0.943,-0.713l-1.884,1.088l-0.942,1.801l-0,11.082Z" style="fill:#25bcb4;"/><path d="M89.46,120.251l0.942,0.712l1.884,-1.088l0.943,-1.8l-0,-11.083l-0.943,-0.712l-1.884,1.088l-0.942,1.8l-0,11.083Z" style="fill:#25bcb4;"/><path d="M106.582,82.262l-0.942,-0.712l-1.884,1.088l-0.942,1.8l-0,11.083l0.942,0.712l1.884,-1.088l0.942,-1.8l0,-11.083Z" style="fill:#dedede;fill-opacity:0.47;"/><path d="M117.014,75.239l1.088,-1.716l-0,-2.176l-1.088,-0.46l-9.598,5.542l-1.088,1.716l-0,2.175l1.088,0.46l9.598,-5.541Z" style="fill:#dedede;fill-opacity:0.47;"/><path d="M117.847,86.847l0.942,0.712l1.884,-1.088l0.942,-1.8l0,-11.082l-0.942,-0.713l-1.884,1.088l-0.942,1.8l-0,11.083Z" style="fill:#dedede;fill-opacity:0.47;"/><path d="M107.416,93.594l-1.088,1.716l-0,2.175l1.088,0.46l9.598,-5.541l1.088,-1.716l-0,-2.176l-1.088,-0.46l-9.598,5.542Z" style="fill:#dedede;fill-opacity:0.47;"/><path d="M106.582,99.277l-0.942,-0.712l-1.884,1.088l-0.942,1.8l-0,11.082l0.942,0.713l1.884,-1.088l0.942,-1.8l0,-11.083Z" style="fill:#dedede;fill-opacity:0.47;"/><path d="M117.847,103.862l0.942,0.712l1.884,-1.088l0.942,-1.8l0,-11.083l-0.942,-0.712l-1.884,1.088l-0.942,1.8l-0,11.083Z" style="fill:#dedede;fill-opacity:0.47;"/><path d="M107.416,110.608l-1.088,1.716l-0,2.176l1.088,0.46l9.598,-5.542l1.088,-1.716l-0,-2.175l-1.088,-0.46l-9.598,5.541Z" style="fill:#dedede;fill-opacity:0.47;"/><path d="M117.014,75.239l1.088,-1.716l-0,-2.176l-1.088,-0.46l-9.598,5.542l-1.088,1.716l-0,2.175l1.088,0.46l9.598,-5.541Z" style="fill:#25bcb4;"/><path d="M117.847,86.847l0.942,0.712l1.884,-1.088l0.942,-1.8l0,-11.082l-0.942,-0.713l-1.884,1.088l-0.942,1.8l-0,11.083Z" style="fill:#25bcb4;"/><path d="M107.416,93.594l-1.088,1.716l-0,2.175l1.088,0.46l9.598,-5.541l1.088,-1.716l-0,-2.176l-1.088,-0.46l-9.598,5.542Z" style="fill:#25bcb4;"/><path d="M106.582,99.277l-0.942,-0.712l-1.884,1.088l-0.942,1.8l-0,11.082l0.942,0.713l1.884,-1.088l0.942,-1.8l0,-11.083Z" style="fill:#25bcb4;"/><path d="M107.416,110.608l-1.088,1.716l-0,2.176l1.088,0.46l9.598,-5.542l1.088,-1.716l-0,-2.175l-1.088,-0.46l-9.598,5.541Z" style="fill:#25bcb4;"/><path d="M132.104,67.528l-0.942,-0.713l-1.884,1.088l-0.942,1.8l-0,11.083l0.942,0.712l1.884,-1.088l0.942,-1.8l0,-11.082Z" style="fill:#dedede;fill-opacity:0.47;"/><path d="M142.535,60.504l1.088,-1.716l0,-2.176l-1.088,-0.46l-9.598,5.542l-1.088,1.716l0,2.175l1.088,0.46l9.598,-5.541Z" style="fill:#dedede;fill-opacity:0.47;"/><path d="M143.368,72.112l0.943,0.712l1.884,-1.088l0.942,-1.8l0,-11.082l-0.942,-0.713l-1.884,1.088l-0.943,1.8l0,11.083Z" style="fill:#dedede;fill-opacity:0.47;"/><path d="M132.937,78.859l-1.088,1.716l0,2.176l1.088,0.459l9.598,-5.541l1.088,-1.716l0,-2.176l-1.088,-0.46l-9.598,5.542Z" style="fill:#dedede;fill-opacity:0.47;"/><path d="M132.104,84.542l-0.942,-0.712l-1.884,1.088l-0.942,1.8l-0,11.083l0.942,0.712l1.884,-1.088l0.942,-1.8l0,-11.083Z" style="fill:#dedede;fill-opacity:0.47;"/><path d="M143.368,89.127l0.943,0.712l1.884,-1.088l0.942,-1.8l0,-11.083l-0.942,-0.712l-1.884,1.088l-0.943,1.8l0,11.083Z" style="fill:#dedede;fill-opacity:0.47;"/><path d="M132.937,95.873l-1.088,1.716l0,2.176l1.088,0.46l9.598,-5.542l1.088,-1.716l0,-2.175l-1.088,-0.46l-9.598,5.541Z" style="fill:#dedede;fill-opacity:0.47;"/><path d="M143.368,72.112l0.943,0.712l1.884,-1.088l0.942,-1.8l0,-11.082l-0.942,-0.713l-1.884,1.088l-0.943,1.8l0,11.083Z" style="fill:#25bcb4;"/><path d="M143.368,89.127l0.943,0.712l1.884,-1.088l0.942,-1.8l0,-11.083l-0.942,-0.712l-1.884,1.088l-0.943,1.8l0,11.083Z" style="fill:#25bcb4;"/></svg>
