<?xml version="1.0" encoding="UTF-8" standalone="no"?><!DOCTYPE svg PUBLIC "-//W3C//DTD SVG 1.1//EN" "http://www.w3.org/Graphics/SVG/1.1/DTD/svg11.dtd"><svg width="100%" height="100%" viewBox="0 0 200 200" version="1.1" xmlns="http://www.w3.org/2000/svg" xmlns:xlink="http://www.w3.org/1999/xlink" xml:space="preserve" xmlns:serif="http://www.serif.com/" style="fill-rule:evenodd;clip-rule:evenodd;stroke-linejoin:round;stroke-miterlimit:2;"><g><path d="M35.375,154.511c0.142,0.107 5.319,4.091 6.241,4.622c0.762,0.439 1.756,0.397 2.842,-0.23l117.093,-67.604c2.4,-1.385 4.348,-5.107 4.348,-8.306l-0,-34.142c-0,-1.549 -0.457,-2.694 -1.201,-3.305c-0.792,-0.65 -5.295,-3.93 -6.082,-4.525c-0.787,-0.595 -1.874,-0.617 -3.074,0.076l-117.093,67.604c-2.4,1.385 -4.348,5.107 -4.348,8.306l0,34.142c0,1.599 0.487,2.767 1.274,3.362Z" style="fill:#cecece;"/><path d="M165.899,48.851c-0,-3.199 -1.948,-4.671 -4.348,-3.286l-117.093,67.604c-2.4,1.385 -4.348,5.107 -4.348,8.306l0,34.142c0,3.199 1.948,4.672 4.348,3.286l117.093,-67.604c2.4,-1.385 4.348,-5.107 4.348,-8.306l-0,-34.142Z" style="fill:#cecece;"/><path d="M66.032,123.58c-0,-4.488 -2.734,-6.555 -6.1,-4.611l-0.788,0.455c-3.367,1.944 -6.1,7.166 -6.1,11.655c-0,4.489 2.733,6.555 6.1,4.611l0.788,-0.455c3.366,-1.943 6.1,-7.166 6.1,-11.655Z" style="fill:#001a35;"/><path d="M67.755,122.643c-0,-2.844 -0.875,-4.918 -2.274,-5.976c-1.409,-1.065 -3.354,-1.114 -5.501,0.126c0,-0 -0.985,0.569 -0.985,0.569c-4.233,2.444 -7.674,9.009 -7.674,14.654c-0,2.845 0.874,4.919 2.274,5.977c1.408,1.064 3.353,1.113 5.5,-0.127c0,0 0.985,-0.568 0.985,-0.568c4.234,-2.445 7.675,-9.01 7.675,-14.655Zm-0.1,0c-0,-5.61 -3.417,-8.193 -7.625,-5.763l-0.985,0.568c-4.208,2.43 -7.624,8.957 -7.624,14.568c-0,5.611 3.416,8.193 7.624,5.764l0.985,-0.569c4.208,-2.429 7.625,-8.957 7.625,-14.568Z" style="fill:#001a35;"/><path d="M63.876,124.825c0,-2.999 -1.826,-4.379 -4.075,-3.081l-0.527,0.304c-2.249,1.299 -4.075,4.788 -4.075,7.787c0,2.998 1.826,4.379 4.075,3.08l0.527,-0.304c2.249,-1.298 4.075,-4.787 4.075,-7.786Z" style="fill:#25bcb4;"/><path d="M65.342,125.048c-0.836,-2.619 -2.012,-3.02 -2.875,-3.518c-0.715,-0.413 -1.647,-0.374 -2.666,0.214l-0.527,0.304c-2.249,1.299 -4.075,4.788 -4.075,7.787c0,1.641 0.547,2.798 1.411,3.295c0.715,0.412 2.496,0.876 4.294,0.396c3.444,-0.92 5.804,-4.197 4.438,-8.478Z" style="fill:#25bcb4;"/><path d="M65.701,128.136c-1.087,1.557 -2.75,2.672 -4.688,3.189c-2.246,0.6 -4.472,0.021 -5.365,-0.494c-0.145,-0.083 -0.283,-0.182 -0.413,-0.294c0.135,1.27 0.64,2.17 1.375,2.593c0.715,0.412 2.496,0.876 4.294,0.396c2.556,-0.683 4.515,-2.664 4.797,-5.39Z" style="fill:#e9e9e9;fill-opacity:0.21;"/><path d="M157.59,68.447c0,-2.228 -1.357,-3.254 -3.028,-2.289l-79.388,45.834c-1.671,0.965 -3.028,3.558 -3.028,5.787l-0,4.543c-0,2.229 1.357,3.255 3.028,2.289l79.388,-45.834c1.671,-0.965 3.028,-3.558 3.028,-5.786l0,-4.544Z" style="fill:#001a35;"/><path d="M146.67,70.714l9.972,5.757c0.584,-1.073 0.948,-2.326 0.948,-3.48l0,-4.544c0,-2.228 -1.357,-3.254 -3.028,-2.289l-7.892,4.556Z" style="fill:#E9E9E9;fill-opacity:0.12;"/><path d="M41.615,159.132l0.001,0.001c0.024,0.014 -0.001,-0.001 -0.001,-0.001Zm-0.08,-0.048c-0.875,-0.555 -1.425,-1.768 -1.425,-3.467l0,-34.142c0,-3.199 1.948,-6.921 4.348,-8.306l117.093,-67.604c1.274,-0.736 2.421,-0.666 3.217,0.041c-0.023,-0.02 -0.047,-0.04 -0.07,-0.06c-0.792,-0.65 -5.295,-3.93 -6.082,-4.525c-0.787,-0.595 -1.874,-0.617 -3.074,0.076l-117.093,67.604c-2.4,1.385 -4.348,5.107 -4.348,8.306l0,34.142c0,1.599 0.487,2.767 1.274,3.362c0.138,0.104 5.051,3.885 6.16,4.573Z" style="fill:#e9e9e9;fill-opacity:0.5;"/><path d="M34.101,117.007l6.009,4.468c0,-3.199 1.948,-6.921 4.348,-8.306l-6.009,-4.468c-2.4,1.385 -4.348,5.107 -4.348,8.306Z" style="fill:#e9e9e9;fill-opacity:0.5;"/><path d="M34.101,117.007l6.009,4.468c0,-3.199 1.444,-5.292 2.535,-6.672l-6.032,-4.471c-1.03,1.46 -2.512,3.476 -2.512,6.675Z" style="fill:#e9e9e9;fill-opacity:0.5;"/></g></svg>
