<?xml version="1.0" encoding="UTF-8" standalone="no"?><!DOCTYPE svg PUBLIC "-//W3C//DTD SVG 1.1//EN" "http://www.w3.org/Graphics/SVG/1.1/DTD/svg11.dtd"><svg width="100%" height="100%" viewBox="0 0 200 200" version="1.1" xmlns="http://www.w3.org/2000/svg" xmlns:xlink="http://www.w3.org/1999/xlink" xml:space="preserve" xmlns:serif="http://www.serif.com/" style="fill-rule:evenodd;clip-rule:evenodd;stroke-linejoin:round;stroke-miterlimit:2;"><defs>
    <filter id="f3" x="0" y="0" width="200%" height="200%">
      <feOffset result="offOut" in="SourceAlpha" dx="0" dy="0" />
      <feGaussianBlur result="blurOut" in="offOut" stdDeviation="2" />
      <feBlend in="SourceGraphic" in2="blurOut" mode="normal" />
    </filter>
  </defs><g filter="url(#f3)"><path d="M35.014,94.029l0.096,0.167l0,-0l0.05,0.086l0.001,0.007l0.002,0.003l0,0.007l0.002,0.002l0.001,0.007l0.001,0.003l-0.05,0.048l0.002,0.003l0.001,0.007l0.002,0.004l0,0.007l0.001,0.012l-0.003,0.014l-0,0.007l-0,0.013l-0.001,10.709c0,0.284 -0.152,0.547 -0.398,0.689l-9.53,5.503l-0.007,0.001l-0.003,0.001l-0.007,0.001l-0.003,0.002l-0.007,0.001l-0.003,0.001l-0.007,0.001l-0.004,0.002l-0.006,0.001l-0.004,0.002l-0.007,0l-0.019,0.001l-0.004,0.002l-0.013,0l-0.013,-0l-0.012,-0l-0.012,-0.001l-0.019,-0.001l-0.005,0l-0.007,-0.001l-0.003,0.002l-0.007,-0.001l-0.002,0.001l-0.008,-0l-0.002,0.001l-0.07,-0.066l-0.002,0.001l-0.007,-0.001l-0.002,0.002l-0.007,-0.002l-0.002,0.002l-0.006,-0.001l-0.003,0.001l-0.009,-0.002l-0.009,-0.002l-0.028,-0.007l-0.009,-0.003l-0.009,-0.003l-0.009,-0.003l-0.001,-0.002l-0.006,-0.003l-0.002,-0.002l-0.005,-0.002l-0.002,-0.003l-0.006,-0.002l-0.002,-0.003l-0.006,-0.002l-0.002,-0.003l-0.006,-0.003l-0.002,-0.002l-0.006,-0.003l-0.002,-0.003l-0.027,-0.013l-0.011,-0.006l-0.082,-0.018l-0.004,-0.003l-0.012,-0.006l-9.276,-5.356c-0.246,-0.142 -0.398,-0.405 -0.398,-0.689l0,-10.71l-0,-0.019l0.001,-0.007l0,-0.012l0.002,-0.022l0.001,-0.012l-0.002,-0.003l0.001,-0.007l-0.001,-0.003l0.004,-0.015l-0.001,-0.002l0.001,-0.007l-0.002,-0.002l0.001,-0.007l-0.001,-0.002l0.001,-0.006l-0.001,-0.003l0.001,-0.006l-0.002,-0.002l0.002,-0.01l0.014,-0.028l0.009,-0.035l0.001,-0.005l0.009,-0.023l-0.002,-0.003l0.004,-0.008l0.002,-0.005l0.003,-0.002l0.002,-0.006l0.002,-0.001l0.002,-0.006l0.002,-0.001l0.002,-0.021l0.003,-0.001l0.002,-0.007l0.003,-0.001l0.002,-0.015l0.003,-0.002l0.003,-0.006l0.003,-0.002l0.003,-0.006l0.003,-0.002l0.003,-0.019l0.002,-0.005l0.003,-0.006l0.002,-0.005l0.004,-0.007l0.006,-0.01l0.006,-0.012l0.007,-0.011l0.003,-0.002l0.005,-0.008l0.003,-0.008l0.003,-0.005l0.004,-0.006l0.004,-0.002l0.004,-0.01l0.003,-0.002l0.004,-0.005l0.003,-0.002l0.005,-0.013l0.003,-0.001l0.005,-0.006l0.003,-0.002l0.005,-0.011l0.243,-0.14l-0.029,-0.05l9.289,-5.363c0.246,-0.142 0.55,-0.143 0.796,-0.001l9.276,5.356l0.011,0.006l0.005,0.001l0.004,0.007l0.007,0.003l0.006,0.003l0.005,0.004l0.002,0.004l0.006,0.004l0.002,0.003l0.006,0.004l0.001,0.003l0.017,0.005l0.002,0.003l0.005,0.004l0.002,0.003l0.012,0.006l0.149,0.258l0.05,-0.028Zm-17.863,1.191l7.897,13.679l7.899,-13.677l-15.796,-0.002Zm1.591,-1.592l12.612,0.001l-12.612,-0.001Zm14.785,3.764l-6.305,10.925l6.305,-10.925Z" style="fill:#fff;"/><rect x="46.782" y="91.25" width="3.7" height="15.854" style="fill:#fff;fill-rule:nonzero;"/><path d="M60.319,98.29c-0.087,0.138 -0.18,0.236 -0.278,0.294c-0.098,0.058 -0.223,0.087 -0.375,0.087c-0.16,-0 -0.319,-0.035 -0.479,-0.103c-0.16,-0.069 -0.332,-0.144 -0.517,-0.224c-0.185,-0.079 -0.393,-0.154 -0.625,-0.223c-0.233,-0.069 -0.497,-0.103 -0.795,-0.103c-0.428,0 -0.756,0.082 -0.985,0.245c-0.228,0.163 -0.342,0.39 -0.342,0.68c-0,0.21 0.074,0.384 0.223,0.522c0.148,0.138 0.346,0.26 0.593,0.365c0.246,0.105 0.526,0.205 0.838,0.299c0.312,0.094 0.631,0.199 0.957,0.316c0.327,0.116 0.646,0.252 0.958,0.408c0.312,0.156 0.591,0.348 0.838,0.576c0.246,0.229 0.444,0.506 0.593,0.833c0.148,0.326 0.223,0.718 0.223,1.175c-0,0.558 -0.102,1.074 -0.305,1.545c-0.203,0.472 -0.506,0.878 -0.909,1.219c-0.402,0.341 -0.899,0.605 -1.49,0.794c-0.592,0.189 -1.272,0.283 -2.041,0.283c-0.384,-0 -0.768,-0.036 -1.153,-0.109c-0.384,-0.072 -0.756,-0.17 -1.115,-0.294c-0.359,-0.123 -0.691,-0.27 -0.996,-0.44c-0.305,-0.171 -0.566,-0.354 -0.783,-0.55l0.783,-1.24c0.094,-0.145 0.207,-0.26 0.337,-0.343c0.131,-0.083 0.301,-0.125 0.512,-0.125c0.196,-0 0.372,0.043 0.528,0.13c0.156,0.087 0.324,0.182 0.506,0.283c0.181,0.102 0.393,0.196 0.636,0.283c0.243,0.087 0.55,0.131 0.92,0.131c0.261,-0 0.482,-0.027 0.663,-0.082c0.182,-0.054 0.327,-0.129 0.436,-0.223c0.108,-0.094 0.188,-0.199 0.239,-0.315c0.051,-0.116 0.076,-0.236 0.076,-0.36c0,-0.224 -0.076,-0.409 -0.228,-0.554c-0.153,-0.146 -0.352,-0.271 -0.599,-0.376c-0.246,-0.105 -0.528,-0.203 -0.843,-0.294c-0.316,-0.09 -0.637,-0.194 -0.963,-0.31c-0.327,-0.116 -0.648,-0.255 -0.963,-0.419c-0.316,-0.163 -0.597,-0.37 -0.843,-0.62c-0.247,-0.25 -0.447,-0.557 -0.599,-0.919c-0.152,-0.363 -0.228,-0.802 -0.228,-1.317c-0,-0.479 0.092,-0.934 0.277,-1.366c0.185,-0.431 0.463,-0.81 0.832,-1.137c0.37,-0.326 0.835,-0.585 1.393,-0.778c0.559,-0.192 1.212,-0.288 1.959,-0.288c0.406,-0 0.8,0.036 1.181,0.109c0.38,0.072 0.738,0.174 1.071,0.304c0.334,0.131 0.639,0.285 0.914,0.463c0.276,0.178 0.519,0.372 0.729,0.582l-0.761,1.186Z" style="fill:#fff;fill-rule:nonzero;"/><path d="M68.023,95.646c0.856,-0 1.635,0.134 2.339,0.403c0.704,0.268 1.308,0.652 1.812,1.153c0.504,0.5 0.896,1.108 1.175,1.823c0.279,0.714 0.419,1.517 0.419,2.41c-0,0.899 -0.14,1.71 -0.419,2.432c-0.279,0.721 -0.671,1.334 -1.175,1.839c-0.504,0.504 -1.108,0.892 -1.812,1.164c-0.704,0.272 -1.483,0.408 -2.339,0.408c-0.864,-0 -1.649,-0.136 -2.356,-0.408c-0.707,-0.272 -1.317,-0.66 -1.828,-1.164c-0.512,-0.505 -0.907,-1.118 -1.186,-1.839c-0.28,-0.722 -0.419,-1.533 -0.419,-2.432c-0,-0.893 0.139,-1.696 0.419,-2.41c0.279,-0.715 0.674,-1.323 1.186,-1.823c0.511,-0.501 1.121,-0.885 1.828,-1.153c0.707,-0.269 1.492,-0.403 2.356,-0.403Zm-0,9.129c0.776,0 1.347,-0.274 1.713,-0.821c0.367,-0.548 0.55,-1.38 0.55,-2.497c-0,-1.118 -0.183,-1.948 -0.55,-2.492c-0.366,-0.544 -0.937,-0.816 -1.713,-0.816c-0.798,-0 -1.382,0.272 -1.752,0.816c-0.37,0.544 -0.555,1.374 -0.555,2.492c-0,1.117 0.185,1.949 0.555,2.497c0.37,0.547 0.954,0.821 1.752,0.821Z" style="fill:#fff;fill-rule:nonzero;"/><path d="M79.6,95.624c0.479,0 0.931,0.047 1.355,0.142c0.424,0.094 0.818,0.228 1.181,0.402l3.405,0l0,1.23c0,0.188 -0.052,0.337 -0.157,0.446c-0.105,0.109 -0.285,0.192 -0.539,0.25l-0.827,0.185c0.102,0.327 0.152,0.664 0.152,1.012c0,0.566 -0.117,1.074 -0.353,1.524c-0.236,0.449 -0.559,0.832 -0.969,1.147c-0.41,0.316 -0.894,0.559 -1.452,0.73c-0.559,0.17 -1.157,0.255 -1.796,0.255c-0.355,0 -0.689,-0.022 -1.001,-0.065c-0.246,0.145 -0.37,0.312 -0.37,0.5c0,0.189 0.1,0.325 0.299,0.409c0.2,0.083 0.463,0.141 0.789,0.174c0.327,0.032 0.7,0.054 1.121,0.065c0.421,0.011 0.849,0.036 1.284,0.076c0.435,0.04 0.863,0.107 1.284,0.201c0.421,0.095 0.794,0.247 1.121,0.457c0.326,0.211 0.589,0.492 0.789,0.844c0.199,0.352 0.299,0.799 0.299,1.344c0,0.507 -0.123,1.004 -0.37,1.49c-0.247,0.486 -0.609,0.918 -1.088,1.295c-0.479,0.377 -1.066,0.68 -1.763,0.909c-0.696,0.228 -1.494,0.342 -2.394,0.342c-0.885,0 -1.648,-0.083 -2.29,-0.25c-0.642,-0.167 -1.175,-0.386 -1.6,-0.658c-0.424,-0.272 -0.738,-0.586 -0.941,-0.941c-0.203,-0.356 -0.305,-0.726 -0.305,-1.11c0,-0.501 0.153,-0.923 0.457,-1.268c0.305,-0.344 0.722,-0.615 1.252,-0.811c-0.254,-0.166 -0.457,-0.38 -0.61,-0.642c-0.152,-0.261 -0.228,-0.591 -0.228,-0.99c-0,-0.167 0.029,-0.342 0.087,-0.527c0.058,-0.185 0.149,-0.365 0.272,-0.539c0.123,-0.174 0.279,-0.341 0.468,-0.501c0.188,-0.159 0.413,-0.301 0.674,-0.424c-0.587,-0.312 -1.05,-0.725 -1.387,-1.24c-0.337,-0.515 -0.506,-1.114 -0.506,-1.796c0,-0.566 0.12,-1.075 0.359,-1.529c0.24,-0.453 0.568,-0.838 0.985,-1.153c0.417,-0.316 0.909,-0.559 1.474,-0.729c0.566,-0.171 1.179,-0.256 1.839,-0.256Zm2.503,11.893c-0,-0.181 -0.056,-0.326 -0.169,-0.435c-0.112,-0.109 -0.264,-0.196 -0.457,-0.261c-0.192,-0.065 -0.417,-0.112 -0.674,-0.141c-0.258,-0.03 -0.535,-0.051 -0.833,-0.066c-0.297,-0.014 -0.605,-0.027 -0.925,-0.038c-0.319,-0.011 -0.634,-0.034 -0.946,-0.071c-0.211,0.145 -0.383,0.307 -0.517,0.485c-0.134,0.177 -0.201,0.379 -0.201,0.604c-0,0.159 0.034,0.304 0.103,0.435c0.069,0.13 0.19,0.243 0.364,0.337c0.175,0.094 0.408,0.169 0.702,0.223c0.294,0.055 0.666,0.082 1.116,0.082c0.486,-0 0.885,-0.029 1.197,-0.087c0.311,-0.058 0.56,-0.138 0.745,-0.24c0.185,-0.101 0.314,-0.223 0.386,-0.364c0.073,-0.142 0.109,-0.296 0.109,-0.463Zm-2.503,-6.648c0.559,-0 0.963,-0.14 1.214,-0.419c0.25,-0.279 0.375,-0.64 0.375,-1.083c-0,-0.457 -0.125,-0.816 -0.375,-1.077c-0.251,-0.261 -0.655,-0.392 -1.214,-0.392c-0.558,0 -0.963,0.131 -1.213,0.392c-0.25,0.261 -0.375,0.62 -0.375,1.077c-0,0.218 0.03,0.417 0.092,0.599c0.062,0.181 0.158,0.339 0.288,0.473c0.131,0.134 0.296,0.24 0.496,0.316c0.199,0.076 0.437,0.114 0.712,0.114Z" style="fill:#fff;fill-rule:nonzero;"/><path d="M87,107.104l-0,-11.284l2.002,0c0.167,0 0.306,0.015 0.419,0.044c0.112,0.029 0.206,0.074 0.283,0.136c0.076,0.061 0.134,0.143 0.174,0.244c0.04,0.102 0.074,0.225 0.103,0.37l0.185,1.056c0.413,-0.639 0.878,-1.143 1.393,-1.513c0.515,-0.37 1.077,-0.555 1.686,-0.555c0.515,0 0.929,0.124 1.241,0.37l-0.435,2.481c-0.029,0.153 -0.087,0.26 -0.174,0.321c-0.088,0.062 -0.204,0.093 -0.349,0.093c-0.123,-0 -0.268,-0.017 -0.435,-0.049c-0.167,-0.033 -0.377,-0.049 -0.631,-0.049c-0.885,-0 -1.581,0.471 -2.089,1.414l-0,6.921l-3.373,-0Z" style="fill:#fff;fill-rule:nonzero;"/><path d="M103.561,107.104c-0.319,-0 -0.561,-0.044 -0.724,-0.131c-0.163,-0.087 -0.299,-0.268 -0.408,-0.544l-0.239,-0.62c-0.283,0.239 -0.555,0.45 -0.816,0.631c-0.261,0.181 -0.532,0.336 -0.811,0.463c-0.279,0.127 -0.577,0.221 -0.892,0.282c-0.316,0.062 -0.666,0.093 -1.05,0.093c-0.515,-0 -0.983,-0.067 -1.404,-0.201c-0.421,-0.135 -0.778,-0.332 -1.072,-0.593c-0.294,-0.261 -0.52,-0.586 -0.68,-0.974c-0.159,-0.388 -0.239,-0.836 -0.239,-1.344c-0,-0.399 0.101,-0.809 0.304,-1.23c0.204,-0.42 0.555,-0.803 1.056,-1.148c0.5,-0.344 1.175,-0.633 2.024,-0.865c0.849,-0.232 1.919,-0.362 3.21,-0.391l-0,-0.479c-0,-0.66 -0.136,-1.137 -0.408,-1.431c-0.272,-0.294 -0.659,-0.441 -1.159,-0.441c-0.399,0 -0.725,0.044 -0.979,0.131c-0.254,0.087 -0.481,0.185 -0.68,0.294c-0.2,0.108 -0.394,0.206 -0.583,0.293c-0.188,0.087 -0.413,0.131 -0.674,0.131c-0.232,-0 -0.43,-0.056 -0.593,-0.169c-0.163,-0.112 -0.292,-0.252 -0.387,-0.419l-0.609,-1.055c0.682,-0.602 1.438,-1.05 2.269,-1.344c0.83,-0.294 1.721,-0.441 2.671,-0.441c0.682,0 1.297,0.111 1.845,0.332c0.547,0.222 1.012,0.53 1.392,0.925c0.381,0.396 0.673,0.865 0.876,1.409c0.203,0.544 0.305,1.139 0.305,1.785l-0,7.051l-1.545,-0Zm-3.874,-2.057c0.435,0 0.816,-0.076 1.143,-0.228c0.326,-0.153 0.656,-0.399 0.99,-0.74l-0,-1.567c-0.675,0.029 -1.23,0.087 -1.665,0.174c-0.435,0.087 -0.78,0.196 -1.034,0.327c-0.254,0.13 -0.43,0.279 -0.527,0.446c-0.098,0.167 -0.147,0.348 -0.147,0.544c-0,0.384 0.105,0.654 0.315,0.81c0.211,0.156 0.519,0.234 0.925,0.234Z" style="fill:#fff;fill-rule:nonzero;"/><path d="M107.5,110.684l-0,-14.864l2.089,0c0.21,0 0.386,0.047 0.528,0.141c0.141,0.095 0.241,0.236 0.299,0.425l0.25,0.827c0.218,-0.24 0.452,-0.457 0.702,-0.653c0.25,-0.196 0.519,-0.365 0.805,-0.506c0.287,-0.141 0.595,-0.252 0.925,-0.332c0.33,-0.08 0.691,-0.12 1.083,-0.12c0.588,0 1.132,0.131 1.632,0.392c0.501,0.261 0.932,0.638 1.295,1.132c0.363,0.493 0.647,1.097 0.854,1.812c0.207,0.714 0.31,1.525 0.31,2.431c0,0.849 -0.118,1.633 -0.353,2.351c-0.236,0.718 -0.566,1.342 -0.991,1.871c-0.424,0.53 -0.932,0.943 -1.523,1.241c-0.591,0.297 -1.246,0.446 -1.964,0.446c-0.588,-0 -1.081,-0.083 -1.48,-0.25c-0.399,-0.167 -0.762,-0.392 -1.088,-0.675l0,4.331l-3.373,-0Zm5.506,-12.503c-0.247,0 -0.47,0.024 -0.669,0.071c-0.2,0.047 -0.385,0.114 -0.555,0.201c-0.171,0.087 -0.329,0.198 -0.474,0.332c-0.145,0.134 -0.29,0.289 -0.435,0.463l0,4.787c0.254,0.283 0.53,0.481 0.827,0.593c0.297,0.113 0.609,0.169 0.936,0.169c0.312,0 0.598,-0.062 0.859,-0.185c0.262,-0.123 0.488,-0.321 0.68,-0.593c0.193,-0.272 0.343,-0.626 0.452,-1.061c0.109,-0.435 0.163,-0.965 0.163,-1.589c0,-0.594 -0.043,-1.095 -0.13,-1.501c-0.087,-0.406 -0.209,-0.735 -0.365,-0.985c-0.156,-0.25 -0.343,-0.43 -0.56,-0.539c-0.218,-0.108 -0.461,-0.163 -0.729,-0.163Z" style="fill:#fff;fill-rule:nonzero;"/><path d="M120.079,107.104l-0,-16.289l3.373,-0l-0,5.995c0.406,-0.348 0.847,-0.629 1.322,-0.843c0.475,-0.214 1.043,-0.321 1.703,-0.321c0.616,-0 1.162,0.107 1.637,0.321c0.476,0.214 0.876,0.511 1.203,0.892c0.326,0.381 0.573,0.834 0.74,1.36c0.167,0.526 0.25,1.098 0.25,1.714l-0,7.171l-3.373,-0l-0,-7.171c-0,-0.551 -0.127,-0.981 -0.381,-1.289c-0.254,-0.309 -0.628,-0.463 -1.121,-0.463c-0.37,0 -0.718,0.08 -1.044,0.24c-0.327,0.159 -0.639,0.373 -0.936,0.642l-0,8.041l-3.373,-0Z" style="fill:#fff;fill-rule:nonzero;"/><path d="M136.879,110.031c-0.101,0.225 -0.225,0.39 -0.37,0.495c-0.145,0.105 -0.377,0.158 -0.696,0.158l-2.525,-0l2.177,-4.57l-4.505,-10.294l2.981,0c0.261,0 0.465,0.058 0.61,0.174c0.145,0.116 0.246,0.254 0.304,0.414l1.85,4.864c0.174,0.449 0.316,0.899 0.424,1.349c0.073,-0.232 0.153,-0.461 0.24,-0.686c0.087,-0.225 0.17,-0.453 0.25,-0.685l1.676,-4.842c0.058,-0.167 0.172,-0.307 0.343,-0.419c0.17,-0.113 0.353,-0.169 0.549,-0.169l2.72,0l-6.028,14.211Z" style="fill:#fff;fill-rule:nonzero;"/><path d="M142.124,105.396c-0,-0.262 0.049,-0.505 0.147,-0.73c0.098,-0.224 0.232,-0.42 0.402,-0.587c0.171,-0.167 0.372,-0.299 0.604,-0.397c0.233,-0.098 0.486,-0.147 0.762,-0.147c0.268,-0 0.519,0.049 0.751,0.147c0.232,0.098 0.435,0.23 0.609,0.397c0.174,0.167 0.31,0.363 0.408,0.587c0.098,0.225 0.147,0.468 0.147,0.73c0,0.261 -0.049,0.506 -0.147,0.734c-0.098,0.229 -0.234,0.426 -0.408,0.593c-0.174,0.167 -0.377,0.297 -0.609,0.392c-0.232,0.094 -0.483,0.141 -0.751,0.141c-0.276,0 -0.529,-0.047 -0.762,-0.141c-0.232,-0.095 -0.433,-0.225 -0.604,-0.392c-0.17,-0.167 -0.304,-0.364 -0.402,-0.593c-0.098,-0.228 -0.147,-0.473 -0.147,-0.734Z" style="fill:#fff;fill-rule:nonzero;"/><path d="M155.704,107.104c-0.319,-0 -0.561,-0.044 -0.724,-0.131c-0.163,-0.087 -0.299,-0.268 -0.408,-0.544l-0.239,-0.62c-0.283,0.239 -0.555,0.45 -0.816,0.631c-0.261,0.181 -0.532,0.336 -0.811,0.463c-0.279,0.127 -0.577,0.221 -0.892,0.282c-0.316,0.062 -0.666,0.093 -1.05,0.093c-0.515,-0 -0.983,-0.067 -1.404,-0.201c-0.421,-0.135 -0.778,-0.332 -1.072,-0.593c-0.294,-0.261 -0.52,-0.586 -0.68,-0.974c-0.159,-0.388 -0.239,-0.836 -0.239,-1.344c-0,-0.399 0.101,-0.809 0.304,-1.23c0.204,-0.42 0.555,-0.803 1.056,-1.148c0.5,-0.344 1.175,-0.633 2.024,-0.865c0.849,-0.232 1.919,-0.362 3.21,-0.391l-0,-0.479c-0,-0.66 -0.136,-1.137 -0.408,-1.431c-0.272,-0.294 -0.659,-0.441 -1.159,-0.441c-0.399,0 -0.726,0.044 -0.979,0.131c-0.254,0.087 -0.481,0.185 -0.68,0.294c-0.2,0.108 -0.394,0.206 -0.583,0.293c-0.188,0.087 -0.413,0.131 -0.674,0.131c-0.232,-0 -0.43,-0.056 -0.593,-0.169c-0.164,-0.112 -0.292,-0.252 -0.387,-0.419l-0.609,-1.055c0.682,-0.602 1.438,-1.05 2.269,-1.344c0.83,-0.294 1.721,-0.441 2.671,-0.441c0.682,0 1.297,0.111 1.845,0.332c0.547,0.222 1.011,0.53 1.392,0.925c0.381,0.396 0.673,0.865 0.876,1.409c0.203,0.544 0.305,1.139 0.305,1.785l-0,7.051l-1.545,-0Zm-3.874,-2.057c0.435,0 0.816,-0.076 1.143,-0.228c0.326,-0.153 0.656,-0.399 0.99,-0.74l-0,-1.567c-0.675,0.029 -1.23,0.087 -1.665,0.174c-0.435,0.087 -0.78,0.196 -1.034,0.327c-0.254,0.13 -0.43,0.279 -0.527,0.446c-0.098,0.167 -0.147,0.348 -0.147,0.544c-0,0.384 0.105,0.654 0.315,0.81c0.211,0.156 0.519,0.234 0.925,0.234Z" style="fill:#fff;fill-rule:nonzero;"/><path d="M159.643,110.684l-0,-14.864l2.089,0c0.21,0 0.386,0.047 0.528,0.141c0.141,0.095 0.241,0.236 0.299,0.425l0.25,0.827c0.218,-0.24 0.452,-0.457 0.702,-0.653c0.25,-0.196 0.519,-0.365 0.805,-0.506c0.287,-0.141 0.595,-0.252 0.925,-0.332c0.33,-0.08 0.691,-0.12 1.083,-0.12c0.587,0 1.132,0.131 1.632,0.392c0.501,0.261 0.932,0.638 1.295,1.132c0.363,0.493 0.647,1.097 0.854,1.812c0.207,0.714 0.31,1.525 0.31,2.431c0,0.849 -0.118,1.633 -0.353,2.351c-0.236,0.718 -0.566,1.342 -0.991,1.871c-0.424,0.53 -0.932,0.943 -1.523,1.241c-0.591,0.297 -1.246,0.446 -1.964,0.446c-0.588,-0 -1.081,-0.083 -1.48,-0.25c-0.399,-0.167 -0.762,-0.392 -1.088,-0.675l0,4.331l-3.373,-0Zm5.506,-12.503c-0.247,0 -0.47,0.024 -0.669,0.071c-0.2,0.047 -0.385,0.114 -0.555,0.201c-0.171,0.087 -0.329,0.198 -0.474,0.332c-0.145,0.134 -0.29,0.289 -0.435,0.463l0,4.787c0.254,0.283 0.53,0.481 0.827,0.593c0.297,0.113 0.609,0.169 0.936,0.169c0.312,0 0.598,-0.062 0.859,-0.185c0.262,-0.123 0.488,-0.321 0.68,-0.593c0.193,-0.272 0.343,-0.626 0.452,-1.061c0.109,-0.435 0.163,-0.965 0.163,-1.589c0,-0.594 -0.043,-1.095 -0.13,-1.501c-0.087,-0.406 -0.209,-0.735 -0.365,-0.985c-0.156,-0.25 -0.343,-0.43 -0.56,-0.539c-0.218,-0.108 -0.461,-0.163 -0.729,-0.163Z" style="fill:#fff;fill-rule:nonzero;"/><path d="M172.222,110.684l-0,-14.864l2.089,0c0.21,0 0.386,0.047 0.527,0.141c0.142,0.095 0.242,0.236 0.3,0.425l0.25,0.827c0.218,-0.24 0.452,-0.457 0.702,-0.653c0.25,-0.196 0.519,-0.365 0.805,-0.506c0.287,-0.141 0.595,-0.252 0.925,-0.332c0.33,-0.08 0.691,-0.12 1.083,-0.12c0.587,0 1.131,0.131 1.632,0.392c0.5,0.261 0.932,0.638 1.295,1.132c0.362,0.493 0.647,1.097 0.854,1.812c0.207,0.714 0.31,1.525 0.31,2.431c-0,0.849 -0.118,1.633 -0.354,2.351c-0.235,0.718 -0.565,1.342 -0.99,1.871c-0.424,0.53 -0.932,0.943 -1.523,1.241c-0.591,0.297 -1.246,0.446 -1.964,0.446c-0.588,-0 -1.081,-0.083 -1.48,-0.25c-0.399,-0.167 -0.762,-0.392 -1.088,-0.675l-0,4.331l-3.373,-0Zm5.505,-12.503c-0.246,0 -0.469,0.024 -0.669,0.071c-0.199,0.047 -0.384,0.114 -0.555,0.201c-0.17,0.087 -0.328,0.198 -0.473,0.332c-0.145,0.134 -0.29,0.289 -0.435,0.463l-0,4.787c0.254,0.283 0.529,0.481 0.827,0.593c0.297,0.113 0.609,0.169 0.935,0.169c0.312,0 0.599,-0.062 0.86,-0.185c0.261,-0.123 0.488,-0.321 0.68,-0.593c0.192,-0.272 0.343,-0.626 0.452,-1.061c0.109,-0.435 0.163,-0.965 0.163,-1.589c-0,-0.594 -0.044,-1.095 -0.131,-1.501c-0.087,-0.406 -0.208,-0.735 -0.364,-0.985c-0.156,-0.25 -0.343,-0.43 -0.56,-0.539c-0.218,-0.108 -0.461,-0.163 -0.73,-0.163Z" style="fill:#fff;fill-rule:nonzero;"/></g></svg>
