<?xml version="1.0" encoding="UTF-8" standalone="no"?><!DOCTYPE svg PUBLIC "-//W3C//DTD SVG 1.1//EN" "http://www.w3.org/Graphics/SVG/1.1/DTD/svg11.dtd"><svg width="100%" height="100%" viewBox="0 0 200 200" version="1.1" xmlns="http://www.w3.org/2000/svg" xmlns:xlink="http://www.w3.org/1999/xlink" xml:space="preserve" xmlns:serif="http://www.serif.com/" style="fill-rule:evenodd;clip-rule:evenodd;stroke-linejoin:round;stroke-miterlimit:2;"><path d="M22.663,74.593l25.427,-33.767l0.357,25.321l30.778,18.039l43.169,0.191l30.274,-17.769l-0.353,-25.062l25.78,33.047l-0.101,40.287l-45.79,26.183l-64.433,-0.773l-45.332,-27.275l0.224,-38.422Z" style="fill-opacity:0.14;"/><path d="M22.663,74.593l25.427,-33.767l30.274,-17.769l43.169,0.191l30.414,17.826l26.148,33.519l-0.101,40.287l-77.615,63.994l-77.94,-65.859l0.224,-38.422Z" style="fill:#26bcb5;"/><path d="M177.994,114.88l-25.326,-48.272l-0.353,-25.062l25.78,33.047l-0.101,40.287Z" style="fill:#fff;fill-opacity:0.14;"/><path d="M22.663,74.593l25.427,-33.767l0.357,25.321l30.778,18.039l43.169,0.191l9.81,56.686l-64.433,-0.773l-45.332,-27.275l0.224,-38.422Z" style="fill-opacity:0.14;"/><path d="M22.663,74.593l25.427,-33.767l0.357,25.321l30.778,18.039l-11.454,56.104l-45.332,-27.275l0.224,-38.422Z" style="fill-opacity:0.14;"/><path d="M22.663,74.593l25.427,-33.767l0.357,25.321l-26.008,46.868l0.224,-38.422Z" style="fill-opacity:0.14;"/><path d="M78.364,23.057l43.169,0.191l30.778,18.039l0.357,25.321l-30.274,17.769l-43.169,-0.191l-30.778,-18.039l-0.357,-25.321l30.274,-17.769Z" style="fill:#fff;fill-opacity:0.14;"/><path d="M78.364,23.057l43.169,0.191l30.778,18.039l0.357,25.321l-30.274,17.769l-43.169,-0.191l-30.778,-18.039l-0.357,-25.321l30.274,-17.769Z" style="fill:#fff;fill-opacity:0.14;"/><path d="M100.379,178.874l-77.94,-65.859l45.332,27.275l64.433,0.773l45.79,-26.183l-77.615,63.994Z" style="fill-opacity:0.14;"/><path d="M100.379,178.874l-77.94,-65.859l45.332,27.275l64.433,0.773l-31.825,37.811Z" style="fill-opacity:0.14;"/><path d="M100.379,178.874l-77.94,-65.859l45.332,27.275l32.608,38.584Z" style="fill-opacity:0.14;"/><path d="M100.379,178.874l-41.018,-34.8l22.334,12.622l2.944,-9.178l6.896,10.222l12.192,3.842l5.87,-6.337l10.636,-7.091l0.424,6.472l22.369,-11.145l-42.647,35.393Z" style="fill-opacity:0.14;"/><path d="M100.379,178.874l-41.018,-34.8l22.334,12.622l2.944,-9.178l6.896,10.222l12.192,3.842l5.87,-6.337l10.636,-7.091l0.424,6.472l-20.278,24.248Z" style="fill-opacity:0.14;"/><path d="M100.379,178.874l-41.018,-34.8l22.334,12.622l18.684,22.178Z" style="fill-opacity:0.14;"/><path d="M100.379,178.874l-41.018,-34.8l22.334,12.622l2.944,-9.178l6.896,10.222l12.192,3.842l5.87,-6.337l10.636,-7.091l0.424,6.472l22.369,-11.145l-42.647,35.393Z" style="fill-opacity:0.14;"/><path d="M100.379,178.874l-41.018,-34.8l22.334,12.622l2.944,-9.178l6.896,10.222l12.192,3.842l5.87,-6.337l10.636,-7.091l0.424,6.472l-20.278,24.248Z" style="fill-opacity:0.14;"/><path d="M100.379,178.874l-41.018,-34.8l22.334,12.622l18.684,22.178Z" style="fill-opacity:0.14;"/></svg>