<?xml version="1.0" encoding="UTF-8" standalone="no"?><!DOCTYPE svg PUBLIC "-//W3C//DTD SVG 1.1//EN" "http://www.w3.org/Graphics/SVG/1.1/DTD/svg11.dtd"><svg width="100%" height="100%" viewBox="0 0 200 200" version="1.1" xmlns="http://www.w3.org/2000/svg" xmlns:xlink="http://www.w3.org/1999/xlink" xml:space="preserve" xmlns:serif="http://www.serif.com/" style="fill-rule:evenodd;clip-rule:evenodd;stroke-linejoin:round;stroke-miterlimit:2;"><g><path d="M63.096,83.916c-0.126,0.374 -9.102,22.065 -9.102,24.399c0,2.819 2.059,5.792 6.077,8.112l26.619,15.369c7.346,4.241 18.475,4.702 24.836,1.029l30.186,-17.427c2.882,-1.664 4.294,-3.893 4.294,-6.227c-0,-0.129 -0.069,-0.942 -0.105,-1.145c-0.754,-4.25 -8.942,-23.289 -9.003,-23.48c-0.576,-1.784 -2.141,-3.554 -4.657,-5.007l-21.494,-12.41c-5.931,-3.424 -14.917,-3.797 -20.054,-0.831l-24.373,14.072c-1.707,0.985 -2.775,2.216 -3.224,3.546Z" style="fill:#001b35;"/><path d="M110.747,67.129c-5.931,-3.424 -14.917,-3.797 -20.054,-0.831l-24.373,14.072c-5.137,2.966 -4.492,8.154 1.439,11.578l21.494,12.41c5.931,3.424 14.917,3.797 20.054,0.831l24.373,-14.072c5.137,-2.966 4.492,-8.154 -1.439,-11.578l-21.494,-12.41Z" style="fill:#fff;fill-opacity:0.11;"/><path d="M109.755,87.431l-3.29,1.9c-0.368,0.212 -0.77,0.33 -1.207,0.354c-0.437,0.023 -0.856,-0.028 -1.257,-0.154l-4.763,-1.502l-6.957,4.016l2.603,2.75c0.187,0.205 0.268,0.44 0.242,0.705c-0.025,0.266 -0.213,0.501 -0.565,0.704l-3.315,1.914l-14.044,-16.287l4.345,-2.508l28.208,8.108Zm-19.83,2.123l4.998,-2.885l-7.468,-2.369c-0.476,-0.149 -1.037,-0.325 -1.681,-0.528c-0.644,-0.203 -1.328,-0.431 -2.05,-0.684c0.456,0.418 0.864,0.813 1.224,1.186c0.361,0.372 0.662,0.7 0.903,0.985l4.074,4.295Z" style="fill:#fff;fill-rule:nonzero;"/></g></svg>