<?xml version="1.0" encoding="UTF-8" standalone="no"?><!DOCTYPE svg PUBLIC "-//W3C//DTD SVG 1.1//EN" "http://www.w3.org/Graphics/SVG/1.1/DTD/svg11.dtd"><svg width="100%" height="100%" viewBox="0 0 200 200" version="1.1" xmlns="http://www.w3.org/2000/svg" xmlns:xlink="http://www.w3.org/1999/xlink" xml:space="preserve" xmlns:serif="http://www.serif.com/" style="fill-rule:evenodd;clip-rule:evenodd;stroke-linejoin:round;stroke-miterlimit:2;"><g><g><path d="M32.5,126.098c-0.355,0.191 -0.636,0.062 -0.813,-0.027c0,0 -6.241,-3.604 -6.382,-3.687c-0.166,-0.099 -0.168,-0.248 -0.168,-0.248c0.001,0.102 -0.036,0.842 0.188,0.971l6.38,3.684c0.224,0.129 0.562,0.143 0.756,0.031l6.486,-3.745c0.193,-0.111 0.166,-0.657 0.126,-0.954c0,-0 0.029,0.148 -0.087,0.216c-1.088,0.64 -6.486,3.759 -6.486,3.759Z" style="fill:#0f0f0f;"/><path d="M41.472,120.921c-0.356,0.191 -0.637,0.061 -0.814,-0.027c0,-0 -6.241,-3.604 -6.382,-3.688c-0.166,-0.098 -0.168,-0.247 -0.168,-0.247c0.001,0.101 -0.036,0.841 0.188,0.97l6.38,3.684c0.224,0.129 0.562,0.143 0.756,0.032l6.486,-3.745c0.193,-0.112 0.166,-0.657 0.126,-0.955c0,0 0.029,0.148 -0.087,0.217c-1.088,0.639 -6.485,3.759 -6.485,3.759Z" style="fill:#0f0f0f;"/><path d="M50.443,115.743c-0.356,0.191 -0.637,0.062 -0.814,-0.027c0,0 -6.241,-3.604 -6.382,-3.687c-0.166,-0.099 -0.168,-0.248 -0.168,-0.248c0.001,0.102 -0.036,0.842 0.188,0.971l6.38,3.684c0.224,0.129 0.562,0.143 0.756,0.031l6.486,-3.745c0.193,-0.111 0.166,-0.657 0.126,-0.954c0,-0 0.029,0.148 -0.087,0.216c-1.088,0.64 -6.485,3.759 -6.485,3.759Z" style="fill:#0f0f0f;"/><path d="M59.414,110.566c-0.356,0.191 -0.637,0.061 -0.814,-0.027c0,-0 -6.241,-3.604 -6.382,-3.688c-0.166,-0.098 -0.168,-0.247 -0.168,-0.247c0.001,0.101 -0.036,0.841 0.188,0.97l6.38,3.684c0.224,0.129 0.563,0.143 0.756,0.032l6.486,-3.745c0.194,-0.112 0.166,-0.657 0.126,-0.955c0,0 0.03,0.148 -0.087,0.217c-1.088,0.639 -6.485,3.759 -6.485,3.759Z" style="fill:#0f0f0f;"/><path d="M68.385,105.388c-0.356,0.191 -0.637,0.062 -0.814,-0.027c0,0 -6.241,-3.604 -6.382,-3.687c-0.166,-0.099 -0.168,-0.248 -0.168,-0.248c0.001,0.102 -0.036,0.842 0.188,0.971l6.38,3.684c0.224,0.129 0.563,0.143 0.756,0.031l6.486,-3.745c0.194,-0.111 0.166,-0.657 0.127,-0.954c-0,-0 0.029,0.148 -0.088,0.216c-1.088,0.64 -6.485,3.759 -6.485,3.759Z" style="fill:#0f0f0f;"/><path d="M77.356,100.211c-0.355,0.19 -0.637,0.061 -0.813,-0.027c-0,-0 -6.242,-3.604 -6.383,-3.688c-0.166,-0.098 -0.168,-0.247 -0.168,-0.247c0.001,0.101 -0.036,0.841 0.188,0.97l6.38,3.684c0.224,0.129 0.563,0.143 0.756,0.032l6.486,-3.745c0.194,-0.112 0.166,-0.657 0.127,-0.955c-0,0 0.029,0.148 -0.088,0.217c-1.088,0.639 -6.485,3.759 -6.485,3.759Z" style="fill:#0f0f0f;"/><path d="M86.327,95.033c-0.355,0.191 -0.637,0.062 -0.813,-0.027c-0,0 -6.242,-3.604 -6.383,-3.687c-0.166,-0.099 -0.168,-0.248 -0.168,-0.248c0.001,0.102 -0.036,0.842 0.188,0.971l6.38,3.684c0.224,0.129 0.563,0.143 0.756,0.031l6.486,-3.745c0.194,-0.111 0.166,-0.657 0.127,-0.954c-0,-0 0.029,0.148 -0.088,0.216c-1.088,0.64 -6.485,3.759 -6.485,3.759Z" style="fill:#0f0f0f;"/><path d="M95.298,89.856c-0.355,0.19 -0.637,0.061 -0.813,-0.027c-0,-0 -6.242,-3.604 -6.383,-3.688c-0.166,-0.098 -0.168,-0.248 -0.168,-0.248c0.001,0.102 -0.036,0.842 0.188,0.971l6.38,3.684c0.224,0.129 0.563,0.143 0.756,0.032l6.486,-3.745c0.194,-0.112 0.166,-0.657 0.127,-0.955c-0,0 0.029,0.148 -0.088,0.217c-1.088,0.639 -6.485,3.759 -6.485,3.759Z" style="fill:#0f0f0f;"/><path d="M104.269,84.678c-0.355,0.191 -0.637,0.062 -0.813,-0.027c-0,0 -6.242,-3.604 -6.383,-3.687c-0.166,-0.099 -0.168,-0.248 -0.168,-0.248c0.002,0.102 -0.035,0.842 0.188,0.971l6.381,3.684c0.223,0.129 0.562,0.143 0.755,0.031l6.486,-3.745c0.194,-0.111 0.166,-0.657 0.127,-0.954c-0,-0 0.029,0.148 -0.088,0.216c-1.088,0.64 -6.485,3.759 -6.485,3.759Z" style="fill:#0f0f0f;"/><path d="M113.24,79.501c-0.355,0.19 -0.637,0.061 -0.813,-0.027c-0,-0 -6.242,-3.604 -6.383,-3.688c-0.166,-0.098 -0.168,-0.248 -0.168,-0.248c0.002,0.102 -0.035,0.842 0.188,0.971l6.381,3.684c0.223,0.129 0.562,0.143 0.755,0.032l6.486,-3.745c0.194,-0.112 0.166,-0.657 0.127,-0.955c-0,0 0.029,0.148 -0.088,0.217c-1.088,0.639 -6.485,3.759 -6.485,3.759Z" style="fill:#0f0f0f;"/><path d="M122.211,74.323c-0.355,0.191 -0.637,0.062 -0.813,-0.027c-0,0 -6.242,-3.604 -6.383,-3.687c-0.166,-0.099 -0.168,-0.248 -0.168,-0.248c0.002,0.102 -0.035,0.842 0.188,0.971l6.381,3.684c0.223,0.129 0.562,0.143 0.755,0.031l6.486,-3.745c0.194,-0.111 0.166,-0.657 0.127,-0.954c-0,-0 0.029,0.148 -0.088,0.216c-1.088,0.64 -6.485,3.759 -6.485,3.759Z" style="fill:#0f0f0f;"/><path d="M131.182,69.146c-0.355,0.19 -0.637,0.061 -0.813,-0.027c-0,-0 -6.242,-3.604 -6.382,-3.688c-0.167,-0.098 -0.169,-0.248 -0.169,-0.248c0.002,0.102 -0.035,0.842 0.188,0.971l6.381,3.684c0.223,0.129 0.562,0.143 0.755,0.032l6.486,-3.745c0.194,-0.112 0.166,-0.657 0.127,-0.955c-0,0 0.029,0.148 -0.088,0.217c-1.088,0.639 -6.485,3.759 -6.485,3.759Z" style="fill:#0f0f0f;"/><path d="M140.153,63.968c-0.355,0.191 -0.637,0.062 -0.813,-0.027c-0,0 -6.242,-3.604 -6.382,-3.687c-0.167,-0.099 -0.169,-0.248 -0.169,-0.248c0.002,0.102 -0.035,0.842 0.188,0.971l6.381,3.684c0.223,0.129 0.562,0.143 0.756,0.031l6.485,-3.745c0.194,-0.111 0.166,-0.657 0.127,-0.954c-0,-0 0.029,0.148 -0.088,0.216c-1.088,0.64 -6.485,3.759 -6.485,3.759Z" style="fill:#0f0f0f;"/><path d="M23.506,120.873c-0.199,0.126 -0.526,0.17 -0.83,-0.005c-0.064,-0.038 -2.206,-1.263 -2.369,-1.368c-0.174,-0.112 -0.16,-0.208 -0.16,-0.208c0.003,0.066 -0.038,0.804 0.185,0.933l2.356,1.36c0.224,0.129 0.562,0.143 0.756,0.031l6.486,-3.744c0.193,-0.112 0.125,-0.753 0.129,-0.9c-0,-0 -0.019,0.125 -0.099,0.171c-0.172,0.1 -6.454,3.73 -6.454,3.73Z" style="fill:#666;"/><path d="M32.472,115.689c-0.199,0.127 -0.526,0.171 -0.83,-0.004c-0.064,-0.039 -2.206,-1.264 -2.37,-1.369c-0.174,-0.111 -0.159,-0.208 -0.159,-0.208c0.003,0.067 -0.039,0.804 0.185,0.933l2.356,1.36c0.223,0.129 0.562,0.143 0.756,0.032l6.486,-3.745c0.193,-0.112 0.124,-0.753 0.129,-0.9c-0,0 -0.019,0.125 -0.1,0.172c-0.171,0.1 -6.453,3.729 -6.453,3.729Z" style="fill:#bebebe;fill-opacity:0.5;"/><path d="M41.438,110.505c-0.199,0.127 -0.526,0.171 -0.831,-0.004c-0.064,-0.039 -2.206,-1.264 -2.369,-1.368c-0.174,-0.112 -0.16,-0.208 -0.16,-0.208c0.004,0.066 -0.038,0.803 0.186,0.932l2.356,1.361c0.223,0.129 0.562,0.143 0.756,0.031l6.485,-3.745c0.194,-0.111 0.125,-0.753 0.13,-0.899c-0,-0 -0.019,0.125 -0.1,0.171c-0.172,0.1 -6.453,3.729 -6.453,3.729Z" style="fill:#0f0f0f;"/><path d="M50.403,105.322c-0.199,0.126 -0.526,0.171 -0.83,-0.005c-0.064,-0.038 -2.206,-1.263 -2.369,-1.368c-0.174,-0.112 -0.16,-0.208 -0.16,-0.208c0.003,0.066 -0.038,0.804 0.186,0.933l2.356,1.36c0.223,0.129 0.562,0.143 0.755,0.031l6.486,-3.744c0.194,-0.112 0.125,-0.753 0.129,-0.9c0,-0 -0.019,0.125 -0.099,0.172c-0.172,0.099 -6.454,3.729 -6.454,3.729Z" style="fill:#0f0f0f;"/><path d="M59.369,100.138c-0.199,0.127 -0.526,0.171 -0.83,-0.004c-0.064,-0.039 -2.206,-1.264 -2.369,-1.369c-0.174,-0.111 -0.16,-0.207 -0.16,-0.207c0.003,0.066 -0.038,0.803 0.185,0.932l2.356,1.36c0.224,0.129 0.563,0.143 0.756,0.032l6.486,-3.745c0.194,-0.112 0.125,-0.753 0.129,-0.9c0,0 -0.019,0.125 -0.099,0.172c-0.172,0.1 -6.454,3.729 -6.454,3.729Z" style="fill:#0f0f0f;"/><path d="M68.335,94.955c-0.199,0.126 -0.526,0.17 -0.83,-0.005c-0.064,-0.039 -2.206,-1.264 -2.369,-1.368c-0.174,-0.112 -0.16,-0.208 -0.16,-0.208c0.003,0.066 -0.038,0.803 0.185,0.933l2.356,1.36c0.224,0.129 0.562,0.143 0.756,0.031l6.486,-3.745c0.193,-0.111 0.125,-0.752 0.129,-0.899c-0,-0 -0.019,0.125 -0.099,0.171c-0.172,0.1 -6.454,3.73 -6.454,3.73Z" style="fill:#0f0f0f;"/><path d="M77.301,89.771c-0.199,0.127 -0.526,0.171 -0.83,-0.005c-0.064,-0.038 -2.206,-1.263 -2.37,-1.368c-0.173,-0.112 -0.159,-0.208 -0.159,-0.208c0.003,0.067 -0.039,0.804 0.185,0.933l2.356,1.36c0.223,0.129 0.562,0.143 0.756,0.031l6.486,-3.744c0.193,-0.112 0.125,-0.753 0.129,-0.9c-0,0 -0.019,0.125 -0.1,0.172c-0.171,0.1 -6.453,3.729 -6.453,3.729Z" style="fill:#0f0f0f;"/><path d="M86.267,84.587c-0.199,0.127 -0.526,0.171 -0.831,-0.004c-0.064,-0.039 -2.206,-1.264 -2.369,-1.368c-0.174,-0.112 -0.16,-0.208 -0.16,-0.208c0.004,0.066 -0.038,0.803 0.186,0.932l2.356,1.361c0.223,0.129 0.562,0.143 0.756,0.031l6.485,-3.745c0.194,-0.112 0.125,-0.753 0.13,-0.9c-0,0 -0.019,0.126 -0.1,0.172c-0.171,0.1 -6.453,3.729 -6.453,3.729Z" style="fill:#0f0f0f;"/><path d="M95.232,79.404c-0.199,0.126 -0.526,0.171 -0.83,-0.005c-0.064,-0.038 -2.206,-1.263 -2.369,-1.368c-0.174,-0.112 -0.16,-0.208 -0.16,-0.208c0.003,0.066 -0.038,0.804 0.186,0.933l2.356,1.36c0.223,0.129 0.562,0.143 0.755,0.031l6.486,-3.744c0.194,-0.112 0.125,-0.753 0.129,-0.9c0,-0 -0.019,0.125 -0.099,0.172c-0.172,0.099 -6.454,3.729 -6.454,3.729Z" style="fill:#0f0f0f;"/><path d="M104.198,74.22c-0.199,0.127 -0.526,0.171 -0.83,-0.004c-0.064,-0.039 -2.206,-1.264 -2.369,-1.369c-0.174,-0.111 -0.16,-0.207 -0.16,-0.207c0.003,0.066 -0.038,0.803 0.185,0.932l2.356,1.36c0.224,0.129 0.563,0.143 0.756,0.032l6.486,-3.745c0.194,-0.112 0.125,-0.753 0.129,-0.9c0,0 -0.019,0.125 -0.099,0.172c-0.172,0.1 -6.454,3.729 -6.454,3.729Z" style="fill:#0f0f0f;"/><path d="M113.164,69.037c-0.199,0.126 -0.526,0.17 -0.83,-0.005c-0.064,-0.039 -2.206,-1.264 -2.369,-1.368c-0.174,-0.112 -0.16,-0.208 -0.16,-0.208c0.003,0.066 -0.038,0.803 0.185,0.932l2.356,1.361c0.224,0.129 0.562,0.143 0.756,0.031l6.486,-3.745c0.193,-0.111 0.125,-0.752 0.129,-0.899c-0,-0 -0.019,0.125 -0.099,0.171c-0.172,0.1 -6.454,3.73 -6.454,3.73Z" style="fill:#0f0f0f;"/><path d="M122.13,63.853c-0.199,0.126 -0.526,0.171 -0.83,-0.005c-0.064,-0.038 -2.206,-1.263 -2.37,-1.368c-0.173,-0.112 -0.159,-0.208 -0.159,-0.208c0.003,0.066 -0.039,0.804 0.185,0.933l2.356,1.36c0.224,0.129 0.562,0.143 0.756,0.031l6.486,-3.744c0.193,-0.112 0.125,-0.753 0.129,-0.9c-0,0 -0.019,0.125 -0.099,0.172c-0.172,0.099 -6.454,3.729 -6.454,3.729Z" style="fill:#0f0f0f;"/><path d="M131.096,58.669c-0.199,0.127 -0.526,0.171 -0.831,-0.004c-0.063,-0.039 -2.206,-1.264 -2.369,-1.369c-0.174,-0.111 -0.16,-0.207 -0.16,-0.207c0.004,0.066 -0.038,0.803 0.186,0.932l2.356,1.36c0.223,0.13 0.562,0.144 0.756,0.032l6.485,-3.745c0.194,-0.112 0.125,-0.753 0.13,-0.9c-0,0 -0.019,0.125 -0.1,0.172c-0.171,0.1 -6.453,3.729 -6.453,3.729Z" style="fill:#0f0f0f;"/><path d="M113.404,120.879c-0.275,0.17 -0.57,0.158 -0.879,0.026l-6.448,-3.721c-0.077,-0.07 -0.094,-0.124 -0.095,-0.175c0.007,0.151 -0.047,0.801 0.177,0.93l6.38,3.683c0.224,0.13 0.562,0.144 0.756,0.032l24.435,-14.108c0.194,-0.112 0.142,-0.734 0.128,-0.902c0.007,0.051 -0.021,0.11 -0.138,0.189l-24.316,14.046Z" style="fill:#0f0f0f;"/><path d="M167.238,89.801c-0.275,0.169 -0.58,0.155 -0.908,0.007l-6.296,-3.635c-0.192,-0.127 -0.228,-0.205 -0.221,-0.27c0,-0 -0.043,0.825 0.18,0.954l6.381,3.684c0.223,0.129 0.562,0.143 0.756,0.031l15.471,-8.932c0.193,-0.112 0.137,-0.902 0.137,-0.902c0.005,0.06 -0.055,0.134 -0.204,0.225l-15.296,8.838Z" style="fill:#0f0f0f;"/><path d="M41.69,131.227c-0.304,0.179 -0.601,0.164 -0.885,0.017c0,-0 -5.322,-3.075 -6.443,-3.727c-0.082,-0.047 -0.092,-0.196 -0.092,-0.196c-0.007,0.125 -0.041,0.831 0.183,0.96l6.38,3.684c0.224,0.129 0.562,0.143 0.756,0.031l10.84,-6.258c0.194,-0.112 0.128,-0.651 0.136,-0.887c-0,0 -0.008,0.102 -0.184,0.203c-1.824,1.052 -10.691,6.173 -10.691,6.173Z" style="fill:#0f0f0f;"/><path d="M164.371,71.305c0.125,-0.072 0.202,-0.206 0.202,-0.351c0,-0.144 -0.001,-0.756 -0.001,-0.756c0.024,0.157 -0.045,0.282 -0.176,0.384l-6.323,3.652c-0.195,0.133 -0.388,0.116 -0.58,-0.012l-8.186,-4.716c-0.232,-0.216 -0.487,-0.252 -0.774,-0.02l-3.912,2.266c-0.149,0.092 -0.321,0.093 -0.521,-0.013l-6.274,-3.62c-0.329,-0.266 -0.297,-0.508 -0.016,-0.733c-0,0 -0.246,0.172 -0.222,0.399c0.015,0.144 -0.032,0.89 0.2,1.017c1.541,0.844 5.444,3.143 6.38,3.683c0.125,0.073 0.28,0.073 0.405,0c0.753,-0.434 3.386,-1.954 4.139,-2.389c0.125,-0.072 0.279,-0.072 0.405,-0c1.192,0.688 7.28,4.203 8.472,4.891c0.125,0.072 0.279,0.072 0.405,0c0.935,-0.54 4.855,-2.803 6.377,-3.682Z" style="fill:#0f0f0f;"/><path d="M54.949,123.579c-0.355,0.19 -0.636,0.061 -0.813,-0.027c0,-0 -6.241,-3.604 -6.382,-3.688c-0.166,-0.098 -0.168,-0.248 -0.168,-0.248c0.001,0.102 -0.036,0.842 0.188,0.971l6.38,3.684c0.224,0.129 0.562,0.143 0.756,0.032l6.486,-3.745c0.193,-0.112 0.166,-0.657 0.126,-0.955c0,0 0.029,0.148 -0.087,0.217c-1.088,0.639 -6.486,3.759 -6.486,3.759Z" style="fill:#0f0f0f;"/><path d="M63.918,118.394c-0.355,0.19 -0.637,0.061 -0.813,-0.027c-0,-0 -6.242,-3.604 -6.383,-3.688c-0.166,-0.098 -0.168,-0.248 -0.168,-0.248c0.001,0.102 -0.036,0.842 0.188,0.971l6.38,3.684c0.224,0.129 0.563,0.143 0.756,0.032l6.486,-3.745c0.194,-0.112 0.166,-0.657 0.127,-0.955c-0,0 0.029,0.148 -0.088,0.217c-1.088,0.639 -6.485,3.759 -6.485,3.759Z" style="fill:#0f0f0f;"/><path d="M72.886,113.209c-0.355,0.19 -0.637,0.061 -0.813,-0.027c-0,-0 -6.242,-3.604 -6.383,-3.688c-0.166,-0.098 -0.168,-0.248 -0.168,-0.248c0.002,0.102 -0.035,0.842 0.188,0.971l6.381,3.684c0.223,0.129 0.562,0.143 0.755,0.032l6.486,-3.745c0.194,-0.112 0.166,-0.658 0.127,-0.955c-0,0 0.029,0.148 -0.088,0.217c-1.088,0.639 -6.485,3.759 -6.485,3.759Z" style="fill:#0f0f0f;"/><path d="M81.854,108.024c-0.355,0.19 -0.636,0.061 -0.813,-0.027c-0,-0 -6.242,-3.604 -6.382,-3.688c-0.167,-0.098 -0.168,-0.248 -0.168,-0.248c0.001,0.102 -0.036,0.842 0.187,0.971l6.381,3.684c0.223,0.129 0.562,0.143 0.756,0.031l6.485,-3.744c0.194,-0.112 0.167,-0.658 0.127,-0.955c0,0 0.029,0.148 -0.087,0.217c-1.088,0.639 -6.486,3.759 -6.486,3.759Z" style="fill:#0f0f0f;"/><path d="M90.822,102.839c-0.355,0.19 -0.636,0.061 -0.813,-0.027c0,-0 -6.241,-3.604 -6.382,-3.688c-0.166,-0.098 -0.168,-0.248 -0.168,-0.248c0.001,0.102 -0.036,0.842 0.188,0.971l6.38,3.684c0.224,0.129 0.562,0.143 0.756,0.031l6.486,-3.744c0.193,-0.112 0.166,-0.658 0.126,-0.955c0,0 0.029,0.148 -0.087,0.217c-1.088,0.639 -6.486,3.759 -6.486,3.759Z" style="fill:#0f0f0f;"/><path d="M99.791,97.654c-0.356,0.19 -0.637,0.061 -0.814,-0.027c0,-0 -6.241,-3.604 -6.382,-3.688c-0.166,-0.098 -0.168,-0.248 -0.168,-0.248c0.001,0.102 -0.036,0.842 0.188,0.971l6.38,3.684c0.224,0.129 0.563,0.143 0.756,0.031l6.486,-3.744c0.194,-0.112 0.166,-0.658 0.126,-0.955c0,0 0.03,0.148 -0.087,0.217c-1.088,0.639 -6.485,3.759 -6.485,3.759Z" style="fill:#0f0f0f;"/><path d="M108.759,92.469c-0.355,0.19 -0.637,0.061 -0.813,-0.027c-0,-0 -6.242,-3.604 -6.383,-3.688c-0.166,-0.098 -0.168,-0.248 -0.168,-0.248c0.002,0.102 -0.035,0.842 0.188,0.971l6.381,3.684c0.223,0.129 0.562,0.143 0.755,0.031l6.486,-3.744c0.194,-0.112 0.166,-0.658 0.127,-0.955c-0,0 0.029,0.148 -0.088,0.217c-1.088,0.639 -6.485,3.759 -6.485,3.759Z" style="fill:#0f0f0f;"/><path d="M117.727,87.284c-0.355,0.19 -0.636,0.061 -0.813,-0.027c-0,-0 -6.242,-3.604 -6.382,-3.688c-0.167,-0.098 -0.168,-0.248 -0.168,-0.248c0.001,0.102 -0.036,0.842 0.187,0.971l6.381,3.684c0.223,0.129 0.562,0.143 0.756,0.031l6.485,-3.744c0.194,-0.112 0.166,-0.658 0.127,-0.955c-0,0 0.029,0.148 -0.087,0.216c-1.089,0.64 -6.486,3.76 -6.486,3.76Z" style="fill:#0f0f0f;"/><path d="M126.695,82.099c-0.355,0.19 -0.636,0.061 -0.813,-0.027c0,-0 -6.241,-3.604 -6.382,-3.688c-0.167,-0.099 -0.168,-0.248 -0.168,-0.248c0.001,0.102 -0.036,0.842 0.188,0.971l6.38,3.684c0.224,0.129 0.562,0.143 0.756,0.031l6.486,-3.744c0.193,-0.112 0.166,-0.658 0.126,-0.955c0,0 0.029,0.148 -0.087,0.216c-1.088,0.64 -6.486,3.76 -6.486,3.76Z" style="fill:#0f0f0f;"/><path d="M135.664,76.913c-0.356,0.191 -0.637,0.062 -0.814,-0.026c0,-0 -6.241,-3.604 -6.382,-3.688c-0.166,-0.099 -0.168,-0.248 -0.168,-0.248c0.001,0.102 -0.036,0.842 0.188,0.971l6.38,3.684c0.224,0.129 0.562,0.143 0.756,0.031l6.486,-3.744c0.193,-0.112 0.166,-0.658 0.126,-0.955c0,-0 0.029,0.148 -0.087,0.216c-1.088,0.64 -6.485,3.759 -6.485,3.759Z" style="fill:#0f0f0f;"/><path d="M50.419,136.448c-0.355,0.191 -0.637,0.062 -0.813,-0.027c-0,0 -6.242,-3.604 -6.382,-3.687c-0.167,-0.099 -0.169,-0.248 -0.169,-0.248c0.002,0.101 -0.035,0.842 0.188,0.971l6.381,3.683c0.223,0.129 0.562,0.143 0.755,0.032l6.486,-3.745c0.194,-0.112 0.166,-0.657 0.127,-0.955c-0,0 0.029,0.148 -0.088,0.217c-1.088,0.639 -6.485,3.759 -6.485,3.759Z" style="fill:#0f0f0f;"/><path d="M59.401,131.263c-0.355,0.19 -0.636,0.061 -0.813,-0.027c-0,-0 -6.242,-3.604 -6.382,-3.688c-0.167,-0.098 -0.168,-0.248 -0.168,-0.248c0.001,0.102 -0.036,0.842 0.187,0.971l6.381,3.684c0.223,0.129 0.562,0.143 0.756,0.031l6.485,-3.744c0.194,-0.112 0.167,-0.658 0.127,-0.955c-0,0 0.029,0.148 -0.087,0.216c-1.089,0.64 -6.486,3.76 -6.486,3.76Z" style="fill:#0f0f0f;"/><path d="M68.383,126.077c-0.355,0.191 -0.636,0.062 -0.813,-0.027c0,0 -6.241,-3.604 -6.382,-3.687c-0.167,-0.099 -0.168,-0.248 -0.168,-0.248c0.001,0.102 -0.036,0.842 0.187,0.971l6.381,3.684c0.223,0.129 0.562,0.143 0.756,0.031l6.486,-3.745c0.193,-0.111 0.166,-0.657 0.126,-0.954c0,-0 0.029,0.148 -0.087,0.216c-1.088,0.64 -6.486,3.759 -6.486,3.759Z" style="fill:#0f0f0f;"/><path d="M77.365,120.892c-0.355,0.191 -0.636,0.061 -0.813,-0.027c0,0 -6.241,-3.604 -6.382,-3.687c-0.167,-0.099 -0.168,-0.248 -0.168,-0.248c0.001,0.101 -0.036,0.842 0.188,0.971l6.38,3.683c0.224,0.129 0.562,0.143 0.756,0.032l6.486,-3.745c0.193,-0.112 0.166,-0.657 0.126,-0.955c0,0 0.029,0.148 -0.087,0.217c-1.088,0.639 -6.486,3.759 -6.486,3.759Z" style="fill:#0f0f0f;"/><path d="M86.347,115.707c-0.355,0.19 -0.636,0.061 -0.813,-0.027c0,-0 -6.241,-3.604 -6.382,-3.688c-0.166,-0.099 -0.168,-0.248 -0.168,-0.248c0.001,0.102 -0.036,0.842 0.188,0.971l6.38,3.684c0.224,0.129 0.562,0.143 0.756,0.031l6.486,-3.744c0.193,-0.112 0.166,-0.658 0.126,-0.955c0,0 0.029,0.148 -0.087,0.216c-1.088,0.64 -6.486,3.76 -6.486,3.76Z" style="fill:#0f0f0f;"/><path d="M95.33,110.521c-0.356,0.191 -0.637,0.062 -0.814,-0.027c0,0 -6.241,-3.604 -6.382,-3.687c-0.166,-0.099 -0.168,-0.248 -0.168,-0.248c0.001,0.102 -0.036,0.842 0.188,0.971l6.38,3.684c0.224,0.129 0.562,0.143 0.756,0.031l6.486,-3.745c0.194,-0.111 0.166,-0.657 0.126,-0.954c0,-0 0.03,0.148 -0.087,0.216c-1.088,0.64 -6.485,3.759 -6.485,3.759Z" style="fill:#0f0f0f;"/><path d="M104.312,105.336c-0.355,0.191 -0.637,0.061 -0.813,-0.027c-0,0 -6.242,-3.604 -6.383,-3.688c-0.166,-0.098 -0.168,-0.247 -0.168,-0.247c0.001,0.101 -0.036,0.841 0.188,0.971l6.38,3.683c0.224,0.129 0.563,0.143 0.756,0.032l6.486,-3.745c0.194,-0.112 0.166,-0.657 0.127,-0.955c-0,0 0.029,0.148 -0.088,0.217c-1.088,0.639 -6.485,3.759 -6.485,3.759Z" style="fill:#0f0f0f;"/><path d="M113.294,100.15c-0.355,0.191 -0.637,0.062 -0.813,-0.026c-0,-0 -6.242,-3.604 -6.383,-3.688c-0.166,-0.099 -0.168,-0.248 -0.168,-0.248c0.002,0.102 -0.035,0.842 0.188,0.971l6.381,3.684c0.223,0.129 0.562,0.143 0.755,0.031l6.486,-3.744c0.194,-0.112 0.166,-0.658 0.127,-0.955c-0,-0 0.029,0.148 -0.088,0.216c-1.088,0.64 -6.485,3.759 -6.485,3.759Z" style="fill:#0f0f0f;"/><path d="M122.276,94.965c-0.355,0.191 -0.637,0.062 -0.813,-0.027c-0,0 -6.242,-3.604 -6.383,-3.687c-0.166,-0.099 -0.168,-0.248 -0.168,-0.248c0.002,0.102 -0.035,0.842 0.188,0.971l6.381,3.684c0.223,0.129 0.562,0.143 0.755,0.031l6.486,-3.745c0.194,-0.111 0.166,-0.657 0.127,-0.954c-0,-0 0.029,0.148 -0.088,0.216c-1.088,0.64 -6.485,3.759 -6.485,3.759Z" style="fill:#0f0f0f;"/><path d="M131.258,89.78c-0.355,0.19 -0.636,0.061 -0.813,-0.027c-0,-0 -6.242,-3.604 -6.382,-3.688c-0.167,-0.098 -0.168,-0.248 -0.168,-0.248c0.001,0.102 -0.036,0.842 0.187,0.971l6.381,3.684c0.223,0.129 0.562,0.143 0.756,0.032l6.485,-3.745c0.194,-0.112 0.166,-0.657 0.127,-0.955c-0,0 0.029,0.148 -0.087,0.217c-1.089,0.639 -6.486,3.759 -6.486,3.759Z" style="fill:#0f0f0f;"/><path d="M140.24,84.594c-0.355,0.191 -0.636,0.062 -0.813,-0.026c0,-0 -6.241,-3.604 -6.382,-3.688c-0.167,-0.099 -0.168,-0.248 -0.168,-0.248c0.001,0.102 -0.036,0.842 0.187,0.971l6.381,3.684c0.223,0.129 0.562,0.143 0.756,0.031l6.486,-3.744c0.193,-0.112 0.166,-0.658 0.126,-0.955c0,-0 0.029,0.148 -0.087,0.216c-1.088,0.64 -6.486,3.759 -6.486,3.759Z" style="fill:#0f0f0f;"/><path d="M149.222,79.409c-0.355,0.191 -0.636,0.062 -0.813,-0.027c0,0 -6.241,-3.604 -6.382,-3.687c-0.167,-0.099 -0.168,-0.248 -0.168,-0.248c0.001,0.102 -0.036,0.842 0.188,0.971l6.38,3.684c0.224,0.129 0.562,0.143 0.756,0.031l6.486,-3.745c0.193,-0.112 0.166,-0.657 0.126,-0.954c0,-0 0.029,0.148 -0.087,0.216c-1.088,0.64 -6.486,3.759 -6.486,3.759Z" style="fill:#0f0f0f;"/><path d="M72.876,133.908c-0.356,0.191 -0.637,0.062 -0.814,-0.027c0,0 -6.241,-3.604 -6.382,-3.687c-0.166,-0.099 -0.168,-0.248 -0.168,-0.248c0.001,0.102 -0.036,0.842 0.188,0.971l6.38,3.684c0.224,0.129 0.562,0.143 0.756,0.031l6.486,-3.745c0.193,-0.111 0.166,-0.657 0.126,-0.954c0,-0 0.029,0.148 -0.087,0.216c-1.088,0.64 -6.485,3.759 -6.485,3.759Z" style="fill:#0f0f0f;"/><path d="M81.842,128.721c-0.356,0.19 -0.637,0.061 -0.814,-0.027c0,-0 -6.241,-3.604 -6.382,-3.688c-0.166,-0.098 -0.168,-0.248 -0.168,-0.248c0.001,0.102 -0.036,0.842 0.188,0.971l6.38,3.684c0.224,0.129 0.563,0.143 0.756,0.031l6.486,-3.744c0.194,-0.112 0.166,-0.658 0.126,-0.955c0,0 0.03,0.148 -0.087,0.216c-1.088,0.64 -6.485,3.76 -6.485,3.76Z" style="fill:#0f0f0f;"/><path d="M90.808,123.533c-0.355,0.191 -0.637,0.062 -0.813,-0.027c-0,0 -6.242,-3.604 -6.383,-3.687c-0.166,-0.099 -0.168,-0.248 -0.168,-0.248c0.001,0.101 -0.036,0.842 0.188,0.971l6.38,3.683c0.224,0.129 0.563,0.143 0.756,0.032l6.486,-3.745c0.194,-0.112 0.166,-0.657 0.127,-0.955c-0,0 0.029,0.148 -0.088,0.217c-1.088,0.639 -6.485,3.759 -6.485,3.759Z" style="fill:#0f0f0f;"/><path d="M99.774,118.345c-0.355,0.191 -0.637,0.062 -0.813,-0.027c-0,0 -6.242,-3.604 -6.383,-3.687c-0.166,-0.099 -0.168,-0.248 -0.168,-0.248c0.001,0.102 -0.036,0.842 0.188,0.971l6.38,3.684c0.224,0.129 0.563,0.143 0.756,0.031l6.486,-3.745c0.194,-0.111 0.166,-0.657 0.127,-0.954c-0,-0 0.029,0.148 -0.088,0.216c-1.088,0.64 -6.485,3.759 -6.485,3.759Z" style="fill:#0f0f0f;"/><path d="M108.74,113.157c-0.355,0.191 -0.637,0.062 -0.813,-0.026c-0,-0 -6.242,-3.604 -6.383,-3.688c-0.166,-0.099 -0.168,-0.248 -0.168,-0.248c0.001,0.102 -0.036,0.842 0.188,0.971l6.38,3.684c0.224,0.129 0.563,0.143 0.756,0.031l6.486,-3.744c0.194,-0.112 0.166,-0.658 0.127,-0.955c-0,-0 0.029,0.148 -0.088,0.216c-1.088,0.64 -6.485,3.759 -6.485,3.759Z" style="fill:#0f0f0f;"/><path d="M117.706,107.97c-0.355,0.191 -0.637,0.061 -0.813,-0.027c-0,-0 -6.242,-3.604 -6.383,-3.688c-0.166,-0.098 -0.168,-0.247 -0.168,-0.247c0.002,0.101 -0.035,0.841 0.188,0.97l6.381,3.684c0.223,0.129 0.562,0.143 0.755,0.032l6.486,-3.745c0.194,-0.112 0.166,-0.657 0.127,-0.955c-0,0 0.029,0.148 -0.088,0.217c-1.088,0.639 -6.485,3.759 -6.485,3.759Z" style="fill:#0f0f0f;"/><path d="M126.672,102.782c-0.355,0.191 -0.637,0.062 -0.813,-0.027c-0,0 -6.242,-3.604 -6.383,-3.687c-0.166,-0.099 -0.168,-0.248 -0.168,-0.248c0.002,0.102 -0.035,0.842 0.188,0.971l6.381,3.684c0.223,0.129 0.562,0.143 0.755,0.031l6.486,-3.745c0.194,-0.111 0.166,-0.657 0.127,-0.954c-0,-0 0.029,0.148 -0.088,0.216c-1.088,0.64 -6.485,3.759 -6.485,3.759Z" style="fill:#0f0f0f;"/><path d="M135.638,97.594c-0.355,0.191 -0.637,0.062 -0.813,-0.026c-0,-0 -6.242,-3.605 -6.383,-3.688c-0.166,-0.099 -0.168,-0.248 -0.168,-0.248c0.002,0.102 -0.035,0.842 0.188,0.971l6.381,3.684c0.223,0.129 0.562,0.143 0.755,0.031l6.486,-3.744c0.194,-0.112 0.166,-0.658 0.127,-0.955c-0,-0 0.029,0.148 -0.088,0.216c-1.088,0.64 -6.485,3.759 -6.485,3.759Z" style="fill:#0f0f0f;"/><path d="M144.604,92.407c-0.355,0.19 -0.636,0.061 -0.813,-0.027c-0,-0 -6.242,-3.604 -6.382,-3.688c-0.167,-0.098 -0.169,-0.248 -0.169,-0.248c0.002,0.102 -0.035,0.842 0.188,0.971l6.381,3.684c0.223,0.129 0.562,0.143 0.756,0.031l6.485,-3.744c0.194,-0.112 0.166,-0.658 0.127,-0.955c-0,0 0.029,0.148 -0.088,0.217c-1.088,0.639 -6.485,3.759 -6.485,3.759Z" style="fill:#0f0f0f;"/><path d="M153.57,87.219c-0.355,0.191 -0.636,0.062 -0.813,-0.027c-0,0 -6.242,-3.604 -6.382,-3.687c-0.167,-0.099 -0.168,-0.248 -0.168,-0.248c0.001,0.102 -0.036,0.842 0.187,0.971l6.381,3.683c0.223,0.13 0.562,0.144 0.756,0.032l6.485,-3.745c0.194,-0.112 0.166,-0.657 0.127,-0.954c-0,-0 0.029,0.147 -0.088,0.216c-1.088,0.64 -6.485,3.759 -6.485,3.759Z" style="fill:#0f0f0f;"/><path d="M86.401,136.468c-0.355,0.191 -0.637,0.062 -0.813,-0.027c-0,0 -6.242,-3.604 -6.383,-3.687c-0.166,-0.099 -0.168,-0.248 -0.168,-0.248c0.001,0.102 -0.036,0.842 0.188,0.971l6.38,3.684c0.224,0.129 0.563,0.143 0.756,0.031l6.486,-3.745c0.194,-0.111 0.166,-0.657 0.127,-0.954c-0,-0 0.029,0.148 -0.088,0.216c-1.088,0.64 -6.485,3.759 -6.485,3.759Z" style="fill:#0f0f0f;"/><path d="M95.373,131.286c-0.355,0.191 -0.637,0.062 -0.813,-0.027c-0,0 -6.242,-3.604 -6.382,-3.687c-0.167,-0.099 -0.169,-0.248 -0.169,-0.248c0.002,0.101 -0.035,0.842 0.188,0.971l6.381,3.683c0.223,0.129 0.562,0.144 0.755,0.032l6.486,-3.745c0.194,-0.112 0.166,-0.657 0.127,-0.955c-0,0 0.029,0.148 -0.088,0.217c-1.088,0.639 -6.485,3.759 -6.485,3.759Z" style="fill:#0f0f0f;"/><path d="M104.345,126.104c-0.355,0.19 -0.636,0.061 -0.813,-0.027c0,-0 -6.242,-3.604 -6.382,-3.688c-0.167,-0.098 -0.168,-0.248 -0.168,-0.248c0.001,0.102 -0.036,0.842 0.187,0.971l6.381,3.684c0.223,0.129 0.562,0.143 0.756,0.032l6.486,-3.745c0.193,-0.112 0.166,-0.657 0.126,-0.955c0,0 0.029,0.148 -0.087,0.217c-1.088,0.639 -6.486,3.759 -6.486,3.759Z" style="fill:#0f0f0f;"/><path d="M140.234,105.375c-0.355,0.191 -0.637,0.062 -0.813,-0.027c-0,0 -6.242,-3.604 -6.383,-3.687c-0.166,-0.099 -0.168,-0.248 -0.168,-0.248c0.002,0.102 -0.035,0.842 0.188,0.971l6.381,3.684c0.223,0.129 0.562,0.143 0.755,0.031l6.486,-3.745c0.194,-0.112 0.166,-0.657 0.127,-0.954c-0,-0 0.029,0.147 -0.088,0.216c-1.088,0.64 -6.485,3.759 -6.485,3.759Z" style="fill:#0f0f0f;"/><path d="M149.206,100.193c-0.355,0.191 -0.636,0.062 -0.813,-0.027c-0,0 -6.242,-3.604 -6.382,-3.687c-0.167,-0.099 -0.168,-0.248 -0.168,-0.248c0.001,0.101 -0.036,0.842 0.187,0.971l6.381,3.683c0.223,0.129 0.562,0.143 0.756,0.032l6.485,-3.745c0.194,-0.112 0.167,-0.657 0.127,-0.955c-0,0 0.029,0.148 -0.087,0.217c-1.088,0.639 -6.486,3.759 -6.486,3.759Z" style="fill:#0f0f0f;"/><path d="M158.178,95.011c-0.355,0.19 -0.636,0.061 -0.813,-0.027c0,-0 -6.241,-3.604 -6.382,-3.688c-0.167,-0.098 -0.168,-0.248 -0.168,-0.248c0.001,0.102 -0.036,0.842 0.188,0.971l6.38,3.684c0.224,0.129 0.562,0.143 0.756,0.031l6.486,-3.744c0.193,-0.112 0.166,-0.658 0.126,-0.955c0,0 0.029,0.148 -0.087,0.217c-1.088,0.639 -6.486,3.759 -6.486,3.759Z" style="fill:#0f0f0f;"/><path d="M68.519,146.796c-0.274,0.169 -0.58,0.155 -0.908,0.006l-6.295,-3.634c-0.192,-0.127 -0.228,-0.205 -0.221,-0.27c-0,-0 -0.044,0.825 0.18,0.954l6.38,3.684c0.224,0.129 0.563,0.143 0.756,0.031l15.471,-8.932c0.194,-0.112 0.137,-0.902 0.137,-0.902c0.005,0.06 -0.054,0.134 -0.204,0.225l-15.296,8.838Z" style="fill:#0f0f0f;"/><path d="M59.585,141.56c-0.305,0.179 -0.601,0.165 -0.885,0.017c-0,0 -5.322,-3.075 -6.443,-3.726c-0.082,-0.048 -0.092,-0.196 -0.092,-0.196c-0.007,0.125 -0.041,0.83 0.182,0.96l6.381,3.683c0.223,0.129 0.562,0.143 0.756,0.032l10.84,-6.259c0.194,-0.112 0.127,-0.65 0.135,-0.886c0,-0 -0.008,0.101 -0.184,0.203c-1.824,1.052 -10.69,6.172 -10.69,6.172Z" style="fill:#0f0f0f;"/><path d="M162.716,82.039c-0.312,0.183 -0.611,0.17 -0.895,0.023c-0,0 -5.322,-3.075 -6.443,-3.726c-0.082,-0.048 -0.09,-0.198 -0.09,-0.198c-0.009,0.126 -0.058,0.841 0.166,0.97l6.38,3.684c0.224,0.129 0.566,0.14 0.764,0.026l11.095,-6.405c0.198,-0.115 0.142,-0.659 0.155,-0.898c-0,0 -0.01,0.103 -0.191,0.207c-1.867,1.077 -10.941,6.317 -10.941,6.317Z" style="fill:#0f0f0f;"/></g><g><path d="M32.5,126.098c-0.355,0.191 -0.636,0.062 -0.813,-0.027c0,0 -6.241,-3.604 -6.382,-3.687c-0.166,-0.099 -0.168,-0.248 -0.168,-0.248c0.001,0.102 -0.036,0.842 0.188,0.971l6.38,3.684c0.224,0.129 0.562,0.143 0.756,0.031l6.486,-3.745c0.193,-0.111 0.166,-0.657 0.126,-0.954c0,-0 0.029,0.148 -0.087,0.216c-1.088,0.64 -6.486,3.759 -6.486,3.759Z" style="fill:#6b6b6b;"/><path d="M41.472,120.921c-0.356,0.191 -0.637,0.061 -0.814,-0.027c0,-0 -6.241,-3.604 -6.382,-3.688c-0.166,-0.098 -0.168,-0.247 -0.168,-0.247c0.001,0.101 -0.036,0.841 0.188,0.97l6.38,3.684c0.224,0.129 0.562,0.143 0.756,0.032l6.486,-3.745c0.193,-0.112 0.166,-0.657 0.126,-0.955c0,0 0.029,0.148 -0.087,0.217c-1.088,0.639 -6.485,3.759 -6.485,3.759Z" style="fill:#6b6b6b;"/><path d="M50.443,115.743c-0.356,0.191 -0.637,0.062 -0.814,-0.027c0,0 -6.241,-3.604 -6.382,-3.687c-0.166,-0.099 -0.168,-0.248 -0.168,-0.248c0.001,0.102 -0.036,0.842 0.188,0.971l6.38,3.684c0.224,0.129 0.562,0.143 0.756,0.031l6.486,-3.745c0.193,-0.111 0.166,-0.657 0.126,-0.954c0,-0 0.029,0.148 -0.087,0.216c-1.088,0.64 -6.485,3.759 -6.485,3.759Z" style="fill:#6b6b6b;"/><path d="M59.414,110.566c-0.356,0.191 -0.637,0.061 -0.814,-0.027c0,-0 -6.241,-3.604 -6.382,-3.688c-0.166,-0.098 -0.168,-0.247 -0.168,-0.247c0.001,0.101 -0.036,0.841 0.188,0.97l6.38,3.684c0.224,0.129 0.563,0.143 0.756,0.032l6.486,-3.745c0.194,-0.112 0.166,-0.657 0.126,-0.955c0,0 0.03,0.148 -0.087,0.217c-1.088,0.639 -6.485,3.759 -6.485,3.759Z" style="fill:#6b6b6b;"/><path d="M68.385,105.388c-0.356,0.191 -0.637,0.062 -0.814,-0.027c0,0 -6.241,-3.604 -6.382,-3.687c-0.166,-0.099 -0.168,-0.248 -0.168,-0.248c0.001,0.102 -0.036,0.842 0.188,0.971l6.38,3.684c0.224,0.129 0.563,0.143 0.756,0.031l6.486,-3.745c0.194,-0.111 0.166,-0.657 0.127,-0.954c-0,-0 0.029,0.148 -0.088,0.216c-1.088,0.64 -6.485,3.759 -6.485,3.759Z" style="fill:#6b6b6b;"/><path d="M77.356,100.211c-0.355,0.19 -0.637,0.061 -0.813,-0.027c-0,-0 -6.242,-3.604 -6.383,-3.688c-0.166,-0.098 -0.168,-0.247 -0.168,-0.247c0.001,0.101 -0.036,0.841 0.188,0.97l6.38,3.684c0.224,0.129 0.563,0.143 0.756,0.032l6.486,-3.745c0.194,-0.112 0.166,-0.657 0.127,-0.955c-0,0 0.029,0.148 -0.088,0.217c-1.088,0.639 -6.485,3.759 -6.485,3.759Z" style="fill:#6b6b6b;"/><path d="M86.327,95.033c-0.355,0.191 -0.637,0.062 -0.813,-0.027c-0,0 -6.242,-3.604 -6.383,-3.687c-0.166,-0.099 -0.168,-0.248 -0.168,-0.248c0.001,0.102 -0.036,0.842 0.188,0.971l6.38,3.684c0.224,0.129 0.563,0.143 0.756,0.031l6.486,-3.745c0.194,-0.111 0.166,-0.657 0.127,-0.954c-0,-0 0.029,0.148 -0.088,0.216c-1.088,0.64 -6.485,3.759 -6.485,3.759Z" style="fill:#6b6b6b;"/><path d="M95.298,89.856c-0.355,0.19 -0.637,0.061 -0.813,-0.027c-0,-0 -6.242,-3.604 -6.383,-3.688c-0.166,-0.098 -0.168,-0.248 -0.168,-0.248c0.001,0.102 -0.036,0.842 0.188,0.971l6.38,3.684c0.224,0.129 0.563,0.143 0.756,0.032l6.486,-3.745c0.194,-0.112 0.166,-0.657 0.127,-0.955c-0,0 0.029,0.148 -0.088,0.217c-1.088,0.639 -6.485,3.759 -6.485,3.759Z" style="fill:#6b6b6b;"/><path d="M104.269,84.678c-0.355,0.191 -0.637,0.062 -0.813,-0.027c-0,0 -6.242,-3.604 -6.383,-3.687c-0.166,-0.099 -0.168,-0.248 -0.168,-0.248c0.002,0.102 -0.035,0.842 0.188,0.971l6.381,3.684c0.223,0.129 0.562,0.143 0.755,0.031l6.486,-3.745c0.194,-0.111 0.166,-0.657 0.127,-0.954c-0,-0 0.029,0.148 -0.088,0.216c-1.088,0.64 -6.485,3.759 -6.485,3.759Z" style="fill:#6b6b6b;"/><path d="M113.24,79.501c-0.355,0.19 -0.637,0.061 -0.813,-0.027c-0,-0 -6.242,-3.604 -6.383,-3.688c-0.166,-0.098 -0.168,-0.248 -0.168,-0.248c0.002,0.102 -0.035,0.842 0.188,0.971l6.381,3.684c0.223,0.129 0.562,0.143 0.755,0.032l6.486,-3.745c0.194,-0.112 0.166,-0.657 0.127,-0.955c-0,0 0.029,0.148 -0.088,0.217c-1.088,0.639 -6.485,3.759 -6.485,3.759Z" style="fill:#6b6b6b;"/><path d="M122.211,74.323c-0.355,0.191 -0.637,0.062 -0.813,-0.027c-0,0 -6.242,-3.604 -6.383,-3.687c-0.166,-0.099 -0.168,-0.248 -0.168,-0.248c0.002,0.102 -0.035,0.842 0.188,0.971l6.381,3.684c0.223,0.129 0.562,0.143 0.755,0.031l6.486,-3.745c0.194,-0.111 0.166,-0.657 0.127,-0.954c-0,-0 0.029,0.148 -0.088,0.216c-1.088,0.64 -6.485,3.759 -6.485,3.759Z" style="fill:#6b6b6b;"/><path d="M131.182,69.146c-0.355,0.19 -0.637,0.061 -0.813,-0.027c-0,-0 -6.242,-3.604 -6.382,-3.688c-0.167,-0.098 -0.169,-0.248 -0.169,-0.248c0.002,0.102 -0.035,0.842 0.188,0.971l6.381,3.684c0.223,0.129 0.562,0.143 0.755,0.032l6.486,-3.745c0.194,-0.112 0.166,-0.657 0.127,-0.955c-0,0 0.029,0.148 -0.088,0.217c-1.088,0.639 -6.485,3.759 -6.485,3.759Z" style="fill:#6b6b6b;"/><path d="M140.153,63.968c-0.355,0.191 -0.637,0.062 -0.813,-0.027c-0,0 -6.242,-3.604 -6.382,-3.687c-0.167,-0.099 -0.169,-0.248 -0.169,-0.248c0.002,0.102 -0.035,0.842 0.188,0.971l6.381,3.684c0.223,0.129 0.562,0.143 0.756,0.031l6.485,-3.745c0.194,-0.111 0.166,-0.657 0.127,-0.954c-0,-0 0.029,0.148 -0.088,0.216c-1.088,0.64 -6.485,3.759 -6.485,3.759Z" style="fill:#6b6b6b;"/><path d="M23.506,120.873c-0.199,0.126 -0.526,0.17 -0.83,-0.005c-0.064,-0.038 -2.206,-1.263 -2.369,-1.368c-0.174,-0.112 -0.16,-0.208 -0.16,-0.208c0.003,0.066 -0.038,0.804 0.185,0.933l2.356,1.36c0.224,0.129 0.562,0.143 0.756,0.031l6.486,-3.744c0.193,-0.112 0.125,-0.753 0.129,-0.9c-0,-0 -0.019,0.125 -0.099,0.171c-0.172,0.1 -6.454,3.73 -6.454,3.73Z" style="fill:#6b6b6b;"/><path d="M32.472,115.689c-0.199,0.127 -0.526,0.171 -0.83,-0.004c-0.064,-0.039 -2.206,-1.264 -2.37,-1.369c-0.174,-0.111 -0.159,-0.208 -0.159,-0.208c0.003,0.067 -0.039,0.804 0.185,0.933l2.356,1.36c0.223,0.129 0.562,0.143 0.756,0.032l6.486,-3.745c0.193,-0.112 0.124,-0.753 0.129,-0.9c-0,0 -0.019,0.125 -0.1,0.172c-0.171,0.1 -6.453,3.729 -6.453,3.729Z" style="fill:#6b6b6b;fill-opacity:0.5;"/><path d="M41.438,110.505c-0.199,0.127 -0.526,0.171 -0.831,-0.004c-0.064,-0.039 -2.206,-1.264 -2.369,-1.368c-0.174,-0.112 -0.16,-0.208 -0.16,-0.208c0.004,0.066 -0.038,0.803 0.186,0.932l2.356,1.361c0.223,0.129 0.562,0.143 0.756,0.031l6.485,-3.745c0.194,-0.111 0.125,-0.753 0.13,-0.899c-0,-0 -0.019,0.125 -0.1,0.171c-0.172,0.1 -6.453,3.729 -6.453,3.729Z" style="fill:#6b6b6b;"/><path d="M50.403,105.322c-0.199,0.126 -0.526,0.171 -0.83,-0.005c-0.064,-0.038 -2.206,-1.263 -2.369,-1.368c-0.174,-0.112 -0.16,-0.208 -0.16,-0.208c0.003,0.066 -0.038,0.804 0.186,0.933l2.356,1.36c0.223,0.129 0.562,0.143 0.755,0.031l6.486,-3.744c0.194,-0.112 0.125,-0.753 0.129,-0.9c0,-0 -0.019,0.125 -0.099,0.172c-0.172,0.099 -6.454,3.729 -6.454,3.729Z" style="fill:#6b6b6b;"/><path d="M59.369,100.138c-0.199,0.127 -0.526,0.171 -0.83,-0.004c-0.064,-0.039 -2.206,-1.264 -2.369,-1.369c-0.174,-0.111 -0.16,-0.207 -0.16,-0.207c0.003,0.066 -0.038,0.803 0.185,0.932l2.356,1.36c0.224,0.129 0.563,0.143 0.756,0.032l6.486,-3.745c0.194,-0.112 0.125,-0.753 0.129,-0.9c0,0 -0.019,0.125 -0.099,0.172c-0.172,0.1 -6.454,3.729 -6.454,3.729Z" style="fill:#6b6b6b;"/><path d="M68.335,94.955c-0.199,0.126 -0.526,0.17 -0.83,-0.005c-0.064,-0.039 -2.206,-1.264 -2.369,-1.368c-0.174,-0.112 -0.16,-0.208 -0.16,-0.208c0.003,0.066 -0.038,0.803 0.185,0.933l2.356,1.36c0.224,0.129 0.562,0.143 0.756,0.031l6.486,-3.745c0.193,-0.111 0.125,-0.752 0.129,-0.899c-0,-0 -0.019,0.125 -0.099,0.171c-0.172,0.1 -6.454,3.73 -6.454,3.73Z" style="fill:#6b6b6b;"/><path d="M77.301,89.771c-0.199,0.127 -0.526,0.171 -0.83,-0.005c-0.064,-0.038 -2.206,-1.263 -2.37,-1.368c-0.173,-0.112 -0.159,-0.208 -0.159,-0.208c0.003,0.067 -0.039,0.804 0.185,0.933l2.356,1.36c0.223,0.129 0.562,0.143 0.756,0.031l6.486,-3.744c0.193,-0.112 0.125,-0.753 0.129,-0.9c-0,0 -0.019,0.125 -0.1,0.172c-0.171,0.1 -6.453,3.729 -6.453,3.729Z" style="fill:#6b6b6b;"/><path d="M86.267,84.587c-0.199,0.127 -0.526,0.171 -0.831,-0.004c-0.064,-0.039 -2.206,-1.264 -2.369,-1.368c-0.174,-0.112 -0.16,-0.208 -0.16,-0.208c0.004,0.066 -0.038,0.803 0.186,0.932l2.356,1.361c0.223,0.129 0.562,0.143 0.756,0.031l6.485,-3.745c0.194,-0.112 0.125,-0.753 0.13,-0.9c-0,0 -0.019,0.126 -0.1,0.172c-0.171,0.1 -6.453,3.729 -6.453,3.729Z" style="fill:#6b6b6b;"/><path d="M95.232,79.404c-0.199,0.126 -0.526,0.171 -0.83,-0.005c-0.064,-0.038 -2.206,-1.263 -2.369,-1.368c-0.174,-0.112 -0.16,-0.208 -0.16,-0.208c0.003,0.066 -0.038,0.804 0.186,0.933l2.356,1.36c0.223,0.129 0.562,0.143 0.755,0.031l6.486,-3.744c0.194,-0.112 0.125,-0.753 0.129,-0.9c0,-0 -0.019,0.125 -0.099,0.172c-0.172,0.099 -6.454,3.729 -6.454,3.729Z" style="fill:#6b6b6b;"/><path d="M104.198,74.22c-0.199,0.127 -0.526,0.171 -0.83,-0.004c-0.064,-0.039 -2.206,-1.264 -2.369,-1.369c-0.174,-0.111 -0.16,-0.207 -0.16,-0.207c0.003,0.066 -0.038,0.803 0.185,0.932l2.356,1.36c0.224,0.129 0.563,0.143 0.756,0.032l6.486,-3.745c0.194,-0.112 0.125,-0.753 0.129,-0.9c0,0 -0.019,0.125 -0.099,0.172c-0.172,0.1 -6.454,3.729 -6.454,3.729Z" style="fill:#6b6b6b;"/><path d="M113.164,69.037c-0.199,0.126 -0.526,0.17 -0.83,-0.005c-0.064,-0.039 -2.206,-1.264 -2.369,-1.368c-0.174,-0.112 -0.16,-0.208 -0.16,-0.208c0.003,0.066 -0.038,0.803 0.185,0.932l2.356,1.361c0.224,0.129 0.562,0.143 0.756,0.031l6.486,-3.745c0.193,-0.111 0.125,-0.752 0.129,-0.899c-0,-0 -0.019,0.125 -0.099,0.171c-0.172,0.1 -6.454,3.73 -6.454,3.73Z" style="fill:#6b6b6b;"/><path d="M122.13,63.853c-0.199,0.126 -0.526,0.171 -0.83,-0.005c-0.064,-0.038 -2.206,-1.263 -2.37,-1.368c-0.173,-0.112 -0.159,-0.208 -0.159,-0.208c0.003,0.066 -0.039,0.804 0.185,0.933l2.356,1.36c0.224,0.129 0.562,0.143 0.756,0.031l6.486,-3.744c0.193,-0.112 0.125,-0.753 0.129,-0.9c-0,0 -0.019,0.125 -0.099,0.172c-0.172,0.099 -6.454,3.729 -6.454,3.729Z" style="fill:#6b6b6b;"/><path d="M131.096,58.669c-0.199,0.127 -0.526,0.171 -0.831,-0.004c-0.063,-0.039 -2.206,-1.264 -2.369,-1.369c-0.174,-0.111 -0.16,-0.207 -0.16,-0.207c0.004,0.066 -0.038,0.803 0.186,0.932l2.356,1.36c0.223,0.13 0.562,0.144 0.756,0.032l6.485,-3.745c0.194,-0.112 0.125,-0.753 0.13,-0.9c-0,0 -0.019,0.125 -0.1,0.172c-0.171,0.1 -6.453,3.729 -6.453,3.729Z" style="fill:#6b6b6b;"/><path d="M113.404,120.879c-0.275,0.17 -0.57,0.158 -0.879,0.026l-6.448,-3.721c-0.077,-0.07 -0.094,-0.124 -0.095,-0.175c0.007,0.151 -0.047,0.801 0.177,0.93l6.38,3.683c0.224,0.13 0.562,0.144 0.756,0.032l24.435,-14.108c0.194,-0.112 0.142,-0.734 0.128,-0.902c0.007,0.051 -0.021,0.11 -0.138,0.189l-24.316,14.046Z" style="fill:#6b6b6b;"/><path d="M167.238,89.801c-0.275,0.169 -0.58,0.155 -0.908,0.007l-6.296,-3.635c-0.192,-0.127 -0.228,-0.205 -0.221,-0.27c0,-0 -0.043,0.825 0.18,0.954l6.381,3.684c0.223,0.129 0.562,0.143 0.756,0.031l15.471,-8.932c0.193,-0.112 0.137,-0.902 0.137,-0.902c0.005,0.06 -0.055,0.134 -0.204,0.225l-15.296,8.838Z" style="fill:#6b6b6b;"/><path d="M41.69,131.227c-0.304,0.179 -0.601,0.164 -0.885,0.017c0,-0 -5.322,-3.075 -6.443,-3.727c-0.082,-0.047 -0.092,-0.196 -0.092,-0.196c-0.007,0.125 -0.041,0.831 0.183,0.96l6.38,3.684c0.224,0.129 0.562,0.143 0.756,0.031l10.84,-6.258c0.194,-0.112 0.128,-0.651 0.136,-0.887c-0,0 -0.008,0.102 -0.184,0.203c-1.824,1.052 -10.691,6.173 -10.691,6.173Z" style="fill:#6b6b6b;"/><path d="M164.371,71.305c0.125,-0.072 0.202,-0.206 0.202,-0.351c0,-0.144 -0.001,-0.756 -0.001,-0.756c0.024,0.157 -0.045,0.282 -0.176,0.384l-6.323,3.652c-0.195,0.133 -0.388,0.116 -0.58,-0.012l-8.186,-4.716c-0.232,-0.216 -0.487,-0.252 -0.774,-0.02l-3.912,2.266c-0.149,0.092 -0.321,0.093 -0.521,-0.013l-6.274,-3.62c-0.329,-0.266 -0.297,-0.508 -0.016,-0.733c-0,0 -0.246,0.172 -0.222,0.399c0.015,0.144 -0.032,0.89 0.2,1.017c1.541,0.844 5.444,3.143 6.38,3.683c0.125,0.073 0.28,0.073 0.405,0c0.753,-0.434 3.386,-1.954 4.139,-2.389c0.125,-0.072 0.279,-0.072 0.405,-0c1.192,0.688 7.28,4.203 8.472,4.891c0.125,0.072 0.279,0.072 0.405,0c0.935,-0.54 4.855,-2.803 6.377,-3.682Z" style="fill:#6b6b6b;"/><path d="M54.949,123.579c-0.355,0.19 -0.636,0.061 -0.813,-0.027c0,-0 -6.241,-3.604 -6.382,-3.688c-0.166,-0.098 -0.168,-0.248 -0.168,-0.248c0.001,0.102 -0.036,0.842 0.188,0.971l6.38,3.684c0.224,0.129 0.562,0.143 0.756,0.032l6.486,-3.745c0.193,-0.112 0.166,-0.657 0.126,-0.955c0,0 0.029,0.148 -0.087,0.217c-1.088,0.639 -6.486,3.759 -6.486,3.759Z" style="fill:#6b6b6b;"/><path d="M63.918,118.394c-0.355,0.19 -0.637,0.061 -0.813,-0.027c-0,-0 -6.242,-3.604 -6.383,-3.688c-0.166,-0.098 -0.168,-0.248 -0.168,-0.248c0.001,0.102 -0.036,0.842 0.188,0.971l6.38,3.684c0.224,0.129 0.563,0.143 0.756,0.032l6.486,-3.745c0.194,-0.112 0.166,-0.657 0.127,-0.955c-0,0 0.029,0.148 -0.088,0.217c-1.088,0.639 -6.485,3.759 -6.485,3.759Z" style="fill:#6b6b6b;"/><path d="M72.886,113.209c-0.355,0.19 -0.637,0.061 -0.813,-0.027c-0,-0 -6.242,-3.604 -6.383,-3.688c-0.166,-0.098 -0.168,-0.248 -0.168,-0.248c0.002,0.102 -0.035,0.842 0.188,0.971l6.381,3.684c0.223,0.129 0.562,0.143 0.755,0.032l6.486,-3.745c0.194,-0.112 0.166,-0.658 0.127,-0.955c-0,0 0.029,0.148 -0.088,0.217c-1.088,0.639 -6.485,3.759 -6.485,3.759Z" style="fill:#6b6b6b;"/><path d="M81.854,108.024c-0.355,0.19 -0.636,0.061 -0.813,-0.027c-0,-0 -6.242,-3.604 -6.382,-3.688c-0.167,-0.098 -0.168,-0.248 -0.168,-0.248c0.001,0.102 -0.036,0.842 0.187,0.971l6.381,3.684c0.223,0.129 0.562,0.143 0.756,0.031l6.485,-3.744c0.194,-0.112 0.167,-0.658 0.127,-0.955c0,0 0.029,0.148 -0.087,0.217c-1.088,0.639 -6.486,3.759 -6.486,3.759Z" style="fill:#6b6b6b;"/><path d="M90.822,102.839c-0.355,0.19 -0.636,0.061 -0.813,-0.027c0,-0 -6.241,-3.604 -6.382,-3.688c-0.166,-0.098 -0.168,-0.248 -0.168,-0.248c0.001,0.102 -0.036,0.842 0.188,0.971l6.38,3.684c0.224,0.129 0.562,0.143 0.756,0.031l6.486,-3.744c0.193,-0.112 0.166,-0.658 0.126,-0.955c0,0 0.029,0.148 -0.087,0.217c-1.088,0.639 -6.486,3.759 -6.486,3.759Z" style="fill:#6b6b6b;"/><path d="M99.791,97.654c-0.356,0.19 -0.637,0.061 -0.814,-0.027c0,-0 -6.241,-3.604 -6.382,-3.688c-0.166,-0.098 -0.168,-0.248 -0.168,-0.248c0.001,0.102 -0.036,0.842 0.188,0.971l6.38,3.684c0.224,0.129 0.563,0.143 0.756,0.031l6.486,-3.744c0.194,-0.112 0.166,-0.658 0.126,-0.955c0,0 0.03,0.148 -0.087,0.217c-1.088,0.639 -6.485,3.759 -6.485,3.759Z" style="fill:#6b6b6b;"/><path d="M108.759,92.469c-0.355,0.19 -0.637,0.061 -0.813,-0.027c-0,-0 -6.242,-3.604 -6.383,-3.688c-0.166,-0.098 -0.168,-0.248 -0.168,-0.248c0.002,0.102 -0.035,0.842 0.188,0.971l6.381,3.684c0.223,0.129 0.562,0.143 0.755,0.031l6.486,-3.744c0.194,-0.112 0.166,-0.658 0.127,-0.955c-0,0 0.029,0.148 -0.088,0.217c-1.088,0.639 -6.485,3.759 -6.485,3.759Z" style="fill:#6b6b6b;"/><path d="M117.727,87.284c-0.355,0.19 -0.636,0.061 -0.813,-0.027c-0,-0 -6.242,-3.604 -6.382,-3.688c-0.167,-0.098 -0.168,-0.248 -0.168,-0.248c0.001,0.102 -0.036,0.842 0.187,0.971l6.381,3.684c0.223,0.129 0.562,0.143 0.756,0.031l6.485,-3.744c0.194,-0.112 0.166,-0.658 0.127,-0.955c-0,0 0.029,0.148 -0.087,0.216c-1.089,0.64 -6.486,3.76 -6.486,3.76Z" style="fill:#6b6b6b;"/><path d="M126.695,82.099c-0.355,0.19 -0.636,0.061 -0.813,-0.027c0,-0 -6.241,-3.604 -6.382,-3.688c-0.167,-0.099 -0.168,-0.248 -0.168,-0.248c0.001,0.102 -0.036,0.842 0.188,0.971l6.38,3.684c0.224,0.129 0.562,0.143 0.756,0.031l6.486,-3.744c0.193,-0.112 0.166,-0.658 0.126,-0.955c0,0 0.029,0.148 -0.087,0.216c-1.088,0.64 -6.486,3.76 -6.486,3.76Z" style="fill:#6b6b6b;"/><path d="M135.664,76.913c-0.356,0.191 -0.637,0.062 -0.814,-0.026c0,-0 -6.241,-3.604 -6.382,-3.688c-0.166,-0.099 -0.168,-0.248 -0.168,-0.248c0.001,0.102 -0.036,0.842 0.188,0.971l6.38,3.684c0.224,0.129 0.562,0.143 0.756,0.031l6.486,-3.744c0.193,-0.112 0.166,-0.658 0.126,-0.955c0,-0 0.029,0.148 -0.087,0.216c-1.088,0.64 -6.485,3.759 -6.485,3.759Z" style="fill:#6b6b6b;"/><path d="M50.419,136.448c-0.355,0.191 -0.637,0.062 -0.813,-0.027c-0,0 -6.242,-3.604 -6.382,-3.687c-0.167,-0.099 -0.169,-0.248 -0.169,-0.248c0.002,0.101 -0.035,0.842 0.188,0.971l6.381,3.683c0.223,0.129 0.562,0.143 0.755,0.032l6.486,-3.745c0.194,-0.112 0.166,-0.657 0.127,-0.955c-0,0 0.029,0.148 -0.088,0.217c-1.088,0.639 -6.485,3.759 -6.485,3.759Z" style="fill:#6b6b6b;"/><path d="M59.401,131.263c-0.355,0.19 -0.636,0.061 -0.813,-0.027c-0,-0 -6.242,-3.604 -6.382,-3.688c-0.167,-0.098 -0.168,-0.248 -0.168,-0.248c0.001,0.102 -0.036,0.842 0.187,0.971l6.381,3.684c0.223,0.129 0.562,0.143 0.756,0.031l6.485,-3.744c0.194,-0.112 0.167,-0.658 0.127,-0.955c-0,0 0.029,0.148 -0.087,0.216c-1.089,0.64 -6.486,3.76 -6.486,3.76Z" style="fill:#6b6b6b;"/><path d="M68.383,126.077c-0.355,0.191 -0.636,0.062 -0.813,-0.027c0,0 -6.241,-3.604 -6.382,-3.687c-0.167,-0.099 -0.168,-0.248 -0.168,-0.248c0.001,0.102 -0.036,0.842 0.187,0.971l6.381,3.684c0.223,0.129 0.562,0.143 0.756,0.031l6.486,-3.745c0.193,-0.111 0.166,-0.657 0.126,-0.954c0,-0 0.029,0.148 -0.087,0.216c-1.088,0.64 -6.486,3.759 -6.486,3.759Z" style="fill:#6b6b6b;"/><path d="M77.365,120.892c-0.355,0.191 -0.636,0.061 -0.813,-0.027c0,0 -6.241,-3.604 -6.382,-3.687c-0.167,-0.099 -0.168,-0.248 -0.168,-0.248c0.001,0.101 -0.036,0.842 0.188,0.971l6.38,3.683c0.224,0.129 0.562,0.143 0.756,0.032l6.486,-3.745c0.193,-0.112 0.166,-0.657 0.126,-0.955c0,0 0.029,0.148 -0.087,0.217c-1.088,0.639 -6.486,3.759 -6.486,3.759Z" style="fill:#6b6b6b;"/><path d="M86.347,115.707c-0.355,0.19 -0.636,0.061 -0.813,-0.027c0,-0 -6.241,-3.604 -6.382,-3.688c-0.166,-0.099 -0.168,-0.248 -0.168,-0.248c0.001,0.102 -0.036,0.842 0.188,0.971l6.38,3.684c0.224,0.129 0.562,0.143 0.756,0.031l6.486,-3.744c0.193,-0.112 0.166,-0.658 0.126,-0.955c0,0 0.029,0.148 -0.087,0.216c-1.088,0.64 -6.486,3.76 -6.486,3.76Z" style="fill:#6b6b6b;"/><path d="M95.33,110.521c-0.356,0.191 -0.637,0.062 -0.814,-0.027c0,0 -6.241,-3.604 -6.382,-3.687c-0.166,-0.099 -0.168,-0.248 -0.168,-0.248c0.001,0.102 -0.036,0.842 0.188,0.971l6.38,3.684c0.224,0.129 0.562,0.143 0.756,0.031l6.486,-3.745c0.194,-0.111 0.166,-0.657 0.126,-0.954c0,-0 0.03,0.148 -0.087,0.216c-1.088,0.64 -6.485,3.759 -6.485,3.759Z" style="fill:#6b6b6b;"/><path d="M104.312,105.336c-0.355,0.191 -0.637,0.061 -0.813,-0.027c-0,0 -6.242,-3.604 -6.383,-3.688c-0.166,-0.098 -0.168,-0.247 -0.168,-0.247c0.001,0.101 -0.036,0.841 0.188,0.971l6.38,3.683c0.224,0.129 0.563,0.143 0.756,0.032l6.486,-3.745c0.194,-0.112 0.166,-0.657 0.127,-0.955c-0,0 0.029,0.148 -0.088,0.217c-1.088,0.639 -6.485,3.759 -6.485,3.759Z" style="fill:#6b6b6b;"/><path d="M113.294,100.15c-0.355,0.191 -0.637,0.062 -0.813,-0.026c-0,-0 -6.242,-3.604 -6.383,-3.688c-0.166,-0.099 -0.168,-0.248 -0.168,-0.248c0.002,0.102 -0.035,0.842 0.188,0.971l6.381,3.684c0.223,0.129 0.562,0.143 0.755,0.031l6.486,-3.744c0.194,-0.112 0.166,-0.658 0.127,-0.955c-0,-0 0.029,0.148 -0.088,0.216c-1.088,0.64 -6.485,3.759 -6.485,3.759Z" style="fill:#6b6b6b;"/><path d="M122.276,94.965c-0.355,0.191 -0.637,0.062 -0.813,-0.027c-0,0 -6.242,-3.604 -6.383,-3.687c-0.166,-0.099 -0.168,-0.248 -0.168,-0.248c0.002,0.102 -0.035,0.842 0.188,0.971l6.381,3.684c0.223,0.129 0.562,0.143 0.755,0.031l6.486,-3.745c0.194,-0.111 0.166,-0.657 0.127,-0.954c-0,-0 0.029,0.148 -0.088,0.216c-1.088,0.64 -6.485,3.759 -6.485,3.759Z" style="fill:#6b6b6b;"/><path d="M131.258,89.78c-0.355,0.19 -0.636,0.061 -0.813,-0.027c-0,-0 -6.242,-3.604 -6.382,-3.688c-0.167,-0.098 -0.168,-0.248 -0.168,-0.248c0.001,0.102 -0.036,0.842 0.187,0.971l6.381,3.684c0.223,0.129 0.562,0.143 0.756,0.032l6.485,-3.745c0.194,-0.112 0.166,-0.657 0.127,-0.955c-0,0 0.029,0.148 -0.087,0.217c-1.089,0.639 -6.486,3.759 -6.486,3.759Z" style="fill:#6b6b6b;"/><path d="M140.24,84.594c-0.355,0.191 -0.636,0.062 -0.813,-0.026c0,-0 -6.241,-3.604 -6.382,-3.688c-0.167,-0.099 -0.168,-0.248 -0.168,-0.248c0.001,0.102 -0.036,0.842 0.187,0.971l6.381,3.684c0.223,0.129 0.562,0.143 0.756,0.031l6.486,-3.744c0.193,-0.112 0.166,-0.658 0.126,-0.955c0,-0 0.029,0.148 -0.087,0.216c-1.088,0.64 -6.486,3.759 -6.486,3.759Z" style="fill:#6b6b6b;"/><path d="M149.222,79.409c-0.355,0.191 -0.636,0.062 -0.813,-0.027c0,0 -6.241,-3.604 -6.382,-3.687c-0.167,-0.099 -0.168,-0.248 -0.168,-0.248c0.001,0.102 -0.036,0.842 0.188,0.971l6.38,3.684c0.224,0.129 0.562,0.143 0.756,0.031l6.486,-3.745c0.193,-0.112 0.166,-0.657 0.126,-0.954c0,-0 0.029,0.148 -0.087,0.216c-1.088,0.64 -6.486,3.759 -6.486,3.759Z" style="fill:#6b6b6b;"/><path d="M72.876,133.908c-0.356,0.191 -0.637,0.062 -0.814,-0.027c0,0 -6.241,-3.604 -6.382,-3.687c-0.166,-0.099 -0.168,-0.248 -0.168,-0.248c0.001,0.102 -0.036,0.842 0.188,0.971l6.38,3.684c0.224,0.129 0.562,0.143 0.756,0.031l6.486,-3.745c0.193,-0.111 0.166,-0.657 0.126,-0.954c0,-0 0.029,0.148 -0.087,0.216c-1.088,0.64 -6.485,3.759 -6.485,3.759Z" style="fill:#6b6b6b;"/><path d="M81.842,128.721c-0.356,0.19 -0.637,0.061 -0.814,-0.027c0,-0 -6.241,-3.604 -6.382,-3.688c-0.166,-0.098 -0.168,-0.248 -0.168,-0.248c0.001,0.102 -0.036,0.842 0.188,0.971l6.38,3.684c0.224,0.129 0.563,0.143 0.756,0.031l6.486,-3.744c0.194,-0.112 0.166,-0.658 0.126,-0.955c0,0 0.03,0.148 -0.087,0.216c-1.088,0.64 -6.485,3.76 -6.485,3.76Z" style="fill:#6b6b6b;"/><path d="M90.808,123.533c-0.355,0.191 -0.637,0.062 -0.813,-0.027c-0,0 -6.242,-3.604 -6.383,-3.687c-0.166,-0.099 -0.168,-0.248 -0.168,-0.248c0.001,0.101 -0.036,0.842 0.188,0.971l6.38,3.683c0.224,0.129 0.563,0.143 0.756,0.032l6.486,-3.745c0.194,-0.112 0.166,-0.657 0.127,-0.955c-0,0 0.029,0.148 -0.088,0.217c-1.088,0.639 -6.485,3.759 -6.485,3.759Z" style="fill:#6b6b6b;"/><path d="M99.774,118.345c-0.355,0.191 -0.637,0.062 -0.813,-0.027c-0,0 -6.242,-3.604 -6.383,-3.687c-0.166,-0.099 -0.168,-0.248 -0.168,-0.248c0.001,0.102 -0.036,0.842 0.188,0.971l6.38,3.684c0.224,0.129 0.563,0.143 0.756,0.031l6.486,-3.745c0.194,-0.111 0.166,-0.657 0.127,-0.954c-0,-0 0.029,0.148 -0.088,0.216c-1.088,0.64 -6.485,3.759 -6.485,3.759Z" style="fill:#6b6b6b;"/><path d="M108.74,113.157c-0.355,0.191 -0.637,0.062 -0.813,-0.026c-0,-0 -6.242,-3.604 -6.383,-3.688c-0.166,-0.099 -0.168,-0.248 -0.168,-0.248c0.001,0.102 -0.036,0.842 0.188,0.971l6.38,3.684c0.224,0.129 0.563,0.143 0.756,0.031l6.486,-3.744c0.194,-0.112 0.166,-0.658 0.127,-0.955c-0,-0 0.029,0.148 -0.088,0.216c-1.088,0.64 -6.485,3.759 -6.485,3.759Z" style="fill:#6b6b6b;"/><path d="M117.706,107.97c-0.355,0.191 -0.637,0.061 -0.813,-0.027c-0,-0 -6.242,-3.604 -6.383,-3.688c-0.166,-0.098 -0.168,-0.247 -0.168,-0.247c0.002,0.101 -0.035,0.841 0.188,0.97l6.381,3.684c0.223,0.129 0.562,0.143 0.755,0.032l6.486,-3.745c0.194,-0.112 0.166,-0.657 0.127,-0.955c-0,0 0.029,0.148 -0.088,0.217c-1.088,0.639 -6.485,3.759 -6.485,3.759Z" style="fill:#6b6b6b;"/><path d="M126.672,102.782c-0.355,0.191 -0.637,0.062 -0.813,-0.027c-0,0 -6.242,-3.604 -6.383,-3.687c-0.166,-0.099 -0.168,-0.248 -0.168,-0.248c0.002,0.102 -0.035,0.842 0.188,0.971l6.381,3.684c0.223,0.129 0.562,0.143 0.755,0.031l6.486,-3.745c0.194,-0.111 0.166,-0.657 0.127,-0.954c-0,-0 0.029,0.148 -0.088,0.216c-1.088,0.64 -6.485,3.759 -6.485,3.759Z" style="fill:#6b6b6b;"/><path d="M135.638,97.594c-0.355,0.191 -0.637,0.062 -0.813,-0.026c-0,-0 -6.242,-3.605 -6.383,-3.688c-0.166,-0.099 -0.168,-0.248 -0.168,-0.248c0.002,0.102 -0.035,0.842 0.188,0.971l6.381,3.684c0.223,0.129 0.562,0.143 0.755,0.031l6.486,-3.744c0.194,-0.112 0.166,-0.658 0.127,-0.955c-0,-0 0.029,0.148 -0.088,0.216c-1.088,0.64 -6.485,3.759 -6.485,3.759Z" style="fill:#6b6b6b;"/><path d="M144.604,92.407c-0.355,0.19 -0.636,0.061 -0.813,-0.027c-0,-0 -6.242,-3.604 -6.382,-3.688c-0.167,-0.098 -0.169,-0.248 -0.169,-0.248c0.002,0.102 -0.035,0.842 0.188,0.971l6.381,3.684c0.223,0.129 0.562,0.143 0.756,0.031l6.485,-3.744c0.194,-0.112 0.166,-0.658 0.127,-0.955c-0,0 0.029,0.148 -0.088,0.217c-1.088,0.639 -6.485,3.759 -6.485,3.759Z" style="fill:#6b6b6b;"/><path d="M153.57,87.219c-0.355,0.191 -0.636,0.062 -0.813,-0.027c-0,0 -6.242,-3.604 -6.382,-3.687c-0.167,-0.099 -0.168,-0.248 -0.168,-0.248c0.001,0.102 -0.036,0.842 0.187,0.971l6.381,3.683c0.223,0.13 0.562,0.144 0.756,0.032l6.485,-3.745c0.194,-0.112 0.166,-0.657 0.127,-0.954c-0,-0 0.029,0.147 -0.088,0.216c-1.088,0.64 -6.485,3.759 -6.485,3.759Z" style="fill:#6b6b6b;"/><path d="M86.401,136.468c-0.355,0.191 -0.637,0.062 -0.813,-0.027c-0,0 -6.242,-3.604 -6.383,-3.687c-0.166,-0.099 -0.168,-0.248 -0.168,-0.248c0.001,0.102 -0.036,0.842 0.188,0.971l6.38,3.684c0.224,0.129 0.563,0.143 0.756,0.031l6.486,-3.745c0.194,-0.111 0.166,-0.657 0.127,-0.954c-0,-0 0.029,0.148 -0.088,0.216c-1.088,0.64 -6.485,3.759 -6.485,3.759Z" style="fill:#6b6b6b;"/><path d="M95.373,131.286c-0.355,0.191 -0.637,0.062 -0.813,-0.027c-0,0 -6.242,-3.604 -6.382,-3.687c-0.167,-0.099 -0.169,-0.248 -0.169,-0.248c0.002,0.101 -0.035,0.842 0.188,0.971l6.381,3.683c0.223,0.129 0.562,0.144 0.755,0.032l6.486,-3.745c0.194,-0.112 0.166,-0.657 0.127,-0.955c-0,0 0.029,0.148 -0.088,0.217c-1.088,0.639 -6.485,3.759 -6.485,3.759Z" style="fill:#6b6b6b;"/><path d="M104.345,126.104c-0.355,0.19 -0.636,0.061 -0.813,-0.027c0,-0 -6.242,-3.604 -6.382,-3.688c-0.167,-0.098 -0.168,-0.248 -0.168,-0.248c0.001,0.102 -0.036,0.842 0.187,0.971l6.381,3.684c0.223,0.129 0.562,0.143 0.756,0.032l6.486,-3.745c0.193,-0.112 0.166,-0.657 0.126,-0.955c0,0 0.029,0.148 -0.087,0.217c-1.088,0.639 -6.486,3.759 -6.486,3.759Z" style="fill:#6b6b6b;"/><path d="M140.234,105.375c-0.355,0.191 -0.637,0.062 -0.813,-0.027c-0,0 -6.242,-3.604 -6.383,-3.687c-0.166,-0.099 -0.168,-0.248 -0.168,-0.248c0.002,0.102 -0.035,0.842 0.188,0.971l6.381,3.684c0.223,0.129 0.562,0.143 0.755,0.031l6.486,-3.745c0.194,-0.112 0.166,-0.657 0.127,-0.954c-0,-0 0.029,0.147 -0.088,0.216c-1.088,0.64 -6.485,3.759 -6.485,3.759Z" style="fill:#6b6b6b;"/><path d="M149.206,100.193c-0.355,0.191 -0.636,0.062 -0.813,-0.027c-0,0 -6.242,-3.604 -6.382,-3.687c-0.167,-0.099 -0.168,-0.248 -0.168,-0.248c0.001,0.101 -0.036,0.842 0.187,0.971l6.381,3.683c0.223,0.129 0.562,0.143 0.756,0.032l6.485,-3.745c0.194,-0.112 0.167,-0.657 0.127,-0.955c-0,0 0.029,0.148 -0.087,0.217c-1.088,0.639 -6.486,3.759 -6.486,3.759Z" style="fill:#6b6b6b;"/><path d="M158.178,95.011c-0.355,0.19 -0.636,0.061 -0.813,-0.027c0,-0 -6.241,-3.604 -6.382,-3.688c-0.167,-0.098 -0.168,-0.248 -0.168,-0.248c0.001,0.102 -0.036,0.842 0.188,0.971l6.38,3.684c0.224,0.129 0.562,0.143 0.756,0.031l6.486,-3.744c0.193,-0.112 0.166,-0.658 0.126,-0.955c0,0 0.029,0.148 -0.087,0.217c-1.088,0.639 -6.486,3.759 -6.486,3.759Z" style="fill:#6b6b6b;"/><path d="M68.519,146.796c-0.274,0.169 -0.58,0.155 -0.908,0.006l-6.295,-3.634c-0.192,-0.127 -0.228,-0.205 -0.221,-0.27c-0,-0 -0.044,0.825 0.18,0.954l6.38,3.684c0.224,0.129 0.563,0.143 0.756,0.031l15.471,-8.932c0.194,-0.112 0.137,-0.902 0.137,-0.902c0.005,0.06 -0.054,0.134 -0.204,0.225l-15.296,8.838Z" style="fill:#6b6b6b;"/><path d="M59.585,141.56c-0.305,0.179 -0.601,0.165 -0.885,0.017c-0,0 -5.322,-3.075 -6.443,-3.726c-0.082,-0.048 -0.092,-0.196 -0.092,-0.196c-0.007,0.125 -0.041,0.83 0.182,0.96l6.381,3.683c0.223,0.129 0.562,0.143 0.756,0.032l10.84,-6.259c0.194,-0.112 0.127,-0.65 0.135,-0.886c0,-0 -0.008,0.101 -0.184,0.203c-1.824,1.052 -10.69,6.172 -10.69,6.172Z" style="fill:#6b6b6b;"/><path d="M162.716,82.039c-0.312,0.183 -0.611,0.17 -0.895,0.023c-0,0 -5.322,-3.075 -6.443,-3.726c-0.082,-0.048 -0.09,-0.198 -0.09,-0.198c-0.009,0.126 -0.058,0.841 0.166,0.97l6.38,3.684c0.224,0.129 0.566,0.14 0.764,0.026l11.095,-6.405c0.198,-0.115 0.142,-0.659 0.155,-0.898c-0,0 -0.01,0.103 -0.191,0.207c-1.867,1.077 -10.941,6.317 -10.941,6.317Z" style="fill:#6b6b6b;"/></g><path d="M32.472,115.689c-0.199,0.127 -0.526,0.171 -0.83,-0.004c-0.064,-0.039 -2.206,-1.264 -2.37,-1.369c-0.174,-0.111 -0.159,-0.208 -0.159,-0.208c0.003,0.067 -0.039,0.804 0.185,0.933l2.356,1.36c0.223,0.129 0.562,0.143 0.756,0.032l6.486,-3.745c0.193,-0.112 0.124,-0.753 0.129,-0.9c-0,0 -0.019,0.125 -0.1,0.172c-0.171,0.1 -6.453,3.729 -6.453,3.729Z" style="fill:#0f0f0f;"/><path d="M32.512,118.249c-0.223,-0.129 -0.562,-0.143 -0.756,-0.031l-6.486,3.744c-0.193,0.112 -0.169,0.307 0.055,0.437l6.38,3.683c0.224,0.129 0.562,0.143 0.756,0.032l6.486,-3.745c0.193,-0.112 0.169,-0.307 -0.054,-0.436l-6.381,-3.684Z" style="fill:#0f0f0f;"/><path d="M54.961,115.729c-0.223,-0.129 -0.562,-0.143 -0.756,-0.031l-6.486,3.745c-0.193,0.111 -0.169,0.307 0.055,0.436l6.38,3.684c0.224,0.129 0.562,0.143 0.756,0.031l6.486,-3.744c0.193,-0.112 0.169,-0.308 -0.054,-0.437l-6.381,-3.684Z" style="fill:#0f0f0f;"/><path d="M63.929,110.544c-0.223,-0.129 -0.562,-0.143 -0.756,-0.031l-6.485,3.745c-0.194,0.111 -0.17,0.307 0.054,0.436l6.38,3.684c0.224,0.129 0.563,0.143 0.756,0.031l6.486,-3.745c0.194,-0.111 0.169,-0.307 -0.054,-0.436l-6.381,-3.684Z" style="fill:#0f0f0f;"/><path d="M72.898,105.359c-0.224,-0.129 -0.563,-0.143 -0.756,-0.031l-6.486,3.745c-0.194,0.111 -0.169,0.307 0.054,0.436l6.381,3.684c0.223,0.129 0.562,0.143 0.755,0.031l6.486,-3.745c0.194,-0.111 0.17,-0.307 -0.054,-0.436l-6.38,-3.684Z" style="fill:#0f0f0f;"/><path d="M81.866,100.174c-0.224,-0.129 -0.562,-0.143 -0.756,-0.031l-6.486,3.745c-0.193,0.111 -0.169,0.307 0.054,0.436l6.381,3.684c0.223,0.129 0.562,0.143 0.756,0.031l6.485,-3.745c0.194,-0.111 0.17,-0.307 -0.054,-0.436l-6.38,-3.684Z" style="fill:#0f0f0f;"/><path d="M90.834,94.989c-0.224,-0.129 -0.562,-0.143 -0.756,-0.031l-6.486,3.745c-0.193,0.111 -0.169,0.307 0.055,0.436l6.38,3.684c0.224,0.129 0.562,0.143 0.756,0.031l6.486,-3.745c0.193,-0.111 0.169,-0.307 -0.055,-0.436l-6.38,-3.684Z" style="fill:#0f0f0f;"/><path d="M99.802,89.804c-0.223,-0.129 -0.562,-0.143 -0.756,-0.031l-6.485,3.744c-0.194,0.112 -0.17,0.308 0.054,0.437l6.38,3.684c0.224,0.129 0.563,0.143 0.756,0.031l6.486,-3.745c0.194,-0.111 0.169,-0.307 -0.054,-0.436l-6.381,-3.684Z" style="fill:#0f0f0f;"/><path d="M108.77,84.619c-0.223,-0.129 -0.562,-0.143 -0.755,-0.031l-6.486,3.744c-0.194,0.112 -0.169,0.308 0.054,0.437l6.381,3.684c0.223,0.129 0.562,0.143 0.755,0.031l6.486,-3.745c0.194,-0.111 0.169,-0.307 -0.054,-0.436l-6.381,-3.684Z" style="fill:#0f0f0f;"/><path d="M117.739,79.434c-0.224,-0.129 -0.563,-0.143 -0.756,-0.031l-6.486,3.744c-0.194,0.112 -0.169,0.308 0.054,0.437l6.381,3.684c0.223,0.129 0.562,0.143 0.756,0.031l6.485,-3.745c0.194,-0.111 0.17,-0.307 -0.054,-0.436l-6.38,-3.684Z" style="fill:#0f0f0f;"/><path d="M126.707,74.249c-0.224,-0.129 -0.562,-0.143 -0.756,-0.031l-6.486,3.744c-0.193,0.112 -0.169,0.308 0.055,0.437l6.38,3.684c0.224,0.129 0.562,0.143 0.756,0.031l6.486,-3.745c0.193,-0.112 0.169,-0.307 -0.055,-0.436l-6.38,-3.684Z" style="fill:#0f0f0f;"/><path d="M135.675,69.064c-0.223,-0.129 -0.562,-0.143 -0.756,-0.031l-6.485,3.744c-0.194,0.112 -0.17,0.308 0.054,0.437l6.38,3.683c0.224,0.13 0.562,0.144 0.756,0.032l6.486,-3.745c0.193,-0.112 0.169,-0.307 -0.054,-0.436l-6.381,-3.684Z" style="fill:#0f0f0f;"/><path d="M50.431,128.599c-0.224,-0.13 -0.563,-0.144 -0.756,-0.032l-6.486,3.745c-0.194,0.112 -0.169,0.307 0.054,0.436l6.381,3.684c0.223,0.129 0.562,0.143 0.755,0.031l6.486,-3.744c0.194,-0.112 0.17,-0.308 -0.054,-0.437l-6.38,-3.683Z" style="fill:#0f0f0f;"/><path d="M59.413,123.413c-0.224,-0.129 -0.563,-0.143 -0.756,-0.031l-6.486,3.744c-0.194,0.112 -0.169,0.308 0.054,0.437l6.381,3.684c0.223,0.129 0.562,0.143 0.756,0.031l6.485,-3.745c0.194,-0.111 0.17,-0.307 -0.054,-0.436l-6.38,-3.684Z" style="fill:#0f0f0f;"/><path d="M68.395,118.228c-0.224,-0.129 -0.562,-0.143 -0.756,-0.032l-6.486,3.745c-0.193,0.112 -0.169,0.307 0.054,0.436l6.381,3.684c0.223,0.129 0.562,0.143 0.756,0.032l6.486,-3.745c0.193,-0.112 0.169,-0.307 -0.055,-0.436l-6.38,-3.684Z" style="fill:#0f0f0f;"/><path d="M77.377,113.042c-0.224,-0.129 -0.562,-0.143 -0.756,-0.031l-6.486,3.745c-0.193,0.112 -0.169,0.307 0.055,0.436l6.38,3.684c0.224,0.129 0.562,0.143 0.756,0.031l6.486,-3.744c0.193,-0.112 0.169,-0.308 -0.055,-0.437l-6.38,-3.684Z" style="fill:#0f0f0f;"/><path d="M86.359,107.857c-0.223,-0.129 -0.562,-0.143 -0.756,-0.031l-6.486,3.744c-0.193,0.112 -0.169,0.308 0.055,0.437l6.38,3.684c0.224,0.129 0.562,0.143 0.756,0.031l6.486,-3.745c0.193,-0.112 0.169,-0.307 -0.054,-0.436l-6.381,-3.684Z" style="fill:#0f0f0f;"/><path d="M95.341,102.672c-0.223,-0.129 -0.562,-0.143 -0.756,-0.032l-6.485,3.745c-0.194,0.112 -0.17,0.307 0.054,0.436l6.38,3.684c0.224,0.129 0.562,0.143 0.756,0.031l6.486,-3.744c0.194,-0.112 0.169,-0.307 -0.054,-0.436l-6.381,-3.684Z" style="fill:#0f0f0f;"/><path d="M104.323,97.486c-0.223,-0.129 -0.562,-0.143 -0.755,-0.031l-6.486,3.745c-0.194,0.111 -0.17,0.307 0.054,0.436l6.38,3.684c0.224,0.129 0.563,0.143 0.756,0.031l6.486,-3.744c0.194,-0.112 0.169,-0.308 -0.054,-0.437l-6.381,-3.684Z" style="fill:#0f0f0f;"/><path d="M113.305,92.301c-0.223,-0.129 -0.562,-0.143 -0.755,-0.031l-6.486,3.744c-0.194,0.112 -0.169,0.308 0.054,0.437l6.381,3.683c0.223,0.13 0.562,0.144 0.755,0.032l6.486,-3.745c0.194,-0.112 0.169,-0.307 -0.054,-0.436l-6.381,-3.684Z" style="fill:#0f0f0f;"/><path d="M122.288,87.116c-0.224,-0.129 -0.563,-0.143 -0.756,-0.032l-6.486,3.745c-0.194,0.112 -0.169,0.307 0.054,0.436l6.381,3.684c0.223,0.129 0.562,0.143 0.755,0.031l6.486,-3.744c0.194,-0.112 0.17,-0.307 -0.054,-0.437l-6.38,-3.683Z" style="fill:#0f0f0f;"/><path d="M131.27,81.93c-0.224,-0.129 -0.563,-0.143 -0.756,-0.031l-6.486,3.745c-0.194,0.111 -0.169,0.307 0.054,0.436l6.381,3.684c0.223,0.129 0.562,0.143 0.756,0.031l6.485,-3.745c0.194,-0.111 0.17,-0.307 -0.054,-0.436l-6.38,-3.684Z" style="fill:#0f0f0f;"/><path d="M140.252,76.745c-0.224,-0.129 -0.562,-0.143 -0.756,-0.031l-6.486,3.744c-0.193,0.112 -0.169,0.308 0.054,0.437l6.381,3.683c0.223,0.129 0.562,0.144 0.756,0.032l6.486,-3.745c0.193,-0.112 0.169,-0.307 -0.055,-0.436l-6.38,-3.684Z" style="fill:#0f0f0f;"/><path d="M149.234,71.56c-0.224,-0.129 -0.562,-0.143 -0.756,-0.032l-6.486,3.745c-0.193,0.112 -0.169,0.307 0.055,0.436l6.38,3.684c0.224,0.129 0.562,0.143 0.756,0.031l6.486,-3.744c0.193,-0.112 0.169,-0.308 -0.055,-0.437l-6.38,-3.683Z" style="fill:#0f0f0f;"/><path d="M72.887,126.059c-0.223,-0.129 -0.562,-0.143 -0.756,-0.031l-6.485,3.744c-0.194,0.112 -0.17,0.307 0.054,0.437l6.38,3.683c0.224,0.129 0.562,0.143 0.756,0.032l6.486,-3.745c0.193,-0.112 0.169,-0.307 -0.054,-0.436l-6.381,-3.684Z" style="fill:#0f0f0f;"/><path d="M81.853,120.871c-0.223,-0.129 -0.562,-0.143 -0.756,-0.031l-6.485,3.744c-0.194,0.112 -0.17,0.308 0.054,0.437l6.38,3.684c0.224,0.129 0.563,0.143 0.756,0.031l6.486,-3.745c0.194,-0.111 0.169,-0.307 -0.054,-0.436l-6.381,-3.684Z" style="fill:#0f0f0f;"/><path d="M90.819,115.683c-0.223,-0.129 -0.562,-0.143 -0.756,-0.031l-6.485,3.745c-0.194,0.112 -0.17,0.307 0.054,0.436l6.38,3.684c0.224,0.129 0.563,0.143 0.756,0.031l6.486,-3.744c0.194,-0.112 0.169,-0.308 -0.054,-0.437l-6.381,-3.684Z" style="fill:#0f0f0f;"/><path d="M99.785,110.496c-0.223,-0.129 -0.562,-0.143 -0.755,-0.032l-6.486,3.745c-0.194,0.112 -0.17,0.307 0.054,0.436l6.38,3.684c0.224,0.129 0.563,0.143 0.756,0.032l6.486,-3.745c0.194,-0.112 0.169,-0.307 -0.054,-0.436l-6.381,-3.684Z" style="fill:#0f0f0f;"/><path d="M108.751,105.308c-0.223,-0.129 -0.562,-0.143 -0.755,-0.031l-6.486,3.744c-0.194,0.112 -0.17,0.308 0.054,0.437l6.38,3.683c0.224,0.13 0.563,0.144 0.756,0.032l6.486,-3.745c0.194,-0.112 0.169,-0.307 -0.054,-0.436l-6.381,-3.684Z" style="fill:#0f0f0f;"/><path d="M117.717,100.12c-0.223,-0.129 -0.562,-0.143 -0.755,-0.031l-6.486,3.745c-0.194,0.111 -0.169,0.307 0.054,0.436l6.381,3.684c0.223,0.129 0.562,0.143 0.755,0.031l6.486,-3.744c0.194,-0.112 0.169,-0.308 -0.054,-0.437l-6.381,-3.684Z" style="fill:#0f0f0f;"/><path d="M126.684,94.933c-0.224,-0.129 -0.563,-0.143 -0.756,-0.032l-6.486,3.745c-0.194,0.112 -0.169,0.307 0.054,0.436l6.381,3.684c0.223,0.129 0.562,0.143 0.755,0.031l6.486,-3.744c0.194,-0.112 0.17,-0.307 -0.054,-0.437l-6.38,-3.683Z" style="fill:#0f0f0f;"/><path d="M135.65,89.745c-0.224,-0.129 -0.563,-0.143 -0.756,-0.031l-6.486,3.744c-0.194,0.112 -0.169,0.308 0.054,0.437l6.381,3.683c0.223,0.129 0.562,0.144 0.755,0.032l6.486,-3.745c0.194,-0.112 0.17,-0.307 -0.054,-0.436l-6.38,-3.684Z" style="fill:#0f0f0f;"/><path d="M144.616,84.557c-0.224,-0.129 -0.563,-0.143 -0.756,-0.031l-6.486,3.745c-0.194,0.111 -0.169,0.307 0.054,0.436l6.381,3.684c0.223,0.129 0.562,0.143 0.756,0.031l6.485,-3.745c0.194,-0.111 0.17,-0.307 -0.054,-0.436l-6.38,-3.684Z" style="fill:#0f0f0f;"/><path d="M153.582,79.37c-0.224,-0.129 -0.563,-0.143 -0.756,-0.032l-6.486,3.745c-0.194,0.112 -0.169,0.307 0.054,0.436l6.381,3.684c0.223,0.129 0.562,0.143 0.756,0.031l6.485,-3.744c0.194,-0.112 0.17,-0.308 -0.054,-0.437l-6.38,-3.683Z" style="fill:#0f0f0f;"/><path d="M86.412,128.619c-0.223,-0.129 -0.562,-0.143 -0.755,-0.032l-6.486,3.745c-0.194,0.112 -0.17,0.307 0.054,0.436l6.38,3.684c0.224,0.129 0.563,0.143 0.756,0.031l6.486,-3.744c0.194,-0.112 0.169,-0.307 -0.054,-0.437l-6.381,-3.683Z" style="fill:#0f0f0f;"/><path d="M95.385,123.437c-0.224,-0.13 -0.563,-0.144 -0.756,-0.032l-6.486,3.745c-0.194,0.112 -0.169,0.307 0.054,0.436l6.381,3.684c0.223,0.129 0.562,0.143 0.755,0.031l6.486,-3.744c0.194,-0.112 0.17,-0.308 -0.054,-0.437l-6.38,-3.683Z" style="fill:#0f0f0f;"/><path d="M104.357,118.254c-0.224,-0.129 -0.562,-0.143 -0.756,-0.031l-6.486,3.745c-0.193,0.111 -0.169,0.307 0.054,0.436l6.381,3.684c0.223,0.129 0.562,0.143 0.756,0.031l6.486,-3.745c0.193,-0.111 0.169,-0.307 -0.055,-0.436l-6.38,-3.684Z" style="fill:#0f0f0f;"/><path d="M140.246,97.526c-0.224,-0.129 -0.563,-0.143 -0.756,-0.032l-6.486,3.745c-0.194,0.112 -0.169,0.307 0.054,0.436l6.381,3.684c0.223,0.129 0.562,0.143 0.755,0.031l6.486,-3.744c0.194,-0.112 0.17,-0.308 -0.054,-0.437l-6.38,-3.683Z" style="fill:#0f0f0f;"/><path d="M149.218,92.343c-0.224,-0.129 -0.562,-0.143 -0.756,-0.031l-6.486,3.745c-0.194,0.112 -0.169,0.307 0.054,0.436l6.381,3.684c0.223,0.129 0.562,0.143 0.756,0.031l6.485,-3.744c0.194,-0.112 0.17,-0.308 -0.054,-0.437l-6.38,-3.684Z" style="fill:#0f0f0f;"/><path d="M158.19,87.161c-0.224,-0.129 -0.562,-0.143 -0.756,-0.031l-6.486,3.745c-0.193,0.111 -0.169,0.307 0.055,0.436l6.38,3.684c0.224,0.129 0.562,0.143 0.756,0.031l6.486,-3.745c0.193,-0.111 0.169,-0.307 -0.055,-0.436l-6.38,-3.684Z" style="fill:#0f0f0f;"/><path d="M41.483,113.071c-0.223,-0.129 -0.562,-0.143 -0.756,-0.031l-6.486,3.745c-0.193,0.111 -0.169,0.307 0.055,0.436l6.38,3.684c0.224,0.129 0.562,0.143 0.756,0.031l6.486,-3.744c0.193,-0.112 0.169,-0.308 -0.054,-0.437l-6.381,-3.684Z" style="fill:#0f0f0f;"/><path d="M50.454,107.894c-0.223,-0.129 -0.562,-0.143 -0.756,-0.031l-6.485,3.744c-0.194,0.112 -0.17,0.307 0.054,0.437l6.38,3.683c0.224,0.129 0.562,0.143 0.756,0.032l6.486,-3.745c0.193,-0.112 0.169,-0.307 -0.054,-0.436l-6.381,-3.684Z" style="fill:#0f0f0f;"/><path d="M59.425,102.716c-0.223,-0.129 -0.562,-0.143 -0.756,-0.031l-6.485,3.745c-0.194,0.111 -0.17,0.307 0.054,0.436l6.38,3.684c0.224,0.129 0.563,0.143 0.756,0.031l6.486,-3.744c0.194,-0.112 0.169,-0.308 -0.054,-0.437l-6.381,-3.684Z" style="fill:#0f0f0f;"/><path d="M68.396,97.539c-0.223,-0.129 -0.562,-0.143 -0.756,-0.031l-6.485,3.744c-0.194,0.112 -0.17,0.307 0.054,0.437l6.38,3.683c0.224,0.129 0.563,0.143 0.756,0.032l6.486,-3.745c0.194,-0.112 0.169,-0.307 -0.054,-0.436l-6.381,-3.684Z" style="fill:#0f0f0f;"/><path d="M77.367,92.361c-0.223,-0.129 -0.562,-0.143 -0.756,-0.031l-6.485,3.745c-0.194,0.111 -0.17,0.307 0.054,0.436l6.38,3.684c0.224,0.129 0.563,0.143 0.756,0.031l6.486,-3.744c0.194,-0.112 0.169,-0.308 -0.054,-0.437l-6.381,-3.684Z" style="fill:#0f0f0f;"/><path d="M86.338,87.184c-0.223,-0.129 -0.562,-0.143 -0.755,-0.031l-6.486,3.744c-0.194,0.112 -0.17,0.307 0.054,0.437l6.38,3.683c0.224,0.129 0.563,0.143 0.756,0.032l6.486,-3.745c0.194,-0.112 0.169,-0.307 -0.054,-0.436l-6.381,-3.684Z" style="fill:#0f0f0f;"/><path d="M95.309,82.006c-0.223,-0.129 -0.562,-0.143 -0.755,-0.031l-6.486,3.745c-0.194,0.111 -0.17,0.307 0.054,0.436l6.38,3.684c0.224,0.129 0.563,0.143 0.756,0.031l6.486,-3.745c0.194,-0.111 0.169,-0.307 -0.054,-0.436l-6.381,-3.684Z" style="fill:#0f0f0f;"/><path d="M104.28,76.829c-0.223,-0.129 -0.562,-0.143 -0.755,-0.031l-6.486,3.744c-0.194,0.112 -0.169,0.307 0.054,0.437l6.381,3.683c0.223,0.129 0.562,0.143 0.755,0.032l6.486,-3.745c0.194,-0.112 0.169,-0.307 -0.054,-0.436l-6.381,-3.684Z" style="fill:#0f0f0f;"/><path d="M113.251,71.651c-0.223,-0.129 -0.562,-0.143 -0.755,-0.031l-6.486,3.745c-0.194,0.111 -0.169,0.307 0.054,0.436l6.381,3.684c0.223,0.129 0.562,0.143 0.755,0.031l6.486,-3.745c0.194,-0.111 0.169,-0.307 -0.054,-0.436l-6.381,-3.684Z" style="fill:#0f0f0f;"/><path d="M122.223,66.474c-0.224,-0.129 -0.563,-0.143 -0.756,-0.031l-6.486,3.744c-0.194,0.112 -0.169,0.307 0.054,0.436l6.381,3.684c0.223,0.129 0.562,0.143 0.755,0.032l6.486,-3.745c0.194,-0.112 0.17,-0.307 -0.054,-0.436l-6.38,-3.684Z" style="fill:#0f0f0f;"/><path d="M131.194,61.296c-0.224,-0.129 -0.563,-0.143 -0.756,-0.031l-6.486,3.745c-0.194,0.111 -0.169,0.307 0.054,0.436l6.381,3.684c0.223,0.129 0.562,0.143 0.755,0.031l6.486,-3.745c0.194,-0.111 0.17,-0.307 -0.054,-0.436l-6.38,-3.684Z" style="fill:#0f0f0f;"/><path d="M140.165,56.119c-0.224,-0.129 -0.563,-0.143 -0.756,-0.031l-6.486,3.744c-0.194,0.112 -0.169,0.307 0.054,0.436l6.381,3.684c0.223,0.129 0.562,0.143 0.756,0.032l6.485,-3.745c0.194,-0.112 0.17,-0.307 -0.054,-0.436l-6.38,-3.684Z" style="fill:#0f0f0f;"/><path d="M27.52,115.367c-0.224,-0.13 -0.563,-0.144 -0.756,-0.032l-6.486,3.745c-0.194,0.112 -0.169,0.307 0.054,0.436l2.356,1.36c0.224,0.129 0.562,0.143 0.756,0.032l6.486,-3.745c0.193,-0.112 0.169,-0.307 -0.055,-0.436l-2.355,-1.36Z" style="fill:#0f0f0f;"/><path d="M36.485,110.183c-0.223,-0.129 -0.562,-0.143 -0.755,-0.031l-6.486,3.744c-0.194,0.112 -0.17,0.307 0.054,0.437l2.356,1.36c0.223,0.129 0.562,0.143 0.756,0.031l6.486,-3.745c0.193,-0.111 0.169,-0.307 -0.055,-0.436l-2.356,-1.36Z" style="fill:#0f0f0f;"/><path d="M45.451,104.999c-0.223,-0.129 -0.562,-0.143 -0.756,-0.031l-6.486,3.745c-0.193,0.111 -0.169,0.307 0.055,0.436l2.356,1.36c0.223,0.129 0.562,0.143 0.756,0.031l6.485,-3.744c0.194,-0.112 0.17,-0.307 -0.054,-0.437l-2.356,-1.36Z" style="fill:#0f0f0f;"/><path d="M54.417,99.816c-0.224,-0.129 -0.562,-0.143 -0.756,-0.032l-6.486,3.745c-0.193,0.112 -0.169,0.307 0.055,0.436l2.356,1.361c0.223,0.129 0.562,0.143 0.755,0.031l6.486,-3.745c0.194,-0.112 0.169,-0.307 -0.054,-0.436l-2.356,-1.36Z" style="fill:#0f0f0f;"/><path d="M63.383,94.632c-0.224,-0.129 -0.562,-0.143 -0.756,-0.031l-6.486,3.744c-0.193,0.112 -0.169,0.308 0.054,0.437l2.356,1.36c0.224,0.129 0.563,0.143 0.756,0.031l6.486,-3.744c0.194,-0.112 0.169,-0.308 -0.054,-0.437l-2.356,-1.36Z" style="fill:#0f0f0f;"/><path d="M72.349,89.448c-0.224,-0.129 -0.563,-0.143 -0.756,-0.031l-6.486,3.745c-0.194,0.111 -0.169,0.307 0.054,0.436l2.356,1.36c0.224,0.129 0.562,0.143 0.756,0.032l6.486,-3.745c0.193,-0.112 0.169,-0.307 -0.054,-0.436l-2.356,-1.361Z" style="fill:#0f0f0f;"/><path d="M81.314,84.265c-0.223,-0.129 -0.562,-0.143 -0.755,-0.032l-6.486,3.745c-0.194,0.112 -0.17,0.307 0.054,0.436l2.356,1.361c0.223,0.129 0.562,0.143 0.756,0.031l6.486,-3.745c0.193,-0.111 0.169,-0.307 -0.055,-0.436l-2.356,-1.36Z" style="fill:#0f0f0f;"/><path d="M90.28,79.081c-0.223,-0.129 -0.562,-0.143 -0.756,-0.031l-6.485,3.744c-0.194,0.112 -0.17,0.308 0.054,0.437l2.356,1.36c0.223,0.129 0.562,0.143 0.756,0.031l6.485,-3.744c0.194,-0.112 0.17,-0.308 -0.054,-0.437l-2.356,-1.36Z" style="fill:#0f0f0f;"/><path d="M99.246,73.898c-0.224,-0.129 -0.562,-0.144 -0.756,-0.032l-6.486,3.745c-0.193,0.112 -0.169,0.307 0.055,0.436l2.356,1.36c0.223,0.13 0.562,0.144 0.755,0.032l6.486,-3.745c0.194,-0.112 0.169,-0.307 -0.054,-0.436l-2.356,-1.36Z" style="fill:#0f0f0f;"/><path d="M108.212,68.714c-0.224,-0.129 -0.562,-0.143 -0.756,-0.031l-6.486,3.744c-0.193,0.112 -0.169,0.308 0.054,0.437l2.356,1.36c0.224,0.129 0.563,0.143 0.756,0.031l6.486,-3.744c0.194,-0.112 0.169,-0.308 -0.054,-0.437l-2.356,-1.36Z" style="fill:#0f0f0f;"/><path d="M117.178,63.53c-0.224,-0.129 -0.563,-0.143 -0.756,-0.031l-6.486,3.745c-0.194,0.111 -0.169,0.307 0.054,0.436l2.356,1.36c0.224,0.129 0.562,0.143 0.756,0.032l6.486,-3.745c0.193,-0.112 0.169,-0.307 -0.054,-0.436l-2.356,-1.361Z" style="fill:#0f0f0f;"/><path d="M126.143,58.347c-0.223,-0.129 -0.562,-0.143 -0.755,-0.032l-6.486,3.745c-0.194,0.112 -0.17,0.307 0.054,0.436l2.356,1.361c0.224,0.129 0.562,0.143 0.756,0.031l6.486,-3.745c0.193,-0.111 0.169,-0.307 -0.055,-0.436l-2.356,-1.36Z" style="fill:#0f0f0f;"/><path d="M135.109,53.163c-0.223,-0.129 -0.562,-0.143 -0.756,-0.031l-6.485,3.744c-0.194,0.112 -0.17,0.308 0.054,0.437l2.356,1.36c0.223,0.129 0.562,0.143 0.756,0.031l6.485,-3.744c0.194,-0.112 0.17,-0.308 -0.054,-0.437l-2.356,-1.36Z" style="fill:#0f0f0f;"/><path d="M77.456,133.802c-0.223,-0.13 -0.562,-0.144 -0.756,-0.032l-15.467,8.93c-0.194,0.112 -0.17,0.308 0.054,0.437l6.38,3.684c0.224,0.129 0.563,0.143 0.756,0.031l15.468,-8.93c0.194,-0.112 0.169,-0.308 -0.054,-0.437l-6.381,-3.683Z" style="fill:#0f0f0f;"/><path d="M131.295,102.717c-0.223,-0.129 -0.562,-0.143 -0.755,-0.031l-24.436,14.108c-0.193,0.112 -0.169,0.307 0.055,0.436l6.38,3.684c0.224,0.129 0.562,0.143 0.756,0.031l24.435,-14.107c0.194,-0.112 0.169,-0.308 -0.054,-0.437l-6.381,-3.684Z" style="fill:#0f0f0f;"/><path d="M176.166,76.811c-0.223,-0.129 -0.562,-0.143 -0.756,-0.031l-15.471,8.932c-0.193,0.112 -0.169,0.308 0.054,0.437l6.381,3.683c0.223,0.129 0.562,0.143 0.756,0.032l15.471,-8.933c0.193,-0.111 0.169,-0.307 -0.054,-0.436l-6.381,-3.684Z" style="fill:#0f0f0f;"/><path d="M45.995,120.909c-0.224,-0.129 -0.562,-0.143 -0.756,-0.031l-10.84,6.258c-0.194,0.112 -0.17,0.308 0.054,0.437l6.38,3.683c0.224,0.129 0.562,0.144 0.756,0.032l10.84,-6.259c0.194,-0.112 0.17,-0.307 -0.054,-0.436l-6.38,-3.684Z" style="fill:#0f0f0f;"/><path d="M63.889,131.242c-0.223,-0.129 -0.562,-0.143 -0.756,-0.031l-10.84,6.259c-0.194,0.111 -0.169,0.307 0.054,0.436l6.381,3.684c0.223,0.129 0.562,0.143 0.756,0.031l10.84,-6.259c0.194,-0.111 0.169,-0.307 -0.054,-0.436l-6.381,-3.684Z" style="fill:#0f0f0f;"/><path d="M164.371,70.597c0.125,-0.073 0.202,-0.206 0.202,-0.351c0,-0.145 -0.077,-0.279 -0.202,-0.351c-2.71,-1.564 -13.632,-7.871 -15.257,-8.809c-0.126,-0.072 -0.28,-0.072 -0.405,0c-1.322,0.763 -8.734,5.043 -10.921,6.306c-0.126,0.072 -0.203,0.206 -0.203,0.35c-0,0.145 0.077,0.279 0.203,0.351c1.522,0.879 5.444,3.144 6.38,3.684c0.125,0.072 0.28,0.072 0.405,-0c0.753,-0.435 3.386,-1.955 4.139,-2.39c0.125,-0.072 0.279,-0.072 0.405,0c1.192,0.688 7.28,4.204 8.472,4.892c0.125,0.072 0.279,0.072 0.405,-0c0.935,-0.54 4.855,-2.804 6.377,-3.682Z" style="fill:#0f0f0f;"/><path d="M167.281,71.571c-0.224,-0.129 -0.563,-0.143 -0.756,-0.031l-11.111,6.415c-0.194,0.111 -0.169,0.307 0.054,0.436l6.381,3.684c0.223,0.129 0.562,0.143 0.755,0.031l11.111,-6.415c0.194,-0.112 0.17,-0.307 -0.054,-0.436l-6.38,-3.684Z" style="fill:#0f0f0f;"/></g></svg>