<?xml version="1.0" encoding="UTF-8" standalone="no"?><!DOCTYPE svg PUBLIC "-//W3C//DTD SVG 1.1//EN" "http://www.w3.org/Graphics/SVG/1.1/DTD/svg11.dtd"><svg width="100%" height="100%" viewBox="0 0 200 200" version="1.1" xmlns="http://www.w3.org/2000/svg" xmlns:xlink="http://www.w3.org/1999/xlink" xml:space="preserve" xmlns:serif="http://www.serif.com/" style="fill-rule:evenodd;clip-rule:evenodd;stroke-linejoin:round;stroke-miterlimit:2;"><g><path d="M63.096,83.916c-0.126,0.374 -9.102,22.065 -9.102,24.399c0,2.819 2.059,5.792 6.077,8.112l26.619,15.369c7.346,4.241 18.475,4.702 24.836,1.029l30.186,-17.427c2.882,-1.664 4.294,-3.893 4.294,-6.227c-0,-0.129 -0.069,-0.942 -0.105,-1.145c-0.754,-4.25 -8.942,-23.289 -9.003,-23.48c-0.576,-1.784 -2.141,-3.554 -4.657,-5.007l-21.494,-12.41c-5.931,-3.424 -14.917,-3.797 -20.054,-0.831l-24.373,14.072c-1.707,0.985 -2.775,2.216 -3.224,3.546Z" style="fill:#001b35;"/><path d="M110.747,67.129c-5.931,-3.424 -14.917,-3.797 -20.054,-0.831l-24.373,14.072c-5.137,2.966 -4.492,8.154 1.439,11.578l21.494,12.41c5.931,3.424 14.917,3.797 20.054,0.831l24.373,-14.072c5.137,-2.966 4.492,-8.154 -1.439,-11.578l-21.494,-12.41Z" style="fill:#fff;fill-opacity:0.11;"/><path d="M70.22,85.862l3.566,-2.059c0.368,-0.213 0.773,-0.334 1.213,-0.365c0.44,-0.031 0.858,0.024 1.252,0.164l13.532,4.913c0.441,0.158 0.906,0.33 1.396,0.516c0.49,0.186 0.978,0.395 1.465,0.628c-0.371,-0.311 -0.707,-0.611 -1.007,-0.9c-0.301,-0.29 -0.584,-0.565 -0.85,-0.824l-8.056,-8.074c-0.196,-0.2 -0.279,-0.433 -0.249,-0.702c0.029,-0.268 0.22,-0.503 0.571,-0.706l1.256,-0.725c0.369,-0.213 0.766,-0.334 1.193,-0.363c0.427,-0.029 0.851,0.025 1.272,0.162l13.959,4.666c0.43,0.142 0.886,0.294 1.369,0.457c0.482,0.162 0.978,0.347 1.489,0.555c-0.359,-0.284 -0.696,-0.559 -1.011,-0.823c-0.316,-0.264 -0.605,-0.516 -0.868,-0.755l-8.508,-7.812c-0.214,-0.201 -0.301,-0.435 -0.263,-0.703c0.039,-0.267 0.234,-0.503 0.585,-0.706l3.341,-1.928l15.475,15.46l-3.842,2.218l-16.534,-5.573c-0.262,-0.083 -0.545,-0.177 -0.85,-0.28c-0.304,-0.103 -0.621,-0.216 -0.95,-0.339c0.212,0.191 0.407,0.374 0.586,0.549c0.179,0.176 0.341,0.339 0.485,0.49l9.603,9.576l-3.843,2.218l-26.777,-8.935Z" style="fill:#fff;fill-rule:nonzero;"/></g></svg>