<?xml version="1.0" encoding="UTF-8" standalone="no"?><!DOCTYPE svg PUBLIC "-//W3C//DTD SVG 1.1//EN" "http://www.w3.org/Graphics/SVG/1.1/DTD/svg11.dtd"><svg width="100%" height="100%" viewBox="0 0 200 200" version="1.1" xmlns="http://www.w3.org/2000/svg" xmlns:xlink="http://www.w3.org/1999/xlink" xml:space="preserve" xmlns:serif="http://www.serif.com/" style="fill-rule:evenodd;clip-rule:evenodd;stroke-linejoin:round;stroke-miterlimit:2;"><g><path d="M63.096,83.916c-0.126,0.374 -9.102,22.065 -9.102,24.399c0,2.819 2.059,5.792 6.077,8.112l26.619,15.369c7.346,4.241 18.475,4.702 24.836,1.029l30.186,-17.427c2.882,-1.664 4.294,-3.893 4.294,-6.227c-0,-0.129 -0.069,-0.942 -0.105,-1.145c-0.754,-4.25 -8.942,-23.289 -9.003,-23.48c-0.576,-1.784 -2.141,-3.554 -4.657,-5.007l-21.494,-12.41c-5.931,-3.424 -14.917,-3.797 -20.054,-0.831l-24.373,14.072c-1.707,0.985 -2.775,2.216 -3.224,3.546Z" style="fill:#001b35;"/><path d="M110.747,67.129c-5.931,-3.424 -14.917,-3.797 -20.054,-0.831l-24.373,14.072c-5.137,2.966 -4.492,8.154 1.439,11.578l21.494,12.41c5.931,3.424 14.917,3.797 20.054,0.831l24.373,-14.072c5.137,-2.966 4.492,-8.154 -1.439,-11.578l-21.494,-12.41Z" style="fill:#fff;fill-opacity:0.11;"/><path d="M92.728,97.262l-21.127,-12.197l6.731,-3.886c1.264,-0.73 2.475,-1.273 3.633,-1.629c1.158,-0.356 2.264,-0.554 3.318,-0.593c1.054,-0.039 2.061,0.071 3.022,0.331c0.961,0.26 1.877,0.641 2.747,1.144c0.474,0.273 0.872,0.571 1.194,0.892c0.323,0.322 0.552,0.667 0.688,1.035c0.135,0.368 0.163,0.757 0.084,1.165c-0.079,0.409 -0.279,0.839 -0.6,1.292c1.544,-0.5 2.984,-0.698 4.321,-0.594c1.336,0.105 2.599,0.5 3.788,1.187c0.899,0.519 1.584,1.089 2.056,1.709c0.472,0.621 0.705,1.265 0.698,1.933c-0.006,0.668 -0.275,1.342 -0.805,2.022c-0.53,0.68 -1.343,1.336 -2.44,1.97l-7.308,4.219Zm-4.717,-7.624l5.264,3.039l2.988,-1.726c0.561,-0.324 0.937,-0.636 1.129,-0.936c0.191,-0.3 0.257,-0.584 0.197,-0.85c-0.06,-0.267 -0.217,-0.517 -0.47,-0.75c-0.254,-0.234 -0.549,-0.448 -0.888,-0.643c-0.386,-0.223 -0.778,-0.399 -1.176,-0.527c-0.397,-0.128 -0.809,-0.191 -1.235,-0.191c-0.426,0.001 -0.873,0.069 -1.34,0.205c-0.468,0.136 -0.97,0.359 -1.505,0.668l-2.964,1.711Zm-3.277,-1.892l2.21,-1.276c0.469,-0.271 0.853,-0.537 1.152,-0.799c0.3,-0.262 0.485,-0.525 0.555,-0.789c0.07,-0.264 0.006,-0.534 -0.195,-0.809c-0.2,-0.275 -0.556,-0.56 -1.068,-0.856c-0.503,-0.29 -0.976,-0.5 -1.418,-0.63c-0.442,-0.13 -0.878,-0.188 -1.307,-0.175c-0.429,0.014 -0.861,0.096 -1.295,0.246c-0.435,0.15 -0.89,0.363 -1.368,0.639l-2.486,1.435l5.22,3.014Z" style="fill:#fff;fill-rule:nonzero;"/></g></svg>