<?xml version="1.0" encoding="UTF-8" standalone="no"?><!DOCTYPE svg PUBLIC "-//W3C//DTD SVG 1.1//EN" "http://www.w3.org/Graphics/SVG/1.1/DTD/svg11.dtd"><svg width="100%" height="100%" viewBox="0 0 200 200" version="1.1" xmlns="http://www.w3.org/2000/svg" xmlns:xlink="http://www.w3.org/1999/xlink" xml:space="preserve" xmlns:serif="http://www.serif.com/" style="fill-rule:evenodd;clip-rule:evenodd;stroke-linejoin:round;stroke-miterlimit:2;"><g><path d="M23.195,82.059c-0.038,0.164 -9.262,23.128 -9.348,25.205c-0.111,2.671 1.794,5.516 5.614,7.721l24.609,14.208c6.791,3.921 17.079,4.347 22.96,0.952l1.648,-0.951l53.733,31.022c7.35,4.244 18.485,4.705 24.851,1.03l34.599,-19.976c3.282,-1.895 4.659,-4.522 4.216,-7.204c-0.417,-2.519 -9.241,-26.137 -9.329,-26.473c-0.532,-2.044 -2.264,-4.093 -5.148,-5.757l-82.334,-47.536c-5.947,-3.434 -14.956,-3.807 -20.106,-0.834l-42.609,24.6c-1.897,1.096 -3.007,2.493 -3.356,3.993Z" style="fill:#001b35;"/><path d="M69.16,53.466l-42.609,24.6c-5.15,2.974 -4.503,8.175 1.444,11.608l21.549,12.442c5.947,3.433 14.956,3.807 20.106,0.834l1.443,-0.834l49.453,28.552c6.437,3.716 16.187,4.12 21.761,0.902l30.298,-17.492c5.574,-3.219 4.874,-8.848 -1.562,-12.564l-81.777,-47.214c-5.947,-3.434 -14.956,-3.807 -20.106,-0.834Z" style="fill:#fff;fill-opacity:0.13;"/><path d="M40.908,79.536l2.008,1.159l-3.999,2.309l2.626,1.516l3.062,-1.768l1.931,1.114l-3.063,1.769l2.68,1.547l3.999,-2.309l2.008,1.159l-6.273,3.622l-11.252,-6.496l6.273,-3.622Z" style="fill:#fff;fill-rule:nonzero;"/><path d="M53.444,85.291l-8.008,-4.624l1.284,-0.741c0.129,-0.075 0.271,-0.118 0.424,-0.129c0.154,-0.012 0.316,0.011 0.486,0.067l0.583,0.198c-0.01,-0.16 -0.006,-0.317 0.013,-0.471c0.019,-0.154 0.068,-0.302 0.146,-0.445c0.077,-0.143 0.187,-0.283 0.327,-0.421c0.141,-0.138 0.323,-0.271 0.545,-0.4c0.379,-0.218 0.791,-0.368 1.235,-0.449c0.444,-0.081 0.901,-0.101 1.372,-0.061c0.471,0.04 0.944,0.138 1.42,0.295c0.476,0.156 0.932,0.36 1.37,0.613l5.089,2.938l-2.073,1.197l-5.089,-2.938c-0.391,-0.226 -0.774,-0.357 -1.149,-0.393c-0.375,-0.036 -0.714,0.033 -1.017,0.208c-0.228,0.131 -0.385,0.287 -0.472,0.469c-0.088,0.181 -0.128,0.379 -0.12,0.595l5.707,3.295l-2.073,1.197Z" style="fill:#fff;fill-rule:nonzero;"/><path d="M63.759,79.478c-0.33,0.19 -0.676,0.326 -1.039,0.408c-0.362,0.081 -0.731,0.113 -1.106,0.094c-0.375,-0.018 -0.751,-0.085 -1.129,-0.2c-0.377,-0.114 -0.744,-0.274 -1.099,-0.48l-4.139,-2.389l-0.588,0.339c-0.107,0.062 -0.239,0.092 -0.394,0.09c-0.156,-0.003 -0.311,-0.048 -0.465,-0.138l-0.935,-0.539l0.857,-0.78l-1.546,-1.363c-0.194,-0.174 -0.166,-0.333 0.084,-0.477l1.083,-0.625l2.34,1.351l1.685,-0.973l1.638,0.945l-1.686,0.973l3.977,2.296c0.186,0.107 0.378,0.173 0.577,0.198c0.199,0.024 0.372,-0.006 0.519,-0.091c0.076,-0.043 0.13,-0.085 0.164,-0.125c0.033,-0.04 0.057,-0.078 0.071,-0.113c0.015,-0.035 0.03,-0.068 0.046,-0.098c0.015,-0.029 0.045,-0.057 0.09,-0.083c0.062,-0.036 0.129,-0.055 0.2,-0.058c0.072,-0.002 0.164,0.006 0.276,0.024l1.764,0.293c-0.036,0.288 -0.164,0.562 -0.382,0.822c-0.219,0.26 -0.506,0.493 -0.863,0.699Z" style="fill:#fff;fill-rule:nonzero;"/><path d="M61.389,71.314c0.459,-0.265 0.962,-0.46 1.508,-0.585c0.546,-0.125 1.113,-0.176 1.701,-0.153c0.588,0.023 1.187,0.121 1.797,0.296c0.609,0.174 1.202,0.427 1.779,0.76c0.18,0.104 0.32,0.193 0.42,0.266c0.1,0.073 0.165,0.139 0.196,0.198c0.032,0.06 0.03,0.114 -0.004,0.164c-0.035,0.049 -0.099,0.101 -0.192,0.155l-4,2.309c0.737,0.348 1.398,0.526 1.984,0.536c0.587,0.009 1.105,-0.117 1.556,-0.377c0.24,-0.139 0.414,-0.278 0.521,-0.417c0.107,-0.139 0.187,-0.271 0.241,-0.397c0.054,-0.126 0.104,-0.242 0.15,-0.346c0.047,-0.104 0.133,-0.192 0.258,-0.264c0.165,-0.096 0.359,-0.128 0.583,-0.096l1.459,0.147c0.069,0.287 0.069,0.553 -0.001,0.799c-0.07,0.245 -0.185,0.472 -0.345,0.681c-0.161,0.208 -0.352,0.399 -0.574,0.572c-0.223,0.173 -0.452,0.327 -0.688,0.464c-0.486,0.28 -1.033,0.491 -1.642,0.631c-0.608,0.14 -1.252,0.199 -1.931,0.174c-0.68,-0.024 -1.379,-0.137 -2.1,-0.339c-0.72,-0.202 -1.436,-0.508 -2.146,-0.919c-0.536,-0.309 -0.963,-0.647 -1.284,-1.015c-0.32,-0.368 -0.513,-0.741 -0.577,-1.121c-0.063,-0.379 0.01,-0.751 0.22,-1.116c0.21,-0.365 0.581,-0.701 1.111,-1.007Zm1.693,0.931c-0.397,0.229 -0.577,0.483 -0.54,0.762c0.037,0.278 0.265,0.579 0.682,0.903l2.589,-1.494c-0.191,-0.11 -0.397,-0.205 -0.62,-0.285c-0.223,-0.079 -0.453,-0.132 -0.69,-0.158c-0.237,-0.027 -0.478,-0.02 -0.721,0.019c-0.244,0.04 -0.477,0.124 -0.7,0.253Z" style="fill:#fff;fill-rule:nonzero;"/><path d="M73.827,73.522l-8.007,-4.623l1.23,-0.711c0.103,-0.059 0.199,-0.103 0.288,-0.131c0.09,-0.028 0.18,-0.043 0.271,-0.044c0.09,-0.002 0.184,0.011 0.281,0.038c0.096,0.028 0.205,0.066 0.326,0.115l0.862,0.367c-0.198,-0.408 -0.271,-0.78 -0.217,-1.114c0.054,-0.334 0.268,-0.61 0.643,-0.826c0.316,-0.183 0.658,-0.279 1.025,-0.288l1.493,1.17c0.09,0.073 0.13,0.138 0.121,0.194c-0.01,0.056 -0.059,0.11 -0.149,0.161c-0.075,0.044 -0.176,0.089 -0.302,0.135c-0.126,0.045 -0.267,0.113 -0.423,0.203c-0.543,0.315 -0.637,0.755 -0.28,1.321l4.912,2.836l-2.074,1.197Z" style="fill:#fff;fill-rule:nonzero;"/></g></svg>