<?xml version="1.0" encoding="UTF-8" standalone="no"?><!DOCTYPE svg PUBLIC "-//W3C//DTD SVG 1.1//EN" "http://www.w3.org/Graphics/SVG/1.1/DTD/svg11.dtd"><svg width="100%" height="100%" viewBox="0 0 200 200" version="1.1" xmlns="http://www.w3.org/2000/svg" xmlns:xlink="http://www.w3.org/1999/xlink" xml:space="preserve" xmlns:serif="http://www.serif.com/" style="fill-rule:evenodd;clip-rule:evenodd;stroke-linejoin:round;stroke-miterlimit:2;"><g><path d="M63.096,83.916c-0.126,0.374 -9.102,22.065 -9.102,24.399c0,2.819 2.059,5.792 6.077,8.112l26.619,15.369c7.346,4.241 18.475,4.702 24.836,1.029l30.186,-17.427c2.882,-1.664 4.294,-3.893 4.294,-6.227c-0,-0.129 -0.069,-0.942 -0.105,-1.145c-0.754,-4.25 -8.942,-23.289 -9.003,-23.48c-0.576,-1.784 -2.141,-3.554 -4.657,-5.007l-21.494,-12.41c-5.931,-3.424 -14.917,-3.797 -20.054,-0.831l-24.373,14.072c-1.707,0.985 -2.775,2.216 -3.224,3.546Z" style="fill:#001b35;"/><path d="M110.747,67.129c-5.931,-3.424 -14.917,-3.797 -20.054,-0.831l-24.373,14.072c-5.137,2.966 -4.492,8.154 1.439,11.578l21.494,12.41c5.931,3.424 14.917,3.797 20.054,0.831l24.373,-14.072c5.137,-2.966 4.492,-8.154 -1.439,-11.578l-21.494,-12.41Z" style="fill:#fff;fill-opacity:0.11;"/><path d="M89.911,90.735l7.061,4.077l-4.244,2.45l-21.127,-12.197l6.455,-3.727c1.289,-0.744 2.572,-1.282 3.85,-1.612c1.278,-0.33 2.526,-0.49 3.743,-0.478c1.217,0.012 2.389,0.178 3.514,0.499c1.126,0.321 2.177,0.764 3.153,1.328c1.054,0.608 1.874,1.251 2.461,1.928c0.586,0.677 0.893,1.371 0.918,2.081c0.026,0.711 -0.248,1.435 -0.82,2.173c-0.572,0.738 -1.49,1.472 -2.754,2.202l-2.21,1.276Zm-3.698,-2.135l2.21,-1.276c1.105,-0.638 1.596,-1.273 1.473,-1.905c-0.124,-0.632 -0.732,-1.263 -1.824,-1.894c-0.483,-0.279 -0.986,-0.497 -1.508,-0.653c-0.522,-0.156 -1.053,-0.243 -1.594,-0.26c-0.54,-0.018 -1.082,0.042 -1.626,0.177c-0.544,0.135 -1.084,0.358 -1.62,0.667l-2.21,1.276l6.699,3.868Z" style="fill:#fff;fill-rule:nonzero;"/></g></svg>