<?xml version="1.0" encoding="UTF-8" standalone="no"?><!DOCTYPE svg PUBLIC "-//W3C//DTD SVG 1.1//EN" "http://www.w3.org/Graphics/SVG/1.1/DTD/svg11.dtd"><svg width="100%" height="100%" viewBox="0 0 200 200" version="1.1" xmlns="http://www.w3.org/2000/svg" xmlns:xlink="http://www.w3.org/1999/xlink" xml:space="preserve" xmlns:serif="http://www.serif.com/" style="fill-rule:evenodd;clip-rule:evenodd;stroke-linejoin:round;stroke-miterlimit:2;"><g><path d="M63.096,83.916c-0.126,0.374 -9.102,22.065 -9.102,24.399c0,2.819 2.059,5.792 6.077,8.112l26.619,15.369c7.346,4.241 18.475,4.702 24.836,1.029l30.186,-17.427c2.882,-1.664 4.294,-3.893 4.294,-6.227c-0,-0.129 -0.069,-0.942 -0.105,-1.145c-0.754,-4.25 -8.942,-23.289 -9.003,-23.48c-0.576,-1.784 -2.141,-3.554 -4.657,-5.007l-21.494,-12.41c-5.931,-3.424 -14.917,-3.797 -20.054,-0.831l-24.373,14.072c-1.707,0.985 -2.775,2.216 -3.224,3.546Z" style="fill:#001b35;"/><path d="M110.747,67.129c-5.931,-3.424 -14.917,-3.797 -20.054,-0.831l-24.373,14.072c-5.137,2.966 -4.492,8.154 1.439,11.578l21.494,12.41c5.931,3.424 14.917,3.797 20.054,0.831l24.373,-14.072c5.137,-2.966 4.492,-8.154 -1.439,-11.578l-21.494,-12.41Z" style="fill:#fff;fill-opacity:0.11;"/><path d="M93.811,87.361l8.033,4.638l-4.244,2.45l-8.033,-4.638l-19.724,-3.731l3.742,-2.161c0.369,-0.213 0.761,-0.324 1.176,-0.336c0.416,-0.011 0.846,0.034 1.289,0.135l8.735,2.056c0.702,0.164 1.349,0.315 1.941,0.454c0.591,0.138 1.157,0.286 1.697,0.443c-0.29,-0.312 -0.555,-0.639 -0.795,-0.981c-0.24,-0.341 -0.501,-0.71 -0.784,-1.105l-3.586,-5.028c-0.075,-0.102 -0.132,-0.214 -0.17,-0.338c-0.037,-0.123 -0.051,-0.246 -0.039,-0.37c0.011,-0.124 0.059,-0.246 0.143,-0.367c0.083,-0.121 0.213,-0.232 0.389,-0.334l3.767,-2.175l6.463,11.388Z" style="fill:#fff;fill-rule:nonzero;"/></g></svg>