<?xml version="1.0" encoding="UTF-8" standalone="no"?><!DOCTYPE svg PUBLIC "-//W3C//DTD SVG 1.1//EN" "http://www.w3.org/Graphics/SVG/1.1/DTD/svg11.dtd"><svg width="100%" height="100%" viewBox="0 0 200 200" version="1.1" xmlns="http://www.w3.org/2000/svg" xmlns:xlink="http://www.w3.org/1999/xlink" xml:space="preserve" xmlns:serif="http://www.serif.com/" style="fill-rule:evenodd;clip-rule:evenodd;stroke-linejoin:round;stroke-miterlimit:2;"><g><path d="M63.096,83.916c-0.126,0.374 -9.102,22.065 -9.102,24.399c0,2.819 2.059,5.792 6.077,8.112l26.619,15.369c7.346,4.241 18.475,4.702 24.836,1.029l30.186,-17.427c2.882,-1.664 4.294,-3.893 4.294,-6.227c-0,-0.129 -0.069,-0.942 -0.105,-1.145c-0.754,-4.25 -8.942,-23.289 -9.003,-23.48c-0.576,-1.784 -2.141,-3.554 -4.657,-5.007l-21.494,-12.41c-5.931,-3.424 -14.917,-3.797 -20.054,-0.831l-24.373,14.072c-1.707,0.985 -2.775,2.216 -3.224,3.546Z" style="fill:#001b35;"/><path d="M110.747,67.129c-5.931,-3.424 -14.917,-3.797 -20.054,-0.831l-24.373,14.072c-5.137,2.966 -4.492,8.154 1.439,11.578l21.494,12.41c5.931,3.424 14.917,3.797 20.054,0.831l24.373,-14.072c5.137,-2.966 4.492,-8.154 -1.439,-11.578l-21.494,-12.41Z" style="fill:#fff;fill-opacity:0.11;"/><path d="M103.224,88.155c-0.268,0.155 -0.559,0.286 -0.873,0.395c-0.314,0.109 -0.652,0.187 -1.014,0.234c-0.362,0.047 -0.747,0.057 -1.154,0.03c-0.407,-0.028 -0.829,-0.105 -1.267,-0.232c0.136,0.659 0.067,1.223 -0.207,1.694c-0.273,0.47 -0.724,0.887 -1.352,1.249c-0.544,0.314 -1.13,0.527 -1.757,0.638c-0.628,0.111 -1.273,0.135 -1.936,0.071c-0.663,-0.063 -1.33,-0.209 -1.999,-0.436c-0.67,-0.227 -1.319,-0.522 -1.948,-0.885c-0.551,-0.318 -1.051,-0.677 -1.5,-1.076c-0.448,-0.4 -0.815,-0.821 -1.099,-1.266c-0.284,-0.444 -0.474,-0.909 -0.571,-1.395c-0.096,-0.486 -0.064,-0.973 0.095,-1.461c0.159,-0.488 0.457,-0.975 0.895,-1.462c0.437,-0.487 1.045,-0.955 1.824,-1.405c0.368,-0.213 0.72,-0.396 1.055,-0.551c0.335,-0.154 0.661,-0.29 0.979,-0.406c0.317,-0.116 0.637,-0.214 0.959,-0.294c0.322,-0.08 0.663,-0.157 1.022,-0.23l4.264,3.883c0.445,0.402 0.837,0.701 1.175,0.896c0.483,0.279 0.911,0.417 1.283,0.415c0.372,-0.003 0.717,-0.096 1.035,-0.28c0.302,-0.174 0.461,-0.408 0.478,-0.703c0.017,-0.294 -0.095,-0.623 -0.338,-0.985c-0.242,-0.362 -0.602,-0.746 -1.078,-1.152c-0.477,-0.406 -1.063,-0.81 -1.759,-1.211c-1.199,-0.692 -2.41,-1.213 -3.633,-1.561c-1.223,-0.349 -2.431,-0.536 -3.623,-0.562c-1.192,-0.027 -2.352,0.102 -3.479,0.384c-1.127,0.282 -2.184,0.708 -3.172,1.279c-1.08,0.623 -1.84,1.33 -2.28,2.12c-0.44,0.79 -0.583,1.606 -0.429,2.449c0.154,0.843 0.588,1.681 1.302,2.513c0.714,0.833 1.684,1.604 2.912,2.312c1.547,0.893 3.108,1.56 4.684,2.001c1.575,0.441 3.112,0.681 4.611,0.72c1.499,0.039 2.936,-0.113 4.311,-0.455c1.375,-0.342 2.636,-0.844 3.783,-1.506c0.662,-0.382 1.23,-0.757 1.704,-1.126c0.475,-0.369 0.873,-0.721 1.194,-1.058c0.322,-0.336 0.576,-0.653 0.763,-0.951c0.188,-0.298 0.325,-0.567 0.412,-0.807c0.068,-0.173 0.181,-0.306 0.34,-0.397c0.293,-0.17 0.677,-0.185 1.152,-0.046l2.094,0.6c-0.1,0.426 -0.268,0.863 -0.503,1.312c-0.236,0.448 -0.548,0.902 -0.935,1.359c-0.387,0.458 -0.864,0.915 -1.431,1.371c-0.567,0.456 -1.236,0.906 -2.006,1.35c-1.574,0.909 -3.305,1.582 -5.193,2.019c-1.888,0.437 -3.842,0.631 -5.863,0.581c-2.021,-0.05 -4.05,-0.352 -6.088,-0.905c-2.039,-0.554 -3.986,-1.366 -5.842,-2.438c-1.015,-0.586 -1.893,-1.228 -2.635,-1.927c-0.742,-0.699 -1.326,-1.423 -1.751,-2.171c-0.425,-0.748 -0.694,-1.507 -0.808,-2.279c-0.114,-0.771 -0.057,-1.527 0.169,-2.266c0.227,-0.739 0.635,-1.446 1.224,-2.121c0.589,-0.675 1.369,-1.293 2.34,-1.853c0.812,-0.469 1.711,-0.866 2.698,-1.19c0.987,-0.324 2.029,-0.569 3.126,-0.733c1.097,-0.164 2.231,-0.244 3.402,-0.24c1.172,0.005 2.341,0.103 3.509,0.293c1.168,0.191 2.321,0.48 3.459,0.866c1.138,0.387 2.22,0.876 3.244,1.468c1.035,0.597 1.873,1.238 2.514,1.922c0.641,0.685 1.058,1.365 1.25,2.041c0.191,0.676 0.149,1.323 -0.129,1.941c-0.278,0.618 -0.814,1.157 -1.609,1.616Zm-7.858,1.322c0.185,-0.107 0.333,-0.231 0.445,-0.374c0.113,-0.143 0.169,-0.307 0.168,-0.491c-0,-0.184 -0.066,-0.388 -0.197,-0.614c-0.132,-0.226 -0.349,-0.474 -0.652,-0.746l-3.079,-2.793c-0.23,0.099 -0.446,0.207 -0.646,0.323c-0.419,0.242 -0.705,0.541 -0.858,0.897c-0.153,0.356 -0.176,0.732 -0.068,1.128c0.107,0.395 0.339,0.795 0.694,1.198c0.355,0.403 0.827,0.775 1.417,1.116c0.57,0.329 1.09,0.52 1.559,0.573c0.468,0.053 0.874,-0.019 1.217,-0.217Z" style="fill:#fff;fill-rule:nonzero;"/></g></svg>