<?xml version="1.0" encoding="UTF-8" standalone="no"?><!DOCTYPE svg PUBLIC "-//W3C//DTD SVG 1.1//EN" "http://www.w3.org/Graphics/SVG/1.1/DTD/svg11.dtd"><svg width="100%" height="100%" viewBox="0 0 200 200" version="1.1" xmlns="http://www.w3.org/2000/svg" xmlns:xlink="http://www.w3.org/1999/xlink" xml:space="preserve" xmlns:serif="http://www.serif.com/" style="fill-rule:evenodd;clip-rule:evenodd;stroke-linejoin:round;stroke-miterlimit:2;"><g><path d="M45.355,94.819c-0.127,0.375 -9.135,22.144 -9.135,24.487c-0,2.829 2.067,5.813 6.099,8.141l26.715,15.424c7.372,4.256 18.54,4.719 24.925,1.033l65.511,-37.824c2.893,-1.669 4.31,-3.906 4.31,-6.249c0,-0.129 -0.069,-0.944 -0.105,-1.149c-0.757,-4.265 -8.974,-23.372 -9.036,-23.564c-0.577,-1.79 -2.148,-3.567 -4.674,-5.025l-21.571,-12.454c-5.952,-3.437 -14.97,-3.811 -20.125,-0.834l-59.679,34.455c-1.713,0.989 -2.785,2.224 -3.235,3.559Z" style="fill:#001b35;"/><path d="M128.394,57.639c-5.952,-3.437 -14.97,-3.811 -20.125,-0.834l-59.679,34.455c-5.155,2.977 -4.508,8.183 1.445,11.62l21.571,12.454c5.952,3.437 14.97,3.811 20.125,0.834l59.679,-34.455c5.155,-2.977 4.508,-8.183 -1.445,-11.62l-21.571,-12.454Z" style="fill:#fff;fill-opacity:0.11;"/><g><path d="M70.409,94.21c0.815,0.47 1.444,0.974 1.889,1.512c0.444,0.537 0.697,1.079 0.758,1.624c0.06,0.545 -0.08,1.078 -0.422,1.6c-0.342,0.521 -0.892,1.001 -1.65,1.439l-3.789,2.188l-11.263,-6.502l3.789,-2.188c0.759,-0.438 1.591,-0.755 2.497,-0.951c0.906,-0.196 1.83,-0.277 2.772,-0.243c0.941,0.033 1.878,0.178 2.809,0.435c0.931,0.257 1.801,0.619 2.61,1.086Zm-2.316,1.337c-0.556,-0.321 -1.121,-0.575 -1.695,-0.762c-0.573,-0.186 -1.133,-0.302 -1.679,-0.347c-0.546,-0.045 -1.072,-0.017 -1.579,0.082c-0.506,0.099 -0.976,0.273 -1.409,0.523l-1.513,0.874l7.243,4.181l1.513,-0.873c0.433,-0.25 0.735,-0.521 0.907,-0.814c0.171,-0.292 0.218,-0.596 0.141,-0.911c-0.077,-0.316 -0.278,-0.639 -0.601,-0.97c-0.324,-0.331 -0.766,-0.658 -1.328,-0.983Z" style="fill:#fff;fill-rule:nonzero;"/><path d="M71.962,90.422c0.459,-0.265 0.962,-0.461 1.509,-0.586c0.546,-0.125 1.114,-0.176 1.703,-0.153c0.588,0.023 1.188,0.122 1.798,0.296c0.61,0.175 1.204,0.428 1.781,0.762c0.18,0.104 0.32,0.193 0.42,0.266c0.1,0.073 0.166,0.139 0.197,0.198c0.031,0.06 0.03,0.114 -0.005,0.164c-0.034,0.049 -0.098,0.101 -0.192,0.155l-4.003,2.312c0.737,0.348 1.399,0.526 1.986,0.536c0.587,0.009 1.106,-0.117 1.557,-0.377c0.241,-0.139 0.415,-0.278 0.522,-0.417c0.107,-0.14 0.187,-0.272 0.241,-0.399c0.053,-0.126 0.104,-0.241 0.15,-0.345c0.047,-0.105 0.133,-0.193 0.258,-0.265c0.165,-0.095 0.36,-0.127 0.584,-0.096l1.46,0.147c0.069,0.288 0.069,0.554 -0.001,0.8c-0.07,0.246 -0.185,0.473 -0.346,0.681c-0.16,0.209 -0.352,0.4 -0.574,0.573c-0.223,0.173 -0.452,0.328 -0.689,0.465c-0.486,0.28 -1.034,0.491 -1.643,0.632c-0.609,0.14 -1.254,0.198 -1.933,0.174c-0.68,-0.024 -1.381,-0.137 -2.102,-0.34c-0.721,-0.202 -1.437,-0.509 -2.148,-0.919c-0.536,-0.31 -0.965,-0.648 -1.285,-1.017c-0.321,-0.368 -0.514,-0.742 -0.578,-1.121c-0.063,-0.38 0.01,-0.752 0.22,-1.118c0.211,-0.365 0.581,-0.701 1.113,-1.008Zm1.694,0.932c-0.397,0.229 -0.577,0.483 -0.54,0.762c0.037,0.279 0.264,0.581 0.683,0.905l2.59,-1.496c-0.19,-0.11 -0.397,-0.205 -0.62,-0.285c-0.223,-0.079 -0.453,-0.132 -0.69,-0.159c-0.238,-0.026 -0.479,-0.019 -0.723,0.02c-0.243,0.04 -0.477,0.124 -0.7,0.253Z" style="fill:#fff;fill-rule:nonzero;"/><path d="M74.983,84.715l11.571,6.681l-2.075,1.198l-11.571,-6.681l2.075,-1.198Z" style="fill:#fff;fill-rule:nonzero;"/><path d="M83.061,84.014c0.459,-0.265 0.962,-0.461 1.509,-0.586c0.546,-0.125 1.114,-0.176 1.703,-0.153c0.589,0.023 1.188,0.122 1.798,0.296c0.61,0.175 1.204,0.428 1.781,0.762c0.18,0.104 0.32,0.192 0.42,0.266c0.1,0.073 0.166,0.139 0.197,0.198c0.031,0.06 0.03,0.114 -0.005,0.164c-0.034,0.049 -0.098,0.101 -0.192,0.155l-4.003,2.312c0.737,0.348 1.399,0.526 1.986,0.536c0.587,0.009 1.106,-0.117 1.557,-0.377c0.241,-0.139 0.415,-0.278 0.522,-0.417c0.107,-0.14 0.187,-0.272 0.241,-0.399c0.053,-0.126 0.104,-0.241 0.15,-0.345c0.047,-0.105 0.133,-0.193 0.258,-0.265c0.165,-0.096 0.36,-0.127 0.584,-0.096l1.46,0.147c0.069,0.288 0.069,0.554 -0.001,0.8c-0.07,0.246 -0.185,0.473 -0.346,0.681c-0.16,0.209 -0.352,0.4 -0.574,0.573c-0.223,0.173 -0.452,0.328 -0.689,0.465c-0.486,0.28 -1.034,0.491 -1.643,0.631c-0.609,0.141 -1.254,0.199 -1.933,0.175c-0.68,-0.024 -1.381,-0.137 -2.102,-0.34c-0.721,-0.202 -1.437,-0.509 -2.148,-0.919c-0.536,-0.31 -0.965,-0.649 -1.285,-1.017c-0.321,-0.368 -0.514,-0.742 -0.577,-1.121c-0.064,-0.38 0.009,-0.752 0.219,-1.118c0.211,-0.365 0.581,-0.701 1.113,-1.008Zm1.694,0.932c-0.397,0.229 -0.577,0.483 -0.54,0.762c0.037,0.279 0.264,0.581 0.683,0.905l2.59,-1.496c-0.19,-0.11 -0.397,-0.205 -0.62,-0.285c-0.223,-0.079 -0.453,-0.132 -0.69,-0.159c-0.238,-0.026 -0.479,-0.019 -0.723,0.02c-0.243,0.04 -0.477,0.124 -0.7,0.253Z" style="fill:#fff;fill-rule:nonzero;"/><path d="M98.072,84.889c-0.331,0.19 -0.677,0.327 -1.04,0.408c-0.363,0.082 -0.732,0.114 -1.108,0.095c-0.375,-0.018 -0.752,-0.085 -1.13,-0.2c-0.377,-0.115 -0.744,-0.275 -1.1,-0.48l-4.143,-2.393l-0.589,0.341c-0.107,0.061 -0.238,0.091 -0.394,0.089c-0.156,-0.002 -0.311,-0.048 -0.466,-0.137l-0.935,-0.54l0.857,-0.781l-1.547,-1.365c-0.194,-0.174 -0.166,-0.333 0.084,-0.477l1.085,-0.626l2.342,1.352l1.687,-0.974l1.638,0.946l-1.687,0.974l3.981,2.299c0.186,0.107 0.378,0.173 0.577,0.198c0.2,0.024 0.373,-0.006 0.52,-0.091c0.076,-0.044 0.13,-0.085 0.164,-0.125c0.033,-0.041 0.057,-0.078 0.072,-0.113c0.015,-0.036 0.03,-0.068 0.045,-0.098c0.015,-0.03 0.046,-0.058 0.09,-0.083c0.063,-0.036 0.13,-0.056 0.201,-0.058c0.071,-0.003 0.163,0.005 0.276,0.024l1.765,0.292c-0.036,0.289 -0.163,0.563 -0.382,0.823c-0.219,0.261 -0.506,0.494 -0.863,0.7Z" style="fill:#fff;fill-rule:nonzero;"/><path d="M95.699,76.717c0.46,-0.265 0.963,-0.461 1.509,-0.586c0.547,-0.125 1.115,-0.176 1.703,-0.153c0.589,0.023 1.189,0.122 1.799,0.296c0.61,0.175 1.203,0.429 1.78,0.762c0.181,0.104 0.321,0.193 0.421,0.266c0.1,0.073 0.166,0.139 0.197,0.198c0.031,0.06 0.03,0.114 -0.005,0.164c-0.034,0.05 -0.099,0.101 -0.192,0.156l-4.003,2.311c0.736,0.348 1.398,0.526 1.986,0.536c0.587,0.009 1.106,-0.117 1.556,-0.377c0.241,-0.139 0.415,-0.278 0.522,-0.417c0.107,-0.14 0.188,-0.272 0.241,-0.398c0.054,-0.127 0.104,-0.242 0.151,-0.346c0.047,-0.105 0.133,-0.193 0.258,-0.265c0.165,-0.095 0.359,-0.127 0.583,-0.096l1.461,0.147c0.069,0.288 0.069,0.554 -0.001,0.8c-0.07,0.246 -0.185,0.473 -0.346,0.681c-0.16,0.209 -0.352,0.4 -0.574,0.573c-0.223,0.173 -0.452,0.328 -0.689,0.465c-0.486,0.28 -1.034,0.491 -1.643,0.632c-0.609,0.14 -1.254,0.198 -1.934,0.174c-0.679,-0.024 -1.38,-0.137 -2.101,-0.34c-0.721,-0.202 -1.437,-0.509 -2.149,-0.919c-0.535,-0.31 -0.964,-0.648 -1.285,-1.017c-0.32,-0.368 -0.513,-0.742 -0.577,-1.121c-0.064,-0.38 0.01,-0.752 0.22,-1.118c0.21,-0.365 0.581,-0.701 1.112,-1.008Zm1.695,0.932c-0.398,0.229 -0.578,0.483 -0.541,0.762c0.038,0.279 0.265,0.581 0.683,0.905l2.591,-1.496c-0.191,-0.11 -0.397,-0.205 -0.62,-0.285c-0.223,-0.079 -0.453,-0.132 -0.691,-0.159c-0.237,-0.026 -0.478,-0.019 -0.722,0.02c-0.244,0.04 -0.477,0.124 -0.7,0.253Z" style="fill:#fff;fill-rule:nonzero;"/></g></g></svg>