<?xml version="1.0" encoding="UTF-8" standalone="no"?><!DOCTYPE svg PUBLIC "-//W3C//DTD SVG 1.1//EN" "http://www.w3.org/Graphics/SVG/1.1/DTD/svg11.dtd"><svg width="100%" height="100%" viewBox="0 0 200 200" version="1.1" xmlns="http://www.w3.org/2000/svg" xmlns:xlink="http://www.w3.org/1999/xlink" xml:space="preserve" xmlns:serif="http://www.serif.com/" style="fill-rule:evenodd;clip-rule:evenodd;stroke-linejoin:round;stroke-miterlimit:2;"><g><path d="M63.096,83.916c-0.126,0.374 -9.102,22.065 -9.102,24.399c0,2.819 2.059,5.792 6.077,8.112l26.619,15.369c7.346,4.241 18.475,4.702 24.836,1.029l30.186,-17.427c2.882,-1.664 4.294,-3.893 4.294,-6.227c-0,-0.129 -0.069,-0.942 -0.105,-1.145c-0.754,-4.25 -8.942,-23.289 -9.003,-23.48c-0.576,-1.784 -2.141,-3.554 -4.657,-5.007l-21.494,-12.41c-5.931,-3.424 -14.917,-3.797 -20.054,-0.831l-24.373,14.072c-1.707,0.985 -2.775,2.216 -3.224,3.546Z" style="fill:#001b35;"/><path d="M110.747,67.129c-5.931,-3.424 -14.917,-3.797 -20.054,-0.831l-24.373,14.072c-5.137,2.966 -4.492,8.154 1.439,11.578l21.494,12.41c5.931,3.424 14.917,3.797 20.054,0.831l24.373,-14.072c5.137,-2.966 4.492,-8.154 -1.439,-11.578l-21.494,-12.41Z" style="fill:#fff;fill-opacity:0.11;"/><path d="M72.5,86.773c0.01,-0.352 0.067,-0.709 0.17,-1.07c0.103,-0.361 0.265,-0.719 0.485,-1.075c0.221,-0.356 0.516,-0.705 0.886,-1.047c0.37,-0.343 0.836,-0.675 1.397,-0.999c0.787,-0.455 1.617,-0.794 2.491,-1.02c0.873,-0.225 1.757,-0.336 2.65,-0.333c0.893,0.003 1.776,0.119 2.648,0.347c0.871,0.228 1.694,0.565 2.467,1.011c0.744,0.43 1.295,0.849 1.65,1.258c0.356,0.408 0.596,0.805 0.721,1.191c0.124,0.386 0.167,0.754 0.13,1.105c-0.037,0.351 -0.074,0.682 -0.112,0.994c-0.037,0.312 -0.042,0.599 -0.014,0.862c0.029,0.263 0.167,0.495 0.417,0.697l1.678,1.375l-2.662,1.537l-2.611,-1.188c-0.066,-0.029 -0.13,-0.059 -0.192,-0.09c-0.063,-0.031 -0.123,-0.063 -0.181,-0.097c-0.425,-0.245 -0.709,-0.511 -0.853,-0.797c-0.143,-0.285 -0.213,-0.582 -0.211,-0.89c0.002,-0.308 0.034,-0.623 0.098,-0.944c0.063,-0.321 0.086,-0.642 0.069,-0.961c-0.018,-0.319 -0.115,-0.631 -0.292,-0.937c-0.177,-0.305 -0.507,-0.597 -0.99,-0.876c-0.58,-0.335 -1.207,-0.506 -1.881,-0.513c-0.674,-0.007 -1.3,0.156 -1.877,0.489c-0.444,0.256 -0.761,0.501 -0.952,0.734c-0.191,0.233 -0.328,0.449 -0.411,0.647c-0.083,0.199 -0.151,0.375 -0.203,0.528c-0.053,0.153 -0.159,0.276 -0.318,0.368c-0.36,0.207 -0.807,0.259 -1.34,0.154l-2.857,-0.46Zm19.232,8.435c-0.348,-0.201 -0.615,-0.42 -0.802,-0.659c-0.187,-0.238 -0.293,-0.478 -0.318,-0.72c-0.026,-0.242 0.03,-0.478 0.167,-0.708c0.138,-0.23 0.365,-0.437 0.684,-0.62c0.309,-0.179 0.663,-0.308 1.062,-0.388c0.398,-0.079 0.809,-0.112 1.232,-0.1c0.424,0.012 0.842,0.072 1.254,0.18c0.413,0.108 0.793,0.262 1.141,0.463c0.348,0.201 0.618,0.422 0.809,0.663c0.192,0.241 0.298,0.484 0.32,0.728c0.021,0.245 -0.039,0.48 -0.181,0.708c-0.143,0.227 -0.369,0.43 -0.678,0.609c-0.319,0.183 -0.674,0.316 -1.068,0.398c-0.393,0.083 -0.8,0.116 -1.219,0.101c-0.419,-0.014 -0.837,-0.077 -1.255,-0.188c-0.417,-0.11 -0.8,-0.266 -1.148,-0.467Z" style="fill:#fff;fill-rule:nonzero;"/></g></svg>