<?xml version="1.0" encoding="UTF-8" standalone="no"?><!DOCTYPE svg PUBLIC "-//W3C//DTD SVG 1.1//EN" "http://www.w3.org/Graphics/SVG/1.1/DTD/svg11.dtd"><svg width="100%" height="100%" viewBox="0 0 200 200" version="1.1" xmlns="http://www.w3.org/2000/svg" xmlns:xlink="http://www.w3.org/1999/xlink" xml:space="preserve" xmlns:serif="http://www.serif.com/" style="fill-rule:evenodd;clip-rule:evenodd;stroke-linejoin:round;stroke-miterlimit:2;"><g><path d="M63.096,83.916c-0.126,0.374 -9.102,22.065 -9.102,24.399c0,2.819 2.059,5.792 6.077,8.112l26.619,15.369c7.346,4.241 18.475,4.702 24.836,1.029l30.186,-17.427c2.882,-1.664 4.294,-3.893 4.294,-6.227c-0,-0.129 -0.069,-0.942 -0.105,-1.145c-0.754,-4.25 -8.942,-23.289 -9.003,-23.48c-0.576,-1.784 -2.141,-3.554 -4.657,-5.007l-21.494,-12.41c-5.931,-3.424 -14.917,-3.797 -20.054,-0.831l-24.373,14.072c-1.707,0.985 -2.775,2.216 -3.224,3.546Z" style="fill:#001b35;"/><path d="M110.747,67.129c-5.931,-3.424 -14.917,-3.797 -20.054,-0.831l-24.373,14.072c-5.137,2.966 -4.492,8.154 1.439,11.578l21.494,12.41c5.931,3.424 14.917,3.797 20.054,0.831l24.373,-14.072c5.137,-2.966 4.492,-8.154 -1.439,-11.578l-21.494,-12.41Z" style="fill:#fff;fill-opacity:0.11;"/><path d="M92.857,88.347c1.18,0.681 2.125,1.374 2.836,2.079c0.712,0.706 1.155,1.407 1.332,2.103c0.176,0.696 0.066,1.38 -0.331,2.05c-0.397,0.67 -1.122,1.309 -2.177,1.918c-0.477,0.275 -0.977,0.531 -1.5,0.765c-0.523,0.235 -1.103,0.458 -1.74,0.67l-2.631,-1.779c-0.234,-0.155 -0.352,-0.322 -0.351,-0.501c-0,-0.178 0.138,-0.347 0.414,-0.507c0.143,-0.082 0.345,-0.168 0.608,-0.258c0.262,-0.091 0.54,-0.22 0.833,-0.389c0.41,-0.237 0.703,-0.481 0.878,-0.733c0.175,-0.252 0.21,-0.524 0.107,-0.816c-0.104,-0.291 -0.352,-0.609 -0.744,-0.951c-0.393,-0.343 -0.952,-0.723 -1.677,-1.142l-13.572,-7.836l4.245,-2.45l13.47,7.777Z" style="fill:#fff;fill-rule:nonzero;"/></g></svg>