<?xml version="1.0" encoding="UTF-8" standalone="no"?><!DOCTYPE svg PUBLIC "-//W3C//DTD SVG 1.1//EN" "http://www.w3.org/Graphics/SVG/1.1/DTD/svg11.dtd"><svg width="100%" height="100%" viewBox="0 0 200 200" version="1.1" xmlns="http://www.w3.org/2000/svg" xmlns:xlink="http://www.w3.org/1999/xlink" xml:space="preserve" xmlns:serif="http://www.serif.com/" style="fill-rule:evenodd;clip-rule:evenodd;stroke-linecap:round;stroke-linejoin:round;stroke-miterlimit:1.5;"><g><g><path d="M25.638,131.611c-0.383,0.226 -0.687,0.073 -0.878,-0.032c-0,0 -6.742,-4.275 -6.894,-4.374c-0.18,-0.118 -0.182,-0.295 -0.182,-0.295c0.002,0.121 -0.038,0.999 0.203,1.152l6.892,4.371c0.242,0.153 0.607,0.169 0.817,0.037l7.006,-4.443c0.209,-0.132 0.179,-0.78 0.136,-1.132c0,-0 0.032,0.175 -0.094,0.256c-1.176,0.759 -7.006,4.46 -7.006,4.46Z" style="fill:#0f0f0f;stroke:#000;stroke-width:0.1px;"/><path d="M35.329,125.469c-0.384,0.226 -0.688,0.073 -0.879,-0.032c0,-0 -6.742,-4.276 -6.894,-4.375c-0.18,-0.117 -0.181,-0.294 -0.181,-0.294c0.001,0.121 -0.039,0.999 0.203,1.152l6.892,4.37c0.241,0.153 0.607,0.17 0.816,0.037l7.006,-4.442c0.209,-0.133 0.179,-0.78 0.137,-1.133c-0,0 0.031,0.176 -0.095,0.257c-1.175,0.759 -7.005,4.46 -7.005,4.46Z" style="fill:#0f0f0f;stroke:#000;stroke-width:0.1px;"/><path d="M45.019,119.326c-0.383,0.227 -0.687,0.073 -0.878,-0.032c-0,0 -6.742,-4.275 -6.894,-4.374c-0.18,-0.117 -0.182,-0.294 -0.182,-0.294c0.001,0.12 -0.038,0.998 0.203,1.151l6.892,4.371c0.242,0.153 0.607,0.17 0.817,0.037l7.006,-4.443c0.209,-0.132 0.179,-0.779 0.136,-1.132c0,-0 0.032,0.175 -0.094,0.257c-1.176,0.758 -7.006,4.459 -7.006,4.459Z" style="fill:#0f0f0f;stroke:#000;stroke-width:0.1px;"/><path d="M54.71,113.184c-0.384,0.226 -0.688,0.073 -0.879,-0.032c0,0 -6.742,-4.276 -6.894,-4.375c-0.18,-0.117 -0.181,-0.294 -0.181,-0.294c0.001,0.121 -0.039,0.999 0.202,1.152l6.893,4.37c0.241,0.153 0.607,0.17 0.816,0.037l7.006,-4.442c0.209,-0.133 0.179,-0.78 0.137,-1.133c-0,0 0.031,0.176 -0.095,0.257c-1.175,0.759 -7.005,4.46 -7.005,4.46Z" style="fill:#0f0f0f;stroke:#000;stroke-width:0.1px;"/><path d="M64.4,107.041c-0.383,0.227 -0.687,0.074 -0.878,-0.031c-0,-0 -6.742,-4.276 -6.894,-4.375c-0.18,-0.117 -0.182,-0.294 -0.182,-0.294c0.001,0.12 -0.039,0.998 0.203,1.152l6.892,4.37c0.242,0.153 0.607,0.17 0.817,0.037l7.005,-4.442c0.21,-0.133 0.18,-0.78 0.137,-1.133c0,-0 0.032,0.175 -0.094,0.257c-1.176,0.759 -7.006,4.459 -7.006,4.459Z" style="fill:#0f0f0f;stroke:#000;stroke-width:0.1px;"/><path d="M74.091,100.899c-0.384,0.226 -0.688,0.073 -0.879,-0.032c0,0 -6.742,-4.276 -6.894,-4.375c-0.18,-0.117 -0.181,-0.294 -0.181,-0.294c0.001,0.121 -0.039,0.999 0.202,1.152l6.893,4.37c0.241,0.154 0.607,0.17 0.816,0.038l7.006,-4.443c0.209,-0.132 0.179,-0.78 0.137,-1.132c-0,-0 0.031,0.175 -0.095,0.256c-1.175,0.759 -7.005,4.46 -7.005,4.46Z" style="fill:#0f0f0f;stroke:#000;stroke-width:0.1px;"/><path d="M83.781,94.757c-0.384,0.226 -0.687,0.073 -0.878,-0.032c-0,-0 -6.742,-4.276 -6.894,-4.375c-0.18,-0.117 -0.182,-0.294 -0.182,-0.294c0.001,0.121 -0.039,0.999 0.203,1.152l6.892,4.37c0.241,0.153 0.607,0.17 0.816,0.037l7.006,-4.442c0.21,-0.133 0.18,-0.78 0.137,-1.133c0,0 0.031,0.176 -0.094,0.257c-1.176,0.759 -7.006,4.46 -7.006,4.46Z" style="fill:#0f0f0f;stroke:#000;stroke-width:0.1px;"/><path d="M93.472,88.614c-0.384,0.226 -0.688,0.073 -0.879,-0.032c0,0 -6.742,-4.276 -6.894,-4.375c-0.18,-0.117 -0.181,-0.294 -0.181,-0.294c0.001,0.121 -0.039,0.999 0.202,1.152l6.892,4.371c0.242,0.153 0.608,0.169 0.817,0.037l7.006,-4.443c0.209,-0.132 0.179,-0.78 0.137,-1.132c-0,-0 0.031,0.175 -0.095,0.256c-1.175,0.759 -7.005,4.46 -7.005,4.46Z" style="fill:#0f0f0f;stroke:#000;stroke-width:0.1px;"/><path d="M103.162,82.472c-0.384,0.226 -0.687,0.073 -0.878,-0.032c-0,-0 -6.742,-4.276 -6.894,-4.375c-0.18,-0.117 -0.182,-0.294 -0.182,-0.294c0.001,0.121 -0.039,0.999 0.203,1.152l6.892,4.37c0.241,0.153 0.607,0.17 0.816,0.037l7.006,-4.442c0.209,-0.133 0.18,-0.78 0.137,-1.133c0,0 0.031,0.176 -0.094,0.257c-1.176,0.759 -7.006,4.46 -7.006,4.46Z" style="fill:#0f0f0f;stroke:#000;stroke-width:0.1px;"/><path d="M112.853,76.329c-0.384,0.226 -0.688,0.073 -0.879,-0.032c0,0 -6.742,-4.275 -6.894,-4.374c-0.18,-0.117 -0.182,-0.294 -0.182,-0.294c0.002,0.12 -0.038,0.998 0.203,1.151l6.892,4.371c0.242,0.153 0.608,0.17 0.817,0.037l7.006,-4.443c0.209,-0.132 0.179,-0.779 0.137,-1.132c-0,-0 0.031,0.175 -0.095,0.257c-1.175,0.758 -7.005,4.459 -7.005,4.459Z" style="fill:#0f0f0f;stroke:#000;stroke-width:0.1px;"/><path d="M122.543,70.187c-0.384,0.226 -0.688,0.073 -0.878,-0.032c-0,0 -6.742,-4.276 -6.894,-4.375c-0.18,-0.117 -0.182,-0.294 -0.182,-0.294c0.001,0.121 -0.039,0.999 0.203,1.152l6.892,4.37c0.241,0.153 0.607,0.17 0.816,0.037l7.006,-4.442c0.209,-0.133 0.18,-0.78 0.137,-1.133c-0,0 0.031,0.176 -0.094,0.257c-1.176,0.759 -7.006,4.46 -7.006,4.46Z" style="fill:#0f0f0f;stroke:#000;stroke-width:0.1px;"/><path d="M132.234,64.044c-0.384,0.227 -0.688,0.073 -0.879,-0.031c0,-0 -6.742,-4.276 -6.894,-4.375c-0.18,-0.117 -0.182,-0.294 -0.182,-0.294c0.002,0.12 -0.038,0.998 0.203,1.152l6.892,4.37c0.242,0.153 0.608,0.17 0.817,0.037l7.006,-4.442c0.209,-0.133 0.179,-0.78 0.136,-1.133c0,-0 0.032,0.175 -0.094,0.257c-1.175,0.758 -7.005,4.459 -7.005,4.459Z" style="fill:#0f0f0f;stroke:#000;stroke-width:0.1px;"/><path d="M141.924,57.902c-0.384,0.226 -0.688,0.073 -0.878,-0.032c-0,0 -6.742,-4.276 -6.895,-4.375c-0.179,-0.117 -0.181,-0.294 -0.181,-0.294c0.001,0.121 -0.039,0.999 0.203,1.152l6.892,4.37c0.241,0.154 0.607,0.17 0.816,0.038l7.006,-4.443c0.209,-0.132 0.18,-0.78 0.137,-1.132c-0,-0 0.031,0.175 -0.095,0.256c-1.175,0.759 -7.005,4.46 -7.005,4.46Z" style="fill:#0f0f0f;stroke:#000;stroke-width:0.1px;"/><path d="M15.922,125.412c-0.214,0.15 -0.568,0.202 -0.896,-0.006c-0.069,-0.046 -2.383,-1.499 -2.559,-1.623c-0.188,-0.133 -0.173,-0.247 -0.173,-0.247c0.003,0.079 -0.041,0.954 0.2,1.107l2.545,1.613c0.241,0.154 0.607,0.17 0.816,0.038l7.006,-4.443c0.21,-0.132 0.135,-0.893 0.14,-1.067c-0,-0 -0.021,0.148 -0.107,0.203c-0.186,0.119 -6.972,4.425 -6.972,4.425Z" style="fill:#666;stroke:#000;stroke-width:0.1px;"/><path d="M25.607,119.262c-0.215,0.15 -0.568,0.203 -0.897,-0.005c-0.069,-0.046 -2.382,-1.5 -2.559,-1.624c-0.188,-0.132 -0.172,-0.246 -0.172,-0.246c0.003,0.078 -0.042,0.953 0.2,1.106l2.545,1.614c0.241,0.153 0.607,0.17 0.816,0.037l7.006,-4.443c0.209,-0.132 0.135,-0.893 0.14,-1.067c-0,0 -0.021,0.148 -0.108,0.204c-0.185,0.118 -6.971,4.424 -6.971,4.424Z" style="fill:#bebebe;fill-opacity:0.5;stroke:#000;stroke-width:0.1px;"/><path d="M35.292,113.112c-0.215,0.15 -0.568,0.203 -0.897,-0.005c-0.069,-0.046 -2.383,-1.499 -2.559,-1.623c-0.188,-0.133 -0.173,-0.247 -0.173,-0.247c0.004,0.079 -0.041,0.953 0.201,1.106l2.545,1.614c0.241,0.153 0.607,0.17 0.816,0.037l7.006,-4.442c0.209,-0.133 0.135,-0.893 0.14,-1.068c-0,0 -0.021,0.149 -0.108,0.204c-0.185,0.118 -6.971,4.424 -6.971,4.424Z" style="fill:#0f0f0f;stroke:#000;stroke-width:0.1px;"/><path d="M44.977,106.963c-0.215,0.15 -0.568,0.202 -0.897,-0.006c-0.069,-0.046 -2.383,-1.499 -2.559,-1.623c-0.188,-0.133 -0.173,-0.247 -0.173,-0.247c0.004,0.079 -0.041,0.954 0.201,1.107l2.544,1.613c0.242,0.154 0.608,0.17 0.817,0.038l7.006,-4.443c0.209,-0.132 0.135,-0.893 0.139,-1.067c0,-0 -0.02,0.148 -0.107,0.203c-0.185,0.119 -6.971,4.425 -6.971,4.425Z" style="fill:#0f0f0f;stroke:#000;stroke-width:0.1px;"/><path d="M54.662,100.813c-0.215,0.15 -0.568,0.203 -0.897,-0.005c-0.069,-0.046 -2.383,-1.5 -2.559,-1.624c-0.188,-0.132 -0.173,-0.246 -0.173,-0.246c0.004,0.078 -0.041,0.953 0.2,1.106l2.545,1.614c0.242,0.153 0.608,0.17 0.817,0.037l7.006,-4.443c0.209,-0.132 0.135,-0.893 0.139,-1.067c0,-0 -0.02,0.148 -0.107,0.204c-0.186,0.118 -6.971,4.424 -6.971,4.424Z" style="fill:#0f0f0f;stroke:#000;stroke-width:0.1px;"/><path d="M64.347,94.663c-0.215,0.15 -0.569,0.203 -0.897,-0.005c-0.069,-0.046 -2.383,-1.499 -2.559,-1.624c-0.188,-0.132 -0.173,-0.246 -0.173,-0.246c0.003,0.078 -0.041,0.953 0.2,1.106l2.545,1.614c0.242,0.153 0.607,0.17 0.817,0.037l7.005,-4.442c0.21,-0.133 0.135,-0.893 0.14,-1.068c-0,0 -0.021,0.149 -0.107,0.204c-0.186,0.118 -6.971,4.424 -6.971,4.424Z" style="fill:#0f0f0f;stroke:#000;stroke-width:0.1px;"/><path d="M74.031,88.514c-0.215,0.15 -0.568,0.202 -0.896,-0.006c-0.069,-0.046 -2.383,-1.499 -2.56,-1.623c-0.187,-0.133 -0.172,-0.247 -0.172,-0.247c0.003,0.079 -0.041,0.954 0.2,1.107l2.545,1.613c0.241,0.154 0.607,0.17 0.816,0.038l7.006,-4.443c0.209,-0.133 0.135,-0.893 0.14,-1.067c-0,-0 -0.021,0.148 -0.107,0.203c-0.186,0.119 -6.972,4.425 -6.972,4.425Z" style="fill:#0f0f0f;stroke:#000;stroke-width:0.1px;"/><path d="M83.716,82.364c-0.215,0.15 -0.568,0.202 -0.897,-0.005c-0.069,-0.046 -2.383,-1.5 -2.559,-1.624c-0.188,-0.132 -0.172,-0.246 -0.172,-0.246c0.003,0.078 -0.042,0.953 0.2,1.106l2.545,1.614c0.241,0.153 0.607,0.169 0.816,0.037l7.006,-4.443c0.209,-0.132 0.135,-0.893 0.14,-1.067c-0,-0 -0.021,0.148 -0.108,0.204c-0.185,0.118 -6.971,4.424 -6.971,4.424Z" style="fill:#0f0f0f;stroke:#000;stroke-width:0.1px;"/><path d="M93.401,76.214c-0.215,0.15 -0.568,0.203 -0.897,-0.005c-0.069,-0.046 -2.383,-1.499 -2.559,-1.624c-0.188,-0.132 -0.173,-0.246 -0.173,-0.246c0.004,0.078 -0.041,0.953 0.201,1.106l2.545,1.614c0.241,0.153 0.607,0.17 0.816,0.037l7.006,-4.442c0.209,-0.133 0.135,-0.894 0.139,-1.068c0,0 -0.02,0.149 -0.107,0.204c-0.185,0.118 -6.971,4.424 -6.971,4.424Z" style="fill:#0f0f0f;stroke:#000;stroke-width:0.1px;"/><path d="M103.086,70.065c-0.215,0.15 -0.568,0.202 -0.897,-0.006c-0.069,-0.046 -2.383,-1.499 -2.559,-1.623c-0.188,-0.133 -0.173,-0.247 -0.173,-0.247c0.004,0.079 -0.041,0.954 0.2,1.107l2.545,1.613c0.242,0.153 0.608,0.17 0.817,0.038l7.006,-4.443c0.209,-0.133 0.135,-0.893 0.139,-1.067c0,-0 -0.02,0.148 -0.107,0.203c-0.186,0.119 -6.971,4.425 -6.971,4.425Z" style="fill:#0f0f0f;stroke:#000;stroke-width:0.1px;"/><path d="M112.771,63.915c-0.215,0.15 -0.569,0.202 -0.897,-0.006c-0.069,-0.045 -2.383,-1.499 -2.559,-1.623c-0.188,-0.132 -0.173,-0.246 -0.173,-0.246c0.004,0.078 -0.041,0.953 0.2,1.106l2.545,1.614c0.242,0.153 0.607,0.169 0.817,0.037l7.006,-4.443c0.209,-0.132 0.135,-0.893 0.139,-1.067c0,-0 -0.02,0.148 -0.107,0.204c-0.186,0.118 -6.971,4.424 -6.971,4.424Z" style="fill:#0f0f0f;stroke:#000;stroke-width:0.1px;"/><path d="M122.455,57.765c-0.214,0.15 -0.568,0.203 -0.896,-0.005c-0.069,-0.046 -2.383,-1.499 -2.559,-1.624c-0.188,-0.132 -0.173,-0.246 -0.173,-0.246c0.003,0.078 -0.041,0.953 0.2,1.106l2.545,1.614c0.241,0.153 0.607,0.17 0.816,0.037l7.006,-4.442c0.209,-0.133 0.135,-0.894 0.14,-1.068c-0,0 -0.021,0.149 -0.107,0.204c-0.186,0.118 -6.972,4.424 -6.972,4.424Z" style="fill:#0f0f0f;stroke:#000;stroke-width:0.1px;"/><path d="M132.14,51.615c-0.215,0.151 -0.568,0.203 -0.897,-0.005c-0.069,-0.046 -2.382,-1.499 -2.559,-1.623c-0.188,-0.133 -0.172,-0.247 -0.172,-0.247c0.003,0.079 -0.042,0.953 0.2,1.107l2.545,1.613c0.241,0.153 0.607,0.17 0.816,0.037l7.006,-4.442c0.209,-0.133 0.135,-0.893 0.14,-1.067c-0,-0 -0.021,0.148 -0.108,0.203c-0.185,0.119 -6.971,4.424 -6.971,4.424Z" style="fill:#0f0f0f;stroke:#000;stroke-width:0.1px;"/><path d="M113.03,125.42c-0.297,0.201 -0.616,0.186 -0.95,0.029l-6.964,-4.413c-0.084,-0.083 -0.103,-0.148 -0.103,-0.208c0.008,0.179 -0.051,0.95 0.19,1.103l6.892,4.37c0.242,0.153 0.608,0.17 0.817,0.037l26.395,-16.737c0.209,-0.132 0.153,-0.871 0.138,-1.07c0.007,0.06 -0.023,0.13 -0.149,0.224l-26.266,16.665Z" style="fill:#0f0f0f;stroke:#000;stroke-width:0.1px;"/><path d="M171.181,88.549c-0.297,0.201 -0.627,0.184 -0.981,0.008l-6.801,-4.312c-0.207,-0.151 -0.246,-0.244 -0.238,-0.321c-0,0 -0.047,0.979 0.195,1.133l6.892,4.37c0.241,0.153 0.607,0.17 0.816,0.037l16.712,-10.597c0.209,-0.132 0.148,-1.07 0.148,-1.07c0.005,0.072 -0.059,0.159 -0.22,0.267l-16.523,10.485Z" style="fill:#0f0f0f;stroke:#000;stroke-width:0.1px;"/><path d="M35.565,137.696c-0.329,0.212 -0.649,0.194 -0.956,0.019c0,0 -5.749,-3.648 -6.96,-4.42c-0.088,-0.057 -0.099,-0.233 -0.099,-0.233c-0.008,0.148 -0.044,0.986 0.197,1.139l6.892,4.37c0.242,0.153 0.608,0.17 0.817,0.037l11.709,-7.425c0.21,-0.133 0.138,-0.771 0.147,-1.051c-0,-0 -0.009,0.12 -0.199,0.241c-1.971,1.248 -11.548,7.323 -11.548,7.323Z" style="fill:#0f0f0f;stroke:#000;stroke-width:0.1px;"/><path d="M168.084,66.606c0.135,-0.086 0.219,-0.244 0.219,-0.416c-0,-0.172 -0.001,-0.897 -0.001,-0.897c0.025,0.186 -0.049,0.334 -0.191,0.455l-6.829,4.333c-0.211,0.158 -0.42,0.137 -0.627,-0.015l-8.843,-5.594c-0.251,-0.257 -0.526,-0.299 -0.836,-0.024l-4.225,2.689c-0.161,0.109 -0.348,0.11 -0.563,-0.016l-6.777,-4.295c-0.357,-0.315 -0.321,-0.602 -0.018,-0.869c-0,-0 -0.266,0.204 -0.24,0.474c0.017,0.17 -0.035,1.054 0.216,1.205c1.665,1.002 5.881,3.73 6.892,4.37c0.135,0.086 0.302,0.086 0.437,0c0.814,-0.515 3.658,-2.319 4.471,-2.834c0.135,-0.086 0.302,-0.086 0.438,-0c1.287,0.816 7.863,4.986 9.151,5.802c0.135,0.086 0.302,0.086 0.437,0c1.011,-0.64 5.245,-3.325 6.889,-4.368Z" style="fill:#0f0f0f;stroke:#000;stroke-width:0.1px;"/><path d="M49.888,128.622c-0.384,0.226 -0.688,0.073 -0.879,-0.032c0,0 -6.742,-4.276 -6.894,-4.375c-0.18,-0.117 -0.182,-0.294 -0.182,-0.294c0.002,0.121 -0.038,0.999 0.203,1.152l6.892,4.371c0.242,0.153 0.608,0.169 0.817,0.037l7.006,-4.443c0.209,-0.132 0.179,-0.78 0.136,-1.132c0,-0 0.032,0.175 -0.094,0.256c-1.175,0.759 -7.005,4.46 -7.005,4.46Z" style="fill:#0f0f0f;stroke:#000;stroke-width:0.1px;"/><path d="M59.575,122.471c-0.384,0.226 -0.688,0.073 -0.878,-0.032c-0,-0 -6.742,-4.276 -6.895,-4.375c-0.179,-0.117 -0.181,-0.294 -0.181,-0.294c0.001,0.121 -0.039,0.999 0.203,1.152l6.892,4.37c0.241,0.153 0.607,0.17 0.816,0.037l7.006,-4.442c0.209,-0.133 0.18,-0.78 0.137,-1.133c-0,0 0.031,0.176 -0.095,0.257c-1.175,0.759 -7.005,4.46 -7.005,4.46Z" style="fill:#0f0f0f;stroke:#000;stroke-width:0.1px;"/><path d="M69.262,116.319c-0.383,0.227 -0.687,0.073 -0.878,-0.031c0,-0 -6.742,-4.276 -6.894,-4.375c-0.18,-0.117 -0.182,-0.294 -0.182,-0.294c0.002,0.12 -0.038,0.998 0.203,1.152l6.892,4.37c0.242,0.153 0.608,0.17 0.817,0.037l7.006,-4.442c0.209,-0.133 0.179,-0.78 0.136,-1.133c0,-0 0.032,0.175 -0.094,0.257c-1.175,0.758 -7.006,4.459 -7.006,4.459Z" style="fill:#0f0f0f;stroke:#000;stroke-width:0.1px;"/><path d="M78.95,110.168c-0.384,0.226 -0.688,0.073 -0.879,-0.032c0,0 -6.742,-4.276 -6.894,-4.375c-0.179,-0.117 -0.181,-0.294 -0.181,-0.294c0.001,0.121 -0.039,0.999 0.203,1.152l6.892,4.37c0.241,0.154 0.607,0.17 0.816,0.038l7.006,-4.443c0.209,-0.132 0.18,-0.78 0.137,-1.132c-0,-0 0.031,0.175 -0.095,0.256c-1.175,0.759 -7.005,4.46 -7.005,4.46Z" style="fill:#0f0f0f;stroke:#000;stroke-width:0.1px;"/><path d="M88.637,104.017c-0.383,0.226 -0.687,0.073 -0.878,-0.032c-0,-0 -6.742,-4.276 -6.894,-4.375c-0.18,-0.117 -0.182,-0.294 -0.182,-0.294c0.002,0.121 -0.038,0.999 0.203,1.152l6.892,4.37c0.242,0.153 0.607,0.17 0.817,0.037l7.006,-4.442c0.209,-0.133 0.179,-0.78 0.136,-1.133c0,0 0.032,0.176 -0.094,0.257c-1.176,0.759 -7.006,4.46 -7.006,4.46Z" style="fill:#0f0f0f;stroke:#000;stroke-width:0.1px;"/><path d="M98.325,97.865c-0.384,0.226 -0.688,0.073 -0.879,-0.032c0,0 -6.742,-4.275 -6.894,-4.374c-0.18,-0.117 -0.181,-0.294 -0.181,-0.294c0.001,0.12 -0.039,0.998 0.202,1.151l6.893,4.371c0.241,0.153 0.607,0.17 0.816,0.037l7.006,-4.443c0.209,-0.132 0.179,-0.78 0.137,-1.132c-0,-0 0.031,0.175 -0.095,0.257c-1.175,0.758 -7.005,4.459 -7.005,4.459Z" style="fill:#0f0f0f;stroke:#000;stroke-width:0.1px;"/><path d="M108.012,91.714c-0.383,0.226 -0.687,0.073 -0.878,-0.032c-0,0 -6.742,-4.276 -6.894,-4.375c-0.18,-0.117 -0.182,-0.294 -0.182,-0.294c0.001,0.121 -0.039,0.999 0.203,1.152l6.892,4.37c0.242,0.153 0.607,0.17 0.817,0.038l7.005,-4.443c0.21,-0.133 0.18,-0.78 0.137,-1.133c0,0 0.032,0.176 -0.094,0.257c-1.176,0.759 -7.006,4.46 -7.006,4.46Z" style="fill:#0f0f0f;stroke:#000;stroke-width:0.1px;"/><path d="M117.7,85.562c-0.384,0.227 -0.688,0.074 -0.879,-0.031c0,-0 -6.742,-4.276 -6.894,-4.375c-0.18,-0.117 -0.181,-0.294 -0.181,-0.294c0.001,0.121 -0.039,0.999 0.202,1.152l6.893,4.37c0.241,0.153 0.607,0.17 0.816,0.037l7.006,-4.442c0.209,-0.133 0.179,-0.78 0.137,-1.133c-0,0 0.031,0.176 -0.095,0.257c-1.175,0.759 -7.005,4.459 -7.005,4.459Z" style="fill:#0f0f0f;stroke:#000;stroke-width:0.1px;"/><path d="M127.387,79.411c-0.384,0.226 -0.688,0.073 -0.878,-0.032c-0,0 -6.742,-4.275 -6.894,-4.374c-0.18,-0.118 -0.182,-0.295 -0.182,-0.295c0.001,0.121 -0.039,0.999 0.203,1.152l6.892,4.371c0.241,0.153 0.607,0.169 0.816,0.037l7.006,-4.443c0.209,-0.132 0.18,-0.78 0.137,-1.132c0,-0 0.031,0.175 -0.094,0.256c-1.176,0.759 -7.006,4.46 -7.006,4.46Z" style="fill:#0f0f0f;stroke:#000;stroke-width:0.1px;"/><path d="M137.075,73.26c-0.384,0.226 -0.688,0.073 -0.879,-0.032c0,-0 -6.742,-4.276 -6.894,-4.375c-0.18,-0.117 -0.182,-0.294 -0.182,-0.294c0.002,0.121 -0.038,0.999 0.203,1.152l6.892,4.37c0.242,0.153 0.608,0.17 0.817,0.037l7.006,-4.442c0.209,-0.133 0.179,-0.78 0.136,-1.133c0,0 0.032,0.176 -0.094,0.257c-1.175,0.759 -7.005,4.46 -7.005,4.46Z" style="fill:#0f0f0f;stroke:#000;stroke-width:0.1px;"/><path d="M44.994,143.89c-0.384,0.226 -0.688,0.073 -0.879,-0.032c0,-0 -6.742,-4.276 -6.894,-4.375c-0.18,-0.117 -0.181,-0.294 -0.181,-0.294c0.001,0.121 -0.039,0.999 0.203,1.152l6.892,4.37c0.241,0.153 0.607,0.17 0.816,0.037l7.006,-4.442c0.209,-0.133 0.179,-0.78 0.137,-1.133c-0,0 0.031,0.176 -0.095,0.257c-1.175,0.759 -7.005,4.46 -7.005,4.46Z" style="fill:#0f0f0f;stroke:#000;stroke-width:0.1px;"/><path d="M54.696,137.738c-0.383,0.226 -0.687,0.073 -0.878,-0.032c-0,0 -6.742,-4.276 -6.894,-4.375c-0.18,-0.117 -0.182,-0.294 -0.182,-0.294c0.001,0.121 -0.039,0.999 0.203,1.152l6.892,4.37c0.242,0.153 0.607,0.17 0.817,0.038l7.005,-4.443c0.21,-0.133 0.18,-0.78 0.137,-1.133c0,0 0.032,0.176 -0.094,0.257c-1.176,0.759 -7.006,4.46 -7.006,4.46Z" style="fill:#0f0f0f;stroke:#000;stroke-width:0.1px;"/><path d="M64.399,131.586c-0.384,0.226 -0.688,0.073 -0.879,-0.032c0,0 -6.742,-4.276 -6.894,-4.375c-0.18,-0.117 -0.181,-0.294 -0.181,-0.294c0.001,0.121 -0.039,0.999 0.202,1.152l6.893,4.371c0.241,0.153 0.607,0.169 0.816,0.037l7.006,-4.443c0.209,-0.132 0.179,-0.78 0.137,-1.132c-0,-0 0.031,0.175 -0.095,0.256c-1.175,0.759 -7.005,4.46 -7.005,4.46Z" style="fill:#0f0f0f;stroke:#000;stroke-width:0.1px;"/><path d="M74.101,125.434c-0.384,0.227 -0.687,0.073 -0.878,-0.031c-0,-0 -6.742,-4.276 -6.894,-4.375c-0.18,-0.117 -0.182,-0.294 -0.182,-0.294c0.001,0.12 -0.039,0.998 0.203,1.152l6.892,4.37c0.241,0.153 0.607,0.17 0.816,0.037l7.006,-4.442c0.209,-0.133 0.18,-0.78 0.137,-1.133c0,-0 0.031,0.175 -0.094,0.257c-1.176,0.758 -7.006,4.459 -7.006,4.459Z" style="fill:#0f0f0f;stroke:#000;stroke-width:0.1px;"/><path d="M83.804,119.283c-0.384,0.226 -0.688,0.073 -0.879,-0.032c0,-0 -6.742,-4.276 -6.894,-4.375c-0.18,-0.117 -0.182,-0.294 -0.182,-0.294c0.002,0.121 -0.038,0.999 0.203,1.152l6.892,4.37c0.242,0.153 0.608,0.17 0.817,0.037l7.006,-4.442c0.209,-0.133 0.179,-0.78 0.136,-1.133c0,0 0.032,0.176 -0.094,0.257c-1.175,0.759 -7.005,4.46 -7.005,4.46Z" style="fill:#0f0f0f;stroke:#000;stroke-width:0.1px;"/><path d="M93.506,113.131c-0.384,0.226 -0.688,0.073 -0.878,-0.032c-0,0 -6.743,-4.276 -6.895,-4.375c-0.179,-0.117 -0.181,-0.294 -0.181,-0.294c0.001,0.121 -0.039,0.999 0.203,1.152l6.892,4.37c0.241,0.154 0.607,0.17 0.816,0.038l7.006,-4.443c0.209,-0.133 0.18,-0.78 0.137,-1.133c-0,0 0.031,0.176 -0.095,0.257c-1.175,0.759 -7.005,4.46 -7.005,4.46Z" style="fill:#0f0f0f;stroke:#000;stroke-width:0.1px;"/><path d="M103.208,106.979c-0.383,0.226 -0.687,0.073 -0.878,-0.032c0,0 -6.742,-4.275 -6.894,-4.374c-0.18,-0.118 -0.182,-0.295 -0.182,-0.295c0.002,0.121 -0.038,0.999 0.203,1.152l6.892,4.371c0.242,0.153 0.608,0.169 0.817,0.037l7.006,-4.443c0.209,-0.132 0.179,-0.78 0.136,-1.132c0,-0 0.032,0.175 -0.094,0.256c-1.175,0.759 -7.006,4.46 -7.006,4.46Z" style="fill:#0f0f0f;stroke:#000;stroke-width:0.1px;"/><path d="M112.911,100.827c-0.384,0.227 -0.688,0.074 -0.879,-0.031c0,-0 -6.742,-4.276 -6.894,-4.375c-0.179,-0.117 -0.181,-0.294 -0.181,-0.294c0.001,0.12 -0.039,0.999 0.203,1.152l6.892,4.37c0.241,0.153 0.607,0.17 0.816,0.037l7.006,-4.442c0.209,-0.133 0.18,-0.78 0.137,-1.133c-0,-0 0.031,0.176 -0.095,0.257c-1.175,0.759 -7.005,4.459 -7.005,4.459Z" style="fill:#0f0f0f;stroke:#000;stroke-width:0.1px;"/><path d="M122.613,94.676c-0.383,0.226 -0.687,0.073 -0.878,-0.032c-0,-0 -6.742,-4.276 -6.894,-4.375c-0.18,-0.117 -0.182,-0.294 -0.182,-0.294c0.002,0.121 -0.038,0.999 0.203,1.152l6.892,4.37c0.242,0.153 0.607,0.17 0.817,0.037l7.006,-4.442c0.209,-0.133 0.179,-0.78 0.136,-1.133c0,0 0.032,0.176 -0.094,0.257c-1.176,0.759 -7.006,4.46 -7.006,4.46Z" style="fill:#0f0f0f;stroke:#000;stroke-width:0.1px;"/><path d="M132.316,88.524c-0.384,0.226 -0.688,0.073 -0.879,-0.032c0,0 -6.742,-4.276 -6.894,-4.375c-0.18,-0.117 -0.181,-0.294 -0.181,-0.294c0.001,0.121 -0.039,0.999 0.202,1.152l6.893,4.37c0.241,0.154 0.607,0.17 0.816,0.038l7.006,-4.443c0.209,-0.132 0.179,-0.78 0.137,-1.132c-0,-0 0.031,0.175 -0.095,0.256c-1.175,0.759 -7.005,4.46 -7.005,4.46Z" style="fill:#0f0f0f;stroke:#000;stroke-width:0.1px;"/><path d="M142.018,82.372c-0.383,0.226 -0.687,0.073 -0.878,-0.032c-0,0 -6.742,-4.275 -6.894,-4.374c-0.18,-0.117 -0.182,-0.295 -0.182,-0.295c0.001,0.121 -0.039,0.999 0.203,1.152l6.892,4.371c0.242,0.153 0.607,0.169 0.816,0.037l7.006,-4.443c0.21,-0.132 0.18,-0.78 0.137,-1.132c0,-0 0.032,0.175 -0.094,0.257c-1.176,0.758 -7.006,4.459 -7.006,4.459Z" style="fill:#0f0f0f;stroke:#000;stroke-width:0.1px;"/><path d="M151.721,76.22c-0.384,0.227 -0.688,0.074 -0.879,-0.031c0,-0 -6.742,-4.276 -6.894,-4.375c-0.18,-0.117 -0.181,-0.294 -0.181,-0.294c0.001,0.121 -0.039,0.999 0.202,1.152l6.892,4.37c0.242,0.153 0.608,0.17 0.817,0.037l7.006,-4.442c0.209,-0.133 0.179,-0.78 0.137,-1.133c-0,0 0.031,0.176 -0.095,0.257c-1.175,0.759 -7.005,4.459 -7.005,4.459Z" style="fill:#0f0f0f;stroke:#000;stroke-width:0.1px;"/><path d="M69.251,140.877c-0.383,0.226 -0.687,0.073 -0.878,-0.032c-0,-0 -6.742,-4.276 -6.894,-4.375c-0.18,-0.117 -0.182,-0.294 -0.182,-0.294c0.001,0.121 -0.038,0.999 0.203,1.152l6.892,4.37c0.242,0.153 0.607,0.17 0.817,0.037l7.006,-4.442c0.209,-0.133 0.179,-0.78 0.136,-1.133c0,0 0.032,0.176 -0.094,0.257c-1.176,0.759 -7.006,4.46 -7.006,4.46Z" style="fill:#0f0f0f;stroke:#000;stroke-width:0.1px;"/><path d="M78.936,134.722c-0.383,0.226 -0.687,0.073 -0.878,-0.032c-0,0 -6.742,-4.276 -6.894,-4.375c-0.18,-0.117 -0.182,-0.294 -0.182,-0.294c0.002,0.121 -0.038,0.999 0.203,1.152l6.892,4.371c0.242,0.153 0.608,0.169 0.817,0.037l7.006,-4.443c0.209,-0.132 0.179,-0.78 0.136,-1.132c0,-0 0.032,0.175 -0.094,0.256c-1.175,0.759 -7.006,4.46 -7.006,4.46Z" style="fill:#0f0f0f;stroke:#000;stroke-width:0.1px;"/><path d="M88.621,128.568c-0.383,0.226 -0.687,0.073 -0.878,-0.032c0,-0 -6.742,-4.276 -6.894,-4.375c-0.18,-0.117 -0.182,-0.294 -0.182,-0.294c0.002,0.121 -0.038,0.999 0.203,1.152l6.892,4.37c0.242,0.153 0.608,0.17 0.817,0.037l7.006,-4.442c0.209,-0.133 0.179,-0.78 0.136,-1.133c0,0 0.032,0.176 -0.094,0.257c-1.175,0.759 -7.006,4.46 -7.006,4.46Z" style="fill:#0f0f0f;stroke:#000;stroke-width:0.1px;"/><path d="M98.306,122.413c-0.383,0.226 -0.687,0.073 -0.878,-0.032c0,0 -6.742,-4.276 -6.894,-4.375c-0.18,-0.117 -0.182,-0.294 -0.182,-0.294c0.002,0.121 -0.038,0.999 0.203,1.152l6.892,4.371c0.242,0.153 0.608,0.169 0.817,0.037l7.006,-4.443c0.209,-0.132 0.179,-0.78 0.136,-1.132c0,-0 0.032,0.175 -0.094,0.256c-1.175,0.759 -7.006,4.46 -7.006,4.46Z" style="fill:#0f0f0f;stroke:#000;stroke-width:0.1px;"/><path d="M107.992,116.259c-0.384,0.226 -0.688,0.073 -0.879,-0.032c0,-0 -6.742,-4.276 -6.894,-4.375c-0.18,-0.117 -0.181,-0.294 -0.181,-0.294c0.001,0.121 -0.039,0.999 0.202,1.152l6.892,4.37c0.242,0.153 0.608,0.17 0.817,0.037l7.006,-4.442c0.209,-0.133 0.179,-0.78 0.137,-1.133c-0,0 0.031,0.176 -0.095,0.257c-1.175,0.759 -7.005,4.46 -7.005,4.46Z" style="fill:#0f0f0f;stroke:#000;stroke-width:0.1px;"/><path d="M117.677,110.104c-0.384,0.226 -0.688,0.073 -0.879,-0.032c0,0 -6.742,-4.276 -6.894,-4.375c-0.18,-0.117 -0.181,-0.294 -0.181,-0.294c0.001,0.121 -0.039,0.999 0.202,1.152l6.893,4.371c0.241,0.153 0.607,0.169 0.816,0.037l7.006,-4.443c0.209,-0.132 0.179,-0.78 0.137,-1.132c-0,-0 0.031,0.175 -0.095,0.256c-1.175,0.759 -7.005,4.46 -7.005,4.46Z" style="fill:#0f0f0f;stroke:#000;stroke-width:0.1px;"/><path d="M127.362,103.949c-0.384,0.227 -0.688,0.074 -0.879,-0.031c0,-0 -6.742,-4.276 -6.894,-4.375c-0.18,-0.117 -0.181,-0.294 -0.181,-0.294c0.001,0.121 -0.039,0.999 0.203,1.152l6.892,4.37c0.241,0.153 0.607,0.17 0.816,0.037l7.006,-4.442c0.209,-0.133 0.179,-0.78 0.137,-1.133c-0,0 0.031,0.176 -0.095,0.257c-1.175,0.759 -7.005,4.459 -7.005,4.459Z" style="fill:#0f0f0f;stroke:#000;stroke-width:0.1px;"/><path d="M137.047,97.795c-0.384,0.226 -0.688,0.073 -0.879,-0.032c0,0 -6.742,-4.276 -6.894,-4.375c-0.179,-0.117 -0.181,-0.294 -0.181,-0.294c0.001,0.121 -0.039,0.999 0.203,1.152l6.892,4.37c0.241,0.154 0.607,0.17 0.816,0.038l7.006,-4.443c0.209,-0.132 0.18,-0.78 0.137,-1.132c-0,-0 0.031,0.175 -0.095,0.256c-1.175,0.759 -7.005,4.46 -7.005,4.46Z" style="fill:#0f0f0f;stroke:#000;stroke-width:0.1px;"/><path d="M146.732,91.64c-0.384,0.227 -0.688,0.074 -0.878,-0.031c-0,-0 -6.743,-4.276 -6.895,-4.375c-0.179,-0.117 -0.181,-0.294 -0.181,-0.294c0.001,0.121 -0.039,0.999 0.203,1.152l6.892,4.37c0.241,0.153 0.607,0.17 0.816,0.037l7.006,-4.442c0.209,-0.133 0.18,-0.78 0.137,-1.133c-0,0 0.031,0.176 -0.095,0.257c-1.175,0.759 -7.005,4.459 -7.005,4.459Z" style="fill:#0f0f0f;stroke:#000;stroke-width:0.1px;"/><path d="M156.417,85.486c-0.384,0.226 -0.688,0.073 -0.878,-0.032c-0,0 -6.742,-4.276 -6.894,-4.375c-0.18,-0.117 -0.182,-0.294 -0.182,-0.294c0.001,0.121 -0.039,0.999 0.203,1.152l6.892,4.37c0.241,0.154 0.607,0.17 0.816,0.038l7.006,-4.443c0.209,-0.132 0.18,-0.78 0.137,-1.132c-0,-0 0.031,0.175 -0.094,0.256c-1.176,0.759 -7.006,4.46 -7.006,4.46Z" style="fill:#0f0f0f;stroke:#000;stroke-width:0.1px;"/><path d="M83.861,143.914c-0.384,0.226 -0.687,0.073 -0.878,-0.032c-0,-0 -6.742,-4.276 -6.894,-4.375c-0.18,-0.117 -0.182,-0.294 -0.182,-0.294c0.001,0.121 -0.039,0.999 0.203,1.152l6.892,4.37c0.241,0.153 0.607,0.17 0.816,0.037l7.006,-4.442c0.21,-0.133 0.18,-0.78 0.137,-1.133c0,0 0.031,0.176 -0.094,0.257c-1.176,0.759 -7.006,4.46 -7.006,4.46Z" style="fill:#0f0f0f;stroke:#000;stroke-width:0.1px;"/><path d="M93.553,137.766c-0.384,0.226 -0.688,0.073 -0.879,-0.032c0,-0 -6.742,-4.276 -6.894,-4.375c-0.179,-0.117 -0.181,-0.294 -0.181,-0.294c0.001,0.121 -0.039,0.999 0.203,1.152l6.892,4.37c0.241,0.153 0.607,0.17 0.816,0.037l7.006,-4.442c0.209,-0.133 0.179,-0.78 0.137,-1.133c-0,0 0.031,0.176 -0.095,0.257c-1.175,0.759 -7.005,4.46 -7.005,4.46Z" style="fill:#0f0f0f;stroke:#000;stroke-width:0.1px;"/><path d="M103.245,131.618c-0.384,0.226 -0.688,0.073 -0.879,-0.032c0,-0 -6.742,-4.276 -6.894,-4.375c-0.18,-0.117 -0.182,-0.294 -0.182,-0.294c0.002,0.121 -0.038,0.999 0.203,1.152l6.892,4.37c0.242,0.153 0.608,0.17 0.817,0.037l7.006,-4.442c0.209,-0.133 0.179,-0.78 0.136,-1.133c0,0 0.032,0.176 -0.094,0.257c-1.175,0.759 -7.005,4.46 -7.005,4.46Z" style="fill:#0f0f0f;stroke:#000;stroke-width:0.1px;"/><path d="M142.011,107.026c-0.383,0.226 -0.687,0.073 -0.878,-0.032c0,-0 -6.742,-4.276 -6.894,-4.375c-0.18,-0.117 -0.182,-0.294 -0.182,-0.294c0.002,0.121 -0.038,0.999 0.203,1.152l6.892,4.37c0.242,0.153 0.608,0.17 0.817,0.037l7.006,-4.442c0.209,-0.133 0.179,-0.78 0.136,-1.133c0,0 0.032,0.176 -0.094,0.257c-1.175,0.759 -7.006,4.46 -7.006,4.46Z" style="fill:#0f0f0f;stroke:#000;stroke-width:0.1px;"/><path d="M151.703,100.878c-0.384,0.226 -0.687,0.073 -0.878,-0.032c-0,-0 -6.742,-4.276 -6.894,-4.375c-0.18,-0.117 -0.182,-0.294 -0.182,-0.294c0.001,0.121 -0.039,0.999 0.203,1.152l6.892,4.37c0.241,0.153 0.607,0.17 0.816,0.037l7.006,-4.442c0.21,-0.133 0.18,-0.78 0.137,-1.133c0,0 0.031,0.176 -0.094,0.257c-1.176,0.759 -7.006,4.46 -7.006,4.46Z" style="fill:#0f0f0f;stroke:#000;stroke-width:0.1px;"/><path d="M161.395,94.73c-0.384,0.226 -0.688,0.073 -0.879,-0.032c0,-0 -6.742,-4.276 -6.894,-4.375c-0.179,-0.117 -0.181,-0.294 -0.181,-0.294c0.001,0.121 -0.039,0.999 0.203,1.152l6.892,4.37c0.241,0.153 0.607,0.17 0.816,0.037l7.006,-4.442c0.209,-0.133 0.18,-0.78 0.137,-1.133c-0,0 0.031,0.176 -0.095,0.257c-1.175,0.759 -7.005,4.46 -7.005,4.46Z" style="fill:#0f0f0f;stroke:#000;stroke-width:0.1px;"/><path d="M64.546,156.166c-0.297,0.201 -0.627,0.184 -0.981,0.008l-6.801,-4.312c-0.207,-0.151 -0.246,-0.244 -0.238,-0.321c-0,0 -0.047,0.979 0.194,1.133l6.892,4.37c0.242,0.153 0.608,0.17 0.817,0.037l16.712,-10.597c0.209,-0.133 0.148,-1.07 0.148,-1.07c0.005,0.072 -0.059,0.159 -0.221,0.267l-16.522,10.485Z" style="fill:#0f0f0f;stroke:#000;stroke-width:0.1px;"/><path d="M54.894,149.955c-0.329,0.212 -0.649,0.195 -0.955,0.02c-0,-0 -5.749,-3.649 -6.96,-4.421c-0.089,-0.057 -0.1,-0.233 -0.1,-0.233c-0.007,0.149 -0.044,0.986 0.198,1.139l6.892,4.37c0.241,0.153 0.607,0.17 0.816,0.037l11.71,-7.425c0.209,-0.132 0.138,-0.771 0.146,-1.051c0,0 -0.008,0.12 -0.198,0.241c-1.971,1.248 -11.549,7.323 -11.549,7.323Z" style="fill:#0f0f0f;stroke:#000;stroke-width:0.1px;"/><path d="M166.297,79.341c-0.337,0.217 -0.661,0.202 -0.968,0.027c0,-0 -5.748,-3.648 -6.959,-4.421c-0.089,-0.057 -0.097,-0.235 -0.097,-0.235c-0.01,0.15 -0.063,0.998 0.179,1.151l6.892,4.37c0.241,0.153 0.611,0.168 0.825,0.032l11.984,-7.599c0.214,-0.136 0.154,-0.782 0.168,-1.065c-0,0 -0.011,0.122 -0.206,0.245c-2.017,1.277 -11.818,7.495 -11.818,7.495Z" style="fill:#0f0f0f;stroke:#000;stroke-width:0.1px;"/></g><g><path d="M25.638,131.611c-0.383,0.226 -0.687,0.073 -0.878,-0.032c-0,0 -6.742,-4.275 -6.894,-4.374c-0.18,-0.118 -0.182,-0.295 -0.182,-0.295c0.002,0.121 -0.038,0.999 0.203,1.152l6.892,4.371c0.242,0.153 0.607,0.169 0.817,0.037l7.006,-4.443c0.209,-0.132 0.179,-0.78 0.136,-1.132c0,-0 0.032,0.175 -0.094,0.256c-1.176,0.759 -7.006,4.46 -7.006,4.46Z" style="fill:#6b6b6b;stroke:#000;stroke-width:0.1px;"/><path d="M35.329,125.469c-0.384,0.226 -0.688,0.073 -0.879,-0.032c0,-0 -6.742,-4.276 -6.894,-4.375c-0.18,-0.117 -0.181,-0.294 -0.181,-0.294c0.001,0.121 -0.039,0.999 0.203,1.152l6.892,4.37c0.241,0.153 0.607,0.17 0.816,0.037l7.006,-4.442c0.209,-0.133 0.179,-0.78 0.137,-1.133c-0,0 0.031,0.176 -0.095,0.257c-1.175,0.759 -7.005,4.46 -7.005,4.46Z" style="fill:#6b6b6b;stroke:#000;stroke-width:0.1px;"/><path d="M45.019,119.326c-0.383,0.227 -0.687,0.073 -0.878,-0.032c-0,0 -6.742,-4.275 -6.894,-4.374c-0.18,-0.117 -0.182,-0.294 -0.182,-0.294c0.001,0.12 -0.038,0.998 0.203,1.151l6.892,4.371c0.242,0.153 0.607,0.17 0.817,0.037l7.006,-4.443c0.209,-0.132 0.179,-0.779 0.136,-1.132c0,-0 0.032,0.175 -0.094,0.257c-1.176,0.758 -7.006,4.459 -7.006,4.459Z" style="fill:#6b6b6b;stroke:#000;stroke-width:0.1px;"/><path d="M54.71,113.184c-0.384,0.226 -0.688,0.073 -0.879,-0.032c0,0 -6.742,-4.276 -6.894,-4.375c-0.18,-0.117 -0.181,-0.294 -0.181,-0.294c0.001,0.121 -0.039,0.999 0.202,1.152l6.893,4.37c0.241,0.153 0.607,0.17 0.816,0.037l7.006,-4.442c0.209,-0.133 0.179,-0.78 0.137,-1.133c-0,0 0.031,0.176 -0.095,0.257c-1.175,0.759 -7.005,4.46 -7.005,4.46Z" style="fill:#6b6b6b;stroke:#000;stroke-width:0.1px;"/><path d="M64.4,107.041c-0.383,0.227 -0.687,0.074 -0.878,-0.031c-0,-0 -6.742,-4.276 -6.894,-4.375c-0.18,-0.117 -0.182,-0.294 -0.182,-0.294c0.001,0.12 -0.039,0.998 0.203,1.152l6.892,4.37c0.242,0.153 0.607,0.17 0.817,0.037l7.005,-4.442c0.21,-0.133 0.18,-0.78 0.137,-1.133c0,-0 0.032,0.175 -0.094,0.257c-1.176,0.759 -7.006,4.459 -7.006,4.459Z" style="fill:#6b6b6b;stroke:#000;stroke-width:0.1px;"/><path d="M74.091,100.899c-0.384,0.226 -0.688,0.073 -0.879,-0.032c0,0 -6.742,-4.276 -6.894,-4.375c-0.18,-0.117 -0.181,-0.294 -0.181,-0.294c0.001,0.121 -0.039,0.999 0.202,1.152l6.893,4.37c0.241,0.154 0.607,0.17 0.816,0.038l7.006,-4.443c0.209,-0.132 0.179,-0.78 0.137,-1.132c-0,-0 0.031,0.175 -0.095,0.256c-1.175,0.759 -7.005,4.46 -7.005,4.46Z" style="fill:#6b6b6b;stroke:#000;stroke-width:0.1px;"/><path d="M83.781,94.757c-0.384,0.226 -0.687,0.073 -0.878,-0.032c-0,-0 -6.742,-4.276 -6.894,-4.375c-0.18,-0.117 -0.182,-0.294 -0.182,-0.294c0.001,0.121 -0.039,0.999 0.203,1.152l6.892,4.37c0.241,0.153 0.607,0.17 0.816,0.037l7.006,-4.442c0.21,-0.133 0.18,-0.78 0.137,-1.133c0,0 0.031,0.176 -0.094,0.257c-1.176,0.759 -7.006,4.46 -7.006,4.46Z" style="fill:#6b6b6b;stroke:#000;stroke-width:0.1px;"/><path d="M93.472,88.614c-0.384,0.226 -0.688,0.073 -0.879,-0.032c0,0 -6.742,-4.276 -6.894,-4.375c-0.18,-0.117 -0.181,-0.294 -0.181,-0.294c0.001,0.121 -0.039,0.999 0.202,1.152l6.892,4.371c0.242,0.153 0.608,0.169 0.817,0.037l7.006,-4.443c0.209,-0.132 0.179,-0.78 0.137,-1.132c-0,-0 0.031,0.175 -0.095,0.256c-1.175,0.759 -7.005,4.46 -7.005,4.46Z" style="fill:#6b6b6b;stroke:#000;stroke-width:0.1px;"/><path d="M103.162,82.472c-0.384,0.226 -0.687,0.073 -0.878,-0.032c-0,-0 -6.742,-4.276 -6.894,-4.375c-0.18,-0.117 -0.182,-0.294 -0.182,-0.294c0.001,0.121 -0.039,0.999 0.203,1.152l6.892,4.37c0.241,0.153 0.607,0.17 0.816,0.037l7.006,-4.442c0.209,-0.133 0.18,-0.78 0.137,-1.133c0,0 0.031,0.176 -0.094,0.257c-1.176,0.759 -7.006,4.46 -7.006,4.46Z" style="fill:#6b6b6b;stroke:#000;stroke-width:0.1px;"/><path d="M112.853,76.329c-0.384,0.226 -0.688,0.073 -0.879,-0.032c0,0 -6.742,-4.275 -6.894,-4.374c-0.18,-0.117 -0.182,-0.294 -0.182,-0.294c0.002,0.12 -0.038,0.998 0.203,1.151l6.892,4.371c0.242,0.153 0.608,0.17 0.817,0.037l7.006,-4.443c0.209,-0.132 0.179,-0.779 0.137,-1.132c-0,-0 0.031,0.175 -0.095,0.257c-1.175,0.758 -7.005,4.459 -7.005,4.459Z" style="fill:#6b6b6b;stroke:#000;stroke-width:0.1px;"/><path d="M122.543,70.187c-0.384,0.226 -0.688,0.073 -0.878,-0.032c-0,0 -6.742,-4.276 -6.894,-4.375c-0.18,-0.117 -0.182,-0.294 -0.182,-0.294c0.001,0.121 -0.039,0.999 0.203,1.152l6.892,4.37c0.241,0.153 0.607,0.17 0.816,0.037l7.006,-4.442c0.209,-0.133 0.18,-0.78 0.137,-1.133c-0,0 0.031,0.176 -0.094,0.257c-1.176,0.759 -7.006,4.46 -7.006,4.46Z" style="fill:#6b6b6b;stroke:#000;stroke-width:0.1px;"/><path d="M132.234,64.044c-0.384,0.227 -0.688,0.073 -0.879,-0.031c0,-0 -6.742,-4.276 -6.894,-4.375c-0.18,-0.117 -0.182,-0.294 -0.182,-0.294c0.002,0.12 -0.038,0.998 0.203,1.152l6.892,4.37c0.242,0.153 0.608,0.17 0.817,0.037l7.006,-4.442c0.209,-0.133 0.179,-0.78 0.136,-1.133c0,-0 0.032,0.175 -0.094,0.257c-1.175,0.758 -7.005,4.459 -7.005,4.459Z" style="fill:#6b6b6b;stroke:#000;stroke-width:0.1px;"/><path d="M141.924,57.902c-0.384,0.226 -0.688,0.073 -0.878,-0.032c-0,0 -6.742,-4.276 -6.895,-4.375c-0.179,-0.117 -0.181,-0.294 -0.181,-0.294c0.001,0.121 -0.039,0.999 0.203,1.152l6.892,4.37c0.241,0.154 0.607,0.17 0.816,0.038l7.006,-4.443c0.209,-0.132 0.18,-0.78 0.137,-1.132c-0,-0 0.031,0.175 -0.095,0.256c-1.175,0.759 -7.005,4.46 -7.005,4.46Z" style="fill:#6b6b6b;stroke:#000;stroke-width:0.1px;"/><path d="M15.922,125.412c-0.214,0.15 -0.568,0.202 -0.896,-0.006c-0.069,-0.046 -2.383,-1.499 -2.559,-1.623c-0.188,-0.133 -0.173,-0.247 -0.173,-0.247c0.003,0.079 -0.041,0.954 0.2,1.107l2.545,1.613c0.241,0.154 0.607,0.17 0.816,0.038l7.006,-4.443c0.21,-0.132 0.135,-0.893 0.14,-1.067c-0,-0 -0.021,0.148 -0.107,0.203c-0.186,0.119 -6.972,4.425 -6.972,4.425Z" style="fill:#6b6b6b;stroke:#000;stroke-width:0.1px;"/><path d="M25.607,119.262c-0.215,0.15 -0.568,0.203 -0.897,-0.005c-0.069,-0.046 -2.382,-1.5 -2.559,-1.624c-0.188,-0.132 -0.172,-0.246 -0.172,-0.246c0.003,0.078 -0.042,0.953 0.2,1.106l2.545,1.614c0.241,0.153 0.607,0.17 0.816,0.037l7.006,-4.443c0.209,-0.132 0.135,-0.893 0.14,-1.067c-0,0 -0.021,0.148 -0.108,0.204c-0.185,0.118 -6.971,4.424 -6.971,4.424Z" style="fill:#6b6b6b;fill-opacity:0.5;stroke:#000;stroke-width:0.1px;"/><path d="M35.292,113.112c-0.215,0.15 -0.568,0.203 -0.897,-0.005c-0.069,-0.046 -2.383,-1.499 -2.559,-1.623c-0.188,-0.133 -0.173,-0.247 -0.173,-0.247c0.004,0.079 -0.041,0.953 0.201,1.106l2.545,1.614c0.241,0.153 0.607,0.17 0.816,0.037l7.006,-4.442c0.209,-0.133 0.135,-0.893 0.14,-1.068c-0,0 -0.021,0.149 -0.108,0.204c-0.185,0.118 -6.971,4.424 -6.971,4.424Z" style="fill:#6b6b6b;stroke:#000;stroke-width:0.1px;"/><path d="M44.977,106.963c-0.215,0.15 -0.568,0.202 -0.897,-0.006c-0.069,-0.046 -2.383,-1.499 -2.559,-1.623c-0.188,-0.133 -0.173,-0.247 -0.173,-0.247c0.004,0.079 -0.041,0.954 0.201,1.107l2.544,1.613c0.242,0.154 0.608,0.17 0.817,0.038l7.006,-4.443c0.209,-0.132 0.135,-0.893 0.139,-1.067c0,-0 -0.02,0.148 -0.107,0.203c-0.185,0.119 -6.971,4.425 -6.971,4.425Z" style="fill:#6b6b6b;stroke:#000;stroke-width:0.1px;"/><path d="M54.662,100.813c-0.215,0.15 -0.568,0.203 -0.897,-0.005c-0.069,-0.046 -2.383,-1.5 -2.559,-1.624c-0.188,-0.132 -0.173,-0.246 -0.173,-0.246c0.004,0.078 -0.041,0.953 0.2,1.106l2.545,1.614c0.242,0.153 0.608,0.17 0.817,0.037l7.006,-4.443c0.209,-0.132 0.135,-0.893 0.139,-1.067c0,-0 -0.02,0.148 -0.107,0.204c-0.186,0.118 -6.971,4.424 -6.971,4.424Z" style="fill:#6b6b6b;stroke:#000;stroke-width:0.1px;"/><path d="M64.347,94.663c-0.215,0.15 -0.569,0.203 -0.897,-0.005c-0.069,-0.046 -2.383,-1.499 -2.559,-1.624c-0.188,-0.132 -0.173,-0.246 -0.173,-0.246c0.003,0.078 -0.041,0.953 0.2,1.106l2.545,1.614c0.242,0.153 0.607,0.17 0.817,0.037l7.005,-4.442c0.21,-0.133 0.135,-0.893 0.14,-1.068c-0,0 -0.021,0.149 -0.107,0.204c-0.186,0.118 -6.971,4.424 -6.971,4.424Z" style="fill:#6b6b6b;stroke:#000;stroke-width:0.1px;"/><path d="M74.031,88.514c-0.215,0.15 -0.568,0.202 -0.896,-0.006c-0.069,-0.046 -2.383,-1.499 -2.56,-1.623c-0.187,-0.133 -0.172,-0.247 -0.172,-0.247c0.003,0.079 -0.041,0.954 0.2,1.107l2.545,1.613c0.241,0.154 0.607,0.17 0.816,0.038l7.006,-4.443c0.209,-0.133 0.135,-0.893 0.14,-1.067c-0,-0 -0.021,0.148 -0.107,0.203c-0.186,0.119 -6.972,4.425 -6.972,4.425Z" style="fill:#6b6b6b;stroke:#000;stroke-width:0.1px;"/><path d="M83.716,82.364c-0.215,0.15 -0.568,0.202 -0.897,-0.005c-0.069,-0.046 -2.383,-1.5 -2.559,-1.624c-0.188,-0.132 -0.172,-0.246 -0.172,-0.246c0.003,0.078 -0.042,0.953 0.2,1.106l2.545,1.614c0.241,0.153 0.607,0.169 0.816,0.037l7.006,-4.443c0.209,-0.132 0.135,-0.893 0.14,-1.067c-0,-0 -0.021,0.148 -0.108,0.204c-0.185,0.118 -6.971,4.424 -6.971,4.424Z" style="fill:#6b6b6b;stroke:#000;stroke-width:0.1px;"/><path d="M93.401,76.214c-0.215,0.15 -0.568,0.203 -0.897,-0.005c-0.069,-0.046 -2.383,-1.499 -2.559,-1.624c-0.188,-0.132 -0.173,-0.246 -0.173,-0.246c0.004,0.078 -0.041,0.953 0.201,1.106l2.545,1.614c0.241,0.153 0.607,0.17 0.816,0.037l7.006,-4.442c0.209,-0.133 0.135,-0.894 0.139,-1.068c0,0 -0.02,0.149 -0.107,0.204c-0.185,0.118 -6.971,4.424 -6.971,4.424Z" style="fill:#6b6b6b;stroke:#000;stroke-width:0.1px;"/><path d="M103.086,70.065c-0.215,0.15 -0.568,0.202 -0.897,-0.006c-0.069,-0.046 -2.383,-1.499 -2.559,-1.623c-0.188,-0.133 -0.173,-0.247 -0.173,-0.247c0.004,0.079 -0.041,0.954 0.2,1.107l2.545,1.613c0.242,0.153 0.608,0.17 0.817,0.038l7.006,-4.443c0.209,-0.133 0.135,-0.893 0.139,-1.067c0,-0 -0.02,0.148 -0.107,0.203c-0.186,0.119 -6.971,4.425 -6.971,4.425Z" style="fill:#6b6b6b;stroke:#000;stroke-width:0.1px;"/><path d="M112.771,63.915c-0.215,0.15 -0.569,0.202 -0.897,-0.006c-0.069,-0.045 -2.383,-1.499 -2.559,-1.623c-0.188,-0.132 -0.173,-0.246 -0.173,-0.246c0.004,0.078 -0.041,0.953 0.2,1.106l2.545,1.614c0.242,0.153 0.607,0.169 0.817,0.037l7.006,-4.443c0.209,-0.132 0.135,-0.893 0.139,-1.067c0,-0 -0.02,0.148 -0.107,0.204c-0.186,0.118 -6.971,4.424 -6.971,4.424Z" style="fill:#6b6b6b;stroke:#000;stroke-width:0.1px;"/><path d="M122.455,57.765c-0.214,0.15 -0.568,0.203 -0.896,-0.005c-0.069,-0.046 -2.383,-1.499 -2.559,-1.624c-0.188,-0.132 -0.173,-0.246 -0.173,-0.246c0.003,0.078 -0.041,0.953 0.2,1.106l2.545,1.614c0.241,0.153 0.607,0.17 0.816,0.037l7.006,-4.442c0.209,-0.133 0.135,-0.894 0.14,-1.068c-0,0 -0.021,0.149 -0.107,0.204c-0.186,0.118 -6.972,4.424 -6.972,4.424Z" style="fill:#6b6b6b;stroke:#000;stroke-width:0.1px;"/><path d="M132.14,51.615c-0.215,0.151 -0.568,0.203 -0.897,-0.005c-0.069,-0.046 -2.382,-1.499 -2.559,-1.623c-0.188,-0.133 -0.172,-0.247 -0.172,-0.247c0.003,0.079 -0.042,0.953 0.2,1.107l2.545,1.613c0.241,0.153 0.607,0.17 0.816,0.037l7.006,-4.442c0.209,-0.133 0.135,-0.893 0.14,-1.067c-0,-0 -0.021,0.148 -0.108,0.203c-0.185,0.119 -6.971,4.424 -6.971,4.424Z" style="fill:#6b6b6b;stroke:#000;stroke-width:0.1px;"/><path d="M113.03,125.42c-0.297,0.201 -0.616,0.186 -0.95,0.029l-6.964,-4.413c-0.084,-0.083 -0.103,-0.148 -0.103,-0.208c0.008,0.179 -0.051,0.95 0.19,1.103l6.892,4.37c0.242,0.153 0.608,0.17 0.817,0.037l26.395,-16.737c0.209,-0.132 0.153,-0.871 0.138,-1.07c0.007,0.06 -0.023,0.13 -0.149,0.224l-26.266,16.665Z" style="fill:#6b6b6b;stroke:#000;stroke-width:0.1px;"/><path d="M171.181,88.549c-0.297,0.201 -0.627,0.184 -0.981,0.008l-6.801,-4.312c-0.207,-0.151 -0.246,-0.244 -0.238,-0.321c-0,0 -0.047,0.979 0.195,1.133l6.892,4.37c0.241,0.153 0.607,0.17 0.816,0.037l16.712,-10.597c0.209,-0.132 0.148,-1.07 0.148,-1.07c0.005,0.072 -0.059,0.159 -0.22,0.267l-16.523,10.485Z" style="fill:#6b6b6b;stroke:#000;stroke-width:0.1px;"/><path d="M35.565,137.696c-0.329,0.212 -0.649,0.194 -0.956,0.019c0,0 -5.749,-3.648 -6.96,-4.42c-0.088,-0.057 -0.099,-0.233 -0.099,-0.233c-0.008,0.148 -0.044,0.986 0.197,1.139l6.892,4.37c0.242,0.153 0.608,0.17 0.817,0.037l11.709,-7.425c0.21,-0.133 0.138,-0.771 0.147,-1.051c-0,-0 -0.009,0.12 -0.199,0.241c-1.971,1.248 -11.548,7.323 -11.548,7.323Z" style="fill:#6b6b6b;stroke:#000;stroke-width:0.1px;"/><path d="M168.084,66.606c0.135,-0.086 0.219,-0.244 0.219,-0.416c-0,-0.172 -0.001,-0.897 -0.001,-0.897c0.025,0.186 -0.049,0.334 -0.191,0.455l-6.829,4.333c-0.211,0.158 -0.42,0.137 -0.627,-0.015l-8.843,-5.594c-0.251,-0.257 -0.526,-0.299 -0.836,-0.024l-4.225,2.689c-0.161,0.109 -0.348,0.11 -0.563,-0.016l-6.777,-4.295c-0.357,-0.315 -0.321,-0.602 -0.018,-0.869c-0,-0 -0.266,0.204 -0.24,0.474c0.017,0.17 -0.035,1.054 0.216,1.205c1.665,1.002 5.881,3.73 6.892,4.37c0.135,0.086 0.302,0.086 0.437,0c0.814,-0.515 3.658,-2.319 4.471,-2.834c0.135,-0.086 0.302,-0.086 0.438,-0c1.287,0.816 7.863,4.986 9.151,5.802c0.135,0.086 0.302,0.086 0.437,0c1.011,-0.64 5.245,-3.325 6.889,-4.368Z" style="fill:#6b6b6b;stroke:#000;stroke-width:0.1px;"/><path d="M49.888,128.622c-0.384,0.226 -0.688,0.073 -0.879,-0.032c0,0 -6.742,-4.276 -6.894,-4.375c-0.18,-0.117 -0.182,-0.294 -0.182,-0.294c0.002,0.121 -0.038,0.999 0.203,1.152l6.892,4.371c0.242,0.153 0.608,0.169 0.817,0.037l7.006,-4.443c0.209,-0.132 0.179,-0.78 0.136,-1.132c0,-0 0.032,0.175 -0.094,0.256c-1.175,0.759 -7.005,4.46 -7.005,4.46Z" style="fill:#6b6b6b;stroke:#000;stroke-width:0.1px;"/><path d="M59.575,122.471c-0.384,0.226 -0.688,0.073 -0.878,-0.032c-0,-0 -6.742,-4.276 -6.895,-4.375c-0.179,-0.117 -0.181,-0.294 -0.181,-0.294c0.001,0.121 -0.039,0.999 0.203,1.152l6.892,4.37c0.241,0.153 0.607,0.17 0.816,0.037l7.006,-4.442c0.209,-0.133 0.18,-0.78 0.137,-1.133c-0,0 0.031,0.176 -0.095,0.257c-1.175,0.759 -7.005,4.46 -7.005,4.46Z" style="fill:#6b6b6b;stroke:#000;stroke-width:0.1px;"/><path d="M69.262,116.319c-0.383,0.227 -0.687,0.073 -0.878,-0.031c0,-0 -6.742,-4.276 -6.894,-4.375c-0.18,-0.117 -0.182,-0.294 -0.182,-0.294c0.002,0.12 -0.038,0.998 0.203,1.152l6.892,4.37c0.242,0.153 0.608,0.17 0.817,0.037l7.006,-4.442c0.209,-0.133 0.179,-0.78 0.136,-1.133c0,-0 0.032,0.175 -0.094,0.257c-1.175,0.758 -7.006,4.459 -7.006,4.459Z" style="fill:#6b6b6b;stroke:#000;stroke-width:0.1px;"/><path d="M78.95,110.168c-0.384,0.226 -0.688,0.073 -0.879,-0.032c0,0 -6.742,-4.276 -6.894,-4.375c-0.179,-0.117 -0.181,-0.294 -0.181,-0.294c0.001,0.121 -0.039,0.999 0.203,1.152l6.892,4.37c0.241,0.154 0.607,0.17 0.816,0.038l7.006,-4.443c0.209,-0.132 0.18,-0.78 0.137,-1.132c-0,-0 0.031,0.175 -0.095,0.256c-1.175,0.759 -7.005,4.46 -7.005,4.46Z" style="fill:#6b6b6b;stroke:#000;stroke-width:0.1px;"/><path d="M88.637,104.017c-0.383,0.226 -0.687,0.073 -0.878,-0.032c-0,-0 -6.742,-4.276 -6.894,-4.375c-0.18,-0.117 -0.182,-0.294 -0.182,-0.294c0.002,0.121 -0.038,0.999 0.203,1.152l6.892,4.37c0.242,0.153 0.607,0.17 0.817,0.037l7.006,-4.442c0.209,-0.133 0.179,-0.78 0.136,-1.133c0,0 0.032,0.176 -0.094,0.257c-1.176,0.759 -7.006,4.46 -7.006,4.46Z" style="fill:#6b6b6b;stroke:#000;stroke-width:0.1px;"/><path d="M98.325,97.865c-0.384,0.226 -0.688,0.073 -0.879,-0.032c0,0 -6.742,-4.275 -6.894,-4.374c-0.18,-0.117 -0.181,-0.294 -0.181,-0.294c0.001,0.12 -0.039,0.998 0.202,1.151l6.893,4.371c0.241,0.153 0.607,0.17 0.816,0.037l7.006,-4.443c0.209,-0.132 0.179,-0.78 0.137,-1.132c-0,-0 0.031,0.175 -0.095,0.257c-1.175,0.758 -7.005,4.459 -7.005,4.459Z" style="fill:#6b6b6b;stroke:#000;stroke-width:0.1px;"/><path d="M108.012,91.714c-0.383,0.226 -0.687,0.073 -0.878,-0.032c-0,0 -6.742,-4.276 -6.894,-4.375c-0.18,-0.117 -0.182,-0.294 -0.182,-0.294c0.001,0.121 -0.039,0.999 0.203,1.152l6.892,4.37c0.242,0.153 0.607,0.17 0.817,0.038l7.005,-4.443c0.21,-0.133 0.18,-0.78 0.137,-1.133c0,0 0.032,0.176 -0.094,0.257c-1.176,0.759 -7.006,4.46 -7.006,4.46Z" style="fill:#6b6b6b;stroke:#000;stroke-width:0.1px;"/><path d="M117.7,85.562c-0.384,0.227 -0.688,0.074 -0.879,-0.031c0,-0 -6.742,-4.276 -6.894,-4.375c-0.18,-0.117 -0.181,-0.294 -0.181,-0.294c0.001,0.121 -0.039,0.999 0.202,1.152l6.893,4.37c0.241,0.153 0.607,0.17 0.816,0.037l7.006,-4.442c0.209,-0.133 0.179,-0.78 0.137,-1.133c-0,0 0.031,0.176 -0.095,0.257c-1.175,0.759 -7.005,4.459 -7.005,4.459Z" style="fill:#6b6b6b;stroke:#000;stroke-width:0.1px;"/><path d="M127.387,79.411c-0.384,0.226 -0.688,0.073 -0.878,-0.032c-0,0 -6.742,-4.275 -6.894,-4.374c-0.18,-0.118 -0.182,-0.295 -0.182,-0.295c0.001,0.121 -0.039,0.999 0.203,1.152l6.892,4.371c0.241,0.153 0.607,0.169 0.816,0.037l7.006,-4.443c0.209,-0.132 0.18,-0.78 0.137,-1.132c0,-0 0.031,0.175 -0.094,0.256c-1.176,0.759 -7.006,4.46 -7.006,4.46Z" style="fill:#6b6b6b;stroke:#000;stroke-width:0.1px;"/><path d="M137.075,73.26c-0.384,0.226 -0.688,0.073 -0.879,-0.032c0,-0 -6.742,-4.276 -6.894,-4.375c-0.18,-0.117 -0.182,-0.294 -0.182,-0.294c0.002,0.121 -0.038,0.999 0.203,1.152l6.892,4.37c0.242,0.153 0.608,0.17 0.817,0.037l7.006,-4.442c0.209,-0.133 0.179,-0.78 0.136,-1.133c0,0 0.032,0.176 -0.094,0.257c-1.175,0.759 -7.005,4.46 -7.005,4.46Z" style="fill:#6b6b6b;stroke:#000;stroke-width:0.1px;"/><path d="M44.994,143.89c-0.384,0.226 -0.688,0.073 -0.879,-0.032c0,-0 -6.742,-4.276 -6.894,-4.375c-0.18,-0.117 -0.181,-0.294 -0.181,-0.294c0.001,0.121 -0.039,0.999 0.203,1.152l6.892,4.37c0.241,0.153 0.607,0.17 0.816,0.037l7.006,-4.442c0.209,-0.133 0.179,-0.78 0.137,-1.133c-0,0 0.031,0.176 -0.095,0.257c-1.175,0.759 -7.005,4.46 -7.005,4.46Z" style="fill:#6b6b6b;stroke:#000;stroke-width:0.1px;"/><path d="M54.696,137.738c-0.383,0.226 -0.687,0.073 -0.878,-0.032c-0,0 -6.742,-4.276 -6.894,-4.375c-0.18,-0.117 -0.182,-0.294 -0.182,-0.294c0.001,0.121 -0.039,0.999 0.203,1.152l6.892,4.37c0.242,0.153 0.607,0.17 0.817,0.038l7.005,-4.443c0.21,-0.133 0.18,-0.78 0.137,-1.133c0,0 0.032,0.176 -0.094,0.257c-1.176,0.759 -7.006,4.46 -7.006,4.46Z" style="fill:#6b6b6b;stroke:#000;stroke-width:0.1px;"/><path d="M64.399,131.586c-0.384,0.226 -0.688,0.073 -0.879,-0.032c0,0 -6.742,-4.276 -6.894,-4.375c-0.18,-0.117 -0.181,-0.294 -0.181,-0.294c0.001,0.121 -0.039,0.999 0.202,1.152l6.893,4.371c0.241,0.153 0.607,0.169 0.816,0.037l7.006,-4.443c0.209,-0.132 0.179,-0.78 0.137,-1.132c-0,-0 0.031,0.175 -0.095,0.256c-1.175,0.759 -7.005,4.46 -7.005,4.46Z" style="fill:#6b6b6b;stroke:#000;stroke-width:0.1px;"/><path d="M74.101,125.434c-0.384,0.227 -0.687,0.073 -0.878,-0.031c-0,-0 -6.742,-4.276 -6.894,-4.375c-0.18,-0.117 -0.182,-0.294 -0.182,-0.294c0.001,0.12 -0.039,0.998 0.203,1.152l6.892,4.37c0.241,0.153 0.607,0.17 0.816,0.037l7.006,-4.442c0.209,-0.133 0.18,-0.78 0.137,-1.133c0,-0 0.031,0.175 -0.094,0.257c-1.176,0.758 -7.006,4.459 -7.006,4.459Z" style="fill:#6b6b6b;stroke:#000;stroke-width:0.1px;"/><path d="M83.804,119.283c-0.384,0.226 -0.688,0.073 -0.879,-0.032c0,-0 -6.742,-4.276 -6.894,-4.375c-0.18,-0.117 -0.182,-0.294 -0.182,-0.294c0.002,0.121 -0.038,0.999 0.203,1.152l6.892,4.37c0.242,0.153 0.608,0.17 0.817,0.037l7.006,-4.442c0.209,-0.133 0.179,-0.78 0.136,-1.133c0,0 0.032,0.176 -0.094,0.257c-1.175,0.759 -7.005,4.46 -7.005,4.46Z" style="fill:#6b6b6b;stroke:#000;stroke-width:0.1px;"/><path d="M93.506,113.131c-0.384,0.226 -0.688,0.073 -0.878,-0.032c-0,0 -6.743,-4.276 -6.895,-4.375c-0.179,-0.117 -0.181,-0.294 -0.181,-0.294c0.001,0.121 -0.039,0.999 0.203,1.152l6.892,4.37c0.241,0.154 0.607,0.17 0.816,0.038l7.006,-4.443c0.209,-0.133 0.18,-0.78 0.137,-1.133c-0,0 0.031,0.176 -0.095,0.257c-1.175,0.759 -7.005,4.46 -7.005,4.46Z" style="fill:#6b6b6b;stroke:#000;stroke-width:0.1px;"/><path d="M103.208,106.979c-0.383,0.226 -0.687,0.073 -0.878,-0.032c0,0 -6.742,-4.275 -6.894,-4.374c-0.18,-0.118 -0.182,-0.295 -0.182,-0.295c0.002,0.121 -0.038,0.999 0.203,1.152l6.892,4.371c0.242,0.153 0.608,0.169 0.817,0.037l7.006,-4.443c0.209,-0.132 0.179,-0.78 0.136,-1.132c0,-0 0.032,0.175 -0.094,0.256c-1.175,0.759 -7.006,4.46 -7.006,4.46Z" style="fill:#6b6b6b;stroke:#000;stroke-width:0.1px;"/><path d="M112.911,100.827c-0.384,0.227 -0.688,0.074 -0.879,-0.031c0,-0 -6.742,-4.276 -6.894,-4.375c-0.179,-0.117 -0.181,-0.294 -0.181,-0.294c0.001,0.12 -0.039,0.999 0.203,1.152l6.892,4.37c0.241,0.153 0.607,0.17 0.816,0.037l7.006,-4.442c0.209,-0.133 0.18,-0.78 0.137,-1.133c-0,-0 0.031,0.176 -0.095,0.257c-1.175,0.759 -7.005,4.459 -7.005,4.459Z" style="fill:#6b6b6b;stroke:#000;stroke-width:0.1px;"/><path d="M122.613,94.676c-0.383,0.226 -0.687,0.073 -0.878,-0.032c-0,-0 -6.742,-4.276 -6.894,-4.375c-0.18,-0.117 -0.182,-0.294 -0.182,-0.294c0.002,0.121 -0.038,0.999 0.203,1.152l6.892,4.37c0.242,0.153 0.607,0.17 0.817,0.037l7.006,-4.442c0.209,-0.133 0.179,-0.78 0.136,-1.133c0,0 0.032,0.176 -0.094,0.257c-1.176,0.759 -7.006,4.46 -7.006,4.46Z" style="fill:#6b6b6b;stroke:#000;stroke-width:0.1px;"/><path d="M132.316,88.524c-0.384,0.226 -0.688,0.073 -0.879,-0.032c0,0 -6.742,-4.276 -6.894,-4.375c-0.18,-0.117 -0.181,-0.294 -0.181,-0.294c0.001,0.121 -0.039,0.999 0.202,1.152l6.893,4.37c0.241,0.154 0.607,0.17 0.816,0.038l7.006,-4.443c0.209,-0.132 0.179,-0.78 0.137,-1.132c-0,-0 0.031,0.175 -0.095,0.256c-1.175,0.759 -7.005,4.46 -7.005,4.46Z" style="fill:#6b6b6b;stroke:#000;stroke-width:0.1px;"/><path d="M142.018,82.372c-0.383,0.226 -0.687,0.073 -0.878,-0.032c-0,0 -6.742,-4.275 -6.894,-4.374c-0.18,-0.117 -0.182,-0.295 -0.182,-0.295c0.001,0.121 -0.039,0.999 0.203,1.152l6.892,4.371c0.242,0.153 0.607,0.169 0.816,0.037l7.006,-4.443c0.21,-0.132 0.18,-0.78 0.137,-1.132c0,-0 0.032,0.175 -0.094,0.257c-1.176,0.758 -7.006,4.459 -7.006,4.459Z" style="fill:#6b6b6b;stroke:#000;stroke-width:0.1px;"/><path d="M151.721,76.22c-0.384,0.227 -0.688,0.074 -0.879,-0.031c0,-0 -6.742,-4.276 -6.894,-4.375c-0.18,-0.117 -0.181,-0.294 -0.181,-0.294c0.001,0.121 -0.039,0.999 0.202,1.152l6.892,4.37c0.242,0.153 0.608,0.17 0.817,0.037l7.006,-4.442c0.209,-0.133 0.179,-0.78 0.137,-1.133c-0,0 0.031,0.176 -0.095,0.257c-1.175,0.759 -7.005,4.459 -7.005,4.459Z" style="fill:#6b6b6b;stroke:#000;stroke-width:0.1px;"/><path d="M69.251,140.877c-0.383,0.226 -0.687,0.073 -0.878,-0.032c-0,-0 -6.742,-4.276 -6.894,-4.375c-0.18,-0.117 -0.182,-0.294 -0.182,-0.294c0.001,0.121 -0.038,0.999 0.203,1.152l6.892,4.37c0.242,0.153 0.607,0.17 0.817,0.037l7.006,-4.442c0.209,-0.133 0.179,-0.78 0.136,-1.133c0,0 0.032,0.176 -0.094,0.257c-1.176,0.759 -7.006,4.46 -7.006,4.46Z" style="fill:#6b6b6b;stroke:#000;stroke-width:0.1px;"/><path d="M78.936,134.722c-0.383,0.226 -0.687,0.073 -0.878,-0.032c-0,0 -6.742,-4.276 -6.894,-4.375c-0.18,-0.117 -0.182,-0.294 -0.182,-0.294c0.002,0.121 -0.038,0.999 0.203,1.152l6.892,4.371c0.242,0.153 0.608,0.169 0.817,0.037l7.006,-4.443c0.209,-0.132 0.179,-0.78 0.136,-1.132c0,-0 0.032,0.175 -0.094,0.256c-1.175,0.759 -7.006,4.46 -7.006,4.46Z" style="fill:#6b6b6b;stroke:#000;stroke-width:0.1px;"/><path d="M88.621,128.568c-0.383,0.226 -0.687,0.073 -0.878,-0.032c0,-0 -6.742,-4.276 -6.894,-4.375c-0.18,-0.117 -0.182,-0.294 -0.182,-0.294c0.002,0.121 -0.038,0.999 0.203,1.152l6.892,4.37c0.242,0.153 0.608,0.17 0.817,0.037l7.006,-4.442c0.209,-0.133 0.179,-0.78 0.136,-1.133c0,0 0.032,0.176 -0.094,0.257c-1.175,0.759 -7.006,4.46 -7.006,4.46Z" style="fill:#6b6b6b;stroke:#000;stroke-width:0.1px;"/><path d="M98.306,122.413c-0.383,0.226 -0.687,0.073 -0.878,-0.032c0,0 -6.742,-4.276 -6.894,-4.375c-0.18,-0.117 -0.182,-0.294 -0.182,-0.294c0.002,0.121 -0.038,0.999 0.203,1.152l6.892,4.371c0.242,0.153 0.608,0.169 0.817,0.037l7.006,-4.443c0.209,-0.132 0.179,-0.78 0.136,-1.132c0,-0 0.032,0.175 -0.094,0.256c-1.175,0.759 -7.006,4.46 -7.006,4.46Z" style="fill:#6b6b6b;stroke:#000;stroke-width:0.1px;"/><path d="M107.992,116.259c-0.384,0.226 -0.688,0.073 -0.879,-0.032c0,-0 -6.742,-4.276 -6.894,-4.375c-0.18,-0.117 -0.181,-0.294 -0.181,-0.294c0.001,0.121 -0.039,0.999 0.202,1.152l6.892,4.37c0.242,0.153 0.608,0.17 0.817,0.037l7.006,-4.442c0.209,-0.133 0.179,-0.78 0.137,-1.133c-0,0 0.031,0.176 -0.095,0.257c-1.175,0.759 -7.005,4.46 -7.005,4.46Z" style="fill:#6b6b6b;stroke:#000;stroke-width:0.1px;"/><path d="M117.677,110.104c-0.384,0.226 -0.688,0.073 -0.879,-0.032c0,0 -6.742,-4.276 -6.894,-4.375c-0.18,-0.117 -0.181,-0.294 -0.181,-0.294c0.001,0.121 -0.039,0.999 0.202,1.152l6.893,4.371c0.241,0.153 0.607,0.169 0.816,0.037l7.006,-4.443c0.209,-0.132 0.179,-0.78 0.137,-1.132c-0,-0 0.031,0.175 -0.095,0.256c-1.175,0.759 -7.005,4.46 -7.005,4.46Z" style="fill:#6b6b6b;stroke:#000;stroke-width:0.1px;"/><path d="M127.362,103.949c-0.384,0.227 -0.688,0.074 -0.879,-0.031c0,-0 -6.742,-4.276 -6.894,-4.375c-0.18,-0.117 -0.181,-0.294 -0.181,-0.294c0.001,0.121 -0.039,0.999 0.203,1.152l6.892,4.37c0.241,0.153 0.607,0.17 0.816,0.037l7.006,-4.442c0.209,-0.133 0.179,-0.78 0.137,-1.133c-0,0 0.031,0.176 -0.095,0.257c-1.175,0.759 -7.005,4.459 -7.005,4.459Z" style="fill:#6b6b6b;stroke:#000;stroke-width:0.1px;"/><path d="M137.047,97.795c-0.384,0.226 -0.688,0.073 -0.879,-0.032c0,0 -6.742,-4.276 -6.894,-4.375c-0.179,-0.117 -0.181,-0.294 -0.181,-0.294c0.001,0.121 -0.039,0.999 0.203,1.152l6.892,4.37c0.241,0.154 0.607,0.17 0.816,0.038l7.006,-4.443c0.209,-0.132 0.18,-0.78 0.137,-1.132c-0,-0 0.031,0.175 -0.095,0.256c-1.175,0.759 -7.005,4.46 -7.005,4.46Z" style="fill:#6b6b6b;stroke:#000;stroke-width:0.1px;"/><path d="M146.732,91.64c-0.384,0.227 -0.688,0.074 -0.878,-0.031c-0,-0 -6.743,-4.276 -6.895,-4.375c-0.179,-0.117 -0.181,-0.294 -0.181,-0.294c0.001,0.121 -0.039,0.999 0.203,1.152l6.892,4.37c0.241,0.153 0.607,0.17 0.816,0.037l7.006,-4.442c0.209,-0.133 0.18,-0.78 0.137,-1.133c-0,0 0.031,0.176 -0.095,0.257c-1.175,0.759 -7.005,4.459 -7.005,4.459Z" style="fill:#6b6b6b;stroke:#000;stroke-width:0.1px;"/><path d="M156.417,85.486c-0.384,0.226 -0.688,0.073 -0.878,-0.032c-0,0 -6.742,-4.276 -6.894,-4.375c-0.18,-0.117 -0.182,-0.294 -0.182,-0.294c0.001,0.121 -0.039,0.999 0.203,1.152l6.892,4.37c0.241,0.154 0.607,0.17 0.816,0.038l7.006,-4.443c0.209,-0.132 0.18,-0.78 0.137,-1.132c-0,-0 0.031,0.175 -0.094,0.256c-1.176,0.759 -7.006,4.46 -7.006,4.46Z" style="fill:#6b6b6b;stroke:#000;stroke-width:0.1px;"/><path d="M83.861,143.914c-0.384,0.226 -0.687,0.073 -0.878,-0.032c-0,-0 -6.742,-4.276 -6.894,-4.375c-0.18,-0.117 -0.182,-0.294 -0.182,-0.294c0.001,0.121 -0.039,0.999 0.203,1.152l6.892,4.37c0.241,0.153 0.607,0.17 0.816,0.037l7.006,-4.442c0.21,-0.133 0.18,-0.78 0.137,-1.133c0,0 0.031,0.176 -0.094,0.257c-1.176,0.759 -7.006,4.46 -7.006,4.46Z" style="fill:#6b6b6b;stroke:#000;stroke-width:0.1px;"/><path d="M93.553,137.766c-0.384,0.226 -0.688,0.073 -0.879,-0.032c0,-0 -6.742,-4.276 -6.894,-4.375c-0.179,-0.117 -0.181,-0.294 -0.181,-0.294c0.001,0.121 -0.039,0.999 0.203,1.152l6.892,4.37c0.241,0.153 0.607,0.17 0.816,0.037l7.006,-4.442c0.209,-0.133 0.179,-0.78 0.137,-1.133c-0,0 0.031,0.176 -0.095,0.257c-1.175,0.759 -7.005,4.46 -7.005,4.46Z" style="fill:#6b6b6b;stroke:#000;stroke-width:0.1px;"/><path d="M103.245,131.618c-0.384,0.226 -0.688,0.073 -0.879,-0.032c0,-0 -6.742,-4.276 -6.894,-4.375c-0.18,-0.117 -0.182,-0.294 -0.182,-0.294c0.002,0.121 -0.038,0.999 0.203,1.152l6.892,4.37c0.242,0.153 0.608,0.17 0.817,0.037l7.006,-4.442c0.209,-0.133 0.179,-0.78 0.136,-1.133c0,0 0.032,0.176 -0.094,0.257c-1.175,0.759 -7.005,4.46 -7.005,4.46Z" style="fill:#6b6b6b;stroke:#000;stroke-width:0.1px;"/><path d="M142.011,107.026c-0.383,0.226 -0.687,0.073 -0.878,-0.032c0,-0 -6.742,-4.276 -6.894,-4.375c-0.18,-0.117 -0.182,-0.294 -0.182,-0.294c0.002,0.121 -0.038,0.999 0.203,1.152l6.892,4.37c0.242,0.153 0.608,0.17 0.817,0.037l7.006,-4.442c0.209,-0.133 0.179,-0.78 0.136,-1.133c0,0 0.032,0.176 -0.094,0.257c-1.175,0.759 -7.006,4.46 -7.006,4.46Z" style="fill:#6b6b6b;stroke:#000;stroke-width:0.1px;"/><path d="M151.703,100.878c-0.384,0.226 -0.687,0.073 -0.878,-0.032c-0,-0 -6.742,-4.276 -6.894,-4.375c-0.18,-0.117 -0.182,-0.294 -0.182,-0.294c0.001,0.121 -0.039,0.999 0.203,1.152l6.892,4.37c0.241,0.153 0.607,0.17 0.816,0.037l7.006,-4.442c0.21,-0.133 0.18,-0.78 0.137,-1.133c0,0 0.031,0.176 -0.094,0.257c-1.176,0.759 -7.006,4.46 -7.006,4.46Z" style="fill:#6b6b6b;stroke:#000;stroke-width:0.1px;"/><path d="M161.395,94.73c-0.384,0.226 -0.688,0.073 -0.879,-0.032c0,-0 -6.742,-4.276 -6.894,-4.375c-0.179,-0.117 -0.181,-0.294 -0.181,-0.294c0.001,0.121 -0.039,0.999 0.203,1.152l6.892,4.37c0.241,0.153 0.607,0.17 0.816,0.037l7.006,-4.442c0.209,-0.133 0.18,-0.78 0.137,-1.133c-0,0 0.031,0.176 -0.095,0.257c-1.175,0.759 -7.005,4.46 -7.005,4.46Z" style="fill:#6b6b6b;stroke:#000;stroke-width:0.1px;"/><path d="M64.546,156.166c-0.297,0.201 -0.627,0.184 -0.981,0.008l-6.801,-4.312c-0.207,-0.151 -0.246,-0.244 -0.238,-0.321c-0,0 -0.047,0.979 0.194,1.133l6.892,4.37c0.242,0.153 0.608,0.17 0.817,0.037l16.712,-10.597c0.209,-0.133 0.148,-1.07 0.148,-1.07c0.005,0.072 -0.059,0.159 -0.221,0.267l-16.522,10.485Z" style="fill:#6b6b6b;stroke:#000;stroke-width:0.1px;"/><path d="M54.894,149.955c-0.329,0.212 -0.649,0.195 -0.955,0.02c-0,-0 -5.749,-3.649 -6.96,-4.421c-0.089,-0.057 -0.1,-0.233 -0.1,-0.233c-0.007,0.149 -0.044,0.986 0.198,1.139l6.892,4.37c0.241,0.153 0.607,0.17 0.816,0.037l11.71,-7.425c0.209,-0.132 0.138,-0.771 0.146,-1.051c0,0 -0.008,0.12 -0.198,0.241c-1.971,1.248 -11.549,7.323 -11.549,7.323Z" style="fill:#6b6b6b;stroke:#000;stroke-width:0.1px;"/><path d="M166.297,79.341c-0.337,0.217 -0.661,0.202 -0.968,0.027c0,-0 -5.748,-3.648 -6.959,-4.421c-0.089,-0.057 -0.097,-0.235 -0.097,-0.235c-0.01,0.15 -0.063,0.998 0.179,1.151l6.892,4.37c0.241,0.153 0.611,0.168 0.825,0.032l11.984,-7.599c0.214,-0.136 0.154,-0.782 0.168,-1.065c-0,0 -0.011,0.122 -0.206,0.245c-2.017,1.277 -11.818,7.495 -11.818,7.495Z" style="fill:#6b6b6b;stroke:#000;stroke-width:0.1px;"/></g><path d="M25.607,119.262c-0.215,0.15 -0.568,0.203 -0.897,-0.005c-0.069,-0.046 -2.382,-1.5 -2.559,-1.624c-0.188,-0.132 -0.172,-0.246 -0.172,-0.246c0.003,0.078 -0.042,0.953 0.2,1.106l2.545,1.614c0.241,0.153 0.607,0.17 0.816,0.037l7.006,-4.443c0.209,-0.132 0.135,-0.893 0.14,-1.067c-0,0 -0.021,0.148 -0.108,0.204c-0.185,0.118 -6.971,4.424 -6.971,4.424Z" style="fill:#0f0f0f;stroke:#000;stroke-width:0.1px;"/><path d="M25.651,122.299c-0.242,-0.153 -0.615,-0.165 -0.833,-0.027l-6.973,4.421c-0.218,0.139 -0.199,0.376 0.042,0.529l6.892,4.37c0.242,0.153 0.615,0.165 0.833,0.027l6.973,-4.422c0.218,-0.138 0.199,-0.375 -0.042,-0.528l-6.892,-4.37Z" style="fill:#0f0f0f;stroke:#000;stroke-width:0.1px;"/><path d="M49.9,119.31c-0.241,-0.153 -0.615,-0.165 -0.833,-0.027l-6.972,4.421c-0.219,0.139 -0.2,0.376 0.041,0.529l6.892,4.37c0.242,0.153 0.615,0.165 0.834,0.027l6.972,-4.422c0.218,-0.138 0.2,-0.375 -0.042,-0.528l-6.892,-4.37Z" style="fill:#0f0f0f;stroke:#000;stroke-width:0.1px;"/><path d="M59.588,113.158c-0.242,-0.153 -0.615,-0.165 -0.834,-0.026l-6.972,4.421c-0.218,0.139 -0.2,0.375 0.042,0.528l6.892,4.371c0.241,0.153 0.615,0.165 0.833,0.026l6.972,-4.421c0.219,-0.138 0.2,-0.375 -0.041,-0.528l-6.892,-4.371Z" style="fill:#0f0f0f;stroke:#000;stroke-width:0.1px;"/><path d="M69.275,107.007c-0.242,-0.153 -0.615,-0.165 -0.833,-0.026l-6.973,4.421c-0.218,0.138 -0.199,0.375 0.042,0.528l6.892,4.37c0.242,0.153 0.615,0.165 0.834,0.027l6.972,-4.421c0.218,-0.139 0.2,-0.376 -0.042,-0.529l-6.892,-4.37Z" style="fill:#0f0f0f;stroke:#000;stroke-width:0.1px;"/><path d="M78.962,100.856c-0.241,-0.153 -0.614,-0.165 -0.833,-0.027l-6.972,4.421c-0.219,0.139 -0.2,0.376 0.042,0.529l6.892,4.37c0.241,0.153 0.615,0.165 0.833,0.026l6.972,-4.421c0.219,-0.138 0.2,-0.375 -0.041,-0.528l-6.893,-4.37Z" style="fill:#0f0f0f;stroke:#000;stroke-width:0.1px;"/><path d="M88.65,94.704c-0.242,-0.153 -0.615,-0.165 -0.833,-0.026l-6.973,4.421c-0.218,0.138 -0.199,0.375 0.042,0.528l6.892,4.371c0.242,0.153 0.615,0.165 0.833,0.026l6.973,-4.421c0.218,-0.139 0.199,-0.375 -0.042,-0.528l-6.892,-4.371Z" style="fill:#0f0f0f;stroke:#000;stroke-width:0.1px;"/><path d="M98.337,88.553c-0.241,-0.153 -0.615,-0.165 -0.833,-0.027l-6.972,4.422c-0.219,0.138 -0.2,0.375 0.041,0.528l6.893,4.37c0.241,0.153 0.614,0.165 0.833,0.027l6.972,-4.421c0.219,-0.139 0.2,-0.376 -0.042,-0.529l-6.892,-4.37Z" style="fill:#0f0f0f;stroke:#000;stroke-width:0.1px;"/><path d="M108.025,82.402c-0.242,-0.154 -0.615,-0.165 -0.834,-0.027l-6.972,4.421c-0.218,0.139 -0.2,0.375 0.042,0.529l6.892,4.37c0.242,0.153 0.615,0.165 0.833,0.026l6.973,-4.421c0.218,-0.138 0.199,-0.375 -0.042,-0.528l-6.892,-4.37Z" style="fill:#0f0f0f;stroke:#000;stroke-width:0.1px;"/><path d="M117.712,76.25c-0.241,-0.153 -0.615,-0.165 -0.833,-0.026l-6.972,4.421c-0.219,0.138 -0.2,0.375 0.041,0.528l6.893,4.371c0.241,0.153 0.614,0.165 0.833,0.026l6.972,-4.421c0.218,-0.139 0.2,-0.375 -0.042,-0.528l-6.892,-4.371Z" style="fill:#0f0f0f;stroke:#000;stroke-width:0.1px;"/><path d="M127.4,70.099c-0.242,-0.153 -0.615,-0.165 -0.834,-0.027l-6.972,4.421c-0.218,0.139 -0.2,0.376 0.042,0.529l6.892,4.37c0.241,0.153 0.615,0.165 0.833,0.027l6.973,-4.421c0.218,-0.139 0.199,-0.376 -0.042,-0.529l-6.892,-4.37Z" style="fill:#0f0f0f;stroke:#000;stroke-width:0.1px;"/><path d="M137.087,63.947c-0.241,-0.153 -0.615,-0.164 -0.833,-0.026l-6.973,4.421c-0.218,0.139 -0.199,0.375 0.042,0.528l6.892,4.371c0.242,0.153 0.615,0.165 0.834,0.026l6.972,-4.421c0.218,-0.138 0.2,-0.375 -0.042,-0.528l-6.892,-4.371Z" style="fill:#0f0f0f;stroke:#000;stroke-width:0.1px;"/><path d="M45.006,134.577c-0.241,-0.153 -0.615,-0.165 -0.833,-0.026l-6.972,4.421c-0.219,0.138 -0.2,0.375 0.042,0.528l6.892,4.371c0.241,0.153 0.615,0.165 0.833,0.026l6.972,-4.421c0.219,-0.139 0.2,-0.375 -0.042,-0.528l-6.892,-4.371Z" style="fill:#0f0f0f;stroke:#000;stroke-width:0.1px;"/><path d="M54.709,128.426c-0.242,-0.154 -0.615,-0.165 -0.834,-0.027l-6.972,4.421c-0.218,0.139 -0.2,0.375 0.042,0.529l6.892,4.37c0.242,0.153 0.615,0.165 0.833,0.026l6.973,-4.421c0.218,-0.138 0.199,-0.375 -0.042,-0.528l-6.892,-4.37Z" style="fill:#0f0f0f;stroke:#000;stroke-width:0.1px;"/><path d="M64.411,122.274c-0.241,-0.153 -0.615,-0.165 -0.833,-0.027l-6.972,4.421c-0.219,0.139 -0.2,0.376 0.041,0.529l6.893,4.37c0.241,0.153 0.614,0.165 0.833,0.027l6.972,-4.422c0.219,-0.138 0.2,-0.375 -0.042,-0.528l-6.892,-4.37Z" style="fill:#0f0f0f;stroke:#000;stroke-width:0.1px;"/><path d="M74.114,116.122c-0.242,-0.153 -0.615,-0.165 -0.834,-0.026l-6.972,4.421c-0.218,0.138 -0.2,0.375 0.042,0.528l6.892,4.37c0.241,0.153 0.615,0.165 0.833,0.027l6.973,-4.421c0.218,-0.139 0.199,-0.376 -0.042,-0.529l-6.892,-4.37Z" style="fill:#0f0f0f;stroke:#000;stroke-width:0.1px;"/><path d="M83.816,109.97c-0.241,-0.153 -0.615,-0.165 -0.833,-0.026l-6.973,4.421c-0.218,0.138 -0.199,0.375 0.042,0.528l6.892,4.371c0.242,0.153 0.615,0.165 0.834,0.026l6.972,-4.421c0.218,-0.138 0.2,-0.375 -0.042,-0.528l-6.892,-4.371Z" style="fill:#0f0f0f;stroke:#000;stroke-width:0.1px;"/><path d="M93.518,103.819c-0.241,-0.154 -0.614,-0.165 -0.833,-0.027l-6.972,4.421c-0.218,0.139 -0.2,0.375 0.042,0.529l6.892,4.37c0.241,0.153 0.615,0.165 0.833,0.026l6.972,-4.421c0.219,-0.138 0.2,-0.375 -0.041,-0.528l-6.893,-4.37Z" style="fill:#0f0f0f;stroke:#000;stroke-width:0.1px;"/><path d="M103.221,97.667c-0.242,-0.153 -0.615,-0.165 -0.833,-0.027l-6.973,4.421c-0.218,0.139 -0.199,0.376 0.042,0.529l6.892,4.37c0.242,0.153 0.615,0.165 0.834,0.027l6.972,-4.421c0.218,-0.139 0.2,-0.376 -0.042,-0.529l-6.892,-4.37Z" style="fill:#0f0f0f;stroke:#000;stroke-width:0.1px;"/><path d="M112.923,91.515c-0.241,-0.153 -0.614,-0.165 -0.833,-0.026l-6.972,4.421c-0.219,0.138 -0.2,0.375 0.042,0.528l6.892,4.37c0.241,0.154 0.615,0.165 0.833,0.027l6.972,-4.421c0.219,-0.139 0.2,-0.375 -0.041,-0.529l-6.893,-4.37Z" style="fill:#0f0f0f;stroke:#000;stroke-width:0.1px;"/><path d="M122.626,85.363c-0.242,-0.153 -0.615,-0.165 -0.833,-0.026l-6.973,4.421c-0.218,0.139 -0.199,0.375 0.042,0.528l6.892,4.371c0.242,0.153 0.615,0.165 0.833,0.026l6.973,-4.421c0.218,-0.138 0.199,-0.375 -0.042,-0.528l-6.892,-4.371Z" style="fill:#0f0f0f;stroke:#000;stroke-width:0.1px;"/><path d="M132.328,79.212c-0.241,-0.153 -0.615,-0.165 -0.833,-0.027l-6.972,4.421c-0.219,0.139 -0.2,0.376 0.041,0.529l6.893,4.37c0.241,0.153 0.614,0.165 0.833,0.026l6.972,-4.421c0.219,-0.138 0.2,-0.375 -0.042,-0.528l-6.892,-4.37Z" style="fill:#0f0f0f;stroke:#000;stroke-width:0.1px;"/><path d="M142.031,73.06c-0.242,-0.153 -0.615,-0.165 -0.834,-0.027l-6.972,4.422c-0.218,0.138 -0.2,0.375 0.042,0.528l6.892,4.37c0.242,0.153 0.615,0.165 0.833,0.027l6.973,-4.421c0.218,-0.139 0.199,-0.376 -0.042,-0.529l-6.892,-4.37Z" style="fill:#0f0f0f;stroke:#000;stroke-width:0.1px;"/><path d="M151.733,66.908c-0.241,-0.153 -0.615,-0.165 -0.833,-0.026l-6.972,4.421c-0.219,0.138 -0.2,0.375 0.041,0.528l6.892,4.37c0.242,0.154 0.615,0.165 0.834,0.027l6.972,-4.421c0.218,-0.139 0.2,-0.375 -0.042,-0.529l-6.892,-4.37Z" style="fill:#0f0f0f;stroke:#000;stroke-width:0.1px;"/><path d="M69.264,131.564c-0.242,-0.153 -0.615,-0.165 -0.834,-0.026l-6.972,4.421c-0.218,0.138 -0.199,0.375 0.042,0.528l6.892,4.371c0.242,0.153 0.615,0.165 0.833,0.026l6.973,-4.421c0.218,-0.139 0.199,-0.375 -0.042,-0.528l-6.892,-4.371Z" style="fill:#0f0f0f;stroke:#000;stroke-width:0.1px;"/><path d="M78.949,125.41c-0.242,-0.153 -0.615,-0.165 -0.833,-0.027l-6.973,4.421c-0.218,0.139 -0.199,0.376 0.042,0.529l6.892,4.37c0.242,0.153 0.615,0.165 0.833,0.027l6.973,-4.422c0.218,-0.138 0.199,-0.375 -0.042,-0.528l-6.892,-4.37Z" style="fill:#0f0f0f;stroke:#000;stroke-width:0.1px;"/><path d="M88.634,119.255c-0.242,-0.153 -0.615,-0.165 -0.833,-0.026l-6.973,4.421c-0.218,0.138 -0.199,0.375 0.042,0.528l6.892,4.371c0.242,0.153 0.615,0.165 0.834,0.026l6.972,-4.421c0.218,-0.139 0.2,-0.375 -0.042,-0.528l-6.892,-4.371Z" style="fill:#0f0f0f;stroke:#000;stroke-width:0.1px;"/><path d="M98.319,113.101c-0.241,-0.153 -0.615,-0.165 -0.833,-0.027l-6.973,4.421c-0.218,0.139 -0.199,0.376 0.042,0.529l6.892,4.37c0.242,0.153 0.615,0.165 0.834,0.027l6.972,-4.422c0.218,-0.138 0.2,-0.375 -0.042,-0.528l-6.892,-4.37Z" style="fill:#0f0f0f;stroke:#000;stroke-width:0.1px;"/><path d="M108.004,106.946c-0.241,-0.153 -0.615,-0.165 -0.833,-0.026l-6.972,4.421c-0.219,0.138 -0.2,0.375 0.041,0.528l6.892,4.371c0.242,0.153 0.615,0.165 0.834,0.026l6.972,-4.421c0.218,-0.139 0.2,-0.375 -0.042,-0.528l-6.892,-4.371Z" style="fill:#0f0f0f;stroke:#000;stroke-width:0.1px;"/><path d="M117.689,100.792c-0.241,-0.153 -0.615,-0.165 -0.833,-0.027l-6.972,4.421c-0.219,0.139 -0.2,0.376 0.041,0.529l6.893,4.37c0.241,0.153 0.614,0.165 0.833,0.027l6.972,-4.422c0.219,-0.138 0.2,-0.375 -0.042,-0.528l-6.892,-4.37Z" style="fill:#0f0f0f;stroke:#000;stroke-width:0.1px;"/><path d="M127.374,94.637c-0.241,-0.153 -0.615,-0.165 -0.833,-0.026l-6.972,4.421c-0.219,0.138 -0.2,0.375 0.042,0.528l6.892,4.371c0.241,0.153 0.615,0.164 0.833,0.026l6.972,-4.421c0.219,-0.139 0.2,-0.375 -0.042,-0.529l-6.892,-4.37Z" style="fill:#0f0f0f;stroke:#000;stroke-width:0.1px;"/><path d="M137.059,88.483c-0.241,-0.153 -0.614,-0.165 -0.833,-0.027l-6.972,4.421c-0.219,0.139 -0.2,0.376 0.042,0.529l6.892,4.37c0.241,0.153 0.615,0.165 0.833,0.026l6.972,-4.421c0.219,-0.138 0.2,-0.375 -0.041,-0.528l-6.893,-4.37Z" style="fill:#0f0f0f;stroke:#000;stroke-width:0.1px;"/><path d="M146.744,82.328c-0.241,-0.153 -0.614,-0.165 -0.833,-0.026l-6.972,4.421c-0.219,0.138 -0.2,0.375 0.042,0.528l6.892,4.37c0.241,0.154 0.615,0.165 0.833,0.027l6.972,-4.421c0.219,-0.139 0.2,-0.375 -0.041,-0.529l-6.893,-4.37Z" style="fill:#0f0f0f;stroke:#000;stroke-width:0.1px;"/><path d="M156.43,76.174c-0.242,-0.153 -0.615,-0.165 -0.834,-0.027l-6.972,4.421c-0.218,0.139 -0.2,0.376 0.042,0.529l6.892,4.37c0.241,0.153 0.615,0.165 0.833,0.026l6.972,-4.421c0.219,-0.138 0.2,-0.375 -0.041,-0.528l-6.892,-4.37Z" style="fill:#0f0f0f;stroke:#000;stroke-width:0.1px;"/><path d="M83.874,134.601c-0.242,-0.153 -0.615,-0.165 -0.834,-0.026l-6.972,4.421c-0.218,0.138 -0.2,0.375 0.042,0.528l6.892,4.371c0.241,0.153 0.615,0.165 0.833,0.026l6.973,-4.421c0.218,-0.139 0.199,-0.375 -0.042,-0.528l-6.892,-4.371Z" style="fill:#0f0f0f;stroke:#000;stroke-width:0.1px;"/><path d="M93.565,128.453c-0.241,-0.153 -0.614,-0.165 -0.833,-0.026l-6.972,4.421c-0.219,0.138 -0.2,0.375 0.042,0.528l6.892,4.371c0.241,0.153 0.615,0.165 0.833,0.026l6.972,-4.421c0.219,-0.139 0.2,-0.375 -0.042,-0.528l-6.892,-4.371Z" style="fill:#0f0f0f;stroke:#000;stroke-width:0.1px;"/><path d="M103.257,122.305c-0.241,-0.153 -0.615,-0.165 -0.833,-0.026l-6.972,4.421c-0.219,0.138 -0.2,0.375 0.041,0.528l6.892,4.371c0.242,0.153 0.615,0.165 0.834,0.026l6.972,-4.421c0.218,-0.139 0.2,-0.375 -0.042,-0.528l-6.892,-4.371Z" style="fill:#0f0f0f;stroke:#000;stroke-width:0.1px;"/><path d="M142.024,97.713c-0.242,-0.153 -0.615,-0.165 -0.833,-0.026l-6.973,4.421c-0.218,0.139 -0.199,0.375 0.042,0.528l6.892,4.371c0.242,0.153 0.615,0.165 0.834,0.026l6.972,-4.421c0.218,-0.138 0.2,-0.375 -0.042,-0.528l-6.892,-4.371Z" style="fill:#0f0f0f;stroke:#000;stroke-width:0.1px;"/><path d="M151.716,91.565c-0.242,-0.153 -0.615,-0.165 -0.834,-0.026l-6.972,4.421c-0.218,0.139 -0.2,0.375 0.042,0.528l6.892,4.371c0.241,0.153 0.615,0.165 0.833,0.026l6.973,-4.421c0.218,-0.138 0.199,-0.375 -0.042,-0.528l-6.892,-4.371Z" style="fill:#0f0f0f;stroke:#000;stroke-width:0.1px;"/><path d="M161.407,85.417c-0.241,-0.153 -0.614,-0.165 -0.833,-0.026l-6.972,4.421c-0.219,0.139 -0.2,0.375 0.042,0.528l6.892,4.371c0.241,0.153 0.615,0.165 0.833,0.026l6.972,-4.421c0.219,-0.138 0.2,-0.375 -0.042,-0.528l-6.892,-4.371Z" style="fill:#0f0f0f;stroke:#000;stroke-width:0.1px;"/><path d="M35.341,116.156c-0.241,-0.153 -0.615,-0.165 -0.833,-0.026l-6.972,4.421c-0.219,0.139 -0.2,0.375 0.042,0.528l6.892,4.371c0.241,0.153 0.614,0.165 0.833,0.026l6.972,-4.421c0.219,-0.138 0.2,-0.375 -0.042,-0.528l-6.892,-4.371Z" style="fill:#0f0f0f;stroke:#000;stroke-width:0.1px;"/><path d="M45.032,110.014c-0.242,-0.153 -0.615,-0.165 -0.834,-0.027l-6.972,4.422c-0.218,0.138 -0.199,0.375 0.042,0.528l6.892,4.37c0.242,0.153 0.615,0.165 0.833,0.027l6.973,-4.421c0.218,-0.139 0.199,-0.376 -0.042,-0.529l-6.892,-4.37Z" style="fill:#0f0f0f;stroke:#000;stroke-width:0.1px;"/><path d="M54.722,103.872c-0.241,-0.154 -0.615,-0.165 -0.833,-0.027l-6.972,4.421c-0.219,0.139 -0.2,0.375 0.041,0.529l6.893,4.37c0.241,0.153 0.614,0.165 0.833,0.026l6.972,-4.421c0.219,-0.138 0.2,-0.375 -0.042,-0.528l-6.892,-4.37Z" style="fill:#0f0f0f;stroke:#000;stroke-width:0.1px;"/><path d="M64.413,97.729c-0.242,-0.153 -0.615,-0.165 -0.834,-0.026l-6.972,4.421c-0.218,0.138 -0.2,0.375 0.042,0.528l6.892,4.37c0.242,0.154 0.615,0.165 0.833,0.027l6.973,-4.421c0.218,-0.139 0.199,-0.375 -0.042,-0.529l-6.892,-4.37Z" style="fill:#0f0f0f;stroke:#000;stroke-width:0.1px;"/><path d="M74.103,91.587c-0.241,-0.153 -0.615,-0.165 -0.833,-0.027l-6.972,4.421c-0.219,0.139 -0.2,0.376 0.041,0.529l6.893,4.37c0.241,0.153 0.614,0.165 0.833,0.026l6.972,-4.421c0.219,-0.138 0.2,-0.375 -0.042,-0.528l-6.892,-4.37Z" style="fill:#0f0f0f;stroke:#000;stroke-width:0.1px;"/><path d="M83.794,85.444c-0.242,-0.153 -0.615,-0.165 -0.834,-0.026l-6.972,4.421c-0.218,0.138 -0.2,0.375 0.042,0.528l6.892,4.371c0.241,0.153 0.615,0.165 0.833,0.026l6.973,-4.421c0.218,-0.139 0.199,-0.375 -0.042,-0.528l-6.892,-4.371Z" style="fill:#0f0f0f;stroke:#000;stroke-width:0.1px;"/><path d="M93.484,79.302c-0.241,-0.153 -0.615,-0.165 -0.833,-0.027l-6.972,4.421c-0.219,0.139 -0.2,0.376 0.041,0.529l6.892,4.37c0.242,0.153 0.615,0.165 0.834,0.027l6.972,-4.422c0.218,-0.138 0.2,-0.375 -0.042,-0.528l-6.892,-4.37Z" style="fill:#0f0f0f;stroke:#000;stroke-width:0.1px;"/><path d="M103.175,73.159c-0.242,-0.153 -0.615,-0.165 -0.834,-0.026l-6.972,4.421c-0.218,0.139 -0.2,0.375 0.042,0.528l6.892,4.371c0.241,0.153 0.615,0.165 0.833,0.026l6.973,-4.421c0.218,-0.138 0.199,-0.375 -0.042,-0.528l-6.892,-4.371Z" style="fill:#0f0f0f;stroke:#000;stroke-width:0.1px;"/><path d="M112.865,67.017c-0.241,-0.153 -0.615,-0.165 -0.833,-0.027l-6.972,4.422c-0.219,0.138 -0.2,0.375 0.041,0.528l6.892,4.37c0.242,0.153 0.615,0.165 0.834,0.027l6.972,-4.421c0.218,-0.139 0.2,-0.376 -0.042,-0.529l-6.892,-4.37Z" style="fill:#0f0f0f;stroke:#000;stroke-width:0.1px;"/><path d="M122.556,60.875c-0.242,-0.154 -0.615,-0.165 -0.834,-0.027l-6.972,4.421c-0.218,0.139 -0.2,0.375 0.042,0.529l6.892,4.37c0.241,0.153 0.615,0.165 0.833,0.026l6.972,-4.421c0.219,-0.138 0.2,-0.375 -0.041,-0.528l-6.892,-4.37Z" style="fill:#0f0f0f;stroke:#000;stroke-width:0.1px;"/><path d="M132.246,54.732c-0.241,-0.153 -0.615,-0.165 -0.833,-0.026l-6.973,4.421c-0.218,0.138 -0.199,0.375 0.042,0.528l6.892,4.37c0.242,0.154 0.615,0.165 0.834,0.027l6.972,-4.421c0.218,-0.139 0.2,-0.375 -0.042,-0.529l-6.892,-4.37Z" style="fill:#0f0f0f;stroke:#000;stroke-width:0.1px;"/><path d="M141.937,48.59c-0.242,-0.153 -0.615,-0.165 -0.834,-0.027l-6.972,4.421c-0.218,0.139 -0.2,0.376 0.042,0.529l6.892,4.37c0.241,0.153 0.615,0.165 0.833,0.026l6.972,-4.421c0.219,-0.138 0.2,-0.375 -0.041,-0.528l-6.892,-4.37Z" style="fill:#0f0f0f;stroke:#000;stroke-width:0.1px;"/><path d="M20.258,118.879c-0.242,-0.153 -0.615,-0.165 -0.833,-0.026l-6.973,4.421c-0.218,0.138 -0.199,0.375 0.042,0.528l2.545,1.614c0.241,0.153 0.615,0.165 0.833,0.026l6.973,-4.421c0.218,-0.138 0.199,-0.375 -0.042,-0.528l-2.545,-1.614Z" style="fill:#0f0f0f;stroke:#000;stroke-width:0.1px;"/><path d="M29.943,112.73c-0.242,-0.154 -0.615,-0.165 -0.834,-0.027l-6.972,4.421c-0.218,0.139 -0.2,0.375 0.042,0.529l2.545,1.613c0.241,0.153 0.615,0.165 0.833,0.027l6.972,-4.421c0.219,-0.139 0.2,-0.376 -0.041,-0.529l-2.545,-1.613Z" style="fill:#0f0f0f;stroke:#000;stroke-width:0.1px;"/><path d="M39.628,106.58c-0.242,-0.153 -0.615,-0.165 -0.834,-0.027l-6.972,4.422c-0.218,0.138 -0.2,0.375 0.042,0.528l2.545,1.614c0.241,0.153 0.614,0.165 0.833,0.026l6.972,-4.421c0.219,-0.139 0.2,-0.375 -0.042,-0.528l-2.544,-1.614Z" style="fill:#0f0f0f;stroke:#000;stroke-width:0.1px;"/><path d="M49.312,100.43c-0.241,-0.153 -0.615,-0.165 -0.833,-0.026l-6.972,4.421c-0.219,0.138 -0.2,0.375 0.042,0.528l2.544,1.614c0.242,0.153 0.615,0.165 0.834,0.026l6.972,-4.421c0.218,-0.138 0.2,-0.375 -0.042,-0.528l-2.545,-1.614Z" style="fill:#0f0f0f;stroke:#000;stroke-width:0.1px;"/><path d="M58.997,94.281c-0.241,-0.154 -0.615,-0.165 -0.833,-0.027l-6.972,4.421c-0.219,0.139 -0.2,0.375 0.041,0.529l2.545,1.613c0.242,0.153 0.615,0.165 0.834,0.027l6.972,-4.421c0.218,-0.139 0.2,-0.376 -0.042,-0.529l-2.545,-1.613Z" style="fill:#0f0f0f;stroke:#000;stroke-width:0.1px;"/><path d="M68.682,88.131c-0.242,-0.153 -0.615,-0.165 -0.833,-0.027l-6.973,4.421c-0.218,0.139 -0.199,0.376 0.042,0.529l2.545,1.614c0.242,0.153 0.615,0.165 0.833,0.026l6.973,-4.421c0.218,-0.139 0.199,-0.375 -0.042,-0.528l-2.545,-1.614Z" style="fill:#0f0f0f;stroke:#000;stroke-width:0.1px;"/><path d="M78.367,81.981c-0.242,-0.153 -0.615,-0.165 -0.833,-0.026l-6.973,4.421c-0.218,0.138 -0.199,0.375 0.042,0.528l2.545,1.614c0.241,0.153 0.615,0.165 0.833,0.026l6.972,-4.421c0.219,-0.138 0.2,-0.375 -0.041,-0.528l-2.545,-1.614Z" style="fill:#0f0f0f;stroke:#000;stroke-width:0.1px;"/><path d="M88.052,75.831c-0.242,-0.153 -0.615,-0.164 -0.834,-0.026l-6.972,4.421c-0.218,0.139 -0.2,0.375 0.042,0.528l2.545,1.614c0.241,0.153 0.615,0.165 0.833,0.027l6.972,-4.421c0.219,-0.139 0.2,-0.376 -0.042,-0.529l-2.544,-1.614Z" style="fill:#0f0f0f;stroke:#000;stroke-width:0.1px;"/><path d="M97.736,69.682c-0.241,-0.153 -0.614,-0.165 -0.833,-0.027l-6.972,4.421c-0.219,0.139 -0.2,0.376 0.042,0.529l2.545,1.614c0.241,0.153 0.614,0.165 0.833,0.026l6.972,-4.421c0.219,-0.139 0.2,-0.375 -0.042,-0.528l-2.545,-1.614Z" style="fill:#0f0f0f;stroke:#000;stroke-width:0.1px;"/><path d="M107.421,63.532c-0.241,-0.153 -0.615,-0.165 -0.833,-0.026l-6.972,4.421c-0.219,0.138 -0.2,0.375 0.041,0.528l2.545,1.614c0.242,0.153 0.615,0.165 0.834,0.026l6.972,-4.421c0.218,-0.138 0.2,-0.375 -0.042,-0.528l-2.545,-1.614Z" style="fill:#0f0f0f;stroke:#000;stroke-width:0.1px;"/><path d="M117.106,57.382c-0.241,-0.153 -0.615,-0.165 -0.833,-0.026l-6.972,4.421c-0.219,0.139 -0.2,0.375 0.041,0.528l2.545,1.614c0.242,0.153 0.615,0.165 0.833,0.027l6.973,-4.421c0.218,-0.139 0.199,-0.376 -0.042,-0.529l-2.545,-1.614Z" style="fill:#0f0f0f;stroke:#000;stroke-width:0.1px;"/><path d="M126.791,51.233c-0.242,-0.153 -0.615,-0.165 -0.833,-0.027l-6.973,4.421c-0.218,0.139 -0.199,0.376 0.042,0.529l2.545,1.613c0.241,0.154 0.615,0.165 0.833,0.027l6.973,-4.421c0.218,-0.139 0.199,-0.375 -0.042,-0.529l-2.545,-1.613Z" style="fill:#0f0f0f;stroke:#000;stroke-width:0.1px;"/><path d="M136.476,45.083c-0.242,-0.153 -0.615,-0.165 -0.834,-0.026l-6.972,4.421c-0.218,0.138 -0.2,0.375 0.042,0.528l2.545,1.614c0.241,0.153 0.615,0.165 0.833,0.026l6.972,-4.421c0.219,-0.138 0.2,-0.375 -0.041,-0.528l-2.545,-1.614Z" style="fill:#0f0f0f;stroke:#000;stroke-width:0.1px;"/><path d="M74.199,140.75c-0.241,-0.153 -0.615,-0.165 -0.833,-0.026l-16.674,10.573c-0.219,0.138 -0.2,0.375 0.041,0.528l6.892,4.37c0.242,0.153 0.615,0.165 0.834,0.027l16.674,-10.573c0.219,-0.139 0.2,-0.376 -0.042,-0.529l-6.892,-4.37Z" style="fill:#0f0f0f;stroke:#000;stroke-width:0.1px;"/><path d="M132.356,103.873c-0.241,-0.153 -0.615,-0.165 -0.833,-0.027l-26.361,16.716c-0.219,0.138 -0.2,0.375 0.041,0.528l6.892,4.371c0.242,0.153 0.615,0.165 0.834,0.026l26.361,-16.716c0.218,-0.138 0.2,-0.375 -0.042,-0.528l-6.892,-4.37Z" style="fill:#0f0f0f;stroke:#000;stroke-width:0.1px;"/><path d="M180.825,73.139c-0.241,-0.154 -0.615,-0.165 -0.833,-0.027l-16.678,10.576c-0.219,0.138 -0.2,0.375 0.042,0.528l6.892,4.37c0.241,0.153 0.615,0.165 0.833,0.027l16.678,-10.576c0.218,-0.138 0.2,-0.375 -0.042,-0.528l-6.892,-4.37Z" style="fill:#0f0f0f;stroke:#000;stroke-width:0.1px;"/><path d="M40.215,125.455c-0.242,-0.154 -0.615,-0.165 -0.834,-0.027l-11.676,7.404c-0.218,0.138 -0.199,0.375 0.042,0.528l6.892,4.371c0.242,0.153 0.615,0.165 0.834,0.026l11.676,-7.404c0.218,-0.138 0.199,-0.375 -0.042,-0.528l-6.892,-4.37Z" style="fill:#0f0f0f;stroke:#000;stroke-width:0.1px;"/><path d="M59.544,137.714c-0.241,-0.153 -0.615,-0.165 -0.833,-0.027l-11.676,7.404c-0.219,0.139 -0.2,0.375 0.042,0.528l6.892,4.371c0.241,0.153 0.615,0.165 0.833,0.026l11.676,-7.404c0.219,-0.138 0.2,-0.375 -0.042,-0.528l-6.892,-4.37Z" style="fill:#0f0f0f;stroke:#000;stroke-width:0.1px;"/><path d="M168.084,65.766c0.135,-0.086 0.219,-0.245 0.219,-0.416c-0,-0.172 -0.084,-0.331 -0.219,-0.417c-2.927,-1.856 -14.726,-9.337 -16.481,-10.45c-0.135,-0.086 -0.302,-0.086 -0.437,-0c-1.428,0.905 -9.435,5.982 -11.797,7.48c-0.136,0.086 -0.219,0.245 -0.219,0.416c0,0.172 0.083,0.331 0.219,0.417c1.644,1.042 5.881,3.729 6.892,4.37c0.135,0.086 0.302,0.086 0.437,-0c0.814,-0.516 3.658,-2.319 4.471,-2.835c0.135,-0.086 0.302,-0.086 0.438,0c1.287,0.816 7.863,4.986 9.151,5.803c0.135,0.086 0.302,0.086 0.437,-0c1.011,-0.641 5.245,-3.326 6.889,-4.368Z" style="fill:#0f0f0f;stroke:#000;stroke-width:0.1px;"/><path d="M171.227,66.922c-0.241,-0.153 -0.615,-0.165 -0.833,-0.027l-11.968,7.589c-0.219,0.139 -0.2,0.376 0.041,0.529l6.893,4.37c0.241,0.153 0.614,0.165 0.833,0.026l11.968,-7.589c0.218,-0.138 0.2,-0.375 -0.042,-0.528l-6.892,-4.37Z" style="fill:#0f0f0f;stroke:#000;stroke-width:0.1px;"/></g></svg>