<?xml version="1.0" encoding="UTF-8" standalone="no"?><!DOCTYPE svg PUBLIC "-//W3C//DTD SVG 1.1//EN" "http://www.w3.org/Graphics/SVG/1.1/DTD/svg11.dtd"><svg width="100%" height="100%" viewBox="0 0 200 200" version="1.1" xmlns="http://www.w3.org/2000/svg" xmlns:xlink="http://www.w3.org/1999/xlink" xml:space="preserve" xmlns:serif="http://www.serif.com/" style="fill-rule:evenodd;clip-rule:evenodd;stroke-linejoin:round;stroke-miterlimit:2;"><g><path d="M63.096,83.916c-0.126,0.374 -9.102,22.065 -9.102,24.399c0,2.819 2.059,5.792 6.077,8.112l26.619,15.369c7.346,4.241 18.475,4.702 24.836,1.029l30.186,-17.427c2.882,-1.664 4.294,-3.893 4.294,-6.227c-0,-0.129 -0.069,-0.942 -0.105,-1.145c-0.754,-4.25 -8.942,-23.289 -9.003,-23.48c-0.576,-1.784 -2.141,-3.554 -4.657,-5.007l-21.494,-12.41c-5.931,-3.424 -14.917,-3.797 -20.054,-0.831l-24.373,14.072c-1.707,0.985 -2.775,2.216 -3.224,3.546Z" style="fill:#001b35;"/><path d="M110.747,67.129c-5.931,-3.424 -14.917,-3.797 -20.054,-0.831l-24.373,14.072c-5.137,2.966 -4.492,8.154 1.439,11.578l21.494,12.41c5.931,3.424 14.917,3.797 20.054,0.831l24.373,-14.072c5.137,-2.966 4.492,-8.154 -1.439,-11.578l-21.494,-12.41Z" style="fill:#fff;fill-opacity:0.11;"/><path d="M84.401,87.553l0.678,-0.391c0.628,-0.363 0.852,-0.755 0.674,-1.177l-2.783,-6.362c-0.151,-0.349 -0.15,-0.645 0.004,-0.89c0.153,-0.245 0.439,-0.488 0.858,-0.73l3.692,-2.131l3.116,8.063c0.116,0.289 0.172,0.553 0.165,0.791c-0.006,0.238 -0.05,0.459 -0.133,0.663c0.454,-0.106 0.931,-0.166 1.431,-0.182c0.501,-0.015 1.058,0.029 1.672,0.132l15.327,2.469l-3.792,2.19c-0.243,0.14 -0.469,0.248 -0.679,0.325c-0.211,0.077 -0.417,0.129 -0.62,0.157c-0.203,0.028 -0.406,0.036 -0.609,0.025c-0.204,-0.011 -0.42,-0.034 -0.648,-0.07l-11.496,-1.851c-0.421,-0.07 -0.803,-0.07 -1.144,-0.001c-0.341,0.069 -0.709,0.216 -1.102,0.444l-1.03,0.594l8.99,5.191l-4.244,2.45l-21.127,-12.197l4.245,-2.451l8.555,4.939Z" style="fill:#fff;fill-rule:nonzero;"/></g></svg>