<?xml version="1.0" encoding="UTF-8" standalone="no"?><!DOCTYPE svg PUBLIC "-//W3C//DTD SVG 1.1//EN" "http://www.w3.org/Graphics/SVG/1.1/DTD/svg11.dtd"><svg width="100%" height="100%" viewBox="0 0 200 200" version="1.1" xmlns="http://www.w3.org/2000/svg" xmlns:xlink="http://www.w3.org/1999/xlink" xml:space="preserve" xmlns:serif="http://www.serif.com/" style="fill-rule:evenodd;clip-rule:evenodd;stroke-linejoin:round;stroke-miterlimit:2;"><g><path d="M63.096,83.916c-0.126,0.374 -9.102,22.065 -9.102,24.399c0,2.819 2.059,5.792 6.077,8.112l26.619,15.369c7.346,4.241 18.475,4.702 24.836,1.029l30.186,-17.427c2.882,-1.664 4.294,-3.893 4.294,-6.227c-0,-0.129 -0.069,-0.942 -0.105,-1.145c-0.754,-4.25 -8.942,-23.289 -9.003,-23.48c-0.576,-1.784 -2.141,-3.554 -4.657,-5.007l-21.494,-12.41c-5.931,-3.424 -14.917,-3.797 -20.054,-0.831l-24.373,14.072c-1.707,0.985 -2.775,2.216 -3.224,3.546Z" style="fill:#001b35;"/><path d="M110.747,67.129c-5.931,-3.424 -14.917,-3.797 -20.054,-0.831l-24.373,14.072c-5.137,2.966 -4.492,8.154 1.439,11.578l21.494,12.41c5.931,3.424 14.917,3.797 20.054,0.831l24.373,-14.072c5.137,-2.966 4.492,-8.154 -1.439,-11.578l-21.494,-12.41Z" style="fill:#fff;fill-opacity:0.11;"/><path d="M100.215,80.734c0.908,0.524 1.699,1.075 2.372,1.652c0.673,0.577 1.224,1.166 1.653,1.766c0.429,0.601 0.734,1.212 0.914,1.833c0.181,0.622 0.228,1.236 0.142,1.844l10.477,0.698l-3.491,2.016c-0.502,0.29 -1.028,0.513 -1.579,0.669c-0.55,0.156 -1.197,0.203 -1.94,0.141l-5.217,-0.387c-0.281,0.263 -0.588,0.518 -0.921,0.766c-0.332,0.248 -0.699,0.487 -1.101,0.719c-1.423,0.822 -2.996,1.412 -4.719,1.771c-1.724,0.358 -3.487,0.498 -5.292,0.418c-1.804,-0.08 -3.592,-0.368 -5.363,-0.864c-1.771,-0.495 -3.42,-1.184 -4.947,-2.066c-1.528,-0.882 -2.72,-1.834 -3.579,-2.856c-0.858,-1.023 -1.354,-2.053 -1.488,-3.092c-0.134,-1.039 0.11,-2.056 0.731,-3.051c0.621,-0.995 1.643,-1.903 3.066,-2.725c1.423,-0.821 2.997,-1.409 4.721,-1.762c1.723,-0.354 3.483,-0.491 5.278,-0.411c1.796,0.08 3.579,0.367 5.35,0.863c1.771,0.496 3.415,1.181 4.933,2.058Zm-4.345,2.508c-1.044,-0.603 -2.101,-1.078 -3.172,-1.425c-1.071,-0.348 -2.116,-0.562 -3.135,-0.643c-1.02,-0.081 -2.002,-0.027 -2.948,0.162c-0.945,0.188 -1.824,0.517 -2.636,0.986c-0.821,0.474 -1.396,0.985 -1.727,1.533c-0.332,0.548 -0.427,1.117 -0.286,1.705c0.14,0.589 0.511,1.192 1.113,1.81c0.602,0.618 1.425,1.229 2.469,1.832c1.053,0.608 2.115,1.086 3.186,1.433c1.071,0.348 2.116,0.562 3.135,0.643c1.02,0.081 2.002,0.025 2.947,-0.169c0.945,-0.194 1.827,-0.528 2.648,-1.002c0.812,-0.468 1.384,-0.974 1.715,-1.518c0.332,-0.543 0.428,-1.109 0.287,-1.697c-0.14,-0.589 -0.511,-1.192 -1.113,-1.81c-0.602,-0.618 -1.43,-1.232 -2.483,-1.84Z" style="fill:#fff;fill-rule:nonzero;"/></g></svg>