<?xml version="1.0" encoding="UTF-8" standalone="no"?><!DOCTYPE svg PUBLIC "-//W3C//DTD SVG 1.1//EN" "http://www.w3.org/Graphics/SVG/1.1/DTD/svg11.dtd"><svg width="100%" height="100%" viewBox="0 0 200 200" version="1.1" xmlns="http://www.w3.org/2000/svg" xmlns:xlink="http://www.w3.org/1999/xlink" xml:space="preserve" xmlns:serif="http://www.serif.com/" style="fill-rule:evenodd;clip-rule:evenodd;stroke-linejoin:round;stroke-miterlimit:2;"><g><path d="M63.096,83.916c-0.126,0.374 -9.102,22.065 -9.102,24.399c0,2.819 2.059,5.792 6.077,8.112l26.619,15.369c7.346,4.241 18.475,4.702 24.836,1.029l30.186,-17.427c2.882,-1.664 4.294,-3.893 4.294,-6.227c-0,-0.129 -0.069,-0.942 -0.105,-1.145c-0.754,-4.25 -8.942,-23.289 -9.003,-23.48c-0.576,-1.784 -2.141,-3.554 -4.657,-5.007l-21.494,-12.41c-5.931,-3.424 -14.917,-3.797 -20.054,-0.831l-24.373,14.072c-1.707,0.985 -2.775,2.216 -3.224,3.546Z" style="fill:#001b35;"/><path d="M110.747,67.129c-5.931,-3.424 -14.917,-3.797 -20.054,-0.831l-24.373,14.072c-5.137,2.966 -4.492,8.154 1.439,11.578l21.494,12.41c5.931,3.424 14.917,3.797 20.054,0.831l24.373,-14.072c5.137,-2.966 4.492,-8.154 -1.439,-11.578l-21.494,-12.41Z" style="fill:#fff;fill-opacity:0.11;"/><path d="M76.674,82.136l8.294,4.788c0.89,0.514 1.726,1.049 2.508,1.608c0.783,0.558 1.554,1.143 2.312,1.755l-2.638,1.522c-1.059,-0.438 -2.072,-0.882 -3.039,-1.334c-0.967,-0.452 -1.895,-0.935 -2.784,-1.448l-8.294,-4.789l3.641,-2.102Zm14.782,13.232c-0.348,-0.201 -0.616,-0.421 -0.802,-0.659c-0.187,-0.238 -0.293,-0.478 -0.319,-0.72c-0.025,-0.242 0.031,-0.478 0.168,-0.708c0.137,-0.23 0.365,-0.437 0.683,-0.621c0.31,-0.179 0.664,-0.308 1.063,-0.387c0.398,-0.079 0.809,-0.113 1.232,-0.101c0.423,0.013 0.841,0.073 1.254,0.181c0.413,0.107 0.793,0.262 1.141,0.463c0.348,0.201 0.618,0.422 0.809,0.663c0.192,0.241 0.298,0.483 0.32,0.728c0.021,0.244 -0.039,0.48 -0.182,0.707c-0.142,0.227 -0.368,0.43 -0.678,0.609c-0.318,0.184 -0.674,0.317 -1.067,0.399c-0.394,0.082 -0.8,0.116 -1.219,0.101c-0.419,-0.015 -0.837,-0.078 -1.255,-0.188c-0.417,-0.111 -0.8,-0.266 -1.148,-0.467Z" style="fill:#fff;fill-rule:nonzero;"/></g></svg>