<?xml version="1.0" encoding="UTF-8" standalone="no"?><!DOCTYPE svg PUBLIC "-//W3C//DTD SVG 1.1//EN" "http://www.w3.org/Graphics/SVG/1.1/DTD/svg11.dtd"><svg width="100%" height="100%" viewBox="0 0 200 200" version="1.1" xmlns="http://www.w3.org/2000/svg" xmlns:xlink="http://www.w3.org/1999/xlink" xml:space="preserve" xmlns:serif="http://www.serif.com/" style="fill-rule:evenodd;clip-rule:evenodd;stroke-linejoin:round;stroke-miterlimit:2;"><g><path d="M63.096,83.916c-0.126,0.374 -9.102,22.065 -9.102,24.399c0,2.819 2.059,5.792 6.077,8.112l26.619,15.369c7.346,4.241 18.475,4.702 24.836,1.029l30.186,-17.427c2.882,-1.664 4.294,-3.893 4.294,-6.227c-0,-0.129 -0.069,-0.942 -0.105,-1.145c-0.754,-4.25 -8.942,-23.289 -9.003,-23.48c-0.576,-1.784 -2.141,-3.554 -4.657,-5.007l-21.494,-12.41c-5.931,-3.424 -14.917,-3.797 -20.054,-0.831l-24.373,14.072c-1.707,0.985 -2.775,2.216 -3.224,3.546Z" style="fill:#001b35;"/><path d="M110.747,67.129c-5.931,-3.424 -14.917,-3.797 -20.054,-0.831l-24.373,14.072c-5.137,2.966 -4.492,8.154 1.439,11.578l21.494,12.41c5.931,3.424 14.917,3.797 20.054,0.831l24.373,-14.072c5.137,-2.966 4.492,-8.154 -1.439,-11.578l-21.494,-12.41Z" style="fill:#fff;fill-opacity:0.11;"/><path d="M86.375,88.389l-15.929,-2.657l4.244,-2.451c0.277,-0.159 0.521,-0.253 0.733,-0.28c0.211,-0.028 0.464,-0.015 0.758,0.039l10.761,2.008c-0.084,-0.097 -0.156,-0.194 -0.218,-0.293c-0.061,-0.098 -0.122,-0.203 -0.18,-0.314l-3.133,-5.492c-0.196,-0.355 -0.115,-0.637 0.245,-0.844l4.069,-2.349l4.31,9.114l16.942,3.011l-4.244,2.45c-0.277,0.16 -0.578,0.244 -0.904,0.254c-0.327,0.01 -0.646,-0.018 -0.959,-0.083l-11.062,-2.152c0.146,0.161 0.254,0.311 0.325,0.449l3.428,5.923c0.103,0.175 0.15,0.357 0.142,0.546c-0.008,0.189 -0.137,0.356 -0.389,0.501l-3.968,2.291l-4.971,-9.671Z" style="fill:#fff;fill-rule:nonzero;"/></g></svg>