<?xml version="1.0" encoding="UTF-8" standalone="no"?><!DOCTYPE svg PUBLIC "-//W3C//DTD SVG 1.1//EN" "http://www.w3.org/Graphics/SVG/1.1/DTD/svg11.dtd"><svg width="100%" height="100%" viewBox="0 0 200 200" version="1.1" xmlns="http://www.w3.org/2000/svg" xmlns:xlink="http://www.w3.org/1999/xlink" xml:space="preserve" xmlns:serif="http://www.serif.com/" style="fill-rule:evenodd;clip-rule:evenodd;stroke-linejoin:round;stroke-miterlimit:2;"><g><path d="M63.096,83.916c-0.126,0.374 -9.102,22.065 -9.102,24.399c0,2.819 2.059,5.792 6.077,8.112l26.619,15.369c7.346,4.241 18.475,4.702 24.836,1.029l30.186,-17.427c2.882,-1.664 4.294,-3.893 4.294,-6.227c-0,-0.129 -0.069,-0.942 -0.105,-1.145c-0.754,-4.25 -8.942,-23.289 -9.003,-23.48c-0.576,-1.784 -2.141,-3.554 -4.657,-5.007l-21.494,-12.41c-5.931,-3.424 -14.917,-3.797 -20.054,-0.831l-24.373,14.072c-1.707,0.985 -2.775,2.216 -3.224,3.546Z" style="fill:#001b35;"/><path d="M110.747,67.129c-5.931,-3.424 -14.917,-3.797 -20.054,-0.831l-24.373,14.072c-5.137,2.966 -4.492,8.154 1.439,11.578l21.494,12.41c5.931,3.424 14.917,3.797 20.054,0.831l24.373,-14.072c5.137,-2.966 4.492,-8.154 -1.439,-11.578l-21.494,-12.41Z" style="fill:#fff;fill-opacity:0.11;"/><path d="M86.09,81.656c0.106,0.206 0.148,0.383 0.126,0.529c-0.022,0.147 -0.142,0.283 -0.359,0.409c-0.193,0.111 -0.47,0.19 -0.832,0.237c-0.362,0.048 -0.771,0.102 -1.225,0.163c-0.454,0.062 -0.932,0.156 -1.432,0.283c-0.5,0.127 -0.98,0.323 -1.441,0.589c-0.795,0.459 -1.192,0.914 -1.189,1.365c0.002,0.451 0.336,0.869 1.003,1.254c0.426,0.245 0.896,0.381 1.411,0.408c0.514,0.026 1.064,-0.012 1.647,-0.114c0.584,-0.103 1.206,-0.247 1.865,-0.432c0.659,-0.185 1.347,-0.365 2.066,-0.54c0.718,-0.175 1.463,-0.323 2.233,-0.444c0.77,-0.12 1.563,-0.165 2.379,-0.134c0.816,0.031 1.652,0.159 2.51,0.384c0.858,0.224 1.727,0.591 2.607,1.099c0.976,0.563 1.743,1.175 2.301,1.835c0.557,0.661 0.874,1.334 0.951,2.021c0.076,0.687 -0.112,1.371 -0.566,2.052c-0.454,0.68 -1.2,1.32 -2.238,1.919c-0.569,0.329 -1.216,0.625 -1.942,0.887c-0.725,0.263 -1.488,0.483 -2.287,0.659c-0.799,0.177 -1.61,0.308 -2.434,0.393c-0.824,0.085 -1.624,0.111 -2.399,0.079l-1.036,-2.048c-0.082,-0.153 -0.092,-0.309 -0.031,-0.467c0.061,-0.158 0.188,-0.293 0.381,-0.404c0.251,-0.145 0.596,-0.238 1.035,-0.28c0.439,-0.041 0.931,-0.09 1.475,-0.148c0.545,-0.058 1.118,-0.155 1.721,-0.29c0.602,-0.136 1.188,-0.368 1.757,-0.697c0.77,-0.444 1.173,-0.903 1.208,-1.375c0.036,-0.473 -0.372,-0.955 -1.223,-1.446c-0.493,-0.285 -1.011,-0.448 -1.555,-0.492c-0.543,-0.043 -1.107,-0.013 -1.691,0.089c-0.584,0.103 -1.196,0.25 -1.836,0.441c-0.641,0.191 -1.31,0.38 -2.009,0.566c-0.7,0.186 -1.43,0.339 -2.191,0.461c-0.761,0.121 -1.556,0.162 -2.387,0.122c-0.83,-0.04 -1.699,-0.186 -2.605,-0.438c-0.906,-0.253 -1.852,-0.664 -2.838,-1.233c-0.793,-0.458 -1.428,-0.984 -1.906,-1.579c-0.478,-0.594 -0.743,-1.217 -0.797,-1.867c-0.054,-0.649 0.132,-1.301 0.558,-1.954c0.425,-0.653 1.14,-1.27 2.145,-1.85c0.561,-0.324 1.158,-0.61 1.791,-0.858c0.633,-0.248 1.287,-0.453 1.963,-0.614c0.675,-0.161 1.358,-0.282 2.047,-0.362c0.69,-0.08 1.373,-0.114 2.047,-0.102l1.222,1.924Z" style="fill:#fff;fill-rule:nonzero;"/></g></svg>