<?xml version="1.0" encoding="UTF-8" standalone="no"?><!DOCTYPE svg PUBLIC "-//W3C//DTD SVG 1.1//EN" "http://www.w3.org/Graphics/SVG/1.1/DTD/svg11.dtd"><svg width="100%" height="100%" viewBox="0 0 200 200" version="1.1" xmlns="http://www.w3.org/2000/svg" xmlns:xlink="http://www.w3.org/1999/xlink" xml:space="preserve" xmlns:serif="http://www.serif.com/" style="fill-rule:evenodd;clip-rule:evenodd;stroke-linejoin:round;stroke-miterlimit:2;"><g><path d="M63.096,83.916c-0.126,0.374 -9.102,22.065 -9.102,24.399c0,2.819 2.059,5.792 6.077,8.112l26.619,15.369c7.346,4.241 18.475,4.702 24.836,1.029l30.186,-17.427c2.882,-1.664 4.294,-3.893 4.294,-6.227c-0,-0.129 -0.069,-0.942 -0.105,-1.145c-0.754,-4.25 -8.942,-23.289 -9.003,-23.48c-0.576,-1.784 -2.141,-3.554 -4.657,-5.007l-21.494,-12.41c-5.931,-3.424 -14.917,-3.797 -20.054,-0.831l-24.373,14.072c-1.707,0.985 -2.775,2.216 -3.224,3.546Z" style="fill:#001b35;"/><path d="M110.747,67.129c-5.931,-3.424 -14.917,-3.797 -20.054,-0.831l-24.373,14.072c-5.137,2.966 -4.492,8.154 1.439,11.578l21.494,12.41c5.931,3.424 14.917,3.797 20.054,0.831l24.373,-14.072c5.137,-2.966 4.492,-8.154 -1.439,-11.578l-21.494,-12.41Z" style="fill:#fff;fill-opacity:0.11;"/><path d="M96.466,90.633c0.569,-0.328 0.969,-0.685 1.199,-1.069c0.231,-0.384 0.298,-0.783 0.202,-1.196c-0.097,-0.413 -0.356,-0.836 -0.777,-1.268c-0.422,-0.432 -1.005,-0.862 -1.749,-1.292l-12.514,-7.225l4.245,-2.45l12.513,7.224c1.296,0.748 2.303,1.54 3.021,2.375c0.719,0.835 1.13,1.675 1.235,2.518c0.105,0.844 -0.11,1.672 -0.647,2.484c-0.536,0.811 -1.411,1.568 -2.625,2.268c-1.222,0.706 -2.536,1.214 -3.942,1.523c-1.406,0.31 -2.84,0.434 -4.301,0.374c-1.461,-0.061 -2.913,-0.3 -4.356,-0.717c-1.442,-0.417 -2.811,-1 -4.106,-1.748l-12.514,-7.224l4.244,-2.451l12.499,7.216c0.745,0.43 1.491,0.767 2.239,1.01c0.748,0.244 1.482,0.394 2.203,0.453c0.721,0.058 1.414,0.021 2.079,-0.112c0.665,-0.133 1.283,-0.364 1.852,-0.693Z" style="fill:#fff;fill-rule:nonzero;"/></g></svg>