<?xml version="1.0" encoding="UTF-8" standalone="no"?><!DOCTYPE svg PUBLIC "-//W3C//DTD SVG 1.1//EN" "http://www.w3.org/Graphics/SVG/1.1/DTD/svg11.dtd"><svg width="100%" height="100%" viewBox="0 0 200 200" version="1.1" xmlns="http://www.w3.org/2000/svg" xmlns:xlink="http://www.w3.org/1999/xlink" xml:space="preserve" xmlns:serif="http://www.serif.com/" style="fill-rule:evenodd;clip-rule:evenodd;stroke-linejoin:round;stroke-miterlimit:2;"><path d="M126.821,75.157c-0.019,0.056 -1.365,3.31 -1.365,3.661c-0,0.423 0.309,0.869 0.911,1.217l3.994,2.305c1.102,0.636 2.771,0.706 3.726,0.155l4.528,-2.615c0.433,-0.249 0.645,-0.584 0.645,-0.934c-0,-0.019 -0.011,-0.141 -0.016,-0.172c-0.113,-0.637 -1.342,-3.494 -1.351,-3.522c-0.086,-0.268 -0.321,-0.534 -0.699,-0.752l-3.224,-1.861c-0.89,-0.514 -2.238,-0.57 -3.009,-0.125l-3.656,2.111c-0.256,0.148 -0.417,0.333 -0.484,0.532Z" style="fill:#001b35;"/><path d="M133.97,72.639c-0.89,-0.514 -2.238,-0.57 -3.009,-0.125l-3.656,2.111c-0.771,0.445 -0.674,1.223 0.216,1.737l3.224,1.862c0.89,0.514 2.238,0.57 3.009,0.125l3.656,-2.112c0.771,-0.444 0.674,-1.223 -0.216,-1.737l-3.224,-1.861Z" style="fill:#fff;fill-opacity:0.11;"/><path d="M130.887,76.191l1.074,0.62l-0.645,0.373l-3.214,-1.856l0.982,-0.567c0.196,-0.113 0.391,-0.195 0.585,-0.245c0.195,-0.05 0.385,-0.074 0.57,-0.073c0.185,0.002 0.363,0.028 0.534,0.076c0.172,0.049 0.332,0.117 0.48,0.202c0.16,0.093 0.285,0.191 0.374,0.294c0.09,0.103 0.136,0.208 0.14,0.316c0.004,0.108 -0.038,0.219 -0.125,0.331c-0.087,0.112 -0.226,0.224 -0.419,0.335l-0.336,0.194Zm-0.562,-0.325l0.336,-0.194c0.168,-0.097 0.243,-0.194 0.224,-0.29c-0.019,-0.096 -0.111,-0.192 -0.278,-0.288c-0.073,-0.042 -0.15,-0.075 -0.229,-0.099c-0.079,-0.024 -0.16,-0.037 -0.243,-0.04c-0.082,-0.002 -0.164,0.007 -0.247,0.027c-0.083,0.021 -0.165,0.055 -0.246,0.102l-0.337,0.194l1.02,0.588Z" style="fill:#fff;fill-rule:nonzero;"/><path d="M116.437,81.157c-0.019,0.057 -1.366,3.311 -1.366,3.661c0,0.423 0.309,0.869 0.912,1.217l3.993,2.306c1.102,0.636 2.772,0.705 3.726,0.154l4.529,-2.615c0.432,-0.249 0.644,-0.584 0.644,-0.934c-0,-0.019 -0.01,-0.141 -0.016,-0.172c-0.113,-0.637 -1.341,-3.493 -1.351,-3.522c-0.086,-0.268 -0.321,-0.533 -0.698,-0.751l-3.225,-1.862c-0.89,-0.514 -2.238,-0.57 -3.008,-0.125l-3.657,2.111c-0.256,0.148 -0.416,0.333 -0.483,0.532Z" style="fill:#001b35;"/><path d="M123.585,78.639c-0.89,-0.514 -2.238,-0.57 -3.008,-0.125l-3.657,2.111c-0.771,0.445 -0.674,1.224 0.216,1.737l3.225,1.862c0.89,0.514 2.238,0.57 3.008,0.125l3.657,-2.111c0.77,-0.445 0.674,-1.223 -0.216,-1.737l-3.225,-1.862Z" style="fill:#fff;fill-opacity:0.11;"/><path d="M122.07,80.67c0.232,0.134 0.414,0.279 0.544,0.434c0.131,0.156 0.207,0.313 0.229,0.471c0.022,0.158 -0.014,0.313 -0.108,0.463c-0.094,0.151 -0.249,0.289 -0.466,0.414c-0.216,0.125 -0.456,0.215 -0.718,0.27c-0.262,0.054 -0.53,0.076 -0.805,0.063c-0.274,-0.012 -0.546,-0.056 -0.816,-0.131c-0.269,-0.075 -0.52,-0.18 -0.752,-0.314c-0.233,-0.134 -0.414,-0.279 -0.545,-0.435c-0.13,-0.155 -0.206,-0.312 -0.226,-0.47c-0.021,-0.158 0.017,-0.313 0.111,-0.464c0.094,-0.152 0.25,-0.29 0.466,-0.415c0.217,-0.125 0.456,-0.214 0.719,-0.268c0.262,-0.054 0.53,-0.075 0.803,-0.063c0.273,0.013 0.544,0.056 0.814,0.132c0.269,0.075 0.519,0.179 0.75,0.313Zm-0.661,0.381c-0.159,-0.091 -0.32,-0.164 -0.483,-0.216c-0.162,-0.053 -0.321,-0.086 -0.477,-0.098c-0.155,-0.013 -0.304,-0.004 -0.448,0.024c-0.144,0.029 -0.277,0.079 -0.401,0.15c-0.125,0.072 -0.212,0.15 -0.263,0.234c-0.05,0.083 -0.065,0.17 -0.043,0.259c0.021,0.09 0.078,0.181 0.169,0.275c0.092,0.094 0.217,0.187 0.376,0.279c0.16,0.093 0.322,0.165 0.484,0.218c0.163,0.053 0.322,0.086 0.477,0.098c0.155,0.012 0.305,0.004 0.449,-0.026c0.143,-0.029 0.278,-0.08 0.403,-0.152c0.123,-0.071 0.21,-0.148 0.261,-0.231c0.05,-0.083 0.065,-0.169 0.043,-0.258c-0.021,-0.09 -0.078,-0.182 -0.169,-0.276c-0.092,-0.094 -0.218,-0.187 -0.378,-0.28Z" style="fill:#fff;fill-rule:nonzero;"/><path d="M106.052,87.158c-0.019,0.056 -1.366,3.31 -1.366,3.66c0,0.423 0.309,0.869 0.912,1.217l3.994,2.306c1.102,0.636 2.771,0.705 3.726,0.154l4.528,-2.614c0.432,-0.25 0.644,-0.584 0.644,-0.934c0,-0.02 -0.01,-0.142 -0.015,-0.172c-0.114,-0.638 -1.342,-3.494 -1.351,-3.523c-0.087,-0.267 -0.321,-0.533 -0.699,-0.751l-3.224,-1.862c-0.89,-0.513 -2.238,-0.569 -3.009,-0.124l-3.657,2.111c-0.256,0.148 -0.416,0.332 -0.483,0.532Z" style="fill:#001b35;"/><path d="M113.201,84.639c-0.89,-0.513 -2.238,-0.569 -3.009,-0.124l-3.657,2.111c-0.77,0.445 -0.673,1.223 0.216,1.737l3.225,1.861c0.89,0.514 2.238,0.57 3.009,0.125l3.656,-2.111c0.771,-0.445 0.674,-1.223 -0.216,-1.737l-3.224,-1.862Z" style="fill:#fff;fill-opacity:0.11;"/><path d="M111.253,88.777l-0.649,0.375l-3.214,-1.856l0.649,-0.375l3.214,1.856Z" style="fill:#fff;fill-rule:nonzero;"/><path d="M95.667,93.158c-0.019,0.056 -1.365,3.31 -1.365,3.66c-0,0.423 0.309,0.869 0.911,1.217l3.994,2.306c1.102,0.636 2.771,0.706 3.726,0.155l4.528,-2.615c0.433,-0.25 0.645,-0.584 0.645,-0.934c-0,-0.02 -0.011,-0.141 -0.016,-0.172c-0.113,-0.638 -1.342,-3.494 -1.351,-3.523c-0.086,-0.267 -0.321,-0.533 -0.699,-0.751l-3.224,-1.861c-0.89,-0.514 -2.238,-0.57 -3.009,-0.125l-3.656,2.111c-0.256,0.148 -0.417,0.332 -0.484,0.532Z" style="fill:#001b35;"/><path d="M102.816,90.64c-0.89,-0.514 -2.238,-0.57 -3.009,-0.125l-3.656,2.111c-0.771,0.445 -0.674,1.223 0.216,1.737l3.224,1.862c0.89,0.514 2.238,0.569 3.009,0.124l3.656,-2.111c0.771,-0.445 0.674,-1.223 -0.216,-1.737l-3.224,-1.861Z" style="fill:#fff;fill-opacity:0.11;"/><path d="M100.73,94.176c0.087,-0.05 0.148,-0.104 0.183,-0.162c0.035,-0.059 0.045,-0.119 0.03,-0.182c-0.014,-0.063 -0.054,-0.127 -0.118,-0.193c-0.064,-0.066 -0.153,-0.131 -0.266,-0.197l-1.904,-1.099l0.646,-0.373l1.904,1.099c0.197,0.114 0.35,0.235 0.46,0.362c0.109,0.127 0.171,0.255 0.187,0.383c0.016,0.128 -0.016,0.254 -0.098,0.378c-0.082,0.123 -0.215,0.238 -0.399,0.345c-0.186,0.107 -0.386,0.184 -0.6,0.232c-0.214,0.047 -0.432,0.066 -0.654,0.056c-0.223,-0.009 -0.444,-0.045 -0.663,-0.109c-0.22,-0.063 -0.428,-0.152 -0.625,-0.266l-1.904,-1.099l0.646,-0.373l1.902,1.098c0.113,0.066 0.226,0.117 0.34,0.154c0.114,0.037 0.226,0.06 0.335,0.069c0.11,0.009 0.215,0.003 0.317,-0.017c0.101,-0.02 0.195,-0.056 0.281,-0.106Z" style="fill:#fff;fill-rule:nonzero;"/><path d="M85.283,99.158c-0.019,0.056 -1.366,3.311 -1.366,3.661c0,0.423 0.309,0.869 0.912,1.217l3.993,2.305c1.102,0.637 2.772,0.706 3.726,0.155l4.529,-2.615c0.432,-0.249 0.644,-0.584 0.644,-0.934c-0,-0.019 -0.01,-0.141 -0.016,-0.172c-0.113,-0.637 -1.341,-3.494 -1.351,-3.522c-0.086,-0.268 -0.321,-0.533 -0.698,-0.751l-3.225,-1.862c-0.89,-0.514 -2.238,-0.57 -3.008,-0.125l-3.657,2.111c-0.256,0.148 -0.416,0.333 -0.483,0.532Z" style="fill:#001b35;"/><path d="M92.431,96.64c-0.89,-0.514 -2.238,-0.57 -3.008,-0.125l-3.657,2.111c-0.77,0.445 -0.674,1.224 0.216,1.737l3.225,1.862c0.89,0.514 2.238,0.57 3.008,0.125l3.657,-2.111c0.77,-0.445 0.674,-1.224 -0.216,-1.737l-3.225,-1.862Z" style="fill:#fff;fill-opacity:0.11;"/><path d="M89.942,99.679l1.222,0.705l-0.646,0.373l-1.222,-0.705l-3.001,-0.568l0.57,-0.329c0.056,-0.032 0.115,-0.049 0.179,-0.051c0.063,-0.002 0.128,0.005 0.196,0.021l1.329,0.312c0.106,0.025 0.205,0.048 0.295,0.069c0.09,0.022 0.176,0.044 0.258,0.068c-0.044,-0.048 -0.084,-0.097 -0.121,-0.149c-0.036,-0.052 -0.076,-0.108 -0.119,-0.168l-0.546,-0.765c-0.011,-0.016 -0.02,-0.033 -0.025,-0.052c-0.006,-0.018 -0.008,-0.037 -0.006,-0.056c0.001,-0.019 0.009,-0.038 0.021,-0.056c0.013,-0.018 0.033,-0.035 0.059,-0.051l0.574,-0.331l0.983,1.733Z" style="fill:#fff;fill-rule:nonzero;"/><path d="M74.898,105.159c-0.019,0.056 -1.366,3.31 -1.366,3.66c0,0.423 0.309,0.869 0.912,1.217l3.994,2.306c1.102,0.636 2.771,0.705 3.726,0.154l4.528,-2.614c0.432,-0.25 0.644,-0.584 0.644,-0.935c0,-0.019 -0.01,-0.141 -0.015,-0.171c-0.114,-0.638 -1.342,-3.494 -1.351,-3.523c-0.087,-0.267 -0.321,-0.533 -0.699,-0.751l-3.224,-1.862c-0.89,-0.514 -2.238,-0.569 -3.009,-0.124l-3.657,2.111c-0.256,0.147 -0.416,0.332 -0.483,0.532Z" style="fill:#001b35;"/><path d="M82.047,102.64c-0.89,-0.514 -2.238,-0.569 -3.009,-0.124l-3.657,2.111c-0.77,0.445 -0.673,1.223 0.216,1.737l3.225,1.861c0.89,0.514 2.238,0.57 3.009,0.125l3.656,-2.111c0.771,-0.445 0.674,-1.223 -0.216,-1.737l-3.224,-1.862Z" style="fill:#fff;fill-opacity:0.11;"/><path d="M78.199,104.163l0.592,0.341l-0.784,0.452l2.623,1.515l-0.645,0.373l-2.623,-1.515l-0.784,0.452l-0.591,-0.341l2.212,-1.277Z" style="fill:#fff;fill-rule:nonzero;"/><path d="M64.513,111.159c-0.019,0.056 -1.365,3.31 -1.365,3.66c-0,0.423 0.309,0.869 0.911,1.217l3.994,2.306c1.102,0.636 2.771,0.705 3.726,0.154l4.528,-2.614c0.433,-0.25 0.645,-0.584 0.645,-0.934c-0,-0.02 -0.011,-0.142 -0.016,-0.172c-0.113,-0.638 -1.342,-3.494 -1.351,-3.523c-0.086,-0.267 -0.321,-0.533 -0.699,-0.751l-3.224,-1.861c-0.89,-0.514 -2.238,-0.57 -3.009,-0.125l-3.656,2.111c-0.256,0.148 -0.416,0.332 -0.484,0.532Z" style="fill:#001b35;"/><path d="M71.662,108.641c-0.89,-0.514 -2.238,-0.57 -3.009,-0.125l-3.656,2.111c-0.771,0.445 -0.674,1.223 0.216,1.737l3.224,1.862c0.89,0.513 2.238,0.569 3.009,0.124l3.657,-2.111c0.77,-0.445 0.673,-1.223 -0.217,-1.737l-3.224,-1.861Z" style="fill:#fff;fill-opacity:0.11;"/><path d="M68.464,112.126l1.189,0.687l-0.645,0.373l-3.214,-1.856l0.905,-0.523c0.201,-0.116 0.397,-0.201 0.587,-0.256c0.189,-0.054 0.372,-0.082 0.547,-0.085c0.175,-0.003 0.341,0.018 0.498,0.061c0.157,0.044 0.304,0.105 0.441,0.184c0.104,0.06 0.19,0.124 0.259,0.192c0.068,0.067 0.118,0.137 0.149,0.21c0.031,0.073 0.043,0.148 0.035,0.224c-0.008,0.075 -0.037,0.151 -0.088,0.226c0.069,-0.011 0.14,-0.016 0.214,-0.017c0.075,-0 0.152,0.007 0.233,0.021l1.711,0.304l-0.585,0.338c-0.108,0.062 -0.233,0.08 -0.374,0.053l-1.395,-0.272c-0.062,-0.012 -0.115,-0.015 -0.16,-0.01c-0.045,0.006 -0.093,0.023 -0.142,0.052l-0.165,0.094Zm-0.514,-0.296l0.26,-0.15c0.088,-0.051 0.15,-0.102 0.186,-0.152c0.036,-0.051 0.051,-0.101 0.045,-0.15c-0.006,-0.049 -0.031,-0.096 -0.074,-0.142c-0.043,-0.045 -0.1,-0.088 -0.171,-0.129c-0.141,-0.082 -0.291,-0.122 -0.45,-0.122c-0.159,-0 -0.322,0.048 -0.489,0.145l-0.26,0.15l0.953,0.55Z" style="fill:#fff;fill-rule:nonzero;"/><path d="M54.129,117.159c-0.019,0.056 -1.366,3.31 -1.366,3.661c0,0.423 0.309,0.869 0.912,1.217l3.993,2.305c1.102,0.637 2.772,0.706 3.726,0.155l4.529,-2.615c0.432,-0.249 0.644,-0.584 0.644,-0.934c-0,-0.019 -0.01,-0.141 -0.016,-0.172c-0.113,-0.637 -1.341,-3.494 -1.35,-3.522c-0.087,-0.268 -0.322,-0.534 -0.699,-0.751l-3.225,-1.862c-0.89,-0.514 -2.238,-0.57 -3.008,-0.125l-3.657,2.111c-0.256,0.148 -0.416,0.333 -0.483,0.532Z" style="fill:#001b35;"/><path d="M61.277,114.641c-0.89,-0.514 -2.238,-0.57 -3.008,-0.125l-3.657,2.111c-0.77,0.445 -0.674,1.223 0.216,1.737l3.225,1.862c0.89,0.514 2.238,0.57 3.008,0.125l3.657,-2.111c0.77,-0.445 0.674,-1.224 -0.216,-1.737l-3.225,-1.862Z" style="fill:#fff;fill-opacity:0.11;"/><path d="M57.201,116.296l0.573,0.331l-1.142,0.66l0.75,0.433l0.875,-0.506l0.552,0.319l-0.875,0.505l0.765,0.442l1.142,-0.66l0.574,0.331l-1.792,1.035l-3.214,-1.856l1.792,-1.034Z" style="fill:#fff;fill-rule:nonzero;"/><path d="M43.744,123.159c-0.019,0.057 -1.366,3.311 -1.366,3.661c0,0.423 0.309,0.869 0.912,1.217l3.994,2.306c1.102,0.636 2.771,0.705 3.726,0.154l4.528,-2.615c0.432,-0.249 0.644,-0.583 0.644,-0.934c0,-0.019 -0.01,-0.141 -0.015,-0.171c-0.114,-0.638 -1.342,-3.494 -1.351,-3.523c-0.086,-0.268 -0.321,-0.533 -0.699,-0.751l-3.224,-1.862c-0.89,-0.514 -2.238,-0.57 -3.009,-0.125l-3.657,2.112c-0.256,0.147 -0.416,0.332 -0.483,0.531Z" style="fill:#001b35;"/><path d="M50.893,120.641c-0.89,-0.514 -2.238,-0.57 -3.009,-0.125l-3.657,2.112c-0.77,0.444 -0.673,1.223 0.216,1.737l3.225,1.861c0.89,0.514 2.238,0.57 3.009,0.125l3.656,-2.111c0.771,-0.445 0.674,-1.223 -0.216,-1.737l-3.224,-1.862Z" style="fill:#fff;fill-opacity:0.11;"/><path d="M44.814,123.452l0.543,-0.313c0.056,-0.033 0.117,-0.051 0.184,-0.056c0.067,-0.005 0.131,0.004 0.191,0.025l2.058,0.748c0.067,0.024 0.138,0.05 0.213,0.078c0.074,0.028 0.149,0.06 0.223,0.096c-0.057,-0.048 -0.108,-0.093 -0.154,-0.137c-0.045,-0.044 -0.088,-0.086 -0.129,-0.126l-1.226,-1.228c-0.029,-0.03 -0.042,-0.066 -0.037,-0.107c0.004,-0.041 0.033,-0.076 0.087,-0.107l0.191,-0.111c0.056,-0.032 0.116,-0.05 0.181,-0.055c0.065,-0.004 0.13,0.004 0.194,0.025l2.123,0.71c0.066,0.021 0.135,0.045 0.208,0.069c0.074,0.025 0.149,0.053 0.227,0.085c-0.055,-0.044 -0.106,-0.085 -0.154,-0.125c-0.048,-0.041 -0.092,-0.079 -0.132,-0.115l-1.294,-1.189c-0.033,-0.03 -0.046,-0.066 -0.04,-0.107c0.006,-0.04 0.035,-0.076 0.089,-0.107l0.508,-0.294l2.354,2.352l-0.584,0.338l-2.516,-0.848c-0.039,-0.013 -0.082,-0.027 -0.129,-0.042c-0.046,-0.016 -0.094,-0.033 -0.144,-0.052c0.032,0.029 0.062,0.057 0.089,0.084c0.027,0.026 0.052,0.051 0.074,0.074l1.46,1.457l-0.584,0.337l-4.074,-1.359Z" style="fill:#fff;fill-rule:nonzero;"/><path d="M33.359,129.16c-0.019,0.056 -1.365,3.31 -1.365,3.66c-0,0.423 0.309,0.869 0.911,1.217l3.994,2.306c1.102,0.636 2.772,0.705 3.726,0.154l4.528,-2.614c0.433,-0.25 0.645,-0.584 0.645,-0.934c-0,-0.02 -0.011,-0.142 -0.016,-0.172c-0.113,-0.638 -1.342,-3.494 -1.351,-3.523c-0.086,-0.267 -0.321,-0.533 -0.698,-0.751l-3.225,-1.862c-0.89,-0.513 -2.238,-0.569 -3.009,-0.124l-3.656,2.111c-0.256,0.148 -0.416,0.332 -0.484,0.532Z" style="fill:#001b35;"/><path d="M40.508,126.641c-0.89,-0.513 -2.238,-0.569 -3.009,-0.124l-3.656,2.111c-0.771,0.445 -0.674,1.223 0.216,1.737l3.224,1.862c0.89,0.513 2.238,0.569 3.009,0.124l3.657,-2.111c0.77,-0.445 0.673,-1.223 -0.216,-1.737l-3.225,-1.862Z" style="fill:#fff;fill-opacity:0.11;"/><path d="M38.993,128.672c0.138,0.08 0.258,0.164 0.361,0.251c0.102,0.088 0.186,0.178 0.251,0.269c0.065,0.092 0.112,0.185 0.139,0.279c0.028,0.095 0.035,0.188 0.022,0.281l1.594,0.106l-0.531,0.306c-0.077,0.045 -0.157,0.078 -0.241,0.102c-0.083,0.024 -0.182,0.031 -0.295,0.022l-0.793,-0.059c-0.043,0.04 -0.09,0.079 -0.141,0.116c-0.05,0.038 -0.106,0.074 -0.167,0.11c-0.217,0.125 -0.456,0.215 -0.718,0.269c-0.262,0.055 -0.531,0.076 -0.805,0.064c-0.275,-0.012 -0.547,-0.056 -0.816,-0.132c-0.269,-0.075 -0.52,-0.18 -0.753,-0.314c-0.232,-0.134 -0.413,-0.279 -0.544,-0.435c-0.131,-0.155 -0.206,-0.312 -0.226,-0.47c-0.021,-0.158 0.016,-0.313 0.111,-0.464c0.094,-0.151 0.25,-0.29 0.466,-0.415c0.217,-0.125 0.456,-0.214 0.718,-0.268c0.263,-0.054 0.53,-0.074 0.803,-0.062c0.274,0.012 0.545,0.056 0.814,0.131c0.27,0.075 0.52,0.18 0.751,0.313Zm-0.661,0.382c-0.159,-0.092 -0.32,-0.164 -0.483,-0.217c-0.163,-0.053 -0.322,-0.086 -0.477,-0.098c-0.155,-0.012 -0.304,-0.004 -0.448,0.025c-0.144,0.028 -0.278,0.078 -0.401,0.15c-0.125,0.072 -0.213,0.15 -0.263,0.233c-0.05,0.083 -0.065,0.17 -0.044,0.259c0.022,0.09 0.078,0.182 0.17,0.276c0.091,0.094 0.217,0.187 0.375,0.278c0.161,0.093 0.322,0.166 0.485,0.218c0.163,0.053 0.322,0.086 0.477,0.098c0.155,0.013 0.305,0.004 0.448,-0.025c0.144,-0.03 0.278,-0.081 0.403,-0.153c0.124,-0.071 0.211,-0.148 0.261,-0.231c0.051,-0.082 0.065,-0.168 0.044,-0.258c-0.021,-0.09 -0.078,-0.181 -0.169,-0.275c-0.092,-0.094 -0.218,-0.188 -0.378,-0.28Z" style="fill:#fff;fill-rule:nonzero;"/><path d="M125.024,64.336c-0.019,0.056 -1.365,3.31 -1.365,3.66c-0,0.423 0.308,0.869 0.911,1.217l3.994,2.306c1.102,0.636 2.771,0.705 3.726,0.154l4.528,-2.614c0.433,-0.25 0.644,-0.584 0.644,-0.935c0,-0.019 -0.01,-0.141 -0.015,-0.171c-0.113,-0.638 -1.342,-3.494 -1.351,-3.523c-0.086,-0.267 -0.321,-0.533 -0.699,-0.751l-3.224,-1.862c-0.89,-0.513 -2.238,-0.569 -3.009,-0.124l-3.656,2.111c-0.256,0.148 -0.417,0.332 -0.484,0.532Z" style="fill:#001b35;"/><path d="M132.173,61.817c-0.89,-0.513 -2.238,-0.569 -3.009,-0.124l-3.656,2.111c-0.771,0.445 -0.674,1.223 0.216,1.737l3.224,1.861c0.89,0.514 2.238,0.57 3.009,0.125l3.656,-2.111c0.771,-0.445 0.674,-1.223 -0.216,-1.737l-3.224,-1.862Z" style="fill:#fff;fill-opacity:0.11;"/><path d="M129.624,64.345l-0.436,0.252c-0.034,0.02 -0.073,0.031 -0.115,0.032c-0.043,0.002 -0.087,-0.002 -0.132,-0.012l-0.76,-0.165c-0.068,-0.014 -0.133,-0.029 -0.194,-0.043c-0.061,-0.014 -0.12,-0.029 -0.177,-0.045c0.03,0.032 0.058,0.065 0.084,0.099c0.026,0.034 0.052,0.071 0.077,0.111l0.294,0.434c0.015,0.025 0.021,0.05 0.018,0.076c-0.003,0.025 -0.023,0.049 -0.061,0.071l-0.459,0.265l-0.782,-1.304l0.386,-0.222l2.257,0.451Z" style="fill:#fff;fill-rule:nonzero;"/><path d="M114.639,70.336c-0.019,0.056 -1.365,3.31 -1.365,3.66c-0,0.423 0.309,0.869 0.912,1.217l3.993,2.306c1.102,0.636 2.772,0.706 3.726,0.154l4.529,-2.614c0.432,-0.25 0.644,-0.584 0.644,-0.934c-0,-0.02 -0.011,-0.141 -0.016,-0.172c-0.113,-0.638 -1.341,-3.494 -1.351,-3.523c-0.086,-0.267 -0.321,-0.533 -0.698,-0.751l-3.225,-1.861c-0.89,-0.514 -2.238,-0.57 -3.008,-0.125l-3.657,2.111c-0.256,0.148 -0.416,0.332 -0.484,0.532Z" style="fill:#001b35;"/><path d="M121.788,67.818c-0.89,-0.514 -2.238,-0.57 -3.008,-0.125l-3.657,2.111c-0.771,0.445 -0.674,1.223 0.216,1.737l3.225,1.862c0.889,0.513 2.237,0.569 3.008,0.124l3.657,-2.111c0.77,-0.445 0.674,-1.223 -0.216,-1.737l-3.225,-1.861Z" style="fill:#fff;fill-opacity:0.11;"/><path d="M117.82,71.596l1.739,-1.004l0.489,0.283l-1.738,1.003l-0.49,-0.282Zm-0.809,-0.468l1.738,-1.004l0.492,0.284l-1.739,1.004l-0.491,-0.284Z" style="fill:#fff;fill-rule:nonzero;"/><path d="M104.255,76.336c-0.019,0.056 -1.366,3.31 -1.366,3.661c0,0.423 0.309,0.869 0.912,1.217l3.993,2.305c1.102,0.637 2.772,0.706 3.726,0.155l4.529,-2.615c0.432,-0.249 0.644,-0.584 0.644,-0.934c0,-0.019 -0.01,-0.141 -0.016,-0.172c-0.113,-0.637 -1.341,-3.494 -1.35,-3.522c-0.087,-0.268 -0.321,-0.533 -0.699,-0.751l-3.225,-1.862c-0.889,-0.514 -2.237,-0.57 -3.008,-0.125l-3.657,2.111c-0.256,0.148 -0.416,0.333 -0.483,0.532Z" style="fill:#001b35;"/><path d="M111.403,73.818c-0.889,-0.514 -2.237,-0.57 -3.008,-0.125l-3.657,2.111c-0.77,0.445 -0.674,1.224 0.216,1.737l3.225,1.862c0.89,0.514 2.238,0.57 3.008,0.125l3.657,-2.111c0.771,-0.445 0.674,-1.224 -0.216,-1.737l-3.225,-1.862Z" style="fill:#fff;fill-opacity:0.11;"/><path d="M108.245,77.207c-0.09,0.053 -0.2,0.094 -0.327,0.124c-0.128,0.031 -0.267,0.045 -0.417,0.044c-0.15,-0.002 -0.305,-0.024 -0.468,-0.064c-0.162,-0.041 -0.322,-0.107 -0.481,-0.199c-0.145,-0.084 -0.26,-0.177 -0.343,-0.278c-0.083,-0.102 -0.13,-0.205 -0.141,-0.311c-0.011,-0.106 0.015,-0.209 0.078,-0.311c0.063,-0.102 0.169,-0.196 0.317,-0.281c0.15,-0.087 0.311,-0.149 0.482,-0.187c0.172,-0.038 0.346,-0.053 0.524,-0.045c0.178,0.008 0.354,0.037 0.53,0.088c0.175,0.05 0.343,0.122 0.501,0.213c0.106,0.061 0.198,0.123 0.276,0.185c0.078,0.062 0.146,0.125 0.205,0.189c0.058,0.064 0.108,0.128 0.148,0.194c0.04,0.066 0.075,0.134 0.104,0.204l0.384,0.914c0.017,0.04 0.013,0.084 -0.012,0.132c-0.025,0.049 -0.073,0.093 -0.141,0.133l-0.547,0.315l-0.335,-1.213c-0.007,-0.024 -0.014,-0.048 -0.021,-0.07c-0.007,-0.023 -0.014,-0.045 -0.023,-0.067c-0.022,0.053 -0.057,0.104 -0.107,0.154c-0.05,0.049 -0.112,0.095 -0.186,0.137Zm-0.372,-0.916c-0.078,-0.045 -0.156,-0.079 -0.236,-0.102c-0.079,-0.023 -0.156,-0.036 -0.231,-0.038c-0.074,-0.003 -0.147,0.004 -0.217,0.021c-0.071,0.016 -0.135,0.042 -0.194,0.076c-0.059,0.034 -0.1,0.072 -0.123,0.113c-0.022,0.041 -0.028,0.083 -0.018,0.126c0.01,0.043 0.036,0.087 0.077,0.13c0.041,0.044 0.095,0.085 0.163,0.124c0.32,0.185 0.609,0.203 0.867,0.055c0.126,-0.073 0.179,-0.154 0.16,-0.244c-0.02,-0.09 -0.102,-0.177 -0.248,-0.261Z" style="fill:#fff;fill-rule:nonzero;"/><path d="M93.87,82.336c-0.019,0.057 -1.365,3.311 -1.365,3.661c-0,0.423 0.308,0.869 0.911,1.217l3.994,2.306c1.102,0.636 2.771,0.705 3.726,0.154l4.528,-2.614c0.433,-0.25 0.644,-0.584 0.644,-0.935c0,-0.019 -0.01,-0.141 -0.015,-0.171c-0.113,-0.638 -1.342,-3.494 -1.351,-3.523c-0.086,-0.268 -0.321,-0.533 -0.699,-0.751l-3.224,-1.862c-0.89,-0.514 -2.238,-0.569 -3.009,-0.125l-3.656,2.112c-0.256,0.147 -0.417,0.332 -0.484,0.531Z" style="fill:#001b35;"/><path d="M101.019,79.818c-0.89,-0.514 -2.238,-0.569 -3.009,-0.125l-3.656,2.112c-0.771,0.444 -0.674,1.223 0.216,1.737l3.224,1.861c0.89,0.514 2.238,0.57 3.009,0.125l3.656,-2.111c0.771,-0.445 0.674,-1.223 -0.216,-1.737l-3.224,-1.862Z" style="fill:#fff;fill-opacity:0.11;"/><path d="M99.279,83.876c-0.148,0.086 -0.306,0.15 -0.474,0.195c-0.168,0.044 -0.337,0.067 -0.507,0.07c-0.17,0.002 -0.338,-0.017 -0.504,-0.057c-0.165,-0.041 -0.32,-0.102 -0.464,-0.186c-0.087,-0.05 -0.16,-0.102 -0.22,-0.156c-0.06,-0.055 -0.103,-0.111 -0.13,-0.17c-0.026,-0.059 -0.035,-0.12 -0.026,-0.183c0.01,-0.063 0.039,-0.128 0.09,-0.196c-0.194,0.035 -0.38,0.037 -0.56,0.004c-0.179,-0.032 -0.351,-0.096 -0.516,-0.191c-0.125,-0.072 -0.219,-0.152 -0.281,-0.239c-0.062,-0.087 -0.092,-0.177 -0.089,-0.268c0.002,-0.091 0.036,-0.182 0.101,-0.271c0.066,-0.09 0.164,-0.172 0.295,-0.248c0.131,-0.076 0.274,-0.132 0.429,-0.17c0.155,-0.038 0.312,-0.057 0.47,-0.059c0.158,-0.001 0.313,0.016 0.464,0.052c0.151,0.036 0.289,0.09 0.414,0.162c0.165,0.095 0.275,0.195 0.33,0.299c0.056,0.104 0.053,0.211 -0.007,0.322c0.117,-0.028 0.23,-0.045 0.339,-0.05c0.109,-0.006 0.215,-0.001 0.316,0.015c0.102,0.015 0.2,0.04 0.295,0.074c0.095,0.034 0.186,0.076 0.273,0.126c0.144,0.084 0.251,0.173 0.321,0.268c0.07,0.096 0.103,0.193 0.098,0.291c-0.004,0.099 -0.044,0.196 -0.121,0.293c-0.076,0.097 -0.189,0.188 -0.336,0.273Zm-0.517,-0.298c0.067,-0.038 0.112,-0.078 0.137,-0.119c0.025,-0.042 0.033,-0.083 0.024,-0.125c-0.01,-0.041 -0.035,-0.082 -0.075,-0.122c-0.041,-0.04 -0.092,-0.079 -0.156,-0.115c-0.069,-0.04 -0.138,-0.073 -0.209,-0.099c-0.07,-0.026 -0.14,-0.042 -0.209,-0.048c-0.07,-0.007 -0.141,-0.002 -0.213,0.013c-0.071,0.015 -0.144,0.044 -0.216,0.086c-0.073,0.041 -0.122,0.083 -0.149,0.125c-0.026,0.041 -0.033,0.082 -0.022,0.122c0.011,0.041 0.039,0.081 0.084,0.121c0.044,0.041 0.101,0.081 0.17,0.121c0.063,0.036 0.13,0.066 0.2,0.09c0.069,0.023 0.14,0.037 0.212,0.043c0.071,0.005 0.143,0.001 0.214,-0.013c0.072,-0.014 0.141,-0.041 0.208,-0.08Zm-1.438,-0.83c0.066,-0.038 0.108,-0.077 0.125,-0.115c0.017,-0.039 0.017,-0.077 0,-0.115c-0.017,-0.038 -0.047,-0.075 -0.091,-0.11c-0.044,-0.036 -0.094,-0.07 -0.15,-0.102c-0.05,-0.029 -0.105,-0.054 -0.163,-0.074c-0.059,-0.021 -0.119,-0.034 -0.181,-0.04c-0.062,-0.006 -0.125,-0.003 -0.188,0.008c-0.064,0.012 -0.125,0.034 -0.184,0.068c-0.059,0.034 -0.099,0.07 -0.117,0.106c-0.019,0.036 -0.023,0.072 -0.014,0.108c0.01,0.036 0.033,0.071 0.069,0.105c0.035,0.034 0.078,0.065 0.128,0.094c0.056,0.032 0.115,0.061 0.177,0.086c0.062,0.026 0.125,0.043 0.191,0.053c0.065,0.01 0.131,0.01 0.198,0c0.067,-0.01 0.134,-0.034 0.2,-0.072Z" style="fill:#fff;fill-rule:nonzero;"/><path d="M83.485,88.337c-0.019,0.056 -1.365,3.31 -1.365,3.66c-0,0.423 0.309,0.869 0.912,1.217l3.993,2.306c1.102,0.636 2.772,0.705 3.726,0.154l4.529,-2.614c0.432,-0.25 0.644,-0.584 0.644,-0.934c-0,-0.02 -0.011,-0.142 -0.016,-0.172c-0.113,-0.638 -1.341,-3.494 -1.351,-3.523c-0.086,-0.267 -0.321,-0.533 -0.698,-0.751l-3.225,-1.862c-0.89,-0.513 -2.238,-0.569 -3.008,-0.124l-3.657,2.111c-0.256,0.148 -0.416,0.332 -0.484,0.532Z" style="fill:#001b35;"/><path d="M90.634,85.818c-0.89,-0.513 -2.238,-0.569 -3.008,-0.124l-3.657,2.111c-0.771,0.445 -0.674,1.223 0.216,1.737l3.225,1.862c0.889,0.513 2.237,0.569 3.008,0.124l3.657,-2.111c0.77,-0.445 0.674,-1.223 -0.216,-1.737l-3.225,-1.862Z" style="fill:#fff;fill-opacity:0.11;"/><path d="M86.649,87.421l0.287,0.165c0.081,0.047 0.139,0.089 0.174,0.127c0.034,0.037 0.062,0.07 0.084,0.099l1.405,1.934c0.038,0.051 0.054,0.104 0.047,0.158c-0.006,0.053 -0.05,0.104 -0.131,0.151l-0.432,0.249l-1.307,-1.902c-0.037,-0.052 -0.065,-0.101 -0.083,-0.148c-0.019,-0.047 -0.033,-0.094 -0.041,-0.142l-1.225,0.707c-0.018,0.01 -0.039,0.018 -0.063,0.022c-0.024,0.005 -0.049,0.007 -0.075,0.006c-0.026,-0.002 -0.052,-0.005 -0.078,-0.011c-0.026,-0.007 -0.049,-0.015 -0.068,-0.026l-0.45,-0.26l1.956,-1.129Z" style="fill:#fff;fill-rule:nonzero;"/><path d="M73.101,94.337c-0.019,0.056 -1.366,3.31 -1.366,3.661c0,0.422 0.309,0.869 0.912,1.217l3.993,2.305c1.102,0.636 2.772,0.706 3.726,0.155l4.529,-2.615c0.432,-0.249 0.644,-0.584 0.644,-0.934c0,-0.019 -0.01,-0.141 -0.016,-0.172c-0.113,-0.637 -1.341,-3.494 -1.35,-3.522c-0.087,-0.268 -0.321,-0.534 -0.699,-0.752l-3.225,-1.861c-0.889,-0.514 -2.237,-0.57 -3.008,-0.125l-3.657,2.111c-0.256,0.148 -0.416,0.333 -0.483,0.532Z" style="fill:#001b35;"/><path d="M80.249,91.819c-0.889,-0.514 -2.237,-0.57 -3.008,-0.125l-3.657,2.111c-0.77,0.445 -0.673,1.223 0.216,1.737l3.225,1.862c0.89,0.514 2.238,0.569 3.008,0.125l3.657,-2.112c0.771,-0.444 0.674,-1.223 -0.216,-1.737l-3.225,-1.861Z" style="fill:#fff;fill-opacity:0.11;"/><path d="M76.644,94.562c0.101,-0.058 0.219,-0.104 0.356,-0.139c0.136,-0.035 0.283,-0.051 0.44,-0.05c0.157,0.001 0.32,0.022 0.489,0.065c0.169,0.042 0.336,0.111 0.501,0.206c0.15,0.087 0.268,0.183 0.354,0.289c0.086,0.105 0.135,0.213 0.148,0.322c0.012,0.109 -0.015,0.217 -0.081,0.323c-0.066,0.106 -0.175,0.203 -0.326,0.29c-0.156,0.09 -0.324,0.154 -0.504,0.193c-0.18,0.038 -0.364,0.053 -0.551,0.044c-0.188,-0.009 -0.374,-0.041 -0.561,-0.096c-0.186,-0.056 -0.364,-0.132 -0.533,-0.23c-0.16,-0.092 -0.293,-0.2 -0.399,-0.323c-0.105,-0.122 -0.188,-0.261 -0.248,-0.417l-0.351,-0.926c-0.016,-0.041 -0.011,-0.087 0.015,-0.137c0.026,-0.049 0.075,-0.095 0.146,-0.136l0.527,-0.304l0.313,1.133c0.004,0.017 0.008,0.034 0.012,0.05c0.005,0.017 0.01,0.033 0.015,0.049c0.025,-0.036 0.057,-0.072 0.096,-0.106c0.039,-0.034 0.086,-0.068 0.142,-0.1Zm0.394,0.942c0.079,0.046 0.159,0.082 0.239,0.109c0.079,0.027 0.159,0.044 0.239,0.05c0.08,0.007 0.158,0.002 0.235,-0.014c0.076,-0.016 0.15,-0.045 0.222,-0.086c0.061,-0.036 0.105,-0.076 0.131,-0.122c0.026,-0.046 0.035,-0.093 0.027,-0.142c-0.008,-0.049 -0.032,-0.097 -0.072,-0.146c-0.04,-0.049 -0.097,-0.095 -0.171,-0.138c-0.082,-0.047 -0.166,-0.083 -0.252,-0.109c-0.086,-0.025 -0.17,-0.039 -0.252,-0.043c-0.082,-0.003 -0.162,0.004 -0.24,0.022c-0.078,0.017 -0.15,0.045 -0.216,0.084c-0.06,0.034 -0.102,0.073 -0.128,0.115c-0.025,0.043 -0.033,0.088 -0.024,0.135c0.009,0.048 0.036,0.095 0.078,0.144c0.043,0.048 0.104,0.095 0.184,0.141Z" style="fill:#fff;fill-rule:nonzero;"/><path d="M62.716,100.337c-0.019,0.057 -1.365,3.311 -1.365,3.661c-0,0.423 0.309,0.869 0.911,1.217l3.994,2.305c1.102,0.637 2.771,0.706 3.726,0.155l4.528,-2.615c0.433,-0.249 0.644,-0.584 0.644,-0.934c0,-0.019 -0.01,-0.141 -0.015,-0.172c-0.113,-0.637 -1.342,-3.493 -1.351,-3.522c-0.086,-0.268 -0.321,-0.533 -0.699,-0.751l-3.224,-1.862c-0.89,-0.514 -2.238,-0.57 -3.009,-0.125l-3.656,2.111c-0.256,0.148 -0.417,0.333 -0.484,0.532Z" style="fill:#001b35;"/><path d="M69.865,97.819c-0.89,-0.514 -2.238,-0.57 -3.009,-0.125l-3.656,2.111c-0.771,0.445 -0.674,1.224 0.216,1.737l3.224,1.862c0.89,0.514 2.238,0.57 3.009,0.125l3.656,-2.111c0.771,-0.445 0.674,-1.224 -0.216,-1.737l-3.224,-1.862Z" style="fill:#fff;fill-opacity:0.11;"/><path d="M65.956,99.703c0.047,0.027 0.084,0.056 0.109,0.085c0.026,0.03 0.039,0.06 0.04,0.093c0.001,0.032 -0.012,0.066 -0.042,0.1c-0.029,0.035 -0.074,0.07 -0.137,0.106l-0.665,0.384l0.454,0.352c0.042,-0.036 0.084,-0.069 0.127,-0.1c0.044,-0.031 0.088,-0.06 0.134,-0.086c0.146,-0.085 0.301,-0.145 0.465,-0.18c0.164,-0.035 0.328,-0.048 0.493,-0.041c0.166,0.007 0.328,0.034 0.487,0.081c0.158,0.047 0.306,0.11 0.443,0.188c0.172,0.1 0.302,0.206 0.392,0.318c0.089,0.113 0.137,0.226 0.146,0.34c0.009,0.113 -0.024,0.224 -0.098,0.332c-0.074,0.109 -0.188,0.207 -0.344,0.297c-0.09,0.052 -0.187,0.096 -0.292,0.13c-0.104,0.035 -0.211,0.062 -0.32,0.082c-0.11,0.02 -0.22,0.034 -0.33,0.04c-0.11,0.007 -0.218,0.009 -0.324,0.005l-0.099,-0.269c-0.01,-0.028 -0.01,-0.053 -0,-0.077c0.01,-0.024 0.029,-0.044 0.059,-0.061c0.038,-0.022 0.086,-0.036 0.144,-0.041c0.058,-0.006 0.122,-0.012 0.19,-0.018c0.069,-0.007 0.142,-0.019 0.219,-0.036c0.077,-0.017 0.155,-0.049 0.234,-0.094c0.079,-0.046 0.131,-0.094 0.157,-0.143c0.026,-0.05 0.031,-0.1 0.013,-0.151c-0.017,-0.05 -0.052,-0.1 -0.106,-0.149c-0.054,-0.05 -0.121,-0.098 -0.2,-0.143c-0.156,-0.09 -0.313,-0.137 -0.471,-0.14c-0.158,-0.003 -0.307,0.036 -0.447,0.117c-0.125,0.072 -0.22,0.158 -0.286,0.259l-0.481,0.145l-1.371,-1.065l1.425,-0.823l0.282,0.163Z" style="fill:#fff;fill-rule:nonzero;"/><path d="M52.331,106.338c-0.018,0.056 -1.365,3.31 -1.365,3.66c-0,0.423 0.309,0.869 0.912,1.217l3.993,2.306c1.102,0.636 2.772,0.705 3.726,0.154l4.529,-2.614c0.432,-0.25 0.644,-0.584 0.644,-0.934c-0,-0.02 -0.01,-0.142 -0.016,-0.172c-0.113,-0.638 -1.341,-3.494 -1.351,-3.523c-0.086,-0.267 -0.321,-0.533 -0.698,-0.751l-3.225,-1.862c-0.89,-0.513 -2.238,-0.569 -3.008,-0.124l-3.657,2.111c-0.256,0.148 -0.416,0.332 -0.484,0.532Z" style="fill:#001b35;"/><path d="M59.48,103.819c-0.89,-0.513 -2.238,-0.569 -3.008,-0.124l-3.657,2.111c-0.771,0.445 -0.674,1.223 0.216,1.737l3.225,1.861c0.889,0.514 2.238,0.57 3.008,0.125l3.657,-2.111c0.77,-0.445 0.674,-1.223 -0.216,-1.737l-3.225,-1.862Z" style="fill:#fff;fill-opacity:0.11;"/><path d="M57.213,106.7l0.286,-0.166l0.384,0.222c0.034,0.019 0.053,0.042 0.059,0.068c0.005,0.026 -0.011,0.049 -0.048,0.07l-0.172,0.1l0.739,0.426l-0.516,0.298l-0.739,-0.426l-1.119,0.646c-0.037,0.021 -0.084,0.033 -0.14,0.035c-0.057,0.002 -0.108,-0.006 -0.156,-0.025l-0.398,-0.159l-0.711,-1.898l0.565,-0.326l1.966,1.135Zm-1.354,-0.187c-0.052,-0.029 -0.106,-0.062 -0.162,-0.099c-0.057,-0.036 -0.113,-0.074 -0.17,-0.114l0.453,1.111l0.717,-0.414l-0.838,-0.484Z" style="fill:#fff;fill-rule:nonzero;"/><path d="M41.947,112.338c-0.019,0.056 -1.366,3.31 -1.366,3.66c0,0.423 0.309,0.869 0.912,1.217l3.993,2.306c1.102,0.636 2.772,0.706 3.726,0.155l4.529,-2.615c0.432,-0.25 0.644,-0.584 0.644,-0.934c0,-0.02 -0.01,-0.141 -0.016,-0.172c-0.113,-0.638 -1.341,-3.494 -1.35,-3.523c-0.087,-0.267 -0.321,-0.533 -0.699,-0.751l-3.225,-1.861c-0.889,-0.514 -2.237,-0.57 -3.008,-0.125l-3.657,2.111c-0.256,0.148 -0.416,0.332 -0.483,0.532Z" style="fill:#001b35;"/><path d="M49.095,109.82c-0.889,-0.514 -2.237,-0.57 -3.008,-0.125l-3.657,2.111c-0.77,0.445 -0.673,1.223 0.216,1.737l3.225,1.862c0.89,0.513 2.238,0.569 3.008,0.124l3.657,-2.111c0.771,-0.445 0.674,-1.223 -0.216,-1.737l-3.225,-1.861Z" style="fill:#fff;fill-opacity:0.11;"/><path d="M44.166,111.926c0.138,-0.079 0.282,-0.137 0.434,-0.173c0.152,-0.035 0.303,-0.053 0.454,-0.051c0.15,0.001 0.294,0.02 0.433,0.056c0.139,0.036 0.265,0.087 0.377,0.151c0.101,0.059 0.181,0.115 0.241,0.17c0.059,0.055 0.1,0.109 0.121,0.162c0.022,0.053 0.027,0.106 0.015,0.158c-0.012,0.053 -0.038,0.106 -0.078,0.16c0.432,-0.107 0.828,-0.056 1.188,0.152c0.171,0.098 0.293,0.2 0.366,0.304c0.073,0.103 0.106,0.205 0.1,0.306c-0.006,0.1 -0.047,0.196 -0.123,0.289c-0.077,0.093 -0.179,0.176 -0.308,0.25c-0.133,0.077 -0.267,0.135 -0.403,0.176c-0.136,0.04 -0.28,0.063 -0.43,0.069c-0.15,0.006 -0.31,-0.005 -0.479,-0.033c-0.169,-0.027 -0.351,-0.072 -0.546,-0.133l0.14,-0.223c0.012,-0.02 0.026,-0.038 0.044,-0.053c0.018,-0.016 0.038,-0.03 0.059,-0.042c0.041,-0.024 0.087,-0.04 0.138,-0.048c0.051,-0.008 0.102,-0.007 0.154,0.004c0.179,0.038 0.329,0.054 0.448,0.048c0.119,-0.005 0.223,-0.033 0.309,-0.083c0.066,-0.038 0.111,-0.079 0.134,-0.122c0.024,-0.043 0.031,-0.086 0.023,-0.128c-0.008,-0.042 -0.029,-0.082 -0.064,-0.122c-0.035,-0.039 -0.079,-0.074 -0.132,-0.104c-0.069,-0.04 -0.135,-0.074 -0.199,-0.101c-0.063,-0.027 -0.134,-0.041 -0.212,-0.042c-0.077,-0.001 -0.166,0.015 -0.264,0.047c-0.098,0.032 -0.216,0.088 -0.354,0.168l-0.472,-0.273c0.116,-0.067 0.199,-0.127 0.25,-0.18c0.051,-0.053 0.078,-0.101 0.08,-0.144c0.003,-0.044 -0.015,-0.084 -0.054,-0.121c-0.038,-0.037 -0.089,-0.073 -0.15,-0.109c-0.127,-0.073 -0.251,-0.114 -0.372,-0.123c-0.121,-0.009 -0.236,0.018 -0.344,0.08c-0.045,0.026 -0.078,0.054 -0.1,0.084c-0.023,0.03 -0.036,0.06 -0.04,0.091c-0.004,0.032 -0,0.063 0.013,0.095c0.012,0.032 0.032,0.063 0.059,0.093c0.046,0.05 0.068,0.092 0.066,0.127c-0.001,0.035 -0.029,0.068 -0.083,0.099c-0.012,0.008 -0.027,0.015 -0.043,0.023c-0.016,0.007 -0.033,0.015 -0.051,0.022l-0.378,0.144c-0.14,-0.105 -0.24,-0.208 -0.301,-0.31c-0.061,-0.102 -0.089,-0.201 -0.082,-0.297c0.006,-0.095 0.046,-0.186 0.117,-0.273c0.072,-0.086 0.172,-0.166 0.299,-0.24Z" style="fill:#fff;fill-rule:nonzero;"/><path d="M31.562,118.338c-0.019,0.056 -1.365,3.311 -1.365,3.661c-0,0.423 0.309,0.869 0.911,1.217l3.994,2.305c1.102,0.637 2.771,0.706 3.726,0.155l4.528,-2.615c0.433,-0.249 0.644,-0.584 0.644,-0.934c0,-0.019 -0.01,-0.141 -0.015,-0.172c-0.113,-0.637 -1.342,-3.494 -1.351,-3.522c-0.086,-0.268 -0.321,-0.533 -0.699,-0.751l-3.224,-1.862c-0.89,-0.514 -2.238,-0.57 -3.009,-0.125l-3.656,2.111c-0.256,0.148 -0.417,0.333 -0.484,0.532Z" style="fill:#001b35;"/><path d="M38.711,115.82c-0.89,-0.514 -2.238,-0.57 -3.009,-0.125l-3.656,2.111c-0.771,0.445 -0.674,1.224 0.216,1.737l3.224,1.862c0.89,0.514 2.238,0.57 3.009,0.125l3.656,-2.111c0.771,-0.445 0.674,-1.224 -0.216,-1.737l-3.224,-1.862Z" style="fill:#fff;fill-opacity:0.11;"/><path d="M33.728,117.957c0.138,-0.079 0.285,-0.137 0.441,-0.174c0.157,-0.037 0.315,-0.054 0.475,-0.051c0.16,0.003 0.318,0.025 0.473,0.067c0.155,0.042 0.301,0.102 0.438,0.181c0.118,0.068 0.212,0.139 0.284,0.213c0.071,0.075 0.127,0.152 0.168,0.233c0.041,0.081 0.071,0.165 0.089,0.251c0.019,0.087 0.035,0.177 0.048,0.27l0.1,0.686c0.046,-0.054 0.097,-0.105 0.151,-0.152c0.054,-0.048 0.111,-0.089 0.171,-0.123l0.52,-0.3c0.063,-0.037 0.134,-0.054 0.211,-0.052c0.078,0.002 0.149,0.022 0.216,0.06l0.397,0.229l-1.957,1.13l-0.22,-0.128c-0.043,-0.024 -0.081,-0.055 -0.114,-0.092c-0.033,-0.037 -0.051,-0.078 -0.052,-0.123l-0.131,-1.002c-0.011,-0.085 -0.026,-0.163 -0.048,-0.234c-0.021,-0.071 -0.05,-0.137 -0.086,-0.196c-0.037,-0.06 -0.082,-0.114 -0.135,-0.164c-0.054,-0.05 -0.119,-0.097 -0.197,-0.142c-0.128,-0.074 -0.253,-0.116 -0.374,-0.125c-0.121,-0.009 -0.236,0.018 -0.344,0.081c-0.045,0.025 -0.078,0.053 -0.1,0.083c-0.023,0.03 -0.036,0.06 -0.04,0.092c-0.005,0.031 -0,0.062 0.013,0.094c0.012,0.032 0.032,0.063 0.059,0.093c0.046,0.05 0.068,0.093 0.066,0.128c-0.002,0.035 -0.029,0.067 -0.083,0.098c-0.012,0.008 -0.027,0.015 -0.043,0.023c-0.016,0.007 -0.033,0.015 -0.052,0.022l-0.377,0.144c-0.14,-0.104 -0.24,-0.208 -0.301,-0.31c-0.062,-0.102 -0.089,-0.201 -0.082,-0.297c0.006,-0.095 0.045,-0.186 0.117,-0.273c0.072,-0.086 0.172,-0.166 0.299,-0.24Z" style="fill:#fff;fill-rule:nonzero;"/><path d="M148.667,62.957c-0.006,0.025 -1.386,3.461 -1.399,3.772c-0.017,0.399 0.268,0.825 0.84,1.155l3.682,2.126c1.017,0.587 2.556,0.65 3.436,0.142l0.247,-0.142l8.04,4.642c1.1,0.635 2.766,0.704 3.718,0.154l5.178,-2.989c0.491,-0.283 0.697,-0.677 0.63,-1.078c-0.062,-0.377 -1.382,-3.911 -1.395,-3.961c-0.08,-0.306 -0.339,-0.613 -0.771,-0.862l-12.32,-7.113c-0.89,-0.513 -2.238,-0.569 -3.008,-0.124l-6.376,3.681c-0.284,0.164 -0.45,0.373 -0.502,0.597Z" style="fill:#001b35;"/><path d="M155.545,58.679l-6.376,3.681c-0.771,0.445 -0.674,1.223 0.216,1.737l3.225,1.861c0.889,0.514 2.237,0.57 3.008,0.125l0.216,-0.125l7.4,4.273c0.963,0.556 2.422,0.616 3.256,0.135l4.534,-2.618c0.834,-0.481 0.729,-1.324 -0.234,-1.88l-12.237,-7.065c-0.89,-0.513 -2.238,-0.569 -3.008,-0.124Z" style="fill:#fff;fill-opacity:0.13;"/><path d="M151.317,62.58l0.301,0.173l-0.599,0.345l0.393,0.227l0.458,-0.264l0.289,0.166l-0.458,0.265l0.401,0.232l0.598,-0.346l0.301,0.174l-0.939,0.541l-1.683,-0.972l0.938,-0.541Z" style="fill:#fff;fill-rule:nonzero;"/><path d="M153.193,63.441l-1.198,-0.692l0.192,-0.111c0.019,-0.011 0.04,-0.018 0.063,-0.019c0.023,-0.002 0.048,0.001 0.073,0.01l0.087,0.029c-0.001,-0.024 -0.001,-0.047 0.002,-0.07c0.003,-0.023 0.01,-0.045 0.022,-0.067c0.012,-0.021 0.028,-0.042 0.049,-0.063c0.021,-0.02 0.048,-0.04 0.082,-0.06c0.056,-0.032 0.118,-0.055 0.184,-0.067c0.067,-0.012 0.135,-0.015 0.206,-0.009c0.07,0.006 0.141,0.021 0.212,0.044c0.071,0.023 0.14,0.054 0.205,0.092l0.762,0.44l-0.311,0.179l-0.761,-0.44c-0.059,-0.034 -0.116,-0.053 -0.172,-0.059c-0.056,-0.005 -0.107,0.005 -0.152,0.031c-0.034,0.02 -0.058,0.043 -0.071,0.07c-0.013,0.028 -0.019,0.057 -0.018,0.09l0.854,0.493l-0.31,0.179Z" style="fill:#fff;fill-rule:nonzero;"/><path d="M154.737,62.571c-0.05,0.028 -0.102,0.049 -0.156,0.061c-0.054,0.012 -0.109,0.017 -0.165,0.014c-0.057,-0.003 -0.113,-0.013 -0.169,-0.03c-0.057,-0.017 -0.112,-0.041 -0.165,-0.072l-0.619,-0.357l-0.088,0.051c-0.016,0.009 -0.036,0.013 -0.059,0.013c-0.023,-0 -0.047,-0.007 -0.07,-0.021l-0.14,-0.08l0.129,-0.117l-0.232,-0.204c-0.029,-0.026 -0.024,-0.05 0.013,-0.071l0.162,-0.094l0.35,0.202l0.252,-0.145l0.245,0.141l-0.252,0.146l0.595,0.343c0.028,0.016 0.057,0.026 0.086,0.03c0.03,0.003 0.056,-0.001 0.078,-0.014c0.011,-0.006 0.02,-0.013 0.025,-0.019c0.005,-0.006 0.008,-0.011 0.01,-0.016c0.003,-0.006 0.005,-0.011 0.007,-0.015c0.002,-0.004 0.007,-0.009 0.014,-0.012c0.009,-0.006 0.019,-0.009 0.03,-0.009c0.01,-0.001 0.024,0.001 0.041,0.003l0.264,0.044c-0.006,0.043 -0.025,0.084 -0.057,0.123c-0.033,0.039 -0.076,0.074 -0.129,0.105Z" style="fill:#fff;fill-rule:nonzero;"/><path d="M154.382,61.349c0.069,-0.039 0.144,-0.069 0.226,-0.087c0.081,-0.019 0.166,-0.027 0.254,-0.023c0.088,0.003 0.178,0.018 0.269,0.044c0.091,0.026 0.18,0.064 0.266,0.114c0.027,0.015 0.048,0.029 0.063,0.04c0.015,0.011 0.025,0.02 0.029,0.029c0.005,0.009 0.005,0.017 -0,0.025c-0.005,0.007 -0.015,0.015 -0.029,0.023l-0.598,0.346c0.11,0.052 0.209,0.078 0.296,0.08c0.088,0.001 0.166,-0.018 0.233,-0.057c0.036,-0.02 0.062,-0.041 0.078,-0.062c0.016,-0.021 0.028,-0.041 0.036,-0.06c0.008,-0.018 0.016,-0.036 0.023,-0.051c0.007,-0.016 0.02,-0.029 0.038,-0.04c0.025,-0.014 0.054,-0.019 0.087,-0.014l0.219,0.022c0.01,0.043 0.01,0.083 -0,0.119c-0.011,0.037 -0.028,0.071 -0.052,0.102c-0.024,0.031 -0.053,0.06 -0.086,0.086c-0.033,0.026 -0.067,0.049 -0.103,0.069c-0.073,0.042 -0.154,0.074 -0.246,0.095c-0.091,0.021 -0.187,0.029 -0.289,0.026c-0.101,-0.004 -0.206,-0.021 -0.314,-0.051c-0.107,-0.03 -0.215,-0.076 -0.321,-0.137c-0.08,-0.047 -0.144,-0.097 -0.192,-0.152c-0.048,-0.055 -0.077,-0.111 -0.086,-0.168c-0.01,-0.057 0.001,-0.112 0.033,-0.167c0.031,-0.055 0.087,-0.105 0.166,-0.151Zm0.253,0.14c-0.059,0.034 -0.086,0.072 -0.081,0.114c0.006,0.041 0.04,0.086 0.103,0.135l0.387,-0.224c-0.029,-0.016 -0.06,-0.031 -0.093,-0.042c-0.033,-0.012 -0.068,-0.02 -0.103,-0.024c-0.036,-0.004 -0.072,-0.003 -0.108,0.003c-0.037,0.006 -0.071,0.018 -0.105,0.038Z" style="fill:#fff;fill-rule:nonzero;"/><path d="M156.243,61.68l-1.198,-0.692l0.184,-0.106c0.015,-0.009 0.03,-0.016 0.043,-0.02c0.014,-0.004 0.027,-0.006 0.041,-0.007c0.013,-0 0.027,0.002 0.042,0.006c0.014,0.004 0.03,0.01 0.048,0.017l0.129,0.055c-0.029,-0.061 -0.04,-0.117 -0.032,-0.167c0.008,-0.05 0.04,-0.091 0.096,-0.123c0.048,-0.028 0.099,-0.042 0.154,-0.043l0.223,0.175c0.013,0.011 0.019,0.02 0.018,0.029c-0.001,0.008 -0.009,0.016 -0.022,0.024c-0.012,0.006 -0.027,0.013 -0.045,0.02c-0.019,0.007 -0.04,0.017 -0.064,0.031c-0.081,0.047 -0.095,0.112 -0.042,0.197l0.735,0.425l-0.31,0.179Z" style="fill:#fff;fill-rule:nonzero;"/><path d="M138.854,79.995c-0.019,0.056 -1.366,3.31 -1.366,3.661c0,0.423 0.309,0.869 0.912,1.217l3.994,2.305c1.102,0.637 2.771,0.706 3.726,0.155l4.528,-2.615c0.432,-0.249 0.644,-0.584 0.644,-0.934c0,-0.019 -0.01,-0.141 -0.015,-0.172c-0.114,-0.637 -1.342,-3.494 -1.351,-3.522c-0.087,-0.268 -0.321,-0.533 -0.699,-0.751l-3.224,-1.862c-0.89,-0.514 -2.238,-0.57 -3.009,-0.125l-3.657,2.111c-0.256,0.148 -0.416,0.333 -0.483,0.532Z" style="fill:#001b35;"/><path d="M146.003,77.477c-0.89,-0.514 -2.238,-0.57 -3.009,-0.125l-3.657,2.111c-0.77,0.445 -0.673,1.223 0.216,1.737l3.225,1.862c0.89,0.514 2.238,0.57 3.009,0.125l3.656,-2.111c0.771,-0.445 0.674,-1.224 -0.216,-1.737l-3.224,-1.862Z" style="fill:#fff;fill-opacity:0.11;"/><path d="M141.944,80.757l-0.382,-0.22c-0.029,-0.017 -0.057,-0.036 -0.084,-0.055c-0.027,-0.019 -0.049,-0.038 -0.067,-0.057c0.004,0.022 0.004,0.043 0,0.064c-0.004,0.021 -0.01,0.043 -0.016,0.065l-0.092,0.27l-0.4,-0.072l0.092,-0.27c0.008,-0.023 0.018,-0.045 0.03,-0.066c0.013,-0.021 0.029,-0.04 0.048,-0.058c-0.031,0.011 -0.065,0.02 -0.102,0.027c-0.036,0.007 -0.075,0.012 -0.115,0.017l-0.471,0.05l-0.127,-0.232l0.473,-0.049c0.039,-0.004 0.077,-0.007 0.115,-0.009c0.038,-0.003 0.076,-0.003 0.113,-0c-0.065,-0.02 -0.13,-0.049 -0.193,-0.085l-0.386,-0.223l0.279,-0.161l0.382,0.22c0.03,0.018 0.059,0.036 0.085,0.055c0.026,0.019 0.049,0.038 0.068,0.058c-0.004,-0.022 -0.005,-0.043 -0.001,-0.065c0.003,-0.021 0.009,-0.043 0.015,-0.066l0.089,-0.27l0.403,0.073l-0.092,0.269c-0.009,0.024 -0.02,0.047 -0.032,0.068c-0.013,0.02 -0.029,0.04 -0.048,0.058c0.031,-0.011 0.065,-0.021 0.103,-0.028c0.037,-0.007 0.076,-0.013 0.116,-0.017l0.471,-0.051l0.125,0.231l-0.471,0.051c-0.04,0.004 -0.079,0.008 -0.116,0.01c-0.038,0.002 -0.075,0.002 -0.114,0c0.068,0.02 0.133,0.048 0.195,0.084l0.386,0.223l-0.279,0.161Z" style="fill:#fff;fill-rule:nonzero;"/><path d="M128.469,85.991c-0.019,0.056 -1.365,3.31 -1.365,3.66c-0,0.423 0.309,0.869 0.911,1.217l3.994,2.306c1.102,0.636 2.771,0.705 3.726,0.154l4.528,-2.614c0.433,-0.25 0.645,-0.584 0.645,-0.934c-0,-0.02 -0.011,-0.142 -0.016,-0.172c-0.113,-0.638 -1.342,-3.494 -1.351,-3.523c-0.086,-0.267 -0.321,-0.533 -0.699,-0.751l-3.224,-1.862c-0.89,-0.513 -2.238,-0.569 -3.009,-0.124l-3.656,2.111c-0.256,0.148 -0.417,0.332 -0.484,0.532Z" style="fill:#001b35;"/><path d="M135.618,83.472c-0.89,-0.513 -2.238,-0.569 -3.009,-0.124l-3.656,2.111c-0.771,0.445 -0.674,1.223 0.216,1.737l3.224,1.862c0.89,0.513 2.238,0.569 3.009,0.124l3.656,-2.111c0.771,-0.445 0.674,-1.223 -0.216,-1.737l-3.224,-1.862Z" style="fill:#fff;fill-opacity:0.11;"/><path d="M131.479,85.872l0.873,0.504l0.707,-0.408l0.49,0.283l-0.707,0.408l0.878,0.507l-0.482,0.278l-0.878,-0.507l-0.703,0.406l-0.489,-0.283l0.703,-0.406l-0.874,-0.504l0.482,-0.278Z" style="fill:#fff;fill-rule:nonzero;"/><path d="M118.085,91.986c-0.019,0.057 -1.366,3.311 -1.366,3.661c0,0.423 0.309,0.869 0.912,1.217l3.993,2.305c1.102,0.637 2.772,0.706 3.726,0.155l4.529,-2.615c0.432,-0.249 0.644,-0.584 0.644,-0.934c-0,-0.019 -0.01,-0.141 -0.016,-0.172c-0.113,-0.637 -1.341,-3.493 -1.351,-3.522c-0.086,-0.268 -0.321,-0.533 -0.698,-0.751l-3.225,-1.862c-0.89,-0.514 -2.238,-0.57 -3.008,-0.125l-3.657,2.111c-0.256,0.148 -0.416,0.333 -0.483,0.532Z" style="fill:#001b35;"/><path d="M125.233,89.468c-0.89,-0.514 -2.238,-0.57 -3.008,-0.125l-3.657,2.111c-0.77,0.445 -0.674,1.224 0.216,1.737l3.225,1.862c0.89,0.514 2.238,0.57 3.008,0.125l3.657,-2.111c0.77,-0.445 0.674,-1.224 -0.216,-1.737l-3.225,-1.862Z" style="fill:#fff;fill-opacity:0.11;"/><path d="M122.629,93.297l1.032,-0.596l0.595,0.344l-1.677,0.968l-3.214,-1.855l0.646,-0.373l2.618,1.512Z" style="fill:#fff;fill-rule:nonzero;"/><path d="M107.7,97.982c-0.019,0.056 -1.366,3.31 -1.366,3.66c0,0.423 0.309,0.869 0.912,1.217l3.994,2.306c1.102,0.636 2.771,0.706 3.726,0.154l4.528,-2.614c0.432,-0.25 0.644,-0.584 0.644,-0.934c0,-0.02 -0.01,-0.141 -0.015,-0.172c-0.114,-0.638 -1.342,-3.494 -1.351,-3.523c-0.087,-0.267 -0.321,-0.533 -0.699,-0.751l-3.224,-1.861c-0.89,-0.514 -2.238,-0.57 -3.009,-0.125l-3.657,2.111c-0.256,0.148 -0.416,0.332 -0.483,0.532Z" style="fill:#001b35;"/><path d="M114.849,95.464c-0.89,-0.514 -2.238,-0.57 -3.009,-0.125l-3.657,2.111c-0.77,0.445 -0.673,1.223 0.216,1.737l3.225,1.862c0.89,0.513 2.238,0.569 3.009,0.124l3.656,-2.111c0.771,-0.445 0.674,-1.223 -0.216,-1.737l-3.224,-1.861Z" style="fill:#fff;fill-opacity:0.11;"/><path d="M110.927,98.532l0.104,-0.06c0.095,-0.055 0.129,-0.115 0.102,-0.179l-0.423,-0.968c-0.023,-0.053 -0.023,-0.098 0,-0.135c0.024,-0.037 0.067,-0.074 0.131,-0.111l0.562,-0.324l0.474,1.226c0.017,0.044 0.026,0.084 0.025,0.121c-0.001,0.036 -0.008,0.07 -0.02,0.101c0.069,-0.017 0.141,-0.026 0.217,-0.028c0.077,-0.002 0.161,0.004 0.255,0.02l2.332,0.376l-0.577,0.333c-0.037,0.021 -0.072,0.037 -0.104,0.049c-0.032,0.012 -0.063,0.02 -0.094,0.024c-0.031,0.004 -0.062,0.006 -0.093,0.004c-0.031,-0.002 -0.064,-0.005 -0.098,-0.011l-1.749,-0.281c-0.064,-0.011 -0.122,-0.011 -0.174,-0.001c-0.052,0.011 -0.108,0.033 -0.168,0.068l-0.157,0.09l1.368,0.79l-0.646,0.373l-3.214,-1.856l0.646,-0.373l1.301,0.752Z" style="fill:#fff;fill-rule:nonzero;"/><path d="M97.315,103.978c-0.019,0.056 -1.365,3.31 -1.365,3.66c-0,0.423 0.309,0.869 0.911,1.217l3.994,2.306c1.102,0.636 2.771,0.705 3.726,0.154l4.528,-2.614c0.433,-0.25 0.645,-0.584 0.645,-0.935c-0,-0.019 -0.011,-0.141 -0.016,-0.171c-0.113,-0.638 -1.342,-3.494 -1.351,-3.523c-0.086,-0.268 -0.321,-0.533 -0.699,-0.751l-3.224,-1.862c-0.89,-0.514 -2.238,-0.569 -3.009,-0.125l-3.656,2.112c-0.256,0.147 -0.416,0.332 -0.484,0.532Z" style="fill:#001b35;"/><path d="M104.464,101.459c-0.89,-0.514 -2.238,-0.569 -3.009,-0.125l-3.656,2.112c-0.771,0.445 -0.674,1.223 0.216,1.737l3.224,1.861c0.89,0.514 2.238,0.57 3.009,0.125l3.657,-2.111c0.77,-0.445 0.673,-1.223 -0.217,-1.737l-3.224,-1.862Z" style="fill:#fff;fill-opacity:0.11;"/><path d="M101.829,104.648c0.18,0.104 0.324,0.209 0.432,0.316c0.108,0.108 0.176,0.214 0.202,0.32c0.027,0.106 0.01,0.21 -0.05,0.312c-0.06,0.102 -0.171,0.199 -0.331,0.292c-0.073,0.042 -0.149,0.081 -0.228,0.116c-0.08,0.036 -0.168,0.07 -0.265,0.102l-0.4,-0.27c-0.036,-0.024 -0.054,-0.049 -0.054,-0.076c0,-0.028 0.021,-0.053 0.063,-0.078c0.022,-0.012 0.053,-0.025 0.093,-0.039c0.04,-0.014 0.082,-0.033 0.126,-0.059c0.063,-0.036 0.107,-0.073 0.134,-0.112c0.027,-0.038 0.032,-0.079 0.016,-0.124c-0.015,-0.044 -0.053,-0.092 -0.113,-0.144c-0.06,-0.053 -0.145,-0.11 -0.255,-0.174l-2.065,-1.192l0.646,-0.373l2.049,1.183Z" style="fill:#fff;fill-rule:nonzero;"/><path d="M86.931,109.973c-0.019,0.056 -1.366,3.31 -1.366,3.661c0,0.422 0.309,0.869 0.912,1.217l3.993,2.305c1.102,0.636 2.772,0.706 3.726,0.155l4.529,-2.615c0.432,-0.249 0.644,-0.584 0.644,-0.934c-0,-0.019 -0.01,-0.141 -0.016,-0.172c-0.113,-0.637 -1.341,-3.494 -1.35,-3.522c-0.087,-0.268 -0.322,-0.534 -0.699,-0.752l-3.225,-1.861c-0.89,-0.514 -2.238,-0.57 -3.008,-0.125l-3.657,2.111c-0.256,0.148 -0.416,0.333 -0.483,0.532Z" style="fill:#001b35;"/><path d="M94.079,107.455c-0.89,-0.514 -2.238,-0.57 -3.008,-0.125l-3.657,2.111c-0.77,0.445 -0.674,1.223 0.216,1.737l3.225,1.862c0.89,0.514 2.238,0.57 3.008,0.125l3.657,-2.112c0.77,-0.444 0.674,-1.223 -0.216,-1.737l-3.225,-1.861Z" style="fill:#fff;fill-opacity:0.11;"/><path d="M93.855,110.597l-0.649,0.375l-1.359,-0.785l-1.131,0.653l1.359,0.785l-0.65,0.375l-3.214,-1.856l0.649,-0.375l1.344,0.776l1.131,-0.653l-1.344,-0.776l0.65,-0.375l3.214,1.856Z" style="fill:#fff;fill-rule:nonzero;"/><path d="M76.546,115.969c-0.019,0.056 -1.366,3.31 -1.366,3.66c0,0.423 0.309,0.869 0.912,1.217l3.994,2.306c1.102,0.636 2.771,0.705 3.726,0.154l4.528,-2.614c0.432,-0.25 0.644,-0.584 0.644,-0.934c0,-0.02 -0.01,-0.142 -0.015,-0.172c-0.114,-0.638 -1.342,-3.494 -1.351,-3.523c-0.086,-0.267 -0.321,-0.533 -0.699,-0.751l-3.224,-1.862c-0.89,-0.513 -2.238,-0.569 -3.009,-0.124l-3.657,2.111c-0.256,0.148 -0.416,0.332 -0.483,0.532Z" style="fill:#001b35;"/><path d="M83.695,113.45c-0.89,-0.513 -2.238,-0.569 -3.009,-0.124l-3.657,2.111c-0.77,0.445 -0.673,1.223 0.216,1.737l3.225,1.861c0.89,0.514 2.238,0.57 3.009,0.125l3.656,-2.111c0.771,-0.445 0.674,-1.223 -0.216,-1.737l-3.224,-1.862Z" style="fill:#fff;fill-opacity:0.11;"/><path d="M81.813,116.928c0.089,-0.051 0.159,-0.102 0.21,-0.152c0.051,-0.05 0.093,-0.101 0.124,-0.153l-0.487,-0.282l-0.275,0.159c-0.041,0.024 -0.085,0.035 -0.133,0.034c-0.048,-0.001 -0.091,-0.013 -0.13,-0.035l-0.41,-0.237l0.99,-0.571l1.356,0.783c-0.011,0.076 -0.033,0.149 -0.067,0.218c-0.033,0.07 -0.08,0.138 -0.139,0.204c-0.059,0.067 -0.132,0.132 -0.217,0.197c-0.086,0.065 -0.185,0.13 -0.298,0.195c-0.204,0.118 -0.434,0.202 -0.691,0.255c-0.256,0.052 -0.521,0.072 -0.794,0.061c-0.273,-0.012 -0.546,-0.055 -0.818,-0.129c-0.273,-0.074 -0.527,-0.179 -0.762,-0.315c-0.24,-0.139 -0.426,-0.286 -0.558,-0.441c-0.132,-0.156 -0.207,-0.313 -0.224,-0.471c-0.018,-0.158 0.024,-0.312 0.124,-0.464c0.101,-0.151 0.263,-0.292 0.488,-0.421c0.115,-0.067 0.235,-0.124 0.359,-0.17c0.124,-0.046 0.248,-0.083 0.373,-0.11c0.124,-0.028 0.248,-0.047 0.372,-0.057c0.124,-0.011 0.246,-0.015 0.363,-0.011l0.142,0.298c0.013,0.028 0.016,0.054 0.009,0.079c-0.008,0.024 -0.026,0.045 -0.055,0.062c-0.038,0.022 -0.093,0.036 -0.163,0.043c-0.086,0.009 -0.165,0.019 -0.235,0.03c-0.071,0.011 -0.139,0.026 -0.202,0.044c-0.063,0.018 -0.125,0.039 -0.184,0.065c-0.06,0.026 -0.122,0.058 -0.187,0.095c-0.121,0.07 -0.205,0.147 -0.253,0.232c-0.047,0.084 -0.06,0.172 -0.039,0.263c0.022,0.091 0.077,0.184 0.166,0.278c0.089,0.093 0.21,0.185 0.365,0.274c0.17,0.099 0.342,0.174 0.515,0.227c0.173,0.053 0.342,0.085 0.505,0.096c0.163,0.011 0.318,0.002 0.464,-0.027c0.147,-0.03 0.278,-0.078 0.396,-0.146Z" style="fill:#fff;fill-rule:nonzero;"/><path d="M66.161,121.964c-0.019,0.056 -1.365,3.311 -1.365,3.661c-0,0.423 0.309,0.869 0.911,1.217l3.994,2.305c1.102,0.637 2.772,0.706 3.726,0.155l4.528,-2.615c0.433,-0.249 0.645,-0.584 0.645,-0.934c-0,-0.019 -0.011,-0.141 -0.016,-0.172c-0.113,-0.637 -1.342,-3.494 -1.351,-3.522c-0.086,-0.268 -0.321,-0.533 -0.698,-0.751l-3.225,-1.862c-0.89,-0.514 -2.238,-0.57 -3.009,-0.125l-3.656,2.111c-0.256,0.148 -0.416,0.333 -0.484,0.532Z" style="fill:#001b35;"/><path d="M73.31,119.446c-0.89,-0.514 -2.238,-0.57 -3.009,-0.125l-3.656,2.111c-0.771,0.445 -0.674,1.224 0.216,1.737l3.224,1.862c0.89,0.514 2.238,0.57 3.009,0.125l3.657,-2.111c0.77,-0.445 0.673,-1.224 -0.216,-1.737l-3.225,-1.862Z" style="fill:#fff;fill-opacity:0.11;"/><path d="M69.234,121.101l0.573,0.331l-1.142,0.66l0.814,0.47l0.951,-0.55l0.576,0.333l-0.952,0.549l1.251,0.722l-0.649,0.375l-3.214,-1.855l1.792,-1.035Z" style="fill:#fff;fill-rule:nonzero;"/><path d="M55.777,127.96c-0.019,0.056 -1.366,3.31 -1.366,3.66c0,0.423 0.309,0.869 0.912,1.217l3.993,2.306c1.102,0.636 2.772,0.705 3.726,0.154l4.529,-2.614c0.432,-0.25 0.644,-0.584 0.644,-0.934c-0,-0.02 -0.01,-0.142 -0.016,-0.172c-0.113,-0.638 -1.341,-3.494 -1.35,-3.523c-0.087,-0.267 -0.322,-0.533 -0.699,-0.751l-3.225,-1.861c-0.89,-0.514 -2.238,-0.57 -3.008,-0.125l-3.657,2.111c-0.256,0.148 -0.416,0.332 -0.483,0.532Z" style="fill:#001b35;"/><path d="M62.925,125.442c-0.89,-0.514 -2.238,-0.57 -3.008,-0.125l-3.657,2.111c-0.77,0.445 -0.674,1.223 0.216,1.737l3.225,1.862c0.89,0.513 2.238,0.569 3.008,0.124l3.657,-2.111c0.77,-0.445 0.674,-1.223 -0.216,-1.737l-3.225,-1.861Z" style="fill:#fff;fill-opacity:0.11;"/><path d="M61.188,127.6c0.233,0.134 0.412,0.278 0.539,0.432c0.127,0.153 0.199,0.307 0.217,0.463c0.017,0.156 -0.023,0.308 -0.121,0.457c-0.097,0.149 -0.254,0.285 -0.471,0.41l-1.081,0.625l-3.214,-1.856l1.081,-0.624c0.217,-0.125 0.454,-0.216 0.713,-0.272c0.258,-0.055 0.522,-0.079 0.791,-0.069c0.269,0.01 0.536,0.051 0.802,0.124c0.265,0.074 0.514,0.177 0.744,0.31Zm-0.661,0.382c-0.158,-0.092 -0.32,-0.164 -0.483,-0.218c-0.164,-0.053 -0.324,-0.086 -0.479,-0.099c-0.156,-0.013 -0.306,-0.005 -0.451,0.024c-0.145,0.028 -0.279,0.078 -0.402,0.149l-0.432,0.249l2.067,1.194l0.432,-0.25c0.123,-0.071 0.21,-0.148 0.259,-0.232c0.049,-0.083 0.062,-0.17 0.04,-0.26c-0.022,-0.09 -0.079,-0.182 -0.172,-0.277c-0.092,-0.094 -0.218,-0.188 -0.379,-0.28Z" style="fill:#fff;fill-rule:nonzero;"/><path d="M45.392,133.955c-0.019,0.057 -1.366,3.311 -1.366,3.661c0,0.423 0.309,0.869 0.912,1.217l3.994,2.306c1.102,0.636 2.771,0.705 3.726,0.154l4.528,-2.615c0.432,-0.249 0.644,-0.583 0.644,-0.934c0,-0.019 -0.01,-0.141 -0.015,-0.171c-0.113,-0.638 -1.342,-3.494 -1.351,-3.523c-0.086,-0.268 -0.321,-0.533 -0.699,-0.751l-3.224,-1.862c-0.89,-0.514 -2.238,-0.57 -3.009,-0.125l-3.656,2.112c-0.257,0.147 -0.417,0.332 -0.484,0.531Z" style="fill:#001b35;"/><path d="M52.541,131.437c-0.89,-0.514 -2.238,-0.57 -3.009,-0.125l-3.656,2.112c-0.771,0.444 -0.674,1.223 0.216,1.737l3.224,1.861c0.89,0.514 2.238,0.57 3.009,0.125l3.656,-2.111c0.771,-0.445 0.674,-1.223 -0.216,-1.737l-3.224,-1.862Z" style="fill:#fff;fill-opacity:0.11;"/><path d="M52.477,134.487l-0.501,0.289c-0.056,0.032 -0.117,0.05 -0.183,0.054c-0.067,0.003 -0.131,-0.005 -0.192,-0.024l-0.724,-0.228l-1.059,0.611l0.396,0.418c0.029,0.031 0.041,0.067 0.037,0.107c-0.004,0.041 -0.032,0.076 -0.086,0.107l-0.504,0.292l-2.137,-2.478l0.661,-0.382l4.292,1.234Zm-3.017,0.323l0.76,-0.439l-1.136,-0.361c-0.072,-0.022 -0.157,-0.049 -0.256,-0.08c-0.098,-0.031 -0.201,-0.066 -0.311,-0.104c0.069,0.064 0.131,0.124 0.186,0.18c0.055,0.057 0.1,0.107 0.137,0.15l0.62,0.654Z" style="fill:#fff;fill-rule:nonzero;"/><path d="M151.335,84.574c-0.019,0.057 -1.366,3.311 -1.366,3.661c0,0.423 0.309,0.869 0.912,1.217l3.994,2.306c1.102,0.636 2.771,0.705 3.725,0.154l4.529,-2.615c0.432,-0.249 0.644,-0.584 0.644,-0.934c0,-0.019 -0.01,-0.141 -0.016,-0.172c-0.113,-0.637 -1.341,-3.493 -1.35,-3.522c-0.087,-0.268 -0.321,-0.533 -0.699,-0.751l-3.224,-1.862c-0.89,-0.514 -2.238,-0.57 -3.009,-0.125l-3.657,2.111c-0.256,0.148 -0.416,0.333 -0.483,0.532Z" style="fill:#001b35;"/><path d="M158.484,82.056c-0.89,-0.514 -2.238,-0.57 -3.009,-0.125l-3.657,2.111c-0.77,0.445 -0.673,1.224 0.216,1.737l3.225,1.862c0.89,0.514 2.238,0.57 3.009,0.125l3.656,-2.111c0.771,-0.445 0.674,-1.223 -0.216,-1.737l-3.224,-1.862Z" style="fill:#fff;fill-opacity:0.11;"/><path d="M157.344,86.002l0.428,0.247l-1.506,0.869l-0.428,-0.247l1.506,-0.869Z" style="fill:#fff;fill-rule:nonzero;"/><path d="M140.95,90.569c-0.019,0.056 -1.365,3.311 -1.365,3.661c-0,0.423 0.309,0.869 0.911,1.217l3.994,2.305c1.102,0.637 2.771,0.706 3.726,0.155l4.528,-2.615c0.433,-0.249 0.645,-0.584 0.645,-0.934c-0,-0.019 -0.011,-0.141 -0.016,-0.172c-0.113,-0.637 -1.342,-3.493 -1.351,-3.522c-0.086,-0.268 -0.321,-0.533 -0.699,-0.751l-3.224,-1.862c-0.89,-0.514 -2.238,-0.57 -3.009,-0.125l-3.656,2.111c-0.256,0.148 -0.417,0.333 -0.484,0.532Z" style="fill:#001b35;"/><path d="M148.099,88.051c-0.89,-0.514 -2.238,-0.57 -3.009,-0.125l-3.656,2.111c-0.771,0.445 -0.674,1.224 0.216,1.737l3.224,1.862c0.89,0.514 2.238,0.57 3.009,0.125l3.656,-2.111c0.771,-0.445 0.674,-1.224 -0.216,-1.737l-3.224,-1.862Z" style="fill:#fff;fill-opacity:0.11;"/><path d="M142.367,91c0.002,-0.053 0.01,-0.107 0.026,-0.162c0.016,-0.055 0.04,-0.11 0.074,-0.164c0.033,-0.054 0.078,-0.107 0.135,-0.159c0.056,-0.052 0.127,-0.103 0.212,-0.152c0.12,-0.069 0.246,-0.121 0.379,-0.155c0.133,-0.035 0.267,-0.051 0.403,-0.051c0.136,0.001 0.271,0.018 0.403,0.053c0.133,0.034 0.258,0.086 0.376,0.154c0.113,0.065 0.196,0.129 0.251,0.191c0.054,0.062 0.09,0.123 0.109,0.181c0.019,0.059 0.026,0.115 0.02,0.168c-0.006,0.054 -0.011,0.104 -0.017,0.152c-0.006,0.047 -0.006,0.091 -0.002,0.131c0.004,0.04 0.025,0.075 0.063,0.106l0.256,0.209l-0.405,0.234l-0.398,-0.181c-0.01,-0.004 -0.019,-0.009 -0.029,-0.014c-0.009,-0.004 -0.019,-0.009 -0.027,-0.014c-0.065,-0.038 -0.108,-0.078 -0.13,-0.122c-0.022,-0.043 -0.033,-0.088 -0.032,-0.135c0,-0.047 0.005,-0.095 0.015,-0.144c0.009,-0.049 0.013,-0.097 0.01,-0.146c-0.003,-0.048 -0.017,-0.096 -0.044,-0.142c-0.027,-0.047 -0.077,-0.091 -0.151,-0.134c-0.088,-0.051 -0.184,-0.077 -0.286,-0.078c-0.103,-0.001 -0.198,0.024 -0.286,0.075c-0.067,0.039 -0.115,0.076 -0.144,0.111c-0.03,0.036 -0.05,0.069 -0.063,0.099c-0.013,0.03 -0.023,0.057 -0.031,0.08c-0.008,0.023 -0.024,0.042 -0.048,0.056c-0.055,0.032 -0.123,0.039 -0.204,0.023l-0.435,-0.07Zm2.926,1.284c-0.053,-0.031 -0.093,-0.064 -0.122,-0.1c-0.028,-0.037 -0.044,-0.073 -0.048,-0.11c-0.004,-0.037 0.004,-0.073 0.025,-0.108c0.021,-0.035 0.056,-0.066 0.104,-0.094c0.047,-0.027 0.101,-0.047 0.162,-0.059c0.06,-0.012 0.123,-0.017 0.187,-0.015c0.065,0.002 0.128,0.011 0.191,0.027c0.063,0.016 0.121,0.04 0.174,0.071c0.053,0.03 0.094,0.064 0.123,0.1c0.029,0.037 0.045,0.074 0.048,0.111c0.004,0.037 -0.006,0.073 -0.027,0.108c-0.022,0.034 -0.056,0.065 -0.103,0.092c-0.049,0.028 -0.103,0.049 -0.163,0.061c-0.06,0.013 -0.122,0.018 -0.185,0.015c-0.064,-0.002 -0.128,-0.011 -0.191,-0.028c-0.064,-0.017 -0.122,-0.041 -0.175,-0.071Z" style="fill:#fff;fill-rule:nonzero;"/><path d="M130.566,96.564c-0.019,0.056 -1.366,3.31 -1.366,3.661c-0,0.423 0.309,0.869 0.912,1.217l3.993,2.305c1.102,0.637 2.772,0.706 3.726,0.155l4.529,-2.615c0.432,-0.249 0.644,-0.584 0.644,-0.934c-0,-0.019 -0.01,-0.141 -0.016,-0.172c-0.113,-0.637 -1.341,-3.494 -1.351,-3.522c-0.086,-0.268 -0.321,-0.533 -0.698,-0.751l-3.225,-1.862c-0.89,-0.514 -2.238,-0.57 -3.008,-0.125l-3.657,2.111c-0.256,0.148 -0.416,0.333 -0.483,0.532Z" style="fill:#001b35;"/><path d="M137.714,94.046c-0.89,-0.514 -2.238,-0.57 -3.008,-0.125l-3.657,2.111c-0.771,0.445 -0.674,1.224 0.216,1.737l3.225,1.862c0.889,0.514 2.238,0.57 3.008,0.125l3.657,-2.111c0.77,-0.445 0.674,-1.224 -0.216,-1.737l-3.225,-1.862Z" style="fill:#fff;fill-opacity:0.11;"/><path d="M135.444,96.805l-0.614,1.433l-0.475,-0.274c-0.033,-0.02 -0.057,-0.042 -0.069,-0.067c-0.013,-0.025 -0.013,-0.053 -0.001,-0.084l0.203,-0.509c0.012,-0.031 0.03,-0.06 0.055,-0.089c0.025,-0.029 0.052,-0.059 0.081,-0.089c-0.053,0.017 -0.105,0.032 -0.156,0.046c-0.052,0.013 -0.104,0.023 -0.156,0.03l-0.88,0.118c-0.054,0.007 -0.103,0.007 -0.147,-0.001c-0.044,-0.007 -0.083,-0.021 -0.116,-0.04l-0.475,-0.274l2.483,-0.354l0.267,0.154Z" style="fill:#fff;fill-rule:nonzero;"/><path d="M120.181,102.559c-0.019,0.056 -1.366,3.31 -1.366,3.661c0,0.422 0.309,0.869 0.912,1.217l3.994,2.305c1.102,0.636 2.771,0.706 3.725,0.155l4.529,-2.615c0.432,-0.249 0.644,-0.584 0.644,-0.934c0,-0.019 -0.01,-0.141 -0.016,-0.172c-0.113,-0.637 -1.341,-3.494 -1.35,-3.522c-0.087,-0.268 -0.321,-0.534 -0.699,-0.752l-3.224,-1.861c-0.89,-0.514 -2.238,-0.57 -3.009,-0.125l-3.657,2.111c-0.256,0.148 -0.416,0.333 -0.483,0.532Z" style="fill:#001b35;"/><path d="M127.33,100.041c-0.89,-0.514 -2.238,-0.57 -3.009,-0.125l-3.657,2.111c-0.77,0.445 -0.673,1.223 0.216,1.737l3.225,1.862c0.89,0.514 2.238,0.569 3.009,0.125l3.656,-2.112c0.771,-0.444 0.674,-1.223 -0.216,-1.737l-3.224,-1.861Z" style="fill:#fff;fill-opacity:0.11;"/><path d="M123.073,103.639l0.612,-1.434l0.474,0.274c0.034,0.02 0.058,0.042 0.071,0.068c0.014,0.025 0.014,0.053 0.002,0.084l-0.206,0.508c-0.012,0.031 -0.03,0.062 -0.053,0.091c-0.023,0.029 -0.049,0.059 -0.078,0.089c0.053,-0.016 0.104,-0.032 0.153,-0.046c0.05,-0.014 0.101,-0.025 0.155,-0.032l0.882,-0.117c0.054,-0.007 0.102,-0.007 0.146,0c0.043,0.008 0.081,0.021 0.115,0.04l0.474,0.274l-2.48,0.355l-0.267,-0.154Z" style="fill:#fff;fill-rule:nonzero;"/><path d="M109.796,108.554c-0.019,0.056 -1.365,3.31 -1.365,3.66c-0,0.423 0.309,0.869 0.911,1.217l3.994,2.306c1.102,0.636 2.771,0.706 3.726,0.155l4.528,-2.615c0.433,-0.25 0.645,-0.584 0.645,-0.934c-0,-0.02 -0.011,-0.141 -0.016,-0.172c-0.113,-0.638 -1.342,-3.494 -1.351,-3.523c-0.086,-0.267 -0.321,-0.533 -0.699,-0.751l-3.224,-1.861c-0.89,-0.514 -2.238,-0.57 -3.009,-0.125l-3.656,2.111c-0.256,0.148 -0.417,0.332 -0.484,0.532Z" style="fill:#001b35;"/><path d="M116.945,106.036c-0.89,-0.514 -2.238,-0.57 -3.009,-0.125l-3.656,2.111c-0.771,0.445 -0.674,1.223 0.216,1.737l3.224,1.862c0.89,0.514 2.238,0.569 3.009,0.124l3.656,-2.111c0.771,-0.445 0.674,-1.223 -0.216,-1.737l-3.224,-1.861Z" style="fill:#fff;fill-opacity:0.11;"/><path d="M111.417,108.529c0.028,-0.016 0.053,-0.029 0.075,-0.038c0.022,-0.01 0.044,-0.016 0.068,-0.021c0.023,-0.004 0.049,-0.006 0.078,-0.005c0.029,0 0.064,0.002 0.107,0.007l3.252,0.351c-0.066,-0.033 -0.13,-0.065 -0.191,-0.097c-0.06,-0.033 -0.116,-0.063 -0.168,-0.093l-1.701,-0.982l0.57,-0.329l3.214,1.856l-0.337,0.194c-0.049,0.029 -0.1,0.048 -0.152,0.058c-0.052,0.009 -0.118,0.01 -0.197,0.001l-3.227,-0.348c0.06,0.03 0.118,0.06 0.174,0.089c0.056,0.03 0.108,0.058 0.155,0.086l1.723,0.994l-0.569,0.329l-3.214,-1.856l0.34,-0.196Z" style="fill:#fff;fill-rule:nonzero;"/><path d="M99.412,114.549c-0.019,0.056 -1.366,3.31 -1.366,3.66c-0,0.423 0.309,0.869 0.912,1.217l3.993,2.306c1.102,0.636 2.772,0.705 3.726,0.154l4.529,-2.614c0.432,-0.25 0.644,-0.584 0.644,-0.934c-0,-0.02 -0.01,-0.141 -0.016,-0.172c-0.113,-0.638 -1.341,-3.494 -1.351,-3.523c-0.086,-0.267 -0.321,-0.533 -0.698,-0.751l-3.225,-1.861c-0.89,-0.514 -2.238,-0.57 -3.008,-0.125l-3.657,2.111c-0.256,0.148 -0.416,0.332 -0.483,0.532Z" style="fill:#001b35;"/><path d="M106.56,112.031c-0.89,-0.514 -2.238,-0.57 -3.008,-0.125l-3.657,2.111c-0.771,0.445 -0.674,1.223 0.216,1.737l3.225,1.862c0.89,0.513 2.238,0.569 3.008,0.124l3.657,-2.111c0.77,-0.445 0.674,-1.223 -0.216,-1.737l-3.225,-1.861Z" style="fill:#fff;fill-opacity:0.11;"/><path d="M103.906,116.576l-3.214,-1.856l1.024,-0.591c0.192,-0.111 0.376,-0.194 0.553,-0.248c0.176,-0.054 0.344,-0.084 0.504,-0.09c0.161,-0.006 0.314,0.011 0.46,0.05c0.146,0.04 0.286,0.098 0.418,0.174c0.072,0.042 0.133,0.087 0.182,0.136c0.049,0.049 0.084,0.101 0.104,0.157c0.021,0.057 0.025,0.116 0.013,0.178c-0.012,0.062 -0.042,0.127 -0.091,0.196c0.235,-0.076 0.454,-0.106 0.657,-0.09c0.204,0.016 0.396,0.076 0.577,0.181c0.136,0.078 0.241,0.165 0.312,0.26c0.072,0.094 0.108,0.192 0.107,0.294c-0.001,0.101 -0.042,0.204 -0.123,0.307c-0.081,0.104 -0.204,0.204 -0.371,0.3l-1.112,0.642Zm-0.718,-1.16l0.801,0.462l0.455,-0.262c0.085,-0.05 0.142,-0.097 0.172,-0.143c0.029,-0.045 0.039,-0.089 0.03,-0.129c-0.01,-0.041 -0.033,-0.079 -0.072,-0.114c-0.039,-0.036 -0.084,-0.068 -0.135,-0.098c-0.059,-0.034 -0.118,-0.061 -0.179,-0.08c-0.06,-0.02 -0.123,-0.029 -0.188,-0.029c-0.065,-0 -0.133,0.01 -0.204,0.031c-0.071,0.021 -0.147,0.055 -0.229,0.102l-0.451,0.26Zm-0.498,-0.288l0.336,-0.194c0.071,-0.041 0.13,-0.082 0.175,-0.122c0.046,-0.04 0.074,-0.08 0.085,-0.12c0.01,-0.04 0.001,-0.081 -0.03,-0.123c-0.03,-0.042 -0.085,-0.085 -0.162,-0.13c-0.077,-0.044 -0.149,-0.076 -0.216,-0.096c-0.067,-0.02 -0.134,-0.028 -0.199,-0.026c-0.065,0.002 -0.131,0.014 -0.197,0.037c-0.066,0.023 -0.135,0.055 -0.208,0.097l-0.378,0.219l0.794,0.458Z" style="fill:#fff;fill-rule:nonzero;"/><path d="M89.027,120.544c-0.019,0.056 -1.366,3.31 -1.366,3.66c0,0.423 0.309,0.869 0.912,1.217l3.994,2.306c1.102,0.636 2.771,0.705 3.726,0.154l4.528,-2.614c0.432,-0.25 0.644,-0.584 0.644,-0.934c0,-0.02 -0.01,-0.142 -0.015,-0.172c-0.114,-0.638 -1.342,-3.494 -1.351,-3.523c-0.087,-0.267 -0.321,-0.533 -0.699,-0.751l-3.224,-1.862c-0.89,-0.513 -2.238,-0.569 -3.009,-0.124l-3.657,2.111c-0.256,0.148 -0.416,0.332 -0.483,0.532Z" style="fill:#001b35;"/><path d="M96.176,118.025c-0.89,-0.513 -2.238,-0.569 -3.009,-0.124l-3.657,2.111c-0.77,0.445 -0.673,1.223 0.216,1.737l3.225,1.862c0.89,0.513 2.238,0.569 3.009,0.124l3.656,-2.111c0.771,-0.445 0.674,-1.223 -0.216,-1.737l-3.224,-1.862Z" style="fill:#fff;fill-opacity:0.11;"/><path d="M90.078,120.847l0.52,-0.3c0.056,-0.032 0.116,-0.05 0.181,-0.054c0.065,-0.003 0.13,0.005 0.194,0.024l2.259,0.682c0.099,0.03 0.205,0.062 0.318,0.099c0.113,0.037 0.229,0.077 0.348,0.12c-0.079,-0.066 -0.151,-0.131 -0.216,-0.196c-0.064,-0.065 -0.123,-0.125 -0.175,-0.182l-1.186,-1.302c-0.028,-0.031 -0.04,-0.067 -0.037,-0.107c0.004,-0.041 0.033,-0.076 0.086,-0.107l0.524,-0.302l2.098,2.499l-0.584,0.338l-4.33,-1.212Z" style="fill:#fff;fill-rule:nonzero;"/><path d="M78.642,126.539c-0.019,0.056 -1.365,3.31 -1.365,3.66c-0,0.423 0.309,0.869 0.911,1.217l3.994,2.306c1.102,0.636 2.771,0.705 3.726,0.154l4.528,-2.614c0.433,-0.25 0.645,-0.584 0.645,-0.934c-0,-0.02 -0.011,-0.142 -0.016,-0.172c-0.113,-0.638 -1.342,-3.494 -1.351,-3.523c-0.086,-0.267 -0.321,-0.533 -0.699,-0.751l-3.224,-1.862c-0.89,-0.513 -2.238,-0.569 -3.009,-0.124l-3.656,2.111c-0.256,0.148 -0.417,0.332 -0.484,0.532Z" style="fill:#001b35;"/><path d="M85.791,124.02c-0.89,-0.513 -2.238,-0.569 -3.009,-0.124l-3.656,2.111c-0.771,0.445 -0.674,1.223 0.216,1.737l3.224,1.861c0.89,0.514 2.238,0.57 3.009,0.125l3.656,-2.111c0.771,-0.445 0.674,-1.223 -0.216,-1.737l-3.224,-1.862Z" style="fill:#fff;fill-opacity:0.11;"/><path d="M84.175,127.006c0.016,-0.009 0.034,-0.016 0.056,-0.021c0.022,-0.005 0.048,-0.007 0.078,-0.006l0.567,0.032c0.057,0.162 0.044,0.317 -0.038,0.464c-0.083,0.147 -0.24,0.287 -0.47,0.42c-0.212,0.123 -0.443,0.208 -0.693,0.257c-0.251,0.048 -0.507,0.064 -0.77,0.047c-0.263,-0.017 -0.526,-0.066 -0.789,-0.146c-0.263,-0.08 -0.513,-0.187 -0.748,-0.323c-0.24,-0.139 -0.424,-0.286 -0.554,-0.443c-0.129,-0.158 -0.203,-0.315 -0.22,-0.473c-0.018,-0.158 0.022,-0.312 0.12,-0.461c0.097,-0.15 0.253,-0.287 0.469,-0.411c0.104,-0.061 0.213,-0.111 0.327,-0.152c0.113,-0.041 0.229,-0.074 0.347,-0.099c0.118,-0.024 0.236,-0.041 0.356,-0.05c0.12,-0.009 0.237,-0.01 0.353,-0.004l0.119,0.321c0.007,0.02 0.009,0.04 0.007,0.061c-0.002,0.021 -0.02,0.041 -0.055,0.061c-0.023,0.013 -0.05,0.022 -0.082,0.027c-0.033,0.005 -0.069,0.01 -0.108,0.013c-0.04,0.003 -0.084,0.007 -0.131,0.012c-0.047,0.004 -0.098,0.012 -0.153,0.024c-0.054,0.012 -0.112,0.029 -0.174,0.051c-0.063,0.023 -0.127,0.053 -0.195,0.092c-0.117,0.068 -0.2,0.143 -0.249,0.227c-0.049,0.083 -0.064,0.171 -0.044,0.262c0.019,0.092 0.073,0.185 0.161,0.281c0.087,0.095 0.21,0.188 0.367,0.279c0.165,0.095 0.33,0.168 0.497,0.22c0.167,0.051 0.328,0.083 0.482,0.095c0.154,0.012 0.299,0.005 0.434,-0.02c0.134,-0.025 0.253,-0.067 0.355,-0.126c0.058,-0.034 0.108,-0.066 0.15,-0.098c0.042,-0.032 0.075,-0.064 0.101,-0.098c0.025,-0.033 0.043,-0.068 0.055,-0.104c0.012,-0.037 0.018,-0.077 0.018,-0.121c0.001,-0.018 0.005,-0.034 0.013,-0.05c0.009,-0.016 0.022,-0.029 0.041,-0.04Z" style="fill:#fff;fill-rule:nonzero;"/><path d="M68.258,132.534c-0.019,0.056 -1.366,3.31 -1.366,3.66c0,0.423 0.309,0.869 0.912,1.217l3.993,2.306c1.102,0.636 2.772,0.705 3.726,0.154l4.529,-2.614c0.432,-0.25 0.644,-0.584 0.644,-0.935c-0,-0.019 -0.01,-0.141 -0.016,-0.171c-0.113,-0.638 -1.341,-3.494 -1.351,-3.523c-0.086,-0.267 -0.321,-0.533 -0.698,-0.751l-3.225,-1.862c-0.89,-0.514 -2.238,-0.569 -3.008,-0.124l-3.657,2.111c-0.256,0.147 -0.416,0.332 -0.483,0.532Z" style="fill:#001b35;"/><path d="M75.406,130.015c-0.89,-0.514 -2.238,-0.569 -3.008,-0.124l-3.657,2.111c-0.771,0.445 -0.674,1.223 0.216,1.737l3.225,1.861c0.89,0.514 2.238,0.57 3.008,0.125l3.657,-2.111c0.77,-0.445 0.674,-1.223 -0.216,-1.737l-3.225,-1.862Z" style="fill:#fff;fill-opacity:0.11;"/><path d="M71.786,133.211l-2.424,-0.405l0.646,-0.373c0.042,-0.024 0.079,-0.038 0.111,-0.042c0.032,-0.004 0.071,-0.002 0.116,0.006l1.637,0.305c-0.013,-0.014 -0.024,-0.029 -0.033,-0.044c-0.01,-0.015 -0.019,-0.031 -0.028,-0.048l-0.476,-0.836c-0.03,-0.054 -0.018,-0.096 0.037,-0.128l0.619,-0.357l0.656,1.386l2.577,0.458l-0.646,0.373c-0.042,0.024 -0.088,0.037 -0.137,0.039c-0.05,0.001 -0.098,-0.003 -0.146,-0.013l-1.683,-0.327c0.022,0.024 0.039,0.047 0.049,0.068l0.522,0.901c0.016,0.027 0.023,0.054 0.022,0.083c-0.002,0.029 -0.021,0.054 -0.059,0.076l-0.604,0.349l-0.756,-1.471Z" style="fill:#fff;fill-rule:nonzero;"/><path d="M57.873,138.528c-0.019,0.057 -1.366,3.311 -1.366,3.661c0,0.423 0.309,0.869 0.912,1.217l3.994,2.306c1.102,0.636 2.771,0.705 3.726,0.154l4.528,-2.615c0.432,-0.249 0.644,-0.583 0.644,-0.934c0,-0.019 -0.01,-0.141 -0.015,-0.171c-0.114,-0.638 -1.342,-3.494 -1.351,-3.523c-0.087,-0.268 -0.321,-0.533 -0.699,-0.751l-3.224,-1.862c-0.89,-0.514 -2.238,-0.57 -3.009,-0.125l-3.657,2.112c-0.256,0.147 -0.416,0.332 -0.483,0.531Z" style="fill:#001b35;"/><path d="M65.022,136.01c-0.89,-0.514 -2.238,-0.57 -3.009,-0.125l-3.657,2.112c-0.77,0.444 -0.673,1.223 0.216,1.737l3.225,1.861c0.89,0.514 2.238,0.57 3.009,0.125l3.656,-2.111c0.771,-0.445 0.674,-1.223 -0.216,-1.737l-3.224,-1.862Z" style="fill:#fff;fill-opacity:0.11;"/><path d="M61.19,137.524l0.269,0.155c0.038,0.022 0.07,0.047 0.096,0.075c0.026,0.027 0.046,0.056 0.059,0.085l0.848,1.999l1.326,-0.765l0.574,0.331l-2.148,1.24l-0.286,-0.166c-0.034,-0.019 -0.062,-0.042 -0.085,-0.067c-0.023,-0.025 -0.04,-0.05 -0.05,-0.077l-0.851,-2.005l-1.261,0.728l-0.574,-0.331l2.083,-1.202Z" style="fill:#fff;fill-rule:nonzero;"/><path d="M102.051,126.659c-0.019,0.056 -1.365,3.31 -1.365,3.66c-0,0.423 0.309,0.869 0.911,1.217l3.994,2.306c1.102,0.636 2.771,0.705 3.726,0.154l28.086,-16.215c0.432,-0.25 0.644,-0.584 0.644,-0.934c0,-0.02 -0.01,-0.141 -0.016,-0.172c-0.113,-0.638 -1.341,-3.494 -1.35,-3.523c-0.087,-0.267 -0.321,-0.533 -0.699,-0.751l-3.224,-1.861c-0.89,-0.514 -2.238,-0.57 -3.009,-0.125l-27.214,15.712c-0.256,0.148 -0.417,0.332 -0.484,0.532Z" style="fill:#001b35;"/><path d="M132.758,110.54c-0.89,-0.514 -2.238,-0.57 -3.009,-0.125l-27.214,15.712c-0.771,0.445 -0.674,1.223 0.216,1.737l3.224,1.862c0.89,0.513 2.238,0.569 3.009,0.124l27.214,-15.712c0.771,-0.445 0.674,-1.223 -0.216,-1.737l-3.224,-1.861Z" style="fill:#fff;fill-opacity:0.11;"/><path d="M161.502,78.367c-0.019,0.056 -1.365,3.31 -1.365,3.66c-0,0.423 0.308,0.869 0.911,1.217l3.994,2.306c1.102,0.636 2.771,0.705 3.726,0.154l14.241,-8.222c0.432,-0.249 0.644,-0.584 0.644,-0.934c0,-0.019 -0.01,-0.141 -0.016,-0.172c-0.113,-0.637 -1.341,-3.494 -1.35,-3.522c-0.087,-0.268 -0.321,-0.534 -0.699,-0.751l-3.224,-1.862c-0.89,-0.514 -2.238,-0.57 -3.009,-0.125l-13.369,7.719c-0.256,0.148 -0.417,0.332 -0.484,0.532Z" style="fill:#001b35;"/><path d="M178.364,70.241c-0.89,-0.514 -2.238,-0.57 -3.009,-0.125l-13.369,7.719c-0.771,0.445 -0.674,1.223 0.216,1.737l3.224,1.862c0.89,0.513 2.238,0.569 3.009,0.124l13.369,-7.719c0.771,-0.444 0.674,-1.223 -0.216,-1.736l-3.224,-1.862Z" style="fill:#fff;fill-opacity:0.11;"/><path d="M135.458,58.194c-0.019,0.056 -1.365,3.31 -1.365,3.661c-0,0.422 0.308,0.869 0.911,1.217l3.994,2.305c1.102,0.636 2.771,0.706 3.726,0.155l9.793,-5.654c0.432,-0.25 0.644,-0.584 0.644,-0.935c0,-0.019 -0.01,-0.141 -0.016,-0.171c-0.113,-0.638 -1.341,-3.494 -1.35,-3.523c-0.087,-0.268 -0.321,-0.533 -0.699,-0.751l-3.225,-1.862c-0.889,-0.514 -2.238,-0.569 -3.008,-0.125l-8.921,5.151c-0.256,0.148 -0.417,0.333 -0.484,0.532Z" style="fill:#001b35;"/><path d="M147.871,52.636c-0.889,-0.514 -2.238,-0.569 -3.008,-0.125l-8.921,5.151c-0.771,0.445 -0.674,1.223 0.216,1.737l3.224,1.862c0.89,0.514 2.238,0.569 3.009,0.125l8.921,-5.151c0.771,-0.445 0.674,-1.223 -0.216,-1.737l-3.225,-1.862Z" style="fill:#fff;fill-opacity:0.11;"/><path d="M137.499,68.992c-0.019,0.056 -1.365,3.311 -1.365,3.661c-0,0.423 0.308,0.869 0.911,1.217l3.994,2.305c1.102,0.637 2.771,0.706 3.726,0.155l4.528,-2.615c0.433,-0.249 0.644,-0.584 0.644,-0.934c0,-0.019 -0.01,-0.141 -0.015,-0.172c-0.113,-0.637 -1.342,-3.494 -1.351,-3.522c-0.086,-0.268 -0.321,-0.533 -0.699,-0.751l-3.224,-1.862c-0.89,-0.514 -2.238,-0.57 -3.009,-0.125l-3.656,2.111c-0.256,0.148 -0.417,0.333 -0.484,0.532Z" style="fill:#001b35;"/><path d="M144.648,66.474c-0.89,-0.514 -2.238,-0.57 -3.009,-0.125l-3.656,2.111c-0.771,0.445 -0.674,1.224 0.216,1.737l3.224,1.862c0.89,0.514 2.238,0.57 3.009,0.125l3.656,-2.111c0.771,-0.445 0.674,-1.224 -0.216,-1.737l-3.224,-1.862Z" style="fill:#fff;fill-opacity:0.11;"/><path d="M143.59,69.634c-0.04,0.023 -0.085,0.043 -0.132,0.06c-0.048,0.016 -0.1,0.028 -0.155,0.035c-0.055,0.007 -0.113,0.009 -0.175,0.005c-0.062,-0.004 -0.126,-0.016 -0.193,-0.035c0.021,0.1 0.01,0.186 -0.031,0.257c-0.042,0.072 -0.111,0.135 -0.206,0.19c-0.083,0.048 -0.172,0.081 -0.268,0.097c-0.095,0.017 -0.193,0.021 -0.294,0.011c-0.101,-0.009 -0.202,-0.032 -0.304,-0.066c-0.102,-0.035 -0.201,-0.08 -0.296,-0.135c-0.084,-0.048 -0.16,-0.103 -0.229,-0.163c-0.068,-0.061 -0.124,-0.125 -0.167,-0.193c-0.043,-0.068 -0.072,-0.138 -0.087,-0.212c-0.014,-0.074 -0.01,-0.148 0.015,-0.223c0.024,-0.074 0.069,-0.148 0.136,-0.222c0.066,-0.074 0.159,-0.145 0.277,-0.214c0.056,-0.032 0.11,-0.06 0.161,-0.084c0.051,-0.023 0.1,-0.044 0.149,-0.061c0.048,-0.018 0.097,-0.033 0.146,-0.045c0.049,-0.012 0.1,-0.024 0.155,-0.035l0.649,0.591c0.068,0.061 0.127,0.106 0.179,0.136c0.073,0.042 0.138,0.064 0.195,0.063c0.056,-0 0.109,-0.015 0.157,-0.042c0.046,-0.027 0.07,-0.063 0.073,-0.107c0.003,-0.045 -0.015,-0.095 -0.051,-0.15c-0.037,-0.055 -0.092,-0.114 -0.164,-0.176c-0.073,-0.061 -0.162,-0.123 -0.268,-0.184c-0.182,-0.105 -0.367,-0.184 -0.553,-0.237c-0.186,-0.053 -0.37,-0.082 -0.551,-0.086c-0.181,-0.004 -0.358,0.016 -0.529,0.059c-0.172,0.043 -0.332,0.107 -0.483,0.194c-0.164,0.095 -0.28,0.203 -0.347,0.323c-0.067,0.12 -0.088,0.244 -0.065,0.372c0.024,0.129 0.09,0.256 0.198,0.383c0.109,0.126 0.256,0.244 0.443,0.351c0.235,0.136 0.473,0.238 0.713,0.305c0.239,0.067 0.473,0.103 0.701,0.109c0.228,0.006 0.447,-0.017 0.656,-0.069c0.209,-0.052 0.401,-0.128 0.576,-0.229c0.1,-0.058 0.187,-0.115 0.259,-0.171c0.072,-0.056 0.133,-0.11 0.182,-0.161c0.048,-0.051 0.087,-0.1 0.116,-0.145c0.028,-0.045 0.049,-0.086 0.062,-0.123c0.011,-0.026 0.028,-0.046 0.052,-0.06c0.045,-0.026 0.103,-0.028 0.175,-0.007l0.319,0.091c-0.015,0.065 -0.041,0.131 -0.077,0.2c-0.036,0.068 -0.083,0.137 -0.142,0.207c-0.059,0.069 -0.131,0.139 -0.218,0.208c-0.086,0.069 -0.188,0.138 -0.305,0.206c-0.239,0.138 -0.503,0.24 -0.79,0.307c-0.287,0.066 -0.584,0.096 -0.892,0.088c-0.307,-0.008 -0.616,-0.053 -0.926,-0.138c-0.31,-0.084 -0.606,-0.207 -0.889,-0.37c-0.154,-0.09 -0.288,-0.187 -0.401,-0.294c-0.113,-0.106 -0.201,-0.216 -0.266,-0.33c-0.065,-0.114 -0.106,-0.229 -0.123,-0.347c-0.017,-0.117 -0.009,-0.232 0.026,-0.344c0.034,-0.113 0.096,-0.22 0.186,-0.323c0.089,-0.103 0.208,-0.197 0.356,-0.282c0.123,-0.071 0.26,-0.132 0.41,-0.181c0.151,-0.049 0.309,-0.087 0.476,-0.112c0.167,-0.025 0.339,-0.037 0.518,-0.036c0.178,0.001 0.356,0.016 0.533,0.045c0.178,0.029 0.353,0.073 0.527,0.131c0.173,0.059 0.337,0.134 0.493,0.224c0.158,0.09 0.285,0.188 0.383,0.292c0.097,0.104 0.161,0.208 0.19,0.311c0.029,0.102 0.022,0.201 -0.02,0.295c-0.042,0.094 -0.124,0.176 -0.245,0.246Zm-1.195,0.201c0.028,-0.016 0.051,-0.035 0.068,-0.057c0.017,-0.022 0.025,-0.047 0.025,-0.075c0,-0.028 -0.01,-0.059 -0.03,-0.093c-0.02,-0.035 -0.053,-0.072 -0.099,-0.114l-0.468,-0.425c-0.035,0.015 -0.068,0.032 -0.099,0.05c-0.063,0.036 -0.107,0.082 -0.13,0.136c-0.024,0.054 -0.027,0.111 -0.011,0.172c0.017,0.06 0.052,0.12 0.106,0.182c0.054,0.061 0.126,0.118 0.216,0.17c0.086,0.05 0.165,0.079 0.237,0.087c0.071,0.008 0.133,-0.003 0.185,-0.033Z" style="fill:#fff;fill-rule:nonzero;"/><path d="M149.175,73.698c-0.018,0.057 -1.365,3.311 -1.365,3.661c-0,0.423 0.309,0.869 0.912,1.217l3.993,2.306c1.102,0.636 2.772,0.705 3.726,0.154l4.529,-2.615c0.432,-0.249 0.644,-0.583 0.644,-0.934c-0,-0.019 -0.01,-0.141 -0.016,-0.172c-0.113,-0.637 -1.341,-3.493 -1.351,-3.522c-0.086,-0.268 -0.321,-0.533 -0.698,-0.751l-3.225,-1.862c-0.89,-0.514 -2.238,-0.57 -3.008,-0.125l-3.657,2.111c-0.256,0.148 -0.416,0.333 -0.484,0.532Z" style="fill:#001b35;"/><path d="M156.324,71.18c-0.89,-0.514 -2.238,-0.57 -3.008,-0.125l-3.657,2.111c-0.771,0.445 -0.674,1.224 0.216,1.737l3.225,1.862c0.889,0.514 2.238,0.57 3.008,0.125l3.657,-2.111c0.77,-0.445 0.674,-1.223 -0.216,-1.737l-3.225,-1.862Z" style="fill:#fff;fill-opacity:0.11;"/><path d="M153.482,74.823c0.065,0.037 0.134,0.073 0.207,0.107c0.073,0.034 0.147,0.068 0.222,0.101c0.075,0.033 0.15,0.067 0.225,0.102c0.074,0.035 0.146,0.072 0.213,0.111c0.119,0.069 0.212,0.14 0.28,0.213c0.067,0.073 0.104,0.148 0.111,0.225c0.006,0.077 -0.02,0.154 -0.079,0.232c-0.059,0.077 -0.157,0.155 -0.292,0.233l-0.099,0.057l-0.296,-0.171c-0.023,-0.013 -0.038,-0.027 -0.046,-0.042c-0.007,-0.014 -0.009,-0.028 -0.007,-0.041c0.002,-0.014 0.008,-0.026 0.017,-0.037c0.009,-0.011 0.018,-0.019 0.029,-0.025c0.08,-0.047 0.11,-0.097 0.09,-0.152c-0.02,-0.055 -0.08,-0.111 -0.182,-0.17c-0.081,-0.047 -0.16,-0.089 -0.238,-0.128c-0.077,-0.038 -0.153,-0.074 -0.226,-0.109c-0.074,-0.035 -0.145,-0.07 -0.216,-0.104c-0.07,-0.034 -0.139,-0.07 -0.205,-0.108c-0.054,-0.032 -0.101,-0.066 -0.141,-0.104c-0.039,-0.037 -0.067,-0.076 -0.085,-0.116c-0.017,-0.04 -0.023,-0.08 -0.018,-0.121c0.005,-0.04 0.024,-0.08 0.056,-0.119c-0.067,0.019 -0.136,0.029 -0.207,0.032c-0.071,0.003 -0.141,-0.001 -0.21,-0.011c-0.07,-0.01 -0.137,-0.026 -0.201,-0.049c-0.064,-0.022 -0.124,-0.049 -0.18,-0.082c-0.066,-0.038 -0.129,-0.077 -0.188,-0.118c-0.059,-0.041 -0.118,-0.082 -0.179,-0.124c-0.06,-0.043 -0.124,-0.086 -0.19,-0.131c-0.067,-0.045 -0.14,-0.091 -0.221,-0.138c-0.101,-0.058 -0.2,-0.093 -0.295,-0.105c-0.095,-0.011 -0.182,0.006 -0.262,0.053c-0.011,0.006 -0.025,0.011 -0.044,0.016c-0.02,0.005 -0.041,0.009 -0.064,0.01c-0.023,0.001 -0.047,0 -0.072,-0.004c-0.025,-0.004 -0.049,-0.013 -0.073,-0.027l-0.295,-0.171l0.099,-0.057c0.135,-0.078 0.27,-0.134 0.404,-0.168c0.134,-0.034 0.267,-0.05 0.4,-0.046c0.132,0.003 0.262,0.025 0.389,0.064c0.128,0.039 0.252,0.093 0.371,0.162c0.067,0.039 0.132,0.08 0.192,0.123c0.061,0.043 0.12,0.086 0.177,0.13c0.057,0.043 0.115,0.086 0.175,0.128c0.059,0.042 0.121,0.082 0.185,0.12c0.043,0.024 0.086,0.045 0.129,0.062c0.043,0.016 0.085,0.028 0.126,0.034c0.041,0.006 0.082,0.006 0.123,-0.001c0.041,-0.007 0.08,-0.021 0.118,-0.043l0.382,0.22c-0.076,0.044 -0.102,0.09 -0.078,0.138c0.024,0.048 0.081,0.098 0.169,0.149Z" style="fill:#fff;fill-rule:nonzero;"/><path d="M23.153,135.724c-0.019,0.057 -1.366,3.311 -1.366,3.661c0,0.423 0.309,0.869 0.912,1.217l3.993,2.306c1.102,0.636 2.772,0.705 3.726,0.154l4.529,-2.615c0.432,-0.249 0.644,-0.584 0.644,-0.934c0,-0.019 -0.01,-0.141 -0.016,-0.172c-0.113,-0.637 -1.341,-3.493 -1.35,-3.522c-0.087,-0.268 -0.321,-0.533 -0.699,-0.751l-3.225,-1.862c-0.889,-0.514 -2.238,-0.57 -3.008,-0.125l-3.657,2.111c-0.256,0.148 -0.416,0.333 -0.483,0.532Z" style="fill:#001b35;"/><path d="M30.301,133.206c-0.889,-0.514 -2.238,-0.57 -3.008,-0.125l-3.657,2.111c-0.77,0.445 -0.674,1.224 0.216,1.737l3.225,1.862c0.89,0.514 2.238,0.57 3.008,0.125l3.657,-2.111c0.771,-0.445 0.674,-1.223 -0.216,-1.737l-3.225,-1.862Z" style="fill:#fff;fill-opacity:0.11;"/><path d="M55.193,153.712c-0.019,0.056 -1.365,3.311 -1.365,3.661c-0,0.423 0.309,0.869 0.911,1.217l3.994,2.305c1.102,0.637 2.771,0.706 3.726,0.155l4.528,-2.615c0.433,-0.249 0.645,-0.584 0.645,-0.934c-0,-0.019 -0.011,-0.141 -0.016,-0.172c-0.113,-0.637 -1.342,-3.493 -1.351,-3.522c-0.086,-0.268 -0.321,-0.533 -0.699,-0.751l-3.224,-1.862c-0.89,-0.514 -2.238,-0.57 -3.009,-0.125l-3.656,2.111c-0.256,0.148 -0.416,0.333 -0.484,0.532Z" style="fill:#001b35;"/><path d="M62.342,151.194c-0.89,-0.514 -2.238,-0.57 -3.009,-0.125l-3.656,2.111c-0.771,0.445 -0.674,1.224 0.216,1.737l3.224,1.862c0.89,0.514 2.238,0.57 3.009,0.125l3.657,-2.111c0.77,-0.445 0.673,-1.224 -0.217,-1.737l-3.224,-1.862Z" style="fill:#fff;fill-opacity:0.11;"/><path d="M66.091,147.421c-0.019,0.056 -1.366,3.31 -1.366,3.66c0,0.423 0.309,0.869 0.912,1.217l3.993,2.306c1.103,0.636 2.772,0.705 3.726,0.154l4.529,-2.614c0.432,-0.25 0.644,-0.584 0.644,-0.935c0,-0.019 -0.01,-0.141 -0.016,-0.171c-0.113,-0.638 -1.341,-3.494 -1.35,-3.523c-0.087,-0.267 -0.321,-0.533 -0.699,-0.751l-3.224,-1.862c-0.89,-0.513 -2.238,-0.569 -3.009,-0.124l-3.657,2.111c-0.256,0.148 -0.416,0.332 -0.483,0.532Z" style="fill:#001b35;"/><path d="M73.24,144.902c-0.89,-0.513 -2.238,-0.569 -3.009,-0.124l-3.657,2.111c-0.77,0.445 -0.673,1.223 0.216,1.737l3.225,1.861c0.89,0.514 2.238,0.57 3.009,0.125l3.656,-2.111c0.771,-0.445 0.674,-1.223 -0.216,-1.737l-3.224,-1.862Z" style="fill:#fff;fill-opacity:0.11;"/><path d="M91.235,132.903c-0.019,0.057 -1.365,3.311 -1.365,3.661c-0,0.423 0.309,0.869 0.912,1.217l3.993,2.306c1.102,0.636 2.772,0.705 3.726,0.154l4.528,-2.615c0.433,-0.249 0.645,-0.583 0.645,-0.934c-0,-0.019 -0.011,-0.141 -0.016,-0.172c-0.113,-0.637 -1.341,-3.493 -1.351,-3.522c-0.086,-0.268 -0.321,-0.533 -0.698,-0.751l-3.225,-1.862c-0.89,-0.514 -2.238,-0.57 -3.009,-0.125l-3.656,2.112c-0.256,0.147 -0.416,0.332 -0.484,0.531Z" style="fill:#001b35;"/><path d="M98.384,130.385c-0.89,-0.514 -2.238,-0.57 -3.009,-0.125l-3.656,2.112c-0.771,0.444 -0.674,1.223 0.216,1.736l3.224,1.862c0.89,0.514 2.238,0.57 3.009,0.125l3.657,-2.111c0.77,-0.445 0.673,-1.223 -0.216,-1.737l-3.225,-1.862Z" style="fill:#fff;fill-opacity:0.11;"/><path d="M34.395,141.705c-0.019,0.056 -1.365,3.31 -1.365,3.66c-0,0.423 0.309,0.869 0.912,1.217l3.993,2.306c1.102,0.636 2.772,0.705 3.726,0.154l5.849,-3.377c0.433,-0.249 0.645,-0.584 0.645,-0.934c-0,-0.019 -0.011,-0.141 -0.016,-0.172c-0.113,-0.637 -1.342,-3.494 -1.351,-3.522c-0.086,-0.268 -0.321,-0.533 -0.699,-0.751l-3.224,-1.862c-0.89,-0.514 -2.238,-0.57 -3.009,-0.125l-4.977,2.874c-0.256,0.148 -0.416,0.332 -0.484,0.532Z" style="fill:#001b35;"/><path d="M42.865,138.424c-0.89,-0.514 -2.238,-0.57 -3.009,-0.125l-4.977,2.874c-0.771,0.445 -0.674,1.223 0.216,1.737l3.225,1.861c0.889,0.514 2.237,0.57 3.008,0.125l4.977,-2.873c0.771,-0.445 0.674,-1.224 -0.216,-1.737l-3.224,-1.862Z" style="fill:#fff;fill-opacity:0.11;"/><path d="M44.602,147.597c-0.019,0.056 -1.366,3.311 -1.366,3.661c0,0.423 0.309,0.869 0.912,1.217l3.993,2.305c1.102,0.637 2.772,0.706 3.726,0.155l8.218,-4.745c0.433,-0.25 0.645,-0.584 0.645,-0.934c-0,-0.019 -0.011,-0.141 -0.016,-0.172c-0.113,-0.638 -1.342,-3.494 -1.351,-3.522c-0.086,-0.268 -0.321,-0.534 -0.698,-0.752l-3.225,-1.861c-0.89,-0.514 -2.238,-0.57 -3.009,-0.125l-7.346,4.241c-0.256,0.148 -0.416,0.333 -0.483,0.532Z" style="fill:#001b35;"/><path d="M55.44,142.949c-0.89,-0.514 -2.238,-0.57 -3.009,-0.125l-7.346,4.241c-0.77,0.445 -0.674,1.224 0.216,1.737l3.225,1.862c0.89,0.514 2.238,0.57 3.008,0.125l7.347,-4.242c0.77,-0.445 0.673,-1.223 -0.216,-1.737l-3.225,-1.861Z" style="fill:#fff;fill-opacity:0.11;"/><path d="M76.819,141.227c-0.019,0.056 -1.365,3.31 -1.365,3.66c-0,0.423 0.308,0.869 0.911,1.217l3.994,2.306c1.102,0.636 2.771,0.705 3.726,0.154l8.218,-4.745c0.432,-0.249 0.644,-0.583 0.644,-0.934c0,-0.019 -0.01,-0.141 -0.016,-0.172c-0.113,-0.637 -1.341,-3.493 -1.35,-3.522c-0.087,-0.268 -0.321,-0.533 -0.699,-0.751l-3.225,-1.862c-0.889,-0.514 -2.237,-0.57 -3.008,-0.125l-7.346,4.242c-0.256,0.148 -0.417,0.332 -0.484,0.532Z" style="fill:#001b35;"/><path d="M87.657,136.578c-0.889,-0.514 -2.237,-0.57 -3.008,-0.125l-7.346,4.242c-0.771,0.445 -0.674,1.223 0.216,1.737l3.224,1.861c0.89,0.514 2.238,0.57 3.009,0.125l7.346,-4.241c0.771,-0.445 0.674,-1.223 -0.216,-1.737l-3.225,-1.862Z" style="fill:#fff;fill-opacity:0.11;"/><path d="M172.47,86.003c-0.019,0.056 -1.366,3.31 -1.366,3.66c0,0.423 0.309,0.869 0.912,1.217l3.994,2.306c1.102,0.636 2.771,0.705 3.726,0.154l4.528,-2.614c0.432,-0.25 0.644,-0.584 0.644,-0.935c0,-0.019 -0.01,-0.141 -0.015,-0.171c-0.114,-0.638 -1.342,-3.494 -1.351,-3.523c-0.086,-0.267 -0.321,-0.533 -0.699,-0.751l-3.224,-1.862c-0.89,-0.513 -2.238,-0.569 -3.009,-0.124l-3.657,2.111c-0.256,0.148 -0.416,0.332 -0.483,0.532Z" style="fill:#001b35;"/><path d="M179.619,83.484c-0.89,-0.513 -2.238,-0.569 -3.009,-0.124l-3.657,2.111c-0.77,0.445 -0.673,1.223 0.216,1.737l3.225,1.861c0.89,0.514 2.238,0.57 3.009,0.125l3.656,-2.111c0.771,-0.445 0.674,-1.223 -0.216,-1.737l-3.224,-1.862Z" style="fill:#fff;fill-opacity:0.11;"/><path d="M183.637,79.555c-0.019,0.056 -1.365,3.311 -1.365,3.661c-0,0.423 0.308,0.869 0.911,1.217l3.994,2.305c1.102,0.637 2.771,0.706 3.726,0.155l4.528,-2.615c0.433,-0.249 0.644,-0.584 0.644,-0.934c0,-0.019 -0.01,-0.141 -0.015,-0.172c-0.113,-0.637 -1.342,-3.494 -1.351,-3.522c-0.086,-0.268 -0.321,-0.533 -0.699,-0.751l-3.224,-1.862c-0.89,-0.514 -2.238,-0.57 -3.009,-0.125l-3.656,2.111c-0.256,0.148 -0.417,0.333 -0.484,0.532Z" style="fill:#001b35;"/><path d="M190.786,77.037c-0.89,-0.514 -2.238,-0.57 -3.009,-0.125l-3.656,2.111c-0.771,0.445 -0.674,1.224 0.216,1.737l3.224,1.862c0.89,0.514 2.238,0.57 3.009,0.125l3.656,-2.111c0.771,-0.445 0.674,-1.224 -0.216,-1.737l-3.224,-1.862Z" style="fill:#fff;fill-opacity:0.11;"/><path d="M136.81,106.814c-0.019,0.056 -1.366,3.31 -1.366,3.66c0,0.423 0.309,0.869 0.912,1.217l3.993,2.306c1.102,0.636 2.772,0.705 3.726,0.154l4.529,-2.614c0.432,-0.25 0.644,-0.584 0.644,-0.935c-0,-0.019 -0.01,-0.141 -0.016,-0.171c-0.113,-0.638 -1.341,-3.494 -1.35,-3.523c-0.087,-0.267 -0.322,-0.533 -0.699,-0.751l-3.225,-1.862c-0.89,-0.513 -2.238,-0.569 -3.008,-0.124l-3.657,2.111c-0.256,0.148 -0.416,0.332 -0.483,0.532Z" style="fill:#001b35;"/><path d="M143.958,104.295c-0.89,-0.513 -2.238,-0.569 -3.008,-0.124l-3.657,2.111c-0.77,0.445 -0.674,1.223 0.216,1.737l3.225,1.861c0.89,0.514 2.238,0.57 3.008,0.125l3.657,-2.111c0.77,-0.445 0.674,-1.223 -0.216,-1.737l-3.225,-1.862Z" style="fill:#fff;fill-opacity:0.11;"/><path d="M161.569,92.074c-0.019,0.056 -1.366,3.31 -1.366,3.66c0,0.423 0.309,0.869 0.912,1.217l3.993,2.306c1.102,0.636 2.772,0.705 3.726,0.154l4.529,-2.614c0.432,-0.25 0.644,-0.584 0.644,-0.934c0,-0.02 -0.01,-0.141 -0.016,-0.172c-0.113,-0.638 -1.341,-3.494 -1.35,-3.523c-0.087,-0.267 -0.321,-0.533 -0.699,-0.751l-3.225,-1.861c-0.889,-0.514 -2.238,-0.57 -3.008,-0.125l-3.657,2.111c-0.256,0.148 -0.416,0.332 -0.483,0.532Z" style="fill:#001b35;"/><path d="M168.717,89.556c-0.889,-0.514 -2.238,-0.57 -3.008,-0.125l-3.657,2.111c-0.77,0.445 -0.674,1.223 0.216,1.737l3.225,1.862c0.89,0.513 2.238,0.569 3.008,0.124l3.657,-2.111c0.771,-0.445 0.674,-1.223 -0.216,-1.737l-3.225,-1.861Z" style="fill:#fff;fill-opacity:0.11;"/><path d="M147.152,100.397c-0.018,0.056 -1.365,3.31 -1.365,3.661c-0,0.423 0.309,0.869 0.912,1.217l3.993,2.305c1.102,0.637 2.772,0.706 3.726,0.155l8.218,-4.745c0.433,-0.25 0.645,-0.584 0.645,-0.934c-0,-0.02 -0.011,-0.141 -0.016,-0.172c-0.113,-0.638 -1.342,-3.494 -1.351,-3.523c-0.086,-0.267 -0.321,-0.533 -0.699,-0.751l-3.224,-1.861c-0.89,-0.514 -2.238,-0.57 -3.009,-0.125l-7.346,4.241c-0.256,0.148 -0.416,0.333 -0.484,0.532Z" style="fill:#001b35;"/><path d="M157.991,95.749c-0.89,-0.514 -2.238,-0.57 -3.009,-0.125l-7.346,4.241c-0.771,0.445 -0.674,1.223 0.216,1.737l3.225,1.862c0.889,0.514 2.238,0.57 3.008,0.125l7.346,-4.242c0.771,-0.445 0.674,-1.223 -0.216,-1.737l-3.224,-1.861Z" style="fill:#fff;fill-opacity:0.11;"/><path d="M139.203,58.103c0.122,0.07 0.216,0.146 0.283,0.226c0.066,0.08 0.104,0.161 0.113,0.243c0.009,0.081 -0.012,0.161 -0.063,0.239c-0.051,0.078 -0.133,0.15 -0.247,0.215l-0.566,0.327l-1.684,-0.972l0.567,-0.327c0.113,-0.065 0.237,-0.113 0.373,-0.142c0.135,-0.029 0.273,-0.041 0.414,-0.036c0.141,0.005 0.281,0.026 0.42,0.065c0.139,0.038 0.269,0.092 0.39,0.162Zm-0.346,0.2c-0.083,-0.048 -0.167,-0.086 -0.253,-0.114c-0.086,-0.028 -0.17,-0.045 -0.251,-0.052c-0.082,-0.007 -0.161,-0.002 -0.236,0.012c-0.076,0.015 -0.146,0.041 -0.211,0.079l-0.226,0.13l1.083,0.625l0.226,-0.13c0.065,-0.038 0.11,-0.078 0.135,-0.122c0.026,-0.044 0.033,-0.089 0.021,-0.136c-0.011,-0.047 -0.041,-0.096 -0.089,-0.145c-0.049,-0.05 -0.115,-0.099 -0.199,-0.147Z" style="fill:#fff;fill-rule:nonzero;"/><path d="M139.435,57.537c0.069,-0.04 0.144,-0.069 0.226,-0.088c0.082,-0.018 0.167,-0.026 0.255,-0.023c0.088,0.004 0.177,0.019 0.268,0.045c0.092,0.026 0.18,0.064 0.267,0.113c0.027,0.016 0.048,0.029 0.062,0.04c0.015,0.011 0.025,0.021 0.03,0.03c0.005,0.009 0.004,0.017 -0.001,0.024c-0.005,0.008 -0.015,0.016 -0.029,0.024l-0.598,0.345c0.11,0.052 0.209,0.079 0.297,0.08c0.088,0.002 0.165,-0.017 0.233,-0.056c0.036,-0.021 0.062,-0.042 0.078,-0.062c0.016,-0.021 0.028,-0.041 0.036,-0.06c0.008,-0.019 0.015,-0.036 0.022,-0.052c0.007,-0.015 0.02,-0.028 0.039,-0.039c0.024,-0.015 0.054,-0.019 0.087,-0.015l0.218,0.022c0.011,0.043 0.011,0.083 0,0.12c-0.01,0.037 -0.028,0.071 -0.052,0.102c-0.024,0.031 -0.052,0.06 -0.085,0.085c-0.034,0.026 -0.068,0.049 -0.103,0.07c-0.073,0.042 -0.155,0.073 -0.246,0.094c-0.091,0.021 -0.187,0.03 -0.289,0.026c-0.102,-0.003 -0.206,-0.02 -0.314,-0.05c-0.108,-0.031 -0.215,-0.076 -0.321,-0.138c-0.08,-0.046 -0.144,-0.097 -0.192,-0.152c-0.048,-0.055 -0.077,-0.111 -0.087,-0.167c-0.009,-0.057 0.002,-0.113 0.033,-0.167c0.032,-0.055 0.087,-0.105 0.166,-0.151Zm0.254,0.139c-0.06,0.034 -0.087,0.072 -0.081,0.114c0.006,0.042 0.04,0.087 0.102,0.135l0.387,-0.223c-0.028,-0.017 -0.059,-0.031 -0.092,-0.043c-0.034,-0.012 -0.068,-0.02 -0.104,-0.024c-0.035,-0.004 -0.071,-0.003 -0.108,0.003c-0.036,0.006 -0.071,0.019 -0.104,0.038Z" style="fill:#fff;fill-rule:nonzero;"/><path d="M139.887,56.684l1.73,0.998l-0.31,0.179l-1.73,-0.998l0.31,-0.179Z" style="fill:#fff;fill-rule:nonzero;"/><path d="M141.095,56.579c0.068,-0.04 0.144,-0.069 0.225,-0.088c0.082,-0.018 0.167,-0.026 0.255,-0.023c0.088,0.004 0.177,0.019 0.269,0.045c0.091,0.026 0.179,0.064 0.266,0.114c0.027,0.015 0.048,0.028 0.063,0.039c0.015,0.011 0.024,0.021 0.029,0.03c0.005,0.009 0.005,0.017 -0.001,0.024c-0.005,0.008 -0.014,0.016 -0.028,0.024l-0.599,0.345c0.11,0.052 0.209,0.079 0.297,0.08c0.088,0.002 0.165,-0.017 0.233,-0.056c0.036,-0.021 0.062,-0.042 0.078,-0.062c0.016,-0.021 0.028,-0.041 0.036,-0.06c0.008,-0.019 0.015,-0.036 0.022,-0.052c0.007,-0.015 0.02,-0.028 0.039,-0.039c0.025,-0.014 0.054,-0.019 0.087,-0.015l0.218,0.023c0.011,0.042 0.011,0.082 0,0.119c-0.01,0.037 -0.027,0.071 -0.051,0.102c-0.024,0.031 -0.053,0.06 -0.086,0.086c-0.034,0.025 -0.068,0.049 -0.103,0.069c-0.073,0.042 -0.155,0.073 -0.246,0.094c-0.091,0.021 -0.187,0.03 -0.289,0.027c-0.101,-0.004 -0.206,-0.021 -0.314,-0.051c-0.108,-0.031 -0.215,-0.076 -0.321,-0.138c-0.08,-0.046 -0.144,-0.097 -0.192,-0.152c-0.048,-0.055 -0.077,-0.111 -0.087,-0.167c-0.009,-0.057 0.002,-0.113 0.033,-0.167c0.032,-0.055 0.087,-0.105 0.167,-0.151Zm0.253,0.139c-0.06,0.034 -0.086,0.072 -0.081,0.114c0.006,0.042 0.04,0.087 0.102,0.135l0.387,-0.223c-0.028,-0.017 -0.059,-0.031 -0.092,-0.043c-0.034,-0.012 -0.068,-0.02 -0.103,-0.024c-0.036,-0.003 -0.072,-0.002 -0.108,0.003c-0.037,0.006 -0.072,0.019 -0.105,0.038Z" style="fill:#fff;fill-rule:nonzero;"/><path d="M143.339,56.71c-0.05,0.028 -0.102,0.049 -0.156,0.061c-0.054,0.012 -0.109,0.017 -0.165,0.014c-0.057,-0.003 -0.113,-0.013 -0.169,-0.03c-0.057,-0.017 -0.112,-0.041 -0.165,-0.072l-0.619,-0.357l-0.088,0.05c-0.016,0.01 -0.036,0.014 -0.059,0.014c-0.023,-0.001 -0.047,-0.007 -0.07,-0.021l-0.14,-0.08l0.129,-0.117l-0.232,-0.204c-0.029,-0.026 -0.025,-0.05 0.013,-0.071l0.162,-0.094l0.35,0.202l0.252,-0.146l0.245,0.142l-0.252,0.145l0.595,0.344c0.028,0.016 0.057,0.026 0.086,0.03c0.03,0.003 0.056,-0.001 0.078,-0.014c0.011,-0.006 0.02,-0.013 0.025,-0.019c0.005,-0.006 0.008,-0.011 0.01,-0.017c0.003,-0.005 0.005,-0.01 0.007,-0.014c0.002,-0.005 0.007,-0.009 0.014,-0.013c0.009,-0.005 0.019,-0.008 0.03,-0.008c0.01,-0.001 0.024,0.001 0.041,0.003l0.264,0.044c-0.006,0.043 -0.025,0.084 -0.057,0.123c-0.033,0.039 -0.076,0.074 -0.129,0.105Z" style="fill:#fff;fill-rule:nonzero;"/><path d="M142.984,55.488c0.069,-0.04 0.144,-0.069 0.226,-0.087c0.081,-0.019 0.166,-0.027 0.254,-0.023c0.088,0.003 0.178,0.018 0.269,0.044c0.091,0.026 0.18,0.064 0.266,0.114c0.027,0.015 0.048,0.029 0.063,0.04c0.015,0.01 0.025,0.02 0.029,0.029c0.005,0.009 0.005,0.017 -0,0.025c-0.005,0.007 -0.015,0.015 -0.029,0.023l-0.598,0.345c0.11,0.052 0.209,0.079 0.296,0.081c0.088,0.001 0.166,-0.018 0.233,-0.057c0.036,-0.021 0.062,-0.041 0.078,-0.062c0.016,-0.021 0.028,-0.041 0.036,-0.06c0.008,-0.019 0.016,-0.036 0.023,-0.051c0.007,-0.016 0.02,-0.029 0.038,-0.04c0.025,-0.014 0.054,-0.019 0.087,-0.014l0.219,0.022c0.01,0.043 0.01,0.083 -0,0.119c-0.011,0.037 -0.028,0.071 -0.052,0.102c-0.024,0.031 -0.053,0.06 -0.086,0.086c-0.033,0.026 -0.067,0.049 -0.103,0.069c-0.073,0.042 -0.154,0.074 -0.246,0.095c-0.091,0.021 -0.187,0.029 -0.289,0.026c-0.101,-0.004 -0.206,-0.021 -0.314,-0.051c-0.107,-0.03 -0.215,-0.076 -0.321,-0.138c-0.08,-0.046 -0.144,-0.096 -0.192,-0.151c-0.048,-0.055 -0.077,-0.111 -0.086,-0.168c-0.01,-0.057 0.001,-0.113 0.033,-0.167c0.031,-0.055 0.087,-0.105 0.166,-0.151Zm0.253,0.139c-0.059,0.035 -0.086,0.073 -0.081,0.114c0.006,0.042 0.04,0.087 0.103,0.136l0.387,-0.224c-0.029,-0.016 -0.06,-0.031 -0.093,-0.043c-0.033,-0.011 -0.068,-0.019 -0.103,-0.023c-0.036,-0.004 -0.072,-0.003 -0.108,0.003c-0.037,0.006 -0.071,0.018 -0.105,0.037Z" style="fill:#fff;fill-rule:nonzero;"/><path d="M12.872,129.129c-0.019,0.056 -1.365,3.31 -1.365,3.66c-0,0.423 0.308,0.869 0.911,1.217l3.994,2.306c1.102,0.636 2.771,0.706 3.726,0.155l12.71,-7.339c0.432,-0.249 0.644,-0.583 0.644,-0.934c-0,-0.019 -0.011,-0.141 -0.016,-0.171c-0.113,-0.638 -1.341,-3.494 -1.351,-3.523c-0.086,-0.268 -0.321,-0.533 -0.698,-0.751l-3.225,-1.862c-0.89,-0.514 -2.238,-0.57 -3.008,-0.125l-11.838,6.835c-0.256,0.148 -0.417,0.332 -0.484,0.532Z" style="fill:#001b35;"/><path d="M28.202,121.887c-0.89,-0.514 -2.238,-0.57 -3.008,-0.125l-11.823,6.826c-0.77,0.445 -0.673,1.223 0.216,1.737l3.225,1.862c0.89,0.513 2.238,0.569 3.008,0.124l11.823,-6.825c0.77,-0.445 0.674,-1.223 -0.216,-1.737l-3.225,-1.862Z" style="fill:#fff;fill-opacity:0.11;"/><path d="M17.841,130.498l0.535,-0.309l-1.621,-0.936c-0.08,-0.046 -0.161,-0.095 -0.244,-0.147l-0.013,0.356c-0.001,0.023 -0.008,0.043 -0.02,0.059c-0.013,0.017 -0.028,0.03 -0.047,0.042c-0.033,0.019 -0.072,0.031 -0.115,0.036c-0.043,0.005 -0.08,0.006 -0.112,0.003l-0.474,-0.058l0.027,-0.986l0.489,-0.282l2.722,1.571l0.459,-0.264l0.494,0.285l-1.586,0.915l-0.494,-0.285Z" style="fill:#fff;fill-rule:nonzero;"/></svg>