<?xml version="1.0" encoding="UTF-8" standalone="no"?><!DOCTYPE svg PUBLIC "-//W3C//DTD SVG 1.1//EN" "http://www.w3.org/Graphics/SVG/1.1/DTD/svg11.dtd"><svg width="100%" height="100%" viewBox="0 0 200 200" version="1.1" xmlns="http://www.w3.org/2000/svg" xmlns:xlink="http://www.w3.org/1999/xlink" xml:space="preserve" xmlns:serif="http://www.serif.com/" style="fill-rule:evenodd;clip-rule:evenodd;stroke-linejoin:round;stroke-miterlimit:2;"><g><path d="M63.096,83.916c-0.126,0.374 -9.102,22.065 -9.102,24.399c0,2.819 2.059,5.792 6.077,8.112l26.619,15.369c7.346,4.241 18.475,4.702 24.836,1.029l30.186,-17.427c2.882,-1.664 4.294,-3.893 4.294,-6.227c-0,-0.129 -0.069,-0.942 -0.105,-1.145c-0.754,-4.25 -8.942,-23.289 -9.003,-23.48c-0.576,-1.784 -2.141,-3.554 -4.657,-5.007l-21.494,-12.41c-5.931,-3.424 -14.917,-3.797 -20.054,-0.831l-24.373,14.072c-1.707,0.985 -2.775,2.216 -3.224,3.546Z" style="fill:#001b35;"/><path d="M110.747,67.129c-5.931,-3.424 -14.917,-3.797 -20.054,-0.831l-24.373,14.072c-5.137,2.966 -4.492,8.154 1.439,11.578l21.494,12.41c5.931,3.424 14.917,3.797 20.054,0.831l24.373,-14.072c5.137,-2.966 4.492,-8.154 -1.439,-11.578l-21.494,-12.41Z" style="fill:#fff;fill-opacity:0.11;"/><path d="M89.157,90.299l7.815,4.513l-4.244,2.45l-21.127,-12.197l5.952,-3.437c1.323,-0.764 2.608,-1.324 3.856,-1.682c1.247,-0.357 2.447,-0.544 3.598,-0.562c1.15,-0.017 2.242,0.118 3.273,0.404c1.032,0.286 1.997,0.689 2.896,1.208c0.686,0.396 1.254,0.816 1.704,1.26c0.45,0.443 0.777,0.905 0.98,1.385c0.203,0.479 0.28,0.968 0.23,1.466c-0.051,0.498 -0.242,0.994 -0.576,1.488c0.449,-0.07 0.918,-0.106 1.407,-0.109c0.488,-0.003 0.999,0.043 1.531,0.137l11.244,1.997l-3.843,2.219c-0.711,0.41 -1.531,0.527 -2.46,0.348l-9.172,-1.786c-0.405,-0.079 -0.755,-0.1 -1.051,-0.063c-0.296,0.037 -0.607,0.149 -0.934,0.338l-1.079,0.623Zm-3.379,-1.95l1.708,-0.986c0.577,-0.334 0.985,-0.667 1.222,-0.999c0.236,-0.332 0.335,-0.659 0.295,-0.982c-0.04,-0.323 -0.203,-0.634 -0.487,-0.933c-0.283,-0.3 -0.657,-0.583 -1.121,-0.851c-0.928,-0.536 -1.915,-0.803 -2.96,-0.803c-1.046,0.001 -2.116,0.318 -3.213,0.951l-1.708,0.986l6.264,3.617Z" style="fill:#fff;fill-rule:nonzero;"/></g></svg>