<?xml version="1.0" encoding="UTF-8" standalone="no"?><!DOCTYPE svg PUBLIC "-//W3C//DTD SVG 1.1//EN" "http://www.w3.org/Graphics/SVG/1.1/DTD/svg11.dtd"><svg width="100%" height="100%" viewBox="0 0 200 200" version="1.1" xmlns="http://www.w3.org/2000/svg" xmlns:xlink="http://www.w3.org/1999/xlink" xml:space="preserve" xmlns:serif="http://www.serif.com/" style="fill-rule:evenodd;clip-rule:evenodd;stroke-linejoin:round;stroke-miterlimit:2;"><g><path d="M63.096,83.916c-0.126,0.374 -9.102,22.065 -9.102,24.399c0,2.819 2.059,5.792 6.077,8.112l26.619,15.369c7.346,4.241 18.475,4.702 24.836,1.029l30.186,-17.427c2.882,-1.664 4.294,-3.893 4.294,-6.227c-0,-0.129 -0.069,-0.942 -0.105,-1.145c-0.754,-4.25 -8.942,-23.289 -9.003,-23.48c-0.576,-1.784 -2.141,-3.554 -4.657,-5.007l-21.494,-12.41c-5.931,-3.424 -14.917,-3.797 -20.054,-0.831l-24.373,14.072c-1.707,0.985 -2.775,2.216 -3.224,3.546Z" style="fill:#001b35;"/><path d="M110.747,67.129c-5.931,-3.424 -14.917,-3.797 -20.054,-0.831l-24.373,14.072c-5.137,2.966 -4.492,8.154 1.439,11.578l21.494,12.41c5.931,3.424 14.917,3.797 20.054,0.831l24.373,-14.072c5.137,-2.966 4.492,-8.154 -1.439,-11.578l-21.494,-12.41Z" style="fill:#fff;fill-opacity:0.11;"/><path d="M99.555,87.008c0.1,-0.058 0.222,-0.103 0.366,-0.136c0.144,-0.033 0.316,-0.045 0.514,-0.037l3.727,0.209c0.375,1.067 0.291,2.084 -0.253,3.051c-0.544,0.967 -1.573,1.888 -3.088,2.762c-1.39,0.803 -2.908,1.364 -4.555,1.684c-1.648,0.321 -3.335,0.424 -5.063,0.311c-1.728,-0.113 -3.456,-0.432 -5.186,-0.957c-1.73,-0.525 -3.368,-1.234 -4.915,-2.127c-1.575,-0.91 -2.789,-1.881 -3.639,-2.913c-0.851,-1.033 -1.334,-2.068 -1.45,-3.106c-0.115,-1.039 0.147,-2.049 0.787,-3.033c0.641,-0.984 1.668,-1.884 3.083,-2.701c0.687,-0.396 1.403,-0.729 2.15,-0.999c0.748,-0.269 1.508,-0.485 2.282,-0.647c0.774,-0.162 1.554,-0.272 2.341,-0.33c0.787,-0.058 1.56,-0.067 2.319,-0.025l0.787,2.108c0.043,0.131 0.057,0.265 0.043,0.402c-0.014,0.136 -0.135,0.27 -0.361,0.4c-0.15,0.087 -0.331,0.147 -0.543,0.18c-0.211,0.033 -0.447,0.06 -0.709,0.083c-0.262,0.023 -0.548,0.049 -0.859,0.077c-0.31,0.029 -0.645,0.082 -1.003,0.161c-0.358,0.078 -0.741,0.19 -1.149,0.337c-0.408,0.146 -0.834,0.347 -1.278,0.603c-0.77,0.445 -1.316,0.942 -1.638,1.49c-0.322,0.549 -0.419,1.124 -0.29,1.725c0.128,0.601 0.481,1.215 1.057,1.843c0.576,0.627 1.381,1.239 2.415,1.837c1.083,0.625 2.172,1.106 3.269,1.444c1.096,0.339 2.152,0.547 3.166,0.625c1.015,0.078 1.965,0.035 2.851,-0.13c0.885,-0.166 1.663,-0.442 2.333,-0.828c0.385,-0.223 0.715,-0.438 0.989,-0.647c0.275,-0.209 0.495,-0.422 0.661,-0.641c0.166,-0.218 0.287,-0.448 0.365,-0.688c0.078,-0.24 0.117,-0.505 0.117,-0.796c0.003,-0.113 0.033,-0.222 0.087,-0.326c0.054,-0.104 0.144,-0.192 0.27,-0.265Z" style="fill:#fff;fill-rule:nonzero;"/></g></svg>