<?xml version="1.0" encoding="UTF-8" standalone="no"?><!DOCTYPE svg PUBLIC "-//W3C//DTD SVG 1.1//EN" "http://www.w3.org/Graphics/SVG/1.1/DTD/svg11.dtd"><svg width="100%" height="100%" viewBox="0 0 200 200" version="1.1" xmlns="http://www.w3.org/2000/svg" xmlns:xlink="http://www.w3.org/1999/xlink" xml:space="preserve" xmlns:serif="http://www.serif.com/" style="fill-rule:evenodd;clip-rule:evenodd;stroke-linejoin:round;stroke-miterlimit:2;"><g><path d="M63.096,83.916c-0.126,0.374 -9.102,22.065 -9.102,24.399c0,2.819 2.059,5.792 6.077,8.112l26.619,15.369c7.346,4.241 18.475,4.702 24.836,1.029l30.186,-17.427c2.882,-1.664 4.294,-3.893 4.294,-6.227c-0,-0.129 -0.069,-0.942 -0.105,-1.145c-0.754,-4.25 -8.942,-23.289 -9.003,-23.48c-0.576,-1.784 -2.141,-3.554 -4.657,-5.007l-21.494,-12.41c-5.931,-3.424 -14.917,-3.797 -20.054,-0.831l-24.373,14.072c-1.707,0.985 -2.775,2.216 -3.224,3.546Z" style="fill:#001b35;"/><path d="M110.747,67.129c-5.931,-3.424 -14.917,-3.797 -20.054,-0.831l-24.373,14.072c-5.137,2.966 -4.492,8.154 1.439,11.578l21.494,12.41c5.931,3.424 14.917,3.797 20.054,0.831l24.373,-14.072c5.137,-2.966 4.492,-8.154 -1.439,-11.578l-21.494,-12.41Z" style="fill:#fff;fill-opacity:0.11;"/><path d="M92.426,86.285c0.535,0.116 1.078,0.243 1.629,0.383c0.551,0.139 1.106,0.288 1.664,0.445c-0.283,-0.327 -0.546,-0.653 -0.788,-0.976c-0.242,-0.324 -0.468,-0.643 -0.678,-0.957l-5.975,-8.873c-0.1,-0.154 -0.157,-0.286 -0.17,-0.396c-0.014,-0.109 0.009,-0.209 0.07,-0.3c0.06,-0.09 0.155,-0.179 0.283,-0.264c0.129,-0.085 0.285,-0.181 0.469,-0.287l3.24,-1.871l21.127,12.198l-3.742,2.16l-12.151,-7.015c-0.59,-0.341 -1.203,-0.724 -1.839,-1.149l6.013,9.069c0.188,0.282 0.241,0.547 0.16,0.795c-0.082,0.248 -0.286,0.466 -0.612,0.655l-0.578,0.333c-0.326,0.189 -0.704,0.307 -1.133,0.353c-0.43,0.047 -0.889,0.017 -1.378,-0.092l-15.747,-3.465c0.372,0.176 0.733,0.355 1.083,0.538c0.35,0.183 0.665,0.355 0.946,0.517l12.151,7.016l-3.742,2.16l-21.127,-12.197l3.24,-1.871c0.184,-0.106 0.35,-0.196 0.498,-0.271c0.148,-0.074 0.3,-0.128 0.457,-0.163c0.158,-0.035 0.331,-0.049 0.52,-0.041c0.19,0.008 0.418,0.041 0.685,0.098l15.425,3.468Z" style="fill:#fff;fill-rule:nonzero;"/></g></svg>