<?xml version="1.0" encoding="UTF-8" standalone="no"?><!DOCTYPE svg PUBLIC "-//W3C//DTD SVG 1.1//EN" "http://www.w3.org/Graphics/SVG/1.1/DTD/svg11.dtd"><svg width="100%" height="100%" viewBox="0 0 200 200" version="1.1" xmlns="http://www.w3.org/2000/svg" xmlns:xlink="http://www.w3.org/1999/xlink" xml:space="preserve" xmlns:serif="http://www.serif.com/" style="fill-rule:evenodd;clip-rule:evenodd;stroke-linejoin:round;stroke-miterlimit:2;"><g><path d="M63.096,83.916c-0.126,0.374 -9.102,22.065 -9.102,24.399c0,2.819 2.059,5.792 6.077,8.112l26.619,15.369c7.346,4.241 18.475,4.702 24.836,1.029l30.186,-17.427c2.882,-1.664 4.294,-3.893 4.294,-6.227c-0,-0.129 -0.069,-0.942 -0.105,-1.145c-0.754,-4.25 -8.942,-23.289 -9.003,-23.48c-0.576,-1.784 -2.141,-3.554 -4.657,-5.007l-21.494,-12.41c-5.931,-3.424 -14.917,-3.797 -20.054,-0.831l-24.373,14.072c-1.707,0.985 -2.775,2.216 -3.224,3.546Z" style="fill:#001b35;"/><path d="M110.747,67.129c-5.931,-3.424 -14.917,-3.797 -20.054,-0.831l-24.373,14.072c-5.137,2.966 -4.492,8.154 1.439,11.578l21.494,12.41c5.931,3.424 14.917,3.797 20.054,0.831l24.373,-14.072c5.137,-2.966 4.492,-8.154 -1.439,-11.578l-21.494,-12.41Z" style="fill:#fff;fill-opacity:0.11;"/><path d="M98.758,81.575c1.527,0.881 2.708,1.827 3.542,2.835c0.835,1.009 1.309,2.024 1.422,3.047c0.114,1.022 -0.15,2.023 -0.791,3.001c-0.641,0.979 -1.673,1.879 -3.096,2.701l-7.107,4.103l-21.127,-12.197l7.108,-4.104c1.423,-0.822 2.984,-1.416 4.684,-1.783c1.699,-0.368 3.432,-0.52 5.199,-0.457c1.766,0.063 3.523,0.335 5.269,0.817c1.747,0.481 3.379,1.16 4.897,2.037Zm-4.345,2.508c-1.044,-0.603 -2.104,-1.079 -3.179,-1.429c-1.075,-0.351 -2.125,-0.568 -3.15,-0.651c-1.024,-0.084 -2.011,-0.033 -2.962,0.153c-0.95,0.186 -1.831,0.513 -2.643,0.982l-2.838,1.638l13.586,7.844l2.838,-1.638c0.812,-0.469 1.379,-0.978 1.701,-1.526c0.322,-0.549 0.411,-1.119 0.265,-1.711c-0.145,-0.591 -0.521,-1.197 -1.127,-1.818c-0.607,-0.621 -1.437,-1.236 -2.491,-1.844Z" style="fill:#fff;fill-rule:nonzero;"/></g></svg>