<?xml version="1.0" encoding="UTF-8" standalone="no"?><!DOCTYPE svg PUBLIC "-//W3C//DTD SVG 1.1//EN" "http://www.w3.org/Graphics/SVG/1.1/DTD/svg11.dtd"><svg width="100%" height="100%" viewBox="0 0 200 200" version="1.1" xmlns="http://www.w3.org/2000/svg" xmlns:xlink="http://www.w3.org/1999/xlink" xml:space="preserve" xmlns:serif="http://www.serif.com/" style="fill-rule:evenodd;clip-rule:evenodd;stroke-linejoin:round;stroke-miterlimit:2;"><g><path d="M63.096,83.916c-0.126,0.374 -9.102,22.065 -9.102,24.399c0,2.819 2.059,5.792 6.077,8.112l26.619,15.369c7.346,4.241 18.475,4.702 24.836,1.029l30.186,-17.427c2.882,-1.664 4.294,-3.893 4.294,-6.227c-0,-0.129 -0.069,-0.942 -0.105,-1.145c-0.754,-4.25 -8.942,-23.289 -9.003,-23.48c-0.576,-1.784 -2.141,-3.554 -4.657,-5.007l-21.494,-12.41c-5.931,-3.424 -14.917,-3.797 -20.054,-0.831l-24.373,14.072c-1.707,0.985 -2.775,2.216 -3.224,3.546Z" style="fill:#001b35;"/><path d="M110.747,67.129c-5.931,-3.424 -14.917,-3.797 -20.054,-0.831l-24.373,14.072c-5.137,2.966 -4.492,8.154 1.439,11.578l21.494,12.41c5.931,3.424 14.917,3.797 20.054,0.831l24.373,-14.072c5.137,-2.966 4.492,-8.154 -1.439,-11.578l-21.494,-12.41Z" style="fill:#fff;fill-opacity:0.11;"/><path d="M73.836,83.774c0.185,-0.106 0.349,-0.19 0.494,-0.251c0.145,-0.062 0.294,-0.106 0.448,-0.133c0.153,-0.028 0.325,-0.04 0.513,-0.037c0.189,0.002 0.424,0.017 0.706,0.044l21.377,2.309c-0.439,-0.215 -0.859,-0.428 -1.257,-0.639c-0.399,-0.211 -0.767,-0.414 -1.105,-0.609l-11.18,-6.455l3.742,-2.16l21.127,12.197l-2.21,1.276c-0.327,0.189 -0.661,0.315 -1.003,0.378c-0.342,0.064 -0.773,0.066 -1.291,0.009l-21.213,-2.286c0.392,0.198 0.773,0.393 1.143,0.587c0.369,0.194 0.709,0.381 1.018,0.559l11.325,6.539l-3.742,2.16l-21.127,-12.197l2.235,-1.291Z" style="fill:#fff;fill-rule:nonzero;"/></g></svg>