<?xml version="1.0" encoding="UTF-8" standalone="no"?><!DOCTYPE svg PUBLIC "-//W3C//DTD SVG 1.1//EN" "http://www.w3.org/Graphics/SVG/1.1/DTD/svg11.dtd"><svg width="100%" height="100%" viewBox="0 0 200 200" version="1.1" xmlns="http://www.w3.org/2000/svg" xmlns:xlink="http://www.w3.org/1999/xlink" xml:space="preserve" xmlns:serif="http://www.serif.com/" style="fill-rule:evenodd;clip-rule:evenodd;stroke-linejoin:round;stroke-miterlimit:2;"><g><path d="M63.096,83.916c-0.126,0.374 -9.102,22.065 -9.102,24.399c0,2.819 2.059,5.792 6.077,8.112l26.619,15.369c7.346,4.241 18.475,4.702 24.836,1.029l30.186,-17.427c2.882,-1.664 4.294,-3.893 4.294,-6.227c-0,-0.129 -0.069,-0.942 -0.105,-1.145c-0.754,-4.25 -8.942,-23.289 -9.003,-23.48c-0.576,-1.784 -2.141,-3.554 -4.657,-5.007l-21.494,-12.41c-5.931,-3.424 -14.917,-3.797 -20.054,-0.831l-24.373,14.072c-1.707,0.985 -2.775,2.216 -3.224,3.546Z" style="fill:#001b35;"/><path d="M110.747,67.129c-5.931,-3.424 -14.917,-3.797 -20.054,-0.831l-24.373,14.072c-5.137,2.966 -4.492,8.154 1.439,11.578l21.494,12.41c5.931,3.424 14.917,3.797 20.054,0.831l24.373,-14.072c5.137,-2.966 4.492,-8.154 -1.439,-11.578l-21.494,-12.41Z" style="fill:#fff;fill-opacity:0.11;"/><path d="M97.804,90.246c0.586,-0.338 1.047,-0.672 1.383,-1c0.336,-0.328 0.608,-0.663 0.817,-1.007l-3.205,-1.85l-1.808,1.044c-0.268,0.155 -0.559,0.228 -0.874,0.22c-0.315,-0.008 -0.598,-0.084 -0.85,-0.229l-2.697,-1.558l6.505,-3.755l8.918,5.149c-0.073,0.499 -0.22,0.977 -0.441,1.434c-0.221,0.457 -0.527,0.904 -0.917,1.342c-0.39,0.437 -0.865,0.868 -1.427,1.293c-0.562,0.424 -1.215,0.852 -1.96,1.282c-1.34,0.773 -2.852,1.331 -4.537,1.673c-1.684,0.342 -3.424,0.476 -5.219,0.401c-1.795,-0.074 -3.588,-0.356 -5.381,-0.844c-1.792,-0.489 -3.462,-1.18 -5.009,-2.073c-1.575,-0.91 -2.797,-1.876 -3.664,-2.899c-0.868,-1.022 -1.359,-2.053 -1.475,-3.091c-0.116,-1.039 0.157,-2.056 0.818,-3.051c0.662,-0.996 1.729,-1.919 3.203,-2.77c0.761,-0.44 1.55,-0.811 2.364,-1.114c0.815,-0.303 1.631,-0.545 2.447,-0.726c0.816,-0.181 1.633,-0.307 2.45,-0.376c0.817,-0.07 1.612,-0.094 2.387,-0.072l0.929,1.957c0.086,0.185 0.106,0.358 0.058,0.52c-0.047,0.161 -0.167,0.297 -0.359,0.408c-0.252,0.145 -0.608,0.239 -1.069,0.282c-0.567,0.06 -1.083,0.126 -1.55,0.2c-0.466,0.074 -0.907,0.17 -1.323,0.287c-0.416,0.118 -0.82,0.261 -1.212,0.432c-0.391,0.17 -0.801,0.378 -1.228,0.625c-0.795,0.459 -1.349,0.966 -1.661,1.52c-0.313,0.554 -0.398,1.131 -0.256,1.73c0.142,0.599 0.504,1.207 1.088,1.825c0.584,0.617 1.383,1.219 2.398,1.805c1.122,0.647 2.251,1.145 3.389,1.492c1.138,0.348 2.243,0.558 3.315,0.631c1.073,0.073 2.09,0.013 3.053,-0.18c0.963,-0.194 1.83,-0.512 2.6,-0.957Z" style="fill:#fff;fill-rule:nonzero;"/></g></svg>