<?xml version="1.0" encoding="UTF-8" standalone="no"?><!DOCTYPE svg PUBLIC "-//W3C//DTD SVG 1.1//EN" "http://www.w3.org/Graphics/SVG/1.1/DTD/svg11.dtd"><svg width="100%" height="100%" viewBox="0 0 200 200" version="1.1" xmlns="http://www.w3.org/2000/svg" xmlns:xlink="http://www.w3.org/1999/xlink" xml:space="preserve" xmlns:serif="http://www.serif.com/" style="fill-rule:evenodd;clip-rule:evenodd;stroke-linejoin:round;stroke-miterlimit:2;"><g><path d="M81.699,110.864c0.059,-0.484 -0.046,-15.374 -0.046,-18.087c0,-2.713 1.791,-5.426 5.373,-7.494c7.164,-4.136 18.796,-4.136 25.96,0c3.582,2.068 5.373,4.781 5.373,7.494c-0,2.713 -0,16.125 -0,18.838c-0,2.713 -1.791,5.426 -5.373,7.494c-7.164,4.136 -18.796,4.136 -25.96,-0c-3.912,-2.259 -5.688,-5.288 -5.327,-8.245Z" style="fill:#6a4c30;"/><path d="M81.654,104.505c0.027,2.692 1.818,5.379 5.372,7.431c7.164,4.136 18.796,4.136 25.96,-0c3.582,-2.068 5.373,-4.781 5.373,-7.494c-0,2.713 -0,4.46 -0,7.173c-0,2.713 -1.791,5.426 -5.373,7.494c-7.164,4.136 -18.796,4.136 -25.96,-0c-3.912,-2.259 -5.688,-5.288 -5.327,-8.245c0.059,-0.484 -0.046,-3.709 -0.046,-6.422l0.001,0.063Z" style="fill:#fff;fill-opacity:0.31;"/><path d="M87.02,85.283c7.164,-4.136 18.796,-4.136 25.96,0c7.164,4.136 7.164,10.852 -0,14.988c-7.164,4.136 -18.796,4.136 -25.96,0c-7.164,-4.136 -7.164,-10.852 0,-14.988Z" style="fill:#fff;fill-opacity:0.06;"/></g></svg>