<?xml version="1.0" encoding="UTF-8" standalone="no"?><!DOCTYPE svg PUBLIC "-//W3C//DTD SVG 1.1//EN" "http://www.w3.org/Graphics/SVG/1.1/DTD/svg11.dtd"><svg width="100%" height="100%" viewBox="0 0 200 200" version="1.1" xmlns="http://www.w3.org/2000/svg" xmlns:xlink="http://www.w3.org/1999/xlink" xml:space="preserve" xmlns:serif="http://www.serif.com/" style="fill-rule:evenodd;clip-rule:evenodd;stroke-linejoin:round;stroke-miterlimit:2;"><path d="M142.009,17.81c0,-0 17.58,110.236 17.613,110.426c0.1,0.581 -0.235,1.182 -1.005,1.627c-1.363,0.787 -3.577,0.787 -4.94,0c-0.64,-0.369 -0.979,-0.846 -1.019,-1.331c-0.003,-0.041 -17.442,-110.34 -17.442,-110.34l6.793,-0.382Z" style="fill:#c0c0c0;"/><path d="M139.189,17.968l2.82,-0.158c0,-0 17.58,110.236 17.613,110.426c0.1,0.581 -0.235,1.182 -1.005,1.627c-0.473,0.273 -1.048,0.452 -1.655,0.535l-0.523,-3.31c-2.793,-17.676 -5.588,-35.351 -8.382,-53.026l-8.868,-56.094Z" style="fill:#fff;fill-opacity:0.25;"/><path d="M40.361,144.165c0.01,-0.508 15.727,-109.951 15.727,-109.951l6.625,1.551l-15.352,108.344l-0.019,-0.004c0.039,0.544 -0.3,1.095 -1.019,1.51c-1.363,0.787 -3.577,0.787 -4.94,0c-0.692,-0.399 -1.033,-0.926 -1.022,-1.45Z" style="fill:#c0c0c0;"/><path d="M56.086,36.743c0.015,-0.535 0.005,-2.802 -0.004,-3.403c-0.106,-7.169 4.573,-14.356 14.037,-19.82c18.719,-10.808 49.113,-10.808 67.832,-0c9.24,5.334 13.919,12.312 14.036,19.311c0.013,0.77 0.014,3.863 0,4.64c-0.125,6.993 -4.804,13.963 -14.036,19.293c-18.719,10.807 -49.113,10.807 -67.832,-0c-9.553,-5.516 -14.23,-12.786 -14.033,-20.021Zm88.295,-1.708l-0.004,0.028c-0.77,5.315 -4.673,10.506 -11.71,14.569c-15.802,9.123 -41.462,9.123 -57.264,-0c-7.05,-4.07 -10.954,-9.273 -11.714,-14.597c0.76,-5.323 4.664,-10.526 11.714,-14.596c15.802,-9.124 41.462,-9.124 57.264,0c7.05,4.07 10.954,9.273 11.714,14.596Z" style="fill:#c0c0c0;"/><path d="M70.208,13.468c18.66,-10.773 48.958,-10.773 67.617,0c18.659,10.773 18.659,28.266 -0,39.038c-18.659,10.773 -48.957,10.773 -67.617,0c-18.659,-10.772 -18.659,-28.265 0,-39.038Zm5.083,2.934c15.854,-9.153 41.597,-9.153 57.451,0c15.854,9.154 15.854,24.017 0,33.17c-15.854,9.153 -41.597,9.153 -57.451,0c-15.854,-9.153 -15.854,-24.016 -0,-33.17Z" style="fill:#c0c0c0;fill-opacity:0.27;"/><path d="M126.26,192.689l-14.805,-131.922l6.625,-1.551c-0,0 15.122,132.84 15.157,133.287c0.043,0.547 -0.296,1.101 -1.018,1.518c-1.364,0.787 -3.577,0.787 -4.94,0c-0.629,-0.363 -0.968,-0.83 -1.017,-1.306c-0.001,-0.009 -0.002,-0.018 -0.002,-0.026Z" style="fill:#c0c0c0;"/><path d="M70.208,13.468c18.66,-10.773 48.958,-10.773 67.617,0c18.659,10.773 18.659,28.266 -0,39.038c-18.659,10.773 -48.957,10.773 -67.617,0c-18.659,-10.772 -18.659,-28.265 0,-39.038Zm5.083,2.934c15.854,-9.153 41.597,-9.153 57.451,0c15.854,9.154 15.854,24.017 0,33.17c-15.854,9.153 -41.597,9.153 -57.451,0c-15.854,-9.153 -15.854,-24.016 -0,-33.17Z" style="fill:#fff;fill-opacity:0.25;"/><path d="M118.098,59.369c2.02,17.752 15.107,132.722 15.139,133.134c0.043,0.547 -0.296,1.101 -1.018,1.518c-1.148,0.663 -2.897,0.768 -4.235,0.315c-1.32,-11.696 -12.806,-112.616 -15.264,-134.208c1.812,-0.193 3.608,-0.446 5.378,-0.759Z" style="fill:#fff;fill-opacity:0.25;"/><path d="M56.217,33.302c0.054,2.761 0.82,5.518 2.298,8.17c-3.792,26.457 -13.709,95.677 -14.964,104.726c-0.791,-0.039 -1.563,-0.234 -2.168,-0.583c-0.692,-0.399 -1.033,-0.926 -1.022,-1.45c0.009,-0.466 13.612,-95.231 15.856,-110.863Z" style="fill:#fff;fill-opacity:0.25;"/></svg>