<?xml version="1.0" encoding="UTF-8" standalone="no"?><!DOCTYPE svg PUBLIC "-//W3C//DTD SVG 1.1//EN" "http://www.w3.org/Graphics/SVG/1.1/DTD/svg11.dtd"><svg width="100%" height="100%" viewBox="0 0 200 200" version="1.1" xmlns="http://www.w3.org/2000/svg" xmlns:xlink="http://www.w3.org/1999/xlink" xml:space="preserve" xmlns:serif="http://www.serif.com/" style="fill-rule:evenodd;clip-rule:evenodd;stroke-linejoin:round;stroke-miterlimit:2;"><path d="M97.313,116.571c0.002,-0.041 -0.003,-97.065 -0.003,-97.065l7.726,0c-0,0 -0.002,97.051 -0.001,97.106c0.017,0.584 -0.359,1.171 -1.13,1.616c-1.508,0.87 -3.956,0.87 -5.464,-0c-0.789,-0.456 -1.165,-1.06 -1.128,-1.657Z" style="fill:#c0c0c0;"/><path d="M101.173,19.506l3.863,0c-0,0 -0.002,97.051 -0.001,97.106c0.017,0.584 -0.359,1.171 -1.13,1.616c-0.754,0.435 -1.743,0.653 -2.733,0.653c-0,-4.304 -0,-32.656 0,-59.609c0,-15.233 0,-30.019 0.001,-39.766Z" style="fill:#fff;fill-opacity:0.1;"/><path d="M46.065,49.154c0.016,-0.602 0.005,-3.161 -0.005,-3.839c-0.12,-8.086 5.159,-16.194 15.835,-22.358c21.116,-12.191 55.403,-12.191 76.519,-0c10.423,6.018 15.702,13.889 15.834,21.784c0.015,0.869 0.016,4.358 -0,5.235c-0.142,7.888 -5.42,15.75 -15.834,21.763c-21.116,12.192 -55.403,12.192 -76.519,0c-10.776,-6.221 -16.053,-14.423 -15.83,-22.585Zm99.603,-1.926l-0.005,0.031c-0.868,5.996 -5.271,11.852 -13.209,16.435c-17.827,10.292 -46.772,10.292 -64.599,-0c-7.952,-4.591 -12.357,-10.46 -13.214,-16.466c0.857,-6.005 5.262,-11.874 13.214,-16.466c17.827,-10.292 46.772,-10.292 64.599,0c7.952,4.592 12.357,10.461 13.214,16.466Z" style="fill:#c0c0c0;"/><path d="M169.093,183.885c-0.07,-0.51 -22.222,-122.907 -22.222,-122.907l-7.474,1.75l21.941,121.138l0.011,-0.002c-0.057,0.611 0.318,1.233 1.126,1.699c1.507,0.87 3.956,0.87 5.463,-0c0.832,-0.48 1.241,-1.049 1.155,-1.678Z" style="fill:#c0c0c0;"/><path d="M61.996,22.899c21.049,-12.153 55.227,-12.153 76.276,-0c21.049,12.152 21.049,31.885 -0,44.038c-21.049,12.152 -55.227,12.152 -76.276,-0c-21.049,-12.153 -21.049,-31.886 -0,-44.038Zm5.733,3.31c17.885,-10.326 46.925,-10.326 64.809,-0c17.885,10.326 17.885,27.092 0,37.418c-17.884,10.325 -46.924,10.325 -64.809,-0c-17.885,-10.326 -17.885,-27.092 0,-37.418Z" style="fill:#fff;fill-opacity:0.27;"/><path d="M146.794,60.549c2.829,15.63 22.234,122.863 22.299,123.336c0.086,0.629 -0.323,1.198 -1.155,1.678c-0.688,0.398 -1.574,0.614 -2.476,0.648c-2.526,-14.042 -17.607,-97.39 -22.171,-122.611c1.282,-0.985 2.45,-2.005 3.503,-3.051Z" style="fill:#fff;fill-opacity:0.23;"/><path d="M54.171,61.222c1.692,1.588 3.653,3.107 5.883,4.535l-21.392,118.109l-0.011,-0.002c0.057,0.611 -0.318,1.233 -1.126,1.699c-1.507,0.87 -3.956,0.87 -5.463,-0c-0.832,-0.48 -1.241,-1.049 -1.155,-1.678c0.07,-0.51 22.222,-122.907 22.222,-122.907l1.042,0.244Z" style="fill:#c0c0c0;"/><path d="M53.247,60.321c1.005,1.019 2.117,2.012 3.336,2.973c-4.503,24.883 -19.24,106.325 -22.226,122.907c-0.839,-0.054 -1.653,-0.267 -2.295,-0.638c-0.832,-0.48 -1.241,-1.049 -1.155,-1.678c0.063,-0.464 18.882,-104.456 22.34,-123.564Z" style="fill:#fff;fill-opacity:0.22;"/></svg>