<?xml version="1.0" encoding="UTF-8" standalone="no"?><!DOCTYPE svg PUBLIC "-//W3C//DTD SVG 1.1//EN" "http://www.w3.org/Graphics/SVG/1.1/DTD/svg11.dtd"><svg width="100%" height="100%" viewBox="0 0 200 200" version="1.1" xmlns="http://www.w3.org/2000/svg" xmlns:xlink="http://www.w3.org/1999/xlink" xml:space="preserve" xmlns:serif="http://www.serif.com/" style="fill-rule:evenodd;clip-rule:evenodd;stroke-linejoin:round;stroke-miterlimit:2;"><path d="M20.058,95.703c-0.222,1.169 -0.204,5.133 -0.151,5.928c0.316,4.703 3.887,9.591 10.56,13.444l46.355,26.763c12.792,7.386 32.171,8.189 43.249,1.793l52.566,-30.348c4.636,-2.677 7.088,-6.193 7.435,-9.918c0.081,-0.869 0.089,-4.828 -0.088,-5.943c-0.7,-4.406 -4.226,-8.902 -10.453,-12.497l-46.354,-26.763c-12.792,-7.386 -32.172,-8.189 -43.25,-1.793l-52.565,30.348c-4.248,2.453 -6.662,5.61 -7.304,8.986Zm99.356,38.963l-5.032,-2.905l-13.161,7.598l0.092,0.054c6.196,-0.022 12.104,-1.285 16.525,-3.837l1.576,-0.91Zm-20.648,4.687l-13.15,-7.592l-5.002,2.888c5.35,2.8 11.816,4.385 18.152,4.704Zm-11.928,-8.298l13.161,7.599l13.161,-7.599l-13.161,-7.598l-13.161,7.598Zm-19.596,-4.092l12.121,6.998l5.032,-2.906l-12.121,-6.998l-5.032,2.906Zm48.362,4.092l5.032,2.906l12.121,-6.998l-5.032,-2.906l-12.121,6.998Zm-42.109,-7.703l12.121,6.998l13.161,-7.598l-12.12,-6.999l-13.162,7.599Zm27.726,-0.6l13.161,7.598l12.121,-6.998l-13.161,-7.599l-12.121,6.999Zm-47.666,-3.692l12.465,7.197l5.032,-2.905l-12.465,-7.197l-5.032,2.905Zm75.392,4.292l5.032,2.905l12.465,-7.197l-5.032,-2.905l-12.465,7.197Zm-69.139,-7.902l12.466,7.197l13.161,-7.599l-12.466,-7.197l-13.161,7.599Zm54.756,-0.402l13.161,7.599l12.465,-7.197l-13.161,-7.599l-12.465,7.197Zm-26.686,0l12.121,6.998l12.121,-6.998l-12.121,-6.998l-12.121,6.998Zm-47.666,-3.691l12.121,6.998l5.032,-2.905l-12.121,-6.998l-5.032,2.905Zm102.422,4.093l5.032,2.905l12.121,-6.998l-5.032,-2.905l-12.121,6.998Zm-96.168,-7.704l12.121,6.998l13.161,-7.598l-12.121,-6.998l-13.161,7.598Zm81.785,-0.6l13.161,7.598l12.121,-6.998l-13.161,-7.598l-12.121,6.998Zm-27.03,0.199l12.121,6.998l12.465,-7.197l-12.121,-6.998l-12.465,7.197Zm-27.03,-0.199l12.466,7.197l12.12,-6.998l-12.465,-7.197l-12.121,6.998Zm-35.201,3.506l5.032,-2.906l-13.161,-7.598l-1.45,0.837c1.198,3.288 4.151,6.533 8.794,9.213l0.785,0.454Zm131.929,-9.476l-1.782,-1.028l-13.161,7.598l5.032,2.906l3.545,-2.047c3.54,-2.044 5.648,-4.639 6.366,-7.429Zm-138.836,-1.734l13.161,7.599l13.161,-7.599l-13.161,-7.598l-13.161,7.598Zm109.511,0l13.161,7.599l13.161,-7.599l-13.161,-7.598l-13.161,7.598Zm-54.06,0l12.465,7.197l12.466,-7.197l-12.466,-7.196l-12.465,7.196Zm-26.686,0l12.121,6.998l12.121,-6.998l-12.121,-6.998l-12.121,6.998Zm54.06,0l12.121,6.998l12.121,-6.998l-12.121,-6.998l-12.121,6.998Zm-85.891,-0.359c-0.02,0.09 -0.039,0.179 -0.056,0.269c0.026,0.143 0.057,0.287 0.09,0.43l0.588,-0.34l-0.622,-0.359Zm141.657,0.178l-0.315,0.181l0.454,0.262c-0.043,-0.148 -0.089,-0.295 -0.139,-0.443Zm-124.208,-8.122l13.161,7.598l12.121,-6.998l-13.161,-7.599l-12.121,6.999Zm81.785,0.6l12.121,6.998l13.161,-7.598l-12.121,-6.999l-13.161,7.599Zm-88.295,-2.948l-4.51,2.604c-3.139,1.812 -5.151,4.056 -6.068,6.486l1.483,0.856l13.161,-7.598l-4.066,-2.348Zm61.265,2.749l12.465,7.197l12.121,-6.998l-12.465,-7.197l-12.121,6.998Zm-27.03,0.199l12.121,6.998l12.465,-7.197l-12.12,-6.998l-12.466,7.197Zm85.852,-2.948l-4.067,2.348l13.161,7.598l1.078,-0.622c-1.38,-2.977 -4.203,-5.878 -8.422,-8.313l-1.75,-1.011Zm-45.479,-4.954l12.465,7.197l13.161,-7.599l-12.465,-7.197l-13.161,7.599Zm-54.756,-0.402l13.161,7.599l12.466,-7.197l-13.161,-7.599l-12.466,7.197Zm28.07,0.402l12.121,6.998l12.121,-6.998l-12.121,-6.998l-12.121,6.998Zm54.756,-0.402l12.121,6.998l4.066,-2.348l-12.121,-6.998l-4.066,2.348Zm-101.456,4.65l4.066,2.348l12.121,-6.998l-4.066,-2.348l-12.121,6.998Zm32.317,-12.552l13.162,7.598l12.12,-6.998l-13.161,-7.598l-12.121,6.998Zm27.726,0.6l12.121,6.998l13.161,-7.598l-12.121,-6.998l-13.161,7.598Zm-46.701,4.249l4.067,2.348l12.465,-7.197l-4.066,-2.348l-12.466,7.197Zm74.427,-4.849l12.465,7.197l4.066,-2.348l-12.465,-7.197l-4.066,2.348Zm-29.57,-14.943l-12.539,7.239l13.161,7.599l13.161,-7.599l-12.482,-7.206c-0.435,-0.017 -0.869,-0.028 -1.301,-0.033Zm-31.17,11.89l4.067,2.347l12.121,-6.998l-4.067,-2.347l-12.121,6.998Zm51.445,-6.988l-4.048,2.337l12.121,6.998l4.066,-2.347l-11.194,-6.463c-0.31,-0.179 -0.625,-0.354 -0.945,-0.525Zm-22.788,-4.862c-5.524,0.24 -10.718,1.493 -14.703,3.794l-0.611,0.352l4.066,2.348l11.248,-6.494Zm6.581,0.18l10.937,6.314l3.97,-2.292c-4.5,-2.17 -9.699,-3.52 -14.907,-4.022Z" style="fill:#001b35;"/><path d="M123.177,58.162c-12.792,-7.386 -32.172,-8.189 -43.25,-1.793l-52.565,30.348c-11.078,6.396 -9.687,17.585 3.105,24.971l46.355,26.763c12.792,7.385 32.171,8.188 43.249,1.792l52.566,-30.348c11.078,-6.396 9.686,-17.585 -3.106,-24.97l-46.354,-26.763Zm-2.58,4.467c-11.368,-6.563 -28.591,-7.277 -38.436,-1.593l-46.715,26.971c-9.846,5.684 -8.609,15.628 2.759,22.191l41.196,23.785c11.369,6.563 28.591,7.277 38.437,1.593l46.715,-26.971c9.845,-5.684 8.609,-15.628 -2.76,-22.191l-41.196,-23.785Z" style="fill:#fff;fill-opacity:0.15;"/></svg>