<?xml version="1.0" encoding="UTF-8" standalone="no"?><!DOCTYPE svg PUBLIC "-//W3C//DTD SVG 1.1//EN" "http://www.w3.org/Graphics/SVG/1.1/DTD/svg11.dtd"><svg width="100%" height="100%" viewBox="0 0 200 200" version="1.1" xmlns="http://www.w3.org/2000/svg" xmlns:xlink="http://www.w3.org/1999/xlink" xml:space="preserve" xmlns:serif="http://www.serif.com/" style="fill-rule:evenodd;clip-rule:evenodd;stroke-linejoin:round;stroke-miterlimit:2;"><path d="M44.96,153.728c-0.201,1.314 -0.069,7.422 -0.026,8.461c0.05,1.177 0.93,2.407 2.603,3.373l45.489,26.263c3.149,1.818 7.919,2.016 10.647,0.441l49.597,-28.635c1.161,-0.67 1.766,-1.555 1.834,-2.49c0.093,-1.26 0.013,-8.138 0.003,-8.314c-0.07,-1.163 -0.95,-2.374 -2.601,-3.328l-45.489,-26.262c-3.149,-1.818 -7.919,-2.016 -10.647,-0.442l-49.597,28.635c-1.081,0.625 -1.68,1.434 -1.813,2.298Z" style="fill:#001a35;"/><path d="M107.017,123.237c-3.149,-1.818 -7.919,-2.016 -10.647,-0.442l-49.597,28.635c-2.727,1.575 -2.385,4.329 0.764,6.147l45.489,26.263c3.149,1.818 7.919,2.016 10.647,0.441l49.597,-28.635c2.727,-1.574 2.385,-4.329 -0.764,-6.147l-45.489,-26.262Z" style="fill:#fff;fill-opacity:0.19;"/><path d="M96.737,148.705c8.241,-4.758 21.622,-4.758 29.863,0c8.241,4.758 8.241,12.484 -0,17.242c-8.241,4.758 -21.622,4.758 -29.863,-0c-8.241,-4.758 -8.241,-12.484 -0,-17.242Z" style="fill-opacity:0.23;"/><path d="M65.716,131.401l-0,9.063l9.847,5.686l11.252,-6.496l-0,-9.064l-9.848,-5.685l-11.251,6.496Z" style="fill:#25bcb2;"/><path d="M75.563,137.086l11.252,-6.496l-9.848,-5.685l-11.251,6.496l-0,9.063l9.847,5.686l-0,-9.064Z" style="fill:#fff;fill-opacity:0.25;"/><path d="M76.967,124.905l-11.251,6.496l9.847,5.685l11.252,-6.496l-9.848,-5.685Z" style="fill:#fff;fill-opacity:0.25;"/><path d="M69.879,12.855l0,116.255l3.559,2.055l3.559,-2.055l-0,-116.255l-3.559,-2.054l-3.559,2.054Z" style="fill:#001a35;"/><path d="M73.438,14.91l-3.559,-2.055l0,116.255l3.559,2.055l0,-116.255Z" style="fill:#fff;fill-opacity:0.25;"/><path d="M73.438,10.801l-3.559,2.054l3.559,2.055l3.559,-2.055l-3.559,-2.054Z" style="fill:#fff;fill-opacity:0.25;"/><path d="M73.438,10.801l-3.559,2.054l3.559,2.055l3.559,-2.055l-3.559,-2.054Z" style="fill:#fff;fill-opacity:0.25;"/><path d="M65.64,41.457l-0,9.064l9.847,5.685l11.252,-6.496l0,-9.064l-9.847,-5.685l-11.252,6.496Z" style="fill:#001a35;"/><path d="M75.487,47.143l11.252,-6.497l-9.847,-5.685l-11.252,6.496l-0,9.064l9.847,5.685l0,-9.063Z" style="fill:#fff;fill-opacity:0.25;"/><path d="M76.892,34.961l-11.252,6.496l9.847,5.686l11.252,-6.497l-9.847,-5.685Z" style="fill:#fff;fill-opacity:0.25;"/><path d="M69.879,12.855l0,26.261l3.559,2.055l3.559,-2.055l-0,-26.261l-3.559,-2.054l-3.559,2.054Z" style="fill:#001a35;"/><path d="M73.438,14.91l-3.559,-2.055l0,26.261l3.559,2.055l0,-26.261Z" style="fill:#fff;fill-opacity:0.25;"/><path d="M73.438,10.801l-3.559,2.054l3.559,2.055l3.559,-2.055l-3.559,-2.054Z" style="fill:#fff;fill-opacity:0.25;"/><path d="M73.438,10.801l-3.559,2.054l3.559,2.055l3.559,-2.055l-3.559,-2.054Z" style="fill:#fff;fill-opacity:0.25;"/><path d="M79.835,49.44l-0,4.17l17.288,9.981l3.296,-1.903l0,-4.169l-17.288,-9.982l-3.296,1.903Z" style="fill:#001a35;"/><path d="M97.123,59.422l3.296,-1.903l-17.288,-9.982l-3.296,1.903l-0,4.17l17.288,9.981l-0,-4.169Z" style="fill:#fff;fill-opacity:0.25;"/><path d="M83.131,47.537l-3.296,1.903l17.288,9.982l3.296,-1.903l-17.288,-9.982Z" style="fill:#fff;fill-opacity:0.25;"/><path d="M101.108,54.637c5.828,-3.365 15.292,-3.365 21.121,0c5.828,3.365 5.828,8.829 -0,12.194c-5.829,3.365 -15.293,3.365 -21.121,0c-5.828,-3.365 -5.828,-8.829 0,-12.194Z" style="fill:#25bcb2;fill-opacity:0.23;"/><path d="M100.683,77.632l0.043,-33.281c-1.811,-1.402 -2.725,-3.069 -2.741,-4.738c-0.006,-0.686 -0.102,-3.981 0.09,-4.952c0.343,-1.736 1.666,-3.418 3.969,-4.748c5.413,-3.125 14.201,-3.125 19.614,0c2.563,1.48 3.913,3.397 4.048,5.338c0.054,0.779 0.019,4.228 0.007,4.508c-0.066,1.624 -0.982,3.238 -2.748,4.6l-0.043,33.248c14.212,4.153 24.487,16.079 24.487,30.127c-0,17.494 -15.936,31.697 -35.563,31.697c-19.628,-0 -35.564,-14.203 -35.564,-31.697c0,-14.02 10.235,-25.926 24.401,-30.102Z" style="fill:#d9d9d9;fill-opacity:0.43;"/><path d="M102.998,79.535l-0,-33.803c5.115,2.454 12.577,2.456 17.695,0.006l0,33.797c13.837,3.447 23.998,14.774 23.998,28.199c0,16.157 -14.717,29.275 -32.845,29.275c-18.129,-0 -32.846,-13.118 -32.846,-29.275c-0,-13.425 10.161,-24.752 23.998,-28.199Z" style="fill:#fff;fill-opacity:0.43;"/><path d="M83.601,93.272c1.441,-2.361 3.795,-4.577 7.064,-6.464c11.69,-6.75 30.671,-6.75 42.361,-0c3.269,1.887 5.623,4.103 7.064,6.464l0.392,0.663c2.728,4.267 4.209,8.54 4.209,13.799c0,16.157 -14.717,29.275 -32.845,29.275c-18.129,-0 -32.846,-13.118 -32.846,-29.275c-0,-5.259 1.705,-9.875 4.433,-14.142l0.168,-0.32Z" style="fill:#25bcb2;fill-opacity:0.69;"/><path d="M90.665,86.808c11.69,-6.75 30.671,-6.75 42.361,-0c11.69,6.749 11.69,17.708 0,24.457c-11.69,6.749 -30.671,6.749 -42.361,0c-11.69,-6.749 -11.69,-17.708 -0,-24.457Z" style="fill:#fff;fill-opacity:0.25;"/><path d="M102.039,29.913c5.412,-3.125 14.201,-3.125 19.613,0c5.413,3.125 5.413,8.199 0,11.324c-5.412,3.125 -14.201,3.125 -19.613,-0c-5.413,-3.125 -5.413,-8.199 -0,-11.324Z" style="fill:#fff;fill-opacity:0.43;"/><path d="M105.421,31.883c3.546,-2.047 9.303,-2.047 12.849,-0c3.546,2.047 3.546,5.371 -0,7.418c-3.546,2.047 -9.303,2.047 -12.849,-0c-3.546,-2.047 -3.546,-5.371 0,-7.418Z" style="fill:#d9d9d9;fill-opacity:0.43;"/><path d="M103.285,124.642c4.725,-2.728 12.397,-2.728 17.121,-0c4.725,2.728 4.725,7.157 0,9.885c-4.724,2.728 -12.396,2.728 -17.121,0c-4.725,-2.728 -4.725,-7.157 -0,-9.885Z" style="fill:#fff;fill-opacity:0.18;"/><path d="M100.571,54.964c0.021,2.176 0.025,4.634 -0.048,5.432c-0.159,1.761 0.925,3.552 3.252,4.895c4.357,2.515 11.43,2.515 15.786,0c2.059,-1.188 3.145,-2.728 3.258,-4.286c0.058,-0.801 0.062,-3.402 0.049,-5.975c2.498,1.632 3.742,3.682 3.732,5.729c-0.004,0.759 0.004,3.785 -0,4.561c-0.011,2.199 -1.468,4.396 -4.371,6.072c-5.829,3.365 -15.293,3.365 -21.121,0c-2.903,-1.676 -4.36,-3.873 -4.371,-6.072c-0.004,-0.776 -0.069,-4.158 0.026,-5.094c0.192,-1.895 1.461,-3.76 3.808,-5.262Z" style="fill:#25bcb2;"/><path d="M100.571,54.964c0,-0 -0.006,4.977 -0.048,5.432c-0.159,1.761 0.925,3.552 3.252,4.895c4.357,2.515 11.43,2.515 15.786,0c2.059,-1.188 3.145,-2.728 3.258,-4.286c0.057,-0.788 0.05,-5.974 0.05,-5.974c2.498,1.632 3.741,3.681 3.731,5.728c-0.001,0.191 -0.001,0.523 -0.001,0.928c-0.045,2.172 -1.501,4.337 -4.37,5.994c-5.829,3.365 -15.293,3.365 -21.121,-0c-2.903,-1.676 -4.36,-3.873 -4.371,-6.072c-0.001,-0.161 -0.004,-0.432 -0.009,-0.771c0.008,-0.252 0.019,-0.463 0.035,-0.612c0.192,-1.895 1.461,-3.76 3.808,-5.262Z" style="fill:#fff;fill-opacity:0.16;"/><path d="M68.273,9.798l0,4.362l4.821,2.736l5.509,-3.126l-0,-4.363l-4.821,-2.736l-5.509,3.127Z" style="fill:#25bcb2;"/><path d="M73.094,12.534l5.509,-3.127l-4.821,-2.736l-5.509,3.127l0,4.362l4.821,2.736l0,-4.362Z" style="fill:#fff;fill-opacity:0.25;"/><path d="M73.782,6.671l-5.509,3.127l4.821,2.736l5.509,-3.127l-4.821,-2.736Z" style="fill:#fff;fill-opacity:0.25;"/></svg>