<?xml version="1.0" encoding="UTF-8" standalone="no"?><!DOCTYPE svg PUBLIC "-//W3C//DTD SVG 1.1//EN" "http://www.w3.org/Graphics/SVG/1.1/DTD/svg11.dtd"><svg width="100%" height="100%" viewBox="0 0 200 200" version="1.1" xmlns="http://www.w3.org/2000/svg" xmlns:xlink="http://www.w3.org/1999/xlink" xml:space="preserve" xmlns:serif="http://www.serif.com/" style="fill-rule:evenodd;clip-rule:evenodd;stroke-linejoin:round;stroke-miterlimit:2;"><path d="M44.96,153.728c-0.201,1.314 -0.069,7.422 -0.026,8.461c0.05,1.177 0.93,2.407 2.603,3.373l45.489,26.263c3.149,1.818 7.919,2.016 10.647,0.441l49.597,-28.635c1.161,-0.67 1.766,-1.555 1.834,-2.49c0.093,-1.26 0.013,-8.138 0.003,-8.314c-0.07,-1.163 -0.95,-2.374 -2.601,-3.328l-45.489,-26.262c-3.149,-1.818 -7.919,-2.016 -10.647,-0.442l-49.597,28.635c-1.081,0.625 -1.68,1.434 -1.813,2.298Z" style="fill:#001a35;"/><path d="M107.017,123.237c-3.149,-1.818 -7.919,-2.016 -10.647,-0.442l-49.597,28.635c-2.727,1.575 -2.385,4.329 0.764,6.147l45.489,26.263c3.149,1.818 7.919,2.016 10.647,0.441l49.597,-28.635c2.727,-1.574 2.385,-4.329 -0.764,-6.147l-45.489,-26.262Z" style="fill:#fff;fill-opacity:0.19;"/><path d="M93.953,147.098c9.777,-5.645 25.653,-5.645 35.431,0c9.777,5.645 9.777,14.811 -0,20.456c-9.778,5.645 -25.654,5.645 -35.431,0c-9.778,-5.645 -9.778,-14.811 -0,-20.456Z" style="fill-opacity:0.23;"/><path d="M65.716,131.401l-0,9.063l9.847,5.686l11.252,-6.496l-0,-9.064l-9.848,-5.685l-11.251,6.496Z" style="fill:#25bcb2;"/><path d="M75.563,137.086l11.252,-6.496l-9.848,-5.685l-11.251,6.496l-0,9.063l9.847,5.686l-0,-9.064Z" style="fill:#fff;fill-opacity:0.25;"/><path d="M76.967,124.905l-11.251,6.496l9.847,5.685l11.252,-6.496l-9.848,-5.685Z" style="fill:#fff;fill-opacity:0.25;"/><path d="M69.879,12.855l0,116.255l3.559,2.055l3.559,-2.055l-0,-116.255l-3.559,-2.054l-3.559,2.054Z" style="fill:#001a35;"/><path d="M73.438,14.91l-3.559,-2.055l0,116.255l3.559,2.055l0,-116.255Z" style="fill:#fff;fill-opacity:0.25;"/><path d="M73.438,10.801l-3.559,2.054l3.559,2.055l3.559,-2.055l-3.559,-2.054Z" style="fill:#fff;fill-opacity:0.25;"/><path d="M73.438,10.801l-3.559,2.054l3.559,2.055l3.559,-2.055l-3.559,-2.054Z" style="fill:#fff;fill-opacity:0.25;"/><path d="M65.64,41.457l-0,9.064l9.847,5.685l11.252,-6.496l0,-9.064l-9.847,-5.685l-11.252,6.496Z" style="fill:#001a35;"/><path d="M75.487,47.143l11.252,-6.497l-9.847,-5.685l-11.252,6.496l-0,9.064l9.847,5.685l0,-9.063Z" style="fill:#fff;fill-opacity:0.25;"/><path d="M76.892,34.961l-11.252,6.496l9.847,5.686l11.252,-6.497l-9.847,-5.685Z" style="fill:#fff;fill-opacity:0.25;"/><path d="M69.879,12.855l0,26.261l3.559,2.055l3.559,-2.055l-0,-26.261l-3.559,-2.054l-3.559,2.054Z" style="fill:#001a35;"/><path d="M73.438,14.91l-3.559,-2.055l0,26.261l3.559,2.055l0,-26.261Z" style="fill:#fff;fill-opacity:0.25;"/><path d="M73.438,10.801l-3.559,2.054l3.559,2.055l3.559,-2.055l-3.559,-2.054Z" style="fill:#fff;fill-opacity:0.25;"/><path d="M73.438,10.801l-3.559,2.054l3.559,2.055l3.559,-2.055l-3.559,-2.054Z" style="fill:#fff;fill-opacity:0.25;"/><path d="M79.835,49.44l-0,4.17l17.288,9.981l3.296,-1.903l0,-4.169l-17.288,-9.982l-3.296,1.903Z" style="fill:#001a35;"/><path d="M97.123,59.422l3.296,-1.903l-17.288,-9.982l-3.296,1.903l-0,4.17l17.288,9.981l-0,-4.169Z" style="fill:#fff;fill-opacity:0.25;"/><path d="M83.131,47.537l-3.296,1.903l17.288,9.982l3.296,-1.903l-17.288,-9.982Z" style="fill:#fff;fill-opacity:0.25;"/><path d="M101.108,54.637c5.828,-3.365 15.292,-3.365 21.121,0c5.828,3.365 5.828,8.829 -0,12.194c-5.829,3.365 -15.293,3.365 -21.121,0c-5.828,-3.365 -5.828,-8.829 0,-12.194Z" style="fill:#25bcb2;fill-opacity:0.23;"/><path d="M100.425,73.527l0,-28.322c-1.831,-1.416 -2.755,-3.102 -2.771,-4.79c-0.006,-0.694 -0.103,-4.025 0.091,-5.007c0.347,-1.755 1.685,-3.456 4.013,-4.8c5.473,-3.16 14.359,-3.16 19.831,-0c2.592,1.496 3.957,3.435 4.093,5.397c0.055,0.787 0.019,4.275 0.008,4.558c-0.067,1.642 -0.994,3.274 -2.779,4.651l0,28.418l21.683,36.812c5.667,7.568 3.148,16.697 -7.559,22.878c-14,8.084 -36.733,8.084 -50.734,0c-10.491,-6.056 -13.121,-14.944 -7.89,-22.42l22.014,-37.375Z" style="fill:#cbcbcb;fill-opacity:0.36;"/><path d="M101.753,30.608c5.472,-3.16 14.358,-3.16 19.831,-0c5.472,3.159 5.472,8.29 -0,11.449c-5.473,3.16 -14.359,3.16 -19.831,0c-5.473,-3.159 -5.473,-8.29 -0,-11.449Z" style="fill:#fff;fill-opacity:0.36;"/><path d="M105.173,32.599c3.585,-2.07 9.406,-2.07 12.991,0c3.585,2.07 3.585,5.431 -0,7.501c-3.585,2.069 -9.406,2.069 -12.991,-0c-3.585,-2.07 -3.585,-5.431 -0,-7.501Z" style="fill:#cbcbcb;fill-opacity:0.36;"/><path d="M90.013,104.206c11.952,-6.9 31.359,-6.9 43.311,0c11.952,6.901 11.952,18.105 -0,25.006c-11.952,6.9 -31.359,6.9 -43.311,-0c-11.952,-6.901 -11.952,-18.105 0,-25.006Z" style="fill:#cbcbcb;fill-opacity:0.36;"/><path d="M102.722,73.537l0,-26.935c5.172,2.481 12.717,2.483 17.892,0.006l0,26.929l20.939,36.538c5.144,6.869 2.857,15.156 -6.86,20.766c-12.708,7.337 -33.342,7.337 -46.049,0c-9.522,-5.497 -11.909,-13.564 -7.161,-20.35l21.239,-36.954Z" style="fill:#fff;fill-opacity:0.36;"/><path d="M90.406,94.361c1.049,-1.894 2.873,-3.674 5.473,-5.176c8.714,-5.031 22.864,-5.031 31.578,0c2.743,1.584 4.623,3.479 5.639,5.488l0.004,0.001l8.836,15.42c5.21,6.957 2.894,15.349 -6.948,21.032c-12.871,7.43 -33.769,7.43 -46.639,-0c-9.644,-5.568 -12.062,-13.739 -7.253,-20.612c-0,0 4.29,-7.464 9.039,-15.727c0.084,-0.146 0.175,-0.288 0.271,-0.426Z" style="fill:#25bcb2;fill-opacity:0.8;"/><path d="M95.879,89.185c8.714,-5.031 22.864,-5.031 31.578,0c8.714,5.031 8.714,13.201 0,18.232c-8.714,5.031 -22.864,5.031 -31.578,-0c-8.714,-5.031 -8.714,-13.201 0,-18.232Z" style="fill:#fff;fill-opacity:0.36;"/><path d="M89.736,104.149c12.105,-6.988 31.76,-6.988 43.865,0c12.105,6.989 12.105,18.337 0,25.326c-12.105,6.989 -31.76,6.989 -43.865,0c-12.106,-6.989 -12.106,-18.337 -0,-25.326Z" style="fill:#fff;fill-opacity:0.18;"/><path d="M100.571,54.964c0.021,2.176 0.025,4.634 -0.048,5.432c-0.159,1.761 0.925,3.552 3.252,4.895c4.357,2.515 11.43,2.515 15.786,0c2.059,-1.188 3.145,-2.728 3.258,-4.286c0.058,-0.801 0.062,-3.402 0.049,-5.975c2.498,1.632 3.742,3.682 3.732,5.729c-0.004,0.759 0.004,3.785 -0,4.561c-0.011,2.199 -1.468,4.396 -4.371,6.072c-5.829,3.365 -15.293,3.365 -21.121,0c-2.903,-1.676 -4.36,-3.873 -4.371,-6.072c-0.004,-0.776 -0.069,-4.158 0.026,-5.094c0.192,-1.895 1.461,-3.76 3.808,-5.262Z" style="fill:#25bcb2;"/><path d="M100.571,54.964c0,-0 -0.006,4.977 -0.048,5.432c-0.159,1.761 0.925,3.552 3.252,4.895c4.357,2.515 11.43,2.515 15.786,0c2.059,-1.188 3.145,-2.728 3.258,-4.286c0.057,-0.788 0.05,-5.974 0.05,-5.974c2.498,1.632 3.741,3.681 3.731,5.728c-0.001,0.191 -0.001,0.523 -0.001,0.928c-0.045,2.172 -1.501,4.337 -4.37,5.994c-5.829,3.365 -15.293,3.365 -21.121,-0c-2.903,-1.676 -4.36,-3.873 -4.371,-6.072c-0.001,-0.161 -0.004,-0.432 -0.009,-0.771c0.008,-0.252 0.019,-0.463 0.035,-0.612c0.192,-1.895 1.461,-3.76 3.808,-5.262Z" style="fill:#fff;fill-opacity:0.16;"/><path d="M68.273,9.798l0,4.362l4.821,2.736l5.509,-3.126l-0,-4.363l-4.821,-2.736l-5.509,3.127Z" style="fill:#25bcb2;"/><path d="M73.094,12.534l5.509,-3.127l-4.821,-2.736l-5.509,3.127l0,4.362l4.821,2.736l0,-4.362Z" style="fill:#fff;fill-opacity:0.25;"/><path d="M73.782,6.671l-5.509,3.127l4.821,2.736l5.509,-3.127l-4.821,-2.736Z" style="fill:#fff;fill-opacity:0.25;"/></svg>