<?xml version="1.0" encoding="UTF-8" standalone="no"?><!DOCTYPE svg PUBLIC "-//W3C//DTD SVG 1.1//EN" "http://www.w3.org/Graphics/SVG/1.1/DTD/svg11.dtd"><svg width="100%" height="100%" viewBox="0 0 200 200" version="1.1" xmlns="http://www.w3.org/2000/svg" xmlns:xlink="http://www.w3.org/1999/xlink" xml:space="preserve" xmlns:serif="http://www.serif.com/" style="fill-rule:evenodd;clip-rule:evenodd;stroke-linejoin:round;stroke-miterlimit:2;"><path d="M43.732,154.927c-0.207,1.344 -0.072,7.589 -0.027,8.65c0.05,1.204 0.951,2.461 2.661,3.449l46.504,26.849c3.219,1.858 8.097,2.061 10.885,0.451l50.704,-29.274c1.188,-0.686 1.806,-1.59 1.876,-2.546c0.094,-1.289 0.013,-8.32 0.002,-8.499c-0.071,-1.19 -0.971,-2.428 -2.659,-3.403l-46.504,-26.849c-3.219,-1.858 -8.097,-2.06 -10.885,-0.451l-50.704,29.275c-1.106,0.638 -1.718,1.466 -1.853,2.348Z" style="fill:#001a35;"/><path d="M107.174,123.755c-3.219,-1.858 -8.097,-2.06 -10.885,-0.451l-50.704,29.275c-2.788,1.609 -2.438,4.425 0.781,6.284l46.504,26.849c3.219,1.859 8.097,2.061 10.885,0.451l50.704,-29.274c2.788,-1.61 2.438,-4.426 -0.781,-6.285l-46.504,-26.849Z" style="fill:#fff;fill-opacity:0.19;"/><path d="M102.622,153.233c5.137,-2.966 13.477,-2.966 18.614,-0c5.136,2.965 5.136,7.781 -0,10.746c-5.137,2.966 -13.477,2.966 -18.614,0c-5.137,-2.965 -5.137,-7.781 -0,-10.746Z" style="fill-opacity:0.23;"/><path d="M64.95,132.102l0,9.266l10.067,5.812l11.503,-6.641l0,-9.266l-10.067,-5.812l-11.503,6.641Z" style="fill:#25BCB4;"/><path d="M75.017,137.914l11.503,-6.641l-10.067,-5.812l-11.503,6.641l0,9.266l10.067,5.812l0,-9.266Z" style="fill:#fff;fill-opacity:0.25;"/><path d="M76.453,125.461l-11.503,6.641l10.067,5.812l11.503,-6.641l-10.067,-5.812Z" style="fill:#fff;fill-opacity:0.25;"/><path d="M69.207,10.91l0,118.85l3.638,2.1l3.638,-2.1l0,-118.85l-3.638,-2.101l-3.638,2.101Z" style="fill:#001a35;"/><path d="M72.845,13.01l-3.638,-2.1l0,118.85l3.638,2.1l0,-118.85Z" style="fill:#fff;fill-opacity:0.25;"/><path d="M72.845,8.809l-3.638,2.101l3.638,2.1l3.638,-2.1l-3.638,-2.101Z" style="fill:#fff;fill-opacity:0.25;"/><path d="M72.845,8.809l-3.638,2.101l3.638,2.1l3.638,-2.1l-3.638,-2.101Z" style="fill:#fff;fill-opacity:0.25;"/><path d="M64.873,40.15l-0,9.266l10.067,5.812l11.503,-6.641l0,-9.266l-10.067,-5.812l-11.503,6.641Z" style="fill:#001a35;"/><path d="M74.94,45.963l11.503,-6.642l-10.067,-5.812l-11.503,6.641l-0,9.266l10.067,5.812l0,-9.265Z" style="fill:#fff;fill-opacity:0.25;"/><path d="M76.376,33.509l-11.503,6.641l10.067,5.813l11.503,-6.642l-10.067,-5.812Z" style="fill:#fff;fill-opacity:0.25;"/><path d="M69.207,10.91l0,26.847l3.638,2.101l3.638,-2.101l0,-26.847l-3.638,-2.101l-3.638,2.101Z" style="fill:#001a35;"/><path d="M72.845,13.01l-3.638,-2.1l0,26.847l3.638,2.101l0,-26.848Z" style="fill:#fff;fill-opacity:0.25;"/><path d="M72.845,8.809l-3.638,2.101l3.638,2.1l3.638,-2.1l-3.638,-2.101Z" style="fill:#fff;fill-opacity:0.25;"/><path d="M72.845,8.809l-3.638,2.101l3.638,2.1l3.638,-2.1l-3.638,-2.101Z" style="fill:#fff;fill-opacity:0.25;"/><path d="M79.385,48.312l-0,4.263l17.674,10.204l3.369,-1.946l0,-4.263l-17.673,-10.204l-3.37,1.946Z" style="fill:#001a35;"/><path d="M97.059,58.516l3.369,-1.946l-17.673,-10.204l-3.37,1.946l-0,4.263l17.674,10.204l-0,-4.263Z" style="fill:#fff;fill-opacity:0.25;"/><path d="M82.755,46.366l-3.37,1.946l17.674,10.204l3.369,-1.946l-17.673,-10.204Z" style="fill:#fff;fill-opacity:0.25;"/><path d="M101.133,53.625c5.958,-3.441 15.633,-3.441 21.592,-0c5.958,3.44 5.958,9.026 -0,12.466c-5.959,3.44 -15.634,3.44 -21.592,-0c-5.959,-3.44 -5.959,-9.026 -0,-12.466Z" style="fill:#25bcb4;fill-opacity:0.23;"/><path d="M100.597,51.826c-1.845,-1.428 -2.776,-3.127 -2.793,-4.829c-0.006,-0.699 -0.104,-4.056 0.092,-5.046c0.349,-1.769 1.698,-3.483 4.045,-4.838c5.516,-3.185 14.472,-3.185 19.987,-0c2.613,1.508 3.988,3.462 4.126,5.439c0.055,0.794 0.019,4.309 0.007,4.594c-0.068,1.655 -1.001,3.3 -2.8,4.688l-0,66.117c-0,6.246 -5.071,11.317 -11.317,11.317c-6.263,0 -11.347,-5.084 -11.347,-11.346l-0,-66.096Z" style="fill:#e4e4e4;fill-opacity:0.51;"/><path d="M101.935,37.113c5.516,-3.185 14.472,-3.185 19.988,-0c5.515,3.184 5.515,8.355 -0,11.539c-5.516,3.185 -14.472,3.185 -19.988,0c-5.516,-3.184 -5.516,-8.355 0,-11.539Z" style="fill:#fff;fill-opacity:0.51;"/><path d="M104.896,38.822c3.882,-2.241 10.184,-2.241 14.066,0c3.881,2.241 3.881,5.88 -0,8.121c-3.882,2.241 -10.184,2.241 -14.066,-0c-3.881,-2.241 -3.881,-5.88 0,-8.121Z" style="fill:#e4e4e4;fill-opacity:0.51;"/><path d="M102.912,53.233c5.213,2.501 12.818,2.503 18.034,0.006l-0,63.565c-0,4.97 -4.035,9.005 -9.005,9.005c-4.983,0 -9.029,-4.045 -9.029,-9.028l0,-63.548Z" style="fill:#fff;fill-opacity:0.51;"/><path d="M102.995,84.904c-0.25,-1.511 0.627,-3.074 2.631,-4.23c3.563,-2.058 9.348,-2.058 12.911,-0c2.004,1.156 2.881,2.719 2.631,4.23l0,31.908c0,5.008 -4.066,9.075 -9.075,9.075c-5.021,-0 -9.098,-4.077 -9.098,-9.099l0,-31.884Z" style="fill:#25BCB4;fill-opacity:0.73;"/><path d="M105.584,80.65c3.563,-2.058 9.349,-2.058 12.912,-0c3.563,2.057 3.563,5.397 -0,7.454c-3.563,2.057 -9.349,2.057 -12.912,0c-3.563,-2.057 -3.563,-5.397 0,-7.454Z" style="fill:#fff;fill-opacity:0.29;"/><path d="M100.584,53.958c0.021,2.225 0.025,4.738 -0.049,5.554c-0.162,1.8 0.946,3.631 3.325,5.004c4.453,2.572 11.685,2.572 16.138,0c2.105,-1.215 3.215,-2.789 3.33,-4.382c0.059,-0.818 0.063,-3.477 0.05,-6.108c2.554,1.668 3.826,3.764 3.816,5.857c-0.004,0.776 0.004,3.87 -0,4.663c-0.011,2.248 -1.501,4.494 -4.469,6.208c-5.959,3.44 -15.634,3.44 -21.592,-0c-2.968,-1.714 -4.458,-3.96 -4.469,-6.208c-0.004,-0.793 -0.071,-4.251 0.026,-5.208c0.197,-1.937 1.495,-3.844 3.894,-5.38Z" style="fill:#25BCB4;"/><path d="M100.584,53.958c-0,0 -0.007,5.089 -0.049,5.554c-0.162,1.8 0.946,3.631 3.325,5.004c4.453,2.572 11.685,2.572 16.138,0c2.105,-1.215 3.215,-2.789 3.33,-4.382c0.058,-0.805 0.052,-6.107 0.052,-6.107c2.553,1.668 3.824,3.763 3.814,5.856c-0.001,0.195 -0.001,0.535 -0.001,0.948c-0.046,2.222 -1.535,4.435 -4.468,6.128c-5.959,3.44 -15.634,3.44 -21.592,0c-2.968,-1.713 -4.458,-3.96 -4.469,-6.207c-0.001,-0.164 -0.004,-0.442 -0.009,-0.788c0.008,-0.258 0.02,-0.474 0.035,-0.626c0.197,-1.937 1.495,-3.844 3.894,-5.38Z" style="fill:#fff;fill-opacity:0.16;"/><path d="M67.565,7.784l0,4.459l4.929,2.798l5.631,-3.196l0,-4.46l-4.928,-2.798l-5.632,3.197Z" style="fill:#25BCB4;"/><path d="M72.494,10.581l5.631,-3.196l-4.928,-2.798l-5.632,3.197l0,4.459l4.929,2.798l-0,-4.46Z" style="fill:#fff;fill-opacity:0.25;"/><path d="M73.197,4.587l-5.632,3.197l4.929,2.797l5.631,-3.196l-4.928,-2.798Z" style="fill:#fff;fill-opacity:0.25;"/></svg>
