<?xml version="1.0" encoding="UTF-8" standalone="no"?><!DOCTYPE svg PUBLIC "-//W3C//DTD SVG 1.1//EN" "http://www.w3.org/Graphics/SVG/1.1/DTD/svg11.dtd"><svg width="100%" height="100%" viewBox="0 0 200 200" version="1.1" xmlns="http://www.w3.org/2000/svg" xmlns:xlink="http://www.w3.org/1999/xlink" xml:space="preserve" xmlns:serif="http://www.serif.com/" style="fill-rule:evenodd;clip-rule:evenodd;stroke-linejoin:round;stroke-miterlimit:2;"><path d="M114.998,74.354l-2.181,-12.019l-43.897,-25.344l-4.298,2.478l1.16,6.47l49.216,28.415Z" style="fill:#001b35;"/><path d="M120.461,104.454l-2.18,-12.019l-43.898,-25.344l-4.297,2.479l1.159,6.469l49.216,28.415Z" style="fill:#001b35;"/><path d="M125.918,134.549l-2.18,-12.02l-43.897,-25.344l-4.298,2.479l1.159,6.47l49.216,28.415Z" style="fill:#001b35;"/><path d="M54.921,16.002l24.498,135.048l6.083,3.512l4.296,-2.48l-24.498,-135.049l-6.083,-3.512l-4.296,2.481Z" style="fill:#001b35;"/><path d="M131.382,164.672l-2.181,-12.019l-43.897,-25.344l-4.298,2.479l1.16,6.47l49.216,28.414Z" style="fill:#001b35;"/><path d="M110.202,47.918l24.498,135.049l6.083,3.512l4.296,-2.481l-24.498,-135.048l-6.083,-3.512l-4.296,2.48Z" style="fill:#001b35;"/><path d="M131.382,164.672l-1.176,-6.478l-49.2,-28.406l1.175,6.479l49.201,28.405Zm-5.462,-30.106l-1.175,-6.478l-49.2,-28.406l1.175,6.478l49.2,28.406Zm-5.461,-30.106l-1.175,-6.478l-49.201,-28.406l1.176,6.478l49.2,28.406Zm-5.461,-30.106l-1.176,-6.478l-49.2,-28.406l1.175,6.478l49.201,28.406Z" style="fill:#f4f4f4;fill-opacity:0.14;"/><path d="M59.221,13.524l-4.3,2.482l6.075,3.507l4.3,-2.482l-6.075,-3.507Z" style="fill:#f4f4f4;fill-opacity:0.14;"/><path d="M114.502,45.436l-4.3,2.482l6.075,3.508l4.3,-2.483l-6.075,-3.507Z" style="fill:#f4f4f4;fill-opacity:0.14;"/><path d="M68.922,36.987l-4.3,2.482l49.161,28.383l-0.965,-5.522l-43.896,-25.343Z" style="fill:#f4f4f4;fill-opacity:0.14;"/><path d="M74.385,67.092l-4.299,2.482l49.16,28.383l-0.965,-5.522l-43.896,-25.343Z" style="fill:#f4f4f4;fill-opacity:0.14;"/><path d="M79.844,97.187l-4.3,2.482l49.16,28.383l-0.965,-5.522l-43.895,-25.343Z" style="fill:#f4f4f4;fill-opacity:0.14;"/><path d="M85.291,127.299l-4.3,2.483l49.16,28.383l-0.965,-5.522l-43.895,-25.344Z" style="fill:#f4f4f4;fill-opacity:0.14;"/><path d="M59.221,13.524l-4.3,2.482l6.075,3.507l4.3,-2.482l-6.075,-3.507Z" style="fill:#f4f4f4;fill-opacity:0.14;"/><path d="M114.502,45.436l-4.3,2.482l6.075,3.508l4.3,-2.483l-6.075,-3.507Z" style="fill:#f4f4f4;fill-opacity:0.14;"/><path d="M68.922,36.987l-4.3,2.482l49.161,28.383l-0.965,-5.522l-43.896,-25.343Z" style="fill:#f4f4f4;fill-opacity:0.14;"/><path d="M74.385,67.092l-4.299,2.482l49.16,28.383l-0.965,-5.522l-43.896,-25.343Z" style="fill:#f4f4f4;fill-opacity:0.14;"/><path d="M79.844,97.187l-4.3,2.482l49.16,28.383l-0.965,-5.522l-43.895,-25.343Z" style="fill:#f4f4f4;fill-opacity:0.14;"/><path d="M85.291,127.299l-4.3,2.483l49.16,28.383l-0.965,-5.522l-43.895,-25.344Z" style="fill:#f4f4f4;fill-opacity:0.14;"/><path d="M60.993,19.512l-6.072,-3.506l24.491,135.04l6.072,3.506l-24.491,-135.04Z" style="fill:#f4f4f4;fill-opacity:0.14;"/><path d="M116.274,51.428l-6.072,-3.505l24.491,135.039l6.072,3.506l-24.491,-135.04Z" style="fill:#f4f4f4;fill-opacity:0.14;"/></svg>
