<?xml version="1.0" encoding="UTF-8" standalone="no"?>
<!DOCTYPE svg PUBLIC "-//W3C//DTD SVG 1.1//EN" "http://www.w3.org/Graphics/SVG/1.1/DTD/svg11.dtd">
<svg width="100%" height="100%" viewBox="0 0 200 200" version="1.1" xmlns="http://www.w3.org/2000/svg" xmlns:xlink="http://www.w3.org/1999/xlink" xml:space="preserve" xmlns:serif="http://www.serif.com/" style="fill-rule:evenodd;clip-rule:evenodd;stroke-linejoin:round;stroke-miterlimit:2;">
    <g transform="matrix(1.64029,0,0,1.64029,-2457.02,-728.115)">
        <path d="M1555.97,534.138L1557.97,545.444L1574.38,535.968L1572.36,524.7L1572.34,524.687L1555.97,534.138ZM1557.97,545.444L1574.38,535.968L1557.97,545.444Z" style="fill:rgb(151,191,202);"/>
    </g>
    <g transform="matrix(1.64029,0,0,1.64029,-2462.51,-759.176)">
        <path d="M1555.97,534.138L1557.97,545.444L1574.38,535.968L1572.36,524.7L1572.34,524.687L1555.97,534.138ZM1557.97,545.444L1574.38,535.968L1557.97,545.444Z" style="fill:rgb(151,191,202);"/>
    </g>
    <g transform="matrix(1.64029,0,0,1.64029,-2468.33,-791.849)">
        <path d="M1555.97,534.138L1557.97,545.444L1574.38,535.968L1572.36,524.7L1572.34,524.687L1555.97,534.138ZM1557.97,545.444L1574.38,535.968L1557.97,545.444Z" style="fill:rgb(151,191,202);"/>
    </g>
    <g transform="matrix(1.64029,0,0,1.64029,-2432.78,-846.872)">
        <path d="M1569.96,613.179L1554.5,525.871L1549.18,522.77L1544.86,525.304L1560.32,612.612L1565.63,615.68L1569.96,613.179Z" style="fill:rgb(151,191,202);"/>
    </g>
    <g transform="matrix(1.64029,0,0,1.64029,-2473.83,-823.035)">
        <path d="M1555.97,534.138L1557.97,545.444L1574.38,535.968L1572.36,524.7L1572.34,524.687L1555.97,534.138ZM1557.97,545.444L1574.38,535.968L1557.97,545.444Z" style="fill:rgb(151,191,202);"/>
    </g>
    <g transform="matrix(1.64029,0,0,1.64029,-2473.83,-823.174)">
        <path d="M1569.96,613.179L1554.5,525.871L1549.18,522.77L1544.86,525.304L1560.32,612.612L1565.63,615.68L1569.96,613.179Z" style="fill:rgb(151,191,202);"/>
    </g>
    <g id="shadows" transform="matrix(1.64029,0,0,1.64029,-3368.83,-253.734)">
        <g transform="matrix(1.07409,0.67494,0.185285,1.04632,-58.8496,-2318.7)">
            <path d="M1793.44,1232.38L1788.44,1232.67L1788.44,1316.11L1793.44,1315.82L1793.44,1232.38Z" style="fill:rgb(128,128,128);fill-opacity:0.3;"/>
        </g>
        <g transform="matrix(1,0,0,1,550.806,-346.967)">
            <path d="M1551.8,539.625L1552.8,545.278L1573.57,533.288L1572.57,527.633L1551.8,539.625Z" style="fill:rgb(128,128,128);fill-opacity:0.3;"/>
        </g>
        <g transform="matrix(1,0,0,1,554.199,-327.864)">
            <path d="M1551.8,539.625L1552.8,545.278L1573.57,533.288L1572.57,527.633L1551.8,539.625Z" style="fill:rgb(128,128,128);fill-opacity:0.3;"/>
        </g>
        <g transform="matrix(1,0,0,1,557.663,-308.02)">
            <path d="M1551.8,539.625L1552.8,545.278L1573.57,533.288L1572.57,527.633L1551.8,539.625Z" style="fill:rgb(128,128,128);fill-opacity:0.3;"/>
        </g>
        <g transform="matrix(1,0,0,1,561.047,-289.129)">
            <path d="M1551.8,539.625L1552.8,545.278L1573.57,533.288L1572.57,527.633L1551.8,539.625Z" style="fill:rgb(128,128,128);fill-opacity:0.3;"/>
        </g>
        <g transform="matrix(1,0,0,1,550.82,-346.971)">
            <path d="M1545,528.206L1560.46,615.513L1564.79,613.013L1549.33,525.705L1545,528.206Z" style="fill:rgb(128,128,128);fill-opacity:0.3;"/>
        </g>
        <g transform="matrix(1,0,0,1,575.874,-361.4)">
            <path d="M1545,528.206L1560.46,615.513L1564.79,613.013L1549.33,525.705L1545,528.206Z" style="fill:rgb(128,128,128);fill-opacity:0.3;"/>
        </g>
        <g transform="matrix(1,0,0,1,550.806,-346.967)">
            <path d="M1551.8,539.625L1552.8,545.278L1573.57,533.288L1572.57,527.633L1551.8,539.625Z" style="fill:rgb(128,128,128);fill-opacity:0.3;"/>
        </g>
        <g transform="matrix(1,0,0,1,554.199,-327.864)">
            <path d="M1551.8,539.625L1552.8,545.278L1573.57,533.288L1572.57,527.633L1551.8,539.625Z" style="fill:rgb(128,128,128);fill-opacity:0.3;"/>
        </g>
        <g transform="matrix(1,0,0,1,557.663,-308.02)">
            <path d="M1551.8,539.625L1552.8,545.278L1573.57,533.288L1572.57,527.633L1551.8,539.625Z" style="fill:rgb(128,128,128);fill-opacity:0.3;"/>
        </g>
        <g transform="matrix(1,0,0,1,561.047,-289.129)">
            <path d="M1551.8,539.625L1552.8,545.278L1573.57,533.288L1572.57,527.633L1551.8,539.625Z" style="fill:rgb(128,128,128);fill-opacity:0.3;"/>
        </g>
        <g transform="matrix(1,0,0,1,550.82,-346.971)">
            <path d="M1545,528.206L1560.46,615.513L1564.79,613.013L1549.33,525.705L1545,528.206Z" style="fill:rgb(128,128,128);fill-opacity:0.3;"/>
        </g>
        <g transform="matrix(1,0,0,1,575.874,-361.4)">
            <path d="M1545,528.206L1560.46,615.513L1564.79,613.013L1549.33,525.705L1545,528.206Z" style="fill:rgb(128,128,128);fill-opacity:0.3;"/>
        </g>
        <g transform="matrix(1,0,0,1,550.803,-346.971)">
            <path d="M1582.81,585.547L1582.82,585.542L1583.82,591.195L1579.5,593.691L1580.25,597.951L1585.57,601.018L1573.57,533.286L1569.25,535.785L1570.65,543.725L1575.93,546.773L1575.94,546.768L1576.94,552.421L1572.63,554.909L1574.16,563.563L1579.43,566.601L1579.44,566.596L1580.44,572.249L1576.14,574.729L1577.52,582.489L1582.81,585.547ZM1572.57,527.636L1572.57,527.633L1570.11,513.711L1564.79,510.643L1567.26,524.572L1572.57,527.636Z" style="fill:rgb(128,128,128);fill-opacity:0.3;"/>
        </g>
    </g>
</svg>
