<?xml version="1.0" encoding="UTF-8" standalone="no"?><!DOCTYPE svg PUBLIC "-//W3C//DTD SVG 1.1//EN" "http://www.w3.org/Graphics/SVG/1.1/DTD/svg11.dtd"><svg width="100%" height="100%" viewBox="0 0 200 200" version="1.1" xmlns="http://www.w3.org/2000/svg" xmlns:xlink="http://www.w3.org/1999/xlink" xml:space="preserve" xmlns:serif="http://www.serif.com/" style="fill-rule:evenodd;clip-rule:evenodd;stroke-linejoin:round;stroke-miterlimit:2;"><path d="M109.147,20.2l-2.473,-1.428l-12.501,7.218l-48.543,127.427l2.473,1.428l12.501,-7.217l48.543,-127.428Z" style="fill:#001b35;"/><path d="M54.768,137.151l-0.005,3.119l42.975,24.853l12.75,-7.35l0.004,-3.119l-42.974,-24.852l-12.75,7.349Z" style="fill:#001b35;"/><path d="M67.493,129.809l-12.74,7.355l43.01,24.832l12.739,-7.355l-43.009,-24.832Z" style="fill:#001b35;"/><path d="M67.493,129.809l-12.74,7.355l43.01,24.832l12.739,-7.355l-43.009,-24.832Z" style="fill:#001b35;"/><path d="M97.763,161.996l-0,3.119l12.739,-7.355l0,-3.119l-12.739,7.355Z" style="fill:#001b35;fill-opacity:0.35;"/><path d="M78.307,75.423l-0.004,3.119l42.974,24.853l12.75,-7.35l0.005,-3.119l-42.975,-24.852l-12.75,7.349Z" style="fill:#001b35;"/><path d="M91.032,68.081l-12.739,7.355l43.009,24.832l12.74,-7.355l-43.01,-24.832Z" style="fill:#001b35;"/><path d="M91.032,68.081l-12.739,7.355l43.009,24.832l12.74,-7.355l-43.01,-24.832Z" style="fill:#001b35;"/><path d="M121.302,100.268l0,3.119l12.74,-7.355l-0,-3.119l-12.74,7.355Z" style="fill:#001b35;fill-opacity:0.35;"/><path d="M66.491,106.828l-0.005,3.119l42.974,24.852l12.75,-7.349l0.005,-3.119l-42.974,-24.852l-12.75,7.349Z" style="fill:#001b35;"/><path d="M79.215,99.486l-12.739,7.355l43.01,24.832l12.739,-7.355l-43.01,-24.832Z" style="fill:#001b35;"/><path d="M79.215,99.486l-12.739,7.355l43.01,24.832l12.739,-7.355l-43.01,-24.832Z" style="fill:#001b35;"/><path d="M109.486,131.673l-0,3.119l12.739,-7.355l0,-3.119l-12.739,7.355Z" style="fill:#001b35;fill-opacity:0.35;"/><path d="M90.504,43.76l-0.005,3.12l42.975,24.852l12.75,-7.349l0.004,-3.12l-42.974,-24.852l-12.75,7.349Z" style="fill:#001b35;"/><path d="M103.229,36.418l-12.74,7.356l43.01,24.831l12.739,-7.355l-43.009,-24.832Z" style="fill:#001b35;"/><path d="M103.229,36.418l-12.74,7.356l43.01,24.831l12.739,-7.355l-43.009,-24.832Z" style="fill:#001b35;"/><path d="M133.499,68.605l-0,3.12l12.739,-7.356l0,-3.119l-12.739,7.355Z" style="fill:#001b35;fill-opacity:0.35;"/><path d="M45.63,153.417l2.473,1.428l48.543,-127.427l12.501,-7.218l-2.473,-1.428l-12.501,7.218l-48.543,127.427Z" style="fill:#eee;fill-opacity:0.08;"/><path d="M45.63,153.417l2.473,1.428l48.543,-127.427l-2.473,-1.428l-48.543,127.427Z" style="fill:#eee;fill-opacity:0.08;"/><path d="M97.763,161.996l-43.01,-24.832l0,3.12l43.01,24.831l12.739,-7.355l0,-3.119l-12.739,7.355Z" style="fill:#eee;fill-opacity:0.08;"/><path d="M67.493,129.809l-12.74,7.355l43.01,24.832l12.739,-7.355l-43.009,-24.832Z" style="fill:#eee;fill-opacity:0.08;"/><path d="M121.302,100.268l-43.009,-24.832l-0,3.12l43.009,24.831l12.74,-7.355l-0,-3.119l-12.74,7.355Z" style="fill:#eee;fill-opacity:0.08;"/><path d="M91.032,68.081l-12.739,7.355l43.009,24.832l12.74,-7.355l-43.01,-24.832Z" style="fill:#eee;fill-opacity:0.08;"/><path d="M109.486,131.673l-43.01,-24.832l-0,3.119l43.01,24.832l12.739,-7.355l0,-3.119l-12.739,7.355Z" style="fill:#eee;fill-opacity:0.08;"/><path d="M79.215,99.486l-12.739,7.355l43.01,24.832l12.739,-7.355l-43.01,-24.832Z" style="fill:#eee;fill-opacity:0.08;"/><path d="M133.499,68.605l-43.01,-24.831l0,3.119l43.01,24.832l12.739,-7.356l0,-3.119l-12.739,7.355Z" style="fill:#eee;fill-opacity:0.08;"/><path d="M97.763,161.996l-43.01,-24.832l0,3.12l43.01,24.831l12.739,-7.355l0,-3.119l-12.739,7.355Z" style="fill:#eee;fill-opacity:0.08;"/><path d="M121.302,100.268l-43.009,-24.832l-0,3.12l43.009,24.831l12.74,-7.355l-0,-3.119l-12.74,7.355Z" style="fill:#eee;fill-opacity:0.08;"/><path d="M109.486,131.673l-43.01,-24.832l-0,3.119l43.01,24.832l12.739,-7.355l0,-3.119l-12.739,7.355Z" style="fill:#eee;fill-opacity:0.08;"/><path d="M133.499,68.605l-43.01,-24.831l0,3.119l43.01,24.832l12.739,-7.356l0,-3.119l-12.739,7.355Z" style="fill:#eee;fill-opacity:0.08;"/><path d="M103.229,36.418l-12.74,7.356l43.01,24.831l12.739,-7.355l-43.009,-24.832Z" style="fill:#eee;fill-opacity:0.08;"/><path d="M154.37,46.856l-2.473,-1.428l-12.028,6.944l-48.543,127.428l2.473,1.428l12.028,-6.945l48.543,-127.427Z" style="fill:#001b35;"/><path d="M91.326,179.8l2.473,1.428l48.542,-127.428l12.029,-6.944l-2.473,-1.428l-12.028,6.944l-48.543,127.428Z" style="fill:#eee;fill-opacity:0.08;"/><path d="M91.326,179.8l2.473,1.428l48.542,-127.428l-2.472,-1.428l-48.543,127.428Z" style="fill:#eee;fill-opacity:0.08;"/></svg>