<?xml version="1.0" encoding="UTF-8" standalone="no"?><!DOCTYPE svg PUBLIC "-//W3C//DTD SVG 1.1//EN" "http://www.w3.org/Graphics/SVG/1.1/DTD/svg11.dtd"><svg width="100%" height="100%" viewBox="0 0 200 200" version="1.1" xmlns="http://www.w3.org/2000/svg" xmlns:xlink="http://www.w3.org/1999/xlink" xml:space="preserve" xmlns:serif="http://www.serif.com/" style="fill-rule:evenodd;clip-rule:evenodd;stroke-linejoin:round;stroke-miterlimit:2;"><path d="M80.139,142.063l-3.056,1.767l-0,4.409l33.484,19.332l3.467,-2.391l0,-3.548l-33.895,-19.569Z" style="fill:#001b35;"/><path d="M73.228,24.159c0.141,-4.23 2.797,-8.148 5.982,-9.987l11.861,-6.848c1.212,-0.7 2.34,-0.865 3.28,-0.574c0.459,0.143 4.623,2.186 4.623,2.186c0,0 -0.048,-0.022 -0.135,-0.054c1.193,0.564 1.943,1.938 1.943,3.946l0,5.741l-3.707,2.141l0,0.013l-0.012,-0.007l0.006,-0.003l-0.011,0.006l0,-0.005l-3.764,-2.174l0,-4.126l-9.709,5.606c-1.401,0.809 -3.133,3.978 -3.446,5.894l0,144.137l-3.057,1.765l-3.877,-2.239l-0,-145.404l0.023,-0.014Z" style="fill:#001b35;"/><path d="M80.139,46.834l-3.056,1.767l-0,4.409l33.484,19.332l3.467,-2.39l0,-3.549l-33.895,-19.569Z" style="fill:#001b35;"/><path d="M80.139,80.064l-3.056,1.767l-0,4.409l33.484,19.333l3.467,-2.391l0,-3.548l-33.895,-19.57Z" style="fill:#001b35;"/><path d="M80.139,111.052l-3.056,1.767l-0,4.409l33.484,19.332l3.467,-2.39l0,-3.548l-33.895,-19.57Z" style="fill:#001b35;"/><path d="M110.569,45.742c0.133,-4.239 2.792,-8.169 5.983,-10.011l11.861,-6.848c1.212,-0.7 2.34,-0.865 3.28,-0.573c0.459,0.142 4.623,2.186 4.623,2.186c0,-0 -0.048,-0.022 -0.135,-0.055c1.194,0.564 1.943,1.938 1.943,3.946l0,5.742l-3.707,2.14l0,0.014l-0.012,-0.007l0.006,-0.003l-0.011,0.006l0,-0.006l-3.764,-2.173l0,-4.126l-9.709,5.605c-1.373,0.793 -3.065,3.854 -3.425,5.779l-0,144.264l-3.058,1.765l-3.877,-2.239l-0,-145.075l-0.017,-0.009l0.014,-0.008c0,-0.077 0.001,-0.154 0.003,-0.231l-0,-0.081l0.002,-0.002Z" style="fill:#001b35;"/><g><path d="M80.14,46.836l-3.057,1.765l33.498,19.34l0,-3.531l-30.441,-17.574Z" style="fill:#f1f1f1;fill-opacity:0.18;"/><path d="M80.14,80.064l-3.057,1.765l33.498,19.34l0,-3.531l-30.441,-17.574Z" style="fill:#f1f1f1;fill-opacity:0.18;"/><path d="M80.14,111.073l-3.057,1.765l33.498,19.34l0,-3.532l-30.441,-17.573Z" style="fill:#f1f1f1;fill-opacity:0.18;"/><path d="M80.14,142.082l-3.057,1.765l33.498,19.34l0,-3.531l-30.441,-17.574Z" style="fill:#f1f1f1;fill-opacity:0.18;"/><path d="M80.14,46.836l-3.057,1.765l33.498,19.34l0,-3.531l-30.441,-17.574Z" style="fill:#f1f1f1;fill-opacity:0.18;"/><path d="M80.14,80.064l-3.057,1.765l33.498,19.34l0,-3.531l-30.441,-17.574Z" style="fill:#f1f1f1;fill-opacity:0.18;"/><path d="M80.14,111.073l-3.057,1.765l33.498,19.34l0,-3.532l-30.441,-17.573Z" style="fill:#f1f1f1;fill-opacity:0.18;"/><path d="M80.14,142.082l-3.057,1.765l33.498,19.34l0,-3.531l-30.441,-17.574Z" style="fill:#f1f1f1;fill-opacity:0.18;"/><path d="M77.083,48.536l-0,4.474l33.484,19.332l-0,-4.474l-33.484,-19.332Z" style="fill:#f1f1f1;fill-opacity:0.18;"/><path d="M77.083,81.829l-0,4.474l33.484,19.332l-0,-4.474l-33.484,-19.332Z" style="fill:#f1f1f1;fill-opacity:0.18;"/><path d="M77.083,112.754l-0,4.474l33.484,19.332l-0,-4.474l-33.484,-19.332Z" style="fill:#f1f1f1;fill-opacity:0.18;"/><path d="M77.083,143.765l-0,4.474l33.484,19.332l-0,-4.474l-33.484,-19.332Z" style="fill:#f1f1f1;fill-opacity:0.18;"/><path d="M134.417,42.283l-0.012,-0.007l0.012,-0.007l0,0.014Zm-3.781,-6.309l0,4.126l3.764,2.173l0,-5.237c0,-1.786 -1.255,-2.511 -2.801,-1.618l-0.963,0.556Z" style="fill:#f1f1f1;fill-opacity:0.18;"/><path d="M110.569,45.745l-0.002,-0.001l-0,0.077c-0.002,0.084 -0.003,0.167 -0.003,0.25l0.003,0.002l-0,145.075l3.875,2.237l-0,-145.404l-0.039,-0.023c0.057,-3.755 2.692,-8.278 5.929,-10.147l11.862,-6.848c0.545,-0.315 1.073,-0.534 1.574,-0.664c1.353,-0.351 2.548,0.197 2.548,0.197c0,-0 -4.164,-2.044 -4.623,-2.186c-0.94,-0.292 -2.068,-0.127 -3.28,0.573l-11.861,6.848c-3.192,1.843 -5.852,5.774 -5.983,10.014Zm-0.005,0.326l-0.014,-0.007l0.014,0.008l-0,-0.001Z" style="fill:#f1f1f1;fill-opacity:0.18;"/><path d="M97.075,20.723l-0.012,-0.007l0.012,-0.006l0,0.013Zm-3.781,-6.309l0,4.126l3.764,2.174l0,-5.238c0,-1.785 -1.255,-2.51 -2.801,-1.617l-0.963,0.555Z" style="fill:#f1f1f1;fill-opacity:0.18;"/><path d="M73.227,24.185l-0.019,-0.011l-0,145.405l3.875,2.237l-0,-145.405l-0.022,-0.012c0.057,-3.755 2.692,-8.278 5.929,-10.147l11.862,-6.848c0.545,-0.315 1.073,-0.535 1.574,-0.665c1.353,-0.351 2.548,0.197 2.548,0.197c0,0 -4.164,-2.043 -4.623,-2.186c-0.94,-0.291 -2.068,-0.126 -3.28,0.574l-11.861,6.848c-3.192,1.843 -5.852,5.773 -5.983,10.013Z" style="fill:#f1f1f1;fill-opacity:0.18;"/></g></svg>