<?xml version="1.0" encoding="UTF-8" standalone="no"?><!DOCTYPE svg PUBLIC "-//W3C//DTD SVG 1.1//EN" "http://www.w3.org/Graphics/SVG/1.1/DTD/svg11.dtd"><svg width="100%" height="100%" viewBox="0 0 200 200" version="1.1" xmlns="http://www.w3.org/2000/svg" xmlns:xlink="http://www.w3.org/1999/xlink" xml:space="preserve" xmlns:serif="http://www.serif.com/" style="fill-rule:evenodd;clip-rule:evenodd;stroke-linejoin:round;stroke-miterlimit:2;"><path d="M112.526,26.372l0,165.092l3.459,1.998l2.927,-1.69l0,-165.093l-3.459,-1.997l-2.927,1.69Z" style="fill:#001b35;"/><path d="M115.998,174.056l-28.524,-16.468l-3.193,2.401l3.193,5.171l25.052,14.464l3.472,-5.568Zm-28.524,-152.61l-2.937,1.735l0.004,4.144l27.985,16.158l3.472,-1.782l0,-3.786l-28.524,-16.469Zm28.524,133.124l-28.524,-16.469l-3.193,2.311l3.193,5.262l25.052,14.464l3.472,-5.568Zm0,-19.486l-28.524,-16.469l-3.193,2.084l3.193,5.489l25.052,14.464l3.472,-5.568Zm0,-19.486l-28.524,-16.469l-3.193,1.549l3.193,6.024l25.052,14.464l3.472,-5.568Zm-0.279,-19.386l-28.245,-16.308l-2.933,1.425l2.933,6.148l25.052,14.464l3.193,-5.729Zm0.279,-19.325l-28.524,-16.469l-2.933,0.916l2.933,6.657l25.052,14.464l3.472,-5.568Zm0.105,-19.426l-28.629,-16.529l-2.933,0.925l-0,4.954l27.985,16.158l3.472,-1.642l0.105,-3.866Z" style="fill:#001b35;"/><path d="M81.088,8.221l-0,165.092l3.459,1.998l2.927,-1.69l-0,-165.093l-3.459,-1.997l-2.927,1.69Z" style="fill:#001b35;"/><path d="M81.088,8.214l-0,165.099l3.453,1.994l-0,-165.099l-3.453,-1.994Z" style="fill:#eee;fill-opacity:0.16;"/><path d="M84.506,27.306l-0.015,-4.188l2.94,-1.697l25.08,14.493l-0.002,3.416l-0,4.143l-28.003,-16.167Z" style="fill:#eee;fill-opacity:0.16;"/><path d="M112.524,39.339l-28.049,-16.194l2.971,-1.715l25.08,14.493l-0.002,3.416Z" style="fill:#eee;fill-opacity:0.16;"/><path d="M112.543,58.848l-28.049,-16.194l2.971,-1.716l25.08,14.494l0,3.405l-0.002,0.011Z" style="fill:#eee;fill-opacity:0.16;"/><path d="M84.541,42.681l-0.047,-0.027l2.971,-1.716l25.08,14.494l-0.002,3.416l0,4.142l-28.002,-16.167l-0,-4.142Z" style="fill:#eee;fill-opacity:0.16;"/><path d="M112.543,78.325l-28.049,-16.194l2.971,-1.716l25.08,14.493l0,3.406l-0.002,0.011Z" style="fill:#eee;fill-opacity:0.16;"/><path d="M84.541,62.157l-0.047,-0.026l2.971,-1.716l25.08,14.493l-0.002,3.417l0,4.142l-28.002,-16.167l-0,-4.143Z" style="fill:#eee;fill-opacity:0.16;"/><path d="M112.543,97.818l-28.049,-16.194l2.971,-1.715l25.08,14.493l0,3.405l-0.002,0.011Z" style="fill:#eee;fill-opacity:0.16;"/><path d="M84.541,81.651l-0.047,-0.027l2.971,-1.715l25.08,14.493l-0.002,3.416l0,4.143l-28.002,-16.167l-0,-4.143Z" style="fill:#eee;fill-opacity:0.16;"/><path d="M112.543,117.031l-28.049,-16.194l2.971,-1.716l25.08,14.494l0,3.405l-0.002,0.011Z" style="fill:#eee;fill-opacity:0.16;"/><path d="M84.541,100.864l-0.047,-0.027l2.971,-1.716l25.08,14.494l-0.002,3.416l0,4.143l-28.002,-16.168l-0,-4.142Z" style="fill:#eee;fill-opacity:0.16;"/><path d="M112.543,136.526l-28.049,-16.194l2.971,-1.715l25.08,14.493l0,3.405l-0.002,0.011Z" style="fill:#eee;fill-opacity:0.16;"/><path d="M84.541,120.359l-0.047,-0.027l2.971,-1.715l25.08,14.493l-0.002,3.416l0,4.143l-28.002,-16.167l-0,-4.143Z" style="fill:#eee;fill-opacity:0.16;"/><path d="M112.543,156.025l-28.049,-16.194l2.971,-1.715l25.08,14.493l0,3.405l-0.002,0.011Z" style="fill:#eee;fill-opacity:0.16;"/><path d="M84.541,139.858l-0.047,-0.027l2.971,-1.715l25.08,14.493l-0.002,3.416l0,4.143l-28.002,-16.168l-0,-4.142Z" style="fill:#eee;fill-opacity:0.16;"/><path d="M112.543,175.491l-28.049,-16.194l2.971,-1.715l25.08,14.493l0,3.405l-0.002,0.011Z" style="fill:#eee;fill-opacity:0.16;"/><path d="M84.541,159.324l-0.047,-0.027l2.971,-1.715l25.08,14.493l-0.002,3.416l0,4.143l-28.002,-16.167l-0,-4.143Z" style="fill:#eee;fill-opacity:0.16;"/><path d="M112.545,26.376l0,165.099l3.453,1.994l0,-165.099l-3.453,-1.994Z" style="fill:#eee;fill-opacity:0.16;"/><path d="M81.093,8.218l3.448,1.99l2.921,-1.687l-3.447,-1.99l-2.922,1.687Z" style="fill:#eee;fill-opacity:0.16;"/><path d="M81.093,8.218l3.448,1.99l2.921,-1.687l-3.447,-1.99l-2.922,1.687Z" style="fill:#eee;fill-opacity:0.16;"/><path d="M112.543,26.375l3.448,1.991l2.921,-1.687l-3.447,-1.99l-2.922,1.686Z" style="fill:#eee;fill-opacity:0.16;"/><path d="M112.543,26.375l3.448,1.991l2.921,-1.687l-3.447,-1.99l-2.922,1.686Z" style="fill:#eee;fill-opacity:0.16;"/></svg>