<?xml version="1.0" encoding="UTF-8" standalone="no"?><!DOCTYPE svg PUBLIC "-//W3C//DTD SVG 1.1//EN" "http://www.w3.org/Graphics/SVG/1.1/DTD/svg11.dtd"><svg width="100%" height="100%" viewBox="0 0 200 200" version="1.1" xmlns="http://www.w3.org/2000/svg" xmlns:xlink="http://www.w3.org/1999/xlink" xml:space="preserve" xmlns:serif="http://www.serif.com/" style="fill-rule:evenodd;clip-rule:evenodd;stroke-linejoin:round;stroke-miterlimit:2;"><path d="M94.8,7.925l-35.946,166.038l3.4,1.963l2.934,-1.694l35.946,-166.038l-3.401,-1.963l-2.933,1.694Z" style="fill:#001b35;"/><path d="M95.392,22.883l-0.007,-0.005l2.927,-1.698l25.231,14.568l2.907,4.439l-4.464,2.792l-27.505,-15.879l0.911,-4.217Z" style="fill:#001b35;"/><path d="M122.892,38.759l-27.507,-15.881l2.927,-1.698l25.231,14.568l-0.651,3.011Z" style="fill:#f4f4f4;fill-opacity:0.14;"/><path d="M122.892,38.759l-27.507,-15.881l2.927,-1.698l25.231,14.568l-0.651,3.011Z" style="fill:#f4f4f4;fill-opacity:0.14;"/><path d="M91.162,42.482l-0.007,-0.005l2.927,-1.698l25.231,14.569l2.907,4.438l-4.464,2.792l-27.505,-15.878l0.911,-4.218Z" style="fill:#001b35;"/><path d="M118.662,58.358l-27.507,-15.881l2.927,-1.698l25.231,14.569l-0.651,3.01Z" style="fill:#f4f4f4;fill-opacity:0.14;"/><path d="M118.662,58.358l-27.507,-15.881l2.927,-1.698l25.231,14.569l-0.651,3.01Z" style="fill:#f4f4f4;fill-opacity:0.14;"/><path d="M86.9,62.068l-0.007,-0.005l2.926,-1.698l25.232,14.568l2.907,4.439l-4.464,2.792l-27.506,-15.879l0.912,-4.217Z" style="fill:#001b35;"/><path d="M114.4,77.944l-27.507,-15.881l2.926,-1.698l25.232,14.568l-0.651,3.011Z" style="fill:#f4f4f4;fill-opacity:0.14;"/><path d="M114.4,77.944l-27.507,-15.881l2.926,-1.698l25.232,14.568l-0.651,3.011Z" style="fill:#f4f4f4;fill-opacity:0.14;"/><path d="M82.659,81.666l-0.007,-0.004l2.927,-1.699l25.231,14.569l2.907,4.439l-4.464,2.792l-27.505,-15.879l0.911,-4.218Z" style="fill:#001b35;"/><path d="M110.159,97.542l-27.507,-15.88l2.927,-1.699l25.231,14.569l-0.651,3.01Z" style="fill:#f4f4f4;fill-opacity:0.14;"/><path d="M110.159,97.542l-27.507,-15.88l2.927,-1.699l25.231,14.569l-0.651,3.01Z" style="fill:#f4f4f4;fill-opacity:0.14;"/><path d="M78.46,101.029l-0.007,-0.004l2.926,-1.699l25.232,14.569l2.907,4.439l-4.464,2.792l-27.505,-15.879l0.911,-4.218Z" style="fill:#001b35;"/><path d="M105.96,116.906l-27.507,-15.881l2.926,-1.699l25.232,14.569l-0.651,3.011Z" style="fill:#f4f4f4;fill-opacity:0.14;"/><path d="M105.96,116.906l-27.507,-15.881l2.926,-1.699l25.232,14.569l-0.651,3.011Z" style="fill:#f4f4f4;fill-opacity:0.14;"/><path d="M74.225,120.613l-0.007,-0.005l2.926,-1.698l25.232,14.569l2.907,4.438l-4.464,2.792l-27.506,-15.878l0.912,-4.218Z" style="fill:#001b35;"/><path d="M101.725,136.489l-27.507,-15.881l2.926,-1.698l25.232,14.569l-0.651,3.01Z" style="fill:#f4f4f4;fill-opacity:0.14;"/><path d="M101.725,136.489l-27.507,-15.881l2.926,-1.698l25.232,14.569l-0.651,3.01Z" style="fill:#f4f4f4;fill-opacity:0.14;"/><path d="M69.985,140.222l-0.007,-0.005l2.926,-1.698l25.232,14.568l2.907,4.439l-4.464,2.792l-27.505,-15.878l0.911,-4.218Z" style="fill:#001b35;"/><path d="M97.485,156.098l-27.507,-15.881l2.926,-1.698l25.232,14.568l-0.651,3.011Z" style="fill:#f4f4f4;fill-opacity:0.14;"/><path d="M97.485,156.098l-27.507,-15.881l2.926,-1.698l25.232,14.568l-0.651,3.011Z" style="fill:#f4f4f4;fill-opacity:0.14;"/><path d="M65.747,159.816l-0.006,-0.005l2.926,-1.698l25.232,14.568l2.906,4.439l-4.463,2.792l-27.506,-15.878l0.911,-4.218Z" style="fill:#001b35;"/><path d="M93.248,175.692l-27.507,-15.881l2.926,-1.698l25.232,14.568l-0.651,3.011Z" style="fill:#f4f4f4;fill-opacity:0.14;"/><path d="M93.248,175.692l-27.507,-15.881l2.926,-1.698l25.232,14.568l-0.651,3.011Z" style="fill:#f4f4f4;fill-opacity:0.14;"/><path d="M125.705,25.768l-35.946,166.038l3.4,1.963l2.934,-1.694l35.946,-166.038l-3.401,-1.963l-2.933,1.694Z" style="fill:#001b35;"/><path d="M118.651,58.358l-27.506,-15.881l-0.912,4.218l27.506,15.879l0.912,-4.216Z" style="fill:#f4f4f4;fill-opacity:0.14;"/><path d="M122.898,38.764l-27.506,-15.882l-0.911,4.218l27.505,15.879l0.912,-4.215Z" style="fill:#f4f4f4;fill-opacity:0.14;"/><path d="M114.406,77.949l-27.506,-15.882l-0.912,4.218l27.506,15.879l0.912,-4.215Z" style="fill:#f4f4f4;fill-opacity:0.14;"/><path d="M110.165,97.547l-27.506,-15.881l-0.911,4.218l27.505,15.879l0.912,-4.216Z" style="fill:#f4f4f4;fill-opacity:0.14;"/><path d="M105.966,116.905l-27.507,-15.881l-0.911,4.218l27.505,15.879l0.913,-4.216Z" style="fill:#f4f4f4;fill-opacity:0.14;"/><path d="M101.725,136.503l-27.507,-15.881l-0.911,4.218l27.506,15.879l0.912,-4.216Z" style="fill:#f4f4f4;fill-opacity:0.14;"/><path d="M97.48,156.099l-27.506,-15.882l-0.911,4.219l27.505,15.878l0.912,-4.215Z" style="fill:#f4f4f4;fill-opacity:0.14;"/><path d="M93.24,175.697l-27.507,-15.881l-0.911,4.218l27.505,15.879l0.913,-4.216Z" style="fill:#f4f4f4;fill-opacity:0.14;"/><path d="M93.159,193.769l35.946,-166.038l-3.4,-1.963l-35.946,166.038l3.4,1.963Z" style="fill:#f0f0f0;fill-opacity:0.2;"/><path d="M62.254,175.926l35.946,-166.038l-3.4,-1.963l-35.946,166.038l3.4,1.963Z" style="fill:#f0f0f0;fill-opacity:0.2;"/></svg>