<?xml version="1.0" encoding="UTF-8" standalone="no"?><!DOCTYPE svg PUBLIC "-//W3C//DTD SVG 1.1//EN" "http://www.w3.org/Graphics/SVG/1.1/DTD/svg11.dtd"><svg width="100%" height="100%" viewBox="0 0 200 200" version="1.1" xmlns="http://www.w3.org/2000/svg" xmlns:xlink="http://www.w3.org/1999/xlink" xml:space="preserve" xmlns:serif="http://www.serif.com/" style="fill-rule:evenodd;clip-rule:evenodd;stroke-linejoin:round;stroke-miterlimit:2;"><path d="M9.171,138.635l150.581,-86.937l3.676,2.122l-0,3.21l-150.581,86.938l-3.676,-2.123l0,-3.21Z" style="fill:#001b35;"/><path d="M130.731,75.912l0,-3.215l3.852,-2.223l23.726,13.698l-1.292,4.989l-5.344,-1.158l-20.942,-12.091Z" style="fill:#001b35;"/><path d="M154.453,86.398l-23.722,-13.696l0,3.21l20.942,12.091l2.78,-1.605Z" style="fill:#f0f0f0;fill-opacity:0.18;"/><path d="M154.453,86.393l-23.722,-13.696l3.852,-2.223l23.726,13.698l-3.856,2.221Z" style="fill:#f0f0f0;fill-opacity:0.18;"/><path d="M112.804,86.262l0,-3.215l3.852,-2.223l23.726,13.698l-1.292,4.989l-5.344,-1.158l-20.942,-12.091Z" style="fill:#001b35;"/><path d="M136.526,96.748l-23.722,-13.696l0,3.21l20.942,12.091l2.78,-1.605Z" style="fill:#f0f0f0;fill-opacity:0.18;"/><path d="M136.526,96.743l-23.722,-13.696l3.852,-2.223l23.726,13.698l-3.856,2.221Z" style="fill:#f0f0f0;fill-opacity:0.18;"/><path d="M94.885,96.608l-0,-3.215l3.851,-2.223l23.726,13.698l-1.291,4.989l-5.344,-1.158l-20.942,-12.091Z" style="fill:#001b35;"/><path d="M118.607,107.094l-23.722,-13.696l-0,3.21l20.942,12.091l2.78,-1.605Z" style="fill:#f0f0f0;fill-opacity:0.18;"/><path d="M118.607,107.089l-23.722,-13.696l3.851,-2.223l23.726,13.698l-3.855,2.221Z" style="fill:#f0f0f0;fill-opacity:0.18;"/><path d="M77.778,106.485l0,-3.215l3.852,-2.224l23.726,13.698l-1.292,4.99l-5.344,-1.159l-20.942,-12.09Z" style="fill:#001b35;"/><path d="M101.5,116.971l-23.722,-13.696l0,3.21l20.942,12.09l2.78,-1.604Z" style="fill:#f0f0f0;fill-opacity:0.18;"/><path d="M101.5,116.965l-23.722,-13.695l3.852,-2.224l23.726,13.698l-3.856,2.221Z" style="fill:#f0f0f0;fill-opacity:0.18;"/><path d="M60.6,116.407l0,-3.215l3.852,-2.223l23.726,13.698l-1.292,4.99l-5.344,-1.159l-20.942,-12.091Z" style="fill:#001b35;"/><path d="M84.322,126.893l-23.722,-13.695l0,3.209l20.942,12.091l2.78,-1.605Z" style="fill:#f0f0f0;fill-opacity:0.18;"/><path d="M84.322,126.888l-23.722,-13.696l3.852,-2.223l23.726,13.698l-3.856,2.221Z" style="fill:#f0f0f0;fill-opacity:0.18;"/><path d="M42.695,126.74l0,-3.215l3.852,-2.224l23.726,13.699l-1.292,4.989l-5.344,-1.158l-20.942,-12.091Z" style="fill:#001b35;"/><path d="M66.417,137.226l-23.722,-13.696l0,3.21l20.942,12.091l2.78,-1.605Z" style="fill:#f0f0f0;fill-opacity:0.18;"/><path d="M66.417,137.221l-23.722,-13.696l3.852,-2.224l23.726,13.699l-3.856,2.221Z" style="fill:#f0f0f0;fill-opacity:0.18;"/><path d="M24.746,137.108l0,-3.215l3.852,-2.224l23.726,13.698l-1.292,4.99l-5.344,-1.158l-20.942,-12.091Z" style="fill:#001b35;"/><path d="M48.468,147.594l-23.722,-13.696l0,3.21l20.942,12.091l2.78,-1.605Z" style="fill:#f0f0f0;fill-opacity:0.18;"/><path d="M48.468,147.589l-23.722,-13.696l3.852,-2.224l23.726,13.698l-3.856,2.222Z" style="fill:#f0f0f0;fill-opacity:0.18;"/><path d="M147.909,65.994l0,-3.215l3.852,-2.223l23.726,13.698l-1.292,4.99l-5.344,-1.159l-20.942,-12.091Z" style="fill:#001b35;"/><path d="M36.572,154.456l150.581,-86.938l3.676,2.122l-0,3.21l-150.581,86.938l-3.676,-2.123l0,-3.209Z" style="fill:#001b35;"/><path d="M36.572,154.456l150.581,-86.938l3.676,2.122l-150.581,86.938l-3.676,-2.122Z" style="fill:#f0f0f0;fill-opacity:0.18;"/><path d="M9.171,138.635l150.581,-86.937l3.676,2.122l-150.581,86.938l-3.676,-2.123Z" style="fill:#f0f0f0;fill-opacity:0.18;"/><path d="M171.631,76.48l-23.722,-13.695l0,3.209l20.942,12.091l2.78,-1.605Z" style="fill:#f0f0f0;fill-opacity:0.18;"/><path d="M171.631,76.48l-23.722,-13.695l0,3.209l20.942,12.091l2.78,-1.605Z" style="fill:#f0f0f0;fill-opacity:0.18;"/><path d="M171.631,76.475l-23.722,-13.696l3.852,-2.223l23.726,13.698l-3.856,2.221Z" style="fill:#f0f0f0;fill-opacity:0.18;"/><path d="M12.838,140.752l-3.667,-2.117l0,3.21l3.667,2.117l-0,-3.21Z" style="fill:#f0f0f0;fill-opacity:0.18;"/><path d="M40.237,156.571l-3.667,-2.117l-0,3.21l3.667,2.117l-0,-3.21Z" style="fill:#f0f0f0;fill-opacity:0.18;"/><path d="M48.465,147.588l-23.722,-13.696l0,3.21l20.942,12.091l2.78,-1.605Z" style="fill:#f0f0f0;fill-opacity:0.18;"/><path d="M66.432,137.25l-23.722,-13.696l-0,3.21l20.942,12.091l2.78,-1.605Z" style="fill:#f0f0f0;fill-opacity:0.18;"/><path d="M84.322,126.886l-23.722,-13.696l0,3.21l20.942,12.091l2.78,-1.605Z" style="fill:#f0f0f0;fill-opacity:0.18;"/><path d="M101.5,116.971l-23.722,-13.696l0,3.21l20.942,12.09l2.78,-1.604Z" style="fill:#f0f0f0;fill-opacity:0.18;"/><path d="M118.596,107.098l-23.722,-13.696l0,3.21l20.942,12.091l2.78,-1.605Z" style="fill:#f0f0f0;fill-opacity:0.18;"/><path d="M136.563,96.76l-23.722,-13.696l-0,3.21l20.942,12.091l2.78,-1.605Z" style="fill:#f0f0f0;fill-opacity:0.18;"/><path d="M154.453,86.396l-23.722,-13.696l0,3.21l20.942,12.091l2.78,-1.605Z" style="fill:#f0f0f0;fill-opacity:0.18;"/></svg>