<?xml version="1.0" encoding="UTF-8" standalone="no"?><!DOCTYPE svg PUBLIC "-//W3C//DTD SVG 1.1//EN" "http://www.w3.org/Graphics/SVG/1.1/DTD/svg11.dtd"><svg width="100%" height="100%" viewBox="0 0 200 200" version="1.1" xmlns="http://www.w3.org/2000/svg" xmlns:xlink="http://www.w3.org/1999/xlink" xml:space="preserve" xmlns:serif="http://www.serif.com/" style="fill-rule:evenodd;clip-rule:evenodd;stroke-linejoin:round;stroke-miterlimit:2;"><path d="M126.253,65.475l-1.754,-9.673l-35.328,-20.396l-3.459,1.995l0.933,5.207l39.608,22.867Z" style="fill:#001b35;"/><path d="M130.65,89.699l-1.754,-9.673l-35.328,-20.396l-3.459,1.995l0.933,5.207l39.608,22.867Z" style="fill:#001b35;"/><path d="M135.042,113.919l-1.754,-9.673l-35.328,-20.396l-3.459,1.994l0.933,5.207l39.608,22.868Z" style="fill:#001b35;"/><path d="M77.905,18.514l19.716,108.685l4.895,2.826l3.457,-1.996l-19.716,-108.684l-4.895,-2.827l-3.457,1.996Z" style="fill:#001b35;"/><path d="M139.439,138.162l-1.755,-9.673l-35.327,-20.396l-3.459,1.995l0.933,5.206l39.608,22.868Z" style="fill:#001b35;"/><path d="M122.394,44.2l19.716,108.685l4.895,2.826l3.457,-1.996l-19.715,-108.685l-4.895,-2.826l-3.458,1.996Z" style="fill:#001b35;"/><path d="M139.439,138.162l-0.946,-5.213l-39.595,-22.861l0.946,5.214l39.595,22.86Zm-4.395,-24.229l-0.946,-5.213l-39.595,-22.861l0.945,5.214l39.596,22.86Zm-4.395,-24.229l-0.946,-5.213l-39.596,-22.861l0.946,5.214l39.596,22.86Zm-4.396,-24.229l-0.945,-5.213l-39.596,-22.861l0.946,5.214l39.595,22.86Z" style="fill:#f1f1f1;fill-opacity:0.14;"/><path d="M81.365,16.52l-3.46,1.998l4.889,2.823l3.46,-1.998l-4.889,-2.823Z" style="fill:#f1f1f1;fill-opacity:0.14;"/><path d="M125.855,42.203l-3.461,1.997l4.889,2.823l3.461,-1.998l-4.889,-2.822Z" style="fill:#f1f1f1;fill-opacity:0.14;"/><path d="M89.173,35.403l-3.461,1.998l39.564,22.842l-0.777,-4.444l-35.326,-20.396Z" style="fill:#f1f1f1;fill-opacity:0.14;"/><path d="M93.57,59.631l-3.461,1.998l39.564,22.842l-0.777,-4.444l-35.326,-20.396Z" style="fill:#f1f1f1;fill-opacity:0.14;"/><path d="M97.962,83.851l-3.46,1.998l39.563,22.842l-0.776,-4.444l-35.327,-20.396Z" style="fill:#f1f1f1;fill-opacity:0.14;"/><path d="M102.346,108.085l-3.461,1.998l39.564,22.842l-0.777,-4.444l-35.326,-20.396Z" style="fill:#f1f1f1;fill-opacity:0.14;"/><path d="M81.365,16.52l-3.46,1.998l4.889,2.823l3.46,-1.998l-4.889,-2.823Z" style="fill:#f1f1f1;fill-opacity:0.14;"/><path d="M125.855,42.203l-3.461,1.997l4.889,2.823l3.461,-1.998l-4.889,-2.822Z" style="fill:#f1f1f1;fill-opacity:0.14;"/><path d="M89.173,35.403l-3.461,1.998l39.564,22.842l-0.777,-4.444l-35.326,-20.396Z" style="fill:#f1f1f1;fill-opacity:0.14;"/><path d="M93.57,59.631l-3.461,1.998l39.564,22.842l-0.777,-4.444l-35.326,-20.396Z" style="fill:#f1f1f1;fill-opacity:0.14;"/><path d="M97.962,83.851l-3.46,1.998l39.563,22.842l-0.776,-4.444l-35.327,-20.396Z" style="fill:#f1f1f1;fill-opacity:0.14;"/><path d="M102.346,108.085l-3.461,1.998l39.564,22.842l-0.777,-4.444l-35.326,-20.396Z" style="fill:#f1f1f1;fill-opacity:0.14;"/><path d="M82.792,21.339l-4.887,-2.821l19.71,108.678l4.886,2.821l-19.709,-108.678Z" style="fill:#f1f1f1;fill-opacity:0.14;"/><path d="M127.281,47.025l-4.887,-2.821l19.71,108.678l4.886,2.821l-19.709,-108.678Z" style="fill:#f1f1f1;fill-opacity:0.14;"/><path d="M64.159,85.927l0.006,0.003l-0.006,-0.003Zm-0.021,-0.009c-0.587,-0.269 -0.966,-1.001 -0.966,-2.069c0,-1.834 1.117,-3.968 2.493,-4.762l22.596,-13.046c0.632,-0.365 1.21,-0.384 1.649,-0.12c-0.31,-0.188 -1.474,-0.867 -1.791,-1.033c-0.431,-0.225 -0.983,-0.192 -1.585,0.156l-22.597,13.046c-1.375,0.794 -2.492,2.928 -2.492,4.762c-0,1.003 0.334,1.71 0.862,2.015c0.288,0.167 1.442,0.874 1.831,1.051Zm25.802,-19.978l0.002,0.001l-0.002,-0.001Z" style="fill:#f1f1f1;fill-opacity:0.12;"/><path d="M62.307,84.867c0.295,0.171 1.498,0.908 1.858,1.063c0.417,0.179 0.937,0.129 1.5,-0.196l22.596,-13.046c1.376,-0.795 2.493,-2.928 2.493,-4.763c-0,-0.987 -0.324,-1.687 -0.837,-2c-0.3,-0.183 -1.479,-0.87 -1.798,-1.037c-0.431,-0.225 -0.983,-0.192 -1.585,0.156l-22.597,13.046c-1.375,0.794 -2.492,2.928 -2.492,4.762c-0,1.003 0.334,1.71 0.862,2.015Z" style="fill:#001b35;"/><path d="M64.159,85.927l0.006,0.003l-0.006,-0.003Zm-0.021,-0.009c-0.587,-0.269 -0.966,-1.001 -0.966,-2.069c0,-1.834 1.117,-3.968 2.493,-4.762l22.596,-13.046c0.632,-0.365 1.21,-0.384 1.649,-0.12c-0.31,-0.188 -1.474,-0.867 -1.791,-1.033c-0.431,-0.225 -0.983,-0.192 -1.585,0.156l-22.597,13.046c-1.375,0.794 -2.492,2.928 -2.492,4.762c-0,1.003 0.334,1.71 0.862,2.015c0.288,0.167 1.442,0.874 1.831,1.051Zm25.802,-19.978l0.002,0.001l-0.002,-0.001Z" style="fill:#f1f1f1;fill-opacity:0.12;"/><path d="M77.459,43.936l-3.371,1.946l-0.822,4.551l40.897,23.612l5.221,-2.012l0.811,-3.423l-42.736,-24.674Z" style="fill:#001b35;"/><path d="M73.938,20.169l-24.4,134.672l4.354,2.514l3.37,-1.946l24.401,-134.672l-4.354,-2.514l-3.371,1.946Z" style="fill:#001b35;"/><path d="M119.191,46.296l-24.401,134.672l4.354,2.514l3.371,-1.946l24.4,-134.673l-4.354,-2.513l-3.37,1.946Z" style="fill:#001b35;"/><path d="M72.295,71.487l-3.371,1.946l-0.822,4.551l40.897,23.612l5.221,-2.012l0.811,-3.423l-42.736,-24.674Z" style="fill:#001b35;"/><path d="M67.498,98.934l-3.37,1.946l-0.822,4.55l40.897,23.612l5.221,-2.011l0.811,-3.424l-42.737,-24.673Z" style="fill:#001b35;"/><path d="M62.505,126.408l-3.37,1.946l-0.822,4.551l40.897,23.612l5.221,-2.011l0.811,-3.424l-42.737,-24.674Z" style="fill:#001b35;"/><path d="M59.029,128.288l-0.831,4.548l41.031,23.692l0.831,-4.548l-41.031,-23.692Zm5.02,-27.469l-0.831,4.548l40.975,23.659l0.864,-4.529l-41.008,-23.678Zm5.019,-27.47l-0.831,4.548l40.9,23.616l0.913,-4.5l-40.982,-23.664Zm5.02,-27.47l-0.831,4.548l40.97,23.656l0.804,-4.563l-40.943,-23.641Z" style="fill:#f1f1f1;fill-opacity:0.17;"/><path d="M77.309,18.223l-3.371,1.946l4.337,2.504l3.371,-1.946l-4.337,-2.504Z" style="fill:#f1f1f1;fill-opacity:0.17;"/><path d="M122.578,44.359l-3.37,1.946l4.337,2.504l3.37,-1.946l-4.337,-2.504Z" style="fill:#f1f1f1;fill-opacity:0.17;"/><path d="M77.309,18.223l-3.371,1.946l4.337,2.504l3.371,-1.946l-4.337,-2.504Z" style="fill:#f1f1f1;fill-opacity:0.17;"/><path d="M78.275,22.673l-4.337,-2.504l-24.4,134.672l4.336,2.504l24.401,-134.672Z" style="fill:#f1f1f1;fill-opacity:0.17;"/><path d="M123.527,48.799l-4.336,-2.503l-24.401,134.672l4.337,2.504l24.4,-134.673Z" style="fill:#f1f1f1;fill-opacity:0.17;"/><path d="M122.578,44.359l-3.37,1.946l4.337,2.504l3.37,-1.946l-4.337,-2.504Z" style="fill:#f1f1f1;fill-opacity:0.17;"/><path d="M77.459,43.936l-3.371,1.946l40.886,23.605l0.652,-3.516l-38.167,-22.035Z" style="fill:#f1f1f1;fill-opacity:0.17;"/><path d="M72.482,71.428l-3.37,1.946l40.886,23.606l0.651,-3.516l-38.167,-22.036Z" style="fill:#f1f1f1;fill-opacity:0.17;"/><path d="M67.498,98.925l-3.37,1.945l40.886,23.606l0.651,-3.516l-38.167,-22.035Z" style="fill:#f1f1f1;fill-opacity:0.17;"/><path d="M62.502,126.411l-3.37,1.946l40.886,23.606l0.651,-3.516l-38.167,-22.036Z" style="fill:#f1f1f1;fill-opacity:0.17;"/><path d="M77.459,43.936l-3.371,1.946l40.886,23.605l0.652,-3.516l-38.167,-22.035Z" style="fill:#f1f1f1;fill-opacity:0.17;"/><path d="M72.482,71.428l-3.37,1.946l40.886,23.606l0.651,-3.516l-38.167,-22.036Z" style="fill:#f1f1f1;fill-opacity:0.17;"/><path d="M67.498,98.925l-3.37,1.945l40.886,23.606l0.651,-3.516l-38.167,-22.035Z" style="fill:#f1f1f1;fill-opacity:0.17;"/><path d="M62.502,126.411l-3.37,1.946l40.886,23.606l0.651,-3.516l-38.167,-22.036Z" style="fill:#f1f1f1;fill-opacity:0.17;"/><path d="M114.947,115.25l0.006,0.003l-0.006,-0.003Zm-0.02,-0.009c-0.588,-0.269 -0.966,-1.001 -0.966,-2.069c-0,-1.834 1.117,-3.968 2.492,-4.762l22.597,-13.046c0.632,-0.365 1.209,-0.384 1.649,-0.12c-0.311,-0.189 -1.474,-0.867 -1.792,-1.033c-0.431,-0.226 -0.983,-0.192 -1.585,0.156l-22.596,13.046c-1.376,0.794 -2.493,2.928 -2.493,4.762c0,1.003 0.334,1.71 0.862,2.015c0.289,0.166 1.443,0.874 1.832,1.051Zm25.802,-19.978l0.002,0.001l-0.002,-0.001Z" style="fill:#f1f1f1;fill-opacity:0.12;"/><path d="M113.095,114.19c0.296,0.17 1.498,0.908 1.858,1.063c0.418,0.179 0.937,0.128 1.5,-0.197l22.597,-13.046c1.375,-0.794 2.492,-2.928 2.492,-4.762c-0,-0.987 -0.323,-1.687 -0.837,-2c-0.3,-0.183 -1.478,-0.87 -1.798,-1.037c-0.431,-0.226 -0.983,-0.192 -1.585,0.156l-22.596,13.046c-1.376,0.794 -2.493,2.928 -2.493,4.762c0,1.003 0.334,1.71 0.862,2.015Z" style="fill:#001b35;"/><path d="M114.947,115.25l0.006,0.003l-0.006,-0.003Zm-0.02,-0.009c-0.588,-0.269 -0.966,-1.001 -0.966,-2.069c-0,-1.834 1.117,-3.968 2.492,-4.762l22.597,-13.046c0.632,-0.365 1.209,-0.384 1.649,-0.12c-0.311,-0.189 -1.474,-0.867 -1.792,-1.033c-0.431,-0.226 -0.983,-0.192 -1.585,0.156l-22.596,13.046c-1.376,0.794 -2.493,2.928 -2.493,4.762c0,1.003 0.334,1.71 0.862,2.015c0.289,0.166 1.443,0.874 1.832,1.051Zm25.802,-19.978l0.002,0.001l-0.002,-0.001Z" style="fill:#f1f1f1;fill-opacity:0.12;"/></svg>
