<?xml version="1.0" encoding="UTF-8" standalone="no"?><!DOCTYPE svg PUBLIC "-//W3C//DTD SVG 1.1//EN" "http://www.w3.org/Graphics/SVG/1.1/DTD/svg11.dtd"><svg width="100%" height="100%" viewBox="0 0 200 200" version="1.1" xmlns="http://www.w3.org/2000/svg" xmlns:xlink="http://www.w3.org/1999/xlink" xml:space="preserve" xmlns:serif="http://www.serif.com/" style="fill-rule:evenodd;clip-rule:evenodd;stroke-linejoin:round;stroke-miterlimit:2;"><path d="M21.358,117.834l113.453,-65.502l5.184,2.994l-0,4.527l-113.453,65.502l-5.184,-2.993l-0,-4.528Z" style="fill:#001b35;"/><path d="M93.9,81.946l0,4.531l29.537,17.053l7.676,0.636l1.672,-6.037l-33.457,-19.317l-5.428,3.134Z" style="fill:#001b35;"/><path d="M127.358,101.266l-33.458,-19.316l0,4.527l29.537,17.053l3.921,-2.264Z" style="fill:#ebebeb;fill-opacity:0.18;"/><path d="M132.785,98.129l-33.457,-19.317l-5.428,3.134l33.461,19.318l5.424,-3.135Z" style="fill:#ebebeb;fill-opacity:0.18;"/><path d="M68.585,96.561l-0,4.532l29.537,17.053l7.676,0.636l1.672,-6.037l-33.458,-19.317l-5.427,3.133Z" style="fill:#001b35;"/><path d="M102.042,115.882l-33.457,-19.316l-0,4.527l29.537,17.053l3.92,-2.264Z" style="fill:#ebebeb;fill-opacity:0.18;"/><path d="M107.47,112.745l-33.458,-19.317l-5.427,3.133l33.461,19.319l5.424,-3.135Z" style="fill:#ebebeb;fill-opacity:0.18;"/><path d="M43.285,111.168l-0,4.532l29.537,17.053l7.676,0.636l1.672,-6.038l-33.458,-19.316l-5.427,3.133Z" style="fill:#001b35;"/><path d="M76.742,130.489l-33.457,-19.317l-0,4.528l29.537,17.053l3.92,-2.264Z" style="fill:#ebebeb;fill-opacity:0.18;"/><path d="M82.17,127.351l-33.458,-19.316l-5.427,3.133l33.461,19.319l5.424,-3.136Z" style="fill:#ebebeb;fill-opacity:0.18;"/><path d="M60.005,140.147l113.453,-65.502l5.184,2.993l0,4.528l-113.453,65.502l-5.184,-2.994l0,-4.527Z" style="fill:#001b35;"/><path d="M118.122,67.957l-0,4.531l29.537,17.054l7.676,0.635l1.672,-6.037l-33.458,-19.317l-5.427,3.134Z" style="fill:#001b35;"/><path d="M21.358,117.834l113.453,-65.502l5.184,2.994l-113.453,65.501l-5.184,-2.993Z" style="fill:#ebebeb;fill-opacity:0.18;"/><path d="M60.005,140.147l113.453,-65.502l5.184,2.993l-113.453,65.502l-5.184,-2.993Z" style="fill:#ebebeb;fill-opacity:0.18;"/><path d="M26.529,120.82l-5.171,-2.986l-0,4.528l5.171,2.985l0,-4.527Z" style="fill:#ebebeb;fill-opacity:0.18;"/><path d="M65.173,143.131l-5.172,-2.986l0,4.527l5.172,2.986l-0,-4.527Z" style="fill:#ebebeb;fill-opacity:0.18;"/><path d="M76.778,130.462l-33.457,-19.317l-0,4.527l29.537,17.053l3.92,-2.263Z" style="fill:#ebebeb;fill-opacity:0.18;"/><path d="M102.119,115.88l-33.458,-19.316l0,4.527l29.537,17.053l3.921,-2.264Z" style="fill:#ebebeb;fill-opacity:0.18;"/><path d="M127.351,101.263l-33.457,-19.317l-0,4.527l29.537,17.053l3.92,-2.263Z" style="fill:#ebebeb;fill-opacity:0.18;"/><path d="M151.579,87.278l-33.457,-19.317l-0,4.527l29.537,17.054l3.92,-2.264Z" style="fill:#ebebeb;fill-opacity:0.18;"/><path d="M151.579,87.278l-33.457,-19.317l-0,4.527l29.537,17.054l3.92,-2.264Z" style="fill:#ebebeb;fill-opacity:0.18;"/><path d="M157.007,84.14l-33.458,-19.317l-5.427,3.134l33.461,19.319l5.424,-3.136Z" style="fill:#ebebeb;fill-opacity:0.18;"/></svg>