<?xml version="1.0" encoding="UTF-8" standalone="no"?><!DOCTYPE svg PUBLIC "-//W3C//DTD SVG 1.1//EN" "http://www.w3.org/Graphics/SVG/1.1/DTD/svg11.dtd"><svg width="100%" height="100%" viewBox="0 0 200 200" version="1.1" xmlns="http://www.w3.org/2000/svg" xmlns:xlink="http://www.w3.org/1999/xlink" xml:space="preserve" xmlns:serif="http://www.serif.com/" style="fill-rule:evenodd;clip-rule:evenodd;stroke-linejoin:round;stroke-miterlimit:2;"><path d="M89.009,41.903l-3.44,1.986l-0.839,4.646l41.745,24.101l5.329,-2.053l0.828,-3.494l-43.623,-25.186Z" style="fill:#001b35;"/><path d="M85.415,17.643l-24.906,137.466l4.444,2.565l3.441,-1.986l24.906,-137.465l-4.444,-2.566l-3.441,1.986Z" style="fill:#001b35;"/><path d="M131.606,44.312l-24.906,137.465l4.444,2.566l3.441,-1.986l24.906,-137.466l-4.444,-2.565l-3.441,1.986Z" style="fill:#001b35;"/><path d="M83.738,70.025l-3.441,1.987l-0.838,4.645l41.745,24.102l5.329,-2.053l0.827,-3.495l-43.622,-25.186Z" style="fill:#001b35;"/><path d="M78.842,98.041l-3.44,1.987l-0.839,4.645l41.745,24.102l5.329,-2.053l0.828,-3.495l-43.623,-25.186Z" style="fill:#001b35;"/><path d="M73.746,126.086l-3.441,1.986l-0.839,4.645l41.745,24.102l5.329,-2.053l0.828,-3.495l-43.622,-25.185Z" style="fill:#001b35;"/><path d="M70.197,128.005l-0.848,4.642l41.881,24.183l0.849,-4.642l-41.882,-24.183Zm5.124,-28.039l-0.848,4.642l41.824,24.15l0.882,-4.623l-41.858,-24.169Zm5.124,-28.04l-0.849,4.642l41.748,24.106l0.932,-4.593l-41.831,-24.155Zm5.124,-28.039l-0.849,4.642l41.819,24.147l0.821,-4.658l-41.791,-24.131Z" style="fill:#e8e8e8;fill-opacity:0.17;"/><path d="M88.856,15.657l-3.441,1.986l4.427,2.556l3.441,-1.986l-4.427,-2.556Z" style="fill:#e8e8e8;fill-opacity:0.17;"/><path d="M135.064,42.336l-3.44,1.986l4.427,2.556l3.44,-1.987l-4.427,-2.555Z" style="fill:#e8e8e8;fill-opacity:0.17;"/><path d="M88.856,15.657l-3.441,1.986l4.427,2.556l3.441,-1.986l-4.427,-2.556Z" style="fill:#e8e8e8;fill-opacity:0.17;"/><path d="M89.842,20.199l-4.427,-2.556l-24.906,137.466l4.427,2.555l24.906,-137.465Z" style="fill:#e8e8e8;fill-opacity:0.17;"/><path d="M136.033,46.868l-4.427,-2.556l-24.906,137.465l4.427,2.556l24.906,-137.465Z" style="fill:#e8e8e8;fill-opacity:0.17;"/><path d="M135.064,42.336l-3.44,1.986l4.427,2.556l3.44,-1.987l-4.427,-2.555Z" style="fill:#e8e8e8;fill-opacity:0.17;"/><path d="M89.009,41.903l-3.44,1.986l41.734,24.096l0.664,-3.589l-38.958,-22.493Z" style="fill:#e8e8e8;fill-opacity:0.17;"/><path d="M83.93,69.965l-3.441,1.987l41.734,24.095l0.665,-3.589l-38.958,-22.493Z" style="fill:#e8e8e8;fill-opacity:0.17;"/><path d="M78.842,98.032l-3.441,1.987l41.734,24.095l0.665,-3.589l-38.958,-22.493Z" style="fill:#e8e8e8;fill-opacity:0.17;"/><path d="M73.743,126.089l-3.441,1.986l41.734,24.095l0.665,-3.588l-38.958,-22.493Z" style="fill:#e8e8e8;fill-opacity:0.17;"/><path d="M89.009,41.903l-3.44,1.986l41.734,24.096l0.664,-3.589l-38.958,-22.493Z" style="fill:#e8e8e8;fill-opacity:0.17;"/><path d="M83.93,69.965l-3.441,1.987l41.734,24.095l0.665,-3.589l-38.958,-22.493Z" style="fill:#e8e8e8;fill-opacity:0.17;"/><path d="M78.842,98.032l-3.441,1.987l41.734,24.095l0.665,-3.589l-38.958,-22.493Z" style="fill:#e8e8e8;fill-opacity:0.17;"/><path d="M73.743,126.089l-3.441,1.986l41.734,24.095l0.665,-3.588l-38.958,-22.493Z" style="fill:#e8e8e8;fill-opacity:0.17;"/></svg>