<?xml version="1.0" encoding="UTF-8" standalone="no"?><!DOCTYPE svg PUBLIC "-//W3C//DTD SVG 1.1//EN" "http://www.w3.org/Graphics/SVG/1.1/DTD/svg11.dtd"><svg width="100%" height="100%" viewBox="0 0 200 200" version="1.1" xmlns="http://www.w3.org/2000/svg" xmlns:xlink="http://www.w3.org/1999/xlink" xml:space="preserve" xmlns:serif="http://www.serif.com/" style="fill-rule:evenodd;clip-rule:evenodd;stroke-linejoin:round;stroke-miterlimit:2;"><path d="M77.43,14.681l-0,148.174l3.951,2.281l3.115,-1.799l0,-148.174l-3.951,-2.281l-3.115,1.799Z" style="fill:#001b35;"/><path d="M84.496,37.774l-3.114,1.801l-0,4.493l34.122,19.7l3.533,-2.436l-0,-3.616l-34.541,-19.942Z" style="fill:#001b35;"/><path d="M84.496,71.637l-3.114,1.801l-0,4.493l34.122,19.7l3.533,-2.436l-0,-3.616l-34.541,-19.942Z" style="fill:#001b35;"/><path d="M84.496,103.215l-3.114,1.801l-0,4.493l34.122,19.7l3.533,-2.436l-0,-3.616l-34.541,-19.942Z" style="fill:#001b35;"/><path d="M84.496,134.817l-3.114,1.8l-0,4.493l34.122,19.701l3.533,-2.437l-0,-3.615l-34.541,-19.942Z" style="fill:#001b35;"/><path d="M115.504,36.663l-0,148.174l3.951,2.281l3.115,-1.799l0,-148.174l-3.951,-2.281l-3.115,1.799Z" style="fill:#001b35;"/><path d="M84.497,37.776l-3.115,1.799l34.136,19.708l0,-3.599l-31.021,-17.908Z" style="fill:#ececec;fill-opacity:0.2;"/><path d="M84.497,71.637l-3.115,1.798l34.136,19.709l0,-3.599l-31.021,-17.908Z" style="fill:#ececec;fill-opacity:0.2;"/><path d="M84.497,103.236l-3.115,1.798l34.136,19.709l0,-3.599l-31.021,-17.908Z" style="fill:#ececec;fill-opacity:0.2;"/><path d="M84.497,134.836l-3.115,1.798l34.136,19.709l0,-3.599l-31.021,-17.908Z" style="fill:#ececec;fill-opacity:0.2;"/><path d="M80.545,12.882l-3.115,1.799l3.937,2.273l3.115,-1.799l-3.937,-2.273Z" style="fill:#ececec;fill-opacity:0.2;"/><path d="M118.633,34.872l-3.115,1.799l3.937,2.273l3.115,-1.799l-3.937,-2.273Z" style="fill:#ececec;fill-opacity:0.2;"/><path d="M84.497,37.776l-3.115,1.799l34.136,19.708l0,-3.599l-31.021,-17.908Z" style="fill:#ececec;fill-opacity:0.2;"/><path d="M84.497,71.637l-3.115,1.798l34.136,19.709l0,-3.599l-31.021,-17.908Z" style="fill:#ececec;fill-opacity:0.2;"/><path d="M84.497,103.236l-3.115,1.798l34.136,19.709l0,-3.599l-31.021,-17.908Z" style="fill:#ececec;fill-opacity:0.2;"/><path d="M84.497,134.836l-3.115,1.798l34.136,19.709l0,-3.599l-31.021,-17.908Z" style="fill:#ececec;fill-opacity:0.2;"/><path d="M80.545,12.882l-3.115,1.799l3.937,2.273l3.115,-1.799l-3.937,-2.273Z" style="fill:#ececec;fill-opacity:0.2;"/><path d="M118.633,34.872l-3.115,1.799l3.937,2.273l3.115,-1.799l-3.937,-2.273Z" style="fill:#ececec;fill-opacity:0.2;"/><path d="M119.452,38.943l-3.948,-2.28l-0,148.174l3.948,2.279l0,-148.173Z" style="fill:#ececec;fill-opacity:0.2;"/><path d="M81.382,16.962l-3.949,-2.279l-0,148.173l3.949,2.28l-0,-148.174Z" style="fill:#ececec;fill-opacity:0.2;"/><path d="M81.382,39.508l-0,4.56l34.122,19.7l-0,-4.56l-34.122,-19.7Z" style="fill:#ececec;fill-opacity:0.2;"/><path d="M81.382,73.435l-0,4.56l34.122,19.7l-0,-4.559l-34.122,-19.701Z" style="fill:#ececec;fill-opacity:0.2;"/><path d="M81.382,104.949l-0,4.56l34.122,19.7l-0,-4.559l-34.122,-19.701Z" style="fill:#ececec;fill-opacity:0.2;"/><path d="M81.396,136.643l0,4.559l34.122,19.701l0,-4.56l-34.122,-19.7Z" style="fill:#ececec;fill-opacity:0.2;"/></svg>