<?xml version="1.0" encoding="UTF-8" standalone="no"?><!DOCTYPE svg PUBLIC "-//W3C//DTD SVG 1.1//EN" "http://www.w3.org/Graphics/SVG/1.1/DTD/svg11.dtd"><svg width="100%" height="100%" viewBox="0 0 200 200" version="1.1" xmlns="http://www.w3.org/2000/svg" xmlns:xlink="http://www.w3.org/1999/xlink" xml:space="preserve" xmlns:serif="http://www.serif.com/" style="fill-rule:evenodd;clip-rule:evenodd;stroke-linejoin:round;stroke-miterlimit:2;"><path d="M78.304,21.296l-0,-0l-0,155.411l3.24,1.88l2.742,-1.591l-0,-151.944l0.092,-3.036c-0,-1.592 1.738,-4.95 3.117,-5.746l8.657,-4.999l0,3.679l3.357,1.938l0,0.005l3.321,-1.917l-0,-5.12c-0,-1.79 -0.669,-3.015 -1.733,-3.518c0.078,0.029 0.121,0.048 0.121,0.048c-0,0 -3.714,-1.822 -4.123,-1.949c-0.838,-0.26 -1.844,-0.113 -2.925,0.511l-10.578,6.107c-2.917,1.685 -5.287,6.35 -5.288,10.241Zm21.22,-4.399l-0.011,-0.006l0.011,-0.006l-0,0.012Z" style="fill:#001b35;"/><path d="M107.683,38.122l0.07,0.26l-0,155.411l3.24,1.88l2.741,-1.59l0,-151.489l0.009,0.006l0.014,-3.622c-0,-1.592 1.738,-4.95 3.117,-5.746l8.658,-4.999l-0,3.68l3.356,1.938l0,0.004l3.321,-1.917l0,-5.12c0,-1.79 -0.669,-3.015 -1.733,-3.518c0.078,0.029 0.121,0.048 0.121,0.048c-0,0 -3.714,-1.822 -4.123,-1.949c-0.838,-0.26 -1.844,-0.113 -2.925,0.511l-10.577,6.107c-2.919,1.685 -5.289,6.213 -5.289,10.105Zm21.22,-4.263l-0.01,-0.006l0.01,-0.006l0,0.012Z" style="fill:#001b35;"/><path d="M111.005,177.406l-26.719,-15.503l-2.991,2.261l2.991,4.868l23.467,13.616l3.252,-5.242Zm-26.719,-143.66l-2.751,1.633l0.004,3.901l26.214,15.21l3.252,-1.677l-0,-3.565l-26.719,-15.502Zm26.719,125.317l-26.719,-15.503l-2.991,2.175l2.991,4.954l23.467,13.615l3.252,-5.241Zm-0,-18.344l-26.719,-15.502l-2.991,1.961l2.991,5.167l23.467,13.616l3.252,-5.242Zm-0,-18.343l-26.719,-15.503l-2.991,1.458l2.991,5.671l23.467,13.616l3.252,-5.242Zm-0.262,-18.249l-26.457,-15.352l-2.747,1.342l2.747,5.787l23.467,13.616l2.99,-5.393Zm0.262,-18.192l-26.719,-15.503l-2.747,0.863l2.747,6.266l23.467,13.616l3.252,-5.242Zm0.098,-18.286l-26.817,-15.56l-2.747,0.871l-0,4.664l26.214,15.209l3.252,-1.545l0.098,-3.639Z" style="fill:#001b35;"/><path d="M81.506,39.262l-0.014,-3.942l2.753,-1.598l23.493,13.643l-0.002,3.216l0,3.9l-26.23,-15.219Z" style="fill:#eee;fill-opacity:0.16;"/><path d="M107.751,50.59l-26.274,-15.245l2.783,-1.615l23.493,13.644l-0.002,3.216Z" style="fill:#eee;fill-opacity:0.16;"/><path d="M107.769,68.954l-26.274,-15.244l2.783,-1.615l23.492,13.643l0,3.206l-0.001,0.01Z" style="fill:#eee;fill-opacity:0.16;"/><path d="M81.539,53.735l-0.044,-0.025l2.783,-1.615l23.492,13.643l-0.001,3.216l-0,3.9l-26.23,-15.219l-0,-3.9Z" style="fill:#eee;fill-opacity:0.16;"/><path d="M107.769,87.289l-26.274,-15.245l2.783,-1.614l23.492,13.643l0,3.205l-0.001,0.011Z" style="fill:#eee;fill-opacity:0.16;"/><path d="M81.539,72.07l-0.044,-0.026l2.783,-1.614l23.492,13.643l-0.001,3.216l-0,3.899l-26.23,-15.219l-0,-3.899Z" style="fill:#eee;fill-opacity:0.16;"/><path d="M107.769,105.639l-26.274,-15.244l2.783,-1.615l23.492,13.643l0,3.206l-0.001,0.01Z" style="fill:#eee;fill-opacity:0.16;"/><path d="M81.539,90.42l-0.044,-0.025l2.783,-1.615l23.492,13.643l-0.001,3.216l-0,3.9l-26.23,-15.219l-0,-3.9Z" style="fill:#eee;fill-opacity:0.16;"/><path d="M107.769,123.725l-26.274,-15.245l2.783,-1.614l23.492,13.643l0,3.206l-0.001,0.01Z" style="fill:#eee;fill-opacity:0.16;"/><path d="M81.539,108.506l-0.044,-0.026l2.783,-1.614l23.492,13.643l-0.001,3.216l-0,3.9l-26.23,-15.219l-0,-3.9Z" style="fill:#eee;fill-opacity:0.16;"/><path d="M107.769,142.077l-26.274,-15.244l2.783,-1.615l23.492,13.643l0,3.206l-0.001,0.01Z" style="fill:#eee;fill-opacity:0.16;"/><path d="M81.539,126.858l-0.044,-0.025l2.783,-1.615l23.492,13.643l-0.001,3.216l-0,3.9l-26.23,-15.219l-0,-3.9Z" style="fill:#eee;fill-opacity:0.16;"/><path d="M107.769,160.432l-26.274,-15.244l2.783,-1.615l23.492,13.643l0,3.206l-0.001,0.01Z" style="fill:#eee;fill-opacity:0.16;"/><path d="M81.539,145.213l-0.044,-0.025l2.783,-1.615l23.492,13.643l-0.001,3.216l-0,3.9l-26.23,-15.219l-0,-3.9Z" style="fill:#eee;fill-opacity:0.16;"/><path d="M107.769,178.757l-26.274,-15.244l2.783,-1.615l23.492,13.643l0,3.206l-0.001,0.01Z" style="fill:#eee;fill-opacity:0.16;"/><path d="M81.539,163.538l-0.044,-0.025l2.783,-1.615l23.492,13.643l-0.001,3.216l-0,3.9l-26.23,-15.219l-0,-3.9Z" style="fill:#eee;fill-opacity:0.16;"/><path d="M128.903,33.859l-0.01,-0.006l0.01,-0.006l0,0.012Zm-3.371,-5.626l-0,3.68l3.356,1.938l0,-4.671c0,-1.592 -1.119,-2.238 -2.498,-1.442l-0.858,0.495Z" style="fill:#ededed;fill-opacity:0.17;"/><path d="M107.762,38.42l-0,155.379l3.252,1.887l-0,-156.251l0.041,-0.403c-0,-3.37 2.369,-7.475 5.288,-9.16l10.578,-6.107c0.486,-0.281 0.956,-0.476 1.403,-0.592c1.207,-0.314 2.273,0.175 2.273,0.175c-0,0 -3.714,-1.822 -4.123,-1.949c-0.838,-0.26 -1.844,-0.113 -2.925,0.511l-10.577,6.107c-2.919,1.685 -5.289,6.213 -5.289,10.105l0.079,0.298Z" style="fill:#eee;fill-opacity:0.16;"/><path d="M99.524,16.897l-0.011,-0.006l0.011,-0.006l-0,0.012Zm-3.372,-5.626l0,3.679l3.357,1.938l0,-4.67c0,-1.592 -1.119,-2.239 -2.498,-1.442l-0.859,0.495Z" style="fill:#ededed;fill-opacity:0.17;"/><path d="M78.304,21.154l-0.002,0l0,155.552l3.238,1.878l-0,-156.551l-0.002,-0.087c0,-3.37 2.507,-7.351 5.426,-9.036l10.577,-6.107c0.486,-0.281 0.957,-0.477 1.404,-0.593c1.206,-0.313 2.273,0.176 2.273,0.176c-0,0 -3.714,-1.822 -4.123,-1.949c-0.838,-0.26 -1.844,-0.113 -2.925,0.511l-10.578,6.107c-2.917,1.684 -5.286,6.208 -5.288,10.099Z" style="fill:#eee;fill-opacity:0.16;"/></svg>