<?xml version="1.0" encoding="UTF-8" standalone="no"?><!DOCTYPE svg PUBLIC "-//W3C//DTD SVG 1.1//EN" "http://www.w3.org/Graphics/SVG/1.1/DTD/svg11.dtd"><svg width="100%" height="100%" viewBox="0 0 200 200" version="1.1" xmlns="http://www.w3.org/2000/svg" xmlns:xlink="http://www.w3.org/1999/xlink" xml:space="preserve" xmlns:serif="http://www.serif.com/" style="fill-rule:evenodd;clip-rule:evenodd;stroke-linejoin:round;stroke-miterlimit:2;"><path d="M86.778,17.851l-2.453,-1.416l-11.077,6.395l-0,136.24l2.453,1.416l11.077,-6.395l-0,-136.24Z" style="fill:#001b35;"/><path d="M75.546,78.114l-0.004,2.729l37.591,21.739l11.153,-6.428l0.004,-2.729l-37.591,-21.739l-11.153,6.428Z" style="fill:#001b35;"/><path d="M75.546,110.05l-0.004,2.729l37.591,21.739l11.153,-6.429l0.004,-2.728l-37.591,-21.74l-11.153,6.429Z" style="fill:#001b35;"/><path d="M75.546,140.238l-0.004,2.728l37.591,21.74l11.153,-6.429l0.004,-2.729l-37.591,-21.739l-11.153,6.429Z" style="fill:#001b35;"/><path d="M75.546,42.978l-0.004,2.729l37.591,21.739l11.153,-6.429l0.004,-2.728l-37.591,-21.74l-11.153,6.429Z" style="fill:#001b35;"/><path d="M75.701,24.246l11.077,-6.395l-2.453,-1.416l-11.077,6.395l-0,136.24l2.453,1.416l-0,-136.24Z" style="fill:#efefef;fill-opacity:0.11;"/><path d="M75.701,24.246l11.077,-6.395l-2.453,-1.416l-11.077,6.395l2.453,1.416Z" style="fill:#efefef;fill-opacity:0.11;"/><path d="M86.677,71.692l-11.144,6.434l37.622,21.721l11.144,-6.434l-37.622,-21.721Z" style="fill:#efefef;fill-opacity:0.11;"/><path d="M113.155,99.847l-37.622,-21.721l0,2.729l37.622,21.721l11.144,-6.434l0,-2.729l-11.144,6.434Z" style="fill:#efefef;fill-opacity:0.11;"/><path d="M86.677,103.628l-11.144,6.433l37.622,21.722l11.144,-6.434l-37.622,-21.721Z" style="fill:#efefef;fill-opacity:0.11;"/><path d="M113.155,131.783l-37.622,-21.722l0,2.729l37.622,21.721l11.144,-6.433l0,-2.729l-11.144,6.434Z" style="fill:#efefef;fill-opacity:0.11;"/><path d="M86.677,133.815l-11.144,6.434l37.622,21.722l11.144,-6.434l-37.622,-21.722Z" style="fill:#efefef;fill-opacity:0.11;"/><path d="M113.155,161.971l-37.622,-21.722l0,2.729l37.622,21.721l11.144,-6.434l0,-2.728l-11.144,6.434Z" style="fill:#efefef;fill-opacity:0.11;"/><path d="M86.677,36.556l-11.144,6.434l37.622,21.721l11.144,-6.434l-37.622,-21.721Z" style="fill:#efefef;fill-opacity:0.11;"/><path d="M86.677,71.692l-11.144,6.434l37.622,21.721l11.144,-6.434l-37.622,-21.721Z" style="fill:#efefef;fill-opacity:0.11;"/><path d="M86.677,103.628l-11.144,6.433l37.622,21.722l11.144,-6.434l-37.622,-21.721Z" style="fill:#efefef;fill-opacity:0.11;"/><path d="M86.677,133.815l-11.144,6.434l37.622,21.722l11.144,-6.434l-37.622,-21.722Z" style="fill:#efefef;fill-opacity:0.11;"/><path d="M86.677,36.556l-11.144,6.434l37.622,21.721l11.144,-6.434l-37.622,-21.721Z" style="fill:#efefef;fill-opacity:0.11;"/><path d="M113.155,64.711l-37.622,-21.721l0,2.728l37.622,21.722l11.144,-6.434l0,-2.729l-11.144,6.434Z" style="fill:#efefef;fill-opacity:0.11;"/><path d="M113.155,99.847l0,2.729l11.144,-6.434l0,-2.729l-11.144,6.434Z" style="fill:#001b35;fill-opacity:0.35;"/><path d="M113.155,131.783l0,2.728l11.144,-6.433l0,-2.729l-11.144,6.434Z" style="fill:#001b35;fill-opacity:0.35;"/><path d="M113.155,161.971l0,2.728l11.144,-6.434l0,-2.728l-11.144,6.434Z" style="fill:#001b35;fill-opacity:0.35;"/><path d="M113.155,64.711l0,2.729l11.144,-6.434l0,-2.729l-11.144,6.434Z" style="fill:#001b35;fill-opacity:0.35;"/><path d="M126.752,40.93l-2.453,-1.416l-11.077,6.395l0,136.24l2.453,1.416l11.077,-6.395l0,-136.24Z" style="fill:#001b35;"/><path d="M115.675,183.565l0,-136.24l11.077,-6.395l-2.453,-1.416l-11.077,6.395l0,136.24l2.453,1.416Z" style="fill:#efefef;fill-opacity:0.11;"/><path d="M113.222,45.909l2.453,1.416l11.077,-6.395l-2.453,-1.416l-11.077,6.395Z" style="fill:#efefef;fill-opacity:0.11;"/></svg>