<?xml version="1.0" encoding="UTF-8" standalone="no"?><!DOCTYPE svg PUBLIC "-//W3C//DTD SVG 1.1//EN" "http://www.w3.org/Graphics/SVG/1.1/DTD/svg11.dtd"><svg width="100%" height="100%" viewBox="0 0 200 200" version="1.1" xmlns="http://www.w3.org/2000/svg" xmlns:xlink="http://www.w3.org/1999/xlink" xml:space="preserve" xmlns:serif="http://www.serif.com/" style="fill-rule:evenodd;clip-rule:evenodd;stroke-linejoin:round;stroke-miterlimit:2;"><path d="M73.618,152.084c0.869,-3.085 3.362,-6.045 7.477,-8.421c10.434,-6.025 27.377,-6.025 37.811,-0c3.821,2.206 6.243,4.916 7.265,7.76l0.024,-0l3.982,10.892c0,-0 -0.095,1.013 -0.2,1.516c-0.778,3.743 -3.652,7.368 -8.622,10.237c-11.786,6.805 -30.923,6.805 -42.708,0c-5.463,-3.153 -8.394,-7.219 -8.792,-11.351c-0.054,-0.556 -0.024,-1.67 -0.024,-1.67l3.787,-8.963Z" style="fill:#654c39;"/><path d="M126.171,151.423l0.024,-0l3.982,10.892c0,-0 -0.095,1.013 -0.2,1.516c-0.778,3.743 -3.652,7.368 -8.622,10.237c-11.786,6.805 -30.923,6.805 -42.708,0c-5.463,-3.153 -8.394,-7.219 -8.792,-11.351c-0.054,-0.556 -0.024,-1.67 -0.024,-1.67l3.787,-8.963c0.007,-0.027 0.015,-0.053 0.023,-0.08c-1.385,4.758 1.099,9.82 7.454,13.489c10.434,6.024 27.377,6.024 37.811,0c6.614,-3.818 9.035,-9.146 7.265,-14.07Z" style="fill:#838282;fill-opacity:0.2;"/><path d="M104.379,77.69c0.049,5.963 0.121,14.983 0.196,24.748c0.18,23.277 0.378,50.788 0.315,51.222c-0.088,0.605 -0.532,1.196 -1.334,1.659c-0.493,0.284 -1.07,0.491 -1.685,0.62c-0.311,-0.13 -0.603,-0.332 -0.853,-0.607c-0.447,-0.491 -0.687,-1.266 -0.708,-1.91c-0.019,-0.592 -0.232,-55.494 -0.31,-75.715c0.733,0.011 1.465,0.011 2.197,-0.001c0.728,0.034 1.456,0.029 2.182,-0.016Z" style="fill:#838282;fill-opacity:0.2;"/><path d="M95.096,77.472c3.081,0.252 6.196,0.308 9.283,0.168c0.048,5.962 0.12,15.006 0.196,24.798c0.18,23.277 0.378,50.788 0.315,51.222c-0.088,0.605 -0.532,1.196 -1.334,1.659c-1.8,1.039 -4.722,1.039 -6.522,-0c-0.851,-0.491 -1.307,-1.266 -1.346,-1.91c-0.036,-0.594 -0.445,-55.902 -0.592,-75.937Z" style="fill:#4c392b;"/><path d="M72.883,36.021c0.199,-3.853 2.842,-7.67 7.93,-10.607c10.589,-6.114 27.785,-6.114 38.374,-0c5.088,2.937 7.731,6.754 7.93,10.607l0.013,0l14.925,43.313c-0,-0 -0.118,1.639 -0.284,2.454c-1.066,5.235 -5.074,10.308 -12.025,14.321c-16.42,9.48 -43.081,9.48 -59.501,0c-7.609,-4.393 -11.692,-10.055 -12.249,-15.811c-0.066,-0.685 -0.049,-2.057 -0.049,-2.057l14.923,-42.22l0.013,0Z" style="fill:#eaeaea;"/><path d="M127.117,36.021l0.013,0l14.925,43.313c-0,-0 -0.118,1.639 -0.284,2.454c-1.066,5.235 -5.074,10.308 -12.025,14.321c-16.42,9.48 -43.081,9.48 -59.501,0c-7.609,-4.393 -11.692,-10.055 -12.249,-15.811c-0.066,-0.685 -0.049,-2.057 -0.049,-2.057l14.923,-42.22l0.013,0c0.001,-0.03 0.003,-0.06 0.005,-0.09c-0.259,4.195 2.383,8.439 7.925,11.638c10.589,6.114 27.785,6.114 38.374,0c5.503,-3.176 8.146,-7.383 7.93,-11.548Zm-0.005,-0.09l0.005,0.09l-0.005,-0.09Z" style="fill:#b4b3ae;fill-opacity:0.21;"/><path d="M81.712,24.918c10.641,-5.613 27.18,-5.448 37.475,0.496c5.088,2.937 7.731,6.754 7.93,10.607l0.013,0l14.925,43.313c-0,-0 -0.118,1.639 -0.284,2.454c-1.066,5.235 -5.074,10.308 -12.025,14.321c-0.821,0.474 -1.668,0.925 -2.536,1.35l0.03,-0.089c0.284,-0.878 0.642,-2.672 0.642,-2.672l-8.422,-49.796l-0.012,-0.002c0.369,-4.28 -1.689,-8.844 -6.3,-12.759c-7.876,-6.688 -20.766,-9.417 -31.436,-7.223Z" style="fill:#838282;fill-opacity:0.09;"/></svg>