<?xml version="1.0" encoding="UTF-8" standalone="no"?><!DOCTYPE svg PUBLIC "-//W3C//DTD SVG 1.1//EN" "http://www.w3.org/Graphics/SVG/1.1/DTD/svg11.dtd"><svg width="100%" height="100%" viewBox="0 0 200 200" version="1.1" xmlns="http://www.w3.org/2000/svg" xmlns:xlink="http://www.w3.org/1999/xlink" xml:space="preserve" xmlns:serif="http://www.serif.com/" style="fill-rule:evenodd;clip-rule:evenodd;stroke-linejoin:round;stroke-miterlimit:2;"><circle cx="100" cy="100" r="93.593" style="fill:#d1bd5c;fill-opacity:0.07;"/><circle cx="100" cy="100" r="68.146" style="fill:#d1bd5c;fill-opacity:0.07;"/><circle cx="100" cy="100" r="42.177" style="fill:#d1bd5c;fill-opacity:0.07;"/><path d="M79.55,66.882c-7.991,6.373 -13.113,16.189 -13.113,27.192l-0,21.325c-0,14.01 8.305,26.096 20.258,31.598l-0,-7.547c-8.941,-5.068 -14.979,-14.67 -14.979,-25.67l0,-18.087c0,-7.719 2.972,-14.748 7.834,-20.006l-0,-8.805Z" style="fill:#4d4d4d;"/><path d="M84.241,135.492c9.286,-5.361 24.365,-5.361 33.652,0c9.286,5.362 9.286,14.068 -0,19.43c-9.287,5.361 -24.366,5.361 -33.652,-0c-9.287,-5.362 -9.287,-14.068 -0,-19.43Z" style="fill:#4d4d4d;"/><path d="M66.446,109.648c-0.601,-5.547 2.766,-11.209 10.099,-15.442c13.556,-7.827 35.569,-7.827 49.125,-0c7.333,4.233 10.699,9.895 10.099,15.442l-5.695,0c-0.663,-3.707 -3.453,-7.312 -8.37,-10.152c-11.368,-6.562 -29.825,-6.562 -41.193,0c-4.918,2.84 -7.708,6.445 -8.37,10.152l-5.695,0Z" style="fill:#4d4d4d;"/><path d="M70.013,158.847c0.01,-2.122 1.235,-8.154 4.352,-13.062c2.718,-4.28 7.184,-7.525 9.565,-8.899c9.462,-5.463 24.826,-5.463 34.288,-0c2.676,1.544 7.8,5.684 10.725,10.638c2.663,4.51 3.264,9.832 3.184,11.801c-0.181,4.449 -3.209,8.867 -9.085,12.259c-12.124,7 -31.811,7 -43.936,-0c-6.086,-3.514 -9.117,-8.127 -9.093,-12.737Z" style="fill:#4d4d4d;"/><path d="M123.746,66.882l0,9.123c4.253,5.111 6.811,11.679 6.811,18.841l0,18.087c0,10.642 -5.65,19.976 -14.113,25.16l6.825,3.208c7.676,-6.378 12.568,-15.996 12.568,-26.749l0,-21.325c0,-10.527 -4.689,-19.968 -12.091,-26.345Z" style="fill:#4d4d4d;"/><rect x="97.574" y="75.802" width="6.999" height="77.805" style="fill:#4d4d4d;"/><path d="M88.927,134.816c6.7,-3.868 17.579,-3.868 24.279,0c6.7,3.869 6.7,10.15 0,14.018c-6.7,3.868 -17.579,3.868 -24.279,0c-6.7,-3.868 -6.7,-10.149 0,-14.018Z" style="fill:#2d2d2d;fill-opacity:0.45;"/><path d="M123.411,140.477c3.081,4.867 1.242,10.542 -5.518,14.445c-9.287,5.361 -24.366,5.361 -33.652,-0c-4.715,-2.723 -7.036,-6.307 -6.964,-9.878c1.052,2.439 3.257,4.772 6.603,6.704c9.44,5.45 24.409,5.657 33.408,0.461c5.439,-3.14 7.459,-7.539 6.123,-11.732Z" style="fill:#2d2d2d;fill-opacity:0.45;"/><path d="M91.977,133.063c5.02,-2.898 13.172,-2.898 18.192,-0c5.021,2.898 5.021,7.605 0,10.503c-5.02,2.899 -13.172,2.899 -18.192,0c-5.02,-2.898 -5.02,-7.605 0,-10.503Z" style="fill:#2d2d2d;fill-opacity:0.45;"/><path d="M72.377,108.632c-0.119,-0.416 -0.211,-0.835 -0.276,-1.255c0.583,-3.792 3.387,-7.491 8.41,-10.391c11.368,-6.563 29.825,-6.563 41.193,-0c5.023,2.9 7.826,6.599 8.41,10.391c-0.065,0.42 -0.157,0.839 -0.276,1.255c-0.956,-3.346 -3.668,-6.557 -8.134,-9.136c-11.368,-6.562 -29.825,-6.562 -41.193,0c-4.466,2.579 -7.178,5.79 -8.134,9.136Z" style="fill:#2c2723;fill-opacity:0.28;"/><path d="M127.448,145.294c0.54,0.72 1.044,1.465 1.495,2.23c2.663,4.51 3.264,9.832 3.184,11.801c-0.181,4.449 -3.209,8.867 -9.085,12.259c-12.124,7 -31.811,7 -43.936,-0c-5.339,-3.083 -8.327,-7.012 -8.964,-11.042c1.41,1.531 3.232,2.968 5.465,4.257c12.124,7 31.811,7 43.936,0c5.875,-3.392 8.904,-7.81 9.085,-12.259c0.054,-1.322 -0.2,-4.159 -1.18,-7.246Z" style="fill:#333;fill-opacity:0.42;"/><path d="M92.491,131.549c4.736,-2.531 12.427,-2.531 17.163,0c4.737,2.531 4.737,6.64 0,9.171c-4.736,2.531 -12.427,2.531 -17.163,0c-4.737,-2.531 -4.737,-6.64 -0,-9.171Z" style="fill:#ededed;"/><path d="M88.949,135.864c0.122,-1.569 1.302,-3.118 3.542,-4.315c4.736,-2.531 12.427,-2.531 17.163,0c2.239,1.197 3.42,2.746 3.542,4.313l0,0.002c-0.122,1.569 -1.302,3.119 -3.542,4.315c-4.736,2.531 -12.427,2.531 -17.163,0c-2.24,-1.196 -3.42,-2.746 -3.542,-4.315Zm-0.011,0.232l0,-0l0,-0Zm24.268,-0l0,-0l0,-0Zm-24.267,-0.04l0,0.002l0,-0.002Zm24.267,-0l-0,0.002l-0,-0.002Zm-24.266,-0.04l0,0.004l0,-0.004Zm24.265,0l-0,0.004l-0,-0.004Zm-0.002,-0.04l0,0.005l0,-0.005Zm-24.261,0l-0,0.005l-0,-0.005Zm0.002,-0.039l-0,0.005l-0,-0.005Zm24.257,-0l0,0.005l-0,-0.005Zm-24.255,-0.04l-0,0.006l0,-0.006Zm24.253,0l-0,0.006l-0,-0.006Z" style="fill:#d2d2d2;"/><path d="M93.406,131.06c4.231,-2.261 11.102,-2.261 15.333,0c4.232,2.261 4.232,5.932 0,8.193c-4.231,2.261 -11.102,2.261 -15.333,0c-4.232,-2.261 -4.232,-5.932 -0,-8.193Z" style="fill:#676767;fill-opacity:0.25;"/><path d="M92.491,129.493c4.736,-2.53 12.427,-2.53 17.163,0c4.737,2.531 4.737,6.64 0,9.171c-4.736,2.531 -12.427,2.531 -17.163,0c-4.737,-2.531 -4.737,-6.64 -0,-9.171Z" style="fill:#ededed;"/><path d="M88.949,133.808c0.122,-1.569 1.302,-3.118 3.542,-4.315c4.736,-2.53 12.427,-2.53 17.163,0c2.239,1.197 3.42,2.746 3.542,4.313l0,0.002c-0.122,1.569 -1.302,3.119 -3.542,4.315c-4.736,2.531 -12.427,2.531 -17.163,0c-2.24,-1.196 -3.42,-2.746 -3.542,-4.315Zm-0.011,0.232l0,-0l0,-0Zm24.268,-0l0,-0l0,-0Zm-24.267,-0.04l0,0.002l0,-0.002Zm24.267,-0l-0,0.002l-0,-0.002Zm-24.266,-0.04l0,0.004l0,-0.004Zm24.265,0l-0,0.004l-0,-0.004Zm-0.002,-0.039l0,0.004l0,-0.004Zm-24.261,-0l-0,0.004l-0,-0.004Zm0.002,-0.04l-0,0.005l-0,-0.005Zm24.257,-0l0,0.005l-0,-0.005Zm-24.255,-0.04l-0,0.006l0,-0.006Zm24.253,0l-0,0.006l-0,-0.006Z" style="fill:#d2d2d2;"/><path d="M93.406,129.004c4.231,-2.261 11.102,-2.261 15.333,0c4.232,2.261 4.232,5.933 0,8.193c-4.231,2.261 -11.102,2.261 -15.333,0c-4.232,-2.26 -4.232,-5.932 -0,-8.193Z" style="fill:#676767;fill-opacity:0.25;"/><path d="M92.491,127.382c4.736,-2.531 12.427,-2.531 17.163,-0c4.737,2.531 4.737,6.64 0,9.171c-4.736,2.53 -12.427,2.53 -17.163,-0c-4.737,-2.531 -4.737,-6.64 -0,-9.171Z" style="fill:#ededed;"/><path d="M88.949,131.697c0.122,-1.569 1.302,-3.119 3.542,-4.315c4.736,-2.531 12.427,-2.531 17.163,-0c2.239,1.196 3.42,2.745 3.542,4.313l0,0.002c-0.122,1.569 -1.302,3.118 -3.542,4.315c-4.736,2.53 -12.427,2.53 -17.163,-0c-2.24,-1.197 -3.42,-2.746 -3.542,-4.315Zm-0.011,0.231l0,0l0,0Zm24.268,0l0,0l0,0Zm-24.267,-0.04l0,0.003l0,-0.003Zm24.267,0l-0,0.003l-0,-0.003Zm-24.266,-0.039l0,0.003l0,-0.003Zm24.265,-0l-0,0.003l-0,-0.003Zm-0.002,-0.04l0,0.005l0,-0.005Zm-24.261,0l-0,0.005l-0,-0.005Zm0.002,-0.04l-0,0.006l-0,-0.006Zm24.257,0l0,0.006l-0,-0.006Zm-24.255,-0.039l-0,0.006l0,-0.006Zm24.253,-0l-0,0.006l-0,-0.006Z" style="fill:#d2d2d2;"/><path d="M93.406,126.893c4.231,-2.261 11.102,-2.261 15.333,-0c4.232,2.261 4.232,5.932 0,8.193c-4.231,2.261 -11.102,2.261 -15.333,-0c-4.232,-2.261 -4.232,-5.932 -0,-8.193Z" style="fill:#676767;fill-opacity:0.25;"/><path d="M92.491,125.336c4.736,-2.531 12.427,-2.531 17.163,-0c4.737,2.53 4.737,6.64 0,9.17c-4.736,2.531 -12.427,2.531 -17.163,0c-4.737,-2.53 -4.737,-6.64 -0,-9.17Z" style="fill:#ededed;"/><path d="M88.949,129.651c0.122,-1.569 1.302,-3.119 3.542,-4.315c4.736,-2.531 12.427,-2.531 17.163,-0c2.239,1.196 3.42,2.745 3.542,4.313l0,0.002c-0.122,1.569 -1.302,3.118 -3.542,4.314c-4.736,2.531 -12.427,2.531 -17.163,0c-2.24,-1.196 -3.42,-2.745 -3.542,-4.314Zm-0.011,0.231l0,0l0,0Zm24.268,0l0,0l0,0Zm-24.267,-0.04l0,0.002l0,-0.002Zm24.267,0l-0,0.002l-0,-0.002Zm-24.266,-0.039l0,0.003l0,-0.003Zm24.265,-0l-0,0.003l-0,-0.003Zm-0.002,-0.04l0,0.004l0,-0.004Zm-24.261,-0l-0,0.004l-0,-0.004Zm0.002,-0.04l-0,0.006l-0,-0.006Zm24.257,0l0,0.006l-0,-0.006Zm-24.255,-0.039l-0,0.006l0,-0.006Zm24.253,-0l-0,0.006l-0,-0.006Z" style="fill:#d2d2d2;"/><path d="M93.406,124.847c4.231,-2.261 11.102,-2.261 15.333,-0c4.232,2.261 4.232,5.932 0,8.193c-4.231,2.261 -11.102,2.261 -15.333,-0c-4.232,-2.261 -4.232,-5.932 -0,-8.193Z" style="fill:#676767;fill-opacity:0.25;"/><path d="M92.491,123.319c4.736,-2.531 12.427,-2.531 17.163,-0c4.737,2.531 4.737,6.64 0,9.171c-4.736,2.53 -12.427,2.53 -17.163,-0c-4.737,-2.531 -4.737,-6.64 -0,-9.171Z" style="fill:#ededed;"/><path d="M88.949,127.634c0.122,-1.569 1.302,-3.119 3.542,-4.315c4.736,-2.531 12.427,-2.531 17.163,-0c2.239,1.196 3.42,2.745 3.542,4.313l0,0.002c-0.122,1.569 -1.302,3.118 -3.542,4.315c-4.736,2.53 -12.427,2.53 -17.163,-0c-2.24,-1.197 -3.42,-2.746 -3.542,-4.315Zm-0.011,0.231l0,0.001l0,-0.001Zm24.268,0l0,0.001l0,-0.001Zm-24.267,-0.04l0,0.003l0,-0.003Zm24.267,0l-0,0.003l-0,-0.003Zm-24.266,-0.039l0,0.003l0,-0.003Zm24.265,-0l-0,0.003l-0,-0.003Zm-0.002,-0.04l0,0.005l0,-0.005Zm-24.261,0l-0,0.005l-0,-0.005Zm0.002,-0.04l-0,0.006l-0,-0.006Zm24.257,0l0,0.006l-0,-0.006Zm-24.255,-0.039l-0,0.006l0,-0.006Zm24.253,-0l-0,0.006l-0,-0.006Z" style="fill:#d2d2d2;"/><path d="M93.406,122.83c4.231,-2.261 11.102,-2.261 15.333,-0c4.232,2.261 4.232,5.932 0,8.193c-4.231,2.261 -11.102,2.261 -15.333,-0c-4.232,-2.261 -4.232,-5.932 -0,-8.193Z" style="fill:#676767;fill-opacity:0.25;"/><path d="M92.491,121.273c4.736,-2.531 12.427,-2.531 17.163,-0c4.737,2.53 4.737,6.64 0,9.171c-4.736,2.53 -12.427,2.53 -17.163,-0c-4.737,-2.531 -4.737,-6.641 -0,-9.171Z" style="fill:#ededed;"/><path d="M88.949,125.588c0.122,-1.569 1.302,-3.119 3.542,-4.315c4.736,-2.531 12.427,-2.531 17.163,-0c2.239,1.196 3.42,2.745 3.542,4.313l0,0.002c-0.122,1.569 -1.302,3.118 -3.542,4.315c-4.736,2.53 -12.427,2.53 -17.163,-0c-2.24,-1.197 -3.42,-2.746 -3.542,-4.315Zm-0.011,0.231l0,0l0,0Zm24.268,0l0,0l0,0Zm-24.267,-0.04l0,0.002l0,-0.002Zm24.267,0l-0,0.002l-0,-0.002Zm-24.266,-0.039l0,0.003l0,-0.003Zm24.265,-0l-0,0.003l-0,-0.003Zm-0.002,-0.04l0,0.005l0,-0.005Zm-24.261,-0l-0,0.005l-0,-0.005Zm0.002,-0.04l-0,0.006l-0,-0.006Zm24.257,0l0,0.006l-0,-0.006Zm-24.255,-0.039l-0,0.006l0,-0.006Zm24.253,-0l-0,0.006l-0,-0.006Z" style="fill:#d2d2d2;"/><path d="M93.406,120.784c4.231,-2.261 11.102,-2.261 15.333,-0c4.232,2.261 4.232,5.932 0,8.193c-4.231,2.261 -11.102,2.261 -15.333,-0c-4.232,-2.261 -4.232,-5.932 -0,-8.193Z" style="fill:#676767;fill-opacity:0.25;"/><path d="M92.491,119.189c4.736,-2.531 12.427,-2.531 17.163,-0c4.737,2.53 4.737,6.64 0,9.171c-4.736,2.53 -12.427,2.53 -17.163,-0c-4.737,-2.531 -4.737,-6.641 -0,-9.171Z" style="fill:#ededed;"/><path d="M88.949,123.504c0.122,-1.569 1.302,-3.119 3.542,-4.315c4.736,-2.531 12.427,-2.531 17.163,-0c2.239,1.196 3.42,2.745 3.542,4.313l0,0.002c-0.122,1.569 -1.302,3.118 -3.542,4.315c-4.736,2.53 -12.427,2.53 -17.163,-0c-2.24,-1.197 -3.42,-2.746 -3.542,-4.315Zm-0.011,0.231l0,0l0,0Zm24.268,0l0,0l0,0Zm-24.267,-0.04l0,0.002l0,-0.002Zm24.267,0l-0,0.002l-0,-0.002Zm-24.266,-0.039l0,0.003l0,-0.003Zm24.265,-0l-0,0.003l-0,-0.003Zm-0.002,-0.04l0,0.005l0,-0.005Zm-24.261,-0l-0,0.005l-0,-0.005Zm0.002,-0.04l-0,0.006l-0,-0.006Zm24.257,0l0,0.006l-0,-0.006Zm-24.255,-0.039l-0,0.006l0,-0.006Zm24.253,-0l-0,0.006l-0,-0.006Z" style="fill:#d2d2d2;"/><path d="M93.406,118.7c4.231,-2.261 11.102,-2.261 15.333,-0c4.232,2.261 4.232,5.932 0,8.193c-4.231,2.261 -11.102,2.261 -15.333,-0c-4.232,-2.261 -4.232,-5.932 -0,-8.193Z" style="fill:#676767;fill-opacity:0.25;"/><path d="M92.491,117.143c4.736,-2.531 12.427,-2.531 17.163,-0c4.737,2.53 4.737,6.64 0,9.17c-4.736,2.531 -12.427,2.531 -17.163,0c-4.737,-2.53 -4.737,-6.64 -0,-9.17Z" style="fill:#ededed;"/><path d="M88.949,121.457c0.122,-1.568 1.302,-3.118 3.542,-4.314c4.736,-2.531 12.427,-2.531 17.163,-0c2.239,1.196 3.42,2.745 3.542,4.313l0,0.001c-0.122,1.569 -1.302,3.119 -3.542,4.315c-4.736,2.531 -12.427,2.531 -17.163,0c-2.24,-1.196 -3.42,-2.746 -3.542,-4.315Zm-0.011,0.232l0,0l0,-0Zm24.268,-0l0,0l0,-0Zm-24.267,-0.04l0,0.002l0,-0.002Zm24.267,0l-0,0.002l-0,-0.002Zm-24.266,-0.039l0,0.003l0,-0.003Zm24.265,-0l-0,0.003l-0,-0.003Zm-0.002,-0.04l0,0.004l0,-0.004Zm-24.261,-0l-0,0.004l-0,-0.004Zm0.002,-0.04l-0,0.006l-0,-0.006Zm24.257,0l0,0.006l-0,-0.006Zm-24.255,-0.039l-0,0.006l0,-0.006Zm24.253,-0l-0,0.006l-0,-0.006Z" style="fill:#d2d2d2;"/><path d="M93.406,116.654c4.231,-2.261 11.102,-2.261 15.333,-0c4.232,2.261 4.232,5.932 0,8.193c-4.231,2.261 -11.102,2.261 -15.333,-0c-4.232,-2.261 -4.232,-5.932 -0,-8.193Z" style="fill:#676767;fill-opacity:0.25;"/><path d="M90.327,101.729c0.094,-0.338 1.01,-1.342 2.699,-1.883c0.488,-0.155 1.04,-0.273 1.655,-0.324c1.452,-0.121 2.986,-0.166 4.794,0.765c1.355,0.698 2.528,1.444 3.534,2.228c0.887,0.256 1.85,0.661 2.877,1.222c4.292,2.344 7.781,7.636 7.781,12.081c-0,1.137 -0.228,2.101 -0.64,2.869c-0.26,0.487 -1.665,2.133 -2.576,2.663c-0.889,0.518 -2.003,0.704 -2.933,0.912c-0.078,0.024 -0.156,0.046 -0.236,0.065l-0.034,0.009c-0.022,0.005 -0.045,0.01 -0.067,0.015l-0.068,0.014l-0.031,0.007c-0.045,0.008 -0.09,0.017 -0.135,0.024l-0.04,0.007l-0.07,0.01l-0.07,0.009l-0.041,0.005c-0.043,0.005 -0.085,0.009 -0.128,0.013l-0.045,0.004l-0.072,0.006l-0.073,0.004l-0.032,0.001l-0.041,0.002l-0.074,0.002l-0.043,0.001l-0.031,0l-0.023,0l-0.052,0l-0.055,-0l-0.02,-0.001l-0.034,-0l-0.041,-0.001l-0.076,-0.004l-0.047,-0.002l-0.03,-0.002l-0.025,-0.001l-0.051,-0.004l-0.06,-0.004l-0.055,-0.005l-0.04,-0.004l-0.078,-0.008l-0.05,-0.006l-0.029,-0.004l-0.028,-0.003l-0.055,-0.008c-0.022,-0.003 -0.045,-0.006 -0.067,-0.01l-0.049,-0.007l-0.047,-0.008l-0.072,-0.012l-0.053,-0.01l-0.058,-0.011l-0.054,-0.01c-0.024,-0.005 -0.048,-0.01 -0.072,-0.015l-0.049,-0.011l-0.045,-0.01c-0.025,-0.006 -0.05,-0.011 -0.075,-0.017l-0.057,-0.014l-0.059,-0.015l-0.052,-0.013c-0.025,-0.007 -0.051,-0.014 -0.076,-0.021l-0.051,-0.014l-0.043,-0.012c-0.051,-0.015 -0.103,-0.031 -0.155,-0.047l-0.042,-0.013l-0.048,-0.015l-0.001,0.014c0,-0 -2.474,1.388 -2.65,1.485c-0.209,0.115 -0.516,0.097 -0.858,-0.08l-2.281,-1.18c-0.629,-0.326 -1.14,-1.069 -1.14,-1.659l-0,-1.564c-0,0 -0.804,-0.522 -1.186,-0.84c-0.277,-0.231 -0.762,-0.703 -1.046,-0.983l-0.041,0.034c-0.005,0.005 -0.011,0.01 -0.017,0.015l-0.044,-0.15l-0.042,-0.041l-0.084,-0.061l-0.084,-0.061l-0.084,-0.063l-0.083,-0.062l-0.083,-0.064l-0.083,-0.064l-0.082,-0.065l-0.082,-0.066l-0.081,-0.067l-0.048,-0.039l-0.033,-0.028l-0.048,-0.04l-0.033,-0.028l-0.048,-0.041l-0.032,-0.027l-0.048,-0.042l-0.032,-0.028l-0.048,-0.042l-0.032,-0.028l-0.048,-0.042l-0.031,-0.028l-0.048,-0.044l-0.031,-0.028l-0.048,-0.043l-0.031,-0.028l-0.048,-0.045l-0.03,-0.028l-0.048,-0.045l-0.029,-0.028l-0.048,-0.046l-0.029,-0.028l-0.048,-0.046l-0.029,-0.028l-0.048,-0.047l-0.028,-0.028l-0.048,-0.048l-0.028,-0.028l-0.048,-0.048l-0.028,-0.028l-0.048,-0.049l-0.027,-0.028l-0.048,-0.05l-0.026,-0.027l-0.048,-0.05l-0.026,-0.028l-0.048,-0.051l-0.026,-0.028l-0.048,-0.051l-0.025,-0.028l-0.048,-0.052l-0.025,-0.027l-0.047,-0.053l-0.025,-0.027l-0.048,-0.054l-0.024,-0.027l-0.047,-0.054l-0.024,-0.027l-0.047,-0.054l-0.024,-0.027l-0.047,-0.056l-0.023,-0.027l-0.047,-0.055l-0.023,-0.027l-0.047,-0.057l-0.022,-0.026l-0.047,-0.057l-0.021,-0.027l-0.047,-0.057l-0.022,-0.027l-0.046,-0.058l-0.021,-0.026l-0.047,-0.059l-0.02,-0.026l-0.047,-0.06l-0.02,-0.025l-0.046,-0.061l-0.02,-0.025l-0.046,-0.061l-0.019,-0.025l-0.046,-0.062l-0.019,-0.025l-0.046,-0.062l-0.019,-0.025l-0.045,-0.063l-0.018,-0.024l-0.046,-0.064l-0.018,-0.024l-0.045,-0.064l-0.017,-0.024l-0.046,-0.065l-0.016,-0.024l-0.045,-0.065l-0.017,-0.024l-0.045,-0.065l-0.06,-0.09l-0.06,-0.09l-0.06,-0.091l-0.059,-0.091l-0.058,-0.091l-0.058,-0.091l-0.057,-0.092l-0.056,-0.092l-0.056,-0.093l-0.055,-0.092l-0.054,-0.093l-0.054,-0.093l-0.053,-0.094l-0.052,-0.094l-0.052,-0.093l-0.051,-0.095l-0.05,-0.094l-0.05,-0.095l-0.049,-0.094l-0.048,-0.095l-0.048,-0.095l-0.047,-0.096l-0.046,-0.095l-0.045,-0.096l-0.045,-0.096l-0.044,-0.096l-0.043,-0.096l-0.043,-0.096l-0.041,-0.097l-0.041,-0.096l-0.041,-0.097l-0.039,-0.096l-0.039,-0.097l-0.038,-0.097l-0.037,-0.097l-0.036,-0.097l-0.036,-0.097l-0.035,-0.097l-0.033,-0.097l-0.034,-0.097l-0.032,-0.097l-0.031,-0.097l-0.031,-0.097l-0.03,-0.098l-0.029,-0.097l-0.028,-0.097l-0.028,-0.097l-0.026,-0.097l-0.026,-0.097l-0.024,-0.097l-0.024,-0.097l-0.023,-0.097l-0.023,-0.096l-0.021,-0.097l-0.022,-0.104l-0.019,-0.096l-0.019,-0.096l-0.017,-0.096l-0.017,-0.096l-0.016,-0.095l-0.014,-0.096l-0.014,-0.095l-0.013,-0.095l-0.012,-0.095l-0.012,-0.095l-0.01,-0.094l-0.009,-0.095l-0.008,-0.094l-0.008,-0.094l-0.006,-0.094l-0.005,-0.093l-0.005,-0.094l-0.003,-0.093l-0.003,-0.093l-0.001,-0.092c-0.001,-0.031 -0.001,-0.062 -0.001,-0.092l0.001,-0.093l0.001,-0.092l0.001,-0.022l0.001,-0.028l0.001,-0.041l0.001,-0.033l0.001,-0.024l0.001,-0.034l0.002,-0.042l0.001,-0.021l0.002,-0.026l0.002,-0.03l0.001,-0.023l0.002,-0.036l0.003,-0.037l0.002,-0.026l0.002,-0.025l0.004,-0.046l0.003,-0.041l0.009,-0.084c0.003,-0.031 0.006,-0.061 0.01,-0.091c0.003,-0.025 0.006,-0.05 0.009,-0.075l0.001,-0.012c0.003,-0.024 0.007,-0.049 0.01,-0.073l0.002,-0.013c0.003,-0.024 0.007,-0.048 0.011,-0.073l0.001,-0.009c0.004,-0.026 0.008,-0.051 0.013,-0.076l0.007,-0.045l0.007,-0.04c0.005,-0.024 0.009,-0.047 0.014,-0.071l0.002,-0.012c0.005,-0.023 0.009,-0.047 0.014,-0.07l0.002,-0.011c0.005,-0.024 0.01,-0.047 0.016,-0.07l0.008,-0.039l0.01,-0.042c0.006,-0.024 0.011,-0.048 0.017,-0.072l0.003,-0.009c0.005,-0.022 0.011,-0.045 0.017,-0.067l0.003,-0.011l0.019,-0.071l0.002,-0.005c0.006,-0.023 0.013,-0.046 0.019,-0.069l0.012,-0.038l0.011,-0.038c0.007,-0.022 0.015,-0.045 0.022,-0.067l0.003,-0.009c0.007,-0.021 0.014,-0.042 0.021,-0.064l0.003,-0.009c0.008,-0.022 0.015,-0.043 0.023,-0.065l0.002,-0.006c0.016,-0.045 0.033,-0.09 0.05,-0.134l0.002,-0.004c0.008,-0.021 0.017,-0.042 0.025,-0.063l0.004,-0.008c0.008,-0.021 0.017,-0.041 0.025,-0.062l0.004,-0.007c0.008,-0.021 0.017,-0.041 0.027,-0.062l0.001,-0.003c0.019,-0.043 0.039,-0.086 0.059,-0.127l0.002,-0.005c0.01,-0.02 0.02,-0.04 0.03,-0.06l0.003,-0.006c0.01,-0.02 0.02,-0.039 0.03,-0.059l0.003,-0.005c0.032,-0.061 0.065,-0.122 0.1,-0.181l0.002,-0.003c0.011,-0.019 0.023,-0.038 0.034,-0.057l0.003,-0.005c0.011,-0.019 0.023,-0.037 0.034,-0.056l0.002,-0.002c0.037,-0.058 0.074,-0.115 0.113,-0.17l0.002,-0.003c0.013,-0.018 0.025,-0.035 0.038,-0.053l0.002,-0.003c0.053,-0.073 0.109,-0.143 0.166,-0.212l0.001,-0.002c0.014,-0.017 0.029,-0.033 0.043,-0.05l0.001,-0.001c0.044,-0.05 0.089,-0.1 0.135,-0.148l0,0c0.015,-0.016 0.031,-0.031 0.046,-0.047l0.001,-0.001c0.063,-0.063 0.127,-0.123 0.194,-0.181l-0,0c0.016,-0.014 0.033,-0.029 0.05,-0.043l0,0c0.068,-0.057 0.137,-0.111 0.208,-0.162l0,-0.001c0.018,-0.012 0.036,-0.025 0.054,-0.038Zm13.713,16.205l0.054,0.006l0.008,0.001l0.051,0.005l0.01,0.001l0.051,0.004l0.061,0.004l0.051,0.002l0.009,-0l0.049,0.001l0.009,-0l0.05,-0.001l0.039,-0l0.033,-0.002l0.031,-0.001l0.03,-0.002l0.03,-0.002l0.029,-0.002l0.037,-0.004l0.032,-0.004l0.03,-0.003l0.029,-0.004l0.029,-0.005l0.028,-0.004l0.036,-0.007l0.031,-0.006l0.029,-0.006l0.028,-0.006l0.027,-0.007l0.028,-0.006l0.033,-0.009l0.031,-0.009l0.027,-0.008l0.027,-0.009l0.026,-0.008l0.026,-0.009l0.032,-0.012l0.029,-0.011l0.027,-0.01l0.025,-0.011l0.025,-0.011l0.025,-0.011l0.03,-0.014l0.028,-0.013l0.025,-0.013l0.024,-0.013l0.024,-0.012l0.024,-0.014l0.028,-0.016l0.027,-0.016l0.023,-0.015l0.023,-0.015l0.022,-0.014l0.022,-0.016l0.027,-0.018l0.026,-0.019l0.021,-0.017l0.022,-0.017l0.02,-0.017l0.021,-0.017l0.025,-0.022l0.024,-0.021l0.02,-0.018l0.02,-0.019l0.019,-0.018l0.019,-0.019l0.019,-0.02l0.017,-0.018l0.018,-0.02l0.019,-0.02l0.017,-0.02l0.018,-0.021l0.017,-0.021l0.01,-0.013l0.015,-0.019l0.017,-0.022l0.016,-0.022l0.017,-0.022l0.015,-0.022l0.016,-0.023l0.009,-0.014l0.029,-0.044l0.028,-0.047l0.026,-0.045l0.025,-0.044l0.025,-0.049l0.022,-0.045l0.024,-0.053l0.021,-0.05l0.022,-0.053l0.018,-0.048l0.02,-0.055l0.018,-0.056l0.016,-0.051l0.002,-0.006l0.015,-0.055l0.015,-0.055l0.013,-0.054l0.001,-0.007l0.012,-0.053l0.012,-0.062c-0.419,0.175 -1.552,0.724 -2.303,1.092c-0.063,0.071 -0.13,0.136 -0.201,0.195l-0.013,0.01l-0.013,0.011c-0.027,0.022 -0.054,0.042 -0.082,0.062l-0.001,0.001c-0.028,0.019 -0.055,0.038 -0.084,0.056l-0.002,0.001c-0.028,0.018 -0.057,0.035 -0.086,0.051l-0.015,0.008l-0.018,0.01c-0.019,0.01 -0.039,0.02 -0.059,0.03l-0.017,0.008l-0.018,0.008c-0.02,0.01 -0.04,0.018 -0.06,0.027l-0.045,0.018l-0.023,0.009l-0.032,0.012l-0.047,0.016l-0.023,0.008c-0.01,0.003 -0.019,0.006 -0.029,0.009c0.269,0.074 0.563,0.128 0.711,0.153l0,-0.007Zm0.543,-6.995l0.02,0.073l0.003,-0.047l-0.023,-0.026Zm-3.999,-1.542l0.029,0.046l0.026,0.041c0.009,0.014 0.017,0.029 0.026,0.043l0.028,0.047l0.021,0.035l0.029,0.049c0.008,0.014 0.016,0.029 0.024,0.044l0.027,0.047l0.017,0.032l0.027,0.05l0.024,0.046l0.025,0.048l0.014,0.029l0.012,0.023l0.014,0.028l0.022,0.048l0.023,0.048l0.013,0.028l0.011,0.024l0.012,0.027l0.021,0.049l0.021,0.049l0.011,0.027l0.01,0.024l0.011,0.028l0.02,0.05l0.018,0.047l0.018,0.052l0.011,0.029l0.017,0.05l0.016,0.046l0.016,0.051l0.01,0.031l0.016,0.05l0.013,0.045c-0,-0 -0.029,-0.038 -0.029,-0.038c-0.307,-0.419 -0.512,-0.882 -0.624,-1.373Z" style="fill:#f5f5f5;"/><path d="M94.808,117.169c-3.602,-2.569 -6.33,-7.259 -6.33,-11.19c0,-4.446 3.487,-6.24 7.781,-4.027c1.355,0.697 2.528,1.443 3.535,2.227c0.886,0.257 1.849,0.662 2.876,1.222c4.293,2.344 7.781,7.636 7.781,12.081c-0,3.935 -2.732,5.8 -6.337,4.636l-0.001,0.014c0,-0 -0.488,-0.024 -1.336,-0.294l-1.032,-0.343l0,1.564c0,0.59 -0.511,0.804 -1.14,0.478l-2.281,-1.18c-0.629,-0.326 -1.14,-1.069 -1.14,-1.659l-0,-1.564c-0,0 -0.804,-0.522 -1.186,-0.84c-0.333,-0.278 -0.966,-0.902 -1.19,-1.125Zm9.232,0.772l0,-0.007c1.472,0.187 2.52,-0.742 2.52,-2.465c0,-1.503 -0.797,-3.228 -1.977,-4.53c0.281,1.021 0.41,2.061 0.41,3.106c0,2.247 -0.54,3.399 -1.664,3.743c0.269,0.074 0.563,0.128 0.711,0.153Zm-4.331,-9.636c1.115,1.15 1.7,2.436 1.7,3.697c0,1.293 -0.169,1.779 -0.841,1.833c-0.137,0.011 -0.63,-0.015 -1.119,-0.231c-0.49,-0.216 -0.976,-0.622 -1.144,-0.798c-0.629,-0.663 -1.035,-1.517 -1.035,-2.685c-0,-1.483 0.837,-2.106 2.439,-1.816Zm-4.171,5.389c-1.168,-1.534 -1.773,-3.274 -1.773,-5.497c0,-1.062 0.207,-1.941 0.593,-2.624c-1.186,0.079 -1.989,0.912 -1.989,2.419c-0,1.723 1.048,3.738 2.52,5.074l-0,0.012c0.125,0.124 0.396,0.39 0.649,0.616Z" style="fill:#fff;fill-opacity:0.66;"/><path d="M89.006,121.04l-0.068,-0.035c-2.229,-1.142 -4.239,-2.588 -5.959,-4.276c-3.983,-3.907 -6.413,-9.107 -6.413,-14.811c-0,-12.124 10.981,-21.968 24.506,-21.968c13.526,0 24.507,9.844 24.507,21.968c0,8.169 -4.984,15.302 -12.373,19.087l-0.067,0.035c0.373,1.881 -0.789,3.833 -3.485,5.273c-4.736,2.531 -12.427,2.531 -17.163,0c-2.696,-1.44 -3.858,-3.392 -3.485,-5.273Z" style="fill:#ffd607;fill-opacity:0.43;"/><path d="M100,79.971l0,2.66c-11.539,0.502 -20.735,9.059 -20.735,19.525c-0,5.076 2.162,9.703 5.706,13.18c1.531,1.502 3.32,2.789 5.304,3.805l0.06,0.031c-0.332,1.674 0.702,3.411 3.101,4.693c4.214,2.252 11.058,2.252 15.273,0c2.399,-1.282 3.433,-3.019 3.101,-4.693l0.06,-0.031c6.575,-3.368 11.01,-9.716 11.01,-16.985c0,-10.115 -8.588,-18.446 -19.581,-19.448l0,-2.668c12.484,1.01 22.28,10.427 22.28,21.878c0,8.169 -4.984,15.302 -12.373,19.087l-0.067,0.035c0.373,1.881 -0.789,3.833 -3.485,5.273c-4.736,2.531 -12.427,2.531 -17.163,0c-2.696,-1.44 -3.858,-3.392 -3.485,-5.273l-0.068,-0.035c-2.229,-1.142 -4.239,-2.588 -5.959,-4.276c-3.983,-3.907 -6.413,-9.107 -6.413,-14.811c-0,-11.802 10.404,-21.443 23.434,-21.947Z" style="fill:#fff;fill-opacity:0.38;"/><path d="M135.744,107.364l-0.003,0.023c0.725,5.622 -2.632,11.387 -10.071,15.681c-13.556,7.827 -35.569,7.827 -49.125,0c-7.439,-4.294 -10.796,-10.059 -10.071,-15.681l-0.003,-0.023l5.634,-0l-0.004,0.023c0.584,3.791 3.387,7.491 8.41,10.391c11.368,6.563 29.825,6.563 41.193,-0c5.023,-2.9 7.826,-6.6 8.41,-10.391l-0.004,-0.023l5.634,-0Z" style="fill:#4d4d4d;"/><path d="M135.77,107.631c0.597,5.545 -2.769,11.205 -10.1,15.437c-13.556,7.827 -35.569,7.827 -49.125,0c-7.331,-4.232 -10.697,-9.892 -10.1,-15.437c0.508,4.709 3.875,9.332 10.1,12.927c13.556,7.826 35.569,7.826 49.125,-0c6.225,-3.595 9.592,-8.218 10.1,-12.927Z" style="fill:#323232;fill-opacity:0.42;"/><path d="M104.573,87.386l-6.999,0l-0,64.745c-0,0.927 0.369,1.817 1.025,2.473c0.656,0.656 1.545,1.025 2.473,1.025c0.001,-0 0.002,-0 0.003,-0c0.927,-0 1.817,-0.369 2.473,-1.025c0.656,-0.656 1.025,-1.546 1.025,-2.473c-0,-13.936 -0,-64.745 -0,-64.745Z" style="fill:#4d4d4d;"/><path d="M104.573,87.386l-6.999,0l-0,64.745c-0,0.927 0.369,1.817 1.025,2.473c0.656,0.656 1.545,1.025 2.473,1.025c0.001,-0 0.002,-0 0.003,-0c0.927,-0 1.817,-0.369 2.473,-1.025c0.656,-0.656 1.025,-1.546 1.025,-2.473c-0,-13.936 -0,-64.745 -0,-64.745Z" style="fill:#302f2f;fill-opacity:0.38;"/><path d="M76.877,58.902c-0.093,-0.878 -0.044,-1.759 0.147,-2.631c0.651,-2.974 2.829,-21.104 24.207,-21.005c20.777,0.095 24.391,19.678 24.05,23.499c-0.004,0.046 -0.009,0.091 -0.013,0.137c9.845,7.04 9.103,17.395 -2.227,23.936c-12.125,7 -31.812,7 -43.937,0c-11.33,-6.541 -12.072,-16.896 -2.227,-23.936Z" style="fill:#4d4d4d;"/><path d="M128.318,61.528c6.471,6.812 4.712,15.543 -5.277,21.31c-12.125,7 -31.812,7 -43.937,0c-4.93,-2.846 -7.855,-6.414 -8.775,-10.116c1.383,1.456 3.142,2.824 5.277,4.057c12.124,7 31.812,7 43.936,-0c7.195,-4.154 10.12,-9.845 8.776,-15.251Z" style="fill:#2b2b2b;fill-opacity:0.51;"/><path d="M124.088,51.79c1.029,3.133 1.298,5.8 1.193,6.975c-0.298,3.338 -2.653,6.625 -7.064,9.172c-9.462,5.463 -24.827,5.463 -34.289,-0c-2.727,-1.574 -4.668,-3.432 -5.823,-5.409c10.573,5.994 27.582,5.96 38.081,-0.101c4.921,-2.841 7.548,-6.509 7.881,-10.233c0.011,-0.121 0.018,-0.255 0.021,-0.404Z" style="fill:#2d2d2d;fill-opacity:0.45;"/><path d="M135.837,107.711c-0.129,2.242 -0.455,4.174 -2.177,7.222c0,-0 -0.139,1.855 -0.238,2.642c-0.959,7.676 -4.424,14.577 -9.55,19.858c-0.354,0.365 -1.086,1.072 -1.086,1.072c0.389,0.382 0.733,1.026 0.961,2.334c0,0 0.772,-0.707 1.184,-1.095c6.714,-6.34 10.906,-15.323 10.906,-25.277l-0,-6.756Zm-2.145,-8.986l2.145,4.641l-0,-10.224c-0,-6.165 -1.608,-11.956 -4.427,-16.979c-0.231,-0.412 -0.718,-1.219 -0.718,-1.219l-0.751,1.246c-0,-0 0.423,0.854 0.621,1.288c2.01,4.395 3.13,9.281 3.13,14.426l-0,6.821Z" style="fill:#353535;fill-opacity:0.71;"/><path d="M109.873,27.161l0,4.566l5.141,-3.621l3.893,2.248l-11.577,5.738l-2.009,-1.16l4.552,-3.205l0,-4.566l-10.182,7.633l-0,1.936l6.619,3.822l19.604,-9.265l0,-1.936l-10.712,-6.185l-5.329,3.995Z" style="fill:#4d4d4d;"/><path d="M106.31,38.615l-6.619,-3.821l-0,1.936l6.619,3.822l19.604,-9.265l0,-1.936l-19.604,9.264Zm-0.989,-3.683l9.693,-6.826l3.893,2.248l-11.577,5.738l13.382,-6.633l-5.698,-3.289l-11.204,7.89l1.511,0.872Z" style="fill:#353535;fill-opacity:0.71;"/><path d="M96.423,37.655c-0.018,-0.168 -0.008,-0.338 0.028,-0.505c0.125,-0.572 0.544,-4.056 4.652,-4.037c3.992,0.019 4.687,3.782 4.621,4.516c-0,0.009 -0.001,0.018 -0.002,0.026c1.892,1.353 1.749,3.343 -0.428,4.6c-2.33,1.345 -6.113,1.345 -8.443,0c-2.177,-1.257 -2.32,-3.247 -0.428,-4.6Z" style="fill:#4d4d4d;"/><path d="M106.308,38.16c1.243,1.309 0.905,2.987 -1.014,4.095c-2.33,1.345 -6.113,1.345 -8.443,0c-0.947,-0.547 -1.509,-1.233 -1.686,-1.944c0.265,0.28 0.603,0.543 1.014,0.78c2.33,1.345 6.113,1.345 8.443,-0c1.382,-0.799 1.944,-1.892 1.686,-2.931Z" style="fill:#2b2b2b;fill-opacity:0.51;"/><path d="M105.495,36.289c0.198,0.602 0.25,1.114 0.229,1.34c-0.057,0.641 -0.509,1.273 -1.357,1.763c-1.818,1.049 -4.771,1.049 -6.589,-0c-0.524,-0.303 -0.897,-0.66 -1.119,-1.04c2.032,1.152 5.3,1.146 7.318,-0.019c0.945,-0.546 1.45,-1.251 1.514,-1.967c0.002,-0.023 0.004,-0.049 0.004,-0.077Z" style="fill:#2d2d2d;fill-opacity:0.45;"/><path d="M72.263,120.165l-2.364,-2.343c0,0 0.207,1.073 0.332,1.601c1.627,6.887 5.887,12.966 11.417,17.054c0.188,0.139 0.568,0.41 0.568,0.41l0.253,-0.152c-0,-0 -0.307,-0.253 -0.459,-0.381c-4.587,-3.893 -7.969,-9.163 -9.506,-15.17c-0.086,-0.337 -0.241,-1.019 -0.241,-1.019Zm-2.821,-19.251c0.502,3.303 1.281,5.57 2.145,6.153l0,-11.288c0,-4.943 1.219,-9.603 3.373,-13.697c0.256,-0.487 0.808,-1.437 0.808,-1.437l-1.832,-1.749c-0,-0 -0.497,0.814 -0.731,1.23c-2.396,4.263 -3.763,9.18 -3.763,14.414l0,6.374Z" style="fill:#353535;fill-opacity:0.71;"/></svg>