<?xml version="1.0" encoding="UTF-8" standalone="no"?><!DOCTYPE svg PUBLIC "-//W3C//DTD SVG 1.1//EN" "http://www.w3.org/Graphics/SVG/1.1/DTD/svg11.dtd"><svg width="100%" height="100%" viewBox="0 0 200 200" version="1.1" xmlns="http://www.w3.org/2000/svg" xmlns:xlink="http://www.w3.org/1999/xlink" xml:space="preserve" xmlns:serif="http://www.serif.com/" style="fill-rule:evenodd;clip-rule:evenodd;stroke-linejoin:round;stroke-miterlimit:2;"><path d="M73.93,162.819c0.859,-3.049 3.322,-5.974 7.389,-8.322c10.31,-5.953 27.053,-5.953 37.364,-0c3.775,2.18 6.169,4.858 7.179,7.668l0.023,0l3.935,10.763c0,0 -0.094,1.001 -0.197,1.499c-0.769,3.698 -3.609,7.28 -8.521,10.116c-11.646,6.724 -30.557,6.724 -42.203,-0c-5.398,-3.117 -8.294,-7.134 -8.688,-11.217c-0.053,-0.55 -0.023,-1.651 -0.023,-1.651l3.742,-8.856Z" style="fill:#654c39;"/><path d="M125.862,162.165l0.023,0l3.935,10.763c0,0 -0.094,1.001 -0.197,1.499c-0.769,3.698 -3.609,7.28 -8.521,10.116c-11.646,6.724 -30.557,6.724 -42.203,-0c-5.398,-3.117 -8.294,-7.134 -8.688,-11.217c-0.053,-0.55 -0.023,-1.651 -0.023,-1.651l3.742,-8.856c0.008,-0.027 0.015,-0.053 0.023,-0.079c-1.369,4.701 1.086,9.704 7.366,13.329c10.31,5.953 27.053,5.953 37.364,0c6.535,-3.773 8.928,-9.037 7.179,-13.904Z" style="fill:#838282;fill-opacity:0.2;"/><path d="M104.328,89.305c0.047,5.892 0.118,14.806 0.193,24.455c0.177,23.001 0.373,50.187 0.311,50.615c-0.086,0.599 -0.526,1.183 -1.318,1.64c-0.487,0.281 -1.057,0.486 -1.665,0.613c-0.307,-0.128 -0.596,-0.328 -0.843,-0.6c-0.442,-0.485 -0.679,-1.251 -0.699,-1.887c-0.019,-0.585 -0.23,-54.837 -0.307,-74.819c0.724,0.01 1.448,0.01 2.171,-0.001c0.72,0.033 1.439,0.028 2.157,-0.016Z" style="fill:#838282;fill-opacity:0.2;"/><path d="M95.154,89.09c3.045,0.248 6.122,0.303 9.173,0.166c0.048,5.891 0.119,14.827 0.194,24.504c0.177,23.001 0.373,50.187 0.311,50.615c-0.086,0.599 -0.526,1.183 -1.318,1.64c-1.778,1.027 -4.666,1.027 -6.445,0c-0.841,-0.485 -1.292,-1.251 -1.33,-1.887c-0.035,-0.587 -0.439,-55.241 -0.585,-75.038Z" style="fill:#4c392b;"/><path d="M73.203,48.129c0.198,-3.807 2.81,-7.58 7.837,-10.482c10.464,-6.042 27.456,-6.042 37.92,-0c5.027,2.902 7.639,6.675 7.837,10.482l0.012,-0l14.748,42.8c0,0 -0.116,1.619 -0.28,2.425c-1.053,5.173 -5.014,10.186 -11.883,14.152c-16.226,9.368 -42.571,9.368 -58.797,0c-7.519,-4.341 -11.553,-9.936 -12.104,-15.624c-0.065,-0.677 -0.048,-2.033 -0.048,-2.033l14.746,-41.72l0.012,-0Z" style="fill:#d1c483;"/><path d="M126.797,48.129l0.012,-0l14.748,42.8c0,0 -0.116,1.619 -0.28,2.425c-1.053,5.173 -5.014,10.186 -11.883,14.152c-16.226,9.368 -42.571,9.368 -58.797,0c-7.519,-4.341 -11.553,-9.936 -12.104,-15.624c-0.065,-0.677 -0.048,-2.033 -0.048,-2.033l14.746,-41.72l0.012,-0c0.002,-0.03 0.004,-0.06 0.006,-0.09c-0.256,4.146 2.355,8.34 7.831,11.501c10.464,6.042 27.456,6.042 37.92,0c5.438,-3.139 8.05,-7.296 7.837,-11.411Zm-0.006,-0.09l0.006,0.09l-0.006,-0.09Z" style="fill:#b4b3ae;fill-opacity:0.21;"/><path d="M81.928,37.157c10.516,-5.547 26.859,-5.384 37.032,0.49c5.027,2.902 7.639,6.675 7.837,10.482l0.012,-0l14.748,42.8c0,0 -0.116,1.619 -0.28,2.425c-1.053,5.173 -5.014,10.186 -11.883,14.152c-0.812,0.469 -1.648,0.914 -2.506,1.334l0.03,-0.088c0.281,-0.868 0.634,-2.641 0.634,-2.641l-8.322,-49.207l-0.012,-0.001c0.365,-4.23 -1.67,-8.74 -6.226,-12.609c-7.782,-6.608 -20.52,-9.305 -31.064,-7.137Z" style="fill:#838282;fill-opacity:0.09;"/><circle cx="100" cy="86.757" r="76.343" style="fill:#d1bd5c;fill-opacity:0.07;"/><circle cx="100" cy="86.757" r="55.587" style="fill:#d1bd5c;fill-opacity:0.07;"/><circle cx="100" cy="86.757" r="34.404" style="fill:#d1bd5c;fill-opacity:0.07;"/><path d="M92.441,64.193c5.77,0.333 11.574,0.516 13.643,0.062l-0.486,10.325c0,-0 0.915,0.527 1.164,0.674c3.937,2.321 6.582,6.606 6.582,11.503c-0,7.365 -5.979,13.344 -13.344,13.344c-7.365,-0 -13.344,-5.979 -13.344,-13.344c0,-5.083 2.849,-9.506 7.036,-11.759c0.279,-0.15 0.856,-0.421 0.856,-0.421l-2.107,-10.384Z" style="fill:#d1bd5c;fill-opacity:0.07;"/></svg>