<?xml version="1.0" encoding="UTF-8" standalone="no"?><!DOCTYPE svg PUBLIC "-//W3C//DTD SVG 1.1//EN" "http://www.w3.org/Graphics/SVG/1.1/DTD/svg11.dtd"><svg width="100%" height="100%" viewBox="0 0 200 200" version="1.1" xmlns="http://www.w3.org/2000/svg" xmlns:xlink="http://www.w3.org/1999/xlink" xml:space="preserve" xmlns:serif="http://www.serif.com/" style="fill-rule:evenodd;clip-rule:evenodd;stroke-linejoin:round;stroke-miterlimit:2;"><path d="M170.504,54.348c-0.005,-0.264 -0.029,-1.506 0.012,-1.852c0.022,-0.188 0.076,-0.376 0.163,-0.565c0.731,-1.574 3.539,-2.51 6.266,-2.088c2.278,0.352 3.785,1.541 3.793,2.841c0.002,0.256 0.016,1.418 -0.003,1.73c-0.013,0.22 -0.069,0.442 -0.172,0.664c-0.471,1.015 -1.805,1.765 -3.423,2.056l-1,18.711c1.882,0.444 3.108,1.488 3.176,2.633c0.017,0.285 0.008,1.463 0.003,1.751c-0.005,0.242 -0.062,0.488 -0.175,0.732c-0.731,1.575 -3.539,2.511 -6.266,2.089c-1.119,-0.173 -2.052,-0.548 -2.712,-1.039l-26.209,4.23c-0.006,0.239 -0.062,0.483 -0.175,0.725c-0.731,1.575 -3.538,2.511 -6.266,2.089c-0.882,-0.137 -1.649,-0.399 -2.258,-0.745l-18.651,7.518c-0.028,0.152 0.022,1.009 0.028,1.274c0.005,0.264 -0.051,0.533 -0.175,0.801c-0.41,0.883 -1.472,1.565 -2.807,1.919l2.973,21.326c2.097,0.336 3.529,1.384 3.722,2.569c0.056,0.34 0.028,1.638 0.023,1.926c-0.005,0.242 -0.062,0.488 -0.175,0.732c-0.731,1.575 -3.539,2.511 -6.266,2.089c-0.882,-0.136 -1.648,-0.398 -2.257,-0.743l-21.226,6.305c0,-0 -0.048,0.725 -0.05,0.797c-0.004,0.243 -0.061,0.49 -0.175,0.736c-0.424,0.914 -1.548,1.613 -2.95,1.955l1.718,20.469c2.164,0.36 3.608,1.482 3.692,2.722c0.02,0.29 0.019,1.519 0.001,1.828c-0.012,0.222 -0.069,0.446 -0.172,0.67c-0.731,1.574 -3.539,2.51 -6.266,2.088c-2.177,-0.336 -3.649,-1.437 -3.783,-2.668c-0.034,-0.312 -0.02,-1.567 -0.009,-1.865c0.009,-0.233 0.065,-0.468 0.174,-0.702c0.439,-0.946 1.628,-1.662 3.099,-1.991l-1.713,-20.409c-0.019,-0.003 -0.038,-0.006 -0.057,-0.009c-2.284,-0.353 -3.793,-1.548 -3.793,-2.852c0,-0.253 -0.022,-1.441 0.007,-1.77c0.019,-0.204 0.074,-0.409 0.169,-0.613c0.731,-1.575 3.538,-2.511 6.266,-2.089c0.756,0.117 1.427,0.326 1.986,0.601l21.622,-6.423c-0.125,-0.411 -0.1,-0.843 0.099,-1.272c0.426,-0.919 1.559,-1.62 2.971,-1.961l-2.964,-21.258c-0.042,-0.006 -0.084,-0.012 -0.125,-0.018c-2.278,-0.353 -3.784,-1.542 -3.793,-2.841c-0.002,-0.257 -0.019,-1.435 0.004,-1.755c0.016,-0.212 0.072,-0.426 0.171,-0.64c0.731,-1.575 3.539,-2.511 6.266,-2.089c0.484,0.075 0.934,0.188 1.342,0.332l19.616,-7.906c-0.125,-0.411 -0.101,-0.844 0.099,-1.274c0.73,-1.575 3.538,-2.511 6.266,-2.089c1.212,0.188 2.207,0.613 2.872,1.165l26.052,-4.204c-0.019,-0.288 0.035,-0.583 0.171,-0.876c0.502,-1.082 1.985,-1.863 3.748,-2.108l0.993,-18.592c-2.099,-0.403 -3.472,-1.533 -3.497,-2.767Z" style="fill:#25bcb2;"/><path d="M174.087,55.514c-2.6,-0.471 -4.119,-2.049 -3.408,-3.583c0.731,-1.574 3.539,-2.51 6.266,-2.088c2.728,0.422 4.349,2.043 3.618,3.617c-0.471,1.015 -1.805,1.765 -3.423,2.056l-1.085,20.31c2.404,0.537 3.771,2.047 3.089,3.518c-0.731,1.574 -3.539,2.51 -6.266,2.088c-1.119,-0.173 -2.052,-0.548 -2.712,-1.039l-26.209,4.23c-0.006,0.24 -0.062,0.483 -0.175,0.725c-0.731,1.575 -3.538,2.511 -6.266,2.089c-0.882,-0.137 -1.649,-0.399 -2.258,-0.744l-19.033,7.671c0.433,0.586 0.542,1.258 0.235,1.921c-0.432,0.93 -1.588,1.638 -3.025,1.974l3.191,22.889c2.698,0.433 4.296,2.044 3.57,3.61c-0.731,1.574 -3.539,2.51 -6.266,2.088c-0.882,-0.136 -1.648,-0.398 -2.257,-0.743l-21.426,6.364c0.202,0.469 0.207,0.974 -0.025,1.474c-0.437,0.943 -1.619,1.656 -3.083,1.987l1.851,22.055c2.669,0.445 4.243,2.046 3.521,3.602c-0.731,1.574 -3.539,2.51 -6.266,2.088c-2.728,-0.421 -4.349,-2.043 -3.618,-3.617c0.452,-0.975 1.7,-1.705 3.232,-2.019l-1.846,-21.999c-0.019,-0.003 -0.038,-0.006 -0.057,-0.009c-2.727,-0.422 -4.348,-2.043 -3.617,-3.617c0.731,-1.575 3.538,-2.511 6.266,-2.089c0.756,0.117 1.427,0.326 1.986,0.601l21.622,-6.423c-0.125,-0.411 -0.1,-0.843 0.099,-1.272c0.448,-0.966 1.677,-1.691 3.189,-2.011l-3.182,-22.826c-0.042,-0.006 -0.084,-0.012 -0.125,-0.018c-2.728,-0.422 -4.349,-2.043 -3.618,-3.618c0.731,-1.575 3.539,-2.511 6.266,-2.089c0.484,0.075 0.934,0.188 1.342,0.332l19.616,-7.906c-0.125,-0.411 -0.101,-0.844 0.099,-1.274c0.73,-1.575 3.538,-2.511 6.266,-2.089c1.212,0.188 2.207,0.613 2.872,1.165l26.052,-4.204c-0.019,-0.288 0.035,-0.583 0.171,-0.876c0.502,-1.082 1.985,-1.863 3.748,-2.108l1.079,-20.193Z" style="fill:#fff;fill-opacity:0.25;"/><path d="M144.9,39.124c0.008,-0.234 -0.016,-1.351 0.002,-1.662c0.013,-0.22 0.07,-0.443 0.173,-0.665c0.73,-1.574 3.538,-2.51 6.266,-2.088c2.199,0.34 3.68,1.46 3.786,2.707c0.026,0.299 -0.002,1.455 0.006,1.715c0.007,0.268 -0.049,0.541 -0.175,0.813c-0.572,1.234 -2.419,2.075 -4.503,2.179l-3.198,16.452c1.424,0.548 2.293,1.483 2.28,2.48c-0.003,0.245 0.01,1.36 -0.001,1.659c-0.009,0.232 -0.066,0.467 -0.174,0.702c-0.731,1.574 -3.539,2.51 -6.266,2.088c-0.93,-0.143 -1.73,-0.426 -2.354,-0.799l-24.494,4.843c0.067,0.354 0.024,0.721 -0.145,1.086c-0.731,1.575 -3.539,2.511 -6.266,2.089c-0.07,-0.011 -0.139,-0.022 -0.208,-0.035l-11.974,10.609c0.263,0.358 0.405,0.749 0.405,1.149c-0.001,0.252 0.02,1.43 -0.006,1.754c-0.017,0.208 -0.073,0.418 -0.17,0.627c-0.314,0.677 -1.01,1.235 -1.919,1.619l3.096,22.209c2.245,0.361 3.728,1.536 3.745,2.823c0.003,0.26 0.021,1.454 -0.006,1.778c-0.017,0.208 -0.072,0.418 -0.169,0.627c-0.461,0.993 -1.748,1.732 -3.319,2.037l-1.159,18.495c1.933,0.447 3.182,1.526 3.21,2.7c0.007,0.266 0.019,1.457 -0.003,1.773c-0.015,0.216 -0.071,0.434 -0.171,0.651c-0.731,1.575 -3.539,2.51 -6.266,2.088c-1.258,-0.194 -2.281,-0.644 -2.946,-1.226l-27.517,3.627c-0.024,0.178 -0.077,0.358 -0.159,0.536c-0.731,1.575 -3.539,2.511 -6.266,2.089c-2.262,-0.35 -3.762,-1.524 -3.793,-2.812c-0.006,-0.266 -0.027,-1.501 0.009,-1.84c0.021,-0.194 0.076,-0.389 0.166,-0.583c0.731,-1.575 3.538,-2.511 6.266,-2.089c1.325,0.205 2.389,0.693 3.049,1.322l27.402,-3.613c0.015,-0.214 0.071,-0.43 0.171,-0.646c0.49,-1.055 1.911,-1.823 3.617,-2.089l1.151,-18.382c-2.04,-0.39 -3.395,-1.467 -3.495,-2.66c-0.025,-0.298 -0.011,-1.503 -0.006,-1.791c0.005,-0.243 0.062,-0.489 0.175,-0.733c0.426,-0.919 1.559,-1.62 2.971,-1.961l-3.035,-21.763c-0.353,-0.01 -0.71,-0.042 -1.065,-0.097c-2.23,-0.345 -3.721,-1.492 -3.79,-2.76c-0.015,-0.283 -0.002,-1.432 -0.003,-1.708c0,-0.254 0.057,-0.511 0.176,-0.767c0.713,-1.538 3.408,-2.467 6.075,-2.116l12.204,-10.812c-0.166,-0.303 -0.248,-0.624 -0.235,-0.95c0.01,-0.231 -0.016,-1.34 0.002,-1.651c0.013,-0.22 0.069,-0.443 0.172,-0.665c0.731,-1.574 3.539,-2.51 6.266,-2.088c0.992,0.153 1.837,0.465 2.476,0.875l24.394,-4.823c-0.096,-0.383 -0.062,-0.784 0.123,-1.182c0.571,-1.231 2.41,-2.071 4.488,-2.178l3.199,-16.458c-1.432,-0.556 -2.298,-1.503 -2.265,-2.509Z" style="fill:#001b35;"/><path d="M147.458,40.121c-1.957,-0.652 -2.996,-2.004 -2.383,-3.324c0.73,-1.574 3.538,-2.51 6.266,-2.088c2.727,0.422 4.348,2.043 3.617,3.617c-0.572,1.234 -2.419,2.075 -4.503,2.179l-3.492,17.965c1.967,0.65 3.013,2.005 2.399,3.328c-0.731,1.575 -3.539,2.51 -6.266,2.088c-0.93,-0.143 -1.73,-0.426 -2.354,-0.799l-24.494,4.843c0.067,0.354 0.024,0.722 -0.145,1.086c-0.731,1.575 -3.539,2.511 -6.266,2.089c-0.07,-0.011 -0.139,-0.022 -0.208,-0.035l-12.874,11.406c1.111,0.718 1.593,1.735 1.129,2.734c-0.338,0.728 -1.12,1.319 -2.133,1.703l3.31,23.742c2.699,0.434 4.296,2.045 3.57,3.611c-0.461,0.993 -1.748,1.731 -3.319,2.036l-1.259,20.091c2.433,0.528 3.822,2.048 3.136,3.528c-0.731,1.575 -3.539,2.511 -6.266,2.089c-1.258,-0.195 -2.281,-0.645 -2.946,-1.227l-27.517,3.627c-0.024,0.178 -0.077,0.358 -0.159,0.537c-0.731,1.574 -3.539,2.51 -6.266,2.088c-2.728,-0.422 -4.349,-2.043 -3.618,-3.617c0.731,-1.575 3.538,-2.511 6.266,-2.089c1.325,0.205 2.389,0.693 3.049,1.322l27.402,-3.613c0.015,-0.214 0.071,-0.43 0.171,-0.646c0.49,-1.055 1.911,-1.823 3.617,-2.089l1.251,-19.981c-2.611,-0.466 -4.139,-2.048 -3.426,-3.585c0.448,-0.966 1.677,-1.691 3.189,-2.011l-3.253,-23.33c-0.353,-0.011 -0.71,-0.043 -1.065,-0.098c-2.727,-0.422 -4.348,-2.043 -3.617,-3.617c0.713,-1.538 3.408,-2.467 6.075,-2.116l13.011,-11.527c-0.922,-0.703 -1.293,-1.634 -0.868,-2.551c0.731,-1.574 3.539,-2.51 6.266,-2.088c0.992,0.153 1.837,0.465 2.476,0.875l24.394,-4.823c-0.096,-0.383 -0.062,-0.784 0.123,-1.182c0.571,-1.231 2.41,-2.071 4.488,-2.178l3.492,-17.97Z" style="fill:#fff;fill-opacity:0.17;"/><path d="M165.994,49.247c0,0.251 0.01,1.296 0.001,1.552c-0.01,0.272 0.046,0.549 0.174,0.825c0.122,0.262 0.301,0.507 0.528,0.73l-9.341,11.997c-0.855,-0.139 -1.783,-0.151 -2.703,-0.009c-2.312,0.358 -3.829,1.577 -3.792,2.9l-26.796,4.276c-1.064,-1.229 -3.512,-1.9 -5.9,-1.531c-1.637,0.253 -2.875,0.939 -3.446,1.786l-39.169,-2.134c-1.015,-1.292 -3.531,-2.01 -5.982,-1.63c-2.247,0.347 -3.743,1.509 -3.791,2.789c-0.011,0.273 -0.003,1.409 -0.001,1.688c0.001,0.251 0.057,0.505 0.175,0.758c0.35,0.754 1.176,1.361 2.241,1.743l-4.576,15.196c-0.253,0.016 -0.507,0.044 -0.76,0.083c-2.308,0.357 -3.824,1.573 -3.793,2.892c0.006,0.24 -0.005,1.321 -0,1.608c0.004,0.243 0.061,0.49 0.175,0.736c0.417,0.898 1.509,1.588 2.876,1.937l-1.916,17.994c-0.294,0.015 -0.591,0.045 -0.886,0.09c-2.127,0.329 -3.581,1.387 -3.772,2.584l-27.348,3.91c-1.246,-0.803 -3.212,-1.182 -5.138,-0.884c-2.018,0.312 -3.43,1.28 -3.733,2.4c-0.106,0.394 -0.05,1.753 -0.059,2.009c-0.01,0.272 0.046,0.55 0.174,0.826c0.731,1.575 3.539,2.511 6.266,2.089c2.452,-0.38 4.01,-1.728 3.768,-3.141l26.754,-3.825c1.136,1.117 3.464,1.708 5.736,1.357c2.152,-0.333 3.615,-1.412 3.778,-2.626c0.044,-0.325 0.009,-1.544 0.015,-1.809c0.005,-0.264 -0.051,-0.533 -0.175,-0.801c-0.336,-0.724 -1.112,-1.314 -2.118,-1.697l1.949,-18.311c0.032,-0.004 0.063,-0.009 0.095,-0.014c2.231,-0.345 3.721,-1.492 3.79,-2.76c0.016,-0.282 0.007,-1.448 0.003,-1.733c-0.004,-0.245 -0.06,-0.494 -0.175,-0.742c-0.324,-0.697 -1.054,-1.269 -2.004,-1.653l4.61,-15.308c0.163,-0.016 0.326,-0.036 0.489,-0.061c1.929,-0.299 3.305,-1.198 3.686,-2.256l38.627,2.106c0.005,0.013 0.011,0.026 0.018,0.04c0.73,1.574 3.538,2.51 6.266,2.088c2.003,-0.31 3.409,-1.266 3.725,-2.376l27.329,-4.362c1.214,0.945 3.347,1.416 5.434,1.094c2.247,-0.348 3.744,-1.51 3.792,-2.789c0.01,-0.274 -0.007,-1.373 -0,-1.633c0.008,-0.269 -0.048,-0.542 -0.175,-0.814c-0.067,-0.145 -0.152,-0.284 -0.253,-0.417l9.536,-12.247c0.72,0.075 1.479,0.062 2.233,-0.054c2.284,-0.354 3.793,-1.548 3.793,-2.852c-0,-0.253 0.005,-1.363 -0.001,-1.651c-0.004,-0.242 -0.061,-0.488 -0.175,-0.733c-0.73,-1.574 -3.538,-2.51 -6.265,-2.088c-2.289,0.354 -3.798,1.552 -3.793,2.858Z" style="fill:#d1d1d1;"/><path d="M151.868,68.956c1.214,0.944 3.347,1.415 5.434,1.093c2.727,-0.422 4.348,-2.043 3.617,-3.618c-0.193,-0.417 -0.533,-0.789 -0.978,-1.104l10.261,-13.178c0.72,0.076 1.479,0.063 2.233,-0.054c2.727,-0.422 4.348,-2.043 3.617,-3.618c-0.73,-1.574 -3.538,-2.51 -6.265,-2.088c-2.728,0.422 -4.349,2.043 -3.618,3.617c0.241,0.52 0.708,0.97 1.324,1.325l-10.137,13.02c-0.855,-0.139 -1.783,-0.151 -2.703,-0.009c-2.312,0.358 -3.829,1.577 -3.792,2.9l-26.796,4.276c-1.064,-1.229 -3.512,-1.9 -5.9,-1.531c-1.637,0.253 -2.875,0.939 -3.446,1.786l-39.169,-2.134c-1.015,-1.292 -3.531,-2.01 -5.982,-1.63c-2.727,0.421 -4.348,2.042 -3.617,3.617c0.397,0.856 1.407,1.523 2.685,1.886l-5.02,16.671c-0.253,0.016 -0.507,0.044 -0.76,0.083c-2.728,0.422 -4.349,2.043 -3.618,3.618c0.434,0.934 1.598,1.643 3.044,1.978l-2.084,19.571c-0.294,0.015 -0.591,0.045 -0.886,0.09c-2.127,0.329 -3.581,1.387 -3.772,2.584l-27.348,3.91c-1.246,-0.803 -3.212,-1.182 -5.138,-0.884c-2.728,0.422 -4.349,2.043 -3.618,3.617c0.731,1.575 3.539,2.511 6.266,2.089c2.452,-0.379 4.01,-1.728 3.768,-3.141l26.754,-3.825c1.136,1.117 3.464,1.708 5.736,1.357c2.728,-0.422 4.349,-2.043 3.618,-3.618c-0.355,-0.764 -1.198,-1.377 -2.283,-1.758l2.114,-19.867c0.032,-0.005 0.063,-0.01 0.095,-0.015c2.727,-0.421 4.348,-2.042 3.618,-3.617c-0.372,-0.801 -1.281,-1.436 -2.443,-1.812l5.049,-16.767c0.163,-0.016 0.326,-0.036 0.489,-0.061c1.929,-0.299 3.305,-1.197 3.686,-2.255l38.627,2.105c0.005,0.013 0.011,0.026 0.018,0.04c0.73,1.575 3.538,2.51 6.266,2.088c2.003,-0.309 3.409,-1.266 3.725,-2.376l27.329,-4.361Z" style="fill:#fff;fill-opacity:0.29;"/></svg>
