<?xml version="1.0" encoding="UTF-8" standalone="no"?><!DOCTYPE svg PUBLIC "-//W3C//DTD SVG 1.1//EN" "http://www.w3.org/Graphics/SVG/1.1/DTD/svg11.dtd"><svg width="100%" height="100%" viewBox="0 0 200 200" version="1.1" xmlns="http://www.w3.org/2000/svg" xmlns:xlink="http://www.w3.org/1999/xlink" xml:space="preserve" xmlns:serif="http://www.serif.com/" style="fill-rule:evenodd;clip-rule:evenodd;stroke-linejoin:round;stroke-miterlimit:2;"><path d="M124.432,85.935l13.92,1.014c0.219,-0.398 0.475,-0.785 0.768,-1.149c1.079,-1.342 2.366,-2.017 3.36,-1.889l16.376,-27.232c-0.811,-1.323 -0.26,-3.871 1.27,-5.774c1.197,-1.489 2.65,-2.157 3.675,-1.819c0.314,0.103 1.389,0.734 1.629,0.917c0.131,0.101 0.251,0.225 0.355,0.374c0.907,1.29 0.368,3.924 -1.203,5.878c-1.012,1.259 -2.207,1.931 -3.172,1.904l-16.469,27.388c0.669,1.363 0.101,3.779 -1.365,5.604c-1.193,1.484 -2.64,2.152 -3.665,1.821c-0.318,-0.102 -1.391,-0.734 -1.629,-0.913c-0.135,-0.102 -0.258,-0.229 -0.365,-0.381c-0.283,-0.403 -0.425,-0.936 -0.439,-1.538l-14.037,-1.023c-0.191,0.325 -0.408,0.642 -0.649,0.942c-1.289,1.603 -2.874,2.254 -3.903,1.724c-0.219,-0.114 -1.164,-0.64 -1.404,-0.825c-0.13,-0.1 -0.249,-0.224 -0.352,-0.371c-0.116,-0.165 -0.208,-0.352 -0.277,-0.556l-13.673,5.087c-0.265,0.912 -0.743,1.856 -1.405,2.679c-0.928,1.154 -2.009,1.815 -2.926,1.896l-16.557,32.025c0.884,1.298 0.343,3.912 -1.219,5.854c-1.316,1.638 -2.942,2.282 -3.968,1.688c-0.192,-0.112 -1.006,-0.571 -1.218,-0.705c-0.179,-0.112 -0.338,-0.263 -0.473,-0.455c-0.144,-0.206 -0.252,-0.445 -0.324,-0.711l-13.684,2.835c-0.277,0.692 -0.672,1.381 -1.17,2.001c-0.941,1.17 -2.04,1.833 -2.964,1.899l-16.51,30.537c0.863,1.306 0.318,3.901 -1.234,5.831c-1.213,1.509 -2.689,2.174 -3.716,1.805c-0.297,-0.107 -1.401,-0.741 -1.655,-0.958c-0.105,-0.09 -0.202,-0.196 -0.288,-0.319c-0.907,-1.29 -0.368,-3.924 1.203,-5.878c0.972,-1.21 2.113,-1.877 3.056,-1.904l16.468,-30.459c-0.007,-0.009 -0.013,-0.017 -0.019,-0.026c-0.907,-1.291 -0.368,-3.924 1.202,-5.878c1.188,-1.478 2.628,-2.146 3.652,-1.826c0.324,0.101 1.415,0.742 1.655,0.927c0.131,0.1 0.249,0.224 0.352,0.371c0.098,0.139 0.179,0.293 0.243,0.461l13.89,-2.878c0.267,-0.593 0.618,-1.176 1.046,-1.708c0.963,-1.198 2.092,-1.864 3.03,-1.903l16.511,-31.937c-0.014,-0.019 -0.028,-0.038 -0.042,-0.058c-0.907,-1.29 -0.368,-3.924 1.203,-5.878c1.228,-1.527 2.725,-2.19 3.753,-1.79c0.281,0.109 1.161,0.655 1.352,0.76c0.165,0.09 0.315,0.212 0.447,0.365l14.415,-5.363c0.266,-0.593 0.618,-1.176 1.047,-1.709c1.258,-1.566 2.799,-2.223 3.828,-1.759c0.25,0.113 1.156,0.646 1.372,0.785c0.173,0.111 0.327,0.26 0.458,0.446c0.317,0.45 0.457,1.063 0.438,1.754Z" style="fill:#25bcb2;"/><path d="M160.026,57.355c-0.811,-1.324 -0.26,-3.872 1.27,-5.775c1.571,-1.954 3.582,-2.493 4.489,-1.203c0.907,1.29 0.368,3.924 -1.203,5.878c-1.012,1.259 -2.207,1.931 -3.172,1.904l-16.469,27.388c0.669,1.363 0.101,3.779 -1.365,5.604c-1.571,1.954 -3.582,2.493 -4.489,1.202c-0.372,-0.529 -0.501,-1.284 -0.415,-2.126l-15.231,-1.11c-0.191,0.325 -0.408,0.642 -0.649,0.942c-1.571,1.954 -3.583,2.493 -4.489,1.203c-0.294,-0.417 -0.436,-0.975 -0.441,-1.606l-14.679,5.462c-0.265,0.912 -0.743,1.856 -1.405,2.679c-0.928,1.154 -2.009,1.815 -2.926,1.896l-16.557,32.025c0.884,1.298 0.343,3.912 -1.219,5.854c-1.571,1.954 -3.582,2.493 -4.489,1.203c-0.293,-0.417 -0.435,-0.974 -0.44,-1.604l-14.738,3.053c-0.277,0.692 -0.672,1.381 -1.17,2.001c-0.941,1.17 -2.04,1.833 -2.964,1.899l-16.51,30.537c0.863,1.306 0.318,3.901 -1.234,5.831c-1.571,1.954 -3.582,2.493 -4.489,1.203c-0.907,-1.29 -0.368,-3.924 1.203,-5.878c0.972,-1.209 2.113,-1.877 3.056,-1.904l16.468,-30.458c-0.007,-0.009 -0.013,-0.018 -0.019,-0.027c-0.907,-1.29 -0.368,-3.924 1.202,-5.878c1.571,-1.954 3.583,-2.493 4.489,-1.203c0.252,0.358 0.392,0.819 0.43,1.34l14.873,-3.081c0.267,-0.593 0.618,-1.176 1.046,-1.709c0.963,-1.198 2.092,-1.864 3.03,-1.903l16.511,-31.936c-0.014,-0.019 -0.028,-0.038 -0.042,-0.058c-0.907,-1.29 -0.368,-3.924 1.203,-5.878c1.571,-1.954 3.582,-2.493 4.489,-1.203c0.161,0.229 0.276,0.501 0.349,0.803l15.129,-5.628c0.266,-0.593 0.618,-1.177 1.046,-1.71c1.571,-1.954 3.583,-2.493 4.489,-1.203c0.404,0.574 0.521,1.414 0.389,2.341l15.139,1.103c0.219,-0.398 0.475,-0.786 0.768,-1.15c1.079,-1.342 2.366,-2.016 3.36,-1.889l16.376,-27.231Z" style="fill:#fff;fill-opacity:0.25;"/><path d="M144.081,58.737l-0.007,-0.002c-0.016,-0.002 -0.032,-0.005 -0.048,-0.007l-0.046,-0.006c-0.277,-0.374 -0.673,-0.608 -1.172,-0.652c-1.332,-0.119 -2.98,1.144 -4.003,2.956l-14.304,-1.105c0.186,-1.241 -0.087,-2.262 -0.738,-2.76c-0.222,-0.17 -1.061,-0.616 -1.227,-0.722c-0.212,-0.136 -0.46,-0.221 -0.741,-0.246c-0.895,-0.08 -1.932,0.464 -2.826,1.379l-15.135,-12.382c0.433,-1.579 0.177,-2.922 -0.625,-3.497c-0.214,-0.154 -1.083,-0.642 -1.293,-0.755c-0.188,-0.1 -0.401,-0.163 -0.637,-0.184c-1.571,-0.141 -3.582,1.643 -4.489,3.98c-0.493,1.27 -0.559,2.444 -0.264,3.274l-15.395,21.399c-0.127,-0.044 -0.264,-0.073 -0.41,-0.086c-1.571,-0.141 -3.583,1.643 -4.489,3.98c-0.538,1.387 -0.568,2.659 -0.174,3.494l-16.343,26.121c-0.145,-0.057 -0.303,-0.095 -0.473,-0.11c-1.225,-0.109 -2.718,0.951 -3.746,2.531l-14.383,-1.711c-0.047,-0.642 -0.248,-1.175 -0.584,-1.536c-0.256,-0.274 -1.303,-0.835 -1.499,-0.946c-0.195,-0.111 -0.419,-0.18 -0.669,-0.203c-1.571,-0.14 -3.582,1.644 -4.489,3.981c-0.7,1.803 -0.539,3.413 0.293,4.118c0.234,0.199 1.202,0.737 1.426,0.85c0.18,0.091 0.382,0.148 0.604,0.168c1.412,0.126 3.181,-1.303 4.182,-3.291l13.963,1.66c-0.123,1.159 0.169,2.099 0.805,2.556c0.215,0.154 1.431,0.895 1.931,0.94c1.571,0.14 3.582,-1.644 4.489,-3.981c0.44,-1.134 0.539,-2.191 0.346,-2.995l16.59,-26.515c0.017,0.002 0.036,0.004 0.054,0.005c1.57,0.141 3.582,-1.643 4.489,-3.98c0.461,-1.189 0.548,-2.293 0.316,-3.11l15.483,-21.522c0.086,0.022 0.176,0.037 0.27,0.045c1.065,0.095 2.333,-0.694 3.321,-1.941l14.895,12.185c-0.008,0.02 -0.016,0.04 -0.023,0.06c-0.714,1.839 -0.532,3.476 0.343,4.159c0.224,0.175 1.129,0.676 1.336,0.788c0.19,0.102 0.405,0.167 0.644,0.188c1.153,0.103 2.545,-0.831 3.562,-2.261l14.688,1.135c-0.004,0.954 0.304,1.712 0.875,2.093c0.205,0.138 1.032,0.605 1.235,0.717c0.192,0.105 0.41,0.172 0.653,0.193c1.571,0.141 3.582,-1.643 4.489,-3.98c0.24,-0.62 0.379,-1.216 0.424,-1.761l15.027,-15.265c0.268,0.291 0.623,0.473 1.057,0.511c1.571,0.141 3.582,-1.643 4.489,-3.98c0.724,-1.866 0.527,-3.524 -0.381,-4.188c-0.217,-0.159 -1.123,-0.675 -1.355,-0.788c-0.175,-0.086 -0.371,-0.141 -0.587,-0.16c-1.571,-0.14 -3.582,1.643 -4.489,3.981c-0.299,0.771 -0.441,1.507 -0.44,2.152l-14.795,15.029Z" style="fill:#d1d1d1;"/><path d="M139.034,64.272c-0.191,1.605 0.406,2.807 1.608,2.914c1.571,0.141 3.582,-1.643 4.489,-3.98c0.24,-0.62 0.379,-1.216 0.424,-1.761l15.027,-15.265c0.268,0.291 0.623,0.473 1.057,0.511c1.571,0.141 3.582,-1.643 4.489,-3.98c0.907,-2.337 0.368,-4.349 -1.203,-4.489c-1.571,-0.141 -3.582,1.643 -4.489,3.98c-0.299,0.772 -0.441,1.508 -0.44,2.152l-14.847,15.083c-0.279,-0.413 -0.692,-0.673 -1.221,-0.72c-1.331,-0.119 -2.98,1.144 -4.003,2.955l-15.535,-1.199c0.484,-1.954 -0.1,-3.51 -1.475,-3.633c-0.943,-0.084 -2.044,0.524 -2.97,1.53l-16.111,-13.18c0.555,-2.027 -0.023,-3.664 -1.435,-3.79c-1.57,-0.14 -3.582,1.644 -4.489,3.981c-0.492,1.27 -0.558,2.444 -0.264,3.274l-15.394,21.399c-0.128,-0.044 -0.265,-0.073 -0.411,-0.086c-1.571,-0.141 -3.582,1.643 -4.489,3.98c-0.538,1.387 -0.567,2.659 -0.174,3.494l-16.342,26.121c-0.146,-0.058 -0.304,-0.095 -0.474,-0.11c-1.225,-0.109 -2.717,0.951 -3.745,2.531l-15.497,-1.843c0.065,-1.422 -0.529,-2.454 -1.639,-2.553c-1.57,-0.14 -3.582,1.644 -4.489,3.981c-0.907,2.337 -0.368,4.349 1.203,4.489c1.412,0.126 3.181,-1.303 4.182,-3.291l15.161,1.803c-0.363,1.82 0.229,3.236 1.538,3.353c1.571,0.14 3.582,-1.644 4.489,-3.981c0.44,-1.134 0.539,-2.191 0.346,-2.995l16.59,-26.515c0.017,0.002 0.036,0.004 0.054,0.005c1.57,0.141 3.582,-1.643 4.489,-3.98c0.461,-1.189 0.548,-2.293 0.316,-3.11l15.483,-21.522c0.086,0.022 0.176,0.037 0.27,0.045c1.112,0.099 2.443,-0.764 3.449,-2.106l15.887,12.997c-0.008,0.02 -0.015,0.04 -0.023,0.059c-0.907,2.338 -0.368,4.349 1.203,4.489c1.153,0.103 2.545,-0.831 3.562,-2.261l15.843,1.224Z" style="fill:#fff;fill-opacity:0.4;"/><path d="M124.74,51.761l13.634,-0.16c0.258,-0.548 0.589,-1.086 0.986,-1.579c1.227,-1.527 2.724,-2.19 3.752,-1.791l15.723,-23.57c-0.376,-1.401 0.215,-3.516 1.531,-5.153c1.249,-1.553 2.776,-2.212 3.805,-1.77c0.266,0.115 1.298,0.715 1.541,0.883c0.156,0.108 0.296,0.247 0.416,0.419c0.907,1.29 0.368,3.924 -1.203,5.878c-1.23,1.53 -2.731,2.193 -3.759,1.788l-15.718,23.562c0.382,1.401 -0.21,3.522 -1.529,5.164c-1.174,1.46 -2.594,2.13 -3.615,1.837c-0.345,-0.099 -1.521,-0.794 -1.773,-0.982c-0.139,-0.103 -0.265,-0.232 -0.374,-0.387c-0.188,-0.268 -0.314,-0.593 -0.381,-0.958l-13.721,0.161c-0.248,0.501 -0.557,0.99 -0.921,1.443c-1.57,1.954 -3.582,2.493 -4.489,1.203l-0.025,-0.037l-0.052,-0.004l-0.056,-0.006l-14.753,12.11c-0.061,1.269 -0.642,2.782 -1.638,4.021c-0.727,0.904 -1.547,1.505 -2.309,1.762l-17.174,33.218c0.884,1.298 0.342,3.913 -1.219,5.855c-0.991,1.232 -2.156,1.902 -3.11,1.905l-16.376,27.044c0.689,1.358 0.124,3.794 -1.352,5.63c-1.177,1.465 -2.602,2.134 -3.624,1.835c-0.341,-0.1 -1.35,-0.743 -1.552,-0.847c-0.225,-0.116 -0.423,-0.288 -0.585,-0.52c-0.34,-0.482 -0.476,-1.153 -0.433,-1.906l-14.019,-2.076c-0.151,0.237 -0.316,0.467 -0.494,0.689c-1.226,1.525 -2.72,2.188 -3.748,1.793c-0.29,-0.112 -1.355,-0.739 -1.598,-0.907c-0.155,-0.108 -0.295,-0.247 -0.416,-0.418c-0.907,-1.29 -0.368,-3.924 1.203,-5.878c1.257,-1.564 2.797,-2.222 3.827,-1.76c0.256,0.115 1.199,0.682 1.418,0.81c0.197,0.115 0.371,0.275 0.517,0.482c0.362,0.516 0.494,1.248 0.42,2.065l13.939,2.064c0.176,-0.288 0.372,-0.568 0.587,-0.836c1.052,-1.309 2.302,-1.983 3.285,-1.897l16.287,-26.897c-0.819,-1.321 -0.269,-3.877 1.265,-5.785c0.963,-1.198 2.092,-1.864 3.03,-1.903l16.876,-32.642c-0.152,-0.107 -0.289,-0.244 -0.407,-0.412c-0.907,-1.29 -0.368,-3.924 1.203,-5.878c1.534,-1.909 3.489,-2.467 4.424,-1.29l14.977,-12.295c0.134,-1.198 0.699,-2.565 1.613,-3.702c1.249,-1.555 2.778,-2.213 3.807,-1.768c0.265,0.114 1.241,0.697 1.468,0.836c0.184,0.113 0.348,0.267 0.486,0.464c0.211,0.3 0.344,0.673 0.403,1.093Z" style="fill:#001b35;"/><path d="M160.107,25.396c-0.376,-1.402 0.216,-3.516 1.532,-5.154c1.571,-1.954 3.582,-2.492 4.489,-1.202c0.907,1.29 0.368,3.924 -1.203,5.878c-1.23,1.53 -2.731,2.193 -3.759,1.788l-15.718,23.562c0.382,1.401 -0.21,3.522 -1.529,5.164c-1.571,1.954 -3.582,2.492 -4.489,1.202c-0.309,-0.439 -0.45,-1.035 -0.44,-1.706l-14.935,0.175c-0.248,0.501 -0.557,0.99 -0.921,1.443c-1.57,1.954 -3.582,2.493 -4.489,1.203c-0.023,-0.033 -0.045,-0.067 -0.067,-0.102l-14.819,12.165c-0.061,1.269 -0.642,2.782 -1.638,4.021c-0.727,0.904 -1.547,1.505 -2.309,1.762l-17.174,33.218c0.884,1.298 0.342,3.913 -1.219,5.855c-0.991,1.232 -2.156,1.902 -3.11,1.905l-16.376,27.044c0.689,1.358 0.124,3.794 -1.352,5.63c-1.57,1.954 -3.582,2.493 -4.489,1.203c-0.418,-0.595 -0.529,-1.476 -0.372,-2.444l-15.352,-2.273c-0.151,0.237 -0.316,0.467 -0.494,0.689c-1.571,1.954 -3.582,2.493 -4.489,1.203c-0.907,-1.29 -0.368,-3.924 1.202,-5.878c1.571,-1.954 3.583,-2.493 4.49,-1.203c0.44,0.627 0.539,1.571 0.345,2.6l15.287,2.264c0.175,-0.288 0.371,-0.568 0.586,-0.836c1.052,-1.309 2.302,-1.983 3.286,-1.897l16.287,-26.898c-0.819,-1.32 -0.269,-3.876 1.265,-5.784c0.963,-1.198 2.091,-1.864 3.03,-1.903l16.876,-32.642c-0.152,-0.107 -0.289,-0.244 -0.407,-0.412c-0.907,-1.29 -0.368,-3.924 1.203,-5.878c1.534,-1.909 3.488,-2.467 4.423,-1.29l14.978,-12.295c0.134,-1.198 0.698,-2.565 1.612,-3.702c1.571,-1.954 3.582,-2.493 4.489,-1.203c0.33,0.469 0.468,1.116 0.436,1.842l14.873,-0.175c0.259,-0.548 0.59,-1.085 0.987,-1.579c1.227,-1.526 2.723,-2.189 3.752,-1.791l15.722,-23.569Z" style="fill:#fff;fill-opacity:0.19;"/></svg>