<?xml version="1.0" encoding="UTF-8" standalone="no"?><!DOCTYPE svg PUBLIC "-//W3C//DTD SVG 1.1//EN" "http://www.w3.org/Graphics/SVG/1.1/DTD/svg11.dtd"><svg width="100%" height="100%" viewBox="0 0 200 200" version="1.1" xmlns="http://www.w3.org/2000/svg" xmlns:xlink="http://www.w3.org/1999/xlink" xml:space="preserve" xmlns:serif="http://www.serif.com/" style="fill-rule:evenodd;clip-rule:evenodd;stroke-linejoin:round;stroke-miterlimit:2;"><path d="M177.019,69.9c-0.488,-1.821 0.28,-3.815 1.99,-4.802c2.04,-1.178 4.653,-0.478 5.831,1.562c1.178,2.041 0.478,4.653 -1.562,5.831c-1.599,0.923 -3.548,0.693 -4.884,-0.43l-20.417,16.298c0.496,1.824 -0.272,3.826 -1.986,4.815c-2.04,1.178 -4.653,0.478 -5.831,-1.562c-0.401,-0.695 -0.585,-1.457 -0.571,-2.206l-19.401,-9.502c-0.322,0.402 -0.722,0.752 -1.195,1.025c-2.04,1.178 -4.653,0.478 -5.831,-1.563c-0.03,-0.052 -0.059,-0.104 -0.087,-0.158l-19.25,4.06c-0.079,1.389 -0.834,2.713 -2.128,3.46c-0.944,0.544 -2.01,0.687 -3,0.482l-22.308,26.214c1.149,2.035 0.445,4.624 -1.583,5.795c-1.287,0.743 -2.801,0.739 -4.039,0.123l-21.273,19.787c0.896,1.975 0.162,4.349 -1.755,5.456c-2.041,1.178 -4.653,0.478 -5.831,-1.563c-0.544,-0.941 -0.687,-2.003 -0.485,-2.991l-19.941,-12.528c-0.196,0.168 -0.41,0.32 -0.642,0.454c-2.04,1.178 -4.653,0.478 -5.831,-1.562c-1.178,-2.041 -0.478,-4.653 1.563,-5.831c2.04,-1.178 4.653,-0.478 5.831,1.562c0.572,0.991 0.701,2.118 0.448,3.15l19.858,12.475c0.228,-0.21 0.482,-0.398 0.761,-0.56c1.367,-0.789 2.991,-0.735 4.268,-0l21.157,-19.68c-1.064,-2.017 -0.35,-4.535 1.642,-5.685c1.251,-0.723 2.717,-0.739 3.936,-0.173l21.922,-25.76c-0.198,-0.219 -0.376,-0.462 -0.529,-0.728c-1.178,-2.04 -0.478,-4.653 1.562,-5.831c1.993,-1.151 4.532,-0.509 5.747,1.422l19.455,-4.103c0.174,-1.261 0.907,-2.432 2.094,-3.118c2.04,-1.178 4.653,-0.478 5.831,1.563c0.428,0.741 0.608,1.559 0.566,2.355l19.32,9.463c0.336,-0.448 0.766,-0.838 1.281,-1.135c1.595,-0.921 3.539,-0.694 4.874,0.422l20.423,-16.303Z" style="fill:#001b35;"/><path d="M177,101.34c-1.053,-2.015 -0.337,-4.524 1.65,-5.671c2.041,-1.178 4.653,-0.478 5.831,1.562c1.178,2.041 0.478,4.653 -1.562,5.831c-1.315,0.76 -2.868,0.739 -4.121,0.082l-21.393,20.113c0.869,1.967 0.132,4.318 -1.773,5.417c-2.04,1.178 -4.653,0.478 -5.831,-1.562c-0.483,-0.837 -0.65,-1.771 -0.538,-2.662l-19.785,-11.14c-0.248,0.241 -0.53,0.457 -0.844,0.638c-2.04,1.178 -4.653,0.478 -5.831,-1.563c-0.381,-0.66 -0.566,-1.38 -0.572,-2.092l-19.068,-3.391c-0.344,0.855 -0.965,1.606 -1.825,2.102c-1.205,0.696 -2.61,0.737 -3.801,0.233l-21.507,25.272c1.149,2.034 0.446,4.623 -1.583,5.794c-2.04,1.178 -4.653,0.478 -5.831,-1.562c-0.381,-0.66 -0.565,-1.379 -0.572,-2.091l-19.144,-6.137c-0.36,0.599 -0.872,1.117 -1.52,1.491c-1.222,0.705 -2.649,0.737 -3.85,0.211l-21.445,23.629c1.12,2.03 0.412,4.595 -1.604,5.759c-2.04,1.178 -4.653,0.477 -5.831,-1.563c-1.178,-2.04 -0.478,-4.653 1.563,-5.831c1.263,-0.729 2.745,-0.739 3.97,-0.156l21.391,-23.569c-0.009,-0.014 -0.017,-0.028 -0.025,-0.043c-1.178,-2.04 -0.478,-4.653 1.562,-5.831c2.041,-1.178 4.653,-0.477 5.831,1.563c0.327,0.565 0.509,1.175 0.559,1.785l19.319,6.194c0.346,-0.494 0.803,-0.921 1.359,-1.242c1.25,-0.722 2.717,-0.739 3.935,-0.173l21.448,-25.203c-0.018,-0.03 -0.037,-0.061 -0.055,-0.092c-1.178,-2.041 -0.478,-4.653 1.563,-5.831c2.04,-1.178 4.653,-0.478 5.831,1.562c0.209,0.362 0.359,0.743 0.453,1.13l19.652,3.495c0.346,-0.494 0.803,-0.922 1.359,-1.244c2.041,-1.178 4.654,-0.478 5.832,1.563c0.523,0.907 0.676,1.927 0.504,2.885l19.666,11.073c0.283,-0.306 0.617,-0.575 0.997,-0.794c1.401,-0.809 3.073,-0.732 4.365,0.057l21.271,-19.998Z" style="fill:#25bcb2;"/><path d="M150.155,101.967c-0.248,1.681 0.528,3.422 2.089,4.323c2.04,1.178 4.653,0.478 5.831,-1.562c0.312,-0.541 0.493,-1.122 0.551,-1.705l19.52,-7.413c0.348,0.502 0.809,0.936 1.373,1.262c2.04,1.178 4.653,0.478 5.831,-1.563c1.178,-2.04 0.478,-4.653 -1.563,-5.831c-2.04,-1.178 -4.653,-0.478 -5.831,1.563c-0.389,0.673 -0.573,1.409 -0.572,2.135l-19.286,7.323c-0.362,-0.646 -0.898,-1.206 -1.585,-1.603c-1.73,-0.998 -3.871,-0.647 -5.2,0.726l-20.179,-11.439c0.628,-1.884 -0.131,-4.014 -1.917,-5.045c-1.224,-0.707 -2.655,-0.738 -3.858,-0.208l-20.927,-25.29c0.721,-1.92 -0.03,-4.137 -1.863,-5.195c-2.041,-1.178 -4.654,-0.478 -5.832,1.562c-0.64,1.109 -0.725,2.387 -0.342,3.511l-19.998,14.074c-0.166,-0.132 -0.344,-0.254 -0.533,-0.363c-2.041,-1.178 -4.653,-0.478 -5.831,1.562c-0.699,1.211 -0.737,2.623 -0.226,3.817l-21.228,18.77c-0.189,-0.159 -0.395,-0.303 -0.616,-0.43c-1.59,-0.919 -3.529,-0.696 -4.865,0.414l-20.13,-12.139c0.086,-1.556 -0.687,-3.103 -2.128,-3.935c-2.04,-1.178 -4.653,-0.478 -5.831,1.562c-1.178,2.041 -0.478,4.653 1.563,5.831c1.834,1.06 4.131,0.6 5.432,-0.986l19.693,11.875c-0.472,1.812 0.298,3.79 1.998,4.771c2.04,1.178 4.653,0.478 5.831,-1.562c0.571,-0.99 0.701,-2.115 0.45,-3.144l21.549,-19.054c0.023,0.014 0.046,0.028 0.07,0.041c2.04,1.178 4.653,0.478 5.831,-1.562c0.599,-1.038 0.713,-2.223 0.411,-3.293l20.112,-14.154c0.112,0.079 0.229,0.155 0.351,0.225c1.443,0.834 3.173,0.727 4.479,-0.129l20.638,24.939c-0.01,0.017 -0.021,0.035 -0.031,0.052c-1.178,2.04 -0.477,4.653 1.563,5.831c1.498,0.865 3.305,0.717 4.626,-0.23l20.58,11.666Z" style="fill:#d1d1d1;"/></svg>