<?xml version="1.0" encoding="UTF-8" standalone="no"?><!DOCTYPE svg PUBLIC "-//W3C//DTD SVG 1.1//EN" "http://www.w3.org/Graphics/SVG/1.1/DTD/svg11.dtd"><svg width="100%" height="100%" viewBox="0 0 200 200" version="1.1" xmlns="http://www.w3.org/2000/svg" xmlns:xlink="http://www.w3.org/1999/xlink" xml:space="preserve" xmlns:serif="http://www.serif.com/" style="fill-rule:evenodd;clip-rule:evenodd;stroke-linejoin:round;stroke-miterlimit:2;"><g><path d="M184.542,103.577l0.117,0l-0,12.749l-56.839,-0c-5.16,14.708 -27.702,25.797 -54.694,25.797c-30.799,-0 -55.804,-14.437 -55.804,-32.219c-0,-3.639 -0.101,-11.126 -0.113,-11.984l-0.003,-0.166c-0.001,-0.069 -0.001,-0.139 -0.001,-0.208c-0,-17.782 25.005,-32.219 55.804,-32.219c27.048,0 49.627,11.134 54.727,25.892l56.806,0l0,12.358Zm-79.117,-0.462c-0.092,0.181 -0.189,0.36 -0.29,0.537c-4.532,-7.708 -17.18,-13.262 -32.057,-13.262c-9.057,-0 -17.287,2.058 -23.363,5.408c-3.993,2.2 -7.055,4.959 -8.812,8.057c4.533,7.708 17.181,13.262 32.058,13.262c2.428,0 4.797,-0.148 7.08,-0.429c12.152,-1.496 21.898,-6.762 25.384,-13.573Zm-64.624,0.562c0.033,0.06 0.068,0.119 0.102,0.178l-0.102,-0.178Zm-0.209,-0.379l0.1,0.185l0.1,0.179c-0.069,-0.121 -0.135,-0.242 -0.2,-0.364Zm-23.378,-5.18l0,0.01l-0,-0.01Z" style="fill:#83b2c2;"/><path d="M184.542,103.577l0.117,0l-0,12.749l-56.839,-0c-5.16,14.708 -27.702,25.797 -54.694,25.797c-30.799,-0 -55.804,-14.437 -55.804,-32.219c-0,-3.639 -0.101,-11.126 -0.113,-11.984c0.346,17.609 25.217,31.844 55.8,31.844c26.993,0 49.535,-11.088 54.694,-25.797l56.839,0l0,-0.39Zm-143.639,0.278c4.431,-7.814 17.169,-13.465 32.175,-13.465c14.877,-0 27.525,5.554 32.057,13.262c1.085,-1.913 1.672,-3.956 1.672,-6.077c0,-7.561 -7.452,-14.125 -18.343,-17.374c-4.646,-1.386 -9.917,-2.169 -15.503,-2.169c-18.68,-0 -33.846,8.757 -33.846,19.543c-0,2.196 0.628,4.307 1.788,6.28Z" style="fill:#808080;fill-opacity:0.45;"/><path d="M47.756,79.029c13.142,-10.529 36.62,-11.431 49.596,0.122c11.491,10.23 13.303,24.804 -0.021,32.496c-13.324,7.693 -34.958,7.693 -48.282,0c-13.324,-7.692 -13.3,-22.999 -1.293,-32.618Z" style="fill:#fff;fill-opacity:0.45;"/><path d="M46.641,79.968c-1.721,7.482 1.401,15.221 9.695,20.01c13.324,7.692 34.958,7.692 48.282,-0c0.689,-0.398 1.337,-0.814 1.946,-1.248c-0.546,4.987 -3.477,9.594 -9.233,12.917c-13.324,7.693 -34.958,7.693 -48.282,0c-12.897,-7.446 -13.288,-22.027 -2.408,-31.679Z" style="fill:#fff;fill-opacity:0.45;"/><path d="M97.524,111.535l-0.047,0.028l0.047,-0.028Zm-48.679,-0.007l0.051,0.03l-0.051,-0.03Zm48.832,-0.084l-0.055,0.033l0.055,-0.033Zm-48.993,-0.012l0.06,0.037l-0.06,-0.037Zm49.139,-0.076l-0.057,0.034l0.057,-0.034Zm-49.294,-0.017l0.064,0.039l-0.064,-0.039Zm49.437,-0.07l-0.055,0.034l0.055,-0.034Zm-49.588,-0.023l0.066,0.041l-0.066,-0.041Zm49.729,-0.065l-0.05,0.031l0.05,-0.031Zm-49.878,-0.027l0.067,0.041l-0.067,-0.041Zm50.017,-0.061l-0.028,0.018l0.028,-0.018Zm-50.165,-0.033l0.067,0.043l-0.067,-0.043Zm-0.146,-0.094l0.067,0.044l-0.067,-0.044Zm50.487,0.014l-0.038,0.025l0.038,-0.025Zm-50.632,-0.108l0.068,0.044l-0.068,-0.044Zm50.782,0.011l-0.051,0.033l0.051,-0.033Zm0.139,-0.092l-0.053,0.035l0.053,-0.035Zm-51.064,-0.014l0.067,0.045l-0.067,-0.045Zm51.2,-0.078l-0.053,0.036l0.053,-0.036Zm-51.342,-0.017l0.066,0.045l-0.066,-0.045Zm51.475,-0.074l-0.049,0.034l0.049,-0.034Zm-51.616,-0.022l0.066,0.045l-0.066,-0.045Zm51.748,-0.069l-0.038,0.026l0.038,-0.026Zm-51.888,-0.028l0.066,0.046l-0.066,-0.046Zm-0.139,-0.097l0.066,0.046l-0.066,-0.046Zm52.18,0.017l-0.023,0.017l0.023,-0.017Zm-52.317,-0.115l0.065,0.047l-0.065,-0.047Zm52.468,0.007l-0.045,0.032l0.045,-0.032Zm-52.604,-0.105l0.065,0.047l-0.065,-0.047Zm52.737,0.008l-0.049,0.036l0.049,-0.036Zm0.128,-0.095l-0.05,0.037l0.05,-0.037Zm-53,-0.012l0.064,0.047l-0.064,-0.047Zm53.126,-0.082l-0.047,0.036l0.047,-0.036Zm-53.26,-0.018l0.064,0.048l-0.064,-0.048Zm53.385,-0.077l-0.041,0.031l0.041,-0.031Zm-53.517,-0.023l0.063,0.048l-0.063,-0.048Zm-0.132,-0.101l0.063,0.048l-0.063,-0.048Zm53.771,0.029l-0.005,0.004l0.005,-0.004Zm-53.901,-0.13l0.062,0.048l-0.062,-0.048Zm54.061,0.005l-0.038,0.03l0.038,-0.03Zm-54.19,-0.107l0.061,0.048l-0.061,-0.048Zm54.317,0.004l-0.045,0.037l0.045,-0.037Zm-54.445,-0.107l0.061,0.049l-0.061,-0.049Zm54.567,0.009l-0.047,0.038l0.047,-0.038Zm0.119,-0.098l-0.046,0.037l0.046,-0.037Zm-54.812,-0.014l0.059,0.049l-0.059,-0.049Zm54.928,-0.084l-0.04,0.034l0.04,-0.034Zm-55.054,-0.019l0.059,0.048l-0.059,-0.048Zm-0.124,-0.105l0.057,0.049l-0.057,-0.049Zm55.294,0.026l-0.025,0.02l0.025,-0.02Zm-55.417,-0.13l0.056,0.048l-0.056,-0.048Zm55.559,0.006l-0.028,0.025l0.028,-0.025Zm-55.681,-0.112l0.055,0.048l-0.055,-0.048Zm55.806,0.002l-0.04,0.036l0.04,-0.036Zm-55.927,-0.108l0.052,0.046l-0.052,-0.046Zm56.042,0.006l-0.043,0.038l0.043,-0.038Zm0.111,-0.102l-0.042,0.039l0.042,-0.039Zm-56.273,-0.01l0.048,0.043l-0.048,-0.043Zm56.383,-0.091l-0.04,0.037l0.04,-0.037Zm-56.501,-0.016l0.033,0.03l-0.033,-0.03Zm56.608,-0.085l-0.03,0.029l0.03,-0.029Zm-56.769,-0.063l0.044,0.041l-0.044,-0.041Zm56.89,-0.052l-0.014,0.013l0.014,-0.013Zm-57.012,-0.063l0.05,0.048l-0.05,-0.048Zm57.138,-0.059l-0.034,0.034l0.034,-0.034Zm-57.255,-0.052l0.053,0.051l-0.053,-0.051Zm57.364,-0.056l-0.039,0.039l0.039,-0.039Zm-57.479,-0.054l0.054,0.052l-0.054,-0.052Zm57.584,-0.051l-0.04,0.04l0.04,-0.04Zm-57.696,-0.06l0.053,0.053l-0.053,-0.053Zm57.798,-0.044l-0.038,0.039l0.038,-0.039Zm-57.91,-0.067l0.054,0.054l-0.054,-0.054Zm58.01,-0.037l-0.032,0.033l0.032,-0.033Zm-58.12,-0.074l0.054,0.055l-0.054,-0.055Zm58.219,-0.03l-0.005,0.006l0.005,-0.006Zm-58.328,-0.082l0.054,0.056l-0.054,-0.056Zm58.455,-0.053l-0.028,0.03l0.028,-0.03Zm-58.562,-0.059l0.053,0.056l-0.053,-0.056Zm58.665,-0.055l-0.034,0.039l0.034,-0.039Zm-58.772,-0.057l0.054,0.056l-0.054,-0.056Zm58.87,-0.051l-0.036,0.041l0.036,-0.041Zm-58.975,-0.062l0.053,0.057l-0.053,-0.057Zm59.07,-0.045l-0.035,0.04l0.035,-0.04Zm-59.174,-0.069l0.053,0.058l-0.053,-0.058Zm59.267,-0.038l-0.031,0.036l0.031,-0.036Zm-59.369,-0.076l0.052,0.058l-0.052,-0.058Zm59.461,-0.031l-0.019,0.022l0.019,-0.022Zm-59.563,-0.083l0.052,0.058l-0.052,-0.058Zm59.674,-0.048l-0.02,0.023l0.02,-0.023Zm-59.774,-0.067l0.051,0.059l-0.051,-0.059Zm59.874,-0.055l-0.03,0.037l0.03,-0.037Zm-59.974,-0.06l0.051,0.059l-0.051,-0.059Zm60.065,-0.052l-0.033,0.041l0.033,-0.041Zm-60.163,-0.064l0.051,0.06l-0.051,-0.06Zm60.251,-0.046l-0.033,0.041l0.033,-0.041Zm-60.348,-0.07l0.051,0.06l-0.051,-0.06Zm60.434,-0.04l-0.03,0.039l0.03,-0.039Zm-60.529,-0.077l0.05,0.061l-0.05,-0.061Zm60.614,-0.032l-0.023,0.03l0.023,-0.03Zm-60.709,-0.085l0.05,0.062l-0.05,-0.062Zm60.799,-0.034l-0.006,0.008l0.006,-0.008Zm-60.892,-0.084l0.049,0.063l-0.049,-0.063Zm60.993,-0.053l-0.025,0.035l0.025,-0.035Zm-61.086,-0.065l0.05,0.064l-0.05,-0.064Zm61.171,-0.052l-0.029,0.041l0.029,-0.041Zm-61.262,-0.066l0.05,0.065l-0.05,-0.065Zm61.343,-0.047l-0.03,0.042l0.03,-0.042Zm-61.433,-0.072l0.05,0.066l-0.05,-0.066Zm61.512,-0.04l-0.028,0.041l0.028,-0.041Zm-61.6,-0.079l0.05,0.067l-0.05,-0.067Zm61.678,-0.033l-0.025,0.035l0.025,-0.035Zm-57.3,-25.774c0.351,-0.31 0.715,-0.617 1.091,-0.918c13.142,-10.529 36.62,-11.431 49.596,0.122c6.72,5.982 10.13,13.45 9.138,20.161c0.028,-0.193 0.053,-0.387 0.074,-0.582c-0.609,0.434 -1.257,0.85 -1.946,1.248c-13.324,7.692 -34.958,7.692 -48.282,-0c-8.294,-4.789 -11.416,-12.528 -9.695,-20.01l0.024,-0.021Zm-4.466,25.687l0.051,0.07l-0.051,-0.07Zm61.842,-0.025l-0.006,0.009l0.006,-0.009Zm-61.928,-0.095l0.052,0.073l-0.052,-0.073Zm62.024,-0.05l-0.021,0.031l0.021,-0.031Zm-62.11,-0.07l0.055,0.077l-0.055,-0.077Zm62.189,-0.052l-0.026,0.04l0.026,-0.04Zm-62.273,-0.069l0.061,0.087l-0.061,-0.087Zm62.347,-0.048l-0.027,0.044l0.027,-0.044Zm-62.652,-0.41c0.097,0.151 0.198,0.301 0.301,0.451c-0.103,-0.149 -0.203,-0.3 -0.301,-0.451Zm62.724,0.295l-0.027,0.044l0.027,-0.044Zm0.071,-0.114l-0.025,0.04l0.025,-0.04Zm0.068,-0.115l-0.016,0.027l0.016,-0.027Zm-62.935,-0.178l0.057,0.088l-0.057,-0.088Zm63.018,0.038l-0.015,0.026l0.015,-0.026Zm-63.093,-0.157l0.053,0.085l-0.053,-0.085Zm63.168,0.027l-0.023,0.041l0.023,-0.041Zm-63.242,-0.147l0.05,0.082l-0.05,-0.082Zm63.31,0.027l-0.026,0.045l0.026,-0.045Zm-63.384,-0.149l0.049,0.081l-0.049,-0.081Zm63.448,0.032l-0.025,0.045l0.025,-0.045Zm0.064,-0.117l-0.024,0.044l0.024,-0.044Zm-63.586,-0.038l0.048,0.08l-0.048,-0.08Zm63.647,-0.079l-0.019,0.037l0.019,-0.037Zm-63.719,-0.044l0.046,0.079l-0.046,-0.079Zm-0.072,-0.125l0.046,0.08l-0.046,-0.08Zm63.859,0.039l-0.007,0.014l0.007,-0.014Zm-63.929,-0.163l0.045,0.08l-0.045,-0.08Zm64.002,0.019l-0.021,0.042l0.021,-0.042Zm-64.071,-0.144l0.044,0.08l-0.044,-0.08Zm64.132,0.021l-0.024,0.047l0.024,-0.047Zm-64.2,-0.147l0.043,0.081l-0.043,-0.081Zm64.257,0.027l-0.023,0.049l0.023,-0.049Zm0.057,-0.119l-0.023,0.049l0.023,-0.049Zm-64.382,-0.034l0.043,0.081l-0.043,-0.081Zm64.436,-0.084l-0.021,0.045l0.021,-0.045Zm-64.502,-0.042l0.043,0.082l-0.043,-0.082Zm-0.064,-0.127l0.042,0.083l-0.042,-0.083Zm64.62,0.051l-0.013,0.029l0.013,-0.029Zm-64.684,-0.178l0.042,0.084l-0.042,-0.084Zm64.754,0.018l-0.019,0.043l0.019,-0.043Zm-64.817,-0.145l0.042,0.084l-0.042,-0.084Zm64.871,0.019l-0.022,0.051l0.022,-0.051Zm-64.932,-0.147l0.041,0.086l-0.041,-0.086Zm64.982,0.025l-0.022,0.053l0.022,-0.053Zm-65.043,-0.153l0.042,0.088l-0.042,-0.088Zm65.093,0.032l-0.022,0.054l0.022,-0.054Zm0.047,-0.12l-0.021,0.053l0.021,-0.053Zm-65.199,-0.041l0.041,0.09l-0.041,-0.09Zm65.246,-0.079l-0.019,0.048l0.019,-0.048Zm-65.304,-0.049l0.041,0.092l-0.041,-0.092Zm-0.057,-0.129l0.042,0.095l-0.042,-0.095Zm65.422,0.013l-0.018,0.05l0.018,-0.05Zm-65.478,-0.143l0.043,0.099l-0.043,-0.099Zm65.525,0.016l-0.021,0.057l0.021,-0.057Zm-65.579,-0.146l0.043,0.104l-0.043,-0.104Zm65.622,0.023l-0.021,0.059l0.021,-0.059Zm-65.676,-0.152l0.045,0.109l-0.045,-0.109Zm65.718,0.03l-0.021,0.061l0.021,-0.061Zm-65.77,-0.161l0.047,0.118l-0.047,-0.118Zm65.811,0.039l-0.021,0.062l0.021,-0.062Zm-66.38,-1.726c0.159,0.569 0.348,1.132 0.568,1.686c-0.221,-0.555 -0.41,-1.117 -0.568,-1.686Zm66.419,1.605l-0.02,0.062l0.02,-0.062Zm0.056,-0.18l-0.037,0.12l0.037,-0.12Zm0.037,-0.122l-0.02,0.068l0.02,-0.068Zm0.036,-0.122l-0.02,0.068l0.02,-0.068Zm0.035,-0.122l-0.02,0.069l0.02,-0.069Zm0.033,-0.123l-0.019,0.072l0.019,-0.072Zm0.033,-0.123l-0.02,0.075l0.02,-0.075Zm0.062,-0.245c-0.011,0.044 -0.022,0.088 -0.033,0.132l0.033,-0.132Zm0.044,-0.19l-0.018,0.082l0.018,-0.082Zm0.028,-0.121l-0.018,0.082l0.018,-0.082Zm0.026,-0.122l-0.018,0.083l0.018,-0.083Zm0.026,-0.123l-0.019,0.088l0.019,-0.088Zm-66.871,-0.141l0.035,0.126l-0.035,-0.126Zm66.956,-0.311c-0.025,0.145 -0.052,0.289 -0.081,0.433c0.029,-0.144 0.056,-0.288 0.081,-0.433Zm-66.991,0.18l0.033,0.125l-0.033,-0.125Zm-0.033,-0.131l0.031,0.123l-0.031,-0.123Zm-0.033,-0.133l0.03,0.123l-0.03,-0.123Zm67.076,-0.032l-0.016,0.097l0.016,-0.097Zm-67.108,-0.1l0.029,0.123l-0.029,-0.123Zm67.128,-0.022l-0.016,0.099l0.016,-0.099Zm-67.159,-0.111l0.029,0.123l-0.029,-0.123Zm67.177,-0.012l-0.015,0.105l0.015,-0.105Zm-67.207,-0.122l0.028,0.124l-0.028,-0.124Zm-0.028,-0.134l0.027,0.126l-0.027,-0.126Zm-0.028,-0.134l0.026,0.128l-0.026,-0.128Zm-0.026,-0.135l0.025,0.13l-0.025,-0.13Zm7.441,-18.82c-6.12,5.429 -8.674,12.418 -7.442,18.819c-1.232,-6.401 1.322,-13.389 7.442,-18.819Z" style="fill:#fff;fill-opacity:0.45;"/><path d="M52.323,75.973c0.534,5.564 3.846,10.823 10.074,14.419c11.887,6.863 30.39,7.603 43.704,2.22c0.518,2.062 0.682,4.121 0.463,6.119c-0.609,0.433 -1.257,0.849 -1.946,1.247c-13.324,7.692 -34.958,7.692 -48.282,-0c-8.294,-4.789 -11.416,-12.528 -9.695,-20.01l0.024,-0.021c0.351,-0.31 0.715,-0.617 1.091,-0.918c1.411,-1.131 2.942,-2.151 4.567,-3.056Zm54.241,22.757l0,0.001l0,-0.001Z" style="fill:#fff;fill-opacity:0.45;"/></g></svg>