<?xml version="1.0" encoding="UTF-8" standalone="no"?>
<!DOCTYPE svg PUBLIC "-//W3C//DTD SVG 1.1//EN" "http://www.w3.org/Graphics/SVG/1.1/DTD/svg11.dtd">
<svg width="100%" height="100%" viewBox="0 0 200 200" version="1.1" xmlns="http://www.w3.org/2000/svg" xmlns:xlink="http://www.w3.org/1999/xlink" xml:space="preserve" xmlns:serif="http://www.serif.com/" style="fill-rule:evenodd;clip-rule:evenodd;stroke-linejoin:round;stroke-miterlimit:2;">
    <g transform="matrix(4.64185,0,0,4.64185,-6354.48,-2334.56)">
        <path d="M1375.46,527.56C1375.45,525.742 1375.46,524.673 1375.46,524.673C1375.49,522.885 1376.69,521.101 1379.05,519.738C1383.25,517.313 1389.75,517.018 1394.51,518.852L1403.33,513.759L1406.76,515.739L1406.76,515.739L1406.76,518.536L1399.47,522.745C1399.8,523.396 1399.97,524.07 1399.97,524.744C1399.97,524.744 1399.97,524.865 1399.97,524.773C1399.97,524.773 1400.17,526.628 1399.91,528.21C1399.65,529.791 1398.48,531.332 1396.38,532.542C1391.6,535.304 1383.83,535.304 1379.05,532.542C1376.67,531.167 1375.47,529.364 1375.46,527.56ZM1394.74,526.149C1394.39,525.551 1393.8,524.99 1392.97,524.513C1390.07,522.838 1385.36,522.838 1382.46,524.513C1381.63,524.989 1381.04,525.551 1380.69,526.149C1381.04,526.746 1381.63,527.308 1382.46,527.785C1385.36,529.46 1390.07,529.46 1392.97,527.785C1393.8,527.309 1394.39,526.747 1394.74,526.149ZM1394.75,526.143L1394.75,526.145L1394.75,526.143ZM1380.68,526.142L1380.68,526.144L1380.68,526.142Z" style="fill:rgb(163,199,210);"/>
    </g>
    <g transform="matrix(4.64185,0,0,4.64185,-8911.22,-723.974)">
        <g transform="matrix(1,0,0,1,550.803,-346.971)">
            <path d="M1375.46,524.76C1375.47,526.565 1376.66,528.369 1379.05,529.745C1381.13,530.949 1383.78,531.628 1386.51,531.782C1387.31,531.858 1388.13,531.858 1388.93,531.782C1391.65,531.627 1394.3,530.948 1396.38,529.745C1398.76,528.372 1399.95,526.574 1399.97,524.773L1399.97,524.773C1399.97,524.773 1400.17,526.628 1399.91,528.21C1399.65,529.791 1398.48,531.332 1396.38,532.542C1391.6,535.304 1383.83,535.304 1379.05,532.542C1376.67,531.167 1375.47,529.364 1375.46,527.56C1375.45,525.742 1375.46,524.76 1375.46,524.76L1375.46,524.76Z" style="fill:rgb(120,120,120);fill-opacity:0.46;"/>
        </g>
        <g transform="matrix(1,0,0,1,550.803,-346.971)">
            <path d="M1380.69,526.149C1381.04,525.551 1381.63,524.989 1382.46,524.513C1385.36,522.838 1390.07,522.838 1392.97,524.513C1393.8,524.99 1394.39,525.551 1394.74,526.149C1395.64,524.647 1395.05,522.914 1392.97,521.716C1390.07,520.041 1385.36,520.041 1382.46,521.715C1380.38,522.913 1379.79,524.646 1380.69,526.149Z" style="fill:rgb(120,120,120);fill-opacity:0.46;"/>
        </g>
        <g transform="matrix(1,0,0,1,550.803,-346.971)">
            <path d="M1406.76,518.536L1399.47,522.745C1399.13,522.077 1398.62,521.432 1397.94,520.835L1406.76,515.739L1406.76,518.536Z" style="fill:rgb(120,120,120);fill-opacity:0.46;"/>
        </g>
    </g>
    <g transform="matrix(4.3253,-2.49721,4.99442,2.88353,-7286.38,-2523.47)">
        <path d="M327.681,1187.32C331.45,1186.79 334.458,1189.07 333.613,1192.5C332.865,1195.54 330.051,1198.35 326.85,1198.35C323.649,1198.35 321.05,1196.1 321.05,1193.33C321.05,1190.56 324.238,1187.8 327.681,1187.32Z" style="fill:white;fill-opacity:0.45;"/>
    </g>
    <g transform="matrix(4.73121,0,0,4.73121,-6902.78,-2387.94)">
        <path d="M1471.62,522.238C1471.24,523.882 1471.92,525.581 1473.75,526.633C1476.67,528.322 1481.42,528.322 1484.35,526.633C1484.5,526.546 1484.64,526.454 1484.78,526.359C1484.66,527.454 1484.01,528.466 1482.75,529.196C1479.82,530.885 1475.07,530.885 1472.14,529.196C1469.31,527.56 1469.23,524.358 1471.62,522.238Z" style="fill:white;fill-opacity:0.45;"/>
    </g>
    <g transform="matrix(4.73121,0,0,4.73121,-6902.78,-2387.94)">
        <path d="M1482.79,529.171L1482.78,529.177L1482.79,529.171ZM1472.1,529.17L1472.11,529.176L1472.1,529.17ZM1482.83,529.151L1482.81,529.158L1482.83,529.151ZM1472.07,529.149L1472.08,529.157L1472.07,529.149ZM1482.86,529.132L1482.85,529.139L1482.86,529.132ZM1472.03,529.128L1472.05,529.137L1472.03,529.128ZM1482.89,529.113L1482.88,529.12L1482.89,529.113ZM1472,529.108L1472.01,529.117L1472,529.108ZM1482.92,529.093L1482.91,529.1L1482.92,529.093ZM1471.96,529.087L1471.98,529.097L1471.96,529.087ZM1482.95,529.074L1482.94,529.078L1482.95,529.074ZM1471.93,529.067L1471.95,529.076L1471.93,529.067ZM1471.9,529.046L1471.92,529.056L1471.9,529.046ZM1482.99,529.049L1482.98,529.055L1482.99,529.049ZM1471.87,529.026L1471.88,529.035L1471.87,529.026ZM1483.02,529.028L1483.01,529.035L1483.02,529.028ZM1483.05,529.008L1483.04,529.015L1483.05,529.008ZM1471.84,529.005L1471.85,529.014L1471.84,529.005ZM1483.08,528.988L1483.07,528.995L1483.08,528.988ZM1471.81,528.984L1471.82,528.994L1471.81,528.984ZM1483.11,528.968L1483.1,528.975L1483.11,528.968ZM1471.78,528.963L1471.79,528.973L1471.78,528.963ZM1483.14,528.948L1483.13,528.953L1483.14,528.948ZM1471.75,528.941L1471.76,528.952L1471.75,528.941ZM1471.71,528.92L1471.73,528.93L1471.71,528.92ZM1483.17,528.924L1483.17,528.927L1483.17,528.924ZM1471.68,528.899L1471.7,528.909L1471.68,528.899ZM1483.21,528.9L1483.2,528.907L1483.21,528.9ZM1471.65,528.877L1471.67,528.887L1471.65,528.877ZM1483.24,528.879L1483.23,528.887L1483.24,528.879ZM1483.27,528.858L1483.25,528.866L1483.27,528.858ZM1471.62,528.855L1471.64,528.866L1471.62,528.855ZM1483.29,528.837L1483.28,528.845L1483.29,528.837ZM1471.6,528.833L1471.61,528.844L1471.6,528.833ZM1483.32,528.816L1483.31,528.823L1483.32,528.816ZM1471.57,528.811L1471.58,528.822L1471.57,528.811ZM1471.54,528.789L1471.55,528.8L1471.54,528.789ZM1483.35,528.796L1483.35,528.796L1483.35,528.796ZM1471.51,528.767L1471.52,528.778L1471.51,528.767ZM1483.38,528.768L1483.37,528.775L1483.38,528.768ZM1471.48,528.745L1471.49,528.755L1471.48,528.745ZM1483.41,528.746L1483.4,528.754L1483.41,528.746ZM1471.45,528.722L1471.46,528.733L1471.45,528.722ZM1483.44,528.724L1483.43,528.732L1483.44,528.724ZM1483.46,528.702L1483.45,528.711L1483.46,528.702ZM1471.42,528.699L1471.44,528.71L1471.42,528.699ZM1483.49,528.681L1483.48,528.688L1483.49,528.681ZM1471.4,528.677L1471.41,528.687L1471.4,528.677ZM1471.37,528.654L1471.38,528.664L1471.37,528.654ZM1483.51,528.659L1483.51,528.664L1483.51,528.659ZM1471.34,528.631L1471.36,528.641L1471.34,528.631ZM1483.55,528.632L1483.54,528.638L1483.55,528.632ZM1471.32,528.608L1471.33,528.618L1471.32,528.608ZM1483.57,528.608L1483.56,528.616L1483.57,528.608ZM1471.29,528.584L1471.3,528.594L1471.29,528.584ZM1483.6,528.585L1483.59,528.594L1483.6,528.585ZM1483.62,528.563L1483.61,528.572L1483.62,528.563ZM1471.26,528.561L1471.27,528.57L1471.26,528.561ZM1483.65,528.541L1483.64,528.549L1483.65,528.541ZM1471.24,528.537L1471.24,528.544L1471.24,528.537ZM1483.67,528.519L1483.66,528.525L1483.67,528.519ZM1471.2,528.505L1471.21,528.514L1471.2,528.505ZM1483.7,528.494L1483.69,528.497L1483.7,528.494ZM1471.17,528.48L1471.19,528.49L1471.17,528.48ZM1483.72,528.467L1483.72,528.474L1483.72,528.467ZM1471.15,528.455L1471.16,528.466L1471.15,528.455ZM1483.75,528.443L1483.74,528.452L1483.75,528.443ZM1471.12,528.431L1471.14,528.443L1471.12,528.431ZM1483.77,528.42L1483.76,528.429L1483.77,528.42ZM1471.1,528.407L1471.11,528.419L1471.1,528.407ZM1483.79,528.397L1483.79,528.406L1483.79,528.397ZM1471.08,528.382L1471.09,528.394L1471.08,528.382ZM1483.82,528.374L1483.81,528.382L1483.82,528.374ZM1471.05,528.358L1471.06,528.37L1471.05,528.358ZM1483.84,528.352L1483.84,528.353L1483.84,528.352ZM1471.03,528.334L1471.04,528.346L1471.03,528.334ZM1483.86,528.322L1483.86,528.328L1483.86,528.322ZM1471,528.309L1471.02,528.321L1471,528.309ZM1483.89,528.297L1483.88,528.305L1483.89,528.297ZM1470.98,528.284L1470.99,528.297L1470.98,528.284ZM1483.91,528.273L1483.9,528.282L1483.91,528.273ZM1470.96,528.259L1470.97,528.272L1470.96,528.259ZM1483.93,528.25L1483.92,528.258L1483.93,528.25ZM1470.93,528.234L1470.94,528.247L1470.93,528.234ZM1483.95,528.226L1483.94,528.234L1483.95,528.226ZM1470.91,528.209L1470.92,528.222L1470.91,528.209ZM1483.97,528.203L1483.97,528.207L1483.97,528.203ZM1470.89,528.184L1470.9,528.197L1470.89,528.184ZM1483.99,528.174L1483.99,528.179L1483.99,528.174ZM1470.87,528.159L1470.88,528.172L1470.87,528.159ZM1484.02,528.147L1484.01,528.155L1484.02,528.147ZM1470.85,528.134L1470.86,528.147L1470.85,528.134ZM1484.04,528.122L1484.03,528.131L1484.04,528.122ZM1470.82,528.108L1470.83,528.122L1470.82,528.108ZM1484.06,528.098L1484.05,528.107L1484.06,528.098ZM1470.8,528.083L1470.81,528.096L1470.8,528.083ZM1484.08,528.074L1484.07,528.083L1484.08,528.074ZM1470.78,528.057L1470.79,528.071L1470.78,528.057ZM1484.09,528.05L1484.09,528.057L1484.09,528.05ZM1470.76,528.031L1470.77,528.045L1470.76,528.031ZM1484.11,528.024L1484.11,528.026L1484.11,528.024ZM1470.74,528.006L1470.75,528.019L1470.74,528.006ZM1484.13,527.994L1484.13,528.002L1484.13,527.994ZM1470.72,527.98L1470.73,527.994L1470.72,527.98ZM1484.15,527.968L1484.15,527.977L1484.15,527.968ZM1470.7,527.954L1470.71,527.968L1470.7,527.954ZM1484.17,527.943L1484.16,527.953L1484.17,527.943ZM1470.68,527.928L1470.69,527.942L1470.68,527.928ZM1484.19,527.919L1484.18,527.928L1484.19,527.919ZM1470.66,527.901L1470.67,527.916L1470.66,527.901ZM1484.21,527.894L1484.2,527.902L1484.21,527.894ZM1471.62,522.234C1471.7,522.166 1471.78,522.098 1471.86,522.032C1474.75,519.72 1479.9,519.522 1482.75,522.059C1484.23,523.373 1484.98,525.013 1484.76,526.487C1484.77,526.444 1484.77,526.402 1484.78,526.359C1484.64,526.454 1484.5,526.546 1484.35,526.633C1481.42,528.322 1476.67,528.322 1473.75,526.633C1471.92,525.581 1471.24,523.882 1471.62,522.238L1471.62,522.234ZM1470.64,527.875L1470.65,527.89L1470.64,527.875ZM1484.22,527.87L1484.22,527.872L1484.22,527.87ZM1470.62,527.849L1470.63,527.865L1470.62,527.849ZM1484.24,527.838L1484.24,527.845L1484.24,527.838ZM1470.6,527.822L1470.62,527.839L1470.6,527.822ZM1484.26,527.811L1484.26,527.82L1484.26,527.811ZM1470.59,527.796L1470.6,527.815L1470.59,527.796ZM1484.28,527.785L1484.27,527.795L1484.28,527.785ZM1470.52,527.695C1470.54,527.728 1470.56,527.761 1470.58,527.794C1470.56,527.761 1470.54,527.728 1470.52,527.695ZM1484.29,527.76L1484.29,527.77L1484.29,527.76ZM1484.31,527.735L1484.3,527.744L1484.31,527.735ZM1484.32,527.71L1484.32,527.716L1484.32,527.71ZM1470.5,527.671L1470.51,527.69L1470.5,527.671ZM1484.34,527.679L1484.34,527.685L1484.34,527.679ZM1470.49,527.645L1470.5,527.663L1470.49,527.645ZM1484.36,527.65L1484.35,527.659L1484.36,527.65ZM1470.47,527.618L1470.48,527.636L1470.47,527.618ZM1484.37,527.624L1484.37,527.634L1484.37,527.624ZM1470.45,527.591L1470.46,527.609L1470.45,527.591ZM1484.39,527.598L1484.38,527.608L1484.39,527.598ZM1484.4,527.573L1484.4,527.582L1484.4,527.573ZM1470.44,527.564L1470.45,527.582L1470.44,527.564ZM1484.41,527.547L1484.41,527.555L1484.41,527.547ZM1470.42,527.537L1470.43,527.555L1470.42,527.537ZM1470.4,527.51L1470.41,527.527L1470.4,527.51ZM1484.43,527.518L1484.43,527.522L1484.43,527.518ZM1470.39,527.483L1470.4,527.5L1470.39,527.483ZM1484.45,527.487L1484.44,527.496L1484.45,527.487ZM1470.38,527.455L1470.38,527.473L1470.38,527.455ZM1484.46,527.46L1484.45,527.47L1484.46,527.46ZM1470.36,527.428L1470.37,527.445L1470.36,527.428ZM1484.47,527.434L1484.47,527.444L1484.47,527.434ZM1484.48,527.407L1484.48,527.418L1484.48,527.407ZM1470.35,527.4L1470.35,527.418L1470.35,527.4ZM1484.5,527.381L1484.49,527.391L1484.5,527.381ZM1470.33,527.372L1470.34,527.39L1470.33,527.372ZM1470.32,527.344L1470.33,527.362L1470.32,527.344ZM1484.51,527.355L1484.51,527.362L1484.51,527.355ZM1470.3,527.316L1470.31,527.335L1470.3,527.316ZM1484.52,527.32L1484.52,527.33L1484.52,527.32ZM1470.29,527.288L1470.3,527.307L1470.29,527.288ZM1484.54,527.293L1484.53,527.304L1484.54,527.293ZM1470.28,527.26L1470.28,527.279L1470.28,527.26ZM1484.55,527.266L1484.54,527.278L1484.55,527.266ZM1470.26,527.232L1470.27,527.252L1470.26,527.232ZM1484.56,527.239L1484.55,527.251L1484.56,527.239ZM1484.57,527.213L1484.56,527.225L1484.57,527.213ZM1470.25,527.204L1470.26,527.224L1470.25,527.204ZM1484.58,527.187L1484.57,527.197L1484.58,527.187ZM1470.24,527.176L1470.25,527.196L1470.24,527.176ZM1470.22,527.147L1470.23,527.168L1470.22,527.147ZM1484.59,527.15L1484.59,527.161L1484.59,527.15ZM1470.21,527.119L1470.22,527.141L1470.21,527.119ZM1484.6,527.122L1484.6,527.135L1484.6,527.122ZM1470.2,527.091L1470.21,527.113L1470.2,527.091ZM1484.61,527.095L1484.61,527.108L1484.61,527.095ZM1470.19,527.062L1470.2,527.086L1470.19,527.062ZM1484.62,527.069L1484.62,527.082L1484.62,527.069ZM1470.18,527.033L1470.19,527.059L1470.18,527.033ZM1484.63,527.042L1484.62,527.055L1484.63,527.042ZM1470.05,526.663C1470.09,526.788 1470.13,526.911 1470.18,527.033C1470.13,526.911 1470.09,526.788 1470.05,526.663ZM1484.64,527.015L1484.63,527.029L1484.64,527.015ZM1484.65,526.976L1484.64,527.002L1484.65,526.976ZM1484.66,526.949L1484.65,526.964L1484.66,526.949ZM1484.67,526.922L1484.66,526.937L1484.67,526.922ZM1484.67,526.895L1484.67,526.911L1484.67,526.895ZM1484.68,526.868L1484.68,526.884L1484.68,526.868ZM1484.69,526.841L1484.68,526.858L1484.69,526.841ZM1484.7,526.788C1484.7,526.797 1484.7,526.807 1484.69,526.817L1484.7,526.788ZM1484.71,526.746L1484.71,526.764L1484.71,526.746ZM1484.72,526.719L1484.71,526.737L1484.72,526.719ZM1484.72,526.692L1484.72,526.711L1484.72,526.692ZM1484.73,526.665L1484.73,526.685L1484.73,526.665ZM1470.04,526.634L1470.05,526.662L1470.04,526.634ZM1484.75,526.566C1484.74,526.598 1484.74,526.63 1484.73,526.661C1484.74,526.63 1484.74,526.598 1484.75,526.566ZM1470.04,526.606L1470.04,526.633L1470.04,526.606ZM1470.03,526.577L1470.04,526.604L1470.03,526.577ZM1470.02,526.548L1470.03,526.575L1470.02,526.548ZM1484.75,526.541L1484.75,526.562L1484.75,526.541ZM1470.01,526.519L1470.02,526.546L1470.01,526.519ZM1484.76,526.514L1484.75,526.536L1484.76,526.514ZM1470.01,526.489L1470.01,526.517L1470.01,526.489ZM1484.76,526.487L1484.76,526.51L1484.76,526.487ZM1470,526.46L1470.01,526.487L1470,526.46ZM1469.99,526.431L1470,526.458L1469.99,526.431ZM1469.99,526.401L1469.99,526.429L1469.99,526.401ZM1469.98,526.372L1469.99,526.4L1469.98,526.372ZM1471.62,522.238C1470.27,523.43 1469.71,524.965 1469.98,526.371C1469.71,524.966 1470.27,523.431 1471.62,522.238Z" style="fill:white;fill-opacity:0.45;"/>
    </g>
    <g transform="matrix(4.73121,0,0,4.73121,-6902.78,-2387.94)">
        <path d="M1472.86,521.361C1472.98,522.583 1473.71,523.738 1475.08,524.528C1477.69,526.035 1481.75,526.197 1484.67,525.015C1484.79,525.468 1484.83,525.92 1484.78,526.359C1484.64,526.454 1484.5,526.546 1484.35,526.633C1481.42,528.322 1476.67,528.322 1473.75,526.633C1471.92,525.581 1471.24,523.882 1471.62,522.238L1471.62,522.234C1471.7,522.166 1471.78,522.098 1471.86,522.032C1472.17,521.784 1472.51,521.56 1472.86,521.361ZM1484.78,526.359L1484.78,526.359L1484.78,526.359Z" style="fill:white;fill-opacity:0.45;"/>
    </g>
</svg>
