<svg width="100%" height="100%" viewBox="0 0 200 200" version="1.1" xmlns="http://www.w3.org/2000/svg" xmlns:xlink="http://www.w3.org/1999/xlink" xml:space="preserve" xmlns:serif="http://www.serif.com/" style="fill-rule:evenodd;clip-rule:evenodd;stroke-linejoin:round;stroke-miterlimit:2;"><path d="M161.242,62.416c0,39.046 -27.413,86.516 -61.219,106.042c-33.814,19.519 -61.228,3.699 -61.228,-35.347c0,-39.046 27.414,-86.516 61.228,-106.043c33.806,-19.519 61.219,-3.69 61.219,35.348" class="accent"/><g opacity="0.5"><path d="M161.284,62.347c0,39.046 -27.413,86.516 -61.219,106.043c-33.814,19.519 -61.228,3.69 -61.228,-35.348c0,-39.045 27.414,-86.515 61.228,-106.042c33.806,-19.519 61.219,-3.698 61.219,35.347" style="fill:#b3b3b3;fill-rule:nonzero;"/></g><path d="M136.437,108.929c1.798,8.027 2.429,15.385 2.663,20.617c-3.73,5.676 -19.34,28.644 -42.059,40.494c-19.06,9.934 -31.891,6.197 -36.095,4.624c0.319,-5.691 1.035,-13.936 2.779,-24.174c2.305,-13.548 3.449,-20.321 6.883,-26.978c7.568,-14.684 20.765,-22.291 29.08,-27.087c8.307,-4.788 21.31,-12.286 29.166,-6.54c3.955,2.896 5.162,8.276 7.583,19.044" class="main"/><path d="M91.401,89.907c-4.973,-1.053 -8.305,-6.343 -8.305,-14.594c0,-12.434 7.576,-26.9 16.927,-32.295c9.35,-5.396 16.926,0.311 16.926,12.753c0,8.219 -3.306,17.318 -8.247,24.104l-0.401,11.711c3.597,-1.518 4.881,-0.763 5.419,0.031c2.289,3.379 -3.2,16.304 -13.696,32.623c-10.37,-4.508 -15.922,-11.064 -13.617,-17.004c0.529,-1.363 1.705,-3.317 4.648,-5.559c-0.07,-3.808 -0.14,-7.623 -0.21,-11.43l0.556,-0.34Z" style="fill:#fff;fill-rule:nonzero;"/><path d="M117.147,59.135c-0.405,-1.736 -1.277,-4.524 -3.27,-6.68c-1.799,-1.954 -3.769,-2.593 -5.053,-2.834c-0.242,0.591 -0.506,1.292 -0.748,2.102c-0.373,1.285 -0.545,2.367 -0.63,3.161c-1.324,0.553 -3.722,1.316 -6.058,0.366c-1.035,-0.405 -1.798,-1.051 -2.359,-1.666c-0.708,1.51 -1.681,3.363 -2.951,5.341c-1.471,2.297 -2.88,4.041 -3.986,5.286c-0.584,-1.168 -1.16,-2.328 -1.736,-3.488c-1.082,1.441 -2.912,4.166 -4.399,7.981c-2.157,5.512 -2.258,9.895 -2.235,11.554c-0.599,-1.347 -1.323,-3.434 -1.658,-6.353c-0.288,-2.539 -1.074,-9.382 2.725,-18.359c0.522,-1.238 5.294,-12.286 11.484,-15.338c0.763,-0.374 1.402,-0.553 1.838,-0.646c1.058,-0.943 2.608,-2.18 4.469,-3.115c7.949,-3.963 12.62,2.18 12.831,2.476c4.905,6.766 2.016,19.06 1.736,20.212" class="main"/><path d="M101.036,67.064l0,-1.278c0,-1.821 1.285,-4.048 2.866,-4.959l8.276,-4.773c1.58,-0.911 2.865,-0.171 2.865,1.651l0,5.551c0,1.822 -1.285,4.049 -2.865,4.96l-8.276,4.772c-1.581,0.919 -2.866,0.172 -2.866,-1.65l0,-2.556l-2.028,1.167l0,2.567c0,1.822 -1.284,4.049 -2.873,4.96l-8.268,4.773c-1.581,0.918 -2.865,0.171 -2.865,-1.651l-0,-5.551c-0,-1.822 1.284,-4.049 2.865,-4.96l8.268,-4.78c1.589,-0.911 2.873,-0.171 2.873,1.658l0,1.27l2.028,-1.171Zm-13.169,4.97c-0.646,0.373 -1.176,1.292 -1.176,2.04l0,5.551c0,0.747 0.53,1.051 1.176,0.677l8.268,-4.772c0.654,-0.382 1.184,-1.293 1.184,-2.04l-0,-5.552c-0,-0.755 -0.53,-1.058 -1.184,-0.685l-8.268,4.781Zm16.035,-9.261c-0.647,0.374 -1.176,1.293 -1.176,2.04l-0,5.551c-0,0.748 0.529,1.059 1.176,0.678l8.276,-4.773c0.646,-0.374 1.176,-1.292 1.176,-2.04l-0,-5.551c-0,-0.747 -0.53,-1.059 -1.176,-0.677l-8.276,4.772Z" class="main"/></svg>
