<?xml version="1.0" encoding="UTF-8" standalone="no"?><!DOCTYPE svg PUBLIC "-//W3C//DTD SVG 1.1//EN" "http://www.w3.org/Graphics/SVG/1.1/DTD/svg11.dtd"><svg width="100%" height="100%" viewBox="0 0 200 200" version="1.1" xmlns="http://www.w3.org/2000/svg" xmlns:xlink="http://www.w3.org/1999/xlink" xml:space="preserve" xmlns:serif="http://www.serif.com/" style="fill-rule:evenodd;clip-rule:evenodd;stroke-linejoin:round;stroke-miterlimit:2;"><rect x="1.309" y="1.105" width="197.43" height="197.43" style="fill:#b3c4c6;"/><path d="M37.396,90.965l6.655,-6.269l-2.551,-6.769l3.551,-0.284l6.316,7.684l1.246,-3.704l-1.04,-4.467l3.527,-4.672l7.192,4.201l3.344,8.008l-1.217,1.782l-2.401,-2.938l2.065,7.681l6.886,7.22l2.625,-7.185l5.62,1.824l1.893,-5.731l-2.008,-6.979l3.465,-3.543l3.959,8.353l3.765,1.915l3.368,-6.751l4.784,-3.327l9.634,11.862l1.868,-3.419l-3.248,-6.405l1.73,-3.443l5.218,6.171l2.302,1.204l4.638,-5.745l6.621,6.286l2.929,-7.559l-0,-6.417l4.868,-1.032l7.309,9.951l3.088,-6.161l5.333,8.92l-2.112,5.331l2.872,0.926l1.346,3.21l5.008,-1.391l5.712,0.734l-5.504,10.55l3.524,4.664l-4.178,6.696l-2.765,-1.539l-4.449,6.812l-4.534,0.739l-2.772,-1.33l-15.359,12.143l-5.912,1.368l-8.269,0.445l-4.119,5.436l-6.323,1.363l-11.626,1.754l-7.615,-2.124l-3.422,-5.282l-8.947,-2.349l-0.557,-1.96l-2.932,1.032l-5.73,1.038l-7.331,0.051l-2.288,-1.671l3.37,-3.307l5.59,-0l3.48,-7.98l-1.782,-1.447l1.75,-3.857l-2.461,-1.22l-4.566,4.162l-4.045,-6.996l-5.756,-0.051l-4.249,-1.25l5.686,-6.395l3.153,2.192l5.104,4.626l3.406,-3.288l-1.067,-3.582l-5.506,-0.351l2.151,-2.766l2.627,-1.339l2.465,-4.296l-7.145,-1.622l-5.137,0.761l-5.173,-1.489l-4.151,4.961l-2.796,-2.374Z" style="fill:#0b6115;"/><path d="M34.595,108.54l2.951,-3.199l1.499,3.457l-4.45,-0.258Z" style="fill:#0b6115;"/><path d="M48.924,71.191l3.359,-1.869l-1.483,2.841l-1.876,-0.972Z" style="fill:#0b6115;"/></svg>
