<?xml version="1.0" encoding="UTF-8" standalone="no"?><!DOCTYPE svg PUBLIC "-//W3C//DTD SVG 1.1//EN" "http://www.w3.org/Graphics/SVG/1.1/DTD/svg11.dtd"><svg width="100%" height="100%" viewBox="0 0 200 200" version="1.1" xmlns="http://www.w3.org/2000/svg" xmlns:xlink="http://www.w3.org/1999/xlink" xml:space="preserve" xmlns:serif="http://www.serif.com/" style="fill-rule:evenodd;clip-rule:evenodd;stroke-linejoin:round;stroke-miterlimit:2;"><rect x="1.309" y="1.105" width="197.43" height="197.43" style="fill:#b3c4c6;"/><path d="M198.739,172.951l-3.239,0.415l-27.356,-1.252l-12.034,9.113l-5.704,-0.988l-7.484,6.72l-5.683,5.526l-10.564,-6.002l-5.431,-9.423l-0.65,-5.505l4.345,-1.869l-5.854,-3.532l-5.01,-0.579l-5.265,-8.032l-6.311,3.773l-6.39,-0.387l-2.473,-7.827l4.389,-6.698l6.236,-6.463l3.957,-2.34l0.107,-6.16l-7.928,-3.256l1.23,-6.222l4.508,-4.634l0.476,-6.334l-4.27,-5.16l-4.908,-5.69l8.183,-1.639l3.695,-5.683l-1.231,-8.926l2.817,-5.443l0.147,-8.454l-1.601,-5.344l15.541,-14.341l2.503,-3.962l-10.381,-6.463l-7.956,-5.508l-7.754,-0.135l-3.606,3.123l-15.953,-0.209l-0.675,-7.517l-6.736,-1.34l-1.318,2.79l-5.324,2.497l-2.619,-3.25l2.144,-4.427l-5.323,-1.881l3.25,-6.283l-2.732,-2.542l-3.486,1.614l-4.997,-5.41l-3.083,-4.094l11.694,-6.213l131.419,0l0.937,0.823l1.499,-0.823l2.252,0l0,171.846Z" style="fill:#282828;fill-opacity:0.12;"/><path d="M63.817,38.377l7.662,-0.739l4.108,-2.936l2.574,4.387l1.742,3.243l8.19,-0.406l11.078,-0.086l4.024,-2.905l5.407,0.628l11.909,8.93l-5.793,3.903l-10.026,10.5l1.023,5.186l1.786,4.602l-1.887,8.515l-2.956,3.317l1.372,4.543l-0.716,4.871l-11.533,1.094l-1.354,1.762l2.424,5.611l7.562,10.279l-0.99,3.232l-3.869,5.011l0.078,8.17l3.921,4.478l2.087,2.454l-2.694,3.877l-10.333,10.214l0.492,4.836l2.538,6.984l-7.233,4.299l-6.072,0.774l-2.854,-4.488l-8.707,-0.237l-4,1.424l-1.459,-3.696l2.472,-4.743l-0.306,-8.433l-2.402,-7.493l5.308,-12.305l-1.684,-3.323l-6.68,4.649l-3.071,-1.88l4.388,-6.65l0.383,-6.426l-3.255,5.202l-5.677,3.838l-2.115,-2.824l2.966,-12.51l6.681,-7.706l3.456,-11.04l3.928,-18.094l3.034,-2.663l0.165,-9.488l-4.506,-4.88l-0.73,-5.468l0.144,-9.394Z" style="fill:#0b6115;"/></svg>
