<?xml version="1.0" encoding="UTF-8" standalone="no"?><!DOCTYPE svg PUBLIC "-//W3C//DTD SVG 1.1//EN" "http://www.w3.org/Graphics/SVG/1.1/DTD/svg11.dtd"><svg width="100%" height="100%" viewBox="0 0 200 200" version="1.1" xmlns="http://www.w3.org/2000/svg" xmlns:xlink="http://www.w3.org/1999/xlink" xml:space="preserve" xmlns:serif="http://www.serif.com/" style="fill-rule:evenodd;clip-rule:evenodd;stroke-linejoin:round;stroke-miterlimit:2;"><rect x="1.309" y="1.105" width="197.43" height="197.43" style="fill:#b3c4c6;"/><path d="M198.739,198.536l0,-93.207l-0.139,1.212l-4.54,6.212l-8.45,9.825l-6.75,6.745l-1.355,1.046l-0.354,1.153l1.894,0.099l0.002,2.913l1.718,2.63l4.822,0.988l2.491,1.583l0.164,2.208l-2.135,0.474l-1.798,-1.389l-1.942,-0.136l-2.926,3.094l-2.708,-0.213l-2.265,1.26l0.196,2.408l1.116,1.125l-0.548,2.083l-1.804,-0.875l-8.608,-1.304l-3.406,-2.469l-4.125,0.854l-5.295,1.314l-2.938,0.069l-1.652,1.307l-3.352,0.848l-0.403,3.793l1.13,2.113l-0.681,2.377l2.214,2.701l1.704,2.55l1.819,-2.662l0.803,1.017l-0.991,3.465l-0.015,3.219l-0.066,5.102l-1.465,3.103l-2.443,2.778l-1.366,0.365l-6.896,-9.909l-2.503,-1.213l-2.717,3.401l-2.906,3.044l-1.306,4.425l-1.298,2.576l-0.312,7.257l0.972,2.972l0.106,4.18l0.665,1.489l70.642,-0Zm0,-175.771l-7.668,2.26l-10.772,8.947l-2.086,4.281l1.105,1.267l7.325,4.293l1.515,3.014l-1.715,3.852l-4.456,4.609l0.397,1.621l6.192,9.802l0.404,2.647l-1.034,2.525l-2.247,3.663l0.745,3.847l1.927,1.159l0.472,1.62l-0.008,1.805l1.501,2.094l1.67,1.109l0.104,3.77l-1.688,1.288l-0.999,1.909l2.981,2.661l4.641,4.54l1.694,1.971l0,-80.554Z" style="fill:#2c2c2c;fill-opacity:0.18;"/><path d="M41.199,198.536l-1.168,-1.764l-1.064,-0.673l0.29,-1.822l0.973,0.327l0.195,-2.881l-1.109,-1.654l-0.88,-0.482l-0,-3.809l1.208,-1.593l1.71,1.179l1.135,0l1.314,-2.177l1.84,1.735l1.144,-0.942l-0.579,-1.63l0.239,-2.664l2.793,-0.287l2.675,0.749l0.861,1.155l-1.757,1.352l1.064,1.955l1.588,1.417l3.125,0.139l0,3.101l-4.925,-0l0.153,3.462l-3.011,0.997l-0.828,2.171l0,2.639l-6.986,-0Z" style="fill:#2c2c2c;fill-opacity:0.18;"/><path d="M48.702,176.594l2.818,-4.915l1.821,-1.347l1.597,2.46l-1.066,4.263l-2.895,0l-2.275,-0.461Z" style="fill:#2c2c2c;fill-opacity:0.18;"/><path d="M40.229,181.773l0.488,-2.708l1.675,-0.966l-0.765,2.819l-1.398,0.855Z" style="fill:#2c2c2c;fill-opacity:0.18;"/><path d="M59.621,198.536l0.143,-2.131l2.72,-3.227l1.222,4.171l1.401,0.178l0.887,-2.233l-0.455,-2.282l2.331,-1.013l1.076,2.315l-1.201,3.74l-1.245,0l-0.079,0.482l-6.8,-0Z" style="fill:#2c2c2c;fill-opacity:0.18;"/><path d="M127.324,31.308l1.899,-1.516l2.296,0.172l1.738,2.868l4.263,3.143l2.065,-0l2.012,0.691l3.096,-1.235l2.293,-1.626l4.557,2.333l2.086,1.583l2.237,-1.276l0.929,-3.087l2.62,-1.646l0.431,-5.255l2.747,-3.002l4.238,-2.196l4.717,0l0.906,-1.272l4.284,2.729l2.03,0.432l2.666,2.826l-1.044,2.575l-1.242,1.213l-0.346,1.781l-1.563,0.4l1.262,3.545l-2.447,3.565l2.07,2.572l6.51,3.416l1.079,2.17l-2.365,2.961l-3.016,2.855l0.644,5.713l5.276,8.655l0.614,2.275l-1.733,2.383l-1.636,2.671l2.173,6.467l1.866,1.642l-0.158,2.962l2.014,2.584l0.747,0.205l0,1.11l-3.072,3.877l1.202,2.716l8.412,7.915l-0,1.184l-10.671,13.473l-9.844,10.044l-2.773,2.03l-1.886,1.18l-9.446,3.256l-3.549,2.239l-1.024,-1.709l-2.276,1.339l-4.084,1.773l-1.922,1.462l-1.67,-0.58l-3.311,2.174l-2.913,-2.111l-1.387,-1.486l0.553,-0.875l-0.879,-1.528l-1.577,0.542l-4.487,-1.708l-3.223,-1.998l-0.679,-3.393l0.607,-7.228l1.688,-0.443l-2.861,-5.819l0.473,-4.71l-1.75,-3.859l4.745,-6.722l2.614,0.03l2.61,-4.475l2.06,-1.463l5.926,-5.624l6.154,-8.91l2.957,0l1.407,1.599l0.905,-2.633l-1.438,-3.011l0.107,-2.524l-1.911,-2.895l-2.069,0l-2.481,-1.987l-1.795,-1.756l-1.822,-4.214l1.166,-3.716l0,-3.934l-1.568,-1.242l0.696,-3.237l-0.734,-2.457l-1.241,-0.673l0.179,-2.163l0.874,-2.513l-5.278,-4.437l-1.805,-1.573l-3.56,-0.225l-2.492,-1.368l-1.686,-2.098l-2.986,-1.922Z" style="fill:#2c2c2c;fill-opacity:0.18;"/><path d="M134.208,164.095l3.368,-1.229l2.766,-2.057l-2.749,-2.213l-3.731,1.098l-1.105,2.115l1.451,2.286Z" style="fill:#2c2c2c;fill-opacity:0.18;"/><path d="M137.308,156.379l-0.917,-3.144l1.409,-0.632l0.605,1.842l-1.097,1.934Z" style="fill:#2c2c2c;fill-opacity:0.18;"/><path d="M107.788,176.603l-0.563,-4.748l4.598,-4.015l0.622,2.003l-2.8,6.38l-1.857,0.38Z" style="fill:#2c2c2c;fill-opacity:0.18;"/><path d="M95.704,187.325l1.901,-1.492l-0.223,-4.613l-1.515,2.703l-0.163,3.402Z" style="fill:#2c2c2c;fill-opacity:0.18;"/><path d="M59.753,155.528l1.337,6.225l1.439,-0.347l1.419,0.857l0.025,4.214l1.41,5.58l5.32,10.096l1.218,1.214l-1.624,5.057l0.08,2.32l1.666,3.665l-0,4.396l5.264,0l2.966,0.506l0.801,-1.836l-1.029,-2.122l2.829,-3.961l2.65,-2.408l6.846,-0.269l2.603,-6.674l0.447,-5.766l0.829,-2.69l-0.392,-5.422l-0.282,-1.85l1.52,-0.128l0.638,-1.205l-1.979,-3.801l-0.917,-2.482l0.52,-0.986l3.408,-0.03l3.584,-5.255l1.809,0l0.827,2.611l2.244,-2.669l1.61,-0.791l-0.702,-1.802l-1.503,-1.237l0.252,-1.672l2.205,0l2.147,-2.584l1.327,-1.587l-1.519,-2.351l-2.821,-3.123l-2.918,-0.901l-3.295,-2.003l-1.867,-3.695l-0.016,-8.084l1.607,-6.767l0.009,-5.354l0.218,-1.746l1.729,0l1.945,-0.322l-0.319,-2.872l-1.453,-2.692l1.268,-0.069l1.358,2.23l3.934,-3.906l2.904,-0.569c-0,-0 6.992,-6.389 3.478,-3.179l6.259,-3.147l4.569,-5.917l2.302,-0.994l-1.861,-4.791l-1.415,-1.029l1.491,-3.02l1.882,-0.105l0.784,-2.483l-1.268,-2.43l1.985,-0.975l2.545,-0.621l1.072,-1.3l0.193,-1.154l3.391,-0.812l3.002,0.579l4.078,0.234l1.112,-0l-2.282,-5.026l-0.056,-3.838l0.475,-2.115l-1.997,-3.507l-0.003,-1.877l0.482,-1.502l-1.008,-2.119l-0,-2.859l0.652,-2.238l-5.748,-5.332l-4.52,0.47l-4.048,-3.888l-3.439,-2.944l-2.754,0.364l-1.097,4.422l-2.066,2.44l-2.539,1.148l-3.128,-1.374l-3.454,-0.032l-1.275,-1.246l-1.333,1.084l0.498,3.515l-1.765,0.799l-6.554,-0.561l-5.399,7.37l1.194,1.946l0.158,1.62l-1.61,2.423l-3.809,4.62l-1.246,2.483l-0.919,2.765l-4.921,-0.184l0,8.004l-4.95,9.072l1.894,2.497l0.017,4.897l-1.026,1.145l-7.958,0.19l-3.319,3.184l-1.277,3.317l0.386,4.566l-0.259,6.573l0.332,5.402l0.558,4.493l1.581,0.591l1.938,2.619l0.47,1.842l-1.411,4.123l-2.065,1.104l1.387,3.977l0.866,1.638l-1.019,2.033l-1.49,3.61l-1.846,3.155l-1.245,-0l-0.933,3.973l0.639,2.113l-0.43,2.146l-0.805,2.032l-1.214,2.047l-2.485,-0.969Z" style="fill:#2c2c2c;fill-opacity:0.18;"/><path d="M50.132,198.536l-0.148,-1.254l3.302,0.231l0.318,1.023l-3.472,-0Z" style="fill:#2c2c2c;fill-opacity:0.18;"/><path d="M138.645,33.346l2.19,0.749l2.095,0.325l2.791,-1.882l2.709,-0.227l4.953,1.976l2.458,-2.175l2.514,-1.529l0.089,-4.103l3.664,-6.061l4.22,-1.392l4.135,0.547l1.778,-1.381l5.311,3.413l3.177,-0.024l2.428,3.348l-1.84,5.456l3.963,-3.18l3.686,-3.139l-0.884,-0.955l-2.896,-0.653l-0.825,-1.917l-3.73,-1.079l-2.766,0.061l-0.011,-1.126l3.154,-1.697l4.709,1.743l3.837,0.538l1.489,-2.156l2.907,-0.185l-0.368,-2.098l-4.063,0.211l-2.903,-2.04l-1.63,-1.465l-1.616,0.962l-0.731,0.853l-0.712,-0.06l-0,-1.747l-1.318,-1.904l-1.655,1.917l-1.086,3.052l-2.026,2.083l-3.04,-1.88l-1.026,-1.948l0.236,-1.217l1.379,0.617l2.343,-3.06l-1.886,-1.209l-1.627,0.108l-1.127,1.343l0.407,1.595l-0.341,0.953l-1.922,0.331l-1.262,2.216l-2.374,0.302l-0.311,2.199l-2.043,0l0.851,-3.024l0.339,-3.034l-2.887,-0.062l-2.103,3.559l-3.146,5.673l-1.464,0.002l-1.711,-0.589l0.406,-3.757l1.817,-3.56l2.21,-0l0,-1.47l-2.653,-1.197l-1.309,-1.027l-1.889,1.757l-1.592,4.338l-4.767,0.54l-1.482,2.079l-0.779,1.307l0.252,1.998l0.759,0.756l-2.012,0.633l-2.44,-0.921l-0,-1.872l-3.75,0.698l-1.262,-2.918l-1.966,0.632l1.193,3.189l0.87,1.949l-1.655,0.628l-1.286,-0.33l-1.637,-1.357l-2.796,0.167l-0.335,1.591l-1.154,-0l-0.835,-1.465l-0.421,1.202l0.723,1.85l-0.204,1.597l-2.396,0.019l-1.769,2.275l-1.28,-0.067l-0,-1.755l1.414,-2.912l0.964,-1.431l-1.668,-2.16l-1.081,3.284l-1.529,2.347l-1.355,-0.406l0.188,-1.557l-1.722,-0.921l-0.351,2.19l1.822,1.556l-1.064,1.569l-1.8,-0.614l-2.385,1.139l-1.341,-0.678l-1.221,-1.754l-1.569,2.559l-0.355,1.664l-2.151,0.821l-1.262,3.788l-2.869,0.406l-3.298,0l0.454,1.944l4.547,-0.407l2.167,0.591l-0.796,1.591l-1.253,-0.732l-0.2,1.655l-1.533,0l0,-0.826l-3.943,-0.625l-0.012,1.554l1.332,0.214l-0.99,1.91l-1.926,2.313l-0.765,-0.309l-0.649,-0.814l0,-2.327l-2.104,-0.863l0.137,1.99l1.078,-0l-0.205,1.795l-1.655,0.242l-0.149,1.335l1.181,2.077l-0.899,2.405l-0.973,1.019l-0.945,2.114l-0.893,-1.18l-4.079,-0.029l-1.345,0.334l-0.421,1.412l-3.066,0.886l-2.2,3.877l-0.588,1.593l-2.194,0.4l-0.009,2.084l3.091,-0l0.946,-0.237l0.855,0l-0,1.053l-1.84,0.787l-0.011,1.497l-1.484,-0l-0.373,-1.624l-2.297,-0l-0.998,1.904l1.907,1.662l-0.946,0.983l-1.55,-0.006l-0.84,-1.683l-1.875,3.32l0.245,2.454l1.382,0.795l-1.546,0.247l0.035,1.658l1.849,-0l0.05,1.755l-1.748,-0l-1.754,2.5l-2.504,-0.075l-2.514,2.694l0.835,1.628l-0.519,1.766l-1.256,0.104l-1.624,0.096l0,-2.216l-2.266,0.506l-3.287,3.616l-1.531,2.999l-1.03,3.643l0.173,1.865l3.347,0.126l1.683,-3.372l0.717,-3.064l1.642,-0.623l1.473,0l0.402,1.407l-1.224,3.96l-2.451,1.675l-0.957,2.167l-3.457,-0.006l-0.853,0.809l-1.228,-0.133l-0.232,-2.16l-2.064,-1.259l-1.029,1.419l-0.839,3.03l-2.046,-2.281l-1.525,1.191l-1.426,3.395l-0.027,3.966l-1.9,0.155l-0.762,-0.992l-1.068,1.386l-1.561,0.179l-0.403,1.901l-2.55,-1.106l-3.459,0.036l0.827,2.18l1.145,-0l1.016,0.225l-0.58,4.132l-2.168,0l-0.053,-1.132l1.054,-0.531l-0.71,-0.862l-1.246,-0.37l-0.892,-1.075l-0.1,2.105l-0.988,0.296l0,-1.962l-1.615,-0l-0.033,1.258l0.975,0.774l-0.237,1.711l-2.271,0l0,-1.932l-1.737,0.899l-0.322,1.784l3.183,1.772l1.873,-1.693l1.833,1.092l-0.373,1.103l-4.016,0l-0.825,1.449l-0.784,-0.834l-1.933,-1.508l-1.418,1.369l0.085,2.421l2.864,1.031l-1.508,1.866l-1.102,-0.595l-0.019,3.524l3.155,0l0.465,-1.163l3.834,-0l1.053,-2.247l1.655,1.805l2.361,0.047l1.477,-2.439l0.979,-0l-0.472,1.795l-0.009,1.714l-1.545,1.498l-1.868,1.36l-1.553,-0.767l-0.082,-1.171l-1.573,0.151l-3.816,1.374l-0.698,-1.491l-1.91,1.233l-1.463,-0l0.929,3.235l1.75,0.04l0.055,3.195l-1.356,0.039l0.975,2.986l2.228,-0.362l4.242,-4.284l2.552,0.655l-0.56,2.992l-1.785,0.176l-0.6,1.88l-0.959,-1.605l-2.169,3.459l-1.056,-0l-0.199,1.804l0.592,0.202l-1.071,2.58l-1.962,0.699l0.272,2.335l3.742,0l0.624,-3.465l1.725,0.329l-0.17,1.555l-1.133,0l-0.009,1.945l1.061,0.292l-0.383,1.393l-1.415,0l-1.02,2.227l1.094,0.819l1.18,-1.325l1.024,0.269l-1.299,1.788l-1.426,1.794l-1.304,-0.336l-0.447,-0.898l-0.608,-1.42l-1.496,0.749l-0.481,1.85l0.481,-1.85l-0.481,1.85l2.796,4.565l2.842,2.271l2.681,0l0.416,1.107l0.813,1.48l6.031,0.09l2.923,-1.644l4.473,-4.273l1.548,-3.84l3.143,-4.437l1.833,2.184l3.05,-3.047l0.849,-1.843l-1.459,-2.099l2.838,-4.511l2.236,1.715l-1.629,1.891l1.078,3.168l1.456,2.155l1.407,1.284l1.078,1.733l1.168,-1.253l0.209,-2.858l-0.145,-2.637l1.58,-5.052l1.56,-0.355l2.704,-5.903l-2.039,-6.365l0.185,-1.781l3.123,-2.353l0.022,-1.759l-1.358,-1.287l-1.791,-0.843l-1.117,-7.593l-0.103,-6.258l0.225,-4.372l-0.527,-6.081l2.817,-5.961l3.355,-1.934l6.979,-0.165l0.62,-0.966l-0.684,-1.794l-2.569,-1.54l6.065,-11.166l-0.2,-8.8l6.16,-1.8l1.316,-4.391l2.979,-3.129l2.107,-1.385l0.126,-1.383l-0.691,-1.26l-1.001,-1.309l4.581,-5.73l2.194,-2.893l7.16,-0.098l0.074,-2.671l2.676,-2.822l1.7,2.019l4.005,0.22l2.133,0.287l2.529,-1.575l0.795,-2.39l0.707,-2.092l0.091,-1.569l1.96,-0.12l2.23,-0l2.914,-3.257l4.162,0l2.202,3.587l2.69,1.47l1.375,0.577Z" style="fill:#0b6115;"/></svg>
