<?xml version="1.0" encoding="UTF-8" standalone="no"?><!DOCTYPE svg PUBLIC "-//W3C//DTD SVG 1.1//EN" "http://www.w3.org/Graphics/SVG/1.1/DTD/svg11.dtd"><svg width="100%" height="100%" viewBox="0 0 200 200" version="1.1" xmlns="http://www.w3.org/2000/svg" xmlns:xlink="http://www.w3.org/1999/xlink" xml:space="preserve" xmlns:serif="http://www.serif.com/" style="fill-rule:evenodd;clip-rule:evenodd;stroke-linejoin:round;stroke-miterlimit:2;"><rect x="1.309" y="1.105" width="197.43" height="197.43" style="fill:#b3c4c6;"/><g><path d="M129.718,33.673l0.074,-3.817l3.17,-2.759l-0.032,-3.435l1.016,-0.167l0.085,-5.254l-1.184,-0.861l-0.673,-2.243l1.808,-1.606l2.996,1.862l0.157,0.953c-0,0 3.654,4.011 3.654,3.999c0,-0.013 5.346,3.567 5.346,3.567l5.743,2.513l5.844,1.126l4.606,-2.115l0.348,1.043l-2.227,1.717l0.179,1.493l2.57,2.589l1.843,0.777l-0.693,0.7l-2.196,-0.019l-3.813,2.495l-5.221,-0.447l-1.944,1.276l-4.235,3.442l-2.086,3.576l-0.017,1.813l-1.274,-0.011l-2.673,-2.28l-3.833,-3.37l-3.773,-1.871l-2.451,-0l-2.449,1.152l-0.012,1.373l-1.316,0.392l-2.121,-1.541l-0.982,-0.641l-2.096,0.087l-1.481,1.743l0.529,1.419l1.837,1.591l2.838,0.024l0.547,1.404l0.336,1.454l-1.741,0.276l-1.655,-0.446l-0.915,-0.008l-1.404,1.529l-0.844,1.454l-2.135,-0.06l-0.582,-1.063l1.254,-2.254l1.055,-1.594l-2.45,-2.533l-0.56,-1.533l2.215,-2.12l3.139,-1.882l-0,-3.024l0.135,-1.266l1.386,0.404l1.61,0.817l0.655,0.979l1.632,0.014l2.461,-0.833Z" style="fill:#0b6115;"/><path d="M113.882,80.685l1.461,-4.803l2.213,-3.011l1.328,-3.51l0.035,-3.971l-1.288,-1.903l1.243,-1.626l-0.479,-1.883l-1.132,-1.022l0.1,-1.908l2.219,-0.067l1.303,-0.928l-0.345,-2.776l0.971,-0.883l1.83,0.903l0.522,2.625l3.263,0.064l1.82,-1.037l0.789,2.512l1.242,2.664l2.127,1.833l1.295,3.305l0.11,3.664l-0.752,2.934l-2.752,2.004l-0.45,1.536l0.388,2.787l-2.078,-0.018l-1.618,0.748l-1.029,1.519l-0.174,3.756l1.133,1.653l0.067,2.307l-0.049,3.137l-2.136,1.679l-1.904,1.478l-0.754,3.072l-0.026,2.924l1.473,1.02l1.786,1.233l-1.399,1.845l-1.303,0.149l-1.183,0.044l-0.208,1.288l-1.312,2.897l-2.211,0.94l-1.533,0.476l-0,-2.561l0.735,-0.173l0.683,-1.101l0.927,-1.413l-0.933,-1.131l-2.3,0.446l-1.237,1.779l-0.016,1.805l-1.93,-0.016l-0.837,-1.047l-0.636,0.82l-0.466,1.404l0.303,2.198l-2.158,1.94l-1.592,-1.97l0.148,-1.965l-1.562,-0.014l-2.256,2.857l-0.194,1.34l-2.813,-0l-4.945,0.122l-1.071,-1.463l-1.527,0.229l-1.091,-2.304l-1.91,-1.248l-0.432,2.285l-1.293,0.41l-0.018,1.971l2.021,1.228l1.023,1.264l-0.028,1.433l-2.011,0.216l-0.477,-0.429l-1.5,0.385l-0.314,2.422l-2.179,2.061l-2.424,1.944l-2.703,-1.161l-1.669,-1.767l-0.065,-2.749l0.024,-2.654l1.711,-1.314l0.422,-1.283l-2.17,-0.863l-2.519,1.855l-2.214,-1.118l-0.904,-0.747l-1.556,0.837l-2.471,2.215l-3.316,0.199l-3.881,-0.033l-0.893,0.808l-3.037,0.941l-1.762,-0.364l-0.662,-1.304l-1.496,1.244l-0.792,1.937l-0.019,2.088l-2.029,0.434l-0.817,-1.902l-1.687,0.035l-1.563,0.637l-1.361,0.807l-1.289,-1.088l-2.145,-0.004l0.025,-2.864l2.648,-0.417l1.904,-1.404l0.937,-1.728l0.995,0.009l3.877,-2.385l1.397,-0.847l2.602,-2.895l1.679,-1.528l3.701,-0.3l1.535,1.273l1.812,-1.444l2.888,-0.064l1.794,0.431l2.112,-1.472l4.84,0.042l1.742,0.763l1.621,1.118l3.724,-0.449l2.054,-1.4l-0.061,-1.739l-1.651,0.007l0.016,-1.845l1.73,-1.609l2.224,-0.461l2.158,-3.314l0.479,-3.014l-0.186,-2.447l2.022,-1.789l2.1,-0.612l0.71,1.158l-3.066,2.085l0.719,0.494l0.569,1.513l1.098,0.921l2.041,-0.822l5.396,-2.205l2.525,-0.663l3.32,-3.149l2.313,-2.426l2.98,-2.871l1.247,-0.711Z" style="fill:#0b6115;"/><path d="M53.871,124.986l1.942,-2.343l1.11,-0.826l1.11,-2.954l1.91,1.173l2.653,-0.141l2.532,-0.874l0.799,-1.735l2.163,-0.726l1.931,0.067l1.509,1.302l1.272,2.17l-0.546,2.111l-2.091,1.067l-0.827,2.738l-2.398,-0.609l-1.7,-1.725l-1.181,-0.012l-0.76,1.501l-2.341,1.085l-0.995,1.186l-0.152,2.85l-2.162,2.382l-1.577,-2.468l-1.323,-2.025l0.018,-2.062l-0.896,-1.132Z" style="fill:#0b6115;"/><path d="M30.813,125.974l1.644,-0.274l1.619,-0.013l1.43,-1.482l1.802,-1.388l1.656,-2.089l1.337,-0.062l1.589,0.014l-0.051,2.98l1.781,0.117l2.601,-0.568l1.948,-0.234l0.73,1.095l-2.274,2.318l2.834,1.616l0.248,2.403l-0.081,1.642l-1.557,1.089l-0.058,1.459l-1.331,2.087l-0.403,3.094l0.133,1.537l0.68,0.214l-1.081,1.59l-2.294,0.559l-1.036,1.682l-2.192,-0.09l0.019,-2.151l0.806,-1.128l-0.992,-1.119l-1.056,0.632l-0.358,1.859l0.346,2.6l-2.805,-0.169l0.071,-3.358l-1.363,-3.011l0.014,-1.575l1.004,-0.78l1.818,-1.503l1.5,-2.797l-0.835,-2.861l-1.399,-1.59l-1.658,-0.182l-0.022,2.522l-1.511,1.866l-0.624,-2.031l-0.086,-2.199l-1.571,-0.014l-1.284,-0.487l0.312,-1.82Z" style="fill:#0b6115;"/><path d="M178.243,21.096l1.888,-2.809l2.555,-1.029l1.535,-2.496l2.673,1.207l-3.695,1.412l-3.045,2.514l-1.911,1.201Z" style="fill:#0b6115;"/><path d="M169.663,24.493l-0.004,-1.399l2.919,0.025l-2.915,1.374Z" style="fill:#0b6115;"/><path d="M13.138,185.576l4.162,-2.719l-0.769,2.045l-2.778,1.319l-0.615,-0.645Z" style="fill:#0b6115;"/><path d="M27.243,170.141l1.446,-2.076l0.176,1.019l-1.108,1.182l-0.514,-0.125Z" style="fill:#0b6115;"/></g></svg>
