<?xml version="1.0" encoding="UTF-8" standalone="no"?><!DOCTYPE svg PUBLIC "-//W3C//DTD SVG 1.1//EN" "http://www.w3.org/Graphics/SVG/1.1/DTD/svg11.dtd"><svg width="100%" height="100%" viewBox="0 0 200 200" version="1.1" xmlns="http://www.w3.org/2000/svg" xmlns:xlink="http://www.w3.org/1999/xlink" xml:space="preserve" xmlns:serif="http://www.serif.com/" style="fill-rule:evenodd;clip-rule:evenodd;stroke-linejoin:round;stroke-miterlimit:2;"><rect x="1.309" y="1.105" width="197.43" height="197.43" style="fill:#b3c4c6;"/><path d="M26.594,50.433l0.992,-3.218l9.355,-2.668l5.563,4.228l1.32,1.191l2.434,-2.091l19.75,-0.433l7.08,2.257l11.35,1.241l4.84,-3.482l5.165,0.09l4.525,3.974l4.428,-2.428l6.816,2.59l2.399,1.256l8.657,-0.683l-0.059,4.97l8.15,-0.432l0.343,1.526l3.383,0.059l0.145,1.972l6.941,-0.058l-0.033,1.883l12.734,-0.042l1.663,-2.062l3.428,0.505l1.494,2.393l3.957,2.84l6.055,-0.307l0.667,1.661l10.883,0.363l1.339,-1.334l4.31,0.075l-0.086,4.894l-1.655,3.756l-9.163,5.41l-6.719,4.262l-9.199,0.28l-6.985,5.569l1.778,1.717l-9.244,10.128l-7.347,5.792l-0.138,7.894l6.465,5.814l0.604,3.375l-7.56,4.953l-4.752,5.258l-0.585,6.145l-7.833,2.659l-2.979,0.571l-5.607,6.529l-0.046,2.598l-6.909,0.683c-0,-0 -18.856,2.415 -9.428,1.207l-16.634,-0.761l-7.317,5.541l-3.468,-0.601l-4.55,4.086l-3.456,3.36l-6.423,-3.649l-3.302,-5.73l-0.395,-3.347l2.641,-1.137l-3.559,-2.147l-3.046,-0.352l-3.202,-4.884l-3.837,2.294l-3.886,-0.235l-1.503,-4.759l2.668,-4.073l3.792,-3.929l2.406,-1.423l0.065,-3.746l-4.82,-1.98l0.748,-3.783l2.741,-2.817l0.289,-3.852l-2.596,-3.137l-2.984,-3.46l4.975,-0.997l2.247,-3.455l-0.748,-5.427l1.712,-3.31l0.09,-5.14l-0.974,-3.25l9.45,-8.72l1.522,-2.409l-6.313,-3.929l-4.837,-3.349l-4.715,-0.083l-2.192,1.9l-9.7,-0.128l-0.411,-4.57l-4.096,-0.815l-0.801,1.696l-3.237,1.519l-1.593,-1.977l1.304,-2.691l-3.236,-1.144l1.975,-3.82l-1.66,-1.546l-2.12,0.982l-3.039,-3.29l-1.874,-2.489l7.139,-3.793l1.903,-1.252l6.171,0.678Z" style="fill:#0b6115;"/><g><path d="M19.212,73.685l4.659,-0.45l2.497,-1.785l1.566,2.668l1.059,1.971l4.979,-0.246l6.736,-0.052l2.447,-1.767l3.288,0.382l7.241,5.43l-3.523,2.373l-6.095,6.384l0.622,3.154l1.086,2.797l-1.148,5.178l-1.797,2.017l0.834,2.763l-0.436,2.961l-7.012,0.665l-0.824,1.072l1.475,3.411l4.598,6.25l-0.603,1.966l-2.352,3.046l0.047,4.968l2.385,2.723l1.268,1.492l-1.637,2.357l-6.284,6.211l0.3,2.94l1.543,4.247l-4.398,2.614l-3.692,0.47l-1.735,-2.729l-5.295,-0.144l-2.431,0.866l-0.887,-2.247l1.503,-2.884l-0.187,-5.127l-1.46,-4.556l3.228,-7.482l-1.025,-2.021l-4.061,2.827l-1.868,-1.143l2.669,-4.044l0.232,-3.907l-1.979,3.163l-3.452,2.333l-1.286,-1.716l1.804,-7.607l4.062,-4.686l2.102,-6.713l2.388,-11.001l1.844,-1.619l0.101,-5.77l-2.74,-2.967l-0.444,-3.324l0.088,-5.712Z" style="fill:#303030;fill-opacity:0.19;"/><path d="M198.739,46.895l0,-45.79l-80.443,0l3.208,2.939l5.416,0.788l0.48,7.292l2.474,3.976l4.172,4.415l1.364,3.444l-1.783,1.037l-1.814,-2.79l-1.504,-3.642l-2.609,-0.738l-2.251,2.217l-0.346,7.905l2.293,1.271l-0.129,3.369l-1.997,1.673l-0.24,5.087l-1.248,0.65l-0.177,4.053l-1.25,2.225l-0.931,2.519l-0.999,0.636l3.022,0.941l0.385,3.273l6.416,1.438l0.974,1.424l3.892,0.152l-0.064,1.456l7.133,0.489l-0.073,1.677l9.681,-0.01l2.876,-2.255l5.326,0.608l1.133,3.198l3.542,2.181l5.628,-0.728l1.795,1.266l8.196,0.291l3.359,-1.025l2.554,0.063l0.157,-2.089l-1.194,-1.941l-0.322,-4.203l12.425,-8.826l1.473,0.084Z" style="fill:#303030;fill-opacity:0.19;"/><path d="M161.004,120.611l2.057,-1.062l0.16,1.642l-2.217,-0.58Z" style="fill:#303030;fill-opacity:0.19;"/></g><path d="M185.326,114.985l-6.25,-5.93l6.223,-2.819l5.46,2.644l-5.433,6.105Z" style="fill:#0b6111;"/></svg>
