<?xml version="1.0" encoding="UTF-8" standalone="no"?><!DOCTYPE svg PUBLIC "-//W3C//DTD SVG 1.1//EN" "http://www.w3.org/Graphics/SVG/1.1/DTD/svg11.dtd"><svg width="100%" height="100%" viewBox="0 0 200 200" version="1.1" xmlns="http://www.w3.org/2000/svg" xmlns:xlink="http://www.w3.org/1999/xlink" xml:space="preserve" xmlns:serif="http://www.serif.com/" style="fill-rule:evenodd;clip-rule:evenodd;stroke-linejoin:round;stroke-miterlimit:2;"><rect x="1.309" y="1.105" width="197.43" height="197.43" style="fill:#b3c4c6;"/><g><path d="M190.433,190.277l-0.035,-37.431l-58.837,0l-0,37.431l58.872,0Z" style="fill:#626262;fill-opacity:0.15;"/><g><path d="M167.477,185.968l-0.16,-6.142l1.276,-1.39l2.259,2.116l-3.375,5.416Z" style="fill:#0b6115;"/><path d="M165.192,175.232l-1.15,-2.452l2.37,0.027l-1.22,2.425Z" style="fill:#0b6115;"/><path d="M157.838,169.797l-1.324,-1.365l1.286,0.015l0.038,1.35Z" style="fill:#0b6115;"/><path d="M150.085,165.307l-0.376,-1.329l1.307,0.015l-0.931,1.314Z" style="fill:#0b6115;"/></g></g><g><path d="M94.9,161.765l-27.746,-47.492l-57.712,-0l-0,76.004l85.458,0l-0,-28.512Z" style="fill:#626262;fill-opacity:0.15;"/><g><path d="M59.205,130.045l-0.032,29.67l0.512,1.311l1.563,0.319l0.441,-0.456l0.55,0.009l0.083,0.407l-0.43,0.045l-0.594,0.682l-0.671,0.371l-1.327,-0.309l-0.569,-0.803l-0.563,0.295l-2.013,-0.462l-1.375,0.614l-2.112,-1.541l0.46,-0.904l-0.459,-0.359l-0.942,1.387l-1.661,-1.743l-0.528,-0.095l0.525,-0.652l-0.747,-0.416l0.015,0.482l-0.546,0.011l-1.101,-0.018l-0.278,0.439l0.128,-1.196l-1.272,1.204l-0.402,0.616l-0.028,0.463l0.327,0.408l0.505,0.053l0.396,0.12l-0.574,0.826l-0.341,1.067l-0.459,0.096l-0.763,-0.923l-1.573,1.667l-0.937,0.518l-0.408,0.575l-0.886,0.541l-0.819,-0.182l0.367,-0.843l0.693,-0.37l0.221,-0.095l0.005,-0.473l-0.295,-0.211l-0.07,0.343l-0.401,0.014l-0.338,-0.171l0.161,-0.77l0.639,-1.002l0.055,-0.361l-0.122,-0.47l0.073,-0.532l0.369,-0.501l1.029,-0.44l0.54,0.274l0.302,0.107l0.591,-0.154l0.423,0.088l0.269,0.263l0.238,-0.167l-0.16,-0.537l-0.745,-0.245l-0.348,-0.396l0.377,-0.641l0.343,0.002l0.321,-0.191l-0.14,-0.487l-0.577,-0.049l-0.388,0.506l-0.222,0.454l-0.382,0.185l-0.295,-0.153l-0.433,-0.66l-0.13,0.696l-0.525,0.159l-1.353,1.373l-0.876,1.18l-0.523,0.842l-0.405,-0.118l-0.452,-0.071l0.277,0.432l0.303,0.094l-0.001,0.332l-0.9,0.988l-0.95,0.823l-0.705,1.354l0.189,0.344l1.156,0.014l-0.005,1.121l-1.189,1.03l-2.375,2.387l-0.638,0.853l-0.188,-0.732l-0.015,-0.507l-0.098,-0.343l-0.307,-0.466l-1.012,0.019l-0.01,0.742l0.314,0.385l0.828,0.044l-0.266,1.288l-0.395,0.023l0.23,0.539l-0.15,0.477l-0.557,0.576l-0.426,-0.2l-0.118,0.545l-0.796,-0.109l-0.187,0.896l-0.611,-0.028l-0.334,0.502l-0.512,-0.009l-0.244,0.769l-0.002,0.85l-0.594,0.3l-0.994,0.175l-0.221,0.43l-0.519,0.054l-0.509,-0.202l-0.193,-0.267l-0.273,-0.396l1.224,-1.563l0.829,-0.958l1.33,-0.296l0.108,-0.8l1.167,-1.729l0.484,-0l0.166,0.296l0.31,-0.105l-0.073,-0.532l-0.35,-0.15l-0.102,-0.93l0.181,-0.757l0.464,0.004c0,-0 0.223,0 0.221,-0.003c-0.002,-0.004 -0.038,-0.287 -0.038,-0.287l-0.342,-0.117l-0.265,-0.684l0.261,-0.517l0.413,-0.336l0.384,-0.681l0.136,-0.532l-0.176,-0.399l-0.331,0.524l-0.515,0.544l-0.411,0.117l-0.331,0.581l-0.689,-0.003l-0.317,-0.828l0.159,-0.56l0.3,0.42l0.348,0.05l-0.097,-0.499l-0.599,-0.213l-0.139,-0.518l-0.277,0.641l-0.464,0.688l-0.086,0.289l0.017,0.34l0.291,0.326l-0.086,0.612l-0.423,-0.007l-0.531,-0.853l-0.491,-0.942l-0.431,-0.037l-0.321,0.711l-0.288,-0.496l-0.214,-0.818l-0.837,0.16l-0.493,0.87l-0.581,0.574l-0.469,-0.008l-0.104,-1.016l0.181,-0.34l-0.754,-0.395l0.273,-0.784l0.262,-0.079l0.002,-0.564l-0.819,-1.529l-0.009,-0.862l-0.207,-0.244l0.171,-0.549l0.275,-0.114l0.165,-0.433l-0.424,-0.299l-0.369,0.894l-0.5,0.599l0.35,0.61l-0.105,0.671l-0.533,0.335l-2.345,0.064l0.018,-0.851l-0.527,-0.086l-0.031,-0.316l-0.355,-0.175l-0.353,-0.187l-0.173,-0.403l-0.216,-0.509l0.474,-0.779l0.428,-0.054l0.396,0.356l0.162,0.544l0.297,-0.366l0.021,-0.372l0.472,0.238l0.006,0.444l0.556,-0.025l0.172,-0.328l-0.304,-0.384l-0.01,-0.629l-0.368,-0.223l-0.54,0.437l-0.977,-0.271l-0.413,-0.365l-0.585,-0.876l-0.141,0.182l-0.037,0.629l-0.534,-0.017l-0.52,-1.211l-0.078,-0.76l0.556,-1.004l0.53,-1.127l0.576,-0.946l0.462,0.021l0.267,0.438l0.143,-0.602l-0.254,-0.5l-0.159,-0.251l0.412,-0.672l0.327,0.279l0.002,-0.48l0.233,-0.391l0.643,0.01l0.335,0.06l-0.002,0.462l0.026,0.271l0.72,0.016l0.787,-0.614l0.624,-1.232l0.495,-0.066l0.157,0.484l1.137,-0.052l0.803,-0.56l0.144,-0.677l-0.025,-1.095l-0.485,-0.884l0.047,-0.658l0.376,-0.01l0.316,-0.517l-0.623,-0.928l-0.82,0.454l-0.537,0.485l-0.454,0.004l-0.612,0.062l-0.355,0.834l-0.608,-0.598l-0.938,-0.044l-1.731,-0.04l-0.796,0.635l-0.94,-0.041l-1.349,-0.873l-0.498,-1.203l0.491,-0.371l0.253,0.189l0.041,-0.391l-0.437,-0.401l-1.561,-0.02l-0.472,-0.442l-0.417,-0.419l0.475,-0.504l0.407,-0.072l0.509,-0.049l0.222,-0.778l2.246,-0.042l0.018,-0.361l-0.308,-0.199l0.092,-0.255l1.454,-0.161l0.445,-0.342l0.366,0.006l0.32,-0.353l0.498,0.069l-0.024,0.926l-0.259,0.062l-0.003,0.517l0.821,0.299l0.21,0.21l2.962,0.141l0.358,-0.339l0.14,-0.686l0.556,0.009l0.042,0.395l0.276,0.005l0.002,-0.439l0.282,-0.433l0.719,0.071l0.43,-0.299l-0.232,-0.776l-0.983,-0.016l-0.768,0.446l-0.675,-0.634l0.162,-0.466l-0.24,-0.638l-1.036,-0.385l-0.596,0.57l-1.286,-0.112l-0.498,-0.737l-0.504,-1.069l-1.058,-0.803l-1.116,-0.981l-1.146,-0.019l-0.504,-0.917l0.657,-1.449l2.377,0.179l1.697,-1.133l1.033,-1.247l1.509,-2.053l0.604,0.152l1.46,-0.152l0.984,-0.931l0.329,0.14l0.421,0.829l0.277,0.454l-0.051,-0.748l0.073,-0.536l0.503,0.143l-0.014,-0.233l-0.396,-0.104l0.294,-0.656l0.316,0.042l0.475,0.132l1.638,-0.03l0.883,-0.286l0.887,-0.841l0.366,-0.705l1.535,-0.023l0.571,0.75l-0.142,0.39l-0.465,-0.004l-0.269,-0.004l0.14,0.59l0.343,0.12l0.601,-0.108l0.459,-0.644l0.252,-0.604l0.462,0.344l0.302,0.891l1.265,0.087l0.529,-0.448l2.249,0.059l0.093,0.723l-0.229,0.331l0.284,0.147l0.814,-0.033l0.538,0.577l1.109,-0.234l0.835,-0.25l0.595,0.324l2.356,-0.235l0.297,0.319l1.685,0.185l0.533,0.505l2.786,-0.092l0.897,0.768l1.873,-0.054l0.664,-0.674l1.208,-0.14l0.945,0.728l1.672,0.769l0.975,0.678Z" style="fill:#0b6115;"/><path d="M61.961,162.181l-0.005,0.985l0.628,0.537l0.523,0.847l0.82,-0.167l1.83,2.15l1.396,0.989l0.611,-0.433l-0.633,-1.186l-0.909,-0.617l-0.513,0.172l-0.671,-1.394l-0.929,-0.897l-0.978,-1.026l-0.53,0.424l-0.64,-0.384Z" style="fill:#0b6115;"/><path d="M67.105,164.736l0.52,-0.805l0.534,-0.919l1.069,-0.02l0.699,0.977l1.857,2.474l-0.681,0.968l-0.71,-0.837l-0.297,-1.259l-0.529,-0.502l-0.13,-1.063l-0.376,0.171l-0.003,0.678l0.418,1.621l0.176,1.471l-0.798,-0.584l-0.617,-0.65l0.368,-0.741l-0.426,-0.494l-0.318,0.379l-0.756,-0.865Z" style="fill:#0b6115;"/><path d="M71.783,167.741l0.283,-0.655l0.743,0.79l2.206,4.182l0.685,1.669l0.865,0.417l0.931,0.314l0.674,0.897l0.192,0.181l-0.143,1.06l0.105,0.976l0.349,0.565l-0.171,0.56l-0.805,0.987l-0.687,-0.066l0.368,-0.881l0.352,0.006l0.209,-0.402l-0.298,-0.536l-0.285,-0.685l-0.05,-0.621l-0.397,-0.581l0.094,-0.292l0.036,-0.465l-0.541,-0.009l-0.2,0.321l-0.668,0.108l-0.227,-0.537l0.616,0.01l-0.494,-0.756l-0.48,0.224l0.003,-0.743l-0.829,-1.682l-0.956,-0.989l-0.016,-1.406l-0.829,-1.041l-0.635,-0.92Z" style="fill:#0b6115;"/><path d="M75.346,175.249l-0.192,1.871l0.246,-0.682l0.048,-1.069l-0.102,-0.12Z" style="fill:#0b6115;"/><path d="M76.013,177.846l-0.186,-0.499l0.503,-1.279l0.879,1.5l-0.462,0.821l-0.361,-0.745l-0.373,0.202Z" style="fill:#0b6115;"/><path d="M76.227,179.215l-0.302,-0.146l0.028,-0.454l0.348,0.114l-0.074,0.486Z" style="fill:#0b6115;"/><path d="M73.005,175l0.151,1.778l2.08,3.603l-0.246,-1.498l-0.607,-1.306l0.056,-0.745l-1.287,-1.957l-0.147,0.125Z" style="fill:#0b6115;"/><path d="M71.412,172.791l-0.055,0.67l0.291,1.364l0.302,-0.353l-0.077,-1.186l-0.461,-0.495Z" style="fill:#0b6115;"/><path d="M72.239,172.182l0.435,1.708l0.436,-0.711l0.366,-0.398l-0.605,-0.842l-0.608,0.06l-0.024,0.183Z" style="fill:#0b6115;"/><path d="M70.396,168.246l0.33,1.495l0.469,0.727l-0.096,0.737l-0.321,0.221l0.406,0.52l0.527,-1.006l0.134,-0.797l-0.476,-0.847l-0.271,-0.754l0.037,-0.178l-0.739,-0.118Z" style="fill:#0b6115;"/><path d="M69.363,170.988l0.162,0.488l-0.003,0.843l0.39,0.493l0.367,0.216l0.18,0.197l-0.181,0.244l0.016,0.794l0.392,0.553l-0.054,-1.647l-0.203,-0.603l-0.049,-0.66l-0.369,-0.813l-0.45,-0.284l-0.198,0.179Z" style="fill:#0b6115;"/><path d="M68.017,168.357l0.371,-0.512l0.418,0.305l-0.097,0.752l0.392,0.269l-0.49,0.277l0.078,0.439l0.139,0.367l-0.369,0.297l-0.135,-1.151l-0.332,-0.005l0.04,-0.463l0.159,-0.027l-0.08,-0.295l-0.094,-0.253Z" style="fill:#0b6115;"/><path d="M69.46,168.97l-0.173,-0.428l0.23,-0.188l0.284,0.404l-0.341,0.212Z" style="fill:#0b6115;"/><path d="M70.078,170.38l-0.274,-0.157l-0.255,-0.393l0.272,-0.144l0.339,0.725l-0.082,-0.031Z" style="fill:#0b6115;"/><path d="M68.703,172.045l-0.003,-0.607l0.39,0.006l-0.336,0.55l-0.051,0.051Z" style="fill:#0b6115;"/><path d="M74.615,175.507l-0.714,-0.895l0.599,0.07l0.174,0.586l-0.059,0.239Z" style="fill:#0b6115;"/><path d="M73.703,184.24l-0.289,-1.334l0.395,-0.386l0.353,0.461l0.384,-0.132l-0.194,0.868l-0.21,0.325l0.581,0.478l0.631,-1.67l0.19,0.375l-0.64,2.042l-0.495,0.421l-0.196,-1.375l-0.51,-0.073Z" style="fill:#0b6115;"/><path d="M75.665,187.919l-0.552,-0.601l0.022,-1.271l0.29,-0.184l-0.033,0.536l-0.057,0.377l0.182,0.592l0.169,0.136l-0.021,0.415Z" style="fill:#0b6115;"/><path d="M73.52,179.757l-0.295,-0.536l0.462,0.058l-0.167,0.478Z" style="fill:#0b6115;"/><path d="M35.891,171.507l-0.269,-0.739l0.445,-0.82l0.922,0.877l-1.098,0.682Z" style="fill:#0b6115;"/><path d="M37.665,171.603l-0.459,-1.474l1.225,-1.084l1.113,0.179l-0.009,1.073l-1.271,0.186l-0.599,1.12Z" style="fill:#0b6115;"/><path d="M38.582,168.073l0.424,-0.847l0.373,0.416l-0.645,0.599l-0.152,-0.168Z" style="fill:#0b6115;"/><path d="M21.809,179.072l-0.31,-1.265l1.742,-2.066l1.09,0.135l0.23,0.39l0.402,-0.02l0.198,0.443l-0.641,0.337l-0.517,0.03l-0.281,-0.23l-0.675,0.001l-0.201,0.668l-1.037,1.577Z" style="fill:#0b6115;"/><path d="M20.781,179.068l0.445,-0.911l-0.004,0.866l-0.441,0.045Z" style="fill:#0b6115;"/><path d="M17.468,180.806l0.628,-1.444l0.988,0.177l0.384,-0.54l0.447,0.899l-0.413,0.559l-0.922,-0.015l-0.575,1.02l-0.537,-0.656Z" style="fill:#0b6115;"/><path d="M11.286,185.671l0.27,-1.214l0.464,0.008l-0.127,0.937l-0.607,0.269Z" style="fill:#0b6115;"/><path d="M13.8,184.745l0.001,-0.805l0.386,-0.083l-0.017,-0.338l-0.282,-0.169l0.297,-0.392l0.143,0.437l0.288,0.298l0.001,0.629l-0.534,-0.009l-0.283,0.432Z" style="fill:#0b6115;"/><path d="M15.535,182.598l0.002,-0.475l0.405,0.006l-0.009,0.271l-0.398,0.198Z" style="fill:#0b6115;"/><path d="M15.136,161.942l-1.746,-0.668l1.223,-0.927l1.139,0.248l-0.003,0.619l-0.613,0.728Z" style="fill:#0b6115;"/><path d="M36.57,173.398l0.347,-1.366l0.469,0.092l-0.364,1.087l-0.452,0.187Z" style="fill:#0b6115;"/><path d="M47.724,161.774l0.003,-0.508l0.459,0.008l-0.17,0.589l-0.292,-0.089Z" style="fill:#0b6115;"/></g></g><path d="M164.831,58.822l-0.028,-0.015l-0.806,-2.637l-0.239,-1.752l1.804,-2.082l-0.018,-0.017l1.53,-1.241l-0.771,-0.21l-4.414,2.835l0.487,0.887l-0.01,1.401l-0.344,0.712l-0.426,0.402l-1.058,0.084l0.467,-1.291l-0.115,-0.513l-0.712,0.763l-0.246,1.228l1.016,0.93l0.27,0.603l0.75,0.003l0.996,0.916l-0.398,0.718l-1.036,-0.839l-0.236,-0.354l-0.201,0.182l0.933,1.142l0.765,0.786l-1.116,0.253l0.685,1.199l0.674,0.588l-0.972,-0.36l-0.779,-0.88l-1.257,-0.228l0.063,0.628l2.309,1.781l1.621,0.442l-0.021,1.763l-1.422,1.024l-0.575,-0.669l-0.36,0.168l0.035,1.192l1.933,0.326l0.125,0.969l0.92,-0.724l-0.003,1.021l-1.039,0.914l-1.09,0.157l-0.406,-0.688l-1.136,-0.012l0.041,0.737l1.171,0.067l-0.436,1.252l-1.078,-0.011l0.171,0.612l1.248,0.013l0.467,0.691l-1.149,0.663l-1.22,-0.089l-0.515,0.069l-0.196,-0.506l-0.655,1.028l-1.395,2.701l-2.15,0.76l-4.612,5.399l-1.817,0.865l-1.555,2.871l-1.018,3.308l0.819,5.072l0.83,3.092l1.278,2.037l-0.705,0.524l0.884,2.006l1.449,4.457l0.162,6.213l-0.961,2.424l-1.237,0.883l-1.796,-3.602l-1.046,-1.196l-0.383,-1.14l0.01,-1.467l-0.675,-0.334l-0.081,-1.01l-1.059,-0.143l-0.667,-1.884l0.505,-1.054l-0.041,-1.142l-0.898,-0.282l-0.092,-1.761l0.476,-0.694l-0.011,-1.822l-2.005,-2.036l-2.205,-3.249l-0.782,0.067l-1.431,0.839l-0.342,0.441l-0.714,-0.008l-0.687,0.406l-1.305,-1.945l-0.07,-0.557l-1.46,-0.016l-0.731,-1.097l-0.695,0.074l-0.642,0.547l-0.935,-0.772l-1.032,0.703l-1.124,0.656l-0.499,-0.31l0.002,-0.994l-0.506,-0.862l-0.273,1.061l-0.897,0.709l-1.381,-0.015l-1.846,-0.031l-0.514,0.761l-0.746,-0.008l-0.771,-1.011l-0.821,0.127l-0.369,0.656l0.374,0.69l1.164,0.199l0.526,0.832l0.76,-0.465l0.198,0.696l-0.574,0.726l0.274,0.763l0.626,0.643l0.618,0.021l-0.007,1.022l-1.024,0.009l-0.674,-0.763l-0.772,-0.834l-0.584,-0.68l-0.355,0.339l0.506,1.255l-0.756,0.599l-0.497,-0.708l-0.657,0.738l-1.381,-0.485l-2.209,-2.694l-0.536,-0.009l-1.359,1.152l-1.167,-0.255l-0.827,-0.325l-0.741,-0.858l-0.166,-0.816l-0.398,0.255l-0.009,1.211l-1.093,-0.012l0.005,-0.7l0.096,-0.636l-0.907,0.542l-0.535,1.51l-1.318,0.483l-0.462,-1.306l-1.076,0.513l0.352,0.967l-0.006,0.975l-3.174,2.428l-0.457,0.502l-0.859,-0.99l-1.475,2.249l-2.203,2.029l0.684,0.879l-0.006,0.889l-0.517,0.39l-0.581,-0.31l-0.181,0.577l0.428,0.548l-0.013,1.791l0.552,0.502l-0.013,1.868l0.679,0.637l-0.149,1.058l-1.044,-0.404l-0.38,-0.558l-0.463,-0.26l-1.443,-0.282l-1.684,-1.187l-1.757,-3.644l0.012,-1.682l-2.714,-3.786l-0.519,-1.733l-2.772,-3.871l-3.434,-0.698l-1.884,1.922l-0.721,1.449l-1.618,-0.474l-2.732,-2.973l-1.307,-3.681l-1.599,-1.542l-2.341,-2.777l-0.838,-0.593l-5.258,0.005l-0.541,0.396l-0.161,0.928l-0.345,0.434l-8.029,0.258l-0.328,-0.618l-0.888,-0.01l-1.176,-0.617l-6.164,-2.495l-3.126,-1.523l0.093,-0.822l-1.558,-0.182l-3.305,-0.044l-0.892,0.592l-2.083,-0.033l-0.306,-1.609l-1.06,-1.709l-2.325,-1.761l-1.07,-1.294l-1.6,-0.309l-1.638,-1.314l-2.861,-0.219l-0.479,-1.225l0.009,-1.286l-3.587,-5.364l-0.34,-1.517l0.51,-0.948l-1.996,-1.798l-0.153,-1.554l0.581,0.3l0.514,0.284l-0.174,-0.993l-0.564,-0.574l0.021,-0.864l0.503,-0.251l-0.499,-0.829l-0.557,0.043l-0.005,0.799l-0.365,0.641l-0.689,-0.604l0.007,-1.013l-2.748,-3.052l-0.222,-0.865l0.007,-2.534l-1.824,-2.612l-0.208,-1.095l0.44,-0.891l0.493,-0.559l-0.34,-0.863l0.035,-1.277l0.406,-0.627l-0.601,-1.276l-0.447,-1.535l-0.293,-1.312l-0.442,-2.688l0.595,-1.136l0.711,-0.605l-0.062,-2.817l0.402,-0.856l0.282,-1.791l0.302,-3.246l0.493,-0.299l-0.479,-0.617l-0.007,-2.53l0.694,-0.033l0.794,0.461l0.688,0.012l0.319,-0.61l-0.188,-0.364l-0.522,-0.005l-0.435,-0.142l-1.039,-0.217l-0.287,-0.884l0.049,-0.495l-0.683,-0.66l0.667,-0.466l0.108,-0.465l-0.752,-0.022l-0.554,-2.1l-1.178,-1.934l-0.253,-1.038l0.741,-0.393l1.085,0.37l0.708,0.426l0.584,0.22l2.386,-0.048l0.494,0.803l-0.484,0.733l-0.609,0.884l0.099,0.849l0.58,0.054l-0.093,0.805l0.313,0.419l0.978,-0.177l0.526,-1.467l0.34,-0.199l0.006,-0.953l-0.348,-0.598l0.417,-0.28l-0.005,-0.969l-0.771,-1.422l0.019,-1.271l-0.249,-0.577l87.08,-0.296l0.518,-1.326l0.475,0.742l-0.022,0.842l1.076,0.968l1.8,0.21l0.841,0.666l1.331,-0.412l0.913,0.09l1.03,0.116l0.937,1.302l0.989,-0.088l1.714,1.178l1.144,-0.227l0.341,-0.755l0.743,0.008l0.103,0.552l2.429,0.037l-0.745,0.772l-2.192,1.164l-1.881,1.656l-1.308,1.248l-0.296,0.466c-0,-0 0.302,0.714 0.302,0.72c-0,0.006 1.451,-0.172 1.451,-0.172l1.613,-0.789l0.72,0.002l-0.003,0.368l-0.337,0.368l1.431,0.608l1.601,-0.759l1.786,-0.204l2.141,-1.587l0.87,1.086l-0.155,0.472l0.386,0.211l0.103,-0.442l1.657,-0.205l1.85,2l2.24,-0.051l0.937,-1.032l1.994,-0.102l1.723,0.171l0.042,1.134l2.071,-0.113l0.395,1.101l0.39,0.267l-0.011,0.486l-1.602,-0.017l-0.336,0.275l-0.831,-0.067l-0.751,-0.652l-1.236,-0.103l-0.359,0.526l-1.763,-0.019l-0.513,1.003l-0.671,-0.552l-0.669,0.671l-0.507,-0.565l-1.43,2.602l-1.699,2.321l-0.013,1.247l0.68,-0.498l0.937,-1.168l0.529,0.702l-0.448,1.812l-1.509,4.111l0.089,1.945l0.558,3.514l0.884,1.989l2.117,-0.059l2.188,-3.22l-0.375,-3.839l-0.578,-2.269l0.921,-3.857l1.634,-1.48l0.524,0.694l0.848,-2.066l1.339,-0.046l-0.764,-1.256l1.053,-0.718l4.091,2.551l0.497,2.847l-2.428,2.8l0.448,1.583l1.089,-0.323l1.439,-2.081l1.062,0.585l0.397,2.67l0.516,1.524l-0.783,1.576l-2.511,3.545l0.098,0.815l2.214,1.431l3.203,-0.265l2.825,-1.927l3.98,-1.582l2.573,-2.944l-0.578,-1.35l1.066,-0.657l2.446,0.026l0.747,0.448l2.882,-0.163l1.726,-1.349l0.123,-1.495l0.289,-1.187l3.504,-3.29l10.328,-0.084l1.185,-0.063l0.482,-1.192l1.646,0.028l1.698,-2.907l0.082,-1.473l0.9,-1.46l0.006,-0.911l1.784,-2.411l1.179,1.089l0.885,-0.106l1.301,-0.771l1.097,1.465l0.08,5.199l0.519,0.865l0.456,0.005l-0.02,1.573l1.126,0.44l0.082,1.474l-3.208,1.659l-1.424,-0.015l-0.473,-1.148l-0.654,0.905l-0.868,1.962l-0.58,-0.017l-1.193,-0.2l-3.081,4.41l-0.018,1.403l0.165,0.586l-0.881,0.896l0.064,0.838l1.157,1.178l-0.613,1.302l-0.757,0.311l-0.751,-0.343l-0.265,-0.458l-1.285,2.194l-4.28,0.058l-2.062,1.458l-0.148,-0.624l-0.018,-0.838l-0.707,-0.308l-0.004,0.625l0.284,1.031l-0.43,0.609l3.895,-0.57l0.555,0.429l-4.972,1.367l0.789,0.912l-0.709,2.892l-0.334,1.164l-1.164,1.524l-2.261,4.51l0.017,0.005l-1.388,3.168l0.006,-0.927l0.33,-2.488Z" style="fill:#0b6115;"/></svg>
