<?xml version="1.0" encoding="UTF-8" standalone="no"?><!DOCTYPE svg PUBLIC "-//W3C//DTD SVG 1.1//EN" "http://www.w3.org/Graphics/SVG/1.1/DTD/svg11.dtd"><svg width="100%" height="100%" viewBox="0 0 200 200" version="1.1" xmlns="http://www.w3.org/2000/svg" xmlns:xlink="http://www.w3.org/1999/xlink" xml:space="preserve" xmlns:serif="http://www.serif.com/" style="fill-rule:evenodd;clip-rule:evenodd;stroke-linejoin:round;stroke-miterlimit:2;"><rect x="1.309" y="1.105" width="197.43" height="197.43" style="fill:#b3c4c6;"/><path d="M113.464,22.865l1.695,0.297l-0.019,2.192l-0.88,1.365l-0.796,1.411l-1.077,0.496l-1.42,0.388l-0.198,2.048l0.675,0.98l-0.773,2.877l-2.134,2.254l1.546,1.471l4.386,2.473l0.633,1.29l2.667,1.254l3.584,2.948l3.744,1.225l1.547,1.297l2.479,2.729l3.798,0.036l1.745,-3.971l2.426,-6.318l-0.161,-3.569l0.039,-4.465l-0.782,-2.348l0.758,-2.661l1.082,-1.763l1.644,-0.275l-2.289,-2.474l1.618,-1.496l0.539,-3.353l1.321,-2.465l1.567,0.016l1.505,6.786l0.932,2.309l1.019,3.75l-0.07,3.749l2.142,2.143l1.876,-1.197l4.149,4.358l0.349,2.418l1.403,2.362l-0,4.08l1.807,2.216l0.694,3.757l0.687,2.474l0.846,3.139l5.558,3.215l2.402,1.596l2.841,3.284l0.706,1.29l2.414,2.713l-0.053,6.097l2.392,0.699l0.022,-2.568l1.407,0.548l1.735,0.367l-0.037,4.182l1.08,1.93l3.931,3.501l2.945,3.392l2.263,2.727l0.46,2.59l0.708,7.147l1.986,4.679l-0.269,3.206l-1.398,4.635l-0.942,4.711l-0.056,4.41l-1.778,3.494l-0.027,3.044l-4.718,2.124l-1.198,3.223l-0.231,2.781l-2.627,3.662l-2.608,5.476l-0.467,3.986l-0.034,3.918l-2.999,1.499l-4.475,0.187l-2.498,0.286l-4.246,4.232l-2.912,0.552l-3.311,-0.208l-0.895,-2.028l-2.011,0.109l0.018,-2.101l-1.318,-0.328l-0.829,1.564l-3.147,1.625l-1.621,1.696l-3.502,-1.385l-3.427,-1.682l-3.428,0.176l-4.103,-2.37l-3.133,-3.941l0.786,-3.296l-2.548,-3.402l0.619,-2.369l-1.74,-0.065l-2.521,2.202l-2.441,-0.482l1.666,-1.718l0.979,-1.193l-0.167,-2.416l-1.463,-1.986l-1.076,1.429l-0.027,1.665l-1.453,2.009l-1.782,-0.003l-1.731,-0.473l0.925,-1.207l1.039,0.009l1.188,-1.106l0.04,-3.195l1.219,-2.136l0.454,-1.037l-0.304,-1.26l0.438,-0.917l-0.307,-1.326l-1.737,3.069l-3.041,2.047l-2.514,3.392l-2.139,2.65l-2.91,-1.973l0.02,-2.049l-2.18,-2.826l0.004,-1.418l-2.924,-2.362l0.65,-1.615l-3.016,-2.547l-1.422,0.829l-2.617,-2.277l-1.494,1.634l-4.246,-3.607l-2.337,1.052l-6.68,-0.153l-8.285,3.65l-7.706,0.318l-7.928,4.225l-2.894,4.198l-7.718,-0.227l-9.005,-0.168l-2.088,0.467l-0.057,2.294l-2.261,-0.02l-3.997,2.539l-8.245,0.015l-3.685,-3.535l-2.637,-0.023l0.036,-4.079l3.074,-0.335l0.108,-8.413l-3.414,-6.942l0.047,-5.36l-4.286,-6.387l0.045,-5.146l-2.198,-3.368l3.726,-1.482l-0.506,-3.089l-4.799,-9.853l1.394,-4.225l-0.655,-2.761l2.973,-3.872l-0.027,3.075l2.529,-2.947l4.412,-1.738l3.523,-4.227l5.533,-0.03l3.814,-1.706l1.786,0.534l1.409,-1.688l6.01,-0.696l5.923,-4.156l-0.094,-2.313l3.213,-3.171l-0.769,-2.46l0.02,-2.312l4.111,-3.125l1.083,2.306l0.822,1.693l0.247,1.455l0.655,-0.718l0.017,-1.942l1.056,0.38l0.01,-1.237l-0.981,-1.193l0.544,-1.512l1.739,0.015l2.44,0.208l-0.528,-1.316l0.119,-1.506l-1.338,-1.024l2.275,-2.306l1.477,1.558l-0.38,-1.579l0.061,-1.118l1.592,0.293l-0.722,-1.271l0.777,-1.475l1.633,0.092l0.462,0.708l0.729,-1.653l0.212,-1.105l1.716,0.015l1.413,-0.661l0.042,-1.593l1.761,0.574l1.476,1.758l2.039,1.788l1.022,0.618l-0.507,1.924l0.296,1.387l1.056,0.034l-0.443,-0.8l-0.003,-0.866l0.976,0.009l0.493,-0.831l1.727,0.015l0.837,1.255l0.012,1.207l0.637,-1.5l0.979,0.323l0.863,0.876l-0.369,-1.739l0.272,-0.641l0.798,0.007l-1.07,-0.927l-1.479,-1.366l2.054,-1.968l0.02,-2.252l1.194,-0.724l0.835,0.008l-0.079,-1.238l-0.572,-1.047l1.5,-0.886l1.79,-0.321l-0,-1.51l0.662,-0.008l0.822,-1.45l1.576,0.453l4.484,-0.033l0.542,-0.77l0.502,0.049l-0.035,-2.802l1.7,-1.27l2.479,2.285l2.777,0.663l1.178,0.812l2.099,0.018l1.866,0.536l1.761,-1.113l1.425,1.022l1.093,1.011l0.735,-0.201l0.532,-1.092Z" style="fill:#0b6115;"/><path d="M85.891,19.028l-0.008,0.89l1.383,0.961l1.132,0.534l2.608,-0.535l0.003,-1.909l-1.603,-0.125l-1.478,0.533l-2.037,-0.349Z" style="fill:#0b6115;"/><path d="M85.152,20.116l-0.757,1.265l1.488,0.053l-0.731,-1.318Z" style="fill:#0b6115;"/><path d="M114.982,147.784l3.579,0.022l1.012,-2.407l-3.35,-0.03l-2.018,1.331l0.777,1.084Z" style="fill:#0b6115;"/><path d="M147.494,166.555l0.015,2.376l1.586,-0.451l0.02,-2.3l-1.621,0.375Z" style="fill:#0b6115;"/><path d="M151.409,172.349l-0.031,3.521l2.062,1.374l1.101,2.099l0.621,0.758l-0.418,1.193l-0.918,-0.825l0.511,1.706l2.631,2.788l2.484,0.744l2.331,0.118l0.338,-1.424l1.62,-0.178l-0.001,-1.457l1.66,0.015l1.119,-2.874l1.102,-1.203l0.829,-3.114l-0.027,-2.692l-2.157,-0.541l-4.667,2.342l-3.47,-0.37l-2.231,-1.335l-1.568,-0.881l-2.921,0.236Z" style="fill:#0b6115;"/><path d="M167.343,169.302l-1.741,-1.31l0.265,-1.359l2.101,0.323l-0.625,2.346Z" style="fill:#0b6115;"/></svg>
