<?xml version="1.0" encoding="UTF-8" standalone="no"?><!DOCTYPE svg PUBLIC "-//W3C//DTD SVG 1.1//EN" "http://www.w3.org/Graphics/SVG/1.1/DTD/svg11.dtd"><svg width="100%" height="100%" viewBox="0 0 200 200" version="1.1" xmlns="http://www.w3.org/2000/svg" xmlns:xlink="http://www.w3.org/1999/xlink" xml:space="preserve" xmlns:serif="http://www.serif.com/" style="fill-rule:evenodd;clip-rule:evenodd;stroke-linejoin:round;stroke-miterlimit:2;"><rect x="1.309" y="1.105" width="197.43" height="197.43" style="fill:#b3c4c6;"/><path d="M73.879,198.536l124.86,-0l0,-80.932l-5.457,-1.142l-3.601,-5.697l-4.855,-1.397l-6.239,-1.245l-1.198,-5.315l-3.384,-9.763l2.545,-3.193l0.221,-7.687l-5.586,-3.674l-6.571,-0.546l-1.95,-4.329l-4.86,-0.496l-5.085,-10.044l7.07,-1.826l4.624,7.321l10.09,0.698l4.037,3.699l10.543,1.205l9.656,3.174l0,-39.925l-8.657,-5.254l-15.622,-2.831l-7.778,1.366l-4.57,5.338l-2.214,-1.424l1.7,-2.068l2.834,-2.84l-0.518,-2.678l-5.344,-0.185l-4.448,-0.4l-3.957,-4.496l-12.293,3.622l-14.582,12.112l-2.824,5.796l1.496,1.714l9.915,5.811l2.052,4.08l-2.323,5.214l-6.031,6.239l0.537,2.194l8.383,13.268l0.546,3.583l-1.4,3.418l-3.041,4.959l1.009,5.208l2.608,1.568l0.639,2.193l-0.012,2.444l2.032,2.834l2.26,1.501l0.142,5.103l-2.285,1.743l-1.352,2.584l4.035,3.603l6.282,6.146l2.57,2.99l-0.466,4.038l-6.144,8.409l-11.438,13.3l-9.137,9.13l-1.835,1.416l-0.479,1.561l2.564,0.134l0.002,3.943l2.326,3.561l6.527,1.336l3.372,2.143l0.221,2.989l-2.889,0.641l-2.434,-1.879l-2.629,-0.185l-3.961,4.188l-3.665,-0.288l-3.066,1.705l0.265,3.26l1.51,1.523l-0.741,2.82l-2.442,-1.185l-11.652,-1.765l-4.611,-3.341l-5.583,1.155l-7.167,1.778l-3.978,0.094l-2.236,1.77l-4.537,1.147l-0.346,3.261Zm124.86,-103.1l-2.28,0.231l-1.683,4.287l2.496,4.212l1.467,2.691l0,-11.421Z" style="fill:#151515;fill-opacity:0.15;"/><path d="M1.309,60.885l0,8.74l2.357,-2.475l2.852,-1.875l0.17,-1.872l-0.935,-1.705l-1.356,-1.773l6.201,-7.756l2.971,-3.916l9.692,-0.133l0.099,-3.615l3.623,-3.82l2.301,2.733l5.421,0.297l2.888,0.389l3.423,-2.132l1.076,-3.235l0.957,-2.831l0.124,-2.125l2.653,-0.162l3.019,-0l3.944,-4.409l5.634,0l2.98,4.856l3.642,1.99l1.86,0.781l2.965,1.014l2.836,0.44l3.778,-2.548l3.668,-0.307l6.703,2.675l3.328,-2.944l3.403,-2.07l0.12,-5.554l4.96,-8.204l5.712,-1.885l5.598,0.74l2.407,-1.87l7.189,4.621l4.299,-0.032l3.287,4.531l-2.489,7.386l5.363,-4.305l4.989,-4.248l-1.195,-1.294l-3.921,-0.883l-1.117,-2.596l-5.049,-1.46l-3.744,0.082l-0.015,-1.523l4.27,-2.297l6.375,2.359l5.193,0.728l2.016,-2.919l3.934,-0.25l-0.498,-2.84l-5.5,0.286l-3.929,-2.762l-2.207,-1.983l-2.187,1.302l-0.989,1.156l-0.965,-0.082l0,-2.365l-1.783,-2.578l-2.241,2.595l-1.469,4.132l-2.743,2.82l-4.116,-2.545l-1.388,-2.638l0.319,-1.646l1.867,0.834l3.172,-4.142l-2.554,-1.636l-2.201,0.146l-1.526,1.818l0.551,2.159l-0.461,1.29l-2.603,0.449l-1.708,2.999l-3.213,0.409l-0.421,2.977l-2.766,-0l1.152,-4.094l0.459,-4.107l-3.907,-0.084l-2.848,4.818l-4.258,7.679l-1.983,0.003l-2.314,-0.798l0.548,-5.085l2.46,-4.82l2.992,0l-0,-1.989l-3.591,-1.62l-1.773,-1.391l-2.556,2.378l-2.156,5.873l-6.453,0.731l-2.005,2.814l-1.055,1.769l0.342,2.705l1.027,1.023l-2.723,0.857l-3.304,-1.246l0,-2.534l-5.076,0.944l-1.708,-3.95l-2.661,0.855l1.614,4.318l1.178,2.637l-2.24,0.851l-1.74,-0.447l-2.217,-1.837l-3.785,0.227l-0.453,2.152l-1.562,0l-1.13,-1.982l-0.57,1.626l0.978,2.505l-0.276,2.162l-3.243,0.026l-2.394,3.079l-1.733,-0.091l-0,-2.375l1.914,-3.942l1.305,-1.938l-2.258,-2.923l-1.463,4.445l-2.07,3.177l-1.835,-0.549l0.255,-2.107l-2.331,-1.247l-0.475,2.964l2.466,2.106l-1.44,2.124l-2.436,-0.831l-3.228,1.542l-1.816,-0.918l-1.653,-2.374l-2.124,3.463l-0.48,2.253l-2.912,1.111l-1.708,5.129l-3.884,0.549l-4.464,0l0.614,2.631l6.155,-0.55l2.933,0.799l-1.077,2.153l-1.696,-0.99l-0.27,2.241l-2.075,-0l-0,-1.119l-5.338,-0.847l-0.015,2.105l1.802,0.289l-1.341,2.586l-2.606,3.131l-1.035,-0.419l-0.879,-1.102l-0,-3.15l-2.848,-1.168l0.185,2.694l1.459,-0l-0.277,2.43l-2.24,0.328l-0.202,1.806l1.598,2.812l-1.216,3.256l-0.93,0.974Z" style="fill:#151515;fill-opacity:0.15;"/><path d="M1.309,75.249l0,123.287l16.118,-0l0.347,-0.508l2.448,-0l0.161,0.508l3.504,-0l0.493,-0.587l2.179,-1.071l-0.949,-2.439l-2.035,-1.675l0.341,-2.263l2.984,0l2.906,-3.498l1.796,-2.147l-2.055,-3.184l-3.819,-4.227l-3.949,-1.219l-4.461,-2.711l-2.527,-5.002l-0.022,-10.943l2.176,-9.16l0.012,-7.247l0.295,-2.363l2.34,-0l2.633,-0.437l-0.432,-3.888l-1.967,-3.643l1.717,-0.094l1.838,3.019l5.325,-5.287l3.931,-0.771c-0,-0 9.465,-8.648 4.708,-4.302l8.472,-4.261l6.185,-8.009l3.116,-1.346l-2.519,-6.485l-1.915,-1.393l2.018,-4.088l2.548,-0.142l1.061,-3.361l-1.717,-3.29l2.688,-1.319l3.444,-0.841l1.452,-1.759l0.261,-1.563l4.59,-1.099l4.063,0.784l5.521,0.317l1.504,-0l-3.088,-6.803l-0.076,-5.196l0.643,-2.862l-2.703,-4.748l-0.004,-2.54l0.652,-2.034l-1.364,-2.868l-0,-3.871l0.882,-3.029l-7.781,-7.217l-6.117,0.635l-5.48,-5.263l-4.655,-3.985l-3.729,0.493l-1.484,5.987l-2.797,3.302l-3.436,1.554l-4.235,-1.86l-4.675,-0.042l-1.727,-1.688l-1.804,1.467l0.674,4.758l-2.388,1.083l-8.872,-0.761l-7.309,9.977l1.617,2.635l0.214,2.192l-2.181,3.28l-5.155,6.254l-0.43,0.857Z" style="fill:#151515;fill-opacity:0.15;"/><path d="M51.582,34.078l2.57,-2.052l3.107,0.233l2.353,3.881l5.771,4.255l2.795,0l2.723,0.936l4.191,-1.672l3.104,-2.201l6.169,3.157l2.823,2.143l3.029,-1.726l1.257,-4.18l3.546,-2.228l0.585,-7.113l3.717,-4.063l5.737,-2.973l6.386,0l1.226,-1.721l5.798,3.694l2.749,0.585l3.609,3.824l-1.413,3.487l-1.682,1.642l-0.469,2.41l-2.115,0.541l1.708,4.799l-3.313,4.826l2.803,3.481l8.811,4.625l1.462,2.937l-3.202,4.007l-4.082,3.865l0.871,7.733l7.142,11.717l0.831,3.079l-2.346,3.226l-2.213,3.615l2.941,8.755l2.525,2.222l-0.214,4.009l2.727,3.497l1.011,0.279l-0,1.502l-4.159,5.248l1.628,3.677l11.386,10.714l0,1.603l-14.445,18.237l-13.324,13.596l-3.755,2.747l-2.552,1.598l-12.786,4.407l-4.804,3.031l-1.387,-2.313l-3.081,1.813l-5.528,2.399l-2.602,1.979l-2.26,-0.785l-4.483,2.943l-3.942,-2.858l-1.877,-2.011l0.748,-1.184l-1.19,-2.069l-2.135,0.733l-6.074,-2.312l-4.362,-2.704l-0.919,-4.593l0.821,-9.783l2.285,-0.6l-3.872,-7.877l0.639,-6.375l-2.368,-5.225l6.423,-9.099l3.538,0.041l3.533,-6.058l2.788,-1.98l8.022,-7.612l8.331,-12.061l4.002,-0l1.905,2.164l1.225,-3.564l-1.947,-4.075l0.146,-3.417l-2.587,-3.919l-2.801,0l-3.359,-2.69l-2.429,-2.377l-2.467,-5.704l1.579,-5.03l0,-5.325l-2.123,-1.681l0.942,-4.382l-0.993,-3.327l-1.68,-0.91l0.243,-2.928l1.182,-3.402l-7.143,-6.006l-2.444,-2.129l-4.82,-0.305l-3.372,-1.852l-2.282,-2.839l-4.042,-2.602Z" style="fill:#0b6115;"/></svg>
