<?xml version="1.0" encoding="UTF-8" standalone="no"?><!DOCTYPE svg PUBLIC "-//W3C//DTD SVG 1.1//EN" "http://www.w3.org/Graphics/SVG/1.1/DTD/svg11.dtd"><svg width="100%" height="100%" viewBox="0 0 200 200" version="1.1" xmlns="http://www.w3.org/2000/svg" xmlns:xlink="http://www.w3.org/1999/xlink" xml:space="preserve" xmlns:serif="http://www.serif.com/" style="fill-rule:evenodd;clip-rule:evenodd;stroke-linejoin:round;stroke-miterlimit:2;"><rect x="1.309" y="1.105" width="197.43" height="197.43" style="fill:#b3c4c6;"/><path d="M36.219,107.516l-0.323,-7.567l1.703,-8.543l-5.016,-2.86l-3.206,-9.783l-3.531,-6.17l3.401,-7.711l5.492,-2.604l5.83,-8.095l8.574,-9.098l13.766,-1.625l6.118,2.882l5.797,-0.02l-7.813,33.816l-5.775,-3.41l-0.976,2.772l3.927,2.1l2.558,0.278l1.327,1.799l5.549,2.966l1.849,-2.528l-5.839,-2.892l-2.62,-1.085l7.813,-33.816l6.736,-0.024l6.562,-3.587l9.412,4.994l3.987,3.859l10.389,1.032l6.693,4.713l7.654,-2.027l2.238,-2.669l-5.329,-6.258l9.853,-5.748l6.396,3.811l8.985,0.863l5.392,-2.888l1.032,4.452l-0.271,5.531l1.908,5.853l1.32,3.99l1.281,2.546l0.399,11.561l-2.868,3.286l-0.037,3.947l3.061,2.216l-0.067,7.174l-8.576,4.749l-7.474,5.771l-10.382,1.773l-4.075,5.683l-8.894,0.157l-5.366,9.378l0.767,5.317l1.122,3.306l3.909,1.322l2.402,4.864l-3.702,0.404l-7.603,-2.082l-4.066,-0.033l-11.905,1.216l-2.617,4.095l-5.749,7.796l-9.182,1.197l-10.311,-4.636l-7.392,3.588l-3.792,-3.724l5.639,-5.238l-6.697,-9.641l-4.834,4.236l-0.045,4.773l-5.149,-0.964l0.085,-8.949l0.617,-7.728l-6.421,-5.208l-3.64,-6.855Z" style="fill:#0b6115;"/><g><rect x="1.309" y="1.105" width="197.43" height="197.43" style="fill:#242424;fill-opacity:0.11;"/><path d="M181.405,1.105l14.942,17.242l1.182,10.75l1.21,1.906l0,89.533l-6.506,7.413l-24.916,15.295l-14.269,7.639l-5.396,-3.157l-4.301,-6.803l-5.493,6.69l1.653,2.794l-5.335,2.02l-10.782,1.68l4.32,5.176l6.832,5.278l2.655,6.868l-8.311,3.343l-5.187,-7.669l-3.052,-5.993l-3.086,1.683l0.575,4.115l4.499,3.915l3.491,3.288l-1.155,3.636l-7.274,3.922l-8.994,1.981l-3.985,8.992l-6.249,5.735l-5.5,-5.757l-3.509,-4.4l0.642,-16.121l2.867,-3.958l4.515,-1.414l-0.683,-3.468l-7.089,-3.062l-3.446,-4.951l-2.087,-3.862l8.79,-2.953l4.08,-7.122l1.772,-3.256l11.539,-0.801l6.513,1.674l10.156,0.183l-0.771,-9.716l-5.078,-3.192l-1.938,-2.367l1.415,-6.486l8.821,-1.363l6.297,-6.07l11.045,-3.465l10.474,-7.596l5.94,-2.701l0.229,-12.541l-1.656,-2.816l2.031,-5.517l-0.334,-11.289l-3.533,-6.594l-0.988,-5.814l-0.522,-5.568l-0.181,-5.32l4.618,-2.548l0.077,-8.128l1.25,-6.622l2.011,-1.06l0.186,-6.634l-4.667,-1.723l-5.572,-4.696l-1.545,-2.26l2.034,-4.394l2.25,-1.524l22.479,0Z" style="fill:#242424;fill-opacity:0.11;"/><path d="M135.681,161.527l-3.004,-3.267l2.232,-2.828l2.321,0.74l-0.04,4.227l-1.509,1.128Z" style="fill:#242424;fill-opacity:0.11;"/><path d="M154.159,1.105l-45.794,0l1.275,4.149l3.73,1.294l-0.092,9.722l-3.526,4.867l-0.019,2.052l3.271,0.424l-0.13,13.746l-4.182,2.822l-4.475,1.62l-0.104,3.653l2.501,2.485l6.17,0.347l5.18,3.21l2.595,1.779l0.932,-2.337l-2.274,-3.865l1.09,-4.426l12.37,-6.207l10.652,5.035l3.896,-0.271l11.078,-5.448l1.672,-12.191l2.674,-2.042l-0.054,-3.786l-4.128,-2.046l-6.269,-5.086l-2.235,-3.886l4.196,-5.614Z" style="fill:#242424;fill-opacity:0.11;"/><path d="M102.512,1.105l-101.203,0l0,89.617l2.459,0.469l5.297,-3.357l5.867,3.129l7.486,7.082l6.635,6.628l4.32,-0.787l0.221,-8.925l0.022,-2.295l-5.211,-2.408l-2.434,-10.502l-3.723,-5.654l3.723,-11.739l6.252,-3.079l6.201,-8.309l8.687,-8.67l16.909,-3.226l6.418,2.337l11.202,-0.22l7.438,-2.608l9.58,3.835l6.923,-5.282l2.007,-4.581l0.055,-5.767l-3.322,-3.929l-0.389,-4.405l4.23,-4.668l-1.633,-5.06l-3.844,-5.871l-0.173,-1.755Z" style="fill:#242424;fill-opacity:0.11;"/></g></svg>
