<?xml version="1.0" encoding="UTF-8" standalone="no"?><!DOCTYPE svg PUBLIC "-//W3C//DTD SVG 1.1//EN" "http://www.w3.org/Graphics/SVG/1.1/DTD/svg11.dtd"><svg width="100%" height="100%" viewBox="0 0 200 200" version="1.1" xmlns="http://www.w3.org/2000/svg" xmlns:xlink="http://www.w3.org/1999/xlink" xml:space="preserve" xmlns:serif="http://www.serif.com/" style="fill-rule:evenodd;clip-rule:evenodd;stroke-linejoin:round;stroke-miterlimit:2;"><rect x="1.309" y="1.105" width="197.43" height="197.43" style="fill:#b3c4c6;"/><g><path d="M30.696,114.078l2.264,1.917l2.973,2.153l2.994,-0.941l1.261,-3.869l2.209,-0.671l3.525,2.366l3.614,2.377l5.702,2.581l3.562,-0.863l2.832,-3.322l0.845,-2.149l-3.606,-2.464l0.01,-1.725l2.649,-1.121l-6.213,-6.533l-10.718,-0.293l-2.733,2.341l-3.055,0.439l-2.853,5.549l-5.262,4.228Z" style="fill:#0b6115;"/><path d="M69.63,59.516l-1.804,-0.363l0.059,-3.368l3.271,-0.631l0.103,-3.279l1.088,-1.452l2.976,1.808l2.375,-2.001l3.576,0.665l2.223,0.346l4.991,0.087l2.082,-1.531l4.461,5.046l-5.072,2.467l-5.204,2.743l-3.069,1.426l-0.051,2.96l-1.13,0.896l3.203,1.366l5.236,-0.106l2.368,-2.189l4.866,-1.135l15.282,-0.472l5.106,1.346l2.077,1.568l-1.432,3.363l-2.206,0.848l-2.281,3.786l-2.594,2.679l-4.703,4.422l-3.788,1.42l-2.753,0.308l-0.959,1.466l2.559,2.967l-2.028,1.799l-4.121,-0.453l-3.004,-0.955l-1.177,1.573l2.291,1.414l9.072,0.541l2.389,-2.013l3.208,0.056l2.35,1.972l4.166,0.27l3.817,1.939l3.67,4.133l0.935,6.9l2.115,3.649l3.199,3.605l6.931,-0.525l5.537,5.714l1.827,2.658l0.194,2.8l1.162,1.774l-2.089,0.108l-2.517,-0.044l-3.637,-0.304l0.779,1.849l5.502,1.019l8.618,5.416l-2.144,3.808l-2.608,1.325l2.145,2.917l3.247,0.117l2.098,-1.99l0.062,-2.022l4.167,-1.236l4.752,1.687l7.458,4.689l0.294,4.658l-0.602,2.265l-3.711,2.644l-4.048,2.786l-4.836,2.526l-0.205,1.199l2.066,1.111l-1.299,1.169l-3.639,0.029l-2.356,-0.226l1.181,1.649l3.953,0.899l3.001,-0.679l3.28,0.741l3.531,1.376l-0.043,2.462l-4.781,-0.084l-3.388,2.927l-4.229,1.321l-1.205,1.666l-19.107,0.253l-1.852,-2.316l-5.082,-0.089l-0.152,1.331l-9.307,0.637l-1.287,1.125l-9.586,0.113l-1.473,-1.714l-4.609,-0.081l-1.222,2.587l-3.285,-0.057l-0.49,-1.826l-1.384,0.042l-0.051,2.915l0.181,3.344l-3.358,2.371l-3.703,-0.85l-1.698,-3.88l-1.071,-0.4l-1.721,1.696l-2.298,1.375l-3.975,0.102l-2.376,1.037l-1.826,3.06l-6.536,-0.099l-0.176,-1.942l4.647,-2.183l3.162,-1.967l4.485,-2.012l2.928,-3.797l0.158,-2.666l2.668,0.031l1.061,-1.761l1.824,-2.096l4.072,0.072l4.723,1.391l5.709,-0.493l0.869,-1.577l3.425,-2.429l2.53,-1.802l3.187,-2.406l-1.569,-1.985l-3.209,2.382l-4.828,3.057l-2.457,-0.058l-1.304,0.879l-3.509,-0.107l-4.081,-3.328l-2.728,-0.6l2.728,0.6l-5.777,-0.995l-1.324,-1.644l-1.951,-0.034l-0.273,2.416l-3.688,0.908l-4.104,-2.68l-2.213,-0.89l0.725,-2.674l4.936,-0.63l7.318,-2.605l4.078,-3.992l0.037,-4.753l-2.117,-0.298l-0.677,-2.681l-3.069,-0.054l0.528,-2.731l1.394,-0.73l7.776,-0.897l1.022,-1.974l5.907,0.195l1.727,1.964l2.497,-1.126l-0.077,-1.442l-2.377,-1.434l2.741,-3.219l-0.559,-3.949l1.265,-1.73l1.233,-1.967l-4.345,-3.108l-2.798,2.039l-3.596,-4.932l0.501,-2.088l4.87,-1.96l3.309,-2.453l-2.342,-0.651l-7.414,-0.208l-0.249,2.278l-2.71,0.831l-3.753,1.622l-2.132,-1.058l-1.402,-3.075l-1.519,0.724l-0.447,2.153l-0.956,1.061l-3.312,-0.679l-3.35,0.693l-1.966,-2.464l2.917,-4.679l4.337,-2.493l0.675,-2.864l-2.619,-1.037l-0.89,-2.892l2.998,-1.792l-0.474,-1.94l-1.031,-1.955l-2.092,-0.1l-0.576,1.775l-2.368,1.097l-1.316,1.417l-1.316,-1.405l0.724,-1.097l0.439,-2.149l-2.398,1.028l-1.305,2.682l-2.627,-0.053l0.185,-5.184l3.759,-1.927l2.158,0.192l0.063,-3.58l2.111,0.036l-0.295,-0.813l-2.512,-1.899l-2.227,2.133l-0.986,1.216l-2.861,-0.05l-1.546,-1.079l0.157,-1.953l-1.19,-1.294l0.887,-1.546l2.556,-1.056l2.233,0.726l-0.123,-5.005l-1.906,-1.303l-2.149,-2.357l-0.042,-2.637l1.198,-0.952l2.216,-0.948l1.857,0.356l2.231,0.039l0.965,-0.014l-0.417,-1.687Z" style="fill:#0b6115;"/><path d="M45.488,60.583l6.13,-2.449l4.331,-7.049l-6.322,-0.111l-5.251,6.276l1.112,3.333Z" style="fill:#0b6115;"/><path d="M48.896,68.574l4.834,-3.679l4.453,5.75l-4.663,0.396l-4.624,-2.467Z" style="fill:#0b6115;"/><path d="M56.258,83.816l0.937,-2.613l3.491,0.068l-0.043,2.461l-4.385,0.084Z" style="fill:#0b6115;"/><path d="M102.304,86.212l-2.185,-1.538l2.262,-1.148l2.222,0.038l-1.356,1.651l-0.943,0.997Z" style="fill:#0b6115;"/><path d="M63.406,99.244l-1.989,-1.047l2.094,-3.168l0.596,1.714l-0.701,2.501Z" style="fill:#0b6115;"/><path d="M69.186,97.973l-1.863,-1.563l1.634,-1.609l1.32,0.695l-1.091,2.477Z" style="fill:#0b6115;"/><path d="M78.835,132.451l2.351,-2.086l1.493,0.986l-2.164,1.803l-1.68,-0.703Z" style="fill:#0b6115;"/><path d="M79.772,118.16l-2.069,-1.268l1.716,-1.495l1.839,1.598l-1.486,1.165Z" style="fill:#0b6115;"/><path d="M121.368,30.106l-1.82,-2.093l16.47,-13.703l1.803,3.109l-7.375,10.375l-9.078,2.312Z" style="fill:#0b6115;"/><path d="M109.141,39.645l-2.607,1.35l-11.912,-1.611l5.298,-4.638l9.221,4.899Z" style="fill:#0b6115;"/></g></svg>
