<?xml version="1.0" encoding="UTF-8" standalone="no"?><!DOCTYPE svg PUBLIC "-//W3C//DTD SVG 1.1//EN" "http://www.w3.org/Graphics/SVG/1.1/DTD/svg11.dtd"><svg width="100%" height="100%" viewBox="0 0 200 200" version="1.1" xmlns="http://www.w3.org/2000/svg" xmlns:xlink="http://www.w3.org/1999/xlink" xml:space="preserve" xmlns:serif="http://www.serif.com/" style="fill-rule:evenodd;clip-rule:evenodd;stroke-linejoin:round;stroke-miterlimit:2;"><rect x="1.309" y="1.105" width="197.43" height="197.43" style="fill:#b3c4c6;"/><path d="M50.384,187.62l0,-4.233l-1.393,-1.112l-1.259,-1.901l-1.063,-0.673l0.29,-1.822l0.972,0.327l0.195,-2.882l-1.109,-1.653l-0.88,-0.482l0,-3.809l1.208,-1.593l1.711,1.179l1.135,0l1.313,-2.177l1.84,1.735l1.145,-0.942l-0.579,-1.63l0.238,-2.664l2.794,-0.287l2.675,0.749l0.86,1.155l-1.756,1.352l1.063,1.955l1.589,1.416l3.125,0.14l0,3.101l-4.926,-0l0.154,3.462l-3.011,0.997l-0.828,2.171l-0,4.634l-0.018,4.085l-0.851,1.037l-1.997,-0l-2.637,-1.635Z" style="fill:#1a1a1a;fill-opacity:0.15;"/><path d="M56.403,160.196l2.818,-4.915l1.822,-1.347l1.597,2.46l-1.066,4.263l-2.895,0l-2.276,-0.461Z" style="fill:#1a1a1a;fill-opacity:0.15;"/><path d="M47.93,165.375l0.489,-2.708l1.674,-0.966l-0.765,2.819l-1.398,0.855Z" style="fill:#1a1a1a;fill-opacity:0.15;"/><path d="M67.465,180.006l2.72,-3.226l1.223,4.171l1.401,0.177l0.887,-2.232l-0.455,-2.282l2.33,-1.013l1.077,2.315l-1.202,3.74l-1.245,0l-0.169,1.034l1.249,1.552l-2.399,2.544l-0.89,1.578l-1.638,-1.368l-0.696,-1.725l-2.545,0l0.352,-5.265Z" style="fill:#1a1a1a;fill-opacity:0.15;"/><path d="M141.91,147.697l3.368,-1.229l2.765,-2.057l-2.749,-2.213l-3.73,1.098l-1.106,2.115l1.452,2.286Z" style="fill:#1a1a1a;fill-opacity:0.15;"/><path d="M145.009,139.981l-0.917,-3.144l1.41,-0.632l0.605,1.842l-1.098,1.934Z" style="fill:#1a1a1a;fill-opacity:0.15;"/><path d="M57.686,180.884l3.302,0.231l0.583,1.878l2.154,0.238l-0.034,3.173l-3.24,0.504l-1.137,-1.038l-1.148,-0.902l-0.48,-4.084Z" style="fill:#1a1a1a;fill-opacity:0.15;"/><path d="M66.982,189.939l0.968,0.101l-0,1.705l3.14,-0.051l1.004,-1.091l0.591,0.819l-1.454,1.261l-2.125,0l-1.033,-0.114l-0.774,-1.137l-0.317,-1.493Z" style="fill:#1a1a1a;fill-opacity:0.15;"/><path d="M198.739,198.536l0,-98.667l-5.427,6.311l-6.75,6.745l-1.355,1.046l-0.354,1.153l1.894,0.099l0.002,2.913l1.718,2.63l4.822,0.988l2.491,1.583l0.163,2.208l-2.134,0.474l-1.798,-1.389l-1.942,-0.136l-2.927,3.094l-2.708,-0.213l-2.264,1.259l0.195,2.409l1.116,1.125l-0.547,2.083l-1.805,-0.875l-8.607,-1.304l-3.407,-2.469l-4.124,0.854l-5.295,1.314l-2.939,0.069l-1.651,1.307l-3.352,0.848l-0.403,3.793l1.129,2.113l-0.68,2.376l2.213,2.702l1.705,2.549l1.819,-2.661l0.803,1.017l-0.991,3.465l-0.016,3.219l-0.066,5.102l-1.464,3.103l-2.443,2.777l-1.366,0.365l-6.896,-9.908l-2.504,-1.213l-2.717,3.401l-2.905,3.044l-1.306,4.425l-1.298,2.576l-0.312,7.257l0.972,2.971l0.106,4.181l1.71,3.828l0.597,0.874l-0.019,3.173l-1.506,1.51l-3.356,-0.217l-2.821,-0.382l-1.176,1.448l1.76,0.828l0.472,1.434l-2.305,1.536l0.364,2.048l18.64,-0.033l2.451,1.84l48.794,-0Zm0,-123.166l-0.615,0.47l-0.999,1.909l1.614,1.441l0,-3.82Zm0,-66.716l-10.739,8.92l-2.085,4.281l1.105,1.267l7.324,4.293l1.516,3.014l-1.716,3.852l-4.456,4.609l0.397,1.621l6.193,9.802l0.404,2.647l-1.035,2.525l-2.246,3.663l0.745,3.847l1.927,1.159l0.472,1.62l-0.009,1.805l1.501,2.094l0.702,0.466l0,-61.485Z" style="fill:#1a1a1a;fill-opacity:0.15;"/><path d="M187.219,1.105l-21.905,0l-1.31,2.364l-1.465,0.002l-1.71,-0.589l0.192,-1.777l-9.761,0l-0.47,0.787l0.253,1.998l0.758,0.756l-2.011,0.633l-2.44,-0.921l-0,-1.872l-3.75,0.698l-0.899,-2.079l-2.252,0l1.115,2.982l0.87,1.948l-1.654,0.629l-1.286,-0.33l-1.637,-1.357l-2.797,0.167l-0.334,1.591l-1.155,-0l-0.834,-1.465l-0.422,1.202l0.723,1.849l-0.203,1.598l-2.397,0.019l-1.768,2.275l-1.28,-0.067l-0,-1.755l1.414,-2.912l0.964,-1.432l-1.668,-2.159l-1.081,3.284l-1.53,2.347l-1.355,-0.406l0.188,-1.557l-1.722,-0.921l-0.351,2.19l1.822,1.556l-1.064,1.569l-1.799,-0.614l-2.385,1.139l-1.342,-0.678l-1.221,-1.754l-1.569,2.559l-0.355,1.664l-2.151,0.82l-1.261,3.789l-2.87,0.406l-3.298,0l0.454,1.944l4.547,-0.407l2.167,0.591l-0.796,1.591l-1.252,-0.732l-0.2,1.655l-1.533,0l-0,-0.826l-3.944,-0.626l-0.011,1.555l1.332,0.213l-0.991,1.911l-1.925,2.313l-0.765,-0.309l-0.649,-0.814l-0,-2.327l-2.104,-0.863l0.137,1.99l1.077,-0l-0.204,1.795l-1.655,0.242l-0.149,1.335l1.18,2.077l-0.898,2.405l-0.973,1.019l-0.946,2.114l-0.892,-1.18l-4.08,-0.029l-1.345,0.333l-0.421,1.413l-3.066,0.886l-2.2,3.877l-0.588,1.593l-2.194,0.4l-0.008,2.084l3.09,-0l0.946,-0.237l0.855,0l0,1.052l-1.839,0.788l-0.012,1.497l-1.483,-0l-0.374,-1.624l-2.297,-0l-0.997,1.904l1.906,1.662l-0.945,0.983l-1.551,-0.006l-0.839,-1.683l-1.875,3.32l0.244,2.454l1.383,0.795l-1.546,0.247l0.035,1.658l1.848,-0l0.051,1.755l-1.749,-0l-1.753,2.5l-2.504,-0.075l-2.515,2.694l0.835,1.628l-0.518,1.766l-1.256,0.104l-1.624,0.096l-0,-2.217l-2.266,0.507l-3.287,3.616l-1.531,2.999l-1.03,3.643l0.173,1.865l3.347,0.126l1.682,-3.372l0.717,-3.064l1.642,-0.623l1.474,0l0.402,1.407l-1.225,3.96l-2.45,1.675l-0.957,2.167l-3.458,-0.006l-0.852,0.808l-1.228,-0.133l-0.232,-2.159l-2.064,-1.26l-1.029,1.42l-0.839,3.029l-2.047,-2.28l-1.524,1.191l-1.426,3.394l-0.027,3.967l-1.9,0.155l-0.763,-0.992l-1.067,1.386l-1.561,0.179l-0.403,1.901l-2.55,-1.106l-3.459,0.035l0.827,2.18l1.145,0l1.016,0.226l-0.58,4.132l-2.169,0l-0.052,-1.132l1.054,-0.531l-0.711,-0.862l-1.245,-0.37l-0.892,-1.075l-0.101,2.105l-0.987,0.296l-0,-1.962l-1.615,-0l-0.033,1.258l0.975,0.774l-0.237,1.711l-2.271,0l-0,-1.932l-1.737,0.899l-0.323,1.784l3.184,1.772l1.873,-1.693l1.832,1.092l-0.372,1.103l-4.017,0l-0.824,1.449l-0.784,-0.834l-1.933,-1.508l-1.419,1.368l0.086,2.422l2.864,1.031l-1.508,1.865l-1.102,-0.594l-0.019,3.524l3.154,0l0.466,-1.163l3.834,-0l1.053,-2.247l1.655,1.805l2.36,0.047l1.478,-2.44l0.979,0l-0.472,1.795l-0.009,1.715l-1.545,1.498l-1.869,1.36l-1.552,-0.767l-0.082,-1.172l-1.573,0.152l-3.817,1.374l-0.697,-1.491l-1.911,1.232l-1.462,0l0.928,3.236l1.75,0.04l0.055,3.195l-1.355,0.039l0.975,2.986l2.227,-0.362l4.243,-4.284l2.552,0.655l-0.56,2.991l-1.786,0.177l-0.6,1.88l-0.958,-1.605l-2.169,3.458l-1.056,0l-0.2,1.805l0.593,0.202l-1.072,2.58l-1.961,0.699l0.272,2.335l3.742,0l0.624,-3.465l1.725,0.329l-0.171,1.555l-1.133,0l-0.008,1.945l1.061,0.292l-0.383,1.393l-1.415,0l-1.02,2.227l1.093,0.818l1.18,-1.325l1.025,0.27l-1.299,1.788l-1.427,1.793l-1.303,-0.335l-0.447,-0.898l-0.609,-1.42l-1.496,0.749l-0.481,1.85l2.796,4.564l2.843,2.272l2.681,0l0.415,1.106l0.813,1.481l6.031,0.09l2.924,-1.644l4.472,-4.273l1.549,-3.841l3.143,-4.436l1.832,2.184l3.051,-3.047l0.849,-1.843l-1.459,-2.099l2.837,-4.511l2.237,1.714l-1.629,1.892l1.078,3.168l1.456,2.155l1.406,1.284l1.079,1.733l1.167,-1.253l0.209,-2.858l-0.144,-2.637l1.579,-5.052l1.561,-0.355l2.703,-5.903l-2.039,-6.365l0.185,-1.781l3.123,-2.353l0.023,-1.759l-1.359,-1.287l-1.79,-0.843l-1.118,-7.593l-0.103,-6.258l0.226,-4.372l-0.528,-6.081l2.818,-5.961l3.355,-1.934l6.979,-0.165l0.619,-0.966l-0.683,-1.794l-2.569,-1.54l6.065,-11.166l-0.201,-8.8l6.16,-1.8l1.317,-4.392l2.979,-3.128l2.107,-1.385l0.126,-1.383l-0.691,-1.26l-1.002,-1.309l4.581,-5.73l2.195,-2.893l7.16,-0.098l0.073,-2.671l2.677,-2.822l1.7,2.019l4.004,0.219l2.134,0.287l2.528,-1.574l0.795,-2.39l0.707,-2.092l0.092,-1.569l1.96,-0.12l2.23,-0l2.914,-3.257l4.162,0l2.201,3.587l2.691,1.47l1.374,0.577l2.19,0.749l2.095,0.325l2.791,-1.882l2.71,-0.227l4.952,1.976l2.458,-2.175l2.515,-1.529l0.088,-4.103l3.665,-6.061l4.219,-1.392l4.136,0.546l1.778,-1.381l5.311,3.414l3.176,-0.024l2.428,3.348l-1.839,5.456l3.963,-3.181l3.685,-3.138l-0.883,-0.955l-2.897,-0.653l-0.824,-1.918l-3.73,-1.078l-2.766,0.061l-0.012,-1.126l1.664,-0.895Zm11.058,0l-7.399,0l2.541,0.941l3.837,0.538l1.021,-1.479Z" style="fill:#1a1a1a;fill-opacity:0.15;"/><path d="M198.739,96.113l-5.028,6.348l-9.843,10.044l-2.774,2.03l-1.885,1.18l-9.446,3.256l-3.549,2.238l-1.025,-1.708l-2.276,1.339l-4.083,1.773l-1.922,1.462l-1.67,-0.581l-3.312,2.175l-2.912,-2.111l-1.387,-1.486l0.553,-0.875l-0.879,-1.528l-1.578,0.541l-4.487,-1.708l-3.223,-1.997l-0.678,-3.393l0.606,-7.228l1.688,-0.443l-2.86,-5.819l0.472,-4.71l-1.75,-3.86l4.745,-6.722l2.615,0.031l2.61,-4.475l2.059,-1.463l5.927,-5.624l6.154,-8.91l2.956,-0l1.408,1.599l0.904,-2.633l-1.438,-3.011l0.108,-2.524l-1.911,-2.895l-2.07,0l-2.481,-1.987l-1.794,-1.756l-1.822,-4.214l1.166,-3.716l-0,-3.934l-1.569,-1.242l0.696,-3.237l-0.734,-2.457l-1.24,-0.673l0.179,-2.163l0.874,-2.514l-5.278,-4.436l-1.805,-1.573l-3.561,-0.225l-2.491,-1.369l-1.686,-2.097l-2.986,-1.922l1.899,-1.516l2.295,0.172l1.739,2.868l4.263,3.143l2.064,-0l2.012,0.691l3.096,-1.235l2.294,-1.626l4.557,2.333l2.085,1.582l2.238,-1.275l0.928,-3.087l2.62,-1.646l0.432,-5.255l2.746,-3.002l4.238,-2.196l4.718,0l0.906,-1.272l4.283,2.729l2.031,0.432l2.666,2.826l-1.044,2.575l-1.242,1.213l-0.347,1.781l-1.563,0.4l1.262,3.545l-2.447,3.565l2.071,2.571l6.509,3.417l1.08,2.17l-2.365,2.961l-3.016,2.855l0.643,5.713l5.277,8.655l0.613,2.275l-1.733,2.383l-1.635,2.671l2.173,6.467l1.866,1.642l-0.158,2.962l2.014,2.583l0.747,0.206l-0,1.11l-3.073,3.877l1.203,2.716l2.768,2.605l0,13.619Z" style="fill:#1a1a1a;fill-opacity:0.15;"/><path d="M115.49,160.205l-0.564,-4.748l4.598,-4.015l0.622,2.003l-2.799,6.38l-1.857,0.38Z" style="fill:#0b6115;"/><path d="M103.405,170.927l1.901,-1.492l-0.223,-4.613l-1.515,2.703l-0.163,3.402Z" style="fill:#0b6115;"/><path d="M67.455,139.129l1.336,6.226l1.439,-0.347l1.42,0.857l0.025,4.214l1.409,5.58l5.32,10.096l1.218,1.214l-1.623,5.056l0.079,2.321l1.666,3.664l0,4.397l5.264,0l2.967,0.506l0.8,-1.836l-1.028,-2.122l2.828,-3.961l2.651,-2.408l6.845,-0.27l2.604,-6.673l0.446,-5.766l0.83,-2.691l-0.392,-5.421l-0.283,-1.85l1.521,-0.128l0.637,-1.205l-1.979,-3.801l-0.917,-2.482l0.521,-0.986l3.407,-0.03l3.584,-5.255l1.809,0l0.827,2.61l2.245,-2.668l1.609,-0.791l-0.701,-1.802l-1.503,-1.237l0.252,-1.672l2.204,0l2.147,-2.584l1.327,-1.587l-1.518,-2.351l-2.822,-3.123l-2.917,-0.901l-3.295,-2.003l-1.867,-3.695l-0.017,-8.084l1.608,-6.767l0.009,-5.354l0.218,-1.746l1.729,0l1.945,-0.322l-0.319,-2.872l-1.454,-2.692l1.268,-0.069l1.359,2.23l3.934,-3.906l2.904,-0.57c-0,0 6.992,-6.388 3.477,-3.178l6.259,-3.147l4.569,-5.917l2.302,-0.994l-1.861,-4.791l-1.414,-1.029l1.49,-3.02l1.883,-0.105l0.784,-2.483l-1.269,-2.43l1.986,-0.975l2.544,-0.621l1.073,-1.3l0.193,-1.154l3.391,-0.812l3.001,0.579l4.079,0.234l1.111,-0l-2.282,-5.026l-0.055,-3.838l0.474,-2.115l-1.997,-3.507l-0.003,-1.877l0.483,-1.502l-1.009,-2.119l0,-2.859l0.653,-2.239l-5.749,-5.331l-4.519,0.47l-4.048,-3.888l-3.439,-2.944l-2.755,0.364l-1.096,4.422l-2.067,2.44l-2.538,1.148l-3.128,-1.374l-3.454,-0.032l-1.276,-1.246l-1.332,1.084l0.497,3.515l-1.764,0.799l-6.554,-0.561l-5.399,7.37l1.194,1.946l0.158,1.62l-1.611,2.423l-3.808,4.62l-1.246,2.483l-0.919,2.765l-4.921,-0.184l0,8.004l-4.951,9.071l1.895,2.498l0.017,4.897l-1.026,1.145l-7.958,0.19l-3.32,3.184l-1.276,3.317l0.385,4.566l-0.259,6.573l0.332,5.402l0.559,4.493l1.581,0.591l1.938,2.618l0.47,1.843l-1.411,4.123l-2.065,1.104l1.387,3.977l0.865,1.638l-1.019,2.033l-1.49,3.61l-1.846,3.154l-1.245,0l-0.933,3.974l0.639,2.113l-0.429,2.146l-0.806,2.031l-1.214,2.048l-2.484,-0.97Z" style="fill:#0b6115;"/></svg>
