<?xml version="1.0" encoding="UTF-8" standalone="no"?><!DOCTYPE svg PUBLIC "-//W3C//DTD SVG 1.1//EN" "http://www.w3.org/Graphics/SVG/1.1/DTD/svg11.dtd"><svg width="100%" height="100%" viewBox="0 0 200 200" version="1.1" xmlns="http://www.w3.org/2000/svg" xmlns:xlink="http://www.w3.org/1999/xlink" xml:space="preserve" xmlns:serif="http://www.serif.com/" style="fill-rule:evenodd;clip-rule:evenodd;stroke-linejoin:round;stroke-miterlimit:2;"><rect x="1.309" y="1.105" width="197.43" height="197.43" style="fill:#b3c4c6;"/><path d="M40.107,120.004l0.564,2.427l2.969,1.492l0.54,2.791l0.373,1.898l1.345,0.823l-0.369,1.637l-1.809,0.793l0.684,1.732l1.921,1.5l-0.051,2.927l-1.572,0.962l-0.457,6.923l1.678,0.956l0.679,2.232l2.669,2.437l3.008,-2.547l1.292,-2.861l2.24,-1.356l2.481,2.415l2.602,-0.751l0.975,-1.52l0.528,-5.894l0.891,-1.846l-0.12,-5.703l-1.829,-2.631l1.99,-1.027l2.252,-1.935l0.06,-3.435l-2.974,-3.401l-2.471,-1.228l-0.023,-4.063l-5.487,-0.948l-3.559,4.41l-3.86,1.714l-1.053,1.225l-6.107,-0.148Z" style="fill:#0b6115;"/><g><path d="M47.719,93.449l0.087,6.866l2.495,3.431l3.389,5.797l2.057,0.036l2.677,-4.379l0.876,-5.468l0.578,-12.596l-3.477,0.255l-3.513,3.757l-3.767,0.671l-1.402,1.63Z" style="fill:#2f2e2e;fill-opacity:0.16;"/><path d="M12.363,30.47l0.624,-2.931l11.409,-9.234l1.404,-4.055l5.148,0.016l2.815,-1.579l11.396,0.305l2.63,-2.478l9.026,0.837l2.564,2.346l-0.741,2.677l-0.976,1.251l-0.019,2.188l2.927,0.839l4.377,2.419l3.59,1.032l3.267,-1.466l-0.264,2.884l-3.241,0.53l-1.167,1.576l-1.964,2.308l-4.485,-0.733l-2.359,-2.37l-2.14,1.28l-1.343,2.131l-3.806,4.463l-4.422,-3.054l-1.743,-3.162l-3.622,-0.031l-5.086,4.955l-1.676,2.052l-8.862,-0.077l-3.911,-3.605l-0.009,-2.633l-7.062,-0.123l-2.279,1.442Z" style="fill:#2f2e2e;fill-opacity:0.16;"/><path d="M119.111,29.245l-1.516,1.49l1.077,1.403l0.67,0.977l-0.028,3.264l0.592,2.76l3.097,2.298l0.383,1.53l6.447,-0.689l2.242,-2.023l6.428,1.536l2.02,1.932l3.037,-4.061l2.864,-1.455l-0.329,-3.842l2.727,-1.845l5.862,-2.14l2.725,-2.542l-2.133,-3.906l-6.129,3.068l-5.234,1.138l-3.85,-0.904l-2.687,-0.024l-4.636,2.862l-2.29,1.942l-4.562,-0.04l-3.135,-1.776l-2.193,-1.299l-1.449,0.346Z" style="fill:#2f2e2e;fill-opacity:0.16;"/><path d="M198.739,98.332l-25.685,-16.963l-11.485,-6.083l-10.477,-0.687l-3.688,-3.109l-5.415,-3.467l0.417,-3.283l3.645,0l-0.241,-2.842l-6.653,-4.998l-1.013,-6.047l-3.689,-1.06l-3.142,-2.232l-2.736,0.055l-0.79,2.585l-3.517,3.091l-2.723,0.267l-1.638,-5.538l1.559,-1.575l2.621,-0.34l6.502,-0.294l1.535,-1.077l4.148,0.048l4.925,2.729l4.448,-3.452l2.012,-2.201l2.623,-0.341l-0.952,-5.871l4.446,-3.274l6.566,-2.603l3.188,1.905l8.984,7.281l9.27,2.49l7.596,0.03l8.208,-2.514l1.151,-0.442l0,59.812Z" style="fill:#2f2e2e;fill-opacity:0.16;"/><path d="M198.739,2.059l-6.739,3.24l-0.046,2.154l-14.382,-0.038l-8.347,-5.423l-0.096,-0.887l29.61,0l0,0.954Z" style="fill:#2f2e2e;fill-opacity:0.16;"/><path d="M198.739,5.664l0,29.947l-9.832,2.436l-7.721,0.37l-6.512,-2.087l-10.357,-7.689l-3.502,-2.042l-2.9,-4.335l3.882,-6.837l1.476,-3.307l-0.455,-1.646l5.443,0.109l2.827,-4.225l4.493,3.38l14.212,-0.211l6.266,-0.028l-1.067,-2.309l3.747,-1.526Z" style="fill:#2f2e2e;fill-opacity:0.16;"/><path d="M164.732,1.105l-0.036,1.049l2.472,2.492l-3.358,2.397l-5.863,0.03l0.898,4.49l1.287,0.289l-3.213,4.848l-2.972,3.858l-4.824,3.337l-4.998,1.356l-7.882,-0.616l-6.031,3.421l-3.381,0.645l-6.574,-2.436l-12.187,0.101l-4.318,-2.147l-3.612,-3.311l-1.735,-2.599l-4.81,0.666l-4.066,1.09l-5.272,0.062l-3.764,2.497l-5.066,-0.31l-1.272,-3.765l-3.311,0.528l-2.495,1.517l-3.49,-1.201l-3.086,-0.395l-0.086,-1.827l1.918,-2.494l7.179,1.896l4.661,-3.642l7.928,3.825l9.01,-4.058l12.121,-0.38l4.811,1.591l2.45,-0.536l-0,-4.549l-2.426,-4.33l4.961,-3.389l50.432,0Z" style="fill:#2f2e2e;fill-opacity:0.16;"/><path d="M107.548,1.105l-1.367,0.916l1.004,5.802l2.15,2.37l-2.792,0.312l-5.227,-1.536l-5.232,0.091l-8.166,2.622l-4.698,1.202l-6.255,-1.941l-2.985,-1.488l-3.841,4.033l-5.82,-2.247l-9.55,-3.676l-10.915,0.03l-1.626,2.492l-9.01,-0.538l0.793,-7.973l0.279,-0.471l73.258,0Z" style="fill:#2f2e2e;fill-opacity:0.16;"/><path d="M30.532,1.105l-29.223,0l0,80.452l0.165,0.198l10.826,1.075l11.956,-7.136l4.853,-2.288l1.423,-1.81l0.622,-3.503l-3.8,-1.015l-3.197,0.109l-4.879,-5.981l2.354,-3.445l-6,-6.29l6.758,-4.768l-4.737,-5.667l4.021,-3.942l-3.244,-4.667l-3.194,0.157l-2.71,3.487l-5.188,0.728l1.655,-10.218l12.998,-10.33l0.226,-5.173l6.757,-0.779l0.236,-6.217l1.322,-2.977Z" style="fill:#2f2e2e;fill-opacity:0.16;"/></g><path d="M34.698,71.943l7.803,-2.664l3.766,-7.043l7.947,0.206l13.39,6.922l3.485,3.673l1.977,9.672l5.526,4.564l5.002,6.961l12.288,6.008l14.459,12.094l9.11,-0.112l9.057,8.478l7.672,1.18l3.643,7.22l2.992,3.383l4.743,0.083l4.983,7.656l1.714,7.606l2.372,3.575l-2.749,2.841l-2.753,0.143l-0.424,4.972l-3.424,3.811l2.931,3.892l6.206,-3.045l5.186,-6.849l-0.378,-5.233l5.307,-2.76l3.167,-1.126l0.081,-4.672l-4.006,-2.215l-3.732,-2.409l-1.944,-3.342l1.296,-5.289l6.781,-4.936l4.052,0.215l2.001,3.237l3.462,0.06l4.343,3.202l-0.018,3.834l4.77,-0.052l1.488,-5.287l-3.232,-5.037l-4.262,-1.897l-14.388,-7.379l-15.119,-7.442l1.213,-1.733l3.058,-0.951l-1.888,-5.062l-3.628,-0.471l-6.732,2.275l-8.153,-3.457l-8.796,-7.499l-3.679,-7.061l-2.619,-6.84l-10.066,-7.05l-7.223,-4.551l-4.249,-4.437l0.075,-4.303l2.064,-2.052l1.384,0.005l0.961,-0.438l-0.01,-2.588l-2.664,-1.665l-1.994,-2.324l2.278,-3.583l1.06,-1.03l2.826,2.222l3.835,-1.554l2.17,-2.675l1.069,-1.875l3.793,0.098l1.687,1.432l1.087,-1.718l-0.392,-1.864l-1.085,-0.793l-0.929,-4.046l-1.933,-1.634l1.832,-1.733l-0.221,-1.012l-10.495,-0.574l-6.591,-4.273l-1.994,-2.821l-2.588,0.153l-2.904,1.488l-6.448,0.212l-2.1,1.985l-3.52,0.038l-3.776,-0.389l-0.87,3.356l-4.494,0.545l-1.12,2.964l-0.176,2.163l-2.531,-0.044l-0.935,-1.308l-4.492,-0.531l-2.522,-1.087l-2.445,4.155l-1.679,2.064l-0.771,4.157l-2.706,-0.954l-2.392,-3.195l-4.071,-4.812l-2.484,0.365l-1.578,2.754l-0.78,2.178l-2.236,1.694l-5.554,-0.843l-4.164,0.41l-3.453,2.945l3.716,4.013l-0.704,2.042l-5.797,4.405l4.69,3.204l0.262,2.742l-2.895,2.839l2.502,3.192l8.138,0.744l0.996,2.062l-0.767,3.085l1.026,2.145Z" style="fill:#0b6115;"/><path d="M103.361,169.312l4.22,-4.453l4.58,-0.21l2.567,-2.233l6.802,3.322l8.41,0.572l2.917,-2.538l3.754,-1.255l3.286,0.782l3.85,-0.421l1.78,1.158l-1.867,1.628l-1.917,2.306l-2.05,3.785l-0.073,4.189l0.905,1.2l3.266,2.473l-2.598,3.643l-3.366,3.541l-5.784,-0.705l-4.087,-6.715l-7.499,-0.131l-2.798,-2.649l-5.088,-3.879l-4.101,-0.56l-3.755,-0.1l-1.354,-2.75Z" style="fill:#0b6115;"/></svg>
