<?xml version="1.0" encoding="UTF-8" standalone="no"?><!DOCTYPE svg PUBLIC "-//W3C//DTD SVG 1.1//EN" "http://www.w3.org/Graphics/SVG/1.1/DTD/svg11.dtd"><svg width="100%" height="100%" viewBox="0 0 200 200" version="1.1" xmlns="http://www.w3.org/2000/svg" xmlns:xlink="http://www.w3.org/1999/xlink" xml:space="preserve" xmlns:serif="http://www.serif.com/" style="fill-rule:evenodd;clip-rule:evenodd;stroke-linejoin:round;stroke-miterlimit:2;"><clipPath id="_clip1"><rect x="0" y="0" width="200" height="200"/></clipPath><g clip-path="url(#_clip1)"><rect x="1.309" y="1.105" width="197.43" height="197.43" style="fill:#b3c4c6;"/><g><path d="M198.739,92.191l0,-91.086l-139.926,0l0.753,0.033l0.62,1.001l1.727,0.522l1.179,0.611l0.985,0.808l-0.159,1.724l0.233,1.209l0.811,0.963l0.884,-0.138l0.493,-0.455l1.564,0.013l-0.393,1.223l0.964,0.77l1.241,0.488l0.98,0.356l3.494,-0.164l0.465,0.758l1.557,1.662l-0.014,1.586l1.146,1.127l1.667,1.513l2.13,0.432l-0.008,0.861l-0.363,0.836l-1.047,0.801l0.222,2.539l1.249,1.244l2.106,0.999l0.027,2.064l1.08,0.925l-0.667,1.584l-0.961,0.433l-1.507,0.543l-1.457,0.26l-1.144,-1.315l-0.846,0.848l1.255,1.217l0.776,1.375l-0.171,3.441l0.627,0.147l0.931,-0.724l2.445,1.619l0.293,0.923l2.365,0.072l1.58,1.486l1.952,1.682l3.535,1.74l1.123,-1.467l3.477,0.251l8.418,6.232l0.727,1.05l1.6,-0.739l3.365,2.97l0.901,0.865l3.096,0.025l-0.182,2.096l2.391,0.238l0.01,-1.073l0.993,1.589l0.878,1.057l0.965,-0.674l1.539,0.625l2.938,-0.073l1.105,0.879l5.284,0.44l2.755,-1.615l1.758,0.567l0.427,1.872l0.029,0.391l1.617,-1.131l2.083,-2.209l1.441,-0.501l2.792,-0.145l0.72,0.907l6.204,0.603l1.77,1.719l1.125,0.086l2.161,-0.838l4.243,-4.685l3.713,-0.906l4.221,-3.053l3.43,1.155l1.194,-0.167l2.925,-2.01l1.492,0.048l2.223,2.242l0.564,2.397l-0.827,1.22l1.897,0.384l2.767,0.929l0.156,-2.162l2.275,0.765l0.457,0.738l1.874,1.652l-0.039,2.663l3.322,1.256l0.033,9.398l-0.511,2.012l-1.476,0.57l-1.208,1.443l-1.448,1.659l-0.765,1.125l-0.297,2.405l0.365,2.51l1.031,-0.193l0.822,-0.744l4.483,0.067l0.173,1.77l-0.63,0.258l0.202,1.118l0.514,0.264l0.113,2.291l0.862,0.486l2.202,0.549l1.029,1.657l-1.171,0.852l-1.068,3.33l2.675,0.154Z" style="fill:#232323;fill-opacity:0.12;"/><path d="M198.739,104.011l-1.667,0.631l-2.482,1.276l-0.034,1.07l-2.302,0.723l-0.359,0.25l-1.34,0.015l-1.4,-0.105l-0.904,1.11l-0.082,2.44l-0.852,0.54l0.219,0.949l0.054,2.006l-1.19,0.583l0.932,0.461l0.117,2.752l4.224,5.039l1.794,2.932l0.731,0.387l-0.463,2.893l-0.954,0.313l-0.043,3.605l-2.152,1.657l-0.011,1.26l0.96,1.487l2.212,2.42l1.201,1.561l0.777,0.428l-0.036,6.259l0.655,0.291l0.021,0.945l0.572,0.315l0.164,1.596l0.501,0.857l0.02,1.767l0.261,1.168l0.856,-0.83l0,-51.051Z" style="fill:#232323;fill-opacity:0.12;"/><path d="M43.445,1.105l-5.478,0l-0,0.016l0.326,0.939l0.84,0.307l1.05,-0.086l1.891,-0.666l1.371,-0.51Zm-24.929,0.034l-0.03,-0.034l0.087,0l-0.057,0.034Z" style="fill:#232323;fill-opacity:0.12;"/><path d="M200.714,188.656l0.041,0.959l0.41,-1.45l-0.451,0.491Z" style="fill:#232323;fill-opacity:0.12;"/><path d="M198.739,186.022l0,-14.342l-0.546,-0.486l-1.271,0.618l-0.645,0.193l-0.887,-1.708l-0.687,-0.838l-0.106,-1.617l0.106,-2.912l0.665,-0.565l0.103,-1.609l0.745,-1.09l0.646,-1.649l0.044,-1.558l-0.668,0.364l-0.14,1.081l-0.715,0.999l-1.307,1.008l-0.634,1.306l-0.469,1.872l-0.595,0.868l-0.551,1.165l-0.034,2.305l-0.894,1.801l-1.084,4.369l0.238,0.945l0.233,0.487l0.217,0.495l0.601,0.005l0.009,-0.927l1.102,0.405l1.678,1.973l1.628,1.817l2.786,3.383l0.228,1.751l0.204,0.091Z" style="fill:#232323;fill-opacity:0.12;"/><path d="M198.739,102.988l0,-10.026l-3.735,-0.031l-0.149,-1.356l1.501,-3.399l0.479,-0.442l-0.229,-1.109l-3.232,-0.829l-0.319,-2.265l-0.631,-0.73l-0.139,-1.432l0.561,-0.561l-1.733,-0.22l-1.545,0.21l-2.76,0.719l-0.796,-0.586l-0.056,-2.9l0.492,-3.152l3.74,-4.247l0.988,-0.93l0.384,-1.814l0.138,-7.916l-1.456,-0.324l-1.482,-0.911l-0.196,-2.754l-1.863,-1.465l-0.523,-0.713l-0.473,0.536l-0.014,1.517l-1.044,0.969l-1.581,2.035l-0.474,0.763l-0.008,0.914l0.891,0.272l0.09,1.548l-0.989,0.103l-1.282,-0.833l-0.368,-0.349l-2.588,0.453l-5.731,3.923l-0.45,0.723l0.308,1.28l-0.019,2.059l-2.947,3.349l0.558,0.631l0.089,2.973l-2.881,4.131l-0.128,2.092l-1.193,-0.065l-1.138,-0.905l-2.217,-0.017l0.355,4.909l-1.602,0.937l-0.061,2.862l0.789,0.965l-2.439,2.224l-1.076,-0.383l-0.476,3.031l0.484,0.696l-0.598,1.105l-1.187,-0.099l-0.306,-0.58l-0.342,0.908l0.003,1.251l1.804,2.446l1.631,0.555l0.333,-0.679l1.073,0.871l-0.186,1.097l4.287,3.092l-0.01,1.051l1.682,1.514l-0.557,2.244l1.377,1.867l-0.015,1.677l1.025,0.463l0.131,2.896l0.801,0.516l-0.455,3.456l-0.624,1.016l-0.052,1.287l-0.663,1.779l-0.5,1.826l0.874,0.856l0.61,-1.217l0.18,-1.806l1.099,0.102l0.019,1.276l0.506,0.772l0.373,1.315l0.108,0.558l0.919,-0.04l1.498,-0.626l-0.076,1.653l1.412,0.012l0.03,-1.539l0.954,-1.538l1.737,-0.164l1.081,-0.699l-0.141,-1.081l-0.866,-0.339l1.371,-1.155l0.313,0.919l0.967,0.352l1.093,-0.986l-0.014,-2.393l0.019,-1.993l2.056,0.017l0.999,1.995l-0.029,2.069l1.4,1.164l1.475,0.205l-0.011,1.173l-0.774,0.052l0.066,2.685l0.83,0.729l-0.013,1.427l0.281,1.884l0.174,2.015l0.438,0.578l0.416,2.286l0.08,1.913l1.281,1.882l0.252,2.177l1.778,2.102l0.175,2.844l0.084,0.767l0.666,0.357l0.247,0.47l-0.553,0.639l-0.603,0.617l-0.026,1.73l0.628,0.689l0.761,-0.151l-0.011,1.156l-1.318,0.745l0.311,2.455l-0.009,1.029l-1.057,0.844l-0.322,2.646l0.4,1.421l0.903,-1.369l0.504,-2.14l0.798,-1.015l1.636,-1.403l0.406,-1.228l0.831,-0.885l0.488,-0.983l-0.008,-2.455l-0.683,-1.291l0.003,-1.453l-0.962,-0.542l-0.699,-2.502l0.005,-4.349l-0.967,-1.681l-3.752,-3.744l-0.785,-3.134l2.224,-1.99l-0.059,-4.188l0.947,-0.519l0.001,-1.119l-1.544,-3.571l-4.437,-4.738l-0.147,-1.984l-1.851,-2.45l0.912,-1.271l1.068,0.453l0.196,-1.311l-0.31,-1.771l0.885,-0.557l-0.005,-2.719l1.516,-0.972l3.063,0.254l1.784,-0.697l0.188,-1.221l2.814,-1.175l2.423,-0.849Z" style="fill:#232323;fill-opacity:0.12;"/><path d="M136.566,61.891l1.134,-2.071l2.447,-2.493l2.188,-1.713l1.442,-0.064l0.959,0.58l0.888,0.673l4.876,-0.169l0.925,0.91l-0.374,1.34l0.649,1.013l2.164,1.024l-0.031,1.903l-3.065,0.358l-1.728,0.418l-3.245,-0.149l-0.496,-0.57l-1.293,0.261l-2.26,1.262l-1.765,-0.342l-0.566,-0.623l-2.207,-0.824l-0.642,-0.724Z" style="fill:#232323;fill-opacity:0.12;"/><path d="M133.345,68.651l0.799,-1.643l1.5,0.225l1.176,0.21l1.089,1.219l1.682,0.828l0.542,0.334l0.846,-0.908l0.535,0.425l-0.297,2.613l1.536,1.568l2.462,0.928l9.761,0.13l0.898,0.622l-0.433,1.024l-2.279,3.535l-2.063,0.323l-2.296,2.168l0.059,1.876l1.042,1.451l0.952,1.719l1.965,0.792l0.992,-0.871l0.158,-2.16l1.311,-1.534l0.585,2.941l0.411,2.967l0.557,1.752l-0.036,3.862l-1.436,1.6l-0.176,0.797l-0.943,-1.568l0.231,-3.321l-1.592,-2.441l-1.303,-1.672l-1.046,0.088l-1.587,1.034l-1.152,-0.872l-0.306,-1.409l-0.119,-3.303l-0.169,-1.077l-1.533,0.141l-1.399,1.49l0.805,0.964l0.091,1.692l-0.86,1.765l0.939,0.956l1.623,0.733l-0.068,0.929l-0.968,-0.008l-1.239,1.007l-0.843,1.899l-0.12,-2.028l-0.767,-1.403l0.265,-1.334l-0.848,0.779l-0.017,1.84l0.028,1.502l-1.275,0.006l0.017,-1.861l-0.832,0.029l-0.033,1.629l-1.096,0.352l-1.08,-0.149l0.067,-3.517l-0.718,-0.396l-0.005,-3.244l-0.942,-1.91l-0.634,-1.336l0.086,-1.337l1.179,-2.447l-0.601,-1.297l-2.729,-0.195l-0.97,-1.248l2.295,-2.106l1.896,-0.759l0.985,-0.178l-0.953,-1.807l-1.508,-1.051l-1.632,-0.659l-0.462,-1.695Z" style="fill:#232323;fill-opacity:0.12;"/><path d="M91.801,43.738l2.286,0.143l1.116,-1.45l2.677,0.283l7.45,5.664l1.02,1.559l2.458,-0.396l3.704,3.046l2.569,0.658l-0.014,1.523l3.502,0.359l1.552,1.49l1.419,-0.344l0.95,0.732l2.677,-0.442l1.682,1.395l4.772,-0.116l-0.612,1.586l-0.02,1.115l-0.017,1.784l0.759,1.738l0.312,0.665l-1.748,1.162l-3.341,0.21l-0.7,-0.768l-1.83,0.401l-2.259,-0.397l-3.269,-1.343l-0.331,-0.436l-2.727,-0.023l-2.343,-1.605l-1.451,-2.253l-2.801,-0.269l-1.213,0.304l-1.521,-0.243l-1.958,0.452l-1.87,-0.473l-2.194,-2.093l-4.492,-1.302l-2.912,-2.263l-2.495,-1.647l-2.8,-0.361l-0.81,-0.766l0.532,-1.686l1.096,-2.491l0.836,-1.295l2.359,-1.807Z" style="fill:#232323;fill-opacity:0.12;"/><path d="M87.222,170.61l-1.044,3.523l-1.094,5.683l0.047,3.166l0.494,5.048l2.71,2.68l2.701,0.129l5.574,-4.053l-0.011,-3.386l-3.553,-7.909l-2.416,-3.336l-0.928,-2.096l-2.48,0.551Z" style="fill:#232323;fill-opacity:0.12;"/><path d="M1.309,47.647l0.254,0.002l5.943,-1.473l1.713,-1.968l-0.231,-4.083l2.718,-2.424l2.598,-0.222l2.678,0.037l1.417,-1.248l0.259,-1.775l3,-0.173l1.441,0.699l2.421,-1.551l0.745,-1.353l-0.103,-2.977l1.528,-2.566l1.13,-0.484l2.349,-1.23l0.224,-1.2l-0.243,-1.586l-1.364,-1.133l0.706,-0.343l3.177,0.12l2.906,-1.405l0.119,-2.119l-0.646,-0.669l1.603,-1.895l1.969,-1.606l-0.15,-1.755l-0.544,-1.486l-0.593,-1.358l-0.802,-0.762l-0.013,-0.789l1.003,-0.706l2.163,-1.805l3.017,-1.242l4.761,0.012l1.947,-0.362l1.378,0.122l1.98,0.039l1.422,-0.482l1.935,-0.016l1.729,0.184l1.406,0.879l1.626,0.48l0.934,0.701l0.223,2.641l0.845,1.22l1.143,0.866l1.103,-0.46l1.137,0.907l2.284,1.367l1.274,0.011l-0.318,0.551l-1.074,0.266l-1.71,1.543l-2.21,1.144l-2.146,0.837l-2.444,0.457l-2.238,-0.018l-3.005,-0.955l-2.067,-0.101l-2.078,0.24l-1.803,1.534l0.642,0.98l0.872,0.89l0.692,0.635l-0.092,1.042l-0.261,1.292l0.519,0.491l0.24,0.974l-0.011,1.157l-0.736,0.755l2.593,3.306l2.443,0.832l1.626,1.035l-0.21,0.744l-2.384,1.202l-1.16,1.375l-0.019,2.117l0.033,1.105l0.212,0.932l-1.443,1.783l-2.233,2.157l-0.762,1.8l-2.432,1.599l-0.628,2.889l-2.905,2.357l-2.993,3.457l-2.214,2.122l-0.439,0.365l-2.496,0.908l-0.878,0.357l-0.999,0.005l-1.324,-1.023l-1.483,-0.763l-1.716,1.594l-2.658,2.804l-1.642,2.44l-0.018,1.883l1.47,0.984l1.682,0.52l1.118,0.421l0.042,0.915l-0.739,1.129l-0.009,0.899l0.908,1.391l0.991,0.602l1.099,0.482l0.295,0.437l0.955,1.642l1.12,1.056l0.259,0.555l0.31,0.697l-0.035,1.201l-0.263,1.001l-0.272,0.335l-1.096,-0.162l-0.59,-0.679l-1.037,-0.008l-2.514,1.876l-0.983,0.047l-1.028,-0.686l-1.762,-0.404l-3.102,0.251l-0.907,1.709l-1.196,1.033l-2.295,0.394l-2.228,-0.324l-1.081,-3.326l-0.339,-1.966l-2.087,-0.731l-1.261,-0.581l0.037,-2.141l-0.775,-1.038l-0.699,-0.577l-1.268,-0.22l-1.019,0.937l-2.219,0.592l-3.039,-0.025l-0.605,0.083l0,-24.998Z" style="fill:#232323;fill-opacity:0.12;"/><path d="M55.671,1.105l-10.449,0l-3.362,1.942l-3.79,0.322l-1.08,-1.002l-0.24,-1.262l-10.887,0l-1.361,0.085l-0.17,-0.085l-3.093,0l-1.639,0.644l-0.999,1.007l-1.611,-1.12l-0.358,-0.531l-15.323,0l0,45.352l0.643,-0.015l5.274,-1.132l0.702,-1.225l-0.594,-4.502l4.695,-3.239l4.583,-0.026l1.094,-1.043l0.056,-1.477l4.71,-0.89l0.771,0.546l2.162,-1.224l-0.347,-3.487l1.617,-2.918l3.318,-1.535l0.215,-1.597l-1.412,-1.235l-0.023,-1.655l4.52,-0.209l1.885,-0.516l0.188,-1.276l-0.873,-1.108l3.319,-3.546l0.487,-0.939l-0.304,-1.981l-1.639,-1.752l-0.446,-1.073l1.152,-2.145l1.325,-0.14l0.714,-0.466l0.132,-0.442l4.92,-1.814l4.556,-0.423l4.976,-0.137l1.836,-0.299l0.15,-0.432Z" style="fill:#232323;fill-opacity:0.12;"/><path d="M174.039,198.536l-1.557,-2.59l0.11,-1.833l3.327,0.027l2.83,2.199l4.549,0.339l3.468,1.252l0.448,0.606l-13.175,-0Z" style="fill:#232323;fill-opacity:0.12;"/><path d="M158.821,148.08l0.184,-1.865l1.214,0.875l-1.398,0.99Z" style="fill:#232323;fill-opacity:0.12;"/><path d="M158.135,152.434l0.012,-3.091l2.325,1.975l-2.337,1.116Z" style="fill:#232323;fill-opacity:0.12;"/><path d="M157.822,157.317l0.024,-2.665l1.036,0.188l-1.06,2.477Z" style="fill:#232323;fill-opacity:0.12;"/><path d="M156.825,162.937l0.382,-1.534l0.702,0.819l-1.084,0.715Z" style="fill:#232323;fill-opacity:0.12;"/></g><path d="M134.871,65.646l-2.705,2.918l0.212,2.081l2.011,1.608l1.667,0.292l0.076,0.706l-1.848,0.381l-2.646,2.687l-0.035,1.22l1.681,1.544l1.915,0.373l-0.204,1.971l-0.533,0.72l-0.014,1.559l1.415,2.762l0.252,1.525l-0.107,2.78l0.777,0.8l0.468,0.77l-0.421,1.697l-0.659,0.435l-0.651,-0.703l0.559,-1.199l-0.79,-0.351l-0.732,0.455l-0.824,1.533l-1.245,0.896l0.102,-1.445l0.211,-1.009l-0.728,-1.072l-1.354,-0.011l0.847,0.619l0.581,0.75l-2.741,2.259l-2.075,1.171l-1.866,0.577l-0.784,0.878l-0.019,2.106l1.216,1.012l-0.893,1.565l-1.327,1.729l-2.926,1.738l-1.575,1.081l-1.066,-0.35l-1.32,-1.092l-1.598,2.082l-0.013,1.421l-1.315,1.807l-4.805,5.121l-4.43,3.995l-2.515,2.012l-3.093,1.568l-0.026,1.57l-1.073,1.905l-2.495,0.856l-1.888,0.117l-1.265,2.223l-2.102,0.881l-1.57,-0.013l-1.586,2.369l-0.18,3.541l0.179,1.965l-0.034,3.772l-0.652,2.568l1.362,1.179l-0.269,3.204l-1.318,3.314l-1.062,1.814l-0.011,4.944l0.453,3.698l-1.607,1.574l-1.413,0.022l-0.901,1.443l-1.634,2.273l-0.02,2.242l-2.007,0.921l-2.251,1.881l-1.082,3.528l-3.065,1.23l-3.47,-2.73l-2.12,-3.046l0.007,-1.916l0.294,-1.707l-0.305,-1.337l-3.156,-6.646l-4.383,-8.515l-2.283,-5.104l0.047,-5.122l-3.18,-6.292l-2.284,-5.209l-2.218,-5.624l-0.07,-4.349l-2.211,-4.882l0.224,-5.86l-2.019,-4.164l1.897,-4.189l-0.06,-2.68l-1.902,-1.438l1.106,-1.601l1.23,-0.096l0.329,-0.969l-2.165,-1.428l0.976,-1.747l-2.281,-0.947l-1.664,0.53l-1.104,2.982l1.041,0.878l0.056,1.796l-2.525,1.7l-4.148,2.324l-2.375,-0.411l-9.165,-9.145l0.676,-0.645l1.779,1.013l1.913,-0.839l2.638,-1.43l1.414,-1.861l0.44,-0.837l-0.197,-1.064l-1.172,0.172l-0.491,1.036l-2.739,1.027l-2.537,-0.15l-2.439,-1.726l-1.682,-1.594l0.114,-1.412l1.487,-1.416l0.086,-2.254l3.493,0.124l1.31,0.883l1.601,0.113l1.674,-1.044l1.106,-0.9l1.042,0.361l0.968,0.74l1.788,-0.065l0.367,-1.039l-0.243,-2.408l-0.403,-1.92l-2.269,-3.043l0.147,-0.558l-2.689,-0.869l-0.544,-1.36l0.784,-0.962l-0.071,-2.022l-1.3,-0.871l-1.765,-0.274l-1.252,-1.05l0.423,-1.42l4.125,-4.305l0.673,-1.042l1.042,0.758l0.526,0.969l1.727,0.66l1.52,-1.124l2.561,0.022l3.383,-4.117l3.165,-2.997l2.332,-2.742l0.868,-2.4l2.681,-1.854l0.784,-0.641l0.013,-1.42l3.711,-3.372l0.618,-0.661l-0.907,-1.712l0.1,-2.318l3.316,-1.975l1.479,-0.663l-0.576,-1.494l-1.879,-0.816l-3.077,-1.976l-2.17,-1.967l0.583,-0.984l0.12,-1.471l-0.863,-0.758l0.997,-1.621l0.088,-0.725l-1.121,-0.638l-1.496,-1.748l2.483,-1.167l4.88,0.948l1.644,0.625l1.986,0.016l1.559,-0.73l2.665,-0.963l2.096,-0.911l2.042,-1.999l1.961,-0.522l0.561,-0.783l1.092,0.356l0.563,1.168l0.266,1.662l3.152,3.123l0.934,0.05l0.004,0.695l-0.939,0.966l0.707,3.058l1.837,2.05l1.291,0.691l-0.01,1.061l0.603,1.005l-0.63,1.139l-1.721,0.619l-0.966,-1.015l-0.649,-0.847l-2.277,1.24l-0.014,1.474l1.961,2.288l0.076,4.618l1.217,0.401l1.08,-0.285l1.676,0.468l0.971,1.37l2.453,0.5l2.722,2.315l1.961,1.373l-1.573,1.272l-2.264,2.919l-0.795,4.195l1.614,1.67l2.409,0.167l5.916,4.32l3.748,0.941l2.619,2.095l2.551,0.157l3.265,-0.003l2.399,-0.189l1.971,1.731l2.097,1.72l3.445,1.078l1.809,1.036l4.172,0.314l1.926,0.025l0.748,0.509l4.759,0.039l2.495,-2.157l-1.243,-1.31l-0.51,-1.167l0.012,-2.604l0.409,-1.59l1.457,-1.146l1.162,-0.11l0.749,0.5l0.129,1.263l-0.009,1.046l-0.841,1.43l0.376,1.231l1.517,1.655l2.668,0.816l1.535,1.058l2.223,-0.828l1.144,-0.972l1.134,0.463l4.53,0.277l4.776,-1.462l0.007,-1.945l-0.438,-1.375l-1.354,-0.181l-0.72,-1.006l0.18,-0.918l1.13,0.552l2.263,0.019l1.464,-0.969l4.334,-4.582l2.88,-0.82l4.164,-3.19l3.364,1.591l1.857,-0.61l2.616,-1.738l0.928,-0.122l0.507,1.199l-0.458,1.19l1.207,0.844l0.391,0.507l-0.937,1.15l0.312,1.917l1.109,-0.909l1.643,0.444l2.455,0.854l0.066,0.572l-2.696,2.7l-0.046,0.965l0.281,0.522l-0.513,0.275l-3.095,-0.055l-6.558,4.924l-0.554,1.868l0.67,1.314l-0.217,1.399l-3.189,3.063l0.552,1.135l0.614,0.397l-0.01,1.169l-0.973,1.257l-2.067,3.341l-0.08,0.991l-1.238,-0.07l-0.589,-0.467l-2.804,0.453l-0.1,1.177l0.282,2.904l-0.066,0.935l-1.224,0.763l-0.029,3.261l0.087,1.297l-0.801,0.995l-0.288,0.254l-0.893,-0.037l-0.824,-1.013l-0.154,-3.763l-0.608,-1.146l-0.276,-2.526l-0.771,-1.43l-1.576,-0.151l-0.746,0.293l-0.021,0.966l-0.855,1.283l-0.016,1.802l-0.826,-0.007l-0.759,-1.6l-1.353,-1.206l0.049,-1.369l1.676,-1.444l2.765,-0.907l3.03,-4.609l0.172,-1.008l-0.866,-1.109l-1.653,-0.224l-10.634,-0.347l-1.883,-1.093l0.325,-3.38l-1.475,-1.105l-1.078,0.13l-0.483,1.002l-0.792,-0.314l-1.832,-2.561l-1.487,0.425l-0.756,-0.592Z" style="fill:#0b6115;"/></g></svg>
