<?xml version="1.0" encoding="UTF-8" standalone="no"?><!DOCTYPE svg PUBLIC "-//W3C//DTD SVG 1.1//EN" "http://www.w3.org/Graphics/SVG/1.1/DTD/svg11.dtd"><svg width="100%" height="100%" viewBox="0 0 200 200" version="1.1" xmlns="http://www.w3.org/2000/svg" xmlns:xlink="http://www.w3.org/1999/xlink" xml:space="preserve" xmlns:serif="http://www.serif.com/" style="fill-rule:evenodd;clip-rule:evenodd;stroke-linejoin:round;stroke-miterlimit:2;"><path d="M138.338,129.896c1.393,0.628 1.796,1.036 3.637,2.193c1.58,0.99 4.189,2.594 9.554,5.72c0.166,0.096 2.121,1.225 4.471,2.745c0.887,0.539 1.709,1.111 2.461,1.714c0.788,0.655 1.717,1.274 2.244,2.015c0.527,0.74 0.93,1.504 1.414,2.265c0.484,0.761 0.777,1.628 1.424,2.312c0.331,0.346 0.879,0.607 1.531,0.728c0.94,0.135 1.619,-0.416 2.4,-0.683c1.251,-0.429 2.424,-0.849 3.17,-1.606c0.448,-0.541 0.965,-1.061 1.545,-1.557c0.583,-0.431 1.241,-0.664 0.951,-1.26c-0.195,-0.397 -0.792,-0.685 -1.068,-1.069c-0.275,-0.383 -0.48,-0.583 -0.802,-1.022c-0.682,-0.857 -1.595,-1.645 -2.704,-2.337c-0.987,-0.654 -2.07,-1.258 -3.238,-1.804c-1.247,-0.622 -2.55,-1.206 -3.902,-1.751c-0.922,-0.377 -1.926,-0.794 -2.23,-0.879c-0.584,-0.169 -1.134,-0.374 -1.64,-0.612c-1.46,-0.635 -2.807,-1.331 -4.334,-1.915c-1.527,-0.583 -2.675,-1.41 -4.238,-1.883c-1.401,-0.433 -2.685,-0.981 -3.814,-1.627c-0.738,-0.426 -1.7,-0.765 -2.506,-1.157c-0.805,-0.392 -1.438,-0.863 -2.209,-1.275c-0.488,-0.257 -0.894,-0.561 -1.361,-0.847c-0.968,-0.596 -1.551,-0.708 -1.551,-1.018c0.016,-0.273 0.33,-0.512 0.781,-0.594c0.816,-0.092 1.598,0.547 2.421,0.99c1.76,0.906 4.047,0.928 7.048,0.95c2.602,0.026 5.18,-0.29 7.539,-0.924c1.166,-0.333 2.276,-0.728 3.316,-1.179c2.326,-0.964 2.149,-1.209 3.319,-1.651c0.233,-0.09 0.979,-0.358 0.887,-0.586c-0.138,-0.227 -1.428,-0.118 -2.478,-0.145c-0.857,-0.053 -1.7,-0.163 -2.513,-0.329c-2.541,-0.422 -3.814,-0.883 -5.903,-1.301c-2.465,-0.478 -5.048,-0.722 -7.648,-0.723c-1.351,-0.001 -2.7,0.065 -4.03,0.2c15.803,-4.279 21.936,-8.967 24.548,-12.54c1.378,-1.882 2.651,-4.632 6.585,-9.197c1.506,-1.747 2.608,-2.837 5.92,-6.684c4.341,-5.016 3.277,-4.095 4.047,-4.818c1.414,-1.326 3.03,-2.565 2.397,-3.016c-0.315,-0.227 -1.128,-0.165 -1.76,-0.082c-6.677,0.925 -21.865,7.498 -21.865,7.498c-6.833,2.957 -7.777,2.857 -15.599,6.373c-3.322,1.51 -6.132,2.859 -8.299,3.947c2.452,-1.793 4.601,-3.718 6.419,-5.747c1.818,-2.029 7.249,-8.059 7.486,-16.293c-0.091,-0.956 -0.001,-1.916 0.269,-2.861c0.219,-0.531 0.333,-1.074 0.339,-1.62c-0.014,-0.489 -0.119,-0.975 -0.314,-1.451c-0.414,-1.198 -0.05,-1.98 0.134,-3.392c0.23,-1.724 -0.039,-2.63 -0.134,-4.159c-0.439,-6.114 2.138,-15.091 0.47,-15.299c-0.135,-0.016 -0.244,0.031 -1.715,0.99c-1.777,1.177 -2.665,1.767 -3.177,2.141c-2.856,2.085 -4.56,2.334 -8.434,4.967c-0.597,0.406 -0.219,0.167 -4.365,3.303c-4.4,3.325 -3.948,2.925 -4.75,3.559c-2.775,2.261 -5.244,4.641 -7.384,7.12c-0.463,0.521 -1.502,1.684 -2.849,3.417c-2.891,3.71 -6.136,7.885 -7.73,13.009c-1.14,3.707 -1.324,7.492 -0.548,11.23c-0.679,-0.673 -1.693,-1.667 -2.934,-2.869c-4.4,-4.263 -6.542,-6.426 -8.243,-7.718c-3.527,-2.682 -7.277,-4.284 -14.17,-6.867c-13.346,-5.004 -20.006,-6.767 -30.966,-10.463c-17.511,-5.93 -24.11,-9.471 -25.912,-8.471c-0.746,0.431 -0.386,1.496 9.522,12.175c4.736,5.106 7.104,7.657 10.296,10.789c7.006,6.869 10.675,10.245 16.945,13.959c3.721,2.151 7.699,4.149 11.904,5.979c4.12,1.831 8.42,3.523 12.88,5.065c-4.058,-0.352 -8.158,-0.518 -12.261,-0.496c-4.032,0.049 -8.054,0.253 -12.039,0.608c-1.477,0.139 -1.124,0.135 -5.797,0.637c-0.973,0.095 -1.937,0.22 -2.887,0.373c-1.018,0.171 -2.018,0.376 -2.994,0.615c-3.203,0.779 -5.638,1.495 -5.638,1.495c-4.673,1.384 -7.833,2.315 -11.685,3.89c-1.057,0.431 -0.389,0.184 -5.808,2.537c-5.111,2.212 -4.729,2.008 -5.393,2.33c-4.291,2.069 -4.655,3.026 -8.045,4.547c-0.795,0.357 -1.69,0.804 -3.482,1.704c-1.58,0.794 -1.64,0.849 -1.601,0.924c0.308,0.965 15.372,-0.206 25.615,0.239c2.312,0.11 1.322,0.053 6.963,0.216c15.475,0.453 23.336,0.67 29.228,0.141c9.766,-0.859 15.05,-2.596 16.931,-3.245c2.147,-0.759 4.161,-1.637 6.016,-2.62c-3.884,2.151 -7.376,4.527 -10.42,7.09c-2.687,2.273 -2.57,2.638 -6.783,6.287c-4.436,3.838 -6.652,5.759 -6.875,5.891c-0.442,0.256 -3.641,2.172 -4.376,4.331c-0.293,0.867 0.06,1.047 0.184,1.094c0.633,0.238 2.089,-0.472 2.464,-0.647c4.1,-1.927 14.827,-4.092 17.906,-4.714c7.193,-1.451 10.158,-1.192 15.884,-3.294c0.732,-0.271 1.446,-0.557 2.849,-1.159c7.791,-3.326 11.505,-6.165 11.505,-6.165c1.094,-0.838 2.081,-1.722 2.952,-2.643c0.624,-0.664 1.189,-1.345 1.693,-2.043c-0.11,1.299 -0.082,2.6 0.081,3.896c0.166,1.357 0.308,1.284 0.569,2.937c0.523,3.134 0.781,4.704 0.424,6.179c-0.127,0.51 -0.403,1.486 -0.024,1.59c0.116,0.03 0.304,-0.049 1.279,-0.649c0.626,-0.386 0.94,-0.58 1.163,-0.737c2.404,-1.673 3.662,-2.555 5.168,-3.918c1.162,-1.055 1.742,-1.582 2.085,-2.086c1.311,-1.94 0.944,-3.708 0.633,-5.193c-0.28,-1.333 -0.728,-1.91 -0.958,-2.186c-0.824,-0.941 -1.782,-1.298 -1.605,-1.461c0.187,-0.231 3.238,0.327 6.122,1.633Z" style="fill:#f52d2d;fill-rule:nonzero;"/><path d="M138.338,129.896c1.393,0.628 1.796,1.036 3.637,2.193c1.58,0.99 4.189,2.594 9.554,5.72c0.166,0.096 2.121,1.225 4.471,2.745c0.887,0.539 1.709,1.111 2.461,1.714c0.788,0.655 1.717,1.274 2.244,2.015c0.527,0.74 0.93,1.504 1.414,2.265c0.484,0.761 0.777,1.628 1.424,2.312c0.331,0.346 0.879,0.607 1.531,0.728c0.94,0.135 1.619,-0.416 2.4,-0.683c1.251,-0.429 2.424,-0.849 3.17,-1.606c0.448,-0.541 0.965,-1.061 1.545,-1.557c0.583,-0.431 1.241,-0.664 0.951,-1.26c-0.195,-0.397 -0.792,-0.685 -1.068,-1.069c-0.275,-0.383 -0.48,-0.583 -0.802,-1.022c-0.682,-0.857 -1.595,-1.645 -2.704,-2.337c-0.987,-0.654 -2.07,-1.258 -3.238,-1.804c-1.247,-0.622 -2.55,-1.206 -3.902,-1.751c-0.922,-0.377 -1.926,-0.794 -2.23,-0.879c-0.584,-0.169 -1.134,-0.374 -1.64,-0.612c-1.46,-0.635 -2.807,-1.331 -4.334,-1.915c-1.527,-0.583 -2.675,-1.41 -4.238,-1.883c-1.401,-0.433 -2.685,-0.981 -3.814,-1.627c-0.738,-0.426 -1.7,-0.765 -2.506,-1.157c-0.805,-0.392 -1.438,-0.863 -2.209,-1.275c-0.488,-0.257 -0.894,-0.561 -1.361,-0.847c-0.968,-0.596 -1.551,-0.708 -1.551,-1.018c0.016,-0.273 0.33,-0.512 0.781,-0.594c0.816,-0.092 1.598,0.547 2.421,0.99c1.76,0.906 4.047,0.928 7.048,0.95c2.602,0.026 5.18,-0.29 7.539,-0.924c1.166,-0.333 2.276,-0.728 3.316,-1.179c2.326,-0.964 2.149,-1.209 3.319,-1.651c0.233,-0.09 0.979,-0.358 0.887,-0.586c-0.138,-0.227 -1.428,-0.118 -2.478,-0.145c-0.857,-0.053 -1.7,-0.163 -2.513,-0.329c-2.541,-0.422 -3.814,-0.883 -5.903,-1.301c-2.465,-0.478 -5.048,-0.722 -7.648,-0.723c-1.351,-0.001 -2.7,0.065 -4.03,0.2c15.803,-4.279 21.936,-8.967 24.548,-12.54c1.378,-1.882 2.651,-4.632 6.585,-9.197c1.506,-1.747 2.608,-2.837 5.92,-6.684c4.341,-5.016 3.277,-4.095 4.047,-4.818c1.414,-1.326 3.03,-2.565 2.397,-3.016c-0.315,-0.227 -1.128,-0.165 -1.76,-0.082c-6.677,0.925 -21.865,7.498 -21.865,7.498c-6.833,2.957 -7.777,2.857 -15.599,6.373c-3.322,1.51 -6.132,2.859 -8.299,3.947c2.452,-1.793 4.601,-3.718 6.419,-5.747c1.818,-2.029 7.249,-8.059 7.486,-16.293c-0.091,-0.956 -0.001,-1.916 0.269,-2.861c0.219,-0.531 0.333,-1.074 0.339,-1.62c-0.014,-0.489 -0.119,-0.975 -0.314,-1.451c-0.414,-1.198 -0.05,-1.98 0.134,-3.392c0.23,-1.724 -0.039,-2.63 -0.134,-4.159c-0.439,-6.114 2.138,-15.091 0.47,-15.299c-0.135,-0.016 -0.244,0.031 -1.715,0.99c-1.777,1.177 -2.665,1.767 -3.177,2.141c-2.856,2.085 -4.56,2.334 -8.434,4.967c-0.597,0.406 -0.219,0.167 -4.365,3.303c-4.4,3.325 -3.948,2.925 -4.75,3.559c-2.775,2.261 -5.244,4.641 -7.384,7.12c-0.463,0.521 -1.502,1.684 -2.849,3.417c-2.891,3.71 -6.136,7.885 -7.73,13.009c-1.14,3.707 -1.324,7.492 -0.548,11.23c-0.679,-0.673 -1.693,-1.667 -2.934,-2.869c-4.4,-4.263 -6.542,-6.426 -8.243,-7.718c-3.527,-2.682 -7.277,-4.284 -14.17,-6.867c-13.346,-5.004 -20.006,-6.767 -30.966,-10.463c-17.511,-5.93 -24.11,-9.471 -25.912,-8.471c-0.746,0.431 -0.386,1.496 9.522,12.175c4.736,5.106 7.104,7.657 10.296,10.789c7.006,6.869 10.675,10.245 16.945,13.959c3.721,2.151 7.699,4.149 11.904,5.979c4.12,1.831 8.42,3.523 12.88,5.065c-4.058,-0.352 -8.158,-0.518 -12.261,-0.496c-4.032,0.049 -8.054,0.253 -12.039,0.608c-1.477,0.139 -1.124,0.135 -5.797,0.637c-0.973,0.095 -1.937,0.22 -2.887,0.373c-1.018,0.171 -2.018,0.376 -2.994,0.615c-3.203,0.779 -5.638,1.495 -5.638,1.495c-4.673,1.384 -7.833,2.315 -11.685,3.89c-1.057,0.431 -0.389,0.184 -5.808,2.537c-5.111,2.212 -4.729,2.008 -5.393,2.33c-4.291,2.069 -4.655,3.026 -8.045,4.547c-0.795,0.357 -1.69,0.804 -3.482,1.704c-1.58,0.794 -1.64,0.849 -1.601,0.924c0.308,0.965 15.372,-0.206 25.615,0.239c2.312,0.11 1.322,0.053 6.963,0.216c15.475,0.453 23.336,0.67 29.228,0.141c9.766,-0.859 15.05,-2.596 16.931,-3.245c2.147,-0.759 4.161,-1.637 6.016,-2.62c-3.884,2.151 -7.376,4.527 -10.42,7.09c-2.687,2.273 -2.57,2.638 -6.783,6.287c-4.436,3.838 -6.652,5.759 -6.875,5.891c-0.442,0.256 -3.641,2.172 -4.376,4.331c-0.293,0.867 0.06,1.047 0.184,1.094c0.633,0.238 2.089,-0.472 2.464,-0.647c4.1,-1.927 14.827,-4.092 17.906,-4.714c7.193,-1.451 10.158,-1.192 15.884,-3.294c0.732,-0.271 1.446,-0.557 2.849,-1.159c7.791,-3.326 11.505,-6.165 11.505,-6.165c1.094,-0.838 2.081,-1.722 2.952,-2.643c0.624,-0.664 1.189,-1.345 1.693,-2.043c-0.11,1.299 -0.082,2.6 0.081,3.896c0.166,1.357 0.308,1.284 0.569,2.937c0.523,3.134 0.781,4.704 0.424,6.179c-0.127,0.51 -0.403,1.486 -0.024,1.59c0.116,0.03 0.304,-0.049 1.279,-0.649c0.626,-0.386 0.94,-0.58 1.163,-0.737c2.404,-1.673 3.662,-2.555 5.168,-3.918c1.162,-1.055 1.742,-1.582 2.085,-2.086c1.311,-1.94 0.944,-3.708 0.633,-5.193c-0.28,-1.333 -0.728,-1.91 -0.958,-2.186c-0.824,-0.941 -1.782,-1.298 -1.605,-1.461c0.187,-0.231 3.238,0.327 6.122,1.633Z" style="fill:#525252;fill-opacity:0.56;fill-rule:nonzero;"/><path d="M138.321,127.044c1.393,0.629 1.796,1.037 3.637,2.194c1.58,0.99 4.189,2.594 9.554,5.72c0.166,0.096 2.121,1.225 4.472,2.745c0.886,0.539 1.708,1.111 2.46,1.714c0.788,0.655 1.717,1.274 2.244,2.014c0.527,0.741 0.93,1.504 1.414,2.266c0.484,0.761 0.778,1.628 1.424,2.312c0.331,0.346 0.836,2.932 1.488,3.053c0.94,0.135 1.662,-2.741 2.443,-3.008c1.251,-0.429 2.425,-0.849 3.17,-1.606c0.448,-0.541 0.915,0.327 1.496,-0.17c0.583,-0.43 1.423,0.947 1.133,0.351c-0.194,-0.398 -0.925,-3.683 -1.201,-4.067c-0.275,-0.384 -0.48,-0.584 -0.802,-1.022c-0.682,-0.857 -1.595,-1.645 -2.704,-2.337c-0.987,-0.654 -2.07,-1.258 -3.238,-1.804c-1.247,-0.622 -2.55,-1.206 -3.902,-1.751c-0.922,-0.377 -1.926,-0.794 -2.23,-0.879c-0.584,-0.169 -1.134,-0.374 -1.64,-0.613c-1.46,-0.634 -2.807,-1.33 -4.334,-1.914c-1.527,-0.583 -2.675,-1.41 -4.238,-1.883c-1.401,-0.433 -2.685,-0.981 -3.814,-1.627c-0.738,-0.426 -1.7,-0.765 -2.506,-1.157c-0.805,-0.392 -1.438,-0.863 -2.209,-1.275c-0.487,-0.257 -0.894,-0.561 -1.36,-0.847c-0.969,-0.596 -1.552,-0.708 -1.552,-1.018c0.016,-0.273 0.33,-0.512 0.781,-0.594c0.816,-0.092 1.598,0.547 2.421,0.989c1.76,0.906 4.047,0.929 7.048,0.951c2.602,0.026 5.18,-0.29 7.539,-0.924c1.166,-0.333 2.251,0.215 3.291,-0.236c2.326,-0.964 3.043,0.159 4.213,-0.284c0.233,-0.09 -4.16,-3.205 -4.973,-3.37c-2.541,-0.422 -3.814,-0.883 -5.903,-1.302c-2.465,-0.478 -5.048,-0.722 -7.648,-0.722c-1.351,-0.002 -2.699,0.065 -4.03,0.2c15.803,-4.279 21.936,-8.967 24.548,-12.54c1.378,-1.882 2.651,-4.633 6.585,-9.198c1.506,-1.746 2.608,-2.836 5.92,-6.683c4.341,-5.016 3.338,-2.991 4.109,-3.714c1.414,-1.326 3.104,-0.743 2.472,-1.194c-0.315,-0.227 -5.037,-1.525 -5.67,-1.441c-6.677,0.924 -18.092,5.931 -18.092,5.931c-6.833,2.957 -7.776,2.857 -15.599,6.373c-3.322,1.51 -6.132,2.859 -8.299,3.947c2.452,-1.794 4.601,-3.718 6.419,-5.747c1.818,-2.029 7.25,-8.059 7.486,-16.293c-0.091,-0.956 -0,-1.916 0.269,-2.861c0.219,-0.531 0.333,-1.075 0.339,-1.62c-0.014,-0.489 -0.119,-0.976 -0.314,-1.451c-0.414,-1.198 -0.05,-1.98 0.134,-3.392c0.23,-1.724 -0.039,-2.63 -0.134,-4.159c-0.439,-6.114 2.138,-15.091 0.47,-15.299c-0.134,-0.016 -0.244,0.031 -1.714,0.99c-1.778,1.177 -2.666,1.767 -3.178,2.14c-2.856,2.086 -4.56,2.335 -8.434,4.968c-0.597,0.406 -0.219,0.167 -4.365,3.303c-4.4,3.325 -3.948,2.925 -4.75,3.559c-2.775,2.261 -5.244,4.641 -7.384,7.12c-0.463,0.521 -1.502,1.684 -2.849,3.417c-2.891,3.71 -6.136,7.885 -7.73,13.009c-1.14,3.707 -1.324,7.492 -0.548,11.23c-0.679,-0.673 -1.693,-1.667 -2.934,-2.869c-4.4,-4.263 -6.542,-6.426 -8.242,-7.718c-3.528,-2.682 -7.278,-4.284 -14.171,-6.867c-13.346,-5.004 -20.005,-6.767 -30.966,-10.463c-11.355,-3.845 -18.107,-5.577 -21.942,-6.047c-2.08,-0.255 -3.26,-0.09 -3.894,0.262c-0.746,0.43 -0.462,-1.19 9.446,9.489c4.736,5.106 7.104,7.657 10.296,10.789c7.006,6.869 10.675,10.245 16.945,13.959c3.722,2.151 7.699,4.149 11.904,5.979c4.12,1.831 8.42,3.523 12.881,5.065c-4.058,-0.352 -8.159,-0.518 -12.262,-0.496c-4.032,0.049 -8.053,0.252 -12.039,0.608c-1.477,0.139 -1.124,0.135 -5.797,0.637c-0.973,0.095 -1.937,0.22 -2.887,0.373c-1.018,0.171 -2.018,0.376 -2.994,0.615c-3.202,0.779 -5.638,1.495 -5.638,1.495c-4.673,1.384 -7.832,2.315 -11.685,3.89c-1.057,0.431 -0.389,0.184 -5.808,2.537c-5.111,2.212 -4.729,2.008 -5.393,2.33c-4.291,2.069 -4.655,3.026 -8.045,4.547c-0.795,0.357 -1.075,1.431 -2.867,2.331c-1.58,0.794 -2.389,2.983 -2.35,3.059c0.308,0.965 15.506,-2.968 25.749,-2.523c2.312,0.11 1.322,0.053 6.964,0.216c15.474,0.453 23.335,0.67 29.227,0.141c9.766,-0.859 15.05,-2.596 16.931,-3.245c2.147,-0.759 4.161,-1.637 6.016,-2.62c-3.884,2.151 -7.376,4.527 -10.42,7.089c-2.687,2.274 -2.57,2.639 -6.783,6.288c-4.436,3.838 -6.652,5.759 -6.875,5.891c-0.442,0.255 -2.608,1.389 -3.343,3.548c-0.293,0.867 -1.178,4.352 -1.054,4.399c0.633,0.239 2.294,-2.994 2.669,-3.169c4.1,-1.927 14.827,-4.092 17.906,-4.714c7.193,-1.451 10.158,-1.192 15.884,-3.294c0.732,-0.271 1.446,-0.557 2.849,-1.159c7.791,-3.327 11.505,-6.165 11.505,-6.165c1.094,-0.838 2.081,-1.722 2.952,-2.643c0.624,-0.664 1.189,-1.345 1.693,-2.043c-0.109,1.299 -0.082,2.6 0.081,3.896c0.166,1.357 0.308,1.284 0.569,2.937c0.523,3.134 0.781,4.703 0.424,6.179c-0.127,0.51 -0.483,4.22 -0.105,4.324c0.117,0.031 0.784,-2.699 1.759,-3.299c0.626,-0.386 0.541,-0.664 0.764,-0.821c2.404,-1.673 3.662,-2.555 5.168,-3.918c1.163,-1.055 1.742,-1.582 2.085,-2.086c1.311,-1.94 0.944,-3.708 0.633,-5.193c-0.279,-1.333 -0.728,-1.91 -0.958,-2.186c-0.824,-0.941 -1.782,-1.298 -1.605,-1.461c0.188,-0.231 3.238,0.326 6.122,1.632Z" style="fill:#f52d2d;fill-rule:nonzero;"/><path d="M126.548,118.015l-34.074,-19.673c-9.211,-5.318 -18.027,-10.816 -27.457,-16.003c-12.466,-6.871 -24.109,-11.416 -36.133,-18.542c-0.301,-0.173 -1.447,0.074 -1.111,0.276c12.025,7.126 23.728,12.103 36.194,18.974c9.424,5.191 18.249,10.687 27.461,16.005l34.373,19.846c-9.776,-0.927 -19.655,-1.855 -29.527,-2.269c-10.12,-0.427 -20.31,0.424 -30.317,1.218c-10.735,0.817 -21.292,2.283 -31.497,4.373c-5.521,1.147 -13.028,2.053 -17.153,4.553c-0.668,0.386 -0.198,0.661 0.456,0.263l-0.011,0.006c2.478,-1.504 5.914,-1.891 9.152,-2.597c3.138,-0.682 6.245,-1.411 9.423,-2.033c10.349,-2.037 21.091,-3.287 31.924,-4.077c9.572,-0.698 19.154,-1.414 28.825,-0.908c9.734,0.52 19.456,1.404 29.104,2.313c-8.551,2.059 -16.754,4.702 -23.746,8.233c-10.671,5.373 -20.539,11.316 -30.51,17.109c-0.58,0.335 0.933,0.131 1.23,-0.041l-0.011,-0.006c9.657,-5.612 19.246,-11.336 29.493,-16.587c7.269,-3.724 15.77,-6.502 24.759,-8.594l0.075,0.007l0.01,0.006c0.005,0.003 0.01,0.006 0.015,0.008c0.848,3.818 1.567,7.71 1.339,11.565c-0.212,3.58 -1.995,6.153 -4.141,9.457c-0.367,0.563 0.002,0.908 0.175,0.636l-0.01,-0.006c1.986,-3.057 4.369,-6.256 4.955,-9.542c0.71,-3.954 -0.25,-8.186 -1.128,-12.135c6.283,0.037 12.443,0.615 18.709,0.85c5.164,0.194 8.516,1.581 13.52,0.846c0.407,-0.059 0.283,-0.522 -0.537,-0.403c-5.84,0.853 -9.14,-0.925 -15.135,-1.27c-5.547,-0.287 -10.992,-0.713 -16.559,-0.706c4.331,-6.963 11.276,-13.289 20.337,-18.523c10.3,-6.004 21.808,-10.354 31.726,-16.574c0.636,-0.4 0.497,-0.869 -0.164,-0.455l-1.339,0.166c-10.502,6.59 -21.743,11.233 -32.478,17.687c-8.042,4.848 -14.325,10.57 -18.487,16.827c-1.821,-4.08 -3.211,-8.221 -4.162,-12.398c-1.347,-6.018 -0.453,-12.249 1.516,-18.209c1.721,-5.149 2.983,-10.473 6.316,-15.365c4.832,-7.083 7.695,-14.258 16.426,-20.201c0.533,-0.365 -0.951,-0.092 -1.223,0.09c-8.434,5.742 -11.658,12.636 -16.093,19.552c-3.281,5.114 -4.716,10.314 -6.653,15.644c-2.265,6.23 -3.124,12.848 -1.679,19.168c0.911,3.851 2.187,7.67 3.822,11.439Z" style="fill:#4f4f4f;fill-opacity:0.51;fill-rule:nonzero;"/></svg>