<?xml version="1.0" encoding="UTF-8" standalone="no"?><!DOCTYPE svg PUBLIC "-//W3C//DTD SVG 1.1//EN" "http://www.w3.org/Graphics/SVG/1.1/DTD/svg11.dtd"><svg width="100%" height="100%" viewBox="0 0 200 200" version="1.1" xmlns="http://www.w3.org/2000/svg" xmlns:xlink="http://www.w3.org/1999/xlink" xml:space="preserve" xmlns:serif="http://www.serif.com/" style="fill-rule:evenodd;clip-rule:evenodd;stroke-linejoin:round;stroke-miterlimit:2;"><path d="M163.536,162.937c2.485,1.715 3.722,3.256 4.535,3.072c1.33,-0.286 -0.052,-4.85 -1.812,-8.141c-0.503,-0.949 -1.905,-3.261 -4.751,-7.877c-0.348,-0.561 -3.83,-6.108 -1.696,-8.095c0.361,-0.385 0.94,-0.686 1.64,-0.854c1.528,-0.313 2.668,0.46 3.352,0.259c1.191,-0.329 0.786,-3.368 -2.81,-8.791c-3.596,-5.422 -7.603,-9.045 -6.489,-9.525c0.746,-0.321 2.702,1.244 4.001,0.927c2.713,-0.665 0.518,-8.788 -5.172,-15.713c-2.453,-3 -5.568,-5.804 -9.267,-8.342l15.127,-3.548c-0,-0 3.535,-1.757 7.34,-1.97c3.385,-0.182 5.596,0.902 6.315,0.373c0.642,-0.473 -1.167,-1.357 -0.769,-2.043c1.174,-2.039 19.955,0.81 21.278,-0.964c0.723,-0.974 -5.18,-3.195 -15.664,-7.758c-16.157,-7.03 -18.876,-9.051 -18.135,-9.98c0.811,-1.047 5.287,-5.015 5.487,-5.634c0.329,-1.078 -14.025,1.101 -16.585,0.685c-6.339,-1.036 -10.329,-1.691 -16.198,-2.249c-12.356,-1.177 -20.951,-0.781 -21.173,-1.741c-0.169,-0.708 4.476,-1.388 4.294,-1.788c-0.239,-0.522 -8.472,-0.094 -17.673,1.399c-8.214,1.329 -10.102,2.351 -17.503,3.624c-5.783,0.987 -11.742,1.592 -17.762,1.802c-4.432,-4.163 -7.886,-7.251 -10.298,-9.367c-2.54,-2.222 -3.259,-2.789 -4.267,-4.052c-2.583,-3.228 -2.834,-5.746 -4.612,-5.836c-0.838,-0.05 -0.993,0.496 -2.776,1.286c-3.529,1.567 -6.345,0.989 -7.06,1.952c-0.227,0.304 -0.318,0.885 4.401,4.23c2.276,1.617 3.629,2.42 5.881,3.921c1.038,0.689 3.554,2.359 5.82,4.084c2.496,1.904 4.75,3.91 6.746,6.002c-2.099,3.345 -4.881,6.533 -8.289,9.497c-11.328,9.831 -27.903,15.553 -26.701,16.604c0.612,0.535 4.793,-1.087 6.405,-0.192c1.932,1.069 -2.391,4.297 -6.023,10.395c-2.885,4.831 -3.363,8.144 -4.171,13.742c-0.152,1.047 -0.668,4.892 0.696,5.084c1.149,0.161 2.376,-2.43 3.975,-2.363c2.116,0.083 3.129,4.847 4.56,11.021c2.826,12.15 3.853,14.979 5.179,15.009c0.841,0.019 0.478,-1.607 3.033,-3.456c2.903,-2.103 5.613,-1.64 8.4,-3.839c1.53,-1.207 1.034,-1.601 2.873,-3.081c1.344,-1.068 3,-1.993 4.894,-2.733c1.114,2.094 1.996,2.563 2.659,2.572c1.149,-0.013 1.358,-1.569 3.621,-3.801c1.616,-1.695 3.896,-3.149 6.657,-4.246c2.074,-0.778 4.401,-1.304 6.839,-1.546c3.643,3.377 7.964,6.494 12.872,9.286c6.475,3.673 15.674,7.721 17.806,6.694c1.171,-0.564 -0.483,-2.308 0.552,-2.661c1.377,-0.473 5.034,2.412 11.253,5.414c6.414,3.094 13.838,5.478 15.045,4.737c0.724,-0.446 -1.371,-1.663 -0.585,-2.228c1.461,-1.055 11.283,1.15 19.642,4.798c9.281,4.069 12.704,4.312 15.063,5.945Z" style="fill:#f8f862;fill-rule:nonzero;"/><path d="M163.536,162.937c2.485,1.715 3.722,3.256 4.535,3.072c1.33,-0.286 -0.052,-4.85 -1.812,-8.141c-0.503,-0.949 -1.905,-3.261 -4.751,-7.877c-0.348,-0.561 -3.83,-6.108 -1.696,-8.095c0.361,-0.385 0.94,-0.686 1.64,-0.854c1.528,-0.313 2.668,0.46 3.352,0.259c1.191,-0.329 0.786,-3.368 -2.81,-8.791c-3.596,-5.422 -7.603,-9.045 -6.489,-9.525c0.746,-0.321 2.702,1.244 4.001,0.927c2.713,-0.665 0.518,-8.788 -5.172,-15.713c-2.453,-3 -5.568,-5.804 -9.267,-8.342l15.127,-3.548c-0,-0 3.535,-1.757 7.34,-1.97c3.385,-0.182 5.596,0.902 6.315,0.373c0.642,-0.473 -1.167,-1.357 -0.769,-2.043c1.174,-2.039 19.955,0.81 21.278,-0.964c0.723,-0.974 -5.18,-3.195 -15.664,-7.758c-16.157,-7.03 -18.876,-9.051 -18.135,-9.98c0.811,-1.047 5.403,-5.103 5.603,-5.722c0.329,-1.077 -14.141,1.189 -16.701,0.773c-6.339,-1.036 -10.329,-1.691 -16.198,-2.249c-12.356,-1.177 -20.951,-0.781 -21.173,-1.741c-0.169,-0.708 4.476,-1.388 4.294,-1.788c-0.239,-0.522 -8.472,-0.094 -17.673,1.399c-8.214,1.329 -10.102,2.351 -17.503,3.624c-5.783,0.987 -11.742,1.592 -17.762,1.802c-4.432,-4.163 -7.886,-7.251 -10.298,-9.367c-2.54,-2.222 -3.259,-2.789 -4.267,-4.052c-2.583,-3.228 -2.834,-5.746 -4.612,-5.836c-0.838,-0.05 -0.993,0.496 -2.776,1.286c-3.529,1.567 -6.345,0.989 -7.06,1.952c-0.227,0.304 -0.318,0.885 4.401,4.23c2.276,1.617 3.629,2.42 5.881,3.921c1.038,0.689 3.554,2.359 5.82,4.084c2.496,1.904 4.75,3.91 6.746,6.002c-2.099,3.345 -4.881,6.533 -8.289,9.497c-11.328,9.831 -27.903,15.553 -26.701,16.604c0.612,0.535 4.793,-1.087 6.405,-0.192c1.932,1.069 -2.391,4.297 -6.023,10.395c-2.885,4.831 -3.363,8.144 -4.171,13.742c-0.152,1.047 -0.668,4.892 0.696,5.084c1.149,0.161 2.376,-2.43 3.975,-2.363c2.116,0.083 3.129,4.847 4.56,11.021c2.826,12.15 3.853,14.979 5.179,15.009c0.841,0.019 0.478,-1.607 3.033,-3.456c2.903,-2.103 5.613,-1.64 8.4,-3.839c1.53,-1.207 1.034,-1.601 2.873,-3.081c1.344,-1.068 3,-1.993 4.894,-2.733c1.114,2.094 1.996,2.563 2.659,2.572c1.149,-0.013 1.358,-1.569 3.621,-3.801c1.616,-1.695 3.896,-3.149 6.657,-4.246c2.074,-0.778 4.401,-1.304 6.839,-1.546c3.643,3.377 7.964,6.494 12.872,9.286c6.475,3.673 15.674,7.721 17.806,6.694c1.171,-0.564 -0.483,-2.308 0.552,-2.661c1.377,-0.473 5.034,2.412 11.253,5.414c6.414,3.094 13.838,5.478 15.045,4.737c0.724,-0.446 -1.371,-1.663 -0.585,-2.228c1.461,-1.055 11.283,1.15 19.642,4.798c9.281,4.069 12.704,4.312 15.063,5.945Z" style="fill:#777;fill-opacity:0.45;fill-rule:nonzero;"/><path d="M163.385,158.361c2.485,1.715 3.711,7.971 4.524,7.787c1.33,-0.286 -0.041,-9.565 -1.801,-12.856c-0.503,-0.949 -1.905,-3.261 -4.751,-7.877c-0.348,-0.561 -3.83,-6.108 -1.696,-8.095c0.361,-0.385 0.94,-0.686 1.639,-0.854c1.529,-0.313 3.264,4.542 3.948,4.34c1.191,-0.328 0.191,-7.449 -3.405,-12.872c-3.596,-5.422 -7.603,-9.045 -6.489,-9.525c0.746,-0.321 5.252,3.882 5.236,2.545c-0.046,-3.881 -0.717,-10.406 -6.407,-17.331c-2.453,-3 -5.568,-5.804 -9.267,-8.342l15.127,-3.548c-0,-0 3.535,-1.757 7.339,-1.97c3.386,-0.182 5.851,5.169 6.57,4.641c0.642,-0.474 -1.421,-5.625 -1.023,-6.311c1.174,-2.039 20.345,4.967 21.668,3.193c0.722,-0.973 -5.57,-7.352 -16.054,-11.915c-16.158,-7.03 -18.877,-9.051 -18.135,-9.98c0.811,-1.047 5.637,-0.427 5.838,-1.046c0.328,-1.078 -14.376,-3.487 -16.936,-3.903c-6.339,-1.036 -10.329,-1.691 -16.198,-2.249c-12.356,-1.177 -20.951,-0.781 -21.173,-1.741c-0.169,-0.708 4.475,-1.388 4.294,-1.788c-0.239,-0.522 -8.472,-0.094 -17.673,1.399c-8.214,1.329 -10.102,2.351 -17.503,3.624c-5.784,0.987 -11.743,1.592 -17.762,1.802c-4.432,-4.163 -7.886,-7.251 -10.298,-9.367c-2.54,-2.222 -3.259,-2.789 -4.267,-4.052c-2.584,-3.228 -2.834,-5.746 -4.613,-5.836c-0.837,-0.05 -0.992,0.496 -2.775,1.286c-3.53,1.567 -6.443,5.816 -7.158,6.779c-0.228,0.304 2.613,-1.526 7.332,1.819c2.276,1.617 0.796,0.004 3.048,1.505c1.038,0.689 3.554,2.359 5.82,4.084c2.496,1.904 4.75,3.91 6.745,6.002c-2.098,3.345 -4.88,6.533 -8.288,9.497c-11.328,9.831 -27.998,19.933 -26.795,20.985c0.611,0.535 6.198,-4.202 7.811,-3.307c1.931,1.069 -3.703,3.031 -7.335,9.129c-2.885,4.831 -3.363,8.144 -4.171,13.742c-0.152,1.047 -0.383,8.761 0.982,8.953c1.149,0.161 2.09,-6.299 3.688,-6.232c2.116,0.083 3.13,4.847 4.561,11.021c2.826,12.15 3.956,19.154 5.282,19.184c0.841,0.02 0.375,-5.782 2.93,-7.631c2.903,-2.103 5.612,-1.64 8.4,-3.839c1.53,-1.207 1.034,-1.601 2.872,-3.081c1.345,-1.068 3.001,-1.993 4.895,-2.733c1.114,2.094 2.456,6.874 3.119,6.883c1.149,-0.013 0.898,-5.88 3.161,-8.112c1.616,-1.695 3.896,-3.149 6.657,-4.246c2.074,-0.778 4.401,-1.304 6.839,-1.546c3.643,3.377 7.963,6.494 12.872,9.286c6.475,3.673 15.629,11.873 17.761,10.847c1.171,-0.564 -0.438,-6.461 0.597,-6.814c1.377,-0.473 5.034,2.412 11.253,5.414c6.414,3.094 14.12,10.297 15.326,9.557c0.725,-0.446 -1.652,-6.483 -0.866,-7.048c1.461,-1.055 11.283,1.15 19.642,4.798c9.281,4.069 12.704,4.312 15.063,5.945Z" style="fill:#f8f862;fill-rule:nonzero;"/><path d="M71.171,77.601c-0.296,0.327 -0.557,0.658 -0.829,0.934c-1.902,1.927 -3.748,3.874 -5.539,5.839c-7.674,8.422 -14.177,17.183 -19.447,26.2c-6.841,11.738 -11.455,23.87 -13.759,36.183c-0.071,0.396 2.212,-0.045 2.294,-0.471c3.786,-19.9 13.515,-39.272 28.755,-57.255c3,-3.554 6.195,-7.051 9.586,-10.489c9.379,8.327 18.773,16.645 28.181,24.957c13.806,12.194 27.645,24.377 41.515,36.549c7.79,6.815 15.581,13.631 23.373,20.448c0.353,0.308 2.312,-0.579 1.886,-0.951l-0.013,0.005c-13.885,-12.147 -27.746,-24.303 -41.583,-36.468c-13.837,-12.165 -27.625,-24.341 -41.362,-36.527c-3.537,-3.135 -7.073,-6.272 -10.606,-9.409l0.258,-0.256c33.736,-3.194 68.351,-1.192 100.33,5.808c6.45,1.419 8.326,2.579 14.493,4.371c0.67,0.195 2.853,1.665 2.277,1.496l-2.308,-3.083c-28.479,-8.288 -53.469,-11.186 -85.358,-10.898c-8.532,0.091 -17.044,0.506 -25.483,1.24c-1.447,0.127 -3.142,0.16 -4.521,0.442c-0.183,0.038 -0.354,0.087 -0.514,0.147c-3.888,-3.452 -7.773,-6.905 -11.656,-10.358c-0.347,-0.303 -2.311,0.574 -1.891,0.953c3.972,3.532 7.945,7.064 11.921,10.593Zm2.103,-0.765l0.113,0.101l0.258,-0.025l0.236,-0.022c0.143,-0.142 0.287,-0.284 0.431,-0.426l-1.038,0.372Z" style="fill:#555;fill-opacity:0.36;fill-rule:nonzero;"/></svg>