<?xml version="1.0" encoding="UTF-8" standalone="no"?><!DOCTYPE svg PUBLIC "-//W3C//DTD SVG 1.1//EN" "http://www.w3.org/Graphics/SVG/1.1/DTD/svg11.dtd"><svg width="100%" height="100%" viewBox="0 0 200 200" version="1.1" xmlns="http://www.w3.org/2000/svg" xmlns:xlink="http://www.w3.org/1999/xlink" xml:space="preserve" xmlns:serif="http://www.serif.com/" style="fill-rule:evenodd;clip-rule:evenodd;stroke-linejoin:round;stroke-miterlimit:2;"><path d="M65.222,88.242c-0.691,0.375 -2.126,0.065 -18.401,-5.217c-7.873,-2.556 -8.352,-2.788 -9.314,-3.248c-1.192,-0.568 -4.598,-2.273 -7.688,-3.221c-1.267,-0.41 -2.737,-0.564 -4.173,-0.435c-1.245,0.145 -0.874,0.292 -1.471,0.804c-0.794,0.679 -1.614,0.975 -2.744,1.459c-0.856,0.353 -3.008,1.062 -2.898,1.83c0.1,0.697 2.41,1.161 3.399,1.313c2.331,0.359 4.043,0.76 5.728,0.978c0,-0 0.691,0.088 5.5,0.711c0.87,0.112 1.575,0.22 2.253,0.345c4.788,0.878 12.981,3.085 13.586,3.255c10.263,2.909 14.034,2.83 14.075,3.9c0.053,1.328 -5.9,1.725 -12.133,3.942c-7.413,2.649 -11.596,6.593 -14.003,9.652c3.657,-1.41 6.666,-1.79 8.791,-1.843c1.963,-0.052 3.069,0.164 5.197,-0.021c2.439,-0.232 4.737,-0.818 6.677,-1.703c-6.33,3.969 -11.938,8.303 -16.736,12.932c-5.581,5.386 -10.03,11.136 -13.254,17.129c5.562,-1.537 12.48,-3.486 20.409,-5.805c11.689,-3.418 16.035,-4.848 19.798,-7.771c2.424,-1.907 4.184,-4.067 5.182,-6.361c-5.134,9.829 -3.59,16.984 -1.734,21.249c1.222,2.804 3.126,5.525 6.96,10.974c3.919,5.59 7.503,10.134 10.103,13.292c3.17,-3.624 6.022,-7.338 8.545,-11.127c3.066,-4.612 6.127,-9.212 7.309,-13.546c1.01,-3.704 1.914,-11.846 -8.272,-22.686c2.972,1.76 7.307,4.216 12.857,6.983c4.581,2.286 9.443,4.714 13.924,6.349c7.092,2.584 13.275,3.206 34.237,4.529c13.434,0.84 24.993,1.472 34.066,1.937c-8.643,-6.27 -16.484,-11.615 -23.004,-15.947c-9.42,-6.234 -14.029,-8.937 -21.398,-11.369c-6.487,-2.141 -12.67,-3.261 -16.27,-3.908c-6.883,-1.222 -13.982,-1.993 -21.163,-2.3c18.358,-1.145 29.36,-5.514 34.142,-7.738c7.222,-3.359 12.285,-7.414 16.062,-10.435c4.062,-3.254 7.642,-6.7 10.703,-10.301c-6.506,1.509 -13.297,2.573 -20.232,3.171c-12.861,1.105 -18.42,-0.104 -26.007,0.741c-7.587,0.844 -18.028,3.842 -28.704,13.748c3.62,-3.08 6.11,-6.555 7.316,-10.212c1.34,-4.156 0.549,-7.471 -0.926,-13.536c-0.877,-3.553 -2.086,-7.075 -3.622,-10.553c-0.676,1.538 -1.644,3.027 -2.888,4.442c-1.322,1.497 -2.648,2.45 -3.827,3.503c-2.393,2.136 -4.817,4.256 -7.273,6.36c-2.849,2.438 -6.777,7.351 -11.561,18.178c0.784,-1.435 1.372,-3.461 -0.227,-5.268c-0.921,-1.038 -1.974,-1.329 -3.068,-2.398c-1.095,-1.069 -2.096,-2.721 -1.483,-5.431c-3.363,2.111 -6.763,5.05 -7.04,8.634c-0.394,5.377 6.514,9.066 4.695,10.04Z" style="fill:#ce0404;fill-rule:nonzero;"/><path d="M65.222,88.242c-0.691,0.375 -2.126,0.065 -18.401,-5.217c-7.873,-2.556 -8.352,-2.788 -9.314,-3.248c-1.192,-0.568 -4.598,-2.273 -7.688,-3.221c-1.267,-0.41 -2.737,-0.564 -4.173,-0.435c-1.245,0.145 -0.874,0.292 -1.471,0.804c-0.794,0.679 -1.614,0.975 -2.744,1.459c-0.856,0.353 -3.008,1.062 -2.898,1.83c0.1,0.697 2.41,1.161 3.399,1.313c2.331,0.359 4.043,0.76 5.728,0.978c0,-0 0.691,0.088 5.5,0.711c0.87,0.112 1.575,0.22 2.253,0.345c4.788,0.878 12.981,3.085 13.586,3.255c10.263,2.909 14.034,2.83 14.075,3.9c0.053,1.328 -5.9,1.725 -12.133,3.942c-7.413,2.649 -11.596,6.593 -14.003,9.652c3.657,-1.41 6.666,-1.79 8.791,-1.843c1.963,-0.052 3.069,0.164 5.197,-0.021c2.439,-0.232 4.737,-0.818 6.677,-1.703c-6.33,3.969 -11.938,8.303 -16.736,12.932c-5.581,5.386 -10.03,11.136 -13.254,17.129c5.562,-1.537 12.48,-3.486 20.409,-5.805c11.689,-3.418 16.035,-4.848 19.798,-7.771c2.424,-1.907 4.184,-4.067 5.182,-6.361c-5.134,9.829 -3.59,16.984 -1.734,21.249c1.222,2.804 3.126,5.525 6.96,10.974c3.919,5.59 7.503,10.134 10.103,13.292c3.17,-3.624 6.022,-7.338 8.545,-11.127c3.066,-4.612 6.127,-9.212 7.309,-13.546c1.01,-3.704 1.914,-11.846 -8.272,-22.686c2.972,1.76 7.307,4.216 12.857,6.983c4.581,2.286 9.443,4.714 13.924,6.349c7.092,2.584 13.275,3.206 34.237,4.529c13.434,0.84 24.993,1.472 34.066,1.937c-8.643,-6.27 -16.484,-11.615 -23.004,-15.947c-9.42,-6.234 -14.029,-8.937 -21.398,-11.369c-6.487,-2.141 -12.67,-3.261 -16.27,-3.908c-6.883,-1.222 -13.982,-1.993 -21.163,-2.3c18.358,-1.145 29.36,-5.514 34.142,-7.738c7.222,-3.359 12.285,-7.414 16.062,-10.435c4.062,-3.254 7.642,-6.7 10.703,-10.301c-6.506,1.509 -13.297,2.573 -20.232,3.171c-12.861,1.105 -18.42,-0.104 -26.007,0.741c-7.587,0.844 -18.028,3.842 -28.704,13.748c3.62,-3.08 6.11,-6.555 7.316,-10.212c1.34,-4.156 0.549,-7.471 -0.926,-13.536c-0.877,-3.553 -2.086,-7.075 -3.622,-10.553c-0.676,1.538 -1.644,3.027 -2.888,4.442c-1.322,1.497 -2.648,2.45 -3.827,3.503c-2.393,2.136 -4.817,4.256 -7.273,6.36c-2.849,2.438 -6.777,7.351 -11.561,18.178c0.784,-1.435 1.372,-3.461 -0.227,-5.268c-0.921,-1.038 -1.974,-1.329 -3.068,-2.398c-1.095,-1.069 -2.096,-2.721 -1.483,-5.431c-3.363,2.111 -6.763,5.05 -7.04,8.634c-0.394,5.377 6.514,9.066 4.695,10.04Z" style="fill:#464646;fill-opacity:0.64;fill-rule:nonzero;"/><path d="M65.282,85.898c-0.69,0.375 -2.125,0.066 -18.401,-5.217c-7.873,-2.555 -8.351,-2.788 -9.313,-3.248c-1.193,-0.568 -4.599,-2.273 -7.688,-3.221c-1.268,-0.41 -2.737,-0.563 -4.173,-0.435c-1.245,0.145 -0.874,0.292 -1.472,0.804c-0.793,0.679 -1.613,0.975 -2.744,1.459c-0.856,0.353 -2.936,3.192 -2.827,3.96c0.1,0.697 2.339,-0.969 3.328,-0.817c2.331,0.359 4.044,0.76 5.729,0.978c-0,-0 0.69,0.088 5.499,0.711c0.871,0.113 1.575,0.221 2.254,0.345c4.788,0.878 12.98,3.086 13.586,3.255c10.263,2.909 14.034,2.83 14.074,3.9c0.053,1.328 -5.899,1.726 -12.133,3.943c-12.399,5.814 -13.249,7.795 -14.148,12.039c3.657,-1.41 6.812,-4.178 8.937,-4.231c1.962,-0.051 3.068,0.164 5.197,-0.021c2.439,-0.232 4.737,-0.818 6.677,-1.703c-6.33,3.969 -11.939,8.303 -16.737,12.933c-5.58,5.385 -10.035,13.34 -13.259,19.334c5.561,-1.538 12.486,-5.692 20.415,-8.011c11.689,-3.418 16.034,-4.848 19.797,-7.771c2.425,-1.907 4.185,-4.067 5.182,-6.361c-5.134,9.829 -3.589,16.985 -1.733,21.249c1.222,2.804 3.126,5.525 6.96,10.975c3.918,5.589 7.516,12.648 10.116,15.806c0.51,-0.584 6.415,-10.463 8.531,-13.642c3.066,-4.612 6.127,-9.212 7.31,-13.546c1.009,-3.704 1.913,-11.846 -8.272,-22.686c2.972,1.76 7.306,4.216 12.857,6.983c4.581,2.287 9.443,4.714 13.924,6.349c7.092,2.584 13.274,3.206 34.236,4.529c13.434,0.84 25.064,3.815 34.137,4.28c-8.643,-6.269 -16.554,-13.958 -23.074,-18.29c-9.421,-6.234 -14.029,-8.937 -21.398,-11.369c-6.487,-2.141 -12.67,-3.261 -16.271,-3.908c-6.882,-1.222 -13.981,-1.993 -21.162,-2.3c18.358,-1.145 29.359,-5.513 34.141,-7.738c7.223,-3.358 12.286,-7.414 16.063,-10.435c4.062,-3.254 7.674,-4.484 10.735,-8.085c-6.507,1.509 -13.329,0.357 -20.264,0.955c-12.861,1.105 -18.421,-0.103 -26.007,0.741c-7.587,0.844 -18.028,3.842 -28.705,13.748c3.621,-3.08 6.111,-6.555 7.317,-10.212c1.339,-4.156 0.549,-7.471 -0.927,-13.536c-0.877,-3.552 -2.085,-7.075 -3.621,-10.553c-0.676,1.538 -1.645,3.027 -2.889,4.442c-1.321,1.498 -2.647,2.45 -3.826,3.503c-2.393,2.136 -4.818,4.256 -7.274,6.36c-2.849,2.438 -6.777,7.351 -11.56,18.178c0.784,-1.434 1.371,-3.461 -0.227,-5.268c-0.921,-1.038 -1.974,-1.329 -3.069,-2.398c-1.094,-1.069 -2.095,-2.721 -1.482,-5.431c-3.364,2.111 -6.763,5.05 -7.04,8.635c-0.394,5.376 6.514,9.065 4.694,10.039Z" style="fill:#ce0404;fill-rule:nonzero;"/><path d="M75.858,90.433c-1.507,-3.379 -3.618,-6.659 -6.299,-9.787c-1.395,-1.595 -3.092,-3.115 -4.062,-4.819c-1.673,-2.921 -0.435,-5.876 2.328,-8.435c0.343,-0.316 0.199,-0.861 -0.341,-0.36l-0.025,0.011c-3.459,3.189 -4.86,6.81 -2.229,10.38c1.445,1.963 3.454,3.776 4.982,5.724c1.927,2.511 3.501,5.106 4.708,7.763c-16.932,1.687 -30.998,5.161 -37.016,11.559c-0.267,0.158 0.484,0.079 1.042,-0.232c5.533,-6.485 19.546,-8.892 35.971,-10.596c-0.761,1.133 -1.271,2.339 -2.002,3.477c-1.834,2.881 -4.166,5.648 -6.961,8.259c-4.076,3.781 -9.319,6.896 -14.722,10.04c-8.248,4.803 -13.098,8.997 -20.68,14.157c-0.569,0.388 -0.615,0.947 -0.024,0.547c7.123,-4.851 11.928,-9.079 19.677,-13.607c5.289,-3.096 10.671,-6.102 14.923,-9.715c2.258,-1.925 4.258,-3.947 5.981,-6.048c1.752,-2.131 3.063,-4.347 4.543,-6.524c13.078,19.672 13.359,41.191 12.277,62.014c-0.021,0.457 0.875,-0.2 0.888,-0.429c1.081,-20.741 0.828,-42.139 -11.992,-61.763l112.089,35.914c0.354,0.109 -0.806,-1.135 -1.209,-1.259l-110.344,-35.48c19.632,-3.389 39.49,-6.896 58.306,-11.592c13.386,-3.342 23.404,-5.745 33.034,-12.058c0.311,-0.212 -1.201,-0.073 -1.201,-0.073c-9.673,6.348 -18.638,8.208 -32.092,11.526c-18.965,4.675 -38.892,8.194 -58.622,11.599c0.558,-0.752 1.156,-1.494 1.818,-2.224c5.689,-6.27 10.235,-12.864 13.564,-19.676c3.337,-6.893 5.466,-13.962 6.355,-21.101c0.043,-0.325 -1.091,0.198 -1.12,0.432c-1.716,13.302 -7.582,26.364 -17.831,38.334c-1.168,1.365 -2.541,2.68 -3.714,4.042Zm-0.669,0.437l-0.269,0.04c0.067,0.147 0.133,0.295 0.198,0.443c0.039,-0.054 0.079,-0.109 0.12,-0.163l0.014,-0.022c0.006,-0.008 0.012,-0.017 0.018,-0.026l0.016,-0.02c0.027,-0.038 0.057,-0.076 0.09,-0.111c0.028,-0.036 0.057,-0.071 0.086,-0.107l0.068,-0.083l-0.341,0.049Z" style="fill:#676767;fill-opacity:0.51;fill-rule:nonzero;"/></svg>