<?xml version="1.0" encoding="UTF-8" standalone="no"?><!DOCTYPE svg PUBLIC "-//W3C//DTD SVG 1.1//EN" "http://www.w3.org/Graphics/SVG/1.1/DTD/svg11.dtd"><svg width="100%" height="100%" viewBox="0 0 200 200" version="1.1" xmlns="http://www.w3.org/2000/svg" xmlns:xlink="http://www.w3.org/1999/xlink" xml:space="preserve" xmlns:serif="http://www.serif.com/" style="fill-rule:evenodd;clip-rule:evenodd;stroke-linejoin:round;stroke-miterlimit:2;"><g><path d="M94.496,161.942c0.234,2.019 -0.284,3.526 0.481,3.642c1.236,0.2 4.439,-3.563 6.189,-6.511c0.508,-0.849 1.616,-2.972 3.795,-7.223c0.264,-0.518 2.837,-5.646 6.232,-6.443c0.619,-0.169 1.321,-0.212 1.987,-0.119c1.407,0.241 1.527,1.157 2.213,1.22c1.175,0.126 3.684,-2.221 6.059,-7.293c2.375,-5.072 2.789,-8.955 4.046,-8.963c0.842,-0.006 0.827,1.741 2.071,1.908c2.597,0.349 8.49,-6.267 10.72,-13.082c0.976,-2.949 1.286,-5.958 0.923,-8.952l14.338,2.058c0,0 4.208,-0.197 7.186,0.818c2.644,0.908 3.261,2.382 4.275,2.216c0.906,-0.148 0.399,-1.351 1.323,-1.731c2.741,-1.13 13.847,6.732 16.452,5.842c1.427,-0.49 -0.84,-3.931 -4.296,-10.493c-5.327,-10.113 -5.451,-12.428 -4.051,-12.879c1.559,-0.516 4.517,1.422 5.235,1.031c1.235,-0.687 -7.296,-6.973 -8.784,-8.065c-3.679,-2.708 -5.993,-4.414 -9.77,-6.628c-7.951,-4.663 -14.602,-7.018 -13.878,-7.788c0.529,-0.57 4.554,0.362 4.79,0.013c0.307,-0.455 -6.109,-2.675 -14.217,-4.414c-7.233,-1.556 -9.557,-1.389 -16.145,-2.735c-5.141,-1.057 -10.057,-2.448 -14.654,-4.147c0.601,-4.408 0.926,-7.729 1.114,-10.018c0.194,-2.407 0.192,-3.043 0.62,-4.277c1.089,-3.155 3.231,-5.074 2.013,-5.687c-0.566,-0.295 -1.184,0.057 -3.217,0.087c-4.027,0.059 -5.553,-1.229 -6.965,-0.745c-0.447,0.152 -1.049,0.549 -0.686,4.447c0.173,1.884 0.421,2.887 0.683,4.677c0.123,0.824 0.421,2.82 0.487,4.778c0.067,2.161 -0.136,4.321 -0.607,6.465c-4.622,1.801 -9.6,3.276 -14.828,4.395c-17.359,3.706 -34.762,2.79 -34.854,3.929c-0.046,0.58 4.509,0.679 4.862,1.83c0.426,1.377 -5.715,2.407 -13.999,5.749c-6.57,2.646 -9.978,4.922 -15.735,8.768c-1.078,0.719 -5.004,3.372 -4.184,3.932c0.692,0.471 3.981,-1.046 5.088,-0.506c1.47,0.713 -2.185,4.508 -6.838,9.464c-9.147,9.756 -11.007,12.14 -10.065,12.57c0.597,0.273 1.833,-1.028 5.408,-1.594c4.064,-0.645 5.619,0.527 9.687,-0.223c2.233,-0.412 2.234,-0.853 4.944,-1.37c1.969,-0.367 4.034,-0.534 6.103,-0.492c-1.118,1.873 -0.906,2.488 -0.43,2.699c0.852,0.343 2.442,-0.731 6.158,-1.667c2.746,-0.742 5.755,-1.104 8.787,-1.057c2.235,0.07 4.423,0.401 6.429,0.974c-0.453,3.59 -0.17,7.199 0.843,10.752c1.345,4.678 4.336,10.469 6.843,10.374c1.378,-0.052 1.777,-1.836 2.86,-1.777c1.444,0.078 1.455,3.313 3.233,7.422c1.835,4.236 5.065,8.264 6.63,8.094c0.942,-0.103 0.533,-1.638 1.63,-1.81c2.042,-0.322 7.191,4.313 9.936,9.553c3.032,5.831 5.312,7.061 5.53,8.982Z" style="fill:#e8e805;fill-rule:nonzero;"/><path d="M94.496,161.942c0.234,2.019 -0.284,3.526 0.481,3.642c1.236,0.2 4.439,-3.563 6.189,-6.511c0.508,-0.849 1.616,-2.972 3.795,-7.223c0.264,-0.518 2.837,-5.646 6.232,-6.443c0.619,-0.169 1.321,-0.212 1.987,-0.119c1.407,0.241 1.527,1.157 2.213,1.22c1.175,0.126 3.684,-2.221 6.059,-7.293c2.375,-5.072 2.789,-8.955 4.046,-8.963c0.842,-0.006 0.827,1.741 2.071,1.908c2.597,0.349 8.49,-6.267 10.72,-13.082c0.976,-2.949 1.286,-5.958 0.923,-8.952l14.338,2.058c0,0 4.208,-0.197 7.186,0.818c2.644,0.908 3.261,2.382 4.275,2.216c0.906,-0.148 0.399,-1.351 1.323,-1.731c2.741,-1.13 13.847,6.732 16.452,5.842c1.427,-0.49 -0.84,-3.931 -4.296,-10.493c-5.327,-10.113 -5.451,-12.428 -4.051,-12.879c1.559,-0.516 4.517,1.422 5.235,1.031c1.235,-0.687 -7.296,-6.973 -8.784,-8.065c-3.679,-2.708 -5.993,-4.414 -9.77,-6.628c-7.951,-4.663 -14.602,-7.018 -13.878,-7.788c0.529,-0.57 4.554,0.362 4.79,0.013c0.307,-0.455 -6.109,-2.675 -14.217,-4.414c-7.233,-1.556 -9.557,-1.389 -16.145,-2.735c-5.141,-1.057 -10.057,-2.448 -14.654,-4.147c0.601,-4.408 0.926,-7.729 1.114,-10.018c0.194,-2.407 0.192,-3.043 0.62,-4.277c1.089,-3.155 3.231,-5.074 2.013,-5.687c-0.566,-0.295 -1.184,0.057 -3.217,0.087c-4.027,0.059 -5.553,-1.229 -6.965,-0.745c-0.447,0.152 -1.049,0.549 -0.686,4.447c0.173,1.884 0.421,2.887 0.683,4.677c0.123,0.824 0.421,2.82 0.487,4.778c0.067,2.161 -0.136,4.321 -0.607,6.465c-4.622,1.801 -9.6,3.276 -14.828,4.395c-17.359,3.706 -34.762,2.79 -34.854,3.929c-0.046,0.58 4.509,0.679 4.862,1.83c0.426,1.377 -5.715,2.407 -13.999,5.749c-6.57,2.646 -9.978,4.922 -15.735,8.768c-1.078,0.719 -5.004,3.372 -4.184,3.932c0.692,0.471 3.981,-1.046 5.088,-0.506c1.47,0.713 -2.185,4.508 -6.838,9.464c-9.147,9.756 -11.007,12.14 -10.065,12.57c0.597,0.273 1.833,-1.028 5.408,-1.594c4.064,-0.645 5.619,0.527 9.687,-0.223c2.233,-0.412 2.234,-0.853 4.944,-1.37c1.969,-0.367 4.034,-0.534 6.103,-0.492c-1.118,1.873 -0.906,2.488 -0.43,2.699c0.852,0.343 2.442,-0.731 6.158,-1.667c2.746,-0.742 5.755,-1.104 8.787,-1.057c2.235,0.07 4.423,0.401 6.429,0.974c-0.453,3.59 -0.17,7.199 0.843,10.752c1.345,4.678 4.336,10.469 6.843,10.374c1.378,-0.052 1.777,-1.836 2.86,-1.777c1.444,0.078 1.455,3.313 3.233,7.422c1.835,4.236 5.065,8.264 6.63,8.094c0.942,-0.103 0.533,-1.638 1.63,-1.81c2.042,-0.322 7.191,4.313 9.936,9.553c3.032,5.831 5.312,7.061 5.53,8.982Z" style="fill:#828282;fill-opacity:0.4;fill-rule:nonzero;"/><path d="M94.74,159.193c0.234,2.018 -0.572,5.916 0.192,6.031c1.236,0.201 4.728,-5.953 6.478,-8.901c0.508,-0.849 1.617,-2.971 3.796,-7.222c0.264,-0.518 2.837,-5.647 6.232,-6.443c0.619,-0.17 1.32,-0.212 1.987,-0.12c1.407,0.241 1.52,3.856 2.206,3.919c1.175,0.126 3.69,-4.919 6.065,-9.992c2.376,-5.072 2.789,-8.955 4.047,-8.963c0.841,-0.005 0.822,3.886 2.065,4.053c2.598,0.349 8.496,-8.412 10.726,-15.227c0.975,-2.949 1.285,-5.958 0.922,-8.952l14.338,2.059c0,-0 4.208,-0.197 7.187,0.818c2.644,0.908 3.014,4.001 4.028,3.836c0.906,-0.149 0.645,-2.972 1.57,-3.352c2.74,-1.129 13.687,9.117 16.292,8.227c0.677,-0.232 0.559,-1.664 -0.121,-3.805c-0.753,-2.374 -2.198,-5.622 -4.016,-9.073c-5.327,-10.113 -5.45,-12.427 -4.051,-12.878c1.56,-0.517 4.533,3.797 5.251,3.406c1.235,-0.688 -7.311,-9.348 -8.8,-10.44c-3.679,-2.709 -5.993,-4.415 -9.77,-6.629c-7.95,-4.662 -14.602,-7.017 -13.878,-7.788c0.53,-0.569 4.554,0.362 4.79,0.014c0.308,-0.455 -6.108,-2.676 -14.216,-4.414c-7.234,-1.556 -9.558,-1.39 -16.146,-2.735c-5.141,-1.058 -10.057,-2.449 -14.654,-4.147c0.601,-4.408 0.926,-7.73 1.115,-10.019c0.193,-2.406 0.191,-3.043 0.619,-4.276c1.09,-3.156 3.301,-1.864 2.084,-2.477c-0.567,-0.294 -1.255,-3.153 -3.287,-3.124c-4.028,0.06 -4.808,-1.167 -6.22,-0.683c-0.448,0.152 -1.795,0.488 -1.431,4.386c0.172,1.883 0.42,2.886 0.683,4.677c0.122,0.824 0.421,2.819 0.486,4.777c0.067,2.161 -0.135,4.322 -0.607,6.465c-4.622,1.801 -9.599,3.277 -14.828,4.396c-18.504,1.098 -36.051,2.632 -34.947,6.493c0.163,0.572 3.71,-0.67 4.893,-0.22c1.346,0.512 -5.652,1.892 -13.937,5.235c-6.57,2.646 -9.977,4.922 -15.735,8.767c-1.078,0.719 -5.319,6.213 -4.499,6.774c0.693,0.47 4.296,-3.888 5.403,-3.347c1.471,0.712 -2.185,4.508 -6.837,9.463c-5.209,5.556 -8.206,9.651 -9.646,12.226c-1.089,1.947 -1.288,3.026 -0.883,3.211c0.597,0.273 2.296,-3.895 5.871,-4.461c4.065,-0.644 5.619,0.528 9.687,-0.223c2.233,-0.412 2.235,-0.853 4.945,-1.369c1.969,-0.368 4.034,-0.535 6.102,-0.493c-1.118,1.874 -1.489,5.43 -1.013,5.641c0.852,0.344 3.025,-3.672 6.741,-4.608c2.747,-0.743 5.756,-1.105 8.787,-1.057c2.235,0.069 4.423,0.4 6.429,0.973c-0.453,3.591 -0.17,7.2 0.843,10.752c1.345,4.678 4.208,12.998 6.715,12.904c1.377,-0.053 1.906,-4.366 2.989,-4.306c1.444,0.077 1.455,3.313 3.232,7.422c1.835,4.236 4.934,10.515 6.499,10.345c0.942,-0.103 0.665,-3.89 1.761,-4.061c2.042,-0.323 7.191,4.312 9.937,9.552c3.031,5.831 5.311,7.062 5.529,8.983Z" style="fill:#e8e805;fill-rule:nonzero;"/><path d="M101.841,71.756c-0.518,0.148 -1.015,0.31 -1.468,0.428c-3.17,0.825 -6.317,1.68 -9.44,2.566c-13.387,3.799 -26.229,8.206 -38.407,13.179c-12.784,5.23 -24.765,11.249 -35.773,17.739c-2.63,1.55 -3.04,2.772 -5.556,4.372c-0.418,0.268 -0.471,0.766 -0.018,0.479c21.137,-13.389 46.133,-24.563 73.877,-33.026c5.475,-1.677 11.039,-3.251 16.691,-4.722c-0.825,8.976 -1.633,17.949 -2.424,26.923c-1.158,13.166 -2.282,26.334 -3.373,39.504c-0.593,7.381 -1.186,14.763 -1.779,22.145c-0.027,0.335 2.225,0.289 2.257,-0.115l-0.014,-0c1.057,-13.156 2.14,-26.311 3.248,-39.465c1.109,-13.155 2.263,-26.301 3.464,-39.44c0.307,-3.382 0.617,-6.763 0.928,-10.145l0.173,-0.044l0.252,-0.064l-0.193,-0.056l-0.211,-0.062l0.01,-0.108l1.102,0.047c-0.235,0.06 -0.471,0.119 -0.708,0.179c27.622,8.044 51.09,20.158 68.017,35.116c3.407,3.023 6.545,6.144 9.402,9.352c0.31,0.348 1.497,0.61 1.231,0.309l-0.522,-1.317c-13.179,-14.824 -30.885,-26.49 -54.472,-36.091c-6.324,-2.558 -12.933,-4.874 -19.782,-6.933c-1.175,-0.352 -2.446,-0.849 -3.714,-1.068c-0.169,-0.029 -0.34,-0.045 -0.512,-0.05c0.343,-3.721 0.688,-7.442 1.036,-11.162c0.026,-0.329 -2.22,-0.291 -2.262,0.115c-0.357,3.806 -0.71,7.611 -1.06,11.415Z" style="fill:#757575;fill-opacity:0.47;fill-rule:nonzero;"/></g></svg>