<?xml version="1.0" encoding="UTF-8" standalone="no"?><!DOCTYPE svg PUBLIC "-//W3C//DTD SVG 1.1//EN" "http://www.w3.org/Graphics/SVG/1.1/DTD/svg11.dtd"><svg width="100%" height="100%" viewBox="0 0 200 200" version="1.1" xmlns="http://www.w3.org/2000/svg" xmlns:xlink="http://www.w3.org/1999/xlink" xml:space="preserve" xmlns:serif="http://www.serif.com/" style="fill-rule:evenodd;clip-rule:evenodd;stroke-linejoin:round;stroke-miterlimit:2;"><path d="M109.48,63.826c0.1,-1.532 0.434,-3.503 0.37,-5.679c-0.007,-0.312 0.056,-0.873 0.106,-1.632c0.06,-0.936 0.65,-1.682 0.93,-2.576c0.27,-0.822 0.366,-1.713 0.917,-2.448c0.688,-0.923 1.708,-1.969 2.043,-2.962c0.248,-0.728 -1.106,-1.295 -2.128,-1.648c-0.465,-0.138 -0.965,-0.232 -1.481,-0.279c-0.803,-0.136 -1.479,-0.476 -2.259,-0.624c-1.016,-0.194 -2.343,-0.088 -3.418,-0.118c-0.578,-0.013 -1.503,-0.179 -1.893,0.153c-0.206,0.176 -0.12,0.766 -0.117,0.959c0.05,0.952 0.263,1.899 0.634,2.826c0.228,0.731 0.292,1.476 0.191,2.216l-0.7,10.783c-0.349,2.283 -0.879,5.199 -1.787,8.594c-5.269,-1.866 -10.77,-3.505 -16.458,-4.903c-5.72,-1.41 -11.613,-2.573 -17.632,-3.481l-4.082,1.696c-3.981,-0.985 -8.234,-1.554 -12.559,-1.682c-1.571,-0.043 -3.145,-0.026 -4.712,0.051l-1.782,1.524c-7.568,-0.387 -15.178,0.42 -22.014,2.335l8.402,7.112c-0.499,0.233 -1.044,0.431 -1.624,0.59c-0.986,0.269 -1.28,0.206 -1.44,0.334c-0.724,0.578 3.136,3.461 8.673,5.524c2.16,0.807 4.464,1.476 6.873,1.996c-0.535,0.292 -1.125,0.549 -1.76,0.764c-1.915,0.656 -3.099,0.558 -3.191,0.816c-0.197,0.53 4.909,1.902 12.015,2.891c3.571,0.495 7.183,0.886 10.823,1.171c-12.779,-0.35 -25.503,1.188 -36.965,4.467l1.983,2.38c-6.148,3.358 -11.084,7.387 -14.521,11.852l2.847,1.23c-3.071,3.336 -5.307,6.906 -6.642,10.604c-0.658,1.847 -1.086,3.72 -1.278,5.602c6.766,0.261 13.55,-0.339 19.872,-1.756l1.659,1.442c2.454,-0.372 5.054,-0.828 7.77,-1.394c3.967,-0.815 7.837,-1.78 11.584,-2.889c1.059,0.587 2.399,0.978 3.845,1.121c2.578,0.221 4.487,-0.584 7.041,-1.494c5.135,-1.829 17.885,-6.083 19.298,-6.921c0.861,-0.51 -9.574,4.925 -9.213,10.941c0.093,1.565 0.852,1.959 1.28,4.459c0.452,2.705 0.123,5.434 -0.974,8.077c1.068,0.256 2.246,0.322 3.38,0.189c0.664,-0.08 1.298,-0.23 1.869,-0.441c5.291,12.925 8.058,15.734 9.618,15.627c1.821,-0.123 1.574,-4.237 3.926,-4.529c3.164,-0.391 8.528,6.161 14.049,14.56c5.703,-8.156 10.866,-14.074 13.725,-13.674c2.011,0.281 1.775,3.578 3.39,3.71c1.615,0.132 4.354,-2.805 9.589,-14.318c1.51,0.401 3.261,0.372 4.729,-0.078c-0.551,-2.418 -0.392,-4.873 0.472,-7.261c0.524,-1.349 1.242,-2.671 2.146,-3.952c1.486,-2.468 1.362,-6.641 -6.674,-13.892c5.078,3.647 9.662,6.714 13.474,9.184c2.596,1.684 5.624,3.558 9.243,3.324c1.419,-0.11 2.744,-0.475 3.785,-1.042c8.347,2.808 14.648,4.938 18.207,6.215c0.83,0.296 2.834,1.024 3.868,0.602c0.784,-0.317 0.692,-1.15 0.567,-1.65l15.55,2.212c-0.28,-1.927 -0.967,-3.828 -2.046,-5.659c-2.076,-3.438 -4.87,-5.417 -3.409,-7.072c0.672,-0.665 1.745,-1.165 3.013,-1.404c-0.501,-1.36 -1.144,-2.802 -1.961,-4.304c-1.82,-3.349 -4.273,-6.573 -7.313,-9.612c0.434,-0.694 0.864,-1.388 1.298,-2.078c-2.957,-2.992 -7.168,-5.509 -12.247,-7.317c-8.04,-2.858 -17.41,-2.564 -17.342,-3.032c0.056,-0.364 5.601,0.09 12.752,-1.204c5.29,-0.96 9.861,-2.599 9.532,-3.362c-0.113,-0.258 -0.686,-0.265 -2.034,-0.834c-0.937,-0.395 -1.777,-0.861 -2.497,-1.385c8.361,-1.447 15.469,-4.67 19.884,-9.018c-6.739,-2.818 -14.517,-4.698 -22.724,-5.491c0.01,-0.204 0.103,-0.403 0.271,-0.582c0.696,-0.722 2.489,-0.755 2.48,-0.855c-0.055,-0.407 -11.367,0.044 -11.367,0.044c-3.864,0.154 -8.866,0.361 -14.744,0.618c0.29,-0.469 0.602,-0.94 0.866,-1.412c-12.274,-1.1 -24.8,0.835 -34.483,5.327c-1.278,-3.818 -1.459,-6.446 -1.368,-8.178Z" style="fill:#d30f0f;fill-rule:nonzero;"/><path d="M109.48,63.826c0.1,-1.532 0.434,-3.503 0.37,-5.679c-0.007,-0.312 0.056,-0.873 0.106,-1.632c0.06,-0.936 0.65,-1.682 0.93,-2.576c0.27,-0.822 0.366,-1.713 0.917,-2.448c0.688,-0.923 1.708,-1.969 2.043,-2.962c0.248,-0.728 -1.106,-1.295 -2.128,-1.648c-0.465,-0.138 -0.965,-0.232 -1.481,-0.279c-0.803,-0.136 -1.479,-0.476 -2.259,-0.624c-1.016,-0.194 -2.343,-0.088 -3.418,-0.118c-0.578,-0.013 -1.503,-0.179 -1.893,0.153c-0.206,0.176 -0.12,0.766 -0.117,0.959c0.05,0.952 0.263,1.899 0.634,2.826c0.228,0.731 0.292,1.476 0.191,2.216l-0.7,10.783c-0.349,2.283 -0.879,5.199 -1.787,8.594c-5.269,-1.866 -10.77,-3.505 -16.458,-4.903c-5.72,-1.41 -11.613,-2.573 -17.632,-3.481l-4.082,1.696c-3.981,-0.985 -8.234,-1.554 -12.559,-1.682c-1.571,-0.043 -3.145,-0.026 -4.712,0.051l-1.782,1.524c-7.568,-0.387 -15.178,0.42 -22.014,2.335l8.402,7.112c-0.499,0.233 -1.044,0.431 -1.624,0.59c-0.986,0.269 -1.28,0.206 -1.44,0.334c-0.724,0.578 3.136,3.461 8.673,5.524c2.16,0.807 4.464,1.476 6.873,1.996c-0.535,0.292 -1.125,0.549 -1.76,0.764c-1.915,0.656 -3.099,0.558 -3.191,0.816c-0.197,0.53 4.909,1.902 12.015,2.891c3.571,0.495 7.183,0.886 10.823,1.171c-12.779,-0.35 -25.503,1.188 -36.965,4.467l1.983,2.38c-6.148,3.358 -11.084,7.387 -14.521,11.852l2.847,1.23c-3.071,3.336 -5.307,6.906 -6.642,10.604c-0.658,1.847 -1.086,3.72 -1.278,5.602c6.766,0.261 13.55,-0.339 19.872,-1.756l1.659,1.442c2.454,-0.372 5.054,-0.828 7.77,-1.394c3.967,-0.815 7.837,-1.78 11.584,-2.889c1.059,0.587 2.399,0.978 3.845,1.121c2.578,0.221 4.487,-0.584 7.041,-1.494c5.135,-1.829 17.885,-6.083 19.298,-6.921c0.861,-0.51 -9.574,4.925 -9.213,10.941c0.093,1.565 0.852,1.959 1.28,4.459c0.452,2.705 0.123,5.434 -0.974,8.077c1.068,0.256 2.246,0.322 3.38,0.189c0.664,-0.08 1.298,-0.23 1.869,-0.441c5.291,12.925 8.058,15.734 9.618,15.627c1.821,-0.123 1.574,-4.237 3.926,-4.529c3.164,-0.391 8.528,6.161 14.049,14.56c5.703,-8.156 10.866,-14.074 13.725,-13.674c2.011,0.281 1.775,3.578 3.39,3.71c1.615,0.132 4.354,-2.805 9.589,-14.318c1.51,0.401 3.261,0.372 4.729,-0.078c-0.551,-2.418 -0.392,-4.873 0.472,-7.261c0.524,-1.349 1.242,-2.671 2.146,-3.952c1.486,-2.468 1.362,-6.641 -6.674,-13.892c5.078,3.647 9.662,6.714 13.474,9.184c2.596,1.684 5.624,3.558 9.243,3.324c1.419,-0.11 2.744,-0.475 3.785,-1.042c8.347,2.808 14.648,4.938 18.207,6.215c0.83,0.296 2.834,1.024 3.868,0.602c0.784,-0.317 0.692,-1.15 0.567,-1.65l15.55,2.212c-0.28,-1.927 -0.967,-3.828 -2.046,-5.659c-2.076,-3.438 -4.87,-5.417 -3.409,-7.072c0.672,-0.665 1.745,-1.165 3.013,-1.404c-0.501,-1.36 -1.144,-2.802 -1.961,-4.304c-1.82,-3.349 -4.273,-6.573 -7.313,-9.612c0.434,-0.694 0.864,-1.388 1.298,-2.078c-2.957,-2.992 -7.168,-5.509 -12.247,-7.317c-8.04,-2.858 -17.41,-2.564 -17.342,-3.032c0.056,-0.364 5.601,0.09 12.752,-1.204c5.29,-0.96 9.861,-2.599 9.532,-3.362c-0.113,-0.258 -0.686,-0.265 -2.034,-0.834c-0.937,-0.395 -1.777,-0.861 -2.497,-1.385c8.361,-1.447 15.469,-4.67 19.884,-9.018c-6.739,-2.818 -14.517,-4.698 -22.724,-5.491c0.01,-0.204 0.103,-0.403 0.271,-0.582c0.696,-0.722 2.489,-0.755 2.48,-0.855c-0.055,-0.407 -11.367,0.044 -11.367,0.044c-3.864,0.154 -8.866,0.361 -14.744,0.618c0.29,-0.469 0.602,-0.94 0.866,-1.412c-12.274,-1.1 -24.8,0.835 -34.483,5.327c-1.278,-3.818 -1.459,-6.446 -1.368,-8.178Z" style="fill:#5b5b5b;fill-opacity:0.51;fill-rule:nonzero;"/><path d="M109.488,60.334c0.1,-1.532 0.434,-3.503 0.369,-5.679c-0.006,-0.312 0.057,-0.873 0.106,-1.631c0.061,-0.936 0.651,-1.683 0.931,-2.576c0.27,-0.823 0.366,-1.714 0.917,-2.449c0.687,-0.922 1.691,1.152 2.026,0.159c0.247,-0.729 -1.089,-4.416 -2.111,-4.769c-0.465,-0.138 -0.965,-0.232 -1.481,-0.279c-0.803,-0.136 -1.479,-0.476 -2.259,-0.624c-1.016,-0.194 -2.343,-0.088 -3.418,-0.118c-0.578,-0.012 -2.019,3.311 -2.015,3.504c0.05,0.952 0.267,-0.493 0.639,0.434c0.228,0.731 0.292,1.476 0.191,2.217l-0.701,10.782c-0.348,2.283 -0.879,5.199 -1.787,8.594c-5.269,-1.866 -10.769,-3.504 -16.457,-4.902c-5.72,-1.41 -11.614,-2.574 -17.632,-3.482l-4.082,1.696c-3.982,-0.984 -8.234,-1.553 -12.559,-1.681c-1.571,-0.044 -3.145,-0.027 -4.712,0.051l-1.782,1.523c-7.568,-0.386 -15.059,4.006 -21.895,5.921l10.129,5.311c-0.499,0.233 -2.163,0.105 -2.743,0.264c-0.986,0.269 -2.105,2.32 -2.265,2.448c-0.725,0.578 3.234,-0.112 8.771,1.952c2.16,0.806 4.464,1.475 6.873,1.995c-0.535,0.293 -1.125,0.549 -1.76,0.765c-1.915,0.655 -3.117,4.168 -3.21,4.426c-0.196,0.53 4.928,-1.708 12.034,-0.72c3.571,0.495 7.183,0.886 10.822,1.172c-12.778,-0.35 -25.502,1.187 -36.964,4.466l1.983,2.38c-6.148,3.359 -11.211,10.764 -14.649,15.229l7.859,-3.861c-3.071,3.335 -10.191,8.62 -11.526,12.318c-0.343,0.964 -0.658,2.927 -0.908,4.852c-0.229,1.766 -0.404,3.501 -0.496,4.402c6.767,0.26 13.676,-3.99 19.997,-5.408l1.707,4.779c2.454,-0.372 5.007,-4.165 7.723,-4.731c3.967,-0.815 7.837,-1.78 11.584,-2.889c1.059,0.588 1.949,4.808 3.396,4.951c2.578,0.221 4.936,-4.414 7.49,-5.324c5.135,-1.829 17.885,-6.083 19.298,-6.921c0.861,-0.509 -9.171,6.114 -8.81,12.13c0.093,1.564 0.449,0.77 0.877,3.27c0.452,2.705 0.203,8.644 -0.895,11.287c1.069,0.256 2.167,-2.888 3.301,-3.021c0.664,-0.08 1.298,-0.229 1.869,-0.441c5.291,12.925 8.05,19.065 9.611,18.958c1.82,-0.123 1.581,-7.567 3.932,-7.86c3.165,-0.391 8.627,9.205 14.148,17.604c5.703,-8.156 10.768,-17.117 13.627,-16.718c2.011,0.281 1.709,6.774 3.324,6.906c1.614,0.131 4.42,-6.001 9.655,-17.513c1.51,0.4 3.254,3.663 4.722,3.213c-0.552,-2.418 -0.385,-8.165 0.479,-10.552c0.524,-1.35 1.582,-0.398 2.486,-1.679c1.486,-2.467 1.022,-8.915 -7.014,-16.166c5.078,3.647 9.662,6.715 13.474,9.184c2.596,1.684 5.577,7.103 9.196,6.869c1.419,-0.111 2.791,-4.02 3.832,-4.587c8.347,2.808 14.648,4.938 18.207,6.215c0.83,0.296 3.206,4.074 4.24,3.653c0.784,-0.317 0.32,-4.201 0.195,-4.7l15.606,5.551c-0.28,-1.928 -1.023,-7.167 -2.102,-8.999c-2.076,-3.438 -4.87,-5.417 -3.409,-7.072c0.672,-0.665 1.828,2.166 3.096,1.927c-0.501,-1.361 -1.227,-6.133 -2.044,-7.634c-1.82,-3.35 -4.273,-6.573 -7.314,-9.613c0.435,-0.694 0.864,-1.387 1.299,-2.078c-2.957,-2.992 -7.168,-5.508 -12.247,-7.317c-8.04,-2.858 -17.41,-2.564 -17.342,-3.031c0.056,-0.365 5.601,0.09 12.752,-1.205c5.29,-0.96 9.884,0.65 9.555,-0.114c-0.113,-0.258 -0.709,-3.512 -2.058,-4.082c-0.936,-0.394 -1.776,-0.86 -2.496,-1.385c8.361,-1.446 15.624,-1.347 20.038,-5.694c-6.739,-2.819 -14.671,-8.022 -22.878,-8.815c0.01,-0.203 0.102,-0.402 0.271,-0.581c0.696,-0.723 2.489,-0.756 2.48,-0.856c-0.055,-0.407 -11.368,0.045 -11.368,0.045c-3.863,0.153 -8.866,0.36 -14.743,0.617c0.29,-0.468 0.602,-0.939 0.866,-1.412c-12.274,-1.1 -24.8,0.835 -34.483,5.327c-1.278,-3.818 -1.459,-6.446 -1.368,-8.178Z" style="fill:#d30f0f;fill-rule:nonzero;"/><path d="M104.257,77.095c-33.376,10.301 -63.774,18.352 -96.603,43.315c-0.253,0.193 -1.221,2.035 -0.88,1.794c32.377,-22.83 64.678,-33.875 97.592,-44.275c-1.364,26.34 -2.731,52.68 -4.102,79.023c-0.017,0.265 1.554,0.327 1.565,0.078l4.129,-79.477c31.497,14.887 58.785,32.021 84.697,50.145c0.264,0.184 1.691,0.299 1.308,0.034c-26.108,-18.262 -53.554,-35.577 -85.324,-50.548c3.578,0.096 7.153,0.03 10.777,-0.035c12.05,-0.225 24.07,-0.819 36.011,-1.778c12.698,-1.024 21.284,0.192 33.706,-1.641c0.547,-0.079 1.433,-0.092 1.018,-0.032l-1.175,-0.747c-12.889,1.902 -22.957,1.046 -36.14,2.076c-14.571,1.13 -30.078,2.191 -44.836,1.725l0.421,-8.102c0.017,-0.265 -1.554,-0.327 -1.57,-0.078l-0.421,8.124c-14.078,-0.56 -28.518,-2.699 -42.032,-4.894c-13.825,-2.252 -24.609,-1.23 -37.708,-4.634c-0.607,-0.157 -3.483,-0.431 -2.504,-0.175c20.387,5.307 40.917,5.807 62.853,8.317c5.455,0.623 10.934,1.158 16.439,1.606c0.928,0.075 1.854,0.134 2.779,0.179Zm1.721,0.07l-0.004,0.081l0.177,-0.076l-0.072,-0.002l-0.101,-0.003Z" style="fill:#656565;fill-opacity:0.4;fill-rule:nonzero;"/></svg>