<?xml version="1.0" encoding="UTF-8" standalone="no"?><!DOCTYPE svg PUBLIC "-//W3C//DTD SVG 1.1//EN" "http://www.w3.org/Graphics/SVG/1.1/DTD/svg11.dtd"><svg width="100%" height="100%" viewBox="0 0 200 200" version="1.1" xmlns="http://www.w3.org/2000/svg" xmlns:xlink="http://www.w3.org/1999/xlink" xml:space="preserve" xmlns:serif="http://www.serif.com/" style="fill-rule:evenodd;clip-rule:evenodd;stroke-linejoin:round;stroke-miterlimit:2;"><path d="M80.551,136.451c-0.057,0.985 -0.379,1.398 -0.894,2.885c-0.438,1.273 -1.121,3.359 -2.292,7.551c-0.035,0.13 -0.447,1.651 -1.164,3.573c-0.223,0.705 -0.529,1.401 -0.916,2.082c-0.436,0.727 -0.743,1.497 -1.443,2.155c-0.701,0.658 -1.503,1.273 -2.255,1.924c-0.752,0.651 -1.757,1.276 -2.312,1.955c-0.28,0.346 -0.32,0.741 -0.114,1.103c0.353,0.5 1.483,0.492 2.288,0.692c1.29,0.319 2.525,0.609 3.971,0.514c0.984,-0.106 1.98,-0.169 2.98,-0.19c0.913,0.018 1.601,0.181 2.241,-0.288c0.426,-0.314 0.475,-0.746 0.837,-1.088c0.361,-0.342 0.514,-0.548 0.924,-0.943c0.769,-0.793 1.314,-1.653 1.618,-2.545c0.322,-0.816 0.521,-1.647 0.595,-2.483c0.13,-0.915 0.179,-1.833 0.145,-2.751c-0.014,-0.63 -0.023,-1.319 -0.08,-1.504c-0.104,-0.359 -0.14,-0.723 -0.106,-1.086c0.027,-1.018 0.201,-2.02 0.121,-3.039c-0.08,-1.019 0.383,-2.006 0.134,-2.978c-0.212,-0.876 -0.202,-1.766 0.028,-2.641c0.156,-0.575 0.067,-1.2 0.138,-1.786c0.071,-0.585 0.347,-1.138 0.466,-1.719c0.07,-0.366 0.249,-0.722 0.37,-1.094c0.254,-0.775 0.074,-1.101 0.493,-1.277c0.377,-0.148 0.878,-0.142 1.246,0.014c0.588,0.315 0.169,1.03 0.04,1.652c-0.223,1.307 1.047,2.349 2.722,3.713c1.445,1.185 3.337,2.166 5.535,2.867c1.112,0.336 2.276,0.611 3.477,0.822c2.623,0.499 2.853,0.28 4.116,0.555c0.254,0.054 1.039,0.238 1.295,0.067c0.227,-0.191 -0.652,-0.71 -1.213,-1.198c-0.415,-0.416 -0.746,-0.858 -0.985,-1.318c-0.874,-1.384 -0.975,-2.219 -1.598,-3.397c-0.756,-1.381 -1.895,-2.682 -3.373,-3.853c-0.766,-0.608 -1.622,-1.177 -2.56,-1.699c14.761,4.679 24.577,4.774 30.886,3.919c3.324,-0.45 7.762,-1.441 16.162,-2.265c3.215,-0.316 5.313,-0.439 12.39,-1.135c9.24,-0.898 7.392,-0.854 8.806,-0.918c2.594,-0.118 5.185,-0.095 5.434,-0.636c0.127,-0.27 -0.417,-0.601 -0.89,-0.838c-5.044,-2.48 -22.553,-5.579 -22.553,-5.579c-7.877,-1.394 -8.278,-1.875 -17.473,-3.397c-3.927,-0.637 -7.346,-1.135 -10.046,-1.492c3.814,0.084 7.634,-0.042 11.408,-0.378c3.773,-0.335 15.002,-1.318 26.254,-5.893c1.24,-0.584 2.586,-1.089 4.016,-1.505c0.841,-0.204 1.64,-0.461 2.381,-0.769c0.652,-0.284 1.248,-0.608 1.78,-0.966c1.382,-0.867 2.644,-1.148 4.655,-1.868c2.459,-0.877 3.53,-1.513 5.54,-2.425c8.005,-3.673 21.591,-7.616 20.924,-8.485c-0.055,-0.07 -0.18,-0.093 -2.311,-0.209c-2.601,-0.131 -3.902,-0.195 -4.697,-0.213c-4.44,-0.1 -5.744,-0.725 -11.501,-0.972c-0.888,-0.038 -0.351,-0.004 -6.943,-0.087c-6.99,-0.09 -6.192,-0.114 -7.505,-0.115c-4.63,0.037 -9.247,0.279 -13.811,0.725c-0.966,0.087 -3.128,0.281 -6.232,0.66c-6.653,0.808 -14.135,1.721 -21.96,3.917c-5.654,1.594 -10.868,3.663 -15.474,6.137c0.523,-0.688 1.288,-1.71 2.206,-2.951c3.254,-4.404 4.957,-6.598 5.735,-8.098c1.615,-3.112 1.646,-5.71 1.216,-10.281c-0.832,-8.851 -2.237,-12.851 -3.478,-19.885c-1.947,-11.252 -0.918,-16.235 -3.293,-16.478c-1.006,-0.091 -2.239,0.677 -11.025,11.207c-4.202,5.034 -6.3,7.55 -8.715,10.768c-5.291,7.058 -7.763,10.628 -9.213,15.561c-0.789,2.898 -1.225,5.824 -1.306,8.757c-0.131,2.895 0.031,5.792 0.484,8.676c-1.832,-2.026 -3.938,-3.966 -6.301,-5.8c-2.359,-1.786 -4.919,-3.481 -7.665,-5.072c-1.028,-0.586 -0.821,-0.43 -4.155,-2.247c-0.682,-0.384 -1.398,-0.747 -2.146,-1.088c-0.809,-0.361 -1.655,-0.694 -2.532,-0.998c-2.873,-0.998 -5.224,-1.687 -5.224,-1.687c-4.525,-1.316 -7.578,-2.21 -11.895,-3.048c-1.182,-0.231 -0.469,-0.07 -6.726,-1.172c-5.893,-1.042 -5.4,-0.986 -6.213,-1.102c-5.233,-0.755 -6.733,-0.375 -10.712,-1.036c-0.935,-0.155 -2.047,-0.303 -4.28,-0.598c-1.97,-0.26 -2.079,-0.256 -2.159,-0.195c-1.128,0.687 9.017,6.801 14.24,11.664c1.165,1.103 0.68,0.625 3.666,3.257c8.186,7.222 12.363,10.883 16.426,13.234c6.712,3.907 12.061,5.298 14.006,5.775c2.246,0.535 4.576,0.942 6.958,1.218c-5.113,-0.525 -10.305,-0.746 -15.496,-0.659c-4.597,0.083 -5.024,0.343 -12.345,0.521c-7.705,0.186 -11.558,0.28 -11.863,0.256c-0.596,-0.054 -5.002,-0.405 -8.335,0.492c-1.338,0.361 -1.379,0.622 -1.372,0.705c0.037,0.42 1.824,0.672 2.274,0.741c4.932,0.75 13.954,4.347 16.544,5.379c6.048,2.412 7.384,3.894 13.478,5.276c0.782,0.175 1.574,0.334 3.184,0.623c8.92,1.616 14.865,1.674 14.865,1.674c1.753,0.016 3.507,-0.043 5.246,-0.174c1.251,-0.097 2.493,-0.23 3.72,-0.4c-1.815,0.689 -3.556,1.441 -5.213,2.252c-1.738,0.846 -1.559,0.868 -3.642,1.925c-3.935,2.018 -5.907,3.026 -8.102,3.704c-0.761,0.233 -2.235,0.663 -2.16,0.893c0.025,0.069 0.239,0.109 1.603,0.207c0.877,0.062 1.317,0.093 1.656,0.104c3.626,0.131 5.531,0.196 8.228,0.098c2.086,-0.076 3.126,-0.114 4.001,-0.247c3.366,-0.513 5.543,-1.683 7.372,-2.667c1.641,-0.884 2.166,-1.414 2.407,-1.674c0.802,-0.905 0.74,-1.54 1.06,-1.553c0.418,-0.047 1.4,1.643 1.276,3.683Z" style="fill:#c10000;fill-rule:nonzero;"/><path d="M80.551,136.451c-0.057,0.985 -0.379,1.398 -0.894,2.885c-0.438,1.273 -1.121,3.359 -2.292,7.551c-0.035,0.13 -0.447,1.651 -1.164,3.573c-0.223,0.705 -0.529,1.401 -0.916,2.082c-0.436,0.727 -0.743,1.497 -1.443,2.155c-0.701,0.658 -1.503,1.273 -2.255,1.924c-0.752,0.651 -1.757,1.276 -2.312,1.955c-0.28,0.346 -0.32,0.741 -0.114,1.103c0.353,0.5 1.483,0.492 2.288,0.692c1.29,0.319 2.525,0.609 3.971,0.514c0.984,-0.106 1.98,-0.169 2.98,-0.19c0.913,0.018 1.601,0.181 2.241,-0.288c0.426,-0.314 0.475,-0.746 0.837,-1.088c0.361,-0.342 0.514,-0.548 0.924,-0.943c0.769,-0.793 1.314,-1.653 1.618,-2.545c0.322,-0.816 0.521,-1.647 0.595,-2.483c0.13,-0.915 0.179,-1.833 0.145,-2.751c-0.014,-0.63 -0.023,-1.319 -0.08,-1.504c-0.104,-0.359 -0.14,-0.723 -0.106,-1.086c0.027,-1.018 0.201,-2.02 0.121,-3.039c-0.08,-1.019 0.383,-2.006 0.134,-2.978c-0.212,-0.876 -0.202,-1.766 0.028,-2.641c0.156,-0.575 0.067,-1.2 0.138,-1.786c0.071,-0.585 0.347,-1.138 0.466,-1.719c0.07,-0.366 0.249,-0.722 0.37,-1.094c0.254,-0.775 0.074,-1.101 0.493,-1.277c0.377,-0.148 0.878,-0.142 1.246,0.014c0.588,0.315 0.169,1.03 0.04,1.652c-0.223,1.307 1.047,2.349 2.722,3.713c1.445,1.185 3.337,2.166 5.535,2.867c1.112,0.336 2.276,0.611 3.477,0.822c2.623,0.499 2.853,0.28 4.116,0.555c0.254,0.054 1.039,0.238 1.295,0.067c0.227,-0.191 -0.652,-0.71 -1.213,-1.198c-0.415,-0.416 -0.746,-0.858 -0.985,-1.318c-0.874,-1.384 -0.975,-2.219 -1.598,-3.397c-0.756,-1.381 -1.895,-2.682 -3.373,-3.853c-0.766,-0.608 -1.622,-1.177 -2.56,-1.699c14.761,4.679 24.577,4.774 30.886,3.919c3.324,-0.45 7.762,-1.441 16.162,-2.265c3.215,-0.316 5.313,-0.439 12.39,-1.135c9.24,-0.898 7.392,-0.854 8.806,-0.918c2.594,-0.118 5.185,-0.095 5.434,-0.636c0.127,-0.27 -0.417,-0.601 -0.89,-0.838c-5.044,-2.48 -22.553,-5.579 -22.553,-5.579c-7.877,-1.394 -8.278,-1.875 -17.473,-3.397c-3.927,-0.637 -7.346,-1.135 -10.046,-1.492c3.814,0.084 7.634,-0.042 11.408,-0.378c3.773,-0.335 15.002,-1.318 26.254,-5.893c1.24,-0.584 2.586,-1.089 4.016,-1.505c0.841,-0.204 1.64,-0.461 2.381,-0.769c0.652,-0.284 1.248,-0.608 1.78,-0.966c1.382,-0.867 2.644,-1.148 4.655,-1.868c2.459,-0.877 3.53,-1.513 5.54,-2.425c8.005,-3.673 21.591,-7.616 20.924,-8.485c-0.055,-0.07 -0.18,-0.093 -2.311,-0.209c-2.601,-0.131 -3.902,-0.195 -4.697,-0.213c-4.44,-0.1 -5.744,-0.725 -11.501,-0.972c-0.888,-0.038 -0.351,-0.004 -6.943,-0.087c-6.99,-0.09 -6.192,-0.114 -7.505,-0.115c-4.63,0.037 -9.247,0.279 -13.811,0.725c-0.966,0.087 -3.128,0.281 -6.232,0.66c-6.653,0.808 -14.135,1.721 -21.96,3.917c-5.654,1.594 -10.868,3.663 -15.474,6.137c0.523,-0.688 1.288,-1.71 2.206,-2.951c3.254,-4.404 4.957,-6.598 5.735,-8.098c1.615,-3.112 1.646,-5.71 1.216,-10.281c-0.832,-8.851 -2.237,-12.851 -3.478,-19.885c-1.947,-11.252 -0.918,-16.235 -3.293,-16.478c-1.006,-0.091 -2.239,0.677 -11.025,11.207c-4.202,5.034 -6.3,7.55 -8.715,10.768c-5.291,7.058 -7.763,10.628 -9.213,15.561c-0.789,2.898 -1.225,5.824 -1.306,8.757c-0.131,2.895 0.031,5.792 0.484,8.676c-1.832,-2.026 -3.938,-3.966 -6.301,-5.8c-2.359,-1.786 -4.919,-3.481 -7.665,-5.072c-1.028,-0.586 -0.821,-0.43 -4.155,-2.247c-0.682,-0.384 -1.398,-0.747 -2.146,-1.088c-0.809,-0.361 -1.655,-0.694 -2.532,-0.998c-2.873,-0.998 -5.224,-1.687 -5.224,-1.687c-4.525,-1.316 -7.578,-2.21 -11.895,-3.048c-1.182,-0.231 -0.469,-0.07 -6.726,-1.172c-5.893,-1.042 -5.4,-0.986 -6.213,-1.102c-5.233,-0.755 -6.733,-0.375 -10.712,-1.036c-0.935,-0.155 -2.047,-0.303 -4.28,-0.598c-1.97,-0.26 -2.079,-0.256 -2.159,-0.195c-1.128,0.687 9.017,6.801 14.24,11.664c1.165,1.103 0.68,0.625 3.666,3.257c8.186,7.222 12.363,10.883 16.426,13.234c6.712,3.907 12.061,5.298 14.006,5.775c2.246,0.535 4.576,0.942 6.958,1.218c-5.113,-0.525 -10.305,-0.746 -15.496,-0.659c-4.597,0.083 -5.024,0.343 -12.345,0.521c-7.705,0.186 -11.558,0.28 -11.863,0.256c-0.596,-0.054 -5.002,-0.405 -8.335,0.492c-1.338,0.361 -1.379,0.622 -1.372,0.705c0.037,0.42 1.824,0.672 2.274,0.741c4.932,0.75 13.954,4.347 16.544,5.379c6.048,2.412 7.384,3.894 13.478,5.276c0.782,0.175 1.574,0.334 3.184,0.623c8.92,1.616 14.865,1.674 14.865,1.674c1.753,0.016 3.507,-0.043 5.246,-0.174c1.251,-0.097 2.493,-0.23 3.72,-0.4c-1.815,0.689 -3.556,1.441 -5.213,2.252c-1.738,0.846 -1.559,0.868 -3.642,1.925c-3.935,2.018 -5.907,3.026 -8.102,3.704c-0.761,0.233 -2.235,0.663 -2.16,0.893c0.025,0.069 0.239,0.109 1.603,0.207c0.877,0.062 1.317,0.093 1.656,0.104c3.626,0.131 5.531,0.196 8.228,0.098c2.086,-0.076 3.126,-0.114 4.001,-0.247c3.366,-0.513 5.543,-1.683 7.372,-2.667c1.641,-0.884 2.166,-1.414 2.407,-1.674c0.802,-0.905 0.74,-1.54 1.06,-1.553c0.418,-0.047 1.4,1.643 1.276,3.683Z" style="fill:#454545;fill-opacity:0.68;fill-rule:nonzero;"/><path d="M80.474,133.253c-0.057,0.984 -0.379,1.398 -0.894,2.884c-0.438,1.274 -1.121,3.36 -2.292,7.552c-0.035,0.129 -0.448,1.65 -1.164,3.573c-0.223,0.705 -0.529,1.4 -0.916,2.081c-0.437,0.728 -0.743,1.497 -1.444,2.156c-0.701,0.658 -1.502,1.273 -2.254,1.924c-0.753,0.65 -1.757,1.275 -2.312,1.955c-0.28,0.346 -0.347,3.772 -0.14,4.135c0.352,0.499 1.508,-2.54 2.313,-2.34c1.29,0.319 2.518,-0.637 3.964,-0.732c0.984,-0.106 1.988,1.077 2.988,1.056c0.913,0.017 1.589,3.471 2.229,3.001c0.426,-0.313 0.487,-4.035 0.848,-4.378c0.362,-0.342 0.515,-0.548 0.925,-0.942c0.768,-0.794 1.314,-1.653 1.617,-2.545c0.323,-0.816 0.522,-1.647 0.595,-2.483c0.131,-0.915 0.18,-1.834 0.146,-2.752c-0.015,-0.629 -0.023,-1.318 -0.08,-1.503c-0.105,-0.359 -0.14,-0.723 -0.106,-1.087c0.027,-1.017 0.201,-2.019 0.121,-3.038c-0.08,-1.019 0.383,-2.006 0.134,-2.978c-0.212,-0.877 -0.203,-1.766 0.028,-2.641c0.156,-0.575 0.066,-1.201 0.137,-1.786c0.071,-0.585 0.348,-1.138 0.467,-1.719c0.069,-0.366 0.249,-0.722 0.369,-1.094c0.254,-0.775 0.074,-1.101 0.493,-1.278c0.378,-0.147 0.879,-0.142 1.246,0.014c0.588,0.316 0.17,1.03 0.04,1.653c-0.223,1.307 1.047,2.349 2.723,3.712c1.444,1.186 3.337,2.167 5.534,2.868c1.113,0.335 7.732,4.272 8.995,4.547c0.253,0.054 -0.758,-3.814 -1.319,-4.301c-0.416,-0.416 -0.746,-0.858 -0.985,-1.318c-0.875,-1.384 -0.976,-2.219 -1.598,-3.397c-0.756,-1.381 -1.895,-2.682 -3.373,-3.853c-0.766,-0.609 -1.623,-1.178 -2.561,-1.7c14.762,4.68 24.577,4.775 30.887,3.919c3.324,-0.449 7.762,-1.44 16.162,-2.265c3.214,-0.315 27.037,1.313 27.287,0.772c0.127,-0.27 -1.075,-4.062 -1.547,-4.299c-5.044,-2.479 -22.554,-5.578 -22.554,-5.578c-7.876,-1.394 -8.278,-1.876 -17.472,-3.397c-3.928,-0.637 -7.347,-1.135 -10.047,-1.492c3.815,0.084 7.635,-0.042 11.408,-0.378c3.773,-0.335 15.002,-1.318 26.255,-5.893c1.24,-0.585 2.586,-1.089 4.015,-1.506c0.842,-0.203 1.64,-0.461 2.381,-0.768c0.652,-0.284 1.249,-0.608 1.78,-0.966c1.383,-0.868 2.645,-1.148 4.656,-1.868c2.459,-0.877 3.53,-1.513 5.539,-2.425c4.382,-2.01 21.549,-4.486 21.124,-4.84c-1.505,-1.251 -14.08,-5.711 -18.708,-5.04c-0.864,0.126 -0.351,-0.003 -6.943,-0.086c-6.99,-0.091 -6.193,-0.115 -7.506,-0.115c-4.629,0.036 -9.246,0.278 -13.811,0.725c-0.966,0.087 -3.127,0.281 -6.232,0.66c-6.653,0.807 -14.135,1.721 -21.96,3.916c-5.653,1.595 -10.867,3.663 -15.474,6.138c0.524,-0.688 1.289,-1.71 2.206,-2.952c3.255,-4.404 4.958,-6.597 5.735,-8.097c1.615,-3.112 1.646,-5.711 1.216,-10.281c-0.831,-8.852 -2.236,-12.851 -3.477,-19.885c-1.948,-11.252 -0.919,-16.235 -3.294,-16.478c-1.005,-0.091 -2.238,0.677 -11.025,11.207c-4.201,5.034 -6.299,7.55 -8.714,10.767c-5.292,7.058 -7.763,10.628 -9.214,15.562c-0.788,2.898 -1.224,5.824 -1.305,8.757c-0.131,2.895 0.03,5.792 0.483,8.676c-1.831,-2.026 -3.938,-3.966 -6.301,-5.8c-2.358,-1.787 -4.919,-3.481 -7.665,-5.073c-1.027,-0.586 -0.821,-0.429 -4.155,-2.247c-0.681,-0.384 -1.398,-0.747 -2.146,-1.087c-0.809,-0.361 -1.654,-0.694 -2.531,-0.998c-2.873,-0.998 -5.225,-1.687 -5.225,-1.687c-4.524,-1.317 -7.577,-2.21 -11.894,-3.048c-1.183,-0.231 -0.469,-0.071 -6.727,-1.172c-5.892,-1.043 -5.399,-0.987 -6.213,-1.103c-5.233,-0.754 -6.732,-0.374 -10.712,-1.035c-0.934,-0.155 -6.416,2.227 -6.496,2.288c-1.128,0.687 9.075,3.719 14.297,8.582c1.166,1.103 0.68,0.626 3.667,3.257c8.185,7.222 12.362,10.883 16.425,13.235c6.712,3.907 12.061,5.298 14.006,5.775c2.246,0.534 4.576,0.942 6.958,1.218c-5.112,-0.525 -10.305,-0.746 -15.496,-0.66c-4.596,0.084 -5.023,0.344 -12.345,0.522c-7.704,0.186 -11.557,0.235 -11.863,0.255c-4.004,0.263 -9.606,4.148 -9.6,4.23c0.038,0.421 16.121,2.056 18.712,3.087c6.048,2.413 7.384,3.895 13.477,5.277c0.783,0.175 1.574,0.334 3.185,0.623c8.92,1.615 14.864,1.673 14.864,1.673c1.754,0.016 3.507,-0.042 5.246,-0.174c1.251,-0.096 2.493,-0.229 3.721,-0.399c-1.815,0.689 -3.556,1.441 -5.214,2.251c-1.738,0.847 -1.558,0.868 -3.641,1.926c-3.935,2.017 -3.239,2.821 -5.434,3.499c-0.761,0.233 -4.903,4.094 -4.829,4.323c0.025,0.07 4.465,-1.434 5.83,-1.336c0.877,0.063 2.961,-1.383 5.658,-1.48c2.085,-0.076 3.126,-0.115 4.001,-0.247c3.366,-0.513 5.543,-1.683 7.372,-2.668c1.641,-0.883 2.165,-1.413 2.406,-1.673c0.802,-0.906 0.74,-1.54 1.061,-1.553c0.418,-0.047 1.4,1.643 1.276,3.683Z" style="fill:#c10000;fill-rule:nonzero;"/><path d="M84.356,122.987c-4.306,-4.927 -8.67,-9.9 -13.722,-14.579c-5.177,-4.797 -12.119,-8.9 -18.88,-12.952c-7.206,-4.367 -15.187,-8.285 -23.81,-11.689c-4.687,-1.833 -10.179,-4.697 -15.899,-5.132c-0.901,-0.082 -1.005,0.287 -0.096,0.355l-0.015,-0.002c3.44,0.26 5.916,1.586 8.71,2.642c2.705,1.025 5.455,2.009 8.102,3.086c8.633,3.5 16.429,7.623 23.654,12.05c6.383,3.911 12.798,7.816 17.612,12.456c4.832,4.677 9.164,9.555 13.423,14.414c-7.642,-2.678 -15.874,-4.867 -24.616,-6.006c-13.623,-2.574 -29.579,-3.082 -42.451,-2.586c-0.784,0.03 -2.41,0.932 -2.41,0.932c12.509,-0.712 31.098,-0.687 44.334,2.015c9.046,1.846 17.744,3.401 25.679,6.257l0.033,0.038l-0.002,0.008c-0.001,0.004 -0.002,0.007 -0.002,0.011c-4.673,2.552 -9.519,5.088 -14.854,7.177c-4.954,1.94 -8.678,2.064 -13.888,5.245c-0.838,0.512 -0.633,0.712 -0.633,0.712c1.48,-0.238 0.424,-0.92 4.618,-1.906c3.345,-0.787 6.514,-2.221 9.724,-3.3c5.742,-1.929 10.91,-4.767 15.744,-7.407c3.521,2.849 6.243,5.95 9.487,8.904c2.674,2.434 5.468,5.016 9.305,6.85c0.311,0.15 -0.486,-0.901 -1.112,-1.203c-4.473,-2.143 -5.358,-4.192 -8.3,-7.086c-2.766,-2.66 -5.285,-5.352 -8.46,-7.854c11.864,-2.009 24.353,-2.479 36.571,-1.377c13.962,1.222 28.691,4.169 42.727,5.096c0.902,0.059 -3.176,-1.027 -3.176,-1.027c-14.867,-0.98 -27.128,-3.453 -41.946,-4.615c-11.117,-0.864 -22.414,-0.439 -33.228,1.245c4.474,-3.139 9.273,-6.118 14.373,-8.922c7.36,-4.027 16.28,-7.166 25.448,-9.669c7.93,-2.152 15.836,-4.611 24.336,-5.892c12.31,-1.852 23.626,-4.642 36.612,-4.091c0.797,0.032 -0.416,-0.48 -0.816,-0.5c-12.548,-0.531 -23.688,1.937 -35.548,3.873c-8.769,1.431 -16.606,3.741 -24.904,5.899c-9.7,2.522 -19.124,5.898 -26.835,10.142c-4.682,2.599 -9.113,5.344 -13.272,8.222l7.191,-26.519c1.944,-7.169 4.356,-14.262 5.999,-21.455c2.19,-9.517 5.423,-18.883 8.208,-28.346c0.064,-0.234 -1.471,-0.336 -1.553,-0.07c-2.785,9.463 -6.018,18.829 -8.208,28.346c-1.653,7.192 -4.056,14.289 -6,21.458l-7.254,26.752Z" style="fill:#5e5e5e;fill-opacity:0.4;fill-rule:nonzero;"/></svg>