<?xml version="1.0" encoding="UTF-8" standalone="no"?><!DOCTYPE svg PUBLIC "-//W3C//DTD SVG 1.1//EN" "http://www.w3.org/Graphics/SVG/1.1/DTD/svg11.dtd"><svg width="100%" height="100%" viewBox="0 0 200 200" version="1.1" xmlns="http://www.w3.org/2000/svg" xmlns:xlink="http://www.w3.org/1999/xlink" xml:space="preserve" xmlns:serif="http://www.serif.com/" style="fill-rule:evenodd;clip-rule:evenodd;stroke-linejoin:round;stroke-miterlimit:2;"><path d="M16.572,52.805c-3.03,-1.393 -4.777,-2.759 -5.509,-2.484c-1.204,0.433 1.735,4.745 4.603,7.765c0.823,0.871 3.001,2.974 7.393,7.166c0.536,0.51 5.876,5.54 4.476,7.734c-0.221,0.419 -0.683,0.781 -1.31,1.027c-1.388,0.483 -2.773,-0.142 -3.373,0.135c-1.053,0.459 0.4,3.39 5.807,8.286c5.408,4.895 10.593,7.98 9.669,8.58c-0.619,0.4 -3.08,-0.907 -4.242,-0.445c-2.427,0.965 2.547,8.669 10.529,14.794c3.445,2.654 7.471,5.04 11.977,7.098l-13.585,5.229c0,0 -2.853,2.131 -6.506,2.78c-3.253,0.571 -5.796,-0.235 -6.317,0.366c-0.464,0.539 1.615,1.194 1.464,1.913c-0.441,2.133 -19.831,1.519 -20.51,3.41c-0.37,1.037 6.185,2.53 18.042,5.785c18.273,5.015 21.639,6.68 21.235,7.675c-0.43,1.12 -5.374,1.072 -5.355,1.702c0.053,1.094 15.295,1.75 17.948,1.861c6.57,0.281 10.706,0.459 16.649,0.327c12.514,-0.279 20.797,-1.663 21.348,-0.748c0.412,0.673 -3.902,1.878 -3.585,2.249c0.415,0.483 8.333,-0.889 16.827,-3.419c7.586,-2.253 9.08,-3.473 15.888,-5.577c5.322,-1.638 10.95,-2.921 16.774,-3.824c5.789,3.564 10.246,6.19 13.344,7.983c3.26,1.882 4.162,2.355 5.589,3.475c3.653,2.863 4.773,5.301 6.547,5.183c0.838,-0.048 0.8,-0.601 2.272,-1.582c2.913,-1.943 5.872,-1.703 6.238,-2.73c0.117,-0.324 0.004,-0.904 -5.782,-3.634c-2.792,-1.32 -4.396,-1.95 -7.124,-3.159c-1.257,-0.555 -4.302,-1.9 -7.121,-3.327c-3.107,-1.576 -6.013,-3.28 -8.695,-5.098c0.893,-3.52 2.511,-6.966 4.819,-10.264c7.68,-10.944 21.929,-18.47 20.386,-19.361c-0.785,-0.453 -4.317,1.621 -6.208,0.931c-2.264,-0.824 0.849,-4.486 2.287,-10.881c1.147,-5.068 0.464,-8.369 -0.691,-13.946c-0.215,-1.044 -1.045,-4.87 -2.449,-4.9c-1.181,-0.024 -1.483,2.656 -3.072,2.775c-2.102,0.164 -4.751,-4.385 -8.298,-10.268c-6.993,-11.576 -8.982,-14.227 -10.291,-14.103c-0.83,0.078 0.091,1.629 -1.77,3.736c-2.113,2.397 -4.928,2.258 -6.895,4.735c-1.079,1.359 -0.456,1.688 -1.743,3.351c-0.945,1.202 -2.247,2.3 -3.845,3.244c-1.819,-1.922 -2.846,-2.279 -3.499,-2.212c-1.12,0.146 -0.785,1.696 -2.226,4.144c-0.994,1.848 -2.722,3.537 -5.046,4.931c-1.761,1.003 -3.858,1.788 -6.162,2.307c-4.742,-2.886 -10.059,-5.439 -15.838,-7.606c-7.62,-2.847 -18.039,-5.747 -19.771,-4.495c-0.951,0.689 1.276,2.205 0.385,2.672c-1.185,0.623 -5.77,-1.78 -12.906,-4.001c-7.359,-2.287 -15.461,-3.762 -16.386,-2.897c-0.554,0.52 1.921,1.47 1.348,2.115c-1.065,1.203 -11.454,0.181 -20.911,-2.425c-10.506,-2.911 -13.943,-2.752 -16.823,-4.078Z" style="fill:#c4c406;fill-rule:nonzero;"/><path d="M16.572,52.805c-3.03,-1.393 -4.777,-2.759 -5.509,-2.484c-1.204,0.433 1.735,4.745 4.603,7.765c0.823,0.871 3.001,2.974 7.393,7.166c0.536,0.51 5.876,5.54 4.476,7.734c-0.221,0.419 -0.683,0.781 -1.31,1.027c-1.388,0.483 -2.773,-0.142 -3.373,0.135c-1.053,0.459 0.4,3.39 5.807,8.286c5.408,4.895 10.593,7.98 9.669,8.58c-0.619,0.4 -3.08,-0.907 -4.242,-0.445c-2.427,0.965 2.547,8.669 10.529,14.794c3.445,2.654 7.471,5.04 11.977,7.098l-13.585,5.229c0,0 -2.853,2.131 -6.506,2.78c-3.253,0.571 -5.796,-0.235 -6.317,0.366c-0.464,0.539 1.615,1.194 1.464,1.913c-0.441,2.133 -19.831,1.519 -20.51,3.41c-0.37,1.037 6.185,2.53 18.042,5.785c18.273,5.015 21.639,6.68 21.235,7.675c-0.43,1.12 -5.374,1.072 -5.355,1.702c0.053,1.094 15.295,1.75 17.948,1.861c6.57,0.281 10.706,0.459 16.649,0.327c12.514,-0.279 20.797,-1.663 21.348,-0.748c0.412,0.673 -3.902,1.878 -3.585,2.249c0.415,0.483 8.333,-0.889 16.827,-3.419c7.586,-2.253 9.08,-3.473 15.888,-5.577c5.322,-1.638 10.95,-2.921 16.774,-3.824c5.789,3.564 10.246,6.19 13.344,7.983c3.26,1.882 4.162,2.355 5.589,3.475c3.653,2.863 4.773,5.301 6.547,5.183c0.838,-0.048 0.8,-0.601 2.272,-1.582c2.913,-1.943 5.872,-1.703 6.238,-2.73c0.117,-0.324 0.004,-0.904 -5.782,-3.634c-2.792,-1.32 -4.396,-1.95 -7.124,-3.159c-1.257,-0.555 -4.302,-1.9 -7.121,-3.327c-3.107,-1.576 -6.013,-3.28 -8.695,-5.098c0.893,-3.52 2.511,-6.966 4.819,-10.264c7.68,-10.944 21.929,-18.47 20.386,-19.361c-0.785,-0.453 -4.317,1.621 -6.208,0.931c-2.264,-0.824 0.849,-4.486 2.287,-10.881c1.147,-5.068 0.464,-8.369 -0.691,-13.946c-0.215,-1.044 -1.045,-4.87 -2.449,-4.9c-1.181,-0.024 -1.483,2.656 -3.072,2.775c-2.102,0.164 -4.751,-4.385 -8.298,-10.268c-6.993,-11.576 -8.982,-14.227 -10.291,-14.103c-0.83,0.078 0.091,1.629 -1.77,3.736c-2.113,2.397 -4.928,2.258 -6.895,4.735c-1.079,1.359 -0.456,1.688 -1.743,3.351c-0.945,1.202 -2.247,2.3 -3.845,3.244c-1.819,-1.922 -2.846,-2.279 -3.499,-2.212c-1.12,0.146 -0.785,1.696 -2.226,4.144c-0.994,1.848 -2.722,3.537 -5.046,4.931c-1.761,1.003 -3.858,1.788 -6.162,2.307c-4.742,-2.886 -10.059,-5.439 -15.838,-7.606c-7.62,-2.847 -18.039,-5.747 -19.771,-4.495c-0.951,0.689 1.276,2.205 0.385,2.672c-1.185,0.623 -5.77,-1.78 -12.906,-4.001c-7.359,-2.287 -15.461,-3.762 -16.386,-2.897c-0.554,0.52 1.921,1.47 1.348,2.115c-1.065,1.203 -11.454,0.181 -20.911,-2.425c-10.506,-2.911 -13.943,-2.752 -16.823,-4.078Z" style="fill:#6f6f6f;fill-opacity:0.38;fill-rule:nonzero;"/><path d="M16.332,49.533c-3.03,-1.393 -5.184,0.482 -5.917,0.757c-1.203,0.434 2.144,1.504 5.012,4.524c0.822,0.871 3,2.974 7.392,7.166c0.536,0.51 5.876,5.54 4.476,7.734c-0.22,0.419 -0.683,0.781 -1.309,1.027c-1.389,0.483 -3.165,2.812 -3.765,3.089c-1.053,0.46 0.791,0.436 6.199,5.331c5.407,4.896 10.592,7.981 9.668,8.58c-0.619,0.401 -3.318,1.919 -4.48,2.381c-2.427,0.965 2.786,5.844 10.767,11.969c3.445,2.654 7.471,5.04 11.978,7.098l-13.586,5.229c0,0 -2.853,2.131 -6.506,2.78c-3.253,0.571 -5.796,-0.235 -6.317,0.366c-0.464,0.538 1.615,1.194 1.464,1.913c-0.441,2.133 -19.385,4.746 -20.064,6.638c-0.37,1.037 5.739,-0.698 17.596,2.557c18.273,5.015 21.639,6.68 21.235,7.675c-0.43,1.12 -5.289,4.133 -5.27,4.762c0.052,1.094 15.21,-1.31 17.863,-1.199c6.57,0.281 10.706,0.459 16.65,0.326c12.513,-0.278 20.797,-1.662 21.348,-0.747c0.411,0.673 -3.42,4.85 -3.103,5.221c0.415,0.483 7.85,-3.861 16.345,-6.391c7.585,-2.253 9.079,-3.473 15.887,-5.577c5.322,-1.638 10.95,-2.921 16.774,-3.824c5.789,3.564 10.246,6.19 13.344,7.983c3.261,1.882 4.162,2.355 5.589,3.475c3.653,2.863 5.175,8.342 6.949,8.224c0.837,-0.048 0.398,-3.642 1.87,-4.623c2.913,-1.943 5.994,1.296 6.36,0.27c0.117,-0.325 -0.118,-3.904 -5.903,-6.634c-2.793,-1.32 -4.397,-1.95 -7.125,-3.159c-1.257,-0.556 -4.302,-1.9 -7.121,-3.327c-3.107,-1.576 -6.013,-3.28 -8.695,-5.098c0.893,-3.52 2.511,-6.966 4.819,-10.264c7.68,-10.944 21.974,-15.328 20.431,-16.219c-0.785,-0.453 -4.362,-1.521 -6.253,-2.212c-2.264,-0.823 0.849,-4.486 2.287,-10.88c1.147,-5.068 0.464,-8.369 -0.691,-13.946c-0.215,-1.044 -1.045,-4.87 -2.449,-4.9c-1.181,-0.024 -1.483,2.655 -3.071,2.775c-2.102,0.164 -4.752,-4.386 -8.299,-10.268c-6.993,-11.576 -8.981,-14.228 -10.291,-14.103c-0.83,0.078 0.091,1.629 -1.77,3.736c-2.113,2.397 -4.928,2.257 -6.894,4.735c-1.08,1.359 -0.457,1.688 -1.744,3.351c-0.945,1.202 -2.246,2.3 -3.845,3.244c-1.819,-1.922 -2.846,-2.279 -3.498,-2.212c-1.121,0.146 -0.785,1.695 -2.227,4.144c-0.994,1.848 -2.722,3.537 -5.045,4.931c-1.762,1.002 -3.859,1.787 -6.163,2.307c-4.742,-2.886 -10.059,-5.439 -15.838,-7.606c-7.619,-2.848 -18.039,-5.747 -19.771,-4.495c-0.951,0.689 1.276,2.205 0.385,2.671c-1.185,0.624 -5.77,-1.78 -12.906,-4c-7.359,-2.287 -15.461,-3.762 -16.385,-2.897c-0.555,0.52 1.92,1.47 1.347,2.115c-1.064,1.203 -11.453,0.181 -20.91,-2.425c-6.249,-1.731 -9.997,-2.376 -12.614,-2.894c-1.784,-0.353 -3.043,-0.647 -4.21,-1.184Z" style="fill:#c4c406;fill-rule:nonzero;"/><path d="M133.377,117.165c-12.084,-7.07 -24.177,-14.131 -36.283,-21.184c-17.764,-10.346 -35.556,-20.677 -53.376,-30.995c-10,-5.773 -20.136,-9.254 -30.139,-15.03c-0.452,-0.261 -1.422,-0.167 -2.76,0.197l-0.575,0.555c17.824,10.291 37.593,18.693 55.377,29.007c17.784,10.314 35.523,20.644 53.217,30.991c4.555,2.662 9.109,5.325 13.661,7.989l-0.163,0.28c-31.94,7.038 -66.547,9.088 -100.309,5.936c-6.812,-0.644 -9.528,0.975 -16.191,-0.065c-0.725,-0.113 -4.722,1.453 -4.099,1.551l2.242,-0.452c30.781,4.819 59.183,2.677 90.323,-1.3c8.326,-1.078 16.521,-2.47 24.533,-4.168c1.373,-0.292 3.022,-0.52 4.275,-0.956c0.167,-0.058 0.317,-0.127 0.453,-0.204c5.009,2.932 10.015,5.864 15.019,8.797c0.446,0.257 2.065,-0.83 1.521,-1.153c-5.118,-3 -10.239,-6 -15.36,-8.996c0.177,-0.354 0.317,-0.71 0.488,-1.011c1.193,-2.109 2.325,-4.229 3.396,-6.362c4.591,-9.14 7.916,-18.476 9.944,-27.921c2.622,-12.291 2.674,-23.773 0.652,-36.103c-0.812,0.806 -1.36,0.526 -1.293,0.953c3.208,19.934 -0.13,38.876 -8.808,58.258c-1.704,3.83 -3.619,7.626 -5.745,11.386Zm-0.818,1.761l-0.223,0.049c-0.092,0.157 -0.183,0.312 -0.275,0.467l0.888,-0.484l-0.146,-0.086l-0.244,0.054Z" style="fill:#606060;fill-opacity:0.34;fill-rule:nonzero;"/></svg>