<?xml version="1.0" encoding="UTF-8" standalone="no"?><!DOCTYPE svg PUBLIC "-//W3C//DTD SVG 1.1//EN" "http://www.w3.org/Graphics/SVG/1.1/DTD/svg11.dtd"><svg width="100%" height="100%" viewBox="0 0 200 200" version="1.1" xmlns="http://www.w3.org/2000/svg" xmlns:xlink="http://www.w3.org/1999/xlink" xml:space="preserve" xmlns:serif="http://www.serif.com/" style="fill-rule:evenodd;clip-rule:evenodd;stroke-linejoin:round;stroke-miterlimit:2;"><path d="M39.815,89.805c-2.505,-0.509 -5.666,-1.276 -9.284,-1.885c-0.52,-0.089 -1.429,-0.29 -2.669,-0.542c-1.53,-0.311 -2.59,-0.857 -3.986,-1.276c-1.28,-0.393 -2.726,-0.709 -3.779,-1.231c-1.322,-0.652 -2.751,-1.525 -4.294,-2.004c-1.132,-0.352 -2.471,0.227 -3.358,0.685c-0.365,0.216 -0.669,0.464 -0.9,0.734c-0.463,0.403 -1.225,0.675 -1.701,1.061c-0.622,0.503 -0.84,1.266 -1.207,1.85c-0.192,0.315 -0.742,0.776 -0.308,1.089c0.231,0.167 1.231,0.294 1.553,0.349c1.589,0.254 3.218,0.418 4.862,0.488c1.277,0.09 2.528,0.275 3.723,0.55l17.631,3.58c3.673,0.869 8.34,2.025 13.688,3.531c-4.648,2.353 -8.988,4.901 -12.985,7.623c-4.027,2.737 -7.697,5.642 -10.981,8.692l1.596,2.754c-2.808,1.904 -5.009,4.08 -6.501,6.428c-0.537,0.853 -0.975,1.726 -1.311,2.613l1.992,1.434c-2.881,4.059 -3.799,8.494 -2.657,12.831l14.254,-2.527c0.238,0.344 0.404,0.704 0.495,1.07c0.153,0.624 -0.038,0.767 0.126,0.893c0.742,0.571 6.655,-0.704 11.708,-3.146c1.974,-0.952 3.763,-2.025 5.337,-3.199c0.326,0.381 0.575,0.783 0.744,1.197c0.517,1.25 0.005,1.874 0.403,2.001c0.819,0.266 4.602,-2.143 8.341,-5.769c1.877,-1.823 3.594,-3.699 5.144,-5.621c-4.363,6.942 -5.588,14.414 -3.558,21.706l4.525,-0.388c3.735,4.385 8.937,8.3 15.306,11.518l2.878,-1.206c4.609,2.681 9.853,4.972 15.576,6.803c2.861,0.91 5.832,1.701 8.889,2.364c2.435,-3.654 3.452,-7.572 2.98,-11.478l2.877,-0.488c0.112,-1.464 0.127,-3.032 -0.005,-4.698c-0.173,-2.429 -0.623,-4.849 -1.348,-7.243c1.285,-0.41 2.328,-1.033 2.992,-1.789c1.13,-1.356 0.363,-2.647 -0.386,-4.325c-1.505,-3.373 -4.766,-11.664 -5.734,-12.692c-0.588,-0.625 5.313,6.739 15.373,8.321c2.615,0.412 3.493,0.111 7.754,0.615c4.609,0.552 9.027,1.542 13.074,2.93c0.741,-0.514 1.199,-1.144 1.314,-1.809c0.064,-0.39 0.004,-0.783 -0.176,-1.161c22.949,0.91 28.416,0.217 28.702,-0.675c0.335,-1.041 -6.544,-2.123 -6.331,-3.506c0.29,-1.861 12.719,-2.879 28.249,-3.435c-11.803,-5.561 -20.065,-10.161 -18.558,-11.619c1.061,-1.026 6.446,0.081 7.142,-0.77c0.697,-0.852 -3.35,-3.233 -20.845,-9.529c1.109,-0.714 1.58,-1.688 1.27,-2.631c-4.164,-0.412 -8.177,-1.227 -11.871,-2.411c-2.078,-0.688 -4.052,-1.476 -5.904,-2.354c-3.641,-1.55 -10.583,-2.718 -24.958,-0.434c7.537,-1.72 13.969,-3.339 19.184,-4.71c3.555,-0.933 7.553,-2.047 8.237,-4.112c0.238,-0.816 0.027,-1.654 -0.604,-2.397c7.118,-3.77 12.508,-6.614 15.675,-8.199c0.735,-0.37 2.533,-1.259 2.142,-1.954c-0.293,-0.526 -1.698,-0.722 -2.561,-0.802l8.264,-7.92c-3.272,-0.416 -6.619,-0.6 -9.968,-0.547c-6.303,0.126 -10.404,1.081 -12.71,-0.215c-0.901,-0.568 -1.409,-1.307 -1.429,-2.077c-2.399,-0.127 -4.975,-0.2 -7.701,-0.194c-6.08,0.012 -12.14,0.41 -18.069,1.186c-1.019,-0.445 -2.039,-0.887 -3.053,-1.331c-5.826,0.744 -11.236,2.321 -15.732,4.586c-7.109,3.587 -9.398,8.842 -10.151,8.666c-0.586,-0.139 1.808,-3.062 1.784,-7.389c-0.022,-3.202 -1.378,-6.208 -2.738,-6.252c-0.462,-0.014 -0.642,0.3 -1.983,0.875c-0.93,0.399 -1.95,0.725 -3.031,0.966c0.083,-5.039 -3.144,-9.914 -9.029,-13.635c-6.659,2.881 -12.072,6.613 -15.815,10.904c-0.333,-0.065 -0.635,-0.176 -0.881,-0.321c-0.989,-0.598 -0.513,-1.597 -0.681,-1.621c-0.69,-0.091 -3.294,6.281 -3.294,6.281c-0.889,2.176 -2.028,4.996 -3.344,8.313c-0.689,-0.298 -1.377,-0.61 -2.08,-0.895c-5.455,6.443 -5.963,13.923 -1.401,20.593c-6.694,-0.426 -11.095,-1.105 -13.934,-1.668Z" style="fill:#fe3737;fill-rule:nonzero;"/><path d="M39.815,89.805c-2.505,-0.509 -5.666,-1.276 -9.284,-1.885c-0.52,-0.089 -1.429,-0.29 -2.669,-0.542c-1.53,-0.311 -2.59,-0.857 -3.986,-1.276c-1.28,-0.393 -2.726,-0.709 -3.779,-1.231c-1.322,-0.652 -2.751,-1.525 -4.294,-2.004c-1.132,-0.352 -2.471,0.227 -3.358,0.685c-0.365,0.216 -0.669,0.464 -0.9,0.734c-0.463,0.403 -1.225,0.675 -1.701,1.061c-0.622,0.503 -0.84,1.266 -1.207,1.85c-0.192,0.315 -0.742,0.776 -0.308,1.089c0.231,0.167 1.231,0.294 1.553,0.349c1.589,0.254 3.218,0.418 4.862,0.488c1.277,0.09 2.528,0.275 3.723,0.55l17.631,3.58c3.673,0.869 8.34,2.025 13.688,3.531c-4.648,2.353 -8.988,4.901 -12.985,7.623c-4.027,2.737 -7.697,5.642 -10.981,8.692l1.596,2.754c-2.808,1.904 -5.009,4.08 -6.501,6.428c-0.537,0.853 -0.975,1.726 -1.311,2.613l1.992,1.434c-2.881,4.059 -3.799,8.494 -2.657,12.831l14.254,-2.527c0.238,0.344 0.404,0.704 0.495,1.07c0.153,0.624 -0.038,0.767 0.126,0.893c0.742,0.571 6.655,-0.704 11.708,-3.146c1.974,-0.952 3.763,-2.025 5.337,-3.199c0.326,0.381 0.575,0.783 0.744,1.197c0.517,1.25 0.005,1.874 0.403,2.001c0.819,0.266 4.602,-2.143 8.341,-5.769c1.877,-1.823 3.594,-3.699 5.144,-5.621c-4.363,6.942 -5.588,14.414 -3.558,21.706l4.525,-0.388c3.735,4.385 8.937,8.3 15.306,11.518l2.878,-1.206c4.609,2.681 9.853,4.972 15.576,6.803c2.861,0.91 5.832,1.701 8.889,2.364c2.435,-3.654 3.452,-7.572 2.98,-11.478l2.877,-0.488c0.112,-1.464 0.127,-3.032 -0.005,-4.698c-0.173,-2.429 -0.623,-4.849 -1.348,-7.243c1.285,-0.41 2.328,-1.033 2.992,-1.789c1.13,-1.356 0.363,-2.647 -0.386,-4.325c-1.505,-3.373 -4.766,-11.664 -5.734,-12.692c-0.588,-0.625 5.313,6.739 15.373,8.321c2.615,0.412 3.493,0.111 7.754,0.615c4.609,0.552 9.027,1.542 13.074,2.93c0.741,-0.514 1.199,-1.144 1.314,-1.809c0.064,-0.39 0.004,-0.783 -0.176,-1.161c22.949,0.91 28.416,0.217 28.702,-0.675c0.335,-1.041 -6.544,-2.123 -6.331,-3.506c0.29,-1.861 12.719,-2.879 28.249,-3.435c-11.803,-5.561 -20.065,-10.161 -18.558,-11.619c1.061,-1.026 6.446,0.081 7.142,-0.77c0.697,-0.852 -3.35,-3.233 -20.845,-9.529c1.109,-0.714 1.58,-1.688 1.27,-2.631c-4.164,-0.412 -8.177,-1.227 -11.871,-2.411c-2.078,-0.688 -4.052,-1.476 -5.904,-2.354c-3.641,-1.55 -10.583,-2.718 -24.958,-0.434c7.537,-1.72 13.969,-3.339 19.184,-4.71c3.555,-0.933 7.553,-2.047 8.237,-4.112c0.238,-0.816 0.027,-1.654 -0.604,-2.397c7.118,-3.77 12.508,-6.614 15.675,-8.199c0.735,-0.37 2.533,-1.259 2.142,-1.954c-0.293,-0.526 -1.698,-0.722 -2.561,-0.802l8.264,-7.92c-3.272,-0.416 -6.619,-0.6 -9.968,-0.547c-6.303,0.126 -10.404,1.081 -12.71,-0.215c-0.901,-0.568 -1.409,-1.307 -1.429,-2.077c-2.399,-0.127 -4.975,-0.2 -7.701,-0.194c-6.08,0.012 -12.14,0.41 -18.069,1.186c-1.019,-0.445 -2.039,-0.887 -3.053,-1.331c-5.826,0.744 -11.236,2.321 -15.732,4.586c-7.109,3.587 -9.398,8.842 -10.151,8.666c-0.586,-0.139 1.808,-3.062 1.784,-7.389c-0.022,-3.202 -1.378,-6.208 -2.738,-6.252c-0.462,-0.014 -0.642,0.3 -1.983,0.875c-0.93,0.399 -1.95,0.725 -3.031,0.966c0.083,-5.039 -3.144,-9.914 -9.029,-13.635c-6.659,2.881 -12.072,6.613 -15.815,10.904c-0.333,-0.065 -0.635,-0.176 -0.881,-0.321c-0.989,-0.598 -0.513,-1.597 -0.681,-1.621c-0.69,-0.091 -3.294,6.281 -3.294,6.281c-0.889,2.176 -2.028,4.996 -3.344,8.313c-0.689,-0.298 -1.377,-0.61 -2.08,-0.895c-5.455,6.443 -5.963,13.923 -1.401,20.593c-6.694,-0.426 -11.095,-1.105 -13.934,-1.668Z" style="fill:#5b5b5b;fill-opacity:0.52;fill-rule:nonzero;"/><path d="M39.981,85.924c-2.505,-0.509 -5.666,-1.277 -9.285,-1.886c-0.519,-0.089 -1.428,-0.29 -2.668,-0.541c-1.53,-0.311 -2.591,-0.857 -3.986,-1.277c-1.28,-0.392 -2.727,-0.709 -3.779,-1.23c-1.322,-0.653 -2.751,-1.525 -4.294,-2.004c-1.133,-0.352 -2.471,0.226 -3.358,0.685c-0.365,0.216 -0.669,0.463 -0.9,0.734c-0.463,0.402 -1.225,0.675 -1.701,1.061c-0.622,0.503 -0.84,1.266 -1.208,1.85c-0.191,0.315 -0.858,4.514 -0.424,4.828c0.231,0.166 1.368,-1.809 2.436,-2.689c1.242,-1.024 2.451,-0.284 4.096,-0.214c1.277,0.091 2.528,0.276 3.723,0.551l17.631,3.58c3.673,0.868 8.34,2.025 13.688,3.531c-4.648,2.353 -8.988,4.901 -12.985,7.623c-4.027,2.737 -7.698,5.642 -10.982,8.692l1.596,2.753c-2.807,1.905 -5.008,4.081 -6.501,6.428c-0.536,0.854 -1.203,5.73 -1.539,6.617l2.221,-2.57c-2.881,4.059 -4.106,12.283 -2.963,16.62l14.56,-6.315c0.237,0.344 0.403,0.703 0.494,1.07c0.154,0.624 -0.185,4.709 -0.021,4.835c0.741,0.571 6.803,-4.646 11.856,-7.088c1.974,-0.952 3.763,-2.025 5.337,-3.2c0.325,0.382 0.575,0.783 0.744,1.197c0.517,1.251 -0.112,5.559 0.286,5.686c0.819,0.266 4.719,-5.828 8.458,-9.454c1.877,-1.822 3.594,-3.698 5.144,-5.621c-4.363,6.943 -5.702,18.286 -3.672,25.579l4.638,-4.26c3.735,4.385 8.871,11.975 15.239,15.193l2.946,-4.882c4.609,2.682 4.129,2.801 9.46,5.573c2.86,1.487 11.749,6.676 14.807,7.34c2.435,-3.654 3.65,-11.318 3.178,-15.223l2.843,3.439c0.112,-1.463 0.161,-6.96 0.029,-8.625c-0.173,-2.429 -0.624,-4.849 -1.349,-7.244c1.285,-0.409 2.612,1.565 3.277,0.809c1.13,-1.356 0.079,-5.244 -0.67,-6.922c-1.505,-3.374 -4.767,-11.665 -5.734,-12.692c-0.588,-0.626 5.313,6.739 15.373,8.321c2.615,0.412 3.492,0.11 7.754,0.615c4.609,0.552 8.927,5.485 12.974,6.873c0.741,-0.514 1.632,-3.913 1.747,-4.578c0.064,-0.39 -0.329,-1.957 -0.509,-2.335c22.949,0.91 28.69,4.186 28.975,3.294c0.336,-1.04 -6.817,-6.092 -6.605,-7.476c0.291,-1.86 12.538,0.934 28.068,0.377c-11.803,-5.561 -19.883,-13.972 -18.376,-15.43c1.061,-1.026 6.27,3.61 6.967,2.758c0.696,-0.851 -3.176,-6.761 -20.671,-13.057c1.11,-0.714 1.58,-1.689 1.271,-2.631c-4.164,-0.412 -8.178,-1.227 -11.871,-2.411c-2.078,-0.689 -4.053,-1.476 -5.904,-2.354c-3.642,-1.55 -10.583,-2.718 -24.958,-0.434c7.536,-1.72 13.969,-3.339 19.183,-4.71c3.555,-0.933 7.524,0.913 8.209,-1.153c0.237,-0.815 0.055,-4.613 -0.575,-5.356c7.118,-3.77 12.483,-4.566 15.649,-6.15c0.736,-0.37 2.594,0.595 2.203,-0.1c-0.293,-0.526 -2.842,-2.476 -3.705,-2.555l9.16,-6.119c-3.271,-0.417 -6.406,-4.551 -9.755,-4.499c-6.303,0.127 -10.404,1.082 -12.71,-0.214c-0.901,-0.568 -1.41,-1.308 -1.429,-2.078c-2.4,-0.126 -4.975,-0.199 -7.701,-0.193c-6.08,0.012 -12.14,0.41 -18.069,1.186c-1.019,-0.445 -2.039,-0.887 -3.053,-1.331c-5.826,0.744 -11.236,2.321 -15.732,4.586c-7.109,3.587 -9.399,8.841 -10.151,8.665c-0.587,-0.138 1.807,-3.061 1.784,-7.389c-0.022,-3.201 -1.378,-6.207 -2.738,-6.251c-0.462,-0.015 -0.642,0.3 -1.984,0.874c-0.93,0.4 -1.949,0.725 -3.031,0.967c0.084,-5.039 -3.144,-9.914 -9.028,-13.636c-6.659,2.881 -12.072,6.614 -15.815,10.905c-0.333,-0.066 -0.636,-0.176 -0.882,-0.322c-0.988,-0.597 -0.512,-1.596 -0.68,-1.621c-0.691,-0.09 -3.294,6.282 -3.294,6.282c-0.89,2.176 -2.029,4.996 -3.344,8.313c-0.69,-0.299 -1.377,-0.61 -2.08,-0.895c-5.455,6.442 -5.964,13.923 -1.401,20.592c-6.694,-0.426 -11.096,-1.104 -13.934,-1.667Z" style="fill:#fe3737;fill-rule:nonzero;"/><path d="M66.108,92.71l-13.278,-2.632c-0.433,-0.088 -1.002,0.76 -0.593,0.843l13.314,2.638c-5.095,7.598 -12.912,14.927 -20.545,21.729c-7.821,6.956 -16.522,13.569 -26.034,19.784c-0.439,0.288 -0.497,0.872 0.216,0.408c14.818,-9.67 27.677,-20.285 38.328,-31.638c2.645,-2.824 5.153,-5.687 7.526,-8.59c0.398,-0.489 0.769,-0.982 1.118,-1.479c13.606,22.653 27.83,45.174 42.673,67.565c0.131,0.199 1.036,-0.468 0.863,-0.728c-14.636,-22.084 -28.677,-44.3 -42.123,-66.65c43.17,8.553 83.219,20.34 126.393,28.897c0.434,0.088 0.862,-0.804 0.452,-0.884l-126.997,-29.003c33.271,-13.556 62.504,-23.138 103.678,-29.003c0.39,-0.055 0.594,-1.164 0.043,-1.031c-44.736,6.741 -71.245,16.036 -104.129,29.55c1.219,-1.945 2.168,-3.936 3.134,-5.954c3.196,-6.711 5.774,-13.516 7.723,-20.385c2.067,-7.305 3.428,-14.672 4.075,-22.065c0.031,-0.325 -1.065,0.26 -1.089,0.507l-0.01,-0.002c-0.672,7.671 -2.112,15.313 -4.312,22.888c-2.446,8.369 -5.283,17.235 -10.426,25.235Zm0.677,0.134l0.133,0.026l-0.072,-0.12l-0.061,0.094Z" style="fill:#5b5b5b;fill-opacity:0.39;fill-rule:nonzero;"/></svg>
