<?xml version="1.0" encoding="UTF-8" standalone="no"?><!DOCTYPE svg PUBLIC "-//W3C//DTD SVG 1.1//EN" "http://www.w3.org/Graphics/SVG/1.1/DTD/svg11.dtd"><svg width="100%" height="100%" viewBox="0 0 200 200" version="1.1" xmlns="http://www.w3.org/2000/svg" xmlns:xlink="http://www.w3.org/1999/xlink" xml:space="preserve" xmlns:serif="http://www.serif.com/" style="fill-rule:evenodd;clip-rule:evenodd;stroke-linejoin:round;stroke-miterlimit:2;"><path d="M128.391,128.382c1.216,1.157 2.629,2.703 4.509,4.288c0.268,0.228 0.693,0.66 1.295,1.232c0.743,0.707 0.937,1.423 1.484,2.16c0.493,0.681 1.173,1.365 1.385,2.061c0.27,0.873 0.399,1.93 0.988,2.756c0.431,0.606 1.906,0.644 2.956,0.618c0.459,-0.029 0.906,-0.1 1.326,-0.21c0.706,-0.125 1.491,-0.065 2.19,-0.175c0.912,-0.142 1.801,-0.592 2.618,-0.872c0.437,-0.153 1.259,-0.29 1.267,-0.644c0.003,-0.188 -0.557,-0.598 -0.723,-0.74c-0.837,-0.687 -1.791,-1.325 -2.845,-1.904c-0.784,-0.475 -1.458,-1.006 -2.007,-1.58l-8.562,-8.142c-1.665,-1.78 -3.729,-4.078 -5.918,-6.834c5.453,-0.104 10.886,-0.44 16.254,-1.006c5.403,-0.566 10.726,-1.363 15.924,-2.383l1.581,-2.395c3.763,-0.392 7.375,-1.166 10.67,-2.286c1.194,-0.409 2.34,-0.863 3.429,-1.36l0.031,-1.623c5.902,-1.839 10.831,-4.569 14.256,-7.898l-12.179,-2.883c0.172,-0.312 0.407,-0.611 0.701,-0.89c0.5,-0.476 0.769,-0.512 0.779,-0.651c0.048,-0.629 -5.225,-1.67 -11.042,-1.637c-2.27,0.012 -4.532,0.166 -6.745,0.459c0.148,-0.366 0.367,-0.721 0.653,-1.058c0.86,-1.02 1.814,-1.281 1.666,-1.496c-0.301,-0.446 -5.22,-0.025 -11.288,1.241c-3.049,0.638 -6.04,1.363 -8.962,2.174c9.711,-3.328 17.793,-8.032 23.479,-13.665l-3.465,-1.198c1.703,-4.2 1.948,-8.553 0.722,-12.808l-3.134,-0.108c-0.545,-3.319 -1.903,-6.578 -4.033,-9.678c-1.07,-1.546 -2.332,-3.045 -3.775,-4.487c-5.205,1.707 -9.699,4.053 -13.164,6.871l-2.437,-0.597c-1.496,0.963 -3.028,2.029 -4.552,3.208c-2.238,1.714 -4.277,3.511 -6.105,5.38c-1.274,-0.136 -2.59,-0.047 -3.777,0.253c-2.086,0.561 -2.814,1.69 -3.93,3.077c-2.244,2.789 -8.058,9.502 -8.394,10.516c-0.205,0.617 2.908,-6.317 -2.423,-10.649c-1.386,-1.126 -2.277,-1.204 -4.696,-2.926c-2.611,-1.866 -4.667,-3.97 -6.083,-6.225c-1.003,0.111 -1.927,0.393 -2.65,0.809c-0.422,0.246 -0.763,0.534 -1.006,0.85c-14.781,-8.04 -19.185,-9.333 -20.244,-8.817c-1.239,0.602 2.407,3.564 0.92,4.44c-2.002,1.176 -11.472,-2.147 -22.611,-6.788c2.663,7.611 3.841,13.421 1.399,13.929c-1.719,0.358 -4.321,-2.138 -5.622,-1.782c-1.301,0.356 -0.847,3.289 4.988,13.241c-1.45,0.129 -2.716,0.642 -3.419,1.385c2.442,1.628 4.391,3.481 5.765,5.483c0.75,1.142 1.334,2.317 1.747,3.515c0.982,2.235 4.587,5.276 16.613,8.364c-6.812,-1.263 -12.773,-2.236 -17.661,-2.987c-3.331,-0.512 -7.14,-1.044 -9.61,0.145c-0.953,0.479 -1.622,1.12 -1.912,1.83c-8.514,0.273 -14.951,0.472 -18.649,0.53c-0.861,0.015 -2.95,0.041 -3.357,0.641c-0.311,0.454 0.459,1.042 0.971,1.375l-13.321,2.735c1.829,1.341 3.936,2.549 6.272,3.595c4.425,1.951 8.149,2.625 8.467,4.255c0.064,0.679 -0.306,1.348 -1.039,1.88c1.515,0.862 3.202,1.744 5.068,2.621c4.162,1.958 8.683,3.645 13.483,5.032c0.264,0.633 0.531,1.264 0.792,1.895c4.699,1.375 9.921,2.047 15.186,1.955c8.33,-0.15 14.988,-2.996 15.331,-2.633c0.265,0.284 -4.203,1.505 -8.383,4.466c-3.09,2.193 -5.079,4.683 -4.194,5.153c0.301,0.158 0.729,0.002 2.202,0.044c1.023,0.027 2.034,0.135 3.006,0.32c-4.943,3.412 -7.468,7.782 -7.06,12.225c7.338,0.186 14.652,-0.612 21.368,-2.331c0.164,0.153 0.263,0.326 0.29,0.504c0.095,0.728 -1.199,1.256 -1.107,1.327c0.383,0.285 8.339,-3.223 8.339,-3.223c2.717,-1.197 6.229,-2.754 10.344,-4.593c0.181,0.427 0.348,0.862 0.551,1.284c9.971,-2.634 17.572,-7.575 20.926,-13.602c4.155,2.454 6.502,4.34 7.893,5.642Z" style="fill:#e20c0c;fill-rule:nonzero;"/><path d="M128.391,128.382c1.216,1.157 2.629,2.703 4.509,4.288c0.268,0.228 0.693,0.66 1.295,1.232c0.743,0.707 0.937,1.423 1.484,2.16c0.493,0.681 1.173,1.365 1.385,2.061c0.27,0.873 0.399,1.93 0.988,2.756c0.431,0.606 1.906,0.644 2.956,0.618c0.459,-0.029 0.906,-0.1 1.326,-0.21c0.706,-0.125 1.491,-0.065 2.19,-0.175c0.912,-0.142 1.801,-0.592 2.618,-0.872c0.437,-0.153 1.259,-0.29 1.267,-0.644c0.003,-0.188 -0.557,-0.598 -0.723,-0.74c-0.837,-0.687 -1.791,-1.325 -2.845,-1.904c-0.784,-0.475 -1.458,-1.006 -2.007,-1.58l-8.562,-8.142c-1.665,-1.78 -3.729,-4.078 -5.918,-6.834c5.453,-0.104 10.886,-0.44 16.254,-1.006c5.403,-0.566 10.726,-1.363 15.924,-2.383l1.581,-2.395c3.763,-0.392 7.375,-1.166 10.67,-2.286c1.194,-0.409 2.34,-0.863 3.429,-1.36l0.031,-1.623c5.902,-1.839 10.831,-4.569 14.256,-7.898l-12.179,-2.883c0.172,-0.312 0.407,-0.611 0.701,-0.89c0.5,-0.476 0.769,-0.512 0.779,-0.651c0.048,-0.629 -5.225,-1.67 -11.042,-1.637c-2.27,0.012 -4.532,0.166 -6.745,0.459c0.148,-0.366 0.367,-0.721 0.653,-1.058c0.86,-1.02 1.814,-1.281 1.666,-1.496c-0.301,-0.446 -5.22,-0.025 -11.288,1.241c-3.049,0.638 -6.04,1.363 -8.962,2.174c9.711,-3.328 17.793,-8.032 23.479,-13.665l-3.465,-1.198c1.703,-4.2 1.948,-8.553 0.722,-12.808l-3.134,-0.108c-0.545,-3.319 -1.903,-6.578 -4.033,-9.678c-1.07,-1.546 -2.332,-3.045 -3.775,-4.487c-5.205,1.707 -9.699,4.053 -13.164,6.871l-2.437,-0.597c-1.496,0.963 -3.028,2.029 -4.552,3.208c-2.238,1.714 -4.277,3.511 -6.105,5.38c-1.274,-0.136 -2.59,-0.047 -3.777,0.253c-2.086,0.561 -2.814,1.69 -3.93,3.077c-2.244,2.789 -8.058,9.502 -8.394,10.516c-0.205,0.617 2.908,-6.317 -2.423,-10.649c-1.386,-1.126 -2.277,-1.204 -4.696,-2.926c-2.611,-1.866 -4.667,-3.97 -6.083,-6.225c-1.003,0.111 -1.927,0.393 -2.65,0.809c-0.422,0.246 -0.763,0.534 -1.006,0.85c-14.781,-8.04 -19.185,-9.333 -20.244,-8.817c-1.239,0.602 2.407,3.564 0.92,4.44c-2.002,1.176 -11.472,-2.147 -22.611,-6.788c2.663,7.611 3.841,13.421 1.399,13.929c-1.719,0.358 -4.321,-2.138 -5.622,-1.782c-1.301,0.356 -0.847,3.289 4.988,13.241c-1.45,0.129 -2.716,0.642 -3.419,1.385c2.442,1.628 4.391,3.481 5.765,5.483c0.75,1.142 1.334,2.317 1.747,3.515c0.982,2.235 4.587,5.276 16.613,8.364c-6.812,-1.263 -12.773,-2.236 -17.661,-2.987c-3.331,-0.512 -7.14,-1.044 -9.61,0.145c-0.953,0.479 -1.622,1.12 -1.912,1.83c-8.514,0.273 -14.951,0.472 -18.649,0.53c-0.861,0.015 -2.95,0.041 -3.357,0.641c-0.311,0.454 0.459,1.042 0.971,1.375l-13.321,2.735c1.829,1.341 3.936,2.549 6.272,3.595c4.425,1.951 8.149,2.625 8.467,4.255c0.064,0.679 -0.306,1.348 -1.039,1.88c1.515,0.862 3.202,1.744 5.068,2.621c4.162,1.958 8.683,3.645 13.483,5.032c0.264,0.633 0.531,1.264 0.792,1.895c4.699,1.375 9.921,2.047 15.186,1.955c8.33,-0.15 14.988,-2.996 15.331,-2.633c0.265,0.284 -4.203,1.505 -8.383,4.466c-3.09,2.193 -5.079,4.683 -4.194,5.153c0.301,0.158 0.729,0.002 2.202,0.044c1.023,0.027 2.034,0.135 3.006,0.32c-4.943,3.412 -7.468,7.782 -7.06,12.225c7.338,0.186 14.652,-0.612 21.368,-2.331c0.164,0.153 0.263,0.326 0.29,0.504c0.095,0.728 -1.199,1.256 -1.107,1.327c0.383,0.285 8.339,-3.223 8.339,-3.223c2.717,-1.197 6.229,-2.754 10.344,-4.593c0.181,0.427 0.348,0.862 0.551,1.284c9.971,-2.634 17.572,-7.575 20.926,-13.602c4.155,2.454 6.502,4.34 7.893,5.642Z" style="fill:#5b5b5b;fill-opacity:0.51;fill-rule:nonzero;"/><path d="M128.399,124.896c1.216,1.157 2.629,2.703 4.509,4.288c0.268,0.229 0.693,0.66 1.295,1.232c0.743,0.707 0.937,1.423 1.483,2.16c0.494,0.681 1.174,1.365 1.386,2.061c0.27,0.873 0.715,5.538 1.304,6.364c0.431,0.606 1.59,-2.964 2.64,-2.99c0.458,-0.029 0.906,-0.1 1.326,-0.21c0.706,-0.125 3.968,2.073 4.785,1.793c0.437,-0.153 1.32,0.32 1.328,-0.034c0.003,-0.188 -0.595,-4.048 -0.761,-4.19c-0.838,-0.687 -1.791,-1.325 -2.845,-1.904c-0.784,-0.475 -1.458,-1.006 -2.007,-1.58l-8.562,-8.142c-1.665,-1.78 -3.729,-4.078 -5.919,-6.834c5.454,-0.104 10.887,-0.44 16.255,-1.006c5.403,-0.566 10.913,1.642 16.112,0.622l1.393,-5.4c3.763,-0.392 3.085,0.271 6.564,0.361c1.642,0.043 6.597,-0.27 7.687,-0.767l-0.121,-4.862c5.902,-1.839 10.823,-1.261 14.249,-4.591l-12.172,-6.191c0.172,-0.312 0.407,-0.611 0.701,-0.89c0.5,-0.475 0.769,-0.512 0.779,-0.651c0.047,-0.629 -5.225,-1.67 -11.042,-1.637c-2.27,0.012 -4.532,0.166 -6.745,0.459c0.148,-0.366 0.367,-0.721 0.653,-1.058c0.86,-1.02 1.814,-1.281 1.666,-1.496c-0.301,-0.446 -5.22,-0.025 -11.288,1.241c-3.049,0.638 -6.04,1.363 -8.962,2.174c9.711,-3.328 17.738,-5.001 23.424,-10.635l-3.41,-4.227c1.703,-4.2 1.948,-8.554 0.722,-12.809l-3.134,-0.107c-0.546,-3.32 -1.903,-6.579 -4.033,-9.679c-1.07,-1.546 -2.332,-3.045 -3.775,-4.487c-5.205,1.707 -9.699,4.053 -13.165,6.871l-2.437,-0.596c-1.495,0.962 -3.027,2.028 -4.551,3.207c-2.238,1.714 -4.277,3.511 -6.105,5.38c-1.274,-0.136 -2.59,-0.047 -3.777,0.253c-2.086,0.561 -2.814,1.69 -3.93,3.077c-2.244,2.789 -8.058,9.502 -8.394,10.516c-0.206,0.617 2.908,-6.317 -2.423,-10.648c-1.386,-1.127 -2.277,-1.205 -4.696,-2.926c-2.611,-1.867 -4.667,-3.971 -6.083,-6.226c-1.003,0.111 -1.927,0.393 -2.65,0.81c-0.422,0.245 -0.763,0.533 -1.006,0.849c-14.781,-8.039 -19.8,-6.114 -20.86,-5.598c-1.238,0.602 3.023,0.345 1.536,1.221c-2.002,1.176 -11.472,-2.147 -22.611,-6.787c-0.475,5.057 3.048,12.775 1.399,13.928c-1.163,0.814 -4.542,0.776 -5.843,1.132c-1.301,0.356 -0.626,0.375 5.209,10.327c-1.45,0.129 -3.107,3.936 -3.81,4.68c2.442,1.627 4.782,0.186 6.156,2.188c0.75,1.142 1.334,2.317 1.746,3.515c0.983,2.235 4.588,5.276 16.614,8.364c-6.812,-1.262 -12.773,-2.236 -17.661,-2.986c-3.331,-0.513 -7.14,-1.045 -9.61,0.144c-0.953,0.479 -1.622,1.12 -1.912,1.83c-8.515,0.273 -14.951,0.472 -18.649,0.53c-0.861,0.015 -2.95,0.041 -3.357,0.641c-0.311,0.454 0.458,1.042 0.971,1.375l-13.651,6.39c1.829,1.342 5.706,0.591 8.042,1.638c4.425,1.951 6.709,0.928 7.027,2.557c0.064,0.679 -0.306,1.348 -1.039,1.88c1.515,0.862 3.202,1.744 5.068,2.622c4.162,1.957 8.683,3.644 13.483,5.031c0.264,0.633 0.348,3.963 0.609,4.593c4.699,1.376 10.103,-0.65 15.368,-0.743c8.331,-0.15 14.989,-2.996 15.332,-2.633c0.265,0.284 -4.203,1.505 -8.383,4.467c-3.09,2.192 -5.521,8.214 -4.636,8.684c0.301,0.159 2.432,-3.222 3.905,-3.181c1.023,0.028 0.773,-0.172 1.745,0.013c-4.944,3.412 -7.719,11.244 -7.312,15.686c7.339,0.186 14.904,-4.073 21.62,-5.792c0.164,0.153 0.263,0.326 0.29,0.505c0.095,0.727 -0.934,4.647 -0.843,4.718c0.383,0.284 8.075,-6.615 8.075,-6.615c2.717,-1.197 6.229,-2.754 10.344,-4.593c0.181,0.427 0.403,4.213 0.606,4.635c9.971,-2.634 17.517,-10.926 20.871,-16.953c4.155,2.454 6.502,4.34 7.893,5.642Z" style="fill:#e20c0c;fill-rule:nonzero;"/><path d="M116.503,111.217c-35.792,-4.371 -70.043,-7.943 -104.291,-9.264c-0.354,-0.013 -2.105,0.572 -1.6,0.659c34.584,2.59 69.67,5.222 105.701,9.067c-2.718,0.934 -5.297,1.986 -7.914,3.051c-8.689,3.548 -17.047,7.358 -25.038,11.417c-6.106,3.103 -11.994,6.346 -17.649,9.721c-2.212,1.32 -4.577,2.997 -5.912,5.348c-0.196,0.346 1.747,-0.741 1.747,-0.741c1.84,-1.169 2.58,-2.898 4.473,-4.038c6.233,-3.752 12.753,-7.344 19.54,-10.765c9.786,-4.921 20.319,-10.055 31.587,-13.853l6.511,6.088c0.21,0.2 1.42,-0.195 1.222,-0.383l-6.529,-6.105c10.845,-3.538 23.288,-6.014 35.094,-8.189c12.083,-2.22 23.128,-0.518 35.647,-1.685c0.579,-0.055 0.736,-0.456 -0.204,-0.493c-26.164,-1.028 -36.803,1.641 -55.082,5.947c-4.543,1.072 -9.031,2.215 -13.466,3.43c-0.746,0.205 -1.478,0.422 -2.198,0.648c12.682,-19.86 24.813,-39.828 36.395,-59.909c0.104,-0.178 -1.161,-0.016 -1.295,0.218c-11.426,19.804 -23.386,39.505 -35.882,59.107c-21.171,-19.793 -42.34,-39.587 -63.509,-59.383c-0.21,-0.201 -1.42,0.194 -1.218,0.381l63.87,59.726Zm0.18,0.336l0.132,-0.045l-0.065,-0.06l-0.067,0.105Z" style="fill:#666;fill-opacity:0.41;fill-rule:nonzero;"/></svg>
