<?xml version="1.0" encoding="UTF-8" standalone="no"?><!DOCTYPE svg PUBLIC "-//W3C//DTD SVG 1.1//EN" "http://www.w3.org/Graphics/SVG/1.1/DTD/svg11.dtd"><svg width="100%" height="100%" viewBox="0 0 200 200" version="1.1" xmlns="http://www.w3.org/2000/svg" xmlns:xlink="http://www.w3.org/1999/xlink" xml:space="preserve" xmlns:serif="http://www.serif.com/" style="fill-rule:evenodd;clip-rule:evenodd;stroke-linejoin:round;stroke-miterlimit:2;"><path d="M97.873,73.564c-0.465,-0.92 -0.385,-1.359 -0.689,-2.824c-0.265,-1.254 -0.73,-3.302 -1.85,-7.384c-0.036,-0.125 -0.454,-1.604 -0.801,-3.507c-0.165,-0.691 -0.247,-1.388 -0.248,-2.085c0.022,-0.749 -0.1,-1.514 0.203,-2.246c0.302,-0.731 0.719,-1.44 1.073,-2.174c0.354,-0.733 0.954,-1.487 1.11,-2.213c0.077,-0.368 -0.093,-0.741 -0.475,-1.039c-0.588,-0.401 -1.629,-0.196 -2.478,-0.239c-1.361,-0.07 -2.654,-0.121 -3.942,0.22c-0.854,0.27 -1.742,0.503 -2.655,0.698c-0.854,0.144 -1.576,0.113 -1.921,0.659c-0.23,0.365 -0.048,0.773 -0.202,1.153c-0.154,0.379 -0.188,0.597 -0.359,1.033c-0.293,0.869 -0.347,1.758 -0.158,2.637c0.131,0.811 0.383,1.614 0.754,2.4c0.361,0.869 0.798,1.726 1.312,2.569c0.344,0.58 0.714,1.215 0.864,1.377c0.286,0.313 0.51,0.643 0.669,0.985c0.51,0.946 0.876,1.903 1.485,2.831c0.61,0.928 0.7,1.922 1.441,2.777c0.657,0.773 1.116,1.597 1.363,2.447c0.158,0.559 0.569,1.121 0.811,1.675c0.242,0.554 0.277,1.113 0.472,1.671c0.128,0.351 0.149,0.711 0.233,1.077c0.173,0.76 0.511,1.03 0.216,1.267c-0.272,0.203 -0.738,0.285 -1.159,0.205c-0.71,-0.188 -0.699,-0.922 -0.906,-1.521c-0.481,-1.247 -2.203,-1.988 -4.468,-2.955c-1.959,-0.843 -4.224,-1.419 -6.624,-1.682c-1.205,-0.115 -2.426,-0.166 -3.647,-0.151c-2.688,-0.002 -2.786,0.241 -4.098,0.208c-0.263,-0.005 -1.085,-0.038 -1.232,0.166c-0.11,0.216 0.976,0.542 1.751,0.894c0.602,0.312 1.14,0.663 1.603,1.046c1.536,1.127 2.068,1.881 3.263,2.861c1.424,1.145 3.162,2.148 5.143,2.972c1.028,0.428 2.119,0.804 3.261,1.123c-16.108,-1.741 -25.234,-0.11 -30.618,1.787c-2.837,0.998 -6.419,2.691 -13.753,4.926c-2.806,0.854 -4.681,1.336 -10.859,3.219c-8.071,2.449 -6.386,2.085 -7.659,2.391c-2.338,0.564 -4.745,0.997 -4.691,1.541c0.024,0.272 0.702,0.482 1.264,0.619c5.967,1.409 23.784,1.207 23.784,1.207c8.016,-0.091 8.64,0.284 17.941,0.08c3.966,-0.099 7.389,-0.238 10.073,-0.381c-3.571,0.591 -7.037,1.377 -10.349,2.348c-3.313,0.971 -13.178,3.847 -21.178,10.048c-0.839,0.758 -1.819,1.461 -2.922,2.096c-0.671,0.335 -1.274,0.713 -1.797,1.127c-0.454,0.377 -0.835,0.781 -1.138,1.206c-0.823,1.044 -1.842,1.524 -3.323,2.542c-1.813,1.242 -2.469,2.017 -3.848,3.212c-5.471,4.799 -15.96,10.825 -14.886,11.512c0.087,0.055 0.215,0.054 2.246,-0.212c2.473,-0.334 3.71,-0.503 4.455,-0.625c4.157,-0.686 5.692,-0.336 11.144,-1.117c0.841,-0.12 0.326,-0.058 6.465,-1.136c6.511,-1.141 5.786,-0.979 7,-1.209c4.261,-0.844 8.403,-1.877 12.389,-3.089c0.847,-0.25 2.744,-0.808 5.416,-1.702c5.726,-1.912 12.164,-4.067 18.245,-7.468c4.389,-2.465 8.124,-5.291 11.082,-8.386c-0.122,0.728 -0.293,1.807 -0.488,3.116c-0.695,4.642 -1.116,6.968 -1.047,8.491c0.142,3.16 1.479,5.568 4.279,9.719c5.42,8.039 8.821,11.49 13.666,17.777c7.714,10.062 9.381,14.85 11.705,14.658c0.977,-0.092 1.714,-1.018 4.304,-12.293c1.238,-5.391 1.856,-8.085 2.398,-11.482c1.184,-7.453 1.592,-11.187 0.34,-16.003c-0.793,-2.817 -1.928,-5.599 -3.395,-8.325c-1.4,-2.7 -3.072,-5.35 -5.007,-7.938c2.759,1.553 5.726,2.978 8.875,4.26c3.119,1.238 6.378,2.356 9.753,3.347c1.258,0.362 0.984,0.253 5.023,1.35c0.832,0.235 1.685,0.445 2.555,0.629c0.938,0.192 1.895,0.352 2.865,0.48c3.181,0.419 5.718,0.644 5.718,0.644c4.875,0.425 8.167,0.716 12.599,0.734c1.215,0.007 0.471,-0.016 6.835,-0.095c5.996,-0.068 5.512,-0.033 6.324,-0.068c5.236,-0.219 6.422,-0.833 10.449,-0.919c0.946,-0.021 2.052,-0.078 4.272,-0.197c1.958,-0.105 2.056,-0.128 2.098,-0.198c0.683,-0.833 -11.911,-4.708 -19.296,-8.29c-1.657,-0.816 -0.957,-0.459 -5.102,-2.369c-11.363,-5.243 -17.149,-7.897 -22.142,-9.359c-8.259,-2.437 -13.936,-2.786 -15.985,-2.886c-2.358,-0.101 -4.727,-0.07 -7.074,0.093c5.003,-0.411 9.92,-1.116 14.674,-2.105c4.207,-0.883 4.465,-1.198 11.141,-2.645c7.026,-1.522 10.538,-2.284 10.834,-2.314c0.579,-0.055 4.837,-0.503 7.447,-1.916c1.048,-0.568 0.949,-0.817 0.899,-0.892c-0.255,-0.382 -2.04,-0.302 -2.492,-0.286c-4.954,0.17 -15.186,-1.575 -18.124,-2.076c-6.86,-1.171 -8.874,-2.307 -15.234,-2.517c-0.816,-0.025 -1.631,-0.033 -3.272,-0.019c-9.097,0.07 -14.623,1.057 -14.623,1.057c-1.63,0.293 -3.221,0.654 -4.76,1.08c-1.106,0.308 -2.184,0.649 -3.23,1.021c1.317,-0.955 2.531,-1.955 3.638,-2.995c1.162,-1.087 0.984,-1.076 2.355,-2.418c2.578,-2.555 3.871,-3.833 5.544,-4.844c0.582,-0.349 1.718,-1.005 1.529,-1.204c-0.06,-0.06 -0.278,-0.059 -1.592,0.09c-0.843,0.096 -1.267,0.144 -1.585,0.193c-3.421,0.515 -5.218,0.788 -7.66,1.351c-1.888,0.436 -2.83,0.653 -3.57,0.929c-2.842,1.064 -4.24,2.527 -5.414,3.758c-1.053,1.104 -1.259,1.686 -1.345,1.969c-0.266,0.978 0.125,1.553 -0.165,1.622c-0.362,0.116 -2.157,-1.274 -3.115,-3.182Z" style="fill:#d50101;fill-rule:nonzero;"/><path d="M97.873,73.564c-0.465,-0.92 -0.385,-1.359 -0.689,-2.824c-0.265,-1.254 -0.73,-3.302 -1.85,-7.384c-0.036,-0.125 -0.454,-1.604 -0.801,-3.507c-0.165,-0.691 -0.247,-1.388 -0.248,-2.085c0.022,-0.749 -0.1,-1.514 0.203,-2.246c0.302,-0.731 0.719,-1.44 1.073,-2.174c0.354,-0.733 0.954,-1.487 1.11,-2.213c0.077,-0.368 -0.093,-0.741 -0.475,-1.039c-0.588,-0.401 -1.629,-0.196 -2.478,-0.239c-1.361,-0.07 -2.654,-0.121 -3.942,0.22c-0.854,0.27 -1.742,0.503 -2.655,0.698c-0.854,0.144 -1.576,0.113 -1.921,0.659c-0.23,0.365 -0.048,0.773 -0.202,1.153c-0.154,0.379 -0.188,0.597 -0.359,1.033c-0.293,0.869 -0.347,1.758 -0.158,2.637c0.131,0.811 0.383,1.614 0.754,2.4c0.361,0.869 0.798,1.726 1.312,2.569c0.344,0.58 0.714,1.215 0.864,1.377c0.286,0.313 0.51,0.643 0.669,0.985c0.51,0.946 0.876,1.903 1.485,2.831c0.61,0.928 0.7,1.922 1.441,2.777c0.657,0.773 1.116,1.597 1.363,2.447c0.158,0.559 0.569,1.121 0.811,1.675c0.242,0.554 0.277,1.113 0.472,1.671c0.128,0.351 0.149,0.711 0.233,1.077c0.173,0.76 0.511,1.03 0.216,1.267c-0.272,0.203 -0.738,0.285 -1.159,0.205c-0.71,-0.188 -0.699,-0.922 -0.906,-1.521c-0.481,-1.247 -2.203,-1.988 -4.468,-2.955c-1.959,-0.843 -4.224,-1.419 -6.624,-1.682c-1.205,-0.115 -2.426,-0.166 -3.647,-0.151c-2.688,-0.002 -2.786,0.241 -4.098,0.208c-0.263,-0.005 -1.085,-0.038 -1.232,0.166c-0.11,0.216 0.976,0.542 1.751,0.894c0.602,0.312 1.14,0.663 1.603,1.046c1.536,1.127 2.068,1.881 3.263,2.861c1.424,1.145 3.162,2.148 5.143,2.972c1.028,0.428 2.119,0.804 3.261,1.123c-16.108,-1.741 -25.234,-0.11 -30.618,1.787c-2.837,0.998 -6.419,2.691 -13.753,4.926c-2.806,0.854 -4.681,1.336 -10.859,3.219c-8.071,2.449 -6.386,2.085 -7.659,2.391c-2.338,0.564 -4.745,0.997 -4.691,1.541c0.024,0.272 0.702,0.482 1.264,0.619c5.967,1.409 23.784,1.207 23.784,1.207c8.016,-0.091 8.64,0.284 17.941,0.08c3.966,-0.099 7.389,-0.238 10.073,-0.381c-3.571,0.591 -7.037,1.377 -10.349,2.348c-3.313,0.971 -13.178,3.847 -21.178,10.048c-0.839,0.758 -1.819,1.461 -2.922,2.096c-0.671,0.335 -1.274,0.713 -1.797,1.127c-0.454,0.377 -0.835,0.781 -1.138,1.206c-0.823,1.044 -1.842,1.524 -3.323,2.542c-1.813,1.242 -2.469,2.017 -3.848,3.212c-5.471,4.799 -15.96,10.825 -14.886,11.512c0.087,0.055 0.215,0.054 2.246,-0.212c2.473,-0.334 3.71,-0.503 4.455,-0.625c4.157,-0.686 5.692,-0.336 11.144,-1.117c0.841,-0.12 0.326,-0.058 6.465,-1.136c6.511,-1.141 5.786,-0.979 7,-1.209c4.261,-0.844 8.403,-1.877 12.389,-3.089c0.847,-0.25 2.744,-0.808 5.416,-1.702c5.726,-1.912 12.164,-4.067 18.245,-7.468c4.389,-2.465 8.124,-5.291 11.082,-8.386c-0.122,0.728 -0.293,1.807 -0.488,3.116c-0.695,4.642 -1.116,6.968 -1.047,8.491c0.142,3.16 1.479,5.568 4.279,9.719c5.42,8.039 8.821,11.49 13.666,17.777c7.714,10.062 9.381,14.85 11.705,14.658c0.977,-0.092 1.714,-1.018 4.304,-12.293c1.238,-5.391 1.856,-8.085 2.398,-11.482c1.184,-7.453 1.592,-11.187 0.34,-16.003c-0.793,-2.817 -1.928,-5.599 -3.395,-8.325c-1.4,-2.7 -3.072,-5.35 -5.007,-7.938c2.759,1.553 5.726,2.978 8.875,4.26c3.119,1.238 6.378,2.356 9.753,3.347c1.258,0.362 0.984,0.253 5.023,1.35c0.832,0.235 1.685,0.445 2.555,0.629c0.938,0.192 1.895,0.352 2.865,0.48c3.181,0.419 5.718,0.644 5.718,0.644c4.875,0.425 8.167,0.716 12.599,0.734c1.215,0.007 0.471,-0.016 6.835,-0.095c5.996,-0.068 5.512,-0.033 6.324,-0.068c5.236,-0.219 6.422,-0.833 10.449,-0.919c0.946,-0.021 2.052,-0.078 4.272,-0.197c1.958,-0.105 2.056,-0.128 2.098,-0.198c0.683,-0.833 -11.911,-4.708 -19.296,-8.29c-1.657,-0.816 -0.957,-0.459 -5.102,-2.369c-11.363,-5.243 -17.149,-7.897 -22.142,-9.359c-8.259,-2.437 -13.936,-2.786 -15.985,-2.886c-2.358,-0.101 -4.727,-0.07 -7.074,0.093c5.003,-0.411 9.92,-1.116 14.674,-2.105c4.207,-0.883 4.465,-1.198 11.141,-2.645c7.026,-1.522 10.538,-2.284 10.834,-2.314c0.579,-0.055 4.837,-0.503 7.447,-1.916c1.048,-0.568 0.949,-0.817 0.899,-0.892c-0.255,-0.382 -2.04,-0.302 -2.492,-0.286c-4.954,0.17 -15.186,-1.575 -18.124,-2.076c-6.86,-1.171 -8.874,-2.307 -15.234,-2.517c-0.816,-0.025 -1.631,-0.033 -3.272,-0.019c-9.097,0.07 -14.623,1.057 -14.623,1.057c-1.63,0.293 -3.221,0.654 -4.76,1.08c-1.106,0.308 -2.184,0.649 -3.23,1.021c1.317,-0.955 2.531,-1.955 3.638,-2.995c1.162,-1.087 0.984,-1.076 2.355,-2.418c2.578,-2.555 3.871,-3.833 5.544,-4.844c0.582,-0.349 1.718,-1.005 1.529,-1.204c-0.06,-0.06 -0.278,-0.059 -1.592,0.09c-0.843,0.096 -1.267,0.144 -1.585,0.193c-3.421,0.515 -5.218,0.788 -7.66,1.351c-1.888,0.436 -2.83,0.653 -3.57,0.929c-2.842,1.064 -4.24,2.527 -5.414,3.758c-1.053,1.104 -1.259,1.686 -1.345,1.969c-0.266,0.978 0.125,1.553 -0.165,1.622c-0.362,0.116 -2.157,-1.274 -3.115,-3.182Z" style="fill:#5a5a5a;fill-opacity:0.56;fill-rule:nonzero;"/><path d="M97.796,70.574c-0.465,-0.92 -0.384,-1.358 -0.689,-2.823c-0.264,-1.255 -0.729,-3.303 -1.85,-7.384c-0.035,-0.126 -0.453,-1.605 -0.801,-3.507c-0.164,-0.691 -0.247,-1.388 -0.247,-2.086c0.021,-0.748 -0.1,-1.514 0.202,-2.245c0.302,-0.732 2.004,-0.872 2.358,-1.606c0.354,-0.733 -0.331,-2.056 -0.175,-2.781c0.078,-0.369 -0.092,-0.741 -0.474,-1.04c-0.589,-0.4 -1.629,-0.195 -2.479,-0.239c-1.36,-0.069 -2.654,-0.12 -3.941,0.221c-0.855,0.27 -1.742,0.503 -2.656,0.698c-0.853,0.143 -1.575,0.112 -1.92,0.658c-0.23,0.365 -0.048,0.773 -0.202,1.153c-0.154,0.38 -0.188,0.597 -0.36,1.033c-0.293,0.869 -0.346,1.759 -0.158,2.637c0.131,0.811 0.384,1.614 0.755,2.4c0.36,0.869 0.798,1.727 1.311,2.57c0.345,0.579 0.715,1.214 0.865,1.376c0.285,0.313 0.509,0.644 0.669,0.986c0.509,0.946 0.875,1.902 1.485,2.83c0.609,0.928 0.7,1.922 1.441,2.777c0.657,0.774 1.115,1.598 1.362,2.447c0.158,0.559 0.569,1.122 0.811,1.675c0.243,0.554 0.277,1.114 0.473,1.672c0.127,0.35 0.149,0.711 0.233,1.076c0.172,0.761 0.51,1.031 0.215,1.267c-0.271,0.203 -0.737,0.286 -1.159,0.206c-0.709,-0.189 -0.698,-0.923 -0.905,-1.521c-0.481,-1.248 -2.203,-1.989 -4.469,-2.956c-1.959,-0.843 -4.224,-1.418 -6.624,-1.682c-1.205,-0.115 -2.426,-0.165 -3.647,-0.15c-2.687,-0.002 -5.161,3.259 -5.308,3.462c-0.11,0.217 2.834,-0.335 3.609,0.017c0.602,0.312 1.791,0.715 2.986,1.695c1.425,1.145 3.162,2.149 5.144,2.972c1.028,0.429 2.119,0.805 3.261,1.123c-16.109,-1.741 -25.234,-0.109 -30.618,1.787c-2.838,0.998 -6.42,2.692 -13.753,4.926c-2.807,0.855 -4.682,1.336 -10.859,3.22c-8.072,2.449 -6.387,2.084 -7.66,2.391c-2.337,0.563 -3.654,1.325 -3.6,1.869c0.024,0.272 -1.607,2.628 -1.046,2.764c5.967,1.409 25.004,-1.267 25.004,-1.267c8.015,-0.091 8.64,0.284 17.94,0.08c3.967,-0.099 7.389,-0.238 10.074,-0.381c-3.572,0.591 -7.037,1.377 -10.35,2.348c-3.312,0.971 -13.178,3.848 -21.178,10.049c-0.839,0.757 -1.818,1.46 -2.921,2.095c-0.671,0.335 -1.274,0.714 -1.798,1.128c-0.453,0.377 -0.835,0.781 -1.138,1.205c-0.822,1.044 -1.842,1.524 -3.323,2.543c-1.813,1.241 -2.468,2.017 -3.847,3.212c-5.472,4.798 -15.934,13.807 -14.86,14.494c0.087,0.055 1.946,-2.005 3.977,-2.27c2.474,-0.335 5.574,-0.371 6.32,-0.493c4.157,-0.686 2.07,-1.393 7.522,-2.173c0.841,-0.121 0.326,-0.058 6.464,-1.136c6.511,-1.141 5.787,-0.98 7.001,-1.209c4.261,-0.845 8.403,-1.877 12.389,-3.09c0.847,-0.25 2.743,-0.807 5.415,-1.701c5.727,-1.913 12.165,-4.068 18.246,-7.469c4.389,-2.465 8.123,-5.29 11.082,-8.385c-0.123,0.728 -0.293,1.806 -0.489,3.115c-0.694,4.642 -1.116,6.969 -1.047,8.491c0.142,3.161 1.479,5.569 4.279,9.72c5.421,8.038 8.822,11.49 13.666,17.776c7.714,10.063 9.637,17.647 11.96,17.455c0.978,-0.092 1.459,-3.814 4.049,-15.09c1.239,-5.39 1.856,-8.084 2.398,-11.482c1.184,-7.453 1.593,-11.187 0.341,-16.002c-0.794,-2.818 -1.928,-5.6 -3.395,-8.326c-1.4,-2.7 -3.072,-5.35 -5.007,-7.937c2.758,1.553 5.726,2.977 8.874,4.259c3.12,1.239 6.378,2.357 9.753,3.347c1.258,0.362 0.985,0.253 5.023,1.35c0.832,0.236 1.685,0.446 2.556,0.629c0.938,0.192 1.894,0.353 2.865,0.48c3.181,0.419 5.717,0.644 5.717,0.644c4.875,0.425 8.167,0.716 12.6,0.735c1.214,0.006 0.471,-0.017 6.835,-0.095c5.996,-0.068 5.511,-0.034 6.324,-0.069c5.235,-0.219 2.41,0.439 6.438,0.354c0.945,-0.021 4.373,0.695 6.594,0.577c1.958,-0.105 4.021,1.028 4.063,0.958c0.682,-0.833 -12.188,-7.911 -19.572,-11.492c-1.658,-0.816 -0.958,-0.459 -5.102,-2.369c-11.364,-5.244 -17.15,-7.897 -22.143,-9.36c-8.259,-2.436 -13.935,-2.785 -15.985,-2.886c-2.357,-0.1 -4.726,-0.069 -7.073,0.093c5.003,-0.41 9.92,-1.116 14.674,-2.105c4.206,-0.882 4.464,-1.198 11.14,-2.645c7.026,-1.521 10.539,-2.283 10.835,-2.314c0.579,-0.055 4.835,1.881 7.445,0.468c1.048,-0.568 1.26,0.972 0.605,-1.662c-0.111,-0.447 -3.852,-2.125 -4.304,-2.11c-4.955,0.171 -13.079,-1.365 -16.016,-1.865c-6.86,-1.171 -8.875,-2.307 -15.235,-2.518c-0.815,-0.025 -1.631,-0.033 -3.272,-0.018c-9.096,0.069 -14.623,1.056 -14.623,1.056c-1.63,0.293 -3.22,0.654 -4.759,1.08c-1.106,0.309 -2.184,0.65 -3.23,1.021c1.316,-0.955 2.531,-1.955 3.637,-2.994c1.162,-1.087 0.985,-1.076 2.355,-2.419c2.578,-2.554 3.872,-3.832 5.545,-4.844c0.581,-0.348 1.718,-1.004 1.528,-1.203c-0.059,-0.061 -0.278,-0.059 -1.591,0.089c-0.843,0.096 -1.267,0.144 -1.586,0.194c-3.421,0.514 -5.217,0.788 -7.659,1.35c-1.889,0.436 -2.83,0.654 -3.57,0.929c-2.843,1.065 -4.241,2.528 -5.414,3.759c-1.053,1.104 -1.259,1.686 -1.346,1.969c-0.266,0.977 0.125,1.553 -0.164,1.621c-0.362,0.117 -2.158,-1.274 -3.116,-3.182Z" style="fill:#d50101;fill-rule:nonzero;"/><path d="M98.308,79.108c-4.754,-2.017 -8.899,-4.407 -13.452,-6.57c-3.752,-1.783 -3.831,-2.556 -9.333,-2.742c-1.1,-0.037 -4.217,2.451 -3.379,2.03c2.467,-1.239 6.642,-2.629 13.568,2.023c3.954,1.975 7.699,4.023 11.949,5.78c-9.913,3.936 -21.214,6.559 -33.09,7.68c-13.552,1.315 -27.119,2.473 -40.585,4.074c-0.865,0.104 -0.799,0.454 0.098,0.348l-0.012,-0.01c14.261,-1.698 28.689,-2.805 43,-4.327c10.734,-1.149 20.955,-3.521 30.069,-6.972c-2.487,3.686 -5.359,7.281 -8.601,10.767c-4.688,5.013 -11.286,9.478 -18.447,13.398c-6.201,3.379 -12.219,7.038 -19.405,9.711c-10.409,3.869 -19.404,8.431 -31.702,10.197c-0.753,0.109 0.638,0.371 1.018,0.319c11.881,-1.708 20.884,-5.941 30.832,-9.808c7.357,-2.859 13.388,-6.368 19.926,-9.818c7.643,-4.031 14.583,-8.803 19.483,-14.077c2.962,-3.224 5.616,-6.538 7.949,-9.928l7.289,25.78c1.97,6.968 3.468,13.949 5.729,20.888c2.977,9.183 4.91,18.409 7.307,27.647c0.065,0.227 1.537,0.053 1.473,-0.208c-2.398,-9.237 -4.331,-18.464 -7.307,-27.647c-2.252,-6.939 -3.76,-13.922 -5.731,-20.891l-7.352,-26.006c6.571,3.801 13.219,7.635 20.35,11.076c7.308,3.529 15.883,6.106 24.263,8.668c8.958,2.775 18.396,5 28.159,6.637c5.297,0.874 15.291,4.589 20.809,3.99c0.875,-0.083 -2.439,-1.033 -3.316,-0.937c0,-0 -6.483,-1.869 -9.622,-2.356c-3.039,-0.474 -6.099,-0.902 -9.112,-1.434c-9.822,-1.724 -19.196,-4.17 -28.203,-6.998c-7.958,-2.498 -15.942,-4.985 -22.832,-8.432c-6.925,-3.478 -13.494,-7.229 -19.985,-10.976c8.472,1.138 17.235,1.72 25.916,1.242c13.236,-0.717 26.4,-2.123 39.502,-3.382c0.759,-0.072 -0.587,-0.395 -0.976,-0.358l0.002,0.008c-12.689,1.22 -25.434,2.547 -38.23,3.306c-9.077,0.538 -18.194,-0.036 -27.032,-1.287l-0.05,-0.03l-0.002,-0.007c-0.001,-0.004 -0.003,-0.007 -0.004,-0.011c2.979,-3.178 6.127,-6.372 9.962,-9.238c3.561,-2.661 8.726,-4.455 13.499,-6.294c0.815,-0.313 -0.502,-0.296 -0.892,-0.144l0.003,0.008c-4.417,1.702 -9.272,3.386 -12.839,5.705c-4.296,2.789 -7.582,6.318 -10.664,9.606Z" style="fill:#666;fill-opacity:0.47;fill-rule:nonzero;"/></svg>