<?xml version="1.0" encoding="UTF-8" standalone="no"?><!DOCTYPE svg PUBLIC "-//W3C//DTD SVG 1.1//EN" "http://www.w3.org/Graphics/SVG/1.1/DTD/svg11.dtd"><svg width="100%" height="100%" viewBox="0 0 200 200" version="1.1" xmlns="http://www.w3.org/2000/svg" xmlns:xlink="http://www.w3.org/1999/xlink" xml:space="preserve" xmlns:serif="http://www.serif.com/" style="fill-rule:evenodd;clip-rule:evenodd;stroke-linejoin:round;stroke-miterlimit:2;"><path d="M118.148,44.572c0.289,-1.994 1.182,-3.423 0.464,-3.601c-1.157,-0.302 -5.255,3.103 -7.722,5.836c-0.715,0.786 -2.344,2.767 -5.565,6.737c-0.391,0.483 -4.224,5.277 -7.747,5.766c-0.649,0.113 -1.346,0.094 -1.974,-0.053c-1.313,-0.356 -1.195,-1.262 -1.85,-1.383c-1.116,-0.224 -4.172,1.857 -7.796,6.613c-3.625,4.756 -5.026,8.517 -6.257,8.417c-0.825,-0.067 -0.362,-1.774 -1.535,-2.043c-2.449,-0.564 -9.91,5.401 -13.84,11.874c-1.71,2.799 -2.785,5.715 -3.199,8.673l-13.491,-3.239c0,-0 -4.164,-0.168 -6.816,-1.415c-2.352,-1.114 -2.577,-2.608 -3.61,-2.533c-0.925,0.068 -0.737,1.288 -1.739,1.58c-2.969,0.87 -11.81,-7.767 -14.586,-7.119c-1.52,0.356 -0.188,3.914 1.507,10.627c2.613,10.343 2.139,12.617 0.655,12.938c-1.657,0.371 -4.051,-1.777 -4.854,-1.456c-1.384,0.566 5.344,7.442 6.519,8.637c2.901,2.963 4.726,4.829 7.85,7.317c6.577,5.238 12.476,8.11 11.57,8.802c-0.664,0.511 -4.36,-0.744 -4.68,-0.424c-0.417,0.419 5.286,3.139 12.767,5.533c6.673,2.14 8.988,2.176 15.084,4.055c4.755,1.474 9.204,3.255 13.263,5.309c-1.719,4.258 -2.889,7.478 -3.662,9.7c-0.806,2.336 -0.968,2.959 -1.703,4.128c-1.875,2.992 -4.461,4.685 -3.429,5.389c0.478,0.336 1.173,0.045 3.168,0.19c3.953,0.286 5.114,1.677 6.619,1.324c0.476,-0.111 1.167,-0.448 1.812,-4.29c0.315,-1.856 0.33,-2.858 0.533,-4.631c0.092,-0.816 0.312,-2.792 0.751,-4.713c0.488,-2.118 1.241,-4.213 2.253,-6.269c4.981,-1.365 10.227,-2.382 15.625,-3.029c17.924,-2.137 34.705,0.247 35.087,-0.859c0.194,-0.562 -4.235,-1.049 -4.284,-2.205c-0.063,-1.382 6.205,-1.864 15.163,-4.423c7.103,-2.025 11.018,-3.959 17.635,-7.226c1.238,-0.611 5.758,-2.868 5.1,-3.487c-0.556,-0.519 -4.161,0.683 -5.105,0.059c-1.254,-0.822 3.294,-4.22 9.115,-8.667c11.448,-8.756 13.878,-10.928 13.068,-11.429c-0.514,-0.318 -2.056,0.848 -5.697,1.096c-4.139,0.282 -5.358,-0.997 -9.528,-0.611c-2.289,0.212 -2.404,0.643 -5.186,0.916c-2.02,0.191 -4.082,0.177 -6.093,-0.041c1.574,-1.736 1.524,-2.355 1.113,-2.602c-0.745,-0.409 -2.575,0.505 -6.448,1.103c-2.876,0.491 -5.911,0.587 -8.863,0.281c-2.168,-0.259 -4.222,-0.77 -6.036,-1.502c1.365,-3.471 2.015,-7.024 1.936,-10.584c-0.115,-4.689 -1.553,-10.607 -4.028,-10.729c-1.36,-0.066 -2.209,1.644 -3.253,1.493c-1.392,-0.2 -0.572,-3.364 -1.255,-7.534c-0.707,-4.298 -2.831,-8.513 -4.405,-8.48c-0.947,0.02 -0.942,1.556 -2.058,1.63c-2.079,0.14 -5.924,-4.832 -7.263,-10.19c-1.467,-5.961 -3.38,-7.359 -3.1,-9.256Z" style="fill:#ecec40;fill-rule:nonzero;"/><path d="M118.148,44.572c0.289,-1.994 1.182,-3.423 0.464,-3.601c-1.157,-0.302 -5.255,3.103 -7.722,5.836c-0.715,0.786 -2.344,2.767 -5.565,6.737c-0.391,0.483 -4.224,5.277 -7.747,5.766c-0.649,0.113 -1.346,0.094 -1.974,-0.053c-1.313,-0.356 -1.195,-1.262 -1.85,-1.383c-1.116,-0.224 -4.172,1.857 -7.796,6.613c-3.625,4.756 -5.026,8.517 -6.257,8.417c-0.825,-0.067 -0.362,-1.774 -1.535,-2.043c-2.449,-0.564 -9.91,5.401 -13.84,11.874c-1.71,2.799 -2.785,5.715 -3.199,8.673l-13.491,-3.239c0,-0 -4.164,-0.168 -6.816,-1.415c-2.352,-1.114 -2.577,-2.608 -3.61,-2.533c-0.925,0.068 -0.737,1.288 -1.739,1.58c-2.969,0.87 -11.81,-7.767 -14.586,-7.119c-1.52,0.356 -0.188,3.914 1.507,10.627c2.613,10.343 2.139,12.617 0.655,12.938c-1.657,0.371 -4.051,-1.777 -4.854,-1.456c-1.384,0.566 5.344,7.442 6.519,8.637c2.901,2.963 4.726,4.829 7.85,7.317c6.577,5.238 12.476,8.11 11.57,8.802c-0.664,0.511 -4.36,-0.744 -4.68,-0.424c-0.417,0.419 5.286,3.139 12.767,5.533c6.673,2.14 8.988,2.176 15.084,4.055c4.755,1.474 9.204,3.255 13.263,5.309c-1.719,4.258 -2.889,7.478 -3.662,9.7c-0.806,2.336 -0.968,2.959 -1.703,4.128c-1.875,2.992 -4.461,4.685 -3.429,5.389c0.478,0.336 1.173,0.045 3.168,0.19c3.953,0.286 5.114,1.677 6.619,1.324c0.476,-0.111 1.167,-0.448 1.812,-4.29c0.315,-1.856 0.33,-2.858 0.533,-4.631c0.092,-0.816 0.312,-2.792 0.751,-4.713c0.488,-2.118 1.241,-4.213 2.253,-6.269c4.981,-1.365 10.227,-2.382 15.625,-3.029c17.924,-2.137 34.705,0.247 35.087,-0.859c0.194,-0.562 -4.235,-1.049 -4.284,-2.205c-0.063,-1.382 6.205,-1.864 15.163,-4.423c7.103,-2.025 11.018,-3.959 17.635,-7.226c1.238,-0.611 5.758,-2.868 5.1,-3.487c-0.556,-0.519 -4.161,0.683 -5.105,0.059c-1.254,-0.822 3.294,-4.22 9.115,-8.667c11.448,-8.756 13.878,-10.928 13.068,-11.429c-0.514,-0.318 -2.056,0.848 -5.697,1.096c-4.139,0.282 -5.358,-0.997 -9.528,-0.611c-2.289,0.212 -2.404,0.643 -5.186,0.916c-2.02,0.191 -4.082,0.177 -6.093,-0.041c1.574,-1.736 1.524,-2.355 1.113,-2.602c-0.745,-0.409 -2.575,0.505 -6.448,1.103c-2.876,0.491 -5.911,0.587 -8.863,0.281c-2.168,-0.259 -4.222,-0.77 -6.036,-1.502c1.365,-3.471 2.015,-7.024 1.936,-10.584c-0.115,-4.689 -1.553,-10.607 -4.028,-10.729c-1.36,-0.066 -2.209,1.644 -3.253,1.493c-1.392,-0.2 -0.572,-3.364 -1.255,-7.534c-0.707,-4.298 -2.831,-8.513 -4.405,-8.48c-0.947,0.02 -0.942,1.556 -2.058,1.63c-2.079,0.14 -5.924,-4.832 -7.263,-10.19c-1.467,-5.961 -3.38,-7.359 -3.1,-9.256Z" style="fill:#868686;fill-opacity:0.4;fill-rule:nonzero;"/><path d="M118.192,40.982c0.29,-1.994 1.183,-3.424 0.465,-3.602c-1.157,-0.302 -5.255,3.104 -7.723,5.836c-0.715,0.787 -2.343,2.767 -5.565,6.737c-0.391,0.484 -4.223,5.278 -7.747,5.766c-0.649,0.113 -1.345,0.095 -1.973,-0.053c-1.314,-0.356 -1.196,-1.262 -1.851,-1.382c-1.115,-0.224 -4.171,1.856 -7.796,6.612c-3.624,4.756 -5.025,8.517 -6.257,8.417c-0.824,-0.066 -0.361,-1.773 -1.534,-2.043c-2.45,-0.563 -9.91,5.402 -13.84,11.874c-1.71,2.799 -2.786,5.715 -3.2,8.674l-13.49,-3.24c-0,-0 -4.164,-0.167 -6.816,-1.414c-2.352,-1.115 -2.577,-2.608 -3.611,-2.533c-0.924,0.068 -0.737,1.287 -1.738,1.579c-2.969,0.87 -12.06,-7.968 -14.835,-7.32c-1.521,0.356 -0.933,4.368 1.756,10.828c4.1,9.849 2.139,12.617 0.655,12.938c-1.658,0.372 -3.762,2.215 -4.564,2.536c-1.384,0.566 5.053,3.45 6.228,4.645c2.902,2.963 4.727,4.829 7.851,7.317c6.577,5.239 12.476,8.111 11.57,8.802c-0.664,0.511 -4.222,2.67 -4.542,2.991c-0.417,0.418 4.078,1.884 12.629,2.118c6.673,2.14 8.988,2.176 15.083,4.056c4.755,1.473 9.205,3.254 13.264,5.308c-1.719,4.258 -2.89,7.478 -3.662,9.7c-0.807,2.336 -0.968,2.959 -1.703,4.128c-1.876,2.992 -4.506,8.119 -3.473,8.823c0.478,0.336 1.217,-3.389 3.212,-3.244c3.953,0.287 5.464,4.961 6.968,4.609c0.477,-0.111 0.818,-3.732 1.463,-7.574c0.315,-1.856 0.329,-2.858 0.533,-4.632c0.092,-0.816 0.311,-2.792 0.751,-4.712c0.488,-2.119 1.241,-4.214 2.252,-6.27c4.981,-1.365 10.227,-2.382 15.626,-3.028c17.924,-2.138 34.74,3.957 35.122,2.851c0.194,-0.563 -4.27,-4.76 -4.319,-5.916c-0.064,-1.382 6.205,-1.864 15.162,-4.423c7.103,-2.025 9.395,-1.92 16.011,-5.187c1.239,-0.611 7.44,-1.25 6.782,-1.868c-0.556,-0.52 -4.218,-2.975 -5.162,-3.598c-1.255,-0.822 3.294,-4.221 9.115,-8.668c11.448,-8.756 13.898,-7.452 13.087,-7.953c-0.514,-0.318 -2.076,-2.627 -5.716,-2.38c-4.139,0.283 -5.358,-0.996 -9.529,-0.61c-2.288,0.211 -2.403,0.642 -5.186,0.915c-2.019,0.191 -4.081,0.178 -6.092,-0.04c1.573,-1.737 1.524,-2.355 1.113,-2.602c-0.745,-0.409 -2.576,0.505 -6.449,1.102c-2.876,0.491 -5.911,0.587 -8.862,0.282c-2.168,-0.259 -4.222,-0.77 -6.037,-1.502c1.365,-3.472 2.015,-7.025 1.937,-10.585c-0.115,-4.689 -1.553,-10.607 -4.029,-10.729c-1.36,-0.066 -2.208,1.644 -3.252,1.493c-1.392,-0.2 -0.572,-3.364 -1.255,-7.533c-0.707,-4.299 -2.831,-8.513 -4.406,-8.481c-0.946,0.02 -0.941,1.556 -2.057,1.63c-2.08,0.14 -5.924,-4.832 -7.263,-10.19c-1.467,-5.961 -3.381,-7.359 -3.101,-9.255Z" style="fill:#ecec40;fill-rule:nonzero;"/><path d="M86.749,125.261l-0.443,0.069l0.174,0.072l0.191,0.077l-0.037,0.106l-1.066,-0.141c0.246,-0.038 0.491,-0.076 0.738,-0.114c-24.941,-10.228 -44.777,-24.08 -57.488,-40.154c-2.555,-3.247 -4.821,-6.567 -6.791,-9.947c-0.214,-0.368 -2.309,-0.589 -2.126,-0.273l-0.015,-0.002c9.08,15.621 24.585,29.741 45.183,41.147c5.527,3.042 11.393,5.872 17.562,8.471c1.058,0.445 2.173,1.04 3.357,1.362c0.158,0.043 0.321,0.073 0.488,0.093c-1.291,3.609 -2.584,7.217 -3.879,10.825c-0.11,0.319 2.096,0.474 2.242,0.081c1.325,-3.691 2.647,-7.381 3.966,-11.071c0.545,-0.1 1.072,-0.216 1.545,-0.292c3.311,-0.535 6.608,-1.102 9.889,-1.701c14.063,-2.569 27.751,-5.779 40.933,-9.599c17.149,-4.98 30.091,-9.242 44.98,-16.237c-2.905,0.306 -1.367,-0.826 -1.884,-0.585c-24.103,11.282 -48.281,18.341 -77.579,24.242c-5.784,1.171 -11.628,2.234 -17.532,3.188c3.111,-8.705 6.204,-17.409 9.282,-26.116c4.512,-12.773 8.991,-25.552 13.438,-38.335c2.474,-7.165 4.078,-15.311 6.553,-22.479c0.112,-0.324 -1.23,0.507 -1.366,0.899l0.014,0.002c-4.41,12.772 -8.846,25.541 -13.306,38.308c-4.461,12.766 -8.964,25.521 -13.511,38.264c-1.169,3.28 -2.339,6.56 -3.512,9.84Z" style="fill:#707070;fill-opacity:0.39;fill-rule:nonzero;"/></svg>