<?xml version="1.0" encoding="UTF-8" standalone="no"?><!DOCTYPE svg PUBLIC "-//W3C//DTD SVG 1.1//EN" "http://www.w3.org/Graphics/SVG/1.1/DTD/svg11.dtd"><svg width="100%" height="100%" viewBox="0 0 200 200" version="1.1" xmlns="http://www.w3.org/2000/svg" xmlns:xlink="http://www.w3.org/1999/xlink" xml:space="preserve" xmlns:serif="http://www.serif.com/" style="fill-rule:evenodd;clip-rule:evenodd;stroke-linejoin:round;stroke-miterlimit:2;"><path d="M91.415,144.695c-0.145,1.531 -0.539,3.498 -0.541,5.674c-0.002,0.312 -0.083,0.873 -0.155,1.63c-0.089,0.936 -0.701,1.676 -1.008,2.567c-0.295,0.819 -0.418,1.709 -0.991,2.438c-0.716,0.916 -1.768,1.952 -2.133,2.941c-0.269,0.726 1.067,1.306 2.078,1.67c0.461,0.142 0.958,0.241 1.472,0.294c0.799,0.144 1.464,0.49 2.24,0.646c1.01,0.204 2.34,0.112 3.414,0.153c0.578,0.018 1.498,0.194 1.897,-0.134c0.212,-0.175 0.144,-0.765 0.146,-0.958c-0.021,-0.952 -0.205,-1.901 -0.548,-2.832c-0.206,-0.733 -0.247,-1.479 -0.124,-2.218l1.027,-10.774c0.418,-2.279 1.036,-5.189 2.047,-8.574c5.212,1.919 10.662,3.613 16.306,5.067c5.677,1.468 11.534,2.691 17.524,3.659l4.133,-1.654c3.951,1.024 8.186,1.636 12.507,1.808c1.569,0.059 3.143,0.058 4.712,-0.004l1.828,-1.505c7.555,0.463 15.189,-0.267 22.082,-2.112l-8.186,-7.196c0.506,-0.228 1.057,-0.42 1.642,-0.573c0.994,-0.259 1.286,-0.194 1.449,-0.32c0.743,-0.57 -3.03,-3.492 -8.504,-5.611c-2.135,-0.828 -4.418,-1.52 -6.811,-2.064c0.543,-0.288 1.141,-0.538 1.782,-0.747c1.935,-0.636 3.116,-0.527 3.216,-0.783c0.213,-0.528 -4.851,-1.952 -11.926,-3.012c-3.555,-0.531 -7.155,-0.959 -10.785,-1.281c12.765,0.479 25.534,-0.93 37.094,-4.093l-1.911,-2.399c6.249,-3.296 11.306,-7.274 14.878,-11.704l-2.81,-1.259c3.172,-3.304 5.516,-6.851 6.962,-10.535c0.715,-1.84 1.199,-3.708 1.448,-5.588c-6.757,-0.329 -13.558,0.202 -19.921,1.555l-1.616,-1.458c-2.465,0.347 -5.079,0.776 -7.811,1.315c-3.991,0.775 -7.89,1.7 -11.67,2.772c-1.041,-0.598 -2.368,-1.002 -3.811,-1.16c-2.57,-0.247 -4.503,0.539 -7.084,1.423c-5.19,1.777 -18.067,5.902 -19.505,6.725c-0.876,0.501 9.722,-4.828 9.543,-10.847c-0.046,-1.565 -0.793,-1.967 -1.145,-4.47c-0.37,-2.709 0.041,-5.435 1.219,-8.067c-1.061,-0.267 -2.237,-0.344 -3.375,-0.223c-0.666,0.074 -1.304,0.217 -1.881,0.422c-4.899,-12.976 -7.581,-15.813 -9.144,-15.722c-1.824,0.105 -1.702,4.221 -4.062,4.49c-3.175,0.358 -8.34,-6.247 -13.606,-14.701c-5.949,8.097 -11.291,13.963 -14.137,13.534c-2.002,-0.301 -1.666,-3.595 -3.277,-3.743c-1.611,-0.149 -4.439,2.76 -10.021,14.218c-1.498,-0.416 -3.25,-0.404 -4.731,0.031c0.478,2.423 0.244,4.876 -0.692,7.254c-0.565,1.344 -1.322,2.659 -2.265,3.931c-1.561,2.452 -1.563,6.626 6.252,13.957c-4.966,-3.698 -9.457,-6.811 -13.193,-9.319c-2.545,-1.71 -5.516,-3.615 -9.142,-3.417c-1.422,0.096 -2.757,0.448 -3.816,1.004c-8.26,-2.892 -14.496,-5.085 -18.016,-6.398c-0.821,-0.304 -2.802,-1.052 -3.849,-0.641c-0.793,0.309 -0.726,1.143 -0.617,1.644l-15.48,-2.368c0.222,1.93 0.851,3.837 1.874,5.678c1.972,3.459 4.705,5.466 3.195,7.106c-0.693,0.658 -1.781,1.147 -3.056,1.373c0.46,1.365 1.059,2.813 1.83,4.323c1.719,3.367 4.074,6.615 7.022,9.685c-0.456,0.689 -0.906,1.378 -1.361,2.064c2.866,3.022 7,5.58 12.023,7.44c7.952,2.939 17.33,2.74 17.248,3.206c-0.067,0.364 -5.597,-0.147 -12.787,1.076c-5.318,0.906 -9.938,2.498 -9.632,3.264c0.105,0.26 0.678,0.272 2.009,0.855c0.925,0.404 1.75,0.879 2.454,1.411c-8.403,1.361 -15.608,4.513 -20.154,8.815c6.652,2.886 14.373,4.844 22.554,5.72c-0.016,0.203 -0.114,0.401 -0.288,0.578c-0.718,0.715 -2.512,0.73 -2.505,0.831c0.042,0.407 11.366,0.07 11.366,0.07c3.867,-0.115 8.876,-0.271 14.76,-0.469c-0.304,0.466 -0.63,0.934 -0.908,1.403c12.239,1.224 24.821,-0.584 34.638,-4.977c1.163,3.829 1.264,6.459 1.12,8.19Z" style="fill:#ff2929;fill-rule:nonzero;"/><path d="M91.415,144.695c-0.145,1.531 -0.539,3.498 -0.541,5.674c-0.002,0.312 -0.083,0.873 -0.155,1.63c-0.089,0.936 -0.701,1.676 -1.008,2.567c-0.295,0.819 -0.418,1.709 -0.991,2.438c-0.716,0.916 -1.768,1.952 -2.133,2.941c-0.269,0.726 1.067,1.306 2.078,1.67c0.461,0.142 0.958,0.241 1.472,0.294c0.799,0.144 1.464,0.49 2.24,0.646c1.01,0.204 2.34,0.112 3.414,0.153c0.578,0.018 1.498,0.194 1.897,-0.134c0.212,-0.175 0.144,-0.765 0.146,-0.958c-0.021,-0.952 -0.205,-1.901 -0.548,-2.832c-0.206,-0.733 -0.247,-1.479 -0.124,-2.218l1.027,-10.774c0.418,-2.279 1.036,-5.189 2.047,-8.574c5.212,1.919 10.662,3.613 16.306,5.067c5.677,1.468 11.534,2.691 17.524,3.659l4.133,-1.654c3.951,1.024 8.186,1.636 12.507,1.808c1.569,0.059 3.143,0.058 4.712,-0.004l1.828,-1.505c7.555,0.463 15.189,-0.267 22.082,-2.112l-8.186,-7.196c0.506,-0.228 1.057,-0.42 1.642,-0.573c0.994,-0.259 1.286,-0.194 1.449,-0.32c0.743,-0.57 -3.03,-3.492 -8.504,-5.611c-2.135,-0.828 -4.418,-1.52 -6.811,-2.064c0.543,-0.288 1.141,-0.538 1.782,-0.747c1.935,-0.636 3.116,-0.527 3.216,-0.783c0.213,-0.528 -4.851,-1.952 -11.926,-3.012c-3.555,-0.531 -7.155,-0.959 -10.785,-1.281c12.765,0.479 25.534,-0.93 37.094,-4.093l-1.911,-2.399c6.249,-3.296 11.306,-7.274 14.878,-11.704l-2.81,-1.259c3.172,-3.304 5.516,-6.851 6.962,-10.535c0.715,-1.84 1.199,-3.708 1.448,-5.588c-6.757,-0.329 -13.558,0.202 -19.921,1.555l-1.616,-1.458c-2.465,0.347 -5.079,0.776 -7.811,1.315c-3.991,0.775 -7.89,1.7 -11.67,2.772c-1.041,-0.598 -2.368,-1.002 -3.811,-1.16c-2.57,-0.247 -4.503,0.539 -7.084,1.423c-5.19,1.777 -18.067,5.902 -19.505,6.725c-0.876,0.501 9.722,-4.828 9.543,-10.847c-0.046,-1.565 -0.793,-1.967 -1.145,-4.47c-0.37,-2.709 0.041,-5.435 1.219,-8.067c-1.061,-0.267 -2.237,-0.344 -3.375,-0.223c-0.666,0.074 -1.304,0.217 -1.881,0.422c-4.899,-12.976 -7.581,-15.813 -9.144,-15.722c-1.824,0.105 -1.702,4.221 -4.062,4.49c-3.175,0.358 -8.34,-6.247 -13.606,-14.701c-5.949,8.097 -11.291,13.963 -14.137,13.534c-2.002,-0.301 -1.666,-3.595 -3.277,-3.743c-1.611,-0.149 -4.439,2.76 -10.021,14.218c-1.498,-0.416 -3.25,-0.404 -4.731,0.031c0.478,2.423 0.244,4.876 -0.692,7.254c-0.565,1.344 -1.322,2.659 -2.265,3.931c-1.561,2.452 -1.563,6.626 6.252,13.957c-4.966,-3.698 -9.457,-6.811 -13.193,-9.319c-2.545,-1.71 -5.516,-3.615 -9.142,-3.417c-1.422,0.096 -2.757,0.448 -3.816,1.004c-8.26,-2.892 -14.496,-5.085 -18.016,-6.398c-0.821,-0.304 -2.802,-1.052 -3.849,-0.641c-0.793,0.309 -0.726,1.143 -0.617,1.644l-15.48,-2.368c0.222,1.93 0.851,3.837 1.874,5.678c1.972,3.459 4.705,5.466 3.195,7.106c-0.693,0.658 -1.781,1.147 -3.056,1.373c0.46,1.365 1.059,2.813 1.83,4.323c1.719,3.367 4.074,6.615 7.022,9.685c-0.456,0.689 -0.906,1.378 -1.361,2.064c2.866,3.022 7,5.58 12.023,7.44c7.952,2.939 17.33,2.74 17.248,3.206c-0.067,0.364 -5.597,-0.147 -12.787,1.076c-5.318,0.906 -9.938,2.498 -9.632,3.264c0.105,0.26 0.678,0.272 2.009,0.855c0.925,0.404 1.75,0.879 2.454,1.411c-8.403,1.361 -15.608,4.513 -20.154,8.815c6.652,2.886 14.373,4.844 22.554,5.72c-0.016,0.203 -0.114,0.401 -0.288,0.578c-0.718,0.715 -2.512,0.73 -2.505,0.831c0.042,0.407 11.366,0.07 11.366,0.07c3.867,-0.115 8.876,-0.271 14.76,-0.469c-0.304,0.466 -0.63,0.934 -0.908,1.403c12.239,1.224 24.821,-0.584 34.638,-4.977c1.163,3.829 1.264,6.459 1.12,8.19Z" style="fill:#636363;fill-opacity:0.61;fill-rule:nonzero;"/><path d="M91.428,139.241c-0.146,1.53 -0.539,3.497 -0.541,5.673c-0.003,0.313 -0.083,0.873 -0.156,1.631c-0.089,0.935 -0.701,1.675 -1.008,2.566c-0.295,0.819 -0.418,1.71 -0.991,2.439c-0.715,0.915 -1.81,7.521 -2.175,8.51c-0.27,0.726 1.044,-2.067 2.055,-1.704c0.46,0.142 1.023,-1.954 1.537,-1.902c0.799,0.144 1.465,0.491 2.241,0.647c1.009,0.204 0.335,1.253 1.409,1.294c0.578,0.018 3.651,4.452 4.05,4.124c0.212,-0.174 -0.005,-6.164 -0.003,-6.358c-0.021,-0.952 -0.204,-1.9 -0.547,-2.832c-0.206,-0.733 -0.248,-1.478 -0.125,-2.217l1.027,-10.774c0.418,-2.279 1.037,-5.189 2.047,-8.575c5.212,1.919 10.662,3.613 16.307,5.068c5.677,1.468 11.534,2.691 17.524,3.659l4.133,-1.654c3.951,1.024 8.185,1.636 12.506,1.807c1.569,0.06 3.143,0.058 4.712,-0.003l1.828,-1.505c7.556,0.463 15.35,5.108 22.243,3.263l-8.346,-12.571c0.506,-0.228 1.057,-0.421 1.641,-0.574c0.994,-0.259 1.286,-0.193 1.45,-0.319c0.742,-0.571 -3.031,-3.493 -8.505,-5.611c-2.134,-0.829 -4.418,-1.521 -6.811,-2.065c0.543,-0.287 1.141,-0.538 1.783,-0.747c1.934,-0.636 3.115,-0.526 3.216,-0.783c0.212,-0.528 -4.851,-1.952 -11.926,-3.011c-3.556,-0.532 -7.156,-0.959 -10.786,-1.281c12.766,0.479 25.534,-0.93 37.094,-4.093l-1.91,-2.4c6.249,-3.296 11.305,-7.273 14.878,-11.703l-2.81,-1.259c3.171,-3.304 5.753,-4.326 7.2,-8.01c0.714,-1.84 1.197,-1.301 1.447,-3.181c-6.757,-0.329 -13.796,-4.731 -20.159,-3.377l-1.616,-1.459c-2.465,0.347 -5.078,0.777 -7.81,1.315c-3.992,0.775 -7.89,1.701 -11.671,2.772c-1.04,-0.598 -2.368,-1.002 -3.81,-1.159c-2.571,-0.248 -4.504,0.538 -7.085,1.423c-5.19,1.776 -18.067,5.901 -19.505,6.725c-0.876,0.5 9.722,-4.829 9.543,-10.848c-0.046,-1.564 -0.793,-1.967 -1.144,-4.47c-0.371,-2.709 0.543,-0.462 1.721,-3.093c-1.061,-0.267 -2.704,-2.233 -3.842,-2.112c-0.666,0.074 -2.514,-0.336 -3.092,-0.13c-4.899,-12.976 -6.405,-18.345 -7.968,-18.254c-1.825,0.104 -1.702,4.22 -4.062,4.489c-3.176,0.359 -8.341,-6.247 -13.606,-14.7c-5.95,8.097 -11.292,13.962 -14.137,13.534c-2.003,-0.301 -1.667,-3.596 -3.278,-3.744c-1.61,-0.148 -4.439,2.761 -10.021,14.219c-1.498,-0.416 -3.249,-0.405 -4.731,0.031c0.478,2.423 0.244,4.875 -0.692,7.254c-0.564,1.344 -1.322,2.659 -2.265,3.93c-1.56,2.452 -1.563,6.627 6.252,13.957c-4.966,-3.697 -9.457,-6.81 -13.193,-9.318c-2.545,-1.71 -5.515,-3.615 -9.141,-3.418c-1.423,0.097 -2.758,0.448 -3.817,1.005c-8.259,-2.892 -14.495,-5.086 -18.015,-6.398c-0.821,-0.305 -2.803,-1.052 -3.849,-0.642c-0.793,0.31 -0.727,1.144 -0.617,1.644l-15.481,-2.368c0.222,1.93 -0.727,4.086 0.296,5.928c1.972,3.458 6.103,7.062 4.593,8.703c1.599,4.877 -1.73,4.457 -3.005,4.682c0.46,1.366 2.743,2.491 3.515,4.001c1.719,3.367 3.825,5.954 6.773,9.024c-0.455,0.689 -2.61,2.076 -3.065,2.762c2.865,3.022 7.398,0.71 12.421,2.569c7.952,2.939 17.329,2.74 17.247,3.206c-0.067,0.364 -5.597,-0.146 -12.787,1.076c-5.318,0.907 -9.938,2.499 -9.632,3.265c0.105,0.26 0.678,0.272 2.009,0.855c0.925,0.404 1.751,0.878 2.455,1.41c-8.404,1.362 -15.582,9.979 -20.127,14.281c6.652,2.886 14.345,-0.622 22.527,0.254c-0.016,0.203 -0.115,0.402 -0.289,0.579c-0.718,0.715 -2.479,6.112 -2.472,6.213c0.042,0.408 13.987,-3.774 13.987,-3.774c3.867,-0.115 8.692,-1.932 14.577,-2.13c-0.305,0.466 -2.992,6.662 -3.269,7.132c12.238,1.223 24.712,-6.191 34.529,-10.584c1.162,3.83 1.263,6.46 1.12,8.191Z" style="fill:#ff2929;fill-rule:nonzero;"/><path d="M95.479,122.06c-31.041,-15.203 -59.442,-32.115 -84.801,-50.497c-0.258,-0.187 -1.768,-0.25 -1.393,0.018c25.551,18.522 54.19,35.551 85.502,50.84c-3.575,-0.132 -7.151,-0.102 -10.777,-0.073c-12.054,0.104 -24.091,0.576 -36.059,1.415c-12.727,0.895 -19.789,3.916 -32.265,5.623c-0.549,0.074 -2.208,2.046 -1.791,1.991l2.763,-1.043c12.945,-1.771 20.662,-5.305 33.874,-6.202c14.603,-0.982 30.139,-1.887 44.881,-1.272l-0.666,8.097c-0.025,0.265 1.543,0.343 1.567,0.093l0.667,-8.118c14.059,0.702 28.432,2.987 41.877,5.318c13.755,2.391 26.697,10.288 39.691,13.825c0.602,0.162 -0.951,-0.081 -1.851,-0.533c-18.492,-9.274 -37.285,-16.969 -60.372,-17.029c-5.434,-0.677 -10.897,-1.268 -16.387,-1.771c-0.925,-0.084 -1.849,-0.152 -2.773,-0.207c32.478,-17.896 64.473,-27.142 99.056,-37.319c0.307,-0.091 -5.761,0.627 -6.166,0.738c-42.596,11.642 -66.488,20.208 -92.974,35.746c2.162,-26.322 4.326,-52.645 6.494,-78.97c0.025,-0.265 -1.543,-0.343 -1.562,-0.093l-6.535,79.423Zm-0.032,0.388l0.007,-0.081l-0.18,0.073l0.072,0.003l0.101,0.005Z" style="fill:#6d6d6d;fill-opacity:0.57;fill-rule:nonzero;"/></svg>