<?xml version="1.0" encoding="UTF-8" standalone="no"?><!DOCTYPE svg PUBLIC "-//W3C//DTD SVG 1.1//EN" "http://www.w3.org/Graphics/SVG/1.1/DTD/svg11.dtd"><svg width="100%" height="100%" viewBox="0 0 200 200" version="1.1" xmlns="http://www.w3.org/2000/svg" xmlns:xlink="http://www.w3.org/1999/xlink" xml:space="preserve" xmlns:serif="http://www.serif.com/" style="fill-rule:evenodd;clip-rule:evenodd;stroke-linejoin:round;stroke-miterlimit:2;"><path d="M63.725,124.548c-12.141,-6.387 -20.357,-16.286 -20.068,-29.296c-0.357,-2.069 -0.521,-4.603 -0.206,-7.543c0.856,-7.96 5.035,-15.118 6.15,-16.309c0.643,-1.353 1.339,-2.676 2.089,-3.966c0.784,-3.615 6.138,-10.951 7.415,-11.657c1.339,-0.74 2.936,-1.502 4.516,-2.205c9.25,-7.317 21.946,-11.779 38.641,-11.647c14.252,0.113 27.621,4.859 37.639,12.969c3.067,1.926 6.851,4.805 9.367,8.464c5.088,7.397 8.704,15.889 7.138,17.552c1.052,4.697 1.374,9.71 0.845,14.973c-1.619,16.119 -12.961,26.704 -27.896,32.29c0.012,0.202 0.073,0.405 0.035,0.602c-4.831,25.257 -27.191,29.286 -40.45,29.303c-42.159,0.052 -28.631,-19.501 -25.215,-33.53Z" style="fill:#d4c8be;"/><path d="M67.524,126.376c19.191,8.446 46.053,9 65.418,0.327c-0.347,0.634 -0.911,1.249 -1.649,1.843l-0.852,1.125l-0.578,0.75c-0.056,0.072 -0.087,0.111 -0.087,0.111l-0.011,-0.057l-0.093,-0.454l-0.071,-0.318c-0.79,0.469 -1.68,0.922 -2.645,1.357l-0.169,0.425l-0.147,0.32l-0.121,0.204l-0.048,0.057l-0.022,0.019l-0.019,0.012l-0.013,0.005l-0.009,0.003l-0.01,0.001l-0.006,-0.001l-0.006,-0.001l-0.005,-0.001l-0.05,-0.352l-0.082,-0.342l-0.011,-0.035c-1.085,0.461 -2.25,0.9 -3.463,1.314l-0.074,0.286l-0.052,0.303l-0.013,0.114l0.013,-0.564c0.001,-0.032 0.003,-0.064 0.005,-0.097c-0.241,0.081 -0.483,0.162 -0.726,0.241l-0.556,0.931l-0.465,0.764l-0.171,0.276l-0.053,-0.57l-0.072,-0.673l-0.036,-0.302c-0.452,0.138 -0.907,0.272 -1.364,0.402l-0.219,0.82l-0.174,0.591l-0.131,0.379l-0.083,0.179l-0.033,0.048l-0.015,0.014l-0.007,0.005l-0.006,0.004l-0.004,0.001l-0.003,0.001l-0.003,0.001l-0.003,-0l-0.003,-0.001l-0.003,-0l-0.003,-0.001l-0.003,-0.002l-0.003,-0.002c-0.001,-0.001 -0.002,-0.001 -0.003,-0.002c-0.102,-3.4 -2.133,0.215 -2.386,2.85c0,0 0.062,-2.135 0.419,-3.597c-0.126,0.212 -0.248,0.417 -0.363,0.609c-0.049,0.211 -0.086,0.434 -0.108,0.669c-0,-0 0.006,-0.205 0.025,-0.53c-0.405,0.672 -0.703,1.151 -0.703,1.151c-0,-0 -0.091,-1.112 -0.24,-2.129c-0.368,0.088 -0.734,0.173 -1.098,0.255c-0.337,1.33 -0.743,2.898 -0.886,2.765c-0.015,-0.505 -0.074,-0.907 -0.164,-1.216c-0.333,-0.362 -1.173,0.648 -1.515,0.43c-0.558,0.246 -1.128,1.22 -1.252,2.519c-0,0 0.054,-1.879 0.355,-3.319c-0.087,-0.119 -0.173,-0.254 -0.256,-0.409c-0.349,0.065 -0.693,0.128 -1.03,0.187c-0.669,0.59 -1.46,1.623 -1.533,2.479c-0.371,1.067 -1.1,1.141 -1.652,-0.437c-0.01,-0.008 -0.02,-0.018 -0.031,-0.033c-0.529,-0.71 -1.109,-0.868 -1.649,-1.316c-0.884,0.087 -1.624,0.128 -2.179,0.122c-0.078,-0.001 -0.16,-0.003 -0.247,-0.006c-0.451,0.591 -0.833,1.286 -0.882,1.865c-0.333,0.957 -0.947,-0.596 -1.469,-2.065c-0.395,-0.045 -0.817,-0.099 -1.263,-0.159c-0.235,1.105 -0.298,2.677 -0.674,2.368c-0.909,-0.745 -1.927,-1.807 -2.839,-2.907c-0.975,-0.166 -2.004,-0.352 -3.069,-0.557c-0.579,0.399 -1.066,0.927 -1.14,1.503c-0.544,1.063 -1.575,-0.734 -2.398,-2.229c-0.231,-0.05 -0.464,-0.101 -0.697,-0.153c-0.98,0.657 -1.834,1.19 -1.834,1.19c-0,0 -0.051,-0.788 -0.168,-1.652c-0.628,-0.15 -1.257,-0.304 -1.882,-0.463c-0.553,0.995 -1.161,2.032 -1.35,1.855c0.014,-0.9 -0.234,-1.716 -0.61,-2.372c-1.044,-0.285 -2.073,-0.583 -3.071,-0.891c-0.028,0.075 -0.053,0.157 -0.073,0.245l0.035,-0.257c-0.299,-0.093 -0.594,-0.186 -0.886,-0.281l-0.522,0.478l-0.525,0.47c-0.051,0.044 -0.079,0.069 -0.079,0.069l0.011,-0.411l0.008,-0.649l-0,-0.324c-0.453,-0.155 -0.897,-0.313 -1.33,-0.472l-0.345,0.746l-0.255,0.497l-0.155,0.242l-0.05,0.057l-0.028,0.023l-0.01,0.006l-0.007,0.003l-0,0.001l-0.001,-0l-0.007,0.002l-0.007,0.002l-0.007,-0.001l-0.004,-0l-0.003,-0.001l-0.003,-0.001l-0.003,-0.002l-0.006,-0.004l-0.005,-0.005l-0.005,-0.007l0.022,-0.353l0.002,-0.342l-0.018,-0.296l-0.045,-0.322l-0.068,-0.28l-0.088,-0.239l-0.097,-0.183c-0.321,-0.128 -0.634,-0.257 -0.939,-0.387l-0.196,0.091l-0.212,0.159l-0.201,0.217l-0.165,0.239l-0.147,0.283l-0.106,0.265l-0.106,0.359l-0.011,0.049l0.083,-0.486l0.137,-0.681l0.13,-0.558c0.021,-0.086 0.044,-0.172 0.067,-0.258l-0.434,-0.202l-0.141,-0.068l-0.348,0.309l0.012,-0.473c-0.568,-0.284 -1.09,-0.572 -1.561,-0.864l-0.274,0.559l-0.207,0.357l-0.072,0.093l-0.031,0.029l-0.021,0.014l-0.008,0.004l-0.005,0.001l-0.006,0.002l-0.006,0l-0.008,-0l-0.003,-0.001l-0.005,-0.002l-0.005,-0.003l-0.004,-0.004l-0.004,-0.004l-0.004,-0.006l0.022,-0.374l-0.001,-0.387l-0.021,-0.291l-0.039,-0.262l-0.054,-0.231c-0.402,-0.292 -0.75,-0.587 -1.036,-0.885l-0.164,0.051l-0.186,0.101l-0.23,0.193l-0.204,0.247l-0.135,0.216l-0.122,0.247l-0.106,0.278l-0.088,0.306l-0.012,0.051l0.098,-0.56l0.143,-0.702l0.101,-0.428l0.088,-0.337l0.152,-0.512Z" style="fill:#dad1c9;"/><path d="M150.336,66.441c5.341,8.292 8.034,18.305 6.915,29.442c-5.39,53.656 -118.52,45.989 -113.435,-3.147c0.08,-0.77 0.171,-1.538 0.275,-2.303c24.73,27.508 101.576,24.739 105.995,-19.253c0.161,-1.603 0.243,-3.182 0.25,-4.739Z" style="fill:#b0b0b0;fill-opacity:0.27;"/><path d="M67.506,126.368c19.202,8.456 46.087,9.01 65.459,0.324c-0.343,0.657 -0.921,1.295 -1.684,1.909l-0.852,1.125l-0.578,0.751c-0.056,0.072 -0.087,0.111 -0.087,0.111l-0.011,-0.058l-0.093,-0.454l-0.071,-0.318c-0.79,0.469 -1.679,0.922 -2.645,1.357l-0.169,0.425l-0.147,0.32l-0.121,0.205l-0.048,0.057l-0.022,0.018l-0.019,0.012l-0.013,0.006l-0.009,0.002l-0.01,0.001l-0.006,-0l-0.005,-0.001l-0.006,-0.002l-0.05,-0.352l-0.082,-0.342l-0.011,-0.035c-1.085,0.461 -2.25,0.9 -3.463,1.314l-0.074,0.286l-0.052,0.304l-0.013,0.113l0.013,-0.564c0.002,-0.031 0.003,-0.064 0.005,-0.097c-0.241,0.081 -0.483,0.162 -0.726,0.241l-0.556,0.931l-0.465,0.765l-0.171,0.276l-0.053,-0.571l-0.072,-0.673l-0.036,-0.302c-0.452,0.138 -0.907,0.272 -1.364,0.403l-0.219,0.819l-0.174,0.591l-0.131,0.379l-0.083,0.179l-0.033,0.048l-0.015,0.015l-0.007,0.005l-0.006,0.003l-0.004,0.001l-0.003,0.001l-0.003,0.001l-0.003,-0l-0.003,-0l-0.003,-0.001l-0.003,-0.001l-0.003,-0.002l-0.003,-0.002c-0.001,-0 -0.002,-0.001 -0.003,-0.002c-0.102,-3.399 -2.133,0.216 -2.386,2.85c0,0 0.062,-2.134 0.419,-3.597c-0.126,0.212 -0.248,0.417 -0.363,0.609c-0.049,0.211 -0.086,0.435 -0.108,0.669c-0,0 0.006,-0.204 0.025,-0.53c-0.405,0.673 -0.703,1.151 -0.703,1.151c-0,-0 -0.091,-1.112 -0.24,-2.128c-0.368,0.087 -0.734,0.172 -1.098,0.254c-0.337,1.33 -0.743,2.899 -0.886,2.765c-0.015,-0.505 -0.074,-0.906 -0.164,-1.215c-0.333,-0.363 -1.173,0.647 -1.515,0.43c-0.558,0.245 -1.128,1.219 -1.252,2.518c-0,0 0.054,-1.879 0.355,-3.319c-0.087,-0.119 -0.173,-0.254 -0.256,-0.409c-0.349,0.066 -0.693,0.128 -1.03,0.188c-0.668,0.589 -1.46,1.622 -1.532,2.478c-0.372,1.067 -1.101,1.141 -1.653,-0.437c-0.01,-0.007 -0.02,-0.018 -0.031,-0.033c-0.529,-0.709 -1.109,-0.868 -1.649,-1.316c-0.884,0.087 -1.624,0.129 -2.179,0.122c-0.078,-0.001 -0.16,-0.003 -0.247,-0.006c-0.451,0.591 -0.833,1.286 -0.882,1.865c-0.333,0.957 -0.947,-0.596 -1.468,-2.064c-0.396,-0.046 -0.818,-0.099 -1.264,-0.16c-0.235,1.105 -0.298,2.677 -0.674,2.369c-0.909,-0.746 -1.927,-1.808 -2.839,-2.908c-0.975,-0.165 -2.004,-0.351 -3.069,-0.557c-0.579,0.399 -1.066,0.927 -1.14,1.503c-0.544,1.063 -1.575,-0.733 -2.398,-2.228c-0.231,-0.051 -0.464,-0.102 -0.697,-0.154c-0.98,0.658 -1.834,1.19 -1.834,1.19c-0,0 -0.051,-0.788 -0.168,-1.652c-0.628,-0.15 -1.257,-0.304 -1.882,-0.463c-0.553,0.995 -1.161,2.032 -1.35,1.855c0.014,-0.9 -0.234,-1.715 -0.61,-2.372c-1.044,-0.285 -2.073,-0.582 -3.071,-0.891c-0.028,0.075 -0.052,0.157 -0.073,0.245l0.035,-0.257c-0.298,-0.093 -0.594,-0.186 -0.886,-0.28l-0.522,0.478l-0.525,0.469c-0.051,0.045 -0.079,0.069 -0.079,0.069l0.011,-0.411l0.008,-0.649l-0,-0.324c-0.453,-0.155 -0.897,-0.312 -1.33,-0.472l-0.345,0.746l-0.255,0.497l-0.155,0.243l-0.05,0.056l-0.028,0.023l-0.01,0.006l-0.006,0.004l-0.001,-0l-0.001,0l-0.007,0.003l-0.007,0.001l-0.007,-0l-0.004,-0.001l-0.003,-0.001l-0.003,-0.001l-0.003,-0.001l-0.005,-0.004l-0.006,-0.006l-0.005,-0.007l0.022,-0.353l0.002,-0.342l-0.018,-0.296l-0.045,-0.322l-0.068,-0.28l-0.088,-0.239l-0.097,-0.182c-0.321,-0.128 -0.634,-0.257 -0.939,-0.388l-0.196,0.091l-0.212,0.159l-0.201,0.217l-0.165,0.24l-0.147,0.282l-0.106,0.265l-0.106,0.359l-0.011,0.049l0.083,-0.485l0.137,-0.682l0.13,-0.558c0.021,-0.085 0.044,-0.172 0.067,-0.258l-0.434,-0.202l-0.141,-0.067l-0.348,0.308l0.012,-0.473c-0.568,-0.284 -1.09,-0.572 -1.561,-0.864l-0.274,0.56l-0.207,0.356l-0.072,0.093l-0.031,0.029l-0.021,0.014l-0.008,0.004l-0.005,0.002l-0.006,0.001l-0.006,0.001l-0.008,-0.001l-0.003,-0.001l-0.005,-0.002l-0.005,-0.003l-0.004,-0.004l-0.004,-0.004l-0.004,-0.006l0.023,-0.374l-0.002,-0.387l-0.021,-0.29l-0.039,-0.262l-0.054,-0.231c-0.402,-0.292 -0.75,-0.588 -1.036,-0.886l-0.164,0.051l-0.186,0.101l-0.23,0.193l-0.204,0.247l-0.135,0.217l-0.122,0.247l-0.106,0.277l-0.088,0.307l-0.012,0.05l0.098,-0.56l0.144,-0.702l0.1,-0.427l0.088,-0.338l0.161,-0.544l-0.015,-0.031Z" style="fill:#9e9e9e;fill-opacity:0.15;"/><path d="M136.025,82.209c3.382,-0.348 5.057,-7.29 0.279,-14.51c-0.152,-1.922 3.441,1.432 4.466,1.397c2.493,-0.087 -5.976,-16.973 -5.976,-16.973c0,0 9.607,4.157 14.474,11.235c6.017,8.748 9.975,19.026 5.741,17.731c-3.306,-2.761 -6.864,-6.971 -6.159,-5.01c2.379,6.618 0.559,10.065 1.793,16.008c0.537,2.584 -6.866,-5.537 -8.245,-4.434c-0.362,0.289 -0.814,0.359 -1.324,0.264c-2.484,3.744 -10.239,12.245 -10.239,12.245c0,-0 -6.44,-7.854 -8.093,-5.225c-0.679,1.081 -1.775,10.152 -3.249,10.104c-3.716,-5.962 -13.915,-0.562 -12.85,4.548c-0,-0 -2.909,-6.954 0.41,-9.787c1.775,-1.516 -0.166,-8.83 1.605,-8.417c4.073,0.949 8.045,-1.17 11.943,0.945c1.156,0.627 9.453,-7.787 9.294,-11.104c0.855,-2.303 3.51,-0.909 6.13,0.983Z" style="fill:#fff;fill-opacity:0.13;"/><path d="M66.739,69.054c-2.446,0.411 -4.932,0.64 -5.52,0.022c-0.661,-0.695 -10.118,1.306 -8.593,0.346c3.507,-2.207 3.859,-0.54 0,0c-4,-0.223 4.793,-12.713 6.479,-13.645c4.465,-2.468 11.801,-5.171 11.801,-5.171c0,-0 -5.925,9.083 -3.927,9.561c0.821,0.197 8.538,1.086 7.605,1.844c-6.173,1.869 -8.082,4.555 -6.584,5.647c1.059,-0.994 2.18,-1.763 2.18,-1.763c-0.812,0.728 -0.994,1.52 -0.719,2.225c0.697,0.066 1.573,0.013 2.619,-0.19c-0,0 -1.015,0.258 -2.427,0.562c1.062,1.64 4.677,2.59 8.255,0.609c1.127,0.066 -0.73,1.939 -0.676,2.554c0.092,1.032 4.703,-0.394 7.565,-1.381c0.623,-1.023 1.204,-1.739 1.204,-1.739c-0.262,0.486 -0.359,0.966 -0.316,1.427c0.812,-0.289 1.341,-0.491 1.341,-0.491c-0,0 -0.453,0.459 -1.172,1.176c1.286,3.175 9.201,5.01 13.742,0.756c1.681,-0.138 0.391,2.832 0.93,3.673c1.312,2.046 12.555,-5.014 12.555,-5.014c0,0 -6.42,14.996 -8.346,15.336c-2.365,0.418 -7.222,4.924 -8.131,1.441c0.889,-2.731 2.977,-5.678 1.534,-5.087c-4.87,1.996 -8.92,0.524 -13.74,1.576c-2.096,0.458 1.666,-5.671 -0.022,-6.794c-1.234,-0.822 -1.255,-2.223 -0.823,-3.625c-2.798,2.712 -6.396,6.046 -7.197,6.074c-1.663,0.058 -6.341,2.626 -5.717,0.201c1.517,-1.75 3.878,-3.532 2.747,-3.271c-3.817,0.882 -5.905,-0.488 -9.362,-0.236c-1.503,0.11 3.035,-3.651 2.341,-4.564c-0.423,-0.557 -0.165,-1.304 0.374,-2.059Z" style="fill:#fff;fill-opacity:0.13;"/><path d="M51.383,108.135c-0,-0 0.604,-16.5 1.577,-15.944c9.971,5.704 1.246,-4.878 0.448,-6.078c-0.427,-0.642 3.903,-14.395 3.475,-12.587c-0.982,4.157 -3.147,-2.871 -3.716,1.751c-0.257,4.403 -3.863,9.878 -3.961,8.363c-0.33,-5.113 -0.193,-8.622 0.652,-12.226c0.365,-1.557 -5.386,6.799 -6.407,16.295c-0.939,8.742 2.368,13.894 2.368,13.894c1.434,-1.362 4.103,-11.484 4.088,-1.489c0.188,0.957 1.476,8.021 1.476,8.021Z" style="fill:#fff;fill-opacity:0.13;"/><path d="M153.753,72.804c3.011,6.878 4.345,14.657 3.498,23.079c-1.486,14.793 -11.161,24.925 -24.286,30.809l-0,0c-19.372,8.686 -46.257,8.132 -65.459,-0.324l-0,-0c-13.553,-5.969 -23.278,-15.873 -23.831,-29.245c18.376,33.606 105.503,33.587 110.217,-13.341c0.382,-3.799 0.32,-7.467 -0.139,-10.978Z" style="fill:#b0b0b0;fill-opacity:0.27;"/><path d="M83.42,102.506c-0,-0 -4.849,2.138 -5.533,2.423c-2.992,1.248 -6.441,2.755 -6.193,-0.438c0,0 -3.274,4.131 -1.595,5.22c0.898,0.583 2.606,5.696 3.41,5.144c1.847,-1.269 2.679,0.531 4.39,-1.393c0.506,-0.57 1.241,0.45 1.327,2.43c0.952,2.258 3.988,3.038 4.972,1.278c0.355,-1.867 1.347,-2.538 1.606,-1.771c0.874,2.588 1.367,1.224 2.432,3.241c0.463,0.877 0.785,-3.825 1.482,-3.998c1.303,-0.323 2.989,-4.615 2.989,-4.615c-2.879,-0.327 -5.603,1.797 -5.959,-2.821c-0.422,-0.569 -3.328,-4.7 -3.328,-4.7Z" style="fill:#dad1c9;"/><path d="M83.42,102.506c-0,-0 -4.849,2.138 -5.533,2.423c-2.992,1.248 -6.441,2.755 -6.193,-0.438c0,0 -3.274,4.131 -1.595,5.22c0.898,0.583 2.606,5.696 3.41,5.144c1.847,-1.269 2.679,0.531 4.39,-1.393c0.506,-0.57 1.241,0.45 1.327,2.43c0.952,2.258 3.988,3.038 4.972,1.278c0.355,-1.867 1.347,-2.538 1.606,-1.771c0.874,2.588 1.367,1.224 2.432,3.241c0.463,0.877 0.785,-3.825 1.482,-3.998c1.303,-0.323 2.989,-4.615 2.989,-4.615c-2.879,-0.327 -5.603,1.797 -5.959,-2.821c-0.422,-0.569 -3.328,-4.7 -3.328,-4.7Z" style="fill:#fff;fill-opacity:0.11;"/></svg>