<?xml version="1.0" encoding="UTF-8" standalone="no"?><!DOCTYPE svg PUBLIC "-//W3C//DTD SVG 1.1//EN" "http://www.w3.org/Graphics/SVG/1.1/DTD/svg11.dtd"><svg width="100%" height="100%" viewBox="0 0 200 200" version="1.1" xmlns="http://www.w3.org/2000/svg" xmlns:xlink="http://www.w3.org/1999/xlink" xml:space="preserve" xmlns:serif="http://www.serif.com/" style="fill-rule:evenodd;clip-rule:evenodd;stroke-linejoin:round;stroke-miterlimit:2;"><path d="M38.99,74.08c7.064,-22.717 27.914,-40.044 62.532,-39.769c31.418,0.25 55.948,20.523 60.586,50.296c0.417,0.685 2.57,4.591 2.051,11.283c-0.575,7.415 -4.141,14.129 -4.465,14.082l-0.022,0.076c-0.065,0.216 -2.663,7.068 -2.663,7.068l-0.258,0.548l-0.135,0.279l-2.086,3.698l-0.172,0.256l-0.21,0.303l-0.212,0.294l-0.151,0.204l-2.088,2.244l-0.238,0.188l-0.236,0.173l-0.297,0.197l-0.239,0.144l-0.301,0.159l-0.303,0.137l-0.243,0.093l-0.306,0.095l-0.246,0.058l-0.309,0.05l-0.311,0.024l-0.249,0l-0.124,-0.006c-0.773,-0.054 -1.498,-1.109 -2.059,-1.12l-0.017,-0c-0.18,0.003 -0.343,0.118 -0.484,0.412c-1.652,3.443 -5.552,6.097 -7.39,6.508c-0.158,0.035 -0.313,0.055 -0.466,0.06l-0.057,0.001c-1.029,0.006 -1.946,-0.683 -2.604,-2.122l-0.036,-0.081c-0.516,1.175 -1.834,2.676 -3.238,3.986l-0.111,0.144l-0.389,0.504c-0.061,0.078 -0.094,0.121 -0.094,0.121l-0.039,-0.196l-0.04,0.036c-0.119,0.104 -0.237,0.205 -0.355,0.305c0.474,3.164 0.811,6.466 1.004,9.886c1.282,22.782 -25.391,28.274 -30.788,28.134c-5.398,-0.14 -33.152,-2.659 -32.696,-31.002c0.035,-2.207 0.153,-4.389 0.353,-6.536l-0.014,0.027l-0.085,0.186l-0.077,0.201l-0.069,0.215l-0.059,0.229l0.074,-0.437l0.109,-0.563l0.077,-0.361l0.068,-0.295l0.054,-0.222c0.013,-0.054 0.027,-0.109 0.041,-0.163l0.014,-0.126l-0.142,-0.065c-0.104,-0.048 -0.209,-0.097 -0.313,-0.146l-0.154,-0.074l-0.277,0.246l-0.101,0.089l0.005,-0.172c0.002,-0.087 0.005,-0.204 0.007,-0.342c-0.617,-0.309 -1.186,-0.623 -1.698,-0.941l-0.244,0.502l-0.162,0.304l-0.118,0.191l-0.079,0.101l-0.034,0.032l-0.023,0.016l-0.014,0.005l-0.006,0.002l-0.007,0.001l-0.006,-0.001l-0.005,-0.001l-0.006,-0.002l-0.005,-0.004l-0.005,-0.004l-0.004,-0.005l-0.005,-0.006l0.018,-0.247l0.01,-0.301l-0.005,-0.28l-0.017,-0.259l-0.03,-0.239l-0.054,-0.268l-0.023,-0.087c-0.428,-0.311 -0.8,-0.626 -1.108,-0.944l-0.114,0.048l-0.284,0.139l-0.179,0.1l-0.113,0.109l-0.16,0.195l-0.126,0.192l-0.116,0.215l-0.081,0.177l-0.079,0.206l-0.084,0.275l-0.041,0.163l0.079,-0.466l0.084,-0.435l0.061,-0.292l-0.085,0.03l-0.1,0.019l-0.076,0.004c-0.041,-0.001 -0.08,-0.005 -0.119,-0.014l-0.062,-0.016c-0.052,-0.017 -0.103,-0.04 -0.153,-0.07c-0.025,-0.015 -0.05,-0.031 -0.075,-0.049c-0.038,-0.027 -0.075,-0.058 -0.111,-0.092c-0.11,-0.102 -0.214,-0.233 -0.31,-0.382c-0.231,-0.356 -0.423,-0.818 -0.573,-1.256l-0.041,-0.123c-0.088,-0.265 -0.16,-0.517 -0.216,-0.725c-0.075,-0.279 -0.121,-0.482 -0.137,-0.536c-0.003,-0.008 -0.004,-0.012 -0.006,-0.014c-0.131,0.085 -0.306,0.197 -0.51,0.324c-0.729,0.456 -1.826,1.118 -2.635,1.527c-0.175,0.089 -0.337,0.166 -0.478,0.226c-0.067,0.028 -0.13,0.053 -0.188,0.074l-0.104,0.034l-0.054,0.009l-0.054,-0.001l-0.054,-0.01l-0.059,-0.022l-0.073,-0.042l-0.106,-0.093l-0.144,-0.184l-0.125,-0.222l-0.121,-0.27l-0.113,-0.313l-0.104,-0.348l-0.079,-0.319l-0.063,-0.293l-0.036,-0.185c-0.043,-0.24 -0.081,-0.491 -0.112,-0.748l-0.027,-0.246l-0.031,-0.351l-0.022,-0.355l-0.013,-0.357l-0.002,-0.356l0.006,-0.293l-0.125,-0.073l-0.168,0.104l-0.236,0.109l-0.227,0.074l-0.242,0.055l-0.248,0.036l-0.32,0.021l-0.359,-0.002l-0.214,-0.012l-0.225,-0.021l-0.227,-0.027l-0.229,-0.035l-0.111,-0.019l-0.236,-0.045l-0.35,-0.076l-0.384,-0.097l-0.411,-0.116l-0.53,-0.169l-0.439,-0.154l-0.324,-0.122l-0.292,-0.117l-0.24,-0.102c-0.037,-0.015 -0.07,-0.03 -0.102,-0.044l-0.141,-0.068c-0.058,-0.03 -0.117,-0.063 -0.177,-0.099c-0.044,-0.027 -0.089,-0.055 -0.134,-0.084l-0.169,-0.117c-0.081,-0.059 -0.164,-0.123 -0.246,-0.19c-0.362,-0.296 -0.736,-0.675 -1.092,-1.119c-0.359,-0.447 -0.698,-0.959 -0.986,-1.518c-0.106,-0.205 -0.205,-0.417 -0.295,-0.633c-0.129,-0.31 -0.241,-0.63 -0.33,-0.958c-0.083,-0.304 -0.147,-0.615 -0.189,-0.93l-0.026,-0.231c-0.02,-0.208 -0.029,-0.417 -0.028,-0.627c0.001,-0.136 -0.113,-0.373 -0.113,-0.373l-0.037,-0.033c-0.019,-0.013 -0.304,-0.072 -0.304,-0.072c-0.126,0.005 -0.272,0.036 -0.431,0.081c-0.403,0.115 -0.89,0.324 -1.343,0.441c-0.135,0.035 -0.268,0.062 -0.393,0.075l-0.227,0.005l-0.396,-0.087l-0.39,-0.198l-0.442,-0.353l-0.266,-0.279l-0.343,-0.429l-0.345,-0.513l-0.805,-1.527l-0.347,-0.808l-0.245,-0.636l-0.663,-2.021l-0.288,-1.058l-0.782,-4.293l-0.045,-0.516l-0.027,-0.441l-0.01,-0.24l-0.007,-0.276l0.002,-0.397l0.018,-0.41l0.031,-0.339c0.018,-0.162 0.042,-0.312 0.072,-0.451l0.019,-0.087c-0.298,-1.12 -0.551,-2.279 -0.754,-3.477l-0.011,0.011c-0,0 -2.731,-3.966 -2.228,-11.371c0.512,-7.546 4.124,-14.398 4.343,-14.116Z" style="fill:#ded7d0;"/><path d="M79.11,137.793c2.22,0.028 5.759,-1.491 7.277,-2.872l0.313,0.037c0.622,0.955 3.844,1.988 7.295,2.043c1.197,0.019 0.986,2.609 2.184,2.51c0.585,-0.048 1.506,-0.738 3.092,-2.682c1.251,-1.534 3.425,3.24 4.171,2.84c1.214,-0.651 3.652,-3.3 5.411,-2.687c1.07,0.374 -0.965,3.284 3.812,-1.362c0.893,0.397 1.772,1.638 2.618,2.914c0.671,1.011 4.128,-2.892 5.84,-4.923c0.559,-0.662 0.444,-0.59 0.985,-1.124l0.74,0.741c0.041,0.037 0.084,0.075 0.128,0.113l0.197,0.173l3.114,2.516c-0.858,0.34 -1.755,0.668 -2.676,0.982l-0.05,0.179l-0.043,0.192l-0.035,0.196l-0.024,0.198l0.009,-0.466l0.01,-0.254c-0.262,0.089 -0.525,0.177 -0.79,0.263c-0.078,0.133 -0.156,0.263 -0.231,0.39l-0.374,0.623l-0.371,0.612l-0.321,0.522l-0.028,-0.308l-0.05,-0.508l-0.059,-0.538l-0.039,-0.329c-0.492,0.15 -0.987,0.296 -1.485,0.438l-0.124,0.472l-0.143,0.52l-0.135,0.461l-0.1,0.308l-0.131,0.331l-0.046,0.08l-0.026,0.032l-0.008,0.007l-0.007,0.006l-0.008,0.004l-0.003,0.001l-0.004,0.001l-0.003,0l-0.004,0.001l-0.003,-0.001l-0.003,-0.001l-0.004,-0.001l-0.003,-0.001l-0.003,-0.003c-0.001,-0 -0.002,-0.001 -0.003,-0.002c-0.111,-3.701 -2.322,0.235 -2.597,3.103c-0,0 0.067,-2.324 0.455,-3.916c-0.136,0.231 -0.269,0.454 -0.395,0.663c-0.053,0.229 -0.093,0.473 -0.118,0.728c0,0 0.007,-0.222 0.027,-0.577c-0.441,0.732 -0.765,1.253 -0.765,1.253c0,0 -0.099,-1.21 -0.261,-2.317c-0.4,0.095 -0.799,0.188 -1.195,0.277c-0.368,1.448 -0.809,3.156 -0.965,3.011c-0.016,-0.55 -0.081,-0.988 -0.179,-1.324c-0.362,-0.394 -1.277,0.705 -1.649,0.468c-0.607,0.267 -1.228,1.328 -1.363,2.742c-0,0 0.059,-2.046 0.387,-3.613c-0.096,-0.13 -0.189,-0.277 -0.28,-0.446c-0.379,0.072 -0.753,0.14 -1.121,0.204c-0.728,0.642 -1.59,1.767 -1.668,2.699c-0.405,1.162 -1.198,1.242 -1.799,-0.476c-0.011,-0.008 -0.023,-0.02 -0.034,-0.036c-0.576,-0.772 -1.208,-0.945 -1.796,-1.432c-0.961,0.094 -1.767,0.139 -2.372,0.132c-0.085,-0.001 -0.174,-0.003 -0.269,-0.006c-0.491,0.643 -0.907,1.4 -0.96,2.03c-0.363,1.043 -1.031,-0.648 -1.599,-2.247c-0.43,-0.05 -0.89,-0.108 -1.376,-0.174c-0.255,1.203 -0.324,2.914 -0.733,2.579c-0.99,-0.812 -2.098,-1.968 -3.091,-3.166c-1.061,-0.18 -2.182,-0.383 -3.342,-0.606c-0.63,0.434 -1.16,1.009 -1.24,1.636c-0.593,1.157 -1.716,-0.799 -2.611,-2.426c-0.253,-0.055 -0.506,-0.111 -0.76,-0.168c-1.067,0.716 -1.996,1.297 -1.996,1.297c-0,-0 -0.056,-0.859 -0.183,-1.799c-0.684,-0.163 -1.368,-0.332 -2.05,-0.505c-0.601,1.084 -1.263,2.213 -1.469,2.02c0.013,-0.834 -0.181,-1.602 -0.492,-2.252Zm-14.911,-6.709l0.165,-0.07l0.291,-0.106l0.135,-0.043l0.256,-0.073l0.26,-0.063l0.306,-0.062l0.319,-0.055l0.545,-0.085l0.149,0.051l0.001,0.002c2.283,4.515 6.871,2.696 7.995,2.584c1.665,-0.166 2.078,2.718 2.73,3.853c-0.594,-0.171 -1.18,-0.346 -1.757,-0.525c-0.03,0.082 -0.057,0.171 -0.079,0.268l0.038,-0.281c-0.325,-0.1 -0.647,-0.202 -0.964,-0.305l-0.477,0.437l-0.396,0.357l-0.353,0.313l0.011,-0.447l0.007,-0.513l0.002,-0.375l-0,-0.172c-0.494,-0.169 -0.977,-0.34 -1.448,-0.514l-0.182,0.402l-0.231,0.487l-0.176,0.346l-0.156,0.271l-0.109,0.15l-0.035,0.035l-0.018,0.013l-0.01,0.007l-0.008,0.003l-0,0.001l-0.001,-0l-0.008,0.003l-0.007,0.001l-0.005,-0l-0.007,-0.001l-0.004,-0.001l-0.003,-0.001l-0.003,-0.002l-0.007,-0.004l-0.005,-0.006l-0.005,-0.007l0.02,-0.3l0.007,-0.249l-0.002,-0.208l-0.01,-0.2l-0.016,-0.188l-0.033,-0.234l-0.043,-0.209l-0.056,-0.196l-0.064,-0.174l-0.072,-0.151l-0.049,-0.085c-0.35,-0.139 -0.691,-0.28 -1.023,-0.422l-0.172,0.076l-0.163,0.106l-0.171,0.149l-0.134,0.148l-0.127,0.171l-0.098,0.156l-0.091,0.172l-0.085,0.186l-0.077,0.201l-0.069,0.216l-0.059,0.229l0.074,-0.438l0.109,-0.562l0.077,-0.361l0.067,-0.295l0.054,-0.222c0.024,-0.093 0.048,-0.187 0.073,-0.281l-0.159,-0.073c-0.105,-0.049 -0.209,-0.098 -0.313,-0.147l-0.154,-0.074l-0.277,0.246l-0.102,0.09l0.005,-0.172c0.003,-0.088 0.005,-0.204 0.008,-0.343c-0.618,-0.309 -1.187,-0.622 -1.699,-0.94l-0.243,0.501l-0.163,0.305l-0.118,0.191l-0.078,0.101l-0.034,0.032l-0.023,0.015l-0.008,0.004l-0.006,0.002l-0.007,0.001l-0.006,0.001l-0.006,-0l-0.006,-0.002l-0.005,-0.002l-0.006,-0.003l-0.004,-0.004l-0.005,-0.005l-0.004,-0.006l0.018,-0.248l0.009,-0.301l-0.004,-0.28l-0.018,-0.259l-0.03,-0.239l-0.053,-0.267l-0.023,-0.088c-0.429,-0.311 -0.801,-0.626 -1.109,-0.944Zm67.628,2.812l-0.111,0.145l-0.389,0.503c-0.061,0.079 -0.094,0.121 -0.094,0.121l-0.012,-0.062l-0.027,-0.134c0.211,-0.185 0.423,-0.377 0.633,-0.573Zm-68.204,-2.525l-0.114,0.109l-0.159,0.195l-0.126,0.192l-0.117,0.215l-0.08,0.177l-0.079,0.207l-0.085,0.275l-0.04,0.163l0.079,-0.466l0.083,-0.436l0.062,-0.291c0.02,-0.008 0.039,-0.017 0.059,-0.027c0.018,-0.009 0.036,-0.019 0.054,-0.03l0.11,-0.071l0.239,-0.149l0.114,-0.063Z" style="fill:#868686;fill-opacity:0.18;"/><path d="M156.487,79.377c-0,-0 0.01,13.89 -0.919,13.486c-9.533,-4.137 -0.997,4.176 -0.208,5.132c0.423,0.511 -3.15,12.338 -2.813,10.793c0.774,-3.554 3.046,2.204 3.417,-1.713c0.087,-3.712 3.271,-8.544 3.416,-7.278c0.488,4.27 0.853,6.933 0.187,10.014c-0.287,1.331 3.851,-5.884 4.474,-13.923c0.175,-2.249 0.047,-4.183 -0.214,-5.786c-0.6,-3.671 -1.905,-5.606 -1.905,-5.606c-1.294,1.238 -3.439,9.909 -3.774,1.517c-0.209,-0.791 -1.661,-6.636 -1.661,-6.636Z" style="fill:#fff;fill-opacity:0.12;"/><path d="M66.59,130.509c2.271,4.605 6.901,2.768 8.031,2.655c1.858,-0.185 2.157,3.427 2.967,4.17c1.848,1.692 9.406,-1.698 9.528,-3.53c-2.73,-0.15 -13.419,0.114 -13.123,-5.734c0.159,-3.156 -6.422,-0.75 -8.261,-1.219c-2.569,1.243 0.27,-8.73 -1.233,-7.475c-2.078,1.735 -4.889,3.263 -7.819,2.622c-2.549,-0.558 0.136,-5.972 -1.964,-6.626c-2.64,-0.821 -6.317,1.139 -8.185,0.271c-3.24,-1.504 -7.465,-12.16 -8.732,-13.29c-1.617,2.29 1.725,16.41 5.209,16.033c1.086,-0.118 2.629,-1.207 2.622,-0.12c-0.021,3.079 2.334,5.917 3.813,6.574c1.013,0.45 4.788,1.927 6.245,0.656c-0.12,2.479 0.598,5.419 1.399,5.17c0.831,-0.259 3.117,-1.677 3.896,-2.179c0.038,0.04 0.827,4.069 2.226,3.136c1.324,-0.882 2.4,-0.951 3.381,-1.114Z" style="fill:#fff;fill-opacity:0.12;"/><path d="M66.59,130.509c2.271,4.605 6.901,2.768 8.031,2.655c1.858,-0.185 2.157,3.427 2.967,4.17c1.848,1.692 9.406,-1.698 9.528,-3.53c-2.73,-0.15 -13.419,0.114 -13.123,-5.734c0.159,-3.156 -6.422,-0.75 -8.261,-1.219c-2.569,1.243 0.27,-8.73 -1.233,-7.475c-2.078,1.735 -4.889,3.263 -7.819,2.622c-2.549,-0.558 0.136,-5.972 -1.964,-6.626c-2.64,-0.821 -6.317,1.139 -8.185,0.271c-3.24,-1.504 -7.465,-12.16 -8.732,-13.29c-1.617,2.29 1.725,16.41 5.209,16.033c1.086,-0.118 2.629,-1.207 2.622,-0.12c-0.021,3.079 2.334,5.917 3.813,6.574c1.013,0.45 4.788,1.927 6.245,0.656c-0.12,2.479 0.598,5.419 1.399,5.17c0.831,-0.259 3.117,-1.677 3.896,-2.179c0.038,0.04 0.827,4.069 2.226,3.136c1.324,-0.882 2.4,-0.951 3.381,-1.114Z" style="fill:#dad1c9;"/><path d="M101.332,106.256c3.233,1.218 8.08,2.734 9.661,1.569c1.006,-0.741 0.769,-3.034 2.705,-3.092c4.272,3.635 18.254,-0.479 17.384,-3.723c-0,0 3.106,4.326 -1.556,6.362c-2.493,1.088 -0.698,5.707 -2.986,5.546c-5.262,-0.368 -10.709,1.245 -15.62,0.112c-1.456,-0.336 -0.261,1.856 -0.395,3.994c-2.597,2.935 -6.398,-0.248 -9.024,-0.349c-0.923,-0.035 -1.614,1.042 -2.143,-1.427c-1.029,2.527 -2.288,1.605 -3.294,1.628c-2.696,0.063 -7.156,3.063 -9.268,0.219c0.253,-2.049 1.872,-4.133 0.326,-3.83c-5.217,1.022 -10.479,-0.592 -15.914,-0.306c-2.364,0.124 0.311,-4.276 -2.034,-5.35c-4.384,-2.009 -0.425,-6.112 -0.425,-6.112c-1.48,3.095 12.033,7.213 17.055,3.787c1.964,0.081 1.303,2.273 2.194,2.996c1.446,1.172 6.963,-0.347 10.478,-1.488c-0.133,-1.071 2.955,-0.86 2.856,-0.536Z" style="fill:#fff;fill-opacity:0.11;"/><path d="M130.787,80.329c0.604,-2.303 5.203,7.784 5.203,7.784c-0,-0 5.334,-10.897 4.372,-11.656c-1.18,-0.933 -6.875,-12.702 -7.248,-8.548c0.5,3.538 -3.127,10.057 -3.855,9.071c-2.457,-3.326 -4.43,-2.215 -6.84,-4.364c-1.048,-0.934 0.951,7.315 0.139,8.41c-1.517,2.048 0.982,10.19 0.982,10.19c-1.232,-5.68 3.839,-8.49 6.67,-1.164c0.836,0.466 0.328,-8.777 0.577,-9.723Z" style="fill:#fff;fill-opacity:0.12;"/><path d="M139.72,60.281c2.455,0.572 -7.971,-16.29 -7.971,-16.29c0,-0 10.004,6.103 15.678,13.512c7.012,9.158 12.175,19.112 7.83,16.888c-3.604,-3.255 -7.634,-7.835 -6.698,-5.948c3.157,6.364 1.775,8.885 3.718,14.366c0.845,2.384 -7.463,-6.59 -8.692,-5.99c-2.297,1.122 -10.436,-8.611 -10.436,-8.611c5.737,5.939 9.24,-0.574 1.986,-10.299c-0.385,-1.709 3.576,2.137 4.585,2.372Z" style="fill:#fff;fill-opacity:0.12;"/><path d="M55.036,68.517c-1.729,0.579 -3.478,0.958 -3.857,0.302c-0.427,-0.739 -7.134,1.958 -6.02,0.816c2.561,-2.626 2.623,-4.546 6.038,-7.314c1.012,-0.82 -2.307,0.622 -5.03,1.416c-2.783,-0.047 2.891,-5.745 4.061,-7.022c0.952,-1.04 10.565,-8.138 10.565,-8.138c0,0 -6.514,9.633 -5.143,10.063c0.564,0.177 5.91,0.776 5.22,1.664c-4.406,2.385 -5.874,5.463 -4.883,6.6c0.79,-1.157 1.611,-2.067 1.611,-2.067c-0.603,0.849 -0.77,1.737 -0.614,2.506c0.484,0.038 1.099,-0.064 1.839,-0.342c0,0 -0.721,0.337 -1.723,0.745c0.659,1.767 3.137,2.64 5.736,0.261c0.784,0.017 -0.608,2.19 -0.601,2.87c0.012,1.14 3.306,-0.674 5.354,-1.914c0.487,-1.167 0.929,-1.991 0.929,-1.991c-0.208,0.553 -0.3,1.091 -0.293,1.6c0.582,-0.362 0.961,-0.612 0.961,-0.612c0,-0 -0.339,0.532 -0.877,1.364c0.739,3.46 6.175,5.099 9.561,0.148c1.182,-0.237 0.131,3.125 0.466,4.031c0.813,2.205 9.022,-6.197 9.022,-6.197c0,-0 -5.239,16.969 -6.601,17.443c-1.674,0.583 -5.293,5.83 -5.753,2.009c0.758,-3.077 2.365,-6.453 1.327,-5.724c-3.502,2.46 -6.257,1.03 -9.677,2.44c-1.487,0.614 1.449,-6.379 0.326,-7.541c-0.82,-0.85 -0.765,-2.404 -0.392,-3.983c-2.091,3.152 -4.772,7.034 -5.333,7.105c-1.165,0.148 -4.562,3.234 -4.004,0.511c1.148,-2.019 2.887,-4.116 2.083,-3.769c-2.71,1.17 -4.1,-0.245 -6.527,0.209c-1.056,0.197 2.303,-4.206 1.864,-5.185c-0.267,-0.596 -0.05,-1.439 0.365,-2.304Z" style="fill:#fff;fill-opacity:0.12;"/><path d="M112.665,135.62c-4.777,4.646 -2.742,1.736 -3.812,1.362c-1.759,-0.613 -4.197,2.036 -5.411,2.687c-0.746,0.4 -2.92,-4.374 -4.171,-2.84c-4.833,5.924 -3.494,0.201 -5.276,0.172c-4.064,-0.065 -7.811,-1.486 -7.368,-2.538c2.815,0.43 19.618,-1.71 22.501,-8.307c1.555,-3.56 9.707,0.89 11.802,0.769c1.896,1.951 4.373,-6.005 5.195,-4.275c1.138,2.394 7.847,2.499 11.129,2.424c2.854,-0.065 -1.617,-4.482 0.841,-4.752c3.088,-0.339 5.704,2.656 8.047,2.096c4.06,-0.971 12.571,-16.802 14.453,-17.786c0.374,2.912 -5.62,22.095 -12.418,21.62c-1.029,-0.072 -1.976,-1.923 -2.559,-0.707c-1.652,3.443 -5.552,6.097 -7.391,6.507c-1.258,0.281 -2.395,-0.403 -3.163,-2.141c-1.226,2.794 -6.988,7.427 -7.655,6.973c-0.691,-0.47 -4.818,-3.694 -5.325,-4.426c-0.059,0.037 -5.907,7.424 -6.801,6.076c-0.846,-1.276 -1.725,-2.517 -2.618,-2.914Z" style="fill:#dad1c9;"/><path d="M86.598,134.716c-1.754,1.827 -7.441,4.054 -9.01,2.618c-0.81,-0.743 -1.109,-4.355 -2.967,-4.17c-1.13,0.113 -5.76,1.95 -8.031,-2.655c-0.981,0.163 -2.057,0.232 -3.381,1.114c-1.399,0.933 -2.188,-3.096 -2.226,-3.136c-0.779,0.502 -3.065,1.92 -3.896,2.179c-0.801,0.249 -1.519,-2.691 -1.399,-5.17c-1.457,1.271 -5.232,-0.206 -6.245,-0.656c-1.479,-0.657 -3.834,-3.495 -3.813,-6.574c0.007,-1.087 -1.536,0.002 -2.622,0.12c-3.484,0.377 -6.826,-13.743 -5.209,-16.033c1.267,1.13 5.492,11.786 8.732,13.29c1.868,0.868 5.545,-1.092 8.185,-0.271c2.1,0.654 -0.585,6.068 1.964,6.626c2.93,0.641 5.741,-0.887 7.819,-2.622c1.503,-1.255 -1.336,8.718 1.233,7.475c1.839,0.469 8.42,-1.937 8.261,1.219c-0.296,5.848 10.393,5.584 13.123,5.734c-0.014,0.21 -0.125,0.44 -0.314,0.68c3.27,0.326 19.498,-1.856 22.326,-8.328c1.555,-3.56 9.707,0.89 11.802,0.769c1.896,1.951 4.373,-6.005 5.195,-4.275c1.138,2.394 7.847,2.499 11.129,2.424c2.854,-0.065 -1.617,-4.482 0.841,-4.752c3.088,-0.339 5.704,2.656 8.047,2.096c4.06,-0.971 12.571,-16.802 14.453,-17.786c0.374,2.912 -5.62,22.095 -12.418,21.62c-1.029,-0.072 -1.976,-1.923 -2.559,-0.707c-1.652,3.443 -5.552,6.097 -7.391,6.507c-1.258,0.281 -2.395,-0.403 -3.163,-2.141c-1.226,2.794 -6.988,7.427 -7.655,6.973c-0.691,-0.47 -4.818,-3.694 -5.325,-4.426c-0.059,0.037 -5.907,7.424 -6.801,6.076c-0.846,-1.276 -1.725,-2.517 -2.618,-2.914c-4.777,4.646 -2.742,1.736 -3.812,1.362c-1.759,-0.613 -4.197,2.036 -5.411,2.687c-0.746,0.4 -2.92,-4.374 -4.171,-2.84c-4.833,5.924 -3.494,0.201 -5.276,0.172c-3.745,-0.06 -7.221,-1.271 -7.397,-2.285Z" style="fill:#fff;fill-opacity:0.21;"/><path d="M64.888,119.41c8.755,2.848 18.544,4.311 28.412,4.638c26.348,0.871 52.645,-5.867 61.957,-24.875c-0.426,2.153 -1.726,6.65 -2.367,8.697c-0.133,0.191 -0.249,0.485 -0.343,0.918c-0.083,0.38 0.07,-0.048 0.343,-0.918c0.956,-1.378 2.748,2.646 3.074,-0.795c0.087,-3.712 3.271,-8.544 3.416,-7.278c0.245,2.143 0.458,3.881 0.527,5.471c-2.738,3.164 -10.082,16.269 -13.765,17.15c-2.343,0.56 -4.959,-2.435 -8.047,-2.096c-2.458,0.27 2.013,4.687 -0.841,4.752c-3.282,0.075 -9.991,-0.03 -11.129,-2.424c-0.822,-1.73 -3.299,6.226 -5.195,4.275c-2.095,0.121 -10.247,-4.329 -11.802,-0.769c-2.828,6.472 -19.056,8.654 -22.326,8.328c0.189,-0.24 0.3,-0.47 0.314,-0.68c-2.73,-0.15 -13.419,0.114 -13.123,-5.734c0.159,-3.156 -6.422,-0.75 -8.261,-1.219c-2.233,1.081 -0.381,-6.311 -0.844,-7.441Zm-27.089,-17.057c-0.118,0.167 -1.009,-2.468 -1.237,-4.153c5.503,10.251 15.731,17.057 28.026,21.112c-0.028,0.016 -0.058,0.038 -0.089,0.064c-2.078,1.735 -4.889,3.263 -7.819,2.622c-2.549,-0.558 0.136,-5.972 -1.964,-6.626c-2.64,-0.821 -6.317,1.139 -8.185,0.271c-3.24,-1.504 -7.465,-12.16 -8.732,-13.29Zm120.61,-13.646c0.222,-1.588 0.35,-3.235 0.38,-4.944c0.095,-5.279 -0.441,-10.326 -1.537,-15.094c2.244,4.918 3.854,10.254 4.739,15.936c-0.044,-0.072 -0.069,-0.109 -0.069,-0.109c-1.101,1.054 -2.819,7.491 -3.513,4.211Z" style="fill:#808080;fill-opacity:0.1;"/><path d="M96.015,39.3c0,0 -8.838,1.868 -10.057,2.11c-5.344,1.062 -11.61,2.374 -6.432,-1.594c0,-0 -10.085,4.635 -9.828,6.287c0.137,0.883 -5.741,7.593 -3.974,7.036c4.063,-1.282 2.258,1.12 7.169,-1.009c1.455,-0.631 0.735,0.774 -2.202,3.276c-2.368,2.997 -0.083,4.489 3.744,2.444c3.268,-2.286 5.433,-2.96 4.555,-1.953c-2.965,3.398 -0.308,1.767 -2.178,4.481c-0.813,1.18 6.761,-4.672 7.825,-4.771c1.99,-0.186 10.501,-5.292 10.501,-5.292c-2.8,-0.897 -9.179,1.311 -2.51,-4.55c0.389,-0.785 3.387,-6.465 3.387,-6.465Z" style="fill:#fff;fill-opacity:0.12;"/><path d="M42.242,104.633c-0,-0 -0.144,-13.89 0.79,-13.495c9.572,4.046 0.956,-4.185 0.158,-5.133c-0.427,-0.507 3.032,-12.369 2.71,-10.82c-0.74,3.562 -3.068,-2.175 -3.401,1.746c-0.051,3.713 -3.189,8.575 -3.346,7.311c-0.528,-4.266 -0.919,-6.926 -0.283,-10.013c0.274,-1.333 -3.794,5.921 -4.341,13.965c-0.503,7.405 2.228,11.371 2.228,11.371c1.283,-1.249 3.344,-9.941 3.76,-1.553c0.217,0.789 1.725,6.621 1.725,6.621Z" style="fill:#fff;fill-opacity:0.12;"/><path d="M42.426,94.237c6.685,5.462 15.314,9.216 24.822,11.541c0.239,0.677 0.814,1.321 1.926,1.831c2.345,1.074 -0.33,5.474 2.034,5.35c5.435,-0.286 10.697,1.328 15.914,0.306c1.546,-0.303 -0.073,1.781 -0.326,3.83c2.112,2.844 6.572,-0.156 9.268,-0.219c1.006,-0.023 2.265,0.899 3.294,-1.628c0.529,2.469 1.22,1.392 2.143,1.427c2.626,0.101 6.427,3.284 9.024,0.349c0.134,-2.138 -1.061,-4.33 0.395,-3.994c4.911,1.133 10.358,-0.48 15.62,-0.112c2.288,0.161 0.493,-4.458 2.986,-5.546c3.347,-1.461 2.69,-4.103 2.053,-5.478c13.769,-6.191 23.265,-16.894 23.56,-33.467c0.025,-1.358 0.007,-2.701 -0.051,-4.025c3.389,6.048 5.756,12.836 6.903,20.203c-0.044,-0.072 -0.069,-0.109 -0.069,-0.109c-1.294,1.238 -3.439,9.909 -3.774,1.517c-0.209,-0.791 -1.661,-6.636 -1.661,-6.636c-0,-0 0.01,13.89 -0.919,13.486c-9.533,-4.137 -0.997,4.176 -0.208,5.132c0.319,0.385 -1.635,7.208 -2.47,9.875c-0.133,0.191 -0.249,0.485 -0.343,0.918c-0.083,0.38 0.07,-0.048 0.343,-0.918c0.956,-1.378 2.748,2.646 3.074,-0.795c0.087,-3.712 3.271,-8.544 3.416,-7.278c0.488,4.27 0.853,6.933 0.187,10.014c-0.022,0.103 -0.017,0.155 0.01,0.159l-0.023,0.076c-0.064,0.216 -2.662,7.068 -2.662,7.068l-0.258,0.548l-0.135,0.279l-2.087,3.699l-0.171,0.255l-0.211,0.303l-0.211,0.294l-0.152,0.204l-2.087,2.244l-0.238,0.188l-0.236,0.173l-0.297,0.198l-0.239,0.143l-0.301,0.16l-0.303,0.137l-0.244,0.093l-0.306,0.095l-0.246,0.058l-0.309,0.05l-0.31,0.024l-0.249,-0l-0.125,-0.007c-0.772,-0.054 -1.497,-1.109 -2.058,-1.12l-0.018,0c-0.179,0.004 -0.342,0.118 -0.483,0.413c-1.652,3.443 -5.552,6.097 -7.391,6.507c-0.157,0.035 -0.312,0.055 -0.465,0.06l-0.058,0.001c-1.028,0.007 -1.946,-0.682 -2.603,-2.122l-0.037,-0.08c-1.159,2.641 -6.371,6.926 -7.501,7.003l-0.027,0.001c-0.053,0.001 -0.095,-0.009 -0.127,-0.031l-0.286,-0.206l-0.235,-0.176l-0.258,-0.196l-3.457,-2.792l-0.197,-0.173c-0.044,-0.038 -0.087,-0.076 -0.128,-0.113l-0.74,-0.741c-0.541,0.534 -0.426,0.462 -0.985,1.124c-1.712,2.031 -5.169,5.934 -5.84,4.923c-0.846,-1.276 -1.725,-2.517 -2.618,-2.914c-4.777,4.646 -2.742,1.736 -3.812,1.362c-1.759,-0.613 -4.197,2.036 -5.411,2.687c-0.746,0.4 -2.92,-4.374 -4.171,-2.84c-1.586,1.944 -2.507,2.634 -3.092,2.682c-1.198,0.099 -0.987,-2.491 -2.184,-2.51c-3.451,-0.055 -6.673,-1.088 -7.295,-2.043l-0.313,-0.037c-1.96,1.782 -7.288,3.796 -8.799,2.413c-0.81,-0.743 -1.109,-4.355 -2.967,-4.17c-1.124,0.112 -5.712,1.931 -7.995,-2.584l-0.001,-0.002l-0.149,-0.051l-0.545,0.085l-0.319,0.055l-0.306,0.062l-0.26,0.063l-0.256,0.073l-0.135,0.043l-0.291,0.106l-0.278,0.119l-0.285,0.139l-0.292,0.162l-0.239,0.149l-0.11,0.071c-0.018,0.011 -0.036,0.021 -0.054,0.03c-0.049,0.024 -0.097,0.043 -0.144,0.056l-0.1,0.02l-0.077,0.003c-0.04,-0 -0.08,-0.005 -0.119,-0.013l-0.061,-0.017c-0.052,-0.016 -0.104,-0.04 -0.154,-0.069c-0.025,-0.015 -0.05,-0.032 -0.074,-0.049c-0.038,-0.028 -0.075,-0.059 -0.111,-0.093c-0.111,-0.102 -0.214,-0.233 -0.311,-0.382c-0.23,-0.356 -0.422,-0.817 -0.572,-1.256l-0.042,-0.122c-0.087,-0.265 -0.159,-0.517 -0.215,-0.726c-0.075,-0.279 -0.121,-0.481 -0.138,-0.535c-0.002,-0.008 -0.004,-0.013 -0.005,-0.014c-0.132,0.085 -0.307,0.196 -0.511,0.323c-0.728,0.456 -1.826,1.119 -2.635,1.528c-0.175,0.088 -0.336,0.165 -0.478,0.225c-0.067,0.029 -0.13,0.054 -0.187,0.074l-0.104,0.034l-0.054,0.009l-0.055,-0.001l-0.054,-0.01l-0.059,-0.022l-0.072,-0.042l-0.106,-0.092l-0.144,-0.185l-0.126,-0.221l-0.121,-0.271l-0.112,-0.312l-0.104,-0.349l-0.079,-0.319l-0.064,-0.293l-0.035,-0.185c-0.044,-0.24 -0.081,-0.49 -0.112,-0.748l-0.028,-0.245l-0.031,-0.352l-0.022,-0.355l-0.012,-0.357l-0.003,-0.355l0.006,-0.294l-0.125,-0.073l-0.167,0.104l-0.237,0.109l-0.227,0.075l-0.241,0.055l-0.248,0.035l-0.321,0.022l-0.358,-0.002l-0.214,-0.013l-0.225,-0.02l-0.227,-0.028l-0.229,-0.034l-0.111,-0.019l-0.236,-0.045l-0.35,-0.077l-0.384,-0.096l-0.412,-0.117l-0.529,-0.168l-0.439,-0.155l-0.324,-0.122l-0.292,-0.117l-0.241,-0.101c-0.036,-0.016 -0.07,-0.031 -0.101,-0.045l-0.141,-0.068c-0.058,-0.03 -0.117,-0.063 -0.177,-0.099c-0.045,-0.026 -0.089,-0.054 -0.134,-0.084l-0.169,-0.117c-0.081,-0.059 -0.164,-0.122 -0.247,-0.19c-0.361,-0.295 -0.736,-0.675 -1.091,-1.119c-0.359,-0.446 -0.698,-0.959 -0.986,-1.518c-0.106,-0.205 -0.205,-0.416 -0.295,-0.633c-0.129,-0.309 -0.241,-0.629 -0.33,-0.957c-0.083,-0.304 -0.148,-0.615 -0.189,-0.931l-0.026,-0.231c-0.02,-0.207 -0.03,-0.416 -0.028,-0.627c0.001,-0.136 -0.113,-0.373 -0.113,-0.373l-0.038,-0.033c-0.018,-0.013 -0.303,-0.071 -0.303,-0.071c-0.126,0.004 -0.272,0.035 -0.431,0.081c-0.404,0.115 -0.891,0.323 -1.344,0.44c-0.135,0.035 -0.267,0.062 -0.393,0.076l-0.227,0.004l-0.395,-0.087l-0.391,-0.197l-0.441,-0.354l-0.267,-0.279l-0.342,-0.428l-0.345,-0.514l-0.805,-1.526l-0.347,-0.809l-0.246,-0.636l-0.662,-2.02l-0.288,-1.058l-0.782,-4.294l-0.045,-0.516l-0.028,-0.44l-0.01,-0.24l-0.006,-0.277l0.001,-0.396l0.018,-0.41l0.031,-0.34c0.019,-0.161 0.043,-0.312 0.072,-0.451l0.02,-0.086c-0.299,-1.12 -0.551,-2.279 -0.755,-3.477c1.284,-1.288 3.335,-9.907 3.749,-1.543c0.217,0.789 1.725,6.621 1.725,6.621c-0,-0 -0.067,-6.409 0.184,-10.396Zm68.824,13.337c-0.076,0.095 -0.161,0.18 -0.257,0.251c-0.69,0.508 -2.002,0.506 -3.53,0.241c1.272,-0.142 2.534,-0.306 3.787,-0.492Zm19.505,-5.317c-1.867,0.806 -3.81,1.531 -5.817,2.179c-2.006,0.648 -4.076,1.219 -6.197,1.715c4.678,0.064 10.512,-1.875 12.014,-3.894Z" style="fill:#808080;fill-opacity:0.1;"/></svg>