<?xml version="1.0" encoding="UTF-8" standalone="no"?><!DOCTYPE svg PUBLIC "-//W3C//DTD SVG 1.1//EN" "http://www.w3.org/Graphics/SVG/1.1/DTD/svg11.dtd"><svg width="100%" height="100%" viewBox="0 0 200 200" version="1.1" xmlns="http://www.w3.org/2000/svg" xmlns:xlink="http://www.w3.org/1999/xlink" xml:space="preserve" xmlns:serif="http://www.serif.com/" style="fill-rule:evenodd;clip-rule:evenodd;stroke-linejoin:round;stroke-miterlimit:2;"><g><path d="M64.319,143.351c-0.018,-0.03 -0.036,-0.062 -0.054,-0.094c-0.223,-0.397 -0.409,-0.913 -0.554,-1.403l-0.04,-0.137c-0.085,-0.296 -0.154,-0.577 -0.208,-0.81c-0.072,-0.312 -0.117,-0.538 -0.133,-0.598c-0.002,-0.009 -0.004,-0.015 -0.005,-0.016c-0.128,0.095 -0.297,0.219 -0.494,0.361c-0.704,0.51 -1.765,1.25 -2.547,1.707c-0.169,0.099 -0.325,0.184 -0.462,0.252c-0.065,0.031 -0.126,0.059 -0.181,0.082l-0.101,0.038l-0.052,0.01l-0.053,-0.001l-0.052,-0.011l-0.057,-0.025l-0.07,-0.047l-0.103,-0.103l-0.139,-0.206l-0.121,-0.247l-0.117,-0.303l-0.109,-0.349l-0.1,-0.389l-0.077,-0.356l-0.061,-0.328l-0.034,-0.206c-0.042,-0.268 -0.079,-0.548 -0.109,-0.836l-0.026,-0.274l-0.03,-0.393l-0.021,-0.397l-0.012,-0.398l-0.003,-0.397l0.006,-0.328l-0.121,-0.081l-0.162,0.116l-0.229,0.122l-0.219,0.083l-0.234,0.061l-0.239,0.04l-0.31,0.024l-0.347,-0.003l-0.207,-0.013l-0.217,-0.023l-0.219,-0.031l-0.329,-0.06l-0.228,-0.05l-0.338,-0.085l-0.372,-0.108l-0.397,-0.13l-0.512,-0.189l-0.425,-0.172l-0.312,-0.137l-0.283,-0.131l-0.33,-0.162l-0.137,-0.076c-0.056,-0.034 -0.113,-0.071 -0.171,-0.111c-0.043,-0.03 -0.086,-0.061 -0.13,-0.094l-0.163,-0.13c-0.078,-0.066 -0.158,-0.137 -0.238,-0.213c-0.35,-0.33 -0.712,-0.754 -1.056,-1.25c-0.346,-0.499 -0.674,-1.071 -0.953,-1.696c-0.102,-0.229 -0.197,-0.465 -0.285,-0.707c-0.124,-0.345 -0.232,-0.703 -0.319,-1.069c-0.08,-0.34 -0.142,-0.687 -0.182,-1.04l-0.025,-0.258c-0.019,-0.232 -0.029,-0.465 -0.027,-0.7c0.001,-0.152 -0.109,-0.417 -0.109,-0.417l-0.037,-0.036c-0.018,-0.016 -0.293,-0.081 -0.293,-0.081c-0.122,0.006 -0.263,0.04 -0.417,0.091c-0.39,0.128 -0.861,0.362 -1.299,0.492c-0.13,0.039 -0.258,0.069 -0.38,0.084l-0.219,0.005l-0.382,-0.097l-0.378,-0.221l-0.426,-0.394l-0.258,-0.312l-0.331,-0.479l-0.333,-0.574l-0.779,-1.705l-0.335,-0.903l-0.238,-0.71l-0.64,-2.257l-0.278,-1.182l-0.756,-4.796l-0.044,-0.577l-0.026,-0.492l-0.01,-0.268l-0.006,-0.309l0.001,-0.443l0.018,-0.458l0.029,-0.379c0.019,-0.18 0.042,-0.349 0.07,-0.504l0.019,-0.096c-0.925,-4.014 -1.395,-8.47 -1.305,-13.417c0.201,-11.205 2.621,-21.947 7.256,-31.296c-1.738,-2.614 6.208,-15.504 7.857,-16.557c4.817,-3.078 12.732,-6.448 12.732,-6.448l-0.011,0.021c9.375,-5.837 21.116,-9.201 35.222,-9.072c33.64,0.309 59.111,28.062 59.329,67.275c0.032,5.875 -0.948,11.018 -2.684,15.523l-0.039,0.172l-0.165,0.707l-0.199,0.804l-0.032,0.123c-0.062,0.242 -2.574,7.896 -2.574,7.896l-0.379,0.924l-2.017,4.131l-0.166,0.286l-0.203,0.338l-0.205,0.329l-0.146,0.228l-2.018,2.506l-0.287,0.26l-0.458,0.364l-0.281,0.192l-0.295,0.176l-0.296,0.15l-0.307,0.127l-0.405,0.121l-0.352,0.063l-0.303,0.022l-0.235,-0.004c-0.024,-0.002 -0.047,-0.003 -0.07,-0.005c-0.747,-0.06 -1.448,-1.239 -1.99,-1.251l-0.017,-0c-0.174,0.004 -0.331,0.132 -0.467,0.461c-1.597,3.845 -5.367,6.81 -7.144,7.269c-0.152,0.039 -0.302,0.062 -0.45,0.067l-0.056,0.001c-0.994,0.007 -1.881,-0.762 -2.517,-2.37l-0.035,-0.09c-0.807,2.124 -3.645,5.2 -5.578,6.789c-6.386,14.021 -23.23,17.794 -27.336,17.671c-4.192,-0.126 -22.337,-1.967 -29.078,-19.112l-0.281,0.633l-0.176,0.315l-0.047,0.061l-0.028,0.026l-0.009,0.007l-0.009,0.004l-0.001,0.001l-0,0l-0.008,0.003l-0.005,0.001l-0.003,0.001l-0.004,-0l-0.004,-0.001l-0.003,-0l-0.004,-0.001l-0.003,-0.002l-0.003,-0.002l-0.006,-0.005l-0.006,-0.006l-0.005,-0.009l0.023,-0.44l0.003,-0.342l-0.015,-0.388l-0.035,-0.344l-0.052,-0.304l-0.085,-0.324l-0.105,-0.272l-0,-0c-0.395,-0.112 -0.789,-0.28 -1.17,-0.525l-0.078,0.041l-0.23,0.189l-0.218,0.262l-0.18,0.291l-0.134,0.281l-0.127,0.335l-0.087,0.297l-0.073,0.32l0.09,-0.605l0.147,-0.85l0.141,-0.695c0.023,-0.107 0.047,-0.215 0.072,-0.322l-0.468,-0.252l-0.153,-0.084l-0.375,0.384l0.012,-0.59c-0.612,-0.353 -1.175,-0.712 -1.683,-1.076l-0.269,0.638l-0.155,0.329l-0.146,0.254l-0.053,0.065l-0.021,0.019l-0.009,0.006l-0.009,0.005l-0.005,0.002l-0.007,0.002c-0.001,0 -0.003,0 -0.005,0l-0.007,-0l-0.002,-0.001l-0.004,-0c-0.001,-0.001 -0.003,-0.002 -0.004,-0.003l-0.006,-0.004l-0.005,-0.005l-0.004,-0.005l-0.004,-0.007l0.02,-0.365l0.007,-0.339l-0.012,-0.391l-0.04,-0.424l-0.226,0.095l-0.268,0.133l-0.275,0.155l-0.282,0.182l-0.338,0.245c-0.017,0.012 -0.035,0.023 -0.052,0.033c-0.047,0.028 -0.094,0.049 -0.139,0.063l-0.097,0.022l-0.074,0.004c-0.039,-0.001 -0.077,-0.006 -0.115,-0.015l-0.059,-0.018c-0.051,-0.019 -0.101,-0.045 -0.149,-0.078c-0.024,-0.017 -0.048,-0.035 -0.072,-0.055c-0.036,-0.031 -0.072,-0.065 -0.108,-0.103c-0.079,-0.086 -0.156,-0.189 -0.228,-0.306l-0.044,0.176l-0.013,0.063l0.04,-0.266Z" style="fill:#d7d2ce;"/><path d="M84.424,117.336c31.736,3.273 66.533,-10.805 69.572,-45.772c0.174,-1.998 0.263,-3.967 0.27,-5.908c5.762,10.338 8.668,22.822 7.461,36.708c-0.357,4.108 -1.153,7.927 -2.327,11.456c0.079,-0.078 0.151,-0.137 0.215,-0.175c0.361,3.253 -5.433,24.682 -12.004,24.152c-0.995,-0.08 -1.91,-2.149 -2.474,-0.79c-1.597,3.845 -5.367,6.81 -7.144,7.269c-1.216,0.314 -2.315,-0.45 -3.058,-2.392c-1.186,3.121 -6.755,8.297 -7.399,7.79c-0.52,-0.409 -3.044,-2.675 -4.374,-4.049c-0.585,0.166 -1.173,0.325 -1.765,0.477c-1.673,2.288 -4.943,6.53 -5.583,5.414c-0.818,-1.425 -1.668,-2.812 -2.531,-3.255c-4.618,5.19 -2.651,1.939 -3.685,1.522c-1.7,-0.685 -4.057,2.274 -5.231,3.002c-0.721,0.447 -2.822,-4.887 -4.032,-3.173c-4.671,6.618 -3.376,0.224 -5.1,0.192c-3.207,-0.059 -6.211,-1.128 -6.972,-2.159l-0.471,-0.072c-1.963,1.967 -6.978,4.124 -8.416,2.603c-0.783,-0.829 -1.073,-4.865 -2.869,-4.658c-1.092,0.126 -5.567,2.178 -7.763,-2.966c-0.948,0.182 -1.987,0.259 -3.267,1.245c-1.353,1.042 -2.116,-3.459 -2.152,-3.504c-0.753,0.561 -2.963,2.146 -3.766,2.434c-0.775,0.279 -1.468,-3.006 -1.353,-5.775c-1.408,1.42 -5.058,-0.229 -6.036,-0.732c-1.43,-0.735 -3.706,-3.905 -3.686,-7.344c0.007,-1.215 -1.485,0.002 -2.535,0.133c-2.905,0.364 -5.708,-11.323 -5.42,-16.184c-1.205,-4.411 -1.651,-9.214 -1.187,-14.384c0.086,-0.961 0.184,-1.918 0.296,-2.872c9.167,11.785 24.973,19.112 41.969,21.43c-1.563,0.794 -3.543,1.798 -3.975,2.007c-3.229,1.555 -6.95,3.435 -6.682,-0.546c-0,0 -3.533,5.15 -1.721,6.508c0.969,0.727 2.811,7.102 3.678,6.414c1.994,-1.582 2.891,0.662 4.736,-1.737c0.547,-0.711 1.34,0.561 1.433,3.029c1.027,2.816 4.302,3.788 5.364,1.594c0.383,-2.328 1.453,-3.164 1.733,-2.208c0.942,3.227 1.475,1.525 2.624,4.041c0.499,1.093 0.846,-4.769 1.598,-4.984c1.407,-0.403 3.226,-5.754 3.226,-5.754c-3.107,-0.408 -6.046,2.24 -6.43,-3.518c-0.304,-0.474 -1.804,-2.93 -2.767,-4.509Z" style="fill:#808080;fill-opacity:0.14;"/><path d="M83.996,149.949c1.532,-0.631 3.036,-1.576 3.886,-2.468l0.302,0.041c0.601,1.067 3.716,2.221 7.051,2.282c1.158,0.022 0.954,2.915 2.111,2.804c0.566,-0.054 1.456,-0.825 2.989,-2.996c1.21,-1.714 3.311,3.62 4.032,3.173c1.174,-0.728 3.531,-3.687 5.231,-3.002c1.034,0.417 -0.933,3.668 3.685,-1.522c0.8,0.411 1.589,1.633 2.351,2.945c-0.174,0.047 -0.348,0.093 -0.521,0.138c-0.364,1.658 -0.802,3.614 -0.956,3.447c-0.017,-0.63 -0.08,-1.13 -0.178,-1.515c-0.358,-0.452 -1.265,0.807 -1.634,0.536c-0.602,0.306 -1.217,1.52 -1.351,3.14c0,-0 0.059,-2.343 0.384,-4.138c-0.095,-0.148 -0.187,-0.317 -0.277,-0.51c-0.376,0.081 -0.747,0.159 -1.112,0.233c-0.72,0.735 -1.575,2.024 -1.653,3.09c-0.401,1.331 -1.187,1.423 -1.782,-0.544c-0.011,-0.01 -0.022,-0.023 -0.034,-0.041c-0.571,-0.885 -1.197,-1.082 -1.779,-1.641c-0.953,0.108 -1.752,0.16 -2.351,0.152c-0.084,-0.001 -0.173,-0.004 -0.267,-0.007c-0.486,0.736 -0.898,1.603 -0.951,2.325c-0.36,1.193 -1.022,-0.743 -1.584,-2.574c-0.427,-0.057 -0.883,-0.124 -1.364,-0.199c-0.253,1.378 -0.321,3.338 -0.727,2.953c-0.98,-0.929 -2.078,-2.254 -3.063,-3.625c-1.051,-0.207 -2.161,-0.438 -3.311,-0.694c-0.624,0.497 -1.15,1.156 -1.229,1.874c-0.588,1.325 -1.7,-0.915 -2.588,-2.779c-0.25,-0.063 -0.501,-0.127 -0.752,-0.192c-1.058,0.82 -1.979,1.485 -1.979,1.485c0,-0 -0.055,-0.984 -0.181,-2.06l-0.398,-0.111Zm32.374,1.699c1.199,-0.45 3.721,-3.755 5.089,-5.63c0.54,-0.741 0.429,-0.66 0.952,-1.257l0.715,0.828l0.314,0.32l2.129,1.987c-0.346,0.144 -0.697,0.286 -1.051,0.426l-0.08,0.356l-0.047,0.292l-0.024,0.228l0.015,-0.703c0.001,-0.039 0.003,-0.08 0.004,-0.122c-0.259,0.102 -0.52,0.202 -0.783,0.301l-0.599,1.161l-0.503,0.953l-0.183,0.344l-0.057,-0.711l-0.078,-0.839l-0.039,-0.376c-0.488,0.171 -0.979,0.339 -1.472,0.501l-0.236,1.022l-0.188,0.737l-0.142,0.473l-0.089,0.222l-0.035,0.06l-0.016,0.018l-0.008,0.007l-0.007,0.004l-0.004,0.002l-0.003,0.001l-0.004,0l-0.003,0.001l-0.003,-0.001l-0.003,-0.001l-0.004,-0.001l-0.003,-0.002l-0.003,-0.002c-0.001,-0.001 -0.002,-0.002 -0.003,-0.003c-0.11,-4.239 -2.302,0.268 -2.574,3.553c-0,0 0.067,-2.661 0.451,-4.484c-0.135,0.264 -0.267,0.519 -0.391,0.758c-0.052,0.263 -0.092,0.543 -0.117,0.835c0,-0 0.007,-0.255 0.027,-0.661c-0.437,0.839 -0.758,1.435 -0.758,1.435c0,-0 -0.069,-0.972 -0.186,-2.032Zm-34.565,-1.041c-0.402,0.773 -0.757,1.34 -0.898,1.188c0.005,-0.382 -0.023,-0.753 -0.077,-1.107c0.302,0.006 0.631,-0.023 0.975,-0.081Zm-9.733,-4.763c1.881,0.53 3.776,-0.25 4.435,-0.326c1.129,-0.13 1.662,1.414 2.097,2.786c-0.563,-0.189 -1.12,-0.382 -1.668,-0.578c-0.031,0.094 -0.057,0.196 -0.079,0.306l0.037,-0.321c-0.321,-0.115 -0.64,-0.231 -0.955,-0.349l-0.563,0.596l-0.567,0.585c-0.055,0.056 -0.085,0.086 -0.085,0.086l0.011,-0.512l0.009,-0.81l0,-0.404c-0.489,-0.193 -0.968,-0.389 -1.435,-0.588l-0.372,0.931l-0.275,0.619l-0.176,0.315l-0.047,0.061l-0.028,0.026l-0.009,0.007l-0.009,0.004l-0.001,0.001l-0,0l-0.008,0.003l-0.005,0.001l-0.003,0.001l-0.004,-0l-0.004,-0.001l-0.003,-0l-0.004,-0.001l-0.003,-0.002l-0.003,-0.002l-0.006,-0.005l-0.006,-0.006l-0.005,-0.009l0.023,-0.44l0.003,-0.342l-0.015,-0.388l-0.035,-0.344l-0.052,-0.304l-0.085,-0.324l-0.105,-0.272l-0,-0Zm-5.254,-2.823l0.057,-0.023l0.13,-0.049l0.247,-0.081l0.251,-0.07l0.297,-0.07l0.308,-0.061l0.526,-0.095l0.144,0.058l0.001,0.002c0.586,1.337 1.328,2.177 2.123,2.687l-0.078,0.041l-0.23,0.189l-0.218,0.262l-0.18,0.291l-0.134,0.281l-0.127,0.335l-0.087,0.297l-0.073,0.32l0.09,-0.605l0.147,-0.85l0.141,-0.695c0.023,-0.107 0.047,-0.215 0.072,-0.322l-0.468,-0.252l-0.153,-0.084l-0.375,0.384l0.012,-0.59c-0.612,-0.353 -1.175,-0.712 -1.683,-1.076l-0.269,0.638l-0.155,0.329l-0.146,0.254l-0.053,0.065l-0.021,0.019l-0.009,0.006l-0.009,0.005l-0.005,0.002l-0.007,0.002c-0.001,0 -0.003,0 -0.005,0l-0.007,-0l-0.002,-0.001l-0.004,-0c-0.001,-0.001 -0.003,-0.002 -0.004,-0.003l-0.006,-0.004l-0.005,-0.005l-0.004,-0.005l-0.004,-0.007l0.02,-0.365l0.007,-0.339l-0.012,-0.391l-0.04,-0.424Zm-2.499,0.33l0.017,0.027l-0.044,0.176l-0.013,0.063l0.04,-0.266Z" style="fill:#717171;fill-opacity:0.14;"/><path d="M83.996,149.949c1.532,-0.631 3.036,-1.576 3.886,-2.468l0.302,0.041c0.601,1.067 3.716,2.221 7.051,2.282c1.158,0.022 0.954,2.915 2.111,2.804c0.566,-0.054 1.456,-0.825 2.989,-2.996c1.21,-1.714 3.311,3.62 4.032,3.173c1.174,-0.728 3.531,-3.687 5.231,-3.002c1.034,0.417 -0.933,3.668 3.685,-1.522c0.8,0.411 1.589,1.633 2.351,2.945c-0.174,0.047 -0.348,0.093 -0.521,0.138c-0.364,1.658 -0.802,3.614 -0.956,3.447c-0.017,-0.63 -0.08,-1.13 -0.178,-1.515c-0.358,-0.452 -1.265,0.807 -1.634,0.536c-0.602,0.306 -1.217,1.52 -1.351,3.14c0,-0 0.059,-2.343 0.384,-4.138c-0.095,-0.148 -0.187,-0.317 -0.277,-0.51c-0.376,0.081 -0.747,0.159 -1.112,0.233c-0.72,0.735 -1.575,2.024 -1.653,3.09c-0.401,1.331 -1.187,1.423 -1.782,-0.544c-0.011,-0.01 -0.022,-0.023 -0.034,-0.041c-0.571,-0.885 -1.197,-1.082 -1.779,-1.641c-0.953,0.108 -1.752,0.16 -2.351,0.152c-0.084,-0.001 -0.173,-0.004 -0.267,-0.007c-0.486,0.736 -0.898,1.603 -0.951,2.325c-0.36,1.193 -1.022,-0.743 -1.584,-2.574c-0.427,-0.057 -0.883,-0.124 -1.364,-0.199c-0.253,1.378 -0.321,3.338 -0.727,2.953c-0.98,-0.929 -2.078,-2.254 -3.063,-3.625c-1.051,-0.207 -2.161,-0.438 -3.311,-0.694c-0.624,0.497 -1.15,1.156 -1.229,1.874c-0.588,1.325 -1.7,-0.915 -2.588,-2.779c-0.25,-0.063 -0.501,-0.127 -0.752,-0.192c-1.058,0.82 -1.979,1.485 -1.979,1.485c0,-0 -0.055,-0.984 -0.181,-2.06l-0.398,-0.111Zm32.374,1.699c1.199,-0.45 3.721,-3.755 5.089,-5.63c0.54,-0.741 0.429,-0.66 0.952,-1.257l0.715,0.828l0.314,0.32l2.129,1.987c-0.346,0.144 -0.697,0.286 -1.051,0.426l-0.08,0.356l-0.047,0.292l-0.024,0.228l0.015,-0.703c0.001,-0.039 0.003,-0.08 0.004,-0.122c-0.259,0.102 -0.52,0.202 -0.783,0.301l-0.599,1.161l-0.503,0.953l-0.183,0.344l-0.057,-0.711l-0.078,-0.839l-0.039,-0.376c-0.488,0.171 -0.979,0.339 -1.472,0.501l-0.236,1.022l-0.188,0.737l-0.142,0.473l-0.089,0.222l-0.035,0.06l-0.016,0.018l-0.008,0.007l-0.007,0.004l-0.004,0.002l-0.003,0.001l-0.004,0l-0.003,0.001l-0.003,-0.001l-0.003,-0.001l-0.004,-0.001l-0.003,-0.002l-0.003,-0.002c-0.001,-0.001 -0.002,-0.002 -0.003,-0.003c-0.11,-4.239 -2.302,0.268 -2.574,3.553c-0,0 0.067,-2.661 0.451,-4.484c-0.135,0.264 -0.267,0.519 -0.391,0.758c-0.052,0.263 -0.092,0.543 -0.117,0.835c0,-0 0.007,-0.255 0.027,-0.661c-0.437,0.839 -0.758,1.435 -0.758,1.435c0,-0 -0.069,-0.972 -0.186,-2.032Zm-34.565,-1.041c-0.402,0.773 -0.757,1.34 -0.898,1.188c0.005,-0.382 -0.023,-0.753 -0.077,-1.107c0.302,0.006 0.631,-0.023 0.975,-0.081Zm-9.733,-4.763c1.881,0.53 3.776,-0.25 4.435,-0.326c1.129,-0.13 1.662,1.414 2.097,2.786c-0.563,-0.189 -1.12,-0.382 -1.668,-0.578c-0.031,0.094 -0.057,0.196 -0.079,0.306l0.037,-0.321c-0.321,-0.115 -0.64,-0.231 -0.955,-0.349l-0.563,0.596l-0.567,0.585c-0.055,0.056 -0.085,0.086 -0.085,0.086l0.011,-0.512l0.009,-0.81l0,-0.404c-0.489,-0.193 -0.968,-0.389 -1.435,-0.588l-0.372,0.931l-0.275,0.619l-0.176,0.315l-0.047,0.061l-0.028,0.026l-0.009,0.007l-0.009,0.004l-0.001,0.001l-0,0l-0.008,0.003l-0.005,0.001l-0.003,0.001l-0.004,-0l-0.004,-0.001l-0.003,-0l-0.004,-0.001l-0.003,-0.002l-0.003,-0.002l-0.006,-0.005l-0.006,-0.006l-0.005,-0.009l0.023,-0.44l0.003,-0.342l-0.015,-0.388l-0.035,-0.344l-0.052,-0.304l-0.085,-0.324l-0.105,-0.272l-0,-0Zm-5.254,-2.823l0.057,-0.023l0.13,-0.049l0.247,-0.081l0.251,-0.07l0.297,-0.07l0.308,-0.061l0.526,-0.095l0.144,0.058l0.001,0.002c0.586,1.337 1.328,2.177 2.123,2.687l-0.078,0.041l-0.23,0.189l-0.218,0.262l-0.18,0.291l-0.134,0.281l-0.127,0.335l-0.087,0.297l-0.073,0.32l0.09,-0.605l0.147,-0.85l0.141,-0.695c0.023,-0.107 0.047,-0.215 0.072,-0.322l-0.468,-0.252l-0.153,-0.084l-0.375,0.384l0.012,-0.59c-0.612,-0.353 -1.175,-0.712 -1.683,-1.076l-0.269,0.638l-0.155,0.329l-0.146,0.254l-0.053,0.065l-0.021,0.019l-0.009,0.006l-0.009,0.005l-0.005,0.002l-0.007,0.002c-0.001,0 -0.003,0 -0.005,0l-0.007,-0l-0.002,-0.001l-0.004,-0c-0.001,-0.001 -0.003,-0.002 -0.004,-0.003l-0.006,-0.004l-0.005,-0.005l-0.004,-0.005l-0.004,-0.007l0.02,-0.365l0.007,-0.339l-0.012,-0.391l-0.04,-0.424Zm-2.499,0.33l0.017,0.027l-0.044,0.176l-0.013,0.063l0.04,-0.266Z" style="fill:#717171;fill-opacity:0.14;"/><path d="M83.6,115.985c0,-0 -5.231,2.666 -5.968,3.021c-3.229,1.555 -6.95,3.435 -6.682,-0.546c-0,0 -3.533,5.15 -1.721,6.508c0.969,0.727 2.811,7.102 3.678,6.414c1.994,-1.582 2.891,0.662 4.736,-1.737c0.547,-0.711 1.34,0.561 1.433,3.029c1.027,2.816 4.302,3.788 5.364,1.594c0.383,-2.328 1.453,-3.164 1.733,-2.208c0.942,3.227 1.475,1.525 2.624,4.041c0.499,1.093 0.846,-4.769 1.598,-4.984c1.407,-0.403 3.226,-5.754 3.226,-5.754c-3.107,-0.408 -6.046,2.24 -6.43,-3.518c-0.455,-0.709 -3.591,-5.86 -3.591,-5.86Z" style="fill:#fff;fill-opacity:0.13;"/><ellipse cx="98.561" cy="52.887" rx="19.284" ry="11.835" style="fill:#fff;fill-opacity:0.17;"/><path d="M68.744,142.552c2.196,5.144 6.671,3.092 7.763,2.966c1.796,-0.207 2.086,3.829 2.869,4.658c1.786,1.89 9.092,-1.897 9.21,-3.943c-2.639,-0.168 -12.971,0.127 -12.686,-6.406c0.155,-3.525 -6.207,-0.837 -7.985,-1.361c-2.483,1.389 0.261,-9.752 -1.192,-8.351c-2.008,1.939 -4.725,3.646 -7.558,2.929c-2.464,-0.623 0.131,-6.671 -1.899,-7.401c-2.551,-0.917 -6.105,1.272 -7.912,0.303c-3.131,-1.681 -7.216,-13.585 -8.44,-14.847c-1.563,2.559 1.667,18.332 5.035,17.91c1.05,-0.131 2.542,-1.348 2.535,-0.133c-0.02,3.439 2.256,6.609 3.686,7.344c0.978,0.503 4.628,2.152 6.036,0.732c-0.115,2.769 0.578,6.054 1.353,5.775c0.803,-0.288 3.013,-1.873 3.766,-2.434c0.036,0.045 0.799,4.546 2.152,3.504c1.28,-0.986 2.319,-1.063 3.267,-1.245Z" style="fill:#dad1c9;fill-opacity:0.13;"/><path d="M113.283,148.261c-4.618,5.19 -2.651,1.939 -3.685,1.522c-1.7,-0.685 -4.057,2.274 -5.231,3.002c-0.721,0.447 -2.822,-4.887 -4.032,-3.173c-4.671,6.618 -3.376,0.224 -5.1,0.192c-3.928,-0.072 -7.55,-1.66 -7.121,-2.835c2.721,0.48 18.963,-1.911 21.75,-9.28c1.503,-3.977 9.383,0.994 11.409,0.859c1.832,2.18 4.226,-6.708 5.021,-4.775c1.1,2.674 7.585,2.791 10.758,2.708c2.759,-0.072 -1.563,-5.007 0.813,-5.309c2.985,-0.378 5.514,2.967 7.778,2.341c3.926,-1.084 12.152,-18.768 13.972,-19.868c0.361,3.253 -5.433,24.682 -12.004,24.152c-0.995,-0.08 -1.91,-2.149 -2.474,-0.79c-1.597,3.845 -5.367,6.81 -7.144,7.269c-1.216,0.314 -2.315,-0.45 -3.058,-2.392c-1.186,3.121 -6.755,8.297 -7.399,7.79c-0.669,-0.526 -4.658,-4.127 -5.148,-4.945c-0.058,0.042 -5.71,8.293 -6.574,6.787c-0.818,-1.425 -1.668,-2.812 -2.531,-3.255Z" style="fill:#dad1c9;fill-opacity:0.13;"/><path d="M88.086,147.252c-1.696,2.04 -7.193,4.529 -8.71,2.924c-0.783,-0.829 -1.073,-4.865 -2.869,-4.658c-1.092,0.126 -5.567,2.178 -7.763,-2.966c-0.948,0.182 -1.987,0.259 -3.267,1.245c-1.353,1.042 -2.116,-3.459 -2.152,-3.504c-0.753,0.561 -2.963,2.146 -3.766,2.434c-0.775,0.279 -1.468,-3.006 -1.353,-5.775c-1.408,1.42 -5.058,-0.229 -6.036,-0.732c-1.43,-0.735 -3.706,-3.905 -3.686,-7.344c0.007,-1.215 -1.485,0.002 -2.535,0.133c-3.368,0.422 -6.598,-15.351 -5.035,-17.91c1.224,1.262 5.309,13.166 8.44,14.847c1.807,0.969 5.361,-1.22 7.912,-0.303c2.03,0.73 -0.565,6.778 1.899,7.401c2.833,0.717 5.55,-0.99 7.558,-2.929c1.453,-1.401 -1.291,9.74 1.192,8.351c1.778,0.524 8.14,-2.164 7.985,1.361c-0.285,6.533 10.047,6.238 12.686,6.406c-0.013,0.234 -0.121,0.491 -0.304,0.76c3.162,0.364 18.848,-2.074 21.582,-9.304c1.503,-3.977 9.383,0.994 11.409,0.859c1.832,2.18 4.226,-6.708 5.021,-4.775c1.1,2.674 7.585,2.791 10.758,2.708c2.759,-0.072 -1.563,-5.007 0.813,-5.309c2.985,-0.378 5.514,2.967 7.778,2.341c3.926,-1.084 12.152,-18.768 13.972,-19.868c0.361,3.253 -5.433,24.682 -12.004,24.152c-0.995,-0.08 -1.91,-2.149 -2.474,-0.79c-1.597,3.845 -5.367,6.81 -7.144,7.269c-1.216,0.314 -2.315,-0.45 -3.058,-2.392c-1.186,3.121 -6.755,8.297 -7.399,7.79c-0.669,-0.526 -4.658,-4.127 -5.148,-4.945c-0.058,0.042 -5.71,8.293 -6.574,6.787c-0.818,-1.425 -1.668,-2.812 -2.531,-3.255c-4.618,5.19 -2.651,1.939 -3.685,1.522c-1.7,-0.685 -4.057,2.274 -5.231,3.002c-0.721,0.447 -2.822,-4.887 -4.032,-3.173c-4.671,6.618 -3.376,0.224 -5.1,0.192c-3.619,-0.067 -6.979,-1.42 -7.149,-2.552Z" style="fill:#fff;fill-opacity:0.13;"/><path d="M130.79,79.961c3.447,-1.383 3.232,-10.232 -3.827,-17.578c-0.706,-2.275 4.014,0.747 5.078,0.412c2.589,-0.815 -11.084,-18.766 -11.084,-18.766c-0,0 11.251,2.277 18.364,9.426c8.792,8.836 15.861,20.104 11.053,19.748c-4.25,-2.388 -9.175,-6.451 -7.879,-4.287c4.374,7.302 3.444,11.978 6.426,18.793c1.296,2.964 -8.772,-4.721 -9.903,-2.999c-0.298,0.453 -0.752,0.666 -1.313,0.697c-1.542,5.222 -7.258,17.683 -7.258,17.683c0,-0 -8.982,-7.638 -9.968,-3.996c-0.405,1.497 1.022,12.748 -0.537,13.111c-5.589,-6.132 -14.747,3.285 -12.181,9.144c0,0 -5.024,-7.558 -2.349,-11.92c1.43,-2.333 -2.681,-10.601 -0.707,-10.608c4.54,-0.014 8.102,-3.701 12.789,-2.261c1.39,0.427 7.699,-12.084 6.59,-16.038c0.243,-3.021 3.422,-2.096 6.706,-0.561Z" style="fill:#fff;fill-opacity:0.13;"/><path d="M59.546,74.052c-2.638,0.511 -2.849,-2.249 -3.483,-3.02c-0.713,-0.866 -10.243,-2.234 -8.598,-3.431c3.784,-2.752 4.163,-0.674 0,-0c-4.316,-0.278 5.171,-15.851 6.99,-17.013c4.817,-3.078 12.732,-6.448 12.732,-6.448c0,0 -7.066,15.189 -4.91,15.785c0.886,0.245 3.533,5.548 2.526,6.493c-6.66,2.329 -5.512,4.531 -3.896,5.892c1.143,-1.239 2.352,-2.198 2.352,-2.198c-0.876,0.908 -1.072,1.895 -0.775,2.774c0.751,0.083 1.697,0.017 2.825,-0.236c-0,0 -1.094,0.321 -2.619,0.7c1.146,2.045 1.839,4.377 5.7,1.907c1.215,0.083 -0.788,2.418 -0.73,3.185c0.099,1.286 3.052,-3.599 6.139,-4.83c0.672,-1.275 1.299,-2.168 1.299,-2.168c-0.283,0.607 -0.387,1.205 -0.341,1.78c0.876,-0.361 1.446,-0.612 1.446,-0.612c0,-0 -0.487,0.572 -1.263,1.466c1.387,3.959 5.278,12.171 10.177,6.868c1.814,-0.172 0.423,3.531 1.004,4.58c1.415,2.55 8.839,-8.175 8.839,-8.175c0,0 -2.22,20.62 -4.298,21.044c-2.552,0.521 -7.792,6.14 -8.773,1.796c0.959,-3.404 3.213,-7.079 1.655,-6.342c-5.255,2.489 -4.975,-5.272 -10.175,-3.96c-2.261,0.57 1.797,-7.071 -0.024,-8.472c-1.332,-1.024 -3.826,0.275 -3.359,-1.473c-3.02,3.381 -2.407,7.599 -3.272,7.634c-1.793,0.072 -3.633,2.127 -2.96,-0.896c1.637,-2.182 0.977,-3.257 -0.243,-2.931c-4.118,1.099 -3.163,-1.756 -6.893,-1.442c-1.622,0.137 3.274,-4.552 2.525,-5.691c-0.456,-0.694 -0.178,-1.625 0.403,-2.566Z" style="fill:#fff;fill-opacity:0.13;"/><path d="M83.6,115.985c0,-0 -5.231,2.666 -5.968,3.021c-3.229,1.555 -6.95,3.435 -6.682,-0.546c-0,0 -3.533,5.15 -1.721,6.508c0.969,0.727 2.811,7.102 3.678,6.414c1.994,-1.582 2.891,0.662 4.736,-1.737c0.547,-0.711 1.34,0.561 1.433,3.029c1.027,2.816 4.302,3.788 5.364,1.594c0.383,-2.328 1.453,-3.164 1.733,-2.208c0.942,3.227 1.475,1.525 2.624,4.041c0.499,1.093 0.846,-4.769 1.598,-4.984c1.407,-0.403 3.226,-5.754 3.226,-5.754c-3.107,-0.408 -6.046,2.24 -6.43,-3.518c-0.455,-0.709 -3.591,-5.86 -3.591,-5.86Z" style="fill:#fff;fill-opacity:0.13;"/><path d="M89.525,133.967c31.759,3.298 66.596,-10.776 69.638,-45.765c0.319,-3.671 0.351,-7.245 0.118,-10.71c2.296,7.579 3.223,15.935 2.446,24.872c-0.357,4.105 -1.151,7.922 -2.327,11.456l0.022,-0.021c-2.146,2.054 -9.978,18.664 -13.779,19.714c-2.264,0.626 -4.793,-2.719 -7.778,-2.341c-2.376,0.302 1.946,5.237 -0.813,5.309c-3.173,0.083 -9.658,-0.034 -10.758,-2.708c-0.795,-1.933 -3.189,6.955 -5.021,4.775c-2.026,0.135 -9.906,-4.836 -11.409,-0.859c-2.734,7.23 -18.42,9.668 -21.582,9.304c0.183,-0.269 0.291,-0.526 0.304,-0.76c-2.639,-0.168 -12.971,0.127 -12.686,-6.406c0.155,-3.525 -6.207,-0.837 -7.985,-1.361c-2.483,1.389 0.261,-9.752 -1.192,-8.351c-2.008,1.939 -4.725,3.646 -7.558,2.929c-2.464,-0.623 0.131,-6.671 -1.899,-7.401c-2.551,-0.917 -6.105,1.272 -7.912,0.303c-3.131,-1.681 -7.216,-13.585 -8.44,-14.847c-0.215,0.352 -0.339,0.953 -0.385,1.726c-0.9,-3.299 -1.376,-6.807 -1.367,-10.522c5.158,13.35 17.59,22.791 32.605,27.85c0.443,0.888 0.847,1.461 1.14,1.229c0.371,-0.294 0.703,-0.456 1.012,-0.54c1.684,0.512 3.398,0.971 5.131,1.375c0.011,0.147 0.02,0.3 0.026,0.457c1.027,2.816 4.302,3.788 5.364,1.594c0.058,-0.35 0.131,-0.666 0.214,-0.948c0.709,0.115 1.42,0.221 2.129,0.318c0.617,1.082 1.135,0.539 2.014,2.463c0.258,0.564 0.475,-0.725 0.728,-2.134Zm69.967,-20.232l-0.01,0.01l0.01,-0.01Z" style="fill:#808080;fill-opacity:0.14;"/><path d="M46.772,117.12c-0,0 0.652,-20.572 1.701,-19.879c10.758,7.112 1.345,-6.081 0.484,-7.578c-0.461,-0.8 4.21,-17.948 3.75,-15.694c-1.06,5.184 -3.396,-3.579 -4.01,2.184c-0.277,5.489 -4.168,12.316 -4.274,10.427c-0.356,-6.375 -0.648,-10.358 0.264,-14.851c0.393,-1.942 -4.707,8.317 -5.808,20.157c-1.013,10.9 1.891,17.091 1.891,17.091c1.547,-1.699 4.426,-14.319 4.41,-1.857c0.203,1.193 1.592,10 1.592,10Z" style="fill:#fff;fill-opacity:0.13;"/></g></svg>