<?xml version="1.0" encoding="UTF-8" standalone="no"?><!DOCTYPE svg PUBLIC "-//W3C//DTD SVG 1.1//EN" "http://www.w3.org/Graphics/SVG/1.1/DTD/svg11.dtd"><svg width="100%" height="100%" viewBox="0 0 200 200" version="1.1" xmlns="http://www.w3.org/2000/svg" xmlns:xlink="http://www.w3.org/1999/xlink" xml:space="preserve" xmlns:serif="http://www.serif.com/" style="fill-rule:evenodd;clip-rule:evenodd;stroke-linejoin:round;stroke-miterlimit:2;"><path d="M64.011,45.802c10.348,-5.575 23.308,-8.788 38.877,-8.665c37.129,0.295 65.243,26.803 65.484,64.255c0.036,5.611 -1.046,10.524 -2.963,14.826l-0.043,0.165l-0.181,0.675l-0.22,0.768l-0.035,0.117c-0.069,0.231 -2.841,7.542 -2.841,7.542l-0.419,0.882l-2.226,3.946l-0.184,0.273l-0.224,0.323l-0.226,0.314l-0.161,0.217l-2.228,2.394l-0.316,0.248l-0.506,0.348l-0.31,0.184l-0.325,0.168l-0.327,0.143l-0.339,0.121l-0.447,0.116l-0.388,0.06l-0.335,0.021l-0.26,-0.004c-0.026,-0.001 -0.051,-0.003 -0.077,-0.005c-0.824,-0.057 -1.598,-1.183 -2.196,-1.195l-0.019,0c-0.191,0.004 -0.365,0.126 -0.516,0.441c-1.762,3.673 -5.923,6.505 -7.885,6.942c-0.167,0.038 -0.333,0.059 -0.496,0.064l-0.062,0.002c-1.097,0.007 -2.076,-0.729 -2.778,-2.264l-0.038,-0.087c-0.567,1.292 -2.043,2.952 -3.591,4.379c-1.034,21.786 -27.351,27.15 -32.864,27.007c-5.408,-0.14 -31.847,-2.519 -34.65,-27.846l-0.165,0.178l-0.196,0.286l-0.175,0.336l-0.126,0.316l-0.126,0.427l-0.014,0.059l0.099,-0.578l0.163,-0.812l0.155,-0.664c0.025,-0.101 0.052,-0.203 0.079,-0.304l-0.012,-0.01l-0.504,-0.234l-0.168,-0.081l-0.414,0.367l0.013,-0.563c-0.675,-0.337 -1.297,-0.68 -1.857,-1.028l-0.327,0.666l-0.247,0.424l-0.085,0.111l-0.038,0.035l-0.024,0.016l-0.016,0.007l-0.007,0.002l-0.007,0l-0.01,-0.001l-0.003,-0.001l-0.006,-0.002l-0.006,-0.004l-0.005,-0.004l-0.005,-0.005l-0.004,-0.007l0.026,-0.445l-0.001,-0.462l-0.026,-0.345l-0.021,-0.14l-0.269,0.098l-0.296,0.126l-0.303,0.149l-0.312,0.173l-0.372,0.234c-0.02,0.012 -0.039,0.023 -0.058,0.032c-0.052,0.027 -0.104,0.047 -0.154,0.06l-0.107,0.021l-0.081,0.004c-0.043,-0 -0.086,-0.005 -0.127,-0.014l-0.066,-0.018c-0.056,-0.018 -0.11,-0.043 -0.164,-0.074c-0.026,-0.016 -0.053,-0.034 -0.079,-0.052c-0.04,-0.03 -0.08,-0.063 -0.119,-0.099c-0.089,-0.083 -0.174,-0.183 -0.255,-0.297l-0.045,0.167l0.032,-0.185c-0.021,-0.03 -0.042,-0.061 -0.063,-0.092c-0.246,-0.38 -0.451,-0.873 -0.611,-1.341l-0.044,-0.131c-0.093,-0.282 -0.17,-0.551 -0.23,-0.774c-0.08,-0.297 -0.129,-0.513 -0.146,-0.571c-0.003,-0.008 -0.005,-0.013 -0.006,-0.015c-0.141,0.091 -0.328,0.21 -0.545,0.345c-0.778,0.487 -1.948,1.194 -2.812,1.63c-0.186,0.095 -0.359,0.177 -0.509,0.241c-0.072,0.03 -0.139,0.057 -0.2,0.079l-0.111,0.036l-0.058,0.009l-0.058,-0l-0.058,-0.011l-0.063,-0.024l-0.077,-0.045l-0.114,-0.098l-0.153,-0.197l-0.134,-0.236l-0.129,-0.289l-0.12,-0.333l-0.111,-0.372l-0.085,-0.34l-0.067,-0.313l-0.038,-0.197c-0.046,-0.257 -0.087,-0.524 -0.119,-0.798l-0.03,-0.263l-0.033,-0.375l-0.023,-0.379l-0.014,-0.38l-0.002,-0.38l0.006,-0.313l-0.133,-0.077l-0.179,0.111l-0.252,0.116l-0.242,0.079l-0.258,0.059l-0.265,0.038l-0.342,0.023l-0.383,-0.003l-0.228,-0.013l-0.24,-0.021l-0.242,-0.03l-0.362,-0.057l-0.252,-0.048l-0.374,-0.081l-0.409,-0.103l-0.439,-0.125l-0.565,-0.18l-0.469,-0.164l-0.345,-0.131l-0.312,-0.125l-0.365,-0.155l-0.15,-0.073c-0.062,-0.032 -0.125,-0.067 -0.189,-0.106c-0.048,-0.028 -0.095,-0.058 -0.143,-0.089l-0.18,-0.125c-0.087,-0.063 -0.175,-0.13 -0.264,-0.203c-0.385,-0.315 -0.785,-0.72 -1.164,-1.193c-0.383,-0.477 -0.745,-1.024 -1.052,-1.62c-0.113,-0.219 -0.219,-0.445 -0.315,-0.676c-0.138,-0.33 -0.257,-0.671 -0.352,-1.021c-0.089,-0.324 -0.157,-0.656 -0.201,-0.993l-0.028,-0.246c-0.021,-0.222 -0.032,-0.445 -0.03,-0.669c0.001,-0.145 -0.12,-0.398 -0.12,-0.398l-0.041,-0.035c-0.019,-0.015 -0.324,-0.077 -0.324,-0.077c-0.134,0.005 -0.29,0.038 -0.46,0.087c-0.43,0.122 -0.95,0.345 -1.433,0.47c-0.144,0.037 -0.285,0.065 -0.419,0.08l-0.242,0.005l-0.423,-0.093l-0.416,-0.211l-0.471,-0.377l-0.284,-0.297l-0.365,-0.458l-0.369,-0.548l-0.859,-1.628l-0.37,-0.863l-0.262,-0.678l-0.707,-2.156l-0.307,-1.129l-0.834,-4.581l-0.049,-0.551l-0.029,-0.469l-0.01,-0.256l-0.007,-0.296l0.001,-0.422l0.02,-0.438l0.033,-0.362c0.019,-0.172 0.045,-0.333 0.077,-0.481l0.02,-0.092c-1.021,-3.834 -1.539,-8.09 -1.441,-12.815c0.223,-10.701 2.894,-20.961 8.01,-29.891c-1.919,-2.497 6.852,-14.808 8.672,-15.814c5.316,-2.939 14.053,-6.158 14.053,-6.158l-0.013,0.02Z" style="fill:#bbb2aa;"/><path d="M82.576,146.841c1.692,-0.603 3.352,-1.505 4.289,-2.357l0.334,0.039c0.664,1.019 4.102,2.121 7.783,2.18c1.278,0.02 1.052,2.783 2.33,2.678c0.624,-0.052 1.607,-0.788 3.299,-2.862c1.335,-1.637 3.654,3.457 4.45,3.03c1.296,-0.695 3.897,-3.521 5.774,-2.866c1.141,0.398 -1.03,3.503 4.067,-1.454c0.883,0.392 1.754,1.56 2.595,2.812c-0.192,0.045 -0.384,0.089 -0.576,0.132c-0.401,1.584 -0.884,3.452 -1.055,3.293c-0.018,-0.602 -0.088,-1.08 -0.196,-1.448c-0.395,-0.431 -1.396,0.772 -1.803,0.512c-0.664,0.292 -1.343,1.452 -1.491,2.999c-0,0 0.064,-2.237 0.423,-3.952c-0.104,-0.142 -0.206,-0.302 -0.306,-0.487c-0.415,0.078 -0.824,0.152 -1.226,0.223c-0.796,0.702 -1.739,1.932 -1.825,2.951c-0.443,1.272 -1.31,1.359 -1.968,-0.52c-0.012,-0.009 -0.024,-0.022 -0.037,-0.039c-0.63,-0.845 -1.32,-1.034 -1.963,-1.567c-1.052,0.103 -1.934,0.153 -2.595,0.145c-0.093,-0.001 -0.191,-0.003 -0.294,-0.007c-0.537,0.704 -0.992,1.532 -1.05,2.221c-0.398,1.14 -1.128,-0.71 -1.749,-2.459c-0.471,-0.054 -0.974,-0.118 -1.505,-0.189c-0.279,1.315 -0.354,3.187 -0.802,2.82c-1.083,-0.888 -2.295,-2.152 -3.381,-3.463c-1.161,-0.197 -2.386,-0.418 -3.655,-0.663c-0.689,0.475 -1.269,1.105 -1.357,1.79c-0.648,1.266 -1.876,-0.873 -2.856,-2.654c-0.276,-0.06 -0.553,-0.121 -0.83,-0.183c-1.168,0.783 -2.184,1.418 -2.184,1.418c-0,0 -0.061,-0.939 -0.2,-1.968l-0.44,-0.105Zm35.734,1.623c1.323,-0.43 4.106,-3.587 5.616,-5.378c0.596,-0.707 0.474,-0.63 1.051,-1.2l0.79,0.791l0.346,0.305l2.349,1.898c-0.382,0.137 -0.769,0.273 -1.16,0.407l-0.088,0.34l-0.063,0.361l-0.015,0.135l0.016,-0.671c0.002,-0.038 0.003,-0.076 0.005,-0.116c-0.286,0.097 -0.574,0.193 -0.864,0.287l-0.662,1.109l-0.554,0.91l-0.203,0.329l-0.063,-0.679l-0.086,-0.802l-0.043,-0.359c-0.538,0.164 -1.08,0.324 -1.624,0.479l-0.261,0.976l-0.207,0.704l-0.157,0.451l-0.098,0.213l-0.039,0.057l-0.018,0.017l-0.008,0.007l-0.008,0.004l-0.004,0.001l-0.004,0.001l-0.004,0.001l-0.004,-0l-0.003,-0l-0.004,-0.001l-0.003,-0.002l-0.004,-0.001l-0.003,-0.003c-0.001,-0.001 -0.002,-0.001 -0.003,-0.003c-0.122,-4.048 -2.541,0.257 -2.842,3.395c0,-0 0.074,-2.542 0.499,-4.284c-0.15,0.253 -0.295,0.497 -0.432,0.725c-0.058,0.251 -0.102,0.518 -0.129,0.797c-0,-0 0.007,-0.243 0.029,-0.631c-0.482,0.801 -0.836,1.37 -0.836,1.37c-0,0 -0.076,-0.928 -0.205,-1.94Zm-38.152,-0.995c-0.444,0.739 -0.836,1.28 -0.991,1.135c0.006,-0.365 -0.025,-0.719 -0.085,-1.057c0.334,0.005 0.696,-0.022 1.076,-0.078Zm-10.748,-4.551c2.078,0.509 4.172,-0.237 4.901,-0.309c1.245,-0.124 1.834,1.35 2.315,2.66c-0.622,-0.18 -1.237,-0.364 -1.842,-0.551c-0.034,0.09 -0.063,0.187 -0.087,0.292l0.041,-0.306c-0.355,-0.11 -0.707,-0.222 -1.054,-0.334l-0.622,0.569l-0.625,0.559c-0.061,0.053 -0.094,0.082 -0.094,0.082l0.012,-0.489l0.01,-0.773l-0,-0.386c-0.54,-0.185 -1.068,-0.372 -1.584,-0.562l-0.411,0.889l-0.304,0.591l-0.184,0.289l-0.059,0.068l-0.033,0.027l-0.012,0.007l-0.008,0.004l-0.001,0l-0.001,0.001l-0.009,0.003l-0.008,0.001l-0.009,0l-0.003,-0.001l-0.004,-0.001l-0.004,-0.001l-0.003,-0.002l-0.007,-0.005l-0.006,-0.006l-0.006,-0.008l0.026,-0.421l0.001,-0.407l-0.021,-0.353l-0.053,-0.383l-0.081,-0.334l-0.105,-0.284l-0.066,-0.126Zm-5.796,-2.693l0.065,-0.024l0.144,-0.046l0.272,-0.077l0.278,-0.067l0.327,-0.067l0.34,-0.058l0.581,-0.091l0.159,0.055l0.001,0.002c0.647,1.278 1.467,2.081 2.345,2.568l-0.117,0.054l-0.253,0.189l-0.239,0.258l-0.196,0.285l-0.176,0.337l-0.126,0.315l-0.125,0.428l-0.014,0.059l0.099,-0.579l0.163,-0.812l0.155,-0.664c0.025,-0.102 0.052,-0.204 0.08,-0.307l-0.517,-0.24l-0.169,-0.081l-0.414,0.367l0.014,-0.563c-0.675,-0.338 -1.298,-0.681 -1.858,-1.028l-0.326,0.666l-0.247,0.424l-0.086,0.11l-0.037,0.035l-0.025,0.017l-0.009,0.004l-0.006,0.003l-0.007,0.001l-0.008,0.001l-0.009,-0.001l-0.003,-0.001l-0.006,-0.003l-0.006,-0.003l-0.005,-0.004l-0.005,-0.006l-0.004,-0.006l0.026,-0.446l-0.002,-0.461l-0.025,-0.346l-0.029,-0.197Zm-2.755,0.314l0.018,0.026l-0.048,0.168l-0.015,0.06l0.045,-0.254Z" style="fill:#717171;fill-opacity:0.14;"/><path d="M82.576,146.841c1.692,-0.603 3.352,-1.505 4.289,-2.357l0.334,0.039c0.664,1.019 4.102,2.121 7.783,2.18c1.278,0.02 1.052,2.783 2.33,2.678c0.624,-0.052 1.607,-0.788 3.299,-2.862c1.335,-1.637 3.654,3.457 4.45,3.03c1.296,-0.695 3.897,-3.521 5.774,-2.866c1.141,0.398 -1.03,3.503 4.067,-1.454c0.883,0.392 1.754,1.56 2.595,2.812c-0.192,0.045 -0.384,0.089 -0.576,0.132c-0.401,1.584 -0.884,3.452 -1.055,3.293c-0.018,-0.602 -0.088,-1.08 -0.196,-1.448c-0.395,-0.431 -1.396,0.772 -1.803,0.512c-0.664,0.292 -1.343,1.452 -1.491,2.999c-0,0 0.064,-2.237 0.423,-3.952c-0.104,-0.142 -0.206,-0.302 -0.306,-0.487c-0.415,0.078 -0.824,0.152 -1.226,0.223c-0.796,0.702 -1.739,1.932 -1.825,2.951c-0.443,1.272 -1.31,1.359 -1.968,-0.52c-0.012,-0.009 -0.024,-0.022 -0.037,-0.039c-0.63,-0.845 -1.32,-1.034 -1.963,-1.567c-1.052,0.103 -1.934,0.153 -2.595,0.145c-0.093,-0.001 -0.191,-0.003 -0.294,-0.007c-0.537,0.704 -0.992,1.532 -1.05,2.221c-0.398,1.14 -1.128,-0.71 -1.749,-2.459c-0.471,-0.054 -0.974,-0.118 -1.505,-0.189c-0.279,1.315 -0.354,3.187 -0.802,2.82c-1.083,-0.888 -2.295,-2.152 -3.381,-3.463c-1.161,-0.197 -2.386,-0.418 -3.655,-0.663c-0.689,0.475 -1.269,1.105 -1.357,1.79c-0.648,1.266 -1.876,-0.873 -2.856,-2.654c-0.276,-0.06 -0.553,-0.121 -0.83,-0.183c-1.168,0.783 -2.184,1.418 -2.184,1.418c-0,0 -0.061,-0.939 -0.2,-1.968l-0.44,-0.105Zm35.734,1.623c1.323,-0.43 4.106,-3.587 5.616,-5.378c0.596,-0.707 0.474,-0.63 1.051,-1.2l0.79,0.791l0.346,0.305l2.349,1.898c-0.382,0.137 -0.769,0.273 -1.16,0.407l-0.088,0.34l-0.063,0.361l-0.015,0.135l0.016,-0.671c0.002,-0.038 0.003,-0.076 0.005,-0.116c-0.286,0.097 -0.574,0.193 -0.864,0.287l-0.662,1.109l-0.554,0.91l-0.203,0.329l-0.063,-0.679l-0.086,-0.802l-0.043,-0.359c-0.538,0.164 -1.08,0.324 -1.624,0.479l-0.261,0.976l-0.207,0.704l-0.157,0.451l-0.098,0.213l-0.039,0.057l-0.018,0.017l-0.008,0.007l-0.008,0.004l-0.004,0.001l-0.004,0.001l-0.004,0.001l-0.004,-0l-0.003,-0l-0.004,-0.001l-0.003,-0.002l-0.004,-0.001l-0.003,-0.003c-0.001,-0.001 -0.002,-0.001 -0.003,-0.003c-0.122,-4.048 -2.541,0.257 -2.842,3.395c0,-0 0.074,-2.542 0.499,-4.284c-0.15,0.253 -0.295,0.497 -0.432,0.725c-0.058,0.251 -0.102,0.518 -0.129,0.797c-0,-0 0.007,-0.243 0.029,-0.631c-0.482,0.801 -0.836,1.37 -0.836,1.37c-0,0 -0.076,-0.928 -0.205,-1.94Zm-38.152,-0.995c-0.444,0.739 -0.836,1.28 -0.991,1.135c0.006,-0.365 -0.025,-0.719 -0.085,-1.057c0.334,0.005 0.696,-0.022 1.076,-0.078Zm-10.748,-4.551c2.078,0.509 4.172,-0.237 4.901,-0.309c1.245,-0.124 1.834,1.35 2.315,2.66c-0.622,-0.18 -1.237,-0.364 -1.842,-0.551c-0.034,0.09 -0.063,0.187 -0.087,0.292l0.041,-0.306c-0.355,-0.11 -0.707,-0.222 -1.054,-0.334l-0.622,0.569l-0.625,0.559c-0.061,0.053 -0.094,0.082 -0.094,0.082l0.012,-0.489l0.01,-0.773l-0,-0.386c-0.54,-0.185 -1.068,-0.372 -1.584,-0.562l-0.411,0.889l-0.304,0.591l-0.184,0.289l-0.059,0.068l-0.033,0.027l-0.012,0.007l-0.008,0.004l-0.001,0l-0.001,0.001l-0.009,0.003l-0.008,0.001l-0.009,0l-0.003,-0.001l-0.004,-0.001l-0.004,-0.001l-0.003,-0.002l-0.007,-0.005l-0.006,-0.006l-0.006,-0.008l0.026,-0.421l0.001,-0.407l-0.021,-0.353l-0.053,-0.383l-0.081,-0.334l-0.105,-0.284l-0.066,-0.126Zm-5.796,-2.693l0.065,-0.024l0.144,-0.046l0.272,-0.077l0.278,-0.067l0.327,-0.067l0.34,-0.058l0.581,-0.091l0.159,0.055l0.001,0.002c0.647,1.278 1.467,2.081 2.345,2.568l-0.117,0.054l-0.253,0.189l-0.239,0.258l-0.196,0.285l-0.176,0.337l-0.126,0.315l-0.125,0.428l-0.014,0.059l0.099,-0.579l0.163,-0.812l0.155,-0.664c0.025,-0.102 0.052,-0.204 0.08,-0.307l-0.517,-0.24l-0.169,-0.081l-0.414,0.367l0.014,-0.563c-0.675,-0.338 -1.298,-0.681 -1.858,-1.028l-0.326,0.666l-0.247,0.424l-0.086,0.11l-0.037,0.035l-0.025,0.017l-0.009,0.004l-0.006,0.003l-0.007,0.001l-0.008,0.001l-0.009,-0.001l-0.003,-0.001l-0.006,-0.003l-0.006,-0.003l-0.005,-0.004l-0.005,-0.006l-0.004,-0.006l0.026,-0.446l-0.002,-0.461l-0.025,-0.346l-0.029,-0.197Zm-2.755,0.314l0.018,0.026l-0.048,0.168l-0.015,0.06l0.045,-0.254Z" style="fill:#717171;fill-opacity:0.14;"/><g><path d="M34.6,111.383c-1.33,-4.213 -1.822,-8.8 -1.311,-13.738c0.095,-0.917 0.204,-1.832 0.327,-2.743c29.45,32.757 120.96,29.46 126.223,-22.928c0.192,-1.908 0.29,-3.788 0.297,-5.642c6.361,9.874 9.568,21.797 8.236,35.06c-0.394,3.923 -1.272,7.571 -2.569,10.942c0.088,-0.074 0.167,-0.131 0.237,-0.168c0.399,3.108 -5.996,23.575 -13.249,23.068c-1.098,-0.076 -2.108,-2.052 -2.731,-0.754c-1.762,3.673 -5.923,6.505 -7.885,6.942c-1.342,0.3 -2.555,-0.429 -3.374,-2.285c-1.309,2.982 -7.457,7.925 -8.168,7.441c-0.573,-0.39 -3.36,-2.554 -4.827,-3.867c-0.646,0.159 -1.294,0.31 -1.948,0.455c-1.847,2.186 -5.456,6.238 -6.163,5.172c-0.902,-1.361 -1.84,-2.686 -2.793,-3.109c-5.097,4.957 -2.926,1.852 -4.067,1.454c-1.877,-0.655 -4.478,2.171 -5.774,2.866c-0.796,0.427 -3.115,-4.667 -4.45,-3.03c-5.156,6.321 -3.727,0.214 -5.629,0.184c-3.541,-0.057 -6.856,-1.078 -7.695,-2.063l-0.162,-0.021l-0.359,-0.047c-2.166,1.878 -7.702,3.939 -9.288,2.485c-0.865,-0.792 -1.185,-4.646 -3.167,-4.448c-1.205,0.12 -6.145,2.08 -8.568,-2.833c-1.047,0.174 -2.194,0.248 -3.607,1.189c-1.493,0.995 -2.335,-3.303 -2.375,-3.347c-0.831,0.536 -3.271,2.05 -4.157,2.325c-0.855,0.266 -1.621,-2.871 -1.493,-5.515c-1.554,1.356 -5.582,-0.22 -6.663,-0.7c-1.578,-0.702 -4.09,-3.73 -4.068,-7.014c0.008,-1.16 -1.639,0.002 -2.797,0.127c-3.207,0.347 -6.3,-10.815 -5.983,-15.458Z" style="fill:#808080;fill-opacity:0.14;"/><path d="M34.6,111.383c-0.993,-3.151 -1.518,-6.501 -1.509,-10.05c18.94,42.419 126.726,43.522 132.451,-13.467c0.352,-3.506 0.387,-6.92 0.13,-10.229c2.534,7.238 3.557,15.219 2.7,23.755c-0.394,3.921 -1.271,7.566 -2.569,10.942c0.088,-0.074 0.167,-0.131 0.237,-0.168c0.399,3.108 -5.996,23.575 -13.249,23.068c-1.098,-0.076 -2.108,-2.052 -2.731,-0.754c-1.762,3.673 -5.923,6.505 -7.885,6.942c-1.342,0.3 -2.555,-0.429 -3.374,-2.285c-1.309,2.982 -7.457,7.925 -8.168,7.441c-0.573,-0.39 -3.36,-2.554 -4.827,-3.867c-0.644,0.158 -1.292,0.309 -1.948,0.455c-1.847,2.186 -5.456,6.238 -6.163,5.172c-0.902,-1.361 -1.84,-2.686 -2.793,-3.109c-5.097,4.957 -2.926,1.852 -4.067,1.454c-1.877,-0.655 -4.478,2.171 -5.774,2.866c-0.796,0.427 -3.115,-4.667 -4.45,-3.03c-5.156,6.321 -3.727,0.214 -5.629,0.184c-3.541,-0.057 -6.856,-1.078 -7.695,-2.063c-0.173,-0.022 -0.346,-0.045 -0.521,-0.068c-2.166,1.878 -7.702,3.939 -9.288,2.485c-0.865,-0.792 -1.185,-4.646 -3.167,-4.448c-1.205,0.12 -6.145,2.08 -8.568,-2.833c-1.047,0.174 -2.194,0.248 -3.607,1.189c-1.493,0.995 -2.335,-3.303 -2.375,-3.347c-0.831,0.536 -3.271,2.05 -4.157,2.325c-0.855,0.266 -1.621,-2.871 -1.493,-5.515c-1.554,1.356 -5.582,-0.22 -6.663,-0.7c-1.578,-0.702 -4.09,-3.73 -4.068,-7.014c0.008,-1.16 -1.639,0.002 -2.797,0.127c-3.207,0.347 -6.3,-10.815 -5.983,-15.458Z" style="fill:#808080;fill-opacity:0.14;"/></g><path d="M65.743,139.776c2.423,4.913 7.363,2.953 8.568,2.833c1.982,-0.198 2.302,3.656 3.167,4.448c1.97,1.806 10.035,-1.811 10.165,-3.765c-2.913,-0.161 -14.317,0.121 -14.002,-6.119c0.17,-3.367 -6.852,-0.799 -8.814,-1.3c-2.74,1.327 0.289,-9.314 -1.315,-7.975c-2.217,1.851 -5.216,3.481 -8.343,2.797c-2.719,-0.595 0.145,-6.372 -2.095,-7.069c-2.816,-0.876 -6.739,1.215 -8.733,0.289c-3.457,-1.605 -7.965,-12.974 -9.316,-14.18c-1.725,2.444 1.84,17.509 5.558,17.106c1.158,-0.125 2.805,-1.287 2.797,-0.127c-0.022,3.284 2.49,6.312 4.068,7.014c1.081,0.48 5.109,2.056 6.663,0.7c-0.128,2.644 0.638,5.781 1.493,5.515c0.886,-0.275 3.326,-1.789 4.157,-2.325c0.04,0.044 0.882,4.342 2.375,3.347c1.413,-0.941 2.56,-1.015 3.607,-1.189Z" style="fill:#dad1c9;fill-opacity:0.13;"/><path d="M114.902,145.229c-5.097,4.957 -2.926,1.852 -4.067,1.454c-1.877,-0.655 -4.478,2.171 -5.774,2.866c-0.796,0.427 -3.115,-4.667 -4.45,-3.03c-5.156,6.321 -3.727,0.214 -5.629,0.184c-4.336,-0.07 -8.334,-1.586 -7.861,-2.709c3.004,0.459 20.931,-1.824 24.007,-8.863c1.659,-3.798 10.357,0.95 12.593,0.821c2.022,2.082 4.665,-6.407 5.542,-4.561c1.214,2.554 8.372,2.666 11.874,2.586c3.045,-0.069 -1.725,-4.782 0.897,-5.07c3.295,-0.362 6.086,2.834 8.585,2.236c4.333,-1.036 13.413,-17.926 15.421,-18.977c0.399,3.108 -5.996,23.575 -13.249,23.068c-1.098,-0.076 -2.108,-2.052 -2.731,-0.754c-1.762,3.673 -5.923,6.505 -7.885,6.942c-1.342,0.3 -2.555,-0.429 -3.374,-2.285c-1.309,2.982 -7.457,7.925 -8.168,7.441c-0.737,-0.502 -5.14,-3.942 -5.681,-4.723c-0.064,0.04 -6.303,7.921 -7.257,6.483c-0.902,-1.361 -1.84,-2.686 -2.793,-3.109Z" style="fill:#dad1c9;fill-opacity:0.13;"/><path d="M87.091,144.265c-1.872,1.949 -7.94,4.325 -9.613,2.792c-0.865,-0.792 -1.185,-4.646 -3.167,-4.448c-1.205,0.12 -6.145,2.08 -8.568,-2.833c-1.047,0.174 -2.194,0.248 -3.607,1.189c-1.493,0.995 -2.335,-3.303 -2.375,-3.347c-0.831,0.536 -3.271,2.05 -4.157,2.325c-0.855,0.266 -1.621,-2.871 -1.493,-5.515c-1.554,1.356 -5.582,-0.22 -6.663,-0.7c-1.578,-0.702 -4.09,-3.73 -4.068,-7.014c0.008,-1.16 -1.639,0.002 -2.797,0.127c-3.718,0.403 -7.283,-14.662 -5.558,-17.106c1.351,1.206 5.859,12.575 9.316,14.18c1.994,0.926 5.917,-1.165 8.733,-0.289c2.24,0.697 -0.624,6.474 2.095,7.069c3.127,0.684 6.126,-0.946 8.343,-2.797c1.604,-1.339 -1.425,9.302 1.315,7.975c1.962,0.501 8.984,-2.067 8.814,1.3c-0.315,6.24 11.089,5.958 14.002,6.119c-0.015,0.223 -0.134,0.468 -0.336,0.725c3.49,0.348 20.804,-1.98 23.821,-8.886c1.659,-3.798 10.357,0.95 12.593,0.821c2.022,2.082 4.665,-6.407 5.542,-4.561c1.214,2.554 8.372,2.666 11.874,2.586c3.045,-0.069 -1.725,-4.782 0.897,-5.07c3.295,-0.362 6.086,2.834 8.585,2.236c4.333,-1.036 13.413,-17.926 15.421,-18.977c0.399,3.108 -5.996,23.575 -13.249,23.068c-1.098,-0.076 -2.108,-2.052 -2.731,-0.754c-1.762,3.673 -5.923,6.505 -7.885,6.942c-1.342,0.3 -2.555,-0.429 -3.374,-2.285c-1.309,2.982 -7.457,7.925 -8.168,7.441c-0.737,-0.502 -5.14,-3.942 -5.681,-4.723c-0.064,0.04 -6.303,7.921 -7.257,6.483c-0.902,-1.361 -1.84,-2.686 -2.793,-3.109c-5.097,4.957 -2.926,1.852 -4.067,1.454c-1.877,-0.655 -4.478,2.171 -5.774,2.866c-0.796,0.427 -3.115,-4.667 -4.45,-3.03c-5.156,6.321 -3.727,0.214 -5.629,0.184c-3.995,-0.064 -7.704,-1.357 -7.891,-2.438Z" style="fill:#dad1c9;fill-opacity:0.13;"/><path d="M136.167,84.439c4.028,-0.414 6.022,-8.681 0.333,-17.278c-0.182,-2.29 4.097,1.705 5.317,1.662c2.97,-0.103 -7.115,-20.211 -7.115,-20.211c-0,-0 11.439,4.951 17.236,13.378c7.165,10.418 11.879,22.658 6.836,21.115c-3.937,-3.287 -8.174,-8.301 -7.334,-5.965c2.833,7.88 0.665,11.985 2.135,19.062c0.64,3.078 -8.177,-6.593 -9.818,-5.28c-0.432,0.345 -0.97,0.428 -1.577,0.315c-2.958,4.458 -12.193,14.581 -12.193,14.581c0,0 -7.67,-9.353 -9.637,-6.222c-0.809,1.287 -2.114,12.089 -3.869,12.033c-4.426,-7.1 -16.57,-0.67 -15.303,5.415c-0,0 -3.464,-8.281 0.488,-11.655c2.114,-1.805 -0.198,-10.515 1.912,-10.023c4.85,1.131 9.58,-1.393 14.222,1.126c1.376,0.747 11.257,-9.273 11.067,-13.223c1.019,-2.743 4.18,-1.082 7.3,1.17Z" style="fill:#fff;fill-opacity:0.13;"/><path d="M59.061,67.751c-2.912,0.489 -5.873,0.762 -6.573,0.026c-0.787,-0.828 -12.048,1.555 -10.232,0.412c4.176,-2.628 4.595,-0.643 -0,0c-4.764,-0.265 5.707,-15.139 7.715,-16.249c5.316,-2.939 14.053,-6.158 14.053,-6.158c0,0 -7.056,10.817 -4.677,11.386c0.978,0.234 10.168,1.293 9.057,2.196c-7.351,2.225 -9.624,5.424 -7.84,6.724c1.261,-1.183 2.595,-2.1 2.595,-2.1c-0.967,0.867 -1.183,1.811 -0.856,2.65c0.83,0.079 1.874,0.017 3.119,-0.225c-0,-0 -1.208,0.307 -2.891,0.668c1.265,1.953 5.57,3.085 9.832,0.726c1.341,0.078 -0.87,2.309 -0.805,3.042c0.108,1.228 5.6,-0.47 9.008,-1.646c0.742,-1.217 1.434,-2.07 1.434,-2.07c-0.313,0.579 -0.428,1.151 -0.377,1.699c0.967,-0.344 1.597,-0.584 1.597,-0.584c-0,-0 -0.539,0.547 -1.395,1.4c1.531,3.781 10.956,5.966 16.364,0.9c2.002,-0.164 0.466,3.373 1.108,4.374c1.562,2.436 14.951,-5.971 14.951,-5.971c-0,0 -7.646,17.858 -9.939,18.263c-2.817,0.498 -8.601,5.864 -9.683,1.716c1.058,-3.252 3.546,-6.762 1.827,-6.058c-5.8,2.377 -10.622,0.625 -16.362,1.877c-2.496,0.545 1.984,-6.753 -0.027,-8.091c-1.469,-0.978 -1.494,-2.647 -0.979,-4.317c-3.333,3.23 -7.617,7.2 -8.572,7.233c-1.979,0.069 -7.55,3.128 -6.807,0.24c1.806,-2.084 4.618,-4.206 3.271,-3.895c-4.545,1.05 -7.031,-0.581 -11.148,-0.281c-1.79,0.131 3.613,-4.348 2.787,-5.436c-0.503,-0.662 -0.197,-1.552 0.445,-2.451Z" style="fill:#fff;fill-opacity:0.13;"/><path d="M82.14,114.401c-0,0 -5.775,2.547 -6.588,2.886c-3.563,1.485 -7.671,3.281 -7.375,-0.521c-0,-0 -3.9,4.918 -1.9,6.216c1.07,0.693 3.103,6.782 4.06,6.125c2.201,-1.511 3.191,0.633 5.228,-1.659c0.604,-0.679 1.479,0.536 1.581,2.894c1.134,2.689 4.749,3.618 5.921,1.521c0.422,-2.223 1.604,-3.021 1.912,-2.108c1.04,3.082 1.628,1.457 2.896,3.859c0.552,1.045 0.935,-4.555 1.765,-4.76c1.552,-0.385 3.56,-5.496 3.56,-5.496c-3.43,-0.389 -6.673,2.14 -7.097,-3.36c-0.502,-0.677 -3.963,-5.597 -3.963,-5.597Z" style="fill:#fff;fill-opacity:0.13;"/><path d="M41.49,115.486c0,-0 0.72,-19.649 1.878,-18.987c11.875,6.793 1.485,-5.808 0.534,-7.238c-0.508,-0.764 4.648,-17.142 4.139,-14.989c-1.17,4.951 -3.748,-3.419 -4.426,2.086c-0.305,5.243 -4.6,11.763 -4.717,9.958c-0.393,-6.088 -0.715,-9.892 0.291,-14.184c0.435,-1.854 -5.195,7.943 -6.41,19.253c-1.119,10.41 2.087,16.323 2.087,16.323c1.707,-1.623 4.885,-13.676 4.867,-1.774c0.224,1.14 1.757,9.552 1.757,9.552Z" style="fill:#fff;fill-opacity:0.13;"/></svg>