<?xml version="1.0" encoding="UTF-8" standalone="no"?><!DOCTYPE svg PUBLIC "-//W3C//DTD SVG 1.1//EN" "http://www.w3.org/Graphics/SVG/1.1/DTD/svg11.dtd"><svg width="100%" height="100%" viewBox="0 0 200 200" version="1.1" xmlns="http://www.w3.org/2000/svg" xmlns:xlink="http://www.w3.org/1999/xlink" xml:space="preserve" xmlns:serif="http://www.serif.com/" style="fill-rule:evenodd;clip-rule:evenodd;stroke-linejoin:round;stroke-miterlimit:2;"><path d="M59.607,134.762c-2.691,1.809 -5.255,1.729 -7.708,-0.012l-20.527,-11.863c-0.579,-0.465 -0.871,-0.915 -0.804,-1.347c0,0 -0.366,5.16 1.11,6.013c5.129,2.961 16.293,9.406 21.421,12.367c1.477,0.853 3.871,0.853 5.348,0c15.41,-8.897 92.735,-53.541 108.145,-62.438c1.477,-0.852 1.085,-6.086 1.085,-6.086c0.117,0.525 -0.215,1.042 -0.956,1.551l-107.114,61.815Z" style="fill:#e3e3e3;"/><path d="M59.607,134.762c-2.691,1.809 -5.255,1.729 -7.708,-0.012l-20.527,-11.863c-0.579,-0.465 -0.871,-0.915 -0.804,-1.347c0,0 -0.366,5.16 1.11,6.013c5.129,2.961 16.293,9.406 21.421,12.367c1.477,0.853 3.871,0.853 5.348,0c15.41,-8.897 92.735,-53.541 108.145,-62.438c1.477,-0.852 1.085,-6.086 1.085,-6.086c0.117,0.525 -0.215,1.042 -0.956,1.551l-107.114,61.815Z" style="fill:#828282;fill-opacity:0.47;"/><path d="M53.104,135.367c1.477,0.852 3.871,0.852 5.348,-0.001c15.41,-8.897 92.735,-53.54 108.145,-62.437c1.477,-0.853 1.477,-2.235 -0,-3.088c-5.128,-2.961 -16.292,-9.406 -21.421,-12.367c-1.476,-0.852 -3.871,-0.852 -5.347,0c-15.41,8.897 -92.735,53.541 -108.146,62.438c-1.476,0.852 -1.476,2.235 0,3.087c5.129,2.961 16.293,9.407 21.421,12.368Z" style="fill:#e3e3e3;"/><g><path d="M165.174,73.75l1.392,-0.804c0,0 -3.528,-2.037 -4.898,-2.828c-0.295,-0.17 -0.774,-0.17 -1.07,0c-0.106,0.062 -0.217,0.126 -0.323,0.187c-0.295,0.17 -0.295,0.447 0,0.617c1.37,0.791 4.899,2.828 4.899,2.828Z" style="fill:#868686;fill-opacity:0.46;"/><path d="M159.824,76.839l1.392,-0.804c0,0 -1.484,-0.857 -2.307,-1.332c-0.296,-0.171 -0.774,-0.171 -1.07,-0c-0.106,0.061 -0.217,0.125 -0.323,0.186c-0.295,0.171 -0.295,0.447 0,0.618c0.824,0.475 2.308,1.332 2.308,1.332Z" style="fill:#868686;fill-opacity:0.46;"/><path d="M154.474,79.928l1.393,-0.804c-0,-0 -1.485,-0.857 -2.308,-1.332c-0.295,-0.171 -0.774,-0.171 -1.07,-0c-0.106,0.061 -0.217,0.125 -0.323,0.186c-0.295,0.171 -0.295,0.447 0,0.617c0.824,0.476 2.308,1.333 2.308,1.333Z" style="fill:#868686;fill-opacity:0.46;"/><path d="M149.124,83.017l1.393,-0.804c-0,-0 -1.485,-0.857 -2.308,-1.333c-0.295,-0.17 -0.774,-0.17 -1.069,0c-0.106,0.061 -0.218,0.126 -0.323,0.187c-0.296,0.17 -0.296,0.447 -0,0.617c0.823,0.476 2.307,1.333 2.307,1.333Z" style="fill:#868686;fill-opacity:0.46;"/><path d="M143.774,86.105l1.393,-0.804c-0,0 -1.484,-0.857 -2.308,-1.332c-0.295,-0.17 -0.774,-0.17 -1.069,0c-0.106,0.061 -0.217,0.125 -0.323,0.187c-0.296,0.17 -0.296,0.446 -0,0.617c0.823,0.475 2.307,1.332 2.307,1.332Z" style="fill:#868686;fill-opacity:0.46;"/><path d="M138.425,89.194l1.392,-0.804c0,0 -3.528,-2.037 -4.898,-2.828c-0.296,-0.17 -0.774,-0.17 -1.07,0c-0.106,0.061 -0.217,0.125 -0.323,0.187c-0.295,0.17 -0.295,0.446 0,0.617c1.37,0.791 4.899,2.828 4.899,2.828Z" style="fill:#868686;fill-opacity:0.46;"/><path d="M133.075,92.283l1.392,-0.804c0,-0 -1.484,-0.857 -2.308,-1.333c-0.295,-0.17 -0.774,-0.17 -1.069,0c-0.106,0.062 -0.217,0.126 -0.323,0.187c-0.295,0.17 -0.295,0.447 0,0.617c0.823,0.476 2.308,1.333 2.308,1.333Z" style="fill:#868686;fill-opacity:0.46;"/><path d="M127.725,95.372l1.392,-0.804c0,-0 -1.484,-0.857 -2.307,-1.333c-0.296,-0.17 -0.774,-0.17 -1.07,0c-0.106,0.061 -0.217,0.126 -0.323,0.187c-0.295,0.17 -0.295,0.447 0,0.617c0.824,0.476 2.308,1.333 2.308,1.333Z" style="fill:#868686;fill-opacity:0.46;"/><path d="M122.375,98.46l1.393,-0.804c-0,0 -1.485,-0.857 -2.308,-1.332c-0.296,-0.171 -0.774,-0.171 -1.07,-0c-0.106,0.061 -0.217,0.125 -0.323,0.186c-0.295,0.171 -0.295,0.447 0,0.618c0.824,0.475 2.308,1.332 2.308,1.332Z" style="fill:#868686;fill-opacity:0.46;"/><path d="M117.025,101.549l1.393,-0.804c-0,0 -1.485,-0.857 -2.308,-1.332c-0.295,-0.171 -0.774,-0.171 -1.069,-0c-0.106,0.061 -0.218,0.125 -0.324,0.186c-0.295,0.171 -0.295,0.447 0,0.618c0.824,0.475 2.308,1.332 2.308,1.332Z" style="fill:#868686;fill-opacity:0.46;"/><path d="M111.675,104.638l1.393,-0.804c-0,-0 -3.529,-2.037 -4.899,-2.828c-0.295,-0.171 -0.774,-0.171 -1.069,-0c-0.106,0.061 -0.217,0.125 -0.323,0.186c-0.295,0.171 -0.295,0.447 -0,0.618c1.37,0.791 4.898,2.828 4.898,2.828Z" style="fill:#868686;fill-opacity:0.46;"/><path d="M106.326,107.726l1.392,-0.804c0,0 -1.484,-0.856 -2.308,-1.332c-0.295,-0.17 -0.774,-0.17 -1.069,0c-0.106,0.061 -0.217,0.125 -0.323,0.187c-0.295,0.17 -0.295,0.447 -0,0.617c0.823,0.475 2.308,1.332 2.308,1.332Z" style="fill:#868686;fill-opacity:0.46;"/><path d="M100.976,110.815l1.392,-0.804c0,0 -1.484,-0.857 -2.308,-1.332c-0.295,-0.171 -0.774,-0.171 -1.069,-0c-0.106,0.061 -0.217,0.125 -0.323,0.186c-0.295,0.171 -0.295,0.447 -0,0.618c0.823,0.475 2.308,1.332 2.308,1.332Z" style="fill:#868686;fill-opacity:0.46;"/><path d="M95.626,113.904l1.392,-0.804c0,-0 -1.484,-0.857 -2.307,-1.332c-0.296,-0.171 -0.774,-0.171 -1.07,-0c-0.106,0.061 -0.217,0.125 -0.323,0.186c-0.295,0.171 -0.295,0.447 0,0.618c0.824,0.475 2.308,1.332 2.308,1.332Z" style="fill:#868686;fill-opacity:0.46;"/><path d="M90.276,116.993l1.392,-0.804c0,-0 -1.484,-0.857 -2.307,-1.333c-0.296,-0.17 -0.774,-0.17 -1.07,0c-0.106,0.061 -0.217,0.126 -0.323,0.187c-0.295,0.17 -0.295,0.447 0,0.617c0.824,0.476 2.308,1.333 2.308,1.333Z" style="fill:#868686;fill-opacity:0.46;"/><path d="M84.988,120.046l1.392,-0.804c0,-0 -3.528,-2.037 -4.898,-2.828c-0.295,-0.171 -0.774,-0.171 -1.07,-0c-0.105,0.061 -0.217,0.125 -0.323,0.186c-0.295,0.171 -0.295,0.447 0,0.618c1.37,0.791 4.899,2.828 4.899,2.828Z" style="fill:#868686;fill-opacity:0.46;"/><path d="M58.185,135.52l1.393,-0.804c-0,0 -3.529,-2.037 -4.899,-2.828c-0.295,-0.17 -0.774,-0.17 -1.069,0c-0.106,0.061 -0.217,0.126 -0.323,0.187c-0.296,0.17 -0.296,0.447 -0,0.617c1.37,0.791 4.898,2.828 4.898,2.828Z" style="fill:#868686;fill-opacity:0.46;"/><path d="M79.638,123.135l1.392,-0.804c0,-0 -1.484,-0.857 -2.307,-1.333c-0.296,-0.17 -0.774,-0.17 -1.07,0c-0.106,0.061 -0.217,0.126 -0.323,0.187c-0.295,0.17 -0.295,0.447 0,0.617c0.824,0.476 2.308,1.333 2.308,1.333Z" style="fill:#868686;fill-opacity:0.46;"/><path d="M74.288,126.223l1.393,-0.804c-0,0 -1.485,-0.857 -2.308,-1.332c-0.295,-0.171 -0.774,-0.171 -1.07,-0c-0.105,0.061 -0.217,0.125 -0.323,0.186c-0.295,0.171 -0.295,0.447 0,0.618c0.824,0.475 2.308,1.332 2.308,1.332Z" style="fill:#868686;fill-opacity:0.46;"/><path d="M68.938,129.312l1.393,-0.804c-0,0 -1.485,-0.857 -2.308,-1.332c-0.295,-0.171 -0.774,-0.171 -1.069,-0c-0.106,0.061 -0.218,0.125 -0.323,0.186c-0.296,0.171 -0.296,0.447 -0,0.618c0.823,0.475 2.307,1.332 2.307,1.332Z" style="fill:#868686;fill-opacity:0.46;"/><path d="M63.588,132.401l1.393,-0.804c-0,-0 -1.484,-0.857 -2.308,-1.333c-0.295,-0.17 -0.774,-0.17 -1.069,0c-0.106,0.062 -0.217,0.126 -0.323,0.187c-0.296,0.17 -0.296,0.447 -0,0.617c0.823,0.476 2.307,1.333 2.307,1.333Z" style="fill:#868686;fill-opacity:0.46;"/><path d="M59.576,134.73l-1.353,0.78l0,4.536l1.353,-0.78l-0,-4.536Z" style="fill:#868686;fill-opacity:0.46;"/><path d="M64.905,131.653l-1.353,0.781l0,4.536l1.353,-0.781l-0,-4.536Z" style="fill:#868686;fill-opacity:0.46;"/><path d="M70.233,128.576l-1.352,0.781l0,4.536l1.352,-0.781l0,-4.536Z" style="fill:#868686;fill-opacity:0.46;"/><path d="M75.562,125.5l-1.352,0.781l-0,4.536l1.352,-0.781l0,-4.536Z" style="fill:#868686;fill-opacity:0.46;"/><path d="M80.891,122.423l-1.352,0.781l-0,4.536l1.352,-0.781l0,-4.536Z" style="fill:#868686;fill-opacity:0.46;"/><path d="M86.22,119.347l-1.352,0.78l-0,4.536l1.352,-0.78l0,-4.536Z" style="fill:#868686;fill-opacity:0.46;"/><path d="M91.618,116.23l-1.352,0.781l-0,4.536l1.352,-0.781l0,-4.536Z" style="fill:#868686;fill-opacity:0.46;"/><path d="M97.029,113.106l-1.352,0.781l-0,4.536l1.352,-0.781l0,-4.536Z" style="fill:#868686;fill-opacity:0.46;"/><path d="M102.44,109.982l-1.352,0.781l-0,4.536l1.352,-0.781l-0,-4.536Z" style="fill:#868686;fill-opacity:0.46;"/><path d="M107.851,106.858l-1.352,0.781l-0,4.536l1.352,-0.781l-0,-4.536Z" style="fill:#868686;fill-opacity:0.46;"/><path d="M113.001,103.884l-1.352,0.781l-0,4.536l1.352,-0.781l0,-4.536Z" style="fill:#868686;fill-opacity:0.46;"/><path d="M118.358,100.791l-1.352,0.781l0,4.536l1.352,-0.781l0,-4.536Z" style="fill:#868686;fill-opacity:0.46;"/><path d="M123.716,97.698l-1.353,0.781l0,4.536l1.353,-0.781l-0,-4.536Z" style="fill:#868686;fill-opacity:0.46;"/><path d="M129.073,94.605l-1.352,0.781l-0,4.536l1.352,-0.781l-0,-4.536Z" style="fill:#868686;fill-opacity:0.46;"/><path d="M134.43,91.512l-1.352,0.781l-0,4.536l1.352,-0.781l0,-4.536Z" style="fill:#868686;fill-opacity:0.46;"/><path d="M139.788,88.419l-1.353,0.781l0,4.536l1.353,-0.781l-0,-4.536Z" style="fill:#868686;fill-opacity:0.46;"/><path d="M145.145,85.326l-1.353,0.781l0,4.536l1.353,-0.781l-0,-4.536Z" style="fill:#868686;fill-opacity:0.46;"/><path d="M150.502,82.233l-1.352,0.781l-0,4.536l1.352,-0.781l0,-4.536Z" style="fill:#868686;fill-opacity:0.46;"/><path d="M155.859,79.14l-1.352,0.781l-0,4.536l1.352,-0.781l0,-4.536Z" style="fill:#868686;fill-opacity:0.46;"/><path d="M161.217,76.047l-1.353,0.781l0,4.536l1.353,-0.781l-0,-4.536Z" style="fill:#868686;fill-opacity:0.46;"/><path d="M166.574,72.954l-1.353,0.781l0,4.536l1.353,-0.781l-0,-4.536Z" style="fill:#868686;fill-opacity:0.46;"/></g></svg>