<?xml version="1.0" encoding="UTF-8" standalone="no"?><!DOCTYPE svg PUBLIC "-//W3C//DTD SVG 1.1//EN" "http://www.w3.org/Graphics/SVG/1.1/DTD/svg11.dtd"><svg width="100%" height="100%" viewBox="0 0 200 200" version="1.1" xmlns="http://www.w3.org/2000/svg" xmlns:xlink="http://www.w3.org/1999/xlink" xml:space="preserve" xmlns:serif="http://www.serif.com/" style="fill-rule:evenodd;clip-rule:evenodd;stroke-linejoin:round;stroke-miterlimit:2;"><g><path d="M146.582,63.191c-1.491,-0.861 -3.909,-0.861 -5.4,-0c-15.56,8.983 -93.637,54.061 -109.197,63.044c-1.491,0.861 -1.491,2.257 0,3.118c5.178,2.99 16.451,9.498 21.629,12.487c1.491,0.861 3.909,0.861 5.4,0c15.559,-8.983 93.636,-54.061 109.196,-63.044c1.491,-0.861 1.491,-2.257 0,-3.118c-5.178,-2.99 -16.45,-9.498 -21.628,-12.487Z" style="fill:#e3e3e3;"/><path d="M60.185,141.145c-2.717,1.827 -5.306,1.745 -7.783,-0.013l-20.726,-11.977c-0.585,-0.47 -0.88,-0.925 -0.812,-1.36c-0,-0 -0.37,5.21 1.121,6.071c5.178,2.989 16.451,9.497 21.629,12.487c1.491,0.861 3.909,0.861 5.4,0c15.559,-8.983 93.636,-54.061 109.196,-63.045c1.491,-0.861 1.096,-6.146 1.096,-6.146c0.118,0.531 -0.217,1.053 -0.966,1.567l-108.155,62.416Z" style="fill:#e3e3e3;"/><path d="M60.185,141.145c-2.717,1.827 -5.306,1.745 -7.783,-0.013l-20.726,-11.977c-0.585,-0.47 -0.88,-0.925 -0.812,-1.36c-0,-0 -0.37,5.21 1.121,6.071c5.178,2.989 16.451,9.497 21.629,12.487c1.491,0.861 3.909,0.861 5.4,0c15.559,-8.983 93.636,-54.061 109.196,-63.045c1.491,-0.861 1.096,-6.146 1.096,-6.146c0.118,0.531 -0.217,1.053 -0.966,1.567l-108.155,62.416Z" style="fill:#888;fill-opacity:0.49;"/><g><path d="M33.422,125.406l-1.406,0.812c0,-0 3.563,2.057 4.946,2.855c0.298,0.172 0.782,0.172 1.08,0c0.107,-0.062 0.219,-0.126 0.326,-0.188c0.298,-0.172 0.298,-0.451 0,-0.624c-1.383,-0.798 -4.946,-2.855 -4.946,-2.855Z" style="fill:#808080;fill-opacity:0.5;"/><path d="M38.824,122.287l-1.406,0.812c-0,-0 1.499,0.865 2.33,1.345c0.298,0.172 0.782,0.172 1.08,0c0.107,-0.062 0.219,-0.126 0.326,-0.188c0.298,-0.172 0.298,-0.451 0,-0.624c-0.831,-0.48 -2.33,-1.345 -2.33,-1.345Z" style="fill:#808080;fill-opacity:0.5;"/><path d="M44.226,119.168l-1.406,0.812c-0,0 1.499,0.865 2.33,1.345c0.298,0.173 0.782,0.173 1.08,0c0.107,-0.061 0.219,-0.126 0.326,-0.188c0.298,-0.172 0.298,-0.451 0,-0.623c-0.831,-0.48 -2.33,-1.346 -2.33,-1.346Z" style="fill:#808080;fill-opacity:0.5;"/><path d="M49.628,116.05l-1.406,0.811c-0,0 1.498,0.866 2.33,1.346c0.298,0.172 0.782,0.172 1.08,-0c0.107,-0.062 0.219,-0.127 0.326,-0.189c0.298,-0.172 0.298,-0.451 -0,-0.623c-0.832,-0.48 -2.33,-1.345 -2.33,-1.345Z" style="fill:#808080;fill-opacity:0.5;"/><path d="M55.03,112.931l-1.406,0.812c-0,-0 1.498,0.865 2.33,1.345c0.298,0.172 0.781,0.172 1.08,-0c0.107,-0.062 0.219,-0.127 0.326,-0.188c0.298,-0.173 0.298,-0.452 -0,-0.624c-0.832,-0.48 -2.33,-1.345 -2.33,-1.345Z" style="fill:#808080;fill-opacity:0.5;"/><path d="M60.431,109.812l-1.406,0.812c0,-0 3.563,2.057 4.946,2.855c0.299,0.173 0.782,0.173 1.08,0c0.107,-0.061 0.219,-0.126 0.326,-0.188c0.299,-0.172 0.299,-0.451 0,-0.623c-1.383,-0.799 -4.946,-2.856 -4.946,-2.856Z" style="fill:#808080;fill-opacity:0.5;"/><path d="M65.833,106.693l-1.406,0.812c0,0 1.499,0.865 2.33,1.345c0.299,0.172 0.782,0.172 1.08,0c0.107,-0.061 0.219,-0.126 0.326,-0.188c0.299,-0.172 0.299,-0.451 0,-0.623c-0.831,-0.48 -2.33,-1.346 -2.33,-1.346Z" style="fill:#808080;fill-opacity:0.5;"/><path d="M71.235,103.575l-1.406,0.811c0,0 1.499,0.866 2.33,1.346c0.298,0.172 0.782,0.172 1.08,-0c0.107,-0.062 0.219,-0.127 0.326,-0.189c0.298,-0.172 0.298,-0.451 0,-0.623c-0.831,-0.48 -2.33,-1.345 -2.33,-1.345Z" style="fill:#808080;fill-opacity:0.5;"/><path d="M76.637,100.456l-1.406,0.812c-0,-0 1.499,0.865 2.33,1.345c0.298,0.172 0.782,0.172 1.08,-0c0.107,-0.062 0.219,-0.127 0.326,-0.188c0.298,-0.173 0.298,-0.452 0,-0.624c-0.831,-0.48 -2.33,-1.345 -2.33,-1.345Z" style="fill:#808080;fill-opacity:0.5;"/><path d="M82.039,97.337l-1.406,0.812c-0,-0 1.499,0.865 2.33,1.345c0.298,0.172 0.782,0.172 1.08,0c0.107,-0.062 0.219,-0.127 0.326,-0.188c0.298,-0.172 0.298,-0.452 0,-0.624c-0.831,-0.48 -2.33,-1.345 -2.33,-1.345Z" style="fill:#808080;fill-opacity:0.5;"/><path d="M87.441,94.218l-1.406,0.812c-0,-0 3.562,2.057 4.946,2.856c0.298,0.172 0.781,0.172 1.08,-0c0.106,-0.062 0.219,-0.127 0.326,-0.189c0.298,-0.172 0.298,-0.451 -0,-0.623c-1.384,-0.799 -4.946,-2.856 -4.946,-2.856Z" style="fill:#808080;fill-opacity:0.5;"/><path d="M92.843,91.099l-1.406,0.812c-0,0 1.498,0.866 2.33,1.346c0.298,0.172 0.781,0.172 1.08,-0c0.106,-0.062 0.219,-0.127 0.326,-0.189c0.298,-0.172 0.298,-0.451 -0,-0.623c-0.832,-0.48 -2.33,-1.346 -2.33,-1.346Z" style="fill:#808080;fill-opacity:0.5;"/><path d="M98.244,87.981l-1.406,0.811c0,0 1.499,0.866 2.331,1.346c0.298,0.172 0.781,0.172 1.079,-0c0.107,-0.062 0.22,-0.127 0.327,-0.189c0.298,-0.172 0.298,-0.451 -0,-0.623c-0.832,-0.48 -2.331,-1.345 -2.331,-1.345Z" style="fill:#808080;fill-opacity:0.5;"/><path d="M103.646,84.862l-1.406,0.812c0,-0 1.499,0.865 2.33,1.345c0.299,0.172 0.782,0.172 1.08,0c0.107,-0.062 0.219,-0.127 0.326,-0.188c0.299,-0.172 0.299,-0.452 0,-0.624c-0.831,-0.48 -2.33,-1.345 -2.33,-1.345Z" style="fill:#808080;fill-opacity:0.5;"/><path d="M109.048,81.743l-1.406,0.812c0,-0 1.499,0.865 2.33,1.345c0.298,0.172 0.782,0.172 1.08,0c0.107,-0.061 0.219,-0.126 0.326,-0.188c0.298,-0.172 0.298,-0.451 0,-0.624c-0.831,-0.48 -2.33,-1.345 -2.33,-1.345Z" style="fill:#808080;fill-opacity:0.5;"/><path d="M114.388,78.66l-1.406,0.812c-0,0 3.562,2.057 4.946,2.856c0.298,0.172 0.781,0.172 1.08,-0c0.107,-0.062 0.219,-0.127 0.326,-0.189c0.298,-0.172 0.298,-0.451 -0,-0.623c-1.383,-0.799 -4.946,-2.856 -4.946,-2.856Z" style="fill:#808080;fill-opacity:0.5;"/><path d="M141.451,63.035l-1.406,0.812c0,0 3.563,2.057 4.946,2.856c0.298,0.172 0.782,0.172 1.08,-0c0.107,-0.062 0.219,-0.127 0.326,-0.189c0.298,-0.172 0.298,-0.451 0,-0.623c-1.383,-0.799 -4.946,-2.856 -4.946,-2.856Z" style="fill:#808080;fill-opacity:0.5;"/><path d="M119.79,75.542l-1.406,0.811c-0,0 1.498,0.866 2.33,1.346c0.298,0.172 0.781,0.172 1.08,-0c0.107,-0.062 0.219,-0.127 0.326,-0.189c0.298,-0.172 0.298,-0.451 -0,-0.623c-0.832,-0.48 -2.33,-1.345 -2.33,-1.345Z" style="fill:#808080;fill-opacity:0.5;"/><path d="M125.191,72.423l-1.406,0.812c0,-0 1.499,0.865 2.331,1.345c0.298,0.172 0.781,0.172 1.079,-0c0.107,-0.062 0.22,-0.127 0.327,-0.188c0.298,-0.173 0.298,-0.452 -0,-0.624c-0.832,-0.48 -2.331,-1.345 -2.331,-1.345Z" style="fill:#808080;fill-opacity:0.5;"/><path d="M130.593,69.304l-1.406,0.812c0,-0 1.499,0.865 2.33,1.345c0.299,0.172 0.782,0.172 1.08,0c0.107,-0.062 0.22,-0.126 0.326,-0.188c0.299,-0.172 0.299,-0.451 0,-0.624c-0.831,-0.48 -2.33,-1.345 -2.33,-1.345Z" style="fill:#808080;fill-opacity:0.5;"/><path d="M135.995,66.185l-1.406,0.812c0,0 1.499,0.865 2.33,1.345c0.299,0.173 0.782,0.173 1.08,0c0.107,-0.061 0.219,-0.126 0.326,-0.188c0.298,-0.172 0.298,-0.451 0,-0.623c-0.831,-0.48 -2.33,-1.346 -2.33,-1.346Z" style="fill:#808080;fill-opacity:0.5;"/></g></g></svg>