<?xml version="1.0" encoding="UTF-8" standalone="no"?><!DOCTYPE svg PUBLIC "-//W3C//DTD SVG 1.1//EN" "http://www.w3.org/Graphics/SVG/1.1/DTD/svg11.dtd"><svg width="100%" height="100%" viewBox="0 0 200 200" version="1.1" xmlns="http://www.w3.org/2000/svg" xmlns:xlink="http://www.w3.org/1999/xlink" xml:space="preserve" xmlns:serif="http://www.serif.com/" style="fill-rule:evenodd;clip-rule:evenodd;stroke-linejoin:round;stroke-miterlimit:2;"><path d="M155.012,54.743l-0.006,-0.011l20.938,-1.782l3.865,-2.089c1.124,0.104 1.911,1.374 1.638,2.504l-3.715,2.327l-12.513,16.84l-0.002,-0.005c-0.34,0.458 -0.745,0.831 -1.194,1.125c-1.36,0.891 -2.098,1.214 -2.098,1.214l-0.008,-0.013c1.528,-0.706 2.49,-2.453 2.49,-5.012c0,-4.789 -3.367,-10.622 -7.515,-13.016c-1.954,-1.129 -3.735,-1.293 -5.072,-0.651c0.379,-0.213 0.963,-0.546 1.494,-0.868c0.503,-0.306 1.074,-0.499 1.698,-0.563Z" style="fill:#dfdfdf;"/><path d="M105.924,83.378c0.359,-0.669 0.841,-1.187 1.421,-1.538l0.173,-0.098c2.939,-1.667 42.473,-24.09 43.408,-24.958c1.374,-1.276 3.536,-1.362 5.966,0.041c4.148,2.394 7.515,8.227 7.515,13.016c0,2.572 -0.971,4.323 -2.513,5.023c-1.329,0.602 -43.75,25.278 -43.75,25.278l-0.001,-0.002c-0.631,0.395 -1.381,0.59 -2.215,0.564c-0.28,0.373 -0.61,0.678 -0.982,0.911c-1.314,0.823 -60.058,34.676 -61.174,35.319c-0.753,0.468 -1.678,0.643 -2.714,0.49c0.694,-0.839 1.132,-2.025 1.132,-3.607c-0,-4.338 -3.05,-9.62 -6.807,-11.789c-1.353,-0.782 -2.615,-1.053 -3.675,-0.877c0.438,-1.081 1.163,-1.835 2.086,-2.212c5.625,-3.245 59.437,-34.283 60.619,-35.032c0.446,-0.283 0.954,-0.462 1.511,-0.529Z" style="fill:#32626e;"/><path d="M37.286,123.481c1.109,-0.624 2.496,-1.417 3.129,-1.832c1.243,-0.815 3.009,-0.752 4.968,0.379c3.757,2.169 6.807,7.451 6.807,11.789c-0,2.215 -0.859,3.653 -2.075,4.449c-0.697,0.457 -2.173,1.301 -3.321,1.947c0.326,-0.761 0.513,-1.678 0.513,-2.765c-0,-4.789 -3.368,-10.621 -7.515,-13.015c-0.878,-0.507 -1.722,-0.82 -2.506,-0.952Z" style="fill:#dfdfdf;"/><path d="M34.432,127.528c4.147,2.394 7.514,8.226 7.514,13.015c0,4.789 -3.367,6.733 -7.514,4.339c-4.148,-2.395 -7.515,-8.227 -7.515,-13.016c0,-4.789 3.367,-6.733 7.515,-4.338Z" style="fill:#dfdfdf;"/><path d="M23.984,136.641c2.674,1.544 4.846,5.305 4.846,8.394c-0,3.088 -2.172,4.342 -4.846,2.798c-2.675,-1.545 -4.846,-5.306 -4.846,-8.394c-0,-3.088 2.171,-4.342 4.846,-2.798Z" style="fill:#808080;fill-opacity:0.47;"/><path d="M105.924,83.378c0.359,-0.669 0.841,-1.187 1.421,-1.538l0.173,-0.098c2.939,-1.667 42.473,-24.09 43.408,-24.958c1.374,-1.276 3.536,-1.362 5.966,0.041c4.148,2.394 7.515,8.227 7.515,13.016c0,2.572 -0.971,4.323 -2.513,5.023c-1.329,0.602 -43.75,25.278 -43.75,25.278l-0.001,-0.002c-0.631,0.395 -1.381,0.59 -2.215,0.564c0.664,-0.885 1.046,-2.151 1.046,-3.74c0,-4.645 -3.265,-10.3 -7.287,-12.623c-1.377,-0.794 -2.664,-1.096 -3.763,-0.963Z" style="fill:#fff;fill-opacity:0.45;"/><path d="M107.495,81.755l0.023,-0.013c2.939,-1.667 42.473,-24.09 43.408,-24.958c1.374,-1.276 3.536,-1.362 5.966,0.041c4.148,2.394 7.515,8.227 7.515,13.016c0,2.572 -0.971,4.323 -2.513,5.023c-1.329,0.602 -43.75,25.278 -43.75,25.278l-0.001,-0.002c-0.631,0.395 -1.381,0.59 -2.215,0.564c0.664,-0.885 1.046,-2.151 1.046,-3.74c0,-4.645 -3.265,-10.3 -7.287,-12.623c-1.377,-0.794 -2.664,-1.096 -3.763,-0.963c0.341,-0.636 0.794,-1.135 1.336,-1.485c0.018,0.029 0.05,0.047 0.085,0.047l-0.023,-0.086l0.023,-0.014l0.15,-0.085l0.023,0.087l-0.023,-0.087Zm10.562,18.436l0,-0c-0.004,-0.007 -0.008,-0.015 -0.01,-0.023c-0.012,-0.043 0.005,-0.089 0.043,-0.113c-0.567,0.355 -1.233,0.544 -1.97,0.551c0.606,-0.89 0.954,-2.12 0.954,-3.642c0,-4.677 -3.288,-10.371 -7.337,-12.709c-1.319,-0.761 -2.558,-1.075 -3.631,-0.995l-0.001,0c0.339,-0.573 0.775,-1.021 1.292,-1.334l0.17,-0.097c-0,0 -0.049,0.013 -0.049,0.013l0.049,-0.013c2.941,-1.667 42.492,-24.104 43.427,-24.972c1.347,-1.25 3.466,-1.321 5.848,0.054c4.12,2.379 7.465,8.172 7.465,12.93c0,2.522 -0.942,4.246 -2.455,4.932c-1.329,0.602 -43.758,25.283 -43.758,25.283c-0.039,0.022 -0.058,0.068 -0.046,0.112c0.002,0.008 0.005,0.016 0.009,0.023Zm-10.69,-18.253l-0.002,0l0.002,-0Zm0.03,-0.012c-0.005,0.003 -0.01,0.005 -0.014,0.007c-0.005,0.002 -0.01,0.004 -0.015,0.005c0.008,-0.002 0.018,-0.006 0.029,-0.012Z" style="fill:#84b4c1;fill-opacity:0;"/><path d="M39.618,145.476l-0.001,0l0.007,-0.004l-0.006,0.004Zm-10.375,-18.541c0.739,-0.409 3.953,-2.192 5.064,-2.921c1.372,-0.899 3.322,-0.83 5.485,0.419c4.147,2.394 7.515,8.226 7.515,13.015c-0,2.446 -0.948,4.034 -2.291,4.913c-1.215,0.796 -4.568,2.656 -5.269,3.044c1.359,-0.786 2.199,-2.469 2.199,-4.862c0,-4.789 -3.367,-10.621 -7.514,-13.015c-2.012,-1.162 -3.84,-1.303 -5.189,-0.593Zm-0.128,0.071l-0.024,0.014l-0.001,-0.001l0.025,-0.013Z" style="fill:#dfdfdf;"/><path d="M20.699,136.228c1.476,-0.838 9.437,-5.364 10.146,-5.855c0.887,-0.615 2.166,-0.584 3.587,0.236c2.674,1.544 4.846,5.305 4.846,8.394c-0,1.477 -0.498,2.535 -1.309,3.067c-0.885,0.58 -10.637,6.147 -10.637,6.147l-0.001,-0.003c-0.87,0.458 -2.05,0.368 -3.347,-0.381c-2.675,-1.545 -4.846,-5.306 -4.846,-8.394c-0,-1.625 0.601,-2.742 1.561,-3.211Z" style="fill:#dfdfdf;"/><path d="M34.432,127.528c4.147,2.394 7.514,8.226 7.514,13.015c0,4.789 -3.367,6.733 -7.514,4.339c-4.148,-2.395 -7.515,-8.227 -7.515,-13.016c0,-4.789 3.367,-6.733 7.515,-4.338Z" style="fill:#7f7f7f;fill-opacity:0.18;"/><path d="M34.432,127.528c4.147,2.394 7.514,8.226 7.514,13.015c0,4.789 -3.367,6.733 -7.514,4.339c-4.148,-2.395 -7.515,-8.227 -7.515,-13.016c0,-4.789 3.367,-6.733 7.515,-4.338Z" style="fill:#7f7f7f;fill-opacity:0.18;"/><path d="M20.699,136.228c1.476,-0.838 9.437,-5.364 10.146,-5.855c0.887,-0.615 2.166,-0.584 3.587,0.236c2.674,1.544 4.846,5.305 4.846,8.394c-0,1.477 -0.498,2.535 -1.309,3.067c-0.885,0.58 -10.637,6.147 -10.637,6.147l-0.001,-0.003c0.923,-0.486 1.499,-1.589 1.499,-3.179c-0,-3.089 -2.172,-6.85 -4.846,-8.394c-1.267,-0.731 -2.421,-0.835 -3.285,-0.413Z" style="fill:#dfdfdf;"/><path d="M37.286,123.481c1.109,-0.624 2.496,-1.417 3.129,-1.832c1.243,-0.815 3.009,-0.752 4.968,0.379c3.757,2.169 6.807,7.451 6.807,11.789c-0,2.215 -0.859,3.653 -2.075,4.449c-0.697,0.457 -2.173,1.301 -3.321,1.947c0.326,-0.761 0.513,-1.678 0.513,-2.765c-0,-4.789 -3.368,-10.621 -7.515,-13.015c-0.878,-0.507 -1.722,-0.82 -2.506,-0.952Z" style="fill:#7f7f7f;fill-opacity:0.18;"/><path d="M151.82,56.174c0.379,-0.213 0.963,-0.546 1.494,-0.868c1.402,-0.852 3.322,-0.831 5.485,0.418c4.147,2.395 7.515,8.227 7.515,13.016c-0,2.446 -0.948,4.033 -2.291,4.912c-1.36,0.891 -2.098,1.214 -2.098,1.214l-0.008,-0.013c1.528,-0.706 2.49,-2.453 2.49,-5.012c0,-4.789 -3.367,-10.622 -7.515,-13.016c-1.954,-1.129 -3.735,-1.293 -5.072,-0.651Zm-0.377,0.209l-0.035,0.023l-0.002,-0.002l0.037,-0.021Z" style="fill:#7f7f7f;fill-opacity:0.18;"/><path d="M151.82,56.174c0.379,-0.213 0.963,-0.546 1.494,-0.868c1.402,-0.852 3.322,-0.831 5.485,0.418c4.147,2.395 7.515,8.227 7.515,13.016c-0,2.446 -0.948,4.033 -2.291,4.912c-1.36,0.891 -2.098,1.214 -2.098,1.214l-0.008,-0.013c1.528,-0.706 2.49,-2.453 2.49,-5.012c0,-4.789 -3.367,-10.622 -7.515,-13.016c-1.954,-1.129 -3.735,-1.293 -5.072,-0.651Zm-0.377,0.209l-0.035,0.023l-0.002,-0.002l0.037,-0.021Z" style="fill:#7f7f7f;fill-opacity:0.18;"/><path d="M179.809,50.861l-3.824,2.067c1.394,0.187 2.06,1.313 1.749,2.763l3.713,-2.326c0.273,-1.13 -0.514,-2.4 -1.638,-2.504Z" style="fill:#7f7f7f;fill-opacity:0.18;"/><path d="M23.984,136.641c2.674,1.544 4.846,5.305 4.846,8.394c-0,3.088 -2.172,4.342 -4.846,2.798c-2.675,-1.545 -4.846,-5.306 -4.846,-8.394c-0,-3.088 2.171,-4.342 4.846,-2.798Z" style="fill:#7f7f7f;fill-opacity:0.18;"/><path d="M23.984,136.641c2.674,1.544 4.846,5.305 4.846,8.394c-0,3.088 -2.172,4.342 -4.846,2.798c-2.675,-1.545 -4.846,-5.306 -4.846,-8.394c-0,-3.088 2.171,-4.342 4.846,-2.798Z" style="fill:#7f7f7f;fill-opacity:0.18;"/><path d="M50.802,131.642l-2.478,1.448l0,5.772l3.511,2.027l-0,0.001l0.092,0.052l2.16,1.247l0,-0.02l0.018,0.01l0,0.021l61.097,-35.274l-0,-5.782l-0.007,0.004l-2.263,-1.315l-0.021,0.012l-3.044,-1.854l-7.974,4.603l-0,3.613l-47.573,27.466l-3.518,-2.031Z" style="fill:#dfdfdf;"/><path d="M54.105,136.428l-5.761,-3.327l-0,5.772l5.761,3.326l-0,-5.771Z" style="fill:#7f7f7f;fill-opacity:0.18;"/><path d="M54.105,136.428l-5.761,-3.327l-0,5.772l5.761,3.326l-0,-5.771Z" style="fill:#7f7f7f;fill-opacity:0.18;"/><path d="M115.202,101.144l-61.097,35.274l0,5.782l61.097,-35.274l-0,-5.782Z" style="fill:#7f7f7f;fill-opacity:0.18;"/></svg>