<?xml version="1.0" encoding="UTF-8" standalone="no"?><!DOCTYPE svg PUBLIC "-//W3C//DTD SVG 1.1//EN" "http://www.w3.org/Graphics/SVG/1.1/DTD/svg11.dtd"><svg width="100%" height="100%" viewBox="0 0 200 200" version="1.1" xmlns="http://www.w3.org/2000/svg" xmlns:xlink="http://www.w3.org/1999/xlink" xml:space="preserve" xmlns:serif="http://www.serif.com/" style="fill-rule:evenodd;clip-rule:evenodd;stroke-linejoin:round;stroke-miterlimit:2;"><path d="M123.269,43.395c0,-3.677 -2.238,-5.369 -4.996,-3.777l-39.426,22.763c-2.758,1.592 -4.996,5.869 -4.996,9.545l-0,92.415c-0,3.676 2.238,5.369 4.996,3.777l39.426,-22.763c2.758,-1.592 4.996,-5.87 4.996,-9.546l0,-92.414Z" style="fill:#d3d3d3;"/><path d="M121.356,39.177c-0,-0 -3.505,-2.987 -6.263,-1.395l-39.426,22.763c-2.758,1.592 -4.996,5.869 -4.996,9.545l-0,92.415c-0,3.676 4.918,5.905 4.918,5.905c-1.141,-0.801 -1.725,-1.967 -1.729,-3.788l-0.011,-92.672c0.298,-4.485 1.992,-8.471 7.574,-11.067l36.228,-20.907c1.602,-1.05 2.748,-1.128 3.705,-0.799Z" style="fill:#d3d3d3;"/><path d="M121.356,39.177c-0,-0 -3.505,-2.987 -6.263,-1.395l-39.426,22.763c-2.758,1.592 -4.996,5.869 -4.996,9.545l-0,92.415c-0,3.676 4.918,5.905 4.918,5.905c-1.141,-0.801 -1.725,-1.967 -1.729,-3.788l-0.011,-92.672c0.298,-4.485 1.992,-8.471 7.574,-11.067l36.228,-20.907c1.602,-1.05 2.748,-1.128 3.705,-0.799Z" style="fill:#8f8f8f;fill-opacity:0.52;"/><path d="M121.936,43.927c0,-2.451 -1.492,-3.579 -3.331,-2.518l-39.872,23.021c-1.839,1.061 -3.331,3.913 -3.331,6.364l-0,93.082c-0,2.451 1.492,3.58 3.331,2.518l39.872,-23.02c1.839,-1.062 3.331,-3.913 3.331,-6.364l0,-93.083Z" style="fill:#141414;"/><path d="M98.834,54.627c0.455,-0.263 0.825,-0.049 0.825,0.476c-0,0.525 -0.37,1.165 -0.825,1.428c-0.455,0.263 -0.824,0.05 -0.824,-0.476c-0,-0.525 0.369,-1.165 0.824,-1.428Z" style="fill:#5b5b5b;fill-opacity:0.47;"/><path d="M120.326,46.189l-43.16,24.919l-0,86.421l43.16,-24.919l0,-86.421Z" style="fill:#bcd2d2;"/><path d="M98.825,146.903c1.402,-0.809 2.541,-0.152 2.541,1.468c0,1.619 -1.139,3.592 -2.541,4.401c-1.403,0.81 -2.542,0.153 -2.542,-1.467c0,-1.619 1.139,-3.592 2.542,-4.402Z" style="fill:#5b5b5b;fill-opacity:0.47;"/></svg>