<?xml version="1.0" encoding="UTF-8" standalone="no"?><!DOCTYPE svg PUBLIC "-//W3C//DTD SVG 1.1//EN" "http://www.w3.org/Graphics/SVG/1.1/DTD/svg11.dtd"><svg width="100%" height="100%" viewBox="0 0 200 200" version="1.1" xmlns="http://www.w3.org/2000/svg" xmlns:xlink="http://www.w3.org/1999/xlink" xml:space="preserve" xmlns:serif="http://www.serif.com/" style="fill-rule:evenodd;clip-rule:evenodd;stroke-linecap:round;stroke-linejoin:round;stroke-miterlimit:1.5;"><g><path d="M123.996,130.601c-4.291,2.759 -8.058,3.002 -12.468,0.296l-66.768,-38.556c-1.224,-0.876 -1.805,-1.825 -1.894,-2.709c0,0 -0.463,5.637 2.225,7.189l67.569,39.011c2.688,1.552 6.76,1.72 9.088,0.376l33.286,-19.217c2.328,-1.344 1.594,-6.621 1.594,-6.621c0.013,1.089 -0.774,1.856 -1.858,2.501l-30.774,17.73Z" style="fill:#bbb;"/><path d="M123.996,130.601c-4.078,3.019 -7.986,3.09 -12.503,0.28l-66.87,-38.608c-1.225,-0.875 -1.668,-1.757 -1.757,-2.641c0,0 -0.463,5.637 2.225,7.189l67.569,39.011c2.688,1.552 6.76,1.72 9.088,0.376l33.286,-19.217c2.328,-1.344 1.594,-6.621 1.594,-6.621c0.013,1.089 -0.774,1.856 -1.858,2.501l-30.774,17.73Z" style="fill:#7d7d7d;fill-opacity:0.47;"/><path d="M86.813,68.451c-2.688,-1.552 -6.76,-1.721 -9.088,-0.377l-33.286,19.218c-2.328,1.344 -2.036,3.695 0.652,5.247l67.569,39.01c2.688,1.552 6.76,1.721 9.088,0.377l33.286,-19.218c2.328,-1.344 2.036,-3.695 -0.653,-5.247l-67.568,-39.01Z" style="fill:#bbb;"/><path d="M85.514,69.001c-1.792,-1.035 -4.507,-1.148 -6.059,-0.251l-33.662,19.435c-1.552,0.896 -1.357,2.463 0.435,3.498l68.057,39.292c1.792,1.035 4.507,1.148 6.058,0.252l33.663,-19.436c1.552,-0.896 1.357,-2.463 -0.435,-3.498l-68.057,-39.292Z" style="fill:#181818;"/><path d="M64.081,79.148c0.385,-0.222 1.008,-0.222 1.393,-0c0.384,0.221 0.384,0.581 -0,0.803c-0.385,0.222 -1.008,0.222 -1.393,0c-0.384,-0.222 -0.384,-0.582 0,-0.803Z" style="fill:#919191;fill-opacity:0.46;"/><path d="M85.13,70.348l-36.439,21.037l63.186,36.481l36.439,-21.038l-63.186,-36.48Z" style="fill:#b4d1d1;stroke:#000;stroke-width:0.1px;"/><path d="M131.537,118.102c1.184,-0.684 3.107,-0.684 4.291,0c1.184,0.684 1.184,1.794 0,2.478c-1.184,0.683 -3.107,0.683 -4.291,-0c-1.184,-0.684 -1.184,-1.794 -0,-2.478Z" style="fill:#919191;fill-opacity:0.46;"/></g></svg>