<svg width="100%" height="100%" viewBox="0 0 200 200" version="1.1" xmlns="http://www.w3.org/2000/svg" xmlns:xlink="http://www.w3.org/1999/xlink" xml:space="preserve" xmlns:serif="http://www.serif.com/" style="fill-rule:evenodd;clip-rule:evenodd;stroke-linejoin:round;stroke-miterlimit:2;"><path d="M125.229,173.417l0,-42.621l-44.301,0l-0,44.304l0.07,0c0.338,2.993 2.468,5.929 6.429,8.215c8.663,5.002 22.712,5.002 31.375,0c4.703,-2.715 6.832,-6.346 6.427,-9.898" style="fill:#e6e6e6;fill-rule:nonzero;"/><path d="M118.802,139.924c-8.664,5.002 -22.713,5.002 -31.376,0c-8.663,-5.003 -8.663,-13.113 -0,-18.115c8.663,-5.002 22.71,-5.002 31.376,0c8.665,5.002 8.665,13.112 -0,18.115" style="fill:#f2f2f2;fill-rule:nonzero;"/><path d="M114.588,140.86c-6.342,3.661 -16.625,3.661 -22.971,-0c-6.342,-3.662 -6.342,-9.599 -0,-13.261c6.346,-3.663 16.629,-3.663 22.971,0c6.343,3.662 6.343,9.599 -0,13.261" style="fill:#e6e6e6;fill-rule:nonzero;"/><path d="M122.802,90.072c-2.105,3.08 -4.09,6.281 -5.795,9.78c-1.773,3.419 -3.307,7.088 -4.63,10.941c-1.333,3.857 -2.101,8.196 -3.434,12.017c-1.32,3.847 -2.569,7.769 -4.293,11.459l-0.407,-0.302c-0.529,-5.384 -0.118,-10.193 0.704,-14.655c0.791,-4.505 2.641,-8.057 4.348,-11.66c1.753,-3.572 3.707,-6.908 5.88,-9.957c2.234,-2.975 4.624,-5.736 7.286,-8.086l0.341,0.463Z" style="fill:#009245;fill-rule:nonzero;"/><path d="M81.633,48.829c3.762,6.939 7.05,14.124 9.925,21.375c2.806,7.258 5.159,14.588 6.958,21.836c1.783,7.227 3.408,14.572 3.631,21.299c0.26,6.715 -0.219,13.07 -1.9,18.377l-0.413,-0.284c-0.586,-6.835 -1.012,-13.35 -1.797,-20.024c-0.796,-6.647 -1.303,-13.199 -2.689,-20.109c-1.338,-6.881 -3.235,-13.94 -5.614,-21.036c-2.323,-7.1 -5.191,-14.237 -8.422,-21.318l0.321,-0.116Z" style="fill:#009245;fill-rule:nonzero;"/><path d="M106.586,59.735c0.077,6.365 0.044,12.666 0.068,19.005c-0.072,6.276 -0.028,12.631 -0.201,18.848c-0.175,6.217 0.004,12.666 -0.649,18.572c-0.632,5.922 -1.428,11.735 -2.916,17.077l-0.411,-0.273c-0.781,-6.849 -0.868,-13.225 -0.792,-19.495c0.051,-6.282 0.94,-12.023 1.474,-17.997c0.581,-5.944 0.948,-12.026 1.436,-18.035c0.529,-5.981 0.999,-12.003 1.58,-17.958l0.411,0.256Z" style="fill:#009245;fill-rule:nonzero;"/><path d="M131.758,112.123c-0.831,-0.382 -2.416,-1.243 -4.198,-3.095c-2.454,-2.551 -3.749,-5.391 -4.194,-6.455c1.055,-2.066 2.074,-4.611 1.309,-5.704c-0.324,-0.456 -1.106,-0.87 -3.235,-0.172c-0.23,-0.921 -0.518,-2.392 -0.438,-3.97c0.099,-1.865 0.665,-2.977 1.03,-3.537c-0.568,-1.156 -2.249,-4.805 -2.079,-8.401c0.072,-1.534 0.459,-2.584 0.807,-3.25c1.795,6.322 3.041,9.59 3.74,9.806c0.842,0.262 0.885,-3.926 0.129,-12.565c0.947,-0.267 2.66,-0.527 5.061,0.207c2.225,0.683 4.107,1.937 5.244,2.799c-0.855,3.864 -2.407,11.522 -1.325,12.569c1.082,1.047 4.335,-5.006 5.935,-8.147c0.813,0.844 1.957,2.153 3.131,3.948c1.197,1.832 1.974,3.48 2.448,4.612c-2.009,2.381 -4.09,5.231 -3.447,6.239c0.284,0.446 1.326,0.879 5.817,-1.115c0.964,2.442 1.925,4.886 2.889,7.328c-0.644,1.502 -1.292,3.003 -1.936,4.503c-3.284,-3.828 -6.202,-5.723 -6.829,-4.962c-0.641,0.776 0.782,4.713 3.95,9.264c-0.199,0.439 -0.479,0.907 -0.877,1.327c-1.043,1.1 -2.339,1.283 -3.157,1.29c-4.63,-9.894 -9.015,-16.682 -10.735,-16.577c-1.609,0.099 -0.962,6.23 0.96,14.058" style="fill:#006837;fill-rule:nonzero;"/><path d="M126.252,56.081c0.278,1.163 0.56,2.759 0.522,4.468c-0.063,3.111 -1.145,4.814 -1.746,5.566c-1.141,-1.366 -3.716,-4.199 -6.866,-5.439c-1.553,-0.61 -4.705,-1.408 -4.86,0.256c-0.14,1.53 2.276,4.925 5.961,8.213c-0.795,0.019 -4.468,-0.005 -8.654,-4.04c-2.009,-1.937 -3.373,-4.064 -4.134,-5.391c-0.96,0.315 -2.719,0.654 -5.209,-0.122c-3.533,-1.102 -6.429,-3.795 -7.618,-4.991c1.589,-0.876 2.533,-2.549 1.987,-4.254c-0.704,-2.197 -4.088,-5.078 -7.905,-5.106c-0.546,-1.41 -1.347,-3.795 -1.637,-6.534c-0.287,-2.696 0.046,-4.569 0.325,-5.623c12.246,12.834 15.777,14.828 16.518,13.899c0.896,-1.124 -2.009,-6.873 -4.147,-10.178c-4.302,-6.646 -9.43,-9.468 -10.939,-10.235c0.547,-1.233 1.391,-2.689 2.717,-3.933c0.846,-0.795 1.714,-1.337 2.497,-1.713c4.086,7.806 8.228,13.028 9.64,12.72c1.419,-0.31 0.584,-6.366 -2.536,-14.67c2.053,0.115 4.101,0.231 6.154,0.347c2.053,2.263 4.11,4.525 6.162,6.79c-0.546,0.866 -6.383,10.224 -4.632,12.655c1.749,2.426 10.108,-3.373 10.893,-3.924c0.999,1.309 2.355,3.274 3.614,5.815c1.845,3.727 2.573,6.844 2.881,8.58c-0.623,-0.486 -8.598,-6.55 -12.452,-2.951c-0.426,0.395 -2.109,1.965 -1.383,3.79c1.156,2.908 7.753,4.774 14.847,6.005" style="fill:#006837;fill-rule:nonzero;"/><path d="M67.356,61.678c0.815,0.719 2.68,2.21 4.225,1.967c1.511,-0.238 1.939,-2.02 2.486,-4.473c0.872,-3.906 0.435,-7.03 0.826,-6.864c0.393,0.169 1.253,3.463 1.41,6.499c0.135,2.628 -0.28,4.493 -0.656,5.651c0.507,0.232 2.145,0.905 3.579,0.158c1.434,-0.746 1.748,-2.44 1.829,-2.978c-1.689,-6.14 -2.184,-9.244 -1.488,-9.314c0.55,-0.057 1.849,1.788 3.893,5.528c0.024,-1.073 -0.059,-2.818 -0.68,-5.08c-0.411,-1.491 -0.933,-2.774 -1.382,-3.738c0.606,-0.385 2.571,-1.815 2.674,-5.572c0.111,-3.997 -1.919,-9.059 -5.227,-13.132c0.182,10.578 -0.625,12.546 -1.438,12.244c-1.207,-0.446 -3.117,-6.154 -3.891,-10.174c-0.715,-3.722 -0.549,-6.497 -0.313,-8.191c-1.016,-1.204 -3.097,-3.438 -5.627,-4.466c-0.629,-0.253 -1.189,-0.395 -1.676,-0.468c0.813,1.421 6.678,11.84 5.117,16.656c-0.186,0.579 -0.68,2.096 -2.033,2c-1.764,-0.125 -3.836,-2.91 -4.488,-3.782c-4.472,-6.009 -4.184,-14.347 -4.123,-15.656c-1.158,0.391 -2.315,0.78 -3.471,1.169c0.461,0.971 1.983,4.357 1.495,7.103c-0.14,0.785 -0.402,2.264 -1.641,2.345c-0.846,0.053 -2.2,-0.542 -3.194,-2.052c-0.999,-1.52 -0.993,-2.986 -0.99,-3.185c-0.748,0.483 -1.592,1.167 -2.401,2.146c-0.935,1.131 -1.565,2.344 -1.995,3.4c0.284,1.388 0.786,3.305 1.698,5.565c0.724,1.795 1.504,3.312 2.173,4.484c0.363,-0.612 1.607,-2.46 4.3,-2.245c1.425,0.113 4.466,0.9 5.421,2.776c0.763,1.491 0.488,4.225 -5.122,9.651c0.304,0.643 0.706,1.41 1.229,2.234c0.964,1.524 1.941,2.623 2.638,3.327c0.079,-0.419 1.778,-8.822 6.714,-7.122c0.564,0.197 1.613,0.529 2.332,1.598c2.4,3.559 -1.663,11.018 -2.203,11.991" style="fill:#006837;fill-rule:nonzero;"/><path d="M122.802,66.615c-2.105,5.511 -4.09,11.005 -5.795,16.474c-1.773,5.467 -3.307,10.906 -4.63,16.286c-1.333,5.395 -2.101,10.622 -3.434,15.982c-1.32,5.375 -2.569,10.735 -4.293,16.417l-0.407,0.168c-0.529,-4.772 -0.118,-10.06 0.704,-15.468c0.791,-5.419 2.641,-11.105 4.348,-16.682c1.753,-5.594 3.707,-11.185 5.88,-16.744c2.234,-5.555 4.624,-11.077 7.286,-16.5l0.341,0.067Z" style="fill:#009245;fill-rule:nonzero;"/><path d="M81.633,72.912c3.762,2.595 7.05,5.983 9.925,9.913c2.806,4.016 5.159,8.629 6.958,13.805c1.783,5.163 3.408,10.633 3.631,17.103c0.26,6.416 -0.219,13.322 -1.9,20.573l-0.413,0.19c-0.586,-6.158 -1.012,-12.182 -1.797,-17.947c-0.796,-5.727 -1.303,-11.695 -2.689,-17.005c-1.338,-5.336 -3.235,-10.204 -5.614,-14.552c-2.323,-4.418 -5.191,-8.244 -8.422,-11.595l0.321,-0.485Z" style="fill:#009245;fill-rule:nonzero;"/><path d="M106.586,55.003c0.077,6.276 0.044,12.616 0.068,18.927c-0.072,6.361 -0.028,12.663 -0.201,19.079c-0.175,6.418 0.004,12.662 -0.649,19.325c-0.632,6.649 -1.428,13.38 -2.916,20.443l-0.411,0.201c-0.781,-5.946 -0.868,-12.222 -0.792,-18.581c0.051,-6.344 0.94,-13.109 1.474,-19.698c0.581,-6.615 0.948,-13.123 1.436,-19.694c0.529,-6.591 0.999,-13.155 1.58,-19.781l0.411,-0.221Z" style="fill:#009245;fill-rule:nonzero;"/><path d="M131.758,78.326c-0.831,0.577 -2.416,1.547 -4.198,1.751c-2.454,0.284 -3.749,-1.063 -4.194,-1.612c1.055,-3.283 2.074,-7.006 1.309,-7.211c-0.324,-0.088 -1.106,0.402 -3.235,3.561c-0.23,-0.654 -0.518,-1.795 -0.438,-3.467c0.099,-1.976 0.665,-3.743 1.03,-4.724c-0.568,-0.501 -2.249,-2.21 -2.079,-6.003c0.072,-1.615 0.459,-3.111 0.807,-4.18c1.795,4.25 3.041,6.08 3.74,5.489c0.842,-0.712 0.885,-4.951 0.129,-12.716c0.947,-1.359 2.66,-3.6 5.061,-5.635c2.225,-1.887 4.107,-2.805 5.244,-3.259c-0.855,4.85 -2.407,14.305 -1.325,14.099c1.082,-0.203 4.335,-10.009 5.935,-14.998c0.813,-0.096 1.957,-0.109 3.131,0.33c1.197,0.451 1.974,1.2 2.448,1.788c-2.009,4.7 -4.09,9.953 -3.447,10.218c0.284,0.118 1.326,-0.652 5.817,-7.831l2.889,3.992c-0.644,2.247 -1.292,4.492 -1.936,6.74c-3.284,-0.04 -6.202,1.438 -6.829,2.922c-0.641,1.517 0.782,3.808 3.95,4.702c-0.199,0.672 -0.479,1.463 -0.877,2.339c-1.043,2.302 -2.339,3.988 -3.157,4.936c-4.63,-4.549 -9.015,-6.271 -10.735,-4.179c-1.609,1.954 -0.962,7.338 0.96,12.948" style="fill:#006837;fill-rule:nonzero;"/><path d="M126.252,28.642c0.278,0.842 0.56,2.114 0.522,3.863c-0.063,3.187 -1.145,6.138 -1.746,7.583c-1.141,-0.05 -3.716,0.092 -6.866,2.49c-1.553,1.182 -4.705,4.024 -4.86,5.867c-0.14,1.692 2.276,2.297 5.961,1.329c-0.795,0.94 -4.468,5.157 -8.654,5.955c-2.009,0.382 -3.373,-0.169 -4.134,-0.619c-0.96,1.423 -2.719,3.795 -5.209,5.894c-3.533,2.977 -6.429,3.628 -7.618,3.808c1.589,-2.713 2.533,-5.476 1.987,-6.55c-0.704,-1.386 -4.088,-0.358 -7.905,4.02c-0.546,-0.78 -1.347,-2.238 -1.637,-4.64c-0.287,-2.368 0.046,-4.626 0.325,-6.001c12.246,-1.307 15.777,-3.388 16.518,-5.174c0.896,-2.158 -2.009,-4.554 -4.147,-5.389c-4.302,-1.679 -9.43,1.421 -10.939,2.398c0.547,-1.865 1.391,-4.3 2.717,-7.074c0.846,-1.773 1.714,-3.314 2.497,-4.595c4.086,3.087 8.228,3.526 9.64,1.592c1.419,-1.955 0.584,-7.046 -2.536,-11.746c2.053,-2.254 4.101,-4.505 6.154,-6.757c2.053,-0.109 4.11,-0.221 6.162,-0.328c-0.546,1.496 -6.383,17.596 -4.632,18.004c1.749,0.407 10.108,-15.046 10.893,-16.502c0.999,0.155 2.355,0.558 3.614,1.644c1.845,1.594 2.573,3.871 2.881,5.249c-0.623,0.236 -8.598,3.379 -12.452,11.43c-0.426,0.89 -2.109,4.401 -1.383,5.389c1.156,1.572 7.753,-4.18 14.847,-11.14" style="fill:#006837;fill-rule:nonzero;"/><path d="M67.356,102.246c0.815,-0.225 2.68,-0.886 4.225,-2.912c1.511,-1.985 1.939,-4.258 2.486,-7.341c0.872,-4.916 0.435,-7.533 0.826,-7.821c0.393,-0.287 1.253,2.015 1.41,4.87c0.135,2.47 -0.28,4.818 -0.656,6.41c0.507,-0.357 2.145,-1.574 3.579,-3.975c1.434,-2.4 1.748,-4.461 1.829,-5.089c-1.689,-4.19 -2.184,-6.722 -1.488,-7.596c0.55,-0.693 1.849,-0.35 3.893,1.032c0.024,-1.1 -0.059,-2.748 -0.68,-4.293c-0.411,-1.019 -0.933,-1.699 -1.382,-2.145c0.606,-1.084 2.571,-4.781 2.674,-8.659c0.111,-4.125 -1.919,-6.84 -5.227,-7.098c0.182,10.369 -0.625,13.272 -1.438,13.908c-1.207,0.944 -3.117,-2.556 -3.891,-5.682c-0.715,-2.896 -0.549,-5.863 -0.313,-7.83c-1.016,-0.031 -3.097,0.138 -5.627,2.035c-0.629,0.47 -1.189,0.975 -1.676,1.465c0.813,0.483 6.678,4.129 5.117,10.746c-0.186,0.794 -0.68,2.879 -2.033,4.346c-1.764,1.913 -3.836,1.521 -4.488,1.399c-4.472,-0.844 -4.184,-9.516 -4.123,-10.893l-3.471,5.179c0.461,0.437 1.983,2.068 1.495,5.375c-0.14,0.945 -0.402,2.728 -1.641,4.239c-0.846,1.032 -2.2,1.998 -3.194,1.635c-0.999,-0.365 -0.993,-1.838 -0.99,-2.042c-0.748,1.351 -1.592,3.008 -2.401,4.921c-0.935,2.21 -1.565,4.151 -1.995,5.705c0.284,1.058 0.786,2.394 1.698,3.603c0.724,0.96 1.504,1.574 2.173,1.974c0.363,-1.03 1.607,-4.315 4.3,-7.21c1.425,-1.532 4.466,-4.256 5.421,-3.486c0.763,0.612 0.488,3.664 -5.122,15.569c0.304,0.292 0.706,0.592 1.229,0.815c0.964,0.409 1.941,0.383 2.638,0.28c0.079,-0.512 1.778,-10.876 6.714,-14.872c0.564,-0.459 1.613,-1.335 2.332,-1.097c2.4,0.787 -1.663,12.937 -2.203,14.535" style="fill:#006837;fill-rule:nonzero;"/></svg>
