<?xml version="1.0" encoding="UTF-8" standalone="no"?><!DOCTYPE svg PUBLIC "-//W3C//DTD SVG 1.1//EN" "http://www.w3.org/Graphics/SVG/1.1/DTD/svg11.dtd"><svg width="100%" height="100%" viewBox="0 0 200 200" version="1.1" xmlns="http://www.w3.org/2000/svg" xmlns:xlink="http://www.w3.org/1999/xlink" xml:space="preserve" xmlns:serif="http://www.serif.com/" style="fill-rule:evenodd;clip-rule:evenodd;stroke-linejoin:round;stroke-miterlimit:2;"><path d="M84.729,185.049c0.085,-2.134 -8.329,-57.31 -8.39,-57.757c-0.53,-3.863 1.761,-7.83 6.874,-10.782c9.265,-5.349 24.309,-5.349 33.574,0c4.938,2.851 7.244,6.65 6.919,10.386c-0.039,0.442 -8.525,59.428 -8.653,59.86c-0.516,1.734 -1.933,3.396 -4.25,4.734c-5.962,3.442 -15.644,3.442 -21.606,0c-3.071,-1.773 -4.56,-4.116 -4.468,-6.441Z" style="fill:#eaeaea;"/><path d="M83.207,116.668c9.269,-5.35 24.317,-5.35 33.586,0c9.268,5.351 9.268,14.04 -0,19.391c-9.269,5.351 -24.317,5.351 -33.586,-0c-9.268,-5.351 -9.268,-14.04 0,-19.391Z" style="fill:#8a8a8a;fill-opacity:0.12;"/><path d="M123.513,128.275c-1.265,8.926 -8.343,58.087 -8.46,58.481c-0.516,1.734 -1.933,3.396 -4.25,4.734c-1.438,0.83 -3.093,1.46 -4.86,1.89c0.455,-0.623 0.781,-1.27 0.977,-1.928c0.104,-0.352 5.764,-39.627 7.872,-54.361c0.692,-0.318 1.36,-0.662 2.001,-1.032c3.79,-2.189 6.03,-4.936 6.72,-7.784Z" style="fill:#8a8a8a;fill-opacity:0.12;"/><path d="M85.027,117.558c8.264,-4.771 21.682,-4.771 29.946,-0c8.263,4.771 8.263,12.518 -0,17.289c-8.264,4.771 -21.682,4.771 -29.946,-0c-8.263,-4.771 -8.263,-12.518 0,-17.289Z" style="fill:#8a8a8a;fill-opacity:0.12;"/><path d="M119.148,134.477c2.378,-1.867 3.833,-4.004 4.365,-6.202c-1.265,8.926 -8.343,58.087 -8.46,58.481c-0.508,1.705 -1.886,3.341 -4.135,4.667c0.925,-6.097 6.819,-47.03 8.23,-56.946Z" style="fill:#8a8a8a;fill-opacity:0.12;"/><path d="M80.519,130.998c0.321,-0.651 0.741,-1.29 1.261,-1.907c0.337,-0.4 0.716,-1.379 1.136,-1.759c0.276,-0.249 0.571,0.093 0.883,-0.147c0.566,-0.434 1.046,-1.047 1.731,-1.442c0.202,-0.117 1.211,-0.379 1.44,-0.49c0.339,-0.165 1.069,0.141 1.421,-0.009c0.334,-0.142 0.29,-0.74 0.635,-0.868c0.797,-0.297 2.048,0.077 2.894,-0.149c0.945,-0.251 1.491,-1.095 2.48,-1.258c1.138,-0.188 2.3,0.337 3.47,0.266c0.939,-0.056 1.884,-0.731 2.828,-0.712c1.075,0.021 2.35,0.779 3.41,0.898c0.925,0.104 1.638,-0.441 2.534,-0.262c1.158,0.231 2.286,1.336 3.37,1.692c0.752,0.247 1.482,-0.288 2.185,0.018c0.741,0.324 1.453,1.179 2.128,1.569c0.626,0.361 1.203,0.242 1.73,0.637c0.821,0.614 1.521,1.265 2.102,1.942c0.267,0.311 0.508,1.081 0.724,1.403c0.229,0.339 0.428,0.23 0.6,0.578c-1.032,1.399 -2.534,2.709 -4.508,3.849c-8.264,4.771 -21.682,4.771 -29.946,-0c-1.974,-1.14 -3.476,-2.45 -4.508,-3.849Z" style="fill:#5e4e1f;"/><path d="M71.451,28.355c1.359,-0 5.607,14.211 7.715,18.669c4.463,9.435 6.015,13.108 8.643,28.721c1.884,11.196 3.025,25.634 4.003,37.499c1.029,12.495 1.793,22.138 -0.381,22.138c-2.22,-0 -4.403,-9.793 -7.774,-21.919c-3.066,-11.03 -7.339,-23.897 -9.182,-34.847c-1.683,-9.998 -1.578,-17.207 -2.364,-26.054c-0.797,-8.968 -1.846,-18.178 -1.13,-21.792c0.201,-1.018 -0.057,-2.415 0.47,-2.415Z" style="fill:#2a5e2e;"/><path d="M73.796,74.032l0.38,-0l0.893,1.368l0.459,-1.368l0.905,-0.535l0.69,-1.044l1.862,1.185l1.551,-3.019l1.566,2.781l1.291,0.632l1.788,0.978l0.971,-0.978l1.096,0.75l0.361,-0.214c0.066,0.385 0.132,0.777 0.2,1.177c0.242,1.441 0.472,2.935 0.691,4.47l-1.748,-1.7l-0.767,1.77l-2.191,-1.702l-2.706,-1.711l-1.543,0.272l-0.958,1.562l-1.662,-1.145l-0.899,2.724l-1.137,-1.277l-0.29,0.329c-0.043,-0.24 -0.084,-0.481 -0.124,-0.721c-0.269,-1.593 -0.491,-3.115 -0.679,-4.584Z" style="fill:#e0e4ce;fill-opacity:0.18;"/><path d="M73.06,66.613l0.774,1.451l0.384,-1.814l0.995,0.001l0.6,-1.579l1.946,1.681l1.467,-3.516l1.649,3.272l1.208,0.141l1.881,1.532l0.879,-1.532l1.199,1.367l0.223,-0.262c0.216,1.049 0.435,2.167 0.659,3.369l-1.789,-1.761l-0.752,1.809l-2.209,-1.76l-2.687,-1.654l-1.569,0.176l-0.932,1.659l-1.706,-1.357l-0.855,2.936l-1.138,-1.407c-0.085,-0.931 -0.16,-1.847 -0.227,-2.752Z" style="fill:#e0e4ce;fill-opacity:0.18;"/><path d="M72.546,58.487l0.134,-0.634l0.995,0l0.6,-1.579l1.946,1.681l1.467,-3.515l1.383,1.693l1.474,1.72l1.881,1.531l0.879,-1.531l0.759,0.865c0.328,1.021 0.641,2.089 0.946,3.239l-1.413,-1.392l-0.752,1.809l-2.209,-1.759l-2.687,-1.654l-1.569,0.176l-0.932,1.658l-1.706,-1.357l-0.855,2.936l-0.116,-0.143c-0.075,-1.244 -0.147,-2.487 -0.225,-3.744Z" style="fill:#e0e4ce;fill-opacity:0.18;"/><path d="M71.828,49.456l0.309,-0l0.6,-1.579l1.946,1.681l1.467,-3.516l1.383,1.694l1.474,1.719l1.881,1.532l0.069,-0.121c0.298,0.654 0.58,1.288 0.849,1.91l-0.499,1.201l-2.209,-1.76l-2.687,-1.654l-1.569,0.176l-0.932,1.659l-1.706,-1.357l-0.176,0.602c-0.066,-0.73 -0.133,-1.461 -0.2,-2.187Z" style="fill:#e0e4ce;fill-opacity:0.18;"/><path d="M71.08,41.029l0.289,-0.537l1.883,1.304l1.53,-3.139l1.319,1.315l0.813,1.109c0.426,1.237 0.842,2.421 1.233,3.465l-0.521,-0.332l-2.753,-2.048l-1.506,0.547l-0.995,1.287l-1.105,-0.703c-0.066,-0.772 -0.129,-1.529 -0.187,-2.268Z" style="fill:#e0e4ce;fill-opacity:0.18;"/><path d="M73.317,31.06c0.458,1.034 0.975,2.417 1.517,3.954l-1.499,-1.246l-1.462,0.81l-1.039,1.025l-0.07,-0.037c-0.024,-0.834 -0.029,-1.606 -0.011,-2.304l1.037,0.586l1.527,-2.788Z" style="fill:#e0e4ce;fill-opacity:0.18;"/><path d="M75.985,85.997l0.093,0.077l0.707,-1.278l1.285,-0.433l1.277,-1.146l1.483,1.562l1.017,-3.396l3.279,5.115l1.618,-1.702l1.363,1.77l1.036,-1.496c0.214,1.747 0.417,3.527 0.611,5.325l-0.737,0.655l-1.301,-0.978l-1.459,0.978l-1.696,-3.037l-1.161,-0.377l-1.949,0.649l-1.464,1.186l-1.041,-1.044l-0.554,2.623l-0.92,-1.368l-0.317,1.006c-0.413,-1.577 -0.806,-3.144 -1.17,-4.691Z" style="fill:#e0e4ce;fill-opacity:0.18;"/><path d="M78.226,94.649l0.16,-0.339l1.312,-0.222l1.25,-1.357l1.491,1.658l1.01,-3.492l3.279,5.172l1.617,-1.759l1.361,1.809l0.549,-0.809c0.1,1.036 0.198,2.074 0.294,3.11l-0.223,0.411l-1.394,-1.531l-1.365,1.531l-1.779,-3.528l-1.078,0.115l-2.033,0.153l-1.38,1.681l-1.131,-1.579l-0.464,3.158l-0.608,-1.107c-0.293,-1.025 -0.583,-2.05 -0.868,-3.075Z" style="fill:#e0e4ce;fill-opacity:0.18;"/><path d="M87.293,103.325l0.724,1.142l1.617,-1.76l1.36,1.809l0.083,-0.121c0.07,0.829 0.14,1.653 0.208,2.471l-1.064,-1.169l-1.365,1.531l-1.563,-3.903l-0.603,-0.951l0.121,-0.252l0.482,1.203Zm-0.603,-0.951l-0.692,1.441l-2.032,0.153l-1.381,1.682l-1.131,-1.579l-0.17,1.16c-0.259,-0.883 -0.521,-1.771 -0.783,-2.663l0.486,-0.083l1.25,-1.357l1.49,1.659l1.011,-3.493l1.952,3.08Z" style="fill:#e0e4ce;fill-opacity:0.18;"/><path d="M88.582,111.723l0.724,1.141l1.617,-1.759l0.8,1.064l0.089,1.075c0.036,0.437 0.071,0.871 0.107,1.3l-0.409,-0.449l-1.365,1.531l-1.563,-3.903l-0.603,-0.951l0.121,-0.253l0.482,1.204Zm-0.603,-0.951l-0.692,1.441l-2.032,0.153l-1.381,1.681l-0.09,-0.125c-0.042,-0.152 -0.084,-0.305 -0.127,-0.459c-0.285,-1.026 -0.581,-2.068 -0.883,-3.121l0.752,-0.816l1.49,1.658l1.01,-3.492l1.953,3.08Z" style="fill:#e0e4ce;fill-opacity:0.18;"/><path d="M90.096,120.224l0.432,0.644l1.684,-1.366l0.11,0.121c0.061,0.808 0.118,1.596 0.171,2.361l-1.23,1.027l-1.167,-2.787l-1.059,-1.573l0.245,-0.368l0.814,1.941Zm-1.059,-1.573l-0.631,0.946l-1.97,0.53l-0.773,0.699c-0.248,-0.915 -0.502,-1.859 -0.764,-2.827l1.343,1.211l1.073,-3.121l1.722,2.562Z" style="fill:#e0e4ce;fill-opacity:0.18;"/><path d="M91.563,128.693l0.207,0.294l1.041,-0.654c0.017,0.755 0.021,1.46 0.01,2.109l-0.389,0.252l-0.869,-2.001l-1.435,-2.041l0.368,-0.418l1.067,2.459Zm-1.435,-2.041l-0.554,0.629l-1.879,0.776c-0.071,-0.234 -0.143,-0.473 -0.214,-0.716l0.006,0.005l1.117,-2.859l1.524,2.165Z" style="fill:#e0e4ce;fill-opacity:0.18;"/><path d="M111.115,7.208c1.338,0.191 2.139,16.951 3.153,22.317c2.147,11.359 2.801,15.755 1.675,33.882c-0.808,12.999 -3.118,29.581 -4.977,43.213c-1.958,14.358 -3.499,25.432 -5.638,25.127c-2.184,-0.311 -2.003,-11.757 -2.437,-26.023c-0.395,-12.975 -1.54,-28.211 -0.75,-40.924c0.721,-11.608 2.538,-19.793 3.869,-29.966c1.348,-10.313 2.506,-20.935 4.069,-24.945c0.44,-1.13 0.518,-2.755 1.036,-2.681Z" style="fill:#2a5e2e;"/><path d="M111.115,7.208c1.338,0.191 2.139,16.951 3.153,22.317c2.147,11.359 2.801,15.755 1.675,33.882c-0.808,12.999 -3.118,29.581 -4.977,43.213c-1.958,14.358 -3.499,25.432 -5.638,25.127c-2.184,-0.311 -2.003,-11.757 -2.437,-26.023c-0.395,-12.975 -1.54,-28.211 -0.75,-40.924c0.721,-11.608 2.538,-19.793 3.869,-29.966c1.348,-10.313 2.506,-20.935 4.069,-24.945c0.44,-1.13 0.518,-2.755 1.036,-2.681Z" style="fill:#121212;fill-opacity:0.11;"/><path d="M102.563,59.491l0.375,0.053l0.552,1.681l0.777,-1.491l1.018,-0.481l0.927,-1.091l1.551,1.61l2.243,-3.217l0.879,3.383l1.12,0.9l1.527,1.364l1.188,-0.976l0.9,1.006l0.406,-0.192c-0.027,0.448 -0.055,0.903 -0.083,1.367c-0.104,1.673 -0.233,3.405 -0.383,5.181l-1.316,-2.179l-1.175,1.906l-1.751,-2.244l-2.255,-2.326l-1.584,0.093l-1.313,1.642l-1.363,-1.535l-1.532,2.971l-0.815,-1.612l-0.364,0.333c0.015,-0.279 0.032,-0.558 0.049,-0.837c0.115,-1.849 0.258,-3.611 0.422,-5.309Z" style="fill:#e0e4ce;fill-opacity:0.18;"/><path d="M103.603,50.949l0.416,1.759l0.81,-2.008l0.979,0.139l0.965,-1.711l1.515,2.185l2.279,-3.793l0.844,3.954l1.156,0.33l1.486,2.006l1.228,-1.619l0.856,1.723l0.281,-0.267c-0.036,1.224 -0.087,2.527 -0.153,3.925l-1.341,-2.254l-1.169,1.951l-1.756,-2.311l-2.25,-2.259l-1.585,-0.02l-1.312,1.756l-1.356,-1.783l-1.539,3.219l-0.785,-1.76c0.138,-1.071 0.282,-2.123 0.431,-3.162Z" style="fill:#e0e4ce;fill-opacity:0.18;"/><path d="M105.029,41.634l0.283,-0.702l0.979,0.14l0.965,-1.712l1.515,2.186l2.279,-3.793l0.958,2.12l1.042,2.164l1.486,2.005l1.229,-1.618l0.541,1.09c0.081,1.208 0.134,2.466 0.161,3.817l-1.059,-1.781l-1.17,1.952l-1.755,-2.312l-2.251,-2.258l-1.585,-0.02l-1.311,1.755l-1.357,-1.783l-1.539,3.219l-0.08,-0.179c0.222,-1.425 0.447,-2.849 0.669,-4.29Z" style="fill:#e0e4ce;fill-opacity:0.18;"/><path d="M106.47,31.261l0.304,0.044l0.966,-1.712l1.515,2.185l2.279,-3.792l0.958,2.12l1.041,2.163l1.487,2.006l0.097,-0.128c0.137,0.786 0.264,1.546 0.381,2.292l-0.777,1.295l-1.755,-2.311l-2.251,-2.258l-1.585,-0.02l-1.311,1.755l-1.356,-1.783l-0.316,0.66c0.109,-0.84 0.216,-1.68 0.323,-2.516Z" style="fill:#e0e4ce;fill-opacity:0.18;"/><path d="M107.738,21.572l0.412,-0.571l1.542,1.749l2.252,-3.356l0.985,1.68l0.536,1.376c0.125,1.467 0.252,2.872 0.39,4.114l-0.434,-0.451l-2.222,-2.716l-1.612,0.412l-1.285,1.324l-0.92,-0.955c0.118,-0.888 0.237,-1.758 0.356,-2.606Z" style="fill:#e0e4ce;fill-opacity:0.18;"/><path d="M112.309,10.547c0.204,1.24 0.383,2.886 0.552,4.71l-1.179,-1.627l-1.631,0.715l-1.266,1.02l-0.06,-0.051c0.175,-0.952 0.354,-1.831 0.537,-2.623l0.881,0.812l2.166,-2.956Z" style="fill:#e0e4ce;fill-opacity:0.18;"/><path d="M101.873,73.408l0.073,0.1l0.999,-1.354l1.367,-0.313l1.529,-1.123l1.088,1.985l1.808,-3.72l2.01,6.278l1.996,-1.708l0.92,2.204l1.375,-1.556c-0.204,2.017 -0.428,4.07 -0.665,6.142l-0.881,0.641l-1.047,-1.295l-1.667,0.908l-0.947,-3.692l-1.053,-0.592l-2.072,0.465l-1.722,1.143l-0.776,-1.334l-1.168,2.905l-0.58,-1.685l-0.552,1.1c-0.031,-1.852 -0.045,-3.689 -0.035,-5.499Z" style="fill:#e0e4ce;fill-opacity:0.18;"/><path d="M102.02,83.563l0.239,-0.363l1.343,-0.068l1.552,-1.368l1.072,2.095l1.825,-3.831l1.996,6.344l2.01,-1.774l0.908,2.248l0.733,-0.843c-0.148,1.194 -0.298,2.388 -0.451,3.58l-0.316,0.436l-1.008,-1.938l-1.707,1.55l-0.911,-4.262l-1.089,-0.021l-2.036,-0.111l-1.758,1.718l-0.737,-1.955l-1.207,3.527l-0.334,-1.345c-0.045,-1.206 -0.087,-2.413 -0.124,-3.619Z" style="fill:#e0e4ce;fill-opacity:0.18;"/><path d="M108.878,94.705l0.441,1.4l2.009,-1.774l0.909,2.248l0.109,-0.126c-0.127,0.953 -0.255,1.9 -0.382,2.839l-0.769,-1.478l-1.707,1.55l-0.61,-4.659l-0.367,-1.167l0.179,-0.27l0.188,1.437Zm-0.367,-1.167l-1.023,1.542l-2.036,-0.111l-1.758,1.718l-0.737,-1.954l-0.444,1.296c-0.045,-1.041 -0.091,-2.088 -0.137,-3.14l0.498,-0.025l1.552,-1.368l1.072,2.096l1.824,-3.831l1.189,3.777Z" style="fill:#e0e4ce;fill-opacity:0.18;"/><path d="M108.15,104.437l0.44,1.4l2.01,-1.774l0.534,1.323l-0.168,1.234c-0.069,0.503 -0.137,1.001 -0.204,1.494l-0.295,-0.568l-1.708,1.55l-0.609,-4.659l-0.367,-1.166l0.179,-0.27l0.188,1.436Zm-0.367,-1.166l-1.023,1.542l-2.037,-0.112l-1.757,1.719l-0.059,-0.155c-0.005,-0.179 -0.011,-0.359 -0.016,-0.541c-0.037,-1.206 -0.08,-2.433 -0.127,-3.673l0.933,-0.823l1.073,2.096l1.824,-3.831l1.189,3.778Z" style="fill:#e0e4ce;fill-opacity:0.18;"/><path d="M107.618,114.319l0.272,0.793l1.981,-1.317l0.081,0.153c-0.133,0.928 -0.264,1.832 -0.394,2.709l-1.454,0.996l-0.486,-3.334l-0.667,-1.938l0.328,-0.383l0.339,2.321Zm-0.667,-1.938l-0.847,0.988l-2.063,0.326l-0.928,0.687c-0.026,-1.076 -0.052,-2.186 -0.079,-3.323l1.034,1.566l1.797,-3.4l1.086,3.156Z" style="fill:#e0e4ce;fill-opacity:0.18;"/><path d="M107.048,124.158l0.134,0.363l1.18,-0.598c-0.163,0.862 -0.327,1.664 -0.492,2.401l-0.443,0.232l-0.379,-2.398l-0.927,-2.523l0.462,-0.424l0.465,2.947Zm-0.927,-2.523l-0.694,0.637l-2.033,0.62c-0.015,-0.277 -0.028,-0.558 -0.041,-0.845l0.005,0.006l1.779,-3.095l0.984,2.677Z" style="fill:#e0e4ce;fill-opacity:0.18;"/><path d="M89.678,13.58c-1.335,0.204 -1.875,16.971 -2.805,22.346c-1.97,11.379 -2.556,15.78 -1.148,33.895c1.01,12.991 3.578,29.549 5.649,43.163c2.181,14.337 3.894,25.397 6.028,25.071c2.179,-0.333 1.821,-11.776 2.032,-26.044c0.193,-12.979 1.101,-28.224 0.113,-40.929c-0.902,-11.6 -2.846,-19.767 -4.334,-29.926c-1.509,-10.3 -2.832,-20.91 -4.457,-24.905c-0.458,-1.125 -0.561,-2.75 -1.078,-2.671Z" style="fill:#2a5e2e;"/><path d="M89.678,13.58c-1.335,0.204 -1.875,16.971 -2.805,22.346c-1.97,11.379 -2.556,15.78 -1.148,33.895c1.01,12.991 3.578,29.549 5.649,43.163c2.181,14.337 3.894,25.397 6.028,25.071c2.179,-0.333 1.821,-11.776 2.032,-26.044c0.193,-12.979 1.101,-28.224 0.113,-40.929c-0.902,-11.6 -2.846,-19.767 -4.334,-29.926c-1.509,-10.3 -2.832,-20.91 -4.457,-24.905c-0.458,-1.125 -0.561,-2.75 -1.078,-2.671Z" style="fill:#1b1b1b;fill-opacity:0.13;"/><path d="M99.043,65.777l-0.374,0.057l-0.526,1.687l-0.801,-1.484l-1.024,-0.471l-0.944,-1.082l-1.526,1.624l-2.293,-3.195l-0.827,3.391l-1.106,0.911l-1.505,1.378l-1.203,-0.965l-0.885,1.016l-0.408,-0.189c0.034,0.447 0.068,0.902 0.104,1.366c0.13,1.672 0.286,3.403 0.463,5.177l1.282,-2.191l1.205,1.894l1.716,-2.26l2.219,-2.348l1.585,0.078l1.338,1.63l1.339,-1.549l1.579,2.957l0.789,-1.62l0.369,0.33c-0.019,-0.279 -0.04,-0.558 -0.062,-0.837c-0.143,-1.848 -0.313,-3.609 -0.504,-5.305Z" style="fill:#e0e4ce;fill-opacity:0.18;"/><path d="M97.87,57.246l-0.389,1.763l-0.84,-2.001l-0.977,0.15l-0.992,-1.703l-1.481,2.2l-2.338,-3.771l-0.782,3.962l-1.151,0.341l-1.455,2.019l-1.253,-1.606l-0.829,1.731l-0.285,-0.264c0.055,1.223 0.126,2.525 0.214,3.923l1.306,-2.267l1.199,1.94l1.72,-2.328l2.215,-2.28l1.584,-0.035l1.339,1.743l1.329,-1.796l1.589,3.204l0.757,-1.767c-0.154,-1.07 -0.315,-2.12 -0.48,-3.158Z" style="fill:#e0e4ce;fill-opacity:0.18;"/><path d="M96.299,47.946l-0.294,-0.7l-0.976,0.15l-0.992,-1.703l-1.481,2.2l-2.338,-3.771l-0.925,2.13l-1.008,2.173l-1.455,2.019l-1.253,-1.606l-0.525,1.095c-0.061,1.209 -0.096,2.468 -0.101,3.819l1.031,-1.791l1.2,1.94l1.719,-2.328l2.216,-2.28l1.584,-0.035l1.339,1.743l1.328,-1.796l1.59,3.204l0.077,-0.18c-0.244,-1.423 -0.491,-2.845 -0.736,-4.283Z" style="fill:#e0e4ce;fill-opacity:0.18;"/><path d="M94.697,37.587l-0.304,0.047l-0.991,-1.703l-1.481,2.2l-2.338,-3.771l-0.925,2.13l-1.008,2.173l-1.455,2.019l-0.099,-0.126c-0.125,0.787 -0.24,1.548 -0.345,2.295l0.796,1.288l1.719,-2.328l2.215,-2.28l1.585,-0.035l1.339,1.743l1.328,-1.796l0.326,0.657c-0.122,-0.839 -0.242,-1.678 -0.362,-2.513Z" style="fill:#e0e4ce;fill-opacity:0.18;"/><path d="M93.279,27.911l-0.421,-0.567l-1.515,1.763l-2.304,-3.334l-0.959,1.69l-0.515,1.38c-0.101,1.469 -0.207,2.875 -0.325,4.118l0.427,-0.455l2.179,-2.737l1.618,0.396l1.306,1.312l0.905,-0.964c-0.132,-0.886 -0.264,-1.755 -0.396,-2.602Z" style="fill:#e0e4ce;fill-opacity:0.18;"/><path d="M88.536,16.931c-0.184,1.241 -0.338,2.889 -0.478,4.714l1.153,-1.638l1.642,0.7l1.281,1.008l0.06,-0.052c-0.19,-0.95 -0.382,-1.828 -0.578,-2.618l-0.868,0.821l-2.212,-2.935Z" style="fill:#e0e4ce;fill-opacity:0.18;"/><path d="M99.95,79.687l-0.072,0.1l-1.02,-1.344l-1.372,-0.299l-1.546,-1.109l-1.057,1.995l-1.866,-3.702l-1.912,6.297l-2.023,-1.69l-0.885,2.214l-1.399,-1.543c0.235,2.014 0.491,4.066 0.76,6.135l0.891,0.633l1.027,-1.305l1.681,0.891l0.889,-3.701l1.044,-0.601l2.079,0.445l1.74,1.126l0.755,-1.341l1.214,2.894l0.553,-1.691l0.569,1.095c0.002,-1.852 -0.012,-3.689 -0.05,-5.499Z" style="fill:#e0e4ce;fill-opacity:0.18;"/><path d="M99.96,89.843l-0.244,-0.361l-1.344,-0.056l-1.574,-1.353l-1.039,2.106l-1.884,-3.813l-1.898,6.363l-2.036,-1.755l-0.874,2.256l-0.746,-0.835c0.166,1.191 0.335,2.384 0.507,3.574l0.323,0.433l0.977,-1.947l1.731,1.534l0.845,-4.271l1.088,-0.032l2.035,-0.13l1.784,1.701l0.707,-1.962l1.261,3.515l0.314,-1.348c0.026,-1.206 0.049,-2.414 0.067,-3.619Z" style="fill:#e0e4ce;fill-opacity:0.18;"/><path d="M93.276,101.049l-0.419,1.404l-2.037,-1.755l-0.873,2.257l-0.112,-0.125c0.143,0.952 0.285,1.898 0.427,2.836l0.746,-1.486l1.731,1.533l0.537,-4.664l0.349,-1.17l-0.184,-0.268l-0.165,1.438Zm0.349,-1.17l1.047,1.532l2.034,-0.13l1.785,1.701l0.707,-1.962l0.463,1.292c0.03,-1.041 0.059,-2.088 0.088,-3.141l-0.497,-0.02l-1.574,-1.353l-1.039,2.106l-1.884,-3.813l-1.13,3.788Z" style="fill:#e0e4ce;fill-opacity:0.18;"/><path d="M94.156,110.774l-0.419,1.404l-2.037,-1.755l-0.514,1.328l0.188,1.233c0.076,0.502 0.152,1 0.227,1.491l0.287,-0.57l1.731,1.533l0.537,-4.664l0.349,-1.17l-0.184,-0.268l-0.165,1.438Zm0.349,-1.17l1.047,1.532l2.034,-0.131l1.785,1.702l0.056,-0.156c0.002,-0.178 0.005,-0.359 0.007,-0.54c0.018,-1.207 0.042,-2.434 0.071,-3.674l-0.947,-0.814l-1.04,2.105l-1.883,-3.813l-1.13,3.789Z" style="fill:#e0e4ce;fill-opacity:0.18;"/><path d="M94.841,120.65l-0.26,0.795l-2.001,-1.297l-0.078,0.153c0.147,0.927 0.292,1.829 0.436,2.705l1.469,0.982l0.434,-3.338l0.637,-1.945l-0.334,-0.38l-0.303,2.325Zm0.637,-1.945l0.862,0.98l2.069,0.307l0.938,0.677c0.009,-1.076 0.018,-2.185 0.027,-3.323l-1.009,1.576l-1.85,-3.382l-1.037,3.165Z" style="fill:#e0e4ce;fill-opacity:0.18;"/><path d="M95.564,130.482l-0.128,0.365l-1.189,-0.586c0.177,0.859 0.353,1.66 0.529,2.395l0.447,0.228l0.341,-2.402l0.888,-2.531l-0.469,-0.419l-0.419,2.95Zm0.888,-2.531l0.704,0.63l2.043,0.6c0.01,-0.276 0.019,-0.558 0.027,-0.845l-0.005,0.007l-1.827,-3.078l-0.942,2.686Z" style="fill:#e0e4ce;fill-opacity:0.18;"/><path d="M100.264,22.412c-1.392,-0.112 -2.92,15.749 -4.194,20.66c-2.695,10.396 -3.555,14.458 -3.147,32.052c0.293,12.618 1.99,28.995 3.344,42.451c0.861,8.552 1.614,15.927 2.566,20.47c0.021,0.1 0.061,0.284 0.061,0.284l2.022,-0.023l2.089,-0.106c0,0 0.072,-0.445 0.101,-0.655c0.609,-4.467 0.959,-11.342 1.552,-19.045c0.95,-12.33 2.771,-26.656 2.485,-38.996c-0.262,-11.267 -1.8,-19.5 -2.751,-29.529c-0.964,-10.166 -1.718,-20.586 -3.168,-24.769c-0.408,-1.178 -0.421,-2.75 -0.96,-2.794Z" style="fill:#2a5e2e;"/><path d="M106.928,74.33l-0.39,-0.031l-0.641,1.487l-0.742,-1.599l-1.033,-0.685l-0.913,-1.249l-1.672,1.199l-2.186,-3.574l-1.051,3.043l-1.197,0.614l-1.635,0.968l-1.189,-1.196l-0.973,0.765l-0.412,-0.274c0.009,0.434 0.019,0.876 0.029,1.326c0.038,1.624 0.099,3.31 0.179,5.042l1.453,-1.794l1.137,2.083l1.904,-1.76l2.431,-1.728l1.633,0.438l1.291,1.862l1.474,-1.169l1.461,3.182l0.91,-1.363l0.363,0.399c-0.005,-0.27 -0.01,-0.542 -0.016,-0.812c-0.042,-1.795 -0.116,-3.513 -0.215,-5.174Z" style="fill:#e0e4ce;fill-opacity:0.18;"/><path d="M106.209,65.927l-0.504,1.591l-0.754,-2.1l-1.018,-0.082l-0.927,-1.852l-1.659,1.757l-2.199,-4.132l-1.039,3.597l-1.209,0.06l-1.621,1.592l-1.204,-1.82l-0.957,1.459l-0.279,-0.317c-0.014,1.179 -0.016,2.437 -0.006,3.79l1.481,-1.862l1.129,2.126l1.912,-1.824l2.423,-1.665l1.64,0.331l1.284,1.969l1.477,-1.406l1.458,3.42l0.886,-1.511c-0.098,-1.055 -0.203,-2.094 -0.314,-3.121Z" style="fill:#e0e4ce;fill-opacity:0.18;"/><path d="M105.123,56.699l-0.264,-0.735l-1.018,-0.082l-0.928,-1.851l-1.658,1.757l-2.199,-4.132l-1.08,1.817l-1.168,1.84l-1.622,1.591l-1.203,-1.819l-0.605,0.923c-0.134,1.139 -0.242,2.331 -0.326,3.617l1.17,-1.47l1.129,2.126l1.912,-1.825l2.423,-1.664l1.64,0.331l1.284,1.969l1.477,-1.407l1.458,3.42l0.09,-0.153c-0.17,-1.413 -0.343,-2.825 -0.512,-4.253Z" style="fill:#e0e4ce;fill-opacity:0.18;"/><path d="M104.065,46.455l-0.317,-0.026l-0.927,-1.851l-1.658,1.757l-2.2,-4.133l-1.079,1.818l-1.168,1.84l-1.622,1.591l-0.095,-0.144c-0.174,0.722 -0.337,1.422 -0.49,2.109l0.749,1.412l1.913,-1.825l2.422,-1.664l1.641,0.331l1.284,1.969l1.477,-1.407l0.299,0.701c-0.077,-0.827 -0.153,-1.655 -0.229,-2.478Z" style="fill:#e0e4ce;fill-opacity:0.18;"/><path d="M103.158,36.903l-0.402,-0.637l-1.669,1.332l-2.189,-3.708l-1.09,1.39l-0.612,1.199c-0.19,1.376 -0.38,2.693 -0.574,3.851l0.467,-0.336l2.412,-2.108l1.651,0.749l1.273,1.551l0.992,-0.711c-0.085,-0.876 -0.171,-1.734 -0.259,-2.572Z" style="fill:#e0e4ce;fill-opacity:0.18;"/><path d="M98.89,25.344c-0.263,1.141 -0.518,2.677 -0.768,4.385l1.287,-1.297l1.657,1.045l1.267,1.255l0.065,-0.035c-0.141,-0.95 -0.289,-1.831 -0.446,-2.629l-0.945,0.583l-2.117,-3.307Z" style="fill:#e0e4ce;fill-opacity:0.18;"/><path d="M107.061,87.8l-0.08,0.08l-0.977,-1.516l-1.401,-0.601l-1.534,-1.413l-1.209,1.66l-1.715,-3.96l-2.342,5.565l-1.993,-2.076l-1.044,1.907l-1.357,-1.793c0.126,1.975 0.272,3.989 0.431,6.024l0.884,0.808l1.138,-1.008l1.687,1.237l1.133,-3.324l1.114,-0.334l2.124,0.902l1.734,1.474l0.859,-1.105l1.087,3.038l0.67,-1.485l0.525,1.174c0.11,-1.764 0.201,-3.519 0.266,-5.254Z" style="fill:#e0e4ce;fill-opacity:0.18;"/><path d="M106.484,97.485l-0.231,-0.4l-1.387,-0.362l-1.549,-1.651l-1.196,1.768l-1.728,-4.068l-2.33,5.63l-2.005,-2.142l-1.033,1.951l-0.723,-0.968c0.103,1.174 0.209,2.35 0.317,3.524l0.309,0.487l1.123,-1.631l1.701,1.86l1.121,-3.878l1.127,0.22l2.111,0.344l1.747,2.032l0.844,-1.708l1.102,3.641l0.402,-1.213c0.097,-1.144 0.19,-2.29 0.278,-3.436Z" style="fill:#e0e4ce;fill-opacity:0.18;"/><path d="M98.924,106.633l-0.514,1.243l-2.004,-2.142l-1.034,1.951l-0.108,-0.145c0.092,0.94 0.184,1.875 0.277,2.802l0.857,-1.245l1.701,1.86l0.825,-4.324l0.429,-1.035l-0.174,-0.298l-0.255,1.333Zm0.429,-1.035l0.994,1.701l2.111,0.343l1.747,2.033l0.844,-1.708l0.405,1.338c0.091,-0.985 0.182,-1.977 0.273,-2.974l-0.514,-0.134l-1.548,-1.651l-1.197,1.768l-1.727,-4.068l-1.388,3.352Z" style="fill:#e0e4ce;fill-opacity:0.18;"/><path d="M99.272,116.107l-0.515,1.242l-2.004,-2.141l-0.608,1.148l0.122,1.219c0.05,0.496 0.1,0.988 0.149,1.474l0.329,-0.478l1.702,1.86l0.825,-4.324l0.428,-1.035l-0.174,-0.298l-0.254,1.333Zm0.428,-1.035l0.994,1.701l2.111,0.343l1.747,2.033l0.067,-0.136c0.013,-0.169 0.026,-0.341 0.039,-0.513c0.089,-1.147 0.185,-2.311 0.286,-3.487l-0.932,-0.994l-1.197,1.769l-1.727,-4.069l-1.388,3.353Z" style="fill:#e0e4ce;fill-opacity:0.18;"/><path d="M99.409,125.681l-0.315,0.698l-1.994,-1.697l-0.089,0.128c0.098,0.917 0.195,1.811 0.294,2.68l1.462,1.273l0.642,-3.082l0.771,-1.708l-0.323,-0.439l-0.448,2.147Zm0.771,-1.708l0.835,1.133l2.121,0.767l0.931,0.862c0.072,-1.024 0.145,-2.08 0.221,-3.162l-1.135,1.27l-1.718,-3.65l-1.255,2.78Z" style="fill:#e0e4ce;fill-opacity:0.18;"/><path d="M99.588,135.221l-0.154,0.319l-1.195,-0.833c0.133,0.86 0.269,1.664 0.409,2.406l0.448,0.319l0.492,-2.211l1.064,-2.209l-0.46,-0.508l-0.604,2.717Zm1.064,-2.209l0.692,0.763l2.078,1.041c0.026,-0.261 0.051,-0.528 0.077,-0.799l-0.006,0.005l-1.711,-3.355l-1.13,2.345Z" style="fill:#e0e4ce;fill-opacity:0.18;"/><path d="M128.549,28.539c-1.359,0 -5.607,14.211 -7.715,18.669c-4.463,9.436 -6.015,13.109 -8.643,28.721c-1.884,11.197 -3.025,25.634 -4.003,37.499c-1.029,12.496 -1.793,22.138 0.381,22.138c2.22,0 4.403,-9.793 7.774,-21.919c3.066,-11.029 7.339,-23.897 9.182,-34.846c1.683,-9.999 1.578,-17.207 2.364,-26.055c0.797,-8.968 1.846,-18.178 1.13,-21.792c-0.201,-1.018 0.057,-2.415 -0.47,-2.415Z" style="fill:#2a5e2e;"/><path d="M126.204,74.216l-0.38,0l-0.893,1.368l-0.459,-1.368l-0.905,-0.534l-0.69,-1.045l-1.862,1.186l-1.551,-3.02l-1.566,2.781l-1.291,0.632l-1.788,0.978l-0.971,-0.978l-1.096,0.75l-0.361,-0.214c-0.066,0.386 -0.132,0.777 -0.2,1.177c-0.242,1.441 -0.472,2.936 -0.691,4.47l1.748,-1.699l0.767,1.77l2.191,-1.702l2.706,-1.712l1.543,0.273l0.958,1.562l1.662,-1.145l0.899,2.724l1.137,-1.278l0.29,0.329c0.043,-0.24 0.084,-0.481 0.124,-0.72c0.269,-1.593 0.491,-3.115 0.679,-4.585Z" style="fill:#e0e4ce;fill-opacity:0.18;"/><path d="M126.94,66.797l-0.774,1.451l-0.384,-1.813l-0.995,0l-0.6,-1.579l-1.946,1.681l-1.467,-3.515l-1.649,3.272l-1.208,0.141l-1.881,1.531l-0.879,-1.531l-1.199,1.366l-0.223,-0.262c-0.216,1.049 -0.435,2.168 -0.659,3.37l1.789,-1.762l0.752,1.809l2.209,-1.76l2.687,-1.653l1.569,0.176l0.932,1.658l1.706,-1.357l0.855,2.936l1.138,-1.407c0.085,-0.931 0.16,-1.846 0.227,-2.752Z" style="fill:#e0e4ce;fill-opacity:0.18;"/><path d="M127.454,58.671l-0.134,-0.634l-0.995,0.001l-0.6,-1.579l-1.946,1.681l-1.467,-3.516l-1.383,1.694l-1.474,1.719l-1.881,1.532l-0.879,-1.532l-0.759,0.865c-0.328,1.022 -0.641,2.089 -0.946,3.239l1.413,-1.391l0.752,1.809l2.209,-1.76l2.687,-1.654l1.569,0.176l0.932,1.659l1.706,-1.357l0.855,2.936l0.116,-0.144c0.075,-1.244 0.147,-2.487 0.225,-3.744Z" style="fill:#e0e4ce;fill-opacity:0.18;"/><path d="M128.172,49.64l-0.309,0l-0.6,-1.579l-1.946,1.681l-1.467,-3.515l-1.383,1.693l-1.474,1.72l-1.881,1.531l-0.069,-0.121c-0.298,0.654 -0.58,1.288 -0.849,1.91l0.499,1.201l2.209,-1.76l2.687,-1.653l1.569,0.176l0.932,1.658l1.706,-1.357l0.176,0.602c0.066,-0.73 0.133,-1.46 0.2,-2.187Z" style="fill:#e0e4ce;fill-opacity:0.18;"/><path d="M128.92,41.214l-0.289,-0.538l-1.883,1.305l-1.53,-3.139l-1.319,1.314l-0.813,1.109c-0.426,1.237 -0.842,2.422 -1.233,3.465l0.521,-0.332l2.753,-2.048l1.506,0.548l0.995,1.287l1.105,-0.703c0.066,-0.773 0.129,-1.53 0.187,-2.268Z" style="fill:#e0e4ce;fill-opacity:0.18;"/><path d="M126.683,31.245c-0.458,1.033 -0.975,2.417 -1.517,3.953l1.499,-1.245l1.462,0.809l1.039,1.025l0.07,-0.036c0.024,-0.834 0.029,-1.606 0.011,-2.305l-1.037,0.586l-1.527,-2.787Z" style="fill:#e0e4ce;fill-opacity:0.18;"/><path d="M124.015,86.182l-0.093,0.076l-0.707,-1.277l-1.285,-0.434l-1.277,-1.145l-1.483,1.562l-1.017,-3.397l-3.279,5.116l-1.618,-1.702l-1.363,1.77l-1.036,-1.496c-0.214,1.746 -0.417,3.527 -0.611,5.324l0.737,0.655l1.301,-0.978l1.459,0.978l1.696,-3.037l1.161,-0.376l1.949,0.649l1.464,1.185l1.041,-1.044l0.554,2.623l0.92,-1.368l0.317,1.006c0.413,-1.577 0.806,-3.143 1.17,-4.69Z" style="fill:#e0e4ce;fill-opacity:0.18;"/><path d="M121.774,94.833l-0.16,-0.339l-1.312,-0.222l-1.25,-1.357l-1.491,1.659l-1.01,-3.493l-3.279,5.173l-1.617,-1.76l-1.361,1.809l-0.549,-0.809c-0.1,1.037 -0.198,2.074 -0.294,3.111l0.223,0.41l1.394,-1.531l1.365,1.531l1.779,-3.527l1.078,0.114l2.033,0.153l1.38,1.682l1.131,-1.58l0.464,3.158l0.608,-1.107c0.293,-1.024 0.583,-2.05 0.868,-3.075Z" style="fill:#e0e4ce;fill-opacity:0.18;"/><path d="M112.707,103.51l-0.724,1.141l-1.617,-1.759l-1.36,1.808l-0.083,-0.12c-0.07,0.829 -0.14,1.653 -0.208,2.47l1.064,-1.168l1.365,1.531l1.563,-3.903l0.603,-0.951l-0.121,-0.253l-0.482,1.204Zm0.603,-0.951l0.692,1.441l2.032,0.153l1.381,1.681l1.131,-1.579l0.17,1.161c0.259,-0.883 0.521,-1.771 0.783,-2.664l-0.486,-0.082l-1.25,-1.357l-1.49,1.658l-1.011,-3.492l-1.952,3.08Z" style="fill:#e0e4ce;fill-opacity:0.18;"/><path d="M111.418,111.907l-0.724,1.142l-1.617,-1.76l-0.8,1.064l-0.089,1.075c-0.036,0.437 -0.071,0.871 -0.107,1.3l0.409,-0.449l1.365,1.531l1.563,-3.903l0.603,-0.951l-0.121,-0.252l-0.482,1.203Zm0.603,-0.951l0.692,1.441l2.032,0.153l1.381,1.682l0.09,-0.126c0.042,-0.151 0.084,-0.305 0.127,-0.459c0.285,-1.026 0.581,-2.067 0.883,-3.12l-0.752,-0.817l-1.49,1.659l-1.01,-3.493l-1.953,3.08Z" style="fill:#e0e4ce;fill-opacity:0.18;"/><path d="M109.904,120.409l-0.432,0.643l-1.684,-1.365l-0.11,0.12c-0.061,0.809 -0.118,1.596 -0.171,2.361l1.23,1.027l1.167,-2.786l1.059,-1.574l-0.245,-0.367l-0.814,1.941Zm1.059,-1.574l0.631,0.947l1.97,0.53l0.773,0.699c0.248,-0.916 0.502,-1.859 0.764,-2.827l-1.343,1.211l-1.073,-3.121l-1.722,2.561Z" style="fill:#e0e4ce;fill-opacity:0.18;"/><path d="M108.437,128.877l-0.207,0.295l-1.041,-0.655c-0.017,0.756 -0.021,1.46 -0.01,2.11l0.389,0.251l0.869,-2.001l1.435,-2.04l-0.368,-0.418l-1.067,2.458Zm1.435,-2.04l0.554,0.628l1.879,0.777c0.071,-0.234 0.143,-0.473 0.214,-0.717l-0.006,0.005l-1.117,-2.859l-1.524,2.166Z" style="fill:#e0e4ce;fill-opacity:0.18;"/></svg>