<?xml version="1.0" encoding="UTF-8" standalone="no"?><!DOCTYPE svg PUBLIC "-//W3C//DTD SVG 1.1//EN" "http://www.w3.org/Graphics/SVG/1.1/DTD/svg11.dtd"><svg width="100%" height="100%" viewBox="0 0 200 200" version="1.1" xmlns="http://www.w3.org/2000/svg" xmlns:xlink="http://www.w3.org/1999/xlink" xml:space="preserve" xmlns:serif="http://www.serif.com/" style="fill-rule:evenodd;clip-rule:evenodd;stroke-linejoin:round;stroke-miterlimit:2;"><path d="M147.93,85.212l-95.86,-55.345l-0,84.921l95.86,55.345l0,-84.921Z" style="fill:#014364;"/><path d="M147.93,111.797l-95.86,-55.345l-0,58.336l95.86,55.345l0,-58.336Z" style="fill:#060400;fill-opacity:0.16;"/><path d="M147.93,130.882l-95.86,-55.345l-0,39.251l95.86,55.345l0,-39.251Z" style="fill:#060400;fill-opacity:0.16;"/><path d="M147.93,151.797l-95.86,-55.345l-0,18.336l95.86,55.345l0,-18.336Z" style="fill:#060400;fill-opacity:0.16;"/><path d="M68.782,80.075c0.739,-0.935 1.618,-1.807 2.641,-2.604c10.375,-8.083 31.604,-5.415 47.376,5.954c14.239,10.264 19.194,24.133 12.389,32.68l-11.993,-6.923c4.199,-5.262 1.149,-13.806 -7.621,-20.128c-9.71,-7 -22.78,-8.642 -29.168,-3.666c-0.632,0.493 -1.176,1.032 -1.632,1.611l-11.992,-6.924Z" style="fill:#2d6777;fill-opacity:0.95;"/><path d="M131.215,116.071c-0.739,0.934 -1.617,1.804 -2.637,2.599c-10.376,8.083 -31.604,5.415 -47.376,-5.954c-14.236,-10.262 -19.193,-24.127 -12.393,-32.675l11.992,6.924c-4.192,5.262 -1.142,13.802 7.626,20.122c9.71,7 22.78,8.643 29.167,3.666c0.631,-0.491 1.173,-1.029 1.629,-1.606l11.992,6.924Z" style="fill:#2d6777;fill-opacity:0.95;"/><path d="M78.148,84.293l-4.148,-2.391c0.616,-0.784 1.348,-1.514 2.2,-2.183c8.641,-6.779 26.321,-4.589 39.457,4.887c11.858,8.555 15.986,20.143 10.318,27.304l-4.144,-2.396c4.764,-6.019 1.295,-15.758 -8.672,-22.948c-11.04,-7.965 -25.9,-9.805 -33.162,-4.107c-0.716,0.561 -1.332,1.175 -1.849,1.834Z" style="fill:#202020;fill-opacity:0.16;"/><path d="M76.055,83.087l-4.545,-2.62c0.675,-0.859 1.478,-1.659 2.411,-2.392c9.468,-7.428 28.841,-5.029 43.235,5.355c12.994,9.374 17.516,22.071 11.306,29.918l-4.541,-2.626c5.22,-6.595 1.419,-17.266 -9.502,-25.145c-12.097,-8.727 -28.38,-10.744 -36.338,-4.5c-0.784,0.615 -1.459,1.288 -2.026,2.01Z" style="fill:#202020;fill-opacity:0.16;"/><path d="M87.289,106.23c-3.901,-6.285 -6.357,-13.562 -6.357,-20.078c-0,-12.153 8.544,-17.086 19.068,-11.009c10.525,6.076 19.069,20.875 19.069,33.028c0,0.408 -0.01,0.808 -0.029,1.199c-0.416,0.494 -0.897,0.956 -1.446,1.383c-6.387,4.977 -19.457,3.334 -29.167,-3.666c-0.391,-0.281 -0.769,-0.566 -1.138,-0.857Z" style="fill:#1f7c84;"/><path d="M109.293,83.298c5.831,7.135 9.776,16.615 9.776,24.873c0,0.408 -0.01,0.808 -0.029,1.199c-0.416,0.494 -0.897,0.956 -1.446,1.383c-6.387,4.977 -19.457,3.334 -29.167,-3.666c-0.391,-0.281 -0.769,-0.566 -1.138,-0.857c-3.901,-6.285 -6.357,-13.562 -6.357,-20.078c-0,-1.649 0.157,-3.165 0.455,-4.538c2.301,2.264 4.774,4.201 7.349,5.687c9.236,5.333 17.168,3.365 20.557,-4.003Z" style="fill:#202020;fill-opacity:0.16;"/><path d="M71.535,80.435l4.541,2.625c-5.215,6.595 -1.414,17.265 9.506,25.142c12.097,8.727 28.379,10.744 36.337,4.5c0.783,-0.614 1.457,-1.286 2.023,-2.006l4.545,2.621c-0.674,0.857 -1.475,1.656 -2.407,2.387c-9.469,7.428 -28.842,5.029 -43.235,-5.355c-12.992,-9.372 -17.515,-22.067 -11.31,-29.914Z" style="fill:#202020;fill-opacity:0.16;"/><path d="M74.023,81.873l4.144,2.396c-4.76,6.019 -1.29,15.755 8.675,22.944c11.04,7.965 25.899,9.805 33.162,4.107c0.715,-0.56 1.329,-1.173 1.846,-1.831l4.148,2.392c-0.616,0.782 -1.347,1.511 -2.197,2.179c-8.641,6.779 -26.321,4.589 -39.457,-4.887c-11.857,-8.554 -15.984,-20.139 -10.321,-27.3Z" style="fill:#202020;fill-opacity:0.16;"/><path d="M117.654,99.022c0.912,3.096 1.415,6.2 1.415,9.149c0,0.408 -0.01,0.808 -0.029,1.199c-0.416,0.494 -0.897,0.956 -1.446,1.383c-6.387,4.977 -19.457,3.334 -29.167,-3.666c-0.391,-0.281 -0.769,-0.566 -1.138,-0.857c-1.727,-2.783 -3.171,-5.76 -4.244,-8.78c3.004,3.112 6.277,5.76 9.703,7.737c11.543,6.665 21.361,3.734 24.906,-6.165Z" style="fill:#202020;fill-opacity:0.16;"/><path d="M67.572,51.8l0.72,0.681l-0.193,0.883l0.372,1.107l-0.645,0.142l-0.192,0.883l-0.72,-0.681l-0.645,0.142l-0.372,-1.107l-0.72,-0.681l0.193,-0.883l-0.372,-1.107l0.645,-0.142l0.193,-0.883l0.719,0.681l0.645,-0.142l0.372,1.107Z" style="fill:#afafaf;fill-opacity:0.27;"/><path d="M59.89,109.385l0.876,0.83l-0.234,1.076l0.453,1.347l-0.785,0.174l-0.235,1.075l-0.876,-0.83l-0.786,0.173l-0.453,-1.347l-0.876,-0.831l0.234,-1.075l-0.453,-1.348l0.785,-0.173l0.235,-1.075l0.876,0.83l0.786,-0.173l0.453,1.347Z" style="fill:#afafaf;fill-opacity:0.27;"/><path d="M142.882,130.915l0.587,0.56l-0.157,0.732l0.304,0.914l-0.526,0.122l-0.158,0.733l-0.587,-0.56l-0.526,0.123l-0.304,-0.914l-0.587,-0.559l0.157,-0.733l-0.304,-0.914l0.527,-0.122l0.157,-0.733l0.587,0.56l0.526,-0.123l0.304,0.914Z" style="fill:#afafaf;fill-opacity:0.27;"/></svg>