<?xml version="1.0" encoding="UTF-8" standalone="no"?><!DOCTYPE svg PUBLIC "-//W3C//DTD SVG 1.1//EN" "http://www.w3.org/Graphics/SVG/1.1/DTD/svg11.dtd"><svg width="100%" height="100%" viewBox="0 0 200 200" version="1.1" xmlns="http://www.w3.org/2000/svg" xmlns:xlink="http://www.w3.org/1999/xlink" xml:space="preserve" xmlns:serif="http://www.serif.com/" style="fill-rule:evenodd;clip-rule:evenodd;stroke-linecap:round;stroke-linejoin:round;stroke-miterlimit:1.5;"><path d="M148.648,84.991l-97.296,-56.174l-0,86.192l97.296,56.174l0,-86.192Z" style="fill:#014364;"/><path d="M148.648,111.974l-97.296,-56.174l-0,59.209l97.296,56.174l0,-59.209Z" style="fill:#060400;fill-opacity:0.16;"/><path d="M148.648,131.345l-97.296,-56.174l-0,39.838l97.296,56.174l0,-39.838Z" style="fill:#060400;fill-opacity:0.16;"/><path d="M148.648,152.573l-97.296,-56.174l-0,18.61l97.296,56.174l0,-18.61Z" style="fill:#060400;fill-opacity:0.16;"/><path d="M82.297,83.565c0.947,-0.266 2.094,-0.41 3.461,-0.419c1.728,-0.011 3.377,-0.095 5.373,0.469c12.946,3.661 21.871,10.002 25.737,17.492c1.256,2.435 2.145,4.752 3.294,7.077c0.328,0.664 0.633,1.305 0.914,1.922c1.096,2.206 3.098,6.257 3.605,6.434c1.002,0.35 2.73,1.99 3.563,2.687c1.581,1.324 2.983,2.455 4.262,3.145c1.28,0.692 2.102,2.452 2.719,3.59c1.702,3.14 -1.725,2.512 -3.22,3.568c-0.757,0.535 0.863,2.251 0.129,4.336c-0.865,2.456 -5.168,0.2 -5.321,1.956c-0.065,0.741 -0.28,1.046 0.304,2.892c0.584,1.847 1.967,5.236 3.169,7.247c1.324,2.216 1.82,2.593 -0.471,3.5c-4.892,1.935 -5.89,2.24 -9.183,-2.073c-3.11,-4.074 -7.911,-1.96 -12.148,-7.418c-2.125,-2.737 -6.173,-7.097 -9.62,-9.327c-2.989,-1.935 -12.556,0.493 -15.768,-4.122c-5.21,-7.488 -4.392,0.72 -11.545,-8.665c-0.4,-0.525 -0.391,-2.407 -0.249,-2.662c0.287,-0.512 1.008,-0.768 1.41,-1.494c1.355,-2.448 1.711,-3.822 1.861,-5.015c0.293,-0.1 -0.337,0.13 -0.832,-0.113c-1.495,-0.737 -4.125,-0.411 -5.979,-3.251c-1.066,-1.633 -1.676,-2.479 -2.811,-3.495c-0.711,-0.637 -2.097,-1.965 -2.772,-2.889c-0.712,-0.976 -1.251,-1.938 -1.321,-2.204c-0.248,-0.948 0.104,-1.387 1.179,-1.401c0.91,-0.012 2.339,0.281 4.362,0.827c6.797,1.836 8.95,1.464 9.672,-0.401c0.743,-1.917 2.733,-5.125 2.733,-5.125c0,-0 -0.75,-0.528 -1.131,-1.457c-2.026,-4.941 -4.334,-11.31 -2.267,-10.62c3.735,1.247 3.88,2.922 6.891,5.009Z" style="fill:#492e17;"/><path d="M125.586,118.355c-0.257,-0.44 1.832,2.031 3.817,3.854c1.741,1.598 4.062,2.302 4.244,2.306c0.688,0.018 0.252,-0.601 -0.38,-1.245c-0.238,-0.242 -0.528,-0.841 -0.761,-0.898c0,0 0.602,0.359 1.228,1.146c0.588,0.74 1.192,1.893 1.491,2.444c1.2,2.215 -0.887,2.622 -2.226,2.94c-0.559,0.133 -0.994,0.628 -0.994,0.628c0,0 -0.213,-2.233 -1.687,-4.976c-0.588,-1.094 -4.564,-5.911 -4.732,-6.199Z" style="fill:#110f0d;fill-opacity:0.1;"/><path d="M74.608,111.343c-0.027,0.934 -0.271,0.806 2.31,3.929c2.119,2.565 5.319,4.341 6.178,4.432c2.125,0.223 4.139,-0.354 6.007,0.922c1.687,1.153 3.254,4.217 4.678,3.616c0.672,-0.283 1.974,-11.601 2.493,-11.297c2.022,1.183 0.569,4.509 0.886,6.961c0.444,3.429 0.619,4.337 0.542,6.359c-0.032,0.856 1.803,4.538 1.162,4.378c-1.052,-0.262 -2.714,-0.826 -4.933,-0.952c-3.857,-0.218 -8.796,-0.241 -10.835,-3.17c-5.21,-7.488 -4.392,0.72 -11.545,-8.665c-0.4,-0.525 -0.391,-2.407 -0.249,-2.662c0.287,-0.512 1.008,-0.768 1.41,-1.494c1.355,-2.448 1.711,-3.822 1.861,-5.015c0.293,-0.1 0.086,0.884 0.035,2.658Z" style="fill:#110f0d;fill-opacity:0.1;"/><path d="M74.608,111.343c-0.027,0.934 -0.271,0.806 2.31,3.929c2.119,2.565 5.319,4.341 6.178,4.432c2.125,0.223 4.139,-0.354 6.007,0.922c1.687,1.153 3.254,4.217 4.678,3.616c0.672,-0.283 1.974,-11.601 2.493,-11.297c2.022,1.183 0.569,4.509 0.886,6.961c0.444,3.429 0.619,4.337 0.542,6.359c-0.032,0.856 1.803,4.538 1.162,4.378c-1.052,-0.262 -2.714,-0.826 -4.933,-0.952c-3.857,-0.218 -8.796,-0.241 -10.835,-3.17c-5.21,-7.488 -4.392,0.72 -11.545,-8.665c-0.4,-0.525 -0.391,-2.407 -0.249,-2.662c0.287,-0.512 1.008,-0.768 1.41,-1.494c1.355,-2.448 1.711,-3.822 1.861,-5.015c0.293,-0.1 0.086,0.884 0.035,2.658Z" style="fill:#110f0d;fill-opacity:0.1;"/><path d="M98.864,130.643c-1.598,-1.034 5.232,4.73 12.026,6.124c1.9,0.39 3.674,-0.956 5.41,-1.191c1.747,-0.237 8.14,8.673 8.556,5.345c0.458,-3.666 -5.126,-19.538 -4.485,-18.297c0.723,1.402 3.715,7.81 4.545,10.292c0.611,1.827 1.962,2.162 1.897,2.906c-0.065,0.741 -0.28,1.046 0.304,2.892c0.584,1.847 1.967,5.236 3.169,7.247c1.324,2.216 1.82,2.593 -0.471,3.5c-4.892,1.935 -5.89,2.24 -9.183,-2.073c-3.11,-4.074 -7.911,-1.96 -12.148,-7.418c-2.125,-2.737 -6.173,-7.097 -9.62,-9.327Z" style="fill:#110f0d;fill-opacity:0.1;"/><path d="M98.864,130.643c-1.598,-1.034 5.232,4.73 12.026,6.124c1.9,0.39 3.674,-0.956 5.41,-1.191c1.747,-0.237 8.14,8.673 8.556,5.345c0.458,-3.666 -5.126,-19.538 -4.485,-18.297c0.723,1.402 3.715,7.81 4.545,10.292c0.611,1.827 1.962,2.162 1.897,2.906c-0.065,0.741 -0.28,1.046 0.304,2.892c0.584,1.847 1.967,5.236 3.169,7.247c1.324,2.216 1.82,2.593 -0.471,3.5c-4.892,1.935 -5.89,2.24 -9.183,-2.073c-3.11,-4.074 -7.911,-1.96 -12.148,-7.418c-2.125,-2.737 -6.173,-7.097 -9.62,-9.327Z" style="fill:#110f0d;fill-opacity:0.1;"/><path d="M86.453,83.997c1.652,-0.01 3.229,-0.091 5.138,0.449c12.381,3.501 20.916,9.565 24.613,16.728c1.202,2.328 2.052,4.544 3.151,6.768c4.833,9.785 4.343,14.167 -3.151,13.066c-5.318,-0.781 -9.312,-2.885 -14.876,-5.577c-6.279,-3.039 -11.812,-7.059 -14.875,-11.6c-6.954,-10.31 -11.123,-19.763 -0,-19.834Z" style="fill:#110f0d;fill-opacity:0.1;"/><path d="M102.936,129.196c-0.303,-3.537 0.961,-8.505 0.961,-8.505c-0,0 2.41,12.123 4.12,14.615c1.708,2.49 3.655,7.463 3.655,7.463c0,-0 -2.368,-1.75 -2.83,-2.393c-2.423,-3.37 -5.113,-5.709 -6.305,-6.865c-0.95,-0.921 -1.859,-1.633 -1.859,-1.633c0,0 2.449,-0.457 2.258,-2.682Z" style="fill:#110f0d;fill-opacity:0.1;"/><path d="M102.936,129.196c-0.303,-3.537 0.961,-8.505 0.961,-8.505c-0,0 2.41,12.123 4.12,14.615c1.708,2.49 3.655,7.463 3.655,7.463c0,-0 -2.368,-1.75 -2.83,-2.393c-2.423,-3.37 -5.113,-5.709 -6.305,-6.865c-0.95,-0.921 -1.859,-1.633 -1.859,-1.633c0,0 2.449,-0.457 2.258,-2.682Z" style="fill:#110f0d;fill-opacity:0.1;"/><path d="M119.132,129.869c-0.872,-3.574 -1.555,-8.16 -1.555,-8.16c0,-0 3.429,12.602 4.524,15.504c1.094,2.9 2.808,8.315 2.808,8.315c-0,-0 -1.143,-2.338 -1.433,-3.092c-1.516,-3.953 -2.891,-6.955 -3.527,-8.404c-0.507,-1.154 -0.954,-2.091 -0.954,-2.091c-0,-0 0.685,0.177 0.137,-2.072Z" style="fill:#110f0d;fill-opacity:0.1;"/><path d="M119.132,129.869c-0.872,-3.574 -1.555,-8.16 -1.555,-8.16c0,-0 3.429,12.602 4.524,15.504c1.094,2.9 2.808,8.315 2.808,8.315c-0,-0 -1.143,-2.338 -1.433,-3.092c-1.516,-3.953 -2.891,-6.955 -3.527,-8.404c-0.507,-1.154 -0.954,-2.091 -0.954,-2.091c-0,-0 0.685,0.177 0.137,-2.072Z" style="fill:#110f0d;fill-opacity:0.1;"/><path d="M119.132,129.869c-0.872,-3.574 -1.555,-8.16 -1.555,-8.16c0,-0 3.429,12.602 4.524,15.504c1.094,2.9 2.808,8.315 2.808,8.315c-0,-0 -1.143,-2.338 -1.433,-3.092c-1.516,-3.953 -2.891,-6.955 -3.527,-8.404c-0.507,-1.154 -0.954,-2.091 -0.954,-2.091c-0,-0 0.685,0.177 0.137,-2.072Z" style="fill:#110f0d;fill-opacity:0.1;"/><path d="M99.311,119.089c0.529,-1.532 1.731,-2.495 1.731,-2.495c-0,-0 -1.445,6.219 -1.413,8.353c0.032,2.131 -0.301,5.358 -0.301,5.358c0,-0 -0.338,-2.321 -0.352,-2.886c-0.074,-2.964 -0.397,-5.731 -0.52,-7.001c-0.098,-1.013 -0.221,-1.918 -0.221,-1.918c0,-0 0.742,1.554 1.076,0.589Z" style="fill:#110f0d;fill-opacity:0.1;"/><path d="M99.311,119.089c0.529,-1.532 1.731,-2.495 1.731,-2.495c-0,-0 -1.445,6.219 -1.413,8.353c0.032,2.131 -0.301,5.358 -0.301,5.358c0,-0 -0.338,-2.321 -0.352,-2.886c-0.074,-2.964 -0.397,-5.731 -0.52,-7.001c-0.098,-1.013 -0.221,-1.918 -0.221,-1.918c0,-0 0.742,1.554 1.076,0.589Z" style="fill:#110f0d;fill-opacity:0.1;"/><path d="M99.311,119.089c0.529,-1.532 1.731,-2.495 1.731,-2.495c-0,-0 -1.445,6.219 -1.413,8.353c0.032,2.131 -0.301,5.358 -0.301,5.358c0,-0 -0.338,-2.321 -0.352,-2.886c-0.074,-2.964 -0.397,-5.731 -0.52,-7.001c-0.098,-1.013 -0.221,-1.918 -0.221,-1.918c0,-0 0.742,1.554 1.076,0.589Z" style="fill:#110f0d;fill-opacity:0.1;"/><path d="M128.546,130.049c0.862,0.441 1.772,-0.076 1.772,-0.076c0,0 -3.2,-2.436 -4.075,-3.754c-0.873,-1.317 -3.124,-9.141 -3.124,-9.141c-0,-0 2.118,7.712 2.424,8.808c0.322,1.152 1.611,3.262 2.087,4.142c0.38,0.701 0.705,1.361 0.705,1.361c0,-0 -0.332,-1.618 0.211,-1.34Z" style="fill:#110f0d;fill-opacity:0.1;"/><path d="M79.276,105.649c1.112,-2.423 2.294,-5.924 2.294,-5.924c-0,-0 -4.125,8.228 -5.248,9.849c-1.121,1.621 -3.03,4.94 -3.03,4.94c0,0 1.052,-1.071 1.347,-1.488c1.543,-2.187 2.842,-3.646 3.453,-4.376c0.487,-0.581 0.902,-1.02 0.902,-1.02c0,0 -0.419,-0.456 0.282,-1.981Z" style="fill:#110f0d;fill-opacity:0.1;"/><path d="M79.276,105.649c1.112,-2.423 2.294,-5.924 2.294,-5.924c-0,-0 -4.125,8.228 -5.248,9.849c-1.121,1.621 -3.03,4.94 -3.03,4.94c0,0 1.052,-1.071 1.347,-1.488c1.543,-2.187 2.842,-3.646 3.453,-4.376c0.487,-0.581 0.902,-1.02 0.902,-1.02c0,0 -0.419,-0.456 0.282,-1.981Z" style="fill:#110f0d;fill-opacity:0.1;"/><path d="M79.276,105.649c1.112,-2.423 2.294,-5.924 2.294,-5.924c-0,-0 -4.125,8.228 -5.248,9.849c-1.121,1.621 -3.03,4.94 -3.03,4.94c0,0 1.052,-1.071 1.347,-1.488c1.543,-2.187 2.842,-3.646 3.453,-4.376c0.487,-0.581 0.902,-1.02 0.902,-1.02c0,0 -0.419,-0.456 0.282,-1.981Z" style="fill:#110f0d;fill-opacity:0.1;"/><path d="M81.831,116.489c0.193,-1.608 0.125,-3.946 0.125,-3.946c-0,-0 -0.941,5.45 -1.379,6.514c-0.438,1.063 -1.017,3.254 -1.017,3.254c-0,0 0.543,-0.693 0.66,-0.966c0.615,-1.434 1.246,-2.382 1.53,-2.857c0.226,-0.379 0.436,-0.663 0.436,-0.663c-0,-0 -0.477,-0.323 -0.355,-1.336Z" style="fill:#110f0d;fill-opacity:0.1;"/><path d="M81.831,116.489c0.193,-1.608 0.125,-3.946 0.125,-3.946c-0,-0 -0.941,5.45 -1.379,6.514c-0.438,1.063 -1.017,3.254 -1.017,3.254c-0,0 0.543,-0.693 0.66,-0.966c0.615,-1.434 1.246,-2.382 1.53,-2.857c0.226,-0.379 0.436,-0.663 0.436,-0.663c-0,-0 -0.477,-0.323 -0.355,-1.336Z" style="fill:#110f0d;fill-opacity:0.1;"/><path d="M81.831,116.489c0.193,-1.608 0.125,-3.946 0.125,-3.946c-0,-0 -0.941,5.45 -1.379,6.514c-0.438,1.063 -1.017,3.254 -1.017,3.254c-0,0 0.543,-0.693 0.66,-0.966c0.615,-1.434 1.246,-2.382 1.53,-2.857c0.226,-0.379 0.436,-0.663 0.436,-0.663c-0,-0 -0.477,-0.323 -0.355,-1.336Z" style="fill:#110f0d;fill-opacity:0.1;"/><path d="M75.648,104.458c1.497,-0.92 3.049,-5.44 3.049,-5.44c-0,0.594 -1.939,1.288 -3.239,1.01c-0.924,-0.198 -1.206,1.432 -1.712,2.033c-0.82,0.973 -1.646,1.187 -2.376,1.062c-2.781,-0.475 -2.478,-1.391 -2.955,-1.319c-1.954,0.297 -6.596,-3.397 -6.596,-3.397c-0,-0 0.758,1.242 1.926,2.255c0.562,0.487 1.459,1.061 2.548,2.396c0.663,0.814 1.54,2.423 2.044,2.98c1.184,1.307 1.378,1.005 1.785,1.209c2.14,1.074 2.52,0.77 3.355,1.107c0.667,0.269 1.096,0.173 1.096,0.173c-0,0 0.205,-3.535 1.075,-4.069Z" style="fill:#110f0d;fill-opacity:0.1;"/><path d="M75.648,104.458c1.497,-0.92 3.049,-5.44 3.049,-5.44c-0,0.594 -1.939,1.288 -3.239,1.01c-0.924,-0.198 -1.206,1.432 -1.712,2.033c-0.82,0.973 -1.646,1.187 -2.376,1.062c-2.781,-0.475 -2.478,-1.391 -2.955,-1.319c-1.954,0.297 -6.596,-3.397 -6.596,-3.397c-0,-0 0.758,1.242 1.926,2.255c0.562,0.487 1.459,1.061 2.548,2.396c0.663,0.814 1.54,2.423 2.044,2.98c1.184,1.307 1.378,1.005 1.785,1.209c2.14,1.074 2.52,0.77 3.355,1.107c0.667,0.269 1.096,0.173 1.096,0.173c-0,0 0.205,-3.535 1.075,-4.069Z" style="fill:#110f0d;fill-opacity:0.1;"/><path d="M84.064,106.479c0.097,-1.402 -0.105,-3.46 -0.105,-3.46c0,-0 -0.603,4.738 -0.969,5.649c-0.366,0.91 -0.804,2.804 -0.804,2.804c-0,0 0.49,-0.58 0.588,-0.814c0.517,-1.226 1.077,-2.025 1.326,-2.427c0.199,-0.321 0.387,-0.559 0.387,-0.559c0,-0 -0.483,-0.31 -0.423,-1.193Z" style="fill:#110f0d;fill-opacity:0.1;"/><path d="M84.064,106.479c0.097,-1.402 -0.105,-3.46 -0.105,-3.46c0,-0 -0.603,4.738 -0.969,5.649c-0.366,0.91 -0.804,2.804 -0.804,2.804c-0,0 0.49,-0.58 0.588,-0.814c0.517,-1.226 1.077,-2.025 1.326,-2.427c0.199,-0.321 0.387,-0.559 0.387,-0.559c0,-0 -0.483,-0.31 -0.423,-1.193Z" style="fill:#110f0d;fill-opacity:0.1;"/><path d="M113.995,129.433c0.267,1.584 0.938,3.766 0.938,3.766c-0,0 -0.674,-5.463 -0.6,-6.616c0.075,-1.152 -0.033,-3.417 -0.033,-3.417c-0,-0 -0.258,0.839 -0.281,1.137c-0.12,1.562 -0.38,2.672 -0.485,3.217c-0.083,0.434 -0.178,0.774 -0.178,0.774c-0,0 0.471,0.143 0.639,1.139Z" style="fill:#110f0d;fill-opacity:0.1;"/><path d="M113.995,129.433c0.267,1.584 0.938,3.766 0.938,3.766c-0,0 -0.674,-5.463 -0.6,-6.616c0.075,-1.152 -0.033,-3.417 -0.033,-3.417c-0,-0 -0.258,0.839 -0.281,1.137c-0.12,1.562 -0.38,2.672 -0.485,3.217c-0.083,0.434 -0.178,0.774 -0.178,0.774c-0,0 0.471,0.143 0.639,1.139Z" style="fill:#110f0d;fill-opacity:0.1;"/><path d="M113.995,129.433c0.267,1.584 0.938,3.766 0.938,3.766c-0,0 -0.674,-5.463 -0.6,-6.616c0.075,-1.152 -0.033,-3.417 -0.033,-3.417c-0,-0 -0.258,0.839 -0.281,1.137c-0.12,1.562 -0.38,2.672 -0.485,3.217c-0.083,0.434 -0.178,0.774 -0.178,0.774c-0,0 0.471,0.143 0.639,1.139Z" style="fill:#110f0d;fill-opacity:0.1;"/><path d="M116.007,140.169c0.558,1.635 1.586,3.782 1.586,3.782c-0,0 -1.718,-5.726 -1.896,-7.011c-0.179,-1.284 -0.745,-3.717 -0.745,-3.717c-0,-0 -0.043,1.005 0,1.339c0.225,1.747 0.237,3.049 0.262,3.68c0.021,0.503 0.011,0.907 0.011,0.907c0,-0 0.43,-0.009 0.782,1.02Z" style="fill:#110f0d;fill-opacity:0.1;"/><path d="M94.601,125.756c0.303,-3.187 1.473,-13.276 1.473,-13.276c0,-0 -5.934,12.044 -7.643,12.562c-1.708,0.518 -3.747,2.895 -3.747,2.895c0,-0 2.406,1.191 2.922,1.221c2.927,0.174 6.305,0.416 6.305,0.416c-0,0 -0.174,-0.568 0.045,-1.896c0.078,-0.468 0.596,-1.4 0.645,-1.922Z" style="fill:#110f0d;fill-opacity:0.1;"/><path d="M94.601,125.756c0.303,-3.187 1.473,-13.276 1.473,-13.276c0,-0 -5.934,12.044 -7.643,12.562c-1.708,0.518 -3.747,2.895 -3.747,2.895c0,-0 2.406,1.191 2.922,1.221c2.927,0.174 6.305,0.416 6.305,0.416c-0,0 -0.174,-0.568 0.045,-1.896c0.078,-0.468 0.596,-1.4 0.645,-1.922Z" style="fill:#110f0d;fill-opacity:0.1;"/><path d="M75.648,104.458c1.497,-0.92 3.049,-5.44 3.049,-5.44c-0,0.594 -1.628,1.584 -2.823,1.65c-1.391,0.076 -1.6,1.575 -2.251,2.355c-0.999,1.198 -2.083,1.89 -2.621,2.415c-0.513,0.501 -3.401,-0.44 -3.401,-0.44c0,-0 0.498,1.234 2.521,2.249c2.14,1.074 2.52,0.77 3.355,1.107c0.667,0.269 1.096,0.173 1.096,0.173c-0,0 0.205,-3.535 1.075,-4.069Z" style="fill:#110f0d;fill-opacity:0.1;"/><path d="M75.648,104.458c1.497,-0.92 3.049,-5.44 3.049,-5.44c-0,0.594 -1.628,1.584 -2.823,1.65c-1.391,0.076 -1.6,1.575 -2.251,2.355c-0.999,1.198 -2.083,1.89 -2.621,2.415c-0.513,0.501 -3.401,-0.44 -3.401,-0.44c0,-0 0.498,1.234 2.521,2.249c2.14,1.074 2.52,0.77 3.355,1.107c0.667,0.269 1.096,0.173 1.096,0.173c-0,0 0.205,-3.535 1.075,-4.069Z" style="fill:#110f0d;fill-opacity:0.1;"/><path d="M78.96,86.659c0.739,-1.598 2.102,-2.473 2.102,-2.473c0,0 -1.697,0.853 -3.165,0.629c-1.467,-0.224 -3.324,-5.478 -3.324,-5.478c-0,0 0.472,2.68 0.895,4.272c0.237,0.891 1.71,4.432 2.248,5.496c0.602,1.189 1.244,1.421 1.244,1.421c0,-0 -0.763,-2.215 0,-3.867Z" style="fill:#110f0d;fill-opacity:0.1;"/><path d="M78.96,86.659c0.739,-1.598 2.102,-2.473 2.102,-2.473c0,0 -1.697,0.853 -3.165,0.629c-1.467,-0.224 -3.324,-5.478 -3.324,-5.478c-0,0 0.472,2.68 0.895,4.272c0.237,0.891 1.71,4.432 2.248,5.496c0.602,1.189 1.244,1.421 1.244,1.421c0,-0 -0.763,-2.215 0,-3.867Z" style="fill:#110f0d;fill-opacity:0.1;"/><path d="M78.96,86.659c0.739,-1.598 2.102,-2.473 2.102,-2.473c0,0 -1.697,0.853 -3.165,0.629c-1.467,-0.224 -3.324,-5.478 -3.324,-5.478c-0,0 0.472,2.68 0.895,4.272c0.237,0.891 1.71,4.432 2.248,5.496c0.602,1.189 1.244,1.421 1.244,1.421c0,-0 -0.763,-2.215 0,-3.867Z" style="fill:#110f0d;fill-opacity:0.1;"/><path d="M126.762,130.786c-0.739,-1.993 -1.853,-6.769 -1.853,-6.769c-0,0.807 3.286,8.345 4.228,7.944c0.968,-0.412 2.163,2.795 2.163,2.795c0,-0 -1.107,0.334 -1.344,0.285c-0.873,-0.18 -1.155,0.062 -1.857,-0.014c-0.528,-0.057 -1.403,0.437 -1.261,0.696c0,0 0.389,-3.683 -0.076,-4.937Z" style="fill:#110f0d;fill-opacity:0.1;"/><path d="M126.762,130.786c-0.739,-1.993 -1.853,-6.769 -1.853,-6.769c-0,0.807 3.286,8.345 4.228,7.944c0.968,-0.412 2.163,2.795 2.163,2.795c0,-0 -1.107,0.334 -1.344,0.285c-0.873,-0.18 -1.155,0.062 -1.857,-0.014c-0.528,-0.057 -1.403,0.437 -1.261,0.696c0,0 0.389,-3.683 -0.076,-4.937Z" style="fill:#110f0d;fill-opacity:0.1;"/><path d="M129.941,124.123c-0.795,-0.401 -4.829,-5.912 -4.645,-6.386c-0.044,0.828 7.553,8.077 8.421,7.572c1.413,-0.822 1.971,2.21 1.971,2.21c-0,-0 -0.669,0.856 -1.219,1.101c-0.632,0.282 -0.952,0.055 -1.339,0.208c-0.405,0.161 -1.539,0.681 -1.422,0.94c-0,0 -0.621,-5.068 -1.767,-5.645Z" style="fill:#110f0d;fill-opacity:0.1;"/><path d="M108.711,118.816c-0.131,0.512 -0.352,0.981 -0.269,1.606c0.475,3.611 0.437,4.073 0.56,6.074l-1.544,-6.747l-0.672,-1.611l1.925,0.678Z" style="fill:#110f0d;fill-opacity:0.1;"/><path d="M108.711,118.816c-0.131,0.512 -0.352,0.981 -0.269,1.606c0.475,3.611 0.437,4.073 0.56,6.074l-1.544,-6.747l-0.672,-1.611l1.925,0.678Z" style="fill:#110f0d;fill-opacity:0.1;"/><path d="M108.711,118.816c-0.131,0.512 -0.352,0.981 -0.269,1.606c0.475,3.611 0.437,4.073 0.56,6.074l-1.544,-6.747l-0.672,-1.611l1.925,0.678Z" style="fill:#110f0d;fill-opacity:0.1;"/><path d="M89.393,107.502c0.131,0.662 0.352,1.387 0.27,1.917c-0.476,3.062 -0.437,3.568 -0.56,5.427l1.544,-4.964l0.672,-0.835l-1.926,-1.545Z" style="fill:#110f0d;fill-opacity:0.1;"/><path d="M89.393,107.502c0.131,0.662 0.352,1.387 0.27,1.917c-0.476,3.062 -0.437,3.568 -0.56,5.427l1.544,-4.964l0.672,-0.835l-1.926,-1.545Z" style="fill:#110f0d;fill-opacity:0.1;"/><path d="M89.393,107.502c0.131,0.662 0.352,1.387 0.27,1.917c-0.476,3.062 -0.437,3.568 -0.56,5.427l1.544,-4.964l0.672,-0.835l-1.926,-1.545Z" style="fill:#110f0d;fill-opacity:0.1;"/><path d="M78.817,92.034c-0.066,0.451 -0.49,1.916 -0.734,2.13c-1.412,1.233 -1.526,1.529 -2.213,2.409l3.085,-1.388l1.016,0.086c-0.563,-0.913 -1.084,-2.16 -1.154,-3.237Z" style="fill:#110f0d;fill-opacity:0.1;"/><path d="M87.82,85.671c1.503,-0.009 2.939,-0.083 4.676,0.408c11.269,3.187 19.038,8.707 22.402,15.226c1.094,2.12 1.868,4.136 2.868,6.16c4.399,8.906 3.953,12.895 -2.868,11.893c-4.84,-0.711 -8.475,-2.626 -13.539,-5.077c-5.715,-2.765 -10.752,-6.424 -13.539,-10.557c-6.33,-9.384 -10.124,-17.988 -0,-18.053Z" style="fill:#ab957b;"/><path d="M88.871,86.96c1.39,-0.009 2.716,-0.077 4.321,0.377c10.414,2.944 17.592,8.045 20.701,14.069c1.011,1.959 1.726,3.822 2.65,5.692c4.065,8.23 3.653,11.916 -2.65,10.99c-4.472,-0.657 -7.831,-2.427 -12.511,-4.691c-5.281,-2.556 -9.935,-5.937 -12.511,-9.756c-5.849,-8.671 -9.354,-16.622 0,-16.681Z" style="fill:#492e17;fill-opacity:0.35;stroke:#948f8f;stroke-width:0.2px;"/><path d="M97.264,98.638c0.167,-0.001 3.124,0.133 3.837,0.326c1.577,0.428 2.689,2.722 3.064,3.448c0.122,0.236 1.035,1.967 1.146,2.192c0.49,0.992 -0.435,1.189 -1.195,1.077c-0.539,-0.079 -1.536,-0.728 -2.1,-1.001c-0.636,-0.308 -2.586,-1.699 -2.896,-2.16c-0.705,-1.045 -2.983,-3.874 -1.856,-3.882Z" style="fill:#492e17;fill-opacity:0.42;"/><path d="M101.017,91.458c5.622,2.632 9.595,6.133 11.629,10.074c0.907,1.758 1.549,3.431 2.379,5.111c3.65,7.389 3.28,10.699 -2.379,9.867c-4.016,-0.59 -7.033,-2.178 -11.235,-4.212c-4.742,-2.295 -8.921,-5.33 -11.234,-8.76c-5.251,-7.786 -8.399,-14.925 0,-14.978c1.248,-0.008 2.439,-0.069 3.88,0.338c2.334,0.66 4.487,1.441 6.448,2.325l0.214,0.098c5.068,2.531 8.905,5.911 11.324,10.271c-2.638,-5.113 -8.731,-9.441 -17.568,-11.94c-1.362,-0.385 -2.488,-0.328 -3.667,-0.32c-7.939,0.05 -4.964,6.798 -0,14.157c2.186,3.241 6.136,6.11 10.617,8.279c3.972,1.922 6.823,3.424 10.618,3.981c5.35,0.786 5.699,-2.342 2.249,-9.326c-0.784,-1.588 -1.391,-3.169 -2.249,-4.831c-1.926,-3.733 -6.205,-7.879 -11.538,-10.369l0.512,0.235Z" style="fill:#492e17;fill-opacity:0.38;"/><path d="M101.049,93.327c4.612,2.159 7.871,5.031 9.539,8.263c0.744,1.443 1.271,2.815 1.951,4.193c2.995,6.061 2.691,8.776 -1.951,8.094c-3.294,-0.484 -5.769,-1.787 -9.215,-3.455c-3.89,-1.883 -7.318,-4.373 -9.215,-7.186c-4.308,-6.386 -6.89,-12.242 0,-12.286c1.023,-0.007 2.001,-0.057 3.183,0.278c1.914,0.541 3.68,1.181 5.288,1.906l0.176,0.081c4.157,2.076 6.835,4.791 8.819,8.367c-1.964,-3.871 -5.575,-6.59 -13.363,-9.508c-1.136,-0.425 -3.006,-0.081 -3.974,-0.075c-6.512,0.042 -3.214,5.361 0.858,11.397c1.793,2.659 4.801,4.492 8.478,6.272c3.257,1.576 5.338,2.968 8.451,3.425c4.388,0.645 4.055,-2.255 1.225,-7.984c-0.643,-1.302 -1.063,-2.342 -1.766,-3.705c-1.58,-3.062 -4.529,-6.227 -8.904,-8.27l0.42,0.193Z" style="fill:#492e17;fill-opacity:0.38;"/><path d="M101.092,95.802c3.274,1.533 5.588,3.571 6.772,5.866c0.528,1.024 0.902,1.998 1.386,2.976c2.125,4.303 1.91,6.231 -1.386,5.746c-2.339,-0.343 -4.095,-1.268 -6.542,-2.452c-2.761,-1.337 -5.195,-3.105 -6.542,-5.102c-3.058,-4.534 -4.891,-8.691 0,-8.722c0.727,-0.005 1.42,-0.04 2.26,0.197c1.359,0.384 2.612,0.839 3.754,1.354l0.125,0.057c2.951,1.474 4.482,3.045 5.89,5.583c-1.536,-2.977 -3.593,-4.535 -8.74,-5.991c-0.793,-0.224 -1.983,-0.037 -2.67,-0.033c-4.623,0.03 -3.143,2.273 -0.252,6.558c1.273,1.887 3.44,3.971 6.05,5.234c2.313,1.119 3.529,1.792 5.739,2.116c3.115,0.458 3.375,-0.878 1.366,-4.945c-0.457,-0.925 -0.993,-1.971 -1.493,-2.939c-1.121,-2.173 -2.909,-4.19 -6.015,-5.64l0.298,0.137Z" style="fill:#492e17;fill-opacity:0.38;"/><path d="M100.347,104.736l-3.382,-1.952l-0.288,5.997l4.381,-0.419l-0.711,-3.626Z" style="fill:#dfc55d;"/><path d="M100.347,104.736l-3.382,-1.952l-0.288,5.997l4.381,-0.419l-0.711,-3.626Z" style="fill:#717171;fill-opacity:0.2;"/><path d="M100.347,104.736l-3.382,-1.952l-0.288,5.997l4.381,-0.419l-0.711,-3.626Z" style="fill:#717171;fill-opacity:0.2;"/><path d="M93.03,95.79l-5.111,-4.271l-1.75,5.662l7.251,2.65l-0.39,-4.041Z" style="fill:#dfc55d;"/><path d="M93.03,95.79l-5.111,-4.271l-1.75,5.662l7.251,2.65l-0.39,-4.041Z" style="fill:#717171;fill-opacity:0.18;"/><path d="M93.03,95.79l-5.111,-4.271l-1.75,5.662l7.251,2.65l-0.39,-4.041Z" style="fill:#717171;fill-opacity:0.18;"/><path d="M101.048,78.354c2.246,1.326 14.73,23.4 14.73,28.687c-0,3.378 -3.94,10.089 -5.665,8.865c-0.994,-0.705 -2.926,-6.225 -2.926,-6.225c0.442,0.709 -3.758,0.675 -5.603,-0.822c-4.895,-3.974 -9.306,-10.432 -12.989,-14.507c-3.54,-3.916 -1.232,-8.918 1.626,-12.083c2.393,-2.649 6.248,-6.617 10.827,-3.915Z" style="fill:#f3f3f3;"/><path d="M95.506,79.698c-4.978,1 -6.526,14.533 -5.036,16.846c-0,-0 -2.441,-7.075 -0.637,-11.946c1.047,-2.828 5.673,-4.9 5.673,-4.9Z" style="fill:#9c9c9c;fill-opacity:0.18;"/><path d="M102.658,88.765c-0.447,-3.885 2.256,15.13 4.529,20.916c0.442,0.709 -3.758,0.675 -5.603,-0.822c-4.895,-3.974 2.459,-8.07 1.074,-20.094Z" style="fill:#858585;fill-opacity:0.16;"/><path d="M100.542,61.765c2.246,1.326 7.364,8.129 7.364,13.417c-0,5.287 -3.776,7.062 -8.355,4.419c-4.579,-2.644 -7.804,-8.598 -7.804,-13.885c-0,-5.288 4.216,-6.653 8.795,-3.951Z" style="fill:#f3f3f3;"/><path d="M106.974,70.783c0.571,1.485 0.932,2.996 0.932,4.399c-0,5.287 -3.776,7.062 -8.355,4.419c-3.524,-2.035 -6.246,-6.03 -7.314,-10.173c1.314,3.445 3.728,6.586 6.721,8.314c4.579,2.643 8.354,0.868 8.354,-4.419c0,-0.819 -0.122,-1.674 -0.338,-2.54Z" style="fill:#848484;fill-opacity:0.13;"/><path d="M91.944,91.626c0.364,-0.07 0.858,-0.202 1.498,0.61c0.37,0.469 0.572,1.717 0.572,1.717c-0,-0 0.087,-1.179 1.39,0.229c1.082,1.168 1.201,3.362 1.201,3.362c0,0 0.224,-0.804 0.973,-0.032c1.205,1.244 0.917,2.257 0.896,3.135c-0.102,4.398 -0.377,9.803 -3.09,8.237c-2.712,-1.566 -2.837,-3.641 -2.837,-8.099c0,-4.458 -2.377,-8.817 -0.603,-9.159Z" style="fill:#dfc55d;"/><path d="M98.387,98.79c0.221,0.689 0.1,1.3 0.087,1.857c-0.102,4.398 -0.377,9.803 -3.09,8.237c-1.97,-1.137 -2.575,-2.543 -2.758,-4.935c0.29,1.747 0.982,2.886 2.63,3.838c2.713,1.566 2.988,-3.84 3.09,-8.238c0.006,-0.242 0.032,-0.494 0.041,-0.759Zm-7.1,-6.034c0.015,1.246 0.734,3.374 1.079,5.737c-0.185,-2.181 -0.808,-4.252 -1.079,-5.737Z" style="fill:#808080;fill-opacity:0.16;"/><path d="M81.169,80.3c0.339,-0.124 0.592,-0.204 1.282,0.521c0.747,0.784 0.873,1.618 0.873,1.618c0,-0 0.313,-0.7 1.495,0.333c0.912,0.797 1.239,2.554 1.239,2.554c-0,-0 0.435,-0.145 0.939,0.33c0.881,0.829 1.058,2.227 1.112,3.145c0.232,3.923 0.346,8.209 -1.241,8.973c-0.276,0.133 -0.605,0.159 -0.993,0.058c-0.959,-0.25 -1.867,-1.416 -2.553,-6.199c-0.69,-4.809 -3.803,-10.728 -2.153,-11.333Z" style="fill:#dfc55d;"/><path d="M87.159,85.823c0.741,0.84 0.9,2.119 0.95,2.978c0.232,3.923 0.346,8.209 -1.241,8.973c-0.276,0.133 -0.605,0.159 -0.993,0.058c-0.63,-0.165 -1.239,-0.725 -1.776,-2.448c0.317,0.431 0.647,0.632 0.984,0.719c0.388,0.102 0.716,0.076 0.993,-0.057c1.587,-0.764 1.473,-5.051 1.241,-8.973c-0.021,-0.363 -0.062,-0.802 -0.158,-1.25Zm-2.006,-2.687c0.105,0.138 0.199,0.287 0.283,0.441c-0.107,-0.001 -0.171,0.02 -0.171,0.02c0,0 -0.034,-0.184 -0.112,-0.461Z" style="fill:#858585;fill-opacity:0.22;"/><path d="M93.454,70.482c1.931,0.491 6.582,3.984 6.64,5.541c0.086,2.329 -0.251,2.34 -3.314,1.392c-2.289,-0.709 -7.5,-3.469 -8.908,-4.666c-0.559,-0.476 -0.915,-1.084 -0.895,-1.805c0.022,-0.761 3.936,-1.108 6.477,-0.462Z" style="fill:#dfc55d;"/><path d="M93.454,70.482c1.931,0.491 6.582,3.984 6.64,5.541c0.086,2.329 -0.251,2.34 -3.314,1.392c-2.289,-0.709 -7.5,-3.469 -8.908,-4.666c-0.559,-0.476 -0.915,-1.084 -0.895,-1.805c0.022,-0.761 3.936,-1.108 6.477,-0.462Z" style="fill:#dfc55d;"/><path d="M92.983,69.434c1.88,0.342 6.877,4.706 7.081,6.337c0.193,1.535 -0.251,1.448 -3.742,0.528c-2.263,-0.596 -7.066,-2.895 -8.5,-4.017c-0.569,-0.446 -0.954,-1.048 -0.988,-1.8c-0.036,-0.794 3.674,-1.498 6.149,-1.048Z" style="fill:#dfc55d;"/><path d="M100.102,76.292c0.047,2.059 -0.381,2.034 -3.322,1.123c-2.289,-0.709 -7.5,-3.469 -8.908,-4.666c-0.491,-0.417 -0.825,-0.937 -0.885,-1.546c0.167,0.426 0.462,0.786 0.835,1.079c1.434,1.122 6.237,3.421 8.5,4.017c3.035,0.799 3.766,0.97 3.78,-0.007Zm-0.024,-0.404c0.009,0.047 0.014,0.092 0.016,0.135c0,0.023 0.001,0.046 0.002,0.069c-0.004,-0.064 -0.01,-0.132 -0.018,-0.204Z" style="fill:#808080;fill-opacity:0.35;"/><path d="M94.288,66.627c0.538,0.311 0.975,1.097 0.975,1.754c-0,0.657 -0.437,0.938 -0.975,0.628c-0.537,-0.311 -0.974,-1.096 -0.974,-1.754c-0,-0.657 0.437,-0.938 0.974,-0.628Z"/><path d="M100.721,72.074c0.589,0.34 1.066,1.167 1.066,1.846c0,0.68 -0.477,0.956 -1.066,0.616c-0.588,-0.34 -1.066,-1.167 -1.066,-1.846c0,-0.68 0.478,-0.956 1.066,-0.616Z"/><path d="M96.403,86.949l0.852,-5.579c-0.169,0.242 -0.511,0.396 -0.783,0.437c-0.948,0.142 -1.916,-0.037 -3.044,-0.688c-0.079,-0.045 0.013,0.684 0.781,1.529c0.447,0.491 0.91,0.724 0.91,0.724c0,-0 -0.32,0.462 -0.643,0.702c-0.481,0.356 -1.39,0.293 -1.39,0.293c0,0 0.253,0.397 0.997,0.789c0.33,0.174 0.62,0.152 0.62,0.152c0,0 0.046,0.524 -0.005,1.03c-0.028,0.284 -0.241,0.671 -0.241,0.671c0,-0 0.537,0.214 0.997,0.208c0.479,-0.005 0.823,-0.099 0.949,-0.268Z" style="fill:#fff;fill-opacity:0.9;"/><path d="M96.201,86.896l1.021,-5.446c0.057,0.418 0.272,1.01 0.468,1.416c0.683,1.42 1.477,2.622 2.535,3.684c0.074,0.075 -0.214,0.506 -1.056,0.09c-0.489,-0.242 -0.913,-0.705 -0.913,-0.705c-0,-0 0.106,0.796 0.282,1.427c0.261,0.937 0.975,2.146 0.975,2.146c0,0 -0.312,-0.046 -0.999,-0.775c-0.304,-0.322 -0.52,-0.741 -0.52,-0.741c-0,0 -0.192,0.338 -0.305,0.795c-0.063,0.257 -0.017,0.847 -0.017,0.847c0,-0 -0.474,-0.579 -0.825,-1.219c-0.364,-0.667 -0.6,-1.214 -0.646,-1.519Z" style="fill:#fff;fill-opacity:0.9;"/></svg>