<?xml version="1.0" encoding="UTF-8" standalone="no"?><!DOCTYPE svg PUBLIC "-//W3C//DTD SVG 1.1//EN" "http://www.w3.org/Graphics/SVG/1.1/DTD/svg11.dtd"><svg width="100%" height="100%" viewBox="0 0 200 200" version="1.1" xmlns="http://www.w3.org/2000/svg" xmlns:xlink="http://www.w3.org/1999/xlink" xml:space="preserve" xmlns:serif="http://www.serif.com/" style="fill-rule:evenodd;clip-rule:evenodd;stroke-linecap:round;stroke-linejoin:round;stroke-miterlimit:1.5;"><g><g><path d="M148.648,84.991l-97.296,-56.174l-0,86.192l97.296,56.174l0,-86.192Z" style="fill:#014364;"/><g><path d="M148.648,111.974l-97.296,-56.174l-0,59.209l97.296,56.174l0,-59.209Z" style="fill:#060400;fill-opacity:0.16;"/><path d="M148.648,131.345l-97.296,-56.174l-0,39.838l97.296,56.174l0,-39.838Z" style="fill:#060400;fill-opacity:0.16;"/><path d="M148.648,152.573l-97.296,-56.174l-0,18.61l97.296,56.174l0,-18.61Z" style="fill:#060400;fill-opacity:0.16;"/></g></g><g><g><path d="M100,62.876c17.132,9.891 31.041,33.983 31.041,53.765c-0,19.782 -13.909,27.813 -31.041,17.921c-17.132,-9.891 -31.041,-33.982 -31.041,-53.764c0,-19.783 13.909,-27.813 31.041,-17.922Z" style="fill:#d1bd5c;fill-opacity:0.07;"/><path d="M100,72.621c12.474,7.202 22.601,24.743 22.601,39.147c0,14.404 -10.127,20.251 -22.601,13.049c-12.474,-7.202 -22.601,-24.743 -22.601,-39.147c-0,-14.403 10.127,-20.25 22.601,-13.049Z" style="fill:#d1bd5c;fill-opacity:0.07;"/><path d="M100,82.567c7.72,4.457 13.988,15.314 13.988,24.229c0,8.914 -6.268,12.533 -13.988,8.076c-7.72,-4.458 -13.988,-15.314 -13.988,-24.229c-0,-8.915 6.268,-12.534 13.988,-8.076Z" style="fill:#d1bd5c;fill-opacity:0.07;"/></g><path d="M93.217,82.12c-2.65,0.911 -4.349,3.689 -4.349,7.903l0,8.167c0,5.365 2.755,11.584 6.719,15.98l0,-2.89c-2.965,-3.653 -4.968,-8.487 -4.968,-12.699l0,-6.927c0,-2.956 0.986,-5.079 2.598,-6.162l0,-3.372Z" style="fill:#181919;"/><path d="M94.773,109.294c3.08,-0.275 8.081,2.612 11.161,6.444c3.08,3.832 3.08,7.166 0,7.441c-3.08,0.275 -8.081,-2.613 -11.161,-6.444c-3.08,-3.832 -3.08,-7.166 0,-7.441Z" style="fill:#181919;"/><path d="M88.871,95.989c-0.199,-2.239 0.918,-3.763 3.35,-3.98c4.496,-0.402 11.797,3.813 16.293,9.407c2.432,3.025 3.548,5.838 3.349,7.847l-1.889,-1.09c-0.219,-1.547 -1.145,-3.462 -2.776,-5.491c-3.77,-4.69 -9.892,-8.224 -13.662,-7.887c-1.631,0.145 -2.556,0.992 -2.776,2.285l-1.889,-1.091Z" style="fill:#181919;"/><path d="M90.054,115.514c0.004,-0.811 0.41,-2.887 1.444,-4.169c0.901,-1.119 2.383,-1.506 3.172,-1.577c3.138,-0.28 8.234,2.662 11.372,6.566c0.888,1.104 2.587,3.67 3.557,6.128c0.883,2.237 1.083,4.39 1.056,5.129c-0.06,1.669 -1.064,2.781 -3.013,2.955c-4.021,0.359 -10.55,-3.411 -14.572,-8.413c-2.018,-2.511 -3.023,-4.858 -3.016,-6.619Z" style="fill:#181919;"/><path d="M107.876,90.583l-0,3.494c1.41,2.771 2.259,5.777 2.259,8.52l-0,6.926c-0,4.076 -1.875,6.568 -4.681,6.934l2.263,2.535c2.546,-0.973 4.169,-3.72 4.169,-7.838l-0,-8.166c-0,-4.032 -1.555,-8.545 -4.01,-12.405Z" style="fill:#181919;"/><path d="M101.517,90.328l-2.322,-1.34l0,29.797l2.322,1.34l-0,-29.797Z" style="fill:#4d4d4d;stroke:#014364;stroke-width:0.2px;"/><path d="M96.328,109.933c2.222,-0.199 5.83,1.884 8.052,4.649c2.222,2.764 2.222,5.169 0,5.368c-2.222,0.198 -5.83,-1.885 -8.052,-4.649c-2.223,-2.764 -2.223,-5.17 -0,-5.368Z" style="fill:#2d2d2d;fill-opacity:0.45;"/><path d="M107.764,118.704c1.022,2.453 0.412,4.274 -1.83,4.475c-3.08,0.275 -8.081,-2.613 -11.161,-6.444c-1.563,-1.945 -2.333,-3.762 -2.309,-5.116c0.349,1.135 1.08,2.451 2.19,3.831c3.13,3.895 8.095,6.841 11.08,6.574c1.803,-0.161 2.474,-1.459 2.03,-3.32Z" style="fill:#2d2d2d;fill-opacity:0.45;"/><path d="M97.339,109.845c1.665,-0.149 4.369,1.412 6.034,3.484c1.665,2.071 1.665,3.873 -0,4.022c-1.665,0.149 -4.369,-1.412 -6.034,-3.483c-1.665,-2.072 -1.665,-3.874 0,-4.023Z" style="fill:#2d2d2d;fill-opacity:0.45;"/><path d="M90.838,96.736c-0.039,-0.183 -0.07,-0.361 -0.091,-0.534c0.194,-1.34 1.123,-2.22 2.789,-2.369c3.77,-0.337 9.892,3.198 13.662,7.888c1.666,2.072 2.596,4.026 2.789,5.59c-0.021,0.148 -0.051,0.291 -0.091,0.428c-0.317,-1.465 -1.216,-3.214 -2.698,-5.057c-3.77,-4.69 -9.892,-8.224 -13.662,-7.887c-1.481,0.132 -2.38,0.842 -2.698,1.941Z" style="fill:#2c2723;fill-opacity:0.28;"/><path d="M109.103,121.321c0.179,0.379 0.346,0.761 0.496,1.141c0.883,2.237 1.083,4.39 1.056,5.129c-0.06,1.669 -1.064,2.781 -3.013,2.955c-4.021,0.359 -10.55,-3.411 -14.572,-8.413c-1.77,-2.203 -2.761,-4.28 -2.973,-5.945c0.468,0.856 1.072,1.755 1.813,2.676c4.021,5.003 10.55,8.773 14.572,8.413c1.948,-0.174 2.953,-1.285 3.013,-2.955c0.018,-0.496 -0.067,-1.631 -0.392,-3.001Z" style="fill:#333;fill-opacity:0.42;"/><path d="M97.509,109.364c1.571,-0.063 4.122,1.41 5.693,3.286c1.571,1.876 1.571,3.45 -0,3.512c-1.571,0.063 -4.122,-1.41 -5.693,-3.286c-1.57,-1.876 -1.57,-3.45 0,-3.512Z" style="fill:#ededed;"/><path d="M96.335,110.338c0.04,-0.578 0.432,-0.945 1.174,-0.974c1.571,-0.063 4.122,1.41 5.693,3.286c0.742,0.887 1.134,1.706 1.175,2.33l-0,0.001c-0.041,0.577 -0.432,0.945 -1.175,0.974c-1.571,0.062 -4.122,-1.41 -5.693,-3.286c-0.742,-0.887 -1.134,-1.707 -1.174,-2.331Zm-0.004,0.087l0,-0l0,-0Zm8.049,4.647l0,-0l0,-0Zm-8.048,-4.662l-0,0l-0,-0Zm8.048,4.646l-0,0.001l-0,-0.001Zm-8.048,-4.661l-0,0.001l-0,-0.001Zm8.047,4.646l0,0.001l0,-0.001Zm-0,-0.016l-0,0.002l-0,-0.002Zm-8.047,-4.645l0,0.001l0,-0.001Zm0.001,-0.015l0,0.002l0,-0.002Zm8.045,4.645l0,0.002l0,-0.002Zm-8.044,-4.66l-0,0.002l-0,-0.002Zm8.043,4.644l0.001,0.002l-0.001,-0.002Z" style="fill:#d2d2d2;"/><path d="M97.813,109.352c1.403,-0.056 3.682,1.26 5.085,2.936c1.404,1.676 1.404,3.082 0,3.138c-1.403,0.055 -3.682,-1.261 -5.085,-2.937c-1.404,-1.676 -1.404,-3.082 -0,-3.137Z" style="fill:#676767;fill-opacity:0.25;"/><path d="M97.509,108.576c1.571,-0.062 4.122,1.411 5.693,3.287c1.571,1.876 1.571,3.45 -0,3.512c-1.571,0.062 -4.122,-1.41 -5.693,-3.287c-1.57,-1.876 -1.57,-3.449 0,-3.512Z" style="fill:#ededed;"/><path d="M96.335,109.551c0.04,-0.578 0.432,-0.945 1.174,-0.975c1.571,-0.062 4.122,1.411 5.693,3.287c0.742,0.887 1.134,1.706 1.175,2.33l-0,0.001c-0.041,0.577 -0.432,0.944 -1.175,0.974c-1.571,0.062 -4.122,-1.411 -5.693,-3.287c-0.742,-0.887 -1.134,-1.706 -1.174,-2.33Zm-0.004,0.086l0,0l0,0Zm8.049,4.647l0,0l0,0Zm-8.048,-4.662l-0,0.001l-0,-0.001Zm8.048,4.647l-0,0.001l-0,-0.001Zm-8.048,-4.662l-0,0.002l-0,-0.002Zm8.047,4.646l0,0.002l0,-0.002Zm-0,-0.015l-0,0.002l-0,-0.002Zm-8.047,-4.646l0,0.002l0,-0.002Zm0.001,-0.014l0,0.002l0,-0.002Zm8.045,4.644l0,0.002l0,-0.002Zm-8.044,-4.659l-0,0.002l-0,-0.002Zm8.043,4.644l0.001,0.002l-0.001,-0.002Z" style="fill:#d2d2d2;"/><path d="M97.813,108.564c1.403,-0.055 3.682,1.26 5.085,2.936c1.404,1.677 1.404,3.083 0,3.138c-1.403,0.056 -3.682,-1.26 -5.085,-2.936c-1.404,-1.676 -1.404,-3.082 -0,-3.138Z" style="fill:#676767;fill-opacity:0.25;"/><path d="M97.509,107.768c1.571,-0.063 4.122,1.41 5.693,3.286c1.571,1.876 1.571,3.45 -0,3.512c-1.571,0.063 -4.122,-1.41 -5.693,-3.286c-1.57,-1.876 -1.57,-3.45 0,-3.512Z" style="fill:#ededed;"/><path d="M96.335,108.742c0.04,-0.578 0.432,-0.945 1.174,-0.974c1.571,-0.063 4.122,1.41 5.693,3.286c0.742,0.887 1.134,1.706 1.175,2.33l-0,0.001c-0.041,0.577 -0.432,0.945 -1.175,0.974c-1.571,0.062 -4.122,-1.41 -5.693,-3.286c-0.742,-0.887 -1.134,-1.707 -1.174,-2.331Zm-0.004,0.087l0,-0l0,-0Zm8.049,4.647l0,-0l0,-0Zm-8.048,-4.662l-0,0l-0,-0Zm8.048,4.646l-0,0.001l-0,-0.001Zm-8.048,-4.661l-0,0.001l-0,-0.001Zm8.047,4.646l0,0.001l0,-0.001Zm-0,-0.016l-0,0.002l-0,-0.002Zm-8.047,-4.645l0,0.001l0,-0.001Zm0.001,-0.015l0,0.002l0,-0.002Zm8.045,4.645l0,0.002l0,-0.002Zm-8.044,-4.66l-0,0.002l-0,-0.002Zm8.043,4.644l0.001,0.002l-0.001,-0.002Z" style="fill:#d2d2d2;"/><path d="M97.813,107.756c1.403,-0.056 3.682,1.26 5.085,2.936c1.404,1.676 1.404,3.082 0,3.138c-1.403,0.055 -3.682,-1.261 -5.085,-2.937c-1.404,-1.676 -1.404,-3.082 -0,-3.137Z" style="fill:#676767;fill-opacity:0.25;"/><path d="M97.509,106.984c1.571,-0.062 4.122,1.411 5.693,3.287c1.571,1.876 1.571,3.45 -0,3.512c-1.571,0.062 -4.122,-1.411 -5.693,-3.287c-1.57,-1.876 -1.57,-3.45 0,-3.512Z" style="fill:#ededed;"/><path d="M96.335,107.958c0.04,-0.577 0.432,-0.944 1.174,-0.974c1.571,-0.062 4.122,1.411 5.693,3.287c0.742,0.887 1.134,1.706 1.175,2.33l-0,0c-0.041,0.578 -0.432,0.945 -1.175,0.975c-1.571,0.062 -4.122,-1.411 -5.693,-3.287c-0.742,-0.887 -1.134,-1.706 -1.174,-2.331Zm-0.004,0.087l0,0l0,0Zm8.049,4.647l0,0l0,-0Zm-8.048,-4.662l-0,0.001l-0,-0.001Zm8.048,4.647l-0,0l-0,-0Zm-8.048,-4.662l-0,0.001l-0,-0.001Zm8.047,4.646l0,0.002l0,-0.002Zm-0,-0.015l-0,0.001l-0,-0.001Zm-8.047,-4.646l0,0.002l0,-0.002Zm0.001,-0.015l0,0.002l0,-0.002Zm8.045,4.645l0,0.002l0,-0.002Zm-8.044,-4.659l-0,0.002l-0,-0.002Zm8.043,4.643l0.001,0.003l-0.001,-0.003Z" style="fill:#d2d2d2;"/><path d="M97.813,106.972c1.403,-0.056 3.682,1.26 5.085,2.936c1.404,1.676 1.404,3.082 0,3.138c-1.403,0.056 -3.682,-1.26 -5.085,-2.936c-1.404,-1.676 -1.404,-3.082 -0,-3.138Z" style="fill:#676767;fill-opacity:0.25;"/><path d="M97.509,106.212c1.571,-0.063 4.122,1.41 5.693,3.286c1.571,1.876 1.571,3.45 -0,3.512c-1.571,0.063 -4.122,-1.41 -5.693,-3.286c-1.57,-1.876 -1.57,-3.45 0,-3.512Z" style="fill:#ededed;"/><path d="M96.335,107.186c0.04,-0.578 0.432,-0.945 1.174,-0.974c1.571,-0.063 4.122,1.41 5.693,3.286c0.742,0.887 1.134,1.706 1.175,2.33l-0,0.001c-0.041,0.578 -0.432,0.945 -1.175,0.974c-1.571,0.063 -4.122,-1.41 -5.693,-3.286c-0.742,-0.887 -1.134,-1.707 -1.174,-2.331Zm-0.004,0.087l0,-0l0,-0Zm8.049,4.647l0,-0l0,-0Zm-8.048,-4.662l-0,0l-0,-0Zm8.048,4.646l-0,0.001l-0,-0.001Zm-8.048,-4.661l-0,0.001l-0,-0.001Zm8.047,4.646l0,0.001l0,-0.001Zm-0,-0.016l-0,0.002l-0,-0.002Zm-8.047,-4.645l0,0.001l0,-0.001Zm0.001,-0.015l0,0.002l0,-0.002Zm8.045,4.645l0,0.002l0,-0.002Zm-8.044,-4.66l-0,0.002l-0,-0.002Zm8.043,4.644l0.001,0.003l-0.001,-0.003Z" style="fill:#d2d2d2;"/><path d="M97.813,106.2c1.403,-0.056 3.682,1.26 5.085,2.936c1.404,1.676 1.404,3.082 0,3.138c-1.403,0.055 -3.682,-1.26 -5.085,-2.937c-1.404,-1.676 -1.404,-3.082 -0,-3.137Z" style="fill:#676767;fill-opacity:0.25;"/><path d="M97.509,105.428c1.571,-0.062 4.122,1.411 5.693,3.287c1.571,1.876 1.571,3.45 -0,3.512c-1.571,0.062 -4.122,-1.411 -5.693,-3.287c-1.57,-1.876 -1.57,-3.45 0,-3.512Z" style="fill:#ededed;"/><path d="M96.335,106.402c0.04,-0.577 0.432,-0.944 1.174,-0.974c1.571,-0.062 4.122,1.411 5.693,3.287c0.742,0.887 1.134,1.706 1.175,2.33l-0,0c-0.041,0.578 -0.432,0.945 -1.175,0.975c-1.571,0.062 -4.122,-1.411 -5.693,-3.287c-0.742,-0.887 -1.134,-1.706 -1.174,-2.331Zm-0.004,0.087l0,0l0,0Zm8.049,4.647l0,0l0,0Zm-8.048,-4.662l-0,0.001l-0,-0.001Zm8.048,4.647l-0,0l-0,-0Zm-8.048,-4.662l-0,0.001l-0,-0.001Zm8.047,4.646l0,0.002l0,-0.002Zm-0,-0.015l-0,0.002l-0,-0.002Zm-8.047,-4.646l0,0.002l0,-0.002Zm0.001,-0.015l0,0.002l0,-0.002Zm8.045,4.645l0,0.002l0,-0.002Zm-8.044,-4.659l-0,0.002l-0,-0.002Zm8.043,4.643l0.001,0.003l-0.001,-0.003Z" style="fill:#d2d2d2;"/><path d="M97.813,105.416c1.403,-0.056 3.682,1.26 5.085,2.936c1.404,1.676 1.404,3.082 0,3.138c-1.403,0.056 -3.682,-1.26 -5.085,-2.936c-1.404,-1.676 -1.404,-3.082 -0,-3.138Z" style="fill:#676767;fill-opacity:0.25;"/><path d="M97.509,104.63c1.571,-0.062 4.122,1.41 5.693,3.287c1.571,1.876 1.571,3.45 -0,3.512c-1.571,0.062 -4.122,-1.411 -5.693,-3.287c-1.57,-1.876 -1.57,-3.45 0,-3.512Z" style="fill:#ededed;"/><path d="M96.335,105.604c0.04,-0.577 0.432,-0.945 1.174,-0.974c1.571,-0.062 4.122,1.41 5.693,3.287c0.742,0.886 1.134,1.706 1.175,2.33l-0,0c-0.041,0.578 -0.432,0.945 -1.175,0.975c-1.571,0.062 -4.122,-1.411 -5.693,-3.287c-0.742,-0.887 -1.134,-1.706 -1.174,-2.331Zm-0.004,0.087l0,0l0,-0Zm8.049,4.647l0,0l0,-0Zm-8.048,-4.662l-0,0.001l-0,-0.001Zm8.048,4.647l-0,0l-0,-0Zm-8.048,-4.662l-0,0.001l-0,-0.001Zm8.047,4.646l0,0.001l0,-0.001Zm-0,-0.015l-0,0.001l-0,-0.001Zm-8.047,-4.646l0,0.002l0,-0.002Zm0.001,-0.015l0,0.002l0,-0.002Zm8.045,4.645l0,0.002l0,-0.002Zm-8.044,-4.66l-0,0.003l-0,-0.003Zm8.043,4.644l0.001,0.003l-0.001,-0.003Z" style="fill:#d2d2d2;"/><path d="M97.813,104.618c1.403,-0.056 3.682,1.26 5.085,2.936c1.404,1.676 1.404,3.082 0,3.138c-1.403,0.055 -3.682,-1.26 -5.085,-2.936c-1.404,-1.676 -1.404,-3.082 -0,-3.138Z" style="fill:#676767;fill-opacity:0.25;"/><path d="M97.509,103.846c1.571,-0.062 4.122,1.411 5.693,3.287c1.571,1.876 1.571,3.45 -0,3.512c-1.571,0.062 -4.122,-1.41 -5.693,-3.286c-1.57,-1.877 -1.57,-3.45 0,-3.513Z" style="fill:#ededed;"/><path d="M96.335,104.821c0.04,-0.578 0.432,-0.945 1.174,-0.975c1.571,-0.062 4.122,1.411 5.693,3.287c0.742,0.887 1.134,1.706 1.175,2.33l-0,0.001c-0.041,0.577 -0.432,0.945 -1.175,0.974c-1.571,0.062 -4.122,-1.41 -5.693,-3.287c-0.742,-0.887 -1.134,-1.706 -1.174,-2.33Zm-0.004,0.086l0,0l0,0Zm8.049,4.647l0,0l0,0Zm-8.048,-4.662l-0,0.001l-0,-0.001Zm8.048,4.647l-0,0.001l-0,-0.001Zm-8.048,-4.662l-0,0.002l-0,-0.002Zm8.047,4.647l0,0.001l0,-0.001Zm-0,-0.016l-0,0.002l-0,-0.002Zm-8.047,-4.646l0,0.002l0,-0.002Zm0.001,-0.014l0,0.002l0,-0.002Zm8.045,4.644l0,0.003l0,-0.003Zm-8.044,-4.659l-0,0.002l-0,-0.002Zm8.043,4.644l0.001,0.002l-0.001,-0.002Z" style="fill:#d2d2d2;"/><path d="M97.813,103.834c1.403,-0.055 3.682,1.26 5.085,2.937c1.404,1.676 1.404,3.082 0,3.137c-1.403,0.056 -3.682,-1.26 -5.085,-2.936c-1.404,-1.676 -1.404,-3.082 -0,-3.138Z" style="fill:#676767;fill-opacity:0.25;"/><path d="M96.792,97.529c0.031,-0.111 0.335,-0.32 0.895,-0.204c0.162,0.034 0.345,0.095 0.549,0.193c0.482,0.231 0.99,0.508 1.59,1.211c0.449,0.526 0.838,1.037 1.172,1.53c0.294,0.268 0.614,0.607 0.954,1.018c1.424,1.72 2.581,4.415 2.581,6.117c-0,0.435 -0.076,0.761 -0.212,0.976c-0.087,0.137 -0.553,0.498 -0.855,0.527c-0.295,0.028 -0.664,-0.114 -0.973,-0.212c-0.025,-0.006 -0.051,-0.013 -0.078,-0.021l-0.011,-0.003c-0.007,-0.002 -0.015,-0.005 -0.022,-0.007l-0.023,-0.007l-0.01,-0.004c-0.015,-0.005 -0.03,-0.011 -0.045,-0.017l-0.013,-0.005l-0.023,-0.009l-0.024,-0.01l-0.013,-0.006c-0.014,-0.006 -0.028,-0.013 -0.043,-0.019l-0.015,-0.007l-0.024,-0.012l-0.024,-0.013l-0.01,-0.005l-0.014,-0.007l-0.024,-0.014l-0.015,-0.008l-0.01,-0.005l-0.008,-0.005l-0.017,-0.01l-0.018,-0.011l-0.007,-0.003l-0.011,-0.007l-0.014,-0.009l-0.025,-0.015l-0.015,-0.01l-0.01,-0.006l-0.009,-0.006l-0.017,-0.011l-0.019,-0.013l-0.019,-0.013l-0.013,-0.009l-0.026,-0.018l-0.017,-0.012l-0.009,-0.007l-0.009,-0.006l-0.018,-0.014c-0.008,-0.005 -0.015,-0.011 -0.023,-0.016l-0.016,-0.013l-0.016,-0.012l-0.024,-0.018l-0.017,-0.014l-0.019,-0.015l-0.018,-0.015c-0.008,-0.006 -0.016,-0.012 -0.024,-0.019l-0.016,-0.014l-0.015,-0.012c-0.009,-0.007 -0.017,-0.014 -0.025,-0.021l-0.019,-0.016l-0.02,-0.017l-0.017,-0.015c-0.008,-0.008 -0.017,-0.015 -0.025,-0.023l-0.017,-0.015l-0.014,-0.013c-0.017,-0.015 -0.035,-0.031 -0.052,-0.047l-0.014,-0.014l-0.016,-0.015l0,0.006c0,-0 -0.821,0.057 -0.879,0.061c-0.069,0.004 -0.171,-0.062 -0.284,-0.195l-0.757,-0.889c-0.209,-0.245 -0.378,-0.627 -0.378,-0.853l-0,-0.599c-0,-0 -0.266,-0.354 -0.393,-0.549c-0.092,-0.142 -0.253,-0.415 -0.347,-0.577l-0.014,0.006c-0.002,0 -0.004,0.001 -0.005,0.002l-0.015,-0.066l-0.014,-0.024l-0.028,-0.039l-0.028,-0.04l-0.027,-0.04l-0.028,-0.04l-0.028,-0.04l-0.027,-0.04l-0.027,-0.041l-0.027,-0.041l-0.027,-0.041l-0.016,-0.024l-0.011,-0.017l-0.016,-0.025l-0.011,-0.017l-0.016,-0.024l-0.011,-0.017l-0.016,-0.025l-0.01,-0.017l-0.016,-0.025l-0.011,-0.017l-0.016,-0.026l-0.01,-0.016l-0.016,-0.026l-0.01,-0.017l-0.016,-0.026l-0.01,-0.016l-0.016,-0.027l-0.01,-0.016l-0.016,-0.027l-0.01,-0.016l-0.016,-0.027l-0.009,-0.016l-0.016,-0.027l-0.01,-0.016l-0.016,-0.027l-0.009,-0.017l-0.016,-0.027l-0.009,-0.016l-0.016,-0.028l-0.009,-0.016l-0.016,-0.028l-0.009,-0.015l-0.016,-0.029l-0.009,-0.015l-0.016,-0.029l-0.008,-0.015l-0.016,-0.029l-0.009,-0.015l-0.016,-0.029l-0.008,-0.016l-0.016,-0.029l-0.008,-0.015l-0.016,-0.029l-0.008,-0.016l-0.016,-0.029l-0.008,-0.015l-0.016,-0.03l-0.008,-0.015l-0.015,-0.03l-0.008,-0.015l-0.016,-0.03l-0.007,-0.014l-0.016,-0.031l-0.007,-0.014l-0.016,-0.031l-0.007,-0.015l-0.016,-0.03l-0.007,-0.015l-0.016,-0.031l-0.007,-0.014l-0.015,-0.031l-0.007,-0.014l-0.016,-0.032l-0.007,-0.014l-0.015,-0.031l-0.007,-0.014l-0.015,-0.032l-0.006,-0.013l-0.016,-0.033l-0.006,-0.013l-0.015,-0.032l-0.007,-0.014l-0.015,-0.032l-0.006,-0.013l-0.015,-0.033l-0.006,-0.013l-0.015,-0.033l-0.006,-0.013l-0.015,-0.033l-0.006,-0.012l-0.015,-0.034l-0.006,-0.012l-0.014,-0.034l-0.006,-0.012l-0.015,-0.034l-0.02,-0.046l-0.02,-0.046l-0.02,-0.046l-0.019,-0.046l-0.019,-0.046l-0.02,-0.046l-0.018,-0.046l-0.019,-0.046l-0.019,-0.046l-0.018,-0.046l-0.018,-0.046l-0.018,-0.046l-0.017,-0.046l-0.018,-0.046l-0.017,-0.046l-0.017,-0.046l-0.016,-0.046l-0.017,-0.045l-0.016,-0.046l-0.016,-0.046l-0.016,-0.045l-0.016,-0.046l-0.015,-0.045l-0.015,-0.045l-0.015,-0.046l-0.014,-0.045l-0.015,-0.045l-0.014,-0.045l-0.014,-0.045l-0.013,-0.045l-0.014,-0.044l-0.013,-0.045l-0.012,-0.044l-0.013,-0.045l-0.012,-0.044l-0.012,-0.044l-0.012,-0.044l-0.012,-0.044l-0.011,-0.043l-0.011,-0.044l-0.011,-0.043l-0.01,-0.044l-0.01,-0.043l-0.01,-0.043l-0.01,-0.042l-0.009,-0.043l-0.009,-0.042l-0.009,-0.043l-0.009,-0.042l-0.008,-0.042l-0.008,-0.041l-0.007,-0.042l-0.008,-0.041l-0.007,-0.041l-0.007,-0.044l-0.006,-0.041l-0.007,-0.04l-0.005,-0.04l-0.006,-0.04l-0.005,-0.039l-0.005,-0.04l-0.005,-0.039l-0.004,-0.039l-0.004,-0.039l-0.004,-0.038l-0.003,-0.038l-0.003,-0.038l-0.003,-0.038l-0.002,-0.037l-0.002,-0.037l-0.002,-0.037l-0.002,-0.037l-0.001,-0.036l-0.001,-0.036l-0,-0.036c-0,-0.012 -0,-0.024 -0,-0.035l-0,-0.036l0,-0.035l0.001,-0.008l-0,-0.01l0,-0.016l0.001,-0.012l-0,-0.01l0,-0.012l0.001,-0.016l0,-0.008l0.001,-0.009l0,-0.012l0.001,-0.008l0.001,-0.013l0.001,-0.014l0,-0.01l0.001,-0.009l0.001,-0.017l0.001,-0.015l0.003,-0.03c0.001,-0.012 0.002,-0.022 0.003,-0.033c0.001,-0.009 0.002,-0.018 0.003,-0.027l0.001,-0.004c0.001,-0.009 0.002,-0.018 0.003,-0.027l0.001,-0.004c0.001,-0.009 0.002,-0.017 0.003,-0.026l0.001,-0.003c0.001,-0.009 0.003,-0.018 0.004,-0.027l0.003,-0.016l0.002,-0.014c0.001,-0.008 0.003,-0.016 0.004,-0.024l0.001,-0.004c0.002,-0.009 0.003,-0.017 0.005,-0.025l0,-0.003c0.002,-0.009 0.004,-0.017 0.006,-0.025l0.002,-0.013l0.004,-0.014c0.002,-0.008 0.003,-0.016 0.005,-0.024l0.001,-0.003c0.002,-0.008 0.004,-0.015 0.006,-0.023l0.001,-0.003l0.006,-0.023l0.001,-0.002c0.002,-0.008 0.004,-0.015 0.006,-0.023l0.004,-0.012l0.004,-0.012c0.002,-0.008 0.005,-0.015 0.007,-0.022l0.001,-0.003c0.002,-0.007 0.005,-0.014 0.007,-0.02l0.001,-0.003c0.003,-0.007 0.005,-0.014 0.008,-0.021l0,-0.002c0.006,-0.014 0.011,-0.028 0.017,-0.041l0.001,-0.002c0.002,-0.006 0.005,-0.013 0.008,-0.019l0.001,-0.002c0.003,-0.007 0.006,-0.013 0.009,-0.019l0.001,-0.002c0.003,-0.006 0.006,-0.013 0.009,-0.019l0,-0.001c0.007,-0.013 0.013,-0.025 0.02,-0.037l0,-0.001c0.004,-0.006 0.007,-0.012 0.01,-0.018l0.001,-0.001c0.004,-0.006 0.007,-0.012 0.01,-0.017l0.001,-0.002c0.011,-0.017 0.022,-0.034 0.033,-0.05l0.001,-0.001c0.004,-0.005 0.008,-0.01 0.011,-0.015l0.001,-0.001c0.004,-0.005 0.008,-0.01 0.012,-0.015l0,-0.001c0.012,-0.015 0.025,-0.029 0.038,-0.043l0,-0.001c0.005,-0.004 0.009,-0.009 0.013,-0.013l0.001,-0.001c0.017,-0.017 0.036,-0.034 0.055,-0.049l0,-0c0.005,-0.004 0.01,-0.008 0.014,-0.011l0.001,-0.001c0.014,-0.011 0.029,-0.021 0.044,-0.03l0,-0c0.005,-0.004 0.011,-0.007 0.016,-0.01l0,0c0.021,-0.012 0.042,-0.023 0.064,-0.032l0,-0c0.006,-0.002 0.011,-0.005 0.017,-0.007l0,0c0.022,-0.009 0.045,-0.016 0.069,-0.022l0,-0c0.006,-0.002 0.012,-0.003 0.018,-0.005Zm4.548,8.832l0.018,0.013l0.003,0.002l0.017,0.011l0.003,0.003l0.017,0.011l0.02,0.013l0.017,0.01l0.003,0.002l0.016,0.01l0.003,0.002l0.017,0.009l0.013,0.007l0.01,0.006l0.011,0.006l0.01,0.005l0.01,0.005l0.009,0.004l0.013,0.006l0.01,0.005l0.01,0.004l0.01,0.004l0.009,0.004l0.01,0.004l0.012,0.004l0.01,0.003l0.009,0.004l0.01,0.003l0.009,0.002l0.009,0.003l0.011,0.003l0.01,0.003l0.009,0.002l0.009,0.002l0.009,0.001l0.008,0.002l0.011,0.002l0.01,0.001l0.008,0.001l0.009,0.001l0.008,0l0.008,0.001l0.01,0l0.01,0.001l0.008,-0l0.008,-0.001l0.008,-0l0.008,-0.001l0.009,-0l0.009,-0.002l0.008,-0.001l0.007,-0.001l0.008,-0.001l0.007,-0.002l0.009,-0.002l0.008,-0.002l0.008,-0.003l0.007,-0.002l0.007,-0.002l0.006,-0.003l0.009,-0.004l0.008,-0.003l0.006,-0.003l0.007,-0.004l0.006,-0.003l0.007,-0.004l0.006,-0.004l0.005,-0.003l0.007,-0.004l0.006,-0.005l0.005,-0.004l0.006,-0.005l0.006,-0.004l0.003,-0.003l0.005,-0.005l0.006,-0.005l0.005,-0.005l0.006,-0.006l0.005,-0.005l0.005,-0.006l0.003,-0.003l0.01,-0.012l0.009,-0.012l0.009,-0.013l0.008,-0.012l0.008,-0.014l0.007,-0.013l0.008,-0.015l0.008,-0.015l0.007,-0.017l0.006,-0.015l0.006,-0.017l0.006,-0.018l0.005,-0.016l0.001,-0.002l0.005,-0.018l0.005,-0.019l0.004,-0.018l0.001,-0.002l0.004,-0.018l0.004,-0.022c-0.139,-0.013 -0.515,-0.019 -0.764,-0.022c-0.021,0.015 -0.043,0.027 -0.067,0.036l-0.004,0.001l-0.004,0.002c-0.009,0.003 -0.018,0.006 -0.027,0.008l-0.001,-0c-0.009,0.002 -0.018,0.004 -0.028,0.005l-0,0.001c-0.01,0.001 -0.019,0.002 -0.029,0.003l-0.005,-0l-0.006,0c-0.006,0 -0.013,0 -0.019,0l-0.006,0l-0.006,-0c-0.007,-0 -0.013,-0.001 -0.02,-0.002l-0.015,-0.001l-0.007,-0.001l-0.011,-0.002l-0.016,-0.002l-0.007,-0.002c-0.004,-0.001 -0.007,-0.001 -0.01,-0.002c0.089,0.08 0.187,0.157 0.236,0.195l-0,-0.003Zm0.18,-2.575l0.007,0.032l0.001,-0.017l-0.008,-0.015Zm-1.326,-1.356l0.009,0.023l0.009,0.021c0.003,0.007 0.006,0.014 0.009,0.021l0.009,0.023l0.007,0.018l0.009,0.024c0.003,0.007 0.006,0.014 0.009,0.022l0.008,0.023l0.006,0.015l0.009,0.025l0.008,0.022l0.008,0.023l0.005,0.014l0.004,0.011l0.004,0.013l0.008,0.023l0.007,0.023l0.005,0.013l0.003,0.011l0.004,0.013l0.007,0.023l0.007,0.022l0.004,0.013l0.003,0.011l0.004,0.013l0.006,0.023l0.006,0.021l0.007,0.024l0.003,0.013l0.006,0.022l0.005,0.021l0.005,0.023l0.004,0.014l0.005,0.022l0.004,0.019c0,0 -0.009,-0.02 -0.009,-0.02c-0.102,-0.219 -0.17,-0.435 -0.207,-0.645Z" style="fill:#f5f5f5;"/><path d="M98.278,104.3c-1.195,-1.673 -2.099,-3.992 -2.099,-5.497c-0,-1.703 1.156,-1.722 2.58,-0.053c0.45,0.527 0.839,1.037 1.173,1.53c0.294,0.268 0.613,0.608 0.953,1.019c1.424,1.72 2.581,4.414 2.581,6.117c0,1.506 -0.906,1.698 -2.102,0.561l0,0.006c0,-0 -0.162,-0.103 -0.443,-0.369l-0.342,-0.329l-0,0.599c-0,0.226 -0.17,0.211 -0.378,-0.035l-0.757,-0.889c-0.209,-0.245 -0.378,-0.627 -0.378,-0.853l-0,-0.599c-0,-0 -0.266,-0.354 -0.393,-0.549c-0.111,-0.17 -0.321,-0.531 -0.395,-0.659Zm3.062,2.064l-0,-0.003c0.488,0.354 0.836,0.198 0.836,-0.462c-0,-0.575 -0.265,-1.388 -0.656,-2.113c0.093,0.445 0.136,0.868 0.136,1.268c0,0.861 -0.179,1.199 -0.552,1.115c0.089,0.08 0.187,0.157 0.236,0.195Zm-1.437,-4.52c0.37,0.654 0.564,1.259 0.564,1.741c0,0.496 -0.056,0.649 -0.279,0.541c-0.045,-0.022 -0.209,-0.126 -0.371,-0.302c-0.162,-0.177 -0.324,-0.425 -0.379,-0.525c-0.209,-0.374 -0.343,-0.779 -0.343,-1.226c-0,-0.568 0.277,-0.647 0.808,-0.229Zm-1.383,1.265c-0.387,-0.811 -0.588,-1.593 -0.588,-2.444c0,-0.407 0.069,-0.704 0.197,-0.892c-0.393,-0.197 -0.66,-0.031 -0.66,0.546c0,0.66 0.348,1.632 0.836,2.425l-0,0.005c0.041,0.072 0.131,0.225 0.215,0.36Z" style="fill:#fff;fill-opacity:0.66;"/><path d="M96.354,104.672l-0.023,-0.026c-0.739,-0.865 -1.406,-1.804 -1.976,-2.779c-1.321,-2.259 -2.127,-4.716 -2.127,-6.9c-0,-4.644 3.642,-6.311 8.128,-3.721c4.486,2.59 8.128,8.463 8.128,13.106c-0,3.128 -1.654,4.906 -4.104,4.94l-0.022,0.001c0.123,0.792 -0.262,1.317 -1.156,1.352c-1.571,0.062 -4.122,-1.41 -5.693,-3.286c-0.894,-1.068 -1.279,-2.038 -1.155,-2.687Z" style="fill:#ffd607;fill-opacity:0.43;"/><path d="M100,91.049l0,1.018c-3.827,-2.017 -6.877,-0.501 -6.877,3.508c-0,1.944 0.717,4.13 1.893,6.14c0.507,0.868 1.101,1.704 1.759,2.473l0.02,0.023c-0.111,0.577 0.232,1.441 1.028,2.391c1.398,1.669 3.668,2.98 5.065,2.925c0.796,-0.032 1.139,-0.499 1.029,-1.204l0.02,-0c2.18,-0.031 3.651,-1.613 3.651,-4.397c0,-3.873 -2.848,-8.708 -6.494,-11.197l0,-1.022c4.141,2.777 7.39,8.259 7.39,12.645c-0,3.128 -1.654,4.906 -4.104,4.94l-0.022,0.001c0.123,0.792 -0.262,1.317 -1.156,1.352c-1.571,0.062 -4.122,-1.41 -5.693,-3.286c-0.894,-1.068 -1.279,-2.038 -1.155,-2.687l-0.023,-0.026c-0.739,-0.865 -1.406,-1.804 -1.976,-2.779c-1.321,-2.259 -2.127,-4.716 -2.127,-6.9c-0,-4.52 3.451,-6.22 7.772,-3.918Z" style="fill:#fff;fill-opacity:0.38;"/><path d="M111.855,108.384l-0.001,0.008c0.24,2.292 -0.873,3.857 -3.34,4.077c-4.496,0.402 -11.797,-3.813 -16.293,-9.407c-2.467,-3.069 -3.581,-5.919 -3.34,-7.933l-0.001,-0.01l1.868,1.079l-0.001,0.008c0.194,1.564 1.123,3.517 2.789,5.59c3.77,4.69 9.892,8.224 13.662,7.887c1.666,-0.148 2.596,-1.028 2.79,-2.368l-0.002,-0.01l1.869,1.079Z" style="fill:#181919;"/><path d="M111.863,108.491c0.199,2.238 -0.918,3.761 -3.349,3.978c-4.496,0.402 -11.797,-3.813 -16.293,-9.407c-2.431,-3.024 -3.548,-5.836 -3.35,-7.845c0.169,1.9 1.285,4.315 3.35,6.884c4.496,5.593 11.797,9.808 16.293,9.407c2.064,-0.185 3.181,-1.311 3.349,-3.017Z" style="fill:#323232;fill-opacity:0.42;"/><path d="M101.517,94.764l-2.322,-1.34l0,24.769c0,0.845 0.451,1.626 1.183,2.049c0.001,-0 0.001,0 0.002,0c0.234,0.136 0.523,0.136 0.758,0c0.234,-0.135 0.379,-0.385 0.379,-0.656c-0,-5.298 -0,-24.822 -0,-24.822Z" style="fill:#4d4d4d;"/><path d="M101.517,94.764l-2.322,-1.34l0,24.769c0,0.845 0.451,1.626 1.183,2.049c0.001,-0 0.001,0 0.002,0c0.234,0.136 0.523,0.136 0.758,0c0.234,-0.135 0.379,-0.385 0.379,-0.656c-0,-5.298 -0,-24.822 -0,-24.822Z" style="fill:#302f2f;fill-opacity:0.38;"/><path d="M92.331,78.552c-0.031,-0.353 -0.015,-0.681 0.049,-0.979c0.216,-1.014 0.938,-7.54 8.028,-3.409c6.891,4.015 8.09,12.207 7.977,13.605c-0.002,0.016 -0.003,0.033 -0.005,0.049c3.266,4.582 3.019,8.405 -0.738,8.741c-4.022,0.359 -10.551,-3.411 -14.572,-8.413c-3.758,-4.675 -4.004,-8.783 -0.739,-9.594Z" style="fill:#181919;"/><path d="M109.392,89.408c2.146,3.848 1.563,6.855 -1.75,7.151c-4.022,0.359 -10.551,-3.411 -14.572,-8.413c-1.635,-2.034 -2.606,-3.961 -2.911,-5.555c0.459,0.823 1.042,1.683 1.75,2.564c4.022,5.003 10.551,8.773 14.572,8.413c2.387,-0.213 3.357,-1.832 2.911,-4.16Z" style="fill:#2b2b2b;fill-opacity:0.51;"/><path d="M107.989,84.869c0.341,1.397 0.43,2.47 0.396,2.9c-0.099,1.221 -0.88,2.029 -2.343,2.159c-3.138,0.281 -8.234,-2.661 -11.372,-6.565c-0.905,-1.125 -1.548,-2.208 -1.932,-3.187c3.507,4.32 9.148,7.564 12.63,7.253c1.632,-0.145 2.504,-1.047 2.614,-2.409c0.004,-0.044 0.006,-0.095 0.007,-0.151Z" style="fill:#2d2d2d;fill-opacity:0.45;"/><path d="M111.886,108.534c-0.043,0.835 -0.151,1.512 -0.722,2.35c-0,-0 -0.047,0.683 -0.079,0.966c-0.318,2.756 -1.468,4.735 -3.168,5.776c-0.117,0.072 -0.36,0.203 -0.36,0.203c0.129,0.22 0.243,0.533 0.319,1.078c0,-0 0.256,-0.123 0.393,-0.193c2.226,-1.143 3.617,-3.78 3.617,-7.592l-0,-2.588Zm-0.712,-3.852l0.712,2.189l-0,-3.916c-0,-2.361 -0.534,-4.887 -1.469,-7.35c-0.076,-0.202 -0.238,-0.604 -0.238,-0.604l-0.249,0.333c0,0 0.14,0.408 0.206,0.612c0.667,2.068 1.038,4.154 1.038,6.124l0,2.612Z" style="fill:#353535;fill-opacity:0.71;"/><path d="M103.275,72.715l-0,1.748l1.705,-0.402l1.291,1.606l-3.84,-0.019l-0.666,-0.829l1.51,-0.356l-0,-1.748l-3.378,0.973l0,0.742l2.196,2.731l6.502,0.206l-0,-0.742l-3.553,-4.419l-1.767,0.509Z" style="fill:#181919;"/><path d="M102.093,76.419l-2.196,-2.731l0,0.742l2.196,2.731l6.502,0.206l-0,-0.742l-6.502,-0.206Zm-0.328,-1.6l3.215,-0.758l1.291,1.606l-3.84,-0.019l4.438,0.022l-1.889,-2.35l-3.716,0.876l0.501,0.623Z" style="fill:#353535;fill-opacity:0.71;"/><path d="M98.814,74.158c-0.006,-0.068 -0.003,-0.131 0.009,-0.188c0.042,-0.195 0.18,-1.449 1.543,-0.655c1.324,0.772 1.554,2.346 1.533,2.614c-0.001,0.004 -0.001,0.007 -0.001,0.01c0.627,0.88 0.58,1.615 -0.142,1.68c-0.773,0.069 -2.028,-0.656 -2.8,-1.617c-0.723,-0.898 -0.77,-1.688 -0.142,-1.844Z" style="fill:#181919;"/><path d="M102.092,76.245c0.413,0.739 0.3,1.317 -0.336,1.374c-0.773,0.069 -2.028,-0.656 -2.8,-1.617c-0.315,-0.391 -0.501,-0.761 -0.56,-1.067c0.088,0.158 0.201,0.323 0.337,0.492c0.772,0.962 2.027,1.686 2.8,1.617c0.458,-0.041 0.645,-0.352 0.559,-0.799Z" style="fill:#2b2b2b;fill-opacity:0.51;"/><path d="M101.823,75.372c0.065,0.269 0.082,0.475 0.076,0.557c-0.019,0.235 -0.17,0.39 -0.451,0.415c-0.603,0.054 -1.582,-0.511 -2.185,-1.261c-0.174,-0.216 -0.297,-0.424 -0.371,-0.613c0.674,0.831 1.758,1.454 2.427,1.394c0.314,-0.028 0.481,-0.201 0.502,-0.463c0.001,-0.008 0.001,-0.018 0.002,-0.029Z" style="fill:#2d2d2d;fill-opacity:0.45;"/><path d="M90.801,101.131l-0.784,-1.35c-0,-0 0.068,0.45 0.11,0.676c0.539,2.949 1.952,6.093 3.786,8.718c0.063,0.089 0.189,0.265 0.189,0.265l0.084,-0.009c-0,-0 -0.102,-0.156 -0.152,-0.234c-1.522,-2.369 -2.644,-5.035 -3.153,-7.63c-0.029,-0.145 -0.08,-0.436 -0.08,-0.436Zm-0.936,-7.913c0.167,1.361 0.425,2.378 0.712,2.767l-0,-4.323c-0,-1.893 0.404,-3.444 1.118,-4.599c0.085,-0.138 0.268,-0.396 0.268,-0.396l-0.607,-1.021c-0,0 -0.165,0.217 -0.243,0.331c-0.794,1.174 -1.248,2.796 -1.248,4.8l0,2.441Z" style="fill:#353535;fill-opacity:0.71;"/></g></g></svg>