<?xml version="1.0" encoding="UTF-8" standalone="no"?><!DOCTYPE svg PUBLIC "-//W3C//DTD SVG 1.1//EN" "http://www.w3.org/Graphics/SVG/1.1/DTD/svg11.dtd"><svg width="100%" height="100%" viewBox="0 0 200 200" version="1.1" xmlns="http://www.w3.org/2000/svg" xmlns:xlink="http://www.w3.org/1999/xlink" xml:space="preserve" xmlns:serif="http://www.serif.com/" style="fill-rule:evenodd;clip-rule:evenodd;stroke-linejoin:round;stroke-miterlimit:2;"><path d="M148.387,85.071l-96.774,-55.873l-0,85.731l96.774,55.873l0,-85.731Z" style="fill:#014364;"/><path d="M148.387,111.91l-96.774,-55.873l-0,58.892l96.774,55.873l0,-58.892Z" style="fill-opacity:0.18;"/><path d="M148.387,131.177l-96.774,-55.873l-0,39.625l96.774,55.873l0,-39.625Z" style="fill-opacity:0.18;"/><path d="M148.387,152.291l-96.774,-55.873l-0,18.511l96.774,55.873l0,-18.511Z" style="fill-opacity:0.18;"/><path d="M92.643,122.228c0.035,-0.01 0.065,-0.775 0.093,-2.077c0.013,-0.644 -0.126,-1.771 -0.113,-2.651c0.01,-0.767 0.103,-6.376 0.106,-6.691c0.008,-0.934 0.132,-1.313 0.141,-2.297c0.01,-1.196 0.02,-2.419 0.031,-3.647c0.008,-0.927 -0.17,-1.502 -0.162,-2.425c0.009,-0.931 0.004,-7.533 0.032,-9.514c0.021,-1.491 0.301,-3.069 0.327,-4.147c0.044,-1.867 0.096,-3.001 0.158,-3.001c0.447,-0.003 1.447,-0.338 1.963,-0.192c3.35,0.947 5.659,2.587 6.659,4.525c0.325,0.63 0.555,1.229 0.852,1.831c0.085,0.172 1.096,4.065 1.168,4.225c0.055,0.11 0.05,1.366 0.015,3.347c-0.005,0.327 0.193,1.769 0.186,2.134c-0.035,1.726 -0.289,2.757 -0.339,5.081c-0.013,0.604 0.238,1.687 0.225,2.313c-0.071,3.448 -0.401,6.728 -0.419,10.189c-0.006,1.279 0.507,3.918 0.496,5.039c-0.009,1.021 -0.412,1.364 -0.415,2.211c-0.01,2.507 0.224,4.59 0.252,4.6c0.259,0.09 0.706,0.514 0.922,0.695c0.409,0.342 0.772,0.635 1.103,0.814c0.331,0.179 0.543,0.634 0.703,0.928c0.44,0.813 -0.446,0.65 -0.833,0.923c-0.196,0.139 0.223,0.583 0.033,1.122c-0.224,0.636 -1.337,0.052 -1.376,0.506c-0.017,0.192 -0.073,0.271 0.078,0.749c0.151,0.477 0.509,1.354 0.82,1.875c0.343,0.573 0.471,0.67 -0.122,0.905c-1.265,0.501 -1.523,0.579 -2.375,-0.536c-0.805,-1.054 -2.047,-0.507 -3.143,-1.92c-0.55,-0.708 -1.597,-1.836 -2.489,-2.413c-0.774,-0.5 -3.249,0.128 -4.079,-1.066c-1.348,-1.937 -1.137,0.186 -2.987,-2.242c-0.104,-0.136 -0.102,-0.622 -0.065,-0.688c0.074,-0.133 0.261,-0.199 0.365,-0.387c0.351,-0.633 0.443,-0.989 0.481,-1.297c0.076,-0.026 -0.087,0.033 -0.215,-0.03c-0.387,-0.19 -1.067,-0.106 -1.547,-0.841c-0.275,-0.422 -0.433,-0.641 -0.727,-0.904c-0.184,-0.165 -0.542,-0.508 -0.717,-0.747c-0.184,-0.253 -0.324,-0.502 -0.342,-0.571c-0.064,-0.245 0.027,-0.358 0.305,-0.362c0.236,-0.003 0.605,0.073 1.129,0.214c1.758,0.475 2.315,0.379 2.502,-0.104c0.192,-0.496 0.707,-1.326 0.707,-1.326c0,0 -0.194,-0.136 -0.293,-0.377c-0.524,-1.278 -1.121,-2.926 -0.586,-2.747c0.966,0.322 0.712,0.434 1.492,0.974Z" style="fill:#492e17;"/><path d="M137.927,87.189c2.661,1.536 4.821,5.278 4.821,8.351c0,3.073 -2.16,4.32 -4.821,2.784c-2.661,-1.537 -4.822,-5.279 -4.822,-8.351c0,-3.073 2.161,-4.32 4.822,-2.784Z" style="fill:#e8d86b;"/><path d="M83.679,70.91c0.455,-3.748 2.524,-5.957 5.4,-6.129c0.822,-3.488 3.824,-4.696 7.397,-2.633c0.595,0.343 1.174,0.759 1.73,1.234c1.673,-0.416 3.703,-0.054 5.89,1.209c4.589,2.649 8.486,8.465 9.849,14.187c0.771,0.226 1.575,0.575 2.401,1.052c5.722,3.304 10.368,11.529 10.368,18.357c-0,2.25 -0.504,4.069 -1.385,5.379c4.469,3.954 7.776,10.71 7.776,16.471c0,4.297 -1.84,7.023 -4.631,7.63c0.001,0.054 0.001,0.109 0.001,0.163c0,5.018 -3.414,7.12 -7.62,4.693c-1.029,-0.595 -2.01,-1.405 -2.906,-2.365c-1.886,1.244 -4.533,1.168 -7.462,-0.523c-2.771,-1.6 -5.29,-4.354 -7.151,-7.546c-1.313,0.523 -2.991,0.323 -4.817,-0.732c-1.828,-1.055 -3.506,-2.793 -4.82,-4.834c-1.745,0.587 -3.927,0.275 -6.293,-1.091c-2.771,-1.6 -5.29,-4.355 -7.151,-7.547c-1.313,0.523 -2.991,0.323 -4.818,-0.731c-4.205,-2.428 -7.619,-8.473 -7.619,-13.491c-0,-1.933 0.506,-3.433 1.369,-4.409c-1.434,-2.95 -2.292,-6.144 -2.292,-9.079c-0,-4.726 2.226,-7.552 5.494,-7.748c0.822,-3.488 3.824,-4.696 7.397,-2.633c0.595,0.343 1.174,0.759 1.73,1.234c0.668,-0.166 1.393,-0.208 2.163,-0.118Z" style="fill:#854984;"/><path d="M73.226,70.474c1.088,-1.565 2.658,-1.631 3.101,-1.66c1.183,-0.077 1.968,0.216 2.833,0.636c1.332,0.647 2.409,1.563 2.409,1.563c0,-0 -0.763,0.6 -0.911,1.285c1.313,2.04 2.992,3.778 4.819,4.833c1.827,1.055 3.505,1.255 4.818,0.732c1.861,3.192 4.38,5.946 7.151,7.546c2.929,1.691 5.575,1.767 7.461,0.523c0.896,0.96 1.878,1.771 2.907,2.365c4.205,2.428 7.62,0.325 7.62,-4.693c-0,-0.054 -0.001,-0.108 -0.002,-0.163c1.258,-0.273 2.323,-0.977 3.113,-2.062c4.668,3.9 8.169,10.881 8.169,16.808c-0,2.25 -0.504,4.069 -1.385,5.379c4.469,3.954 7.776,10.71 7.776,16.471c0,4.297 -1.84,7.023 -4.631,7.63c0.001,0.054 0.001,0.109 0.001,0.163c0,5.018 -3.414,7.12 -7.62,4.693c-1.029,-0.595 -2.01,-1.405 -2.906,-2.365c-1.886,1.244 -4.533,1.168 -7.462,-0.523c-2.771,-1.6 -5.29,-4.354 -7.151,-7.546c-1.313,0.523 -2.991,0.323 -4.817,-0.732c-1.828,-1.055 -3.506,-2.793 -4.82,-4.834c-1.745,0.587 -3.927,0.275 -6.293,-1.091c-2.771,-1.6 -5.29,-4.355 -7.151,-7.547c-1.313,0.523 -2.991,0.323 -4.818,-0.731c-4.205,-2.428 -7.619,-8.473 -7.619,-13.491c-0,-1.933 0.506,-3.433 1.369,-4.409c-1.434,-2.95 -2.292,-6.144 -2.292,-9.079c-0,-4.726 2.226,-7.552 5.494,-7.748c0.18,-0.763 0.465,-1.418 0.837,-1.953Z" style="fill-opacity:0.18;"/><path d="M124.754,103.406c-0,-0 1.456,-1.15 0.575,0.16c4.469,3.954 7.776,10.71 7.776,16.471c0,4.297 -1.84,7.023 -4.631,7.63c0.001,0.054 0.001,0.109 0.001,0.163c0,5.018 -3.414,7.12 -7.62,4.693c-1.029,-0.595 -2.01,-1.405 -2.906,-2.365c-1.886,1.244 -4.533,1.168 -7.462,-0.523c-2.771,-1.6 -5.29,-4.354 -7.151,-7.546c-1.313,0.523 -2.991,0.323 -4.817,-0.732c-1.828,-1.055 -3.506,-2.793 -4.82,-4.834c-1.745,0.587 -3.927,0.275 -6.293,-1.091c-2.771,-1.6 -5.29,-4.355 -7.151,-7.547c-1.313,0.523 -2.991,0.323 -4.818,-0.731c-4.205,-2.428 -7.619,-8.473 -7.619,-13.491c-0,-1.933 0.506,-3.433 1.369,-4.409c-0.438,-0.902 -0.823,-1.826 -1.145,-2.759c1.74,0.945 3.335,1.109 4.595,0.607c1.861,3.192 4.38,5.946 7.151,7.546c2.366,1.366 4.548,1.678 6.293,1.092c1.314,2.04 2.992,3.779 4.82,4.834c1.826,1.055 3.504,1.254 4.817,0.732c1.861,3.191 4.38,5.946 7.151,7.546c2.929,1.691 5.576,1.767 7.462,0.523c0.896,0.959 1.877,1.77 2.906,2.364c4.206,2.428 7.62,0.325 7.62,-4.692c0,-0.055 -0,-0.109 -0.001,-0.163c1.472,-0.32 2.679,-1.23 3.492,-2.648c0.149,-0.26 0.406,-0.83 0.406,-0.83Z" style="fill-opacity:0.18;"/><path d="M68.117,96.367c2.195,3.549 5.063,6.588 8.199,8.398c2.85,1.646 5.477,2.021 7.579,1.315c1.582,2.458 3.603,4.551 5.804,5.822c2.2,1.27 4.221,1.511 5.802,0.881c2.242,3.844 5.275,7.161 8.613,9.088c3.527,2.037 6.715,2.128 8.986,0.63c1.079,1.156 2.261,2.132 3.501,2.848c5.064,2.924 9.176,0.392 9.176,-5.652c0,-0.065 -0,-0.13 -0.001,-0.196c2.989,-0.65 5.073,-3.318 5.498,-7.541c1.155,2.662 1.831,5.471 1.831,8.077c0,4.297 -1.84,7.023 -4.631,7.63c0.001,0.054 0.001,0.109 0.001,0.163c0,5.018 -3.414,7.12 -7.62,4.693c-1.029,-0.595 -2.01,-1.405 -2.906,-2.365c-1.886,1.244 -4.533,1.168 -7.462,-0.523c-2.771,-1.6 -5.29,-4.354 -7.151,-7.546c-1.313,0.523 -2.991,0.323 -4.817,-0.732c-1.828,-1.055 -3.506,-2.793 -4.82,-4.834c-1.745,0.587 -3.927,0.275 -6.293,-1.091c-2.771,-1.6 -5.29,-4.355 -7.151,-7.547c-1.313,0.523 -2.991,0.323 -4.818,-0.731c-3.469,-2.003 -6.4,-6.468 -7.32,-10.787Z" style="fill-opacity:0.18;"/></svg>