<?xml version="1.0" encoding="UTF-8" standalone="no"?><!DOCTYPE svg PUBLIC "-//W3C//DTD SVG 1.1//EN" "http://www.w3.org/Graphics/SVG/1.1/DTD/svg11.dtd"><svg width="100%" height="100%" viewBox="0 0 200 200" version="1.1" xmlns="http://www.w3.org/2000/svg" xmlns:xlink="http://www.w3.org/1999/xlink" xml:space="preserve" xmlns:serif="http://www.serif.com/" style="fill-rule:evenodd;clip-rule:evenodd;stroke-linejoin:round;stroke-miterlimit:2;"><path d="M124.788,28.764c-30.743,11.737 -53.046,27.602 -72.818,44.705c-4.709,36.067 3.414,69.036 32.005,97.064c21.8,-19.947 45.547,-37.472 72.76,-50.682c-15.414,-5.509 -27.06,-30.669 -31.947,-91.087Z" style="fill:#ffffff;"/><g><path d="M90.978,50.206c3.737,-0.77 7.817,2.117 9.27,7.105c1.453,4.988 -0.558,9.337 -4.006,10.971c-4.691,2.224 -11.268,1.044 -12.72,-3.944c-1.453,-4.989 2.264,-13.064 7.456,-14.132Z" style="fill:#151515;"/><path d="M90.978,50.206c3.663,-1.067 7.817,2.117 9.27,7.105c1.453,4.988 -0.343,9.904 -4.006,10.971c-3.664,1.067 -7.818,-2.116 -9.271,-7.105c-1.453,-4.988 0.343,-9.904 4.007,-10.971Z" style="fill:#747474;fill-opacity:0.36;"/></g></svg>
