<?xml version="1.0" encoding="UTF-8" standalone="no"?><!DOCTYPE svg PUBLIC "-//W3C//DTD SVG 1.1//EN" "http://www.w3.org/Graphics/SVG/1.1/DTD/svg11.dtd"><svg width="100%" height="100%" viewBox="0 0 200 200" version="1.1" xmlns="http://www.w3.org/2000/svg" xmlns:xlink="http://www.w3.org/1999/xlink" xml:space="preserve" xmlns:serif="http://www.serif.com/" style="fill-rule:evenodd;clip-rule:evenodd;stroke-linecap:round;stroke-linejoin:round;stroke-miterlimit:1.5;"><g><path d="M21.987,125.075c0.244,0.911 1.19,1.78 2.683,2.306l81.959,28.879c2.513,0.885 5.631,0.469 6.957,-0.93l70.327,-74.148c0.663,-0.7 0.754,-1.514 0.364,-2.263c-0.244,-0.911 -1.19,-1.779 -2.683,-2.305l-81.959,-28.88c-2.513,-0.885 -5.63,-0.468 -6.957,0.93l-70.326,74.148c-0.664,0.7 -0.754,1.514 -0.365,2.263Zm14.574,-3.799c0.098,0.457 -0.046,0.944 -0.461,1.382c-0.965,1.017 -3.034,1.39 -4.617,0.833c-0.682,-0.241 -1.163,-0.615 -1.413,-1.044c-0.098,-0.456 0.046,-0.943 0.461,-1.381c0.965,-1.018 3.034,-1.391 4.617,-0.833c0.682,0.24 1.163,0.614 1.413,1.043Zm6.339,-6.683c0.097,0.457 -0.046,0.943 -0.462,1.382c-0.965,1.017 -3.034,1.39 -4.617,0.832c-0.681,-0.24 -1.163,-0.614 -1.412,-1.043c-0.098,-0.457 0.045,-0.943 0.461,-1.381c0.965,-1.018 3.034,-1.391 4.617,-0.833c0.682,0.24 1.163,0.614 1.413,1.043Zm6.338,-6.683c0.098,0.457 -0.045,0.943 -0.461,1.381c-0.965,1.018 -3.034,1.391 -4.617,0.833c-0.682,-0.24 -1.163,-0.614 -1.413,-1.043c-0.098,-0.457 0.046,-0.944 0.462,-1.382c0.965,-1.017 3.033,-1.39 4.617,-0.833c0.681,0.241 1.163,0.615 1.412,1.044Zm7.452,-6.884c0.156,0.611 -0.024,1.268 -0.583,1.857c-1.251,1.32 -3.935,1.804 -5.989,1.081c-0.917,-0.323 -1.554,-0.833 -1.867,-1.416c-0.156,-0.611 0.024,-1.268 0.583,-1.857c1.252,-1.32 3.935,-1.804 5.989,-1.081c0.917,0.323 1.554,0.833 1.867,1.416Zm5.226,-6.483c0.098,0.457 -0.046,0.944 -0.461,1.382c-0.965,1.017 -3.034,1.391 -4.617,0.833c-0.682,-0.241 -1.163,-0.614 -1.413,-1.044c-0.098,-0.456 0.046,-0.943 0.461,-1.381c0.965,-1.018 3.034,-1.391 4.617,-0.833c0.682,0.24 1.163,0.614 1.413,1.043Zm6.339,-6.683c0.097,0.457 -0.046,0.943 -0.462,1.382c-0.965,1.017 -3.034,1.39 -4.617,0.832c-0.681,-0.24 -1.163,-0.614 -1.412,-1.043c-0.098,-0.457 0.045,-0.943 0.461,-1.381c0.965,-1.018 3.034,-1.391 4.617,-0.833c0.682,0.24 1.163,0.614 1.413,1.043Zm6.338,-6.683c0.098,0.457 -0.045,0.943 -0.461,1.381c-0.965,1.018 -3.034,1.391 -4.617,0.833c-0.682,-0.24 -1.163,-0.614 -1.413,-1.043c-0.098,-0.457 0.046,-0.944 0.462,-1.382c0.965,-1.017 3.033,-1.39 4.617,-0.833c0.681,0.241 1.163,0.615 1.412,1.044Zm7.308,-6.858c0.155,0.61 -0.024,1.266 -0.583,1.855c-1.25,1.318 -3.93,1.801 -5.981,1.079c-0.916,-0.323 -1.552,-0.832 -1.864,-1.414c-0.156,-0.61 0.024,-1.266 0.582,-1.855c1.25,-1.318 3.93,-1.801 5.981,-1.078c0.916,0.322 1.552,0.831 1.865,1.413Zm5.37,-6.509c0.098,0.457 -0.046,0.944 -0.461,1.382c-0.966,1.017 -3.034,1.391 -4.618,0.833c-0.681,-0.241 -1.162,-0.614 -1.412,-1.044c-0.098,-0.456 0.046,-0.943 0.461,-1.381c0.965,-1.018 3.034,-1.391 4.617,-0.833c0.682,0.24 1.163,0.614 1.413,1.043Zm6.339,-6.683c0.097,0.457 -0.046,0.943 -0.462,1.382c-0.965,1.017 -3.034,1.39 -4.617,0.832c-0.681,-0.24 -1.163,-0.614 -1.412,-1.043c-0.098,-0.457 0.045,-0.943 0.461,-1.381c0.965,-1.018 3.034,-1.391 4.617,-0.833c0.682,0.24 1.163,0.614 1.413,1.043Zm6.338,-6.683c0.098,0.457 -0.045,0.943 -0.461,1.381c-0.965,1.018 -3.034,1.391 -4.617,0.833c-0.682,-0.24 -1.163,-0.614 -1.413,-1.043c-0.098,-0.457 0.046,-0.944 0.462,-1.382c0.965,-1.017 3.033,-1.39 4.617,-0.832c0.681,0.24 1.163,0.614 1.412,1.043Z" style="fill:#f8f8f8;"/><path d="M184.277,78.919l0.018,0.07c0.136,0.601 -0.033,1.217 -0.551,1.763l-70.326,74.148c-1.327,1.399 -4.444,1.816 -6.957,0.93l-81.959,-28.879c-1.256,-0.442 -2.125,-1.127 -2.515,-1.876c0.244,0.911 1.19,1.78 2.683,2.306l81.959,28.879c2.513,0.885 5.631,0.469 6.957,-0.93l70.327,-74.148c0.663,-0.7 0.754,-1.514 0.364,-2.263Zm-152.909,44.529l0.115,0.043l-0.074,-0.027l-0.041,-0.016Zm-0.122,-0.05c0.034,0.015 0.069,0.029 0.105,0.043l-0.105,-0.043Zm4.991,-0.9l-0.059,0.073c0.021,-0.024 0.04,-0.049 0.059,-0.073Zm-5.113,0.846c0.034,0.015 0.068,0.031 0.102,0.046l-0.102,-0.046Zm5.179,-0.934l-0.055,0.074c0.019,-0.025 0.037,-0.05 0.055,-0.074Zm-14.351,2.595l0.002,0.003l-0.002,-0.003Zm14.381,-2.639l-0.024,0.034l0.048,-0.074l-0.024,0.04Zm-5.317,0.924l0.096,0.048l-0.046,-0.022l-0.05,-0.026Zm-9.096,1.644l0.003,0.006l-0.003,-0.006Zm14.486,-2.691l-0.044,0.076c0.015,-0.025 0.03,-0.051 0.044,-0.076Zm-5.493,0.991c0.03,0.017 0.062,0.035 0.094,0.051l-0.094,-0.051Zm-9.023,1.629l0.004,0.008l-0.004,-0.008Zm14.561,-2.709l-0.038,0.075c0.014,-0.025 0.027,-0.05 0.038,-0.075Zm-5.643,1.018c0.029,0.018 0.058,0.035 0.088,0.052l-0.088,-0.052Zm-8.944,1.619l0.004,0.012l-0.004,-0.012Zm14.627,-2.729l-0.034,0.079c0.012,-0.026 0.024,-0.053 0.034,-0.079Zm-5.785,1.044c0.029,0.019 0.058,0.038 0.087,0.057l-0.087,-0.057Zm-8.866,1.614l0.005,0.013l-0.005,-0.013Zm8.781,-1.676l0.082,0.06l-0.048,-0.034l-0.034,-0.026Zm5.888,-1.03l-0.017,0.046l0.029,-0.08l-0.012,0.034Zm-14.69,2.634l0.005,0.016l-0.005,-0.016Zm8.715,-1.671c0.025,0.02 0.051,0.041 0.077,0.06l-0.077,-0.06Zm6.012,-1.085l-0.022,0.079c0.008,-0.026 0.016,-0.052 0.022,-0.079Zm-14.744,2.684l0.004,0.018l-0.004,-0.018Zm14.765,-2.775l-0.018,0.079c0.007,-0.026 0.013,-0.052 0.018,-0.079Zm-6.118,1.104c0.024,0.021 0.048,0.042 0.073,0.063l-0.073,-0.063Zm-8.662,1.599l0.004,0.02l-0.004,-0.02Zm14.801,-2.877l-0.007,0.084l-0.013,0.083c0.01,-0.056 0.017,-0.111 0.02,-0.167Zm-6.217,1.204l-0.068,-0.07c0.044,0.047 0.09,0.093 0.14,0.138l-0.072,-0.068Zm-8.596,1.6l0.003,0.023l-0.003,-0.023Zm-0.009,-0.072l0.003,0.024l-0.003,-0.024Zm-0.006,-0.072l0.002,0.025l-0.002,-0.025Zm8.477,-1.602c0.019,0.023 0.04,0.047 0.061,0.07l-0.061,-0.07Zm6.353,-1.146l-0.001,0.081c0.001,-0.027 0.001,-0.054 0.001,-0.081Zm-14.833,2.675l0.001,0.027l-0.001,-0.027Zm8.313,-1.767c-0.331,-0.567 -0.257,-1.231 0.293,-1.811c0.965,-1.017 3.033,-1.39 4.617,-0.833c1.027,0.363 1.599,1.029 1.61,1.73c-0.001,-0.087 -0.011,-0.172 -0.029,-0.257c-0.25,-0.429 -0.731,-0.803 -1.413,-1.043c-1.583,-0.558 -3.652,-0.185 -4.617,0.833c-0.415,0.438 -0.559,0.925 -0.461,1.381Zm0.049,0.08l-0.049,-0.08c0.046,0.08 0.1,0.157 0.162,0.232l-0.058,-0.074c-0.018,-0.026 -0.036,-0.052 -0.055,-0.078Zm-8.362,1.615l-0,0.028l-0,-0.028Zm0.003,-0.073l-0.002,0.03l0.002,-0.03Zm0.006,-0.072l-0.003,0.03l0.003,-0.03Zm0.009,-0.072l-0.004,0.031l0.004,-0.031Zm0.012,-0.072l-0.005,0.032l0.005,-0.032Zm0.015,-0.072l-0.007,0.032l0.007,-0.032Zm0.019,-0.072l-0.009,0.033l0.009,-0.033Zm0.021,-0.071l-0.01,0.033l0.01,-0.033Zm0.025,-0.071l-0.011,0.033l0.011,-0.033Zm0.028,-0.071l-0.013,0.033l0.013,-0.033Zm0.031,-0.07l-0.015,0.033l0.015,-0.033Zm0.034,-0.07l-0.016,0.032l0.016,-0.032Zm0.038,-0.07l-0.018,0.032l0.018,-0.032Zm0.041,-0.069l-0.019,0.032l0.019,-0.032Zm0.044,-0.069l-0.02,0.031l0.02,-0.031Zm0.047,-0.068l-0.021,0.03l0.021,-0.03Zm0.05,-0.068l-0.021,0.029l0.021,-0.029Zm0.054,-0.067l-0.021,0.027l0.021,-0.027Zm0.057,-0.067l-0.019,0.023l0.019,-0.023Zm15.416,-6.113l0.114,0.042l-0.073,-0.026l-0.041,-0.016Zm-0.123,-0.05c0.035,0.015 0.07,0.029 0.105,0.043l-0.105,-0.043Zm4.992,-0.9l-0.059,0.072c0.02,-0.024 0.04,-0.048 0.059,-0.072Zm-5.113,0.845c0.033,0.016 0.067,0.032 0.102,0.047l-0.102,-0.047Zm5.179,-0.934l-0.055,0.075c0.019,-0.025 0.037,-0.05 0.055,-0.075Zm0.029,-0.044l-0.023,0.035l0.048,-0.074l-0.025,0.039Zm-5.317,0.925l0.097,0.047l-0.046,-0.022l-0.051,-0.025Zm-0.103,-0.056c0.031,0.017 0.063,0.034 0.095,0.051l-0.095,-0.051Zm5.494,-0.991l-0.044,0.076c0.015,-0.025 0.03,-0.051 0.044,-0.076Zm0.045,-0.09l-0.038,0.076c0.014,-0.025 0.026,-0.05 0.038,-0.076Zm-5.643,1.018c0.028,0.018 0.058,0.036 0.088,0.053l-0.088,-0.053Zm5.683,-1.109l-0.034,0.079c0.012,-0.026 0.023,-0.053 0.034,-0.079Zm-5.785,1.043c0.028,0.02 0.057,0.039 0.087,0.057l-0.087,-0.057Zm-0.086,-0.061l0.083,0.059l-0.048,-0.034l-0.035,-0.025Zm5.889,-1.031l-0.017,0.046l0.028,-0.079l-0.011,0.033Zm-5.975,0.964c0.025,0.02 0.05,0.04 0.077,0.06l-0.077,-0.06Zm6.012,-1.085l-0.023,0.079c0.009,-0.026 0.016,-0.053 0.023,-0.079Zm0.021,-0.091l-0.018,0.079c0.007,-0.026 0.013,-0.053 0.018,-0.079Zm-6.118,1.103c0.024,0.022 0.048,0.043 0.073,0.063l-0.073,-0.063Zm6.139,-1.277l-0.007,0.084l-0.013,0.083c0.01,-0.056 0.017,-0.111 0.02,-0.167Zm-6.217,1.204l-0.068,-0.07c0.043,0.047 0.09,0.093 0.139,0.137l-0.071,-0.067Zm-0.135,-0.147c0.02,0.024 0.04,0.048 0.062,0.071l-0.062,-0.071Zm6.354,-1.146l-0.002,0.082c0.002,-0.027 0.002,-0.054 0.002,-0.082Zm-6.358,1.141c-0.504,-0.612 -0.496,-1.382 0.13,-2.043c0.965,-1.017 3.034,-1.391 4.617,-0.833c1.028,0.362 1.6,1.028 1.611,1.729c-0.001,-0.086 -0.011,-0.171 -0.029,-0.256c-0.25,-0.429 -0.731,-0.803 -1.413,-1.043c-1.583,-0.558 -3.652,-0.185 -4.617,0.833c-0.416,0.438 -0.559,0.924 -0.461,1.381c0.046,0.079 0.1,0.157 0.162,0.232Zm7.475,-5.914c0.037,0.014 0.075,0.029 0.114,0.042l-0.114,-0.042Zm-0.123,-0.05c0.035,0.015 0.07,0.029 0.105,0.043l-0.105,-0.043Zm4.992,-0.901l-0.06,0.073c0.021,-0.024 0.041,-0.048 0.06,-0.073Zm-5.113,0.846c0.033,0.016 0.067,0.031 0.101,0.046l-0.101,-0.046Zm5.178,-0.934l-0.054,0.074c0.019,-0.024 0.037,-0.049 0.054,-0.074Zm0.03,-0.044l-0.023,0.035l0.048,-0.074l-0.025,0.039Zm-5.317,0.924l0.096,0.048l-0.045,-0.022l-0.051,-0.026Zm-0.103,-0.056c0.031,0.018 0.062,0.035 0.094,0.052l-0.094,-0.052Zm5.493,-0.991l-0.044,0.077c0.016,-0.026 0.031,-0.051 0.044,-0.077Zm0.046,-0.089l-0.038,0.076c0.013,-0.025 0.026,-0.051 0.038,-0.076Zm-5.644,1.018c0.029,0.018 0.059,0.036 0.089,0.053l-0.089,-0.053Zm5.684,-1.109l-0.034,0.078c0.012,-0.026 0.023,-0.052 0.034,-0.078Zm-5.785,1.043c0.028,0.019 0.057,0.038 0.087,0.057l-0.087,-0.057Zm-0.086,-0.061l0.083,0.059l-0.049,-0.034l-0.034,-0.025Zm5.889,-1.031l-0.017,0.046l0.028,-0.079l-0.011,0.033Zm-5.976,0.963c0.025,0.021 0.051,0.041 0.078,0.061l-0.078,-0.061Zm6.013,-1.084l-0.023,0.078c0.008,-0.026 0.016,-0.052 0.023,-0.078Zm0.02,-0.091l-0.017,0.079c0.007,-0.026 0.012,-0.053 0.017,-0.079Zm-6.117,1.103c0.023,0.021 0.048,0.042 0.073,0.063l-0.073,-0.063Zm6.139,-1.277l-0.008,0.083l-0.012,0.083c0.01,-0.055 0.016,-0.111 0.02,-0.166Zm-6.218,1.204l-0.067,-0.07c0.043,0.047 0.09,0.093 0.139,0.137l-0.072,-0.067Zm6.22,-1.293l-0.002,0.082c0.001,-0.027 0.002,-0.055 0.002,-0.082Zm-6.354,1.146c0.02,0.024 0.04,0.047 0.061,0.071l-0.061,-0.071Zm-0.004,-0.005c-0.505,-0.612 -0.496,-1.383 0.13,-2.043c0.965,-1.018 3.034,-1.391 4.617,-0.833c1.028,0.362 1.6,1.028 1.611,1.729c-0.002,-0.086 -0.012,-0.172 -0.03,-0.256c-0.249,-0.429 -0.731,-0.803 -1.412,-1.044c-1.584,-0.557 -3.652,-0.184 -4.617,0.833c-0.416,0.438 -0.56,0.925 -0.462,1.382c0.047,0.079 0.101,0.157 0.163,0.232Zm7.088,-5.393l0.03,0.011l-0.03,-0.011Zm6.181,-1.115l-0.017,0.019l0.017,-0.019Zm-6.274,1.078l0.034,0.014l-0.009,-0.004l-0.025,-0.01Zm6.314,-1.124l-0.005,0.006l0.019,-0.023l-0.014,0.017Zm-6.402,1.087l0.035,0.015l-0.013,-0.005l-0.022,-0.01Zm6.454,-1.15l-0.008,0.009l0.02,-0.025l-0.012,0.016Zm-6.539,1.113l0.035,0.016l-0.017,-0.008l-0.018,-0.008Zm6.588,-1.177l-0.009,0.012l0.019,-0.025l-0.01,0.013Zm0.046,-0.064l-0.011,0.015l0.018,-0.025l-0.007,0.01Zm-6.717,1.203l0.034,0.016l-0.02,-0.009l-0.014,-0.007Zm-0.081,-0.039l0.033,0.016l-0.023,-0.011l-0.01,-0.005Zm6.842,-1.228l-0.012,0.017l0.017,-0.024l-0.005,0.007Zm0.043,-0.069l-0.014,0.023l0.014,-0.023Zm-6.963,1.256l0.029,0.015l-0.029,-0.015Zm6.999,-1.317l-0.008,0.015l0.008,-0.015Zm-7.076,1.276l0.019,0.01l-0.019,-0.01Zm7.12,-1.358l-0.01,0.02l0.01,-0.02Zm-7.218,1.302l0.024,0.014l-0.024,-0.014Zm7.242,-1.349l-0.003,0.006l0.012,-0.026l-0.009,0.02Zm-7.32,1.302l0.03,0.018l-0.007,-0.004l-0.023,-0.014Zm7.35,-1.368l-0.004,0.01l0.012,-0.028l-0.008,0.018Zm-7.421,1.322l0.031,0.02l-0.011,-0.007l-0.02,-0.013Zm7.448,-1.387l-0.005,0.012l0.011,-0.029l-0.006,0.017Zm-7.517,1.34l0.031,0.022l-0.014,-0.01l-0.017,-0.012Zm-0.066,-0.047l0.031,0.023l-0.018,-0.012l-0.013,-0.011Zm7.608,-1.359l-0.006,0.016l0.011,-0.03l-0.005,0.014Zm-7.672,1.312l0.031,0.023l-0.021,-0.015l-0.01,-0.008Zm7.694,-1.378l-0.007,0.02l0.01,-0.031l-0.003,0.011Zm-7.756,1.329l0.03,0.024l-0.023,-0.018l-0.007,-0.006Zm7.776,-1.395l-0.007,0.024l0.008,-0.032l-0.001,0.008Zm-7.836,1.346l0.031,0.026l-0.027,-0.022l-0.004,-0.004Zm7.852,-1.412l-0.007,0.028l0.008,-0.033l-0.001,0.005Zm127.55,-23.033l0.007,0.021l-0.007,-0.021Zm-135.457,24.398l0.036,0.031l-0.038,-0.033l-0.033,-0.03l0.035,0.032Zm7.922,-1.431l-0.009,0.041l0.008,-0.039l0.007,-0.039l-0.006,0.037Zm127.511,-23.035l0.004,0.01l-0.01,-0.027l0.006,0.017Zm-127.5,22.969l-0.001,0.007l0.006,-0.039l-0.005,0.032Zm-8.021,1.416l0.034,0.031l-0.007,-0.005l-0.027,-0.026Zm135.488,-24.47l0.006,0.015l-0.012,-0.028l0.006,0.013Zm-135.539,24.418l0.032,0.033l-0.01,-0.01l-0.022,-0.023Zm8.081,-1.43l-0.001,0.011l0.004,-0.039l-0.003,0.028Zm-8.132,1.378l0.032,0.033l-0.013,-0.013l-0.019,-0.02Zm8.139,-1.444l-0.002,0.015l0.003,-0.039l-0.001,0.024Zm127.414,-23.006l0.008,0.018l-0.012,-0.026l0.004,0.008Zm-135.601,24.397l0.032,0.035l-0.017,-0.018l-0.015,-0.017Zm8.191,-1.457l-0.001,0.02l0.001,-0.041l-0,0.021Zm127.368,-23.026l0.007,0.015l-0.007,-0.015Zm-135.605,24.429l0.032,0.037l-0.02,-0.022l-0.012,-0.015Zm8.238,-1.469l-0,0.026l-0,-0.043l0,0.017Zm-8.282,1.415l0.033,0.041l-0.024,-0.03l-0.009,-0.011Zm8.281,-1.481l0.001,0.034l-0.002,-0.047l0.001,0.013Zm127.315,-22.99l0.011,0.018l-0.011,-0.018Zm-135.6,24.465c-0.615,-0.785 -0.589,-1.762 0.207,-2.602c1.252,-1.32 3.936,-1.804 5.99,-1.08c1.306,0.46 2.045,1.299 2.087,2.188c-0.005,-0.115 -0.023,-0.23 -0.052,-0.343c-0.313,-0.583 -0.95,-1.093 -1.867,-1.416c-2.054,-0.723 -4.737,-0.239 -5.989,1.081c-0.559,0.589 -0.739,1.246 -0.583,1.857c0.058,0.108 0.127,0.213 0.207,0.315Zm135.56,-24.533l0.005,0.009l-0.016,-0.026l0.011,0.017Zm-0.053,-0.082l0.009,0.014l-0.019,-0.028l0.01,0.014Zm-0.057,-0.081l0.012,0.017l-0.019,-0.026l0.007,0.009Zm-0.064,-0.085l0.016,0.021l-0.016,-0.021Zm-0.069,-0.085l0.009,0.011l-0.009,-0.011Zm-0.06,-0.069l0.006,0.007l-0.022,-0.025l0.016,0.018Zm-0.072,-0.078l0.011,0.012l-0.026,-0.027l0.015,0.015Zm-0.076,-0.077l0.016,0.016l-0.027,-0.027l0.011,0.011Zm-0.08,-0.076l0.018,0.017l-0.024,-0.023l0.006,0.006Zm-0.083,-0.075l0.003,0.003l-0.003,-0.003Zm-0.087,-0.074l0.006,0.005l-0.026,-0.021l0.02,0.016Zm-0.09,-0.073l0.012,0.01l-0.032,-0.025l0.02,0.015Zm-0.094,-0.071l0.018,0.014l-0.034,-0.025l0.016,0.011Zm-0.098,-0.07l0.022,0.016l-0.032,-0.023l0.01,0.007Zm-0.104,-0.071l0.02,0.014l-0.02,-0.014Zm-0.124,-0.079l0.027,0.017l-0.027,-0.017Zm-0.086,-0.052l0.012,0.007l-0.037,-0.021l0.025,0.014Zm-0.112,-0.064l0.02,0.011l-0.04,-0.023l0.02,0.012Zm-0.115,-0.063l0.026,0.014l-0.04,-0.021l0.014,0.007Zm-0.124,-0.064l0.031,0.016l-0.031,-0.016Zm-0.135,-0.066l0.021,0.01l-0.021,-0.01Zm-0.107,-0.049l0.012,0.006l-0.041,-0.019l0.029,0.013Zm-0.128,-0.056l0.02,0.009l-0.046,-0.019l0.026,0.01Zm-0.132,-0.054l0.028,0.012l-0.047,-0.019l0.019,0.007Zm-0.135,-0.052l0.031,0.012l-0.041,-0.016l0.01,0.004Zm-125.01,20.051c0.038,0.015 0.076,0.029 0.115,0.043l-0.115,-0.043Zm-0.122,-0.05c0.034,0.015 0.069,0.029 0.105,0.043l-0.105,-0.043Zm4.991,-0.9l-0.059,0.073c0.021,-0.024 0.04,-0.049 0.059,-0.073Zm-5.113,0.846c0.034,0.015 0.068,0.031 0.102,0.046l-0.102,-0.046Zm5.179,-0.934l-0.055,0.074c0.019,-0.025 0.037,-0.049 0.055,-0.074Zm-5.287,0.88l0.096,0.048l-0.046,-0.022l-0.05,-0.026Zm5.317,-0.924l-0.024,0.034l0.048,-0.074l-0.024,0.04Zm-5.42,0.868c0.03,0.017 0.062,0.035 0.094,0.051l-0.094,-0.051Zm5.493,-0.991l-0.044,0.076c0.015,-0.025 0.03,-0.05 0.044,-0.076Zm0.045,-0.089l-0.038,0.075c0.014,-0.025 0.026,-0.05 0.038,-0.075Zm-5.643,1.018c0.029,0.018 0.058,0.035 0.088,0.053l-0.088,-0.053Zm-0.102,-0.066c0.029,0.019 0.058,0.038 0.087,0.057l-0.087,-0.057Zm5.785,-1.044l-0.034,0.079c0.012,-0.026 0.024,-0.052 0.034,-0.079Zm-5.87,0.982l0.082,0.06l-0.048,-0.034l-0.034,-0.026Zm5.888,-1.03l-0.017,0.046l0.029,-0.08l-0.012,0.034Zm-5.975,0.963c0.025,0.021 0.051,0.041 0.077,0.06l-0.077,-0.06Zm6.012,-1.085l-0.022,0.079c0.008,-0.026 0.016,-0.052 0.022,-0.079Zm0.021,-0.091l-0.018,0.079c0.007,-0.026 0.013,-0.052 0.018,-0.079Zm-6.118,1.104c0.024,0.021 0.048,0.042 0.073,0.063l-0.073,-0.063Zm6.139,-1.277l-0.007,0.083l-0.013,0.083c0.01,-0.056 0.017,-0.111 0.02,-0.166Zm-6.217,1.203l-0.068,-0.07c0.044,0.047 0.09,0.093 0.14,0.138l-0.072,-0.068Zm6.219,-1.292l-0.001,0.082c0.001,-0.028 0.001,-0.055 0.001,-0.082Zm-6.353,1.146c0.019,0.023 0.04,0.047 0.061,0.07l-0.061,-0.07Zm-0.167,-0.238c-0.331,-0.567 -0.257,-1.231 0.293,-1.811c0.965,-1.017 3.033,-1.39 4.617,-0.832c1.027,0.362 1.599,1.028 1.61,1.729c-0.001,-0.087 -0.011,-0.172 -0.029,-0.257c-0.25,-0.429 -0.731,-0.803 -1.413,-1.043c-1.583,-0.558 -3.652,-0.185 -4.617,0.833c-0.415,0.438 -0.559,0.925 -0.461,1.381Zm0.049,0.08l-0.049,-0.08c0.046,0.08 0.1,0.157 0.162,0.232l-0.058,-0.074c-0.018,-0.026 -0.036,-0.052 -0.055,-0.078Zm7.588,-5.762c0.038,0.015 0.076,0.029 0.114,0.042l-0.114,-0.042Zm4.869,-0.95l-0.059,0.072c0.02,-0.024 0.04,-0.048 0.059,-0.072Zm-4.992,0.9c0.035,0.015 0.07,0.029 0.105,0.043l-0.105,-0.043Zm-0.121,-0.055c0.033,0.016 0.067,0.032 0.102,0.047l-0.102,-0.047Zm5.178,-0.934l-0.054,0.075c0.019,-0.025 0.037,-0.05 0.054,-0.075Zm0.03,-0.044l-0.023,0.035l0.048,-0.074l-0.025,0.039Zm-5.317,0.925l0.097,0.048l-0.046,-0.023l-0.051,-0.025Zm-0.103,-0.056c0.031,0.017 0.063,0.034 0.095,0.051l-0.095,-0.051Zm5.494,-0.991l-0.044,0.076c0.015,-0.025 0.03,-0.051 0.044,-0.076Zm0.045,-0.09l-0.038,0.076c0.014,-0.025 0.026,-0.05 0.038,-0.076Zm-5.643,1.018c0.028,0.018 0.058,0.036 0.088,0.053l-0.088,-0.053Zm5.683,-1.109l-0.034,0.079c0.012,-0.026 0.023,-0.053 0.034,-0.079Zm-5.785,1.043c0.028,0.02 0.057,0.039 0.087,0.057l-0.087,-0.057Zm-0.086,-0.061l0.083,0.059l-0.048,-0.034l-0.035,-0.025Zm5.889,-1.031l-0.017,0.046l0.028,-0.079l-0.011,0.033Zm-5.975,0.964c0.025,0.02 0.05,0.04 0.077,0.06l-0.077,-0.06Zm6.012,-1.085l-0.023,0.079c0.009,-0.026 0.016,-0.053 0.023,-0.079Zm0.021,-0.091l-0.018,0.079c0.007,-0.026 0.013,-0.053 0.018,-0.079Zm-6.118,1.103c0.024,0.022 0.048,0.043 0.073,0.063l-0.073,-0.063Zm6.139,-1.277l-0.007,0.084l-0.013,0.083c0.01,-0.056 0.017,-0.111 0.02,-0.167Zm-6.217,1.204l-0.068,-0.07c0.043,0.047 0.09,0.093 0.139,0.138l-0.071,-0.068Zm-0.135,-0.147c0.02,0.024 0.04,0.048 0.062,0.071l-0.062,-0.071Zm6.354,-1.146l-0.002,0.082c0.002,-0.027 0.002,-0.054 0.002,-0.082Zm-6.358,1.141c-0.504,-0.612 -0.496,-1.382 0.13,-2.043c0.965,-1.017 3.034,-1.391 4.617,-0.833c1.028,0.362 1.6,1.028 1.611,1.729c-0.002,-0.086 -0.011,-0.171 -0.029,-0.256c-0.25,-0.429 -0.731,-0.803 -1.413,-1.043c-1.583,-0.558 -3.652,-0.185 -4.617,0.833c-0.416,0.438 -0.559,0.924 -0.461,1.381c0.046,0.079 0.1,0.157 0.162,0.232Zm7.475,-5.914c0.037,0.015 0.075,0.029 0.114,0.042l-0.114,-0.042Zm-0.123,-0.05c0.035,0.015 0.07,0.029 0.105,0.043l-0.105,-0.043Zm4.992,-0.901l-0.06,0.073c0.021,-0.024 0.041,-0.048 0.06,-0.073Zm-5.113,0.846c0.033,0.016 0.067,0.031 0.101,0.046l-0.101,-0.046Zm5.178,-0.934l-0.054,0.074c0.019,-0.024 0.037,-0.049 0.054,-0.074Zm0.03,-0.044l-0.023,0.035l0.048,-0.074l-0.025,0.039Zm-5.317,0.924l0.096,0.048l-0.045,-0.022l-0.051,-0.026Zm-0.103,-0.056c0.031,0.018 0.062,0.035 0.094,0.052l-0.094,-0.052Zm5.493,-0.991l-0.044,0.077c0.016,-0.025 0.031,-0.051 0.044,-0.077Zm0.046,-0.089l-0.038,0.076c0.013,-0.025 0.026,-0.05 0.038,-0.076Zm-5.644,1.018c0.029,0.018 0.059,0.036 0.089,0.053l-0.089,-0.053Zm-0.101,-0.066c0.028,0.019 0.057,0.038 0.087,0.057l-0.087,-0.057Zm5.785,-1.043l-0.034,0.079c0.012,-0.027 0.023,-0.053 0.034,-0.079Zm-5.871,0.982l0.083,0.059l-0.049,-0.034l-0.034,-0.025Zm5.889,-1.031l-0.017,0.046l0.028,-0.079l-0.011,0.033Zm-5.976,0.964c0.025,0.02 0.051,0.04 0.078,0.06l-0.078,-0.06Zm6.013,-1.085l-0.023,0.078c0.008,-0.026 0.016,-0.052 0.023,-0.078Zm0.02,-0.091l-0.017,0.079c0.007,-0.026 0.012,-0.053 0.017,-0.079Zm-6.117,1.103c0.023,0.021 0.048,0.042 0.073,0.063l-0.073,-0.063Zm6.139,-1.277l-0.008,0.083l-0.012,0.083c0.01,-0.055 0.016,-0.111 0.02,-0.166Zm-6.218,1.204l-0.067,-0.07c0.043,0.047 0.09,0.093 0.139,0.137l-0.072,-0.067Zm-0.134,-0.147c0.02,0.024 0.04,0.047 0.061,0.071l-0.061,-0.071Zm6.354,-1.146l-0.002,0.082c0.001,-0.027 0.002,-0.055 0.002,-0.082Zm-6.521,0.909c-0.33,-0.568 -0.256,-1.232 0.293,-1.811c0.965,-1.018 3.034,-1.391 4.617,-0.833c1.028,0.362 1.6,1.028 1.611,1.729c-0.002,-0.086 -0.012,-0.172 -0.03,-0.256c-0.249,-0.429 -0.731,-0.803 -1.412,-1.044c-1.584,-0.557 -3.652,-0.184 -4.617,0.833c-0.416,0.438 -0.56,0.925 -0.462,1.382Zm0.05,0.08l-0.05,-0.08c0.047,0.079 0.101,0.157 0.163,0.232l-0.058,-0.074c-0.019,-0.026 -0.037,-0.052 -0.055,-0.078Zm13.238,-6.333l-0.017,0.02l0.017,-0.02Zm-6.172,1.114l0.029,0.011l-0.029,-0.011Zm-0.094,-0.037l0.034,0.014l-0.009,-0.004l-0.025,-0.01Zm6.306,-1.123l-0.005,0.006l0.019,-0.023l-0.014,0.017Zm0.052,-0.063l-0.008,0.009l0.02,-0.024l-0.012,0.015Zm-6.446,1.15l0.035,0.014l-0.013,-0.005l-0.022,-0.009Zm6.495,-1.213l-0.01,0.012l0.019,-0.025l-0.009,0.013Zm-6.58,1.175l0.035,0.016l-0.017,-0.008l-0.018,-0.008Zm6.626,-1.239l-0.011,0.015l0.018,-0.025l-0.007,0.01Zm-6.709,1.201l0.035,0.016l-0.021,-0.009l-0.014,-0.007Zm6.752,-1.265l-0.011,0.017l0.016,-0.024l-0.005,0.007Zm-6.832,1.226l0.032,0.016l-0.022,-0.011l-0.01,-0.005Zm-0.078,-0.04l0.028,0.014l-0.028,-0.014Zm6.954,-1.255l-0.014,0.023l0.014,-0.023Zm0.036,-0.061l-0.008,0.013l0.008,-0.013Zm-7.067,1.274l0.017,0.01l-0.017,-0.01Zm-0.096,-0.055l0.022,0.013l-0.022,-0.013Zm7.206,-1.299l-0.01,0.018l0.01,-0.018Zm-7.284,1.252l0.028,0.017l-0.007,-0.004l-0.021,-0.013Zm7.308,-1.301l-0.003,0.006l0.012,-0.025l-0.009,0.019Zm0.03,-0.065l-0.004,0.008l0.012,-0.026l-0.008,0.018Zm-7.41,1.32l0.029,0.019l-0.01,-0.006l-0.019,-0.013Zm-0.069,-0.046l0.03,0.02l-0.013,-0.009l-0.017,-0.011Zm7.506,-1.34l-0.005,0.012l0.011,-0.028l-0.006,0.016Zm-7.572,1.293l0.029,0.021l-0.016,-0.012l-0.013,-0.009Zm7.597,-1.359l-0.006,0.016l0.01,-0.029l-0.004,0.013Zm-7.661,1.311l0.029,0.022l-0.019,-0.014l-0.01,-0.008Zm7.683,-1.377l-0.006,0.019l0.009,-0.028l-0.003,0.009Zm-7.745,1.329l0.028,0.021l-0.022,-0.016l-0.006,-0.005Zm7.765,-1.394l-0.007,0.021l0.008,-0.028l-0.001,0.007Zm-7.825,1.345l0.026,0.021l-0.026,-0.021Zm7.842,-1.415l-0.007,0.027l0.007,-0.027Zm-7.897,1.367l0.01,0.008l-0.012,-0.01l-0.025,-0.023l0.027,0.025Zm7.911,-1.429l-0.003,0.013l0.002,-0.011l0.006,-0.03l-0.005,0.028Zm-7.995,1.351l0.029,0.028l-0.006,-0.005l-0.023,-0.023Zm8.006,-1.417l-0.001,0.006l0.005,-0.034l-0.004,0.028Zm-8.059,1.365l0.029,0.029l-0.009,-0.009l-0.02,-0.02Zm8.068,-1.431l-0.001,0.01l0.004,-0.035l-0.003,0.025Zm0.007,-0.066l-0.002,0.014l0.003,-0.036l-0.001,0.022Zm-8.126,1.444l0.029,0.03l-0.012,-0.012l-0.017,-0.018Zm-0.048,-0.053l0.028,0.032l-0.015,-0.017l-0.013,-0.015Zm8.178,-1.457l-0.001,0.019l0.001,-0.038l-0,0.019Zm-8.225,1.403l0.029,0.034l-0.018,-0.021l-0.011,-0.013Zm8.226,-1.469l-0,0.024l-0,-0.039l0,0.015Zm-8.27,1.414l0.03,0.038l-0.022,-0.027l-0.008,-0.011Zm8.269,-1.48l0.001,0.031l-0.002,-0.042l0.001,0.011Zm-8.277,1.47c-0.611,-0.784 -0.584,-1.758 0.21,-2.595c1.25,-1.318 3.931,-1.802 5.981,-1.079c1.303,0.459 2.04,1.295 2.085,2.181c-0.006,-0.114 -0.023,-0.227 -0.051,-0.338c-0.313,-0.582 -0.949,-1.091 -1.865,-1.413c-2.051,-0.723 -4.731,-0.24 -5.981,1.078c-0.558,0.589 -0.738,1.245 -0.582,1.855c0.056,0.106 0.124,0.21 0.203,0.311Zm8.402,-6.168l0.114,0.043l-0.073,-0.027l-0.041,-0.016Zm-0.122,-0.05c0.034,0.015 0.069,0.029 0.105,0.043l-0.105,-0.043Zm4.991,-0.9l-0.059,0.073c0.021,-0.024 0.04,-0.049 0.059,-0.073Zm-5.113,0.846c0.034,0.015 0.068,0.031 0.102,0.046l-0.102,-0.046Zm5.179,-0.934l-0.055,0.074c0.019,-0.025 0.037,-0.049 0.055,-0.074Zm-5.287,0.88l0.096,0.048l-0.046,-0.022l-0.05,-0.026Zm5.317,-0.924l-0.024,0.034l0.048,-0.074l-0.024,0.04Zm-5.42,0.868c0.03,0.017 0.062,0.035 0.094,0.051l-0.094,-0.051Zm5.493,-0.991l-0.044,0.077c0.015,-0.026 0.03,-0.051 0.044,-0.077Zm0.045,-0.089l-0.038,0.075c0.014,-0.025 0.026,-0.05 0.038,-0.075Zm-5.643,1.018c0.029,0.018 0.058,0.035 0.088,0.053l-0.088,-0.053Zm-0.102,-0.066c0.029,0.019 0.058,0.038 0.087,0.057l-0.087,-0.057Zm5.785,-1.044l-0.034,0.079c0.012,-0.026 0.024,-0.052 0.034,-0.079Zm-5.87,0.982l0.082,0.06l-0.048,-0.034l-0.034,-0.026Zm5.888,-1.03l-0.017,0.046l0.028,-0.08l-0.011,0.034Zm-5.975,0.963c0.025,0.021 0.051,0.041 0.077,0.06l-0.077,-0.06Zm6.012,-1.084l-0.022,0.078c0.008,-0.026 0.016,-0.052 0.022,-0.078Zm0.021,-0.092l-0.018,0.079c0.007,-0.026 0.013,-0.052 0.018,-0.079Zm-6.118,1.104c0.024,0.021 0.048,0.042 0.073,0.063l-0.073,-0.063Zm6.139,-1.277l-0.007,0.083l-0.013,0.083c0.01,-0.056 0.017,-0.111 0.02,-0.166Zm-6.217,1.203l-0.068,-0.07c0.044,0.047 0.09,0.093 0.14,0.138l-0.072,-0.068Zm6.219,-1.292l-0.002,0.082c0.002,-0.028 0.002,-0.055 0.002,-0.082Zm-6.353,1.146c0.019,0.023 0.04,0.047 0.061,0.07l-0.061,-0.07Zm-0.005,-0.006c-0.504,-0.612 -0.496,-1.382 0.131,-2.043c0.965,-1.017 3.033,-1.39 4.617,-0.832c1.027,0.362 1.599,1.028 1.61,1.729c-0.001,-0.086 -0.011,-0.172 -0.029,-0.257c-0.25,-0.429 -0.731,-0.803 -1.413,-1.043c-1.583,-0.558 -3.652,-0.185 -4.617,0.833c-0.415,0.438 -0.559,0.925 -0.461,1.381c0.046,0.08 0.1,0.157 0.162,0.232Zm7.475,-5.914l0.114,0.042l-0.073,-0.026l-0.041,-0.016Zm4.869,-0.95l-0.059,0.072c0.02,-0.024 0.04,-0.048 0.059,-0.072Zm-4.992,0.9c0.035,0.015 0.07,0.029 0.105,0.043l-0.105,-0.043Zm-0.121,-0.055c0.033,0.016 0.067,0.032 0.102,0.047l-0.102,-0.047Zm5.178,-0.934l-0.054,0.075c0.019,-0.025 0.037,-0.05 0.054,-0.075Zm0.03,-0.044l-0.023,0.035l0.048,-0.074l-0.025,0.039Zm-5.317,0.925l0.097,0.048l-0.046,-0.023l-0.051,-0.025Zm-0.103,-0.056c0.031,0.017 0.063,0.034 0.095,0.051l-0.095,-0.051Zm5.494,-0.991l-0.044,0.076c0.015,-0.025 0.03,-0.051 0.044,-0.076Zm0.045,-0.089l-0.038,0.075c0.014,-0.025 0.026,-0.05 0.038,-0.075Zm-5.643,1.018c0.028,0.017 0.058,0.035 0.088,0.052l-0.088,-0.052Zm5.683,-1.11l-0.034,0.079c0.012,-0.026 0.023,-0.053 0.034,-0.079Zm-5.785,1.043c0.028,0.02 0.057,0.039 0.087,0.057l-0.087,-0.057Zm5.803,-1.092l-0.017,0.046l0.028,-0.079l-0.011,0.033Zm-5.889,1.031l0.083,0.059l-0.048,-0.034l-0.035,-0.025Zm-0.086,-0.067c0.025,0.02 0.05,0.04 0.077,0.06l-0.077,-0.06Zm6.012,-1.085l-0.023,0.079c0.009,-0.026 0.016,-0.053 0.023,-0.079Zm0.021,-0.091l-0.018,0.079c0.007,-0.026 0.013,-0.053 0.018,-0.079Zm-6.118,1.103c0.024,0.022 0.048,0.043 0.073,0.063l-0.073,-0.063Zm6.139,-1.277l-0.007,0.084l-0.013,0.083c0.01,-0.056 0.017,-0.111 0.02,-0.167Zm-6.217,1.204l-0.068,-0.07c0.043,0.047 0.09,0.093 0.139,0.138l-0.071,-0.068Zm-0.135,-0.147c0.02,0.024 0.04,0.048 0.062,0.071l-0.062,-0.071Zm6.354,-1.146l-0.002,0.082c0.002,-0.027 0.002,-0.054 0.002,-0.082Zm-6.358,1.141c-0.504,-0.612 -0.496,-1.382 0.13,-2.043c0.965,-1.017 3.034,-1.391 4.617,-0.833c1.028,0.362 1.6,1.028 1.611,1.729c-0.002,-0.086 -0.011,-0.171 -0.029,-0.256c-0.25,-0.429 -0.731,-0.803 -1.413,-1.043c-1.583,-0.558 -3.652,-0.185 -4.617,0.833c-0.416,0.438 -0.559,0.924 -0.461,1.381c0.046,0.079 0.1,0.157 0.162,0.232Zm7.475,-5.914l0.114,0.042l-0.073,-0.026l-0.041,-0.016Zm4.869,-0.951l-0.06,0.073c0.021,-0.024 0.041,-0.048 0.06,-0.073Zm-4.992,0.901c0.035,0.015 0.07,0.029 0.105,0.043l-0.105,-0.043Zm-0.121,-0.055c0.033,0.016 0.067,0.031 0.101,0.046l-0.101,-0.046Zm5.178,-0.934l-0.054,0.074c0.019,-0.024 0.037,-0.049 0.054,-0.074Zm0.03,-0.044l-0.023,0.035l0.048,-0.074l-0.025,0.039Zm-5.317,0.924l0.096,0.048l-0.045,-0.022l-0.051,-0.026Zm-0.103,-0.056c0.031,0.018 0.062,0.035 0.094,0.052l-0.094,-0.052Zm5.493,-0.991l-0.044,0.077c0.016,-0.025 0.031,-0.051 0.044,-0.077Zm0.046,-0.089l-0.038,0.076c0.013,-0.025 0.026,-0.05 0.038,-0.076Zm-5.644,1.018c0.029,0.018 0.059,0.036 0.089,0.053l-0.089,-0.053Zm5.684,-1.109l-0.034,0.079c0.012,-0.027 0.023,-0.053 0.034,-0.079Zm-5.785,1.043c0.028,0.019 0.057,0.038 0.087,0.057l-0.087,-0.057Zm5.803,-1.092l-0.017,0.046l0.028,-0.079l-0.011,0.033Zm-5.889,1.031l0.083,0.059l-0.049,-0.034l-0.034,-0.025Zm5.926,-1.152l-0.023,0.078c0.008,-0.026 0.016,-0.052 0.023,-0.078Zm-6.013,1.085c0.025,0.02 0.051,0.04 0.078,0.06l-0.078,-0.06Zm6.033,-1.176l-0.017,0.079c0.007,-0.026 0.012,-0.053 0.017,-0.079Zm-6.117,1.103c0.023,0.021 0.048,0.042 0.073,0.063l-0.073,-0.063Zm6.139,-1.277l-0.008,0.083l-0.012,0.083c0.01,-0.055 0.016,-0.111 0.02,-0.166Zm-6.218,1.204l-0.067,-0.07c0.043,0.047 0.09,0.093 0.139,0.137l-0.072,-0.067Zm-0.134,-0.147c0.02,0.024 0.04,0.048 0.061,0.071l-0.061,-0.071Zm6.354,-1.146l-0.002,0.082c0.001,-0.027 0.002,-0.055 0.002,-0.082Zm-6.521,0.909c-0.33,-0.568 -0.256,-1.232 0.293,-1.811c0.965,-1.018 3.034,-1.391 4.617,-0.833c1.028,0.362 1.6,1.028 1.611,1.729c-0.002,-0.086 -0.012,-0.172 -0.03,-0.256c-0.249,-0.429 -0.731,-0.803 -1.412,-1.043c-1.584,-0.558 -3.652,-0.185 -4.617,0.832c-0.416,0.438 -0.56,0.925 -0.462,1.382Zm0.05,0.08l-0.05,-0.08c0.047,0.079 0.101,0.157 0.163,0.232l-0.058,-0.074c-0.019,-0.026 -0.037,-0.052 -0.055,-0.078Zm-57.339,66.888l-0.068,0.075c0.023,-0.025 0.046,-0.05 0.068,-0.075Zm6.338,-6.684l-0.068,0.076c0.024,-0.025 0.047,-0.05 0.068,-0.076Zm6.339,-6.683l-0.068,0.075c0.024,-0.025 0.046,-0.049 0.068,-0.075Zm12.678,-13.366l-0.068,0.075c0.023,-0.025 0.046,-0.05 0.068,-0.075Zm6.338,-6.684l-0.068,0.076c0.024,-0.025 0.047,-0.05 0.068,-0.076Zm6.339,-6.683l-0.068,0.075c0.024,-0.024 0.046,-0.049 0.068,-0.075Zm12.678,-13.366l-0.068,0.075c0.023,-0.025 0.046,-0.05 0.068,-0.075Zm6.338,-6.684l-0.068,0.076c0.024,-0.025 0.047,-0.05 0.068,-0.076Zm6.339,-6.683l-0.068,0.075c0.024,-0.024 0.046,-0.049 0.068,-0.075Z" style="fill:#939393;fill-opacity:0.19;"/><path d="M39.807,123.711l73.042,25.738" style="fill:none;stroke:#848484;stroke-opacity:0.44;stroke-width:0.5px;"/><path d="M43.755,119.548l73.149,25.774" style="fill:none;stroke:#848484;stroke-opacity:0.44;stroke-width:0.2px;"/><path d="M47.402,115.703l73.029,25.733" style="fill:none;stroke:#848484;stroke-opacity:0.44;stroke-width:0.2px;"/><path d="M51.048,111.859l73.188,25.788" style="fill:none;stroke:#848484;stroke-opacity:0.44;stroke-width:0.2px;"/><path d="M54.695,108.014l73.054,25.741" style="fill:none;stroke:#848484;stroke-opacity:0.44;stroke-width:0.2px;"/><path d="M58.341,104.169l73.005,25.724" style="fill:none;stroke:#848484;stroke-opacity:0.44;stroke-width:0.2px;"/><path d="M61.988,100.325l73.052,25.74" style="fill:none;stroke:#848484;stroke-opacity:0.44;stroke-width:0.2px;"/><path d="M65.634,96.48l72.991,25.719" style="fill:none;stroke:#848484;stroke-opacity:0.44;stroke-width:0.2px;"/><path d="M69.281,92.635l73.097,25.757" style="fill:none;stroke:#848484;stroke-opacity:0.44;stroke-width:0.2px;"/><path d="M72.927,88.791l73.002,25.723" style="fill:none;stroke:#848484;stroke-opacity:0.44;stroke-width:0.2px;"/><path d="M76.574,84.946l73.087,25.753" style="fill:none;stroke:#848484;stroke-opacity:0.44;stroke-width:0.2px;"/><path d="M80.22,81.101l73.116,25.763" style="fill:none;stroke:#848484;stroke-opacity:0.44;stroke-width:0.2px;"/><path d="M83.867,77.257l73.095,25.756" style="fill:none;stroke:#848484;stroke-opacity:0.44;stroke-width:0.2px;"/><path d="M87.513,73.412l73.084,25.752" style="fill:none;stroke:#848484;stroke-opacity:0.44;stroke-width:0.2px;"/><path d="M91.16,69.567l73.18,25.786" style="fill:none;stroke:#848484;stroke-opacity:0.44;stroke-width:0.2px;"/><path d="M94.806,65.723l72.997,25.721" style="fill:none;stroke:#848484;stroke-opacity:0.44;stroke-width:0.2px;"/><path d="M103.673,56.186l72.687,25.612" style="fill:none;stroke:#848484;stroke-opacity:0.44;stroke-width:0.5px;"/><path d="M98.451,61.691l73.137,25.771" style="fill:none;stroke:#848484;stroke-opacity:0.44;stroke-width:0.5px;"/><path d="M39.46,123.681l59.078,-62.29" style="fill:none;stroke:#848484;stroke-opacity:0.44;stroke-width:0.2px;"/><path d="M45.582,125.838l59.079,-62.289" style="fill:none;stroke:#848484;stroke-opacity:0.44;stroke-width:0.2px;"/><path d="M51.705,127.995l59.078,-62.289" style="fill:none;stroke:#848484;stroke-opacity:0.44;stroke-width:0.2px;"/><path d="M57.828,130.153l59.078,-62.289" style="fill:none;stroke:#848484;stroke-opacity:0.44;stroke-width:0.2px;"/><path d="M63.951,132.31l59.078,-62.289" style="fill:none;stroke:#848484;stroke-opacity:0.44;stroke-width:0.2px;"/><path d="M70.073,134.468l59.079,-62.289" style="fill:none;stroke:#848484;stroke-opacity:0.44;stroke-width:0.2px;"/><path d="M76.196,136.625l59.078,-62.289" style="fill:none;stroke:#848484;stroke-opacity:0.44;stroke-width:0.2px;"/><path d="M82.319,138.782l59.078,-62.289" style="fill:none;stroke:#848484;stroke-opacity:0.44;stroke-width:0.2px;"/><path d="M88.442,140.94l59.078,-62.289" style="fill:none;stroke:#848484;stroke-opacity:0.44;stroke-width:0.2px;"/><path d="M94.564,143.097l59.079,-62.289" style="fill:none;stroke:#848484;stroke-opacity:0.44;stroke-width:0.2px;"/><path d="M100.687,145.255l59.078,-62.289" style="fill:none;stroke:#848484;stroke-opacity:0.44;stroke-width:0.2px;"/><path d="M106.81,147.412l59.078,-62.289" style="fill:none;stroke:#848484;stroke-opacity:0.44;stroke-width:0.2px;"/><path d="M112.932,149.569l59.079,-62.289" style="fill:none;stroke:#848484;stroke-opacity:0.44;stroke-width:0.2px;"/></g></svg>