<?xml version="1.0" encoding="UTF-8" standalone="no"?><!DOCTYPE svg PUBLIC "-//W3C//DTD SVG 1.1//EN" "http://www.w3.org/Graphics/SVG/1.1/DTD/svg11.dtd"><svg width="100%" height="100%" viewBox="0 0 200 200" version="1.1" xmlns="http://www.w3.org/2000/svg" xmlns:xlink="http://www.w3.org/1999/xlink" xml:space="preserve" xmlns:serif="http://www.serif.com/" style="fill-rule:evenodd;clip-rule:evenodd;stroke-linecap:round;stroke-linejoin:round;stroke-miterlimit:1.5;"><g><path d="M28.398,137.359c0.476,0.806 1.61,1.442 3.175,1.659l85.888,11.915c2.634,0.365 5.495,-0.596 6.386,-2.146l47.219,-82.135c0.446,-0.775 0.315,-1.551 -0.258,-2.179c-0.476,-0.806 -1.61,-1.443 -3.175,-1.66l-85.888,-11.914c-2.634,-0.366 -5.495,0.596 -6.386,2.145l-47.219,82.135c-0.446,0.775 -0.315,1.551 0.258,2.18Zm12.88,-6.222c0.216,0.408 0.209,0.889 -0.07,1.374c-0.648,1.127 -2.521,1.855 -4.18,1.625c-0.714,-0.099 -1.273,-0.36 -1.626,-0.715c-0.216,-0.408 -0.209,-0.889 0.07,-1.374c0.648,-1.127 2.521,-1.855 4.18,-1.625c0.714,0.099 1.273,0.36 1.626,0.715Zm4.257,-7.404c0.215,0.409 0.208,0.889 -0.071,1.375c-0.648,1.127 -2.521,1.855 -4.18,1.625c-0.714,-0.099 -1.273,-0.36 -1.626,-0.715c-0.216,-0.408 -0.209,-0.889 0.07,-1.374c0.648,-1.127 2.521,-1.855 4.18,-1.625c0.714,0.099 1.273,0.36 1.627,0.714Zm4.256,-7.403c0.215,0.409 0.208,0.889 -0.071,1.375c-0.647,1.127 -2.521,1.855 -4.18,1.625c-0.714,-0.099 -1.273,-0.36 -1.626,-0.715c-0.216,-0.408 -0.209,-0.889 0.07,-1.374c0.648,-1.127 2.521,-1.856 4.18,-1.625c0.715,0.099 1.274,0.359 1.627,0.714Zm5.264,-7.795c0.312,0.542 0.316,1.189 -0.059,1.842c-0.841,1.462 -3.27,2.406 -5.423,2.108c-0.96,-0.134 -1.705,-0.492 -2.159,-0.979c-0.312,-0.542 -0.317,-1.188 0.059,-1.841c0.84,-1.462 3.27,-2.407 5.422,-2.109c0.961,0.134 1.705,0.493 2.16,0.979Zm3.248,-7.011c0.215,0.408 0.209,0.889 -0.07,1.374c-0.648,1.128 -2.521,1.856 -4.18,1.626c-0.715,-0.1 -1.274,-0.36 -1.627,-0.715c-0.215,-0.409 -0.209,-0.889 0.07,-1.375c0.648,-1.127 2.521,-1.855 4.18,-1.625c0.715,0.099 1.274,0.36 1.627,0.715Zm4.256,-7.403c0.215,0.408 0.209,0.889 -0.07,1.374c-0.648,1.127 -2.521,1.856 -4.18,1.625c-0.715,-0.099 -1.274,-0.359 -1.627,-0.714c-0.215,-0.409 -0.209,-0.889 0.07,-1.375c0.648,-1.127 2.521,-1.855 4.18,-1.625c0.715,0.099 1.274,0.36 1.627,0.715Zm4.256,-7.403c0.215,0.408 0.209,0.889 -0.07,1.374c-0.648,1.127 -2.521,1.855 -4.18,1.625c-0.715,-0.099 -1.274,-0.359 -1.627,-0.714c-0.215,-0.409 -0.209,-0.889 0.07,-1.375c0.648,-1.127 2.521,-1.855 4.18,-1.625c0.715,0.099 1.274,0.36 1.627,0.715Zm5.133,-7.744c0.311,0.541 0.316,1.186 -0.059,1.838c-0.839,1.46 -3.266,2.404 -5.415,2.106c-0.96,-0.134 -1.703,-0.492 -2.157,-0.978c-0.311,-0.541 -0.316,-1.186 0.059,-1.838c0.84,-1.46 3.266,-2.404 5.415,-2.105c0.96,0.133 1.703,0.491 2.157,0.977Zm3.379,-7.062c0.216,0.408 0.209,0.889 -0.07,1.374c-0.648,1.127 -2.521,1.855 -4.18,1.625c-0.715,-0.099 -1.274,-0.36 -1.627,-0.715c-0.215,-0.408 -0.209,-0.889 0.07,-1.374c0.648,-1.127 2.521,-1.855 4.181,-1.625c0.714,0.099 1.273,0.36 1.626,0.715Zm4.256,-7.404c0.216,0.409 0.209,0.889 -0.07,1.375c-0.648,1.127 -2.521,1.855 -4.18,1.625c-0.715,-0.099 -1.274,-0.36 -1.627,-0.715c-0.215,-0.408 -0.208,-0.889 0.071,-1.374c0.647,-1.127 2.521,-1.855 4.18,-1.625c0.714,0.099 1.273,0.36 1.626,0.714Zm4.256,-7.403c0.216,0.409 0.209,0.889 -0.07,1.375c-0.648,1.127 -2.521,1.855 -4.18,1.625c-0.714,-0.099 -1.273,-0.36 -1.627,-0.715c-0.215,-0.408 -0.208,-0.889 0.071,-1.374c0.648,-1.127 2.521,-1.856 4.18,-1.625c0.714,0.099 1.273,0.359 1.626,0.714Z" style="fill:#f8f8f8;"/><path d="M170.808,64.473l0.036,0.062c0.291,0.536 0.295,1.142 -0.053,1.747l-47.22,82.135c-0.891,1.55 -3.752,2.511 -6.385,2.146l-85.889,-11.915c-1.316,-0.182 -2.328,-0.662 -2.899,-1.289c0.476,0.806 1.61,1.442 3.175,1.659l85.888,11.915c2.634,0.365 5.495,-0.596 6.386,-2.146l47.219,-82.135c0.446,-0.775 0.315,-1.551 -0.258,-2.179Zm-133.9,69.644l0.12,0.019l-0.077,-0.011l-0.043,-0.008Zm-0.13,-0.024c0.037,0.008 0.074,0.015 0.111,0.021l-0.111,-0.021Zm4.519,-1.757l-0.037,0.079c0.013,-0.026 0.025,-0.052 0.037,-0.079Zm-4.65,1.729c0.036,0.008 0.073,0.016 0.11,0.024l-0.11,-0.024Zm4.689,-1.823l-0.032,0.079c0.011,-0.026 0.022,-0.053 0.032,-0.079Zm-12.991,5.057l0.002,0.003l-0.002,-0.003Zm13.007,-5.104l-0.013,0.037l0.027,-0.078l-0.014,0.041Zm-4.823,1.839l0.105,0.027l-0.05,-0.012l-0.055,-0.015Zm-8.234,3.205l0.005,0.005l-0.005,-0.005Zm13.095,-5.172l-0.022,0.08c0.008,-0.027 0.015,-0.053 0.022,-0.08Zm-4.974,1.934c0.034,0.011 0.069,0.021 0.104,0.031l-0.104,-0.031Zm-8.168,3.177l0.006,0.007l-0.006,-0.007Zm13.161,-5.202l-0.016,0.077c0.006,-0.026 0.011,-0.052 0.016,-0.077Zm-5.109,1.986c0.032,0.012 0.065,0.023 0.098,0.033l-0.098,-0.033Zm-8.096,3.154l0.007,0.01l-0.007,-0.01Zm13.218,-5.233l-0.011,0.08c0.005,-0.027 0.008,-0.054 0.011,-0.08Zm-5.237,2.036c0.032,0.013 0.065,0.025 0.098,0.037l-0.098,-0.037Zm-8.023,3.135l0.008,0.012l-0.008,-0.012Zm7.925,-3.176l0.095,0.04l-0.056,-0.023l-0.039,-0.017Zm5.34,-2.044l-0.004,0.046l0.005,-0.079l-0.001,0.033Zm-13.304,5.156l0.009,0.015l-0.009,-0.015Zm7.863,-3.159c0.03,0.014 0.06,0.028 0.09,0.042l-0.09,-0.042Zm5.444,-2.117l-0.001,0.078c0.001,-0.026 0.001,-0.052 0.001,-0.078Zm-13.343,5.212l0.009,0.017l-0.009,-0.017Zm13.338,-5.301l0.004,0.078c-0,-0.026 -0.002,-0.052 -0.004,-0.078Zm-5.539,2.154c0.028,0.015 0.057,0.03 0.087,0.045l-0.087,-0.045Zm-7.833,3.083l0.01,0.018l-0.01,-0.018Zm13.345,-5.403l0.016,0.08l0.01,0.079c-0.005,-0.053 -0.014,-0.106 -0.026,-0.159Zm-5.606,2.265l-0.083,-0.053c0.053,0.036 0.11,0.071 0.169,0.103l-0.086,-0.05Zm-7.77,3.073l0.01,0.02l-0.01,-0.02Zm-0.028,-0.066l0.01,0.021l-0.01,-0.021Zm-0.025,-0.067l0.009,0.024l-0.009,-0.024Zm7.655,-3.052c0.026,0.019 0.051,0.037 0.078,0.055l-0.078,-0.055Zm5.753,-2.236l0.02,0.077c-0.006,-0.026 -0.013,-0.052 -0.02,-0.077Zm-13.43,5.221l0.008,0.025l-0.008,-0.025Zm7.455,-3.176c-0.467,-0.469 -0.575,-1.102 -0.206,-1.744c0.648,-1.127 2.521,-1.855 4.18,-1.625c1.077,0.149 1.801,0.666 1.999,1.318c-0.024,-0.08 -0.057,-0.158 -0.097,-0.233c-0.353,-0.355 -0.912,-0.616 -1.626,-0.715c-1.659,-0.23 -3.532,0.498 -4.18,1.625c-0.279,0.485 -0.286,0.966 -0.07,1.374Zm0.068,0.066l-0.068,-0.066c0.065,0.066 0.138,0.128 0.217,0.187l-0.075,-0.058c-0.025,-0.021 -0.049,-0.042 -0.074,-0.063Zm-7.542,3.043l0.007,0.026l-0.007,-0.026Zm-0.017,-0.069l0.007,0.028l-0.007,-0.028Zm-0.013,-0.068l0.005,0.028l-0.005,-0.028Zm-0.011,-0.069l0.004,0.029l-0.004,-0.029Zm-0.008,-0.07l0.004,0.031l-0.004,-0.031Zm-0.004,-0.07l0.002,0.032l-0.002,-0.032Zm-0.002,-0.07l0.001,0.032l-0.001,-0.032Zm0.002,-0.07l-0.001,0.032l0.001,-0.032Zm0.004,-0.071l-0.002,0.033l0.002,-0.033Zm0.008,-0.072l-0.004,0.034l0.004,-0.034Zm0.011,-0.071l-0.005,0.033l0.005,-0.033Zm0.014,-0.072l-0.007,0.034l0.007,-0.034Zm0.017,-0.072l-0.008,0.034l0.008,-0.034Zm0.02,-0.072l-0.009,0.033l0.009,-0.033Zm0.024,-0.072l-0.011,0.033l0.011,-0.033Zm0.026,-0.072l-0.012,0.032l0.012,-0.032Zm0.03,-0.073l-0.013,0.031l0.013,-0.031Zm0.034,-0.073l-0.014,0.03l0.014,-0.03Zm0.037,-0.072l-0.013,0.024l0.013,-0.024Zm13.064,-8.538l0.12,0.019l-0.077,-0.011l-0.043,-0.008Zm-0.13,-0.024c0.037,0.008 0.074,0.015 0.111,0.021l-0.111,-0.021Zm4.519,-1.757l-0.037,0.079c0.013,-0.026 0.026,-0.053 0.037,-0.079Zm-4.65,1.729c0.036,0.008 0.073,0.016 0.11,0.024l-0.11,-0.024Zm4.689,-1.823l-0.032,0.079c0.011,-0.026 0.022,-0.053 0.032,-0.079Zm0.016,-0.047l-0.013,0.037l0.027,-0.078l-0.014,0.041Zm-4.823,1.839l0.105,0.027l-0.05,-0.012l-0.055,-0.015Zm-0.113,-0.033c0.034,0.011 0.069,0.021 0.104,0.031l-0.104,-0.031Zm4.974,-1.934l-0.022,0.08c0.008,-0.027 0.015,-0.053 0.022,-0.08Zm0.019,-0.091l-0.016,0.077c0.006,-0.026 0.011,-0.052 0.016,-0.077Zm-5.109,1.986c0.032,0.011 0.065,0.023 0.098,0.033l-0.098,-0.033Zm5.122,-2.079l-0.011,0.08c0.005,-0.027 0.008,-0.054 0.011,-0.08Zm-5.237,2.036c0.032,0.013 0.065,0.025 0.098,0.037l-0.098,-0.037Zm-0.098,-0.041l0.095,0.04l-0.056,-0.023l-0.039,-0.017Zm5.34,-2.044l-0.004,0.046l0.005,-0.079l-0.001,0.033Zm-5.441,1.997c0.03,0.014 0.06,0.028 0.09,0.042l-0.09,-0.042Zm5.444,-2.117l-0.001,0.078c0.001,-0.026 0.001,-0.052 0.001,-0.078Zm-0.005,-0.089l0.004,0.077c-0,-0.025 -0.002,-0.051 -0.004,-0.077Zm-5.539,2.154c0.028,0.015 0.057,0.03 0.087,0.045l-0.087,-0.045Zm5.513,-2.32l0.015,0.079l0.01,0.08c-0.005,-0.054 -0.014,-0.107 -0.025,-0.159Zm-5.607,2.265l-0.083,-0.053c0.054,0.036 0.11,0.071 0.169,0.103l-0.086,-0.05Zm-0.168,-0.112c0.026,0.019 0.051,0.037 0.078,0.055l-0.078,-0.055Zm5.753,-2.236l0.02,0.077c-0.006,-0.026 -0.013,-0.052 -0.02,-0.077Zm-5.758,2.232c-0.645,-0.479 -0.843,-1.2 -0.423,-1.931c0.648,-1.127 2.521,-1.855 4.18,-1.625c1.077,0.149 1.801,0.666 1.999,1.318c-0.024,-0.08 -0.057,-0.158 -0.096,-0.234c-0.354,-0.354 -0.913,-0.615 -1.627,-0.714c-1.659,-0.23 -3.532,0.498 -4.18,1.625c-0.279,0.485 -0.286,0.966 -0.07,1.374c0.065,0.066 0.138,0.128 0.217,0.187Zm5.545,-6.894c0.04,0.007 0.08,0.013 0.12,0.019l-0.12,-0.019Zm-0.13,-0.024c0.037,0.008 0.074,0.015 0.111,0.021l-0.111,-0.021Zm4.519,-1.757l-0.037,0.079c0.013,-0.026 0.026,-0.053 0.037,-0.079Zm-4.65,1.728c0.037,0.009 0.073,0.017 0.11,0.025l-0.11,-0.025Zm4.689,-1.822l-0.032,0.079c0.011,-0.026 0.022,-0.053 0.032,-0.079Zm0.017,-0.047l-0.014,0.037l0.027,-0.078l-0.013,0.041Zm-4.823,1.839l0.104,0.027l-0.05,-0.012l-0.054,-0.015Zm-0.114,-0.033c0.034,0.011 0.069,0.021 0.104,0.03l-0.104,-0.03Zm4.974,-1.934l-0.022,0.08c0.008,-0.027 0.015,-0.053 0.022,-0.08Zm0.019,-0.092l-0.016,0.078c0.006,-0.026 0.011,-0.052 0.016,-0.078Zm-5.109,1.987c0.032,0.011 0.065,0.022 0.098,0.033l-0.098,-0.033Zm5.122,-2.079l-0.011,0.079c0.005,-0.026 0.009,-0.053 0.011,-0.079Zm-5.237,2.036c0.032,0.013 0.065,0.025 0.098,0.037l-0.098,-0.037Zm-0.098,-0.042l0.095,0.041l-0.056,-0.023l-0.039,-0.018Zm5.34,-2.043l-0.004,0.046l0.006,-0.079l-0.002,0.033Zm-5.441,1.996c0.03,0.015 0.06,0.029 0.09,0.043l-0.09,-0.043Zm5.444,-2.116l-0.001,0.078c0.001,-0.026 0.001,-0.052 0.001,-0.078Zm-0.005,-0.089l0.004,0.077c-0,-0.026 -0.002,-0.051 -0.004,-0.077Zm-5.539,2.154c0.028,0.015 0.057,0.03 0.087,0.045l-0.087,-0.045Zm5.513,-2.32l0.015,0.079l0.01,0.08c-0.005,-0.054 -0.014,-0.107 -0.025,-0.159Zm-5.607,2.265l-0.083,-0.053c0.054,0.036 0.11,0.07 0.169,0.103l-0.086,-0.05Zm5.585,-2.348l0.02,0.076c-0.006,-0.025 -0.013,-0.051 -0.02,-0.076Zm-5.752,2.236c0.025,0.019 0.05,0.037 0.077,0.055l-0.077,-0.055Zm-0.006,-0.004c-0.645,-0.479 -0.843,-1.2 -0.423,-1.931c0.648,-1.127 2.521,-1.856 4.18,-1.625c1.077,0.149 1.801,0.666 1.999,1.318c-0.024,-0.08 -0.057,-0.158 -0.096,-0.234c-0.353,-0.355 -0.912,-0.615 -1.627,-0.714c-1.659,-0.231 -3.532,0.498 -4.18,1.625c-0.279,0.485 -0.286,0.966 -0.07,1.374c0.065,0.066 0.138,0.128 0.217,0.187Zm5.317,-6.336l0.03,0.005l-0.03,-0.005Zm5.595,-2.176l-0.011,0.021l0.011,-0.021Zm-5.694,2.159l0.036,0.006l-0.01,-0.002l-0.026,-0.004Zm5.72,-2.209l-0.003,0.006l0.012,-0.025l-0.009,0.019Zm-5.814,2.191l0.037,0.007l-0.014,-0.003l-0.023,-0.004Zm5.847,-2.26l-0.005,0.01l0.012,-0.027l-0.007,0.017Zm-5.939,2.24l0.038,0.009l-0.018,-0.004l-0.02,-0.005Zm5.968,-2.308l-0.005,0.013l0.011,-0.027l-0.006,0.014Zm0.027,-0.068l-0.006,0.016l0.01,-0.027l-0.004,0.011Zm-6.084,2.356l0.037,0.009l-0.022,-0.005l-0.015,-0.004Zm-0.087,-0.022l0.035,0.009l-0.024,-0.006l-0.011,-0.003Zm6.196,-2.402l-0.007,0.018l0.009,-0.026l-0.002,0.008Zm0.023,-0.072l-0.008,0.024l0.008,-0.024Zm-6.305,2.451l0.032,0.008l-0.032,-0.008Zm6.323,-2.516l-0.005,0.016l0.005,-0.016Zm-6.407,2.491l0.021,0.006l-0.021,-0.006Zm6.427,-2.575l-0.005,0.021l0.005,-0.021Zm-6.535,2.541l0.027,0.009l-0.027,-0.009Zm6.544,-2.589l-0.001,0.006l0.005,-0.027l-0.004,0.021Zm-6.631,2.559l0.033,0.012l-0.008,-0.003l-0.025,-0.009Zm6.643,-2.626l-0.002,0.01l0.004,-0.029l-0.002,0.019Zm-6.724,2.596l0.035,0.013l-0.012,-0.004l-0.023,-0.009Zm6.732,-2.662l-0.002,0.013l0.004,-0.03l-0.002,0.017Zm-6.81,2.632l0.036,0.014l-0.016,-0.006l-0.02,-0.008Zm-0.076,-0.032l0.036,0.015l-0.02,-0.008l-0.016,-0.007Zm6.892,-2.666l-0.001,0.016l0.002,-0.03l-0.001,0.014Zm-6.965,2.633l0.035,0.016l-0.023,-0.01l-0.012,-0.006Zm6.969,-2.699l-0.001,0.02l0.001,-0.03l-0,0.01Zm-7.041,2.665l0.035,0.017l-0.027,-0.012l-0.008,-0.005Zm7.041,-2.73l0,0.024l0,-0.031l0,0.007Zm-7.112,2.695l0.037,0.019l-0.032,-0.016l-0.005,-0.003Zm7.111,-2.76l0.001,0.028l-0.001,-0.032l-0,0.004Zm115.47,-44.92l0.012,0.019l-0.012,-0.019Zm-122.646,47.646l0.043,0.023l-0.045,-0.024l-0.039,-0.022l0.041,0.023Zm7.172,-2.79l0.002,0.04l-0.002,-0.038l-0.004,-0.038l0.004,0.036Zm115.433,-44.915l0.006,0.009l-0.016,-0.024l0.01,0.015Zm-115.44,44.851l0.001,0.007l-0.005,-0.037l0.004,0.03Zm-7.27,2.795l0.04,0.023l-0.007,-0.004l-0.033,-0.019Zm122.656,-47.719l0.01,0.013l-0.019,-0.024l0.009,0.011Zm-122.719,47.68l0.039,0.025l-0.011,-0.007l-0.028,-0.018Zm7.324,-2.819l0.002,0.011l-0.007,-0.037l0.005,0.026Zm-7.386,2.78l0.039,0.025l-0.016,-0.01l-0.023,-0.015Zm7.375,-2.843l0.002,0.015l-0.007,-0.038l0.005,0.023Zm115.348,-44.87l0.013,0.015l-0.018,-0.022l0.005,0.007Zm-122.783,47.672l0.039,0.027l-0.02,-0.014l-0.019,-0.013Zm7.421,-2.864l0.004,0.019l-0.009,-0.038l0.005,0.019Zm115.299,-44.88l0.011,0.012l-0.011,-0.012Zm-122.779,47.702l0.041,0.029l-0.025,-0.017l-0.016,-0.012Zm7.464,-2.884l0.006,0.025l-0.011,-0.041l0.005,0.016Zm-7.52,2.841l0.043,0.033l-0.032,-0.023l-0.011,-0.01Zm7.501,-2.902l0.009,0.031l-0.013,-0.043l0.004,0.012Zm115.258,-44.837l0.015,0.014l-0.015,-0.014Zm-122.765,47.735c-0.796,-0.62 -1.033,-1.537 -0.498,-2.467c0.841,-1.462 3.27,-2.407 5.422,-2.109c1.369,0.19 2.298,0.838 2.577,1.66c-0.036,-0.107 -0.084,-0.21 -0.141,-0.311c-0.455,-0.486 -1.199,-0.845 -2.16,-0.979c-2.152,-0.298 -4.582,0.647 -5.422,2.109c-0.376,0.653 -0.371,1.299 -0.059,1.841c0.084,0.09 0.178,0.176 0.281,0.256Zm122.709,-47.791l0.007,0.007l-0.023,-0.022l0.016,0.015Zm-0.073,-0.067l0.012,0.011l-0.025,-0.023l0.013,0.012Zm-0.076,-0.065l0.017,0.013l-0.026,-0.021l0.009,0.008Zm-0.083,-0.068l0.02,0.017l-0.02,-0.017Zm-0.089,-0.067l0.011,0.009l-0.011,-0.009Zm-0.076,-0.053l0.007,0.005l-0.027,-0.019l0.02,0.014Zm-0.09,-0.06l0.014,0.009l-0.032,-0.02l0.018,0.011Zm-0.093,-0.058l0.019,0.012l-0.032,-0.02l0.013,0.008Zm-0.096,-0.056l0.022,0.012l-0.029,-0.016l0.007,0.004Zm-0.1,-0.055l0.005,0.002l-0.005,-0.002Zm-0.102,-0.053l0.007,0.004l-0.031,-0.015l0.024,0.011Zm-0.106,-0.051l0.015,0.007l-0.038,-0.018l0.023,0.011Zm-0.108,-0.049l0.02,0.009l-0.038,-0.017l0.018,0.008Zm-0.112,-0.048l0.025,0.011l-0.036,-0.015l0.011,0.004Zm-0.118,-0.047l0.022,0.009l-0.022,-0.009Zm-0.14,-0.051l0.03,0.011l-0.03,-0.011Zm-0.096,-0.033l0.014,0.005l-0.042,-0.014l0.028,0.009Zm-0.124,-0.039l0.022,0.007l-0.044,-0.014l0.022,0.007Zm-0.126,-0.038l0.028,0.008l-0.044,-0.012l0.016,0.004Zm-0.136,-0.037l0.034,0.009l-0.034,-0.009Zm-0.147,-0.036l0.024,0.005l-0.024,-0.005Zm-0.114,-0.026l0.013,0.002l-0.044,-0.009l0.031,0.007Zm-0.138,-0.029l0.022,0.004l-0.049,-0.009l0.027,0.005Zm-0.14,-0.026l0.03,0.005l-0.049,-0.009l0.019,0.004Zm-0.143,-0.024l0.033,0.005l-0.043,-0.007l0.01,0.002Zm-113.846,41.67c0.04,0.007 0.08,0.013 0.121,0.019l-0.121,-0.019Zm-0.13,-0.024c0.037,0.007 0.074,0.014 0.111,0.021l-0.111,-0.021Zm4.519,-1.757l-0.037,0.079c0.013,-0.027 0.026,-0.053 0.037,-0.079Zm-4.649,1.728c0.036,0.009 0.072,0.017 0.109,0.025l-0.109,-0.025Zm4.688,-1.823l-0.032,0.08c0.011,-0.027 0.022,-0.053 0.032,-0.08Zm-4.806,1.793l0.104,0.027l-0.049,-0.012l-0.055,-0.015Zm4.823,-1.839l-0.014,0.037l0.027,-0.078l-0.013,0.041Zm-4.937,1.805c0.034,0.011 0.069,0.021 0.104,0.031l-0.104,-0.031Zm4.974,-1.933l-0.022,0.079c0.008,-0.026 0.015,-0.053 0.022,-0.079Zm0.019,-0.092l-0.016,0.078c0.006,-0.026 0.012,-0.052 0.016,-0.078Zm-5.109,1.987c0.032,0.011 0.065,0.022 0.098,0.033l-0.098,-0.033Zm-0.115,-0.043c0.032,0.012 0.065,0.025 0.099,0.037l-0.099,-0.037Zm5.238,-2.037l-0.012,0.08c0.005,-0.026 0.009,-0.053 0.012,-0.08Zm-5.336,1.995l0.095,0.04l-0.055,-0.022l-0.04,-0.018Zm5.34,-2.043l-0.004,0.046l0.006,-0.079l-0.002,0.033Zm-5.441,1.996c0.03,0.015 0.06,0.029 0.09,0.042l-0.09,-0.042Zm5.444,-2.116l-0.001,0.077c0.001,-0.026 0.001,-0.051 0.001,-0.077Zm-0.005,-0.089l0.004,0.077c-0,-0.026 -0.002,-0.052 -0.004,-0.077Zm-5.539,2.153c0.028,0.016 0.057,0.031 0.087,0.045l-0.087,-0.045Zm5.513,-2.319l0.015,0.079l0.01,0.08c-0.005,-0.054 -0.013,-0.107 -0.025,-0.159Zm-5.607,2.265l-0.083,-0.053c0.054,0.036 0.11,0.07 0.169,0.103l-0.086,-0.05Zm5.585,-2.349l0.02,0.077c-0.006,-0.026 -0.013,-0.051 -0.02,-0.077Zm-5.752,2.237c0.025,0.018 0.051,0.037 0.077,0.054l-0.077,-0.054Zm-0.223,-0.191c-0.467,-0.469 -0.574,-1.103 -0.205,-1.745c0.648,-1.127 2.521,-1.855 4.18,-1.625c1.077,0.15 1.8,0.666 1.998,1.319c-0.024,-0.08 -0.056,-0.158 -0.096,-0.234c-0.353,-0.355 -0.912,-0.616 -1.627,-0.715c-1.659,-0.23 -3.532,0.498 -4.18,1.625c-0.279,0.486 -0.285,0.966 -0.07,1.375Zm0.069,0.065l-0.069,-0.065c0.065,0.066 0.138,0.128 0.217,0.187l-0.075,-0.059c-0.024,-0.021 -0.049,-0.042 -0.073,-0.063Zm5.693,-6.772c0.04,0.007 0.08,0.013 0.121,0.018l-0.121,-0.018Zm4.389,-1.781l-0.037,0.078c0.013,-0.026 0.026,-0.052 0.037,-0.078Zm-4.519,1.757c0.037,0.007 0.074,0.014 0.112,0.021l-0.112,-0.021Zm-0.13,-0.029c0.036,0.009 0.072,0.017 0.109,0.024l-0.109,-0.024Zm4.688,-1.823l-0.032,0.08c0.012,-0.027 0.022,-0.053 0.032,-0.08Zm0.017,-0.046l-0.013,0.036l0.026,-0.078l-0.013,0.042Zm-4.823,1.839l0.104,0.027l-0.049,-0.013l-0.055,-0.014Zm-0.114,-0.034c0.034,0.011 0.069,0.021 0.104,0.031l-0.104,-0.031Zm4.974,-1.933l-0.022,0.079c0.008,-0.026 0.015,-0.053 0.022,-0.079Zm0.019,-0.092l-0.016,0.078c0.006,-0.026 0.012,-0.052 0.016,-0.078Zm-5.109,1.987c0.032,0.011 0.065,0.022 0.098,0.033l-0.098,-0.033Zm5.123,-2.08l-0.012,0.08c0.005,-0.027 0.009,-0.053 0.012,-0.08Zm-5.238,2.037c0.032,0.012 0.065,0.025 0.099,0.037l-0.099,-0.037Zm-0.098,-0.042l0.095,0.04l-0.055,-0.023l-0.04,-0.017Zm5.34,-2.043l-0.004,0.046l0.006,-0.08l-0.002,0.034Zm-5.44,1.996c0.029,0.015 0.059,0.029 0.089,0.042l-0.089,-0.042Zm5.443,-2.116l-0.001,0.077c0.001,-0.026 0.001,-0.052 0.001,-0.077Zm-0.005,-0.089l0.005,0.077c-0.001,-0.026 -0.003,-0.052 -0.005,-0.077Zm-5.539,2.153c0.029,0.016 0.057,0.031 0.087,0.045l-0.087,-0.045Zm5.513,-2.319l0.015,0.079l0.01,0.08c-0.005,-0.054 -0.013,-0.107 -0.025,-0.159Zm-5.607,2.265l-0.083,-0.053c0.054,0.036 0.11,0.07 0.17,0.103l-0.087,-0.05Zm-0.167,-0.112c0.025,0.018 0.051,0.037 0.077,0.054l-0.077,-0.054Zm5.752,-2.237l0.02,0.077c-0.006,-0.026 -0.012,-0.051 -0.02,-0.077Zm-5.758,2.233c-0.645,-0.479 -0.843,-1.2 -0.422,-1.932c0.648,-1.127 2.521,-1.855 4.18,-1.625c1.077,0.15 1.8,0.666 1.998,1.319c-0.024,-0.08 -0.056,-0.158 -0.096,-0.234c-0.353,-0.355 -0.912,-0.616 -1.627,-0.715c-1.659,-0.23 -3.532,0.498 -4.18,1.625c-0.279,0.486 -0.285,0.966 -0.07,1.375c0.066,0.065 0.138,0.128 0.217,0.187Zm5.546,-6.894c0.039,0.007 0.079,0.013 0.12,0.018l-0.12,-0.018Zm-0.131,-0.024c0.037,0.007 0.074,0.014 0.112,0.021l-0.112,-0.021Zm4.519,-1.757l-0.037,0.078c0.013,-0.026 0.026,-0.052 0.037,-0.078Zm-4.649,1.728c0.036,0.008 0.072,0.017 0.109,0.024l-0.109,-0.024Zm4.688,-1.823l-0.032,0.079c0.012,-0.026 0.022,-0.052 0.032,-0.079Zm0.017,-0.046l-0.013,0.036l0.026,-0.078l-0.013,0.042Zm-4.823,1.839l0.104,0.027l-0.049,-0.013l-0.055,-0.014Zm-0.114,-0.034c0.034,0.011 0.069,0.021 0.104,0.031l-0.104,-0.031Zm4.974,-1.933l-0.022,0.079c0.008,-0.026 0.015,-0.053 0.022,-0.079Zm0.019,-0.092l-0.016,0.077c0.006,-0.025 0.012,-0.051 0.016,-0.077Zm-5.109,1.986c0.032,0.012 0.065,0.023 0.098,0.034l-0.098,-0.034Zm-0.115,-0.043c0.032,0.013 0.065,0.026 0.099,0.038l-0.099,-0.038Zm5.238,-2.036l-0.012,0.08c0.005,-0.027 0.009,-0.053 0.012,-0.08Zm-5.336,1.995l0.095,0.04l-0.055,-0.023l-0.04,-0.017Zm5.34,-2.043l-0.004,0.046l0.006,-0.08l-0.002,0.034Zm-5.44,1.996c0.029,0.015 0.059,0.029 0.089,0.042l-0.089,-0.042Zm5.443,-2.116l-0.001,0.077c0.001,-0.026 0.001,-0.052 0.001,-0.077Zm-0.005,-0.089l0.005,0.077c-0.001,-0.026 -0.003,-0.052 -0.005,-0.077Zm-5.539,2.153c0.029,0.015 0.058,0.031 0.087,0.045l-0.087,-0.045Zm5.513,-2.319l0.015,0.079l0.01,0.08c-0.005,-0.054 -0.013,-0.107 -0.025,-0.159Zm-5.607,2.265l-0.083,-0.053c0.054,0.036 0.11,0.07 0.17,0.103l-0.087,-0.05Zm-0.167,-0.112c0.025,0.018 0.051,0.036 0.077,0.054l-0.077,-0.054Zm5.752,-2.237l0.02,0.077c-0.006,-0.026 -0.012,-0.051 -0.02,-0.077Zm-5.975,2.046c-0.467,-0.469 -0.574,-1.103 -0.205,-1.745c0.648,-1.127 2.521,-1.855 4.18,-1.625c1.077,0.149 1.8,0.666 1.998,1.319c-0.024,-0.081 -0.056,-0.159 -0.096,-0.234c-0.353,-0.355 -0.912,-0.616 -1.627,-0.715c-1.659,-0.23 -3.532,0.498 -4.18,1.625c-0.279,0.486 -0.285,0.966 -0.07,1.375Zm0.069,0.065l-0.069,-0.065c0.066,0.065 0.138,0.128 0.217,0.186l-0.075,-0.058c-0.024,-0.021 -0.049,-0.042 -0.073,-0.063Zm10.929,-8.342l-0.011,0.021l0.011,-0.021Zm-5.588,2.172l0.031,0.006l-0.031,-0.006Zm-0.099,-0.017l0.036,0.007l-0.009,-0.002l-0.027,-0.005Zm5.713,-2.206l-0.003,0.007l0.012,-0.025l-0.009,0.018Zm0.033,-0.068l-0.005,0.01l0.012,-0.027l-0.007,0.017Zm-5.84,2.257l0.038,0.007l-0.014,-0.003l-0.024,-0.004Zm5.869,-2.325l-0.005,0.013l0.011,-0.027l-0.006,0.014Zm-5.96,2.305l0.038,0.008l-0.018,-0.003l-0.02,-0.005Zm5.987,-2.373l-0.006,0.016l0.01,-0.027l-0.004,0.011Zm-6.076,2.353l0.037,0.008l-0.022,-0.004l-0.015,-0.004Zm6.101,-2.421l-0.007,0.018l0.009,-0.026l-0.002,0.008Zm-6.188,2.399l0.035,0.009l-0.024,-0.006l-0.011,-0.003Zm-0.085,-0.023l0.031,0.008l-0.031,-0.008Zm6.295,-2.448l-0.007,0.023l0.007,-0.023Zm0.018,-0.064l-0.003,0.014l0.003,-0.014Zm-6.397,2.487l0.018,0.006l-0.018,-0.006Zm-0.107,-0.033l0.025,0.008l-0.025,-0.008Zm6.524,-2.537l-0.004,0.02l0.004,-0.02Zm-6.611,2.507l0.031,0.011l-0.007,-0.003l-0.024,-0.008Zm6.621,-2.557l-0.001,0.006l0.004,-0.025l-0.003,0.019Zm0.011,-0.066l-0.001,0.009l0.004,-0.027l-0.003,0.018Zm-6.713,2.593l0.033,0.012l-0.011,-0.004l-0.022,-0.008Zm-0.078,-0.031l0.034,0.014l-0.015,-0.006l-0.019,-0.008Zm6.8,-2.628l-0.002,0.012l0.003,-0.028l-0.001,0.016Zm-6.876,2.597l0.034,0.014l-0.019,-0.008l-0.015,-0.006Zm6.882,-2.663l-0.002,0.015l0.002,-0.028l-0,0.013Zm-6.955,2.63l0.033,0.015l-0.022,-0.01l-0.011,-0.005Zm6.958,-2.696l-0.001,0.019l0.001,-0.028l0,0.009Zm-7.03,2.662l0.032,0.015l-0.025,-0.011l-0.007,-0.004Zm7.031,-2.727l-0,0.021l-0,-0.027l0,0.006Zm-7.102,2.692l0.031,0.015l-0.031,-0.015Zm7.1,-2.76l0.001,0.026l-0.001,-0.026Zm-7.165,2.726l0.012,0.006l-0.015,-0.007l-0.029,-0.017l0.032,0.018Zm7.161,-2.787l0.001,0.013l-0,-0.011l-0.003,-0.029l0.002,0.027Zm-7.262,2.73l0.035,0.02l-0.007,-0.004l-0.028,-0.016Zm7.256,-2.794l0,0.007l-0.004,-0.033l0.004,0.026Zm-7.32,2.755l0.035,0.021l-0.011,-0.006l-0.024,-0.015Zm7.311,-2.818l0.001,0.01l-0.005,-0.033l0.004,0.023Zm-0.012,-0.063l0.003,0.014l-0.007,-0.034l0.004,0.02Zm-7.362,2.841l0.035,0.023l-0.014,-0.009l-0.021,-0.014Zm-0.061,-0.041l0.036,0.024l-0.018,-0.012l-0.018,-0.012Zm7.409,-2.862l0.004,0.018l-0.008,-0.035l0.004,0.017Zm-7.467,2.82l0.036,0.026l-0.022,-0.016l-0.014,-0.01Zm7.451,-2.881l0.006,0.022l-0.01,-0.036l0.004,0.014Zm-7.508,2.838l0.039,0.03l-0.029,-0.022l-0.01,-0.008Zm7.49,-2.899l0.008,0.028l-0.012,-0.039l0.004,0.011Zm-7.501,2.891c-0.792,-0.62 -1.026,-1.534 -0.493,-2.461c0.839,-1.46 3.265,-2.404 5.415,-2.105c1.364,0.189 2.291,0.834 2.571,1.653c-0.036,-0.105 -0.082,-0.208 -0.139,-0.306c-0.454,-0.486 -1.197,-0.844 -2.157,-0.977c-2.149,-0.299 -4.575,0.645 -5.415,2.105c-0.375,0.652 -0.37,1.297 -0.059,1.838c0.083,0.089 0.176,0.173 0.277,0.253Zm6.363,-7.301l0.12,0.019l-0.077,-0.011l-0.043,-0.008Zm-0.131,-0.024c0.037,0.008 0.074,0.015 0.112,0.021l-0.112,-0.021Zm4.519,-1.757l-0.037,0.079c0.014,-0.026 0.026,-0.052 0.037,-0.079Zm-4.649,1.729c0.036,0.008 0.072,0.016 0.109,0.024l-0.109,-0.024Zm4.688,-1.823l-0.032,0.079c0.012,-0.026 0.022,-0.053 0.032,-0.079Zm-4.806,1.792l0.104,0.027l-0.049,-0.012l-0.055,-0.015Zm4.823,-1.839l-0.013,0.037l0.026,-0.078l-0.013,0.041Zm-4.937,1.806c0.035,0.011 0.069,0.021 0.104,0.031l-0.104,-0.031Zm4.974,-1.934l-0.022,0.08c0.008,-0.027 0.016,-0.053 0.022,-0.08Zm0.019,-0.091l-0.016,0.077c0.007,-0.026 0.012,-0.052 0.016,-0.077Zm-5.109,1.986c0.032,0.012 0.065,0.023 0.098,0.033l-0.098,-0.033Zm-0.115,-0.043c0.033,0.013 0.065,0.025 0.099,0.037l-0.099,-0.037Zm5.238,-2.036l-0.011,0.08c0.004,-0.027 0.008,-0.054 0.011,-0.08Zm-5.336,1.995l0.095,0.04l-0.055,-0.023l-0.04,-0.017Zm5.34,-2.044l-0.004,0.046l0.006,-0.079l-0.002,0.033Zm-5.44,1.997c0.029,0.014 0.059,0.028 0.089,0.042l-0.089,-0.042Zm5.443,-2.117l-0.001,0.078c0.001,-0.026 0.002,-0.052 0.001,-0.078Zm-0.005,-0.089l0.005,0.078c-0.001,-0.026 -0.002,-0.052 -0.005,-0.078Zm-5.539,2.154c0.029,0.015 0.058,0.03 0.087,0.045l-0.087,-0.045Zm5.513,-2.32l0.015,0.08l0.01,0.079c-0.005,-0.053 -0.013,-0.106 -0.025,-0.159Zm-5.607,2.265l-0.083,-0.053c0.054,0.036 0.111,0.071 0.17,0.103l-0.087,-0.05Zm5.585,-2.348l0.02,0.077c-0.005,-0.026 -0.012,-0.052 -0.02,-0.077Zm-5.752,2.236c0.025,0.019 0.051,0.037 0.077,0.055l-0.077,-0.055Zm-0.006,-0.004c-0.645,-0.478 -0.843,-1.199 -0.422,-1.931c0.648,-1.127 2.521,-1.855 4.18,-1.625c1.077,0.149 1.801,0.666 1.998,1.318c-0.024,-0.08 -0.056,-0.158 -0.096,-0.233c-0.353,-0.355 -0.912,-0.616 -1.626,-0.715c-1.66,-0.23 -3.533,0.498 -4.181,1.625c-0.279,0.485 -0.285,0.966 -0.07,1.374c0.066,0.066 0.138,0.128 0.217,0.187Zm5.546,-6.894l0.12,0.019l-0.077,-0.011l-0.043,-0.008Zm4.389,-1.781l-0.038,0.079c0.014,-0.026 0.026,-0.053 0.038,-0.079Zm-4.52,1.757c0.037,0.008 0.074,0.015 0.112,0.021l-0.112,-0.021Zm-0.13,-0.028c0.036,0.008 0.072,0.016 0.109,0.024l-0.109,-0.024Zm4.688,-1.823l-0.032,0.079c0.012,-0.026 0.022,-0.053 0.032,-0.079Zm0.017,-0.047l-0.013,0.037l0.026,-0.078l-0.013,0.041Zm-4.823,1.839l0.105,0.027l-0.05,-0.012l-0.055,-0.015Zm-0.113,-0.033c0.034,0.011 0.068,0.021 0.103,0.031l-0.103,-0.031Zm4.973,-1.934l-0.022,0.08c0.008,-0.027 0.016,-0.053 0.022,-0.08Zm0.019,-0.091l-0.016,0.077c0.007,-0.026 0.012,-0.052 0.016,-0.077Zm-5.109,1.986c0.032,0.011 0.065,0.023 0.098,0.033l-0.098,-0.033Zm5.123,-2.079l-0.011,0.08c0.004,-0.027 0.008,-0.054 0.011,-0.08Zm-5.238,2.036c0.033,0.013 0.065,0.025 0.099,0.037l-0.099,-0.037Zm5.242,-2.085l-0.004,0.046l0.006,-0.079l-0.002,0.033Zm-5.34,2.044l0.095,0.04l-0.055,-0.023l-0.04,-0.017Zm-0.1,-0.047c0.029,0.014 0.059,0.028 0.09,0.042l-0.09,-0.042Zm5.443,-2.117l-0.001,0.078c0.001,-0.026 0.002,-0.052 0.001,-0.078Zm-0.005,-0.089l0.005,0.077c-0.001,-0.025 -0.002,-0.051 -0.005,-0.077Zm-5.538,2.154c0.028,0.015 0.057,0.03 0.086,0.045l-0.086,-0.045Zm5.512,-2.32l0.015,0.079l0.011,0.08c-0.006,-0.054 -0.014,-0.107 -0.026,-0.159Zm-5.607,2.265l-0.083,-0.053c0.054,0.036 0.111,0.071 0.17,0.103l-0.087,-0.05Zm-0.167,-0.112c0.025,0.019 0.051,0.037 0.077,0.055l-0.077,-0.055Zm5.752,-2.236l0.021,0.077c-0.006,-0.026 -0.013,-0.052 -0.021,-0.077Zm-5.758,2.232c-0.644,-0.479 -0.843,-1.2 -0.422,-1.931c0.648,-1.127 2.521,-1.855 4.18,-1.625c1.077,0.149 1.801,0.666 1.998,1.318c-0.024,-0.08 -0.056,-0.158 -0.096,-0.234c-0.353,-0.354 -0.912,-0.615 -1.626,-0.714c-1.659,-0.23 -3.533,0.498 -4.18,1.625c-0.279,0.485 -0.286,0.966 -0.071,1.374c0.066,0.066 0.138,0.128 0.217,0.187Zm5.546,-6.894l0.12,0.019l-0.077,-0.012l-0.043,-0.007Zm4.389,-1.781l-0.038,0.079c0.014,-0.026 0.026,-0.053 0.038,-0.079Zm-4.52,1.757c0.037,0.008 0.074,0.015 0.112,0.021l-0.112,-0.021Zm-0.13,-0.029c0.036,0.009 0.072,0.017 0.109,0.025l-0.109,-0.025Zm4.688,-1.822l-0.032,0.079c0.012,-0.026 0.022,-0.053 0.032,-0.079Zm0.017,-0.047l-0.013,0.037l0.026,-0.078l-0.013,0.041Zm-4.823,1.839l0.105,0.027l-0.05,-0.012l-0.055,-0.015Zm-0.113,-0.033c0.034,0.011 0.068,0.021 0.103,0.03l-0.103,-0.03Zm4.973,-1.934l-0.022,0.08c0.008,-0.027 0.016,-0.053 0.022,-0.08Zm0.02,-0.092l-0.016,0.078c0.006,-0.026 0.011,-0.052 0.016,-0.078Zm-5.11,1.987c0.032,0.011 0.065,0.022 0.098,0.033l-0.098,-0.033Zm5.123,-2.079l-0.011,0.079c0.004,-0.026 0.008,-0.053 0.011,-0.079Zm-5.237,2.036c0.032,0.013 0.065,0.025 0.098,0.037l-0.098,-0.037Zm5.241,-2.085l-0.004,0.046l0.006,-0.079l-0.002,0.033Zm-5.339,2.043l0.094,0.041l-0.055,-0.023l-0.039,-0.018Zm5.342,-2.163l-0,0.078c0,-0.026 0.001,-0.052 0,-0.078Zm-5.443,2.116c0.029,0.015 0.059,0.029 0.09,0.043l-0.09,-0.043Zm5.438,-2.205l0.005,0.077c-0.001,-0.026 -0.002,-0.051 -0.005,-0.077Zm-5.538,2.154c0.028,0.015 0.057,0.03 0.086,0.045l-0.086,-0.045Zm5.512,-2.32l0.016,0.079l0.01,0.08c-0.006,-0.054 -0.014,-0.107 -0.026,-0.159Zm-5.607,2.265l-0.083,-0.053c0.054,0.036 0.111,0.07 0.17,0.103l-0.087,-0.05Zm-0.167,-0.112c0.025,0.019 0.051,0.037 0.077,0.055l-0.077,-0.055Zm5.752,-2.236l0.021,0.076c-0.006,-0.025 -0.013,-0.051 -0.021,-0.076Zm-5.975,2.045c-0.467,-0.469 -0.574,-1.103 -0.205,-1.744c0.648,-1.127 2.521,-1.856 4.18,-1.625c1.077,0.149 1.801,0.666 1.999,1.318c-0.025,-0.08 -0.057,-0.158 -0.097,-0.234c-0.353,-0.355 -0.912,-0.615 -1.626,-0.714c-1.659,-0.231 -3.532,0.498 -4.18,1.625c-0.279,0.485 -0.286,0.966 -0.071,1.374Zm0.069,0.066l-0.069,-0.066c0.066,0.066 0.138,0.128 0.217,0.187l-0.075,-0.058c-0.024,-0.021 -0.048,-0.042 -0.073,-0.063Zm-36.778,72.972l-0.045,0.083c0.016,-0.028 0.031,-0.055 0.045,-0.083Zm4.256,-7.403l-0.045,0.083c0.016,-0.028 0.031,-0.055 0.045,-0.083Zm4.256,-7.403l-0.045,0.083c0.016,-0.028 0.031,-0.055 0.045,-0.083Zm8.512,-14.806l-0.044,0.082c0.015,-0.027 0.03,-0.055 0.044,-0.082Zm4.256,-7.403l-0.044,0.082c0.015,-0.027 0.03,-0.055 0.044,-0.082Zm4.256,-7.404l-0.044,0.083c0.016,-0.027 0.03,-0.055 0.044,-0.083Zm8.513,-14.806l-0.045,0.083c0.016,-0.028 0.031,-0.055 0.045,-0.083Zm4.256,-7.403l-0.045,0.083c0.016,-0.028 0.031,-0.055 0.045,-0.083Zm4.256,-7.403l-0.045,0.083c0.016,-0.028 0.031,-0.055 0.045,-0.083Z" style="fill:#939393;fill-opacity:0.19;"/><path d="M45.025,132.814l74.705,10.363" style="fill:none;stroke:#848484;stroke-opacity:0.44;stroke-width:0.5px;"/><path d="M47.677,128.202l74.705,10.363" style="fill:none;stroke:#848484;stroke-opacity:0.44;stroke-width:0.2px;"/><path d="M50.125,123.943l74.705,10.363" style="fill:none;stroke:#848484;stroke-opacity:0.44;stroke-width:0.2px;"/><path d="M52.574,119.684l74.705,10.363" style="fill:none;stroke:#848484;stroke-opacity:0.44;stroke-width:0.2px;"/><path d="M55.022,115.426l74.705,10.363" style="fill:none;stroke:#848484;stroke-opacity:0.44;stroke-width:0.2px;"/><path d="M57.47,111.167l74.705,10.363" style="fill:none;stroke:#848484;stroke-opacity:0.44;stroke-width:0.2px;"/><path d="M59.919,106.908l74.705,10.363" style="fill:none;stroke:#848484;stroke-opacity:0.44;stroke-width:0.2px;"/><path d="M62.367,102.649l74.705,10.363" style="fill:none;stroke:#848484;stroke-opacity:0.44;stroke-width:0.2px;"/><path d="M64.815,98.391l74.706,10.362" style="fill:none;stroke:#848484;stroke-opacity:0.44;stroke-width:0.2px;"/><path d="M67.264,94.132l74.705,10.363" style="fill:none;stroke:#848484;stroke-opacity:0.44;stroke-width:0.2px;"/><path d="M69.712,89.873l74.705,10.363" style="fill:none;stroke:#848484;stroke-opacity:0.44;stroke-width:0.2px;"/><path d="M72.161,85.614l74.705,10.363" style="fill:none;stroke:#848484;stroke-opacity:0.44;stroke-width:0.2px;"/><path d="M74.609,81.355l74.705,10.363" style="fill:none;stroke:#848484;stroke-opacity:0.44;stroke-width:0.2px;"/><path d="M77.057,77.097l74.705,10.363" style="fill:none;stroke:#848484;stroke-opacity:0.44;stroke-width:0.2px;"/><path d="M79.506,72.838l74.705,10.363" style="fill:none;stroke:#848484;stroke-opacity:0.44;stroke-width:0.2px;"/><path d="M81.954,68.579l74.705,10.363" style="fill:none;stroke:#848484;stroke-opacity:0.44;stroke-width:0.2px;"/><path d="M87.857,58.047l74.705,10.363" style="fill:none;stroke:#848484;stroke-opacity:0.44;stroke-width:0.5px;"/><path d="M84.351,64.146l74.705,10.363" style="fill:none;stroke:#848484;stroke-opacity:0.44;stroke-width:0.5px;"/></g></svg>