<?xml version="1.0" encoding="UTF-8" standalone="no"?><!DOCTYPE svg PUBLIC "-//W3C//DTD SVG 1.1//EN" "http://www.w3.org/Graphics/SVG/1.1/DTD/svg11.dtd"><svg width="100%" height="100%" viewBox="0 0 200 200" version="1.1" xmlns="http://www.w3.org/2000/svg" xmlns:xlink="http://www.w3.org/1999/xlink" xml:space="preserve" xmlns:serif="http://www.serif.com/" style="fill-rule:evenodd;clip-rule:evenodd;stroke-linecap:round;stroke-linejoin:round;stroke-miterlimit:1.5;"><g><path d="M27.071,136.781c0.627,0.928 1.951,1.718 3.69,2.078l95.473,19.731c2.927,0.605 5.929,-0.239 6.7,-1.884l40.84,-87.183c0.386,-0.822 0.14,-1.69 -0.568,-2.428c-0.627,-0.928 -1.951,-1.718 -3.69,-2.078l-95.472,-19.731c-2.928,-0.605 -5.93,0.239 -6.7,1.884l-40.841,87.183c-0.385,0.822 -0.14,1.69 0.568,2.428Zm13.267,-5.893c0.289,0.468 0.345,0.998 0.104,1.513c-0.561,1.197 -2.513,1.859 -4.357,1.478c-0.794,-0.165 -1.44,-0.495 -1.872,-0.915c-0.29,-0.468 -0.346,-0.998 -0.104,-1.514c0.56,-1.196 2.513,-1.858 4.357,-1.477c0.794,0.164 1.439,0.495 1.872,0.915Zm3.681,-7.858c0.289,0.467 0.345,0.998 0.104,1.513c-0.561,1.197 -2.513,1.859 -4.357,1.477c-0.794,-0.164 -1.44,-0.495 -1.872,-0.914c-0.29,-0.468 -0.345,-0.999 -0.104,-1.514c0.56,-1.196 2.513,-1.858 4.357,-1.477c0.794,0.164 1.439,0.495 1.872,0.915Zm3.681,-7.859c0.289,0.468 0.345,0.999 0.104,1.514c-0.56,1.197 -2.513,1.859 -4.357,1.477c-0.794,-0.164 -1.439,-0.495 -1.872,-0.914c-0.289,-0.468 -0.345,-0.999 -0.104,-1.514c0.56,-1.196 2.513,-1.858 4.357,-1.477c0.794,0.164 1.439,0.495 1.872,0.914Zm4.732,-8.214c0.412,0.623 0.502,1.338 0.177,2.031c-0.727,1.552 -3.259,2.41 -5.651,1.916c-1.069,-0.221 -1.929,-0.674 -2.49,-1.247c-0.412,-0.623 -0.502,-1.338 -0.178,-2.031c0.727,-1.552 3.26,-2.41 5.652,-1.916c1.068,0.221 1.929,0.674 2.49,1.247Zm2.63,-7.502c0.29,0.468 0.346,0.999 0.104,1.514c-0.56,1.197 -2.512,1.858 -4.357,1.477c-0.794,-0.164 -1.439,-0.495 -1.872,-0.914c-0.289,-0.468 -0.345,-0.999 -0.104,-1.514c0.561,-1.196 2.513,-1.858 4.357,-1.477c0.794,0.164 1.44,0.495 1.872,0.914Zm3.681,-7.858c0.29,0.468 0.346,0.999 0.104,1.514c-0.56,1.196 -2.512,1.858 -4.357,1.477c-0.794,-0.164 -1.439,-0.495 -1.872,-0.914c-0.289,-0.468 -0.345,-0.999 -0.104,-1.514c0.561,-1.196 2.513,-1.858 4.357,-1.477c0.794,0.164 1.44,0.495 1.872,0.914Zm3.682,-7.858c0.289,0.468 0.345,0.999 0.103,1.514c-0.56,1.196 -2.512,1.858 -4.356,1.477c-0.795,-0.164 -1.44,-0.495 -1.873,-0.914c-0.289,-0.468 -0.345,-0.999 -0.103,-1.514c0.56,-1.196 2.512,-1.858 4.356,-1.477c0.795,0.164 1.44,0.495 1.873,0.914Zm4.595,-8.168c0.411,0.622 0.501,1.336 0.177,2.028c-0.726,1.55 -3.255,2.407 -5.644,1.913c-1.067,-0.22 -1.927,-0.673 -2.486,-1.244c-0.412,-0.622 -0.502,-1.336 -0.178,-2.028c0.726,-1.55 3.255,-2.407 5.645,-1.914c1.066,0.221 1.926,0.674 2.486,1.245Zm2.767,-7.548c0.289,0.468 0.345,0.999 0.104,1.514c-0.561,1.196 -2.513,1.858 -4.357,1.477c-0.794,-0.164 -1.44,-0.495 -1.872,-0.914c-0.29,-0.468 -0.346,-0.999 -0.104,-1.514c0.56,-1.197 2.512,-1.858 4.357,-1.477c0.794,0.164 1.439,0.495 1.872,0.914Zm3.681,-7.858c0.289,0.468 0.345,0.999 0.104,1.514c-0.561,1.196 -2.513,1.858 -4.357,1.477c-0.794,-0.164 -1.44,-0.495 -1.872,-0.914c-0.29,-0.468 -0.345,-0.999 -0.104,-1.514c0.56,-1.197 2.513,-1.859 4.357,-1.477c0.794,0.164 1.439,0.495 1.872,0.914Zm3.681,-7.858c0.289,0.468 0.345,0.999 0.104,1.514c-0.561,1.196 -2.513,1.858 -4.357,1.477c-0.794,-0.164 -1.44,-0.495 -1.872,-0.915c-0.29,-0.467 -0.345,-0.998 -0.104,-1.513c0.56,-1.197 2.513,-1.859 4.357,-1.477c0.794,0.164 1.439,0.495 1.872,0.914Z" style="fill:#f8f8f8;"/><path d="M173.206,67.095l0.047,0.071c0.388,0.615 0.472,1.285 0.171,1.927l-40.84,87.183c-0.771,1.644 -3.773,2.489 -6.7,1.884l-95.473,-19.732c-1.463,-0.302 -2.632,-0.909 -3.34,-1.647c0.627,0.928 1.951,1.718 3.69,2.078l95.473,19.731c2.927,0.605 5.929,-0.239 6.7,-1.884l40.84,-87.183c0.386,-0.822 0.14,-1.69 -0.568,-2.428Zm-137.255,66.754l0.134,0.03l-0.086,-0.019l-0.048,-0.011Zm-0.146,-0.037c0.042,0.011 0.083,0.022 0.125,0.032l-0.125,-0.032Zm4.711,-1.597l-0.031,0.084c0.011,-0.028 0.022,-0.056 0.031,-0.084Zm-4.857,1.555c0.04,0.013 0.081,0.024 0.123,0.036l-0.123,-0.036Zm4.887,-1.656l-0.025,0.085c0.009,-0.028 0.017,-0.057 0.025,-0.085Zm-13.54,4.598l0.003,0.003l-0.003,-0.003Zm13.552,-4.648l-0.01,0.039l0.019,-0.084l-0.009,0.045Zm-5.032,1.664l0.118,0.038l-0.056,-0.018l-0.062,-0.02Zm-8.582,2.913l0.005,0.006l-0.005,-0.006Zm13.638,-4.716l-0.014,0.086c0.006,-0.029 0.01,-0.057 0.014,-0.086Zm-5.184,1.757c0.038,0.015 0.078,0.029 0.117,0.042l-0.117,-0.042Zm-8.513,2.888l0.007,0.009l-0.007,-0.009Zm13.706,-4.745l-0.008,0.085c0.004,-0.029 0.006,-0.057 0.008,-0.085Zm-5.326,1.806c0.037,0.015 0.074,0.029 0.112,0.044l-0.112,-0.044Zm-8.437,2.868l0.009,0.011l-0.009,-0.011Zm13.765,-4.775l-0.002,0.087c0.002,-0.029 0.002,-0.058 0.002,-0.087Zm-5.459,1.85c0.037,0.017 0.075,0.033 0.113,0.049l-0.113,-0.049Zm-8.36,2.852l0.01,0.014l-0.01,-0.014Zm8.248,-2.905l0.109,0.052l-0.064,-0.03l-0.045,-0.022Zm5.57,-1.851l0.001,0.051l-0.004,-0.087l0.003,0.036Zm-13.869,4.683l0.011,0.017l-0.011,-0.017Zm8.182,-2.892c0.034,0.019 0.069,0.037 0.104,0.054l-0.104,-0.054Zm5.674,-1.923l0.009,0.085c-0.002,-0.028 -0.005,-0.057 -0.009,-0.085Zm-13.904,4.742l0.012,0.019l-0.012,-0.019Zm13.887,-4.841l0.015,0.086c-0.004,-0.029 -0.009,-0.057 -0.015,-0.086Zm-5.773,1.957c0.033,0.019 0.066,0.038 0.101,0.057l-0.101,-0.057Zm-8.159,2.81l0.012,0.021l-0.012,-0.021Zm13.881,-4.952l0.028,0.088l0.021,0.089c-0.012,-0.059 -0.029,-0.119 -0.049,-0.177Zm-5.832,2.075l-0.098,-0.065c0.064,0.044 0.13,0.086 0.199,0.127l-0.101,-0.062Zm-8.092,2.802l0.013,0.023l-0.013,-0.023Zm-0.039,-0.075l0.013,0.025l-0.013,-0.025Zm-0.036,-0.075l0.013,0.027l-0.013,-0.027Zm7.969,-2.789c0.03,0.023 0.061,0.045 0.092,0.067l-0.092,-0.067Zm5.996,-2.032l0.032,0.086c-0.01,-0.029 -0.021,-0.058 -0.032,-0.086Zm-13.998,4.745l0.012,0.028l-0.012,-0.028Zm7.734,-2.941c-0.573,-0.554 -0.773,-1.262 -0.454,-1.944c0.56,-1.196 2.513,-1.858 4.357,-1.477c1.197,0.248 2.056,0.874 2.358,1.61c-0.037,-0.09 -0.083,-0.179 -0.136,-0.265c-0.433,-0.42 -1.078,-0.751 -1.872,-0.915c-1.844,-0.381 -3.797,0.281 -4.357,1.477c-0.242,0.516 -0.186,1.046 0.104,1.514Zm0.083,0.078l-0.083,-0.078c0.08,0.078 0.167,0.152 0.261,0.223l-0.089,-0.07c-0.03,-0.025 -0.059,-0.05 -0.089,-0.075Zm-7.847,2.787l0.011,0.03l-0.011,-0.03Zm-0.027,-0.077l0.011,0.031l-0.011,-0.031Zm-0.024,-0.076l0.01,0.032l-0.01,-0.032Zm-0.021,-0.078l0.009,0.034l-0.009,-0.034Zm-0.017,-0.077l0.007,0.034l-0.007,-0.034Zm-0.014,-0.078l0.006,0.035l-0.006,-0.035Zm-0.011,-0.077l0.005,0.035l-0.005,-0.035Zm-0.008,-0.078l0.003,0.036l-0.003,-0.036Zm-0.004,-0.078l0.002,0.036l-0.002,-0.036Zm-0.001,-0.078l0,0.036l-0,-0.036Zm0.002,-0.079l-0.001,0.037l0.001,-0.037Zm0.006,-0.078l-0.003,0.037l0.003,-0.037Zm0.009,-0.078l-0.004,0.036l0.004,-0.036Zm0.013,-0.078l-0.006,0.036l0.006,-0.036Zm0.016,-0.078l-0.007,0.035l0.007,-0.035Zm0.02,-0.078l-0.009,0.034l0.009,-0.034Zm0.023,-0.078l-0.01,0.033l0.01,-0.033Zm0.027,-0.078l-0.01,0.031l0.01,-0.031Zm0.031,-0.077l-0.01,0.026l0.01,-0.026Zm13.163,-8.439l0.134,0.029l-0.086,-0.018l-0.048,-0.011Zm-0.146,-0.037c0.042,0.011 0.083,0.022 0.125,0.032l-0.125,-0.032Zm4.711,-1.597l-0.03,0.084c0.011,-0.028 0.021,-0.056 0.03,-0.084Zm-4.857,1.555c0.041,0.013 0.081,0.024 0.123,0.036l-0.123,-0.036Zm4.887,-1.656l-0.025,0.085c0.009,-0.028 0.017,-0.057 0.025,-0.085Zm0.012,-0.051l-0.01,0.04l0.019,-0.084l-0.009,0.044Zm-5.032,1.665l0.118,0.038l-0.056,-0.018l-0.062,-0.02Zm-0.128,-0.046c0.038,0.015 0.078,0.029 0.117,0.042l-0.117,-0.042Zm5.184,-1.757l-0.014,0.086c0.006,-0.029 0.01,-0.057 0.014,-0.086Zm0.009,-0.1l-0.007,0.085c0.003,-0.029 0.005,-0.057 0.007,-0.085Zm-5.326,1.806c0.037,0.015 0.074,0.029 0.112,0.044l-0.112,-0.044Zm5.328,-1.907l-0.002,0.087c0.002,-0.029 0.003,-0.058 0.002,-0.087Zm-5.459,1.85c0.037,0.017 0.075,0.033 0.113,0.049l-0.113,-0.049Zm-0.112,-0.053l0.109,0.052l-0.064,-0.03l-0.045,-0.022Zm5.57,-1.851l0.001,0.051l-0.004,-0.088l0.003,0.037Zm-5.687,1.791c0.034,0.019 0.069,0.036 0.104,0.054l-0.104,-0.054Zm5.674,-1.923l0.01,0.085c-0.003,-0.028 -0.006,-0.057 -0.01,-0.085Zm-0.017,-0.099l0.015,0.086c-0.004,-0.029 -0.009,-0.058 -0.015,-0.086Zm-5.773,1.957c0.033,0.019 0.067,0.038 0.101,0.057l-0.101,-0.057Zm5.723,-2.142l0.027,0.088l0.021,0.089c-0.012,-0.06 -0.029,-0.119 -0.048,-0.177Zm-5.833,2.075l-0.098,-0.065c0.064,0.044 0.13,0.086 0.199,0.127l-0.101,-0.062Zm-0.198,-0.137c0.03,0.023 0.061,0.045 0.092,0.067l-0.092,-0.067Zm5.996,-2.032l0.032,0.086c-0.01,-0.029 -0.021,-0.058 -0.032,-0.086Zm-6.002,2.027c-0.768,-0.578 -1.08,-1.39 -0.716,-2.167c0.56,-1.196 2.513,-1.858 4.357,-1.477c1.197,0.248 2.056,0.874 2.358,1.61c-0.037,-0.09 -0.082,-0.179 -0.136,-0.265c-0.433,-0.42 -1.078,-0.751 -1.872,-0.915c-1.844,-0.381 -3.797,0.281 -4.357,1.477c-0.241,0.515 -0.186,1.046 0.104,1.514c0.08,0.078 0.167,0.152 0.262,0.223Zm5.157,-7.196c0.045,0.01 0.089,0.02 0.134,0.029l-0.134,-0.029Zm-0.145,-0.037c0.041,0.011 0.082,0.022 0.124,0.032l-0.124,-0.032Zm4.71,-1.597l-0.03,0.084c0.011,-0.028 0.021,-0.056 0.03,-0.084Zm-4.857,1.555c0.041,0.013 0.082,0.024 0.123,0.036l-0.123,-0.036Zm4.887,-1.656l-0.025,0.085c0.009,-0.028 0.018,-0.057 0.025,-0.085Zm0.012,-0.051l-0.01,0.04l0.019,-0.084l-0.009,0.044Zm-5.032,1.665l0.118,0.038l-0.056,-0.018l-0.062,-0.02Zm-0.128,-0.046c0.039,0.015 0.078,0.029 0.117,0.042l-0.117,-0.042Zm5.184,-1.757l-0.013,0.086c0.005,-0.029 0.009,-0.057 0.013,-0.086Zm0.009,-0.1l-0.007,0.084c0.003,-0.028 0.005,-0.056 0.007,-0.084Zm-5.326,1.805c0.037,0.016 0.074,0.03 0.112,0.045l-0.112,-0.045Zm5.328,-1.907l-0.001,0.088c0.001,-0.029 0.002,-0.058 0.001,-0.088Zm-5.459,1.851c0.037,0.017 0.075,0.033 0.113,0.049l-0.113,-0.049Zm-0.112,-0.053l0.109,0.051l-0.064,-0.029l-0.045,-0.022Zm5.57,-1.851l0.001,0.051l-0.004,-0.088l0.003,0.037Zm-5.686,1.791c0.034,0.019 0.068,0.036 0.103,0.054l-0.103,-0.054Zm5.673,-1.923l0.01,0.085c-0.003,-0.028 -0.006,-0.057 -0.01,-0.085Zm-0.017,-0.099l0.015,0.086c-0.004,-0.029 -0.009,-0.058 -0.015,-0.086Zm-5.773,1.957c0.033,0.019 0.067,0.038 0.101,0.057l-0.101,-0.057Zm5.723,-2.143l0.027,0.089l0.021,0.089c-0.012,-0.06 -0.028,-0.119 -0.048,-0.178Zm-5.833,2.076l-0.098,-0.065c0.064,0.044 0.13,0.086 0.199,0.127l-0.101,-0.062Zm5.798,-2.169l0.032,0.086c-0.01,-0.029 -0.02,-0.058 -0.032,-0.086Zm-5.996,2.032c0.03,0.023 0.061,0.045 0.092,0.066l-0.092,-0.066Zm-0.006,-0.005c-0.768,-0.578 -1.08,-1.39 -0.716,-2.167c0.561,-1.196 2.513,-1.858 4.357,-1.477c1.197,0.247 2.056,0.874 2.358,1.61c-0.037,-0.09 -0.082,-0.179 -0.136,-0.266c-0.433,-0.419 -1.078,-0.75 -1.872,-0.914c-1.844,-0.381 -3.797,0.281 -4.357,1.477c-0.241,0.515 -0.185,1.046 0.104,1.514c0.08,0.078 0.167,0.152 0.262,0.223Zm4.98,-6.598l0.035,0.008l-0.035,-0.008Zm5.833,-1.977l-0.01,0.023l0.01,-0.023Zm-5.943,1.951l0.04,0.01l-0.011,-0.003l-0.029,-0.007Zm5.965,-2.005l-0.003,0.007l0.01,-0.027l-0.007,0.02Zm-6.07,1.978l0.042,0.011l-0.016,-0.004l-0.026,-0.007Zm6.096,-2.051l-0.004,0.011l0.01,-0.029l-0.006,0.018Zm-6.198,2.023l0.042,0.012l-0.02,-0.006l-0.022,-0.006Zm6.222,-2.096l-0.005,0.014l0.009,-0.029l-0.004,0.015Zm0.02,-0.073l-0.005,0.017l0.008,-0.029l-0.003,0.012Zm-6.343,2.139l0.042,0.013l-0.025,-0.008l-0.017,-0.005Zm-0.098,-0.031l0.04,0.013l-0.028,-0.009l-0.012,-0.004Zm6.459,-2.181l-0.005,0.019l0.007,-0.028l-0.002,0.009Zm0.016,-0.079l-0.005,0.026l0.005,-0.026Zm-6.572,2.228l0.036,0.012l-0.036,-0.012Zm6.583,-2.297l-0.003,0.017l0.003,-0.017Zm-6.678,2.264l0.023,0.008l-0.023,-0.008Zm6.688,-2.356l-0.002,0.023l0.002,-0.023Zm-6.811,2.309l0.031,0.012l-0.031,-0.012Zm6.816,-2.362l-0.001,0.007l0.002,-0.029l-0.001,0.022Zm-6.915,2.323l0.038,0.015l-0.009,-0.003l-0.029,-0.012Zm6.918,-2.395l-0,0.01l0.001,-0.031l-0.001,0.021Zm-7.01,2.356l0.04,0.017l-0.013,-0.006l-0.027,-0.011Zm7.011,-2.429l-0,0.014l-0.001,-0.032l0.001,0.018Zm-7.1,2.389l0.041,0.018l-0.018,-0.008l-0.023,-0.01Zm-0.087,-0.041l0.041,0.02l-0.023,-0.011l-0.018,-0.009Zm7.185,-2.421l0,0.018l-0.001,-0.032l0.001,0.014Zm-7.27,2.379l0.041,0.021l-0.027,-0.014l-0.014,-0.007Zm7.265,-2.451l0.001,0.022l-0.002,-0.033l0.001,0.011Zm-7.348,2.408l0.041,0.022l-0.032,-0.016l-0.009,-0.006Zm7.34,-2.48l0.003,0.026l-0.004,-0.034l0.001,0.008Zm-7.422,2.436l0.042,0.023l-0.036,-0.02l-0.006,-0.003Zm7.412,-2.508l0.005,0.031l-0.006,-0.035l0.001,0.004Zm120.352,-40.831l0.015,0.021l-0.015,-0.021Zm-127.839,43.297l0.049,0.027l-0.052,-0.029l-0.046,-0.027l0.049,0.029Zm7.474,-2.537l0.008,0.044l-0.007,-0.042l-0.01,-0.042l0.009,0.04Zm120.312,-40.83l0.008,0.011l-0.021,-0.027l0.013,0.016Zm-120.327,40.759l0.001,0.008l-0.01,-0.042l0.009,0.034Zm-7.582,2.534l0.047,0.029l-0.009,-0.006l-0.038,-0.023Zm127.841,-43.377l0.012,0.015l-0.024,-0.028l0.012,0.013Zm-127.915,43.329l0.046,0.03l-0.014,-0.008l-0.032,-0.022Zm7.637,-2.557l0.004,0.012l-0.012,-0.041l0.008,0.029Zm-7.71,2.509l0.046,0.031l-0.019,-0.012l-0.027,-0.019Zm7.69,-2.579l0.005,0.017l-0.014,-0.042l0.009,0.025Zm120.225,-40.786l0.015,0.018l-0.022,-0.026l0.007,0.008Zm-127.986,43.315l0.046,0.033l-0.024,-0.016l-0.022,-0.017Zm7.737,-2.599l0.008,0.022l-0.016,-0.043l0.008,0.021Zm120.17,-40.801l0.014,0.015l-0.014,-0.015Zm-127.977,43.35l0.048,0.035l-0.029,-0.022l-0.019,-0.013Zm7.781,-2.618l0.011,0.028l-0.018,-0.046l0.007,0.018Zm-7.848,2.566l0.051,0.039l-0.037,-0.028l-0.014,-0.011Zm7.82,-2.635l0.015,0.035l-0.021,-0.049l0.006,0.014Zm120.131,-40.757l0.018,0.017l-0.018,-0.017Zm-127.958,43.387c-0.952,-0.747 -1.331,-1.778 -0.869,-2.766c0.727,-1.552 3.26,-2.41 5.652,-1.916c1.522,0.315 2.623,1.101 3.035,2.032c-0.054,-0.121 -0.119,-0.24 -0.195,-0.355c-0.561,-0.573 -1.422,-1.026 -2.49,-1.247c-2.392,-0.494 -4.925,0.364 -5.652,1.916c-0.324,0.693 -0.234,1.408 0.178,2.031c0.104,0.106 0.218,0.208 0.341,0.305Zm127.889,-43.453l0.008,0.008l-0.027,-0.025l0.019,0.017Zm-0.088,-0.08l0.014,0.014l-0.031,-0.027l0.017,0.013Zm-0.092,-0.078l0.02,0.017l-0.031,-0.026l0.011,0.009Zm-0.1,-0.081l0.024,0.02l-0.024,-0.02Zm-0.107,-0.08l0.015,0.01l-0.015,-0.01Zm-0.089,-0.065l0.009,0.006l-0.033,-0.023l0.024,0.017Zm-0.106,-0.073l0.016,0.011l-0.038,-0.025l0.022,0.014Zm-0.109,-0.071l0.022,0.014l-0.038,-0.024l0.016,0.01Zm-0.113,-0.07l0.026,0.016l-0.034,-0.021l0.008,0.005Zm-0.116,-0.068l0.005,0.003l-0.005,-0.003Zm-0.119,-0.066l0.008,0.004l-0.035,-0.019l0.027,0.015Zm-0.122,-0.065l0.016,0.009l-0.043,-0.022l0.027,0.013Zm-0.126,-0.063l0.024,0.012l-0.044,-0.022l0.02,0.01Zm-0.128,-0.061l0.029,0.014l-0.042,-0.02l0.013,0.006Zm-0.136,-0.061l0.026,0.012l-0.026,-0.012Zm-0.159,-0.067l0.034,0.014l-0.034,-0.014Zm-0.109,-0.044l0.015,0.007l-0.047,-0.018l0.032,0.011Zm-0.141,-0.053l0.025,0.009l-0.05,-0.018l0.025,0.009Zm-0.143,-0.051l0.032,0.011l-0.049,-0.017l0.017,0.006Zm-0.154,-0.051l0.039,0.012l-0.039,-0.012Zm-0.164,-0.052l0.026,0.008l-0.026,-0.008Zm-0.129,-0.037l0.014,0.004l-0.049,-0.014l0.035,0.01Zm-0.154,-0.042l0.024,0.006l-0.054,-0.014l0.03,0.008Zm-0.157,-0.04l0.033,0.008l-0.055,-0.013l0.022,0.005Zm-0.159,-0.038l0.036,0.009l-0.047,-0.011l0.011,0.002Zm-119.003,37.364c0.045,0.011 0.089,0.021 0.134,0.03l-0.134,-0.03Zm-0.145,-0.036c0.041,0.011 0.082,0.021 0.124,0.032l-0.124,-0.032Zm4.71,-1.597l-0.03,0.084c0.011,-0.028 0.021,-0.056 0.03,-0.084Zm-4.857,1.555c0.041,0.012 0.082,0.024 0.123,0.035l-0.123,-0.035Zm4.887,-1.657l-0.025,0.086c0.01,-0.029 0.018,-0.057 0.025,-0.086Zm-5.02,1.615l0.118,0.038l-0.056,-0.018l-0.062,-0.02Zm5.032,-1.665l-0.009,0.04l0.018,-0.084l-0.009,0.044Zm-5.16,1.619c0.039,0.015 0.078,0.029 0.118,0.042l-0.118,-0.042Zm5.184,-1.757l-0.013,0.086c0.005,-0.029 0.009,-0.058 0.013,-0.086Zm0.009,-0.1l-0.007,0.084c0.003,-0.028 0.006,-0.056 0.007,-0.084Zm-5.325,1.805c0.036,0.015 0.074,0.03 0.112,0.044l-0.112,-0.044Zm-0.131,-0.056c0.037,0.017 0.074,0.033 0.112,0.049l-0.112,-0.049Zm5.459,-1.851l-0.002,0.088c0.001,-0.029 0.002,-0.059 0.002,-0.088Zm-5.572,1.798l0.109,0.051l-0.064,-0.029l-0.045,-0.022Zm5.57,-1.851l0.002,0.05l-0.004,-0.087l0.002,0.037Zm-5.686,1.791c0.034,0.018 0.068,0.036 0.104,0.054l-0.104,-0.054Zm5.673,-1.923l0.01,0.085c-0.002,-0.028 -0.006,-0.057 -0.01,-0.085Zm-0.017,-0.099l0.016,0.085c-0.005,-0.028 -0.01,-0.057 -0.016,-0.085Zm-5.773,1.957c0.033,0.019 0.067,0.038 0.101,0.057l-0.101,-0.057Zm5.723,-2.143l0.027,0.089l0.022,0.089c-0.013,-0.06 -0.029,-0.119 -0.049,-0.178Zm-5.833,2.076l-0.098,-0.065c0.064,0.044 0.13,0.086 0.199,0.127l-0.101,-0.062Zm5.798,-2.17l0.032,0.087c-0.009,-0.029 -0.02,-0.058 -0.032,-0.087Zm-5.995,2.033c0.029,0.023 0.06,0.045 0.091,0.066l-0.091,-0.066Zm-0.269,-0.228c-0.572,-0.554 -0.773,-1.263 -0.454,-1.944c0.561,-1.196 2.513,-1.858 4.357,-1.477c1.197,0.247 2.056,0.874 2.358,1.61c-0.037,-0.09 -0.082,-0.179 -0.136,-0.266c-0.432,-0.419 -1.078,-0.75 -1.872,-0.914c-1.844,-0.381 -3.796,0.281 -4.357,1.477c-0.241,0.515 -0.185,1.046 0.104,1.514Zm0.084,0.077l-0.084,-0.077c0.08,0.077 0.168,0.152 0.262,0.223l-0.09,-0.07c-0.029,-0.025 -0.059,-0.05 -0.088,-0.076Zm5.336,-7.051c0.044,0.011 0.088,0.021 0.133,0.03l-0.133,-0.03Zm4.564,-1.633l-0.03,0.084c0.011,-0.028 0.021,-0.056 0.03,-0.084Zm-4.71,1.597c0.041,0.011 0.083,0.021 0.125,0.031l-0.125,-0.031Zm-0.146,-0.042c0.04,0.012 0.081,0.024 0.122,0.035l-0.122,-0.035Zm4.886,-1.657l-0.024,0.086c0.009,-0.029 0.017,-0.057 0.024,-0.086Zm0.012,-0.05l-0.009,0.04l0.018,-0.084l-0.009,0.044Zm-5.031,1.665l0.118,0.037l-0.056,-0.017l-0.062,-0.02Zm-0.129,-0.046c0.039,0.015 0.078,0.028 0.118,0.042l-0.118,-0.042Zm5.184,-1.757l-0.013,0.086c0.005,-0.029 0.01,-0.058 0.013,-0.086Zm0.009,-0.1l-0.007,0.084c0.003,-0.028 0.006,-0.056 0.007,-0.084Zm-5.325,1.805c0.036,0.015 0.074,0.03 0.112,0.044l-0.112,-0.044Zm5.328,-1.907l-0.002,0.088c0.002,-0.03 0.002,-0.059 0.002,-0.088Zm-5.459,1.851c0.037,0.016 0.074,0.033 0.112,0.049l-0.112,-0.049Zm-0.113,-0.053l0.109,0.051l-0.063,-0.029l-0.046,-0.022Zm5.57,-1.851l0.002,0.05l-0.004,-0.087l0.002,0.037Zm-5.686,1.791c0.034,0.018 0.069,0.036 0.104,0.054l-0.104,-0.054Zm5.674,-1.924l0.009,0.086c-0.002,-0.029 -0.006,-0.057 -0.009,-0.086Zm-0.017,-0.098l0.015,0.085c-0.004,-0.028 -0.01,-0.057 -0.015,-0.085Zm-5.773,1.957c0.032,0.019 0.066,0.038 0.1,0.057l-0.1,-0.057Zm5.722,-2.143l0.027,0.089l0.022,0.089c-0.013,-0.06 -0.029,-0.119 -0.049,-0.178Zm-5.833,2.076l-0.097,-0.065c0.063,0.044 0.129,0.086 0.198,0.127l-0.101,-0.062Zm-0.197,-0.137c0.03,0.022 0.06,0.045 0.092,0.066l-0.092,-0.066Zm5.995,-2.033l0.033,0.087c-0.01,-0.029 -0.021,-0.058 -0.033,-0.087Zm-6.002,2.028c-0.768,-0.578 -1.079,-1.391 -0.716,-2.167c0.561,-1.196 2.513,-1.858 4.357,-1.477c1.197,0.247 2.057,0.874 2.359,1.61c-0.037,-0.09 -0.083,-0.179 -0.137,-0.266c-0.432,-0.419 -1.078,-0.75 -1.872,-0.914c-1.844,-0.381 -3.796,0.281 -4.357,1.477c-0.241,0.515 -0.185,1.046 0.104,1.514c0.08,0.077 0.168,0.152 0.262,0.223Zm5.158,-7.197c0.044,0.011 0.089,0.021 0.134,0.03l-0.134,-0.03Zm-0.146,-0.036c0.041,0.011 0.083,0.021 0.125,0.031l-0.125,-0.031Zm4.71,-1.597l-0.03,0.084c0.011,-0.028 0.021,-0.056 0.03,-0.084Zm-4.856,1.555c0.04,0.012 0.081,0.024 0.122,0.035l-0.122,-0.035Zm4.886,-1.657l-0.024,0.086c0.009,-0.029 0.017,-0.057 0.024,-0.086Zm0.012,-0.05l-0.009,0.04l0.018,-0.084l-0.009,0.044Zm-5.031,1.664l0.118,0.038l-0.056,-0.017l-0.062,-0.021Zm-0.129,-0.045c0.039,0.014 0.078,0.028 0.118,0.042l-0.118,-0.042Zm5.184,-1.758l-0.013,0.087c0.005,-0.029 0.01,-0.058 0.013,-0.087Zm0.009,-0.099l-0.007,0.084c0.003,-0.028 0.006,-0.056 0.007,-0.084Zm-5.325,1.805c0.037,0.015 0.074,0.03 0.112,0.044l-0.112,-0.044Zm-0.131,-0.056c0.037,0.016 0.074,0.033 0.112,0.049l-0.112,-0.049Zm5.459,-1.851l-0.002,0.088c0.002,-0.03 0.002,-0.059 0.002,-0.088Zm-5.572,1.798l0.109,0.051l-0.063,-0.029l-0.046,-0.022Zm5.57,-1.851l0.002,0.05l-0.004,-0.087l0.002,0.037Zm-5.686,1.791c0.034,0.018 0.069,0.036 0.104,0.053l-0.104,-0.053Zm5.674,-1.924l0.009,0.086c-0.002,-0.029 -0.005,-0.057 -0.009,-0.086Zm-0.017,-0.098l0.015,0.085c-0.004,-0.028 -0.009,-0.057 -0.015,-0.085Zm-5.773,1.957c0.033,0.019 0.066,0.038 0.1,0.056l-0.1,-0.056Zm5.722,-2.143l0.027,0.089l0.022,0.089c-0.013,-0.06 -0.029,-0.119 -0.049,-0.178Zm-5.833,2.076l-0.097,-0.065c0.063,0.044 0.13,0.086 0.199,0.126l-0.102,-0.061Zm-0.197,-0.137c0.03,0.022 0.06,0.044 0.092,0.066l-0.092,-0.066Zm5.995,-2.033l0.033,0.087c-0.01,-0.029 -0.021,-0.058 -0.033,-0.087Zm-6.264,1.805c-0.572,-0.554 -0.773,-1.263 -0.453,-1.944c0.56,-1.197 2.512,-1.858 4.356,-1.477c1.197,0.247 2.057,0.874 2.359,1.61c-0.037,-0.09 -0.083,-0.179 -0.136,-0.266c-0.433,-0.419 -1.078,-0.75 -1.873,-0.914c-1.844,-0.381 -3.796,0.281 -4.356,1.477c-0.242,0.515 -0.186,1.046 0.103,1.514Zm0.084,0.077l-0.084,-0.077c0.08,0.077 0.168,0.152 0.262,0.223l-0.09,-0.07c-0.029,-0.025 -0.059,-0.051 -0.088,-0.076Zm10.854,-8.386l-0.009,0.023l0.009,-0.023Zm-5.824,1.975l0.034,0.008l-0.034,-0.008Zm-0.111,-0.027l0.041,0.01l-0.011,-0.002l-0.03,-0.008Zm5.957,-2.002l-0.003,0.008l0.01,-0.028l-0.007,0.02Zm0.026,-0.073l-0.004,0.011l0.01,-0.029l-0.006,0.018Zm-6.088,2.048l0.042,0.011l-0.015,-0.004l-0.027,-0.007Zm6.112,-2.121l-0.005,0.014l0.009,-0.029l-0.004,0.015Zm-6.214,2.093l0.043,0.012l-0.021,-0.005l-0.022,-0.007Zm6.234,-2.166l-0.004,0.017l0.007,-0.029l-0.003,0.012Zm-6.334,2.137l0.042,0.012l-0.025,-0.007l-0.017,-0.005Zm6.352,-2.21l-0.005,0.02l0.007,-0.028l-0.002,0.008Zm-6.45,2.179l0.039,0.012l-0.027,-0.008l-0.012,-0.004Zm-0.096,-0.032l0.034,0.012l-0.034,-0.012Zm6.562,-2.225l-0.005,0.025l0.005,-0.025Zm0.011,-0.069l-0.002,0.015l0.002,-0.015Zm-6.668,2.26l0.02,0.008l-0.02,-0.008Zm-0.121,-0.045l0.028,0.011l-0.028,-0.011Zm6.799,-2.305l-0.002,0.021l0.002,-0.021Zm-6.899,2.265l0.036,0.015l-0.008,-0.003l-0.028,-0.012Zm6.904,-2.32l-0.001,0.007l0.002,-0.028l-0.001,0.021Zm0.003,-0.072l-0,0.01l0.001,-0.03l-0.001,0.02Zm-6.999,2.353l0.038,0.016l-0.013,-0.005l-0.025,-0.011Zm-0.089,-0.04l0.039,0.018l-0.018,-0.008l-0.021,-0.01Zm7.089,-2.386l-0,0.014l-0,-0.031l0,0.017Zm-7.176,2.346l0.039,0.018l-0.022,-0.01l-0.017,-0.008Zm7.174,-2.418l0,0.017l-0.001,-0.031l0.001,0.014Zm-7.259,2.376l0.038,0.019l-0.025,-0.013l-0.013,-0.006Zm7.254,-2.448l0.001,0.02l-0.002,-0.031l0.001,0.011Zm-7.337,2.405l0.037,0.019l-0.029,-0.014l-0.008,-0.005Zm7.329,-2.477l0.003,0.023l-0.004,-0.031l0.001,0.008Zm-7.411,2.433l0.035,0.019l-0.035,-0.019Zm7.401,-2.509l0.004,0.03l-0.004,-0.03Zm-7.477,2.466l0.014,0.008l-0.017,-0.01l-0.034,-0.02l0.037,0.022Zm7.464,-2.533l0.003,0.014l-0.002,-0.012l-0.007,-0.032l0.006,0.03Zm-7.581,2.462l0.04,0.025l-0.008,-0.004l-0.032,-0.021Zm7.566,-2.533l0.001,0.006l-0.009,-0.035l0.008,0.029Zm-7.642,2.485l0.041,0.027l-0.012,-0.008l-0.029,-0.019Zm7.624,-2.556l0.002,0.011l-0.01,-0.037l0.008,0.026Zm-0.021,-0.07l0.004,0.015l-0.012,-0.038l0.008,0.023Zm-7.677,2.577l0.042,0.028l-0.017,-0.011l-0.025,-0.017Zm-0.072,-0.05l0.043,0.03l-0.022,-0.015l-0.021,-0.015Zm7.726,-2.597l0.006,0.02l-0.014,-0.039l0.008,0.019Zm-7.795,2.546l0.043,0.032l-0.027,-0.019l-0.016,-0.013Zm7.769,-2.615l0.009,0.025l-0.016,-0.041l0.007,0.016Zm-7.837,2.564l0.046,0.035l-0.033,-0.025l-0.013,-0.01Zm7.808,-2.633l0.014,0.032l-0.019,-0.045l0.005,0.013Zm-7.821,2.623c-0.947,-0.746 -1.324,-1.774 -0.863,-2.758c0.726,-1.55 3.255,-2.408 5.645,-1.914c1.517,0.314 2.615,1.097 3.028,2.024c-0.053,-0.119 -0.117,-0.235 -0.192,-0.349c-0.56,-0.571 -1.42,-1.024 -2.486,-1.245c-2.39,-0.493 -4.919,0.364 -5.645,1.914c-0.324,0.692 -0.234,1.406 0.178,2.028c0.102,0.104 0.214,0.204 0.335,0.3Zm5.998,-7.584l0.134,0.03l-0.086,-0.019l-0.048,-0.011Zm-0.146,-0.036c0.041,0.011 0.083,0.021 0.125,0.031l-0.125,-0.031Zm4.711,-1.597l-0.031,0.084c0.011,-0.028 0.021,-0.056 0.031,-0.084Zm-4.857,1.555c0.04,0.012 0.081,0.024 0.123,0.035l-0.123,-0.035Zm4.887,-1.657l-0.025,0.085c0.009,-0.028 0.017,-0.056 0.025,-0.085Zm-5.02,1.614l0.118,0.038l-0.056,-0.017l-0.062,-0.021Zm5.032,-1.664l-0.01,0.04l0.019,-0.085l-0.009,0.045Zm-5.16,1.619c0.038,0.014 0.077,0.028 0.117,0.042l-0.117,-0.042Zm5.183,-1.758l-0.013,0.087c0.005,-0.029 0.01,-0.058 0.013,-0.087Zm0.01,-0.099l-0.008,0.084c0.004,-0.028 0.006,-0.056 0.008,-0.084Zm-5.326,1.805c0.037,0.015 0.074,0.03 0.112,0.044l-0.112,-0.044Zm-0.131,-0.056c0.037,0.016 0.075,0.032 0.113,0.048l-0.113,-0.048Zm5.459,-1.851l-0.002,0.087c0.002,-0.029 0.002,-0.058 0.002,-0.087Zm-5.571,1.797l0.109,0.052l-0.064,-0.029l-0.045,-0.023Zm5.57,-1.85l0.001,0.05l-0.004,-0.087l0.003,0.037Zm-5.687,1.791c0.034,0.018 0.069,0.036 0.104,0.053l-0.104,-0.053Zm5.674,-1.924l0.009,0.086c-0.002,-0.029 -0.005,-0.057 -0.009,-0.086Zm-0.017,-0.099l0.015,0.086c-0.004,-0.028 -0.009,-0.057 -0.015,-0.086Zm-5.773,1.958c0.033,0.019 0.066,0.038 0.101,0.056l-0.101,-0.056Zm5.722,-2.143l0.028,0.089l0.021,0.089c-0.012,-0.06 -0.029,-0.119 -0.049,-0.178Zm-5.832,2.075l-0.098,-0.064c0.063,0.043 0.13,0.086 0.199,0.126l-0.101,-0.062Zm5.798,-2.169l0.032,0.087c-0.01,-0.029 -0.021,-0.058 -0.032,-0.087Zm-5.996,2.033c0.03,0.022 0.061,0.044 0.092,0.066l-0.092,-0.066Zm-0.007,-0.005c-0.768,-0.579 -1.079,-1.391 -0.715,-2.167c0.56,-1.197 2.512,-1.859 4.357,-1.477c1.197,0.247 2.056,0.873 2.358,1.61c-0.037,-0.091 -0.083,-0.179 -0.136,-0.266c-0.433,-0.419 -1.078,-0.75 -1.872,-0.914c-1.845,-0.381 -3.797,0.28 -4.357,1.477c-0.242,0.515 -0.186,1.046 0.104,1.514c0.08,0.077 0.167,0.152 0.261,0.223Zm5.158,-7.197l0.134,0.03l-0.086,-0.019l-0.048,-0.011Zm4.565,-1.633l-0.031,0.084c0.012,-0.028 0.022,-0.056 0.031,-0.084Zm-4.711,1.596c0.042,0.012 0.083,0.022 0.125,0.032l-0.125,-0.032Zm-0.146,-0.041c0.041,0.012 0.081,0.024 0.123,0.035l-0.123,-0.035Zm4.887,-1.657l-0.025,0.085c0.009,-0.028 0.017,-0.056 0.025,-0.085Zm0.012,-0.05l-0.01,0.039l0.019,-0.084l-0.009,0.045Zm-5.032,1.664l0.118,0.038l-0.056,-0.017l-0.062,-0.021Zm-0.128,-0.045c0.038,0.014 0.078,0.028 0.117,0.042l-0.117,-0.042Zm5.184,-1.758l-0.014,0.087c0.006,-0.029 0.01,-0.058 0.014,-0.087Zm0.009,-0.1l-0.008,0.085c0.004,-0.028 0.006,-0.056 0.008,-0.085Zm-5.326,1.806c0.037,0.015 0.074,0.03 0.112,0.044l-0.112,-0.044Zm5.328,-1.907l-0.002,0.087c0.002,-0.029 0.003,-0.058 0.002,-0.087Zm-5.459,1.851c0.037,0.016 0.075,0.032 0.113,0.048l-0.113,-0.048Zm5.458,-1.904l0.001,0.05l-0.004,-0.087l0.003,0.037Zm-5.57,1.85l0.109,0.052l-0.064,-0.03l-0.045,-0.022Zm-0.117,-0.059c0.034,0.018 0.069,0.036 0.104,0.053l-0.104,-0.053Zm5.674,-1.924l0.009,0.086c-0.002,-0.029 -0.005,-0.057 -0.009,-0.086Zm-0.017,-0.099l0.015,0.086c-0.004,-0.029 -0.009,-0.057 -0.015,-0.086Zm-5.773,1.958c0.033,0.019 0.067,0.038 0.101,0.056l-0.101,-0.056Zm5.723,-2.143l0.027,0.089l0.021,0.089c-0.012,-0.06 -0.029,-0.119 -0.048,-0.178Zm-5.833,2.075l-0.098,-0.065c0.064,0.044 0.13,0.087 0.199,0.127l-0.101,-0.062Zm-0.198,-0.136c0.03,0.022 0.061,0.044 0.092,0.066l-0.092,-0.066Zm5.996,-2.033l0.032,0.086c-0.01,-0.028 -0.021,-0.057 -0.032,-0.086Zm-6.003,2.028c-0.767,-0.579 -1.079,-1.391 -0.715,-2.167c0.56,-1.197 2.513,-1.859 4.357,-1.477c1.197,0.247 2.056,0.873 2.358,1.61c-0.037,-0.091 -0.083,-0.179 -0.136,-0.266c-0.433,-0.419 -1.078,-0.75 -1.872,-0.914c-1.844,-0.382 -3.797,0.28 -4.357,1.477c-0.241,0.515 -0.186,1.046 0.104,1.514c0.08,0.077 0.167,0.152 0.261,0.223Zm5.158,-7.197l0.134,0.03l-0.086,-0.019l-0.048,-0.011Zm4.565,-1.634l-0.03,0.085c0.011,-0.028 0.021,-0.056 0.03,-0.085Zm-4.711,1.597c0.042,0.012 0.083,0.022 0.125,0.032l-0.125,-0.032Zm-0.146,-0.041c0.041,0.012 0.081,0.024 0.123,0.035l-0.123,-0.035Zm4.887,-1.657l-0.025,0.085c0.009,-0.028 0.017,-0.057 0.025,-0.085Zm0.012,-0.05l-0.01,0.039l0.019,-0.084l-0.009,0.045Zm-5.032,1.664l0.118,0.038l-0.056,-0.017l-0.062,-0.021Zm-0.128,-0.045c0.039,0.014 0.078,0.028 0.117,0.042l-0.117,-0.042Zm5.184,-1.758l-0.014,0.086c0.006,-0.028 0.01,-0.057 0.014,-0.086Zm0.009,-0.1l-0.007,0.085c0.003,-0.028 0.005,-0.056 0.007,-0.085Zm-5.326,1.806c0.037,0.015 0.074,0.03 0.112,0.044l-0.112,-0.044Zm5.328,-1.907l-0.001,0.087c0.001,-0.029 0.002,-0.058 0.001,-0.087Zm-5.459,1.851c0.037,0.016 0.075,0.032 0.113,0.048l-0.113,-0.048Zm5.458,-1.905l0.001,0.051l-0.004,-0.087l0.003,0.036Zm-5.57,1.851l0.109,0.052l-0.064,-0.03l-0.045,-0.022Zm5.557,-1.983l0.01,0.086c-0.003,-0.029 -0.006,-0.057 -0.01,-0.086Zm-5.673,1.924c0.034,0.018 0.068,0.036 0.103,0.053l-0.103,-0.053Zm5.656,-2.023l0.015,0.086c-0.004,-0.029 -0.009,-0.057 -0.015,-0.086Zm-5.773,1.958c0.033,0.019 0.067,0.038 0.101,0.056l-0.101,-0.056Zm5.723,-2.143l0.027,0.089l0.021,0.088c-0.012,-0.059 -0.029,-0.119 -0.048,-0.177Zm-5.833,2.075l-0.098,-0.065c0.064,0.044 0.13,0.086 0.199,0.127l-0.101,-0.062Zm-0.198,-0.136c0.03,0.022 0.061,0.044 0.092,0.066l-0.092,-0.066Zm5.996,-2.033l0.032,0.086c-0.01,-0.029 -0.021,-0.057 -0.032,-0.086Zm-6.264,1.804c-0.573,-0.554 -0.773,-1.262 -0.454,-1.943c0.56,-1.197 2.513,-1.859 4.357,-1.478c1.197,0.248 2.056,0.874 2.358,1.611c-0.037,-0.091 -0.082,-0.18 -0.136,-0.266c-0.433,-0.419 -1.078,-0.75 -1.872,-0.914c-1.844,-0.382 -3.797,0.28 -4.357,1.477c-0.241,0.515 -0.186,1.046 0.104,1.513Zm0.083,0.078l-0.083,-0.078c0.08,0.078 0.167,0.153 0.262,0.224l-0.09,-0.071c-0.03,-0.025 -0.059,-0.05 -0.089,-0.075Zm-30.627,77.852l-0.038,0.088c0.013,-0.029 0.026,-0.058 0.038,-0.088Zm3.681,-7.858l-0.038,0.088c0.014,-0.029 0.026,-0.058 0.038,-0.088Zm3.681,-7.858l-0.038,0.088c0.014,-0.029 0.026,-0.058 0.038,-0.088Zm7.362,-15.716l-0.038,0.088c0.014,-0.029 0.027,-0.058 0.038,-0.088Zm3.681,-7.858l-0.038,0.088c0.014,-0.029 0.027,-0.058 0.038,-0.088Zm3.681,-7.858l-0.038,0.088c0.014,-0.029 0.027,-0.058 0.038,-0.088Zm7.363,-15.716l-0.038,0.088c0.013,-0.029 0.026,-0.059 0.038,-0.088Zm3.681,-7.858l-0.038,0.088c0.013,-0.029 0.026,-0.059 0.038,-0.088Zm3.681,-7.858l-0.038,0.088c0.014,-0.03 0.026,-0.059 0.038,-0.088Z" style="fill:#939393;fill-opacity:0.19;"/><path d="M44.655,133.028l85.086,17.584" style="fill:none;stroke:#848484;stroke-opacity:0.44;stroke-width:0.5px;"/><path d="M46.948,128.133l85.209,17.609" style="fill:none;stroke:#848484;stroke-opacity:0.44;stroke-width:0.2px;"/><path d="M49.066,123.612l85.07,17.581" style="fill:none;stroke:#848484;stroke-opacity:0.44;stroke-width:0.2px;"/><path d="M51.183,119.092l85.255,17.619" style="fill:none;stroke:#848484;stroke-opacity:0.44;stroke-width:0.2px;"/><path d="M53.301,114.571l85.099,17.587" style="fill:none;stroke:#848484;stroke-opacity:0.44;stroke-width:0.2px;"/><path d="M55.419,110.051l85.041,17.575" style="fill:none;stroke:#848484;stroke-opacity:0.44;stroke-width:0.2px;"/><path d="M57.536,105.53l85.097,17.587" style="fill:none;stroke:#848484;stroke-opacity:0.44;stroke-width:0.2px;"/><path d="M59.654,101.01l85.025,17.572" style="fill:none;stroke:#848484;stroke-opacity:0.44;stroke-width:0.2px;"/><path d="M61.772,96.489l85.148,17.598" style="fill:none;stroke:#848484;stroke-opacity:0.44;stroke-width:0.2px;"/><path d="M63.889,91.969l85.038,17.574" style="fill:none;stroke:#848484;stroke-opacity:0.44;stroke-width:0.2px;"/><path d="M66.007,87.448l85.137,17.595" style="fill:none;stroke:#848484;stroke-opacity:0.44;stroke-width:0.2px;"/><path d="M68.124,82.928l85.171,17.602" style="fill:none;stroke:#848484;stroke-opacity:0.44;stroke-width:0.2px;"/><path d="M70.242,78.407l85.146,17.597" style="fill:none;stroke:#848484;stroke-opacity:0.44;stroke-width:0.2px;"/><path d="M72.36,73.887l85.133,17.594" style="fill:none;stroke:#848484;stroke-opacity:0.44;stroke-width:0.2px;"/><path d="M74.477,69.366l85.247,17.618" style="fill:none;stroke:#848484;stroke-opacity:0.44;stroke-width:0.2px;"/><path d="M76.595,64.846l85.033,17.573" style="fill:none;stroke:#848484;stroke-opacity:0.44;stroke-width:0.2px;"/><path d="M81.666,53.655l84.671,17.499" style="fill:none;stroke:#848484;stroke-opacity:0.44;stroke-width:0.5px;"/><path d="M78.633,60.129l85.196,17.607" style="fill:none;stroke:#848484;stroke-opacity:0.44;stroke-width:0.5px;"/><path d="M44.289,133.041l34.309,-73.239" style="fill:none;stroke:#848484;stroke-opacity:0.44;stroke-width:0.2px;"/><path d="M51.421,134.515l34.309,-73.239" style="fill:none;stroke:#848484;stroke-opacity:0.44;stroke-width:0.2px;"/><path d="M58.553,135.989l34.309,-73.239" style="fill:none;stroke:#848484;stroke-opacity:0.44;stroke-width:0.2px;"/><path d="M65.685,137.463l34.309,-73.239" style="fill:none;stroke:#848484;stroke-opacity:0.44;stroke-width:0.2px;"/><path d="M72.818,138.937l34.308,-73.239" style="fill:none;stroke:#848484;stroke-opacity:0.44;stroke-width:0.2px;"/><path d="M79.95,140.411l34.309,-73.239" style="fill:none;stroke:#848484;stroke-opacity:0.44;stroke-width:0.2px;"/><path d="M87.082,141.885l34.309,-73.239" style="fill:none;stroke:#848484;stroke-opacity:0.44;stroke-width:0.2px;"/><path d="M94.214,143.359l34.309,-73.239" style="fill:none;stroke:#848484;stroke-opacity:0.44;stroke-width:0.2px;"/><path d="M101.347,144.833l34.308,-73.239" style="fill:none;stroke:#848484;stroke-opacity:0.44;stroke-width:0.2px;"/><path d="M108.479,146.307l34.308,-73.239" style="fill:none;stroke:#848484;stroke-opacity:0.44;stroke-width:0.2px;"/><path d="M115.611,147.781l34.309,-73.239" style="fill:none;stroke:#848484;stroke-opacity:0.44;stroke-width:0.2px;"/><path d="M122.743,149.255l34.309,-73.239" style="fill:none;stroke:#848484;stroke-opacity:0.44;stroke-width:0.2px;"/><path d="M129.875,150.729l34.309,-73.239" style="fill:none;stroke:#848484;stroke-opacity:0.44;stroke-width:0.2px;"/></g></svg>