<?xml version="1.0" encoding="UTF-8" standalone="no"?><!DOCTYPE svg PUBLIC "-//W3C//DTD SVG 1.1//EN" "http://www.w3.org/Graphics/SVG/1.1/DTD/svg11.dtd"><svg width="100%" height="100%" viewBox="0 0 200 200" version="1.1" xmlns="http://www.w3.org/2000/svg" xmlns:xlink="http://www.w3.org/1999/xlink" xml:space="preserve" xmlns:serif="http://www.serif.com/" style="fill-rule:evenodd;clip-rule:evenodd;stroke-linejoin:round;stroke-miterlimit:2;"><path d="M119.776,25.789c-8.317,-5.627 -36.247,18.111 -72.142,45.446c24.911,40.724 29.347,76.419 31.343,102.739c27.265,-15.523 47.301,-37.332 63.189,-66.466c-13.74,-14.606 -18.034,-22.693 -22.39,-81.719Z" style="fill:#ffffff;"/><g><path d="M91.114,49.657c3.332,-0.797 6.969,2.193 8.264,7.36c1.295,5.167 -0.498,9.672 -3.571,11.365c-4.181,2.303 -10.044,1.081 -11.339,-4.086c-1.295,-5.168 2.018,-13.532 6.646,-14.639Z" style="fill:#151515;"/><path d="M91.114,49.657c3.266,-1.105 6.969,2.193 8.264,7.36c1.295,5.167 -0.305,10.26 -3.571,11.365c-3.266,1.105 -6.969,-2.193 -8.264,-7.36c-1.295,-5.167 0.305,-10.26 3.571,-11.365Z" style="fill:#747474;fill-opacity:0.36;"/></g></svg>
