<?xml version="1.0" encoding="UTF-8" standalone="no"?><!DOCTYPE svg PUBLIC "-//W3C//DTD SVG 1.1//EN" "http://www.w3.org/Graphics/SVG/1.1/DTD/svg11.dtd"><svg width="100%" height="100%" viewBox="0 0 200 200" version="1.1" xmlns="http://www.w3.org/2000/svg" xmlns:xlink="http://www.w3.org/1999/xlink" xml:space="preserve" xmlns:serif="http://www.serif.com/" style="fill-rule:evenodd;clip-rule:evenodd;stroke-linecap:round;stroke-linejoin:round;stroke-miterlimit:1.5;"><g><path d="M7.329,115.257c-0.117,0.915 0.505,1.911 1.825,2.673l72.49,41.852c2.222,1.283 5.59,1.423 7.515,0.312l102.04,-58.913c0.963,-0.556 1.383,-1.32 1.285,-2.106c0.117,-0.916 -0.504,-1.911 -1.825,-2.674l-72.489,-41.852c-2.223,-1.283 -5.59,-1.422 -7.515,-0.311l-102.04,58.913c-0.963,0.556 -1.384,1.32 -1.286,2.106Zm16.488,-1.122c-0.084,0.455 -0.427,0.897 -1.03,1.245c-1.4,0.808 -3.674,0.808 -5.074,-0c-0.603,-0.348 -0.947,-0.79 -1.03,-1.245c0.083,-0.454 0.427,-0.896 1.03,-1.244c1.4,-0.809 3.674,-0.809 5.074,-0c0.603,0.348 0.946,0.79 1.03,1.244Zm9.197,-5.31c-0.084,0.455 -0.427,0.896 -1.03,1.245c-1.4,0.808 -3.674,0.808 -5.074,-0c-0.603,-0.349 -0.946,-0.79 -1.03,-1.245c0.084,-0.454 0.427,-0.896 1.03,-1.244c1.4,-0.809 3.674,-0.809 5.074,-0c0.603,0.348 0.946,0.79 1.03,1.244Zm9.197,-5.31c-0.083,0.455 -0.427,0.896 -1.03,1.245c-1.4,0.808 -3.673,0.808 -5.074,-0c-0.603,-0.349 -0.946,-0.79 -1.029,-1.245c0.083,-0.454 0.426,-0.896 1.029,-1.244c1.401,-0.809 3.674,-0.809 5.074,-0c0.603,0.348 0.947,0.79 1.03,1.244Zm10.421,-5.31c-0.086,0.613 -0.535,1.212 -1.346,1.68c-1.817,1.049 -4.766,1.049 -6.583,-0c-0.811,-0.468 -1.26,-1.067 -1.346,-1.68c0.086,-0.613 0.535,-1.211 1.346,-1.68c1.817,-1.048 4.766,-1.048 6.583,0c0.811,0.469 1.26,1.067 1.346,1.68Zm7.974,-5.31c-0.084,0.455 -0.427,0.896 -1.03,1.244c-1.4,0.809 -3.674,0.809 -5.074,0c-0.603,-0.348 -0.946,-0.789 -1.03,-1.244c0.084,-0.455 0.427,-0.896 1.03,-1.244c1.4,-0.809 3.674,-0.809 5.074,-0c0.603,0.348 0.946,0.789 1.03,1.244Zm9.197,-5.31c-0.084,0.455 -0.427,0.896 -1.03,1.244c-1.4,0.809 -3.674,0.809 -5.074,0c-0.603,-0.348 -0.946,-0.789 -1.03,-1.244c0.084,-0.455 0.427,-0.896 1.03,-1.244c1.4,-0.809 3.674,-0.809 5.074,-0c0.603,0.348 0.946,0.789 1.03,1.244Zm9.197,-5.31c-0.083,0.455 -0.427,0.896 -1.03,1.244c-1.4,0.809 -3.673,0.809 -5.074,0c-0.603,-0.348 -0.946,-0.789 -1.029,-1.244c0.083,-0.455 0.426,-0.896 1.029,-1.244c1.401,-0.809 3.674,-0.809 5.074,-0c0.603,0.348 0.947,0.789 1.03,1.244Zm10.262,-5.31c-0.086,0.612 -0.535,1.21 -1.345,1.677c-1.814,1.047 -4.759,1.047 -6.573,0c-0.81,-0.467 -1.258,-1.065 -1.345,-1.677c0.087,-0.612 0.535,-1.21 1.345,-1.677c1.814,-1.048 4.759,-1.048 6.573,-0c0.81,0.467 1.259,1.065 1.345,1.677Zm8.133,-5.31c-0.084,0.455 -0.427,0.896 -1.03,1.244c-1.4,0.809 -3.674,0.809 -5.074,0c-0.603,-0.348 -0.946,-0.789 -1.03,-1.244c0.084,-0.455 0.427,-0.896 1.03,-1.244c1.4,-0.809 3.674,-0.809 5.074,-0c0.603,0.348 0.946,0.789 1.03,1.244Zm9.197,-5.31c-0.083,0.455 -0.427,0.896 -1.03,1.244c-1.4,0.809 -3.674,0.809 -5.074,0c-0.603,-0.348 -0.946,-0.789 -1.03,-1.244c0.084,-0.455 0.427,-0.896 1.03,-1.245c1.4,-0.808 3.674,-0.808 5.074,0c0.603,0.349 0.947,0.79 1.03,1.245Zm9.197,-5.31c-0.083,0.454 -0.427,0.896 -1.029,1.244c-1.401,0.809 -3.674,0.809 -5.075,0c-0.603,-0.348 -0.946,-0.79 -1.029,-1.244c0.083,-0.455 0.426,-0.896 1.029,-1.245c1.401,-0.808 3.674,-0.808 5.075,0c0.602,0.349 0.946,0.79 1.029,1.245Z" style="fill:#f8f8f8;"/><path d="M192.484,99.075l-0.01,0.07c-0.102,0.6 -0.523,1.161 -1.275,1.595l-102.04,58.913c-1.925,1.111 -5.293,0.972 -7.515,-0.312l-72.49,-41.851c-1.111,-0.642 -1.727,-1.448 -1.825,-2.233c-0.117,0.915 0.505,1.911 1.825,2.673l72.49,41.852c2.222,1.283 5.59,1.423 7.515,0.312l102.04,-58.913c0.963,-0.556 1.383,-1.32 1.285,-2.106Zm-174.871,16.244l0.1,0.061l-0.065,-0.039l-0.035,-0.022Zm-0.106,-0.069c0.029,0.02 0.059,0.04 0.09,0.06l-0.09,-0.06Zm5.486,0l-0.091,0.06c0.031,-0.02 0.061,-0.04 0.091,-0.06Zm-5.589,-0.073c0.028,0.021 0.057,0.041 0.086,0.062l-0.086,-0.062Zm5.691,-0l-0.085,0.062c0.029,-0.021 0.058,-0.041 0.085,-0.062Zm-15.773,0.006l-0,0.003l-0,-0.003Zm15.822,-0.043l-0.038,0.029l0.079,-0.063l-0.041,0.034Zm-5.829,-0.034l0.079,0.063l-0.038,-0.029l-0.041,-0.034Zm-9.998,0.004l0,0.006l-0,-0.006Zm15.951,-0.075l-0.076,0.066c0.026,-0.022 0.052,-0.044 0.076,-0.066Zm-6.037,-0c0.025,0.022 0.05,0.044 0.076,0.066l-0.076,-0.066Zm-9.916,0.001l0.001,0.009l-0.001,-0.009Zm16.036,-0.079l-0.069,0.066c0.023,-0.022 0.047,-0.044 0.069,-0.066Zm-6.202,0c0.022,0.022 0.045,0.044 0.069,0.066l-0.069,-0.066Zm-9.832,0.006l-0,0.012l-0,-0.012Zm16.112,-0.087l-0.067,0.07c0.023,-0.023 0.045,-0.046 0.067,-0.07Zm-6.358,0c0.021,0.024 0.044,0.047 0.067,0.07l-0.067,-0.07Zm-9.75,0.015l-0.001,0.014l0.001,-0.014Zm9.687,-0.088l0.061,0.071l-0.036,-0.041l-0.025,-0.03Zm6.459,0.03l-0.036,0.041l0.061,-0.071l-0.025,0.03Zm-16.138,-0.015l-0.002,0.016l0.002,-0.016Zm9.617,-0.095c0.017,0.024 0.036,0.048 0.055,0.072l-0.055,-0.072Zm6.608,0l-0.055,0.072c0.019,-0.024 0.037,-0.048 0.055,-0.072Zm-16.214,0.023l-0.003,0.018l0.003,-0.018Zm16.272,-0.107l-0.05,0.073c0.017,-0.024 0.034,-0.048 0.05,-0.073Zm-6.724,0c0.016,0.025 0.032,0.049 0.05,0.073l-0.05,-0.073Zm-9.535,0.035l-0.004,0.02l0.004,-0.02Zm16.35,-0.197l-0.041,0.078l-0.046,0.078c0.033,-0.052 0.062,-0.104 0.087,-0.156Zm-6.866,0.078l-0.041,-0.078c0.026,0.052 0.055,0.104 0.088,0.156l-0.047,-0.078Zm-9.467,0.048l-0.005,0.022l0.005,-0.022Zm0.02,-0.071l-0.007,0.023l0.007,-0.023Zm0.023,-0.071l-0.008,0.025l0.008,-0.025Zm9.346,-0.069c0.01,0.026 0.022,0.052 0.034,0.078l-0.034,-0.078Zm6.982,-0l-0.035,0.078c0.013,-0.026 0.024,-0.052 0.035,-0.078Zm-16.302,-0.001l-0.01,0.026l0.01,-0.026Zm9.244,-0.256c-0.111,-0.601 0.232,-1.225 1.03,-1.685c1.4,-0.808 3.674,-0.808 5.074,0c0.909,0.525 1.228,1.262 0.956,1.936c0.034,-0.083 0.058,-0.167 0.074,-0.251c-0.084,-0.454 -0.427,-0.896 -1.03,-1.244c-1.4,-0.809 -3.674,-0.809 -5.074,-0c-0.603,0.348 -0.947,0.79 -1.03,1.244Zm0.019,0.085l-0.019,-0.085c0.015,0.084 0.04,0.168 0.073,0.251l-0.03,-0.081c-0.008,-0.028 -0.016,-0.056 -0.024,-0.085Zm-9.234,0.102l-0.011,0.027l0.011,-0.027Zm0.032,-0.069l-0.013,0.028l0.013,-0.028Zm0.036,-0.068l-0.015,0.029l0.015,-0.029Zm0.038,-0.068l-0.016,0.029l0.016,-0.029Zm0.042,-0.066l-0.019,0.029l0.019,-0.029Zm0.044,-0.067l-0.02,0.03l0.02,-0.03Zm0.048,-0.065l-0.022,0.03l0.022,-0.03Zm0.051,-0.065l-0.023,0.03l0.023,-0.03Zm0.054,-0.064l-0.025,0.03l0.025,-0.03Zm0.057,-0.063l-0.026,0.03l0.026,-0.03Zm0.061,-0.062l-0.029,0.029l0.029,-0.029Zm0.063,-0.061l-0.03,0.028l0.03,-0.028Zm0.066,-0.06l-0.03,0.028l0.03,-0.028Zm0.07,-0.06l-0.032,0.028l0.032,-0.028Zm0.073,-0.058l-0.033,0.026l0.033,-0.026Zm0.076,-0.057l-0.034,0.025l0.034,-0.025Zm0.079,-0.056l-0.034,0.024l0.034,-0.024Zm0.083,-0.056l-0.034,0.023l0.034,-0.023Zm0.085,-0.053l-0.029,0.018l0.029,-0.018Zm18.284,-3.195l0.1,0.061l-0.065,-0.039l-0.035,-0.022Zm-0.106,-0.069c0.03,0.02 0.06,0.04 0.09,0.06l-0.09,-0.06Zm5.486,0l-0.09,0.06c0.031,-0.02 0.061,-0.04 0.09,-0.06Zm-5.589,-0.073c0.028,0.021 0.057,0.041 0.086,0.062l-0.086,-0.062Zm5.692,-0l-0.086,0.062c0.029,-0.021 0.058,-0.041 0.086,-0.062Zm0.048,-0.037l-0.038,0.029l0.079,-0.063l-0.041,0.034Zm-5.829,-0.034l0.079,0.063l-0.038,-0.029l-0.041,-0.034Zm-0.084,-0.071c0.025,0.022 0.05,0.044 0.077,0.066l-0.077,-0.066Zm6.038,-0l-0.076,0.066c0.026,-0.022 0.051,-0.044 0.076,-0.066Zm0.082,-0.078l-0.069,0.066c0.024,-0.022 0.047,-0.044 0.069,-0.066Zm-6.202,0c0.022,0.022 0.045,0.044 0.069,0.066l-0.069,-0.066Zm6.28,-0.081l-0.067,0.07c0.023,-0.023 0.046,-0.046 0.067,-0.07Zm-6.358,0c0.022,0.024 0.044,0.047 0.067,0.07l-0.067,-0.07Zm-0.063,-0.073l0.061,0.071l-0.036,-0.041l-0.025,-0.03Zm6.459,0.03l-0.036,0.041l0.061,-0.071l-0.025,0.03Zm-6.521,-0.11c0.018,0.024 0.036,0.048 0.055,0.072l-0.055,-0.072Zm6.608,0l-0.055,0.072c0.019,-0.024 0.037,-0.048 0.055,-0.072Zm0.058,-0.084l-0.05,0.073c0.017,-0.024 0.034,-0.048 0.05,-0.073Zm-6.724,0c0.016,0.025 0.033,0.049 0.05,0.073l-0.05,-0.073Zm6.815,-0.163l-0.041,0.079l-0.046,0.077c0.033,-0.051 0.062,-0.103 0.087,-0.156Zm-6.865,0.079l-0.041,-0.079c0.025,0.053 0.054,0.105 0.087,0.156l-0.046,-0.077Zm-0.079,-0.163c0.01,0.026 0.022,0.052 0.034,0.078l-0.034,-0.078Zm6.982,-0l-0.034,0.078c0.012,-0.026 0.024,-0.052 0.034,-0.078Zm-6.985,-0.006c-0.271,-0.674 0.048,-1.411 0.957,-1.936c1.4,-0.808 3.674,-0.808 5.074,0c0.909,0.525 1.228,1.262 0.957,1.936c0.033,-0.083 0.057,-0.167 0.073,-0.251c-0.084,-0.454 -0.427,-0.896 -1.03,-1.244c-1.4,-0.809 -3.674,-0.809 -5.074,-0c-0.603,0.348 -0.946,0.79 -1.03,1.244c0.016,0.084 0.04,0.168 0.073,0.251Zm10.054,-4.377c0.033,0.021 0.066,0.041 0.1,0.061l-0.1,-0.061Zm-0.106,-0.069c0.03,0.02 0.06,0.04 0.091,0.06l-0.091,-0.06Zm5.486,0l-0.09,0.06c0.031,-0.02 0.061,-0.04 0.09,-0.06Zm-5.588,-0.073c0.028,0.021 0.056,0.041 0.086,0.061l-0.086,-0.061Zm5.691,-0l-0.086,0.061c0.03,-0.02 0.058,-0.04 0.086,-0.061Zm0.048,-0.037l-0.038,0.029l0.08,-0.063l-0.042,0.034Zm-5.829,-0.034l0.08,0.063l-0.039,-0.029l-0.041,-0.034Zm-0.083,-0.071c0.024,0.022 0.05,0.044 0.076,0.066l-0.076,-0.066Zm6.037,-0l-0.076,0.066c0.026,-0.022 0.051,-0.044 0.076,-0.066Zm0.082,-0.078l-0.069,0.066c0.024,-0.022 0.047,-0.044 0.069,-0.066Zm-6.202,0c0.023,0.022 0.046,0.044 0.07,0.066l-0.07,-0.066Zm6.28,-0.081l-0.066,0.07c0.023,-0.023 0.045,-0.046 0.066,-0.07Zm-6.357,0c0.021,0.024 0.043,0.047 0.066,0.07l-0.066,-0.07Zm-0.064,-0.073l0.061,0.071l-0.036,-0.041l-0.025,-0.03Zm6.459,0.03l-0.036,0.041l0.061,-0.071l-0.025,0.03Zm-6.52,-0.11c0.017,0.024 0.035,0.048 0.054,0.071l-0.054,-0.071Zm6.607,0l-0.055,0.071c0.019,-0.023 0.038,-0.047 0.055,-0.071Zm0.058,-0.084l-0.05,0.073c0.018,-0.024 0.034,-0.048 0.05,-0.073Zm-6.723,0c0.015,0.025 0.032,0.049 0.049,0.073l-0.049,-0.073Zm6.815,-0.163l-0.041,0.079l-0.047,0.077c0.033,-0.051 0.062,-0.103 0.088,-0.156Zm-6.866,0.079l-0.041,-0.079c0.025,0.053 0.055,0.105 0.087,0.156l-0.046,-0.077Zm6.904,-0.163l-0.035,0.078c0.012,-0.026 0.024,-0.052 0.035,-0.078Zm-6.983,-0c0.011,0.026 0.022,0.052 0.035,0.078l-0.035,-0.078Zm-0.002,-0.006c-0.272,-0.674 0.047,-1.411 0.956,-1.936c1.401,-0.808 3.674,-0.808 5.074,-0c0.909,0.525 1.228,1.262 0.957,1.936c0.033,-0.083 0.058,-0.167 0.073,-0.251c-0.083,-0.454 -0.427,-0.896 -1.03,-1.244c-1.4,-0.809 -3.673,-0.809 -5.074,-0c-0.603,0.348 -0.946,0.79 -1.029,1.244c0.015,0.084 0.039,0.168 0.073,0.251Zm9.447,-3.944l0.026,0.016l-0.026,-0.016Zm6.793,-0l-0.026,0.016l0.026,-0.016Zm-6.874,-0.051l0.029,0.019l-0.008,-0.005l-0.021,-0.014Zm6.934,0.014l-0.008,0.005l0.029,-0.019l-0.021,0.014Zm-7.01,-0.065l0.03,0.021l-0.011,-0.008l-0.019,-0.013Zm7.088,0.013l-0.011,0.008l0.03,-0.021l-0.019,0.013Zm-7.16,-0.063l0.03,0.021l-0.015,-0.01l-0.015,-0.011Zm7.236,0.011l-0.015,0.01l0.03,-0.021l-0.015,0.011Zm0.073,-0.053l-0.017,0.012l0.029,-0.021l-0.012,0.009Zm-7.379,-0.009l0.029,0.021l-0.017,-0.012l-0.012,-0.009Zm-0.067,-0.052l0.027,0.021l-0.019,-0.014l-0.008,-0.007Zm7.517,0.007l-0.019,0.014l0.027,-0.021l-0.008,0.007Zm0.072,-0.059l-0.024,0.019l0.024,-0.019Zm-7.653,0l0.024,0.019l-0.024,-0.019Zm7.715,-0.053l-0.015,0.013l0.015,-0.013Zm-7.777,0l0.015,0.013l-0.015,-0.013Zm7.855,-0.071l-0.019,0.018l0.019,-0.018Zm-7.933,0l0.019,0.018l-0.019,-0.018Zm7.976,-0.041l-0.005,0.006l0.023,-0.023l-0.018,0.017Zm-8.037,-0.017l0.023,0.023l-0.005,-0.006l-0.018,-0.017Zm8.094,-0.04l-0.008,0.008l0.024,-0.025l-0.016,0.017Zm-8.149,-0.017l0.024,0.025l-0.008,-0.008l-0.016,-0.017Zm8.204,-0.041l-0.011,0.011l0.024,-0.026l-0.013,0.015Zm-8.256,-0.015l0.024,0.026l-0.011,-0.011l-0.013,-0.015Zm-0.049,-0.056l0.023,0.026l-0.013,-0.014l-0.01,-0.012Zm8.357,0.012l-0.013,0.014l0.023,-0.026l-0.01,0.012Zm-8.403,-0.069l0.022,0.027l-0.015,-0.018l-0.007,-0.009Zm8.452,0.009l-0.015,0.018l0.022,-0.027l-0.007,0.009Zm-8.496,-0.066l0.021,0.028l-0.017,-0.021l-0.004,-0.007Zm8.542,0.007l-0.016,0.021l0.021,-0.028l-0.005,0.007Zm-8.584,-0.065l0.021,0.03l-0.018,-0.026l-0.003,-0.004Zm8.628,0.004l-0.018,0.026l0.021,-0.03l-0.003,0.004Zm140.187,-0.024l-0.001,0.021l0.001,-0.021Zm-148.852,-0.035l0.024,0.036l-0.026,-0.038l-0.021,-0.034l0.023,0.036Zm8.707,-0.002l-0.026,0.038l0.024,-0.036l0.023,-0.036l-0.021,0.034Zm140.149,-0.033l-0.001,0.011l0.001,-0.028l-0,0.017Zm-140.111,-0.028l-0.004,0.007l0.021,-0.037l-0.017,0.03Zm-8.802,-0.03l0.021,0.037l-0.004,-0.007l-0.017,-0.03Zm148.913,-0.029l-0,0.016l-0.001,-0.029l0.001,0.013Zm-148.946,-0.029l0.02,0.037l-0.006,-0.011l-0.014,-0.026Zm8.871,0.026l-0.006,0.011l0.02,-0.037l-0.014,0.026Zm-8.901,-0.085l0.019,0.038l-0.008,-0.015l-0.011,-0.023Zm8.934,0.023l-0.008,0.015l0.019,-0.038l-0.011,0.023Zm140.038,-0.022l0,0.019l-0.001,-0.027l0.001,0.008Zm-149.001,-0.06l0.019,0.039l-0.01,-0.02l-0.009,-0.019Zm8.994,0.019l-0.01,0.02l0.019,-0.039l-0.009,0.019Zm139.998,-0.048l0.001,0.015l-0.001,-0.015Zm-149.017,-0.03l0.017,0.041l-0.011,-0.025l-0.006,-0.016Zm9.047,0.016l-0.011,0.025l0.017,-0.041l-0.006,0.016Zm-9.071,-0.076l0.018,0.045l-0.013,-0.033l-0.005,-0.012Zm9.096,0.012l-0.013,0.033l0.018,-0.045l-0.005,0.012Zm139.929,-0.023l0.004,0.019l-0.004,-0.019Zm-149.027,0.005c-0.315,-0.86 0.106,-1.791 1.261,-2.458c1.817,-1.049 4.766,-1.049 6.583,-0c1.155,0.667 1.575,1.598 1.261,2.458c0.041,-0.112 0.069,-0.225 0.085,-0.338c-0.086,-0.613 -0.535,-1.211 -1.346,-1.68c-1.817,-1.048 -4.766,-1.048 -6.583,0c-0.811,0.469 -1.26,1.067 -1.346,1.68c0.016,0.113 0.044,0.226 0.085,0.338Zm149.013,-0.077l0.002,0.009l-0.006,-0.028l0.004,0.019Zm-0.021,-0.088l0.004,0.015l-0.008,-0.03l0.004,0.015Zm-0.025,-0.088l0.005,0.019l-0.009,-0.029l0.004,0.01Zm-0.032,-0.092l0.008,0.023l-0.008,-0.023Zm-0.037,-0.094l0.005,0.012l-0.005,-0.012Zm-0.034,-0.076l0.004,0.007l-0.013,-0.027l0.009,0.02Zm-0.042,-0.088l0.006,0.014l-0.015,-0.031l0.009,0.017Zm-0.047,-0.087l0.01,0.018l-0.017,-0.03l0.007,0.012Zm-0.051,-0.086l0.012,0.019l-0.016,-0.026l0.004,0.007Zm-0.055,-0.087l0.002,0.004l-0.002,-0.004Zm-0.06,-0.085l0.004,0.005l-0.018,-0.024l0.014,0.019Zm-0.063,-0.085l0.008,0.011l-0.023,-0.029l0.015,0.018Zm-0.068,-0.085l0.013,0.016l-0.025,-0.03l0.012,0.014Zm-0.072,-0.084l0.016,0.019l-0.023,-0.027l0.007,0.008Zm-0.079,-0.086l0.015,0.016l-0.015,-0.016Zm-0.095,-0.097l0.021,0.02l-0.021,-0.02Zm-0.067,-0.065l0.009,0.009l-0.029,-0.027l0.02,0.018Zm-0.089,-0.081l0.016,0.014l-0.033,-0.028l0.017,0.014Zm-0.093,-0.08l0.021,0.018l-0.032,-0.028l0.011,0.01Zm-0.102,-0.083l0.026,0.02l-0.026,-0.02Zm-0.112,-0.086l0.018,0.013l-0.018,-0.013Zm-0.089,-0.066l0.009,0.008l-0.034,-0.025l0.025,0.017Zm-0.11,-0.075l0.017,0.011l-0.039,-0.026l0.022,0.015Zm-0.113,-0.075l0.024,0.016l-0.04,-0.026l0.016,0.01Zm-0.118,-0.074l0.027,0.017l-0.036,-0.022l0.009,0.005Zm-136.379,-2.394c0.032,0.021 0.066,0.041 0.1,0.06l-0.1,-0.06Zm-0.106,-0.069c0.029,0.02 0.059,0.04 0.09,0.059l-0.09,-0.059Zm5.486,0l-0.09,0.059c0.03,-0.019 0.06,-0.039 0.09,-0.059Zm-5.589,-0.073c0.028,0.02 0.057,0.041 0.086,0.061l-0.086,-0.061Zm5.691,-0l-0.085,0.061c0.029,-0.02 0.058,-0.04 0.085,-0.061Zm-5.78,-0.071l0.079,0.063l-0.038,-0.029l-0.041,-0.034Zm5.829,0.034l-0.038,0.029l0.079,-0.063l-0.041,0.034Zm-5.913,-0.105c0.025,0.022 0.05,0.044 0.076,0.065l-0.076,-0.065Zm6.038,-0l-0.077,0.065c0.027,-0.021 0.052,-0.043 0.077,-0.065Zm0.082,-0.078l-0.069,0.066c0.024,-0.022 0.047,-0.044 0.069,-0.066Zm-6.202,0c0.022,0.022 0.045,0.044 0.069,0.066l-0.069,-0.066Zm-0.078,-0.081c0.021,0.023 0.044,0.047 0.067,0.07l-0.067,-0.07Zm6.358,0l-0.067,0.07c0.023,-0.023 0.045,-0.046 0.067,-0.07Zm-6.421,-0.073l0.061,0.071l-0.036,-0.041l-0.025,-0.03Zm6.459,0.03l-0.036,0.041l0.061,-0.071l-0.025,0.03Zm-6.521,-0.11c0.017,0.024 0.036,0.048 0.055,0.071l-0.055,-0.071Zm6.608,0l-0.055,0.071c0.019,-0.023 0.037,-0.047 0.055,-0.071Zm0.058,-0.084l-0.05,0.073c0.017,-0.024 0.034,-0.048 0.05,-0.073Zm-6.724,0c0.016,0.024 0.033,0.049 0.05,0.073l-0.05,-0.073Zm6.815,-0.163l-0.041,0.079l-0.046,0.077c0.033,-0.051 0.062,-0.103 0.087,-0.156Zm-6.866,0.079l-0.041,-0.079c0.026,0.053 0.055,0.105 0.088,0.156l-0.047,-0.077Zm6.904,-0.164l-0.034,0.079c0.012,-0.026 0.023,-0.052 0.034,-0.079Zm-6.982,0c0.01,0.027 0.022,0.053 0.034,0.079l-0.034,-0.079Zm-0.076,-0.256c-0.111,-0.601 0.232,-1.225 1.03,-1.685c1.4,-0.809 3.674,-0.809 5.074,-0c0.909,0.525 1.228,1.262 0.956,1.936c0.034,-0.083 0.058,-0.167 0.074,-0.251c-0.084,-0.455 -0.427,-0.896 -1.03,-1.244c-1.4,-0.809 -3.674,-0.809 -5.074,-0c-0.603,0.348 -0.946,0.789 -1.03,1.244Zm0.019,0.085l-0.019,-0.085c0.016,0.084 0.04,0.168 0.073,0.251l-0.029,-0.081c-0.009,-0.028 -0.017,-0.057 -0.025,-0.085Zm10.108,-4.211c0.033,0.021 0.066,0.041 0.1,0.06l-0.1,-0.06Zm5.38,-0.069l-0.09,0.059c0.031,-0.019 0.061,-0.039 0.09,-0.059Zm-5.486,-0c0.03,0.02 0.06,0.04 0.09,0.059l-0.09,-0.059Zm-0.102,-0.073c0.028,0.02 0.056,0.041 0.085,0.061l-0.085,-0.061Zm5.691,-0l-0.086,0.061c0.029,-0.02 0.058,-0.04 0.086,-0.061Zm0.048,-0.037l-0.038,0.029l0.079,-0.063l-0.041,0.034Zm-5.829,-0.034l0.079,0.063l-0.038,-0.029l-0.041,-0.034Zm-0.084,-0.071c0.025,0.022 0.05,0.044 0.077,0.065l-0.077,-0.065Zm6.038,-0l-0.076,0.065c0.026,-0.021 0.051,-0.043 0.076,-0.065Zm0.082,-0.078l-0.069,0.066c0.024,-0.022 0.047,-0.044 0.069,-0.066Zm-6.202,0c0.022,0.022 0.045,0.044 0.069,0.066l-0.069,-0.066Zm6.28,-0.081l-0.067,0.07c0.024,-0.023 0.046,-0.046 0.067,-0.07Zm-6.358,0c0.022,0.023 0.044,0.047 0.067,0.07l-0.067,-0.07Zm-0.063,-0.073l0.061,0.071l-0.036,-0.041l-0.025,-0.03Zm6.459,0.03l-0.036,0.041l0.061,-0.071l-0.025,0.03Zm-6.521,-0.11c0.018,0.024 0.036,0.048 0.055,0.071l-0.055,-0.071Zm6.608,0l-0.055,0.071c0.019,-0.023 0.037,-0.047 0.055,-0.071Zm0.058,-0.084l-0.05,0.073c0.017,-0.024 0.034,-0.048 0.05,-0.073Zm-6.724,0c0.016,0.024 0.033,0.049 0.05,0.073l-0.05,-0.073Zm6.816,-0.163l-0.041,0.079l-0.047,0.077c0.033,-0.051 0.062,-0.103 0.088,-0.156Zm-6.866,0.079l-0.041,-0.079c0.025,0.053 0.054,0.105 0.087,0.156l-0.046,-0.077Zm-0.079,-0.164c0.01,0.027 0.022,0.053 0.034,0.079l-0.034,-0.079Zm6.982,0l-0.034,0.079c0.012,-0.026 0.024,-0.052 0.034,-0.079Zm-6.985,-0.005c-0.271,-0.674 0.048,-1.411 0.957,-1.936c1.4,-0.809 3.674,-0.809 5.074,-0c0.909,0.525 1.228,1.262 0.957,1.936c0.033,-0.083 0.057,-0.167 0.073,-0.251c-0.084,-0.455 -0.427,-0.896 -1.03,-1.244c-1.4,-0.809 -3.674,-0.809 -5.074,-0c-0.603,0.348 -0.946,0.789 -1.03,1.244c0.016,0.084 0.04,0.168 0.073,0.251Zm10.054,-4.377c0.033,0.021 0.066,0.041 0.1,0.06l-0.1,-0.06Zm-0.106,-0.069c0.03,0.02 0.06,0.04 0.091,0.059l-0.091,-0.059Zm5.486,-0l-0.09,0.059c0.031,-0.019 0.061,-0.039 0.09,-0.059Zm-5.588,-0.073c0.028,0.02 0.056,0.041 0.086,0.061l-0.086,-0.061Zm5.691,-0l-0.086,0.061c0.03,-0.02 0.058,-0.041 0.086,-0.061Zm0.048,-0.037l-0.038,0.029l0.08,-0.063l-0.042,0.034Zm-5.829,-0.034l0.08,0.063l-0.039,-0.029l-0.041,-0.034Zm-0.083,-0.071c0.024,0.022 0.05,0.044 0.076,0.065l-0.076,-0.065Zm6.037,-0l-0.076,0.065c0.026,-0.021 0.051,-0.043 0.076,-0.065Zm0.083,-0.078l-0.07,0.066c0.024,-0.022 0.047,-0.044 0.07,-0.066Zm-6.203,0c0.023,0.022 0.046,0.044 0.07,0.066l-0.07,-0.066Zm-0.077,-0.081c0.021,0.023 0.043,0.047 0.066,0.07l-0.066,-0.07Zm6.357,0l-0.066,0.07c0.023,-0.023 0.045,-0.046 0.066,-0.07Zm-6.421,-0.073l0.062,0.071l-0.037,-0.041l-0.025,-0.03Zm6.459,0.03l-0.036,0.041l0.061,-0.071l-0.025,0.03Zm-6.52,-0.11c0.017,0.024 0.035,0.048 0.054,0.071l-0.054,-0.071Zm6.607,0l-0.055,0.071c0.019,-0.023 0.038,-0.047 0.055,-0.071Zm0.058,-0.084l-0.05,0.073c0.018,-0.024 0.034,-0.048 0.05,-0.073Zm-6.723,0c0.015,0.024 0.032,0.049 0.05,0.073l-0.05,-0.073Zm6.815,-0.163l-0.041,0.079l-0.047,0.077c0.033,-0.051 0.062,-0.103 0.088,-0.156Zm-6.866,0.079l-0.041,-0.079c0.025,0.053 0.055,0.105 0.087,0.156l-0.046,-0.077Zm-0.079,-0.164c0.011,0.027 0.022,0.053 0.035,0.079l-0.035,-0.079Zm6.983,0l-0.035,0.079c0.012,-0.026 0.024,-0.052 0.035,-0.079Zm-7.058,-0.256c-0.111,-0.601 0.232,-1.225 1.029,-1.685c1.401,-0.809 3.674,-0.809 5.074,-0c0.909,0.525 1.228,1.262 0.957,1.936c0.033,-0.083 0.058,-0.167 0.073,-0.251c-0.083,-0.455 -0.427,-0.896 -1.03,-1.244c-1.4,-0.809 -3.673,-0.809 -5.074,-0c-0.603,0.348 -0.946,0.789 -1.029,1.244Zm0.018,0.085l-0.018,-0.085c0.015,0.084 0.039,0.168 0.073,0.251l-0.03,-0.081c-0.008,-0.028 -0.016,-0.057 -0.025,-0.085Zm16.137,-3.781l-0.025,0.016l0.025,-0.016Zm-6.783,0l0.025,0.016l-0.025,-0.016Zm-0.081,-0.051l0.029,0.019l-0.008,-0.005l-0.021,-0.014Zm6.924,0.014l-0.008,0.005l0.029,-0.019l-0.021,0.014Zm0.078,-0.051l-0.011,0.007l0.03,-0.02l-0.019,0.013Zm-7.078,-0.013l0.03,0.02l-0.011,-0.007l-0.019,-0.013Zm7.154,-0.04l-0.014,0.01l0.029,-0.021l-0.015,0.011Zm-7.226,-0.011l0.03,0.021l-0.015,-0.01l-0.015,-0.011Zm7.299,-0.042l-0.017,0.013l0.029,-0.022l-0.012,0.009Zm-7.368,-0.009l0.028,0.022l-0.017,-0.013l-0.011,-0.009Zm7.439,-0.045l-0.019,0.015l0.027,-0.021l-0.008,0.006Zm-7.506,-0.006l0.026,0.021l-0.018,-0.015l-0.008,-0.006Zm-0.065,-0.052l0.024,0.019l-0.024,-0.019Zm7.643,-0l-0.023,0.019l0.023,-0.019Zm0.062,-0.053l-0.014,0.012l0.014,-0.012Zm-7.766,0l0.013,0.012l-0.013,-0.012Zm-0.077,-0.069l0.018,0.016l-0.018,-0.016Zm7.919,-0l-0.017,0.016l0.017,-0.016Zm-7.98,-0.059l0.022,0.021l-0.005,-0.005l-0.017,-0.016Zm8.025,0.016l-0.005,0.005l0.021,-0.021l-0.016,0.016Zm0.057,-0.057l-0.008,0.008l0.023,-0.024l-0.015,0.016Zm-8.137,-0.016l0.022,0.024l-0.008,-0.008l-0.014,-0.016Zm-0.052,-0.056l0.022,0.025l-0.01,-0.011l-0.012,-0.014Zm8.243,0.014l-0.01,0.011l0.023,-0.025l-0.013,0.014Zm-8.292,-0.07l0.021,0.025l-0.012,-0.014l-0.009,-0.011Zm8.344,0.011l-0.012,0.014l0.022,-0.025l-0.01,0.011Zm-8.391,-0.068l0.021,0.026l-0.014,-0.017l-0.007,-0.009Zm8.44,0.009l-0.014,0.017l0.021,-0.026l-0.007,0.009Zm-8.484,-0.066l0.02,0.025l-0.016,-0.019l-0.004,-0.006Zm8.531,0.006l-0.015,0.019l0.019,-0.025l-0.004,0.006Zm-8.573,-0.064l0.018,0.025l-0.018,-0.025Zm8.619,0l-0.018,0.025l0.018,-0.025Zm-8.656,-0.055l0.007,0.01l-0.009,-0.012l-0.016,-0.026l0.018,0.028Zm8.695,-0.002l-0.008,0.012l0.006,-0.01l0.018,-0.028l-0.016,0.026Zm-8.75,-0.087l0.019,0.031l-0.004,-0.005l-0.015,-0.026Zm8.788,0.026l-0.003,0.005l0.018,-0.031l-0.015,0.026Zm-8.821,-0.085l0.018,0.032l-0.006,-0.009l-0.012,-0.023Zm8.857,0.023l-0.005,0.009l0.018,-0.032l-0.013,0.023Zm0.033,-0.062l-0.007,0.013l0.017,-0.034l-0.01,0.021Zm-8.921,-0.021l0.017,0.034l-0.007,-0.013l-0.01,-0.021Zm-0.029,-0.059l0.017,0.035l-0.009,-0.018l-0.008,-0.017Zm8.981,0.017l-0.009,0.018l0.017,-0.035l-0.008,0.017Zm-9.006,-0.077l0.016,0.038l-0.011,-0.023l-0.005,-0.015Zm9.034,0.015l-0.01,0.023l0.016,-0.038l-0.006,0.015Zm-9.058,-0.075l0.016,0.041l-0.012,-0.029l-0.004,-0.012Zm9.083,0.012l-0.012,0.029l0.016,-0.041l-0.004,0.012Zm-9.087,-0.023c-0.311,-0.858 0.109,-1.786 1.261,-2.451c1.814,-1.047 4.759,-1.047 6.573,-0c1.152,0.665 1.573,1.593 1.261,2.451c0.04,-0.11 0.068,-0.221 0.084,-0.333c-0.086,-0.612 -0.535,-1.21 -1.345,-1.677c-1.814,-1.048 -4.759,-1.048 -6.573,-0c-0.81,0.467 -1.258,1.065 -1.345,1.677c0.016,0.112 0.044,0.223 0.084,0.333Zm11.108,-4.459l0.1,0.06l-0.065,-0.038l-0.035,-0.022Zm-0.106,-0.069c0.029,0.02 0.059,0.04 0.09,0.059l-0.09,-0.059Zm5.486,-0l-0.09,0.059c0.03,-0.019 0.061,-0.039 0.09,-0.059Zm-5.589,-0.074c0.028,0.021 0.057,0.042 0.086,0.062l-0.086,-0.062Zm5.691,0l-0.085,0.062c0.029,-0.02 0.058,-0.041 0.085,-0.062Zm-5.78,-0.07l0.079,0.063l-0.038,-0.03l-0.041,-0.033Zm5.829,0.033l-0.038,0.03l0.079,-0.063l-0.041,0.033Zm-5.913,-0.104c0.025,0.022 0.05,0.044 0.076,0.065l-0.076,-0.065Zm6.038,-0l-0.077,0.065c0.027,-0.021 0.052,-0.043 0.077,-0.065Zm0.082,-0.078l-0.069,0.066c0.024,-0.022 0.047,-0.044 0.069,-0.066Zm-6.202,-0c0.022,0.022 0.045,0.044 0.069,0.066l-0.069,-0.066Zm-0.078,-0.081c0.021,0.023 0.044,0.047 0.067,0.07l-0.067,-0.07Zm6.358,0l-0.067,0.07c0.023,-0.023 0.045,-0.047 0.067,-0.07Zm-6.421,-0.073l0.061,0.071l-0.036,-0.041l-0.025,-0.03Zm6.459,0.03l-0.036,0.041l0.061,-0.071l-0.025,0.03Zm-6.521,-0.11c0.018,0.024 0.036,0.048 0.055,0.071l-0.055,-0.071Zm6.608,-0l-0.055,0.071c0.019,-0.023 0.037,-0.047 0.055,-0.071Zm0.058,-0.084l-0.05,0.073c0.017,-0.024 0.034,-0.049 0.05,-0.073Zm-6.724,-0c0.016,0.024 0.033,0.049 0.05,0.073l-0.05,-0.073Zm6.815,-0.163l-0.041,0.079l-0.046,0.077c0.033,-0.051 0.062,-0.103 0.087,-0.156Zm-6.866,0.079l-0.04,-0.079c0.025,0.053 0.054,0.105 0.087,0.156l-0.047,-0.077Zm6.904,-0.164l-0.034,0.079c0.012,-0.026 0.024,-0.052 0.034,-0.079Zm-6.982,0c0.01,0.027 0.022,0.053 0.034,0.079l-0.034,-0.079Zm-0.003,-0.006c-0.271,-0.673 0.048,-1.411 0.957,-1.935c1.4,-0.809 3.674,-0.809 5.074,-0c0.909,0.524 1.228,1.262 0.957,1.935c0.033,-0.082 0.057,-0.166 0.073,-0.25c-0.084,-0.455 -0.427,-0.896 -1.03,-1.244c-1.4,-0.809 -3.674,-0.809 -5.074,-0c-0.603,0.348 -0.946,0.789 -1.03,1.244c0.016,0.084 0.04,0.168 0.073,0.25Zm10.054,-4.376l0.1,0.06l-0.065,-0.038l-0.035,-0.022Zm5.38,-0.069l-0.09,0.059c0.031,-0.019 0.061,-0.039 0.09,-0.059Zm-5.486,-0c0.03,0.02 0.06,0.04 0.09,0.059l-0.09,-0.059Zm-0.102,-0.074c0.028,0.021 0.056,0.042 0.085,0.062l-0.085,-0.062Zm5.691,0l-0.086,0.062c0.029,-0.02 0.058,-0.041 0.086,-0.062Zm0.048,-0.037l-0.038,0.03l0.079,-0.063l-0.041,0.033Zm-5.829,-0.033l0.079,0.063l-0.038,-0.03l-0.041,-0.033Zm-0.083,-0.071c0.024,0.022 0.049,0.044 0.076,0.065l-0.076,-0.065Zm6.037,-0l-0.076,0.065c0.026,-0.021 0.051,-0.043 0.076,-0.065Zm0.082,-0.078l-0.069,0.066c0.024,-0.022 0.047,-0.044 0.069,-0.066Zm-6.202,-0c0.022,0.022 0.046,0.044 0.069,0.066l-0.069,-0.066Zm6.28,-0.081l-0.067,0.07c0.024,-0.023 0.046,-0.047 0.067,-0.07Zm-6.358,-0c0.022,0.023 0.044,0.047 0.067,0.07l-0.067,-0.07Zm6.396,-0.043l-0.036,0.041l0.061,-0.071l-0.025,0.03Zm-6.459,-0.03l0.061,0.071l-0.036,-0.041l-0.025,-0.03Zm-0.062,-0.08c0.018,0.024 0.036,0.048 0.055,0.071l-0.055,-0.071Zm6.608,-0l-0.055,0.071c0.019,-0.023 0.037,-0.047 0.055,-0.071Zm0.058,-0.084l-0.05,0.073c0.018,-0.024 0.034,-0.049 0.05,-0.073Zm-6.724,-0c0.016,0.024 0.033,0.049 0.05,0.073l-0.05,-0.073Zm6.816,-0.163l-0.041,0.079l-0.047,0.077c0.033,-0.051 0.062,-0.103 0.088,-0.156Zm-6.866,0.079l-0.041,-0.079c0.025,0.053 0.054,0.105 0.087,0.156l-0.046,-0.077Zm-0.079,-0.164c0.011,0.026 0.022,0.053 0.035,0.078l-0.035,-0.078Zm6.982,0l-0.034,0.078c0.012,-0.025 0.024,-0.052 0.034,-0.078Zm-6.984,-0.006c-0.272,-0.673 0.047,-1.411 0.956,-1.935c1.4,-0.809 3.674,-0.809 5.074,-0c0.909,0.524 1.228,1.262 0.957,1.935c0.033,-0.082 0.058,-0.166 0.073,-0.25c-0.083,-0.455 -0.427,-0.896 -1.03,-1.245c-1.4,-0.808 -3.674,-0.808 -5.074,0c-0.603,0.349 -0.946,0.79 -1.03,1.245c0.016,0.084 0.04,0.168 0.074,0.25Zm10.053,-4.376l0.1,0.06l-0.064,-0.038l-0.036,-0.022Zm5.38,-0.069l-0.09,0.059c0.031,-0.019 0.061,-0.039 0.09,-0.059Zm-5.485,-0c0.029,0.02 0.059,0.04 0.09,0.059l-0.09,-0.059Zm-0.103,-0.074c0.028,0.021 0.056,0.042 0.086,0.062l-0.086,-0.062Zm5.691,0l-0.086,0.062c0.03,-0.02 0.058,-0.041 0.086,-0.062Zm0.048,-0.037l-0.038,0.03l0.08,-0.063l-0.042,0.033Zm-5.829,-0.033l0.08,0.063l-0.039,-0.03l-0.041,-0.033Zm-0.083,-0.072c0.024,0.023 0.05,0.045 0.076,0.066l-0.076,-0.066Zm6.037,0l-0.076,0.066c0.026,-0.022 0.051,-0.043 0.076,-0.066Zm0.083,-0.077l-0.07,0.066c0.024,-0.022 0.047,-0.044 0.07,-0.066Zm-6.203,-0c0.023,0.022 0.046,0.044 0.07,0.066l-0.07,-0.066Zm6.28,-0.081l-0.066,0.07c0.023,-0.023 0.045,-0.047 0.066,-0.07Zm-6.357,-0c0.021,0.023 0.043,0.047 0.066,0.07l-0.066,-0.07Zm6.395,-0.043l-0.036,0.041l0.061,-0.072l-0.025,0.031Zm-6.459,-0.031l0.062,0.072l-0.037,-0.041l-0.025,-0.031Zm6.546,-0.079l-0.055,0.071c0.019,-0.023 0.038,-0.047 0.055,-0.071Zm-6.607,-0c0.017,0.024 0.035,0.048 0.055,0.071l-0.055,-0.071Zm6.665,-0.084l-0.05,0.073c0.018,-0.024 0.034,-0.049 0.05,-0.073Zm-6.723,-0c0.016,0.024 0.032,0.049 0.05,0.073l-0.05,-0.073Zm6.815,-0.163l-0.041,0.079l-0.047,0.077c0.033,-0.051 0.062,-0.103 0.088,-0.156Zm-6.866,0.079l-0.041,-0.079c0.025,0.053 0.055,0.105 0.087,0.156l-0.046,-0.077Zm-0.079,-0.164c0.011,0.026 0.022,0.052 0.035,0.078l-0.035,-0.078Zm6.983,0l-0.035,0.078c0.013,-0.025 0.024,-0.052 0.035,-0.078Zm-7.058,-0.256c-0.111,-0.601 0.232,-1.225 1.029,-1.685c1.401,-0.809 3.674,-0.809 5.075,-0c0.908,0.524 1.227,1.262 0.956,1.935c0.033,-0.082 0.058,-0.166 0.073,-0.25c-0.083,-0.455 -0.427,-0.896 -1.029,-1.245c-1.401,-0.808 -3.674,-0.808 -5.075,0c-0.603,0.349 -0.946,0.79 -1.029,1.245Zm0.018,0.085l-0.018,-0.085c0.015,0.084 0.039,0.168 0.073,0.25l-0.03,-0.08c-0.008,-0.029 -0.016,-0.057 -0.025,-0.085Zm-85.787,54.199l-0.1,0.061c0.034,-0.02 0.067,-0.04 0.1,-0.061Zm9.197,-5.31l-0.1,0.061c0.034,-0.02 0.068,-0.04 0.1,-0.061Zm9.197,-5.31l-0.1,0.061c0.035,-0.02 0.068,-0.04 0.1,-0.061Zm18.395,-10.62l-0.1,0.06c0.034,-0.019 0.067,-0.039 0.1,-0.06Zm9.197,-5.31l-0.1,0.06c0.034,-0.019 0.068,-0.039 0.1,-0.06Zm9.197,-5.31l-0.1,0.06c0.035,-0.019 0.068,-0.039 0.1,-0.06Zm18.395,-10.62l-0.1,0.06c0.034,-0.019 0.067,-0.039 0.1,-0.06Zm9.197,-5.31l-0.1,0.06c0.034,-0.019 0.068,-0.04 0.1,-0.06Zm9.198,-5.31l-0.1,0.06c0.034,-0.02 0.067,-0.04 0.1,-0.06Z" style="fill:#939393;fill-opacity:0.19;"/><path d="M26.167,117.03l63.051,36.403" style="fill:none;stroke:#848484;stroke-opacity:0.44;stroke-width:0.5px;"/><path d="M31.897,113.722l63.051,36.403" style="fill:none;stroke:#848484;stroke-opacity:0.44;stroke-width:0.2px;"/><path d="M37.188,110.668l63.051,36.402" style="fill:none;stroke:#848484;stroke-opacity:0.44;stroke-width:0.2px;"/><path d="M42.479,107.613l63.051,36.402" style="fill:none;stroke:#848484;stroke-opacity:0.44;stroke-width:0.2px;"/><path d="M47.77,104.558l63.05,36.403" style="fill:none;stroke:#848484;stroke-opacity:0.44;stroke-width:0.2px;"/><path d="M53.061,101.504l63.05,36.402" style="fill:none;stroke:#848484;stroke-opacity:0.44;stroke-width:0.2px;"/><path d="M58.351,98.449l63.051,36.402" style="fill:none;stroke:#848484;stroke-opacity:0.44;stroke-width:0.2px;"/><path d="M63.642,95.394l63.051,36.403" style="fill:none;stroke:#848484;stroke-opacity:0.44;stroke-width:0.2px;"/><path d="M68.933,92.34l63.051,36.402" style="fill:none;stroke:#848484;stroke-opacity:0.44;stroke-width:0.2px;"/><path d="M74.224,89.285l63.051,36.402" style="fill:none;stroke:#848484;stroke-opacity:0.44;stroke-width:0.2px;"/><path d="M79.515,86.23l63.051,36.403" style="fill:none;stroke:#848484;stroke-opacity:0.44;stroke-width:0.2px;"/><path d="M84.806,83.175l63.051,36.403" style="fill:none;stroke:#848484;stroke-opacity:0.44;stroke-width:0.2px;"/><path d="M90.097,80.121l63.05,36.402" style="fill:none;stroke:#848484;stroke-opacity:0.44;stroke-width:0.2px;"/><path d="M95.387,77.066l63.051,36.402" style="fill:none;stroke:#848484;stroke-opacity:0.44;stroke-width:0.2px;"/><path d="M100.678,74.011l63.051,36.403" style="fill:none;stroke:#848484;stroke-opacity:0.44;stroke-width:0.2px;"/><path d="M105.969,70.957l63.051,36.402" style="fill:none;stroke:#848484;stroke-opacity:0.44;stroke-width:0.2px;"/><path d="M118.91,63.348l63.051,36.403" style="fill:none;stroke:#848484;stroke-opacity:0.44;stroke-width:0.5px;"/><path d="M111.334,67.722l63.051,36.403" style="fill:none;stroke:#848484;stroke-opacity:0.44;stroke-width:0.5px;"/></g></svg>