<?xml version="1.0" encoding="UTF-8" standalone="no"?><!DOCTYPE svg PUBLIC "-//W3C//DTD SVG 1.1//EN" "http://www.w3.org/Graphics/SVG/1.1/DTD/svg11.dtd"><svg width="100%" height="100%" viewBox="0 0 200 200" version="1.1" xmlns="http://www.w3.org/2000/svg" xmlns:xlink="http://www.w3.org/1999/xlink" xml:space="preserve" xmlns:serif="http://www.serif.com/" style="fill-rule:evenodd;clip-rule:evenodd;stroke-linecap:round;stroke-linejoin:round;stroke-miterlimit:1.5;"><g><path d="M9.188,108.017c-0.115,0.9 0.497,1.88 1.796,2.63l71.309,41.17c2.186,1.262 5.499,1.4 7.392,0.307l100.379,-57.954c0.947,-0.547 1.361,-1.299 1.265,-2.072c0.115,-0.9 -0.497,-1.88 -1.796,-2.63l-71.309,-41.17c-2.186,-1.263 -5.499,-1.4 -7.392,-0.307l-100.379,57.954c-0.947,0.547 -1.361,1.299 -1.265,2.072Zm16.219,-1.104c-0.082,0.448 -0.42,0.882 -1.013,1.225c-1.377,0.795 -3.614,0.795 -4.991,-0c-0.593,-0.343 -0.931,-0.777 -1.013,-1.225c0.082,-0.447 0.42,-0.881 1.013,-1.224c1.377,-0.795 3.614,-0.795 4.991,0c0.593,0.343 0.931,0.777 1.013,1.224Zm9.048,-5.223c-0.082,0.447 -0.42,0.882 -1.013,1.224c-1.378,0.795 -3.614,0.795 -4.992,-0c-0.593,-0.342 -0.93,-0.777 -1.013,-1.224c0.083,-0.447 0.42,-0.882 1.013,-1.224c1.378,-0.796 3.614,-0.796 4.992,-0c0.593,0.342 0.931,0.777 1.013,1.224Zm9.047,-5.224c-0.082,0.448 -0.419,0.882 -1.013,1.224c-1.377,0.796 -3.614,0.796 -4.991,0c-0.593,-0.342 -0.931,-0.776 -1.013,-1.224c0.082,-0.447 0.42,-0.881 1.013,-1.224c1.377,-0.795 3.614,-0.795 4.991,0c0.594,0.343 0.931,0.777 1.013,1.224Zm10.252,-5.223c-0.086,0.603 -0.527,1.191 -1.325,1.652c-1.787,1.032 -4.688,1.032 -6.475,0c-0.798,-0.461 -1.239,-1.049 -1.325,-1.652c0.086,-0.603 0.527,-1.192 1.325,-1.653c1.787,-1.031 4.688,-1.031 6.475,0c0.798,0.461 1.239,1.05 1.325,1.653Zm7.843,-5.224c-0.082,0.447 -0.419,0.882 -1.013,1.224c-1.377,0.795 -3.614,0.795 -4.991,0c-0.593,-0.342 -0.931,-0.777 -1.013,-1.224c0.082,-0.447 0.42,-0.882 1.013,-1.224c1.377,-0.795 3.614,-0.795 4.991,-0c0.594,0.342 0.931,0.777 1.013,1.224Zm9.048,-5.223c-0.082,0.447 -0.42,0.881 -1.013,1.224c-1.378,0.795 -3.614,0.795 -4.992,-0c-0.593,-0.343 -0.93,-0.777 -1.013,-1.224c0.083,-0.448 0.42,-0.882 1.013,-1.225c1.378,-0.795 3.614,-0.795 4.992,0c0.593,0.343 0.931,0.777 1.013,1.225Zm9.047,-5.224c-0.082,0.447 -0.419,0.882 -1.013,1.224c-1.377,0.795 -3.614,0.795 -4.991,0c-0.593,-0.342 -0.931,-0.777 -1.013,-1.224c0.082,-0.447 0.42,-0.882 1.013,-1.224c1.377,-0.795 3.614,-0.795 4.991,-0c0.594,0.342 0.931,0.777 1.013,1.224Zm10.095,-5.224c-0.085,0.602 -0.526,1.19 -1.323,1.65c-1.784,1.03 -4.682,1.03 -6.466,0c-0.797,-0.46 -1.238,-1.048 -1.323,-1.65c0.085,-0.601 0.526,-1.189 1.323,-1.649c1.784,-1.031 4.682,-1.031 6.466,-0c0.797,0.46 1.238,1.048 1.323,1.649Zm8,-5.223c-0.082,0.447 -0.419,0.881 -1.013,1.224c-1.377,0.795 -3.614,0.795 -4.991,-0c-0.593,-0.343 -0.931,-0.777 -1.013,-1.224c0.082,-0.447 0.42,-0.882 1.013,-1.224c1.377,-0.796 3.614,-0.796 4.991,-0c0.594,0.342 0.931,0.777 1.013,1.224Zm9.048,-5.224c-0.082,0.447 -0.42,0.882 -1.013,1.224c-1.377,0.796 -3.614,0.796 -4.992,0c-0.593,-0.342 -0.93,-0.777 -1.013,-1.224c0.083,-0.447 0.42,-0.881 1.013,-1.224c1.378,-0.795 3.615,-0.795 4.992,0c0.593,0.343 0.931,0.777 1.013,1.224Zm9.047,-5.223c-0.082,0.447 -0.419,0.881 -1.013,1.224c-1.377,0.795 -3.614,0.795 -4.991,-0c-0.593,-0.343 -0.931,-0.777 -1.013,-1.224c0.082,-0.448 0.42,-0.882 1.013,-1.224c1.377,-0.796 3.614,-0.796 4.991,-0c0.594,0.342 0.931,0.776 1.013,1.224Z" style="fill:#f8f8f8;"/><path d="M191.329,92.098l-0.011,0.07c-0.1,0.589 -0.514,1.141 -1.254,1.568l-100.379,57.954c-1.893,1.093 -5.206,0.956 -7.392,-0.306l-71.309,-41.171c-1.093,-0.631 -1.699,-1.424 -1.796,-2.196c-0.115,0.9 0.497,1.88 1.796,2.63l71.309,41.17c2.186,1.262 5.499,1.4 7.392,0.307l100.379,-57.954c0.947,-0.547 1.361,-1.299 1.265,-2.072Zm-172.025,15.98l0.099,0.06l-0.064,-0.038l-0.035,-0.022Zm-0.104,-0.068c0.029,0.02 0.059,0.039 0.089,0.059l-0.089,-0.059Zm5.397,0l-0.089,0.059c0.03,-0.019 0.06,-0.039 0.089,-0.059Zm-5.498,-0.072c0.028,0.021 0.056,0.041 0.085,0.061l-0.085,-0.061Zm5.599,0l-0.085,0.061c0.029,-0.02 0.057,-0.04 0.085,-0.061Zm-15.517,0.006l0,0.003l-0,-0.003Zm15.564,-0.042l-0.037,0.028l0.078,-0.061l-0.041,0.033Zm-5.734,-0.033l0.078,0.061l-0.037,-0.028l-0.041,-0.033Zm-9.835,0.003l0.001,0.006l-0.001,-0.006Zm15.692,-0.074l-0.075,0.065c0.026,-0.021 0.051,-0.043 0.075,-0.065Zm-5.939,0c0.024,0.022 0.049,0.044 0.075,0.065l-0.075,-0.065Zm-9.754,0.002l-0,0.009l-0,-0.009Zm15.774,-0.078l-0.068,0.065c0.024,-0.021 0.046,-0.043 0.068,-0.065Zm-6.101,0c0.022,0.022 0.045,0.043 0.068,0.065l-0.068,-0.065Zm-9.672,0.006l-0,0.011l0,-0.011Zm15.85,-0.086l-0.066,0.069c0.023,-0.023 0.045,-0.045 0.066,-0.069Zm-6.254,0c0.021,0.023 0.042,0.046 0.065,0.069l-0.065,-0.069Zm-9.591,0.014l-0.001,0.014l0.001,-0.014Zm9.528,-0.086l0.061,0.07l-0.036,-0.04l-0.025,-0.03Zm6.354,0.03l-0.035,0.04l0.06,-0.07l-0.025,0.03Zm-15.875,-0.015l-0.002,0.016l0.002,-0.016Zm9.461,-0.093c0.017,0.023 0.035,0.047 0.054,0.07l-0.054,-0.07Zm6.5,-0l-0.054,0.07c0.018,-0.023 0.036,-0.047 0.054,-0.07Zm-15.95,0.022l-0.003,0.018l0.003,-0.018Zm16.007,-0.105l-0.049,0.072c0.017,-0.024 0.033,-0.048 0.049,-0.072Zm-6.614,0c0.015,0.024 0.032,0.048 0.049,0.072l-0.049,-0.072Zm-9.38,0.035l-0.004,0.019l0.004,-0.019Zm16.084,-0.195l-0.041,0.078l-0.045,0.076c0.032,-0.051 0.061,-0.102 0.086,-0.154Zm-6.754,0.078l-0.041,-0.078c0.025,0.052 0.054,0.103 0.086,0.154l-0.045,-0.076Zm-9.313,0.046l-0.005,0.022l0.005,-0.022Zm0.019,-0.069l-0.006,0.023l0.006,-0.023Zm0.023,-0.07l-0.008,0.025l0.008,-0.025Zm9.193,-0.068c0.011,0.025 0.022,0.051 0.034,0.077l-0.034,-0.077Zm6.869,-0l-0.034,0.077c0.012,-0.026 0.024,-0.052 0.034,-0.077Zm-16.037,-0.001l-0.009,0.026l0.009,-0.026Zm9.094,-0.252c-0.109,-0.591 0.229,-1.204 1.013,-1.657c1.377,-0.796 3.614,-0.796 4.991,-0c0.894,0.516 1.208,1.241 0.941,1.904c0.033,-0.081 0.057,-0.164 0.072,-0.247c-0.082,-0.447 -0.42,-0.881 -1.013,-1.224c-1.377,-0.795 -3.614,-0.795 -4.991,0c-0.593,0.343 -0.931,0.777 -1.013,1.224Zm0.018,0.084l-0.018,-0.084c0.015,0.083 0.039,0.166 0.072,0.247l-0.029,-0.08c-0.008,-0.027 -0.017,-0.055 -0.025,-0.083Zm-9.083,0.1l-0.011,0.027l0.011,-0.027Zm0.032,-0.067l-0.013,0.027l0.013,-0.027Zm0.035,-0.068l-0.015,0.028l0.015,-0.028Zm0.037,-0.066l-0.016,0.028l0.016,-0.028Zm0.041,-0.066l-0.018,0.029l0.018,-0.029Zm0.044,-0.065l-0.019,0.029l0.019,-0.029Zm0.047,-0.064l-0.021,0.029l0.021,-0.029Zm0.05,-0.064l-0.023,0.029l0.023,-0.029Zm0.053,-0.063l-0.024,0.029l0.024,-0.029Zm0.057,-0.062l-0.027,0.029l0.027,-0.029Zm0.059,-0.061l-0.028,0.029l0.028,-0.029Zm0.062,-0.06l-0.029,0.028l0.029,-0.028Zm0.066,-0.06l-0.031,0.028l0.031,-0.028Zm0.068,-0.058l-0.031,0.027l0.031,-0.027Zm0.072,-0.057l-0.033,0.026l0.033,-0.026Zm0.075,-0.057l-0.034,0.025l0.034,-0.025Zm0.078,-0.055l-0.034,0.024l0.034,-0.024Zm0.081,-0.054l-0.033,0.022l0.033,-0.022Zm0.084,-0.053l-0.028,0.018l0.028,-0.018Zm17.986,-3.142l0.098,0.059l-0.063,-0.038l-0.035,-0.021Zm-0.104,-0.068c0.029,0.019 0.058,0.039 0.089,0.058l-0.089,-0.058Zm5.396,-0l-0.088,0.058c0.03,-0.019 0.06,-0.039 0.088,-0.058Zm-5.497,-0.073c0.027,0.021 0.055,0.041 0.084,0.061l-0.084,-0.061Zm5.598,0l-0.084,0.061c0.029,-0.02 0.057,-0.04 0.084,-0.061Zm0.048,-0.036l-0.038,0.029l0.079,-0.062l-0.041,0.033Zm-5.734,-0.033l0.078,0.062l-0.038,-0.029l-0.04,-0.033Zm-0.082,-0.07c0.024,0.022 0.049,0.043 0.075,0.065l-0.075,-0.065Zm5.939,-0l-0.075,0.065c0.025,-0.022 0.05,-0.043 0.075,-0.065Zm0.081,-0.077l-0.069,0.065c0.024,-0.021 0.047,-0.043 0.069,-0.065Zm-6.102,0c0.022,0.022 0.045,0.044 0.069,0.065l-0.069,-0.065Zm6.178,-0.079l-0.065,0.068c0.022,-0.022 0.044,-0.045 0.065,-0.068Zm-6.254,-0c0.021,0.023 0.043,0.046 0.066,0.068l-0.066,-0.068Zm-0.062,-0.072l0.06,0.07l-0.036,-0.041l-0.024,-0.029Zm6.354,0.029l-0.036,0.041l0.06,-0.07l-0.024,0.029Zm-6.415,-0.108c0.017,0.024 0.035,0.047 0.054,0.07l-0.054,-0.07Zm6.5,0l-0.054,0.07c0.019,-0.023 0.037,-0.046 0.054,-0.07Zm0.057,-0.082l-0.049,0.071c0.017,-0.023 0.034,-0.047 0.049,-0.071Zm-6.614,-0c0.016,0.024 0.032,0.048 0.049,0.071l-0.049,-0.071Zm6.704,-0.16l-0.04,0.077l-0.046,0.076c0.033,-0.051 0.061,-0.102 0.086,-0.153Zm-6.754,0.077l-0.04,-0.077c0.025,0.051 0.054,0.102 0.086,0.153l-0.046,-0.076Zm-0.077,-0.161c0.01,0.026 0.021,0.052 0.034,0.077l-0.034,-0.077Zm6.869,0l-0.035,0.077c0.013,-0.025 0.024,-0.051 0.035,-0.077Zm-6.872,-0.006c-0.266,-0.662 0.047,-1.388 0.941,-1.904c1.378,-0.795 3.614,-0.795 4.992,0c0.894,0.516 1.208,1.242 0.941,1.904c0.033,-0.081 0.057,-0.163 0.072,-0.246c-0.082,-0.447 -0.42,-0.882 -1.013,-1.224c-1.378,-0.796 -3.614,-0.796 -4.992,-0c-0.593,0.342 -0.93,0.777 -1.013,1.224c0.016,0.083 0.04,0.165 0.072,0.246Zm9.89,-4.305c0.032,0.02 0.065,0.04 0.099,0.059l-0.099,-0.059Zm-0.104,-0.068c0.029,0.02 0.059,0.039 0.089,0.058l-0.089,-0.058Zm5.397,0l-0.089,0.058c0.031,-0.019 0.06,-0.038 0.089,-0.058Zm-5.498,-0.072c0.028,0.02 0.056,0.041 0.085,0.061l-0.085,-0.061Zm5.599,-0l-0.085,0.061c0.029,-0.02 0.058,-0.041 0.085,-0.061Zm0.047,-0.037l-0.037,0.029l0.078,-0.061l-0.041,0.032Zm-5.734,-0.032l0.078,0.061l-0.037,-0.029l-0.041,-0.032Zm-0.082,-0.071c0.024,0.022 0.049,0.044 0.075,0.065l-0.075,-0.065Zm5.939,0l-0.075,0.065c0.026,-0.021 0.051,-0.043 0.075,-0.065Zm0.081,-0.076l-0.068,0.065c0.024,-0.022 0.046,-0.043 0.068,-0.065Zm-6.101,-0c0.022,0.022 0.045,0.043 0.068,0.065l-0.068,-0.065Zm6.178,-0.08l-0.066,0.069c0.023,-0.023 0.045,-0.046 0.066,-0.069Zm-6.254,0c0.021,0.023 0.042,0.046 0.065,0.069l-0.065,-0.069Zm-0.063,-0.072l0.061,0.07l-0.036,-0.04l-0.025,-0.03Zm6.354,0.03l-0.035,0.04l0.06,-0.07l-0.025,0.03Zm-6.414,-0.108c0.017,0.023 0.035,0.047 0.054,0.07l-0.054,-0.07Zm6.5,-0l-0.054,0.07c0.018,-0.023 0.036,-0.047 0.054,-0.07Zm0.057,-0.083l-0.049,0.072c0.017,-0.024 0.033,-0.048 0.049,-0.072Zm-6.614,0c0.015,0.024 0.032,0.048 0.049,0.072l-0.049,-0.072Zm6.704,-0.16l-0.041,0.077l-0.045,0.076c0.032,-0.05 0.061,-0.101 0.086,-0.153Zm-6.754,0.077l-0.041,-0.077c0.025,0.052 0.054,0.103 0.086,0.153l-0.045,-0.076Zm6.791,-0.16l-0.034,0.076c0.012,-0.025 0.024,-0.051 0.034,-0.076Zm-6.869,-0c0.011,0.025 0.022,0.051 0.034,0.076l-0.034,-0.076Zm-0.002,-0.006c-0.267,-0.663 0.047,-1.388 0.941,-1.904c1.377,-0.796 3.614,-0.796 4.991,-0c0.894,0.516 1.208,1.241 0.941,1.904c0.033,-0.082 0.057,-0.164 0.072,-0.247c-0.082,-0.447 -0.419,-0.881 -1.013,-1.224c-1.377,-0.795 -3.614,-0.795 -4.991,0c-0.593,0.343 -0.931,0.777 -1.013,1.224c0.015,0.083 0.039,0.165 0.072,0.247Zm9.294,-3.88l0.025,0.016l-0.025,-0.016Zm6.681,0l-0.025,0.016l0.025,-0.016Zm-6.761,-0.05l0.029,0.018l-0.008,-0.004l-0.021,-0.014Zm6.82,0.014l-0.008,0.004l0.029,-0.018l-0.021,0.014Zm-6.895,-0.064l0.03,0.02l-0.012,-0.007l-0.018,-0.013Zm6.973,0.013l-0.012,0.007l0.03,-0.02l-0.018,0.013Zm-7.044,-0.062l0.029,0.02l-0.014,-0.01l-0.015,-0.01Zm7.118,0.01l-0.014,0.01l0.029,-0.02l-0.015,0.01Zm0.072,-0.052l-0.017,0.012l0.029,-0.021l-0.012,0.009Zm-7.259,-0.009l0.029,0.021l-0.017,-0.012l-0.012,-0.009Zm-0.065,-0.05l0.026,0.02l-0.018,-0.014l-0.008,-0.006Zm7.393,0.006l-0.018,0.014l0.026,-0.02l-0.008,0.006Zm0.072,-0.058l-0.024,0.019l0.024,-0.019Zm-7.529,0l0.024,0.019l-0.024,-0.019Zm7.59,-0.052l-0.015,0.013l0.015,-0.013Zm-7.651,0l0.015,0.013l-0.015,-0.013Zm7.727,-0.069l-0.018,0.017l0.018,-0.017Zm-7.803,-0l0.019,0.017l-0.019,-0.017Zm7.846,-0.041l-0.006,0.005l0.023,-0.022l-0.017,0.017Zm-7.906,-0.017l0.023,0.022l-0.006,-0.005l-0.017,-0.017Zm7.962,-0.039l-0.008,0.008l0.023,-0.025l-0.015,0.017Zm-8.016,-0.017l0.023,0.025l-0.008,-0.008l-0.015,-0.017Zm8.07,-0.041l-0.011,0.012l0.023,-0.026l-0.012,0.014Zm-8.121,-0.014l0.023,0.026l-0.011,-0.012l-0.012,-0.014Zm-0.049,-0.055l0.023,0.026l-0.013,-0.014l-0.01,-0.012Zm8.221,0.012l-0.013,0.014l0.023,-0.026l-0.01,0.012Zm-8.267,-0.068l0.023,0.027l-0.015,-0.018l-0.008,-0.009Zm8.315,0.009l-0.015,0.018l0.023,-0.027l-0.008,0.009Zm-8.358,-0.066l0.022,0.029l-0.017,-0.022l-0.005,-0.007Zm8.404,0.007l-0.017,0.022l0.022,-0.029l-0.005,0.007Zm-8.445,-0.063l0.021,0.029l-0.018,-0.025l-0.003,-0.004Zm8.488,0.004l-0.018,0.025l0.021,-0.029l-0.003,0.004Zm137.904,-0.024l-0.001,0.021l0.001,-0.021Zm-146.428,-0.034l0.023,0.035l-0.025,-0.037l-0.021,-0.034l0.023,0.036Zm8.565,-0.002l-0.025,0.037l0.023,-0.035l0.023,-0.036l-0.021,0.034Zm137.867,-0.032l-0.001,0.01l0.001,-0.027l-0,0.017Zm-137.829,-0.028l-0.004,0.006l0.021,-0.035l-0.017,0.029Zm-8.66,-0.029l0.021,0.035l-0.004,-0.006l-0.017,-0.029Zm146.489,-0.029l-0,0.015l-0.001,-0.028l0.001,0.013Zm-146.521,-0.029l0.02,0.036l-0.006,-0.01l-0.014,-0.026Zm8.727,0.026l-0.006,0.01l0.02,-0.036l-0.014,0.026Zm-8.757,-0.084l0.019,0.037l-0.008,-0.014l-0.011,-0.023Zm8.79,0.023l-0.008,0.014l0.019,-0.037l-0.011,0.023Zm137.757,-0.022l0.001,0.019l-0.002,-0.027l0.001,0.008Zm-146.574,-0.059l0.018,0.039l-0.01,-0.02l-0.008,-0.019Zm8.847,0.019l-0.01,0.02l0.018,-0.039l-0.008,0.019Zm137.718,-0.048l0.002,0.015l-0.002,-0.015Zm-146.591,-0.029l0.018,0.04l-0.011,-0.025l-0.007,-0.015Zm8.9,0.015l-0.011,0.025l0.018,-0.04l-0.007,0.015Zm-8.923,-0.074l0.018,0.044l-0.013,-0.032l-0.005,-0.012Zm8.948,0.012l-0.013,0.032l0.018,-0.044l-0.005,0.012Zm137.651,-0.023l0.003,0.018l-0.003,-0.018Zm-146.601,0.005c-0.309,-0.845 0.104,-1.762 1.241,-2.418c1.787,-1.032 4.688,-1.032 6.475,-0c1.137,0.656 1.55,1.573 1.241,2.418c0.04,-0.11 0.068,-0.221 0.084,-0.332c-0.086,-0.603 -0.527,-1.192 -1.325,-1.653c-1.787,-1.031 -4.688,-1.031 -6.475,0c-0.798,0.461 -1.239,1.05 -1.325,1.653c0.016,0.111 0.044,0.222 0.084,0.332Zm146.587,-0.076l0.002,0.009l-0.006,-0.028l0.004,0.019Zm-0.021,-0.086l0.004,0.014l-0.008,-0.029l0.004,0.015Zm-0.025,-0.087l0.006,0.019l-0.009,-0.029l0.003,0.01Zm-0.031,-0.09l0.008,0.022l-0.008,-0.022Zm-0.036,-0.092l0.005,0.011l-0.005,-0.011Zm-0.033,-0.076l0.003,0.007l-0.013,-0.026l0.01,0.019Zm-0.042,-0.086l0.006,0.013l-0.015,-0.03l0.009,0.017Zm-0.046,-0.085l0.009,0.017l-0.016,-0.029l0.007,0.012Zm-0.05,-0.086l0.011,0.02l-0.015,-0.026l0.004,0.006Zm-0.055,-0.085l0.002,0.004l-0.002,-0.004Zm-0.058,-0.084l0.004,0.006l-0.018,-0.024l0.014,0.018Zm-0.063,-0.084l0.009,0.012l-0.023,-0.029l0.014,0.017Zm-0.067,-0.083l0.013,0.016l-0.024,-0.029l0.011,0.013Zm-0.07,-0.083l0.016,0.019l-0.024,-0.026l0.008,0.007Zm-0.077,-0.084l0.014,0.016l-0.014,-0.016Zm-0.095,-0.095l0.021,0.02l-0.021,-0.02Zm-0.066,-0.064l0.01,0.009l-0.029,-0.027l0.019,0.018Zm-0.087,-0.08l0.015,0.014l-0.031,-0.028l0.016,0.014Zm-0.091,-0.079l0.02,0.018l-0.031,-0.027l0.011,0.009Zm-0.101,-0.082l0.026,0.021l-0.026,-0.021Zm-0.11,-0.084l0.018,0.013l-0.018,-0.013Zm-0.088,-0.064l0.01,0.007l-0.034,-0.025l0.024,0.018Zm-0.107,-0.075l0.017,0.012l-0.039,-0.026l0.022,0.014Zm-0.112,-0.074l0.023,0.016l-0.039,-0.026l0.016,0.01Zm-0.116,-0.072l0.027,0.017l-0.035,-0.022l0.008,0.005Zm-134.159,-2.355c0.032,0.02 0.065,0.04 0.099,0.059l-0.099,-0.059Zm-0.104,-0.068c0.029,0.02 0.059,0.039 0.089,0.058l-0.089,-0.058Zm5.397,-0l-0.089,0.058c0.031,-0.019 0.06,-0.038 0.089,-0.058Zm-5.498,-0.072c0.028,0.02 0.056,0.04 0.085,0.06l-0.085,-0.06Zm5.599,-0l-0.085,0.06c0.029,-0.019 0.058,-0.04 0.085,-0.06Zm-5.687,-0.069l0.078,0.061l-0.037,-0.029l-0.041,-0.032Zm5.734,0.032l-0.037,0.029l0.078,-0.061l-0.041,0.032Zm-5.816,-0.103c0.024,0.022 0.049,0.043 0.075,0.065l-0.075,-0.065Zm5.939,0l-0.075,0.065c0.026,-0.022 0.051,-0.043 0.075,-0.065Zm0.081,-0.076l-0.068,0.065c0.024,-0.022 0.046,-0.043 0.068,-0.065Zm-6.101,-0c0.022,0.021 0.045,0.043 0.068,0.065l-0.068,-0.065Zm-0.076,-0.08c0.021,0.023 0.042,0.046 0.065,0.069l-0.065,-0.069Zm6.254,0l-0.066,0.069c0.023,-0.023 0.045,-0.046 0.066,-0.069Zm-6.317,-0.072l0.061,0.07l-0.036,-0.04l-0.025,-0.03Zm6.354,0.03l-0.035,0.04l0.06,-0.07l-0.025,0.03Zm-6.414,-0.108c0.017,0.023 0.035,0.046 0.054,0.07l-0.054,-0.07Zm6.5,-0l-0.054,0.07c0.018,-0.024 0.036,-0.047 0.054,-0.07Zm0.057,-0.083l-0.049,0.072c0.017,-0.024 0.033,-0.048 0.049,-0.072Zm-6.614,-0c0.015,0.024 0.032,0.048 0.049,0.072l-0.049,-0.072Zm6.704,-0.16l-0.041,0.077l-0.045,0.076c0.032,-0.05 0.061,-0.102 0.086,-0.153Zm-6.754,0.077l-0.041,-0.077c0.025,0.051 0.054,0.103 0.086,0.153l-0.045,-0.076Zm6.791,-0.161l-0.034,0.077c0.012,-0.025 0.024,-0.051 0.034,-0.077Zm-6.869,0c0.011,0.026 0.022,0.052 0.034,0.077l-0.034,-0.077Zm-0.074,-0.252c-0.109,-0.591 0.229,-1.205 1.013,-1.658c1.377,-0.795 3.614,-0.795 4.991,0c0.894,0.517 1.208,1.242 0.941,1.905c0.033,-0.082 0.057,-0.164 0.072,-0.247c-0.082,-0.447 -0.419,-0.882 -1.013,-1.224c-1.377,-0.795 -3.614,-0.795 -4.991,-0c-0.593,0.342 -0.931,0.777 -1.013,1.224Zm0.018,0.084l-0.018,-0.084c0.015,0.083 0.039,0.165 0.072,0.247l-0.029,-0.08c-0.008,-0.028 -0.017,-0.055 -0.025,-0.083Zm9.944,-4.143c0.032,0.021 0.065,0.04 0.098,0.06l-0.098,-0.06Zm5.292,-0.068l-0.088,0.059c0.03,-0.019 0.06,-0.039 0.088,-0.059Zm-5.396,0c0.029,0.02 0.058,0.04 0.089,0.059l-0.089,-0.059Zm-0.101,-0.072c0.027,0.021 0.056,0.041 0.084,0.061l-0.084,-0.061Zm5.598,0l-0.084,0.061c0.029,-0.02 0.057,-0.04 0.084,-0.061Zm0.048,-0.036l-0.038,0.028l0.079,-0.061l-0.041,0.033Zm-5.734,-0.033l0.078,0.061l-0.038,-0.028l-0.04,-0.033Zm-0.082,-0.07c0.024,0.021 0.049,0.043 0.075,0.064l-0.075,-0.064Zm5.939,-0l-0.075,0.064c0.025,-0.021 0.05,-0.043 0.075,-0.064Zm0.081,-0.077l-0.068,0.065c0.023,-0.021 0.046,-0.043 0.068,-0.065Zm-6.101,0c0.021,0.022 0.044,0.044 0.068,0.065l-0.068,-0.065Zm6.177,-0.079l-0.065,0.068c0.022,-0.022 0.044,-0.045 0.065,-0.068Zm-6.254,-0c0.021,0.022 0.043,0.045 0.066,0.068l-0.066,-0.068Zm-0.062,-0.073l0.06,0.07l-0.035,-0.04l-0.025,-0.03Zm6.354,0.03l-0.036,0.04l0.06,-0.07l-0.024,0.03Zm-6.415,-0.108c0.017,0.024 0.035,0.047 0.054,0.07l-0.054,-0.07Zm6.5,-0l-0.054,0.07c0.019,-0.023 0.037,-0.046 0.054,-0.07Zm0.057,-0.083l-0.049,0.072c0.017,-0.024 0.034,-0.048 0.049,-0.072Zm-6.614,0c0.016,0.024 0.032,0.048 0.049,0.072l-0.049,-0.072Zm6.704,-0.16l-0.04,0.078l-0.046,0.076c0.033,-0.051 0.061,-0.102 0.086,-0.154Zm-6.754,0.078l-0.04,-0.078c0.025,0.052 0.054,0.103 0.086,0.154l-0.046,-0.076Zm-0.077,-0.161c0.01,0.026 0.022,0.051 0.034,0.077l-0.034,-0.077Zm6.869,-0l-0.034,0.077c0.012,-0.026 0.023,-0.051 0.034,-0.077Zm-6.872,-0.006c-0.266,-0.663 0.047,-1.388 0.941,-1.904c1.378,-0.795 3.614,-0.795 4.992,-0c0.894,0.516 1.208,1.241 0.941,1.904c0.033,-0.081 0.057,-0.164 0.072,-0.246c-0.082,-0.448 -0.42,-0.882 -1.013,-1.225c-1.378,-0.795 -3.614,-0.795 -4.992,0c-0.593,0.343 -0.93,0.777 -1.013,1.225c0.016,0.082 0.04,0.165 0.072,0.246Zm9.89,-4.305c0.033,0.02 0.065,0.04 0.099,0.059l-0.099,-0.059Zm-0.104,-0.068c0.029,0.02 0.059,0.039 0.089,0.058l-0.089,-0.058Zm5.397,-0l-0.089,0.058c0.031,-0.019 0.06,-0.038 0.089,-0.058Zm-5.498,-0.072c0.028,0.02 0.056,0.04 0.085,0.06l-0.085,-0.06Zm5.599,-0l-0.085,0.06c0.029,-0.02 0.058,-0.04 0.085,-0.06Zm0.048,-0.037l-0.038,0.029l0.078,-0.062l-0.04,0.033Zm-5.735,-0.033l0.078,0.062l-0.037,-0.029l-0.041,-0.033Zm-0.082,-0.07c0.024,0.022 0.049,0.043 0.075,0.065l-0.075,-0.065Zm5.939,-0l-0.075,0.065c0.026,-0.022 0.051,-0.043 0.075,-0.065Zm0.081,-0.076l-0.068,0.064c0.024,-0.021 0.046,-0.043 0.068,-0.064Zm-6.101,-0c0.022,0.021 0.045,0.043 0.068,0.064l-0.068,-0.064Zm-0.076,-0.08c0.021,0.023 0.042,0.046 0.065,0.069l-0.065,-0.069Zm6.254,-0l-0.066,0.069c0.023,-0.023 0.045,-0.046 0.066,-0.069Zm-6.317,-0.072l0.061,0.07l-0.036,-0.041l-0.025,-0.029Zm6.354,0.029l-0.035,0.041l0.06,-0.07l-0.025,0.029Zm-6.414,-0.108c0.017,0.024 0.035,0.047 0.054,0.071l-0.054,-0.071Zm6.5,0l-0.054,0.071c0.018,-0.024 0.036,-0.047 0.054,-0.071Zm0.057,-0.082l-0.049,0.072c0.017,-0.024 0.033,-0.048 0.049,-0.072Zm-6.614,-0c0.015,0.024 0.032,0.048 0.049,0.072l-0.049,-0.072Zm6.704,-0.16l-0.04,0.077l-0.046,0.076c0.032,-0.05 0.061,-0.102 0.086,-0.153Zm-6.754,0.077l-0.041,-0.077c0.026,0.051 0.054,0.103 0.086,0.153l-0.045,-0.076Zm-0.078,-0.161c0.011,0.026 0.022,0.052 0.034,0.077l-0.034,-0.077Zm6.869,0l-0.034,0.077c0.012,-0.025 0.024,-0.051 0.034,-0.077Zm-6.943,-0.252c-0.109,-0.591 0.229,-1.205 1.013,-1.658c1.377,-0.795 3.614,-0.795 4.991,0c0.895,0.516 1.208,1.242 0.941,1.904c0.033,-0.081 0.057,-0.163 0.072,-0.246c-0.082,-0.447 -0.419,-0.882 -1.013,-1.224c-1.377,-0.795 -3.614,-0.795 -4.991,-0c-0.593,0.342 -0.931,0.777 -1.013,1.224Zm0.018,0.084l-0.018,-0.084c0.015,0.083 0.039,0.165 0.072,0.246l-0.029,-0.079c-0.008,-0.028 -0.017,-0.056 -0.025,-0.083Zm15.875,-3.72l-0.025,0.016l0.025,-0.016Zm-6.673,0l0.025,0.016l-0.025,-0.016Zm-0.08,-0.05l0.029,0.019l-0.008,-0.005l-0.021,-0.014Zm6.811,0.014l-0.007,0.005l0.028,-0.019l-0.021,0.014Zm0.077,-0.051l-0.011,0.008l0.03,-0.02l-0.019,0.012Zm-6.962,-0.012l0.029,0.02l-0.011,-0.008l-0.018,-0.012Zm7.037,-0.039l-0.014,0.01l0.029,-0.021l-0.015,0.011Zm-7.109,-0.011l0.03,0.021l-0.015,-0.01l-0.015,-0.011Zm7.181,-0.041l-0.017,0.012l0.028,-0.021l-0.011,0.009Zm-7.249,-0.009l0.028,0.021l-0.017,-0.012l-0.011,-0.009Zm7.318,-0.044l-0.018,0.014l0.026,-0.021l-0.008,0.007Zm-7.384,-0.007l0.027,0.021l-0.019,-0.014l-0.008,-0.007Zm-0.063,-0.051l0.023,0.019l-0.023,-0.019Zm7.518,0l-0.023,0.019l0.023,-0.019Zm0.061,-0.052l-0.013,0.012l0.013,-0.012Zm-7.64,0l0.014,0.012l-0.014,-0.012Zm-0.075,-0.068l0.017,0.016l-0.017,-0.016Zm7.79,-0l-0.017,0.016l0.017,-0.016Zm-7.85,-0.058l0.021,0.021l-0.005,-0.005l-0.016,-0.016Zm7.894,0.016l-0.005,0.005l0.021,-0.021l-0.016,0.016Zm0.056,-0.056l-0.007,0.007l0.022,-0.023l-0.015,0.016Zm-8.004,-0.016l0.022,0.023l-0.008,-0.007l-0.014,-0.016Zm-0.052,-0.055l0.022,0.024l-0.01,-0.011l-0.012,-0.013Zm8.11,0.013l-0.01,0.011l0.022,-0.024l-0.012,0.013Zm-8.158,-0.069l0.022,0.025l-0.012,-0.013l-0.01,-0.012Zm8.209,0.012l-0.012,0.013l0.021,-0.025l-0.009,0.012Zm-8.255,-0.067l0.021,0.025l-0.014,-0.017l-0.007,-0.008Zm8.303,0.008l-0.013,0.017l0.02,-0.025l-0.007,0.008Zm-8.346,-0.065l0.019,0.026l-0.015,-0.02l-0.004,-0.006Zm8.392,0.006l-0.015,0.02l0.019,-0.026l-0.004,0.006Zm-8.433,-0.062l0.018,0.024l-0.018,-0.024Zm8.478,-0l-0.017,0.024l0.017,-0.024Zm-8.515,-0.055l0.007,0.01l-0.008,-0.012l-0.016,-0.025l0.017,0.027Zm8.554,-0.002l-0.008,0.012l0.006,-0.01l0.018,-0.027l-0.016,0.025Zm-8.608,-0.085l0.018,0.031l-0.003,-0.006l-0.015,-0.025Zm8.645,0.025l-0.003,0.006l0.018,-0.031l-0.015,0.025Zm-8.678,-0.083l0.018,0.032l-0.005,-0.01l-0.013,-0.022Zm8.714,0.022l-0.006,0.01l0.018,-0.032l-0.012,0.022Zm0.032,-0.061l-0.007,0.014l0.017,-0.034l-0.01,0.02Zm-8.776,-0.02l0.017,0.034l-0.007,-0.014l-0.01,-0.02Zm-0.028,-0.058l0.017,0.035l-0.009,-0.018l-0.008,-0.017Zm8.835,0.017l-0.009,0.018l0.016,-0.035l-0.007,0.017Zm-8.86,-0.076l0.015,0.037l-0.01,-0.023l-0.005,-0.014Zm8.887,0.014l-0.01,0.023l0.016,-0.037l-0.006,0.014Zm-8.91,-0.073l0.015,0.04l-0.011,-0.029l-0.004,-0.011Zm8.935,0.011l-0.012,0.029l0.016,-0.04l-0.004,0.011Zm-8.939,-0.022c-0.307,-0.844 0.107,-1.757 1.24,-2.411c1.784,-1.03 4.682,-1.03 6.466,-0c1.133,0.654 1.547,1.567 1.241,2.411c0.039,-0.109 0.066,-0.218 0.082,-0.328c-0.085,-0.601 -0.526,-1.189 -1.323,-1.649c-1.784,-1.031 -4.682,-1.031 -6.466,-0c-0.797,0.46 -1.238,1.048 -1.323,1.649c0.016,0.11 0.043,0.219 0.083,0.328Zm10.927,-4.386l0.098,0.059l-0.064,-0.038l-0.034,-0.021Zm-0.105,-0.068c0.029,0.019 0.059,0.039 0.089,0.058l-0.089,-0.058Zm5.397,-0l-0.089,0.058c0.031,-0.019 0.06,-0.039 0.089,-0.058Zm-5.498,-0.073c0.028,0.021 0.056,0.041 0.085,0.061l-0.085,-0.061Zm5.599,0l-0.085,0.061c0.029,-0.02 0.058,-0.04 0.085,-0.061Zm-5.687,-0.069l0.078,0.062l-0.037,-0.029l-0.041,-0.033Zm5.735,0.033l-0.038,0.029l0.078,-0.062l-0.04,0.033Zm-5.817,-0.103c0.024,0.022 0.049,0.043 0.075,0.064l-0.075,-0.064Zm5.939,-0l-0.075,0.064c0.026,-0.021 0.051,-0.042 0.075,-0.064Zm0.081,-0.077l-0.068,0.065c0.024,-0.021 0.046,-0.043 0.068,-0.065Zm-6.101,0c0.022,0.022 0.045,0.044 0.068,0.065l-0.068,-0.065Zm-0.076,-0.079c0.021,0.023 0.042,0.046 0.065,0.068l-0.065,-0.068Zm6.254,-0l-0.066,0.068c0.023,-0.022 0.045,-0.045 0.066,-0.068Zm-6.317,-0.072l0.061,0.07l-0.036,-0.041l-0.025,-0.029Zm6.354,0.029l-0.035,0.041l0.06,-0.07l-0.025,0.029Zm-6.414,-0.108c0.017,0.024 0.035,0.047 0.054,0.07l-0.054,-0.07Zm6.5,0l-0.054,0.07c0.018,-0.023 0.036,-0.046 0.054,-0.07Zm0.057,-0.082l-0.049,0.071c0.017,-0.023 0.033,-0.047 0.049,-0.071Zm-6.614,-0c0.015,0.024 0.032,0.048 0.049,0.071l-0.049,-0.071Zm6.704,-0.161l-0.04,0.078l-0.046,0.076c0.032,-0.051 0.061,-0.102 0.086,-0.154Zm-6.754,0.078l-0.04,-0.078c0.025,0.052 0.053,0.103 0.086,0.154l-0.046,-0.076Zm6.791,-0.161l-0.034,0.077c0.012,-0.026 0.024,-0.051 0.034,-0.077Zm-6.869,0c0.011,0.026 0.022,0.051 0.034,0.077l-0.034,-0.077Zm-0.002,-0.006c-0.267,-0.663 0.047,-1.388 0.941,-1.904c1.377,-0.795 3.614,-0.795 4.991,0c0.895,0.516 1.208,1.241 0.941,1.904c0.033,-0.081 0.057,-0.163 0.072,-0.246c-0.082,-0.447 -0.419,-0.882 -1.013,-1.224c-1.377,-0.796 -3.614,-0.796 -4.991,-0c-0.593,0.342 -0.931,0.777 -1.013,1.224c0.015,0.083 0.039,0.165 0.072,0.246Zm9.89,-4.305l0.098,0.059l-0.063,-0.037l-0.035,-0.022Zm5.292,-0.068l-0.088,0.058c0.03,-0.019 0.06,-0.038 0.088,-0.058Zm-5.396,-0c0.029,0.02 0.058,0.039 0.089,0.058l-0.089,-0.058Zm-0.101,-0.072c0.027,0.02 0.056,0.041 0.084,0.061l-0.084,-0.061Zm5.598,-0l-0.084,0.061c0.029,-0.02 0.057,-0.041 0.084,-0.061Zm0.048,-0.037l-0.038,0.029l0.079,-0.061l-0.041,0.032Zm-5.734,-0.032l0.078,0.061l-0.038,-0.029l-0.04,-0.032Zm-0.082,-0.071c0.024,0.022 0.049,0.044 0.075,0.065l-0.075,-0.065Zm5.939,0l-0.075,0.065c0.025,-0.021 0.05,-0.043 0.075,-0.065Zm0.081,-0.076l-0.068,0.065c0.023,-0.022 0.046,-0.043 0.068,-0.065Zm-6.101,-0c0.022,0.022 0.044,0.043 0.068,0.065l-0.068,-0.065Zm6.177,-0.08l-0.065,0.069c0.023,-0.023 0.044,-0.046 0.065,-0.069Zm-6.254,0c0.021,0.023 0.043,0.046 0.066,0.069l-0.066,-0.069Zm6.292,-0.042l-0.036,0.04l0.06,-0.07l-0.024,0.03Zm-6.354,-0.03l0.06,0.07l-0.035,-0.04l-0.025,-0.03Zm-0.061,-0.078c0.017,0.023 0.035,0.047 0.054,0.07l-0.054,-0.07Zm6.5,-0l-0.054,0.07c0.019,-0.023 0.037,-0.047 0.054,-0.07Zm0.057,-0.083l-0.049,0.072c0.017,-0.024 0.034,-0.048 0.049,-0.072Zm-6.614,0c0.016,0.024 0.032,0.048 0.049,0.072l-0.049,-0.072Zm6.704,-0.16l-0.04,0.077l-0.046,0.076c0.033,-0.05 0.061,-0.101 0.086,-0.153Zm-6.754,0.077l-0.04,-0.077c0.025,0.052 0.054,0.103 0.086,0.153l-0.046,-0.076Zm-0.077,-0.161c0.01,0.026 0.022,0.052 0.034,0.077l-0.034,-0.077Zm6.869,0l-0.034,0.077c0.012,-0.025 0.023,-0.051 0.034,-0.077Zm-6.872,-0.005c-0.266,-0.663 0.047,-1.388 0.941,-1.905c1.378,-0.795 3.615,-0.795 4.992,0c0.894,0.517 1.208,1.242 0.941,1.905c0.033,-0.082 0.057,-0.164 0.072,-0.247c-0.082,-0.447 -0.42,-0.881 -1.013,-1.224c-1.377,-0.795 -3.614,-0.795 -4.992,0c-0.593,0.343 -0.93,0.777 -1.013,1.224c0.016,0.083 0.04,0.165 0.072,0.247Zm9.891,-4.306l0.098,0.06l-0.064,-0.038l-0.034,-0.022Zm5.292,-0.068l-0.089,0.059c0.031,-0.019 0.06,-0.039 0.089,-0.059Zm-5.397,0c0.029,0.02 0.059,0.04 0.089,0.059l-0.089,-0.059Zm-0.101,-0.072c0.028,0.021 0.056,0.041 0.085,0.061l-0.085,-0.061Zm5.599,0l-0.085,0.061c0.029,-0.02 0.058,-0.04 0.085,-0.061Zm0.048,-0.036l-0.038,0.029l0.078,-0.062l-0.04,0.033Zm-5.735,-0.033l0.078,0.062l-0.037,-0.029l-0.041,-0.033Zm-0.082,-0.07c0.024,0.021 0.049,0.043 0.075,0.064l-0.075,-0.064Zm5.939,-0l-0.075,0.064c0.026,-0.021 0.051,-0.043 0.075,-0.064Zm0.081,-0.077l-0.068,0.065c0.024,-0.021 0.046,-0.043 0.068,-0.065Zm-6.101,0c0.022,0.022 0.045,0.044 0.068,0.065l-0.068,-0.065Zm6.178,-0.079l-0.066,0.068c0.023,-0.022 0.045,-0.045 0.066,-0.068Zm-6.254,-0c0.021,0.023 0.042,0.045 0.065,0.068l-0.065,-0.068Zm6.291,-0.043l-0.035,0.04l0.06,-0.07l-0.025,0.03Zm-6.354,-0.03l0.061,0.07l-0.036,-0.04l-0.025,-0.03Zm6.44,-0.078l-0.054,0.07c0.018,-0.023 0.036,-0.046 0.054,-0.07Zm-6.5,0c0.017,0.024 0.035,0.047 0.054,0.07l-0.054,-0.07Zm6.557,-0.083l-0.049,0.072c0.017,-0.024 0.033,-0.047 0.049,-0.072Zm-6.614,0c0.015,0.024 0.032,0.048 0.049,0.072l-0.049,-0.072Zm6.704,-0.16l-0.04,0.078l-0.046,0.076c0.032,-0.051 0.061,-0.102 0.086,-0.154Zm-6.754,0.078l-0.04,-0.078c0.025,0.052 0.053,0.103 0.086,0.154l-0.046,-0.076Zm-0.078,-0.161c0.011,0.026 0.022,0.051 0.034,0.077l-0.034,-0.077Zm6.869,-0l-0.034,0.077c0.012,-0.026 0.024,-0.051 0.034,-0.077Zm-6.943,-0.252c-0.109,-0.592 0.229,-1.205 1.013,-1.658c1.377,-0.795 3.614,-0.795 4.991,-0c0.895,0.516 1.208,1.241 0.941,1.904c0.033,-0.081 0.057,-0.164 0.072,-0.246c-0.082,-0.448 -0.419,-0.882 -1.013,-1.224c-1.377,-0.796 -3.614,-0.796 -4.991,-0c-0.593,0.342 -0.931,0.776 -1.013,1.224Zm0.018,0.083l-0.018,-0.083c0.015,0.082 0.039,0.165 0.072,0.246l-0.029,-0.079c-0.008,-0.028 -0.016,-0.056 -0.025,-0.084Zm-84.39,53.317l-0.099,0.06c0.034,-0.02 0.067,-0.04 0.099,-0.06Zm9.047,-5.223l-0.098,0.059c0.033,-0.019 0.066,-0.039 0.098,-0.059Zm9.048,-5.224l-0.099,0.059c0.034,-0.019 0.067,-0.039 0.099,-0.059Zm18.095,-10.447l-0.099,0.059c0.034,-0.019 0.067,-0.039 0.099,-0.059Zm9.047,-5.224l-0.098,0.06c0.034,-0.02 0.066,-0.039 0.098,-0.06Zm9.048,-5.223l-0.099,0.059c0.034,-0.019 0.067,-0.039 0.099,-0.059Zm18.095,-10.447l-0.099,0.059c0.034,-0.02 0.067,-0.039 0.099,-0.059Zm9.047,-5.224l-0.098,0.059c0.034,-0.019 0.066,-0.039 0.098,-0.059Zm9.048,-5.224l-0.099,0.06c0.034,-0.02 0.067,-0.039 0.099,-0.06Z" style="fill:#939393;fill-opacity:0.19;"/><path d="M27.72,109.761l63.551,36.692" style="fill:none;stroke:#848484;stroke-opacity:0.44;stroke-width:0.5px;"/><path d="M33.356,106.507l63.643,36.745" style="fill:none;stroke:#848484;stroke-opacity:0.44;stroke-width:0.2px;"/><path d="M38.561,103.502l63.539,36.685" style="fill:none;stroke:#848484;stroke-opacity:0.44;stroke-width:0.2px;"/><path d="M43.766,100.497l63.677,36.764" style="fill:none;stroke:#848484;stroke-opacity:0.44;stroke-width:0.2px;"/><path d="M48.97,97.492l63.562,36.697" style="fill:none;stroke:#848484;stroke-opacity:0.44;stroke-width:0.2px;"/><path d="M54.175,94.487l63.518,36.672" style="fill:none;stroke:#848484;stroke-opacity:0.44;stroke-width:0.2px;"/><path d="M59.38,91.482l63.559,36.696" style="fill:none;stroke:#848484;stroke-opacity:0.44;stroke-width:0.2px;"/><path d="M64.585,88.478l63.506,36.665" style="fill:none;stroke:#848484;stroke-opacity:0.44;stroke-width:0.2px;"/><path d="M69.789,85.473l63.599,36.718" style="fill:none;stroke:#848484;stroke-opacity:0.44;stroke-width:0.2px;"/><path d="M74.994,82.468l63.515,36.67" style="fill:none;stroke:#848484;stroke-opacity:0.44;stroke-width:0.2px;"/><path d="M80.199,79.463l63.59,36.713" style="fill:none;stroke:#848484;stroke-opacity:0.44;stroke-width:0.2px;"/><path d="M85.403,76.458l63.615,36.728" style="fill:none;stroke:#848484;stroke-opacity:0.44;stroke-width:0.2px;"/><path d="M90.608,73.453l63.597,36.717" style="fill:none;stroke:#848484;stroke-opacity:0.44;stroke-width:0.2px;"/><path d="M95.813,70.448l63.587,36.712" style="fill:none;stroke:#848484;stroke-opacity:0.44;stroke-width:0.2px;"/><path d="M101.018,67.443l63.671,36.761" style="fill:none;stroke:#848484;stroke-opacity:0.44;stroke-width:0.2px;"/><path d="M106.222,64.438l63.512,36.668" style="fill:none;stroke:#848484;stroke-opacity:0.44;stroke-width:0.2px;"/><path d="M118.953,56.953l63.242,36.513" style="fill:none;stroke:#848484;stroke-opacity:0.44;stroke-width:0.5px;"/><path d="M111.5,61.256l63.633,36.739" style="fill:none;stroke:#848484;stroke-opacity:0.44;stroke-width:0.5px;"/><path d="M27.382,109.673l84.324,-48.684" style="fill:none;stroke:#848484;stroke-opacity:0.44;stroke-width:0.2px;"/><path d="M32.709,112.749l84.324,-48.685" style="fill:none;stroke:#848484;stroke-opacity:0.44;stroke-width:0.2px;"/><path d="M38.036,115.825l84.324,-48.685" style="fill:none;stroke:#848484;stroke-opacity:0.44;stroke-width:0.2px;"/><path d="M43.363,118.9l84.325,-48.685" style="fill:none;stroke:#848484;stroke-opacity:0.44;stroke-width:0.2px;"/><path d="M48.69,121.976l84.325,-48.685" style="fill:none;stroke:#848484;stroke-opacity:0.44;stroke-width:0.2px;"/><path d="M54.017,125.052l84.325,-48.685" style="fill:none;stroke:#848484;stroke-opacity:0.44;stroke-width:0.2px;"/><path d="M59.344,128.127l84.325,-48.685" style="fill:none;stroke:#848484;stroke-opacity:0.44;stroke-width:0.2px;"/><path d="M64.671,131.203l84.325,-48.685" style="fill:none;stroke:#848484;stroke-opacity:0.44;stroke-width:0.2px;"/><path d="M69.999,134.278l84.324,-48.684" style="fill:none;stroke:#848484;stroke-opacity:0.44;stroke-width:0.2px;"/><path d="M75.326,137.354l84.324,-48.685" style="fill:none;stroke:#848484;stroke-opacity:0.44;stroke-width:0.2px;"/><path d="M80.653,140.43l84.324,-48.685" style="fill:none;stroke:#848484;stroke-opacity:0.44;stroke-width:0.2px;"/><path d="M85.98,143.505l84.324,-48.685" style="fill:none;stroke:#848484;stroke-opacity:0.44;stroke-width:0.2px;"/><path d="M91.307,146.581l84.325,-48.685" style="fill:none;stroke:#848484;stroke-opacity:0.44;stroke-width:0.2px;"/></g></svg>