<?xml version="1.0" encoding="UTF-8" standalone="no"?><!DOCTYPE svg PUBLIC "-//W3C//DTD SVG 1.1//EN" "http://www.w3.org/Graphics/SVG/1.1/DTD/svg11.dtd"><svg width="100%" height="100%" viewBox="0 0 200 200" version="1.1" xmlns="http://www.w3.org/2000/svg" xmlns:xlink="http://www.w3.org/1999/xlink" xml:space="preserve" xmlns:serif="http://www.serif.com/" style="fill-rule:evenodd;clip-rule:evenodd;stroke-linecap:round;stroke-linejoin:round;stroke-miterlimit:1.5;"><g><path d="M11.175,127.34c0.188,0.891 1.13,1.727 2.683,2.217l85.259,26.891c2.614,0.825 5.976,0.359 7.503,-1.039l80.949,-74.115c0.764,-0.7 0.925,-1.501 0.568,-2.23c-0.189,-0.891 -1.131,-1.726 -2.684,-2.216l-85.258,-26.892c-2.614,-0.825 -5.976,-0.359 -7.503,1.039l-80.95,74.115c-0.764,0.7 -0.924,1.501 -0.567,2.23Zm15.863,-3.995c0.069,0.447 -0.123,0.927 -0.601,1.365c-1.111,1.017 -3.35,1.421 -4.997,0.902c-0.709,-0.224 -1.193,-0.582 -1.426,-1c-0.069,-0.447 0.123,-0.927 0.601,-1.365c1.111,-1.017 3.35,-1.421 4.997,-0.902c0.709,0.224 1.193,0.583 1.426,1Zm7.297,-6.68c0.068,0.446 -0.123,0.927 -0.602,1.365c-1.111,1.017 -3.349,1.421 -4.996,0.902c-0.71,-0.224 -1.194,-0.583 -1.427,-1c-0.069,-0.447 0.123,-0.928 0.601,-1.365c1.111,-1.018 3.35,-1.422 4.997,-0.902c0.709,0.224 1.194,0.582 1.427,1Zm7.296,-6.681c0.068,0.447 -0.123,0.928 -0.602,1.366c-1.11,1.017 -3.349,1.421 -4.996,0.901c-0.709,-0.223 -1.194,-0.582 -1.427,-0.999c-0.068,-0.447 0.123,-0.928 0.602,-1.366c1.111,-1.017 3.349,-1.421 4.996,-0.901c0.709,0.223 1.194,0.582 1.427,0.999Zm8.501,-6.897c0.118,0.597 -0.125,1.246 -0.769,1.835c-1.441,1.319 -4.345,1.843 -6.482,1.17c-0.953,-0.301 -1.594,-0.79 -1.882,-1.357c-0.118,-0.598 0.125,-1.247 0.769,-1.836c1.441,-1.319 4.345,-1.843 6.481,-1.17c0.954,0.301 1.595,0.791 1.883,1.358Zm6.091,-6.463c0.069,0.447 -0.123,0.927 -0.601,1.365c-1.111,1.017 -3.35,1.421 -4.997,0.902c-0.709,-0.224 -1.193,-0.583 -1.426,-1c-0.069,-0.447 0.123,-0.927 0.601,-1.365c1.111,-1.017 3.35,-1.421 4.997,-0.902c0.709,0.224 1.193,0.582 1.426,1Zm7.297,-6.681c0.068,0.447 -0.123,0.928 -0.602,1.366c-1.111,1.017 -3.35,1.421 -4.996,0.901c-0.71,-0.223 -1.194,-0.582 -1.427,-0.999c-0.069,-0.447 0.123,-0.928 0.601,-1.366c1.111,-1.017 3.35,-1.421 4.997,-0.901c0.709,0.223 1.194,0.582 1.427,0.999Zm7.296,-6.68c0.068,0.447 -0.123,0.928 -0.602,1.366c-1.11,1.017 -3.349,1.421 -4.996,0.901c-0.709,-0.224 -1.194,-0.582 -1.427,-0.999c-0.068,-0.447 0.123,-0.928 0.602,-1.366c1.111,-1.017 3.349,-1.421 4.996,-0.902c0.709,0.224 1.194,0.583 1.427,1Zm8.344,-6.869c0.118,0.596 -0.125,1.244 -0.768,1.832c-1.439,1.318 -4.339,1.841 -6.473,1.168c-0.952,-0.3 -1.592,-0.789 -1.88,-1.355c-0.117,-0.596 0.126,-1.244 0.768,-1.832c1.439,-1.318 4.34,-1.841 6.473,-1.168c0.953,0.3 1.593,0.789 1.88,1.355Zm6.248,-6.492c0.069,0.447 -0.123,0.928 -0.601,1.366c-1.111,1.017 -3.35,1.421 -4.997,0.902c-0.709,-0.224 -1.193,-0.583 -1.426,-1c-0.069,-0.447 0.123,-0.928 0.601,-1.366c1.111,-1.017 3.35,-1.421 4.997,-0.901c0.709,0.224 1.193,0.582 1.426,0.999Zm7.297,-6.68c0.068,0.447 -0.123,0.928 -0.602,1.366c-1.111,1.017 -3.35,1.421 -4.996,0.901c-0.71,-0.223 -1.194,-0.582 -1.427,-0.999c-0.069,-0.447 0.123,-0.928 0.601,-1.366c1.111,-1.017 3.35,-1.421 4.997,-0.901c0.709,0.223 1.194,0.582 1.427,0.999Zm7.296,-6.68c0.068,0.447 -0.123,0.927 -0.602,1.365c-1.11,1.017 -3.349,1.421 -4.996,0.902c-0.709,-0.224 -1.194,-0.582 -1.427,-1c-0.068,-0.447 0.123,-0.927 0.602,-1.365c1.111,-1.017 3.349,-1.421 4.996,-0.902c0.709,0.224 1.194,0.583 1.427,1Z" style="fill:#f8f8f8;"/><path d="M188.137,79.064l0.013,0.069c0.098,0.588 -0.13,1.196 -0.727,1.742l-80.949,74.115c-1.527,1.398 -4.889,1.864 -7.503,1.04l-85.259,-26.892c-1.306,-0.412 -2.181,-1.069 -2.537,-1.798c0.188,0.891 1.13,1.727 2.683,2.217l85.259,26.891c2.614,0.825 5.976,0.359 7.503,-1.039l80.949,-74.115c0.764,-0.7 0.925,-1.501 0.568,-2.23Zm-166.815,46.508l0.118,0.04l-0.076,-0.025l-0.042,-0.015Zm-0.127,-0.047c0.035,0.014 0.071,0.028 0.108,0.041l-0.108,-0.041Zm5.402,-0.974l-0.069,0.072c0.024,-0.024 0.047,-0.048 0.069,-0.072Zm-5.528,0.923c0.035,0.015 0.07,0.029 0.105,0.043l-0.105,-0.043Zm5.605,-1.011l-0.065,0.074c0.023,-0.025 0.044,-0.049 0.065,-0.074Zm-15.531,2.808l0.001,0.003l-0.001,-0.003Zm15.566,-2.852l-0.028,0.035l0.058,-0.074l-0.03,0.039Zm-5.751,1.004l0.099,0.045l-0.048,-0.021l-0.051,-0.024Zm-9.844,1.779l0.002,0.006l-0.002,-0.006Zm15.683,-2.905l-0.053,0.076c0.018,-0.025 0.036,-0.05 0.053,-0.076Zm-5.945,1.073c0.031,0.017 0.064,0.033 0.097,0.049l-0.097,-0.049Zm-9.764,1.763l0.003,0.008l-0.003,-0.008Zm15.764,-2.924l-0.046,0.075c0.016,-0.025 0.032,-0.05 0.046,-0.075Zm-6.107,1.102c0.029,0.017 0.059,0.034 0.09,0.05l-0.09,-0.05Zm-9.68,1.752l0.004,0.011l-0.004,-0.011Zm15.837,-2.945l-0.042,0.078c0.015,-0.026 0.029,-0.052 0.042,-0.078Zm-6.26,1.13c0.028,0.018 0.058,0.036 0.088,0.054l-0.088,-0.054Zm-9.597,1.745l0.004,0.014l-0.004,-0.014Zm9.51,-1.804l0.084,0.057l-0.049,-0.033l-0.035,-0.024Zm6.37,-1.119l-0.022,0.045l0.037,-0.078l-0.015,0.033Zm-15.896,2.853l0.004,0.016l-0.004,-0.016Zm9.439,-1.799c0.025,0.02 0.051,0.039 0.077,0.058l-0.077,-0.058Zm6.506,-1.174l-0.03,0.078c0.011,-0.026 0.021,-0.052 0.03,-0.078Zm-15.958,2.903l0.003,0.018l-0.003,-0.018Zm15.988,-2.993l-0.025,0.078c0.009,-0.026 0.017,-0.052 0.025,-0.078Zm-6.621,1.195c0.023,0.02 0.048,0.04 0.073,0.06l-0.073,-0.06Zm-9.378,1.727l0.003,0.02l-0.003,-0.02Zm16.035,-3.093l-0.014,0.082l-0.02,0.082c0.015,-0.055 0.026,-0.109 0.034,-0.164Zm-6.735,1.295l-0.066,-0.068c0.042,0.046 0.088,0.09 0.137,0.133l-0.071,-0.065Zm-9.307,1.727l0.002,0.022l-0.002,-0.022Zm-0.004,-0.071l0.002,0.024l-0.002,-0.024Zm-0.001,-0.071l0.001,0.025l-0.001,-0.025Zm9.18,-1.726c0.019,0.023 0.039,0.045 0.06,0.068l-0.06,-0.068Zm6.876,-1.241l-0.008,0.08c0.004,-0.026 0.006,-0.053 0.008,-0.08Zm-16.053,2.896l-0.001,0.027l0.001,-0.027Zm9.018,-1.886c-0.309,-0.551 -0.177,-1.205 0.455,-1.784c1.111,-1.017 3.35,-1.421 4.997,-0.902c1.069,0.338 1.627,0.981 1.583,1.67c0.006,-0.085 0.002,-0.168 -0.011,-0.251c-0.233,-0.417 -0.717,-0.776 -1.426,-1c-1.647,-0.519 -3.886,-0.115 -4.997,0.902c-0.478,0.438 -0.67,0.918 -0.601,1.365Zm0.046,0.078l-0.046,-0.078c0.043,0.078 0.095,0.153 0.155,0.225l-0.056,-0.071c-0.018,-0.025 -0.035,-0.051 -0.053,-0.076Zm-9.058,1.737l-0.003,0.028l0.003,-0.028Zm0.009,-0.071l-0.004,0.029l0.004,-0.029Zm0.012,-0.071l-0.005,0.03l0.005,-0.03Zm0.015,-0.071l-0.006,0.03l0.006,-0.03Zm0.019,-0.071l-0.008,0.031l0.008,-0.031Zm0.022,-0.071l-0.01,0.032l0.01,-0.032Zm0.025,-0.071l-0.011,0.032l0.011,-0.032Zm0.029,-0.07l-0.013,0.032l0.013,-0.032Zm0.032,-0.071l-0.015,0.033l0.015,-0.033Zm0.035,-0.07l-0.016,0.033l0.016,-0.033Zm0.039,-0.069l-0.018,0.032l0.018,-0.032Zm0.042,-0.07l-0.019,0.033l0.019,-0.033Zm0.046,-0.069l-0.021,0.032l0.021,-0.032Zm0.049,-0.069l-0.023,0.032l0.023,-0.032Zm0.052,-0.068l-0.024,0.031l0.024,-0.031Zm0.056,-0.068l-0.025,0.03l0.025,-0.03Zm0.059,-0.067l-0.025,0.029l0.025,-0.029Zm0.063,-0.067l-0.025,0.027l0.025,-0.027Zm0.066,-0.067l-0.022,0.022l0.022,-0.022Zm16.946,-6.284l0.119,0.04l-0.077,-0.025l-0.042,-0.015Zm-0.127,-0.047c0.036,0.014 0.072,0.028 0.109,0.041l-0.109,-0.041Zm5.402,-0.975l-0.069,0.073c0.024,-0.024 0.047,-0.048 0.069,-0.073Zm-5.527,0.924c0.034,0.014 0.069,0.029 0.105,0.043l-0.105,-0.043Zm5.604,-1.012l-0.064,0.074c0.022,-0.024 0.043,-0.049 0.064,-0.074Zm0.035,-0.043l-0.028,0.034l0.058,-0.073l-0.03,0.039Zm-5.751,1.004l0.099,0.045l-0.047,-0.021l-0.052,-0.024Zm-0.106,-0.053c0.032,0.016 0.064,0.033 0.097,0.048l-0.097,-0.048Zm5.945,-1.073l-0.053,0.076c0.019,-0.025 0.036,-0.051 0.053,-0.076Zm0.056,-0.089l-0.047,0.075c0.017,-0.025 0.032,-0.05 0.047,-0.075Zm-6.108,1.102c0.029,0.017 0.06,0.034 0.09,0.051l-0.09,-0.051Zm6.157,-1.192l-0.042,0.078c0.015,-0.026 0.029,-0.052 0.042,-0.078Zm-6.26,1.129c0.029,0.019 0.058,0.037 0.088,0.055l-0.088,-0.055Zm-0.087,-0.058l0.084,0.056l-0.049,-0.032l-0.035,-0.024Zm6.371,-1.119l-0.022,0.045l0.036,-0.078l-0.014,0.033Zm-6.458,1.054c0.025,0.02 0.051,0.039 0.078,0.058l-0.078,-0.058Zm6.507,-1.174l-0.031,0.078c0.011,-0.026 0.021,-0.052 0.031,-0.078Zm0.029,-0.09l-0.025,0.078c0.009,-0.026 0.017,-0.052 0.025,-0.078Zm-6.621,1.195c0.024,0.02 0.048,0.04 0.073,0.06l-0.073,-0.06Zm6.657,-1.366l-0.014,0.082l-0.02,0.082c0.015,-0.055 0.026,-0.11 0.034,-0.164Zm-6.735,1.295l-0.066,-0.068c0.042,0.046 0.088,0.09 0.138,0.133l-0.072,-0.065Zm-0.132,-0.142c0.02,0.023 0.04,0.046 0.06,0.068l-0.06,-0.068Zm6.876,-1.24l-0.008,0.08c0.004,-0.027 0.007,-0.054 0.008,-0.08Zm-6.88,1.235c-0.49,-0.592 -0.421,-1.349 0.3,-2.009c1.111,-1.017 3.35,-1.421 4.997,-0.902c1.069,0.337 1.627,0.981 1.584,1.67c0.005,-0.085 0.001,-0.169 -0.011,-0.251c-0.233,-0.418 -0.718,-0.776 -1.427,-1c-1.647,-0.52 -3.886,-0.116 -4.997,0.902c-0.478,0.437 -0.67,0.918 -0.601,1.365c0.043,0.077 0.095,0.152 0.155,0.225Zm8.449,-5.945c0.039,0.013 0.079,0.027 0.119,0.039l-0.119,-0.039Zm-0.127,-0.047c0.036,0.014 0.072,0.027 0.109,0.04l-0.109,-0.04Zm5.402,-0.975l-0.069,0.073c0.024,-0.024 0.047,-0.049 0.069,-0.073Zm-5.527,0.923c0.034,0.015 0.069,0.03 0.105,0.044l-0.105,-0.044Zm5.604,-1.011l-0.064,0.074c0.022,-0.024 0.044,-0.049 0.064,-0.074Zm0.035,-0.044l-0.027,0.035l0.057,-0.074l-0.03,0.039Zm-5.751,1.004l0.099,0.046l-0.047,-0.021l-0.052,-0.025Zm-0.106,-0.053c0.032,0.017 0.064,0.033 0.097,0.049l-0.097,-0.049Zm5.945,-1.072l-0.053,0.076c0.019,-0.026 0.037,-0.051 0.053,-0.076Zm0.056,-0.089l-0.047,0.075c0.017,-0.025 0.032,-0.05 0.047,-0.075Zm-6.108,1.102c0.03,0.017 0.06,0.034 0.091,0.05l-0.091,-0.05Zm6.158,-1.193l-0.043,0.078c0.015,-0.025 0.029,-0.051 0.043,-0.078Zm-6.261,1.13c0.029,0.018 0.058,0.037 0.089,0.054l-0.089,-0.054Zm-0.087,-0.059l0.084,0.057l-0.049,-0.032l-0.035,-0.025Zm6.371,-1.119l-0.022,0.046l0.036,-0.079l-0.014,0.033Zm-6.458,1.055c0.025,0.019 0.051,0.039 0.078,0.058l-0.078,-0.058Zm6.507,-1.174l-0.031,0.077c0.011,-0.026 0.022,-0.051 0.031,-0.077Zm0.029,-0.09l-0.025,0.078c0.009,-0.026 0.018,-0.052 0.025,-0.078Zm-6.621,1.194c0.024,0.021 0.048,0.041 0.074,0.061l-0.074,-0.061Zm6.657,-1.365l-0.014,0.082l-0.02,0.081c0.015,-0.054 0.027,-0.109 0.034,-0.163Zm-6.734,1.294l-0.067,-0.067c0.043,0.045 0.089,0.09 0.138,0.133l-0.071,-0.066Zm6.744,-1.382l-0.009,0.081c0.004,-0.027 0.007,-0.054 0.009,-0.081Zm-6.876,1.241c0.019,0.023 0.039,0.046 0.06,0.068l-0.06,-0.068Zm-0.005,-0.005c-0.49,-0.592 -0.42,-1.35 0.301,-2.01c1.11,-1.017 3.349,-1.421 4.996,-0.901c1.069,0.337 1.628,0.981 1.584,1.669c0.005,-0.084 0.002,-0.168 -0.011,-0.251c-0.233,-0.417 -0.718,-0.776 -1.427,-0.999c-1.647,-0.52 -3.885,-0.116 -4.996,0.901c-0.479,0.438 -0.67,0.919 -0.602,1.366c0.043,0.077 0.095,0.152 0.155,0.225Zm7.996,-5.427l0.03,0.011l-0.03,-0.011Zm6.689,-1.206l-0.02,0.019l0.02,-0.019Zm-6.786,1.172l0.035,0.013l-0.009,-0.003l-0.026,-0.01Zm6.832,-1.219l-0.006,0.007l0.023,-0.024l-0.017,0.017Zm-6.923,1.185l0.036,0.014l-0.014,-0.005l-0.022,-0.009Zm6.984,-1.247l-0.009,0.009l0.023,-0.025l-0.014,0.016Zm-7.072,1.212l0.036,0.014l-0.018,-0.007l-0.018,-0.007Zm7.129,-1.276l-0.011,0.013l0.022,-0.026l-0.011,0.013Zm0.054,-0.063l-0.012,0.015l0.021,-0.026l-0.009,0.011Zm-7.269,1.303l0.036,0.015l-0.021,-0.009l-0.015,-0.006Zm-0.083,-0.038l0.034,0.016l-0.024,-0.011l-0.01,-0.005Zm7.404,-1.329l-0.014,0.017l0.02,-0.025l-0.006,0.008Zm0.052,-0.069l-0.017,0.023l0.017,-0.023Zm-7.536,1.36l0.029,0.014l-0.029,-0.014Zm7.579,-1.421l-0.01,0.015l0.01,-0.015Zm-7.658,1.382l0.019,0.01l-0.019,-0.01Zm7.711,-1.463l-0.012,0.021l0.012,-0.021Zm-7.811,1.41l0.025,0.013l-0.025,-0.013Zm7.84,-1.457l-0.003,0.006l0.015,-0.026l-0.012,0.02Zm-7.919,1.412l0.03,0.017l-0.007,-0.004l-0.023,-0.013Zm7.957,-1.476l-0.006,0.009l0.015,-0.028l-0.009,0.019Zm-8.03,1.432l0.031,0.019l-0.011,-0.006l-0.02,-0.013Zm8.064,-1.497l-0.007,0.012l0.015,-0.029l-0.008,0.017Zm-8.134,1.452l0.032,0.021l-0.015,-0.009l-0.017,-0.012Zm-0.067,-0.044l0.031,0.021l-0.017,-0.012l-0.014,-0.009Zm8.233,-1.474l-0.008,0.017l0.014,-0.03l-0.006,0.013Zm-8.298,1.428l0.031,0.022l-0.02,-0.014l-0.011,-0.008Zm8.326,-1.493l-0.008,0.02l0.013,-0.03l-0.005,0.01Zm-8.388,1.446l0.031,0.024l-0.024,-0.018l-0.007,-0.006Zm8.414,-1.511l-0.009,0.024l0.012,-0.031l-0.003,0.007Zm-8.474,1.464l0.031,0.025l-0.027,-0.022l-0.004,-0.003Zm8.498,-1.529l-0.01,0.028l0.011,-0.032l-0.001,0.004Zm138.037,-24.931l0.006,0.02l-0.006,-0.02Zm-146.59,26.415l0.036,0.029l-0.038,-0.031l-0.033,-0.029l0.035,0.031Zm8.573,-1.549l-0.013,0.04l0.012,-0.038l0.011,-0.039l-0.01,0.037Zm137.998,-24.933l0.003,0.01l-0.009,-0.027l0.006,0.017Zm-137.98,24.868l-0.002,0.007l0.009,-0.038l-0.007,0.031Zm-8.678,1.536l0.033,0.03l-0.006,-0.005l-0.027,-0.025Zm146.629,-26.487l0.005,0.015l-0.01,-0.027l0.005,0.012Zm-146.681,26.437l0.032,0.031l-0.009,-0.009l-0.023,-0.022Zm8.745,-1.552l-0.003,0.012l0.008,-0.039l-0.005,0.027Zm-8.794,1.502l0.031,0.032l-0.013,-0.013l-0.018,-0.019Zm8.806,-1.566l-0.003,0.015l0.006,-0.039l-0.003,0.024Zm137.891,-24.903l0.007,0.018l-0.01,-0.025l0.003,0.007Zm-146.744,26.417l0.03,0.034l-0.016,-0.017l-0.014,-0.017Zm8.862,-1.579l-0.003,0.02l0.005,-0.04l-0.002,0.02Zm137.844,-24.921l0.006,0.014l-0.006,-0.014Zm-146.752,26.448l0.032,0.036l-0.02,-0.022l-0.012,-0.014Zm8.915,-1.592l-0.003,0.026l0.004,-0.042l-0.001,0.016Zm-8.957,1.539l0.032,0.041l-0.024,-0.029l-0.008,-0.012Zm8.961,-1.604l-0.002,0.034l0.002,-0.046l-0,0.012Zm137.784,-24.885l0.01,0.018l-0.01,-0.018Zm-146.749,26.484c-0.595,-0.76 -0.49,-1.721 0.426,-2.56c1.441,-1.319 4.346,-1.843 6.482,-1.169c1.359,0.428 2.082,1.239 2.057,2.112c0.003,-0.114 -0.006,-0.226 -0.028,-0.336c-0.288,-0.567 -0.929,-1.057 -1.883,-1.358c-2.136,-0.673 -5.04,-0.149 -6.481,1.17c-0.644,0.589 -0.887,1.238 -0.769,1.836c0.053,0.104 0.118,0.207 0.196,0.305Zm146.711,-26.549l0.005,0.008l-0.015,-0.026l0.01,0.018Zm-0.05,-0.08l0.009,0.013l-0.018,-0.027l0.009,0.014Zm-0.054,-0.079l0.012,0.017l-0.019,-0.026l0.007,0.009Zm-0.061,-0.082l0.015,0.02l-0.015,-0.02Zm-0.068,-0.082l0.009,0.01l-0.009,-0.01Zm-0.059,-0.067l0.006,0.006l-0.022,-0.023l0.016,0.017Zm-0.07,-0.076l0.01,0.012l-0.025,-0.026l0.015,0.014Zm-0.075,-0.074l0.015,0.015l-0.026,-0.025l0.011,0.01Zm-0.079,-0.073l0.018,0.016l-0.024,-0.022l0.006,0.006Zm-0.084,-0.073l0.004,0.003l-0.004,-0.003Zm-0.086,-0.07l0.006,0.004l-0.027,-0.02l0.021,0.016Zm-0.091,-0.07l0.012,0.009l-0.032,-0.024l0.02,0.015Zm-0.095,-0.069l0.018,0.014l-0.034,-0.024l0.016,0.01Zm-0.099,-0.067l0.023,0.016l-0.033,-0.022l0.01,0.006Zm-0.105,-0.067l0.02,0.013l-0.02,-0.013Zm-0.127,-0.075l0.028,0.015l-0.028,-0.015Zm-0.087,-0.05l0.012,0.007l-0.038,-0.021l0.026,0.014Zm-0.115,-0.062l0.02,0.011l-0.041,-0.021l0.021,0.01Zm-0.118,-0.059l0.027,0.013l-0.041,-0.02l0.014,0.007Zm-0.128,-0.061l0.032,0.015l-0.032,-0.015Zm-0.139,-0.062l0.023,0.01l-0.023,-0.01Zm-0.109,-0.046l0.012,0.005l-0.043,-0.017l0.031,0.012Zm-0.133,-0.053l0.021,0.009l-0.048,-0.019l0.027,0.01Zm-0.137,-0.05l0.029,0.01l-0.048,-0.017l0.019,0.007Zm-0.14,-0.049l0.032,0.011l-0.042,-0.015l0.01,0.004Zm-135.09,21.956c0.039,0.014 0.078,0.027 0.118,0.04l-0.118,-0.04Zm-0.127,-0.047c0.035,0.014 0.071,0.028 0.108,0.041l-0.108,-0.041Zm5.402,-0.974l-0.069,0.072c0.024,-0.024 0.047,-0.048 0.069,-0.072Zm-5.528,0.923c0.035,0.015 0.07,0.029 0.105,0.043l-0.105,-0.043Zm5.605,-1.011l-0.065,0.074c0.023,-0.025 0.044,-0.05 0.065,-0.074Zm-5.716,0.96l0.099,0.045l-0.048,-0.021l-0.051,-0.024Zm5.751,-1.004l-0.028,0.034l0.058,-0.073l-0.03,0.039Zm-5.857,0.951c0.031,0.016 0.064,0.033 0.097,0.049l-0.097,-0.049Zm5.945,-1.073l-0.053,0.076c0.018,-0.025 0.036,-0.051 0.053,-0.076Zm0.055,-0.088l-0.046,0.074c0.016,-0.024 0.032,-0.049 0.046,-0.074Zm-6.107,1.102c0.029,0.017 0.059,0.033 0.09,0.05l-0.09,-0.05Zm-0.103,-0.064c0.028,0.019 0.058,0.037 0.088,0.055l-0.088,-0.055Zm6.26,-1.129l-0.042,0.078c0.015,-0.026 0.029,-0.052 0.042,-0.078Zm-6.347,1.071l0.084,0.057l-0.049,-0.033l-0.035,-0.024Zm6.37,-1.119l-0.022,0.045l0.037,-0.078l-0.015,0.033Zm-6.457,1.054c0.025,0.02 0.051,0.039 0.077,0.058l-0.077,-0.058Zm6.506,-1.174l-0.03,0.078c0.011,-0.026 0.021,-0.052 0.03,-0.078Zm0.03,-0.09l-0.025,0.078c0.009,-0.026 0.017,-0.052 0.025,-0.078Zm-6.621,1.195c0.023,0.02 0.048,0.04 0.073,0.06l-0.073,-0.06Zm6.657,-1.366l-0.014,0.082l-0.02,0.082c0.015,-0.055 0.026,-0.109 0.034,-0.164Zm-6.735,1.295l-0.066,-0.068c0.042,0.046 0.088,0.09 0.137,0.133l-0.071,-0.065Zm6.744,-1.382l-0.008,0.08c0.004,-0.027 0.006,-0.054 0.008,-0.08Zm-6.876,1.24c0.019,0.023 0.039,0.046 0.06,0.069l-0.06,-0.069Zm-0.159,-0.23c-0.309,-0.551 -0.177,-1.205 0.455,-1.784c1.111,-1.017 3.35,-1.421 4.997,-0.902c1.069,0.337 1.627,0.981 1.583,1.67c0.006,-0.085 0.002,-0.169 -0.011,-0.251c-0.233,-0.418 -0.717,-0.776 -1.426,-1c-1.647,-0.519 -3.886,-0.115 -4.997,0.902c-0.478,0.438 -0.67,0.918 -0.601,1.365Zm0.046,0.078l-0.046,-0.078c0.043,0.077 0.095,0.153 0.155,0.225l-0.056,-0.071c-0.018,-0.026 -0.035,-0.051 -0.053,-0.076Zm8.558,-5.798c0.039,0.014 0.078,0.027 0.119,0.039l-0.119,-0.039Zm5.275,-1.022l-0.069,0.073c0.024,-0.024 0.047,-0.048 0.069,-0.073Zm-5.402,0.975c0.036,0.014 0.072,0.027 0.109,0.04l-0.109,-0.04Zm-0.125,-0.052c0.034,0.015 0.069,0.03 0.105,0.044l-0.105,-0.044Zm5.604,-1.011l-0.064,0.074c0.022,-0.024 0.043,-0.049 0.064,-0.074Zm0.035,-0.043l-0.028,0.034l0.058,-0.074l-0.03,0.04Zm-5.751,1.004l0.099,0.045l-0.047,-0.021l-0.052,-0.024Zm-0.106,-0.054c0.032,0.017 0.064,0.033 0.097,0.049l-0.097,-0.049Zm5.945,-1.072l-0.053,0.076c0.019,-0.026 0.036,-0.051 0.053,-0.076Zm0.056,-0.089l-0.047,0.075c0.017,-0.025 0.032,-0.05 0.047,-0.075Zm-6.108,1.102c0.029,0.017 0.06,0.034 0.09,0.051l-0.09,-0.051Zm6.157,-1.192l-0.042,0.078c0.015,-0.026 0.029,-0.052 0.042,-0.078Zm-6.26,1.129c0.029,0.018 0.058,0.037 0.088,0.055l-0.088,-0.055Zm-0.087,-0.058l0.084,0.056l-0.049,-0.032l-0.035,-0.024Zm6.371,-1.119l-0.022,0.045l0.036,-0.078l-0.014,0.033Zm-6.458,1.054c0.025,0.02 0.051,0.039 0.078,0.058l-0.078,-0.058Zm6.507,-1.174l-0.031,0.077c0.011,-0.025 0.021,-0.051 0.031,-0.077Zm0.029,-0.09l-0.025,0.078c0.009,-0.026 0.017,-0.052 0.025,-0.078Zm-6.621,1.194c0.024,0.021 0.048,0.041 0.073,0.061l-0.073,-0.061Zm6.657,-1.365l-0.014,0.082l-0.02,0.082c0.015,-0.055 0.026,-0.11 0.034,-0.164Zm-6.735,1.294l-0.066,-0.067c0.042,0.045 0.088,0.09 0.138,0.133l-0.072,-0.066Zm-0.132,-0.141c0.02,0.023 0.04,0.046 0.06,0.068l-0.06,-0.068Zm6.876,-1.241l-0.008,0.081c0.004,-0.027 0.007,-0.054 0.008,-0.081Zm-6.88,1.236c-0.49,-0.592 -0.421,-1.349 0.3,-2.01c1.111,-1.017 3.35,-1.421 4.997,-0.901c1.069,0.337 1.627,0.981 1.584,1.669c0.005,-0.084 0.001,-0.168 -0.011,-0.251c-0.233,-0.417 -0.718,-0.776 -1.427,-0.999c-1.647,-0.52 -3.886,-0.116 -4.997,0.901c-0.478,0.438 -0.67,0.919 -0.601,1.366c0.043,0.077 0.095,0.152 0.155,0.225Zm8.449,-5.945c0.039,0.013 0.079,0.026 0.119,0.039l-0.119,-0.039Zm-0.127,-0.047c0.036,0.014 0.072,0.027 0.109,0.04l-0.109,-0.04Zm5.402,-0.975l-0.069,0.072c0.024,-0.024 0.047,-0.048 0.069,-0.072Zm-5.527,0.923c0.034,0.015 0.069,0.03 0.105,0.044l-0.105,-0.044Zm5.604,-1.011l-0.064,0.074c0.022,-0.025 0.044,-0.049 0.064,-0.074Zm0.035,-0.044l-0.027,0.035l0.057,-0.074l-0.03,0.039Zm-5.751,1.004l0.099,0.046l-0.047,-0.021l-0.052,-0.025Zm-0.106,-0.053c0.032,0.017 0.064,0.033 0.097,0.049l-0.097,-0.049Zm5.945,-1.073l-0.053,0.076c0.019,-0.025 0.037,-0.05 0.053,-0.076Zm0.056,-0.088l-0.047,0.075c0.017,-0.025 0.032,-0.05 0.047,-0.075Zm-6.108,1.102c0.03,0.017 0.06,0.034 0.091,0.05l-0.091,-0.05Zm-0.103,-0.063c0.029,0.018 0.058,0.036 0.089,0.054l-0.089,-0.054Zm6.261,-1.13l-0.043,0.078c0.015,-0.026 0.029,-0.052 0.043,-0.078Zm-6.348,1.071l0.084,0.057l-0.049,-0.033l-0.035,-0.024Zm6.371,-1.119l-0.022,0.046l0.036,-0.079l-0.014,0.033Zm-6.458,1.055c0.025,0.019 0.051,0.039 0.078,0.058l-0.078,-0.058Zm6.507,-1.174l-0.031,0.077c0.011,-0.026 0.022,-0.052 0.031,-0.077Zm0.029,-0.091l-0.025,0.079c0.009,-0.026 0.018,-0.052 0.025,-0.079Zm-6.621,1.195c0.024,0.02 0.048,0.041 0.074,0.061l-0.074,-0.061Zm6.657,-1.366l-0.014,0.083l-0.02,0.081c0.015,-0.054 0.027,-0.109 0.034,-0.164Zm-6.734,1.295l-0.067,-0.067c0.043,0.045 0.089,0.089 0.138,0.132l-0.071,-0.065Zm-0.132,-0.141c0.019,0.023 0.039,0.045 0.06,0.068l-0.06,-0.068Zm6.876,-1.241l-0.009,0.081c0.004,-0.027 0.007,-0.054 0.009,-0.081Zm-7.036,1.011c-0.308,-0.552 -0.177,-1.206 0.456,-1.785c1.11,-1.017 3.349,-1.421 4.996,-0.901c1.069,0.337 1.628,0.981 1.584,1.669c0.005,-0.084 0.002,-0.168 -0.011,-0.251c-0.233,-0.417 -0.718,-0.776 -1.427,-1c-1.647,-0.519 -3.885,-0.115 -4.996,0.902c-0.479,0.438 -0.67,0.919 -0.602,1.366Zm0.047,0.077l-0.047,-0.077c0.043,0.077 0.095,0.152 0.155,0.225l-0.056,-0.072c-0.017,-0.025 -0.035,-0.051 -0.052,-0.076Zm14.637,-6.46l-0.02,0.019l0.02,-0.019Zm-6.68,1.205l0.031,0.011l-0.031,-0.011Zm-0.097,-0.034l0.036,0.013l-0.01,-0.004l-0.026,-0.009Zm6.823,-1.217l-0.006,0.006l0.023,-0.023l-0.017,0.017Zm0.061,-0.063l-0.009,0.009l0.023,-0.024l-0.014,0.015Zm-6.975,1.246l0.037,0.014l-0.014,-0.005l-0.023,-0.009Zm7.032,-1.309l-0.011,0.012l0.022,-0.025l-0.011,0.013Zm-7.12,1.274l0.037,0.014l-0.018,-0.007l-0.019,-0.007Zm7.174,-1.337l-0.012,0.014l0.021,-0.025l-0.009,0.011Zm-7.259,1.301l0.035,0.015l-0.021,-0.009l-0.014,-0.006Zm7.311,-1.365l-0.014,0.017l0.019,-0.025l-0.005,0.008Zm-7.394,1.327l0.033,0.015l-0.023,-0.01l-0.01,-0.005Zm-0.08,-0.038l0.029,0.014l-0.029,-0.014Zm7.525,-1.357l-0.016,0.022l0.016,-0.022Zm0.044,-0.062l-0.01,0.014l0.01,-0.014Zm-7.648,1.38l0.017,0.009l-0.017,-0.009Zm-0.098,-0.052l0.023,0.012l-0.023,-0.012Zm7.798,-1.407l-0.012,0.019l0.012,-0.019Zm-7.878,1.362l0.029,0.016l-0.007,-0.004l-0.022,-0.012Zm7.908,-1.41l-0.004,0.005l0.015,-0.024l-0.011,0.019Zm0.037,-0.065l-0.005,0.009l0.014,-0.027l-0.009,0.018Zm-8.018,1.431l0.03,0.018l-0.01,-0.006l-0.02,-0.012Zm-0.07,-0.045l0.03,0.02l-0.013,-0.009l-0.017,-0.011Zm8.122,-1.451l-0.006,0.012l0.014,-0.027l-0.008,0.015Zm-8.189,1.407l0.03,0.02l-0.017,-0.011l-0.013,-0.009Zm8.221,-1.472l-0.007,0.015l0.013,-0.028l-0.006,0.013Zm-8.286,1.426l0.029,0.021l-0.019,-0.014l-0.01,-0.007Zm8.315,-1.491l-0.008,0.018l0.012,-0.028l-0.004,0.01Zm-8.377,1.445l0.028,0.021l-0.021,-0.016l-0.007,-0.005Zm8.403,-1.51l-0.009,0.021l0.011,-0.028l-0.002,0.007Zm-8.463,1.462l0.026,0.021l-0.026,-0.021Zm8.487,-1.531l-0.009,0.027l0.009,-0.027Zm-8.542,1.485l0.01,0.009l-0.012,-0.01l-0.025,-0.022l0.027,0.023Zm8.561,-1.547l-0.004,0.013l0.004,-0.01l0.008,-0.03l-0.008,0.027Zm-8.645,1.473l0.029,0.026l-0.006,-0.005l-0.023,-0.021Zm8.663,-1.538l-0.002,0.007l0.008,-0.033l-0.006,0.026Zm-8.715,1.487l0.028,0.028l-0.008,-0.008l-0.02,-0.02Zm8.73,-1.552l-0.003,0.011l0.007,-0.035l-0.004,0.024Zm0.012,-0.064l-0.003,0.014l0.006,-0.036l-0.003,0.022Zm-8.792,1.565l0.028,0.03l-0.012,-0.012l-0.016,-0.018Zm-0.048,-0.051l0.028,0.031l-0.014,-0.016l-0.014,-0.015Zm8.849,-1.579l-0.002,0.018l0.004,-0.036l-0.002,0.018Zm-8.894,1.527l0.028,0.033l-0.018,-0.021l-0.01,-0.012Zm8.901,-1.592l-0.002,0.024l0.003,-0.039l-0.001,0.015Zm-8.944,1.539l0.029,0.036l-0.021,-0.026l-0.008,-0.01Zm8.948,-1.603l-0.002,0.03l0.002,-0.042l-0,0.012Zm-8.956,1.593c-0.591,-0.76 -0.485,-1.717 0.429,-2.553c1.439,-1.318 4.34,-1.841 6.473,-1.168c1.355,0.427 2.077,1.235 2.054,2.105c0.003,-0.112 -0.006,-0.223 -0.028,-0.331c-0.287,-0.566 -0.927,-1.055 -1.88,-1.355c-2.133,-0.673 -5.034,-0.15 -6.473,1.168c-0.642,0.588 -0.885,1.236 -0.768,1.832c0.053,0.104 0.117,0.204 0.193,0.302Zm9.46,-6.211l0.118,0.04l-0.076,-0.025l-0.042,-0.015Zm-0.127,-0.047c0.035,0.014 0.071,0.027 0.108,0.04l-0.108,-0.04Zm5.402,-0.975l-0.069,0.073c0.024,-0.024 0.047,-0.048 0.069,-0.073Zm-5.528,0.924c0.035,0.014 0.07,0.029 0.105,0.043l-0.105,-0.043Zm5.605,-1.012l-0.065,0.074c0.023,-0.024 0.044,-0.049 0.065,-0.074Zm-5.716,0.961l0.099,0.045l-0.048,-0.021l-0.051,-0.024Zm5.751,-1.004l-0.028,0.034l0.058,-0.073l-0.03,0.039Zm-5.857,0.95c0.031,0.017 0.064,0.034 0.097,0.049l-0.097,-0.049Zm5.945,-1.072l-0.053,0.076c0.018,-0.026 0.036,-0.051 0.053,-0.076Zm0.055,-0.089l-0.046,0.075c0.016,-0.025 0.032,-0.05 0.046,-0.075Zm-6.107,1.102c0.029,0.017 0.059,0.034 0.09,0.051l-0.09,-0.051Zm-0.103,-0.063c0.028,0.019 0.058,0.037 0.088,0.055l-0.088,-0.055Zm6.26,-1.129l-0.042,0.078c0.015,-0.026 0.029,-0.052 0.042,-0.078Zm-6.347,1.071l0.084,0.056l-0.049,-0.032l-0.035,-0.024Zm6.37,-1.119l-0.022,0.045l0.037,-0.078l-0.015,0.033Zm-6.457,1.054c0.025,0.02 0.051,0.039 0.077,0.058l-0.077,-0.058Zm6.506,-1.174l-0.03,0.077c0.011,-0.025 0.021,-0.051 0.03,-0.077Zm0.03,-0.09l-0.025,0.078c0.009,-0.026 0.017,-0.052 0.025,-0.078Zm-6.621,1.194c0.023,0.021 0.048,0.041 0.073,0.061l-0.073,-0.061Zm6.657,-1.365l-0.014,0.082l-0.02,0.082c0.015,-0.055 0.026,-0.11 0.034,-0.164Zm-6.735,1.295l-0.066,-0.068c0.042,0.045 0.088,0.09 0.137,0.133l-0.071,-0.065Zm6.744,-1.382l-0.008,0.08c0.004,-0.027 0.006,-0.054 0.008,-0.08Zm-6.876,1.24c0.019,0.023 0.039,0.046 0.06,0.068l-0.06,-0.068Zm-0.004,-0.005c-0.491,-0.592 -0.421,-1.349 0.3,-2.009c1.111,-1.017 3.35,-1.421 4.997,-0.902c1.069,0.337 1.627,0.981 1.583,1.67c0.006,-0.085 0.002,-0.169 -0.011,-0.252c-0.233,-0.417 -0.717,-0.775 -1.426,-0.999c-1.647,-0.52 -3.886,-0.116 -4.997,0.901c-0.478,0.438 -0.67,0.919 -0.601,1.366c0.043,0.077 0.095,0.152 0.155,0.225Zm8.449,-5.945l0.119,0.039l-0.077,-0.025l-0.042,-0.014Zm5.275,-1.022l-0.069,0.073c0.024,-0.024 0.047,-0.049 0.069,-0.073Zm-5.402,0.975c0.036,0.014 0.072,0.027 0.109,0.04l-0.109,-0.04Zm-0.125,-0.052c0.034,0.015 0.069,0.03 0.105,0.044l-0.105,-0.044Zm5.604,-1.011l-0.064,0.074c0.022,-0.024 0.043,-0.049 0.064,-0.074Zm0.035,-0.044l-0.028,0.035l0.058,-0.074l-0.03,0.039Zm-5.751,1.004l0.099,0.046l-0.047,-0.021l-0.052,-0.025Zm-0.106,-0.053c0.032,0.017 0.064,0.033 0.097,0.049l-0.097,-0.049Zm5.945,-1.073l-0.053,0.076c0.019,-0.025 0.036,-0.05 0.053,-0.076Zm0.056,-0.088l-0.047,0.075c0.017,-0.025 0.032,-0.05 0.047,-0.075Zm-6.108,1.102c0.029,0.017 0.06,0.034 0.09,0.05l-0.09,-0.05Zm6.157,-1.193l-0.042,0.078c0.015,-0.025 0.029,-0.052 0.042,-0.078Zm-6.26,1.13c0.029,0.018 0.058,0.037 0.088,0.054l-0.088,-0.054Zm6.284,-1.178l-0.022,0.046l0.036,-0.079l-0.014,0.033Zm-6.371,1.119l0.084,0.057l-0.049,-0.032l-0.035,-0.025Zm-0.087,-0.064c0.025,0.019 0.051,0.039 0.078,0.058l-0.078,-0.058Zm6.507,-1.174l-0.031,0.077c0.011,-0.026 0.021,-0.051 0.031,-0.077Zm0.029,-0.09l-0.025,0.078c0.009,-0.026 0.017,-0.052 0.025,-0.078Zm-6.621,1.194c0.024,0.021 0.048,0.041 0.073,0.061l-0.073,-0.061Zm6.657,-1.365l-0.014,0.082l-0.02,0.081c0.015,-0.054 0.026,-0.109 0.034,-0.163Zm-6.735,1.294l-0.066,-0.067c0.042,0.045 0.088,0.089 0.138,0.133l-0.072,-0.066Zm-0.132,-0.141c0.02,0.023 0.04,0.046 0.06,0.068l-0.06,-0.068Zm6.876,-1.241l-0.008,0.081c0.004,-0.027 0.007,-0.054 0.008,-0.081Zm-6.88,1.236c-0.49,-0.592 -0.421,-1.35 0.3,-2.01c1.111,-1.017 3.35,-1.421 4.997,-0.901c1.069,0.337 1.627,0.981 1.584,1.669c0.005,-0.084 0.001,-0.168 -0.011,-0.251c-0.233,-0.417 -0.718,-0.776 -1.427,-0.999c-1.647,-0.52 -3.886,-0.116 -4.997,0.901c-0.478,0.438 -0.67,0.919 -0.601,1.366c0.043,0.077 0.095,0.152 0.155,0.225Zm8.449,-5.946l0.119,0.04l-0.076,-0.025l-0.043,-0.015Zm5.275,-1.021l-0.069,0.072c0.024,-0.024 0.047,-0.048 0.069,-0.072Zm-5.402,0.974c0.036,0.014 0.072,0.028 0.109,0.041l-0.109,-0.041Zm-0.125,-0.051c0.034,0.015 0.069,0.029 0.105,0.043l-0.105,-0.043Zm5.604,-1.011l-0.064,0.074c0.022,-0.025 0.044,-0.049 0.064,-0.074Zm0.035,-0.044l-0.027,0.035l0.057,-0.074l-0.03,0.039Zm-5.751,1.004l0.099,0.045l-0.047,-0.021l-0.052,-0.024Zm-0.106,-0.053c0.032,0.017 0.064,0.033 0.097,0.049l-0.097,-0.049Zm5.945,-1.073l-0.053,0.076c0.019,-0.025 0.037,-0.05 0.053,-0.076Zm0.056,-0.088l-0.047,0.075c0.017,-0.025 0.032,-0.05 0.047,-0.075Zm-6.108,1.102c0.03,0.017 0.06,0.034 0.091,0.05l-0.091,-0.05Zm6.158,-1.193l-0.043,0.078c0.015,-0.026 0.029,-0.052 0.043,-0.078Zm-6.261,1.13c0.029,0.018 0.058,0.036 0.089,0.054l-0.089,-0.054Zm6.284,-1.178l-0.022,0.045l0.036,-0.078l-0.014,0.033Zm-6.371,1.119l0.084,0.057l-0.049,-0.033l-0.035,-0.024Zm6.42,-1.239l-0.031,0.078c0.011,-0.026 0.022,-0.052 0.031,-0.078Zm-6.507,1.174c0.025,0.02 0.051,0.039 0.078,0.058l-0.078,-0.058Zm6.536,-1.264l-0.025,0.078c0.009,-0.026 0.018,-0.052 0.025,-0.078Zm-6.621,1.195c0.024,0.02 0.048,0.04 0.074,0.06l-0.074,-0.06Zm6.657,-1.366l-0.014,0.082l-0.02,0.082c0.015,-0.055 0.027,-0.109 0.034,-0.164Zm-6.734,1.295l-0.067,-0.067c0.043,0.045 0.089,0.089 0.138,0.132l-0.071,-0.065Zm-0.132,-0.141c0.019,0.023 0.039,0.045 0.06,0.068l-0.06,-0.068Zm6.876,-1.241l-0.009,0.08c0.004,-0.026 0.007,-0.053 0.009,-0.08Zm-7.036,1.01c-0.308,-0.551 -0.177,-1.205 0.456,-1.784c1.11,-1.017 3.349,-1.421 4.996,-0.902c1.069,0.338 1.628,0.981 1.584,1.67c0.005,-0.085 0.002,-0.168 -0.011,-0.251c-0.233,-0.417 -0.718,-0.776 -1.427,-1c-1.647,-0.519 -3.885,-0.115 -4.996,0.902c-0.479,0.438 -0.67,0.918 -0.602,1.365Zm0.047,0.078l-0.047,-0.078c0.043,0.078 0.095,0.153 0.155,0.225l-0.056,-0.071c-0.017,-0.025 -0.035,-0.051 -0.052,-0.076Zm-66.507,66.748l-0.079,0.075c0.027,-0.025 0.053,-0.049 0.079,-0.075Zm7.296,-6.68l-0.079,0.075c0.027,-0.025 0.054,-0.05 0.079,-0.075Zm7.296,-6.68l-0.079,0.075c0.028,-0.025 0.054,-0.05 0.079,-0.075Zm14.593,-13.361l-0.079,0.075c0.027,-0.025 0.053,-0.05 0.079,-0.075Zm7.296,-6.68l-0.079,0.075c0.027,-0.025 0.054,-0.05 0.079,-0.075Zm7.296,-6.681l-0.079,0.076c0.028,-0.025 0.054,-0.05 0.079,-0.076Zm14.592,-13.36l-0.078,0.075c0.027,-0.025 0.053,-0.05 0.078,-0.075Zm7.297,-6.68l-0.079,0.075c0.027,-0.025 0.054,-0.05 0.079,-0.075Zm7.296,-6.681l-0.079,0.075c0.028,-0.024 0.054,-0.049 0.079,-0.075Z" style="fill:#939393;fill-opacity:0.19;"/><path d="M30.313,125.678l74.157,23.391" style="fill:none;stroke:#848484;stroke-opacity:0.44;stroke-width:0.5px;"/><path d="M34.859,121.517l74.157,23.39" style="fill:none;stroke:#848484;stroke-opacity:0.44;stroke-width:0.2px;"/><path d="M39.056,117.674l74.157,23.39" style="fill:none;stroke:#848484;stroke-opacity:0.44;stroke-width:0.2px;"/><path d="M43.253,113.831l74.157,23.39" style="fill:none;stroke:#848484;stroke-opacity:0.44;stroke-width:0.2px;"/><path d="M47.45,109.988l74.157,23.39" style="fill:none;stroke:#848484;stroke-opacity:0.44;stroke-width:0.2px;"/><path d="M51.648,106.145l74.157,23.39" style="fill:none;stroke:#848484;stroke-opacity:0.44;stroke-width:0.2px;"/><path d="M55.845,102.302l74.157,23.39" style="fill:none;stroke:#848484;stroke-opacity:0.44;stroke-width:0.2px;"/><path d="M60.042,98.459l74.157,23.39" style="fill:none;stroke:#848484;stroke-opacity:0.44;stroke-width:0.2px;"/><path d="M64.24,94.616l74.157,23.39" style="fill:none;stroke:#848484;stroke-opacity:0.44;stroke-width:0.2px;"/><path d="M68.437,90.773l74.157,23.391" style="fill:none;stroke:#848484;stroke-opacity:0.44;stroke-width:0.2px;"/><path d="M72.634,86.93l74.157,23.391" style="fill:none;stroke:#848484;stroke-opacity:0.44;stroke-width:0.2px;"/><path d="M76.831,83.087l74.157,23.391" style="fill:none;stroke:#848484;stroke-opacity:0.44;stroke-width:0.2px;"/><path d="M81.029,79.244l74.157,23.391" style="fill:none;stroke:#848484;stroke-opacity:0.44;stroke-width:0.2px;"/><path d="M85.226,75.401l74.157,23.391" style="fill:none;stroke:#848484;stroke-opacity:0.44;stroke-width:0.2px;"/><path d="M89.423,71.558l74.157,23.391" style="fill:none;stroke:#848484;stroke-opacity:0.44;stroke-width:0.2px;"/><path d="M93.62,67.715l74.158,23.391" style="fill:none;stroke:#848484;stroke-opacity:0.44;stroke-width:0.2px;"/><path d="M103.841,58.186l74.158,23.39" style="fill:none;stroke:#848484;stroke-opacity:0.44;stroke-width:0.5px;"/><path d="M97.831,63.689l74.157,23.39" style="fill:none;stroke:#848484;stroke-opacity:0.44;stroke-width:0.5px;"/></g></svg>