<?xml version="1.0" encoding="UTF-8" standalone="no"?><!DOCTYPE svg PUBLIC "-//W3C//DTD SVG 1.1//EN" "http://www.w3.org/Graphics/SVG/1.1/DTD/svg11.dtd"><svg width="100%" height="100%" viewBox="0 0 200 200" version="1.1" xmlns="http://www.w3.org/2000/svg" xmlns:xlink="http://www.w3.org/1999/xlink" xml:space="preserve" xmlns:serif="http://www.serif.com/" style="fill-rule:evenodd;clip-rule:evenodd;stroke-linejoin:round;stroke-miterlimit:2;"><path d="M128.477,33.361c-29.108,-7.096 -59.544,4.384 -75.821,47.222c15.867,47.167 11.521,82.614 13.725,100.269c22.161,-35.24 65.018,-52.646 87.272,-55.617c-13.741,-5.706 -20.82,-29.29 -25.176,-91.874Z" style="fill:#ffffff;"/><g><path d="M91.802,43.532c3.332,-0.797 6.969,2.193 8.264,7.36c1.294,5.167 -0.498,9.672 -3.572,11.365c-4.181,2.303 -10.043,1.081 -11.338,-4.086c-1.295,-5.167 2.018,-13.532 6.646,-14.639Z" style="fill:#151515;"/><path d="M91.802,43.532c3.266,-1.105 6.969,2.193 8.264,7.36c1.294,5.167 -0.306,10.26 -3.572,11.365c-3.266,1.105 -6.969,-2.193 -8.264,-7.36c-1.295,-5.167 0.306,-10.26 3.572,-11.365Z" style="fill:#747474;fill-opacity:0.36;"/></g></svg>
