<?xml version="1.0" encoding="UTF-8" standalone="no"?><!DOCTYPE svg PUBLIC "-//W3C//DTD SVG 1.1//EN" "http://www.w3.org/Graphics/SVG/1.1/DTD/svg11.dtd"><svg width="100%" height="100%" viewBox="0 0 200 200" version="1.1" xmlns="http://www.w3.org/2000/svg" xmlns:xlink="http://www.w3.org/1999/xlink" xml:space="preserve" xmlns:serif="http://www.serif.com/" style="fill-rule:evenodd;clip-rule:evenodd;stroke-linecap:round;stroke-linejoin:round;stroke-miterlimit:1.5;"><path d="M131.281,92.544c-2.845,-1.642 -7.154,-1.821 -9.618,-0.398l-98.204,56.698c-2.463,1.422 -2.154,3.91 0.691,5.552l61.003,35.221c2.844,1.642 7.154,1.821 9.617,0.398l98.205,-56.698c2.463,-1.422 2.154,-3.91 -0.691,-5.552l-61.003,-35.221Z" style="fill:#eaeaea;stroke:#000;stroke-width:0.1px;"/><path d="M194.635,130.811c-0.007,1.039 -0.523,1.735 -1.281,2.268l-98.515,56.903c-0,0 -1.591,1.034 -4.4,0.998c-2.871,-0.037 -4.845,-1.13 -4.845,-1.13l-61.765,-35.659c-0,-0 -0.927,-0.61 -1.377,-1.201c-0.63,-0.827 -0.668,-1.63 -0.668,-1.63c-0.021,2.053 0.374,4.404 2.366,5.586l61.003,35.221c2.844,1.642 7.154,1.821 9.617,0.398l98.205,-56.698c1.16,-1.354 1.72,-2.348 1.66,-5.056Z" style="fill:#eaeaea;stroke:#000;stroke-width:0.1px;"/><path d="M122.728,95.086c-0.356,-0.205 -0.894,-0.228 -1.202,-0.05l-93.273,53.851c-0.308,0.178 -0.269,0.489 0.087,0.694l39.476,22.792c0.356,0.205 0.894,0.228 1.202,0.05l93.273,-53.851c0.308,-0.178 0.269,-0.489 -0.087,-0.694l-39.476,-22.792Z" style="fill:#bebebe;stroke:#000;stroke-width:0.1px;"/><path d="M113.012,9.751c-0.491,-3.001 -2.889,-4.283 -5.353,-2.861l-98.037,56.602c-2.463,1.422 -4.065,5.013 -3.574,8.015l12.149,74.325c0.491,3.002 2.889,4.284 5.353,2.861l98.036,-56.601c2.464,-1.422 4.066,-5.014 3.575,-8.015l-12.149,-74.326Z" style="fill:#eaeaea;stroke:#000;stroke-width:0.1px;"/><path d="M5.463,71.58c-0.122,-1.807 -0.065,-2.089 0.078,-2.659c0.698,-2.785 2.251,-3.838 2.251,-3.838c-1.231,1.825 -1.919,3.368 -1.82,5.919l12.212,74.785c0.165,1.303 0.962,3.143 3.139,3.507c-0.486,0.054 -1.498,-0.117 -2.217,-0.677c-1.653,-1.288 -1.842,-3.043 -1.842,-3.043l-11.801,-73.994Z" style="fill:#eaeaea;stroke:#000;stroke-width:0.1px;"/><g><path d="M194.635,130.811c-0.007,1.039 -0.523,1.735 -1.281,2.268l-98.515,56.903c-0,0 -1.591,1.034 -4.4,0.998c-2.871,-0.037 -4.845,-1.13 -4.845,-1.13l-61.765,-35.659c-0,-0 -0.927,-0.61 -1.377,-1.201c-0.63,-0.827 -0.668,-1.63 -0.668,-1.63c-0.021,2.053 0.374,4.404 2.366,5.586l61.003,35.221c2.844,1.642 7.154,1.821 9.617,0.398l98.205,-56.698c1.16,-1.354 1.72,-2.348 1.66,-5.056Z" style="fill:#808080;fill-opacity:0.42;stroke:#000;stroke-width:0.1px;"/><path d="M5.463,71.58c-0.122,-1.807 -0.065,-2.089 0.078,-2.659c0.698,-2.785 2.251,-3.838 2.251,-3.838c-1.231,1.825 -1.919,3.368 -1.82,5.919l12.212,74.785c0.165,1.303 0.962,3.143 3.139,3.507c-0.486,0.054 -1.498,-0.117 -2.217,-0.677c-1.653,-1.288 -1.842,-3.043 -1.842,-3.043l-11.801,-73.994Z" style="fill:#808080;fill-opacity:0.42;stroke:#000;stroke-width:0.1px;"/></g><path d="M112.308,10.375c-0.43,-2.626 -2.528,-3.748 -4.683,-2.503l-97.753,56.437c-2.155,1.244 -3.557,4.387 -3.127,7.013l12.093,73.987c0.43,2.626 2.528,3.747 4.684,2.503l97.752,-56.437c2.155,-1.245 3.557,-4.387 3.128,-7.013l-12.094,-73.987Z" style="fill:#0b0b0b;stroke:#000;stroke-width:0.1px;"/><path d="M60.284,38.567c0.382,-0.221 0.753,-0.029 0.827,0.427c0.075,0.456 -0.175,1.005 -0.557,1.226c-0.382,0.22 -0.752,0.029 -0.827,-0.427c-0.074,-0.456 0.175,-1.006 0.557,-1.226Z" style="fill:none;stroke:#000;stroke-width:0.1px;"/><path d="M109.956,14.942l-99.108,57.22l11.692,71.528l99.109,-57.22l-11.693,-71.528Z" style="fill:#bbcdd3;stroke:#000;stroke-width:0.1px;"/><path d="M137.974,137.713c-0.711,-0.411 -1.788,-0.455 -2.404,-0.1l-33.505,19.345c-0.616,0.355 -0.539,0.977 0.172,1.388l18.993,10.966c0.712,0.41 1.789,0.455 2.405,0.099l33.505,-19.344c0.616,-0.356 0.539,-0.978 -0.172,-1.388l-18.994,-10.966Z" style="fill:#bebebe;stroke:#000;stroke-width:0.1px;"/><path d="M137.974,138.218c-0.711,-0.41 -1.788,-0.455 -2.404,-0.099l-33.505,19.344c-0.291,0.177 -0.357,0.354 -0.357,0.354c-0,-0 0.075,0.302 0.776,0.681l18.795,10.848c0.55,0.286 1.489,0.449 2.226,0.136l33.312,-19.23c0.617,-0.319 0.681,-0.54 0.681,-0.54c-0,-0 -0.056,-0.234 -0.53,-0.528l-18.994,-10.966Z" style="fill:#eaeaea;stroke:#000;stroke-width:0.1px;"/><g><g><path d="M40.536,153.993c-0.282,0.151 -0.506,0.049 -0.647,-0.022c0,0 -4.963,-2.866 -5.075,-2.932c-0.133,-0.079 -0.134,-0.197 -0.134,-0.197c0.001,0.08 -0.028,0.669 0.149,0.772l5.075,2.929c0.177,0.103 0.447,0.114 0.601,0.025l5.158,-2.978c0.154,-0.089 0.132,-0.523 0.1,-0.759c0,-0 0.023,0.118 -0.069,0.172c-0.866,0.509 -5.158,2.99 -5.158,2.99Z" style="fill:#0f0f0f;stroke:#000;stroke-width:0.1px;"/><path d="M47.67,149.875c-0.282,0.152 -0.506,0.049 -0.646,-0.021c-0,-0 -4.964,-2.866 -5.076,-2.933c-0.132,-0.078 -0.134,-0.197 -0.134,-0.197c0.001,0.081 -0.028,0.67 0.15,0.772l5.074,2.93c0.178,0.102 0.447,0.114 0.601,0.025l5.158,-2.978c0.154,-0.089 0.132,-0.523 0.101,-0.76c-0,0 0.023,0.118 -0.07,0.173c-0.865,0.508 -5.158,2.989 -5.158,2.989Z" style="fill:#0f0f0f;stroke:#000;stroke-width:0.1px;"/><path d="M54.805,145.758c-0.283,0.151 -0.506,0.049 -0.647,-0.022c0,0 -4.964,-2.866 -5.076,-2.932c-0.132,-0.079 -0.133,-0.197 -0.133,-0.197c0.001,0.081 -0.029,0.669 0.149,0.772l5.074,2.929c0.178,0.103 0.447,0.114 0.601,0.025l5.158,-2.978c0.154,-0.089 0.132,-0.523 0.101,-0.759c-0,0 0.023,0.118 -0.07,0.172c-0.865,0.509 -5.157,2.99 -5.157,2.99Z" style="fill:#0f0f0f;stroke:#000;stroke-width:0.1px;"/><path d="M61.939,141.64c-0.282,0.152 -0.506,0.049 -0.647,-0.021c0,-0 -4.963,-2.866 -5.075,-2.933c-0.133,-0.078 -0.134,-0.197 -0.134,-0.197c0.001,0.081 -0.028,0.67 0.149,0.772l5.075,2.93c0.177,0.102 0.447,0.114 0.601,0.025l5.158,-2.978c0.154,-0.089 0.132,-0.523 0.1,-0.759c0,-0 0.023,0.117 -0.069,0.172c-0.866,0.508 -5.158,2.989 -5.158,2.989Z" style="fill:#0f0f0f;stroke:#000;stroke-width:0.1px;"/><path d="M69.073,137.523c-0.282,0.151 -0.506,0.049 -0.646,-0.022c-0,0 -4.964,-2.866 -5.076,-2.932c-0.132,-0.079 -0.134,-0.197 -0.134,-0.197c0.001,0.081 -0.028,0.669 0.15,0.772l5.074,2.929c0.178,0.103 0.447,0.114 0.601,0.025l5.158,-2.978c0.154,-0.089 0.132,-0.523 0.101,-0.759c-0,0 0.023,0.118 -0.07,0.172c-0.865,0.509 -5.158,2.99 -5.158,2.99Z" style="fill:#0f0f0f;stroke:#000;stroke-width:0.1px;"/><path d="M76.208,133.405c-0.283,0.152 -0.506,0.049 -0.647,-0.021c0,-0 -4.964,-2.866 -5.076,-2.933c-0.132,-0.078 -0.133,-0.197 -0.133,-0.197c0.001,0.081 -0.029,0.67 0.149,0.772l5.074,2.93c0.178,0.102 0.447,0.114 0.601,0.025l5.158,-2.978c0.154,-0.089 0.132,-0.523 0.101,-0.759c-0,-0 0.023,0.117 -0.07,0.172c-0.865,0.508 -5.157,2.989 -5.157,2.989Z" style="fill:#0f0f0f;stroke:#000;stroke-width:0.1px;"/><path d="M83.342,129.288c-0.282,0.151 -0.506,0.049 -0.647,-0.022c0,0 -4.963,-2.866 -5.075,-2.932c-0.133,-0.079 -0.134,-0.197 -0.134,-0.197c0.001,0.081 -0.028,0.669 0.15,0.772l5.074,2.929c0.177,0.103 0.447,0.114 0.601,0.025l5.158,-2.978c0.154,-0.089 0.132,-0.522 0.1,-0.759c0,0 0.023,0.118 -0.069,0.172c-0.866,0.509 -5.158,2.99 -5.158,2.99Z" style="fill:#0f0f0f;stroke:#000;stroke-width:0.1px;"/><path d="M90.476,125.17c-0.282,0.152 -0.506,0.049 -0.646,-0.021c-0,-0 -4.964,-2.866 -5.076,-2.933c-0.132,-0.078 -0.133,-0.197 -0.133,-0.197c0,0.081 -0.029,0.67 0.149,0.772l5.074,2.93c0.178,0.103 0.447,0.114 0.601,0.025l5.158,-2.978c0.154,-0.089 0.132,-0.523 0.101,-0.759c-0,-0 0.023,0.117 -0.07,0.172c-0.865,0.508 -5.158,2.989 -5.158,2.989Z" style="fill:#0f0f0f;stroke:#000;stroke-width:0.1px;"/><path d="M97.611,121.053c-0.283,0.151 -0.506,0.049 -0.647,-0.022c0,0 -4.964,-2.866 -5.075,-2.932c-0.133,-0.079 -0.134,-0.197 -0.134,-0.197c0.001,0.081 -0.029,0.669 0.149,0.772l5.074,2.929c0.178,0.103 0.447,0.114 0.601,0.025l5.158,-2.978c0.154,-0.089 0.132,-0.522 0.101,-0.759c-0,0 0.023,0.118 -0.07,0.172c-0.865,0.509 -5.157,2.99 -5.157,2.99Z" style="fill:#0f0f0f;stroke:#000;stroke-width:0.1px;"/><path d="M104.745,116.935c-0.282,0.152 -0.506,0.049 -0.646,-0.021c-0,-0 -4.964,-2.866 -5.076,-2.933c-0.132,-0.078 -0.134,-0.197 -0.134,-0.197c0.001,0.081 -0.028,0.67 0.15,0.772l5.074,2.93c0.177,0.103 0.447,0.114 0.601,0.025l5.158,-2.978c0.154,-0.089 0.132,-0.523 0.1,-0.759c0,-0 0.023,0.117 -0.069,0.172c-0.865,0.508 -5.158,2.989 -5.158,2.989Z" style="fill:#0f0f0f;stroke:#000;stroke-width:0.1px;"/><path d="M111.88,112.818c-0.283,0.151 -0.507,0.049 -0.647,-0.022c-0,0 -4.964,-2.866 -5.076,-2.932c-0.132,-0.079 -0.133,-0.197 -0.133,-0.197c0.001,0.081 -0.029,0.669 0.149,0.772l5.074,2.929c0.178,0.103 0.447,0.114 0.601,0.025l5.158,-2.978c0.154,-0.088 0.132,-0.522 0.101,-0.759c-0,0 0.023,0.118 -0.07,0.172c-0.865,0.509 -5.157,2.99 -5.157,2.99Z" style="fill:#0f0f0f;stroke:#000;stroke-width:0.1px;"/><path d="M119.014,108.7c-0.283,0.152 -0.506,0.049 -0.647,-0.021c0,-0 -4.963,-2.866 -5.075,-2.933c-0.133,-0.078 -0.134,-0.197 -0.134,-0.197c0.001,0.081 -0.029,0.67 0.149,0.772l5.074,2.93c0.178,0.103 0.448,0.114 0.601,0.025l5.158,-2.978c0.154,-0.089 0.132,-0.523 0.101,-0.759c0,-0 0.023,0.117 -0.069,0.172c-0.866,0.508 -5.158,2.989 -5.158,2.989Z" style="fill:#0f0f0f;stroke:#000;stroke-width:0.1px;"/><path d="M126.148,104.583c-0.282,0.151 -0.506,0.049 -0.646,-0.022c-0,0 -4.964,-2.866 -5.076,-2.932c-0.132,-0.079 -0.134,-0.197 -0.134,-0.197c0.001,0.081 -0.028,0.669 0.15,0.772l5.074,2.929c0.178,0.103 0.447,0.114 0.601,0.025l5.158,-2.978c0.154,-0.088 0.132,-0.522 0.1,-0.759c0,0 0.024,0.118 -0.069,0.172c-0.865,0.509 -5.158,2.99 -5.158,2.99Z" style="fill:#0f0f0f;stroke:#000;stroke-width:0.1px;"/><path d="M33.383,149.837c-0.158,0.1 -0.418,0.136 -0.66,-0.004c-0.051,-0.03 -1.755,-1.005 -1.884,-1.088c-0.139,-0.089 -0.127,-0.165 -0.127,-0.165c0.002,0.052 -0.031,0.639 0.147,0.741l1.874,1.082c0.177,0.103 0.447,0.114 0.601,0.025l5.158,-2.978c0.154,-0.089 0.099,-0.599 0.102,-0.715c0,-0 -0.015,0.099 -0.079,0.136c-0.136,0.079 -5.132,2.966 -5.132,2.966Z" style="fill:#666;stroke:#000;stroke-width:0.1px;"/><path d="M40.513,145.715c-0.158,0.1 -0.418,0.135 -0.66,-0.004c-0.051,-0.031 -1.754,-1.005 -1.884,-1.088c-0.138,-0.089 -0.127,-0.166 -0.127,-0.166c0.002,0.053 -0.031,0.639 0.147,0.742l1.874,1.082c0.178,0.102 0.447,0.114 0.601,0.025l5.158,-2.978c0.154,-0.089 0.099,-0.599 0.103,-0.716c-0,0 -0.016,0.1 -0.079,0.137c-0.137,0.079 -5.133,2.966 -5.133,2.966Z" style="fill:#bebebe;fill-opacity:0.5;stroke:#000;stroke-width:0.1px;"/><path d="M47.643,141.592c-0.158,0.101 -0.418,0.136 -0.66,-0.003c-0.051,-0.031 -1.754,-1.005 -1.884,-1.089c-0.138,-0.088 -0.127,-0.165 -0.127,-0.165c0.003,0.053 -0.03,0.639 0.147,0.742l1.874,1.081c0.178,0.103 0.447,0.114 0.601,0.025l5.158,-2.978c0.154,-0.088 0.099,-0.598 0.103,-0.715c-0,-0 -0.015,0.099 -0.079,0.136c-0.137,0.08 -5.133,2.966 -5.133,2.966Z" style="fill:#0f0f0f;stroke:#000;stroke-width:0.1px;"/><path d="M54.774,137.47c-0.159,0.1 -0.419,0.136 -0.661,-0.004c-0.05,-0.031 -1.754,-1.005 -1.884,-1.088c-0.138,-0.089 -0.127,-0.165 -0.127,-0.165c0.003,0.052 -0.03,0.639 0.148,0.741l1.873,1.082c0.178,0.103 0.447,0.114 0.601,0.025l5.158,-2.978c0.154,-0.089 0.1,-0.599 0.103,-0.715c-0,-0 -0.015,0.099 -0.079,0.136c-0.137,0.079 -5.132,2.966 -5.132,2.966Z" style="fill:#0f0f0f;stroke:#000;stroke-width:0.1px;"/><path d="M61.904,133.347c-0.158,0.101 -0.419,0.136 -0.66,-0.003c-0.051,-0.031 -1.755,-1.005 -1.885,-1.088c-0.138,-0.089 -0.127,-0.166 -0.127,-0.166c0.003,0.053 -0.03,0.639 0.148,0.742l1.873,1.082c0.178,0.102 0.447,0.114 0.601,0.025l5.158,-2.978c0.154,-0.089 0.1,-0.599 0.103,-0.716c0,0 -0.015,0.1 -0.079,0.137c-0.136,0.079 -5.132,2.965 -5.132,2.965Z" style="fill:#0f0f0f;stroke:#000;stroke-width:0.1px;"/><path d="M69.034,129.225c-0.158,0.101 -0.418,0.136 -0.66,-0.003c-0.051,-0.031 -1.755,-1.005 -1.884,-1.089c-0.139,-0.088 -0.128,-0.165 -0.128,-0.165c0.003,0.053 -0.03,0.639 0.148,0.742l1.874,1.081c0.177,0.103 0.447,0.114 0.601,0.025l5.158,-2.978c0.154,-0.088 0.099,-0.598 0.102,-0.715c0,-0 -0.015,0.099 -0.079,0.136c-0.136,0.08 -5.132,2.966 -5.132,2.966Z" style="fill:#0f0f0f;stroke:#000;stroke-width:0.1px;"/><path d="M76.164,125.103c-0.158,0.1 -0.418,0.136 -0.66,-0.004c-0.051,-0.031 -1.754,-1.005 -1.884,-1.088c-0.139,-0.089 -0.127,-0.165 -0.127,-0.165c0.002,0.052 -0.031,0.639 0.147,0.741l1.874,1.082c0.177,0.103 0.447,0.114 0.601,0.025l5.158,-2.978c0.154,-0.089 0.099,-0.599 0.102,-0.715c0,-0 -0.015,0.099 -0.078,0.136c-0.137,0.079 -5.133,2.966 -5.133,2.966Z" style="fill:#0f0f0f;stroke:#000;stroke-width:0.1px;"/><path d="M83.294,120.98c-0.158,0.101 -0.418,0.136 -0.66,-0.003c-0.051,-0.031 -1.754,-1.005 -1.884,-1.088c-0.138,-0.089 -0.127,-0.166 -0.127,-0.166c0.002,0.053 -0.03,0.639 0.147,0.742l1.874,1.082c0.178,0.102 0.447,0.114 0.601,0.025l5.158,-2.978c0.154,-0.089 0.099,-0.599 0.103,-0.716c-0,0 -0.015,0.1 -0.079,0.137c-0.137,0.079 -5.133,2.965 -5.133,2.965Z" style="fill:#0f0f0f;stroke:#000;stroke-width:0.1px;"/><path d="M90.425,116.858c-0.159,0.101 -0.419,0.136 -0.661,-0.003c-0.051,-0.031 -1.754,-1.005 -1.884,-1.089c-0.138,-0.089 -0.127,-0.165 -0.127,-0.165c0.003,0.053 -0.03,0.639 0.147,0.742l1.874,1.081c0.178,0.103 0.447,0.114 0.601,0.025l5.158,-2.978c0.154,-0.088 0.099,-0.598 0.103,-0.715c-0,-0 -0.015,0.099 -0.079,0.136c-0.137,0.08 -5.132,2.966 -5.132,2.966Z" style="fill:#0f0f0f;stroke:#000;stroke-width:0.1px;"/><path d="M97.555,112.736c-0.159,0.1 -0.419,0.136 -0.661,-0.004c-0.05,-0.031 -1.754,-1.005 -1.884,-1.088c-0.138,-0.089 -0.127,-0.165 -0.127,-0.165c0.003,0.052 -0.03,0.639 0.148,0.741l1.873,1.082c0.178,0.103 0.447,0.114 0.601,0.025l5.158,-2.978c0.154,-0.089 0.1,-0.599 0.103,-0.716c-0,0 -0.015,0.1 -0.079,0.137c-0.137,0.079 -5.132,2.966 -5.132,2.966Z" style="fill:#0f0f0f;stroke:#000;stroke-width:0.1px;"/><path d="M104.685,108.613c-0.158,0.101 -0.418,0.136 -0.66,-0.003c-0.051,-0.031 -1.755,-1.005 -1.884,-1.088c-0.139,-0.089 -0.128,-0.166 -0.128,-0.166c0.003,0.053 -0.03,0.639 0.148,0.742l1.873,1.082c0.178,0.102 0.448,0.114 0.602,0.025l5.157,-2.978c0.154,-0.089 0.1,-0.599 0.103,-0.716c0,0 -0.015,0.1 -0.079,0.137c-0.136,0.079 -5.132,2.965 -5.132,2.965Z" style="fill:#0f0f0f;stroke:#000;stroke-width:0.1px;"/><path d="M111.815,104.491c-0.158,0.101 -0.418,0.136 -0.66,-0.004c-0.051,-0.03 -1.755,-1.004 -1.884,-1.088c-0.139,-0.089 -0.127,-0.165 -0.127,-0.165c0.002,0.053 -0.031,0.639 0.147,0.742l1.874,1.081c0.177,0.103 0.447,0.114 0.601,0.025l5.158,-2.978c0.154,-0.089 0.099,-0.598 0.102,-0.715c0,-0 -0.015,0.099 -0.079,0.136c-0.136,0.08 -5.132,2.966 -5.132,2.966Z" style="fill:#0f0f0f;stroke:#000;stroke-width:0.1px;"/><path d="M118.945,100.369c-0.158,0.1 -0.418,0.136 -0.66,-0.004c-0.051,-0.031 -1.754,-1.005 -1.884,-1.088c-0.138,-0.089 -0.127,-0.165 -0.127,-0.165c0.002,0.052 -0.031,0.639 0.147,0.741l1.874,1.082c0.178,0.103 0.447,0.114 0.601,0.025l5.158,-2.978c0.154,-0.089 0.099,-0.599 0.103,-0.716c-0,0 -0.016,0.1 -0.079,0.137c-0.137,0.079 -5.133,2.966 -5.133,2.966Z" style="fill:#0f0f0f;stroke:#000;stroke-width:0.1px;"/><path d="M104.876,149.842c-0.219,0.135 -0.454,0.125 -0.7,0.02l-5.127,-2.958c-0.061,-0.056 -0.075,-0.1 -0.076,-0.14c0.006,0.12 -0.037,0.637 0.141,0.74l5.074,2.929c0.178,0.103 0.447,0.114 0.601,0.025l19.432,-11.219c0.154,-0.089 0.113,-0.584 0.102,-0.718c0.005,0.041 -0.017,0.087 -0.109,0.151l-19.338,11.17Z" style="fill:#0f0f0f;stroke:#000;stroke-width:0.1px;"/><path d="M147.688,125.127c-0.219,0.134 -0.462,0.123 -0.722,0.005l-5.007,-2.891c-0.152,-0.101 -0.181,-0.163 -0.176,-0.215c0,0 -0.034,0.657 0.144,0.759l5.074,2.93c0.178,0.103 0.447,0.114 0.601,0.025l12.303,-7.104c0.154,-0.088 0.109,-0.717 0.109,-0.717c0.004,0.048 -0.043,0.106 -0.162,0.179l-12.164,7.029Z" style="fill:#0f0f0f;stroke:#000;stroke-width:0.1px;"/><path d="M47.844,158.071c-0.242,0.142 -0.478,0.131 -0.703,0.014c-0,-0 -4.233,-2.446 -5.124,-2.964c-0.066,-0.038 -0.074,-0.156 -0.074,-0.156c-0.005,0.1 -0.032,0.661 0.146,0.763l5.074,2.93c0.178,0.103 0.447,0.114 0.601,0.025l8.621,-4.977c0.154,-0.089 0.101,-0.517 0.107,-0.705c0,-0 -0.006,0.081 -0.146,0.161c-1.451,0.837 -8.502,4.909 -8.502,4.909Z" style="fill:#0f0f0f;stroke:#000;stroke-width:0.1px;"/><path d="M145.408,110.418c0.1,-0.058 0.161,-0.164 0.161,-0.279c-0,-0.116 -0.001,-0.602 -0.001,-0.602c0.019,0.125 -0.036,0.224 -0.14,0.305l-5.028,2.905c-0.155,0.106 -0.309,0.092 -0.462,-0.01l-6.51,-3.75c-0.185,-0.172 -0.387,-0.201 -0.615,-0.016l-3.111,1.802c-0.119,0.073 -0.256,0.074 -0.415,-0.011l-4.989,-2.879c-0.262,-0.211 -0.236,-0.403 -0.013,-0.582c-0,-0 -0.196,0.137 -0.177,0.317c0.013,0.115 -0.025,0.708 0.159,0.809c1.226,0.671 4.33,2.5 5.074,2.929c0.1,0.058 0.223,0.058 0.322,0c0.599,-0.346 2.693,-1.554 3.292,-1.9c0.099,-0.058 0.222,-0.058 0.322,-0c0.948,0.547 5.789,3.342 6.737,3.89c0.1,0.057 0.223,0.057 0.322,-0c0.744,-0.43 3.862,-2.23 5.072,-2.928Z" style="fill:#0f0f0f;stroke:#000;stroke-width:0.1px;"/><path d="M58.389,151.989c-0.283,0.152 -0.506,0.049 -0.647,-0.021c0,-0 -4.963,-2.867 -5.075,-2.933c-0.133,-0.078 -0.134,-0.197 -0.134,-0.197c0.001,0.081 -0.029,0.669 0.149,0.772l5.074,2.93c0.178,0.102 0.448,0.113 0.601,0.024l5.158,-2.977c0.154,-0.089 0.133,-0.523 0.101,-0.76c0,0 0.023,0.118 -0.069,0.172c-0.866,0.509 -5.158,2.99 -5.158,2.99Z" style="fill:#0f0f0f;stroke:#000;stroke-width:0.1px;"/><path d="M65.521,147.865c-0.282,0.152 -0.506,0.049 -0.647,-0.021c0,0 -4.963,-2.866 -5.075,-2.932c-0.133,-0.079 -0.134,-0.198 -0.134,-0.198c0.001,0.081 -0.028,0.67 0.149,0.773l5.075,2.929c0.177,0.103 0.447,0.114 0.601,0.025l5.158,-2.978c0.154,-0.089 0.132,-0.523 0.1,-0.759c0,-0 0.023,0.117 -0.069,0.172c-0.866,0.509 -5.158,2.989 -5.158,2.989Z" style="fill:#0f0f0f;stroke:#000;stroke-width:0.1px;"/><path d="M72.653,143.742c-0.282,0.152 -0.506,0.049 -0.647,-0.021c0,-0 -4.963,-2.867 -5.075,-2.933c-0.133,-0.078 -0.134,-0.197 -0.134,-0.197c0.001,0.081 -0.028,0.669 0.149,0.772l5.075,2.93c0.177,0.102 0.447,0.113 0.601,0.025l5.158,-2.978c0.154,-0.089 0.132,-0.523 0.1,-0.76c0,0 0.023,0.118 -0.069,0.172c-0.866,0.509 -5.158,2.99 -5.158,2.99Z" style="fill:#0f0f0f;stroke:#000;stroke-width:0.1px;"/><path d="M79.785,139.618c-0.282,0.152 -0.506,0.049 -0.646,-0.021c-0,0 -4.964,-2.866 -5.076,-2.932c-0.132,-0.079 -0.134,-0.198 -0.134,-0.198c0.001,0.081 -0.028,0.67 0.15,0.773l5.074,2.929c0.178,0.103 0.447,0.114 0.601,0.025l5.158,-2.978c0.154,-0.089 0.132,-0.523 0.1,-0.759c0,-0 0.024,0.118 -0.069,0.172c-0.865,0.509 -5.158,2.989 -5.158,2.989Z" style="fill:#0f0f0f;stroke:#000;stroke-width:0.1px;"/><path d="M86.917,135.495c-0.282,0.152 -0.506,0.049 -0.646,-0.021c-0,-0 -4.964,-2.867 -5.076,-2.933c-0.132,-0.078 -0.134,-0.197 -0.134,-0.197c0.001,0.081 -0.028,0.669 0.15,0.772l5.074,2.93c0.178,0.102 0.447,0.113 0.601,0.025l5.158,-2.978c0.154,-0.089 0.132,-0.523 0.101,-0.76c-0,0 0.023,0.118 -0.07,0.173c-0.865,0.508 -5.158,2.989 -5.158,2.989Z" style="fill:#0f0f0f;stroke:#000;stroke-width:0.1px;"/><path d="M94.049,131.372c-0.282,0.151 -0.506,0.049 -0.646,-0.022c-0,0 -4.964,-2.866 -5.076,-2.932c-0.132,-0.079 -0.133,-0.198 -0.133,-0.198c0,0.081 -0.029,0.67 0.149,0.773l5.074,2.929c0.178,0.103 0.447,0.114 0.601,0.025l5.158,-2.978c0.154,-0.089 0.132,-0.523 0.101,-0.759c-0,-0 0.023,0.118 -0.07,0.172c-0.865,0.509 -5.158,2.99 -5.158,2.99Z" style="fill:#0f0f0f;stroke:#000;stroke-width:0.1px;"/><path d="M101.182,127.248c-0.283,0.152 -0.507,0.049 -0.647,-0.021c-0,-0 -4.964,-2.866 -5.076,-2.933c-0.132,-0.078 -0.133,-0.197 -0.133,-0.197c0.001,0.081 -0.029,0.67 0.149,0.772l5.074,2.93c0.178,0.102 0.447,0.114 0.601,0.025l5.158,-2.978c0.154,-0.089 0.132,-0.523 0.101,-0.76c-0,0 0.023,0.118 -0.07,0.173c-0.865,0.508 -5.157,2.989 -5.157,2.989Z" style="fill:#0f0f0f;stroke:#000;stroke-width:0.1px;"/><path d="M108.314,123.125c-0.283,0.151 -0.506,0.049 -0.647,-0.022c0,0 -4.964,-2.866 -5.076,-2.932c-0.132,-0.079 -0.133,-0.197 -0.133,-0.197c0.001,0.081 -0.029,0.669 0.149,0.772l5.074,2.929c0.178,0.103 0.447,0.114 0.601,0.025l5.158,-2.978c0.154,-0.089 0.132,-0.523 0.101,-0.759c-0,0 0.023,0.118 -0.07,0.172c-0.865,0.509 -5.157,2.99 -5.157,2.99Z" style="fill:#0f0f0f;stroke:#000;stroke-width:0.1px;"/><path d="M115.446,119.001c-0.283,0.152 -0.506,0.049 -0.647,-0.021c0,-0 -4.964,-2.866 -5.075,-2.933c-0.133,-0.078 -0.134,-0.197 -0.134,-0.197c0.001,0.081 -0.029,0.67 0.149,0.772l5.074,2.93c0.178,0.102 0.447,0.114 0.601,0.025l5.158,-2.978c0.154,-0.089 0.132,-0.523 0.101,-0.759c-0,-0 0.023,0.117 -0.07,0.172c-0.865,0.508 -5.157,2.989 -5.157,2.989Z" style="fill:#0f0f0f;stroke:#000;stroke-width:0.1px;"/><path d="M122.578,114.878c-0.283,0.151 -0.506,0.049 -0.647,-0.022c0,0 -4.963,-2.866 -5.075,-2.932c-0.133,-0.079 -0.134,-0.197 -0.134,-0.197c0.001,0.081 -0.028,0.669 0.149,0.772l5.074,2.929c0.178,0.103 0.448,0.114 0.602,0.025l5.157,-2.978c0.154,-0.089 0.133,-0.522 0.101,-0.759c0,0 0.023,0.118 -0.069,0.172c-0.866,0.509 -5.158,2.99 -5.158,2.99Z" style="fill:#0f0f0f;stroke:#000;stroke-width:0.1px;"/><path d="M54.786,162.223c-0.282,0.152 -0.506,0.049 -0.647,-0.021c0,-0 -4.963,-2.866 -5.075,-2.933c-0.133,-0.078 -0.134,-0.197 -0.134,-0.197c0.001,0.081 -0.028,0.67 0.149,0.772l5.074,2.93c0.178,0.103 0.448,0.114 0.602,0.025l5.158,-2.978c0.153,-0.089 0.132,-0.523 0.1,-0.759c0,-0 0.023,0.117 -0.069,0.172c-0.866,0.508 -5.158,2.989 -5.158,2.989Z" style="fill:#0f0f0f;stroke:#000;stroke-width:0.1px;"/><path d="M61.929,158.1c-0.282,0.151 -0.506,0.049 -0.647,-0.022c0,0 -4.963,-2.866 -5.075,-2.932c-0.132,-0.079 -0.134,-0.198 -0.134,-0.198c0.001,0.081 -0.028,0.67 0.15,0.773l5.074,2.929c0.177,0.103 0.447,0.114 0.601,0.025l5.158,-2.978c0.154,-0.089 0.132,-0.523 0.1,-0.759c0,-0 0.023,0.118 -0.069,0.172c-0.866,0.509 -5.158,2.99 -5.158,2.99Z" style="fill:#0f0f0f;stroke:#000;stroke-width:0.1px;"/><path d="M69.072,153.976c-0.282,0.151 -0.506,0.049 -0.646,-0.022c-0,0 -4.964,-2.866 -5.076,-2.932c-0.132,-0.079 -0.134,-0.197 -0.134,-0.197c0.001,0.081 -0.028,0.669 0.15,0.772l5.074,2.929c0.178,0.103 0.447,0.114 0.601,0.025l5.158,-2.978c0.154,-0.088 0.132,-0.522 0.1,-0.759c0,0 0.024,0.118 -0.069,0.172c-0.865,0.509 -5.158,2.99 -5.158,2.99Z" style="fill:#0f0f0f;stroke:#000;stroke-width:0.1px;"/><path d="M76.215,149.852c-0.282,0.152 -0.506,0.049 -0.646,-0.021c-0,-0 -4.964,-2.866 -5.076,-2.933c-0.132,-0.078 -0.134,-0.197 -0.134,-0.197c0.001,0.081 -0.028,0.67 0.15,0.772l5.074,2.93c0.178,0.102 0.447,0.114 0.601,0.025l5.158,-2.978c0.154,-0.089 0.132,-0.523 0.101,-0.76c-0,0 0.023,0.118 -0.07,0.173c-0.865,0.508 -5.158,2.989 -5.158,2.989Z" style="fill:#0f0f0f;stroke:#000;stroke-width:0.1px;"/><path d="M83.359,145.728c-0.283,0.152 -0.507,0.049 -0.647,-0.021c-0,0 -4.964,-2.866 -5.076,-2.933c-0.132,-0.078 -0.133,-0.197 -0.133,-0.197c0.001,0.081 -0.029,0.67 0.149,0.772l5.074,2.93c0.178,0.103 0.447,0.114 0.601,0.025l5.158,-2.978c0.154,-0.089 0.132,-0.523 0.101,-0.759c-0,-0 0.023,0.117 -0.07,0.172c-0.865,0.509 -5.157,2.989 -5.157,2.989Z" style="fill:#0f0f0f;stroke:#000;stroke-width:0.1px;"/><path d="M90.502,141.605c-0.283,0.151 -0.506,0.049 -0.647,-0.022c0,0 -4.964,-2.866 -5.076,-2.932c-0.132,-0.079 -0.133,-0.197 -0.133,-0.197c0.001,0.081 -0.029,0.669 0.149,0.772l5.074,2.929c0.178,0.103 0.447,0.114 0.601,0.025l5.158,-2.978c0.154,-0.089 0.132,-0.523 0.101,-0.759c-0,0 0.023,0.118 -0.07,0.172c-0.865,0.509 -5.157,2.99 -5.157,2.99Z" style="fill:#0f0f0f;stroke:#000;stroke-width:0.1px;"/><path d="M97.645,137.481c-0.283,0.152 -0.506,0.049 -0.647,-0.021c0,-0 -4.963,-2.867 -5.075,-2.933c-0.133,-0.078 -0.134,-0.197 -0.134,-0.197c0.001,0.081 -0.028,0.669 0.149,0.772l5.074,2.93c0.178,0.102 0.448,0.113 0.602,0.025l5.157,-2.978c0.154,-0.089 0.133,-0.523 0.101,-0.76c0,0 0.023,0.118 -0.069,0.172c-0.866,0.509 -5.158,2.99 -5.158,2.99Z" style="fill:#0f0f0f;stroke:#000;stroke-width:0.1px;"/><path d="M104.788,133.357c-0.282,0.152 -0.506,0.049 -0.647,-0.021c0,-0 -4.963,-2.866 -5.075,-2.933c-0.133,-0.078 -0.134,-0.197 -0.134,-0.197c0.001,0.081 -0.028,0.67 0.149,0.772l5.075,2.93c0.177,0.103 0.447,0.114 0.601,0.025l5.158,-2.978c0.154,-0.089 0.132,-0.523 0.1,-0.759c0,-0 0.023,0.117 -0.069,0.172c-0.866,0.508 -5.158,2.989 -5.158,2.989Z" style="fill:#0f0f0f;stroke:#000;stroke-width:0.1px;"/><path d="M111.931,129.233c-0.282,0.152 -0.506,0.049 -0.646,-0.021c-0,0 -4.964,-2.866 -5.076,-2.932c-0.132,-0.079 -0.134,-0.198 -0.134,-0.198c0.001,0.081 -0.028,0.67 0.15,0.773l5.074,2.929c0.178,0.103 0.447,0.114 0.601,0.025l5.158,-2.978c0.154,-0.089 0.132,-0.523 0.1,-0.759c0,-0 0.024,0.118 -0.069,0.172c-0.865,0.509 -5.158,2.989 -5.158,2.989Z" style="fill:#0f0f0f;stroke:#000;stroke-width:0.1px;"/><path d="M119.074,125.11c-0.282,0.151 -0.506,0.049 -0.646,-0.022c-0,0 -4.964,-2.866 -5.076,-2.932c-0.132,-0.079 -0.134,-0.197 -0.134,-0.197c0.001,0.081 -0.028,0.669 0.15,0.772l5.074,2.929c0.178,0.103 0.447,0.114 0.601,0.025l5.158,-2.978c0.154,-0.088 0.132,-0.522 0.101,-0.759c-0,0 0.023,0.118 -0.07,0.172c-0.865,0.509 -5.158,2.99 -5.158,2.99Z" style="fill:#0f0f0f;stroke:#000;stroke-width:0.1px;"/><path d="M126.218,120.986c-0.283,0.152 -0.507,0.049 -0.647,-0.021c-0,-0 -4.964,-2.867 -5.076,-2.933c-0.132,-0.078 -0.133,-0.197 -0.133,-0.197c0.001,0.081 -0.029,0.67 0.149,0.772l5.074,2.93c0.178,0.102 0.447,0.114 0.601,0.025l5.158,-2.978c0.154,-0.089 0.132,-0.523 0.101,-0.76c-0,0 0.023,0.118 -0.07,0.173c-0.865,0.508 -5.157,2.989 -5.157,2.989Z" style="fill:#0f0f0f;stroke:#000;stroke-width:0.1px;"/><path d="M133.361,116.862c-0.283,0.152 -0.506,0.049 -0.647,-0.021c0,-0 -4.964,-2.866 -5.076,-2.933c-0.132,-0.078 -0.133,-0.197 -0.133,-0.197c0.001,0.081 -0.029,0.67 0.149,0.772l5.074,2.93c0.178,0.103 0.447,0.114 0.601,0.025l5.158,-2.978c0.154,-0.089 0.132,-0.523 0.101,-0.759c-0,-0 0.023,0.117 -0.07,0.172c-0.865,0.508 -5.157,2.989 -5.157,2.989Z" style="fill:#0f0f0f;stroke:#000;stroke-width:0.1px;"/><path d="M72.645,160.204c-0.283,0.151 -0.506,0.049 -0.647,-0.022c0,0 -4.963,-2.866 -5.075,-2.932c-0.133,-0.079 -0.134,-0.198 -0.134,-0.198c0.001,0.081 -0.029,0.67 0.149,0.773l5.074,2.929c0.178,0.103 0.448,0.114 0.601,0.025l5.158,-2.978c0.154,-0.089 0.132,-0.523 0.101,-0.759c0,-0 0.023,0.118 -0.069,0.172c-0.866,0.509 -5.158,2.99 -5.158,2.99Z" style="fill:#0f0f0f;stroke:#000;stroke-width:0.1px;"/><path d="M79.775,156.078c-0.282,0.152 -0.506,0.049 -0.646,-0.021c-0,-0 -4.964,-2.867 -5.076,-2.933c-0.132,-0.078 -0.134,-0.197 -0.134,-0.197c0.001,0.081 -0.028,0.669 0.15,0.772l5.074,2.93c0.178,0.102 0.447,0.113 0.601,0.025l5.158,-2.978c0.154,-0.089 0.132,-0.523 0.1,-0.76c0,0 0.024,0.118 -0.069,0.173c-0.865,0.508 -5.158,2.989 -5.158,2.989Z" style="fill:#0f0f0f;stroke:#000;stroke-width:0.1px;"/><path d="M86.906,151.952c-0.283,0.152 -0.507,0.049 -0.647,-0.021c-0,0 -4.964,-2.866 -5.076,-2.933c-0.132,-0.078 -0.133,-0.197 -0.133,-0.197c0.001,0.081 -0.029,0.67 0.149,0.773l5.074,2.929c0.178,0.103 0.447,0.114 0.601,0.025l5.158,-2.978c0.154,-0.089 0.132,-0.523 0.101,-0.759c-0,-0 0.023,0.117 -0.07,0.172c-0.865,0.509 -5.157,2.989 -5.157,2.989Z" style="fill:#0f0f0f;stroke:#000;stroke-width:0.1px;"/><path d="M94.036,147.827c-0.282,0.151 -0.506,0.049 -0.647,-0.022c0,0 -4.963,-2.866 -5.075,-2.932c-0.133,-0.079 -0.134,-0.197 -0.134,-0.197c0.001,0.081 -0.028,0.669 0.149,0.772l5.075,2.929c0.177,0.103 0.447,0.114 0.601,0.025l5.158,-2.978c0.154,-0.088 0.132,-0.522 0.1,-0.759c0,0 0.023,0.118 -0.069,0.172c-0.866,0.509 -5.158,2.99 -5.158,2.99Z" style="fill:#0f0f0f;stroke:#000;stroke-width:0.1px;"/><path d="M101.166,143.701c-0.282,0.152 -0.506,0.049 -0.646,-0.021c-0,-0 -4.964,-2.866 -5.076,-2.933c-0.132,-0.078 -0.134,-0.197 -0.134,-0.197c0.001,0.081 -0.028,0.67 0.15,0.772l5.074,2.93c0.178,0.103 0.447,0.114 0.601,0.025l5.158,-2.978c0.154,-0.089 0.132,-0.523 0.101,-0.759c-0,-0 0.023,0.117 -0.07,0.172c-0.865,0.508 -5.158,2.989 -5.158,2.989Z" style="fill:#0f0f0f;stroke:#000;stroke-width:0.1px;"/><path d="M108.297,139.576c-0.283,0.151 -0.506,0.049 -0.647,-0.022c0,0 -4.964,-2.866 -5.075,-2.932c-0.133,-0.079 -0.134,-0.197 -0.134,-0.197c0.001,0.081 -0.029,0.669 0.149,0.772l5.074,2.929c0.178,0.103 0.447,0.114 0.601,0.025l5.158,-2.978c0.154,-0.089 0.132,-0.523 0.101,-0.759c-0,0 0.023,0.118 -0.07,0.172c-0.865,0.509 -5.157,2.99 -5.157,2.99Z" style="fill:#0f0f0f;stroke:#000;stroke-width:0.1px;"/><path d="M115.427,135.45c-0.282,0.152 -0.506,0.049 -0.646,-0.021c-0,-0 -4.964,-2.867 -5.076,-2.933c-0.132,-0.078 -0.134,-0.197 -0.134,-0.197c0.001,0.081 -0.028,0.67 0.15,0.772l5.074,2.93c0.177,0.102 0.447,0.114 0.601,0.025l5.158,-2.978c0.154,-0.089 0.132,-0.523 0.1,-0.76c0,0 0.023,0.118 -0.069,0.173c-0.865,0.508 -5.158,2.989 -5.158,2.989Z" style="fill:#0f0f0f;stroke:#000;stroke-width:0.1px;"/><path d="M122.558,131.324c-0.283,0.152 -0.507,0.049 -0.647,-0.021c-0,0 -4.964,-2.866 -5.076,-2.932c-0.132,-0.079 -0.133,-0.198 -0.133,-0.198c0.001,0.081 -0.029,0.67 0.149,0.773l5.074,2.929c0.178,0.103 0.447,0.114 0.601,0.025l5.158,-2.978c0.154,-0.089 0.132,-0.523 0.101,-0.759c-0,-0 0.023,0.118 -0.07,0.172c-0.865,0.509 -5.157,2.989 -5.157,2.989Z" style="fill:#0f0f0f;stroke:#000;stroke-width:0.1px;"/><path d="M129.688,127.199c-0.282,0.152 -0.506,0.049 -0.647,-0.021c0,-0 -4.963,-2.867 -5.075,-2.933c-0.133,-0.079 -0.134,-0.197 -0.134,-0.197c0.001,0.081 -0.028,0.669 0.149,0.772l5.074,2.93c0.178,0.102 0.448,0.113 0.602,0.024l5.157,-2.977c0.154,-0.089 0.133,-0.523 0.101,-0.76c0,0 0.023,0.118 -0.069,0.172c-0.866,0.509 -5.158,2.99 -5.158,2.99Z" style="fill:#0f0f0f;stroke:#000;stroke-width:0.1px;"/><path d="M136.818,123.073c-0.282,0.152 -0.506,0.049 -0.646,-0.021c-0,-0 -4.964,-2.866 -5.076,-2.933c-0.132,-0.078 -0.134,-0.197 -0.134,-0.197c0.001,0.081 -0.028,0.67 0.15,0.772l5.074,2.93c0.178,0.103 0.447,0.114 0.601,0.025l5.158,-2.978c0.154,-0.089 0.132,-0.523 0.101,-0.759c-0,-0 0.023,0.117 -0.07,0.172c-0.865,0.508 -5.158,2.989 -5.158,2.989Z" style="fill:#0f0f0f;stroke:#000;stroke-width:0.1px;"/><path d="M83.401,162.239c-0.282,0.152 -0.506,0.049 -0.647,-0.021c0,-0 -4.963,-2.866 -5.075,-2.933c-0.133,-0.078 -0.134,-0.197 -0.134,-0.197c0.001,0.081 -0.028,0.67 0.149,0.772l5.075,2.93c0.177,0.103 0.447,0.114 0.601,0.025l5.158,-2.978c0.154,-0.089 0.132,-0.523 0.1,-0.759c0,-0 0.023,0.117 -0.069,0.172c-0.866,0.508 -5.158,2.989 -5.158,2.989Z" style="fill:#0f0f0f;stroke:#000;stroke-width:0.1px;"/><path d="M90.536,158.118c-0.282,0.152 -0.506,0.049 -0.646,-0.021c-0,-0 -4.964,-2.866 -5.076,-2.933c-0.132,-0.078 -0.134,-0.197 -0.134,-0.197c0.001,0.081 -0.028,0.67 0.15,0.772l5.074,2.93c0.178,0.102 0.447,0.114 0.601,0.025l5.158,-2.978c0.154,-0.089 0.132,-0.523 0.1,-0.759c0,-0 0.024,0.117 -0.069,0.172c-0.865,0.508 -5.158,2.989 -5.158,2.989Z" style="fill:#0f0f0f;stroke:#000;stroke-width:0.1px;"/><path d="M97.672,153.997c-0.283,0.152 -0.507,0.049 -0.647,-0.021c-0,-0 -4.964,-2.867 -5.076,-2.933c-0.132,-0.078 -0.133,-0.197 -0.133,-0.197c0.001,0.081 -0.029,0.669 0.149,0.772l5.074,2.93c0.178,0.102 0.447,0.113 0.601,0.025l5.158,-2.978c0.154,-0.089 0.132,-0.523 0.101,-0.76c-0,0 0.023,0.118 -0.07,0.172c-0.865,0.509 -5.157,2.99 -5.157,2.99Z" style="fill:#0f0f0f;stroke:#000;stroke-width:0.1px;"/><path d="M126.213,137.512c-0.283,0.152 -0.507,0.049 -0.647,-0.021c-0,-0 -4.964,-2.866 -5.076,-2.933c-0.132,-0.078 -0.133,-0.197 -0.133,-0.197c0.001,0.081 -0.029,0.67 0.149,0.772l5.074,2.93c0.178,0.102 0.447,0.114 0.601,0.025l5.158,-2.978c0.154,-0.089 0.132,-0.523 0.101,-0.759c-0,-0 0.023,0.117 -0.07,0.172c-0.865,0.508 -5.157,2.989 -5.157,2.989Z" style="fill:#0f0f0f;stroke:#000;stroke-width:0.1px;"/><path d="M133.348,133.391c-0.283,0.152 -0.506,0.049 -0.647,-0.021c0,-0 -4.963,-2.867 -5.075,-2.933c-0.133,-0.078 -0.134,-0.197 -0.134,-0.197c0.001,0.081 -0.029,0.669 0.149,0.772l5.074,2.93c0.178,0.102 0.447,0.113 0.601,0.025l5.158,-2.978c0.154,-0.089 0.132,-0.523 0.101,-0.76c0,0 0.023,0.118 -0.07,0.172c-0.865,0.509 -5.157,2.99 -5.157,2.99Z" style="fill:#0f0f0f;stroke:#000;stroke-width:0.1px;"/><path d="M140.483,129.27c-0.282,0.151 -0.506,0.049 -0.647,-0.022c0,0 -4.963,-2.866 -5.075,-2.932c-0.133,-0.079 -0.134,-0.197 -0.134,-0.197c0.001,0.081 -0.028,0.669 0.149,0.772l5.075,2.929c0.177,0.103 0.447,0.114 0.601,0.025l5.158,-2.978c0.154,-0.089 0.132,-0.522 0.1,-0.759c0,0 0.023,0.118 -0.069,0.172c-0.866,0.509 -5.158,2.99 -5.158,2.99Z" style="fill:#0f0f0f;stroke:#000;stroke-width:0.1px;"/><path d="M69.181,170.453c-0.219,0.134 -0.462,0.123 -0.723,0.005l-5.006,-2.891c-0.153,-0.101 -0.181,-0.163 -0.176,-0.215c-0,0 -0.034,0.657 0.143,0.759l5.075,2.93c0.177,0.103 0.447,0.114 0.601,0.025l12.303,-7.104c0.154,-0.088 0.109,-0.717 0.109,-0.717c0.004,0.048 -0.043,0.106 -0.162,0.179l-12.164,7.029Z" style="fill:#0f0f0f;stroke:#000;stroke-width:0.1px;"/><path d="M62.075,166.289c-0.242,0.142 -0.478,0.131 -0.704,0.013c0,0 -4.232,-2.445 -5.124,-2.963c-0.065,-0.038 -0.073,-0.156 -0.073,-0.156c-0.005,0.099 -0.032,0.661 0.145,0.763l5.075,2.93c0.177,0.102 0.447,0.114 0.601,0.025l8.621,-4.978c0.154,-0.088 0.101,-0.517 0.107,-0.704c0,-0 -0.006,0.08 -0.146,0.161c-1.451,0.837 -8.502,4.909 -8.502,4.909Z" style="fill:#0f0f0f;stroke:#000;stroke-width:0.1px;"/><path d="M144.092,118.954c-0.248,0.145 -0.486,0.135 -0.712,0.018c-0,0 -4.233,-2.445 -5.124,-2.963c-0.065,-0.038 -0.071,-0.158 -0.071,-0.158c-0.008,0.101 -0.046,0.669 0.131,0.772l5.075,2.929c0.177,0.103 0.45,0.112 0.607,0.021l8.823,-5.094c0.158,-0.091 0.113,-0.523 0.123,-0.713c0,-0 -0.008,0.081 -0.151,0.164c-1.485,0.856 -8.701,5.024 -8.701,5.024Z" style="fill:#0f0f0f;stroke:#000;stroke-width:0.1px;"/></g><g><path d="M40.536,153.993c-0.282,0.151 -0.506,0.049 -0.647,-0.022c0,0 -4.963,-2.866 -5.075,-2.932c-0.133,-0.079 -0.134,-0.197 -0.134,-0.197c0.001,0.08 -0.028,0.669 0.149,0.772l5.075,2.929c0.177,0.103 0.447,0.114 0.601,0.025l5.158,-2.978c0.154,-0.089 0.132,-0.523 0.1,-0.759c0,-0 0.023,0.118 -0.069,0.172c-0.866,0.509 -5.158,2.99 -5.158,2.99Z" style="fill:#6b6b6b;stroke:#000;stroke-width:0.1px;"/><path d="M47.67,149.875c-0.282,0.152 -0.506,0.049 -0.646,-0.021c-0,-0 -4.964,-2.866 -5.076,-2.933c-0.132,-0.078 -0.134,-0.197 -0.134,-0.197c0.001,0.081 -0.028,0.67 0.15,0.772l5.074,2.93c0.178,0.102 0.447,0.114 0.601,0.025l5.158,-2.978c0.154,-0.089 0.132,-0.523 0.101,-0.76c-0,0 0.023,0.118 -0.07,0.173c-0.865,0.508 -5.158,2.989 -5.158,2.989Z" style="fill:#6b6b6b;stroke:#000;stroke-width:0.1px;"/><path d="M54.805,145.758c-0.283,0.151 -0.506,0.049 -0.647,-0.022c0,0 -4.964,-2.866 -5.076,-2.932c-0.132,-0.079 -0.133,-0.197 -0.133,-0.197c0.001,0.081 -0.029,0.669 0.149,0.772l5.074,2.929c0.178,0.103 0.447,0.114 0.601,0.025l5.158,-2.978c0.154,-0.089 0.132,-0.523 0.101,-0.759c-0,0 0.023,0.118 -0.07,0.172c-0.865,0.509 -5.157,2.99 -5.157,2.99Z" style="fill:#6b6b6b;stroke:#000;stroke-width:0.1px;"/><path d="M61.939,141.64c-0.282,0.152 -0.506,0.049 -0.647,-0.021c0,-0 -4.963,-2.866 -5.075,-2.933c-0.133,-0.078 -0.134,-0.197 -0.134,-0.197c0.001,0.081 -0.028,0.67 0.149,0.772l5.075,2.93c0.177,0.102 0.447,0.114 0.601,0.025l5.158,-2.978c0.154,-0.089 0.132,-0.523 0.1,-0.759c0,-0 0.023,0.117 -0.069,0.172c-0.866,0.508 -5.158,2.989 -5.158,2.989Z" style="fill:#6b6b6b;stroke:#000;stroke-width:0.1px;"/><path d="M69.073,137.523c-0.282,0.151 -0.506,0.049 -0.646,-0.022c-0,0 -4.964,-2.866 -5.076,-2.932c-0.132,-0.079 -0.134,-0.197 -0.134,-0.197c0.001,0.081 -0.028,0.669 0.15,0.772l5.074,2.929c0.178,0.103 0.447,0.114 0.601,0.025l5.158,-2.978c0.154,-0.089 0.132,-0.523 0.101,-0.759c-0,0 0.023,0.118 -0.07,0.172c-0.865,0.509 -5.158,2.99 -5.158,2.99Z" style="fill:#6b6b6b;stroke:#000;stroke-width:0.1px;"/><path d="M76.208,133.405c-0.283,0.152 -0.506,0.049 -0.647,-0.021c0,-0 -4.964,-2.866 -5.076,-2.933c-0.132,-0.078 -0.133,-0.197 -0.133,-0.197c0.001,0.081 -0.029,0.67 0.149,0.772l5.074,2.93c0.178,0.102 0.447,0.114 0.601,0.025l5.158,-2.978c0.154,-0.089 0.132,-0.523 0.101,-0.759c-0,-0 0.023,0.117 -0.07,0.172c-0.865,0.508 -5.157,2.989 -5.157,2.989Z" style="fill:#6b6b6b;stroke:#000;stroke-width:0.1px;"/><path d="M83.342,129.288c-0.282,0.151 -0.506,0.049 -0.647,-0.022c0,0 -4.963,-2.866 -5.075,-2.932c-0.133,-0.079 -0.134,-0.197 -0.134,-0.197c0.001,0.081 -0.028,0.669 0.15,0.772l5.074,2.929c0.177,0.103 0.447,0.114 0.601,0.025l5.158,-2.978c0.154,-0.089 0.132,-0.522 0.1,-0.759c0,0 0.023,0.118 -0.069,0.172c-0.866,0.509 -5.158,2.99 -5.158,2.99Z" style="fill:#6b6b6b;stroke:#000;stroke-width:0.1px;"/><path d="M90.476,125.17c-0.282,0.152 -0.506,0.049 -0.646,-0.021c-0,-0 -4.964,-2.866 -5.076,-2.933c-0.132,-0.078 -0.133,-0.197 -0.133,-0.197c0,0.081 -0.029,0.67 0.149,0.772l5.074,2.93c0.178,0.103 0.447,0.114 0.601,0.025l5.158,-2.978c0.154,-0.089 0.132,-0.523 0.101,-0.759c-0,-0 0.023,0.117 -0.07,0.172c-0.865,0.508 -5.158,2.989 -5.158,2.989Z" style="fill:#6b6b6b;stroke:#000;stroke-width:0.1px;"/><path d="M97.611,121.053c-0.283,0.151 -0.506,0.049 -0.647,-0.022c0,0 -4.964,-2.866 -5.075,-2.932c-0.133,-0.079 -0.134,-0.197 -0.134,-0.197c0.001,0.081 -0.029,0.669 0.149,0.772l5.074,2.929c0.178,0.103 0.447,0.114 0.601,0.025l5.158,-2.978c0.154,-0.089 0.132,-0.522 0.101,-0.759c-0,0 0.023,0.118 -0.07,0.172c-0.865,0.509 -5.157,2.99 -5.157,2.99Z" style="fill:#6b6b6b;stroke:#000;stroke-width:0.1px;"/><path d="M104.745,116.935c-0.282,0.152 -0.506,0.049 -0.646,-0.021c-0,-0 -4.964,-2.866 -5.076,-2.933c-0.132,-0.078 -0.134,-0.197 -0.134,-0.197c0.001,0.081 -0.028,0.67 0.15,0.772l5.074,2.93c0.177,0.103 0.447,0.114 0.601,0.025l5.158,-2.978c0.154,-0.089 0.132,-0.523 0.1,-0.759c0,-0 0.023,0.117 -0.069,0.172c-0.865,0.508 -5.158,2.989 -5.158,2.989Z" style="fill:#6b6b6b;stroke:#000;stroke-width:0.1px;"/><path d="M111.88,112.818c-0.283,0.151 -0.507,0.049 -0.647,-0.022c-0,0 -4.964,-2.866 -5.076,-2.932c-0.132,-0.079 -0.133,-0.197 -0.133,-0.197c0.001,0.081 -0.029,0.669 0.149,0.772l5.074,2.929c0.178,0.103 0.447,0.114 0.601,0.025l5.158,-2.978c0.154,-0.088 0.132,-0.522 0.101,-0.759c-0,0 0.023,0.118 -0.07,0.172c-0.865,0.509 -5.157,2.99 -5.157,2.99Z" style="fill:#6b6b6b;stroke:#000;stroke-width:0.1px;"/><path d="M119.014,108.7c-0.283,0.152 -0.506,0.049 -0.647,-0.021c0,-0 -4.963,-2.866 -5.075,-2.933c-0.133,-0.078 -0.134,-0.197 -0.134,-0.197c0.001,0.081 -0.029,0.67 0.149,0.772l5.074,2.93c0.178,0.103 0.448,0.114 0.601,0.025l5.158,-2.978c0.154,-0.089 0.132,-0.523 0.101,-0.759c0,-0 0.023,0.117 -0.069,0.172c-0.866,0.508 -5.158,2.989 -5.158,2.989Z" style="fill:#6b6b6b;stroke:#000;stroke-width:0.1px;"/><path d="M126.148,104.583c-0.282,0.151 -0.506,0.049 -0.646,-0.022c-0,0 -4.964,-2.866 -5.076,-2.932c-0.132,-0.079 -0.134,-0.197 -0.134,-0.197c0.001,0.081 -0.028,0.669 0.15,0.772l5.074,2.929c0.178,0.103 0.447,0.114 0.601,0.025l5.158,-2.978c0.154,-0.088 0.132,-0.522 0.1,-0.759c0,0 0.024,0.118 -0.069,0.172c-0.865,0.509 -5.158,2.99 -5.158,2.99Z" style="fill:#6b6b6b;stroke:#000;stroke-width:0.1px;"/><path d="M33.383,149.837c-0.158,0.1 -0.418,0.136 -0.66,-0.004c-0.051,-0.03 -1.755,-1.005 -1.884,-1.088c-0.139,-0.089 -0.127,-0.165 -0.127,-0.165c0.002,0.052 -0.031,0.639 0.147,0.741l1.874,1.082c0.177,0.103 0.447,0.114 0.601,0.025l5.158,-2.978c0.154,-0.089 0.099,-0.599 0.102,-0.715c0,-0 -0.015,0.099 -0.079,0.136c-0.136,0.079 -5.132,2.966 -5.132,2.966Z" style="fill:#6b6b6b;stroke:#000;stroke-width:0.1px;"/><path d="M40.513,145.715c-0.158,0.1 -0.418,0.135 -0.66,-0.004c-0.051,-0.031 -1.754,-1.005 -1.884,-1.088c-0.138,-0.089 -0.127,-0.166 -0.127,-0.166c0.002,0.053 -0.031,0.639 0.147,0.742l1.874,1.082c0.178,0.102 0.447,0.114 0.601,0.025l5.158,-2.978c0.154,-0.089 0.099,-0.599 0.103,-0.716c-0,0 -0.016,0.1 -0.079,0.137c-0.137,0.079 -5.133,2.966 -5.133,2.966Z" style="fill:#6b6b6b;fill-opacity:0.5;stroke:#000;stroke-width:0.1px;"/><path d="M47.643,141.592c-0.158,0.101 -0.418,0.136 -0.66,-0.003c-0.051,-0.031 -1.754,-1.005 -1.884,-1.089c-0.138,-0.088 -0.127,-0.165 -0.127,-0.165c0.003,0.053 -0.03,0.639 0.147,0.742l1.874,1.081c0.178,0.103 0.447,0.114 0.601,0.025l5.158,-2.978c0.154,-0.088 0.099,-0.598 0.103,-0.715c-0,-0 -0.015,0.099 -0.079,0.136c-0.137,0.08 -5.133,2.966 -5.133,2.966Z" style="fill:#6b6b6b;stroke:#000;stroke-width:0.1px;"/><path d="M54.774,137.47c-0.159,0.1 -0.419,0.136 -0.661,-0.004c-0.05,-0.031 -1.754,-1.005 -1.884,-1.088c-0.138,-0.089 -0.127,-0.165 -0.127,-0.165c0.003,0.052 -0.03,0.639 0.148,0.741l1.873,1.082c0.178,0.103 0.447,0.114 0.601,0.025l5.158,-2.978c0.154,-0.089 0.1,-0.599 0.103,-0.715c-0,-0 -0.015,0.099 -0.079,0.136c-0.137,0.079 -5.132,2.966 -5.132,2.966Z" style="fill:#6b6b6b;stroke:#000;stroke-width:0.1px;"/><path d="M61.904,133.347c-0.158,0.101 -0.419,0.136 -0.66,-0.003c-0.051,-0.031 -1.755,-1.005 -1.885,-1.088c-0.138,-0.089 -0.127,-0.166 -0.127,-0.166c0.003,0.053 -0.03,0.639 0.148,0.742l1.873,1.082c0.178,0.102 0.447,0.114 0.601,0.025l5.158,-2.978c0.154,-0.089 0.1,-0.599 0.103,-0.716c0,0 -0.015,0.1 -0.079,0.137c-0.136,0.079 -5.132,2.965 -5.132,2.965Z" style="fill:#6b6b6b;stroke:#000;stroke-width:0.1px;"/><path d="M69.034,129.225c-0.158,0.101 -0.418,0.136 -0.66,-0.003c-0.051,-0.031 -1.755,-1.005 -1.884,-1.089c-0.139,-0.088 -0.128,-0.165 -0.128,-0.165c0.003,0.053 -0.03,0.639 0.148,0.742l1.874,1.081c0.177,0.103 0.447,0.114 0.601,0.025l5.158,-2.978c0.154,-0.088 0.099,-0.598 0.102,-0.715c0,-0 -0.015,0.099 -0.079,0.136c-0.136,0.08 -5.132,2.966 -5.132,2.966Z" style="fill:#6b6b6b;stroke:#000;stroke-width:0.1px;"/><path d="M76.164,125.103c-0.158,0.1 -0.418,0.136 -0.66,-0.004c-0.051,-0.031 -1.754,-1.005 -1.884,-1.088c-0.139,-0.089 -0.127,-0.165 -0.127,-0.165c0.002,0.052 -0.031,0.639 0.147,0.741l1.874,1.082c0.177,0.103 0.447,0.114 0.601,0.025l5.158,-2.978c0.154,-0.089 0.099,-0.599 0.102,-0.715c0,-0 -0.015,0.099 -0.078,0.136c-0.137,0.079 -5.133,2.966 -5.133,2.966Z" style="fill:#6b6b6b;stroke:#000;stroke-width:0.1px;"/><path d="M83.294,120.98c-0.158,0.101 -0.418,0.136 -0.66,-0.003c-0.051,-0.031 -1.754,-1.005 -1.884,-1.088c-0.138,-0.089 -0.127,-0.166 -0.127,-0.166c0.002,0.053 -0.03,0.639 0.147,0.742l1.874,1.082c0.178,0.102 0.447,0.114 0.601,0.025l5.158,-2.978c0.154,-0.089 0.099,-0.599 0.103,-0.716c-0,0 -0.015,0.1 -0.079,0.137c-0.137,0.079 -5.133,2.965 -5.133,2.965Z" style="fill:#6b6b6b;stroke:#000;stroke-width:0.1px;"/><path d="M90.425,116.858c-0.159,0.101 -0.419,0.136 -0.661,-0.003c-0.051,-0.031 -1.754,-1.005 -1.884,-1.089c-0.138,-0.089 -0.127,-0.165 -0.127,-0.165c0.003,0.053 -0.03,0.639 0.147,0.742l1.874,1.081c0.178,0.103 0.447,0.114 0.601,0.025l5.158,-2.978c0.154,-0.088 0.099,-0.598 0.103,-0.715c-0,-0 -0.015,0.099 -0.079,0.136c-0.137,0.08 -5.132,2.966 -5.132,2.966Z" style="fill:#6b6b6b;stroke:#000;stroke-width:0.1px;"/><path d="M97.555,112.736c-0.159,0.1 -0.419,0.136 -0.661,-0.004c-0.05,-0.031 -1.754,-1.005 -1.884,-1.088c-0.138,-0.089 -0.127,-0.165 -0.127,-0.165c0.003,0.052 -0.03,0.639 0.148,0.741l1.873,1.082c0.178,0.103 0.447,0.114 0.601,0.025l5.158,-2.978c0.154,-0.089 0.1,-0.599 0.103,-0.716c-0,0 -0.015,0.1 -0.079,0.137c-0.137,0.079 -5.132,2.966 -5.132,2.966Z" style="fill:#6b6b6b;stroke:#000;stroke-width:0.1px;"/><path d="M104.685,108.613c-0.158,0.101 -0.418,0.136 -0.66,-0.003c-0.051,-0.031 -1.755,-1.005 -1.884,-1.088c-0.139,-0.089 -0.128,-0.166 -0.128,-0.166c0.003,0.053 -0.03,0.639 0.148,0.742l1.873,1.082c0.178,0.102 0.448,0.114 0.602,0.025l5.157,-2.978c0.154,-0.089 0.1,-0.599 0.103,-0.716c0,0 -0.015,0.1 -0.079,0.137c-0.136,0.079 -5.132,2.965 -5.132,2.965Z" style="fill:#6b6b6b;stroke:#000;stroke-width:0.1px;"/><path d="M111.815,104.491c-0.158,0.101 -0.418,0.136 -0.66,-0.004c-0.051,-0.03 -1.755,-1.004 -1.884,-1.088c-0.139,-0.089 -0.127,-0.165 -0.127,-0.165c0.002,0.053 -0.031,0.639 0.147,0.742l1.874,1.081c0.177,0.103 0.447,0.114 0.601,0.025l5.158,-2.978c0.154,-0.089 0.099,-0.598 0.102,-0.715c0,-0 -0.015,0.099 -0.079,0.136c-0.136,0.08 -5.132,2.966 -5.132,2.966Z" style="fill:#6b6b6b;stroke:#000;stroke-width:0.1px;"/><path d="M118.945,100.369c-0.158,0.1 -0.418,0.136 -0.66,-0.004c-0.051,-0.031 -1.754,-1.005 -1.884,-1.088c-0.138,-0.089 -0.127,-0.165 -0.127,-0.165c0.002,0.052 -0.031,0.639 0.147,0.741l1.874,1.082c0.178,0.103 0.447,0.114 0.601,0.025l5.158,-2.978c0.154,-0.089 0.099,-0.599 0.103,-0.716c-0,0 -0.016,0.1 -0.079,0.137c-0.137,0.079 -5.133,2.966 -5.133,2.966Z" style="fill:#6b6b6b;stroke:#000;stroke-width:0.1px;"/><path d="M104.876,149.842c-0.219,0.135 -0.454,0.125 -0.7,0.02l-5.127,-2.958c-0.061,-0.056 -0.075,-0.1 -0.076,-0.14c0.006,0.12 -0.037,0.637 0.141,0.74l5.074,2.929c0.178,0.103 0.447,0.114 0.601,0.025l19.432,-11.219c0.154,-0.089 0.113,-0.584 0.102,-0.718c0.005,0.041 -0.017,0.087 -0.109,0.151l-19.338,11.17Z" style="fill:#6b6b6b;stroke:#000;stroke-width:0.1px;"/><path d="M147.688,125.127c-0.219,0.134 -0.462,0.123 -0.722,0.005l-5.007,-2.891c-0.152,-0.101 -0.181,-0.163 -0.176,-0.215c0,0 -0.034,0.657 0.144,0.759l5.074,2.93c0.178,0.103 0.447,0.114 0.601,0.025l12.303,-7.104c0.154,-0.088 0.109,-0.717 0.109,-0.717c0.004,0.048 -0.043,0.106 -0.162,0.179l-12.164,7.029Z" style="fill:#6b6b6b;stroke:#000;stroke-width:0.1px;"/><path d="M47.844,158.071c-0.242,0.142 -0.478,0.131 -0.703,0.014c-0,-0 -4.233,-2.446 -5.124,-2.964c-0.066,-0.038 -0.074,-0.156 -0.074,-0.156c-0.005,0.1 -0.032,0.661 0.146,0.763l5.074,2.93c0.178,0.103 0.447,0.114 0.601,0.025l8.621,-4.977c0.154,-0.089 0.101,-0.517 0.107,-0.705c0,-0 -0.006,0.081 -0.146,0.161c-1.451,0.837 -8.502,4.909 -8.502,4.909Z" style="fill:#6b6b6b;stroke:#000;stroke-width:0.1px;"/><path d="M145.408,110.418c0.1,-0.058 0.161,-0.164 0.161,-0.279c-0,-0.116 -0.001,-0.602 -0.001,-0.602c0.019,0.125 -0.036,0.224 -0.14,0.305l-5.028,2.905c-0.155,0.106 -0.309,0.092 -0.462,-0.01l-6.51,-3.75c-0.185,-0.172 -0.387,-0.201 -0.615,-0.016l-3.111,1.802c-0.119,0.073 -0.256,0.074 -0.415,-0.011l-4.989,-2.879c-0.262,-0.211 -0.236,-0.403 -0.013,-0.582c-0,-0 -0.196,0.137 -0.177,0.317c0.013,0.115 -0.025,0.708 0.159,0.809c1.226,0.671 4.33,2.5 5.074,2.929c0.1,0.058 0.223,0.058 0.322,0c0.599,-0.346 2.693,-1.554 3.292,-1.9c0.099,-0.058 0.222,-0.058 0.322,-0c0.948,0.547 5.789,3.342 6.737,3.89c0.1,0.057 0.223,0.057 0.322,-0c0.744,-0.43 3.862,-2.23 5.072,-2.928Z" style="fill:#6b6b6b;stroke:#000;stroke-width:0.1px;"/><path d="M58.389,151.989c-0.283,0.152 -0.506,0.049 -0.647,-0.021c0,-0 -4.963,-2.867 -5.075,-2.933c-0.133,-0.078 -0.134,-0.197 -0.134,-0.197c0.001,0.081 -0.029,0.669 0.149,0.772l5.074,2.93c0.178,0.102 0.448,0.113 0.601,0.024l5.158,-2.977c0.154,-0.089 0.133,-0.523 0.101,-0.76c0,0 0.023,0.118 -0.069,0.172c-0.866,0.509 -5.158,2.99 -5.158,2.99Z" style="fill:#6b6b6b;stroke:#000;stroke-width:0.1px;"/><path d="M65.521,147.865c-0.282,0.152 -0.506,0.049 -0.647,-0.021c0,0 -4.963,-2.866 -5.075,-2.932c-0.133,-0.079 -0.134,-0.198 -0.134,-0.198c0.001,0.081 -0.028,0.67 0.149,0.773l5.075,2.929c0.177,0.103 0.447,0.114 0.601,0.025l5.158,-2.978c0.154,-0.089 0.132,-0.523 0.1,-0.759c0,-0 0.023,0.117 -0.069,0.172c-0.866,0.509 -5.158,2.989 -5.158,2.989Z" style="fill:#6b6b6b;stroke:#000;stroke-width:0.1px;"/><path d="M72.653,143.742c-0.282,0.152 -0.506,0.049 -0.647,-0.021c0,-0 -4.963,-2.867 -5.075,-2.933c-0.133,-0.078 -0.134,-0.197 -0.134,-0.197c0.001,0.081 -0.028,0.669 0.149,0.772l5.075,2.93c0.177,0.102 0.447,0.113 0.601,0.025l5.158,-2.978c0.154,-0.089 0.132,-0.523 0.1,-0.76c0,0 0.023,0.118 -0.069,0.172c-0.866,0.509 -5.158,2.99 -5.158,2.99Z" style="fill:#6b6b6b;stroke:#000;stroke-width:0.1px;"/><path d="M79.785,139.618c-0.282,0.152 -0.506,0.049 -0.646,-0.021c-0,0 -4.964,-2.866 -5.076,-2.932c-0.132,-0.079 -0.134,-0.198 -0.134,-0.198c0.001,0.081 -0.028,0.67 0.15,0.773l5.074,2.929c0.178,0.103 0.447,0.114 0.601,0.025l5.158,-2.978c0.154,-0.089 0.132,-0.523 0.1,-0.759c0,-0 0.024,0.118 -0.069,0.172c-0.865,0.509 -5.158,2.989 -5.158,2.989Z" style="fill:#6b6b6b;stroke:#000;stroke-width:0.1px;"/><path d="M86.917,135.495c-0.282,0.152 -0.506,0.049 -0.646,-0.021c-0,-0 -4.964,-2.867 -5.076,-2.933c-0.132,-0.078 -0.134,-0.197 -0.134,-0.197c0.001,0.081 -0.028,0.669 0.15,0.772l5.074,2.93c0.178,0.102 0.447,0.113 0.601,0.025l5.158,-2.978c0.154,-0.089 0.132,-0.523 0.101,-0.76c-0,0 0.023,0.118 -0.07,0.173c-0.865,0.508 -5.158,2.989 -5.158,2.989Z" style="fill:#6b6b6b;stroke:#000;stroke-width:0.1px;"/><path d="M94.049,131.372c-0.282,0.151 -0.506,0.049 -0.646,-0.022c-0,0 -4.964,-2.866 -5.076,-2.932c-0.132,-0.079 -0.133,-0.198 -0.133,-0.198c0,0.081 -0.029,0.67 0.149,0.773l5.074,2.929c0.178,0.103 0.447,0.114 0.601,0.025l5.158,-2.978c0.154,-0.089 0.132,-0.523 0.101,-0.759c-0,-0 0.023,0.118 -0.07,0.172c-0.865,0.509 -5.158,2.99 -5.158,2.99Z" style="fill:#6b6b6b;stroke:#000;stroke-width:0.1px;"/><path d="M101.182,127.248c-0.283,0.152 -0.507,0.049 -0.647,-0.021c-0,-0 -4.964,-2.866 -5.076,-2.933c-0.132,-0.078 -0.133,-0.197 -0.133,-0.197c0.001,0.081 -0.029,0.67 0.149,0.772l5.074,2.93c0.178,0.102 0.447,0.114 0.601,0.025l5.158,-2.978c0.154,-0.089 0.132,-0.523 0.101,-0.76c-0,0 0.023,0.118 -0.07,0.173c-0.865,0.508 -5.157,2.989 -5.157,2.989Z" style="fill:#6b6b6b;stroke:#000;stroke-width:0.1px;"/><path d="M108.314,123.125c-0.283,0.151 -0.506,0.049 -0.647,-0.022c0,0 -4.964,-2.866 -5.076,-2.932c-0.132,-0.079 -0.133,-0.197 -0.133,-0.197c0.001,0.081 -0.029,0.669 0.149,0.772l5.074,2.929c0.178,0.103 0.447,0.114 0.601,0.025l5.158,-2.978c0.154,-0.089 0.132,-0.523 0.101,-0.759c-0,0 0.023,0.118 -0.07,0.172c-0.865,0.509 -5.157,2.99 -5.157,2.99Z" style="fill:#6b6b6b;stroke:#000;stroke-width:0.1px;"/><path d="M115.446,119.001c-0.283,0.152 -0.506,0.049 -0.647,-0.021c0,-0 -4.964,-2.866 -5.075,-2.933c-0.133,-0.078 -0.134,-0.197 -0.134,-0.197c0.001,0.081 -0.029,0.67 0.149,0.772l5.074,2.93c0.178,0.102 0.447,0.114 0.601,0.025l5.158,-2.978c0.154,-0.089 0.132,-0.523 0.101,-0.759c-0,-0 0.023,0.117 -0.07,0.172c-0.865,0.508 -5.157,2.989 -5.157,2.989Z" style="fill:#6b6b6b;stroke:#000;stroke-width:0.1px;"/><path d="M122.578,114.878c-0.283,0.151 -0.506,0.049 -0.647,-0.022c0,0 -4.963,-2.866 -5.075,-2.932c-0.133,-0.079 -0.134,-0.197 -0.134,-0.197c0.001,0.081 -0.028,0.669 0.149,0.772l5.074,2.929c0.178,0.103 0.448,0.114 0.602,0.025l5.157,-2.978c0.154,-0.089 0.133,-0.522 0.101,-0.759c0,0 0.023,0.118 -0.069,0.172c-0.866,0.509 -5.158,2.99 -5.158,2.99Z" style="fill:#6b6b6b;stroke:#000;stroke-width:0.1px;"/><path d="M54.786,162.223c-0.282,0.152 -0.506,0.049 -0.647,-0.021c0,-0 -4.963,-2.866 -5.075,-2.933c-0.133,-0.078 -0.134,-0.197 -0.134,-0.197c0.001,0.081 -0.028,0.67 0.149,0.772l5.074,2.93c0.178,0.103 0.448,0.114 0.602,0.025l5.158,-2.978c0.153,-0.089 0.132,-0.523 0.1,-0.759c0,-0 0.023,0.117 -0.069,0.172c-0.866,0.508 -5.158,2.989 -5.158,2.989Z" style="fill:#6b6b6b;stroke:#000;stroke-width:0.1px;"/><path d="M61.929,158.1c-0.282,0.151 -0.506,0.049 -0.647,-0.022c0,0 -4.963,-2.866 -5.075,-2.932c-0.132,-0.079 -0.134,-0.198 -0.134,-0.198c0.001,0.081 -0.028,0.67 0.15,0.773l5.074,2.929c0.177,0.103 0.447,0.114 0.601,0.025l5.158,-2.978c0.154,-0.089 0.132,-0.523 0.1,-0.759c0,-0 0.023,0.118 -0.069,0.172c-0.866,0.509 -5.158,2.99 -5.158,2.99Z" style="fill:#6b6b6b;stroke:#000;stroke-width:0.1px;"/><path d="M69.072,153.976c-0.282,0.151 -0.506,0.049 -0.646,-0.022c-0,0 -4.964,-2.866 -5.076,-2.932c-0.132,-0.079 -0.134,-0.197 -0.134,-0.197c0.001,0.081 -0.028,0.669 0.15,0.772l5.074,2.929c0.178,0.103 0.447,0.114 0.601,0.025l5.158,-2.978c0.154,-0.088 0.132,-0.522 0.1,-0.759c0,0 0.024,0.118 -0.069,0.172c-0.865,0.509 -5.158,2.99 -5.158,2.99Z" style="fill:#6b6b6b;stroke:#000;stroke-width:0.1px;"/><path d="M76.215,149.852c-0.282,0.152 -0.506,0.049 -0.646,-0.021c-0,-0 -4.964,-2.866 -5.076,-2.933c-0.132,-0.078 -0.134,-0.197 -0.134,-0.197c0.001,0.081 -0.028,0.67 0.15,0.772l5.074,2.93c0.178,0.102 0.447,0.114 0.601,0.025l5.158,-2.978c0.154,-0.089 0.132,-0.523 0.101,-0.76c-0,0 0.023,0.118 -0.07,0.173c-0.865,0.508 -5.158,2.989 -5.158,2.989Z" style="fill:#6b6b6b;stroke:#000;stroke-width:0.1px;"/><path d="M83.359,145.728c-0.283,0.152 -0.507,0.049 -0.647,-0.021c-0,0 -4.964,-2.866 -5.076,-2.933c-0.132,-0.078 -0.133,-0.197 -0.133,-0.197c0.001,0.081 -0.029,0.67 0.149,0.772l5.074,2.93c0.178,0.103 0.447,0.114 0.601,0.025l5.158,-2.978c0.154,-0.089 0.132,-0.523 0.101,-0.759c-0,-0 0.023,0.117 -0.07,0.172c-0.865,0.509 -5.157,2.989 -5.157,2.989Z" style="fill:#6b6b6b;stroke:#000;stroke-width:0.1px;"/><path d="M90.502,141.605c-0.283,0.151 -0.506,0.049 -0.647,-0.022c0,0 -4.964,-2.866 -5.076,-2.932c-0.132,-0.079 -0.133,-0.197 -0.133,-0.197c0.001,0.081 -0.029,0.669 0.149,0.772l5.074,2.929c0.178,0.103 0.447,0.114 0.601,0.025l5.158,-2.978c0.154,-0.089 0.132,-0.523 0.101,-0.759c-0,0 0.023,0.118 -0.07,0.172c-0.865,0.509 -5.157,2.99 -5.157,2.99Z" style="fill:#6b6b6b;stroke:#000;stroke-width:0.1px;"/><path d="M97.645,137.481c-0.283,0.152 -0.506,0.049 -0.647,-0.021c0,-0 -4.963,-2.867 -5.075,-2.933c-0.133,-0.078 -0.134,-0.197 -0.134,-0.197c0.001,0.081 -0.028,0.669 0.149,0.772l5.074,2.93c0.178,0.102 0.448,0.113 0.602,0.025l5.157,-2.978c0.154,-0.089 0.133,-0.523 0.101,-0.76c0,0 0.023,0.118 -0.069,0.172c-0.866,0.509 -5.158,2.99 -5.158,2.99Z" style="fill:#6b6b6b;stroke:#000;stroke-width:0.1px;"/><path d="M104.788,133.357c-0.282,0.152 -0.506,0.049 -0.647,-0.021c0,-0 -4.963,-2.866 -5.075,-2.933c-0.133,-0.078 -0.134,-0.197 -0.134,-0.197c0.001,0.081 -0.028,0.67 0.149,0.772l5.075,2.93c0.177,0.103 0.447,0.114 0.601,0.025l5.158,-2.978c0.154,-0.089 0.132,-0.523 0.1,-0.759c0,-0 0.023,0.117 -0.069,0.172c-0.866,0.508 -5.158,2.989 -5.158,2.989Z" style="fill:#6b6b6b;stroke:#000;stroke-width:0.1px;"/><path d="M111.931,129.233c-0.282,0.152 -0.506,0.049 -0.646,-0.021c-0,0 -4.964,-2.866 -5.076,-2.932c-0.132,-0.079 -0.134,-0.198 -0.134,-0.198c0.001,0.081 -0.028,0.67 0.15,0.773l5.074,2.929c0.178,0.103 0.447,0.114 0.601,0.025l5.158,-2.978c0.154,-0.089 0.132,-0.523 0.1,-0.759c0,-0 0.024,0.118 -0.069,0.172c-0.865,0.509 -5.158,2.989 -5.158,2.989Z" style="fill:#6b6b6b;stroke:#000;stroke-width:0.1px;"/><path d="M119.074,125.11c-0.282,0.151 -0.506,0.049 -0.646,-0.022c-0,0 -4.964,-2.866 -5.076,-2.932c-0.132,-0.079 -0.134,-0.197 -0.134,-0.197c0.001,0.081 -0.028,0.669 0.15,0.772l5.074,2.929c0.178,0.103 0.447,0.114 0.601,0.025l5.158,-2.978c0.154,-0.088 0.132,-0.522 0.101,-0.759c-0,0 0.023,0.118 -0.07,0.172c-0.865,0.509 -5.158,2.99 -5.158,2.99Z" style="fill:#6b6b6b;stroke:#000;stroke-width:0.1px;"/><path d="M126.218,120.986c-0.283,0.152 -0.507,0.049 -0.647,-0.021c-0,-0 -4.964,-2.867 -5.076,-2.933c-0.132,-0.078 -0.133,-0.197 -0.133,-0.197c0.001,0.081 -0.029,0.67 0.149,0.772l5.074,2.93c0.178,0.102 0.447,0.114 0.601,0.025l5.158,-2.978c0.154,-0.089 0.132,-0.523 0.101,-0.76c-0,0 0.023,0.118 -0.07,0.173c-0.865,0.508 -5.157,2.989 -5.157,2.989Z" style="fill:#6b6b6b;stroke:#000;stroke-width:0.1px;"/><path d="M133.361,116.862c-0.283,0.152 -0.506,0.049 -0.647,-0.021c0,-0 -4.964,-2.866 -5.076,-2.933c-0.132,-0.078 -0.133,-0.197 -0.133,-0.197c0.001,0.081 -0.029,0.67 0.149,0.772l5.074,2.93c0.178,0.103 0.447,0.114 0.601,0.025l5.158,-2.978c0.154,-0.089 0.132,-0.523 0.101,-0.759c-0,-0 0.023,0.117 -0.07,0.172c-0.865,0.508 -5.157,2.989 -5.157,2.989Z" style="fill:#6b6b6b;stroke:#000;stroke-width:0.1px;"/><path d="M72.645,160.204c-0.283,0.151 -0.506,0.049 -0.647,-0.022c0,0 -4.963,-2.866 -5.075,-2.932c-0.133,-0.079 -0.134,-0.198 -0.134,-0.198c0.001,0.081 -0.029,0.67 0.149,0.773l5.074,2.929c0.178,0.103 0.448,0.114 0.601,0.025l5.158,-2.978c0.154,-0.089 0.132,-0.523 0.101,-0.759c0,-0 0.023,0.118 -0.069,0.172c-0.866,0.509 -5.158,2.99 -5.158,2.99Z" style="fill:#6b6b6b;stroke:#000;stroke-width:0.1px;"/><path d="M79.775,156.078c-0.282,0.152 -0.506,0.049 -0.646,-0.021c-0,-0 -4.964,-2.867 -5.076,-2.933c-0.132,-0.078 -0.134,-0.197 -0.134,-0.197c0.001,0.081 -0.028,0.669 0.15,0.772l5.074,2.93c0.178,0.102 0.447,0.113 0.601,0.025l5.158,-2.978c0.154,-0.089 0.132,-0.523 0.1,-0.76c0,0 0.024,0.118 -0.069,0.173c-0.865,0.508 -5.158,2.989 -5.158,2.989Z" style="fill:#6b6b6b;stroke:#000;stroke-width:0.1px;"/><path d="M86.906,151.952c-0.283,0.152 -0.507,0.049 -0.647,-0.021c-0,0 -4.964,-2.866 -5.076,-2.933c-0.132,-0.078 -0.133,-0.197 -0.133,-0.197c0.001,0.081 -0.029,0.67 0.149,0.773l5.074,2.929c0.178,0.103 0.447,0.114 0.601,0.025l5.158,-2.978c0.154,-0.089 0.132,-0.523 0.101,-0.759c-0,-0 0.023,0.117 -0.07,0.172c-0.865,0.509 -5.157,2.989 -5.157,2.989Z" style="fill:#6b6b6b;stroke:#000;stroke-width:0.1px;"/><path d="M94.036,147.827c-0.282,0.151 -0.506,0.049 -0.647,-0.022c0,0 -4.963,-2.866 -5.075,-2.932c-0.133,-0.079 -0.134,-0.197 -0.134,-0.197c0.001,0.081 -0.028,0.669 0.149,0.772l5.075,2.929c0.177,0.103 0.447,0.114 0.601,0.025l5.158,-2.978c0.154,-0.088 0.132,-0.522 0.1,-0.759c0,0 0.023,0.118 -0.069,0.172c-0.866,0.509 -5.158,2.99 -5.158,2.99Z" style="fill:#6b6b6b;stroke:#000;stroke-width:0.1px;"/><path d="M101.166,143.701c-0.282,0.152 -0.506,0.049 -0.646,-0.021c-0,-0 -4.964,-2.866 -5.076,-2.933c-0.132,-0.078 -0.134,-0.197 -0.134,-0.197c0.001,0.081 -0.028,0.67 0.15,0.772l5.074,2.93c0.178,0.103 0.447,0.114 0.601,0.025l5.158,-2.978c0.154,-0.089 0.132,-0.523 0.101,-0.759c-0,-0 0.023,0.117 -0.07,0.172c-0.865,0.508 -5.158,2.989 -5.158,2.989Z" style="fill:#6b6b6b;stroke:#000;stroke-width:0.1px;"/><path d="M108.297,139.576c-0.283,0.151 -0.506,0.049 -0.647,-0.022c0,0 -4.964,-2.866 -5.075,-2.932c-0.133,-0.079 -0.134,-0.197 -0.134,-0.197c0.001,0.081 -0.029,0.669 0.149,0.772l5.074,2.929c0.178,0.103 0.447,0.114 0.601,0.025l5.158,-2.978c0.154,-0.089 0.132,-0.523 0.101,-0.759c-0,0 0.023,0.118 -0.07,0.172c-0.865,0.509 -5.157,2.99 -5.157,2.99Z" style="fill:#6b6b6b;stroke:#000;stroke-width:0.1px;"/><path d="M115.427,135.45c-0.282,0.152 -0.506,0.049 -0.646,-0.021c-0,-0 -4.964,-2.867 -5.076,-2.933c-0.132,-0.078 -0.134,-0.197 -0.134,-0.197c0.001,0.081 -0.028,0.67 0.15,0.772l5.074,2.93c0.177,0.102 0.447,0.114 0.601,0.025l5.158,-2.978c0.154,-0.089 0.132,-0.523 0.1,-0.76c0,0 0.023,0.118 -0.069,0.173c-0.865,0.508 -5.158,2.989 -5.158,2.989Z" style="fill:#6b6b6b;stroke:#000;stroke-width:0.1px;"/><path d="M122.558,131.324c-0.283,0.152 -0.507,0.049 -0.647,-0.021c-0,0 -4.964,-2.866 -5.076,-2.932c-0.132,-0.079 -0.133,-0.198 -0.133,-0.198c0.001,0.081 -0.029,0.67 0.149,0.773l5.074,2.929c0.178,0.103 0.447,0.114 0.601,0.025l5.158,-2.978c0.154,-0.089 0.132,-0.523 0.101,-0.759c-0,-0 0.023,0.118 -0.07,0.172c-0.865,0.509 -5.157,2.989 -5.157,2.989Z" style="fill:#6b6b6b;stroke:#000;stroke-width:0.1px;"/><path d="M129.688,127.199c-0.282,0.152 -0.506,0.049 -0.647,-0.021c0,-0 -4.963,-2.867 -5.075,-2.933c-0.133,-0.079 -0.134,-0.197 -0.134,-0.197c0.001,0.081 -0.028,0.669 0.149,0.772l5.074,2.93c0.178,0.102 0.448,0.113 0.602,0.024l5.157,-2.977c0.154,-0.089 0.133,-0.523 0.101,-0.76c0,0 0.023,0.118 -0.069,0.172c-0.866,0.509 -5.158,2.99 -5.158,2.99Z" style="fill:#6b6b6b;stroke:#000;stroke-width:0.1px;"/><path d="M136.818,123.073c-0.282,0.152 -0.506,0.049 -0.646,-0.021c-0,-0 -4.964,-2.866 -5.076,-2.933c-0.132,-0.078 -0.134,-0.197 -0.134,-0.197c0.001,0.081 -0.028,0.67 0.15,0.772l5.074,2.93c0.178,0.103 0.447,0.114 0.601,0.025l5.158,-2.978c0.154,-0.089 0.132,-0.523 0.101,-0.759c-0,-0 0.023,0.117 -0.07,0.172c-0.865,0.508 -5.158,2.989 -5.158,2.989Z" style="fill:#6b6b6b;stroke:#000;stroke-width:0.1px;"/><path d="M83.401,162.239c-0.282,0.152 -0.506,0.049 -0.647,-0.021c0,-0 -4.963,-2.866 -5.075,-2.933c-0.133,-0.078 -0.134,-0.197 -0.134,-0.197c0.001,0.081 -0.028,0.67 0.149,0.772l5.075,2.93c0.177,0.103 0.447,0.114 0.601,0.025l5.158,-2.978c0.154,-0.089 0.132,-0.523 0.1,-0.759c0,-0 0.023,0.117 -0.069,0.172c-0.866,0.508 -5.158,2.989 -5.158,2.989Z" style="fill:#6b6b6b;stroke:#000;stroke-width:0.1px;"/><path d="M90.536,158.118c-0.282,0.152 -0.506,0.049 -0.646,-0.021c-0,-0 -4.964,-2.866 -5.076,-2.933c-0.132,-0.078 -0.134,-0.197 -0.134,-0.197c0.001,0.081 -0.028,0.67 0.15,0.772l5.074,2.93c0.178,0.102 0.447,0.114 0.601,0.025l5.158,-2.978c0.154,-0.089 0.132,-0.523 0.1,-0.759c0,-0 0.024,0.117 -0.069,0.172c-0.865,0.508 -5.158,2.989 -5.158,2.989Z" style="fill:#6b6b6b;stroke:#000;stroke-width:0.1px;"/><path d="M97.672,153.997c-0.283,0.152 -0.507,0.049 -0.647,-0.021c-0,-0 -4.964,-2.867 -5.076,-2.933c-0.132,-0.078 -0.133,-0.197 -0.133,-0.197c0.001,0.081 -0.029,0.669 0.149,0.772l5.074,2.93c0.178,0.102 0.447,0.113 0.601,0.025l5.158,-2.978c0.154,-0.089 0.132,-0.523 0.101,-0.76c-0,0 0.023,0.118 -0.07,0.172c-0.865,0.509 -5.157,2.99 -5.157,2.99Z" style="fill:#6b6b6b;stroke:#000;stroke-width:0.1px;"/><path d="M126.213,137.512c-0.283,0.152 -0.507,0.049 -0.647,-0.021c-0,-0 -4.964,-2.866 -5.076,-2.933c-0.132,-0.078 -0.133,-0.197 -0.133,-0.197c0.001,0.081 -0.029,0.67 0.149,0.772l5.074,2.93c0.178,0.102 0.447,0.114 0.601,0.025l5.158,-2.978c0.154,-0.089 0.132,-0.523 0.101,-0.759c-0,-0 0.023,0.117 -0.07,0.172c-0.865,0.508 -5.157,2.989 -5.157,2.989Z" style="fill:#6b6b6b;stroke:#000;stroke-width:0.1px;"/><path d="M133.348,133.391c-0.283,0.152 -0.506,0.049 -0.647,-0.021c0,-0 -4.963,-2.867 -5.075,-2.933c-0.133,-0.078 -0.134,-0.197 -0.134,-0.197c0.001,0.081 -0.029,0.669 0.149,0.772l5.074,2.93c0.178,0.102 0.447,0.113 0.601,0.025l5.158,-2.978c0.154,-0.089 0.132,-0.523 0.101,-0.76c0,0 0.023,0.118 -0.07,0.172c-0.865,0.509 -5.157,2.99 -5.157,2.99Z" style="fill:#6b6b6b;stroke:#000;stroke-width:0.1px;"/><path d="M140.483,129.27c-0.282,0.151 -0.506,0.049 -0.647,-0.022c0,0 -4.963,-2.866 -5.075,-2.932c-0.133,-0.079 -0.134,-0.197 -0.134,-0.197c0.001,0.081 -0.028,0.669 0.149,0.772l5.075,2.929c0.177,0.103 0.447,0.114 0.601,0.025l5.158,-2.978c0.154,-0.089 0.132,-0.522 0.1,-0.759c0,0 0.023,0.118 -0.069,0.172c-0.866,0.509 -5.158,2.99 -5.158,2.99Z" style="fill:#6b6b6b;stroke:#000;stroke-width:0.1px;"/><path d="M69.181,170.453c-0.219,0.134 -0.462,0.123 -0.723,0.005l-5.006,-2.891c-0.153,-0.101 -0.181,-0.163 -0.176,-0.215c-0,0 -0.034,0.657 0.143,0.759l5.075,2.93c0.177,0.103 0.447,0.114 0.601,0.025l12.303,-7.104c0.154,-0.088 0.109,-0.717 0.109,-0.717c0.004,0.048 -0.043,0.106 -0.162,0.179l-12.164,7.029Z" style="fill:#6b6b6b;stroke:#000;stroke-width:0.1px;"/><path d="M62.075,166.289c-0.242,0.142 -0.478,0.131 -0.704,0.013c0,0 -4.232,-2.445 -5.124,-2.963c-0.065,-0.038 -0.073,-0.156 -0.073,-0.156c-0.005,0.099 -0.032,0.661 0.145,0.763l5.075,2.93c0.177,0.102 0.447,0.114 0.601,0.025l8.621,-4.978c0.154,-0.088 0.101,-0.517 0.107,-0.704c0,-0 -0.006,0.08 -0.146,0.161c-1.451,0.837 -8.502,4.909 -8.502,4.909Z" style="fill:#6b6b6b;stroke:#000;stroke-width:0.1px;"/><path d="M144.092,118.954c-0.248,0.145 -0.486,0.135 -0.712,0.018c-0,0 -4.233,-2.445 -5.124,-2.963c-0.065,-0.038 -0.071,-0.158 -0.071,-0.158c-0.008,0.101 -0.046,0.669 0.131,0.772l5.075,2.929c0.177,0.103 0.45,0.112 0.607,0.021l8.823,-5.094c0.158,-0.091 0.113,-0.523 0.123,-0.713c0,-0 -0.008,0.081 -0.151,0.164c-1.485,0.856 -8.701,5.024 -8.701,5.024Z" style="fill:#6b6b6b;stroke:#000;stroke-width:0.1px;"/></g><path d="M40.513,145.715c-0.158,0.1 -0.418,0.135 -0.66,-0.004c-0.051,-0.031 -1.754,-1.005 -1.884,-1.088c-0.138,-0.089 -0.127,-0.166 -0.127,-0.166c0.002,0.053 -0.031,0.639 0.147,0.742l1.874,1.082c0.178,0.102 0.447,0.114 0.601,0.025l5.158,-2.978c0.154,-0.089 0.099,-0.599 0.103,-0.716c-0,0 -0.016,0.1 -0.079,0.137c-0.137,0.079 -5.133,2.966 -5.133,2.966Z" style="fill:#0f0f0f;stroke:#000;stroke-width:0.1px;"/><path d="M40.545,147.75c-0.178,-0.102 -0.447,-0.114 -0.601,-0.025l-5.158,2.978c-0.154,0.089 -0.134,0.245 0.043,0.347l5.075,2.93c0.177,0.102 0.447,0.114 0.601,0.025l5.158,-2.978c0.154,-0.089 0.134,-0.245 -0.044,-0.347l-5.074,-2.93Z" style="fill:#0f0f0f;stroke:#000;stroke-width:0.1px;"/><path d="M58.398,145.747c-0.178,-0.103 -0.447,-0.114 -0.601,-0.025l-5.158,2.978c-0.154,0.088 -0.135,0.244 0.043,0.347l5.074,2.929c0.178,0.103 0.448,0.114 0.601,0.025l5.158,-2.978c0.154,-0.089 0.135,-0.244 -0.043,-0.347l-5.074,-2.929Z" style="fill:#0f0f0f;stroke:#000;stroke-width:0.1px;"/><path d="M65.53,141.623c-0.178,-0.103 -0.447,-0.114 -0.601,-0.025l-5.158,2.978c-0.154,0.089 -0.134,0.244 0.043,0.347l5.075,2.93c0.177,0.102 0.447,0.113 0.601,0.025l5.158,-2.978c0.154,-0.089 0.134,-0.245 -0.044,-0.347l-5.074,-2.93Z" style="fill:#0f0f0f;stroke:#000;stroke-width:0.1px;"/><path d="M72.662,137.5c-0.177,-0.103 -0.447,-0.114 -0.601,-0.025l-5.158,2.978c-0.154,0.089 -0.134,0.244 0.043,0.347l5.075,2.929c0.177,0.103 0.447,0.114 0.601,0.025l5.158,-2.978c0.154,-0.089 0.134,-0.244 -0.043,-0.347l-5.075,-2.929Z" style="fill:#0f0f0f;stroke:#000;stroke-width:0.1px;"/><path d="M79.794,133.376c-0.177,-0.103 -0.447,-0.114 -0.601,-0.025l-5.158,2.978c-0.154,0.089 -0.134,0.245 0.044,0.347l5.074,2.93c0.178,0.102 0.447,0.114 0.601,0.025l5.158,-2.978c0.154,-0.089 0.134,-0.245 -0.043,-0.347l-5.075,-2.93Z" style="fill:#0f0f0f;stroke:#000;stroke-width:0.1px;"/><path d="M86.927,129.253c-0.178,-0.103 -0.448,-0.114 -0.601,-0.025l-5.158,2.978c-0.154,0.089 -0.135,0.244 0.043,0.347l5.074,2.929c0.178,0.103 0.447,0.114 0.601,0.025l5.158,-2.978c0.154,-0.089 0.135,-0.244 -0.043,-0.347l-5.074,-2.929Z" style="fill:#0f0f0f;stroke:#000;stroke-width:0.1px;"/><path d="M94.059,125.129c-0.178,-0.102 -0.447,-0.114 -0.601,-0.025l-5.158,2.978c-0.154,0.089 -0.135,0.245 0.043,0.347l5.074,2.93c0.178,0.102 0.447,0.114 0.601,0.025l5.158,-2.978c0.154,-0.089 0.135,-0.245 -0.043,-0.347l-5.074,-2.93Z" style="fill:#0f0f0f;stroke:#000;stroke-width:0.1px;"/><path d="M101.191,121.006c-0.178,-0.103 -0.447,-0.114 -0.601,-0.025l-5.158,2.978c-0.154,0.089 -0.135,0.244 0.043,0.347l5.074,2.929c0.178,0.103 0.447,0.114 0.601,0.025l5.158,-2.978c0.154,-0.089 0.135,-0.244 -0.043,-0.347l-5.074,-2.929Z" style="fill:#0f0f0f;stroke:#000;stroke-width:0.1px;"/><path d="M108.323,116.882c-0.178,-0.102 -0.447,-0.114 -0.601,-0.025l-5.158,2.978c-0.154,0.089 -0.135,0.245 0.043,0.347l5.074,2.93c0.178,0.103 0.447,0.114 0.601,0.025l5.158,-2.978c0.154,-0.089 0.135,-0.245 -0.043,-0.347l-5.074,-2.93Z" style="fill:#0f0f0f;stroke:#000;stroke-width:0.1px;"/><path d="M115.455,112.759c-0.178,-0.103 -0.447,-0.114 -0.601,-0.025l-5.158,2.978c-0.154,0.089 -0.135,0.244 0.043,0.347l5.074,2.929c0.178,0.103 0.447,0.114 0.601,0.025l5.158,-2.978c0.154,-0.089 0.135,-0.244 -0.043,-0.347l-5.074,-2.929Z" style="fill:#0f0f0f;stroke:#000;stroke-width:0.1px;"/><path d="M122.587,108.635c-0.178,-0.102 -0.447,-0.113 -0.601,-0.025l-5.158,2.978c-0.154,0.089 -0.134,0.245 0.043,0.347l5.074,2.93c0.178,0.103 0.448,0.114 0.602,0.025l5.157,-2.978c0.154,-0.089 0.135,-0.244 -0.043,-0.347l-5.074,-2.93Z" style="fill:#0f0f0f;stroke:#000;stroke-width:0.1px;"/><path d="M54.795,155.981c-0.178,-0.103 -0.447,-0.114 -0.601,-0.025l-5.158,2.978c-0.154,0.089 -0.134,0.244 0.043,0.347l5.074,2.93c0.178,0.102 0.448,0.113 0.602,0.024l5.158,-2.978c0.153,-0.088 0.134,-0.244 -0.044,-0.347l-5.074,-2.929Z" style="fill:#0f0f0f;stroke:#000;stroke-width:0.1px;"/><path d="M61.938,151.857c-0.177,-0.102 -0.447,-0.114 -0.601,-0.025l-5.158,2.978c-0.154,0.089 -0.134,0.245 0.044,0.347l5.074,2.93c0.177,0.102 0.447,0.114 0.601,0.025l5.158,-2.978c0.154,-0.089 0.134,-0.245 -0.043,-0.347l-5.075,-2.93Z" style="fill:#0f0f0f;stroke:#000;stroke-width:0.1px;"/><path d="M69.082,147.733c-0.178,-0.102 -0.448,-0.113 -0.602,-0.024l-5.157,2.977c-0.154,0.089 -0.135,0.245 0.043,0.348l5.074,2.929c0.178,0.103 0.447,0.114 0.601,0.025l5.158,-2.978c0.154,-0.089 0.134,-0.244 -0.043,-0.347l-5.074,-2.93Z" style="fill:#0f0f0f;stroke:#000;stroke-width:0.1px;"/><path d="M76.225,143.61c-0.178,-0.103 -0.447,-0.114 -0.601,-0.025l-5.158,2.978c-0.154,0.089 -0.135,0.244 0.043,0.347l5.074,2.929c0.178,0.103 0.447,0.114 0.601,0.025l5.158,-2.978c0.154,-0.089 0.135,-0.244 -0.043,-0.347l-5.074,-2.929Z" style="fill:#0f0f0f;stroke:#000;stroke-width:0.1px;"/><path d="M83.368,139.486c-0.178,-0.103 -0.447,-0.114 -0.601,-0.025l-5.158,2.978c-0.154,0.089 -0.135,0.244 0.043,0.347l5.074,2.93c0.178,0.102 0.447,0.113 0.601,0.025l5.158,-2.978c0.154,-0.089 0.135,-0.245 -0.043,-0.347l-5.074,-2.93Z" style="fill:#0f0f0f;stroke:#000;stroke-width:0.1px;"/><path d="M90.511,135.362c-0.178,-0.102 -0.447,-0.114 -0.601,-0.025l-5.158,2.978c-0.154,0.089 -0.135,0.245 0.043,0.347l5.074,2.93c0.178,0.103 0.447,0.114 0.601,0.025l5.158,-2.978c0.154,-0.089 0.135,-0.245 -0.043,-0.347l-5.074,-2.93Z" style="fill:#0f0f0f;stroke:#000;stroke-width:0.1px;"/><path d="M97.654,131.239c-0.178,-0.103 -0.447,-0.114 -0.601,-0.025l-5.158,2.978c-0.154,0.088 -0.134,0.244 0.043,0.347l5.074,2.929c0.178,0.103 0.448,0.114 0.602,0.025l5.157,-2.978c0.154,-0.089 0.135,-0.244 -0.043,-0.347l-5.074,-2.929Z" style="fill:#0f0f0f;stroke:#000;stroke-width:0.1px;"/><path d="M104.797,127.115c-0.177,-0.103 -0.447,-0.114 -0.601,-0.025l-5.158,2.978c-0.154,0.089 -0.134,0.244 0.043,0.347l5.075,2.929c0.177,0.103 0.447,0.114 0.601,0.025l5.158,-2.978c0.154,-0.088 0.134,-0.244 -0.044,-0.347l-5.074,-2.929Z" style="fill:#0f0f0f;stroke:#000;stroke-width:0.1px;"/><path d="M111.94,122.991c-0.177,-0.103 -0.447,-0.114 -0.601,-0.025l-5.158,2.978c-0.153,0.089 -0.134,0.245 0.044,0.347l5.074,2.93c0.178,0.102 0.447,0.114 0.601,0.025l5.158,-2.978c0.154,-0.089 0.134,-0.245 -0.043,-0.347l-5.075,-2.93Z" style="fill:#0f0f0f;stroke:#000;stroke-width:0.1px;"/><path d="M119.084,118.867c-0.178,-0.102 -0.447,-0.113 -0.601,-0.025l-5.158,2.978c-0.154,0.089 -0.135,0.245 0.043,0.347l5.074,2.93c0.178,0.103 0.447,0.114 0.601,0.025l5.158,-2.978c0.154,-0.089 0.135,-0.244 -0.043,-0.347l-5.074,-2.93Z" style="fill:#0f0f0f;stroke:#000;stroke-width:0.1px;"/><path d="M126.227,114.744c-0.178,-0.103 -0.447,-0.114 -0.601,-0.025l-5.158,2.978c-0.154,0.089 -0.135,0.244 0.043,0.347l5.074,2.929c0.178,0.103 0.447,0.114 0.601,0.025l5.158,-2.978c0.154,-0.089 0.135,-0.244 -0.043,-0.347l-5.074,-2.929Z" style="fill:#0f0f0f;stroke:#000;stroke-width:0.1px;"/><path d="M133.37,110.62c-0.178,-0.103 -0.447,-0.114 -0.601,-0.025l-5.158,2.978c-0.154,0.089 -0.135,0.244 0.043,0.347l5.074,2.93c0.178,0.102 0.447,0.113 0.601,0.024l5.158,-2.977c0.154,-0.089 0.135,-0.245 -0.043,-0.347l-5.074,-2.93Z" style="fill:#0f0f0f;stroke:#000;stroke-width:0.1px;"/><path d="M72.654,153.961c-0.178,-0.102 -0.447,-0.114 -0.601,-0.025l-5.158,2.978c-0.154,0.089 -0.135,0.245 0.043,0.347l5.074,2.93c0.178,0.102 0.448,0.114 0.601,0.025l5.158,-2.978c0.154,-0.089 0.135,-0.245 -0.043,-0.347l-5.074,-2.93Z" style="fill:#0f0f0f;stroke:#000;stroke-width:0.1px;"/><path d="M79.785,149.836c-0.178,-0.103 -0.448,-0.114 -0.602,-0.025l-5.158,2.978c-0.153,0.089 -0.134,0.244 0.044,0.347l5.074,2.929c0.178,0.103 0.447,0.114 0.601,0.025l5.158,-2.978c0.154,-0.089 0.134,-0.244 -0.043,-0.347l-5.074,-2.929Z" style="fill:#0f0f0f;stroke:#000;stroke-width:0.1px;"/><path d="M86.915,145.71c-0.178,-0.103 -0.447,-0.114 -0.601,-0.025l-5.158,2.978c-0.154,0.089 -0.135,0.244 0.043,0.347l5.074,2.93c0.178,0.102 0.447,0.113 0.601,0.025l5.158,-2.978c0.154,-0.089 0.135,-0.245 -0.043,-0.347l-5.074,-2.93Z" style="fill:#0f0f0f;stroke:#000;stroke-width:0.1px;"/><path d="M94.045,141.584c-0.178,-0.102 -0.447,-0.113 -0.601,-0.024l-5.158,2.977c-0.154,0.089 -0.134,0.245 0.043,0.348l5.075,2.929c0.177,0.103 0.447,0.114 0.601,0.025l5.158,-2.978c0.154,-0.089 0.134,-0.244 -0.044,-0.347l-5.074,-2.93Z" style="fill:#0f0f0f;stroke:#000;stroke-width:0.1px;"/><path d="M101.176,137.459c-0.178,-0.103 -0.447,-0.114 -0.601,-0.025l-5.158,2.978c-0.154,0.089 -0.135,0.244 0.043,0.347l5.074,2.929c0.178,0.103 0.447,0.114 0.601,0.025l5.158,-2.978c0.154,-0.088 0.135,-0.244 -0.043,-0.347l-5.074,-2.929Z" style="fill:#0f0f0f;stroke:#000;stroke-width:0.1px;"/><path d="M108.306,133.333c-0.178,-0.102 -0.447,-0.114 -0.601,-0.025l-5.158,2.978c-0.154,0.089 -0.135,0.245 0.043,0.347l5.074,2.93c0.178,0.103 0.447,0.114 0.601,0.025l5.158,-2.978c0.154,-0.089 0.135,-0.245 -0.043,-0.347l-5.074,-2.93Z" style="fill:#0f0f0f;stroke:#000;stroke-width:0.1px;"/><path d="M115.436,129.208c-0.177,-0.103 -0.447,-0.114 -0.601,-0.025l-5.158,2.978c-0.154,0.089 -0.134,0.244 0.044,0.347l5.074,2.929c0.177,0.103 0.447,0.114 0.601,0.025l5.158,-2.978c0.154,-0.089 0.134,-0.244 -0.043,-0.347l-5.075,-2.929Z" style="fill:#0f0f0f;stroke:#000;stroke-width:0.1px;"/><path d="M122.567,125.082c-0.178,-0.103 -0.447,-0.114 -0.601,-0.025l-5.158,2.978c-0.154,0.089 -0.135,0.245 0.043,0.347l5.074,2.93c0.178,0.102 0.447,0.114 0.601,0.025l5.158,-2.978c0.154,-0.089 0.135,-0.245 -0.043,-0.347l-5.074,-2.93Z" style="fill:#0f0f0f;stroke:#000;stroke-width:0.1px;"/><path d="M129.697,120.957c-0.178,-0.103 -0.447,-0.114 -0.601,-0.025l-5.158,2.978c-0.154,0.088 -0.134,0.244 0.043,0.347l5.074,2.929c0.178,0.103 0.448,0.114 0.602,0.025l5.157,-2.978c0.154,-0.089 0.135,-0.244 -0.043,-0.347l-5.074,-2.929Z" style="fill:#0f0f0f;stroke:#000;stroke-width:0.1px;"/><path d="M136.828,116.831c-0.178,-0.103 -0.448,-0.114 -0.601,-0.025l-5.158,2.978c-0.154,0.089 -0.135,0.244 0.043,0.347l5.074,2.93c0.178,0.102 0.447,0.113 0.601,0.024l5.158,-2.977c0.154,-0.089 0.135,-0.245 -0.043,-0.348l-5.074,-2.929Z" style="fill:#0f0f0f;stroke:#000;stroke-width:0.1px;"/><path d="M83.41,155.997c-0.178,-0.103 -0.447,-0.114 -0.601,-0.025l-5.158,2.978c-0.154,0.089 -0.134,0.244 0.043,0.347l5.075,2.93c0.177,0.102 0.447,0.113 0.601,0.024l5.158,-2.977c0.154,-0.089 0.134,-0.245 -0.044,-0.347l-5.074,-2.93Z" style="fill:#0f0f0f;stroke:#000;stroke-width:0.1px;"/><path d="M90.546,151.876c-0.178,-0.103 -0.448,-0.114 -0.602,-0.025l-5.158,2.978c-0.153,0.089 -0.134,0.244 0.044,0.347l5.074,2.929c0.178,0.103 0.447,0.114 0.601,0.025l5.158,-2.978c0.154,-0.089 0.134,-0.244 -0.043,-0.347l-5.074,-2.929Z" style="fill:#0f0f0f;stroke:#000;stroke-width:0.1px;"/><path d="M97.681,147.755c-0.178,-0.103 -0.447,-0.114 -0.601,-0.025l-5.158,2.978c-0.154,0.088 -0.135,0.244 0.043,0.347l5.074,2.929c0.178,0.103 0.447,0.114 0.601,0.025l5.158,-2.978c0.154,-0.089 0.135,-0.244 -0.043,-0.347l-5.074,-2.929Z" style="fill:#0f0f0f;stroke:#000;stroke-width:0.1px;"/><path d="M126.222,131.27c-0.178,-0.103 -0.447,-0.114 -0.601,-0.025l-5.158,2.978c-0.154,0.089 -0.135,0.244 0.043,0.347l5.074,2.929c0.178,0.103 0.447,0.114 0.601,0.025l5.158,-2.978c0.154,-0.089 0.135,-0.244 -0.043,-0.347l-5.074,-2.929Z" style="fill:#0f0f0f;stroke:#000;stroke-width:0.1px;"/><path d="M133.357,127.149c-0.178,-0.103 -0.447,-0.114 -0.601,-0.025l-5.158,2.978c-0.154,0.088 -0.135,0.244 0.043,0.347l5.074,2.929c0.178,0.103 0.447,0.114 0.601,0.025l5.158,-2.978c0.154,-0.089 0.135,-0.244 -0.043,-0.347l-5.074,-2.929Z" style="fill:#0f0f0f;stroke:#000;stroke-width:0.1px;"/><path d="M140.492,123.027c-0.177,-0.102 -0.447,-0.113 -0.601,-0.025l-5.158,2.978c-0.154,0.089 -0.134,0.245 0.043,0.347l5.075,2.93c0.177,0.103 0.447,0.114 0.601,0.025l5.158,-2.978c0.154,-0.089 0.134,-0.244 -0.043,-0.347l-5.075,-2.93Z" style="fill:#0f0f0f;stroke:#000;stroke-width:0.1px;"/><path d="M47.68,143.633c-0.178,-0.103 -0.447,-0.114 -0.601,-0.025l-5.158,2.978c-0.154,0.089 -0.135,0.244 0.043,0.347l5.074,2.929c0.178,0.103 0.447,0.114 0.601,0.025l5.158,-2.978c0.154,-0.089 0.135,-0.244 -0.043,-0.347l-5.074,-2.929Z" style="fill:#0f0f0f;stroke:#000;stroke-width:0.1px;"/><path d="M54.814,139.515c-0.178,-0.102 -0.447,-0.114 -0.601,-0.025l-5.158,2.978c-0.154,0.089 -0.135,0.245 0.043,0.347l5.074,2.93c0.178,0.103 0.447,0.114 0.601,0.025l5.158,-2.978c0.154,-0.089 0.135,-0.245 -0.043,-0.347l-5.074,-2.93Z" style="fill:#0f0f0f;stroke:#000;stroke-width:0.1px;"/><path d="M61.948,135.398c-0.177,-0.103 -0.447,-0.114 -0.601,-0.025l-5.158,2.978c-0.154,0.089 -0.134,0.244 0.043,0.347l5.075,2.929c0.177,0.103 0.447,0.114 0.601,0.025l5.158,-2.978c0.154,-0.089 0.134,-0.244 -0.044,-0.347l-5.074,-2.929Z" style="fill:#0f0f0f;stroke:#000;stroke-width:0.1px;"/><path d="M69.083,131.28c-0.178,-0.102 -0.447,-0.114 -0.601,-0.025l-5.158,2.978c-0.154,0.089 -0.135,0.245 0.043,0.347l5.074,2.93c0.178,0.103 0.447,0.114 0.601,0.025l5.158,-2.978c0.154,-0.089 0.135,-0.245 -0.043,-0.347l-5.074,-2.93Z" style="fill:#0f0f0f;stroke:#000;stroke-width:0.1px;"/><path d="M76.217,127.163c-0.178,-0.103 -0.447,-0.114 -0.601,-0.025l-5.158,2.978c-0.154,0.089 -0.135,0.244 0.043,0.347l5.074,2.929c0.178,0.103 0.447,0.114 0.601,0.025l5.158,-2.978c0.154,-0.088 0.135,-0.244 -0.043,-0.347l-5.074,-2.929Z" style="fill:#0f0f0f;stroke:#000;stroke-width:0.1px;"/><path d="M83.351,123.045c-0.177,-0.102 -0.447,-0.113 -0.601,-0.025l-5.158,2.978c-0.154,0.089 -0.134,0.245 0.044,0.347l5.074,2.93c0.177,0.103 0.447,0.114 0.601,0.025l5.158,-2.978c0.154,-0.089 0.134,-0.244 -0.043,-0.347l-5.075,-2.93Z" style="fill:#0f0f0f;stroke:#000;stroke-width:0.1px;"/><path d="M90.486,118.928c-0.178,-0.103 -0.447,-0.114 -0.601,-0.025l-5.158,2.978c-0.154,0.089 -0.135,0.244 0.043,0.347l5.074,2.929c0.178,0.103 0.447,0.114 0.601,0.025l5.158,-2.978c0.154,-0.088 0.135,-0.244 -0.043,-0.347l-5.074,-2.929Z" style="fill:#0f0f0f;stroke:#000;stroke-width:0.1px;"/><path d="M97.62,114.81c-0.178,-0.102 -0.447,-0.113 -0.601,-0.025l-5.158,2.978c-0.154,0.089 -0.135,0.245 0.043,0.347l5.074,2.93c0.178,0.103 0.447,0.114 0.601,0.025l5.158,-2.978c0.154,-0.089 0.135,-0.244 -0.043,-0.347l-5.074,-2.93Z" style="fill:#0f0f0f;stroke:#000;stroke-width:0.1px;"/><path d="M104.754,110.693c-0.177,-0.103 -0.447,-0.114 -0.601,-0.025l-5.158,2.978c-0.154,0.089 -0.134,0.244 0.044,0.347l5.074,2.929c0.177,0.103 0.447,0.114 0.601,0.025l5.158,-2.978c0.154,-0.088 0.134,-0.244 -0.043,-0.347l-5.075,-2.929Z" style="fill:#0f0f0f;stroke:#000;stroke-width:0.1px;"/><path d="M111.889,106.575c-0.178,-0.102 -0.447,-0.113 -0.601,-0.025l-5.158,2.978c-0.154,0.089 -0.135,0.245 0.043,0.347l5.074,2.93c0.178,0.103 0.447,0.114 0.601,0.025l5.158,-2.978c0.154,-0.089 0.135,-0.244 -0.043,-0.347l-5.074,-2.93Z" style="fill:#0f0f0f;stroke:#000;stroke-width:0.1px;"/><path d="M119.023,102.458c-0.178,-0.103 -0.447,-0.114 -0.601,-0.025l-5.158,2.978c-0.154,0.089 -0.135,0.244 0.043,0.347l5.074,2.93c0.178,0.102 0.448,0.113 0.601,0.024l5.158,-2.978c0.154,-0.088 0.135,-0.244 -0.043,-0.347l-5.074,-2.929Z" style="fill:#0f0f0f;stroke:#000;stroke-width:0.1px;"/><path d="M126.157,98.34c-0.177,-0.102 -0.447,-0.113 -0.601,-0.024l-5.158,2.977c-0.154,0.089 -0.134,0.245 0.044,0.347l5.074,2.93c0.178,0.103 0.447,0.114 0.601,0.025l5.158,-2.978c0.154,-0.089 0.134,-0.244 -0.043,-0.347l-5.075,-2.93Z" style="fill:#0f0f0f;stroke:#000;stroke-width:0.1px;"/><path d="M36.575,145.458c-0.178,-0.103 -0.447,-0.114 -0.601,-0.025l-5.158,2.978c-0.154,0.089 -0.135,0.244 0.043,0.347l1.874,1.082c0.177,0.102 0.447,0.114 0.601,0.025l5.158,-2.978c0.154,-0.089 0.134,-0.245 -0.044,-0.347l-1.873,-1.082Z" style="fill:#0f0f0f;stroke:#000;stroke-width:0.1px;"/><path d="M43.705,141.336c-0.178,-0.103 -0.447,-0.114 -0.601,-0.025l-5.158,2.978c-0.154,0.089 -0.135,0.244 0.043,0.347l1.874,1.081c0.178,0.103 0.447,0.114 0.601,0.025l5.158,-2.978c0.154,-0.089 0.134,-0.244 -0.043,-0.347l-1.874,-1.081Z" style="fill:#0f0f0f;stroke:#000;stroke-width:0.1px;"/><path d="M50.835,137.213c-0.178,-0.102 -0.447,-0.114 -0.601,-0.025l-5.158,2.978c-0.154,0.089 -0.134,0.245 0.043,0.347l1.874,1.082c0.178,0.103 0.447,0.114 0.601,0.025l5.158,-2.978c0.154,-0.089 0.135,-0.244 -0.043,-0.347l-1.874,-1.082Z" style="fill:#0f0f0f;stroke:#000;stroke-width:0.1px;"/><path d="M57.965,133.091c-0.177,-0.103 -0.447,-0.114 -0.601,-0.025l-5.158,2.978c-0.154,0.089 -0.134,0.244 0.044,0.347l1.873,1.082c0.178,0.102 0.447,0.114 0.601,0.025l5.158,-2.978c0.154,-0.089 0.135,-0.245 -0.043,-0.347l-1.874,-1.082Z" style="fill:#0f0f0f;stroke:#000;stroke-width:0.1px;"/><path d="M65.096,128.969c-0.178,-0.103 -0.448,-0.114 -0.601,-0.025l-5.158,2.978c-0.154,0.089 -0.135,0.244 0.043,0.347l1.873,1.081c0.178,0.103 0.447,0.114 0.601,0.025l5.158,-2.978c0.154,-0.089 0.135,-0.244 -0.043,-0.347l-1.873,-1.081Z" style="fill:#0f0f0f;stroke:#000;stroke-width:0.1px;"/><path d="M72.226,124.846c-0.178,-0.102 -0.447,-0.114 -0.601,-0.025l-5.158,2.978c-0.154,0.089 -0.135,0.245 0.043,0.347l1.874,1.082c0.177,0.103 0.447,0.114 0.601,0.025l5.158,-2.978c0.154,-0.089 0.134,-0.244 -0.044,-0.347l-1.873,-1.082Z" style="fill:#0f0f0f;stroke:#000;stroke-width:0.1px;"/><path d="M79.356,120.724c-0.178,-0.103 -0.447,-0.114 -0.601,-0.025l-5.158,2.978c-0.154,0.089 -0.135,0.244 0.043,0.347l1.874,1.082c0.177,0.102 0.447,0.113 0.601,0.025l5.158,-2.978c0.154,-0.089 0.134,-0.245 -0.043,-0.347l-1.874,-1.082Z" style="fill:#0f0f0f;stroke:#000;stroke-width:0.1px;"/><path d="M86.486,116.602c-0.178,-0.103 -0.447,-0.114 -0.601,-0.025l-5.158,2.978c-0.154,0.088 -0.134,0.244 0.043,0.347l1.874,1.081c0.178,0.103 0.447,0.114 0.601,0.025l5.158,-2.978c0.154,-0.089 0.135,-0.244 -0.043,-0.347l-1.874,-1.081Z" style="fill:#0f0f0f;stroke:#000;stroke-width:0.1px;"/><path d="M93.616,112.479c-0.177,-0.102 -0.447,-0.114 -0.601,-0.025l-5.158,2.978c-0.154,0.089 -0.134,0.245 0.043,0.347l1.874,1.082c0.178,0.103 0.447,0.114 0.601,0.025l5.158,-2.978c0.154,-0.089 0.135,-0.244 -0.043,-0.347l-1.874,-1.082Z" style="fill:#0f0f0f;stroke:#000;stroke-width:0.1px;"/><path d="M100.747,108.357c-0.178,-0.103 -0.448,-0.114 -0.602,-0.025l-5.157,2.978c-0.154,0.089 -0.135,0.244 0.043,0.347l1.873,1.082c0.178,0.102 0.447,0.113 0.601,0.025l5.158,-2.978c0.154,-0.089 0.135,-0.245 -0.043,-0.347l-1.873,-1.082Z" style="fill:#0f0f0f;stroke:#000;stroke-width:0.1px;"/><path d="M107.877,104.235c-0.178,-0.103 -0.447,-0.114 -0.601,-0.025l-5.158,2.978c-0.154,0.088 -0.135,0.244 0.043,0.347l1.873,1.081c0.178,0.103 0.448,0.114 0.602,0.025l5.157,-2.978c0.154,-0.089 0.135,-0.244 -0.043,-0.347l-1.873,-1.081Z" style="fill:#0f0f0f;stroke:#000;stroke-width:0.1px;"/><path d="M115.007,100.112c-0.178,-0.102 -0.447,-0.114 -0.601,-0.025l-5.158,2.978c-0.154,0.089 -0.135,0.245 0.043,0.347l1.874,1.082c0.177,0.103 0.447,0.114 0.601,0.025l5.158,-2.978c0.154,-0.089 0.134,-0.244 -0.043,-0.347l-1.874,-1.082Z" style="fill:#0f0f0f;stroke:#000;stroke-width:0.1px;"/><path d="M122.137,95.99c-0.178,-0.103 -0.447,-0.114 -0.601,-0.025l-5.158,2.978c-0.154,0.089 -0.135,0.244 0.043,0.347l1.874,1.082c0.178,0.102 0.447,0.113 0.601,0.025l5.158,-2.978c0.154,-0.089 0.134,-0.245 -0.043,-0.347l-1.874,-1.082Z" style="fill:#0f0f0f;stroke:#000;stroke-width:0.1px;"/><path d="M76.288,160.119c-0.178,-0.103 -0.447,-0.114 -0.601,-0.025l-12.301,7.102c-0.154,0.089 -0.135,0.244 0.043,0.347l5.074,2.929c0.178,0.103 0.447,0.114 0.601,0.025l12.301,-7.102c0.154,-0.089 0.135,-0.244 -0.043,-0.347l-5.074,-2.929Z" style="fill:#0f0f0f;stroke:#000;stroke-width:0.1px;"/><path d="M119.104,135.399c-0.178,-0.103 -0.447,-0.114 -0.601,-0.025l-19.432,11.219c-0.154,0.089 -0.135,0.244 0.043,0.347l5.074,2.93c0.178,0.102 0.447,0.113 0.601,0.025l19.432,-11.22c0.154,-0.089 0.135,-0.244 -0.043,-0.347l-5.074,-2.929Z" style="fill:#0f0f0f;stroke:#000;stroke-width:0.1px;"/><path d="M154.788,114.796c-0.178,-0.102 -0.447,-0.113 -0.601,-0.024l-12.304,7.103c-0.153,0.089 -0.134,0.244 0.044,0.347l5.074,2.93c0.178,0.102 0.447,0.113 0.601,0.024l12.303,-7.103c0.154,-0.089 0.135,-0.244 -0.043,-0.347l-5.074,-2.93Z" style="fill:#0f0f0f;stroke:#000;stroke-width:0.1px;"/><path d="M51.268,149.866c-0.178,-0.103 -0.448,-0.114 -0.602,-0.025l-8.62,4.977c-0.154,0.089 -0.135,0.244 0.043,0.347l5.074,2.93c0.178,0.102 0.447,0.113 0.601,0.025l8.621,-4.978c0.154,-0.089 0.134,-0.244 -0.043,-0.347l-5.074,-2.929Z" style="fill:#0f0f0f;stroke:#000;stroke-width:0.1px;"/><path d="M65.498,158.083c-0.177,-0.102 -0.447,-0.113 -0.601,-0.025l-8.621,4.978c-0.154,0.089 -0.134,0.244 0.043,0.347l5.075,2.929c0.177,0.103 0.447,0.114 0.601,0.025l8.621,-4.977c0.154,-0.089 0.134,-0.244 -0.043,-0.347l-5.075,-2.93Z" style="fill:#0f0f0f;stroke:#000;stroke-width:0.1px;"/><path d="M145.408,109.854c0.1,-0.057 0.161,-0.164 0.161,-0.279c-0,-0.115 -0.061,-0.221 -0.161,-0.279c-2.155,-1.244 -10.842,-6.259 -12.134,-7.005c-0.099,-0.058 -0.222,-0.058 -0.322,-0c-1.051,0.607 -6.946,4.01 -8.685,5.014c-0.1,0.058 -0.161,0.164 -0.161,0.279c-0,0.115 0.061,0.222 0.161,0.279c1.211,0.699 4.33,2.5 5.074,2.93c0.1,0.057 0.223,0.057 0.322,-0c0.599,-0.346 2.693,-1.555 3.292,-1.901c0.099,-0.057 0.222,-0.057 0.322,0c0.948,0.548 5.789,3.343 6.737,3.89c0.1,0.058 0.223,0.058 0.322,0c0.744,-0.429 3.862,-2.229 5.072,-2.928Z" style="fill:#0f0f0f;stroke:#000;stroke-width:0.1px;"/><path d="M147.722,110.629c-0.178,-0.103 -0.447,-0.114 -0.601,-0.025l-8.836,5.102c-0.154,0.089 -0.135,0.244 0.043,0.347l5.074,2.929c0.178,0.103 0.447,0.114 0.601,0.025l8.836,-5.101c0.154,-0.089 0.135,-0.245 -0.043,-0.347l-5.074,-2.93Z" style="fill:#0f0f0f;stroke:#000;stroke-width:0.1px;"/></g></svg>