<?xml version="1.0" encoding="UTF-8" standalone="no"?><!DOCTYPE svg PUBLIC "-//W3C//DTD SVG 1.1//EN" "http://www.w3.org/Graphics/SVG/1.1/DTD/svg11.dtd"><svg width="100%" height="100%" viewBox="0 0 200 200" version="1.1" xmlns="http://www.w3.org/2000/svg" xmlns:xlink="http://www.w3.org/1999/xlink" xml:space="preserve" xmlns:serif="http://www.serif.com/" style="fill-rule:evenodd;clip-rule:evenodd;stroke-linejoin:round;stroke-miterlimit:2;"><g><path d="M41.1,89.598c-0,-0.765 0.465,-1.655 1.039,-1.986l120.382,-69.503c0.574,-0.331 1.039,0.021 1.039,0.786l0,92.957c0,0.765 -0.465,1.655 -1.039,1.986l-120.382,69.503c-0.574,0.331 -1.039,-0.021 -1.039,-0.786l-0,-92.957Z" style="fill:#fafafa;"/><path d="M41.137,90.375c-0,-1.244 0.757,-2.691 1.69,-3.229l119.006,-68.709c0.933,-0.538 1.69,0.034 1.69,1.278l0,9.013l-122.386,70.659l-0,-9.012Z" style="fill:#c2cbcd;"/><path d="M49.574,89.013c-0,1.619 -1.147,3.596 -2.562,4.413c-1.411,0.814 -2.554,0.159 -2.554,-1.46c-0,-1.619 1.143,-3.594 2.554,-4.409c1.415,-0.817 2.562,-0.163 2.562,1.456" style="fill:#ff6769;fill-rule:nonzero;"/><path d="M59.154,83.481c-0,1.619 -1.147,3.597 -2.558,4.411c-1.415,0.817 -2.558,0.162 -2.558,-1.457c0,-1.619 1.143,-3.594 2.558,-4.411c1.411,-0.815 2.558,-0.162 2.558,1.457" style="fill:#ffdf75;fill-rule:nonzero;"/><path d="M68.683,77.98c0,1.619 -1.147,3.596 -2.559,4.412c-1.412,0.815 -2.556,0.16 -2.556,-1.459c-0,-1.619 1.144,-3.595 2.556,-4.41c1.412,-0.815 2.559,-0.162 2.559,1.457" style="fill:#2bff85;fill-rule:nonzero;"/><g><path d="M125.351,43.502c-0,-0.648 -0.395,-0.946 -0.881,-0.665l-44.281,25.565c-0.485,0.281 -0.88,1.034 -0.88,1.682l0,3.521c0,0.648 0.395,0.946 0.88,0.666l44.281,-25.566c0.486,-0.28 0.881,-1.034 0.881,-1.682l-0,-3.521Z" style="fill:#838383;fill-opacity:0.48;"/><path d="M159.764,23.643c-0,-0.645 -0.393,-0.942 -0.876,-0.663l-3.339,1.928c-0.483,0.279 -0.876,1.029 -0.876,1.673l0,3.504c0,0.645 0.393,0.941 0.876,0.662l3.339,-1.927c0.483,-0.279 0.876,-1.029 0.876,-1.674l-0,-3.503Z" style="fill:#838383;fill-opacity:0.48;"/></g></g></svg>