<?xml version="1.0" encoding="UTF-8" standalone="no"?><!DOCTYPE svg PUBLIC "-//W3C//DTD SVG 1.1//EN" "http://www.w3.org/Graphics/SVG/1.1/DTD/svg11.dtd"><svg width="100%" height="100%" viewBox="0 0 200 200" version="1.1" xmlns="http://www.w3.org/2000/svg" xmlns:xlink="http://www.w3.org/1999/xlink" xml:space="preserve" xmlns:serif="http://www.serif.com/" style="fill-rule:evenodd;clip-rule:evenodd;stroke-linejoin:round;stroke-miterlimit:2;"><g><path d="M15.608,111.135c-0.662,-0.382 -0.734,-0.961 -0.161,-1.293l101.208,-58.432c0.574,-0.331 1.577,-0.29 2.24,0.093l67.983,39.25c0.662,0.382 0.734,0.962 0.161,1.293l-101.208,58.432c-0.574,0.331 -1.577,0.29 -2.24,-0.093l-67.983,-39.25Z" style="fill:#fafafa;"/><path d="M16.045,111.351c-0.914,-0.527 -1.013,-1.327 -0.222,-1.784l100.355,-57.94c0.792,-0.457 2.177,-0.4 3.091,0.128l6.627,3.826l-103.224,59.596l-6.627,-3.826Z" style="fill:#c2cbcd;"/><path d="M25.741,108.733c1.191,0.687 1.191,1.804 -0.003,2.492c-1.19,0.688 -3.121,0.686 -4.312,-0.001c-1.19,-0.687 -1.193,-1.802 -0.002,-2.49c1.193,-0.689 3.127,-0.689 4.317,-0.001" style="fill:#ff6769;fill-rule:nonzero;"/><path d="M33.821,104.068c1.191,0.687 1.191,1.803 0,2.491c-1.193,0.689 -3.124,0.687 -4.314,-0c-1.191,-0.688 -1.194,-1.803 -0,-2.491c1.19,-0.688 3.124,-0.688 4.314,-0" style="fill:#ffdf75;fill-rule:nonzero;"/><path d="M41.859,99.427c1.19,0.687 1.19,1.804 -0.002,2.492c-1.191,0.688 -3.123,0.687 -4.313,-0.001c-1.19,-0.687 -1.193,-1.802 -0.001,-2.49c1.191,-0.688 3.125,-0.688 4.316,-0.001" style="fill:#2bff85;fill-rule:nonzero;"/><g><path d="M88.359,71.085c-0.476,-0.275 -1.198,-0.304 -1.61,-0.066l-37.338,21.557c-0.413,0.238 -0.361,0.655 0.115,0.93l2.589,1.494c0.476,0.275 1.198,0.305 1.611,0.067l37.338,-21.557c0.412,-0.238 0.36,-0.655 -0.116,-0.93l-2.589,-1.495Z" style="fill:#838383;fill-opacity:0.48;"/><path d="M117.39,54.332c-0.474,-0.274 -1.192,-0.304 -1.602,-0.067l-2.806,1.62c-0.41,0.237 -0.359,0.652 0.115,0.925l2.576,1.488c0.474,0.273 1.192,0.303 1.602,0.066l2.806,-1.62c0.411,-0.237 0.359,-0.651 -0.115,-0.925l-2.576,-1.487Z" style="fill:#838383;fill-opacity:0.48;"/></g></g></svg>