<?xml version="1.0" encoding="UTF-8" standalone="no"?><!DOCTYPE svg PUBLIC "-//W3C//DTD SVG 1.1//EN" "http://www.w3.org/Graphics/SVG/1.1/DTD/svg11.dtd"><svg width="100%" height="100%" viewBox="0 0 200 200" version="1.1" xmlns="http://www.w3.org/2000/svg" xmlns:xlink="http://www.w3.org/1999/xlink" xml:space="preserve" xmlns:serif="http://www.serif.com/" style="fill-rule:evenodd;clip-rule:evenodd;stroke-linejoin:round;stroke-miterlimit:2;"><g><path d="M14.944,55.593l170.112,0l-0,101.209c-0,0.662 -0.538,1.2 -1.2,1.2l-167.712,-0c-0.662,-0 -1.2,-0.538 -1.2,-1.2l0,-101.209Z" style="fill:#fafafa;"/><path d="M14.996,44.727c0,-1.506 1.223,-2.729 2.728,-2.729l164.552,0c1.505,0 2.728,1.223 2.728,2.729l-0,10.913l-170.008,0l0,-10.913Z" style="fill:#e3e3e3;"/><path d="M26.716,48.976c-0,1.96 -1.593,3.553 -3.558,3.553c-1.961,-0 -3.549,-1.593 -3.549,-3.553c0,-1.961 1.588,-3.553 3.549,-3.553c1.965,-0 3.558,1.592 3.558,3.553" style="fill:#ff494c;fill-rule:nonzero;"/><path d="M40.024,48.976c-0,1.96 -1.593,3.553 -3.553,3.553c-1.966,-0 -3.553,-1.593 -3.553,-3.553c-0,-1.961 1.587,-3.553 3.553,-3.553c1.96,-0 3.553,1.592 3.553,3.553" style="fill:#ffdf75;fill-rule:nonzero;"/><path d="M53.261,48.976c0,1.96 -1.593,3.553 -3.555,3.553c-1.962,-0 -3.551,-1.593 -3.551,-3.553c-0,-1.961 1.589,-3.553 3.551,-3.553c1.962,-0 3.555,1.592 3.555,3.553" style="fill:#2bff85;fill-rule:nonzero;"/><path d="M131.978,46.844c0,-0.785 -0.636,-1.421 -1.421,-1.421l-61.114,-0c-0.785,-0 -1.421,0.636 -1.421,1.421l-0,4.264c-0,0.784 0.636,1.421 1.421,1.421l61.114,-0c0.785,-0 1.421,-0.637 1.421,-1.421l0,-4.264Z" style="fill:#979797;fill-opacity:0.29;"/><path d="M179.782,46.854c-0,-0.78 -0.634,-1.414 -1.415,-1.414l-4.242,0c-0.781,0 -1.414,0.634 -1.414,1.414l-0,4.243c-0,0.78 0.633,1.414 1.414,1.414l4.242,0c0.781,0 1.415,-0.634 1.415,-1.414l-0,-4.243Z" style="fill:#979797;fill-opacity:0.29;"/></g></svg>