<?xml version="1.0" encoding="UTF-8" standalone="no"?><!DOCTYPE svg PUBLIC "-//W3C//DTD SVG 1.1//EN" "http://www.w3.org/Graphics/SVG/1.1/DTD/svg11.dtd"><svg width="100%" height="100%" viewBox="0 0 200 200" version="1.1" xmlns="http://www.w3.org/2000/svg" xmlns:xlink="http://www.w3.org/1999/xlink" xml:space="preserve" xmlns:serif="http://www.serif.com/" style="fill-rule:evenodd;clip-rule:evenodd;stroke-linejoin:round;stroke-miterlimit:2;"><g><g><path d="M44.197,125.714c2.689,1.553 4.872,5.334 4.872,8.44c0,3.105 -2.183,4.365 -4.872,2.813c-2.689,-1.553 -4.873,-5.335 -4.873,-8.44c0,-3.105 2.184,-4.366 4.873,-2.813Z" style="fill:#c4b9ac;"/><path d="M44.197,128.584c1.317,0.761 2.387,2.613 2.387,4.135c-0,1.521 -1.07,2.138 -2.387,1.378c-1.318,-0.761 -2.387,-2.614 -2.387,-4.135c-0,-1.521 1.069,-2.139 2.387,-1.378Z" style="fill:#282828;"/><path d="M138.141,69.201c0.892,-0.624 2.182,-0.596 3.615,0.232c2.689,1.552 4.873,5.334 4.873,8.439c-0,1.712 -0.663,2.863 -1.709,3.291l-97.12,56.073l-0.024,-0.038c0.791,-0.544 1.274,-1.596 1.274,-3.056c-0,-3.105 -2.184,-6.887 -4.873,-8.439c-1.22,-0.705 -2.336,-0.83 -3.192,-0.467l97.131,-56.078l0.025,0.043Z" style="fill:#709494;"/><path d="M156.001,70.118c0.184,-2.292 -1.18,-4.063 -2.99,-4.692c0,0 3.683,-0.877 6.56,-1.562c0.431,-0.103 0.878,0.092 1.096,0.478c0.218,0.386 0.154,0.869 -0.157,1.185c-1.998,2.035 -4.509,4.591 -4.509,4.591Z" style="fill:#282828;"/><path d="M138.099,69.156l0.542,-0.313l14.363,-3.421c1.809,0.629 3.174,2.4 2.99,4.692l-10.206,10.39c0.516,-0.595 0.817,-1.493 0.817,-2.646c-0,-3.105 -2.184,-6.887 -4.873,-8.439c-1.434,-0.828 -2.723,-0.856 -3.615,-0.232l-0.018,-0.031Z" style="fill:#c4b9ac;"/></g></g></svg>