<?xml version="1.0" encoding="UTF-8" standalone="no"?><!DOCTYPE svg PUBLIC "-//W3C//DTD SVG 1.1//EN" "http://www.w3.org/Graphics/SVG/1.1/DTD/svg11.dtd"><svg width="100%" height="100%" viewBox="0 0 200 200" version="1.1" xmlns="http://www.w3.org/2000/svg" xmlns:xlink="http://www.w3.org/1999/xlink" xml:space="preserve" xmlns:serif="http://www.serif.com/" style="fill-rule:evenodd;clip-rule:evenodd;stroke-linejoin:round;stroke-miterlimit:2;"><path d="M80.356,166.666c-0.569,-1.485 -0.099,-2.646 -0.099,-2.646c0,0 19.981,-3.39 20.059,-2.84c0.281,2 -0.422,3.371 -0.599,3.639c-0.879,1.335 -5.159,1.369 -7.533,2.018c-0.604,0.165 -2.973,1.323 -3.661,1.428c-3.939,0.602 -7.599,-0.114 -8.167,-1.599Z" style="fill:#d8d8d8;"/><path d="M113.127,182.145c-2.257,-0.433 -4.185,-2.507 -3.536,-5.168c0.337,-1.383 0.711,-1.958 1.637,-2.719c0.42,-0.346 0.849,-1.99 1.106,-3.624c0.24,-1.528 0.228,-2.551 0.253,-3.32l6.34,1.123c0.145,0.287 0.85,3.927 0.906,5.932c0.012,0.424 -0.339,3.81 -0.539,4.227c-1.146,2.391 -3.91,3.981 -6.167,3.549Z" style="fill:#ffe9d3;"/><path d="M80.356,164.876c-0.569,-1.485 1.344,-4.959 5.403,-5.98c2.11,-0.53 4.348,-1.213 6.34,-2.026c0.659,-0.27 0.828,-3.636 0.828,-3.636l6.28,0.397c-0,-0 0.525,3.735 0.791,5.623c0.281,2 -0.104,3.507 -0.281,3.775c-0.879,1.335 -5.159,1.369 -7.533,2.018c-0.604,0.165 -2.973,1.323 -3.661,1.428c-3.939,0.602 -7.599,-0.114 -8.167,-1.599Z" style="fill:#ffe9d3;"/><path d="M92.291,40.821c5.218,1.795 4.533,9.594 2.735,16.119c-1.742,6.322 -3.042,16.905 -6.322,15.432c-3.279,-1.472 -2.491,-11.171 -1.387,-17.811c1.104,-6.64 1.657,-14.88 4.974,-13.74Z" style="fill:#ffe9d3;"/><path d="M90.217,62.271c4.303,1.753 1.828,6.852 -1.352,10.985c-3.082,4.004 -6.776,10.882 -9.398,9.551c-2.622,-1.331 0.398,-7.677 2.977,-11.962c2.579,-4.284 5.039,-9.688 7.773,-8.574Z" style="fill:#ffe9d3;"/><path d="M109.487,45.514l-12.291,-5.247c-1.908,1.262 -4.344,-1.698 -5.884,1.853c-0.239,0.551 0.544,3.08 0,3.864c-1.781,2.568 -2.74,5.99 -2.186,8.644c0.639,3.06 3.172,5.759 3.172,5.759c-0,0 -0.305,1.883 -0.248,3.63c0.146,4.493 -0.276,10.223 -0.738,13.566c5.682,15.669 17.981,8.285 19.921,6.175c-0.835,-5.279 -1.191,-9.35 1.921,-17.076c2.923,-7.258 6.538,-10.058 3.217,-15.194c-1.869,-2.891 -3.347,-2.804 -6.884,-5.974Z" style="fill:#ffe9d3;"/><path d="M107.437,29.115l-9.334,-0l0,12.034c-12.303,10.144 19.245,10.38 9.334,-0l-0,-12.034Z" style="fill:#ffe9d3;"/><path d="M107.437,29.115l-9.334,-0l0,10.369c0.366,2.432 7.058,3.15 9.334,-3.15l-0,-7.219Z" style="fill:#fdb164;fill-opacity:0.16;"/><path d="M115.397,48.914c-5.313,-1.286 -4.359,6.837 -2.299,14.351c1.996,7.281 3.673,18.52 7.002,18.987c3.328,0.467 2.206,-9.597 0.857,-16.818c-1.35,-7.221 -2.183,-15.702 -5.56,-16.52Z" style="fill:#ffe9d3;"/><path d="M121.076,76.139c-5.069,-2.732 -4.252,3.255 -2.914,10.895c0.735,4.195 2.027,9.285 2.924,13.394c0.686,3.142 0.209,7.726 1.598,8.33c3.206,1.394 3.01,-8.367 2.339,-15.528c-0.671,-7.16 -0.726,-15.354 -3.947,-17.091Z" style="fill:#ffe9d3;"/><path d="M82.178,82.492c0.328,0.764 0.779,1.144 0.554,1.931c-0.028,0.096 -0.309,0.891 -1.056,1.576c-0.359,0.33 -1.341,1.591 -1.894,1.685c-0.721,0.121 -0.996,-0.984 -1.084,-0.992c-0.187,-0.015 0.936,-1.076 1.368,-1.816c0.394,-0.674 0.103,-1.033 -0.088,-1.071c-0.644,-0.127 -1.044,-0.391 -1.339,-0.224c-1.006,0.569 -0.113,6.402 -1.412,5.876c-2.497,-1.012 -2.862,-4.276 -3.171,-5.817c-0.543,-2.704 3.676,-4.777 5.15,-4.65c1.059,0.092 5.103,0.862 5.103,0.862c-0,0 -2.453,1.886 -2.131,2.64Z" style="fill:#ffe9d3;"/><path d="M107.47,77.193c-2.314,-0.577 -2.672,0.984 -3.651,3.173c-2.611,5.845 -1.18,20.243 0.16,27.021c0.784,3.972 1.299,8.988 2.098,13.315c0.264,1.427 -0.14,5.158 0.205,6.373c0.343,1.207 1.032,3.617 1.605,4.119c1.077,0.943 2.319,-1.094 3.775,-0.886c1.969,0.282 3.246,0.98 3.928,-2.571c0.877,-4.566 0.872,-14.206 1.172,-20.174c0.464,-9.236 4.833,-26.849 -9.292,-30.37Z" style="fill:#ffe9d3;"/><path d="M112.985,122.662c-3.47,-0.092 -6.104,2.016 -5.679,6.918c0.342,3.944 1.14,10.94 2.386,17.879c1.375,7.657 2.634,20.782 2.634,20.782c0.076,0.59 2.251,3.199 4.23,3.189c1.544,-0.008 2.161,-1.491 2.114,-2.012c0,0 -0.647,-7.292 -0.622,-9.736c0.022,-2.207 -0.234,-9.827 -0.516,-16.012c-0.434,-9.531 -0.72,-20.906 -4.547,-21.008Z" style="fill:#ffe9d3;"/><path d="M96.15,70.751c-2.349,0.321 -1.863,-2.54 -3.005,-0.516c-3.05,5.405 -4.585,19.642 -3.77,26.315c0.477,3.909 0.605,8.802 1.069,13.056c0.153,1.404 -0.535,4.97 -0.284,6.176c0.249,1.198 0.75,3.59 1.282,4.127c1.001,1.011 2.395,-0.842 3.828,-0.506c1.941,0.455 3.159,1.248 4.111,-2.119c1.223,-4.33 1.958,-13.643 2.714,-19.381c1.171,-8.88 7.856,-29.04 -5.945,-27.152Z" style="fill:#ffe9d3;"/><path d="M97.176,112.14c-3.45,-0.411 -6.236,1.382 -6.189,6.157c0.039,3.841 0.298,10.673 1.006,17.493c0.783,7.524 1.031,20.32 1.031,20.32c0.03,0.577 1.996,3.298 3.969,3.472c1.538,0.135 2.267,-1.24 2.26,-1.747c0,-0 -0.085,-7.106 0.127,-9.464c0.191,-2.13 0.52,-9.514 0.714,-15.516c0.298,-9.247 0.886,-20.263 -2.918,-20.715Z" style="fill:#ffe9d3;"/><path d="M99.62,20.013c6.932,-1.161 10.355,4.367 9.011,9.32c-0.68,2.503 -0.946,5.041 -3.193,6.896c-1.482,1.223 -4.653,2.269 -6.371,2.407c-3.231,0.262 -5.126,-3.561 -6.106,-8.119c-0.909,-4.228 2.395,-9.79 6.659,-10.504Z" style="fill:#ffe9d3;"/><path d="M94.837,19.557c1.939,-0.564 4.11,-4.753 7.95,-3.288c0.617,0.235 2.64,1.608 3.385,2.038c1.15,0.664 3.782,2.485 4.463,3.317c1.028,1.256 0.698,4.178 0.139,6.172c-0.101,0.36 2.496,2.309 2.386,2.593c-0.06,0.157 2.011,5.546 1.767,6.489c-0.597,2.301 -1.787,2.029 -2.135,5.059c-0.262,2.28 -1.609,1.48 -2.275,0.943c-0.475,-0.383 -1.599,-0.096 -1.599,-0.096c0,-0 -0.288,-0.469 -0.261,-1.73c0.019,-0.925 0.388,-1.847 0.261,-2.379c-0.434,-1.83 -0.93,-0.045 -0.927,-2.078c0.002,-1.919 0.405,-5.015 -0.188,-5.249c-0.936,-0.371 -0.156,-2.396 -1.052,-0.389c-0.074,0.166 -1.589,1.75 -1.848,1.75c-0.411,-0 -0.101,-2.056 -0.775,-2.145c-0.705,-0.093 -0.931,0.141 -1.645,0.399c-0.215,0.078 -1.658,-2.545 -2.272,-2.85c-0.637,-0.315 -1.216,1.625 -1.998,1.311c-1.537,-0.618 -3.319,-1.993 -3.893,-2.582c-0.386,-0.396 0.05,-0.815 -0.805,-0.215c-0.588,0.413 -0.644,1.534 -0.644,1.534c-0,-0 -1.499,-1.333 -1.076,-4.074c0.297,-1.929 1.485,-4.076 3.042,-4.53Z" style="fill:#b26f27;"/><path d="M113.513,78.588c-7.472,3.09 -15.396,6.162 -23.336,0.009c-1.421,3.268 -1.093,6.373 -1.018,12.51c0.07,25.245 3.705,52.369 3.527,62.267c1.875,1.789 3.52,0.754 4.699,0.476c1.19,-0.281 1.906,0.184 1.908,-0.103c0.021,-3.928 1.389,-44.821 2.626,-53.664c0.219,-1.569 0.134,-2.187 0.36,-1.348c0.075,0.278 0.151,0.581 0.227,0.907c1.046,4.477 1.836,15.858 3.377,25.987c0.427,2.805 0.922,6.407 1.378,9.236c2.433,15.092 4.536,28.449 5.385,27.111c2.241,-3.534 3.496,4.374 6.027,0.483c0,-9.899 -1.224,-37.999 -0.938,-47.901c0.388,-13.48 1.915,-29.177 -4.222,-35.97Z" style="fill:#d8d8d8;"/><path d="M80.356,164.876c-0.569,-1.485 1.344,-4.959 5.403,-5.98c2.11,-0.53 2.739,-0.704 4.73,-1.517c0.25,-0.103 0.588,-1.067 0.938,-1.377c0.337,-0.298 0.714,-0.601 0.967,-0.667c0.176,-0.047 0.302,0.021 0.302,0.021c-0.047,0.086 -0.032,0.199 -0.05,0.283c-0.358,1.636 4.394,2.91 6.86,0.071c-0,-0 0.648,0.086 0.81,1.162c0.066,0.443 -0.078,1.968 -0,2.518c0.281,2 -0.422,3.371 -0.599,3.639c-0.879,1.335 -5.159,1.369 -7.533,2.018c-0.604,0.165 -2.973,1.323 -3.661,1.428c-3.939,0.602 -7.599,-0.114 -8.167,-1.599Z" style="fill:#001b35;"/><path d="M122.323,103.719c-0.914,-0.392 -1.371,-0.951 -2.304,-0.645c-0.114,0.037 -1.054,0.414 -1.857,1.376c-0.386,0.463 -1.871,1.737 -1.973,2.438c-0.133,0.914 1.185,1.23 1.195,1.341c0.021,0.236 1.264,-1.211 2.138,-1.777c0.795,-0.515 1.226,-0.158 1.273,0.082c0.162,0.81 0.482,1.308 0.288,1.685c-0.661,1.286 -4.904,0.939 -4.258,2.565c1.241,3.125 2.422,2.875 4.258,3.223c3.223,0.612 5.072,-1.918 4.898,-3.775c-0.125,-1.335 -0.553,-9.275 -0.553,-9.275c-0,0 -2.204,3.149 -3.105,2.762Z" style="fill:#ffe9d3;"/><path d="M112.776,183.903c-1.955,-0.375 -3.664,-1.981 -3.664,-4.135c0,-0.332 -0.087,-1.789 0,-2.145c0.337,-1.383 10.311,-3.569 10.682,-1.598c0.16,0.848 -0.174,4.693 -0.912,5.657c-1.611,2.106 -3.849,2.653 -6.106,2.221Z" style="fill:#d8d8d8;"/><path d="M112.776,181.942c-2.257,-0.432 -4.185,-2.506 -3.537,-5.168c0.338,-1.383 0.379,-1.682 1.145,-2.602c0.398,-0.477 0.948,-1.269 1.206,-2.903c0.15,-0.955 -0.07,-2.328 -0.103,-2.789c-0.02,-0.277 0.312,-0.468 0.775,-0.757c0.36,4.175 5.601,2.702 6.302,0.087c0.048,-0.181 0.743,0.731 0.968,1.175c0.146,0.287 -0.109,3.108 0.262,5.079c0.16,0.848 -0.174,4.693 -0.912,5.658c-1.611,2.105 -3.849,2.652 -6.106,2.22Z" style="fill:#001b35;"/><path d="M111.43,43.059c-2.485,-1.599 -3.763,-1.656 -3.763,-1.656c-0,-0 1.849,2.249 1.387,3.273c-1.76,3.904 -6.128,6.371 -10.746,7.454c-1.46,-3.494 -1.965,-7.793 -1.14,-10.369c0.181,-0.567 0.833,-1.077 0.96,-1.059c0.054,0.007 -0.021,-1.706 -0.019,-1.713c0.027,-0.135 -1.042,-0.485 -1.491,-0.591c-1.14,-0.268 -6.251,-1.005 -8.322,6.056c-0.263,1.811 0.567,0.918 1.034,2.806c-0.496,2.558 -0.856,3.275 -0.83,5.893c0.15,3.24 1.195,5.776 2.853,7.832c1.79,6.715 -0.233,12.862 -1.687,17.453c-0.917,2.898 9.348,9.614 14.207,10.258c3.019,0.4 11.738,-1.886 13.276,-4.426c-2.465,-7.369 -5.387,-14.626 -3.495,-18.697c-1.333,-4.285 -0.437,-6.672 0.618,-10.582c0.773,-0.954 2.182,-3.326 3.425,-2.759c0.595,0.271 1.596,4.021 1.596,4.021c-0,-0 0.626,-1.287 0.68,-2.319c-0.979,-6.413 -3.734,-7.779 -8.543,-10.875Z" style="fill:#001b35;"/><path d="M108.108,29.561c0.971,0.252 1.488,1.5 1.154,2.784c-0.334,1.285 -2.008,2.39 -2.979,2.137c-0.97,-0.252 -0.872,-1.766 -0.538,-3.051c0.334,-1.285 1.393,-2.123 2.363,-1.87Z" style="fill:#ffe9d3;"/></svg>