<?xml version="1.0" encoding="UTF-8" standalone="no"?><!DOCTYPE svg PUBLIC "-//W3C//DTD SVG 1.1//EN" "http://www.w3.org/Graphics/SVG/1.1/DTD/svg11.dtd"><svg width="100%" height="100%" viewBox="0 0 200 200" version="1.1" xmlns="http://www.w3.org/2000/svg" xmlns:xlink="http://www.w3.org/1999/xlink" xml:space="preserve" xmlns:serif="http://www.serif.com/" style="fill-rule:evenodd;clip-rule:evenodd;stroke-linejoin:round;stroke-miterlimit:2;"><path d="M132.088,183.509c0.584,-1.707 0.421,-1.848 0.421,-1.848c-0,-0 -19.709,-8.321 -19.789,-7.65c-0.289,2.444 0.434,4.386 0.615,4.778c0.904,1.949 4.588,2.673 7.028,4.202c0.62,0.389 3.58,2.341 4.287,2.679c4.046,1.937 6.853,-0.454 7.438,-2.161Z" style="fill:#e4e4e4;"/><path d="M130.978,182.586c0.584,-1.707 0.866,-4.613 -3.304,-7.115c-2.167,-1.3 -4.466,-2.831 -6.512,-4.453c-0.678,-0.538 -0.863,-7.002 -0.863,-7.002l-6.451,-1.374c-0,0 -0.528,6.724 -0.801,9.03c-0.289,2.443 0.107,4.463 0.288,4.855c0.904,1.95 5.3,3.27 7.739,4.798c0.62,0.389 3.054,2.56 3.761,2.898c4.046,1.937 5.559,0.069 6.143,-1.637Z" style="fill:#ffe9d3;"/><path d="M132.214,183.454c0.584,-1.706 0.69,-5.7 -3.48,-8.201c-2.167,-1.301 -4.556,-2.578 -6.601,-4.201c-0.257,-0.204 -0.057,-1.564 -0.417,-2.06c-0.346,-0.478 -0.733,-0.973 -0.993,-1.133c-0.181,-0.111 -0.31,-0.063 -0.31,-0.063c0.048,0.123 0.032,0.261 0.051,0.373c0.332,1.959 -3.485,3.583 -6.114,0.409c-0.289,-0.348 -0.599,-1.006 -0.761,-1.618c-0.146,-0.267 -0.831,0.061 -0.869,1.608c-0.013,0.557 0.08,2.51 0,3.181c-0.058,0.494 -0.067,3.305 -0.067,3.305c-0,-0 0.092,0.331 0.15,0.511c0.169,0.527 0.444,0.819 0.542,1.032c0.904,1.95 5.29,3.2 7.729,4.728c0.62,0.389 3.054,2.56 3.761,2.898c4.046,1.937 6.795,0.938 7.379,-0.769Z" style="fill:#001b35;"/><path d="M113.417,127.213c-3.203,-2.795 -6.695,-6.122 -9.346,-8.438c-6.77,-5.915 -22.558,-14.346 -13.332,-28.296c1.511,-2.284 2.886,-1.514 5.208,-0.822c6.198,1.849 14.973,12.831 18.556,18.546c2.099,3.348 10.072,9.764 11.051,13.771c0.093,0.377 0.078,1.192 -0.017,2.174c0.024,0.394 0.023,0.809 -0.003,1.247c-0.241,4.075 -0.892,11.31 -2.065,18.507c-1.294,7.94 -2.239,21.504 -2.239,21.504c-0.065,0.611 -2.919,0.232 -5.219,0.306c-1.793,0.058 -2.569,-1.443 -2.535,-1.981c-0,0 0.167,-2.341 0.042,-4.855c-0.112,-2.271 -1.024,-14.789 -0.942,-21.168c0.049,-3.756 0.301,-7.405 0.841,-10.495Z" style="fill:#46596d;"/><path d="M98.243,46.217c-6.503,-0.016 -2.949,11.23 -1.204,20.112c1.691,8.605 2.545,22.315 6.657,21.896c4.111,-0.419 3.457,-10.604 2.568,-19.33c-0.888,-8.726 -3.887,-22.668 -8.021,-22.678Z" style="fill:#ffe9d3;"/><path d="M104.41,81.442c-5.683,-1.318 -5.315,7.426 -3.691,15.5c1.573,7.823 2.472,19.917 6.06,20.377c3.588,0.46 3.197,-10.374 2.323,-18.141c-0.873,-7.767 -1.08,-16.899 -4.692,-17.736Z" style="fill:#ffe9d3;"/><path d="M81.248,30.266l11.616,-0l-0,14.976c2.045,1.687 7.845,3.793 7.845,3.793c-0,-0 -3.857,16.412 -8.047,16.707c-5.75,0.406 -17.237,-12.256 -17.237,-12.256c-0,-0 4.93,-7.309 5.823,-8.244l-0,-14.976Z" style="fill:#ffe9d3;"/><path d="M81.248,30.266l11.616,-0l-0,13.086c-0.886,4.229 -10.866,-0.694 -11.616,-4.275l-0,-8.811Z" style="fill:#f6b26f;fill-opacity:0.24;"/><path d="M92.576,17.147c-9.869,-1.624 -14.741,6.111 -12.828,13.042c0.211,0.762 0.393,1.526 0.583,2.282c0.683,2.72 1.64,5.132 3.963,7.368c2.032,1.957 3.653,3.7 6.099,3.894c4.6,0.366 8.374,-5.759 9.769,-12.137c1.294,-5.916 -1.515,-13.449 -7.586,-14.449Z" style="fill:#ffe9d3;"/><path d="M93.911,14.58c-2.252,-0.858 -2.709,-0.153 -2.709,-0.153c0,0 -5.19,-3.105 -11.524,2.78c-3.513,3.264 -4.451,8.242 -4.022,11.987c0.317,2.769 2.843,5.018 3.526,6.609c0.541,1.26 0.095,3.386 -0.288,3.793c-0.05,0.054 0.592,0.33 1.164,0.249c0.589,-0.084 1.221,-0.546 1.221,-0.546l-0.018,-2.077c-0,-0 -0.155,-0.28 0.546,0.837c0.192,0.308 1.381,1.047 2.223,2.601c1.223,2.258 -1.896,3.772 -1.311,5.796c0.159,0.55 3.421,1.491 2.38,2.574c-0.62,0.645 1.234,1.796 1.888,2.063c0.674,0.275 0.504,1.332 0.823,0.999c0.394,-0.411 0.365,-1.212 -0.173,-1.917c-2.109,-2.763 -2.118,-4.582 -1.618,-5.858c0.752,-1.921 -1.391,-4.631 -1.928,-6.959c-0.241,-1.043 -0.346,-3.573 1.778,-8.703c1.787,-4.316 6.385,-5.351 6.385,-5.351c-0,-0 1.906,-0.48 5.146,3.442c0.361,0.437 0.993,1.811 1.118,2.207c0.277,0.875 1.021,6.156 1.021,6.156c0,-0 -1.633,6.008 -1.021,4.978c0.016,-0.027 0.548,0.513 1.216,1.168c0.615,0.602 -2.59,3.897 -2.038,4.345c0.093,0.075 2.028,0.5 1.581,1.232c-1.628,2.664 -2.465,4.187 -2.066,3.972c0.601,-0.324 3.161,-3.472 3.261,-3.602c0.276,-0.359 -1.341,-3.101 -0.943,-3.575c0.603,-0.717 1.756,-1.665 1.777,-1.726c0.194,-0.541 -1.96,-4.076 -1.702,-4.817c0.654,-1.878 1.382,-3.992 1.517,-4.292c0.828,-1.835 2.197,-5.968 2.138,-6.41c-0.788,-5.847 -3.643,-9.629 -9.348,-11.802Z" style="fill:#c4a584;"/><path d="M92.254,23.306c-0,0 -2.809,-2.656 -3.658,-1.495c-2.42,3.312 -2.552,6.963 -2.552,6.963c1.124,-3.016 3.112,-4.942 6.21,-5.468Z" style="fill:#363636;fill-opacity:0.18;"/><path d="M92.663,23.222c-0,-0 1.977,-2.365 2.831,-1.249c2.437,3.182 3.024,6.59 3.024,6.59c-1.325,-2.856 -3.222,-4.729 -5.855,-5.341Z" style="fill:#363636;fill-opacity:0.18;"/><path d="M80.377,30.497c-2.605,-0.029 -2.204,2.49 -1.755,4.189c0.449,1.699 2.637,2.529 2.637,2.529c0,-0 -1.561,-1.161 -1.593,-2.916c-0.057,-3.181 1.239,-3.795 0.711,-3.802Z" style="fill:#ffe9d3;"/><path d="M156.101,152.043c0.159,-2.091 -0.599,-3.16 -0.599,-3.16c-0,-0 -20.181,8.386 -20.111,9.078c0.253,2.516 1.292,3.687 1.533,3.892c1.199,1.021 5.34,-1.587 7.802,-2.295c0.626,-0.18 3.217,-0.288 3.909,-0.591c3.961,-1.73 7.307,-4.833 7.466,-6.924Z" style="fill:#ebebeb;"/><path d="M155.631,149.946c0.16,-2.091 -2.598,-4.977 -6.785,-3.663c-2.177,0.684 -4.516,1.269 -6.652,1.547c-0.708,0.092 -1.754,-3.746 -1.754,-3.746l-5.958,4.348c-0,-0 0.472,4.7 0.711,7.076c0.253,2.516 1.02,4.044 1.261,4.249c1.199,1.02 5.34,-1.588 7.803,-2.296c0.626,-0.18 3.217,-0.288 3.908,-0.59c3.962,-1.731 7.307,-4.834 7.466,-6.925Z" style="fill:#ffe9d3;"/><path d="M155.631,149.946c0.16,-2.091 -2.598,-4.977 -6.785,-3.663c-2.177,0.684 -2.829,0.87 -4.965,1.148c-0.268,0.035 -0.848,-0.886 -1.267,-1.032c-0.403,-0.142 -0.847,-0.263 -1.108,-0.185c-0.183,0.055 -0.286,0.212 -0.286,0.212c0.068,0.072 0.083,0.214 0.123,0.301c0.698,1.528 -2.676,5.429 -5.647,4.777c-0.326,-0.071 -0.735,-0.411 -1.005,-0.837c-0.184,-0.12 -0.718,0.781 -0.43,2.248c0.104,0.528 0.591,2.257 0.66,2.949c0.052,0.508 0.627,3.122 0.627,3.122c0,-0 0.15,0.227 0.238,0.343c0.259,0.341 0.561,0.373 0.691,0.484c1.2,1.02 5.317,-1.644 7.78,-2.352c0.626,-0.18 3.217,-0.288 3.908,-0.59c3.962,-1.731 7.307,-4.834 7.466,-6.925Z" style="fill:#001b35;"/><path d="M156.101,152.043c0.159,-2.091 -0.599,-3.16 -0.599,-3.16c-0,-0 -20.181,8.386 -20.111,9.078c0.253,2.516 1.292,3.687 1.533,3.892c1.199,1.021 5.34,-1.587 7.802,-2.295c0.626,-0.18 3.217,-0.288 3.909,-0.591c3.961,-1.73 7.307,-4.833 7.466,-6.924Z" style="fill:#e4e4e4;"/><path d="M155.631,149.946c0.16,-2.091 -2.598,-4.977 -6.785,-3.663c-2.177,0.684 -4.516,1.269 -6.652,1.547c-0.708,0.092 -2.553,-5.967 -2.553,-5.967l-6.56,4.183c-0,-0 1.115,2.416 1.656,4.696c0.459,1.935 0.346,3.675 0.456,4.766c0.253,2.516 1.02,4.044 1.261,4.249c1.199,1.02 5.34,-1.588 7.803,-2.296c0.626,-0.18 3.217,-0.288 3.908,-0.59c3.962,-1.731 7.307,-4.834 7.466,-6.925Z" style="fill:#ffe9d3;"/><path d="M155.631,149.946c0.16,-2.091 -2.598,-4.977 -6.785,-3.663c-2.177,0.684 -2.829,0.87 -4.965,1.148c-0.268,0.035 -0.848,-0.886 -1.267,-1.032c-0.403,-0.142 -0.847,-0.263 -1.108,-0.185c-0.183,0.055 -0.286,0.212 -0.286,0.212c0.068,0.072 0.083,0.214 0.123,0.301c0.698,1.528 -2.676,5.429 -5.647,4.777c-0.326,-0.071 -0.735,-0.411 -1.005,-0.837c-0.184,-0.12 -0.718,0.781 -0.43,2.248c0.104,0.528 0.591,2.257 0.66,2.949c0.052,0.508 0.627,3.122 0.627,3.122c0,-0 0.15,0.227 0.238,0.343c0.259,0.341 0.561,0.373 0.691,0.484c1.2,1.02 5.317,-1.644 7.78,-2.352c0.626,-0.18 3.217,-0.288 3.908,-0.59c3.962,-1.731 7.307,-4.834 7.466,-6.925Z" style="fill:#001b35;"/><path d="M79.061,49.157c0.659,0.914 1.331,1.876 2.025,2.84c3.213,4.459 6.918,8.955 12.167,8.894c2.162,-2.875 2.621,-8.751 0.068,-15.411c0.882,-0.497 2.88,-0.5 3.688,-0.197c0.517,0.194 1.136,0.335 1.804,2.068c0.265,0.689 0.637,5.034 1.242,6.081c1.98,3.43 3.667,8.808 3.051,11.58c-0.71,3.195 -3.158,6.582 -3.158,6.582c0,-0 0.044,3.58 -0.019,5.504c-0.162,4.947 -0.203,3.93 0.311,7.796c-6.316,15.585 -25.821,18.511 -27.978,15.54c0.929,-5.6 0.67,-8.2 1.618,-17.355c0.266,-2.565 -1.435,-14.919 -1.435,-14.919c-1.811,-3.778 -2.985,-13.401 1.215,-16.227c1.679,-1.13 1.808,-1.429 5.401,-2.776Z" style="fill:#001b35;"/><path d="M104.429,102.033c-0.036,0.27 18.508,0.621 22.635,2.679c5.717,2.852 10.393,25.247 11.641,31.161c0.308,1.458 1.629,6.387 1.629,6.387c-1.866,2.087 -5.183,4.646 -8.31,3.504c0,-0 -2.699,-6.293 -5.351,-13.375c-3.176,-8.479 -5.546,-17.686 -6.307,-17.321c-1.372,0.66 -11.699,4.394 -14.172,5.398c-4.332,1.758 -14.328,5.074 -19.255,5.706c-5.832,0.749 -11.723,-2.138 -15.502,-4.696c-3.74,-2.532 -3.887,-11.038 -3.752,-15.124c0.137,-4.128 2.992,-11.377 3.286,-12.732c0.666,-3.068 15.664,-24.368 15.664,-24.368c2.445,-1.118 13.684,-7.901 13.684,-7.901c0,0 2.726,11.578 2.695,12.525c-0.073,2.237 2.184,22.407 1.415,28.157Z" style="fill:#46596d;"/><path d="M88.721,82.92l11.069,-6.391l0.3,9.947l-14.55,8.401l3.181,-11.957Z" style="fill:#363636;fill-opacity:0.18;"/><path d="M105.552,120.095c5.186,-1.063 8.027,-2.939 12.835,-5.068c1.919,5.175 4.015,8.65 6.881,13.522c-3.779,-3.628 -7.093,-12.725 -7.122,-12.843c-4.537,2.148 -7.337,3.705 -12.594,4.389Z" style="fill:#363636;fill-opacity:0.18;"/><path d="M86.184,66.133l3.284,-1.896l0.544,2.508l-3.284,1.896l-0.544,-2.508Zm0.632,0.101l2.199,-1.269l0.364,1.679l-2.199,1.269l-0.364,-1.679Z" style="fill:#e4e4e4;"/><path d="M95.991,60.47l3.284,-1.896l0.544,2.509l-3.284,1.896l-0.544,-2.509Zm0.633,0.102l2.198,-1.27l0.364,1.68l-2.198,1.269l-0.364,-1.679Z" style="fill:#e4e4e4;"/><path d="M86.987,67.79l2.648,-1.529l0.377,2.152l-2.648,1.528l-0.377,-2.151Z" style="fill:#46596d;"/><path d="M96.728,62.166l2.647,-1.528l0.377,2.151l-2.647,1.529l-0.377,-2.152Z" style="fill:#46596d;"/><path d="M85.052,53.411c1.804,2.711 4.323,11.653 4.323,11.653l-2.647,1.528c-0,0 -2.518,-9.031 -4.323,-11.742c-1.197,-1.799 -4.952,-3.774 -6.272,-4.43c-0.023,-0.011 -0.05,-0.022 -0.05,-0.022l-0.658,0.35c-0,0 0.179,-0.505 0.243,-0.554c0.374,-0.287 1.924,-1.185 2.43,-1.408c0.131,-0.058 0.36,-0.052 0.604,0.073c1.242,0.632 5.12,2.705 6.35,4.552Z" style="fill:#46596d;"/><path d="M93.332,45.491c-0,-0 2.654,2.007 3.219,3.365c0.952,2.287 2.678,10.519 2.678,10.519l-2.647,1.528l-2.461,-10.418l-0.539,-4.335l-0.25,-0.659Z" style="fill:#46596d;"/><path d="M72.685,55.423c5.653,-4.1 9.107,5.629 13.169,14.459c3.935,8.557 11.805,21.032 7.962,23.251c-3.844,2.219 -11.377,-8.754 -16.086,-16.911c-4.71,-8.157 -8.639,-18.193 -5.045,-20.799Z" style="fill:#ffe9d3;"/><path d="M89.414,88.887c1.008,-6.183 9.545,-2.252 16.904,2.652c7.131,4.751 18.78,10.574 17.774,14.327c-1.005,3.752 -11.609,-1.053 -18.97,-5.087c-7.36,-4.034 -16.348,-7.962 -15.708,-11.892Z" style="fill:#ffe9d3;"/><path d="M123.736,113.289c6.025,-2.862 6.959,-6.064 5.666,-7.899c-1.252,-1.777 -3.978,-4.612 -7.803,-2.677c-3.825,1.935 -3.391,3.559 -2.886,5.726c0.167,0.716 1.335,0.385 2.153,0.789c0.272,0.134 0.506,0.351 0.651,0.715c0.316,0.797 0.078,4.363 2.219,3.346Z" style="fill:#ffe9d3;"/></svg>