<?xml version="1.0" encoding="UTF-8" standalone="no"?><!DOCTYPE svg PUBLIC "-//W3C//DTD SVG 1.1//EN" "http://www.w3.org/Graphics/SVG/1.1/DTD/svg11.dtd"><svg width="100%" height="100%" viewBox="0 0 200 200" version="1.1" xmlns="http://www.w3.org/2000/svg" xmlns:xlink="http://www.w3.org/1999/xlink" xml:space="preserve" xmlns:serif="http://www.serif.com/" style="fill-rule:evenodd;clip-rule:evenodd;stroke-linejoin:round;stroke-miterlimit:2;"><path d="M94.854,60.858c5.003,0.343 4.522,6.919 2.953,12.686c-1.52,5.588 -2.526,14.591 -5.678,14.091c-3.152,-0.5 -2.613,-8.663 -1.707,-14.374c0.905,-5.712 1.252,-12.621 4.432,-12.403Z" style="fill:#ffe9d3;"/><path d="M93.225,82.965c2.898,3.461 -3.636,6.361 -10.105,8.15c-6.268,1.734 -15.438,5.476 -16.995,3.157c-1.557,-2.319 6.517,-5.958 12.506,-8.156c5.989,-2.198 12.753,-5.351 14.594,-3.151Z" style="fill:#ffe9d3;"/><path d="M67.973,95.879c-0.127,0.743 0.093,1.205 -0.588,1.79c-0.083,0.071 -0.822,0.644 -1.952,0.975c-0.544,0.159 -2.24,0.895 -2.836,0.794c-0.775,-0.131 -0.398,-1.143 -0.479,-1.177c-0.174,-0.074 1.543,-0.596 2.398,-1.075c0.778,-0.435 0.703,-0.829 0.539,-0.922c-0.555,-0.314 -0.792,-0.664 -1.177,-0.62c-1.316,0.15 -3.852,5.308 -4.814,4.449c-1.849,-1.651 -0.298,-4.493 0.3,-5.879c1.049,-2.433 6.384,-2.801 7.75,-2.219c0.981,0.419 4.483,2.368 4.483,2.368c0,-0 -3.499,0.782 -3.624,1.516Z" style="fill:#ffe9d3;"/><path d="M111.38,60.572l-11.812,-1.612c-1.834,1.745 -4.175,-0.42 -5.655,3.422c-0.229,0.597 0.523,2.809 0,3.714c-1.711,2.965 -2.633,6.522 -2.1,8.918c0.613,2.762 3.048,4.649 3.048,4.649c-0,0 -0.293,1.894 -0.239,3.558c0.141,4.277 -0.264,9.902 -0.709,13.243c5.46,13.473 17.28,2.944 19.146,0.375c-0.804,-4.841 -1.145,-8.654 1.845,-16.947c2.809,-7.791 6.283,-11.491 3.092,-15.5c-1.796,-2.257 -3.216,-1.76 -6.616,-3.82Z" style="fill:#ffe9d3;"/><path d="M124.784,12.656l1.154,4.005l0.845,-0.72l-0,-5.335l4.7,2.881l1.463,2.905l-1.463,7.866l-3.29,0.851l-3.409,-4.718l-1.096,-7.649l1.096,-0.086Z" style="fill:#ffe9d3;"/><path d="M109.082,47.351l-8.97,-0l-0,11.564c-11.824,9.75 18.495,9.976 8.97,0l-0,-11.564Z" style="fill:#ffe9d3;"/><path d="M109.082,47.351l-8.97,-0l-0,8.734c2.287,1.475 6.155,-0.753 8.97,-4.952l-0,-3.782Z" style="fill:#f69b41;fill-opacity:0.1;"/><path d="M113.788,71.217c4.065,2.948 8.392,-3.439 11.313,-9.789c2.83,-6.153 8.489,-15.124 5.726,-16.719c-2.764,-1.596 -8.181,6.294 -11.568,12.16c-3.387,5.866 -8.055,12.474 -5.471,14.348Z" style="fill:#ffe9d3;"/><path d="M127.037,49.379c4.214,1.594 4.833,-5.136 4.423,-11.482c-0.398,-6.149 0.16,-15.497 -2.538,-16.219c-2.699,-0.722 -3.516,7.609 -3.648,13.643c-0.132,6.034 -0.915,13.045 1.763,14.058Z" style="fill:#ffe9d3;"/><path d="M107.843,92.991c-2.084,-0.417 -2.384,0.83 -3.231,2.589c-2.261,4.696 -0.772,16.121 0.526,21.49c0.76,3.145 1.293,7.125 2.071,10.553c0.257,1.13 -0.053,4.105 0.275,5.065c0.325,0.954 0.977,2.859 1.498,3.248c0.98,0.73 2.066,-0.912 3.375,-0.772c1.771,0.19 2.927,0.723 3.489,-2.114c0.722,-3.647 0.582,-11.315 0.766,-16.067c0.286,-7.355 3.958,-21.441 -8.769,-23.992Z" style="fill:#ffe9d3;"/><path d="M113.437,129.059c-3.116,-0.011 -5.45,1.712 -5,5.603c0.363,3.131 1.179,8.681 2.395,14.179c1.342,6.066 1.695,25.038 1.695,25.038c0.076,0.468 -0.059,2.458 1.718,2.416c1.385,-0.034 3.641,-0.197 3.591,-0.61c0,-0 0.681,-15.326 0.668,-17.27c-0.012,-1.756 -0.349,-7.812 -0.69,-12.726c-0.524,-7.574 -0.941,-16.617 -4.377,-16.63Z" style="fill:#ffe9d3;"/><path d="M113.053,186.017c-1.855,-0.355 -2.784,-0.923 -2.251,-3.11c0.277,-1.137 0.958,-3.894 1.2,-4.719c0.125,-0.429 0.066,-1.078 0.277,-2.42c0.198,-1.256 0.309,-1.304 0.33,-1.936l5.208,0.923c0.12,0.235 -0.372,2.431 -0.327,4.078c0.01,0.348 -0.139,1.312 -0.444,4.177c-0.231,2.166 -2.139,3.362 -3.993,3.007Z" style="fill:#ffe9d3;"/><path d="M85.634,176.534c-0.467,-1.22 2.114,-4.165 5.449,-5.004c1.733,-0.436 2.759,-0.55 4.199,-1.574c1.02,-0.726 0.68,-2.987 0.68,-2.987l5.16,0.326c0,-0 -0.014,2.059 0.204,3.61c0.231,1.643 -1.956,2.149 -2.171,2.301c-1.544,1.087 -1.739,1.222 -4.19,2.772c-0.434,0.275 -2.055,1.783 -2.621,1.87c-3.236,0.495 -6.243,-0.094 -6.71,-1.314Z" style="fill:#ffe9d3;"/><path d="M111.673,189.908c-1.868,-0.276 -1.916,-3.298 -1.896,-4.161c0.023,-0.987 0.409,-3.449 0.857,-3.943c0.414,-0.455 0.717,-2.06 1.069,-3.697c0.206,-0.956 0.245,-2.008 0.257,-2.467c0.007,-0.275 0.192,-0.785 0.604,-1.088c-0.009,0.82 -0.198,1.538 -0.18,2.033c0.014,0.371 -0.94,4.25 -1.056,6.193c-0.077,1.276 0.957,2.22 1.189,2.216c0.267,-0.006 2.2,-0.656 2.766,-1.972c0.845,-1.967 1.529,-6.119 1.721,-6.551c0.411,-0.924 0.61,-1.32 0.832,-2.043c0.056,-0.183 0.561,0.703 0.712,1.138c0.098,0.281 -0.352,3.1 -0.206,5.052c0.014,0.186 -0.013,0.628 -0.177,0.935c-0.079,0.149 -0.261,0.016 -0.454,0.017c-0.075,-0 -0.176,-0.315 -0.187,-0.169c-0.018,0.238 -0.073,1.006 -0.076,1.273c-0.013,1.507 -0.147,3.687 -0.537,4.236c-1.526,2.152 -3.439,3.263 -5.238,2.998Z" style="fill:#001b35;"/><path d="M85.634,176.526c-0.467,-1.22 1.107,-3.678 4.322,-4.83c1.671,-0.599 3.471,-1.036 5.045,-1.866c0.198,-0.105 0.405,-0.511 0.68,-0.799c0.054,-0.057 0.251,-0.238 0.251,-0.238c0,0 0.256,0.793 -0.321,1.159c-1.314,0.834 -4.887,1.762 -5.303,2.208c-0.198,0.212 -1.124,0.949 -1.015,1.281c0.17,0.515 1.629,1.081 2.114,0.911c1.039,-0.365 3.121,-1.545 4.985,-2.424c1.104,-0.521 3.436,-0.953 4.337,-1.91c0.669,-0.71 0.174,-1.908 0.246,-2.872c0,0 0.646,0.107 0.785,1.008c0.058,0.371 -0.041,1.676 0.026,2.137c0.244,1.677 -0.3,2.89 -0.438,3.13c-0.117,0.205 -1.109,2.579 -1.162,2.948c-0.036,0.247 -0.518,0.219 -0.64,0.148c-0.367,-0.214 -0.294,-0.133 -0.407,-0.422c-0.083,-0.21 0.137,-2.198 -0.001,-2.176c-0.17,0.027 -0.505,0.144 -0.577,0.198c-0.653,0.486 -1.309,1.015 -1.881,1.446c-0.408,0.308 -3.08,2.395 -3.625,2.533c-3.125,0.788 -6.954,-0.35 -7.421,-1.57Z" style="fill:#001b35;"/><path d="M97.939,88.552c-2.109,0.263 -1.672,-2.084 -2.698,-0.423c-2.738,4.434 -4.116,16.113 -3.385,21.587c0.429,3.208 0.543,7.222 0.96,10.712c0.138,1.151 -0.48,4.077 -0.255,5.067c0.224,0.982 0.674,2.944 1.152,3.385c0.898,0.829 2.149,-0.69 3.437,-0.415c1.742,0.374 2.836,1.024 3.69,-1.739c1.099,-3.552 1.758,-11.192 2.437,-15.899c1.051,-7.285 7.054,-23.824 -5.338,-22.275Z" style="fill:#ffe9d3;"/><path d="M98.86,122.506c-3.098,-0.336 -5.599,1.134 -5.556,5.051c0.034,3.152 0.267,8.757 0.903,14.351c0.702,6.173 1.878,25.689 1.878,25.689c0.027,0.473 0.848,0.947 2.619,1.09c1.381,0.111 2.282,-0.061 2.276,-0.478c-0,0 -0.331,-14.044 -0.141,-15.979c0.172,-1.747 0.467,-7.806 0.641,-12.729c0.268,-7.587 0.796,-16.624 -2.62,-16.995Z" style="fill:#ffe9d3;"/><path d="M109.091,94.473c-12.374,2.091 -14.503,-5.646 -14.503,-5.646c0,0 -4.346,10.15 -3.468,21.427c0.185,2.375 0.815,7.668 0.876,12.282c0.044,3.261 -0.334,5.374 -0.334,5.374c-0,0 1.305,4 6.034,6.258c2.371,1.132 4.929,3.211 12.315,2.774c1.692,-0.1 3.393,-0.512 4.867,-0.881c3.571,-0.894 3.626,-3.455 3.626,-3.455c0,0 -2.183,-5.546 -2.173,-10.242c0.012,-5.579 1.028,-12.094 0.988,-14.737c-0.209,-13.771 -4.636,-19.164 -4.636,-19.164c0,0 0.939,5.244 -3.592,6.01Z" style="fill:#d8d8d8;"/><path d="M100.839,36.524c7.048,-1.181 10.529,4.44 9.162,9.477c-0.691,2.545 -0.961,5.125 -3.247,7.012c-1.507,1.244 -4.731,2.307 -6.478,2.448c-3.285,0.266 -5.212,-3.621 -6.209,-8.256c-0.924,-4.299 2.435,-9.955 6.772,-10.681Z" style="fill:#ffe9d3;"/><path d="M100.709,33.213c1.176,-0.327 2.153,0.431 2.153,0.431c0,-0 2.752,-2.414 7.293,2.169c2.519,2.543 2.935,7.624 2.628,10.541c-0.228,2.157 -1.782,2.705 -2.272,3.945c-0.388,0.981 -0.068,2.637 0.206,2.954c0.036,0.042 -0.424,0.258 -0.834,0.194c-0.422,-0.066 -0.796,-0.411 -0.796,-0.411l-0.003,-1.9c-0,0 -1.543,-2.198 -1.836,-1.237c-0.464,1.522 -2.578,2.257 -2.578,2.257c-0,0 0.78,-0.833 0.577,-1.634c-0.2,-0.788 -0.56,-1.382 -0.56,-1.382c-0,0 -3.449,-0.296 -4.907,-1.913c-2.01,-2.229 -2.286,-3.898 -2.286,-3.898c-0,0 -0.384,0.963 -1.607,2.025c-0.642,0.558 -1.371,0.572 -1.573,0.813c-0.372,0.445 -0.089,1.927 -0.089,1.927c-0,0 -1.643,-1.666 -1.196,-4.55c0.704,-4.536 1.904,-8.725 7.68,-10.331Z" style="fill:#b26f27;"/><path d="M110.174,44.904c0.933,0.242 1.429,1.441 1.108,2.676c-0.321,1.234 -2.304,3.295 -3.237,3.052c-0.933,-0.242 -0.327,-3.304 -0.006,-4.539c0.321,-1.235 1.202,-1.432 2.135,-1.189Z" style="fill:#ffe9d3;"/><path d="M111.38,60.572l-12.288,11.193c0,0 -0.554,-12.147 -1.098,-12.05c-1.464,0.258 -3.001,-0.134 -4.081,2.667c-0.229,0.597 0.523,2.809 0,3.714c-1.711,2.965 -2.633,6.522 -2.1,8.918c0.613,2.762 3.048,4.649 3.048,4.649c-0,0 -0.293,1.894 -0.239,3.558c0.141,4.277 -2.516,8.18 -2.96,11.521c8.623,10.099 23.143,8.867 25.003,1.438c-0.803,-4.84 -4.751,-7.995 -1.761,-16.288c0.912,-2.53 2.696,-6.445 2.696,-6.445c-0,-0 -2.444,3.57 -3.689,-2.13c-0.848,-3.886 2.635,-9.278 2.635,-9.278c0,-0 -2.975,-0.918 -5.166,-1.467Z" style="fill:#46596d;"/><path d="M103.843,73.254c-0.028,-1.662 0.38,-2.069 0.305,-3.222c-0.057,-0.889 -0.701,-2.145 -0.701,-2.145l-2.829,2.544l-1.547,1.37l0.143,-0.666c1.236,-0.943 1.642,-3.806 2.737,-4.794c2.455,-2.213 7.949,-6.454 7.949,-6.454l-0.82,-0.973l-0.032,-2.107c0,-0 0.779,0.419 1.551,0.895c1.334,0.823 1.44,1.818 1.44,1.818l1,2.01c0,0 -1.991,3.873 -3.194,5.51c-1.022,1.392 -4.919,4.698 -6.002,6.214Z" style="fill:#d8d8d8;"/><path d="M103.843,73.254c-0.028,-1.662 0.38,-2.069 0.305,-3.222c-0.057,-0.889 -0.701,-2.145 -0.701,-2.145l-1.273,-0.735l-1.556,3.279l-1.547,1.37l0.143,-0.666c1.236,-0.943 1.642,-3.806 2.737,-4.794c2.455,-2.213 7.949,-6.454 7.949,-6.454l0.392,-1.642l-1.243,-0.716l-0.001,-0.722c0,-0 0.779,0.419 1.551,0.895c1.334,0.823 1.44,1.818 1.44,1.818l1,2.01c0,0 -1.991,3.873 -3.194,5.51c-1.022,1.392 -4.919,4.698 -6.002,6.214Z" style="fill:#050505;fill-opacity:0.04;"/><path d="M95.54,69.22c0.965,-1.786 2.213,-2.742 2.213,-2.742l0.958,4.615l0.413,0.741l0.23,-0.318c-0.382,-0.719 0.003,-2.41 0.028,-3.249c0.056,-1.922 0.148,-3.897 0.148,-3.897l-0.946,-3.635l1.519,-1.711l0.008,-1.691l-1.412,0.425l-2.305,3.241c-0,-0 -0.994,3.079 -1.031,4.55c-0.032,1.25 0.234,2.303 0.177,3.671Z" style="fill:#d8d8d8;"/><path d="M95.54,69.22c0.965,-1.786 3.072,-3.572 3.072,-3.572l0.099,5.445l0.413,0.741l0.23,-0.318c-0.382,-0.719 0.003,-2.41 0.028,-3.249c0.056,-1.922 0.148,-3.897 0.148,-3.897l-0.946,-3.635l0.318,-2.455l1.209,-0.465l0,-0.482l-1.412,0.425l-2.305,3.241c-0,-0 -0.994,3.079 -1.031,4.55c-0.032,1.25 0.234,2.303 0.177,3.671Z" style="fill:#050505;fill-opacity:0.04;"/></svg>