<?xml version="1.0" encoding="UTF-8" standalone="no"?><!DOCTYPE svg PUBLIC "-//W3C//DTD SVG 1.1//EN" "http://www.w3.org/Graphics/SVG/1.1/DTD/svg11.dtd"><svg width="100%" height="100%" viewBox="0 0 200 200" version="1.1" xmlns="http://www.w3.org/2000/svg" xmlns:xlink="http://www.w3.org/1999/xlink" xml:space="preserve" xmlns:serif="http://www.serif.com/" style="fill-rule:evenodd;clip-rule:evenodd;stroke-linejoin:round;stroke-miterlimit:2;"><path d="M91.495,35.584c5.661,1.946 4.919,10.408 2.968,17.488c-1.89,6.859 -3.301,18.34 -6.859,16.743c-3.559,-1.598 -2.703,-12.121 -1.505,-19.325c1.197,-7.204 1.797,-16.144 5.396,-14.906Z" style="fill:#ffe9d3;"/><path d="M87.315,62.729c4.668,1.903 1.983,7.434 -1.467,11.918c-3.344,4.345 -7.351,11.807 -10.196,10.363c-2.845,-1.444 0.431,-8.33 3.229,-12.978c2.798,-4.648 5.467,-10.512 8.434,-9.303Z" style="fill:#ffe9d3;"/><path d="M108.763,40.059l-11.771,-4.287c-3.044,-0.443 -5.307,-2.431 -6.968,1.88c-0.257,0.669 -0.618,4.883 -1.204,5.898c-1.921,3.327 -3.425,5.002 -2.827,7.691c0.688,3.099 2.93,7.96 2.93,7.96c-0,0 -0.043,5.437 0.018,7.303c0.158,4.799 0.197,3.813 -0.301,7.561c6.126,15.117 19.521,11.001 21.614,8.118c-0.901,-5.431 -1.285,-9.709 2.07,-19.014c3.152,-8.741 7.05,-12.893 3.47,-17.391c-2.016,-2.532 -3.216,-3.408 -7.031,-5.719Z" style="fill:#ffe9d3;"/><path d="M104.402,77.866c-2.338,-0.468 -2.675,0.932 -3.625,2.905c-2.537,5.268 -0.867,18.088 0.589,24.111c0.854,3.529 1.451,7.995 2.325,11.841c0.288,1.268 -0.06,4.605 0.308,5.683c0.364,1.07 1.096,3.207 1.681,3.643c1.1,0.82 2.318,-1.022 3.786,-0.865c1.988,0.213 3.285,0.811 3.915,-2.372c0.811,-4.092 0.653,-12.695 0.86,-18.027c0.32,-8.252 4.44,-24.057 -9.839,-26.919Z" style="fill:#ffe9d3;"/><path d="M110.678,118.334c-3.496,-0.013 -6.115,1.921 -5.609,6.287c0.407,3.513 0.329,10.162 1.694,16.33c1.505,6.806 3.188,31.699 3.188,31.699c0.086,0.525 0.724,3.043 2.717,2.995c1.554,-0.037 2.758,-1.589 2.702,-2.052c0,-0 0.015,-19.719 0,-21.901c-0.013,-1.969 -0.391,-8.764 -0.773,-14.278c-0.588,-8.497 -0.064,-19.065 -3.919,-19.08Z" style="fill:#ffe9d3;"/><path d="M93.29,72.885c-2.367,0.296 -1.877,-2.338 -3.027,-0.475c-3.073,4.975 -4.619,18.08 -3.798,24.222c0.48,3.598 0.609,8.102 1.077,12.018c0.154,1.292 -0.539,4.575 -0.287,5.685c0.252,1.102 0.756,3.304 1.293,3.799c1.008,0.93 2.411,-0.775 3.856,-0.466c1.954,0.419 3.182,1.148 4.141,-1.951c1.232,-3.986 1.972,-12.558 2.734,-17.839c1.179,-8.174 7.914,-26.731 -5.989,-24.993Z" style="fill:#ffe9d3;"/><path d="M94.323,110.982c-3.475,-0.378 -6.282,1.272 -6.234,5.667c0.039,3.536 0.3,9.825 1.014,16.102c0.787,6.926 1.948,31.292 1.948,31.292c0.031,0.531 1.027,1.117 3.014,1.277c1.55,0.124 2.953,-0.34 2.946,-0.807c-0,-0 -0.681,-18.011 -0.468,-20.182c0.193,-1.96 0.525,-8.757 0.72,-14.281c0.301,-8.512 0.893,-18.652 -2.94,-19.068Z" style="fill:#ffe9d3;"/><path d="M105.792,26.658l-10.064,-0l-0,12.975c-13.267,10.939 20.751,11.193 10.064,0l-0,-12.975Z" style="fill:#ffe9d3;"/><path d="M107.904,39.563c-2.215,5.018 -6.296,11.294 -12.487,11.222c-2.098,-2.789 -0.901,-8.554 1.575,-15.013c-3.044,-0.443 -5.307,-2.431 -6.968,1.88c-0.257,0.669 -0.618,4.883 -1.204,5.898c-1.921,3.327 -3.425,5.002 -2.827,7.691c0.688,3.099 2.93,7.96 2.93,7.96c-0,0 -0.043,5.437 0.018,7.303c0.158,4.799 0.197,3.813 -0.301,7.561c6.126,15.117 19.521,11.001 21.614,8.118c-0.901,-5.431 -1.285,-9.709 2.07,-19.014c0.849,-2.353 2.481,-5.639 2.481,-5.639c-2.395,0.397 -2.686,-3.178 0.82,-13.019c0,-0 -3.074,-3.844 -7.721,-4.948Z" style="fill:#001b35;"/><path d="M107.904,39.563c-1.781,3.463 -1.655,3.816 -4.568,6.597c-2.199,2.441 -5.111,4.612 -7.933,4.604c1.231,0.697 3.433,3.866 4.853,7.785c7.231,-3.974 9.268,-11.812 10.64,-17.259l-2.992,-1.727Z" style="fill:#4a5e70;"/><path d="M97.415,35.167c-1.121,3.039 -1.477,3.892 -2.341,6.816c-0.124,2.391 -1.305,6.232 0.356,8.765c-1.348,0.192 -2.44,-0.44 -5.722,2.67c-2.374,-4.856 2.095,-13.183 4.869,-17.585l2.838,-0.666Z" style="fill:#4a5e70;"/><path d="M79.214,172.573c-0.481,-1.257 2.178,-4.291 5.614,-5.156c1.787,-0.449 2.788,-0.646 4.327,-1.621c1.551,-0.984 1.344,-3.582 1.344,-3.582l4.673,0.84c-0,-0 -0.015,2.122 0.21,3.72c0.238,1.693 -2.015,2.214 -2.237,2.371c-1.591,1.12 -1.792,1.258 -4.316,2.855c-0.448,0.283 -2.118,1.838 -2.701,1.927c-3.334,0.51 -6.432,-0.097 -6.914,-1.354Z" style="fill:#ffe9d3;"/><path d="M79.214,172.565c-0.481,-1.257 1.141,-3.79 4.454,-4.976c1.721,-0.617 3.839,-1.145 5.461,-2c0.204,-0.108 0.302,-0.303 0.585,-0.599c0.131,-0.137 0.442,-0.472 0.442,-0.472c0,0 -0.273,1.027 -0.662,1.274c-1.354,0.859 -5.035,1.815 -5.464,2.275c-0.203,0.218 -1.158,0.978 -1.046,1.32c0.175,0.53 1.679,1.114 2.178,0.938c1.071,-0.375 3.216,-1.592 5.136,-2.497c1.138,-0.537 3.54,-0.982 4.469,-1.968c0.689,-0.731 -0.005,-1.904 0.387,-2.878c-0,0 0.532,0.029 0.675,0.958c0.059,0.382 -0.042,1.726 0.027,2.201c0.252,1.728 -0.31,2.978 -0.451,3.225c-0.121,0.211 -1.143,2.657 -1.198,3.037c-0.036,0.255 -0.534,0.225 -0.659,0.152c-0.378,-0.22 -0.303,-0.136 -0.42,-0.434c-0.085,-0.217 0.141,-2.265 0,-2.242c-0.176,0.028 -0.52,0.148 -0.595,0.204c-0.673,0.501 -1.349,1.046 -1.938,1.49c-0.421,0.317 -3.173,2.468 -3.735,2.609c-3.219,0.812 -7.164,-0.36 -7.646,-1.617Z" style="fill:#001b35;"/><path d="M110.442,185.185c-1.911,-0.366 -2.868,-0.951 -2.319,-3.204c0.286,-1.171 0.987,-4.012 1.236,-4.862c0.13,-0.442 0.068,-1.111 0.286,-2.494c0.204,-1.294 0.318,-1.343 0.339,-1.995l5.367,0.951c0.123,0.243 -0.384,2.505 -0.337,4.202c0.01,0.359 -0.143,1.352 -0.458,4.304c-0.238,2.231 -2.203,3.464 -4.114,3.098Z" style="fill:#ffe9d3;"/><path d="M109.02,189.193c-1.924,-0.284 -1.974,-3.398 -1.953,-4.287c0.023,-1.016 0.421,-3.553 0.883,-4.062c0.426,-0.468 0.739,-2.122 1.102,-3.808c0.212,-0.986 0.252,-2.07 0.264,-2.542c0.007,-0.284 0.198,-0.809 0.623,-1.121c-0.01,0.844 -0.192,1.631 -0.186,2.094c0.005,0.383 -0.969,4.379 -1.088,6.381c-0.079,1.314 0.986,2.287 1.225,2.282c0.275,-0.005 2.267,-0.676 2.85,-2.031c0.871,-2.026 1.309,-6.488 1.694,-6.786c0.629,-0.489 0.707,-1.324 0.936,-2.068c0.057,-0.189 0.578,0.724 0.734,1.172c0.101,0.29 -0.363,3.194 -0.213,5.205c0.015,0.191 -0.013,0.647 -0.182,0.964c-0.081,0.153 -0.269,0.016 -0.468,0.017c-0.077,0 -0.181,-0.325 -0.192,-0.174c-0.018,0.245 -0.076,1.037 -0.078,1.311c-0.014,1.553 -0.152,3.799 -0.553,4.365c-1.573,2.217 -3.544,3.362 -5.398,3.088Z" style="fill:#001b35;"/><path d="M96.543,14.51c7.909,-1.325 11.813,4.982 10.28,10.633c-0.775,2.856 -1.079,5.751 -3.643,7.868c-1.69,1.395 -5.308,2.588 -7.268,2.746c-3.686,0.298 -5.848,-4.063 -6.966,-9.263c-1.037,-4.824 2.732,-11.17 7.597,-11.984Z" style="fill:#ffe9d3;"/><path d="M98.813,43.399c-2.564,-0.704 1.363,-0.141 2.653,-1.707c0.283,-0.343 -2.235,-2.102 -2.14,-3.479c0.084,-1.217 2.208,-2.428 2.496,-3.911c0.182,-0.938 -2.054,-2.089 -1.944,-3.021c0.414,-3.535 1.201,-4.221 1.201,-4.221c0,0 0.427,-0.255 0.267,0.628c-0.094,0.518 -0.73,1.761 -0.868,2.788c-0.145,1.088 4.348,2.288 4.022,3.486c-0.186,0.683 -2.863,3.935 -2.945,4.459c-0.097,0.628 2.782,1.196 2.725,1.48c-0.395,1.966 -2.904,4.202 -5.467,3.498Z" style="fill:#b26f27;"/><path d="M92.638,39.807c1.858,-0.51 -1.022,-0.143 -2.083,-1.43c-0.232,-0.283 1.524,-1.642 1.363,-2.752c-0.142,-0.98 -1.799,-2 -2.109,-3.199c-0.09,-0.348 0.62,-1.172 0.62,-1.172c-0.576,-1.471 -1.103,-2.921 -1.373,-4.253c-0,-0 -1.482,4.419 -1.259,5.093c0.183,0.554 2.384,3.227 2.479,3.65c0.113,0.507 -1.989,0.902 -1.928,1.131c0.421,1.59 2.431,3.442 4.29,2.932Z" style="fill:#b26f27;"/><path d="M98.946,10.813c10.483,1.195 11.559,11.641 9.999,14.484c-0.361,0.657 0.822,2.941 0.133,3.889c-0.597,0.82 -2.378,1.921 -1.309,3.341c0.398,0.529 0.245,1.796 -0.618,2.571c-1.909,1.717 0.833,4.127 -0.756,5.253c-0.482,0.342 -0.979,0.55 -1.463,0.668c-0.082,0.02 0.892,-0.515 0.834,-1.918c-0.032,-0.792 -1.204,-2.264 -1.084,-3.079c0.14,-0.954 1.208,-1.825 1.225,-2.337c0.01,-0.304 -0.444,-0.507 -0.524,-0.606c-0.102,-0.126 0.217,0.288 0.075,0.53c-0.441,0.751 -0.934,0.293 -1.137,1.432c-0.128,0.72 0.272,1.343 0.196,2.374c-0.031,0.414 -0.877,0.883 -0.947,1.306c-0.091,0.552 0.663,0.661 0.726,1.079c0.085,0.56 -0.496,1.346 -0.517,1.345c-1.144,-0.013 -2.059,-0.408 -2.282,-0.494c-0.967,-0.371 0.459,-0.733 -0.257,-2.743c-0.291,-0.814 -2.068,-1.537 -2.07,-2.476c-0.001,-0.538 0.69,-3.066 0.673,-3.607c-0.031,-0.963 -1.065,-1.914 -0.977,-2.725c0.146,-1.359 1.241,-2.3 1.241,-2.3c0.001,0.665 -5.278,-1.509 -7.498,-3.647c-1.338,-1.288 -1.966,-3.624 -1.966,-3.624c-1.016,1.563 -1.776,3.249 -1.87,5.255c-0,0 -0.704,-0.18 -0.931,-1.474c-0.191,-1.09 0.044,-3.122 0.465,-4.983c0.694,-3.067 5.566,-8.093 10.639,-7.514Z" style="fill:#b26f27;"/><path d="M105.075,80.451c-12.465,1.443 -16.404,-5.824 -16.404,-5.824c0,0 -5.836,11.737 -4.765,25.499c0.226,2.899 0.712,9.205 0.786,14.836c0.053,3.979 0.133,42.786 0.133,42.786c-0,-0 2.435,3.145 5.99,5.364c4.331,2.702 10.108,6.536 15.725,7.532c1.733,0.307 4.563,-0.57 6.353,-1.052c2.885,-0.776 5.182,-3.592 5.182,-3.592c0,0 -3.566,-42.65 -3.554,-48.382c0.014,-6.809 0.561,-15.683 0.512,-18.909c-0.255,-16.806 -5.294,-23.094 -5.294,-23.094c-0,-0 0.109,4.284 -4.664,4.836Z" style="fill:#d8d8d8;"/><path d="M115.508,44.487c-5.577,-2.019 -5.513,6.854 -4.185,15.203c1.287,8.089 1.76,20.408 5.294,21.307c3.533,0.9 3.519,-10.086 2.923,-18.034c-0.597,-7.948 -0.487,-17.193 -4.032,-18.476Z" style="fill:#ffe9d3;"/><path d="M118.277,73.547c-5.174,-3.501 -4.943,3.052 -4.329,11.444c0.337,4.608 1.179,10.244 1.701,14.777c0.399,3.466 -0.614,8.362 0.82,9.165c3.309,1.853 4.158,-8.705 4.212,-16.507c0.054,-7.803 0.885,-16.654 -2.404,-18.879Z" style="fill:#ffe9d3;"/><path d="M119.839,103.116c0,-0 -3.633,-0.096 -4.214,2.038c-0.315,1.157 -0.749,4.468 -1.006,5.661c-0.394,1.836 -0.369,3.304 0.184,3.341c0.872,0.06 1.385,-3.116 1.385,-3.116c0,-0 -0.008,4.32 0.445,4.948c0.57,0.789 1.812,2.001 2.285,1.967c2.028,-0.147 3.59,-7.322 3.437,-8.956c-0.136,-1.449 -2.516,-5.883 -2.516,-5.883Z" style="fill:#ffe9d3;"/><path d="M79.936,80.416c-0,-0 -2.689,-2.873 -4.958,-1.608c-1.23,0.685 -4.393,3.007 -5.609,3.767c-1.871,1.169 -3.107,2.365 -2.717,2.821c0.614,0.719 3.722,-1.434 3.722,-1.434c-0,0 -3.702,3.459 -3.893,4.311c-0.24,1.072 -0.33,2.999 0.06,3.335c1.673,1.444 9.001,-3.11 10.282,-4.539c1.135,-1.266 3.113,-6.653 3.113,-6.653Z" style="fill:#ffe9d3;"/></svg>