<?xml version="1.0" encoding="UTF-8" standalone="no"?><!DOCTYPE svg PUBLIC "-//W3C//DTD SVG 1.1//EN" "http://www.w3.org/Graphics/SVG/1.1/DTD/svg11.dtd"><svg width="100%" height="100%" viewBox="0 0 200 200" version="1.1" xmlns="http://www.w3.org/2000/svg" xmlns:xlink="http://www.w3.org/1999/xlink" xml:space="preserve" xmlns:serif="http://www.serif.com/" style="fill-rule:evenodd;clip-rule:evenodd;stroke-linejoin:round;stroke-miterlimit:2;"><path d="M105.215,77.907c-2.539,-0.557 -2.904,1.106 -3.936,3.45c-2.754,6.259 -0.941,21.49 0.64,28.646c0.927,4.192 1.575,9.498 2.524,14.067c0.312,1.507 -0.065,5.472 0.334,6.753c0.395,1.271 1.19,3.81 1.824,4.328c1.194,0.975 2.517,-1.214 4.111,-1.028c2.158,0.253 3.566,0.963 4.25,-2.818c0.88,-4.862 0.708,-15.083 0.933,-21.417c0.348,-9.804 4.82,-28.581 -10.68,-31.981Z" style="fill:#ffe9d3;"/><path d="M112.028,125.985c-3.796,-0.015 -6.639,2.282 -6.09,7.469c0.442,4.173 1.436,11.572 2.917,18.9c1.635,8.086 3.237,21.972 3.237,21.972c0.094,0.624 2.515,3.338 4.679,3.281c1.687,-0.045 2.337,-1.631 2.276,-2.182c0,-0 -0.832,-7.717 -0.848,-10.309c-0.014,-2.34 -0.425,-10.413 -0.84,-16.964c-0.638,-10.095 -1.147,-22.149 -5.331,-22.167Z" style="fill:#ffe9d3;"/><path d="M95.857,66.278c-2.569,0.351 -2.037,-2.778 -3.286,-0.564c-3.335,5.911 -5.014,21.479 -4.123,28.776c0.522,4.276 0.662,9.626 1.17,14.279c0.167,1.534 -0.586,5.435 -0.311,6.754c0.272,1.309 0.82,3.925 1.402,4.513c1.095,1.105 2.618,-0.921 4.186,-0.553c2.122,0.497 3.455,1.364 4.495,-2.319c1.338,-4.734 2.142,-14.919 2.969,-21.193c1.28,-9.711 8.59,-31.758 -6.502,-29.693Z" style="fill:#ffe9d3;"/><path d="M96.979,111.539c-3.773,-0.449 -6.82,1.512 -6.768,6.733c0.042,4.201 0.326,11.673 1.101,19.13c0.855,8.228 1.126,22.222 1.126,22.222c0.034,0.631 2.184,3.606 4.341,3.796c1.682,0.149 2.479,-1.355 2.472,-1.91c-0,-0 -0.093,-7.77 0.138,-10.35c0.209,-2.328 0.569,-10.404 0.781,-16.967c0.327,-10.113 0.969,-22.159 -3.191,-22.654Z" style="fill:#ffe9d3;"/><path d="M112.374,189.687c-2.138,-0.409 -4.007,-2.166 -4.007,-4.521c-0,-0.363 -0.095,-1.956 -0,-2.345c0.369,-1.513 11.275,-3.904 11.681,-1.749c0.175,0.928 -0.19,5.133 -0.997,6.187c-1.762,2.303 -4.209,2.901 -6.677,2.428Z" style="fill:#e1e1e1;"/><path d="M78.585,171.168c-0.622,-1.624 -0.107,-2.894 -0.107,-2.894c-0,-0 21.85,-3.707 21.935,-3.106c0.307,2.187 -0.462,3.686 -0.655,3.98c-0.961,1.46 -5.642,1.496 -8.238,2.206c-0.66,0.18 -3.251,1.447 -4.003,1.562c-4.308,0.659 -8.31,-0.125 -8.932,-1.748Z" style="fill:#e1e1e1;"/><path d="M78.585,169.21c-0.622,-1.624 1.47,-5.423 5.909,-6.539c2.307,-0.58 4.755,-1.327 6.933,-2.217c0.721,-0.294 0.905,-3.975 0.905,-3.975l6.868,0.434c-0,-0 0.575,4.084 0.865,6.149c0.308,2.187 -0.114,3.835 -0.307,4.128c-0.961,1.46 -5.642,1.497 -8.238,2.207c-0.66,0.18 -3.251,1.447 -4.003,1.562c-4.308,0.658 -8.31,-0.125 -8.932,-1.749Z" style="fill:#ffe9d3;"/><path d="M112.374,187.543c-2.468,-0.473 -4.577,-2.741 -3.868,-5.651c0.369,-1.513 0.414,-1.84 1.252,-2.846c0.435,-0.522 1.037,-1.388 1.318,-3.174c0.165,-1.045 -0.076,-2.546 -0.112,-3.051c-0.021,-0.303 0.341,-0.511 0.848,-0.827c0.393,4.565 6.125,2.954 6.891,0.095c0.053,-0.198 0.813,0.799 1.059,1.285c0.159,0.314 -0.12,3.398 0.286,5.554c0.175,0.928 -0.19,5.132 -0.997,6.187c-1.762,2.303 -4.209,2.901 -6.677,2.428Z" style="fill:#001b35;"/><path d="M114.844,84.129c-2.056,6.135 -14.72,2.828 -25.518,-8.851c-1.555,3.033 -1.196,6.554 -1.114,13.293c0.077,27.634 4.091,53.491 3.896,64.247c2.051,2.669 3.917,2.196 5.207,2.339c1.301,0.145 1.997,0.881 2.086,0.612c0.383,-1.165 3.05,-41.647 1.767,-49.809c0,0 1.587,12.369 3.272,24.03c0.467,3.23 2.244,9.407 2.743,12.673c2.661,17.429 2.968,26.874 3.896,25.733c2.451,-3.013 5.205,4.638 7.972,1.344c0.001,-10.824 -2.607,-37.714 -2.295,-48.434c0.425,-14.594 2.074,-27.625 -1.912,-37.177Z" style="fill:#001b35;"/><path d="M116.679,176.77c0,-0.501 -0.086,-2.719 -0.643,-3.134l-2.762,-0.063c-0.548,0.349 -0.787,2.437 -0.787,2.938l0.007,2.851c-0,0.501 0.4,1.45 0.901,1.45l1.815,-0c0.501,-0 1.072,-0.699 1.072,-1.199l0.397,-2.843Z" style="fill:#001b35;"/><path d="M78.585,169.21c-0.622,-1.624 1.47,-5.423 5.909,-6.539c2.307,-0.58 2.995,-0.77 5.173,-1.66c0.273,-0.112 0.643,-1.166 1.025,-1.505c0.369,-0.327 0.781,-0.657 1.058,-0.73c0.192,-0.051 0.33,0.023 0.33,0.023c-0.051,0.094 -0.035,0.218 -0.055,0.31c-0.391,1.789 4.806,3.181 7.502,0.077c0,0 0.709,0.094 0.886,1.271c0.072,0.484 -0.085,2.152 -0,2.754c0.307,2.187 -0.462,3.686 -0.655,3.979c-0.961,1.46 -5.642,1.497 -8.238,2.207c-0.66,0.18 -3.251,1.447 -4.003,1.562c-4.308,0.658 -8.31,-0.125 -8.932,-1.749Z" style="fill:#001b35;"/><path d="M90.806,164.216c1.367,-0.726 3.538,-2.553 3.062,-3.411l-1.775,-1.079c-1.054,-1.056 -2.166,0.695 -2.612,0.924l-2.782,1.24c-0.445,0.229 -1.766,0.813 -1.537,1.258l1.378,1.609c0.229,0.446 1.111,0.634 1.556,0.405c0,0 1.865,-0.497 2.71,-0.946Z" style="fill:#001b35;"/><path d="M116.679,176.77c0,-0.501 -0.086,-2.719 -0.643,-3.134l-2.762,-0.063c-0.548,0.349 -0.787,2.437 -0.787,2.938l0.007,2.851c-0,0.501 0.4,1.45 0.901,1.45l1.815,-0c0.501,-0 1.072,-0.699 1.072,-1.199l0.397,-2.843Z" style="fill:#e1e1e1;fill-opacity:0.28;"/><path d="M90.806,164.216c1.367,-0.726 3.538,-2.553 3.062,-3.411l-1.775,-1.079c-1.054,-1.056 -2.166,0.695 -2.612,0.924l-2.782,1.24c-0.445,0.229 -1.766,0.813 -1.537,1.258l1.378,1.609c0.229,0.446 1.111,0.634 1.556,0.405c0,0 1.865,-0.497 2.71,-0.946Z" style="fill:#e1e1e1;fill-opacity:0.28;"/><path d="M91.364,38.449c5.671,0.698 4.321,9.372 1.828,16.925c-2.415,7.318 -4.66,19.177 -8.199,18.362c-3.539,-0.815 -1.93,-11.586 -0.201,-19.097c1.73,-7.511 2.967,-16.633 6.572,-16.19Z" style="fill:#ffe9d3;"/><path d="M110.229,40.951l-13.441,-1.835c-2.087,1.986 -4.75,-0.477 -6.434,3.895c-0.262,0.678 0.594,3.195 -0,4.225c-1.948,3.374 -1.847,4.785 -1.241,7.511c0.698,3.143 2.331,4.399 2.331,4.399c-0,0 -0.346,5.684 -0.284,7.576c0.16,4.867 -0.301,11.268 -0.806,15.07c6.213,15.331 19.662,3.35 21.785,0.427c-0.914,-5.509 -1.303,-9.848 2.1,-19.285c3.196,-8.865 7.15,-13.075 3.518,-17.637c-2.044,-2.568 -3.66,-2.003 -7.528,-4.346Z" style="fill:#ffe9d3;"/><path d="M107.614,25.906l-10.207,-0l-0,13.159c-13.454,11.095 21.045,11.352 10.207,0l-0,-13.159Z" style="fill:#ffe9d3;"/><path d="M107.614,25.906l-10.207,-0l-0.131,9.272c3.013,0.352 6.177,0.121 10.207,-3.448l0.131,-5.824Z" style="fill:#f89c3a;fill-opacity:0.15;"/><path d="M108.481,38.142c-2.28,4.058 -5.149,9.771 -10.478,10.97c-1.696,-3.622 -2.85,-7.828 -1.606,-12.686c-2.08,-0.567 -4.738,0.111 -6.908,0.938c-0.287,1.782 -0.055,3.606 0.456,5.453c-1.68,2.409 -2.695,4.882 -2.667,7.453c0.164,3.18 1.307,5.654 3.121,7.647c1.956,6.567 -2.494,19.955 -2.494,19.955c-1.307,0.766 1.431,4.723 3.3,6.784c5.002,5.517 12.581,6.66 25.261,2.639c-3.673,-6.641 -4.545,-19.562 -2.476,-23.589c-1.458,-4.187 -1.694,-8.22 -0.54,-12.077c1.349,-1.513 6.553,-3.162 6.553,-3.162c-0,0 -0.466,-0.978 -1.001,-2.403c-1.047,-2.786 -4.109,-5.54 -10.521,-7.922Z" style="fill:#fafafa;"/><path d="M94.244,35.062l-0,-2.217l3.359,1.296l-0.215,4.927c0,0 -1.934,2.77 -1.914,4.456c0.034,2.761 -2.206,6.293 -1.012,8.903c0.406,0.888 -1.117,-1.283 -1.557,-2.034c-0.942,-1.607 -1.124,-2.208 -1.405,-4.818c-0.247,-2.3 2.744,-10.513 2.744,-10.513Z" style="fill:#b26f27;"/><path d="M98.313,14.173c7.58,-1.27 11.323,4.775 9.853,10.192c-0.743,2.737 -1.033,5.512 -3.491,7.541c-1.621,1.338 -5.088,2.481 -6.967,2.633c-3.533,0.285 -5.606,-3.895 -6.677,-8.88c-0.994,-4.623 2.618,-10.705 7.282,-11.486Z" style="fill:#ffe9d3;"/><path d="M107.391,28.892c-1.167,-1.993 -1.61,-3.15 -2.681,-2.533c-0.73,0.42 -0.666,2.038 -2.71,1.973c-8.218,-0.263 -10.48,-6.512 -10.48,-6.512c0,-0 0.391,5.791 -0.358,5.174c-2.604,-2.142 -2.163,-11.695 1.177,-12.862c2.084,-0.728 5.238,-5.656 9.437,-4.054c0.675,0.257 2.887,1.759 3.702,2.23c1.257,0.725 4.135,2.717 4.88,3.627c1.125,1.373 0.579,8.395 -0.033,10.576c-0.1,0.358 0.015,5.828 0.021,6.835c0.53,2.088 1.63,7.097 0.741,9.729c-1.141,3.38 -6.658,8.811 -8.561,10.502c-0.889,0.79 -3.352,1.302 -2.495,0.503c2.295,-2.139 4.114,-10.06 5.454,-14.24c0.798,-2.488 1.511,-7.68 1.906,-10.948Z" style="fill:#b26f27;"/><path d="M118.053,83.052c6.695,-2.511 1.786,-6.566 -5.408,-8.798c-3.95,-1.226 -17.013,-6.213 -18.521,-5.258c-3.479,2.205 0.489,5.149 6.805,7.755c6.316,2.607 13.1,7.811 17.124,6.301Z" style="fill:#ffe9d3;"/><path d="M93.815,70.141c-0.571,0.703 -0.614,1.315 -1.67,1.525c-0.128,0.026 -1.49,-2.647 -1.607,-2.841c-0.395,-0.656 -0.436,-1.161 -0.865,-1.342c-1.464,-0.619 -5.102,1.586 -5.601,0.12c-0.959,-2.815 0.285,-3.18 1.727,-4.276c2.53,-1.924 5.91,-0.96 6.994,0.454c0.78,1.016 5.703,6.912 5.703,6.912c-0,0 -4.118,-1.245 -4.681,-0.552Z" style="fill:#f89c3a;fill-opacity:0.15;"/><path d="M94.143,70.375c-0.57,0.702 -0.613,1.315 -1.669,1.525c-0.129,0.025 -1.491,-2.648 -1.607,-2.842c-0.395,-0.656 -0.437,-1.161 -0.865,-1.342c-1.464,-0.619 -5.103,1.586 -5.602,0.121c-0.959,-2.815 0.286,-3.18 1.727,-4.276c2.531,-1.924 5.91,-0.96 6.995,0.453c0.779,1.016 5.702,6.913 5.702,6.913c0,-0 -4.118,-1.245 -4.681,-0.552Z" style="fill:#ffe9d3;"/><path d="M83.478,71.502c-0.757,-6.093 7.113,-3.745 14.746,-2.203c5.284,1.067 8.313,2.371 11.391,2.988c1.097,0.22 4.696,-0.394 4.696,-0.394l0.63,3.144c0,0 -8.783,2.278 -16.105,1.537c-10.724,-1.087 -14.876,-1.2 -15.358,-5.072Z" style="fill:#f89c3a;fill-opacity:0.15;"/><path d="M83.074,71.146c-0.677,-5.538 7.527,-3.081 15.162,-1.508c5.284,1.088 8.312,2.338 11.39,2.968c1.097,0.225 4.385,-0.267 4.385,-0.267l0.609,2.573c-0,0 -8.47,2.163 -15.796,1.322c-10.729,-1.232 -15.218,-0.738 -15.75,-5.088Z" style="fill:#ffe9d3;"/><path d="M119.147,48.827c0,-0 -5.32,1.842 -5.746,4.279c-0,0 -1.381,4.443 -0.41,11.181c1.233,8.556 2.716,18.548 6.312,18.047c3.597,-0.5 3.183,-10.408 2.12,-18.041c-1.063,-7.634 -2.276,-15.466 -2.276,-15.466Z" style="fill:#ffe9d3;"/><path d="M105.926,26.112c1.092,0.103 1.868,1.359 1.732,2.804c-0.135,1.446 -1.132,2.536 -2.224,2.433c-1.091,-0.103 -1.868,-1.359 -1.732,-2.804c0.136,-1.445 1.133,-2.535 2.224,-2.433Z" style="fill:#FFE9D3;"/><path d="M105.926,26.112c1.092,0.103 1.868,1.359 1.732,2.804c-0.135,1.446 -1.132,2.536 -2.224,2.433c-1.091,-0.103 -1.868,-1.359 -1.732,-2.804c0.136,-1.445 1.133,-2.535 2.224,-2.433Z" style="fill:#f89c3a;fill-opacity:0.15;"/><path d="M87.821,165.944c0.547,0.031 0.681,-0.258 0.643,-0.371c-0,0 0.287,-2.394 -0.176,-3.463c-0.323,-0.745 -0.449,-0.78 -0.571,-0.856c-0.084,-0.051 -0.268,-0.088 -0.567,0.051c-0.279,0.13 -0.337,0.399 -0.299,0.512c0,-0 0.152,-0.118 0.3,0.066c0.669,0.826 0.259,3.587 0.259,3.587c0.038,0.113 0.104,0.457 0.411,0.474Z" style="fill:#e1e1e1;"/><path d="M90.588,165.183c0.203,-0.142 0.242,-0.593 0.028,-0.852c-0,-0 -1.109,-1.391 -2.799,-1.937c-1.603,-0.518 -2.141,-0.259 -2.141,-0.259c-0.167,-0.064 -0.455,0.069 -0.658,0.211c-0.203,0.142 -0.159,0.509 0.008,0.573c0,0 0.612,-0.442 2.189,0.094c1.528,0.52 2.724,1.988 2.724,1.988c0.132,0.176 0.446,0.324 0.649,0.182Z" style="fill:#e1e1e1;"/><path d="M90.029,164.98c0.547,0.031 0.68,-0.258 0.642,-0.371c0,-0 0.288,-2.395 -0.175,-3.464c-0.323,-0.745 -0.449,-0.78 -0.572,-0.855c-0.083,-0.052 -0.267,-0.088 -0.566,0.05c-0.279,0.13 -0.337,0.399 -0.299,0.512c0,-0 0.152,-0.117 0.3,0.066c0.668,0.826 0.259,3.587 0.259,3.587c0.038,0.113 0.104,0.457 0.411,0.475Z" style="fill:#e1e1e1;"/><path d="M92.584,164.031c0.203,-0.142 0.241,-0.593 0.028,-0.852c-0,-0 -1.11,-1.391 -2.8,-1.937c-1.602,-0.518 -2.14,-0.259 -2.14,-0.259c-0.167,-0.064 -0.455,0.069 -0.658,0.211c-0.204,0.142 -0.159,0.509 0.008,0.573c-0,0 0.612,-0.442 2.189,0.094c1.527,0.52 2.724,1.988 2.724,1.988c0.132,0.176 0.445,0.324 0.649,0.182Z" style="fill:#e1e1e1;"/><path d="M92.435,163.985c0.603,-0.027 0.678,-0.339 0.608,-0.452c0,-0 -0.275,-2.503 -1.042,-3.557c-0.534,-0.735 -0.679,-0.756 -0.832,-0.821c-0.103,-0.045 -0.313,-0.063 -0.604,0.113c-0.272,0.164 -0.269,0.448 -0.2,0.561c-0,-0 0.136,-0.138 0.343,0.036c0.931,0.78 1.163,3.675 1.163,3.675c0.069,0.113 0.225,0.461 0.564,0.445Z" style="fill:#e1e1e1;"/><path d="M94.882,163.178c0.204,-0.142 0.242,-0.594 0.028,-0.853c0,0 -1.109,-1.39 -2.799,-1.936c-1.603,-0.518 -2.14,-0.259 -2.14,-0.259c-0.168,-0.064 -0.456,0.069 -0.659,0.21c-0.203,0.142 -0.159,0.51 0.008,0.574c0,-0 0.612,-0.443 2.189,0.094c1.528,0.52 2.724,1.988 2.724,1.988c0.132,0.176 0.446,0.324 0.649,0.182Z" style="fill:#e1e1e1;"/><path d="M116.86,180.404c0.073,-0.25 0.012,-0.508 -0.136,-0.575c0,-0 -0.73,-1.022 -2.18,-1.554c-1.375,-0.505 -2.171,-0.38 -2.171,-0.38c-0.149,-0.067 -0.329,0.081 -0.402,0.331c-0.073,0.25 -0.012,0.507 0.136,0.575c0,-0 0.865,-0.187 2.231,0.35c1.323,0.52 2.121,1.584 2.121,1.584c0.148,0.067 0.328,-0.081 0.401,-0.331Z" style="fill:#e1e1e1;"/><path d="M116.903,178.452c-0.067,-0.252 -0.246,-0.408 -0.398,-0.349c-0,-0 -1.1,-0.252 -2.53,0.425c-1.355,0.641 -1.93,1.341 -1.93,1.341c-0.153,0.059 -0.222,0.311 -0.154,0.563c0.067,0.251 0.246,0.407 0.398,0.348c0,0 0.598,-0.799 1.963,-1.409c1.322,-0.59 2.497,-0.357 2.497,-0.357c0.153,-0.059 0.222,-0.311 0.154,-0.562Z" style="fill:#e1e1e1;"/><path d="M116.847,178.717c0.085,-0.246 0.04,-0.504 -0.101,-0.576c-0,0 -0.655,-1.037 -2.038,-1.609c-1.312,-0.542 -2.094,-0.442 -2.094,-0.442c-0.141,-0.071 -0.324,0.071 -0.409,0.317c-0.085,0.246 -0.04,0.504 0.101,0.575c0,0 0.852,-0.16 2.153,0.414c1.261,0.557 1.979,1.638 1.979,1.638c0.141,0.071 0.324,-0.071 0.409,-0.317Z" style="fill:#e1e1e1;"/><path d="M117.008,176.62c-0.056,-0.254 -0.226,-0.415 -0.379,-0.358c-0,0 -1.079,-0.272 -2.525,0.385c-1.371,0.623 -1.972,1.317 -1.972,1.317c-0.154,0.056 -0.234,0.309 -0.178,0.564c0.055,0.254 0.225,0.415 0.379,0.358c0,-0 0.628,-0.795 2.007,-1.385c1.336,-0.572 2.49,-0.317 2.49,-0.317c0.154,-0.057 0.234,-0.309 0.178,-0.564Z" style="fill:#e1e1e1;"/><path d="M116.949,176.809c0.085,-0.246 0.04,-0.504 -0.101,-0.575c-0,0 -0.655,-1.038 -2.038,-1.609c-1.312,-0.543 -2.094,-0.443 -2.094,-0.443c-0.141,-0.071 -0.324,0.071 -0.409,0.317c-0.085,0.247 -0.039,0.505 0.101,0.576c0,-0 0.852,-0.16 2.153,0.414c1.261,0.556 1.98,1.637 1.98,1.637c0.14,0.072 0.323,-0.07 0.408,-0.317Z" style="fill:#e1e1e1;"/><path d="M117.11,174.713c-0.055,-0.255 -0.226,-0.415 -0.379,-0.358c-0,-0 -1.079,-0.273 -2.525,0.384c-1.371,0.623 -1.972,1.317 -1.972,1.317c-0.154,0.057 -0.234,0.31 -0.178,0.564c0.055,0.255 0.226,0.415 0.379,0.358c0,0 0.628,-0.794 2.007,-1.385c1.336,-0.572 2.49,-0.316 2.49,-0.316c0.154,-0.057 0.234,-0.31 0.178,-0.564Z" style="fill:#e1e1e1;"/></svg>
