<?xml version="1.0" encoding="UTF-8" standalone="no"?><!DOCTYPE svg PUBLIC "-//W3C//DTD SVG 1.1//EN" "http://www.w3.org/Graphics/SVG/1.1/DTD/svg11.dtd"><svg width="100%" height="100%" viewBox="0 0 200 200" version="1.1" xmlns="http://www.w3.org/2000/svg" xmlns:xlink="http://www.w3.org/1999/xlink" xml:space="preserve" xmlns:serif="http://www.serif.com/" style="fill-rule:evenodd;clip-rule:evenodd;stroke-linejoin:round;stroke-miterlimit:2;"><path d="M102.733,74.729c6.645,-2.289 7.201,0.633 6.492,3.077c-0.103,0.353 -0.231,1.101 -0.231,1.101c0,-0 2.289,-2.006 2.678,-0.499c0.345,1.336 -4.274,5.685 -6.044,6.251c-4.253,1.359 -5.455,-1.297 -5.603,-3.408c-0.147,-2.111 -1.516,-5.067 2.708,-6.522Z" style="fill:#ffe9d3;"/><path d="M86.637,93.249c0.808,-2.184 10.774,-2.024 12.83,-1.901c5.49,0.329 13.89,4.32 17.963,8.357c2.387,2.365 10.231,6.132 11.818,9.259c0.474,0.935 0.915,5.723 0.298,7.031c-0.835,1.769 -1.014,3.139 -3.874,2.182c-3.677,-1.231 -10.467,-5.382 -14.829,-7.699c-6.751,-3.585 -29.141,-3.893 -24.206,-17.229Z" style="fill:#ffe9d3;"/><path d="M82.561,45.165c-5.08,2.184 -1.478,9.876 2.883,16.217c4.226,6.144 9.522,16.553 12.589,14.837c3.067,-1.715 -1.344,-11.285 -4.984,-17.794c-3.64,-6.508 -7.26,-14.648 -10.488,-13.26Z" style="fill:#ffe9d3;"/><path d="M94.91,65.614c-4.765,1.183 -2.542,5.775 0.52,9.588c2.967,3.694 6.347,9.916 9.273,8.968c2.926,-0.947 0.224,-6.659 -2.18,-10.556c-2.404,-3.897 -4.585,-8.752 -7.613,-8Z" style="fill:#ffe9d3;"/><path d="M66.587,51.935l11.535,-6.264c2.569,1.083 5.508,-2.901 7.157,1.321c3.213,8.231 6.721,25.122 7.313,26.856c1.522,4.459 4.348,10.37 6.108,13.638c7.762,16.902 -9.597,21.715 -17.79,19.213c-12.943,-12.987 -10.165,-14.32 -13.632,-23.386c-4,-10.462 -7.739,-19.494 -6.015,-24.866c0.97,-3.024 2.626,-3.066 5.324,-6.512Z" style="fill:#ffe9d3;"/><path d="M62.903,37.803l9.237,-3.495l4.507,11.909c15.975,5.432 -15.157,17.48 -9.237,3.495l-4.507,-11.909Z" style="fill:#ffe9d3;"/><path d="M62.903,37.803l9.237,-3.495l3.076,8.129c-3.254,3.676 -7.219,1.784 -10.872,-0.828l-1.441,-3.806Z" style="fill:#f5af69;fill-opacity:0.29;"/><path d="M60.688,38.841c0.013,0.019 0.025,0.037 0.039,0.056c0.76,1.074 2.004,1.522 2.87,1.069c1.13,0.883 2.401,2.233 3.801,2.71c2.036,0.693 5.77,0.531 7.625,-0.004c3.486,-1.007 3.956,-5.76 3.175,-10.922c-0.723,-4.786 -6.386,-9.302 -11.135,-8.36c-7.718,1.532 -10.288,10.292 -6.917,14.946c0.173,0.239 0.353,0.397 0.542,0.505Z" style="fill:#ffe9d3;"/><path d="M72.604,21.174c-2.286,0.058 -6.903,-3.128 -10.384,-0.037c-0.559,0.497 -2.151,2.762 -2.768,3.516c-0.951,1.164 -3.009,4.148 -3.397,5.302c-0.82,2.439 2.489,7.269 3.791,8.196c0.263,0.187 0.568,0.323 0.476,0.132c-0.271,-0.563 -0.501,-2.379 0.032,-2.865c0.843,-0.767 2.184,-0.664 3.938,1.103c0.614,0.619 2.51,-1.605 4.714,-1.638c1.052,-0.015 4.411,-4.305 5.155,-6.013c0.547,-1.257 3.679,3.564 4.179,2.692c1.737,-3.03 -2.074,-10.482 -5.736,-10.388Z" style="fill:#001b35;"/><path d="M62.633,57.442c5.865,0.924 4.158,9.885 1.302,17.64c-2.767,7.514 -5.516,19.75 -9.163,18.779c-3.646,-0.971 -1.595,-12.1 0.466,-19.838c2.061,-7.739 3.667,-17.169 7.395,-16.581Z" style="fill:#ffe9d3;"/><path d="M56.358,82.966c5.326,-0.073 3.3,7.657 0.286,14.545c-2.921,6.674 -6.07,17.29 -9.36,17.004c-3.291,-0.285 -0.84,-9.875 1.446,-16.635c2.286,-6.76 4.243,-14.867 7.628,-14.914Z" style="fill:#ffe9d3;"/><path d="M36.925,113.679c-2.092,-4.208 1.188,-5.287 4.582,-5.286c3.288,0 7.936,-1.189 9.122,1.526c0.471,1.078 0.117,1.946 -0.673,2.635c-0.394,0.344 -4.072,4.773 -4.84,5.074c-1.263,0.495 0.336,-3.218 0.336,-3.218c0,-0 -0.507,0.102 -0.752,0.145c-3.07,0.534 -6.446,1.798 -7.775,-0.876Z" style="fill:#ffe9d3;"/><path d="M122.719,108.805c2.321,-2.531 5.56,-2.99 8.594,0.606c2.441,2.892 6.64,8.161 10.493,13.709c4.252,6.122 12.292,15.836 12.292,15.836c0.348,0.451 0.625,3.75 -0.741,5.153c-1.065,1.093 -2.495,0.537 -2.816,0.153c-0,0 -3.656,-3.556 -5.331,-5.18c-1.512,-1.467 -10.028,-9.383 -14.032,-13.738c-6.169,-6.712 -11.018,-13.747 -8.459,-16.539Z" style="fill:#ffe9d3;"/><path d="M74.995,96.687c-0.331,-1.336 1.125,-7.53 3.9,-10.651c1.774,-1.997 5.292,-1.594 5.292,-1.594c-0,0 7.716,11.544 12.605,15.969c2.865,2.592 8.748,14.314 9.631,15.194c0.876,0.874 2.912,7.539 3.3,8.257c0.732,1.351 -1.937,2.105 -2.984,2.914c-6.142,4.747 -1.524,3.489 -4.006,2.313c-3.192,-1.512 -8.348,-6.331 -12.568,-9.006c-6.532,-4.14 -11.861,-10.017 -15.17,-23.396Z" style="fill:#ffe9d3;"/><path d="M101.959,121.332c3.093,-1.485 6.229,-0.876 7.621,3.207c1.12,3.284 2.933,9.188 4.324,15.23c1.534,6.666 7.48,23.665 7.48,23.665c0.145,0.501 0.637,3.658 -1.149,4.456c-1.393,0.621 -5.203,-1.185 -5.349,-1.619c0,-0 -4.195,-11.896 -5.101,-13.835c-0.819,-1.75 -3.347,-7.932 -5.333,-12.979c-3.06,-7.778 -5.903,-16.488 -2.493,-18.125Z" style="fill:#ffe9d3;"/><path d="M72.896,101.701c0.803,-1.267 1.461,-4 3.313,-5.453c2.478,-1.943 6.135,-4.423 9.585,-4.897c7.291,-1 10.431,-6.838 11.446,-6.172c0.723,0.473 31.217,17.232 31.528,20.213c0.385,3.685 -7.636,6.903 -13.917,8.238c-1.357,0.288 -8.57,-3.448 -8.57,-3.448c0,0 3.624,4.124 3.334,6.015c-0.022,0.141 -0.682,0.469 -1.281,0.739c-0.507,0.228 -0.97,0.416 -0.97,0.416c0,-0 -13.231,4.392 -11.225,7.119c0.129,0.175 0.533,0.422 0.533,0.422c-4.44,4.531 -13.846,-6.621 -15.931,-7.633c-4.87,-2.364 -11.065,-10.477 -7.845,-15.559Z" style="fill:#46596d;"/><path d="M55.271,58.469c1.868,-4.474 11.285,-11.032 11.285,-11.032c0.74,1.895 6.093,11.19 13.062,7.337c4.739,-2.621 -3.074,-8.588 -3.074,-8.588l-0.375,-1.233c0,0 5.141,-0.549 6.461,-0.303c4.142,0.772 8.406,6.622 9.174,9.164c0.263,0.87 -1.846,3.497 -1.607,4.403c1.559,5.911 3.599,14.62 4.696,20.238c0.978,5.004 4.93,3.953 3.943,6.973c-0.793,2.423 -3.279,6.481 -6.73,9.069c-4.331,3.248 -18.485,8.798 -21.496,7.81c-1.324,-0.435 -0.433,-5.295 -1.844,-9.445c-0.873,-2.566 -1.592,-5.018 -2.227,-6.904c-0.697,-2.069 -1.655,-6.892 -1.655,-6.892c-0,0 -1.862,0.12 -4.052,0.575c-2.494,0.518 -8.065,-2.333 -8.065,-2.333c1.618,-0.311 0.092,-13.064 2.504,-18.839Z" style="fill:#f5f5f5;"/><path d="M129.496,178.389c1.693,-1.463 2.454,-3.988 1.243,-6.084c-0.186,-0.323 -0.921,-1.79 -1.205,-2.088c-1.106,-1.157 -12.044,2.32 -11.298,4.447c0.322,0.916 2.807,4.471 4.068,4.996c2.752,1.144 5.238,0.419 7.192,-1.271Z" style="fill:#D8D8D8;"/><path d="M173.295,138.806c-0.696,-1.568 -1.939,-2.097 -1.939,-2.097c-0,-0 -17.852,12.62 -17.492,13.099c1.307,1.743 2.888,2.255 3.227,2.326c1.689,0.351 4.985,-2.882 7.294,-4.193c0.587,-0.334 3.279,-1.252 3.885,-1.695c3.469,-2.539 5.721,-5.872 5.025,-7.44Z" style="fill:#D8D8D8;"/><path d="M171.932,137.438c-0.696,-1.568 -4.802,-2.767 -8.682,-0.457c-2.016,1.201 -4.246,2.383 -6.388,3.277c-0.709,0.297 -3.4,-2.147 -3.4,-2.147l-4.498,5.083c0,0 2.442,3.255 3.676,4.9c1.308,1.742 2.749,2.601 3.089,2.672c1.688,0.351 4.985,-2.882 7.293,-4.193c0.587,-0.334 3.279,-1.252 3.885,-1.695c3.469,-2.539 5.721,-5.872 5.025,-7.44Z" style="fill:#ffe9d3;"/><path d="M128.394,176.48c1.954,-1.689 2.666,-4.792 0.538,-7.018c-1.106,-1.157 -1.313,-1.425 -2.577,-1.89c-0.655,-0.241 -1.636,-0.702 -2.805,-2.149c-0.683,-0.845 -1.24,-2.305 -1.468,-2.773c-0.136,-0.28 -0.566,-0.28 -1.18,-0.3c1.997,4.265 -3.934,5.778 -6.085,3.626c-0.15,-0.149 -0.313,1.129 -0.282,1.689c0.019,0.36 1.853,2.963 2.599,5.09c0.321,0.916 2.807,4.472 4.068,4.996c2.752,1.144 5.237,0.419 7.192,-1.271Z" style="fill:#001b35;"/><path d="M119.024,169.103c-0.257,-0.446 -1.321,-2.465 -1.038,-3.12l2.427,-1.476c0.666,0.029 1.953,1.765 2.21,2.211l1.459,2.541c0.258,0.446 0.389,1.497 -0.057,1.754l-1.615,0.933c-0.446,0.257 -1.314,-0.071 -1.571,-0.517l-1.815,-2.326Z" style="fill:#001b35;"/><path d="M171.932,137.438c-0.696,-1.568 -4.802,-2.767 -8.682,-0.457c-2.016,1.201 -2.628,1.547 -4.77,2.441c-0.269,0.113 -1.261,-0.367 -1.765,-0.338c-0.485,0.029 -1.003,0.085 -1.247,0.226c-0.17,0.099 -0.215,0.247 -0.215,0.247c0.102,0.029 0.176,0.127 0.255,0.178c1.519,0.978 -1.144,5.568 -5.19,5.276c0,0 -0.43,0.56 0.266,1.505c0.286,0.388 1.557,1.445 1.917,1.924c1.307,1.743 2.888,2.255 3.228,2.326c1.688,0.351 4.985,-2.882 7.293,-4.193c0.587,-0.334 3.279,-1.252 3.885,-1.695c3.469,-2.539 5.721,-5.872 5.025,-7.44Z" style="fill:#001b35;"/><path d="M159.915,142.455c-1.461,0.444 -4.25,0.679 -4.515,-0.252l0.49,-1.99c0.001,-1.471 1.998,-1.022 2.468,-1.172l2.808,-1.07c0.47,-0.15 1.8,-0.662 1.95,-0.191l0.157,2.083c0.15,0.471 -0.335,1.217 -0.806,1.367c0,0 -1.649,0.951 -2.552,1.225Z" style="fill:#001b35;"/><path d="M119.024,169.103c-0.257,-0.446 -1.321,-2.465 -1.038,-3.12l2.427,-1.476c0.666,0.029 1.953,1.765 2.21,2.211l1.459,2.541c0.258,0.446 0.389,1.497 -0.057,1.754l-1.615,0.933c-0.446,0.257 -1.314,-0.071 -1.571,-0.517l-1.815,-2.326Z" style="fill:#D8D8D8;fill-opacity:0.28;"/><path d="M159.915,142.455c-1.461,0.444 -4.25,0.679 -4.515,-0.252l0.49,-1.99c0.001,-1.471 1.998,-1.022 2.468,-1.172l2.808,-1.07c0.47,-0.15 1.8,-0.662 1.95,-0.191l0.157,2.083c0.15,0.471 -0.335,1.217 -0.806,1.367c0,0 -1.649,0.951 -2.552,1.225Z" style="fill:#D8D8D8;fill-opacity:0.28;"/><path d="M163.204,141.585c-0.361,0.403 -0.655,0.294 -0.707,0.188c-0,0 -1.868,-1.473 -2.289,-2.543c-0.293,-0.745 -0.229,-0.857 -0.196,-0.995c0.023,-0.094 0.126,-0.248 0.431,-0.359c0.285,-0.104 0.513,0.044 0.565,0.149c0,0 -0.187,0.024 -0.163,0.256c0.108,1.042 2.316,2.687 2.316,2.687c0.052,0.105 0.246,0.391 0.043,0.617Z" style="fill:#d8d8d8;"/><path d="M160.74,142.979c-0.241,0.043 -0.582,-0.246 -0.613,-0.576c0,0 -0.192,-1.744 0.608,-3.302c0.76,-1.478 1.316,-1.671 1.316,-1.671c0.073,-0.161 0.366,-0.269 0.607,-0.311c0.241,-0.042 0.466,0.245 0.393,0.406c0,0 -0.735,0.117 -1.464,1.59c-0.706,1.427 -0.52,3.285 -0.52,3.285c0.03,0.215 -0.086,0.537 -0.327,0.579Z" style="fill:#d8d8d8;"/><path d="M160.989,142.448c-0.36,0.402 -0.655,0.293 -0.707,0.188c0,-0 -1.867,-1.474 -2.288,-2.543c-0.294,-0.745 -0.23,-0.857 -0.196,-0.996c0.022,-0.093 0.125,-0.247 0.431,-0.358c0.285,-0.104 0.513,0.044 0.565,0.149c-0,-0 -0.188,0.024 -0.164,0.255c0.108,1.043 2.317,2.687 2.317,2.687c0.052,0.106 0.245,0.392 0.042,0.618Z" style="fill:#d8d8d8;"/><path d="M158.543,143.563c-0.24,0.043 -0.582,-0.246 -0.612,-0.576c-0,0 -0.193,-1.744 0.608,-3.302c0.759,-1.478 1.315,-1.671 1.315,-1.671c0.073,-0.161 0.366,-0.269 0.607,-0.311c0.241,-0.042 0.466,0.245 0.394,0.406c-0,0 -0.736,0.117 -1.465,1.59c-0.705,1.427 -0.52,3.285 -0.52,3.285c0.031,0.215 -0.086,0.537 -0.327,0.579Z" style="fill:#d8d8d8;"/><path d="M158.616,143.428c-0.441,0.401 -0.71,0.234 -0.74,0.107c-0,0 -1.551,-1.941 -1.748,-3.211c-0.138,-0.885 -0.052,-1.002 0.009,-1.153c0.042,-0.103 0.176,-0.262 0.502,-0.342c0.304,-0.074 0.5,0.126 0.53,0.253c-0,-0 -0.191,-0.001 -0.215,0.264c-0.107,1.193 1.746,3.378 1.746,3.378c0.03,0.127 0.163,0.479 -0.084,0.704Z" style="fill:#d8d8d8;"/><path d="M156.343,144.567c-0.241,0.042 -0.582,-0.246 -0.613,-0.576c0,-0 -0.192,-1.744 0.608,-3.302c0.76,-1.478 1.316,-1.671 1.316,-1.671c0.073,-0.161 0.366,-0.269 0.607,-0.311c0.241,-0.043 0.466,0.245 0.393,0.406c0,0 -0.735,0.117 -1.464,1.59c-0.706,1.426 -0.52,3.285 -0.52,3.285c0.03,0.215 -0.086,0.537 -0.327,0.579Z" style="fill:#d8d8d8;"/><path d="M120.731,172.431c-0.194,-0.185 -0.272,-0.446 -0.175,-0.582c0,0 0.125,-1.285 1.142,-2.504c0.965,-1.156 1.738,-1.454 1.738,-1.454c0.098,-0.136 0.334,-0.097 0.528,0.088c0.193,0.185 0.271,0.446 0.174,0.582c0,-0 -0.866,0.278 -1.806,1.458c-0.911,1.143 -1.074,2.5 -1.074,2.5c-0.097,0.136 -0.333,0.096 -0.527,-0.088Z" style="fill:#d8d8d8;"/><path d="M119.689,170.715c-0.069,-0.259 0.009,-0.49 0.176,-0.515c-0,-0 0.849,-0.79 2.47,-0.922c1.536,-0.125 2.407,0.202 2.407,0.202c0.166,-0.026 0.358,0.163 0.427,0.421c0.069,0.259 -0.009,0.49 -0.176,0.516c0,-0 -0.943,-0.405 -2.471,-0.246c-1.48,0.154 -2.406,0.966 -2.406,0.966c-0.166,0.026 -0.358,-0.163 -0.427,-0.422Z" style="fill:#d8d8d8;"/><path d="M119.875,170.922c-0.202,-0.175 -0.294,-0.428 -0.205,-0.564c-0,0 0.05,-1.26 0.987,-2.48c0.889,-1.157 1.637,-1.47 1.637,-1.47c0.088,-0.136 0.324,-0.104 0.527,0.072c0.202,0.176 0.294,0.428 0.205,0.564c0,0 -0.84,0.296 -1.704,1.476c-0.836,1.142 -0.92,2.474 -0.92,2.474c-0.088,0.136 -0.325,0.104 -0.527,-0.072Z" style="fill:#d8d8d8;"/><path d="M118.654,169.139c-0.081,-0.256 -0.012,-0.486 0.154,-0.514c0,-0 0.82,-0.797 2.445,-0.955c1.541,-0.151 2.433,0.158 2.433,0.158c0.166,-0.028 0.367,0.156 0.448,0.411c0.081,0.255 0.013,0.485 -0.154,0.514c0,-0 -0.967,-0.385 -2.498,-0.202c-1.483,0.178 -2.379,0.998 -2.379,0.998c-0.166,0.029 -0.367,-0.155 -0.449,-0.41Z" style="fill:#d8d8d8;"/><path d="M118.804,169.277c-0.202,-0.176 -0.294,-0.429 -0.205,-0.564c-0,-0 0.05,-1.261 0.987,-2.481c0.889,-1.157 1.637,-1.47 1.637,-1.47c0.088,-0.135 0.324,-0.103 0.526,0.073c0.203,0.175 0.295,0.428 0.206,0.564c0,-0 -0.841,0.295 -1.704,1.475c-0.836,1.143 -0.92,2.475 -0.92,2.475c-0.089,0.136 -0.325,0.103 -0.527,-0.072Z" style="fill:#d8d8d8;"/><path d="M117.583,167.493c-0.081,-0.255 -0.012,-0.485 0.154,-0.514c0,0 0.82,-0.796 2.445,-0.955c1.541,-0.15 2.433,0.159 2.433,0.159c0.166,-0.029 0.367,0.155 0.448,0.41c0.081,0.256 0.012,0.486 -0.154,0.514c0,0 -0.967,-0.384 -2.498,-0.201c-1.483,0.177 -2.379,0.998 -2.379,0.998c-0.166,0.028 -0.367,-0.156 -0.449,-0.411Z" style="fill:#d8d8d8;"/></svg>
