<?xml version="1.0" encoding="UTF-8" standalone="no"?><!DOCTYPE svg PUBLIC "-//W3C//DTD SVG 1.1//EN" "http://www.w3.org/Graphics/SVG/1.1/DTD/svg11.dtd"><svg width="100%" height="100%" viewBox="0 0 200 200" version="1.1" xmlns="http://www.w3.org/2000/svg" xmlns:xlink="http://www.w3.org/1999/xlink" xml:space="preserve" xmlns:serif="http://www.serif.com/" style="fill-rule:evenodd;clip-rule:evenodd;stroke-linejoin:round;stroke-miterlimit:2;"><path d="M95.923,53.659c-5.747,0.432 -5.281,7.442 -3.556,13.576c1.671,5.943 2.708,15.536 6.333,14.961c3.625,-0.575 3.113,-9.278 2.148,-15.36c-0.964,-6.083 -1.272,-13.451 -4.925,-13.177Z" style="fill:#ffe9d3;"/><path d="M76.92,53.333l13.583,-1.855c2.109,2.008 4.801,-0.482 6.502,3.936c0.265,0.686 -0.6,3.23 0,4.27c1.969,3.41 3.029,7.5 2.416,10.256c-0.705,3.176 -3.505,5.347 -3.505,5.347c0,-0 -2.086,8.914 -2.149,10.826c-0.161,4.919 4.647,6.633 5.157,10.475c1.334,19.38 -20.179,8.887 -27.257,3.414c0.924,-5.567 5.977,-11.429 2.538,-20.966c-3.23,-8.959 -8.563,-16.701 -4.894,-21.311c2.066,-2.595 3.699,-2.024 7.609,-4.392Z" style="fill:#ffe9d3;"/><path d="M84.035,37.406l9.963,2.67l-3.442,12.845c3.448,4.836 3.422,10.766 0.375,11.255c-5.996,0.962 -19.321,-8.457 -10.338,-13.924l3.442,-12.846Z" style="fill:#ffe9d3;"/><path d="M84.035,37.406l9.963,2.67l-3.442,12.845c3.448,4.836 3.422,10.766 0.375,11.255c-5.996,0.962 -19.321,-8.457 -10.338,-13.924l3.442,-12.846Z" style="fill:#ffa347;fill-opacity:0.14;"/><path d="M101.75,40.532l-0,0.885l1.232,0.711l0.054,-0.853l-1.286,-0.743Z" style="fill:#001b35;"/><path d="M93.871,77.487c-3.753,3.57 2.91,7.568 9.69,10.309c6.57,2.656 16.947,6.491 16.947,6.491c0,-0 4.052,-2.718 3.067,-3.312c-3.627,-2.187 -9.723,-5.995 -14.259,-8.303c-6.186,-3.147 -13.059,-7.455 -15.445,-5.185Z" style="fill:#ffe9d3;"/><path d="M120.323,94.472c0.389,0.981 0.857,2.655 3.677,3.134c0.839,0.142 3.497,0.481 4.328,0.487c1.08,0.009 0.803,-1.042 0.711,-1.085c-1.37,-0.65 -2.149,-0.499 -3.396,-0.953c-1.221,-0.444 -1.231,-0.781 -1.02,-0.832c0.716,-0.173 0.964,-0.422 1.53,-0.329c1.099,0.182 3.487,1.082 5.303,2.291c1.378,0.919 0.89,3.801 2.367,1.533c1.148,-1.762 -0.323,-3.507 -1.55,-4.725c-2.153,-2.139 1.544,-3.457 -11.086,-3.84c-1.315,-0.04 -5.644,2.059 -5.644,2.059c-0,0 4.515,1.59 4.78,2.26Z" style="fill:#ffe9d3;"/><path d="M72.581,97.156c1.113,-2.141 2.312,-1.719 4.295,-1.513c5.295,0.55 13.335,8.286 16.696,12.468c1.97,2.45 4.761,5.158 6.942,7.783c0.72,0.865 3.296,2.241 3.832,3.076c0.532,0.83 1.592,2.489 1.539,3.183c-0.099,1.305 -2.156,1.382 -2.952,2.658c-1.078,1.727 -1.456,3.082 -4.098,2.014c-3.396,-1.373 -9.386,-5.779 -13.286,-8.261c-6.038,-3.841 -19.767,-8.338 -12.968,-21.408Z" style="fill:#ffe9d3;"/><path d="M99.492,117.801c3.562,-0.39 6.44,1.299 6.394,5.803c-0.036,3.624 -0.298,10.07 -1.024,16.504c-0.802,7.099 -1.047,24.436 -1.047,24.436c-0.032,0.544 -2.134,2.851 -4.171,3.017c-1.588,0.129 -2.203,-2.037 -2.196,-2.516c0,-0 0.018,-10.836 -0.202,-13.061c-0.199,-2.009 -0.545,-8.976 -0.75,-14.637c-0.316,-8.724 -0.931,-19.116 2.996,-19.546Z" style="fill:#ffe9d3;"/><path d="M80.282,93.153c0.577,-2.363 1.958,-2.132 4.106,-2.25c5.735,-0.315 16.364,6.232 21.073,9.934c2.758,2.168 6.454,4.464 9.485,6.775c1,0.762 4.098,1.737 4.896,2.499c0.791,0.756 2.371,2.27 2.509,2.985c0.258,1.345 -1.888,1.763 -2.372,3.194c-0.655,1.936 -0.676,3.378 -3.758,2.727c-3.963,-0.837 -11.504,-4.333 -16.307,-6.215c-7.434,-2.912 -23.158,-5.222 -19.632,-19.649Z" style="fill:#ffe9d3;"/><path d="M116.253,109.537c3.577,-0.215 6.368,1.614 6.102,6.11c-0.215,3.618 -0.793,10.043 -1.835,16.434c-1.149,7.051 -1.988,19.096 -1.988,19.096c-0.057,0.542 -2.209,3.009 -4.251,3.074c-1.593,0.051 -2.282,-1.281 -2.252,-1.759c0,-0 0.412,-6.691 0.301,-8.924c-0.1,-2.016 -0.103,-8.991 -0.03,-14.656c0.113,-8.729 0.009,-19.138 3.953,-19.375Z" style="fill:#ffe9d3;"/><path d="M103.288,179.951c2.051,-0.392 3.843,-2.077 3.843,-4.336c0,-0.348 0.091,-1.876 0,-2.249c-0.353,-1.451 -10.814,-3.744 -11.203,-1.677c-0.168,0.89 0.182,4.922 0.956,5.934c1.69,2.208 4.037,2.781 6.404,2.328Z" style="fill:#ebebeb;"/><path d="M131.002,163.869c0.565,-1.474 0.098,-2.627 0.098,-2.627c-0,0 -19.839,-3.366 -19.915,-2.82c-0.28,1.986 0.418,3.347 0.594,3.613c0.873,1.326 5.122,1.359 7.48,2.004c0.599,0.164 2.951,1.314 3.634,1.418c3.911,0.598 7.545,-0.113 8.109,-1.588Z" style="fill:#ebebeb;"/><path d="M103.288,177.895c2.367,-0.454 4.39,-2.629 3.71,-5.42c-0.354,-1.451 -0.747,-2.054 -1.717,-2.852c-0.441,-0.363 -0.891,-2.087 -1.16,-3.801c-0.253,-1.602 -0.239,-2.675 -0.266,-3.482l-6.649,1.178c-0.152,0.301 -0.892,4.119 -0.95,6.222c-0.013,0.445 0.355,3.995 0.565,4.433c1.202,2.507 4.1,4.175 6.467,3.722Z" style="fill:#ffe9d3;"/><path d="M131.002,162.092c0.565,-1.474 -1.334,-4.923 -5.365,-5.937c-2.094,-0.527 -4.316,-1.204 -6.294,-2.012c-0.655,-0.268 -0.822,-3.61 -0.822,-3.61l-6.235,0.394c-0,-0 -0.522,3.708 -0.786,5.583c-0.279,1.985 0.103,3.482 0.279,3.748c0.873,1.326 5.122,1.359 7.48,2.004c0.599,0.163 2.951,1.313 3.634,1.418c3.911,0.598 7.545,-0.114 8.109,-1.588Z" style="fill:#ffe9d3;"/><path d="M103.288,177.895c2.367,-0.454 4.39,-2.629 3.71,-5.42c-0.354,-1.451 -0.397,-1.764 -1.201,-2.73c-0.417,-0.5 -0.995,-1.33 -1.264,-3.044c-0.158,-1.002 0.102,-2.44 0.107,-2.925c0.008,-0.714 -0.775,-1.041 -0.775,-1.041l0.009,0.287c-0,-0 -0.016,0.165 -0.027,0.244c-0.458,3.325 -4.122,2.872 -5.827,1.144c-0.235,-0.238 -0.583,-0.783 -0.583,-0.783l-0.003,-0.997c-0,-0 -0.328,0.19 -0.76,0.562c-0.32,0.274 -0.373,0.596 -0.471,1.114c-0.064,0.331 0.114,3.259 -0.275,5.326c-0.168,0.89 0.182,4.922 0.956,5.934c1.69,2.208 4.037,2.782 6.404,2.329Z" style="fill:#001b35;"/><path d="M131.002,162.092c0.565,-1.474 -1.334,-4.923 -5.365,-5.937c-2.094,-0.527 -2.718,-0.699 -4.696,-1.507c-0.248,-0.101 -0.584,-1.059 -0.931,-1.366c-0.335,-0.297 -0.709,-0.597 -0.96,-0.663c-0.175,-0.047 -0.3,0.021 -0.3,0.021c0.047,0.085 0.032,0.197 0.05,0.281c0.32,1.464 -3.5,2.754 -6.04,0.86c-0.279,-0.208 -0.579,-0.653 -0.736,-1.098c-0.141,-0.176 -0.803,0.238 -0.839,1.462c-0.013,0.441 0.076,1.954 -0,2.5c-0.057,0.401 -0.066,2.612 -0.066,2.612c0,-0 0.089,0.239 0.145,0.367c0.164,0.376 0.429,0.543 0.525,0.687c0.873,1.326 5.112,1.306 7.47,1.951c0.599,0.163 2.951,1.313 3.634,1.418c3.911,0.598 7.545,-0.114 8.109,-1.588Z" style="fill:#001b35;"/><path d="M70.735,102.646c0.43,-1.426 0.419,-4.522 1.724,-6.135c1.746,-2.158 4.406,-4.901 7.315,-5.364c6.147,-0.98 16.326,1.946 17.355,2.726c0.731,0.555 24.334,14.368 25.243,17.767c1.124,4.203 -5.22,5.115 -10.415,6.498c-1.122,0.299 -7.645,-3.42 -7.645,-3.42c0,0 1.173,1.568 2.307,3.199c0.754,1.086 -0.132,3.562 -0.022,3.765c2.369,4.383 -10.407,2.374 -10.662,3.658c-0.624,3.142 -9.378,-7.092 -12.926,-7.463c-4.669,-0.488 -13.996,-9.517 -12.274,-15.231Z" style="fill:#46596d;"/><path d="M96.35,28.025c-7.801,-2.588 -12.749,3.183 -12.087,9.148c0.335,3.015 0.186,5.994 2.449,8.542c1.493,1.68 4.968,3.458 6.928,3.927c3.686,0.883 6.563,-3.193 8.515,-8.283c1.81,-4.722 -1.006,-11.742 -5.805,-13.334Z" style="fill:#ffe9d3;"/><path d="M108.711,30.03c-0.833,-0.371 0.463,-3.451 -1.578,-5.441c-1.119,-1.091 -6.245,-0.248 -6.245,-0.248c-0,-0 0.485,-5.998 -2.76,-4.046c-1.528,0.92 -4.514,0.919 -6.862,1.193c-5.443,0.635 -3.991,4.176 -3.991,4.176c0,-0 -3.834,-2.055 -5.727,0.81c-1.406,2.129 0.51,6.083 0.035,6.542c-4.452,4.303 0.983,4.812 -0.192,5.513c-1.899,1.133 0.836,3.375 0.905,3.898c0.077,0.578 2.259,1.495 5.264,-0.2c0.241,-0.136 -1.405,-2.216 -1.405,-2.397c0.002,-0.532 0.586,-0.784 1.178,-0.962c0.933,-0.282 1.186,-0.083 1.872,1.919c0.138,0.403 2.192,-0.904 3.597,-2.148c1.046,-0.925 2.052,-2.781 2.779,-2.447c0.814,0.374 3.505,2.507 4.714,1.465c0.889,-0.766 1.492,4.091 2.202,3.604c0.759,-0.522 2.422,-0.68 3.283,-1.918c0.772,-1.109 0.758,-3.262 1.202,-4.434c0.668,-1.768 2.913,-4.35 1.729,-4.879Z" style="fill:#b26f27;"/><path d="M99.389,42.872c-0.011,0.869 0.64,1.306 1.595,0.992c1.09,-0.359 2.165,-1.562 2.4,-2.685c0.234,-1.123 -0.46,-1.744 -1.55,-1.385c-0.955,0.314 -1.899,1.277 -2.276,2.266l-1.428,0.47c0.011,-0.869 -0.641,-1.307 -1.595,-0.992c-1.09,0.358 -2.165,1.561 -2.4,2.684c-0.234,1.124 0.46,1.744 1.55,1.386c0.955,-0.315 1.899,-1.277 2.275,-2.266l1.429,-0.47Zm-2.953,-0.687c-0.736,0.242 -1.462,1.055 -1.621,1.814c-0.158,0.759 0.311,1.178 1.047,0.936c0.737,-0.243 1.463,-1.055 1.622,-1.814c0.158,-0.759 -0.311,-1.179 -1.048,-0.936Zm5.297,-1.743c-0.737,0.242 -1.463,1.055 -1.621,1.814c-0.159,0.759 0.311,1.178 1.047,0.936c0.736,-0.242 1.463,-1.055 1.621,-1.814c0.159,-0.759 -0.311,-1.178 -1.047,-0.936Z" style="fill:#001b35;"/><path d="M99.097,42.506c-0.011,0.869 0.64,1.306 1.595,0.992c1.09,-0.358 2.165,-1.561 2.4,-2.685c0.234,-1.123 -0.46,-1.743 -1.55,-1.385c-0.955,0.314 -1.899,1.277 -2.275,2.266l-1.429,0.47c0.011,-0.869 -0.64,-1.306 -1.595,-0.992c-1.09,0.358 -2.165,1.561 -2.4,2.685c-0.234,1.123 0.46,1.743 1.55,1.385c0.955,-0.314 1.899,-1.277 2.276,-2.266l1.428,-0.47Zm-2.953,-0.687c-0.736,0.242 -1.462,1.055 -1.621,1.814c-0.158,0.759 0.311,1.178 1.048,0.936c0.736,-0.243 1.462,-1.055 1.621,-1.814c0.158,-0.759 -0.311,-1.179 -1.048,-0.936Zm5.297,-1.743c-0.737,0.242 -1.463,1.055 -1.621,1.814c-0.159,0.759 0.311,1.178 1.047,0.936c0.736,-0.242 1.463,-1.055 1.621,-1.814c0.159,-0.759 -0.311,-1.178 -1.047,-0.936Z" style="fill:#001b35;"/><path d="M78.95,52.581c2.224,5.018 6.266,8.636 11.464,11.365c1.654,-3.48 1.859,-6.844 0.645,-12.453c2.029,-0.06 4.599,1.379 6.715,2.858c0.281,2.013 0.998,3.046 0.501,4.914c1.638,3.067 -0.436,30.56 1.115,35.908c-8.153,5.491 -17.042,6.149 -25.194,2.157c3.583,-6.229 2.642,-16.884 0.624,-21.813c1.421,-4.157 1.651,-8.474 0.526,-12.972c-1.553,-2.368 -3.379,-4.035 -5.616,-4.642c1.852,-2.112 3.856,-4.181 9.22,-5.322Z" style="fill:#fafafa;"/><path d="M66.924,59.261c1.41,-2.092 6.222,-6.142 12.577,-8.148c4.643,5.608 6.45,12.83 5.552,21.592c-0,0 0.738,14.091 1.275,19.257c0.418,4.02 6.128,12.213 6.128,12.213c-1.219,0.47 -3.446,2.08 -7.153,-0.432c-1.959,-1.328 -4.624,2.613 -8.161,2.582c-4.817,-0.043 -5.154,-4.404 -7.412,-4.545c0,-0 1.153,-11.296 4.175,-16.99c1.714,-3.229 1.289,-11.189 1.289,-11.189c-3.656,0.917 -7.765,2.784 -11.327,-1.624c0.449,-2.864 -0.297,-6.657 3.057,-12.716Z" style="fill:#001b35;"/><path d="M70.958,56.376c5.744,-0.583 6.381,8.032 5.639,15.824c-0.269,2.817 -0.12,7.093 0.054,10.569c0.366,7.323 1.589,14.281 -2.08,12.002c-1.078,-0.67 -2.85,-0.905 -3.83,-3.381c-1.844,-4.658 -2.584,-13.088 -2.584,-18.04c0,-7.583 -0.85,-16.604 2.801,-16.974Z" style="fill:#ffe9d3;"/><path d="M100.058,54.74c-3.366,-4.323 -6.071,-4.66 -8.776,-4.749l-0.508,2.251c-0,-0 2.613,3.098 3.224,7.241c0.497,3.367 1.766,11.419 1.766,11.419c-0,0 0.849,9.452 0.974,14.157c0.124,4.687 -0.224,14.072 -0.224,14.072c2.309,-1.779 3.358,0.375 5.409,-2.538l-1.906,-12.834l0,-14.262c0,0 0.992,0.069 1.536,-0.898c1.065,-1.896 1.526,-2.758 1.526,-2.758c-0.986,-2.845 -1.535,-9.192 -3.021,-11.101Z" style="fill:#001b35;"/><path d="M68.786,57.299l6.52,-3.764c3.707,7.008 5.139,14.736 3.246,23.515c-5.16,0.87 -8.444,2.439 -13.764,-4.073l3.998,-15.678Z" style="fill:#001b35;"/><path d="M94.191,45.16c-0.109,-0.245 -0.134,-0.563 -0.056,-0.938c0.235,-1.123 1.31,-2.326 2.4,-2.684c0.502,-0.166 0.92,-0.123 1.202,0.081c-0.217,-0.49 -0.768,-0.686 -1.494,-0.447c-1.09,0.358 -2.165,1.561 -2.4,2.685c-0.126,0.605 0.018,1.065 0.348,1.303Zm2.992,-2.961c0.048,0.153 0.054,0.341 0.009,0.556c-0.159,0.759 -0.885,1.571 -1.621,1.814c-0.303,0.099 -0.56,0.087 -0.747,-0.014c0.12,0.387 0.511,0.553 1.038,0.38c0.25,-0.082 0.498,-0.23 0.724,-0.419c0.166,-0.15 0.322,-0.315 0.464,-0.49c0.213,-0.283 0.37,-0.599 0.434,-0.905c0.093,-0.448 -0.032,-0.777 -0.301,-0.922Zm1.976,0.749c0.064,0.199 0.177,0.358 0.331,0.469c-0.068,-0.154 -0.104,-0.337 -0.101,-0.545l-0.23,0.076Zm3.321,-2.492c0.048,0.153 0.053,0.341 0.008,0.556c-0.158,0.759 -0.885,1.572 -1.621,1.814c-0.302,0.1 -0.56,0.087 -0.747,-0.014c0.121,0.387 0.511,0.554 1.039,0.38c0.258,-0.085 0.515,-0.24 0.747,-0.438c0.147,-0.136 0.287,-0.282 0.415,-0.438c0.226,-0.291 0.393,-0.619 0.459,-0.938c0.094,-0.447 -0.031,-0.777 -0.3,-0.922Zm-4.412,1.632c0.043,0.131 0.064,0.279 0.062,0.442l1.428,-0.47c0.377,-0.989 1.321,-1.952 2.276,-2.266c0.502,-0.165 0.92,-0.122 1.202,0.082c-0.217,-0.491 -0.768,-0.687 -1.494,-0.448c-0.955,0.314 -1.899,1.277 -2.275,2.266l-1.199,0.394Z" style="fill:#001b35;"/><path d="M94.191,45.16c-0.109,-0.245 -0.134,-0.563 -0.056,-0.938c0.235,-1.123 1.31,-2.326 2.4,-2.684c0.502,-0.166 0.92,-0.123 1.202,0.081c-0.217,-0.49 -0.768,-0.686 -1.494,-0.447c-1.09,0.358 -2.165,1.561 -2.4,2.685c-0.126,0.605 0.018,1.065 0.348,1.303Zm2.992,-2.961c0.048,0.153 0.054,0.341 0.009,0.556c-0.159,0.759 -0.885,1.571 -1.621,1.814c-0.303,0.099 -0.56,0.087 -0.747,-0.014c0.12,0.387 0.511,0.553 1.038,0.38c0.25,-0.082 0.498,-0.23 0.724,-0.419c0.166,-0.15 0.322,-0.315 0.464,-0.49c0.213,-0.283 0.37,-0.599 0.434,-0.905c0.093,-0.448 -0.032,-0.777 -0.301,-0.922Zm1.976,0.749c0.064,0.199 0.177,0.358 0.331,0.469c-0.068,-0.154 -0.104,-0.337 -0.101,-0.545l-0.23,0.076Zm3.321,-2.492c0.048,0.153 0.053,0.341 0.008,0.556c-0.158,0.759 -0.885,1.572 -1.621,1.814c-0.302,0.1 -0.56,0.087 -0.747,-0.014c0.121,0.387 0.511,0.554 1.039,0.38c0.258,-0.085 0.515,-0.24 0.747,-0.438c0.147,-0.136 0.287,-0.282 0.415,-0.438c0.226,-0.291 0.393,-0.619 0.459,-0.938c0.094,-0.447 -0.031,-0.777 -0.3,-0.922Zm-4.412,1.632c0.043,0.131 0.064,0.279 0.062,0.442l1.428,-0.47c0.377,-0.989 1.321,-1.952 2.276,-2.266c0.502,-0.165 0.92,-0.122 1.202,0.082c-0.217,-0.491 -0.768,-0.687 -1.494,-0.448c-0.955,0.314 -1.899,1.277 -2.275,2.266l-1.199,0.394Z" style="fill:#b9b9b9;fill-opacity:0.28;"/><path d="M94.186,42.973l-5.761,-3.326l-0.401,0.231l5.985,3.456c0.051,-0.122 0.111,-0.243 0.177,-0.361Z" style="fill:#001b35;"/><path d="M94.186,42.973l-5.761,-3.326l-0.401,0.231l5.985,3.456c0.051,-0.122 0.111,-0.243 0.177,-0.361Z" style="fill:#b9b9b9;fill-opacity:0.28;"/><path d="M88.831,40.329l0,0.885l5.355,3.091l0.236,-0.748l-5.591,-3.228Z" style="fill:#001b35;"/><path d="M87.07,38.651c-1.099,-0.086 -2.004,1.52 -1.434,3.48c0.58,1.989 0.534,3.098 1.637,3.265c0.504,0.076 1.225,-1.011 1.321,-2.97c0.023,-0.47 0.656,-1.707 0.608,-2.13c-0.15,-1.345 -1.297,-1.579 -2.132,-1.645Z" style="fill:#ffe9d3;"/><path d="M100.106,106.678c1.141,0.063 1.673,-0.156 2.916,0.399c0.151,0.067 1.411,0.674 2.557,1.636c0.551,0.462 2.614,1.891 2.823,2.415c0.272,0.682 -1.402,0.417 -1.403,0.491c-0.002,0.155 -1.771,-1.305 -2.965,-2.018c-1.087,-0.649 -1.606,-0.56 -1.642,-0.411c-0.122,0.502 -0.096,0.737 0.196,1.069c0.627,0.714 3.89,1.473 6.058,2.159c1.275,0.403 1.35,0.113 1.302,0.752c-0.061,0.811 -0.279,0.913 -1.602,1.122c-0.47,0.074 -1.736,0.762 -2.234,0.832c-1.769,0.247 -3.611,-0.198 -4.741,-0.406c-4.111,-0.76 -6.346,-5.826 -6.323,-7.05c0.017,-0.88 0.732,-4.046 0.732,-4.046c-0,0 3.2,2.993 4.326,3.056Z" style="fill:#ffe9d3;"/><path d="M71.234,91.106c0.662,-5.217 7.578,-1.1 13.575,3.749c4.547,3.676 14.24,11.433 14.24,11.433c-0,0 0.458,1.727 0.302,2.408c-0.231,1.009 -3.39,0.626 -3.39,0.626c0,0 -7.841,-3.863 -11.893,-6.644c-5.978,-4.103 -13.255,-8.257 -12.834,-11.572Z" style="fill:#ffe9d3;"/><path d="M87.07,38.651c-1.099,-0.086 -2.004,1.52 -1.434,3.48c0.58,1.989 0.534,3.098 1.637,3.265c0.504,0.076 1.225,-1.011 1.321,-2.97c0.023,-0.47 0.656,-1.707 0.608,-2.13c-0.15,-1.345 -1.297,-1.579 -2.132,-1.645Z" style="fill:#ffa347;fill-opacity:0.14;"/><path d="M95.923,53.659c-5.747,0.432 -5.281,7.442 -3.556,13.576c1.671,5.943 2.708,15.536 6.333,14.961c3.625,-0.575 3.113,-9.278 2.148,-15.36c-0.964,-6.083 -1.272,-13.451 -4.925,-13.177Z" style="fill:#ffe9d3;"/><path d="M76.92,53.333l13.583,-1.855c2.109,2.008 4.801,-0.482 6.502,3.936c0.265,0.686 -0.6,3.23 0,4.27c1.969,3.41 3.029,7.5 2.416,10.256c-0.705,3.176 -3.505,5.347 -3.505,5.347c0,-0 -2.086,8.914 -2.149,10.826c-0.161,4.919 4.647,6.633 5.157,10.475c1.334,19.38 -20.179,8.887 -27.257,3.414c0.924,-5.567 5.977,-11.429 2.538,-20.966c-3.23,-8.959 -8.563,-16.701 -4.894,-21.311c2.066,-2.595 3.699,-2.024 7.609,-4.392Z" style="fill:#ffe9d3;"/><path d="M84.035,37.406l9.963,2.67l-3.442,12.845c3.448,4.836 3.422,10.766 0.375,11.255c-5.996,0.962 -19.321,-8.457 -10.338,-13.924l3.442,-12.846Z" style="fill:#ffe9d3;"/><path d="M84.035,37.406l9.963,2.67l-3.442,12.845c3.448,4.836 3.422,10.766 0.375,11.255c-5.996,0.962 -19.321,-8.457 -10.338,-13.924l3.442,-12.846Z" style="fill:#ffa347;fill-opacity:0.14;"/><path d="M101.75,40.532l-0,0.885l1.232,0.711l0.054,-0.853l-1.286,-0.743Z" style="fill:#001b35;"/><path d="M93.871,77.487c-3.753,3.57 2.91,7.568 9.69,10.309c6.57,2.656 16.947,6.491 16.947,6.491c0,-0 4.052,-2.718 3.067,-3.312c-3.627,-2.187 -9.723,-5.995 -14.259,-8.303c-6.186,-3.147 -13.059,-7.455 -15.445,-5.185Z" style="fill:#ffe9d3;"/><path d="M120.323,94.472c0.389,0.981 0.857,2.655 3.677,3.134c0.839,0.142 3.497,0.481 4.328,0.487c1.08,0.009 0.803,-1.042 0.711,-1.085c-1.37,-0.65 -2.149,-0.499 -3.396,-0.953c-1.221,-0.444 -1.231,-0.781 -1.02,-0.832c0.716,-0.173 0.964,-0.422 1.53,-0.329c1.099,0.182 3.487,1.082 5.303,2.291c1.378,0.919 0.89,3.801 2.367,1.533c1.148,-1.762 -0.323,-3.507 -1.55,-4.725c-2.153,-2.139 1.544,-3.457 -11.086,-3.84c-1.315,-0.04 -5.644,2.059 -5.644,2.059c-0,0 4.515,1.59 4.78,2.26Z" style="fill:#ffe9d3;"/><path d="M72.581,97.156c1.113,-2.141 2.312,-1.719 4.295,-1.513c5.295,0.55 13.335,8.286 16.696,12.468c1.97,2.45 4.761,5.158 6.942,7.783c0.72,0.865 3.296,2.241 3.832,3.076c0.532,0.83 1.592,2.489 1.539,3.183c-0.099,1.305 -2.156,1.382 -2.952,2.658c-1.078,1.727 -1.456,3.082 -4.098,2.014c-3.396,-1.373 -9.386,-5.779 -13.286,-8.261c-6.038,-3.841 -19.767,-8.338 -12.968,-21.408Z" style="fill:#ffe9d3;"/><path d="M99.492,117.801c3.562,-0.39 6.44,1.299 6.394,5.803c-0.036,3.624 -0.298,10.07 -1.024,16.504c-0.802,7.099 -1.047,24.436 -1.047,24.436c-0.032,0.544 -2.134,2.851 -4.171,3.017c-1.588,0.129 -2.203,-2.037 -2.196,-2.516c0,-0 0.018,-10.836 -0.202,-13.061c-0.199,-2.009 -0.545,-8.976 -0.75,-14.637c-0.316,-8.724 -0.931,-19.116 2.996,-19.546Z" style="fill:#ffe9d3;"/><path d="M80.282,93.153c0.577,-2.363 1.958,-2.132 4.106,-2.25c5.735,-0.315 16.364,6.232 21.073,9.934c2.758,2.168 6.454,4.464 9.485,6.775c1,0.762 4.098,1.737 4.896,2.499c0.791,0.756 2.371,2.27 2.509,2.985c0.258,1.345 -1.888,1.763 -2.372,3.194c-0.655,1.936 -0.676,3.378 -3.758,2.727c-3.963,-0.837 -11.504,-4.333 -16.307,-6.215c-7.434,-2.912 -23.158,-5.222 -19.632,-19.649Z" style="fill:#ffe9d3;"/><path d="M116.253,109.537c3.577,-0.215 6.368,1.614 6.102,6.11c-0.215,3.618 -0.793,10.043 -1.835,16.434c-1.149,7.051 -1.988,19.096 -1.988,19.096c-0.057,0.542 -2.209,3.009 -4.251,3.074c-1.593,0.051 -2.282,-1.281 -2.252,-1.759c0,-0 0.412,-6.691 0.301,-8.924c-0.1,-2.016 -0.103,-8.991 -0.03,-14.656c0.113,-8.729 0.009,-19.138 3.953,-19.375Z" style="fill:#ffe9d3;"/><path d="M103.288,179.951c2.051,-0.392 3.843,-2.077 3.843,-4.336c0,-0.348 0.091,-1.876 0,-2.249c-0.353,-1.451 -10.814,-3.744 -11.203,-1.677c-0.168,0.89 0.182,4.922 0.956,5.934c1.69,2.208 4.037,2.781 6.404,2.328Z" style="fill:#ebebeb;"/><path d="M131.002,163.869c0.565,-1.474 0.098,-2.627 0.098,-2.627c-0,0 -19.839,-3.366 -19.915,-2.82c-0.28,1.986 0.418,3.347 0.594,3.613c0.873,1.326 5.122,1.359 7.48,2.004c0.599,0.164 2.951,1.314 3.634,1.418c3.911,0.598 7.545,-0.113 8.109,-1.588Z" style="fill:#ebebeb;"/><path d="M103.288,177.895c2.367,-0.454 4.39,-2.629 3.71,-5.42c-0.354,-1.451 -0.747,-2.054 -1.717,-2.852c-0.441,-0.363 -0.891,-2.087 -1.16,-3.801c-0.253,-1.602 -0.239,-2.675 -0.266,-3.482l-6.649,1.178c-0.152,0.301 -0.892,4.119 -0.95,6.222c-0.013,0.445 0.355,3.995 0.565,4.433c1.202,2.507 4.1,4.175 6.467,3.722Z" style="fill:#ffe9d3;"/><path d="M131.002,162.092c0.565,-1.474 -1.334,-4.923 -5.365,-5.937c-2.094,-0.527 -4.316,-1.204 -6.294,-2.012c-0.655,-0.268 -0.822,-3.61 -0.822,-3.61l-6.235,0.394c-0,-0 -0.522,3.708 -0.786,5.583c-0.279,1.985 0.103,3.482 0.279,3.748c0.873,1.326 5.122,1.359 7.48,2.004c0.599,0.163 2.951,1.313 3.634,1.418c3.911,0.598 7.545,-0.114 8.109,-1.588Z" style="fill:#ffe9d3;"/><path d="M103.288,177.895c2.367,-0.454 4.39,-2.629 3.71,-5.42c-0.354,-1.451 -0.397,-1.764 -1.201,-2.73c-0.417,-0.5 -0.995,-1.33 -1.264,-3.044c-0.158,-1.002 0.102,-2.44 0.107,-2.925c0.008,-0.714 -0.775,-1.041 -0.775,-1.041l0.009,0.287c-0,-0 -0.016,0.165 -0.027,0.244c-0.458,3.325 -4.122,2.872 -5.827,1.144c-0.235,-0.238 -0.583,-0.783 -0.583,-0.783l-0.003,-0.997c-0,-0 -0.328,0.19 -0.76,0.562c-0.32,0.274 -0.373,0.596 -0.471,1.114c-0.064,0.331 0.114,3.259 -0.275,5.326c-0.168,0.89 0.182,4.922 0.956,5.934c1.69,2.208 4.037,2.782 6.404,2.329Z" style="fill:#001b35;"/><path d="M131.002,162.092c0.565,-1.474 -1.334,-4.923 -5.365,-5.937c-2.094,-0.527 -2.718,-0.699 -4.696,-1.507c-0.248,-0.101 -0.584,-1.059 -0.931,-1.366c-0.335,-0.297 -0.709,-0.597 -0.96,-0.663c-0.175,-0.047 -0.3,0.021 -0.3,0.021c0.047,0.085 0.032,0.197 0.05,0.281c0.32,1.464 -3.5,2.754 -6.04,0.86c-0.279,-0.208 -0.579,-0.653 -0.736,-1.098c-0.141,-0.176 -0.803,0.238 -0.839,1.462c-0.013,0.441 0.076,1.954 -0,2.5c-0.057,0.401 -0.066,2.612 -0.066,2.612c0,-0 0.089,0.239 0.145,0.367c0.164,0.376 0.429,0.543 0.525,0.687c0.873,1.326 5.112,1.306 7.47,1.951c0.599,0.163 2.951,1.313 3.634,1.418c3.911,0.598 7.545,-0.114 8.109,-1.588Z" style="fill:#001b35;"/><path d="M70.735,102.646c0.43,-1.426 0.419,-4.522 1.724,-6.135c1.746,-2.158 4.406,-4.901 7.315,-5.364c6.147,-0.98 16.326,1.946 17.355,2.726c0.731,0.555 24.334,14.368 25.243,17.767c1.124,4.203 -5.22,5.115 -10.415,6.498c-1.122,0.299 -7.645,-3.42 -7.645,-3.42c0,0 1.173,1.568 2.307,3.199c0.754,1.086 -0.132,3.562 -0.022,3.765c2.369,4.383 -10.407,2.374 -10.662,3.658c-0.624,3.142 -9.378,-7.092 -12.926,-7.463c-4.669,-0.488 -13.996,-9.517 -12.274,-15.231Z" style="fill:#46596d;"/><path d="M96.35,28.025c-7.801,-2.588 -12.749,3.183 -12.087,9.148c0.335,3.015 0.186,5.994 2.449,8.542c1.493,1.68 4.968,3.458 6.928,3.927c3.686,0.883 6.563,-3.193 8.515,-8.283c1.81,-4.722 -1.006,-11.742 -5.805,-13.334Z" style="fill:#ffe9d3;"/><path d="M108.711,30.03c-0.833,-0.371 0.463,-3.451 -1.578,-5.441c-1.119,-1.091 -6.245,-0.248 -6.245,-0.248c-0,-0 0.485,-5.998 -2.76,-4.046c-1.528,0.92 -4.514,0.919 -6.862,1.193c-5.443,0.635 -3.991,4.176 -3.991,4.176c0,-0 -3.834,-2.055 -5.727,0.81c-1.406,2.129 0.51,6.083 0.035,6.542c-4.452,4.303 0.983,4.812 -0.192,5.513c-1.899,1.133 0.836,3.375 0.905,3.898c0.077,0.578 2.259,1.495 5.264,-0.2c0.241,-0.136 -1.405,-2.216 -1.405,-2.397c0.002,-0.532 0.586,-0.784 1.178,-0.962c0.933,-0.282 1.186,-0.083 1.872,1.919c0.138,0.403 2.192,-0.904 3.597,-2.148c1.046,-0.925 2.052,-2.781 2.779,-2.447c0.814,0.374 3.505,2.507 4.714,1.465c0.889,-0.766 1.492,4.091 2.202,3.604c0.759,-0.522 2.422,-0.68 3.283,-1.918c0.772,-1.109 0.758,-3.262 1.202,-4.434c0.668,-1.768 2.913,-4.35 1.729,-4.879Z" style="fill:#b26f27;"/><path d="M99.389,42.872c-0.011,0.869 0.64,1.306 1.595,0.992c1.09,-0.359 2.165,-1.562 2.4,-2.685c0.234,-1.123 -0.46,-1.744 -1.55,-1.385c-0.955,0.314 -1.899,1.277 -2.276,2.266l-1.428,0.47c0.011,-0.869 -0.641,-1.307 -1.595,-0.992c-1.09,0.358 -2.165,1.561 -2.4,2.684c-0.234,1.124 0.46,1.744 1.55,1.386c0.955,-0.315 1.899,-1.277 2.275,-2.266l1.429,-0.47Zm-2.953,-0.687c-0.736,0.242 -1.462,1.055 -1.621,1.814c-0.158,0.759 0.311,1.178 1.047,0.936c0.737,-0.243 1.463,-1.055 1.622,-1.814c0.158,-0.759 -0.311,-1.179 -1.048,-0.936Zm5.297,-1.743c-0.737,0.242 -1.463,1.055 -1.621,1.814c-0.159,0.759 0.311,1.178 1.047,0.936c0.736,-0.242 1.463,-1.055 1.621,-1.814c0.159,-0.759 -0.311,-1.178 -1.047,-0.936Z" style="fill:#001b35;"/><path d="M99.097,42.506c-0.011,0.869 0.64,1.306 1.595,0.992c1.09,-0.358 2.165,-1.561 2.4,-2.685c0.234,-1.123 -0.46,-1.743 -1.55,-1.385c-0.955,0.314 -1.899,1.277 -2.275,2.266l-1.429,0.47c0.011,-0.869 -0.64,-1.306 -1.595,-0.992c-1.09,0.358 -2.165,1.561 -2.4,2.685c-0.234,1.123 0.46,1.743 1.55,1.385c0.955,-0.314 1.899,-1.277 2.276,-2.266l1.428,-0.47Zm-2.953,-0.687c-0.736,0.242 -1.462,1.055 -1.621,1.814c-0.158,0.759 0.311,1.178 1.048,0.936c0.736,-0.243 1.462,-1.055 1.621,-1.814c0.158,-0.759 -0.311,-1.179 -1.048,-0.936Zm5.297,-1.743c-0.737,0.242 -1.463,1.055 -1.621,1.814c-0.159,0.759 0.311,1.178 1.047,0.936c0.736,-0.242 1.463,-1.055 1.621,-1.814c0.159,-0.759 -0.311,-1.178 -1.047,-0.936Z" style="fill:#001b35;"/><path d="M78.95,52.581c2.224,5.018 6.266,8.636 11.464,11.365c1.654,-3.48 1.859,-6.844 0.645,-12.453c2.029,-0.06 4.599,1.379 6.715,2.858c0.281,2.013 0.998,3.046 0.501,4.914c1.638,3.067 -0.436,30.56 1.115,35.908c-8.153,5.491 -17.042,6.149 -25.194,2.157c3.583,-6.229 2.642,-16.884 0.624,-21.813c1.421,-4.157 1.651,-8.474 0.526,-12.972c-1.553,-2.368 -3.379,-4.035 -5.616,-4.642c1.852,-2.112 3.856,-4.181 9.22,-5.322Z" style="fill:#fafafa;"/><path d="M66.924,59.261c1.41,-2.092 6.222,-6.142 12.577,-8.148c4.643,5.608 6.45,12.83 5.552,21.592c-0,0 0.738,14.091 1.275,19.257c0.418,4.02 6.128,12.213 6.128,12.213c-1.219,0.47 -3.446,2.08 -7.153,-0.432c-1.959,-1.328 -4.624,2.613 -8.161,2.582c-4.817,-0.043 -5.154,-4.404 -7.412,-4.545c0,-0 1.153,-11.296 4.175,-16.99c1.714,-3.229 1.289,-11.189 1.289,-11.189c-3.656,0.917 -7.765,2.784 -11.327,-1.624c0.449,-2.864 -0.297,-6.657 3.057,-12.716Z" style="fill:#001b35;"/><path d="M70.958,56.376c5.744,-0.583 6.381,8.032 5.639,15.824c-0.269,2.817 -0.12,7.093 0.054,10.569c0.366,7.323 1.589,14.281 -2.08,12.002c-1.078,-0.67 -2.85,-0.905 -3.83,-3.381c-1.844,-4.658 -2.584,-13.088 -2.584,-18.04c0,-7.583 -0.85,-16.604 2.801,-16.974Z" style="fill:#ffe9d3;"/><path d="M100.058,54.74c-3.366,-4.323 -6.071,-4.66 -8.776,-4.749l-0.508,2.251c-0,-0 2.613,3.098 3.224,7.241c0.497,3.367 1.766,11.419 1.766,11.419c-0,0 0.849,9.452 0.974,14.157c0.124,4.687 -0.224,14.072 -0.224,14.072c2.309,-1.779 3.358,0.375 5.409,-2.538l-1.906,-12.834l0,-14.262c0,0 0.992,0.069 1.536,-0.898c1.065,-1.896 1.526,-2.758 1.526,-2.758c-0.986,-2.845 -1.535,-9.192 -3.021,-11.101Z" style="fill:#001b35;"/><path d="M68.786,57.299l6.52,-3.764c3.707,7.008 5.139,14.736 3.246,23.515c-5.16,0.87 -8.444,2.439 -13.764,-4.073l3.998,-15.678Z" style="fill:#001b35;"/><path d="M94.191,45.16c-0.109,-0.245 -0.134,-0.563 -0.056,-0.938c0.235,-1.123 1.31,-2.326 2.4,-2.684c0.502,-0.166 0.92,-0.123 1.202,0.081c-0.217,-0.49 -0.768,-0.686 -1.494,-0.447c-1.09,0.358 -2.165,1.561 -2.4,2.685c-0.126,0.605 0.018,1.065 0.348,1.303Zm2.992,-2.961c0.048,0.153 0.054,0.341 0.009,0.556c-0.159,0.759 -0.885,1.571 -1.621,1.814c-0.303,0.099 -0.56,0.087 -0.747,-0.014c0.12,0.387 0.511,0.553 1.038,0.38c0.25,-0.082 0.498,-0.23 0.724,-0.419c0.166,-0.15 0.322,-0.315 0.464,-0.49c0.213,-0.283 0.37,-0.599 0.434,-0.905c0.093,-0.448 -0.032,-0.777 -0.301,-0.922Zm1.976,0.749c0.064,0.199 0.177,0.358 0.331,0.469c-0.068,-0.154 -0.104,-0.337 -0.101,-0.545l-0.23,0.076Zm3.321,-2.492c0.048,0.153 0.053,0.341 0.008,0.556c-0.158,0.759 -0.885,1.572 -1.621,1.814c-0.302,0.1 -0.56,0.087 -0.747,-0.014c0.121,0.387 0.511,0.554 1.039,0.38c0.258,-0.085 0.515,-0.24 0.747,-0.438c0.147,-0.136 0.287,-0.282 0.415,-0.438c0.226,-0.291 0.393,-0.619 0.459,-0.938c0.094,-0.447 -0.031,-0.777 -0.3,-0.922Zm-4.412,1.632c0.043,0.131 0.064,0.279 0.062,0.442l1.428,-0.47c0.377,-0.989 1.321,-1.952 2.276,-2.266c0.502,-0.165 0.92,-0.122 1.202,0.082c-0.217,-0.491 -0.768,-0.687 -1.494,-0.448c-0.955,0.314 -1.899,1.277 -2.275,2.266l-1.199,0.394Z" style="fill:#001b35;"/><path d="M94.191,45.16c-0.109,-0.245 -0.134,-0.563 -0.056,-0.938c0.235,-1.123 1.31,-2.326 2.4,-2.684c0.502,-0.166 0.92,-0.123 1.202,0.081c-0.217,-0.49 -0.768,-0.686 -1.494,-0.447c-1.09,0.358 -2.165,1.561 -2.4,2.685c-0.126,0.605 0.018,1.065 0.348,1.303Zm2.992,-2.961c0.048,0.153 0.054,0.341 0.009,0.556c-0.159,0.759 -0.885,1.571 -1.621,1.814c-0.303,0.099 -0.56,0.087 -0.747,-0.014c0.12,0.387 0.511,0.553 1.038,0.38c0.25,-0.082 0.498,-0.23 0.724,-0.419c0.166,-0.15 0.322,-0.315 0.464,-0.49c0.213,-0.283 0.37,-0.599 0.434,-0.905c0.093,-0.448 -0.032,-0.777 -0.301,-0.922Zm1.976,0.749c0.064,0.199 0.177,0.358 0.331,0.469c-0.068,-0.154 -0.104,-0.337 -0.101,-0.545l-0.23,0.076Zm3.321,-2.492c0.048,0.153 0.053,0.341 0.008,0.556c-0.158,0.759 -0.885,1.572 -1.621,1.814c-0.302,0.1 -0.56,0.087 -0.747,-0.014c0.121,0.387 0.511,0.554 1.039,0.38c0.258,-0.085 0.515,-0.24 0.747,-0.438c0.147,-0.136 0.287,-0.282 0.415,-0.438c0.226,-0.291 0.393,-0.619 0.459,-0.938c0.094,-0.447 -0.031,-0.777 -0.3,-0.922Zm-4.412,1.632c0.043,0.131 0.064,0.279 0.062,0.442l1.428,-0.47c0.377,-0.989 1.321,-1.952 2.276,-2.266c0.502,-0.165 0.92,-0.122 1.202,0.082c-0.217,-0.491 -0.768,-0.687 -1.494,-0.448c-0.955,0.314 -1.899,1.277 -2.275,2.266l-1.199,0.394Z" style="fill:#b9b9b9;fill-opacity:0.28;"/><path d="M94.186,42.973l-5.761,-3.326l-0.401,0.231l5.985,3.456c0.051,-0.122 0.111,-0.243 0.177,-0.361Z" style="fill:#001b35;"/><path d="M94.186,42.973l-5.761,-3.326l-0.401,0.231l5.985,3.456c0.051,-0.122 0.111,-0.243 0.177,-0.361Z" style="fill:#b9b9b9;fill-opacity:0.28;"/><path d="M88.831,40.329l0,0.885l5.355,3.091l0.236,-0.748l-5.591,-3.228Z" style="fill:#001b35;"/><path d="M87.07,38.651c-1.099,-0.086 -2.004,1.52 -1.434,3.48c0.58,1.989 0.534,3.098 1.637,3.265c0.504,0.076 1.225,-1.011 1.321,-2.97c0.023,-0.47 0.656,-1.707 0.608,-2.13c-0.15,-1.345 -1.297,-1.579 -2.132,-1.645Z" style="fill:#ffe9d3;"/><path d="M87.07,38.651c-1.099,-0.086 -2.004,1.52 -1.434,3.48c0.58,1.989 0.534,3.098 1.637,3.265c0.504,0.076 1.225,-1.011 1.321,-2.97c0.023,-0.47 0.656,-1.707 0.608,-2.13c-0.15,-1.345 -1.297,-1.579 -2.132,-1.645Z" style="fill:#ffa347;fill-opacity:0.14;"/><path d="M115.489,92.153l-32.463,18.743l19.544,11.284l32.464,-18.743l-19.545,-11.284Z" style="fill:#d7d7d7;fill-opacity:0.54;"/><path d="M83.026,110.896l-0,1.27l19.544,11.284l32.464,-18.743l-0,-1.27l-19.545,-11.284l-32.463,18.743Z" style="fill:#ebebeb;"/><path d="M115.489,92.153l-32.463,18.743l19.544,11.284l32.464,-18.743l-19.545,-11.284Z" style="fill:#b9b9b9;fill-opacity:0.28;"/><path d="M120.672,96.645l-29.866,17.243l10.763,6.214l29.866,-17.243l-10.763,-6.214Z" style="fill:#001b35;"/><path d="M104.637,99.688l-8.527,4.923l4.393,2.536l8.527,-4.923l-4.393,-2.536Z" style="fill:#ebebeb;fill-opacity:0.54;"/><path d="M136.133,81.576l-1.1,-0.707l-32.463,18.743l-0,23.854l1.1,0.708l32.463,-18.743l0,-23.855Z" style="fill:#ebebeb;"/><path d="M103.67,124.174l-0,-23.855l32.463,-18.743l0,0l-1.1,-0.707l-32.463,18.743l-0,23.854l1.1,0.708l-0,-0Z" style="fill:#b9b9b9;fill-opacity:0.28;"/><path d="M96.554,104.376c0.96,0.415 2.127,1.149 4.434,1.747c0.838,0.217 1.582,0.153 1.582,0.153l0.043,7.926l-1.054,-1.225c-0.499,-0.63 -1.11,-1.048 -1.877,-1.171c-0,-0 1.823,1.381 1.797,2.298c-0.012,0.459 0.029,0.954 -1.011,0.318c-0.284,-0.173 -0.844,-0.809 -1.138,-1.022c-0.342,-0.247 -1.722,-0.747 -2.618,-1.526c-1.481,-1.288 -2.081,-2.407 -2.607,-3.072c-0.933,-1.181 -3.858,-2.394 -3.842,-3.19c0.021,-1.097 0.91,-5.046 0.91,-5.046c-0,-0 4.093,3.253 5.381,3.81Z" style="fill:#ffe9d3;"/><path d="M71.234,91.106c0.662,-5.217 7.578,-1.1 13.575,3.749c4.547,3.676 14.24,11.433 14.24,11.433c-0,0 0.458,1.727 0.302,2.408c-0.231,1.009 -3.39,0.626 -3.39,0.626c0,0 -7.841,-3.863 -11.893,-6.644c-5.978,-4.103 -13.255,-8.257 -12.834,-11.572Z" style="fill:#ffe9d3;"/></svg>