<?xml version="1.0" encoding="UTF-8" standalone="no"?><!DOCTYPE svg PUBLIC "-//W3C//DTD SVG 1.1//EN" "http://www.w3.org/Graphics/SVG/1.1/DTD/svg11.dtd"><svg width="100%" height="100%" viewBox="0 0 200 200" version="1.1" xmlns="http://www.w3.org/2000/svg" xmlns:xlink="http://www.w3.org/1999/xlink" xml:space="preserve" xmlns:serif="http://www.serif.com/" style="fill-rule:evenodd;clip-rule:evenodd;stroke-linejoin:round;stroke-miterlimit:2;"><path d="M84.937,163.185c-0.468,-1.222 2.116,-4.17 5.454,-5.009c1.735,-0.437 2.709,-0.629 4.203,-1.576c1.508,-0.955 1.306,-3.48 1.306,-3.48l4.54,0.816c0,0 -0.014,2.062 0.204,3.614c0.232,1.645 -1.957,2.151 -2.173,2.303c-1.546,1.089 -1.741,1.223 -4.193,2.775c-0.435,0.275 -2.058,1.785 -2.624,1.872c-3.24,0.495 -6.25,-0.094 -6.717,-1.315Z" style="fill:#ffe9d3;"/><path d="M84.937,163.177c-0.468,-1.221 1.108,-3.682 4.326,-4.835c1.673,-0.599 3.731,-1.112 5.307,-1.943c0.198,-0.105 0.293,-0.294 0.568,-0.582c0.127,-0.133 0.429,-0.458 0.429,-0.458c0,-0 -0.265,0.998 -0.643,1.237c-1.316,0.835 -4.892,1.764 -5.309,2.211c-0.197,0.212 -1.125,0.95 -1.015,1.282c0.169,0.515 1.63,1.082 2.115,0.912c1.041,-0.365 3.125,-1.547 4.99,-2.427c1.105,-0.521 3.439,-0.954 4.342,-1.912c0.669,-0.71 -0.005,-1.849 0.376,-2.795c-0,-0 0.517,0.027 0.656,0.93c0.057,0.371 -0.041,1.677 0.026,2.138c0.244,1.679 -0.301,2.893 -0.438,3.133c-0.118,0.206 -1.11,2.582 -1.164,2.952c-0.035,0.247 -0.519,0.218 -0.641,0.147c-0.366,-0.213 -0.293,-0.132 -0.407,-0.422c-0.083,-0.21 0.137,-2.2 -0,-2.178c-0.171,0.027 -0.506,0.144 -0.579,0.198c-0.653,0.487 -1.31,1.016 -1.882,1.448c-0.409,0.308 -3.083,2.397 -3.629,2.535c-3.128,0.789 -6.961,-0.35 -7.428,-1.571Z" style="fill:#001b35;"/><path d="M98.982,45.721c5.367,0.372 1.614,6.711 -0.681,12.745c-2.223,5.846 -4.249,15.267 -7.601,14.735c-3.351,-0.531 -1.918,-9.075 -0.345,-15.051c1.574,-5.976 5.216,-12.666 8.627,-12.429Z" style="fill:#ffe9d3;"/><path d="M92.322,69.631c3.055,3.69 -3.502,6.631 -10.028,8.404c-6.322,1.717 -16.183,5.072 -17.477,4.56c-0.62,-0.245 -2.256,-2.369 -1.576,-2.796c6.044,-3.794 10.135,-4.813 14.332,-7.1c5.636,-3.071 12.808,-5.413 14.749,-3.068Z" style="fill:#ffe9d3;"/><path d="M54.642,80.264l3.899,0.245l-0.881,0.868l-5.457,1.006l2.143,3.531l2.72,0.719l8.296,-2.751l1.432,-3.012l-4.241,-2.065l-7.635,0.492l-0.276,0.967Z" style="fill:#ffe9d3;"/><path d="M136.962,106.513l-2.138,-1.791l-0.143,1.564l2.078,4.199l-3.478,3.281l-1.864,-0.56l-2.331,-7.917l1.318,-4.553l3.546,-0.311l3.528,4.725l-0.516,1.363Z" style="fill:#ffe9d3;"/><path d="M113.193,48.935l-12.56,-1.714c-1.95,1.856 -4.439,-0.446 -6.013,3.639c-0.244,0.634 0.555,2.987 -0,3.949c-1.82,3.153 -2.8,6.935 -2.234,9.483c0.653,2.937 3.241,4.944 3.241,4.944c-0,-0 -0.311,2.014 -0.253,3.782c0.149,4.548 -0.282,10.53 -0.754,14.083c5.806,14.326 18.374,3.13 20.358,0.398c-0.855,-5.147 -1.218,-9.202 1.962,-18.02c2.987,-8.284 6.681,-12.219 3.288,-16.482c-1.91,-2.399 -3.42,-1.872 -7.035,-4.062Z" style="fill:#ffe9d3;"/><path d="M110.749,34.876l-9.538,0l-0,12.298c-11.578,9.547 12.575,2.104 12.575,2.104c0,0 -2.236,-1.265 -3.037,-2.104l-0,-12.298Z" style="fill:#ffe9d3;"/><path d="M110.786,34.855l-9.538,0l-0,9.368c1.633,3.215 7.249,0.38 9.538,-2.778l-0,-6.59Z" style="fill:#f6a95c;fill-opacity:0.18;"/><path d="M99.88,114.792c-3.294,-0.358 -5.954,1.206 -5.908,5.371c0.036,3.351 0.283,9.312 0.96,15.26c0.747,6.564 0.984,17.727 0.984,17.727c0.029,0.503 -0.278,2.848 1.606,3c1.468,0.118 2.688,-0.828 2.682,-1.27c-0,-0 1.578,-6.424 1.78,-8.482c0.182,-1.857 0.497,-8.299 0.682,-13.534c0.285,-8.068 0.846,-17.677 -2.786,-18.072Z" style="fill:#ffe9d3;"/><path d="M113.321,49.009c-0,0 -5.587,3.491 -9.519,1.204c-2.875,-1.672 -2.586,-4.22 -2.586,-4.22c-2.96,-0.171 -2.648,0.709 -4.222,4.794c-0.244,0.634 -1.819,3.06 -2.374,4.022c-1.82,3.153 -2.8,6.935 -2.234,9.483c0.653,2.937 3.241,4.944 3.241,4.944c-0,-0 -0.311,2.014 -0.253,3.782c0.149,4.548 -0.282,10.53 -0.754,14.083c5.806,14.326 18.374,3.13 20.358,0.398c-0.855,-5.147 -1.218,-9.202 1.962,-18.02c2.987,-8.284 6.78,-11.21 3.387,-15.473c-1.91,-2.4 -3.391,-2.807 -7.006,-4.997Z" style="fill:#ffe9d3;"/><path d="M109.128,83.44c-2.108,-0.456 -2.404,0.869 -3.25,2.733c-2.258,4.978 -0.691,17.129 0.65,22.841c0.786,3.347 1.346,7.58 2.152,11.227c0.266,1.203 1.308,8.428 1.837,8.844c0.994,0.783 2.082,-0.956 3.406,-0.8c1.79,0.211 2.961,0.783 3.513,-2.228c0.709,-3.872 0.525,-12.022 0.685,-17.071c0.248,-7.815 3.879,-22.764 -8.993,-25.546Z" style="fill:#ffe9d3;"/><path d="M115.38,121.761c-3.314,-0.013 -5.796,1.82 -5.316,5.957c0.385,3.329 1.253,9.231 2.546,15.077c1.427,6.45 2.233,20.732 2.233,20.732c0.081,0.497 1.186,1.298 3.075,1.252c1.472,-0.035 2.199,-0.164 2.146,-0.604c0,-0 0.717,-9.133 0.704,-11.2c-0.013,-1.866 -0.372,-8.306 -0.733,-13.532c-0.558,-8.053 -1.002,-17.669 -4.655,-17.682Z" style="fill:#ffe9d3;"/><path d="M98.9,78.687c-2.242,0.28 -1.778,-2.216 -2.868,-0.45c-2.912,4.715 -4.377,17.134 -3.6,22.955c0.456,3.411 0.578,7.679 1.021,11.391c0.146,1.224 0.445,8.518 0.953,8.987c0.956,0.882 2.286,-0.734 3.655,-0.441c1.852,0.397 3.016,1.088 3.924,-1.849c1.168,-3.777 1.87,-11.902 2.592,-16.907c1.117,-7.746 7.5,-25.333 -5.677,-23.686Z" style="fill:#ffe9d3;"/><path d="M101.984,23.364c7.495,-1.255 11.195,4.721 9.742,10.077c-0.734,2.707 -1.022,5.45 -3.452,7.456c-1.602,1.323 -5.031,2.453 -6.888,2.603c-3.494,0.283 -5.543,-3.85 -6.602,-8.779c-0.983,-4.571 2.589,-10.585 7.2,-11.357Z" style="fill:#ffe9d3;"/><path d="M100.97,21.38c1.71,-0.663 2.057,-0.118 2.057,-0.118c-0,-0 3.942,-2.399 8.753,2.148c2.668,2.522 3.38,6.369 3.054,9.262c-0.241,2.14 -2.159,3.877 -2.678,5.107c-0.41,0.973 -0.072,2.616 0.219,2.931c0.038,0.041 -0.449,0.255 -0.884,0.192c-0.447,-0.065 -0.843,-0.408 -0.843,-0.408l-0.003,-1.884c-0,-0 -0.282,0.1 -0.814,0.963c-0.147,0.238 -1.901,1.871 -2.54,3.071c-0.929,1.745 1.44,2.915 0.995,4.479c-0.12,0.425 -0.906,1.277 -1.807,1.989c-0.527,0.416 -1.66,0.006 -2.157,0.212c-0.512,0.212 -0.383,1.029 -0.625,0.772c-0.3,-0.318 -0.308,-0.961 0.132,-1.481c0.806,-0.954 1.494,-2.575 1.114,-3.562c-0.571,-1.484 -0.835,-3.195 -0.427,-4.994c0.183,-0.806 -0.052,-4.014 -1.665,-7.978c-1.357,-3.335 -3.109,-4.098 -3.109,-4.098c0,-0 -1.804,-1.712 -3.948,1.701c-0.233,0.369 -0.955,1.932 -1.05,2.238c-0.21,0.676 -0.095,1.912 -0.095,1.912c0,-0 -1.111,-1.988 -1.01,-2.756c0.599,-4.518 2.997,-8.019 7.331,-9.698Z" style="fill:#c4a584;"/><path d="M99.742,27.881c0,0 1.789,-1.101 2.33,0.085c1.54,3.378 1.625,6.244 1.625,6.244c-0.716,-2.711 -1.982,-4.873 -3.955,-6.329Z" style="fill:#363636;fill-opacity:0.18;"/><path d="M99.482,27.678c-0,-0 -1.259,-2.498 -1.803,-1.925c-1.552,1.633 -1.926,4.067 -1.926,4.067c0.844,-1.757 2.052,-2.562 3.729,-2.142Z" style="fill:#363636;fill-opacity:0.18;"/><path d="M110.81,33.68c1.978,-0.023 2.113,1.923 1.771,3.236c-0.341,1.313 -2.418,2.133 -2.418,2.133c-0,-0 0.501,-0.823 0.574,-2.178c0.043,-0.804 -1.041,-1.661 -1.009,-2.057c0.039,-0.474 0.68,-1.13 1.082,-1.134Z" style="fill:#ffe9d3;"/><path d="M114.342,49.052c-0.606,0.841 -1.224,1.726 -1.862,2.613c-2.955,4.101 -6.364,8.236 -11.191,8.18c-1.989,-2.644 -2.411,-8.049 -0.063,-14.174c-0.811,-0.458 -2.649,-0.46 -3.392,-0.182c-0.475,0.178 -1.045,0.308 -1.659,1.902c-0.244,0.634 -0.587,4.63 -1.142,5.593c-1.822,3.155 -3.374,8.102 -2.807,10.651c0.653,2.939 2.904,6.054 2.904,6.054c0,0 -0.04,3.293 0.018,5.063c0.149,4.551 0.187,3.615 -0.286,7.171c5.81,14.335 21.643,12.583 23.628,9.849c-0.855,-5.15 -4.349,-11.359 -1.167,-20.183c0.804,-2.231 2.352,-5.347 2.352,-5.347c1.666,-3.475 3.498,-12.037 -0.364,-14.636c-1.545,-1.04 -1.664,-1.315 -4.969,-2.554Z" style="fill:#001b35;"/><path d="M125.797,77.567c-4.6,0.738 -3.41,7.129 -1.356,13.21c1.493,4.42 2.411,6.56 4.322,11.399c0.395,0.999 1.631,4.155 2.348,3.962c1.22,-0.327 2.708,0.229 2.72,-2.161c0.016,-3.23 -2.613,-11.076 -3.438,-14.566c-1.434,-6.07 -1.672,-12.313 -4.596,-11.844Z" style="fill:#ffe9d3;"/><path d="M118.416,52.428c-5.274,0.839 -3.726,8.896 -1.147,15.866c2.499,6.754 4.989,17.755 8.267,16.876c3.278,-0.878 1.418,-10.884 -0.446,-17.84c-1.864,-6.957 -3.322,-15.436 -6.674,-14.902Z" style="fill:#ffe9d3;"/><path d="M115.276,175.438c-1.856,-0.356 -2.786,-0.925 -2.252,-3.114c0.277,-1.137 0.958,-3.897 1.2,-4.723c0.126,-0.43 0.066,-1.079 0.278,-2.423c0.198,-1.257 0.309,-1.305 0.33,-1.938l5.214,0.924c0.119,0.236 -0.374,2.433 -0.328,4.082c0.01,0.349 -0.139,1.314 -0.445,4.182c-0.231,2.168 -2.141,3.365 -3.997,3.01Z" style="fill:#ffe9d3;"/><path d="M113.895,179.332c-1.87,-0.276 -1.918,-3.301 -1.898,-4.165c0.023,-0.988 0.409,-3.453 0.859,-3.947c0.413,-0.455 0.717,-2.061 1.07,-3.7c0.206,-0.957 0.245,-2.01 0.256,-2.47c0.007,-0.275 0.192,-0.785 0.605,-1.089c-0.009,0.821 -0.186,1.585 -0.18,2.035c0.005,0.372 -0.941,4.255 -1.058,6.199c-0.076,1.278 0.959,2.223 1.191,2.218c0.267,-0.006 2.202,-0.657 2.768,-1.974c0.847,-1.968 1.273,-6.303 1.646,-6.593c0.611,-0.474 0.688,-1.286 0.91,-2.009c0.056,-0.183 0.562,0.704 0.713,1.139c0.098,0.282 -0.352,3.103 -0.206,5.057c0.014,0.186 -0.013,0.628 -0.177,0.936c-0.08,0.15 -0.262,0.016 -0.455,0.017c-0.075,0 -0.176,-0.315 -0.187,-0.169c-0.018,0.238 -0.073,1.007 -0.076,1.274c-0.013,1.509 -0.148,3.691 -0.537,4.241c-1.528,2.154 -3.443,3.266 -5.244,3Z" style="fill:#001b35;"/><path d="M107.791,64.667l-3.021,-1.744l-0.5,2.307l3.021,1.744l0.5,-2.307Zm-0.582,0.093l-2.022,-1.168l-0.335,1.545l2.022,1.167l0.335,-1.544Z" style="fill:#d8d8d8;"/><path d="M98.77,59.458l-3.021,-1.744l-0.5,2.308l3.021,1.744l0.5,-2.308Zm-0.582,0.093l-2.022,-1.167l-0.335,1.545l2.022,1.167l0.335,-1.545Z" style="fill:#d8d8d8;"/><path d="M107.052,66.191l-2.435,-1.406l-0.347,1.979l2.435,1.406l0.347,-1.979Z" style="fill:#46596d;"/><path d="M98.093,61.018l-2.435,-1.406l-0.347,1.979l2.435,1.406l0.347,-1.979Z" style="fill:#46596d;"/><path d="M108.832,52.965c-1.659,2.493 -3.976,10.718 -3.976,10.718l2.435,1.406c-0,0 2.316,-8.307 3.975,-10.8c1.102,-1.655 4.556,-3.472 5.77,-4.075c0.02,-0.01 0.046,-0.02 0.046,-0.02l0.605,0.322c0,-0 -0.165,-0.465 -0.224,-0.51c-0.344,-0.264 -1.769,-1.09 -2.234,-1.295c-0.122,-0.053 -0.332,-0.047 -0.556,0.067c-1.143,0.581 -4.71,2.488 -5.841,4.187Z" style="fill:#46596d;"/><path d="M101.216,45.68c0,0 -2.441,1.846 -2.961,3.095c-0.875,2.104 -2.463,9.675 -2.463,9.675l2.435,1.406l2.263,-9.582l0.497,-3.987l0.229,-0.607Z" style="fill:#46596d;"/><path d="M109.049,124.932c0.247,0.723 5.019,33.219 5.019,33.219c0.081,0.498 1.33,4.493 3.218,4.42c2.443,-0.094 3.535,-1.659 3.482,-2.099c-0,-0 0.362,-16.407 -0,-21.632c-0.243,-3.505 -0.135,-23.997 -0.555,-36.688c-0.126,-3.797 -0.929,-8.897 -1.2,-10.143c-0.613,-2.822 -11.722,-24.447 -11.722,-24.447c-2.249,-1.028 -12.587,-7.267 -12.587,-7.267c0,0 -2.507,10.65 -2.478,11.52c0.067,2.058 -1.598,26.364 -0.891,31.653c0.455,3.41 1.607,12.763 1.847,13.815c0.238,1.044 2.057,35.84 2.351,36.466c0.387,0.822 0.356,1.041 1.211,1.051c1.351,0.017 4.638,-0.31 5.207,-1.997c1.262,-3.747 2.505,-40.784 3.227,-45.789c0.113,-0.782 1.745,8.485 2.573,12.13c0.273,1.202 0.95,4.767 1.298,5.788Z" style="fill:#46596d;"/><path d="M104.27,96.501c-0.794,-0.209 -1.642,-0.744 -2.54,-1.577c0.171,3.992 0.827,6.243 1.669,8.337l1.697,3.486c-0.417,-2.105 -0.908,-3.545 -0.826,-10.246Z" style="fill:#363636;fill-opacity:0.18;"/><path d="M105.372,80.134l-10.181,-5.879l-0.276,9.15l13.383,7.727l-2.926,-10.998Z" style="fill:#363636;fill-opacity:0.18;"/></svg>