<?xml version="1.0" encoding="UTF-8" standalone="no"?><!DOCTYPE svg PUBLIC "-//W3C//DTD SVG 1.1//EN" "http://www.w3.org/Graphics/SVG/1.1/DTD/svg11.dtd"><svg width="100%" height="100%" viewBox="0 0 200 200" version="1.1" xmlns="http://www.w3.org/2000/svg" xmlns:xlink="http://www.w3.org/1999/xlink" xml:space="preserve" xmlns:serif="http://www.serif.com/" style="fill-rule:evenodd;clip-rule:evenodd;stroke-linejoin:round;stroke-miterlimit:2;"><path d="M111.824,188.237c-2.338,-0.448 -2.439,-4.188 -1.766,-6.945c0.349,-1.433 1.207,-4.91 1.512,-5.949c0.158,-0.542 0.083,-1.36 0.35,-3.053c0.249,-1.583 0.389,-1.643 0.415,-2.44l6.039,1.198c0.151,0.297 0.058,3.03 0.116,5.107c0.012,0.439 -0.175,1.655 -0.561,5.267c-0.291,2.731 -3.767,7.263 -6.105,6.815Z" style="fill:#ffe9d3;"/><path d="M78.325,173.257c-0.589,-1.539 2.665,-5.252 6.87,-6.31c2.186,-0.549 3.479,-0.692 5.295,-1.984c1.285,-0.915 0.858,-3.766 0.858,-3.766l6.505,0.41c-0,0 -0.018,2.597 0.257,4.553c0.292,2.071 -2.466,2.709 -2.738,2.901c-1.947,1.371 -2.192,1.54 -5.281,3.494c-0.548,0.347 -2.592,2.249 -3.305,2.358c-4.081,0.624 -7.872,-0.118 -8.461,-1.656Z" style="fill:#ffe9d3;"/><path d="M90.808,27.113l3.961,11.026l2.884,2.949l-7.092,1.406l-2.09,-3.608l2.337,-11.773Z" style="fill:#c4a584;"/><path d="M105.784,83.512c-2.404,-0.528 -2.75,1.048 -3.727,3.268c-2.609,5.929 -0.892,20.357 0.606,27.135c0.877,3.972 1.492,8.998 2.39,13.326c0.296,1.427 -0.061,5.183 0.316,6.396c0.375,1.204 1.128,3.61 1.729,4.101c1.131,0.922 2.384,-1.151 3.894,-0.974c2.044,0.239 3.378,0.912 4.026,-2.67c0.833,-4.605 0.671,-14.287 0.884,-20.288c0.329,-9.287 4.566,-27.073 -10.118,-30.294Z" style="fill:#ffe9d3;"/><path d="M112.238,129.055c-3.595,-0.015 -6.288,2.161 -5.768,7.075c0.419,3.953 1.36,10.962 2.763,17.903c1.548,7.66 3.066,20.814 3.066,20.814c0.089,0.59 2.383,3.161 4.433,3.107c1.597,-0.042 2.213,-1.545 2.156,-2.067c-0,0 -0.789,-7.31 -0.804,-9.765c-0.013,-2.216 -0.403,-9.864 -0.795,-16.069c-0.605,-9.563 -1.087,-20.982 -5.051,-20.998Z" style="fill:#ffe9d3;"/><path d="M94.686,75.752c-2.433,0.333 -1.929,-2.631 -3.112,-0.534c-3.16,5.599 -4.75,20.347 -3.906,27.259c0.494,4.05 0.627,9.118 1.108,13.526c0.159,1.453 -0.555,5.148 -0.295,6.397c0.259,1.24 0.777,3.719 1.329,4.275c1.037,1.047 2.48,-0.872 3.965,-0.524c2.01,0.472 3.273,1.293 4.258,-2.196c1.268,-4.485 2.029,-14.132 2.812,-20.076c1.213,-9.199 8.138,-30.082 -6.159,-28.127Z" style="fill:#ffe9d3;"/><path d="M95.749,118.627c-3.574,-0.425 -6.46,1.432 -6.411,6.378c0.04,3.979 0.308,11.057 1.043,18.121c0.81,7.794 1.067,21.05 1.067,21.05c0.032,0.597 2.068,3.416 4.112,3.596c1.593,0.141 2.348,-1.284 2.341,-1.81c0,0 -0.088,-7.36 0.131,-9.803c0.198,-2.206 0.539,-9.856 0.74,-16.073c0.309,-9.579 0.918,-20.991 -3.023,-21.459Z" style="fill:#ffe9d3;"/><path d="M90.9,45.332c5.207,1.365 3.431,8.096 0.664,13.77c-2.68,5.497 -5.479,14.643 -8.705,13.489c-3.226,-1.154 -1.082,-9.523 0.975,-15.272c2.057,-5.749 3.756,-12.854 7.066,-11.987Z" style="fill:#ffe9d3;"/><path d="M108.502,45.146l-12.732,-1.738c-1.976,1.881 -4.5,-0.452 -6.095,3.689c-0.247,0.643 0.563,3.027 0,4.002c-1.845,3.197 -2.838,7.031 -2.264,9.613c0.661,2.978 3.285,5.012 3.285,5.012c-0,-0 -0.316,2.042 -0.257,3.834c0.152,4.61 -0.285,10.674 -0.764,14.275c5.885,14.523 18.626,3.174 20.636,0.405c-0.865,-5.218 -1.233,-9.329 1.99,-18.268c3.028,-8.397 6.772,-12.386 3.333,-16.707c-1.937,-2.432 -3.467,-1.897 -7.132,-4.117Z" style="fill:#ffe9d3;"/><path d="M106.025,30.894l-9.669,0l0,12.466c-12.744,10.509 19.936,10.753 9.669,0l-0,-12.466Z" style="fill:#ffe9d3;"/><path d="M106.025,30.894l-9.669,0l0,10.107c2.937,2.761 6.256,0.889 9.669,-2.113l-0,-7.994Z" style="fill:#ffdab6;"/><path d="M112.672,83.87c-8.195,-4.369 -16.726,-6.553 -24.172,0.01c-1.473,3.385 -1.133,6.602 -1.056,12.959c0.074,26.151 3.303,47.722 3.119,57.974c1.942,1.854 4.153,0.631 5.375,0.342c1.232,-0.291 2.801,0.236 2.802,-0.062c0.023,-4.069 0.641,-39.795 1.922,-48.956c0.228,-1.626 0.14,-2.266 0.374,-1.396c0.077,0.288 0.156,0.601 0.235,0.94c1.083,4.637 1.546,15.508 3.142,26c0.442,2.906 1.271,4.039 1.743,6.969c2.521,15.635 4.279,30.276 5.159,28.889c2.321,-3.66 4.438,3.934 7.059,-0.096c0.001,-10.254 -1.624,-36.053 -1.328,-46.311c0.402,-13.964 1.984,-30.225 -4.374,-37.262Z" style="fill:#46596d;"/><path d="M110.827,192.272c-2.648,-0.385 -2.416,-4.159 -2.391,-5.246c0.029,-1.245 0.515,-4.349 1.081,-4.971c0.522,-0.574 0.904,-2.597 1.348,-4.661c0.26,-1.206 0.309,-2.532 0.323,-3.111c0.009,-0.347 0.242,-0.99 0.763,-1.372c-0.013,1.034 -0.291,1.859 -0.228,2.563c0.042,0.467 -1.185,5.359 -1.332,7.808c-0.096,1.609 1.207,2.8 1.5,2.794c0.337,-0.007 2.774,-0.827 3.487,-2.486c1.066,-2.479 1.7,-8.345 2.17,-8.71c0.77,-0.597 0.769,-1.214 1.048,-2.125c0.071,-0.23 0.708,0.886 0.899,1.435c0.123,0.354 -0.444,3.908 -0.26,6.369c0.017,0.234 -0.016,0.792 -0.223,1.179c-0.1,0.188 -0.33,0.02 -0.573,0.021c-0.094,0 -0.222,-0.397 -0.235,-0.212c-0.023,0.299 -0.093,1.268 -0.096,1.604c-0.017,1.901 -0.283,4.59 -0.677,5.341c-1.84,3.509 -3.186,4.276 -6.604,3.78Z" style="fill:#d8d8d8;"/><path d="M117.013,180.346c0.06,-0.268 -0.11,-0.534 -0.378,-0.593c0,-0 -2.024,-0.86 -2.989,-1.075c-0.916,-0.204 -2.804,-0.215 -2.804,-0.215c-0.268,-0.06 -0.534,0.109 -0.593,0.377l-0.217,0.972c-0.059,0.268 0.11,0.534 0.378,0.594c-0,-0 1.859,0.004 2.761,0.205c0.965,0.215 3.032,1.084 3.032,1.084c0.268,0.06 0.534,-0.109 0.594,-0.377l0.216,-0.972Z" style="fill:#d8d8d8;"/><path d="M90.71,169.693c0.217,-0.168 0.257,-0.481 0.088,-0.698c0,0 -1.009,-1.954 -1.615,-2.736c-0.575,-0.741 -0.891,-0.862 -0.891,-0.862c-0.291,-0.19 -0.429,-0.254 -0.708,-0.154l-1.056,0.405c-0.217,0.169 -0.257,0.481 -0.089,0.699c0,-0 0.578,0.367 1.144,1.097c0.606,0.782 1.642,2.771 1.642,2.771c0.169,0.217 0.481,0.256 0.699,0.088l0.786,-0.61Z" style="fill:#d8d8d8;"/><path d="M78.325,173.247c-0.784,-1.448 1.396,-4.638 5.45,-6.09c2.107,-0.755 4.699,-1.4 6.683,-2.448c0.25,-0.131 0.327,-0.359 0.535,-0.795c0.076,-0.161 0.378,-0.761 0.378,-0.761c-0,0 0.111,1.44 -0.466,1.805c-1.658,1.051 -6.162,2.221 -6.687,2.784c-0.249,0.267 -1.417,1.197 -1.279,1.615c0.214,0.649 2.053,1.363 2.665,1.149c1.31,-0.46 3.935,-1.948 6.285,-3.057c1.392,-0.656 4.332,-1.201 5.469,-2.408c0.843,-0.895 0.068,-2.592 0.548,-3.783c0,-0 0.576,0.297 0.751,1.434c0.073,0.467 -0.051,2.112 0.033,2.693c0.308,2.115 -0.379,3.644 -0.552,3.947c-0.148,0.258 -1.398,3.251 -1.465,3.717c-0.045,0.312 -0.654,0.275 -0.807,0.186c-0.462,-0.269 -0.371,-0.167 -0.514,-0.532c-0.104,-0.265 0.173,-2.771 -0,-2.743c-0.215,0.034 -0.637,0.181 -0.728,0.249c-0.824,0.613 -1.651,1.28 -2.372,1.823c-0.515,0.388 -3.883,3.02 -4.571,3.194c-3.939,0.993 -7.696,1.085 -9.356,-1.979Z" style="fill:#d8d8d8;"/><path d="M92.679,21.593c6.309,-3.634 11.631,0.493 12.118,5.787c0.246,2.676 0.906,5.235 -0.605,7.849c-0.996,1.724 -3.695,3.885 -5.313,4.642c-3.041,1.422 -6.264,-1.603 -8.864,-5.673c-2.411,-3.775 -1.217,-10.369 2.664,-12.605Z" style="fill:#ffe9d3;"/><path d="M108.889,44.808c-0.636,-0.407 -2.801,-1.351 -2.801,-1.351c0,0 0.889,0.675 0.716,1.983c-0.595,4.48 -10.649,9.122 -10.649,9.122c-0,0 -1.034,-7.032 0.193,-11.394c0.079,-0.283 -0.029,-2.039 0.043,-2.335c-1.969,-1.059 -5.173,-0.72 -7.228,-0.329c-0.146,0.974 -3.281,6.23 -5.084,9.808c-0.801,1.591 -2.272,7.106 -2.272,7.106c1.593,-1.094 2.257,3.203 3.903,2.284c0.404,-0.226 1.949,0.244 1.99,1.149c0.123,2.67 0.388,1.629 1.803,3.692c1.18,4.686 -2.538,14.263 -3.762,20.506c-0.699,3.562 1.806,2.903 1.258,4.511c0.142,3.865 5.096,-11.181 7.237,-7.798c2.39,3.775 16.315,17.903 22.771,16.465l0.364,2.527c-0,-0 3.402,-3.387 3.193,-7.479c-0.312,-6.101 -2.42,-23.132 -2.42,-23.132c0,0 0.195,0.214 1.037,0.732c0.855,0.526 1.599,-2.535 2.572,-2.551c0.541,-0.008 -1.828,-5.739 -1.811,-13.543c0.015,-6.661 -4.793,-5.978 -11.053,-9.973Z" style="fill:#001b35;"/><path d="M101.685,31.079c-0.02,0.161 -0.035,0.317 -0.045,0.467c-0.017,0.273 -0.271,-2.826 -0.641,-2.649c-0.711,0.34 -0.586,2.61 -0.586,2.61c-1.689,0.786 -3.306,0.043 -4.837,0.511c-0.227,0.069 -0.831,-1.388 -1.051,-1.326c-0.206,0.059 -0.017,1.167 -0.217,1.22c-1.644,0.438 -3.975,0.711 -3.975,0.711c0,-0 -0.012,4.811 -0.44,6.476c-0.504,1.965 -1.754,1.996 -1.754,1.996c-0,0 -1.03,-7.739 -1.37,-11.65c-0.231,-2.652 0.206,-4.635 0.919,-5.773c0.991,-1.579 2.511,-6.162 6.711,-6.859c6.106,-1.013 11.209,1.765 13.107,8.127c1.149,3.853 1.385,9.164 1.447,12.403l-2.149,2.973l-4.925,2.094l-0.175,-4.273l-0,-4.873l-0.019,-2.185Z" style="fill:#c4a584;"/><path d="M85.426,74.243c-4.256,0.309 -4.145,-5.755 -2.324,-11.749c0.557,-1.835 1.099,-4.006 1.664,-6.115c0.899,-3.359 3.437,-9.991 3.437,-9.991l4.327,0.544c-0,-0 -1.032,8.433 -2.281,14.284c-1.249,5.85 -2.118,12.831 -4.823,13.027Z" style="fill:#ffe9d3;"/><path d="M92.162,47.575c0.691,-0.342 1.195,-0.271 1.593,-1.095c0.049,-0.1 0.422,-0.977 0.462,-2.153c0.02,-0.567 0.313,-2.405 0.067,-2.943c-0.32,-0.701 -0.991,-0.231 -1.251,0.101c-0.201,0.257 -0.207,1.443 -0.459,2.402c-0.23,0.872 -0.699,-1.986 -0.133,-3.155c0.361,-0.745 0.263,-1.942 -0.015,-2.704c-0.406,-1.114 -0.441,-3.528 -0.831,-3.768c-2.062,-1.271 -3.471,3.845 -4.111,5.601c-1.215,3.334 -0.211,6.924 0.693,8.054c0.651,0.812 3.414,3.571 3.414,3.571c-0,-0 -0.11,-3.573 0.571,-3.911Z" style="fill:#ffe9d3;"/><path d="M113.009,67.107c-1.777,0.952 -3.569,0.261 -3.569,0.261c-0,0 -6.773,15.799 -5.788,17.357c0.333,0.528 3.58,1.321 4.487,1.437c4.393,0.563 8.837,-16.688 8.837,-16.688c0,0 -1.767,-3.546 -3.967,-2.367Z" style="fill:#ffe9d3;"/><path d="M108.184,86.494c5.471,-2.424 0.912,-4.821 -5.118,-7.657c-3.311,-1.557 -7.619,-3.147 -10.99,-4.54c-2.578,-1.065 -5.272,-3.725 -6.676,-2.988c-3.238,1.701 3.373,6.459 8.604,9.555c5.231,3.095 10.702,7.171 14.18,5.63Z" style="fill:#ffe9d3;"/><path d="M88.881,73.674c0.578,-0.769 0.813,-0.691 0.807,-1.648c-0.001,-0.116 -0.122,-1.366 -0.716,-2.359c-0.286,-0.478 -0.461,-1.842 -1.026,-2.109c-0.734,-0.348 -1.685,1.026 -1.781,1.008c-0.205,-0.036 0.306,0.682 0.548,1.646c0.219,0.878 0.421,1.718 0.207,1.705c-0.728,-0.043 -2.087,0.539 -2.377,0.29c-1.243,-1.067 -3.089,-3.828 -3.336,-3.55c-0.371,0.418 -0.344,0.664 -0.671,1.348c-1.388,2.903 0.246,5.267 1.86,5.552c1.161,0.206 6.741,1.653 6.741,1.653c-0,-0 -0.827,-2.777 -0.256,-3.536Z" style="fill:#ffdab6;"/><path d="M88.881,74.465c0.578,-0.769 1.174,-1.067 1.168,-2.024c-0.001,-0.117 -0.065,-1.098 -0.659,-2.092c-0.286,-0.478 -0.959,-2.192 -1.523,-2.459c-0.735,-0.347 -1.358,0.823 -1.455,0.806c-0.205,-0.037 0.68,1.491 0.921,2.455c0.22,0.877 -0.199,1.199 -0.413,1.186c-0.728,-0.044 -2.02,0.262 -2.377,0.125c-0.765,-0.295 -3.344,-3.8 -3.344,-3.8c-0,-0 -1.24,1.655 -1.637,2.456c-0.696,1.407 1.926,5.069 2.834,5.23c1.161,0.206 7.975,1.726 7.975,1.726c0,0 -2.061,-2.85 -1.49,-3.609Z" style="fill:#ffe9d3;"/></svg>