<?xml version="1.0" encoding="UTF-8" standalone="no"?><!DOCTYPE svg PUBLIC "-//W3C//DTD SVG 1.1//EN" "http://www.w3.org/Graphics/SVG/1.1/DTD/svg11.dtd"><svg width="100%" height="100%" viewBox="0 0 200 200" version="1.1" xmlns="http://www.w3.org/2000/svg" xmlns:xlink="http://www.w3.org/1999/xlink" xml:space="preserve" xmlns:serif="http://www.serif.com/" style="fill-rule:evenodd;clip-rule:evenodd;stroke-linejoin:round;stroke-miterlimit:2;"><path d="M104.617,26.083l-10.241,-0l0,13.204c-8.163,6.731 -3.941,14.182 3.019,13.185c3.159,-0.452 11.649,-10.51 11.649,-10.51c0,0 -3.113,-1.299 -4.427,-2.675l0,-13.204Z" style="fill:#ffdab6;"/><path d="M104.617,26.083l-10.241,-0l0,13.204c-8.163,6.731 -3.941,14.182 3.019,13.185c3.159,-0.452 11.649,-10.51 11.649,-10.51c0,0 -3.113,-1.299 -4.427,-2.675l0,-13.204Z" style="fill:#ffdab6;"/><path d="M105.169,189.398c-2.146,-0.411 -4.021,-2.174 -4.021,-4.537c0,-0.364 -0.095,-1.963 0,-2.353c0.37,-1.518 11.314,-3.917 11.721,-1.755c0.175,0.931 -0.191,5.15 -1.001,6.209c-1.767,2.31 -4.223,2.91 -6.699,2.436Z" style="fill:#d8d8d8;"/><path d="M75.646,170.371c-0.592,-1.406 -0.102,-2.506 -0.102,-2.506c-0,-0 20.778,-3.212 20.858,-2.691c0.293,1.894 -0.439,3.193 -0.622,3.447c-0.915,1.265 -5.365,1.297 -7.834,1.912c-0.628,0.156 -3.091,1.254 -3.807,1.353c-4.096,0.571 -7.902,-0.108 -8.493,-1.515Z" style="fill:#d8d8d8;"/><path d="M105.169,187.246c-2.477,-0.474 -4.593,-2.75 -3.881,-5.67c0.37,-1.518 0.781,-2.149 1.796,-2.984c0.462,-0.38 0.932,-2.183 1.214,-3.976c0.264,-1.677 0.25,-2.799 0.278,-3.643l6.956,1.232c0.159,0.315 0.933,4.309 0.994,6.509c0.013,0.466 -0.371,4.18 -0.591,4.639c-1.258,2.623 -4.29,4.367 -6.766,3.893Z" style="fill:#FFDAB6;"/><path d="M75.646,168.676c-0.592,-1.407 1.398,-4.699 5.619,-5.666c2.194,-0.503 4.521,-1.149 6.592,-1.92c0.686,-0.255 0.861,-3.444 0.861,-3.444l6.53,0.375c0,0 0.547,3.539 0.823,5.328c0.293,1.894 -0.108,3.322 -0.291,3.576c-0.915,1.266 -5.365,1.297 -7.834,1.912c-0.628,0.156 -3.091,1.254 -3.807,1.354c-4.096,0.57 -7.902,-0.109 -8.493,-1.515Z" style="fill:#FFDAB6;"/><path d="M87.739,41.406c4.46,0.141 3.65,8.386 1.913,15.685c-1.683,7.071 -3.104,18.381 -5.897,17.938c-2.793,-0.443 -1.84,-10.676 -0.699,-17.866c1.14,-7.191 1.849,-15.846 4.683,-15.757Z" style="fill:#ffdab6;"/><path d="M87.529,60.325c4.774,0.522 1.683,7.832 -2.154,14.212c-3.717,6.181 -8.291,16.18 -11.187,15.535c-2.895,-0.645 0.886,-9.722 4.049,-16.058c3.164,-6.335 6.257,-14.021 9.292,-13.689Z" style="fill:#ffdab6;"/><path d="M114.835,50.408c-2.017,-2.576 -23.199,-11.42 -23.199,-11.42c-2.059,1.993 -6.795,15.943 -6.197,18.679c0.689,3.153 0.533,23.474 0.035,27.289c6.13,15.382 23.552,10.172 25.646,7.239c-0.901,-5.527 4.503,-21.588 5.186,-31.629c0.657,-9.664 2.111,-5.581 -1.471,-10.158Z" style="fill:#ffdab6;"/><path d="M114.831,52.596c-5.662,0.902 -4,9.552 -1.231,17.036c2.683,7.252 5.356,19.064 8.876,18.121c3.519,-0.943 1.522,-11.687 -0.479,-19.157c-2.002,-7.469 -3.567,-16.573 -7.166,-16Z" style="fill:#ffdab6;"/><path d="M122.42,83.229c-4.592,-2.316 -5.062,3.384 -5.359,10.639c-0.163,3.984 0.049,8.793 0.071,12.685c0.017,2.975 -1.471,7.405 -0.181,7.901c2.977,1.144 4.906,-8.217 5.782,-15.052c0.875,-6.835 2.606,-14.7 -0.313,-16.173Z" style="fill:#ffdab6;"/><path d="M76.689,89.282c0.313,0.656 0.755,0.896 0.516,1.736c-0.029,0.103 -0.323,0.967 -1.079,1.859c-0.364,0.429 -1.364,1.957 -1.917,2.211c-0.72,0.33 -0.974,-0.675 -1.062,-0.657c-0.186,0.04 0.952,-1.332 1.396,-2.187c0.404,-0.777 0.12,-1.045 -0.069,-1.026c-0.639,0.063 -1.033,-0.079 -1.33,0.172c-1.012,0.854 -0.228,6.327 -1.512,6.19c-2.469,-0.263 -2.773,-3.365 -3.053,-4.789c-0.492,-2.499 3.747,-5.773 5.212,-6.08c1.054,-0.221 5.067,-0.648 5.067,-0.648c0,-0 -2.477,2.573 -2.169,3.219Z" style="fill:#ffdab6;"/><path d="M111.109,87.544c-0.76,-2.495 -8.927,-1.744 -10.147,0.518c-3.257,6.039 -2.267,14.154 -1.261,21.438c0.59,4.268 0.812,9.626 1.394,14.272c0.191,1.533 -0.505,5.468 -0.209,6.781c0.294,1.303 0.884,3.906 1.478,4.475c1.116,1.071 2.614,-1.012 4.194,-0.697c2.137,0.426 3.488,1.249 4.477,-2.478c1.27,-4.791 1.919,-15.028 2.653,-21.345c1.136,-9.778 0.538,-12.736 -2.579,-22.964Z" style="fill:#ffdab6;"/><path d="M108.527,126.297c-3.794,-0.32 -6.823,1.749 -6.69,6.981c0.107,4.209 0.506,11.689 1.399,19.137c0.985,8.218 1.472,22.235 1.472,22.235c0.044,0.632 2.248,3.541 4.416,3.657c1.691,0.091 2.468,-1.443 2.452,-1.999c0,-0 -0.213,-7.785 -0.02,-10.379c0.174,-2.341 0.411,-10.448 0.523,-17.034c0.172,-10.148 0.632,-22.244 -3.552,-22.598Z" style="fill:#ffdab6;"/><path d="M92.033,76.778c-2.492,0.311 -1.976,-2.455 -3.188,-0.498c-3.236,5.225 -4.864,18.988 -4,25.438c0.506,3.78 0.642,8.51 1.134,12.622c0.163,1.357 -0.568,4.805 -0.301,5.971c0.264,1.157 0.796,3.47 1.361,3.989c1.062,0.977 2.54,-0.814 4.061,-0.489c2.059,0.44 3.352,1.206 4.362,-2.049c1.298,-4.186 2.077,-13.189 2.88,-18.735c1.242,-8.585 8.335,-28.073 -6.309,-26.249Z" style="fill:#ffdab6;"/><path d="M93.122,116.789c-3.661,-0.396 -6.617,1.337 -6.566,5.952c0.04,3.714 0.315,10.319 1.067,16.911c0.83,7.274 1.093,19.644 1.093,19.644c0.033,0.557 2.119,3.188 4.212,3.356c1.632,0.131 2.405,-1.198 2.398,-1.689c0,-0 -0.09,-6.869 0.134,-9.149c0.203,-2.058 0.552,-9.197 0.758,-14.999c0.317,-8.94 0.94,-19.589 -3.096,-20.026Z" style="fill:#ffdab6;"/><path d="M95.285,14.336c7.606,-1.468 11.362,5.522 9.887,11.785c-0.746,3.166 -1.037,6.374 -3.504,8.72c-1.626,1.547 -5.104,2.869 -6.99,3.044c-3.545,0.331 -5.624,-4.503 -6.7,-10.267c-0.997,-5.346 2.628,-12.379 7.307,-13.282Z" style="fill:#ffdab6;"/><path d="M94.032,14.099c1.575,-0.304 2.173,-0.654 4.315,-0.021c2.889,0.853 7.299,3.067 8.553,5.575c0.228,0.456 1.087,1.597 1.109,2.603c0.033,1.518 -0.771,3.024 -0.041,3.768c1.248,1.271 -1.336,2.399 -1.69,3.681c-0.865,3.135 -2.413,2.63 -4.303,2.525c-0.341,-0.019 -0.573,0.64 -1.142,-0.469c-0.352,-0.685 -0.127,-2.025 -0.11,-4.263c0.006,-0.683 0.219,-1.827 -1.847,-2.712c-1.959,-0.839 -7.392,-3.34 -7.618,-3.389c-3.141,-0.672 -2.454,2.869 -3.446,1.373c-0.783,-1.182 -1.056,-6.232 -0.468,-7.157c0.498,-0.782 1.445,-0.266 2.525,-0.384c1.846,-0.202 2.859,-0.879 4.163,-1.13Z" style="fill:#b26f27;"/><path d="M98.91,36.664c-1.617,0.82 -3.015,1.108 -4.232,1.221c-1.305,0.122 -2.412,-0.457 -3.343,-1.524l-1.448,-2.256l-1.034,-2.674c-0,-0 2.12,-1.099 4.359,-0.358c5.831,1.929 6.821,4.943 6.821,4.943l-1.123,0.648Zm-6.631,-4.088c0.981,0.299 3.085,1.833 3.455,2.4c0.699,1.067 -0.579,1.275 -1.42,1.258c0,0 0.134,-0.759 -0.353,-1.023c-0.43,-0.234 -1.735,-0.755 -1.863,-0.755c-0.394,-0 -0.511,0.97 -0.511,0.97c-0.266,0.047 -1.291,-1.671 -1.09,-2.111c0.303,-0.66 0.936,-0.997 1.782,-0.739Z" style="fill:#b26f27;"/><path d="M104.111,28.785c1.065,0.277 1.314,1.646 0.948,3.056c-0.367,1.409 -1.61,2.317 -2.574,1.787c-0.451,-0.248 -0.781,-1.546 -0.198,-3.571c0.2,-0.696 0.759,-1.548 1.824,-1.272Z" style="fill:#ffdab6;"/><path d="M105.169,187.246c-2.477,-0.474 -4.593,-2.75 -3.881,-5.67c0.37,-1.518 0.415,-1.846 1.256,-2.856c0.436,-0.523 1.041,-1.392 1.323,-3.185c0.164,-1.047 -0.077,-2.554 -0.113,-3.06c-0.021,-0.304 0.342,-0.514 0.851,-0.83c0.394,4.58 6.145,2.964 6.914,0.095c0.054,-0.199 0.816,0.802 1.063,1.29c0.159,0.314 -0.12,3.409 0.287,5.572c0.175,0.931 -0.191,5.149 -1.001,6.208c-1.767,2.31 -4.223,2.91 -6.699,2.436Z" style="fill:#001b35;"/><path d="M75.646,168.676c-0.592,-1.407 1.398,-4.699 5.619,-5.666c2.194,-0.503 2.847,-0.667 4.918,-1.438c0.26,-0.097 0.612,-1.01 0.976,-1.304c0.35,-0.283 0.742,-0.569 1.005,-0.632c0.183,-0.045 0.315,0.02 0.315,0.02c-0.05,0.081 -0.034,0.188 -0.053,0.268c-0.372,1.551 4.57,2.757 7.134,0.067c-0,0 0.674,0.082 0.842,1.101c0.069,0.42 -0.08,1.865 0,2.386c0.293,1.895 -0.439,3.193 -0.622,3.447c-0.915,1.266 -5.365,1.297 -7.834,1.912c-0.628,0.156 -3.091,1.254 -3.807,1.354c-4.096,0.57 -7.902,-0.109 -8.493,-1.515Z" style="fill:#001b35;"/><path d="M98.731,90.1l15.204,3.855c-0,0 1.127,5.338 1.026,11.027c-0.227,12.789 -3.534,61.816 -3.534,61.816c-4.13,2.728 -2.499,6.178 -7.36,0.568c0.471,-9.227 -4.845,-32.903 -6.408,-53.394c-0.131,-1.717 -0.197,12.717 0.045,15.867c0.02,0.258 -1.985,24.545 -1.985,24.545c0.287,1.667 -1.39,1.213 -2.837,1.819c-1.054,0.441 -1.697,2.316 -2.789,1.705c-2.303,-1.286 -2.256,-3.28 -2.256,-3.28c0,0 -2.535,-35.904 -3.222,-37.935c-3.253,-9.625 0.796,-31.238 0.89,-32.123c0.051,-0.482 13.167,6.179 13.226,5.53Z" style="fill:#46596d;"/><path d="M117.68,109.638c-0.849,-0.321 -1.196,-0.831 -2.217,-0.48c-0.125,0.043 -1.17,0.462 -2.201,1.434c-0.497,0.468 -2.294,1.781 -2.552,2.462c-0.335,0.885 0.944,1.109 0.931,1.214c-0.03,0.226 1.558,-1.239 2.576,-1.836c0.926,-0.543 1.289,-0.226 1.286,0.001c-0.012,0.768 0.207,1.227 -0.073,1.601c-0.957,1.275 -5.225,1.199 -4.919,2.722c0.589,2.925 1.852,2.614 3.656,2.837c2.539,0.314 4.615,-1.26 5.454,-2.81c0.206,-0.382 0.338,-0.763 0.383,-1.113c0.163,-1.275 1.457,-8.873 1.457,-8.873c-0,-0 -2.943,3.158 -3.781,2.841Z" style="fill:#ffdab6;"/><path d="M117.728,49.017c-2.819,-4.666 -10.961,-8.113 -10.961,-8.113c1.174,0.883 -2.877,9.13 -11.55,6.912c-7.731,-1.977 2.326,-10.414 0.928,-10.184c-1.05,0.172 -5.745,-0.695 -7.073,0.023c-2.939,1.588 -7.27,9.586 -7.385,12.568c-0.039,1.022 2.998,3.283 2.995,4.336c-0.022,6.872 0.226,16.926 0.623,23.348c0.354,5.721 -2.137,4.558 -0.207,7.565c1.549,2.411 3.296,7.261 7.784,9.099c5.631,2.306 19.089,2.887 22.085,0.958c1.317,-0.847 -1.62,-10.422 -1.26,-15.337c0.222,-3.039 1.186,-6.724 1.186,-6.724l-1.186,-6.141c-0,0 0.942,0.855 3.453,0.73c2.86,-0.143 7.244,-1.267 7.244,-1.267c-1.848,0.12 -5.335,-15.554 -6.676,-17.773Z" style="fill:#21c4bd;"/></svg>
