<?xml version="1.0" encoding="UTF-8" standalone="no"?><!DOCTYPE svg PUBLIC "-//W3C//DTD SVG 1.1//EN" "http://www.w3.org/Graphics/SVG/1.1/DTD/svg11.dtd"><svg width="100%" height="100%" viewBox="0 0 200 200" version="1.1" xmlns="http://www.w3.org/2000/svg" xmlns:xlink="http://www.w3.org/1999/xlink" xml:space="preserve" xmlns:serif="http://www.serif.com/" style="fill-rule:evenodd;clip-rule:evenodd;stroke-linejoin:round;stroke-miterlimit:2;"><path d="M92.976,166.318c2.58,1.047 2.013,3.742 -1.704,7.221c-1.443,1.351 -2.987,1.849 -4.91,2.861c-3.027,1.594 -6.69,8.578 -11.812,6.081c-0.713,-0.348 -1.611,-1.671 -1.611,-1.671l-0,-3.134c-0,0 5.524,-1.871 6.303,-2.863c0.475,-0.605 1.674,-3.482 2.323,-4.089c3.717,-3.479 8.83,-5.453 11.411,-4.406Z" style="fill:#d8d8d8;"/><path d="M92.717,164.099c1.949,2.147 2.013,3.742 -1.703,7.221c-1.444,1.352 -2.988,1.849 -4.911,2.862c-3.027,1.594 -6.757,8.137 -10.969,6.366c-1.025,-0.43 -1.996,-1.044 -2.068,-1.605c-0.286,-2.203 -0,-5.689 -0,-5.689c2.12,-2.723 5.553,-2.719 8.061,-6.6c-0,-0 0.846,-0.961 4.002,-2.608c2.784,-1.452 6.672,-0.956 7.588,0.053Z" style="fill:#001b35;"/><path d="M77.97,94.363c1.147,-9.244 11.124,-13.506 18.845,-10.811c3.291,1.149 6.823,1.464 10.415,2.656c1.185,0.394 5.094,0.884 6.089,1.348c0.987,0.461 2.958,1.384 3.317,2.035c0.674,1.222 -1.211,2.386 -1.208,3.954c0.004,2.121 0.446,3.537 -2.663,3.985c-3.997,0.575 -21.237,3.207 -26.359,3.057c-7.929,-0.232 -9.164,-0.348 -8.436,-6.224Z" style="fill:#ffdab6;"/><path d="M109.578,88.292c4.27,-0.579 7.814,0.824 7.968,5.032c0.124,3.386 0.107,9.421 -0.469,15.472c-0.637,6.676 -0.373,17.962 -0.373,17.962c-0.013,0.51 -2.335,3.031 -4.78,3.308c-1.906,0.217 -2.873,-0.948 -2.887,-1.396c-0,0 -0.212,-6.263 -0.581,-8.328c-0.332,-1.863 -1.071,-8.347 -1.581,-13.62c-0.784,-8.127 -2.007,-17.792 2.703,-18.43Z" style="fill:#ffdab6;"/><path d="M73.201,87.864c11.199,-2.746 12.554,6.49 11.205,15.327c-0.576,3.766 -0.688,8.367 -1.243,12.452c-0.183,1.348 0.747,4.511 0.435,5.698c-0.309,1.179 -0.932,3.535 -1.615,4.166c-1.285,1.187 -3.108,-0.204 -4.961,0.458c-2.506,0.897 -4.075,1.933 -5.344,-0.98c-1.631,-3.746 -2.683,-12.264 -3.724,-17.438c-1.612,-8.007 -1.872,-17.938 5.247,-19.683Z" style="fill:#ffdab6;"/><path d="M75.516,120.624c4.045,-1.067 7.492,0.122 7.839,4.741c0.28,3.716 0.551,10.363 0.289,17.085c-0.288,7.416 -1.853,27.912 -1.853,27.912c0.013,0.563 -0.131,2.772 -2.449,3.324c-1.808,0.43 -4.713,0.196 -4.747,-0.295c-0,0 0.424,-14.558 -0.026,-16.794c-0.406,-2.018 -0.016,-9.649 -0.753,-15.405c-1.135,-8.871 -2.761,-19.392 1.7,-20.568Z" style="fill:#ffdab6;"/><path d="M128.899,125.9l-0,2.216c-0,-0 -0.45,1.539 -0.937,2.064c-1.427,1.538 -4.066,3.437 -5.381,3.827c-1.371,0.406 -2.673,0.268 -4.361,0.334c-2.659,0.104 -6.045,2.93 -9.173,0.703c-0.698,-0.497 -0.712,-1.045 -0.719,-1.671c-0.011,-0.919 -0.064,-2.145 -0.064,-2.145c0,0 6.551,-1.488 7.168,-1.671c3.529,-1.045 13.467,-3.657 13.467,-3.657Z" style="fill:#d8d8d8;"/><path d="M127.758,123.219c1.236,1.018 1.172,2.371 1.117,3.228c-0.07,1.101 -3.498,4.448 -5.962,5.454c-1.308,0.533 -4.262,0.426 -5.895,0.637c-2.571,0.332 -4.926,2.479 -7.954,0.41c-0.737,-0.504 -0.82,-1.204 -0.799,-1.576c0.081,-1.463 -0.001,-4.348 -0.001,-4.348c0.232,-0.715 0.542,-1.149 0.67,-0.963c0.132,0.192 -0.044,1.955 0.11,2.098c1.912,1.784 5.371,-0.079 7.514,-1.719l0.054,-1.945c0,0 0.845,-0.591 1.319,-0.908c4.107,-2.753 8.653,-1.335 9.827,-0.368Z" style="fill:#001b35;"/><path d="M97.706,49.26c-1.947,1.525 -4.866,2.512 -7.303,3.058c-4.393,0.984 -10.795,6.715 -11.659,2.651c-1.363,-6.408 -1.876,-11.599 2.748,-12.045c1.732,-0.167 4.26,-0.719 5.971,-0.608c2.343,0.153 5.215,-0.634 7.622,-0.604c1.113,-1.609 3.03,-2.785 4.992,-3.587c3.833,-1.568 9.195,-5.519 10.705,-2.128c1.509,3.39 -3.142,7.342 -6.694,9.585c-2.204,1.391 -4.532,3.248 -6.382,3.678Z" style="fill:#ffdab6;"/><path d="M104.96,57.754c0.526,-1.789 -0.154,-4.626 -1.489,-6.406c-2.274,-3.033 -6.042,-4.635 -6.042,-4.635c-0,-0 -2.664,-1.809 -4.334,-2.502c-2.688,-1.116 -5.129,-2.961 -5.129,-2.961c0,-0 -6.04,-1.511 -8.307,3.109c-4.715,9.607 -3.986,15.247 -4.314,21.822c-0.702,14.054 -6.833,16.503 -7.513,27.484c-0.607,9.815 22.622,10.811 26.423,7.387c2.495,-2.248 -1.046,-16.065 -0.351,-17.883c2.288,-5.985 5.919,-7.931 11.056,-25.415Z" style="fill:#ffe9d3;"/><path d="M84.86,126.137c-2.982,0.485 -8.633,6.938 -12.77,3.283c-3.087,-2.727 -6.076,-5.797 -6.076,-5.797c0,-0 0.175,-16.401 0.591,-24.493c0.25,-4.87 -0.478,-6.901 1.711,-8.795c-0,0 6.191,7.32 14.024,3.289c2.287,-1.177 8.212,0.092 11.096,-2.85c3.486,-3.559 0.676,-7.316 1.983,-7.28c6.582,0.181 14.541,0.872 18.35,1.753c1.215,0.281 4.503,3.535 4.503,3.535c-0,0 0.316,4.526 -4.272,5.601c-2.735,0.64 -3.449,0.053 -5.573,6.484c-1.081,3.272 -22.418,8.467 -22.418,8.467c0,-0 -0.259,3.547 -0.234,4.575c0.248,10.182 0.862,11.939 -0.915,12.228Z" style="fill:#c4a584;"/><path d="M85.316,110.921c-7.025,1.306 -12.934,0.501 -14.539,-8.446l2.518,15.387l4.851,6.136l-2.857,6.249l10.252,-4.715l-0.225,-14.611Z" style="fill:#343434;fill-opacity:0.16;"/><path d="M104.96,57.754c0.526,-1.789 -0.154,-4.626 -1.489,-6.406c-2.274,-3.033 -6.042,-4.635 -6.042,-4.635c-0,-0 -0.943,-0.64 -2.058,-1.304c-0.76,-0.453 -1.6,-0.917 -2.276,-1.198c-2.688,-1.116 -5.129,-2.961 -5.129,-2.961c0,-0 -6.04,-1.511 -8.307,3.109c-4.715,9.607 -6.998,15.124 -7.326,21.698c-0.702,14.055 -4.804,14.428 -5.484,25.409c-0.607,9.814 20.724,12.665 24.524,9.24c1.703,-1.534 10.349,-3.452 7.424,-13.13c-0.685,-2.266 -1.568,-3.73 -1.568,-3.73c0,-0 1.535,-0.6 2.295,-3.148c1.222,-4.094 2.269,-12.165 5.436,-22.944Z" style="fill:#d8d8d8;"/><path d="M107.988,82.635c-2.902,-0.855 -6.611,-13.017 -8.894,-14.736c-4.114,-3.099 -4.695,-11.48 -1.165,-14.432c1.391,-1.164 3.624,-2.174 4.654,-1.928c2.91,0.698 3.378,2.595 4.711,7.585c0.654,2.448 4.05,12.307 5.74,14.276c2.39,0.137 12.851,-1.85 16.949,-2.792c5.437,-1.25 8.714,-0.315 6.43,2.527c-2.285,2.842 -5.267,3.504 -13.15,6.085c-4.596,1.505 -8.072,4.403 -15.275,3.415Z" style="fill:#ffdab6;"/><path d="M137.617,66.215l-1.686,2.382l1.945,-0.091l4.643,-2.68l4.504,1.907l-0.861,2.915l-8.188,3.545l-5.874,-0.628l-1.214,-3.464l4.944,-4.195l1.787,0.309Z" style="fill:#ffdab6;"/><path d="M120.071,35.498l-4.197,0.99l0.16,-1.142l4.722,-2.726l-5.208,-2.835l-3.397,0.143l-6.135,5.36l1.107,3.449l6.102,0.713l7.389,-2.903l-0.543,-1.049Z" style="fill:#ffdab6;"/><path d="M96.27,35.47l-10.038,0.9l-0.837,5.437c-1.073,6.82 3.213,7.733 9.588,4.526l0.675,-3.437l0.612,-7.426Z" style="fill:#ffdab6;"/><path d="M96.27,35.47l-10.038,0.9l-0.837,5.437c-1.073,6.82 3.225,7.714 9.6,4.506l0.663,-3.417l0.612,-7.426Z" style="fill:#fff;fill-opacity:0.17;"/><path d="M94.816,41.448c-4.451,0.109 -5.017,0.701 -8.137,-0.738c-1.442,-0.665 -2.013,-1.621 -2.635,-2.682c-2.133,-3.64 -2.698,-7.361 -2.702,-8.983c-0.015,-6.054 4.1,-10.337 10.154,-10.337c4,-0 7.474,1.931 8.896,5.596c0.17,0.439 0.287,0.879 0.368,1.323c0.004,-0.008 0.58,1.8 0.58,1.8c1.299,5.188 0.21,8.457 -0.907,10.15c-0.49,0.742 -0.6,1.613 -0.949,2.011c-0.981,1.119 -4.03,1.844 -4.668,1.86Z" style="fill:#ffdab6;"/><path d="M94.816,41.448c-4.451,0.109 -5.017,0.701 -8.137,-0.738c-1.442,-0.665 -2.013,-1.621 -2.635,-2.682c-2.133,-3.64 -2.698,-7.361 -2.702,-8.983c-0.015,-6.054 4.1,-10.337 10.154,-10.337c4,-0 7.474,1.931 8.896,5.596c0.17,0.439 0.287,0.879 0.368,1.323c0.004,-0.008 0.58,1.8 0.58,1.8c1.299,5.188 0.21,8.457 -0.907,10.15c-0.49,0.742 -0.6,1.613 -0.949,2.011c-0.981,1.119 -4.03,1.844 -4.668,1.86Z" style="fill:#fff;fill-opacity:0.17;"/><path d="M91.465,16.985c1.704,0 5.623,0.694 7.385,1.895c1.322,0.902 1.308,-0.316 1.84,-0.15c0.333,0.104 -0.564,1.31 0.227,1.66c1.5,0.663 1.881,0.079 2.107,0.702c0.164,0.449 -0.825,1.339 -1.045,2.058c-0.274,0.895 1.234,2.219 1.015,2.814c-0.469,1.268 -1.668,1.225 -1.816,1.79c-0.013,0.051 -0.112,1.615 -0.904,1.454c-0.379,-0.076 -1.038,-0.539 -1.062,-0.319c-0.167,1.564 -0.362,3.75 -0.362,3.75c-0,0 -0.34,-0.427 -0.841,-0.485c-0.761,-0.088 -1.494,0.362 -1.993,1.677c-0.189,0.497 -0.285,1.331 -0,3.297c0.123,0.851 0.888,2.41 0.888,2.41c-1.258,0.705 -2.831,-1.454 -3.056,-0.013c-0.255,1.633 -2.197,3.065 -2.197,3.065c0,-0 0.069,-1.33 -0.562,-1.292c-0.709,0.042 -1.741,1.357 -2.178,1.567c-0.454,0.218 -2.197,-2.959 -2.432,-2.594c-0.512,0.796 -1.369,0.918 -1.802,0.899c1.125,-1.881 -1.795,-4.099 -2.695,-5.87c-0.06,-0.119 -0.062,0.233 -0.268,0.578c-0.205,0.343 -0.78,0.404 -0.832,0.29c-0.078,-0.167 0.239,-0.582 0.28,-1.073c0.068,-0.792 -0.097,-1.752 -0.163,-1.968c-0.696,-2.293 -0.726,-4.778 -0.28,-6.505c0.184,-0.71 -1.103,-1.409 -1.087,-2.147c0.006,-0.247 0.235,-0.494 0.532,-0.757c0.401,-0.356 0.925,-0.74 1.178,-1.187c0.116,-0.204 -0.185,-1.896 0,-2.093c0.287,-0.305 1.36,0.293 1.845,0.013c2.093,-1.208 5.112,-3.466 8.278,-3.466Z" style="fill:#c4a584;"/><path d="M98.05,31.855c0.524,-0.092 0.921,0.304 0.963,0.94c0.038,0.584 -0.267,1.373 -0.134,2.125c0.276,1.571 0.34,3.562 -0.664,3.739c-1.003,0.176 -2.274,-0.169 -2.387,-1.76c-0.31,-4.351 1.219,-4.867 2.222,-5.044Z" style="fill:#ffdab6;"/></svg>