<?xml version="1.0" encoding="UTF-8" standalone="no"?><!DOCTYPE svg PUBLIC "-//W3C//DTD SVG 1.1//EN" "http://www.w3.org/Graphics/SVG/1.1/DTD/svg11.dtd"><svg width="100%" height="100%" viewBox="0 0 200 200" version="1.1" xmlns="http://www.w3.org/2000/svg" xmlns:xlink="http://www.w3.org/1999/xlink" xml:space="preserve" xmlns:serif="http://www.serif.com/" style="fill-rule:evenodd;clip-rule:evenodd;stroke-linejoin:round;stroke-miterlimit:2;"><path d="M92.355,49.655c-6.243,0.47 -5.737,8.085 -3.863,14.749c1.815,6.456 2.942,16.878 6.88,16.254c3.938,-0.625 3.382,-10.08 2.334,-16.688c-1.048,-6.608 -1.382,-14.613 -5.351,-14.315Z" style="fill:#ffe9d3;"/><path d="M71.71,49.3l14.757,-2.014c2.29,2.181 5.215,-0.524 7.064,4.276c0.287,0.744 -0.652,3.508 0,4.639c2.138,3.705 3.29,8.148 2.625,11.142c-0.767,3.45 -3.808,5.808 -3.808,5.808c-0,0 -2.267,9.684 -2.335,11.762c-0.175,5.344 5.048,7.206 5.603,11.38c1.449,21.055 -21.923,9.655 -29.613,3.709c1.004,-6.048 6.493,-12.416 2.757,-22.777c-3.509,-9.733 -9.303,-18.144 -5.316,-23.153c2.244,-2.819 4.018,-2.199 8.266,-4.772Z" style="fill:#ffe9d3;"/><path d="M79.439,31.997l10.825,2.901l-3.74,13.955c3.747,5.254 3.718,11.696 0.407,12.227c-6.513,1.045 -20.99,-9.188 -11.231,-15.127l3.739,-13.956Z" style="fill:#ffe9d3;"/><path d="M79.439,31.997l10.825,2.901l-3.74,13.955c3.747,5.254 3.718,11.696 0.407,12.227c-6.513,1.045 -20.99,-9.188 -11.231,-15.127l3.739,-13.956Z" style="fill:#ffa347;fill-opacity:0.14;"/><path d="M98.685,35.394l0,0.961l1.339,0.773l0.059,-0.927l-1.398,-0.807Z" style="fill:#001b35;"/><path d="M90.126,75.541c-4.078,3.879 3.162,8.223 10.528,11.201c7.137,2.885 18.411,7.051 18.411,7.051c-0,0 4.402,-2.953 3.332,-3.598c-3.941,-2.375 -10.564,-6.513 -15.492,-9.02c-6.72,-3.419 -14.187,-8.099 -16.779,-5.634Z" style="fill:#ffe9d3;"/><path d="M118.864,93.994c0.422,1.066 0.931,2.884 3.994,3.405c0.912,0.155 3.8,0.522 4.702,0.53c1.173,0.009 0.873,-1.133 0.773,-1.18c-1.488,-0.706 -2.335,-0.542 -3.69,-1.035c-1.327,-0.483 -1.338,-0.848 -1.108,-0.904c0.777,-0.188 1.047,-0.458 1.663,-0.357c1.193,0.197 3.788,1.175 5.76,2.489c1.498,0.998 0.967,4.129 2.572,1.665c1.247,-1.914 -0.35,-3.809 -1.684,-5.133c-2.339,-2.324 1.677,-3.756 -12.044,-4.172c-1.429,-0.044 -6.132,2.237 -6.132,2.237c0,0 4.905,1.727 5.194,2.455Z" style="fill:#ffe9d3;"/><path d="M66.996,96.91c1.21,-2.325 2.512,-1.867 4.666,-1.644c5.753,0.598 14.487,9.002 18.139,13.546c2.14,2.662 5.172,5.604 7.542,8.455c0.782,0.94 3.581,2.435 4.163,3.342c0.577,0.902 1.729,2.704 1.672,3.458c-0.108,1.418 -2.342,1.502 -3.207,2.888c-1.171,1.876 -1.582,3.349 -4.452,2.188c-3.69,-1.492 -10.197,-6.279 -14.435,-8.975c-6.559,-4.173 -21.474,-9.059 -14.088,-23.258Z" style="fill:#ffe9d3;"/><path d="M96.233,119.339c3.869,-0.424 6.996,1.411 6.946,6.305c-0.039,3.937 -0.324,10.94 -1.113,17.93c-0.87,7.712 -1.137,26.547 -1.137,26.547c-0.034,0.591 -2.318,3.098 -4.531,3.278c-1.725,0.14 -2.393,-2.213 -2.386,-2.734c-0,0 0.02,-11.772 -0.22,-14.19c-0.216,-2.182 -0.592,-9.75 -0.815,-15.901c-0.343,-9.478 -1.011,-20.768 3.256,-21.235Z" style="fill:#ffe9d3;"/><path d="M75.362,92.561c0.628,-2.567 2.128,-2.316 4.461,-2.444c6.231,-0.342 17.778,6.77 22.894,10.792c2.997,2.356 7.012,4.85 10.305,7.361c1.086,0.828 4.452,1.887 5.318,2.714c0.86,0.822 2.577,2.467 2.726,3.244c0.281,1.46 -2.05,1.915 -2.576,3.469c-0.711,2.103 -0.735,3.67 -4.083,2.963c-4.305,-0.91 -12.498,-4.707 -17.716,-6.752c-8.076,-3.164 -25.159,-5.673 -21.329,-21.347Z" style="fill:#ffe9d3;"/><path d="M114.442,110.361c3.886,-0.233 6.918,1.753 6.629,6.638c-0.233,3.931 -0.862,10.911 -1.993,17.854c-1.249,7.66 -2.16,20.746 -2.16,20.746c-0.063,0.589 -2.4,3.269 -4.619,3.34c-1.73,0.055 -2.479,-1.392 -2.446,-1.911c0,-0 0.447,-7.269 0.327,-9.696c-0.109,-2.19 -0.112,-9.768 -0.033,-15.922c0.123,-9.483 0.01,-20.792 4.295,-21.049Z" style="fill:#ffe9d3;"/><path d="M100.357,186.86c2.228,-0.427 4.175,-2.258 4.175,-4.711c-0,-0.379 0.099,-2.039 -0,-2.444c-0.384,-1.576 -11.748,-4.068 -12.171,-1.822c-0.183,0.967 0.198,5.348 1.039,6.447c1.835,2.399 4.385,3.022 6.957,2.53Z" style="fill:#fafafa;"/><path d="M130.466,169.388c0.613,-1.601 0.106,-2.854 0.106,-2.854c-0,0 -21.553,-3.657 -21.637,-3.063c-0.303,2.157 0.455,3.635 0.646,3.925c0.948,1.44 5.565,1.476 8.126,2.176c0.651,0.178 3.206,1.428 3.949,1.541c4.249,0.65 8.196,-0.123 8.81,-1.725Z" style="fill:#fafafa;"/><path d="M100.357,184.625c2.571,-0.492 4.769,-2.855 4.03,-5.888c-0.385,-1.576 -0.811,-2.231 -1.866,-3.098c-0.479,-0.395 -0.967,-2.267 -1.26,-4.129c-0.274,-1.741 -0.26,-2.907 -0.288,-3.783l-7.224,1.28c-0.166,0.326 -0.969,4.474 -1.033,6.759c-0.013,0.483 0.386,4.34 0.614,4.816c1.307,2.724 4.455,4.536 7.027,4.043Z" style="fill:#ffe9d3;"/><path d="M130.466,167.457c0.613,-1.601 -1.45,-5.349 -5.829,-6.45c-2.276,-0.572 -4.69,-1.308 -6.838,-2.186c-0.712,-0.291 -0.893,-3.921 -0.893,-3.921l-6.774,0.427c-0,0 -0.567,4.029 -0.854,6.066c-0.303,2.157 0.112,3.783 0.303,4.072c0.948,1.44 5.565,1.476 8.126,2.176c0.651,0.178 3.206,1.428 3.949,1.541c4.249,0.65 8.196,-0.123 8.81,-1.725Z" style="fill:#ffe9d3;"/><path d="M100.357,184.625c2.571,-0.492 4.769,-2.855 4.03,-5.888c-0.385,-1.576 -0.431,-1.916 -1.305,-2.965c-0.453,-0.543 -1.08,-1.446 -1.373,-3.307c-0.171,-1.089 0.111,-2.651 0.117,-3.179c0.008,-0.775 -0.842,-1.131 -0.842,-1.131l0.009,0.312c-0,0 -0.018,0.18 -0.03,0.266c-0.497,3.612 -4.478,3.12 -6.33,1.242c-0.255,-0.259 -0.633,-0.851 -0.633,-0.851l-0.004,-1.083c0,0 -0.356,0.208 -0.825,0.611c-0.348,0.298 -0.405,0.648 -0.512,1.211c-0.069,0.359 0.125,3.54 -0.298,5.786c-0.183,0.967 0.198,5.347 1.039,6.446c1.835,2.4 4.385,3.023 6.957,2.53Z" style="fill:#001b35;"/><path d="M130.466,167.457c0.613,-1.601 -1.45,-5.349 -5.829,-6.45c-2.276,-0.572 -2.954,-0.759 -5.102,-1.637c-0.27,-0.11 -0.634,-1.15 -1.012,-1.484c-0.363,-0.323 -0.77,-0.649 -1.042,-0.721c-0.191,-0.05 -0.327,0.023 -0.327,0.023c0.051,0.093 0.035,0.215 0.055,0.306c0.348,1.59 -3.803,2.992 -6.562,0.935c-0.303,-0.226 -0.629,-0.711 -0.8,-1.193c-0.153,-0.192 -0.872,0.258 -0.912,1.588c-0.014,0.479 0.084,2.123 0,2.716c-0.061,0.435 -0.07,2.837 -0.07,2.837c-0,0 0.096,0.26 0.157,0.399c0.178,0.408 0.466,0.589 0.57,0.746c0.948,1.441 5.554,1.419 8.115,2.119c0.651,0.178 3.206,1.428 3.949,1.541c4.249,0.65 8.196,-0.123 8.81,-1.725Z" style="fill:#001b35;"/><path d="M64.991,102.874c0.467,-1.548 0.455,-4.912 1.873,-6.665c1.897,-2.344 4.786,-5.324 7.947,-5.827c6.677,-1.064 17.737,2.115 18.854,2.961c0.795,0.603 26.437,15.61 27.425,19.303c1.221,4.566 -5.672,5.557 -11.315,7.059c-1.219,0.325 -8.306,-3.715 -8.306,-3.715c0,-0 1.275,1.703 2.506,3.476c0.819,1.179 -0.143,3.869 -0.023,4.09c2.573,4.761 -11.307,2.579 -11.584,3.973c-0.678,3.414 -10.188,-7.704 -14.043,-8.107c-5.072,-0.531 -15.205,-10.34 -13.334,-16.548Z" style="fill:#46596d;"/><path d="M92.819,21.805c-8.475,-2.811 -13.851,3.459 -13.131,9.939c0.364,3.276 0.202,6.513 2.66,9.28c1.622,1.825 5.397,3.757 7.527,4.267c4.005,0.959 7.13,-3.469 9.251,-9c1.966,-5.129 -1.094,-12.756 -6.307,-14.486Z" style="fill:#ffe9d3;"/><path d="M106.248,23.984c-0.905,-0.403 0.503,-3.749 -1.714,-5.911c-1.216,-1.186 -6.785,-0.27 -6.785,-0.27c-0,0 0.527,-6.515 -2.998,-4.395c-1.66,0.999 -4.904,0.999 -7.455,1.296c-5.914,0.69 -4.336,4.536 -4.336,4.536c-0,0 -4.165,-2.232 -6.222,0.881c-1.528,2.313 0.554,6.608 0.038,7.107c-4.837,4.675 1.068,5.227 -0.209,5.99c-2.063,1.231 0.909,3.666 0.984,4.235c0.083,0.627 2.454,1.623 5.719,-0.218c0.261,-0.148 -1.527,-2.408 -1.527,-2.605c0.003,-0.577 0.637,-0.851 1.279,-1.045c1.015,-0.306 1.29,-0.09 2.035,2.086c0.149,0.437 2.381,-0.982 3.908,-2.334c1.136,-1.005 2.229,-3.021 3.019,-2.658c0.884,0.406 3.807,2.724 5.121,1.591c0.966,-0.833 1.621,4.445 2.392,3.915c0.824,-0.567 2.631,-0.738 3.567,-2.083c0.838,-1.205 0.823,-3.544 1.305,-4.818c0.727,-1.92 3.166,-4.726 1.879,-5.3Z" style="fill:#b26f27;"/><path d="M96.121,37.936c-0.012,0.943 0.695,1.419 1.733,1.078c1.184,-0.39 2.352,-1.697 2.606,-2.917c0.255,-1.22 -0.499,-1.895 -1.684,-1.505c-1.037,0.341 -2.062,1.387 -2.471,2.461l-1.552,0.511c0.012,-0.944 -0.696,-1.419 -1.734,-1.078c-1.184,0.39 -2.352,1.697 -2.606,2.917c-0.255,1.22 0.5,1.894 1.684,1.505c1.037,-0.342 2.062,-1.387 2.472,-2.462l1.552,-0.51Zm-3.208,-0.747c-0.8,0.263 -1.589,1.146 -1.762,1.971c-0.172,0.824 0.338,1.28 1.138,1.017c0.8,-0.264 1.59,-1.147 1.762,-1.971c0.172,-0.825 -0.338,-1.28 -1.138,-1.017Zm5.754,-1.893c-0.8,0.263 -1.589,1.146 -1.761,1.97c-0.172,0.825 0.337,1.281 1.137,1.017c0.801,-0.263 1.59,-1.146 1.762,-1.97c0.172,-0.825 -0.338,-1.281 -1.138,-1.017Z" style="fill:#001b35;"/><path d="M95.803,37.538c-0.012,0.944 0.696,1.419 1.734,1.078c1.184,-0.39 2.352,-1.697 2.606,-2.917c0.255,-1.22 -0.5,-1.894 -1.684,-1.505c-1.037,0.342 -2.062,1.387 -2.472,2.462l-1.551,0.51c0.011,-0.943 -0.696,-1.419 -1.734,-1.077c-1.184,0.389 -2.352,1.696 -2.606,2.916c-0.255,1.22 0.5,1.895 1.684,1.505c1.037,-0.341 2.062,-1.387 2.471,-2.461l1.552,-0.511Zm-3.207,-0.747c-0.8,0.264 -1.59,1.147 -1.762,1.971c-0.172,0.825 0.338,1.28 1.138,1.017c0.8,-0.263 1.589,-1.146 1.761,-1.971c0.172,-0.824 -0.337,-1.28 -1.137,-1.017Zm5.754,-1.893c-0.8,0.263 -1.59,1.146 -1.762,1.971c-0.172,0.824 0.338,1.28 1.138,1.017c0.8,-0.263 1.59,-1.147 1.762,-1.971c0.172,-0.824 -0.338,-1.28 -1.138,-1.017Z" style="fill:#001b35;"/><path d="M73.915,48.483c2.417,5.452 6.808,9.383 12.455,12.348c1.797,-3.781 2.019,-7.435 0.701,-13.53c2.204,-0.065 4.997,1.499 7.296,3.105c0.304,2.187 1.084,3.309 0.543,5.34c1.779,3.332 -0.473,33.2 1.211,39.01c-8.857,5.965 -18.513,6.68 -27.371,2.343c3.894,-6.767 2.871,-18.342 0.678,-23.697c1.545,-4.517 1.795,-9.207 0.572,-14.094c-1.688,-2.572 -3.67,-4.383 -6.101,-5.042c2.012,-2.294 4.188,-4.543 10.016,-5.783Z" style="fill:#fafafa;"/><path d="M60.85,55.741c1.532,-2.273 6.76,-6.673 13.664,-8.852c5.044,6.092 7.008,13.938 6.031,23.458c0,-0 0.803,15.308 1.386,20.921c0.454,4.367 6.658,13.268 6.658,13.268c-1.325,0.511 -3.744,2.259 -7.771,-0.47c-2.129,-1.442 -5.024,2.839 -8.867,2.805c-5.233,-0.046 -5.599,-4.784 -8.052,-4.937c0,-0 1.252,-12.272 4.536,-18.458c1.861,-3.508 1.4,-12.157 1.4,-12.157c-3.972,0.997 -8.436,3.026 -12.306,-1.764c0.488,-3.111 -0.323,-7.232 3.321,-13.814Z" style="fill:#001b35;"/><path d="M65.232,52.606c6.241,-0.633 6.933,8.727 6.127,17.192c-0.292,3.06 -0.13,7.706 0.059,11.482c0.397,7.956 1.726,15.515 -2.26,13.039c-1.171,-0.727 -3.097,-0.983 -4.161,-3.673c-2.003,-5.06 -2.807,-14.219 -2.807,-19.598c0,-8.239 -0.924,-18.039 3.042,-18.442Z" style="fill:#ffe9d3;"/><path d="M96.847,50.829c-3.656,-4.696 -6.595,-5.062 -9.534,-5.159l-0.552,2.445c0,-0 2.839,3.366 3.503,7.867c0.54,3.658 1.918,12.406 1.918,12.406c0,-0 0.922,10.268 1.058,15.38c0.136,5.092 -0.242,15.288 -0.242,15.288c2.508,-1.933 3.648,0.407 5.876,-2.758l-2.071,-13.942l0,-15.494c0,-0 1.078,0.074 1.668,-0.977c1.158,-2.059 1.658,-2.996 1.658,-2.996c-1.071,-3.09 -1.667,-9.986 -3.282,-12.06Z" style="fill:#001b35;"/><path d="M62.873,53.61l7.084,-4.09c4.027,7.614 5.583,16.01 3.526,25.547c-5.605,0.945 -9.174,2.65 -14.953,-4.425l4.343,-17.032Z" style="fill:#001b35;"/><path d="M90.473,40.422c-0.118,-0.266 -0.145,-0.612 -0.06,-1.019c0.254,-1.22 1.422,-2.527 2.606,-2.917c0.546,-0.179 1,-0.133 1.307,0.089c-0.236,-0.533 -0.834,-0.746 -1.624,-0.486c-1.184,0.389 -2.352,1.696 -2.606,2.916c-0.138,0.658 0.018,1.157 0.377,1.417Zm3.251,-3.218c0.052,0.166 0.058,0.371 0.009,0.604c-0.172,0.825 -0.961,1.708 -1.761,1.971c-0.328,0.108 -0.608,0.095 -0.811,-0.015c0.131,0.421 0.555,0.601 1.128,0.413c0.271,-0.09 0.541,-0.25 0.786,-0.455c0.181,-0.163 0.35,-0.342 0.505,-0.532c0.231,-0.308 0.401,-0.651 0.471,-0.984c0.101,-0.486 -0.034,-0.844 -0.327,-1.002Zm2.146,0.814c0.07,0.216 0.193,0.389 0.36,0.509c-0.074,-0.167 -0.112,-0.366 -0.109,-0.591l-0.251,0.082Zm3.608,-2.707c0.052,0.166 0.058,0.37 0.01,0.604c-0.172,0.824 -0.962,1.708 -1.762,1.971c-0.328,0.108 -0.608,0.095 -0.811,-0.015c0.131,0.42 0.555,0.601 1.128,0.412c0.281,-0.092 0.56,-0.26 0.812,-0.476c0.16,-0.147 0.312,-0.306 0.451,-0.475c0.245,-0.317 0.427,-0.673 0.499,-1.019c0.101,-0.487 -0.034,-0.844 -0.327,-1.002Zm-4.792,1.773c0.046,0.142 0.069,0.303 0.067,0.48l1.552,-0.511c0.409,-1.074 1.434,-2.12 2.471,-2.461c0.546,-0.18 1,-0.133 1.307,0.088c-0.236,-0.532 -0.834,-0.745 -1.624,-0.486c-1.037,0.342 -2.062,1.387 -2.472,2.462l-1.301,0.428Z" style="fill:#001b35;"/><path d="M90.473,40.422c-0.118,-0.266 -0.145,-0.612 -0.06,-1.019c0.254,-1.22 1.422,-2.527 2.606,-2.917c0.546,-0.179 1,-0.133 1.307,0.089c-0.236,-0.533 -0.834,-0.746 -1.624,-0.486c-1.184,0.389 -2.352,1.696 -2.606,2.916c-0.138,0.658 0.018,1.157 0.377,1.417Zm3.251,-3.218c0.052,0.166 0.058,0.371 0.009,0.604c-0.172,0.825 -0.961,1.708 -1.761,1.971c-0.328,0.108 -0.608,0.095 -0.811,-0.015c0.131,0.421 0.555,0.601 1.128,0.413c0.271,-0.09 0.541,-0.25 0.786,-0.455c0.181,-0.163 0.35,-0.342 0.505,-0.532c0.231,-0.308 0.401,-0.651 0.471,-0.984c0.101,-0.486 -0.034,-0.844 -0.327,-1.002Zm2.146,0.814c0.07,0.216 0.193,0.389 0.36,0.509c-0.074,-0.167 -0.112,-0.366 -0.109,-0.591l-0.251,0.082Zm3.608,-2.707c0.052,0.166 0.058,0.37 0.01,0.604c-0.172,0.824 -0.962,1.708 -1.762,1.971c-0.328,0.108 -0.608,0.095 -0.811,-0.015c0.131,0.42 0.555,0.601 1.128,0.412c0.281,-0.092 0.56,-0.26 0.812,-0.476c0.16,-0.147 0.312,-0.306 0.451,-0.475c0.245,-0.317 0.427,-0.673 0.499,-1.019c0.101,-0.487 -0.034,-0.844 -0.327,-1.002Zm-4.792,1.773c0.046,0.142 0.069,0.303 0.067,0.48l1.552,-0.511c0.409,-1.074 1.434,-2.12 2.471,-2.461c0.546,-0.18 1,-0.133 1.307,0.088c-0.236,-0.532 -0.834,-0.745 -1.624,-0.486c-1.037,0.342 -2.062,1.387 -2.472,2.462l-1.301,0.428Z" style="fill:#a6a6a6;fill-opacity:0.11;"/><path d="M90.468,38.045l-6.258,-3.613l-0.436,0.251l6.502,3.754c0.055,-0.132 0.12,-0.263 0.192,-0.392Z" style="fill:#001b35;"/><path d="M90.468,38.045l-6.258,-3.613l-0.436,0.251l6.502,3.754c0.055,-0.132 0.12,-0.263 0.192,-0.392Z" style="fill:#a6a6a6;fill-opacity:0.11;"/><path d="M84.651,35.173l-0,0.961l5.817,3.359l0.256,-0.813l-6.073,-3.507Z" style="fill:#001b35;"/><path d="M82.737,33.35c-1.193,-0.093 -2.178,1.652 -1.557,3.781c0.629,2.16 0.58,3.366 1.778,3.547c0.547,0.082 1.331,-1.099 1.435,-3.227c0.025,-0.51 0.712,-1.854 0.661,-2.314c-0.164,-1.461 -1.41,-1.715 -2.317,-1.787Z" style="fill:#ffe9d3;"/><path d="M82.737,33.35c-1.193,-0.093 -2.178,1.652 -1.557,3.781c0.629,2.16 0.58,3.366 1.778,3.547c0.547,0.082 1.331,-1.099 1.435,-3.227c0.025,-0.51 0.712,-1.854 0.661,-2.314c-0.164,-1.461 -1.41,-1.715 -2.317,-1.787Z" style="fill:#ffa347;fill-opacity:0.14;"/><path d="M106.721,99.872l20.666,11.932l0,1.123l15.084,-11.306l0,-1.123l-20.666,-11.932l-15.084,11.306Z" style="fill:#001b35;"/><path d="M88.589,107.213l-0,1.122l20.666,11.932l18.132,-7.34l0,-1.123l-20.667,-11.932l-18.131,7.341Z" style="fill:#001b35;"/><path d="M109.255,119.145l-20.666,-11.932l-0,1.122l20.666,11.932l18.132,-7.34l0,-1.123l-18.132,7.341Z" style="fill:#a6a6a6;fill-opacity:0.11;"/><path d="M109.255,119.145l-20.666,-11.932l-0,1.122l20.666,11.932l0,-1.122Z" style="fill:#a6a6a6;fill-opacity:0.11;"/><path d="M107.822,98.428l18.41,10.629l-0,2.08c-0,0 5.232,-5.63 7.596,-7.401c1.791,-1.343 6.641,-3.199 6.641,-3.199l-0,-2.081l-18.463,-10.66c-0,0 -4.85,1.856 -6.642,3.199c-2.364,1.772 -7.542,7.433 -7.542,7.433Z" style="fill:#fafafa;"/><path d="M122.006,87.796c-0,0 -4.85,1.856 -6.642,3.199c-2.364,1.772 -7.542,7.433 -7.542,7.433l18.41,10.577c-0,-0 5.232,-5.578 7.596,-7.35c1.791,-1.343 6.641,-3.199 6.641,-3.199l-18.463,-10.66Z" style="fill:#a6a6a6;fill-opacity:0.11;"/><path d="M140.469,100.537l-0,-2.143c-0,0 -4.85,1.856 -6.641,3.199c-2.364,1.772 -7.596,7.401 -7.596,7.401l-0,2.143c-0,0 5.299,-5.682 7.663,-7.454c1.792,-1.343 6.574,-3.146 6.574,-3.146Z" style="fill:#c2c2c2;fill-opacity:0.21;"/><path d="M140.469,100.537l-0,-2.143c-0,0 -4.85,1.856 -6.641,3.199c-2.364,1.772 -7.596,7.401 -7.596,7.401l-0,2.143c-0,0 5.299,-5.682 7.663,-7.454c1.792,-1.343 6.574,-3.146 6.574,-3.146Z" style="fill:#a6a6a6;fill-opacity:0.11;"/><path d="M140.469,98.906l-0,-0.145c-0,0 -4.85,1.856 -6.641,3.199c-2.364,1.772 -7.596,7.401 -7.596,7.401l-0,0.182c-0,0 5.299,-5.681 7.663,-7.453c1.792,-1.343 6.574,-3.184 6.574,-3.184Z" style="fill:#a6a6a6;fill-opacity:0.11;"/><path d="M140.469,99.755l-0,-0.11c-0,0 -4.85,1.856 -6.641,3.199c-2.364,1.772 -7.596,7.402 -7.596,7.402l-0,0.146c-0,-0 5.299,-5.681 7.663,-7.453c1.792,-1.343 6.574,-3.184 6.574,-3.184Z" style="fill:#a6a6a6;fill-opacity:0.11;"/><path d="M140.469,100.186l-0,-0.099c-0,-0 -4.85,1.856 -6.641,3.199c-2.364,1.771 -7.596,7.401 -7.596,7.401l-0,0.136c-0,0 5.299,-5.681 7.663,-7.453c1.792,-1.343 6.574,-3.184 6.574,-3.184Z" style="fill:#a6a6a6;fill-opacity:0.11;"/><path d="M140.469,99.34l-0,-0.052c-0,0 -4.85,1.856 -6.641,3.199c-2.364,1.771 -7.596,7.401 -7.596,7.401l-0,0.089c-0,0 5.299,-5.681 7.663,-7.453c1.792,-1.343 6.574,-3.184 6.574,-3.184Z" style="fill:#a6a6a6;fill-opacity:0.11;"/><path d="M142.471,101.621l0,-1.123l-15.084,11.306l0,0l0,1.123l15.084,-11.306Z" style="fill:#a6a6a6;fill-opacity:0.11;"/><path d="M90.399,104.985l0,2.14l18.854,10.886c0,-0 5.66,-4.349 8.49,-5.494c2.2,-0.891 8.489,-1.38 8.489,-1.38l-0,-2.14l-18.348,-10.561c-0,-0 -6.796,0.165 -8.996,1.055c-2.829,1.146 -8.489,5.494 -8.489,5.494Z" style="fill:#fafafa;"/><path d="M126.232,111.137l-0,-2.14c-0,0 -6.289,0.489 -8.489,1.38c-2.83,1.145 -8.49,5.494 -8.49,5.494l-18.854,-10.886l0,2.14l18.854,10.886c0,-0 5.66,-4.349 8.49,-5.494c2.2,-0.891 8.489,-1.38 8.489,-1.38Z" style="fill:#a6a6a6;fill-opacity:0.11;"/><path d="M109.253,117.689l0,-0.122l-18.854,-10.885l0,0.122l18.854,10.885Z" style="fill:#a6a6a6;fill-opacity:0.11;"/><path d="M109.253,117.287l0,-0.181l-18.854,-10.886l0,0.181l18.854,10.886Z" style="fill:#a6a6a6;fill-opacity:0.11;"/><path d="M109.253,116.413l0,-0.181l-18.854,-10.885l0,0.181l18.854,10.885Z" style="fill:#a6a6a6;fill-opacity:0.11;"/><path d="M109.253,116.853l0,-0.092l-18.854,-10.886l0,0.093l18.854,10.885Z" style="fill:#a6a6a6;fill-opacity:0.11;"/><path d="M126.232,111.137l-0,-2.14c-0,0 -6.289,0.489 -8.489,1.38c-2.83,1.145 -8.49,5.494 -8.49,5.494l0,2.14c0,-0 5.66,-4.349 8.49,-5.494c2.2,-0.891 8.489,-1.38 8.489,-1.38Z" style="fill:#a6a6a6;fill-opacity:0.11;"/><path d="M126.232,110.392l-0,-0.149c-0,-0 -6.289,0.489 -8.489,1.379c-2.83,1.146 -8.49,5.494 -8.49,5.494l0,0.149c0,0 5.66,-4.348 8.49,-5.494c2.2,-0.89 8.489,-1.379 8.489,-1.379Z" style="fill:#a6a6a6;fill-opacity:0.11;"/><path d="M126.232,109.544l-0,-0.179c-0,-0 -6.289,0.488 -8.489,1.379c-2.83,1.145 -8.49,5.494 -8.49,5.494l0,0.18c0,-0 5.66,-4.349 8.49,-5.494c2.2,-0.891 8.489,-1.38 8.489,-1.38Z" style="fill:#a6a6a6;fill-opacity:0.11;"/><path d="M126.232,109.977l-0,-0.088c-0,-0 -6.289,0.489 -8.489,1.379c-2.83,1.146 -8.49,5.494 -8.49,5.494l0,0.088c0,0 5.66,-4.348 8.49,-5.494c2.2,-0.89 8.489,-1.379 8.489,-1.379Z" style="fill:#a6a6a6;fill-opacity:0.11;"/><path d="M126.232,110.824l-0,-0.136c-0,0 -6.289,0.489 -8.489,1.38c-2.83,1.145 -8.49,5.494 -8.49,5.494l0,0.135c0,0 5.66,-4.348 8.49,-5.494c2.2,-0.89 8.489,-1.379 8.489,-1.379Z" style="fill:#a6a6a6;fill-opacity:0.11;"/><path d="M96.899,107.255c1.24,0.069 1.819,-0.17 3.168,0.433c0.165,0.074 1.534,0.733 2.778,1.777c0.599,0.503 2.841,2.055 3.068,2.625c0.295,0.74 -1.524,0.453 -1.525,0.532c-0.002,0.17 -1.924,-1.416 -3.222,-2.191c-1.18,-0.706 -1.744,-0.608 -1.783,-0.447c-0.132,0.546 -0.104,0.8 0.213,1.161c0.681,0.776 4.227,1.6 6.581,2.346c1.386,0.438 1.467,0.123 1.415,0.816c-0.066,0.882 -0.303,0.992 -1.74,1.22c-0.512,0.081 -1.887,0.828 -2.428,0.903c-1.921,0.269 -3.923,-0.214 -5.15,-0.441c-4.467,-0.825 -6.895,-6.329 -6.869,-7.658c0.018,-0.956 0.794,-4.396 0.794,-4.396c0,0 3.477,3.252 4.7,3.32Z" style="fill:#ffe9d3;"/><path d="M65.533,90.337c0.719,-5.667 8.232,-1.195 14.748,4.073c4.94,3.994 15.47,12.422 15.47,12.422c-0,-0 0.498,1.876 0.328,2.616c-0.25,1.095 -3.682,0.68 -3.682,0.68c-0,-0 -8.519,-4.197 -12.921,-7.219c-6.495,-4.457 -14.4,-8.97 -13.943,-12.572Z" style="fill:#ffe9d3;"/></svg>