<?xml version="1.0" encoding="UTF-8" standalone="no"?><!DOCTYPE svg PUBLIC "-//W3C//DTD SVG 1.1//EN" "http://www.w3.org/Graphics/SVG/1.1/DTD/svg11.dtd"><svg width="100%" height="100%" viewBox="0 0 200 200" version="1.1" xmlns="http://www.w3.org/2000/svg" xmlns:xlink="http://www.w3.org/1999/xlink" xml:space="preserve" xmlns:serif="http://www.serif.com/" style="fill-rule:evenodd;clip-rule:evenodd;stroke-linejoin:round;stroke-miterlimit:2;"><path d="M51.138,53.231l66.747,-10.326l48.861,28.211l-17.884,38.536l-66.747,10.325l-48.861,-28.21l17.884,-38.536Z" style="fill:#2ccdc2;"/><path d="M51.138,53.231l66.747,-10.326l48.861,28.211l-17.884,38.536l-66.747,10.325l-48.861,-28.21l17.884,-38.536Z" style="fill:#2ccdc2;"/><path d="M51.138,109.652l66.747,-10.326l48.861,28.21l-17.884,38.536l-66.747,10.326l-48.861,-28.21l17.884,-38.536Z" style="fill:#2ccdc2;"/><path d="M33.254,148.188l-0,-56.421l17.884,-38.536l66.747,-10.326l48.861,28.211l0,56.42l-17.884,38.536l-66.747,10.326l-48.861,-28.21Z" style="fill:#2ccdc2;"/><path d="M33.254,148.188l-0,-56.421l17.884,-38.536l66.747,-10.326l48.861,28.211l0,56.42l-17.884,38.536l-66.747,10.326l-48.861,-28.21Z" style="fill:#f0f0f0;fill-opacity:0.15;"/><path d="M166.746,127.536l-17.884,38.536l-66.747,10.326l-48.861,-28.21l-0,-56.421l48.861,28.21l66.747,-10.325l17.884,-38.536l0,56.42Z" style="fill:#f0f0f0;fill-opacity:0.15;"/><path d="M148.862,109.652l-0,56.42l-66.747,10.326l0,-56.421l66.747,-10.325Z" style="fill:#f0f0f0;fill-opacity:0.15;"/><path d="M166.746,127.536l-17.884,38.536l-66.747,10.326l-48.861,-28.21l-0,-56.421l48.861,28.21l66.747,-10.325l17.884,-38.536l0,56.42Z" style="fill:#f0f0f0;fill-opacity:0.15;"/><path d="M148.862,109.652l-0,56.42l-66.747,10.326l0,-56.421l66.747,-10.325Z" style="fill:#f0f0f0;fill-opacity:0.15;"/><path d="M47.857,39.633l71.229,-11.019l52.143,30.104l-19.086,41.124l-71.229,11.019l-52.143,-30.104l19.086,-41.124Z" style="fill:#2ccdc2;"/><path d="M28.771,102.777l0,-22.02l19.086,-41.124l71.229,-11.019l52.143,30.104l-0,22.02l-19.086,41.124l-71.229,11.019l-52.143,-30.104Z" style="fill:#2ccdc2;"/><path d="M47.857,39.633l71.229,-11.019l52.143,30.104l-19.086,41.124l-71.229,11.019l-52.143,-30.104l19.086,-41.124Z" style="fill:#2ccdc2;"/><path d="M171.229,80.726l-19.086,41.124l-71.229,11.019l-52.143,-30.104l0,-22.008l52.143,30.104l71.229,-11.019l19.086,-41.124l-0,22.008Z" style="fill:#f0f0f0;fill-opacity:0.15;"/><path d="M152.143,99.842l-0,22.008l-71.229,11.019l0,-22.008l71.229,-11.019Z" style="fill:#f0f0f0;fill-opacity:0.15;"/><path d="M171.229,80.726l-19.086,41.124l-71.229,11.019l-52.143,-30.104l0,-22.008l52.143,30.104l71.229,-11.019l19.086,-41.124l-0,22.008Z" style="fill:#f0f0f0;fill-opacity:0.15;"/><path d="M152.143,99.842l-0,22.008l-71.229,11.019l0,-22.008l71.229,-11.019Z" style="fill:#f0f0f0;fill-opacity:0.15;"/><path d="M136.276,38.539l-90.314,52.143l16.02,9.249l90.314,-52.143l-16.02,-9.249Z" style="fill:#001b35;"/><path d="M72.53,35.816l33.057,71.228l21.883,-3.385l-33.057,-71.228l-21.883,3.385Z" style="fill:#001b35;"/><path d="M105.632,107.009l-0,22.015l21.838,-3.373l0,-22.015l-21.838,3.373Z" style="fill:#001b35;"/><path d="M105.231,129.045l-0,44.151l21.838,-3.373l-0,-44.151l-21.838,3.373Z" style="fill:#001b35;"/><path d="M35.841,65.515l123.372,19.086l5.863,-12.635l-123.371,-19.085l-5.864,12.634Z" style="fill:#001b35;"/><path d="M159.214,84.593l0,22.035l5.862,-12.747l0,-22.035l-5.862,12.747Z" style="fill:#001b35;"/><path d="M157.126,110.968l0,37.133l5.862,-12.747l0,-37.134l-5.862,12.748Z" style="fill:#001b35;"/><path d="M45.962,90.682l0,22.008l16.02,9.249l-0,-22.008l-16.02,-9.249Z" style="fill:#001b35;"/><path d="M48.885,114.377l0,42.835l16.02,9.249l0,-42.835l-16.02,-9.249Z" style="fill:#001b35;"/><path d="M84.63,57.176c0.834,-12.342 0.28,-23.4 -1.231,-33.574c4.362,2.655 9.389,5.336 13.097,7.359c5.961,-1.765 9.009,-4.49 11.814,-7.359c1.328,10.902 1.474,22.162 0.878,33.649c6.218,-0.248 13.34,-0.418 20.302,-0.311c16.776,0.256 32.619,1.53 32.619,1.53l-0,1.052c-0,0 -3.998,2.687 -5.154,5.335c2.352,1.844 5.563,7.993 5.563,7.993l0,1.052c-0.041,-0.547 -30.7,-1.966 -51.487,-1.479c1.981,13.146 3.054,26.048 2.548,38.524c-3.034,-2.79 -6.3,-5.429 -12.398,-7.032c-3.54,2.121 -8.344,4.936 -12.485,7.706c0.785,-11.724 0.214,-24.582 -2.416,-39.159c-20.779,-0.596 -52.951,0.88 -52.994,1.44l0,-1.052c0,0 3.211,-6.149 5.563,-7.993c-1.155,-2.648 -5.153,-5.335 -5.153,-5.335l-0,-1.052c-0,0 15.843,-1.274 32.619,-1.53c6.231,-0.095 12.592,0.031 18.315,0.236Z" style="fill:#001b35;"/><path d="M96.871,73.328l-0,-1.051c15.538,-1.293 38.608,-1.677 65.023,0.521l0.624,0.052l0,1.052c-0.053,-0.699 -50.059,-2.821 -65.647,-0.574Zm65.238,-14.858l-0,1.052c-0,0 -3.998,2.687 -5.154,5.335l-0.032,-0.026c-0.096,-0.074 -0.194,-0.147 -0.293,-0.217c1.169,-3.168 2.884,-4.806 5.479,-6.144Z" style="fill:#f0f0f0;fill-opacity:0.19;"/><path d="M88.779,110.296c-0.026,0.444 -0.053,0.885 -0.083,1.325c4.141,-2.77 8.945,-5.585 12.485,-7.706c6.098,1.603 9.364,4.242 12.398,7.032c0.093,-2.279 0.132,-4.572 0.123,-6.879c-0.007,1.88 -0.047,3.749 -0.123,5.609c-3.034,-2.789 -6.3,-5.429 -12.398,-7.031c-3.516,2.107 -8.28,4.898 -12.402,7.65Z" style="fill:#f0f0f0;fill-opacity:0.19;"/><path d="M98.934,73.328l-0,-1.051c-15.539,-1.293 -38.609,-1.677 -65.023,0.521l-0.625,0.052l0,1.052c0.053,-0.699 50.059,-2.821 65.648,-0.574Zm-65.238,-14.858l-0,1.052c-0,0 3.998,2.687 5.153,5.335l0.033,-0.026c0.096,-0.074 0.193,-0.147 0.292,-0.217c-1.168,-3.168 -2.884,-4.806 -5.478,-6.144Z" style="fill:#f0f0f0;fill-opacity:0.19;"/><path d="M95.965,52.125c1.514,-3.887 7.669,-16.613 24.07,-18.936c2.073,-0.293 3.698,0.605 3.698,0.605c0,0 12.547,6.03 15.465,10.591c0.31,0.484 0.453,1.098 0.496,1.735c0,-0 0.006,0.089 0.006,0.089c0.091,1.701 -0.502,3.538 -0.502,3.538c-2.141,5.033 -8.617,9.563 -18.526,13.695c10.021,1.923 24.747,5.898 26.802,12.873c0.515,1.746 0.5,3.772 0.409,5.088c-0.058,0.843 -0.987,1.876 -0.987,1.876l-0.181,0.105c0,-0 -16.855,9.649 -16.855,9.649c-4.452,3.646 -30.201,-15.089 -31.586,-15.577l0,-0.003c-8.992,5.698 -28.141,18.418 -31.526,15.646l-16.855,-9.649l-0.181,-0.104c0,-0 -0.929,-1.033 -0.987,-1.877c-0.09,-1.316 -0.106,-3.342 0.409,-5.088c1.752,-5.943 12.703,-9.708 22.104,-11.882c-9.59,-4.067 -15.859,-8.52 -17.96,-13.457c0,0 -0.592,-1.836 -0.501,-3.538l0.005,-0.089c0.043,-0.637 0.186,-1.25 0.496,-1.735c2.919,-4.56 15.465,-10.59 15.465,-10.59c-0,-0 1.625,-0.899 3.698,-0.605c14.88,2.107 21.326,12.777 23.524,17.64Zm0.814,2.022c0.089,0.26 0.131,0.401 0.131,0.401l-12.03,7.539c0.29,-0.035 0.445,-0.052 0.445,-0.052l14.024,8.096l9.905,-6.775l-12.475,-9.209Z" style="fill:#001b35;"/><path d="M85.325,62.035l17.614,10.169c0,0 -28.307,6.812 -34.918,13.612c-3.984,4.098 -1.273,7.283 -1.273,7.283l-17.036,-9.753c0,-0 -0.929,-1.033 -0.987,-1.877c-0.09,-1.316 -0.106,-3.342 0.409,-5.088c3.157,-10.711 36.191,-14.346 36.191,-14.346Z" style="fill:#f0f0f0;fill-opacity:0.16;"/><path d="M67.406,90.051c0.02,1.505 0.695,1.934 1.451,1.83c4.78,-0.656 12.793,-5.756 21.452,-11.039c1.359,-0.83 7.965,-4.706 7.965,-4.706l0,-1.574c-4.931,1.704 -25.067,7.663 -29.881,12.922c-0.617,0.674 -0.997,1.787 -0.987,2.567Z" style="fill:#545454;fill-opacity:0.24;"/><path d="M120.035,33.189c2.073,-0.293 3.698,0.605 3.698,0.605c0,0 12.547,6.03 15.465,10.591c1.15,1.797 -0,5.362 -0,5.362c-0,-0 0.503,-3.848 -1.01,-4.95c-3.343,-2.433 -22.788,12.725 -26.155,18.775l-16.466,-10.32c-0,0 5.061,-17.314 24.468,-20.063Z" style="fill:#f0f0f0;fill-opacity:0.1;"/><path d="M138.242,47.453c0.258,1.185 -0.588,3.18 -1.348,4.131c-4.462,5.584 -9.402,7.656 -21.53,12.593c-0.705,0.287 -1.819,0.867 -1.819,0.867l-0,-1.738c3.891,-5.066 20.387,-18.578 23.81,-17.271c0.499,0.19 0.743,0.754 0.887,1.418Z" style="fill:#545454;fill-opacity:0.24;"/><path d="M72.407,34.505c-2.073,-0.294 -3.699,0.605 -3.699,0.605c0,-0 -12.546,6.03 -15.464,10.59c-1.15,1.798 -0,5.362 -0,5.362c-0,0 -0.503,-3.848 1.01,-4.949c3.342,-2.433 22.788,12.725 26.154,18.774l16.467,-10.319c0,0 -5.061,-17.315 -24.468,-20.063Z" style="fill:#f0f0f0;fill-opacity:0.1;"/><path d="M111.283,61.968l-17.614,10.17c0,-0 28.308,6.811 34.919,13.612c3.984,4.098 1.272,7.283 1.272,7.283l17.036,-9.754c0,0 0.929,-1.033 0.987,-1.876c0.091,-1.316 0.106,-3.342 -0.409,-5.088c-3.156,-10.711 -36.191,-14.347 -36.191,-14.347Z" style="fill:#f0f0f0;fill-opacity:0.1;"/><path d="M53.278,51.042c2.614,6.144 11.684,11.538 25.575,16.372c0.142,0.05 0.427,0.148 0.427,0.148l1.163,-2.695c-3.367,-6.049 -22.812,-21.207 -26.155,-18.774c-1.513,1.101 -1.01,4.949 -1.01,4.949Zm-0.496,-3.627l-0.005,0.089c0.001,-0.029 0.003,-0.059 0.005,-0.089Z" style="fill:#f0f0f0;fill-opacity:0.13;"/><path d="M54.234,48.748c-0.258,1.185 0.588,3.18 1.348,4.132c4.462,5.583 9.402,7.656 21.53,12.592c0.705,0.287 1.819,0.868 1.819,0.868l0,-1.738c-3.89,-5.066 -20.387,-18.578 -23.81,-17.272c-0.498,0.191 -0.743,0.755 -0.887,1.418Z" style="fill-opacity:0.42;"/><path d="M129.202,89.985c-0.02,1.504 -0.694,1.934 -1.451,1.83c-4.779,-0.657 -12.793,-5.756 -21.451,-11.039c-1.36,-0.83 -8.026,-4.653 -8.026,-4.653l0.008,-1.565c4.93,1.704 25.119,7.601 29.934,12.86c0.617,0.674 0.996,1.787 0.986,2.567Z" style="fill:#545454;fill-opacity:0.24;"/><path d="M96.39,52.844c8.938,0.255 17.127,8.872 17.127,8.872l1.003,-0.371c-0,-0 -0.023,-0.03 -0.045,-0.052c-1.799,-1.751 -9.214,-8.47 -17.111,-8.49c-0.324,-0.001 -0.649,0.013 -0.974,0.041Z" style="fill:#f0f0f0;fill-opacity:0.18;"/><path d="M96.038,44.093c3.566,-4.946 8.753,-10.085 16.049,-13.144c1.865,-0.782 3.271,-0.217 3.271,-0.217c0,-0 10.899,3.416 13.276,7.506c0.253,0.435 0.35,1.042 0.357,1.697l0.012,0.019l-0.012,0.073c-0.003,1.755 -0.623,3.807 -0.623,3.807c-1.548,4.112 -5.065,8.465 -10.259,13.022c3.476,-1.763 7.076,-3.227 9.401,-3.198c7.522,0.092 14.972,1.795 14.084,10.438c-0.324,3.158 -16.853,9.684 -16.853,9.684c-3.003,2.133 -26.467,0.724 -26.467,0.724c0,0 -23.464,1.409 -26.467,-0.724c0,0 -16.528,-6.526 -16.853,-9.684c-0.888,-8.643 6.563,-10.346 14.084,-10.438c0.446,-0.006 0.938,0.044 1.467,0.139c-3.107,-3.326 -5.253,-6.527 -6.32,-9.586l-0.006,-0.047l0.006,0.047c0,0 -0.566,-2.058 -0.523,-3.813l-0.01,-0.072l0.013,-0.019c0.024,-0.655 0.137,-1.261 0.401,-1.694c2.485,-4.069 13.473,-7.388 13.473,-7.388c-0,-0 1.421,-0.553 3.265,0.246c6.895,2.984 11.814,7.851 15.234,12.622Zm0.691,17.096l-5.926,2.832l7.471,4.097l5.395,-2.959l-0.237,-0.665l-6.703,-3.305Z" style="fill:#001b35;"/><path d="M109.391,58.117c5.709,-7.406 15.276,-17.974 17.554,-17.626c0.423,0.065 0.612,0.557 0.712,1.171c0.178,1.096 -0.623,3.253 -1.313,4.369c-3.703,5.991 -7.643,9.204 -16.43,15.672c0.164,-1.107 -0.05,-2.351 -0.523,-3.586Z" style="fill:#545454;fill-opacity:0.24;"/><path d="M90.474,52.93c4.708,-4.446 10.309,-4.172 15.225,0c3.699,3.14 5.725,9.179 2.057,11.783c-6.281,4.46 -12.352,5.261 -19.016,-0.32c-3.474,-2.91 -1.793,-8.132 1.734,-11.463Z" style="fill:#001b35;"/><path d="M90.474,52.93c4.708,-4.446 10.309,-4.172 15.225,0c3.699,3.14 5.725,9.179 2.057,11.783c-6.281,4.46 -12.352,5.261 -19.016,-0.32c-3.474,-2.91 -1.793,-8.132 1.734,-11.463Z" style="fill:#f0f0f0;fill-opacity:0.09;"/><path d="M120.724,72.336c0.801,-2.794 -2.875,-4.034 -6.652,-4.745c-2.907,-0.547 -5.621,0.044 -8.036,0.982c-1.098,0.427 -7.762,3.207 -7.762,3.207l0,0.674c0.043,-0.239 8.534,0.493 11.733,0.606c-0,-0 10.424,0.297 10.717,-0.724Z" style="fill:#545454;fill-opacity:0.18;"/><path d="M75.825,72.336c-0.801,-2.794 2.874,-4.034 6.651,-4.745c2.907,-0.547 5.622,0.044 8.036,0.982c1.098,0.427 7.762,3.207 7.762,3.207l0,0.674c-0.042,-0.239 -8.533,0.493 -11.732,0.606c-0,-0 -10.425,0.297 -10.717,-0.724Z" style="fill:#545454;fill-opacity:0.18;"/><path d="M72.407,54.281c-2.56,-2.434 -4.449,-4.784 -6.257,-7.856c-0.66,-1.122 -1.404,-3.285 -1.197,-4.38c0.116,-0.613 0.318,-1.103 0.742,-1.164c2.39,-0.343 12.421,11.299 17.804,18.759c-3.301,-1.942 -7.63,-4.268 -11.092,-5.359Z" style="fill:#545454;fill-opacity:0.24;"/></svg>
