<?xml version="1.0" encoding="UTF-8" standalone="no"?><!DOCTYPE svg PUBLIC "-//W3C//DTD SVG 1.1//EN" "http://www.w3.org/Graphics/SVG/1.1/DTD/svg11.dtd"><svg width="100%" height="100%" viewBox="0 0 200 200" version="1.1" xmlns="http://www.w3.org/2000/svg" xmlns:xlink="http://www.w3.org/1999/xlink" xml:space="preserve" xmlns:serif="http://www.serif.com/" style="fill-rule:evenodd;clip-rule:evenodd;stroke-linejoin:round;stroke-miterlimit:2;"><path d="M87.868,44.013c0.32,-0.52 9.361,-11.041 11.583,-12.954c3.531,-3.041 11.773,-1.5 23.475,5.256c21.307,12.302 46.067,37.266 55.257,55.714c3.812,7.651 4.35,12.987 2.156,15.735c-1.783,2.232 -8.995,10.399 -11.108,12.342c-3.462,3.182 -11.759,1.685 -23.596,-5.149c-21.307,-12.302 -46.067,-37.267 -55.257,-55.715c-3.59,-7.206 -4.276,-12.358 -2.51,-15.229Z" style="fill:#001b35;"/><path d="M112.332,48.105c21.308,12.302 46.069,37.268 55.259,55.716c9.191,18.449 -0.647,23.439 -21.955,11.137c-21.308,-12.302 -46.069,-37.268 -55.26,-55.717c-9.19,-18.448 0.648,-23.439 21.956,-11.136Z" style="fill:#001b35;"/><path d="M114.028,51.509c19.138,11.049 41.377,33.472 49.632,50.042c8.254,16.57 -0.582,21.052 -19.72,10.003c-19.138,-11.049 -41.377,-33.473 -49.632,-50.043c-8.255,-16.57 0.582,-21.052 19.72,-10.002Z" style="fill:#f4f4f4;fill-opacity:0.1;"/><path d="M88.692,42.996c2.337,-2.789 8.91,-10.345 10.759,-11.937c3.531,-3.041 11.773,-1.5 23.475,5.256c21.307,12.302 46.067,37.266 55.257,55.714c3.812,7.651 4.35,12.987 2.156,15.735c-1.743,2.182 -8.674,10.036 -10.959,12.202c2.609,-2.606 2.222,-8.094 -1.789,-16.145c-9.19,-18.448 -33.951,-43.414 -55.259,-55.716c-11.888,-6.864 -20.206,-8.345 -23.64,-5.109Z" style="fill:#f4f4f4;fill-opacity:0.06;"/><path d="M174.912,86.213c1.239,1.993 2.336,3.938 3.271,5.816c1.968,3.95 3.063,7.282 3.361,9.961l-10.594,11.777c-0.3,-2.675 -1.395,-6.003 -3.359,-9.946c-0.937,-1.881 -2.037,-3.831 -3.277,-5.826l10.598,-11.782Z" style="fill:#2ccdba;"/><path d="M155.424,62.197c3.737,3.786 7.258,7.677 10.437,11.547l-10.599,11.783c-3.179,-3.869 -6.7,-7.76 -10.437,-11.546l10.599,-11.784Z" style="fill:#2ccdba;"/><path d="M131.906,42.089c4.086,2.88 8.201,6.109 12.221,9.562l-10.6,11.785c-4.02,-3.453 -8.135,-6.682 -12.222,-9.562l10.601,-11.785Z" style="fill:#2ccdba;"/><path d="M103.923,29.574c3.851,-0.127 9.339,1.548 16.171,5.171l-10.601,11.786c-6.835,-3.624 -12.324,-5.297 -16.175,-5.167l10.605,-11.79Z" style="fill:#2ccdba;"/><path d="M37.721,138.037c-0.008,-1.684 -0.008,-48.177 -0,-49.861c0.04,-8.286 5.506,-16.566 16.396,-22.884c21.861,-12.681 57.357,-12.681 79.218,0c10.89,6.318 16.355,14.598 16.396,22.884c0.008,1.684 0.008,48.177 -0,49.862c-0.041,8.286 -5.506,16.566 -16.396,22.883c-21.861,12.682 -57.357,12.682 -79.218,0c-10.89,-6.317 -16.355,-14.597 -16.396,-22.884Z" style="fill:#001b35;"/><path d="M54.117,65.292c21.861,-12.681 57.357,-12.681 79.218,0c21.861,12.682 21.861,33.274 0,45.955c-21.861,12.682 -57.357,12.682 -79.218,0c-21.861,-12.681 -21.861,-33.273 -0,-45.955Z" style="fill:#001b35;"/><path d="M58.047,67.572c19.692,-11.423 51.666,-11.423 71.358,0c19.691,11.424 19.691,29.972 -0,41.395c-19.692,11.423 -51.666,11.423 -71.358,0c-19.691,-11.423 -19.691,-29.971 0,-41.395Z" style="fill:#f4f4f4;fill-opacity:0.08;"/><path d="M66.728,113.004c16.422,6.041 37.571,6.041 53.996,-0c-16.422,-6.041 -37.571,-6.041 -53.996,-0Z" style="fill:#f4f4f4;fill-opacity:0.08;"/><path d="M37.722,88.077c-0.086,8.381 5.379,16.78 16.395,23.17c21.861,12.682 57.357,12.682 79.218,0c11.016,-6.39 16.481,-14.789 16.395,-23.17l0.001,0.099c0.008,1.684 0.008,48.061 -0,49.745c-0.041,8.286 -5.506,16.566 -16.396,22.884c-21.861,12.681 -57.357,12.681 -79.218,-0c-10.89,-6.318 -16.355,-14.598 -16.396,-22.884c-0.008,-1.684 -0.008,-48.061 -0,-49.745l0.001,-0.099Zm0.003,-0.196l-0.003,0.192l0.001,-0.091l0.002,-0.101Zm112.004,0.101l0.001,0.091l-0.003,-0.192l0.002,0.101Z" style="fill:#f4f4f4;fill-opacity:0.07;"/></svg>
