<?xml version="1.0" encoding="UTF-8" standalone="no"?><!DOCTYPE svg PUBLIC "-//W3C//DTD SVG 1.1//EN" "http://www.w3.org/Graphics/SVG/1.1/DTD/svg11.dtd"><svg width="100%" height="100%" viewBox="0 0 200 200" version="1.1" xmlns="http://www.w3.org/2000/svg" xmlns:xlink="http://www.w3.org/1999/xlink" xml:space="preserve" xmlns:serif="http://www.serif.com/" style="fill-rule:evenodd;clip-rule:evenodd;stroke-linejoin:round;stroke-miterlimit:2;"><g><g><g><path d="M103.713,17.948l-12.44,7.183l-0,76.439l66.14,38.186l12.441,-7.182l0,-76.439l-66.141,-38.187Z" style="fill:#001b35;"/><path d="M157.413,63.318l-66.14,-38.187l-0,76.439l66.14,38.186l0,-76.438Z" style="fill:#001b35;"/><path d="M169.854,56.135l-66.141,-38.187l0,76.439l66.141,38.187l0,-76.439Z" style="fill:#001b35;"/><path d="M154.118,65.223l-59.55,-34.381l-0,68.822l59.55,34.382l0,-68.823Z" style="fill:#f4f4f4;fill-opacity:0.04;"/><path d="M157.413,63.318l0,76.438l12.441,-7.182l0,-76.439l-66.141,-38.187l-12.44,7.183l66.14,38.187Z" style="fill:#f4f4f4;fill-opacity:0.08;"/><path d="M154.118,134.046l-59.55,-34.382l-0,-68.822l12.886,7.44l0,53.942l46.664,26.942l0,14.88Z" style="fill:#f4f4f4;fill-opacity:0.04;"/><path d="M107.454,92.224l-12.886,7.44l-0,-68.822l12.886,7.44l0,53.942Z" style="fill:#f4f4f4;fill-opacity:0.04;"/><path d="M157.413,63.318l0,76.438l12.441,-7.182l0,-76.439l-12.441,7.183Z" style="fill:#f4f4f4;fill-opacity:0.08;"/></g><path d="M128.109,32.033l-12.441,7.183l-18.456,-10.656l12.441,-7.183l18.456,10.656Z" style="fill:#2ccdba;"/><path d="M162.975,52.163l-12.441,7.183l-18.456,-10.656l12.441,-7.182l18.456,10.655Z" style="fill:#2ccdba;"/><path d="M169.854,94.354l-12.441,7.183l0,-20.964l12.441,-7.182l0,20.963Z" style="fill:#2ccdba;"/><path d="M169.854,114.479l-12.441,7.182l0,18.095l12.441,-7.182l0,-18.095Z" style="fill:#2ccdba;"/></g><path d="M30.147,147.618l-0.001,-49.866l59.641,-34.434l59.656,34.443l-0.016,49.857l-59.64,34.434l-59.64,-34.434Z" style="fill:#001b35;"/><path d="M99.809,122.714l-10.148,5.859l-10.022,-5.786l10.148,-5.859l10.022,5.786Z" style="fill:#f4f4f4;fill-opacity:0.08;"/><path d="M79.639,122.787l10.148,-5.859l-0,-49.771l-53.251,30.744l43.103,24.886Z" style="fill:#f4f4f4;fill-opacity:0.08;"/><path d="M79.639,122.787l10.148,-5.859l-0,-49.771l-53.251,30.744l43.103,24.886Z" style="fill:#f4f4f4;fill-opacity:0.08;"/><path d="M99.943,122.787l-10.149,-5.859l0,-49.771l53.252,30.744l-43.103,24.886Z" style="fill:#f4f4f4;fill-opacity:0.08;"/><path d="M149.427,97.781l-59.64,34.434l-59.64,-34.434l-0,50.064l59.64,34.207l59.64,-34.207l0,-50.064Z" style="fill:#f4f4f4;fill-opacity:0.11;"/><path d="M89.787,132.185l-59.64,-34.433l-0,49.866l59.64,34.434l-0,-49.867Z" style="fill:#f4f4f4;fill-opacity:0.11;"/><path d="M53.368,111.31l-16.805,-9.702l0,49.715l16.805,9.702l-0,-49.715Z" style="fill:#2ccdba;"/><path d="M86.729,130.571l-16.804,-9.702l-0,49.715l16.804,9.702l-0,-49.715Z" style="fill:#2ccdba;"/><path d="M116.097,117.149l-16.804,9.702l0,49.712l16.804,-9.702l0,-49.712Z" style="fill:#2ccdba;"/><path d="M149.427,97.906l-16.804,9.702l0,49.712l16.804,-9.702l0,-49.712Z" style="fill:#2ccdba;"/></g></svg>
