<?xml version="1.0" encoding="UTF-8" standalone="no"?><!DOCTYPE svg PUBLIC "-//W3C//DTD SVG 1.1//EN" "http://www.w3.org/Graphics/SVG/1.1/DTD/svg11.dtd"><svg width="100%" height="100%" viewBox="0 0 200 200" version="1.1" xmlns="http://www.w3.org/2000/svg" xmlns:xlink="http://www.w3.org/1999/xlink" xml:space="preserve" xmlns:serif="http://www.serif.com/" style="fill-rule:evenodd;clip-rule:evenodd;stroke-linejoin:round;stroke-miterlimit:2;"><path d="M100,189.736l41.736,-24.096l-0,-131.28l-41.736,-24.096l-41.736,24.096l0,131.28l41.736,24.096Z" style="fill:#2ccdba;"/><path d="M100,189.736l41.736,-24.096l-0,-131.28l-41.736,24.096l-41.736,-24.096l0,131.28l41.736,24.096Z" style="fill:#fff;fill-opacity:0.15;"/><path d="M100,58.456l-41.736,-24.096l0,131.28l41.736,24.096l-0,-131.28Z" style="fill:#fff;fill-opacity:0.15;"/><path d="M114.238,18.484l-41.736,24.096l11.233,6.486l41.736,-24.096l-11.233,-6.486Z" style="fill:#001b35;"/><path d="M73.515,25.555l41.736,24.096l11.234,-6.485l-41.736,-24.097l-11.234,6.486Z" style="fill:#001b35;"/><path d="M115.251,49.651l0,131.28l11.234,-6.486l-0,-131.279l-11.234,6.485Z" style="fill:#001b35;"/><path d="M83.735,49.066l0,131.28l-11.233,-6.486l0,-131.28l11.233,6.486Z" style="fill:#001b35;"/><path d="M92.751,28.706c0.455,-6.741 0.152,-12.782 -0.673,-18.339c2.383,1.45 5.128,2.915 7.154,4.02c3.256,-0.964 4.921,-2.453 6.453,-4.02c0.725,5.955 0.805,12.105 0.479,18.38c3.396,-0.136 7.287,-0.228 11.089,-0.17c9.164,0.14 17.817,0.836 17.817,0.836l0,0.574c0,0 -2.184,1.468 -2.815,2.914c1.285,1.007 3.039,4.366 3.039,4.366l0,0.575c-0.023,-0.299 -16.769,-1.074 -28.123,-0.808c1.082,7.18 1.668,14.227 1.392,21.042c-1.658,-1.524 -3.441,-2.966 -6.772,-3.841c-1.933,1.159 -4.557,2.696 -6.819,4.209c0.428,-6.404 0.116,-13.427 -1.32,-21.389c-11.35,-0.326 -28.923,0.481 -28.946,0.787l-0,-0.575c-0,0 1.754,-3.359 3.039,-4.366c-0.631,-1.446 -2.815,-2.914 -2.815,-2.914l-0,-0.574c-0,-0 8.653,-0.696 17.817,-0.836c3.403,-0.052 6.877,0.017 10.004,0.129Z" style="fill:#001b35;"/><path d="M99.437,37.528l-0,-0.574c8.487,-0.706 21.088,-0.916 35.516,0.285l0.341,0.028l0,0.575c-0.029,-0.382 -27.343,-1.541 -35.857,-0.314Zm35.633,-8.115l0,0.574c0,0 -2.184,1.468 -2.815,2.914l-0.017,-0.014c-0.053,-0.041 -0.106,-0.08 -0.16,-0.118c0.638,-1.731 1.575,-2.626 2.992,-3.356Z" style="fill:#d3d3d3;fill-opacity:0.19;"/><path d="M95.017,57.721c-0.014,0.242 -0.029,0.483 -0.045,0.723c2.262,-1.513 4.886,-3.05 6.819,-4.209c3.331,0.875 5.114,2.317 6.772,3.841c0.05,-1.245 0.072,-2.497 0.067,-3.758c-0.004,1.027 -0.026,2.048 -0.067,3.065c-1.658,-1.524 -3.441,-2.966 -6.772,-3.841c-1.921,1.151 -4.523,2.675 -6.774,4.179Z" style="fill:#d3d3d3;fill-opacity:0.19;"/><path d="M100.563,37.528l0,-0.574c-8.487,-0.706 -21.088,-0.916 -35.516,0.285l-0.341,0.028l-0,0.575c0.029,-0.382 27.343,-1.541 35.857,-0.314Zm-35.633,-8.115l-0,0.574c-0,0 2.184,1.468 2.815,2.914l0.017,-0.014c0.053,-0.041 0.106,-0.08 0.16,-0.118c-0.638,-1.731 -1.575,-2.626 -2.992,-3.356Z" style="fill:#d3d3d3;fill-opacity:0.19;"/><path d="M98.942,25.947c0.827,-2.123 4.189,-9.074 13.147,-10.343c1.132,-0.16 2.02,0.33 2.02,0.33c0,0 6.853,3.294 8.447,5.785c0.17,0.265 0.248,0.6 0.271,0.948c0,-0 0.003,0.048 0.003,0.048c0.05,0.93 -0.274,1.933 -0.274,1.933c-1.17,2.749 -4.706,5.223 -10.119,7.48c5.474,1.051 13.517,3.222 14.64,7.032c0.281,0.953 0.273,2.06 0.223,2.779c-0.031,0.46 -0.539,1.025 -0.539,1.025l-0.099,0.057c0,-0 -9.206,5.27 -9.206,5.27c-2.432,1.992 -16.497,-8.241 -17.253,-8.508l0,-0.002c-4.912,3.112 -15.371,10.06 -17.22,8.546l-9.206,-5.27l-0.099,-0.057c0,-0 -0.507,-0.564 -0.539,-1.025c-0.05,-0.719 -0.058,-1.825 0.223,-2.779c0.957,-3.247 6.939,-5.303 12.074,-6.49c-5.238,-2.222 -8.663,-4.654 -9.81,-7.351c-0,0 -0.324,-1.003 -0.274,-1.932l0.003,-0.049c0.023,-0.348 0.102,-0.683 0.271,-0.947c1.594,-2.491 8.447,-5.785 8.447,-5.785c-0,0 0.888,-0.491 2.02,-0.33c8.127,1.151 11.648,6.978 12.849,9.635Zm0.444,1.104c0.049,0.142 0.072,0.219 0.072,0.219l-6.571,4.118c0.159,-0.019 0.243,-0.028 0.243,-0.028l7.66,4.422l5.41,-3.7l-6.814,-5.031Z" style="fill:#001b35;"/><path d="M93.13,31.36l9.621,5.554c0,0 -15.462,3.721 -19.073,7.435c-2.176,2.239 -0.695,3.978 -0.695,3.978l-9.305,-5.327c0,-0 -0.507,-0.564 -0.539,-1.025c-0.05,-0.719 -0.058,-1.825 0.223,-2.779c1.725,-5.851 19.768,-7.836 19.768,-7.836Z" style="fill:#d3d3d3;fill-opacity:0.16;"/><path d="M83.343,46.662c0.011,0.822 0.379,1.057 0.792,1c2.611,-0.359 6.988,-3.144 11.717,-6.03c0.743,-0.453 4.351,-2.57 4.351,-2.57l0,-0.86c-2.693,0.931 -13.692,4.186 -16.321,7.058c-0.337,0.368 -0.545,0.976 -0.539,1.402Z" style="fill:#545454;fill-opacity:0.24;"/><path d="M112.089,15.604c1.132,-0.16 2.02,0.33 2.02,0.33c0,0 6.853,3.294 8.447,5.785c0.628,0.982 0,2.929 0,2.929c0,-0 0.275,-2.102 -0.551,-2.704c-1.826,-1.329 -12.447,6.951 -14.286,10.255l-8.995,-5.636c0,-0 2.765,-9.458 13.365,-10.959Z" style="fill:#fff;fill-opacity:0.1;"/><path d="M122.034,23.395c0.141,0.647 -0.321,1.737 -0.736,2.257c-2.438,3.049 -5.136,4.181 -11.76,6.878c-0.385,0.156 -0.994,0.473 -0.994,0.473l0,-0.949c2.125,-2.767 11.136,-10.147 13.005,-9.434c0.273,0.104 0.406,0.412 0.485,0.775Z" style="fill:#545454;fill-opacity:0.24;"/><path d="M86.074,16.323c-1.132,-0.161 -2.02,0.33 -2.02,0.33c-0,-0 -6.853,3.294 -8.447,5.785c-0.628,0.981 0,2.928 0,2.928c0,0 -0.275,-2.101 0.552,-2.703c1.825,-1.329 12.447,6.95 14.286,10.255l8.994,-5.637c0,0 -2.764,-9.457 -13.365,-10.958Z" style="fill:#fff;fill-opacity:0.1;"/><path d="M107.309,31.323l-9.621,5.555c-0,0 15.462,3.721 19.073,7.435c2.176,2.238 0.695,3.978 0.695,3.978l9.305,-5.327c0,-0 0.508,-0.565 0.539,-1.025c0.05,-0.719 0.058,-1.826 -0.223,-2.779c-1.724,-5.851 -19.768,-7.837 -19.768,-7.837Z" style="fill:#d3d3d3;fill-opacity:0.1;"/><path d="M75.626,25.355c1.428,3.356 6.382,6.302 13.969,8.943c0.078,0.027 0.233,0.081 0.233,0.081l0.635,-1.472c-1.838,-3.304 -12.46,-11.584 -14.286,-10.255c-0.826,0.602 -0.551,2.703 -0.551,2.703Zm-0.271,-1.981l-0.003,0.049c0.001,-0.016 0.002,-0.032 0.003,-0.049Z" style="fill:#d3d3d3;fill-opacity:0.13;"/><path d="M76.148,24.102c-0.141,0.648 0.321,1.737 0.736,2.257c2.438,3.05 5.136,4.182 11.76,6.878c0.385,0.157 0.994,0.474 0.994,0.474l-0,-0.949c-2.125,-2.767 -11.136,-10.148 -13.005,-9.434c-0.273,0.104 -0.406,0.412 -0.485,0.774Z" style="fill-opacity:0.42;"/><path d="M117.096,46.626c-0.01,0.822 -0.379,1.057 -0.792,1c-2.611,-0.359 -6.988,-3.144 -11.717,-6.03c-0.743,-0.453 -4.384,-2.541 -4.384,-2.541l0.004,-0.855c2.693,0.931 13.721,4.152 16.35,7.024c0.338,0.368 0.545,0.976 0.539,1.402Z" style="fill:#545454;fill-opacity:0.24;"/><path d="M99.174,26.339c4.882,0.14 9.355,4.847 9.355,4.847l0.548,-0.203c-0,-0 -0.013,-0.016 -0.025,-0.028c-0.982,-0.957 -5.033,-4.627 -9.346,-4.638c-0.177,-0.001 -0.355,0.007 -0.532,0.022Z" style="fill:#d3d3d3;fill-opacity:0.18;"/><path d="M98.982,21.56c1.948,-2.702 4.781,-5.509 8.766,-7.18c1.019,-0.427 1.787,-0.118 1.787,-0.118c-0,-0 5.952,1.865 7.251,4.1c0.138,0.237 0.191,0.569 0.195,0.927l0.007,0.01l-0.007,0.04c-0.002,0.958 -0.341,2.079 -0.341,2.079c-0.845,2.246 -2.766,4.624 -5.603,7.113c1.899,-0.963 3.865,-1.763 5.135,-1.747c4.108,0.05 8.178,0.98 7.693,5.701c-0.177,1.725 -9.205,5.29 -9.205,5.29c-1.641,1.165 -14.457,0.395 -14.457,0.395c0,0 -12.816,0.77 -14.456,-0.395c-0,0 -9.029,-3.565 -9.206,-5.29c-0.485,-4.721 3.585,-5.651 7.693,-5.701c0.243,-0.003 0.512,0.024 0.802,0.076c-1.698,-1.817 -2.87,-3.565 -3.453,-5.236l-0.003,-0.025l0.003,0.025c0,0 -0.309,-1.124 -0.286,-2.082l-0.005,-0.04l0.007,-0.01c0.013,-0.358 0.075,-0.689 0.219,-0.925c1.358,-2.223 7.359,-4.036 7.359,-4.036c0,-0 0.776,-0.302 1.784,0.134c3.766,1.63 6.452,4.289 8.321,6.895Zm0.377,9.337l-3.236,1.547l4.08,2.238l2.947,-1.616l-0.129,-0.363l-3.662,-1.806Z" style="fill:#001b35;"/><path d="M106.275,29.219c3.118,-4.045 8.344,-9.817 9.589,-9.627c0.23,0.036 0.334,0.304 0.388,0.64c0.098,0.599 -0.34,1.777 -0.717,2.386c-2.023,3.273 -4.175,5.028 -8.974,8.56c0.089,-0.604 -0.027,-1.284 -0.286,-1.959Z" style="fill:#545454;fill-opacity:0.24;"/><path d="M95.943,26.387c2.571,-2.429 5.63,-2.279 8.316,-0c2.02,1.714 3.127,5.013 1.123,6.436c-3.431,2.436 -6.747,2.873 -10.386,-0.175c-1.898,-1.59 -0.98,-4.442 0.947,-6.261Z" style="fill:#001b35;"/><path d="M95.943,26.387c2.571,-2.429 5.63,-2.279 8.316,-0c2.02,1.714 3.127,5.013 1.123,6.436c-3.431,2.436 -6.747,2.873 -10.386,-0.175c-1.898,-1.59 -0.98,-4.442 0.947,-6.261Z" style="fill:#d3d3d3;fill-opacity:0.09;"/><path d="M112.465,36.986c0.438,-1.526 -1.57,-2.203 -3.633,-2.592c-1.588,-0.298 -3.07,0.025 -4.389,0.537c-0.6,0.233 -4.24,1.751 -4.24,1.751l0,0.369c0.023,-0.131 4.661,0.269 6.409,0.331c-0,-0 5.693,0.162 5.853,-0.396Z" style="fill:#545454;fill-opacity:0.18;"/><path d="M87.941,36.986c-0.438,-1.526 1.57,-2.203 3.633,-2.592c1.588,-0.298 3.071,0.025 4.389,0.537c0.6,0.233 4.24,1.751 4.24,1.751l0,0.369c-0.023,-0.131 -4.661,0.269 -6.408,0.331c-0,-0 -5.694,0.162 -5.854,-0.396Z" style="fill:#545454;fill-opacity:0.18;"/><path d="M86.074,27.125c-1.398,-1.33 -2.43,-2.614 -3.417,-4.292c-0.361,-0.612 -0.768,-1.794 -0.654,-2.392c0.063,-0.335 0.174,-0.602 0.405,-0.636c1.306,-0.187 6.784,6.172 9.725,10.247c-1.803,-1.061 -4.168,-2.331 -6.059,-2.927Z" style="fill:#545454;fill-opacity:0.24;"/></svg>
