<?xml version="1.0" encoding="UTF-8" standalone="no"?><!DOCTYPE svg PUBLIC "-//W3C//DTD SVG 1.1//EN" "http://www.w3.org/Graphics/SVG/1.1/DTD/svg11.dtd"><svg width="100%" height="100%" viewBox="0 0 200 200" version="1.1" xmlns="http://www.w3.org/2000/svg" xmlns:xlink="http://www.w3.org/1999/xlink" xml:space="preserve" xmlns:serif="http://www.serif.com/" style="fill-rule:evenodd;clip-rule:evenodd;stroke-linejoin:round;stroke-miterlimit:2;"><path d="M97.547,47.366c-0.597,-0.37 -12.872,-7.655 -15.741,-9.041c-6.923,-3.343 -16.154,-2.497 -26.285,3.352c-21.461,12.39 -38.884,42.568 -38.884,67.348c0,11.357 3.66,19.623 9.691,24.051c2.755,2.023 14.599,8.903 17.86,10.266c6.811,2.848 15.679,1.831 25.369,-3.764c21.46,-12.39 38.883,-42.568 38.883,-67.348c0,-12.094 -4.15,-20.681 -10.893,-24.864Z" style="fill:#001b35;"/><path d="M69.557,49.781c-21.46,12.39 -38.883,42.567 -38.883,67.348c-0,24.78 17.423,34.839 38.883,22.449c21.46,-12.39 38.883,-42.568 38.883,-67.348c0,-24.78 -17.423,-34.839 -38.883,-22.449Z" style="fill:#001b35;"/><path d="M69.557,54.013c-19.438,11.222 -35.218,38.555 -35.218,61c-0,22.444 15.78,31.555 35.218,20.333c19.438,-11.222 35.218,-38.555 35.218,-61c0,-22.445 -15.78,-31.556 -35.218,-20.333Z" style="fill:#fcfcfc;fill-opacity:0.07;"/><path d="M97.145,47.124c-2.242,-1.34 -12.718,-7.533 -15.339,-8.799c-6.923,-3.343 -16.154,-2.497 -26.285,3.352c-21.461,12.39 -38.884,42.568 -38.884,67.348c0,11.357 3.66,19.623 9.691,24.051c2.454,1.802 12.121,7.458 16.507,9.635c-7.488,-3.863 -12.161,-12.749 -12.161,-25.582c-0,-24.781 17.423,-54.958 38.883,-67.348c10.782,-6.225 20.544,-6.784 27.588,-2.657Z" style="fill:#fcfcfc;fill-opacity:0.09;"/><path d="M86.553,49.247c-5.04,-0.306 -10.834,1.208 -16.996,4.766c-19.438,11.222 -35.218,38.555 -35.218,61c-0,7.115 1.585,12.89 4.37,17.101c5.04,0.306 10.834,-1.208 16.996,-4.765c19.438,-11.223 35.218,-38.556 35.218,-61c0,-7.115 -1.585,-12.89 -4.37,-17.102Z" style="fill:#fcfcfc;fill-opacity:0.07;"/><path d="M70.598,36.477c-4.638,0.42 -9.732,2.114 -15.077,5.2c-0.528,0.305 -1.054,0.62 -1.576,0.946l14.036,8.104c0.523,-0.326 1.048,-0.642 1.576,-0.946c5.346,-3.087 10.441,-4.78 15.077,-5.2l-14.036,-8.104Z" style="fill:#2ccdba;"/><path d="M41.185,53.108c-3.144,3.258 -6.087,6.86 -8.768,10.699l14.037,8.104c2.679,-3.838 5.622,-7.44 8.767,-10.699l-14.036,-8.104Z" style="fill:#2ccdba;"/><path d="M24.032,78.422c-1.963,4.258 -3.587,8.622 -4.808,12.984l14.037,8.104c1.22,-4.362 2.844,-8.727 4.808,-12.984l-14.037,-8.104Z" style="fill:#2ccdba;"/><path d="M16.65,107.846c-0.009,0.394 -0.013,0.787 -0.013,1.179c0,6.634 1.249,12.213 3.49,16.588l14.036,8.105c-2.241,-4.377 -3.489,-9.955 -3.489,-16.589c-0,-0.392 0.004,-0.785 0.013,-1.179l-14.037,-8.104Z" style="fill:#2ccdba;"/><path d="M50.934,140.943c-0.008,-1.649 -0.008,-47.182 -0,-48.831c0.039,-8.115 5.392,-16.224 16.057,-22.411c21.409,-12.42 56.172,-12.42 77.581,0c10.665,6.187 16.017,14.296 16.057,22.411c0.008,1.649 0.008,47.182 0,48.831c-0.04,8.115 -5.392,16.224 -16.057,22.411c-21.409,12.42 -56.172,12.42 -77.581,-0c-10.665,-6.187 -16.018,-14.296 -16.057,-22.411Z" style="fill:#001b35;"/><path d="M66.991,69.701c21.409,-12.42 56.172,-12.42 77.581,0c21.409,12.42 21.409,32.586 0,45.006c-21.409,12.419 -56.172,12.419 -77.581,-0c-21.41,-12.42 -21.41,-32.586 -0,-45.006Z" style="fill:#001b35;"/><path d="M70.84,71.934c19.285,-11.187 50.598,-11.187 69.883,0c19.285,11.187 19.285,29.352 -0,40.54c-19.285,11.187 -50.598,11.187 -69.883,-0c-19.285,-11.188 -19.285,-29.353 -0,-40.54Z" style="fill:#fcfcfc;fill-opacity:0.08;"/><path d="M79.341,116.427c16.083,5.916 36.795,5.916 52.88,-0c-16.082,-5.916 -36.794,-5.917 -52.88,-0Z" style="fill:#fcfcfc;fill-opacity:0.08;"/><path d="M50.935,92.015c-0.085,8.208 5.267,16.433 16.056,22.692c21.409,12.419 56.172,12.419 77.581,-0c10.788,-6.259 16.14,-14.484 16.056,-22.692l0.001,0.097c0.008,1.649 0.008,47.068 0,48.717c-0.04,8.115 -5.392,16.224 -16.057,22.411c-21.409,12.419 -56.172,12.419 -77.581,-0c-10.665,-6.187 -16.018,-14.296 -16.057,-22.411c-0.008,-1.649 -0.008,-47.068 -0,-48.717l0.001,-0.097Zm0.003,-0.192l-0.003,0.188l0.001,-0.089l0.002,-0.099Zm109.689,0.099l0.001,0.089l-0.003,-0.188l0.002,0.099Z" style="fill:#fcfcfc;fill-opacity:0.07;"/></svg>
