<?xml version="1.0" encoding="UTF-8" standalone="no"?><!DOCTYPE svg PUBLIC "-//W3C//DTD SVG 1.1//EN" "http://www.w3.org/Graphics/SVG/1.1/DTD/svg11.dtd"><svg width="100%" height="100%" viewBox="0 0 200 200" version="1.1" xmlns="http://www.w3.org/2000/svg" xmlns:xlink="http://www.w3.org/1999/xlink" xml:space="preserve" xmlns:serif="http://www.serif.com/" style="fill-rule:evenodd;clip-rule:evenodd;stroke-linejoin:round;stroke-miterlimit:2;"><path d="M23.868,66.814c-0,0 76.132,-43.954 76.132,-43.954l76.132,43.954c0,0 0,15.062 0,15.062l-2.345,1.354l0,51.309l-73.787,42.601l-73.787,-42.601l-0,-51.309l-2.345,-1.354l-0,-15.062Z" style="fill:#001b35;"/><path d="M150.03,81.864l-0,15.062l-23.919,13.809l0,-15.062l23.919,-13.809Z" style="fill:#2ccdc2;"/><path d="M147.769,98.23l0,51.31l-23.918,13.809l0,-51.309l23.918,-13.81Z" style="fill:#2ccdc2;"/><path d="M49.975,81.887l-0,15.062l23.918,13.809l-0,-15.062l-23.918,-13.809Z" style="fill:#2ccdc2;"/><path d="M52.235,98.254l0,51.309l23.918,13.81l0,-51.31l-23.918,-13.809Z" style="fill:#2ccdc2;"/><path d="M173.787,83.248l-73.787,42.601l-73.787,-42.601l-0,51.572l73.787,42.32l73.787,-42.32l0,-51.572Z" style="fill:#d8d8d8;fill-opacity:0.11;"/><path d="M100,125.831l-73.787,-42.601l-0,51.309l73.787,42.601l0,-51.309Z" style="fill:#d8d8d8;fill-opacity:0.11;"/><path d="M100,110.769l-76.132,-43.955l-0,15.062l76.132,43.955l0,-15.062Z" style="fill:#d8d8d8;fill-opacity:0.14;"/><path d="M100,110.769l76.132,-43.955l0,15.062l-76.132,43.955l0,-15.062Z" style="fill:#fff;fill-opacity:0.07;"/><path d="M126.107,37.932l-76.132,43.955l23.918,13.809l76.132,-43.954l-23.918,-13.81Z" style="fill:#2ccdc2;"/><path d="M49.975,51.742l76.132,43.954l23.918,-13.809l-76.132,-43.955l-23.918,13.81Z" style="fill:#2ccdc2;"/><path d="M115.828,61.905l-24.915,0.675c3.734,17.34 4.619,32.299 3.718,45.765c4.146,-2.774 8.956,-5.592 12.501,-7.716c6.105,1.604 9.375,4.247 12.414,7.041c0.598,-14.759 -1.011,-30.114 -3.718,-45.765Z" style="fill:#2ccdc2;"/><path d="M115.828,60.634l-24.915,0.674c3.734,17.341 4.619,32.3 3.718,45.765c4.146,-2.773 8.956,-5.591 12.501,-7.715c6.105,1.604 9.375,4.247 12.414,7.041c0.598,-14.76 -1.011,-30.114 -3.718,-45.765Z" style="fill:#2ccdc2;"/><path d="M94.713,107.018c-0.025,0.444 -0.053,0.886 -0.082,1.327c4.146,-2.774 8.956,-5.592 12.501,-7.716c6.105,1.604 9.375,4.247 12.414,7.041c0.092,-2.282 0.132,-4.578 0.123,-6.888c-0.007,1.882 -0.048,3.754 -0.123,5.617c-3.039,-2.794 -6.309,-5.437 -12.414,-7.041c-3.521,2.11 -8.292,4.905 -12.419,7.66Z" style="fill:#2ccdc2;"/><path d="M35.958,55.805l-0,1.053c-0,-0 4.003,2.69 5.16,5.341c-2.355,1.847 -5.57,8.004 -5.57,8.004l-0,1.053c0.053,-0.699 50.124,-2.824 65.733,-0.574l0.41,-14.399l-0.03,-0.001l0.03,-1.052c-7.35,-0.439 -20.473,-1.15 -33.072,-0.958c-16.797,0.256 -32.661,1.533 -32.661,1.533Z" style="fill:#2ccdc2;"/><path d="M35.958,55.805c2.598,1.339 4.316,2.979 5.485,6.152c-2.525,1.79 -4.313,5.239 -5.895,8.246c26.71,-2.259 50.052,-1.878 65.733,-0.574l0.41,-14.399c-17.149,-1.024 -40.036,-1.689 -65.733,0.575Z" style="fill:#2ccdc2;"/><path d="M101.281,70.682l-0,-1.053c-15.559,-1.294 -38.659,-1.679 -65.108,0.522l-0.625,0.052l-0,1.053c0.053,-0.699 50.124,-2.824 65.733,-0.574Zm-65.323,-14.877l-0,1.053c-0,-0 4.003,2.69 5.16,5.341l0.033,-0.025c0.096,-0.075 0.194,-0.147 0.292,-0.217c-1.169,-3.173 -2.887,-4.813 -5.485,-6.152Z" style="fill:#2ccdc2;"/><path d="M101.281,70.682l-0,-1.053c-15.559,-1.294 -38.659,-1.679 -65.108,0.522l-0.625,0.052l-0,1.053c0.053,-0.699 50.124,-2.824 65.733,-0.574Zm-65.323,-14.877l-0,1.053c-0,-0 4.003,2.69 5.16,5.341l0.033,-0.025c0.096,-0.075 0.194,-0.147 0.292,-0.217c-1.169,-3.173 -2.887,-4.813 -5.485,-6.152Z" style="fill:#4d4d4d;fill-opacity:0.12;"/><path d="M109.965,58.062l-17.637,10.182l0,2.664c0,-1.288 31.78,21.91 36.238,18.258l16.877,-9.661l-35.478,-21.443Z" style="fill:#2ccdc2;"/><path d="M55.054,44.757l0.512,3.61c3.263,7.669 16.575,14.172 36.762,19.877l17.637,-10.182l-36.615,-23.561l-16.891,8.211l-1.405,2.045Z" style="fill:#2ccdc2;"/><path d="M74.754,31.788c-2.076,-0.294 -3.704,0.606 -3.704,0.606c0,-0 -12.562,6.037 -15.484,10.604c-1.152,1.8 -0,5.369 -0,5.369c-0,-0 -0.504,-3.853 1.011,-4.956c3.347,-2.436 22.818,12.742 26.189,18.799l16.488,-10.333c-0,0 -5.068,-17.337 -24.5,-20.089Z" style="fill:#2ccdc2;"/><path d="M55.566,48.367c2.617,6.151 11.699,11.552 25.608,16.393c0.142,0.049 0.428,0.148 0.428,0.148l1.164,-2.698c-3.371,-6.057 -22.842,-21.235 -26.189,-18.799c-1.515,1.103 -1.011,4.956 -1.011,4.956Zm-0.497,-3.632l-0.015,0.022l0.009,0.067c0.002,-0.029 0.004,-0.059 0.006,-0.089Z" style="fill:#2ccdc2;"/><path d="M56.523,46.07c-0.258,1.187 0.589,3.184 1.35,4.137c4.468,5.591 9.414,7.666 21.557,12.609c0.707,0.287 1.822,0.868 1.822,0.868l0,-1.74c-3.896,-5.073 -20.413,-18.602 -23.841,-17.294c-0.499,0.191 -0.744,0.755 -0.888,1.42Z" style="fill:#2ccdc2;fill-opacity:0.24;"/><path d="M127.908,86.114c-0.02,1.507 -0.696,1.937 -1.454,1.833c-4.785,-0.657 -12.809,-5.763 -21.479,-11.053c-1.361,-0.831 -7.066,-4.099 -7.066,-4.099l0,-1.74c4.937,1.706 24.19,7.223 29.011,12.489c0.618,0.675 0.998,1.789 0.988,2.57Z" style="fill:#2ccdc2;fill-opacity:0.24;"/><path d="M117.256,59.045l-0.371,-0.363l-2.337,0.871c0,0 -14.655,8.146 -17.193,10.395c-0.884,0.783 -0.615,2.878 -0.317,4.251c0.016,0.074 0.048,0.215 0.048,0.215l1.18,0.774l0.447,0.251l0.933,-0.263l-1.215,-0.797c-0,-0 -0.032,-0.141 -0.048,-0.215c-0.298,-1.374 -0.567,-3.468 0.317,-4.252c2.538,-2.248 17.193,-10.394 17.193,-10.394l1.363,-0.473Z" style="fill:#2ccdc2;"/><path d="M94.713,107.018c-0.025,0.444 -0.053,0.886 -0.082,1.327c4.146,-2.774 8.956,-5.592 12.501,-7.716c6.105,1.604 9.375,4.247 12.414,7.041c0.092,-2.282 0.132,-4.578 0.123,-6.888c-0.007,1.882 -0.048,3.754 -0.123,5.617c-3.039,-2.794 -6.309,-5.437 -12.414,-7.041c-3.521,2.11 -8.292,4.905 -12.419,7.66Z" style="fill:#4d4d4d;fill-opacity:0.14;"/><path d="M109.965,58.062l-17.637,10.182l0,2.664c0,-1.288 31.78,21.91 36.238,18.258l16.877,-9.661l-35.478,-21.443Z" style="fill:#4d4d4d;fill-opacity:0.14;"/><path d="M55.566,48.367c2.617,6.151 11.699,11.552 25.608,16.393c0.142,0.049 0.428,0.148 0.428,0.148l1.164,-2.698c-3.371,-6.057 -22.842,-21.235 -26.189,-18.799c-1.515,1.103 -1.011,4.956 -1.011,4.956Zm-0.497,-3.632l-0.015,0.022l0.009,0.067c0.002,-0.029 0.004,-0.059 0.006,-0.089Z" style="fill:#4d4d4d;fill-opacity:0.13;"/><path d="M56.523,46.07c-0.258,1.187 0.589,3.184 1.35,4.137c4.468,5.591 9.414,7.666 21.557,12.609c0.707,0.287 1.822,0.868 1.822,0.868l0,-1.74c-3.896,-5.073 -20.413,-18.602 -23.841,-17.294c-0.499,0.191 -0.744,0.755 -0.888,1.42Z" style="fill:#4d4d4d;fill-opacity:0.08;"/><path d="M127.908,86.114c-0.02,1.507 -0.696,1.937 -1.454,1.833c-4.785,-0.657 -12.809,-5.763 -21.479,-11.053c-1.361,-0.831 -7.066,-4.099 -7.066,-4.099l0,-1.74c4.937,1.706 24.19,7.223 29.011,12.489c0.618,0.675 0.998,1.789 0.988,2.57Z" style="fill:#4d4d4d;fill-opacity:0.09;"/><path d="M109.965,58.062l-17.637,10.182c0,0 28.345,6.821 34.964,13.63c3.989,4.103 1.274,7.292 1.274,7.292l17.059,-9.766c-0,0 0.93,-1.034 0.988,-1.879c0.091,-1.317 0.106,-3.346 -0.409,-5.094c-3.161,-10.725 -36.239,-14.365 -36.239,-14.365Z" style="fill:#2ccdc2;"/><path d="M99.709,50.129c-7.267,-0.018 -14.805,7.404 -17.637,10.183c-1.836,1.803 -0.014,5.794 -0.014,5.794l16.655,9.333l0.933,-0.263l-1.215,-0.797c-0,-0 -0.032,-0.141 -0.048,-0.215c-0.298,-1.374 -0.567,-3.468 0.317,-4.252c2.538,-2.248 17.193,-10.394 17.193,-10.394l1.363,-0.473c-0,0 -8.455,-8.892 -17.547,-8.916Z" style="fill:#2ccdc2;"/><path d="M99.709,50.129c-7.267,-0.018 -14.805,7.404 -17.637,10.183c-1.836,1.803 -0.014,5.794 -0.014,5.794l16.655,9.333l0.933,-0.263l-1.215,-0.797c-0,-0 -0.032,-0.141 -0.048,-0.215c-0.298,-1.374 -0.567,-3.468 0.317,-4.252c2.538,-2.248 17.193,-10.394 17.193,-10.394l1.363,-0.473c-0,0 -8.455,-8.892 -17.547,-8.916Z" style="fill:#4d4d4d;fill-opacity:0.09;"/><path d="M98.733,50.171c8.95,0.256 17.15,8.884 17.15,8.884l1.004,-0.372c-0,-0 -0.022,-0.03 -0.045,-0.052c-1.801,-1.753 -9.226,-8.481 -17.133,-8.502c-0.325,-0 -0.65,0.014 -0.976,0.042Z" style="fill:#2ccdc2;fill-opacity:0.18;"/></svg>
