<?xml version="1.0" encoding="UTF-8" standalone="no"?><!DOCTYPE svg PUBLIC "-//W3C//DTD SVG 1.1//EN" "http://www.w3.org/Graphics/SVG/1.1/DTD/svg11.dtd"><svg width="100%" height="100%" viewBox="0 0 200 200" version="1.1" xmlns="http://www.w3.org/2000/svg" xmlns:xlink="http://www.w3.org/1999/xlink" xml:space="preserve" xmlns:serif="http://www.serif.com/" style="fill-rule:evenodd;clip-rule:evenodd;stroke-linejoin:round;stroke-miterlimit:2;"><path d="M39.242,139.482c-0.009,-1.828 -0.009,-52.272 0,-54.099c0.044,-8.991 5.974,-17.975 17.789,-24.829c23.719,-13.759 62.233,-13.759 85.951,0c11.816,6.854 17.746,15.838 17.79,24.829c0.009,1.827 0.009,52.272 -0,54.099c-0.044,8.99 -5.974,17.974 -17.79,24.828c-23.718,13.76 -62.232,13.76 -85.951,0c-11.815,-6.854 -17.745,-15.838 -17.789,-24.828Z" style="fill:#001b35;"/><path d="M57.031,60.554c23.719,-13.759 62.233,-13.759 85.951,0c23.719,13.759 23.719,36.101 0,49.861c-23.718,13.759 -62.232,13.759 -85.951,-0c-23.719,-13.76 -23.719,-36.102 0,-49.861Z" style="fill:#001b35;"/><path d="M39.243,85.275c-0.093,9.094 5.836,18.206 17.788,25.14c23.719,13.759 62.233,13.759 85.951,-0c11.952,-6.934 17.882,-16.046 17.788,-25.14l0.002,0.108c0.009,1.827 0.009,52.145 -0,53.972c-0.044,8.991 -5.974,17.975 -17.79,24.829c-23.718,13.759 -62.232,13.759 -85.951,-0c-11.815,-6.854 -17.745,-15.838 -17.789,-24.829c-0.009,-1.827 -0.009,-52.145 0,-53.972l0.001,-0.108Zm0.003,-0.213l-0.003,0.209l0.001,-0.099l0.002,-0.11Zm121.523,0.11l0.001,0.099l-0.003,-0.209l0.002,0.11Z" style="fill:#fcfcfc;fill-opacity:0.07;"/><path d="M33.796,97.008c-0.01,-1.982 -0.01,-15.701 -0,-17.682c0.048,-9.749 6.508,-19.491 19.381,-26.923c25.843,-14.92 67.803,-14.92 93.646,0c12.873,7.432 19.333,17.174 19.381,26.923c0.01,1.981 0.01,15.7 0,17.682c-0.048,9.748 -6.508,19.49 -19.381,26.922c-25.843,14.92 -67.803,14.92 -93.646,0c-12.873,-7.432 -19.333,-17.174 -19.381,-26.922Z" style="fill:#001b35;"/><path d="M53.177,52.403c25.843,-14.92 67.803,-14.92 93.646,0c25.842,14.92 25.842,39.146 -0,54.066c-25.843,14.92 -67.803,14.92 -93.646,0c-25.842,-14.92 -25.842,-39.146 0,-54.066Z" style="fill:#001b35;"/><path d="M74.977,44.034c9.204,-2.164 19.085,-3.083 28.863,-2.757l-69.933,40.376c-0.565,-5.645 1.027,-11.35 4.775,-16.664l36.295,-20.955Z" style="fill:#2ccdba;"/><path d="M96.253,117.598l-0.093,-0.003l69.933,-40.376c0.565,5.645 -1.027,11.35 -4.775,16.664l-36.295,20.955l-0.038,0.009l0,17.461c-9.175,2.153 -19.02,3.07 -28.768,2.75l-0,-17.461l0.036,0.001Zm0.189,0.006l0.011,0l-0.011,-0Z" style="fill:#2ccdba;"/><path d="M59.415,109.648c0.42,0.189 0.42,0.189 0,0l92.914,-53.644c3.685,2.737 6.637,5.698 8.854,8.795l-86.535,49.961c-0.334,-0.08 -0.301,-0.072 0.05,0.012l-0,17.461c-5.381,-1.282 -10.527,-2.989 -15.283,-5.123l0,-17.462Zm1.347,0.589l0.027,0.011l-0.027,-0.011Z" style="fill:#2ccdba;"/><path d="M38.324,93.364l-0.027,-0.04l85.758,-49.512c5.445,1.222 10.664,2.875 15.499,4.958l-92.668,53.503l-0.026,-0.02c0.009,0.007 0.018,0.014 0.027,0.021l0,17.461c-3.61,-2.792 -6.473,-5.806 -8.59,-8.949l0,-17.461c0.009,0.013 0.018,0.026 0.027,0.039Z" style="fill:#2ccdba;"/><path d="M33.797,79.209c-0.101,9.861 6.359,19.742 19.38,27.26c25.843,14.92 67.803,14.92 93.646,0c13.021,-7.518 19.481,-17.399 19.38,-27.26l0.001,0.117c0.01,1.981 0.01,15.7 0,17.682c-0.048,9.748 -6.508,19.49 -19.381,26.922c-25.843,14.92 -67.803,14.92 -93.646,0c-12.873,-7.432 -19.333,-17.174 -19.381,-26.922c-0.01,-1.982 -0.01,-15.701 -0,-17.682l0.001,-0.117Zm0.004,-0.231l-0.004,0.226l0.001,-0.107l0.003,-0.119Zm132.401,0.119l0.001,0.107l-0.004,-0.226l0.003,0.119Z" style="fill:#001B35;fill-opacity:0.11;"/><path d="M97.548,76.977l0,1.044l8.29,-3.548l7.21,4.106l1.301,-12.028l9.163,10.645l4.106,-5.465l9.801,1.474l-0,-1.043c-0,-0 -19.291,-21.966 -22.715,-25.865c-0.324,-0.369 -0.807,-0.557 -1.295,-0.503c-2.247,0.247 -8.755,0.964 -11.461,1.261c-0.702,0.078 -1.255,0.633 -1.331,1.335c-0.598,5.569 -3.069,28.587 -3.069,28.587Z" style="fill:#001b35;"/><path d="M97.666,76.927l-0.118,1.094l8.29,-3.548l7.21,4.106l1.301,-12.028l9.163,10.645l4.106,-5.465l9.801,1.474l-0,-1.043l-9.801,-1.475l-4.106,5.466l-9.163,-10.645l-1.301,12.028l-7.21,-4.107l-8.172,3.498Z" style="fill:#fcfcfc;fill-opacity:0.29;"/><path d="M109.682,50.845c13.181,-1.538 25.389,1.518 27.245,6.821c1.857,5.302 -7.337,10.856 -20.518,12.394c-13.18,1.538 -25.388,-1.518 -27.245,-6.82c-1.856,-5.303 7.337,-10.857 20.518,-12.395Z" style="fill:#e3b500;"/><path d="M109.682,52.002c13.181,-1.538 25.389,1.518 27.245,6.821c1.857,5.302 -7.337,10.856 -20.518,12.394c-13.18,1.539 -25.388,-1.518 -27.245,-6.82c-1.856,-5.303 7.337,-10.857 20.518,-12.395Z" style="fill:#e3b500;"/><path d="M88.967,62.439c-0.726,-5.049 8.196,-10.133 20.715,-11.594c13.181,-1.538 25.389,1.518 27.245,6.821c0.228,0.651 0.29,1.306 0.197,1.957c0.727,5.05 -8.196,10.133 -20.715,11.594c-13.18,1.539 -25.388,-1.518 -27.245,-6.82c-0.228,-0.651 -0.289,-1.306 -0.197,-1.958Z" style="fill:#e3b500;"/><path d="M110.367,52.801c10.497,-1.225 20.219,1.209 21.698,5.432c1.478,4.223 -5.844,8.646 -16.34,9.871c-10.497,1.225 -20.22,-1.209 -21.698,-5.432c-1.479,-4.223 5.843,-8.646 16.34,-9.871Z" style="fill:#fcfcfc;fill-opacity:0.17;"/><path d="M104.183,61.409l0.652,-0.076c0.298,-0.269 0.517,-0.499 0.656,-0.689c0.138,-0.19 0.198,-0.311 0.18,-0.364c-0.025,-0.073 -0.179,-0.093 -0.461,-0.06c-0.162,0.026 -0.447,0.076 -0.856,0.149c-0.409,0.074 -0.803,0.151 -1.183,0.231c-0.341,0.07 -0.611,0.133 -0.812,0.189c-0.201,0.056 -0.341,0.1 -0.42,0.13c-0.079,0.031 -0.127,0.051 -0.144,0.063c0.211,-0.03 0.39,-0.054 0.537,-0.071c0.23,-0.027 0.349,-0.029 0.358,-0.006c0.003,0.01 -0.073,0.033 -0.229,0.068c-0.155,0.035 -0.302,0.069 -0.44,0.104c-0.134,0.034 -0.264,0.071 -0.39,0.111c-0.125,0.04 -0.202,0.062 -0.231,0.065c-0.066,0.008 -0.125,0.003 -0.176,-0.014c-0.051,-0.018 -0.082,-0.042 -0.093,-0.074c-0.008,-0.022 0.012,-0.083 0.059,-0.183c0.047,-0.101 0.127,-0.206 0.238,-0.315c0.112,-0.11 0.266,-0.199 0.464,-0.269c0.072,-0.025 0.309,-0.084 0.713,-0.177c0.404,-0.092 0.863,-0.187 1.377,-0.284c0.515,-0.097 0.991,-0.171 1.428,-0.222c0.265,-0.031 0.483,-0.04 0.654,-0.026c0.171,0.014 0.276,0.075 0.313,0.182c0.012,0.034 0.002,0.091 -0.03,0.17c-0.032,0.079 -0.091,0.182 -0.177,0.309c-0.086,0.127 -0.196,0.268 -0.329,0.423c-0.133,0.155 -0.288,0.32 -0.466,0.497l0.665,-0.078l-0.446,0.433c-0.077,0.012 -0.174,0.025 -0.29,0.04c-0.116,0.015 -0.243,0.031 -0.38,0.05c-0.283,0.246 -0.599,0.483 -0.949,0.711c-0.35,0.228 -0.674,0.416 -0.971,0.564c-0.298,0.147 -0.514,0.229 -0.65,0.245c-0.054,0.006 -0.105,0.004 -0.15,-0.007c-0.046,-0.012 -0.074,-0.03 -0.083,-0.056c-0.007,-0.021 0.037,-0.084 0.134,-0.189c0.097,-0.104 0.245,-0.208 0.446,-0.313c0.2,-0.104 0.444,-0.178 0.731,-0.221c0.099,-0.068 0.184,-0.129 0.254,-0.182c0.069,-0.053 0.168,-0.128 0.295,-0.228c0.127,-0.099 0.225,-0.175 0.293,-0.228l-1.29,0.18c-0.14,0.019 -0.238,0.028 -0.294,0.026c-0.056,-0.002 -0.09,-0.02 -0.102,-0.053c0,-0 0.009,-0.018 0.026,-0.054c0.018,-0.036 0.038,-0.068 0.061,-0.096c0.033,-0.042 0.062,-0.069 0.087,-0.08c0.024,-0.011 0.099,-0.03 0.224,-0.058l0.765,-0.179c0.204,-0.049 0.348,-0.078 0.432,-0.088Z" style="fill:#cda91a;fill-rule:nonzero;"/><path d="M109.161,61.189l0.045,0.128c-0.163,0.099 -0.298,0.168 -0.404,0.207c-0.106,0.039 -0.268,0.068 -0.486,0.088c-0.305,0.24 -0.6,0.377 -0.886,0.41c-0.161,0.019 -0.316,0.013 -0.465,-0.019c-0.149,-0.032 -0.277,-0.084 -0.385,-0.156c-0.108,-0.073 -0.179,-0.16 -0.215,-0.26c-0.028,-0.082 0.001,-0.18 0.089,-0.294c0.087,-0.114 0.213,-0.225 0.377,-0.334c0.164,-0.109 0.348,-0.203 0.551,-0.281c0.203,-0.079 0.4,-0.13 0.59,-0.152c0.135,-0.016 0.245,-0.019 0.329,-0.01c0.084,0.01 0.132,0.031 0.144,0.064c0.009,0.026 -0.014,0.059 -0.069,0.1c0.113,-0.002 0.194,0.006 0.243,0.025c0.048,0.019 0.084,0.059 0.105,0.122c0.022,0.061 0.017,0.142 -0.016,0.243c-0.032,0.101 -0.09,0.199 -0.173,0.293l0.09,0.026l0.064,-0.008c0.049,-0.006 0.096,-0.017 0.139,-0.033c0.044,-0.016 0.082,-0.033 0.116,-0.049c0.033,-0.017 0.105,-0.054 0.217,-0.11Zm-1.066,-0.4c-0.216,0.091 -0.4,0.173 -0.552,0.245c-0.152,0.071 -0.278,0.14 -0.377,0.207c-0.1,0.067 -0.16,0.129 -0.182,0.188c-0.022,0.151 -0.03,0.233 -0.026,0.244c0.029,0.084 0.176,0.111 0.441,0.08c0.124,-0.014 0.315,-0.086 0.572,-0.214c-0.07,-0.055 -0.114,-0.109 -0.133,-0.164c-0.029,-0.08 -0.02,-0.167 0.026,-0.259c0.045,-0.093 0.122,-0.202 0.231,-0.327Z" style="fill:#cda91a;fill-rule:nonzero;"/><path d="M109.162,61.346l-0.043,-0.125c0.127,-0.099 0.22,-0.183 0.281,-0.25c-0.097,-0.003 -0.17,-0.012 -0.219,-0.028c-0.049,-0.015 -0.081,-0.044 -0.095,-0.085c-0.016,-0.046 0.007,-0.109 0.069,-0.189c0.061,-0.08 0.145,-0.158 0.25,-0.235c0.105,-0.076 0.207,-0.129 0.304,-0.159c0.037,-0.013 0.075,-0.022 0.112,-0.027c0.058,-0.006 0.091,0.002 0.099,0.027c0.008,0.021 -0.021,0.071 -0.087,0.147c0.578,-0.11 0.945,-0.174 1.101,-0.192c0.06,-0.007 0.103,-0.009 0.128,-0.007c0.053,0.006 0.102,0.028 0.149,0.067c0.046,0.038 0.077,0.078 0.092,0.12c0.009,0.027 -0.007,0.059 -0.05,0.097c-0.042,0.037 -0.117,0.094 -0.226,0.169c-0.127,0.09 -0.228,0.185 -0.301,0.282c-0.074,0.098 -0.103,0.168 -0.088,0.212c0.021,0.06 0.115,0.08 0.282,0.061c0.176,-0.021 0.453,-0.136 0.832,-0.345l0.045,0.128c-0.2,0.139 -0.366,0.25 -0.499,0.332c-0.134,0.082 -0.26,0.149 -0.379,0.203c-0.119,0.053 -0.231,0.085 -0.334,0.097c-0.121,0.015 -0.231,0.002 -0.328,-0.038c-0.098,-0.04 -0.163,-0.106 -0.196,-0.199c-0.019,-0.055 -0.01,-0.122 0.029,-0.199c0.039,-0.078 0.105,-0.165 0.199,-0.262c0.093,-0.096 0.202,-0.194 0.326,-0.294c-0.078,0.017 -0.166,0.036 -0.264,0.056c-0.098,0.02 -0.201,0.041 -0.31,0.063c-0.11,0.022 -0.193,0.039 -0.252,0.051c-0.123,0.179 -0.332,0.353 -0.627,0.522Z" style="fill:#cda91a;fill-rule:nonzero;"/><path d="M113.329,59.947l-0,-0.234c-0.001,-0.079 0.023,-0.147 0.072,-0.203c0.049,-0.057 0.147,-0.123 0.292,-0.201c0.145,-0.077 0.373,-0.19 0.684,-0.338c0.747,-0.357 1.354,-0.563 1.82,-0.617c0.141,-0.016 0.246,-0.015 0.313,0.003c0.068,0.019 0.114,0.06 0.136,0.124c0.016,0.045 -0.001,0.111 -0.05,0.197c-0.049,0.087 -0.146,0.227 -0.29,0.419c-0.144,0.192 -0.27,0.364 -0.378,0.516c-0.089,0.125 -0.192,0.258 -0.31,0.4c-0.118,0.142 -0.196,0.24 -0.235,0.292c-0.038,0.052 -0.054,0.09 -0.046,0.113c0.009,0.025 0.036,0.045 0.08,0.059c0.043,0.015 0.093,0.019 0.147,0.012c0.075,-0.009 0.153,-0.036 0.234,-0.083c0.081,-0.047 0.238,-0.145 0.47,-0.296c0.112,-0.074 0.229,-0.16 0.352,-0.258c0.123,-0.098 0.275,-0.224 0.455,-0.376c0.18,-0.153 0.347,-0.295 0.499,-0.425c0.094,-0.082 0.179,-0.155 0.255,-0.22c0.077,-0.064 0.144,-0.115 0.201,-0.152c0.058,-0.036 0.107,-0.057 0.147,-0.062c0.035,-0.004 0.097,0.009 0.189,0.038l0.124,0.047c0.095,0.04 0.146,0.07 0.153,0.092c0.009,0.026 -0.065,0.132 -0.223,0.318c-0.158,0.187 -0.291,0.348 -0.399,0.483c-0.109,0.136 -0.243,0.329 -0.402,0.58c-0.16,0.25 -0.301,0.524 -0.425,0.822c0.516,-0.264 0.871,-0.441 1.064,-0.532c0.192,-0.091 0.338,-0.142 0.436,-0.154c0.066,-0.007 0.103,0.001 0.112,0.025c0.009,0.027 -0.01,0.065 -0.059,0.116c-0.048,0.05 -0.116,0.107 -0.205,0.171c-0.088,0.064 -0.223,0.158 -0.403,0.28c-0.18,0.123 -0.377,0.256 -0.591,0.399c-0.131,0.089 -0.253,0.188 -0.367,0.298c-0.115,0.111 -0.203,0.196 -0.266,0.256c-0.062,0.061 -0.126,0.099 -0.189,0.114c-0.094,0.024 -0.186,0.025 -0.278,0.003c-0.092,-0.023 -0.15,-0.068 -0.174,-0.137c-0.017,-0.049 0.004,-0.156 0.061,-0.32c0.058,-0.165 0.159,-0.374 0.305,-0.626c0.085,-0.151 0.175,-0.295 0.271,-0.431c0.096,-0.137 0.209,-0.289 0.338,-0.455c0.129,-0.165 0.257,-0.324 0.385,-0.474c0.127,-0.15 0.235,-0.279 0.323,-0.385c-0.229,0.201 -0.458,0.397 -0.686,0.588c-0.229,0.191 -0.487,0.394 -0.776,0.609c-0.289,0.215 -0.585,0.419 -0.889,0.613c-0.133,0.083 -0.229,0.14 -0.288,0.172c-0.059,0.031 -0.144,0.054 -0.253,0.066c-0.069,0.008 -0.14,0.006 -0.212,-0.008c-0.072,-0.013 -0.136,-0.035 -0.191,-0.063c-0.055,-0.029 -0.088,-0.059 -0.099,-0.091c-0.019,-0.054 -0.017,-0.103 0.004,-0.148c0.022,-0.045 0.063,-0.114 0.124,-0.206c0.268,-0.397 0.469,-0.671 0.602,-0.822c0.48,-0.529 0.71,-0.821 0.691,-0.876c-0.006,-0.018 -0.025,-0.031 -0.058,-0.038c-0.033,-0.008 -0.071,-0.009 -0.114,-0.004c-0.08,0.01 -0.171,0.037 -0.273,0.081c-0.101,0.044 -0.226,0.107 -0.374,0.188c-0.149,0.081 -0.33,0.179 -0.543,0.293c-0.213,0.114 -0.44,0.225 -0.681,0.334c-0.095,0.043 -0.203,0.094 -0.322,0.152c-0.119,0.057 -0.189,0.087 -0.209,0.09c-0.04,0.004 -0.063,-0.002 -0.07,-0.02c-0.006,-0.017 -0.009,-0.053 -0.011,-0.108Z" style="fill:#cda91a;fill-rule:nonzero;"/><path d="M121.394,59.761l0.045,0.128c-0.163,0.099 -0.298,0.168 -0.404,0.207c-0.106,0.039 -0.268,0.068 -0.486,0.088c-0.305,0.241 -0.6,0.378 -0.886,0.411c-0.161,0.019 -0.316,0.012 -0.465,-0.02c-0.149,-0.031 -0.277,-0.084 -0.385,-0.156c-0.108,-0.072 -0.179,-0.159 -0.215,-0.26c-0.028,-0.082 0.001,-0.18 0.089,-0.293c0.087,-0.114 0.213,-0.226 0.377,-0.335c0.164,-0.108 0.348,-0.202 0.551,-0.281c0.203,-0.079 0.4,-0.129 0.59,-0.152c0.135,-0.015 0.245,-0.019 0.329,-0.009c0.084,0.009 0.132,0.031 0.144,0.064c0.009,0.025 -0.014,0.059 -0.069,0.099c0.113,-0.002 0.194,0.006 0.243,0.025c0.048,0.019 0.084,0.06 0.105,0.122c0.022,0.062 0.017,0.143 -0.016,0.243c-0.032,0.101 -0.09,0.199 -0.173,0.294l0.09,0.025l0.064,-0.007c0.049,-0.006 0.096,-0.017 0.139,-0.034c0.044,-0.016 0.082,-0.032 0.116,-0.049c0.033,-0.016 0.105,-0.053 0.217,-0.11Zm-1.066,-0.4c-0.216,0.092 -0.401,0.173 -0.552,0.245c-0.152,0.071 -0.278,0.141 -0.377,0.207c-0.1,0.067 -0.16,0.13 -0.182,0.188c-0.022,0.151 -0.031,0.233 -0.026,0.244c0.029,0.085 0.176,0.111 0.441,0.08c0.124,-0.014 0.315,-0.085 0.572,-0.214c-0.07,-0.054 -0.114,-0.109 -0.133,-0.164c-0.029,-0.08 -0.02,-0.167 0.026,-0.259c0.045,-0.092 0.122,-0.201 0.231,-0.327Z" style="fill:#cda91a;fill-rule:nonzero;"/><path d="M123.375,59.398c-0.331,0.294 -0.588,0.505 -0.769,0.634c-0.181,0.129 -0.341,0.201 -0.479,0.217c-0.109,0.013 -0.217,0.005 -0.323,-0.025c-0.106,-0.029 -0.197,-0.075 -0.271,-0.137c-0.074,-0.063 -0.125,-0.133 -0.152,-0.211c-0.018,-0.051 -0.024,-0.098 -0.016,-0.142c0.007,-0.043 0.032,-0.093 0.076,-0.149c0.043,-0.056 0.104,-0.119 0.183,-0.188c0.079,-0.069 0.178,-0.148 0.297,-0.238c0.071,-0.055 0.13,-0.101 0.178,-0.138c0.049,-0.038 0.099,-0.065 0.151,-0.083c0.053,-0.017 0.142,-0.033 0.269,-0.048c0.092,-0.011 0.182,-0.015 0.269,-0.014c0.087,0.001 0.133,0.007 0.137,0.019c0.008,0.023 -0.02,0.069 -0.084,0.139c-0.064,0.07 -0.175,0.159 -0.333,0.267c-0.159,0.108 -0.347,0.218 -0.566,0.33c-0.028,0.082 -0.035,0.143 -0.022,0.182c0.02,0.055 0.077,0.077 0.172,0.066c0.034,-0.004 0.087,-0.024 0.159,-0.06c0.071,-0.035 0.19,-0.101 0.355,-0.198c0.165,-0.098 0.314,-0.184 0.447,-0.259c0.097,-0.056 0.204,-0.136 0.322,-0.24c0.118,-0.103 0.216,-0.182 0.293,-0.236c0.178,-0.125 0.301,-0.207 0.368,-0.246c0.067,-0.039 0.137,-0.063 0.209,-0.071c0.069,-0.008 0.119,-0.004 0.15,0.012c0.031,0.017 0.057,0.054 0.078,0.113c0.009,0.027 0.011,0.049 0.005,0.067c-0.005,0.018 -0.022,0.042 -0.048,0.073c-0.027,0.03 -0.083,0.087 -0.168,0.17c-0.085,0.083 -0.185,0.181 -0.301,0.294c-0.063,0.06 -0.114,0.125 -0.153,0.192c-0.04,0.068 -0.054,0.117 -0.043,0.148c0.023,0.066 0.094,0.092 0.212,0.079c0.098,-0.012 0.205,-0.043 0.322,-0.094c0.117,-0.051 0.293,-0.138 0.529,-0.263l0.044,0.129c-0.288,0.177 -0.502,0.306 -0.641,0.387c-0.14,0.082 -0.263,0.145 -0.37,0.191c-0.107,0.046 -0.213,0.075 -0.32,0.087c-0.242,0.028 -0.385,-0.021 -0.43,-0.149c-0.017,-0.048 -0.003,-0.118 0.04,-0.209c0.043,-0.091 0.118,-0.223 0.224,-0.398Z" style="fill:#cda91a;fill-rule:nonzero;"/><path d="M111.967,55.324c-0.797,-0.252 1.005,-1.145 1.866,-1.3c0.86,-0.156 2.372,0.913 3.556,1.006c1.184,0.092 2.877,0.295 3.549,-0.451c1.368,-1.521 -1.689,-1.022 -1.689,-1.022c-0.492,-0.258 1.055,-0.973 2.308,-0.672c0.928,0.224 1.899,1.305 0.683,1.975c-0.418,0.231 -2.435,0.412 -3.621,0.671c-5.596,1.22 -5.854,0.044 -6.652,-0.207Z" style="fill:#e3b500;"/><path d="M128.698,55.701c0.226,0.275 -0.942,0.586 -1.377,0.561c-0.435,-0.024 -0.597,-0.925 -1.058,-1.154c-0.461,-0.23 -1.089,-0.603 -1.71,-0.224c-1.265,0.774 0.258,0.896 0.258,0.896c0.093,0.236 -0.886,0.47 -1.283,0.097c-0.293,-0.277 -0.219,-1.107 0.598,-1.36c0.282,-0.087 1.22,0.088 1.84,0.093c2.925,0.027 2.506,0.815 2.732,1.091Z" style="fill:#e3b500;"/><path d="M128.99,56.351c-0.446,-0.089 -1.096,0.409 -1.098,0.592c-0.003,0.183 1.517,0.232 1.862,0.422c0.345,0.19 0.917,0.447 0.206,0.716c-1.45,0.548 -1.502,-0.091 -1.502,-0.091c-0.393,-0.034 -0.892,0.383 -0.296,0.542c0.442,0.119 1.866,0.071 2.381,-0.279c0.178,-0.12 -0.025,-0.512 0.029,-0.773c0.253,-1.232 -1.135,-1.039 -1.582,-1.129Z" style="fill:#e3b500;"/><path d="M130.6,60.948c-0.352,0.182 -1.285,-0.131 -1.411,-0.299c-0.125,-0.168 1.242,-0.554 1.432,-0.807c0.191,-0.252 0.545,-0.617 -0.291,-0.705c-1.705,-0.181 -1.323,0.42 -1.323,0.42c-0.34,0.12 -1.08,-0.153 -0.638,-0.433c0.328,-0.208 1.672,-0.483 2.382,-0.277c0.245,0.071 0.322,0.478 0.547,0.706c1.062,1.078 -0.347,1.212 -0.698,1.395Z" style="fill:#e3b500;"/><path d="M110.837,55.488c0.566,-0.41 -1.696,-0.829 -2.593,-0.779c-0.898,0.05 -1.571,1.373 -2.6,1.724c-1.029,0.351 -2.454,0.917 -3.574,0.381c-2.284,-1.095 0.869,-1.321 0.869,-1.321c0.28,-0.348 -1.627,-0.66 -2.579,-0.101c-0.705,0.414 -0.872,1.628 0.699,1.973c0.541,0.119 2.521,-0.167 3.788,-0.194c5.977,-0.13 5.424,-1.272 5.99,-1.683Z" style="fill:#e3b500;"/><path d="M95.613,59.415c-0.022,0.304 1.262,0.329 1.647,0.209c0.385,-0.121 -0.073,-0.987 0.198,-1.302c0.271,-0.315 0.598,-0.8 1.425,-0.589c1.687,0.43 0.366,0.883 0.366,0.883c0.073,0.239 1.132,0.235 1.247,-0.198c0.084,-0.321 -0.542,-1.069 -1.466,-1.119c-0.318,-0.017 -1.065,0.354 -1.633,0.499c-2.678,0.68 -1.761,1.313 -1.784,1.617Z" style="fill:#e3b500;"/><path d="M110.475,53.301c0.631,-0.073 1.247,0.163 1.374,0.527c0.128,0.364 -0.281,0.72 -0.912,0.793c-0.631,0.074 -1.246,-0.162 -1.374,-0.526c-0.127,-0.364 0.281,-0.72 0.912,-0.794Z" style="fill:#e3b500;"/><path d="M115.464,65.31c-0.566,0.41 1.696,0.829 2.593,0.78c0.898,-0.05 1.571,-1.374 2.6,-1.725c1.029,-0.351 2.454,-0.917 3.574,-0.38c2.284,1.094 -0.869,1.32 -0.869,1.32c-0.28,0.349 1.627,0.66 2.579,0.102c0.705,-0.414 0.872,-1.628 -0.699,-1.973c-0.541,-0.119 -2.521,0.166 -3.788,0.194c-5.977,0.13 -5.424,1.272 -5.99,1.682Z" style="fill:#e3b500;"/><path d="M130.627,61.211c0.023,-0.305 -1.262,-0.329 -1.647,-0.209c-0.384,0.12 0.073,0.986 -0.198,1.301c-0.27,0.315 -0.598,0.8 -1.425,0.589c-1.687,-0.429 -0.365,-0.883 -0.365,-0.883c-0.074,-0.238 -1.133,-0.234 -1.247,0.199c-0.085,0.32 0.542,1.069 1.466,1.119c0.318,0.017 1.065,-0.355 1.632,-0.499c2.678,-0.68 1.761,-1.313 1.784,-1.617Z" style="fill:#e3b500;"/><path d="M114.312,65.412c0.797,0.251 -1.005,1.144 -1.866,1.299c-0.86,0.156 -2.372,-0.913 -3.556,-1.005c-1.184,-0.093 -2.878,-0.295 -3.549,0.45c-1.368,1.521 1.689,1.022 1.689,1.022c0.492,0.259 -1.055,0.974 -2.308,0.672c-0.928,-0.223 -1.899,-1.304 -0.684,-1.975c0.419,-0.231 2.436,-0.412 3.622,-0.67c5.595,-1.221 5.854,-0.045 6.652,0.207Z" style="fill:#e3b500;"/><path d="M97.641,65.207c-0.225,-0.275 0.942,-0.586 1.377,-0.561c0.436,0.024 0.597,0.925 1.058,1.154c0.462,0.23 1.09,0.603 1.71,0.224c1.265,-0.774 -0.257,-0.896 -0.257,-0.896c-0.093,-0.236 0.886,-0.47 1.282,-0.097c0.294,0.277 0.22,1.107 -0.598,1.36c-0.282,0.087 -1.22,-0.088 -1.84,-0.093c-2.925,-0.027 -2.506,-0.815 -2.732,-1.091Z" style="fill:#e3b500;"/><path d="M115.449,67.508c0.631,-0.074 1.039,-0.429 0.912,-0.793c-0.128,-0.364 -0.743,-0.6 -1.374,-0.527c-0.631,0.074 -1.039,0.429 -0.912,0.794c0.128,0.364 0.743,0.6 1.374,0.526Z" style="fill:#e3b500;"/><path d="M127.44,58.618c0.289,-0.034 0.567,0.063 0.621,0.215c0.053,0.153 -0.138,0.304 -0.428,0.338c-0.289,0.034 -0.567,-0.063 -0.62,-0.215c-0.054,-0.153 0.138,-0.304 0.427,-0.338Z" style="fill:#e3b500;"/><path d="M95.593,60.247c0.351,-0.183 1.285,0.13 1.41,0.298c0.125,0.168 -1.242,0.555 -1.432,0.807c-0.19,0.252 -0.545,0.617 0.292,0.706c1.705,0.18 1.323,-0.42 1.323,-0.42c0.339,-0.12 1.079,0.152 0.638,0.433c-0.328,0.208 -1.673,0.483 -2.383,0.276c-0.244,-0.071 -0.321,-0.477 -0.546,-0.706c-1.062,-1.078 0.347,-1.212 0.698,-1.394Z" style="fill:#e3b500;"/><path d="M97.202,64.843c0.447,0.09 1.096,-0.408 1.099,-0.591c0.002,-0.183 -1.518,-0.233 -1.862,-0.422c-0.345,-0.19 -0.918,-0.447 -0.207,-0.716c1.45,-0.549 1.502,0.09 1.502,0.09c0.394,0.034 0.892,-0.383 0.297,-0.542c-0.442,-0.118 -1.866,-0.07 -2.382,0.279c-0.177,0.121 0.025,0.512 -0.028,0.774c-0.254,1.231 1.135,1.039 1.581,1.128Z" style="fill:#e3b500;"/><path d="M98.547,61.988c-0.289,0.034 -0.481,0.185 -0.427,0.338c0.053,0.152 0.331,0.249 0.62,0.215c0.289,-0.034 0.481,-0.185 0.427,-0.338c-0.053,-0.152 -0.331,-0.249 -0.62,-0.215Z" style="fill:#e3b500;"/><path d="M137.124,59.623c0.727,5.05 -8.196,10.133 -20.715,11.594c-13.18,1.539 -25.388,-1.518 -27.245,-6.82c-0.228,-0.651 -0.289,-1.306 -0.197,-1.958c0.038,0.268 0.104,0.535 0.197,0.801c1.857,5.302 14.065,8.358 27.245,6.82c11.563,-1.349 20.057,-5.788 20.715,-10.437Z" style="fill:#001B35;fill-opacity:0.22;"/></svg>
