<?xml version="1.0" encoding="UTF-8" standalone="no"?><!DOCTYPE svg PUBLIC "-//W3C//DTD SVG 1.1//EN" "http://www.w3.org/Graphics/SVG/1.1/DTD/svg11.dtd"><svg width="100%" height="100%" viewBox="0 0 200 200" version="1.1" xmlns="http://www.w3.org/2000/svg" xmlns:xlink="http://www.w3.org/1999/xlink" xml:space="preserve" xmlns:serif="http://www.serif.com/" style="fill-rule:evenodd;clip-rule:evenodd;stroke-linejoin:round;stroke-miterlimit:2;"><path d="M28.358,68.772c-0,-0 71.642,-41.363 71.642,-41.363l71.642,41.363c0,-0 0,14.173 0,14.173l-2.206,1.274l-0,48.283l-69.436,40.089l-69.436,-40.089l0,-48.283l-2.206,-1.274l-0,-14.173Z" style="fill:#001b35;"/><path d="M169.436,84.236l-69.436,40.089l-69.436,-40.089l0,48.531l69.436,39.824l69.436,-39.824l-0,-48.531Z" style="fill:#fff;fill-opacity:0.11;"/><path d="M100,124.308l-69.436,-40.089l0,48.283l69.436,40.089l0,-48.283Z" style="fill:#fff;fill-opacity:0.11;"/><path d="M171.642,68.772l0,14.173l-19.548,11.286l-0,-36.746l19.548,11.287Z" style="fill:#2ccdba;"/><path d="M132.849,46.374l-0,58.968l-19.549,11.287l0,-81.541l19.549,11.286Z" style="fill:#2ccdba;"/><path d="M94.055,120.532l-0.594,0l-18.954,-10.943l-0,-67.462l19.548,-11.286l0,89.691Z" style="fill:#2ccdba;"/><path d="M55.262,98.478l-19.549,-11.287l-0,-22.666l19.549,-11.286l-0,45.239Z" style="fill:#2ccdba;"/><path d="M57.599,99.827l-19.564,-11.295l0,48.284l19.564,11.295l0,-48.284Z" style="fill:#2ccdba;"/><path d="M96.44,122.252l-19.565,-11.295l0,48.283l19.565,11.296l-0,-48.284Z" style="fill:#2ccdba;"/><path d="M130.631,106.622l-19.564,11.296l0,48.283l19.564,-11.295l0,-48.284Z" style="fill:#2ccdba;"/><path d="M169.436,84.219l-19.564,11.295l-0,48.284l19.564,-11.296l-0,-48.283Z" style="fill:#2ccdba;"/><path d="M100,110.134l-71.642,-41.362l-0,14.173l71.642,41.363l0,-14.174Z" style="fill:#fff;fill-opacity:0.14;"/><path d="M100,110.134l71.642,-41.362l0,14.173l-71.642,41.363l0,-14.174Z" style="fill:#fff;fill-opacity:0.07;"/></svg>
