<?xml version="1.0" encoding="UTF-8" standalone="no"?><!DOCTYPE svg PUBLIC "-//W3C//DTD SVG 1.1//EN" "http://www.w3.org/Graphics/SVG/1.1/DTD/svg11.dtd"><svg width="100%" height="100%" viewBox="0 0 200 200" version="1.1" xmlns="http://www.w3.org/2000/svg" xmlns:xlink="http://www.w3.org/1999/xlink" xml:space="preserve" xmlns:serif="http://www.serif.com/" style="fill-rule:evenodd;clip-rule:evenodd;stroke-linejoin:round;stroke-miterlimit:2;"><path d="M153.505,43.249l-33.598,-19.397l-73.412,42.384l0,90.515l33.598,19.397l73.412,-42.384l-0,-90.515Z" style="fill:#001b35;"/><path d="M46.495,156.751l33.598,19.397l73.412,-42.384l-0,-90.515l-73.412,42.384l-33.598,-19.397l0,90.515Z" style="fill:#fcfcfc;fill-opacity:0.07;"/><path d="M46.495,156.751l33.598,19.397l0,-90.515l-33.598,-19.397l0,90.515Z" style="fill:#fcfcfc;fill-opacity:0.07;"/><path d="M63.294,140.59l16.799,31.355l0,-82.899l-16.799,12.748l0,38.796Z" style="fill:#fcfcfc;fill-opacity:0.07;"/><path d="M46.495,70.447l16.799,31.347l16.799,-12.738l0,-3.423l-33.598,-19.397l0,4.211Z" style="fill:#fcfcfc;fill-opacity:0.07;"/><path d="M80.093,171.937l-16.799,-31.347l-16.799,12.738l0,3.423l33.598,19.397l0,-4.211Z" style="fill:#fcfcfc;fill-opacity:0.07;"/><path d="M46.495,70.447l16.799,31.347l16.799,-12.738l0,-3.423l-33.598,-19.397l0,4.211Z" style="fill:#fcfcfc;fill-opacity:0.07;"/><path d="M80.093,171.937l-16.799,-31.347l-16.799,12.738l0,3.423l33.598,19.397l0,-4.211Z" style="fill:#fcfcfc;fill-opacity:0.07;"/><path d="M103.878,33.106l-6.023,3.477l33.567,19.38l6.023,-3.478l-33.567,-19.379Z" style="fill:#2ccdba;"/><path d="M137.445,52.485l-6.023,3.478l0,90.551l6.023,-3.478l-0,-90.551Z" style="fill:#2ccdba;"/><path d="M80.093,106.098l0,7.196l73.412,-42.384l-0,-7.196l-73.412,42.384Z" style="fill:#2ccdba;"/><path d="M46.495,86.719l0,7.177l33.598,19.398l0,-7.177l-33.598,-19.398Z" style="fill:#2ccdba;"/><path d="M122.646,93.495l0.372,0.215l4.693,-2.872l0.827,4.648l0.372,0.215l5.753,-11.701l-1.304,10.945l0.372,0.215l4.215,-5.441l2.851,2.2l0.372,0.215c0,0 2.659,-23.534 3.3,-29.208c0.034,-0.303 -0.067,-0.605 -0.277,-0.826c-0.12,-0.125 -0.267,-0.217 -0.429,-0.27c-0.205,-0.184 -0.476,-0.28 -0.753,-0.263c-1.285,0.08 -3.25,0.203 -4.229,0.264c-0.368,0.023 -0.697,0.242 -0.86,0.573c-2.043,4.159 -15.275,31.091 -15.275,31.091Z" style="fill:#2ccdba;"/><path d="M128.914,95.723l-0.376,-0.237l-0.827,-4.648l0.301,-0.184l0.902,5.069Zm4.817,-0.563l-0.372,-0.215l1.304,-10.945l0.525,-1.068l-1.457,12.228Zm-10.713,-1.446l15.275,-31.095c0.163,-0.331 0.492,-0.55 0.861,-0.573c0.978,-0.061 2.943,-0.184 4.228,-0.264c0.13,-0.008 0.26,0.009 0.381,0.048c-0.205,-0.184 -0.476,-0.28 -0.753,-0.263c-1.285,0.08 -3.25,0.203 -4.229,0.264c-0.368,0.023 -0.697,0.242 -0.86,0.573c-2.043,4.159 -15.275,31.091 -15.275,31.091l0.372,0.219Zm18.151,-1.58l-0.372,-0.215l-2.851,-2.2l0.035,-0.046l3.188,2.461Z" style="fill:#737373;fill-opacity:0.39;"/><path d="M140.356,66.804c5.975,-0.463 9.363,3.908 7.561,9.755c-1.802,5.848 -8.116,10.972 -14.09,11.435c-5.975,0.464 -9.363,-3.907 -7.561,-9.755c1.802,-5.848 8.116,-10.971 14.09,-11.435Z" style="fill:#e3b500;"/><path d="M139.87,66.523c5.975,-0.463 9.362,3.908 7.56,9.756c-1.802,5.847 -8.115,10.971 -14.09,11.434c-5.975,0.464 -9.362,-3.907 -7.561,-9.755c1.802,-5.848 8.116,-10.971 14.091,-11.435Z" style="fill:#e3b500;"/><path d="M128.676,86.887c-2.892,-1.508 -4.15,-4.861 -2.897,-8.929c1.802,-5.848 8.116,-10.971 14.091,-11.435c2.06,-0.16 3.812,0.255 5.15,1.107c2.893,1.509 4.15,4.862 2.897,8.929c-1.802,5.848 -8.116,10.972 -14.09,11.435c-2.061,0.16 -3.813,-0.255 -5.151,-1.107Z" style="fill:#e3b500;"/><path d="M139.692,68.961c4.758,-0.369 7.456,3.112 6.021,7.769c-1.435,4.657 -6.463,8.738 -11.222,9.107c-4.758,0.369 -7.456,-3.112 -6.021,-7.769c1.435,-4.657 6.463,-8.738 11.222,-9.107Z" style="fill:#fcfcfc;fill-opacity:0.17;"/><path d="M133.111,77.627l0.296,-0.023c0.247,-0.261 0.444,-0.487 0.59,-0.679c0.147,-0.191 0.229,-0.316 0.246,-0.373c0.025,-0.081 -0.026,-0.116 -0.154,-0.106c-0.077,0.013 -0.214,0.041 -0.412,0.083c-0.197,0.042 -0.391,0.089 -0.58,0.141c-0.169,0.044 -0.307,0.088 -0.414,0.13c-0.106,0.041 -0.183,0.075 -0.229,0.101c-0.046,0.025 -0.075,0.043 -0.087,0.054c0.098,-0.013 0.181,-0.022 0.247,-0.027c0.105,-0.009 0.153,0 0.145,0.025c-0.003,0.012 -0.044,0.029 -0.123,0.052c-0.078,0.024 -0.153,0.048 -0.225,0.072c-0.07,0.025 -0.139,0.053 -0.208,0.084c-0.069,0.032 -0.11,0.048 -0.123,0.049c-0.03,0.003 -0.051,-0.008 -0.063,-0.031c-0.012,-0.023 -0.013,-0.052 -0.002,-0.087c0.008,-0.024 0.045,-0.088 0.112,-0.192c0.067,-0.103 0.148,-0.208 0.245,-0.315c0.097,-0.108 0.201,-0.19 0.313,-0.246c0.041,-0.021 0.164,-0.063 0.368,-0.126c0.205,-0.062 0.433,-0.123 0.684,-0.181c0.251,-0.058 0.475,-0.094 0.674,-0.11c0.12,-0.009 0.21,0.002 0.272,0.032c0.061,0.03 0.074,0.104 0.037,0.223c-0.012,0.038 -0.043,0.097 -0.093,0.179c-0.051,0.082 -0.124,0.187 -0.219,0.315c-0.095,0.128 -0.206,0.269 -0.333,0.424c-0.127,0.154 -0.268,0.317 -0.423,0.49l0.301,-0.023l-0.384,0.423c-0.037,0.006 -0.081,0.011 -0.135,0.017c-0.053,0.005 -0.111,0.012 -0.175,0.02c-0.23,0.237 -0.469,0.463 -0.717,0.676c-0.249,0.213 -0.468,0.385 -0.656,0.517c-0.189,0.131 -0.314,0.199 -0.376,0.204c-0.025,0.002 -0.043,-0.005 -0.056,-0.021c-0.013,-0.016 -0.015,-0.039 -0.007,-0.067c0.008,-0.024 0.056,-0.087 0.144,-0.19c0.089,-0.103 0.198,-0.202 0.327,-0.296c0.13,-0.094 0.262,-0.151 0.397,-0.171c0.072,-0.064 0.135,-0.122 0.188,-0.172c0.053,-0.05 0.128,-0.123 0.226,-0.218c0.098,-0.094 0.174,-0.167 0.226,-0.218l-0.599,0.077c-0.065,0.008 -0.108,0.008 -0.129,0.001c-0.021,-0.007 -0.026,-0.029 -0.015,-0.066c-0,0 0.012,-0.018 0.036,-0.055c0.024,-0.037 0.048,-0.069 0.07,-0.097c0.034,-0.043 0.058,-0.069 0.073,-0.078c0.015,-0.01 0.054,-0.024 0.117,-0.042l0.389,-0.123c0.105,-0.034 0.177,-0.053 0.214,-0.056Z" style="fill:#cda91a;fill-rule:nonzero;"/><path d="M135.195,77.839l-0.043,0.141c-0.112,0.091 -0.199,0.153 -0.26,0.185c-0.061,0.032 -0.139,0.049 -0.235,0.051c-0.237,0.23 -0.42,0.35 -0.549,0.36c-0.073,0.006 -0.132,-0.015 -0.176,-0.062c-0.043,-0.048 -0.07,-0.115 -0.078,-0.202c-0.008,-0.088 0.005,-0.187 0.04,-0.298c0.027,-0.09 0.086,-0.192 0.175,-0.307c0.09,-0.114 0.193,-0.222 0.31,-0.324c0.118,-0.102 0.236,-0.186 0.354,-0.252c0.119,-0.066 0.221,-0.102 0.307,-0.109c0.061,-0.005 0.106,0.002 0.135,0.019c0.029,0.018 0.038,0.045 0.027,0.082c-0.009,0.028 -0.034,0.061 -0.075,0.1c0.046,0.008 0.074,0.024 0.084,0.048c0.011,0.025 0.005,0.072 -0.016,0.141c-0.021,0.067 -0.062,0.154 -0.123,0.259c-0.061,0.105 -0.131,0.204 -0.209,0.299l0.023,0.035l0.029,-0.002c0.023,-0.002 0.046,-0.01 0.072,-0.024c0.025,-0.013 0.048,-0.027 0.069,-0.042c0.021,-0.015 0.068,-0.048 0.139,-0.098Zm-0.232,-0.525c-0.13,0.079 -0.242,0.15 -0.337,0.213c-0.094,0.063 -0.177,0.126 -0.249,0.188c-0.071,0.063 -0.125,0.125 -0.162,0.185c-0.081,0.16 -0.124,0.247 -0.127,0.26c-0.029,0.092 0.017,0.134 0.137,0.125c0.056,-0.004 0.166,-0.064 0.33,-0.178c-0.002,-0.065 0.006,-0.127 0.025,-0.188c0.027,-0.088 0.072,-0.18 0.135,-0.275c0.062,-0.095 0.145,-0.205 0.248,-0.33Z" style="fill:#cda91a;fill-rule:nonzero;"/><path d="M135.12,78.007l0.043,-0.137c0.098,-0.096 0.175,-0.177 0.231,-0.243c-0.037,-0.012 -0.061,-0.029 -0.073,-0.05c-0.012,-0.021 -0.011,-0.054 0.003,-0.099c0.015,-0.051 0.055,-0.116 0.118,-0.197c0.063,-0.08 0.133,-0.156 0.211,-0.228c0.079,-0.072 0.144,-0.12 0.197,-0.144c0.022,-0.011 0.041,-0.017 0.058,-0.018c0.026,-0.002 0.035,0.01 0.027,0.037c-0.008,0.024 -0.043,0.074 -0.106,0.15c0.283,-0.066 0.459,-0.101 0.53,-0.107c0.027,-0.002 0.045,-0.001 0.054,0.004c0.018,0.011 0.027,0.039 0.027,0.085c0,0.045 -0.007,0.091 -0.021,0.137c-0.009,0.03 -0.031,0.063 -0.066,0.099c-0.035,0.037 -0.092,0.09 -0.171,0.161c-0.094,0.085 -0.179,0.177 -0.255,0.275c-0.076,0.098 -0.121,0.171 -0.136,0.219c-0.02,0.066 0.007,0.096 0.083,0.091c0.08,-0.007 0.245,-0.105 0.496,-0.295l-0.044,0.142c-0.146,0.131 -0.265,0.234 -0.357,0.31c-0.092,0.076 -0.175,0.137 -0.248,0.183c-0.072,0.046 -0.132,0.071 -0.179,0.075c-0.055,0.004 -0.092,-0.019 -0.112,-0.071c-0.02,-0.051 -0.014,-0.128 0.017,-0.231c0.019,-0.061 0.055,-0.131 0.107,-0.21c0.053,-0.08 0.121,-0.167 0.204,-0.262c0.084,-0.096 0.174,-0.191 0.271,-0.286c-0.039,0.011 -0.083,0.023 -0.132,0.036c-0.048,0.012 -0.099,0.026 -0.153,0.039c-0.054,0.014 -0.096,0.025 -0.125,0.033c-0.135,0.181 -0.301,0.348 -0.499,0.502Z" style="fill:#cda91a;fill-rule:nonzero;"/><path d="M137.447,76.883l0.111,-0.25c0.038,-0.086 0.08,-0.156 0.126,-0.212c0.047,-0.056 0.118,-0.119 0.212,-0.189c0.095,-0.07 0.24,-0.17 0.434,-0.3c0.468,-0.316 0.807,-0.481 1.019,-0.498c0.064,-0.005 0.105,0.006 0.123,0.032c0.018,0.026 0.016,0.074 -0.005,0.145c-0.016,0.049 -0.054,0.118 -0.115,0.206c-0.061,0.089 -0.166,0.23 -0.315,0.423c-0.15,0.193 -0.282,0.366 -0.398,0.519c-0.095,0.126 -0.2,0.259 -0.315,0.401c-0.115,0.141 -0.192,0.238 -0.233,0.291c-0.04,0.053 -0.064,0.092 -0.072,0.117c-0.009,0.028 -0.008,0.052 0.003,0.071c0.01,0.019 0.028,0.028 0.053,0.026c0.034,-0.003 0.078,-0.026 0.133,-0.068c0.054,-0.043 0.164,-0.135 0.328,-0.275c0.08,-0.07 0.168,-0.151 0.264,-0.245c0.096,-0.094 0.216,-0.215 0.361,-0.362c0.144,-0.148 0.278,-0.285 0.401,-0.411c0.077,-0.079 0.146,-0.149 0.207,-0.212c0.061,-0.062 0.112,-0.111 0.153,-0.145c0.04,-0.034 0.069,-0.051 0.088,-0.053c0.015,-0.001 0.034,0.018 0.056,0.058l0.027,0.061c0.019,0.051 0.025,0.089 0.017,0.113c-0.008,0.028 -0.089,0.135 -0.241,0.32c-0.152,0.186 -0.282,0.346 -0.39,0.482c-0.108,0.136 -0.254,0.33 -0.437,0.584c-0.183,0.254 -0.371,0.535 -0.563,0.843c0.332,-0.236 0.558,-0.394 0.678,-0.474c0.12,-0.08 0.202,-0.122 0.247,-0.126c0.03,-0.002 0.041,0.01 0.032,0.037c-0.009,0.03 -0.035,0.069 -0.078,0.118c-0.043,0.05 -0.098,0.105 -0.164,0.166c-0.066,0.06 -0.164,0.149 -0.294,0.264c-0.131,0.115 -0.273,0.24 -0.426,0.374c-0.094,0.083 -0.191,0.178 -0.289,0.286c-0.098,0.108 -0.174,0.192 -0.228,0.251c-0.054,0.059 -0.097,0.094 -0.13,0.105c-0.049,0.017 -0.086,0.01 -0.112,-0.022c-0.025,-0.033 -0.026,-0.087 -0.003,-0.163c0.017,-0.054 0.076,-0.166 0.178,-0.337c0.101,-0.172 0.242,-0.386 0.42,-0.643c0.106,-0.154 0.211,-0.3 0.315,-0.438c0.103,-0.138 0.221,-0.29 0.352,-0.456c0.13,-0.166 0.257,-0.324 0.38,-0.474c0.122,-0.15 0.226,-0.277 0.312,-0.383c-0.187,0.195 -0.372,0.384 -0.554,0.568c-0.182,0.184 -0.382,0.378 -0.6,0.582c-0.217,0.205 -0.433,0.397 -0.646,0.577c-0.093,0.077 -0.159,0.13 -0.197,0.159c-0.039,0.028 -0.083,0.044 -0.133,0.048c-0.031,0.003 -0.058,-0.007 -0.08,-0.028c-0.022,-0.021 -0.038,-0.049 -0.046,-0.085c-0.008,-0.036 -0.006,-0.071 0.005,-0.106c0.018,-0.059 0.042,-0.112 0.072,-0.158c0.03,-0.047 0.08,-0.117 0.148,-0.21c0.297,-0.401 0.508,-0.676 0.633,-0.826c0.444,-0.524 0.675,-0.816 0.694,-0.877c0.006,-0.019 0.005,-0.035 -0.005,-0.046c-0.009,-0.01 -0.024,-0.015 -0.043,-0.014c-0.037,0.003 -0.086,0.024 -0.147,0.062c-0.062,0.039 -0.142,0.095 -0.239,0.168c-0.098,0.074 -0.217,0.162 -0.356,0.265c-0.14,0.103 -0.283,0.202 -0.431,0.297c-0.059,0.038 -0.125,0.082 -0.2,0.133c-0.075,0.051 -0.118,0.077 -0.127,0.078c-0.018,0.002 -0.024,-0.008 -0.018,-0.027c0.006,-0.019 0.021,-0.058 0.048,-0.117Z" style="fill:#cda91a;fill-rule:nonzero;"/><path d="M140.74,77.408l-0.043,0.142c-0.112,0.091 -0.199,0.153 -0.26,0.185c-0.061,0.032 -0.139,0.049 -0.235,0.051c-0.237,0.23 -0.42,0.35 -0.549,0.36c-0.073,0.006 -0.131,-0.015 -0.175,-0.062c-0.044,-0.048 -0.07,-0.115 -0.078,-0.203c-0.009,-0.087 0.004,-0.186 0.039,-0.297c0.028,-0.091 0.086,-0.193 0.175,-0.307c0.09,-0.114 0.193,-0.222 0.31,-0.324c0.118,-0.102 0.236,-0.186 0.354,-0.252c0.119,-0.066 0.221,-0.103 0.307,-0.109c0.061,-0.005 0.107,0.001 0.136,0.019c0.029,0.018 0.037,0.045 0.026,0.082c-0.009,0.028 -0.034,0.061 -0.075,0.1c0.046,0.008 0.074,0.024 0.085,0.048c0.01,0.025 0.004,0.072 -0.017,0.141c-0.021,0.067 -0.062,0.154 -0.123,0.259c-0.061,0.105 -0.131,0.204 -0.209,0.298l0.023,0.036l0.03,-0.003c0.022,-0.001 0.046,-0.009 0.071,-0.023c0.025,-0.013 0.048,-0.027 0.069,-0.042c0.021,-0.015 0.068,-0.048 0.139,-0.099Zm-0.232,-0.524c-0.13,0.079 -0.242,0.15 -0.336,0.213c-0.095,0.063 -0.178,0.126 -0.25,0.188c-0.071,0.063 -0.125,0.124 -0.162,0.185c-0.081,0.16 -0.123,0.247 -0.127,0.259c-0.029,0.093 0.017,0.135 0.137,0.126c0.056,-0.005 0.166,-0.064 0.33,-0.178c-0.002,-0.065 0.007,-0.127 0.025,-0.188c0.028,-0.089 0.072,-0.18 0.135,-0.275c0.062,-0.095 0.145,-0.205 0.248,-0.33Z" style="fill:#cda91a;fill-rule:nonzero;"/><path d="M141.702,77.198c-0.273,0.285 -0.476,0.488 -0.61,0.61c-0.133,0.122 -0.232,0.185 -0.294,0.19c-0.05,0.004 -0.089,-0.015 -0.117,-0.056c-0.028,-0.041 -0.042,-0.099 -0.041,-0.172c0,-0.074 0.013,-0.153 0.04,-0.239c0.017,-0.057 0.038,-0.108 0.061,-0.154c0.024,-0.045 0.058,-0.096 0.102,-0.153c0.044,-0.056 0.099,-0.118 0.163,-0.185c0.065,-0.066 0.142,-0.143 0.232,-0.228c0.054,-0.052 0.1,-0.096 0.137,-0.132c0.037,-0.036 0.07,-0.061 0.1,-0.075c0.029,-0.014 0.072,-0.023 0.129,-0.027c0.042,-0.004 0.08,-0.001 0.114,0.008c0.034,0.009 0.05,0.02 0.046,0.033c-0.008,0.025 -0.041,0.072 -0.1,0.142c-0.059,0.069 -0.146,0.154 -0.261,0.256c-0.115,0.101 -0.242,0.202 -0.383,0.303c-0.05,0.085 -0.082,0.149 -0.095,0.193c-0.019,0.06 -0.007,0.089 0.036,0.085c0.016,-0.001 0.046,-0.017 0.092,-0.049c0.045,-0.032 0.124,-0.092 0.236,-0.181c0.112,-0.089 0.213,-0.168 0.302,-0.237c0.065,-0.052 0.146,-0.128 0.243,-0.228c0.096,-0.1 0.173,-0.176 0.229,-0.227c0.131,-0.117 0.219,-0.194 0.264,-0.23c0.046,-0.036 0.085,-0.055 0.117,-0.057c0.031,-0.003 0.049,0.006 0.054,0.026c0.005,0.021 -0.003,0.063 -0.023,0.128c-0.009,0.03 -0.019,0.054 -0.03,0.072c-0.011,0.019 -0.029,0.044 -0.054,0.074c-0.025,0.03 -0.075,0.086 -0.148,0.167c-0.074,0.081 -0.16,0.177 -0.261,0.288c-0.054,0.059 -0.105,0.123 -0.153,0.192c-0.048,0.069 -0.077,0.121 -0.087,0.155c-0.023,0.073 -0.007,0.107 0.046,0.103c0.044,-0.003 0.102,-0.027 0.173,-0.071c0.071,-0.044 0.183,-0.122 0.336,-0.234l-0.044,0.141c-0.199,0.164 -0.346,0.283 -0.441,0.358c-0.094,0.075 -0.173,0.132 -0.238,0.171c-0.064,0.039 -0.12,0.061 -0.169,0.065c-0.109,0.008 -0.142,-0.058 -0.099,-0.199c0.016,-0.053 0.055,-0.127 0.116,-0.22c0.06,-0.093 0.154,-0.229 0.28,-0.406Z" style="fill:#cda91a;fill-rule:nonzero;"/><path d="M139.12,71.807c-0.197,-0.34 0.947,-1.135 1.363,-1.224c0.417,-0.09 0.506,1.191 0.932,1.397c0.426,0.205 1.002,0.574 1.626,-0.164c1.272,-1.506 -0.182,-1.247 -0.182,-1.247c-0.072,-0.321 0.886,-0.948 1.239,-0.512c0.262,0.323 0.13,1.568 -0.674,2.177c-0.277,0.21 -1.165,0.223 -1.76,0.393c-2.808,0.805 -2.348,-0.479 -2.544,-0.82Z" style="fill:#e3b500;"/><path d="M145.588,73.715c-0.043,0.315 -0.655,0.543 -0.817,0.478c-0.161,-0.066 0.206,-1.045 0.133,-1.332c-0.073,-0.288 -0.144,-0.744 -0.572,-0.393c-0.874,0.716 -0.327,0.983 -0.327,0.983c-0.076,0.261 -0.577,0.423 -0.556,-0.012c0.015,-0.322 0.443,-1.205 0.889,-1.403c0.153,-0.068 0.443,0.204 0.686,0.265c1.15,0.292 0.606,1.099 0.564,1.414Z" style="fill:#e3b500;"/><path d="M145.392,74.438c-0.134,-0.136 -0.631,0.339 -0.72,0.535c-0.088,0.196 0.492,0.386 0.538,0.62c0.046,0.234 0.151,0.561 -0.261,0.785c-0.839,0.458 -0.553,-0.232 -0.553,-0.232c-0.14,-0.072 -0.538,0.33 -0.378,0.555c0.119,0.166 0.708,0.242 1.08,-0.086c0.129,-0.113 0.236,-0.551 0.382,-0.825c0.691,-1.297 0.047,-1.216 -0.088,-1.352Z" style="fill:#e3b500;"/><path d="M143.83,79.507c-0.227,0.164 -0.448,-0.255 -0.417,-0.446c0.031,-0.192 0.759,-0.483 0.955,-0.736c0.197,-0.253 0.513,-0.612 0.223,-0.782c-0.592,-0.347 -0.728,0.331 -0.728,0.331c-0.192,0.098 -0.355,-0.261 -0.046,-0.522c0.23,-0.193 0.896,-0.367 1.08,-0.082c0.063,0.099 -0.101,0.541 -0.121,0.806c-0.095,1.25 -0.719,1.267 -0.946,1.431Z" style="fill:#e3b500;"/><path d="M138.592,71.882c0.421,-0.388 -0.277,-1.04 -0.658,-1.068c-0.38,-0.027 -1.282,1.331 -1.859,1.614c-0.577,0.283 -1.414,0.762 -1.602,0.086c-0.384,-1.377 0.977,-1.336 0.977,-1.336c0.278,-0.348 -0.33,-0.854 -0.976,-0.341c-0.478,0.381 -1.126,1.666 -0.667,2.177c0.158,0.176 1.082,0.048 1.598,0.133c2.438,0.397 2.765,-0.876 3.187,-1.265Z" style="fill:#e3b500;"/><path d="M130.661,74.721c-0.155,0.324 0.344,0.466 0.554,0.371c0.211,-0.094 0.444,-1.063 0.702,-1.376c0.259,-0.313 0.621,-0.803 0.849,-0.503c0.464,0.612 -0.278,0.979 -0.278,0.979c-0.085,0.262 0.338,0.353 0.591,-0.1c0.187,-0.336 0.296,-1.194 -0.047,-1.331c-0.118,-0.047 -0.593,0.284 -0.888,0.387c-1.39,0.489 -1.328,1.249 -1.483,1.573Z" style="fill:#e3b500;"/><path d="M139.495,69.507c0.286,-0.022 0.418,0.286 0.294,0.687c-0.124,0.402 -0.457,0.746 -0.742,0.768c-0.286,0.023 -0.418,-0.286 -0.294,-0.687c0.123,-0.402 0.456,-0.746 0.742,-0.768Z" style="fill:#e3b500;"/><path d="M135.726,82.82c-0.422,0.389 0.277,1.041 0.657,1.069c0.381,0.027 1.282,-1.331 1.859,-1.614c0.577,-0.283 1.415,-0.762 1.603,-0.087c0.383,1.378 -0.978,1.337 -0.978,1.337c-0.278,0.348 0.33,0.854 0.976,0.341c0.479,-0.381 1.126,-1.666 0.668,-2.177c-0.159,-0.176 -1.082,-0.048 -1.599,-0.133c-2.438,-0.397 -2.765,0.876 -3.186,1.264Z" style="fill:#e3b500;"/><path d="M143.715,79.791c0.155,-0.324 -0.344,-0.465 -0.554,-0.371c-0.211,0.094 -0.444,1.063 -0.702,1.376c-0.259,0.313 -0.621,0.803 -0.849,0.503c-0.464,-0.612 0.278,-0.979 0.278,-0.979c0.085,-0.262 -0.338,-0.352 -0.59,0.101c-0.188,0.336 -0.297,1.194 0.046,1.33c0.118,0.047 0.593,-0.284 0.888,-0.387c1.39,-0.489 1.328,-1.249 1.483,-1.573Z" style="fill:#e3b500;"/><path d="M135.219,82.826c0.197,0.34 -0.947,1.135 -1.364,1.225c-0.416,0.089 -0.505,-1.192 -0.931,-1.398c-0.426,-0.205 -1.002,-0.574 -1.626,0.164c-1.272,1.507 0.181,1.247 0.181,1.247c0.072,0.321 -0.885,0.948 -1.238,0.512c-0.262,-0.322 -0.13,-1.568 0.674,-2.177c0.277,-0.21 1.165,-0.222 1.76,-0.393c2.808,-0.804 2.348,0.479 2.544,0.82Z" style="fill:#e3b500;"/><path d="M128.693,81.109c0.042,-0.316 0.654,-0.544 0.816,-0.478c0.161,0.065 -0.206,1.044 -0.133,1.332c0.073,0.287 0.144,0.744 0.573,0.393c0.873,-0.716 0.326,-0.983 0.326,-0.983c0.076,-0.261 0.577,-0.424 0.556,0.011c-0.015,0.323 -0.442,1.206 -0.889,1.403c-0.153,0.069 -0.442,-0.203 -0.686,-0.265c-1.15,-0.291 -0.606,-1.098 -0.563,-1.413Z" style="fill:#e3b500;"/><path d="M134.667,85.174c0.286,-0.022 0.619,-0.366 0.743,-0.768c0.123,-0.402 -0.008,-0.71 -0.294,-0.688c-0.286,0.023 -0.619,0.367 -0.743,0.768c-0.123,0.402 0.008,0.71 0.294,0.688Z" style="fill:#e3b500;"/><path d="M143.69,76.728c0.131,-0.011 0.196,0.118 0.144,0.286c-0.052,0.168 -0.2,0.313 -0.332,0.323c-0.131,0.01 -0.195,-0.118 -0.143,-0.286c0.052,-0.168 0.2,-0.313 0.331,-0.323Z" style="fill:#e3b500;"/><path d="M130.254,75.61c0.228,-0.164 0.448,0.256 0.418,0.447c-0.031,0.191 -0.759,0.482 -0.956,0.735c-0.196,0.253 -0.512,0.613 -0.222,0.783c0.591,0.346 0.727,-0.331 0.727,-0.331c0.192,-0.098 0.356,0.26 0.046,0.521c-0.23,0.193 -0.896,0.367 -1.079,0.082c-0.063,-0.098 0.101,-0.54 0.121,-0.805c0.094,-1.251 0.718,-1.268 0.945,-1.432Z" style="fill:#e3b500;"/><path d="M128.692,80.679c0.135,0.136 0.632,-0.339 0.72,-0.535c0.089,-0.196 -0.491,-0.385 -0.538,-0.619c-0.046,-0.235 -0.15,-0.561 0.261,-0.786c0.839,-0.457 0.554,0.232 0.554,0.232c0.14,0.072 0.538,-0.33 0.377,-0.554c-0.119,-0.166 -0.708,-0.243 -1.08,0.085c-0.128,0.113 -0.235,0.551 -0.382,0.826c-0.69,1.297 -0.046,1.215 0.088,1.351Z" style="fill:#e3b500;"/><path d="M130.594,77.741c-0.131,0.01 -0.279,0.155 -0.331,0.323c-0.052,0.169 0.012,0.297 0.143,0.287c0.131,-0.01 0.28,-0.155 0.332,-0.324c0.052,-0.168 -0.013,-0.296 -0.144,-0.286Z" style="fill:#e3b500;"/><path d="M128.676,86.887c-2.892,-1.508 -4.15,-4.861 -2.897,-8.929c1.802,-5.848 8.116,-10.971 14.091,-11.435c2.06,-0.16 3.812,0.255 5.15,1.107c-1.266,-0.66 -2.845,-0.967 -4.664,-0.826c-5.974,0.464 -12.288,5.587 -14.09,11.435c-1.181,3.831 -0.133,7.029 2.41,8.648Z" style="fill:#737373;fill-opacity:0.26;"/></svg>
