<?xml version="1.0" encoding="UTF-8" standalone="no"?><!DOCTYPE svg PUBLIC "-//W3C//DTD SVG 1.1//EN" "http://www.w3.org/Graphics/SVG/1.1/DTD/svg11.dtd"><svg width="100%" height="100%" viewBox="0 0 200 200" version="1.1" xmlns="http://www.w3.org/2000/svg" xmlns:xlink="http://www.w3.org/1999/xlink" xml:space="preserve" xmlns:serif="http://www.serif.com/" style="fill-rule:evenodd;clip-rule:evenodd;stroke-linejoin:round;stroke-miterlimit:2;"><path d="M23.867,78.234l-0,54.561l67.11,38.746l85.156,-49.165l0,-54.561l-67.11,-38.746l-85.156,49.165Z" style="fill:#2ccdb8;"/><path d="M109.023,29.069l-85.156,49.165l67.11,38.746l85.156,-49.165l-67.11,-38.746Z" style="fill:#2ccdb8;"/><path d="M90.977,116.98l-67.11,-38.746l-0,54.561l67.11,38.746l85.156,-49.165l0,-54.561l-85.156,49.165Z" style="fill:#f5f5f5;fill-opacity:0.21;"/><path d="M90.977,116.98l-67.11,-38.746l-0,54.561l67.11,38.746l0,-54.561Z" style="fill:#f5f5f5;fill-opacity:0.21;"/><path d="M21.161,79.372l-0,11.083l69.495,40.123l88.183,-50.912l0,-11.083l-69.495,-40.124l-88.183,50.913Z" style="fill:#001b35;"/><path d="M120.559,34.934l-88.183,50.913l10.605,6.123l88.183,-50.913l-10.605,-6.123Z" style="fill:#2ccdb8;"/><path d="M85.373,42.299l69.552,40.156l10.605,-6.123l-69.552,-40.156l-10.605,6.123Z" style="fill:#2ccdb8;"/><path d="M90.656,119.495l-69.495,-40.123l-0,11.083l69.495,40.123l88.183,-50.912l0,-11.083l-88.183,50.912Z" style="fill:#f5f5f5;fill-opacity:0.09;"/><path d="M90.656,119.495l-69.495,-40.123l-0,11.083l69.495,40.123l0,-11.083Z" style="fill:#f5f5f5;fill-opacity:0.09;"/><path d="M43.002,91.982l-10.626,-6.135l0,11.083l10.626,6.135l-0,-11.083Z" style="fill:#2ccdb8;"/><path d="M45.703,104.624l-10.626,-6.135l-0,40.778l10.626,6.135l-0,-40.778Z" style="fill:#2ccdb8;"/><path d="M154.906,82.436l10.626,-6.135l0,11.084l-10.626,6.134l0,-11.083Z" style="fill:#2ccdb8;"/><path d="M152.206,95.079l10.626,-6.135l-0,40.777l-10.626,6.135l-0,-40.777Z" style="fill:#2ccdb8;"/><path d="M100.19,46.9c0.403,-5.97 0.135,-11.32 -0.596,-16.241c2.11,1.284 4.542,2.581 6.336,3.56c2.883,-0.854 4.358,-2.172 5.714,-3.56c0.643,5.274 0.714,10.721 0.425,16.277c3.008,-0.119 6.453,-0.202 9.821,-0.15c8.115,0.124 15.779,0.74 15.779,0.74l-0,0.509c-0,0 -1.934,1.3 -2.493,2.58c1.138,0.893 2.691,3.867 2.691,3.867l-0,0.509c-0.02,-0.265 -14.851,-0.951 -24.906,-0.715c0.958,6.359 1.477,12.6 1.233,18.635c-1.468,-1.35 -3.048,-2.626 -5.998,-3.401c-1.712,1.026 -4.036,2.387 -6.039,3.727c0.379,-5.671 0.103,-11.891 -1.169,-18.942c-10.052,-0.289 -25.615,0.425 -25.635,0.696l-0,-0.509c-0,0 1.553,-2.974 2.691,-3.867c-0.559,-1.28 -2.493,-2.58 -2.493,-2.58l-0,-0.509c-0,0 7.664,-0.616 15.779,-0.74c3.014,-0.046 6.091,0.015 8.86,0.114Z" style="fill:#2ccdb8;"/><path d="M106.111,54.713l-0,-0.508c7.516,-0.625 18.676,-0.811 31.454,0.252l0.302,0.025l-0,0.509c-0.026,-0.338 -24.215,-1.365 -31.756,-0.278Zm31.558,-7.187l-0,0.509c-0,0 -1.934,1.3 -2.493,2.58l-0.016,-0.012c-0.046,-0.036 -0.093,-0.071 -0.141,-0.105c0.565,-1.532 1.395,-2.325 2.65,-2.972Z" style="fill:#f5f5f5;fill-opacity:0.36;"/><path d="M102.197,72.596c-0.013,0.215 -0.026,0.428 -0.04,0.641c2.003,-1.34 4.327,-2.701 6.039,-3.727c2.95,0.775 4.53,2.051 5.998,3.401c0.044,-1.102 0.063,-2.212 0.059,-3.328c-0.004,0.909 -0.023,1.814 -0.059,2.714c-1.468,-1.35 -3.048,-2.627 -5.998,-3.402c-1.701,1.02 -4.005,2.37 -5.999,3.701Z" style="fill:#f5f5f5;fill-opacity:0.36;"/><path d="M107.109,54.713l-0,-0.508c-7.516,-0.625 -18.676,-0.811 -31.454,0.252l-0.302,0.025l-0,0.509c0.026,-0.338 24.215,-1.365 31.756,-0.278Zm-31.558,-7.187l-0,0.509c-0,0 1.934,1.3 2.493,2.58l0.016,-0.012c0.046,-0.036 0.093,-0.071 0.141,-0.105c-0.565,-1.532 -1.395,-2.325 -2.65,-2.972Z" style="fill:#f5f5f5;fill-opacity:0.36;"/><path d="M105.673,44.457c0.732,-1.881 3.71,-8.037 11.643,-9.16c1.003,-0.142 1.789,0.292 1.789,0.292c-0,0 6.07,2.917 7.481,5.123c0.15,0.235 0.219,0.531 0.24,0.84l0.003,0.043c0.044,0.823 -0.243,1.711 -0.243,1.711c-1.036,2.435 -4.168,4.626 -8.961,6.625c4.847,0.93 11.97,2.853 12.965,6.227c0.249,0.845 0.241,1.825 0.198,2.461c-0.028,0.408 -0.478,0.908 -0.478,0.908l-0.087,0.051l-8.154,4.667c-2.154,1.764 -14.609,-7.299 -15.279,-7.535l-0,-0.001c-4.35,2.756 -13.613,8.909 -15.25,7.568l-8.154,-4.667l-0.087,-0.051c-0,0 -0.45,-0.5 -0.478,-0.908c-0.044,-0.636 -0.051,-1.616 0.198,-2.461c0.847,-2.875 6.145,-4.696 10.692,-5.748c-4.638,-1.967 -7.671,-4.121 -8.687,-6.509c-0,0 -0.287,-0.889 -0.243,-1.712l0.003,-0.043c0.021,-0.308 0.09,-0.604 0.24,-0.839c1.411,-2.206 7.481,-5.123 7.481,-5.123c-0,0 0.786,-0.435 1.789,-0.292c7.197,1.019 10.316,6.18 11.379,8.533Zm0.394,0.978c0.043,0.125 0.063,0.194 0.063,0.194l-5.819,3.647c0.14,-0.018 0.215,-0.026 0.215,-0.026l6.784,3.917l4.791,-3.277l-6.034,-4.455Z" style="fill:#2ccdb8;"/><path d="M100.526,49.25l8.521,4.92c-0,0 -13.694,3.295 -16.892,6.584c-1.927,1.982 -0.615,3.523 -0.615,3.523l-8.241,-4.718c-0,0 -0.45,-0.5 -0.478,-0.908c-0.044,-0.636 -0.051,-1.616 0.198,-2.461c1.527,-5.181 17.507,-6.94 17.507,-6.94Z" style="fill:#f5f5f5;fill-opacity:0.2;"/><path d="M117.316,35.297c1.003,-0.142 1.789,0.292 1.789,0.292c-0,0 6.07,2.917 7.481,5.123c0.557,0.87 -0,2.594 -0,2.594c-0,0 0.244,-1.861 -0.488,-2.394c-1.617,-1.177 -11.024,6.155 -12.652,9.082l-7.966,-4.992c-0,0 2.448,-8.376 11.836,-9.705Z" style="fill:#f5f5f5;fill-opacity:0.2;"/><path d="M94.277,35.933c-1.003,-0.142 -1.789,0.293 -1.789,0.293c-0,0 -6.069,2.917 -7.481,5.123c-0.556,0.869 -0,2.593 -0,2.593c-0,0 -0.243,-1.861 0.489,-2.394c1.617,-1.177 11.023,6.156 12.652,9.082l7.965,-4.992c-0,0 -2.448,-8.375 -11.836,-9.705Z" style="fill:#f5f5f5;fill-opacity:0.2;"/><path d="M113.083,49.218l-8.521,4.92c-0,0 13.694,3.294 16.892,6.584c1.927,1.982 0.615,3.523 0.615,3.523l8.241,-4.718c-0,0 0.45,-0.5 0.478,-0.908c0.043,-0.636 0.051,-1.616 -0.198,-2.461c-1.527,-5.181 -17.507,-6.94 -17.507,-6.94Z" style="fill:#f5f5f5;fill-opacity:0.2;"/><path d="M91.858,62.803c0.01,0.728 0.336,0.935 0.702,0.885c2.312,-0.317 6.188,-2.784 10.377,-5.34c0.657,-0.401 3.853,-2.277 3.853,-2.277l-0,-0.761c-2.385,0.825 -12.126,3.707 -14.455,6.251c-0.298,0.326 -0.482,0.864 -0.477,1.242Z" style="fill:#494949;fill-opacity:0.24;"/><path d="M126.124,42.196c0.124,0.574 -0.285,1.539 -0.652,1.999c-2.159,2.701 -4.548,3.703 -10.415,6.091c-0.341,0.139 -0.88,0.42 -0.88,0.42l-0,-0.841c1.882,-2.45 9.862,-8.986 11.518,-8.355c0.241,0.093 0.359,0.365 0.429,0.686Z" style="fill:#494949;fill-opacity:0.24;"/><path d="M85.024,43.933c1.264,2.972 5.652,5.581 12.371,7.92c0.069,0.023 0.207,0.071 0.207,0.071l0.562,-1.303c-1.628,-2.927 -11.035,-10.259 -12.652,-9.082c-0.732,0.532 -0.488,2.394 -0.488,2.394Zm-0.24,-1.755l-0.003,0.043c0.001,-0.014 0.002,-0.028 0.003,-0.043Z" style="fill:#f5f5f5;fill-opacity:0.13;"/><path d="M85.486,42.823c-0.124,0.573 0.284,1.538 0.652,1.999c2.159,2.701 4.548,3.703 10.415,6.091c0.341,0.139 0.88,0.42 0.88,0.42l-0,-0.841c-1.882,-2.451 -9.862,-8.987 -11.518,-8.355c-0.241,0.092 -0.359,0.365 -0.429,0.686Z" style="fill:#494949;fill-opacity:0.24;"/><path d="M121.751,62.771c-0.01,0.728 -0.336,0.935 -0.702,0.885c-2.312,-0.318 -6.188,-2.784 -10.377,-5.34c-0.658,-0.401 -3.882,-2.251 -3.882,-2.251l0.004,-0.757c2.385,0.825 12.151,3.677 14.48,6.221c0.298,0.326 0.482,0.864 0.477,1.242Z" style="fill:#494949;fill-opacity:0.24;"/><path d="M105.878,44.804c4.324,0.124 8.285,4.292 8.285,4.292l0.485,-0.179c-0,0 -0.01,-0.015 -0.021,-0.025c-0.87,-0.848 -4.457,-4.098 -8.277,-4.108c-0.157,0 -0.314,0.007 -0.472,0.02Z" style="fill:#f5f5f5;fill-opacity:0.18;"/><path d="M105.708,40.571c1.725,-2.392 4.234,-4.878 7.764,-6.358c0.902,-0.378 1.582,-0.105 1.582,-0.105c-0,0 5.272,1.652 6.422,3.631c0.122,0.21 0.169,0.504 0.173,0.821l0.006,0.009l-0.006,0.035c-0.002,0.849 -0.302,1.842 -0.302,1.842c-0.749,1.989 -2.45,4.095 -4.962,6.299c1.681,-0.853 3.423,-1.561 4.547,-1.547c3.639,0.045 7.243,0.868 6.813,5.049c-0.157,1.528 -8.152,4.685 -8.152,4.685c-1.453,1.032 -12.803,0.35 -12.803,0.35c-0,0 -11.35,0.682 -12.803,-0.35c-0,0 -7.996,-3.157 -8.153,-4.685c-0.429,-4.181 3.175,-5.004 6.814,-5.049c0.215,-0.003 0.453,0.021 0.709,0.068c-1.503,-1.61 -2.541,-3.158 -3.057,-4.638l-0.003,-0.022l0.003,0.022c-0,0 -0.274,-0.995 -0.253,-1.844l-0.005,-0.035l0.006,-0.009c0.012,-0.317 0.066,-0.61 0.194,-0.819c1.202,-1.969 6.517,-3.575 6.517,-3.575c-0,0 0.688,-0.267 1.58,0.119c3.335,1.444 5.715,3.799 7.369,6.106Zm0.334,8.27l-2.866,1.37l3.614,1.982l2.609,-1.431l-0.114,-0.322l-3.243,-1.599Z" style="fill:#2ccdb8;"/><path d="M112.168,47.355c2.761,-3.583 7.389,-8.695 8.491,-8.526c0.204,0.031 0.296,0.269 0.344,0.566c0.087,0.53 -0.301,1.574 -0.634,2.114c-1.792,2.898 -3.698,4.452 -7.948,7.581c0.079,-0.535 -0.024,-1.137 -0.253,-1.735Z" style="fill:#494949;fill-opacity:0.24;"/><path d="M103.017,44.846c2.277,-2.151 4.986,-2.018 7.364,0c1.79,1.519 2.77,4.44 0.996,5.7c-3.039,2.158 -5.976,2.545 -9.199,-0.155c-1.681,-1.407 -0.867,-3.934 0.839,-5.545Z" style="fill:#2ccdb8;"/><path d="M117.65,54.233c0.387,-1.351 -1.391,-1.951 -3.218,-2.295c-1.406,-0.265 -2.719,0.021 -3.887,0.475c-0.532,0.206 -3.755,1.551 -3.755,1.551l-0,0.326c0.02,-0.115 4.128,0.239 5.675,0.293c-0,0 5.043,0.144 5.185,-0.35Z" style="fill:#494949;fill-opacity:0.18;"/><path d="M95.93,54.233c-0.387,-1.351 1.391,-1.951 3.218,-2.295c1.406,-0.265 2.719,0.021 3.887,0.475c0.531,0.206 3.755,1.551 3.755,1.551l-0,0.326c-0.021,-0.115 -4.128,0.239 -5.676,0.293c-0,0 -5.042,0.144 -5.184,-0.35Z" style="fill:#494949;fill-opacity:0.18;"/><path d="M94.277,45.5c-1.238,-1.178 -2.152,-2.315 -3.027,-3.801c-0.319,-0.542 -0.679,-1.589 -0.579,-2.118c0.056,-0.297 0.154,-0.534 0.359,-0.563c1.157,-0.166 6.009,5.465 8.613,9.074c-1.597,-0.94 -3.691,-2.064 -5.366,-2.592Z" style="fill:#494949;fill-opacity:0.24;"/><path d="M103.017,44.846c2.277,-2.151 4.986,-2.018 7.364,0c1.79,1.519 2.77,4.44 0.996,5.7c-3.039,2.158 -5.976,2.545 -9.199,-0.155c-1.681,-1.407 -0.867,-3.934 0.839,-5.545Z" style="fill:#f5f5f5;fill-opacity:0.23;"/></svg>
