<?xml version="1.0" encoding="UTF-8" standalone="no"?><!DOCTYPE svg PUBLIC "-//W3C//DTD SVG 1.1//EN" "http://www.w3.org/Graphics/SVG/1.1/DTD/svg11.dtd"><svg width="100%" height="100%" viewBox="0 0 200 200" version="1.1" xmlns="http://www.w3.org/2000/svg" xmlns:xlink="http://www.w3.org/1999/xlink" xml:space="preserve" xmlns:serif="http://www.serif.com/" style="fill-rule:evenodd;clip-rule:evenodd;stroke-linejoin:round;stroke-miterlimit:2;"><path d="M57.537,52.843l-20.611,106.358l47.071,27.176l67.931,-39.22l-20.611,-130.157l-5.849,-3.377l-67.931,39.22Z" style="fill:#001b35;"/><path d="M63.386,56.22l-5.849,-3.377l-20.611,106.358l47.071,27.176l67.931,-39.22l-20.611,-130.157l-67.931,39.22Z" style="fill:#fafafa;fill-opacity:0.07;"/><path d="M63.386,56.22l-5.849,-3.377l-20.611,106.358l47.071,27.176l-20.611,-130.157Z" style="fill:#fafafa;fill-opacity:0.07;"/><path d="M60.461,154.771l-23.535,4.43l47.071,27.176l-23.536,-31.606Z" style="fill:#fafafa;fill-opacity:0.07;"/><path d="M60.461,154.771l-23.535,4.43l47.071,27.176l-23.536,-31.606Z" style="fill:#fafafa;fill-opacity:0.07;"/><path d="M60.461,154.771l0,-100.24l-2.924,-1.688l-20.611,106.358l23.535,-4.43Z" style="fill:#fafafa;fill-opacity:0.07;"/><path d="M131.312,17.024l-67.883,39.193l7.808,50.96l67.884,-39.193l-7.809,-50.96Z" style="fill:#001b35;"/><path d="M134.616,18.932l-67.883,39.192l7.808,50.961l67.884,-39.193l-7.809,-50.96Z" style="fill:#001b35;"/><path d="M134.616,18.932l-3.304,-1.908l-67.883,39.193l7.808,50.96l3.304,1.908l67.884,-39.193l-7.809,-50.96Z" style="fill:#001b35;"/><path d="M134.616,18.932l-67.883,39.192l7.808,50.961l67.884,-39.193l-7.809,-50.96Z" style="fill:#fafafa;fill-opacity:0.04;"/><path d="M57.537,52.843l-0.323,1.714l6.523,3.888l-0.351,-2.225l-5.849,-3.377Z" style="fill:#001b35;"/><g><path d="M107.33,108.311l0.437,-0.028l2.973,-5.182l2.874,3.555l0.438,-0.027l-0.085,-13.445l3.799,10.237l0.438,-0.028l1.365,-7.135l3.605,0.272l0.438,-0.028c-0,0 -8.302,-21.93 -10.303,-27.217c-0.107,-0.282 -0.337,-0.486 -0.629,-0.557c-0.167,-0.04 -0.344,-0.035 -0.515,0.012c-0.271,-0.042 -0.562,0.03 -0.807,0.205c-1.136,0.806 -2.873,2.04 -3.738,2.654c-0.327,0.232 -0.526,0.61 -0.524,0.991c0.031,4.779 0.234,35.721 0.234,35.721Z" style="fill:#2ccdba;"/><path d="M113.358,70.598c-0.22,-0.58 -0.695,-1.025 -1.288,-1.206c-0.593,-0.18 -1.236,-0.076 -1.741,0.283c-0.834,0.593 -1.746,1.24 -2.388,1.696c-0.532,0.378 -0.846,0.991 -0.842,1.644c0.039,5.941 0.231,35.296 0.231,35.296l3.163,-5.515l3.121,3.86l-0.092,-14.672l4.244,11.437l1.377,-7.195l4.031,0.304c0,-0 -7.219,-19.072 -9.816,-25.932Z" style="fill:#2ccdba;"/><path d="M113.795,70.57c-0.219,-0.579 -0.695,-1.024 -1.287,-1.205c-0.593,-0.18 -1.236,-0.076 -1.741,0.283c-0.835,0.592 -1.746,1.24 -2.388,1.696c-0.532,0.378 -0.847,0.991 -0.842,1.644c0.038,5.941 0.23,35.295 0.23,35.295l3.164,-5.514l3.121,3.86l-0.093,-14.673l4.245,11.437l1.377,-7.195l4.031,0.304c-0,0 -7.22,-19.071 -9.817,-25.932Z" style="fill:#2ccdba;"/><path d="M114.065,106.646l-0.451,0.01l-2.874,-3.555l0.191,-0.332l3.134,3.877Zm4.139,-3.252l-0.438,0.027l-3.799,-10.237l-0.008,-1.228l4.245,11.438Zm-10.435,4.893l-0.235,-35.724c-0.003,-0.381 0.197,-0.759 0.523,-0.991c0.865,-0.614 2.603,-1.848 3.738,-2.655c0.116,-0.082 0.241,-0.141 0.37,-0.177c-0.271,-0.042 -0.562,0.03 -0.807,0.205c-1.136,0.806 -2.873,2.04 -3.738,2.654c-0.327,0.232 -0.526,0.61 -0.524,0.991c0.031,4.779 0.234,35.721 0.234,35.721l0.439,-0.024Zm15.843,-11.785l-0.438,0.028l-3.605,-0.272l0.012,-0.06l4.031,0.304Z" style="fill:#737373;fill-opacity:0.39;"/><g><path d="M111.324,75.007c5.24,-3.83 10.324,-1.984 11.346,4.12c1.021,6.104 -2.405,14.169 -7.645,17.999c-5.241,3.831 -10.325,1.985 -11.346,-4.119c-1.022,-6.104 2.404,-14.169 7.645,-18Z" style="fill:#e3b500;"/><path d="M110.752,75.043c5.24,-3.83 10.324,-1.984 11.346,4.12c1.021,6.104 -2.405,14.169 -7.645,17.999c-5.241,3.83 -10.325,1.984 -11.346,-4.12c-1.022,-6.104 2.404,-14.169 7.645,-17.999Z" style="fill:#e3b500;"/><path d="M109.82,99.122c-3.327,0.352 -6.003,-1.834 -6.713,-6.08c-1.022,-6.104 2.404,-14.169 7.645,-17.999c1.807,-1.321 3.595,-1.966 5.204,-1.996c3.327,-0.351 6.003,1.834 6.714,6.08c1.021,6.104 -2.405,14.169 -7.645,17.999c-1.807,1.321 -3.596,1.967 -5.205,1.996Z" style="fill:#e3b500;"/><path d="M111.701,77.259c4.173,-3.05 8.222,-1.58 9.035,3.281c0.814,4.861 -1.915,11.284 -6.088,14.335c-4.174,3.05 -8.223,1.58 -9.036,-3.281c-0.813,-4.861 1.915,-11.284 6.089,-14.335Z" style="fill:#fafafa;fill-opacity:0.17;"/><g><path d="M109.646,88.548l0.26,-0.189c0.106,-0.369 0.183,-0.678 0.229,-0.927c0.046,-0.25 0.064,-0.405 0.054,-0.466c-0.014,-0.083 -0.077,-0.084 -0.189,-0.002c-0.064,0.055 -0.177,0.157 -0.338,0.307c-0.161,0.15 -0.316,0.302 -0.465,0.455c-0.134,0.136 -0.24,0.253 -0.319,0.35c-0.078,0.098 -0.132,0.171 -0.162,0.22c-0.031,0.048 -0.049,0.081 -0.055,0.097c0.083,-0.068 0.154,-0.123 0.213,-0.166c0.091,-0.067 0.139,-0.087 0.144,-0.061c0.002,0.012 -0.028,0.051 -0.089,0.116c-0.061,0.065 -0.118,0.129 -0.172,0.191c-0.053,0.062 -0.103,0.126 -0.152,0.193c-0.048,0.067 -0.078,0.104 -0.09,0.113c-0.026,0.019 -0.05,0.022 -0.072,0.009c-0.021,-0.013 -0.035,-0.038 -0.041,-0.075c-0.004,-0.025 0.001,-0.102 0.015,-0.23c0.013,-0.128 0.04,-0.266 0.08,-0.414c0.039,-0.149 0.097,-0.28 0.173,-0.393c0.027,-0.042 0.12,-0.149 0.279,-0.32c0.158,-0.172 0.338,-0.355 0.541,-0.549c0.202,-0.194 0.391,-0.355 0.565,-0.482c0.105,-0.077 0.193,-0.12 0.262,-0.129c0.07,-0.009 0.115,0.048 0.136,0.172c0.007,0.039 0.006,0.109 -0.003,0.209c-0.009,0.1 -0.028,0.232 -0.056,0.398c-0.028,0.166 -0.065,0.352 -0.111,0.559c-0.046,0.206 -0.1,0.429 -0.163,0.668l0.265,-0.193l-0.158,0.588c-0.031,0.025 -0.069,0.056 -0.115,0.091c-0.046,0.035 -0.096,0.074 -0.151,0.118c-0.101,0.338 -0.217,0.67 -0.347,0.998c-0.129,0.327 -0.25,0.602 -0.363,0.824c-0.112,0.223 -0.195,0.353 -0.249,0.393c-0.022,0.016 -0.042,0.02 -0.061,0.014c-0.019,-0.007 -0.031,-0.025 -0.036,-0.055c-0.004,-0.025 0.01,-0.107 0.044,-0.247c0.034,-0.14 0.088,-0.288 0.164,-0.444c0.075,-0.156 0.17,-0.281 0.284,-0.376c0.036,-0.097 0.067,-0.183 0.093,-0.257c0.025,-0.074 0.061,-0.18 0.107,-0.319c0.046,-0.138 0.082,-0.244 0.107,-0.319l-0.512,0.411c-0.055,0.044 -0.094,0.069 -0.117,0.075c-0.023,0.006 -0.037,-0.01 -0.044,-0.048c0,-0 0.003,-0.023 0.008,-0.069c0.005,-0.046 0.012,-0.088 0.02,-0.125c0.011,-0.056 0.021,-0.092 0.03,-0.109c0.01,-0.017 0.039,-0.051 0.088,-0.104l0.299,-0.33c0.08,-0.09 0.137,-0.147 0.17,-0.171Z" style="fill:#cda91a;fill-rule:nonzero;"/><path d="M111.644,87.536l0.025,0.148c-0.061,0.143 -0.112,0.246 -0.153,0.309c-0.04,0.063 -0.104,0.123 -0.191,0.18c-0.111,0.335 -0.223,0.544 -0.337,0.626c-0.064,0.047 -0.127,0.063 -0.188,0.047c-0.062,-0.016 -0.117,-0.06 -0.164,-0.131c-0.047,-0.071 -0.08,-0.164 -0.1,-0.28c-0.015,-0.094 -0.009,-0.217 0.021,-0.367c0.029,-0.15 0.074,-0.303 0.135,-0.459c0.061,-0.155 0.13,-0.296 0.208,-0.421c0.078,-0.126 0.155,-0.216 0.23,-0.271c0.054,-0.039 0.098,-0.06 0.133,-0.061c0.034,-0.001 0.055,0.017 0.061,0.055c0.005,0.03 -0.003,0.073 -0.023,0.131c0.046,-0.02 0.079,-0.023 0.099,-0.007c0.021,0.015 0.037,0.059 0.049,0.131c0.012,0.071 0.014,0.169 0.006,0.295c-0.007,0.126 -0.026,0.253 -0.055,0.379l0.038,0.017l0.026,-0.018c0.019,-0.015 0.037,-0.035 0.054,-0.061c0.017,-0.027 0.031,-0.052 0.044,-0.077c0.013,-0.025 0.04,-0.08 0.082,-0.165Zm-0.45,-0.321c-0.083,0.142 -0.153,0.268 -0.211,0.377c-0.058,0.109 -0.105,0.211 -0.141,0.306c-0.037,0.096 -0.058,0.18 -0.064,0.254c-0.001,0.185 -0.001,0.285 0.002,0.298c0.016,0.097 0.077,0.107 0.182,0.03c0.049,-0.036 0.123,-0.151 0.22,-0.344c-0.031,-0.055 -0.052,-0.114 -0.062,-0.177c-0.016,-0.093 -0.017,-0.198 -0.003,-0.316c0.013,-0.118 0.039,-0.261 0.077,-0.428Z" style="fill:#cda91a;fill-rule:nonzero;"/><path d="M111.653,87.725l-0.024,-0.143c0.046,-0.14 0.079,-0.254 0.1,-0.343c-0.039,0.01 -0.069,0.01 -0.089,-0.002c-0.021,-0.011 -0.035,-0.04 -0.043,-0.087c-0.009,-0.053 -0.003,-0.133 0.018,-0.239c0.021,-0.105 0.05,-0.212 0.089,-0.319c0.039,-0.108 0.077,-0.187 0.114,-0.238c0.015,-0.022 0.029,-0.038 0.044,-0.049c0.023,-0.017 0.037,-0.011 0.042,0.017c0.004,0.025 -0.005,0.089 -0.028,0.191c0.228,-0.219 0.373,-0.352 0.434,-0.397c0.025,-0.017 0.042,-0.027 0.052,-0.027c0.021,-0.001 0.043,0.018 0.063,0.057c0.021,0.039 0.035,0.083 0.044,0.132c0.005,0.031 -0,0.072 -0.015,0.123c-0.016,0.052 -0.043,0.131 -0.083,0.238c-0.047,0.128 -0.082,0.256 -0.107,0.385c-0.025,0.128 -0.033,0.217 -0.025,0.267c0.012,0.07 0.051,0.08 0.117,0.031c0.07,-0.051 0.176,-0.231 0.318,-0.539l0.025,0.148c-0.073,0.197 -0.135,0.355 -0.185,0.474c-0.049,0.118 -0.096,0.218 -0.142,0.3c-0.045,0.082 -0.089,0.138 -0.13,0.168c-0.048,0.035 -0.093,0.036 -0.134,0.003c-0.042,-0.033 -0.071,-0.103 -0.089,-0.21c-0.011,-0.064 -0.01,-0.145 0.001,-0.244c0.012,-0.099 0.034,-0.214 0.067,-0.345c0.033,-0.13 0.072,-0.264 0.116,-0.403c-0.03,0.033 -0.065,0.068 -0.103,0.107c-0.039,0.039 -0.079,0.08 -0.122,0.123c-0.043,0.042 -0.076,0.076 -0.099,0.099c-0.041,0.234 -0.116,0.475 -0.226,0.722Z" style="fill:#cda91a;fill-rule:nonzero;"/><path d="M113.263,85.415l-0.013,-0.28c-0.004,-0.096 0.002,-0.181 0.019,-0.257c0.017,-0.075 0.053,-0.17 0.108,-0.285c0.054,-0.115 0.141,-0.284 0.258,-0.509c0.284,-0.542 0.518,-0.881 0.703,-1.016c0.056,-0.041 0.099,-0.056 0.127,-0.043c0.028,0.012 0.049,0.055 0.061,0.128c0.009,0.052 0.005,0.133 -0.01,0.245c-0.015,0.112 -0.047,0.294 -0.095,0.547c-0.049,0.253 -0.091,0.48 -0.127,0.679c-0.029,0.163 -0.064,0.339 -0.104,0.528c-0.04,0.189 -0.067,0.317 -0.08,0.386c-0.013,0.069 -0.017,0.117 -0.013,0.143c0.005,0.03 0.017,0.049 0.035,0.06c0.019,0.01 0.039,0.008 0.061,-0.008c0.029,-0.022 0.059,-0.067 0.09,-0.135c0.03,-0.069 0.088,-0.211 0.174,-0.427c0.041,-0.106 0.084,-0.228 0.129,-0.364c0.045,-0.137 0.099,-0.31 0.164,-0.521c0.065,-0.211 0.125,-0.406 0.18,-0.586c0.034,-0.113 0.064,-0.213 0.092,-0.303c0.027,-0.089 0.052,-0.16 0.073,-0.213c0.021,-0.053 0.04,-0.085 0.056,-0.097c0.014,-0.01 0.04,-0.004 0.078,0.018l0.053,0.038c0.04,0.033 0.062,0.062 0.066,0.087c0.005,0.03 -0.019,0.168 -0.074,0.417c-0.054,0.248 -0.099,0.462 -0.136,0.641c-0.037,0.18 -0.081,0.432 -0.132,0.758c-0.052,0.325 -0.095,0.676 -0.13,1.053c0.195,-0.395 0.329,-0.661 0.402,-0.8c0.073,-0.138 0.13,-0.222 0.168,-0.25c0.027,-0.019 0.042,-0.015 0.047,0.013c0.005,0.031 -0.001,0.08 -0.018,0.148c-0.017,0.067 -0.041,0.146 -0.074,0.237c-0.032,0.09 -0.082,0.223 -0.148,0.398c-0.067,0.175 -0.139,0.364 -0.218,0.569c-0.048,0.126 -0.093,0.264 -0.133,0.413c-0.041,0.15 -0.072,0.267 -0.094,0.349c-0.022,0.082 -0.046,0.137 -0.071,0.165c-0.036,0.043 -0.073,0.058 -0.112,0.045c-0.038,-0.013 -0.064,-0.06 -0.077,-0.139c-0.009,-0.056 -0.006,-0.187 0.008,-0.395c0.015,-0.207 0.045,-0.473 0.091,-0.798c0.027,-0.195 0.056,-0.381 0.088,-0.56c0.031,-0.179 0.069,-0.378 0.113,-0.598c0.043,-0.219 0.087,-0.428 0.13,-0.628c0.044,-0.201 0.081,-0.371 0.111,-0.512c-0.082,0.276 -0.164,0.546 -0.247,0.81c-0.082,0.264 -0.176,0.547 -0.281,0.849c-0.106,0.303 -0.215,0.593 -0.328,0.872c-0.049,0.12 -0.085,0.203 -0.107,0.25c-0.022,0.047 -0.055,0.086 -0.099,0.118c-0.027,0.02 -0.056,0.028 -0.086,0.022c-0.03,-0.005 -0.056,-0.021 -0.08,-0.047c-0.024,-0.027 -0.039,-0.058 -0.045,-0.095c-0.01,-0.062 -0.012,-0.122 -0.006,-0.179c0.007,-0.058 0.02,-0.146 0.04,-0.266c0.088,-0.518 0.155,-0.878 0.201,-1.08c0.166,-0.709 0.244,-1.095 0.234,-1.158c-0.004,-0.021 -0.012,-0.033 -0.026,-0.037c-0.013,-0.004 -0.029,-0 -0.046,0.012c-0.032,0.024 -0.067,0.07 -0.106,0.139c-0.039,0.068 -0.086,0.162 -0.142,0.282c-0.055,0.12 -0.123,0.265 -0.203,0.434c-0.081,0.169 -0.167,0.337 -0.258,0.505c-0.037,0.066 -0.077,0.143 -0.122,0.23c-0.046,0.088 -0.072,0.134 -0.08,0.14c-0.016,0.012 -0.026,0.008 -0.029,-0.013c-0.004,-0.019 -0.007,-0.062 -0.01,-0.129Z" style="fill:#cda91a;fill-rule:nonzero;"/><path d="M116.508,83.981l0.025,0.148c-0.061,0.143 -0.112,0.246 -0.153,0.309c-0.041,0.063 -0.104,0.123 -0.191,0.18c-0.111,0.335 -0.223,0.544 -0.337,0.627c-0.064,0.046 -0.127,0.062 -0.188,0.046c-0.062,-0.016 -0.117,-0.059 -0.164,-0.13c-0.047,-0.071 -0.08,-0.165 -0.1,-0.281c-0.016,-0.094 -0.009,-0.216 0.021,-0.367c0.029,-0.15 0.074,-0.303 0.135,-0.458c0.061,-0.156 0.13,-0.297 0.208,-0.422c0.078,-0.125 0.155,-0.216 0.23,-0.271c0.054,-0.039 0.098,-0.06 0.133,-0.061c0.034,-0.001 0.054,0.017 0.061,0.056c0.005,0.029 -0.003,0.072 -0.023,0.13c0.046,-0.02 0.079,-0.022 0.099,-0.007c0.021,0.015 0.037,0.059 0.049,0.131c0.012,0.071 0.014,0.169 0.006,0.295c-0.008,0.126 -0.026,0.253 -0.055,0.379l0.038,0.018l0.026,-0.019c0.019,-0.015 0.037,-0.035 0.054,-0.061c0.017,-0.026 0.031,-0.052 0.044,-0.077c0.012,-0.025 0.04,-0.08 0.082,-0.165Zm-0.451,-0.321c-0.082,0.143 -0.152,0.269 -0.21,0.377c-0.058,0.109 -0.105,0.211 -0.142,0.307c-0.036,0.095 -0.057,0.179 -0.063,0.253c-0.001,0.185 -0.001,0.285 0.002,0.298c0.016,0.097 0.077,0.107 0.182,0.03c0.049,-0.036 0.122,-0.151 0.22,-0.344c-0.031,-0.055 -0.052,-0.114 -0.063,-0.177c-0.015,-0.093 -0.016,-0.198 -0.002,-0.316c0.013,-0.118 0.039,-0.261 0.076,-0.428Z" style="fill:#cda91a;fill-rule:nonzero;"/><path d="M117.289,83.247c-0.119,0.403 -0.211,0.696 -0.278,0.879c-0.066,0.182 -0.127,0.293 -0.182,0.333c-0.044,0.032 -0.087,0.038 -0.132,0.018c-0.044,-0.019 -0.083,-0.061 -0.116,-0.125c-0.033,-0.064 -0.057,-0.141 -0.072,-0.23c-0.01,-0.059 -0.015,-0.115 -0.014,-0.168c0.001,-0.054 0.008,-0.117 0.023,-0.192c0.014,-0.074 0.036,-0.158 0.064,-0.253c0.029,-0.095 0.065,-0.206 0.108,-0.331c0.025,-0.077 0.047,-0.141 0.065,-0.194c0.017,-0.052 0.036,-0.093 0.056,-0.122c0.021,-0.028 0.056,-0.061 0.106,-0.098c0.037,-0.027 0.073,-0.046 0.108,-0.058c0.035,-0.012 0.054,-0.011 0.056,0.002c0.005,0.027 -0.004,0.087 -0.026,0.181c-0.022,0.093 -0.063,0.217 -0.121,0.371c-0.059,0.154 -0.129,0.315 -0.211,0.483c-0.008,0.102 -0.007,0.176 0,0.222c0.011,0.063 0.035,0.081 0.073,0.053c0.013,-0.01 0.034,-0.042 0.061,-0.095c0.027,-0.054 0.071,-0.151 0.133,-0.293c0.062,-0.142 0.117,-0.268 0.167,-0.378c0.036,-0.083 0.076,-0.195 0.118,-0.337c0.042,-0.143 0.078,-0.252 0.106,-0.329c0.065,-0.177 0.111,-0.293 0.136,-0.35c0.025,-0.058 0.052,-0.097 0.08,-0.118c0.028,-0.02 0.048,-0.022 0.062,-0.007c0.013,0.015 0.026,0.056 0.037,0.124c0.005,0.03 0.007,0.057 0.006,0.08c-0.002,0.022 -0.007,0.054 -0.016,0.094c-0.01,0.041 -0.029,0.117 -0.059,0.23c-0.03,0.113 -0.066,0.246 -0.107,0.399c-0.022,0.083 -0.039,0.167 -0.052,0.255c-0.012,0.087 -0.015,0.149 -0.009,0.184c0.012,0.076 0.042,0.097 0.089,0.063c0.039,-0.028 0.081,-0.082 0.125,-0.161c0.045,-0.079 0.112,-0.211 0.2,-0.396l0.025,0.148c-0.107,0.257 -0.187,0.444 -0.239,0.563c-0.052,0.119 -0.099,0.214 -0.139,0.285c-0.041,0.071 -0.083,0.122 -0.125,0.153c-0.096,0.07 -0.157,0.032 -0.181,-0.115c-0.01,-0.056 -0.008,-0.142 0.005,-0.257c0.013,-0.116 0.036,-0.287 0.07,-0.513Z" style="fill:#cda91a;fill-rule:nonzero;"/></g><path d="M112.476,80.055c-0.335,-0.183 0.347,-1.528 0.686,-1.845c0.339,-0.316 1.004,0.744 1.487,0.677c0.483,-0.066 1.176,-0.077 1.409,-1.075c0.474,-2.036 -0.734,-0.976 -0.734,-0.976c-0.212,-0.238 0.376,-1.33 0.897,-1.156c0.386,0.13 0.833,1.286 0.377,2.275c-0.157,0.341 -0.962,0.861 -1.427,1.351c-2.196,2.309 -2.36,0.932 -2.695,0.749Z" style="fill:#e3b500;"/><path d="M119.248,77.997c0.105,0.298 -0.35,0.847 -0.527,0.883c-0.177,0.036 -0.289,-1.024 -0.487,-1.231c-0.198,-0.207 -0.47,-0.562 -0.701,-0.012c-0.471,1.122 0.15,1.04 0.15,1.04c0.049,0.27 -0.334,0.698 -0.513,0.309c-0.133,-0.289 -0.145,-1.3 0.172,-1.727c0.109,-0.147 0.497,-0.078 0.747,-0.164c1.182,-0.407 1.053,0.605 1.159,0.902Z" style="fill:#e3b500;"/><path d="M119.399,78.737c-0.185,-0.041 -0.422,0.656 -0.413,0.876c0.008,0.221 0.624,0.053 0.773,0.229c0.149,0.177 0.393,0.4 0.12,0.831c-0.557,0.878 -0.611,0.116 -0.611,0.116c-0.16,0.018 -0.34,0.595 -0.091,0.697c0.184,0.076 0.756,-0.195 0.946,-0.693c0.066,-0.172 -0.036,-0.613 -0.028,-0.935c0.039,-1.521 -0.511,-1.081 -0.696,-1.121Z" style="fill:#e3b500;"/><path d="M120.284,84.028c-0.132,0.272 -0.525,0.035 -0.584,-0.148c-0.059,-0.183 0.473,-0.854 0.536,-1.186c0.064,-0.332 0.189,-0.825 -0.153,-0.806c-0.698,0.039 -0.513,0.704 -0.513,0.704c-0.131,0.196 -0.444,-0.021 -0.28,-0.425c0.122,-0.3 0.651,-0.833 0.948,-0.691c0.102,0.049 0.154,0.527 0.256,0.768c0.484,1.138 -0.077,1.511 -0.21,1.784Z" style="fill:#e3b500;"/><path d="M112.028,80.423c0.208,-0.579 -0.727,-0.743 -1.086,-0.549c-0.36,0.195 -0.564,1.889 -0.961,2.466c-0.398,0.577 -0.943,1.472 -1.423,0.994c-0.978,-0.974 0.283,-1.719 0.283,-1.719c0.095,-0.462 -0.691,-0.551 -1.046,0.264c-0.264,0.605 -0.269,2.091 0.383,2.27c0.225,0.062 1.009,-0.578 1.519,-0.802c2.406,-1.054 2.124,-2.345 2.331,-2.924Z" style="fill:#e3b500;"/><path d="M106.085,87.435c0.007,0.369 0.527,0.206 0.676,0.004c0.149,-0.203 -0.08,-1.177 0.013,-1.596c0.093,-0.42 0.2,-1.053 0.545,-0.924c0.703,0.264 0.193,1.009 0.193,1.009c0.041,0.276 0.469,0.112 0.493,-0.426c0.017,-0.399 -0.274,-1.206 -0.649,-1.127c-0.13,0.027 -0.412,0.586 -0.634,0.845c-1.045,1.221 -0.643,1.845 -0.637,2.215Z" style="fill:#e3b500;"/><path d="M111.77,77.845c0.251,-0.183 0.511,0.008 0.581,0.428c0.071,0.419 -0.076,0.908 -0.327,1.091c-0.251,0.184 -0.511,-0.008 -0.581,-0.427c-0.071,-0.419 0.076,-0.909 0.327,-1.092Z" style="fill:#e3b500;"/><path d="M114.399,91.551c-0.207,0.579 0.727,0.743 1.087,0.549c0.36,-0.195 0.564,-1.89 0.961,-2.466c0.397,-0.577 0.943,-1.472 1.423,-0.995c0.978,0.975 -0.283,1.72 -0.283,1.72c-0.095,0.462 0.69,0.55 1.046,-0.265c0.263,-0.604 0.268,-2.09 -0.383,-2.27c-0.225,-0.062 -1.01,0.579 -1.52,0.802c-2.405,1.054 -2.123,2.346 -2.331,2.925Z" style="fill:#e3b500;"/><path d="M120.309,84.34c-0.007,-0.37 -0.526,-0.206 -0.675,-0.004c-0.15,0.203 0.079,1.176 -0.014,1.596c-0.093,0.42 -0.2,1.053 -0.545,0.923c-0.703,-0.264 -0.193,-1.008 -0.193,-1.008c-0.041,-0.276 -0.469,-0.112 -0.493,0.426c-0.017,0.399 0.274,1.205 0.649,1.127c0.13,-0.027 0.412,-0.586 0.634,-0.845c1.046,-1.221 0.643,-1.845 0.637,-2.215Z" style="fill:#e3b500;"/><path d="M113.939,91.846c0.335,0.182 -0.346,1.528 -0.686,1.845c-0.339,0.316 -1.004,-0.744 -1.487,-0.677c-0.482,0.066 -1.176,0.077 -1.409,1.075c-0.474,2.036 0.734,0.976 0.734,0.976c0.212,0.238 -0.376,1.33 -0.897,1.156c-0.386,-0.13 -0.833,-1.286 -0.377,-2.275c0.157,-0.341 0.962,-0.862 1.427,-1.351c2.196,-2.309 2.361,-0.932 2.695,-0.749Z" style="fill:#e3b500;"/><path d="M107.201,94.102c-0.105,-0.297 0.35,-0.846 0.527,-0.882c0.177,-0.036 0.288,1.024 0.486,1.231c0.198,0.207 0.471,0.562 0.702,0.012c0.471,-1.122 -0.15,-1.04 -0.15,-1.04c-0.05,-0.27 0.333,-0.698 0.512,-0.309c0.133,0.289 0.146,1.299 -0.171,1.727c-0.109,0.147 -0.497,0.077 -0.747,0.164c-1.182,0.407 -1.054,-0.605 -1.159,-0.903Z" style="fill:#e3b500;"/><path d="M114.506,94.199c0.251,-0.184 0.398,-0.673 0.327,-1.092c-0.07,-0.419 -0.33,-0.611 -0.581,-0.428c-0.251,0.184 -0.398,0.673 -0.327,1.092c0.07,0.419 0.33,0.611 0.581,0.428Z" style="fill:#e3b500;"/><path d="M118.889,81.698c0.115,-0.084 0.233,-0.01 0.262,0.166c0.029,0.176 -0.04,0.386 -0.155,0.47c-0.115,0.084 -0.232,0.01 -0.262,-0.166c-0.029,-0.175 0.041,-0.386 0.155,-0.47Z" style="fill:#e3b500;"/><path d="M106.12,88.439c0.132,-0.273 0.525,-0.036 0.584,0.148c0.06,0.183 -0.472,0.854 -0.536,1.186c-0.064,0.332 -0.188,0.825 0.154,0.805c0.697,-0.038 0.512,-0.704 0.512,-0.704c0.131,-0.195 0.444,0.022 0.28,0.426c-0.122,0.299 -0.65,0.832 -0.948,0.69c-0.102,-0.049 -0.154,-0.526 -0.256,-0.767c-0.484,-1.139 0.077,-1.511 0.21,-1.784Z" style="fill:#e3b500;"/><path d="M107.005,93.73c0.185,0.041 0.422,-0.656 0.413,-0.877c-0.008,-0.22 -0.624,-0.052 -0.773,-0.228c-0.149,-0.177 -0.393,-0.4 -0.12,-0.831c0.557,-0.878 0.611,-0.117 0.611,-0.117c0.16,-0.017 0.34,-0.594 0.092,-0.697c-0.185,-0.076 -0.757,0.196 -0.947,0.694c-0.066,0.172 0.036,0.613 0.028,0.935c-0.039,1.521 0.511,1.08 0.696,1.121Z" style="fill:#e3b500;"/><path d="M107.401,90.091c-0.115,0.084 -0.184,0.295 -0.155,0.471c0.03,0.175 0.147,0.25 0.262,0.166c0.115,-0.084 0.184,-0.295 0.155,-0.471c-0.03,-0.175 -0.147,-0.25 -0.262,-0.166Z" style="fill:#e3b500;"/><path d="M109.82,99.122c-3.327,0.352 -6.003,-1.834 -6.713,-6.08c-1.022,-6.104 2.404,-14.169 7.645,-17.999c1.807,-1.321 3.595,-1.966 5.204,-1.996c-1.456,0.155 -3.037,0.794 -4.632,1.96c-5.241,3.831 -8.667,11.896 -7.645,18c0.669,3.999 3.082,6.17 6.141,6.115Z" style="fill:#737373;fill-opacity:0.26;"/></g></g></svg>
