<?xml version="1.0" encoding="UTF-8" standalone="no"?><!DOCTYPE svg PUBLIC "-//W3C//DTD SVG 1.1//EN" "http://www.w3.org/Graphics/SVG/1.1/DTD/svg11.dtd"><svg width="100%" height="100%" viewBox="0 0 200 200" version="1.1" xmlns="http://www.w3.org/2000/svg" xmlns:xlink="http://www.w3.org/1999/xlink" xml:space="preserve" xmlns:serif="http://www.serif.com/" style="fill-rule:evenodd;clip-rule:evenodd;stroke-linejoin:round;stroke-miterlimit:2;"><path d="M39.764,140.947c0.018,-0.405 -1.533,-32.767 0.137,-42.105c1.867,-10.45 21.834,-21.977 48.048,-18.37c-6.248,-15.135 13.719,-26.662 31.817,-27.741c18.099,-1.078 34.33,8.292 40.577,23.427c1.098,2.343 1.704,4.971 1.911,7.783c0.588,7.991 0.06,39.377 0.082,42.984c0.061,10.075 -4.414,22.099 -9.464,31.915c-23.091,3.96 -53.233,7.307 -72.395,4.314c-25.188,-3.466 -41.16,-12.254 -40.713,-22.207Z" style="fill:#2ccdba;"/><path d="M39.764,140.947c0.018,-0.405 -1.533,-32.767 0.137,-42.105c1.867,-10.45 21.834,-21.977 48.048,-18.37c-6.248,-15.135 13.719,-26.662 31.817,-27.741c18.099,-1.078 34.33,8.292 40.577,23.427c1.098,2.343 1.704,4.971 1.911,7.783c0.588,7.991 0.06,39.377 0.082,42.984c0.061,10.075 -4.414,22.099 -9.464,31.915c-23.091,3.96 -53.233,7.307 -72.395,4.314c-25.188,-3.466 -41.16,-12.254 -40.713,-22.207Z" style="fill:#fff;fill-opacity:0.12;"/><path d="M39.88,98.964c-1.721,10.4 14.486,19.712 40.597,23.305c19.162,2.993 49.304,-0.354 72.395,-4.314c5.356,-10.41 10.065,-23.303 9.402,-33.722c0.556,8.435 0.04,39.127 0.062,42.692c0.061,10.075 -4.414,22.099 -9.464,31.915c-23.091,3.96 -53.233,7.307 -72.395,4.314c-25.188,-3.466 -41.16,-12.254 -40.713,-22.207c0.018,-0.405 -1.533,-32.767 0.137,-42.105l-0.021,0.122Z" style="fill:#fff;fill-opacity:0.18;"/><path d="M39.88,98.964c-1.721,10.4 14.486,19.712 40.597,23.305c19.162,2.993 49.304,-0.354 72.395,-4.314c-0.011,16.047 0.238,25.348 -0,40.885c-23.091,3.96 -53.233,7.307 -72.395,4.314c-25.188,-3.466 -41.16,-12.254 -40.713,-22.207c0.018,-0.405 -1.533,-32.767 0.137,-42.105l-0.021,0.122Z" style="fill:#fff;fill-opacity:0.18;"/><path d="M39.88,98.964c-1.721,10.4 14.486,19.712 40.597,23.305c19.162,2.993 49.304,-0.354 72.395,-4.314c5.356,-10.41 10.065,-23.303 9.402,-33.722c0.556,8.435 0.04,39.127 0.062,42.692c0.061,10.075 -4.414,22.099 -9.464,31.915c-23.091,3.96 -53.233,7.307 -72.395,4.314c-25.188,-3.466 -41.16,-12.254 -40.713,-22.207c0.018,-0.405 -1.533,-32.767 0.137,-42.105l-0.021,0.122Z" style="fill:#fff;fill-opacity:0.18;"/><path d="M39.88,98.964c-1.721,10.4 14.486,19.712 40.597,23.305c19.162,2.993 49.304,-0.354 72.395,-4.314c-0.011,16.047 0.238,25.348 -0,40.885c-23.091,3.96 -53.233,7.307 -72.395,4.314c-25.188,-3.466 -41.16,-12.254 -40.713,-22.207c0.018,-0.405 -1.533,-32.767 0.137,-42.105l-0.021,0.122Z" style="fill:#fff;fill-opacity:0.18;"/><path d="M86.188,65.533c-6.7,-16.229 14.711,-28.591 34.119,-29.747c19.408,-1.157 36.813,8.892 43.512,25.122c5.559,11.863 -0.657,30.524 -8.012,44.82c-24.761,4.247 -57.084,7.835 -77.631,4.625c-28.11,-3.868 -45.515,-13.916 -43.512,-25.121c2.003,-11.205 23.414,-23.567 51.524,-19.699Z" style="fill:#2ccdba;"/><path d="M34.517,104.482c0.02,-0.434 -1.643,-9.236 0.147,-19.25c2.003,-11.205 23.414,-23.567 51.524,-19.699c-6.7,-16.229 14.711,-28.591 34.119,-29.747c19.408,-1.157 36.813,8.892 43.512,25.122c1.177,2.512 1.826,5.329 2.049,8.346c0.631,8.568 0.064,16.324 0.087,20.192c0.066,10.804 -4.732,23.697 -10.148,34.223c-24.761,4.247 -57.084,7.836 -77.631,4.626c-27.011,-3.717 -44.137,-13.14 -43.659,-23.813Z" style="fill:#001b35;"/><path d="M34.641,85.363c-1.844,11.152 15.534,21.138 43.535,24.99c20.547,3.21 52.87,-0.378 77.631,-4.625c5.744,-11.164 10.793,-24.989 10.082,-36.162c0.596,9.046 0.043,16.057 0.066,19.88c0.066,10.804 -4.732,23.697 -10.148,34.223c-24.761,4.247 -57.084,7.836 -77.631,4.626c-27.011,-3.717 -44.137,-13.14 -43.659,-23.813c0.02,-0.434 -1.643,-9.236 0.147,-19.25l-0.023,0.131Z" style="fill:#fff;fill-opacity:0.08;"/><path d="M34.641,85.363c-1.844,11.152 15.534,21.138 43.535,24.99c20.547,3.21 52.87,-0.378 77.631,-4.625c-0.012,17.208 0.256,1.281 -0,17.941c-24.761,4.247 -57.084,7.836 -77.631,4.626c-27.011,-3.717 -44.137,-13.14 -43.659,-23.813c0.02,-0.434 -1.643,-9.236 0.147,-19.25l-0.023,0.131Z" style="fill:#fff;fill-opacity:0.08;"/><path d="M105.433,79.251l-0,1.22l9.695,-4.15l8.433,4.803l1.521,-14.067l10.718,12.45l4.802,-6.393l11.463,1.725l0,-1.22c0,-0 -22.562,-25.692 -26.567,-30.252c-0.379,-0.431 -0.944,-0.651 -1.515,-0.588c-2.627,0.289 -10.239,1.127 -13.404,1.475c-0.821,0.091 -1.469,0.74 -1.557,1.561c-0.699,6.514 -3.589,33.436 -3.589,33.436Z" style="fill:#2ccdba;"/><path d="M105.57,79.192l-0.137,1.279l9.695,-4.15l8.433,4.803l1.521,-14.067l10.718,12.45l4.802,-6.393l11.463,1.725l0,-1.22l-11.463,-1.725l-4.802,6.392l-10.718,-12.45l-1.521,14.068l-8.433,-4.803l-9.558,4.091Z" style="fill:#fff;fill-opacity:0.29;"/><path d="M114.07,47.184c0.206,-0.86 2.275,-1.715 4.944,-1.963c2.668,-0.249 5.098,0.186 5.762,0.964c0.923,-0.685 3.455,-0.828 5.981,-0.273c2.527,0.555 4.254,1.633 4.155,2.499c1.393,-0.327 3.709,0.28 5.417,1.49c1.707,1.21 2.27,2.642 1.433,3.364c1.49,0.119 2.97,1.313 3.401,2.854c0.431,1.54 -0.322,2.943 -1.671,3.327c1.187,0.533 1.434,1.994 0.473,3.453c-0.961,1.459 -2.828,2.456 -4.329,2.399c0.567,0.804 -0.485,2.141 -2.58,3.127c-2.096,0.986 -4.576,1.311 -5.826,0.828c-0.206,0.86 -2.275,1.714 -4.943,1.963c-2.669,0.249 -5.099,-0.186 -5.763,-0.965c-0.923,0.686 -3.455,0.828 -5.981,0.274c-2.527,-0.555 -4.254,-1.633 -4.155,-2.5c-1.393,0.327 -3.709,-0.28 -5.416,-1.49c-1.708,-1.209 -2.27,-2.642 -1.434,-3.363c-1.49,-0.119 -2.97,-1.314 -3.401,-2.854c-0.431,-1.541 0.323,-2.944 1.671,-3.327c-1.187,-0.533 -1.434,-1.995 -0.473,-3.453c0.961,-1.459 2.828,-2.456 4.329,-2.399c-0.567,-0.804 0.485,-2.141 2.58,-3.127c2.096,-0.986 4.577,-1.311 5.826,-0.828Z" style="fill:#EAC840;"/><path d="M114.301,47.481c0.201,-0.837 2.214,-1.669 4.811,-1.911c2.596,-0.242 4.96,0.181 5.607,0.939c0.898,-0.667 3.362,-0.806 5.82,-0.266c2.459,0.54 4.14,1.589 4.043,2.432c1.356,-0.318 3.609,0.273 5.271,1.45c1.661,1.177 2.209,2.571 1.395,3.273c1.45,0.116 2.89,1.278 3.309,2.777c0.42,1.5 -0.313,2.865 -1.626,3.238c1.155,0.518 1.396,1.941 0.46,3.36c-0.935,1.42 -2.752,2.39 -4.212,2.334c0.552,0.783 -0.472,2.084 -2.511,3.043c-2.039,0.96 -4.453,1.276 -5.669,0.806c-0.2,0.837 -2.214,1.668 -4.81,1.91c-2.597,0.243 -4.961,-0.181 -5.608,-0.938c-0.898,0.666 -3.361,0.805 -5.82,0.265c-2.458,-0.539 -4.139,-1.588 -4.043,-2.431c-1.355,0.318 -3.609,-0.273 -5.271,-1.45c-1.661,-1.178 -2.209,-2.571 -1.395,-3.273c-1.449,-0.116 -2.89,-1.278 -3.309,-2.778c-0.419,-1.499 0.314,-2.864 1.626,-3.237c-1.155,-0.519 -1.395,-1.941 -0.46,-3.36c0.935,-1.42 2.752,-2.39 4.212,-2.335c-0.551,-0.782 0.472,-2.083 2.511,-3.043c2.039,-0.959 4.453,-1.275 5.669,-0.805Z" style="fill:#fff;fill-opacity:0.22;"/><path d="M114.588,47.849c0.193,-0.808 2.137,-1.611 4.645,-1.845c2.507,-0.234 4.791,0.175 5.415,0.907c0.867,-0.644 3.246,-0.778 5.62,-0.257c2.375,0.522 3.998,1.535 3.905,2.349c1.309,-0.308 3.485,0.263 5.09,1.4c1.604,1.137 2.133,2.482 1.347,3.161c1.4,0.111 2.79,1.234 3.196,2.681c0.405,1.448 -0.303,2.766 -1.571,3.127c1.115,0.501 1.348,1.874 0.445,3.245c-0.903,1.371 -2.658,2.308 -4.068,2.254c0.533,0.756 -0.456,2.012 -2.425,2.939c-1.969,0.926 -4.3,1.231 -5.475,0.778c-0.193,0.808 -2.137,1.611 -4.645,1.844c-2.507,0.234 -4.79,-0.174 -5.415,-0.906c-0.867,0.644 -3.246,0.778 -5.62,0.257c-2.374,-0.522 -3.998,-1.535 -3.905,-2.349c-1.308,0.307 -3.485,-0.263 -5.089,-1.4c-1.605,-1.137 -2.133,-2.483 -1.348,-3.161c-1.4,-0.112 -2.79,-1.234 -3.195,-2.682c-0.405,-1.447 0.303,-2.766 1.57,-3.126c-1.115,-0.501 -1.348,-1.874 -0.445,-3.245c0.903,-1.371 2.658,-2.308 4.068,-2.254c-0.532,-0.756 0.456,-2.012 2.425,-2.939c1.969,-0.926 4.3,-1.231 5.475,-0.778Z" style="fill:#EAC840;"/><path d="M119.806,48.053c9.717,-0.906 18.881,2.913 20.451,8.523c1.569,5.611 -5.046,10.901 -14.763,11.807c-9.717,0.907 -18.881,-2.912 -20.45,-8.523c-1.57,-5.61 5.045,-10.901 14.762,-11.807Z" style="fill:#fff;fill-opacity:0.25;"/><path d="M119.952,48.576c9.218,-0.859 17.91,2.763 19.399,8.085c1.489,5.322 -4.786,10.34 -14.003,11.2c-9.218,0.859 -17.91,-2.763 -19.399,-8.085c-1.489,-5.322 4.786,-10.34 14.003,-11.2Z" style="fill:#EAC840;"/><path d="M120.323,49.902c7.95,-0.741 15.447,2.383 16.731,6.973c1.285,4.59 -4.127,8.918 -12.077,9.66c-7.95,0.741 -15.447,-2.383 -16.731,-6.973c-1.284,-4.59 4.127,-8.919 12.077,-9.66Z" style="fill:#fff;fill-opacity:0.25;"/><path d="M114.454,58.772l0.601,-0.056c0.289,-0.239 0.503,-0.445 0.642,-0.616c0.138,-0.171 0.201,-0.28 0.187,-0.328c-0.019,-0.067 -0.158,-0.089 -0.418,-0.065c-0.149,0.02 -0.413,0.06 -0.791,0.119c-0.378,0.058 -0.743,0.12 -1.095,0.186c-0.316,0.057 -0.567,0.109 -0.754,0.156c-0.187,0.047 -0.317,0.084 -0.392,0.11c-0.074,0.026 -0.119,0.044 -0.136,0.054c0.195,-0.023 0.36,-0.041 0.496,-0.053c0.212,-0.02 0.321,-0.019 0.327,0.002c0.002,0.009 -0.069,0.028 -0.213,0.057c-0.144,0.028 -0.28,0.057 -0.408,0.086c-0.126,0.028 -0.247,0.06 -0.364,0.094c-0.117,0.033 -0.189,0.052 -0.215,0.054c-0.061,0.006 -0.115,0 -0.16,-0.017c-0.046,-0.017 -0.073,-0.04 -0.081,-0.069c-0.005,-0.02 0.017,-0.076 0.066,-0.166c0.049,-0.091 0.128,-0.186 0.237,-0.283c0.109,-0.098 0.256,-0.176 0.44,-0.236c0.068,-0.022 0.289,-0.071 0.663,-0.147c0.375,-0.076 0.8,-0.153 1.276,-0.231c0.476,-0.078 0.916,-0.136 1.319,-0.174c0.244,-0.022 0.444,-0.026 0.599,-0.009c0.156,0.016 0.247,0.073 0.275,0.172c0.009,0.032 -0.004,0.084 -0.038,0.155c-0.035,0.071 -0.095,0.164 -0.182,0.278c-0.086,0.115 -0.195,0.241 -0.326,0.38c-0.131,0.139 -0.284,0.287 -0.457,0.445l0.612,-0.058l-0.434,0.387c-0.071,0.009 -0.16,0.019 -0.267,0.03c-0.108,0.011 -0.224,0.024 -0.351,0.038c-0.274,0.219 -0.577,0.429 -0.911,0.63c-0.335,0.201 -0.642,0.366 -0.923,0.495c-0.281,0.129 -0.484,0.199 -0.608,0.211c-0.051,0.004 -0.097,0.001 -0.138,-0.01c-0.041,-0.011 -0.065,-0.029 -0.072,-0.052c-0.005,-0.02 0.039,-0.077 0.134,-0.17c0.095,-0.094 0.238,-0.186 0.427,-0.277c0.189,-0.091 0.417,-0.154 0.682,-0.187c0.095,-0.061 0.176,-0.114 0.243,-0.161c0.067,-0.047 0.162,-0.114 0.284,-0.202c0.123,-0.088 0.217,-0.156 0.282,-0.203l-1.19,0.138c-0.129,0.015 -0.219,0.02 -0.27,0.017c-0.051,-0.003 -0.081,-0.019 -0.09,-0.05c0,-0 0.009,-0.016 0.027,-0.049c0.018,-0.032 0.039,-0.061 0.062,-0.086c0.033,-0.038 0.061,-0.062 0.084,-0.071c0.023,-0.01 0.093,-0.026 0.209,-0.049l0.71,-0.147c0.19,-0.041 0.323,-0.065 0.4,-0.072Z" style="fill:#cda91a;fill-rule:nonzero;"/><path d="M119.017,58.674l0.033,0.118c-0.155,0.087 -0.283,0.147 -0.382,0.181c-0.1,0.033 -0.25,0.057 -0.45,0.071c-0.294,0.213 -0.572,0.332 -0.835,0.356c-0.148,0.014 -0.29,0.005 -0.424,-0.027c-0.134,-0.032 -0.248,-0.083 -0.342,-0.151c-0.094,-0.069 -0.154,-0.149 -0.18,-0.242c-0.021,-0.075 0.012,-0.164 0.099,-0.266c0.087,-0.103 0.209,-0.202 0.366,-0.298c0.157,-0.096 0.33,-0.178 0.521,-0.246c0.19,-0.068 0.373,-0.11 0.548,-0.126c0.125,-0.012 0.225,-0.012 0.302,-0.002c0.076,0.01 0.118,0.031 0.127,0.062c0.007,0.023 -0.016,0.053 -0.069,0.089c0.104,0 0.177,0.009 0.22,0.028c0.043,0.018 0.073,0.056 0.089,0.114c0.016,0.056 0.006,0.13 -0.03,0.221c-0.035,0.092 -0.094,0.18 -0.177,0.265l0.081,0.025l0.06,-0.006c0.045,-0.004 0.088,-0.013 0.129,-0.027c0.041,-0.014 0.077,-0.028 0.108,-0.043c0.031,-0.014 0.1,-0.046 0.206,-0.096Zm-0.949,-0.387c-0.204,0.079 -0.377,0.15 -0.521,0.212c-0.143,0.062 -0.262,0.123 -0.357,0.182c-0.095,0.059 -0.154,0.114 -0.177,0.167c-0.03,0.138 -0.043,0.212 -0.04,0.223c0.022,0.078 0.154,0.105 0.398,0.082c0.114,-0.01 0.293,-0.072 0.537,-0.184c-0.061,-0.051 -0.098,-0.102 -0.112,-0.152c-0.021,-0.074 -0.008,-0.153 0.04,-0.236c0.047,-0.084 0.124,-0.182 0.232,-0.294Z" style="fill:#cda91a;fill-rule:nonzero;"/><path d="M119.008,58.818l-0.032,-0.115c0.122,-0.088 0.213,-0.163 0.272,-0.222c-0.088,-0.006 -0.154,-0.016 -0.198,-0.031c-0.044,-0.015 -0.071,-0.042 -0.081,-0.079c-0.012,-0.042 0.013,-0.1 0.074,-0.172c0.062,-0.072 0.143,-0.142 0.244,-0.209c0.1,-0.067 0.196,-0.114 0.287,-0.139c0.035,-0.012 0.07,-0.019 0.104,-0.022c0.053,-0.005 0.083,0.003 0.089,0.026c0.006,0.02 -0.024,0.064 -0.089,0.133c0.536,-0.089 0.875,-0.14 1.018,-0.153c0.056,-0.005 0.095,-0.006 0.117,-0.004c0.049,0.007 0.093,0.028 0.133,0.064c0.04,0.036 0.065,0.074 0.076,0.112c0.007,0.025 -0.01,0.054 -0.051,0.088c-0.041,0.033 -0.114,0.083 -0.218,0.149c-0.121,0.08 -0.219,0.164 -0.292,0.252c-0.074,0.088 -0.105,0.151 -0.094,0.191c0.016,0.056 0.1,0.076 0.254,0.062c0.162,-0.015 0.423,-0.114 0.782,-0.298l0.033,0.119c-0.191,0.123 -0.35,0.22 -0.477,0.292c-0.127,0.072 -0.246,0.131 -0.358,0.177c-0.113,0.047 -0.217,0.074 -0.312,0.083c-0.111,0.01 -0.211,-0.004 -0.298,-0.042c-0.086,-0.038 -0.142,-0.1 -0.166,-0.186c-0.014,-0.051 -0.001,-0.111 0.039,-0.181c0.04,-0.07 0.106,-0.149 0.198,-0.235c0.091,-0.086 0.197,-0.174 0.316,-0.262c-0.072,0.014 -0.154,0.029 -0.244,0.045c-0.091,0.017 -0.187,0.034 -0.288,0.052c-0.101,0.017 -0.179,0.031 -0.233,0.041c-0.124,0.161 -0.325,0.316 -0.605,0.464Z" style="fill:#cda91a;fill-rule:nonzero;"/><path d="M122.903,57.626l0.014,-0.213c0.004,-0.073 0.03,-0.135 0.078,-0.185c0.049,-0.051 0.142,-0.11 0.279,-0.177c0.138,-0.068 0.353,-0.166 0.647,-0.295c0.704,-0.311 1.272,-0.486 1.701,-0.526c0.13,-0.012 0.226,-0.009 0.286,0.009c0.061,0.019 0.1,0.058 0.117,0.116c0.011,0.041 -0.008,0.101 -0.058,0.179c-0.051,0.079 -0.148,0.204 -0.291,0.377c-0.144,0.173 -0.27,0.327 -0.378,0.464c-0.089,0.112 -0.191,0.232 -0.308,0.359c-0.117,0.128 -0.194,0.215 -0.233,0.262c-0.038,0.047 -0.055,0.081 -0.049,0.102c0.007,0.024 0.03,0.042 0.069,0.056c0.039,0.014 0.084,0.018 0.134,0.014c0.069,-0.007 0.142,-0.03 0.219,-0.071c0.077,-0.041 0.226,-0.128 0.448,-0.261c0.106,-0.066 0.219,-0.142 0.338,-0.229c0.118,-0.087 0.264,-0.198 0.439,-0.334c0.174,-0.136 0.335,-0.262 0.482,-0.378c0.091,-0.072 0.173,-0.137 0.247,-0.195c0.074,-0.058 0.138,-0.103 0.193,-0.135c0.055,-0.032 0.101,-0.05 0.138,-0.053c0.032,-0.003 0.089,0.009 0.17,0.038l0.111,0.046c0.084,0.038 0.129,0.067 0.134,0.087c0.007,0.023 -0.068,0.119 -0.224,0.286c-0.156,0.167 -0.287,0.312 -0.395,0.433c-0.107,0.122 -0.242,0.295 -0.403,0.521c-0.161,0.226 -0.308,0.473 -0.439,0.742c0.488,-0.23 0.823,-0.384 1.005,-0.463c0.182,-0.08 0.318,-0.123 0.408,-0.132c0.061,-0.005 0.094,0.003 0.101,0.025c0.007,0.025 -0.014,0.06 -0.061,0.105c-0.047,0.044 -0.113,0.095 -0.198,0.152c-0.085,0.057 -0.213,0.139 -0.386,0.248c-0.172,0.108 -0.36,0.225 -0.565,0.352c-0.125,0.078 -0.243,0.166 -0.354,0.265c-0.111,0.098 -0.197,0.174 -0.258,0.228c-0.062,0.054 -0.122,0.088 -0.181,0.1c-0.086,0.02 -0.171,0.019 -0.254,-0.003c-0.082,-0.023 -0.132,-0.066 -0.15,-0.129c-0.012,-0.045 0.013,-0.142 0.076,-0.291c0.063,-0.15 0.168,-0.338 0.317,-0.566c0.087,-0.136 0.179,-0.265 0.275,-0.388c0.096,-0.123 0.208,-0.259 0.337,-0.408c0.128,-0.149 0.255,-0.291 0.381,-0.426c0.125,-0.134 0.232,-0.249 0.319,-0.344c-0.222,0.178 -0.443,0.353 -0.663,0.522c-0.221,0.17 -0.47,0.35 -0.747,0.54c-0.277,0.191 -0.561,0.371 -0.851,0.542c-0.126,0.073 -0.217,0.124 -0.274,0.151c-0.056,0.028 -0.134,0.046 -0.235,0.056c-0.064,0.006 -0.128,0.002 -0.193,-0.012c-0.065,-0.014 -0.122,-0.034 -0.17,-0.062c-0.049,-0.027 -0.077,-0.056 -0.086,-0.085c-0.013,-0.05 -0.009,-0.095 0.014,-0.135c0.022,-0.041 0.064,-0.103 0.125,-0.186c0.27,-0.357 0.471,-0.603 0.602,-0.738c0.471,-0.474 0.7,-0.736 0.686,-0.786c-0.005,-0.017 -0.022,-0.029 -0.051,-0.036c-0.029,-0.008 -0.064,-0.01 -0.104,-0.006c-0.074,0.007 -0.159,0.029 -0.254,0.068c-0.095,0.038 -0.213,0.093 -0.354,0.164c-0.141,0.071 -0.312,0.157 -0.514,0.256c-0.202,0.1 -0.416,0.197 -0.643,0.292c-0.09,0.037 -0.191,0.081 -0.304,0.131c-0.112,0.051 -0.178,0.077 -0.196,0.078c-0.038,0.004 -0.058,-0.003 -0.063,-0.019c-0.004,-0.015 -0.005,-0.048 -0.003,-0.099Z" style="fill:#cda91a;fill-rule:nonzero;"/><path d="M130.284,57.623l0.033,0.119c-0.155,0.086 -0.283,0.147 -0.382,0.18c-0.1,0.033 -0.25,0.057 -0.45,0.071c-0.294,0.213 -0.572,0.332 -0.835,0.356c-0.148,0.014 -0.29,0.005 -0.424,-0.027c-0.134,-0.032 -0.248,-0.082 -0.342,-0.151c-0.094,-0.068 -0.154,-0.149 -0.18,-0.242c-0.021,-0.075 0.012,-0.164 0.099,-0.266c0.087,-0.102 0.209,-0.202 0.366,-0.298c0.157,-0.096 0.33,-0.178 0.521,-0.246c0.19,-0.067 0.373,-0.109 0.548,-0.126c0.125,-0.011 0.225,-0.012 0.302,-0.002c0.076,0.011 0.118,0.031 0.127,0.062c0.007,0.023 -0.016,0.053 -0.069,0.089c0.104,0 0.177,0.01 0.22,0.028c0.043,0.018 0.073,0.056 0.089,0.114c0.016,0.056 0.006,0.13 -0.03,0.222c-0.035,0.091 -0.094,0.179 -0.177,0.264l0.081,0.025l0.059,-0.005c0.046,-0.005 0.089,-0.014 0.13,-0.028c0.04,-0.014 0.077,-0.028 0.108,-0.043c0.031,-0.014 0.1,-0.046 0.206,-0.096Zm-0.949,-0.387c-0.204,0.079 -0.377,0.15 -0.521,0.212c-0.143,0.062 -0.262,0.123 -0.357,0.182c-0.095,0.059 -0.154,0.115 -0.177,0.168c-0.03,0.137 -0.043,0.212 -0.04,0.222c0.022,0.078 0.154,0.105 0.398,0.083c0.114,-0.011 0.293,-0.072 0.537,-0.184c-0.061,-0.051 -0.098,-0.102 -0.112,-0.153c-0.021,-0.074 -0.008,-0.153 0.04,-0.236c0.047,-0.084 0.124,-0.182 0.232,-0.294Z" style="fill:#cda91a;fill-rule:nonzero;"/><path d="M132.117,57.333c-0.322,0.262 -0.569,0.449 -0.743,0.563c-0.173,0.114 -0.324,0.177 -0.451,0.189c-0.101,0.009 -0.199,-0 -0.294,-0.03c-0.095,-0.029 -0.175,-0.073 -0.239,-0.131c-0.064,-0.059 -0.106,-0.124 -0.126,-0.196c-0.013,-0.047 -0.015,-0.09 -0.006,-0.129c0.01,-0.04 0.036,-0.085 0.079,-0.135c0.043,-0.051 0.103,-0.107 0.18,-0.168c0.076,-0.062 0.171,-0.132 0.285,-0.212c0.068,-0.048 0.126,-0.089 0.172,-0.122c0.047,-0.034 0.094,-0.058 0.143,-0.073c0.049,-0.014 0.132,-0.027 0.248,-0.038c0.085,-0.008 0.168,-0.011 0.247,-0.008c0.08,0.003 0.121,0.01 0.124,0.02c0.006,0.022 -0.022,0.063 -0.085,0.126c-0.063,0.063 -0.17,0.142 -0.321,0.237c-0.152,0.096 -0.331,0.192 -0.538,0.29c-0.03,0.074 -0.041,0.129 -0.031,0.166c0.014,0.051 0.065,0.072 0.153,0.064c0.032,-0.003 0.081,-0.02 0.149,-0.051c0.067,-0.031 0.18,-0.09 0.337,-0.175c0.157,-0.085 0.298,-0.161 0.424,-0.227c0.092,-0.049 0.195,-0.12 0.31,-0.212c0.114,-0.092 0.208,-0.162 0.282,-0.21c0.17,-0.11 0.288,-0.183 0.351,-0.217c0.064,-0.034 0.129,-0.054 0.196,-0.061c0.063,-0.006 0.109,-0.001 0.136,0.015c0.028,0.015 0.049,0.05 0.064,0.104c0.007,0.025 0.007,0.045 0.001,0.062c-0.006,0.016 -0.023,0.038 -0.049,0.065c-0.026,0.027 -0.081,0.078 -0.164,0.152c-0.082,0.074 -0.18,0.161 -0.293,0.263c-0.061,0.053 -0.112,0.111 -0.152,0.172c-0.04,0.061 -0.056,0.106 -0.048,0.134c0.017,0.061 0.08,0.087 0.188,0.076c0.091,-0.008 0.191,-0.034 0.301,-0.078c0.11,-0.044 0.276,-0.121 0.499,-0.23l0.033,0.119c-0.275,0.156 -0.478,0.269 -0.611,0.341c-0.132,0.071 -0.249,0.127 -0.349,0.166c-0.1,0.04 -0.2,0.064 -0.298,0.073c-0.223,0.021 -0.35,-0.027 -0.383,-0.145c-0.013,-0.045 0.003,-0.108 0.048,-0.19c0.046,-0.082 0.122,-0.202 0.231,-0.359Z" style="fill:#cda91a;fill-rule:nonzero;"/><path d="M126.304,66.915c0,-0 0,-0 0,-0c-0.18,0.025 -0.292,0.13 -0.248,0.234c0.044,0.105 0.226,0.169 0.407,0.144c-0,-0 -0,-0 -0,-0c0.18,-0.025 0.292,-0.131 0.248,-0.235c-0.044,-0.104 -0.226,-0.169 -0.407,-0.143Zm-2.604,0.231c-0,0 -0,0 -0,0c-0.186,0.008 -0.326,0.101 -0.313,0.208c0.012,0.107 0.173,0.188 0.359,0.181c-0,-0 -0,-0 -0,-0c0.185,-0.008 0.326,-0.101 0.313,-0.208c-0.013,-0.107 -0.174,-0.188 -0.359,-0.181Zm5.103,-0.713c0,-0 0,-0 0,-0c-0.17,0.042 -0.249,0.157 -0.175,0.256c0.074,0.098 0.272,0.144 0.443,0.101c-0,-0 -0,-0 -0,-0c0.17,-0.043 0.249,-0.157 0.175,-0.256c-0.073,-0.098 -0.272,-0.144 -0.443,-0.101Zm-7.738,0.688c0,0 0,0 0,0c-0.185,-0.011 -0.35,0.067 -0.369,0.174c-0.019,0.107 0.116,0.202 0.301,0.213c-0,0 -0,0 -0,0c0.185,0.011 0.35,-0.067 0.369,-0.173c0.019,-0.107 -0.116,-0.203 -0.301,-0.214Zm10.058,-1.409c0,0 0,0 0,0c-0.155,0.059 -0.199,0.18 -0.097,0.269c0.102,0.09 0.311,0.116 0.466,0.057c0,-0 0,-0 0,-0c0.156,-0.059 0.2,-0.18 0.098,-0.27c-0.102,-0.089 -0.311,-0.115 -0.467,-0.056Zm-12.646,1.125c0,0 0,0 0,0c-0.179,-0.029 -0.365,0.031 -0.415,0.135c-0.05,0.103 0.054,0.211 0.233,0.24c0,-0 0,-0 0,-0c0.179,0.029 0.365,-0.032 0.416,-0.135c0.05,-0.103 -0.055,-0.211 -0.234,-0.24Zm14.72,-2.063c0,-0 0,-0 0,-0c-0.136,0.073 -0.143,0.196 -0.017,0.275c0.127,0.078 0.34,0.083 0.477,0.01c-0,-0 -0,-0 -0,-0c0.136,-0.073 0.143,-0.197 0.017,-0.275c-0.127,-0.079 -0.341,-0.083 -0.477,-0.01Zm-17.187,1.529c0,-0 0,-0 0,-0c-0.168,-0.046 -0.369,-0.005 -0.449,0.092c-0.08,0.097 -0.008,0.213 0.16,0.259c-0,0 -0,0 -0,0c0.168,0.046 0.369,0.005 0.449,-0.092c0.08,-0.097 0.008,-0.213 -0.16,-0.259Zm18.957,-2.656c0,-0 0,-0 0,-0c-0.113,0.085 -0.084,0.207 0.064,0.272c0.147,0.065 0.359,0.049 0.472,-0.036c-0,-0 -0,-0 -0,-0c0.113,-0.086 0.084,-0.208 -0.064,-0.273c-0.147,-0.065 -0.359,-0.049 -0.472,0.037Zm-21.232,1.889c-0,-0 -0,-0 -0,-0c-0.152,-0.062 -0.363,-0.041 -0.47,0.047c-0.107,0.087 -0.07,0.209 0.082,0.271c-0,-0 -0,-0 -0,-0c0.152,0.061 0.362,0.04 0.469,-0.047c0.107,-0.088 0.071,-0.21 -0.081,-0.271Zm22.648,-3.173c0,0 0,0 0,0c-0.086,0.096 -0.022,0.213 0.142,0.263c0.165,0.05 0.369,0.013 0.455,-0.082c0,0 0,0 0,0c0.086,-0.095 0.023,-0.213 -0.142,-0.263c-0.165,-0.049 -0.368,-0.013 -0.455,0.082Zm-24.668,2.195c0,0 0,0 0,0c-0.132,-0.076 -0.345,-0.075 -0.476,0.001c-0.131,0.076 -0.131,0.199 0.001,0.275c0,0 0,0 0,0c0.132,0.076 0.346,0.075 0.477,-0.001c0.131,-0.076 0.13,-0.199 -0.002,-0.275Zm25.689,-3.597c-0,-0 -0,-0 -0,-0c-0.057,0.102 0.04,0.212 0.217,0.245c0.177,0.033 0.367,-0.023 0.424,-0.125c0,-0 0,-0 0,-0c0.057,-0.103 -0.04,-0.212 -0.217,-0.245c-0.177,-0.033 -0.367,0.023 -0.424,0.125Zm-27.394,2.437c0,0 0,0 0,0c-0.107,-0.087 -0.318,-0.108 -0.469,-0.046c-0.152,0.063 -0.187,0.184 -0.08,0.272c0,-0 0,-0 0,-0c0.108,0.087 0.319,0.108 0.47,0.045c0.152,-0.062 0.187,-0.183 0.079,-0.271Zm27.987,-3.919c0,0 0,0 0,0c-0.026,0.106 0.102,0.205 0.286,0.22c0.184,0.015 0.355,-0.059 0.381,-0.165c0,-0 0,-0 0,-0c0.026,-0.106 -0.102,-0.205 -0.286,-0.22c-0.184,-0.015 -0.355,0.059 -0.381,0.165Zm-29.325,2.609c0,-0 0,-0 0,-0c-0.08,-0.097 -0.282,-0.138 -0.449,-0.091c-0.168,0.046 -0.239,0.162 -0.158,0.259c-0,0 -0,0 -0,0c0.08,0.097 0.281,0.138 0.449,0.091c0.168,-0.046 0.239,-0.162 0.158,-0.259Zm29.472,-4.128c-0,0 -0,0 -0,0c0.005,0.108 0.161,0.192 0.347,0.189c0.185,-0.003 0.332,-0.093 0.326,-0.2c0,-0 0,-0 0,-0c-0.005,-0.108 -0.161,-0.192 -0.347,-0.189c-0.185,0.003 -0.332,0.093 -0.326,0.2Zm-30.403,2.705c-0,0 -0,0 -0,0c-0.051,-0.103 -0.237,-0.163 -0.416,-0.134c-0.179,0.029 -0.283,0.137 -0.232,0.24c-0,0 -0,0 -0,0c0.05,0.103 0.237,0.163 0.415,0.134c0.179,-0.029 0.284,-0.137 0.233,-0.24Zm30.102,-4.216c-0,-0 -0,-0 -0,-0c0.036,0.105 0.214,0.173 0.396,0.152c0.183,-0.021 0.301,-0.124 0.264,-0.229c0,-0 0,-0 0,-0c-0.036,-0.105 -0.214,-0.174 -0.396,-0.152c-0.183,0.021 -0.301,0.123 -0.264,0.229Zm-30.604,2.722c0,0 0,0 0,0c-0.02,-0.107 -0.186,-0.184 -0.371,-0.172c-0.185,0.011 -0.319,0.107 -0.299,0.214c0,-0 0,-0 0,-0c0.02,0.107 0.187,0.184 0.372,0.172c0.184,-0.011 0.318,-0.107 0.298,-0.214Zm29.867,-4.183c0,0 0,0 0,0c0.067,0.1 0.262,0.15 0.436,0.111c0.173,-0.038 0.26,-0.151 0.193,-0.251c-0,-0 -0,-0 -0,-0c-0.067,-0.1 -0.262,-0.15 -0.436,-0.112c-0.173,0.039 -0.26,0.152 -0.193,0.252Zm-29.926,2.662c0,0 0,0 0,0c0.012,-0.107 -0.129,-0.199 -0.315,-0.206c-0.186,-0.007 -0.346,0.075 -0.357,0.182c-0,-0 -0,-0 -0,-0c-0.012,0.107 0.129,0.2 0.315,0.206c0.185,0.007 0.345,-0.074 0.357,-0.182Zm28.77,-4.029c0,0 0,0 0,0c0.096,0.092 0.303,0.122 0.462,0.067c0.16,-0.055 0.212,-0.175 0.116,-0.267c-0,0 -0,0 -0,0c-0.096,-0.092 -0.303,-0.122 -0.462,-0.066c-0.16,0.055 -0.212,0.174 -0.116,0.266Zm-28.38,2.525c0,0 0,0 0,0c0.044,-0.104 -0.068,-0.209 -0.249,-0.234c-0.181,-0.025 -0.363,0.039 -0.406,0.144c-0,-0 -0,-0 -0,-0c-0.043,0.104 0.069,0.209 0.249,0.234c0.181,0.025 0.363,-0.039 0.406,-0.144Zm26.837,-3.758c0,0 0,0 0,0c0.121,0.082 0.334,0.091 0.475,0.021c0.141,-0.07 0.157,-0.193 0.036,-0.274c-0,-0 -0,-0 -0,-0c-0.122,-0.082 -0.334,-0.091 -0.475,-0.021c-0.141,0.07 -0.157,0.193 -0.036,0.274Zm-26.008,2.314c-0,0 -0,0 -0,0c0.073,-0.098 -0.006,-0.213 -0.177,-0.255c-0.171,-0.043 -0.369,0.003 -0.442,0.102c-0,-0 -0,-0 -0,-0c-0.074,0.099 0.006,0.213 0.176,0.255c0.171,0.043 0.37,-0.003 0.443,-0.102Zm24.126,-3.378c-0,-0 -0,-0 -0,-0c0.143,0.068 0.356,0.056 0.474,-0.026c0.118,-0.083 0.098,-0.206 -0.045,-0.274c-0,-0 -0,-0 -0,-0c-0.144,-0.069 -0.356,-0.057 -0.475,0.026c-0.118,0.083 -0.098,0.205 0.046,0.274Zm-22.886,2.036c-0,-0 -0,-0 -0,-0c0.101,-0.09 0.056,-0.211 -0.1,-0.269c-0.156,-0.059 -0.365,-0.033 -0.466,0.057c0,0 0,0 0,0c-0.101,0.09 -0.056,0.211 0.1,0.269c0.156,0.059 0.365,0.033 0.466,-0.057Zm20.72,-2.903c-0,0 -0,0 -0,0c0.161,0.054 0.367,0.022 0.459,-0.072c0.093,-0.093 0.037,-0.212 -0.124,-0.265c0,-0 0,-0 0,-0c-0.161,-0.054 -0.367,-0.021 -0.46,0.072c-0.092,0.093 -0.037,0.212 0.125,0.265Zm-19.106,1.7c-0,-0 -0,-0 -0,-0c0.125,-0.079 0.116,-0.202 -0.02,-0.275c-0.137,-0.073 -0.351,-0.068 -0.476,0.011c-0,0 -0.001,0 -0.001,0c-0.125,0.079 -0.116,0.203 0.02,0.275c0.137,0.073 0.351,0.068 0.477,-0.011Zm16.718,-2.343c-0,-0 -0,-0 -0,-0c0.174,0.037 0.368,-0.015 0.432,-0.116c0.064,-0.101 -0.026,-0.212 -0.2,-0.249c-0,-0 -0,-0 -0,-0c-0.175,-0.037 -0.369,0.014 -0.433,0.115c-0.064,0.101 0.026,0.213 0.201,0.25Zm-14.777,1.314c0,0 0,0 0,0c0.147,-0.065 0.174,-0.188 0.061,-0.273c-0.114,-0.085 -0.326,-0.1 -0.473,-0.035c0,0 0,0 0,0c-0.147,0.066 -0.174,0.188 -0.061,0.273c0.114,0.085 0.326,0.101 0.473,0.035Zm12.235,-1.714c-0,-0 -0,-0 -0,-0c0.183,0.019 0.358,-0.051 0.392,-0.157c0.033,-0.105 -0.088,-0.207 -0.271,-0.226c-0,-0 -0,-0 -0,-0c-0.183,-0.019 -0.359,0.051 -0.392,0.156c-0.033,0.106 0.088,0.207 0.271,0.227Zm-10.02,0.891c0,-0 0,-0 0,-0c0.165,-0.05 0.228,-0.168 0.141,-0.263c-0.087,-0.095 -0.291,-0.131 -0.456,-0.081c0,-0 0,-0 0,-0c-0.164,0.05 -0.227,0.168 -0.14,0.263c0.087,0.095 0.291,0.131 0.455,0.081Zm7.397,-1.035c0,-0 0,-0 0,-0c0.186,0.001 0.339,-0.086 0.34,-0.193c0.002,-0.108 -0.148,-0.196 -0.333,-0.197c-0,0 -0,0 -0,0c-0.186,-0 -0.339,0.086 -0.34,0.193c-0.002,0.108 0.147,0.196 0.333,0.197Zm-4.971,0.442c0,-0 0,-0 0,-0c0.177,-0.033 0.274,-0.143 0.216,-0.245c-0.057,-0.102 -0.248,-0.158 -0.424,-0.125c-0,-0 -0,-0 -0,-0c-0.177,0.033 -0.274,0.143 -0.216,0.245c0.057,0.102 0.247,0.158 0.424,0.125Zm2.344,-0.327c-0,-0 -0,-0 -0,-0c0.183,-0.017 0.308,-0.117 0.279,-0.223c-0.03,-0.106 -0.203,-0.178 -0.387,-0.161c0,-0 0,-0 0,-0c-0.183,0.017 -0.308,0.117 -0.279,0.223c0.03,0.106 0.203,0.178 0.387,0.161Z" style="fill:#eac840;"/><path d="M122.29,46.471c-1.039,0.248 0.236,1.003 -0.865,0.927c-1.064,-0.073 -1.513,0.347 -1.354,0.397c0.159,0.051 0.727,-0.271 2.307,-0.094c0.958,0.108 1.499,-0.273 1.421,-0.583c-0.122,-0.492 -0.62,-0.859 -1.509,-0.647Z" style="fill:#eac840;"/><path d="M116.644,46.998c1.121,0.046 0.323,0.994 1.327,0.722c0.97,-0.263 1.625,0.054 1.502,0.131c-0.124,0.077 -0.838,-0.125 -2.242,0.33c-0.85,0.276 -1.571,0.013 -1.667,-0.295c-0.152,-0.489 0.121,-0.928 1.08,-0.888Z" style="fill:#eac840;"/><path d="M119.279,46.169c0.52,-0.049 1.011,0.156 1.095,0.456c0.032,0.116 -0.357,0.345 -0.477,0.549c-0.191,0.322 -0.044,0.613 -0.163,0.622c-0.118,0.009 -0.189,-0.296 -0.547,-0.569c-0.223,-0.17 -0.666,-0.311 -0.698,-0.426c-0.084,-0.3 0.27,-0.584 0.79,-0.632Z" style="fill:#eac840;"/><path d="M121.809,46.26c0.078,0.038 0.195,0.128 0.195,0.128c0,-0 -0.266,-0.013 -0.434,0.274c-0.03,0.051 0.068,0.408 0.018,0.507c-0.11,0.219 -0.428,0.007 -0.876,0.099c-0.557,0.116 -0.581,0.277 -0.67,0.232c-0.059,-0.03 0.026,-0.243 0.248,-0.473c0.114,-0.118 0.338,-0.206 0.379,-0.32c0.076,-0.208 -0.204,-0.376 -0.204,-0.376c-0,0 0.146,-0.158 0.597,-0.193c0.259,-0.02 0.531,0.018 0.747,0.122Z" style="fill:#eac840;"/><path d="M116.948,46.713c-0.054,0.05 -0.115,0.157 -0.115,0.157c-0,0 0.245,-0.061 0.561,0.181c0.057,0.044 0.158,0.4 0.26,0.485c0.224,0.188 0.41,-0.072 0.886,-0.065c0.59,0.008 0.702,0.157 0.762,0.098c0.039,-0.04 -0.157,-0.226 -0.493,-0.404c-0.173,-0.091 -0.434,-0.134 -0.535,-0.235c-0.185,-0.183 -0.011,-0.393 -0.011,-0.393c0,-0 -0.225,-0.124 -0.672,-0.075c-0.256,0.028 -0.494,0.113 -0.643,0.251Z" style="fill:#eac840;"/><path d="M124.606,47.119c-0.144,-0.114 -0.318,-0.207 -0.534,-0.269c0,-0 0.186,0.257 -0.108,0.608c-0.093,0.111 -0.381,0.281 -0.381,0.281l0.904,0.053l0.119,-0.673Z" style="fill:#eac840;"/><path d="M114.748,48.038c0.075,-0.134 0.19,-0.254 0.361,-0.352c-0,-0 -0.037,0.277 0.434,0.557c0.148,0.088 0.515,0.198 0.515,0.198l-0.829,0.215l-0.481,-0.618Z" style="fill:#eac840;"/><path d="M128.702,69.392c-1.121,-0.047 -0.322,-0.995 -1.326,-0.722c-0.97,0.263 -1.625,-0.054 -1.502,-0.131c0.123,-0.077 0.838,0.125 2.241,-0.331c0.851,-0.276 1.572,-0.013 1.668,0.296c0.152,0.489 -0.121,0.928 -1.081,0.888Z" style="fill:#eac840;"/><path d="M123.057,69.919c1.039,-0.249 -0.237,-1.003 0.865,-0.927c1.064,0.073 1.513,-0.347 1.354,-0.398c-0.159,-0.05 -0.727,0.271 -2.307,0.094c-0.958,-0.107 -1.499,0.274 -1.421,0.584c0.122,0.491 0.62,0.859 1.509,0.647Z" style="fill:#eac840;"/><path d="M126.01,70.226c0.52,-0.048 0.874,-0.332 0.79,-0.632c-0.032,-0.116 -0.527,-0.263 -0.752,-0.434c-0.357,-0.271 -0.377,-0.574 -0.494,-0.561c-0.117,0.013 -0.018,0.315 -0.209,0.64c-0.119,0.201 -0.462,0.416 -0.43,0.531c0.084,0.3 0.574,0.505 1.095,0.456Z" style="fill:#eac840;"/><path d="M128.361,69.68c0.054,-0.05 0.116,-0.157 0.116,-0.157c-0,-0 -0.245,0.061 -0.562,-0.181c-0.056,-0.043 -0.158,-0.399 -0.259,-0.485c-0.224,-0.188 -0.41,0.072 -0.886,0.065c-0.591,-0.008 -0.702,-0.157 -0.762,-0.098c-0.04,0.04 0.157,0.226 0.493,0.404c0.173,0.091 0.433,0.134 0.535,0.235c0.185,0.184 0.01,0.394 0.01,0.394c0,-0 0.226,0.123 0.672,0.074c0.257,-0.028 0.495,-0.113 0.643,-0.251Z" style="fill:#eac840;"/><path d="M123.5,70.133c-0.078,-0.038 -0.195,-0.128 -0.195,-0.128c0,0 0.266,0.014 0.435,-0.274c0.03,-0.051 -0.068,-0.407 -0.018,-0.507c0.11,-0.219 0.427,-0.007 0.876,-0.099c0.556,-0.115 0.58,-0.277 0.67,-0.232c0.059,0.03 -0.026,0.243 -0.248,0.473c-0.114,0.118 -0.338,0.206 -0.38,0.32c-0.075,0.208 0.205,0.376 0.205,0.376c-0,-0 -0.147,0.158 -0.597,0.193c-0.259,0.02 -0.531,-0.018 -0.748,-0.122Z" style="fill:#eac840;"/><path d="M130.548,68.356c-0.074,0.135 -0.19,0.254 -0.36,0.353c-0,-0 0.036,-0.278 -0.435,-0.558c-0.148,-0.088 -0.515,-0.197 -0.515,-0.197l0.83,-0.215l0.48,0.617Z" style="fill:#eac840;"/><path d="M120.69,69.276c0.144,0.114 0.318,0.206 0.534,0.269c0,-0 -0.186,-0.257 0.109,-0.609c0.092,-0.11 0.38,-0.281 0.38,-0.281l-0.904,-0.053l-0.119,0.674Z" style="fill:#eac840;"/><path d="M142.958,57.99c-0.43,-0.599 -1.737,0.137 -1.605,-0.499c0.127,-0.614 -0.6,-0.874 -0.688,-0.782c-0.088,0.092 0.469,0.42 0.162,1.332c-0.186,0.553 0.474,0.865 1.011,0.821c0.851,-0.071 1.488,-0.359 1.12,-0.872Z" style="fill:#eac840;"/><path d="M142.046,54.731c-0.081,0.647 -1.723,0.186 -1.251,0.766c0.456,0.56 -0.093,0.938 -0.227,0.867c-0.133,-0.071 0.217,-0.484 -0.572,-1.294c-0.478,-0.491 -0.022,-0.907 0.512,-0.963c0.846,-0.087 1.608,0.07 1.538,0.624Z" style="fill:#eac840;"/><path d="M143.482,56.252c0.084,0.3 -0.27,0.584 -0.791,0.632c-0.2,0.019 -0.597,-0.206 -0.949,-0.275c-0.56,-0.111 -1.064,-0.026 -1.079,-0.094c-0.015,-0.068 0.513,-0.109 0.986,-0.316c0.294,-0.129 0.539,-0.385 0.738,-0.403c0.52,-0.049 1.011,0.156 1.095,0.456Z" style="fill:#eac840;"/><path d="M143.324,57.713c-0.065,0.045 -0.222,0.112 -0.222,0.112c0,0 0.024,-0.153 -0.474,-0.25c-0.089,-0.018 -0.706,0.039 -0.879,0.01c-0.379,-0.063 -0.011,-0.247 -0.172,-0.506c-0.199,-0.321 -0.479,-0.335 -0.4,-0.387c0.052,-0.034 0.42,0.015 0.818,0.143c0.205,0.066 0.357,0.196 0.555,0.22c0.36,0.043 0.651,-0.119 0.651,-0.119c-0,0 0.273,0.085 0.334,0.345c0.034,0.15 -0.031,0.307 -0.211,0.432Z" style="fill:#eac840;"/><path d="M142.539,54.906c-0.087,-0.031 -0.272,-0.066 -0.272,-0.066c0,-0 0.106,0.141 -0.314,0.324c-0.074,0.032 -0.691,0.091 -0.839,0.15c-0.325,0.129 0.124,0.236 0.112,0.511c-0.014,0.341 -0.272,0.405 -0.169,0.44c0.068,0.023 0.391,-0.09 0.699,-0.284c0.159,-0.1 0.232,-0.251 0.407,-0.309c0.318,-0.107 0.682,-0.006 0.682,-0.006c0,-0 0.214,-0.131 0.129,-0.388c-0.049,-0.149 -0.196,-0.286 -0.435,-0.372Z" style="fill:#eac840;"/><path d="M141.837,59.328c0.197,-0.083 0.357,-0.184 0.466,-0.309c-0,0 -0.446,0.108 -1.054,-0.062c-0.192,-0.054 -0.487,-0.22 -0.487,-0.22l-0.092,0.522l1.167,0.069Z" style="fill:#eac840;"/><path d="M140.244,53.636c0.233,0.043 0.44,0.11 0.611,0.208c-0,0 -0.481,-0.021 -0.966,0.251c-0.153,0.086 -0.342,0.297 -0.342,0.297l-0.372,-0.479l1.069,-0.277Z" style="fill:#eac840;"/><path d="M103.258,61.693c0.081,-0.648 1.723,-0.186 1.251,-0.766c-0.455,-0.56 0.094,-0.938 0.227,-0.867c0.133,0.071 -0.216,0.484 0.573,1.294c0.478,0.491 0.022,0.907 -0.513,0.962c-0.846,0.088 -1.607,-0.07 -1.538,-0.623Z" style="fill:#eac840;"/><path d="M102.346,58.433c0.43,0.6 1.737,-0.136 1.606,0.5c-0.128,0.614 0.6,0.873 0.688,0.781c0.087,-0.091 -0.47,-0.42 -0.163,-1.332c0.186,-0.553 -0.473,-0.865 -1.011,-0.82c-0.851,0.07 -1.488,0.358 -1.12,0.871Z" style="fill:#eac840;"/><path d="M101.813,60.138c0.084,0.3 0.575,0.505 1.095,0.456c0.201,-0.019 0.455,-0.304 0.751,-0.434c0.471,-0.206 0.996,-0.217 0.973,-0.285c-0.022,-0.068 -0.546,-0.01 -1.108,-0.121c-0.349,-0.068 -0.721,-0.267 -0.92,-0.248c-0.521,0.048 -0.875,0.332 -0.791,0.632Z" style="fill:#eac840;"/><path d="M102.76,61.496c0.086,0.031 0.271,0.066 0.271,0.066c0,0 -0.105,-0.141 0.314,-0.324c0.075,-0.032 0.692,-0.091 0.84,-0.15c0.325,-0.129 -0.124,-0.236 -0.113,-0.511c0.014,-0.341 0.273,-0.405 0.169,-0.44c-0.068,-0.023 -0.39,0.09 -0.698,0.284c-0.159,0.1 -0.233,0.251 -0.407,0.309c-0.319,0.107 -0.683,0.006 -0.683,0.006c0,0 -0.213,0.131 -0.129,0.388c0.049,0.149 0.197,0.286 0.436,0.372Z" style="fill:#eac840;"/><path d="M101.975,58.689c0.065,-0.045 0.221,-0.112 0.221,-0.112c0,-0 -0.023,0.153 0.475,0.25c0.088,0.018 0.706,-0.039 0.878,-0.01c0.379,0.063 0.012,0.247 0.172,0.506c0.2,0.321 0.48,0.335 0.401,0.386c-0.052,0.035 -0.42,-0.014 -0.819,-0.143c-0.205,-0.065 -0.357,-0.195 -0.554,-0.219c-0.361,-0.043 -0.651,0.119 -0.651,0.119c-0,-0 -0.274,-0.085 -0.334,-0.345c-0.035,-0.15 0.031,-0.307 0.211,-0.432Z" style="fill:#eac840;"/><path d="M105.052,62.758c-0.233,-0.043 -0.439,-0.109 -0.611,-0.208c0,0 0.482,0.021 0.967,-0.251c0.152,-0.085 0.342,-0.297 0.342,-0.297l0.372,0.479l-1.07,0.277Z" style="fill:#eac840;"/><path d="M103.46,57.067c-0.198,0.083 -0.358,0.183 -0.466,0.308c-0,0 0.445,-0.107 1.054,0.063c0.191,0.053 0.486,0.219 0.486,0.219l0.092,-0.522l-1.166,-0.068Z" style="fill:#eac840;"/><path d="M132.493,47.939c-1.114,-0.085 -0.664,0.936 -1.552,0.553c-0.858,-0.371 -1.61,-0.137 -1.517,-0.047c0.094,0.089 0.865,-0.025 2.08,0.585c0.736,0.369 1.534,0.195 1.736,-0.096c0.32,-0.46 0.206,-0.923 -0.747,-0.995Z" style="fill:#eac840;"/><path d="M127.148,46.765c0.93,0.364 -0.583,0.954 0.523,1.009c1.068,0.052 1.361,0.515 1.187,0.546c-0.173,0.031 -0.617,-0.35 -2.227,-0.36c-0.975,-0.007 -1.372,-0.443 -1.188,-0.738c0.292,-0.467 0.909,-0.769 1.705,-0.457Z" style="fill:#eac840;"/><path d="M130.147,46.808c0.493,0.108 0.741,0.427 0.553,0.711c-0.072,0.11 -0.608,0.196 -0.888,0.337c-0.445,0.225 -0.57,0.519 -0.68,0.493c-0.11,-0.027 0.093,-0.311 0.019,-0.651c-0.046,-0.212 -0.307,-0.462 -0.236,-0.571c0.188,-0.284 0.74,-0.427 1.232,-0.319Z" style="fill:#eac840;"/><path d="M132.259,47.617c0.036,0.055 0.059,0.167 0.059,0.167c-0,0 -0.219,-0.088 -0.614,0.112c-0.07,0.036 -0.294,0.373 -0.423,0.444c-0.285,0.158 -0.377,-0.117 -0.845,-0.166c-0.582,-0.061 -0.743,0.072 -0.781,0.007c-0.025,-0.044 0.233,-0.203 0.624,-0.338c0.202,-0.07 0.472,-0.081 0.606,-0.168c0.246,-0.158 0.148,-0.384 0.148,-0.384c0,-0 0.264,-0.095 0.684,0.005c0.242,0.057 0.445,0.169 0.542,0.321Z" style="fill:#eac840;"/><path d="M127.657,46.607c-0.09,0.027 -0.236,0.102 -0.236,0.102c0,-0 0.265,0.018 0.33,0.319c0.011,0.054 -0.209,0.391 -0.195,0.495c0.031,0.227 0.417,0.056 0.823,0.199c0.505,0.178 0.472,0.339 0.575,0.305c0.069,-0.023 0.06,-0.241 -0.077,-0.492c-0.07,-0.129 -0.259,-0.241 -0.26,-0.358c-0.001,-0.213 0.332,-0.344 0.332,-0.344c0,-0 -0.088,-0.172 -0.517,-0.259c-0.247,-0.049 -0.527,-0.044 -0.775,0.033Z" style="fill:#eac840;"/><path d="M133.938,49.168c-0.026,-0.14 -0.097,-0.27 -0.229,-0.387c-0,-0 -0.062,0.276 -0.621,0.496c-0.176,0.069 -0.573,0.133 -0.573,0.133l0.737,0.307l0.686,-0.549Z" style="fill:#eac840;"/><path d="M124.605,47.119c0.181,-0.095 0.384,-0.165 0.617,-0.202c0,0 -0.272,0.231 -0.107,0.609c0.052,0.119 0.275,0.319 0.275,0.319l-0.904,-0.053l0.119,-0.673Z" style="fill:#eac840;"/><path d="M118.196,69.64c-0.93,-0.364 0.583,-0.955 -0.523,-1.009c-1.068,-0.052 -1.36,-0.515 -1.187,-0.547c0.173,-0.031 0.618,0.35 2.227,0.361c0.976,0.007 1.372,0.443 1.188,0.738c-0.292,0.467 -0.909,0.769 -1.705,0.457Z" style="fill:#eac840;"/><path d="M112.851,68.466c1.115,0.085 0.664,-0.937 1.552,-0.553c0.858,0.371 1.611,0.137 1.517,0.047c-0.094,-0.09 -0.865,0.025 -2.08,-0.585c-0.736,-0.369 -1.534,-0.196 -1.736,0.095c-0.32,0.461 -0.206,0.924 0.747,0.996Z" style="fill:#eac840;"/><path d="M115.142,69.585c0.492,0.108 1.044,-0.035 1.232,-0.319c0.072,-0.11 -0.229,-0.38 -0.276,-0.593c-0.074,-0.338 0.172,-0.606 0.059,-0.629c-0.113,-0.022 -0.289,0.268 -0.735,0.494c-0.278,0.14 -0.761,0.227 -0.833,0.336c-0.188,0.284 0.06,0.603 0.553,0.711Z" style="fill:#eac840;"/><path d="M117.652,69.791c0.089,-0.028 0.236,-0.103 0.236,-0.103c-0,0 -0.266,-0.018 -0.33,-0.319c-0.011,-0.054 0.209,-0.391 0.195,-0.494c-0.031,-0.228 -0.417,-0.057 -0.823,-0.2c-0.505,-0.178 -0.472,-0.339 -0.576,-0.305c-0.068,0.023 -0.059,0.241 0.078,0.492c0.07,0.129 0.259,0.241 0.26,0.358c0.001,0.213 -0.332,0.344 -0.332,0.344c-0,0 0.088,0.172 0.517,0.259c0.247,0.049 0.527,0.044 0.775,-0.032Z" style="fill:#eac840;"/><path d="M113.049,68.78c-0.035,-0.055 -0.058,-0.167 -0.058,-0.167c0,-0 0.219,0.088 0.614,-0.112c0.07,-0.036 0.294,-0.373 0.423,-0.444c0.285,-0.158 0.377,0.117 0.845,0.166c0.582,0.061 0.743,-0.072 0.781,-0.007c0.024,0.044 -0.233,0.203 -0.624,0.338c-0.202,0.07 -0.472,0.081 -0.606,0.168c-0.246,0.158 -0.148,0.384 -0.148,0.384c-0,0 -0.264,0.095 -0.685,-0.005c-0.241,-0.057 -0.444,-0.169 -0.542,-0.321Z" style="fill:#eac840;"/><path d="M120.691,69.276c-0.18,0.095 -0.383,0.165 -0.617,0.201c0,0 0.272,-0.23 0.107,-0.609c-0.052,-0.119 -0.275,-0.319 -0.275,-0.319l0.904,0.053l-0.119,0.674Z" style="fill:#eac840;"/><path d="M111.358,67.226c0.026,0.14 0.097,0.271 0.23,0.387c-0,0 0.061,-0.276 0.621,-0.495c0.175,-0.069 0.573,-0.134 0.573,-0.134l-0.737,-0.307l-0.687,0.549Z" style="fill:#eac840;"/><path d="M140.416,63.881c0.147,-0.643 -1.622,-0.383 -0.957,-0.896c0.642,-0.495 0.236,-0.93 0.081,-0.876c-0.155,0.055 0.042,0.5 -1.013,1.201c-0.64,0.425 -0.339,0.886 0.165,1.002c0.798,0.185 1.599,0.12 1.724,-0.431Z" style="fill:#eac840;"/><path d="M142.449,60.795c-0.63,0.537 -1.653,-0.336 -1.747,0.302c-0.09,0.617 -0.893,0.786 -0.947,0.686c-0.053,-0.101 0.607,-0.357 0.625,-1.286c0.011,-0.564 0.767,-0.792 1.277,-0.686c0.809,0.168 1.332,0.524 0.792,0.984Z" style="fill:#eac840;"/><path d="M142.375,62.527c-0.187,0.284 -0.739,0.427 -1.232,0.319c-0.19,-0.042 -0.339,-0.351 -0.584,-0.513c-0.388,-0.257 -0.898,-0.329 -0.853,-0.392c0.046,-0.064 0.539,0.053 1.128,0.011c0.366,-0.027 0.8,-0.178 0.988,-0.137c0.493,0.109 0.741,0.427 0.553,0.712Z" style="fill:#eac840;"/><path d="M140.973,63.746c-0.095,0.021 -0.289,0.034 -0.289,0.034c0,-0 0.153,-0.126 -0.194,-0.354c-0.062,-0.041 -0.645,-0.17 -0.77,-0.245c-0.273,-0.164 0.204,-0.217 0.289,-0.488c0.106,-0.335 -0.125,-0.428 -0.012,-0.45c0.075,-0.015 0.351,0.134 0.585,0.36c0.121,0.116 0.14,0.272 0.291,0.35c0.275,0.142 0.666,0.085 0.666,0.085c-0,0 0.164,0.153 -0.009,0.395c-0.1,0.14 -0.293,0.257 -0.557,0.313Z" style="fill:#eac840;"/><path d="M142.724,61.089c-0.048,-0.052 -0.178,-0.136 -0.178,-0.136c0,-0 -0.031,0.153 -0.552,0.19c-0.093,0.007 -0.678,-0.121 -0.857,-0.112c-0.393,0.018 -0.097,0.24 -0.345,0.475c-0.308,0.291 -0.587,0.272 -0.528,0.332c0.039,0.039 0.417,0.034 0.852,-0.045c0.224,-0.04 0.418,-0.149 0.619,-0.15c0.369,-0 0.597,0.192 0.597,0.192c-0,0 0.297,-0.051 0.447,-0.299c0.087,-0.142 0.077,-0.304 -0.055,-0.447Z" style="fill:#eac840;"/><path d="M138.287,64.715c0.243,-0.014 0.468,-0.055 0.671,-0.132c-0,-0 -0.479,-0.036 -0.859,-0.359c-0.119,-0.101 -0.231,-0.33 -0.231,-0.33l-0.532,0.425l0.951,0.396Z" style="fill:#eac840;"/><path d="M141.837,59.327c0.164,0.104 0.286,0.221 0.348,0.356c0,0 -0.398,-0.157 -1.054,-0.061c-0.206,0.03 -0.553,0.158 -0.553,0.158l0.092,-0.522l1.167,0.069Z" style="fill:#eac840;"/><path d="M102.829,55.627c0.63,-0.537 1.653,0.336 1.747,-0.302c0.09,-0.617 0.893,-0.786 0.947,-0.686c0.054,0.101 -0.606,0.357 -0.625,1.286c-0.011,0.563 -0.766,0.792 -1.277,0.686c-0.809,-0.168 -1.332,-0.524 -0.792,-0.984Z" style="fill:#eac840;"/><path d="M104.862,52.541c-0.147,0.643 1.622,0.383 0.957,0.896c-0.642,0.495 -0.236,0.93 -0.081,0.875c0.156,-0.054 -0.042,-0.499 1.013,-1.2c0.64,-0.425 0.339,-0.886 -0.165,-1.003c-0.798,-0.184 -1.599,-0.119 -1.724,0.432Z" style="fill:#eac840;"/><path d="M102.924,53.863c-0.187,0.285 0.06,0.603 0.553,0.712c0.19,0.041 0.658,-0.132 1.026,-0.159c0.587,-0.043 1.051,0.099 1.09,0.033c0.039,-0.065 -0.464,-0.166 -0.855,-0.424c-0.243,-0.16 -0.394,-0.44 -0.582,-0.481c-0.493,-0.108 -1.045,0.035 -1.232,0.319Z" style="fill:#eac840;"/><path d="M102.568,55.313c0.048,0.051 0.177,0.136 0.177,0.136c0,-0 0.031,-0.153 0.553,-0.191c0.093,-0.006 0.678,0.121 0.856,0.113c0.394,-0.018 0.098,-0.241 0.346,-0.475c0.308,-0.292 0.587,-0.273 0.528,-0.333c-0.04,-0.039 -0.417,-0.034 -0.852,0.045c-0.224,0.041 -0.418,0.15 -0.62,0.15c-0.368,0.001 -0.596,-0.191 -0.596,-0.191c-0,-0 -0.298,0.051 -0.448,0.298c-0.086,0.143 -0.077,0.304 0.056,0.448Z" style="fill:#eac840;"/><path d="M104.318,52.655c0.096,-0.02 0.29,-0.033 0.29,-0.033c-0,-0 -0.153,0.126 0.194,0.354c0.061,0.04 0.645,0.17 0.769,0.244c0.274,0.165 -0.204,0.218 -0.289,0.488c-0.105,0.336 0.125,0.429 0.012,0.451c-0.075,0.014 -0.351,-0.134 -0.585,-0.36c-0.12,-0.117 -0.14,-0.273 -0.29,-0.35c-0.275,-0.142 -0.666,-0.086 -0.666,-0.086c-0,0 -0.164,-0.152 0.009,-0.395c0.099,-0.139 0.292,-0.256 0.556,-0.313Z" style="fill:#eac840;"/><path d="M103.46,57.067c-0.165,-0.104 -0.286,-0.221 -0.349,-0.356c-0,0 0.399,0.157 1.054,0.062c0.206,-0.03 0.553,-0.159 0.553,-0.159l-0.092,0.522l-1.166,-0.069Z" style="fill:#eac840;"/><path d="M107.01,51.679c-0.243,0.015 -0.469,0.056 -0.671,0.132c-0,0 0.479,0.036 0.858,0.359c0.12,0.101 0.231,0.331 0.231,0.331l0.532,-0.426l-0.95,-0.396Z" style="fill:#eac840;"/><path d="M140.064,52.159c-0.892,-0.395 -1.386,0.62 -1.823,0.031c-0.422,-0.569 -1.276,-0.583 -1.273,-0.478c0.004,0.104 0.77,0.228 1.295,1.107c0.317,0.532 1.159,0.612 1.586,0.418c0.676,-0.307 0.978,-0.74 0.215,-1.078Z" style="fill:#eac840;"/><path d="M136.452,49.6c0.49,0.584 -1.332,0.658 -0.421,1.024c0.88,0.354 0.732,0.84 0.555,0.816c-0.177,-0.023 -0.232,-0.481 -1.617,-0.955c-0.839,-0.287 -0.804,-0.779 -0.39,-0.981c0.657,-0.321 1.453,-0.404 1.873,0.096Z" style="fill:#eac840;"/><path d="M139.012,50.503c0.333,0.235 0.271,0.583 -0.137,0.775c-0.158,0.074 -0.696,-0.006 -1.061,0.036c-0.58,0.066 -0.943,0.285 -1.016,0.23c-0.072,-0.055 0.35,-0.243 0.581,-0.558c0.143,-0.196 0.133,-0.489 0.29,-0.563c0.408,-0.192 1.01,-0.156 1.343,0.08Z" style="fill:#eac840;"/><path d="M140.14,51.813c-0.017,0.058 -0.094,0.162 -0.094,0.162c0,-0 -0.113,-0.14 -0.628,-0.08c-0.092,0.01 -0.578,0.237 -0.752,0.262c-0.383,0.055 -0.224,-0.21 -0.587,-0.388c-0.451,-0.221 -0.706,-0.152 -0.682,-0.219c0.016,-0.045 0.377,-0.109 0.833,-0.113c0.234,-0.002 0.478,0.066 0.67,0.03c0.35,-0.067 0.461,-0.29 0.461,-0.29c0,-0 0.311,-0.006 0.588,0.202c0.159,0.119 0.239,0.274 0.191,0.434Z" style="fill:#eac840;"/><path d="M137.03,49.609c-0.102,-0.001 -0.293,0.021 -0.293,0.021c-0,0 0.214,0.092 0.009,0.372c-0.037,0.049 -0.52,0.278 -0.597,0.372c-0.17,0.205 0.312,0.169 0.54,0.41c0.283,0.299 0.115,0.43 0.234,0.43c0.079,-0 0.26,-0.191 0.359,-0.448c0.051,-0.133 -0.015,-0.284 0.085,-0.385c0.183,-0.185 0.586,-0.202 0.586,-0.202c-0,-0 0.072,-0.175 -0.225,-0.374c-0.17,-0.114 -0.417,-0.19 -0.698,-0.196Z" style="fill:#eac840;"/><path d="M140.251,53.641c0.099,-0.129 0.15,-0.262 0.136,-0.401c0,-0 -0.292,0.221 -0.967,0.25c-0.212,0.009 -0.611,-0.05 -0.611,-0.05l0.372,0.478l1.07,-0.277Z" style="fill:#eac840;"/><path d="M133.943,49.172c0.239,-0.03 0.475,-0.032 0.709,0.004c-0,-0 -0.435,0.121 -0.62,0.496c-0.058,0.118 -0.038,0.356 -0.038,0.356l-0.737,-0.307l0.686,-0.549Z" style="fill:#eac840;"/><path d="M108.889,66.826c-0.49,-0.584 1.331,-0.659 0.42,-1.025c-0.879,-0.353 -0.731,-0.839 -0.554,-0.816c0.177,0.023 0.232,0.482 1.616,0.955c0.839,0.288 0.805,0.78 0.39,0.982c-0.657,0.32 -1.452,0.404 -1.872,-0.096Z" style="fill:#eac840;"/><path d="M105.277,64.266c0.891,0.396 1.385,-0.619 1.822,-0.03c0.422,0.568 1.277,0.583 1.273,0.478c-0.003,-0.105 -0.77,-0.228 -1.294,-1.107c-0.318,-0.532 -1.16,-0.612 -1.586,-0.419c-0.676,0.307 -0.978,0.74 -0.215,1.078Z" style="fill:#eac840;"/><path d="M106.291,65.897c0.333,0.235 0.935,0.271 1.344,0.079c0.157,-0.075 0.13,-0.395 0.274,-0.593c0.229,-0.315 0.674,-0.476 0.596,-0.528c-0.078,-0.052 -0.482,0.149 -1.065,0.216c-0.361,0.041 -0.855,-0.024 -1.012,0.05c-0.408,0.192 -0.47,0.54 -0.137,0.776Z" style="fill:#eac840;"/><path d="M108.287,66.799c0.102,0.002 0.293,-0.02 0.293,-0.02c-0,-0 -0.214,-0.092 -0.009,-0.372c0.036,-0.05 0.52,-0.278 0.597,-0.372c0.17,-0.206 -0.312,-0.169 -0.54,-0.41c-0.284,-0.3 -0.115,-0.43 -0.235,-0.43c-0.079,-0 -0.26,0.191 -0.359,0.448c-0.05,0.132 0.016,0.284 -0.084,0.385c-0.184,0.184 -0.586,0.202 -0.586,0.202c-0,0 -0.072,0.175 0.224,0.373c0.171,0.115 0.418,0.191 0.699,0.196Z" style="fill:#eac840;"/><path d="M105.176,64.595c0.018,-0.058 0.095,-0.161 0.095,-0.161c-0,-0 0.112,0.14 0.628,0.08c0.092,-0.011 0.577,-0.238 0.752,-0.262c0.383,-0.055 0.223,0.21 0.587,0.388c0.45,0.22 0.705,0.152 0.682,0.219c-0.016,0.045 -0.377,0.109 -0.833,0.113c-0.235,0.002 -0.478,-0.067 -0.67,-0.03c-0.35,0.066 -0.462,0.29 -0.462,0.29c0,0 -0.31,0.006 -0.587,-0.202c-0.16,-0.119 -0.239,-0.275 -0.192,-0.435Z" style="fill:#eac840;"/><path d="M111.365,67.231c-0.238,0.03 -0.475,0.032 -0.709,-0.004c0,-0 0.435,-0.121 0.62,-0.496c0.058,-0.118 0.039,-0.356 0.039,-0.356l0.737,0.307l-0.687,0.549Z" style="fill:#eac840;"/><path d="M105.057,62.762c-0.099,0.128 -0.15,0.262 -0.136,0.401c-0,0 0.293,-0.221 0.967,-0.25c0.212,-0.009 0.611,0.05 0.611,0.05l-0.372,-0.479l-1.07,0.278Z" style="fill:#eac840;"/><path d="M133.12,68.253c0.684,-0.515 -1.074,-0.8 -0.054,-1.052c0.985,-0.244 1.01,-0.737 0.829,-0.735c-0.182,0.002 -0.396,0.444 -1.918,0.747c-0.922,0.183 -1.06,0.669 -0.725,0.916c0.532,0.39 1.282,0.564 1.868,0.124Z" style="fill:#eac840;"/><path d="M137.553,66.167c-1.012,0.283 -1.141,-0.768 -1.775,-0.242c-0.612,0.507 -1.454,0.422 -1.414,0.32c0.04,-0.102 0.834,-0.134 1.655,-0.933c0.497,-0.485 1.35,-0.465 1.7,-0.226c0.555,0.38 0.699,0.839 -0.166,1.081Z" style="fill:#eac840;"/><path d="M135.989,67.646c-0.409,0.192 -1.011,0.156 -1.344,-0.08c-0.128,-0.091 0.01,-0.401 -0.061,-0.612c-0.114,-0.335 -0.494,-0.545 -0.399,-0.586c0.095,-0.042 0.42,0.201 0.967,0.335c0.34,0.082 0.846,0.077 0.974,0.167c0.333,0.236 0.271,0.583 -0.137,0.776Z" style="fill:#eac840;"/><path d="M133.718,68.297c-0.1,-0.01 -0.279,-0.054 -0.279,-0.054c-0,-0 0.242,-0.066 0.139,-0.363c-0.019,-0.053 -0.412,-0.333 -0.455,-0.434c-0.094,-0.221 0.365,-0.129 0.673,-0.339c0.382,-0.26 0.262,-0.408 0.379,-0.394c0.078,0.009 0.188,0.218 0.195,0.481c0.004,0.135 -0.114,0.276 -0.051,0.387c0.115,0.202 0.502,0.266 0.502,0.266c0,0 0.01,0.179 -0.35,0.34c-0.207,0.092 -0.475,0.138 -0.753,0.11Z" style="fill:#eac840;"/><path d="M137.536,66.501c0.003,-0.059 -0.036,-0.169 -0.036,-0.169c-0,0 -0.159,0.124 -0.644,0.005c-0.086,-0.021 -0.482,-0.3 -0.644,-0.344c-0.356,-0.099 -0.293,0.18 -0.711,0.311c-0.518,0.164 -0.744,0.067 -0.744,0.136c-0,0.045 0.331,0.15 0.776,0.207c0.229,0.029 0.492,-0.009 0.667,0.049c0.319,0.106 0.35,0.338 0.35,0.338c0,-0 0.302,0.042 0.646,-0.129c0.198,-0.099 0.33,-0.241 0.34,-0.404Z" style="fill:#eac840;"/><path d="M130.553,68.361c0.223,0.057 0.454,0.087 0.695,0.079c0,-0 -0.383,-0.169 -0.433,-0.559c-0.015,-0.122 0.087,-0.353 0.087,-0.353l-0.83,0.215l0.481,0.618Z" style="fill:#eac840;"/><path d="M138.294,64.719c0.052,0.138 0.055,0.274 -0.007,0.409c-0,0 -0.209,-0.251 -0.86,-0.357c-0.204,-0.034 -0.616,-0.023 -0.616,-0.023l0.532,-0.425l0.951,0.396Z" style="fill:#eac840;"/><path d="M107.716,50.254c1.011,-0.283 1.141,0.769 1.774,0.243c0.613,-0.508 1.454,-0.423 1.414,-0.32c-0.04,0.102 -0.834,0.133 -1.654,0.933c-0.498,0.484 -1.35,0.464 -1.7,0.225c-0.555,-0.379 -0.7,-0.839 0.166,-1.081Z" style="fill:#eac840;"/><path d="M112.149,48.168c-0.684,0.515 1.073,0.801 0.053,1.053c-0.984,0.243 -1.01,0.737 -0.828,0.735c0.181,-0.002 0.395,-0.445 1.917,-0.748c0.922,-0.183 1.061,-0.669 0.725,-0.915c-0.531,-0.391 -1.281,-0.565 -1.867,-0.125Z" style="fill:#eac840;"/><path d="M109.326,48.754c-0.409,0.192 -0.47,0.54 -0.137,0.776c0.128,0.091 0.683,0.075 1.026,0.158c0.545,0.133 0.824,0.389 0.914,0.344c0.091,-0.045 -0.257,-0.278 -0.373,-0.614c-0.071,-0.209 0.04,-0.494 -0.087,-0.585c-0.333,-0.235 -0.935,-0.271 -1.343,-0.079Z" style="fill:#eac840;"/><path d="M107.762,49.907c-0.003,0.058 0.036,0.169 0.036,0.169c-0,-0 0.159,-0.124 0.643,-0.006c0.086,0.021 0.483,0.3 0.645,0.345c0.356,0.098 0.293,-0.18 0.711,-0.312c0.518,-0.163 0.744,-0.066 0.744,-0.135c0,-0.046 -0.331,-0.15 -0.776,-0.207c-0.229,-0.03 -0.492,0.009 -0.667,-0.049c-0.319,-0.106 -0.35,-0.338 -0.35,-0.338c-0,-0 -0.302,-0.042 -0.647,0.129c-0.197,0.098 -0.33,0.241 -0.339,0.404Z" style="fill:#eac840;"/><path d="M111.579,48.111c0.101,0.01 0.28,0.054 0.28,0.054c-0,-0 -0.242,0.065 -0.139,0.363c0.019,0.053 0.412,0.333 0.455,0.434c0.094,0.221 -0.365,0.129 -0.673,0.339c-0.382,0.26 -0.263,0.407 -0.38,0.393c-0.077,-0.009 -0.187,-0.217 -0.194,-0.48c-0.004,-0.136 0.114,-0.277 0.051,-0.387c-0.115,-0.202 -0.503,-0.267 -0.503,-0.267c0,0 -0.009,-0.179 0.351,-0.339c0.206,-0.092 0.475,-0.138 0.752,-0.11Z" style="fill:#eac840;"/><path d="M107.015,51.684c-0.052,-0.138 -0.056,-0.275 0.006,-0.41c0,0 0.21,0.252 0.86,0.358c0.204,0.034 0.616,0.022 0.616,0.022l-0.532,0.426l-0.95,-0.396Z" style="fill:#eac840;"/><path d="M114.756,48.042c-0.224,-0.057 -0.455,-0.087 -0.696,-0.079c-0,0 0.384,0.169 0.433,0.558c0.016,0.123 -0.086,0.353 -0.086,0.353l0.829,-0.214l-0.48,-0.618Z" style="fill:#eac840;"/></svg>
