<?xml version="1.0" encoding="UTF-8" standalone="no"?><!DOCTYPE svg PUBLIC "-//W3C//DTD SVG 1.1//EN" "http://www.w3.org/Graphics/SVG/1.1/DTD/svg11.dtd"><svg width="100%" height="100%" viewBox="0 0 200 200" version="1.1" xmlns="http://www.w3.org/2000/svg" xmlns:xlink="http://www.w3.org/1999/xlink" xml:space="preserve" xmlns:serif="http://www.serif.com/" style="fill-rule:evenodd;clip-rule:evenodd;stroke-linejoin:round;stroke-miterlimit:2;"><path d="M84.474,91.839l0.06,-46.29c-2.519,-1.949 -3.789,-4.268 -3.811,-6.59c-0.01,-0.954 -0.143,-5.537 0.125,-6.888c0.477,-2.413 2.317,-4.753 5.52,-6.603c7.528,-4.346 19.752,-4.346 27.28,0c3.565,2.059 5.442,4.725 5.63,7.424c0.075,1.084 0.026,5.881 0.01,6.271c-0.093,2.258 -1.367,4.503 -3.822,6.398l-0.06,46.243c19.766,5.776 34.057,22.363 34.057,41.902c0,24.331 -22.163,44.086 -49.463,44.086c-27.3,-0 -49.463,-19.755 -49.463,-44.086c-0,-19.5 14.234,-36.06 33.937,-41.867Z" style="fill:#e4e4e4;fill-opacity:0.35;"/><path d="M87.694,94.485l-0,-47.015c7.114,3.413 17.493,3.416 24.612,0.008l0,47.007c19.245,4.795 33.378,20.548 33.378,39.221c-0,22.472 -20.47,40.717 -45.684,40.717c-25.214,-0 -45.684,-18.245 -45.684,-40.717c0,-18.673 14.133,-34.426 33.378,-39.221Z" style="fill:#fff;fill-opacity:0.35;"/><path d="M86.36,25.468c7.528,-4.346 19.752,-4.346 27.28,0c7.528,4.346 7.528,11.404 -0,15.75c-7.528,4.346 -19.752,4.346 -27.28,-0c-7.528,-4.346 -7.528,-11.404 0,-15.75Z" style="fill:#fff;fill-opacity:0.35;"/><path d="M91.065,28.208c4.931,-2.848 12.939,-2.848 17.87,-0c4.932,2.847 4.932,7.47 0,10.317c-4.931,2.848 -12.939,2.848 -17.87,0c-4.932,-2.847 -4.932,-7.47 -0,-10.317Z" style="fill:#e4e4e4;fill-opacity:0.35;"/><path d="M56.11,144.706c-2.418,-7.981 1.707,-16.496 12.375,-22.655c17.394,-10.043 45.636,-10.043 63.03,-0c10.944,6.318 15.002,15.117 12.175,23.273l0.103,0.001c0,-0 -1.029,2.798 -1.664,4.144c-6.918,14.654 -23.185,24.954 -42.129,24.954c-18.997,-0 -35.301,-10.357 -42.186,-25.076c-0.704,-1.504 -1.808,-4.642 -1.808,-4.642l0.104,0.001Z" style="fill:#91d8d0;fill-opacity:0.86;"/><path d="M68.485,122.051c17.394,-10.043 45.636,-10.043 63.03,-0c17.394,10.042 17.394,26.348 0,36.39c-17.394,10.043 -45.636,10.043 -63.03,0c-17.394,-10.042 -17.394,-26.348 -0,-36.39Z" style="fill:#fff;fill-opacity:0.26;"/><path d="M88.093,157.222c6.572,-3.794 17.242,-3.794 23.814,0c6.572,3.794 6.572,9.955 -0,13.749c-6.572,3.794 -17.242,3.794 -23.814,0c-6.572,-3.794 -6.572,-9.955 0,-13.749Z" style="fill:#fff;fill-opacity:0.16;"/></svg>