<?xml version="1.0" encoding="UTF-8" standalone="no"?><!DOCTYPE svg PUBLIC "-//W3C//DTD SVG 1.1//EN" "http://www.w3.org/Graphics/SVG/1.1/DTD/svg11.dtd"><svg width="100%" height="100%" viewBox="0 0 200 200" version="1.1" xmlns="http://www.w3.org/2000/svg" xmlns:xlink="http://www.w3.org/1999/xlink" xml:space="preserve" xmlns:serif="http://www.serif.com/" style="fill-rule:evenodd;clip-rule:evenodd;stroke-linejoin:round;stroke-miterlimit:2;"><path d="M82.448,93.351l0.067,-52.332c-2.847,-2.203 -4.284,-4.824 -4.309,-7.449c-0.01,-1.079 -0.16,-6.26 0.142,-7.787c0.539,-2.729 2.619,-5.375 6.241,-7.466c8.51,-4.913 22.329,-4.913 30.84,0c4.031,2.328 6.153,5.342 6.365,8.394c0.085,1.224 0.03,6.648 0.012,7.089c-0.105,2.553 -1.545,5.091 -4.321,7.233l-0.068,52.279c22.346,6.531 38.503,25.283 38.503,47.371c-0,27.508 -25.057,49.841 -55.92,49.841c-30.863,0 -55.92,-22.333 -55.92,-49.841c0,-22.044 16.093,-40.766 38.368,-47.332Z" style="fill:#d9d9d9;fill-opacity:0.43;"/><path d="M86.087,96.344l0,-53.152c8.043,3.858 19.777,3.861 27.826,0.008l-0,53.144c21.757,5.42 37.734,23.23 37.734,44.339c-0,25.406 -23.142,46.032 -51.647,46.032c-28.505,0 -51.647,-20.626 -51.647,-46.032c0,-21.109 15.977,-38.919 37.734,-44.339Z" style="fill:#fff;fill-opacity:0.43;"/><path d="M86.087,96.344l0,-25.784c8.043,3.859 19.777,3.861 27.826,0.009l-0,25.775c21.757,5.42 37.734,23.23 37.734,44.339c-0,25.406 -23.142,46.032 -51.647,46.032c-28.505,0 -51.647,-20.626 -51.647,-46.032c0,-21.109 15.977,-38.919 37.734,-44.339Z" style="fill:#d9d9d9;fill-opacity:0.43;"/><path d="M84.58,18.317c8.51,-4.913 22.33,-4.913 30.84,0c8.511,4.914 8.511,12.893 0,17.806c-8.51,4.914 -22.33,4.914 -30.84,0c-8.511,-4.913 -8.511,-12.892 -0,-17.806Z" style="fill:#fff;fill-opacity:0.43;"/><path d="M89.898,21.415c5.576,-3.219 14.628,-3.219 20.204,-0c5.575,3.219 5.575,8.445 -0,11.664c-5.576,3.219 -14.628,3.219 -20.204,0c-5.575,-3.219 -5.575,-8.445 0,-11.664Z" style="fill:#d9d9d9;fill-opacity:0.43;"/><path d="M86.106,70.569c0.009,-2.047 1.365,-4.093 4.068,-5.653c5.423,-3.131 14.229,-3.131 19.652,-0c2.707,1.563 4.063,3.612 4.068,5.662l0.019,-0.009l-0,25.775c21.757,5.42 37.734,23.23 37.734,44.339c-0,25.406 -23.142,46.032 -51.647,46.032c-28.505,0 -51.647,-20.626 -51.647,-46.032c0,-21.109 15.977,-38.919 37.734,-44.339l0,-25.784l0.019,0.009Z" style="fill:#91d8d0;fill-opacity:0.85;"/><path d="M90.174,64.916c5.423,-3.131 14.229,-3.131 19.652,-0c5.424,3.131 5.424,8.215 0,11.346c-5.423,3.132 -14.229,3.132 -19.652,0c-5.424,-3.131 -5.424,-8.215 -0,-11.346Z" style="fill:#fff;fill-opacity:0.31;"/><path d="M86.539,167.27c7.429,-4.29 19.493,-4.29 26.922,-0c7.43,4.289 7.43,11.254 0,15.544c-7.429,4.289 -19.493,4.289 -26.922,-0c-7.43,-4.29 -7.43,-11.255 -0,-15.544Z" style="fill:#fff;fill-opacity:0.21;"/></svg>