<?xml version="1.0" encoding="UTF-8" standalone="no"?><!DOCTYPE svg PUBLIC "-//W3C//DTD SVG 1.1//EN" "http://www.w3.org/Graphics/SVG/1.1/DTD/svg11.dtd"><svg width="100%" height="100%" viewBox="0 0 200 200" version="1.1" xmlns="http://www.w3.org/2000/svg" xmlns:xlink="http://www.w3.org/1999/xlink" xml:space="preserve" xmlns:serif="http://www.serif.com/" style="fill-rule:evenodd;clip-rule:evenodd;stroke-linejoin:round;stroke-miterlimit:2;"><path d="M83.488,93.746l0.064,-49.231c-2.679,-2.073 -4.03,-4.539 -4.054,-7.008c-0.01,-1.015 -0.151,-5.889 0.133,-7.326c0.507,-2.567 2.464,-5.055 5.871,-7.022c8.006,-4.623 21.006,-4.623 29.013,-0c3.792,2.189 5.788,5.025 5.987,7.896c0.081,1.152 0.028,6.254 0.011,6.668c-0.098,2.402 -1.453,4.79 -4.065,6.805l-0.063,49.18c21.021,6.144 36.221,23.784 36.221,44.564c-0,25.878 -23.572,46.887 -52.606,46.887c-29.034,-0 -52.606,-21.009 -52.606,-46.887c0,-20.738 15.139,-38.35 36.094,-44.526Z" style="fill:#d9d9d9;fill-opacity:0.43;"/><path d="M86.912,96.56l-0,-50.001c7.566,3.629 18.605,3.632 26.176,0.008l0,49.993c20.468,5.099 35.498,21.853 35.498,41.712c-0,23.9 -21.771,43.304 -48.586,43.304c-26.815,-0 -48.586,-19.404 -48.586,-43.304c0,-19.859 15.03,-36.613 35.498,-41.712Z" style="fill:#fff;fill-opacity:0.43;"/><path d="M58.221,116.88c2.13,-3.493 5.613,-6.771 10.448,-9.562c17.292,-9.984 45.37,-9.984 62.662,-0c4.835,2.791 8.318,6.069 10.448,9.562l0.581,0.981c4.035,6.311 6.226,12.632 6.226,20.411c-0,23.9 -21.771,43.304 -48.586,43.304c-26.815,-0 -48.586,-19.404 -48.586,-43.304c0,-7.779 2.522,-14.607 6.557,-20.918l0.25,-0.474Z" style="fill:#8ad5cc;fill-opacity:0.93;"/><path d="M68.669,107.318c17.292,-9.984 45.37,-9.984 62.662,-0c17.292,9.983 17.292,26.194 -0,36.178c-17.292,9.983 -45.37,9.983 -62.662,-0c-17.292,-9.984 -17.292,-26.195 0,-36.178Z" style="fill:#fff;fill-opacity:0.25;"/><path d="M85.494,23.159c8.006,-4.623 21.006,-4.623 29.012,-0c8.006,4.622 8.006,12.128 0,16.75c-8.006,4.622 -21.006,4.622 -29.012,0c-8.006,-4.622 -8.006,-12.128 -0,-16.75Z" style="fill:#fff;fill-opacity:0.43;"/><path d="M90.497,26.072c5.245,-3.028 13.761,-3.028 19.006,0c5.245,3.028 5.245,7.945 0,10.973c-5.245,3.029 -13.761,3.029 -19.006,0c-5.245,-3.028 -5.245,-7.945 -0,-10.973Z" style="fill:#d9d9d9;fill-opacity:0.43;"/><path d="M87.337,163.283c6.989,-4.035 18.337,-4.035 25.326,-0c6.989,4.035 6.989,10.587 0,14.622c-6.989,4.035 -18.337,4.035 -25.326,0c-6.989,-4.035 -6.989,-10.587 -0,-14.622Z" style="fill:#fff;fill-opacity:0.18;"/></svg>