<?xml version="1.0" encoding="UTF-8" standalone="no"?><!DOCTYPE svg PUBLIC "-//W3C//DTD SVG 1.1//EN" "http://www.w3.org/Graphics/SVG/1.1/DTD/svg11.dtd"><svg width="100%" height="100%" viewBox="0 0 200 200" version="1.1" xmlns="http://www.w3.org/2000/svg" xmlns:xlink="http://www.w3.org/1999/xlink" xml:space="preserve" xmlns:serif="http://www.serif.com/" style="fill-rule:evenodd;clip-rule:evenodd;stroke-linejoin:round;stroke-miterlimit:2;"><path d="M84.047,91.614l0.061,-47.565c-2.588,-2.003 -3.894,-4.385 -3.916,-6.771c-0.01,-0.98 -0.146,-5.689 0.128,-7.078c0.49,-2.48 2.381,-4.884 5.673,-6.785c7.735,-4.466 20.295,-4.466 28.03,0c3.664,2.116 5.593,4.856 5.786,7.629c0.077,1.113 0.027,6.043 0.01,6.443c-0.095,2.321 -1.404,4.628 -3.927,6.574l-0.061,47.517c20.31,5.936 34.995,22.979 34.995,43.056c-0,25.002 -22.774,45.3 -50.826,45.3c-28.052,0 -50.826,-20.298 -50.826,-45.3c0,-20.037 14.627,-37.052 34.873,-43.02Z" style="fill:#dedede;fill-opacity:0.35;"/><path d="M87.355,94.333l-0,-48.31c7.31,3.507 17.975,3.51 25.29,0.008l0,48.302c19.775,4.927 34.297,21.114 34.297,40.301c-0,23.091 -21.034,41.839 -46.942,41.839c-25.908,-0 -46.942,-18.748 -46.942,-41.839c0,-19.187 14.522,-35.374 34.297,-40.301Z" style="fill:#fff;fill-opacity:0.35;"/><path d="M85.985,23.415c7.735,-4.466 20.295,-4.466 28.03,0c7.736,4.466 7.736,11.718 0,16.184c-7.735,4.466 -20.295,4.466 -28.03,-0c-7.736,-4.466 -7.736,-11.718 -0,-16.184Z" style="fill:#fff;fill-opacity:0.35;"/><path d="M90.819,26.23c5.067,-2.925 13.295,-2.925 18.362,0c5.068,2.926 5.068,7.677 0,10.602c-5.067,2.926 -13.295,2.926 -18.362,0c-5.068,-2.925 -5.068,-7.676 -0,-10.602Z" style="fill:#dedede;fill-opacity:0.35;"/><path d="M87.765,158.798c6.753,-3.898 17.717,-3.898 24.47,0c6.753,3.899 6.753,10.229 -0,14.128c-6.753,3.899 -17.717,3.899 -24.47,0c-6.753,-3.899 -6.753,-10.229 0,-14.128Z" style="fill:#fff;fill-opacity:0.35;"/></svg>