<?xml version="1.0" encoding="UTF-8" standalone="no"?><!DOCTYPE svg PUBLIC "-//W3C//DTD SVG 1.1//EN" "http://www.w3.org/Graphics/SVG/1.1/DTD/svg11.dtd"><svg width="100%" height="100%" viewBox="0 0 200 200" version="1.1" xmlns="http://www.w3.org/2000/svg" xmlns:xlink="http://www.w3.org/1999/xlink" xml:space="preserve" xmlns:serif="http://www.serif.com/" style="fill-rule:evenodd;clip-rule:evenodd;stroke-linejoin:round;stroke-miterlimit:2;"><path d="M26.86,143.925c-0,0 27.885,17.385 57.915,33.438l107.092,-61.83c-4.036,-12.274 -11.116,-21.761 -19.93,-27.943c-10.851,-7.609 -43.638,-24.527 -54.45,-29.972c-10.338,-5.207 -22.39,-6.58 -36.555,1.598l-1.052,0.607c-29.262,16.895 -53.02,45.085 -53.02,84.102Z" style="fill:#25bcb2;"/><path d="M26.86,143.925c-0,0 27.885,17.385 57.915,33.438l107.092,-61.83c-4.036,-12.274 -11.116,-21.761 -19.93,-27.943c-10.851,-7.609 -43.638,-24.527 -54.45,-29.972c-10.338,-5.207 -22.39,-6.58 -36.555,1.598l-1.052,0.607c-29.262,16.895 -53.02,45.085 -53.02,84.102Z" style="fill:#fff;fill-opacity:0.22;"/><path d="M23.007,73.791c-0.004,0.932 -0.005,4.607 -0,5.536c0.016,3.068 2.265,6.3 6.636,8.824l29.068,16.783c8.022,4.631 20.174,5.135 27.121,1.124l72.185,-41.676c3.135,-1.81 4.677,-4.232 4.689,-6.771c0.004,-0.931 0.005,-4.606 -0,-5.535c-0.017,-3.068 -2.265,-6.301 -6.637,-8.825l-29.068,-16.782c-8.021,-4.631 -20.173,-5.135 -27.12,-1.124l-72.185,41.676c-3.135,1.81 -4.677,4.232 -4.689,6.77Z" style="fill:#d1d1d1;"/><path d="M127.001,26.469c-8.021,-4.631 -20.173,-5.135 -27.12,-1.124l-72.185,41.676c-6.947,4.01 -6.074,11.027 1.947,15.658l29.068,16.782c8.022,4.631 20.174,5.135 27.121,1.124l72.185,-41.676c6.946,-4.01 6.074,-11.026 -1.948,-15.658l-29.068,-16.782Z" style="fill:#fff;fill-opacity:0.27;"/><path d="M191.867,115.533c-10.783,-32.792 -43.296,-45.698 -72.559,-28.803l-1.051,0.607c-29.263,16.895 -44.266,57.234 -33.482,90.026l107.092,-61.83Z" style="fill:#25bcb2;"/><path d="M181.036,119.437c-8.858,-26.939 -35.569,-37.542 -59.609,-23.662l-0.864,0.499c-24.04,13.88 -36.366,47.02 -27.507,73.959l87.98,-50.796Z" style="fill:#f5f5f5;"/><path d="M97.421,160.291l0.236,0.716l3.688,-2.129c-0.082,-0.248 -0.161,-0.49 -0.236,-0.716l-3.688,2.129Zm71.9,-39.876l0.236,0.716l3.699,-2.136l-0.235,-0.716l-3.7,2.136Zm2.457,-5.886c0.084,0.234 0.165,0.472 0.243,0.711l-3.688,2.129c-0.071,-0.216 -0.144,-0.43 -0.219,-0.643l3.664,-2.197Zm-75.651,41.403c0.059,0.248 0.121,0.496 0.185,0.743l3.75,-1.914c-0.058,-0.223 -0.113,-0.447 -0.167,-0.671l-3.768,1.842Zm74.153,-44.895l-0.165,-0.325l-3.493,2.596c0.1,0.195 0.198,0.392 0.294,0.591l3.525,-2.531l-0.161,-0.331Zm-74.945,40.293c0.028,0.261 0.059,0.522 0.093,0.783l3.838,-1.467c-0.031,-0.235 -0.059,-0.47 -0.085,-0.705l-3.846,1.389Zm72.536,-44.332l-3.272,2.962c0.124,0.176 0.247,0.353 0.367,0.533l3.312,-2.904c-0.134,-0.2 -0.269,-0.396 -0.407,-0.591Zm-72.784,39.534c-0.001,0.27 0,0.54 0.004,0.811l3.87,-0.996c-0.004,-0.243 -0.004,-0.486 -0.003,-0.73l-3.871,0.915Zm70.321,-42.567l-0.246,-0.26l-3.004,3.288c0.146,0.153 0.291,0.309 0.435,0.466l3.051,-3.237l-0.236,-0.257Zm-70.017,37.638l-0.042,0.37l-0.047,0.458l3.85,-0.51c0.024,-0.249 0.051,-0.497 0.08,-0.746l-3.841,0.428Zm67.147,-40.318l-0.514,-0.404l-2.693,3.565c0.167,0.129 0.332,0.26 0.496,0.394l2.749,-3.524l-0.038,-0.031Zm-66.297,35.329l-0.053,0.233l-0.124,0.6l3.772,-0.02c0.052,-0.25 0.105,-0.501 0.161,-0.751l-3.756,-0.062Zm62.744,-37.784l-0.479,-0.269l-2.348,3.792c0.185,0.103 0.369,0.208 0.551,0.316l2.409,-3.759l-0.133,-0.08Zm-61.366,32.803l-0.041,0.122l-0.223,0.705l3.646,0.468c0.078,-0.249 0.158,-0.497 0.24,-0.746l-3.622,-0.549Zm57.477,-34.693l-0.438,-0.166l-1.973,3.966c0.201,0.076 0.4,0.154 0.598,0.235l2.038,-3.942l-0.225,-0.093Zm-55.59,29.789l-0.012,0.027l-0.336,0.783l3.472,0.948c0.103,-0.244 0.207,-0.487 0.314,-0.73l-3.438,-1.028Zm51.412,-31.1l-0.385,-0.086l-1.571,4.087c0.213,0.047 0.425,0.097 0.636,0.149l1.64,-4.07l-0.32,-0.08Zm-49.042,26.341l-0.427,0.78l3.248,1.415c0.127,-0.235 0.256,-0.47 0.386,-0.704l-3.207,-1.491Zm44.626,-27.059l-0.314,-0.025l-1.147,4.151c0.222,0.018 0.444,0.039 0.665,0.062l1.219,-4.143l-0.423,-0.045Zm-41.806,22.509l-0.501,0.74l2.981,1.864c0.149,-0.223 0.299,-0.446 0.451,-0.668l-2.931,-1.936Zm37.199,-22.619l-0.214,0.012l-0.705,4.158c0.229,-0.011 0.457,-0.02 0.685,-0.026l0.78,-4.16l-0.546,0.016Zm-33.966,18.342c-0.191,0.229 -0.38,0.459 -0.566,0.691l2.669,2.289c0.169,-0.209 0.339,-0.417 0.51,-0.623l-2.613,-2.357Zm29.146,-17.816l-0.252,4.109c0.232,-0.04 0.464,-0.079 0.696,-0.114l0.328,-4.121c-0.257,0.039 -0.514,0.081 -0.772,0.126Zm-25.543,13.873c-0.209,0.209 -0.417,0.419 -0.624,0.632l2.32,2.684c0.186,-0.191 0.373,-0.381 0.562,-0.569l-2.258,-2.747Zm21.262,-12.88l-0.362,0.107l0.208,4c0.232,-0.069 0.465,-0.137 0.697,-0.201l-0.131,-4.022l-0.412,0.116Zm-17.336,9.329c-0.227,0.185 -0.451,0.372 -0.675,0.562l1.937,3.042c0.201,-0.17 0.403,-0.339 0.607,-0.506l-1.869,-3.098Zm12.361,-7.553l0.663,3.835c0.23,-0.097 0.459,-0.192 0.689,-0.285l-0.588,-3.867c-0.256,0.104 -0.51,0.209 -0.764,0.317Zm-8.171,4.44l-0.422,0.286l-0.292,0.201l1.527,3.356c0.214,-0.148 0.429,-0.294 0.645,-0.439l-1.458,-3.404Zm3.652,-2.229l1.104,3.62c0.223,-0.125 0.448,-0.246 0.672,-0.366l-1.032,-3.659c-0.248,0.132 -0.496,0.267 -0.744,0.405Z" style="fill:#001b35;"/><path d="M153.545,100.287l0.703,0.094l-13.158,41.335l-4.1,-0.582l16.555,-40.847Z" style="fill:#001b35;"/><path d="M134.087,146.539c-0.532,-1.899 0.557,-4.291 2.486,-5.405c1.93,-1.114 3.993,-0.542 4.681,1.267l-7.167,4.138Z" style="fill:#001b35;"/></svg>