<?xml version="1.0" encoding="UTF-8" standalone="no"?><!DOCTYPE svg PUBLIC "-//W3C//DTD SVG 1.1//EN" "http://www.w3.org/Graphics/SVG/1.1/DTD/svg11.dtd"><svg width="100%" height="100%" viewBox="0 0 200 200" version="1.1" xmlns="http://www.w3.org/2000/svg" xmlns:xlink="http://www.w3.org/1999/xlink" xml:space="preserve" xmlns:serif="http://www.serif.com/" style="fill-rule:evenodd;clip-rule:evenodd;stroke-linejoin:round;stroke-miterlimit:2;"><g><path d="M61.509,122.981c0.05,-3.048 2.201,-5.981 6.224,-8.304l28.006,-16.169c3.747,2.161 9.79,2.234 13.919,0.414c0.376,-0.166 1.077,-0.544 1.077,-0.544c0.982,0.62 2.282,1.251 2.628,2.485c1.365,4.863 0.682,10.796 -0.473,10.38c1.379,1.716 1.772,3.984 1.678,5.839c0.299,2.457 0.986,12.169 -6.101,16.26l-11.213,6.474c-8.147,4.704 -21.375,4.704 -29.521,0c-8.147,-4.703 -6.224,-16.835 -6.224,-16.835Zm13.358,4.297c0.125,0.079 0.254,0.157 0.386,0.234c4.088,2.359 10.281,2.616 13.821,0.572l12.488,-7.21c-0.125,-0.079 -0.254,-0.157 -0.387,-0.234c-4.087,-2.36 -10.28,-2.616 -13.82,-0.572l-12.488,7.21Z" style="fill:#8bb0b4;"/><path d="M114.513,115.262c0.066,0.58 0.079,1.148 0.052,1.683c0.299,2.458 0.986,12.169 -6.101,16.26l-11.213,6.474c-8.146,4.704 -21.374,4.704 -29.521,0c-8.146,-4.703 -6.224,-16.835 -6.224,-16.835c0.006,-0.335 0.037,-0.668 0.092,-0.999c0.569,3.568 2.144,7.651 6.132,9.954c8.147,4.704 21.375,4.704 29.521,0l11.213,-6.473c4.03,-2.327 5.546,-6.47 6.049,-10.064Z" style="fill:#838383;fill-opacity:0.48;"/><path d="M95.693,98.419l0.092,0.055l-28.006,16.169c-3.614,2.23 -6.907,6.195 -6.397,10.87c0,0 -1.665,0.677 -2.862,0.997c-6.614,1.769 -14.846,-0.645 -20.263,-3.772c-8.146,-4.703 -6.103,-16.943 -6.103,-16.943l0,0.012c0.134,-2.98 2.168,-5.936 6.103,-8.208l11.213,-6.474c8.147,-4.703 21.375,-4.703 29.521,0l1.875,1.082c-0,0 3.099,-1.789 5.748,-3.319c2.045,-1.18 5.361,-1.18 7.406,0.001l0.59,0.34c-1.208,1.237 -1.828,2.784 -1.824,4.307c-0.038,0.196 0.253,2.267 0.946,3.102c0.492,0.593 1.169,1.309 1.961,1.781Zm-50.423,11.711c0.128,0.08 0.259,0.159 0.394,0.237c4.087,2.36 10.28,2.617 13.82,0.573l12.485,-7.208c-0.078,-0.048 -0.264,-0.162 -0.373,-0.226c-4.088,-2.36 -10.281,-2.616 -13.821,-0.572l-12.505,7.196Z" style="fill:#838383;"/><path d="M95.693,98.419l0.092,0.055l-28.006,16.169c-3.614,2.23 -6.907,6.195 -6.397,10.87c0,0 -1.665,0.677 -2.862,0.997c-6.614,1.769 -14.846,-0.645 -20.263,-3.772c-8.146,-4.703 -6.103,-16.943 -6.103,-16.943l0,0.012c0.134,-2.98 2.168,-5.936 6.103,-8.208l11.213,-6.474c8.147,-4.703 21.375,-4.703 29.521,0l1.875,1.082c-0,0 3.099,-1.789 5.748,-3.319c2.045,-1.18 5.361,-1.18 7.406,0.001l0.59,0.34c-1.208,1.237 -1.828,2.784 -1.824,4.307c-0.038,0.196 0.253,2.267 0.946,3.102c0.492,0.593 1.169,1.309 1.961,1.781Zm-50.423,11.711c0.128,0.08 0.259,0.159 0.394,0.237c4.087,2.36 10.28,2.617 13.82,0.573l12.485,-7.208c-0.078,-0.048 -0.264,-0.162 -0.373,-0.226c-4.088,-2.36 -10.281,-2.616 -13.821,-0.572l-12.505,7.196Z" style="fill:#8bb0b4;"/><path d="M63.033,118.051c0,-0 -2.132,2.728 -1.623,7.403c0,-0 -1.664,0.677 -2.861,0.997c-6.615,1.769 -14.847,-0.645 -20.263,-3.772c-8.147,-4.704 -6.104,-16.943 -6.104,-16.943l0.001,0.011c0.061,-1.372 -0.467,6.86 4.951,9.988c5.416,3.127 13.236,5.755 19.851,3.986c1.197,-0.32 6.048,-1.67 6.048,-1.67Z" style="fill:#838383;fill-opacity:0.48;"/><path d="M114.513,115.262c0.066,0.58 0.079,1.148 0.052,1.683c0.299,2.458 0.986,12.169 -6.101,16.26l-11.213,6.474c-8.146,4.704 -21.374,4.704 -29.521,0c-8.146,-4.703 -6.224,-16.835 -6.224,-16.835c0.006,-0.335 0.037,-0.668 0.092,-0.999c0.569,3.568 2.144,7.651 6.132,9.954c8.147,4.704 21.375,4.704 29.521,0l11.213,-6.473c4.03,-2.327 5.546,-6.47 6.049,-10.064Z" style="fill:#838383;fill-opacity:0.11;"/><path d="M63.033,118.051c0,-0 -2.132,2.728 -1.623,7.403c0,-0 -1.664,0.677 -2.861,0.997c-6.615,1.769 -14.847,-0.645 -20.263,-3.772c-8.147,-4.704 -6.104,-16.943 -6.104,-16.943l0.001,0.011c0.061,-1.372 -0.467,6.86 4.951,9.988c5.416,3.127 13.236,5.755 19.851,3.986c1.197,-0.32 6.048,-1.67 6.048,-1.67Z" style="fill:#838383;fill-opacity:0.15;"/><g><path d="M114.709,118.699c0.165,3.771 -0.351,11.063 -6.246,14.466l-11.213,6.474c-8.146,4.703 -21.375,4.703 -29.521,-0c-6.107,-3.526 -6.556,-11.226 -6.397,-14.86c0.173,3.964 1.361,9.711 6.397,12.619c8.146,4.703 21.375,4.703 29.521,-0l11.213,-6.474c4.872,-2.813 6.07,-8.282 6.246,-12.225Z" style="fill:#838383;fill-opacity:0.49;"/><path d="M31.977,107.931c0.173,3.985 1.365,9.612 6.307,12.466c5.417,3.127 13.649,5.541 20.263,3.772c1.07,-0.286 2.514,-0.857 2.808,-0.975c-0.043,0.68 -0.033,1.421 0.054,2.219c0,0 -1.664,0.677 -2.862,0.997c-6.614,1.77 -14.846,-0.644 -20.263,-3.772c-5.974,-3.449 -6.468,-10.952 -6.307,-14.707Z" style="fill:#838383;fill-opacity:0.49;"/></g><g><path d="M45.646,110.357c-0.129,-0.075 -0.254,-0.15 -0.376,-0.227l12.505,-7.196c3.54,-2.044 9.733,-1.788 13.821,0.572c0.095,0.055 0.248,0.149 0.337,0.204l0.608,-0.351c3.54,-2.043 3.096,-5.619 -0.992,-7.979c-4.088,-2.36 -10.28,-2.616 -13.82,-0.572l-13.094,7.559c-3.54,2.044 -3.095,5.619 0.992,7.979l0.019,0.011Z" style="fill:#838383;fill-opacity:0.48;"/><path d="M80.958,129.333c0.02,0.003 0.04,0.005 0.059,0.007c-0.019,-0.002 -0.039,-0.004 -0.059,-0.007Zm-5.753,-1.85c0.016,0.01 0.032,0.019 0.048,0.029c1.618,0.934 3.566,1.538 5.549,1.801c-1.983,-0.263 -3.931,-0.867 -5.549,-1.801l-0.048,-0.029Zm-0.049,-0.028l0.034,0.019l-0.034,-0.019Zm-0.048,-0.029l0.032,0.019l-0.032,-0.019Zm-0.049,-0.029l0.035,0.021l-0.035,-0.021Zm-0.049,-0.03l0.039,0.024l-0.039,-0.024Zm-0.004,-0.003c-0.047,-0.028 -0.093,-0.057 -0.139,-0.086l12.488,-7.21c3.54,-2.044 9.733,-1.788 13.82,0.572c0.133,0.077 0.262,0.155 0.387,0.234l0.605,-0.349c3.54,-2.044 3.096,-5.619 -0.992,-7.979c-4.087,-2.36 -10.28,-2.617 -13.82,-0.573l-13.094,7.559c-3.467,2.002 -3.112,5.473 0.745,7.832Z" style="fill:#838383;fill-opacity:0.48;"/></g><path d="M95.787,88.241c5.106,-3.436 10.323,-3.133 14.813,-0c3.89,2.714 4.104,7.852 0.016,10.212c-4.088,2.36 -10.725,2.36 -14.812,-0c-4.088,-2.36 -3.914,-7.59 -0.017,-10.212Z" style="fill:#dedede;"/><path d="M109.543,87.564c0.356,0.208 0.709,0.434 1.057,0.677c3.89,2.714 4.104,7.852 0.016,10.212c-4.088,2.36 -10.725,2.36 -14.812,-0c-2.218,-1.281 -3.182,-3.406 -2.976,-5.501c0.385,0.933 1.095,1.766 2.144,2.372c3.508,2.026 9.308,1.966 12.944,-0.133c3.042,-1.757 3.505,-5.186 1.627,-7.627Z" style="fill:#838383;fill-opacity:0.51;"/><path d="M113.416,92.215c0.558,2.321 -0.336,4.787 -2.825,6.224c-4.087,2.36 -10.724,2.36 -14.812,-0c-1.035,-0.598 -1.798,-1.38 -2.295,-2.257c0.251,0.22 0.522,0.427 0.814,0.619c4.423,2.914 11.605,2.914 16.028,-0c1.722,-1.135 2.739,-2.79 3.09,-4.586Z" style="fill:#838383;fill-opacity:0.51;"/><path d="M110.056,107.739c4.036,-2.362 3.513,-6.356 3.513,-6.356c-0,0 1.841,8.822 -0.578,9.883c-0.298,-0.822 -0.845,-1.381 -2.935,-3.527Z" style="fill:#838383;fill-opacity:0.46;"/><path d="M113.407,100.521l51.729,-30.015c1.98,-1.475 3.306,-3.08 2.965,-5.02c0,0 1.268,6.366 -3.747,9.261l-50.325,29.161c0.013,-0.374 0.105,-1.469 -0.622,-3.387Z" style="fill:#dedede;"/><path d="M113.407,100.521l51.729,-30.015c1.98,-1.475 3.306,-3.08 2.965,-5.02c0,0 1.268,6.366 -3.747,9.261l-50.325,29.161c0.013,-0.374 0.105,-1.469 -0.622,-3.387Z" style="fill:#838383;fill-opacity:0.47;"/><path d="M101.953,85.85l43.767,-25.269c5.148,-2.972 13.507,-2.972 18.655,0l-51.689,29.843c-0.497,-0.813 -1.195,-1.562 -2.086,-2.183c-2.682,-1.872 -5.624,-2.733 -8.647,-2.391Z" style="fill:#dedede;"/><path d="M110.815,98.333c2.984,-1.853 3.514,-5.245 1.86,-7.927l51.679,-29.837c5.015,2.895 5.015,7.597 -0,10.493l-51.026,29.459c-0.451,-1.042 -1.612,-1.621 -2.513,-2.188Z" style="fill:#dedede;"/></g><path d="M112.254,89.8l51.108,-29.508l0.869,0.502l-51.487,29.726c-0.145,-0.246 -0.309,-0.487 -0.49,-0.72Z" style="fill:#838383;fill-opacity:0.48;"/><path d="M111.59,89.058l50.798,-29.328l1.843,1.064l-51.487,29.726c-0.305,-0.517 -0.69,-1.01 -1.154,-1.462Z" style="fill:#838383;fill-opacity:0.48;"/><path d="M63.04,117.98c-0.198,-0.331 31.788,-20.035 31.788,-20.035l1.198,0.68l-32.986,19.355Z" style="fill:#838383;fill-opacity:0.48;"/></svg>
