<?xml version="1.0" encoding="UTF-8" standalone="no"?><!DOCTYPE svg PUBLIC "-//W3C//DTD SVG 1.1//EN" "http://www.w3.org/Graphics/SVG/1.1/DTD/svg11.dtd"><svg width="100%" height="100%" viewBox="0 0 200 200" version="1.1" xmlns="http://www.w3.org/2000/svg" xmlns:xlink="http://www.w3.org/1999/xlink" xml:space="preserve" xmlns:serif="http://www.serif.com/" style="fill-rule:evenodd;clip-rule:evenodd;stroke-linejoin:round;stroke-miterlimit:2;"><path d="M128.114,70.038l-0,6.128l26.39,15.237l23.872,-13.783c1.409,-0.813 2.109,-1.899 2.129,-3.038c0.018,-1.105 -0.007,-5.088 0,-6.157c0.01,-1.404 -1.011,-2.886 -3.012,-4.041l-13.196,-7.618c-3.641,-2.103 -9.157,-2.331 -12.311,-0.511l-23.872,13.783Z" style="fill:#001a35;"/><path d="M128.114,70.038l-0,6.128l26.39,15.237l23.872,-13.783c1.409,-0.813 2.109,-1.899 2.129,-3.038c0.018,-1.105 -0.007,-5.088 0,-6.157c0.01,-1.404 -1.011,-2.886 -3.012,-4.041l-13.196,-7.618c-3.641,-2.103 -9.157,-2.331 -12.311,-0.511l-23.872,13.783Z" style="fill:#fff;fill-opacity:0.15;"/><path d="M19.516,134.444c-0.061,1.136 -0.001,5.199 -0.004,6.272c-0.005,1.4 1.016,2.878 3.012,4.031l13.195,7.618c3.642,2.102 9.158,2.331 12.311,0.51l106.474,-61.472l0,-6.129l-26.39,-15.236l-106.474,61.473c-1.365,0.788 -2.065,1.832 -2.124,2.933Z" style="fill:#f5f5f5;"/><path d="M19.516,134.444c-0.061,1.136 -0.001,5.199 -0.004,6.272c-0.005,1.4 1.016,2.878 3.012,4.031l13.195,7.618c3.642,2.102 9.158,2.331 12.311,0.51l106.474,-61.472l0,-6.129l-26.39,-15.236l-106.474,61.473c-1.365,0.788 -2.065,1.832 -2.124,2.933Z" style="fill:#c8c8c8;fill-opacity:0.27;"/><path d="M128.114,70.038l-106.474,61.473c-3.153,1.82 -2.757,5.005 0.884,7.107l13.195,7.619c3.642,2.102 9.158,2.331 12.311,0.51l106.474,-61.473l-26.39,-15.236Z" style="fill:#f5f5f5;"/><path d="M164.297,56.766c-3.641,-2.103 -9.157,-2.331 -12.311,-0.511l-23.872,13.783l26.39,15.236l23.872,-13.782c3.154,-1.821 2.758,-5.006 -0.883,-7.108l-13.196,-7.618Z" style="fill:#001a35;"/><path d="M162.043,70.278c-0.299,0.839 -1.011,1.639 -2.138,2.29c-3.066,1.77 -8.045,1.77 -11.111,-0c-3.066,-1.77 -3.066,-4.645 0,-6.415c3.066,-1.77 8.045,-1.77 11.111,0c1.076,0.622 1.774,1.379 2.095,2.177l5.68,0c0.466,0 0.844,0.218 0.844,0.487l-0,0.974c-0,0.268 -0.378,0.487 -0.844,0.487l-5.637,-0Zm-11.014,-2.834c1.833,-1.058 4.808,-1.058 6.64,-0c1.833,1.058 1.833,2.776 0,3.833c-1.832,1.058 -4.807,1.058 -6.64,0c-1.832,-1.057 -1.832,-2.775 0,-3.833Z" style="fill:#f5f5f5;"/></svg>