<?xml version="1.0" encoding="UTF-8" standalone="no"?><!DOCTYPE svg PUBLIC "-//W3C//DTD SVG 1.1//EN" "http://www.w3.org/Graphics/SVG/1.1/DTD/svg11.dtd"><svg width="100%" height="100%" viewBox="0 0 200 200" version="1.1" xmlns="http://www.w3.org/2000/svg" xmlns:xlink="http://www.w3.org/1999/xlink" xml:space="preserve" xmlns:serif="http://www.serif.com/" style="fill-rule:evenodd;clip-rule:evenodd;stroke-linejoin:round;stroke-miterlimit:2;"><path d="M143.91,63.134l-105.274,60.78c-3.118,1.8 -5.649,6.637 -5.649,10.794l-0,15.065c-0,4.157 2.531,6.071 5.649,4.271l105.274,-60.78l-0,-30.13Z" style="fill:#f5f5f5;"/><path d="M173.163,53.777c-0,-4.157 -2.532,-6.07 -5.65,-4.27l-23.603,13.627l-0,30.13l23.603,-13.628c3.118,-1.8 5.65,-6.637 5.65,-10.794l-0,-15.065Z" style="fill:#001a35;"/><path d="M143.91,63.134l-105.274,60.78c-3.118,1.8 -5.649,6.637 -5.649,10.794l-0,15.065c-0,4.157 2.531,6.071 5.649,4.271l105.274,-60.78l-0,-30.13Z" style="fill:#f5f5f5;"/><path d="M173.163,53.777c-0,-4.157 -2.532,-6.07 -5.65,-4.27l-23.603,13.627l-0,30.13l23.603,-13.628c3.118,-1.8 5.65,-6.637 5.65,-10.794l-0,-15.065Z" style="fill:#001a35;"/><path d="M137.761,89.713l6.149,3.551l23.603,-13.628c3.118,-1.8 5.65,-6.637 5.65,-10.794l-0,-15.065c-0,-2 -0.587,-3.481 -1.542,-4.279c-0.173,-0.144 -6.632,-3.881 -6.744,-3.935c-0.965,-0.466 -2.186,-0.373 -3.513,0.393l-23.603,13.628l-0,30.129Z" style="fill:#001a35;"/><path d="M137.761,89.713l6.149,3.551l23.603,-13.628c3.118,-1.8 5.65,-6.637 5.65,-10.794l-0,-15.065c-0,-2 -0.587,-3.481 -1.542,-4.279c-0.173,-0.144 -6.632,-3.881 -6.744,-3.935c-0.965,-0.466 -2.186,-0.373 -3.513,0.393l-23.603,13.628l-0,30.129Z" style="fill:#fff;fill-opacity:0.15;"/><path d="M143.91,63.134l-6.149,-3.55l-105.274,60.78c-3.118,1.8 -5.65,6.637 -5.65,10.794l0,15.065c0,2.257 0.747,3.853 1.928,4.552c0.994,0.588 5.18,3.152 6.459,3.708c0.948,0.413 2.131,0.3 3.412,-0.439l105.274,-60.78l-0,-30.13Z" style="fill:#f5f5f5;"/><path d="M143.91,63.134l-6.149,-3.55l-105.274,60.78c-3.118,1.8 -5.65,6.637 -5.65,10.794l0,15.065c0,2.257 0.747,3.853 1.928,4.552c0.994,0.588 5.18,3.152 6.459,3.708c0.948,0.413 2.131,0.3 3.412,-0.439l105.274,-60.78l-0,-30.13Z" style="fill:#b8b8b8;fill-opacity:0.15;"/><path d="M143.91,63.134l-105.274,60.78c-3.118,1.8 -5.649,6.637 -5.649,10.794l-0,15.065c-0,4.157 2.531,6.071 5.649,4.271l105.274,-60.78l-0,-30.13Z" style="fill:#f5f5f5;"/><path d="M143.91,63.134l-105.274,60.78c-3.118,1.8 -5.649,6.637 -5.649,10.794l-0,15.065c-0,4.157 2.531,6.071 5.649,4.271l105.274,-60.78l-0,-30.13Z" style="fill:#f5f5f5;"/><path d="M173.163,53.777c-0,-4.157 -2.532,-6.07 -5.65,-4.27l-23.603,13.627l-0,30.13l23.603,-13.628c3.118,-1.8 5.65,-6.637 5.65,-10.794l-0,-15.065Z" style="fill:#001a35;"/><path d="M160.478,73.174c-0.867,1.16 -1.904,2.143 -3.018,2.786c-3.032,1.75 -5.493,0.329 -5.493,-3.171c0,-3.501 2.461,-7.763 5.493,-9.514c3.031,-1.75 5.492,-0.329 5.492,3.172c0,1.228 -0.303,2.551 -0.828,3.826l2.809,1.621c0.23,0.133 0.23,0.565 -0,0.963l-0.834,1.444c-0.23,0.399 -0.604,0.614 -0.834,0.482l-2.787,-1.609Zm-3.018,-7.347c1.812,-1.046 3.282,-0.197 3.282,1.895c0,2.092 -1.47,4.64 -3.282,5.686c-1.812,1.046 -3.283,0.197 -3.283,-1.895c0,-2.092 1.471,-4.64 3.283,-5.686Z" style="fill:#f5f5f5;"/></svg>