<?xml version="1.0" encoding="UTF-8" standalone="no"?><!DOCTYPE svg PUBLIC "-//W3C//DTD SVG 1.1//EN" "http://www.w3.org/Graphics/SVG/1.1/DTD/svg11.dtd"><svg width="100%" height="100%" viewBox="0 0 200 200" version="1.1" xmlns="http://www.w3.org/2000/svg" xmlns:xlink="http://www.w3.org/1999/xlink" xml:space="preserve" xmlns:serif="http://www.serif.com/" style="fill-rule:evenodd;clip-rule:evenodd;stroke-linejoin:round;stroke-miterlimit:2;"><path d="M68.137,156.757c-2.485,-1.107 -11.601,-6.399 -13.724,-7.881c-6.927,-4.837 -11.147,-14.115 -11.147,-26.959c-0,-27.482 19.322,-60.949 43.122,-74.69c11.015,-6.36 21.071,-7.386 28.696,-3.929c2.435,1.104 12.241,6.699 14.61,8.577c6.325,5.013 10.139,14 10.139,26.208c-0,9.646 -2.381,20.03 -6.501,30.041l22.048,12.729c1.806,1.043 1.806,4.43 -0,7.558l-6.547,11.339c-1.806,3.128 -4.739,4.822 -6.546,3.779l-21.88,-12.633c-6.804,9.109 -14.948,16.826 -23.697,21.877c-10.956,6.326 -20.963,7.375 -28.573,3.984Zm40.89,-87.029c1.998,3.074 3.132,7.264 3.132,12.413c0,16.424 -11.547,36.425 -25.771,44.637c-4.459,2.575 -8.655,3.687 -12.317,3.494c-1.997,-3.074 -3.132,-7.264 -3.132,-12.413c-0,-16.424 11.548,-36.426 25.771,-44.638c4.459,-2.574 8.656,-3.686 12.317,-3.493Z" style="fill:#001a35;"/><path d="M120.407,130.896c-6.804,9.109 -14.948,16.826 -23.697,21.877c-23.8,13.741 -43.122,2.585 -43.122,-24.897c-0,-27.481 19.322,-60.949 43.122,-74.69c23.8,-13.741 43.123,-2.585 43.123,24.897c-0,9.646 -2.381,20.03 -6.501,30.041l22.048,12.729c1.806,1.043 1.806,4.43 -0,7.558l-6.547,11.339c-1.806,3.128 -4.739,4.822 -6.546,3.779l-21.88,-12.633Zm-23.697,-57.675c14.224,-8.212 25.772,-1.545 25.772,14.88c-0,16.424 -11.548,36.425 -25.772,44.637c-14.223,8.212 -25.771,1.545 -25.771,-14.879c-0,-16.424 11.548,-36.426 25.771,-44.638Z" style="fill:#fff;fill-opacity:0.16;"/></svg>