<?xml version="1.0" encoding="UTF-8" standalone="no"?><!DOCTYPE svg PUBLIC "-//W3C//DTD SVG 1.1//EN" "http://www.w3.org/Graphics/SVG/1.1/DTD/svg11.dtd"><svg width="100%" height="100%" viewBox="0 0 200 200" version="1.1" xmlns="http://www.w3.org/2000/svg" xmlns:xlink="http://www.w3.org/1999/xlink" xml:space="preserve" xmlns:serif="http://www.serif.com/" style="fill-rule:evenodd;clip-rule:evenodd;stroke-linejoin:round;stroke-miterlimit:2;"><path d="M151.292,83.613l-131.134,-0c-4.522,-0 -8.194,3.671 -8.194,8.193l0,16.388c0,4.522 3.672,8.193 8.194,8.193l131.134,0l0,-32.774Z" style="fill:#f5f5f5;"/><path d="M188.036,91.806c-0,-4.522 -3.672,-8.193 -8.194,-8.193l-28.55,-0l0,32.774l28.55,0c4.522,0 8.194,-3.671 8.194,-8.193l-0,-16.388Z" style="fill:#001a35;"/><path d="M172.103,104.939c-1.088,0.718 -2.391,1.136 -3.791,1.136c-3.808,-0 -6.899,-3.092 -6.899,-6.9c-0,-3.807 3.091,-6.899 6.899,-6.899c3.808,0 6.899,3.092 6.899,6.899c0,1.337 -0.381,2.585 -1.04,3.643l3.528,3.527c0.289,0.289 0.289,0.758 -0,1.047l-1.048,1.048c-0.289,0.289 -0.758,0.289 -1.047,-0l-3.501,-3.501Zm-3.791,-9.887c2.276,0 4.123,1.848 4.123,4.123c0,2.276 -1.847,4.124 -4.123,4.124c-2.276,-0 -4.123,-1.848 -4.123,-4.124c-0,-2.275 1.847,-4.123 4.123,-4.123Z" style="fill:#f5f5f5;"/></svg>