<?xml version="1.0" encoding="UTF-8" standalone="no"?><!DOCTYPE svg PUBLIC "-//W3C//DTD SVG 1.1//EN" "http://www.w3.org/Graphics/SVG/1.1/DTD/svg11.dtd"><svg width="100%" height="100%" viewBox="0 0 200 200" version="1.1" xmlns="http://www.w3.org/2000/svg" xmlns:xlink="http://www.w3.org/1999/xlink" xml:space="preserve" xmlns:serif="http://www.serif.com/" style="fill-rule:evenodd;clip-rule:evenodd;stroke-linejoin:round;stroke-miterlimit:2;"><path d="M174.134,81.209c0.024,0.328 0.029,35.042 0.011,36.717c-0.022,1.991 -1.485,4.086 -4.32,5.723l-60.369,34.854c-5.222,3.014 -13.133,3.342 -17.655,0.732l-62.904,-36.318c-2.049,-1.183 -3.053,-2.767 -3.053,-4.427c0,-2.004 0,-34.713 0,-36.372c0,-2.004 1.464,-4.118 4.32,-5.767l60.369,-34.854c5.222,-3.014 13.133,-3.342 17.655,-0.732l62.904,36.318c1.925,1.111 2.928,2.577 3.042,4.126Z" style="fill:#d8d8d8;"/><path d="M90.533,41.497c5.222,-3.014 13.133,-3.342 17.655,-0.732l62.904,36.318c4.523,2.611 3.955,7.178 -1.267,10.193l-60.369,34.854c-5.222,3.015 -13.133,3.343 -17.655,0.732l-62.904,-36.318c-4.522,-2.61 -3.954,-7.178 1.267,-10.193l60.369,-34.854Z" style="fill:#d8d8d8;"/><path d="M174.139,81.738c0.02,4.393 0.023,34.627 0.006,36.188c-0.022,1.991 -1.485,4.086 -4.32,5.723l-60.369,34.854c-5.222,3.014 -13.133,3.342 -17.655,0.732l-62.904,-36.318c-2.049,-1.183 -3.053,-2.767 -3.053,-4.427c0,-2.004 0,-34.713 0,-36.372l0,-0.001c-0,1.66 1.004,3.244 3.053,4.427l62.904,36.318c4.522,2.611 12.433,2.283 17.655,-0.732l60.369,-34.854c2.748,-1.586 4.207,-3.603 4.314,-5.538Z" style="fill:#949494;fill-opacity:0.15;"/><path d="M95.736,125.018c-0,-0.217 0.176,-0.393 0.393,-0.393l5.852,-0c0.217,-0 0.393,0.176 0.393,0.393l0,35.586c0,0.217 -0.176,0.393 -0.393,0.393l-5.852,-0c-0.217,-0 -0.393,-0.176 -0.393,-0.393l-0,-35.586Z" style="fill:#eaeaea;fill-opacity:0.32;"/><path d="M98.545,124.902c0,-0.153 0.124,-0.277 0.277,-0.277l0.554,-0c0.153,-0 0.278,0.124 0.278,0.277l-0,35.818c-0,0.153 -0.125,0.277 -0.278,0.277l-0.554,-0c-0.153,-0 -0.277,-0.124 -0.277,-0.277l0,-35.818Z" style="fill:#eaeaea;fill-opacity:0.32;"/><path d="M103.475,124.76c0,-0.229 0.172,-0.464 0.385,-0.524l0.769,-0.217c0.212,-0.059 0.385,0.078 0.385,0.307l-0,35.542c-0,0.229 -0.173,0.464 -0.385,0.524l-0.769,0.217c-0.213,0.06 -0.385,-0.078 -0.385,-0.307l0,-35.542Z" style="fill:#eaeaea;fill-opacity:0.32;"/><path d="M28.055,87.116c0,-0.375 -0.135,-0.831 -0.301,-1.017l-0.602,-0.676c-0.166,-0.186 -0.301,-0.033 -0.301,0.343l0,35.012c0,0.375 0.135,0.831 0.301,1.018l0.602,0.675c0.166,0.186 0.301,0.033 0.301,-0.342l0,-35.013Z" style="fill:#eaeaea;fill-opacity:0.32;"/><path d="M94.072,125.604c0,-0.693 -0.408,-1.506 -0.911,-1.815l-1.822,-1.119c-0.503,-0.309 -0.912,0.002 -0.912,0.695l0,33.862c0,0.693 0.409,1.506 0.912,1.815l1.822,1.12c0.503,0.308 0.911,-0.003 0.911,-0.696l0,-33.862Z" style="fill:#eaeaea;fill-opacity:0.32;"/><path d="M172.319,86.191c-0,-0.375 0.135,-0.831 0.301,-1.017l0.601,-0.676c0.166,-0.186 0.301,-0.033 0.301,0.343l0,35.012c0,0.376 -0.135,0.831 -0.301,1.018l-0.601,0.675c-0.166,0.187 -0.301,0.033 -0.301,-0.342l-0,-35.013Z" style="fill:#eaeaea;fill-opacity:0.32;"/><path d="M38.354,96.416c-0,-0 0.446,0.116 0.708,0.268l40.015,23.102c1.337,0.772 2.422,2.846 2.422,4.628l0,21.466c0,0.492 -0.083,0.911 -0.231,1.243c-0.224,-0.038 -0.461,-0.126 -0.708,-0.269l-40.015,-23.102c-1.337,-0.772 -2.422,-2.846 -2.422,-4.628l0,-21.465c0,-0.493 0.083,-0.911 0.231,-1.243Z" style="fill:#001a35;"/><path d="M38.354,96.416c-0.148,0.332 -0.231,0.75 -0.231,1.242l0,21.466c0,1.782 1.085,3.856 2.422,4.628l40.015,23.102c0.247,0.143 0.484,0.231 0.708,0.269c-0.387,0.871 -1.223,1.146 -2.191,0.588l-40.015,-23.103c-1.337,-0.772 -2.422,-2.845 -2.422,-4.628l0,-21.465c0,-1.454 0.722,-2.268 1.714,-2.099Z" style="fill:#1a1a1a;fill-opacity:0.11;"/><path d="M36.64,119.98l1.483,-0.856c0,1.782 1.085,3.856 2.422,4.628l40.015,23.102c0.247,0.143 0.484,0.231 0.708,0.269c-0.387,0.871 -1.223,1.146 -2.191,0.588l-40.015,-23.103c-1.337,-0.772 -2.422,-2.845 -2.422,-4.628Z" style="fill:#1a1a1a;fill-opacity:0.11;"/><path d="M39.062,124.608l1.483,-0.856l40.015,23.102c0.247,0.143 0.484,0.231 0.708,0.269c-0.387,0.871 -1.223,1.146 -2.191,0.588l-40.015,-23.103Z" style="fill:#1a1a1a;fill-opacity:0.11;"/><path d="M57.999,127.456l-0,1.124l-2.022,1.167l-2.022,-1.167l-0,-1.124l2.022,-1.167l2.022,1.167Z" style="fill:#cecece;"/><path d="M55.977,128.624l2.022,-1.168l-0,1.124l-2.022,1.167l-0,-1.123Z" style="fill:#b2b2b2;fill-opacity:0.46;"/><path d="M55.977,128.624l2.022,-1.168l-0,1.124l-2.022,1.167l-0,-1.123Z" style="fill:#b2b2b2;fill-opacity:0.46;"/><path d="M55.977,126.289l2.022,1.167l-2.022,1.168l-2.022,-1.168l2.022,-1.167Z" style="fill:#b2b2b2;fill-opacity:0.46;"/><path d="M57.999,125.254l-0,1.123l-2.022,1.168l-2.022,-1.168l-0,-1.123l2.022,-1.168l2.022,1.168Z" style="fill:#cecece;"/><path d="M55.977,126.421l2.022,-1.167l-0,1.123l-2.022,1.168l-0,-1.124Z" style="fill:#b2b2b2;fill-opacity:0.46;"/><path d="M55.977,126.421l2.022,-1.167l-0,1.123l-2.022,1.168l-0,-1.124Z" style="fill:#b2b2b2;fill-opacity:0.46;"/><path d="M55.977,124.086l2.022,1.168l-2.022,1.167l-2.022,-1.167l2.022,-1.168Z" style="fill:#b2b2b2;fill-opacity:0.46;"/><path d="M60.943,129.156l0,1.124l-2.022,1.167l-2.022,-1.167l0,-1.124l2.022,-1.167l2.022,1.167Z" style="fill:#cecece;"/><path d="M58.921,130.324l2.022,-1.168l0,1.124l-2.022,1.167l0,-1.123Z" style="fill:#b2b2b2;fill-opacity:0.46;"/><path d="M58.921,130.324l2.022,-1.168l0,1.124l-2.022,1.167l0,-1.123Z" style="fill:#b2b2b2;fill-opacity:0.46;"/><path d="M58.921,127.989l2.022,1.167l-2.022,1.168l-2.022,-1.168l2.022,-1.167Z" style="fill:#b2b2b2;fill-opacity:0.46;"/><path d="M60.943,126.954l0,1.123l-2.022,1.168l-2.022,-1.168l0,-1.123l2.022,-1.168l2.022,1.168Z" style="fill:#cecece;"/><path d="M58.921,128.121l2.022,-1.167l0,1.123l-2.022,1.168l0,-1.124Z" style="fill:#b2b2b2;fill-opacity:0.46;"/><path d="M58.921,128.121l2.022,-1.167l0,1.123l-2.022,1.168l0,-1.124Z" style="fill:#b2b2b2;fill-opacity:0.46;"/><path d="M58.921,125.786l2.022,1.168l-2.022,1.167l-2.022,-1.167l2.022,-1.168Z" style="fill:#b2b2b2;fill-opacity:0.46;"/><path d="M53.422,109.573c0.305,0.271 0.533,0.767 0.533,1.203l-0,17.526c-0,0.436 -0.228,0.67 -0.533,0.589l0,-19.318Zm-0.315,-0.182l-0,19.318c-0.305,-0.272 -0.532,-0.768 -0.532,-1.204l-0,-17.526c-0,-0.435 0.227,-0.669 0.532,-0.588Z" style="fill:#f3f3f3;fill-opacity:0.19;"/><path d="M49.173,107.119c0.305,0.272 0.533,0.768 0.533,1.204l-0,17.526c-0,0.435 -0.228,0.669 -0.533,0.589l0,-19.319Zm-0.315,-0.182l-0,19.318c-0.305,-0.271 -0.533,-0.767 -0.533,-1.203l0,-17.526c0,-0.436 0.228,-0.67 0.533,-0.589Z" style="fill:#f3f3f3;fill-opacity:0.19;"/><path d="M63.925,130.878l0,1.123l-2.022,1.168l-2.022,-1.168l-0,-1.123l2.022,-1.168l2.022,1.168Z" style="fill:#cecece;"/><path d="M61.903,132.045l2.022,-1.167l0,1.123l-2.022,1.168l-0,-1.124Z" style="fill:#b2b2b2;fill-opacity:0.46;"/><path d="M61.903,132.045l2.022,-1.167l0,1.123l-2.022,1.168l-0,-1.124Z" style="fill:#b2b2b2;fill-opacity:0.46;"/><path d="M61.903,129.71l2.022,1.168l-2.022,1.167l-2.022,-1.167l2.022,-1.168Z" style="fill:#b2b2b2;fill-opacity:0.46;"/><path d="M63.925,128.675l0,1.124l-2.022,1.167l-2.022,-1.167l-0,-1.124l2.022,-1.167l2.022,1.167Z" style="fill:#cecece;"/><path d="M61.903,129.843l2.022,-1.168l0,1.124l-2.022,1.167l-0,-1.123Z" style="fill:#b2b2b2;fill-opacity:0.46;"/><path d="M61.903,129.843l2.022,-1.168l0,1.124l-2.022,1.167l-0,-1.123Z" style="fill:#b2b2b2;fill-opacity:0.46;"/><path d="M61.903,127.508l2.022,1.167l-2.022,1.168l-2.022,-1.168l2.022,-1.167Z" style="fill:#b2b2b2;fill-opacity:0.46;"/><path d="M66.822,132.64l0,1.123l-2.022,1.168l-2.022,-1.168l0,-1.123l2.022,-1.167l2.022,1.167Z" style="fill:#cecece;"/><path d="M64.8,133.807l2.022,-1.167l0,1.123l-2.022,1.168l0,-1.124Z" style="fill:#b2b2b2;fill-opacity:0.46;"/><path d="M64.8,133.807l2.022,-1.167l0,1.123l-2.022,1.168l0,-1.124Z" style="fill:#b2b2b2;fill-opacity:0.46;"/><path d="M64.8,131.473l2.022,1.167l-2.022,1.167l-2.022,-1.167l2.022,-1.167Z" style="fill:#b2b2b2;fill-opacity:0.46;"/><path d="M66.822,130.437l0,1.124l-2.022,1.167l-2.022,-1.167l0,-1.124l2.022,-1.167l2.022,1.167Z" style="fill:#cecece;"/><path d="M64.8,131.605l2.022,-1.168l0,1.124l-2.022,1.167l0,-1.123Z" style="fill:#b2b2b2;fill-opacity:0.46;"/><path d="M64.8,131.605l2.022,-1.168l0,1.124l-2.022,1.167l0,-1.123Z" style="fill:#b2b2b2;fill-opacity:0.46;"/><path d="M64.8,129.27l2.022,1.167l-2.022,1.168l-2.022,-1.168l2.022,-1.167Z" style="fill:#b2b2b2;fill-opacity:0.46;"/><path d="M45.078,104.844c0.305,0.271 0.533,0.768 0.533,1.203l-0,17.526c-0,0.436 -0.228,0.67 -0.533,0.589l0,-19.318Zm-0.315,-0.182l-0,19.318c-0.305,-0.271 -0.533,-0.768 -0.533,-1.203l0,-17.527c0,-0.435 0.228,-0.669 0.533,-0.588Z" style="fill:#f3f3f3;fill-opacity:0.19;"/><path d="M54.392,113.896l0,1.155l-1.558,0.899l-2.077,-1.199l0,-1.154l1.558,-0.9l2.077,1.199Z" style="fill:#001a35;"/><path d="M52.834,114.796l1.558,-0.9l0,1.155l-1.558,0.899l0,-1.154Z" style="fill:#e1e1e1;fill-opacity:0.12;"/><path d="M52.834,114.796l1.558,-0.9l0,1.155l-1.558,0.899l0,-1.154Z" style="fill:#e1e1e1;fill-opacity:0.12;"/><path d="M52.834,114.796l1.558,-0.9l0,1.155l-1.558,0.899l0,-1.154Z" style="fill:#e1e1e1;fill-opacity:0.12;"/><path d="M50.757,113.597l2.077,1.199l0,1.154l-2.077,-1.199l0,-1.154Z" style="fill:#e1e1e1;fill-opacity:0.12;"/><path d="M52.315,112.697l2.077,1.199l-1.558,0.9l-2.077,-1.199l1.558,-0.9Z" style="fill:#e1e1e1;fill-opacity:0.12;"/><path d="M52.315,112.697l2.077,1.199l-1.558,0.9l-2.077,-1.199l1.558,-0.9Z" style="fill:#e1e1e1;fill-opacity:0.12;"/><path d="M50.143,121.66l-0,1.154l-1.558,0.9l-2.077,-1.199l-0,-1.154l1.558,-0.9l2.077,1.199Z" style="fill:#001a35;"/><path d="M48.585,122.56l1.558,-0.9l-0,1.154l-1.558,0.9l0,-1.154Z" style="fill:#e1e1e1;fill-opacity:0.12;"/><path d="M48.585,122.56l1.558,-0.9l-0,1.154l-1.558,0.9l0,-1.154Z" style="fill:#e1e1e1;fill-opacity:0.12;"/><path d="M48.585,122.56l1.558,-0.9l-0,1.154l-1.558,0.9l0,-1.154Z" style="fill:#e1e1e1;fill-opacity:0.12;"/><path d="M46.508,121.361l2.077,1.199l0,1.154l-2.077,-1.199l-0,-1.154Z" style="fill:#e1e1e1;fill-opacity:0.12;"/><path d="M48.066,120.461l2.077,1.199l-1.558,0.9l-2.077,-1.199l1.558,-0.9Z" style="fill:#e1e1e1;fill-opacity:0.12;"/><path d="M48.066,120.461l2.077,1.199l-1.558,0.9l-2.077,-1.199l1.558,-0.9Z" style="fill:#e1e1e1;fill-opacity:0.12;"/><path d="M46.048,112.346l-0,1.155l-1.558,0.899l-2.077,-1.199l-0,-1.154l1.558,-0.9l2.077,1.199Z" style="fill:#001a35;"/><path d="M44.49,113.246l1.558,-0.9l-0,1.155l-1.558,0.899l0,-1.154Z" style="fill:#e1e1e1;fill-opacity:0.12;"/><path d="M44.49,113.246l1.558,-0.9l-0,1.155l-1.558,0.899l0,-1.154Z" style="fill:#e1e1e1;fill-opacity:0.12;"/><path d="M44.49,113.246l1.558,-0.9l-0,1.155l-1.558,0.899l0,-1.154Z" style="fill:#e1e1e1;fill-opacity:0.12;"/><path d="M42.413,112.047l2.077,1.199l0,1.154l-2.077,-1.199l-0,-1.154Z" style="fill:#e1e1e1;fill-opacity:0.12;"/><path d="M43.971,111.147l2.077,1.199l-1.558,0.9l-2.077,-1.199l1.558,-0.9Z" style="fill:#e1e1e1;fill-opacity:0.12;"/><path d="M43.971,111.147l2.077,1.199l-1.558,0.9l-2.077,-1.199l1.558,-0.9Z" style="fill:#e1e1e1;fill-opacity:0.12;"/><path d="M63.063,123.742l1.61,0.93l-0,0.577l-1.61,-0.929l-0,-0.578Z" style="fill:#25bcb2;"/><path d="M63.063,122.704l1.61,0.929l-0,0.577l-1.61,-0.929l-0,-0.577Z" style="fill:#25bcb2;"/><path d="M63.063,121.665l1.61,0.929l-0,0.578l-1.61,-0.929l-0,-0.578Z" style="fill:#25bcb2;"/><path d="M63.063,120.627l1.61,0.929l-0,0.577l-1.61,-0.929l-0,-0.577Z" style="fill:#25bcb2;"/><path d="M63.063,119.588l1.61,0.929l-0,0.578l-1.61,-0.93l-0,-0.577Z" style="fill:#25bcb2;"/><path d="M63.063,118.549l1.61,0.93l-0,0.577l-1.61,-0.929l-0,-0.578Z" style="fill:#25bcb2;"/><path d="M65.212,124.983l1.61,0.93l0,0.577l-1.61,-0.929l0,-0.578Z" style="fill:#25bcb2;"/><path d="M65.212,123.945l1.61,0.929l0,0.578l-1.61,-0.93l0,-0.577Z" style="fill:#25bcb2;"/><path d="M60.991,122.546l1.61,0.93l-0,0.577l-1.61,-0.929l0,-0.578Z" style="fill:#25bcb2;"/><path d="M60.991,121.508l1.61,0.929l-0,0.577l-1.61,-0.929l0,-0.577Z" style="fill:#25bcb2;"/><path d="M60.991,120.469l1.61,0.929l-0,0.578l-1.61,-0.929l0,-0.578Z" style="fill:#25bcb2;"/><path d="M58.942,121.363l1.61,0.929l-0,0.578l-1.61,-0.929l-0,-0.578Z" style="fill:#25bcb2;"/><path d="M58.942,120.325l1.61,0.929l-0,0.577l-1.61,-0.929l-0,-0.577Z" style="fill:#25bcb2;"/><path d="M58.942,119.286l1.61,0.929l-0,0.578l-1.61,-0.93l-0,-0.577Z" style="fill:#25bcb2;"/><path d="M58.942,118.247l1.61,0.93l-0,0.577l-1.61,-0.929l-0,-0.578Z" style="fill:#25bcb2;"/><path d="M58.942,117.209l1.61,0.929l-0,0.577l-1.61,-0.929l-0,-0.577Z" style="fill:#25bcb2;"/><path d="M58.942,116.17l1.61,0.929l-0,0.578l-1.61,-0.93l-0,-0.577Z" style="fill:#25bcb2;"/><path d="M58.942,115.131l1.61,0.93l-0,0.577l-1.61,-0.929l-0,-0.578Z" style="fill:#25bcb2;"/><path d="M56.795,120.124l1.61,0.929l0,0.578l-1.61,-0.93l0,-0.577Z" style="fill:#25bcb2;"/><path d="M63.063,124.813l1.61,0.93l-0,0.577l-1.61,-0.929l-0,-0.578Z" style="fill:#25bcb2;"/><path d="M65.212,126.054l1.61,0.93l0,0.577l-1.61,-0.929l0,-0.578Z" style="fill:#25bcb2;"/><path d="M60.991,123.617l1.61,0.93l-0,0.577l-1.61,-0.929l0,-0.578Z" style="fill:#25bcb2;"/><path d="M58.942,122.434l1.61,0.929l-0,0.578l-1.61,-0.93l-0,-0.577Z" style="fill:#25bcb2;"/><path d="M56.795,121.195l1.61,0.929l0,0.578l-1.61,-0.93l0,-0.577Z" style="fill:#25bcb2;"/><path d="M56.795,119.085l1.61,0.93l0,0.577l-1.61,-0.929l0,-0.578Z" style="fill:#25bcb2;"/><path d="M56.795,118.047l1.61,0.929l0,0.577l-1.61,-0.929l0,-0.577Z" style="fill:#25bcb2;"/><path d="M56.795,117.008l1.61,0.929l0,0.578l-1.61,-0.93l0,-0.577Z" style="fill:#25bcb2;"/><path d="M56.795,115.969l1.61,0.93l0,0.577l-1.61,-0.929l0,-0.578Z" style="fill:#25bcb2;"/><path d="M56.795,114.931l1.61,0.929l0,0.577l-1.61,-0.929l0,-0.577Z" style="fill:#25bcb2;"/><path d="M56.795,113.892l1.61,0.929l0,0.578l-1.61,-0.929l0,-0.578Z" style="fill:#25bcb2;"/><path d="M56.795,112.787l1.61,0.93l0,0.577l-1.61,-0.929l0,-0.578Z" style="fill:#25bcb2;"/><path d="M56.795,111.749l1.61,0.929l0,0.577l-1.61,-0.929l0,-0.577Z" style="fill:#25bcb2;"/><path d="M72.108,132.638c1.807,1.043 3.274,3.584 3.274,5.67c0,2.087 -1.467,2.934 -3.274,1.89c-1.807,-1.043 -3.274,-3.584 -3.274,-5.67c0,-2.087 1.467,-2.934 3.274,-1.89Z" style="fill:#001a35;"/><path d="M69.882,132.362c0.36,-0.178 1.787,-1.079 2.226,-1.282c0.58,-0.267 1.347,-0.191 2.188,0.295c1.807,1.043 3.274,3.584 3.274,5.67c-0,0.971 -0.318,1.673 -0.839,2.042c-0.395,0.279 -1.917,1.103 -2.279,1.323c-0.595,0.361 -1.425,0.318 -2.344,-0.212c-1.807,-1.043 -3.274,-3.584 -3.274,-5.67c0,-1.094 0.404,-1.847 1.048,-2.166Z" style="fill:#cecece;"/><path d="M69.884,132.361c0.364,-0.181 1.786,-1.079 2.224,-1.281c0.58,-0.267 1.347,-0.191 2.188,0.295c1.807,1.043 3.274,3.584 3.274,5.67c-0,0.971 -0.318,1.673 -0.839,2.042c-0.394,0.278 -1.907,1.098 -2.276,1.321c0.574,-0.35 0.927,-1.076 0.927,-2.1c0,-2.086 -1.467,-4.627 -3.274,-5.67c-0.858,-0.496 -1.64,-0.565 -2.224,-0.277Z" style="fill:#353535;fill-opacity:0.17;"/><path d="M72.193,134.587c0.851,0.492 1.543,1.69 1.543,2.673c-0,0.984 -0.692,1.383 -1.543,0.891c-0.852,-0.492 -1.544,-1.689 -1.544,-2.673c0,-0.983 0.692,-1.382 1.544,-0.891Z" style="fill:#25bcb4;"/><path d="M72.193,135.204c0.557,0.321 1.009,1.105 1.009,1.748c-0,0.643 -0.452,0.904 -1.009,0.583c-0.557,-0.322 -1.01,-1.105 -1.01,-1.748c0,-0.644 0.453,-0.905 1.01,-0.583Z" style="fill:#efefef;fill-opacity:0.45;"/><path d="M72.108,121.308c1.807,1.043 3.274,3.584 3.274,5.671c0,2.086 -1.467,2.933 -3.274,1.89c-1.807,-1.043 -3.274,-3.584 -3.274,-5.671c0,-2.086 1.467,-2.933 3.274,-1.89Z" style="fill:#001a35;"/><path d="M69.882,121.033c0.36,-0.179 1.787,-1.08 2.226,-1.282c0.58,-0.267 1.347,-0.191 2.188,0.294c1.807,1.043 3.274,3.584 3.274,5.671c-0,0.97 -0.318,1.673 -0.839,2.041c-0.395,0.28 -1.917,1.104 -2.279,1.323c-0.595,0.361 -1.425,0.319 -2.344,-0.211c-1.807,-1.043 -3.274,-3.584 -3.274,-5.671c0,-1.094 0.404,-1.847 1.048,-2.165Z" style="fill:#cecece;"/><path d="M69.884,121.031c0.364,-0.181 1.786,-1.078 2.224,-1.28c0.58,-0.267 1.347,-0.191 2.188,0.294c1.807,1.043 3.274,3.584 3.274,5.671c-0,0.97 -0.318,1.673 -0.839,2.041c-0.394,0.279 -1.907,1.098 -2.276,1.321c0.574,-0.35 0.927,-1.075 0.927,-2.099c0,-2.087 -1.467,-4.628 -3.274,-5.671c-0.858,-0.496 -1.64,-0.565 -2.224,-0.277Z" style="fill:#353535;fill-opacity:0.17;"/><path d="M72.193,123.258c0.851,0.492 1.543,1.689 1.543,2.673c-0,0.983 -0.692,1.382 -1.543,0.891c-0.852,-0.492 -1.544,-1.69 -1.544,-2.673c0,-0.984 0.692,-1.383 1.544,-0.891Z" style="fill:#25bcb4;"/><path d="M72.193,123.874c0.557,0.322 1.009,1.105 1.009,1.749c-0,0.643 -0.452,0.904 -1.009,0.582c-0.557,-0.321 -1.01,-1.105 -1.01,-1.748c0,-0.643 0.453,-0.904 1.01,-0.583Z" style="fill:#efefef;fill-opacity:0.45;"/><path d="M31.371,98.695c0.975,0.564 1.768,1.936 1.768,3.063c-0,1.126 -0.793,1.584 -1.768,1.02c-0.976,-0.563 -1.768,-1.935 -1.768,-3.062c-0,-1.127 0.792,-1.584 1.768,-1.021Z" style="fill:#001a35;"/><path d="M30.168,98.546c0.195,-0.096 0.965,-0.582 1.203,-0.692c0.313,-0.144 0.727,-0.103 1.181,0.159c0.976,0.564 1.768,1.936 1.768,3.063c-0,0.524 -0.171,0.903 -0.453,1.102c-0.213,0.151 -1.035,0.596 -1.231,0.714c-0.321,0.195 -0.769,0.173 -1.265,-0.114c-0.976,-0.563 -1.768,-1.935 -1.768,-3.062c-0,-0.591 0.217,-0.997 0.565,-1.17Z" style="fill:#cecece;"/><path d="M30.169,98.546c0.197,-0.098 0.965,-0.583 1.202,-0.692c0.313,-0.144 0.727,-0.103 1.181,0.159c0.976,0.564 1.768,1.936 1.768,3.063c-0,0.524 -0.171,0.903 -0.453,1.102c-0.213,0.15 -1.03,0.593 -1.229,0.713c0.31,-0.189 0.501,-0.58 0.501,-1.133c-0,-1.127 -0.793,-2.499 -1.768,-3.063c-0.464,-0.267 -0.886,-0.305 -1.202,-0.149Z" style="fill:#353535;fill-opacity:0.17;"/><path d="M31.371,105.928c0.975,0.563 1.768,1.935 1.768,3.062c-0,1.127 -0.793,1.584 -1.768,1.021c-0.976,-0.564 -1.768,-1.936 -1.768,-3.063c-0,-1.126 0.792,-1.584 1.768,-1.02Z" style="fill:#001a35;"/><path d="M30.168,105.779c0.195,-0.096 0.965,-0.583 1.203,-0.692c0.313,-0.145 0.727,-0.103 1.181,0.159c0.976,0.563 1.768,1.935 1.768,3.062c-0,0.524 -0.171,0.903 -0.453,1.102c-0.213,0.151 -1.035,0.596 -1.231,0.715c-0.321,0.195 -0.769,0.172 -1.265,-0.114c-0.976,-0.564 -1.768,-1.936 -1.768,-3.063c-0,-0.59 0.217,-0.997 0.565,-1.169Z" style="fill:#cecece;"/><path d="M30.169,105.778c0.197,-0.098 0.965,-0.582 1.202,-0.691c0.313,-0.145 0.727,-0.103 1.181,0.159c0.976,0.563 1.768,1.935 1.768,3.062c-0,0.524 -0.171,0.903 -0.453,1.102c-0.213,0.151 -1.03,0.593 -1.229,0.714c0.31,-0.189 0.501,-0.581 0.501,-1.134c-0,-1.127 -0.793,-2.499 -1.768,-3.062c-0.464,-0.268 -0.886,-0.305 -1.202,-0.15Z" style="fill:#353535;fill-opacity:0.17;"/><path d="M31.371,113.064c0.975,0.564 1.768,1.936 1.768,3.063c-0,1.126 -0.793,1.584 -1.768,1.02c-0.976,-0.563 -1.768,-1.935 -1.768,-3.062c-0,-1.127 0.792,-1.584 1.768,-1.021Z" style="fill:#001a35;"/><path d="M30.168,112.916c0.195,-0.097 0.965,-0.583 1.203,-0.692c0.313,-0.145 0.727,-0.104 1.181,0.158c0.976,0.564 1.768,1.936 1.768,3.063c-0,0.524 -0.171,0.903 -0.453,1.102c-0.213,0.151 -1.035,0.596 -1.231,0.715c-0.321,0.194 -0.769,0.172 -1.265,-0.115c-0.976,-0.563 -1.768,-1.935 -1.768,-3.062c-0,-0.59 0.217,-0.997 0.565,-1.169Z" style="fill:#cecece;"/><path d="M30.169,112.915c0.197,-0.098 0.965,-0.582 1.202,-0.691c0.313,-0.145 0.727,-0.104 1.181,0.158c0.976,0.564 1.768,1.936 1.768,3.063c-0,0.524 -0.171,0.903 -0.453,1.102c-0.213,0.151 -1.03,0.593 -1.229,0.713c0.31,-0.188 0.501,-0.58 0.501,-1.133c-0,-1.127 -0.793,-2.499 -1.768,-3.063c-0.464,-0.267 -0.886,-0.304 -1.202,-0.149Z" style="fill:#353535;fill-opacity:0.17;"/></svg>