<?xml version="1.0" encoding="UTF-8" standalone="no"?><!DOCTYPE svg PUBLIC "-//W3C//DTD SVG 1.1//EN" "http://www.w3.org/Graphics/SVG/1.1/DTD/svg11.dtd"><svg width="100%" height="100%" viewBox="0 0 200 200" version="1.1" xmlns="http://www.w3.org/2000/svg" xmlns:xlink="http://www.w3.org/1999/xlink" xml:space="preserve" xmlns:serif="http://www.serif.com/" style="fill-rule:evenodd;clip-rule:evenodd;stroke-linejoin:round;stroke-miterlimit:2;"><path d="M101.351,185.261l0,-7.636c-1.217,0.703 -3.348,0.615 -4.754,-0.197l-45.538,-26.291c-0.79,-0.456 -1.184,-1.044 -1.162,-1.597c-0.001,0.015 -0.001,0.03 -0.001,0.044c-0,0.54 -0,7.189 -0,7.636c-0,0.54 0.394,1.109 1.163,1.553l45.538,26.291c1.406,0.812 3.537,0.9 4.754,0.197Z" style="fill:#fff;fill-opacity:0.04;"/><path d="M49.896,149.584c-0,0.54 -0,7.189 -0,7.636c-0,0.54 0.394,1.109 1.163,1.553l45.538,26.291c1.406,0.812 3.537,0.9 4.754,0.197l47.931,-27.673c0.552,-0.318 0.822,-0.745 0.822,-1.192c0,-0.54 0,-7.189 0,-7.636c0,-0.539 -0.394,-1.109 -1.163,-1.553l-45.538,-26.291c-1.406,-0.811 -3.537,-0.9 -4.754,-0.197l-47.931,27.673c-0.552,0.319 -0.822,0.745 -0.822,1.192Z" style="fill:#25bcb4;"/><path d="M150.104,148.76c0,0.447 -0.27,0.874 -0.822,1.193l-47.931,27.672c-1.217,0.703 -3.348,0.615 -4.754,-0.197l-45.538,-26.291c-0.79,-0.456 -1.184,-1.044 -1.162,-1.597c-0.001,0.015 -0.001,0.03 -0.001,0.044c-0,0.54 -0,7.189 -0,7.636c-0,0.54 0.394,1.109 1.163,1.553l45.538,26.291c1.406,0.812 3.537,0.9 4.754,0.197l47.931,-27.671c0.552,-0.319 0.822,-0.746 0.822,-1.192c0,-0.54 0,-7.191 0,-7.638l0,0Z" style="fill:#fff;fill-opacity:0.24;"/><path d="M101.351,185.261l0,-7.636c-1.217,0.703 -3.348,0.615 -4.754,-0.197l-0,7.636c1.406,0.812 3.537,0.9 4.754,0.197Z" style="fill:#fff;fill-opacity:0.24;"/><path d="M98.563,178.055l-0,7.633c0.275,0.034 0.551,0.049 0.822,0.044l0,-7.633c-0.271,0.005 -0.547,-0.01 -0.822,-0.044Z" style="fill:#fff;fill-opacity:0.24;"/><path d="M101.351,179.51l0,-7.636c-1.217,0.703 -3.348,0.615 -4.754,-0.197l-45.538,-26.291c-0.79,-0.456 -1.184,-1.044 -1.162,-1.597c-0.001,0.015 -0.001,0.029 -0.001,0.044c-0,0.54 -0,7.189 -0,7.636c-0,0.539 0.394,1.109 1.163,1.553l45.538,26.291c1.406,0.812 3.537,0.9 4.754,0.197Z" style="fill:#fff;fill-opacity:0.04;"/><path d="M49.896,143.833c-0,0.54 -0,7.189 -0,7.636c-0,0.539 0.394,1.109 1.163,1.553l45.538,26.291c1.406,0.812 3.537,0.9 4.754,0.197l47.931,-27.673c0.552,-0.318 0.822,-0.745 0.822,-1.192c0,-0.54 0,-7.189 0,-7.636c0,-0.539 -0.394,-1.109 -1.163,-1.553l-45.538,-26.291c-1.406,-0.812 -3.537,-0.9 -4.754,-0.197l-47.931,27.673c-0.552,0.318 -0.822,0.745 -0.822,1.192Z" style="fill:#25bcb4;"/><path d="M150.104,143.009c0,0.447 -0.27,0.874 -0.822,1.192l-47.931,27.673c-1.217,0.703 -3.348,0.615 -4.754,-0.197l-45.538,-26.291c-0.79,-0.456 -1.184,-1.044 -1.162,-1.597c-0.001,0.015 -0.001,0.029 -0.001,0.044c-0,0.54 -0,7.189 -0,7.636c-0,0.539 0.394,1.109 1.163,1.553l45.538,26.291c1.406,0.812 3.537,0.9 4.754,0.197l47.931,-27.671c0.552,-0.319 0.822,-0.746 0.822,-1.193c0,-0.539 0,-7.19 0,-7.637l0,0Z" style="fill:#fff;fill-opacity:0.24;"/><path d="M101.351,179.51l0,-7.636c-1.217,0.703 -3.348,0.615 -4.754,-0.197l-0,7.636c1.406,0.812 3.537,0.9 4.754,0.197Z" style="fill:#fff;fill-opacity:0.24;"/><path d="M98.563,172.304l-0,7.633c0.275,0.034 0.551,0.049 0.822,0.044l0,-7.633c-0.271,0.005 -0.547,-0.01 -0.822,-0.044Z" style="fill:#fff;fill-opacity:0.24;"/><path d="M101.351,173.92l0,-7.635c-1.217,0.703 -3.348,0.615 -4.754,-0.197l-45.538,-26.291c-0.79,-0.456 -1.184,-1.045 -1.162,-1.597c-0.001,0.014 -0.001,0.029 -0.001,0.044c-0,0.539 -0,7.188 -0,7.635c-0,0.54 0.394,1.109 1.163,1.554l45.538,26.29c1.406,0.812 3.537,0.901 4.754,0.197Z" style="fill:#fff;fill-opacity:0.04;"/><path d="M49.896,138.244c-0,0.539 -0,7.188 -0,7.635c-0,0.54 0.394,1.109 1.163,1.554l45.538,26.29c1.406,0.812 3.537,0.901 4.754,0.197l47.931,-27.672c0.552,-0.319 0.822,-0.745 0.822,-1.192c0,-0.54 0,-7.189 0,-7.636c0,-0.54 -0.394,-1.109 -1.163,-1.553l-45.538,-26.291c-1.406,-0.812 -3.537,-0.9 -4.754,-0.197l-47.931,27.673c-0.552,0.318 -0.822,0.745 -0.822,1.192Z" style="fill:#25bcb4;"/><path d="M150.104,137.42c0,0.447 -0.27,0.874 -0.822,1.192l-47.931,27.673c-1.217,0.703 -3.348,0.615 -4.754,-0.197l-45.538,-26.291c-0.79,-0.456 -1.184,-1.045 -1.162,-1.597c-0.001,0.014 -0.001,0.029 -0.001,0.044c-0,0.539 -0,7.188 -0,7.635c-0,0.54 0.394,1.109 1.163,1.554l45.538,26.29c1.406,0.812 3.537,0.901 4.754,0.197l47.931,-27.671c0.552,-0.318 0.822,-0.745 0.822,-1.192c0,-0.54 0,-7.19 0,-7.637l0,-0Z" style="fill:#fff;fill-opacity:0.24;"/><path d="M101.351,173.92l0,-7.635c-1.217,0.703 -3.348,0.615 -4.754,-0.197l-0,7.635c1.406,0.812 3.537,0.901 4.754,0.197Z" style="fill:#fff;fill-opacity:0.24;"/><path d="M98.563,166.715l-0,7.633c0.275,0.034 0.551,0.048 0.822,0.044l0,-7.633c-0.271,0.004 -0.547,-0.01 -0.822,-0.044Z" style="fill:#fff;fill-opacity:0.24;"/><path d="M53.604,47.944c-0,0.499 -0,89.508 -0,89.922c-0,0.499 0.365,1.026 1.077,1.438l42.167,24.345c1.303,0.752 3.276,0.834 4.403,0.182l44.384,-25.624c0.511,-0.295 0.761,-0.69 0.761,-1.104c0,-0.5 0,-89.508 0,-89.922c0,-0.5 -0.365,-1.027 -1.077,-1.438l-42.167,-24.346c-1.303,-0.751 -3.276,-0.833 -4.403,-0.182l-44.384,25.625c-0.511,0.295 -0.761,0.69 -0.761,1.104Z" style="fill:#0d273f;"/><path d="M146.396,47.181c0,0.413 -0.25,0.809 -0.761,1.104l-44.384,25.624c-1.127,0.652 -3.1,0.57 -4.403,-0.182l-42.167,-24.345c-0.731,-0.423 -1.097,-0.967 -1.076,-1.479c-0.001,0.013 -0.001,0.027 -0.001,0.041c-0,0.499 -0,89.508 -0,89.922c-0,0.499 0.365,1.026 1.077,1.438l42.167,24.345c1.303,0.752 3.276,0.834 4.403,0.182l44.384,-25.624c0.511,-0.295 0.761,-0.69 0.761,-1.104c0,-0.5 0,-89.508 0,-89.922l0,-0Z" style="fill:#fff;fill-opacity:0.04;"/><path d="M101.251,163.831l0,-89.922c-1.127,0.652 -3.1,0.57 -4.403,-0.182l-42.167,-24.345c-0.731,-0.423 -1.097,-0.967 -1.076,-1.479c-0.001,0.013 -0.001,0.027 -0.001,0.041c-0,0.499 -0,89.508 -0,89.922c-0,0.499 0.365,1.026 1.077,1.438l42.167,24.345c1.303,0.752 3.276,0.834 4.403,0.182Z" style="fill:#fff;fill-opacity:0.04;"/><path d="M101.251,163.831l0,-89.922c-1.127,0.652 -3.1,0.57 -4.403,-0.182l0,89.922c1.303,0.752 3.276,0.834 4.403,0.182Z" style="fill:#fff;fill-opacity:0.04;"/><path d="M98.669,74.308l0,89.922c0.255,0.031 0.511,0.045 0.762,0.04l-0,-89.922c-0.251,0.005 -0.507,-0.009 -0.762,-0.04Z" style="fill:#fff;fill-opacity:0.04;"/><path d="M56.994,152.693c0.452,-0.223 2.238,-1.351 2.788,-1.604c0.726,-0.335 1.686,-0.239 2.739,0.368c2.262,1.306 4.098,4.488 4.098,7.1c0,1.215 -0.397,2.094 -1.05,2.556c-0.494,0.349 -2.399,1.381 -2.853,1.656c-0.745,0.452 -1.784,0.399 -2.934,-0.265c-2.262,-1.306 -4.099,-4.487 -4.099,-7.099c0,-1.37 0.505,-2.313 1.311,-2.712Z" style="fill:#d9d9d9;"/><path d="M56.997,152.692c0.456,-0.227 2.236,-1.35 2.785,-1.603c0.726,-0.335 1.686,-0.239 2.739,0.368c2.262,1.306 4.098,4.488 4.098,7.1c0,1.215 -0.397,2.094 -1.05,2.556c-0.493,0.348 -2.387,1.374 -2.848,1.653c0.718,-0.438 1.16,-1.346 1.16,-2.628c0,-2.612 -1.837,-5.794 -4.099,-7.1c-1.075,-0.62 -2.053,-0.707 -2.785,-0.346Z" style="fill:#eee;fill-opacity:0.51;"/><path d="M56.994,152.693c0.452,-0.223 2.238,-1.351 2.788,-1.604c0.726,-0.335 1.686,-0.239 2.739,0.368c2.262,1.306 4.098,4.488 4.098,7.1c0,1.215 -0.397,2.094 -1.05,2.556c-0.494,0.349 -2.399,1.381 -2.853,1.656c-0.745,0.452 -1.784,0.399 -2.934,-0.265c-2.262,-1.306 -4.099,-4.487 -4.099,-7.099c0,-1.37 0.505,-2.313 1.311,-2.712Z" style="fill:#0D273F;"/><path d="M56.997,152.692c0.456,-0.227 2.236,-1.35 2.785,-1.603c0.726,-0.335 1.686,-0.239 2.739,0.368c2.262,1.306 4.098,4.488 4.098,7.1c0,1.215 -0.397,2.094 -1.05,2.556c-0.493,0.348 -2.387,1.374 -2.848,1.653c0.718,-0.438 1.16,-1.346 1.16,-2.628c0,-2.612 -1.837,-5.794 -4.099,-7.1c-1.075,-0.62 -2.053,-0.707 -2.785,-0.346Z" style="fill:#f2f2f2;fill-opacity:0.1;"/><path d="M59.782,153.761c1.917,1.106 3.474,3.802 3.474,6.016c-0,2.213 -1.557,3.112 -3.474,2.005c-1.917,-1.107 -3.473,-3.803 -3.473,-6.016c-0,-2.214 1.556,-3.112 3.473,-2.005Z" style="fill:#f2f2f2;fill-opacity:0.1;"/><path d="M60.513,155.44c0.913,0.527 1.654,1.81 1.654,2.864c-0,1.053 -0.741,1.481 -1.654,0.954c-0.912,-0.527 -1.653,-1.81 -1.653,-2.863c0,-1.054 0.741,-1.482 1.653,-0.955Z" style="fill:#f2f2f2;fill-opacity:0.1;"/><path d="M76.964,164.223c0.451,-0.224 2.237,-1.351 2.788,-1.605c0.726,-0.334 1.686,-0.239 2.738,0.369c2.262,1.306 4.099,4.487 4.099,7.099c0,1.215 -0.397,2.094 -1.05,2.556c-0.495,0.35 -2.4,1.381 -2.853,1.656c-0.745,0.452 -1.785,0.399 -2.934,-0.264c-2.263,-1.306 -4.099,-4.488 -4.099,-7.1c-0,-1.369 0.505,-2.312 1.311,-2.711Z" style="fill:#d9d9d9;"/><path d="M76.967,164.221c0.456,-0.227 2.235,-1.35 2.785,-1.603c0.726,-0.334 1.686,-0.239 2.738,0.369c2.262,1.306 4.099,4.487 4.099,7.099c0,1.215 -0.397,2.094 -1.05,2.556c-0.493,0.349 -2.387,1.374 -2.849,1.654c0.718,-0.438 1.161,-1.347 1.161,-2.629c-0,-2.612 -1.837,-5.793 -4.099,-7.099c-1.075,-0.621 -2.054,-0.707 -2.785,-0.347Z" style="fill:#eee;fill-opacity:0.51;"/><path d="M76.964,164.223c0.451,-0.224 2.237,-1.351 2.788,-1.605c0.726,-0.334 1.686,-0.239 2.738,0.369c2.262,1.306 4.099,4.487 4.099,7.099c0,1.215 -0.397,2.094 -1.05,2.556c-0.495,0.35 -2.4,1.381 -2.853,1.656c-0.745,0.452 -1.785,0.399 -2.934,-0.264c-2.263,-1.306 -4.099,-4.488 -4.099,-7.1c-0,-1.369 0.505,-2.312 1.311,-2.711Z" style="fill:#0D273F;"/><path d="M76.967,164.221c0.456,-0.227 2.235,-1.35 2.785,-1.603c0.726,-0.334 1.686,-0.239 2.738,0.369c2.262,1.306 4.099,4.487 4.099,7.099c0,1.215 -0.397,2.094 -1.05,2.556c-0.493,0.349 -2.387,1.374 -2.849,1.654c0.718,-0.438 1.161,-1.347 1.161,-2.629c-0,-2.612 -1.837,-5.793 -4.099,-7.099c-1.075,-0.621 -2.054,-0.707 -2.785,-0.347Z" style="fill:#f2f2f2;fill-opacity:0.1;"/><path d="M79.752,165.29c1.917,1.107 3.473,3.802 3.473,6.016c0,2.214 -1.556,3.112 -3.473,2.005c-1.917,-1.106 -3.474,-3.802 -3.474,-6.016c0,-2.213 1.557,-3.112 3.474,-2.005Z" style="fill:#f2f2f2;fill-opacity:0.1;"/><path d="M80.483,166.969c0.912,0.527 1.653,1.81 1.653,2.864c0,1.054 -0.741,1.481 -1.653,0.954c-0.912,-0.526 -1.653,-1.809 -1.653,-2.863c-0,-1.054 0.741,-1.481 1.653,-0.955Z" style="fill:#f2f2f2;fill-opacity:0.1;"/><path d="M59.782,156.313c0,0 -0.85,0.57 -1.717,0.992c-3.138,1.526 -7.981,4.103 -0.498,8.285l8.422,5.005c7.623,4.684 12.206,0.943 14.96,-0.624c-0,-0 0.716,-0.204 0.067,-1.447c-0.513,-0.983 -1.198,-0.782 -1.198,-0.782c-2.017,1.321 -6.41,3.853 -12.167,0.883l-7.869,-4.595c-5.179,-3.069 -1.941,-3.994 1.157,-5.45c0,0 0.676,-0.409 0.022,-1.48c-0.58,-0.948 -1.179,-0.787 -1.179,-0.787Z" style="fill:#25bcb4;"/><path d="M61.186,126.843c0.386,-0.191 1.911,-1.154 2.381,-1.371c0.62,-0.285 1.441,-0.204 2.339,0.315c1.933,1.116 3.501,3.833 3.501,6.064c0,1.038 -0.339,1.789 -0.897,2.183c-0.422,0.299 -2.049,1.18 -2.437,1.415c-0.636,0.386 -1.524,0.341 -2.506,-0.226c-1.932,-1.116 -3.501,-3.833 -3.501,-6.064c0,-1.17 0.431,-1.975 1.12,-2.316Z" style="fill:#0D273F;"/><path d="M61.189,126.842c0.389,-0.194 1.909,-1.153 2.378,-1.37c0.62,-0.285 1.441,-0.204 2.339,0.315c1.933,1.116 3.501,3.833 3.501,6.064c0,1.038 -0.339,1.789 -0.897,2.183c-0.421,0.298 -2.039,1.174 -2.433,1.413c0.613,-0.374 0.991,-1.15 0.991,-2.245c0,-2.232 -1.568,-4.949 -3.501,-6.064c-0.918,-0.53 -1.754,-0.604 -2.378,-0.296Z" style="fill:#f2f2f2;fill-opacity:0.1;"/><path d="M63.567,127.755c1.638,0.945 2.967,3.247 2.967,5.138c0,1.891 -1.329,2.658 -2.967,1.713c-1.637,-0.945 -2.966,-3.248 -2.966,-5.139c-0,-1.89 1.329,-2.658 2.966,-1.712Z" style="fill:#f2f2f2;fill-opacity:0.1;"/><path d="M64.192,129.189c0.779,0.45 1.412,1.546 1.412,2.446c0,0.9 -0.633,1.265 -1.412,0.815c-0.779,-0.45 -1.412,-1.546 -1.412,-2.446c-0,-0.9 0.633,-1.265 1.412,-0.815Z" style="fill:#f2f2f2;fill-opacity:0.1;"/><path d="M78.547,136.558c0.386,-0.191 1.912,-1.154 2.382,-1.37c0.62,-0.286 1.44,-0.205 2.339,0.314c1.932,1.116 3.501,3.833 3.501,6.064c-0,1.038 -0.34,1.789 -0.897,2.183c-0.423,0.299 -2.05,1.18 -2.437,1.415c-0.636,0.386 -1.524,0.341 -2.506,-0.226c-1.933,-1.115 -3.501,-3.833 -3.501,-6.064c-0,-1.17 0.431,-1.975 1.119,-2.316Z" style="fill:#0D273F;"/><path d="M78.55,136.557c0.39,-0.194 1.91,-1.153 2.379,-1.369c0.62,-0.286 1.44,-0.205 2.339,0.314c1.932,1.116 3.501,3.833 3.501,6.064c-0,1.038 -0.34,1.789 -0.897,2.183c-0.421,0.298 -2.039,1.174 -2.433,1.413c0.613,-0.374 0.991,-1.15 0.991,-2.245c-0,-2.231 -1.569,-4.949 -3.501,-6.064c-0.918,-0.53 -1.754,-0.604 -2.379,-0.296Z" style="fill:#f2f2f2;fill-opacity:0.1;"/><path d="M80.929,137.47c1.637,0.945 2.966,3.248 2.966,5.138c0,1.891 -1.329,2.659 -2.966,1.713c-1.638,-0.945 -2.967,-3.248 -2.967,-5.138c-0,-1.891 1.329,-2.659 2.967,-1.713Z" style="fill:#f2f2f2;fill-opacity:0.1;"/><path d="M81.553,138.904c0.78,0.45 1.413,1.546 1.413,2.446c-0,0.9 -0.633,1.265 -1.413,0.815c-0.779,-0.45 -1.412,-1.546 -1.412,-2.445c0,-0.9 0.633,-1.266 1.412,-0.816Z" style="fill:#f2f2f2;fill-opacity:0.1;"/><path d="M63.692,129.8c0,0 -0.726,0.487 -1.467,0.847c-2.68,1.304 -6.816,3.505 -0.425,7.077l7.194,4.275c6.511,4.001 10.426,0.805 12.777,-0.533c0,-0 0.612,-0.174 0.058,-1.236c-0.438,-0.839 -1.024,-0.668 -1.024,-0.668c-1.722,1.129 -5.475,3.291 -10.392,0.755l-6.721,-3.925c-4.424,-2.622 -1.658,-3.412 0.988,-4.655c0,-0 0.577,-0.35 0.019,-1.264c-0.495,-0.81 -1.007,-0.673 -1.007,-0.673Z" style="fill:#25bcb4;"/><path d="M61.186,96.342c0.386,-0.191 1.911,-1.154 2.381,-1.371c0.62,-0.285 1.441,-0.204 2.339,0.315c1.933,1.116 3.501,3.833 3.501,6.064c0,1.038 -0.339,1.789 -0.897,2.183c-0.422,0.299 -2.049,1.18 -2.437,1.415c-0.636,0.386 -1.524,0.341 -2.506,-0.226c-1.932,-1.116 -3.501,-3.833 -3.501,-6.064c0,-1.17 0.431,-1.975 1.12,-2.316Z" style="fill:#0D273F;"/><path d="M61.189,96.341c0.389,-0.194 1.909,-1.153 2.378,-1.37c0.62,-0.285 1.441,-0.204 2.339,0.315c1.933,1.116 3.501,3.833 3.501,6.064c0,1.038 -0.339,1.789 -0.897,2.183c-0.421,0.298 -2.039,1.174 -2.433,1.413c0.613,-0.374 0.991,-1.15 0.991,-2.245c0,-2.232 -1.568,-4.949 -3.501,-6.064c-0.918,-0.53 -1.754,-0.604 -2.378,-0.296Z" style="fill:#f2f2f2;fill-opacity:0.1;"/><path d="M63.567,97.254c1.638,0.945 2.967,3.248 2.967,5.138c0,1.891 -1.329,2.658 -2.967,1.713c-1.637,-0.945 -2.966,-3.248 -2.966,-5.138c-0,-1.891 1.329,-2.659 2.966,-1.713Z" style="fill:#f2f2f2;fill-opacity:0.1;"/><path d="M64.192,98.688c0.779,0.45 1.412,1.546 1.412,2.446c0,0.9 -0.633,1.265 -1.412,0.815c-0.779,-0.45 -1.412,-1.546 -1.412,-2.446c-0,-0.9 0.633,-1.265 1.412,-0.815Z" style="fill:#f2f2f2;fill-opacity:0.1;"/><path d="M78.547,106.057c0.386,-0.191 1.912,-1.154 2.382,-1.37c0.62,-0.286 1.44,-0.204 2.339,0.314c1.932,1.116 3.501,3.833 3.501,6.064c-0,1.038 -0.34,1.789 -0.897,2.183c-0.423,0.299 -2.05,1.18 -2.437,1.415c-0.636,0.386 -1.524,0.341 -2.506,-0.226c-1.933,-1.115 -3.501,-3.833 -3.501,-6.064c-0,-1.169 0.431,-1.975 1.119,-2.316Z" style="fill:#0D273F;"/><path d="M78.55,106.056c0.39,-0.194 1.91,-1.153 2.379,-1.369c0.62,-0.286 1.44,-0.204 2.339,0.314c1.932,1.116 3.501,3.833 3.501,6.064c-0,1.038 -0.34,1.789 -0.897,2.183c-0.421,0.298 -2.039,1.174 -2.433,1.413c0.613,-0.374 0.991,-1.15 0.991,-2.245c-0,-2.231 -1.569,-4.949 -3.501,-6.064c-0.918,-0.53 -1.754,-0.604 -2.379,-0.296Z" style="fill:#f2f2f2;fill-opacity:0.1;"/><path d="M80.929,106.969c1.637,0.945 2.966,3.248 2.966,5.138c0,1.891 -1.329,2.659 -2.966,1.713c-1.638,-0.945 -2.967,-3.248 -2.967,-5.138c-0,-1.891 1.329,-2.659 2.967,-1.713Z" style="fill:#f2f2f2;fill-opacity:0.1;"/><path d="M81.553,108.403c0.78,0.45 1.413,1.546 1.413,2.446c-0,0.9 -0.633,1.265 -1.413,0.815c-0.779,-0.449 -1.412,-1.545 -1.412,-2.445c0,-0.9 0.633,-1.266 1.412,-0.816Z" style="fill:#f2f2f2;fill-opacity:0.1;"/><path d="M63.692,99.299c0,0 -0.726,0.487 -1.467,0.847c-2.68,1.304 -6.816,3.505 -0.425,7.077l7.194,4.275c6.511,4.001 10.426,0.805 12.777,-0.533c0,-0 0.612,-0.174 0.058,-1.236c-0.438,-0.839 -1.024,-0.668 -1.024,-0.668c-1.722,1.129 -5.475,3.291 -10.392,0.755l-6.721,-3.925c-4.424,-2.622 -1.658,-3.412 0.988,-4.655c0,-0 0.577,-0.349 0.019,-1.264c-0.495,-0.81 -1.007,-0.673 -1.007,-0.673Z" style="fill:#25bcb4;"/><path d="M61.186,78.036c0.386,-0.191 1.911,-1.154 2.381,-1.37c0.62,-0.286 1.441,-0.204 2.339,0.314c1.933,1.116 3.501,3.833 3.501,6.064c0,1.038 -0.339,1.789 -0.897,2.183c-0.422,0.299 -2.049,1.18 -2.437,1.415c-0.636,0.386 -1.524,0.341 -2.506,-0.226c-1.932,-1.115 -3.501,-3.833 -3.501,-6.064c0,-1.17 0.431,-1.975 1.12,-2.316Z" style="fill:#0D273F;"/><path d="M61.189,78.035c0.389,-0.194 1.909,-1.153 2.378,-1.369c0.62,-0.286 1.441,-0.204 2.339,0.314c1.933,1.116 3.501,3.833 3.501,6.064c0,1.038 -0.339,1.789 -0.897,2.183c-0.421,0.298 -2.039,1.174 -2.433,1.413c0.613,-0.374 0.991,-1.15 0.991,-2.245c0,-2.231 -1.568,-4.949 -3.501,-6.064c-0.918,-0.53 -1.754,-0.604 -2.378,-0.296Z" style="fill:#f2f2f2;fill-opacity:0.1;"/><path d="M63.567,78.948c1.638,0.945 2.967,3.248 2.967,5.138c0,1.891 -1.329,2.659 -2.967,1.713c-1.637,-0.945 -2.966,-3.248 -2.966,-5.138c-0,-1.891 1.329,-2.659 2.966,-1.713Z" style="fill:#f2f2f2;fill-opacity:0.1;"/><path d="M64.192,80.382c0.779,0.45 1.412,1.546 1.412,2.446c0,0.9 -0.633,1.265 -1.412,0.815c-0.779,-0.45 -1.412,-1.545 -1.412,-2.445c-0,-0.9 0.633,-1.266 1.412,-0.816Z" style="fill:#f2f2f2;fill-opacity:0.1;"/><path d="M78.547,87.751c0.386,-0.19 1.912,-1.154 2.382,-1.37c0.62,-0.286 1.44,-0.204 2.339,0.315c1.932,1.115 3.501,3.832 3.501,6.064c-0,1.037 -0.34,1.788 -0.897,2.183c-0.423,0.298 -2.05,1.179 -2.437,1.414c-0.636,0.386 -1.524,0.341 -2.506,-0.226c-1.933,-1.115 -3.501,-3.832 -3.501,-6.064c-0,-1.169 0.431,-1.975 1.119,-2.316Z" style="fill:#0D273F;"/><path d="M78.55,87.75c0.39,-0.194 1.91,-1.153 2.379,-1.369c0.62,-0.286 1.44,-0.204 2.339,0.315c1.932,1.115 3.501,3.832 3.501,6.064c-0,1.037 -0.34,1.788 -0.897,2.183c-0.421,0.298 -2.039,1.174 -2.433,1.412c0.613,-0.374 0.991,-1.15 0.991,-2.245c-0,-2.231 -1.569,-4.948 -3.501,-6.064c-0.918,-0.53 -1.754,-0.604 -2.379,-0.296Z" style="fill:#f2f2f2;fill-opacity:0.1;"/><path d="M80.929,88.663c1.637,0.945 2.966,3.248 2.966,5.139c0,1.89 -1.329,2.658 -2.966,1.712c-1.638,-0.945 -2.967,-3.247 -2.967,-5.138c-0,-1.891 1.329,-2.658 2.967,-1.713Z" style="fill:#f2f2f2;fill-opacity:0.1;"/><path d="M81.553,90.097c0.78,0.45 1.413,1.546 1.413,2.446c-0,0.9 -0.633,1.266 -1.413,0.816c-0.779,-0.45 -1.412,-1.546 -1.412,-2.446c0,-0.9 0.633,-1.266 1.412,-0.816Z" style="fill:#f2f2f2;fill-opacity:0.1;"/><path d="M63.692,80.994c0,-0 -0.726,0.487 -1.467,0.846c-2.68,1.304 -6.816,3.505 -0.425,7.077l7.194,4.276c6.511,4 10.426,0.804 12.777,-0.534c0,0 0.612,-0.174 0.058,-1.236c-0.438,-0.839 -1.024,-0.668 -1.024,-0.668c-1.722,1.129 -5.475,3.291 -10.392,0.755l-6.721,-3.925c-4.424,-2.622 -1.658,-3.412 0.988,-4.655c0,-0 0.577,-0.349 0.019,-1.264c-0.495,-0.81 -1.007,-0.672 -1.007,-0.672Z" style="fill:#25bcb4;"/><path d="M61.186,60.589c0.386,-0.191 1.911,-1.154 2.381,-1.371c0.62,-0.286 1.441,-0.204 2.339,0.315c1.933,1.116 3.501,3.833 3.501,6.064c0,1.038 -0.339,1.789 -0.897,2.183c-0.422,0.299 -2.049,1.18 -2.437,1.415c-0.636,0.386 -1.524,0.341 -2.506,-0.226c-1.932,-1.116 -3.501,-3.833 -3.501,-6.064c0,-1.17 0.431,-1.975 1.12,-2.316Z" style="fill:#0D273F;"/><path d="M61.189,60.587c0.389,-0.193 1.909,-1.153 2.378,-1.369c0.62,-0.286 1.441,-0.204 2.339,0.315c1.933,1.116 3.501,3.833 3.501,6.064c0,1.038 -0.339,1.789 -0.897,2.183c-0.421,0.298 -2.039,1.174 -2.433,1.412c0.613,-0.374 0.991,-1.15 0.991,-2.245c0,-2.231 -1.568,-4.948 -3.501,-6.064c-0.918,-0.53 -1.754,-0.603 -2.378,-0.296Z" style="fill:#f2f2f2;fill-opacity:0.1;"/><path d="M63.567,61.5c1.638,0.946 2.967,3.248 2.967,5.139c0,1.891 -1.329,2.658 -2.967,1.713c-1.637,-0.946 -2.966,-3.248 -2.966,-5.139c-0,-1.891 1.329,-2.658 2.966,-1.713Z" style="fill:#f2f2f2;fill-opacity:0.1;"/><path d="M64.192,62.935c0.779,0.45 1.412,1.546 1.412,2.446c0,0.9 -0.633,1.265 -1.412,0.815c-0.779,-0.45 -1.412,-1.546 -1.412,-2.446c-0,-0.9 0.633,-1.265 1.412,-0.815Z" style="fill:#f2f2f2;fill-opacity:0.1;"/><path d="M78.547,70.304c0.386,-0.191 1.912,-1.154 2.382,-1.371c0.62,-0.285 1.44,-0.204 2.339,0.315c1.932,1.116 3.501,3.833 3.501,6.064c-0,1.038 -0.34,1.789 -0.897,2.183c-0.423,0.299 -2.05,1.18 -2.437,1.415c-0.636,0.386 -1.524,0.341 -2.506,-0.226c-1.933,-1.116 -3.501,-3.833 -3.501,-6.064c-0,-1.17 0.431,-1.975 1.119,-2.316Z" style="fill:#0D273F;"/><path d="M78.55,70.303c0.39,-0.194 1.91,-1.154 2.379,-1.37c0.62,-0.285 1.44,-0.204 2.339,0.315c1.932,1.116 3.501,3.833 3.501,6.064c-0,1.038 -0.34,1.789 -0.897,2.183c-0.421,0.298 -2.039,1.174 -2.433,1.413c0.613,-0.375 0.991,-1.15 0.991,-2.245c-0,-2.232 -1.569,-4.949 -3.501,-6.064c-0.918,-0.531 -1.754,-0.604 -2.379,-0.296Z" style="fill:#f2f2f2;fill-opacity:0.1;"/><path d="M80.929,71.215c1.637,0.946 2.966,3.248 2.966,5.139c0,1.891 -1.329,2.658 -2.966,1.713c-1.638,-0.945 -2.967,-3.248 -2.967,-5.139c-0,-1.89 1.329,-2.658 2.967,-1.713Z" style="fill:#f2f2f2;fill-opacity:0.1;"/><path d="M81.553,72.65c0.78,0.45 1.413,1.546 1.413,2.446c-0,0.9 -0.633,1.265 -1.413,0.815c-0.779,-0.45 -1.412,-1.546 -1.412,-2.446c0,-0.9 0.633,-1.265 1.412,-0.815Z" style="fill:#f2f2f2;fill-opacity:0.1;"/><path d="M63.692,63.546c0,0 -0.726,0.487 -1.467,0.847c-2.68,1.303 -6.816,3.505 -0.425,7.077l7.194,4.275c6.511,4.001 10.426,0.805 12.777,-0.533c0,-0 0.612,-0.174 0.058,-1.236c-0.438,-0.839 -1.024,-0.668 -1.024,-0.668c-1.722,1.129 -5.475,3.291 -10.392,0.754l-6.721,-3.925c-4.424,-2.621 -1.658,-3.412 0.988,-4.655c0,0 0.577,-0.349 0.019,-1.264c-0.495,-0.809 -1.007,-0.672 -1.007,-0.672Z" style="fill:#25bcb4;"/><path d="M61.186,112.097c0.386,-0.19 1.911,-1.154 2.381,-1.37c0.62,-0.286 1.441,-0.204 2.339,0.315c1.933,1.115 3.501,3.832 3.501,6.064c0,1.037 -0.339,1.788 -0.897,2.183c-0.422,0.298 -2.049,1.179 -2.437,1.414c-0.636,0.386 -1.524,0.341 -2.506,-0.226c-1.932,-1.115 -3.501,-3.832 -3.501,-6.064c0,-1.169 0.431,-1.975 1.12,-2.316Z" style="fill:#0D273F;"/><path d="M61.189,112.096c0.389,-0.194 1.909,-1.153 2.378,-1.369c0.62,-0.286 1.441,-0.204 2.339,0.315c1.933,1.115 3.501,3.832 3.501,6.064c0,1.037 -0.339,1.788 -0.897,2.183c-0.421,0.297 -2.039,1.174 -2.433,1.412c0.613,-0.374 0.991,-1.15 0.991,-2.245c0,-2.231 -1.568,-4.948 -3.501,-6.064c-0.918,-0.53 -1.754,-0.604 -2.378,-0.296Z" style="fill:#f2f2f2;fill-opacity:0.1;"/><path d="M63.567,113.009c1.638,0.945 2.967,3.248 2.967,5.138c0,1.891 -1.329,2.659 -2.967,1.713c-1.637,-0.945 -2.966,-3.248 -2.966,-5.138c-0,-1.891 1.329,-2.658 2.966,-1.713Z" style="fill:#f2f2f2;fill-opacity:0.1;"/><path d="M64.192,114.443c0.779,0.45 1.412,1.546 1.412,2.446c0,0.9 -0.633,1.266 -1.412,0.816c-0.779,-0.45 -1.412,-1.546 -1.412,-2.446c-0,-0.9 0.633,-1.266 1.412,-0.816Z" style="fill:#f2f2f2;fill-opacity:0.1;"/><path d="M78.547,121.812c0.386,-0.19 1.912,-1.154 2.382,-1.37c0.62,-0.286 1.44,-0.204 2.339,0.315c1.932,1.115 3.501,3.832 3.501,6.064c-0,1.037 -0.34,1.788 -0.897,2.183c-0.423,0.299 -2.05,1.18 -2.437,1.415c-0.636,0.385 -1.524,0.34 -2.506,-0.227c-1.933,-1.115 -3.501,-3.832 -3.501,-6.064c-0,-1.169 0.431,-1.975 1.119,-2.316Z" style="fill:#0D273F;"/><path d="M78.55,121.811c0.39,-0.194 1.91,-1.153 2.379,-1.369c0.62,-0.286 1.44,-0.204 2.339,0.315c1.932,1.115 3.501,3.832 3.501,6.064c-0,1.037 -0.34,1.788 -0.897,2.183c-0.421,0.298 -2.039,1.174 -2.433,1.412c0.613,-0.374 0.991,-1.15 0.991,-2.245c-0,-2.231 -1.569,-4.948 -3.501,-6.064c-0.918,-0.53 -1.754,-0.604 -2.379,-0.296Z" style="fill:#f2f2f2;fill-opacity:0.1;"/><path d="M80.929,122.724c1.637,0.945 2.966,3.248 2.966,5.139c0,1.89 -1.329,2.658 -2.966,1.713c-1.638,-0.946 -2.967,-3.248 -2.967,-5.139c-0,-1.891 1.329,-2.658 2.967,-1.713Z" style="fill:#f2f2f2;fill-opacity:0.1;"/><path d="M81.553,124.159c0.78,0.45 1.413,1.545 1.413,2.445c-0,0.9 -0.633,1.266 -1.413,0.816c-0.779,-0.45 -1.412,-1.546 -1.412,-2.446c0,-0.9 0.633,-1.265 1.412,-0.815Z" style="fill:#f2f2f2;fill-opacity:0.1;"/><path d="M63.692,115.055c0,-0 -0.726,0.487 -1.467,0.847c-2.68,1.303 -6.816,3.504 -0.425,7.077l7.194,4.275c6.511,4 10.426,0.804 12.777,-0.534c0,0 0.612,-0.174 0.058,-1.236c-0.438,-0.839 -1.024,-0.668 -1.024,-0.668c-1.722,1.129 -5.475,3.292 -10.392,0.755l-6.721,-3.925c-4.424,-2.621 -1.658,-3.412 0.988,-4.655c0,0 0.577,-0.349 0.019,-1.264c-0.495,-0.81 -1.007,-0.672 -1.007,-0.672Z" style="fill:#25bcb4;"/><path d="M53.604,41.433c-0,0.499 -0,6.656 -0,7.07c-0,0.5 0.365,1.027 1.077,1.438l42.167,24.346c1.303,0.751 3.276,0.833 4.403,0.182l44.384,-25.625c0.511,-0.295 0.761,-0.69 0.761,-1.104c0,-0.499 0,-6.656 0,-7.07c0,-0.5 -0.365,-1.027 -1.077,-1.438l-42.167,-24.346c-1.303,-0.751 -3.276,-0.833 -4.403,-0.182l-44.384,25.625c-0.511,0.295 -0.761,0.69 -0.761,1.104Z" style="fill:#25bcb4;"/><path d="M146.396,40.67c0,0.413 -0.25,0.809 -0.761,1.104l-44.384,25.624c-1.127,0.652 -3.1,0.57 -4.403,-0.182l-42.167,-24.345c-0.731,-0.423 -1.097,-0.967 -1.076,-1.479c-0.001,0.014 -0.001,0.027 -0.001,0.041c-0,0.499 -0,6.497 -0,6.911c-0,0.5 0.365,1.027 1.077,1.438l42.167,24.345c1.303,0.752 3.276,0.834 4.403,0.183l44.384,-25.625c0.511,-0.295 0.761,-0.69 0.761,-1.104c0,-0.499 0,-6.497 0,-6.911l0,-0Z" style="fill:#fff;fill-opacity:0.24;"/><path d="M101.251,74.31l0,-6.912c-1.127,0.652 -3.1,0.57 -4.403,-0.182l0,6.911c1.303,0.752 3.276,0.834 4.403,0.183Z" style="fill:#fff;fill-opacity:0.24;"/><path d="M98.669,67.797l0,6.921c0.255,0.031 0.511,0.045 0.762,0.04l-0,-6.921c-0.251,0.005 -0.507,-0.009 -0.762,-0.04Z" style="fill:#fff;fill-opacity:0.24;"/><path d="M101.251,74.31l0,-6.912c-1.127,0.652 -3.1,0.57 -4.403,-0.182l-42.167,-24.345c-0.731,-0.423 -1.097,-0.967 -1.076,-1.479c-0.001,0.014 -0.001,0.027 -0.001,0.041c-0,0.499 -0,6.497 -0,6.911c-0,0.5 0.365,1.027 1.077,1.438l42.167,24.345c1.303,0.752 3.276,0.834 4.403,0.183Z" style="fill:#fff;fill-opacity:0.04;"/><path d="M142.311,64.083c-0,0 -0.383,0.101 -0.607,0.23l-34.291,19.798c-1.145,0.661 -2.075,2.438 -2.075,3.965l-0,60.637c-0,0.422 0.071,0.781 0.198,1.065c0.192,-0.032 0.395,-0.108 0.606,-0.23l34.291,-19.797c1.145,-0.661 2.075,-2.438 2.075,-3.966l0,-60.636c0,-0.422 -0.071,-0.781 -0.197,-1.066Z" style="fill:#0D273F;"/><path d="M142.311,64.083c0.126,0.285 0.197,0.644 0.197,1.066l0,60.636c0,1.528 -0.93,3.305 -2.075,3.966l-34.291,19.797c-0.211,0.122 -0.414,0.198 -0.606,0.23c0.332,0.747 1.048,0.983 1.877,0.504l34.291,-19.797c1.145,-0.662 2.075,-2.439 2.075,-3.966l0,-60.637c0,-1.246 -0.619,-1.943 -1.468,-1.799Z" style="fill:#fff;fill-opacity:0.03;"/><path d="M143.779,126.519l-1.271,-0.734c0,1.528 -0.93,3.305 -2.075,3.966l-34.291,19.797c-0.211,0.122 -0.414,0.198 -0.606,0.23c0.332,0.747 1.048,0.983 1.877,0.504l34.291,-19.797c1.145,-0.662 2.075,-2.439 2.075,-3.966Z" style="fill:#fff;fill-opacity:0.03;"/><path d="M141.704,130.485l-1.271,-0.734l-34.291,19.797c-0.211,0.122 -0.414,0.198 -0.606,0.23c0.332,0.747 1.048,0.983 1.877,0.504l34.291,-19.797Z" style="fill:#fff;fill-opacity:0.03;"/><path d="M129.318,112.025c-0.322,0.286 -0.562,0.81 -0.562,1.27l-0,18.496c-0,0.459 0.24,0.706 0.562,0.621l-0,-20.387Zm0.333,-0.192l-0,20.387c0.321,-0.287 0.561,-0.811 0.561,-1.27l0,-18.496c0,-0.46 -0.24,-0.706 -0.561,-0.621Z" style="fill:#F2F2F2;fill-opacity:0.19;"/><path d="M133.802,109.436c-0.322,0.286 -0.562,0.81 -0.562,1.27l0,18.496c0,0.459 0.24,0.706 0.562,0.621l-0,-20.387Zm0.333,-0.192l-0,20.387c0.322,-0.287 0.562,-0.811 0.562,-1.27l-0,-18.496c-0,-0.46 -0.24,-0.706 -0.562,-0.621Z" style="fill:#F2F2F2;fill-opacity:0.19;"/><path d="M138.123,107.035c-0.321,0.286 -0.561,0.81 -0.561,1.27l-0,18.495c-0,0.46 0.24,0.707 0.561,0.621l0,-20.386Zm0.333,-0.192l0,20.386c0.322,-0.286 0.562,-0.81 0.562,-1.27l0,-18.495c0,-0.46 -0.24,-0.707 -0.562,-0.621Z" style="fill:#F2F2F2;fill-opacity:0.19;"/><path d="M128.294,116.588l0,1.218l1.644,0.949l2.192,-1.265l0,-1.218l-1.644,-0.95l-2.192,1.266Z" style="fill:#0D273F;"/><path d="M129.938,117.537l-1.644,-0.949l0,1.218l1.644,0.949l0,-1.218Z" style="fill:#D9D9D9;fill-opacity:0.12;"/><path d="M129.938,117.537l-1.644,-0.949l0,1.218l1.644,0.949l0,-1.218Z" style="fill:#D9D9D9;fill-opacity:0.12;"/><path d="M129.938,117.537l-1.644,-0.949l0,1.218l1.644,0.949l0,-1.218Z" style="fill:#D9D9D9;fill-opacity:0.12;"/><path d="M132.13,116.272l-2.192,1.265l0,1.218l2.192,-1.265l0,-1.218Z" style="fill:#D9D9D9;fill-opacity:0.12;"/><path d="M130.486,115.322l-2.192,1.266l1.644,0.949l2.192,-1.265l-1.644,-0.95Z" style="fill:#D9D9D9;fill-opacity:0.12;"/><path d="M130.486,115.322l-2.192,1.266l1.644,0.949l2.192,-1.265l-1.644,-0.95Z" style="fill:#D9D9D9;fill-opacity:0.12;"/><path d="M132.778,124.781l0,1.218l1.645,0.95l2.192,-1.266l-0,-1.218l-1.644,-0.949l-2.193,1.265Z" style="fill:#0D273F;"/><path d="M134.423,125.731l-1.645,-0.95l0,1.218l1.645,0.95l-0,-1.218Z" style="fill:#D9D9D9;fill-opacity:0.12;"/><path d="M134.423,125.731l-1.645,-0.95l0,1.218l1.645,0.95l-0,-1.218Z" style="fill:#D9D9D9;fill-opacity:0.12;"/><path d="M134.423,125.731l-1.645,-0.95l0,1.218l1.645,0.95l-0,-1.218Z" style="fill:#D9D9D9;fill-opacity:0.12;"/><path d="M136.615,124.465l-2.192,1.266l-0,1.218l2.192,-1.266l-0,-1.218Z" style="fill:#D9D9D9;fill-opacity:0.12;"/><path d="M134.971,123.516l-2.193,1.265l1.645,0.95l2.192,-1.266l-1.644,-0.949Z" style="fill:#D9D9D9;fill-opacity:0.12;"/><path d="M134.971,123.516l-2.193,1.265l1.645,0.95l2.192,-1.266l-1.644,-0.949Z" style="fill:#D9D9D9;fill-opacity:0.12;"/><path d="M137.1,114.952l-0,1.218l1.644,0.949l2.192,-1.265l0,-1.218l-1.644,-0.949l-2.192,1.265Z" style="fill:#0D273F;"/><path d="M138.744,115.901l-1.644,-0.949l-0,1.218l1.644,0.949l0,-1.218Z" style="fill:#D9D9D9;fill-opacity:0.12;"/><path d="M138.744,115.901l-1.644,-0.949l-0,1.218l1.644,0.949l0,-1.218Z" style="fill:#D9D9D9;fill-opacity:0.12;"/><path d="M138.744,115.901l-1.644,-0.949l-0,1.218l1.644,0.949l0,-1.218Z" style="fill:#D9D9D9;fill-opacity:0.12;"/><path d="M140.936,114.636l-2.192,1.265l0,1.218l2.192,-1.265l0,-1.218Z" style="fill:#D9D9D9;fill-opacity:0.12;"/><path d="M139.292,113.687l-2.192,1.265l1.644,0.949l2.192,-1.265l-1.644,-0.949Z" style="fill:#D9D9D9;fill-opacity:0.12;"/><path d="M139.292,113.687l-2.192,1.265l1.644,0.949l2.192,-1.265l-1.644,-0.949Z" style="fill:#D9D9D9;fill-opacity:0.12;"/><path d="M115.834,119.81c-0.322,0.286 -0.562,0.81 -0.562,1.27l0,18.495c0,0.46 0.24,0.707 0.562,0.621l0,-20.386Zm0.333,-0.192l0,20.386c0.322,-0.286 0.562,-0.81 0.562,-1.269l-0,-18.496c-0,-0.46 -0.24,-0.707 -0.562,-0.621Z" style="fill:#F2F2F2;fill-opacity:0.19;"/><path d="M120.318,117.221c-0.321,0.286 -0.561,0.81 -0.561,1.27l-0,18.495c-0,0.46 0.24,0.707 0.561,0.622l0,-20.387Zm0.333,-0.192l0,20.386c0.322,-0.286 0.562,-0.81 0.562,-1.269l0,-18.496c0,-0.46 -0.24,-0.707 -0.562,-0.621Z" style="fill:#F2F2F2;fill-opacity:0.19;"/><path d="M124.64,114.819c-0.322,0.287 -0.562,0.811 -0.562,1.27l0,18.496c0,0.46 0.24,0.706 0.562,0.621l-0,-20.387Zm0.333,-0.192l-0,20.387c0.322,-0.286 0.562,-0.81 0.562,-1.27l-0,-18.496c-0,-0.459 -0.24,-0.706 -0.562,-0.621Z" style="fill:#F2F2F2;fill-opacity:0.19;"/><path d="M114.811,124.373l-0,1.218l1.644,0.949l2.192,-1.266l-0,-1.218l-1.644,-0.949l-2.192,1.266Z" style="fill:#0D273F;"/><path d="M116.455,125.322l-1.644,-0.949l-0,1.218l1.644,0.949l-0,-1.218Z" style="fill:#D9D9D9;fill-opacity:0.12;"/><path d="M116.455,125.322l-1.644,-0.949l-0,1.218l1.644,0.949l-0,-1.218Z" style="fill:#D9D9D9;fill-opacity:0.12;"/><path d="M116.455,125.322l-1.644,-0.949l-0,1.218l1.644,0.949l-0,-1.218Z" style="fill:#D9D9D9;fill-opacity:0.12;"/><path d="M118.647,124.056l-2.192,1.266l-0,1.218l2.192,-1.266l-0,-1.218Z" style="fill:#D9D9D9;fill-opacity:0.12;"/><path d="M117.003,123.107l-2.192,1.266l1.644,0.949l2.192,-1.266l-1.644,-0.949Z" style="fill:#D9D9D9;fill-opacity:0.12;"/><path d="M117.003,123.107l-2.192,1.266l1.644,0.949l2.192,-1.266l-1.644,-0.949Z" style="fill:#D9D9D9;fill-opacity:0.12;"/><path d="M119.295,132.566l-0,1.218l1.644,0.949l2.192,-1.265l0,-1.218l-1.644,-0.95l-2.192,1.266Z" style="fill:#0D273F;"/><path d="M120.939,133.515l-1.644,-0.949l-0,1.218l1.644,0.949l0,-1.218Z" style="fill:#D9D9D9;fill-opacity:0.12;"/><path d="M120.939,133.515l-1.644,-0.949l-0,1.218l1.644,0.949l0,-1.218Z" style="fill:#D9D9D9;fill-opacity:0.12;"/><path d="M120.939,133.515l-1.644,-0.949l-0,1.218l1.644,0.949l0,-1.218Z" style="fill:#D9D9D9;fill-opacity:0.12;"/><path d="M123.131,132.25l-2.192,1.265l0,1.218l2.192,-1.265l0,-1.218Z" style="fill:#D9D9D9;fill-opacity:0.12;"/><path d="M121.487,131.3l-2.192,1.266l1.644,0.949l2.192,-1.265l-1.644,-0.95Z" style="fill:#D9D9D9;fill-opacity:0.12;"/><path d="M121.487,131.3l-2.192,1.266l1.644,0.949l2.192,-1.265l-1.644,-0.95Z" style="fill:#D9D9D9;fill-opacity:0.12;"/><path d="M123.617,122.737l-0,1.218l1.644,0.949l2.192,-1.265l-0,-1.218l-1.644,-0.95l-2.192,1.266Z" style="fill:#0D273F;"/><path d="M125.261,123.686l-1.644,-0.949l-0,1.218l1.644,0.949l-0,-1.218Z" style="fill:#D9D9D9;fill-opacity:0.12;"/><path d="M125.261,123.686l-1.644,-0.949l-0,1.218l1.644,0.949l-0,-1.218Z" style="fill:#D9D9D9;fill-opacity:0.12;"/><path d="M125.261,123.686l-1.644,-0.949l-0,1.218l1.644,0.949l-0,-1.218Z" style="fill:#D9D9D9;fill-opacity:0.12;"/><path d="M127.453,122.421l-2.192,1.265l-0,1.218l2.192,-1.265l-0,-1.218Z" style="fill:#D9D9D9;fill-opacity:0.12;"/><path d="M125.809,121.471l-2.192,1.266l1.644,0.949l2.192,-1.265l-1.644,-0.95Z" style="fill:#D9D9D9;fill-opacity:0.12;"/><path d="M125.809,121.471l-2.192,1.266l1.644,0.949l2.192,-1.265l-1.644,-0.95Z" style="fill:#D9D9D9;fill-opacity:0.12;"/><path d="M120.305,107.527l-4.644,2.681l0,1.666l4.644,-2.681l0,-1.666Z" style="fill:#25BCB4;"/><path d="M120.305,104.531l-4.644,2.681l0,1.666l4.644,-2.682l0,-1.665Z" style="fill:#25BCB4;"/><path d="M120.305,101.534l-4.644,2.681l0,1.666l4.644,-2.681l0,-1.666Z" style="fill:#25BCB4;"/><path d="M120.305,98.538l-4.644,2.681l0,1.666l4.644,-2.682l0,-1.665Z" style="fill:#25BCB4;"/><path d="M120.305,95.541l-4.644,2.681l0,1.666l4.644,-2.681l0,-1.666Z" style="fill:#25BCB4;"/><path d="M120.305,92.545l-4.644,2.681l0,1.666l4.644,-2.681l0,-1.666Z" style="fill:#25BCB4;"/><path d="M114.103,111.108l-4.643,2.681l-0,1.665l4.643,-2.681l0,-1.665Z" style="fill:#25BCB4;"/><path d="M114.103,108.111l-4.643,2.681l-0,1.666l4.643,-2.681l0,-1.666Z" style="fill:#25BCB4;"/><path d="M126.281,104.077l-4.643,2.681l-0,1.666l4.643,-2.682l0,-1.665Z" style="fill:#25BCB4;"/><path d="M126.281,101.08l-4.643,2.681l-0,1.666l4.643,-2.681l0,-1.666Z" style="fill:#25BCB4;"/><path d="M126.281,98.084l-4.643,2.681l-0,1.666l4.643,-2.682l0,-1.665Z" style="fill:#25BCB4;"/><path d="M132.194,100.663l-4.644,2.681l0,1.666l4.644,-2.681l0,-1.666Z" style="fill:#25BCB4;"/><path d="M132.194,97.667l-4.644,2.681l0,1.665l4.644,-2.681l0,-1.665Z" style="fill:#25BCB4;"/><path d="M132.194,94.67l-4.644,2.681l0,1.666l4.644,-2.681l0,-1.666Z" style="fill:#25BCB4;"/><path d="M132.194,91.674l-4.644,2.681l0,1.665l4.644,-2.681l0,-1.665Z" style="fill:#25BCB4;"/><path d="M132.194,88.677l-4.644,2.681l0,1.666l4.644,-2.681l0,-1.666Z" style="fill:#25BCB4;"/><path d="M132.194,85.681l-4.644,2.681l0,1.666l4.644,-2.682l0,-1.665Z" style="fill:#25BCB4;"/><path d="M132.194,82.684l-4.644,2.681l0,1.666l4.644,-2.681l0,-1.666Z" style="fill:#25BCB4;"/><path d="M138.387,97.088l-4.644,2.681l-0,1.666l4.644,-2.682l-0,-1.665Z" style="fill:#25BCB4;"/><path d="M120.305,110.617l-4.644,2.681l0,1.666l4.644,-2.681l0,-1.666Z" style="fill:#25BCB4;"/><path d="M114.103,114.197l-4.643,2.682l-0,1.665l4.643,-2.681l0,-1.666Z" style="fill:#25BCB4;"/><path d="M126.281,107.166l-4.643,2.682l-0,1.665l4.643,-2.681l0,-1.666Z" style="fill:#25BCB4;"/><path d="M132.194,103.753l-4.644,2.681l0,1.666l4.644,-2.682l0,-1.665Z" style="fill:#25BCB4;"/><path d="M138.387,100.178l-4.644,2.681l-0,1.665l4.644,-2.681l-0,-1.665Z" style="fill:#25BCB4;"/><path d="M138.387,94.091l-4.644,2.681l-0,1.666l4.644,-2.681l-0,-1.666Z" style="fill:#25BCB4;"/><path d="M138.387,91.095l-4.644,2.681l-0,1.666l4.644,-2.681l-0,-1.666Z" style="fill:#25BCB4;"/><path d="M138.387,88.098l-4.644,2.682l-0,1.665l4.644,-2.681l-0,-1.666Z" style="fill:#25BCB4;"/><path d="M138.387,85.102l-4.644,2.681l-0,1.666l4.644,-2.681l-0,-1.666Z" style="fill:#25BCB4;"/><path d="M138.387,82.106l-4.644,2.681l-0,1.665l4.644,-2.681l-0,-1.665Z" style="fill:#25BCB4;"/><path d="M138.387,79.109l-4.644,2.681l-0,1.666l4.644,-2.681l-0,-1.666Z" style="fill:#25BCB4;"/><path d="M138.387,75.922l-4.644,2.681l-0,1.666l4.644,-2.682l-0,-1.665Z" style="fill:#25BCB4;"/><path d="M138.387,72.925l-4.644,2.681l-0,1.666l4.644,-2.681l-0,-1.666Z" style="fill:#25BCB4;"/><path d="M114.181,111.01l-4.644,2.681l0,1.665l4.644,-2.681l0,-1.665Z" style="fill:#fff;fill-opacity:0.1;"/><path d="M114.181,114.099l-4.644,2.681l0,1.666l4.644,-2.681l0,-1.666Z" style="fill:#fff;fill-opacity:0.1;"/><path d="M114.181,108.013l-4.644,2.681l0,1.666l4.644,-2.681l0,-1.666Z" style="fill:#fff;fill-opacity:0.1;"/><path d="M114.181,105.017l-4.644,2.681l0,1.665l4.644,-2.681l0,-1.665Z" style="fill:#fff;fill-opacity:0.1;"/><path d="M114.181,102.02l-4.644,2.681l0,1.666l4.644,-2.681l0,-1.666Z" style="fill:#fff;fill-opacity:0.1;"/><path d="M114.181,99.024l-4.644,2.681l0,1.666l4.644,-2.682l0,-1.665Z" style="fill:#fff;fill-opacity:0.1;"/><path d="M114.181,96.027l-4.644,2.681l0,1.666l4.644,-2.681l0,-1.666Z" style="fill:#fff;fill-opacity:0.1;"/><path d="M114.181,93.031l-4.644,2.681l0,1.666l4.644,-2.682l0,-1.665Z" style="fill:#fff;fill-opacity:0.1;"/><path d="M114.181,89.843l-4.644,2.682l0,1.665l4.644,-2.681l0,-1.666Z" style="fill:#fff;fill-opacity:0.1;"/><path d="M114.181,86.847l-4.644,2.681l0,1.666l4.644,-2.681l0,-1.666Z" style="fill:#fff;fill-opacity:0.1;"/><path d="M120.308,107.472l-4.644,2.681l0,1.666l4.644,-2.681l0,-1.666Z" style="fill:#fff;fill-opacity:0.1;"/><path d="M120.308,110.562l-4.644,2.681l0,1.666l4.644,-2.682l0,-1.665Z" style="fill:#fff;fill-opacity:0.1;"/><path d="M120.308,104.476l-4.644,2.681l0,1.665l4.644,-2.681l0,-1.665Z" style="fill:#fff;fill-opacity:0.1;"/><path d="M120.308,101.479l-4.644,2.681l0,1.666l4.644,-2.681l0,-1.666Z" style="fill:#fff;fill-opacity:0.1;"/><path d="M120.308,98.483l-4.644,2.681l0,1.665l4.644,-2.681l0,-1.665Z" style="fill:#fff;fill-opacity:0.1;"/><path d="M120.308,95.486l-4.644,2.681l0,1.666l4.644,-2.681l0,-1.666Z" style="fill:#fff;fill-opacity:0.1;"/><path d="M120.308,92.49l-4.644,2.681l0,1.666l4.644,-2.682l0,-1.665Z" style="fill:#fff;fill-opacity:0.1;"/><path d="M120.308,89.493l-4.644,2.681l0,1.666l4.644,-2.681l0,-1.666Z" style="fill:#fff;fill-opacity:0.1;"/><path d="M120.308,86.306l-4.644,2.681l0,1.666l4.644,-2.681l0,-1.666Z" style="fill:#fff;fill-opacity:0.1;"/><path d="M120.308,83.31l-4.644,2.681l0,1.665l4.644,-2.681l0,-1.665Z" style="fill:#fff;fill-opacity:0.1;"/><path d="M126.245,104.044l-4.644,2.682l0,1.665l4.644,-2.681l0,-1.666Z" style="fill:#fff;fill-opacity:0.1;"/><path d="M126.245,107.134l-4.644,2.681l0,1.666l4.644,-2.681l0,-1.666Z" style="fill:#fff;fill-opacity:0.1;"/><path d="M126.245,101.048l-4.644,2.681l0,1.666l4.644,-2.681l0,-1.666Z" style="fill:#fff;fill-opacity:0.1;"/><path d="M126.245,98.052l-4.644,2.681l0,1.665l4.644,-2.681l0,-1.665Z" style="fill:#fff;fill-opacity:0.1;"/><path d="M126.245,95.055l-4.644,2.681l0,1.666l4.644,-2.681l0,-1.666Z" style="fill:#fff;fill-opacity:0.1;"/><path d="M126.245,92.059l-4.644,2.681l0,1.665l4.644,-2.681l0,-1.665Z" style="fill:#fff;fill-opacity:0.1;"/><path d="M126.245,89.062l-4.644,2.681l0,1.666l4.644,-2.681l0,-1.666Z" style="fill:#fff;fill-opacity:0.1;"/><path d="M126.245,86.066l-4.644,2.681l0,1.666l4.644,-2.682l0,-1.665Z" style="fill:#fff;fill-opacity:0.1;"/><path d="M126.245,82.878l-4.644,2.682l0,1.665l4.644,-2.681l0,-1.666Z" style="fill:#fff;fill-opacity:0.1;"/><path d="M126.245,79.882l-4.644,2.681l0,1.666l4.644,-2.681l0,-1.666Z" style="fill:#fff;fill-opacity:0.1;"/><path d="M132.109,100.659l-4.644,2.681l0,1.666l4.644,-2.681l-0,-1.666Z" style="fill:#fff;fill-opacity:0.1;"/><path d="M132.109,103.749l-4.644,2.681l0,1.666l4.644,-2.682l-0,-1.665Z" style="fill:#fff;fill-opacity:0.1;"/><path d="M132.109,97.662l-4.644,2.682l0,1.665l4.644,-2.681l-0,-1.666Z" style="fill:#fff;fill-opacity:0.1;"/><path d="M132.109,94.666l-4.644,2.681l0,1.666l4.644,-2.681l-0,-1.666Z" style="fill:#fff;fill-opacity:0.1;"/><path d="M132.109,91.67l-4.644,2.681l0,1.665l4.644,-2.681l-0,-1.665Z" style="fill:#fff;fill-opacity:0.1;"/><path d="M132.109,88.673l-4.644,2.681l0,1.666l4.644,-2.681l-0,-1.666Z" style="fill:#fff;fill-opacity:0.1;"/><path d="M132.109,85.677l-4.644,2.681l0,1.665l4.644,-2.681l-0,-1.665Z" style="fill:#fff;fill-opacity:0.1;"/><path d="M132.109,82.68l-4.644,2.681l0,1.666l4.644,-2.681l-0,-1.666Z" style="fill:#fff;fill-opacity:0.1;"/><path d="M132.109,79.493l-4.644,2.681l0,1.666l4.644,-2.681l-0,-1.666Z" style="fill:#fff;fill-opacity:0.1;"/><path d="M132.109,76.496l-4.644,2.682l0,1.665l4.644,-2.681l-0,-1.666Z" style="fill:#fff;fill-opacity:0.1;"/><path d="M111.606,131.461c-1.133,0.654 -2.053,2.248 -2.053,3.556c0,1.309 0.92,1.84 2.053,1.185c1.133,-0.654 2.053,-2.247 2.053,-3.555c0,-1.309 -0.92,-1.84 -2.053,-1.186Z" style="fill:#0D273F;"/><path d="M113.003,131.288c-0.227,-0.111 -1.121,-0.676 -1.397,-0.803c-0.364,-0.168 -0.844,-0.12 -1.371,0.184c-1.134,0.655 -2.053,2.248 -2.053,3.556c-0,0.609 0.199,1.049 0.525,1.28c0.248,0.176 1.202,0.692 1.43,0.83c0.373,0.226 0.893,0.2 1.469,-0.133c1.133,-0.654 2.053,-2.247 2.053,-3.555c0,-0.686 -0.253,-1.159 -0.656,-1.359Z" style="fill:#D9D9D9;"/><path d="M113.001,131.288c-0.228,-0.114 -1.12,-0.677 -1.395,-0.803c-0.364,-0.168 -0.844,-0.12 -1.371,0.184c-1.134,0.655 -2.053,2.248 -2.053,3.556c-0,0.609 0.199,1.049 0.525,1.28c0.248,0.175 1.196,0.689 1.427,0.829c-0.359,-0.22 -0.581,-0.675 -0.581,-1.317c0,-1.308 0.92,-2.902 2.053,-3.556c0.539,-0.311 1.029,-0.354 1.395,-0.173Z" style="fill:#353535;fill-opacity:0.17;"/><path d="M111.553,132.684c-0.534,0.308 -0.967,1.059 -0.967,1.676c-0,0.617 0.433,0.867 0.967,0.559c0.534,-0.309 0.968,-1.06 0.968,-1.676c0,-0.617 -0.434,-0.867 -0.968,-0.559Z" style="fill:#25bcb4;"/><path d="M111.553,133.07c-0.349,0.202 -0.633,0.693 -0.633,1.097c0,0.403 0.284,0.567 0.633,0.365c0.35,-0.201 0.633,-0.693 0.633,-1.096c0,-0.403 -0.283,-0.567 -0.633,-0.366Z" style="fill:#efefef;fill-opacity:0.45;"/><path d="M111.606,138.763c-1.133,0.655 -2.053,2.248 -2.053,3.556c0,1.309 0.92,1.84 2.053,1.186c1.133,-0.655 2.053,-2.248 2.053,-3.556c0,-1.309 -0.92,-1.84 -2.053,-1.186Z" style="fill:#0D273F;"/><path d="M113.003,138.591c-0.227,-0.112 -1.121,-0.677 -1.397,-0.804c-0.364,-0.168 -0.844,-0.12 -1.371,0.185c-1.134,0.654 -2.053,2.247 -2.053,3.555c-0,0.609 0.199,1.049 0.525,1.281c0.248,0.175 1.202,0.691 1.43,0.829c0.373,0.226 0.893,0.2 1.469,-0.132c1.133,-0.655 2.053,-2.248 2.053,-3.556c0,-0.686 -0.253,-1.158 -0.656,-1.358Z" style="fill:#D9D9D9;"/><path d="M113.001,138.59c-0.228,-0.114 -1.12,-0.676 -1.395,-0.803c-0.364,-0.168 -0.844,-0.12 -1.371,0.185c-1.134,0.654 -2.053,2.247 -2.053,3.555c-0,0.609 0.199,1.049 0.525,1.281c0.248,0.174 1.196,0.688 1.427,0.828c-0.359,-0.22 -0.581,-0.675 -0.581,-1.317c0,-1.308 0.92,-2.901 2.053,-3.556c0.539,-0.31 1.029,-0.354 1.395,-0.173Z" style="fill:#353535;fill-opacity:0.17;"/><path d="M111.553,139.986c-0.534,0.308 -0.967,1.06 -0.967,1.676c-0,0.617 0.433,0.867 0.967,0.559c0.534,-0.308 0.968,-1.059 0.968,-1.676c0,-0.617 -0.434,-0.867 -0.968,-0.559Z" style="fill:#25bcb4;"/><path d="M111.553,140.373c-0.349,0.201 -0.633,0.693 -0.633,1.096c0,0.403 0.284,0.567 0.633,0.365c0.35,-0.201 0.633,-0.693 0.633,-1.096c0,-0.403 -0.283,-0.567 -0.633,-0.365Z" style="fill:#efefef;fill-opacity:0.45;"/><path d="M111.606,124.049c-1.133,0.654 -2.053,2.247 -2.053,3.556c0,1.308 0.92,1.839 2.053,1.185c1.133,-0.654 2.053,-2.247 2.053,-3.556c0,-1.308 -0.92,-1.839 -2.053,-1.185Z" style="fill:#0D273F;"/><path d="M113.003,123.876c-0.227,-0.112 -1.121,-0.677 -1.397,-0.804c-0.364,-0.167 -0.844,-0.119 -1.371,0.185c-1.134,0.654 -2.053,2.248 -2.053,3.556c-0,0.608 0.199,1.049 0.525,1.28c0.248,0.175 1.202,0.692 1.43,0.83c0.373,0.226 0.893,0.2 1.469,-0.133c1.133,-0.654 2.053,-2.247 2.053,-3.556c0,-0.686 -0.253,-1.158 -0.656,-1.358Z" style="fill:#D9D9D9;"/><path d="M113.001,123.875c-0.228,-0.113 -1.12,-0.676 -1.395,-0.803c-0.364,-0.167 -0.844,-0.119 -1.371,0.185c-1.134,0.654 -2.053,2.248 -2.053,3.556c-0,0.608 0.199,1.049 0.525,1.28c0.248,0.175 1.196,0.688 1.427,0.828c-0.359,-0.219 -0.581,-0.674 -0.581,-1.316c0,-1.309 0.92,-2.902 2.053,-3.556c0.539,-0.311 1.029,-0.354 1.395,-0.174Z" style="fill:#353535;fill-opacity:0.17;"/><path d="M111.553,125.272c-0.534,0.308 -0.967,1.059 -0.967,1.676c-0,0.616 0.433,0.867 0.967,0.558c0.534,-0.308 0.968,-1.059 0.968,-1.676c0,-0.616 -0.434,-0.867 -0.968,-0.558Z" style="fill:#25bcb4;"/><path d="M111.553,125.658c-0.349,0.202 -0.633,0.693 -0.633,1.096c0,0.404 0.284,0.568 0.633,0.366c0.35,-0.202 0.633,-0.693 0.633,-1.096c0,-0.404 -0.283,-0.568 -0.633,-0.366Z" style="fill:#efefef;fill-opacity:0.45;"/></svg>
