<?xml version="1.0" encoding="UTF-8" standalone="no"?><!DOCTYPE svg PUBLIC "-//W3C//DTD SVG 1.1//EN" "http://www.w3.org/Graphics/SVG/1.1/DTD/svg11.dtd"><svg width="100%" height="100%" viewBox="0 0 200 200" version="1.1" xmlns="http://www.w3.org/2000/svg" xmlns:xlink="http://www.w3.org/1999/xlink" xml:space="preserve" xmlns:serif="http://www.serif.com/" style="fill-rule:evenodd;clip-rule:evenodd;stroke-linejoin:round;stroke-miterlimit:2;"><path d="M113.762,118.173c-7.717,-4.456 -19.408,-4.94 -26.091,-1.082l-31.337,18.093c-6.683,3.858 -5.844,10.608 1.873,15.063l27.963,16.145c7.717,4.455 19.408,4.94 26.091,1.082l31.338,-18.093c6.683,-3.859 5.843,-10.608 -1.874,-15.064l-27.963,-16.144Z" style="fill:#a8a8a8;fill-opacity:0.27;"/><path d="M51.822,141.725c0,0.371 0,17.624 0,18.383c0,2.962 2.164,6.085 6.385,8.522l27.963,16.145c7.717,4.455 19.408,4.94 26.091,1.081l31.423,-18.141c3.027,-1.748 4.511,-4.09 4.511,-6.542c-0,-2.961 -0,-15.93 -0,-18.383c-0,-2.961 -2.163,-6.085 -6.384,-8.522l-27.964,-16.144c-7.717,-4.456 -19.408,-4.94 -26.091,-1.082l-31.422,18.142c-3.028,1.748 -4.512,4.089 -4.512,6.541Z" style="fill:#25bcb4;"/><path d="M113.83,118.134c-7.717,-4.456 -19.408,-4.94 -26.091,-1.082l-31.405,18.132c-6.683,3.858 -5.844,10.608 1.873,15.063l27.963,16.145c7.717,4.455 19.408,4.94 26.091,1.082l31.405,-18.132c6.683,-3.859 5.844,-10.608 -1.873,-15.064l-27.963,-16.144Z" style="fill:#ececec;fill-opacity:0.27;"/><path d="M103.189,171.15c-0,-0.415 -0.336,-0.751 -0.751,-0.751l-2.28,0c-0.414,0 -0.75,0.336 -0.75,0.751l-0,15.399c-0,0.414 0.336,0.751 0.75,0.751l2.28,-0c0.415,-0 0.751,-0.337 0.751,-0.751l-0,-15.399Z" style="fill:#ececec;fill-opacity:0.27;"/><path d="M110.764,170.042c0,-0.628 -0.483,-1.025 -1.078,-0.885l-3.274,0.765c-0.595,0.139 -1.079,0.762 -1.079,1.389l0,15.542c0,0.628 0.484,1.024 1.079,0.885l3.274,-0.765c0.595,-0.14 1.078,-0.762 1.078,-1.39l0,-15.541Z" style="fill:#ececec;fill-opacity:0.27;"/><path d="M94.709,170.399c0,-0.398 0.306,-0.649 0.684,-0.561l2.075,0.485c0.377,0.088 0.683,0.483 0.683,0.88l-0,15.03c-0,0.398 -0.306,0.649 -0.683,0.561l-2.075,-0.485c-0.378,-0.089 -0.684,-0.483 -0.684,-0.881l0,-15.029Z" style="fill:#ececec;fill-opacity:0.27;"/><path d="M52.11,145.539c-0,-0.782 0.164,-1.139 0.365,-0.797l1.111,1.883c0.201,0.343 0.365,1.256 0.365,2.038l0,14.481c0,0.782 -0.164,1.139 -0.365,0.797l-1.111,-1.884c-0.201,-0.342 -0.365,-1.255 -0.365,-2.037l-0,-14.481Z" style="fill:#ececec;fill-opacity:0.27;"/><path d="M147.737,147.99c0,-0.782 -0.163,-1.14 -0.365,-0.797l-1.11,1.883c-0.202,0.342 -0.366,1.255 -0.366,2.038l0,13.906c0,0.782 0.164,1.139 0.366,0.797l1.11,-1.883c0.202,-0.343 0.365,-1.256 0.365,-2.038l0,-13.906Z" style="fill:#ececec;fill-opacity:0.27;"/><path d="M101.721,170.822c-0,-0.234 -0.19,-0.423 -0.423,-0.423c-0.233,0 -0.422,0.189 -0.422,0.423l-0,15.99c-0,0.233 0.189,0.422 0.422,0.422c0.233,0 0.423,-0.189 0.423,-0.422l-0,-15.99Z" style="fill:#ececec;fill-opacity:0.27;"/><path d="M112.655,32.05c-6.993,-4.038 -17.586,-4.477 -23.642,-0.98l-28.397,16.395c-6.056,3.496 -5.295,9.612 1.697,13.649l25.34,14.63c6.992,4.038 17.586,4.477 23.642,0.98l28.397,-16.395c6.056,-3.496 5.295,-9.612 -1.697,-13.65l-25.34,-14.629Z" style="fill:#a8a8a8;fill-opacity:0.27;"/><path d="M56.528,53.392c-0,0.336 -0,86.755 -0,87.443c-0,2.683 1.96,5.514 5.785,7.722l25.34,14.63c6.992,4.037 17.586,4.476 23.642,0.98l28.474,-16.44c2.743,-1.584 4.088,-3.705 4.088,-5.927c-0,-2.684 -0,-85.221 -0,-87.443c-0,-2.683 -1.96,-5.514 -5.785,-7.722l-25.34,-14.63c-6.993,-4.037 -17.586,-4.476 -23.642,-0.98l-28.474,16.44c-2.744,1.583 -4.088,3.705 -4.088,5.927Z" style="fill:#001b35;"/><path d="M112.716,32.014c-6.992,-4.037 -17.586,-4.476 -23.642,-0.98l-28.458,16.431c-6.056,3.496 -5.295,9.612 1.697,13.649l25.34,14.63c6.992,4.038 17.586,4.477 23.642,0.98l28.458,-16.43c6.056,-3.496 5.296,-9.613 -1.697,-13.65l-25.34,-14.63Z" style="fill:#ececec;fill-opacity:0.1;"/><path d="M103.074,80.055c0,-0.375 -0.305,-0.68 -0.68,-0.68l-2.066,0c-0.375,0 -0.68,0.305 -0.68,0.68l-0,85.569c-0,0.375 0.305,0.68 0.68,0.68l2.066,0c0.375,0 0.68,-0.305 0.68,-0.68l0,-85.569Z" style="fill:#ececec;fill-opacity:0.1;"/><path d="M109.939,79.051c-0,-0.568 -0.438,-0.928 -0.977,-0.802l-2.968,0.694c-0.539,0.126 -0.976,0.69 -0.976,1.259l-0,84.868c-0,0.569 0.437,0.928 0.976,0.802l2.968,-0.694c0.539,-0.126 0.977,-0.69 0.977,-1.258l-0,-84.869Z" style="fill:#ececec;fill-opacity:0.1;"/><path d="M95.39,79.375c0,-0.361 0.278,-0.588 0.619,-0.508l1.881,0.439c0.342,0.08 0.619,0.438 0.619,0.798l-0,85.623c-0,0.36 -0.277,0.588 -0.619,0.508l-1.881,-0.439c-0.341,-0.08 -0.619,-0.438 -0.619,-0.798l0,-85.623Z" style="fill:#ececec;fill-opacity:0.1;"/><path d="M56.788,56.848c0,-0.709 0.149,-1.032 0.332,-0.722l1.006,1.706c0.183,0.311 0.331,1.138 0.331,1.847l-0,84.36c-0,0.709 -0.148,1.033 -0.331,0.722l-1.006,-1.706c-0.183,-0.31 -0.332,-1.138 -0.332,-1.847l0,-84.36Z" style="fill:#ececec;fill-opacity:0.1;"/><path d="M143.442,59.069c0,-0.709 -0.148,-1.033 -0.331,-0.722l-1.006,1.706c-0.183,0.31 -0.331,1.138 -0.331,1.847l-0,82.73c-0,0.709 0.148,1.033 0.331,0.722l1.006,-1.706c0.183,-0.31 0.331,-1.138 0.331,-1.847l0,-82.73Z" style="fill:#ececec;fill-opacity:0.1;"/><path d="M101.744,79.758c-0,-0.211 -0.172,-0.383 -0.383,-0.383c-0.211,0 -0.383,0.172 -0.383,0.383l0,86.163c0,0.212 0.172,0.383 0.383,0.383c0.211,0 0.383,-0.171 0.383,-0.383l-0,-86.163Z" style="fill:#ececec;fill-opacity:0.1;"/><path d="M112.744,18.901c-7.004,-4.044 -17.614,-4.483 -23.68,-0.982l-28.442,16.421c-6.065,3.502 -5.303,9.628 1.7,13.672l25.38,14.653c7.004,4.044 17.614,4.483 23.68,0.981l28.442,-16.421c6.065,-3.501 5.303,-9.627 -1.7,-13.671l-25.38,-14.653Z" style="fill:#a8a8a8;fill-opacity:0.27;"/><path d="M56.528,40.278c-0,0.336 -0,15.995 -0,16.684c-0,2.687 1.963,5.522 5.794,7.734l25.38,14.653c7.004,4.044 17.614,4.484 23.68,0.982l28.519,-16.466c2.748,-1.586 4.094,-3.711 4.094,-5.937c0,-2.688 0,-14.458 0,-16.684c0,-2.688 -1.963,-5.523 -5.794,-7.735l-25.38,-14.653c-7.004,-4.043 -17.614,-4.483 -23.68,-0.981l-28.519,16.465c-2.747,1.587 -4.094,3.712 -4.094,5.938Z" style="fill:#25bcb4;"/><path d="M112.805,18.866c-7.003,-4.044 -17.614,-4.484 -23.679,-0.982l-28.504,16.456c-6.065,3.502 -5.303,9.628 1.7,13.672l25.38,14.653c7.004,4.044 17.614,4.483 23.68,0.981l28.503,-16.456c6.066,-3.502 5.304,-9.628 -1.7,-13.671l-25.38,-14.653Z" style="fill:#ececec;fill-opacity:0.33;"/><path d="M103.148,66.983c-0,-0.376 -0.305,-0.681 -0.681,-0.681l-2.07,-0c-0.376,-0 -0.681,0.305 -0.681,0.681l0,13.976c0,0.376 0.305,0.682 0.681,0.682l2.07,-0c0.376,-0 0.681,-0.306 0.681,-0.682l-0,-13.976Z" style="fill:#ececec;fill-opacity:0.33;"/><path d="M110.023,65.977c0,-0.569 -0.438,-0.929 -0.978,-0.803l-2.972,0.695c-0.54,0.126 -0.979,0.691 -0.979,1.26l0,14.106c0,0.57 0.439,0.93 0.979,0.804l2.972,-0.695c0.54,-0.127 0.978,-0.691 0.978,-1.261l0,-14.106Z" style="fill:#ececec;fill-opacity:0.33;"/><path d="M95.452,66.301c-0,-0.361 0.278,-0.589 0.62,-0.509l1.883,0.441c0.343,0.08 0.62,0.438 0.62,0.798l0,13.641c0,0.361 -0.277,0.589 -0.62,0.509l-1.883,-0.44c-0.342,-0.08 -0.62,-0.438 -0.62,-0.799l-0,-13.641Z" style="fill:#ececec;fill-opacity:0.33;"/><path d="M56.789,43.739c-0,-0.71 0.148,-1.034 0.331,-0.724l1.008,1.71c0.183,0.31 0.332,1.139 0.332,1.849l-0,13.142c-0,0.711 -0.149,1.035 -0.332,0.724l-1.008,-1.709c-0.183,-0.311 -0.331,-1.14 -0.331,-1.85l-0,-13.142Z" style="fill:#ececec;fill-opacity:0.33;"/><path d="M143.58,45.963c0,-0.71 -0.149,-1.034 -0.332,-0.723l-1.007,1.709c-0.184,0.311 -0.332,1.139 -0.332,1.849l-0,12.621c-0,0.71 0.148,1.035 0.332,0.724l1.007,-1.709c0.183,-0.311 0.332,-1.14 0.332,-1.85l0,-12.621Z" style="fill:#ececec;fill-opacity:0.33;"/><path d="M101.815,66.685c0,-0.212 -0.171,-0.383 -0.383,-0.383c-0.212,-0 -0.383,0.171 -0.383,0.383l-0,14.513c-0,0.211 0.171,0.383 0.383,0.383c0.212,0 0.383,-0.172 0.383,-0.383l0,-14.513Z" style="fill:#ececec;fill-opacity:0.33;"/><path d="M70.176,133.992c2.847,1.644 5.159,5.648 5.159,8.935c-0,3.288 -2.312,4.623 -5.159,2.979c-2.847,-1.644 -5.159,-5.648 -5.159,-8.936c0,-3.287 2.312,-4.622 5.159,-2.978Z" style="fill:#a9b8c5;fill-opacity:0.14;"/><path d="M66.667,133.558c0.568,-0.281 2.816,-1.701 3.509,-2.02c0.914,-0.421 2.122,-0.301 3.446,0.464c2.848,1.644 5.159,5.648 5.159,8.935c0,1.53 -0.5,2.636 -1.321,3.217c-0.623,0.44 -3.021,1.739 -3.591,2.085c-0.938,0.568 -2.246,0.502 -3.693,-0.333c-2.847,-1.644 -5.159,-5.648 -5.159,-8.936c0,-1.723 0.635,-2.91 1.65,-3.412Z" style="fill:#a9b8c5;fill-opacity:0.14;"/><path d="M70.176,135.369c2.189,1.264 3.966,4.342 3.966,6.87c-0,2.527 -1.777,3.553 -3.966,2.289c-2.189,-1.263 -3.966,-4.341 -3.966,-6.869c-0,-2.528 1.777,-3.554 3.966,-2.29Z" style="fill:#a9b8c5;fill-opacity:0.14;"/><path d="M66.671,133.556c0.574,-0.286 2.814,-1.699 3.505,-2.018c0.914,-0.421 2.122,-0.301 3.446,0.464c2.848,1.644 5.159,5.648 5.159,8.935c0,1.53 -0.5,2.636 -1.321,3.217c-0.621,0.439 -3.005,1.73 -3.586,2.081c0.904,-0.551 1.461,-1.694 1.461,-3.308c-0,-3.287 -2.312,-7.291 -5.159,-8.935c-1.353,-0.781 -2.585,-0.89 -3.505,-0.436Z" style="fill:#a9b8c5;fill-opacity:0.14;"/><path d="M70.309,137.064c1.342,0.775 2.431,2.662 2.431,4.212c0,1.55 -1.089,2.179 -2.431,1.404c-1.342,-0.775 -2.432,-2.662 -2.432,-4.212c-0,-1.55 1.09,-2.179 2.432,-1.404Z" style="fill:#25bcb4;"/><path d="M70.309,138.036c0.877,0.506 1.59,1.741 1.59,2.754c0,1.014 -0.713,1.425 -1.59,0.919c-0.878,-0.507 -1.591,-1.742 -1.591,-2.755c0,-1.014 0.713,-1.425 1.591,-0.918Z" style="fill:#efefef;fill-opacity:0.45;"/><path d="M139.587,73.351c0,-0 -0.267,0.07 -0.424,0.16l-23.989,13.85c-0.801,0.463 -1.452,1.706 -1.452,2.774l0,12.869c0,0.295 0.05,0.546 0.138,0.745c0.135,-0.023 0.277,-0.076 0.425,-0.161l23.988,-13.85c0.802,-0.462 1.452,-1.706 1.452,-2.774l0,-12.868c0,-0.295 -0.049,-0.546 -0.138,-0.745Z" style="fill:#001a35;"/><path d="M139.587,73.351c0.089,0.199 0.138,0.45 0.138,0.745l0,12.868c0,1.068 -0.65,2.312 -1.452,2.774l-23.988,13.85c-0.148,0.085 -0.29,0.138 -0.425,0.161c0.233,0.522 0.734,0.687 1.314,0.352l23.989,-13.849c0.801,-0.463 1.451,-1.706 1.451,-2.775l0,-12.868c0,-0.872 -0.432,-1.359 -1.027,-1.258Z" style="fill:#1a1a1a;fill-opacity:0.11;"/><path d="M140.614,87.477l-0.889,-0.513c0,1.068 -0.65,2.312 -1.452,2.774l-23.988,13.85c-0.148,0.085 -0.29,0.138 -0.425,0.161c0.233,0.522 0.734,0.687 1.314,0.352l23.989,-13.849c0.801,-0.463 1.451,-1.706 1.451,-2.775Z" style="fill:#1a1a1a;fill-opacity:0.11;"/><path d="M139.163,90.252l-0.89,-0.514l-23.988,13.85c-0.148,0.085 -0.29,0.138 -0.425,0.161c0.233,0.522 0.734,0.687 1.314,0.352l23.989,-13.849Z" style="fill:#1a1a1a;fill-opacity:0.11;"/><path d="M116.537,91.814l-0.212,-0.16l-0.423,0.244l-0.212,0.404l0,2.49l0.212,0.16l0.423,-0.244l0.212,-0.405l-0,-2.489Z" style="fill:#dedede;fill-opacity:0.47;"/><path d="M118.88,90.236l0.245,-0.386l-0,-0.489l-0.245,-0.103l-2.156,1.245l-0.244,0.386l-0,0.488l0.244,0.104l2.156,-1.245Z" style="fill:#dedede;fill-opacity:0.47;"/><path d="M119.067,92.843l0.212,0.16l0.423,-0.244l0.212,-0.404l-0,-2.49l-0.212,-0.16l-0.423,0.244l-0.212,0.405l0,2.489Z" style="fill:#dedede;fill-opacity:0.47;"/><path d="M116.724,94.359l-0.244,0.385l-0,0.489l0.244,0.104l2.156,-1.245l0.245,-0.386l-0,-0.489l-0.245,-0.103l-2.156,1.245Z" style="fill:#dedede;fill-opacity:0.47;"/><path d="M116.537,95.636l-0.212,-0.16l-0.423,0.244l-0.212,0.404l0,2.49l0.212,0.16l0.423,-0.244l0.212,-0.405l-0,-2.489Z" style="fill:#dedede;fill-opacity:0.47;"/><path d="M119.067,96.666l0.212,0.16l0.423,-0.245l0.212,-0.404l-0,-2.49l-0.212,-0.16l-0.423,0.245l-0.212,0.404l0,2.49Z" style="fill:#dedede;fill-opacity:0.47;"/><path d="M116.724,98.181l-0.244,0.386l-0,0.488l0.244,0.104l2.156,-1.245l0.245,-0.386l-0,-0.488l-0.245,-0.104l-2.156,1.245Z" style="fill:#dedede;fill-opacity:0.47;"/><path d="M118.88,90.236l0.245,-0.386l-0,-0.489l-0.245,-0.103l-2.156,1.245l-0.244,0.386l-0,0.488l0.244,0.104l2.156,-1.245Z" style="fill:#25bcb4;"/><path d="M119.067,92.843l0.212,0.16l0.423,-0.244l0.212,-0.404l-0,-2.49l-0.212,-0.16l-0.423,0.244l-0.212,0.405l0,2.489Z" style="fill:#25bcb4;"/><path d="M116.724,94.359l-0.244,0.385l-0,0.489l0.244,0.104l2.156,-1.245l0.245,-0.386l-0,-0.489l-0.245,-0.103l-2.156,1.245Z" style="fill:#25bcb4;"/><path d="M116.537,95.636l-0.212,-0.16l-0.423,0.244l-0.212,0.404l0,2.49l0.212,0.16l0.423,-0.244l0.212,-0.405l-0,-2.489Z" style="fill:#25bcb4;"/><path d="M119.067,96.666l0.212,0.16l0.423,-0.245l0.212,-0.404l-0,-2.49l-0.212,-0.16l-0.423,0.245l-0.212,0.404l0,2.49Z" style="fill:#25bcb4;"/><path d="M116.724,98.181l-0.244,0.386l-0,0.488l0.244,0.104l2.156,-1.245l0.245,-0.386l-0,-0.488l-0.245,-0.104l-2.156,1.245Z" style="fill:#25bcb4;"/><path d="M122.27,88.503l-0.212,-0.16l-0.423,0.245l-0.211,0.404l-0,2.49l0.211,0.16l0.423,-0.244l0.212,-0.405l0,-2.49Z" style="fill:#dedede;fill-opacity:0.47;"/><path d="M124.613,86.926l0.245,-0.386l-0,-0.489l-0.245,-0.103l-2.156,1.245l-0.244,0.385l-0,0.489l0.244,0.103l2.156,-1.244Z" style="fill:#dedede;fill-opacity:0.47;"/><path d="M124.801,89.533l0.211,0.16l0.423,-0.244l0.212,-0.404l0,-2.49l-0.212,-0.16l-0.423,0.244l-0.211,0.405l-0,2.489Z" style="fill:#dedede;fill-opacity:0.47;"/><path d="M122.457,91.049l-0.244,0.385l-0,0.489l0.244,0.103l2.156,-1.244l0.245,-0.386l-0,-0.489l-0.245,-0.103l-2.156,1.245Z" style="fill:#dedede;fill-opacity:0.47;"/><path d="M122.27,92.326l-0.212,-0.16l-0.423,0.244l-0.211,0.404l-0,2.49l0.211,0.16l0.423,-0.244l0.212,-0.405l0,-2.489Z" style="fill:#dedede;fill-opacity:0.47;"/><path d="M124.801,93.356l0.211,0.16l0.423,-0.245l0.212,-0.404l0,-2.49l-0.212,-0.16l-0.423,0.244l-0.211,0.405l-0,2.49Z" style="fill:#dedede;fill-opacity:0.47;"/><path d="M122.457,94.871l-0.244,0.386l-0,0.488l0.244,0.104l2.156,-1.245l0.245,-0.386l-0,-0.488l-0.245,-0.104l-2.156,1.245Z" style="fill:#dedede;fill-opacity:0.47;"/><path d="M124.801,89.533l0.211,0.16l0.423,-0.244l0.212,-0.404l0,-2.49l-0.212,-0.16l-0.423,0.244l-0.211,0.405l-0,2.489Z" style="fill:#25bcb4;"/><path d="M124.801,93.356l0.211,0.16l0.423,-0.245l0.212,-0.404l0,-2.49l-0.212,-0.16l-0.423,0.244l-0.211,0.405l-0,2.49Z" style="fill:#25bcb4;"/><path d="M128.647,84.822l-0.212,-0.16l-0.423,0.244l-0.212,0.405l0,2.489l0.212,0.16l0.423,-0.244l0.212,-0.405l-0,-2.489Z" style="fill:#dedede;fill-opacity:0.47;"/><path d="M130.99,83.244l0.245,-0.386l-0,-0.488l-0.245,-0.104l-2.156,1.245l-0.244,0.386l-0,0.489l0.244,0.103l2.156,-1.245Z" style="fill:#dedede;fill-opacity:0.47;"/><path d="M131.177,85.852l0.212,0.16l0.423,-0.245l0.212,-0.404l-0,-2.49l-0.212,-0.16l-0.423,0.245l-0.212,0.404l0,2.49Z" style="fill:#dedede;fill-opacity:0.47;"/><path d="M128.834,87.367l-0.244,0.386l-0,0.489l0.244,0.103l2.156,-1.245l0.245,-0.386l-0,-0.488l-0.245,-0.104l-2.156,1.245Z" style="fill:#dedede;fill-opacity:0.47;"/><path d="M128.647,88.644l-0.212,-0.16l-0.423,0.244l-0.212,0.405l0,2.489l0.212,0.16l0.423,-0.244l0.212,-0.404l-0,-2.49Z" style="fill:#dedede;fill-opacity:0.47;"/><path d="M131.177,89.674l0.212,0.16l0.423,-0.245l0.212,-0.404l-0,-2.49l-0.212,-0.16l-0.423,0.245l-0.212,0.404l0,2.49Z" style="fill:#dedede;fill-opacity:0.47;"/><path d="M128.834,91.189l-0.244,0.386l-0,0.489l0.244,0.103l2.156,-1.245l0.245,-0.385l-0,-0.489l-0.245,-0.103l-2.156,1.244Z" style="fill:#dedede;fill-opacity:0.47;"/><path d="M130.99,83.244l0.245,-0.386l-0,-0.488l-0.245,-0.104l-2.156,1.245l-0.244,0.386l-0,0.489l0.244,0.103l2.156,-1.245Z" style="fill:#25bcb4;"/><path d="M131.177,85.852l0.212,0.16l0.423,-0.245l0.212,-0.404l-0,-2.49l-0.212,-0.16l-0.423,0.245l-0.212,0.404l0,2.49Z" style="fill:#25bcb4;"/><path d="M128.834,87.367l-0.244,0.386l-0,0.489l0.244,0.103l2.156,-1.245l0.245,-0.386l-0,-0.488l-0.245,-0.104l-2.156,1.245Z" style="fill:#25bcb4;"/><path d="M128.647,88.644l-0.212,-0.16l-0.423,0.244l-0.212,0.405l0,2.489l0.212,0.16l0.423,-0.244l0.212,-0.404l-0,-2.49Z" style="fill:#25bcb4;"/><path d="M128.834,91.189l-0.244,0.386l-0,0.489l0.244,0.103l2.156,-1.245l0.245,-0.385l-0,-0.489l-0.245,-0.103l-2.156,1.244Z" style="fill:#25bcb4;"/><path d="M134.38,81.512l-0.211,-0.16l-0.424,0.244l-0.211,0.404l-0,2.49l0.211,0.16l0.424,-0.244l0.211,-0.405l0,-2.489Z" style="fill:#dedede;fill-opacity:0.47;"/><path d="M136.723,79.934l0.245,-0.386l-0,-0.488l-0.245,-0.104l-2.156,1.245l-0.244,0.386l-0,0.488l0.244,0.104l2.156,-1.245Z" style="fill:#dedede;fill-opacity:0.47;"/><path d="M136.911,82.542l0.211,0.16l0.424,-0.245l0.211,-0.404l0,-2.49l-0.211,-0.16l-0.424,0.245l-0.211,0.404l-0,2.49Z" style="fill:#dedede;fill-opacity:0.47;"/><path d="M134.567,84.057l-0.244,0.386l-0,0.488l0.244,0.104l2.156,-1.245l0.245,-0.386l-0,-0.488l-0.245,-0.104l-2.156,1.245Z" style="fill:#dedede;fill-opacity:0.47;"/><path d="M134.38,85.334l-0.211,-0.16l-0.424,0.244l-0.211,0.405l-0,2.489l0.211,0.16l0.424,-0.244l0.211,-0.405l0,-2.489Z" style="fill:#dedede;fill-opacity:0.47;"/><path d="M136.911,86.364l0.211,0.16l0.424,-0.245l0.211,-0.404l0,-2.49l-0.211,-0.16l-0.424,0.245l-0.211,0.404l-0,2.49Z" style="fill:#dedede;fill-opacity:0.47;"/><path d="M134.567,87.879l-0.244,0.386l-0,0.489l0.244,0.103l2.156,-1.245l0.245,-0.385l-0,-0.489l-0.245,-0.104l-2.156,1.245Z" style="fill:#dedede;fill-opacity:0.47;"/><path d="M136.911,82.542l0.211,0.16l0.424,-0.245l0.211,-0.404l0,-2.49l-0.211,-0.16l-0.424,0.245l-0.211,0.404l-0,2.49Z" style="fill:#25bcb4;"/><path d="M136.911,86.364l0.211,0.16l0.424,-0.245l0.211,-0.404l0,-2.49l-0.211,-0.16l-0.424,0.245l-0.211,0.404l-0,2.49Z" style="fill:#25bcb4;"/><path d="M139.587,90.091c0,-0 -0.267,0.07 -0.424,0.161l-23.989,13.849c-0.801,0.463 -1.452,1.706 -1.452,2.775l0,12.868c0,0.295 0.05,0.546 0.138,0.745c0.135,-0.023 0.277,-0.076 0.425,-0.161l23.988,-13.85c0.802,-0.462 1.452,-1.705 1.452,-2.774l0,-12.868c0,-0.295 -0.049,-0.546 -0.138,-0.745Z" style="fill:#001a35;"/><path d="M139.587,90.091c0.089,0.199 0.138,0.45 0.138,0.745l0,12.868c0,1.069 -0.65,2.312 -1.452,2.774l-23.988,13.85c-0.148,0.085 -0.29,0.138 -0.425,0.161c0.233,0.522 0.734,0.687 1.314,0.352l23.989,-13.849c0.801,-0.463 1.451,-1.706 1.451,-2.775l0,-12.868c0,-0.871 -0.432,-1.359 -1.027,-1.258Z" style="fill:#1a1a1a;fill-opacity:0.11;"/><path d="M140.614,104.217l-0.889,-0.513c0,1.069 -0.65,2.312 -1.452,2.774l-23.988,13.85c-0.148,0.085 -0.29,0.138 -0.425,0.161c0.233,0.522 0.734,0.687 1.314,0.352l23.989,-13.849c0.801,-0.463 1.451,-1.706 1.451,-2.775Z" style="fill:#1a1a1a;fill-opacity:0.11;"/><path d="M139.163,106.992l-0.89,-0.514l-23.988,13.85c-0.148,0.085 -0.29,0.138 -0.425,0.161c0.233,0.522 0.734,0.687 1.314,0.352l23.989,-13.849Z" style="fill:#1a1a1a;fill-opacity:0.11;"/><path d="M116.537,108.554l-0.212,-0.16l-0.423,0.244l-0.212,0.404l0,2.49l0.212,0.16l0.423,-0.244l0.212,-0.405l-0,-2.489Z" style="fill:#dedede;fill-opacity:0.47;"/><path d="M118.88,106.976l0.245,-0.386l-0,-0.488l-0.245,-0.104l-2.156,1.245l-0.244,0.386l-0,0.488l0.244,0.104l2.156,-1.245Z" style="fill:#dedede;fill-opacity:0.47;"/><path d="M119.067,109.584l0.212,0.16l0.423,-0.245l0.212,-0.404l-0,-2.49l-0.212,-0.16l-0.423,0.245l-0.212,0.404l0,2.49Z" style="fill:#dedede;fill-opacity:0.47;"/><path d="M116.724,111.099l-0.244,0.386l-0,0.488l0.244,0.104l2.156,-1.245l0.245,-0.386l-0,-0.488l-0.245,-0.104l-2.156,1.245Z" style="fill:#dedede;fill-opacity:0.47;"/><path d="M116.537,112.376l-0.212,-0.16l-0.423,0.244l-0.212,0.405l0,2.489l0.212,0.16l0.423,-0.244l0.212,-0.404l-0,-2.49Z" style="fill:#dedede;fill-opacity:0.47;"/><path d="M119.067,113.406l0.212,0.16l0.423,-0.245l0.212,-0.404l-0,-2.49l-0.212,-0.16l-0.423,0.245l-0.212,0.404l0,2.49Z" style="fill:#dedede;fill-opacity:0.47;"/><path d="M116.724,114.921l-0.244,0.386l-0,0.489l0.244,0.103l2.156,-1.245l0.245,-0.385l-0,-0.489l-0.245,-0.104l-2.156,1.245Z" style="fill:#dedede;fill-opacity:0.47;"/><path d="M118.88,106.976l0.245,-0.386l-0,-0.488l-0.245,-0.104l-2.156,1.245l-0.244,0.386l-0,0.488l0.244,0.104l2.156,-1.245Z" style="fill:#25bcb4;"/><path d="M119.067,109.584l0.212,0.16l0.423,-0.245l0.212,-0.404l-0,-2.49l-0.212,-0.16l-0.423,0.245l-0.212,0.404l0,2.49Z" style="fill:#25bcb4;"/><path d="M116.724,111.099l-0.244,0.386l-0,0.488l0.244,0.104l2.156,-1.245l0.245,-0.386l-0,-0.488l-0.245,-0.104l-2.156,1.245Z" style="fill:#25bcb4;"/><path d="M116.537,112.376l-0.212,-0.16l-0.423,0.244l-0.212,0.405l0,2.489l0.212,0.16l0.423,-0.244l0.212,-0.404l-0,-2.49Z" style="fill:#25bcb4;"/><path d="M119.067,113.406l0.212,0.16l0.423,-0.245l0.212,-0.404l-0,-2.49l-0.212,-0.16l-0.423,0.245l-0.212,0.404l0,2.49Z" style="fill:#25bcb4;"/><path d="M116.724,114.921l-0.244,0.386l-0,0.489l0.244,0.103l2.156,-1.245l0.245,-0.385l-0,-0.489l-0.245,-0.104l-2.156,1.245Z" style="fill:#25bcb4;"/><path d="M122.27,105.244l-0.212,-0.16l-0.423,0.244l-0.211,0.404l-0,2.49l0.211,0.16l0.423,-0.244l0.212,-0.405l0,-2.489Z" style="fill:#dedede;fill-opacity:0.47;"/><path d="M124.613,103.666l0.245,-0.386l-0,-0.488l-0.245,-0.104l-2.156,1.245l-0.244,0.386l-0,0.488l0.244,0.104l2.156,-1.245Z" style="fill:#dedede;fill-opacity:0.47;"/><path d="M124.801,106.274l0.211,0.16l0.423,-0.245l0.212,-0.404l0,-2.49l-0.212,-0.16l-0.423,0.244l-0.211,0.405l-0,2.49Z" style="fill:#dedede;fill-opacity:0.47;"/><path d="M122.457,107.789l-0.244,0.386l-0,0.488l0.244,0.104l2.156,-1.245l0.245,-0.386l-0,-0.488l-0.245,-0.104l-2.156,1.245Z" style="fill:#dedede;fill-opacity:0.47;"/><path d="M122.27,109.066l-0.212,-0.16l-0.423,0.244l-0.211,0.405l-0,2.489l0.211,0.16l0.423,-0.244l0.212,-0.405l0,-2.489Z" style="fill:#dedede;fill-opacity:0.47;"/><path d="M124.801,110.096l0.211,0.16l0.423,-0.245l0.212,-0.404l0,-2.49l-0.212,-0.16l-0.423,0.245l-0.211,0.404l-0,2.49Z" style="fill:#dedede;fill-opacity:0.47;"/><path d="M122.457,111.611l-0.244,0.386l-0,0.488l0.244,0.104l2.156,-1.245l0.245,-0.386l-0,-0.488l-0.245,-0.104l-2.156,1.245Z" style="fill:#dedede;fill-opacity:0.47;"/><path d="M124.801,106.274l0.211,0.16l0.423,-0.245l0.212,-0.404l0,-2.49l-0.212,-0.16l-0.423,0.244l-0.211,0.405l-0,2.49Z" style="fill:#25bcb4;"/><path d="M124.801,110.096l0.211,0.16l0.423,-0.245l0.212,-0.404l0,-2.49l-0.212,-0.16l-0.423,0.245l-0.211,0.404l-0,2.49Z" style="fill:#25bcb4;"/><path d="M128.647,101.562l-0.212,-0.16l-0.423,0.244l-0.212,0.405l0,2.489l0.212,0.16l0.423,-0.244l0.212,-0.404l-0,-2.49Z" style="fill:#dedede;fill-opacity:0.47;"/><path d="M130.99,99.984l0.245,-0.385l-0,-0.489l-0.245,-0.103l-2.156,1.244l-0.244,0.386l-0,0.489l0.244,0.103l2.156,-1.245Z" style="fill:#dedede;fill-opacity:0.47;"/><path d="M131.177,102.592l0.212,0.16l0.423,-0.245l0.212,-0.404l-0,-2.49l-0.212,-0.16l-0.423,0.245l-0.212,0.404l0,2.49Z" style="fill:#dedede;fill-opacity:0.47;"/><path d="M128.834,104.107l-0.244,0.386l-0,0.489l0.244,0.103l2.156,-1.245l0.245,-0.385l-0,-0.489l-0.245,-0.103l-2.156,1.244Z" style="fill:#dedede;fill-opacity:0.47;"/><path d="M128.647,105.384l-0.212,-0.16l-0.423,0.244l-0.212,0.405l0,2.49l0.212,0.16l0.423,-0.245l0.212,-0.404l-0,-2.49Z" style="fill:#dedede;fill-opacity:0.47;"/><path d="M131.177,106.414l0.212,0.16l0.423,-0.244l0.212,-0.405l-0,-2.489l-0.212,-0.16l-0.423,0.244l-0.212,0.404l0,2.49Z" style="fill:#dedede;fill-opacity:0.47;"/><path d="M128.834,107.93l-0.244,0.385l-0,0.489l0.244,0.103l2.156,-1.245l0.245,-0.385l-0,-0.489l-0.245,-0.103l-2.156,1.245Z" style="fill:#dedede;fill-opacity:0.47;"/><path d="M130.99,99.984l0.245,-0.385l-0,-0.489l-0.245,-0.103l-2.156,1.244l-0.244,0.386l-0,0.489l0.244,0.103l2.156,-1.245Z" style="fill:#25bcb4;"/><path d="M131.177,102.592l0.212,0.16l0.423,-0.245l0.212,-0.404l-0,-2.49l-0.212,-0.16l-0.423,0.245l-0.212,0.404l0,2.49Z" style="fill:#25bcb4;"/><path d="M128.834,104.107l-0.244,0.386l-0,0.489l0.244,0.103l2.156,-1.245l0.245,-0.385l-0,-0.489l-0.245,-0.103l-2.156,1.244Z" style="fill:#25bcb4;"/><path d="M128.647,105.384l-0.212,-0.16l-0.423,0.244l-0.212,0.405l0,2.49l0.212,0.16l0.423,-0.245l0.212,-0.404l-0,-2.49Z" style="fill:#25bcb4;"/><path d="M128.834,107.93l-0.244,0.385l-0,0.489l0.244,0.103l2.156,-1.245l0.245,-0.385l-0,-0.489l-0.245,-0.103l-2.156,1.245Z" style="fill:#25bcb4;"/><path d="M134.38,98.252l-0.211,-0.16l-0.424,0.244l-0.211,0.405l-0,2.489l0.211,0.16l0.424,-0.244l0.211,-0.405l0,-2.489Z" style="fill:#dedede;fill-opacity:0.47;"/><path d="M136.723,96.674l0.245,-0.385l-0,-0.489l-0.245,-0.104l-2.156,1.245l-0.244,0.386l-0,0.489l0.244,0.103l2.156,-1.245Z" style="fill:#dedede;fill-opacity:0.47;"/><path d="M136.911,99.282l0.211,0.16l0.424,-0.245l0.211,-0.404l0,-2.49l-0.211,-0.16l-0.424,0.245l-0.211,0.404l-0,2.49Z" style="fill:#dedede;fill-opacity:0.47;"/><path d="M134.567,100.797l-0.244,0.386l-0,0.489l0.244,0.103l2.156,-1.245l0.245,-0.385l-0,-0.489l-0.245,-0.104l-2.156,1.245Z" style="fill:#dedede;fill-opacity:0.47;"/><path d="M134.38,102.074l-0.211,-0.16l-0.424,0.244l-0.211,0.405l-0,2.489l0.211,0.16l0.424,-0.244l0.211,-0.404l0,-2.49Z" style="fill:#dedede;fill-opacity:0.47;"/><path d="M136.911,103.104l0.211,0.16l0.424,-0.244l0.211,-0.405l0,-2.49l-0.211,-0.16l-0.424,0.245l-0.211,0.404l-0,2.49Z" style="fill:#dedede;fill-opacity:0.47;"/><path d="M134.567,104.619l-0.244,0.386l-0,0.489l0.244,0.103l2.156,-1.245l0.245,-0.385l-0,-0.489l-0.245,-0.103l-2.156,1.244Z" style="fill:#dedede;fill-opacity:0.47;"/><path d="M136.911,99.282l0.211,0.16l0.424,-0.245l0.211,-0.404l0,-2.49l-0.211,-0.16l-0.424,0.245l-0.211,0.404l-0,2.49Z" style="fill:#25bcb4;"/><path d="M136.911,103.104l0.211,0.16l0.424,-0.244l0.211,-0.405l0,-2.49l-0.211,-0.16l-0.424,0.245l-0.211,0.404l-0,2.49Z" style="fill:#25bcb4;"/><path d="M139.587,106.831c0,-0 -0.267,0.07 -0.424,0.161l-23.989,13.849c-0.801,0.463 -1.452,1.706 -1.452,2.775l0,12.868c0,0.295 0.05,0.546 0.138,0.745c0.135,-0.023 0.277,-0.075 0.425,-0.161l23.988,-13.849c0.802,-0.463 1.452,-1.706 1.452,-2.775l0,-12.868c0,-0.295 -0.049,-0.546 -0.138,-0.745Z" style="fill:#001a35;"/><path d="M139.587,106.831c0.089,0.199 0.138,0.45 0.138,0.745l0,12.868c0,1.069 -0.65,2.312 -1.452,2.775l-23.988,13.849c-0.148,0.086 -0.29,0.138 -0.425,0.161c0.233,0.522 0.734,0.688 1.314,0.353l23.989,-13.85c0.801,-0.463 1.451,-1.706 1.451,-2.774l0,-12.869c0,-0.871 -0.432,-1.359 -1.027,-1.258Z" style="fill:#1a1a1a;fill-opacity:0.11;"/><path d="M140.614,120.958l-0.889,-0.514c0,1.069 -0.65,2.312 -1.452,2.775l-23.988,13.849c-0.148,0.086 -0.29,0.138 -0.425,0.161c0.233,0.522 0.734,0.688 1.314,0.353l23.989,-13.85c0.801,-0.463 1.451,-1.706 1.451,-2.774Z" style="fill:#1a1a1a;fill-opacity:0.11;"/><path d="M139.163,123.732l-0.89,-0.513l-23.988,13.849c-0.148,0.086 -0.29,0.138 -0.425,0.161c0.233,0.522 0.734,0.688 1.314,0.353l23.989,-13.85Z" style="fill:#1a1a1a;fill-opacity:0.11;"/><path d="M116.537,125.294l-0.212,-0.16l-0.423,0.244l-0.212,0.405l0,2.489l0.212,0.16l0.423,-0.244l0.212,-0.404l-0,-2.49Z" style="fill:#dedede;fill-opacity:0.47;"/><path d="M118.88,123.716l0.245,-0.385l-0,-0.489l-0.245,-0.104l-2.156,1.245l-0.244,0.386l-0,0.489l0.244,0.103l2.156,-1.245Z" style="fill:#dedede;fill-opacity:0.47;"/><path d="M119.067,126.324l0.212,0.16l0.423,-0.245l0.212,-0.404l-0,-2.49l-0.212,-0.16l-0.423,0.245l-0.212,0.404l0,2.49Z" style="fill:#dedede;fill-opacity:0.47;"/><path d="M116.724,127.839l-0.244,0.386l-0,0.489l0.244,0.103l2.156,-1.245l0.245,-0.385l-0,-0.489l-0.245,-0.104l-2.156,1.245Z" style="fill:#dedede;fill-opacity:0.47;"/><path d="M116.537,129.116l-0.212,-0.16l-0.423,0.244l-0.212,0.405l0,2.489l0.212,0.16l0.423,-0.244l0.212,-0.404l-0,-2.49Z" style="fill:#dedede;fill-opacity:0.47;"/><path d="M119.067,130.146l0.212,0.16l0.423,-0.244l0.212,-0.405l-0,-2.49l-0.212,-0.16l-0.423,0.245l-0.212,0.404l0,2.49Z" style="fill:#dedede;fill-opacity:0.47;"/><path d="M116.724,131.661l-0.244,0.386l-0,0.489l0.244,0.103l2.156,-1.245l0.245,-0.385l-0,-0.489l-0.245,-0.103l-2.156,1.244Z" style="fill:#dedede;fill-opacity:0.47;"/><path d="M118.88,123.716l0.245,-0.385l-0,-0.489l-0.245,-0.104l-2.156,1.245l-0.244,0.386l-0,0.489l0.244,0.103l2.156,-1.245Z" style="fill:#25bcb4;"/><path d="M119.067,126.324l0.212,0.16l0.423,-0.245l0.212,-0.404l-0,-2.49l-0.212,-0.16l-0.423,0.245l-0.212,0.404l0,2.49Z" style="fill:#25bcb4;"/><path d="M116.724,127.839l-0.244,0.386l-0,0.489l0.244,0.103l2.156,-1.245l0.245,-0.385l-0,-0.489l-0.245,-0.104l-2.156,1.245Z" style="fill:#25bcb4;"/><path d="M116.537,129.116l-0.212,-0.16l-0.423,0.244l-0.212,0.405l0,2.489l0.212,0.16l0.423,-0.244l0.212,-0.404l-0,-2.49Z" style="fill:#25bcb4;"/><path d="M119.067,130.146l0.212,0.16l0.423,-0.244l0.212,-0.405l-0,-2.49l-0.212,-0.16l-0.423,0.245l-0.212,0.404l0,2.49Z" style="fill:#25bcb4;"/><path d="M116.724,131.661l-0.244,0.386l-0,0.489l0.244,0.103l2.156,-1.245l0.245,-0.385l-0,-0.489l-0.245,-0.103l-2.156,1.244Z" style="fill:#25bcb4;"/><path d="M122.27,121.984l-0.212,-0.16l-0.423,0.244l-0.211,0.405l-0,2.489l0.211,0.16l0.423,-0.244l0.212,-0.405l0,-2.489Z" style="fill:#dedede;fill-opacity:0.47;"/><path d="M124.613,120.406l0.245,-0.386l-0,-0.488l-0.245,-0.104l-2.156,1.245l-0.244,0.386l-0,0.489l0.244,0.103l2.156,-1.245Z" style="fill:#dedede;fill-opacity:0.47;"/><path d="M124.801,123.014l0.211,0.16l0.423,-0.245l0.212,-0.404l0,-2.49l-0.212,-0.16l-0.423,0.245l-0.211,0.404l-0,2.49Z" style="fill:#dedede;fill-opacity:0.47;"/><path d="M122.457,124.529l-0.244,0.386l-0,0.488l0.244,0.104l2.156,-1.245l0.245,-0.386l-0,-0.488l-0.245,-0.104l-2.156,1.245Z" style="fill:#dedede;fill-opacity:0.47;"/><path d="M122.27,125.806l-0.212,-0.16l-0.423,0.244l-0.211,0.405l-0,2.489l0.211,0.16l0.423,-0.244l0.212,-0.404l0,-2.49Z" style="fill:#dedede;fill-opacity:0.47;"/><path d="M124.801,126.836l0.211,0.16l0.423,-0.245l0.212,-0.404l0,-2.49l-0.212,-0.16l-0.423,0.245l-0.211,0.404l-0,2.49Z" style="fill:#dedede;fill-opacity:0.47;"/><path d="M122.457,128.351l-0.244,0.386l-0,0.489l0.244,0.103l2.156,-1.245l0.245,-0.385l-0,-0.489l-0.245,-0.103l-2.156,1.244Z" style="fill:#dedede;fill-opacity:0.47;"/><path d="M124.801,123.014l0.211,0.16l0.423,-0.245l0.212,-0.404l0,-2.49l-0.212,-0.16l-0.423,0.245l-0.211,0.404l-0,2.49Z" style="fill:#25bcb4;"/><path d="M124.801,126.836l0.211,0.16l0.423,-0.245l0.212,-0.404l0,-2.49l-0.212,-0.16l-0.423,0.245l-0.211,0.404l-0,2.49Z" style="fill:#25bcb4;"/><path d="M128.647,118.302l-0.212,-0.16l-0.423,0.244l-0.212,0.405l0,2.49l0.212,0.16l0.423,-0.245l0.212,-0.404l-0,-2.49Z" style="fill:#dedede;fill-opacity:0.47;"/><path d="M130.99,116.724l0.245,-0.385l-0,-0.489l-0.245,-0.103l-2.156,1.245l-0.244,0.385l-0,0.489l0.244,0.103l2.156,-1.245Z" style="fill:#dedede;fill-opacity:0.47;"/><path d="M131.177,119.332l0.212,0.16l0.423,-0.244l0.212,-0.405l-0,-2.489l-0.212,-0.16l-0.423,0.244l-0.212,0.404l0,2.49Z" style="fill:#dedede;fill-opacity:0.47;"/><path d="M128.834,120.848l-0.244,0.385l-0,0.489l0.244,0.103l2.156,-1.245l0.245,-0.385l-0,-0.489l-0.245,-0.103l-2.156,1.245Z" style="fill:#dedede;fill-opacity:0.47;"/><path d="M128.647,122.124l-0.212,-0.16l-0.423,0.245l-0.212,0.404l0,2.49l0.212,0.16l0.423,-0.245l0.212,-0.404l-0,-2.49Z" style="fill:#dedede;fill-opacity:0.47;"/><path d="M131.177,123.154l0.212,0.16l0.423,-0.244l0.212,-0.405l-0,-2.489l-0.212,-0.16l-0.423,0.244l-0.212,0.404l0,2.49Z" style="fill:#dedede;fill-opacity:0.47;"/><path d="M128.834,124.67l-0.244,0.385l-0,0.489l0.244,0.103l2.156,-1.245l0.245,-0.385l-0,-0.489l-0.245,-0.103l-2.156,1.245Z" style="fill:#dedede;fill-opacity:0.47;"/><path d="M130.99,116.724l0.245,-0.385l-0,-0.489l-0.245,-0.103l-2.156,1.245l-0.244,0.385l-0,0.489l0.244,0.103l2.156,-1.245Z" style="fill:#25bcb4;"/><path d="M131.177,119.332l0.212,0.16l0.423,-0.244l0.212,-0.405l-0,-2.489l-0.212,-0.16l-0.423,0.244l-0.212,0.404l0,2.49Z" style="fill:#25bcb4;"/><path d="M128.834,120.848l-0.244,0.385l-0,0.489l0.244,0.103l2.156,-1.245l0.245,-0.385l-0,-0.489l-0.245,-0.103l-2.156,1.245Z" style="fill:#25bcb4;"/><path d="M128.647,122.124l-0.212,-0.16l-0.423,0.245l-0.212,0.404l0,2.49l0.212,0.16l0.423,-0.245l0.212,-0.404l-0,-2.49Z" style="fill:#25bcb4;"/><path d="M128.834,124.67l-0.244,0.385l-0,0.489l0.244,0.103l2.156,-1.245l0.245,-0.385l-0,-0.489l-0.245,-0.103l-2.156,1.245Z" style="fill:#25bcb4;"/><path d="M134.38,114.992l-0.211,-0.16l-0.424,0.244l-0.211,0.405l-0,2.489l0.211,0.16l0.424,-0.244l0.211,-0.404l0,-2.49Z" style="fill:#dedede;fill-opacity:0.47;"/><path d="M136.723,113.414l0.245,-0.385l-0,-0.489l-0.245,-0.103l-2.156,1.244l-0.244,0.386l-0,0.489l0.244,0.103l2.156,-1.245Z" style="fill:#dedede;fill-opacity:0.47;"/><path d="M136.911,116.022l0.211,0.16l0.424,-0.244l0.211,-0.405l0,-2.49l-0.211,-0.16l-0.424,0.245l-0.211,0.404l-0,2.49Z" style="fill:#dedede;fill-opacity:0.47;"/><path d="M134.567,117.537l-0.244,0.386l-0,0.489l0.244,0.103l2.156,-1.245l0.245,-0.385l-0,-0.489l-0.245,-0.103l-2.156,1.244Z" style="fill:#dedede;fill-opacity:0.47;"/><path d="M134.38,118.814l-0.211,-0.16l-0.424,0.245l-0.211,0.404l-0,2.49l0.211,0.16l0.424,-0.245l0.211,-0.404l0,-2.49Z" style="fill:#dedede;fill-opacity:0.47;"/><path d="M136.911,119.844l0.211,0.16l0.424,-0.244l0.211,-0.405l0,-2.489l-0.211,-0.16l-0.424,0.244l-0.211,0.404l-0,2.49Z" style="fill:#dedede;fill-opacity:0.47;"/><path d="M134.567,121.36l-0.244,0.385l-0,0.489l0.244,0.103l2.156,-1.245l0.245,-0.385l-0,-0.489l-0.245,-0.103l-2.156,1.245Z" style="fill:#dedede;fill-opacity:0.47;"/><path d="M136.911,116.022l0.211,0.16l0.424,-0.244l0.211,-0.405l0,-2.49l-0.211,-0.16l-0.424,0.245l-0.211,0.404l-0,2.49Z" style="fill:#25bcb4;"/><path d="M136.911,119.844l0.211,0.16l0.424,-0.244l0.211,-0.405l0,-2.489l-0.211,-0.16l-0.424,0.244l-0.211,0.404l-0,2.49Z" style="fill:#25bcb4;"/><path d="M139.587,123.571c0,0 -0.267,0.07 -0.424,0.161l-23.989,13.85c-0.801,0.462 -1.452,1.705 -1.452,2.774l0,12.868c0,0.295 0.05,0.546 0.138,0.745c0.135,-0.022 0.277,-0.075 0.425,-0.161l23.988,-13.849c0.802,-0.463 1.452,-1.706 1.452,-2.775l0,-12.868c0,-0.295 -0.049,-0.546 -0.138,-0.745Z" style="fill:#001a35;"/><path d="M139.587,123.571c0.089,0.199 0.138,0.45 0.138,0.745l0,12.868c0,1.069 -0.65,2.312 -1.452,2.775l-23.988,13.849c-0.148,0.086 -0.29,0.139 -0.425,0.161c0.233,0.522 0.734,0.688 1.314,0.353l23.989,-13.85c0.801,-0.463 1.451,-1.706 1.451,-2.774l0,-12.869c0,-0.871 -0.432,-1.359 -1.027,-1.258Z" style="fill:#1a1a1a;fill-opacity:0.11;"/><path d="M140.614,137.698l-0.889,-0.514c0,1.069 -0.65,2.312 -1.452,2.775l-23.988,13.849c-0.148,0.086 -0.29,0.139 -0.425,0.161c0.233,0.522 0.734,0.688 1.314,0.353l23.989,-13.85c0.801,-0.463 1.451,-1.706 1.451,-2.774Z" style="fill:#1a1a1a;fill-opacity:0.11;"/><path d="M139.163,140.472l-0.89,-0.513l-23.988,13.849c-0.148,0.086 -0.29,0.139 -0.425,0.161c0.233,0.522 0.734,0.688 1.314,0.353l23.989,-13.85Z" style="fill:#1a1a1a;fill-opacity:0.11;"/><path d="M116.537,142.034l-0.212,-0.16l-0.423,0.244l-0.212,0.405l0,2.489l0.212,0.16l0.423,-0.244l0.212,-0.404l-0,-2.49Z" style="fill:#dedede;fill-opacity:0.47;"/><path d="M118.88,140.456l0.245,-0.385l-0,-0.489l-0.245,-0.103l-2.156,1.244l-0.244,0.386l-0,0.489l0.244,0.103l2.156,-1.245Z" style="fill:#dedede;fill-opacity:0.47;"/><path d="M119.067,143.064l0.212,0.16l0.423,-0.244l0.212,-0.405l-0,-2.49l-0.212,-0.16l-0.423,0.245l-0.212,0.404l0,2.49Z" style="fill:#dedede;fill-opacity:0.47;"/><path d="M116.724,144.579l-0.244,0.386l-0,0.489l0.244,0.103l2.156,-1.245l0.245,-0.385l-0,-0.489l-0.245,-0.103l-2.156,1.244Z" style="fill:#dedede;fill-opacity:0.47;"/><path d="M116.537,145.856l-0.212,-0.16l-0.423,0.245l-0.212,0.404l0,2.49l0.212,0.16l0.423,-0.245l0.212,-0.404l-0,-2.49Z" style="fill:#dedede;fill-opacity:0.47;"/><path d="M119.067,146.886l0.212,0.16l0.423,-0.244l0.212,-0.405l-0,-2.489l-0.212,-0.16l-0.423,0.244l-0.212,0.404l0,2.49Z" style="fill:#dedede;fill-opacity:0.47;"/><path d="M116.724,148.402l-0.244,0.385l-0,0.489l0.244,0.103l2.156,-1.245l0.245,-0.385l-0,-0.489l-0.245,-0.103l-2.156,1.245Z" style="fill:#dedede;fill-opacity:0.47;"/><path d="M118.88,140.456l0.245,-0.385l-0,-0.489l-0.245,-0.103l-2.156,1.244l-0.244,0.386l-0,0.489l0.244,0.103l2.156,-1.245Z" style="fill:#25bcb4;"/><path d="M119.067,143.064l0.212,0.16l0.423,-0.244l0.212,-0.405l-0,-2.49l-0.212,-0.16l-0.423,0.245l-0.212,0.404l0,2.49Z" style="fill:#25bcb4;"/><path d="M116.724,144.579l-0.244,0.386l-0,0.489l0.244,0.103l2.156,-1.245l0.245,-0.385l-0,-0.489l-0.245,-0.103l-2.156,1.244Z" style="fill:#25bcb4;"/><path d="M116.537,145.856l-0.212,-0.16l-0.423,0.245l-0.212,0.404l0,2.49l0.212,0.16l0.423,-0.245l0.212,-0.404l-0,-2.49Z" style="fill:#25bcb4;"/><path d="M119.067,146.886l0.212,0.16l0.423,-0.244l0.212,-0.405l-0,-2.489l-0.212,-0.16l-0.423,0.244l-0.212,0.404l0,2.49Z" style="fill:#25bcb4;"/><path d="M116.724,148.402l-0.244,0.385l-0,0.489l0.244,0.103l2.156,-1.245l0.245,-0.385l-0,-0.489l-0.245,-0.103l-2.156,1.245Z" style="fill:#25bcb4;"/><path d="M122.27,138.724l-0.212,-0.16l-0.423,0.244l-0.211,0.405l-0,2.489l0.211,0.16l0.423,-0.244l0.212,-0.404l0,-2.49Z" style="fill:#dedede;fill-opacity:0.47;"/><path d="M124.613,137.146l0.245,-0.385l-0,-0.489l-0.245,-0.103l-2.156,1.244l-0.244,0.386l-0,0.489l0.244,0.103l2.156,-1.245Z" style="fill:#dedede;fill-opacity:0.47;"/><path d="M124.801,139.754l0.211,0.16l0.423,-0.245l0.212,-0.404l0,-2.49l-0.212,-0.16l-0.423,0.245l-0.211,0.404l-0,2.49Z" style="fill:#dedede;fill-opacity:0.47;"/><path d="M122.457,141.269l-0.244,0.386l-0,0.489l0.244,0.103l2.156,-1.245l0.245,-0.385l-0,-0.489l-0.245,-0.103l-2.156,1.244Z" style="fill:#dedede;fill-opacity:0.47;"/><path d="M122.27,142.546l-0.212,-0.16l-0.423,0.244l-0.211,0.405l-0,2.49l0.211,0.16l0.423,-0.245l0.212,-0.404l0,-2.49Z" style="fill:#dedede;fill-opacity:0.47;"/><path d="M124.801,143.576l0.211,0.16l0.423,-0.244l0.212,-0.405l0,-2.489l-0.212,-0.16l-0.423,0.244l-0.211,0.404l-0,2.49Z" style="fill:#dedede;fill-opacity:0.47;"/><path d="M122.457,145.092l-0.244,0.385l-0,0.489l0.244,0.103l2.156,-1.245l0.245,-0.385l-0,-0.489l-0.245,-0.103l-2.156,1.245Z" style="fill:#dedede;fill-opacity:0.47;"/><path d="M124.801,139.754l0.211,0.16l0.423,-0.245l0.212,-0.404l0,-2.49l-0.212,-0.16l-0.423,0.245l-0.211,0.404l-0,2.49Z" style="fill:#25bcb4;"/><path d="M124.801,143.576l0.211,0.16l0.423,-0.244l0.212,-0.405l0,-2.489l-0.212,-0.16l-0.423,0.244l-0.211,0.404l-0,2.49Z" style="fill:#25bcb4;"/><path d="M128.647,135.042l-0.212,-0.16l-0.423,0.245l-0.212,0.404l0,2.49l0.212,0.16l0.423,-0.245l0.212,-0.404l-0,-2.49Z" style="fill:#dedede;fill-opacity:0.47;"/><path d="M130.99,133.464l0.245,-0.385l-0,-0.489l-0.245,-0.103l-2.156,1.245l-0.244,0.385l-0,0.489l0.244,0.103l2.156,-1.245Z" style="fill:#dedede;fill-opacity:0.47;"/><path d="M131.177,136.072l0.212,0.16l0.423,-0.244l0.212,-0.405l-0,-2.489l-0.212,-0.16l-0.423,0.244l-0.212,0.404l0,2.49Z" style="fill:#dedede;fill-opacity:0.47;"/><path d="M128.834,137.588l-0.244,0.385l-0,0.489l0.244,0.103l2.156,-1.245l0.245,-0.385l-0,-0.489l-0.245,-0.103l-2.156,1.245Z" style="fill:#dedede;fill-opacity:0.47;"/><path d="M128.647,138.864l-0.212,-0.16l-0.423,0.245l-0.212,0.404l0,2.49l0.212,0.16l0.423,-0.245l0.212,-0.404l-0,-2.49Z" style="fill:#dedede;fill-opacity:0.47;"/><path d="M131.177,139.894l0.212,0.16l0.423,-0.244l0.212,-0.404l-0,-2.49l-0.212,-0.16l-0.423,0.244l-0.212,0.405l0,2.489Z" style="fill:#dedede;fill-opacity:0.47;"/><path d="M128.834,141.41l-0.244,0.385l-0,0.489l0.244,0.103l2.156,-1.244l0.245,-0.386l-0,-0.489l-0.245,-0.103l-2.156,1.245Z" style="fill:#dedede;fill-opacity:0.47;"/><path d="M130.99,133.464l0.245,-0.385l-0,-0.489l-0.245,-0.103l-2.156,1.245l-0.244,0.385l-0,0.489l0.244,0.103l2.156,-1.245Z" style="fill:#25bcb4;"/><path d="M131.177,136.072l0.212,0.16l0.423,-0.244l0.212,-0.405l-0,-2.489l-0.212,-0.16l-0.423,0.244l-0.212,0.404l0,2.49Z" style="fill:#25bcb4;"/><path d="M128.834,137.588l-0.244,0.385l-0,0.489l0.244,0.103l2.156,-1.245l0.245,-0.385l-0,-0.489l-0.245,-0.103l-2.156,1.245Z" style="fill:#25bcb4;"/><path d="M128.647,138.864l-0.212,-0.16l-0.423,0.245l-0.212,0.404l0,2.49l0.212,0.16l0.423,-0.245l0.212,-0.404l-0,-2.49Z" style="fill:#25bcb4;"/><path d="M128.834,141.41l-0.244,0.385l-0,0.489l0.244,0.103l2.156,-1.244l0.245,-0.386l-0,-0.489l-0.245,-0.103l-2.156,1.245Z" style="fill:#25bcb4;"/><path d="M134.38,131.732l-0.211,-0.16l-0.424,0.245l-0.211,0.404l-0,2.49l0.211,0.16l0.424,-0.245l0.211,-0.404l0,-2.49Z" style="fill:#dedede;fill-opacity:0.47;"/><path d="M136.723,130.154l0.245,-0.385l-0,-0.489l-0.245,-0.103l-2.156,1.245l-0.244,0.385l-0,0.489l0.244,0.103l2.156,-1.245Z" style="fill:#dedede;fill-opacity:0.47;"/><path d="M136.911,132.762l0.211,0.16l0.424,-0.244l0.211,-0.405l0,-2.489l-0.211,-0.16l-0.424,0.244l-0.211,0.404l-0,2.49Z" style="fill:#dedede;fill-opacity:0.47;"/><path d="M134.567,134.278l-0.244,0.385l-0,0.489l0.244,0.103l2.156,-1.245l0.245,-0.385l-0,-0.489l-0.245,-0.103l-2.156,1.245Z" style="fill:#dedede;fill-opacity:0.47;"/><path d="M134.38,135.554l-0.211,-0.16l-0.424,0.245l-0.211,0.404l-0,2.49l0.211,0.16l0.424,-0.245l0.211,-0.404l0,-2.49Z" style="fill:#dedede;fill-opacity:0.47;"/><path d="M136.911,136.584l0.211,0.16l0.424,-0.244l0.211,-0.405l0,-2.489l-0.211,-0.16l-0.424,0.244l-0.211,0.405l-0,2.489Z" style="fill:#dedede;fill-opacity:0.47;"/><path d="M134.567,138.1l-0.244,0.385l-0,0.489l0.244,0.103l2.156,-1.244l0.245,-0.386l-0,-0.489l-0.245,-0.103l-2.156,1.245Z" style="fill:#dedede;fill-opacity:0.47;"/><path d="M136.911,132.762l0.211,0.16l0.424,-0.244l0.211,-0.405l0,-2.489l-0.211,-0.16l-0.424,0.244l-0.211,0.404l-0,2.49Z" style="fill:#25bcb4;"/><path d="M136.911,136.584l0.211,0.16l0.424,-0.244l0.211,-0.405l0,-2.489l-0.211,-0.16l-0.424,0.244l-0.211,0.405l-0,2.489Z" style="fill:#25bcb4;"/><path d="M95.077,108.3c-0.045,0.033 -1.65,1.269 -1.936,1.434c-0.237,0.136 -0.545,0.123 -0.882,-0.072l-36.317,-20.967c-0.744,-0.43 -1.348,-1.584 -1.348,-2.576l0,-10.59c0,-0.48 0.142,-0.835 0.373,-1.025c0.245,-0.201 1.642,-1.219 1.886,-1.403c0.244,-0.185 0.581,-0.192 0.953,0.023l36.317,20.968c0.744,0.43 1.348,1.584 1.348,2.576l0,10.589c0,0.496 -0.151,0.858 -0.394,1.043Z" style="fill:#1d354b;"/><path d="M74.994,88.87c0,-0.096 0.059,-0.141 0.132,-0.099l14.889,8.596c0.073,0.042 0.132,0.155 0.132,0.252l-0,1.034c-0,0.097 -0.059,0.141 -0.132,0.099l-14.889,-8.596c-0.073,-0.042 -0.132,-0.155 -0.132,-0.251l0,-1.035Z" style="fill:#001a35;"/><path d="M74.994,92.448c0,-0.097 0.059,-0.142 0.132,-0.1l14.889,8.597c0.073,0.041 0.132,0.154 0.132,0.251l-0,1.034c-0,0.097 -0.059,0.142 -0.132,0.1l-14.889,-8.597c-0.073,-0.042 -0.132,-0.154 -0.132,-0.251l0,-1.034Z" style="fill:#001a35;"/><path d="M74.994,96.025c0,-0.097 0.059,-0.141 0.132,-0.099l14.889,8.596c0.073,0.042 0.132,0.155 0.132,0.251l-0,1.034c-0,0.097 -0.059,0.142 -0.132,0.1l-14.889,-8.596c-0.073,-0.042 -0.132,-0.155 -0.132,-0.252l0,-1.034Z" style="fill:#001a35;"/><path d="M58.055,79.091c0,-0.097 0.059,-0.142 0.132,-0.1l14.889,8.597c0.073,0.042 0.132,0.154 0.132,0.251l-0,1.034c-0,0.097 -0.059,0.142 -0.132,0.1l-14.889,-8.597c-0.073,-0.041 -0.132,-0.154 -0.132,-0.251l0,-1.034Z" style="fill:#001a35;"/><path d="M58.055,82.668c0,-0.097 0.059,-0.141 0.132,-0.099l14.889,8.596c0.073,0.042 0.132,0.155 0.132,0.251l-0,1.035c-0,0.096 -0.059,0.141 -0.132,0.099l-14.889,-8.596c-0.073,-0.042 -0.132,-0.155 -0.132,-0.252l0,-1.034Z" style="fill:#001a35;"/><path d="M58.055,86.245c0,-0.096 0.059,-0.141 0.132,-0.099l14.889,8.596c0.073,0.042 0.132,0.155 0.132,0.252l-0,1.034c-0,0.097 -0.059,0.141 -0.132,0.099l-14.889,-8.596c-0.073,-0.042 -0.132,-0.155 -0.132,-0.251l0,-1.035Z" style="fill:#001a35;"/><path d="M93.141,109.733l-0,0.001c-0.008,0.004 0,-0.001 0,-0.001Zm0.025,-0.015c0.271,-0.172 0.442,-0.548 0.442,-1.075l-0,-10.589c-0,-0.992 -0.604,-2.147 -1.349,-2.576l-36.317,-20.968c-0.395,-0.228 -0.75,-0.206 -0.997,0.013c0.007,-0.006 0.014,-0.013 0.022,-0.019c0.245,-0.201 1.642,-1.219 1.886,-1.403c0.244,-0.185 0.581,-0.192 0.953,0.023l36.317,20.968c0.744,0.43 1.348,1.584 1.348,2.576l0,10.589c0,0.496 -0.151,0.858 -0.394,1.043c-0.043,0.033 -1.567,1.205 -1.911,1.418Z" style="fill:#f8f8f8;fill-opacity:0.2;"/><path d="M95.471,96.668l-1.863,1.386c-0,-0.992 -0.604,-2.147 -1.349,-2.576l1.864,-1.386c0.744,0.43 1.348,1.584 1.348,2.576Z" style="fill:#f8f8f8;fill-opacity:0.2;"/><path d="M95.471,96.668l-1.863,1.386c-0,-0.992 -0.448,-1.642 -0.786,-2.069l1.87,-1.387c0.32,0.453 0.779,1.078 0.779,2.07Z" style="fill:#f8f8f8;fill-opacity:0.2;"/><path d="M74.994,88.87c0,-0.096 0.059,-0.141 0.132,-0.099l14.889,8.596c0.073,0.042 0.132,0.155 0.132,0.252l-0,1.034c-0,0.097 -0.059,0.141 -0.132,0.099l-14.889,-8.596c-0.073,-0.042 -0.132,-0.155 -0.132,-0.251l0,-1.035Z" style="fill:#001a35;"/><path d="M74.994,92.448c0,-0.097 0.059,-0.142 0.132,-0.1l14.889,8.597c0.073,0.041 0.132,0.154 0.132,0.251l-0,1.034c-0,0.097 -0.059,0.142 -0.132,0.1l-14.889,-8.597c-0.073,-0.042 -0.132,-0.154 -0.132,-0.251l0,-1.034Z" style="fill:#001a35;"/><path d="M74.994,96.025c0,-0.097 0.059,-0.141 0.132,-0.099l14.889,8.596c0.073,0.042 0.132,0.155 0.132,0.251l-0,1.034c-0,0.097 -0.059,0.142 -0.132,0.1l-14.889,-8.596c-0.073,-0.042 -0.132,-0.155 -0.132,-0.252l0,-1.034Z" style="fill:#001a35;"/><path d="M58.055,79.091c0,-0.097 0.059,-0.142 0.132,-0.1l14.889,8.597c0.073,0.042 0.132,0.154 0.132,0.251l-0,1.034c-0,0.097 -0.059,0.142 -0.132,0.1l-14.889,-8.597c-0.073,-0.041 -0.132,-0.154 -0.132,-0.251l0,-1.034Z" style="fill:#001a35;"/><path d="M58.055,82.668c0,-0.097 0.059,-0.141 0.132,-0.099l14.889,8.596c0.073,0.042 0.132,0.155 0.132,0.251l-0,1.035c-0,0.096 -0.059,0.141 -0.132,0.099l-14.889,-8.596c-0.073,-0.042 -0.132,-0.155 -0.132,-0.252l0,-1.034Z" style="fill:#001a35;"/><path d="M58.055,86.245c0,-0.096 0.059,-0.141 0.132,-0.099l14.889,8.596c0.073,0.042 0.132,0.155 0.132,0.252l-0,1.034c-0,0.097 -0.059,0.141 -0.132,0.099l-14.889,-8.596c-0.073,-0.042 -0.132,-0.155 -0.132,-0.251l0,-1.035Z" style="fill:#001a35;"/><path d="M95.077,131.593c-0.045,0.033 -1.65,1.269 -1.936,1.433c-0.237,0.136 -0.545,0.124 -0.882,-0.071l-36.317,-20.968c-0.744,-0.429 -1.348,-1.584 -1.348,-2.576l0,-10.589c0,-0.481 0.142,-0.836 0.373,-1.025c0.245,-0.202 1.642,-1.219 1.886,-1.404c0.244,-0.184 0.581,-0.191 0.953,0.024l36.317,20.967c0.744,0.43 1.348,1.584 1.348,2.577l0,10.589c0,0.496 -0.151,0.858 -0.394,1.043Z" style="fill:#1d354b;"/><path d="M74.994,112.163c0,-0.097 0.059,-0.141 0.132,-0.099l14.889,8.596c0.073,0.042 0.132,0.154 0.132,0.251l-0,1.034c-0,0.097 -0.059,0.142 -0.132,0.1l-14.889,-8.596c-0.073,-0.042 -0.132,-0.155 -0.132,-0.252l0,-1.034Z" style="fill:#001a35;"/><path d="M74.994,115.74c0,-0.096 0.059,-0.141 0.132,-0.099l14.889,8.596c0.073,0.042 0.132,0.155 0.132,0.252l-0,1.034c-0,0.097 -0.059,0.141 -0.132,0.099l-14.889,-8.596c-0.073,-0.042 -0.132,-0.155 -0.132,-0.252l0,-1.034Z" style="fill:#001a35;"/><path d="M74.994,119.318c0,-0.097 0.059,-0.142 0.132,-0.1l14.889,8.596c0.073,0.042 0.132,0.155 0.132,0.252l-0,1.034c-0,0.097 -0.059,0.142 -0.132,0.1l-14.889,-8.597c-0.073,-0.042 -0.132,-0.154 -0.132,-0.251l0,-1.034Z" style="fill:#001a35;"/><path d="M58.055,102.383c0,-0.096 0.059,-0.141 0.132,-0.099l14.889,8.596c0.073,0.042 0.132,0.155 0.132,0.252l-0,1.034c-0,0.097 -0.059,0.141 -0.132,0.099l-14.889,-8.596c-0.073,-0.042 -0.132,-0.155 -0.132,-0.251l0,-1.035Z" style="fill:#001a35;"/><path d="M58.055,105.961c0,-0.097 0.059,-0.142 0.132,-0.1l14.889,8.596c0.073,0.042 0.132,0.155 0.132,0.252l-0,1.034c-0,0.097 -0.059,0.142 -0.132,0.1l-14.889,-8.597c-0.073,-0.042 -0.132,-0.154 -0.132,-0.251l0,-1.034Z" style="fill:#001a35;"/><path d="M58.055,109.538c0,-0.097 0.059,-0.141 0.132,-0.099l14.889,8.596c0.073,0.042 0.132,0.154 0.132,0.251l-0,1.034c-0,0.097 -0.059,0.142 -0.132,0.1l-14.889,-8.596c-0.073,-0.042 -0.132,-0.155 -0.132,-0.252l0,-1.034Z" style="fill:#001a35;"/><path d="M93.141,133.026l-0,0c-0.008,0.005 0,-0 0,-0Zm0.025,-0.015c0.271,-0.172 0.442,-0.548 0.442,-1.075l-0,-10.589c-0,-0.993 -0.604,-2.147 -1.349,-2.577l-36.317,-20.967c-0.395,-0.228 -0.75,-0.207 -0.997,0.012c0.007,-0.006 0.014,-0.012 0.022,-0.018c0.245,-0.202 1.642,-1.219 1.886,-1.404c0.244,-0.184 0.581,-0.191 0.953,0.024l36.317,20.967c0.744,0.43 1.348,1.584 1.348,2.577l0,10.589c0,0.496 -0.151,0.858 -0.394,1.043c-0.043,0.032 -1.567,1.205 -1.911,1.418Z" style="fill:#f8f8f8;fill-opacity:0.2;"/><path d="M95.471,119.961l-1.863,1.386c-0,-0.993 -0.604,-2.147 -1.349,-2.577l1.864,-1.386c0.744,0.43 1.348,1.584 1.348,2.577Z" style="fill:#f8f8f8;fill-opacity:0.2;"/><path d="M95.471,119.961l-1.863,1.386c-0,-0.993 -0.448,-1.642 -0.786,-2.07l1.87,-1.387c0.32,0.453 0.779,1.078 0.779,2.071Z" style="fill:#f8f8f8;fill-opacity:0.2;"/><path d="M74.994,112.163c0,-0.097 0.059,-0.141 0.132,-0.099l14.889,8.596c0.073,0.042 0.132,0.154 0.132,0.251l-0,1.034c-0,0.097 -0.059,0.142 -0.132,0.1l-14.889,-8.596c-0.073,-0.042 -0.132,-0.155 -0.132,-0.252l0,-1.034Z" style="fill:#001a35;"/><path d="M74.994,115.74c0,-0.096 0.059,-0.141 0.132,-0.099l14.889,8.596c0.073,0.042 0.132,0.155 0.132,0.252l-0,1.034c-0,0.097 -0.059,0.141 -0.132,0.099l-14.889,-8.596c-0.073,-0.042 -0.132,-0.155 -0.132,-0.252l0,-1.034Z" style="fill:#001a35;"/><path d="M74.994,119.318c0,-0.097 0.059,-0.142 0.132,-0.1l14.889,8.596c0.073,0.042 0.132,0.155 0.132,0.252l-0,1.034c-0,0.097 -0.059,0.142 -0.132,0.1l-14.889,-8.597c-0.073,-0.042 -0.132,-0.154 -0.132,-0.251l0,-1.034Z" style="fill:#001a35;"/><path d="M58.055,102.383c0,-0.096 0.059,-0.141 0.132,-0.099l14.889,8.596c0.073,0.042 0.132,0.155 0.132,0.252l-0,1.034c-0,0.097 -0.059,0.141 -0.132,0.099l-14.889,-8.596c-0.073,-0.042 -0.132,-0.155 -0.132,-0.251l0,-1.035Z" style="fill:#001a35;"/><path d="M58.055,105.961c0,-0.097 0.059,-0.142 0.132,-0.1l14.889,8.596c0.073,0.042 0.132,0.155 0.132,0.252l-0,1.034c-0,0.097 -0.059,0.142 -0.132,0.1l-14.889,-8.597c-0.073,-0.042 -0.132,-0.154 -0.132,-0.251l0,-1.034Z" style="fill:#001a35;"/><path d="M58.055,109.538c0,-0.097 0.059,-0.141 0.132,-0.099l14.889,8.596c0.073,0.042 0.132,0.154 0.132,0.251l-0,1.034c-0,0.097 -0.059,0.142 -0.132,0.1l-14.889,-8.596c-0.073,-0.042 -0.132,-0.155 -0.132,-0.252l0,-1.034Z" style="fill:#001a35;"/></svg>