<?xml version="1.0" encoding="UTF-8" standalone="no"?><!DOCTYPE svg PUBLIC "-//W3C//DTD SVG 1.1//EN" "http://www.w3.org/Graphics/SVG/1.1/DTD/svg11.dtd"><svg width="100%" height="100%" viewBox="0 0 200 200" version="1.1" xmlns="http://www.w3.org/2000/svg" xmlns:xlink="http://www.w3.org/1999/xlink" xml:space="preserve" xmlns:serif="http://www.serif.com/" style="fill-rule:evenodd;clip-rule:evenodd;stroke-linejoin:round;stroke-miterlimit:2;"><path d="M38.97,112.281c-0,0.832 -0,30.097 -0,30.786c-0,0.832 0.607,1.709 1.792,2.393l70.172,40.514c2.167,1.251 5.451,1.387 7.327,0.304l41.503,-23.962c0.85,-0.491 1.266,-1.148 1.266,-1.837c0,-0.832 0,-30.097 0,-30.786c0,-0.831 -0.607,-1.709 -1.792,-2.393l-70.172,-40.514c-2.167,-1.251 -5.451,-1.387 -7.327,-0.303l-41.503,23.961c-0.85,0.491 -1.266,1.148 -1.266,1.837Z" style="fill:#0d273f;"/><path d="M161.03,129.693c0.001,0.689 -0.416,1.346 -1.266,1.837l-41.503,23.962c-1.876,1.083 -5.16,0.947 -7.327,-0.304l-70.172,-40.514c-1.217,-0.703 -1.825,-1.609 -1.791,-2.461c-0.001,0.023 -0.001,0.046 -0.001,0.068c-0,0.832 -0,30.097 -0,30.786c-0,0.832 0.607,1.709 1.792,2.393l70.172,40.514c2.167,1.251 5.451,1.387 7.327,0.304l41.503,-23.962c0.85,-0.491 1.266,-1.148 1.266,-1.837c0,-0.832 0,-30.097 0,-30.786l0,0Z" style="fill:#f5f5f5;fill-opacity:0.04;"/><path d="M118.261,186.278l0,-30.786c-1.876,1.083 -5.16,0.947 -7.327,-0.304l-70.172,-40.514c-1.217,-0.703 -1.825,-1.609 -1.791,-2.461c-0.001,0.023 -0.001,0.046 -0.001,0.068c-0,0.832 -0,30.097 -0,30.786c-0,0.832 0.607,1.709 1.792,2.393l70.172,40.514c2.167,1.251 5.451,1.387 7.327,0.304Z" style="fill:#f5f5f5;fill-opacity:0.04;"/><path d="M118.261,186.278l0,-30.786c-1.876,1.083 -5.16,0.947 -7.327,-0.304l0,30.786c2.167,1.251 5.451,1.387 7.327,0.304Z" style="fill:#f5f5f5;fill-opacity:0.04;"/><path d="M113.964,156.154l0,30.786c0.424,0.052 0.849,0.075 1.267,0.068l0,-30.786c-0.417,0.007 -0.843,-0.016 -1.267,-0.068Z" style="fill:#f5f5f5;fill-opacity:0.04;"/><path d="M48.435,141.359c-0.137,-0.081 -0.308,-0.082 -0.446,-0.003c-0.139,0.079 -0.224,0.227 -0.224,0.386c-0,0.291 -0,0.58 -0,0.7c-0,0.035 0.018,0.068 0.049,0.086c0.48,0.282 4.332,2.546 5.905,3.47c0.136,0.08 0.305,0.081 0.442,0.003c0.137,-0.079 0.222,-0.225 0.222,-0.383c0,-0.383 0,-0.764 0,-0.764c0,0 -4.266,-2.507 -5.948,-3.495Z" style="fill:#001b35;"/><path d="M57.958,146.955c-0.137,-0.081 -0.308,-0.082 -0.446,-0.003c-0.139,0.08 -0.224,0.227 -0.224,0.387c-0,0.291 -0,0.58 -0,0.699c-0,0.036 0.018,0.068 0.049,0.086c0.48,0.282 4.333,2.547 5.905,3.47c0.136,0.081 0.305,0.082 0.442,0.003c0.137,-0.079 0.222,-0.225 0.222,-0.383c0,-0.382 0,-0.764 0,-0.764c0,0 -4.266,-2.506 -5.948,-3.495Z" style="fill:#001b35;"/><path d="M67.481,152.551c-0.137,-0.08 -0.308,-0.081 -0.446,-0.002c-0.139,0.079 -0.224,0.226 -0.224,0.386c-0,0.291 -0,0.58 -0,0.7c-0,0.035 0.018,0.068 0.049,0.086c0.48,0.282 4.333,2.546 5.905,3.47c0.136,0.08 0.305,0.081 0.442,0.002c0.137,-0.078 0.222,-0.224 0.222,-0.382c0,-0.383 0,-0.764 0,-0.764c0,-0 -4.266,-2.507 -5.948,-3.496Z" style="fill:#001b35;"/><path d="M77.004,158.148c-0.137,-0.081 -0.308,-0.082 -0.446,-0.003c-0.139,0.079 -0.224,0.227 -0.224,0.386c-0,0.291 -0,0.581 -0,0.7c-0,0.035 0.018,0.068 0.049,0.086c0.48,0.282 4.333,2.546 5.905,3.47c0.136,0.08 0.305,0.081 0.442,0.003c0.137,-0.079 0.222,-0.225 0.222,-0.383c0,-0.383 0,-0.764 0,-0.764c0,0 -4.266,-2.507 -5.948,-3.495Z" style="fill:#001b35;"/><path d="M86.527,163.744c-0.137,-0.081 -0.308,-0.082 -0.446,-0.002c-0.139,0.079 -0.224,0.226 -0.224,0.386c-0,0.291 -0,0.58 -0,0.699c-0,0.036 0.019,0.069 0.049,0.087c0.48,0.281 4.333,2.546 5.905,3.469c0.136,0.081 0.305,0.082 0.442,0.003c0.137,-0.078 0.222,-0.225 0.222,-0.383c0,-0.382 0,-0.763 0,-0.763c0,-0 -4.266,-2.507 -5.948,-3.496Z" style="fill:#001b35;"/><path d="M96.05,169.34c-0.137,-0.08 -0.308,-0.081 -0.446,-0.002c-0.139,0.079 -0.224,0.227 -0.224,0.386c-0,0.291 -0,0.58 -0,0.7c-0,0.035 0.019,0.068 0.049,0.086c0.48,0.282 4.333,2.546 5.905,3.47c0.136,0.08 0.305,0.081 0.442,0.002c0.138,-0.078 0.222,-0.224 0.222,-0.382c0,-0.383 0,-0.764 0,-0.764c0,-0 -4.266,-2.507 -5.948,-3.496Z" style="fill:#001b35;"/><path d="M55.104,141.724c-0.138,-0.081 -0.308,-0.082 -0.447,-0.003c-0.138,0.08 -0.224,0.227 -0.224,0.387c0,0.291 0,0.58 0,0.699c0,0.036 0.019,0.068 0.05,0.086c0.246,0.145 1.356,0.798 2.09,1.229c0.136,0.08 0.305,0.081 0.442,0.002c0.138,-0.078 0.222,-0.224 0.222,-0.382c0,-0.383 0,-0.764 0,-0.764c0,-0 -1.304,-0.767 -2.133,-1.254Z" style="fill:#001b35;"/><path d="M64.627,147.32c-0.138,-0.081 -0.308,-0.081 -0.447,-0.002c-0.138,0.079 -0.224,0.226 -0.224,0.386c0,0.291 0,0.58 0,0.7c0,0.035 0.019,0.068 0.05,0.086c0.246,0.144 1.356,0.797 2.09,1.228c0.136,0.08 0.305,0.081 0.442,0.003c0.138,-0.079 0.222,-0.225 0.222,-0.383c0,-0.383 0,-0.764 0,-0.764c0,0 -1.304,-0.766 -2.133,-1.254Z" style="fill:#001b35;"/><path d="M74.15,152.917c-0.138,-0.081 -0.308,-0.082 -0.447,-0.003c-0.138,0.079 -0.224,0.227 -0.224,0.386c0,0.291 0,0.58 0,0.7c0,0.035 0.019,0.068 0.05,0.086c0.246,0.145 1.356,0.797 2.09,1.229c0.136,0.08 0.305,0.081 0.442,0.002c0.138,-0.078 0.222,-0.225 0.222,-0.383c0,-0.382 0,-0.763 0,-0.763c0,-0 -1.304,-0.767 -2.133,-1.254Z" style="fill:#001b35;"/><path d="M83.673,158.513c-0.138,-0.081 -0.308,-0.082 -0.447,-0.003c-0.138,0.08 -0.224,0.227 -0.224,0.387c0,0.291 0,0.58 0,0.699c0,0.036 0.019,0.069 0.05,0.086c0.246,0.145 1.356,0.798 2.09,1.229c0.136,0.08 0.305,0.081 0.442,0.002c0.138,-0.078 0.222,-0.224 0.222,-0.382c0,-0.383 0,-0.764 0,-0.764c0,-0 -1.304,-0.766 -2.133,-1.254Z" style="fill:#001b35;"/><path d="M93.196,164.109c-0.138,-0.08 -0.308,-0.081 -0.447,-0.002c-0.138,0.079 -0.223,0.226 -0.224,0.386c0,0.291 0,0.58 0,0.7c0,0.035 0.019,0.068 0.05,0.086c0.246,0.144 1.356,0.797 2.09,1.228c0.136,0.08 0.305,0.081 0.443,0.003c0.137,-0.079 0.221,-0.225 0.221,-0.383c0,-0.382 0,-0.764 0,-0.764c0,0 -1.304,-0.766 -2.133,-1.254Z" style="fill:#001b35;"/><path d="M102.719,169.706c-0.138,-0.081 -0.308,-0.082 -0.446,-0.003c-0.139,0.079 -0.224,0.227 -0.224,0.386c-0,0.291 -0,0.581 -0,0.7c-0,0.035 0.018,0.068 0.049,0.086c0.246,0.145 1.356,0.797 2.09,1.229c0.136,0.08 0.305,0.081 0.443,0.002c0.137,-0.078 0.222,-0.224 0.222,-0.383c-0,-0.382 -0,-0.763 -0,-0.763c-0,-0 -1.305,-0.767 -2.134,-1.254Z" style="fill:#001b35;"/><path d="M48.486,134.268c-0.137,-0.081 -0.308,-0.082 -0.446,-0.003c-0.139,0.079 -0.224,0.227 -0.224,0.386c-0,0.291 -0,0.58 -0,0.7c-0,0.035 0.018,0.068 0.049,0.086c0.48,0.282 4.333,2.546 5.905,3.47c0.136,0.08 0.305,0.081 0.442,0.003c0.137,-0.079 0.222,-0.225 0.222,-0.383c0,-0.383 0,-0.764 0,-0.764c0,0 -4.266,-2.507 -5.948,-3.495Z" style="fill:#001b35;"/><path d="M58.009,139.864c-0.137,-0.081 -0.308,-0.082 -0.446,-0.003c-0.139,0.08 -0.224,0.227 -0.224,0.387c-0,0.291 -0,0.58 -0,0.699c-0,0.036 0.019,0.068 0.049,0.086c0.48,0.282 4.333,2.546 5.905,3.47c0.136,0.081 0.305,0.081 0.442,0.003c0.137,-0.079 0.222,-0.225 0.222,-0.383c0,-0.382 0,-0.764 0,-0.764c0,0 -4.266,-2.506 -5.948,-3.495Z" style="fill:#001b35;"/><path d="M67.532,145.46c-0.137,-0.081 -0.308,-0.082 -0.446,-0.002c-0.139,0.079 -0.224,0.226 -0.224,0.386c-0,0.291 -0,0.58 -0,0.7c-0,0.035 0.019,0.068 0.049,0.086c0.48,0.282 4.333,2.546 5.905,3.47c0.136,0.08 0.305,0.081 0.442,0.002c0.137,-0.078 0.222,-0.224 0.222,-0.382c0,-0.383 0,-0.764 0,-0.764c0,-0 -4.266,-2.507 -5.948,-3.496Z" style="fill:#001b35;"/><path d="M77.055,151.057c-0.137,-0.081 -0.308,-0.082 -0.446,-0.003c-0.139,0.079 -0.224,0.227 -0.224,0.386c-0,0.291 -0,0.58 -0,0.7c-0,0.035 0.019,0.068 0.049,0.086c0.48,0.282 4.333,2.546 5.905,3.47c0.136,0.08 0.305,0.081 0.442,0.003c0.138,-0.079 0.222,-0.225 0.222,-0.383c0,-0.383 0,-0.764 0,-0.764c0,0 -4.266,-2.507 -5.948,-3.495Z" style="fill:#001b35;"/><path d="M86.578,156.653c-0.137,-0.081 -0.308,-0.082 -0.446,-0.003c-0.139,0.08 -0.224,0.227 -0.224,0.387c-0,0.291 -0,0.58 -0,0.699c-0,0.036 0.019,0.069 0.049,0.086c0.48,0.282 4.333,2.547 5.905,3.47c0.136,0.081 0.305,0.082 0.442,0.003c0.138,-0.079 0.222,-0.225 0.222,-0.383c0,-0.382 0,-0.764 0,-0.764c0,0 -4.266,-2.506 -5.948,-3.495Z" style="fill:#001b35;"/><path d="M96.101,162.249c-0.137,-0.08 -0.308,-0.081 -0.446,-0.002c-0.139,0.079 -0.224,0.226 -0.224,0.386c-0,0.291 -0,0.58 -0,0.7c-0,0.035 0.019,0.068 0.049,0.086c0.48,0.282 4.333,2.546 5.905,3.47c0.136,0.08 0.305,0.081 0.442,0.002c0.138,-0.078 0.222,-0.224 0.222,-0.382c0,-0.383 0,-0.764 0,-0.764c0,-0 -4.265,-2.507 -5.948,-3.496Z" style="fill:#001b35;"/><path d="M55.155,134.633c-0.138,-0.081 -0.308,-0.082 -0.447,-0.003c-0.138,0.08 -0.224,0.227 -0.224,0.387c0,0.291 0,0.58 0,0.699c0,0.036 0.019,0.068 0.05,0.086c0.246,0.145 1.356,0.798 2.09,1.229c0.136,0.08 0.305,0.081 0.442,0.002c0.138,-0.078 0.222,-0.224 0.222,-0.382c0,-0.383 0,-0.764 0,-0.764c0,-0 -1.304,-0.767 -2.133,-1.254Z" style="fill:#001b35;"/><path d="M64.678,140.229c-0.138,-0.081 -0.308,-0.082 -0.447,-0.002c-0.138,0.079 -0.224,0.226 -0.224,0.386c0,0.291 0,0.58 0,0.7c0,0.035 0.019,0.068 0.05,0.086c0.246,0.144 1.356,0.797 2.09,1.228c0.136,0.08 0.305,0.081 0.442,0.003c0.138,-0.079 0.222,-0.225 0.222,-0.383c0,-0.383 0,-0.764 0,-0.764c0,0 -1.304,-0.766 -2.133,-1.254Z" style="fill:#001b35;"/><path d="M74.201,145.826c-0.138,-0.081 -0.308,-0.082 -0.447,-0.003c-0.138,0.079 -0.223,0.227 -0.223,0.386c-0,0.291 -0,0.58 -0,0.7c-0,0.035 0.018,0.068 0.049,0.086c0.246,0.145 1.356,0.797 2.09,1.228c0.136,0.081 0.305,0.082 0.443,0.003c0.137,-0.079 0.221,-0.225 0.221,-0.383c0,-0.382 0,-0.764 0,-0.764c0,0 -1.304,-0.766 -2.133,-1.253Z" style="fill:#001b35;"/><path d="M83.724,151.422c-0.138,-0.081 -0.308,-0.082 -0.446,-0.003c-0.139,0.08 -0.224,0.227 -0.224,0.387c-0,0.291 -0,0.58 -0,0.699c-0,0.036 0.018,0.068 0.049,0.086c0.246,0.145 1.356,0.798 2.09,1.229c0.136,0.08 0.305,0.081 0.443,0.002c0.137,-0.078 0.222,-0.224 0.222,-0.382c-0,-0.383 -0,-0.764 -0,-0.764c-0,-0 -1.305,-0.767 -2.134,-1.254Z" style="fill:#001b35;"/><path d="M93.247,157.018c-0.138,-0.081 -0.308,-0.081 -0.446,-0.002c-0.139,0.079 -0.224,0.226 -0.224,0.386c-0,0.291 -0,0.58 -0,0.7c-0,0.035 0.018,0.068 0.049,0.086c0.246,0.144 1.356,0.797 2.09,1.228c0.136,0.08 0.305,0.081 0.443,0.003c0.137,-0.079 0.222,-0.225 0.222,-0.383c-0,-0.383 -0,-0.764 -0,-0.764c-0,0 -1.304,-0.766 -2.134,-1.254Z" style="fill:#001b35;"/><path d="M102.77,162.615c-0.138,-0.081 -0.308,-0.082 -0.446,-0.003c-0.139,0.079 -0.224,0.227 -0.224,0.386c-0,0.291 -0,0.58 -0,0.7c-0,0.035 0.018,0.068 0.049,0.086c0.246,0.145 1.356,0.797 2.09,1.229c0.137,0.08 0.305,0.081 0.443,0.002c0.137,-0.078 0.222,-0.225 0.222,-0.383c-0,-0.382 -0,-0.763 -0,-0.763c-0,-0 -1.304,-0.767 -2.134,-1.254Z" style="fill:#001b35;"/><path d="M48.371,126.868c-0.138,-0.08 -0.308,-0.081 -0.447,-0.002c-0.138,0.079 -0.224,0.226 -0.224,0.386c0,0.291 0,0.58 0,0.7c0,0.035 0.019,0.068 0.05,0.086c0.48,0.282 4.332,2.546 5.904,3.47c0.137,0.08 0.306,0.081 0.443,0.002c0.137,-0.078 0.222,-0.224 0.222,-0.382c-0,-0.383 -0,-0.764 -0,-0.764c-0,-0 -4.266,-2.507 -5.948,-3.496Z" style="fill:#001b35;"/><path d="M57.894,132.465c-0.138,-0.081 -0.308,-0.082 -0.446,-0.003c-0.139,0.079 -0.224,0.227 -0.224,0.386c-0,0.291 -0,0.58 -0,0.7c-0,0.035 0.018,0.068 0.049,0.086c0.48,0.282 4.332,2.546 5.905,3.47c0.136,0.08 0.305,0.081 0.442,0.003c0.137,-0.079 0.222,-0.225 0.222,-0.383c-0,-0.383 -0,-0.764 -0,-0.764c-0,0 -4.266,-2.507 -5.948,-3.495Z" style="fill:#001b35;"/><path d="M67.417,138.061c-0.138,-0.081 -0.308,-0.082 -0.446,-0.002c-0.139,0.079 -0.224,0.226 -0.224,0.386c-0,0.291 -0,0.58 -0,0.699c-0,0.036 0.018,0.069 0.049,0.087c0.48,0.281 4.332,2.546 5.905,3.469c0.136,0.081 0.305,0.082 0.442,0.003c0.137,-0.079 0.222,-0.225 0.222,-0.383c-0,-0.382 -0,-0.764 -0,-0.764c-0,0 -4.266,-2.506 -5.948,-3.495Z" style="fill:#001b35;"/><path d="M76.94,143.657c-0.138,-0.08 -0.308,-0.081 -0.446,-0.002c-0.139,0.079 -0.224,0.226 -0.224,0.386c-0,0.291 -0,0.58 -0,0.7c-0,0.035 0.018,0.068 0.049,0.086c0.48,0.282 4.332,2.546 5.905,3.47c0.136,0.08 0.305,0.081 0.442,0.002c0.137,-0.078 0.222,-0.224 0.222,-0.382c0,-0.383 0,-0.764 0,-0.764c0,-0 -4.266,-2.507 -5.948,-3.496Z" style="fill:#001b35;"/><path d="M86.463,149.254c-0.138,-0.081 -0.308,-0.082 -0.446,-0.003c-0.139,0.079 -0.224,0.227 -0.224,0.386c-0,0.292 -0,0.581 -0,0.7c-0,0.035 0.018,0.068 0.049,0.086c0.48,0.282 4.332,2.546 5.905,3.47c0.136,0.08 0.305,0.081 0.442,0.003c0.137,-0.079 0.222,-0.225 0.222,-0.383c0,-0.382 0,-0.764 0,-0.764c0,0 -4.266,-2.507 -5.948,-3.495Z" style="fill:#001b35;"/><path d="M95.986,154.85c-0.137,-0.081 -0.308,-0.082 -0.446,-0.002c-0.139,0.079 -0.224,0.226 -0.224,0.386c-0,0.291 -0,0.58 -0,0.699c-0,0.036 0.018,0.069 0.049,0.087c0.48,0.282 4.332,2.546 5.905,3.47c0.136,0.08 0.305,0.081 0.442,0.002c0.137,-0.078 0.222,-0.224 0.222,-0.383c0,-0.382 0,-0.763 0,-0.763c0,-0 -4.266,-2.507 -5.948,-3.496Z" style="fill:#001b35;"/><path d="M55.04,127.234c-0.138,-0.081 -0.308,-0.082 -0.447,-0.003c-0.138,0.079 -0.224,0.227 -0.224,0.386c0,0.291 0,0.58 0,0.7c0,0.035 0.019,0.068 0.05,0.086c0.245,0.145 1.356,0.797 2.09,1.228c0.136,0.081 0.305,0.082 0.442,0.003c0.138,-0.079 0.222,-0.225 0.222,-0.383c0,-0.382 0,-0.764 0,-0.764c0,0 -1.304,-0.766 -2.133,-1.253Z" style="fill:#001b35;"/><path d="M64.563,132.83c-0.138,-0.081 -0.308,-0.082 -0.447,-0.003c-0.138,0.08 -0.224,0.227 -0.224,0.387c0,0.291 0,0.58 0,0.699c0,0.036 0.019,0.069 0.05,0.086c0.245,0.145 1.356,0.798 2.09,1.229c0.136,0.08 0.305,0.081 0.442,0.002c0.138,-0.078 0.222,-0.224 0.222,-0.382c0,-0.383 0,-0.764 0,-0.764c0,-0 -1.304,-0.766 -2.133,-1.254Z" style="fill:#001b35;"/><path d="M74.086,138.426c-0.138,-0.08 -0.308,-0.081 -0.447,-0.002c-0.138,0.079 -0.224,0.226 -0.224,0.386c0,0.291 0,0.58 0,0.7c0,0.035 0.019,0.068 0.05,0.086c0.246,0.144 1.356,0.797 2.09,1.228c0.136,0.08 0.305,0.081 0.442,0.003c0.138,-0.079 0.222,-0.225 0.222,-0.383c0,-0.382 0,-0.764 0,-0.764c0,0 -1.304,-0.766 -2.133,-1.254Z" style="fill:#001b35;"/><path d="M83.609,144.023c-0.138,-0.081 -0.308,-0.082 -0.447,-0.003c-0.138,0.079 -0.224,0.227 -0.224,0.386c0,0.291 0,0.581 0,0.7c0,0.035 0.019,0.068 0.05,0.086c0.246,0.145 1.356,0.797 2.09,1.229c0.136,0.08 0.305,0.081 0.442,0.002c0.138,-0.078 0.222,-0.224 0.222,-0.383c0,-0.382 0,-0.763 0,-0.763c0,-0 -1.304,-0.767 -2.133,-1.254Z" style="fill:#001b35;"/><path d="M93.132,149.619c-0.138,-0.081 -0.308,-0.082 -0.447,-0.002c-0.138,0.079 -0.224,0.226 -0.224,0.386c0,0.291 0,0.58 0,0.699c0,0.036 0.019,0.069 0.05,0.087c0.246,0.144 1.356,0.797 2.09,1.228c0.136,0.08 0.305,0.081 0.442,0.002c0.138,-0.078 0.222,-0.224 0.222,-0.382c0,-0.383 0,-0.764 0,-0.764c0,-0 -1.304,-0.766 -2.133,-1.254Z" style="fill:#001b35;"/><path d="M102.655,155.215c-0.138,-0.08 -0.308,-0.081 -0.447,-0.002c-0.138,0.079 -0.224,0.227 -0.224,0.386c0,0.291 0,0.58 0,0.7c0,0.035 0.019,0.068 0.05,0.086c0.246,0.144 1.356,0.797 2.09,1.228c0.136,0.08 0.305,0.081 0.442,0.003c0.138,-0.079 0.222,-0.225 0.222,-0.383c0,-0.382 0,-0.764 0,-0.764c0,0 -1.304,-0.766 -2.133,-1.254Z" style="fill:#001b35;"/><path d="M55.067,149.147c-0.138,-0.081 -0.308,-0.082 -0.447,-0.002c-0.138,0.079 -0.224,0.226 -0.224,0.386c0,0.291 0,0.58 0,0.699c0,0.036 0.019,0.069 0.049,0.087c0.246,0.144 1.357,0.797 2.091,1.228c0.136,0.08 0.305,0.081 0.442,0.003c0.137,-0.079 0.222,-0.225 0.222,-0.383c0,-0.383 0,-0.764 0,-0.764c0,0 -1.304,-0.766 -2.133,-1.254Z" style="fill:#001b35;"/><path d="M64.59,154.744c-0.138,-0.081 -0.308,-0.082 -0.447,-0.003c-0.138,0.079 -0.224,0.227 -0.224,0.386c0,0.291 0,0.58 0,0.7c0,0.035 0.019,0.068 0.05,0.086c0.245,0.145 1.356,0.797 2.09,1.228c0.136,0.081 0.305,0.081 0.442,0.003c0.137,-0.079 0.222,-0.225 0.222,-0.383c0,-0.382 0,-0.764 0,-0.764c0,0 -1.304,-0.766 -2.133,-1.253Z" style="fill:#001b35;"/><path d="M74.113,160.34c-0.138,-0.081 -0.308,-0.082 -0.447,-0.003c-0.138,0.08 -0.224,0.227 -0.224,0.387c0,0.291 0,0.58 0,0.699c0,0.036 0.019,0.068 0.05,0.086c0.245,0.145 1.356,0.798 2.09,1.229c0.136,0.08 0.305,0.081 0.442,0.002c0.138,-0.078 0.222,-0.224 0.222,-0.382c0,-0.383 0,-0.764 0,-0.764c0,-0 -1.304,-0.767 -2.133,-1.254Z" style="fill:#001b35;"/><path d="M83.636,165.936c-0.138,-0.081 -0.308,-0.082 -0.447,-0.002c-0.138,0.079 -0.224,0.226 -0.224,0.386c0,0.291 0,0.58 0,0.7c0,0.035 0.019,0.068 0.05,0.086c0.245,0.144 1.356,0.797 2.09,1.228c0.136,0.08 0.305,0.081 0.442,0.003c0.138,-0.079 0.222,-0.225 0.222,-0.383c0,-0.383 0,-0.764 0,-0.764c0,0 -1.304,-0.766 -2.133,-1.254Z" style="fill:#001b35;"/><path d="M93.159,171.533c-0.138,-0.081 -0.308,-0.082 -0.447,-0.003c-0.138,0.079 -0.224,0.227 -0.224,0.386c0,0.291 0,0.58 0,0.7c0,0.035 0.019,0.068 0.05,0.086c0.246,0.145 1.356,0.797 2.09,1.228c0.136,0.081 0.305,0.082 0.442,0.003c0.138,-0.079 0.222,-0.225 0.222,-0.383c0,-0.382 0,-0.764 0,-0.764c0,0 -1.304,-0.766 -2.133,-1.253Z" style="fill:#001b35;"/><path d="M102.682,177.129c-0.138,-0.081 -0.308,-0.082 -0.447,-0.003c-0.138,0.08 -0.224,0.227 -0.224,0.387c0,0.291 0,0.58 0,0.699c0,0.036 0.019,0.068 0.05,0.086c0.246,0.145 1.356,0.798 2.09,1.229c0.136,0.08 0.305,0.081 0.442,0.002c0.138,-0.078 0.222,-0.224 0.222,-0.382c0,-0.383 0,-0.764 0,-0.764c0,-0 -1.304,-0.767 -2.133,-1.254Z" style="fill:#001b35;"/><path d="M45.531,136.098c-0.138,-0.081 -0.308,-0.082 -0.447,-0.002c-0.138,0.079 -0.224,0.226 -0.224,0.386c0,0.291 0,0.58 0,0.699c0,0.036 0.019,0.069 0.049,0.087c0.246,0.144 1.357,0.797 2.091,1.228c0.136,0.08 0.305,0.081 0.442,0.002c0.137,-0.078 0.222,-0.224 0.222,-0.382c0,-0.383 0,-0.764 0,-0.764c0,-0 -1.304,-0.766 -2.133,-1.254Z" style="fill:#001b35;"/><path d="M45.582,129.007c-0.138,-0.081 -0.308,-0.082 -0.447,-0.003c-0.138,0.08 -0.224,0.227 -0.224,0.387c0,0.291 0,0.58 0,0.699c0,0.036 0.019,0.069 0.05,0.087c0.245,0.144 1.356,0.797 2.09,1.228c0.136,0.08 0.305,0.081 0.442,0.002c0.137,-0.078 0.222,-0.224 0.222,-0.382c0,-0.383 0,-0.764 0,-0.764c0,-0 -1.304,-0.766 -2.133,-1.254Z" style="fill:#001b35;"/><path d="M45.466,121.608c-0.137,-0.081 -0.308,-0.082 -0.446,-0.003c-0.139,0.08 -0.224,0.227 -0.224,0.386c-0,0.292 -0,0.581 -0,0.7c-0,0.036 0.019,0.068 0.049,0.086c0.246,0.145 1.357,0.797 2.091,1.229c0.136,0.08 0.305,0.081 0.442,0.002c0.137,-0.078 0.222,-0.224 0.222,-0.383c-0,-0.382 -0,-0.763 -0,-0.763c-0,-0 -1.304,-0.767 -2.134,-1.254Z" style="fill:#001b35;"/><path d="M45.493,143.521c-0.137,-0.08 -0.308,-0.081 -0.446,-0.002c-0.139,0.079 -0.224,0.226 -0.224,0.386c-0,0.291 -0,0.58 -0,0.7c-0,0.035 0.019,0.068 0.049,0.086c0.246,0.144 1.357,0.797 2.09,1.228c0.137,0.08 0.306,0.081 0.443,0.003c0.137,-0.079 0.222,-0.225 0.222,-0.383c-0,-0.383 -0,-0.764 -0,-0.764c-0,0 -1.304,-0.766 -2.134,-1.254Z" style="fill:#001b35;"/><path d="M60.437,135.115c-0.08,0.036 -2.488,1.458 -2.549,1.511c-0.294,0.256 -0.473,0.725 -0.473,1.356l-0,8.87c-0,1.326 0.793,2.869 1.77,3.443l25.375,14.912c0.386,0.226 0.743,0.268 1.034,0.155c0.067,-0.027 2.267,-1.249 2.59,-1.527c0.296,-0.256 0.478,-0.726 0.478,-1.361l-0,-8.87c-0,-1.325 -0.793,-2.868 -1.77,-3.442l-25.375,-14.912c-0.407,-0.239 -0.781,-0.273 -1.08,-0.135Z" style="fill:#001a35;"/><path d="M84.247,155.313c-0,-0.859 -0.519,-1.861 -1.157,-2.236l-22.435,-13.184c-0.639,-0.375 -1.157,0.017 -1.157,0.876l0,5.745c0,0.859 0.518,1.861 1.157,2.236l22.435,13.184c0.638,0.375 1.157,-0.017 1.157,-0.876l-0,-5.745Z" style="fill:#25bcb4;"/><path d="M58.137,136.471c0.293,-0.121 0.656,-0.081 1.048,0.149l25.375,14.912c0.977,0.574 1.77,2.117 1.77,3.443l-0,8.87c-0,0.689 -0.215,1.185 -0.558,1.421c0.542,-0.296 2.14,-1.197 2.412,-1.431c0.296,-0.256 0.478,-0.726 0.478,-1.361l-0,-8.87c-0,-1.325 -0.793,-2.868 -1.77,-3.442l-25.375,-14.912c-0.407,-0.239 -0.781,-0.273 -1.08,-0.135c-0.065,0.03 -1.67,0.975 -2.3,1.356Z" style="fill:#f0f0f0;fill-opacity:0.15;"/><path d="M63.387,143.559l-0.166,-0.318l-0.333,-0.192l-0.166,0.126l0,1.956l0.166,0.318l0.333,0.192l0.166,-0.126l0,-1.956Z" style="fill:#dedede;fill-opacity:0.47;"/><path d="M65.228,144.445l0.192,-0.081l0,-0.384l-0.192,-0.303l-1.694,-0.978l-0.192,0.081l0,0.384l0.192,0.303l1.694,0.978Z" style="fill:#dedede;fill-opacity:0.47;"/><path d="M65.375,146.664l0.167,0.318l0.332,0.192l0.167,-0.126l-0,-1.956l-0.167,-0.318l-0.332,-0.192l-0.167,0.126l0,1.956Z" style="fill:#dedede;fill-opacity:0.47;"/><path d="M63.534,145.729l-0.192,0.081l0,0.384l0.192,0.303l1.694,0.978l0.192,-0.081l0,-0.384l-0.192,-0.303l-1.694,-0.978Z" style="fill:#dedede;fill-opacity:0.47;"/><path d="M63.387,146.562l-0.166,-0.318l-0.333,-0.192l-0.166,0.126l0,1.956l0.166,0.318l0.333,0.192l0.166,-0.126l0,-1.956Z" style="fill:#dedede;fill-opacity:0.47;"/><path d="M65.375,149.667l0.167,0.318l0.332,0.192l0.167,-0.126l-0,-1.956l-0.167,-0.318l-0.332,-0.192l-0.167,0.126l0,1.956Z" style="fill:#dedede;fill-opacity:0.47;"/><path d="M63.534,148.732l-0.192,0.081l0,0.384l0.192,0.303l1.694,0.978l0.192,-0.081l0,-0.384l-0.192,-0.303l-1.694,-0.978Z" style="fill:#dedede;fill-opacity:0.47;"/><path d="M72.902,149.053l-0.166,-0.318l-0.333,-0.192l-0.166,0.126l0,1.956l0.166,0.317l0.333,0.192l0.166,-0.125l0,-1.956Z" style="fill:#dedede;fill-opacity:0.47;"/><path d="M74.743,149.939l0.192,-0.081l0,-0.384l-0.192,-0.303l-1.694,-0.978l-0.192,0.081l0,0.384l0.192,0.303l1.694,0.978Z" style="fill:#dedede;fill-opacity:0.47;"/><path d="M74.89,152.158l0.167,0.317l0.332,0.192l0.167,-0.125l-0,-1.957l-0.167,-0.317l-0.332,-0.192l-0.167,0.125l0,1.957Z" style="fill:#dedede;fill-opacity:0.47;"/><path d="M73.049,151.222l-0.192,0.081l0,0.385l0.192,0.302l1.694,0.978l0.192,-0.081l0,-0.384l-0.192,-0.303l-1.694,-0.978Z" style="fill:#dedede;fill-opacity:0.47;"/><path d="M72.902,152.056l-0.166,-0.318l-0.333,-0.192l-0.166,0.126l0,1.956l0.166,0.317l0.333,0.193l0.166,-0.126l0,-1.956Z" style="fill:#dedede;fill-opacity:0.47;"/><path d="M74.89,155.161l0.167,0.317l0.332,0.192l0.167,-0.125l-0,-1.956l-0.167,-0.318l-0.332,-0.192l-0.167,0.125l0,1.957Z" style="fill:#dedede;fill-opacity:0.47;"/><path d="M73.049,154.225l-0.192,0.082l0,0.384l0.192,0.303l1.694,0.978l0.192,-0.082l0,-0.384l-0.192,-0.302l-1.694,-0.979Z" style="fill:#dedede;fill-opacity:0.47;"/><path d="M67.892,146.16l-0.166,-0.318l-0.333,-0.192l-0.166,0.126l-0,1.956l0.166,0.318l0.333,0.192l0.166,-0.126l-0,-1.956Z" style="fill:#dedede;fill-opacity:0.47;"/><path d="M69.733,147.046l0.192,-0.081l0,-0.384l-0.192,-0.303l-1.694,-0.978l-0.192,0.081l-0,0.384l0.192,0.303l1.694,0.978Z" style="fill:#dedede;fill-opacity:0.47;"/><path d="M69.88,149.265l0.166,0.317l0.333,0.193l0.166,-0.126l0,-1.956l-0.166,-0.318l-0.333,-0.192l-0.166,0.126l0,1.956Z" style="fill:#dedede;fill-opacity:0.47;"/><path d="M68.039,148.33l-0.192,0.081l-0,0.384l0.192,0.303l1.694,0.978l0.192,-0.081l0,-0.384l-0.192,-0.303l-1.694,-0.978Z" style="fill:#dedede;fill-opacity:0.47;"/><path d="M67.892,149.163l-0.166,-0.318l-0.333,-0.192l-0.166,0.126l-0,1.956l0.166,0.318l0.333,0.192l0.166,-0.126l-0,-1.956Z" style="fill:#dedede;fill-opacity:0.47;"/><path d="M69.88,152.268l0.166,0.318l0.333,0.192l0.166,-0.126l0,-1.956l-0.166,-0.318l-0.333,-0.192l-0.166,0.126l0,1.956Z" style="fill:#dedede;fill-opacity:0.47;"/><path d="M68.039,151.333l-0.192,0.081l-0,0.384l0.192,0.303l1.694,0.978l0.192,-0.081l0,-0.384l-0.192,-0.303l-1.694,-0.978Z" style="fill:#dedede;fill-opacity:0.47;"/><path d="M77.407,151.653l-0.166,-0.317l-0.333,-0.192l-0.166,0.125l-0,1.956l0.166,0.318l0.333,0.192l0.166,-0.126l-0,-1.956Z" style="fill:#dedede;fill-opacity:0.47;"/><path d="M79.248,152.54l0.192,-0.082l0,-0.384l-0.192,-0.303l-1.694,-0.978l-0.192,0.082l-0,0.384l0.192,0.302l1.694,0.979Z" style="fill:#dedede;fill-opacity:0.47;"/><path d="M79.395,154.758l0.166,0.318l0.333,0.192l0.166,-0.126l0,-1.956l-0.166,-0.318l-0.333,-0.192l-0.166,0.126l0,1.956Z" style="fill:#dedede;fill-opacity:0.47;"/><path d="M77.554,153.823l-0.192,0.081l-0,0.384l0.192,0.303l1.694,0.978l0.192,-0.081l0,-0.384l-0.192,-0.303l-1.694,-0.978Z" style="fill:#dedede;fill-opacity:0.47;"/><path d="M77.407,154.656l-0.166,-0.317l-0.333,-0.192l-0.166,0.125l-0,1.957l0.166,0.317l0.333,0.192l0.166,-0.125l-0,-1.957Z" style="fill:#dedede;fill-opacity:0.47;"/><path d="M79.395,157.761l0.166,0.318l0.333,0.192l0.166,-0.126l0,-1.956l-0.166,-0.317l-0.333,-0.192l-0.166,0.125l0,1.956Z" style="fill:#dedede;fill-opacity:0.47;"/><path d="M77.554,156.826l-0.192,0.081l-0,0.384l0.192,0.303l1.694,0.978l0.192,-0.081l0,-0.384l-0.192,-0.303l-1.694,-0.978Z" style="fill:#dedede;fill-opacity:0.47;"/><path d="M65.228,144.445l0.192,-0.081l0,-0.384l-0.192,-0.303l-1.694,-0.978l-0.192,0.081l0,0.384l0.192,0.303l1.694,0.978Z" style="fill:#001a35;"/><path d="M65.375,146.664l0.167,0.318l0.332,0.192l0.167,-0.126l-0,-1.956l-0.167,-0.318l-0.332,-0.192l-0.167,0.126l0,1.956Z" style="fill:#001a35;"/><path d="M63.534,145.729l-0.192,0.081l0,0.384l0.192,0.303l1.694,0.978l0.192,-0.081l0,-0.384l-0.192,-0.303l-1.694,-0.978Z" style="fill:#001a35;"/><path d="M63.387,146.562l-0.166,-0.318l-0.333,-0.192l-0.166,0.126l0,1.956l0.166,0.318l0.333,0.192l0.166,-0.126l0,-1.956Z" style="fill:#001a35;"/><path d="M65.375,149.667l0.167,0.318l0.332,0.192l0.167,-0.126l-0,-1.956l-0.167,-0.318l-0.332,-0.192l-0.167,0.126l0,1.956Z" style="fill:#001a35;"/><path d="M63.534,148.732l-0.192,0.081l0,0.384l0.192,0.303l1.694,0.978l0.192,-0.081l0,-0.384l-0.192,-0.303l-1.694,-0.978Z" style="fill:#001a35;"/><path d="M79.395,154.758l0.166,0.318l0.333,0.192l0.166,-0.126l0,-1.956l-0.166,-0.318l-0.333,-0.192l-0.166,0.126l0,1.956Z" style="fill:#001a35;"/><path d="M79.395,157.761l0.166,0.318l0.333,0.192l0.166,-0.126l0,-1.956l-0.166,-0.317l-0.333,-0.192l-0.166,0.125l0,1.956Z" style="fill:#001a35;"/><path d="M69.88,149.265l0.166,0.317l0.333,0.193l0.166,-0.126l0,-1.956l-0.166,-0.318l-0.333,-0.192l-0.166,0.126l0,1.956Z" style="fill:#001a35;"/><path d="M69.88,152.268l0.166,0.318l0.333,0.192l0.166,-0.126l0,-1.956l-0.166,-0.318l-0.333,-0.192l-0.166,0.126l0,1.956Z" style="fill:#001a35;"/><path d="M74.743,149.939l0.192,-0.081l0,-0.384l-0.192,-0.303l-1.694,-0.978l-0.192,0.081l0,0.384l0.192,0.303l1.694,0.978Z" style="fill:#001a35;"/><path d="M74.89,152.158l0.167,0.317l0.332,0.192l0.167,-0.125l-0,-1.957l-0.167,-0.317l-0.332,-0.192l-0.167,0.125l0,1.957Z" style="fill:#001a35;"/><path d="M73.049,151.222l-0.192,0.081l0,0.385l0.192,0.302l1.694,0.978l0.192,-0.081l0,-0.384l-0.192,-0.303l-1.694,-0.978Z" style="fill:#001a35;"/><path d="M72.902,152.056l-0.166,-0.318l-0.333,-0.192l-0.166,0.126l0,1.956l0.166,0.317l0.333,0.193l0.166,-0.126l0,-1.956Z" style="fill:#001a35;"/><path d="M73.049,154.225l-0.192,0.082l0,0.384l0.192,0.303l1.694,0.978l0.192,-0.082l0,-0.384l-0.192,-0.302l-1.694,-0.979Z" style="fill:#001a35;"/><path d="M38.97,75.944c-0,0.831 -0,30.097 -0,30.785c-0,0.832 0.607,1.709 1.792,2.394l70.172,40.513c2.167,1.252 5.451,1.388 7.327,0.304l41.503,-23.961c0.85,-0.491 1.266,-1.149 1.266,-1.837c0,-0.832 0,-30.097 0,-30.786c0,-0.832 -0.607,-1.709 -1.792,-2.393l-70.172,-40.514c-2.167,-1.251 -5.451,-1.387 -7.327,-0.304l-41.503,23.962c-0.85,0.49 -1.266,1.148 -1.266,1.837Z" style="fill:#0d273f;"/><path d="M161.03,93.356c0.001,0.688 -0.416,1.346 -1.266,1.837l-41.503,23.961c-1.876,1.084 -5.16,0.948 -7.327,-0.303l-70.172,-40.514c-1.217,-0.703 -1.825,-1.61 -1.791,-2.461c-0.001,0.023 -0.001,0.045 -0.001,0.068c-0,0.831 -0,30.097 -0,30.785c-0,0.832 0.607,1.709 1.792,2.394l70.172,40.513c2.167,1.252 5.451,1.388 7.327,0.304l41.503,-23.961c0.85,-0.491 1.266,-1.149 1.266,-1.837c0,-0.832 0,-30.097 0,-30.786l0,-0Z" style="fill:#f5f5f5;fill-opacity:0.04;"/><path d="M118.261,149.94l0,-30.786c-1.876,1.084 -5.16,0.948 -7.327,-0.303l-70.172,-40.514c-1.217,-0.703 -1.825,-1.61 -1.791,-2.461c-0.001,0.023 -0.001,0.045 -0.001,0.068c-0,0.831 -0,30.097 -0,30.785c-0,0.832 0.607,1.709 1.792,2.394l70.172,40.513c2.167,1.252 5.451,1.388 7.327,0.304Z" style="fill:#f5f5f5;fill-opacity:0.04;"/><path d="M118.261,149.94l0,-30.786c-1.876,1.084 -5.16,0.948 -7.327,-0.303l0,30.785c2.167,1.252 5.451,1.388 7.327,0.304Z" style="fill:#f5f5f5;fill-opacity:0.04;"/><path d="M113.964,119.817l0,30.786c0.424,0.052 0.849,0.074 1.267,0.067l0,-30.786c-0.417,0.008 -0.843,-0.015 -1.267,-0.067Z" style="fill:#f5f5f5;fill-opacity:0.04;"/><path d="M78.014,123.189c-0.056,0.042 -2.108,1.622 -2.474,1.832c-0.302,0.174 -0.696,0.158 -1.127,-0.091l-28.663,-16.549c-0.951,-0.549 -1.723,-2.024 -1.723,-3.293l-0,-13.536c-0,-0.614 0.181,-1.068 0.476,-1.31c0.314,-0.258 2.099,-1.558 2.411,-1.794c0.312,-0.236 0.743,-0.245 1.218,0.03l28.664,16.549c0.951,0.549 1.723,2.025 1.723,3.293l0,13.536c0,0.634 -0.193,1.097 -0.505,1.333Z" style="fill:#0d273f;"/><path d="M65.746,110.817c-0,-2.193 1.335,-3.202 2.979,-2.253l0.385,0.223c1.645,0.949 2.98,3.5 2.98,5.693c0,2.193 -1.335,3.202 -2.98,2.253l-0.385,-0.223c-1.644,-0.949 -2.979,-3.5 -2.979,-5.693Z" style="fill:#001a35;"/><path d="M66.799,111.425c-0,-1.465 0.892,-2.139 1.99,-1.505l0.257,0.149c1.099,0.634 1.991,2.338 1.991,3.803c0,1.465 -0.892,2.139 -1.991,1.505l-0.257,-0.148c-1.098,-0.635 -1.99,-2.339 -1.99,-3.804Z" style="fill:#25bcb4;"/><path d="M66.083,111.534c0.408,-1.279 0.982,-1.475 1.404,-1.719c0.349,-0.201 0.805,-0.182 1.302,0.105l0.257,0.149c1.099,0.634 1.991,2.338 1.991,3.803c0,0.802 -0.267,1.367 -0.689,1.61c-0.349,0.201 -1.219,0.428 -2.098,0.193c-1.682,-0.449 -2.835,-2.05 -2.167,-4.141Z" style="fill:#25bcb4;"/><path d="M65.907,113.043c0.531,0.76 1.343,1.305 2.29,1.557c1.098,0.293 2.185,0.01 2.621,-0.241c0.071,-0.041 0.138,-0.089 0.202,-0.144c-0.066,0.621 -0.313,1.06 -0.672,1.267c-0.349,0.201 -1.219,0.428 -2.098,0.193c-1.248,-0.333 -2.205,-1.301 -2.343,-2.632Z" style="fill:#e9e9e9;fill-opacity:0.21;"/><path d="M56.769,105.634c-0,-2.193 1.335,-3.202 2.979,-2.253l0.385,0.223c1.645,0.949 2.98,3.5 2.98,5.693c0,2.193 -1.335,3.202 -2.98,2.253l-0.385,-0.222c-1.644,-0.95 -2.979,-3.501 -2.979,-5.694Z" style="fill:#001a35;"/><path d="M57.821,106.242c0,-1.465 0.892,-2.139 1.991,-1.505l0.257,0.149c1.099,0.634 1.991,2.338 1.991,3.803c0,1.465 -0.892,2.14 -1.991,1.505l-0.257,-0.148c-1.099,-0.635 -1.991,-2.339 -1.991,-3.804Z" style="fill:#25bcb4;"/><path d="M57.106,106.351c0.408,-1.279 0.982,-1.475 1.404,-1.718c0.349,-0.202 0.804,-0.183 1.302,0.104l0.257,0.149c1.099,0.634 1.991,2.338 1.991,3.803c0,0.802 -0.267,1.367 -0.689,1.61c-0.349,0.201 -1.219,0.428 -2.098,0.193c-1.682,-0.449 -2.835,-2.05 -2.167,-4.141Z" style="fill:#ffe017;"/><path d="M56.93,107.86c0.531,0.76 1.343,1.305 2.29,1.557c1.098,0.294 2.185,0.01 2.621,-0.241c0.071,-0.041 0.138,-0.089 0.202,-0.144c-0.066,0.621 -0.313,1.06 -0.672,1.267c-0.349,0.201 -1.219,0.428 -2.098,0.193c-1.248,-0.333 -2.205,-1.301 -2.343,-2.632Z" style="fill:#e9e9e9;fill-opacity:0.21;"/><path d="M75.541,125.021l-0.001,0c-0.01,0.006 0.001,-0 0.001,-0Zm0.031,-0.019c0.347,-0.22 0.565,-0.701 0.565,-1.375l-0,-13.536c-0,-1.268 -0.772,-2.743 -1.724,-3.293l-28.663,-16.548c-0.505,-0.292 -0.96,-0.264 -1.275,0.016c0.009,-0.008 0.018,-0.016 0.028,-0.024c0.314,-0.258 2.099,-1.558 2.411,-1.794c0.312,-0.236 0.743,-0.245 1.218,0.03l28.664,16.549c0.951,0.549 1.723,2.025 1.723,3.293l0,13.536c0,0.634 -0.193,1.097 -0.505,1.333c-0.054,0.041 -2.002,1.54 -2.442,1.813Z" style="fill:#fff;fill-opacity:0.15;"/><path d="M78.519,108.32l-2.382,1.771c-0,-1.268 -0.772,-2.743 -1.724,-3.293l2.383,-1.771c0.951,0.549 1.723,2.025 1.723,3.293Z" style="fill:#fff;fill-opacity:0.15;"/><path d="M78.519,108.32l-2.382,1.771c-0,-1.268 -0.572,-2.098 -1.005,-2.645l2.392,-1.772c0.408,0.579 0.995,1.378 0.995,2.646Z" style="fill:#fff;fill-opacity:0.15;"/><path d="M47.436,100.332c-0,-2.193 1.335,-3.203 2.98,-2.253l0.385,0.222c1.644,0.95 2.979,3.501 2.979,5.694c0,2.192 -1.335,3.202 -2.979,2.252l-0.385,-0.222c-1.645,-0.949 -2.98,-3.501 -2.98,-5.693Z" style="fill:#001a35;"/><path d="M48.489,100.94c-0,-1.465 0.892,-2.14 1.99,-1.505l0.258,0.148c1.098,0.634 1.99,2.339 1.99,3.804c0,1.465 -0.892,2.139 -1.99,1.505l-0.258,-0.149c-1.098,-0.634 -1.99,-2.338 -1.99,-3.803Z" style="fill:#25bcb4;"/><path d="M47.773,101.048c0.408,-1.279 0.983,-1.475 1.404,-1.718c0.349,-0.202 0.805,-0.183 1.302,0.105l0.258,0.148c1.098,0.634 1.99,2.339 1.99,3.804c0,0.802 -0.267,1.367 -0.689,1.61c-0.349,0.201 -1.219,0.427 -2.097,0.193c-1.683,-0.449 -2.836,-2.05 -2.168,-4.142Z" style="fill:#25bcb4;"/><path d="M47.598,102.557c0.53,0.761 1.343,1.305 2.289,1.558c1.098,0.293 2.185,0.01 2.621,-0.241c0.071,-0.041 0.138,-0.089 0.202,-0.144c-0.066,0.62 -0.313,1.06 -0.672,1.267c-0.349,0.201 -1.219,0.427 -2.097,0.193c-1.249,-0.334 -2.206,-1.301 -2.343,-2.633Z" style="fill:#e9e9e9;fill-opacity:0.21;"/><path d="M106.397,139.575c-0.057,0.043 -2.109,1.622 -2.475,1.833c-0.302,0.174 -0.696,0.157 -1.126,-0.091l-28.664,-16.549c-0.951,-0.549 -1.723,-2.025 -1.723,-3.293l-0,-13.536c-0,-0.614 0.181,-1.068 0.476,-1.31c0.314,-0.258 2.099,-1.559 2.411,-1.795c0.312,-0.235 0.743,-0.244 1.219,0.03l28.663,16.549c0.951,0.549 1.723,2.025 1.723,3.293l0,13.536c0,0.634 -0.193,1.097 -0.504,1.333Z" style="fill:#0d273f;"/><path d="M94.128,127.203c-0,-2.192 1.335,-3.202 2.98,-2.252l0.385,0.222c1.644,0.95 2.979,3.501 2.979,5.694c0,2.192 -1.335,3.202 -2.979,2.252l-0.385,-0.222c-1.645,-0.95 -2.98,-3.501 -2.98,-5.694Z" style="fill:#001a35;"/><path d="M95.181,127.811c-0,-1.465 0.892,-2.139 1.99,-1.505l0.258,0.149c1.098,0.634 1.99,2.339 1.99,3.804c0,1.465 -0.892,2.139 -1.99,1.505l-0.258,-0.149c-1.098,-0.634 -1.99,-2.339 -1.99,-3.804Z" style="fill:#25bcb4;"/><path d="M94.465,127.92c0.408,-1.279 0.983,-1.475 1.404,-1.718c0.349,-0.202 0.805,-0.183 1.302,0.104l0.258,0.149c1.098,0.634 1.99,2.339 1.99,3.804c0,0.801 -0.267,1.366 -0.689,1.61c-0.349,0.201 -1.219,0.427 -2.098,0.193c-1.682,-0.45 -2.835,-2.05 -2.167,-4.142Z" style="fill:#25bcb4;"/><path d="M94.289,129.429c0.531,0.761 1.344,1.305 2.29,1.558c1.098,0.293 2.185,0.01 2.621,-0.241c0.071,-0.041 0.138,-0.089 0.202,-0.144c-0.066,0.62 -0.313,1.06 -0.672,1.267c-0.349,0.201 -1.219,0.427 -2.098,0.193c-1.248,-0.334 -2.205,-1.301 -2.343,-2.633Z" style="fill:#e9e9e9;fill-opacity:0.21;"/><path d="M85.151,122.021c-0,-2.193 1.335,-3.203 2.979,-2.253l0.385,0.222c1.645,0.95 2.98,3.501 2.98,5.694c0,2.192 -1.335,3.202 -2.98,2.252l-0.385,-0.222c-1.644,-0.949 -2.979,-3.501 -2.979,-5.693Z" style="fill:#001a35;"/><path d="M86.204,122.629c-0,-1.465 0.892,-2.14 1.99,-1.505l0.258,0.148c1.098,0.634 1.99,2.339 1.99,3.804c0,1.465 -0.892,2.139 -1.99,1.505l-0.258,-0.149c-1.098,-0.634 -1.99,-2.339 -1.99,-3.803Z" style="fill:#25bcb4;"/><path d="M85.488,122.737c0.408,-1.279 0.983,-1.475 1.404,-1.718c0.349,-0.202 0.805,-0.183 1.302,0.105l0.258,0.148c1.098,0.634 1.99,2.339 1.99,3.804c0,0.802 -0.267,1.367 -0.689,1.61c-0.349,0.201 -1.219,0.427 -2.098,0.193c-1.682,-0.45 -2.835,-2.05 -2.167,-4.142Z" style="fill:#ffe017;"/><path d="M85.312,124.246c0.531,0.761 1.344,1.305 2.29,1.558c1.098,0.293 2.185,0.01 2.621,-0.241c0.071,-0.041 0.138,-0.089 0.202,-0.144c-0.066,0.62 -0.313,1.06 -0.672,1.267c-0.349,0.201 -1.219,0.427 -2.098,0.193c-1.248,-0.334 -2.205,-1.301 -2.343,-2.633Z" style="fill:#e9e9e9;fill-opacity:0.21;"/><path d="M103.923,141.407l-0.001,0.001c-0.01,0.005 0.001,-0.001 0.001,-0.001Zm0.031,-0.019c0.347,-0.22 0.565,-0.7 0.565,-1.374l0,-13.536c0,-1.268 -0.772,-2.744 -1.723,-3.293l-28.664,-16.549c-0.505,-0.292 -0.96,-0.264 -1.275,0.016c0.009,-0.008 0.018,-0.016 0.028,-0.023c0.314,-0.258 2.099,-1.559 2.411,-1.795c0.312,-0.235 0.743,-0.244 1.219,0.03l28.663,16.549c0.951,0.549 1.723,2.025 1.723,3.293l0,13.536c0,0.634 -0.193,1.097 -0.504,1.333c-0.055,0.042 -2.003,1.54 -2.443,1.813Z" style="fill:#fff;fill-opacity:0.15;"/><path d="M106.901,124.706l-2.382,1.772c0,-1.268 -0.772,-2.744 -1.723,-3.293l2.382,-1.772c0.951,0.549 1.723,2.025 1.723,3.293Z" style="fill:#fff;fill-opacity:0.15;"/><path d="M106.901,124.706l-2.382,1.772c0,-1.268 -0.572,-2.098 -1.005,-2.645l2.392,-1.773c0.408,0.579 0.995,1.378 0.995,2.646Z" style="fill:#fff;fill-opacity:0.15;"/><path d="M75.818,116.718c-0,-2.193 1.335,-3.202 2.98,-2.253l0.385,0.223c1.644,0.949 2.98,3.5 2.98,5.693c-0,2.193 -1.336,3.202 -2.98,2.253l-0.385,-0.222c-1.645,-0.95 -2.98,-3.501 -2.98,-5.694Z" style="fill:#001a35;"/><path d="M76.871,117.326c-0,-1.465 0.892,-2.139 1.991,-1.505l0.257,0.149c1.099,0.634 1.991,2.338 1.991,3.803c-0,1.465 -0.892,2.14 -1.991,1.505l-0.257,-0.148c-1.099,-0.635 -1.991,-2.339 -1.991,-3.804Z" style="fill:#25bcb4;"/><path d="M76.155,117.435c0.408,-1.279 0.983,-1.475 1.404,-1.719c0.35,-0.201 0.805,-0.182 1.303,0.105l0.257,0.149c1.099,0.634 1.991,2.338 1.991,3.803c-0,0.802 -0.268,1.367 -0.69,1.61c-0.349,0.201 -1.219,0.428 -2.097,0.193c-1.683,-0.449 -2.835,-2.05 -2.168,-4.141Z" style="fill:#25bcb4;"/><path d="M75.98,118.944c0.531,0.76 1.343,1.305 2.289,1.557c1.098,0.293 2.185,0.01 2.622,-0.241c0.07,-0.041 0.138,-0.089 0.201,-0.144c-0.066,0.621 -0.313,1.06 -0.672,1.267c-0.349,0.201 -1.219,0.428 -2.097,0.193c-1.249,-0.333 -2.206,-1.301 -2.343,-2.632Z" style="fill:#e9e9e9;fill-opacity:0.21;"/><path d="M38.97,39.521c-0,0.832 -0,30.097 -0,30.786c-0,0.831 0.607,1.709 1.792,2.393l70.172,40.514c2.167,1.251 5.451,1.387 7.327,0.303l41.503,-23.961c0.85,-0.491 1.266,-1.148 1.266,-1.837c0,-0.832 0,-30.097 0,-30.786c0,-0.832 -0.607,-1.709 -1.792,-2.393l-70.172,-40.514c-2.167,-1.251 -5.451,-1.387 -7.327,-0.304l-41.503,23.962c-0.85,0.491 -1.266,1.148 -1.266,1.837Z" style="fill:#0d273f;"/><path d="M161.03,56.933c0.001,0.689 -0.416,1.346 -1.266,1.837l-41.503,23.962c-1.876,1.083 -5.16,0.947 -7.327,-0.304l-70.172,-40.514c-1.217,-0.703 -1.825,-1.609 -1.791,-2.461c-0.001,0.023 -0.001,0.045 -0.001,0.068c-0,0.832 -0,30.097 -0,30.786c-0,0.831 0.607,1.709 1.792,2.393l70.172,40.514c2.167,1.251 5.451,1.387 7.327,0.303l41.503,-23.961c0.85,-0.491 1.266,-1.148 1.266,-1.837c0,-0.832 0,-30.097 0,-30.786l0,-0Z" style="fill:#f5f5f5;fill-opacity:0.04;"/><path d="M118.261,113.517l0,-30.785c-1.876,1.083 -5.16,0.947 -7.327,-0.304l-70.172,-40.514c-1.217,-0.703 -1.825,-1.609 -1.791,-2.461c-0.001,0.023 -0.001,0.045 -0.001,0.068c-0,0.832 -0,30.097 -0,30.786c-0,0.831 0.607,1.709 1.792,2.393l70.172,40.514c2.167,1.251 5.451,1.387 7.327,0.303Z" style="fill:#f5f5f5;fill-opacity:0.04;"/><path d="M118.261,113.517l0,-30.785c-1.876,1.083 -5.16,0.947 -7.327,-0.304l0,30.786c2.167,1.251 5.451,1.387 7.327,0.303Z" style="fill:#f5f5f5;fill-opacity:0.04;"/><path d="M113.964,83.394l0,30.786c0.424,0.052 0.849,0.075 1.267,0.067l0,-30.785c-0.417,0.007 -0.843,-0.016 -1.267,-0.068Z" style="fill:#f5f5f5;fill-opacity:0.04;"/><path d="M60.72,57.432c0.568,0.463 0.991,1.312 0.991,2.056l-0,18.78c-0,0.744 -0.423,1.144 -0.991,1.006l0,-21.842Zm-0.587,-0.312l0,21.842c-0.567,-0.463 -0.99,-1.312 -0.99,-2.056l0,-18.78c0,-0.744 0.423,-1.144 0.99,-1.006Z" style="fill-opacity:0.19;"/><path d="M52.815,53.238c0.567,0.464 0.99,1.313 0.99,2.057l0,18.779c0,0.745 -0.423,1.145 -0.99,1.006l-0,-21.842Zm-0.587,-0.311l0,21.842c-0.567,-0.463 -0.99,-1.312 -0.99,-2.057l-0,-18.779c-0,-0.744 0.423,-1.144 0.99,-1.006Z" style="fill-opacity:0.19;"/><path d="M45.196,49.349c0.568,0.464 0.991,1.312 0.991,2.057l-0,18.779c-0,0.744 -0.423,1.144 -0.991,1.006l0,-21.842Zm-0.586,-0.311l-0,21.842c-0.568,-0.464 -0.991,-1.313 -0.991,-2.057l0,-18.779c0,-0.745 0.423,-1.145 0.991,-1.006Z" style="fill-opacity:0.19;"/><path d="M62.524,61.48l0,1.972l-2.898,1.538l-3.864,-2.05l-0,-1.973l2.898,-1.537l3.864,2.05Z" style="fill:#001a35;"/><path d="M59.626,63.017l2.898,-1.537l0,1.972l-2.898,1.538l0,-1.973Z" style="fill:#e1e1e1;fill-opacity:0.12;"/><path d="M59.626,63.017l2.898,-1.537l0,1.972l-2.898,1.538l0,-1.973Z" style="fill:#e1e1e1;fill-opacity:0.12;"/><path d="M59.626,63.017l2.898,-1.537l0,1.972l-2.898,1.538l0,-1.973Z" style="fill:#e1e1e1;fill-opacity:0.12;"/><path d="M55.762,60.967l3.864,2.05l0,1.973l-3.864,-2.05l-0,-1.973Z" style="fill:#e1e1e1;fill-opacity:0.12;"/><path d="M58.66,59.43l3.864,2.05l-2.898,1.537l-3.864,-2.05l2.898,-1.537Z" style="fill:#e1e1e1;fill-opacity:0.12;"/><path d="M58.66,59.43l3.864,2.05l-2.898,1.537l-3.864,-2.05l2.898,-1.537Z" style="fill:#e1e1e1;fill-opacity:0.12;"/><path d="M54.619,66.915l0,1.973l-2.898,1.537l-3.865,-2.05l0,-1.972l2.899,-1.538l3.864,2.05Z" style="fill:#001a35;"/><path d="M51.721,68.452l2.898,-1.537l0,1.973l-2.898,1.537l-0,-1.973Z" style="fill:#e1e1e1;fill-opacity:0.12;"/><path d="M51.721,68.452l2.898,-1.537l0,1.973l-2.898,1.537l-0,-1.973Z" style="fill:#e1e1e1;fill-opacity:0.12;"/><path d="M51.721,68.452l2.898,-1.537l0,1.973l-2.898,1.537l-0,-1.973Z" style="fill:#e1e1e1;fill-opacity:0.12;"/><path d="M47.856,66.403l3.865,2.049l-0,1.973l-3.865,-2.05l0,-1.972Z" style="fill:#e1e1e1;fill-opacity:0.12;"/><path d="M50.755,64.865l3.864,2.05l-2.898,1.537l-3.865,-2.049l2.899,-1.538Z" style="fill:#e1e1e1;fill-opacity:0.12;"/><path d="M50.755,64.865l3.864,2.05l-2.898,1.537l-3.865,-2.049l2.899,-1.538Z" style="fill:#e1e1e1;fill-opacity:0.12;"/><path d="M47.001,58.643l-0,1.973l-2.899,1.537l-3.864,-2.05l-0,-1.973l2.898,-1.537l3.865,2.05Z" style="fill:#001a35;"/><path d="M44.102,60.18l2.899,-1.537l-0,1.973l-2.899,1.537l0,-1.973Z" style="fill:#e1e1e1;fill-opacity:0.12;"/><path d="M44.102,60.18l2.899,-1.537l-0,1.973l-2.899,1.537l0,-1.973Z" style="fill:#e1e1e1;fill-opacity:0.12;"/><path d="M44.102,60.18l2.899,-1.537l-0,1.973l-2.899,1.537l0,-1.973Z" style="fill:#e1e1e1;fill-opacity:0.12;"/><path d="M40.238,58.13l3.864,2.05l0,1.973l-3.864,-2.05l-0,-1.973Z" style="fill:#e1e1e1;fill-opacity:0.12;"/><path d="M43.136,56.593l3.865,2.05l-2.899,1.537l-3.864,-2.05l2.898,-1.537Z" style="fill:#e1e1e1;fill-opacity:0.12;"/><path d="M43.136,56.593l3.865,2.05l-2.899,1.537l-3.864,-2.05l2.898,-1.537Z" style="fill:#e1e1e1;fill-opacity:0.12;"/><path d="M83.986,70.864c0.568,0.464 0.991,1.313 0.991,2.057l-0,18.779c-0,0.745 -0.423,1.145 -0.991,1.006l0,-21.842Zm-0.586,-0.311l-0,21.842c-0.568,-0.464 -0.991,-1.312 -0.991,-2.057l0,-18.779c0,-0.744 0.423,-1.144 0.991,-1.006Z" style="fill-opacity:0.19;"/><path d="M76.081,66.671c0.567,0.464 0.99,1.312 0.99,2.057l0,18.779c0,0.744 -0.423,1.144 -0.99,1.006l0,-21.842Zm-0.587,-0.311l0,21.842c-0.567,-0.464 -0.99,-1.312 -0.99,-2.057l-0,-18.779c-0,-0.745 0.423,-1.144 0.99,-1.006Z" style="fill-opacity:0.19;"/><path d="M68.462,62.782c0.568,0.463 0.991,1.312 0.991,2.056l-0,18.78c-0,0.744 -0.423,1.144 -0.991,1.006l0,-21.842Zm-0.586,-0.312l-0,21.842c-0.568,-0.463 -0.991,-1.312 -0.991,-2.056l0,-18.78c0,-0.744 0.423,-1.144 0.991,-1.006Z" style="fill-opacity:0.19;"/><path d="M85.791,74.912l-0,1.973l-2.899,1.537l-3.864,-2.049l-0,-1.973l2.898,-1.537l3.865,2.049Z" style="fill:#001a35;"/><path d="M82.892,76.45l2.899,-1.538l-0,1.973l-2.899,1.537l0,-1.972Z" style="fill:#e1e1e1;fill-opacity:0.12;"/><path d="M82.892,76.45l2.899,-1.538l-0,1.973l-2.899,1.537l0,-1.972Z" style="fill:#e1e1e1;fill-opacity:0.12;"/><path d="M82.892,76.45l2.899,-1.538l-0,1.973l-2.899,1.537l0,-1.972Z" style="fill:#e1e1e1;fill-opacity:0.12;"/><path d="M79.028,74.4l3.864,2.05l0,1.972l-3.864,-2.049l-0,-1.973Z" style="fill:#e1e1e1;fill-opacity:0.12;"/><path d="M81.926,72.863l3.865,2.049l-2.899,1.538l-3.864,-2.05l2.898,-1.537Z" style="fill:#e1e1e1;fill-opacity:0.12;"/><path d="M81.926,72.863l3.865,2.049l-2.899,1.538l-3.864,-2.05l2.898,-1.537Z" style="fill:#e1e1e1;fill-opacity:0.12;"/><path d="M77.885,80.348l0,1.972l-2.898,1.538l-3.865,-2.05l0,-1.973l2.899,-1.537l3.864,2.05Z" style="fill:#001a35;"/><path d="M74.987,81.885l2.898,-1.537l0,1.972l-2.898,1.538l-0,-1.973Z" style="fill:#e1e1e1;fill-opacity:0.12;"/><path d="M74.987,81.885l2.898,-1.537l0,1.972l-2.898,1.538l-0,-1.973Z" style="fill:#e1e1e1;fill-opacity:0.12;"/><path d="M74.987,81.885l2.898,-1.537l0,1.972l-2.898,1.538l-0,-1.973Z" style="fill:#e1e1e1;fill-opacity:0.12;"/><path d="M71.122,79.835l3.865,2.05l-0,1.973l-3.865,-2.05l0,-1.973Z" style="fill:#e1e1e1;fill-opacity:0.12;"/><path d="M74.021,78.298l3.864,2.05l-2.898,1.537l-3.865,-2.05l2.899,-1.537Z" style="fill:#e1e1e1;fill-opacity:0.12;"/><path d="M74.021,78.298l3.864,2.05l-2.898,1.537l-3.865,-2.05l2.899,-1.537Z" style="fill:#e1e1e1;fill-opacity:0.12;"/><path d="M70.267,72.076l-0,1.972l-2.899,1.538l-3.864,-2.05l-0,-1.973l2.898,-1.537l3.865,2.05Z" style="fill:#001a35;"/><path d="M67.368,73.613l2.899,-1.537l-0,1.972l-2.899,1.538l0,-1.973Z" style="fill:#e1e1e1;fill-opacity:0.12;"/><path d="M67.368,73.613l2.899,-1.537l-0,1.972l-2.899,1.538l0,-1.973Z" style="fill:#e1e1e1;fill-opacity:0.12;"/><path d="M67.368,73.613l2.899,-1.537l-0,1.972l-2.899,1.538l0,-1.973Z" style="fill:#e1e1e1;fill-opacity:0.12;"/><path d="M63.504,71.563l3.864,2.05l0,1.973l-3.864,-2.05l-0,-1.973Z" style="fill:#e1e1e1;fill-opacity:0.12;"/><path d="M66.402,70.026l3.865,2.05l-2.899,1.537l-3.864,-2.05l2.898,-1.537Z" style="fill:#e1e1e1;fill-opacity:0.12;"/><path d="M66.402,70.026l3.865,2.05l-2.899,1.537l-3.864,-2.05l2.898,-1.537Z" style="fill:#e1e1e1;fill-opacity:0.12;"/><path d="M106.273,83.732c0.568,0.463 0.991,1.312 0.991,2.056l-0,18.78c-0,0.744 -0.423,1.144 -0.991,1.006l0,-21.842Zm-0.586,-0.312l-0,21.842c-0.568,-0.463 -0.991,-1.312 -0.991,-2.056l0,-18.78c0,-0.744 0.423,-1.144 0.991,-1.006Z" style="fill-opacity:0.19;"/><path d="M98.368,79.538c0.567,0.464 0.99,1.313 0.99,2.057l0,18.779c0,0.745 -0.423,1.145 -0.99,1.006l-0,-21.842Zm-0.587,-0.311l0,21.842c-0.567,-0.463 -0.99,-1.312 -0.99,-2.056l-0,-18.78c-0,-0.744 0.423,-1.144 0.99,-1.006Z" style="fill-opacity:0.19;"/><path d="M90.749,75.649c0.568,0.464 0.991,1.312 0.991,2.057l-0,18.779c-0,0.744 -0.423,1.144 -0.991,1.006l0,-21.842Zm-0.586,-0.311l-0,21.842c-0.568,-0.464 -0.991,-1.313 -0.991,-2.057l0,-18.779c0,-0.745 0.423,-1.145 0.991,-1.006Z" style="fill-opacity:0.19;"/><path d="M108.078,87.78l-0,1.972l-2.899,1.538l-3.864,-2.05l-0,-1.973l2.898,-1.537l3.865,2.05Z" style="fill:#001a35;"/><path d="M105.179,89.317l2.899,-1.537l-0,1.972l-2.899,1.538l0,-1.973Z" style="fill:#e1e1e1;fill-opacity:0.12;"/><path d="M105.179,89.317l2.899,-1.537l-0,1.972l-2.899,1.538l0,-1.973Z" style="fill:#e1e1e1;fill-opacity:0.12;"/><path d="M105.179,89.317l2.899,-1.537l-0,1.972l-2.899,1.538l0,-1.973Z" style="fill:#e1e1e1;fill-opacity:0.12;"/><path d="M101.315,87.267l3.864,2.05l0,1.973l-3.864,-2.05l-0,-1.973Z" style="fill:#e1e1e1;fill-opacity:0.12;"/><path d="M104.213,85.73l3.865,2.05l-2.899,1.537l-3.864,-2.05l2.898,-1.537Z" style="fill:#e1e1e1;fill-opacity:0.12;"/><path d="M104.213,85.73l3.865,2.05l-2.899,1.537l-3.864,-2.05l2.898,-1.537Z" style="fill:#e1e1e1;fill-opacity:0.12;"/><path d="M100.172,93.215l0,1.973l-2.898,1.537l-3.865,-2.05l0,-1.972l2.899,-1.538l3.864,2.05Z" style="fill:#001a35;"/><path d="M97.274,94.752l2.898,-1.537l0,1.973l-2.898,1.537l-0,-1.973Z" style="fill:#e1e1e1;fill-opacity:0.12;"/><path d="M97.274,94.752l2.898,-1.537l0,1.973l-2.898,1.537l-0,-1.973Z" style="fill:#e1e1e1;fill-opacity:0.12;"/><path d="M97.274,94.752l2.898,-1.537l0,1.973l-2.898,1.537l-0,-1.973Z" style="fill:#e1e1e1;fill-opacity:0.12;"/><path d="M93.409,92.703l3.865,2.049l-0,1.973l-3.865,-2.05l0,-1.972Z" style="fill:#e1e1e1;fill-opacity:0.12;"/><path d="M96.308,91.165l3.864,2.05l-2.898,1.537l-3.865,-2.049l2.899,-1.538Z" style="fill:#e1e1e1;fill-opacity:0.12;"/><path d="M96.308,91.165l3.864,2.05l-2.898,1.537l-3.865,-2.049l2.899,-1.538Z" style="fill:#e1e1e1;fill-opacity:0.12;"/><path d="M92.554,84.943l-0,1.973l-2.899,1.537l-3.864,-2.05l-0,-1.972l2.898,-1.538l3.865,2.05Z" style="fill:#001a35;"/><path d="M89.655,86.48l2.899,-1.537l-0,1.973l-2.899,1.537l0,-1.973Z" style="fill:#e1e1e1;fill-opacity:0.12;"/><path d="M89.655,86.48l2.899,-1.537l-0,1.973l-2.899,1.537l0,-1.973Z" style="fill:#e1e1e1;fill-opacity:0.12;"/><path d="M89.655,86.48l2.899,-1.537l-0,1.973l-2.899,1.537l0,-1.973Z" style="fill:#e1e1e1;fill-opacity:0.12;"/><path d="M85.791,84.431l3.864,2.049l0,1.973l-3.864,-2.05l-0,-1.972Z" style="fill:#e1e1e1;fill-opacity:0.12;"/><path d="M88.689,82.893l3.865,2.05l-2.899,1.537l-3.864,-2.049l2.898,-1.538Z" style="fill:#e1e1e1;fill-opacity:0.12;"/><path d="M88.689,82.893l3.865,2.05l-2.899,1.537l-3.864,-2.049l2.898,-1.538Z" style="fill:#e1e1e1;fill-opacity:0.12;"/></svg>