<?xml version="1.0" encoding="UTF-8" standalone="no"?><!DOCTYPE svg PUBLIC "-//W3C//DTD SVG 1.1//EN" "http://www.w3.org/Graphics/SVG/1.1/DTD/svg11.dtd"><svg width="100%" height="100%" viewBox="0 0 200 200" version="1.1" xmlns="http://www.w3.org/2000/svg" xmlns:xlink="http://www.w3.org/1999/xlink" xml:space="preserve" xmlns:serif="http://www.serif.com/" style="fill-rule:evenodd;clip-rule:evenodd;stroke-linejoin:round;stroke-miterlimit:2;"><path d="M45.809,130.279c-0.018,0.24 -0.021,25.614 -0.008,26.838c0.015,1.455 1.085,2.987 3.157,4.183l44.126,25.476c3.817,2.204 9.6,2.444 12.905,0.535l45.979,-26.546c1.497,-0.864 2.231,-2.022 2.231,-3.235c0,-1.465 0,-25.373 0,-26.586c0,-1.465 -1.07,-3.01 -3.157,-4.215l-44.126,-25.476c-3.817,-2.204 -9.6,-2.444 -12.905,-0.535l-45.979,26.546c-1.407,0.812 -2.14,1.883 -2.223,3.015Z" style="fill:#d8d8d8;"/><path d="M106.916,101.253c-3.817,-2.204 -9.6,-2.444 -12.905,-0.535l-45.979,26.546c-3.306,1.908 -2.89,5.246 0.926,7.45l44.126,25.476c3.817,2.204 9.6,2.444 12.905,0.535l45.979,-26.546c3.306,-1.908 2.89,-5.247 -0.926,-7.45l-44.126,-25.476Z" style="fill:#d8d8d8;"/><path d="M45.805,130.666c-0.014,3.211 -0.016,25.31 -0.004,26.451c0.015,1.455 1.085,2.987 3.157,4.183l44.126,25.476c3.817,2.204 9.6,2.444 12.905,0.535l45.979,-26.546c1.497,-0.864 2.231,-2.022 2.231,-3.235c0,-1.465 0,-25.373 0,-26.586l0,-0.001c0.001,1.213 -0.733,2.371 -2.231,3.236l-45.979,26.546c-3.305,1.909 -9.088,1.669 -12.905,-0.535l-44.126,-25.476c-2.008,-1.16 -3.075,-2.634 -3.153,-4.048Z" style="fill:#949494;fill-opacity:0.15;"/><path d="M103.113,162.301c-0,-0.159 -0.129,-0.288 -0.287,-0.288l-4.278,0c-0.159,0 -0.287,0.129 -0.287,0.288l-0,26.011c-0,0.159 0.128,0.287 0.287,0.287l4.278,0c0.158,0 0.287,-0.128 0.287,-0.287l-0,-26.011Z" style="fill:#F8F8F8;fill-opacity:0.32;"/><path d="M101.06,162.216c-0,-0.112 -0.091,-0.203 -0.203,-0.203l-0.405,0c-0.112,0 -0.203,0.091 -0.203,0.203l0,26.181c0,0.112 0.091,0.202 0.203,0.202l0.405,0c0.112,0 0.203,-0.09 0.203,-0.202l-0,-26.181Z" style="fill:#F8F8F8;fill-opacity:0.32;"/><path d="M97.456,162.113c0,-0.168 -0.126,-0.34 -0.281,-0.383l-0.562,-0.159c-0.156,-0.044 -0.282,0.057 -0.282,0.224l0,25.979c0,0.168 0.126,0.339 0.282,0.383l0.562,0.159c0.155,0.043 0.281,-0.057 0.281,-0.225l0,-25.978Z" style="fill:#F8F8F8;fill-opacity:0.32;"/><path d="M152.583,134.597c0,-0.274 0.099,-0.607 0.22,-0.744l0.44,-0.493c0.122,-0.136 0.22,-0.024 0.22,0.25l0,25.592c0,0.274 -0.098,0.607 -0.22,0.744l-0.44,0.493c-0.121,0.137 -0.22,0.024 -0.22,-0.25l0,-25.592Z" style="fill:#F8F8F8;fill-opacity:0.32;"/><path d="M104.329,162.729c-0,-0.506 0.298,-1.1 0.666,-1.326l1.332,-0.818c0.368,-0.226 0.666,0.001 0.666,0.508l-0,24.751c-0,0.506 -0.298,1.101 -0.666,1.326l-1.332,0.819c-0.368,0.226 -0.666,-0.002 -0.666,-0.508l-0,-24.752Z" style="fill:#F8F8F8;fill-opacity:0.32;"/><path d="M47.136,133.921c-0,-0.274 -0.099,-0.607 -0.22,-0.744l-0.44,-0.493c-0.122,-0.137 -0.22,-0.024 -0.22,0.25l-0,25.592c-0,0.274 0.098,0.607 0.22,0.744l0.44,0.493c0.121,0.136 0.22,0.024 0.22,-0.25l-0,-25.592Z" style="fill:#F8F8F8;fill-opacity:0.32;"/><path d="M106.916,101.006c-3.817,-2.204 -9.6,-2.443 -12.905,-0.535l-45.979,26.546c-3.306,1.909 -2.89,5.247 0.926,7.451l44.126,25.476c3.817,2.203 9.6,2.443 12.905,0.535l45.979,-26.546c3.306,-1.909 2.89,-5.247 -0.926,-7.451l-44.126,-25.476Z" style="fill:#d8d8d8;"/><path d="M45.801,42.475c-0,0.084 -0,87.673 -0,87.778c-0,1.464 1.07,3.009 3.157,4.215l44.126,25.476c3.817,2.203 9.6,2.443 12.905,0.535l45.979,-26.546c1.554,-0.898 2.286,-2.111 2.228,-3.374c-0.007,-0.153 0.006,-87.606 0.001,-87.746c-0.05,-1.433 -1.118,-2.932 -3.155,-4.108l-44.126,-25.477c-3.817,-2.203 -9.6,-2.443 -12.905,-0.535l-45.979,26.546c-1.498,0.865 -2.232,2.023 -2.231,3.236Z" style="fill:#25BCB4;fill-opacity:0.26;"/><path d="M106.016,17.06c-3.32,-1.918 -8.351,-2.126 -11.226,-0.466l-40.002,23.095c-2.875,1.66 -2.514,4.565 0.806,6.482l38.39,22.164c3.32,1.917 8.351,2.125 11.226,0.465l40.002,-23.095c2.875,-1.66 2.514,-4.564 -0.806,-6.481l-38.39,-22.164Z" style="fill:#25BCB4;fill-opacity:0.25;"/><path d="M106.916,13.228c-3.817,-2.203 -9.6,-2.443 -12.905,-0.535l-45.979,26.546c-3.306,1.909 -2.89,5.247 0.926,7.451l44.126,25.476c3.817,2.204 9.6,2.443 12.905,0.535l45.979,-26.546c3.306,-1.908 2.89,-5.247 -0.926,-7.45l-44.126,-25.477Z" style="fill:#25BCB4;fill-opacity:0.25;"/><path d="M106.016,104.837c-3.32,-1.917 -8.351,-2.125 -11.226,-0.465l-40.002,23.095c-2.875,1.66 -2.514,4.564 0.806,6.482l38.39,22.164c3.32,1.917 8.351,2.125 11.226,0.465l40.002,-23.095c2.875,-1.66 2.514,-4.565 -0.806,-6.482l-38.39,-22.164Z" style="fill:#25BCB4;fill-opacity:0.25;"/><path d="M52.847,48.935l0,81.485c0,-0 0.055,0.599 0.364,1.214c0.476,0.946 1.92,2.047 1.92,2.047l39.331,22.708c-0,-0 2.016,0.856 3.296,1.068c0.741,0.123 2.242,0.245 2.242,0.245l-0,-83.718c-2.42,-0.059 -4.933,-0.673 -6.916,-1.818l-40.237,-23.231Z" style="fill:#f8f8f8;fill-opacity:0.1;"/><path d="M147.153,49.027l-0,81.484c-0,0 -0.055,0.6 -0.364,1.214c-0.476,0.947 -1.92,2.048 -1.92,2.048l-39.331,22.707c0,0 -2.016,0.857 -3.296,1.068c-0.741,0.123 -2.242,0.246 -2.242,0.246l-0,-83.718c2.42,-0.059 4.933,-0.674 6.916,-1.818l40.237,-23.231Z" style="fill:#f8f8f8;fill-opacity:0.1;"/><path d="M102.096,75.086c0,-0.578 -0.469,-1.048 -1.048,-1.048l-2.096,0c-0.579,0 -1.048,0.47 -1.048,1.048l-0,85.484c-0,0.579 0.469,1.048 1.048,1.048l2.096,0c0.579,0 1.048,-0.469 1.048,-1.048l0,-85.484Z" style="fill:#F8F8F8;fill-opacity:0.44;"/><path d="M100.093,74.315c0,-0.153 -0.124,-0.277 -0.277,-0.277l-0.555,0c-0.153,0 -0.277,0.124 -0.277,0.277l0,87.026c0,0.153 0.124,0.277 0.277,0.277l0.555,0c0.153,0 0.277,-0.124 0.277,-0.277l0,-87.026Z" style="fill:#F8F8F8;fill-opacity:0.44;"/><path d="M47.41,45.747c-0,-0.153 -0.125,-0.277 -0.278,-0.277l-0.554,0c-0.153,0 -0.277,0.124 -0.277,0.277l-0,87.026c-0,0.153 0.124,0.277 0.277,0.277l0.554,0c0.153,0 0.278,-0.124 0.278,-0.277l-0,-87.026Z" style="fill:#f8f8f8;fill-opacity:0.82;"/><path d="M153.775,45.95c-0,-0.153 -0.125,-0.277 -0.278,-0.277l-0.554,0c-0.153,0 -0.277,0.124 -0.277,0.277l-0,87.026c-0,0.153 0.124,0.277 0.277,0.277l0.554,0c0.153,0 0.278,-0.124 0.278,-0.277l-0,-87.026Z" style="fill:#f8f8f8;fill-opacity:0.82;"/><path d="M45.817,42.251c-0.018,0.239 -0.021,25.613 -0.008,26.838c0.015,1.455 1.085,2.986 3.157,4.182l44.126,25.476c3.817,2.204 9.599,2.444 12.905,0.535l45.979,-26.546c1.497,-0.864 2.231,-2.022 2.231,-3.235c0,-1.465 0,-25.373 0,-26.586c0,-1.465 -1.07,-3.01 -3.158,-4.215l-44.126,-25.476c-3.816,-2.204 -9.599,-2.444 -12.904,-0.535l-45.979,26.546c-1.407,0.812 -2.14,1.883 -2.223,3.016Z" style="fill:#d8d8d8;"/><path d="M106.923,13.224c-3.816,-2.204 -9.599,-2.444 -12.904,-0.535l-45.979,26.546c-3.306,1.908 -2.891,5.247 0.926,7.45l44.126,25.477c3.817,2.203 9.599,2.443 12.905,0.534l45.979,-26.546c3.305,-1.908 2.89,-5.246 -0.927,-7.45l-44.126,-25.476Z" style="fill:#d8d8d8;"/><path d="M45.813,42.637c-0.015,3.211 -0.017,25.311 -0.004,26.452c0.015,1.455 1.085,2.986 3.157,4.182l44.126,25.476c3.817,2.204 9.599,2.444 12.905,0.535l45.979,-26.546c1.497,-0.864 2.231,-2.022 2.231,-3.235c0,-1.465 0,-25.373 0,-26.586l0,-0.001c0,1.213 -0.733,2.372 -2.231,3.236l-45.979,26.546c-3.306,1.909 -9.088,1.669 -12.905,-0.534l-44.126,-25.477c-2.009,-1.159 -3.075,-2.634 -3.153,-4.048Z" style="fill:#949494;fill-opacity:0.15;"/><path d="M103.121,74.272c-0,-0.159 -0.129,-0.287 -0.287,-0.287l-4.278,-0c-0.159,-0 -0.287,0.128 -0.287,0.287l-0,26.011c-0,0.159 0.128,0.288 0.287,0.288l4.278,-0c0.158,-0 0.287,-0.129 0.287,-0.288l-0,-26.011Z" style="fill:#F8F8F8;fill-opacity:0.32;"/><path d="M101.067,74.187c0,-0.112 -0.09,-0.202 -0.202,-0.202l-0.405,-0c-0.112,-0 -0.203,0.09 -0.203,0.202l0,26.181c0,0.112 0.091,0.203 0.203,0.203l0.405,-0c0.112,-0 0.202,-0.091 0.202,-0.203l0,-26.181Z" style="fill:#F8F8F8;fill-opacity:0.32;"/><path d="M97.464,74.084c-0,-0.168 -0.126,-0.339 -0.281,-0.383l-0.563,-0.159c-0.155,-0.043 -0.281,0.057 -0.281,0.225l0,25.979c0,0.167 0.126,0.339 0.281,0.382l0.563,0.159c0.155,0.044 0.281,-0.057 0.281,-0.224l-0,-25.979Z" style="fill:#F8F8F8;fill-opacity:0.32;"/><path d="M152.591,46.568c0,-0.274 0.099,-0.607 0.22,-0.743l0.44,-0.494c0.121,-0.136 0.22,-0.024 0.22,0.25l-0,25.592c-0,0.275 -0.099,0.608 -0.22,0.744l-0.44,0.494c-0.121,0.136 -0.22,0.024 -0.22,-0.25l0,-25.593Z" style="fill:#F8F8F8;fill-opacity:0.32;"/><path d="M104.337,74.701c-0,-0.507 0.298,-1.101 0.666,-1.327l1.332,-0.818c0.367,-0.226 0.666,0.002 0.666,0.508l-0,24.751c-0,0.507 -0.299,1.101 -0.666,1.327l-1.332,0.818c-0.368,0.226 -0.666,-0.002 -0.666,-0.508l-0,-24.751Z" style="fill:#F8F8F8;fill-opacity:0.32;"/><path d="M47.143,45.892c0,-0.274 -0.098,-0.607 -0.22,-0.743l-0.439,-0.494c-0.122,-0.136 -0.22,-0.024 -0.22,0.25l-0,25.592c-0,0.274 0.098,0.608 0.22,0.744l0.439,0.494c0.122,0.136 0.22,0.024 0.22,-0.251l0,-25.592Z" style="fill:#F8F8F8;fill-opacity:0.32;"/><path d="M154.199,142.108c0,-1.118 -0.68,-1.633 -1.519,-1.149l-40.92,23.626c-0.839,0.484 -1.519,1.784 -1.519,2.902l-0,11.932c-0,1.118 0.68,1.632 1.519,1.148l40.92,-23.625c0.839,-0.484 1.519,-1.785 1.519,-2.903l0,-11.931Z" style="fill:#D8D8D8;"/><path d="M108.586,179.032c0.049,0.038 1.859,1.43 2.181,1.615c0.266,0.154 0.613,0.139 0.993,-0.08l40.92,-23.625c0.839,-0.484 1.519,-1.785 1.519,-2.903l0,-11.931c0,-0.542 -0.159,-0.942 -0.419,-1.155c-0.277,-0.227 -1.851,-1.374 -2.126,-1.582c-0.275,-0.208 -0.655,-0.215 -1.074,0.027l-40.92,23.625c-0.839,0.484 -1.519,1.785 -1.519,2.903l-0,11.931c-0,0.559 0.17,0.967 0.445,1.175Z" style="fill:#F8F8F8;fill-opacity:0.55;"/><path d="M150.221,145.595c0.001,0.029 0.002,0.057 0.002,0.087l-0,6.494c-0,0.843 -0.514,1.824 -1.146,2.19l-36.107,20.846c0.034,0.783 0.533,1.133 1.144,0.78l36.21,-20.906c0.633,-0.365 1.146,-1.347 1.146,-2.19l0,-6.494c0,-0.843 -0.513,-1.231 -1.146,-0.866l-0.103,0.059Z" style="fill:#949494;fill-opacity:0.42;"/><path d="M150.222,145.595l-36.107,20.846c-0.633,0.366 -1.146,1.347 -1.146,2.19l-0,6.494c-0,0.03 0,0.058 0.002,0.086l36.107,-20.846c0.632,-0.365 1.146,-1.346 1.146,-2.19l-0,-6.494c-0,-0.029 -0.001,-0.058 -0.002,-0.086Z" style="fill:#001B35;"/><path d="M110.766,180.647l0.001,0c0.008,0.005 -0.001,0 -0.001,0Zm-0.027,-0.017c-0.306,-0.194 -0.498,-0.617 -0.498,-1.211l-0,-11.932c-0,-1.118 0.68,-2.418 1.519,-2.902l40.92,-23.626c0.445,-0.257 0.846,-0.232 1.124,0.015c-0.008,-0.007 -0.016,-0.014 -0.024,-0.021c-0.277,-0.227 -1.851,-1.374 -2.126,-1.582c-0.275,-0.208 -0.655,-0.215 -1.074,0.027l-40.92,23.625c-0.839,0.484 -1.519,1.785 -1.519,2.903l-0,11.931c-0,0.559 0.17,0.967 0.445,1.175c0.048,0.037 1.765,1.358 2.153,1.598Z" style="fill:#F8F8F8;fill-opacity:0.5;"/><path d="M108.141,165.926l2.1,1.561c-0,-1.118 0.68,-2.418 1.519,-2.902l-2.1,-1.562c-0.839,0.484 -1.519,1.785 -1.519,2.903Z" style="fill:#F8F8F8;fill-opacity:0.5;"/><path d="M108.141,165.926l2.1,1.561c-0,-1.118 0.504,-1.849 0.885,-2.331l-2.108,-1.563c-0.359,0.511 -0.877,1.215 -0.877,2.333Z" style="fill:#F8F8F8;fill-opacity:0.5;"/><path d="M130.889,162.604l-0.902,0.52l0,0.539l0.902,-0.52l-0,-0.539Z" style="fill:#F8F8F8;fill-opacity:0.12;"/><path d="M132.355,161.757l-0.901,0.521l-0,0.538l0.901,-0.52l0,-0.539Z" style="fill:#F8F8F8;fill-opacity:0.12;"/><path d="M133.822,160.911l-0.902,0.52l0,0.539l0.902,-0.521l-0,-0.538Z" style="fill:#F8F8F8;fill-opacity:0.12;"/><path d="M135.288,160.064l-0.901,0.52l0,0.539l0.901,-0.52l0,-0.539Z" style="fill:#F8F8F8;fill-opacity:0.12;"/><path d="M136.755,159.217l-0.901,0.521l-0,0.538l0.901,-0.52l-0,-0.539Z" style="fill:#F8F8F8;fill-opacity:0.12;"/><path d="M138.221,158.371l-0.901,0.52l0,0.539l0.901,-0.521l0,-0.538Z" style="fill:#F8F8F8;fill-opacity:0.12;"/><path d="M139.688,157.524l-0.901,0.52l-0,0.539l0.901,-0.52l-0,-0.539Z" style="fill:#F8F8F8;fill-opacity:0.12;"/><path d="M141.154,156.677l-0.901,0.521l0,0.538l0.901,-0.52l0,-0.539Z" style="fill:#F8F8F8;fill-opacity:0.12;"/><path d="M142.621,155.831l-0.901,0.52l-0,0.538l0.901,-0.52l-0,-0.538Z" style="fill:#F8F8F8;fill-opacity:0.12;"/><path d="M144.087,154.984l-0.901,0.52l0,0.539l0.901,-0.521l0,-0.538Z" style="fill:#F8F8F8;fill-opacity:0.12;"/><path d="M145.554,154.137l-0.901,0.52l-0,0.539l0.901,-0.52l0,-0.539Z" style="fill:#F8F8F8;fill-opacity:0.12;"/><path d="M147.021,153.29l-0.902,0.521l0,0.538l0.902,-0.52l-0,-0.539Z" style="fill:#F8F8F8;fill-opacity:0.12;"/><path d="M148.487,152.444l-0.901,0.52l-0,0.539l0.901,-0.521l0,-0.538Z" style="fill:#F8F8F8;fill-opacity:0.12;"/><path d="M130.889,161.635l-0.902,0.52l0,0.539l0.902,-0.52l-0,-0.539Z" style="fill:#F8F8F8;fill-opacity:0.12;"/><path d="M132.355,160.788l-0.901,0.521l-0,0.538l0.901,-0.52l0,-0.539Z" style="fill:#F8F8F8;fill-opacity:0.12;"/><path d="M133.822,159.942l-0.902,0.52l0,0.539l0.902,-0.521l-0,-0.538Z" style="fill:#F8F8F8;fill-opacity:0.12;"/><path d="M135.288,159.095l-0.901,0.52l0,0.539l0.901,-0.52l0,-0.539Z" style="fill:#F8F8F8;fill-opacity:0.12;"/><path d="M136.755,158.248l-0.901,0.521l-0,0.538l0.901,-0.52l-0,-0.539Z" style="fill:#F8F8F8;fill-opacity:0.12;"/><path d="M138.221,157.402l-0.901,0.52l0,0.539l0.901,-0.521l0,-0.538Z" style="fill:#F8F8F8;fill-opacity:0.12;"/><path d="M139.688,156.555l-0.901,0.52l-0,0.539l0.901,-0.52l-0,-0.539Z" style="fill:#F8F8F8;fill-opacity:0.12;"/><path d="M141.154,155.708l-0.901,0.52l0,0.539l0.901,-0.52l0,-0.539Z" style="fill:#F8F8F8;fill-opacity:0.12;"/><path d="M142.621,154.861l-0.901,0.521l-0,0.538l0.901,-0.52l-0,-0.539Z" style="fill:#F8F8F8;fill-opacity:0.12;"/><path d="M144.087,154.015l-0.901,0.52l0,0.539l0.901,-0.521l0,-0.538Z" style="fill:#F8F8F8;fill-opacity:0.12;"/><path d="M145.554,153.168l-0.901,0.52l-0,0.539l0.901,-0.52l0,-0.539Z" style="fill:#F8F8F8;fill-opacity:0.12;"/><path d="M147.021,152.321l-0.902,0.521l0,0.538l0.902,-0.52l-0,-0.539Z" style="fill:#F8F8F8;fill-opacity:0.12;"/><path d="M148.487,151.475l-0.901,0.52l-0,0.539l0.901,-0.521l0,-0.538Z" style="fill:#F8F8F8;fill-opacity:0.12;"/><path d="M130.889,160.666l-0.902,0.52l0,0.539l0.902,-0.52l-0,-0.539Z" style="fill:#F8F8F8;fill-opacity:0.12;"/><path d="M132.355,159.819l-0.901,0.521l-0,0.538l0.901,-0.52l0,-0.539Z" style="fill:#F8F8F8;fill-opacity:0.12;"/><path d="M133.822,158.973l-0.902,0.52l0,0.539l0.902,-0.521l-0,-0.538Z" style="fill:#F8F8F8;fill-opacity:0.12;"/><path d="M135.288,158.126l-0.901,0.52l0,0.539l0.901,-0.52l0,-0.539Z" style="fill:#F8F8F8;fill-opacity:0.12;"/><path d="M136.755,157.279l-0.901,0.521l-0,0.538l0.901,-0.52l-0,-0.539Z" style="fill:#F8F8F8;fill-opacity:0.12;"/><path d="M138.221,156.433l-0.901,0.52l0,0.539l0.901,-0.521l0,-0.538Z" style="fill:#F8F8F8;fill-opacity:0.12;"/><path d="M139.688,155.586l-0.901,0.52l-0,0.539l0.901,-0.52l-0,-0.539Z" style="fill:#F8F8F8;fill-opacity:0.12;"/><path d="M141.154,154.739l-0.901,0.52l0,0.539l0.901,-0.52l0,-0.539Z" style="fill:#F8F8F8;fill-opacity:0.12;"/><path d="M142.621,153.892l-0.901,0.521l-0,0.538l0.901,-0.52l-0,-0.539Z" style="fill:#F8F8F8;fill-opacity:0.12;"/><path d="M144.087,153.046l-0.901,0.52l0,0.539l0.901,-0.521l0,-0.538Z" style="fill:#F8F8F8;fill-opacity:0.12;"/><path d="M145.554,152.199l-0.901,0.52l-0,0.539l0.901,-0.52l0,-0.539Z" style="fill:#F8F8F8;fill-opacity:0.12;"/><path d="M147.021,151.352l-0.902,0.521l0,0.538l0.902,-0.52l-0,-0.539Z" style="fill:#F8F8F8;fill-opacity:0.12;"/><path d="M148.487,150.506l-0.901,0.52l-0,0.539l0.901,-0.521l0,-0.538Z" style="fill:#F8F8F8;fill-opacity:0.12;"/><path d="M130.889,159.697l-0.902,0.52l0,0.539l0.902,-0.52l-0,-0.539Z" style="fill:#F8F8F8;fill-opacity:0.12;"/><path d="M132.355,158.85l-0.901,0.521l-0,0.538l0.901,-0.52l0,-0.539Z" style="fill:#F8F8F8;fill-opacity:0.12;"/><path d="M133.822,158.004l-0.902,0.52l0,0.539l0.902,-0.521l-0,-0.538Z" style="fill:#F8F8F8;fill-opacity:0.12;"/><path d="M135.288,157.157l-0.901,0.52l0,0.539l0.901,-0.52l0,-0.539Z" style="fill:#F8F8F8;fill-opacity:0.12;"/><path d="M136.755,156.31l-0.901,0.521l-0,0.538l0.901,-0.52l-0,-0.539Z" style="fill:#F8F8F8;fill-opacity:0.12;"/><path d="M138.221,155.464l-0.901,0.52l0,0.539l0.901,-0.521l0,-0.538Z" style="fill:#F8F8F8;fill-opacity:0.12;"/><path d="M139.688,154.617l-0.901,0.52l-0,0.539l0.901,-0.52l-0,-0.539Z" style="fill:#F8F8F8;fill-opacity:0.12;"/><path d="M141.154,153.77l-0.901,0.52l0,0.539l0.901,-0.52l0,-0.539Z" style="fill:#F8F8F8;fill-opacity:0.12;"/><path d="M142.621,152.923l-0.901,0.521l-0,0.538l0.901,-0.52l-0,-0.539Z" style="fill:#F8F8F8;fill-opacity:0.12;"/><path d="M144.087,152.077l-0.901,0.52l0,0.539l0.901,-0.521l0,-0.538Z" style="fill:#F8F8F8;fill-opacity:0.12;"/><path d="M145.554,151.23l-0.901,0.52l-0,0.539l0.901,-0.52l0,-0.539Z" style="fill:#F8F8F8;fill-opacity:0.12;"/><path d="M147.021,150.383l-0.902,0.521l0,0.538l0.902,-0.52l-0,-0.539Z" style="fill:#F8F8F8;fill-opacity:0.12;"/><path d="M148.487,149.537l-0.901,0.52l-0,0.539l0.901,-0.521l0,-0.538Z" style="fill:#F8F8F8;fill-opacity:0.12;"/><path d="M130.889,158.728l-0.902,0.52l0,0.539l0.902,-0.52l-0,-0.539Z" style="fill:#F8F8F8;fill-opacity:0.12;"/><path d="M132.355,157.881l-0.901,0.521l-0,0.538l0.901,-0.52l0,-0.539Z" style="fill:#F8F8F8;fill-opacity:0.12;"/><path d="M133.822,157.035l-0.902,0.52l0,0.539l0.902,-0.521l-0,-0.538Z" style="fill:#F8F8F8;fill-opacity:0.12;"/><path d="M135.288,156.188l-0.901,0.52l0,0.539l0.901,-0.52l0,-0.539Z" style="fill:#F8F8F8;fill-opacity:0.12;"/><path d="M136.755,155.341l-0.901,0.521l-0,0.538l0.901,-0.52l-0,-0.539Z" style="fill:#F8F8F8;fill-opacity:0.12;"/><path d="M138.221,154.495l-0.901,0.52l0,0.539l0.901,-0.521l0,-0.538Z" style="fill:#F8F8F8;fill-opacity:0.12;"/><path d="M139.688,153.648l-0.901,0.52l-0,0.539l0.901,-0.52l-0,-0.539Z" style="fill:#F8F8F8;fill-opacity:0.12;"/><path d="M141.154,152.801l-0.901,0.52l0,0.539l0.901,-0.52l0,-0.539Z" style="fill:#F8F8F8;fill-opacity:0.12;"/><path d="M142.621,151.954l-0.901,0.521l-0,0.538l0.901,-0.52l-0,-0.539Z" style="fill:#F8F8F8;fill-opacity:0.12;"/><path d="M144.087,151.108l-0.901,0.52l0,0.539l0.901,-0.521l0,-0.538Z" style="fill:#F8F8F8;fill-opacity:0.12;"/><path d="M145.554,150.261l-0.901,0.52l-0,0.539l0.901,-0.52l0,-0.539Z" style="fill:#F8F8F8;fill-opacity:0.12;"/><path d="M147.021,149.414l-0.902,0.521l0,0.538l0.902,-0.52l-0,-0.539Z" style="fill:#F8F8F8;fill-opacity:0.12;"/><path d="M148.487,148.568l-0.901,0.52l-0,0.539l0.901,-0.521l0,-0.538Z" style="fill:#F8F8F8;fill-opacity:0.12;"/><path d="M130.889,157.759l-0.902,0.52l0,0.539l0.902,-0.52l-0,-0.539Z" style="fill:#F8F8F8;fill-opacity:0.12;"/><path d="M132.355,156.912l-0.901,0.521l-0,0.538l0.901,-0.52l0,-0.539Z" style="fill:#F8F8F8;fill-opacity:0.12;"/><path d="M133.822,156.066l-0.902,0.52l0,0.539l0.902,-0.521l-0,-0.538Z" style="fill:#F8F8F8;fill-opacity:0.12;"/><path d="M135.288,155.219l-0.901,0.52l0,0.539l0.901,-0.52l0,-0.539Z" style="fill:#F8F8F8;fill-opacity:0.12;"/><path d="M136.755,154.372l-0.901,0.521l-0,0.538l0.901,-0.52l-0,-0.539Z" style="fill:#F8F8F8;fill-opacity:0.12;"/><path d="M138.221,153.526l-0.901,0.52l0,0.539l0.901,-0.521l0,-0.538Z" style="fill:#F8F8F8;fill-opacity:0.12;"/><path d="M139.688,152.679l-0.901,0.52l-0,0.539l0.901,-0.52l-0,-0.539Z" style="fill:#F8F8F8;fill-opacity:0.12;"/><path d="M141.154,151.832l-0.901,0.52l0,0.539l0.901,-0.52l0,-0.539Z" style="fill:#F8F8F8;fill-opacity:0.12;"/><path d="M142.621,150.985l-0.901,0.521l-0,0.538l0.901,-0.52l-0,-0.539Z" style="fill:#F8F8F8;fill-opacity:0.12;"/><path d="M144.087,150.139l-0.901,0.52l0,0.539l0.901,-0.521l0,-0.538Z" style="fill:#F8F8F8;fill-opacity:0.12;"/><path d="M145.554,149.292l-0.901,0.52l-0,0.539l0.901,-0.52l0,-0.539Z" style="fill:#F8F8F8;fill-opacity:0.12;"/><path d="M147.021,148.445l-0.902,0.521l0,0.538l0.902,-0.52l-0,-0.539Z" style="fill:#F8F8F8;fill-opacity:0.12;"/><path d="M148.487,147.599l-0.901,0.52l-0,0.539l0.901,-0.521l0,-0.538Z" style="fill:#F8F8F8;fill-opacity:0.12;"/><path d="M130.889,163.603l-0.902,0.521l0,0.538l0.902,-0.52l-0,-0.539Z" style="fill:#F8F8F8;fill-opacity:0.12;"/><path d="M132.355,162.757l-0.901,0.52l-0,0.539l0.901,-0.521l0,-0.538Z" style="fill:#F8F8F8;fill-opacity:0.12;"/><path d="M133.822,161.91l-0.902,0.52l0,0.539l0.902,-0.52l-0,-0.539Z" style="fill:#F8F8F8;fill-opacity:0.12;"/><path d="M135.288,161.063l-0.901,0.521l0,0.538l0.901,-0.52l0,-0.539Z" style="fill:#F8F8F8;fill-opacity:0.12;"/><path d="M136.755,160.217l-0.901,0.52l-0,0.538l0.901,-0.52l-0,-0.538Z" style="fill:#F8F8F8;fill-opacity:0.12;"/><path d="M138.221,159.37l-0.901,0.52l0,0.539l0.901,-0.521l0,-0.538Z" style="fill:#F8F8F8;fill-opacity:0.12;"/><path d="M139.688,158.523l-0.901,0.52l-0,0.539l0.901,-0.52l-0,-0.539Z" style="fill:#F8F8F8;fill-opacity:0.12;"/><path d="M141.154,157.676l-0.901,0.521l0,0.538l0.901,-0.52l0,-0.539Z" style="fill:#F8F8F8;fill-opacity:0.12;"/><path d="M142.621,156.83l-0.901,0.52l-0,0.539l0.901,-0.521l-0,-0.538Z" style="fill:#F8F8F8;fill-opacity:0.12;"/><path d="M144.087,155.983l-0.901,0.52l0,0.539l0.901,-0.52l0,-0.539Z" style="fill:#F8F8F8;fill-opacity:0.12;"/><path d="M145.554,155.136l-0.901,0.521l-0,0.538l0.901,-0.52l0,-0.539Z" style="fill:#F8F8F8;fill-opacity:0.12;"/><path d="M147.021,154.29l-0.902,0.52l0,0.539l0.902,-0.521l-0,-0.538Z" style="fill:#F8F8F8;fill-opacity:0.12;"/><path d="M148.487,153.443l-0.901,0.52l-0,0.539l0.901,-0.52l0,-0.539Z" style="fill:#F8F8F8;fill-opacity:0.12;"/><path d="M130.889,162.604l-0.902,0.52l0,0.539l0.902,-0.52l-0,-0.539Z" style="fill:#25bcb4;"/><path d="M132.355,161.757l-0.901,0.521l-0,0.538l0.901,-0.52l0,-0.539Z" style="fill:#25bcb4;"/><path d="M133.822,160.911l-0.902,0.52l0,0.539l0.902,-0.521l-0,-0.538Z" style="fill:#25bcb4;"/><path d="M135.288,160.064l-0.901,0.52l0,0.539l0.901,-0.52l0,-0.539Z" style="fill:#25bcb4;"/><path d="M138.221,158.371l-0.901,0.52l0,0.539l0.901,-0.521l0,-0.538Z" style="fill:#25bcb4;"/><path d="M139.688,157.524l-0.901,0.52l-0,0.539l0.901,-0.52l-0,-0.539Z" style="fill:#25bcb4;"/><path d="M141.154,156.677l-0.901,0.521l0,0.538l0.901,-0.52l0,-0.539Z" style="fill:#25bcb4;"/><path d="M142.621,155.831l-0.901,0.52l-0,0.538l0.901,-0.52l-0,-0.538Z" style="fill:#25bcb4;"/><path d="M144.087,154.984l-0.901,0.52l0,0.539l0.901,-0.521l0,-0.538Z" style="fill:#25bcb4;"/><path d="M145.554,154.137l-0.901,0.52l-0,0.539l0.901,-0.52l0,-0.539Z" style="fill:#25bcb4;"/><path d="M147.021,153.29l-0.902,0.521l0,0.538l0.902,-0.52l-0,-0.539Z" style="fill:#25bcb4;"/><path d="M148.487,152.444l-0.901,0.52l-0,0.539l0.901,-0.521l0,-0.538Z" style="fill:#25bcb4;"/><path d="M130.889,161.635l-0.902,0.52l0,0.539l0.902,-0.52l-0,-0.539Z" style="fill:#25bcb4;"/><path d="M132.355,160.788l-0.901,0.521l-0,0.538l0.901,-0.52l0,-0.539Z" style="fill:#25bcb4;"/><path d="M135.288,159.095l-0.901,0.52l0,0.539l0.901,-0.52l0,-0.539Z" style="fill:#25bcb4;"/><path d="M138.221,157.402l-0.901,0.52l0,0.539l0.901,-0.521l0,-0.538Z" style="fill:#25bcb4;"/><path d="M139.688,156.555l-0.901,0.52l-0,0.539l0.901,-0.52l-0,-0.539Z" style="fill:#25bcb4;"/><path d="M142.621,154.861l-0.901,0.521l-0,0.538l0.901,-0.52l-0,-0.539Z" style="fill:#25bcb4;"/><path d="M144.087,154.015l-0.901,0.52l0,0.539l0.901,-0.521l0,-0.538Z" style="fill:#25bcb4;"/><path d="M145.554,153.168l-0.901,0.52l-0,0.539l0.901,-0.52l0,-0.539Z" style="fill:#25bcb4;"/><path d="M147.021,152.321l-0.902,0.521l0,0.538l0.902,-0.52l-0,-0.539Z" style="fill:#25bcb4;"/><path d="M148.487,151.475l-0.901,0.52l-0,0.539l0.901,-0.521l0,-0.538Z" style="fill:#25bcb4;"/><path d="M132.355,159.819l-0.901,0.521l-0,0.538l0.901,-0.52l0,-0.539Z" style="fill:#25bcb4;"/><path d="M135.288,158.126l-0.901,0.52l0,0.539l0.901,-0.52l0,-0.539Z" style="fill:#25bcb4;"/><path d="M139.688,155.586l-0.901,0.52l-0,0.539l0.901,-0.52l-0,-0.539Z" style="fill:#25bcb4;"/><path d="M139.688,154.617l-0.901,0.52l-0,0.539l0.901,-0.52l-0,-0.539Z" style="fill:#25bcb4;"/><path d="M142.621,153.892l-0.901,0.521l-0,0.538l0.901,-0.52l-0,-0.539Z" style="fill:#25bcb4;"/><path d="M145.554,152.199l-0.901,0.52l-0,0.539l0.901,-0.52l0,-0.539Z" style="fill:#25bcb4;"/><path d="M148.487,150.506l-0.901,0.52l-0,0.539l0.901,-0.521l0,-0.538Z" style="fill:#25bcb4;"/><path d="M135.288,157.157l-0.901,0.52l0,0.539l0.901,-0.52l0,-0.539Z" style="fill:#25bcb4;"/><path d="M142.621,152.923l-0.901,0.521l-0,0.538l0.901,-0.52l-0,-0.539Z" style="fill:#25bcb4;"/><path d="M145.554,151.23l-0.901,0.52l-0,0.539l0.901,-0.52l0,-0.539Z" style="fill:#25bcb4;"/><path d="M148.487,149.537l-0.901,0.52l-0,0.539l0.901,-0.521l0,-0.538Z" style="fill:#25bcb4;"/><path d="M135.288,156.188l-0.901,0.52l0,0.539l0.901,-0.52l0,-0.539Z" style="fill:#25bcb4;"/><path d="M142.621,151.954l-0.901,0.521l-0,0.538l0.901,-0.52l-0,-0.539Z" style="fill:#25bcb4;"/><path d="M145.554,150.261l-0.901,0.52l-0,0.539l0.901,-0.52l0,-0.539Z" style="fill:#25bcb4;"/><path d="M148.487,148.568l-0.901,0.52l-0,0.539l0.901,-0.521l0,-0.538Z" style="fill:#25bcb4;"/><path d="M142.621,150.985l-0.901,0.521l-0,0.538l0.901,-0.52l-0,-0.539Z" style="fill:#25bcb4;"/><path d="M148.487,147.599l-0.901,0.52l-0,0.539l0.901,-0.521l0,-0.538Z" style="fill:#25bcb4;"/><path d="M130.889,163.603l-0.902,0.521l0,0.538l0.902,-0.52l-0,-0.539Z" style="fill:#25bcb4;"/><path d="M132.355,162.757l-0.901,0.52l-0,0.539l0.901,-0.521l0,-0.538Z" style="fill:#25bcb4;"/><path d="M133.822,161.91l-0.902,0.52l0,0.539l0.902,-0.52l-0,-0.539Z" style="fill:#25bcb4;"/><path d="M135.288,161.063l-0.901,0.521l0,0.538l0.901,-0.52l0,-0.539Z" style="fill:#25bcb4;"/><path d="M136.755,160.217l-0.901,0.52l-0,0.538l0.901,-0.52l-0,-0.538Z" style="fill:#25bcb4;"/><path d="M138.221,159.37l-0.901,0.52l0,0.539l0.901,-0.521l0,-0.538Z" style="fill:#25bcb4;"/><path d="M139.688,158.523l-0.901,0.52l-0,0.539l0.901,-0.52l-0,-0.539Z" style="fill:#25bcb4;"/><path d="M141.154,157.676l-0.901,0.521l0,0.538l0.901,-0.52l0,-0.539Z" style="fill:#25bcb4;"/><path d="M142.621,156.83l-0.901,0.52l-0,0.539l0.901,-0.521l-0,-0.538Z" style="fill:#25bcb4;"/><path d="M144.087,155.983l-0.901,0.52l0,0.539l0.901,-0.52l0,-0.539Z" style="fill:#25bcb4;"/><path d="M145.554,155.136l-0.901,0.521l-0,0.538l0.901,-0.52l0,-0.539Z" style="fill:#25bcb4;"/><path d="M147.021,154.29l-0.902,0.52l0,0.539l0.902,-0.521l-0,-0.538Z" style="fill:#25bcb4;"/><path d="M148.487,153.443l-0.901,0.52l-0,0.539l0.901,-0.52l0,-0.539Z" style="fill:#25bcb4;"/><path d="M114.156,168.002l0,1.907l0.86,0.497l2.046,-1.181l-0,-1.908l-0.86,-0.496l-2.046,1.181Z" style="fill:#001B35;"/><path d="M114.156,168.002l0,1.907l0.86,0.497l2.046,-1.181l-0,-1.908l-0.86,-0.496l-2.046,1.181Z" style="fill:#F8F8F8;fill-opacity:0.05;"/><path d="M115.016,168.498l-0.86,-0.496l0,1.907l0.86,0.497l2.046,-1.181l-0,-1.908l-2.046,1.181Z" style="fill:#F8F8F8;fill-opacity:0.05;"/><path d="M114.156,168.002l0,1.907l0.86,0.497l-0,-1.908l-0.86,-0.496Z" style="fill:#F8F8F8;fill-opacity:0.05;"/><path d="M114.156,170.902l0,1.908l0.86,0.496l2.046,-1.181l-0,-1.908l-0.86,-0.496l-2.046,1.181Z" style="fill:#001B35;"/><path d="M114.156,170.902l0,1.908l0.86,0.496l2.046,-1.181l-0,-1.908l-0.86,-0.496l-2.046,1.181Z" style="fill:#F8F8F8;fill-opacity:0.05;"/><path d="M115.016,171.398l-0.86,-0.496l0,1.908l0.86,0.496l2.046,-1.181l-0,-1.908l-2.046,1.181Z" style="fill:#F8F8F8;fill-opacity:0.05;"/><path d="M114.156,170.902l0,1.908l0.86,0.496l-0,-1.908l-0.86,-0.496Z" style="fill:#F8F8F8;fill-opacity:0.05;"/><path d="M117.062,166.324l-0,1.908l0.859,0.496l2.046,-1.181l-0,-1.908l-0.86,-0.496l-2.045,1.181Z" style="fill:#001B35;"/><path d="M117.062,166.324l-0,1.908l0.859,0.496l2.046,-1.181l-0,-1.908l-0.86,-0.496l-2.045,1.181Z" style="fill:#F8F8F8;fill-opacity:0.05;"/><path d="M117.921,166.821l-0.859,-0.497l-0,1.908l0.859,0.496l2.046,-1.181l-0,-1.908l-2.046,1.182Z" style="fill:#F8F8F8;fill-opacity:0.05;"/><path d="M117.062,166.324l-0,1.908l0.859,0.496l0,-1.907l-0.859,-0.497Z" style="fill:#F8F8F8;fill-opacity:0.05;"/><path d="M117.062,169.225l-0,1.907l0.859,0.497l2.046,-1.181l-0,-1.908l-0.86,-0.496l-2.045,1.181Z" style="fill:#001B35;"/><path d="M117.062,169.225l-0,1.907l0.859,0.497l2.046,-1.181l-0,-1.908l-0.86,-0.496l-2.045,1.181Z" style="fill:#F8F8F8;fill-opacity:0.05;"/><path d="M117.921,169.721l-0.859,-0.496l-0,1.907l0.859,0.497l2.046,-1.181l-0,-1.908l-2.046,1.181Z" style="fill:#F8F8F8;fill-opacity:0.05;"/><path d="M117.062,169.225l-0,1.907l0.859,0.497l0,-1.908l-0.859,-0.496Z" style="fill:#F8F8F8;fill-opacity:0.05;"/><path d="M119.967,164.647l-0,1.908l0.86,0.496l2.045,-1.181l0,-1.908l-0.859,-0.496l-2.046,1.181Z" style="fill:#25bcb4;"/><path d="M119.967,164.647l-0,1.908l0.86,0.496l2.045,-1.181l0,-1.908l-0.859,-0.496l-2.046,1.181Z" style="fill:#949494;fill-opacity:0.25;"/><path d="M120.827,165.143l-0.86,-0.496l-0,1.908l0.86,0.496l2.045,-1.181l0,-1.908l-2.045,1.181Z" style="fill:#949494;fill-opacity:0.25;"/><path d="M119.967,164.647l-0,1.908l0.86,0.496l-0,-1.908l-0.86,-0.496Z" style="fill:#949494;fill-opacity:0.25;"/><path d="M117.062,169.225l-0,1.907l0.859,0.497l2.046,-1.181l-0,-1.908l-0.86,-0.496l-2.045,1.181Z" style="fill:#25bcb4;"/><path d="M117.062,169.225l-0,1.907l0.859,0.497l2.046,-1.181l-0,-1.908l-0.86,-0.496l-2.045,1.181Z" style="fill:#949494;fill-opacity:0.25;"/><path d="M117.921,169.721l-0.859,-0.496l-0,1.907l0.859,0.497l2.046,-1.181l-0,-1.908l-2.046,1.181Z" style="fill:#949494;fill-opacity:0.25;"/><path d="M117.062,169.225l-0,1.907l0.859,0.497l0,-1.908l-0.859,-0.496Z" style="fill:#949494;fill-opacity:0.25;"/><path d="M119.967,167.547l-0,1.908l0.86,0.496l2.045,-1.181l0,-1.908l-0.859,-0.496l-2.046,1.181Z" style="fill:#001B35;"/><path d="M119.967,167.547l-0,1.908l0.86,0.496l2.045,-1.181l0,-1.908l-0.859,-0.496l-2.046,1.181Z" style="fill:#F8F8F8;fill-opacity:0.05;"/><path d="M120.827,168.044l-0.86,-0.497l-0,1.908l0.86,0.496l2.045,-1.181l0,-1.908l-2.045,1.182Z" style="fill:#F8F8F8;fill-opacity:0.05;"/><path d="M119.967,167.547l-0,1.908l0.86,0.496l-0,-1.907l-0.86,-0.497Z" style="fill:#F8F8F8;fill-opacity:0.05;"/><path d="M122.872,162.97l0,1.907l0.86,0.497l2.046,-1.181l-0,-1.908l-0.86,-0.497l-2.046,1.182Z" style="fill:#001B35;"/><path d="M122.872,162.97l0,1.907l0.86,0.497l2.046,-1.181l-0,-1.908l-0.86,-0.497l-2.046,1.182Z" style="fill:#F8F8F8;fill-opacity:0.05;"/><path d="M123.732,163.466l-0.86,-0.496l0,1.907l0.86,0.497l2.046,-1.181l-0,-1.908l-2.046,1.181Z" style="fill:#F8F8F8;fill-opacity:0.05;"/><path d="M122.872,162.97l0,1.907l0.86,0.497l-0,-1.908l-0.86,-0.496Z" style="fill:#F8F8F8;fill-opacity:0.05;"/><path d="M122.872,165.87l0,1.908l0.86,0.496l2.046,-1.181l-0,-1.908l-0.86,-0.496l-2.046,1.181Z" style="fill:#001B35;"/><path d="M122.872,165.87l0,1.908l0.86,0.496l2.046,-1.181l-0,-1.908l-0.86,-0.496l-2.046,1.181Z" style="fill:#F8F8F8;fill-opacity:0.05;"/><path d="M123.732,166.366l-0.86,-0.496l0,1.908l0.86,0.496l2.046,-1.181l-0,-1.908l-2.046,1.181Z" style="fill:#F8F8F8;fill-opacity:0.05;"/><path d="M122.872,165.87l0,1.908l0.86,0.496l-0,-1.908l-0.86,-0.496Z" style="fill:#F8F8F8;fill-opacity:0.05;"/><path d="M122.872,162.97l0,1.907l0.86,0.497l2.046,-1.181l-0,-1.908l-0.86,-0.497l-2.046,1.182Z" style="fill:#001B35;"/><path d="M122.872,162.97l0,1.907l0.86,0.497l2.046,-1.181l-0,-1.908l-0.86,-0.497l-2.046,1.182Z" style="fill:#F8F8F8;fill-opacity:0.05;"/><path d="M123.732,163.466l-0.86,-0.496l0,1.907l0.86,0.497l2.046,-1.181l-0,-1.908l-2.046,1.181Z" style="fill:#F8F8F8;fill-opacity:0.05;"/><path d="M122.872,162.97l0,1.907l0.86,0.497l-0,-1.908l-0.86,-0.496Z" style="fill:#F8F8F8;fill-opacity:0.05;"/><path d="M122.872,165.87l0,1.908l0.86,0.496l2.046,-1.181l-0,-1.908l-0.86,-0.496l-2.046,1.181Z" style="fill:#001B35;"/><path d="M122.872,165.87l0,1.908l0.86,0.496l2.046,-1.181l-0,-1.908l-0.86,-0.496l-2.046,1.181Z" style="fill:#F8F8F8;fill-opacity:0.05;"/><path d="M123.732,166.366l-0.86,-0.496l0,1.908l0.86,0.496l2.046,-1.181l-0,-1.908l-2.046,1.181Z" style="fill:#F8F8F8;fill-opacity:0.05;"/><path d="M122.872,165.87l0,1.908l0.86,0.496l-0,-1.908l-0.86,-0.496Z" style="fill:#F8F8F8;fill-opacity:0.05;"/><path d="M125.778,161.292l-0,1.908l0.859,0.496l2.046,-1.181l-0,-1.908l-0.86,-0.496l-2.045,1.181Z" style="fill:#001B35;"/><path d="M125.778,161.292l-0,1.908l0.859,0.496l2.046,-1.181l-0,-1.908l-0.86,-0.496l-2.045,1.181Z" style="fill:#F8F8F8;fill-opacity:0.05;"/><path d="M126.637,161.788l-0.859,-0.496l-0,1.908l0.859,0.496l2.046,-1.181l-0,-1.908l-2.046,1.181Z" style="fill:#F8F8F8;fill-opacity:0.05;"/><path d="M125.778,161.292l-0,1.908l0.859,0.496l0,-1.908l-0.859,-0.496Z" style="fill:#F8F8F8;fill-opacity:0.05;"/><path d="M125.778,164.193l-0,1.907l0.859,0.497l2.046,-1.181l-0,-1.908l-0.86,-0.497l-2.045,1.182Z" style="fill:#001B35;"/><path d="M125.778,164.193l-0,1.907l0.859,0.497l2.046,-1.181l-0,-1.908l-0.86,-0.497l-2.045,1.182Z" style="fill:#F8F8F8;fill-opacity:0.05;"/><path d="M126.637,164.689l-0.859,-0.496l-0,1.907l0.859,0.497l2.046,-1.181l-0,-1.908l-2.046,1.181Z" style="fill:#F8F8F8;fill-opacity:0.05;"/><path d="M125.778,164.193l-0,1.907l0.859,0.497l0,-1.908l-0.859,-0.496Z" style="fill:#F8F8F8;fill-opacity:0.05;"/><path d="M125.778,164.193l-0,1.907l0.859,0.497l2.046,-1.181l-0,-1.908l-0.86,-0.497l-2.045,1.182Z" style="fill:#25bcb4;"/><path d="M125.778,164.193l-0,1.907l0.859,0.497l2.046,-1.181l-0,-1.908l-0.86,-0.497l-2.045,1.182Z" style="fill:#949494;fill-opacity:0.25;"/><path d="M126.637,164.689l-0.859,-0.496l-0,1.907l0.859,0.497l2.046,-1.181l-0,-1.908l-2.046,1.181Z" style="fill:#949494;fill-opacity:0.25;"/><path d="M125.778,164.193l-0,1.907l0.859,0.497l0,-1.908l-0.859,-0.496Z" style="fill:#949494;fill-opacity:0.25;"/><path d="M93.015,180.212c-0.052,0.039 -1.925,1.48 -2.258,1.672c-0.276,0.159 -0.636,0.144 -1.029,-0.083l-42.362,-24.458c-0.868,-0.501 -1.573,-1.848 -1.573,-3.005l-0,-12.352c-0,-0.561 0.165,-0.975 0.434,-1.196c0.287,-0.235 1.916,-1.422 2.201,-1.637c0.284,-0.216 0.678,-0.224 1.112,0.027l42.362,24.458c0.868,0.501 1.573,1.848 1.573,3.005l0,12.352c0,0.579 -0.176,1.001 -0.46,1.217Z" style="fill:#D8D8D8;"/><path d="M45.793,141.986c-0,-1.158 0.705,-1.691 1.573,-1.189l42.362,24.458c0.869,0.501 1.573,1.848 1.573,3.005l0,12.352c0,1.157 -0.704,1.69 -1.573,1.189l-42.362,-24.458c-0.868,-0.501 -1.573,-1.848 -1.573,-3.005l-0,-12.352Z" style="fill:#D8D8D8;"/><path d="M69.589,157.548c-0,-0.113 0.069,-0.165 0.153,-0.116l17.368,10.027c0.085,0.049 0.154,0.18 0.154,0.293l-0,1.207c-0,0.113 -0.069,0.165 -0.154,0.116l-17.368,-10.028c-0.084,-0.049 -0.153,-0.18 -0.153,-0.293l-0,-1.206Z" style="fill:#001B35;"/><path d="M69.589,161.721c-0,-0.114 0.069,-0.166 0.153,-0.117l17.368,10.028c0.085,0.049 0.154,0.18 0.154,0.293l-0,1.206c-0,0.113 -0.069,0.165 -0.154,0.116l-17.368,-10.027c-0.084,-0.049 -0.153,-0.18 -0.153,-0.293l-0,-1.206Z" style="fill:#001B35;"/><path d="M69.589,165.893c-0,-0.113 0.069,-0.165 0.153,-0.116l17.368,10.028c0.085,0.049 0.154,0.18 0.154,0.293l-0,1.206c-0,0.113 -0.069,0.165 -0.154,0.116l-17.368,-10.027c-0.084,-0.049 -0.153,-0.18 -0.153,-0.293l-0,-1.207Z" style="fill:#001B35;"/><path d="M49.83,146.14c0,-0.113 0.069,-0.165 0.154,-0.116l17.368,10.027c0.084,0.049 0.153,0.181 0.153,0.294l0,1.206c0,0.113 -0.069,0.165 -0.153,0.116l-17.368,-10.027c-0.085,-0.049 -0.154,-0.181 -0.154,-0.294l0,-1.206Z" style="fill:#001B35;"/><path d="M49.83,150.313c0,-0.113 0.069,-0.165 0.154,-0.116l17.368,10.027c0.084,0.049 0.153,0.18 0.153,0.293l0,1.207c0,0.113 -0.069,0.165 -0.153,0.116l-17.368,-10.028c-0.085,-0.048 -0.154,-0.18 -0.154,-0.293l0,-1.206Z" style="fill:#001B35;"/><path d="M49.83,154.486c0,-0.113 0.069,-0.165 0.154,-0.116l17.368,10.027c0.084,0.049 0.153,0.18 0.153,0.293l0,1.207c0,0.113 -0.069,0.165 -0.153,0.116l-17.368,-10.028c-0.085,-0.049 -0.154,-0.18 -0.154,-0.293l0,-1.206Z" style="fill:#001B35;"/><path d="M90.757,181.884l-0,-0c-0.009,0.005 0,-0 0,-0Zm0.029,-0.018c0.316,-0.201 0.515,-0.639 0.515,-1.254l0,-12.352c0,-1.157 -0.704,-2.504 -1.573,-3.005l-42.362,-24.458c-0.461,-0.266 -0.876,-0.241 -1.164,0.015c0.008,-0.008 0.017,-0.015 0.025,-0.022c0.287,-0.235 1.916,-1.422 2.201,-1.637c0.284,-0.216 0.678,-0.224 1.112,0.027l42.362,24.458c0.868,0.501 1.573,1.848 1.573,3.005l0,12.352c0,0.579 -0.176,1.001 -0.46,1.217c-0.051,0.038 -1.828,1.405 -2.229,1.654Z" style="fill:#F8F8F8;fill-opacity:0.5;"/><path d="M93.475,166.643l-2.174,1.617c0,-1.157 -0.704,-2.504 -1.573,-3.005l2.174,-1.617c0.868,0.501 1.573,1.848 1.573,3.005Z" style="fill:#F8F8F8;fill-opacity:0.5;"/><path d="M93.475,166.643l-2.174,1.617c0,-1.157 -0.522,-1.915 -0.917,-2.414l2.183,-1.618c0.372,0.529 0.908,1.258 0.908,2.415Z" style="fill:#F8F8F8;fill-opacity:0.5;"/><path d="M93.015,180.212c-0.052,0.039 -1.925,1.48 -2.258,1.672c-0.276,0.159 -0.636,0.144 -1.029,-0.083l-42.362,-24.458c-0.868,-0.501 -1.573,-1.848 -1.573,-3.005l-0,-12.352c-0,-0.561 0.165,-0.975 0.434,-1.196c0.287,-0.235 1.916,-1.422 2.201,-1.637c0.284,-0.216 0.678,-0.224 1.112,0.027l42.362,24.458c0.868,0.501 1.573,1.848 1.573,3.005l0,12.352c0,0.579 -0.176,1.001 -0.46,1.217Z" style="fill:#D8D8D8;"/><path d="M45.793,141.986c-0,-1.158 0.705,-1.691 1.573,-1.189l42.362,24.458c0.869,0.501 1.573,1.848 1.573,3.005l0,12.352c0,1.157 -0.704,1.69 -1.573,1.189l-42.362,-24.458c-0.868,-0.501 -1.573,-1.848 -1.573,-3.005l-0,-12.352Z" style="fill:#D8D8D8;"/><path d="M69.589,157.548c-0,-0.113 0.069,-0.165 0.153,-0.116l17.368,10.027c0.085,0.049 0.154,0.18 0.154,0.293l-0,1.207c-0,0.113 -0.069,0.165 -0.154,0.116l-17.368,-10.028c-0.084,-0.049 -0.153,-0.18 -0.153,-0.293l-0,-1.206Z" style="fill:#001B35;"/><path d="M69.589,161.721c-0,-0.114 0.069,-0.166 0.153,-0.117l17.368,10.028c0.085,0.049 0.154,0.18 0.154,0.293l-0,1.206c-0,0.113 -0.069,0.165 -0.154,0.116l-17.368,-10.027c-0.084,-0.049 -0.153,-0.18 -0.153,-0.293l-0,-1.206Z" style="fill:#001B35;"/><path d="M69.589,165.893c-0,-0.113 0.069,-0.165 0.153,-0.116l17.368,10.028c0.085,0.049 0.154,0.18 0.154,0.293l-0,1.206c-0,0.113 -0.069,0.165 -0.154,0.116l-17.368,-10.027c-0.084,-0.049 -0.153,-0.18 -0.153,-0.293l-0,-1.207Z" style="fill:#001B35;"/><path d="M49.83,146.14c0,-0.113 0.069,-0.165 0.154,-0.116l17.368,10.027c0.084,0.049 0.153,0.181 0.153,0.294l0,1.206c0,0.113 -0.069,0.165 -0.153,0.116l-17.368,-10.027c-0.085,-0.049 -0.154,-0.181 -0.154,-0.294l0,-1.206Z" style="fill:#001B35;"/><path d="M49.83,150.313c0,-0.113 0.069,-0.165 0.154,-0.116l17.368,10.027c0.084,0.049 0.153,0.18 0.153,0.293l0,1.207c0,0.113 -0.069,0.165 -0.153,0.116l-17.368,-10.028c-0.085,-0.048 -0.154,-0.18 -0.154,-0.293l0,-1.206Z" style="fill:#001B35;"/><path d="M49.83,154.486c0,-0.113 0.069,-0.165 0.154,-0.116l17.368,10.027c0.084,0.049 0.153,0.18 0.153,0.293l0,1.207c0,0.113 -0.069,0.165 -0.153,0.116l-17.368,-10.028c-0.085,-0.049 -0.154,-0.18 -0.154,-0.293l0,-1.206Z" style="fill:#001B35;"/><path d="M90.757,181.884l-0,-0c-0.009,0.005 0,-0 0,-0Zm0.029,-0.018c0.316,-0.201 0.515,-0.639 0.515,-1.254l0,-12.352c0,-1.157 -0.704,-2.504 -1.573,-3.005l-42.362,-24.458c-0.461,-0.266 -0.876,-0.241 -1.164,0.015c0.008,-0.008 0.017,-0.015 0.025,-0.022c0.287,-0.235 1.916,-1.422 2.201,-1.637c0.284,-0.216 0.678,-0.224 1.112,0.027l42.362,24.458c0.868,0.501 1.573,1.848 1.573,3.005l0,12.352c0,0.579 -0.176,1.001 -0.46,1.217c-0.051,0.038 -1.828,1.405 -2.229,1.654Z" style="fill:#F8F8F8;fill-opacity:0.5;"/><path d="M93.475,166.643l-2.174,1.617c0,-1.157 -0.704,-2.504 -1.573,-3.005l2.174,-1.617c0.868,0.501 1.573,1.848 1.573,3.005Z" style="fill:#F8F8F8;fill-opacity:0.5;"/><path d="M93.475,166.643l-2.174,1.617c0,-1.157 -0.522,-1.915 -0.917,-2.414l2.183,-1.618c0.372,0.529 0.908,1.258 0.908,2.415Z" style="fill:#F8F8F8;fill-opacity:0.5;"/><path d="M116.091,86.523c0.049,0.037 1.823,1.402 2.139,1.584c0.261,0.15 0.602,0.136 0.974,-0.079l24.78,-14.307c0.823,-0.474 1.49,-1.75 1.49,-2.847l0,-11.702c0,-0.531 -0.156,-0.923 -0.411,-1.132c-0.272,-0.223 -1.815,-1.348 -2.085,-1.552c-0.27,-0.204 -0.642,-0.211 -1.053,0.026l-24.781,14.307c-0.822,0.475 -1.49,1.751 -1.49,2.847l0,11.702c0,0.548 0.167,0.949 0.437,1.153Z" style="fill:#D8D8D8;"/><path d="M126.698,75.827c-0,-1.896 -1.155,-2.768 -2.577,-1.947l-0.332,0.192c-1.422,0.821 -2.576,3.026 -2.576,4.922c-0,1.896 1.154,2.768 2.576,1.947l0.332,-0.192c1.422,-0.821 2.577,-3.026 2.577,-4.922Z" style="fill:#001B35;"/><path d="M125.787,76.353c0,-1.267 -0.771,-1.85 -1.721,-1.301l-0.222,0.128c-0.95,0.548 -1.721,2.022 -1.721,3.288c-0,1.267 0.771,1.85 1.721,1.301l0.222,-0.128c0.95,-0.548 1.721,-2.022 1.721,-3.288Z" style="fill:#25bcb4;"/><path d="M126.406,76.447c-0.353,-1.106 -0.849,-1.275 -1.214,-1.486c-0.302,-0.174 -0.695,-0.158 -1.126,0.091l-0.222,0.128c-0.95,0.548 -1.721,2.022 -1.721,3.288c-0,0.694 0.231,1.182 0.596,1.392c0.302,0.174 1.054,0.37 1.813,0.167c1.455,-0.388 2.451,-1.772 1.874,-3.58Z" style="fill:#25bcb4;"/><path d="M126.558,77.751c-0.459,0.658 -1.161,1.128 -1.98,1.347c-0.949,0.253 -1.889,0.008 -2.266,-0.209c-0.061,-0.035 -0.119,-0.077 -0.174,-0.124c0.057,0.536 0.27,0.916 0.581,1.095c0.302,0.174 1.054,0.37 1.813,0.167c1.08,-0.288 1.907,-1.125 2.026,-2.276Z" style="fill:#F8F8F8;fill-opacity:0.21;"/><path d="M134.458,71.346c0,-1.895 -1.154,-2.768 -2.576,-1.947l-0.332,0.192c-1.422,0.821 -2.577,3.026 -2.577,4.922c0,1.896 1.155,2.768 2.577,1.948l0.332,-0.193c1.422,-0.82 2.576,-3.026 2.576,-4.922Z" style="fill:#001B35;"/><path d="M133.548,71.872c0,-1.267 -0.771,-1.85 -1.721,-1.301l-0.222,0.128c-0.95,0.549 -1.721,2.022 -1.721,3.289c-0,1.266 0.771,1.849 1.721,1.301l0.222,-0.129c0.95,-0.548 1.721,-2.022 1.721,-3.288Z" style="fill:#25bcb4;"/><path d="M134.167,71.966c-0.353,-1.106 -0.85,-1.275 -1.214,-1.486c-0.302,-0.174 -0.696,-0.158 -1.126,0.091l-0.222,0.128c-0.95,0.549 -1.721,2.022 -1.721,3.289c-0,0.693 0.231,1.181 0.596,1.391c0.301,0.174 1.054,0.37 1.813,0.167c1.455,-0.388 2.451,-1.772 1.874,-3.58Z" style="fill:#25bcb4;"/><path d="M134.319,73.27c-0.459,0.658 -1.162,1.128 -1.98,1.347c-0.949,0.253 -1.889,0.009 -2.266,-0.209c-0.061,-0.035 -0.119,-0.076 -0.174,-0.124c0.057,0.536 0.27,0.917 0.581,1.095c0.301,0.174 1.054,0.37 1.813,0.167c1.079,-0.288 1.907,-1.124 2.026,-2.276Z" style="fill:#F8F8F8;fill-opacity:0.21;"/><path d="M118.229,88.107l0.001,-0c0.008,0.005 -0.001,-0 -0.001,-0Zm-0.027,-0.017c-0.3,-0.19 -0.488,-0.606 -0.488,-1.188l-0,-11.702c-0,-1.097 0.668,-2.372 1.49,-2.847l24.78,-14.307c0.437,-0.252 0.83,-0.228 1.103,0.014c-0.008,-0.007 -0.016,-0.014 -0.024,-0.02c-0.272,-0.223 -1.815,-1.348 -2.085,-1.552c-0.27,-0.204 -0.642,-0.211 -1.053,0.026l-24.781,14.307c-0.822,0.475 -1.49,1.751 -1.49,2.847l0,11.702c0,0.548 0.167,0.949 0.437,1.153c0.047,0.036 1.731,1.331 2.111,1.567Z" style="fill:#F8F8F8;fill-opacity:0.5;"/><path d="M115.654,73.668l2.06,1.532c-0,-1.097 0.668,-2.372 1.49,-2.847l-2.06,-1.532c-0.822,0.475 -1.49,1.751 -1.49,2.847Z" style="fill:#F8F8F8;fill-opacity:0.5;"/><path d="M115.654,73.668l2.06,1.532c-0,-1.097 0.495,-1.814 0.869,-2.287l-2.068,-1.533c-0.353,0.501 -0.861,1.192 -0.861,2.288Z" style="fill:#F8F8F8;fill-opacity:0.5;"/><path d="M142.527,66.762c-0,-1.896 -1.154,-2.768 -2.576,-1.947l-0.333,0.192c-1.422,0.821 -2.576,3.026 -2.576,4.922c-0,1.896 1.154,2.768 2.576,1.947l0.333,-0.192c1.422,-0.821 2.576,-3.026 2.576,-4.922Z" style="fill:#001B35;"/><path d="M141.617,67.288c-0,-1.267 -0.772,-1.85 -1.721,-1.301l-0.223,0.128c-0.95,0.548 -1.721,2.022 -1.721,3.288c0,1.267 0.771,1.85 1.721,1.301l0.223,-0.128c0.949,-0.548 1.721,-2.022 1.721,-3.288Z" style="fill:#25bcb4;"/><path d="M142.235,67.382c-0.352,-1.106 -0.849,-1.275 -1.214,-1.486c-0.302,-0.174 -0.695,-0.158 -1.125,0.091l-0.223,0.128c-0.95,0.548 -1.721,2.022 -1.721,3.288c0,0.694 0.231,1.182 0.596,1.392c0.302,0.174 1.054,0.37 1.813,0.167c1.455,-0.388 2.451,-1.772 1.874,-3.58Z" style="fill:#25bcb4;"/><path d="M142.387,68.686c-0.459,0.658 -1.161,1.128 -1.979,1.347c-0.949,0.253 -1.889,0.009 -2.267,-0.209c-0.061,-0.035 -0.119,-0.076 -0.174,-0.124c0.057,0.536 0.271,0.916 0.581,1.095c0.302,0.174 1.054,0.37 1.813,0.167c1.08,-0.288 1.907,-1.125 2.026,-2.276Z" style="fill:#F8F8F8;fill-opacity:0.21;"/></svg>
