<?xml version="1.0" encoding="UTF-8" standalone="no"?><!DOCTYPE svg PUBLIC "-//W3C//DTD SVG 1.1//EN" "http://www.w3.org/Graphics/SVG/1.1/DTD/svg11.dtd"><svg width="100%" height="100%" viewBox="0 0 200 200" version="1.1" xmlns="http://www.w3.org/2000/svg" xmlns:xlink="http://www.w3.org/1999/xlink" xml:space="preserve" xmlns:serif="http://www.serif.com/" style="fill-rule:evenodd;clip-rule:evenodd;stroke-linejoin:round;stroke-miterlimit:2;"><path d="M114.042,116.527c-7.879,-4.549 -19.815,-5.044 -26.638,-1.105l-31.996,18.473c-6.824,3.94 -5.967,10.831 1.912,15.38l28.551,16.484c7.879,4.549 19.815,5.044 26.639,1.104l31.996,-18.473c6.823,-3.939 5.966,-10.831 -1.913,-15.379l-28.551,-16.484Z" style="fill:#EAE9E9;fill-opacity:0.27;"/><path d="M50.802,140.574c-0,0.379 -0,17.994 -0,18.769c-0,3.024 2.208,6.213 6.518,8.701l28.551,16.484c7.879,4.549 19.815,5.044 26.639,1.104l32.082,-18.523c3.091,-1.784 4.606,-4.175 4.606,-6.679c0,-3.023 0,-16.265 0,-18.769c0,-3.023 -2.208,-6.212 -6.518,-8.701l-28.551,-16.484c-7.879,-4.548 -19.815,-5.043 -26.639,-1.104l-32.082,18.523c-3.091,1.785 -4.606,4.175 -4.606,6.679Z" style="fill:#25bcb4;"/><path d="M114.111,116.487c-7.879,-4.549 -19.815,-5.044 -26.638,-1.105l-32.065,18.513c-6.824,3.94 -5.967,10.831 1.912,15.38l28.551,16.484c7.879,4.549 19.815,5.044 26.639,1.104l32.065,-18.513c6.823,-3.939 5.966,-10.83 -1.913,-15.379l-28.551,-16.484Z" style="fill:#eae9e9;fill-opacity:0.12;"/><path d="M114.111,116.487c-7.879,-4.549 -19.815,-5.044 -26.638,-1.105l-32.065,18.513c-6.824,3.94 -5.967,10.831 1.912,15.38l28.551,16.484c7.879,4.549 19.815,5.044 26.639,1.104l32.065,-18.513c6.823,-3.939 5.966,-10.83 -1.913,-15.379l-28.551,-16.484Z" style="fill:#eae9e9;fill-opacity:0.12;"/><path d="M103.247,170.616c0,-0.423 -0.343,-0.766 -0.766,-0.766l-2.328,0c-0.423,0 -0.767,0.343 -0.767,0.766l0,15.723c0,0.423 0.344,0.767 0.767,0.767l2.328,-0c0.423,-0 0.766,-0.344 0.766,-0.767l0,-15.723Z" style="fill:#eae9e9;fill-opacity:0.12;"/><path d="M110.982,169.485c-0,-0.641 -0.494,-1.046 -1.101,-0.904l-3.344,0.782c-0.607,0.142 -1.1,0.778 -1.1,1.418l-0,15.869c-0,0.641 0.493,1.045 1.1,0.903l3.344,-0.781c0.607,-0.142 1.101,-0.778 1.101,-1.419l-0,-15.868Z" style="fill:#eae9e9;fill-opacity:0.12;"/><path d="M94.589,169.85c0,-0.406 0.313,-0.663 0.698,-0.573l2.119,0.495c0.385,0.09 0.697,0.493 0.697,0.899l0,15.346c0,0.406 -0.312,0.662 -0.697,0.572l-2.119,-0.495c-0.385,-0.09 -0.698,-0.493 -0.698,-0.899l0,-15.345Z" style="fill:#eae9e9;fill-opacity:0.12;"/><path d="M51.095,144.468c0,-0.799 0.167,-1.163 0.373,-0.814l1.134,1.923c0.206,0.349 0.373,1.282 0.373,2.08l0,14.785c0,0.799 -0.167,1.164 -0.373,0.814l-1.134,-1.923c-0.206,-0.349 -0.373,-1.281 -0.373,-2.08l0,-14.785Z" style="fill:#eae9e9;fill-opacity:0.12;"/><path d="M148.731,146.97c0,-0.798 -0.167,-1.163 -0.373,-0.814l-1.134,1.923c-0.206,0.35 -0.373,1.282 -0.373,2.081l0,14.198c0,0.799 0.167,1.163 0.373,0.814l1.134,-1.923c0.206,-0.35 0.373,-1.282 0.373,-2.081l0,-14.198Z" style="fill:#eae9e9;fill-opacity:0.12;"/><path d="M101.748,170.281c0,-0.238 -0.193,-0.431 -0.431,-0.431c-0.238,0 -0.432,0.193 -0.432,0.431l0,16.327c0,0.238 0.194,0.431 0.432,0.431c0.238,-0 0.431,-0.193 0.431,-0.431l0,-16.327Z" style="fill:#eae9e9;fill-opacity:0.12;"/><path d="M112.912,28.595c-7.14,-4.122 -17.956,-4.571 -24.139,-1.001l-28.993,16.739c-6.183,3.57 -5.407,9.815 1.733,13.937l25.872,14.937c7.139,4.122 17.955,4.57 24.138,1.001l28.994,-16.74c6.183,-3.57 5.406,-9.814 -1.733,-13.936l-25.872,-14.937Z" style="fill:#EAE9E9;fill-opacity:0.27;"/><path d="M55.606,50.386c-0,0.343 -0,88.576 -0,89.279c-0,2.74 2.001,5.63 5.907,7.884l25.872,14.937c7.139,4.122 17.955,4.571 24.138,1.001l29.073,-16.785c2.801,-1.617 4.173,-3.783 4.173,-6.052c0,-2.74 0,-87.01 0,-89.279c0,-2.74 -2.001,-5.63 -5.906,-7.885l-25.872,-14.937c-7.14,-4.122 -17.956,-4.57 -24.139,-1l-29.072,16.784c-2.801,1.618 -4.174,3.784 -4.174,6.053Z" style="fill:#001b35;"/><path d="M112.975,28.558c-7.14,-4.122 -17.956,-4.57 -24.139,-1l-29.056,16.775c-6.183,3.57 -5.407,9.815 1.733,13.937l25.872,14.937c7.139,4.122 17.955,4.57 24.138,1.001l29.057,-16.776c6.183,-3.57 5.406,-9.814 -1.734,-13.936l-25.871,-14.938Z" style="fill:#EAE9E9;fill-opacity:0.1;"/><path d="M103.13,77.609c-0,-0.384 -0.311,-0.695 -0.695,-0.695l-2.109,0c-0.383,0 -0.694,0.311 -0.694,0.695l-0,87.366c-0,0.383 0.311,0.694 0.694,0.694l2.109,0c0.384,0 0.695,-0.311 0.695,-0.694l-0,-87.366Z" style="fill:#eae9e9;fill-opacity:0.12;"/><path d="M110.139,76.584c-0,-0.581 -0.447,-0.948 -0.998,-0.819l-3.029,0.708c-0.551,0.129 -0.998,0.705 -0.998,1.285l0,86.651c0,0.581 0.447,0.948 0.998,0.819l3.029,-0.708c0.551,-0.129 0.998,-0.705 0.998,-1.286l-0,-86.65Z" style="fill:#eae9e9;fill-opacity:0.12;"/><path d="M95.285,76.914c-0,-0.368 0.283,-0.601 0.632,-0.519l1.92,0.449c0.349,0.081 0.632,0.446 0.632,0.814l-0,87.422c-0,0.368 -0.283,0.6 -0.632,0.519l-1.92,-0.449c-0.349,-0.082 -0.632,-0.447 -0.632,-0.814l-0,-87.422Z" style="fill:#eae9e9;fill-opacity:0.12;"/><path d="M55.872,53.914c-0,-0.724 0.151,-1.054 0.338,-0.738l1.027,1.743c0.187,0.317 0.338,1.161 0.338,1.885l0,86.132c0,0.724 -0.151,1.055 -0.338,0.738l-1.027,-1.743c-0.187,-0.316 -0.338,-1.161 -0.338,-1.885l-0,-86.132Z" style="fill:#eae9e9;fill-opacity:0.12;"/><path d="M144.346,56.182c0,-0.724 -0.151,-1.055 -0.338,-0.738l-1.027,1.742c-0.187,0.317 -0.339,1.162 -0.339,1.886l0,84.468c0,0.723 0.152,1.054 0.339,0.737l1.027,-1.742c0.187,-0.317 0.338,-1.162 0.338,-1.885l0,-84.468Z" style="fill:#eae9e9;fill-opacity:0.12;"/><path d="M101.772,77.305c-0,-0.216 -0.176,-0.391 -0.391,-0.391c-0.216,0 -0.391,0.175 -0.391,0.391l-0,87.973c-0,0.216 0.175,0.391 0.391,0.391c0.215,0 0.391,-0.175 0.391,-0.391l-0,-87.973Z" style="fill:#eae9e9;fill-opacity:0.12;"/><path d="M113.003,15.17c-7.151,-4.129 -17.984,-4.578 -24.177,-1.002l-29.04,16.766c-6.193,3.575 -5.415,9.83 1.736,13.958l25.913,14.961c7.151,4.128 17.984,4.578 24.177,1.002l29.039,-16.766c6.193,-3.575 5.415,-9.83 -1.735,-13.958l-25.913,-14.961Z" style="fill:#EAE9E9;fill-opacity:0.27;"/><path d="M55.606,36.995c-0,0.344 -0,16.331 -0,17.035c-0,2.744 2.005,5.639 5.916,7.897l25.913,14.961c7.151,4.128 17.984,4.577 24.177,1.002l29.118,-16.812c2.806,-1.619 4.18,-3.789 4.18,-6.061c0,-2.745 0,-14.762 0,-17.035c0,-2.744 -2.004,-5.639 -5.916,-7.897l-25.913,-14.961c-7.15,-4.128 -17.984,-4.577 -24.177,-1.002l-29.118,16.812c-2.805,1.619 -4.18,3.789 -4.18,6.061Z" style="fill:#25bcb4;"/><path d="M113.065,15.134c-7.15,-4.129 -17.984,-4.578 -24.177,-1.003l-29.102,16.803c-6.193,3.575 -5.415,9.83 1.736,13.958l25.913,14.961c7.151,4.128 17.984,4.578 24.177,1.002l29.102,-16.802c6.193,-3.575 5.415,-9.83 -1.736,-13.959l-25.913,-14.96Z" style="fill:#eae9e9;fill-opacity:0.12;"/><path d="M113.065,15.134c-7.15,-4.129 -17.984,-4.578 -24.177,-1.003l-29.102,16.803c-6.193,3.575 -5.415,9.83 1.736,13.958l25.913,14.961c7.151,4.128 17.984,4.578 24.177,1.002l29.102,-16.802c6.193,-3.575 5.415,-9.83 -1.736,-13.959l-25.913,-14.96Z" style="fill:#eae9e9;fill-opacity:0.12;"/><path d="M103.205,64.262c0,-0.384 -0.312,-0.696 -0.695,-0.696l-2.113,0c-0.384,0 -0.696,0.312 -0.696,0.696l0,14.27c0,0.384 0.312,0.695 0.696,0.695l2.113,0c0.383,0 0.695,-0.311 0.695,-0.695l0,-14.27Z" style="fill:#eae9e9;fill-opacity:0.12;"/><path d="M110.225,63.235c0,-0.582 -0.448,-0.949 -0.999,-0.82l-3.034,0.709c-0.552,0.129 -1,0.706 -1,1.287l0,14.402c0,0.582 0.448,0.949 1,0.82l3.034,-0.709c0.551,-0.129 0.999,-0.706 0.999,-1.287l0,-14.402Z" style="fill:#eae9e9;fill-opacity:0.12;"/><path d="M95.348,63.566c-0,-0.369 0.283,-0.602 0.633,-0.52l1.923,0.449c0.349,0.082 0.633,0.448 0.633,0.816l-0,13.928c-0,0.368 -0.284,0.601 -0.633,0.519l-1.923,-0.449c-0.35,-0.082 -0.633,-0.447 -0.633,-0.816l-0,-13.927Z" style="fill:#eae9e9;fill-opacity:0.12;"/><path d="M55.872,40.529c0,-0.724 0.152,-1.056 0.339,-0.738l1.029,1.745c0.187,0.317 0.339,1.163 0.339,1.888l-0,13.419c-0,0.725 -0.152,1.056 -0.339,0.738l-1.029,-1.745c-0.187,-0.317 -0.339,-1.163 -0.339,-1.888l0,-13.419Z" style="fill:#eae9e9;fill-opacity:0.12;"/><path d="M144.487,42.801c-0,-0.725 -0.152,-1.057 -0.339,-0.739l-1.029,1.745c-0.187,0.317 -0.339,1.163 -0.339,1.888l0,12.886c0,0.725 0.152,1.056 0.339,0.739l1.029,-1.745c0.187,-0.317 0.339,-1.163 0.339,-1.888l-0,-12.886Z" style="fill:#eae9e9;fill-opacity:0.12;"/><path d="M101.845,63.958c-0,-0.217 -0.176,-0.392 -0.392,-0.392c-0.216,0 -0.391,0.175 -0.391,0.392l-0,14.817c-0,0.216 0.175,0.392 0.391,0.392c0.216,-0 0.392,-0.176 0.392,-0.392l-0,-14.817Z" style="fill:#eae9e9;fill-opacity:0.12;"/><path d="M69.541,132.678c2.907,1.678 5.267,5.766 5.267,9.123c-0,3.357 -2.36,4.72 -5.267,3.041c-2.907,-1.678 -5.268,-5.766 -5.268,-9.123c0,-3.357 2.361,-4.719 5.268,-3.041Z" style="fill:#EAE9E9;fill-opacity:0.14;"/><path d="M65.958,132.235c0.58,-0.287 2.875,-1.736 3.583,-2.062c0.933,-0.43 2.166,-0.307 3.519,0.473c2.907,1.679 5.267,5.767 5.267,9.124c-0,1.561 -0.511,2.691 -1.35,3.284c-0.635,0.449 -3.083,1.775 -3.666,2.128c-0.957,0.581 -2.293,0.513 -3.77,-0.34c-2.907,-1.678 -5.268,-5.766 -5.268,-9.123c0,-1.76 0.649,-2.971 1.685,-3.484Z" style="fill:#eae9e9;fill-opacity:0.12;"/><path d="M69.541,134.084c2.235,1.291 4.049,4.433 4.049,7.014c0,2.581 -1.814,3.628 -4.049,2.338c-2.235,-1.29 -4.05,-4.433 -4.05,-7.014c0,-2.58 1.815,-3.628 4.05,-2.338Z" style="fill:#eae9e9;fill-opacity:0.12;"/><path d="M69.676,135.815c1.37,0.791 2.483,2.718 2.483,4.3c-0,1.583 -1.113,2.225 -2.483,1.434c-1.37,-0.791 -2.483,-2.718 -2.483,-4.301c0,-1.582 1.113,-2.224 2.483,-1.433Z" style="fill:#25bcb4;"/><path d="M69.676,136.807c0.896,0.517 1.624,1.778 1.624,2.812c0,1.035 -0.728,1.456 -1.624,0.938c-0.896,-0.517 -1.624,-1.778 -1.624,-2.813c0,-1.035 0.728,-1.455 1.624,-0.937Z" style="fill:#EAE9E9;fill-opacity:0.45;"/><path d="M119.268,88.003l0.249,-0.394l0,-0.499l-0.249,-0.105l-2.202,1.271l-0.249,0.393l-0,0.499l0.249,0.106l2.202,-1.271Z" style="fill:#25bcb4;"/><path d="M119.459,90.665l0.216,0.164l0.432,-0.25l0.216,-0.413l0,-2.542l-0.216,-0.163l-0.432,0.25l-0.216,0.412l-0,2.542Z" style="fill:#25bcb4;"/><path d="M117.066,92.213l-0.249,0.393l-0,0.499l0.249,0.106l2.202,-1.271l0.249,-0.394l0,-0.499l-0.249,-0.105l-2.202,1.271Z" style="fill:#25bcb4;"/><path d="M119.459,94.568l0.216,0.163l0.432,-0.249l0.216,-0.413l0,-2.542l-0.216,-0.164l-0.432,0.25l-0.216,0.413l-0,2.542Z" style="fill:#25bcb4;"/><path d="M116.875,93.516l-0.216,-0.163l-0.432,0.249l-0.216,0.413l-0,2.542l0.216,0.164l0.432,-0.25l0.216,-0.413l0,-2.542Z" style="fill:#25bcb4;"/><path d="M117.066,96.115l-0.249,0.394l-0,0.499l0.249,0.105l2.202,-1.271l0.249,-0.393l0,-0.499l-0.249,-0.106l-2.202,1.271Z" style="fill:#25bcb4;"/><path d="M116.875,89.614l-0.216,-0.163l-0.432,0.249l-0.216,0.413l-0,2.542l0.216,0.163l0.432,-0.249l0.216,-0.413l0,-2.542Z" style="fill:#eae9e9;fill-opacity:0.12;"/><path d="M122.729,86.234l-0.216,-0.163l-0.432,0.249l-0.216,0.413l-0,2.542l0.216,0.164l0.432,-0.25l0.216,-0.413l0,-2.542Z" style="fill:#eae9e9;fill-opacity:0.12;"/><path d="M125.122,84.623l0.249,-0.393l0,-0.499l-0.249,-0.106l-2.202,1.271l-0.249,0.394l-0,0.499l0.249,0.105l2.202,-1.271Z" style="fill:#eae9e9;fill-opacity:0.12;"/><path d="M125.313,87.286l0.216,0.163l0.432,-0.249l0.216,-0.413l-0,-2.542l-0.216,-0.164l-0.432,0.25l-0.216,0.413l-0,2.542Z" style="fill:#25bcb4;"/><path d="M131.632,80.864l0.25,-0.393l-0,-0.499l-0.25,-0.106l-2.201,1.271l-0.25,0.394l0,0.499l0.25,0.105l2.201,-1.271Z" style="fill:#25bcb4;"/><path d="M125.313,91.188l0.216,0.164l0.432,-0.25l0.216,-0.413l-0,-2.542l-0.216,-0.163l-0.432,0.249l-0.216,0.413l-0,2.542Z" style="fill:#25bcb4;"/><path d="M131.823,83.527l0.217,0.163l0.432,-0.249l0.216,-0.413l-0,-2.542l-0.216,-0.164l-0.432,0.25l-0.217,0.413l0,2.542Z" style="fill:#25bcb4;"/><path d="M129.431,85.074l-0.25,0.394l0,0.499l0.25,0.105l2.201,-1.271l0.25,-0.393l-0,-0.499l-0.25,-0.106l-2.201,1.271Z" style="fill:#25bcb4;"/><path d="M129.24,86.378l-0.216,-0.164l-0.432,0.25l-0.217,0.413l0,2.542l0.217,0.163l0.432,-0.25l0.216,-0.412l-0,-2.542Z" style="fill:#25bcb4;"/><path d="M129.431,88.977l-0.25,0.393l0,0.499l0.25,0.106l2.201,-1.271l0.25,-0.394l-0,-0.499l-0.25,-0.105l-2.201,1.271Z" style="fill:#25bcb4;"/><path d="M122.92,88.833l-0.249,0.394l-0,0.499l0.249,0.105l2.202,-1.271l0.249,-0.393l0,-0.499l-0.249,-0.106l-2.202,1.271Z" style="fill:#eae9e9;fill-opacity:0.12;"/><path d="M137.677,80.147l0.216,0.164l0.432,-0.25l0.216,-0.413l0,-2.542l-0.216,-0.163l-0.432,0.249l-0.216,0.413l0,2.542Z" style="fill:#25bcb4;"/><path d="M103.205,64.262c0,-0.384 -0.312,-0.696 -0.695,-0.696l-2.113,0c-0.384,0 -0.696,0.312 -0.696,0.696l0,14.27c0,0.384 0.312,0.695 0.696,0.695l2.113,0c0.383,0 0.695,-0.311 0.695,-0.695l0,-14.27Z" style="fill:#eae9e9;fill-opacity:0.12;"/><path d="M110.225,63.235c0,-0.582 -0.448,-0.949 -0.999,-0.82l-3.034,0.709c-0.552,0.129 -1,0.706 -1,1.287l0,14.402c0,0.582 0.448,0.949 1,0.82l3.034,-0.709c0.551,-0.129 0.999,-0.706 0.999,-1.287l0,-14.402Z" style="fill:#eae9e9;fill-opacity:0.12;"/><path d="M95.348,63.566c-0,-0.369 0.283,-0.602 0.633,-0.52l1.923,0.449c0.349,0.082 0.633,0.448 0.633,0.816l-0,13.928c-0,0.368 -0.284,0.601 -0.633,0.519l-1.923,-0.449c-0.35,-0.082 -0.633,-0.447 -0.633,-0.816l-0,-13.927Z" style="fill:#eae9e9;fill-opacity:0.12;"/><path d="M55.872,40.529c0,-0.724 0.152,-1.056 0.339,-0.738l1.029,1.745c0.187,0.317 0.339,1.163 0.339,1.888l-0,13.419c-0,0.725 -0.152,1.056 -0.339,0.738l-1.029,-1.745c-0.187,-0.317 -0.339,-1.163 -0.339,-1.888l0,-13.419Z" style="fill:#eae9e9;fill-opacity:0.12;"/><path d="M144.487,42.801c-0,-0.725 -0.152,-1.057 -0.339,-0.739l-1.029,1.745c-0.187,0.317 -0.339,1.163 -0.339,1.888l0,12.886c0,0.725 0.152,1.056 0.339,0.739l1.029,-1.745c0.187,-0.317 0.339,-1.163 0.339,-1.888l-0,-12.886Z" style="fill:#eae9e9;fill-opacity:0.12;"/><path d="M101.845,63.958c-0,-0.217 -0.176,-0.392 -0.392,-0.392c-0.216,0 -0.391,0.175 -0.391,0.392l-0,14.817c-0,0.216 0.175,0.392 0.391,0.392c0.216,-0 0.392,-0.176 0.392,-0.392l-0,-14.817Z" style="fill:#eae9e9;fill-opacity:0.12;"/><path d="M137.677,80.147l0.216,0.164l0.432,-0.25l0.216,-0.413l0,-2.542l-0.216,-0.163l-0.432,0.249l-0.216,0.413l0,2.542Z" style="fill:#25bcb4;"/><path d="M122.729,90.137l-0.216,-0.164l-0.432,0.25l-0.216,0.413l-0,2.542l0.216,0.163l0.432,-0.249l0.216,-0.413l0,-2.542Z" style="fill:#eae9e9;fill-opacity:0.12;"/><path d="M122.92,92.736l-0.249,0.393l-0,0.499l0.249,0.106l2.202,-1.271l0.249,-0.394l0,-0.499l-0.249,-0.105l-2.202,1.271Z" style="fill:#eae9e9;fill-opacity:0.12;"/><path d="M129.24,82.475l-0.216,-0.163l-0.432,0.249l-0.217,0.413l0,2.542l0.217,0.164l0.432,-0.25l0.216,-0.413l-0,-2.542Z" style="fill:#eae9e9;fill-opacity:0.12;"/><path d="M131.823,87.429l0.217,0.164l0.432,-0.25l0.216,-0.413l-0,-2.542l-0.216,-0.163l-0.432,0.249l-0.217,0.413l0,2.542Z" style="fill:#eae9e9;fill-opacity:0.12;"/><path d="M135.094,79.096l-0.217,-0.164l-0.432,0.25l-0.216,0.413l0,2.542l0.216,0.163l0.432,-0.25l0.217,-0.412l-0,-2.542Z" style="fill:#eae9e9;fill-opacity:0.12;"/><path d="M137.486,77.485l0.25,-0.394l-0,-0.499l-0.25,-0.105l-2.201,1.271l-0.25,0.393l0,0.499l0.25,0.106l2.201,-1.271Z" style="fill:#eae9e9;fill-opacity:0.12;"/><path d="M119.268,105.095l0.249,-0.394l0,-0.499l-0.249,-0.105l-2.202,1.271l-0.249,0.393l-0,0.499l0.249,0.106l2.202,-1.271Z" style="fill:#25bcb4;"/><path d="M119.459,107.757l0.216,0.164l0.432,-0.25l0.216,-0.413l0,-2.542l-0.216,-0.163l-0.432,0.249l-0.216,0.413l-0,2.542Z" style="fill:#25bcb4;"/><path d="M117.066,109.305l-0.249,0.393l-0,0.499l0.249,0.106l2.202,-1.271l0.249,-0.394l0,-0.499l-0.249,-0.105l-2.202,1.271Z" style="fill:#25bcb4;"/><path d="M116.875,110.608l-0.216,-0.163l-0.432,0.249l-0.216,0.413l-0,2.542l0.216,0.163l0.432,-0.249l0.216,-0.413l0,-2.542Z" style="fill:#25bcb4;"/><path d="M119.459,111.66l0.216,0.163l0.432,-0.25l0.216,-0.412l0,-2.542l-0.216,-0.164l-0.432,0.25l-0.216,0.413l-0,2.542Z" style="fill:#25bcb4;"/><path d="M117.066,113.207l-0.249,0.394l-0,0.499l0.249,0.105l2.202,-1.271l0.249,-0.393l0,-0.499l-0.249,-0.106l-2.202,1.271Z" style="fill:#25bcb4;"/><path d="M137.677,84.05l0.216,0.163l0.432,-0.25l0.216,-0.412l0,-2.542l-0.216,-0.164l-0.432,0.25l-0.216,0.413l0,2.542Z" style="fill:#25bcb4;"/><path d="M135.285,81.695l-0.25,0.393l0,0.499l0.25,0.106l2.201,-1.271l0.25,-0.394l-0,-0.499l-0.25,-0.105l-2.201,1.271Z" style="fill:#eae9e9;fill-opacity:0.12;"/><path d="M135.094,82.998l-0.217,-0.163l-0.432,0.249l-0.216,0.413l0,2.542l0.216,0.163l0.432,-0.249l0.217,-0.413l-0,-2.542Z" style="fill:#eae9e9;fill-opacity:0.12;"/><path d="M135.285,85.597l-0.25,0.394l0,0.499l0.25,0.105l2.201,-1.271l0.25,-0.393l-0,-0.5l-0.25,-0.105l-2.201,1.271Z" style="fill:#eae9e9;fill-opacity:0.12;"/><path d="M116.875,106.706l-0.216,-0.164l-0.432,0.25l-0.216,0.413l-0,2.542l0.216,0.163l0.432,-0.25l0.216,-0.412l0,-2.542Z" style="fill:#eae9e9;fill-opacity:0.12;"/><path d="M122.729,103.326l-0.216,-0.163l-0.432,0.249l-0.216,0.413l-0,2.542l0.216,0.163l0.432,-0.249l0.216,-0.413l0,-2.542Z" style="fill:#eae9e9;fill-opacity:0.12;"/><path d="M125.313,104.378l0.216,0.163l0.432,-0.25l0.216,-0.412l-0,-2.542l-0.216,-0.164l-0.432,0.25l-0.216,0.413l-0,2.542Z" style="fill:#25bcb4;"/><path d="M125.313,108.28l0.216,0.163l0.432,-0.249l0.216,-0.413l-0,-2.542l-0.216,-0.163l-0.432,0.249l-0.216,0.413l-0,2.542Z" style="fill:#25bcb4;"/><path d="M125.122,101.715l0.249,-0.393l0,-0.5l-0.249,-0.105l-2.202,1.271l-0.249,0.394l-0,0.499l0.249,0.105l2.202,-1.271Z" style="fill:#eae9e9;fill-opacity:0.12;"/><path d="M122.92,105.925l-0.249,0.394l-0,0.499l0.249,0.105l2.202,-1.271l0.249,-0.393l0,-0.5l-0.249,-0.105l-2.202,1.271Z" style="fill:#eae9e9;fill-opacity:0.12;"/><path d="M122.729,107.228l-0.216,-0.163l-0.432,0.25l-0.216,0.413l-0,2.541l0.216,0.164l0.432,-0.25l0.216,-0.413l0,-2.542Z" style="fill:#eae9e9;fill-opacity:0.12;"/><path d="M122.92,109.827l-0.249,0.394l-0,0.499l0.249,0.105l2.202,-1.27l0.249,-0.394l0,-0.499l-0.249,-0.106l-2.202,1.271Z" style="fill:#eae9e9;fill-opacity:0.12;"/><path d="M131.632,97.956l0.25,-0.394l-0,-0.499l-0.25,-0.105l-2.201,1.271l-0.25,0.394l0,0.499l0.25,0.105l2.201,-1.271Z" style="fill:#25bcb4;"/><path d="M131.823,100.619l0.217,0.163l0.432,-0.25l0.216,-0.413l-0,-2.541l-0.216,-0.164l-0.432,0.25l-0.217,0.413l0,2.542Z" style="fill:#25bcb4;"/><path d="M129.431,102.166l-0.25,0.394l0,0.499l0.25,0.105l2.201,-1.271l0.25,-0.394l-0,-0.499l-0.25,-0.105l-2.201,1.271Z" style="fill:#25bcb4;"/><path d="M129.24,103.469l-0.216,-0.163l-0.432,0.25l-0.217,0.413l0,2.541l0.217,0.164l0.432,-0.25l0.216,-0.413l-0,-2.542Z" style="fill:#25bcb4;"/><path d="M129.431,106.068l-0.25,0.394l0,0.499l0.25,0.105l2.201,-1.27l0.25,-0.394l-0,-0.499l-0.25,-0.106l-2.201,1.271Z" style="fill:#25bcb4;"/><path d="M129.24,99.567l-0.216,-0.163l-0.432,0.249l-0.217,0.413l0,2.542l0.217,0.163l0.432,-0.249l0.216,-0.413l-0,-2.542Z" style="fill:#eae9e9;fill-opacity:0.12;"/><path d="M131.823,104.521l0.217,0.163l0.432,-0.249l0.216,-0.413l-0,-2.542l-0.216,-0.163l-0.432,0.249l-0.217,0.413l0,2.542Z" style="fill:#eae9e9;fill-opacity:0.12;"/><path d="M135.094,96.187l-0.217,-0.163l-0.432,0.25l-0.216,0.412l0,2.542l0.216,0.164l0.432,-0.25l0.217,-0.413l-0,-2.542Z" style="fill:#eae9e9;fill-opacity:0.12;"/><path d="M137.677,101.141l0.216,0.164l0.432,-0.25l0.216,-0.413l0,-2.542l-0.216,-0.163l-0.432,0.25l-0.216,0.412l0,2.542Z" style="fill:#25bcb4;"/><path d="M137.677,97.038l0.216,0.164l0.432,-0.25l0.216,-0.413l0,-2.542l-0.216,-0.163l-0.432,0.249l-0.216,0.413l0,2.542Z" style="fill:#25bcb4;"/><path d="M137.486,94.576l0.25,-0.393l-0,-0.499l-0.25,-0.106l-2.201,1.271l-0.25,0.394l0,0.499l0.25,0.105l2.201,-1.271Z" style="fill:#eae9e9;fill-opacity:0.12;"/><path d="M135.285,98.786l-0.25,0.394l0,0.499l0.25,0.105l2.201,-1.271l0.25,-0.393l-0,-0.499l-0.25,-0.106l-2.201,1.271Z" style="fill:#eae9e9;fill-opacity:0.12;"/><path d="M135.094,100.09l-0.217,-0.164l-0.432,0.25l-0.216,0.413l0,2.542l0.216,0.163l0.432,-0.249l0.217,-0.413l-0,-2.542Z" style="fill:#eae9e9;fill-opacity:0.12;"/><path d="M135.285,102.689l-0.25,0.393l0,0.499l0.25,0.106l2.201,-1.271l0.25,-0.394l-0,-0.499l-0.25,-0.105l-2.201,1.271Z" style="fill:#eae9e9;fill-opacity:0.12;"/><path d="M116.875,123.797l-0.216,-0.163l-0.432,0.25l-0.216,0.412l-0,2.542l0.216,0.164l0.432,-0.25l0.216,-0.413l0,-2.542Z" style="fill:#eae9e9;fill-opacity:0.12;"/><path d="M119.268,122.186l0.249,-0.393l0,-0.499l-0.249,-0.106l-2.202,1.271l-0.249,0.394l-0,0.499l0.249,0.105l2.202,-1.271Z" style="fill:#25bcb4;"/><path d="M119.459,124.849l0.216,0.163l0.432,-0.249l0.216,-0.413l0,-2.542l-0.216,-0.163l-0.432,0.249l-0.216,0.413l-0,2.542Z" style="fill:#25bcb4;"/><path d="M117.066,126.396l-0.249,0.394l-0,0.499l0.249,0.105l2.202,-1.271l0.249,-0.393l0,-0.499l-0.249,-0.106l-2.202,1.271Z" style="fill:#25bcb4;"/><path d="M116.875,127.7l-0.216,-0.163l-0.432,0.249l-0.216,0.413l-0,2.542l0.216,0.163l0.432,-0.249l0.216,-0.413l0,-2.542Z" style="fill:#25bcb4;"/><path d="M119.459,128.751l0.216,0.164l0.432,-0.25l0.216,-0.413l0,-2.542l-0.216,-0.163l-0.432,0.25l-0.216,0.412l-0,2.542Z" style="fill:#25bcb4;"/><path d="M117.066,130.299l-0.249,0.393l-0,0.499l0.249,0.106l2.202,-1.271l0.249,-0.394l0,-0.499l-0.249,-0.105l-2.202,1.271Z" style="fill:#25bcb4;"/><path d="M122.729,120.418l-0.216,-0.164l-0.432,0.25l-0.216,0.413l-0,2.542l0.216,0.163l0.432,-0.249l0.216,-0.413l0,-2.542Z" style="fill:#eae9e9;fill-opacity:0.12;"/><path d="M125.122,118.807l0.249,-0.394l0,-0.499l-0.249,-0.105l-2.202,1.271l-0.249,0.393l-0,0.499l0.249,0.106l2.202,-1.271Z" style="fill:#eae9e9;fill-opacity:0.12;"/><path d="M125.313,121.469l0.216,0.164l0.432,-0.25l0.216,-0.413l-0,-2.542l-0.216,-0.163l-0.432,0.25l-0.216,0.412l-0,2.542Z" style="fill:#25bcb4;"/><path d="M131.632,115.048l0.25,-0.394l-0,-0.499l-0.25,-0.105l-2.201,1.271l-0.25,0.393l0,0.499l0.25,0.106l2.201,-1.271Z" style="fill:#25bcb4;"/><path d="M131.823,117.71l0.217,0.164l0.432,-0.25l0.216,-0.413l-0,-2.542l-0.216,-0.163l-0.432,0.25l-0.217,0.412l0,2.542Z" style="fill:#25bcb4;"/><path d="M129.431,119.258l-0.25,0.393l0,0.499l0.25,0.106l2.201,-1.271l0.25,-0.394l-0,-0.499l-0.25,-0.105l-2.201,1.271Z" style="fill:#25bcb4;"/><path d="M129.24,120.561l-0.216,-0.163l-0.432,0.249l-0.217,0.413l0,2.542l0.217,0.164l0.432,-0.25l0.216,-0.413l-0,-2.542Z" style="fill:#25bcb4;"/><path d="M129.431,123.16l-0.25,0.394l0,0.499l0.25,0.105l2.201,-1.271l0.25,-0.393l-0,-0.499l-0.25,-0.106l-2.201,1.271Z" style="fill:#25bcb4;"/><path d="M125.313,125.372l0.216,0.163l0.432,-0.249l0.216,-0.413l-0,-2.542l-0.216,-0.164l-0.432,0.25l-0.216,0.413l-0,2.542Z" style="fill:#25bcb4;"/><path d="M122.92,123.017l-0.249,0.393l-0,0.499l0.249,0.106l2.202,-1.271l0.249,-0.394l0,-0.499l-0.249,-0.105l-2.202,1.271Z" style="fill:#eae9e9;fill-opacity:0.12;"/><path d="M122.729,124.32l-0.216,-0.163l-0.432,0.249l-0.216,0.413l-0,2.542l0.216,0.164l0.432,-0.25l0.216,-0.413l0,-2.542Z" style="fill:#eae9e9;fill-opacity:0.12;"/><path d="M122.92,126.919l-0.249,0.394l-0,0.499l0.249,0.105l2.202,-1.271l0.249,-0.393l0,-0.499l-0.249,-0.106l-2.202,1.271Z" style="fill:#eae9e9;fill-opacity:0.12;"/><path d="M129.24,116.659l-0.216,-0.164l-0.432,0.25l-0.217,0.413l0,2.542l0.217,0.163l0.432,-0.249l0.216,-0.413l-0,-2.542Z" style="fill:#eae9e9;fill-opacity:0.12;"/><path d="M131.823,121.613l0.217,0.163l0.432,-0.249l0.216,-0.413l-0,-2.542l-0.216,-0.164l-0.432,0.25l-0.217,0.413l0,2.542Z" style="fill:#eae9e9;fill-opacity:0.12;"/><path d="M135.094,113.279l-0.217,-0.163l-0.432,0.249l-0.216,0.413l0,2.542l0.216,0.164l0.432,-0.25l0.217,-0.413l-0,-2.542Z" style="fill:#eae9e9;fill-opacity:0.12;"/><path d="M137.677,114.331l0.216,0.163l0.432,-0.249l0.216,-0.413l0,-2.542l-0.216,-0.164l-0.432,0.25l-0.216,0.413l0,2.542Z" style="fill:#25bcb4;"/><path d="M137.677,118.233l0.216,0.164l0.432,-0.25l0.216,-0.413l0,-2.542l-0.216,-0.163l-0.432,0.249l-0.216,0.413l0,2.542Z" style="fill:#25bcb4;"/><path d="M137.486,111.668l0.25,-0.393l-0,-0.499l-0.25,-0.106l-2.201,1.271l-0.25,0.394l0,0.499l0.25,0.105l2.201,-1.271Z" style="fill:#eae9e9;fill-opacity:0.12;"/><path d="M135.285,115.878l-0.25,0.394l0,0.499l0.25,0.105l2.201,-1.271l0.25,-0.393l-0,-0.499l-0.25,-0.106l-2.201,1.271Z" style="fill:#eae9e9;fill-opacity:0.12;"/><path d="M135.094,117.182l-0.217,-0.164l-0.432,0.25l-0.216,0.413l0,2.542l0.216,0.163l0.432,-0.25l0.217,-0.412l-0,-2.542Z" style="fill:#eae9e9;fill-opacity:0.12;"/><path d="M119.268,139.278l0.249,-0.393l0,-0.499l-0.249,-0.106l-2.202,1.271l-0.249,0.394l-0,0.499l0.249,0.105l2.202,-1.271Z" style="fill:#25bcb4;"/><path d="M119.459,141.941l0.216,0.163l0.432,-0.249l0.216,-0.413l0,-2.542l-0.216,-0.164l-0.432,0.25l-0.216,0.413l-0,2.542Z" style="fill:#25bcb4;"/><path d="M117.066,143.488l-0.249,0.394l-0,0.499l0.249,0.105l2.202,-1.271l0.249,-0.393l0,-0.499l-0.249,-0.106l-2.202,1.271Z" style="fill:#25bcb4;"/><path d="M116.875,144.792l-0.216,-0.164l-0.432,0.25l-0.216,0.413l-0,2.542l0.216,0.163l0.432,-0.25l0.216,-0.412l0,-2.542Z" style="fill:#25bcb4;"/><path d="M119.459,145.843l0.216,0.164l0.432,-0.25l0.216,-0.413l0,-2.542l-0.216,-0.163l-0.432,0.249l-0.216,0.413l-0,2.542Z" style="fill:#25bcb4;"/><path d="M117.066,147.391l-0.249,0.393l-0,0.499l0.249,0.106l2.202,-1.271l0.249,-0.394l0,-0.499l-0.249,-0.105l-2.202,1.271Z" style="fill:#25bcb4;"/><path d="M135.285,119.781l-0.25,0.393l0,0.499l0.25,0.106l2.201,-1.271l0.25,-0.394l-0,-0.499l-0.25,-0.105l-2.201,1.271Z" style="fill:#eae9e9;fill-opacity:0.12;"/><path d="M116.875,140.889l-0.216,-0.163l-0.432,0.249l-0.216,0.413l-0,2.542l0.216,0.164l0.432,-0.25l0.216,-0.413l0,-2.542Z" style="fill:#eae9e9;fill-opacity:0.12;"/><path d="M122.729,137.51l-0.216,-0.164l-0.432,0.25l-0.216,0.413l-0,2.542l0.216,0.163l0.432,-0.25l0.216,-0.412l0,-2.542Z" style="fill:#eae9e9;fill-opacity:0.12;"/><path d="M125.313,138.561l0.216,0.163l0.432,-0.249l0.216,-0.413l-0,-2.542l-0.216,-0.163l-0.432,0.249l-0.216,0.413l-0,2.542Z" style="fill:#25bcb4;"/><path d="M125.313,142.464l0.216,0.163l0.432,-0.25l0.216,-0.412l-0,-2.542l-0.216,-0.164l-0.432,0.25l-0.216,0.413l-0,2.542Z" style="fill:#25bcb4;"/><path d="M125.122,135.899l0.249,-0.394l0,-0.499l-0.249,-0.105l-2.202,1.271l-0.249,0.393l-0,0.499l0.249,0.106l2.202,-1.271Z" style="fill:#eae9e9;fill-opacity:0.12;"/><path d="M122.92,140.109l-0.249,0.393l-0,0.499l0.249,0.106l2.202,-1.271l0.249,-0.394l0,-0.499l-0.249,-0.105l-2.202,1.271Z" style="fill:#eae9e9;fill-opacity:0.12;"/><path d="M122.92,144.011l-0.249,0.394l-0,0.499l0.249,0.105l2.202,-1.271l0.249,-0.394l0,-0.499l-0.249,-0.105l-2.202,1.271Z" style="fill:#eae9e9;fill-opacity:0.12;"/><path d="M103.247,170.616c0,-0.423 -0.343,-0.766 -0.766,-0.766l-2.328,0c-0.423,0 -0.767,0.343 -0.767,0.766l0,15.723c0,0.423 0.344,0.767 0.767,0.767l2.328,-0c0.423,-0 0.766,-0.344 0.766,-0.767l0,-15.723Z" style="fill:#eae9e9;fill-opacity:0.12;"/><path d="M110.982,169.485c-0,-0.641 -0.494,-1.046 -1.101,-0.904l-3.344,0.782c-0.607,0.142 -1.1,0.778 -1.1,1.418l-0,15.869c-0,0.641 0.493,1.045 1.1,0.903l3.344,-0.781c0.607,-0.142 1.101,-0.778 1.101,-1.419l-0,-15.868Z" style="fill:#eae9e9;fill-opacity:0.12;"/><path d="M94.589,169.85c0,-0.406 0.313,-0.663 0.698,-0.573l2.119,0.495c0.385,0.09 0.697,0.493 0.697,0.899l0,15.346c0,0.406 -0.312,0.662 -0.697,0.572l-2.119,-0.495c-0.385,-0.09 -0.698,-0.493 -0.698,-0.899l0,-15.345Z" style="fill:#eae9e9;fill-opacity:0.12;"/><path d="M51.095,144.468c0,-0.799 0.167,-1.163 0.373,-0.814l1.134,1.923c0.206,0.349 0.373,1.282 0.373,2.08l0,14.785c0,0.799 -0.167,1.164 -0.373,0.814l-1.134,-1.923c-0.206,-0.349 -0.373,-1.281 -0.373,-2.08l0,-14.785Z" style="fill:#eae9e9;fill-opacity:0.12;"/><path d="M148.731,146.97c0,-0.798 -0.167,-1.163 -0.373,-0.814l-1.134,1.923c-0.206,0.35 -0.373,1.282 -0.373,2.081l0,14.198c0,0.799 0.167,1.163 0.373,0.814l1.134,-1.923c0.206,-0.35 0.373,-1.282 0.373,-2.081l0,-14.198Z" style="fill:#eae9e9;fill-opacity:0.12;"/><path d="M101.748,170.281c0,-0.238 -0.193,-0.431 -0.431,-0.431c-0.238,0 -0.432,0.193 -0.432,0.431l0,16.327c0,0.238 0.194,0.431 0.432,0.431c0.238,-0 0.431,-0.193 0.431,-0.431l0,-16.327Z" style="fill:#eae9e9;fill-opacity:0.12;"/><path d="M117.066,143.488l-0.249,0.394l-0,0.499l0.249,0.105l2.202,-1.271l0.249,-0.393l0,-0.499l-0.249,-0.106l-2.202,1.271Z" style="fill:#25bcb4;"/><path d="M116.875,144.792l-0.216,-0.164l-0.432,0.25l-0.216,0.413l-0,2.542l0.216,0.163l0.432,-0.25l0.216,-0.412l0,-2.542Z" style="fill:#25bcb4;"/><path d="M119.459,145.843l0.216,0.164l0.432,-0.25l0.216,-0.413l0,-2.542l-0.216,-0.163l-0.432,0.249l-0.216,0.413l-0,2.542Z" style="fill:#25bcb4;"/><path d="M117.066,147.391l-0.249,0.393l-0,0.499l0.249,0.106l2.202,-1.271l0.249,-0.394l0,-0.499l-0.249,-0.105l-2.202,1.271Z" style="fill:#25bcb4;"/><path d="M122.92,144.011l-0.249,0.394l-0,0.499l0.249,0.105l2.202,-1.271l0.249,-0.394l0,-0.499l-0.249,-0.105l-2.202,1.271Z" style="fill:#eae9e9;fill-opacity:0.12;"/><path d="M131.632,132.14l0.25,-0.394l-0,-0.499l-0.25,-0.105l-2.201,1.27l-0.25,0.394l0,0.499l0.25,0.106l2.201,-1.271Z" style="fill:#25bcb4;"/><path d="M131.823,134.802l0.217,0.163l0.432,-0.249l0.216,-0.413l-0,-2.542l-0.216,-0.163l-0.432,0.249l-0.217,0.413l0,2.542Z" style="fill:#25bcb4;"/><path d="M129.431,136.349l-0.25,0.394l0,0.499l0.25,0.106l2.201,-1.271l0.25,-0.394l-0,-0.499l-0.25,-0.105l-2.201,1.27Z" style="fill:#25bcb4;"/><path d="M129.24,137.653l-0.216,-0.163l-0.432,0.249l-0.217,0.413l0,2.542l0.217,0.163l0.432,-0.249l0.216,-0.413l-0,-2.542Z" style="fill:#25bcb4;"/><path d="M137.677,131.422l0.216,0.164l0.432,-0.25l0.216,-0.413l0,-2.541l-0.216,-0.164l-0.432,0.25l-0.216,0.413l0,2.541Z" style="fill:#25bcb4;"/><path d="M129.431,140.252l-0.25,0.394l0,0.499l0.25,0.105l2.201,-1.271l0.25,-0.394l-0,-0.499l-0.25,-0.105l-2.201,1.271Z" style="fill:#25bcb4;"/><path d="M137.677,135.325l0.216,0.163l0.432,-0.249l0.216,-0.413l0,-2.542l-0.216,-0.163l-0.432,0.249l-0.216,0.413l0,2.542Z" style="fill:#25bcb4;"/><path d="M129.24,133.751l-0.216,-0.164l-0.432,0.25l-0.217,0.413l0,2.542l0.217,0.163l0.432,-0.25l0.216,-0.412l-0,-2.542Z" style="fill:#eae9e9;fill-opacity:0.12;"/><path d="M131.823,138.705l0.217,0.163l0.432,-0.25l0.216,-0.413l-0,-2.541l-0.216,-0.164l-0.432,0.25l-0.217,0.413l0,2.542Z" style="fill:#eae9e9;fill-opacity:0.12;"/><path d="M135.094,130.371l-0.217,-0.163l-0.432,0.249l-0.216,0.413l0,2.542l0.216,0.163l0.432,-0.249l0.217,-0.413l-0,-2.542Z" style="fill:#eae9e9;fill-opacity:0.12;"/><path d="M137.486,128.76l0.25,-0.394l-0,-0.499l-0.25,-0.105l-2.201,1.271l-0.25,0.393l0,0.5l0.25,0.105l2.201,-1.271Z" style="fill:#eae9e9;fill-opacity:0.12;"/><path d="M135.285,132.97l-0.25,0.393l0,0.5l0.25,0.105l2.201,-1.271l0.25,-0.394l-0,-0.499l-0.25,-0.105l-2.201,1.271Z" style="fill:#eae9e9;fill-opacity:0.12;"/><path d="M135.094,134.273l-0.217,-0.163l-0.432,0.25l-0.216,0.412l0,2.542l0.216,0.164l0.432,-0.25l0.217,-0.413l-0,-2.542Z" style="fill:#eae9e9;fill-opacity:0.12;"/><path d="M135.285,136.872l-0.25,0.394l0,0.499l0.25,0.105l2.201,-1.271l0.25,-0.393l-0,-0.499l-0.25,-0.106l-2.201,1.271Z" style="fill:#eae9e9;fill-opacity:0.12;"/><path d="M94.964,106.447c-0.045,0.034 -1.684,1.295 -1.976,1.463c-0.242,0.139 -0.556,0.126 -0.9,-0.072l-37.08,-21.408c-0.76,-0.439 -1.377,-1.618 -1.377,-2.631l0,-10.811c0,-0.491 0.145,-0.854 0.381,-1.047c0.251,-0.206 1.676,-1.245 1.926,-1.433c0.249,-0.188 0.593,-0.195 0.973,0.024l37.08,21.408c0.76,0.439 1.376,1.617 1.376,2.63l0,10.812c0,0.506 -0.154,0.876 -0.403,1.065Z" style="fill:#001b35;"/><path d="M94.964,106.447c-0.045,0.034 -1.684,1.295 -1.976,1.463c-0.242,0.139 -0.556,0.126 -0.9,-0.072l-37.08,-21.408c-0.76,-0.439 -1.377,-1.618 -1.377,-2.631l0,-10.811c0,-0.491 0.145,-0.854 0.381,-1.047c0.251,-0.206 1.676,-1.245 1.926,-1.433c0.249,-0.188 0.593,-0.195 0.973,0.024l37.08,21.408c0.76,0.439 1.376,1.617 1.376,2.63l0,10.812c0,0.506 -0.154,0.876 -0.403,1.065Z" style="fill:#eae9e9;fill-opacity:0.12;"/><path d="M74.46,86.609c-0,-0.099 0.06,-0.144 0.134,-0.102l15.202,8.777c0.074,0.043 0.135,0.158 0.135,0.257l-0,1.056c-0,0.099 -0.061,0.144 -0.135,0.101l-15.202,-8.776c-0.074,-0.043 -0.134,-0.158 -0.134,-0.257l-0,-1.056Z" style="fill:#001B35;"/><path d="M74.46,90.261c-0,-0.099 0.06,-0.144 0.134,-0.101l15.202,8.777c0.074,0.042 0.135,0.158 0.135,0.256l-0,1.056c-0,0.099 -0.061,0.145 -0.135,0.102l-15.202,-8.777c-0.074,-0.043 -0.134,-0.158 -0.134,-0.257l-0,-1.056Z" style="fill:#001B35;"/><path d="M74.46,93.914c-0,-0.099 0.06,-0.145 0.134,-0.102l15.202,8.777c0.074,0.043 0.135,0.158 0.135,0.257l-0,1.056c-0,0.099 -0.061,0.144 -0.135,0.101l-15.202,-8.776c-0.074,-0.043 -0.134,-0.158 -0.134,-0.257l-0,-1.056Z" style="fill:#001B35;"/><path d="M57.165,76.624c0,-0.099 0.061,-0.145 0.135,-0.102l15.202,8.777c0.074,0.043 0.134,0.158 0.134,0.257l0,1.056c0,0.099 -0.06,0.144 -0.134,0.101l-15.202,-8.776c-0.074,-0.043 -0.135,-0.158 -0.135,-0.257l0,-1.056Z" style="fill:#001B35;"/><path d="M57.165,80.276c0,-0.099 0.061,-0.144 0.135,-0.101l15.202,8.777c0.074,0.042 0.134,0.157 0.134,0.256l0,1.056c0,0.099 -0.06,0.145 -0.134,0.102l-15.202,-8.777c-0.074,-0.043 -0.135,-0.158 -0.135,-0.257l0,-1.056Z" style="fill:#001B35;"/><path d="M94.964,130.228c-0.045,0.035 -1.684,1.296 -1.976,1.464c-0.242,0.139 -0.556,0.126 -0.9,-0.072l-37.08,-21.409c-0.76,-0.438 -1.377,-1.617 -1.377,-2.63l0,-10.812c0,-0.49 0.145,-0.853 0.381,-1.046c0.251,-0.206 1.676,-1.245 1.926,-1.433c0.249,-0.189 0.593,-0.196 0.973,0.024l37.08,21.408c0.76,0.439 1.376,1.617 1.376,2.63l0,10.812c0,0.506 -0.154,0.876 -0.403,1.064Z" style="fill:#001b35;"/><path d="M57.165,83.929c0,-0.099 0.061,-0.145 0.135,-0.102l15.202,8.777c0.074,0.043 0.134,0.158 0.134,0.257l0,1.056c0,0.099 -0.06,0.144 -0.134,0.101l-15.202,-8.777c-0.074,-0.042 -0.135,-0.157 -0.135,-0.256l0,-1.056Z" style="fill:#001B35;"/><path d="M92.988,107.91l-0,0c-0.008,0.005 0,0 0,0Zm0.025,-0.015c0.278,-0.176 0.452,-0.56 0.452,-1.098l-0,-10.812c-0,-1.013 -0.617,-2.191 -1.377,-2.63l-37.08,-21.408c-0.403,-0.233 -0.767,-0.211 -1.018,0.013c0.007,-0.006 0.014,-0.013 0.022,-0.019c0.251,-0.206 1.676,-1.245 1.926,-1.433c0.249,-0.188 0.593,-0.195 0.973,0.024l37.08,21.408c0.76,0.439 1.376,1.617 1.376,2.63l0,10.812c0,0.506 -0.154,0.876 -0.403,1.065c-0.044,0.033 -1.599,1.23 -1.951,1.448Z" style="fill:#eae9e9;fill-opacity:0.12;"/><path d="M95.367,94.57l-1.902,1.415c-0,-1.013 -0.617,-2.191 -1.377,-2.63l1.903,-1.415c0.76,0.439 1.376,1.617 1.376,2.63Z" style="fill:#eae9e9;fill-opacity:0.12;"/><path d="M95.367,94.57l-1.902,1.415c-0,-1.013 -0.457,-1.676 -0.803,-2.113l1.91,-1.415c0.326,0.462 0.795,1.1 0.795,2.113Z" style="fill:#eae9e9;fill-opacity:0.12;"/><path d="M74.46,86.609c-0,-0.099 0.06,-0.144 0.134,-0.102l15.202,8.777c0.074,0.043 0.135,0.158 0.135,0.257l-0,1.056c-0,0.099 -0.061,0.144 -0.135,0.101l-15.202,-8.776c-0.074,-0.043 -0.134,-0.158 -0.134,-0.257l-0,-1.056Z" style="fill:#001b35;"/><path d="M74.46,90.261c-0,-0.099 0.06,-0.144 0.134,-0.101l15.202,8.777c0.074,0.042 0.135,0.158 0.135,0.256l-0,1.056c-0,0.099 -0.061,0.145 -0.135,0.102l-15.202,-8.777c-0.074,-0.043 -0.134,-0.158 -0.134,-0.257l-0,-1.056Z" style="fill:#001b35;"/><path d="M74.46,93.914c-0,-0.099 0.06,-0.145 0.134,-0.102l15.202,8.777c0.074,0.043 0.135,0.158 0.135,0.257l-0,1.056c-0,0.099 -0.061,0.144 -0.135,0.101l-15.202,-8.776c-0.074,-0.043 -0.134,-0.158 -0.134,-0.257l-0,-1.056Z" style="fill:#001b35;"/><path d="M57.165,76.624c0,-0.099 0.061,-0.145 0.135,-0.102l15.202,8.777c0.074,0.043 0.134,0.158 0.134,0.257l0,1.056c0,0.099 -0.06,0.144 -0.134,0.101l-15.202,-8.776c-0.074,-0.043 -0.135,-0.158 -0.135,-0.257l0,-1.056Z" style="fill:#001b35;"/><path d="M57.165,80.276c0,-0.099 0.061,-0.144 0.135,-0.101l15.202,8.777c0.074,0.042 0.134,0.157 0.134,0.256l0,1.056c0,0.099 -0.06,0.145 -0.134,0.102l-15.202,-8.777c-0.074,-0.043 -0.135,-0.158 -0.135,-0.257l0,-1.056Z" style="fill:#001b35;"/><path d="M57.165,83.929c0,-0.099 0.061,-0.145 0.135,-0.102l15.202,8.777c0.074,0.043 0.134,0.158 0.134,0.257l0,1.056c0,0.099 -0.06,0.144 -0.134,0.101l-15.202,-8.777c-0.074,-0.042 -0.135,-0.157 -0.135,-0.256l0,-1.056Z" style="fill:#001b35;"/><path d="M94.964,130.228c-0.045,0.035 -1.684,1.296 -1.976,1.464c-0.242,0.139 -0.556,0.126 -0.9,-0.072l-37.08,-21.409c-0.76,-0.438 -1.377,-1.617 -1.377,-2.63l0,-10.812c0,-0.49 0.145,-0.853 0.381,-1.046c0.251,-0.206 1.676,-1.245 1.926,-1.433c0.249,-0.189 0.593,-0.196 0.973,0.024l37.08,21.408c0.76,0.439 1.376,1.617 1.376,2.63l0,10.812c0,0.506 -0.154,0.876 -0.403,1.064Z" style="fill:#eae9e9;fill-opacity:0.12;"/><path d="M74.46,110.391c-0,-0.099 0.06,-0.145 0.134,-0.102l15.202,8.777c0.074,0.043 0.135,0.158 0.135,0.257l-0,1.056c-0,0.099 -0.061,0.144 -0.135,0.101l-15.202,-8.777c-0.074,-0.042 -0.134,-0.157 -0.134,-0.256l-0,-1.056Z" style="fill:#001B35;"/><path d="M74.46,114.043c-0,-0.099 0.06,-0.144 0.134,-0.101l15.202,8.777c0.074,0.042 0.135,0.157 0.135,0.256l-0,1.056c-0,0.099 -0.061,0.145 -0.135,0.102l-15.202,-8.777c-0.074,-0.043 -0.134,-0.158 -0.134,-0.257l-0,-1.056Z" style="fill:#001B35;"/><path d="M74.46,117.696c-0,-0.099 0.06,-0.145 0.134,-0.102l15.202,8.777c0.074,0.043 0.135,0.158 0.135,0.257l-0,1.056c-0,0.099 -0.061,0.144 -0.135,0.101l-15.202,-8.777c-0.074,-0.042 -0.134,-0.158 -0.134,-0.256l-0,-1.056Z" style="fill:#001B35;"/><path d="M57.165,100.406c0,-0.099 0.061,-0.145 0.135,-0.102l15.202,8.777c0.074,0.043 0.134,0.158 0.134,0.257l0,1.056c0,0.099 -0.06,0.144 -0.134,0.101l-15.202,-8.777c-0.074,-0.042 -0.135,-0.158 -0.135,-0.256l0,-1.056Z" style="fill:#001B35;"/><path d="M57.165,104.058c0,-0.099 0.061,-0.144 0.135,-0.101l15.202,8.776c0.074,0.043 0.134,0.158 0.134,0.257l0,1.056c0,0.099 -0.06,0.145 -0.134,0.102l-15.202,-8.777c-0.074,-0.043 -0.135,-0.158 -0.135,-0.257l0,-1.056Z" style="fill:#001B35;"/><path d="M57.165,107.711c0,-0.099 0.061,-0.145 0.135,-0.102l15.202,8.777c0.074,0.043 0.134,0.158 0.134,0.257l0,1.056c0,0.098 -0.06,0.144 -0.134,0.101l-15.202,-8.777c-0.074,-0.043 -0.135,-0.158 -0.135,-0.257l0,-1.055Z" style="fill:#001B35;"/><path d="M92.988,131.692l-0,0c-0.008,0.005 0,-0 0,-0Zm0.025,-0.015c0.278,-0.176 0.452,-0.56 0.452,-1.098l-0,-10.812c-0,-1.013 -0.617,-2.191 -1.377,-2.63l-37.08,-21.408c-0.403,-0.233 -0.767,-0.211 -1.018,0.013c0.007,-0.007 0.014,-0.013 0.022,-0.019c0.251,-0.206 1.676,-1.245 1.926,-1.433c0.249,-0.189 0.593,-0.196 0.973,0.024l37.08,21.408c0.76,0.439 1.376,1.617 1.376,2.63l0,10.812c0,0.506 -0.154,0.876 -0.403,1.064c-0.044,0.034 -1.599,1.231 -1.951,1.449Z" style="fill:#eae9e9;fill-opacity:0.12;"/><path d="M95.367,118.352l-1.902,1.415c-0,-1.013 -0.617,-2.191 -1.377,-2.63l1.903,-1.415c0.76,0.439 1.376,1.617 1.376,2.63Z" style="fill:#eae9e9;fill-opacity:0.12;"/><path d="M95.367,118.352l-1.902,1.415c-0,-1.013 -0.457,-1.676 -0.803,-2.113l1.91,-1.416c0.326,0.463 0.795,1.101 0.795,2.114Z" style="fill:#eae9e9;fill-opacity:0.12;"/><path d="M74.46,110.391c-0,-0.099 0.06,-0.145 0.134,-0.102l15.202,8.777c0.074,0.043 0.135,0.158 0.135,0.257l-0,1.056c-0,0.099 -0.061,0.144 -0.135,0.101l-15.202,-8.777c-0.074,-0.042 -0.134,-0.157 -0.134,-0.256l-0,-1.056Z" style="fill:#001b35;"/><path d="M74.46,114.043c-0,-0.099 0.06,-0.144 0.134,-0.101l15.202,8.777c0.074,0.042 0.135,0.157 0.135,0.256l-0,1.056c-0,0.099 -0.061,0.145 -0.135,0.102l-15.202,-8.777c-0.074,-0.043 -0.134,-0.158 -0.134,-0.257l-0,-1.056Z" style="fill:#001b35;"/><path d="M74.46,117.696c-0,-0.099 0.06,-0.145 0.134,-0.102l15.202,8.777c0.074,0.043 0.135,0.158 0.135,0.257l-0,1.056c-0,0.099 -0.061,0.144 -0.135,0.101l-15.202,-8.777c-0.074,-0.042 -0.134,-0.158 -0.134,-0.256l-0,-1.056Z" style="fill:#001b35;"/><path d="M57.165,100.406c0,-0.099 0.061,-0.145 0.135,-0.102l15.202,8.777c0.074,0.043 0.134,0.158 0.134,0.257l0,1.056c0,0.099 -0.06,0.144 -0.134,0.101l-15.202,-8.777c-0.074,-0.042 -0.135,-0.158 -0.135,-0.256l0,-1.056Z" style="fill:#001b35;"/><path d="M57.165,104.058c0,-0.099 0.061,-0.144 0.135,-0.101l15.202,8.776c0.074,0.043 0.134,0.158 0.134,0.257l0,1.056c0,0.099 -0.06,0.145 -0.134,0.102l-15.202,-8.777c-0.074,-0.043 -0.135,-0.158 -0.135,-0.257l0,-1.056Z" style="fill:#001b35;"/><path d="M57.165,107.711c0,-0.099 0.061,-0.145 0.135,-0.102l15.202,8.777c0.074,0.043 0.134,0.158 0.134,0.257l0,1.056c0,0.098 -0.06,0.144 -0.134,0.101l-15.202,-8.777c-0.074,-0.043 -0.135,-0.158 -0.135,-0.257l0,-1.055Z" style="fill:#001b35;"/></svg>
