<?xml version="1.0" encoding="UTF-8" standalone="no"?><!DOCTYPE svg PUBLIC "-//W3C//DTD SVG 1.1//EN" "http://www.w3.org/Graphics/SVG/1.1/DTD/svg11.dtd"><svg width="100%" height="100%" viewBox="0 0 200 200" version="1.1" xmlns="http://www.w3.org/2000/svg" xmlns:xlink="http://www.w3.org/1999/xlink" xml:space="preserve" xmlns:serif="http://www.serif.com/" style="fill-rule:evenodd;clip-rule:evenodd;stroke-linejoin:round;stroke-miterlimit:2;"><path d="M115.221,19.946c-8.54,-4.931 -21.479,-5.467 -28.875,-1.197l-34.682,20.024c-7.396,4.27 -6.468,11.74 2.073,16.671l30.948,17.868c8.54,4.931 21.479,5.467 28.875,1.197l34.682,-20.024c7.396,-4.27 6.467,-11.74 -2.073,-16.671l-30.948,-17.868Z" style="fill:#a8a8a8;fill-opacity:0.27;"/><path d="M46.671,46.013c0,0.41 0,105.956 0,106.796c0,3.277 2.394,6.734 7.066,9.431l30.948,17.868c8.54,4.931 21.479,5.467 28.875,1.197l34.776,-20.078c3.351,-1.934 4.993,-4.525 4.993,-7.24c-0,-3.277 -0,-104.082 -0,-106.796c-0,-3.277 -2.394,-6.734 -7.066,-9.431l-30.948,-17.868c-8.54,-4.931 -21.479,-5.467 -28.875,-1.197l-34.776,20.078c-3.351,1.934 -4.993,4.525 -4.993,7.24Z" style="fill:#001b35;"/><path d="M115.296,19.903c-8.54,-4.931 -21.479,-5.467 -28.875,-1.197l-34.757,20.067c-7.396,4.27 -6.468,11.74 2.073,16.671l30.948,17.868c8.54,4.931 21.479,5.467 28.875,1.197l34.757,-20.067c7.396,-4.271 6.467,-11.741 -2.073,-16.671l-30.948,-17.868Z" style="fill:#ececec;fill-opacity:0.1;"/><path d="M103.52,78.577c-0,-0.458 -0.373,-0.831 -0.831,-0.831l-2.523,0c-0.459,0 -0.831,0.373 -0.831,0.831l-0,104.508c-0,0.458 0.372,0.831 0.831,0.831l2.523,-0c0.458,-0 0.831,-0.373 0.831,-0.831l-0,-104.508Z" style="fill:#ececec;fill-opacity:0.1;"/><path d="M111.904,77.351c-0,-0.695 -0.535,-1.134 -1.194,-0.98l-3.624,0.848c-0.658,0.153 -1.193,0.842 -1.193,1.537l0,103.652c0,0.695 0.535,1.134 1.193,0.98l3.624,-0.848c0.659,-0.153 1.194,-0.842 1.194,-1.537l-0,-103.652Z" style="fill:#ececec;fill-opacity:0.1;"/><path d="M94.135,77.746c0,-0.44 0.339,-0.718 0.756,-0.621l2.297,0.537c0.417,0.098 0.756,0.534 0.756,0.974l-0,104.575c-0,0.44 -0.339,0.718 -0.756,0.62l-2.297,-0.537c-0.417,-0.097 -0.756,-0.534 -0.756,-0.974l0,-104.574Z" style="fill:#ececec;fill-opacity:0.1;"/><path d="M46.989,50.233c0,-0.865 0.181,-1.261 0.405,-0.882l1.229,2.084c0.223,0.379 0.404,1.39 0.404,2.256l0,103.031c0,0.866 -0.181,1.262 -0.404,0.883l-1.229,-2.085c-0.224,-0.379 -0.405,-1.389 -0.405,-2.255l0,-103.032Z" style="fill:#ececec;fill-opacity:0.1;"/><path d="M152.823,52.946c-0,-0.866 -0.182,-1.261 -0.405,-0.883l-1.229,2.085c-0.223,0.379 -0.404,1.389 -0.404,2.255l-0,103.032c-0,0.865 0.181,1.261 0.404,0.882l1.229,-2.084c0.223,-0.379 0.405,-1.39 0.405,-2.255l-0,-103.032Z" style="fill:#ececec;fill-opacity:0.1;"/><path d="M101.895,78.214c-0,-0.258 -0.21,-0.468 -0.468,-0.468c-0.258,0 -0.467,0.21 -0.467,0.468l-0,105.234c-0,0.258 0.209,0.468 0.467,0.468c0.258,-0 0.468,-0.21 0.468,-0.468l-0,-105.234Z" style="fill:#ececec;fill-opacity:0.1;"/><path d="M89.62,98.333c0,-1.209 -0.736,-2.616 -1.643,-3.139l-33.6,-19.4c-0.907,-0.523 -1.643,0.033 -1.643,1.243c0,1.209 0.736,2.615 1.643,3.139l33.6,19.399c0.907,0.523 1.643,-0.033 1.643,-1.242Z" style="fill:#1b3349;"/><path d="M57.049,77.337l-3.521,2.033c0.248,0.343 0.538,0.626 0.849,0.806l33.6,19.399c0.907,0.523 1.643,-0.033 1.643,-1.242c0,-1.209 -0.736,-2.616 -1.643,-3.139l-30.928,-17.857Z" style="fill:#e8e8e8;fill-opacity:0.11;"/><path d="M89.62,109.882c0,-1.209 -0.736,-2.616 -1.643,-3.14l-33.6,-19.399c-0.907,-0.523 -1.643,0.033 -1.643,1.242c0,1.209 0.736,2.616 1.643,3.14l33.6,19.399c0.907,0.523 1.643,-0.033 1.643,-1.242Z" style="fill:#1b3349;"/><path d="M57.049,88.886l-3.521,2.032c0.248,0.344 0.538,0.627 0.849,0.807l33.6,19.399c0.907,0.523 1.643,-0.033 1.643,-1.242c0,-1.209 -0.736,-2.616 -1.643,-3.14l-30.928,-17.856Z" style="fill:#e8e8e8;fill-opacity:0.11;"/><path d="M91.325,140.796c-0.044,0.033 -1.626,1.251 -1.908,1.413c-0.233,0.134 -0.536,0.122 -0.868,-0.07l-35.786,-20.661c-0.733,-0.423 -1.329,-1.561 -1.329,-2.539l0,-10.434c0,-0.474 0.14,-0.823 0.367,-1.01c0.242,-0.199 1.618,-1.201 1.859,-1.383c0.24,-0.182 0.573,-0.189 0.939,0.023l35.786,20.661c0.733,0.423 1.329,1.561 1.329,2.539l-0,10.434c-0,0.489 -0.149,0.846 -0.389,1.027Z" style="fill:#001b35;"/><path d="M51.434,108.505c0,-0.978 0.596,-1.428 1.329,-1.004l35.786,20.661c0.733,0.423 1.328,1.56 1.328,2.538l0,10.435c0,0.977 -0.595,1.427 -1.328,1.004l-35.786,-20.661c-0.733,-0.423 -1.329,-1.561 -1.329,-2.539l0,-10.434Z" style="fill:#f3f3f3;fill-opacity:0.05;"/><path d="M89.418,142.209l-0.001,0c-0.007,0.004 0.001,-0 0.001,-0Zm0.024,-0.015c0.267,-0.17 0.435,-0.54 0.435,-1.059l0,-10.435c0,-0.978 -0.595,-2.115 -1.328,-2.538l-35.786,-20.661c-0.39,-0.225 -0.74,-0.204 -0.983,0.012c0.007,-0.006 0.014,-0.012 0.021,-0.018c0.242,-0.199 1.618,-1.201 1.859,-1.383c0.24,-0.182 0.573,-0.189 0.939,0.023l35.786,20.661c0.733,0.423 1.329,1.561 1.329,2.539l-0,10.434c-0,0.489 -0.149,0.846 -0.389,1.027c-0.043,0.032 -1.544,1.188 -1.883,1.398Z" style="fill:#f3f3f3;fill-opacity:0.05;"/><path d="M91.714,129.335l-1.837,1.365c0,-0.978 -0.595,-2.115 -1.328,-2.538l1.836,-1.366c0.733,0.423 1.329,1.561 1.329,2.539Z" style="fill:#f3f3f3;fill-opacity:0.05;"/><path d="M91.714,129.335l-1.837,1.365c0,-0.978 -0.441,-1.617 -0.774,-2.039l1.843,-1.366c0.315,0.446 0.768,1.062 0.768,2.04Z" style="fill:#f3f3f3;fill-opacity:0.05;"/><path d="M71.536,121.651c-0,-0.095 0.058,-0.139 0.13,-0.098l14.671,8.471c0.072,0.041 0.13,0.152 0.13,0.247l-0,1.019c-0,0.096 -0.058,0.14 -0.13,0.098l-14.671,-8.47c-0.072,-0.041 -0.13,-0.153 -0.13,-0.248l-0,-1.019Z" style="fill:#001a35;"/><path d="M71.536,125.176c-0,-0.095 0.058,-0.139 0.13,-0.098l14.671,8.471c0.072,0.041 0.13,0.152 0.13,0.247l-0,1.019c-0,0.096 -0.058,0.14 -0.13,0.098l-14.671,-8.47c-0.072,-0.041 -0.13,-0.153 -0.13,-0.248l-0,-1.019Z" style="fill:#001a35;"/><path d="M71.536,128.701c-0,-0.095 0.058,-0.139 0.13,-0.098l14.671,8.47c0.072,0.042 0.13,0.153 0.13,0.248l-0,1.019c-0,0.096 -0.058,0.14 -0.13,0.098l-14.671,-8.47c-0.072,-0.041 -0.13,-0.153 -0.13,-0.248l-0,-1.019Z" style="fill:#001a35;"/><path d="M54.845,112.014c-0,-0.095 0.058,-0.139 0.13,-0.098l14.671,8.471c0.072,0.041 0.13,0.152 0.13,0.248l-0,1.019c-0,0.095 -0.058,0.139 -0.13,0.098l-14.671,-8.471c-0.072,-0.041 -0.13,-0.152 -0.13,-0.248l-0,-1.019Z" style="fill:#001a35;"/><path d="M54.845,115.539c-0,-0.095 0.058,-0.139 0.13,-0.098l14.671,8.471c0.072,0.041 0.13,0.152 0.13,0.248l-0,1.019c-0,0.095 -0.058,0.139 -0.13,0.098l-14.671,-8.471c-0.072,-0.041 -0.13,-0.152 -0.13,-0.248l-0,-1.019Z" style="fill:#001a35;"/><path d="M54.845,119.064c-0,-0.095 0.058,-0.139 0.13,-0.098l14.671,8.471c0.072,0.041 0.13,0.152 0.13,0.248l-0,1.019c-0,0.095 -0.058,0.139 -0.13,0.098l-14.671,-8.471c-0.072,-0.041 -0.13,-0.152 -0.13,-0.248l-0,-1.019Z" style="fill:#001a35;"/><path d="M89.418,142.209l-0.001,0c-0.007,0.004 0.001,-0 0.001,-0Zm0.024,-0.015c0.267,-0.17 0.435,-0.54 0.435,-1.059l0,-10.435c0,-0.978 -0.595,-2.115 -1.328,-2.538l-35.786,-20.661c-0.39,-0.225 -0.74,-0.204 -0.983,0.012c0.007,-0.006 0.014,-0.012 0.021,-0.018c0.242,-0.199 1.618,-1.201 1.859,-1.383c0.24,-0.182 0.573,-0.189 0.939,0.023l35.786,20.661c0.733,0.423 1.329,1.561 1.329,2.539l-0,10.434c-0,0.489 -0.149,0.846 -0.389,1.027c-0.043,0.032 -1.544,1.188 -1.883,1.398Z" style="fill:#e9e9e9;fill-opacity:0.14;"/><path d="M91.714,129.335l-1.837,1.365c0,-0.978 -0.595,-2.115 -1.328,-2.538l1.836,-1.366c0.733,0.423 1.329,1.561 1.329,2.539Z" style="fill:#e9e9e9;fill-opacity:0.07;"/><path d="M91.714,129.335l-1.837,1.365c0,-0.978 -0.441,-1.617 -0.774,-2.039l1.843,-1.366c0.315,0.446 0.768,1.062 0.768,2.04Z" style="fill:#e9e9e9;fill-opacity:0.05;"/><path d="M71.536,121.651c-0,-0.095 0.058,-0.139 0.13,-0.098l14.671,8.471c0.072,0.041 0.13,0.152 0.13,0.247l-0,1.019c-0,0.096 -0.058,0.14 -0.13,0.098l-14.671,-8.47c-0.072,-0.041 -0.13,-0.153 -0.13,-0.248l-0,-1.019Z" style="fill:#25bcb4;"/><path d="M71.536,125.176c-0,-0.095 0.058,-0.139 0.13,-0.098l14.671,8.471c0.072,0.041 0.13,0.152 0.13,0.247l-0,1.019c-0,0.096 -0.058,0.14 -0.13,0.098l-14.671,-8.47c-0.072,-0.041 -0.13,-0.153 -0.13,-0.248l-0,-1.019Z" style="fill:#25bcb4;"/><path d="M71.536,128.701c-0,-0.095 0.058,-0.139 0.13,-0.098l14.671,8.47c0.072,0.042 0.13,0.153 0.13,0.248l-0,1.019c-0,0.096 -0.058,0.14 -0.13,0.098l-14.671,-8.47c-0.072,-0.041 -0.13,-0.153 -0.13,-0.248l-0,-1.019Z" style="fill:#25bcb4;"/><path d="M54.845,112.014c-0,-0.095 0.058,-0.139 0.13,-0.098l14.671,8.471c0.072,0.041 0.13,0.152 0.13,0.248l-0,1.019c-0,0.095 -0.058,0.139 -0.13,0.098l-14.671,-8.471c-0.072,-0.041 -0.13,-0.152 -0.13,-0.248l-0,-1.019Z" style="fill:#25bcb4;"/><path d="M54.845,115.539c-0,-0.095 0.058,-0.139 0.13,-0.098l14.671,8.471c0.072,0.041 0.13,0.152 0.13,0.248l-0,1.019c-0,0.095 -0.058,0.139 -0.13,0.098l-14.671,-8.471c-0.072,-0.041 -0.13,-0.152 -0.13,-0.248l-0,-1.019Z" style="fill:#25bcb4;"/><path d="M54.845,119.064c-0,-0.095 0.058,-0.139 0.13,-0.098l14.671,8.471c0.072,0.041 0.13,0.152 0.13,0.248l-0,1.019c-0,0.095 -0.058,0.139 -0.13,0.098l-14.671,-8.471c-0.072,-0.041 -0.13,-0.152 -0.13,-0.248l-0,-1.019Z" style="fill:#25bcb4;"/></svg>