<?xml version="1.0" encoding="UTF-8" standalone="no"?><!DOCTYPE svg PUBLIC "-//W3C//DTD SVG 1.1//EN" "http://www.w3.org/Graphics/SVG/1.1/DTD/svg11.dtd"><svg width="100%" height="100%" viewBox="0 0 200 200" version="1.1" xmlns="http://www.w3.org/2000/svg" xmlns:xlink="http://www.w3.org/1999/xlink" xml:space="preserve" xmlns:serif="http://www.serif.com/" style="fill-rule:evenodd;clip-rule:evenodd;stroke-linejoin:round;stroke-miterlimit:2;"><g><g><g><path d="M101.371,186.464l-0,-7.743c-1.236,0.713 -3.396,0.623 -4.823,-0.2l-46.179,-26.662c-0.802,-0.463 -1.202,-1.059 -1.179,-1.619c-0.001,0.014 -0.001,0.029 -0.001,0.044c-0,0.547 -0,7.29 -0,7.744c-0,0.547 0.4,1.124 1.18,1.575l46.179,26.661c1.427,0.824 3.587,0.913 4.823,0.2Z" style="fill:#f5f5f5;fill-opacity:0.04;"/><path d="M49.189,150.284c-0,0.547 -0,7.29 -0,7.744c-0,0.547 0.4,1.124 1.18,1.575l46.179,26.661c1.427,0.824 3.587,0.913 4.823,0.2l48.607,-28.063c0.559,-0.323 0.833,-0.756 0.833,-1.209c0,-0.547 0,-7.29 0,-7.743c0,-0.548 -0.4,-1.125 -1.18,-1.575l-46.179,-26.662c-1.427,-0.824 -3.587,-0.913 -4.823,-0.2l-48.607,28.063c-0.559,0.323 -0.833,0.756 -0.833,1.209Z" style="fill:#25bcb4;"/><g><path d="M150.811,149.448c0,0.454 -0.274,0.887 -0.833,1.21l-48.607,28.063c-1.236,0.713 -3.396,0.623 -4.823,-0.2l-46.179,-26.662c-0.802,-0.463 -1.202,-1.059 -1.179,-1.619c-0.001,0.014 -0.001,0.029 -0.001,0.044c-0,0.547 -0,7.29 -0,7.744c-0,0.547 0.4,1.124 1.18,1.575l46.179,26.661c1.427,0.824 3.587,0.913 4.823,0.2l48.607,-28.061c0.559,-0.323 0.833,-0.756 0.833,-1.209c0,-0.548 0,-7.292 0,-7.745l0,-0.001Z" style="fill:#fff;fill-opacity:0.24;"/><path d="M101.371,186.464l-0,-7.743c-1.236,0.713 -3.396,0.623 -4.823,-0.2l0,7.743c1.427,0.824 3.587,0.913 4.823,0.2Z" style="fill:#fff;fill-opacity:0.24;"/><path d="M98.543,179.157l-0,7.741c0.278,0.034 0.558,0.049 0.833,0.044l0,-7.741c-0.274,0.005 -0.555,-0.01 -0.833,-0.044Z" style="fill:#fff;fill-opacity:0.24;"/></g></g></g><g><g><path d="M101.371,180.632l-0,-7.743c-1.236,0.713 -3.396,0.623 -4.823,-0.2l-46.179,-26.662c-0.802,-0.463 -1.202,-1.06 -1.179,-1.62c-0.001,0.015 -0.001,0.03 -0.001,0.045c-0,0.547 -0,7.29 -0,7.743c-0,0.547 0.4,1.125 1.18,1.575l46.179,26.662c1.427,0.824 3.587,0.913 4.823,0.2Z" style="fill:#f5f5f5;fill-opacity:0.04;"/><path d="M49.189,144.452c-0,0.547 -0,7.29 -0,7.743c-0,0.547 0.4,1.125 1.18,1.575l46.179,26.662c1.427,0.824 3.587,0.913 4.823,0.2l48.607,-28.063c0.559,-0.323 0.833,-0.756 0.833,-1.209c0,-0.548 0,-7.29 0,-7.744c0,-0.547 -0.4,-1.124 -1.18,-1.575l-46.179,-26.662c-1.427,-0.823 -3.587,-0.913 -4.823,-0.2l-48.607,28.064c-0.559,0.323 -0.833,0.755 -0.833,1.209Z" style="fill:#25bcb4;"/><g><path d="M150.811,143.616c0,0.453 -0.274,0.886 -0.833,1.209l-48.607,28.064c-1.236,0.713 -3.396,0.623 -4.823,-0.2l-46.179,-26.662c-0.802,-0.463 -1.202,-1.06 -1.179,-1.62c-0.001,0.015 -0.001,0.03 -0.001,0.045c-0,0.547 -0,7.29 -0,7.743c-0,0.547 0.4,1.125 1.18,1.575l46.179,26.662c1.427,0.824 3.587,0.913 4.823,0.2l48.607,-28.062c0.559,-0.323 0.833,-0.756 0.833,-1.209c0,-0.547 0,-7.291 0,-7.745l0,0Z" style="fill:#fff;fill-opacity:0.24;"/><path d="M101.371,180.632l-0,-7.743c-1.236,0.713 -3.396,0.623 -4.823,-0.2l0,7.743c1.427,0.824 3.587,0.913 4.823,0.2Z" style="fill:#fff;fill-opacity:0.24;"/><path d="M98.543,173.325l-0,7.741c0.278,0.034 0.558,0.049 0.833,0.044l0,-7.741c-0.274,0.005 -0.555,-0.01 -0.833,-0.044Z" style="fill:#fff;fill-opacity:0.24;"/></g></g></g><g><g><path d="M101.371,174.964l-0,-7.744c-1.236,0.713 -3.396,0.624 -4.823,-0.2l-46.179,-26.661c-0.802,-0.463 -1.202,-1.06 -1.179,-1.62c-0.001,0.015 -0.001,0.03 -0.001,0.045c-0,0.547 -0,7.29 -0,7.743c-0,0.547 0.4,1.125 1.18,1.575l46.179,26.662c1.427,0.823 3.587,0.913 4.823,0.2Z" style="fill:#f5f5f5;fill-opacity:0.04;"/><path d="M49.189,138.784c-0,0.547 -0,7.29 -0,7.743c-0,0.547 0.4,1.125 1.18,1.575l46.179,26.662c1.427,0.823 3.587,0.913 4.823,0.2l48.607,-28.063c0.559,-0.324 0.833,-0.756 0.833,-1.209c0,-0.548 0,-7.291 0,-7.744c0,-0.547 -0.4,-1.124 -1.18,-1.575l-46.179,-26.662c-1.427,-0.823 -3.587,-0.913 -4.823,-0.2l-48.607,28.064c-0.559,0.323 -0.833,0.755 -0.833,1.209Z" style="fill:#25bcb4;"/><g><path d="M150.811,137.948c0,0.453 -0.274,0.886 -0.833,1.209l-48.607,28.063c-1.236,0.713 -3.396,0.624 -4.823,-0.2l-46.179,-26.661c-0.802,-0.463 -1.202,-1.06 -1.179,-1.62c-0.001,0.015 -0.001,0.03 -0.001,0.045c-0,0.547 -0,7.29 -0,7.743c-0,0.547 0.4,1.125 1.18,1.575l46.179,26.662c1.427,0.823 3.587,0.913 4.823,0.2l48.607,-28.062c0.559,-0.323 0.833,-0.756 0.833,-1.209c0,-0.547 0,-7.292 0,-7.745l0,-0Z" style="fill:#fff;fill-opacity:0.24;"/><path d="M101.371,174.964l-0,-7.744c-1.236,0.713 -3.396,0.624 -4.823,-0.2l0,7.744c1.427,0.823 3.587,0.913 4.823,0.2Z" style="fill:#fff;fill-opacity:0.24;"/><path d="M98.543,167.657l-0,7.74c0.278,0.035 0.558,0.049 0.833,0.045l0,-7.741c-0.274,0.005 -0.555,-0.01 -0.833,-0.044Z" style="fill:#fff;fill-opacity:0.24;"/></g></g></g><g><path d="M52.949,47.209c0,0.507 0,90.771 0,91.191c0,0.507 0.37,1.041 1.093,1.458l42.762,24.689c1.321,0.763 3.321,0.846 4.465,0.185l45.01,-25.986c0.518,-0.299 0.772,-0.7 0.772,-1.12c-0,-0.506 -0,-90.771 -0,-91.191c-0,-0.507 -0.37,-1.041 -1.093,-1.458l-42.762,-24.689c-1.321,-0.762 -3.321,-0.845 -4.465,-0.185l-45.01,25.986c-0.518,0.299 -0.772,0.7 -0.772,1.12Z" style="fill:#0d273f;"/><path d="M147.051,46.435c0,0.42 -0.254,0.821 -0.772,1.12l-45.01,25.986c-1.144,0.661 -3.144,0.578 -4.465,-0.185l-42.762,-24.689c-0.742,-0.428 -1.113,-0.981 -1.092,-1.499c-0.001,0.013 -0.001,0.027 -0.001,0.041c0,0.507 0,90.771 0,91.191c0,0.507 0.37,1.041 1.093,1.458l42.762,24.689c1.321,0.763 3.321,0.846 4.465,0.185l45.01,-25.986c0.518,-0.299 0.772,-0.7 0.772,-1.12c-0,-0.506 -0,-90.771 -0,-91.191l-0,0Z" style="fill:#f5f5f5;fill-opacity:0.04;"/><path d="M101.269,164.732l0,-91.191c-1.144,0.661 -3.144,0.578 -4.465,-0.185l-42.762,-24.689c-0.742,-0.428 -1.113,-0.981 -1.092,-1.499c-0.001,0.013 -0.001,0.027 -0.001,0.041c0,0.507 0,90.771 0,91.191c0,0.507 0.37,1.041 1.093,1.458l42.762,24.689c1.321,0.763 3.321,0.846 4.465,0.185Z" style="fill:#f5f5f5;fill-opacity:0.04;"/><path d="M101.269,164.732l0,-91.191c-1.144,0.661 -3.144,0.578 -4.465,-0.185l-0,91.191c1.321,0.763 3.321,0.846 4.465,0.185Z" style="fill:#f5f5f5;fill-opacity:0.04;"/><path d="M98.65,73.945l0,91.191c0.259,0.032 0.518,0.046 0.773,0.041l-0,-91.191c-0.255,0.005 -0.514,-0.009 -0.773,-0.041Z" style="fill:#f5f5f5;fill-opacity:0.04;"/></g><g><path d="M56.387,153.437c0.458,-0.227 2.269,-1.37 2.828,-1.627c0.736,-0.339 1.71,-0.243 2.777,0.374c2.294,1.324 4.156,4.55 4.156,7.199c0,1.232 -0.403,2.124 -1.065,2.592c-0.501,0.355 -2.433,1.401 -2.893,1.68c-0.755,0.458 -1.81,0.405 -2.975,-0.269c-2.295,-1.324 -4.157,-4.55 -4.157,-7.199c-0,-1.389 0.512,-2.345 1.329,-2.75Z" style="fill:#d9d9d9;"/><path d="M56.39,153.436c0.463,-0.231 2.268,-1.37 2.825,-1.626c0.736,-0.339 1.71,-0.243 2.777,0.374c2.294,1.324 4.156,4.55 4.156,7.199c0,1.232 -0.403,2.124 -1.065,2.592c-0.5,0.354 -2.42,1.394 -2.889,1.677c0.729,-0.444 1.177,-1.365 1.177,-2.665c0,-2.65 -1.862,-5.876 -4.156,-7.2c-1.09,-0.629 -2.083,-0.717 -2.825,-0.351Z" style="fill:#eee;fill-opacity:0.51;"/><path d="M56.387,153.437c0.458,-0.227 2.269,-1.37 2.828,-1.627c0.736,-0.339 1.71,-0.243 2.777,0.374c2.294,1.324 4.156,4.55 4.156,7.199c0,1.232 -0.403,2.124 -1.065,2.592c-0.501,0.355 -2.433,1.401 -2.893,1.68c-0.755,0.458 -1.81,0.405 -2.975,-0.269c-2.295,-1.324 -4.157,-4.55 -4.157,-7.199c-0,-1.389 0.512,-2.345 1.329,-2.75Z" style="fill:#001a35;"/><g><path d="M56.39,153.436c0.463,-0.231 2.268,-1.37 2.825,-1.626c0.736,-0.339 1.71,-0.243 2.777,0.374c2.294,1.324 4.156,4.55 4.156,7.199c0,1.232 -0.403,2.124 -1.065,2.592c-0.5,0.354 -2.42,1.394 -2.889,1.677c0.729,-0.444 1.177,-1.365 1.177,-2.665c0,-2.65 -1.862,-5.876 -4.156,-7.2c-1.09,-0.629 -2.083,-0.717 -2.825,-0.351Z" style="fill:#f2f2f2;fill-opacity:0.1;"/><path d="M59.215,154.519c1.944,1.123 3.522,3.857 3.522,6.101c-0,2.245 -1.578,3.156 -3.522,2.034c-1.945,-1.122 -3.523,-3.856 -3.523,-6.101c0,-2.245 1.578,-3.156 3.523,-2.034Z" style="fill:#f2f2f2;fill-opacity:0.1;"/><path d="M59.956,156.222c0.925,0.535 1.677,1.836 1.677,2.904c-0,1.069 -0.752,1.503 -1.677,0.968c-0.925,-0.534 -1.676,-1.835 -1.676,-2.904c-0,-1.068 0.751,-1.502 1.676,-0.968Z" style="fill:#f2f2f2;fill-opacity:0.1;"/></g><g><path d="M76.639,165.129c0.457,-0.226 2.269,-1.37 2.827,-1.627c0.736,-0.339 1.71,-0.242 2.777,0.374c2.294,1.324 4.157,4.55 4.157,7.199c-0,1.232 -0.403,2.124 -1.065,2.592c-0.502,0.355 -2.434,1.401 -2.894,1.68c-0.755,0.458 -1.809,0.405 -2.975,-0.268c-2.294,-1.325 -4.157,-4.551 -4.157,-7.2c0,-1.389 0.512,-2.345 1.33,-2.75Z" style="fill:#d9d9d9;"/><path d="M76.642,165.128c0.462,-0.23 2.267,-1.37 2.824,-1.626c0.736,-0.339 1.71,-0.242 2.777,0.374c2.294,1.324 4.157,4.55 4.157,7.199c-0,1.232 -0.403,2.124 -1.065,2.592c-0.5,0.354 -2.421,1.394 -2.889,1.677c0.728,-0.444 1.177,-1.365 1.177,-2.665c-0,-2.649 -1.863,-5.875 -4.157,-7.2c-1.09,-0.629 -2.083,-0.717 -2.824,-0.351Z" style="fill:#eee;fill-opacity:0.51;"/><path d="M76.639,165.129c0.457,-0.226 2.269,-1.37 2.827,-1.627c0.736,-0.339 1.71,-0.242 2.777,0.374c2.294,1.324 4.157,4.55 4.157,7.199c-0,1.232 -0.403,2.124 -1.065,2.592c-0.502,0.355 -2.434,1.401 -2.894,1.68c-0.755,0.458 -1.809,0.405 -2.975,-0.268c-2.294,-1.325 -4.157,-4.551 -4.157,-7.2c0,-1.389 0.512,-2.345 1.33,-2.75Z" style="fill:#001a35;"/><g><path d="M76.642,165.128c0.462,-0.23 2.267,-1.37 2.824,-1.626c0.736,-0.339 1.71,-0.242 2.777,0.374c2.294,1.324 4.157,4.55 4.157,7.199c-0,1.232 -0.403,2.124 -1.065,2.592c-0.5,0.354 -2.421,1.394 -2.889,1.677c0.728,-0.444 1.177,-1.365 1.177,-2.665c-0,-2.649 -1.863,-5.875 -4.157,-7.2c-1.09,-0.629 -2.083,-0.717 -2.824,-0.351Z" style="fill:#f2f2f2;fill-opacity:0.1;"/><path d="M79.466,166.211c1.944,1.123 3.522,3.857 3.522,6.101c0,2.245 -1.578,3.157 -3.522,2.034c-1.944,-1.122 -3.522,-3.856 -3.522,-6.101c-0,-2.245 1.578,-3.156 3.522,-2.034Z" style="fill:#f2f2f2;fill-opacity:0.1;"/><path d="M80.208,167.915c0.925,0.534 1.676,1.835 1.676,2.904c0,1.068 -0.751,1.502 -1.676,0.968c-0.926,-0.535 -1.677,-1.836 -1.677,-2.904c-0,-1.069 0.751,-1.503 1.677,-0.968Z" style="fill:#f2f2f2;fill-opacity:0.1;"/></g></g><path d="M59.215,157.108c-0,0 -0.863,0.578 -1.742,1.006c-3.183,1.547 -8.093,4.161 -0.505,8.402l8.541,5.076c7.731,4.75 12.378,0.955 15.171,-0.634c-0,0 0.726,-0.206 0.068,-1.467c-0.52,-0.996 -1.215,-0.793 -1.215,-0.793c-2.045,1.34 -6.5,3.908 -12.339,0.896l-7.979,-4.66c-5.253,-3.113 -1.969,-4.051 1.173,-5.527c-0,0 0.685,-0.415 0.021,-1.501c-0.587,-0.961 -1.194,-0.798 -1.194,-0.798Z" style="fill:#25bcb4;"/></g><g><g><path d="M60.638,127.222c0.391,-0.194 1.938,-1.17 2.415,-1.39c0.629,-0.29 1.461,-0.207 2.372,0.319c1.96,1.132 3.551,3.887 3.551,6.15c-0,1.052 -0.345,1.814 -0.91,2.214c-0.429,0.303 -2.079,1.196 -2.472,1.434c-0.645,0.392 -1.545,0.346 -2.541,-0.229c-1.96,-1.131 -3.55,-3.887 -3.55,-6.149c-0,-1.187 0.437,-2.003 1.135,-2.349Z" style="fill:#001a35;"/><g><path d="M60.641,127.221c0.395,-0.197 1.936,-1.17 2.412,-1.389c0.629,-0.29 1.461,-0.207 2.372,0.319c1.96,1.132 3.551,3.887 3.551,6.15c-0,1.052 -0.345,1.814 -0.91,2.214c-0.427,0.302 -2.068,1.19 -2.468,1.432c0.622,-0.379 1.006,-1.166 1.006,-2.277c-0,-2.262 -1.591,-5.018 -3.551,-6.149c-0.931,-0.538 -1.779,-0.613 -2.412,-0.3Z" style="fill:#f2f2f2;fill-opacity:0.1;"/><path d="M63.053,128.146c1.661,0.959 3.009,3.294 3.009,5.211c-0,1.918 -1.348,2.696 -3.009,1.737c-1.66,-0.958 -3.009,-3.293 -3.009,-5.211c0,-1.917 1.349,-2.695 3.009,-1.737Z" style="fill:#f2f2f2;fill-opacity:0.1;"/><path d="M63.687,129.601c0.79,0.456 1.432,1.568 1.432,2.48c-0,0.913 -0.642,1.284 -1.432,0.827c-0.791,-0.456 -1.433,-1.567 -1.433,-2.48c0,-0.913 0.642,-1.283 1.433,-0.827Z" style="fill:#f2f2f2;fill-opacity:0.1;"/></g></g><g><path d="M78.245,137.074c0.391,-0.193 1.938,-1.17 2.415,-1.39c0.628,-0.289 1.46,-0.207 2.372,0.319c1.959,1.132 3.55,3.887 3.55,6.15c0,1.052 -0.344,1.814 -0.91,2.214c-0.428,0.303 -2.078,1.196 -2.471,1.435c-0.645,0.391 -1.546,0.345 -2.541,-0.23c-1.96,-1.131 -3.551,-3.886 -3.551,-6.149c0,-1.186 0.437,-2.003 1.136,-2.349Z" style="fill:#001a35;"/><g><path d="M78.247,137.073c0.395,-0.197 1.937,-1.17 2.413,-1.389c0.628,-0.289 1.46,-0.207 2.372,0.319c1.959,1.132 3.55,3.887 3.55,6.15c0,1.052 -0.344,1.814 -0.91,2.214c-0.427,0.302 -2.067,1.19 -2.467,1.432c0.622,-0.379 1.005,-1.166 1.005,-2.276c0,-2.263 -1.591,-5.019 -3.55,-6.15c-0.931,-0.538 -1.779,-0.612 -2.413,-0.3Z" style="fill:#f2f2f2;fill-opacity:0.1;"/><path d="M80.66,137.999c1.66,0.958 3.008,3.293 3.008,5.211c0,1.917 -1.348,2.695 -3.008,1.737c-1.661,-0.959 -3.009,-3.294 -3.009,-5.211c-0,-1.918 1.348,-2.696 3.009,-1.737Z" style="fill:#f2f2f2;fill-opacity:0.1;"/><path d="M81.293,139.453c0.79,0.457 1.432,1.568 1.432,2.481c0,0.912 -0.642,1.283 -1.432,0.827c-0.79,-0.457 -1.432,-1.568 -1.432,-2.481c-0,-0.913 0.642,-1.283 1.432,-0.827Z" style="fill:#f2f2f2;fill-opacity:0.1;"/></g></g><path d="M63.18,130.221c-0,0 -0.737,0.494 -1.488,0.859c-2.718,1.321 -6.913,3.554 -0.431,7.177l7.295,4.335c6.603,4.057 10.573,0.816 12.958,-0.541c0,0 0.621,-0.176 0.059,-1.253c-0.445,-0.851 -1.039,-0.678 -1.039,-0.678c-1.746,1.145 -5.552,3.338 -10.539,0.766l-6.815,-3.981c-4.487,-2.658 -1.682,-3.46 1.002,-4.72c-0,-0 0.585,-0.354 0.018,-1.282c-0.501,-0.821 -1.02,-0.682 -1.02,-0.682Z" style="fill:#25bcb4;"/></g><g><g><path d="M60.638,96.29c0.391,-0.193 1.938,-1.17 2.415,-1.39c0.629,-0.289 1.461,-0.206 2.372,0.32c1.96,1.131 3.551,3.887 3.551,6.149c-0,1.053 -0.345,1.814 -0.91,2.214c-0.429,0.303 -2.079,1.197 -2.472,1.435c-0.645,0.391 -1.545,0.346 -2.541,-0.229c-1.96,-1.132 -3.55,-3.887 -3.55,-6.15c-0,-1.186 0.437,-2.003 1.135,-2.349Z" style="fill:#001a35;"/><g><path d="M60.641,96.289c0.395,-0.196 1.936,-1.169 2.412,-1.389c0.629,-0.289 1.461,-0.206 2.372,0.32c1.96,1.131 3.551,3.887 3.551,6.149c-0,1.053 -0.345,1.814 -0.91,2.214c-0.427,0.302 -2.068,1.191 -2.468,1.433c0.622,-0.38 1.006,-1.167 1.006,-2.277c-0,-2.263 -1.591,-5.018 -3.551,-6.15c-0.931,-0.537 -1.779,-0.612 -2.412,-0.3Z" style="fill:#f2f2f2;fill-opacity:0.1;"/><path d="M63.053,97.215c1.661,0.959 3.009,3.294 3.009,5.211c-0,1.917 -1.348,2.696 -3.009,1.737c-1.66,-0.959 -3.009,-3.294 -3.009,-5.211c0,-1.917 1.349,-2.696 3.009,-1.737Z" style="fill:#f2f2f2;fill-opacity:0.1;"/><path d="M63.687,98.67c0.79,0.456 1.432,1.567 1.432,2.48c-0,0.913 -0.642,1.283 -1.432,0.827c-0.791,-0.456 -1.433,-1.568 -1.433,-2.481c0,-0.912 0.642,-1.283 1.433,-0.826Z" style="fill:#f2f2f2;fill-opacity:0.1;"/></g></g><g><path d="M78.245,106.143c0.391,-0.194 1.938,-1.171 2.415,-1.39c0.628,-0.29 1.46,-0.207 2.372,0.319c1.959,1.131 3.55,3.887 3.55,6.15c0,1.052 -0.344,1.814 -0.91,2.213c-0.428,0.304 -2.078,1.197 -2.471,1.435c-0.645,0.391 -1.546,0.346 -2.541,-0.229c-1.96,-1.131 -3.551,-3.887 -3.551,-6.15c0,-1.186 0.437,-2.003 1.136,-2.348Z" style="fill:#001a35;"/><g><path d="M78.247,106.141c0.395,-0.196 1.937,-1.169 2.413,-1.388c0.628,-0.29 1.46,-0.207 2.372,0.319c1.959,1.131 3.55,3.887 3.55,6.15c0,1.052 -0.344,1.814 -0.91,2.213c-0.427,0.303 -2.067,1.191 -2.467,1.433c0.622,-0.38 1.005,-1.166 1.005,-2.277c0,-2.263 -1.591,-5.018 -3.55,-6.149c-0.931,-0.538 -1.779,-0.613 -2.413,-0.301Z" style="fill:#f2f2f2;fill-opacity:0.1;"/><path d="M80.66,107.067c1.66,0.959 3.008,3.294 3.008,5.211c0,1.918 -1.348,2.696 -3.008,1.737c-1.661,-0.958 -3.009,-3.293 -3.009,-5.211c-0,-1.917 1.348,-2.696 3.009,-1.737Z" style="fill:#f2f2f2;fill-opacity:0.1;"/><path d="M81.293,108.522c0.79,0.456 1.432,1.568 1.432,2.48c0,0.913 -0.642,1.283 -1.432,0.827c-0.79,-0.456 -1.432,-1.568 -1.432,-2.48c-0,-0.913 0.642,-1.283 1.432,-0.827Z" style="fill:#f2f2f2;fill-opacity:0.1;"/></g></g><path d="M63.18,99.29c-0,-0 -0.737,0.493 -1.488,0.858c-2.718,1.322 -6.913,3.555 -0.431,7.177l7.295,4.336c6.603,4.057 10.573,0.816 12.958,-0.541c0,-0 0.621,-0.177 0.059,-1.253c-0.445,-0.852 -1.039,-0.678 -1.039,-0.678c-1.746,1.145 -5.552,3.338 -10.539,0.765l-6.815,-3.98c-4.487,-2.659 -1.682,-3.46 1.002,-4.721c-0,0 0.585,-0.354 0.018,-1.282c-0.501,-0.821 -1.02,-0.681 -1.02,-0.681Z" style="fill:#25bcb4;"/></g><g><g><path d="M60.638,77.726c0.391,-0.193 1.938,-1.17 2.415,-1.39c0.629,-0.289 1.461,-0.207 2.372,0.32c1.96,1.131 3.551,3.886 3.551,6.149c-0,1.053 -0.345,1.814 -0.91,2.214c-0.429,0.303 -2.079,1.196 -2.472,1.435c-0.645,0.391 -1.545,0.345 -2.541,-0.23c-1.96,-1.131 -3.55,-3.886 -3.55,-6.149c-0,-1.186 0.437,-2.003 1.135,-2.349Z" style="fill:#001a35;"/><g><path d="M60.641,77.725c0.395,-0.197 1.936,-1.17 2.412,-1.389c0.629,-0.289 1.461,-0.207 2.372,0.32c1.96,1.131 3.551,3.886 3.551,6.149c-0,1.053 -0.345,1.814 -0.91,2.214c-0.427,0.302 -2.068,1.191 -2.468,1.432c0.622,-0.379 1.006,-1.166 1.006,-2.276c-0,-2.263 -1.591,-5.019 -3.551,-6.15c-0.931,-0.538 -1.779,-0.612 -2.412,-0.3Z" style="fill:#f2f2f2;fill-opacity:0.1;"/><path d="M63.053,78.651c1.661,0.958 3.009,3.293 3.009,5.211c-0,1.917 -1.348,2.695 -3.009,1.737c-1.66,-0.959 -3.009,-3.294 -3.009,-5.211c0,-1.918 1.349,-2.696 3.009,-1.737Z" style="fill:#f2f2f2;fill-opacity:0.1;"/><path d="M63.687,80.105c0.79,0.457 1.432,1.568 1.432,2.481c-0,0.912 -0.642,1.283 -1.432,0.827c-0.791,-0.457 -1.433,-1.568 -1.433,-2.481c0,-0.912 0.642,-1.283 1.433,-0.827Z" style="fill:#f2f2f2;fill-opacity:0.1;"/></g></g><g><path d="M78.245,87.578c0.391,-0.193 1.938,-1.17 2.415,-1.389c0.628,-0.29 1.46,-0.207 2.372,0.319c1.959,1.131 3.55,3.887 3.55,6.149c0,1.053 -0.344,1.814 -0.91,2.214c-0.428,0.303 -2.078,1.197 -2.471,1.435c-0.645,0.391 -1.546,0.346 -2.541,-0.229c-1.96,-1.132 -3.551,-3.887 -3.551,-6.15c0,-1.186 0.437,-2.003 1.136,-2.349Z" style="fill:#001a35;"/><g><path d="M78.247,87.577c0.395,-0.196 1.937,-1.169 2.413,-1.388c0.628,-0.29 1.46,-0.207 2.372,0.319c1.959,1.131 3.55,3.887 3.55,6.149c0,1.053 -0.344,1.814 -0.91,2.214c-0.427,0.302 -2.067,1.191 -2.467,1.433c0.622,-0.38 1.005,-1.167 1.005,-2.277c0,-2.263 -1.591,-5.018 -3.55,-6.15c-0.931,-0.537 -1.779,-0.612 -2.413,-0.3Z" style="fill:#f2f2f2;fill-opacity:0.1;"/><path d="M80.66,88.503c1.66,0.959 3.008,3.294 3.008,5.211c0,1.917 -1.348,2.696 -3.008,1.737c-1.661,-0.959 -3.009,-3.294 -3.009,-5.211c-0,-1.917 1.348,-2.696 3.009,-1.737Z" style="fill:#f2f2f2;fill-opacity:0.1;"/><path d="M81.293,89.958c0.79,0.456 1.432,1.567 1.432,2.48c0,0.913 -0.642,1.283 -1.432,0.827c-0.79,-0.456 -1.432,-1.568 -1.432,-2.481c-0,-0.912 0.642,-1.283 1.432,-0.826Z" style="fill:#f2f2f2;fill-opacity:0.1;"/></g></g><path d="M63.18,80.725c-0,0 -0.737,0.494 -1.488,0.859c-2.718,1.322 -6.913,3.554 -0.431,7.177l7.295,4.335c6.603,4.057 10.573,0.817 12.958,-0.541c0,0 0.621,-0.176 0.059,-1.253c-0.445,-0.851 -1.039,-0.677 -1.039,-0.677c-1.746,1.145 -5.552,3.337 -10.539,0.765l-6.815,-3.98c-4.487,-2.659 -1.682,-3.46 1.002,-4.721c-0,-0 0.585,-0.354 0.018,-1.282c-0.501,-0.821 -1.02,-0.682 -1.02,-0.682Z" style="fill:#25bcb4;"/></g><g><g><path d="M60.638,60.032c0.391,-0.193 1.938,-1.17 2.415,-1.389c0.629,-0.29 1.461,-0.207 2.372,0.319c1.96,1.131 3.551,3.887 3.551,6.149c-0,1.053 -0.345,1.814 -0.91,2.214c-0.429,0.303 -2.079,1.197 -2.472,1.435c-0.645,0.391 -1.545,0.346 -2.541,-0.229c-1.96,-1.132 -3.55,-3.887 -3.55,-6.15c-0,-1.186 0.437,-2.003 1.135,-2.349Z" style="fill:#001a35;"/><g><path d="M60.641,60.031c0.395,-0.196 1.936,-1.169 2.412,-1.388c0.629,-0.29 1.461,-0.207 2.372,0.319c1.96,1.131 3.551,3.887 3.551,6.149c-0,1.053 -0.345,1.814 -0.91,2.214c-0.427,0.302 -2.068,1.191 -2.468,1.433c0.622,-0.38 1.006,-1.167 1.006,-2.277c-0,-2.263 -1.591,-5.018 -3.551,-6.15c-0.931,-0.537 -1.779,-0.612 -2.412,-0.3Z" style="fill:#f2f2f2;fill-opacity:0.1;"/><path d="M63.053,60.957c1.661,0.959 3.009,3.294 3.009,5.211c-0,1.917 -1.348,2.696 -3.009,1.737c-1.66,-0.959 -3.009,-3.294 -3.009,-5.211c0,-1.917 1.349,-2.696 3.009,-1.737Z" style="fill:#f2f2f2;fill-opacity:0.1;"/><path d="M63.687,62.412c0.79,0.456 1.432,1.567 1.432,2.48c-0,0.913 -0.642,1.283 -1.432,0.827c-0.791,-0.456 -1.433,-1.568 -1.433,-2.481c0,-0.912 0.642,-1.283 1.433,-0.826Z" style="fill:#f2f2f2;fill-opacity:0.1;"/></g></g><g><path d="M78.245,69.885c0.391,-0.194 1.938,-1.171 2.415,-1.39c0.628,-0.29 1.46,-0.207 2.372,0.319c1.959,1.131 3.55,3.887 3.55,6.15c0,1.052 -0.344,1.814 -0.91,2.214c-0.428,0.303 -2.078,1.196 -2.471,1.434c-0.645,0.391 -1.546,0.346 -2.541,-0.229c-1.96,-1.131 -3.551,-3.887 -3.551,-6.15c0,-1.186 0.437,-2.003 1.136,-2.348Z" style="fill:#001a35;"/><g><path d="M78.247,69.883c0.395,-0.196 1.937,-1.169 2.413,-1.388c0.628,-0.29 1.46,-0.207 2.372,0.319c1.959,1.131 3.55,3.887 3.55,6.15c0,1.052 -0.344,1.814 -0.91,2.214c-0.427,0.302 -2.067,1.19 -2.467,1.432c0.622,-0.38 1.005,-1.166 1.005,-2.277c0,-2.263 -1.591,-5.018 -3.55,-6.149c-0.931,-0.538 -1.779,-0.613 -2.413,-0.301Z" style="fill:#f2f2f2;fill-opacity:0.1;"/><path d="M80.66,70.809c1.66,0.959 3.008,3.294 3.008,5.211c0,1.918 -1.348,2.696 -3.008,1.737c-1.661,-0.958 -3.009,-3.293 -3.009,-5.211c-0,-1.917 1.348,-2.695 3.009,-1.737Z" style="fill:#f2f2f2;fill-opacity:0.1;"/><path d="M81.293,72.264c0.79,0.456 1.432,1.568 1.432,2.48c0,0.913 -0.642,1.283 -1.432,0.827c-0.79,-0.456 -1.432,-1.568 -1.432,-2.48c-0,-0.913 0.642,-1.283 1.432,-0.827Z" style="fill:#f2f2f2;fill-opacity:0.1;"/></g></g><path d="M63.18,63.032c-0,-0 -0.737,0.493 -1.488,0.858c-2.718,1.322 -6.913,3.555 -0.431,7.177l7.295,4.336c6.603,4.057 10.573,0.816 12.958,-0.541c0,-0 0.621,-0.177 0.059,-1.253c-0.445,-0.852 -1.039,-0.678 -1.039,-0.678c-1.746,1.145 -5.552,3.338 -10.539,0.765l-6.815,-3.98c-4.487,-2.658 -1.682,-3.46 1.002,-4.721c-0,0 0.585,-0.354 0.018,-1.282c-0.501,-0.821 -1.02,-0.681 -1.02,-0.681Z" style="fill:#25bcb4;"/></g><g><g><path d="M60.638,112.268c0.391,-0.193 1.938,-1.17 2.415,-1.39c0.629,-0.29 1.461,-0.207 2.372,0.319c1.96,1.132 3.551,3.887 3.551,6.15c-0,1.052 -0.345,1.814 -0.91,2.214c-0.429,0.303 -2.079,1.196 -2.472,1.435c-0.645,0.391 -1.545,0.345 -2.541,-0.23c-1.96,-1.131 -3.55,-3.887 -3.55,-6.149c-0,-1.186 0.437,-2.003 1.135,-2.349Z" style="fill:#001a35;"/><g><path d="M60.641,112.267c0.395,-0.197 1.936,-1.17 2.412,-1.389c0.629,-0.29 1.461,-0.207 2.372,0.319c1.96,1.132 3.551,3.887 3.551,6.15c-0,1.052 -0.345,1.814 -0.91,2.214c-0.427,0.302 -2.068,1.19 -2.468,1.432c0.622,-0.379 1.006,-1.166 1.006,-2.277c-0,-2.262 -1.591,-5.018 -3.551,-6.149c-0.931,-0.538 -1.779,-0.612 -2.412,-0.3Z" style="fill:#f2f2f2;fill-opacity:0.1;"/><path d="M63.053,113.193c1.661,0.958 3.009,3.293 3.009,5.211c-0,1.917 -1.348,2.695 -3.009,1.737c-1.66,-0.959 -3.009,-3.294 -3.009,-5.211c0,-1.918 1.349,-2.696 3.009,-1.737Z" style="fill:#f2f2f2;fill-opacity:0.1;"/><path d="M63.687,114.647c0.79,0.457 1.432,1.568 1.432,2.481c-0,0.912 -0.642,1.283 -1.432,0.826c-0.791,-0.456 -1.433,-1.567 -1.433,-2.48c0,-0.913 0.642,-1.283 1.433,-0.827Z" style="fill:#f2f2f2;fill-opacity:0.1;"/></g></g><g><path d="M78.245,122.12c0.391,-0.193 1.938,-1.17 2.415,-1.39c0.628,-0.289 1.46,-0.207 2.372,0.32c1.959,1.131 3.55,3.887 3.55,6.149c0,1.053 -0.344,1.814 -0.91,2.214c-0.428,0.303 -2.078,1.197 -2.471,1.435c-0.645,0.391 -1.546,0.346 -2.541,-0.229c-1.96,-1.132 -3.551,-3.887 -3.551,-6.15c0,-1.186 0.437,-2.003 1.136,-2.349Z" style="fill:#001a35;"/><g><path d="M78.247,122.119c0.395,-0.196 1.937,-1.169 2.413,-1.389c0.628,-0.289 1.46,-0.207 2.372,0.32c1.959,1.131 3.55,3.887 3.55,6.149c0,1.053 -0.344,1.814 -0.91,2.214c-0.427,0.302 -2.067,1.191 -2.467,1.433c0.622,-0.38 1.005,-1.167 1.005,-2.277c0,-2.263 -1.591,-5.019 -3.55,-6.15c-0.931,-0.537 -1.779,-0.612 -2.413,-0.3Z" style="fill:#f2f2f2;fill-opacity:0.1;"/><path d="M80.66,123.045c1.66,0.958 3.008,3.294 3.008,5.211c0,1.917 -1.348,2.696 -3.008,1.737c-1.661,-0.959 -3.009,-3.294 -3.009,-5.211c-0,-1.918 1.348,-2.696 3.009,-1.737Z" style="fill:#f2f2f2;fill-opacity:0.1;"/><path d="M81.293,124.5c0.79,0.456 1.432,1.567 1.432,2.48c0,0.913 -0.642,1.283 -1.432,0.827c-0.79,-0.457 -1.432,-1.568 -1.432,-2.481c-0,-0.912 0.642,-1.283 1.432,-0.826Z" style="fill:#f2f2f2;fill-opacity:0.1;"/></g></g><path d="M63.18,115.267c-0,0 -0.737,0.494 -1.488,0.859c-2.718,1.322 -6.913,3.554 -0.431,7.177l7.295,4.335c6.603,4.057 10.573,0.816 12.958,-0.541c0,0 0.621,-0.176 0.059,-1.253c-0.445,-0.851 -1.039,-0.677 -1.039,-0.677c-1.746,1.144 -5.552,3.337 -10.539,0.765l-6.815,-3.98c-4.487,-2.659 -1.682,-3.461 1.002,-4.721c-0,-0 0.585,-0.354 0.018,-1.282c-0.501,-0.821 -1.02,-0.682 -1.02,-0.682Z" style="fill:#25bcb4;"/></g><g><path d="M52.949,40.606c0,0.507 0,6.751 0,7.17c0,0.507 0.37,1.042 1.093,1.459l42.762,24.689c1.321,0.762 3.321,0.845 4.465,0.185l45.01,-25.987c0.518,-0.299 0.772,-0.7 0.772,-1.119c-0,-0.507 -0,-6.751 -0,-7.171c-0,-0.506 -0.37,-1.041 -1.093,-1.458l-42.762,-24.689c-1.321,-0.762 -3.321,-0.845 -4.465,-0.185l-45.01,25.986c-0.518,0.3 -0.772,0.7 -0.772,1.12Z" style="fill:#25bcb4;"/><g><path d="M147.051,39.832c0,0.42 -0.254,0.821 -0.772,1.12l-45.01,25.986c-1.144,0.661 -3.144,0.578 -4.465,-0.185l-42.762,-24.689c-0.742,-0.428 -1.113,-0.98 -1.092,-1.499c-0.001,0.013 -0.001,0.027 -0.001,0.041c0,0.507 0,6.589 0,7.009c0,0.507 0.37,1.041 1.093,1.459l42.762,24.688c1.321,0.763 3.321,0.846 4.465,0.185l45.01,-25.986c0.518,-0.299 0.772,-0.7 0.772,-1.12c-0,-0.506 -0,-6.589 -0,-7.009l-0,0Z" style="fill:#fff;fill-opacity:0.24;"/><path d="M101.269,73.947l0,-7.009c-1.144,0.661 -3.144,0.578 -4.465,-0.185l-0,7.009c1.321,0.763 3.321,0.846 4.465,0.185Z" style="fill:#fff;fill-opacity:0.24;"/><path d="M98.65,67.342l0,7.019c0.259,0.032 0.518,0.046 0.773,0.041l-0,-7.019c-0.255,0.005 -0.514,-0.009 -0.773,-0.041Z" style="fill:#fff;fill-opacity:0.24;"/></g><path d="M101.269,73.947l0,-7.009c-1.144,0.661 -3.144,0.578 -4.465,-0.185l-42.762,-24.689c-0.742,-0.428 -1.113,-0.98 -1.092,-1.499c-0.001,0.013 -0.001,0.027 -0.001,0.041c0,0.507 0,6.589 0,7.009c0,0.507 0.37,1.041 1.093,1.459l42.762,24.688c1.321,0.763 3.321,0.846 4.465,0.185Z" style="fill:#f5f5f5;fill-opacity:0.04;"/></g><g><g><path d="M142.908,63.576c-0,0 -0.388,0.102 -0.616,0.233l-34.774,20.077c-1.162,0.671 -2.105,2.473 -2.105,4.022l0,61.493c0,0.427 0.072,0.791 0.201,1.08c0.194,-0.033 0.401,-0.11 0.615,-0.233l34.775,-20.077c1.161,-0.671 2.104,-2.473 2.104,-4.022l0,-61.492c0,-0.428 -0.072,-0.792 -0.2,-1.081Z" style="fill:#001a35;"/><g><path d="M142.908,63.576c0.128,0.289 0.2,0.653 0.2,1.081l0,61.492c0,1.549 -0.943,3.351 -2.105,4.022l-34.774,20.077c-0.214,0.123 -0.421,0.2 -0.615,0.233c0.337,0.757 1.063,0.996 1.904,0.511l34.774,-20.077c1.162,-0.671 2.105,-2.473 2.105,-4.022l0,-61.492c0,-1.264 -0.627,-1.971 -1.489,-1.825Z" style="fill:#fff;fill-opacity:0.03;"/><path d="M144.397,126.893l-1.289,-0.744c0,1.549 -0.943,3.351 -2.105,4.022l-34.774,20.077c-0.214,0.123 -0.421,0.2 -0.615,0.233c0.337,0.757 1.063,0.996 1.904,0.511l34.774,-20.077c1.162,-0.671 2.105,-2.473 2.105,-4.022Z" style="fill:#fff;fill-opacity:0.03;"/><path d="M142.292,130.915l-1.289,-0.744l-34.774,20.077c-0.214,0.123 -0.421,0.2 -0.615,0.233c0.337,0.757 1.063,0.996 1.904,0.511l34.774,-20.077Z" style="fill:#fff;fill-opacity:0.03;"/></g></g><g><path d="M129.731,112.195c-0.326,0.29 -0.569,0.821 -0.569,1.288l-0,18.756c-0,0.466 0.243,0.717 0.569,0.63l0,-20.674Zm0.338,-0.195l0,20.674c0.326,-0.29 0.57,-0.821 0.57,-1.287l-0,-18.757c-0,-0.466 -0.244,-0.717 -0.57,-0.63Z" style="fill:#f3f3f3;fill-opacity:0.19;"/><path d="M134.279,109.569c-0.326,0.291 -0.57,0.822 -0.57,1.288l0,18.757c0,0.466 0.244,0.716 0.57,0.63l-0,-20.675Zm0.338,-0.195l-0,20.675c0.326,-0.29 0.569,-0.822 0.569,-1.288l0,-18.757c0,-0.466 -0.243,-0.716 -0.569,-0.63Z" style="fill:#f3f3f3;fill-opacity:0.19;"/><path d="M138.661,107.134c-0.326,0.29 -0.569,0.822 -0.569,1.288l-0,18.757c-0,0.466 0.243,0.716 0.569,0.629l0,-20.674Zm0.338,-0.195l0,20.675c0.326,-0.291 0.57,-0.822 0.57,-1.288l-0,-18.757c-0,-0.466 -0.244,-0.716 -0.57,-0.63Z" style="fill:#f3f3f3;fill-opacity:0.19;"/><g><path d="M128.694,116.822l-0,1.235l1.667,0.963l2.223,-1.283l-0,-1.236l-1.667,-0.962l-2.223,1.283Z" style="fill:#001a35;"/><g><path d="M130.361,117.785l-1.667,-0.963l-0,1.235l1.667,0.963l-0,-1.235Z" style="fill:#e1e1e1;fill-opacity:0.12;"/><path d="M130.361,117.785l-1.667,-0.963l-0,1.235l1.667,0.963l-0,-1.235Z" style="fill:#e1e1e1;fill-opacity:0.12;"/><path d="M130.361,117.785l-1.667,-0.963l-0,1.235l1.667,0.963l-0,-1.235Z" style="fill:#e1e1e1;fill-opacity:0.12;"/><path d="M132.584,116.501l-2.223,1.284l-0,1.235l2.223,-1.283l-0,-1.236Z" style="fill:#e1e1e1;fill-opacity:0.12;"/><path d="M130.917,115.539l-2.223,1.283l1.667,0.963l2.223,-1.284l-1.667,-0.962Z" style="fill:#e1e1e1;fill-opacity:0.12;"/><path d="M130.917,115.539l-2.223,1.283l1.667,0.963l2.223,-1.284l-1.667,-0.962Z" style="fill:#e1e1e1;fill-opacity:0.12;"/></g></g><g><path d="M133.241,125.131l0,1.235l1.667,0.963l2.223,-1.284l0,-1.235l-1.667,-0.962l-2.223,1.283Z" style="fill:#001a35;"/><g><path d="M134.908,126.094l-1.667,-0.963l0,1.235l1.667,0.963l0,-1.235Z" style="fill:#e1e1e1;fill-opacity:0.12;"/><path d="M134.908,126.094l-1.667,-0.963l0,1.235l1.667,0.963l0,-1.235Z" style="fill:#e1e1e1;fill-opacity:0.12;"/><path d="M134.908,126.094l-1.667,-0.963l0,1.235l1.667,0.963l0,-1.235Z" style="fill:#e1e1e1;fill-opacity:0.12;"/><path d="M137.131,124.81l-2.223,1.284l0,1.235l2.223,-1.284l0,-1.235Z" style="fill:#e1e1e1;fill-opacity:0.12;"/><path d="M135.464,123.848l-2.223,1.283l1.667,0.963l2.223,-1.284l-1.667,-0.962Z" style="fill:#e1e1e1;fill-opacity:0.12;"/><path d="M135.464,123.848l-2.223,1.283l1.667,0.963l2.223,-1.284l-1.667,-0.962Z" style="fill:#e1e1e1;fill-opacity:0.12;"/></g></g><g><path d="M137.624,115.163l-0,1.235l1.667,0.963l2.223,-1.283l-0,-1.236l-1.667,-0.962l-2.223,1.283Z" style="fill:#001a35;"/><g><path d="M139.291,116.126l-1.667,-0.963l-0,1.235l1.667,0.963l-0,-1.235Z" style="fill:#e1e1e1;fill-opacity:0.12;"/><path d="M139.291,116.126l-1.667,-0.963l-0,1.235l1.667,0.963l-0,-1.235Z" style="fill:#e1e1e1;fill-opacity:0.12;"/><path d="M139.291,116.126l-1.667,-0.963l-0,1.235l1.667,0.963l-0,-1.235Z" style="fill:#e1e1e1;fill-opacity:0.12;"/><path d="M141.514,114.842l-2.223,1.284l-0,1.235l2.223,-1.283l-0,-1.236Z" style="fill:#e1e1e1;fill-opacity:0.12;"/><path d="M139.847,113.88l-2.223,1.283l1.667,0.963l2.223,-1.284l-1.667,-0.962Z" style="fill:#e1e1e1;fill-opacity:0.12;"/><path d="M139.847,113.88l-2.223,1.283l1.667,0.963l2.223,-1.284l-1.667,-0.962Z" style="fill:#e1e1e1;fill-opacity:0.12;"/></g></g></g><g><path d="M116.058,120.089c-0.327,0.291 -0.57,0.822 -0.57,1.288l-0,18.757c-0,0.466 0.243,0.716 0.57,0.63l-0,-20.675Zm0.337,-0.195l0,20.675c0.327,-0.29 0.57,-0.822 0.57,-1.288l0,-18.757c0,-0.466 -0.243,-0.716 -0.57,-0.63Z" style="fill:#f3f3f3;fill-opacity:0.19;"/><path d="M120.605,117.464c-0.326,0.29 -0.57,0.822 -0.57,1.288l0,18.756c0,0.467 0.244,0.717 0.57,0.63l0,-20.674Zm0.338,-0.195l-0,20.674c0.326,-0.29 0.569,-0.821 0.569,-1.287l0,-18.757c0,-0.466 -0.243,-0.717 -0.569,-0.63Z" style="fill:#f3f3f3;fill-opacity:0.19;"/><path d="M124.988,115.029c-0.327,0.29 -0.57,0.821 -0.57,1.287l-0,18.757c-0,0.466 0.243,0.717 0.57,0.63l-0,-20.674Zm0.337,-0.195l0,20.674c0.327,-0.29 0.57,-0.822 0.57,-1.288l-0,-18.756c-0,-0.467 -0.243,-0.717 -0.57,-0.63Z" style="fill:#f3f3f3;fill-opacity:0.19;"/><g><path d="M115.02,124.717l-0,1.235l1.667,0.963l2.223,-1.284l0,-1.235l-1.667,-0.963l-2.223,1.284Z" style="fill:#001a35;"/><g><path d="M116.687,125.679l-1.667,-0.962l-0,1.235l1.667,0.963l0,-1.236Z" style="fill:#e1e1e1;fill-opacity:0.12;"/><path d="M116.687,125.679l-1.667,-0.962l-0,1.235l1.667,0.963l0,-1.236Z" style="fill:#e1e1e1;fill-opacity:0.12;"/><path d="M116.687,125.679l-1.667,-0.962l-0,1.235l1.667,0.963l0,-1.236Z" style="fill:#e1e1e1;fill-opacity:0.12;"/><path d="M118.91,124.396l-2.223,1.283l0,1.236l2.223,-1.284l0,-1.235Z" style="fill:#e1e1e1;fill-opacity:0.12;"/><path d="M117.243,123.433l-2.223,1.284l1.667,0.962l2.223,-1.283l-1.667,-0.963Z" style="fill:#e1e1e1;fill-opacity:0.12;"/><path d="M117.243,123.433l-2.223,1.284l1.667,0.962l2.223,-1.283l-1.667,-0.963Z" style="fill:#e1e1e1;fill-opacity:0.12;"/></g></g><g><path d="M119.567,133.026l0,1.235l1.668,0.963l2.223,-1.284l-0,-1.235l-1.668,-0.963l-2.223,1.284Z" style="fill:#001a35;"/><g><path d="M121.235,133.988l-1.668,-0.962l0,1.235l1.668,0.963l-0,-1.236Z" style="fill:#e1e1e1;fill-opacity:0.12;"/><path d="M121.235,133.988l-1.668,-0.962l0,1.235l1.668,0.963l-0,-1.236Z" style="fill:#e1e1e1;fill-opacity:0.12;"/><path d="M121.235,133.988l-1.668,-0.962l0,1.235l1.668,0.963l-0,-1.236Z" style="fill:#e1e1e1;fill-opacity:0.12;"/><path d="M123.458,132.705l-2.223,1.283l-0,1.236l2.223,-1.284l-0,-1.235Z" style="fill:#e1e1e1;fill-opacity:0.12;"/><path d="M121.79,131.742l-2.223,1.284l1.668,0.962l2.223,-1.283l-1.668,-0.963Z" style="fill:#e1e1e1;fill-opacity:0.12;"/><path d="M121.79,131.742l-2.223,1.284l1.668,0.962l2.223,-1.283l-1.668,-0.963Z" style="fill:#e1e1e1;fill-opacity:0.12;"/></g></g><g><path d="M123.95,123.058l-0,1.235l1.667,0.963l2.223,-1.284l0,-1.235l-1.667,-0.963l-2.223,1.284Z" style="fill:#001a35;"/><g><path d="M125.617,124.02l-1.667,-0.962l-0,1.235l1.667,0.963l0,-1.236Z" style="fill:#e1e1e1;fill-opacity:0.12;"/><path d="M125.617,124.02l-1.667,-0.962l-0,1.235l1.667,0.963l0,-1.236Z" style="fill:#e1e1e1;fill-opacity:0.12;"/><path d="M125.617,124.02l-1.667,-0.962l-0,1.235l1.667,0.963l0,-1.236Z" style="fill:#e1e1e1;fill-opacity:0.12;"/><path d="M127.84,122.737l-2.223,1.283l0,1.236l2.223,-1.284l0,-1.235Z" style="fill:#e1e1e1;fill-opacity:0.12;"/><path d="M126.173,121.774l-2.223,1.284l1.667,0.962l2.223,-1.283l-1.667,-0.963Z" style="fill:#e1e1e1;fill-opacity:0.12;"/><path d="M126.173,121.774l-2.223,1.284l1.667,0.962l2.223,-1.283l-1.667,-0.963Z" style="fill:#e1e1e1;fill-opacity:0.12;"/></g></g></g><g><g><path d="M120.592,107.633l-4.71,2.719l0,1.69l4.71,-2.719l-0,-1.69Z" style="fill:#25bcb2;"/><path d="M120.592,104.595l-4.71,2.719l0,1.689l4.71,-2.719l-0,-1.689Z" style="fill:#25bcb2;"/><path d="M120.592,101.556l-4.71,2.719l0,1.689l4.71,-2.719l-0,-1.689Z" style="fill:#25bcb2;"/><path d="M120.592,98.517l-4.71,2.719l0,1.689l4.71,-2.719l-0,-1.689Z" style="fill:#25bcb2;"/><path d="M120.592,95.478l-4.71,2.719l0,1.69l4.71,-2.719l-0,-1.69Z" style="fill:#25bcb2;"/><path d="M120.592,92.44l-4.71,2.719l0,1.689l4.71,-2.719l-0,-1.689Z" style="fill:#25bcb2;"/><path d="M114.303,111.264l-4.71,2.719l0,1.69l4.71,-2.719l-0,-1.69Z" style="fill:#25bcb2;"/><path d="M114.303,108.226l-4.71,2.719l0,1.689l4.71,-2.719l-0,-1.689Z" style="fill:#25bcb2;"/><path d="M126.652,104.134l-4.709,2.719l-0,1.689l4.709,-2.719l0,-1.689Z" style="fill:#25bcb2;"/><path d="M126.652,101.095l-4.709,2.719l-0,1.69l4.709,-2.719l0,-1.69Z" style="fill:#25bcb2;"/><path d="M126.652,98.057l-4.709,2.719l-0,1.689l4.709,-2.719l0,-1.689Z" style="fill:#25bcb2;"/><path d="M132.649,100.672l-4.71,2.719l0,1.69l4.71,-2.719l-0,-1.69Z" style="fill:#25bcb2;"/><path d="M132.649,97.634l-4.71,2.719l0,1.689l4.71,-2.719l-0,-1.689Z" style="fill:#25bcb2;"/><path d="M132.649,94.595l-4.71,2.719l0,1.689l4.71,-2.719l-0,-1.689Z" style="fill:#25bcb2;"/><path d="M132.649,91.556l-4.71,2.719l0,1.689l4.71,-2.719l-0,-1.689Z" style="fill:#25bcb2;"/><path d="M132.649,88.517l-4.71,2.719l0,1.69l4.71,-2.719l-0,-1.69Z" style="fill:#25bcb2;"/><path d="M132.649,85.479l-4.71,2.719l0,1.689l4.71,-2.719l-0,-1.689Z" style="fill:#25bcb2;"/><path d="M132.649,82.44l-4.71,2.719l0,1.689l4.71,-2.719l-0,-1.689Z" style="fill:#25bcb2;"/><path d="M138.928,97.047l-4.709,2.719l-0,1.689l4.709,-2.719l0,-1.689Z" style="fill:#25bcb2;"/><path d="M120.592,110.767l-4.71,2.719l0,1.689l4.71,-2.719l-0,-1.689Z" style="fill:#25bcb2;"/><path d="M114.303,114.398l-4.71,2.719l0,1.689l4.71,-2.719l-0,-1.689Z" style="fill:#25bcb2;"/><path d="M126.652,107.268l-4.709,2.719l-0,1.689l4.709,-2.719l0,-1.689Z" style="fill:#25bcb2;"/><path d="M132.649,103.806l-4.71,2.719l0,1.689l4.71,-2.719l-0,-1.689Z" style="fill:#25bcb2;"/><path d="M138.928,100.18l-4.709,2.719l-0,1.689l4.709,-2.719l0,-1.689Z" style="fill:#25bcb2;"/><path d="M138.928,94.008l-4.709,2.719l-0,1.689l4.709,-2.719l0,-1.689Z" style="fill:#25bcb2;"/><path d="M138.928,90.969l-4.709,2.719l-0,1.689l4.709,-2.719l0,-1.689Z" style="fill:#25bcb2;"/><path d="M138.928,87.93l-4.709,2.719l-0,1.69l4.709,-2.719l0,-1.69Z" style="fill:#25bcb2;"/><path d="M138.928,84.892l-4.709,2.719l-0,1.689l4.709,-2.719l0,-1.689Z" style="fill:#25bcb2;"/><path d="M138.928,81.853l-4.709,2.719l-0,1.689l4.709,-2.719l0,-1.689Z" style="fill:#25bcb2;"/><path d="M138.928,78.814l-4.709,2.719l-0,1.689l4.709,-2.719l0,-1.689Z" style="fill:#25bcb2;"/><path d="M138.928,75.582l-4.709,2.719l-0,1.689l4.709,-2.719l0,-1.689Z" style="fill:#25bcb2;"/><path d="M138.928,72.543l-4.709,2.719l-0,1.689l4.709,-2.719l0,-1.689Z" style="fill:#25bcb2;"/></g></g><g><path d="M114.381,111.165l-4.709,2.719l-0,1.689l4.709,-2.719l0,-1.689Z" style="fill:#fafafa;fill-opacity:0.1;"/><path d="M114.381,114.298l-4.709,2.719l-0,1.689l4.709,-2.719l0,-1.689Z" style="fill:#fafafa;fill-opacity:0.1;"/><path d="M114.381,108.126l-4.709,2.719l-0,1.689l4.709,-2.719l0,-1.689Z" style="fill:#fafafa;fill-opacity:0.1;"/><path d="M114.381,105.087l-4.709,2.719l-0,1.69l4.709,-2.719l0,-1.69Z" style="fill:#fafafa;fill-opacity:0.1;"/><path d="M114.381,102.049l-4.709,2.719l-0,1.689l4.709,-2.719l0,-1.689Z" style="fill:#fafafa;fill-opacity:0.1;"/><path d="M114.381,99.01l-4.709,2.719l-0,1.689l4.709,-2.719l0,-1.689Z" style="fill:#fafafa;fill-opacity:0.1;"/><path d="M114.381,95.971l-4.709,2.719l-0,1.689l4.709,-2.719l0,-1.689Z" style="fill:#fafafa;fill-opacity:0.1;"/><path d="M114.381,92.932l-4.709,2.719l-0,1.69l4.709,-2.719l0,-1.69Z" style="fill:#fafafa;fill-opacity:0.1;"/><path d="M114.381,89.7l-4.709,2.719l-0,1.689l4.709,-2.719l0,-1.689Z" style="fill:#fafafa;fill-opacity:0.1;"/><path d="M114.381,86.661l-4.709,2.719l-0,1.69l4.709,-2.719l0,-1.69Z" style="fill:#fafafa;fill-opacity:0.1;"/><g><path d="M120.595,107.577l-4.709,2.719l-0,1.69l4.709,-2.719l-0,-1.69Z" style="fill:#fafafa;fill-opacity:0.1;"/><path d="M120.595,110.711l-4.709,2.719l-0,1.689l4.709,-2.719l-0,-1.689Z" style="fill:#fafafa;fill-opacity:0.1;"/><path d="M120.595,104.539l-4.709,2.719l-0,1.689l4.709,-2.719l-0,-1.689Z" style="fill:#fafafa;fill-opacity:0.1;"/><path d="M120.595,101.5l-4.709,2.719l-0,1.689l4.709,-2.719l-0,-1.689Z" style="fill:#fafafa;fill-opacity:0.1;"/><path d="M120.595,98.461l-4.709,2.719l-0,1.689l4.709,-2.719l-0,-1.689Z" style="fill:#fafafa;fill-opacity:0.1;"/><path d="M120.595,95.422l-4.709,2.719l-0,1.69l4.709,-2.719l-0,-1.69Z" style="fill:#fafafa;fill-opacity:0.1;"/><path d="M120.595,92.384l-4.709,2.719l-0,1.689l4.709,-2.719l-0,-1.689Z" style="fill:#fafafa;fill-opacity:0.1;"/><path d="M120.595,89.345l-4.709,2.719l-0,1.689l4.709,-2.719l-0,-1.689Z" style="fill:#fafafa;fill-opacity:0.1;"/><path d="M120.595,86.113l-4.709,2.719l-0,1.689l4.709,-2.719l-0,-1.689Z" style="fill:#fafafa;fill-opacity:0.1;"/><path d="M120.595,83.074l-4.709,2.719l-0,1.689l4.709,-2.719l-0,-1.689Z" style="fill:#fafafa;fill-opacity:0.1;"/></g><g><path d="M126.615,104.102l-4.709,2.719l0,1.689l4.709,-2.719l0,-1.689Z" style="fill:#fafafa;fill-opacity:0.1;"/><path d="M126.615,107.235l-4.709,2.719l0,1.689l4.709,-2.719l0,-1.689Z" style="fill:#fafafa;fill-opacity:0.1;"/><path d="M126.615,101.063l-4.709,2.719l0,1.689l4.709,-2.719l0,-1.689Z" style="fill:#fafafa;fill-opacity:0.1;"/><path d="M126.615,98.024l-4.709,2.719l0,1.689l4.709,-2.719l0,-1.689Z" style="fill:#fafafa;fill-opacity:0.1;"/><path d="M126.615,94.985l-4.709,2.719l0,1.689l4.709,-2.718l0,-1.69Z" style="fill:#fafafa;fill-opacity:0.1;"/><path d="M126.615,91.947l-4.709,2.719l0,1.689l4.709,-2.719l0,-1.689Z" style="fill:#fafafa;fill-opacity:0.1;"/><path d="M126.615,88.908l-4.709,2.719l0,1.689l4.709,-2.719l0,-1.689Z" style="fill:#fafafa;fill-opacity:0.1;"/><path d="M126.615,85.869l-4.709,2.719l0,1.689l4.709,-2.719l0,-1.689Z" style="fill:#fafafa;fill-opacity:0.1;"/><path d="M126.615,82.637l-4.709,2.719l0,1.689l4.709,-2.719l0,-1.689Z" style="fill:#fafafa;fill-opacity:0.1;"/><path d="M126.615,79.598l-4.709,2.719l0,1.689l4.709,-2.719l0,-1.689Z" style="fill:#fafafa;fill-opacity:0.1;"/></g><g><path d="M132.562,100.668l-4.709,2.719l-0,1.689l4.709,-2.719l0,-1.689Z" style="fill:#fafafa;fill-opacity:0.1;"/><path d="M132.562,103.802l-4.709,2.719l-0,1.689l4.709,-2.719l0,-1.689Z" style="fill:#fafafa;fill-opacity:0.1;"/><path d="M132.562,97.63l-4.709,2.718l-0,1.69l4.709,-2.719l0,-1.689Z" style="fill:#fafafa;fill-opacity:0.1;"/><path d="M132.562,94.591l-4.709,2.719l-0,1.689l4.709,-2.719l0,-1.689Z" style="fill:#fafafa;fill-opacity:0.1;"/><path d="M132.562,91.552l-4.709,2.719l-0,1.689l4.709,-2.719l0,-1.689Z" style="fill:#fafafa;fill-opacity:0.1;"/><path d="M132.562,88.513l-4.709,2.719l-0,1.689l4.709,-2.719l0,-1.689Z" style="fill:#fafafa;fill-opacity:0.1;"/><path d="M132.562,85.474l-4.709,2.719l-0,1.69l4.709,-2.719l0,-1.69Z" style="fill:#fafafa;fill-opacity:0.1;"/><path d="M132.562,82.436l-4.709,2.719l-0,1.689l4.709,-2.719l0,-1.689Z" style="fill:#fafafa;fill-opacity:0.1;"/><path d="M132.562,79.203l-4.709,2.719l-0,1.69l4.709,-2.719l0,-1.69Z" style="fill:#fafafa;fill-opacity:0.1;"/><path d="M132.562,76.165l-4.709,2.719l-0,1.689l4.709,-2.719l0,-1.689Z" style="fill:#fafafa;fill-opacity:0.1;"/></g></g><g><path d="M111.77,131.905c-1.149,0.664 -2.082,2.28 -2.082,3.606c-0,1.327 0.933,1.866 2.082,1.202c1.149,-0.663 2.082,-2.279 2.082,-3.606c-0,-1.327 -0.933,-1.865 -2.082,-1.202Z" style="fill:#001a35;"/><path d="M113.186,131.73c-0.229,-0.113 -1.136,-0.686 -1.416,-0.815c-0.369,-0.17 -0.857,-0.121 -1.391,0.187c-1.149,0.664 -2.082,2.279 -2.082,3.606c0,0.617 0.202,1.064 0.533,1.299c0.252,0.177 1.219,0.701 1.45,0.841c0.378,0.229 0.906,0.203 1.49,-0.135c1.149,-0.663 2.082,-2.279 2.082,-3.606c-0,-0.695 -0.256,-1.174 -0.666,-1.377Z" style="fill:#cecece;"/><g><g><path d="M113.185,131.729c-0.232,-0.115 -1.136,-0.685 -1.415,-0.814c-0.369,-0.17 -0.857,-0.121 -1.391,0.187c-1.149,0.664 -2.082,2.279 -2.082,3.606c0,0.617 0.202,1.064 0.533,1.299c0.251,0.177 1.213,0.698 1.447,0.839c-0.364,-0.222 -0.589,-0.683 -0.589,-1.335c-0,-1.326 0.933,-2.942 2.082,-3.606c0.546,-0.315 1.043,-0.359 1.415,-0.176Z" style="fill:#353535;fill-opacity:0.17;"/></g><path d="M111.716,133.145c-0.541,0.313 -0.981,1.075 -0.981,1.7c0,0.625 0.44,0.879 0.981,0.567c0.542,-0.313 0.982,-1.075 0.982,-1.7c-0,-0.626 -0.44,-0.879 -0.982,-0.567Z" style="fill:#25bcb4;"/><path d="M111.716,133.537c-0.354,0.205 -0.641,0.703 -0.641,1.112c-0,0.409 0.287,0.575 0.641,0.371c0.355,-0.205 0.642,-0.703 0.642,-1.112c0,-0.409 -0.287,-0.575 -0.642,-0.371Z" style="fill:#efefef;fill-opacity:0.45;"/></g></g><g><path d="M111.77,139.311c-1.149,0.663 -2.082,2.279 -2.082,3.606c-0,1.326 0.933,1.865 2.082,1.202c1.149,-0.664 2.082,-2.28 2.082,-3.606c-0,-1.327 -0.933,-1.866 -2.082,-1.202Z" style="fill:#001a35;"/><path d="M113.186,139.135c-0.229,-0.113 -1.136,-0.686 -1.416,-0.815c-0.369,-0.17 -0.857,-0.121 -1.391,0.187c-1.149,0.664 -2.082,2.28 -2.082,3.607c0,0.617 0.202,1.063 0.533,1.298c0.252,0.178 1.219,0.701 1.45,0.841c0.378,0.23 0.906,0.203 1.49,-0.134c1.149,-0.664 2.082,-2.28 2.082,-3.606c-0,-0.696 -0.256,-1.175 -0.666,-1.378Z" style="fill:#cecece;"/><g><g><path d="M113.185,139.135c-0.232,-0.116 -1.136,-0.686 -1.415,-0.815c-0.369,-0.17 -0.857,-0.121 -1.391,0.187c-1.149,0.664 -2.082,2.28 -2.082,3.607c0,0.617 0.202,1.063 0.533,1.298c0.251,0.177 1.213,0.698 1.447,0.84c-0.364,-0.223 -0.589,-0.684 -0.589,-1.335c-0,-1.327 0.933,-2.943 2.082,-3.606c0.546,-0.316 1.043,-0.36 1.415,-0.176Z" style="fill:#353535;fill-opacity:0.17;"/></g><path d="M111.716,140.55c-0.541,0.313 -0.981,1.075 -0.981,1.7c0,0.626 0.44,0.88 0.981,0.567c0.542,-0.313 0.982,-1.074 0.982,-1.7c-0,-0.625 -0.44,-0.879 -0.982,-0.567Z" style="fill:#25bcb4;"/><path d="M111.716,140.942c-0.354,0.205 -0.641,0.703 -0.641,1.112c-0,0.409 0.287,0.575 0.641,0.371c0.355,-0.205 0.642,-0.703 0.642,-1.112c0,-0.409 -0.287,-0.575 -0.642,-0.371Z" style="fill:#efefef;fill-opacity:0.45;"/></g></g><g><path d="M111.77,124.388c-1.149,0.664 -2.082,2.28 -2.082,3.606c-0,1.327 0.933,1.866 2.082,1.202c1.149,-0.663 2.082,-2.279 2.082,-3.606c-0,-1.327 -0.933,-1.865 -2.082,-1.202Z" style="fill:#001a35;"/><path d="M113.186,124.213c-0.229,-0.113 -1.136,-0.686 -1.416,-0.815c-0.369,-0.17 -0.857,-0.121 -1.391,0.187c-1.149,0.664 -2.082,2.28 -2.082,3.606c0,0.617 0.202,1.064 0.533,1.299c0.252,0.177 1.219,0.701 1.45,0.841c0.378,0.229 0.906,0.203 1.49,-0.135c1.149,-0.663 2.082,-2.279 2.082,-3.606c-0,-0.695 -0.256,-1.174 -0.666,-1.377Z" style="fill:#cecece;"/><g><g><path d="M113.185,124.212c-0.232,-0.115 -1.136,-0.685 -1.415,-0.814c-0.369,-0.17 -0.857,-0.121 -1.391,0.187c-1.149,0.664 -2.082,2.28 -2.082,3.606c0,0.617 0.202,1.064 0.533,1.299c0.251,0.177 1.213,0.698 1.447,0.84c-0.364,-0.223 -0.589,-0.684 -0.589,-1.336c-0,-1.326 0.933,-2.942 2.082,-3.606c0.546,-0.315 1.043,-0.359 1.415,-0.176Z" style="fill:#353535;fill-opacity:0.17;"/></g><path d="M111.716,125.628c-0.541,0.313 -0.981,1.075 -0.981,1.7c0,0.625 0.44,0.879 0.981,0.567c0.542,-0.313 0.982,-1.075 0.982,-1.7c-0,-0.626 -0.44,-0.879 -0.982,-0.567Z" style="fill:#25bcb4;"/><path d="M111.716,126.02c-0.354,0.205 -0.641,0.703 -0.641,1.112c-0,0.409 0.287,0.575 0.641,0.371c0.355,-0.205 0.642,-0.703 0.642,-1.112c0,-0.409 -0.287,-0.575 -0.642,-0.371Z" style="fill:#efefef;fill-opacity:0.45;"/></g></g></g></g></svg>