<?xml version="1.0" encoding="UTF-8" standalone="no"?><!DOCTYPE svg PUBLIC "-//W3C//DTD SVG 1.1//EN" "http://www.w3.org/Graphics/SVG/1.1/DTD/svg11.dtd"><svg width="100%" height="100%" viewBox="0 0 200 200" version="1.1" xmlns="http://www.w3.org/2000/svg" xmlns:xlink="http://www.w3.org/1999/xlink" xml:space="preserve" xmlns:serif="http://www.serif.com/" style="fill-rule:evenodd;clip-rule:evenodd;stroke-linejoin:round;stroke-miterlimit:2;"><path d="M20.265,73.027c0,0.353 0,91.247 0,91.971c0,2.822 2.062,5.799 6.085,8.122l26.652,15.387c7.355,4.247 18.497,4.708 24.866,1.031l97.567,-56.33c2.886,-1.666 4.3,-3.897 4.3,-6.235c-0,-2.822 -0,-89.633 -0,-91.971c-0,-2.822 -2.062,-5.799 -6.085,-8.122l-26.652,-15.387c-7.355,-4.247 -18.497,-4.708 -24.866,-1.031l-97.567,56.33c-2.886,1.666 -4.3,3.897 -4.3,6.235Z" style="fill:#001b35;"/><path d="M146.998,11.493c-7.355,-4.247 -18.497,-4.708 -24.866,-1.031l-97.567,56.33c-6.37,3.678 -5.57,10.111 1.785,14.357l26.652,15.387c7.355,4.247 18.497,4.709 24.866,1.031l97.567,-56.33c6.37,-3.677 5.57,-10.111 -1.785,-14.357l-26.652,-15.387Z" style="fill:#001a35;fill-opacity:0.27;"/><path d="M20.265,73.027c0,0.353 0,91.247 0,91.971c0,2.822 2.062,5.799 6.085,8.122l26.652,15.387c7.355,4.247 18.497,4.708 24.866,1.031l97.567,-56.33c2.886,-1.666 4.3,-3.897 4.3,-6.235c-0,-2.822 -0,-89.633 -0,-91.971c-0,-2.822 -2.062,-5.799 -6.085,-8.122l-26.652,-15.387c-7.355,-4.247 -18.497,-4.708 -24.866,-1.031l-97.567,56.33c-2.886,1.666 -4.3,3.897 -4.3,6.235Z" style="fill:#001a35;fill-opacity:0.27;"/><path d="M35.988,158.406c3.526,2.036 6.389,6.995 6.389,11.066c-0,4.072 -2.863,5.724 -6.389,3.689c-3.526,-2.036 -6.389,-6.994 -6.389,-11.066c0,-4.072 2.863,-5.724 6.389,-3.689Z" style="fill:#001a35;"/><path d="M31.643,157.869c0.703,-0.348 3.487,-2.106 4.345,-2.501c1.132,-0.522 2.628,-0.373 4.268,0.574c3.526,2.036 6.389,6.994 6.389,11.066c-0,1.894 -0.619,3.264 -1.637,3.983c-0.771,0.546 -3.74,2.153 -4.447,2.582c-1.161,0.704 -2.781,0.622 -4.573,-0.412c-3.526,-2.036 -6.389,-6.994 -6.389,-11.066c0,-2.134 0.787,-3.604 2.044,-4.226Z" style="fill:#001a35;"/><path d="M35.988,160.112c2.711,1.565 4.912,5.377 4.912,8.507c-0,3.13 -2.201,4.401 -4.912,2.836c-2.711,-1.565 -4.912,-5.377 -4.912,-8.507c0,-3.13 2.201,-4.401 4.912,-2.836Z" style="fill:#001a35;fill-opacity:0.72;"/><path d="M31.647,157.866c0.711,-0.353 3.485,-2.104 4.341,-2.498c1.132,-0.522 2.628,-0.373 4.268,0.574c3.526,2.036 6.389,6.994 6.389,11.066c-0,1.894 -0.619,3.264 -1.637,3.983c-0.768,0.544 -3.721,2.143 -4.44,2.578c1.119,-0.683 1.809,-2.099 1.809,-4.097c-0,-4.071 -2.863,-9.03 -6.389,-11.066c-1.675,-0.967 -3.201,-1.101 -4.341,-0.54Z" style="fill:#001a35;fill-opacity:0.51;"/><path d="M35.337,159.786c0.213,0.09 0.43,0.199 0.651,0.326c2.711,1.565 4.912,5.377 4.912,8.507c-0,0.255 -0.015,0.498 -0.043,0.727c-0.214,-0.09 -0.431,-0.199 -0.652,-0.326c-2.71,-1.565 -4.911,-5.377 -4.911,-8.507c-0,-0.255 0.014,-0.497 0.043,-0.727Z" style="fill:#001a35;fill-opacity:0.72;"/><path d="M36.152,162.211c1.662,0.96 3.012,3.297 3.012,5.216c-0,1.919 -1.35,2.698 -3.012,1.739c-1.662,-0.96 -3.011,-3.297 -3.011,-5.216c-0,-1.919 1.349,-2.698 3.011,-1.739Z" style="fill:#001a35;fill-opacity:0.72;"/><path d="M69.222,101.071c-0,-0.395 -0.321,-0.716 -0.716,-0.716l-2.172,0c-0.395,0 -0.716,0.321 -0.716,0.716l0,90c0,0.394 0.321,0.715 0.716,0.715l2.172,0c0.395,0 0.716,-0.321 0.716,-0.715l-0,-90Z" style="fill:#001a35;fill-opacity:0.94;"/><path d="M76.442,100.015c-0,-0.599 -0.46,-0.976 -1.028,-0.844l-3.121,0.73c-0.567,0.132 -1.027,0.726 -1.027,1.324l-0,89.263c-0,0.598 0.46,0.976 1.027,0.843l3.121,-0.729c0.568,-0.133 1.028,-0.726 1.028,-1.324l-0,-89.263Z" style="fill:#001a35;fill-opacity:0.94;"/><path d="M61.14,100.355c0,-0.379 0.292,-0.619 0.651,-0.535l1.978,0.463c0.359,0.084 0.651,0.46 0.651,0.839l0,90.057c0,0.379 -0.292,0.619 -0.651,0.535l-1.978,-0.463c-0.359,-0.084 -0.651,-0.46 -0.651,-0.839l0,-90.057Z" style="fill:#001a35;fill-opacity:0.94;"/><path d="M20.539,76.662c0,-0.746 0.156,-1.086 0.348,-0.76l1.059,1.795c0.192,0.326 0.348,1.196 0.348,1.942l0,88.729c0,0.745 -0.156,1.086 -0.348,0.76l-1.059,-1.795c-0.192,-0.327 -0.348,-1.197 -0.348,-1.942l0,-88.729Z" style="fill:#001a35;"/><path d="M179.535,38.429c-0,-0.746 -0.156,-1.086 -0.349,-0.76l-1.058,1.795c-0.192,0.326 -0.348,1.196 -0.348,1.942l-0,88.729c-0,0.745 0.156,1.086 0.348,0.76l1.058,-1.795c0.193,-0.327 0.349,-1.197 0.349,-1.942l-0,-88.729Z" style="fill:#001a35;"/><path d="M67.823,100.758c-0,-0.222 -0.181,-0.403 -0.403,-0.403c-0.222,0 -0.403,0.181 -0.403,0.403l0,90.625c0,0.223 0.181,0.403 0.403,0.403c0.222,0 0.403,-0.18 0.403,-0.403l-0,-90.625Z" style="fill:#001a35;fill-opacity:0.76;"/><path d="M57.252,118.084c0,-1.041 -0.634,-2.253 -1.415,-2.704l-28.936,-16.706c-0.78,-0.45 -1.414,0.029 -1.414,1.07c-0,1.041 0.634,2.253 1.414,2.704l28.936,16.706c0.781,0.45 1.415,-0.029 1.415,-1.07Z" style="fill:#001a35;"/><path d="M57.252,128.03c0,-1.042 -0.634,-2.253 -1.415,-2.704l-28.936,-16.706c-0.78,-0.451 -1.414,0.028 -1.414,1.07c-0,1.041 0.634,2.252 1.414,2.703l28.936,16.706c0.781,0.451 1.415,-0.028 1.415,-1.069Z" style="fill:#001a35;"/><path d="M35.988,158.406c3.526,2.036 6.389,6.995 6.389,11.066c-0,4.072 -2.863,5.724 -6.389,3.689c-3.526,-2.036 -6.389,-6.994 -6.389,-11.066c0,-4.072 2.863,-5.724 6.389,-3.689Z" style="fill:#a9b8c5;fill-opacity:0.14;"/><path d="M31.643,157.869c0.703,-0.348 3.487,-2.106 4.345,-2.501c1.132,-0.522 2.628,-0.373 4.268,0.574c3.526,2.036 6.389,6.994 6.389,11.066c-0,1.894 -0.619,3.264 -1.637,3.983c-0.771,0.546 -3.74,2.153 -4.447,2.582c-1.161,0.704 -2.781,0.622 -4.573,-0.412c-3.526,-2.036 -6.389,-6.994 -6.389,-11.066c0,-2.134 0.787,-3.604 2.044,-4.226Z" style="fill:#a9b8c5;fill-opacity:0.14;"/><path d="M35.988,160.112c2.711,1.565 4.912,5.377 4.912,8.507c-0,3.13 -2.201,4.401 -4.912,2.836c-2.711,-1.565 -4.912,-5.377 -4.912,-8.507c0,-3.13 2.201,-4.401 4.912,-2.836Z" style="fill:#a9b8c5;fill-opacity:0.14;"/><path d="M31.647,157.866c0.711,-0.353 3.485,-2.104 4.341,-2.498c1.132,-0.522 2.628,-0.373 4.268,0.574c3.526,2.036 6.389,6.994 6.389,11.066c-0,1.894 -0.619,3.264 -1.637,3.983c-0.768,0.544 -3.721,2.143 -4.44,2.578c1.119,-0.683 1.809,-2.099 1.809,-4.097c-0,-4.071 -2.863,-9.03 -6.389,-11.066c-1.675,-0.967 -3.201,-1.101 -4.341,-0.54Z" style="fill:#a9b8c5;fill-opacity:0.14;"/><path d="M36.152,162.211c1.662,0.96 3.012,3.297 3.012,5.216c-0,1.919 -1.35,2.698 -3.012,1.739c-1.662,-0.96 -3.011,-3.297 -3.011,-5.216c-0,-1.919 1.349,-2.698 3.011,-1.739Z" style="fill:#25bcb4;"/><path d="M36.152,163.414c1.087,0.628 1.97,2.157 1.97,3.412c0,1.255 -0.883,1.765 -1.97,1.137c-1.087,-0.628 -1.969,-2.156 -1.969,-3.412c-0,-1.255 0.882,-1.764 1.969,-1.137Z" style="fill:#efefef;fill-opacity:0.45;"/><path d="M69.222,101.071c-0,-0.395 -0.321,-0.716 -0.716,-0.716l-2.172,0c-0.395,0 -0.716,0.321 -0.716,0.716l0,90c0,0.394 0.321,0.715 0.716,0.715l2.172,0c0.395,0 0.716,-0.321 0.716,-0.715l-0,-90Z" style="fill:#f0f0f0;fill-opacity:0.12;"/><path d="M57.252,118.084c0,-1.041 -0.634,-2.253 -1.415,-2.704l-28.936,-16.706c-0.78,-0.45 -1.414,0.029 -1.414,1.07c-0,1.041 0.634,2.253 1.414,2.704l28.936,16.706c0.781,0.45 1.415,-0.029 1.415,-1.07Z" style="fill:#1b3349;"/><path d="M29.202,100.003l-3.032,1.75c0.213,0.296 0.464,0.54 0.731,0.695l28.936,16.706c0.781,0.45 1.415,-0.029 1.415,-1.07c0,-1.041 -0.634,-2.253 -1.415,-2.704l-26.635,-15.377Z" style="fill:#e8e8e8;fill-opacity:0.11;"/><path d="M57.252,128.03c0,-1.042 -0.634,-2.253 -1.415,-2.704l-28.936,-16.706c-0.78,-0.451 -1.414,0.028 -1.414,1.07c-0,1.041 0.634,2.252 1.414,2.703l28.936,16.706c0.781,0.451 1.415,-0.028 1.415,-1.069Z" style="fill:#1b3349;"/><path d="M29.202,109.948l-3.032,1.751c0.213,0.296 0.464,0.54 0.731,0.694l28.936,16.706c0.781,0.451 1.415,-0.028 1.415,-1.069c0,-1.042 -0.634,-2.253 -1.415,-2.704l-26.635,-15.378Z" style="fill:#e8e8e8;fill-opacity:0.11;"/><path d="M146.998,11.493c-7.355,-4.247 -18.497,-4.708 -24.866,-1.031l-97.567,56.33c-6.37,3.678 -5.57,10.111 1.785,14.357l26.652,15.387c7.355,4.247 18.497,4.709 24.866,1.031l97.567,-56.33c6.37,-3.677 5.57,-10.111 -1.785,-14.357l-26.652,-15.387Z" style="fill:#d3d3d3;fill-opacity:0.13;"/><path d="M76.442,100.015c-0,-0.599 -0.46,-0.976 -1.028,-0.844l-3.121,0.73c-0.567,0.132 -1.027,0.726 -1.027,1.324l-0,89.263c-0,0.598 0.46,0.976 1.027,0.843l3.121,-0.729c0.568,-0.133 1.028,-0.726 1.028,-1.324l-0,-89.263Z" style="fill:#d3d3d3;fill-opacity:0.13;"/><path d="M61.14,100.355c0,-0.379 0.292,-0.619 0.651,-0.535l1.978,0.463c0.359,0.084 0.651,0.46 0.651,0.839l0,90.057c0,0.379 -0.292,0.619 -0.651,0.535l-1.978,-0.463c-0.359,-0.084 -0.651,-0.46 -0.651,-0.839l0,-90.057Z" style="fill:#d3d3d3;fill-opacity:0.13;"/><path d="M20.539,76.662c0,-0.746 0.156,-1.086 0.348,-0.76l1.059,1.795c0.192,0.326 0.348,1.196 0.348,1.942l0,88.729c0,0.745 -0.156,1.086 -0.348,0.76l-1.059,-1.795c-0.192,-0.327 -0.348,-1.197 -0.348,-1.942l0,-88.729Z" style="fill:#d3d3d3;fill-opacity:0.13;"/><path d="M179.535,38.429c-0,-0.746 -0.156,-1.086 -0.349,-0.76l-1.058,1.795c-0.192,0.326 -0.348,1.196 -0.348,1.942l-0,88.729c-0,0.745 0.156,1.086 0.348,0.76l1.058,-1.795c0.193,-0.327 0.349,-1.197 0.349,-1.942l-0,-88.729Z" style="fill:#d3d3d3;fill-opacity:0.13;"/><path d="M67.823,100.758c-0,-0.222 -0.181,-0.403 -0.403,-0.403c-0.222,0 -0.403,0.181 -0.403,0.403l0,90.625c0,0.223 0.181,0.403 0.403,0.403c0.222,0 0.403,-0.18 0.403,-0.403l-0,-90.625Z" style="fill:#d3d3d3;fill-opacity:0.13;"/><path d="M84.231,121.441c0.053,0.041 1.987,1.529 2.331,1.727c0.285,0.164 0.656,0.148 1.062,-0.086l43.737,-25.252c0.896,-0.517 1.624,-1.907 1.624,-3.102l0,-12.753c0,-0.579 -0.171,-1.006 -0.449,-1.235c-0.295,-0.242 -1.977,-1.468 -2.271,-1.69c-0.294,-0.222 -0.7,-0.23 -1.148,0.028l-43.738,25.252c-0.896,0.518 -1.624,1.908 -1.624,3.103l0,12.753c0,0.597 0.182,1.033 0.476,1.255Z" style="fill:#001a35;"/><path d="M132.985,81.975c0,-1.195 -0.728,-1.745 -1.624,-1.228l-43.737,25.252c-0.896,0.518 -1.624,1.908 -1.624,3.103l-0,12.753c-0,1.195 0.728,1.745 1.624,1.227l43.737,-25.252c0.896,-0.517 1.624,-1.907 1.624,-3.102l0,-12.753Z" style="fill:#ebebeb;fill-opacity:0.1;"/><path d="M132.985,81.975c0,-1.195 -0.728,-1.745 -1.624,-1.228l-43.737,25.252c-0.896,0.518 -1.624,1.908 -1.624,3.103l-0,12.753c-0,1.195 0.728,1.745 1.624,1.227l43.737,-25.252c0.896,-0.517 1.624,-1.907 1.624,-3.102l0,-12.753Z" style="fill:#ebebeb;fill-opacity:0.1;"/><path d="M86.562,123.168l0,-0c0.009,0.005 -0,-0 -0,-0Zm-0.03,-0.018c-0.327,-0.208 -0.532,-0.661 -0.532,-1.295l-0,-12.753c-0,-1.195 0.728,-2.585 1.624,-3.103l43.737,-25.252c0.476,-0.274 0.905,-0.248 1.202,0.016c-0.009,-0.008 -0.018,-0.015 -0.027,-0.023c-0.295,-0.242 -1.977,-1.468 -2.271,-1.69c-0.294,-0.222 -0.7,-0.23 -1.148,0.028l-43.738,25.252c-0.896,0.518 -1.624,1.908 -1.624,3.103l0,12.753c0,0.597 0.182,1.033 0.476,1.255c0.052,0.04 1.887,1.452 2.301,1.709Z" style="fill:#ebebeb;fill-opacity:0.1;"/><path d="M83.755,107.433l2.245,1.669c-0,-1.195 0.728,-2.585 1.624,-3.103l-2.245,-1.669c-0.896,0.518 -1.624,1.908 -1.624,3.103Z" style="fill:#ebebeb;fill-opacity:0.1;"/><path d="M83.755,107.433l2.245,1.669c-0,-1.195 0.539,-1.977 0.947,-2.492l-2.253,-1.671c-0.385,0.546 -0.939,1.299 -0.939,2.494Z" style="fill:#ebebeb;fill-opacity:0.1;"/><path d="M128.733,85.703c0.001,0.03 0.002,0.061 0.002,0.092l-0,6.941c-0,0.901 -0.549,1.95 -1.225,2.34l-38.593,22.282c0.036,0.837 0.57,1.211 1.223,0.834l38.703,-22.346c0.676,-0.39 1.225,-1.439 1.225,-2.34l0,-6.941c0,-0.902 -0.549,-1.317 -1.225,-0.926l-0.11,0.064Z" style="fill-opacity:0.21;"/><path d="M128.734,85.702l-38.593,22.282c-0.676,0.39 -1.225,1.439 -1.225,2.34l-0,6.941c-0,0.032 0,0.063 0.002,0.093l38.593,-22.282c0.676,-0.39 1.225,-1.439 1.225,-2.341l-0,-6.941c-0,-0.031 -0.001,-0.062 -0.002,-0.092Z" style="fill:#25bcb4;"/><path d="M108.069,103.882l-0.963,0.556l0,0.576l0.963,-0.556l0,-0.576Z" style="fill:#001b35;fill-opacity:0.21;"/><path d="M109.637,102.977l-0.963,0.556l-0,0.576l0.963,-0.556l-0,-0.576Z" style="fill:#001b35;fill-opacity:0.21;"/><path d="M111.204,102.072l-0.963,0.556l0,0.576l0.963,-0.556l0,-0.576Z" style="fill:#001b35;fill-opacity:0.21;"/><path d="M112.772,101.167l-0.963,0.556l-0,0.576l0.963,-0.556l-0,-0.576Z" style="fill:#001b35;fill-opacity:0.21;"/><path d="M114.339,100.262l-0.963,0.556l0,0.576l0.963,-0.556l0,-0.576Z" style="fill:#001b35;fill-opacity:0.21;"/><path d="M115.907,99.357l-0.963,0.556l-0,0.576l0.963,-0.556l-0,-0.576Z" style="fill:#001b35;fill-opacity:0.21;"/><path d="M117.474,98.452l-0.963,0.556l0,0.576l0.963,-0.556l0,-0.576Z" style="fill:#001b35;fill-opacity:0.21;"/><path d="M119.042,97.547l-0.963,0.556l-0,0.576l0.963,-0.556l0,-0.576Z" style="fill:#001b35;fill-opacity:0.21;"/><path d="M120.61,96.642l-0.964,0.556l0,0.576l0.964,-0.556l-0,-0.576Z" style="fill:#001b35;fill-opacity:0.21;"/><path d="M122.177,95.737l-0.963,0.556l-0,0.576l0.963,-0.556l0,-0.576Z" style="fill:#001b35;fill-opacity:0.21;"/><path d="M123.745,94.832l-0.964,0.556l0,0.576l0.964,-0.556l-0,-0.576Z" style="fill:#001b35;fill-opacity:0.21;"/><path d="M125.312,93.927l-0.963,0.556l-0,0.576l0.963,-0.556l0,-0.576Z" style="fill:#001b35;fill-opacity:0.21;"/><path d="M126.88,93.022l-0.964,0.556l0,0.576l0.964,-0.556l-0,-0.576Z" style="fill:#001b35;fill-opacity:0.21;"/><path d="M108.069,102.847l-0.963,0.556l0,0.576l0.963,-0.557l0,-0.575Z" style="fill:#001b35;fill-opacity:0.21;"/><path d="M109.637,101.942l-0.963,0.556l-0,0.576l0.963,-0.557l-0,-0.575Z" style="fill:#001b35;fill-opacity:0.21;"/><path d="M111.204,101.037l-0.963,0.556l0,0.576l0.963,-0.557l0,-0.575Z" style="fill:#001b35;fill-opacity:0.21;"/><path d="M112.772,100.132l-0.963,0.556l-0,0.576l0.963,-0.557l-0,-0.575Z" style="fill:#001b35;fill-opacity:0.21;"/><path d="M114.339,99.227l-0.963,0.556l0,0.576l0.963,-0.557l0,-0.575Z" style="fill:#001b35;fill-opacity:0.21;"/><path d="M115.907,98.322l-0.963,0.556l-0,0.575l0.963,-0.556l-0,-0.575Z" style="fill:#001b35;fill-opacity:0.21;"/><path d="M117.474,97.417l-0.963,0.556l0,0.575l0.963,-0.556l0,-0.575Z" style="fill:#001b35;fill-opacity:0.21;"/><path d="M119.042,96.512l-0.963,0.556l-0,0.575l0.963,-0.556l0,-0.575Z" style="fill:#001b35;fill-opacity:0.21;"/><path d="M120.61,95.607l-0.964,0.556l0,0.575l0.964,-0.556l-0,-0.575Z" style="fill:#001b35;fill-opacity:0.21;"/><path d="M122.177,94.702l-0.963,0.556l-0,0.575l0.963,-0.556l0,-0.575Z" style="fill:#001b35;fill-opacity:0.21;"/><path d="M123.745,93.797l-0.964,0.556l0,0.575l0.964,-0.556l-0,-0.575Z" style="fill:#001b35;fill-opacity:0.21;"/><path d="M125.312,92.892l-0.963,0.556l-0,0.575l0.963,-0.556l0,-0.575Z" style="fill:#001b35;fill-opacity:0.21;"/><path d="M126.88,91.987l-0.964,0.556l0,0.575l0.964,-0.556l-0,-0.575Z" style="fill:#001b35;fill-opacity:0.21;"/><path d="M108.069,101.811l-0.963,0.556l0,0.576l0.963,-0.556l0,-0.576Z" style="fill:#001b35;fill-opacity:0.21;"/><path d="M109.637,100.906l-0.963,0.556l-0,0.576l0.963,-0.556l-0,-0.576Z" style="fill:#001b35;fill-opacity:0.21;"/><path d="M111.204,100.001l-0.963,0.556l0,0.576l0.963,-0.556l0,-0.576Z" style="fill:#001b35;fill-opacity:0.21;"/><path d="M112.772,99.096l-0.963,0.556l-0,0.576l0.963,-0.556l-0,-0.576Z" style="fill:#001b35;fill-opacity:0.21;"/><path d="M114.339,98.191l-0.963,0.556l0,0.576l0.963,-0.556l0,-0.576Z" style="fill:#001b35;fill-opacity:0.21;"/><path d="M115.907,97.286l-0.963,0.556l-0,0.576l0.963,-0.556l-0,-0.576Z" style="fill:#001b35;fill-opacity:0.21;"/><path d="M117.474,96.381l-0.963,0.556l0,0.576l0.963,-0.556l0,-0.576Z" style="fill:#001b35;fill-opacity:0.21;"/><path d="M119.042,95.476l-0.963,0.556l-0,0.576l0.963,-0.556l0,-0.576Z" style="fill:#001b35;fill-opacity:0.21;"/><path d="M120.61,94.571l-0.964,0.556l0,0.576l0.964,-0.556l-0,-0.576Z" style="fill:#001b35;fill-opacity:0.21;"/><path d="M122.177,93.666l-0.963,0.556l-0,0.576l0.963,-0.556l0,-0.576Z" style="fill:#001b35;fill-opacity:0.21;"/><path d="M123.745,92.761l-0.964,0.556l0,0.576l0.964,-0.556l-0,-0.576Z" style="fill:#001b35;fill-opacity:0.21;"/><path d="M125.312,91.856l-0.963,0.556l-0,0.576l0.963,-0.556l0,-0.576Z" style="fill:#001b35;fill-opacity:0.21;"/><path d="M126.88,90.951l-0.964,0.556l0,0.576l0.964,-0.556l-0,-0.576Z" style="fill:#001b35;fill-opacity:0.21;"/><path d="M108.069,100.775l-0.963,0.556l0,0.576l0.963,-0.556l0,-0.576Z" style="fill:#001b35;fill-opacity:0.21;"/><path d="M109.637,99.87l-0.963,0.556l-0,0.576l0.963,-0.556l-0,-0.576Z" style="fill:#001b35;fill-opacity:0.21;"/><path d="M111.204,98.965l-0.963,0.556l0,0.576l0.963,-0.556l0,-0.576Z" style="fill:#001b35;fill-opacity:0.21;"/><path d="M112.772,98.06l-0.963,0.556l-0,0.576l0.963,-0.556l-0,-0.576Z" style="fill:#001b35;fill-opacity:0.21;"/><path d="M114.339,97.155l-0.963,0.556l0,0.576l0.963,-0.556l0,-0.576Z" style="fill:#001b35;fill-opacity:0.21;"/><path d="M115.907,96.25l-0.963,0.556l-0,0.576l0.963,-0.556l-0,-0.576Z" style="fill:#001b35;fill-opacity:0.21;"/><path d="M117.474,95.345l-0.963,0.556l0,0.576l0.963,-0.556l0,-0.576Z" style="fill:#001b35;fill-opacity:0.21;"/><path d="M119.042,94.44l-0.963,0.556l-0,0.576l0.963,-0.556l0,-0.576Z" style="fill:#001b35;fill-opacity:0.21;"/><path d="M120.61,93.535l-0.964,0.556l0,0.576l0.964,-0.556l-0,-0.576Z" style="fill:#001b35;fill-opacity:0.21;"/><path d="M122.177,92.63l-0.963,0.556l-0,0.576l0.963,-0.556l0,-0.576Z" style="fill:#001b35;fill-opacity:0.21;"/><path d="M123.745,91.725l-0.964,0.556l0,0.576l0.964,-0.556l-0,-0.576Z" style="fill:#001b35;fill-opacity:0.21;"/><path d="M125.312,90.82l-0.963,0.556l-0,0.576l0.963,-0.556l0,-0.576Z" style="fill:#001b35;fill-opacity:0.21;"/><path d="M126.88,89.915l-0.964,0.556l0,0.576l0.964,-0.556l-0,-0.576Z" style="fill:#001b35;fill-opacity:0.21;"/><path d="M108.069,99.739l-0.963,0.557l0,0.575l0.963,-0.556l0,-0.576Z" style="fill:#001b35;fill-opacity:0.21;"/><path d="M109.637,98.834l-0.963,0.557l-0,0.575l0.963,-0.556l-0,-0.576Z" style="fill:#001b35;fill-opacity:0.21;"/><path d="M111.204,97.929l-0.963,0.557l0,0.575l0.963,-0.556l0,-0.576Z" style="fill:#001b35;fill-opacity:0.21;"/><path d="M112.772,97.024l-0.963,0.557l-0,0.575l0.963,-0.556l-0,-0.576Z" style="fill:#001b35;fill-opacity:0.21;"/><path d="M114.339,96.119l-0.963,0.557l0,0.575l0.963,-0.556l0,-0.576Z" style="fill:#001b35;fill-opacity:0.21;"/><path d="M115.907,95.214l-0.963,0.557l-0,0.575l0.963,-0.556l-0,-0.576Z" style="fill:#001b35;fill-opacity:0.21;"/><path d="M117.474,94.309l-0.963,0.557l0,0.575l0.963,-0.556l0,-0.576Z" style="fill:#001b35;fill-opacity:0.21;"/><path d="M119.042,93.404l-0.963,0.557l-0,0.575l0.963,-0.556l0,-0.576Z" style="fill:#001b35;fill-opacity:0.21;"/><path d="M120.61,92.499l-0.964,0.557l0,0.575l0.964,-0.556l-0,-0.576Z" style="fill:#001b35;fill-opacity:0.21;"/><path d="M122.177,91.594l-0.963,0.557l-0,0.575l0.963,-0.556l0,-0.576Z" style="fill:#001b35;fill-opacity:0.21;"/><path d="M123.745,90.689l-0.964,0.557l0,0.575l0.964,-0.556l-0,-0.576Z" style="fill:#001b35;fill-opacity:0.21;"/><path d="M125.312,89.784l-0.963,0.557l-0,0.575l0.963,-0.556l0,-0.576Z" style="fill:#001b35;fill-opacity:0.21;"/><path d="M126.88,88.879l-0.964,0.557l0,0.575l0.964,-0.556l-0,-0.576Z" style="fill:#001b35;fill-opacity:0.21;"/><path d="M108.069,98.704l-0.963,0.556l0,0.576l0.963,-0.557l0,-0.575Z" style="fill:#001b35;fill-opacity:0.21;"/><path d="M109.637,97.799l-0.963,0.556l-0,0.576l0.963,-0.557l-0,-0.575Z" style="fill:#001b35;fill-opacity:0.21;"/><path d="M111.204,96.894l-0.963,0.556l0,0.576l0.963,-0.557l0,-0.575Z" style="fill:#001b35;fill-opacity:0.21;"/><path d="M112.772,95.989l-0.963,0.556l-0,0.576l0.963,-0.557l-0,-0.575Z" style="fill:#001b35;fill-opacity:0.21;"/><path d="M114.339,95.084l-0.963,0.556l0,0.576l0.963,-0.557l0,-0.575Z" style="fill:#001b35;fill-opacity:0.21;"/><path d="M115.907,94.179l-0.963,0.556l-0,0.576l0.963,-0.557l-0,-0.575Z" style="fill:#001b35;fill-opacity:0.21;"/><path d="M117.474,93.274l-0.963,0.556l0,0.576l0.963,-0.557l0,-0.575Z" style="fill:#001b35;fill-opacity:0.21;"/><path d="M119.042,92.369l-0.963,0.556l-0,0.576l0.963,-0.557l0,-0.575Z" style="fill:#001b35;fill-opacity:0.21;"/><path d="M120.61,91.464l-0.964,0.556l0,0.576l0.964,-0.557l-0,-0.575Z" style="fill:#001b35;fill-opacity:0.21;"/><path d="M122.177,90.559l-0.963,0.556l-0,0.576l0.963,-0.557l0,-0.575Z" style="fill:#001b35;fill-opacity:0.21;"/><path d="M123.745,89.654l-0.964,0.556l0,0.576l0.964,-0.557l-0,-0.575Z" style="fill:#001b35;fill-opacity:0.21;"/><path d="M125.312,88.749l-0.963,0.556l-0,0.576l0.963,-0.557l0,-0.575Z" style="fill:#001b35;fill-opacity:0.21;"/><path d="M126.88,87.844l-0.964,0.556l0,0.576l0.964,-0.557l-0,-0.575Z" style="fill:#001b35;fill-opacity:0.21;"/><path d="M108.069,104.95l-0.963,0.556l0,0.576l0.963,-0.556l0,-0.576Z" style="fill:#001b35;fill-opacity:0.21;"/><path d="M109.637,104.045l-0.963,0.556l-0,0.576l0.963,-0.556l-0,-0.576Z" style="fill:#001b35;fill-opacity:0.21;"/><path d="M111.204,103.14l-0.963,0.556l0,0.576l0.963,-0.556l0,-0.576Z" style="fill:#001b35;fill-opacity:0.21;"/><path d="M112.772,102.235l-0.963,0.556l-0,0.576l0.963,-0.556l-0,-0.576Z" style="fill:#001b35;fill-opacity:0.21;"/><path d="M114.339,101.33l-0.963,0.556l0,0.576l0.963,-0.556l0,-0.576Z" style="fill:#001b35;fill-opacity:0.21;"/><path d="M115.907,100.425l-0.963,0.556l-0,0.576l0.963,-0.556l-0,-0.576Z" style="fill:#001b35;fill-opacity:0.21;"/><path d="M117.474,99.52l-0.963,0.556l0,0.576l0.963,-0.556l0,-0.576Z" style="fill:#001b35;fill-opacity:0.21;"/><path d="M119.042,98.615l-0.963,0.556l-0,0.576l0.963,-0.556l0,-0.576Z" style="fill:#001b35;fill-opacity:0.21;"/><path d="M120.61,97.71l-0.964,0.556l0,0.576l0.964,-0.556l-0,-0.576Z" style="fill:#001b35;fill-opacity:0.21;"/><path d="M122.177,96.805l-0.963,0.556l-0,0.576l0.963,-0.556l0,-0.576Z" style="fill:#001b35;fill-opacity:0.21;"/><path d="M123.745,95.9l-0.964,0.556l0,0.576l0.964,-0.556l-0,-0.576Z" style="fill:#001b35;fill-opacity:0.21;"/><path d="M125.312,94.995l-0.963,0.556l-0,0.576l0.963,-0.556l0,-0.576Z" style="fill:#001b35;fill-opacity:0.21;"/><path d="M126.88,94.09l-0.964,0.556l0,0.576l0.964,-0.556l-0,-0.576Z" style="fill:#001b35;fill-opacity:0.21;"/><path d="M108.069,103.882l-0.963,0.556l0,0.576l0.963,-0.556l0,-0.576Z" style="fill:#001a35;"/><path d="M109.637,102.977l-0.963,0.556l-0,0.576l0.963,-0.556l-0,-0.576Z" style="fill:#001a35;"/><path d="M111.204,102.072l-0.963,0.556l0,0.576l0.963,-0.556l0,-0.576Z" style="fill:#001a35;"/><path d="M112.772,101.167l-0.963,0.556l-0,0.576l0.963,-0.556l-0,-0.576Z" style="fill:#001a35;"/><path d="M115.907,99.357l-0.963,0.556l-0,0.576l0.963,-0.556l-0,-0.576Z" style="fill:#001a35;"/><path d="M117.474,98.452l-0.963,0.556l0,0.576l0.963,-0.556l0,-0.576Z" style="fill:#001a35;"/><path d="M119.042,97.547l-0.963,0.556l-0,0.576l0.963,-0.556l0,-0.576Z" style="fill:#001a35;"/><path d="M120.61,96.642l-0.964,0.556l0,0.576l0.964,-0.556l-0,-0.576Z" style="fill:#001a35;"/><path d="M122.177,95.737l-0.963,0.556l-0,0.576l0.963,-0.556l0,-0.576Z" style="fill:#001a35;"/><path d="M123.745,94.832l-0.964,0.556l0,0.576l0.964,-0.556l-0,-0.576Z" style="fill:#001a35;"/><path d="M125.312,93.927l-0.963,0.556l-0,0.576l0.963,-0.556l0,-0.576Z" style="fill:#001a35;"/><path d="M126.88,93.022l-0.964,0.556l0,0.576l0.964,-0.556l-0,-0.576Z" style="fill:#001a35;"/><path d="M108.069,102.847l-0.963,0.556l0,0.576l0.963,-0.557l0,-0.575Z" style="fill:#001a35;"/><path d="M109.637,101.942l-0.963,0.556l-0,0.576l0.963,-0.557l-0,-0.575Z" style="fill:#001a35;"/><path d="M112.772,100.132l-0.963,0.556l-0,0.576l0.963,-0.557l-0,-0.575Z" style="fill:#001a35;"/><path d="M115.907,98.322l-0.963,0.556l-0,0.575l0.963,-0.556l-0,-0.575Z" style="fill:#001a35;"/><path d="M117.474,97.417l-0.963,0.556l0,0.575l0.963,-0.556l0,-0.575Z" style="fill:#001a35;"/><path d="M120.61,95.607l-0.964,0.556l0,0.575l0.964,-0.556l-0,-0.575Z" style="fill:#001a35;"/><path d="M122.177,94.702l-0.963,0.556l-0,0.575l0.963,-0.556l0,-0.575Z" style="fill:#001a35;"/><path d="M123.745,93.797l-0.964,0.556l0,0.575l0.964,-0.556l-0,-0.575Z" style="fill:#001a35;"/><path d="M125.312,92.892l-0.963,0.556l-0,0.575l0.963,-0.556l0,-0.575Z" style="fill:#001a35;"/><path d="M126.88,91.987l-0.964,0.556l0,0.575l0.964,-0.556l-0,-0.575Z" style="fill:#001a35;"/><path d="M109.637,100.906l-0.963,0.556l-0,0.576l0.963,-0.556l-0,-0.576Z" style="fill:#001a35;"/><path d="M112.772,99.096l-0.963,0.556l-0,0.576l0.963,-0.556l-0,-0.576Z" style="fill:#001a35;"/><path d="M117.474,96.381l-0.963,0.556l0,0.576l0.963,-0.556l0,-0.576Z" style="fill:#001a35;"/><path d="M117.474,95.345l-0.963,0.556l0,0.576l0.963,-0.556l0,-0.576Z" style="fill:#001a35;"/><path d="M120.61,94.571l-0.964,0.556l0,0.576l0.964,-0.556l-0,-0.576Z" style="fill:#001a35;"/><path d="M123.745,92.761l-0.964,0.556l0,0.576l0.964,-0.556l-0,-0.576Z" style="fill:#001a35;"/><path d="M126.88,90.951l-0.964,0.556l0,0.576l0.964,-0.556l-0,-0.576Z" style="fill:#001a35;"/><path d="M112.772,98.06l-0.963,0.556l-0,0.576l0.963,-0.556l-0,-0.576Z" style="fill:#001a35;"/><path d="M120.61,93.535l-0.964,0.556l0,0.576l0.964,-0.556l-0,-0.576Z" style="fill:#001a35;"/><path d="M123.745,91.725l-0.964,0.556l0,0.576l0.964,-0.556l-0,-0.576Z" style="fill:#001a35;"/><path d="M126.88,89.915l-0.964,0.556l0,0.576l0.964,-0.556l-0,-0.576Z" style="fill:#001a35;"/><path d="M112.772,97.024l-0.963,0.557l-0,0.575l0.963,-0.556l-0,-0.576Z" style="fill:#001a35;"/><path d="M120.61,92.499l-0.964,0.557l0,0.575l0.964,-0.556l-0,-0.576Z" style="fill:#001a35;"/><path d="M123.745,90.689l-0.964,0.557l0,0.575l0.964,-0.556l-0,-0.576Z" style="fill:#001a35;"/><path d="M126.88,88.879l-0.964,0.557l0,0.575l0.964,-0.556l-0,-0.576Z" style="fill:#001a35;"/><path d="M120.61,91.464l-0.964,0.556l0,0.576l0.964,-0.557l-0,-0.575Z" style="fill:#001a35;"/><path d="M126.88,87.844l-0.964,0.556l0,0.576l0.964,-0.557l-0,-0.575Z" style="fill:#001a35;"/><path d="M108.069,104.95l-0.963,0.556l0,0.576l0.963,-0.556l0,-0.576Z" style="fill:#001a35;"/><path d="M109.637,104.045l-0.963,0.556l-0,0.576l0.963,-0.556l-0,-0.576Z" style="fill:#001a35;"/><path d="M111.204,103.14l-0.963,0.556l0,0.576l0.963,-0.556l0,-0.576Z" style="fill:#001a35;"/><path d="M112.772,102.235l-0.963,0.556l-0,0.576l0.963,-0.556l-0,-0.576Z" style="fill:#001a35;"/><path d="M114.339,101.33l-0.963,0.556l0,0.576l0.963,-0.556l0,-0.576Z" style="fill:#001a35;"/><path d="M115.907,100.425l-0.963,0.556l-0,0.576l0.963,-0.556l-0,-0.576Z" style="fill:#001a35;"/><path d="M117.474,99.52l-0.963,0.556l0,0.576l0.963,-0.556l0,-0.576Z" style="fill:#001a35;"/><path d="M119.042,98.615l-0.963,0.556l-0,0.576l0.963,-0.556l0,-0.576Z" style="fill:#001a35;"/><path d="M120.61,97.71l-0.964,0.556l0,0.576l0.964,-0.556l-0,-0.576Z" style="fill:#001a35;"/><path d="M122.177,96.805l-0.963,0.556l-0,0.576l0.963,-0.556l0,-0.576Z" style="fill:#001a35;"/><path d="M123.745,95.9l-0.964,0.556l0,0.576l0.964,-0.556l-0,-0.576Z" style="fill:#001a35;"/><path d="M125.312,94.995l-0.963,0.556l-0,0.576l0.963,-0.556l0,-0.576Z" style="fill:#001a35;"/><path d="M126.88,94.09l-0.964,0.556l0,0.576l0.964,-0.556l-0,-0.576Z" style="fill:#001a35;"/><path d="M90.185,109.651l0,2.04l0.919,0.53l2.187,-1.262l-0,-2.039l-0.919,-0.531l-2.187,1.262Z" style="fill:#001a35;"/><path d="M90.185,109.651l0,2.04l0.919,0.53l2.187,-1.262l-0,-2.039l-0.919,-0.531l-2.187,1.262Z" style="fill:#e7e7e7;fill-opacity:0.05;"/><path d="M91.104,110.182l-0.919,-0.531l0,2.04l0.919,0.53l2.187,-1.262l-0,-2.039l-2.187,1.262Z" style="fill:#e7e7e7;fill-opacity:0.05;"/><path d="M90.185,109.651l0,2.04l0.919,0.53l0,-2.039l-0.919,-0.531Z" style="fill:#e7e7e7;fill-opacity:0.05;"/><path d="M90.185,112.751l0,2.04l0.919,0.53l2.187,-1.262l-0,-2.039l-0.919,-0.531l-2.187,1.262Z" style="fill:#001a35;"/><path d="M90.185,112.751l0,2.04l0.919,0.53l2.187,-1.262l-0,-2.039l-0.919,-0.531l-2.187,1.262Z" style="fill:#e7e7e7;fill-opacity:0.05;"/><path d="M91.104,113.282l-0.919,-0.531l0,2.04l0.919,0.53l2.187,-1.262l-0,-2.039l-2.187,1.262Z" style="fill:#e7e7e7;fill-opacity:0.05;"/><path d="M90.185,112.751l0,2.04l0.919,0.53l0,-2.039l-0.919,-0.531Z" style="fill:#e7e7e7;fill-opacity:0.05;"/><path d="M93.291,107.859l-0,2.039l0.918,0.53l2.187,-1.262l-0,-2.039l-0.919,-0.531l-2.186,1.263Z" style="fill:#001a35;"/><path d="M93.291,107.859l-0,2.039l0.918,0.53l2.187,-1.262l-0,-2.039l-0.919,-0.531l-2.186,1.263Z" style="fill:#e7e7e7;fill-opacity:0.05;"/><path d="M94.209,108.389l-0.918,-0.53l-0,2.039l0.918,0.53l2.187,-1.262l-0,-2.039l-2.187,1.262Z" style="fill:#e7e7e7;fill-opacity:0.05;"/><path d="M93.291,107.859l-0,2.039l0.918,0.53l0,-2.039l-0.918,-0.53Z" style="fill:#e7e7e7;fill-opacity:0.05;"/><path d="M93.291,110.959l-0,2.039l0.918,0.53l2.187,-1.262l-0,-2.039l-0.919,-0.531l-2.186,1.263Z" style="fill:#001a35;"/><path d="M93.291,110.959l-0,2.039l0.918,0.53l2.187,-1.262l-0,-2.039l-0.919,-0.531l-2.186,1.263Z" style="fill:#e7e7e7;fill-opacity:0.05;"/><path d="M94.209,111.489l-0.918,-0.53l-0,2.039l0.918,0.53l2.187,-1.262l-0,-2.039l-2.187,1.262Z" style="fill:#e7e7e7;fill-opacity:0.05;"/><path d="M93.291,110.959l-0,2.039l0.918,0.53l0,-2.039l-0.918,-0.53Z" style="fill:#e7e7e7;fill-opacity:0.05;"/><path d="M96.396,106.066l-0,2.039l0.919,0.53l2.186,-1.262l0,-2.039l-0.919,-0.531l-2.186,1.263Z" style="fill:#25bcb4;"/><path d="M96.396,106.066l-0,2.039l0.919,0.53l2.186,-1.262l0,-2.039l-0.919,-0.531l-2.186,1.263Z" style="fill:#0e0e0e;fill-opacity:0.25;"/><path d="M97.315,106.596l-0.919,-0.53l-0,2.039l0.919,0.53l2.186,-1.262l0,-2.039l-2.186,1.262Z" style="fill:#0e0e0e;fill-opacity:0.25;"/><path d="M96.396,106.066l-0,2.039l0.919,0.53l-0,-2.039l-0.919,-0.53Z" style="fill:#0e0e0e;fill-opacity:0.25;"/><path d="M93.291,110.959l-0,2.039l0.918,0.53l2.187,-1.262l-0,-2.039l-0.919,-0.531l-2.186,1.263Z" style="fill:#25bcb4;"/><path d="M93.291,110.959l-0,2.039l0.918,0.53l2.187,-1.262l-0,-2.039l-0.919,-0.531l-2.186,1.263Z" style="fill:#0e0e0e;fill-opacity:0.25;"/><path d="M94.209,111.489l-0.918,-0.53l-0,2.039l0.918,0.53l2.187,-1.262l-0,-2.039l-2.187,1.262Z" style="fill:#0e0e0e;fill-opacity:0.25;"/><path d="M93.291,110.959l-0,2.039l0.918,0.53l0,-2.039l-0.918,-0.53Z" style="fill:#0e0e0e;fill-opacity:0.25;"/><path d="M96.396,109.166l-0,2.039l0.919,0.53l2.186,-1.262l0,-2.039l-0.919,-0.531l-2.186,1.263Z" style="fill:#001a35;"/><path d="M96.396,109.166l-0,2.039l0.919,0.53l2.186,-1.262l0,-2.039l-0.919,-0.531l-2.186,1.263Z" style="fill:#e7e7e7;fill-opacity:0.05;"/><path d="M97.315,109.696l-0.919,-0.53l-0,2.039l0.919,0.53l2.186,-1.262l0,-2.039l-2.186,1.262Z" style="fill:#e7e7e7;fill-opacity:0.05;"/><path d="M96.396,109.166l-0,2.039l0.919,0.53l-0,-2.039l-0.919,-0.53Z" style="fill:#e7e7e7;fill-opacity:0.05;"/><path d="M99.501,104.273l0,2.039l0.919,0.531l2.186,-1.263l0,-2.039l-0.918,-0.53l-2.187,1.262Z" style="fill:#001a35;"/><path d="M99.501,104.273l0,2.039l0.919,0.531l2.186,-1.263l0,-2.039l-0.918,-0.53l-2.187,1.262Z" style="fill:#e7e7e7;fill-opacity:0.05;"/><path d="M100.42,104.803l-0.919,-0.53l0,2.039l0.919,0.531l2.186,-1.263l0,-2.039l-2.186,1.262Z" style="fill:#e7e7e7;fill-opacity:0.05;"/><path d="M99.501,104.273l0,2.039l0.919,0.531l-0,-2.04l-0.919,-0.53Z" style="fill:#e7e7e7;fill-opacity:0.05;"/><path d="M99.501,107.373l0,2.039l0.919,0.531l2.186,-1.263l0,-2.039l-0.918,-0.53l-2.187,1.262Z" style="fill:#001a35;"/><path d="M99.501,107.373l0,2.039l0.919,0.531l2.186,-1.263l0,-2.039l-0.918,-0.53l-2.187,1.262Z" style="fill:#e7e7e7;fill-opacity:0.05;"/><path d="M100.42,107.903l-0.919,-0.53l0,2.039l0.919,0.531l2.186,-1.263l0,-2.039l-2.186,1.262Z" style="fill:#e7e7e7;fill-opacity:0.05;"/><path d="M99.501,107.373l0,2.039l0.919,0.531l-0,-2.04l-0.919,-0.53Z" style="fill:#e7e7e7;fill-opacity:0.05;"/><path d="M99.501,104.273l0,2.039l0.919,0.531l2.186,-1.263l0,-2.039l-0.918,-0.53l-2.187,1.262Z" style="fill:#001a35;"/><path d="M99.501,104.273l0,2.039l0.919,0.531l2.186,-1.263l0,-2.039l-0.918,-0.53l-2.187,1.262Z" style="fill:#e7e7e7;fill-opacity:0.05;"/><path d="M100.42,104.803l-0.919,-0.53l0,2.039l0.919,0.531l2.186,-1.263l0,-2.039l-2.186,1.262Z" style="fill:#e7e7e7;fill-opacity:0.05;"/><path d="M99.501,104.273l0,2.039l0.919,0.531l-0,-2.04l-0.919,-0.53Z" style="fill:#e7e7e7;fill-opacity:0.05;"/><path d="M99.501,107.373l0,2.039l0.919,0.531l2.186,-1.263l0,-2.039l-0.918,-0.53l-2.187,1.262Z" style="fill:#001a35;"/><path d="M99.501,107.373l0,2.039l0.919,0.531l2.186,-1.263l0,-2.039l-0.918,-0.53l-2.187,1.262Z" style="fill:#e7e7e7;fill-opacity:0.05;"/><path d="M100.42,107.903l-0.919,-0.53l0,2.039l0.919,0.531l2.186,-1.263l0,-2.039l-2.186,1.262Z" style="fill:#e7e7e7;fill-opacity:0.05;"/><path d="M99.501,107.373l0,2.039l0.919,0.531l-0,-2.04l-0.919,-0.53Z" style="fill:#e7e7e7;fill-opacity:0.05;"/><path d="M102.606,102.48l0,2.039l0.919,0.531l2.187,-1.263l-0,-2.039l-0.919,-0.53l-2.187,1.262Z" style="fill:#001a35;"/><path d="M102.606,102.48l0,2.039l0.919,0.531l2.187,-1.263l-0,-2.039l-0.919,-0.53l-2.187,1.262Z" style="fill:#e7e7e7;fill-opacity:0.05;"/><path d="M103.525,103.011l-0.919,-0.531l0,2.039l0.919,0.531l2.187,-1.263l-0,-2.039l-2.187,1.263Z" style="fill:#e7e7e7;fill-opacity:0.05;"/><path d="M102.606,102.48l0,2.039l0.919,0.531l0,-2.039l-0.919,-0.531Z" style="fill:#e7e7e7;fill-opacity:0.05;"/><path d="M102.606,105.58l0,2.039l0.919,0.531l2.187,-1.263l-0,-2.039l-0.919,-0.53l-2.187,1.262Z" style="fill:#001a35;"/><path d="M102.606,105.58l0,2.039l0.919,0.531l2.187,-1.263l-0,-2.039l-0.919,-0.53l-2.187,1.262Z" style="fill:#e7e7e7;fill-opacity:0.05;"/><path d="M103.525,106.111l-0.919,-0.531l0,2.039l0.919,0.531l2.187,-1.263l-0,-2.039l-2.187,1.263Z" style="fill:#e7e7e7;fill-opacity:0.05;"/><path d="M102.606,105.58l0,2.039l0.919,0.531l0,-2.039l-0.919,-0.531Z" style="fill:#e7e7e7;fill-opacity:0.05;"/><path d="M102.606,105.58l0,2.039l0.919,0.531l2.187,-1.263l-0,-2.039l-0.919,-0.53l-2.187,1.262Z" style="fill:#25bcb4;"/><path d="M102.606,105.58l0,2.039l0.919,0.531l2.187,-1.263l-0,-2.039l-0.919,-0.53l-2.187,1.262Z" style="fill:#0e0e0e;fill-opacity:0.25;"/><path d="M103.525,106.111l-0.919,-0.531l0,2.039l0.919,0.531l2.187,-1.263l-0,-2.039l-2.187,1.263Z" style="fill:#0e0e0e;fill-opacity:0.25;"/><path d="M102.606,105.58l0,2.039l0.919,0.531l0,-2.039l-0.919,-0.531Z" style="fill:#0e0e0e;fill-opacity:0.25;"/><path d="M84.237,147.443c0.053,0.041 2.01,1.547 2.359,1.747c0.288,0.166 0.663,0.15 1.074,-0.087l44.258,-25.552c0.907,-0.524 1.643,-1.93 1.643,-3.139l0,-12.905c0,-0.586 -0.173,-1.018 -0.454,-1.249c-0.299,-0.246 -2.001,-1.486 -2.299,-1.711c-0.297,-0.225 -0.708,-0.233 -1.161,0.029l-44.258,25.552c-0.907,0.524 -1.644,1.931 -1.644,3.14l0,12.904c0,0.605 0.184,1.046 0.482,1.271Z" style="fill:#001b35;"/><path d="M133.571,107.507c0,-1.209 -0.736,-1.766 -1.643,-1.242l-44.258,25.552c-0.907,0.524 -1.643,1.93 -1.643,3.14l-0,12.904c-0,1.209 0.736,1.766 1.643,1.242l44.258,-25.552c0.907,-0.524 1.643,-1.93 1.643,-3.139l0,-12.905Z" style="fill:#f0efef;fill-opacity:0.05;"/><path d="M95.824,135.752c0,-1.696 -1.033,-2.477 -2.305,-1.743l-0.298,0.172c-1.273,0.735 -2.306,2.709 -2.306,4.406c0,1.696 1.033,2.477 2.306,1.743l0.298,-0.172c1.272,-0.735 2.305,-2.709 2.305,-4.406Z" style="fill:#001a35;"/><path d="M93.533,133.233l0.023,-0.013c1.59,-0.919 2.882,0.058 2.882,2.178c-0,2.121 -1.292,4.588 -2.882,5.506l-0.023,0.014l0.023,0.086l-0.023,-0.086l-0.35,0.201l-0.023,0.014l0.023,0.086l-0.023,-0.086c-1.58,0.895 -2.858,-0.082 -2.858,-2.192c-0,-2.11 1.278,-4.564 2.858,-5.493l-0.027,-0.1c-1.616,0.933 -2.931,3.438 -2.931,5.593c-0,1.1 0.343,1.899 0.884,2.308c0.55,0.416 1.309,0.441 2.147,-0.043l-0.001,0l0.374,-0.215c-0,0 -0.05,0.013 -0.05,0.013l0.05,-0.013c1.616,-0.933 2.932,-3.438 2.932,-5.593c-0,-1.1 -0.344,-1.899 -0.885,-2.308c-0.549,-0.416 -1.309,-0.441 -2.147,0.043l0.027,0.1Zm-0,0l-0.027,-0.1l-0.372,0.215l0.026,0.1l0.023,-0.013l0.35,-0.202Z" style="fill:#001a35;"/><path d="M95.009,136.223c0,-1.134 -0.69,-1.656 -1.54,-1.165l-0.199,0.115c-0.85,0.491 -1.54,1.81 -1.54,2.943c-0,1.134 0.69,1.656 1.54,1.165l0.199,-0.115c0.85,-0.491 1.54,-1.81 1.54,-2.943Z" style="fill:#25bcb4;"/><path d="M95.563,136.307c-0.316,-0.99 -0.76,-1.141 -1.086,-1.33c-0.27,-0.156 -0.623,-0.141 -1.008,0.081l-0.199,0.115c-0.85,0.491 -1.54,1.81 -1.54,2.943c-0,0.621 0.207,1.058 0.533,1.246c0.27,0.156 0.944,0.331 1.623,0.149c1.302,-0.347 2.194,-1.586 1.677,-3.204Z" style="fill:#25bcb4;"/><path d="M95.699,137.474c-0.411,0.589 -1.039,1.01 -1.772,1.206c-0.849,0.226 -1.69,0.007 -2.028,-0.187c-0.055,-0.032 -0.107,-0.069 -0.156,-0.111c0.051,0.48 0.242,0.82 0.52,0.98c0.27,0.156 0.944,0.331 1.623,0.149c0.966,-0.258 1.706,-1.006 1.813,-2.037Z" style="fill:#e9e9e9;fill-opacity:0.21;"/><path d="M130.431,114.914c-0,-0.843 -0.513,-1.231 -1.145,-0.866l-30.006,17.324c-0.632,0.365 -1.145,1.345 -1.145,2.187l0,1.718c0,0.842 0.513,1.23 1.145,0.865l30.006,-17.324c0.632,-0.365 1.145,-1.345 1.145,-2.187l-0,-1.717Z" style="fill:#001a35;"/><path d="M126.303,115.77l3.769,2.176c0.221,-0.405 0.359,-0.879 0.359,-1.315l-0,-1.717c-0,-0.843 -0.513,-1.231 -1.145,-0.866l-2.983,1.722Z" style="fill:#e8e8e8;fill-opacity:0.12;"/><path d="M86.595,149.19l0.001,0c0.009,0.006 -0.001,-0 -0.001,-0Zm-0.03,-0.018c-0.331,-0.21 -0.538,-0.668 -0.538,-1.311l-0,-12.904c-0,-1.21 0.736,-2.616 1.643,-3.14l44.258,-25.552c0.481,-0.278 0.915,-0.252 1.216,0.015c-0.009,-0.007 -0.018,-0.015 -0.027,-0.022c-0.299,-0.246 -2.001,-1.486 -2.299,-1.711c-0.297,-0.225 -0.708,-0.233 -1.161,0.029l-44.258,25.552c-0.907,0.524 -1.644,1.931 -1.644,3.14l0,12.904c0,0.605 0.184,1.046 0.482,1.271c0.052,0.04 1.909,1.469 2.328,1.729Z" style="fill:#f6f6f6;fill-opacity:0.11;"/><path d="M83.755,133.268l2.272,1.689c-0,-1.21 0.736,-2.616 1.643,-3.14l-2.271,-1.689c-0.907,0.524 -1.644,1.931 -1.644,3.14Z" style="fill:#f6f6f6;fill-opacity:0.11;"/><path d="M83.755,133.268l2.272,1.689c-0,-1.21 0.545,-2.001 0.958,-2.522l-2.28,-1.69c-0.39,0.552 -0.95,1.314 -0.95,2.523Z" style="fill:#f6f6f6;fill-opacity:0.11;"/><path d="M84.237,172.61c0.053,0.04 2.01,1.546 2.359,1.747c0.288,0.166 0.663,0.15 1.074,-0.087l44.258,-25.552c0.907,-0.524 1.643,-1.931 1.643,-3.14l0,-12.905c0,-0.585 -0.173,-1.018 -0.454,-1.249c-0.299,-0.245 -2.001,-1.485 -2.299,-1.71c-0.297,-0.225 -0.708,-0.233 -1.161,0.028l-44.258,25.553c-0.907,0.523 -1.644,1.93 -1.644,3.139l0,12.905c0,0.604 0.184,1.046 0.482,1.271Z" style="fill:#001b35;"/><path d="M133.571,132.673c0,-1.209 -0.736,-1.765 -1.643,-1.242l-44.258,25.553c-0.907,0.523 -1.643,1.93 -1.643,3.139l-0,12.905c-0,1.209 0.736,1.766 1.643,1.242l44.258,-25.552c0.907,-0.524 1.643,-1.931 1.643,-3.14l0,-12.905Z" style="fill:#f0efef;fill-opacity:0.05;"/><path d="M95.824,160.919c0,-1.697 -1.033,-2.478 -2.305,-1.743l-0.298,0.172c-1.273,0.735 -2.306,2.709 -2.306,4.405c0,1.697 1.033,2.478 2.306,1.743l0.298,-0.172c1.272,-0.734 2.305,-2.708 2.305,-4.405Z" style="fill:#001a35;"/><path d="M93.533,158.4l0.023,-0.014c1.59,-0.918 2.882,0.058 2.882,2.179c-0,2.12 -1.292,4.588 -2.882,5.506l-0.023,0.013l0.023,0.087l-0.023,-0.087l-0.35,0.202l-0.023,0.013l0.023,0.087l-0.023,-0.087c-1.58,0.896 -2.858,-0.081 -2.858,-2.192c-0,-2.11 1.278,-4.563 2.858,-5.492l-0.027,-0.1c-1.616,0.933 -2.931,3.438 -2.931,5.592c-0,1.1 0.343,1.9 0.884,2.309c0.55,0.416 1.309,0.441 2.147,-0.043l-0.001,-0l0.374,-0.215c-0,-0 -0.05,0.013 -0.05,0.013l0.05,-0.013c1.616,-0.933 2.932,-3.438 2.932,-5.593c-0,-1.1 -0.344,-1.9 -0.885,-2.309c-0.549,-0.416 -1.309,-0.44 -2.147,0.044l0.027,0.1Zm-0,-0l-0.027,-0.1l-0.372,0.215l0.026,0.1l0.023,-0.014l0.35,-0.201Z" style="fill:#001a35;"/><path d="M95.009,161.389c0,-1.133 -0.69,-1.655 -1.54,-1.164l-0.199,0.115c-0.85,0.491 -1.54,1.809 -1.54,2.943c-0,1.133 0.69,1.655 1.54,1.164l0.199,-0.115c0.85,-0.49 1.54,-1.809 1.54,-2.943Z" style="fill:#25bcb4;"/><path d="M95.563,161.474c-0.316,-0.99 -0.76,-1.142 -1.086,-1.33c-0.27,-0.156 -0.623,-0.141 -1.008,0.081l-0.199,0.115c-0.85,0.491 -1.54,1.809 -1.54,2.943c-0,0.62 0.207,1.057 0.533,1.246c0.27,0.155 0.944,0.33 1.623,0.149c1.302,-0.348 2.194,-1.586 1.677,-3.204Z" style="fill:#25bcb4;"/><path d="M95.699,162.641c-0.411,0.588 -1.039,1.01 -1.772,1.205c-0.849,0.227 -1.69,0.008 -2.028,-0.186c-0.055,-0.032 -0.107,-0.069 -0.156,-0.112c0.051,0.48 0.242,0.821 0.52,0.981c0.27,0.155 0.944,0.33 1.623,0.149c0.966,-0.258 1.706,-1.007 1.813,-2.037Z" style="fill:#e9e9e9;fill-opacity:0.21;"/><path d="M130.431,140.08c-0,-0.842 -0.513,-1.23 -1.145,-0.865l-30.006,17.324c-0.632,0.365 -1.145,1.345 -1.145,2.187l0,1.717c0,0.843 0.513,1.23 1.145,0.866l30.006,-17.324c0.632,-0.365 1.145,-1.345 1.145,-2.188l-0,-1.717Z" style="fill:#001a35;"/><path d="M126.303,140.937l3.769,2.176c0.221,-0.406 0.359,-0.879 0.359,-1.316l-0,-1.717c-0,-0.842 -0.513,-1.23 -1.145,-0.865l-2.983,1.722Z" style="fill:#e8e8e8;fill-opacity:0.12;"/><path d="M86.595,174.357l0.001,-0c0.009,0.005 -0.001,-0 -0.001,-0Zm-0.03,-0.019c-0.331,-0.21 -0.538,-0.668 -0.538,-1.31l-0,-12.905c-0,-1.209 0.736,-2.616 1.643,-3.139l44.258,-25.553c0.481,-0.278 0.915,-0.251 1.216,0.016c-0.009,-0.008 -0.018,-0.015 -0.027,-0.023c-0.299,-0.245 -2.001,-1.485 -2.299,-1.71c-0.297,-0.225 -0.708,-0.233 -1.161,0.028l-44.258,25.553c-0.907,0.523 -1.644,1.93 -1.644,3.139l0,12.905c0,0.604 0.184,1.046 0.482,1.271c0.052,0.039 1.909,1.468 2.328,1.728Z" style="fill:#f6f6f6;fill-opacity:0.11;"/><path d="M83.755,158.434l2.272,1.689c-0,-1.209 0.736,-2.616 1.643,-3.139l-2.271,-1.689c-0.907,0.523 -1.644,1.93 -1.644,3.139Z" style="fill:#f6f6f6;fill-opacity:0.11;"/><path d="M83.755,158.434l2.272,1.689c-0,-1.209 0.545,-2 0.958,-2.522l-2.28,-1.69c-0.39,0.552 -0.95,1.314 -0.95,2.523Z" style="fill:#f6f6f6;fill-opacity:0.11;"/></svg>