<?xml version="1.0" encoding="UTF-8" standalone="no"?><!DOCTYPE svg PUBLIC "-//W3C//DTD SVG 1.1//EN" "http://www.w3.org/Graphics/SVG/1.1/DTD/svg11.dtd"><svg width="100%" height="100%" viewBox="0 0 200 200" version="1.1" xmlns="http://www.w3.org/2000/svg" xmlns:xlink="http://www.w3.org/1999/xlink" xml:space="preserve" xmlns:serif="http://www.serif.com/" style="fill-rule:evenodd;clip-rule:evenodd;stroke-linejoin:round;stroke-miterlimit:2;"><path d="M41.254,44.898c-0.019,0.26 -0.023,110.443 -0.008,111.771c0.017,1.577 1.176,3.237 3.423,4.534l47.834,27.617c4.138,2.389 10.406,2.649 13.989,0.58l49.844,-28.777c1.623,-0.937 2.418,-2.193 2.418,-3.508c0,-1.587 0,-110.182 0,-111.497c0,-1.587 -1.159,-3.262 -3.423,-4.569l-47.834,-27.617c-4.138,-2.389 -10.406,-2.649 -13.989,-0.58l-49.844,28.777c-1.525,0.881 -2.319,2.042 -2.41,3.269Z" style="fill:#d8d8d8;"/><path d="M41.251,45.317c-0.016,3.481 -0.019,110.215 -0.005,111.451c0.017,1.578 1.176,3.238 3.423,4.535l47.834,27.617c4.138,2.389 10.406,2.649 13.989,0.58l49.844,-28.777c1.623,-0.937 2.418,-2.193 2.418,-3.508c0,-1.587 0,-110.282 0,-111.597l0,-0c0.001,1.315 -0.795,2.571 -2.418,3.508l-49.844,28.777c-3.583,2.069 -9.851,1.809 -13.989,-0.58l-47.834,-27.617c-2.178,-1.257 -3.334,-2.855 -3.418,-4.389Z" style="fill:#949494;fill-opacity:0.15;"/><path d="M107.497,13.432c-4.138,-2.389 -10.406,-2.649 -13.989,-0.58l-49.844,28.777c-3.583,2.069 -3.133,5.688 1.005,8.077l47.834,27.617c4.138,2.389 10.406,2.649 13.989,0.58l49.844,-28.777c3.583,-2.069 3.133,-5.688 -1.005,-8.077l-47.834,-27.617Z" style="fill:#d8d8d8;"/><path d="M103.375,79.611c-0,-0.172 -0.14,-0.312 -0.312,-0.312l-4.637,0c-0.172,0 -0.311,0.14 -0.311,0.312l-0,110.772c-0,0.172 0.139,0.311 0.311,0.311l4.637,0c0.172,0 0.312,-0.139 0.312,-0.311l-0,-110.772Z" style="fill:#eaeaea;fill-opacity:0.32;"/><path d="M101.409,79.584c-0,-0.157 -0.128,-0.285 -0.285,-0.285l-0.569,0c-0.157,0 -0.285,0.128 -0.285,0.285l0,110.672c0,0.157 0.128,0.285 0.285,0.285l0.569,-0c0.157,-0 0.285,-0.128 0.285,-0.285l-0,-110.672Z" style="fill:#eaeaea;fill-opacity:0.32;"/><path d="M97.242,79.407c0,-0.182 -0.136,-0.368 -0.305,-0.415l-0.609,-0.172c-0.168,-0.047 -0.305,0.061 -0.305,0.243l0,109.963c0,0.182 0.137,0.368 0.305,0.415l0.609,0.172c0.169,0.048 0.305,-0.061 0.305,-0.243l0,-109.963Z" style="fill:#eaeaea;fill-opacity:0.32;"/><path d="M157.003,49.579c-0,-0.297 0.107,-0.659 0.238,-0.806l0.477,-0.535c0.132,-0.148 0.238,-0.027 0.238,0.271l0,109.483c0,0.297 -0.106,0.658 -0.238,0.806l-0.477,0.535c-0.131,0.148 -0.238,0.026 -0.238,-0.271l-0,-109.483Z" style="fill:#eaeaea;fill-opacity:0.32;"/><path d="M104.693,80.075c-0,-0.548 0.323,-1.193 0.722,-1.437l1.444,-0.888c0.398,-0.244 0.722,0.003 0.722,0.551l-0,109.369c-0,0.549 -0.324,1.194 -0.722,1.438l-1.444,0.887c-0.399,0.245 -0.722,-0.002 -0.722,-0.551l-0,-109.369Z" style="fill:#eaeaea;fill-opacity:0.32;"/><path d="M42.693,48.846c-0,-0.297 -0.107,-0.658 -0.239,-0.806l-0.477,-0.535c-0.131,-0.148 -0.238,-0.026 -0.238,0.271l-0,109.622c-0,0.297 0.107,0.658 0.238,0.806l0.477,0.535c0.132,0.148 0.239,0.026 0.239,-0.271l-0,-109.622Z" style="fill:#eaeaea;fill-opacity:0.32;"/><path d="M92.929,179.535c-0.055,0.042 -2.086,1.604 -2.447,1.812c-0.299,0.173 -0.689,0.156 -1.115,-0.09l-45.923,-26.513c-0.941,-0.544 -1.705,-2.003 -1.705,-3.258l-0,-13.39c-0,-0.608 0.179,-1.057 0.471,-1.296c0.311,-0.255 2.077,-1.542 2.385,-1.775c0.309,-0.233 0.735,-0.242 1.206,0.03l45.923,26.513c0.941,0.544 1.705,2.003 1.705,3.258l-0,13.39c-0,0.627 -0.191,1.085 -0.5,1.319Z" style="fill:#cecece;"/><path d="M41.739,138.096c-0,-1.255 0.764,-1.832 1.705,-1.289l45.923,26.514c0.941,0.543 1.705,2.003 1.705,3.257l0,13.391c0,1.254 -0.764,1.832 -1.705,1.288l-45.923,-26.513c-0.941,-0.544 -1.705,-2.003 -1.705,-3.258l-0,-13.39Z" style="fill:#cecece;"/><path d="M67.535,154.966c-0,-0.123 0.075,-0.179 0.166,-0.126l18.828,10.87c0.092,0.053 0.166,0.196 0.166,0.318l0,1.308c0,0.122 -0.074,0.179 -0.166,0.126l-18.828,-10.87c-0.091,-0.053 -0.166,-0.196 -0.166,-0.319l-0,-1.307Z" style="fill:#001a35;"/><path d="M67.535,159.489c-0,-0.122 0.075,-0.178 0.166,-0.125l18.828,10.87c0.092,0.053 0.166,0.195 0.166,0.318l0,1.307c0,0.123 -0.074,0.179 -0.166,0.126l-18.828,-10.87c-0.091,-0.053 -0.166,-0.195 -0.166,-0.318l-0,-1.308Z" style="fill:#001a35;"/><path d="M67.535,164.013c-0,-0.123 0.075,-0.179 0.166,-0.126l18.828,10.87c0.092,0.053 0.166,0.196 0.166,0.318l0,1.308c0,0.122 -0.074,0.179 -0.166,0.126l-18.828,-10.87c-0.091,-0.053 -0.166,-0.196 -0.166,-0.318l-0,-1.308Z" style="fill:#001a35;"/><path d="M46.116,142.599c-0,-0.122 0.074,-0.178 0.166,-0.125l18.828,10.87c0.091,0.053 0.166,0.195 0.166,0.318l0,1.307c0,0.123 -0.075,0.179 -0.166,0.126l-18.828,-10.87c-0.092,-0.053 -0.166,-0.195 -0.166,-0.318l-0,-1.308Z" style="fill:#001a35;"/><path d="M46.116,147.123c-0,-0.123 0.074,-0.179 0.166,-0.126l18.828,10.87c0.091,0.053 0.166,0.196 0.166,0.318l0,1.308c0,0.122 -0.075,0.179 -0.166,0.126l-18.828,-10.87c-0.092,-0.053 -0.166,-0.196 -0.166,-0.318l-0,-1.308Z" style="fill:#001a35;"/><path d="M46.116,151.647c-0,-0.123 0.074,-0.179 0.166,-0.126l18.828,10.87c0.091,0.053 0.166,0.195 0.166,0.318l0,1.307c0,0.123 -0.075,0.179 -0.166,0.126l-18.828,-10.87c-0.092,-0.053 -0.166,-0.195 -0.166,-0.318l-0,-1.307Z" style="fill:#001a35;"/><path d="M90.482,181.347l-0,0c-0.01,0.006 0,0 0,0Zm0.031,-0.019c0.343,-0.218 0.559,-0.693 0.559,-1.359l0,-13.391c0,-1.254 -0.764,-2.714 -1.705,-3.257l-45.923,-26.514c-0.5,-0.288 -0.95,-0.261 -1.261,0.016c0.009,-0.008 0.018,-0.016 0.027,-0.023c0.311,-0.255 2.077,-1.542 2.385,-1.775c0.309,-0.233 0.735,-0.242 1.206,0.03l45.923,26.513c0.941,0.544 1.705,2.003 1.705,3.258l-0,13.39c-0,0.627 -0.191,1.085 -0.5,1.319c-0.054,0.041 -1.981,1.523 -2.416,1.793Z" style="fill:#e9e9e9;fill-opacity:0.5;"/><path d="M93.429,164.826l-2.357,1.752c0,-1.254 -0.764,-2.714 -1.705,-3.257l2.357,-1.753c0.941,0.544 1.705,2.003 1.705,3.258Z" style="fill:#e9e9e9;fill-opacity:0.5;"/><path d="M93.429,164.826l-2.357,1.752c0,-1.254 -0.566,-2.075 -0.994,-2.616l2.366,-1.754c0.404,0.573 0.985,1.363 0.985,2.618Z" style="fill:#e9e9e9;fill-opacity:0.5;"/><path d="M92.929,179.535c-0.055,0.042 -2.086,1.604 -2.447,1.812c-0.299,0.173 -0.689,0.156 -1.115,-0.09l-45.923,-26.513c-0.941,-0.544 -1.705,-2.003 -1.705,-3.258l-0,-13.39c-0,-0.608 0.179,-1.057 0.471,-1.296c0.311,-0.255 2.077,-1.542 2.385,-1.775c0.309,-0.233 0.735,-0.242 1.206,0.03l45.923,26.513c0.941,0.544 1.705,2.003 1.705,3.258l-0,13.39c-0,0.627 -0.191,1.085 -0.5,1.319Z" style="fill:#cecece;"/><path d="M41.739,138.096c-0,-1.255 0.764,-1.832 1.705,-1.289l45.923,26.514c0.941,0.543 1.705,2.003 1.705,3.257l0,13.391c0,1.254 -0.764,1.832 -1.705,1.288l-45.923,-26.513c-0.941,-0.544 -1.705,-2.003 -1.705,-3.258l-0,-13.39Z" style="fill:#cecece;"/><path d="M67.535,154.966c-0,-0.123 0.075,-0.179 0.166,-0.126l18.828,10.87c0.092,0.053 0.166,0.196 0.166,0.318l0,1.308c0,0.122 -0.074,0.179 -0.166,0.126l-18.828,-10.87c-0.091,-0.053 -0.166,-0.196 -0.166,-0.319l-0,-1.307Z" style="fill:#001a35;"/><path d="M67.535,159.489c-0,-0.122 0.075,-0.178 0.166,-0.125l18.828,10.87c0.092,0.053 0.166,0.195 0.166,0.318l0,1.307c0,0.123 -0.074,0.179 -0.166,0.126l-18.828,-10.87c-0.091,-0.053 -0.166,-0.195 -0.166,-0.318l-0,-1.308Z" style="fill:#001a35;"/><path d="M67.535,164.013c-0,-0.123 0.075,-0.179 0.166,-0.126l18.828,10.87c0.092,0.053 0.166,0.196 0.166,0.318l0,1.308c0,0.122 -0.074,0.179 -0.166,0.126l-18.828,-10.87c-0.091,-0.053 -0.166,-0.196 -0.166,-0.318l-0,-1.308Z" style="fill:#001a35;"/><path d="M46.116,142.599c-0,-0.122 0.074,-0.178 0.166,-0.125l18.828,10.87c0.091,0.053 0.166,0.195 0.166,0.318l0,1.307c0,0.123 -0.075,0.179 -0.166,0.126l-18.828,-10.87c-0.092,-0.053 -0.166,-0.195 -0.166,-0.318l-0,-1.308Z" style="fill:#001a35;"/><path d="M46.116,147.123c-0,-0.123 0.074,-0.179 0.166,-0.126l18.828,10.87c0.091,0.053 0.166,0.196 0.166,0.318l0,1.308c0,0.122 -0.075,0.179 -0.166,0.126l-18.828,-10.87c-0.092,-0.053 -0.166,-0.196 -0.166,-0.318l-0,-1.308Z" style="fill:#001a35;"/><path d="M46.116,151.647c-0,-0.123 0.074,-0.179 0.166,-0.126l18.828,10.87c0.091,0.053 0.166,0.195 0.166,0.318l0,1.307c0,0.123 -0.075,0.179 -0.166,0.126l-18.828,-10.87c-0.092,-0.053 -0.166,-0.195 -0.166,-0.318l-0,-1.307Z" style="fill:#001a35;"/><path d="M90.482,181.347l-0,0c-0.01,0.006 0,0 0,0Zm0.031,-0.019c0.343,-0.218 0.559,-0.693 0.559,-1.359l0,-13.391c0,-1.254 -0.764,-2.714 -1.705,-3.257l-45.923,-26.514c-0.5,-0.288 -0.95,-0.261 -1.261,0.016c0.009,-0.008 0.018,-0.016 0.027,-0.023c0.311,-0.255 2.077,-1.542 2.385,-1.775c0.309,-0.233 0.735,-0.242 1.206,0.03l45.923,26.513c0.941,0.544 1.705,2.003 1.705,3.258l-0,13.39c-0,0.627 -0.191,1.085 -0.5,1.319c-0.054,0.041 -1.981,1.523 -2.416,1.793Z" style="fill:#e9e9e9;fill-opacity:0.5;"/><path d="M93.429,164.826l-2.357,1.752c0,-1.254 -0.764,-2.714 -1.705,-3.257l2.357,-1.753c0.941,0.544 1.705,2.003 1.705,3.258Z" style="fill:#e9e9e9;fill-opacity:0.5;"/><path d="M93.429,164.826l-2.357,1.752c0,-1.254 -0.566,-2.075 -0.994,-2.616l2.366,-1.754c0.404,0.573 0.985,1.363 0.985,2.618Z" style="fill:#e9e9e9;fill-opacity:0.5;"/><path d="M92.929,154.911c-0.055,0.043 -2.086,1.605 -2.447,1.813c-0.299,0.173 -0.689,0.156 -1.115,-0.09l-45.923,-26.513c-0.941,-0.544 -1.705,-2.003 -1.705,-3.258l-0,-13.39c-0,-0.608 0.179,-1.057 0.471,-1.296c0.311,-0.255 2.077,-1.542 2.385,-1.775c0.309,-0.234 0.735,-0.242 1.206,0.029l45.923,26.514c0.941,0.543 1.705,2.003 1.705,3.258l-0,13.39c-0,0.627 -0.191,1.085 -0.5,1.318Z" style="fill:#cecece;"/><path d="M41.739,113.473c-0,-1.255 0.764,-1.832 1.705,-1.289l45.923,26.514c0.941,0.543 1.705,2.003 1.705,3.257l0,13.39c0,1.255 -0.764,1.833 -1.705,1.289l-45.923,-26.513c-0.941,-0.544 -1.705,-2.003 -1.705,-3.258l-0,-13.39Z" style="fill:#cecece;"/><path d="M67.535,130.343c-0,-0.123 0.075,-0.179 0.166,-0.126l18.828,10.87c0.092,0.053 0.166,0.196 0.166,0.318l0,1.308c0,0.122 -0.074,0.179 -0.166,0.125l-18.828,-10.87c-0.091,-0.053 -0.166,-0.195 -0.166,-0.318l-0,-1.307Z" style="fill:#001a35;"/><path d="M67.535,134.866c-0,-0.122 0.075,-0.179 0.166,-0.126l18.828,10.87c0.092,0.053 0.166,0.196 0.166,0.319l0,1.307c0,0.123 -0.074,0.179 -0.166,0.126l-18.828,-10.87c-0.091,-0.053 -0.166,-0.196 -0.166,-0.318l-0,-1.308Z" style="fill:#001a35;"/><path d="M67.535,139.39c-0,-0.123 0.075,-0.179 0.166,-0.126l18.828,10.87c0.092,0.053 0.166,0.196 0.166,0.318l0,1.308c0,0.122 -0.074,0.179 -0.166,0.126l-18.828,-10.871c-0.091,-0.053 -0.166,-0.195 -0.166,-0.318l-0,-1.307Z" style="fill:#001a35;"/><path d="M46.116,117.976c-0,-0.122 0.074,-0.179 0.166,-0.126l18.828,10.87c0.091,0.054 0.166,0.196 0.166,0.319l0,1.307c0,0.123 -0.075,0.179 -0.166,0.126l-18.828,-10.87c-0.092,-0.053 -0.166,-0.196 -0.166,-0.318l-0,-1.308Z" style="fill:#001a35;"/><path d="M46.116,122.5c-0,-0.123 0.074,-0.179 0.166,-0.126l18.828,10.87c0.091,0.053 0.166,0.196 0.166,0.318l0,1.308c0,0.122 -0.075,0.179 -0.166,0.126l-18.828,-10.87c-0.092,-0.054 -0.166,-0.196 -0.166,-0.319l-0,-1.307Z" style="fill:#001a35;"/><path d="M46.116,127.023c-0,-0.122 0.074,-0.179 0.166,-0.126l18.828,10.871c0.091,0.053 0.166,0.195 0.166,0.318l0,1.307c0,0.123 -0.075,0.179 -0.166,0.126l-18.828,-10.87c-0.092,-0.053 -0.166,-0.196 -0.166,-0.318l-0,-1.308Z" style="fill:#001a35;"/><path d="M90.482,156.724l-0,0c-0.01,0.006 0,0 0,0Zm0.031,-0.019c0.343,-0.218 0.559,-0.693 0.559,-1.36l0,-13.39c0,-1.254 -0.764,-2.714 -1.705,-3.257l-45.923,-26.514c-0.5,-0.289 -0.95,-0.261 -1.261,0.016c0.009,-0.008 0.018,-0.016 0.027,-0.023c0.311,-0.255 2.077,-1.542 2.385,-1.775c0.309,-0.234 0.735,-0.242 1.206,0.029l45.923,26.514c0.941,0.543 1.705,2.003 1.705,3.258l-0,13.39c-0,0.627 -0.191,1.085 -0.5,1.318c-0.054,0.042 -1.981,1.524 -2.416,1.794Z" style="fill:#e9e9e9;fill-opacity:0.5;"/><path d="M93.429,140.203l-2.357,1.752c0,-1.254 -0.764,-2.714 -1.705,-3.257l2.357,-1.753c0.941,0.543 1.705,2.003 1.705,3.258Z" style="fill:#e9e9e9;fill-opacity:0.5;"/><path d="M93.429,140.203l-2.357,1.752c0,-1.254 -0.566,-2.075 -0.994,-2.616l2.366,-1.754c0.404,0.573 0.985,1.363 0.985,2.618Z" style="fill:#e9e9e9;fill-opacity:0.5;"/><path d="M92.929,154.911c-0.055,0.043 -2.086,1.605 -2.447,1.813c-0.299,0.173 -0.689,0.156 -1.115,-0.09l-45.923,-26.513c-0.941,-0.544 -1.705,-2.003 -1.705,-3.258l-0,-13.39c-0,-0.608 0.179,-1.057 0.471,-1.296c0.311,-0.255 2.077,-1.542 2.385,-1.775c0.309,-0.234 0.735,-0.242 1.206,0.029l45.923,26.514c0.941,0.543 1.705,2.003 1.705,3.258l-0,13.39c-0,0.627 -0.191,1.085 -0.5,1.318Z" style="fill:#cecece;"/><path d="M41.739,113.473c-0,-1.255 0.764,-1.832 1.705,-1.289l45.923,26.514c0.941,0.543 1.705,2.003 1.705,3.257l0,13.39c0,1.255 -0.764,1.833 -1.705,1.289l-45.923,-26.513c-0.941,-0.544 -1.705,-2.003 -1.705,-3.258l-0,-13.39Z" style="fill:#cecece;"/><path d="M67.535,130.343c-0,-0.123 0.075,-0.179 0.166,-0.126l18.828,10.87c0.092,0.053 0.166,0.196 0.166,0.318l0,1.308c0,0.122 -0.074,0.179 -0.166,0.125l-18.828,-10.87c-0.091,-0.053 -0.166,-0.195 -0.166,-0.318l-0,-1.307Z" style="fill:#001a35;"/><path d="M67.535,134.866c-0,-0.122 0.075,-0.179 0.166,-0.126l18.828,10.87c0.092,0.053 0.166,0.196 0.166,0.319l0,1.307c0,0.123 -0.074,0.179 -0.166,0.126l-18.828,-10.87c-0.091,-0.053 -0.166,-0.196 -0.166,-0.318l-0,-1.308Z" style="fill:#001a35;"/><path d="M67.535,139.39c-0,-0.123 0.075,-0.179 0.166,-0.126l18.828,10.87c0.092,0.053 0.166,0.196 0.166,0.318l0,1.308c0,0.122 -0.074,0.179 -0.166,0.126l-18.828,-10.871c-0.091,-0.053 -0.166,-0.195 -0.166,-0.318l-0,-1.307Z" style="fill:#001a35;"/><path d="M46.116,117.976c-0,-0.122 0.074,-0.179 0.166,-0.126l18.828,10.87c0.091,0.054 0.166,0.196 0.166,0.319l0,1.307c0,0.123 -0.075,0.179 -0.166,0.126l-18.828,-10.87c-0.092,-0.053 -0.166,-0.196 -0.166,-0.318l-0,-1.308Z" style="fill:#001a35;"/><path d="M46.116,122.5c-0,-0.123 0.074,-0.179 0.166,-0.126l18.828,10.87c0.091,0.053 0.166,0.196 0.166,0.318l0,1.308c0,0.122 -0.075,0.179 -0.166,0.126l-18.828,-10.87c-0.092,-0.054 -0.166,-0.196 -0.166,-0.319l-0,-1.307Z" style="fill:#001a35;"/><path d="M46.116,127.023c-0,-0.122 0.074,-0.179 0.166,-0.126l18.828,10.871c0.091,0.053 0.166,0.195 0.166,0.318l0,1.307c0,0.123 -0.075,0.179 -0.166,0.126l-18.828,-10.87c-0.092,-0.053 -0.166,-0.196 -0.166,-0.318l-0,-1.308Z" style="fill:#001a35;"/><path d="M90.482,156.724l-0,0c-0.01,0.006 0,0 0,0Zm0.031,-0.019c0.343,-0.218 0.559,-0.693 0.559,-1.36l0,-13.39c0,-1.254 -0.764,-2.714 -1.705,-3.257l-45.923,-26.514c-0.5,-0.289 -0.95,-0.261 -1.261,0.016c0.009,-0.008 0.018,-0.016 0.027,-0.023c0.311,-0.255 2.077,-1.542 2.385,-1.775c0.309,-0.234 0.735,-0.242 1.206,0.029l45.923,26.514c0.941,0.543 1.705,2.003 1.705,3.258l-0,13.39c-0,0.627 -0.191,1.085 -0.5,1.318c-0.054,0.042 -1.981,1.524 -2.416,1.794Z" style="fill:#e9e9e9;fill-opacity:0.5;"/><path d="M93.429,140.203l-2.357,1.752c0,-1.254 -0.764,-2.714 -1.705,-3.257l2.357,-1.753c0.941,0.543 1.705,2.003 1.705,3.258Z" style="fill:#e9e9e9;fill-opacity:0.5;"/><path d="M93.429,140.203l-2.357,1.752c0,-1.254 -0.566,-2.075 -0.994,-2.616l2.366,-1.754c0.404,0.573 0.985,1.363 0.985,2.618Z" style="fill:#e9e9e9;fill-opacity:0.5;"/><path d="M92.929,131.335c-0.055,0.042 -2.086,1.604 -2.447,1.813c-0.299,0.172 -0.689,0.156 -1.115,-0.09l-45.923,-26.514c-0.941,-0.543 -1.705,-2.003 -1.705,-3.258l-0,-13.39c-0,-0.608 0.179,-1.056 0.471,-1.296c0.311,-0.255 2.077,-1.542 2.385,-1.775c0.309,-0.233 0.735,-0.242 1.206,0.03l45.923,26.514c0.941,0.543 1.705,2.003 1.705,3.257l-0,13.39c-0,0.628 -0.191,1.085 -0.5,1.319Z" style="fill:#cecece;"/><path d="M41.739,89.896c-0,-1.255 0.764,-1.832 1.705,-1.289l45.923,26.514c0.941,0.543 1.705,2.003 1.705,3.258l0,13.39c0,1.254 -0.764,1.832 -1.705,1.289l-45.923,-26.514c-0.941,-0.543 -1.705,-2.003 -1.705,-3.258l-0,-13.39Z" style="fill:#cecece;"/><path d="M67.535,106.766c-0,-0.122 0.075,-0.179 0.166,-0.126l18.828,10.87c0.092,0.053 0.166,0.196 0.166,0.318l0,1.308c0,0.122 -0.074,0.179 -0.166,0.126l-18.828,-10.87c-0.091,-0.053 -0.166,-0.196 -0.166,-0.318l-0,-1.308Z" style="fill:#001a35;"/><path d="M67.535,111.29c-0,-0.123 0.075,-0.179 0.166,-0.126l18.828,10.87c0.092,0.053 0.166,0.195 0.166,0.318l0,1.307c0,0.123 -0.074,0.179 -0.166,0.126l-18.828,-10.87c-0.091,-0.053 -0.166,-0.195 -0.166,-0.318l-0,-1.307Z" style="fill:#001a35;"/><path d="M67.535,115.813c-0,-0.122 0.075,-0.179 0.166,-0.126l18.828,10.87c0.092,0.053 0.166,0.196 0.166,0.318l0,1.308c0,0.123 -0.074,0.179 -0.166,0.126l-18.828,-10.87c-0.091,-0.053 -0.166,-0.196 -0.166,-0.318l-0,-1.308Z" style="fill:#001a35;"/><path d="M46.116,94.4c-0,-0.123 0.074,-0.179 0.166,-0.126l18.828,10.87c0.091,0.053 0.166,0.195 0.166,0.318l0,1.308c0,0.122 -0.075,0.178 -0.166,0.125l-18.828,-10.87c-0.092,-0.053 -0.166,-0.195 -0.166,-0.318l-0,-1.307Z" style="fill:#001a35;"/><path d="M46.116,98.923c-0,-0.122 0.074,-0.179 0.166,-0.126l18.828,10.87c0.091,0.053 0.166,0.196 0.166,0.318l0,1.308c0,0.123 -0.075,0.179 -0.166,0.126l-18.828,-10.87c-0.092,-0.053 -0.166,-0.196 -0.166,-0.318l-0,-1.308Z" style="fill:#001a35;"/><path d="M46.116,103.447c-0,-0.123 0.074,-0.179 0.166,-0.126l18.828,10.87c0.091,0.053 0.166,0.195 0.166,0.318l0,1.308c0,0.122 -0.075,0.179 -0.166,0.125l-18.828,-10.87c-0.092,-0.053 -0.166,-0.195 -0.166,-0.318l-0,-1.307Z" style="fill:#001a35;"/><path d="M90.482,133.147l-0,0.001c-0.01,0.005 0,-0.001 0,-0.001Zm0.031,-0.019c0.343,-0.217 0.559,-0.693 0.559,-1.359l0,-13.39c0,-1.255 -0.764,-2.715 -1.705,-3.258l-45.923,-26.514c-0.5,-0.288 -0.95,-0.261 -1.261,0.016c0.009,-0.008 0.018,-0.015 0.027,-0.023c0.311,-0.255 2.077,-1.542 2.385,-1.775c0.309,-0.233 0.735,-0.242 1.206,0.03l45.923,26.514c0.941,0.543 1.705,2.003 1.705,3.257l-0,13.39c-0,0.628 -0.191,1.085 -0.5,1.319c-0.054,0.041 -1.981,1.524 -2.416,1.793Z" style="fill:#e9e9e9;fill-opacity:0.5;"/><path d="M93.429,116.626l-2.357,1.753c0,-1.255 -0.764,-2.715 -1.705,-3.258l2.357,-1.752c0.941,0.543 1.705,2.003 1.705,3.257Z" style="fill:#e9e9e9;fill-opacity:0.5;"/><path d="M93.429,116.626l-2.357,1.753c0,-1.255 -0.566,-2.076 -0.994,-2.617l2.366,-1.754c0.404,0.573 0.985,1.364 0.985,2.618Z" style="fill:#e9e9e9;fill-opacity:0.5;"/><path d="M92.929,131.335c-0.055,0.042 -2.086,1.604 -2.447,1.813c-0.299,0.172 -0.689,0.156 -1.115,-0.09l-45.923,-26.514c-0.941,-0.543 -1.705,-2.003 -1.705,-3.258l-0,-13.39c-0,-0.608 0.179,-1.056 0.471,-1.296c0.311,-0.255 2.077,-1.542 2.385,-1.775c0.309,-0.233 0.735,-0.242 1.206,0.03l45.923,26.514c0.941,0.543 1.705,2.003 1.705,3.257l-0,13.39c-0,0.628 -0.191,1.085 -0.5,1.319Z" style="fill:#cecece;"/><path d="M41.739,89.896c-0,-1.255 0.764,-1.832 1.705,-1.289l45.923,26.514c0.941,0.543 1.705,2.003 1.705,3.258l0,13.39c0,1.254 -0.764,1.832 -1.705,1.289l-45.923,-26.514c-0.941,-0.543 -1.705,-2.003 -1.705,-3.258l-0,-13.39Z" style="fill:#cecece;"/><path d="M67.535,106.766c-0,-0.122 0.075,-0.179 0.166,-0.126l18.828,10.87c0.092,0.053 0.166,0.196 0.166,0.318l0,1.308c0,0.122 -0.074,0.179 -0.166,0.126l-18.828,-10.87c-0.091,-0.053 -0.166,-0.196 -0.166,-0.318l-0,-1.308Z" style="fill:#001a35;"/><path d="M67.535,111.29c-0,-0.123 0.075,-0.179 0.166,-0.126l18.828,10.87c0.092,0.053 0.166,0.195 0.166,0.318l0,1.307c0,0.123 -0.074,0.179 -0.166,0.126l-18.828,-10.87c-0.091,-0.053 -0.166,-0.195 -0.166,-0.318l-0,-1.307Z" style="fill:#001a35;"/><path d="M67.535,115.813c-0,-0.122 0.075,-0.179 0.166,-0.126l18.828,10.87c0.092,0.053 0.166,0.196 0.166,0.318l0,1.308c0,0.123 -0.074,0.179 -0.166,0.126l-18.828,-10.87c-0.091,-0.053 -0.166,-0.196 -0.166,-0.318l-0,-1.308Z" style="fill:#001a35;"/><path d="M46.116,94.4c-0,-0.123 0.074,-0.179 0.166,-0.126l18.828,10.87c0.091,0.053 0.166,0.195 0.166,0.318l0,1.308c0,0.122 -0.075,0.178 -0.166,0.125l-18.828,-10.87c-0.092,-0.053 -0.166,-0.195 -0.166,-0.318l-0,-1.307Z" style="fill:#001a35;"/><path d="M46.116,98.923c-0,-0.122 0.074,-0.179 0.166,-0.126l18.828,10.87c0.091,0.053 0.166,0.196 0.166,0.318l0,1.308c0,0.123 -0.075,0.179 -0.166,0.126l-18.828,-10.87c-0.092,-0.053 -0.166,-0.196 -0.166,-0.318l-0,-1.308Z" style="fill:#001a35;"/><path d="M46.116,103.447c-0,-0.123 0.074,-0.179 0.166,-0.126l18.828,10.87c0.091,0.053 0.166,0.195 0.166,0.318l0,1.308c0,0.122 -0.075,0.179 -0.166,0.125l-18.828,-10.87c-0.092,-0.053 -0.166,-0.195 -0.166,-0.318l-0,-1.307Z" style="fill:#001a35;"/><path d="M90.482,133.147l-0,0.001c-0.01,0.005 0,-0.001 0,-0.001Zm0.031,-0.019c0.343,-0.217 0.559,-0.693 0.559,-1.359l0,-13.39c0,-1.255 -0.764,-2.715 -1.705,-3.258l-45.923,-26.514c-0.5,-0.288 -0.95,-0.261 -1.261,0.016c0.009,-0.008 0.018,-0.015 0.027,-0.023c0.311,-0.255 2.077,-1.542 2.385,-1.775c0.309,-0.233 0.735,-0.242 1.206,0.03l45.923,26.514c0.941,0.543 1.705,2.003 1.705,3.257l-0,13.39c-0,0.628 -0.191,1.085 -0.5,1.319c-0.054,0.041 -1.981,1.524 -2.416,1.793Z" style="fill:#e9e9e9;fill-opacity:0.5;"/><path d="M93.429,116.626l-2.357,1.753c0,-1.255 -0.764,-2.715 -1.705,-3.258l2.357,-1.752c0.941,0.543 1.705,2.003 1.705,3.257Z" style="fill:#e9e9e9;fill-opacity:0.5;"/><path d="M93.429,116.626l-2.357,1.753c0,-1.255 -0.566,-2.076 -0.994,-2.617l2.366,-1.754c0.404,0.573 0.985,1.364 0.985,2.618Z" style="fill:#e9e9e9;fill-opacity:0.5;"/><path d="M92.929,105.135c-0.055,0.042 -2.086,1.605 -2.447,1.813c-0.299,0.172 -0.689,0.156 -1.115,-0.09l-45.923,-26.514c-0.941,-0.543 -1.705,-2.003 -1.705,-3.257l-0,-13.39c-0,-0.608 0.179,-1.057 0.471,-1.297c0.311,-0.255 2.077,-1.541 2.385,-1.775c0.309,-0.233 0.735,-0.241 1.206,0.03l45.923,26.514c0.941,0.543 1.705,2.003 1.705,3.258l-0,13.39c-0,0.627 -0.191,1.085 -0.5,1.318Z" style="fill:#cecece;"/><path d="M41.739,63.697c-0,-1.255 0.764,-1.833 1.705,-1.289l45.923,26.513c0.941,0.544 1.705,2.003 1.705,3.258l0,13.39c0,1.255 -0.764,1.832 -1.705,1.289l-45.923,-26.514c-0.941,-0.543 -1.705,-2.003 -1.705,-3.257l-0,-13.39Z" style="fill:#cecece;"/><path d="M67.535,80.566c-0,-0.122 0.075,-0.178 0.166,-0.125l18.828,10.87c0.092,0.053 0.166,0.195 0.166,0.318l0,1.307c0,0.123 -0.074,0.179 -0.166,0.126l-18.828,-10.87c-0.091,-0.053 -0.166,-0.195 -0.166,-0.318l-0,-1.308Z" style="fill:#001a35;"/><path d="M67.535,85.09c-0,-0.122 0.075,-0.179 0.166,-0.126l18.828,10.87c0.092,0.053 0.166,0.196 0.166,0.318l0,1.308c0,0.122 -0.074,0.179 -0.166,0.126l-18.828,-10.87c-0.091,-0.053 -0.166,-0.196 -0.166,-0.318l-0,-1.308Z" style="fill:#001a35;"/><path d="M67.535,89.614c-0,-0.123 0.075,-0.179 0.166,-0.126l18.828,10.87c0.092,0.053 0.166,0.195 0.166,0.318l0,1.307c0,0.123 -0.074,0.179 -0.166,0.126l-18.828,-10.87c-0.091,-0.053 -0.166,-0.195 -0.166,-0.318l-0,-1.307Z" style="fill:#001a35;"/><path d="M46.116,68.2c-0,-0.122 0.074,-0.179 0.166,-0.126l18.828,10.87c0.091,0.053 0.166,0.196 0.166,0.318l0,1.308c0,0.122 -0.075,0.179 -0.166,0.126l-18.828,-10.87c-0.092,-0.053 -0.166,-0.196 -0.166,-0.318l-0,-1.308Z" style="fill:#001a35;"/><path d="M46.116,72.724c-0,-0.123 0.074,-0.179 0.166,-0.126l18.828,10.87c0.091,0.053 0.166,0.195 0.166,0.318l0,1.307c0,0.123 -0.075,0.179 -0.166,0.126l-18.828,-10.87c-0.092,-0.053 -0.166,-0.195 -0.166,-0.318l-0,-1.307Z" style="fill:#001a35;"/><path d="M46.116,77.247c-0,-0.122 0.074,-0.179 0.166,-0.126l18.828,10.87c0.091,0.053 0.166,0.196 0.166,0.318l0,1.308c0,0.123 -0.075,0.179 -0.166,0.126l-18.828,-10.87c-0.092,-0.053 -0.166,-0.196 -0.166,-0.318l-0,-1.308Z" style="fill:#001a35;"/><path d="M90.482,106.948l-0,0c-0.01,0.006 0,-0 0,-0Zm0.031,-0.019c0.343,-0.218 0.559,-0.693 0.559,-1.36l0,-13.39c0,-1.255 -0.764,-2.714 -1.705,-3.258l-45.923,-26.513c-0.5,-0.289 -0.95,-0.261 -1.261,0.016c0.009,-0.008 0.018,-0.016 0.027,-0.024c0.311,-0.255 2.077,-1.541 2.385,-1.775c0.309,-0.233 0.735,-0.241 1.206,0.03l45.923,26.514c0.941,0.543 1.705,2.003 1.705,3.258l-0,13.39c-0,0.627 -0.191,1.085 -0.5,1.318c-0.054,0.041 -1.981,1.524 -2.416,1.794Z" style="fill:#e9e9e9;fill-opacity:0.5;"/><path d="M93.429,90.427l-2.357,1.752c0,-1.255 -0.764,-2.714 -1.705,-3.258l2.357,-1.752c0.941,0.543 1.705,2.003 1.705,3.258Z" style="fill:#e9e9e9;fill-opacity:0.5;"/><path d="M93.429,90.427l-2.357,1.752c0,-1.255 -0.566,-2.076 -0.994,-2.617l2.366,-1.753c0.404,0.573 0.985,1.363 0.985,2.618Z" style="fill:#e9e9e9;fill-opacity:0.5;"/><path d="M92.929,105.135c-0.055,0.042 -2.086,1.605 -2.447,1.813c-0.299,0.172 -0.689,0.156 -1.115,-0.09l-45.923,-26.514c-0.941,-0.543 -1.705,-2.003 -1.705,-3.257l-0,-13.39c-0,-0.608 0.179,-1.057 0.471,-1.297c0.311,-0.255 2.077,-1.541 2.385,-1.775c0.309,-0.233 0.735,-0.241 1.206,0.03l45.923,26.514c0.941,0.543 1.705,2.003 1.705,3.258l-0,13.39c-0,0.627 -0.191,1.085 -0.5,1.318Z" style="fill:#cecece;"/><path d="M41.739,63.697c-0,-1.255 0.764,-1.833 1.705,-1.289l45.923,26.513c0.941,0.544 1.705,2.003 1.705,3.258l0,13.39c0,1.255 -0.764,1.832 -1.705,1.289l-45.923,-26.514c-0.941,-0.543 -1.705,-2.003 -1.705,-3.257l-0,-13.39Z" style="fill:#cecece;"/><path d="M67.535,80.566c-0,-0.122 0.075,-0.178 0.166,-0.125l18.828,10.87c0.092,0.053 0.166,0.195 0.166,0.318l0,1.307c0,0.123 -0.074,0.179 -0.166,0.126l-18.828,-10.87c-0.091,-0.053 -0.166,-0.195 -0.166,-0.318l-0,-1.308Z" style="fill:#001a35;"/><path d="M67.535,85.09c-0,-0.122 0.075,-0.179 0.166,-0.126l18.828,10.87c0.092,0.053 0.166,0.196 0.166,0.318l0,1.308c0,0.122 -0.074,0.179 -0.166,0.126l-18.828,-10.87c-0.091,-0.053 -0.166,-0.196 -0.166,-0.318l-0,-1.308Z" style="fill:#001a35;"/><path d="M67.535,89.614c-0,-0.123 0.075,-0.179 0.166,-0.126l18.828,10.87c0.092,0.053 0.166,0.195 0.166,0.318l0,1.307c0,0.123 -0.074,0.179 -0.166,0.126l-18.828,-10.87c-0.091,-0.053 -0.166,-0.195 -0.166,-0.318l-0,-1.307Z" style="fill:#001a35;"/><path d="M46.116,68.2c-0,-0.122 0.074,-0.179 0.166,-0.126l18.828,10.87c0.091,0.053 0.166,0.196 0.166,0.318l0,1.308c0,0.122 -0.075,0.179 -0.166,0.126l-18.828,-10.87c-0.092,-0.053 -0.166,-0.196 -0.166,-0.318l-0,-1.308Z" style="fill:#001a35;"/><path d="M46.116,72.724c-0,-0.123 0.074,-0.179 0.166,-0.126l18.828,10.87c0.091,0.053 0.166,0.195 0.166,0.318l0,1.307c0,0.123 -0.075,0.179 -0.166,0.126l-18.828,-10.87c-0.092,-0.053 -0.166,-0.195 -0.166,-0.318l-0,-1.307Z" style="fill:#001a35;"/><path d="M46.116,77.247c-0,-0.122 0.074,-0.179 0.166,-0.126l18.828,10.87c0.091,0.053 0.166,0.196 0.166,0.318l0,1.308c0,0.123 -0.075,0.179 -0.166,0.126l-18.828,-10.87c-0.092,-0.053 -0.166,-0.196 -0.166,-0.318l-0,-1.308Z" style="fill:#001a35;"/><path d="M90.482,106.948l-0,0c-0.01,0.006 0,-0 0,-0Zm0.031,-0.019c0.343,-0.218 0.559,-0.693 0.559,-1.36l0,-13.39c0,-1.255 -0.764,-2.714 -1.705,-3.258l-45.923,-26.513c-0.5,-0.289 -0.95,-0.261 -1.261,0.016c0.009,-0.008 0.018,-0.016 0.027,-0.024c0.311,-0.255 2.077,-1.541 2.385,-1.775c0.309,-0.233 0.735,-0.241 1.206,0.03l45.923,26.514c0.941,0.543 1.705,2.003 1.705,3.258l-0,13.39c-0,0.627 -0.191,1.085 -0.5,1.318c-0.054,0.041 -1.981,1.524 -2.416,1.794Z" style="fill:#e9e9e9;fill-opacity:0.5;"/><path d="M93.429,90.427l-2.357,1.752c0,-1.255 -0.764,-2.714 -1.705,-3.258l2.357,-1.752c0.941,0.543 1.705,2.003 1.705,3.258Z" style="fill:#e9e9e9;fill-opacity:0.5;"/><path d="M93.429,90.427l-2.357,1.752c0,-1.255 -0.566,-2.076 -0.994,-2.617l2.366,-1.753c0.404,0.573 0.985,1.363 0.985,2.618Z" style="fill:#e9e9e9;fill-opacity:0.5;"/><path d="M108.986,178.072c0.054,0.041 2.028,1.56 2.379,1.763c0.291,0.167 0.67,0.151 1.084,-0.088l44.648,-25.777c0.915,-0.529 1.657,-1.948 1.657,-3.168l0,-13.018c0,-0.591 -0.174,-1.027 -0.457,-1.26c-0.302,-0.248 -2.019,-1.499 -2.319,-1.726c-0.301,-0.227 -0.715,-0.235 -1.172,0.029l-44.648,25.778c-0.915,0.528 -1.658,1.947 -1.658,3.167l0,13.018c0,0.61 0.186,1.055 0.486,1.282Z" style="fill:#cecece;"/><path d="M158.754,137.784c0,-1.22 -0.742,-1.781 -1.657,-1.253l-44.648,25.777c-0.915,0.529 -1.658,1.948 -1.658,3.168l0,13.018c0,1.22 0.743,1.781 1.658,1.253l44.648,-25.777c0.915,-0.529 1.657,-1.948 1.657,-3.168l0,-13.018Z" style="fill:#cecece;"/><path d="M120.675,166.278c0,-1.711 -1.042,-2.499 -2.326,-1.758l-0.3,0.174c-1.284,0.741 -2.326,2.732 -2.326,4.444c-0,1.711 1.042,2.499 2.326,1.758l0.3,-0.174c1.284,-0.741 2.326,-2.732 2.326,-4.444Z" style="fill:#001a35;"/><path d="M118.364,163.737l0.023,-0.014c1.604,-0.926 2.907,0.059 2.907,2.198c-0,2.139 -1.303,4.628 -2.907,5.555l-0.023,0.013l0.023,0.087l-0.023,-0.087l-0.353,0.204l-0.023,0.013l0.023,0.087l-0.023,-0.087c-1.594,0.904 -2.884,-0.082 -2.884,-2.211c0,-2.129 1.29,-4.605 2.884,-5.541l-0.027,-0.1c-1.63,0.941 -2.957,3.467 -2.957,5.641c0,1.109 0.346,1.916 0.892,2.328c0.554,0.419 1.32,0.444 2.165,-0.044l-0.001,0.001l0.377,-0.218c-0,0 -0.05,0.014 -0.05,0.014l0.05,-0.014c1.63,-0.941 2.957,-3.467 2.957,-5.641c-0,-1.109 -0.346,-1.916 -0.892,-2.328c-0.554,-0.419 -1.32,-0.444 -2.165,0.044l0.027,0.1Zm-0,-0l-0.027,-0.1l-0.376,0.217l0.027,0.1l0.023,-0.014l0.353,-0.203Z" style="fill:#001a35;"/><path d="M119.853,166.753c0,-1.144 -0.696,-1.67 -1.554,-1.175l-0.2,0.116c-0.858,0.495 -1.554,1.826 -1.554,2.969c-0,1.144 0.696,1.67 1.554,1.175l0.2,-0.116c0.858,-0.495 1.554,-1.826 1.554,-2.969Z" style="fill:#25bcb4;"/><path d="M120.412,166.838c-0.319,-0.999 -0.767,-1.151 -1.096,-1.341c-0.273,-0.158 -0.628,-0.143 -1.017,0.081l-0.2,0.116c-0.858,0.495 -1.554,1.826 -1.554,2.969c-0,0.626 0.208,1.067 0.538,1.257c0.272,0.157 0.952,0.334 1.637,0.15c1.313,-0.35 2.213,-1.6 1.692,-3.232Z" style="fill:#25bcb4;"/><path d="M120.549,168.016c-0.414,0.593 -1.049,1.018 -1.787,1.215c-0.857,0.229 -1.706,0.008 -2.046,-0.188c-0.056,-0.032 -0.108,-0.069 -0.158,-0.112c0.052,0.484 0.245,0.827 0.525,0.989c0.272,0.157 0.952,0.334 1.637,0.15c0.975,-0.26 1.721,-1.015 1.829,-2.054Z" style="fill:#e9e9e9;fill-opacity:0.21;"/><path d="M155.587,145.256c-0,-0.85 -0.518,-1.241 -1.155,-0.873l-30.271,17.477c-0.637,0.368 -1.154,1.356 -1.154,2.206l-0,1.733c-0,0.849 0.517,1.241 1.154,0.873l30.271,-17.477c0.637,-0.368 1.155,-1.357 1.155,-2.207l-0,-1.732Z" style="fill:#001a35;"/><path d="M151.423,146.12l3.802,2.196c0.223,-0.41 0.362,-0.887 0.362,-1.328l-0,-1.732c-0,-0.85 -0.518,-1.241 -1.155,-0.873l-3.009,1.737Z" style="fill:#e8e8e8;fill-opacity:0.12;"/><path d="M111.365,179.834l0,0.001c0.01,0.005 -0,-0.001 -0,-0.001Zm-0.03,-0.018c-0.334,-0.212 -0.544,-0.674 -0.544,-1.322l0,-13.018c0,-1.22 0.743,-2.639 1.658,-3.168l44.648,-25.777c0.486,-0.28 0.923,-0.254 1.226,0.016c-0.009,-0.008 -0.017,-0.016 -0.026,-0.023c-0.302,-0.248 -2.019,-1.499 -2.319,-1.726c-0.301,-0.227 -0.715,-0.235 -1.172,0.029l-44.648,25.778c-0.915,0.528 -1.658,1.947 -1.658,3.167l0,13.018c0,0.61 0.186,1.055 0.486,1.282c0.052,0.04 1.926,1.482 2.349,1.744Z" style="fill:#e9e9e9;fill-opacity:0.5;"/><path d="M108.5,163.772l2.291,1.704c0,-1.22 0.743,-2.639 1.658,-3.168l-2.291,-1.703c-0.915,0.528 -1.658,1.947 -1.658,3.167Z" style="fill:#e9e9e9;fill-opacity:0.5;"/><path d="M108.5,163.772l2.291,1.704c0,-1.22 0.551,-2.018 0.967,-2.544l-2.3,-1.705c-0.393,0.557 -0.958,1.325 -0.958,2.545Z" style="fill:#e9e9e9;fill-opacity:0.5;"/><path d="M109.569,139.419c0.053,0.039 1.972,1.516 2.314,1.713c0.283,0.163 0.651,0.147 1.054,-0.085l43.408,-25.062c0.889,-0.513 1.611,-1.893 1.611,-3.079l0,-12.657c0,-0.574 -0.169,-0.999 -0.445,-1.225c-0.293,-0.241 -1.963,-1.457 -2.254,-1.678c-0.292,-0.22 -0.695,-0.228 -1.14,0.028l-43.408,25.062c-0.889,0.514 -1.612,1.893 -1.612,3.079l0,12.657c0,0.593 0.181,1.026 0.472,1.247Z" style="fill:#cecece;"/><path d="M157.956,100.249c0,-1.186 -0.722,-1.732 -1.611,-1.218l-43.408,25.062c-0.89,0.513 -1.612,1.893 -1.612,3.079l-0,12.657c-0,1.186 0.722,1.732 1.612,1.218l43.408,-25.062c0.889,-0.513 1.611,-1.893 1.611,-3.079l0,-12.657Z" style="fill:#cecece;"/><path d="M111.883,141.132l0,0c0.009,0.005 -0,-0 -0,-0Zm-0.03,-0.018c-0.324,-0.206 -0.528,-0.655 -0.528,-1.285l-0,-12.657c-0,-1.186 0.722,-2.566 1.612,-3.079l43.408,-25.062c0.472,-0.273 0.897,-0.247 1.192,0.015c-0.008,-0.007 -0.017,-0.015 -0.026,-0.022c-0.293,-0.241 -1.963,-1.457 -2.254,-1.678c-0.292,-0.22 -0.695,-0.228 -1.14,0.028l-43.408,25.062c-0.889,0.514 -1.612,1.893 -1.612,3.079l0,12.657c0,0.593 0.181,1.026 0.472,1.247c0.052,0.038 1.873,1.44 2.284,1.695Z" style="fill:#e9e9e9;fill-opacity:0.5;"/><path d="M109.097,125.515l2.228,1.657c-0,-1.186 0.722,-2.566 1.612,-3.079l-2.228,-1.657c-0.889,0.514 -1.612,1.893 -1.612,3.079Z" style="fill:#e9e9e9;fill-opacity:0.5;"/><path d="M109.097,125.515l2.228,1.657c-0,-1.186 0.535,-1.962 0.94,-2.474l-2.237,-1.657c-0.381,0.541 -0.931,1.288 -0.931,2.474Z" style="fill:#e9e9e9;fill-opacity:0.5;"/><path d="M109.569,132.077c0.053,0.04 1.972,1.517 2.314,1.714c0.283,0.163 0.651,0.147 1.054,-0.085l43.408,-25.062c0.889,-0.514 1.611,-1.893 1.611,-3.079l0,-12.657c0,-0.575 -0.169,-0.999 -0.445,-1.225c-0.293,-0.241 -1.963,-1.458 -2.254,-1.678c-0.292,-0.221 -0.695,-0.229 -1.14,0.028l-43.408,25.062c-0.889,0.513 -1.612,1.893 -1.612,3.079l0,12.657c0,0.593 0.181,1.026 0.472,1.246Z" style="fill:#cecece;"/><path d="M157.956,92.908c0,-1.186 -0.722,-1.732 -1.611,-1.218l-43.408,25.061c-0.89,0.514 -1.612,1.894 -1.612,3.079l-0,12.657c-0,1.186 0.722,1.732 1.612,1.219l43.408,-25.062c0.889,-0.514 1.611,-1.893 1.611,-3.079l0,-12.657Z" style="fill:#cecece;"/><path d="M111.883,133.79l0,0.001c0.009,0.005 -0,-0.001 -0,-0.001Zm-0.03,-0.017c-0.324,-0.206 -0.528,-0.656 -0.528,-1.286l-0,-12.657c-0,-1.185 0.722,-2.565 1.612,-3.079l43.408,-25.061c0.472,-0.273 0.897,-0.247 1.192,0.015c-0.008,-0.008 -0.017,-0.015 -0.026,-0.022c-0.293,-0.241 -1.963,-1.458 -2.254,-1.678c-0.292,-0.221 -0.695,-0.229 -1.14,0.028l-43.408,25.062c-0.889,0.513 -1.612,1.893 -1.612,3.079l0,12.657c0,0.593 0.181,1.026 0.472,1.246c0.052,0.039 1.873,1.44 2.284,1.696Z" style="fill:#e9e9e9;fill-opacity:0.5;"/><path d="M109.097,118.174l2.228,1.656c-0,-1.185 0.722,-2.565 1.612,-3.079l-2.228,-1.656c-0.889,0.513 -1.612,1.893 -1.612,3.079Z" style="fill:#e9e9e9;fill-opacity:0.5;"/><path d="M109.097,118.174l2.228,1.656c-0,-1.185 0.535,-1.961 0.94,-2.473l-2.237,-1.657c-0.381,0.541 -0.931,1.288 -0.931,2.474Z" style="fill:#e9e9e9;fill-opacity:0.5;"/><path d="M109.569,119.046c0.053,0.04 1.972,1.517 2.314,1.714c0.283,0.162 0.651,0.147 1.054,-0.085l43.408,-25.062c0.889,-0.514 1.611,-1.893 1.611,-3.079l0,-12.657c0,-0.575 -0.169,-0.999 -0.445,-1.225c-0.293,-0.242 -1.963,-1.458 -2.254,-1.678c-0.292,-0.221 -0.695,-0.229 -1.14,0.028l-43.408,25.062c-0.889,0.513 -1.612,1.893 -1.612,3.079l0,12.657c0,0.593 0.181,1.025 0.472,1.246Z" style="fill:#cecece;"/><path d="M157.956,79.877c0,-1.186 -0.722,-1.732 -1.611,-1.219l-43.408,25.062c-0.89,0.514 -1.612,1.893 -1.612,3.079l-0,12.657c-0,1.186 0.722,1.732 1.612,1.219l43.408,-25.062c0.889,-0.514 1.611,-1.893 1.611,-3.079l0,-12.657Z" style="fill:#cecece;"/><path d="M111.883,120.759l0,0.001c0.009,0.005 -0,-0.001 -0,-0.001Zm-0.03,-0.018c-0.324,-0.205 -0.528,-0.655 -0.528,-1.285l-0,-12.657c-0,-1.186 0.722,-2.565 1.612,-3.079l43.408,-25.062c0.472,-0.272 0.897,-0.246 1.192,0.016c-0.008,-0.008 -0.017,-0.015 -0.026,-0.022c-0.293,-0.242 -1.963,-1.458 -2.254,-1.678c-0.292,-0.221 -0.695,-0.229 -1.14,0.028l-43.408,25.062c-0.889,0.513 -1.612,1.893 -1.612,3.079l0,12.657c0,0.593 0.181,1.025 0.472,1.246c0.052,0.039 1.873,1.44 2.284,1.695Z" style="fill:#e9e9e9;fill-opacity:0.5;"/><path d="M109.097,105.143l2.228,1.656c-0,-1.186 0.722,-2.565 1.612,-3.079l-2.228,-1.656c-0.889,0.513 -1.612,1.893 -1.612,3.079Z" style="fill:#e9e9e9;fill-opacity:0.5;"/><path d="M109.097,105.143l2.228,1.656c-0,-1.186 0.535,-1.962 0.94,-2.473l-2.237,-1.658c-0.381,0.542 -0.931,1.289 -0.931,2.475Z" style="fill:#e9e9e9;fill-opacity:0.5;"/><path d="M109.569,106.581c0.053,0.04 1.972,1.516 2.314,1.713c0.283,0.163 0.651,0.148 1.054,-0.085l43.408,-25.062c0.889,-0.513 1.611,-1.893 1.611,-3.079l0,-12.657c0,-0.574 -0.169,-0.998 -0.445,-1.225c-0.293,-0.241 -1.963,-1.457 -2.254,-1.677c-0.292,-0.221 -0.695,-0.229 -1.14,0.028l-43.408,25.061c-0.889,0.514 -1.612,1.894 -1.612,3.08l0,12.656c0,0.593 0.181,1.026 0.472,1.247Z" style="fill:#cecece;"/><path d="M157.956,67.411c0,-1.186 -0.722,-1.731 -1.611,-1.218l-43.408,25.062c-0.89,0.513 -1.612,1.893 -1.612,3.079l-0,12.657c-0,1.186 0.722,1.732 1.612,1.218l43.408,-25.062c0.889,-0.513 1.611,-1.893 1.611,-3.079l0,-12.657Z" style="fill:#cecece;"/><path d="M111.883,108.294l0,0c0.009,0.006 -0,0 -0,0Zm-0.03,-0.018c-0.324,-0.206 -0.528,-0.655 -0.528,-1.285l-0,-12.657c-0,-1.186 0.722,-2.566 1.612,-3.079l43.408,-25.062c0.472,-0.273 0.897,-0.247 1.192,0.015c-0.008,-0.007 -0.017,-0.015 -0.026,-0.022c-0.293,-0.241 -1.963,-1.457 -2.254,-1.677c-0.292,-0.221 -0.695,-0.229 -1.14,0.028l-43.408,25.061c-0.889,0.514 -1.612,1.894 -1.612,3.08l0,12.656c0,0.593 0.181,1.026 0.472,1.247c0.052,0.039 1.873,1.44 2.284,1.695Z" style="fill:#e9e9e9;fill-opacity:0.5;"/><path d="M109.097,92.678l2.228,1.656c-0,-1.186 0.722,-2.566 1.612,-3.079l-2.228,-1.657c-0.889,0.514 -1.612,1.894 -1.612,3.08Z" style="fill:#e9e9e9;fill-opacity:0.5;"/><path d="M109.097,92.678l2.228,1.656c-0,-1.186 0.535,-1.962 0.94,-2.473l-2.237,-1.658c-0.381,0.542 -0.931,1.289 -0.931,2.475Z" style="fill:#e9e9e9;fill-opacity:0.5;"/><path d="M152.603,86.416c0.106,-0.061 0.237,-0.061 0.343,-0c0.106,0.061 0.172,0.174 0.172,0.297c-0,0.296 -0,0.595 -0,0.61c-0,0 -0.001,0.001 -0.001,0.001c-0.043,0.025 -2.825,1.631 -4,2.309c-0.106,0.061 -0.237,0.061 -0.343,0c-0.106,-0.061 -0.171,-0.174 -0.171,-0.297c-0,-0.224 -0,-0.45 -0,-0.553c-0,-0.035 0.019,-0.068 0.05,-0.086c0.382,-0.221 2.859,-1.651 3.95,-2.281Z" style="fill:#001b35;"/><path d="M146.107,90.167c0.106,-0.062 0.237,-0.062 0.343,-0c0.106,0.061 0.171,0.174 0.171,0.297c0,0.296 0,0.595 0,0.61c0,-0 0,0 -0,0c-0.043,0.025 -2.825,1.632 -4,2.31c-0.106,0.061 -0.237,0.061 -0.343,-0c-0.106,-0.061 -0.172,-0.175 -0.172,-0.297c0,-0.224 0,-0.45 0,-0.553c0,-0.036 0.019,-0.069 0.05,-0.086c0.383,-0.221 2.86,-1.651 3.951,-2.281Z" style="fill:#001b35;"/><path d="M139.61,93.917c0.106,-0.061 0.237,-0.061 0.343,0c0.106,0.062 0.172,0.175 0.172,0.297c-0,0.297 -0,0.596 -0,0.61c-0,0.001 -0,0.001 -0.001,0.001c-0.043,0.025 -2.825,1.631 -4,2.31c-0.106,0.061 -0.237,0.061 -0.343,-0c-0.106,-0.062 -0.171,-0.175 -0.171,-0.298c-0,-0.224 -0,-0.449 -0,-0.552c-0,-0.036 0.019,-0.069 0.05,-0.087c0.382,-0.221 2.859,-1.651 3.95,-2.281Z" style="fill:#001b35;"/><path d="M133.114,97.668c0.106,-0.061 0.237,-0.061 0.343,0c0.106,0.061 0.171,0.175 0.171,0.297c0,0.296 0,0.595 0,0.61c0,0 0,0.001 -0,0.001c-0.043,0.025 -2.825,1.631 -4,2.309c-0.106,0.062 -0.237,0.062 -0.343,0c-0.106,-0.061 -0.172,-0.174 -0.172,-0.297c0,-0.224 0,-0.449 0,-0.552c0,-0.036 0.019,-0.069 0.05,-0.087c0.383,-0.221 2.86,-1.651 3.951,-2.281Z" style="fill:#001b35;"/><path d="M126.617,101.419c0.107,-0.061 0.237,-0.061 0.343,-0c0.107,0.061 0.172,0.174 0.172,0.297c-0,0.296 -0,0.595 -0,0.61c-0,0 -0,0 -0.001,0.001c-0.043,0.024 -2.825,1.631 -4,2.309c-0.106,0.061 -0.236,0.061 -0.343,-0c-0.106,-0.061 -0.171,-0.175 -0.171,-0.297c-0,-0.224 -0,-0.45 -0,-0.553c-0,-0.035 0.019,-0.068 0.05,-0.086c0.382,-0.221 2.86,-1.651 3.95,-2.281Z" style="fill:#001b35;"/><path d="M120.121,105.17c0.106,-0.062 0.237,-0.062 0.343,-0c0.106,0.061 0.171,0.174 0.171,0.297c0,0.296 0,0.595 0,0.609c0,0.001 0,0.001 -0,0.001c-0.043,0.025 -2.825,1.631 -4,2.31c-0.106,0.061 -0.237,0.061 -0.343,-0c-0.106,-0.062 -0.171,-0.175 -0.171,-0.297c-0,-0.224 -0,-0.45 -0,-0.553c-0,-0.036 0.019,-0.069 0.05,-0.087c0.382,-0.22 2.859,-1.651 3.95,-2.28Z" style="fill:#001b35;"/><path d="M148.054,86.253c0.106,-0.061 0.237,-0.061 0.343,-0c0.106,0.061 0.171,0.174 0.171,0.297c0,0.296 0,0.595 0,0.61c0,0 0,0.001 -0,0.001c-0.023,0.013 -0.839,0.484 -1.398,0.807c-0.106,0.061 -0.237,0.061 -0.343,-0c-0.106,-0.062 -0.171,-0.175 -0.171,-0.297c-0,-0.224 -0,-0.45 -0,-0.553c-0,-0.036 0.019,-0.069 0.05,-0.087c0.187,-0.108 0.864,-0.499 1.348,-0.778Z" style="fill:#001b35;"/><path d="M141.557,90.004c0.107,-0.062 0.237,-0.062 0.343,-0c0.107,0.061 0.172,0.174 0.172,0.297c-0,0.296 -0,0.595 -0,0.61c-0,-0 -0,0 -0.001,0c-0.023,0.014 -0.839,0.485 -1.397,0.807c-0.106,0.062 -0.237,0.062 -0.343,0c-0.107,-0.061 -0.172,-0.174 -0.172,-0.297c0,-0.224 0,-0.449 0,-0.552c0,-0.036 0.019,-0.069 0.05,-0.087c0.188,-0.108 0.865,-0.499 1.348,-0.778Z" style="fill:#001b35;"/><path d="M135.061,93.754c0.106,-0.061 0.237,-0.061 0.343,0c0.106,0.062 0.172,0.175 0.172,0.297c-0,0.297 -0,0.596 -0,0.61c-0,0.001 -0.001,0.001 -0.001,0.001c-0.023,0.014 -0.839,0.485 -1.398,0.807c-0.106,0.061 -0.237,0.061 -0.343,0c-0.106,-0.061 -0.171,-0.174 -0.171,-0.297c-0,-0.224 -0,-0.45 -0,-0.553c-0,-0.035 0.019,-0.068 0.05,-0.086c0.187,-0.109 0.864,-0.499 1.348,-0.779Z" style="fill:#001b35;"/><path d="M128.565,97.505c0.106,-0.061 0.236,-0.061 0.343,0c0.106,0.061 0.171,0.175 0.171,0.297c0,0.296 0,0.595 0,0.61c0,0 -0,0.001 -0,0.001c-0.024,0.013 -0.84,0.484 -1.398,0.807c-0.106,0.061 -0.237,0.061 -0.343,-0c-0.106,-0.061 -0.172,-0.175 -0.172,-0.297c0,-0.224 0,-0.45 0,-0.553c0,-0.036 0.019,-0.069 0.05,-0.086c0.188,-0.109 0.865,-0.5 1.349,-0.779Z" style="fill:#001b35;"/><path d="M122.068,101.256c0.106,-0.061 0.237,-0.061 0.343,-0c0.106,0.061 0.172,0.174 0.172,0.297c-0,0.296 -0,0.595 -0,0.61c-0,0 -0.001,0 -0.001,0.001c-0.023,0.013 -0.839,0.484 -1.398,0.807c-0.106,0.061 -0.237,0.061 -0.343,-0c-0.106,-0.062 -0.171,-0.175 -0.171,-0.297c-0,-0.225 -0,-0.45 -0,-0.553c-0,-0.036 0.019,-0.069 0.05,-0.087c0.188,-0.108 0.864,-0.499 1.348,-0.778Z" style="fill:#001b35;"/><path d="M115.572,105.007c0.106,-0.062 0.237,-0.062 0.343,-0c0.106,0.061 0.171,0.174 0.171,0.297c0,0.296 0,0.595 0,0.609c0,0.001 -0,0.001 -0,0.001c-0.023,0.014 -0.84,0.485 -1.398,0.807c-0.106,0.062 -0.237,0.062 -0.343,0c-0.106,-0.061 -0.172,-0.174 -0.172,-0.297c0,-0.224 0,-0.449 0,-0.552c0,-0.036 0.019,-0.069 0.05,-0.087c0.188,-0.108 0.865,-0.499 1.349,-0.778Z" style="fill:#001b35;"/><path d="M152.568,80.846c0.106,-0.061 0.237,-0.061 0.343,0c0.106,0.061 0.172,0.175 0.172,0.297c-0,0.296 -0,0.595 -0,0.61c-0,0 -0,0.001 -0.001,0.001c-0.043,0.025 -2.825,1.631 -4,2.309c-0.106,0.062 -0.237,0.062 -0.343,0c-0.106,-0.061 -0.171,-0.174 -0.171,-0.297c-0,-0.224 -0,-0.449 -0,-0.552c-0,-0.036 0.019,-0.069 0.05,-0.087c0.382,-0.221 2.859,-1.651 3.95,-2.281Z" style="fill:#001b35;"/><path d="M146.072,84.597c0.106,-0.061 0.237,-0.061 0.343,-0c0.106,0.061 0.171,0.174 0.171,0.297c0,0.296 0,0.595 0,0.61c0,0 0,0 -0,0.001c-0.043,0.024 -2.825,1.631 -4,2.309c-0.106,0.061 -0.237,0.061 -0.343,0c-0.106,-0.061 -0.172,-0.174 -0.172,-0.297c0,-0.224 0,-0.45 0,-0.553c0,-0.035 0.019,-0.068 0.05,-0.086c0.383,-0.221 2.86,-1.651 3.951,-2.281Z" style="fill:#001b35;"/><path d="M139.575,88.348c0.107,-0.062 0.237,-0.062 0.343,-0c0.107,0.061 0.172,0.174 0.172,0.297c-0,0.296 -0,0.595 -0,0.61c-0,-0 -0,0 -0.001,0c-0.042,0.025 -2.825,1.631 -4,2.31c-0.106,0.061 -0.236,0.061 -0.343,-0c-0.106,-0.062 -0.171,-0.175 -0.171,-0.297c-0,-0.224 -0,-0.45 -0,-0.553c-0,-0.036 0.019,-0.069 0.05,-0.087c0.382,-0.22 2.86,-1.651 3.95,-2.28Z" style="fill:#001b35;"/><path d="M133.079,92.098c0.106,-0.061 0.237,-0.061 0.343,0c0.106,0.062 0.172,0.175 0.172,0.297c-0,0.297 -0,0.596 -0,0.61c-0,0.001 -0.001,0.001 -0.001,0.001c-0.043,0.025 -2.825,1.631 -4,2.309c-0.106,0.062 -0.237,0.062 -0.343,0c-0.106,-0.061 -0.171,-0.174 -0.171,-0.297c-0,-0.224 -0,-0.449 -0,-0.552c-0,-0.036 0.019,-0.069 0.05,-0.087c0.382,-0.221 2.859,-1.651 3.95,-2.281Z" style="fill:#001b35;"/><path d="M126.583,95.849c0.106,-0.061 0.236,-0.061 0.343,0c0.106,0.061 0.171,0.175 0.171,0.297c0,0.296 0,0.595 0,0.61c0,0 -0,0.001 -0,0.001c-0.043,0.025 -2.826,1.631 -4,2.309c-0.107,0.061 -0.237,0.061 -0.343,0c-0.107,-0.061 -0.172,-0.174 -0.172,-0.297c0,-0.224 0,-0.45 0,-0.553c0,-0.035 0.019,-0.068 0.05,-0.086c0.383,-0.221 2.86,-1.651 3.951,-2.281Z" style="fill:#001b35;"/><path d="M120.086,99.6c0.106,-0.062 0.237,-0.061 0.343,-0c0.106,0.061 0.172,0.174 0.172,0.297c-0,0.296 -0,0.595 -0,0.61c-0,0 -0.001,0 -0.001,0.001c-0.043,0.024 -2.825,1.631 -4,2.309c-0.106,0.061 -0.237,0.061 -0.343,-0c-0.106,-0.061 -0.171,-0.175 -0.171,-0.297c-0,-0.224 -0,-0.45 -0,-0.553c-0,-0.036 0.019,-0.069 0.05,-0.086c0.382,-0.221 2.859,-1.651 3.95,-2.281Z" style="fill:#001b35;"/><path d="M148.019,80.683c0.106,-0.061 0.237,-0.061 0.343,0c0.106,0.061 0.172,0.175 0.172,0.297c-0,0.296 -0,0.595 -0,0.61c-0,0 -0.001,0.001 -0.001,0.001c-0.023,0.013 -0.839,0.484 -1.398,0.807c-0.106,0.061 -0.237,0.061 -0.343,-0c-0.106,-0.061 -0.171,-0.175 -0.171,-0.297c-0,-0.224 -0,-0.45 -0,-0.553c-0,-0.036 0.019,-0.069 0.05,-0.086c0.187,-0.109 0.864,-0.5 1.348,-0.779Z" style="fill:#001b35;"/><path d="M141.523,84.434c0.106,-0.061 0.236,-0.061 0.343,-0c0.106,0.061 0.171,0.174 0.171,0.297c0,0.296 0,0.595 0,0.61c0,0 -0,0 -0,0.001c-0.024,0.013 -0.84,0.484 -1.398,0.807c-0.106,0.061 -0.237,0.061 -0.343,-0c-0.106,-0.062 -0.172,-0.175 -0.172,-0.297c0,-0.225 0,-0.45 0,-0.553c0,-0.036 0.019,-0.069 0.05,-0.087c0.188,-0.108 0.865,-0.499 1.349,-0.778Z" style="fill:#001b35;"/><path d="M135.026,88.185c0.106,-0.062 0.237,-0.062 0.343,-0c0.106,0.061 0.172,0.174 0.172,0.297c-0,0.296 -0,0.595 -0,0.609c-0,0.001 -0.001,0.001 -0.001,0.001c-0.023,0.014 -0.839,0.485 -1.398,0.807c-0.106,0.062 -0.237,0.062 -0.343,0c-0.106,-0.061 -0.171,-0.174 -0.171,-0.297c-0,-0.224 -0,-0.449 -0,-0.552c-0,-0.036 0.019,-0.069 0.05,-0.087c0.188,-0.108 0.865,-0.499 1.348,-0.778Z" style="fill:#001b35;"/><path d="M128.53,91.935c0.106,-0.061 0.237,-0.061 0.343,0c0.106,0.062 0.171,0.175 0.171,0.297c0,0.297 0,0.596 0,0.61c0,0.001 0,0.001 -0,0.001c-0.023,0.013 -0.84,0.485 -1.398,0.807c-0.106,0.061 -0.237,0.061 -0.343,0c-0.106,-0.061 -0.172,-0.174 -0.172,-0.297c0,-0.224 0,-0.45 0,-0.553c0,-0.035 0.019,-0.068 0.05,-0.086c0.188,-0.109 0.865,-0.499 1.349,-0.779Z" style="fill:#001b35;"/><path d="M122.033,95.686c0.106,-0.061 0.237,-0.061 0.343,0c0.106,0.061 0.172,0.175 0.172,0.297c-0,0.296 -0,0.595 -0,0.61c-0,0 -0,0.001 -0.001,0.001c-0.023,0.013 -0.839,0.484 -1.398,0.807c-0.106,0.061 -0.236,0.061 -0.343,-0c-0.106,-0.061 -0.171,-0.175 -0.171,-0.297c-0,-0.224 -0,-0.45 -0,-0.553c-0,-0.036 0.019,-0.069 0.05,-0.087c0.188,-0.108 0.865,-0.499 1.348,-0.778Z" style="fill:#001b35;"/><path d="M115.537,99.437c0.106,-0.062 0.237,-0.062 0.343,-0c0.106,0.061 0.171,0.174 0.171,0.297c0,0.296 0,0.595 0,0.61c0,0 0,0 -0,0.001c-0.023,0.013 -0.839,0.484 -1.398,0.807c-0.106,0.061 -0.237,0.061 -0.343,-0c-0.106,-0.062 -0.171,-0.175 -0.171,-0.298c-0,-0.224 -0,-0.449 -0,-0.552c-0,-0.036 0.019,-0.069 0.05,-0.087c0.187,-0.108 0.864,-0.499 1.348,-0.778Z" style="fill:#001b35;"/><path d="M152.647,75.046c0.106,-0.062 0.237,-0.062 0.343,-0c0.106,0.061 0.171,0.174 0.171,0.297c0,0.296 0,0.595 0,0.61c0,-0 0,0 -0,0c-0.043,0.025 -2.825,1.632 -4,2.31c-0.106,0.061 -0.237,0.061 -0.343,-0c-0.106,-0.061 -0.172,-0.175 -0.172,-0.297c0,-0.224 0,-0.45 0,-0.553c0,-0.036 0.02,-0.069 0.05,-0.087c0.383,-0.22 2.86,-1.65 3.951,-2.28Z" style="fill:#001b35;"/><path d="M146.151,78.796c0.106,-0.061 0.236,-0.061 0.343,0c0.106,0.062 0.171,0.175 0.171,0.297c0,0.297 0,0.596 0,0.61c0,0.001 -0,0.001 -0,0.001c-0.043,0.025 -2.826,1.631 -4,2.31c-0.107,0.061 -0.237,0.061 -0.343,-0c-0.107,-0.062 -0.172,-0.175 -0.172,-0.298c0,-0.224 0,-0.449 0,-0.552c0,-0.036 0.019,-0.069 0.05,-0.087c0.383,-0.221 2.86,-1.651 3.951,-2.281Z" style="fill:#001b35;"/><path d="M139.654,82.547c0.106,-0.061 0.237,-0.061 0.343,0c0.106,0.061 0.172,0.175 0.172,0.297c-0,0.296 -0,0.595 -0,0.61c-0,0 -0.001,0.001 -0.001,0.001c-0.043,0.025 -2.825,1.631 -4,2.309c-0.106,0.062 -0.237,0.062 -0.343,0c-0.106,-0.061 -0.171,-0.174 -0.171,-0.297c-0,-0.224 -0,-0.45 -0,-0.552c-0,-0.036 0.019,-0.069 0.05,-0.087c0.382,-0.221 2.859,-1.651 3.95,-2.281Z" style="fill:#001b35;"/><path d="M133.158,86.298c0.106,-0.061 0.237,-0.061 0.343,-0c0.106,0.061 0.171,0.174 0.171,0.297c0,0.296 0,0.595 0,0.61c0,0 -0,0 -0,0.001c-0.043,0.024 -2.826,1.631 -4,2.309c-0.106,0.061 -0.237,0.061 -0.343,-0c-0.106,-0.061 -0.172,-0.175 -0.172,-0.297c0,-0.224 0,-0.45 0,-0.553c0,-0.035 0.019,-0.068 0.05,-0.086c0.383,-0.221 2.86,-1.651 3.951,-2.281Z" style="fill:#001b35;"/><path d="M126.661,90.049c0.106,-0.062 0.237,-0.062 0.343,-0c0.106,0.061 0.172,0.174 0.172,0.297c-0,0.296 -0,0.595 -0,0.609c-0,0.001 -0.001,0.001 -0.001,0.001c-0.043,0.025 -2.825,1.631 -4,2.31c-0.106,0.061 -0.237,0.061 -0.343,-0c-0.106,-0.062 -0.171,-0.175 -0.171,-0.297c-0,-0.224 -0,-0.45 -0,-0.553c-0,-0.036 0.019,-0.069 0.05,-0.087c0.382,-0.22 2.859,-1.651 3.95,-2.28Z" style="fill:#001b35;"/><path d="M120.165,93.799c0.106,-0.061 0.237,-0.061 0.343,0c0.106,0.062 0.171,0.175 0.171,0.297c0,0.297 0,0.595 0,0.61c0,0.001 0,0.001 -0,0.001c-0.043,0.025 -2.825,1.631 -4,2.309c-0.106,0.062 -0.237,0.062 -0.343,0c-0.106,-0.061 -0.172,-0.174 -0.172,-0.297c0,-0.224 0,-0.449 0,-0.552c0,-0.036 0.019,-0.069 0.05,-0.087c0.383,-0.221 2.86,-1.651 3.951,-2.281Z" style="fill:#001b35;"/><path d="M148.098,74.883c0.106,-0.062 0.237,-0.062 0.343,-0c0.106,0.061 0.171,0.174 0.171,0.297c0,0.296 0,0.595 0,0.61c0,-0 -0,0 -0,0c-0.023,0.014 -0.84,0.485 -1.398,0.807c-0.106,0.062 -0.237,0.062 -0.343,0c-0.106,-0.061 -0.172,-0.174 -0.172,-0.297c0,-0.224 0,-0.449 0,-0.552c0,-0.036 0.019,-0.069 0.05,-0.087c0.188,-0.108 0.865,-0.499 1.349,-0.778Z" style="fill:#001b35;"/><path d="M141.601,78.633c0.106,-0.061 0.237,-0.061 0.343,0c0.106,0.062 0.172,0.175 0.172,0.297c-0,0.297 -0,0.596 -0,0.61c-0,0.001 -0,0.001 -0.001,0.001c-0.023,0.013 -0.839,0.485 -1.398,0.807c-0.106,0.061 -0.236,0.061 -0.343,0c-0.106,-0.061 -0.171,-0.174 -0.171,-0.297c-0,-0.224 -0,-0.45 -0,-0.553c-0,-0.035 0.019,-0.068 0.05,-0.086c0.188,-0.109 0.865,-0.499 1.348,-0.779Z" style="fill:#001b35;"/><path d="M135.105,82.384c0.106,-0.061 0.237,-0.061 0.343,0c0.106,0.061 0.171,0.175 0.171,0.297c0,0.296 0,0.595 0,0.61c0,0 0,0.001 -0,0.001c-0.023,0.013 -0.84,0.484 -1.398,0.807c-0.106,0.061 -0.237,0.061 -0.343,-0c-0.106,-0.061 -0.172,-0.175 -0.172,-0.297c0,-0.224 0,-0.45 0,-0.553c0,-0.036 0.02,-0.069 0.05,-0.086c0.188,-0.109 0.865,-0.5 1.349,-0.779Z" style="fill:#001b35;"/><path d="M128.608,86.135c0.106,-0.061 0.237,-0.061 0.343,-0c0.106,0.061 0.172,0.174 0.172,0.297c-0,0.296 -0,0.595 -0,0.61c-0,0 -0,0 -0.001,0.001c-0.023,0.013 -0.839,0.484 -1.397,0.807c-0.107,0.061 -0.237,0.061 -0.343,-0c-0.107,-0.062 -0.172,-0.175 -0.172,-0.297c0,-0.225 0,-0.45 0,-0.553c0,-0.036 0.019,-0.069 0.05,-0.087c0.188,-0.108 0.865,-0.499 1.348,-0.778Z" style="fill:#001b35;"/><path d="M122.112,89.886c0.106,-0.062 0.237,-0.062 0.343,-0c0.106,0.061 0.171,0.174 0.171,0.297c0,0.296 0,0.595 0,0.609c0,0.001 0,0.001 -0,0.001c-0.023,0.014 -0.839,0.485 -1.398,0.807c-0.106,0.062 -0.237,0.062 -0.343,0c-0.106,-0.061 -0.171,-0.174 -0.171,-0.297c-0,-0.224 -0,-0.449 -0,-0.552c-0,-0.036 0.019,-0.069 0.05,-0.087c0.187,-0.108 0.864,-0.499 1.348,-0.778Z" style="fill:#001b35;"/><path d="M115.615,93.636c0.107,-0.061 0.237,-0.061 0.343,0c0.107,0.062 0.172,0.175 0.172,0.297c-0,0.297 -0,0.595 -0,0.61c-0,0.001 -0,0.001 -0.001,0.001c-0.023,0.013 -0.839,0.485 -1.397,0.807c-0.106,0.061 -0.237,0.061 -0.343,0c-0.106,-0.061 -0.172,-0.174 -0.172,-0.297c0,-0.224 0,-0.45 0,-0.553c0,-0.035 0.019,-0.068 0.05,-0.086c0.188,-0.109 0.865,-0.5 1.348,-0.779Z" style="fill:#001b35;"/><path d="M148.079,92.083c0.106,-0.062 0.237,-0.062 0.343,-0c0.106,0.061 0.172,0.174 0.172,0.297c-0,0.296 -0,0.595 -0,0.609c-0,0.001 -0,0.001 -0.001,0.001c-0.023,0.014 -0.839,0.485 -1.398,0.807c-0.106,0.062 -0.236,0.062 -0.343,0c-0.106,-0.061 -0.171,-0.174 -0.171,-0.297c-0,-0.224 -0,-0.449 -0,-0.552c-0,-0.036 0.019,-0.069 0.05,-0.087c0.188,-0.108 0.865,-0.499 1.348,-0.778Z" style="fill:#001b35;"/><path d="M141.583,95.833c0.106,-0.061 0.237,-0.061 0.343,0c0.106,0.062 0.171,0.175 0.171,0.297c0,0.297 0,0.595 0,0.61c0,0.001 0,0.001 -0,0.001c-0.023,0.013 -0.839,0.485 -1.398,0.807c-0.106,0.061 -0.237,0.061 -0.343,0c-0.106,-0.061 -0.171,-0.174 -0.171,-0.297c-0,-0.224 -0,-0.45 -0,-0.553c-0,-0.035 0.019,-0.068 0.05,-0.086c0.187,-0.109 0.864,-0.499 1.348,-0.779Z" style="fill:#001b35;"/><path d="M135.086,99.584c0.107,-0.061 0.237,-0.061 0.343,0c0.107,0.061 0.172,0.175 0.172,0.297c-0,0.296 -0,0.595 -0,0.61c-0,0 -0,0.001 -0.001,0.001c-0.023,0.013 -0.839,0.484 -1.397,0.807c-0.107,0.061 -0.237,0.061 -0.343,-0c-0.107,-0.061 -0.172,-0.175 -0.172,-0.297c0,-0.224 0,-0.45 0,-0.553c0,-0.036 0.019,-0.069 0.05,-0.087c0.188,-0.108 0.865,-0.499 1.348,-0.778Z" style="fill:#001b35;"/><path d="M128.59,103.335c0.106,-0.062 0.237,-0.062 0.343,-0c0.106,0.061 0.171,0.174 0.171,0.297c0,0.296 0,0.595 0,0.61c0,-0 0,0 -0,0c-0.023,0.014 -0.839,0.485 -1.398,0.808c-0.106,0.061 -0.237,0.061 -0.343,-0c-0.106,-0.062 -0.171,-0.175 -0.171,-0.298c-0,-0.224 -0,-0.449 -0,-0.552c-0,-0.036 0.019,-0.069 0.05,-0.087c0.187,-0.108 0.864,-0.499 1.348,-0.778Z" style="fill:#001b35;"/><path d="M122.094,107.085c0.106,-0.061 0.236,-0.061 0.343,0c0.106,0.062 0.171,0.175 0.171,0.298c0,0.296 0,0.595 0,0.609c0,0.001 -0,0.001 -0,0.001c-0.024,0.014 -0.84,0.485 -1.398,0.807c-0.106,0.062 -0.237,0.062 -0.343,0c-0.106,-0.061 -0.172,-0.174 -0.172,-0.297c0,-0.224 0,-0.45 0,-0.552c0,-0.036 0.019,-0.069 0.05,-0.087c0.188,-0.108 0.865,-0.499 1.349,-0.779Z" style="fill:#001b35;"/><path d="M115.597,110.836c0.106,-0.061 0.237,-0.061 0.343,0c0.106,0.061 0.172,0.175 0.172,0.297c-0,0.296 -0,0.595 -0,0.61c-0,0 -0.001,0.001 -0.001,0.001c-0.023,0.013 -0.839,0.485 -1.398,0.807c-0.106,0.061 -0.237,0.061 -0.343,-0c-0.106,-0.061 -0.171,-0.175 -0.171,-0.297c-0,-0.224 -0,-0.45 -0,-0.553c-0,-0.035 0.019,-0.069 0.05,-0.086c0.188,-0.109 0.864,-0.5 1.348,-0.779Z" style="fill:#001b35;"/><path d="M154.585,82.482c0.106,-0.061 0.236,-0.061 0.343,0c0.106,0.062 0.171,0.175 0.171,0.298c0,0.296 0,0.595 0,0.609c0,0.001 -0,0.001 -0,0.001c-0.024,0.014 -0.84,0.485 -1.398,0.807c-0.106,0.062 -0.237,0.062 -0.343,0c-0.106,-0.061 -0.172,-0.174 -0.172,-0.297c0,-0.224 0,-0.45 0,-0.552c0,-0.036 0.019,-0.069 0.05,-0.087c0.188,-0.109 0.865,-0.499 1.349,-0.779Z" style="fill:#001b35;"/><path d="M154.55,76.913c0.106,-0.062 0.237,-0.062 0.343,-0c0.106,0.061 0.171,0.174 0.171,0.297c0,0.296 0,0.595 0,0.61c0,-0 0,0 -0,0c-0.023,0.014 -0.84,0.485 -1.398,0.807c-0.106,0.062 -0.237,0.062 -0.343,0c-0.106,-0.061 -0.172,-0.174 -0.172,-0.297c0,-0.224 0,-0.449 0,-0.552c0,-0.036 0.019,-0.069 0.05,-0.087c0.188,-0.108 0.865,-0.499 1.349,-0.778Z" style="fill:#001b35;"/><path d="M154.628,71.112c0.106,-0.061 0.237,-0.061 0.343,0c0.106,0.061 0.172,0.175 0.172,0.297c-0,0.296 -0,0.595 -0,0.61c-0,0 -0,0.001 -0.001,0.001c-0.023,0.013 -0.839,0.484 -1.397,0.807c-0.107,0.061 -0.237,0.061 -0.343,-0c-0.107,-0.061 -0.172,-0.175 -0.172,-0.297c0,-0.224 0,-0.45 0,-0.553c0,-0.036 0.019,-0.069 0.05,-0.086c0.188,-0.109 0.865,-0.5 1.348,-0.779Z" style="fill:#001b35;"/><path d="M154.61,88.312c0.106,-0.061 0.237,-0.061 0.343,0c0.106,0.061 0.171,0.175 0.171,0.297c0,0.296 0,0.595 0,0.61c0,0 0,0.001 -0,0.001c-0.023,0.013 -0.839,0.484 -1.398,0.807c-0.106,0.061 -0.237,0.061 -0.343,-0c-0.106,-0.061 -0.171,-0.175 -0.171,-0.297c-0,-0.224 -0,-0.45 -0,-0.553c-0,-0.036 0.019,-0.069 0.05,-0.086c0.187,-0.109 0.864,-0.5 1.348,-0.779Z" style="fill:#001b35;"/><path d="M152.603,109.916c0.106,-0.061 0.237,-0.061 0.343,-0c0.106,0.061 0.172,0.174 0.172,0.297c-0,0.296 -0,0.595 -0,0.61c-0,0 -0.001,0.001 -0.001,0.001c-0.043,0.025 -2.825,1.631 -4,2.309c-0.106,0.061 -0.237,0.061 -0.343,0c-0.106,-0.061 -0.171,-0.174 -0.171,-0.297c-0,-0.224 -0,-0.45 -0,-0.553c-0,-0.035 0.019,-0.068 0.05,-0.086c0.382,-0.221 2.859,-1.651 3.95,-2.281Z" style="fill:#001b35;"/><path d="M146.107,113.667c0.106,-0.062 0.237,-0.062 0.343,-0c0.106,0.061 0.171,0.174 0.171,0.297c0,0.296 0,0.595 0,0.61c0,-0 0,0 -0,0c-0.043,0.025 -2.825,1.632 -4,2.31c-0.106,0.061 -0.237,0.061 -0.343,-0c-0.106,-0.061 -0.172,-0.175 -0.172,-0.297c0,-0.224 0,-0.45 0,-0.553c0,-0.036 0.019,-0.069 0.05,-0.087c0.383,-0.22 2.86,-1.65 3.951,-2.28Z" style="fill:#001b35;"/><path d="M139.61,117.417c0.106,-0.061 0.237,-0.061 0.343,0c0.106,0.062 0.172,0.175 0.172,0.297c-0,0.297 -0,0.596 -0,0.61c-0,0.001 -0,0.001 -0.001,0.001c-0.043,0.025 -2.825,1.631 -4,2.31c-0.106,0.061 -0.237,0.061 -0.343,-0c-0.106,-0.062 -0.171,-0.175 -0.171,-0.298c-0,-0.224 -0,-0.449 -0,-0.552c-0,-0.036 0.019,-0.069 0.05,-0.087c0.382,-0.221 2.859,-1.651 3.95,-2.281Z" style="fill:#001b35;"/><path d="M133.114,121.168c0.106,-0.061 0.237,-0.061 0.343,0c0.106,0.061 0.171,0.175 0.171,0.297c0,0.296 0,0.595 0,0.61c0,0 0,0.001 -0,0.001c-0.043,0.025 -2.825,1.631 -4,2.309c-0.106,0.062 -0.237,0.062 -0.343,0c-0.106,-0.061 -0.172,-0.174 -0.172,-0.297c0,-0.224 0,-0.45 0,-0.552c0,-0.036 0.019,-0.069 0.05,-0.087c0.383,-0.221 2.86,-1.651 3.951,-2.281Z" style="fill:#001b35;"/><path d="M126.617,124.919c0.107,-0.061 0.237,-0.061 0.343,-0c0.107,0.061 0.172,0.174 0.172,0.297c-0,0.296 -0,0.595 -0,0.61c-0,0 -0,0 -0.001,0.001c-0.043,0.024 -2.825,1.631 -4,2.309c-0.106,0.061 -0.236,0.061 -0.343,-0c-0.106,-0.061 -0.171,-0.175 -0.171,-0.297c-0,-0.224 -0,-0.45 -0,-0.553c-0,-0.035 0.019,-0.069 0.05,-0.086c0.382,-0.221 2.86,-1.651 3.95,-2.281Z" style="fill:#001b35;"/><path d="M120.121,128.67c0.106,-0.062 0.237,-0.062 0.343,-0c0.106,0.061 0.171,0.174 0.171,0.297c0,0.296 0,0.595 0,0.609c0,0.001 0,0.001 -0,0.001c-0.043,0.025 -2.825,1.631 -4,2.31c-0.106,0.061 -0.237,0.061 -0.343,-0c-0.106,-0.062 -0.171,-0.175 -0.171,-0.297c-0,-0.224 -0,-0.45 -0,-0.553c-0,-0.036 0.019,-0.069 0.05,-0.087c0.382,-0.22 2.859,-1.651 3.95,-2.28Z" style="fill:#001b35;"/><path d="M148.054,109.753c0.106,-0.061 0.237,-0.061 0.343,-0c0.106,0.061 0.171,0.174 0.171,0.297c0,0.296 0,0.595 0,0.61c0,0 0,0 -0,0.001c-0.023,0.013 -0.839,0.484 -1.398,0.807c-0.106,0.061 -0.237,0.061 -0.343,-0c-0.106,-0.062 -0.171,-0.175 -0.171,-0.297c-0,-0.224 -0,-0.45 -0,-0.553c-0,-0.036 0.019,-0.069 0.05,-0.087c0.187,-0.108 0.864,-0.499 1.348,-0.778Z" style="fill:#001b35;"/><path d="M141.557,113.504c0.107,-0.062 0.237,-0.062 0.343,-0c0.107,0.061 0.172,0.174 0.172,0.297c-0,0.296 -0,0.595 -0,0.61c-0,-0 -0,0 -0.001,0c-0.023,0.014 -0.839,0.485 -1.397,0.807c-0.106,0.062 -0.237,0.062 -0.343,0c-0.107,-0.061 -0.172,-0.174 -0.172,-0.297c0,-0.224 0,-0.449 0,-0.552c0,-0.036 0.019,-0.069 0.05,-0.087c0.188,-0.108 0.865,-0.499 1.348,-0.778Z" style="fill:#001b35;"/><path d="M135.061,117.254c0.106,-0.061 0.237,-0.061 0.343,0c0.106,0.062 0.172,0.175 0.172,0.297c-0,0.297 -0,0.596 -0,0.61c-0,0.001 -0.001,0.001 -0.001,0.001c-0.023,0.013 -0.839,0.485 -1.398,0.807c-0.106,0.061 -0.237,0.061 -0.343,0c-0.106,-0.061 -0.171,-0.174 -0.171,-0.297c-0,-0.224 -0,-0.45 -0,-0.553c-0,-0.035 0.019,-0.068 0.05,-0.086c0.187,-0.109 0.864,-0.499 1.348,-0.779Z" style="fill:#001b35;"/><path d="M128.565,121.005c0.106,-0.061 0.236,-0.061 0.343,0c0.106,0.061 0.171,0.175 0.171,0.297c0,0.296 0,0.595 0,0.61c0,0 -0,0.001 -0,0.001c-0.024,0.013 -0.84,0.484 -1.398,0.807c-0.106,0.061 -0.237,0.061 -0.343,-0c-0.106,-0.061 -0.172,-0.175 -0.172,-0.297c0,-0.224 0,-0.45 0,-0.553c0,-0.036 0.019,-0.069 0.05,-0.086c0.188,-0.109 0.865,-0.5 1.349,-0.779Z" style="fill:#001b35;"/><path d="M122.068,124.756c0.106,-0.061 0.237,-0.061 0.343,-0c0.106,0.061 0.172,0.174 0.172,0.297c-0,0.296 -0,0.595 -0,0.61c-0,0 -0.001,0 -0.001,0.001c-0.023,0.013 -0.839,0.484 -1.398,0.807c-0.106,0.061 -0.237,0.061 -0.343,-0c-0.106,-0.062 -0.171,-0.175 -0.171,-0.297c-0,-0.225 -0,-0.45 -0,-0.553c-0,-0.036 0.019,-0.069 0.05,-0.087c0.188,-0.108 0.864,-0.499 1.348,-0.778Z" style="fill:#001b35;"/><path d="M115.572,128.507c0.106,-0.062 0.237,-0.062 0.343,-0c0.106,0.061 0.171,0.174 0.171,0.297c0,0.296 0,0.595 0,0.609c0,0.001 -0,0.001 -0,0.001c-0.023,0.014 -0.84,0.485 -1.398,0.807c-0.106,0.062 -0.237,0.062 -0.343,0c-0.106,-0.061 -0.172,-0.174 -0.172,-0.297c0,-0.224 0,-0.449 0,-0.552c0,-0.036 0.019,-0.069 0.05,-0.087c0.188,-0.108 0.865,-0.499 1.349,-0.778Z" style="fill:#001b35;"/><path d="M152.568,104.346c0.106,-0.061 0.237,-0.061 0.343,0c0.106,0.061 0.172,0.175 0.172,0.297c-0,0.296 -0,0.595 -0,0.61c-0,0 -0,0.001 -0.001,0.001c-0.043,0.025 -2.825,1.631 -4,2.309c-0.106,0.062 -0.237,0.062 -0.343,0c-0.106,-0.061 -0.171,-0.174 -0.171,-0.297c-0,-0.224 -0,-0.449 -0,-0.552c-0,-0.036 0.019,-0.069 0.05,-0.087c0.382,-0.221 2.859,-1.651 3.95,-2.281Z" style="fill:#001b35;"/><path d="M146.072,108.097c0.106,-0.061 0.237,-0.061 0.343,-0c0.106,0.061 0.171,0.174 0.171,0.297c0,0.296 0,0.595 0,0.61c0,0 0,0 -0,0.001c-0.043,0.024 -2.825,1.631 -4,2.309c-0.106,0.061 -0.237,0.061 -0.343,-0c-0.106,-0.061 -0.172,-0.175 -0.172,-0.297c0,-0.224 0,-0.45 0,-0.553c0,-0.035 0.019,-0.068 0.05,-0.086c0.383,-0.221 2.86,-1.651 3.951,-2.281Z" style="fill:#001b35;"/><path d="M139.575,111.848c0.107,-0.062 0.237,-0.062 0.343,-0c0.107,0.061 0.172,0.174 0.172,0.297c-0,0.296 -0,0.595 -0,0.609c-0,0.001 -0,0.001 -0.001,0.001c-0.042,0.025 -2.825,1.631 -4,2.31c-0.106,0.061 -0.236,0.061 -0.343,-0c-0.106,-0.062 -0.171,-0.175 -0.171,-0.297c-0,-0.224 -0,-0.45 -0,-0.553c-0,-0.036 0.019,-0.069 0.05,-0.087c0.382,-0.22 2.86,-1.651 3.95,-2.28Z" style="fill:#001b35;"/><path d="M133.079,115.598c0.106,-0.061 0.237,-0.061 0.343,0c0.106,0.062 0.172,0.175 0.172,0.297c-0,0.297 -0,0.596 -0,0.61c-0,0.001 -0.001,0.001 -0.001,0.001c-0.043,0.025 -2.825,1.631 -4,2.309c-0.106,0.062 -0.237,0.062 -0.343,0c-0.106,-0.061 -0.171,-0.174 -0.171,-0.297c-0,-0.224 -0,-0.449 -0,-0.552c-0,-0.036 0.019,-0.069 0.05,-0.087c0.382,-0.221 2.859,-1.651 3.95,-2.281Z" style="fill:#001b35;"/><path d="M126.583,119.349c0.106,-0.061 0.236,-0.061 0.343,0c0.106,0.061 0.171,0.175 0.171,0.297c0,0.296 0,0.595 0,0.61c0,0 -0,0.001 -0,0.001c-0.043,0.025 -2.826,1.631 -4,2.309c-0.107,0.061 -0.237,0.061 -0.343,0c-0.107,-0.061 -0.172,-0.174 -0.172,-0.297c0,-0.224 0,-0.45 0,-0.553c0,-0.035 0.019,-0.068 0.05,-0.086c0.383,-0.221 2.86,-1.651 3.951,-2.281Z" style="fill:#001b35;"/><path d="M120.086,123.1c0.106,-0.062 0.237,-0.062 0.343,-0c0.106,0.061 0.172,0.174 0.172,0.297c-0,0.296 -0,0.595 -0,0.61c-0,0 -0.001,0 -0.001,0.001c-0.043,0.024 -2.825,1.631 -4,2.309c-0.106,0.061 -0.237,0.061 -0.343,-0c-0.106,-0.061 -0.171,-0.175 -0.171,-0.297c-0,-0.224 -0,-0.45 -0,-0.553c-0,-0.036 0.019,-0.069 0.05,-0.086c0.382,-0.221 2.859,-1.651 3.95,-2.281Z" style="fill:#001b35;"/><path d="M148.019,104.183c0.106,-0.061 0.237,-0.061 0.343,0c0.106,0.061 0.172,0.175 0.172,0.297c-0,0.296 -0,0.595 -0,0.61c-0,0 -0.001,0.001 -0.001,0.001c-0.023,0.013 -0.839,0.484 -1.398,0.807c-0.106,0.061 -0.237,0.061 -0.343,-0c-0.106,-0.061 -0.171,-0.175 -0.171,-0.297c-0,-0.224 -0,-0.45 -0,-0.553c-0,-0.036 0.019,-0.069 0.05,-0.086c0.187,-0.109 0.864,-0.5 1.348,-0.779Z" style="fill:#001b35;"/><path d="M141.523,107.934c0.106,-0.061 0.236,-0.061 0.343,-0c0.106,0.061 0.171,0.174 0.171,0.297c0,0.296 0,0.595 0,0.61c0,0 -0,0 -0,0.001c-0.024,0.013 -0.84,0.484 -1.398,0.807c-0.106,0.061 -0.237,0.061 -0.343,-0c-0.106,-0.062 -0.172,-0.175 -0.172,-0.297c0,-0.225 0,-0.45 0,-0.553c0,-0.036 0.019,-0.069 0.05,-0.087c0.188,-0.108 0.865,-0.499 1.349,-0.778Z" style="fill:#001b35;"/><path d="M135.026,111.685c0.106,-0.062 0.237,-0.062 0.343,-0c0.106,0.061 0.172,0.174 0.172,0.297c-0,0.296 -0,0.595 -0,0.609c-0,0.001 -0.001,0.001 -0.001,0.001c-0.023,0.014 -0.839,0.485 -1.398,0.807c-0.106,0.062 -0.237,0.062 -0.343,0c-0.106,-0.061 -0.171,-0.174 -0.171,-0.297c-0,-0.224 -0,-0.449 -0,-0.552c-0,-0.036 0.019,-0.069 0.05,-0.087c0.188,-0.108 0.865,-0.499 1.348,-0.778Z" style="fill:#001b35;"/><path d="M128.53,115.435c0.106,-0.061 0.237,-0.061 0.343,0c0.106,0.062 0.171,0.175 0.171,0.297c0,0.297 0,0.595 0,0.61c0,0.001 0,0.001 -0,0.001c-0.023,0.013 -0.84,0.485 -1.398,0.807c-0.106,0.061 -0.237,0.061 -0.343,0c-0.106,-0.061 -0.172,-0.174 -0.172,-0.297c0,-0.224 0,-0.45 0,-0.553c0,-0.035 0.019,-0.068 0.05,-0.086c0.188,-0.109 0.865,-0.499 1.349,-0.779Z" style="fill:#001b35;"/><path d="M122.033,119.186c0.106,-0.061 0.237,-0.061 0.343,-0c0.106,0.061 0.172,0.175 0.172,0.297c-0,0.296 -0,0.595 -0,0.61c-0,0 -0,0.001 -0.001,0.001c-0.023,0.013 -0.839,0.484 -1.398,0.807c-0.106,0.061 -0.236,0.061 -0.343,-0c-0.106,-0.061 -0.171,-0.175 -0.171,-0.297c-0,-0.224 -0,-0.45 -0,-0.553c-0,-0.036 0.019,-0.069 0.05,-0.087c0.188,-0.108 0.865,-0.499 1.348,-0.778Z" style="fill:#001b35;"/><path d="M115.537,122.937c0.106,-0.062 0.237,-0.062 0.343,-0c0.106,0.061 0.171,0.174 0.171,0.297c0,0.296 0,0.595 0,0.61c0,-0 0,0 -0,0c-0.023,0.014 -0.839,0.485 -1.398,0.808c-0.106,0.061 -0.237,0.061 -0.343,-0c-0.106,-0.062 -0.171,-0.175 -0.171,-0.298c-0,-0.224 -0,-0.449 -0,-0.552c-0,-0.036 0.019,-0.069 0.05,-0.087c0.187,-0.108 0.864,-0.499 1.348,-0.778Z" style="fill:#001b35;"/><path d="M152.647,98.546c0.106,-0.062 0.237,-0.062 0.343,-0c0.106,0.061 0.171,0.174 0.171,0.297c0,0.296 0,0.595 0,0.61c0,-0 0,0 -0,0c-0.043,0.025 -2.825,1.632 -4,2.31c-0.106,0.061 -0.237,0.061 -0.343,-0c-0.106,-0.061 -0.172,-0.175 -0.172,-0.297c0,-0.224 0,-0.45 0,-0.553c0,-0.036 0.02,-0.069 0.05,-0.087c0.383,-0.22 2.86,-1.651 3.951,-2.28Z" style="fill:#001b35;"/><path d="M146.151,102.296c0.106,-0.061 0.236,-0.061 0.343,0c0.106,0.062 0.171,0.175 0.171,0.297c0,0.297 0,0.596 0,0.61c0,0.001 -0,0.001 -0,0.001c-0.043,0.025 -2.826,1.631 -4,2.309c-0.107,0.062 -0.237,0.062 -0.343,0c-0.107,-0.061 -0.172,-0.174 -0.172,-0.297c0,-0.224 0,-0.449 0,-0.552c0,-0.036 0.019,-0.069 0.05,-0.087c0.383,-0.221 2.86,-1.651 3.951,-2.281Z" style="fill:#001b35;"/><path d="M139.654,106.047c0.106,-0.061 0.237,-0.061 0.343,0c0.106,0.061 0.172,0.175 0.172,0.297c-0,0.296 -0,0.595 -0,0.61c-0,0 -0.001,0.001 -0.001,0.001c-0.043,0.025 -2.825,1.631 -4,2.309c-0.106,0.061 -0.237,0.061 -0.343,0c-0.106,-0.061 -0.171,-0.174 -0.171,-0.297c-0,-0.224 -0,-0.45 -0,-0.553c-0,-0.035 0.019,-0.068 0.05,-0.086c0.382,-0.221 2.859,-1.651 3.95,-2.281Z" style="fill:#001b35;"/><path d="M133.158,109.798c0.106,-0.061 0.237,-0.061 0.343,-0c0.106,0.061 0.171,0.174 0.171,0.297c0,0.296 0,0.595 0,0.61c0,0 -0,0 -0,0.001c-0.043,0.024 -2.826,1.631 -4,2.309c-0.106,0.061 -0.237,0.061 -0.343,-0c-0.106,-0.061 -0.172,-0.175 -0.172,-0.297c0,-0.224 0,-0.45 0,-0.553c0,-0.036 0.019,-0.069 0.05,-0.086c0.383,-0.221 2.86,-1.651 3.951,-2.281Z" style="fill:#001b35;"/><path d="M126.661,113.549c0.106,-0.062 0.237,-0.062 0.343,-0c0.106,0.061 0.172,0.174 0.172,0.297c-0,0.296 -0,0.595 -0,0.609c-0,0.001 -0.001,0.001 -0.001,0.001c-0.043,0.025 -2.825,1.631 -4,2.31c-0.106,0.061 -0.237,0.061 -0.343,-0c-0.106,-0.062 -0.171,-0.175 -0.171,-0.297c-0,-0.224 -0,-0.45 -0,-0.553c-0,-0.036 0.019,-0.069 0.05,-0.087c0.382,-0.22 2.859,-1.651 3.95,-2.28Z" style="fill:#001b35;"/><path d="M120.165,117.299c0.106,-0.061 0.237,-0.061 0.343,0c0.106,0.062 0.171,0.175 0.171,0.297c0,0.297 0,0.595 0,0.61c0,0.001 0,0.001 -0,0.001c-0.043,0.025 -2.825,1.631 -4,2.309c-0.106,0.062 -0.237,0.062 -0.343,0c-0.106,-0.061 -0.172,-0.174 -0.172,-0.297c0,-0.224 0,-0.449 0,-0.552c0,-0.036 0.019,-0.069 0.05,-0.087c0.383,-0.221 2.86,-1.651 3.951,-2.281Z" style="fill:#001b35;"/><path d="M152.647,92.788c0.106,-0.061 0.237,-0.061 0.343,-0c0.106,0.061 0.171,0.174 0.171,0.297c0,0.296 0,0.595 0,0.61c0,0 0,0.001 -0,0.001c-0.043,0.025 -2.825,1.631 -4,2.309c-0.106,0.061 -0.237,0.061 -0.343,0c-0.106,-0.061 -0.172,-0.174 -0.172,-0.297c0,-0.224 0,-0.45 0,-0.553c0,-0.035 0.02,-0.068 0.05,-0.086c0.383,-0.221 2.86,-1.651 3.951,-2.281Z" style="fill:#001b35;"/><path d="M146.151,96.539c0.106,-0.062 0.236,-0.062 0.343,-0c0.106,0.061 0.171,0.174 0.171,0.297c0,0.296 0,0.595 0,0.61c0,-0 -0,0 -0,0c-0.043,0.025 -2.826,1.632 -4,2.31c-0.107,0.061 -0.237,0.061 -0.343,-0c-0.107,-0.061 -0.172,-0.175 -0.172,-0.297c0,-0.224 0,-0.45 0,-0.553c0,-0.036 0.019,-0.069 0.05,-0.086c0.383,-0.221 2.86,-1.651 3.951,-2.281Z" style="fill:#001b35;"/><path d="M139.654,100.289c0.106,-0.061 0.237,-0.061 0.343,0c0.106,0.062 0.172,0.175 0.172,0.297c-0,0.297 -0,0.596 -0,0.61c-0,0.001 -0.001,0.001 -0.001,0.001c-0.043,0.025 -2.825,1.631 -4,2.31c-0.106,0.061 -0.237,0.061 -0.343,-0c-0.106,-0.062 -0.171,-0.175 -0.171,-0.297c-0,-0.225 -0,-0.45 -0,-0.553c-0,-0.036 0.019,-0.069 0.05,-0.087c0.382,-0.221 2.859,-1.651 3.95,-2.281Z" style="fill:#001b35;"/><path d="M133.158,104.04c0.106,-0.061 0.237,-0.061 0.343,0c0.106,0.061 0.171,0.175 0.171,0.297c0,0.296 0,0.595 0,0.61c0,0 -0,0.001 -0,0.001c-0.043,0.025 -2.826,1.631 -4,2.309c-0.106,0.062 -0.237,0.062 -0.343,0c-0.106,-0.061 -0.172,-0.174 -0.172,-0.297c0,-0.224 0,-0.449 0,-0.552c0,-0.036 0.019,-0.069 0.05,-0.087c0.383,-0.221 2.86,-1.651 3.951,-2.281Z" style="fill:#001b35;"/><path d="M126.661,107.791c0.106,-0.061 0.237,-0.061 0.343,-0c0.106,0.061 0.172,0.174 0.172,0.297c-0,0.296 -0,0.595 -0,0.61c-0,0 -0.001,0 -0.001,0.001c-0.043,0.024 -2.825,1.631 -4,2.309c-0.106,0.061 -0.237,0.061 -0.343,0c-0.106,-0.061 -0.171,-0.175 -0.171,-0.297c-0,-0.224 -0,-0.45 -0,-0.553c-0,-0.035 0.019,-0.068 0.05,-0.086c0.382,-0.221 2.859,-1.651 3.95,-2.281Z" style="fill:#001b35;"/><path d="M120.165,111.542c0.106,-0.062 0.237,-0.062 0.343,-0c0.106,0.061 0.171,0.174 0.171,0.297c0,0.296 0,0.595 0,0.609c0,0.001 0,0.001 -0,0.001c-0.043,0.025 -2.825,1.631 -4,2.31c-0.106,0.061 -0.237,0.061 -0.343,-0c-0.106,-0.062 -0.172,-0.175 -0.172,-0.297c0,-0.224 0,-0.45 0,-0.553c0,-0.036 0.019,-0.069 0.05,-0.087c0.383,-0.22 2.86,-1.651 3.951,-2.28Z" style="fill:#001b35;"/><path d="M148.098,98.383c0.106,-0.062 0.237,-0.062 0.343,-0c0.106,0.061 0.171,0.174 0.171,0.297c0,0.296 0,0.595 0,0.61c0,-0 -0,0 -0,0c-0.023,0.014 -0.84,0.485 -1.398,0.807c-0.106,0.062 -0.237,0.062 -0.343,0c-0.106,-0.061 -0.172,-0.174 -0.172,-0.297c0,-0.224 0,-0.449 0,-0.552c0,-0.036 0.019,-0.069 0.05,-0.087c0.188,-0.108 0.865,-0.499 1.349,-0.778Z" style="fill:#001b35;"/><path d="M141.601,102.133c0.106,-0.061 0.237,-0.061 0.343,0c0.106,0.062 0.172,0.175 0.172,0.297c-0,0.297 -0,0.596 -0,0.61c-0,0.001 -0,0.001 -0.001,0.001c-0.023,0.013 -0.839,0.485 -1.398,0.807c-0.106,0.061 -0.236,0.061 -0.343,0c-0.106,-0.061 -0.171,-0.174 -0.171,-0.297c-0,-0.224 -0,-0.45 -0,-0.553c-0,-0.035 0.019,-0.068 0.05,-0.086c0.188,-0.109 0.865,-0.499 1.348,-0.779Z" style="fill:#001b35;"/><path d="M135.105,105.884c0.106,-0.061 0.237,-0.061 0.343,0c0.106,0.061 0.171,0.175 0.171,0.297c0,0.296 0,0.595 0,0.61c0,0 0,0.001 -0,0.001c-0.023,0.013 -0.84,0.484 -1.398,0.807c-0.106,0.061 -0.237,0.061 -0.343,-0c-0.106,-0.061 -0.172,-0.175 -0.172,-0.297c0,-0.224 0,-0.45 0,-0.553c0,-0.036 0.02,-0.069 0.05,-0.086c0.188,-0.109 0.865,-0.5 1.349,-0.779Z" style="fill:#001b35;"/><path d="M128.608,109.635c0.106,-0.062 0.237,-0.062 0.343,-0c0.106,0.061 0.172,0.174 0.172,0.297c-0,0.296 -0,0.595 -0,0.61c-0,0 -0,0 -0.001,0.001c-0.023,0.013 -0.839,0.484 -1.397,0.807c-0.107,0.061 -0.237,0.061 -0.343,-0c-0.107,-0.062 -0.172,-0.175 -0.172,-0.297c0,-0.225 0,-0.45 0,-0.553c0,-0.036 0.019,-0.069 0.05,-0.087c0.188,-0.108 0.865,-0.499 1.348,-0.778Z" style="fill:#001b35;"/><path d="M122.112,113.385c0.106,-0.061 0.237,-0.061 0.343,0c0.106,0.062 0.171,0.175 0.171,0.298c0,0.296 0,0.595 0,0.609c0,0.001 0,0.001 -0,0.001c-0.023,0.014 -0.839,0.485 -1.398,0.807c-0.106,0.062 -0.237,0.062 -0.343,0c-0.106,-0.061 -0.171,-0.174 -0.171,-0.297c-0,-0.224 -0,-0.449 -0,-0.552c-0,-0.036 0.019,-0.069 0.05,-0.087c0.187,-0.108 0.864,-0.499 1.348,-0.779Z" style="fill:#001b35;"/><path d="M115.615,117.136c0.107,-0.061 0.237,-0.061 0.343,0c0.107,0.061 0.172,0.175 0.172,0.297c-0,0.297 -0,0.595 -0,0.61c-0,0 -0,0.001 -0.001,0.001c-0.023,0.013 -0.839,0.485 -1.397,0.807c-0.106,0.061 -0.237,0.061 -0.343,0c-0.106,-0.061 -0.172,-0.175 -0.172,-0.297c0,-0.224 0,-0.45 0,-0.553c0,-0.035 0.019,-0.068 0.05,-0.086c0.188,-0.109 0.865,-0.5 1.348,-0.779Z" style="fill:#001b35;"/><path d="M148.079,115.583c0.106,-0.062 0.237,-0.062 0.343,-0c0.106,0.061 0.172,0.174 0.172,0.297c-0,0.296 -0,0.595 -0,0.609c-0,0.001 -0,0.001 -0.001,0.001c-0.023,0.014 -0.839,0.485 -1.398,0.807c-0.106,0.062 -0.236,0.062 -0.343,0c-0.106,-0.061 -0.171,-0.174 -0.171,-0.297c-0,-0.224 -0,-0.449 -0,-0.552c-0,-0.036 0.019,-0.069 0.05,-0.087c0.188,-0.108 0.865,-0.499 1.348,-0.778Z" style="fill:#001b35;"/><path d="M141.583,119.333c0.106,-0.061 0.237,-0.061 0.343,0c0.106,0.062 0.171,0.175 0.171,0.297c0,0.297 0,0.595 0,0.61c0,0.001 0,0.001 -0,0.001c-0.023,0.013 -0.839,0.485 -1.398,0.807c-0.106,0.061 -0.237,0.061 -0.343,0c-0.106,-0.061 -0.171,-0.174 -0.171,-0.297c-0,-0.224 -0,-0.45 -0,-0.553c-0,-0.035 0.019,-0.068 0.05,-0.086c0.187,-0.109 0.864,-0.5 1.348,-0.779Z" style="fill:#001b35;"/><path d="M135.086,123.084c0.107,-0.061 0.237,-0.061 0.343,-0c0.107,0.061 0.172,0.174 0.172,0.297c-0,0.296 -0,0.595 -0,0.61c-0,0 -0,0.001 -0.001,0.001c-0.023,0.013 -0.839,0.484 -1.397,0.807c-0.107,0.061 -0.237,0.061 -0.343,-0c-0.107,-0.061 -0.172,-0.175 -0.172,-0.297c0,-0.224 0,-0.45 0,-0.553c0,-0.036 0.019,-0.069 0.05,-0.087c0.188,-0.108 0.865,-0.499 1.348,-0.778Z" style="fill:#001b35;"/><path d="M128.59,126.835c0.106,-0.062 0.237,-0.062 0.343,-0c0.106,0.061 0.171,0.174 0.171,0.297c0,0.296 0,0.595 0,0.61c0,-0 0,0 -0,0c-0.023,0.014 -0.839,0.485 -1.398,0.807c-0.106,0.062 -0.237,0.062 -0.343,0c-0.106,-0.061 -0.171,-0.174 -0.171,-0.297c-0,-0.224 -0,-0.449 -0,-0.552c-0,-0.036 0.019,-0.069 0.05,-0.087c0.187,-0.108 0.864,-0.499 1.348,-0.778Z" style="fill:#001b35;"/><path d="M122.094,130.585c0.106,-0.061 0.236,-0.061 0.343,0c0.106,0.062 0.171,0.175 0.171,0.297c0,0.297 0,0.596 0,0.61c0,0.001 -0,0.001 -0,0.001c-0.024,0.014 -0.84,0.485 -1.398,0.807c-0.106,0.061 -0.237,0.061 -0.343,0c-0.106,-0.061 -0.172,-0.174 -0.172,-0.297c0,-0.224 0,-0.45 0,-0.553c0,-0.035 0.019,-0.068 0.05,-0.086c0.188,-0.109 0.865,-0.499 1.349,-0.779Z" style="fill:#001b35;"/><path d="M115.597,134.336c0.106,-0.061 0.237,-0.061 0.343,0c0.106,0.061 0.172,0.175 0.172,0.297c-0,0.296 -0,0.595 -0,0.61c-0,0 -0.001,0.001 -0.001,0.001c-0.023,0.013 -0.839,0.484 -1.398,0.807c-0.106,0.061 -0.237,0.061 -0.343,-0c-0.106,-0.061 -0.171,-0.175 -0.171,-0.297c-0,-0.224 -0,-0.45 -0,-0.553c-0,-0.036 0.019,-0.069 0.05,-0.086c0.188,-0.109 0.864,-0.5 1.348,-0.779Z" style="fill:#001b35;"/><path d="M154.585,105.982c0.106,-0.061 0.236,-0.061 0.343,0c0.106,0.062 0.171,0.175 0.171,0.297c0,0.297 0,0.596 0,0.61c0,0.001 -0,0.001 -0,0.001c-0.024,0.014 -0.84,0.485 -1.398,0.807c-0.106,0.061 -0.237,0.061 -0.343,0c-0.106,-0.061 -0.172,-0.174 -0.172,-0.297c0,-0.224 0,-0.45 0,-0.553c0,-0.035 0.019,-0.068 0.05,-0.086c0.188,-0.109 0.865,-0.499 1.349,-0.779Z" style="fill:#001b35;"/><path d="M154.55,100.413c0.106,-0.062 0.237,-0.062 0.343,-0c0.106,0.061 0.171,0.174 0.171,0.297c0,0.296 0,0.595 0,0.61c0,-0 0,0 -0,0c-0.023,0.014 -0.84,0.485 -1.398,0.807c-0.106,0.062 -0.237,0.062 -0.343,0c-0.106,-0.061 -0.172,-0.174 -0.172,-0.297c0,-0.224 0,-0.449 0,-0.552c0,-0.036 0.019,-0.069 0.05,-0.087c0.188,-0.108 0.865,-0.499 1.349,-0.778Z" style="fill:#001b35;"/><path d="M154.628,94.612c0.106,-0.061 0.237,-0.061 0.343,0c0.106,0.061 0.172,0.175 0.172,0.297c-0,0.296 -0,0.595 -0,0.61c-0,0 -0,0.001 -0.001,0.001c-0.023,0.013 -0.839,0.484 -1.397,0.807c-0.107,0.061 -0.237,0.061 -0.343,-0c-0.107,-0.061 -0.172,-0.175 -0.172,-0.297c0,-0.224 0,-0.45 0,-0.553c0,-0.036 0.019,-0.069 0.05,-0.086c0.188,-0.109 0.865,-0.5 1.348,-0.779Z" style="fill:#001b35;"/><path d="M154.61,111.812c0.106,-0.061 0.237,-0.061 0.343,0c0.106,0.061 0.171,0.175 0.171,0.297c0,0.296 0,0.595 0,0.61c0,0 0,0.001 -0,0.001c-0.023,0.013 -0.839,0.484 -1.398,0.807c-0.106,0.061 -0.237,0.061 -0.343,-0c-0.106,-0.061 -0.171,-0.175 -0.171,-0.297c-0,-0.224 -0,-0.45 -0,-0.553c-0,-0.036 0.019,-0.069 0.05,-0.087c0.187,-0.108 0.864,-0.499 1.348,-0.778Z" style="fill:#001b35;"/><path d="M145.837,91.904c0.065,0.03 2.02,1.164 2.07,1.206c0.238,0.205 0.384,0.579 0.384,1.083l0,7.078c0,1.058 -0.644,2.289 -1.438,2.747l-20.61,11.9c-0.314,0.18 -0.604,0.214 -0.84,0.123c-0.055,-0.021 -1.842,-0.996 -2.104,-1.218c-0.241,-0.204 -0.388,-0.58 -0.388,-1.086l-0,-7.078c-0,-1.058 0.644,-2.289 1.437,-2.747l20.611,-11.9c0.33,-0.191 0.635,-0.218 0.878,-0.108Z" style="fill:#001a35;"/><path d="M126.497,108.022c-0,-0.685 0.417,-1.482 0.931,-1.779l18.24,-10.531c0.514,-0.296 0.931,0.019 0.931,0.704l-0,4.585c-0,0.685 -0.417,1.483 -0.931,1.779l-18.24,10.531c-0.514,0.297 -0.931,-0.019 -0.931,-0.704l-0,-4.585Z" style="fill:#25bcb4;"/><path d="M147.704,92.987c-0.238,-0.097 -0.532,-0.065 -0.851,0.119l-20.61,11.899c-0.794,0.459 -1.438,1.689 -1.438,2.748l-0,7.078c-0,0.55 0.174,0.946 0.453,1.134c-0.441,-0.237 -1.738,-0.956 -1.959,-1.142c-0.241,-0.204 -0.388,-0.58 -0.388,-1.086l-0,-7.078c-0,-1.058 0.644,-2.289 1.437,-2.747l20.611,-11.9c0.33,-0.191 0.635,-0.218 0.878,-0.108c0.052,0.024 1.356,0.779 1.867,1.083Z" style="fill:#f0f0f0;fill-opacity:0.15;"/></svg>