<?xml version="1.0" encoding="UTF-8" standalone="no"?><!DOCTYPE svg PUBLIC "-//W3C//DTD SVG 1.1//EN" "http://www.w3.org/Graphics/SVG/1.1/DTD/svg11.dtd"><svg width="100%" height="100%" viewBox="0 0 200 200" version="1.1" xmlns="http://www.w3.org/2000/svg" xmlns:xlink="http://www.w3.org/1999/xlink" xml:space="preserve" xmlns:serif="http://www.serif.com/" style="fill-rule:evenodd;clip-rule:evenodd;stroke-linejoin:round;stroke-miterlimit:2;"><path d="M27.631,114.737c-0,0.779 -0,10.383 -0,11.029c-0,0.779 0.569,1.601 1.68,2.243l65.773,37.974c2.031,1.173 5.109,1.3 6.868,0.285l69.23,-39.97c0.797,-0.46 1.187,-1.077 1.187,-1.722c0,-0.78 0,-10.383 0,-11.029c0,-0.779 -0.569,-1.602 -1.68,-2.243l-65.773,-37.974c-2.031,-1.173 -5.109,-1.3 -6.868,-0.285l-69.23,39.97c-0.797,0.46 -1.187,1.076 -1.187,1.722Z" style="fill:#011a34;"/><path d="M101.952,166.019l0,-10.78c-1.759,1.015 -4.837,0.888 -6.868,-0.285l-65.773,-37.974c-1.141,-0.659 -1.711,-1.508 -1.679,-2.307c-0.001,0.022 -0.001,0.043 -0.001,0.064c-0,0.779 -0,10.135 -0,10.781c-0,0.779 0.569,1.601 1.68,2.243l65.773,37.974c2.031,1.173 5.109,1.3 6.868,0.284Z" style="fill:#fbfbfb;fill-opacity:0.03;"/><path d="M172.369,113.547c0,0.645 -0.39,1.262 -1.187,1.722l-69.23,39.97c-1.759,1.015 -4.837,0.888 -6.868,-0.285l-65.773,-37.974c-1.141,-0.659 -1.711,-1.508 -1.679,-2.307c-0.001,0.022 -0.001,0.043 -0.001,0.064c-0,0.779 -0,10.135 -0,10.781c-0,0.779 0.569,1.601 1.68,2.243l65.773,37.974c2.031,1.173 5.109,1.3 6.868,0.284l69.23,-39.969c0.797,-0.46 1.187,-1.077 1.187,-1.722c0,-0.78 0,-10.135 0,-10.781l0,-0Z" style="fill:#fbfbfb;fill-opacity:0.03;"/><path d="M101.952,166.019l0,-10.78c-1.759,1.015 -4.837,0.888 -6.868,-0.285l0,10.781c2.031,1.173 5.109,1.3 6.868,0.284Z" style="fill:#fbfbfb;fill-opacity:0.03;"/><path d="M97.924,155.86l0,10.796c0.397,0.048 0.796,0.07 1.188,0.063l-0,-10.796c-0.392,0.007 -0.791,-0.014 -1.188,-0.063Z" style="fill:#fbfbfb;fill-opacity:0.03;"/><path d="M27.489,85.936c-0,0.781 -0,28.266 -0,28.913c-0,0.781 0.57,1.605 1.683,2.248l65.902,38.048c2.036,1.175 5.119,1.303 6.882,0.285l69.366,-40.048c0.798,-0.461 1.189,-1.078 1.189,-1.725c0,-0.781 0,-28.266 0,-28.913c0,-0.781 -0.57,-1.605 -1.683,-2.247l-65.902,-38.049c-2.036,-1.175 -5.119,-1.303 -6.882,-0.285l-69.366,40.048c-0.798,0.461 -1.189,1.079 -1.189,1.725Z" style="fill:#0d273f;"/><path d="M172.511,84.744c0.001,0.647 -0.391,1.264 -1.189,1.725l-69.366,40.049c-1.763,1.017 -4.846,0.89 -6.882,-0.285l-65.902,-38.049c-1.143,-0.66 -1.714,-1.512 -1.682,-2.311c-0.001,0.021 -0.001,0.042 -0.001,0.063c-0,0.781 -0,28.266 -0,28.913c-0,0.781 0.57,1.605 1.683,2.248l65.902,38.048c2.036,1.175 5.119,1.303 6.882,0.285l69.366,-40.048c0.798,-0.461 1.189,-1.078 1.189,-1.725c0,-0.781 0,-28.266 0,-28.913l0,-0Z" style="fill:#f5f5f5;fill-opacity:0.04;"/><path d="M101.956,155.43l-0,-28.912c-1.763,1.017 -4.846,0.89 -6.882,-0.285l-65.902,-38.049c-1.143,-0.66 -1.714,-1.512 -1.682,-2.311c-0.001,0.021 -0.001,0.042 -0.001,0.063c-0,0.781 -0,28.266 -0,28.913c-0,0.781 0.57,1.605 1.683,2.248l65.902,38.048c2.036,1.175 5.119,1.303 6.882,0.285Z" style="fill:#f5f5f5;fill-opacity:0.04;"/><path d="M101.956,155.43l-0,-28.912c-1.763,1.017 -4.846,0.89 -6.882,-0.285l0,28.912c2.036,1.175 5.119,1.303 6.882,0.285Z" style="fill:#f5f5f5;fill-opacity:0.04;"/><path d="M97.92,127.14l0,28.913c0.398,0.049 0.798,0.07 1.19,0.063l0,-28.912c-0.392,0.006 -0.792,-0.015 -1.19,-0.064Z" style="fill:#f5f5f5;fill-opacity:0.04;"/><path d="M80.517,131.141c0.515,-0.254 2.553,-1.541 3.181,-1.83c0.829,-0.382 1.924,-0.273 3.125,0.42c2.581,1.49 4.676,5.12 4.676,8.1c0,1.387 -0.453,2.39 -1.198,2.917c-0.564,0.399 -2.738,1.576 -3.255,1.889c-0.85,0.516 -2.036,0.456 -3.348,-0.302c-2.581,-1.49 -4.676,-5.119 -4.676,-8.1c-0,-1.562 0.575,-2.638 1.495,-3.094Z" style="fill:#cecece;"/><path d="M83.698,132.359c2.188,1.263 3.963,4.339 3.963,6.864c0,2.526 -1.775,3.551 -3.963,2.288c-2.187,-1.262 -3.963,-4.338 -3.963,-6.864c0,-2.525 1.776,-3.551 3.963,-2.288Z" style="fill:#464646;fill-opacity:0.18;"/><path d="M80.521,131.14c0.52,-0.259 2.551,-1.541 3.177,-1.829c0.829,-0.382 1.924,-0.273 3.125,0.42c2.581,1.49 4.676,5.12 4.676,8.1c0,1.387 -0.453,2.39 -1.198,2.917c-0.562,0.397 -2.723,1.568 -3.25,1.886c0.819,-0.5 1.324,-1.536 1.324,-2.999c-0,-2.98 -2.096,-6.61 -4.677,-8.1c-1.226,-0.708 -2.343,-0.807 -3.177,-0.395Z" style="fill:#464646;fill-opacity:0.18;"/><path d="M84.533,134.275c1.041,0.601 1.886,2.065 1.886,3.268c-0,1.202 -0.845,1.69 -1.886,1.089c-1.041,-0.601 -1.887,-2.065 -1.887,-3.268c0,-1.202 0.846,-1.69 1.887,-1.089Z" style="fill:#25bcb4;"/><path d="M67.261,123.488c0.515,-0.255 2.553,-1.542 3.181,-1.831c0.828,-0.382 1.924,-0.272 3.124,0.421c2.582,1.49 4.677,5.119 4.677,8.1c0,1.386 -0.453,2.389 -1.198,2.916c-0.564,0.399 -2.738,1.576 -3.255,1.89c-0.85,0.515 -2.036,0.455 -3.348,-0.302c-2.581,-1.49 -4.677,-5.12 -4.677,-8.1c0,-1.563 0.576,-2.639 1.496,-3.094Z" style="fill:#cecece;"/><path d="M70.442,124.706c2.187,1.262 3.963,4.338 3.963,6.864c0,2.525 -1.776,3.551 -3.963,2.288c-2.187,-1.263 -3.963,-4.339 -3.963,-6.864c-0,-2.526 1.776,-3.551 3.963,-2.288Z" style="fill:#464646;fill-opacity:0.18;"/><path d="M67.265,123.486c0.52,-0.259 2.55,-1.54 3.177,-1.829c0.828,-0.382 1.924,-0.272 3.124,0.421c2.582,1.49 4.677,5.119 4.677,8.1c0,1.386 -0.453,2.389 -1.198,2.916c-0.563,0.398 -2.724,1.568 -3.25,1.887c0.819,-0.5 1.324,-1.536 1.324,-2.999c-0,-2.981 -2.096,-6.61 -4.677,-8.1c-1.226,-0.708 -2.343,-0.807 -3.177,-0.396Z" style="fill:#464646;fill-opacity:0.18;"/><path d="M71.276,126.622c1.041,0.601 1.887,2.065 1.887,3.267c-0,1.202 -0.846,1.69 -1.887,1.089c-1.041,-0.601 -1.886,-2.065 -1.886,-3.267c0,-1.202 0.845,-1.69 1.886,-1.089Z" style="fill:#25bcb4;"/><path d="M64.722,127.739l-1.583,-3.026l-30.889,-17.833l-1.583,1.197l-0,4.223l1.583,3.025l30.889,17.834l1.583,-1.197l0,-4.223Z" style="fill:#010101;fill-opacity:0.29;"/><path d="M64.722,129.454l-34.055,-19.662l-0,0.785l34.055,19.662l0,-0.785Z" style="fill:#010101;fill-opacity:0.29;"/><path d="M64.722,116.389l-1.583,-3.025l-30.889,-17.834l-1.583,1.197l-0,4.223l1.583,3.026l30.889,17.833l1.583,-1.197l0,-4.223Z" style="fill:#010101;fill-opacity:0.29;"/><path d="M64.722,118.104l-34.055,-19.662l-0,0.785l34.055,19.663l0,-0.786Z" style="fill:#010101;fill-opacity:0.29;"/><path d="M27.489,75.424c-0,0.78 -0,10.383 -0,11.029c-0,0.779 0.569,1.602 1.68,2.243l65.773,37.974c2.031,1.173 5.109,1.3 6.868,0.285l69.23,-39.97c0.796,-0.46 1.187,-1.076 1.187,-1.722c-0,-0.779 -0,-10.383 -0,-11.029c-0,-0.779 -0.569,-1.601 -1.681,-2.243l-65.772,-37.974c-2.032,-1.173 -5.109,-1.3 -6.868,-0.285l-69.23,39.97c-0.797,0.46 -1.187,1.077 -1.187,1.722Z" style="fill:#011a34;"/><path d="M101.81,126.707l-0,-10.781c-1.759,1.016 -4.837,0.888 -6.868,-0.285l-65.773,-37.974c-1.141,-0.659 -1.711,-1.508 -1.679,-2.306c-0.001,0.021 -0.001,0.042 -0.001,0.063c-0,0.78 -0,10.135 -0,10.781c-0,0.779 0.569,1.602 1.68,2.243l65.773,37.974c2.031,1.173 5.109,1.3 6.868,0.285Z" style="fill:#fbfbfb;fill-opacity:0.03;"/><path d="M172.227,74.234c0,0.646 -0.39,1.262 -1.187,1.722l-69.23,39.97c-1.759,1.016 -4.837,0.888 -6.868,-0.285l-65.773,-37.974c-1.141,-0.659 -1.711,-1.508 -1.679,-2.306c-0.001,0.021 -0.001,0.042 -0.001,0.063c-0,0.78 -0,10.135 -0,10.781c-0,0.779 0.569,1.602 1.68,2.243l65.773,37.974c2.031,1.173 5.109,1.3 6.868,0.285l69.23,-39.97c0.796,-0.46 1.187,-1.076 1.187,-1.722c-0,-0.78 -0,-10.135 -0,-10.781l-0,0Z" style="fill:#fbfbfb;fill-opacity:0.03;"/><path d="M101.81,126.707l-0,-10.781c-1.759,1.016 -4.837,0.888 -6.868,-0.285l-0,10.781c2.031,1.173 5.109,1.3 6.868,0.285Z" style="fill:#fbfbfb;fill-opacity:0.03;"/><path d="M97.782,116.547l0,10.796c0.397,0.049 0.796,0.07 1.188,0.063l-0,-10.796c-0.392,0.007 -0.791,-0.014 -1.188,-0.063Z" style="fill:#fbfbfb;fill-opacity:0.03;"/></svg>