<?xml version="1.0" encoding="UTF-8" standalone="no"?><!DOCTYPE svg PUBLIC "-//W3C//DTD SVG 1.1//EN" "http://www.w3.org/Graphics/SVG/1.1/DTD/svg11.dtd"><svg width="100%" height="100%" viewBox="0 0 200 200" version="1.1" xmlns="http://www.w3.org/2000/svg" xmlns:xlink="http://www.w3.org/1999/xlink" xml:space="preserve" xmlns:serif="http://www.serif.com/" style="fill-rule:evenodd;clip-rule:evenodd;stroke-linejoin:round;stroke-miterlimit:2;"><path d="M49.175,125.139c0.781,-6.872 5.715,-13.613 14.801,-18.859c19.882,-11.479 52.166,-11.479 72.048,0c9.118,5.264 14.054,12.035 14.809,18.927l0.102,0l0,25.465l-0.014,-0c-0.295,7.296 -5.26,14.542 -14.897,20.105c-19.882,11.479 -52.166,11.479 -72.048,0c-9.637,-5.563 -14.602,-12.809 -14.897,-20.105l-0.014,-0l0.102,-25.465l0.008,-0.068Z" style="fill:#001b35;"/><path d="M150.833,125.207l0.102,0l0,25.465l-0.014,-0c-0.295,7.296 -5.26,14.542 -14.897,20.105c-19.882,11.479 -52.166,11.479 -72.048,0c-9.637,-5.563 -14.602,-12.809 -14.897,-20.105l-0.014,-0l-0,-25.465l0.102,0c-0.891,8.142 4.045,16.455 14.809,22.67c19.882,11.479 52.166,11.479 72.048,-0c10.764,-6.215 15.7,-14.528 14.809,-22.67Z" style="fill:#626161;fill-opacity:0.19;"/><path d="M67.145,108.11c18.133,-10.47 47.577,-10.47 65.71,-0c18.133,10.469 18.133,27.468 0,37.938c-18.133,10.469 -47.577,10.469 -65.71,-0c-18.133,-10.47 -18.133,-27.469 -0,-37.938Z" style="fill:#fafafa;fill-opacity:0.14;"/><path d="M80.967,119.749c10.505,-6.065 27.561,-6.065 38.066,-0c10.505,6.064 10.505,15.912 0,21.977c-10.505,6.065 -27.561,6.065 -38.066,0c-10.505,-6.065 -10.505,-15.913 -0,-21.977Z" style="fill:#25bcb4;"/><path d="M49.175,90.358c0.781,-6.871 5.715,-13.612 14.801,-18.858c19.882,-11.479 52.166,-11.479 72.048,0c9.118,5.264 14.054,12.034 14.809,18.927l0.102,0l0,25.464l-0.014,0c-0.295,7.297 -5.26,14.542 -14.897,20.106c-19.882,11.479 -52.166,11.479 -72.048,0c-9.637,-5.564 -14.602,-12.809 -14.897,-20.106l-0.014,0l0.102,-25.464l0.008,-0.069Z" style="fill:#001b35;"/><path d="M150.833,90.427l0.102,0l0,25.464l-0.014,0c-0.295,7.297 -5.26,14.542 -14.897,20.106c-19.882,11.479 -52.166,11.479 -72.048,0c-9.637,-5.564 -14.602,-12.809 -14.897,-20.106l-0.014,0l-0,-25.464l0.102,0c-0.891,8.142 4.045,16.455 14.809,22.67c19.882,11.479 52.166,11.479 72.048,-0c10.764,-6.215 15.7,-14.528 14.809,-22.67Z" style="fill:#626161;fill-opacity:0.19;"/><path d="M67.145,73.33c18.133,-10.47 47.577,-10.47 65.71,-0c18.133,10.469 18.133,27.468 0,37.937c-18.133,10.47 -47.577,10.47 -65.71,0c-18.133,-10.469 -18.133,-27.468 -0,-37.937Z" style="fill:#fafafa;fill-opacity:0.14;"/><path d="M80.967,84.969c10.505,-6.065 27.561,-6.065 38.066,-0c10.505,6.064 10.505,15.912 0,21.977c-10.505,6.065 -27.561,6.065 -38.066,0c-10.505,-6.065 -10.505,-15.913 -0,-21.977Z" style="fill:#25bcb4;"/><path d="M49.175,56.02c0.781,-6.871 5.715,-13.612 14.801,-18.858c19.882,-11.479 52.166,-11.479 72.048,0c9.118,5.264 14.054,12.035 14.809,18.927l0.102,0l0,25.464l-0.014,0c-0.295,7.297 -5.26,14.543 -14.897,20.106c-19.882,11.479 -52.166,11.479 -72.048,0c-9.637,-5.563 -14.602,-12.809 -14.897,-20.106l-0.014,0l0.102,-25.464l0.008,-0.069Z" style="fill:#001b35;"/><path d="M150.833,56.089l0.102,0l0,25.464l-0.014,0c-0.295,7.297 -5.26,14.543 -14.897,20.106c-19.882,11.479 -52.166,11.479 -72.048,0c-9.637,-5.563 -14.602,-12.809 -14.897,-20.106l-0.014,0l-0,-25.464l0.102,0c-0.891,8.142 4.045,16.455 14.809,22.67c19.882,11.479 52.166,11.479 72.048,-0c10.764,-6.215 15.7,-14.528 14.809,-22.67Z" style="fill:#626161;fill-opacity:0.19;"/><path d="M67.145,38.992c18.133,-10.47 47.577,-10.47 65.71,-0c18.133,10.469 18.133,27.468 0,37.937c-18.133,10.47 -47.577,10.47 -65.71,0c-18.133,-10.469 -18.133,-27.468 -0,-37.937Z" style="fill:#fafafa;fill-opacity:0.14;"/><path d="M80.967,50.631c10.505,-6.065 27.561,-6.065 38.066,-0c10.505,6.064 10.505,15.912 0,21.977c-10.505,6.065 -27.561,6.065 -38.066,0c-10.505,-6.065 -10.505,-15.913 -0,-21.977Z" style="fill:#25bcb4;"/><path d="M87.482,54.392c6.909,-3.989 18.127,-3.989 25.036,0c6.909,3.989 6.909,10.466 -0,14.455c-6.909,3.988 -18.127,3.988 -25.036,-0c-6.909,-3.989 -6.909,-10.466 0,-14.455Z" style="fill:#f7f7f7;fill-opacity:0.38;"/></svg>