<?xml version="1.0" encoding="UTF-8" standalone="no"?><!DOCTYPE svg PUBLIC "-//W3C//DTD SVG 1.1//EN" "http://www.w3.org/Graphics/SVG/1.1/DTD/svg11.dtd"><svg width="100%" height="100%" viewBox="0 0 200 200" version="1.1" xmlns="http://www.w3.org/2000/svg" xmlns:xlink="http://www.w3.org/1999/xlink" xml:space="preserve" xmlns:serif="http://www.serif.com/" style="fill-rule:evenodd;clip-rule:evenodd;stroke-linejoin:round;stroke-miterlimit:2;"><g><path d="M72.161,169.205c-1.345,-2.954 -2.199,-6.446 -2.709,-10.494c-0.034,-0.03 -0.067,-0.063 -0.099,-0.1c-1.135,-1.302 -1.09,-1.511 -1.735,-2.251c-1.205,-1.383 1.299,-3.745 1.299,-3.745c0,-0 0.009,0 0.026,0.002c-0.166,-3.45 -0.177,-7.221 -0.096,-11.322c-0.013,-0.018 -0.026,-0.038 -0.037,-0.06c-1.533,-5.858 -1.112,-11.863 1.311,-18.021c1.394,-13.699 3.418,-30.851 2.894,-41.001l45.391,-10.638c0.626,12.142 3.626,29.015 6.856,41.972c0.403,1.618 0.774,3.268 1.103,4.952c1.312,3.265 2.826,6.427 1.609,10.972c-0.004,0.109 -0.065,0.173 -0.169,0.197c0.359,5.962 0.072,12.331 -1.176,19.188c0.064,-0.084 0.098,-0.129 0.098,-0.129c0,-0 1.808,13.989 0.218,14.802c-1.901,0.972 -3.978,5.75 -6.501,3.632c-3.094,4.757 -7.845,9.389 -13.894,12.126c-0.493,0.541 -1.072,1.094 -1.834,1.423c-0.705,0.305 -2.209,0.604 -3.098,0.286c-0.943,0.232 -1.91,0.416 -2.9,0.549c-0.206,0.186 -0.414,0.399 -0.623,0.648c-0.483,0.578 -1.119,0.171 -1.667,-0.437c-0.896,0.046 -1.81,0.049 -2.739,0.006c-0.57,0.603 -1.143,1.168 -1.477,1.397c-0.415,0.285 -1.113,-0.526 -1.71,-1.718c-0.957,-0.149 -1.929,-0.346 -2.917,-0.594c-0.753,0.452 -1.511,0.695 -2.034,0.645c-1.073,-0.104 -3.736,-1.665 -5.499,-3.541c-1.128,-0.638 -2.149,-1.358 -3.072,-2.159c-0.292,0.216 -0.596,0.433 -0.884,0.56c-2.967,1.312 -4.572,-4.415 -3.935,-7.147Z" style="fill:#dad1bb;"/><path d="M105.122,94.861c-2.251,1.299 -8.934,-7.578 -8.934,-7.578c-0,0 -1.808,13.989 -0.218,14.803c1.953,0.999 4.093,6.018 6.713,3.438c0.586,-2.47 0.184,-5.449 1.203,-4.566c3.44,2.981 7.906,2.912 11.784,5.111c1.686,0.957 1.382,-5.077 3.506,-5.521c3.97,-0.83 2.613,-6.961 2.613,-6.961c-0.08,4.108 -11.539,4.254 -13.93,-1.455c-1.47,-0.581 -1.812,2.195 -2.737,2.729Z" style="fill:#fff;fill-opacity:0.31;"/><path d="M74.855,102.422c-1.966,-0.514 -0.216,-13.81 1.559,-13.993c0,0 0.306,4.446 3.508,5.662c3.67,1.394 9.676,-0.938 11.29,-1.071c-0.368,5.942 -6.515,9.552 -7.373,9.577c-1.053,0.031 -4.54,-1.496 -4.865,-3.288c-1.387,1.943 -3.304,3.326 -4.119,3.113Z" style="fill:#fff;fill-opacity:0.31;"/><path d="M71.928,160.054c-0.806,1.188 -1.884,-0.652 -2.575,-1.443c-1.135,-1.302 -1.09,-1.511 -1.735,-2.251c-1.205,-1.383 1.299,-3.745 1.299,-3.745c0,-0 0.012,1.292 1.341,2.367c2.437,1.971 5.25,1.504 5.878,2.321c0.399,-1.093 3.609,-3.72 3.609,-3.72c-0,-0 -0.171,4.451 2.887,5.934c3.504,1.7 9.732,-0.11 11.352,-0.105c-1,5.884 -7.506,8.953 -8.362,8.906c-1.052,-0.059 -4.36,-1.876 -4.491,-3.687c-1.589,1.816 -4.058,3.428 -4.434,2.748c-0.389,-0.706 -0.267,-4.71 -0.457,-5.554c-0.053,0.004 -1.596,0.692 -1.66,0.689c-1.654,-0.092 -2.097,-1.727 -2.652,-2.46Z" style="fill:#fff;fill-opacity:0.31;"/><path d="M100.922,180.188c0.134,1.383 2.783,0.96 3.794,0.522c1.664,-0.719 2.451,-2.5 3.396,-2.91c1.766,-0.765 2.071,-4.245 2.071,-4.245c0,-0 -0.801,1.238 -2.526,1.678c-3.162,0.807 -7.662,1.494 -9.475,1.621c-3.214,2.951 -5.533,-5.541 -6.253,-5.284c-2.243,0.799 -5.511,4.233 -9.26,3.659c-7.413,-1.134 -8.942,-5.768 -10.398,-6.403c-0.901,2.533 0.713,8.902 3.825,7.526c0.969,-0.428 2.111,-1.863 2.383,-0.887c0.771,2.763 5.54,5.878 7.072,6.027c1.048,0.101 3.031,-0.974 4.046,-2.547c0.526,2.256 1.941,4.676 2.615,4.214c0.699,-0.479 2.44,-2.43 3.028,-3.112c0.046,0.025 1.806,3.398 2.855,2.146c0.993,-1.184 1.966,-1.567 2.827,-2.005Z" style="fill:#fff;fill-opacity:0.31;"/><path d="M70.202,123.01c0.192,3.75 0.644,7.29 3.412,8.951c2.603,-0.103 5.161,-2.635 7.702,-6.071c-0.593,5.077 -0.553,10.131 -5.571,15.362c-0.639,1.061 -4.01,-3.5 -2.946,-4.84c0.408,-0.514 -3.366,6.073 -3.989,4.823c-1.55,-5.922 -1.102,-11.996 1.392,-18.225Z" style="fill:#fff;fill-opacity:0.31;"/><path d="M81.263,126.359l0.004,-0.006c-0.593,5.076 -0.177,11.083 -5.194,16.314c-0.562,0.933 -3.235,-2.478 -3.151,-4.228c0.718,1.687 2.392,3.529 2.823,2.813c4.863,-5.07 4.975,-9.974 5.518,-14.893Zm-8.639,10.434c0.032,-0.145 0.089,-0.273 0.175,-0.381c0.078,-0.099 0.003,0.064 -0.175,0.381c-0.092,0.417 0.023,0.968 0.256,1.544c-0.828,1.455 -3.254,5.293 -3.742,4.313c-0.13,-0.496 -0.246,-0.994 -0.348,-1.492l0.02,0.077c0.504,1.01 3.066,-3.101 3.814,-4.442Z" style="fill-opacity:0.13;"/><path d="M118.454,119.222c1.377,2.362 2.84,4.517 5.071,4.819c1.54,-0.788 2.235,-3.13 2.617,-6.047c1.347,3.434 3.071,6.679 1.795,11.441c-0.03,0.861 -2.262,4.152 -4.199,1.913c-2.928,-3.385 -4.698,-7.422 -5.284,-12.126Z" style="fill:#fff;fill-opacity:0.31;"/><path d="M91.252,115.736c0.966,2.69 2.169,5.193 5.483,6.037c2.78,-0.411 5.018,-2.576 7.055,-5.392c0.39,3.752 1.457,7.405 -2.881,11.841c-0.473,0.851 -5.567,3.589 -7.464,0.886c-2.866,-4.086 -3.614,-8.54 -2.193,-13.372Z" style="fill:#fff;fill-opacity:0.31;"/><path d="M104.182,121.307c0.253,2.799 0.02,5.669 -3.211,8.973c-0.472,0.851 -5.567,3.589 -7.463,0.886c-2.048,-2.918 -3.015,-6.025 -2.882,-9.322c0.26,2.539 1.203,4.96 2.819,7.264c1.897,2.703 6.991,-0.035 7.464,-0.886c2.446,-2.501 3.174,-4.753 3.273,-6.915Z" style="fill-opacity:0.11;"/><path d="M117.793,156.305c2.251,1.299 8.934,-7.578 8.934,-7.578c0,-0 1.808,13.989 0.218,14.802c-1.954,0.999 -4.093,6.019 -6.713,3.438c-0.586,-2.469 -0.184,-5.449 -1.204,-4.565c-3.439,2.981 -7.905,2.912 -11.783,5.111c-1.686,0.956 -1.382,-5.078 -3.506,-5.522c-3.97,-0.829 -2.613,-6.96 -2.613,-6.96c0.08,4.107 11.538,4.253 13.93,-1.455c1.47,-0.581 1.812,2.195 2.737,2.729Z" style="fill:#fff;fill-opacity:0.31;"/><path d="M100.923,156.609c-0.114,1.876 0.149,4.825 2.816,5.382c2.124,0.444 1.82,6.478 3.506,5.522c3.878,-2.199 8.344,-2.13 11.783,-5.111c1.02,-0.884 0.618,2.096 1.204,4.565c0.077,0.076 0.229,0.208 0.229,0.208l-0.592,0.817c0,-0 -0.1,-0.47 -0.136,-0.705c-0.347,-2.248 0.072,-4.405 -0.851,-3.605c-3.44,2.981 -7.905,2.912 -11.783,5.111c-1.686,0.956 -1.382,-5.078 -3.506,-5.522c-3.443,-0.719 -2.88,-5.425 -2.67,-6.662Z" style="fill-opacity:0.14;"/><path d="M93.835,160.121c0.124,-0.011 0.234,-0.017 0.329,-0.017c-1.001,5.884 -7.507,8.953 -8.363,8.906c-1.052,-0.059 -4.359,-1.876 -4.491,-3.687c-1.589,1.816 -4.058,3.428 -4.434,2.748c-0.07,-0.128 -0.124,-0.365 -0.166,-0.671c0.417,0.624 2.849,-0.973 4.421,-2.769c0.131,1.811 3.439,3.628 4.491,3.687c0.821,0.046 6.839,-2.776 8.213,-8.197Zm-24.303,-0.818l-0.076,-0.57c0,0 1.705,2.451 2.472,1.321c0.555,0.733 0.998,2.368 2.652,2.46c0.064,0.003 1.607,-0.685 1.66,-0.689c0.035,0.152 0.059,0.409 0.078,0.73c-0.355,0.146 -1.504,0.654 -1.559,0.651c-1.654,-0.092 -2.097,-1.727 -2.652,-2.46c-0.75,1.105 -1.736,-0.411 -2.425,-1.264c-0.052,-0.064 -0.15,-0.179 -0.15,-0.179Z" style="fill-opacity:0.14;"/></g><path d="M169.328,71.817c-0.332,3.524 -1.271,6.635 -2.726,9.381c-0.658,2.891 -5.036,11.521 -9.848,11.781c-0.813,0.044 -1.552,-0.869 -2.019,-0.173c-1.323,1.97 -4.418,3.698 -5.873,4.064c-0.975,0.246 -1.854,-0.012 -2.451,-0.836l-0.093,0.031c-1.087,1.606 -5.515,4.435 -6.03,4.25c-0.544,-0.196 -1.733,-1.188 -2.13,-1.538c-0.048,0.025 -6.401,3.806 -7.101,3.158c-0.592,-0.548 -0.454,-1.888 -0.92,-2.268l-0.391,0.055c-2.693,1.975 -3.026,1.053 -3.379,0.427c-0.715,0.082 -1.433,0.159 -2.154,0.232c-0.939,0.667 -1.852,1.644 -2.445,1.918c-1.922,0.888 -6.953,-0.111 -7.706,-1.162c-4.607,0.234 -9.234,0.341 -13.773,0.38c-4.479,0.039 -11.341,0.249 -19.101,-0.046c-1.153,1.1 -3.955,2.185 -5.547,1.449c-0.6,-0.276 -1.526,-1.271 -2.474,-1.938c-0.813,-0.07 -1.631,-0.147 -2.453,-0.233c-1.155,0.715 -3.192,1.967 -6.153,-0.264c-0.704,0.141 -1.524,0.225 -2.186,0.838c-0.7,0.648 -3.076,-1.9 -3.124,-1.924c-0.397,0.35 -1.586,1.341 -2.13,1.537c-0.525,0.189 -2.371,-1.665 -3.354,-3.255c-0.599,0.867 -4.224,0.062 -5.22,-0.189c-1.455,-0.366 -4.55,-2.095 -5.873,-4.064c-0.467,-0.696 -1.213,0.057 -2.019,0.173c-2.528,0.361 -6.475,-5.195 -6.401,-6.879c-4.294,-4.648 -6.93,-10.723 -6.958,-18.663c-0.125,-36.672 53.708,-50.6 70.395,-51.107c27.571,-0.838 62.035,19.486 70.05,42.261c1.381,2.937 3.217,6.386 3.43,8.184c0.282,2.381 -1.824,4.441 -1.824,4.441c-0,0 -0.007,-0.007 -0.019,-0.021Z" style="fill:#745d4b;"/><path d="M114.062,101.137c-4.607,0.234 -9.234,0.341 -13.773,0.38c-4.479,0.039 -11.341,0.249 -19.101,-0.046c-1.153,1.1 -3.955,2.185 -5.547,1.449c-0.6,-0.276 -1.526,-1.271 -2.474,-1.938c-0.813,-0.07 -1.631,-0.147 -2.453,-0.233c-1.155,0.715 -3.192,1.967 -6.153,-0.264c-0.704,0.141 -1.524,0.225 -2.186,0.838c-0.7,0.648 -3.076,-1.9 -3.124,-1.924c-0.397,0.35 -1.586,1.341 -2.13,1.537c-0.525,0.189 -2.371,-1.665 -3.354,-3.255c-0.599,0.867 -4.224,0.062 -5.22,-0.189c-1.455,-0.366 -4.55,-2.095 -5.873,-4.064c-0.467,-0.696 -1.213,0.057 -2.019,0.173c-2.528,0.361 -6.475,-5.195 -6.401,-6.879c-4.294,-4.648 -6.93,-10.723 -6.958,-18.663c-0.007,-2.05 0.155,-4.029 0.47,-5.943c5.792,30.23 55.726,27.696 72.443,27.552c29.974,-0.257 63.812,-3.478 68.598,-26.729c0.41,1.867 0.633,3.743 0.653,5.618c0.05,4.9 -0.97,9.078 -2.858,12.641c-0.658,2.891 -5.036,11.521 -9.848,11.781c-0.813,0.044 -1.552,-0.869 -2.019,-0.173c-1.323,1.97 -4.418,3.698 -5.873,4.064c-0.975,0.246 -1.854,-0.012 -2.451,-0.836l-0.032,0.01l-0.061,0.021c-1.087,1.606 -5.515,4.435 -6.03,4.25c-0.544,-0.196 -1.733,-1.188 -2.13,-1.538c-0.048,0.025 -6.401,3.806 -7.101,3.158c-0.592,-0.548 -0.454,-1.888 -0.92,-2.268l-0.091,0.013l-0.3,0.042c-2.693,1.975 -3.026,1.053 -3.379,0.427c-0.715,0.082 -1.433,0.159 -2.154,0.232c-0.939,0.667 -1.852,1.644 -2.445,1.918c-1.922,0.888 -6.953,-0.111 -7.706,-1.162Z" style="fill:#fff;fill-opacity:0.12;"/><path d="M93.904,75.457c0.783,0.623 3.107,-3.634 3.107,-3.634c0,-0 0.629,6.708 0.076,7.098c-0.679,0.479 -1.424,2.886 -2.335,1.649c-0.204,-1.184 -0.064,-2.613 -0.418,-2.19c-1.197,1.43 -2.75,1.397 -4.099,2.451c-0.586,0.459 -0.48,-2.435 -1.219,-2.647c-1.381,-0.398 -0.909,-3.338 -0.909,-3.338c0.028,1.969 4.013,2.04 4.845,-0.698c0.511,-0.278 0.63,1.053 0.952,1.309Z" style="fill:#fff;fill-opacity:0.31;"/><path d="M71.492,45.436c0.033,0.711 3.407,-1.25 3.407,-1.25c-0,0 -3.304,4.71 -3.773,4.761c-0.576,0.063 -2.216,1.387 -1.98,0.218c0.54,-0.867 1.372,-1.766 0.979,-1.618c-1.328,0.501 -2.039,-0.107 -3.238,0.087c-0.521,0.084 1.081,-1.805 0.849,-2.226c-0.435,-0.786 1.364,-2.568 1.364,-2.568c-1.043,1.324 0.788,2.875 2.647,1.364c0.389,0.007 -0.269,0.94 -0.255,1.232Z" style="fill:#fff;fill-opacity:0.31;"/><path d="M39.634,40.607c16.894,-16.462 46.455,-23.302 58.057,-23.655c20.696,-0.629 45.277,10.666 59.641,25.975c0.002,0.092 0.004,0.181 0.005,0.27c0.246,23.963 -30.406,27.074 -57.304,27.305c-14.694,0.126 -60.366,2.482 -60.469,-27.718c-0.003,-0.735 0.021,-1.459 0.07,-2.177Z" style="fill:#fff;fill-opacity:0.08;"/><path d="M143.13,35.477c0.71,0.048 -2.982,-4.258 -2.982,-4.258c0,-0 6.469,4.565 6.755,5.136c0.353,0.701 2.527,2.841 1.213,2.41c-1.155,-0.758 -2.492,-1.872 -2.143,-1.379c1.177,1.661 0.911,2.441 1.708,3.908c0.347,0.638 -2.386,-1.527 -2.7,-1.299c-0.587,0.424 -3.309,-1.963 -3.309,-1.963c1.876,1.421 2.546,-0.59 0.071,-3.017c-0.187,-0.468 1.095,0.441 1.387,0.462Z" style="fill:#fff;fill-opacity:0.31;"/><path d="M51.882,35.029c-0.711,0.015 3.186,-4.107 3.186,-4.107c-0,-0 -6.683,4.245 -6.997,4.801c-0.386,0.683 -2.662,2.715 -1.329,2.349c1.192,-0.701 2.581,-1.749 2.208,-1.274c-1.256,1.602 -1.028,2.394 -1.896,3.821c-0.377,0.62 2.458,-1.409 2.76,-1.167c0.566,0.453 3.4,-1.8 3.4,-1.8c-1.942,1.329 -2.513,-0.713 0.077,-3.016c0.209,-0.458 -1.116,0.388 -1.409,0.393Z" style="fill:#fff;fill-opacity:0.31;"/><path d="M64.535,87.569c-0.417,0.481 -0.945,0.841 -1.589,0.84c-1.03,-0.003 -2.129,1.39 -3.944,1.385c-1.103,-0.004 -3.873,-0.712 -3.78,-2.107c-0.95,0.061 -2.005,0.021 -3.214,0.749c-1.278,0.769 -2.511,-3.24 -2.552,-3.284c-0.714,0.413 -2.813,1.567 -3.605,1.737c-0.763,0.163 -1.803,-2.779 -1.963,-5.184c-1.297,1.094 -3.497,1.298 -4.547,0.758c-1.536,-0.79 -5.878,-5.819 -6.204,-8.82c-0.115,-1.06 -1.517,-0.152 -2.576,-0.146c-3.4,0.019 -3.985,-6.829 -2.646,-8.902c1.379,1.229 2.166,6.362 9.531,10.588c3.725,2.138 7.627,0.192 10.046,0.364c0.776,0.055 1.726,9.256 5.492,7.755c1.87,0.642 6.57,1.876 9.926,2.429c1.831,0.302 2.854,-0.559 2.854,-0.559c-0,-0 -0.034,0.124 -0.104,0.324c0.274,-0.296 0.49,-0.486 0.49,-0.486c0,-0 0.12,1.123 1.716,1.917c2.925,1.455 6.077,0.746 6.856,1.39c0.362,-0.994 3.787,-3.625 3.787,-3.625c-0,-0 0.172,3.893 3.762,4.857c4.113,1.104 11.027,-1.139 12.866,-1.308c-0.651,5.229 -7.776,8.599 -8.751,8.649c-1.197,0.062 -5.098,-1.165 -5.397,-2.728c-1.652,1.751 -4.319,3.419 -4.801,2.867c-0.5,-0.572 -0.69,-4.072 -0.975,-4.786c-0.06,0.01 -1.753,0.774 -1.826,0.778c-1.884,0.097 -2.521,-1.279 -3.211,-1.857c-0.815,1.12 -2.19,-0.366 -3.038,-0.981c-1.395,-1.011 -1.361,-1.199 -2.153,-1.774c-0.321,-0.233 -0.448,-0.525 -0.45,-0.84Z" style="fill:#fff;fill-opacity:0.31;"/><path d="M64.561,100.485c3.798,2.862 6.077,-0.008 6.921,-0.122c1.387,-0.187 3.195,2.112 4.159,2.557c2.195,1.014 6.693,-1.432 5.992,-2.609c-2.222,0.005 -10.553,0.568 -12.864,-3.184c-1.246,-2.024 -4.82,1.283 -6.477,1.05c-1.489,0.89 -3.584,-5.594 -4.226,-4.736c-0.887,1.187 -2.443,2.268 -5.038,1.966c-2.256,-0.263 -2.49,-3.825 -4.434,-4.165c-2.442,-0.428 -4.495,0.961 -6.349,0.475c-3.215,-0.843 -6.486,-4.435 -7.978,-5.111c-0.282,1.524 3.799,7.365 6.388,6.995c0.806,-0.116 1.552,-0.869 2.019,-0.173c1.323,1.969 4.418,3.698 5.873,4.064c0.996,0.251 4.621,1.056 5.22,0.189c0.983,1.59 2.829,3.444 3.354,3.255c0.544,-0.196 1.733,-1.187 2.13,-1.537c0.048,0.024 2.424,2.572 3.124,1.924c0.662,-0.613 1.482,-0.697 2.186,-0.838Z" style="fill:#fff;fill-opacity:0.31;"/><path d="M129.875,99.569c-3.799,2.862 -3.172,0.28 -4.016,0.166c-1.387,-0.187 -3.195,2.112 -4.159,2.557c-2.195,1.014 -8.447,-0.432 -7.747,-1.608c2.223,0.004 8.377,0.258 10.687,-3.494c1.247,-2.024 8.752,0.591 10.409,0.359c1.489,0.89 3.584,-5.594 4.226,-4.736c0.887,1.187 6.189,0.706 8.784,0.404c2.256,-0.263 -1.256,-2.263 0.688,-2.603c2.442,-0.429 4.495,0.961 6.349,0.475c3.215,-0.843 10.019,-9.974 11.511,-10.65c0.281,1.525 -4.55,12.243 -9.921,12.534c-0.813,0.044 -1.552,-0.869 -2.019,-0.173c-1.323,1.969 -4.418,3.698 -5.873,4.064c-0.996,0.251 -1.891,-0.023 -2.489,-0.89c-0.984,1.589 -5.56,4.523 -6.085,4.334c-0.544,-0.196 -1.733,-1.187 -2.13,-1.537c-0.048,0.024 -6.401,3.806 -7.101,3.158c-0.662,-0.614 -0.41,-2.219 -1.114,-2.36Z" style="fill:#fff;fill-opacity:0.31;"/><path d="M41.953,59.957c-1.06,0.912 -3.289,-0.879 -3.953,-1.759c-1.094,-1.448 -0.639,-3.163 -1.26,-3.986c-1.16,-1.539 0.898,-4.197 0.898,-4.197c0,0 -0.075,1.335 1.266,2.619c2.456,2.352 6.264,5.371 7.899,6.482c1.06,3.913 8.99,-0.85 9.5,-0.262c1.589,1.831 2.375,6.12 6.32,7.817c7.801,3.355 12.379,0.904 14.189,1.269c-0.854,2.315 -6.682,5.958 -8.707,3.227c-0.631,-0.851 -0.747,-2.518 -1.664,-1.973c-2.596,1.54 -9.224,1.085 -10.778,0.331c-1.063,-0.516 -2.219,-2.399 -2.122,-4.092c-2.021,1.315 -4.997,2.249 -5.325,1.54c-0.34,-0.735 -0.676,-3.107 -0.775,-3.925c-0.06,-0.007 -4.007,1.413 -4.158,-0.07c-0.143,-1.405 -0.808,-2.224 -1.33,-3.021Z" style="fill:#fff;fill-opacity:0.31;"/><path d="M120.134,87.192c-2.34,-2.229 -9.175,0.432 -11.53,-1.81c-1.237,-1.178 7.046,-1.874 7.295,-3.563c0.019,-0.132 0.187,-1.443 0.375,-1.454c0.451,-0.026 2.468,1.84 2.839,2.103c1.73,1.23 4.041,2.501 6.052,2.496c1.925,-0.005 1.562,-3.336 2.211,-3.581c0.474,-0.179 2.743,1.882 2.815,1.504c0.102,-0.534 0.721,-4.032 1.929,-4.099c0.142,-0.008 1.683,1.998 2.811,1.82c4.241,-0.669 5.398,-11.296 4.931,-11.741c-0.294,-0.28 0.767,6.182 2.909,6.641c1.585,0.34 4.154,-0.206 4.705,-1.991c0.06,-0.192 1.875,-4.463 2.173,-4.318c1.162,0.567 1.203,4.667 2.701,4.108c0.749,-0.28 0.925,-5.772 1.693,-6.304c0.874,-0.605 2.067,3.38 3.101,2.994c0.485,-0.181 9.727,-12.719 9.994,-12.109c1.373,3.148 3.787,7.431 4.033,9.509c0.282,2.381 -1.824,4.441 -1.824,4.441c-0,0 -1.553,-1.703 -2.085,-3.419c-1.563,-5.039 -3.821,-1.574 -3.877,5.214c-0.021,2.58 -4.715,-0.961 -6.817,-1.015c-1.405,-0.036 -1.281,3.024 -1.254,3.91c0.005,0.169 -2.813,6.451 -4.145,7.371c-0.945,0.652 -1.236,-3.694 -2.515,-3.242c-1.616,0.571 -4.519,1.253 -4.433,1.487c0.3,0.813 -3.004,5.547 -3.519,5.353c-1.807,-0.678 -3.166,-2.333 -4.961,-2.394c-0.941,-0.032 -2.353,5.104 -2.633,5.293c-1.426,0.962 -1.075,-3.597 -2.544,-2.582c-0.626,0.432 -0.622,1.692 -0.715,2.397c-0.061,0.462 -3.695,-3.003 -3.851,-2.568c-1.145,3.206 -3.441,6.621 -4.742,5.382l-1.122,-5.833Z" style="fill:#745d4b;"/><path d="M120.134,87.192c-2.34,-2.229 -9.175,0.432 -11.53,-1.81c-1.237,-1.178 7.046,-1.874 7.295,-3.563c0.019,-0.132 0.187,-1.443 0.375,-1.454c0.451,-0.026 2.468,1.84 2.839,2.103c1.73,1.23 4.041,2.501 6.052,2.496c1.925,-0.005 1.562,-3.336 2.211,-3.581c0.474,-0.179 2.743,1.882 2.815,1.504c0.102,-0.534 0.721,-4.032 1.929,-4.099c0.142,-0.008 1.683,1.998 2.811,1.82c4.241,-0.669 5.398,-11.296 4.931,-11.741c-0.294,-0.28 0.767,6.182 2.909,6.641c1.585,0.34 4.154,-0.206 4.705,-1.991c0.06,-0.192 1.875,-4.463 2.173,-4.318c1.162,0.567 1.203,4.667 2.701,4.108c0.749,-0.28 0.925,-5.772 1.693,-6.304c0.874,-0.605 2.067,3.38 3.101,2.994c0.485,-0.181 9.727,-12.719 9.994,-12.109c1.373,3.148 3.787,7.431 4.033,9.509c0.282,2.381 -1.824,4.441 -1.824,4.441c-0,0 -1.553,-1.703 -2.085,-3.419c-1.563,-5.039 -3.821,-1.574 -3.877,5.214c-0.021,2.58 -4.715,-0.961 -6.817,-1.015c-1.405,-0.036 -1.281,3.024 -1.254,3.91c0.005,0.169 -2.813,6.451 -4.145,7.371c-0.945,0.652 -1.236,-3.694 -2.515,-3.242c-1.616,0.571 -4.519,1.253 -4.433,1.487c0.3,0.813 -3.004,5.547 -3.519,5.353c-1.807,-0.678 -3.166,-2.333 -4.961,-2.394c-0.941,-0.032 -2.353,5.104 -2.633,5.293c-1.426,0.962 -1.075,-3.597 -2.544,-2.582c-0.626,0.432 -0.622,1.692 -0.715,2.397c-0.061,0.462 -3.695,-3.003 -3.851,-2.568c-1.145,3.206 -3.441,6.621 -4.742,5.382l-1.122,-5.833Z" style="fill:#fff;fill-opacity:0.35;"/><path d="M108.429,38.119c-0.036,-0.421 -0.055,-0.671 -0.055,-0.671c-0,0 3.517,5.399 4.263,4.412c0.307,-0.405 0.157,-2.242 0.79,-1.952c1.518,3.588 5.977,2.793 5.588,0.102c0,-0 1.157,3.927 -0.308,4.712c-0.784,0.42 -0.048,4.349 -0.805,3.826c-1.739,-1.201 -3.476,-0.884 -5.124,-2.624c-0.488,-0.516 -0.026,1.409 -0.003,3.06c-0.746,1.819 -2.064,-1.204 -2.93,-1.811c-0.427,0.809 -0.527,4.053 -1.509,2.505c-0.416,-1.59 -0.608,-3.556 -0.804,-2.934c-0.659,2.101 -1.917,2.252 -2.779,3.86c-0.374,0.699 -0.906,-3.261 -1.547,-3.458c-1.197,-0.369 -1.444,-4.439 -1.444,-4.439c0.443,2.683 3.668,2.277 3.755,-1.562c0.352,-0.445 0.732,1.356 1.046,1.665c0.763,0.751 1.728,-5.349 1.728,-5.349c-0,0 0.052,0.245 0.138,0.658Z" style="fill:#fff;fill-opacity:0.31;"/></svg>