<?xml version="1.0" encoding="UTF-8" standalone="no"?><!DOCTYPE svg PUBLIC "-//W3C//DTD SVG 1.1//EN" "http://www.w3.org/Graphics/SVG/1.1/DTD/svg11.dtd"><svg width="100%" height="100%" viewBox="0 0 200 200" version="1.1" xmlns="http://www.w3.org/2000/svg" xmlns:xlink="http://www.w3.org/1999/xlink" xml:space="preserve" xmlns:serif="http://www.serif.com/" style="fill-rule:evenodd;clip-rule:evenodd;stroke-linejoin:round;stroke-miterlimit:2;"><g><path d="M78.619,94.558c0.139,-1.861 0.197,-3.587 0.125,-5.135l37.535,-9.855c0.078,1.699 0.079,3.424 0.081,5.18c1.173,2.509 2.046,11.218 0.848,12.213c1.101,5.602 3.638,11.6 9.489,18.168l-0.005,-0.031c4.334,1.878 9.193,0.021 10.071,7.976c0.703,0.288 1.397,0.526 2.086,0.736c-0.127,-0.153 -0.197,-0.236 -0.197,-0.236c1.544,-0.974 17.089,-0.345 12.579,5.255c0.479,0.371 0.965,0.778 1.459,1.225c6.316,5.709 15.002,34.37 0.485,47.09c-4.999,4.381 -9.05,7.711 -15.498,9.207c-0.753,1.204 -2.691,2.595 -4.162,2.848c-3.02,0.52 -6.916,-0.724 -9.832,-1.921c-3.845,-0.016 -7.958,-0.224 -12.109,-1.125c-0.479,0.371 -0.904,0.643 -1.171,0.749c-0.739,0.296 -6.044,-0.057 -7.481,-3.81c-2.353,-1.215 -4.665,-2.774 -6.89,-4.776c-2.597,-0.579 -6.903,-2.788 -7.843,-3.559c-3.903,-3.206 -2.172,-5.783 -2.309,-10.46c-4.224,-8.66 -7.586,-20.555 -9.529,-36.888c-0.701,-5.893 -0.128,-12.527 0.637,-18.884c-3.408,-2.422 -0.937,-14.829 1.631,-13.967Z" style="fill:#dad1bb;"/><path d="M85.305,102.52c-1.933,1.085 -6.659,-7.952 -6.659,-7.952c-2.659,-0.99 -5.237,12.333 -1.313,14.158c1.688,0.785 3.028,5.777 5.34,3.527c0.627,-2.253 0.468,-5.029 1.258,-4.159c2.666,2.934 6.356,3.102 9.428,5.337c1.336,0.971 1.436,-4.624 3.214,-4.924c3.326,-0.562 2.562,-6.301 2.562,-6.301c-0.306,3.794 -9.77,3.335 -11.412,-2.067c-1.18,-0.613 -1.623,1.936 -2.418,2.381Z" style="fill:#fff;fill-opacity:0.31;"/><path d="M117.064,97.04c1.626,-0.477 0.179,-12.795 -1.289,-12.964c-0,0 -0.253,4.119 -2.901,5.246c-3.035,1.291 -8.001,-0.87 -9.336,-0.993c0.304,5.505 5.388,8.849 6.097,8.873c0.871,0.029 3.754,-1.386 4.023,-3.046c1.147,1.8 2.732,3.081 3.406,2.884Z" style="fill:#fff;fill-opacity:0.31;"/><path d="M123.045,175.663c0.743,0.718 1.739,-1.147 2.376,-2.022c1.049,-1.44 1.007,-1.598 1.602,-2.417c1.112,-1.529 -1.199,-2.666 -1.199,-2.666c-0,0 -0.011,1.069 -1.238,2.385c-2.249,2.413 -4.846,2.937 -5.426,3.814c-0.368,-0.772 -3.331,-1.899 -3.331,-1.899c-0,0 0.157,3.613 -2.666,5.825c-3.234,2.534 -8.983,3.057 -10.479,3.585c0.924,4.525 6.929,4.951 7.719,4.634c0.971,-0.388 4.025,-2.955 4.146,-4.491c1.467,0.983 3.746,1.513 4.093,0.831c0.359,-0.707 0.246,-3.968 0.421,-4.725c0.049,-0.013 1.474,0.054 1.533,0.031c1.527,-0.611 1.936,-2.102 2.449,-2.885Z" style="fill:#fff;fill-opacity:0.31;"/><path d="M127.313,170.553c-0.03,0.213 -0.12,0.437 -0.29,0.671c-0.595,0.819 -0.553,0.977 -1.602,2.417c-0.637,0.875 -1.633,2.74 -2.376,2.022c-0.513,0.783 -0.922,2.274 -2.449,2.885c-0.059,0.023 -1.484,-0.044 -1.533,-0.031c-0.175,0.757 -0.062,4.018 -0.421,4.725c-0.347,0.682 -2.626,0.152 -4.093,-0.831c-0.055,0.702 -0.723,1.619 -1.525,2.446c-0.469,0.483 -1.448,1.295 -1.448,1.295l0.636,0.155c0,-0 0.694,-0.628 1.017,-0.972c0.742,-0.789 1.341,-1.644 1.393,-2.307c1.467,0.983 3.746,1.513 4.093,0.831c0.359,-0.708 0.246,-3.968 0.422,-4.725c0.048,-0.013 1.473,0.054 1.532,0.031c1.527,-0.611 1.936,-2.102 2.449,-2.885c0.743,0.718 1.739,-1.147 2.376,-2.022c1.049,-1.44 1.007,-1.598 1.602,-2.417c0.345,-0.475 0.361,-0.912 0.217,-1.288Z" style="fill-opacity:0.16;"/><path d="M111.374,123.311c4.091,0.928 8.279,1.583 13.336,-0.194c3.045,-2.153 2.443,-4.953 1.982,-8.019c4.506,1.952 9.578,-0.132 10.156,8.969c0.318,0.828 -3.137,5.948 -8.409,5.651c-7.968,-0.448 -13.674,-2.571 -17.065,-6.407Z" style="fill:#fff;fill-opacity:0.31;"/><path d="M97.47,161.241c-0.043,-0.526 -0.071,-1.062 -0.085,-1.606c1.155,2.511 2.418,4.79 4.635,5.009c1.162,-3.847 5.839,0.837 12.538,-2.324c4.215,-1.989 17.507,-9.035 16.795,-15.682c4.786,10.04 -11.541,24.488 -25.419,23.676c-0.105,0.866 -2.989,-0.764 -3.212,-2.022c0.025,-0.278 0.028,-0.414 0.005,-0.32c-0.024,0.102 -0.025,0.209 -0.005,0.32c-0.107,1.169 -0.604,4.845 -1.203,4.319c-0.44,-0.598 -0.846,-1.217 -1.216,-1.858c-0.154,0.852 -0.413,1.756 -0.804,2.724c-0.069,0.604 0.857,4.617 -2.151,4.966c-2.049,0.238 -8.031,-2.76 -9.159,-3.686c-4.207,-3.456 -1.867,-6.181 -2.379,-11.595c1.915,2.529 3.98,4.799 7.373,4.763c2.22,-1.094 3.461,-3.592 4.287,-6.684Z" style="fill:#fff;fill-opacity:0.31;"/><path d="M132.124,149.236c2.553,9.906 -12.821,22.876 -25.99,22.105c-0.105,0.866 -2.989,-0.764 -3.213,-2.022c0.025,-0.277 0.029,-0.414 0.006,-0.32c-0.025,0.102 -0.025,0.21 -0.006,0.32c-0.106,1.17 -0.603,4.845 -1.202,4.319c-0.44,-0.597 -0.846,-1.217 -1.217,-1.858c-0.153,0.853 -0.413,1.756 -0.803,2.724c-0.07,0.604 0.857,4.617 -2.151,4.966c-0.039,0.005 -0.12,0.01 -0.12,0.01l-1.384,-1.161c-0,-0 0.964,0.164 1.304,0.124c3.008,-0.349 2.082,-4.362 2.151,-4.966c0.391,-0.968 0.65,-1.872 0.804,-2.724c0.37,0.641 0.776,1.26 1.216,1.858c0.599,0.526 1.096,-3.15 1.203,-4.319c-0.02,-0.111 -0.019,-0.218 0.005,-0.32c0.023,-0.094 0.02,0.042 -0.005,0.32c0.223,1.258 3.107,2.888 3.212,2.022c12.718,0.744 27.492,-11.327 26.19,-21.078Z" style="fill-opacity:0.16;"/><path d="M97.215,127.243c0.065,-0.629 0.15,-1.268 0.253,-1.913c0.813,3.216 1.803,6.183 4.371,6.927c2.126,-0.749 3.79,-3.603 5.282,-7.238c0.398,4.57 1.313,8.96 -1.905,14.786c-0.314,0.999 -3.36,-1.556 -3.348,-3.09c0.091,-0.322 0.124,-0.482 0.077,-0.376c-0.052,0.115 -0.076,0.242 -0.077,0.376c-0.382,1.357 -1.774,5.586 -2.365,4.834c-0.389,-0.802 -0.732,-1.621 -1.029,-2.46c-0.368,0.973 -0.872,1.983 -1.545,3.039c-0.36,1.172 -5.645,5.379 -8.429,2.071c-4.207,-5 -6.048,-10.742 -5.465,-17.243c1.706,3.404 3.644,6.536 7.657,7.236c2.86,-0.804 4.871,-3.48 6.523,-6.949Z" style="fill:#fff;fill-opacity:0.31;"/><path d="M150.815,153.839c-1.08,-0.487 -2.004,-1.131 -2.004,-1.131c3.438,1.495 1.386,-10.403 -3.867,-15.093c-0.768,-1.757 1.502,-1.046 1.775,-1.806c0.665,-1.85 -8.067,-12.235 -8.067,-12.235c1.562,-0.986 17.472,-0.329 12.404,5.464c-0.928,1.061 5.838,6.584 4.165,8.325c-1.965,-0.338 -4.547,-1.903 -3.61,-0.5c2.25,3.373 3.298,6.694 4.649,10.094c0.198,0.261 0.328,0.538 0.368,0.828c0.008,0.058 0.021,0.116 0.04,0.175l0.088,0.211l0.013,0.029c0.58,1.124 2.665,2.478 2.921,4.364c0.175,1.291 -0.603,4.452 -3.051,4.18c0.262,1.12 0.365,2.351 1.833,3.851c1.552,1.585 -5.235,2.562 -5.304,2.606c0.836,0.883 3.194,3.475 3.618,4.421c0.41,0.913 -4.546,1.789 -8.713,1.697c2.12,1.645 2.838,4.244 2.069,5.412c-1.125,1.706 -9.177,9.164 -14.355,9.197c-1.829,0.011 2.016,0.151 2.201,1.392c0.187,1.259 -2.544,3.548 -4.473,3.879c-4.174,0.718 -10.02,-1.932 -12.641,-3.17c1.916,-1.471 10.733,-1.795 16.89,-9.927c3.114,-4.113 -0.919,-8.908 -1.016,-11.719c-0.032,-0.903 15.851,-0.945 12.616,-5.529c0.406,-1.057 0.954,-2.927 1.451,-5.015Z" style="fill:#fff;fill-opacity:0.31;"/><path d="M150.371,172.865c0.684,1.282 0.793,2.595 0.306,3.335c-1.012,1.536 -7.639,7.733 -12.728,8.978c-0.44,-1.11 -3.918,-1.239 -2.162,-1.25c5.178,-0.033 13.23,-7.491 14.355,-9.197c0.298,-0.453 0.373,-1.122 0.229,-1.866Zm6.252,-4.833c0.329,0.429 0.584,0.804 0.699,1.059c0.381,0.851 -3.896,1.669 -7.854,1.702c-0.364,-0.529 -0.83,-1.036 -1.395,-1.474c3.535,0.078 7.637,-0.54 8.55,-1.287Zm1.879,-6.539c0.148,0.186 0.315,0.376 0.505,0.571c1.25,1.277 -2.912,2.159 -4.613,2.477c-0.493,-0.555 -0.945,-1.044 -1.226,-1.34c0.055,-0.035 4.347,-0.658 5.334,-1.708Zm1.197,-8.851c0.262,0.43 0.458,0.892 0.526,1.391c0.176,1.291 -0.603,4.452 -3.051,4.18c0.07,0.298 0.128,0.603 0.204,0.919c-0.464,-0.873 -0.568,-1.654 -0.739,-2.388c2.4,0.266 3.195,-2.767 3.06,-4.102Zm-9.005,1.141c0.04,0.019 0.081,0.037 0.121,0.056c-0.087,0.364 -0.175,0.722 -0.264,1.07c-0.7,-0.38 -1.659,-2.127 -1.659,-2.127c0.627,0.272 1.064,0.656 1.802,1.001Zm-5.249,-15.689c1.841,1.875 3.245,4.62 4.102,7.236c-0.954,-2.373 -2.337,-4.701 -4.068,-6.246c-0.218,-0.499 -0.191,-0.799 -0.034,-0.99Zm6.737,-0.335c-0.182,-0.298 -0.372,-0.597 -0.571,-0.896c-0.937,-1.403 1.645,0.162 3.61,0.5c0.202,-0.21 0.281,-0.475 0.265,-0.781c0.534,0.933 0.752,1.749 0.27,2.25c-1.344,-0.231 -2.976,-1.036 -3.574,-1.073Zm-12.47,-12.897c2.148,2.647 6.832,8.615 7.036,10.583c-1.815,-3.568 -7.561,-10.402 -7.561,-10.402c0.109,-0.069 0.288,-0.129 0.525,-0.181Zm11.505,3.985l1.005,0.789c-0,-0 -0.364,0.566 -0.63,0.871c-0.013,0.014 -0.024,0.029 -0.034,0.045c-0.482,-0.699 -0.735,-1.248 -0.502,-1.514c0.057,-0.065 0.161,-0.191 0.161,-0.191Z" style="fill-opacity:0.15;"/><path d="M82.963,130.554c0.268,5.042 2.123,9.588 5.537,13.645c2.784,3.308 8.069,-0.899 8.429,-2.071c0.673,-1.056 1.177,-2.066 1.545,-3.039c0.297,0.839 0.64,1.658 1.029,2.46c0.591,0.752 1.983,-3.477 2.365,-4.834c0.001,-0.134 0.025,-0.261 0.077,-0.376c0.047,-0.106 0.014,0.054 -0.077,0.376c-0.012,1.534 3.034,4.089 3.348,3.09c1.787,-3.234 2.299,-6.025 2.334,-8.651c0.153,3.094 -0.151,6.347 -2.302,10.241c-0.314,0.999 -3.36,-1.556 -3.348,-3.09c0.09,-0.322 0.124,-0.482 0.077,-0.377c-0.052,0.116 -0.076,0.242 -0.077,0.377c-0.382,1.357 -1.774,5.586 -2.365,4.833c-0.389,-0.801 -0.732,-1.621 -1.029,-2.459c-0.368,0.973 -0.872,1.982 -1.546,3.039c-0.359,1.172 -5.644,5.379 -8.428,2.071c-3.768,-4.479 -5.638,-9.553 -5.569,-15.235Z" style="fill-opacity:0.15;"/><path d="M136.852,124.348c0.015,0.167 0.027,0.337 0.038,0.511c0.318,0.828 -3.129,5.638 -8.409,5.652c-10.05,0.026 -16.971,-6.148 -16.131,-6.202c3.465,3.208 8.842,5.001 16.089,5.409c4.844,0.273 8.153,-4.026 8.413,-5.37Z" style="fill-opacity:0.15;"/></g><path d="M173.498,72.537c-0.351,3.735 -1.347,7.031 -2.888,9.94c-0.697,3.062 -5.336,12.206 -10.433,12.481c-0.862,0.047 -1.645,-0.92 -2.14,-0.183c-1.401,2.087 -4.68,3.918 -6.222,4.306c-1.033,0.26 -1.964,-0.013 -2.597,-0.887l-0.098,0.033c-1.151,1.702 -5.842,4.7 -6.388,4.503c-0.577,-0.208 -1.837,-1.258 -2.258,-1.629c-0.05,0.026 -6.781,4.032 -7.522,3.346c-0.627,-0.581 -0.481,-2.001 -0.975,-2.403l-0.415,0.058c-2.852,2.092 -3.206,1.115 -3.579,0.452c-0.758,0.087 -1.519,0.169 -2.282,0.246c-0.994,0.707 -1.962,1.742 -2.59,2.032c-2.037,0.94 -7.367,-0.117 -8.165,-1.231c-4.88,0.248 -9.783,0.361 -14.592,0.403c-4.744,0.04 -12.015,0.263 -20.236,-0.049c-1.222,1.166 -4.19,2.314 -5.877,1.535c-0.635,-0.293 -1.616,-1.346 -2.621,-2.053c-0.862,-0.074 -1.727,-0.156 -2.599,-0.247c-1.223,0.757 -3.381,2.084 -6.518,-0.279c-0.746,0.148 -1.615,0.237 -2.316,0.887c-0.742,0.687 -3.259,-2.012 -3.31,-2.039c-0.42,0.371 -1.68,1.422 -2.257,1.629c-0.555,0.201 -2.512,-1.764 -3.553,-3.448c-0.634,0.918 -4.475,0.065 -5.53,-0.201c-1.542,-0.388 -4.821,-2.219 -6.222,-4.306c-0.495,-0.737 -1.286,0.062 -2.14,0.184c-2.677,0.382 -6.86,-5.504 -6.781,-7.288c-4.549,-4.924 -7.342,-11.361 -7.371,-19.773c-0.134,-38.852 56.9,-53.607 74.579,-54.145c29.21,-0.888 65.723,20.645 74.215,44.774c1.462,3.111 3.408,6.766 3.633,8.67c0.299,2.523 -1.932,4.705 -1.932,4.705c-0,0 -0.007,-0.008 -0.02,-0.023Z" style="fill:#745d4b;"/><path d="M79.504,79.602c-1.006,0.652 -1.698,-4.409 -1.698,-4.409c0,0 -6.502,2.329 -6.017,2.898c0.596,0.698 1.635,6.703 2.945,5.309c0.54,-1.436 4.737,-2.697 5.001,-2.117c0.889,1.955 2.558,2.153 3.712,3.667c0.502,0.658 1.176,-2.944 2.024,-3.094c1.584,-0.281 1.879,-3.997 1.879,-3.997c-0.566,2.437 -4.843,1.911 -4.987,-1.609c-0.471,-0.423 -2.445,3.085 -2.859,3.352Z" style="fill:#fff;fill-opacity:0.31;"/><path d="M114.946,103.601c-4.88,0.248 -9.783,0.361 -14.592,0.403c-4.744,0.04 -12.015,0.263 -20.236,-0.049c-1.222,1.166 -4.19,2.314 -5.877,1.535c-0.635,-0.293 -1.616,-1.346 -2.621,-2.053c-0.862,-0.074 -1.727,-0.156 -2.599,-0.247c-1.223,0.757 -3.381,2.084 -6.518,-0.279c-0.746,0.148 -1.615,0.237 -2.316,0.887c-0.742,0.687 -3.259,-2.012 -3.31,-2.039c-0.42,0.371 -1.68,1.422 -2.257,1.629c-0.555,0.201 -2.512,-1.764 -3.553,-3.448c-0.634,0.918 -4.475,0.065 -5.53,-0.201c-1.542,-0.388 -4.821,-2.219 -6.222,-4.306c-0.495,-0.737 -1.286,0.062 -2.14,0.184c-2.677,0.382 -6.86,-5.504 -6.781,-7.288c-4.549,-4.924 -7.342,-11.361 -7.371,-19.773c-0.008,-2.171 0.163,-4.268 0.497,-6.296c6.137,32.027 59.039,29.343 76.75,29.19c31.756,-0.272 67.605,-3.685 72.676,-28.318c0.434,1.979 0.671,3.966 0.691,5.952c0.054,5.191 -1.027,9.617 -3.027,13.393c-0.697,3.062 -5.336,12.206 -10.433,12.481c-0.862,0.047 -1.645,-0.92 -2.14,-0.183c-1.401,2.087 -4.68,3.918 -6.222,4.306c-1.033,0.26 -1.964,-0.013 -2.597,-0.887l-0.033,0.012l-0.065,0.021c-1.151,1.702 -5.842,4.7 -6.388,4.503c-0.577,-0.208 -1.837,-1.258 -2.258,-1.629c-0.05,0.026 -6.781,4.032 -7.522,3.346c-0.627,-0.581 -0.481,-2.001 -0.975,-2.403l-0.097,0.014l-0.318,0.044c-2.852,2.092 -3.206,1.115 -3.579,0.452c-0.758,0.087 -1.519,0.169 -2.282,0.246c-0.994,0.707 -1.962,1.742 -2.59,2.032c-2.037,0.94 -7.367,-0.117 -8.165,-1.231Z" style="fill:#fff;fill-opacity:0.12;"/><path d="M36.094,39.473c17.898,-17.441 49.216,-24.688 61.508,-25.062c21.927,-0.666 47.969,11.301 63.187,27.52c0.002,0.097 0.004,0.191 0.005,0.285c0.261,25.388 -32.214,28.684 -60.71,28.929c-15.568,0.134 -63.955,2.629 -64.065,-29.366c-0.002,-0.779 0.023,-1.546 0.075,-2.306Z" style="fill:#fff;fill-opacity:0.08;"/><path d="M46.884,47.025c0.55,-1.226 1.108,-2.241 1.108,-2.241c-1.593,3.494 1.358,5.012 4.23,0.46c0.614,-0.314 -0.387,2.083 -0.354,2.648c0.081,1.376 5.325,-5.342 5.325,-5.342c-0,0 -0.913,2.197 -2.018,4.755c0.383,-0.591 0.631,-0.958 0.631,-0.958c-0,0 2.773,8.329 5.005,8.332c0.917,0.002 2.037,-1.682 3.062,-0.747c0.226,4.635 9.63,8.876 10.939,6.223c0,0 -0.746,4.519 -4.241,3.558c-1.869,-0.514 -3.447,3.543 -4.535,2.28c-2.503,-2.904 -6.172,-4.549 -8.08,-7.798c-0.565,-0.963 -1.138,1.135 -2.364,2.527c-2.922,0.694 -3.151,-3.395 -4.444,-4.787c-0.087,-0.094 -0.128,-0.239 -0.129,-0.426c-1.089,1.143 -2.986,3.915 -2.701,1.725c0.817,-2.166 2.093,-4.645 1.478,-4.02c-2.075,2.111 -3.22,1.509 -5.103,2.903c-0.818,0.606 1.633,-4.476 1.25,-5.111c-0.351,-0.58 0.132,-2.082 0.716,-3.464c-0.953,0.957 -2.532,2.244 -3.713,1.709c-0.966,-0.438 -4.02,2.636 -4.102,1.642c-0.189,-2.287 -1.768,-3.635 -1.397,-6.173c0.111,-0.752 -1.31,0.845 -2.805,1.883c-2.256,0.464 -0.368,-2.678 -0.52,-3.777c-0.124,-0.894 7.823,-7.244 7.823,-7.244c-0,-0 -2.337,6.454 -0.879,6.509c0.599,0.023 2.17,-1.243 2.374,-0.501c-1.973,3.249 1.217,6.428 3.444,5.435Z" style="fill:#fff;fill-opacity:0.31;"/><path d="M156.809,42.317c0.741,0.173 -2.407,-4.918 -2.407,-4.918c0,-0 6.034,5.836 6.237,6.476c0.25,0.786 2.173,3.374 0.861,2.703c-1.088,-0.983 -2.305,-2.366 -2.023,-1.796c0.954,1.921 0.537,2.683 1.123,4.338c0.255,0.719 -2.253,-1.99 -2.624,-1.809c-0.694,0.339 -3.151,-2.6 -3.151,-2.6c1.732,1.793 2.79,-0.173 0.599,-3.11c-0.116,-0.516 1.08,0.645 1.385,0.716Z" style="fill:#fff;fill-opacity:0.31;"/><path d="M62.635,29.931c-0.868,0.355 -1.758,0.62 -1.998,0.345c-0.27,-0.309 -3.608,1.27 -3.098,0.695c1.174,-1.323 1.086,-2.192 2.698,-3.625c0.478,-0.425 -1.168,0.406 -2.542,0.911c-1.459,0.13 1.297,-1.558 1.829,-2.197c0.432,-0.521 8.2,-3.685 8.2,-3.685c0,0 -4.841,3.561 -4.096,3.681c0.306,0.049 1.847,-0.582 1.542,-0.144c-2.154,1.314 -2.729,2.781 -2.138,3.24c0.34,-0.564 0.712,-1.019 0.712,-1.019c-0.262,0.415 -0.293,0.825 -0.163,1.163c0.255,-0.009 0.57,-0.089 0.94,-0.254c0,-0 -0.356,0.191 -0.854,0.429c0.456,0.761 1.807,1.02 3.017,-0.193c0.411,-0.035 -0.18,1.02 -0.134,1.326c0.078,0.513 1.687,-0.484 2.681,-1.154c0.181,-0.552 0.36,-0.948 0.36,-0.948c-0.074,0.261 -0.088,0.509 -0.052,0.738c0.281,-0.195 0.464,-0.328 0.464,-0.328c-0,-0 -0.144,0.258 -0.373,0.662c0.604,1.52 3.551,1.963 5.011,-0.452c0.603,-0.171 0.265,1.401 0.497,1.792c0.564,0.95 4.33,-3.284 4.33,-3.284c-0,0 -1.672,7.934 -2.355,8.222c-0.838,0.354 -2.402,2.915 -2.883,1.218c0.203,-1.428 0.831,-3.037 0.334,-2.652c-1.677,1.299 -3.208,0.804 -4.908,1.625c-0.74,0.357 0.356,-2.954 -0.305,-3.417c-0.483,-0.339 -0.552,-1.043 -0.456,-1.775c-0.896,1.535 -2.053,3.43 -2.343,3.493c-0.599,0.13 -2.182,1.705 -2.062,0.448c0.473,-0.973 1.251,-2.013 0.853,-1.813c-1.344,0.675 -2.161,0.112 -3.402,0.449c-0.54,0.146 0.94,-2.021 0.649,-2.439c-0.177,-0.254 -0.117,-0.646 0.045,-1.058Z" style="fill:#fff;fill-opacity:0.31;"/><path d="M108.367,54.515c0.659,0.948 1.402,1.803 1.842,1.617c0.496,-0.209 2.877,3.696 2.744,2.698c-0.305,-2.295 0.39,-3.285 -0.295,-5.975c-0.203,-0.797 0.935,1.189 2.015,2.623c1.429,1.034 -0.27,-2.651 -0.38,-3.738c-0.09,-0.885 -5.985,-9.357 -5.985,-9.357c0,-0 2.572,7.188 1.713,6.883c-0.352,-0.125 -1.52,-1.81 -1.506,-1.101c1.333,2.874 0.913,4.981 -0.02,5.176c0.037,-0.882 -0.035,-1.652 -0.035,-1.652c-0.015,0.657 -0.267,1.167 -0.637,1.495c-0.259,-0.165 -0.532,-0.45 -0.803,-0.871c0,0 0.239,0.444 0.593,1.03c-1.003,0.639 -2.59,0.137 -3.008,-2.048c-0.404,-0.289 -0.52,1.333 -0.781,1.673c-0.437,0.569 -1.421,-1.595 -1.991,-2.997c0.194,-0.773 0.282,-1.355 0.282,-1.355c-0.104,0.357 -0.261,0.663 -0.457,0.916c-0.158,-0.403 -0.256,-0.673 -0.256,-0.673c0,0 -0.029,0.397 -0.071,1.02c-1.683,1.461 -5.06,0.22 -4.905,-3.558c-0.509,-0.568 -1.248,1.523 -1.76,1.852c-1.247,0.801 -2.232,-6.546 -2.232,-6.546c0,-0 -3.761,10.531 -3.25,11.287c0.628,0.929 0.479,4.945 2.158,3.196c0.779,-1.836 1.241,-4.146 1.491,-3.385c0.846,2.569 2.784,2.896 3.985,4.904c0.522,0.874 1.678,-3.76 2.687,-3.919c0.738,-0.116 1.297,-0.92 1.706,-1.855c-0.132,2.38 -0.241,5.352 0.017,5.601c0.534,0.517 1.09,3.361 1.837,1.779c0.182,-1.453 0.093,-3.169 0.369,-2.689c0.932,1.619 2.172,1.434 3.231,2.585c0.461,0.5 0.423,-2.992 1.016,-3.318c0.361,-0.199 0.569,-0.705 0.686,-1.298Z" style="fill:#fff;fill-opacity:0.31;"/><path d="M60.856,91.953c0.588,1.801 3.583,2.494 4.641,2.412c1.741,-0.135 2.117,-2.012 3.105,-2.089c1.847,-0.146 1.126,-4.382 1.126,-4.382c0,-0 -0.561,1.187 -2.461,0.943c-3.482,-0.449 -8.58,-1.667 -10.682,-2.346c-2.877,2.225 -8.252,-9.529 -9.022,-9.539c-2.399,-0.032 -5.191,2.774 -9.795,0.319c-9.103,-4.857 -12.347,-11.393 -14.264,-12.866c-0.189,1.895 -0.517,6.122 1.508,9.238c0.935,1.439 3.833,3.544 4.859,3.453c1.011,-0.091 -0.161,-2.931 0.464,-1.577c1.769,3.832 10.926,10.066 12.78,10.961c1.268,0.613 3.275,0.178 3.986,-1.331c1.321,3.081 3.744,6.78 4.396,6.511c0.676,-0.279 2.125,-1.928 2.608,-2.514c0.061,0.053 3.187,5.11 4.037,4.021c0.804,-1.031 1.833,-1.062 2.714,-1.214Z" style="fill:#745d4b;"/><path d="M60.856,91.953c0.588,1.801 3.583,2.494 4.641,2.412c1.741,-0.135 2.117,-2.012 3.105,-2.089c1.847,-0.146 1.126,-4.382 1.126,-4.382c0,-0 -0.561,1.187 -2.461,0.943c-3.482,-0.449 -8.58,-1.667 -10.682,-2.346c-2.877,2.225 -8.252,-9.529 -9.022,-9.539c-2.399,-0.032 -5.191,2.774 -9.795,0.319c-9.103,-4.857 -12.347,-11.393 -14.264,-12.866c-0.189,1.895 -0.517,6.122 1.508,9.238c0.935,1.439 3.833,3.544 4.859,3.453c1.011,-0.091 -0.161,-2.931 0.464,-1.577c1.769,3.832 10.926,10.066 12.78,10.961c1.268,0.613 3.275,0.178 3.986,-1.331c1.321,3.081 3.744,6.78 4.396,6.511c0.676,-0.279 2.125,-1.928 2.608,-2.514c0.061,0.053 3.187,5.11 4.037,4.021c0.804,-1.031 1.833,-1.062 2.714,-1.214Z" style="fill:#fff;fill-opacity:0.31;"/><path d="M62.503,102.911c4.024,3.032 6.438,-0.01 7.332,-0.13c1.47,-0.198 3.386,2.238 4.406,2.709c2.326,1.075 7.091,-1.518 6.349,-2.764c-2.355,0.005 -11.181,0.602 -13.629,-3.373c-1.321,-2.145 -5.107,1.358 -6.862,1.113c-1.578,0.942 -3.798,-5.927 -4.478,-5.018c-0.939,1.257 -2.588,2.402 -5.337,2.082c-2.39,-0.278 -2.638,-4.052 -4.697,-4.413c-2.588,-0.453 -4.763,1.019 -6.727,0.504c-3.406,-0.893 -6.872,-4.699 -8.453,-5.415c-0.297,1.615 4.025,7.803 6.768,7.411c0.854,-0.122 1.645,-0.921 2.14,-0.184c1.401,2.087 4.68,3.918 6.222,4.306c1.055,0.266 4.896,1.119 5.53,0.201c1.041,1.684 2.998,3.649 3.553,3.448c0.577,-0.207 1.837,-1.258 2.257,-1.629c0.051,0.027 2.568,2.726 3.31,2.039c0.701,-0.65 1.57,-0.739 2.316,-0.887Z" style="fill:#fff;fill-opacity:0.31;"/><path d="M131.699,101.94c-4.024,3.032 -3.36,0.296 -4.254,0.175c-1.47,-0.198 -3.386,2.239 -4.406,2.71c-2.326,1.074 -8.95,-0.458 -8.208,-1.704c2.355,0.005 8.874,0.273 11.322,-3.702c1.321,-2.144 9.273,0.627 11.028,0.381c1.577,0.943 3.798,-5.927 4.477,-5.017c0.94,1.257 6.557,0.748 9.306,0.427c2.391,-0.278 -1.33,-2.397 0.729,-2.758c2.588,-0.454 4.763,1.018 6.727,0.503c3.406,-0.893 10.614,-10.566 12.195,-11.282c0.298,1.615 -4.821,12.971 -10.51,13.278c-0.862,0.047 -1.645,-0.92 -2.14,-0.183c-1.401,2.087 -4.68,3.918 -6.222,4.306c-1.055,0.265 -2.003,-0.025 -2.637,-0.943c-1.042,1.684 -5.891,4.792 -6.446,4.592c-0.577,-0.208 -1.837,-1.258 -2.258,-1.629c-0.05,0.026 -6.781,4.032 -7.522,3.346c-0.702,-0.65 -0.435,-2.351 -1.181,-2.5Z" style="fill:#fff;fill-opacity:0.31;"/><path d="M171.279,68.84c-1.611,-5.319 -0.382,-11.702 -0.102,-11.059c1.455,3.335 4.013,7.873 4.273,10.074c0.299,2.523 -1.932,4.705 -1.932,4.705c-0,0 -0.877,-0.962 -1.57,-2.189c-0.336,1.477 1.375,5.772 -1.418,4.733c-1.736,-1.653 -3.264,-4.016 -3.272,-3.015c-0.027,3.377 -2.354,4.814 -3.061,7.751c-0.307,1.278 -3.662,-3.339 -5.007,-2.963c-1.645,0.459 -3.441,-1.535 -4.488,-2.972c0.482,1.917 0.808,3.968 0.235,4.652c-0.627,0.749 1.539,7.856 0.596,6.903c-2.169,-2.193 -3.781,-1.641 -6.056,-4.805c-0.675,-0.938 0.487,2.545 1.114,5.529c-0.071,2.907 -1.981,-1.082 -3.167,-2.789c-0.039,0.243 -0.122,0.423 -0.255,0.528c-1.963,1.551 -3.085,6.826 -6.747,5.334c-1.315,-2.057 -1.638,-4.904 -2.568,-3.765c-3.137,3.844 -8.244,5.246 -12.085,8.522c-1.671,1.424 -2.907,-4.173 -5.443,-3.881c-4.741,0.546 -4.803,-5.485 -4.803,-5.485c1.169,3.716 14.262,0.091 15.49,-5.894c1.523,-1.012 2.64,1.406 3.834,1.588c2.906,0.445 8.192,-9.834 8.192,-9.834c0,-0 0.249,0.527 0.628,1.373c-0.922,-3.551 -1.668,-6.594 -1.668,-6.594c0,0 5.471,9.798 5.854,8.024c0.157,-0.729 -0.664,-4.049 0.073,-3.517c2.82,6.502 6.967,5.121 5.597,0.253c0,-0 0.521,1.433 0.99,3.14c2.699,1.74 7.49,-1.753 5.577,-6.379c0.415,-0.924 2.205,1.039 2.989,1.13c1.908,0.222 0.167,-8.648 0.167,-8.648c0,-0 5.962,6.49 8.033,9.55Z" style="fill:#745d4b;"/><path d="M171.279,68.84c-1.611,-5.319 -0.382,-11.702 -0.102,-11.059c1.455,3.335 4.013,7.873 4.273,10.074c0.299,2.523 -1.932,4.705 -1.932,4.705c-0,0 -0.877,-0.962 -1.57,-2.189c-0.336,1.477 1.375,5.772 -1.418,4.733c-1.736,-1.653 -3.264,-4.016 -3.272,-3.015c-0.027,3.377 -2.354,4.814 -3.061,7.751c-0.307,1.278 -3.662,-3.339 -5.007,-2.963c-1.645,0.459 -3.441,-1.535 -4.488,-2.972c0.482,1.917 0.808,3.968 0.235,4.652c-0.627,0.749 1.539,7.856 0.596,6.903c-2.169,-2.193 -3.781,-1.641 -6.056,-4.805c-0.675,-0.938 0.487,2.545 1.114,5.529c-0.071,2.907 -1.981,-1.082 -3.167,-2.789c-0.039,0.243 -0.122,0.423 -0.255,0.528c-1.963,1.551 -3.085,6.826 -6.747,5.334c-1.315,-2.057 -1.638,-4.904 -2.568,-3.765c-3.137,3.844 -8.244,5.246 -12.085,8.522c-1.671,1.424 -2.907,-4.173 -5.443,-3.881c-4.741,0.546 -4.803,-5.485 -4.803,-5.485c1.169,3.716 14.262,0.091 15.49,-5.894c1.523,-1.012 2.64,1.406 3.834,1.588c2.906,0.445 8.192,-9.834 8.192,-9.834c0,-0 0.249,0.527 0.628,1.373c-0.922,-3.551 -1.668,-6.594 -1.668,-6.594c0,0 5.471,9.798 5.854,8.024c0.157,-0.729 -0.664,-4.049 0.073,-3.517c2.82,6.502 6.967,5.121 5.597,0.253c0,-0 0.521,1.433 0.99,3.14c2.699,1.74 7.49,-1.753 5.577,-6.379c0.415,-0.924 2.205,1.039 2.989,1.13c1.908,0.222 0.167,-8.648 0.167,-8.648c0,-0 5.962,6.49 8.033,9.55Z" style="fill:#fff;fill-opacity:0.31;"/><path d="M128.188,30.169c-0.321,-0.406 -0.513,-0.647 -0.513,-0.647c-0,-0 2.987,6.791 1.92,6.26c-0.438,-0.218 -1.846,-1.993 -1.852,-1.401c2.293,4.094 -0.011,5.64 -2.012,2.953c0,0 2.698,4.223 3.873,4.199c0.629,-0.013 3.485,3.996 3.352,3.126c-0.307,-2.001 0.597,-2.596 -0.173,-5.048c-0.229,-0.727 1.133,1.289 2.441,2.828c1.729,1.298 -0.188,-2.171 -0.347,-3.175c0.805,0.53 3.429,3.478 2.562,1.545c-1.111,-1.683 -2.607,-3.6 -2.038,-3.124c1.922,1.605 2.513,1.101 4.118,2.147c0.698,0.454 -2.26,-3.479 -2.178,-3.989c0.155,-0.954 -2.998,-4.843 -2.998,-4.843c1.974,2.708 0.442,3.982 -2.652,0.477c-0.486,-0.23 0.808,1.629 0.937,2.075c0.312,1.085 -4.912,-4.061 -4.912,-4.061c-0,0 0.176,0.253 0.472,0.678Z" style="fill:#fff;fill-opacity:0.31;"/></svg>