<?xml version="1.0" encoding="UTF-8" standalone="no"?><!DOCTYPE svg PUBLIC "-//W3C//DTD SVG 1.1//EN" "http://www.w3.org/Graphics/SVG/1.1/DTD/svg11.dtd"><svg width="100%" height="100%" viewBox="0 0 200 200" version="1.1" xmlns="http://www.w3.org/2000/svg" xmlns:xlink="http://www.w3.org/1999/xlink" xml:space="preserve" xmlns:serif="http://www.serif.com/" style="fill-rule:evenodd;clip-rule:evenodd;stroke-linejoin:round;stroke-miterlimit:2;"><g><g><path d="M84.202,63.816l17.184,1.642c5.828,10.709 12.717,17.829 19.917,28.227c7.319,10.569 16.657,23.076 22.907,42.238c3.88,11.895 5.288,32.926 -7.302,33.383c-7.299,0.264 -13.935,-11.08 -23.952,-31.468c-5.624,-11.446 -21.769,-61.185 -28.754,-74.022Z" style="fill:#dad1bb;"/><path d="M84.202,63.816l17.184,1.642c5.828,10.709 12.717,17.829 19.917,28.227c7.319,10.569 16.657,23.076 22.907,42.238c3.88,11.895 5.288,32.926 -7.302,33.383c-7.299,0.264 -13.935,-11.08 -23.952,-31.468c-5.624,-11.446 -21.769,-61.185 -28.754,-74.022Z" style="fill:#818181;fill-opacity:0.15;"/><path d="M117.119,87.909c1.379,1.834 2.776,3.742 4.184,5.776c7.319,10.569 16.657,23.076 22.907,42.238c3.88,11.895 5.288,32.926 -7.302,33.383c-4.311,0.156 -8.39,-3.737 -13.072,-11.152c2.949,3.411 5.75,5.146 8.656,5.04c12.59,-0.456 11.182,-21.487 7.302,-33.382c-6.184,-18.96 -15.392,-31.406 -22.675,-41.903Zm-16.541,-22.528l0.808,0.077c1.523,2.798 3.118,5.351 4.772,7.781c-1.924,-2.545 -3.79,-5.11 -5.58,-7.858Z" style="fill:#2b2b2b;fill-opacity:0.23;"/><path d="M124.207,98.228c-2.449,-3.71 -4.859,-7.106 -7.088,-10.319c1.379,1.834 2.776,3.742 4.184,5.776c7.319,10.569 16.657,23.076 22.907,42.238c3.88,11.895 5.288,32.926 -7.302,33.383c-3.516,0.127 -6.878,-2.439 -10.538,-7.413c2.924,3.358 5.703,5.064 8.585,4.959c12.59,-0.457 11.182,-21.487 7.302,-33.382c-4.93,-15.117 -11.783,-26.092 -18.05,-35.242Zm-23.419,-32.827l0.598,0.057c1.523,2.798 3.118,5.351 4.772,7.781c-1.169,-1.547 -2.317,-3.1 -3.439,-4.698c-0.654,-1.018 -1.298,-2.062 -1.931,-3.14Z" style="fill:#2b2b2b;fill-opacity:0.23;"/><g><path d="M93.526,72.265c-7.631,0.451 -17.187,-2.706 -19.151,-3.728c-5.106,-2.657 -8.487,-4.304 -12.247,-11.17c-2.376,-4.338 -2.227,-10.644 2.055,-18.425c9.022,-16.396 19.537,-18.052 26.706,-18.705c13.451,-1.226 30.716,12.899 32.504,30.278c0.551,5.36 -7.037,14.874 -11.559,16.393c-3.337,1.121 -6.349,4.651 -18.308,5.357Z" style="fill:#745d4b;"/><path d="M94.417,41.534c-3.659,0.705 -8.564,0.091 -9.605,-0.185c-2.705,-0.719 -4.486,-1.149 -6.903,-3.652c-1.528,-1.582 -2.002,-4.128 -0.602,-7.551c2.952,-7.214 7.904,-8.601 11.322,-9.356c6.413,-1.416 16.005,3.081 18.378,9.947c0.732,2.118 -2.121,6.465 -4.181,7.386c-1.521,0.68 -2.674,2.306 -8.409,3.411Z" style="fill:#e9e9e9;fill-opacity:0.14;"/><path d="M113.199,29.996c5.384,5.416 9.383,12.633 10.194,20.519c0.551,5.36 -7.037,14.874 -11.559,16.393c-3.337,1.121 -6.349,4.651 -18.308,5.357c-7.631,0.451 -17.187,-2.706 -19.151,-3.728c-5.106,-2.657 -8.487,-4.304 -12.247,-11.17c-0.059,-0.107 -0.117,-0.216 -0.173,-0.327c1.95,1.596 4.068,2.67 6.615,3.995c1.964,1.022 11.52,4.179 19.152,3.728c11.959,-0.706 14.97,-4.236 18.307,-5.357c4.522,-1.519 12.111,-11.032 11.559,-16.392c-0.478,-4.649 -2.064,-9.065 -4.389,-13.018Z" style="fill-opacity:0.29;"/><path d="M113.293,30.09c5.337,5.406 9.294,12.585 10.1,20.425c0.551,5.36 -7.037,14.874 -11.559,16.393c-3.337,1.121 -6.349,4.651 -18.308,5.357c-7.631,0.451 -17.187,-2.706 -19.151,-3.728c-4.213,-2.192 -7.252,-3.697 -10.298,-8.013c2.131,1.918 4.434,3.081 7.268,4.556c1.964,1.022 11.52,4.179 19.152,3.728c11.959,-0.706 14.97,-4.236 18.307,-5.357c4.522,-1.519 12.111,-11.033 11.559,-16.393c-0.644,-6.268 -3.303,-12.113 -7.07,-16.968Z" style="fill-opacity:0.29;"/></g></g></g><g><path d="M47.791,84.119l13.645,4c4.789,10.089 14.948,23.64 30.732,32.931c16.508,9.717 37.176,9.298 40.706,27.041c2.191,11.015 14.205,17.081 -1.077,16.56c-8.859,-0.301 -19.601,3.438 -48.877,-16.849c-10.077,-6.983 -25.332,-33.901 -35.129,-63.683Z" style="fill:#dedbd3;"/><path d="M62.394,108.948c6.964,-0.735 15.127,-5.018 16.749,-6.236c4.217,-3.165 7.026,-5.159 9.396,-11.927c1.498,-4.276 0.419,-9.953 -4.615,-16.343c-10.608,-13.467 -20.358,-13.39 -26.935,-12.907c-12.339,0.905 -25.828,16.255 -24.842,32.228c0.304,4.927 8.586,12.388 12.9,13.084c3.183,0.514 6.433,3.253 17.347,2.101Z" style="fill:#857261;"/><path d="M48.012,66.079c4.403,-3.953 8.574,-4.265 11.735,-4.315c1.796,-0.028 3.668,0.453 5.512,1.352c0.745,0.764 1.332,1.631 1.681,2.576c0.473,1.278 -1.308,3.944 -2.604,4.523c-0.957,0.428 -1.677,1.426 -5.293,2.153c-2.307,0.463 -5.407,0.139 -6.065,-0.018c-1.712,-0.409 -2.839,-0.653 -4.377,-2.148c-0.901,-0.875 -1.235,-2.262 -0.589,-4.123Z" style="fill:#fff;fill-opacity:0.13;"/><g><path d="M33.679,82.689c-1.186,3.535 -1.766,7.287 -1.532,11.074c0.304,4.927 8.586,12.388 12.9,13.084c3.183,0.514 6.433,3.253 17.347,2.101c6.964,-0.735 15.127,-5.018 16.749,-6.236c4.217,-3.165 7.026,-5.159 9.396,-11.927c0.897,-2.56 0.87,-5.622 -0.377,-9.039c-2.052,3.975 -4.506,5.745 -7.839,8.247c-1.622,1.218 -9.786,5.501 -16.75,6.236c-10.913,1.152 -14.163,-1.587 -17.346,-2.101c-3.856,-0.622 -10.882,-6.649 -12.548,-11.439Z" style="fill-opacity:0.25;"/><path d="M32.202,89.688c-0.118,1.349 -0.139,2.71 -0.055,4.075c0.304,4.927 8.586,12.388 12.9,13.084c3.183,0.514 6.433,3.253 17.347,2.101c6.964,-0.735 15.127,-5.018 16.749,-6.236c4.217,-3.165 7.026,-5.159 9.396,-11.927c0.633,-1.809 0.806,-3.868 0.413,-6.126c-0.102,0.533 -0.241,1.049 -0.415,1.546c-2.37,6.768 -5.179,8.762 -9.396,11.927c-1.622,1.218 -9.786,5.501 -16.75,6.236c-10.913,1.152 -14.163,-1.587 -17.347,-2.101c-4.169,-0.672 -12.043,-7.663 -12.842,-12.579Z" style="fill-opacity:0.25;"/></g><path d="M79.661,145.037c22.538,9.515 34.223,7.158 44.07,7.568c5.519,0.23 8.681,-0.052 10.275,-0.806c3.525,8.653 11.26,13.311 -2.209,12.852c-8.859,-0.301 -19.601,3.438 -48.877,-16.849c-1.035,-0.717 -2.125,-1.644 -3.259,-2.765Z" style="fill-opacity:0.11;"/><path d="M89.887,152.405c22.495,9.217 32.628,5.566 41.324,5.076c2.291,-0.129 4.076,-0.329 5.438,-0.602c3.247,5.361 5.68,8.131 -4.852,7.772c-8.119,-0.276 -17.818,2.841 -41.91,-12.246Z" style="fill-opacity:0.11;"/></g><g><g><g><path d="M142.851,58.251l-12.881,3.348c-1.911,11.366 -5.511,19.221 -8.558,30.409c-3.097,11.372 -7.286,24.896 -7.477,44.822c-0.119,12.37 3.882,33.702 13.722,32.922c5.703,-0.453 8.086,-12.539 10.892,-34.072c1.575,-12.089 2.011,-63.804 4.302,-77.429Z" style="fill:#dedbd3;"/><path d="M142.851,58.251l-12.881,3.348c-1.911,11.366 -5.511,19.221 -8.558,30.409c-3.097,11.372 -7.286,24.896 -7.477,44.822c-0.119,12.37 3.882,33.702 13.722,32.922c5.703,-0.453 8.086,-12.539 10.892,-34.072c1.575,-12.089 2.011,-63.804 4.302,-77.429Z" style="fill:#818181;fill-opacity:0.2;"/><path d="M116.881,109.763c-1.605,7.632 -2.844,16.439 -2.946,27.067c-0.119,12.37 3.882,33.702 13.722,32.922c5.005,-0.397 7.452,-9.753 9.873,-26.589c-1.928,9.505 -4.232,14.703 -7.935,14.997c-9.839,0.781 -13.841,-20.552 -13.722,-32.921c0.054,-5.639 0.429,-10.766 1.008,-15.476Z" style="fill-opacity:0.24;"/></g><g><path d="M131.812,98.622c-6.873,-0.404 -15.094,-4.594 -16.745,-5.825c-4.292,-3.2 -7.146,-5.207 -9.798,-12.426c-1.675,-4.561 -0.888,-10.789 3.748,-18.017c9.77,-15.232 19.346,-15.7 25.827,-15.548c12.159,0.284 26.139,16.196 25.937,33.605c-0.062,5.369 -7.836,13.945 -12.038,14.945c-3.101,0.739 -6.161,3.899 -16.931,3.266Z" style="fill:#857261;"/><path d="M118.37,51.704c6.308,-4.82 12.097,-5.001 16.474,-4.898c2.488,0.058 5.052,0.77 7.556,2.016c0.99,1.016 1.755,2.155 2.187,3.382c0.585,1.658 -2.023,4.972 -3.848,5.644c-1.347,0.497 -2.398,1.735 -7.441,2.474c-3.218,0.472 -7.491,-0.105 -8.394,-0.341c-2.346,-0.613 -3.892,-0.983 -5.941,-2.975c-1.199,-1.166 -1.587,-2.956 -0.593,-5.302Z" style="fill:#fff;fill-opacity:0.13;"/><path d="M157.92,66.34c1.844,4.358 2.918,9.155 2.861,14.071c-0.062,5.369 -7.836,13.945 -12.038,14.945c-3.101,0.739 -6.161,3.899 -16.931,3.266c-6.873,-0.404 -15.094,-4.594 -16.745,-5.825c-4.292,-3.2 -7.146,-5.207 -9.798,-12.426c-0.885,-2.41 -1.083,-5.285 -0.388,-8.528c2.018,3.268 4.318,4.924 7.323,7.164c1.651,1.231 9.872,5.422 16.745,5.826c10.77,0.633 13.83,-2.528 16.931,-3.266c4.202,-1 11.976,-9.576 12.038,-14.945c0.001,-0.094 0.002,-0.188 0.002,-0.282Z" style="fill-opacity:0.25;"/><path d="M104.611,73.4c0.103,0.392 0.223,0.774 0.359,1.144c2.652,7.218 5.505,9.225 9.797,12.425c1.651,1.231 9.872,5.422 16.745,5.826c10.771,0.633 13.83,-2.527 16.932,-3.266c4.027,-0.959 11.336,-8.877 11.991,-14.261c0.246,1.69 0.366,3.409 0.346,5.143c-0.062,5.369 -7.836,13.945 -12.038,14.945c-3.101,0.739 -6.161,3.899 -16.931,3.266c-6.873,-0.404 -15.094,-4.594 -16.745,-5.825c-4.292,-3.2 -7.146,-5.207 -9.798,-12.426c-0.741,-2.017 -1,-4.36 -0.658,-6.971Z" style="fill-opacity:0.25;"/></g></g></g><g><g><path d="M56.963,120.363l-3.51,12.874c4.816,5.412 7.232,11.239 11.506,17.635c4.344,6.501 9.893,14.001 19.99,19.982c7.431,4.403 20.883,3.145 30.673,-9.618c3.5,-4.563 -3.031,-7.784 -16.409,-8.647c-14.202,-0.917 -27.813,-12.862 -42.25,-32.226Z" style="fill:#dedbd3;"/><path d="M68.935,156.474c3.806,4.953 8.725,10.062 16.014,14.38c7.431,4.403 20.883,3.145 30.673,-9.618c1.859,-2.424 0.888,-4.469 -2.437,-5.983c-0.084,0.621 -0.383,1.276 -0.909,1.961c-9.79,12.763 -23.242,14.021 -30.672,9.619c-5.324,-3.154 -9.383,-6.729 -12.669,-10.359Zm-11.972,-36.111l-0.071,0.26c1.584,2.014 3.158,3.933 4.724,5.753l-0.111,-0.138c-1.55,-1.93 -3.06,-3.892 -4.542,-5.875Z" style="fill-opacity:0.19;"/><path d="M70.226,158.104c3.62,4.431 8.231,8.905 14.723,12.75c7.431,4.403 20.883,3.145 30.673,-9.618c1.485,-1.936 1.164,-3.63 -0.719,-5.005c0.39,0.986 0.158,2.082 -0.752,3.268c-9.79,12.763 -23.242,14.021 -30.672,9.619c-5.644,-3.343 -9.866,-7.161 -13.253,-11.014Zm-13.306,-37.583c1.09,1.43 2.175,2.816 3.257,4.158c0.48,0.575 0.96,1.141 1.439,1.697l-0.111,-0.138c-1.55,-1.93 -3.06,-3.892 -4.542,-5.875l-0.043,0.158Z" style="fill-opacity:0.19;"/></g><g><path d="M64.351,147.277c-5.151,0.619 -11.755,-1.127 -13.128,-1.738c-3.569,-1.59 -5.927,-2.567 -8.757,-7.064c-1.788,-2.842 -1.946,-7.12 0.635,-12.567c5.439,-11.48 12.494,-13.034 17.324,-13.771c9.063,-1.384 21.34,7.476 23.266,19.177c0.594,3.608 -4.156,10.366 -7.157,11.581c-2.215,0.896 -4.11,3.412 -12.183,4.382Z" style="fill:#857261;"/><path d="M77.728,119.582c2.991,3.224 5.229,7.271 5.963,11.732c0.594,3.608 -4.156,10.366 -7.157,11.581c-2.215,0.896 -4.11,3.412 -12.183,4.382c-5.151,0.619 -11.755,-1.127 -13.128,-1.738c-3.569,-1.59 -5.927,-2.567 -8.757,-7.064c-0.487,-0.774 -0.853,-1.655 -1.076,-2.637c1.605,1.354 3.287,2.078 5.388,3.014c1.373,0.612 7.977,2.357 13.128,1.738c8.073,-0.97 9.969,-3.485 12.183,-4.382c3.001,-1.215 7.751,-7.972 7.157,-11.581c-0.288,-1.754 -0.81,-3.444 -1.518,-5.045Z" style="fill-opacity:0.25;"/><path d="M80.79,123.624c1.422,2.341 2.448,4.937 2.901,7.69c0.594,3.608 -4.156,10.366 -7.157,11.581c-2.215,0.896 -4.11,3.412 -12.183,4.382c-5.151,0.619 -11.755,-1.127 -13.128,-1.738c-3.569,-1.59 -5.927,-2.567 -8.757,-7.064c-0.355,-0.565 -0.646,-1.187 -0.864,-1.864c2.6,3.809 4.881,4.76 8.223,6.249c1.373,0.612 7.977,2.358 13.128,1.739c8.073,-0.971 9.968,-3.486 12.183,-4.383c3.001,-1.215 7.751,-7.972 7.157,-11.581c-0.286,-1.741 -0.802,-3.419 -1.503,-5.011Z" style="fill-opacity:0.25;"/><path d="M63.265,123.866c-2.521,0.419 -5.898,0.119 -6.614,-0.026c-1.862,-0.375 -3.089,-0.598 -4.751,-1.963c-1.051,-0.862 -1.375,-2.266 -0.408,-4.169c2.039,-4.011 5.45,-4.818 7.805,-5.262c4.417,-0.834 11.019,1.574 12.647,5.351c0.502,1.165 -1.467,3.591 -2.886,4.116c-1.047,0.388 -1.843,1.297 -5.793,1.953Z" style="fill:#e9e9e9;fill-opacity:0.14;"/></g></g><g><path d="M80.855,101.068l10.131,5.495c2.076,8.811 7.817,21.28 18.742,31.332c11.426,10.513 27.875,13.702 27.649,28.364c-0.14,9.102 8.346,15.956 -3.675,12.94c-6.969,-1.749 -16.118,-0.616 -35.861,-21.68c-6.795,-7.251 -14.298,-31.181 -16.986,-56.451Z" style="fill:#dedbd3;"/><path d="M80.855,101.068l10.131,5.495c2.076,8.811 7.817,21.28 18.742,31.332c11.426,10.513 27.875,13.702 27.649,28.364c-0.14,9.102 8.346,15.956 -3.675,12.94c-6.969,-1.749 -16.118,-0.616 -35.861,-21.68c-6.795,-7.251 -14.298,-31.181 -16.986,-56.451Z" style="fill:#818181;fill-opacity:0.27;"/><path d="M95.73,154.772c16.239,11.381 25.899,11.503 33.633,13.507c4.335,1.122 6.888,1.438 8.28,1.111c1.318,7.458 6.655,12.467 -3.941,9.809c-6.969,-1.749 -16.118,-0.616 -35.861,-21.68c-0.698,-0.745 -1.403,-1.665 -2.111,-2.747Z" style="fill-opacity:0.11;"/><path d="M102.578,162.354c16.255,11.136 24.907,9.969 31.882,11.063c1.837,0.288 3.285,0.434 4.412,0.449c1.659,4.802 3.115,7.412 -5.17,5.333c-6.386,-1.602 -14.603,-0.785 -31.124,-16.845Z" style="fill-opacity:0.11;"/><path d="M88.903,118.545c5.662,-0.406 12.391,-3.654 13.739,-4.596c3.502,-2.45 5.832,-3.989 7.936,-9.407c1.329,-3.424 0.61,-8.051 -3.294,-13.365c-8.228,-11.198 -16.128,-11.401 -21.469,-11.189c-10.021,0.398 -21.365,12.466 -21.001,25.433c0.112,3.999 6.618,10.269 10.094,10.95c2.565,0.502 5.123,2.81 13.995,2.174Z" style="fill:#857261;"/><path d="M88.903,118.545c5.662,-0.406 12.391,-3.654 13.739,-4.596c3.502,-2.45 5.832,-3.989 7.936,-9.407c1.329,-3.424 0.61,-8.051 -3.294,-13.365c-8.228,-11.198 -16.128,-11.401 -21.469,-11.189c-10.021,0.398 -21.365,12.466 -21.001,25.433c0.112,3.999 6.618,10.269 10.094,10.95c2.565,0.502 5.123,2.81 13.995,2.174Z" style="fill-opacity:0.19;"/><path d="M78.419,83.425c3.675,-3.082 7.062,-3.221 9.624,-3.176c1.456,0.026 2.959,0.466 4.428,1.245c0.583,0.639 1.035,1.358 1.292,2.133c0.348,1.048 -1.167,3.159 -2.232,3.593c-0.787,0.32 -1.398,1.109 -4.347,1.6c-1.881,0.313 -4.384,-0.034 -4.913,-0.18c-1.375,-0.378 -2.281,-0.605 -3.487,-1.858c-0.706,-0.734 -0.939,-1.866 -0.365,-3.357Z" style="fill:#fff;fill-opacity:0.13;"/><g><path d="M66.357,96.491c-1.057,2.831 -1.629,5.855 -1.543,8.93c0.112,3.999 6.618,10.269 10.094,10.95c2.565,0.502 5.123,2.81 13.995,2.174c5.662,-0.406 12.391,-3.654 13.739,-4.596c3.502,-2.45 5.832,-3.989 7.936,-9.407c0.796,-2.05 0.857,-4.531 -0.06,-7.333c-1.77,3.164 -3.806,4.532 -6.575,6.468c-1.347,0.942 -8.076,4.19 -13.738,4.596c-8.872,0.636 -11.43,-1.671 -13.995,-2.174c-3.107,-0.609 -8.634,-5.682 -9.853,-9.608Z" style="fill-opacity:0.25;"/><path d="M64.969,102.121c-0.132,1.089 -0.186,2.191 -0.155,3.3c0.112,3.999 6.618,10.269 10.094,10.95c2.565,0.502 5.123,2.81 13.995,2.174c5.662,-0.406 12.391,-3.654 13.739,-4.596c3.502,-2.45 5.832,-3.989 7.936,-9.407c0.562,-1.448 0.758,-3.112 0.501,-4.951c-0.097,0.429 -0.224,0.843 -0.379,1.241c-2.104,5.418 -4.434,6.957 -7.936,9.406c-1.347,0.943 -8.076,4.19 -13.738,4.596c-8.872,0.637 -11.43,-1.671 -13.995,-2.174c-3.359,-0.658 -9.548,-6.535 -10.062,-10.539Z" style="fill-opacity:0.25;"/></g></g><g><path d="M97.292,138.715l2.819,-7.678c7.091,6.085 5.084,14.253 12.531,19.738c7.569,5.576 13.517,1.297 24.682,13.328c6.931,7.469 8.112,10.535 3.737,14.311c-2.536,2.188 -17.239,7.192 -30.346,-4.687c-7.358,-6.67 -12.377,-23.36 -13.423,-35.012Z" style="fill:#dedbd3;"/><path d="M97.292,138.715l2.819,-7.678c7.091,6.085 5.084,14.253 12.531,19.738c7.569,5.576 13.517,1.297 24.682,13.328c6.931,7.469 8.112,10.535 3.737,14.311c-2.536,2.188 -17.239,7.192 -30.346,-4.687c-7.358,-6.67 -12.377,-23.36 -13.423,-35.012Z" style="fill:#818181;fill-opacity:0.15;"/><path d="M105.674,167.105c13.106,11.879 27.809,6.875 30.345,4.686c2.613,-2.254 3.244,-4.256 1.852,-7.094c6.443,7.041 7.447,10.043 3.19,13.717c-2.536,2.188 -17.239,7.192 -30.346,-4.687c-1.834,-1.663 -3.523,-3.948 -5.041,-6.622Zm-5.694,-35.71l0.131,-0.358c4.528,3.885 5.346,8.62 7.285,12.963c-4.65,-3.539 -5.506,-8.156 -7.416,-12.605Z" style="fill-opacity:0.16;"/><path d="M102.816,146.227c4.392,-0.302 9.618,-2.808 10.665,-3.537c2.721,-1.893 4.531,-3.083 6.172,-7.284c1.038,-2.655 0.488,-6.249 -2.531,-10.383c-6.362,-8.712 -12.49,-8.888 -16.633,-8.735c-7.774,0.286 -16.595,9.629 -16.335,19.695c0.08,3.105 5.115,7.988 7.81,8.524c1.989,0.396 3.969,2.194 10.852,1.72Z" style="fill:#857261;"/><path d="M111.06,118.957c-4.069,-2.725 -7.773,-2.772 -10.571,-2.669c-1.591,0.059 -3.225,0.496 -4.817,1.242c-0.626,0.597 -1.106,1.264 -1.374,1.978c-0.362,0.964 1.331,2.855 2.503,3.226c0.865,0.273 1.547,0.979 4.777,1.356c2.062,0.241 4.79,-0.136 5.366,-0.281c1.496,-0.378 2.482,-0.608 3.777,-1.78c0.758,-0.687 0.993,-1.726 0.339,-3.072Z" style="fill:#fff;fill-opacity:0.13;"/><path d="M85.878,127.817c-1.147,2.538 -1.798,5.324 -1.724,8.166c0.08,3.105 5.115,7.988 7.81,8.524c1.989,0.396 3.969,2.194 10.852,1.72c4.392,-0.302 9.618,-2.808 10.665,-3.537c2.721,-1.893 4.531,-3.083 6.172,-7.284c0.548,-1.403 0.653,-3.068 0.185,-4.936c-1.266,1.91 -2.725,2.89 -4.63,4.216c-1.046,0.729 -6.272,3.235 -10.664,3.537c-6.883,0.473 -8.864,-1.324 -10.852,-1.72c-2.695,-0.536 -7.731,-5.419 -7.811,-8.524c-0.001,-0.054 -0.003,-0.108 -0.003,-0.162Z" style="fill-opacity:0.25;"/><path d="M120.022,131.367c-0.063,0.228 -0.137,0.45 -0.221,0.666c-1.642,4.201 -3.451,5.39 -6.172,7.284c-1.047,0.728 -6.273,3.234 -10.665,3.537c-6.883,0.473 -8.863,-1.324 -10.852,-1.72c-2.583,-0.514 -7.317,-5.021 -7.776,-8.129c-0.144,0.98 -0.208,1.976 -0.182,2.978c0.08,3.105 5.115,7.988 7.81,8.524c1.989,0.396 3.969,2.194 10.852,1.72c4.392,-0.302 9.618,-2.808 10.665,-3.537c2.721,-1.893 4.531,-3.083 6.172,-7.284c0.459,-1.174 0.607,-2.532 0.369,-4.039Z" style="fill-opacity:0.25;"/><path d="M107.006,169.28c0.743,0.944 1.516,1.789 2.318,2.515c13.106,11.88 27.809,6.875 30.345,4.687c3.003,-2.591 3.389,-4.849 1.093,-8.425c3.743,4.755 3.809,7.328 0.299,10.357c-2.536,2.188 -17.239,7.192 -30.346,-4.687c-1.314,-1.191 -2.554,-2.702 -3.709,-4.447Z" style="fill-opacity:0.16;"/></g><g><g><path d="M140.55,116.156l8.396,4.875c-0.394,6.68 0.909,11.834 1.327,18.685c0.426,6.964 1.28,15.364 -1.593,26.33c-1.784,6.807 -7.767,17.554 -14.449,14.805c-3.873,-1.594 -3.696,-8.781 -2.387,-21.244c0.735,-6.997 8.234,-35.443 8.706,-43.451Z" style="fill:#dedbd3;"/><path d="M140.55,116.156l8.396,4.875c-0.394,6.68 0.909,11.834 1.327,18.685c0.426,6.964 1.28,15.364 -1.593,26.33c-1.784,6.807 -7.767,17.554 -14.449,14.805c-3.873,-1.594 -3.696,-8.781 -2.387,-21.244c0.735,-6.997 8.234,-35.443 8.706,-43.451Z" style="fill:#818181;fill-opacity:0.18;"/><path d="M150.727,150.516c-0.043,4.562 -0.515,9.681 -2.047,15.53c-1.784,6.807 -7.767,17.554 -14.449,14.805c-3.399,-1.399 -3.679,-7.104 -2.812,-16.902c-0.101,5.664 0.706,9.056 3.221,10.091c6.682,2.75 12.665,-7.997 14.449,-14.804c0.813,-3.104 1.327,-6.001 1.638,-8.72Z" style="fill-opacity:0.24;"/><g><path d="M145.564,139.952c4.968,0.145 11.116,-2.094 12.372,-2.797c3.265,-1.827 5.43,-2.964 7.737,-7.503c1.459,-2.868 1.237,-6.966 -1.698,-11.944c-6.187,-10.489 -13.052,-11.362 -17.724,-11.647c-8.764,-0.536 -19.705,8.987 -20.523,20.325c-0.253,3.497 4.866,9.537 7.834,10.437c2.191,0.665 4.217,2.902 12.002,3.129Z" style="fill:#857261;"/><path d="M157.834,110.225c-4.272,-3.511 -8.427,-3.971 -11.583,-4.164c-1.793,-0.11 -3.677,0.201 -5.548,0.864c-0.769,0.602 -1.382,1.298 -1.761,2.07c-0.513,1.044 1.18,3.355 2.456,3.9c0.942,0.403 1.629,1.271 5.217,2.051c2.29,0.498 5.396,0.376 6.059,0.276c1.722,-0.259 2.856,-0.409 4.44,-1.583c0.928,-0.688 1.305,-1.829 0.72,-3.414Z" style="fill:#fff;fill-opacity:0.13;"/><path d="M128.565,117.401c-1.568,2.726 -2.606,5.783 -2.837,8.985c-0.253,3.497 4.866,9.537 7.834,10.437c2.191,0.665 4.217,2.902 12.002,3.129c4.968,0.145 11.116,-2.094 12.372,-2.797c3.265,-1.827 5.43,-2.964 7.737,-7.503c0.771,-1.515 1.073,-3.374 0.752,-5.525c-1.633,2.007 -3.38,2.947 -5.666,4.227c-1.256,0.703 -7.403,2.941 -12.371,2.797c-7.785,-0.227 -9.812,-2.465 -12.002,-3.129c-2.969,-0.9 -8.087,-6.941 -7.835,-10.438c0.005,-0.061 0.009,-0.122 0.014,-0.183Z" style="fill-opacity:0.25;"/><path d="M166.533,125.156c-0.096,0.249 -0.203,0.49 -0.321,0.723c-2.308,4.539 -4.473,5.675 -7.738,7.503c-1.256,0.703 -7.404,2.942 -12.372,2.797c-7.784,-0.227 -9.811,-2.465 -12.002,-3.129c-2.845,-0.863 -7.666,-6.448 -7.838,-9.99c-0.271,1.085 -0.453,2.197 -0.534,3.326c-0.253,3.497 4.866,9.537 7.834,10.437c2.191,0.665 4.217,2.902 12.002,3.129c4.968,0.145 11.116,-2.094 12.372,-2.797c3.265,-1.827 5.43,-2.964 7.737,-7.503c0.645,-1.268 0.962,-2.777 0.86,-4.496Z" style="fill-opacity:0.25;"/></g></g></g></svg>