<?xml version="1.0" encoding="UTF-8" standalone="no"?><!DOCTYPE svg PUBLIC "-//W3C//DTD SVG 1.1//EN" "http://www.w3.org/Graphics/SVG/1.1/DTD/svg11.dtd"><svg width="100%" height="100%" viewBox="0 0 200 200" version="1.1" xmlns="http://www.w3.org/2000/svg" xmlns:xlink="http://www.w3.org/1999/xlink" xml:space="preserve" xmlns:serif="http://www.serif.com/" style="fill-rule:evenodd;clip-rule:evenodd;stroke-linejoin:round;stroke-miterlimit:2;"><g><path d="M83.49,70.097l7.135,10.218c-2.26,9.523 -2.746,24.358 2.949,39.366c5.956,15.695 20.315,26.743 12.997,40.809c-4.542,8.732 0.344,19.467 -9.818,10.73c-5.89,-5.064 -15.284,-8.399 -24.172,-38.323c-3.06,-10.3 1.274,-37.068 10.909,-62.8Z" style="fill:#dedbd3;"/><path d="M83.49,70.097l7.135,10.218c-2.26,9.523 -2.746,24.358 2.949,39.366c5.956,15.695 20.315,26.743 12.997,40.809c-4.542,8.732 0.344,19.467 -9.818,10.73c-5.89,-5.064 -15.284,-8.399 -24.172,-38.323c-3.06,-10.3 1.274,-37.068 10.909,-62.8Z" style="fill:#818181;fill-opacity:0.27;"/><path d="M71.87,129.22c10.189,18.865 19.469,23.661 25.976,29.342c3.647,3.184 5.963,4.725 7.466,5.083c-2.336,7.849 0.398,15.275 -8.559,7.575c-5.89,-5.064 -15.284,-8.399 -24.172,-38.323c-0.315,-1.058 -0.551,-2.289 -0.711,-3.677Z" style="fill-opacity:0.11;"/><path d="M74.819,139.865c10.323,18.637 19.253,21.698 25.467,26.132c1.636,1.168 2.966,2.011 4.048,2.571c-0.721,5.446 -0.577,8.673 -7.581,2.652c-5.398,-4.641 -13.738,-7.829 -21.934,-31.355Z" style="fill-opacity:0.11;"/><path d="M84.265,91.335c6.084,0.801 13.918,-1.175 15.55,-1.881c4.242,-1.833 7.044,-2.956 10.451,-8.237c2.153,-3.337 2.397,-8.395 -0.583,-14.872c-6.278,-13.65 -14.602,-15.582 -20.305,-16.519c-10.7,-1.758 -25.34,8.557 -27.774,22.37c-0.751,4.26 4.777,12.316 8.31,13.793c2.608,1.09 4.815,4.09 14.351,5.346Z" style="fill:#857261;"/><path d="M80.797,51.858c4.562,-2.465 8.18,-1.877 10.884,-1.271c1.536,0.344 3.032,1.137 4.42,2.281c0.478,0.804 0.8,1.663 0.904,2.54c0.141,1.186 -1.923,3.092 -3.146,3.32c-0.903,0.169 -1.721,0.871 -4.951,0.75c-2.061,-0.078 -4.637,-0.99 -5.165,-1.259c-1.375,-0.699 -2.285,-1.137 -3.29,-2.727c-0.588,-0.93 -0.588,-2.18 0.344,-3.634Z" style="fill:#fff;fill-opacity:0.13;"/><g><path d="M65.18,63.074c-1.736,2.769 -2.999,5.847 -3.576,9.122c-0.751,4.26 4.777,12.316 8.31,13.793c2.608,1.09 4.815,4.09 14.351,5.346c6.084,0.801 13.918,-1.175 15.55,-1.881c4.242,-1.833 7.044,-2.956 10.451,-8.237c1.289,-1.998 1.894,-4.613 1.532,-7.78c-2.564,2.967 -5.017,3.972 -8.371,5.421c-1.631,0.705 -9.465,2.682 -15.55,1.881c-9.535,-1.256 -11.743,-4.256 -14.351,-5.346c-3.158,-1.32 -7.909,-7.896 -8.346,-12.319Z" style="fill-opacity:0.25;"/><path d="M62.486,68.735c-0.377,1.125 -0.674,2.28 -0.882,3.461c-0.751,4.26 4.777,12.316 8.31,13.793c2.608,1.09 4.815,4.09 14.351,5.346c6.084,0.801 13.918,-1.175 15.55,-1.881c4.242,-1.833 7.044,-2.956 10.451,-8.237c0.91,-1.412 1.48,-3.131 1.608,-5.135c-0.197,0.433 -0.421,0.844 -0.671,1.232c-3.407,5.281 -6.209,6.404 -10.451,8.237c-1.632,0.705 -9.466,2.682 -15.551,1.881c-9.535,-1.256 -11.743,-4.256 -14.35,-5.346c-3.415,-1.428 -8.692,-8.999 -8.365,-13.351Z" style="fill-opacity:0.25;"/></g></g><g><g><path d="M98.194,54.319l15.472,10.44c0,13.182 2.863,23.506 4.329,37.102c1.489,13.82 3.894,30.525 -0.073,51.954c-2.463,13.302 -11.994,34.004 -24.187,27.931c-7.069,-3.52 -7.509,-17.725 -6.487,-42.265c0.574,-13.777 10.946,-69.36 10.946,-85.162Z" style="fill:#dad1bb;"/><path d="M98.194,54.319l15.472,10.44c0,13.182 2.863,23.506 4.329,37.102c1.489,13.82 3.894,30.525 -0.073,51.954c-2.463,13.302 -11.994,34.004 -24.187,27.931c-7.069,-3.52 -7.509,-17.725 -6.487,-42.265c0.574,-13.777 10.946,-69.36 10.946,-85.162Z" style="fill:#818181;fill-opacity:0.15;"/><path d="M117.006,94.212c0.362,2.455 0.702,4.99 0.989,7.649c1.489,13.82 3.894,30.525 -0.073,51.954c-2.463,13.302 -11.994,34.004 -24.187,27.931c-4.175,-2.079 -6.038,-7.885 -6.652,-17.347c1.038,4.764 2.802,7.859 5.616,9.261c12.193,6.072 21.724,-14.629 24.187,-27.932c3.925,-21.203 1.612,-37.782 0.12,-51.516Zm-4.068,-29.944l0.728,0.491c0,3.445 0.196,6.694 0.51,9.856c-0.511,-3.411 -0.958,-6.811 -1.238,-10.347Z" style="fill:#2b2b2b;fill-opacity:0.23;"/><path d="M118.404,107.676c-0.408,-4.789 -0.941,-9.26 -1.398,-13.464c0.362,2.455 0.702,4.99 0.989,7.649c1.489,13.82 3.894,30.525 -0.073,51.954c-2.463,13.302 -11.994,34.004 -24.187,27.931c-3.405,-1.696 -5.272,-5.871 -6.178,-12.486c1.042,4.7 2.799,7.756 5.591,9.146c12.194,6.073 21.725,-14.628 24.187,-27.931c3.13,-16.905 2.293,-30.87 1.069,-42.799Zm-5.276,-43.28l0.538,0.363c0,3.445 0.196,6.694 0.51,9.856c-0.311,-2.073 -0.597,-4.141 -0.837,-6.239c-0.096,-1.305 -0.168,-2.629 -0.211,-3.98Z" style="fill:#2b2b2b;fill-opacity:0.23;"/><path d="M107.549,68.144c-8.264,0.126 -18.438,-3.737 -20.511,-4.934c-5.39,-3.112 -8.964,-5.05 -12.701,-12.645c-2.36,-4.799 -1.901,-11.604 3.092,-19.806c10.523,-17.284 21.959,-18.575 29.735,-18.942c14.588,-0.687 32.569,15.389 33.677,34.247c0.342,5.816 -8.305,15.733 -13.262,17.16c-3.658,1.053 -7.078,4.723 -20.03,4.92Z" style="fill:#745d4b;"/><path d="M109.967,34.99c-3.987,0.588 -9.256,-0.307 -10.367,-0.655c-2.888,-0.904 -4.792,-1.453 -7.285,-4.271c-1.575,-1.781 -1.967,-4.554 -0.292,-8.186c3.53,-7.652 8.945,-8.916 12.673,-9.57c6.994,-1.226 17.143,4.086 19.381,11.615c0.69,2.323 -2.597,6.883 -4.866,7.781c-1.674,0.662 -2.997,2.364 -9.244,3.286Z" style="fill:#e9e9e9;fill-opacity:0.14;"/><path d="M130.802,23.415c5.559,6.106 9.536,14.091 10.039,22.649c0.342,5.816 -8.305,15.733 -13.262,17.16c-3.658,1.053 -7.078,4.723 -20.03,4.92c-8.264,0.126 -18.438,-3.737 -20.511,-4.934c-5.39,-3.112 -8.964,-5.05 -12.701,-12.645c-0.058,-0.119 -0.115,-0.24 -0.17,-0.362c2.03,1.817 4.267,3.077 6.956,4.629c2.073,1.197 12.246,5.059 20.511,4.934c12.952,-0.197 16.372,-3.868 20.03,-4.92c4.957,-1.427 13.604,-11.344 13.262,-17.161c-0.296,-5.044 -1.8,-9.889 -4.124,-14.27Z" style="fill-opacity:0.29;"/><path d="M130.898,23.522c5.509,6.092 9.443,14.034 9.943,22.542c0.342,5.816 -8.305,15.733 -13.262,17.16c-3.658,1.053 -7.078,4.723 -20.03,4.92c-8.264,0.126 -18.438,-3.737 -20.511,-4.934c-4.447,-2.567 -7.658,-4.336 -10.744,-9.143c2.21,2.172 4.643,3.538 7.635,5.265c2.073,1.198 12.246,5.06 20.511,4.934c12.952,-0.196 16.372,-3.867 20.03,-4.92c4.957,-1.427 13.604,-11.344 13.262,-17.16c-0.399,-6.802 -2.994,-13.242 -6.834,-18.664Z" style="fill-opacity:0.29;"/></g></g><g><path d="M63.265,70.659l-16.088,15.356c2.218,11.87 0.653,22.267 1.25,35.074c0.608,13.018 0.645,28.985 8.826,46.754c5.078,11.03 19.554,26.002 32.596,15.84c7.56,-5.891 5.678,-18.85 0.37,-40.553c-2.98,-12.186 -24.295,-58.242 -26.954,-72.471Z" style="fill:#dedbd3;"/><path d="M55.976,91.672c-7.535,0.746 -17.117,-2.002 -19.101,-2.937c-5.157,-2.428 -8.568,-3.925 -12.559,-10.572c-2.522,-4.201 -2.623,-10.447 1.309,-18.316c8.285,-16.582 18.625,-18.634 25.695,-19.562c13.264,-1.742 30.907,11.558 33.359,28.688c0.757,5.283 -6.38,14.996 -10.795,16.677c-3.259,1.241 -6.1,4.853 -17.908,6.022Z" style="fill:#857261;"/><path d="M76.338,51.675c4.264,4.795 7.406,10.768 8.341,17.298c0.757,5.283 -6.38,14.996 -10.795,16.677c-3.259,1.241 -6.1,4.853 -17.908,6.022c-7.535,0.746 -17.117,-2.002 -19.101,-2.937c-5.157,-2.428 -8.568,-3.925 -12.559,-10.572c-0.687,-1.145 -1.195,-2.441 -1.49,-3.881c2.3,2.026 4.732,3.132 7.769,4.562c1.984,0.935 11.565,3.683 19.1,2.937c11.808,-1.169 14.649,-4.781 17.908,-6.022c4.416,-1.681 11.552,-11.394 10.795,-16.677c-0.367,-2.568 -1.076,-5.05 -2.06,-7.407Z" style="fill-opacity:0.25;"/><path d="M80.681,57.665c2.003,3.459 3.421,7.278 3.998,11.308c0.757,5.283 -6.38,14.996 -10.795,16.677c-3.259,1.241 -6.1,4.853 -17.908,6.022c-7.535,0.746 -17.117,-2.002 -19.101,-2.937c-5.157,-2.428 -8.568,-3.925 -12.559,-10.572c-0.502,-0.836 -0.907,-1.752 -1.205,-2.746c3.678,5.637 6.976,7.094 11.806,9.368c1.985,0.935 11.566,3.683 19.101,2.937c11.808,-1.169 14.649,-4.781 17.908,-6.022c4.416,-1.681 11.552,-11.394 10.795,-16.678c-0.365,-2.548 -1.066,-5.012 -2.04,-7.357Z" style="fill-opacity:0.25;"/><path d="M55.105,57.484c-3.69,0.534 -8.608,-0.007 -9.648,-0.239c-2.706,-0.605 -4.488,-0.968 -6.872,-3.01c-1.506,-1.29 -1.937,-3.348 -0.467,-6.095c3.096,-5.79 8.098,-6.863 11.546,-7.439c6.471,-1.082 16.028,2.633 18.289,8.193c0.697,1.715 -2.249,5.194 -4.336,5.918c-1.54,0.534 -2.729,1.834 -8.512,2.672Z" style="fill:#e9e9e9;fill-opacity:0.14;"/><path d="M50.554,146.184c1.203,6.833 3.21,14.082 6.699,21.659c5.078,11.03 19.554,26.002 32.596,15.84c7.283,-5.674 5.804,-17.909 0.94,-38.202c3.125,15.098 3.235,24.595 -2.926,29.396c-13.042,10.162 -27.518,-4.81 -32.597,-15.841c-2.026,-4.401 -3.553,-8.692 -4.712,-12.852Z" style="fill:#4a4a4a;fill-opacity:0.24;"/><path d="M92.465,155.33c2.266,12.66 1.816,20.823 -3.748,25.158c-13.042,10.161 -27.518,-4.811 -32.596,-15.841c-0.871,-1.89 -1.649,-3.76 -2.345,-5.607c0.957,2.88 2.102,5.816 3.477,8.803c5.078,11.03 19.554,26.002 32.596,15.84c7.283,-5.674 5.804,-17.909 0.94,-38.202c0.744,3.597 1.317,6.875 1.676,9.849Z" style="fill:#4a4a4a;fill-opacity:0.24;"/></g><g><path d="M152.377,66.474l-11.474,10.233c-0,12.076 -3.641,30.023 -14.752,46.416c-11.62,17.145 -32.003,26.317 -27.225,45.286c2.966,11.775 -5.957,23.27 8.73,15.677c8.514,-4.402 20.74,-5.729 39.932,-39.119c6.606,-11.493 9.027,-44.86 4.789,-78.493Z" style="fill:#dedbd3;"/><path d="M149.489,140.755c-17.604,19.744 -30.11,22.858 -39.539,27.825c-5.285,2.783 -8.504,3.973 -10.411,3.976c0.569,10.087 -4.828,18.223 8.117,11.53c8.514,-4.402 20.74,-5.729 39.932,-39.119c0.678,-1.18 1.313,-2.591 1.901,-4.212Z" style="fill-opacity:0.11;"/><path d="M142.916,152.694c-17.7,19.432 -29.29,20.563 -38.012,24.116c-2.298,0.936 -4.134,1.569 -5.592,1.933c-0.686,6.743 -1.777,10.576 8.344,5.343c7.802,-4.034 18.722,-5.486 35.26,-31.392Z" style="fill-opacity:0.11;"/><path d="M149.278,95.832c-7.57,0.115 -16.889,-3.423 -18.789,-4.519c-4.937,-2.851 -8.211,-4.627 -11.634,-11.584c-2.162,-4.396 -1.741,-10.629 2.833,-18.142c9.639,-15.833 20.114,-17.016 27.237,-17.352c13.363,-0.629 29.835,14.097 30.85,31.371c0.313,5.328 -7.608,14.412 -12.149,15.719c-3.351,0.965 -6.483,4.327 -18.348,4.507Z" style="fill:#857261;"/><path d="M159.151,47.948c-5.239,-3.671 -9.757,-3.465 -13.157,-3.108c-1.932,0.203 -3.878,0.962 -5.741,2.166c-0.701,0.917 -1.218,1.924 -1.47,2.984c-0.341,1.433 1.916,4.063 3.382,4.517c1.083,0.335 1.986,1.313 5.961,1.623c2.537,0.199 5.823,-0.551 6.509,-0.806c1.784,-0.661 2.962,-1.069 4.42,-2.873c0.853,-1.057 1.031,-2.589 0.096,-4.503Z" style="fill:#fff;fill-opacity:0.13;"/><g><path d="M176.692,63.917c1.733,3.641 2.842,7.593 3.083,11.689c0.313,5.328 -7.608,14.412 -12.149,15.719c-3.351,0.965 -6.483,4.327 -18.348,4.507c-7.57,0.115 -16.889,-3.423 -18.789,-4.519c-4.937,-2.851 -8.211,-4.627 -11.634,-11.584c-1.295,-2.632 -1.663,-5.922 -0.769,-9.752c2.719,4.001 5.583,5.582 9.486,7.836c1.899,1.096 11.218,4.634 18.789,4.519c11.864,-0.18 14.997,-3.542 18.348,-4.507c4.058,-1.168 10.817,-8.549 11.983,-13.908Z" style="fill-opacity:0.25;"/><path d="M179.187,71.239c0.301,1.432 0.501,2.89 0.588,4.367c0.313,5.328 -7.608,14.412 -12.149,15.719c-3.351,0.965 -6.483,4.327 -18.348,4.507c-7.57,0.115 -16.889,-3.423 -18.789,-4.519c-4.937,-2.851 -8.211,-4.627 -11.634,-11.584c-0.914,-1.859 -1.367,-4.047 -1.238,-6.522c0.179,0.559 0.395,1.095 0.646,1.606c3.423,6.957 6.697,8.733 11.634,11.583c1.9,1.097 11.218,4.635 18.789,4.52c11.864,-0.18 14.997,-3.543 18.348,-4.507c4.388,-1.263 11.933,-9.79 12.153,-15.17Z" style="fill-opacity:0.25;"/></g></g><g><g><path d="M115.229,110.083l-10.579,1.127c-2.59,6.861 -6.196,11.436 -9.674,18.104c-3.536,6.778 -8.143,14.802 -10.166,27.058c-1.256,7.608 -0.069,21.033 7.844,21.266c4.588,0.136 7.621,-7.134 11.878,-20.189c2.39,-7.33 7.593,-39.142 10.697,-47.366Z" style="fill:#dedbd3;"/><path d="M115.229,110.083l-10.579,1.127c-2.59,6.861 -6.196,11.436 -9.674,18.104c-3.536,6.778 -8.143,14.802 -10.166,27.058c-1.256,7.608 -0.069,21.033 7.844,21.266c4.588,0.136 7.621,-7.134 11.878,-20.189c2.39,-7.33 7.593,-39.142 10.697,-47.366Z" style="fill:#818181;fill-opacity:0.2;"/><path d="M89.698,139.918c-1.995,4.583 -3.809,9.916 -4.888,16.454c-1.256,7.608 -0.069,21.033 7.844,21.266c4.026,0.119 6.855,-5.464 10.364,-15.655c-2.429,5.712 -4.752,8.746 -7.731,8.658c-7.914,-0.233 -9.1,-13.659 -7.844,-21.267c0.572,-3.468 1.352,-6.597 2.255,-9.456Z" style="fill-opacity:0.24;"/><path d="M107.332,128.194c-6.273,-0.259 -13.822,-3.626 -15.342,-4.623c-3.954,-2.592 -6.581,-4.217 -9.086,-10.142c-1.583,-3.743 -0.941,-8.889 3.201,-14.901c8.727,-12.67 17.456,-13.161 23.369,-13.106c11.093,0.102 24.035,13.074 24.061,27.435c0.008,4.43 -6.979,11.588 -10.8,12.459c-2.82,0.642 -5.572,3.282 -15.403,2.878Z" style="fill:#857261;"/><path d="M94.508,89.642c5.694,-4.045 10.972,-4.257 14.966,-4.22c2.269,0.021 4.616,0.58 6.915,1.581c0.916,0.827 1.627,1.758 2.036,2.765c0.554,1.362 -1.785,4.123 -3.442,4.698c-1.222,0.424 -2.166,1.456 -6.756,2.121c-2.93,0.424 -6.834,-0.005 -7.66,-0.19c-2.148,-0.48 -3.563,-0.768 -5.455,-2.389c-1.108,-0.949 -1.483,-2.421 -0.604,-4.366Z" style="fill:#fff;fill-opacity:0.13;"/><path d="M130.756,101.283c1.734,3.574 2.771,7.519 2.779,11.574c0.008,4.43 -6.979,11.588 -10.8,12.459c-2.82,0.642 -5.572,3.282 -15.403,2.878c-6.273,-0.259 -13.822,-3.626 -15.342,-4.623c-3.954,-2.592 -6.581,-4.217 -9.086,-10.142c-0.836,-1.978 -1.052,-4.347 -0.457,-7.029c1.88,2.673 3.998,4.014 6.765,5.829c1.521,0.997 9.069,4.364 15.343,4.622c9.831,0.405 12.583,-2.235 15.403,-2.878c3.821,-0.871 10.807,-8.029 10.799,-12.458c0,-0.078 -0,-0.155 -0.001,-0.232Z" style="fill-opacity:0.25;"/><path d="M82.22,107.686c0.098,0.323 0.212,0.636 0.341,0.94c2.505,5.925 5.132,7.549 9.085,10.142c1.521,0.997 9.069,4.364 15.343,4.623c9.831,0.404 12.583,-2.236 15.403,-2.878c3.662,-0.835 10.233,-7.446 10.765,-11.894c0.244,1.391 0.375,2.808 0.378,4.238c0.008,4.43 -6.979,11.588 -10.8,12.459c-2.82,0.642 -5.572,3.282 -15.403,2.878c-6.273,-0.259 -13.822,-3.626 -15.342,-4.623c-3.954,-2.592 -6.581,-4.217 -9.086,-10.142c-0.7,-1.655 -0.965,-3.585 -0.684,-5.743Z" style="fill-opacity:0.25;"/></g></g><g><g><path d="M61.52,126.654l8.534,0.91c2.089,5.534 4.998,9.225 7.804,14.604c2.852,5.468 6.569,11.941 8.201,21.828c1.013,6.137 0.056,16.968 -6.328,17.156c-3.701,0.109 -6.148,-5.755 -9.582,-16.287c-1.928,-5.913 -6.125,-31.577 -8.629,-38.211Z" style="fill:#dedbd3;"/><path d="M61.52,126.654l8.534,0.91c2.089,5.534 4.998,9.225 7.804,14.604c2.852,5.468 6.569,11.941 8.201,21.828c1.013,6.137 0.056,16.968 -6.328,17.156c-3.701,0.109 -6.148,-5.755 -9.582,-16.287c-1.928,-5.913 -6.125,-31.577 -8.629,-38.211Z" style="fill:#818181;fill-opacity:0.18;"/><path d="M82.115,150.723c1.61,3.697 3.074,7.999 3.944,13.273c1.013,6.137 0.056,16.968 -6.328,17.156c-3.248,0.096 -5.53,-4.408 -8.36,-12.63c1.959,4.609 3.833,7.056 6.236,6.986c6.384,-0.189 7.341,-11.019 6.328,-17.157c-0.462,-2.798 -1.091,-5.322 -1.82,-7.628Z" style="fill-opacity:0.24;"/><path d="M67.52,142.154c5.369,-0.221 11.83,-3.102 13.131,-3.956c3.384,-2.219 5.632,-3.609 7.776,-8.68c1.355,-3.204 0.805,-7.608 -2.739,-12.754c-7.47,-10.843 -14.94,-11.263 -20.001,-11.217c-9.494,0.088 -20.571,11.19 -20.593,23.482c-0.006,3.791 5.973,9.917 9.243,10.662c2.414,0.55 4.769,2.81 13.183,2.463Z" style="fill:#857261;"/><path d="M78.496,109.159c-4.874,-3.462 -9.391,-3.643 -12.809,-3.612c-1.942,0.018 -3.951,0.497 -5.919,1.354c-0.783,0.708 -1.392,1.505 -1.742,2.367c-0.474,1.165 1.528,3.528 2.946,4.02c1.046,0.363 1.853,1.247 5.783,1.815c2.507,0.363 5.848,-0.004 6.555,-0.162c1.838,-0.411 3.049,-0.658 4.669,-2.045c0.948,-0.812 1.269,-2.072 0.517,-3.737Z" style="fill:#fff;fill-opacity:0.13;"/><path d="M47.473,119.122c-1.485,3.059 -2.372,6.435 -2.379,9.907c-0.006,3.791 5.973,9.917 9.243,10.662c2.414,0.55 4.769,2.81 13.183,2.463c5.369,-0.221 11.83,-3.102 13.131,-3.956c3.384,-2.219 5.632,-3.609 7.776,-8.68c0.716,-1.693 0.9,-3.721 0.392,-6.016c-1.61,2.288 -3.422,3.435 -5.791,4.988c-1.301,0.854 -7.762,3.736 -13.131,3.957c-8.414,0.346 -10.769,-1.913 -13.183,-2.463c-3.27,-0.746 -9.25,-6.872 -9.243,-10.663c0,-0.066 0.001,-0.133 0.002,-0.199Z" style="fill-opacity:0.25;"/><path d="M89.013,124.603c-0.085,0.276 -0.182,0.544 -0.292,0.804c-2.144,5.071 -4.393,6.461 -7.776,8.68c-1.301,0.854 -7.762,3.736 -13.131,3.957c-8.414,0.346 -10.77,-1.913 -13.183,-2.464c-3.134,-0.714 -8.758,-6.372 -9.213,-10.179c-0.21,1.191 -0.321,2.403 -0.324,3.628c-0.006,3.791 5.973,9.917 9.243,10.662c2.414,0.55 4.769,2.81 13.183,2.463c5.369,-0.221 11.83,-3.102 13.131,-3.956c3.384,-2.219 5.632,-3.609 7.776,-8.68c0.599,-1.417 0.826,-3.068 0.586,-4.915Z" style="fill-opacity:0.25;"/></g></g><g><path d="M132.494,141.402l-3.048,-8.301c-7.667,6.579 -5.497,15.411 -13.549,21.342c-8.184,6.029 -14.615,1.401 -26.687,14.41c-7.494,8.076 -8.771,11.392 -4.041,15.474c2.743,2.366 18.64,7.777 32.811,-5.068c7.957,-7.211 13.384,-25.258 14.514,-37.857Z" style="fill:#dedbd3;"/><path d="M132.494,141.402l-3.048,-8.301c-7.667,6.579 -5.497,15.411 -13.549,21.342c-8.184,6.029 -14.615,1.401 -26.687,14.41c-7.494,8.076 -8.771,11.392 -4.041,15.474c2.743,2.366 18.64,7.777 32.811,-5.068c7.957,-7.211 13.384,-25.258 14.514,-37.857Z" style="fill:#818181;fill-opacity:0.15;"/><path d="M123.431,172.099c-14.171,12.844 -30.068,7.433 -32.81,5.067c-2.826,-2.437 -3.508,-4.602 -2.003,-7.67c-6.966,7.612 -8.052,10.859 -3.449,14.831c2.743,2.366 18.64,7.777 32.811,-5.068c1.984,-1.798 3.81,-4.269 5.451,-7.16Zm6.157,-38.611l-0.142,-0.387c-4.895,4.201 -5.78,9.32 -7.877,14.016c5.028,-3.826 5.954,-8.818 8.019,-13.629Z" style="fill-opacity:0.16;"/><path d="M126.05,150.006c-4.512,-1.516 -9.294,-5.566 -10.19,-6.615c-2.328,-2.724 -3.897,-4.463 -4.465,-9.307c-0.36,-3.061 1.198,-6.671 5.486,-10.17c9.037,-7.375 15.496,-5.883 19.788,-4.591c8.054,2.424 14.728,14.609 11.705,25.069c-0.933,3.226 -7.535,6.957 -10.501,6.782c-2.189,-0.129 -4.752,1.209 -11.823,-1.168Z" style="fill:#857261;"/><path d="M124.881,119.225c5.002,-1.739 8.889,-0.775 11.788,0.098c1.648,0.496 3.238,1.4 4.7,2.616c0.491,0.796 0.812,1.624 0.896,2.444c0.115,1.108 -2.173,2.624 -3.5,2.691c-0.98,0.05 -1.886,0.601 -5.368,0.113c-2.223,-0.312 -4.974,-1.452 -5.536,-1.761c-1.462,-0.804 -2.431,-1.314 -3.465,-2.895c-0.606,-0.925 -0.567,-2.076 0.485,-3.306Z" style="fill:#fff;fill-opacity:0.13;"/><path d="M148.803,135.377c0.505,2.97 0.425,6.061 -0.429,9.015c-0.933,3.226 -7.535,6.957 -10.501,6.782c-2.189,-0.129 -4.752,1.209 -11.823,-1.168c-4.512,-1.516 -9.294,-5.566 -10.19,-6.615c-2.328,-2.724 -3.897,-4.463 -4.465,-9.307c-0.19,-1.618 0.155,-3.388 1.156,-5.215c0.802,2.345 2.06,3.769 3.69,5.677c0.896,1.048 5.678,5.098 10.19,6.615c7.071,2.377 9.634,1.038 11.823,1.168c2.966,0.175 9.568,-3.556 10.501,-6.782c0.016,-0.057 0.032,-0.113 0.048,-0.17Z" style="fill-opacity:0.25;"/><path d="M112.113,129.758c0.003,0.256 0.02,0.508 0.049,0.756c0.569,4.844 2.137,6.583 4.466,9.308c0.896,1.048 5.678,5.098 10.19,6.615c7.071,2.377 9.634,1.038 11.823,1.168c2.842,0.168 9.026,-3.253 10.356,-6.379c-0.117,1.065 -0.322,2.124 -0.623,3.166c-0.933,3.226 -7.535,6.957 -10.501,6.782c-2.189,-0.129 -4.752,1.209 -11.823,-1.168c-4.512,-1.516 -9.294,-5.566 -10.19,-6.615c-2.328,-2.724 -3.897,-4.463 -4.465,-9.307c-0.159,-1.354 0.057,-2.815 0.718,-4.326Z" style="fill-opacity:0.25;"/><path d="M121.991,174.451c-0.803,1.021 -1.64,1.934 -2.506,2.72c-14.171,12.844 -30.069,7.433 -32.811,5.067c-3.247,-2.802 -3.664,-5.242 -1.182,-9.109c-4.046,5.141 -4.118,7.923 -0.323,11.198c2.743,2.366 18.64,7.777 32.811,-5.068c1.421,-1.288 2.762,-2.922 4.011,-4.808Z" style="fill-opacity:0.16;"/></g><g><path d="M83.49,70.097l7.135,10.218c-2.26,9.523 -2.746,24.358 2.949,39.366c5.956,15.695 20.315,26.743 12.997,40.809c-4.542,8.732 0.344,19.467 -9.818,10.73c-5.89,-5.064 -15.284,-8.399 -24.172,-38.323c-3.06,-10.3 1.274,-37.068 10.909,-62.8Z" style="fill:#dedbd3;"/><path d="M83.49,70.097l7.135,10.218c-2.26,9.523 -2.746,24.358 2.949,39.366c5.956,15.695 20.315,26.743 12.997,40.809c-4.542,8.732 0.344,19.467 -9.818,10.73c-5.89,-5.064 -15.284,-8.399 -24.172,-38.323c-3.06,-10.3 1.274,-37.068 10.909,-62.8Z" style="fill:#818181;fill-opacity:0.27;"/><path d="M71.87,129.22c10.189,18.865 19.469,23.661 25.976,29.342c3.647,3.184 5.963,4.725 7.466,5.083c-2.336,7.849 0.398,15.275 -8.559,7.575c-5.89,-5.064 -15.284,-8.399 -24.172,-38.323c-0.315,-1.058 -0.551,-2.289 -0.711,-3.677Z" style="fill-opacity:0.11;"/><path d="M74.819,139.865c10.323,18.637 19.253,21.698 25.467,26.132c1.636,1.168 2.966,2.011 4.048,2.571c-0.721,5.446 -0.577,8.673 -7.581,2.652c-5.398,-4.641 -13.738,-7.829 -21.934,-31.355Z" style="fill-opacity:0.11;"/><path d="M84.265,91.335c6.084,0.801 13.918,-1.175 15.55,-1.881c4.242,-1.833 7.044,-2.956 10.451,-8.237c2.153,-3.337 2.397,-8.395 -0.583,-14.872c-6.278,-13.65 -14.602,-15.582 -20.305,-16.519c-10.7,-1.758 -25.34,8.557 -27.774,22.37c-0.751,4.26 4.777,12.316 8.31,13.793c2.608,1.09 4.815,4.09 14.351,5.346Z" style="fill:#857261;"/><path d="M80.797,51.858c4.562,-2.465 8.18,-1.877 10.884,-1.271c1.536,0.344 3.032,1.137 4.42,2.281c0.478,0.804 0.8,1.663 0.904,2.54c0.141,1.186 -1.923,3.092 -3.146,3.32c-0.903,0.169 -1.721,0.871 -4.951,0.75c-2.061,-0.078 -4.637,-0.99 -5.165,-1.259c-1.375,-0.699 -2.285,-1.137 -3.29,-2.727c-0.588,-0.93 -0.588,-2.18 0.344,-3.634Z" style="fill:#fff;fill-opacity:0.13;"/><g><path d="M65.18,63.074c-1.736,2.769 -2.999,5.847 -3.576,9.122c-0.751,4.26 4.777,12.316 8.31,13.793c2.608,1.09 4.815,4.09 14.351,5.346c6.084,0.801 13.918,-1.175 15.55,-1.881c4.242,-1.833 7.044,-2.956 10.451,-8.237c1.289,-1.998 1.894,-4.613 1.532,-7.78c-2.564,2.967 -5.017,3.972 -8.371,5.421c-1.631,0.705 -9.465,2.682 -15.55,1.881c-9.535,-1.256 -11.743,-4.256 -14.351,-5.346c-3.158,-1.32 -7.909,-7.896 -8.346,-12.319Z" style="fill-opacity:0.25;"/><path d="M62.486,68.735c-0.377,1.125 -0.674,2.28 -0.882,3.461c-0.751,4.26 4.777,12.316 8.31,13.793c2.608,1.09 4.815,4.09 14.351,5.346c6.084,0.801 13.918,-1.175 15.55,-1.881c4.242,-1.833 7.044,-2.956 10.451,-8.237c0.91,-1.412 1.48,-3.131 1.608,-5.135c-0.197,0.433 -0.421,0.844 -0.671,1.232c-3.407,5.281 -6.209,6.404 -10.451,8.237c-1.632,0.705 -9.466,2.682 -15.551,1.881c-9.535,-1.256 -11.743,-4.256 -14.35,-5.346c-3.415,-1.428 -8.692,-8.999 -8.365,-13.351Z" style="fill-opacity:0.25;"/></g></g><g><g><path d="M98.194,54.319l15.472,10.44c0,13.182 2.863,23.506 4.329,37.102c1.489,13.82 3.894,30.525 -0.073,51.954c-2.463,13.302 -11.994,34.004 -24.187,27.931c-7.069,-3.52 -7.509,-17.725 -6.487,-42.265c0.574,-13.777 10.946,-69.36 10.946,-85.162Z" style="fill:#dad1bb;"/><path d="M98.194,54.319l15.472,10.44c0,13.182 2.863,23.506 4.329,37.102c1.489,13.82 3.894,30.525 -0.073,51.954c-2.463,13.302 -11.994,34.004 -24.187,27.931c-7.069,-3.52 -7.509,-17.725 -6.487,-42.265c0.574,-13.777 10.946,-69.36 10.946,-85.162Z" style="fill:#818181;fill-opacity:0.15;"/><path d="M117.006,94.212c0.362,2.455 0.702,4.99 0.989,7.649c1.489,13.82 3.894,30.525 -0.073,51.954c-2.463,13.302 -11.994,34.004 -24.187,27.931c-4.175,-2.079 -6.038,-7.885 -6.652,-17.347c1.038,4.764 2.802,7.859 5.616,9.261c12.193,6.072 21.724,-14.629 24.187,-27.932c3.925,-21.203 1.612,-37.782 0.12,-51.516Zm-4.068,-29.944l0.728,0.491c0,3.445 0.196,6.694 0.51,9.856c-0.511,-3.411 -0.958,-6.811 -1.238,-10.347Z" style="fill:#2b2b2b;fill-opacity:0.23;"/><path d="M118.404,107.676c-0.408,-4.789 -0.941,-9.26 -1.398,-13.464c0.362,2.455 0.702,4.99 0.989,7.649c1.489,13.82 3.894,30.525 -0.073,51.954c-2.463,13.302 -11.994,34.004 -24.187,27.931c-3.405,-1.696 -5.272,-5.871 -6.178,-12.486c1.042,4.7 2.799,7.756 5.591,9.146c12.194,6.073 21.725,-14.628 24.187,-27.931c3.13,-16.905 2.293,-30.87 1.069,-42.799Zm-5.276,-43.28l0.538,0.363c0,3.445 0.196,6.694 0.51,9.856c-0.311,-2.073 -0.597,-4.141 -0.837,-6.239c-0.096,-1.305 -0.168,-2.629 -0.211,-3.98Z" style="fill:#2b2b2b;fill-opacity:0.23;"/><path d="M107.549,68.144c-8.264,0.126 -18.438,-3.737 -20.511,-4.934c-5.39,-3.112 -8.964,-5.05 -12.701,-12.645c-2.36,-4.799 -1.901,-11.604 3.092,-19.806c10.523,-17.284 21.959,-18.575 29.735,-18.942c14.588,-0.687 32.569,15.389 33.677,34.247c0.342,5.816 -8.305,15.733 -13.262,17.16c-3.658,1.053 -7.078,4.723 -20.03,4.92Z" style="fill:#745d4b;"/><path d="M109.967,34.99c-3.987,0.588 -9.256,-0.307 -10.367,-0.655c-2.888,-0.904 -4.792,-1.453 -7.285,-4.271c-1.575,-1.781 -1.967,-4.554 -0.292,-8.186c3.53,-7.652 8.945,-8.916 12.673,-9.57c6.994,-1.226 17.143,4.086 19.381,11.615c0.69,2.323 -2.597,6.883 -4.866,7.781c-1.674,0.662 -2.997,2.364 -9.244,3.286Z" style="fill:#e9e9e9;fill-opacity:0.14;"/><path d="M130.802,23.415c5.559,6.106 9.536,14.091 10.039,22.649c0.342,5.816 -8.305,15.733 -13.262,17.16c-3.658,1.053 -7.078,4.723 -20.03,4.92c-8.264,0.126 -18.438,-3.737 -20.511,-4.934c-5.39,-3.112 -8.964,-5.05 -12.701,-12.645c-0.058,-0.119 -0.115,-0.24 -0.17,-0.362c2.03,1.817 4.267,3.077 6.956,4.629c2.073,1.197 12.246,5.059 20.511,4.934c12.952,-0.197 16.372,-3.868 20.03,-4.92c4.957,-1.427 13.604,-11.344 13.262,-17.161c-0.296,-5.044 -1.8,-9.889 -4.124,-14.27Z" style="fill-opacity:0.29;"/><path d="M130.898,23.522c5.509,6.092 9.443,14.034 9.943,22.542c0.342,5.816 -8.305,15.733 -13.262,17.16c-3.658,1.053 -7.078,4.723 -20.03,4.92c-8.264,0.126 -18.438,-3.737 -20.511,-4.934c-4.447,-2.567 -7.658,-4.336 -10.744,-9.143c2.21,2.172 4.643,3.538 7.635,5.265c2.073,1.198 12.246,5.06 20.511,4.934c12.952,-0.196 16.372,-3.867 20.03,-4.92c4.957,-1.427 13.604,-11.344 13.262,-17.16c-0.399,-6.802 -2.994,-13.242 -6.834,-18.664Z" style="fill-opacity:0.29;"/></g></g><g><path d="M63.265,70.659l-16.088,15.356c2.218,11.87 0.653,22.267 1.25,35.074c0.608,13.018 0.645,28.985 8.826,46.754c5.078,11.03 19.554,26.002 32.596,15.84c7.56,-5.891 5.678,-18.85 0.37,-40.553c-2.98,-12.186 -24.295,-58.242 -26.954,-72.471Z" style="fill:#dedbd3;"/><path d="M55.976,91.672c-7.535,0.746 -17.117,-2.002 -19.101,-2.937c-5.157,-2.428 -8.568,-3.925 -12.559,-10.572c-2.522,-4.201 -2.623,-10.447 1.309,-18.316c8.285,-16.582 18.625,-18.634 25.695,-19.562c13.264,-1.742 30.907,11.558 33.359,28.688c0.757,5.283 -6.38,14.996 -10.795,16.677c-3.259,1.241 -6.1,4.853 -17.908,6.022Z" style="fill:#857261;"/><path d="M76.338,51.675c4.264,4.795 7.406,10.768 8.341,17.298c0.757,5.283 -6.38,14.996 -10.795,16.677c-3.259,1.241 -6.1,4.853 -17.908,6.022c-7.535,0.746 -17.117,-2.002 -19.101,-2.937c-5.157,-2.428 -8.568,-3.925 -12.559,-10.572c-0.687,-1.145 -1.195,-2.441 -1.49,-3.881c2.3,2.026 4.732,3.132 7.769,4.562c1.984,0.935 11.565,3.683 19.1,2.937c11.808,-1.169 14.649,-4.781 17.908,-6.022c4.416,-1.681 11.552,-11.394 10.795,-16.677c-0.367,-2.568 -1.076,-5.05 -2.06,-7.407Z" style="fill-opacity:0.25;"/><path d="M80.681,57.665c2.003,3.459 3.421,7.278 3.998,11.308c0.757,5.283 -6.38,14.996 -10.795,16.677c-3.259,1.241 -6.1,4.853 -17.908,6.022c-7.535,0.746 -17.117,-2.002 -19.101,-2.937c-5.157,-2.428 -8.568,-3.925 -12.559,-10.572c-0.502,-0.836 -0.907,-1.752 -1.205,-2.746c3.678,5.637 6.976,7.094 11.806,9.368c1.985,0.935 11.566,3.683 19.101,2.937c11.808,-1.169 14.649,-4.781 17.908,-6.022c4.416,-1.681 11.552,-11.394 10.795,-16.678c-0.365,-2.548 -1.066,-5.012 -2.04,-7.357Z" style="fill-opacity:0.25;"/><path d="M55.105,57.484c-3.69,0.534 -8.608,-0.007 -9.648,-0.239c-2.706,-0.605 -4.488,-0.968 -6.872,-3.01c-1.506,-1.29 -1.937,-3.348 -0.467,-6.095c3.096,-5.79 8.098,-6.863 11.546,-7.439c6.471,-1.082 16.028,2.633 18.289,8.193c0.697,1.715 -2.249,5.194 -4.336,5.918c-1.54,0.534 -2.729,1.834 -8.512,2.672Z" style="fill:#e9e9e9;fill-opacity:0.14;"/><path d="M50.554,146.184c1.203,6.833 3.21,14.082 6.699,21.659c5.078,11.03 19.554,26.002 32.596,15.84c7.283,-5.674 5.804,-17.909 0.94,-38.202c3.125,15.098 3.235,24.595 -2.926,29.396c-13.042,10.162 -27.518,-4.81 -32.597,-15.841c-2.026,-4.401 -3.553,-8.692 -4.712,-12.852Z" style="fill:#4a4a4a;fill-opacity:0.24;"/><path d="M92.465,155.33c2.266,12.66 1.816,20.823 -3.748,25.158c-13.042,10.161 -27.518,-4.811 -32.596,-15.841c-0.871,-1.89 -1.649,-3.76 -2.345,-5.607c0.957,2.88 2.102,5.816 3.477,8.803c5.078,11.03 19.554,26.002 32.596,15.84c7.283,-5.674 5.804,-17.909 0.94,-38.202c0.744,3.597 1.317,6.875 1.676,9.849Z" style="fill:#4a4a4a;fill-opacity:0.24;"/></g><g><path d="M152.377,66.474l-11.474,10.233c-0,12.076 -3.641,30.023 -14.752,46.416c-11.62,17.145 -32.003,26.317 -27.225,45.286c2.966,11.775 -5.957,23.27 8.73,15.677c8.514,-4.402 20.74,-5.729 39.932,-39.119c6.606,-11.493 9.027,-44.86 4.789,-78.493Z" style="fill:#dedbd3;"/><path d="M149.489,140.755c-17.604,19.744 -30.11,22.858 -39.539,27.825c-5.285,2.783 -8.504,3.973 -10.411,3.976c0.569,10.087 -4.828,18.223 8.117,11.53c8.514,-4.402 20.74,-5.729 39.932,-39.119c0.678,-1.18 1.313,-2.591 1.901,-4.212Z" style="fill-opacity:0.11;"/><path d="M142.916,152.694c-17.7,19.432 -29.29,20.563 -38.012,24.116c-2.298,0.936 -4.134,1.569 -5.592,1.933c-0.686,6.743 -1.777,10.576 8.344,5.343c7.802,-4.034 18.722,-5.486 35.26,-31.392Z" style="fill-opacity:0.11;"/><path d="M149.278,95.832c-7.57,0.115 -16.889,-3.423 -18.789,-4.519c-4.937,-2.851 -8.211,-4.627 -11.634,-11.584c-2.162,-4.396 -1.741,-10.629 2.833,-18.142c9.639,-15.833 20.114,-17.016 27.237,-17.352c13.363,-0.629 29.835,14.097 30.85,31.371c0.313,5.328 -7.608,14.412 -12.149,15.719c-3.351,0.965 -6.483,4.327 -18.348,4.507Z" style="fill:#857261;"/><path d="M159.151,47.948c-5.239,-3.671 -9.757,-3.465 -13.157,-3.108c-1.932,0.203 -3.878,0.962 -5.741,2.166c-0.701,0.917 -1.218,1.924 -1.47,2.984c-0.341,1.433 1.916,4.063 3.382,4.517c1.083,0.335 1.986,1.313 5.961,1.623c2.537,0.199 5.823,-0.551 6.509,-0.806c1.784,-0.661 2.962,-1.069 4.42,-2.873c0.853,-1.057 1.031,-2.589 0.096,-4.503Z" style="fill:#fff;fill-opacity:0.13;"/><g><path d="M176.692,63.917c1.733,3.641 2.842,7.593 3.083,11.689c0.313,5.328 -7.608,14.412 -12.149,15.719c-3.351,0.965 -6.483,4.327 -18.348,4.507c-7.57,0.115 -16.889,-3.423 -18.789,-4.519c-4.937,-2.851 -8.211,-4.627 -11.634,-11.584c-1.295,-2.632 -1.663,-5.922 -0.769,-9.752c2.719,4.001 5.583,5.582 9.486,7.836c1.899,1.096 11.218,4.634 18.789,4.519c11.864,-0.18 14.997,-3.542 18.348,-4.507c4.058,-1.168 10.817,-8.549 11.983,-13.908Z" style="fill-opacity:0.25;"/><path d="M179.187,71.239c0.301,1.432 0.501,2.89 0.588,4.367c0.313,5.328 -7.608,14.412 -12.149,15.719c-3.351,0.965 -6.483,4.327 -18.348,4.507c-7.57,0.115 -16.889,-3.423 -18.789,-4.519c-4.937,-2.851 -8.211,-4.627 -11.634,-11.584c-0.914,-1.859 -1.367,-4.047 -1.238,-6.522c0.179,0.559 0.395,1.095 0.646,1.606c3.423,6.957 6.697,8.733 11.634,11.583c1.9,1.097 11.218,4.635 18.789,4.52c11.864,-0.18 14.997,-3.543 18.348,-4.507c4.388,-1.263 11.933,-9.79 12.153,-15.17Z" style="fill-opacity:0.25;"/></g></g><g><g><path d="M115.229,110.083l-10.579,1.127c-2.59,6.861 -6.196,11.436 -9.674,18.104c-3.536,6.778 -8.143,14.802 -10.166,27.058c-1.256,7.608 -0.069,21.033 7.844,21.266c4.588,0.136 7.621,-7.134 11.878,-20.189c2.39,-7.33 7.593,-39.142 10.697,-47.366Z" style="fill:#dedbd3;"/><path d="M115.229,110.083l-10.579,1.127c-2.59,6.861 -6.196,11.436 -9.674,18.104c-3.536,6.778 -8.143,14.802 -10.166,27.058c-1.256,7.608 -0.069,21.033 7.844,21.266c4.588,0.136 7.621,-7.134 11.878,-20.189c2.39,-7.33 7.593,-39.142 10.697,-47.366Z" style="fill:#818181;fill-opacity:0.2;"/><path d="M89.698,139.918c-1.995,4.583 -3.809,9.916 -4.888,16.454c-1.256,7.608 -0.069,21.033 7.844,21.266c4.026,0.119 6.855,-5.464 10.364,-15.655c-2.429,5.712 -4.752,8.746 -7.731,8.658c-7.914,-0.233 -9.1,-13.659 -7.844,-21.267c0.572,-3.468 1.352,-6.597 2.255,-9.456Z" style="fill-opacity:0.24;"/><path d="M107.332,128.194c-6.273,-0.259 -13.822,-3.626 -15.342,-4.623c-3.954,-2.592 -6.581,-4.217 -9.086,-10.142c-1.583,-3.743 -0.941,-8.889 3.201,-14.901c8.727,-12.67 17.456,-13.161 23.369,-13.106c11.093,0.102 24.035,13.074 24.061,27.435c0.008,4.43 -6.979,11.588 -10.8,12.459c-2.82,0.642 -5.572,3.282 -15.403,2.878Z" style="fill:#857261;"/><path d="M94.508,89.642c5.694,-4.045 10.972,-4.257 14.966,-4.22c2.269,0.021 4.616,0.58 6.915,1.581c0.916,0.827 1.627,1.758 2.036,2.765c0.554,1.362 -1.785,4.123 -3.442,4.698c-1.222,0.424 -2.166,1.456 -6.756,2.121c-2.93,0.424 -6.834,-0.005 -7.66,-0.19c-2.148,-0.48 -3.563,-0.768 -5.455,-2.389c-1.108,-0.949 -1.483,-2.421 -0.604,-4.366Z" style="fill:#fff;fill-opacity:0.13;"/><path d="M130.756,101.283c1.734,3.574 2.771,7.519 2.779,11.574c0.008,4.43 -6.979,11.588 -10.8,12.459c-2.82,0.642 -5.572,3.282 -15.403,2.878c-6.273,-0.259 -13.822,-3.626 -15.342,-4.623c-3.954,-2.592 -6.581,-4.217 -9.086,-10.142c-0.836,-1.978 -1.052,-4.347 -0.457,-7.029c1.88,2.673 3.998,4.014 6.765,5.829c1.521,0.997 9.069,4.364 15.343,4.622c9.831,0.405 12.583,-2.235 15.403,-2.878c3.821,-0.871 10.807,-8.029 10.799,-12.458c0,-0.078 -0,-0.155 -0.001,-0.232Z" style="fill-opacity:0.25;"/><path d="M82.22,107.686c0.098,0.323 0.212,0.636 0.341,0.94c2.505,5.925 5.132,7.549 9.085,10.142c1.521,0.997 9.069,4.364 15.343,4.623c9.831,0.404 12.583,-2.236 15.403,-2.878c3.662,-0.835 10.233,-7.446 10.765,-11.894c0.244,1.391 0.375,2.808 0.378,4.238c0.008,4.43 -6.979,11.588 -10.8,12.459c-2.82,0.642 -5.572,3.282 -15.403,2.878c-6.273,-0.259 -13.822,-3.626 -15.342,-4.623c-3.954,-2.592 -6.581,-4.217 -9.086,-10.142c-0.7,-1.655 -0.965,-3.585 -0.684,-5.743Z" style="fill-opacity:0.25;"/></g></g><g><g><path d="M61.52,126.654l8.534,0.91c2.089,5.534 4.998,9.225 7.804,14.604c2.852,5.468 6.569,11.941 8.201,21.828c1.013,6.137 0.056,16.968 -6.328,17.156c-3.701,0.109 -6.148,-5.755 -9.582,-16.287c-1.928,-5.913 -6.125,-31.577 -8.629,-38.211Z" style="fill:#dedbd3;"/><path d="M61.52,126.654l8.534,0.91c2.089,5.534 4.998,9.225 7.804,14.604c2.852,5.468 6.569,11.941 8.201,21.828c1.013,6.137 0.056,16.968 -6.328,17.156c-3.701,0.109 -6.148,-5.755 -9.582,-16.287c-1.928,-5.913 -6.125,-31.577 -8.629,-38.211Z" style="fill:#818181;fill-opacity:0.18;"/><path d="M82.115,150.723c1.61,3.697 3.074,7.999 3.944,13.273c1.013,6.137 0.056,16.968 -6.328,17.156c-3.248,0.096 -5.53,-4.408 -8.36,-12.63c1.959,4.609 3.833,7.056 6.236,6.986c6.384,-0.189 7.341,-11.019 6.328,-17.157c-0.462,-2.798 -1.091,-5.322 -1.82,-7.628Z" style="fill-opacity:0.24;"/><path d="M67.52,142.154c5.369,-0.221 11.83,-3.102 13.131,-3.956c3.384,-2.219 5.632,-3.609 7.776,-8.68c1.355,-3.204 0.805,-7.608 -2.739,-12.754c-7.47,-10.843 -14.94,-11.263 -20.001,-11.217c-9.494,0.088 -20.571,11.19 -20.593,23.482c-0.006,3.791 5.973,9.917 9.243,10.662c2.414,0.55 4.769,2.81 13.183,2.463Z" style="fill:#857261;"/><path d="M78.496,109.159c-4.874,-3.462 -9.391,-3.643 -12.809,-3.612c-1.942,0.018 -3.951,0.497 -5.919,1.354c-0.783,0.708 -1.392,1.505 -1.742,2.367c-0.474,1.165 1.528,3.528 2.946,4.02c1.046,0.363 1.853,1.247 5.783,1.815c2.507,0.363 5.848,-0.004 6.555,-0.162c1.838,-0.411 3.049,-0.658 4.669,-2.045c0.948,-0.812 1.269,-2.072 0.517,-3.737Z" style="fill:#fff;fill-opacity:0.13;"/><path d="M47.473,119.122c-1.485,3.059 -2.372,6.435 -2.379,9.907c-0.006,3.791 5.973,9.917 9.243,10.662c2.414,0.55 4.769,2.81 13.183,2.463c5.369,-0.221 11.83,-3.102 13.131,-3.956c3.384,-2.219 5.632,-3.609 7.776,-8.68c0.716,-1.693 0.9,-3.721 0.392,-6.016c-1.61,2.288 -3.422,3.435 -5.791,4.988c-1.301,0.854 -7.762,3.736 -13.131,3.957c-8.414,0.346 -10.769,-1.913 -13.183,-2.463c-3.27,-0.746 -9.25,-6.872 -9.243,-10.663c0,-0.066 0.001,-0.133 0.002,-0.199Z" style="fill-opacity:0.25;"/><path d="M89.013,124.603c-0.085,0.276 -0.182,0.544 -0.292,0.804c-2.144,5.071 -4.393,6.461 -7.776,8.68c-1.301,0.854 -7.762,3.736 -13.131,3.957c-8.414,0.346 -10.77,-1.913 -13.183,-2.464c-3.134,-0.714 -8.758,-6.372 -9.213,-10.179c-0.21,1.191 -0.321,2.403 -0.324,3.628c-0.006,3.791 5.973,9.917 9.243,10.662c2.414,0.55 4.769,2.81 13.183,2.463c5.369,-0.221 11.83,-3.102 13.131,-3.956c3.384,-2.219 5.632,-3.609 7.776,-8.68c0.599,-1.417 0.826,-3.068 0.586,-4.915Z" style="fill-opacity:0.25;"/></g></g><g><path d="M132.494,141.402l-3.048,-8.301c-7.667,6.579 -5.497,15.411 -13.549,21.342c-8.184,6.029 -14.615,1.401 -26.687,14.41c-7.494,8.076 -8.771,11.392 -4.041,15.474c2.743,2.366 18.64,7.777 32.811,-5.068c7.957,-7.211 13.384,-25.258 14.514,-37.857Z" style="fill:#dedbd3;"/><path d="M132.494,141.402l-3.048,-8.301c-7.667,6.579 -5.497,15.411 -13.549,21.342c-8.184,6.029 -14.615,1.401 -26.687,14.41c-7.494,8.076 -8.771,11.392 -4.041,15.474c2.743,2.366 18.64,7.777 32.811,-5.068c7.957,-7.211 13.384,-25.258 14.514,-37.857Z" style="fill:#818181;fill-opacity:0.15;"/><path d="M123.431,172.099c-14.171,12.844 -30.068,7.433 -32.81,5.067c-2.826,-2.437 -3.508,-4.602 -2.003,-7.67c-6.966,7.612 -8.052,10.859 -3.449,14.831c2.743,2.366 18.64,7.777 32.811,-5.068c1.984,-1.798 3.81,-4.269 5.451,-7.16Zm6.157,-38.611l-0.142,-0.387c-4.895,4.201 -5.78,9.32 -7.877,14.016c5.028,-3.826 5.954,-8.818 8.019,-13.629Z" style="fill-opacity:0.16;"/><path d="M126.05,150.006c-4.512,-1.516 -9.294,-5.566 -10.19,-6.615c-2.328,-2.724 -3.897,-4.463 -4.465,-9.307c-0.36,-3.061 1.198,-6.671 5.486,-10.17c9.037,-7.375 15.496,-5.883 19.788,-4.591c8.054,2.424 14.728,14.609 11.705,25.069c-0.933,3.226 -7.535,6.957 -10.501,6.782c-2.189,-0.129 -4.752,1.209 -11.823,-1.168Z" style="fill:#857261;"/><path d="M124.881,119.225c5.002,-1.739 8.889,-0.775 11.788,0.098c1.648,0.496 3.238,1.4 4.7,2.616c0.491,0.796 0.812,1.624 0.896,2.444c0.115,1.108 -2.173,2.624 -3.5,2.691c-0.98,0.05 -1.886,0.601 -5.368,0.113c-2.223,-0.312 -4.974,-1.452 -5.536,-1.761c-1.462,-0.804 -2.431,-1.314 -3.465,-2.895c-0.606,-0.925 -0.567,-2.076 0.485,-3.306Z" style="fill:#fff;fill-opacity:0.13;"/><path d="M148.803,135.377c0.505,2.97 0.425,6.061 -0.429,9.015c-0.933,3.226 -7.535,6.957 -10.501,6.782c-2.189,-0.129 -4.752,1.209 -11.823,-1.168c-4.512,-1.516 -9.294,-5.566 -10.19,-6.615c-2.328,-2.724 -3.897,-4.463 -4.465,-9.307c-0.19,-1.618 0.155,-3.388 1.156,-5.215c0.802,2.345 2.06,3.769 3.69,5.677c0.896,1.048 5.678,5.098 10.19,6.615c7.071,2.377 9.634,1.038 11.823,1.168c2.966,0.175 9.568,-3.556 10.501,-6.782c0.016,-0.057 0.032,-0.113 0.048,-0.17Z" style="fill-opacity:0.25;"/><path d="M112.113,129.758c0.003,0.256 0.02,0.508 0.049,0.756c0.569,4.844 2.137,6.583 4.466,9.308c0.896,1.048 5.678,5.098 10.19,6.615c7.071,2.377 9.634,1.038 11.823,1.168c2.842,0.168 9.026,-3.253 10.356,-6.379c-0.117,1.065 -0.322,2.124 -0.623,3.166c-0.933,3.226 -7.535,6.957 -10.501,6.782c-2.189,-0.129 -4.752,1.209 -11.823,-1.168c-4.512,-1.516 -9.294,-5.566 -10.19,-6.615c-2.328,-2.724 -3.897,-4.463 -4.465,-9.307c-0.159,-1.354 0.057,-2.815 0.718,-4.326Z" style="fill-opacity:0.25;"/><path d="M121.991,174.451c-0.803,1.021 -1.64,1.934 -2.506,2.72c-14.171,12.844 -30.069,7.433 -32.811,5.067c-3.247,-2.802 -3.664,-5.242 -1.182,-9.109c-4.046,5.141 -4.118,7.923 -0.323,11.198c2.743,2.366 18.64,7.777 32.811,-5.068c1.421,-1.288 2.762,-2.922 4.011,-4.808Z" style="fill-opacity:0.16;"/></g></svg>