<?xml version="1.0" encoding="UTF-8" standalone="no"?><!DOCTYPE svg PUBLIC "-//W3C//DTD SVG 1.1//EN" "http://www.w3.org/Graphics/SVG/1.1/DTD/svg11.dtd"><svg width="100%" height="100%" viewBox="0 0 200 200" version="1.1" xmlns="http://www.w3.org/2000/svg" xmlns:xlink="http://www.w3.org/1999/xlink" xml:space="preserve" xmlns:serif="http://www.serif.com/" style="fill-rule:evenodd;clip-rule:evenodd;stroke-linejoin:round;stroke-miterlimit:2;"><path d="M113.932,144.07l-97.681,-56.396l0,14.358l97.776,56.327l70.073,-40.457l0,-14.343l-70.168,40.511Z" style="fill:#e9e9e9;"/><path d="M14.419,101.92c-0.04,0.679 0.002,3.249 0.082,3.941c0.097,0.838 0.75,1.699 1.936,2.384l93.304,53.869c2.354,1.359 5.922,1.507 7.961,0.33l66.511,-38.4c0.861,-0.497 1.313,-1.151 1.371,-1.844c0.057,-0.692 -0.103,-3.085 -0.07,-3.662c0.054,-0.935 -0.606,-1.934 -1.945,-2.707l-93.304,-53.869c-2.355,-1.36 -5.922,-1.508 -7.962,-0.33l-66.51,38.4c-0.88,0.508 -1.332,1.179 -1.374,1.888Z" style="fill:#151515;"/><path d="M113.926,144.074l-97.675,-56.392l0,14.342l97.675,56.393l70.174,-40.515l0,-14.343l-70.174,40.515Z" style="fill:#e9e9e9;"/><path d="M113.919,144.063l-97.775,-56.451l-0,14.358l97.775,56.451l0,-14.358Z" style="fill:#838383;fill-opacity:0.31;"/><path d="M184.1,116.426l-70.181,40.519l0,0.915l70.181,-40.519l0,-0.915Z" style="fill:#838383;fill-opacity:0.31;"/><path d="M184.1,114.964l-70.181,40.519l0,0.569l70.181,-40.52l0,-0.568Z" style="fill:#838383;fill-opacity:0.31;"/><path d="M184.1,112.04l-70.181,40.519l0,0.893l70.181,-40.519l0,-0.893Z" style="fill:#838383;fill-opacity:0.31;"/><path d="M184.1,110.18l-70.181,40.519l0,0.598l70.181,-40.519l0,-0.598Z" style="fill:#838383;fill-opacity:0.31;"/><path d="M113.919,156.934l-97.668,-56.389l0,0.916l97.668,56.388l0,-0.915Z" style="fill:#838383;fill-opacity:0.31;"/><path d="M113.919,155.472l-97.668,-56.389l0,0.569l97.668,56.389l0,-0.569Z" style="fill:#838383;fill-opacity:0.31;"/><path d="M113.919,152.548l-97.668,-56.389l0,0.893l97.668,56.389l0,-0.893Z" style="fill:#838383;fill-opacity:0.31;"/><path d="M113.919,150.688l-97.668,-56.389l0,0.598l97.668,56.389l0,-0.598Z" style="fill:#838383;fill-opacity:0.31;"/><path d="M14.419,87.575c-0.04,0.679 0.002,3.249 0.082,3.941c0.097,0.837 0.75,1.699 1.936,2.383l93.304,53.869c2.354,1.36 5.922,1.508 7.961,0.33l66.511,-38.4c0.861,-0.497 1.313,-1.151 1.371,-1.843c0.057,-0.693 -0.103,-3.086 -0.07,-3.663c0.054,-0.935 -0.606,-1.934 -1.945,-2.707l-93.304,-53.869c-2.355,-1.359 -5.922,-1.507 -7.962,-0.33l-66.51,38.4c-0.88,0.508 -1.332,1.18 -1.374,1.889Z" style="fill:#151515;"/><path d="M14.417,101.96c-0.036,0.733 0.005,3.222 0.084,3.901c0.097,0.838 0.75,1.699 1.936,2.384l93.304,53.869c2.354,1.359 5.922,1.507 7.961,0.33l66.511,-38.4c0.861,-0.497 1.313,-1.151 1.371,-1.844c0.057,-0.692 -0.103,-3.085 -0.07,-3.662l0.001,-0.021c-0.033,0.717 -0.486,1.398 -1.374,1.911l-66.511,38.4c-2.039,1.177 -5.607,1.029 -7.962,-0.33l-93.304,-53.869c-1.32,-0.763 -1.981,-1.746 -1.947,-2.669Zm0.004,-0.067l-0.003,0.048l0.001,-0.021l0.002,-0.027Zm0.008,-0.077l-0.006,0.049l0.001,-0.011l0.005,-0.038Zm0.013,-0.094l-0.011,0.071c0.003,-0.024 0.007,-0.048 0.011,-0.071Zm0.013,-0.072l-0.012,0.067l0.011,-0.061l0.001,-0.006Zm0.017,-0.071l-0.011,0.048l0.008,-0.036l0.003,-0.012Zm0.019,-0.071l-0.012,0.044l0.007,-0.026l0.005,-0.018Zm0.023,-0.071l-0.014,0.044l0.006,-0.019l0.008,-0.025Zm0.026,-0.073l-0.017,0.046l0.005,-0.012l0.012,-0.034Zm0.035,-0.083l-0.026,0.059l0.003,-0.006l0.023,-0.053Zm0.036,-0.078l-0.033,0.068c0.011,-0.022 0.021,-0.045 0.033,-0.068Zm0.035,-0.068l-0.025,0.048l0.019,-0.038l0.006,-0.01Zm0.038,-0.067l-0.025,0.042l0.015,-0.027l0.01,-0.015Zm0.041,-0.068l-0.026,0.041l0.012,-0.019l0.014,-0.022Zm0.045,-0.068l-0.029,0.042l0.009,-0.013l0.02,-0.029Zm0.053,-0.073l-0.037,0.049l0.006,-0.007l0.031,-0.042Zm0.061,-0.08l-0.05,0.064c0.016,-0.021 0.033,-0.043 0.05,-0.064Zm0.054,-0.063l-0.04,0.047l0.033,-0.04l0.007,-0.007Zm0.057,-0.063l-0.037,0.04l0.025,-0.027l0.012,-0.013Zm0.06,-0.063l-0.037,0.038l0.018,-0.02l0.019,-0.018Zm0.064,-0.063l-0.04,0.039l0.014,-0.014l0.026,-0.025Zm0.071,-0.065l-0.047,0.043l0.009,-0.009l0.038,-0.034Zm0.088,-0.076l-0.069,0.059c0.023,-0.02 0.046,-0.039 0.069,-0.059Zm0.072,-0.058l-0.059,0.048l0.052,-0.042l0.007,-0.006Zm0.076,-0.057l-0.05,0.037l0.036,-0.027l0.014,-0.01Zm0.079,-0.056l-0.049,0.034l0.027,-0.019l0.022,-0.015Zm0.083,-0.057l-0.052,0.035l0.021,-0.014l0.031,-0.021Zm0.089,-0.057l-0.058,0.037l0.014,-0.009l0.044,-0.028Zm0.028,-0.017c0.028,-0.018 0.058,-0.035 0.088,-0.052l-0.088,0.052Z" style="fill:#838383;fill-opacity:0.31;"/><path d="M14.417,87.614c-0.036,0.734 0.005,3.222 0.084,3.902c0.097,0.837 0.75,1.699 1.936,2.383l93.304,53.869c2.354,1.36 5.922,1.508 7.961,0.33l66.511,-38.4c0.861,-0.497 1.313,-1.151 1.371,-1.843c0.057,-0.693 -0.103,-3.086 -0.07,-3.663l0.001,-0.02c-0.033,0.717 -0.486,1.397 -1.374,1.91l-66.511,38.4c-2.039,1.178 -5.607,1.03 -7.962,-0.33l-93.304,-53.869c-1.32,-0.762 -1.981,-1.745 -1.947,-2.669Zm171.1,16.479c0,0.021 -0,0.042 -0.001,0.064l0.001,-0.064Zm-0.001,-0.081c0.001,0.021 0.001,0.043 0.001,0.065l-0.001,-0.065Zm-0.002,-0.04l0.001,0.028l-0.004,-0.065l0.003,0.037Zm-0.01,-0.112c0.002,0.023 0.005,0.046 0.007,0.068l-0.007,-0.068Zm-0.011,-0.079c0.003,0.022 0.006,0.044 0.009,0.066l-0.009,-0.066Zm-0.015,-0.081c0.004,0.022 0.008,0.044 0.012,0.066l-0.012,-0.066Zm-0.008,-0.039l0.005,0.027l-0.015,-0.068l0.01,0.041Zm-0.022,-0.089l0.011,0.045l-0.019,-0.07l0.008,0.025Zm-0.032,-0.104c0.008,0.022 0.015,0.045 0.021,0.067l-0.021,-0.067Zm-0.027,-0.078c0.008,0.021 0.016,0.043 0.023,0.064l-0.023,-0.064Zm-0.032,-0.084l0.001,0.003l-0.001,-0.003Zm-0.039,-0.089l0.002,0.004l-0.012,-0.025l0.01,0.021Zm-0.042,-0.088l0.004,0.009l-0.016,-0.032l0.012,0.023Zm-0.047,-0.088l0.007,0.013l-0.018,-0.033l0.011,0.02Zm-0.051,-0.088l0.01,0.018l-0.02,-0.034l0.01,0.016Zm-0.055,-0.088l0.013,0.021l-0.021,-0.032l0.008,0.011Zm-0.059,-0.087l0.015,0.023l-0.02,-0.03l0.005,0.007Zm-0.063,-0.087l0.011,0.016l-0.013,-0.017l0.002,0.001Zm-0.067,-0.086l0.002,0.003l-0.018,-0.021l0.016,0.018Zm-0.072,-0.085l0.007,0.007l-0.026,-0.029l0.019,0.022Zm-0.075,-0.085l0.011,0.012l-0.03,-0.032l0.019,0.02Zm-0.079,-0.084l0.015,0.016l-0.031,-0.032l0.016,0.016Zm-0.084,-0.084l0.02,0.02l-0.032,-0.032l0.012,0.012Zm-0.087,-0.082l0.023,0.021l-0.032,-0.029l0.009,0.008Zm-0.092,-0.082l0.022,0.019l-0.025,-0.022l0.003,0.003Zm-0.095,-0.081l0.002,0.001l-0.018,-0.014l0.016,0.013Zm-0.1,-0.08l0.008,0.006l-0.035,-0.026l0.027,0.02Zm-0.103,-0.079l0.013,0.01l-0.04,-0.029l0.027,0.019Zm-0.108,-0.078l0.019,0.014l-0.042,-0.03l0.023,0.016Zm-0.111,-0.076l0.025,0.017l-0.044,-0.03l0.019,0.013Zm-0.116,-0.076l0.03,0.019l-0.043,-0.027l0.013,0.008Zm-0.119,-0.074l0.03,0.018l-0.037,-0.023l0.007,0.005Zm-169.272,-14.012l-0.003,0.049l0.001,-0.021l0.002,-0.028Zm0.008,-0.077l-0.006,0.05l0.001,-0.011l0.005,-0.039Zm0.013,-0.094l-0.011,0.072c0.003,-0.024 0.007,-0.048 0.011,-0.072Zm0.013,-0.071l-0.012,0.067l0.011,-0.061l0.001,-0.006Zm0.017,-0.071l-0.011,0.047l0.008,-0.035l0.003,-0.012Zm0.019,-0.071l-0.012,0.044l0.007,-0.026l0.005,-0.018Zm0.023,-0.072l-0.014,0.044l0.006,-0.019l0.008,-0.025Zm0.026,-0.072l-0.017,0.046l0.005,-0.013l0.012,-0.033Zm0.035,-0.084l-0.026,0.06l0.003,-0.007l0.023,-0.053Zm0.036,-0.077l-0.033,0.068c0.011,-0.023 0.021,-0.046 0.033,-0.068Zm0.035,-0.068l-0.025,0.047l0.019,-0.037l0.006,-0.01Zm0.038,-0.068l-0.025,0.043l0.015,-0.027l0.01,-0.016Zm0.041,-0.067l-0.026,0.041l0.012,-0.02l0.014,-0.021Zm0.045,-0.069l-0.029,0.043l0.009,-0.014l0.02,-0.029Zm0.053,-0.073l-0.037,0.05l0.006,-0.008l0.031,-0.042Zm0.061,-0.079l-0.05,0.064c0.016,-0.022 0.033,-0.043 0.05,-0.064Zm0.054,-0.064l-0.04,0.048l0.033,-0.04l0.007,-0.008Zm0.057,-0.063l-0.037,0.04l0.025,-0.027l0.012,-0.013Zm0.06,-0.062l-0.037,0.038l0.018,-0.02l0.019,-0.018Zm0.064,-0.063l-0.04,0.038l0.014,-0.013l0.026,-0.025Zm0.071,-0.065l-0.047,0.042l0.009,-0.008l0.038,-0.034Zm0.088,-0.076l-0.069,0.058c0.023,-0.019 0.046,-0.039 0.069,-0.058Zm0.072,-0.058l-0.059,0.048l0.052,-0.043l0.007,-0.005Zm0.076,-0.057l-0.05,0.037l0.036,-0.027l0.014,-0.01Zm0.079,-0.057l-0.049,0.035l0.027,-0.02l0.022,-0.015Zm0.083,-0.056l-0.052,0.034l0.021,-0.014l0.031,-0.02Zm0.089,-0.057l-0.058,0.036l0.014,-0.009l0.044,-0.027Zm0.028,-0.017c0.028,-0.018 0.058,-0.035 0.088,-0.053l-0.088,0.053Z" style="fill:#838383;fill-opacity:0.31;"/><path d="M91.704,50.048c3.563,-1.352 5.399,0.744 5.195,1.414l2.751,1.557c-0,0 1.168,-3.156 -0.981,-4.665c-2.578,-1.809 -5.995,-2.296 -8.723,-0.616c-3.276,2.019 -2.699,4.162 -2.255,4.882c0,0 0.739,0.42 1.447,0.117c1.945,-0.832 -0.035,-1.701 2.566,-2.689Z" style="fill:#fcfcfc;"/><path d="M105.277,57.884c3.563,-1.352 5.398,0.744 5.195,1.414l2.75,1.557c-0,0 1.168,-3.156 -0.981,-4.665c-2.577,-1.809 -5.994,-2.296 -8.723,-0.616c-3.276,2.019 -2.698,4.162 -2.255,4.882c0,0 0.74,0.42 1.448,0.117c1.945,-0.832 -0.036,-1.701 2.566,-2.689Z" style="fill:#fcfcfc;"/><path d="M118.849,65.72c3.563,-1.352 5.398,0.744 5.195,1.414l2.75,1.557c0,0 1.169,-3.156 -0.981,-4.665c-2.577,-1.809 -5.994,-2.297 -8.722,-0.616c-3.277,2.019 -2.699,4.162 -2.255,4.882c-0,0 0.739,0.42 1.447,0.117c1.945,-0.832 -0.036,-1.701 2.566,-2.689Z" style="fill:#fcfcfc;"/><path d="M132.421,73.556c3.563,-1.352 5.398,0.744 5.195,1.413l2.75,1.558c0,0 1.169,-3.156 -0.98,-4.665c-2.578,-1.809 -5.995,-2.297 -8.723,-0.616c-3.277,2.019 -2.699,4.162 -2.255,4.882c-0,0 0.739,0.42 1.447,0.117c1.945,-0.832 -0.036,-1.701 2.566,-2.689Z" style="fill:#fcfcfc;"/><path d="M145.993,81.392c3.563,-1.352 5.399,0.744 5.195,1.413l2.751,1.558c-0,0 1.168,-3.157 -0.981,-4.665c-2.578,-1.81 -5.995,-2.297 -8.723,-0.616c-3.276,2.019 -2.699,4.162 -2.255,4.882c0,-0 0.739,0.42 1.447,0.117c1.945,-0.832 -0.035,-1.701 2.566,-2.689Z" style="fill:#fcfcfc;"/><path d="M159.566,89.228c3.563,-1.353 5.398,0.743 5.195,1.413l2.75,1.558c-0,0 1.168,-3.157 -0.981,-4.665c-2.577,-1.81 -5.994,-2.297 -8.723,-0.616c-3.276,2.019 -2.698,4.162 -2.255,4.882c0,-0 0.74,0.42 1.448,0.117c1.945,-0.832 -0.036,-1.701 2.566,-2.689Z" style="fill:#fcfcfc;"/><path d="M173.138,97.064c3.563,-1.353 5.398,0.743 5.195,1.413l2.75,1.558c0,-0 1.169,-3.157 -0.981,-4.665c-2.577,-1.81 -5.994,-2.297 -8.722,-0.616c-3.277,2.019 -2.699,4.161 -2.255,4.882c-0,-0 0.739,0.419 1.447,0.117c1.945,-0.833 -0.036,-1.701 2.566,-2.689Z" style="fill:#fcfcfc;"/><path d="M89.981,52.126c0.412,-0.648 -0.249,-1.329 1.723,-2.078c3.563,-1.352 5.399,0.744 5.195,1.414l1.172,0.663c0.136,-0.673 0.21,-1.889 -0.773,-2.579c-1.692,-1.188 -3.936,-1.508 -5.727,-0.404c-1.881,1.158 -1.828,2.379 -1.59,2.984Z" style="fill:#838383;fill-opacity:0.39;"/><path d="M103.553,59.962c0.413,-0.648 -0.249,-1.329 1.724,-2.078c3.563,-1.352 5.398,0.744 5.195,1.414l1.172,0.663c0.135,-0.673 0.21,-1.889 -0.774,-2.579c-1.692,-1.188 -3.936,-1.508 -5.727,-0.405c-1.88,1.159 -1.827,2.38 -1.59,2.985Z" style="fill:#838383;fill-opacity:0.39;"/><path d="M117.125,67.798c0.413,-0.648 -0.249,-1.329 1.724,-2.078c3.563,-1.352 5.398,0.744 5.195,1.414l1.172,0.663c0.135,-0.674 0.21,-1.889 -0.774,-2.579c-1.692,-1.188 -3.936,-1.508 -5.727,-0.405c-1.88,1.159 -1.827,2.38 -1.59,2.985Z" style="fill:#838383;fill-opacity:0.39;"/><path d="M130.698,75.634c0.412,-0.648 -0.25,-1.329 1.723,-2.078c3.563,-1.352 5.398,0.744 5.195,1.413l1.172,0.664c0.136,-0.674 0.21,-1.889 -0.773,-2.579c-1.693,-1.188 -3.936,-1.508 -5.728,-0.405c-1.88,1.159 -1.827,2.379 -1.589,2.985Z" style="fill:#838383;fill-opacity:0.39;"/><path d="M144.27,83.469c0.412,-0.647 -0.249,-1.328 1.723,-2.077c3.563,-1.352 5.399,0.744 5.195,1.413l1.172,0.664c0.136,-0.674 0.21,-1.889 -0.773,-2.579c-1.692,-1.188 -3.936,-1.508 -5.727,-0.405c-1.881,1.159 -1.828,2.379 -1.59,2.984Z" style="fill:#838383;fill-opacity:0.39;"/><path d="M157.842,91.305c0.413,-0.647 -0.249,-1.328 1.724,-2.077c3.563,-1.353 5.398,0.743 5.195,1.413l1.172,0.664c0.135,-0.674 0.21,-1.889 -0.774,-2.579c-1.692,-1.189 -3.936,-1.508 -5.727,-0.405c-1.88,1.159 -1.827,2.379 -1.59,2.984Z" style="fill:#838383;fill-opacity:0.39;"/><path d="M171.414,99.141c0.413,-0.648 -0.249,-1.328 1.724,-2.077c3.563,-1.353 5.398,0.743 5.195,1.413l1.172,0.664c0.135,-0.674 0.21,-1.889 -0.774,-2.58c-1.692,-1.188 -3.936,-1.507 -5.727,-0.404c-1.88,1.159 -1.827,2.379 -1.59,2.984Z" style="fill:#838383;fill-opacity:0.39;"/><path d="M109.668,158.498l0.073,3.616c2.354,1.359 5.922,1.507 7.961,0.33l66.511,-38.4c0.861,-0.497 1.313,-1.151 1.371,-1.844c0.057,-0.692 -0.103,-3.085 -0.07,-3.662l0.001,-0.021c-0.033,0.717 -0.486,1.398 -1.374,1.911l-66.511,38.4c-2.039,1.177 -5.607,1.029 -7.962,-0.33Z" style="fill:#838383;fill-opacity:0.31;"/><path d="M109.668,144.152l0.073,3.616c2.354,1.36 5.922,1.508 7.961,0.33l66.511,-38.4c0.861,-0.497 1.313,-1.151 1.371,-1.843c0.057,-0.693 -0.103,-3.086 -0.07,-3.663l0.001,-0.02c-0.033,0.717 -0.486,1.397 -1.374,1.91l-66.511,38.4c-2.039,1.178 -5.607,1.03 -7.962,-0.33Z" style="fill:#838383;fill-opacity:0.31;"/></svg>