<?xml version="1.0" encoding="UTF-8" standalone="no"?><!DOCTYPE svg PUBLIC "-//W3C//DTD SVG 1.1//EN" "http://www.w3.org/Graphics/SVG/1.1/DTD/svg11.dtd"><svg width="100%" height="100%" viewBox="0 0 200 200" version="1.1" xmlns="http://www.w3.org/2000/svg" xmlns:xlink="http://www.w3.org/1999/xlink" xml:space="preserve" xmlns:serif="http://www.serif.com/" style="fill-rule:evenodd;clip-rule:evenodd;stroke-linejoin:round;stroke-miterlimit:2;"><g><path d="M113.966,139.875l-97.682,-56.397l0,14.358l97.776,56.327l70.074,-40.457l-0,-14.343l-70.168,40.512Z" style="fill:#e9e9e9;"/><path d="M14.452,97.724c-0.039,0.68 0.002,3.249 0.082,3.942c0.097,0.837 0.751,1.699 1.936,2.383l93.304,53.869c2.355,1.36 5.922,1.507 7.962,0.33l66.51,-38.4c0.861,-0.497 1.313,-1.151 1.371,-1.844c0.057,-0.692 -0.103,-3.085 -0.069,-3.662c0.054,-0.935 -0.607,-1.934 -1.946,-2.707l-93.304,-53.869c-2.354,-1.36 -5.922,-1.508 -7.961,-0.33l-66.511,38.4c-0.88,0.508 -1.332,1.18 -1.374,1.888Z" style="fill:#0e0e0e;"/><path d="M113.959,139.878l-97.675,-56.392l0,14.343l97.675,56.392l70.175,-40.515l-0,-14.343l-70.175,40.515Z" style="fill:#e9e9e9;"/><path d="M113.953,139.867l-97.776,-56.451l0,14.358l97.776,56.451l-0,-14.358Z" style="fill:#838383;fill-opacity:0.31;"/><path d="M184.134,112.23l-70.181,40.519l-0,0.915l70.181,-40.519l-0,-0.915Z" style="fill:#838383;fill-opacity:0.31;"/><path d="M184.134,110.768l-70.181,40.519l-0,0.569l70.181,-40.519l-0,-0.569Z" style="fill:#838383;fill-opacity:0.31;"/><path d="M184.134,107.844l-70.181,40.519l-0,0.893l70.181,-40.519l-0,-0.893Z" style="fill:#838383;fill-opacity:0.31;"/><path d="M184.134,105.984l-70.181,40.519l-0,0.598l70.181,-40.519l-0,-0.598Z" style="fill:#838383;fill-opacity:0.31;"/><path d="M113.953,152.738l-97.669,-56.388l0,0.915l97.669,56.389l-0,-0.916Z" style="fill:#838383;fill-opacity:0.31;"/><path d="M113.953,151.276l-97.669,-56.389l0,0.569l97.669,56.389l-0,-0.569Z" style="fill:#838383;fill-opacity:0.31;"/><path d="M113.953,148.352l-97.669,-56.389l0,0.893l97.669,56.389l-0,-0.893Z" style="fill:#838383;fill-opacity:0.31;"/><path d="M113.953,146.492l-97.669,-56.389l0,0.598l97.669,56.389l-0,-0.598Z" style="fill:#838383;fill-opacity:0.31;"/><path d="M14.452,83.379c-0.039,0.679 0.002,3.249 0.082,3.941c0.097,0.837 0.751,1.699 1.936,2.384l93.304,53.869c2.355,1.359 5.922,1.507 7.962,0.33l66.51,-38.4c0.861,-0.497 1.313,-1.152 1.371,-1.844c0.057,-0.693 -0.103,-3.085 -0.069,-3.663c0.054,-0.934 -0.607,-1.934 -1.946,-2.706l-93.304,-53.869c-2.354,-1.36 -5.922,-1.508 -7.961,-0.331l-66.511,38.401c-0.88,0.507 -1.332,1.179 -1.374,1.888Z" style="fill:#0e0e0e;"/><path d="M14.451,97.764c-0.037,0.734 0.005,3.222 0.083,3.902c0.097,0.837 0.751,1.699 1.936,2.383l93.304,53.869c2.355,1.36 5.922,1.507 7.962,0.33l66.51,-38.4c0.861,-0.497 1.313,-1.151 1.371,-1.844c0.057,-0.692 -0.103,-3.085 -0.069,-3.662l0.001,-0.021c-0.034,0.717 -0.486,1.398 -1.375,1.911l-66.511,38.4c-2.039,1.177 -5.607,1.029 -7.961,-0.33l-93.304,-53.869c-1.321,-0.763 -1.982,-1.745 -1.947,-2.669Zm0.004,-0.067l-0.003,0.048l0,-0.021l0.003,-0.027Zm0.007,-0.077l-0.005,0.049l0.001,-0.011l0.004,-0.038Zm0.013,-0.094l-0.011,0.071c0.003,-0.024 0.007,-0.047 0.011,-0.071Zm0.014,-0.072l-0.013,0.067l0.011,-0.06l0.002,-0.007Zm0.016,-0.071l-0.011,0.048l0.008,-0.036l0.003,-0.012Zm0.02,-0.071l-0.013,0.044l0.007,-0.026l0.006,-0.018Zm0.022,-0.071l-0.014,0.044l0.006,-0.019l0.008,-0.025Zm0.027,-0.073l-0.017,0.046l0.004,-0.012l0.013,-0.034Zm0.034,-0.083l-0.025,0.06l0.002,-0.007l0.023,-0.053Zm0.036,-0.078l-0.032,0.069c0.01,-0.023 0.021,-0.046 0.032,-0.069Zm0.035,-0.068l-0.025,0.048l0.019,-0.038l0.006,-0.01Zm0.038,-0.067l-0.024,0.042l0.015,-0.027l0.009,-0.015Zm0.041,-0.068l-0.025,0.042l0.011,-0.02l0.014,-0.022Zm0.045,-0.068l-0.028,0.042l0.008,-0.013l0.02,-0.029Zm0.053,-0.073l-0.036,0.049l0.005,-0.007l0.031,-0.042Zm0.062,-0.08l-0.051,0.064c0.017,-0.021 0.033,-0.042 0.051,-0.064Zm0.053,-0.063l-0.04,0.047l0.033,-0.039l0.007,-0.008Zm0.057,-0.063l-0.036,0.04l0.024,-0.027l0.012,-0.013Zm0.06,-0.063l-0.037,0.038l0.019,-0.019l0.018,-0.019Zm0.064,-0.062l-0.04,0.038l0.014,-0.014l0.026,-0.024Zm0.071,-0.066l-0.047,0.043l0.009,-0.009l0.038,-0.034Zm0.088,-0.076l-0.069,0.059c0.023,-0.02 0.046,-0.039 0.069,-0.059Zm0.073,-0.058l-0.06,0.048l0.052,-0.042l0.008,-0.006Zm0.075,-0.057l-0.049,0.037l0.035,-0.026l0.014,-0.011Zm0.079,-0.056l-0.049,0.034l0.027,-0.019l0.022,-0.015Zm0.083,-0.056l-0.051,0.034l0.02,-0.014l0.031,-0.02Zm0.089,-0.057l-0.057,0.036l0.013,-0.009l0.044,-0.027Zm0.028,-0.018c0.029,-0.017 0.058,-0.035 0.088,-0.052l-0.088,0.052Z" style="fill:#838383;fill-opacity:0.31;"/><path d="M14.451,83.418c-0.037,0.734 0.005,3.222 0.083,3.902c0.097,0.837 0.751,1.699 1.936,2.384l93.304,53.869c2.355,1.359 5.922,1.507 7.962,0.33l66.51,-38.4c0.861,-0.497 1.313,-1.152 1.371,-1.844c0.057,-0.693 -0.103,-3.085 -0.069,-3.663l0.001,-0.02c-0.034,0.717 -0.486,1.397 -1.375,1.91l-66.511,38.4c-2.039,1.178 -5.607,1.03 -7.961,-0.33l-93.304,-53.869c-1.321,-0.762 -1.982,-1.745 -1.947,-2.669Zm171.1,16.479c-0,0.021 -0.001,0.042 -0.002,0.064l0.002,-0.064Zm-0.002,-0.081c0.001,0.022 0.002,0.043 0.002,0.065l-0.002,-0.065Zm-0.002,-0.04l0.002,0.028l-0.004,-0.065l0.002,0.037Zm-0.01,-0.111c0.003,0.022 0.005,0.045 0.007,0.067l-0.007,-0.067Zm-0.011,-0.08c0.003,0.022 0.007,0.044 0.009,0.066l-0.009,-0.066Zm-0.015,-0.081c0.005,0.022 0.009,0.044 0.012,0.067l-0.012,-0.067Zm-0.008,-0.038l0.006,0.026l-0.016,-0.068l0.01,0.042Zm-0.022,-0.089l0.011,0.044l-0.018,-0.07l0.007,0.026Zm-0.031,-0.105c0.007,0.023 0.014,0.045 0.02,0.067l-0.02,-0.067Zm-0.028,-0.078c0.008,0.021 0.016,0.043 0.023,0.064l-0.023,-0.064Zm-0.032,-0.084l0.001,0.003l-0.001,-0.003Zm-0.039,-0.089l0.002,0.005l-0.012,-0.026l0.01,0.021Zm-0.042,-0.088l0.004,0.009l-0.016,-0.031l0.012,0.022Zm-0.047,-0.088l0.007,0.013l-0.018,-0.033l0.011,0.02Zm-0.051,-0.088l0.011,0.018l-0.021,-0.034l0.01,0.016Zm-0.055,-0.088l0.014,0.022l-0.021,-0.033l0.007,0.011Zm-0.059,-0.087l0.016,0.023l-0.021,-0.029l0.005,0.006Zm-0.063,-0.086l0.011,0.015l-0.012,-0.017l0.001,0.002Zm-0.067,-0.086l0.002,0.002l-0.018,-0.021l0.016,0.019Zm-0.071,-0.086l0.006,0.008l-0.026,-0.03l0.02,0.022Zm-0.076,-0.085l0.011,0.012l-0.029,-0.032l0.018,0.02Zm-0.079,-0.084l0.015,0.016l-0.031,-0.032l0.016,0.016Zm-0.083,-0.083l0.019,0.019l-0.032,-0.031l0.013,0.012Zm-0.088,-0.083l0.023,0.022l-0.031,-0.03l0.008,0.008Zm-0.091,-0.082l0.021,0.019l-0.025,-0.022l0.004,0.003Zm-0.096,-0.081l0.002,0.002l-0.018,-0.014l0.016,0.012Zm-0.099,-0.08l0.007,0.006l-0.034,-0.026l0.027,0.02Zm-0.104,-0.079l0.013,0.01l-0.039,-0.029l0.026,0.019Zm-0.107,-0.078l0.019,0.014l-0.043,-0.03l0.024,0.016Zm-0.112,-0.076l0.025,0.017l-0.044,-0.03l0.019,0.013Zm-0.115,-0.076l0.029,0.019l-0.043,-0.027l0.014,0.008Zm-0.12,-0.074l0.03,0.019l-0.037,-0.023l0.007,0.004Zm-169.271,-14.012l-0.003,0.049l0,-0.021l0.003,-0.028Zm0.007,-0.076l-0.005,0.049l0.001,-0.011l0.004,-0.038Zm0.013,-0.095l-0.011,0.072c0.003,-0.024 0.007,-0.048 0.011,-0.072Zm0.014,-0.071l-0.013,0.067l0.011,-0.061l0.002,-0.006Zm0.016,-0.071l-0.011,0.048l0.008,-0.036l0.003,-0.012Zm0.02,-0.071l-0.013,0.044l0.007,-0.026l0.006,-0.018Zm0.022,-0.071l-0.014,0.043l0.006,-0.019l0.008,-0.024Zm0.027,-0.073l-0.017,0.046l0.004,-0.013l0.013,-0.033Zm0.034,-0.084l-0.025,0.06l0.002,-0.007l0.023,-0.053Zm0.036,-0.077l-0.032,0.068c0.01,-0.023 0.021,-0.045 0.032,-0.068Zm0.035,-0.068l-0.025,0.048l0.019,-0.038l0.006,-0.01Zm0.038,-0.068l-0.024,0.043l0.015,-0.027l0.009,-0.016Zm0.041,-0.067l-0.025,0.041l0.011,-0.02l0.014,-0.021Zm0.045,-0.068l-0.028,0.042l0.008,-0.013l0.02,-0.029Zm0.053,-0.074l-0.036,0.05l0.005,-0.008l0.031,-0.042Zm0.062,-0.079l-0.051,0.064c0.017,-0.022 0.033,-0.043 0.051,-0.064Zm0.053,-0.064l-0.04,0.048l0.033,-0.04l0.007,-0.008Zm0.057,-0.063l-0.036,0.04l0.024,-0.027l0.012,-0.013Zm0.06,-0.062l-0.037,0.038l0.019,-0.02l0.018,-0.018Zm0.064,-0.063l-0.04,0.039l0.014,-0.014l0.026,-0.025Zm0.071,-0.065l-0.047,0.043l0.009,-0.009l0.038,-0.034Zm0.088,-0.076l-0.069,0.059c0.023,-0.02 0.046,-0.04 0.069,-0.059Zm0.073,-0.058l-0.06,0.048l0.052,-0.042l0.008,-0.006Zm0.075,-0.057l-0.049,0.037l0.035,-0.027l0.014,-0.01Zm0.079,-0.057l-0.049,0.035l0.027,-0.02l0.022,-0.015Zm0.083,-0.056l-0.051,0.034l0.02,-0.013l0.031,-0.021Zm0.089,-0.057l-0.057,0.036l0.013,-0.008l0.044,-0.028Zm0.028,-0.017c0.029,-0.018 0.058,-0.035 0.088,-0.052l-0.088,0.052Z" style="fill:#838383;fill-opacity:0.31;"/><g><path d="M21.766,87.82c-2.575,0.774 -4.561,4.784 -4.775,7.28c-0.264,3.073 0.517,7.202 1.313,9.29c0.409,1.073 1.585,2.033 2.696,2.31l3.308,1.919c-1.726,1.446 -6.016,1.823 -8.439,-2.938c-1.002,-1.968 -2.609,-8.205 -1.626,-12.464c0.907,-3.927 2.163,-7.089 6.278,-8.541c4.942,-1.745 6.94,0.189 7.411,1.072c0,-0 -0.11,0.963 -1.024,1.427c-2.513,1.273 -1.546,-0.437 -5.142,0.645Z" style="fill:#fcfcfc;"/><path d="M35.283,95.624c-2.575,0.774 -4.561,4.784 -4.775,7.28c-0.264,3.073 0.517,7.202 1.313,9.29c0.409,1.073 1.585,2.033 2.696,2.31l3.308,1.919c-1.726,1.446 -6.016,1.823 -8.44,-2.938c-1.001,-1.968 -2.608,-8.205 -1.625,-12.464c0.907,-3.927 2.163,-7.089 6.278,-8.541c4.942,-1.745 6.939,0.189 7.411,1.072c0,-0 -0.11,0.963 -1.024,1.427c-2.514,1.273 -1.546,-0.437 -5.142,0.645Z" style="fill:#fcfcfc;"/><path d="M48.8,103.428c-2.575,0.774 -4.561,4.784 -4.775,7.28c-0.264,3.073 0.517,7.202 1.313,9.29c0.408,1.073 1.585,2.033 2.696,2.31l3.308,1.919c-1.726,1.446 -6.016,1.823 -8.44,-2.938c-1.001,-1.968 -2.608,-8.205 -1.625,-12.464c0.907,-3.927 2.163,-7.089 6.278,-8.541c4.941,-1.745 6.939,0.189 7.411,1.072c0,-0 -0.11,0.963 -1.024,1.427c-2.514,1.273 -1.546,-0.437 -5.142,0.645Z" style="fill:#fcfcfc;"/><path d="M62.316,111.232c-2.574,0.774 -4.56,4.784 -4.774,7.28c-0.264,3.073 0.517,7.202 1.312,9.29c0.409,1.073 1.586,2.033 2.696,2.31l3.309,1.919c-1.727,1.446 -6.016,1.823 -8.44,-2.938c-1.001,-1.968 -2.609,-8.205 -1.625,-12.464c0.907,-3.927 2.163,-7.089 6.278,-8.541c4.941,-1.745 6.939,0.189 7.411,1.072c0,-0 -0.11,0.963 -1.025,1.427c-2.513,1.273 -1.545,-0.437 -5.142,0.645Z" style="fill:#fcfcfc;"/><path d="M75.833,119.036c-2.574,0.774 -4.56,4.784 -4.774,7.28c-0.265,3.073 0.517,7.202 1.312,9.29c0.409,1.073 1.586,2.033 2.696,2.31l3.309,1.919c-1.727,1.446 -6.016,1.823 -8.44,-2.938c-1.002,-1.968 -2.609,-8.205 -1.625,-12.464c0.907,-3.927 2.163,-7.089 6.278,-8.541c4.941,-1.745 6.939,0.189 7.411,1.072c0,-0 -0.11,0.963 -1.025,1.427c-2.513,1.273 -1.545,-0.437 -5.142,0.645Z" style="fill:#fcfcfc;"/><path d="M89.35,126.84c-2.574,0.774 -4.56,4.784 -4.774,7.28c-0.265,3.073 0.517,7.202 1.312,9.29c0.409,1.073 1.586,2.033 2.696,2.31l3.309,1.919c-1.727,1.446 -6.016,1.823 -8.44,-2.938c-1.002,-1.968 -2.609,-8.205 -1.625,-12.464c0.907,-3.927 2.163,-7.089 6.278,-8.541c4.941,-1.745 6.939,0.189 7.411,1.072c0,-0 -0.11,0.963 -1.025,1.427c-2.513,1.273 -1.545,-0.437 -5.142,0.645Z" style="fill:#fcfcfc;"/><path d="M102.867,134.644c-2.574,0.774 -4.56,4.784 -4.775,7.28c-0.264,3.073 0.518,7.202 1.313,9.29c0.409,1.073 1.586,2.033 2.696,2.31l3.309,1.919c-1.727,1.446 -6.016,1.823 -8.44,-2.938c-1.002,-1.968 -2.609,-8.205 -1.625,-12.464c0.907,-3.927 2.163,-7.089 6.277,-8.541c4.942,-1.745 6.94,0.189 7.412,1.072c0,-0 -0.11,0.963 -1.025,1.427c-2.513,1.273 -1.545,-0.437 -5.142,0.645Z" style="fill:#fcfcfc;"/></g><path d="M109.702,154.302l0.072,3.616c2.355,1.36 5.922,1.507 7.962,0.33l66.51,-38.4c0.861,-0.497 1.313,-1.151 1.371,-1.844c0.057,-0.692 -0.103,-3.085 -0.069,-3.662l0.001,-0.021c-0.034,0.717 -0.486,1.398 -1.375,1.911l-66.511,38.4c-2.039,1.177 -5.607,1.029 -7.961,-0.33Z" style="fill:#838383;fill-opacity:0.31;"/><path d="M109.702,139.956l0.072,3.617c2.355,1.359 5.922,1.507 7.962,0.33l66.51,-38.4c0.861,-0.497 1.313,-1.152 1.371,-1.844c0.057,-0.693 -0.103,-3.085 -0.069,-3.663l0.001,-0.02c-0.034,0.717 -0.486,1.397 -1.375,1.91l-66.511,38.4c-2.039,1.178 -5.607,1.03 -7.961,-0.33Z" style="fill:#838383;fill-opacity:0.31;"/><path d="M22.062,107.322c-0.47,0.394 -3.316,-1.281 -3.692,-1.826c-1.25,-1.815 -2.469,-6.626 -2.032,-9.955c0.478,-3.657 1.582,-7.232 6.031,-8.547c2.326,-0.687 4.049,-0.743 5.294,-0.522c-0.152,0.252 -0.39,0.517 -0.755,0.703c-2.513,1.273 -1.546,-0.437 -5.142,0.645c-2.575,0.774 -4.561,4.784 -4.775,7.28c-0.264,3.073 0.517,7.202 1.313,9.29c0.409,1.073 1.585,2.033 2.696,2.31l1.062,0.622Z" style="fill:#838383;fill-opacity:0.31;"/><path d="M35.579,115.126c-0.47,0.394 -3.316,-1.281 -3.692,-1.826c-1.25,-1.815 -2.469,-6.626 -2.033,-9.955c0.479,-3.657 1.583,-7.232 6.032,-8.547c2.326,-0.687 4.049,-0.743 5.294,-0.522c-0.152,0.252 -0.39,0.517 -0.755,0.703c-2.514,1.273 -1.546,-0.437 -5.142,0.645c-2.575,0.774 -4.561,4.784 -4.775,7.28c-0.264,3.073 0.517,7.202 1.313,9.29c0.409,1.073 1.585,2.033 2.696,2.31l1.062,0.622Z" style="fill:#838383;fill-opacity:0.31;"/><path d="M49.096,122.93c-0.47,0.394 -3.316,-1.281 -3.692,-1.826c-1.25,-1.815 -2.469,-6.626 -2.033,-9.955c0.479,-3.657 1.583,-7.232 6.032,-8.547c2.326,-0.687 4.049,-0.743 5.294,-0.522c-0.153,0.252 -0.39,0.517 -0.755,0.703c-2.514,1.273 -1.546,-0.437 -5.142,0.645c-2.575,0.774 -4.561,4.784 -4.775,7.28c-0.264,3.073 0.517,7.202 1.313,9.29c0.408,1.073 1.585,2.033 2.696,2.31l1.062,0.622Z" style="fill:#838383;fill-opacity:0.31;"/><path d="M62.613,130.734c-0.47,0.394 -3.316,-1.281 -3.692,-1.826c-1.25,-1.815 -2.469,-6.626 -2.033,-9.955c0.479,-3.657 1.583,-7.232 6.032,-8.547c2.326,-0.687 4.049,-0.743 5.294,-0.522c-0.153,0.252 -0.39,0.517 -0.756,0.703c-2.513,1.273 -1.545,-0.437 -5.142,0.645c-2.574,0.774 -4.56,4.784 -4.774,7.28c-0.264,3.073 0.517,7.202 1.312,9.29c0.409,1.073 1.586,2.033 2.696,2.31l1.063,0.622Z" style="fill:#838383;fill-opacity:0.31;"/><path d="M76.13,138.538c-0.47,0.394 -3.316,-1.281 -3.692,-1.826c-1.25,-1.815 -2.469,-6.626 -2.033,-9.955c0.479,-3.657 1.583,-7.232 6.032,-8.547c2.326,-0.687 4.048,-0.743 5.294,-0.522c-0.153,0.252 -0.39,0.517 -0.756,0.703c-2.513,1.273 -1.545,-0.437 -5.142,0.645c-2.574,0.774 -4.56,4.784 -4.774,7.28c-0.265,3.073 0.517,7.202 1.312,9.29c0.409,1.073 1.586,2.033 2.696,2.31l1.063,0.622Z" style="fill:#838383;fill-opacity:0.31;"/><path d="M89.647,146.342c-0.47,0.394 -3.316,-1.281 -3.692,-1.826c-1.25,-1.815 -2.469,-6.626 -2.033,-9.955c0.479,-3.657 1.583,-7.232 6.031,-8.547c2.327,-0.687 4.049,-0.743 5.295,-0.522c-0.153,0.252 -0.39,0.517 -0.756,0.703c-2.513,1.273 -1.545,-0.437 -5.142,0.645c-2.574,0.774 -4.56,4.784 -4.774,7.28c-0.265,3.073 0.517,7.202 1.312,9.29c0.409,1.073 1.586,2.033 2.696,2.31l1.063,0.622Z" style="fill:#838383;fill-opacity:0.31;"/><path d="M103.164,154.146c-0.47,0.394 -3.316,-1.281 -3.692,-1.826c-1.25,-1.815 -2.469,-6.626 -2.033,-9.955c0.479,-3.657 1.583,-7.232 6.031,-8.547c2.327,-0.687 4.049,-0.743 5.295,-0.522c-0.153,0.252 -0.39,0.517 -0.756,0.703c-2.513,1.273 -1.545,-0.437 -5.142,0.645c-2.574,0.774 -4.56,4.784 -4.775,7.28c-0.264,3.073 0.518,7.202 1.313,9.29c0.409,1.073 1.586,2.033 2.696,2.31l1.063,0.622Z" style="fill:#838383;fill-opacity:0.31;"/></g></svg>