<?xml version="1.0" encoding="UTF-8" standalone="no"?><!DOCTYPE svg PUBLIC "-//W3C//DTD SVG 1.1//EN" "http://www.w3.org/Graphics/SVG/1.1/DTD/svg11.dtd"><svg width="100%" height="100%" viewBox="0 0 200 200" version="1.1" xmlns="http://www.w3.org/2000/svg" xmlns:xlink="http://www.w3.org/1999/xlink" xml:space="preserve" xmlns:serif="http://www.serif.com/" style="fill-rule:evenodd;clip-rule:evenodd;stroke-linejoin:round;stroke-miterlimit:2;"><path d="M63.949,25.362l0.03,-0.018l0,60.348l-6.221,3.592l-0,0.018l-5.342,-3.084l0,-5.818l-28.717,16.58l0,11.968l-6.154,3.553l-0,0.063l-0.055,-0.032l-0.016,0.01l-0,-0.019l-5.27,-3.043l-0,-41.187l-0.021,-0.012l40.243,-23.234l0.053,0.03l0,-19.149l-0.117,-0.068l6.224,-3.594l5.363,3.096Zm-11.542,41.886l0.009,0.005l0,0.086l-0.016,-0.01l-28.701,16.571l0,-9.189l28.708,-16.574l-0,9.111Z" style="fill:#412e21;"/><path d="M57.748,55.053l-0,15.278l-5.341,-3.083l-0,-9.111l5.341,-3.084Z" style="fill:#808080;fill-opacity:0.13;"/><path d="M12.204,68.277l5.341,3.083l-0,41.204l-5.341,-3.084l-0,-41.203Z" style="fill:#808080;fill-opacity:0.13;"/><path d="M52.479,25.928l5.341,3.084l0,19.226l-5.341,-3.084l0,-19.226Z" style="fill:#808080;fill-opacity:0.13;"/><path d="M52.416,80.4l5.338,-3.081l-0,11.967l0.004,-0.002l-0,0.018l-5.342,-3.084l0,-5.818Z" style="fill:#808080;fill-opacity:0.13;"/><path d="M63.902,25.352l0.047,0.01l0.03,-0.018l0,60.348l-6.225,3.594l-0,-11.967l-34.055,19.661l0,11.968l-6.154,3.553l-0,0.063l-0.055,-0.032l-0.016,0.01l-0,-0.019l0.071,0.041l-0,-41.204l0.018,-0.032l40.126,-23.166l0.131,0.076l0,-0.152l0.09,-0.052l-0.09,-0.052l0,-18.97l6.082,-3.66Zm-6.154,44.979l-34.049,19.746l0,-15.366l34.049,-19.658l-0,15.278Z" style="fill:#808080;fill-opacity:0.13;"/><path d="M63.902,25.352l0.047,0.01l0.03,-0.018l0,60.348l-6.225,3.594l-0,-11.967l-34.055,19.661l0,11.968l-6.154,3.553l-0,0.063l-0.055,-0.032l-0.016,0.01l-0,-0.019l0.071,0.041l-0,-41.204l0.018,-0.032l40.126,-23.166l0.131,0.076l0,-0.152l0.09,-0.052l-0.09,-0.052l0,-18.97l6.082,-3.66Zm-6.154,44.979l-34.049,19.746l0,-15.366l34.049,-19.658l-0,15.278Z" style="fill:#808080;fill-opacity:0.13;"/><path d="M19.595,90.214c0.784,-1.236 2.634,-2.374 2.634,-2.374l45.19,-26.091l118.9,68.647l-0.043,0.025l0.043,11.814l-48.626,28.074l-116.348,-67.174c-0,0 -1.541,-0.92 -1.966,-1.712c-0.425,-0.793 -0.585,-1.183 -0.585,-3.042l-0,-4.714c-0,-2.126 0.294,-2.654 0.801,-3.453Z" style="fill:#244e27;"/><path d="M19.226,90.867c-0,0 2.671,0.926 4.563,2.019c18.302,10.566 113.904,65.584 113.904,65.584l48.583,-28.049l0.043,11.814l-48.626,28.074l-116.611,-67.326c-0,0 -1.355,-0.9 -1.72,-1.59c-0.372,-0.706 -0.53,-0.968 -0.514,-2.642c0.015,-1.51 0.012,-3.375 -0.054,-5.007c-0.08,-1.979 0.38,-2.738 0.432,-2.877Z" style="fill:#8f8f8f;fill-opacity:0.2;"/><path d="M137.693,170.309l0,-11.839l48.583,-28.049l0.043,11.814l-48.626,28.074Z" style="fill:#8f8f8f;fill-opacity:0.2;"/><path d="M185.47,95.341c0.637,1.202 0.849,1.488 0.849,4.512l-0,30.591l-12.163,7.022l-118.9,-68.646l0,-31.193c0,-0 0.308,-2.913 0.807,-3.935c0.454,-0.928 2.19,-2.196 2.19,-2.196l6.299,-3.636c-0,-0 1.218,-0.604 2.958,-0.662c1.612,-0.053 3.014,0.799 3.014,0.799l111.972,64.647c-0,-0 2.341,1.504 2.974,2.697Z" style="fill:#244e27;"/><path d="M56.018,35.174c0.962,-0.866 1.72,-0.514 1.72,-0.514l113.096,65.296c0,-0 1.763,1.502 2.317,2.498c0.553,0.995 1.005,3.473 1.005,3.473l-0,31.539l-118.9,-68.646l0,-31.256c0.15,-1.066 0.366,-2.034 0.762,-2.39Z" style="fill:#8d8d8d;fill-opacity:0.14;"/><path d="M175.144,102.444c0.68,-1.255 1.996,-2.294 1.996,-2.294l8.325,-4.806c1.002,1.927 0.822,3.595 0.854,5.31l-0,29.79l-12.163,7.022l-0,-31.664c-0,-0 0.166,-1.842 0.988,-3.358Z" style="fill:#8d8d8d;fill-opacity:0.14;"/><path d="M175.144,102.444c0.68,-1.255 1.996,-2.294 1.996,-2.294l8.325,-4.806c1.002,1.927 0.822,3.595 0.854,5.31l-0,29.79l-12.163,7.022l-0,-31.664c-0,-0 0.166,-1.842 0.988,-3.358Z" style="fill:#8d8d8d;fill-opacity:0.14;"/><path d="M53.927,94.053c2.612,-1.149 5.509,-1.17 5.509,-1.17c-0,0 -2.324,0.155 -5.285,1.741c-2.634,1.412 -4.975,3.935 -4.975,3.935c-0,0 1.993,-3.293 4.751,-4.506Z" style="fill:#1b1b1b;fill-opacity:0.68;"/><path d="M69.435,86.695c2.308,-0.878 4.829,-0.925 4.829,-0.925c0,-0 -2.026,0.139 -4.652,1.345c-2.337,1.073 -4.453,2.966 -4.453,2.966c-0,-0 1.838,-2.459 4.276,-3.386Z" style="fill:#1b1b1b;fill-opacity:0.68;"/><path d="M55.897,86.969c1.745,1.38 2.973,3.577 2.973,3.577c-0,-0 -1.062,-1.689 -3.203,-3.103c-1.904,-1.259 -4.314,-1.703 -4.314,-1.703c0,0 2.7,-0.23 4.544,1.229Z" style="fill:#1b1b1b;fill-opacity:0.68;"/><path d="M74.856,55.179c0.006,2.201 0.911,4.523 0.911,4.523c0,0 -0.755,-2.237 -0.544,-4.759c0.188,-2.245 1.413,-3.999 1.413,-3.999c-0,0 -1.788,1.909 -1.78,4.235Z" style="fill:#1b1b1b;fill-opacity:0.68;"/><path d="M73.937,71.848c0.443,2.258 1.733,4.5 1.733,4.5c-0,-0 -1.136,-2.178 -1.443,-4.799c-0.273,-2.333 0.501,-4.324 0.501,-4.324c0,0 -1.259,2.238 -0.791,4.623Z" style="fill:#1b1b1b;fill-opacity:0.68;"/><path d="M68.802,94.938c1.277,1.132 2.224,2.787 2.224,2.787c0,0 -0.811,-1.283 -2.366,-2.476c-1.384,-1.062 -3.09,-1.6 -3.09,-1.6c-0,-0 1.882,0.093 3.232,1.289Z" style="fill:#1b1b1b;fill-opacity:0.68;"/><path d="M80.228,67.457c-1.141,-0.945 -1.969,-2.483 -1.969,-2.483c0,-0 0.712,1.18 2.105,2.139c1.24,0.855 2.784,1.117 2.784,1.117c0,0 -1.715,0.225 -2.92,-0.773Z" style="fill:#1b1b1b;fill-opacity:0.68;"/><path d="M69.068,61.902c-1.141,-0.945 -1.969,-2.483 -1.969,-2.483c0,0 0.712,1.18 2.105,2.14c1.24,0.854 2.785,1.117 2.785,1.117c-0,-0 -1.716,0.224 -2.921,-0.774Z" style="fill:#1b1b1b;fill-opacity:0.68;"/><path d="M62.738,91.117c0.274,0.027 0.542,0.09 0.779,0.194c0.785,0.342 0.942,0.988 0.349,1.441c-0.592,0.453 -1.71,0.543 -2.496,0.201c-0.527,-0.229 -0.77,-0.596 -0.694,-0.949c0.053,0.209 0.242,0.406 0.556,0.543c0.637,0.277 1.547,0.201 2.031,-0.169c0.484,-0.37 0.36,-0.896 -0.277,-1.174c-0.079,-0.034 -0.162,-0.063 -0.248,-0.087Z" style="fill:#1b1b1b;fill-opacity:0.68;"/><path d="M68.802,94.938c1.277,1.132 2.224,2.787 2.224,2.787c0,0 -0.811,-1.283 -2.366,-2.476c-1.384,-1.062 -3.09,-1.6 -3.09,-1.6c-0,-0 1.882,0.093 3.232,1.289Z" style="fill:#1b1b1b;fill-opacity:0.68;"/><path d="M85.934,112.082c2.611,-1.149 5.509,-1.17 5.509,-1.17c-0,-0 -2.324,0.154 -5.285,1.741c-2.635,1.412 -4.975,3.935 -4.975,3.935c-0,-0 1.992,-3.293 4.751,-4.506Z" style="fill:#1b1b1b;fill-opacity:0.68;"/><path d="M101.442,104.723c2.308,-0.878 4.829,-0.925 4.829,-0.925c-0,0 -2.026,0.14 -4.652,1.346c-2.337,1.073 -4.454,2.965 -4.454,2.965c0,0 1.839,-2.458 4.277,-3.386Z" style="fill:#1b1b1b;fill-opacity:0.68;"/><path d="M87.903,104.997c1.746,1.381 2.974,3.577 2.974,3.577c-0,0 -1.063,-1.689 -3.203,-3.103c-1.904,-1.258 -4.314,-1.702 -4.314,-1.702c-0,-0 2.699,-0.23 4.543,1.228Z" style="fill:#1b1b1b;fill-opacity:0.68;"/><path d="M100.808,112.967c1.278,1.132 2.225,2.787 2.225,2.787c0,-0 -0.811,-1.284 -2.367,-2.477c-1.384,-1.061 -3.089,-1.6 -3.089,-1.6c-0,0 1.882,0.094 3.231,1.29Z" style="fill:#1b1b1b;fill-opacity:0.68;"/><path d="M94.745,109.146c0.274,0.026 0.542,0.09 0.779,0.193c0.785,0.343 0.941,0.988 0.349,1.441c-0.592,0.454 -1.711,0.544 -2.496,0.202c-0.527,-0.23 -0.771,-0.596 -0.695,-0.949c0.054,0.208 0.243,0.405 0.557,0.542c0.636,0.278 1.546,0.202 2.03,-0.168c0.485,-0.371 0.361,-0.897 -0.276,-1.174c-0.079,-0.034 -0.162,-0.063 -0.248,-0.087Z" style="fill:#1b1b1b;fill-opacity:0.68;"/><path d="M100.808,112.967c1.278,1.132 2.225,2.787 2.225,2.787c0,-0 -0.811,-1.284 -2.367,-2.477c-1.384,-1.061 -3.089,-1.6 -3.089,-1.6c-0,0 1.882,0.094 3.231,1.29Z" style="fill:#1b1b1b;fill-opacity:0.68;"/><path d="M119.48,131.9c2.612,-1.149 5.509,-1.17 5.509,-1.17c-0,0 -2.324,0.155 -5.285,1.741c-2.634,1.412 -4.975,3.935 -4.975,3.935c-0,0 1.992,-3.293 4.751,-4.506Z" style="fill:#1b1b1b;fill-opacity:0.68;"/><path d="M134.988,124.542c2.308,-0.878 4.829,-0.925 4.829,-0.925c-0,-0 -2.026,0.139 -4.652,1.345c-2.337,1.073 -4.453,2.966 -4.453,2.966c-0,-0 1.838,-2.459 4.276,-3.386Z" style="fill:#1b1b1b;fill-opacity:0.68;"/><path d="M121.45,124.816c1.745,1.38 2.973,3.577 2.973,3.577c-0,-0 -1.062,-1.689 -3.203,-3.103c-1.904,-1.259 -4.314,-1.703 -4.314,-1.703c0,0 2.7,-0.23 4.544,1.229Z" style="fill:#1b1b1b;fill-opacity:0.68;"/><path d="M134.355,132.785c1.277,1.132 2.224,2.787 2.224,2.787c0,0 -0.811,-1.283 -2.366,-2.476c-1.384,-1.062 -3.09,-1.6 -3.09,-1.6c-0,-0 1.882,0.093 3.232,1.289Z" style="fill:#1b1b1b;fill-opacity:0.68;"/><path d="M128.291,128.964c0.274,0.027 0.542,0.09 0.779,0.194c0.785,0.342 0.942,0.988 0.349,1.441c-0.592,0.453 -1.711,0.543 -2.496,0.201c-0.527,-0.229 -0.77,-0.596 -0.694,-0.949c0.053,0.209 0.242,0.406 0.556,0.543c0.637,0.277 1.547,0.201 2.031,-0.169c0.484,-0.37 0.36,-0.896 -0.277,-1.174c-0.079,-0.034 -0.162,-0.063 -0.248,-0.087Z" style="fill:#1b1b1b;fill-opacity:0.68;"/><path d="M134.355,132.785c1.277,1.132 2.224,2.787 2.224,2.787c0,0 -0.811,-1.283 -2.366,-2.476c-1.384,-1.062 -3.09,-1.6 -3.09,-1.6c-0,-0 1.882,0.093 3.232,1.289Z" style="fill:#1b1b1b;fill-opacity:0.68;"/><path d="M74.694,64.026c0.046,0.256 0.128,0.497 0.245,0.7c0.388,0.672 1.018,0.672 1.406,0c0.388,-0.671 0.388,-1.762 -0,-2.434c-0.261,-0.451 -0.63,-0.599 -0.962,-0.445c0.204,0.003 0.407,0.138 0.562,0.407c0.314,0.545 0.312,1.433 -0.004,1.982c-0.317,0.549 -0.83,0.552 -1.145,0.007c-0.039,-0.068 -0.073,-0.14 -0.102,-0.217Z" style="fill:#1b1b1b;fill-opacity:0.68;"/><path d="M106.413,73.399c0.007,2.201 0.912,4.523 0.912,4.523c0,-0 -0.756,-2.237 -0.544,-4.759c0.187,-2.245 1.412,-3.999 1.412,-3.999c0,0 -1.787,1.909 -1.78,4.235Z" style="fill:#1b1b1b;fill-opacity:0.68;"/><path d="M105.495,90.068c0.443,2.258 1.732,4.5 1.732,4.5c0,-0 -1.136,-2.178 -1.442,-4.8c-0.273,-2.332 0.501,-4.323 0.501,-4.323c0,0 -1.259,2.238 -0.791,4.623Z" style="fill:#1b1b1b;fill-opacity:0.68;"/><path d="M111.786,85.677c-1.141,-0.945 -1.969,-2.483 -1.969,-2.483c-0,-0 0.712,1.179 2.105,2.139c1.239,0.854 2.784,1.117 2.784,1.117c0,0 -1.715,0.225 -2.92,-0.773Z" style="fill:#1b1b1b;fill-opacity:0.68;"/><path d="M100.626,80.122c-1.141,-0.945 -1.969,-2.483 -1.969,-2.483c0,0 0.712,1.18 2.105,2.14c1.24,0.854 2.784,1.117 2.784,1.117c0,-0 -1.715,0.224 -2.92,-0.774Z" style="fill:#1b1b1b;fill-opacity:0.68;"/><path d="M106.252,82.246c0.046,0.256 0.128,0.497 0.245,0.7c0.388,0.672 1.018,0.672 1.405,0c0.388,-0.672 0.388,-1.762 0,-2.434c-0.26,-0.451 -0.629,-0.599 -0.961,-0.445c0.204,0.003 0.407,0.138 0.562,0.407c0.314,0.545 0.312,1.433 -0.005,1.982c-0.317,0.548 -0.829,0.552 -1.144,0.007c-0.039,-0.068 -0.073,-0.141 -0.102,-0.217Z" style="fill:#1b1b1b;fill-opacity:0.68;"/><path d="M142.957,94.497c0.007,2.202 0.912,4.523 0.912,4.523c-0,0 -0.756,-2.236 -0.545,-4.759c0.188,-2.244 1.413,-3.998 1.413,-3.998c0,-0 -1.787,1.909 -1.78,4.234Z" style="fill:#1b1b1b;fill-opacity:0.68;"/><path d="M142.039,111.166c0.442,2.258 1.732,4.5 1.732,4.5c0,0 -1.136,-2.177 -1.443,-4.799c-0.273,-2.333 0.502,-4.323 0.502,-4.323c-0,-0 -1.259,2.237 -0.791,4.622Z" style="fill:#1b1b1b;fill-opacity:0.68;"/><path d="M148.329,106.775c-1.141,-0.945 -1.968,-2.483 -1.968,-2.483c-0,0 0.712,1.18 2.105,2.14c1.239,0.854 2.784,1.117 2.784,1.117c-0,-0 -1.716,0.224 -2.921,-0.774Z" style="fill:#1b1b1b;fill-opacity:0.68;"/><path d="M137.17,101.221c-1.141,-0.945 -1.969,-2.483 -1.969,-2.483c-0,-0 0.712,1.18 2.105,2.139c1.239,0.855 2.784,1.117 2.784,1.117c0,0 -1.715,0.225 -2.92,-0.773Z" style="fill:#1b1b1b;fill-opacity:0.68;"/><path d="M142.795,103.344c0.047,0.257 0.128,0.498 0.246,0.701c0.388,0.672 1.017,0.672 1.405,-0c0.388,-0.672 0.388,-1.763 0,-2.435c-0.26,-0.451 -0.63,-0.599 -0.962,-0.444c0.204,0.002 0.407,0.138 0.562,0.406c0.315,0.545 0.313,1.433 -0.004,1.982c-0.317,0.549 -0.83,0.552 -1.144,0.007c-0.039,-0.067 -0.073,-0.14 -0.103,-0.217Z" style="fill:#1b1b1b;fill-opacity:0.68;"/><path d="M19.595,90.214c0.784,-1.236 2.634,-2.374 2.634,-2.374l45.19,-26.091l118.9,68.647l-0.043,0.025l0.043,11.814l-48.626,28.074l-116.348,-67.174c-0,0 -1.541,-0.92 -1.966,-1.712c-0.425,-0.793 -0.585,-1.183 -0.585,-3.042l-0,-4.714c-0,-2.126 0.294,-2.654 0.801,-3.453Z" style="fill:#244e27;"/><path d="M19.226,90.867c-0,0 2.671,0.926 4.563,2.019c18.302,10.566 113.904,65.584 113.904,65.584l48.583,-28.049l0.043,11.814l-48.626,28.074l-116.611,-67.326c-0,0 -1.355,-0.9 -1.72,-1.59c-0.372,-0.706 -0.53,-0.968 -0.514,-2.642c0.015,-1.51 0.012,-3.375 -0.054,-5.007c-0.08,-1.979 0.38,-2.738 0.432,-2.877Z" style="fill:#8f8f8f;fill-opacity:0.2;"/><path d="M137.693,170.309l0,-11.839l48.583,-28.049l0.043,11.814l-48.626,28.074Z" style="fill:#8f8f8f;fill-opacity:0.2;"/><path d="M185.47,95.341c0.637,1.202 0.849,1.488 0.849,4.512l-0,30.591l-12.163,7.022l-118.9,-68.646l0,-31.193c0,-0 0.308,-2.913 0.807,-3.935c0.454,-0.928 2.19,-2.196 2.19,-2.196l6.299,-3.636c-0,-0 1.218,-0.604 2.958,-0.662c1.612,-0.053 3.014,0.799 3.014,0.799l111.972,64.647c-0,-0 2.341,1.504 2.974,2.697Z" style="fill:#244e27;"/><path d="M56.018,35.174c0.962,-0.866 1.72,-0.514 1.72,-0.514l113.096,65.296c0,-0 1.763,1.502 2.317,2.498c0.553,0.995 1.005,3.473 1.005,3.473l-0,31.539l-118.9,-68.646l0,-31.256c0.15,-1.066 0.366,-2.034 0.762,-2.39Z" style="fill:#8d8d8d;fill-opacity:0.14;"/><path d="M175.144,102.444c0.68,-1.255 1.996,-2.294 1.996,-2.294l8.325,-4.806c1.002,1.927 0.822,3.595 0.854,5.31l-0,29.79l-12.163,7.022l-0,-31.664c-0,-0 0.166,-1.842 0.988,-3.358Z" style="fill:#8d8d8d;fill-opacity:0.14;"/><path d="M175.144,102.444c0.68,-1.255 1.996,-2.294 1.996,-2.294l8.325,-4.806c1.002,1.927 0.822,3.595 0.854,5.31l-0,29.79l-12.163,7.022l-0,-31.664c-0,-0 0.166,-1.842 0.988,-3.358Z" style="fill:#8d8d8d;fill-opacity:0.14;"/><path d="M53.927,94.053c2.612,-1.149 5.509,-1.17 5.509,-1.17c-0,0 -2.324,0.155 -5.285,1.741c-2.634,1.412 -4.975,3.935 -4.975,3.935c-0,0 1.993,-3.293 4.751,-4.506Z" style="fill:#1b1b1b;fill-opacity:0.68;"/><path d="M69.435,86.695c2.308,-0.878 4.829,-0.925 4.829,-0.925c0,-0 -2.026,0.139 -4.652,1.345c-2.337,1.073 -4.453,2.966 -4.453,2.966c-0,-0 1.838,-2.459 4.276,-3.386Z" style="fill:#1b1b1b;fill-opacity:0.68;"/><path d="M55.897,86.969c1.745,1.38 2.973,3.577 2.973,3.577c-0,-0 -1.062,-1.689 -3.203,-3.103c-1.904,-1.259 -4.314,-1.703 -4.314,-1.703c0,0 2.7,-0.23 4.544,1.229Z" style="fill:#1b1b1b;fill-opacity:0.68;"/><path d="M74.856,55.179c0.006,2.201 0.911,4.523 0.911,4.523c0,0 -0.755,-2.237 -0.544,-4.759c0.188,-2.245 1.413,-3.999 1.413,-3.999c-0,0 -1.788,1.909 -1.78,4.235Z" style="fill:#1b1b1b;fill-opacity:0.68;"/><path d="M73.937,71.848c0.443,2.258 1.733,4.5 1.733,4.5c-0,-0 -1.136,-2.178 -1.443,-4.799c-0.273,-2.333 0.501,-4.324 0.501,-4.324c0,0 -1.259,2.238 -0.791,4.623Z" style="fill:#1b1b1b;fill-opacity:0.68;"/><path d="M68.802,94.938c1.277,1.132 2.224,2.787 2.224,2.787c0,0 -0.811,-1.283 -2.366,-2.476c-1.384,-1.062 -3.09,-1.6 -3.09,-1.6c-0,-0 1.882,0.093 3.232,1.289Z" style="fill:#1b1b1b;fill-opacity:0.68;"/><path d="M80.228,67.457c-1.141,-0.945 -1.969,-2.483 -1.969,-2.483c0,-0 0.712,1.18 2.105,2.139c1.24,0.855 2.784,1.117 2.784,1.117c0,0 -1.715,0.225 -2.92,-0.773Z" style="fill:#1b1b1b;fill-opacity:0.68;"/><path d="M69.068,61.902c-1.141,-0.945 -1.969,-2.483 -1.969,-2.483c0,0 0.712,1.18 2.105,2.14c1.24,0.854 2.785,1.117 2.785,1.117c-0,-0 -1.716,0.224 -2.921,-0.774Z" style="fill:#1b1b1b;fill-opacity:0.68;"/><path d="M62.738,91.117c0.274,0.027 0.542,0.09 0.779,0.194c0.785,0.342 0.942,0.988 0.349,1.441c-0.592,0.453 -1.71,0.543 -2.496,0.201c-0.527,-0.229 -0.77,-0.596 -0.694,-0.949c0.053,0.209 0.242,0.406 0.556,0.543c0.637,0.277 1.547,0.201 2.031,-0.169c0.484,-0.37 0.36,-0.896 -0.277,-1.174c-0.079,-0.034 -0.162,-0.063 -0.248,-0.087Z" style="fill:#1b1b1b;fill-opacity:0.68;"/><path d="M68.802,94.938c1.277,1.132 2.224,2.787 2.224,2.787c0,0 -0.811,-1.283 -2.366,-2.476c-1.384,-1.062 -3.09,-1.6 -3.09,-1.6c-0,-0 1.882,0.093 3.232,1.289Z" style="fill:#1b1b1b;fill-opacity:0.68;"/><path d="M85.934,112.082c2.611,-1.149 5.509,-1.17 5.509,-1.17c-0,-0 -2.324,0.154 -5.285,1.741c-2.635,1.412 -4.975,3.935 -4.975,3.935c-0,-0 1.992,-3.293 4.751,-4.506Z" style="fill:#1b1b1b;fill-opacity:0.68;"/><path d="M101.442,104.723c2.308,-0.878 4.829,-0.925 4.829,-0.925c-0,0 -2.026,0.14 -4.652,1.346c-2.337,1.073 -4.454,2.965 -4.454,2.965c0,0 1.839,-2.458 4.277,-3.386Z" style="fill:#1b1b1b;fill-opacity:0.68;"/><path d="M87.903,104.997c1.746,1.381 2.974,3.577 2.974,3.577c-0,0 -1.063,-1.689 -3.203,-3.103c-1.904,-1.258 -4.314,-1.702 -4.314,-1.702c-0,-0 2.699,-0.23 4.543,1.228Z" style="fill:#1b1b1b;fill-opacity:0.68;"/><path d="M100.808,112.967c1.278,1.132 2.225,2.787 2.225,2.787c0,-0 -0.811,-1.284 -2.367,-2.477c-1.384,-1.061 -3.089,-1.6 -3.089,-1.6c-0,0 1.882,0.094 3.231,1.29Z" style="fill:#1b1b1b;fill-opacity:0.68;"/><path d="M94.745,109.146c0.274,0.026 0.542,0.09 0.779,0.193c0.785,0.343 0.941,0.988 0.349,1.441c-0.592,0.454 -1.711,0.544 -2.496,0.202c-0.527,-0.23 -0.771,-0.596 -0.695,-0.949c0.054,0.208 0.243,0.405 0.557,0.542c0.636,0.278 1.546,0.202 2.03,-0.168c0.485,-0.371 0.361,-0.897 -0.276,-1.174c-0.079,-0.034 -0.162,-0.063 -0.248,-0.087Z" style="fill:#1b1b1b;fill-opacity:0.68;"/><path d="M100.808,112.967c1.278,1.132 2.225,2.787 2.225,2.787c0,-0 -0.811,-1.284 -2.367,-2.477c-1.384,-1.061 -3.089,-1.6 -3.089,-1.6c-0,0 1.882,0.094 3.231,1.29Z" style="fill:#1b1b1b;fill-opacity:0.68;"/><path d="M119.48,131.9c2.612,-1.149 5.509,-1.17 5.509,-1.17c-0,0 -2.324,0.155 -5.285,1.741c-2.634,1.412 -4.975,3.935 -4.975,3.935c-0,0 1.992,-3.293 4.751,-4.506Z" style="fill:#1b1b1b;fill-opacity:0.68;"/><path d="M134.988,124.542c2.308,-0.878 4.829,-0.925 4.829,-0.925c-0,-0 -2.026,0.139 -4.652,1.345c-2.337,1.073 -4.453,2.966 -4.453,2.966c-0,-0 1.838,-2.459 4.276,-3.386Z" style="fill:#1b1b1b;fill-opacity:0.68;"/><path d="M121.45,124.816c1.745,1.38 2.973,3.577 2.973,3.577c-0,-0 -1.062,-1.689 -3.203,-3.103c-1.904,-1.259 -4.314,-1.703 -4.314,-1.703c0,0 2.7,-0.23 4.544,1.229Z" style="fill:#1b1b1b;fill-opacity:0.68;"/><path d="M134.355,132.785c1.277,1.132 2.224,2.787 2.224,2.787c0,0 -0.811,-1.283 -2.366,-2.476c-1.384,-1.062 -3.09,-1.6 -3.09,-1.6c-0,-0 1.882,0.093 3.232,1.289Z" style="fill:#1b1b1b;fill-opacity:0.68;"/><path d="M128.291,128.964c0.274,0.027 0.542,0.09 0.779,0.194c0.785,0.342 0.942,0.988 0.349,1.441c-0.592,0.453 -1.711,0.543 -2.496,0.201c-0.527,-0.229 -0.77,-0.596 -0.694,-0.949c0.053,0.209 0.242,0.406 0.556,0.543c0.637,0.277 1.547,0.201 2.031,-0.169c0.484,-0.37 0.36,-0.896 -0.277,-1.174c-0.079,-0.034 -0.162,-0.063 -0.248,-0.087Z" style="fill:#1b1b1b;fill-opacity:0.68;"/><path d="M134.355,132.785c1.277,1.132 2.224,2.787 2.224,2.787c0,0 -0.811,-1.283 -2.366,-2.476c-1.384,-1.062 -3.09,-1.6 -3.09,-1.6c-0,-0 1.882,0.093 3.232,1.289Z" style="fill:#1b1b1b;fill-opacity:0.68;"/><path d="M74.694,64.026c0.046,0.256 0.128,0.497 0.245,0.7c0.388,0.672 1.018,0.672 1.406,0c0.388,-0.671 0.388,-1.762 -0,-2.434c-0.261,-0.451 -0.63,-0.599 -0.962,-0.445c0.204,0.003 0.407,0.138 0.562,0.407c0.314,0.545 0.312,1.433 -0.004,1.982c-0.317,0.549 -0.83,0.552 -1.145,0.007c-0.039,-0.068 -0.073,-0.14 -0.102,-0.217Z" style="fill:#1b1b1b;fill-opacity:0.68;"/><path d="M106.413,73.399c0.007,2.201 0.912,4.523 0.912,4.523c0,-0 -0.756,-2.237 -0.544,-4.759c0.187,-2.245 1.412,-3.999 1.412,-3.999c0,0 -1.787,1.909 -1.78,4.235Z" style="fill:#1b1b1b;fill-opacity:0.68;"/><path d="M105.495,90.068c0.443,2.258 1.732,4.5 1.732,4.5c0,-0 -1.136,-2.178 -1.442,-4.8c-0.273,-2.332 0.501,-4.323 0.501,-4.323c0,0 -1.259,2.238 -0.791,4.623Z" style="fill:#1b1b1b;fill-opacity:0.68;"/><path d="M111.786,85.677c-1.141,-0.945 -1.969,-2.483 -1.969,-2.483c-0,-0 0.712,1.179 2.105,2.139c1.239,0.854 2.784,1.117 2.784,1.117c0,0 -1.715,0.225 -2.92,-0.773Z" style="fill:#1b1b1b;fill-opacity:0.68;"/><path d="M100.626,80.122c-1.141,-0.945 -1.969,-2.483 -1.969,-2.483c0,0 0.712,1.18 2.105,2.14c1.24,0.854 2.784,1.117 2.784,1.117c0,-0 -1.715,0.224 -2.92,-0.774Z" style="fill:#1b1b1b;fill-opacity:0.68;"/><path d="M106.252,82.246c0.046,0.256 0.128,0.497 0.245,0.7c0.388,0.672 1.018,0.672 1.405,0c0.388,-0.672 0.388,-1.762 0,-2.434c-0.26,-0.451 -0.629,-0.599 -0.961,-0.445c0.204,0.003 0.407,0.138 0.562,0.407c0.314,0.545 0.312,1.433 -0.005,1.982c-0.317,0.548 -0.829,0.552 -1.144,0.007c-0.039,-0.068 -0.073,-0.141 -0.102,-0.217Z" style="fill:#1b1b1b;fill-opacity:0.68;"/><path d="M142.957,94.497c0.007,2.202 0.912,4.523 0.912,4.523c-0,0 -0.756,-2.236 -0.545,-4.759c0.188,-2.244 1.413,-3.998 1.413,-3.998c0,-0 -1.787,1.909 -1.78,4.234Z" style="fill:#1b1b1b;fill-opacity:0.68;"/><path d="M142.039,111.166c0.442,2.258 1.732,4.5 1.732,4.5c0,0 -1.136,-2.177 -1.443,-4.799c-0.273,-2.333 0.502,-4.323 0.502,-4.323c-0,-0 -1.259,2.237 -0.791,4.622Z" style="fill:#1b1b1b;fill-opacity:0.68;"/><path d="M148.329,106.775c-1.141,-0.945 -1.968,-2.483 -1.968,-2.483c-0,0 0.712,1.18 2.105,2.14c1.239,0.854 2.784,1.117 2.784,1.117c-0,-0 -1.716,0.224 -2.921,-0.774Z" style="fill:#1b1b1b;fill-opacity:0.68;"/><path d="M137.17,101.221c-1.141,-0.945 -1.969,-2.483 -1.969,-2.483c-0,-0 0.712,1.18 2.105,2.139c1.239,0.855 2.784,1.117 2.784,1.117c0,0 -1.715,0.225 -2.92,-0.773Z" style="fill:#1b1b1b;fill-opacity:0.68;"/><path d="M142.795,103.344c0.047,0.257 0.128,0.498 0.246,0.701c0.388,0.672 1.017,0.672 1.405,-0c0.388,-0.672 0.388,-1.763 0,-2.435c-0.26,-0.451 -0.63,-0.599 -0.962,-0.444c0.204,0.002 0.407,0.138 0.562,0.406c0.315,0.545 0.313,1.433 -0.004,1.982c-0.317,0.549 -0.83,0.552 -1.144,0.007c-0.039,-0.067 -0.073,-0.14 -0.103,-0.217Z" style="fill:#1b1b1b;fill-opacity:0.68;"/><path d="M187.786,96.735l0.031,-0.018l-0,60.348l-6.222,3.592l0,0.018l-5.341,-3.084l0,-5.818l-28.717,16.58l-0,11.967l-6.154,3.553l-0,0.064l-0.055,-0.032l-0.016,0.01l-0,-0.019l-5.27,-3.043l-0,-41.187l-0.021,-0.012l40.243,-23.235l0.053,0.031l0,-19.149l-0.118,-0.069l6.225,-3.593l5.362,3.096Zm-11.541,41.885l0.009,0.006l0,0.085l-0.016,-0.009l-28.701,16.571l-0,-9.189l28.708,-16.574l-0,9.11Z" style="fill:#412e21;"/><path d="M181.586,126.426l-0,15.278l-5.341,-3.084l-0,-9.11l5.341,-3.084Z" style="fill:#808080;fill-opacity:0.13;"/><path d="M136.042,139.649l5.341,3.084l-0,41.204l-5.341,-3.084l-0,-41.204Z" style="fill:#808080;fill-opacity:0.13;"/><path d="M176.317,97.301l5.341,3.083l0,19.226l-5.341,-3.083l0,-19.226Z" style="fill:#808080;fill-opacity:0.13;"/><path d="M176.254,151.773l5.338,-3.081l-0,11.967l0.003,-0.002l0,0.018l-5.341,-3.084l0,-5.818Z" style="fill:#808080;fill-opacity:0.13;"/><path d="M187.74,96.725l0.046,0.01l0.031,-0.018l-0,60.348l-6.225,3.594l-0,-11.967l-34.055,19.661l-0,11.967l-6.154,3.553l-0,0.064l-0.055,-0.032l-0.016,0.01l-0,-0.019l0.071,0.041l-0,-41.204l0.018,-0.032l40.126,-23.166l0.131,0.075l0,-0.151l0.09,-0.052l-0.09,-0.052l0,-18.971l6.082,-3.659Zm-6.154,44.979l-34.049,19.746l-0,-15.366l34.049,-19.658l-0,15.278Z" style="fill:#808080;fill-opacity:0.13;"/><path d="M187.74,96.725l0.046,0.01l0.031,-0.018l-0,60.348l-6.225,3.594l-0,-11.967l-34.055,19.661l-0,11.967l-6.154,3.553l-0,0.064l-0.055,-0.032l-0.016,0.01l-0,-0.019l0.071,0.041l-0,-41.204l0.018,-0.032l40.126,-23.166l0.131,0.075l0,-0.151l0.09,-0.052l-0.09,-0.052l0,-18.971l6.082,-3.659Zm-6.154,44.979l-34.049,19.746l-0,-15.366l34.049,-19.658l-0,15.278Z" style="fill:#808080;fill-opacity:0.13;"/></svg>