<?xml version="1.0" encoding="UTF-8" standalone="no"?><!DOCTYPE svg PUBLIC "-//W3C//DTD SVG 1.1//EN" "http://www.w3.org/Graphics/SVG/1.1/DTD/svg11.dtd"><svg width="100%" height="100%" viewBox="0 0 200 200" version="1.1" xmlns="http://www.w3.org/2000/svg" xmlns:xlink="http://www.w3.org/1999/xlink" xml:space="preserve" xmlns:serif="http://www.serif.com/" style="fill-rule:evenodd;clip-rule:evenodd;stroke-linejoin:round;stroke-miterlimit:2;"><g><path d="M54.802,67.731l4.191,-30.093c0,-0 0.703,-2.943 1.327,-4.004c0.568,-0.965 2.418,-2.365 2.418,-2.365l6.58,-4.115c-0,-0 1.258,-0.696 2.944,-0.884c1.561,-0.174 2.794,0.576 2.794,0.576l98.916,56.466c-0,0 2.047,1.334 2.49,2.483c0.446,1.157 0.611,1.428 0.188,4.46l-3.943,28.318c0.537,9.292 4.309,21.972 4.266,22.107c-1.811,5.716 -8.995,8.187 -8.921,8.713c0.841,5.977 -0.694,6.655 -4.06,8.448c-7.356,3.921 -13.404,2.259 -16.16,3.196c0,0 -8.417,13.883 -20.749,12.64c-9.825,-0.99 -17.549,-10.082 -25.241,-13.404c-6.865,-2.965 -15.684,-2.984 -20.756,-6.267c-6.933,-4.488 -7.814,-10.212 -14.391,-14.549c-4.576,-3.018 -15.356,-4.406 -18.712,-7.578c-4.405,-4.164 -7.604,-8.488 -9.187,-13.041c-13.327,-1.801 -19.786,-5.499 -21.839,-10.415c-2.717,-1.569 3.409,-7.747 3.908,-16.196c0.161,-2.727 0.964,-4.577 1.086,-4.769c0.699,-1.102 2.348,-2.116 2.348,-2.116l30.503,-17.611Z" style="fill:#24494e;"/><path d="M173.163,145.935c-5.835,0.512 -6.931,-6.88 -10.06,-14.404c3.017,12.491 3.648,13.523 4.988,17.774c1.796,-1.1 3.542,-2.211 5.072,-3.37Z" style="fill:#9c9c9c;fill-opacity:0.2;"/><path d="M176.973,140.662c-0.697,-1.463 -4.009,-8.794 -5.733,-15.861c3.018,12.491 5.168,16.327 3.883,19.217c0.991,-1.456 1.85,-3.356 1.85,-3.356Z" style="fill:#9c9c9c;fill-opacity:0.2;"/><path d="M143.894,165.975c-5.836,0.511 -6.772,-7.503 -9.901,-15.026c3.018,12.491 1.622,19.582 -2.843,22.583c2.951,-0.052 9.607,-3.863 12.744,-7.557Z" style="fill:#9c9c9c;fill-opacity:0.2;"/><path d="M149.744,160.67c-0.697,-1.463 -2.596,-10.39 -4.32,-17.456c0.627,13.728 1.874,17.332 0.589,20.221c0.392,-0.503 1.723,-2.195 1.833,-2.447l1.898,-0.318Z" style="fill:#9c9c9c;fill-opacity:0.2;"/><path d="M40.925,123.24c2.228,2.05 4.51,-5.098 5.579,-16.398c-0.547,14.947 -2.092,20.007 -0.562,22.812c-0.381,0.024 -4.955,-5.681 -5.017,-6.414Z" style="fill:#9c9c9c;fill-opacity:0.2;"/><path d="M30.321,117.117c5.836,0.512 9.364,-8.79 12.493,-16.313c-3.018,12.491 -2.718,13.845 -4.058,18.096c-0.077,-0.291 -5.308,-0.758 -8.435,-1.783Z" style="fill:#9c9c9c;fill-opacity:0.2;"/><path d="M84.481,155.553c5.835,0.512 7.97,-16.476 7.97,-16.476c0,0 -0.786,13.861 0.111,18.484c-1.339,-0.207 -4.954,-0.983 -8.081,-2.008Z" style="fill:#9c9c9c;fill-opacity:0.2;"/><path d="M59.959,136.644c5.836,0.512 8.835,-8.899 11.964,-16.422c-3.017,12.49 -2.527,19.555 1.548,25.785c-1.524,-2.837 -7.167,-8.161 -13.512,-9.363Z" style="fill:#9c9c9c;fill-opacity:0.2;"/><path d="M94.057,157.893c3.167,0.283 8.545,2.106 11.725,-15.222c-4.504,19.266 3.098,19.782 4.382,22.671c-0.391,-0.502 -5.031,-3.816 -7.716,-5.057c-2.67,-1.235 -8.391,-2.392 -8.391,-2.392Z" style="fill:#9c9c9c;fill-opacity:0.2;"/><path d="M60.108,35.502c1.027,-0.906 1.689,-0.607 1.689,-0.607l97.024,57.178c-0,-0 1.443,1.366 1.822,2.308c0.379,0.941 0.452,3.342 0.452,3.342l-4.598,29.691l-101.876,-58.908l4.432,-30.617c0.292,-1.053 0.632,-2.014 1.055,-2.387Z" style="fill:#8d8d8d;fill-opacity:0.1;"/><path d="M52.552,90.88c2.328,-1.024 4.91,-1.043 4.91,-1.043c-0,0 -2.071,0.138 -4.71,1.552c-2.349,1.259 -4.435,3.508 -4.435,3.508c-0,-0 1.776,-2.936 4.235,-4.017Z" style="fill:#1b1b1b;fill-opacity:0.68;"/><path d="M66.375,84.321c2.057,-0.782 4.304,-0.824 4.304,-0.824c-0,0 -1.806,0.124 -4.147,1.199c-2.083,0.957 -3.969,2.643 -3.969,2.643c-0,0 1.638,-2.191 3.812,-3.018Z" style="fill:#1b1b1b;fill-opacity:0.68;"/><path d="M54.307,84.565c1.556,1.231 2.65,3.189 2.65,3.189c0,-0 -0.946,-1.505 -2.854,-2.766c-1.698,-1.121 -3.845,-1.518 -3.845,-1.518c-0,0 2.406,-0.204 4.049,1.095Z" style="fill:#1b1b1b;fill-opacity:0.68;"/><g><path d="M80.823,60.021c-0.344,1.824 0.093,3.748 0.093,3.748c0,0 -0.318,-1.853 0.271,-3.944c0.525,-1.859 1.895,-3.313 1.895,-3.313c0,0 -1.896,1.582 -2.259,3.509Z" style="fill:#1b1b1b;fill-opacity:0.68;"/><path d="M77.354,73.834c0.035,1.871 0.829,3.729 0.829,3.729c-0,-0 -0.667,-1.805 -0.523,-3.977c0.127,-1.933 1.134,-3.583 1.134,-3.583c-0,0 -1.478,1.855 -1.44,3.831Z" style="fill:#1b1b1b;fill-opacity:0.68;"/><path d="M83.659,70.195c-0.867,-0.783 -1.36,-2.057 -1.36,-2.057c-0,-0 0.447,0.977 1.536,1.773c0.969,0.708 2.304,0.925 2.304,0.925c-0,0 -1.565,0.186 -2.48,-0.641Z" style="fill:#1b1b1b;fill-opacity:0.68;"/><path d="M74.595,65.593c-0.867,-0.783 -1.36,-2.058 -1.36,-2.058c0,0 0.447,0.978 1.536,1.773c0.969,0.708 2.304,0.926 2.304,0.926c0,-0 -1.564,0.186 -2.48,-0.641Z" style="fill:#1b1b1b;fill-opacity:0.68;"/><path d="M79.272,67.352c0,0.213 0.035,0.413 0.107,0.581c0.239,0.556 0.8,0.556 1.253,-0c0.452,-0.557 0.626,-1.461 0.387,-2.018c-0.16,-0.373 -0.466,-0.496 -0.787,-0.368c0.182,0.002 0.341,0.114 0.437,0.337c0.193,0.451 0.05,1.187 -0.319,1.642c-0.37,0.455 -0.828,0.458 -1.021,0.006c-0.024,-0.056 -0.043,-0.116 -0.057,-0.18Z" style="fill:#1b1b1b;fill-opacity:0.68;"/><path d="M106.054,75.119c-0.344,1.824 0.093,3.748 0.093,3.748c0,0 -0.317,-1.853 0.272,-3.944c0.524,-1.859 1.895,-3.313 1.895,-3.313c-0,0 -1.897,1.582 -2.26,3.509Z" style="fill:#1b1b1b;fill-opacity:0.68;"/><path d="M102.585,88.932c0.036,1.871 0.829,3.729 0.829,3.729c-0,-0 -0.666,-1.805 -0.523,-3.977c0.127,-1.933 1.134,-3.583 1.134,-3.583c0,0 -1.478,1.855 -1.44,3.831Z" style="fill:#1b1b1b;fill-opacity:0.68;"/><path d="M108.89,85.293c-0.866,-0.783 -1.36,-2.057 -1.36,-2.057c0,-0 0.447,0.977 1.536,1.773c0.969,0.708 2.304,0.925 2.304,0.925c0,0 -1.564,0.186 -2.48,-0.641Z" style="fill:#1b1b1b;fill-opacity:0.68;"/><path d="M99.827,80.691c-0.867,-0.783 -1.36,-2.058 -1.36,-2.058c-0,-0 0.447,0.978 1.536,1.773c0.969,0.708 2.304,0.926 2.304,0.926c-0,-0 -1.565,0.186 -2.48,-0.641Z" style="fill:#1b1b1b;fill-opacity:0.68;"/><path d="M104.503,82.45c0.001,0.213 0.035,0.413 0.107,0.581c0.239,0.556 0.801,0.556 1.253,-0c0.453,-0.557 0.626,-1.461 0.387,-2.018c-0.16,-0.373 -0.466,-0.496 -0.786,-0.368c0.181,0.002 0.34,0.114 0.436,0.337c0.194,0.451 0.051,1.187 -0.319,1.642c-0.37,0.455 -0.827,0.458 -1.021,0.006c-0.024,-0.056 -0.043,-0.116 -0.057,-0.18Z" style="fill:#1b1b1b;fill-opacity:0.68;"/><path d="M135.272,92.602c-0.344,1.825 0.093,3.749 0.093,3.749c0,-0 -0.318,-1.854 0.272,-3.944c0.524,-1.86 1.894,-3.313 1.894,-3.313c0,-0 -1.896,1.582 -2.259,3.508Z" style="fill:#1b1b1b;fill-opacity:0.68;"/><path d="M131.803,106.415c0.036,1.872 0.829,3.729 0.829,3.729c-0,0 -0.667,-1.804 -0.523,-3.977c0.127,-1.933 1.134,-3.582 1.134,-3.582c0,-0 -1.478,1.854 -1.44,3.83Z" style="fill:#1b1b1b;fill-opacity:0.68;"/><path d="M138.108,102.777c-0.867,-0.783 -1.36,-2.058 -1.36,-2.058c0,0 0.447,0.978 1.536,1.773c0.969,0.708 2.304,0.926 2.304,0.926c0,-0 -1.564,0.186 -2.48,-0.641Z" style="fill:#1b1b1b;fill-opacity:0.68;"/><path d="M129.044,98.174c-0.866,-0.783 -1.36,-2.058 -1.36,-2.058c0,0 0.447,0.978 1.536,1.774c0.969,0.707 2.304,0.925 2.304,0.925c0,-0 -1.564,0.186 -2.48,-0.641Z" style="fill:#1b1b1b;fill-opacity:0.68;"/><path d="M133.721,99.933c0.001,0.213 0.035,0.413 0.107,0.581c0.239,0.557 0.801,0.557 1.253,0c0.453,-0.557 0.626,-1.46 0.387,-2.017c-0.16,-0.374 -0.466,-0.497 -0.787,-0.369c0.182,0.003 0.341,0.115 0.437,0.337c0.193,0.452 0.051,1.188 -0.319,1.642c-0.37,0.455 -0.827,0.458 -1.021,0.007c-0.024,-0.056 -0.043,-0.117 -0.057,-0.181Z" style="fill:#1b1b1b;fill-opacity:0.68;"/></g><path d="M65.81,91.669c1.139,1.009 1.983,2.484 1.983,2.484c-0,0 -0.723,-1.144 -2.11,-2.207c-1.233,-0.946 -2.754,-1.426 -2.754,-1.426c0,-0 1.678,0.083 2.881,1.149Z" style="fill:#1b1b1b;fill-opacity:0.68;"/><path d="M60.405,88.263c0.245,0.024 0.483,0.081 0.695,0.173c0.7,0.305 0.839,0.88 0.311,1.284c-0.528,0.404 -1.525,0.485 -2.225,0.18c-0.47,-0.205 -0.687,-0.532 -0.619,-0.846c0.048,0.186 0.216,0.361 0.496,0.483c0.567,0.247 1.378,0.18 1.81,-0.15c0.431,-0.33 0.321,-0.799 -0.247,-1.046c-0.07,-0.031 -0.144,-0.057 -0.221,-0.078Z" style="fill:#1b1b1b;fill-opacity:0.68;"/><path d="M65.81,91.669c1.139,1.009 1.983,2.484 1.983,2.484c-0,0 -0.723,-1.144 -2.11,-2.207c-1.233,-0.946 -2.754,-1.426 -2.754,-1.426c0,-0 1.678,0.083 2.881,1.149Z" style="fill:#1b1b1b;fill-opacity:0.68;"/><path d="M81.08,106.949c2.328,-1.023 4.91,-1.043 4.91,-1.043c0,0 -2.071,0.138 -4.71,1.553c-2.349,1.258 -4.435,3.507 -4.435,3.507c0,-0 1.776,-2.935 4.235,-4.017Z" style="fill:#1b1b1b;fill-opacity:0.68;"/><path d="M94.903,100.391c2.057,-0.783 4.304,-0.825 4.304,-0.825c-0,0 -1.806,0.124 -4.147,1.199c-2.083,0.957 -3.969,2.644 -3.969,2.644c-0,-0 1.639,-2.192 3.812,-3.018Z" style="fill:#1b1b1b;fill-opacity:0.68;"/><path d="M82.835,100.635c1.556,1.23 2.651,3.188 2.651,3.188c-0,-0 -0.947,-1.505 -2.855,-2.766c-1.697,-1.121 -3.845,-1.517 -3.845,-1.517c-0,-0 2.406,-0.205 4.049,1.095Z" style="fill:#1b1b1b;fill-opacity:0.68;"/><path d="M94.338,107.738c1.139,1.009 1.983,2.484 1.983,2.484c-0,0 -0.723,-1.144 -2.109,-2.207c-1.234,-0.946 -2.754,-1.426 -2.754,-1.426c-0,-0 1.677,0.083 2.88,1.149Z" style="fill:#1b1b1b;fill-opacity:0.68;"/><path d="M88.933,104.333c0.245,0.023 0.484,0.08 0.695,0.172c0.7,0.305 0.839,0.881 0.311,1.285c-0.528,0.404 -1.525,0.484 -2.225,0.179c-0.469,-0.205 -0.687,-0.531 -0.619,-0.846c0.048,0.186 0.216,0.362 0.496,0.483c0.568,0.248 1.379,0.18 1.81,-0.15c0.432,-0.33 0.321,-0.799 -0.246,-1.046c-0.071,-0.031 -0.145,-0.056 -0.222,-0.077Z" style="fill:#1b1b1b;fill-opacity:0.68;"/><path d="M94.338,107.738c1.139,1.009 1.983,2.484 1.983,2.484c-0,0 -0.723,-1.144 -2.109,-2.207c-1.234,-0.946 -2.754,-1.426 -2.754,-1.426c-0,-0 1.677,0.083 2.88,1.149Z" style="fill:#1b1b1b;fill-opacity:0.68;"/><path d="M110.981,124.614c2.327,-1.024 4.91,-1.043 4.91,-1.043c-0,-0 -2.071,0.138 -4.711,1.552c-2.348,1.259 -4.434,3.507 -4.434,3.507c-0,0 1.776,-2.935 4.235,-4.016Z" style="fill:#1b1b1b;fill-opacity:0.68;"/><path d="M124.803,118.055c2.058,-0.782 4.304,-0.824 4.304,-0.824c0,-0 -1.805,0.124 -4.146,1.199c-2.083,0.957 -3.97,2.643 -3.97,2.643c0,0 1.639,-2.191 3.812,-3.018Z" style="fill:#1b1b1b;fill-opacity:0.68;"/><path d="M112.736,118.299c1.556,1.231 2.65,3.189 2.65,3.189c0,-0 -0.947,-1.506 -2.854,-2.766c-1.698,-1.122 -3.846,-1.518 -3.846,-1.518c0,0 2.406,-0.205 4.05,1.095Z" style="fill:#1b1b1b;fill-opacity:0.68;"/><path d="M124.239,125.403c1.138,1.009 1.982,2.484 1.982,2.484c0,-0 -0.722,-1.144 -2.109,-2.207c-1.234,-0.946 -2.754,-1.426 -2.754,-1.426c0,-0 1.678,0.083 2.881,1.149Z" style="fill:#1b1b1b;fill-opacity:0.68;"/><path d="M118.834,121.997c0.244,0.024 0.483,0.081 0.695,0.173c0.699,0.305 0.839,0.88 0.311,1.284c-0.528,0.404 -1.525,0.485 -2.225,0.18c-0.47,-0.205 -0.687,-0.532 -0.619,-0.847c0.047,0.187 0.216,0.362 0.496,0.484c0.567,0.247 1.378,0.18 1.81,-0.15c0.431,-0.33 0.321,-0.799 -0.247,-1.046c-0.07,-0.031 -0.144,-0.057 -0.221,-0.078Z" style="fill:#1b1b1b;fill-opacity:0.68;"/><path d="M124.239,125.403c1.138,1.009 1.982,2.484 1.982,2.484c0,-0 -0.722,-1.144 -2.109,-2.207c-1.234,-0.946 -2.754,-1.426 -2.754,-1.426c0,-0 1.678,0.083 2.881,1.149Z" style="fill:#1b1b1b;fill-opacity:0.68;"/></g></svg>