<?xml version="1.0" encoding="UTF-8" standalone="no"?><!DOCTYPE svg PUBLIC "-//W3C//DTD SVG 1.1//EN" "http://www.w3.org/Graphics/SVG/1.1/DTD/svg11.dtd"><svg width="100%" height="100%" viewBox="0 0 200 200" version="1.1" xmlns="http://www.w3.org/2000/svg" xmlns:xlink="http://www.w3.org/1999/xlink" xml:space="preserve" xmlns:serif="http://www.serif.com/" style="fill-rule:evenodd;clip-rule:evenodd;stroke-linejoin:round;stroke-miterlimit:2;"><g><g><path d="M49.94,129.082c-0,-0 45.936,-26.522 45.936,-26.522l0,-38.057l-2.854,-1.648c-0,-0 -3.019,-1.43 -6.246,-1.688c-2.723,-0.217 -5.935,-0.347 -10.142,2.082c-8.515,4.916 -21.292,12.293 -29.989,17.314c-4.587,2.648 -7.412,7.542 -7.412,12.838c-0,7.798 -0,19.004 -0,25.115c-0,2.683 0.392,3.114 0.822,4.093c0.399,0.909 1.756,1.78 1.756,1.78l8.129,4.693Z" style="fill:#911515;"/><g><path d="M95.876,64.503c0,-0 -20.881,12.056 -34.487,19.911c-7.085,4.09 -11.449,11.65 -11.449,19.831c-0,10.989 -0,24.837 -0,24.837l45.936,-26.522l0,-38.057Z" style="fill:#e0e0e0;fill-opacity:0.05;"/><path d="M95.876,64.503c0,-0 -20.881,12.056 -34.487,19.911c-7.085,4.09 -11.449,11.65 -11.449,19.831c-0,10.989 -0,24.837 -0,24.837l45.936,-26.522l0,-38.057Z" style="fill:#e0e0e0;fill-opacity:0.05;"/><path d="M49.94,99.583l-10.707,-6.182l-0,24.736c-0,-0 0.274,3.275 0.725,4.329c0.408,0.956 1.977,1.994 1.977,1.994l8.005,4.622l-0,-29.499Z" style="fill:#e0e0e0;fill-opacity:0.05;"/></g></g><g><path d="M134.537,66.569c-2.076,-3.94 -6.83,-6.413 -6.83,-6.413l-28.166,-16.262c0,0 -1.633,-1.018 -4.141,-1.068c-2.373,-0.047 -4.207,1.106 -4.207,1.106c0,-0 -5.46,2.19 -6.28,5.828c-0.339,1.503 -0.572,4.581 -0.572,4.581l0.04,27.567l-28.177,16.268c0,0 -1.777,0.441 -4.363,3.363c-1.832,2.07 -2.032,6.136 -2.032,6.136l-0,21.378l40.714,23.568l46.013,-42.625l0,-34.161c0,0 0.255,-4.989 -1.999,-9.266Z" style="fill:#911515;"/><path d="M79.251,104.226c2.467,-1.085 5.205,-1.106 5.205,-1.106c-0,0 -2.196,0.146 -4.993,1.646c-2.49,1.334 -4.702,3.718 -4.702,3.718c0,-0 1.883,-3.112 4.49,-4.258Z" style="fill:#1b1b1b;fill-opacity:0.68;"/><path d="M93.904,97.273c2.181,-0.83 4.563,-0.874 4.563,-0.874c0,0 -1.914,0.132 -4.396,1.271c-2.208,1.014 -4.208,2.802 -4.208,2.802c0,0 1.738,-2.323 4.041,-3.199Z" style="fill:#1b1b1b;fill-opacity:0.68;"/><path d="M81.112,97.532c1.649,1.304 2.809,3.38 2.809,3.38c0,-0 -1.004,-1.596 -3.026,-2.932c-1.8,-1.189 -4.076,-1.609 -4.076,-1.609c-0,-0 2.55,-0.217 4.293,1.161Z" style="fill:#1b1b1b;fill-opacity:0.68;"/><path d="M93.306,105.062c1.207,1.07 2.102,2.634 2.102,2.634c-0,-0 -0.767,-1.213 -2.236,-2.34c-1.308,-1.003 -2.92,-1.512 -2.92,-1.512c0,-0 1.779,0.088 3.054,1.218Z" style="fill:#1b1b1b;fill-opacity:0.68;"/><path d="M87.576,101.452c0.259,0.025 0.512,0.085 0.737,0.183c0.741,0.323 0.889,0.933 0.329,1.361c-0.56,0.429 -1.616,0.514 -2.358,0.191c-0.498,-0.217 -0.728,-0.564 -0.657,-0.897c0.051,0.197 0.23,0.383 0.526,0.512c0.602,0.263 1.462,0.191 1.919,-0.159c0.457,-0.35 0.34,-0.847 -0.261,-1.109c-0.075,-0.032 -0.154,-0.06 -0.235,-0.082Z" style="fill:#1b1b1b;fill-opacity:0.68;"/><path d="M93.306,105.062c1.207,1.07 2.102,2.634 2.102,2.634c-0,-0 -0.767,-1.213 -2.236,-2.34c-1.308,-1.003 -2.92,-1.512 -2.92,-1.512c0,-0 1.779,0.088 3.054,1.218Z" style="fill:#1b1b1b;fill-opacity:0.68;"/><path d="M101.434,68.884c0.007,2.08 0.862,4.274 0.862,4.274c-0,-0 -0.714,-2.114 -0.515,-4.497c0.178,-2.121 1.335,-3.778 1.335,-3.778c0,-0 -1.689,1.804 -1.682,4.001Z" style="fill:#1b1b1b;fill-opacity:0.68;"/><path d="M100.566,84.635c0.419,2.133 1.637,4.251 1.637,4.251c0,0 -1.073,-2.057 -1.363,-4.534c-0.258,-2.205 0.474,-4.085 0.474,-4.085c-0,-0 -1.19,2.114 -0.748,4.368Z" style="fill:#1b1b1b;fill-opacity:0.68;"/><path d="M106.51,80.485c-1.078,-0.893 -1.86,-2.346 -1.86,-2.346c0,0 0.673,1.115 1.989,2.022c1.171,0.807 2.631,1.055 2.631,1.055c-0,0 -1.621,0.212 -2.76,-0.731Z" style="fill:#1b1b1b;fill-opacity:0.68;"/><path d="M95.966,75.237c-1.078,-0.893 -1.861,-2.346 -1.861,-2.346c0,-0 0.673,1.115 1.989,2.022c1.172,0.807 2.631,1.055 2.631,1.055c0,-0 -1.621,0.212 -2.759,-0.731Z" style="fill:#1b1b1b;fill-opacity:0.68;"/><path d="M101.281,77.243c0.044,0.243 0.121,0.471 0.232,0.662c0.367,0.635 0.962,0.635 1.328,0c0.367,-0.634 0.367,-1.665 0,-2.3c-0.246,-0.426 -0.595,-0.566 -0.909,-0.42c0.193,0.002 0.385,0.13 0.531,0.384c0.298,0.515 0.296,1.354 -0.004,1.873c-0.299,0.518 -0.784,0.521 -1.081,0.007c-0.037,-0.064 -0.069,-0.133 -0.097,-0.206Z" style="fill:#1b1b1b;fill-opacity:0.68;"/><path d="M79.251,104.226c2.467,-1.085 5.205,-1.106 5.205,-1.106c-0,0 -2.196,0.146 -4.993,1.646c-2.49,1.334 -4.702,3.718 -4.702,3.718c0,-0 1.883,-3.112 4.49,-4.258Z" style="fill:#1b1b1b;fill-opacity:0.68;"/><path d="M93.904,97.273c2.181,-0.83 4.563,-0.874 4.563,-0.874c0,0 -1.914,0.132 -4.396,1.271c-2.208,1.014 -4.208,2.802 -4.208,2.802c0,0 1.738,-2.323 4.041,-3.199Z" style="fill:#1b1b1b;fill-opacity:0.68;"/><path d="M81.112,97.532c1.649,1.304 2.809,3.38 2.809,3.38c0,-0 -1.004,-1.596 -3.026,-2.932c-1.8,-1.189 -4.076,-1.609 -4.076,-1.609c-0,-0 2.55,-0.217 4.293,1.161Z" style="fill:#1b1b1b;fill-opacity:0.68;"/><path d="M93.306,105.062c1.207,1.07 2.102,2.634 2.102,2.634c-0,-0 -0.767,-1.213 -2.236,-2.34c-1.308,-1.003 -2.92,-1.512 -2.92,-1.512c0,-0 1.779,0.088 3.054,1.218Z" style="fill:#1b1b1b;fill-opacity:0.68;"/><path d="M87.576,101.452c0.259,0.025 0.512,0.085 0.737,0.183c0.741,0.323 0.889,0.933 0.329,1.361c-0.56,0.429 -1.616,0.514 -2.358,0.191c-0.498,-0.217 -0.728,-0.564 -0.657,-0.897c0.051,0.197 0.23,0.383 0.526,0.512c0.602,0.263 1.462,0.191 1.919,-0.159c0.457,-0.35 0.34,-0.847 -0.261,-1.109c-0.075,-0.032 -0.154,-0.06 -0.235,-0.082Z" style="fill:#1b1b1b;fill-opacity:0.68;"/><path d="M93.306,105.062c1.207,1.07 2.102,2.634 2.102,2.634c-0,-0 -0.767,-1.213 -2.236,-2.34c-1.308,-1.003 -2.92,-1.512 -2.92,-1.512c0,-0 1.779,0.088 3.054,1.218Z" style="fill:#1b1b1b;fill-opacity:0.68;"/><path d="M101.434,68.884c0.007,2.08 0.862,4.274 0.862,4.274c-0,-0 -0.714,-2.114 -0.515,-4.497c0.178,-2.121 1.335,-3.778 1.335,-3.778c0,-0 -1.689,1.804 -1.682,4.001Z" style="fill:#1b1b1b;fill-opacity:0.68;"/><path d="M100.566,84.635c0.419,2.133 1.637,4.251 1.637,4.251c0,0 -1.073,-2.057 -1.363,-4.534c-0.258,-2.205 0.474,-4.085 0.474,-4.085c-0,-0 -1.19,2.114 -0.748,4.368Z" style="fill:#1b1b1b;fill-opacity:0.68;"/><path d="M106.51,80.485c-1.078,-0.893 -1.86,-2.346 -1.86,-2.346c0,0 0.673,1.115 1.989,2.022c1.171,0.807 2.631,1.055 2.631,1.055c-0,0 -1.621,0.212 -2.76,-0.731Z" style="fill:#1b1b1b;fill-opacity:0.68;"/><path d="M95.966,75.237c-1.078,-0.893 -1.861,-2.346 -1.861,-2.346c0,-0 0.673,1.115 1.989,2.022c1.172,0.807 2.631,1.055 2.631,1.055c0,-0 -1.621,0.212 -2.759,-0.731Z" style="fill:#1b1b1b;fill-opacity:0.68;"/><path d="M101.281,77.243c0.044,0.243 0.121,0.471 0.232,0.662c0.367,0.635 0.962,0.635 1.328,0c0.367,-0.634 0.367,-1.665 0,-2.3c-0.246,-0.426 -0.595,-0.566 -0.909,-0.42c0.193,0.002 0.385,0.13 0.531,0.384c0.298,0.515 0.296,1.354 -0.004,1.873c-0.299,0.518 -0.784,0.521 -1.081,0.007c-0.037,-0.064 -0.069,-0.133 -0.097,-0.206Z" style="fill:#1b1b1b;fill-opacity:0.68;"/><g><path d="M90.523,125.322l-39.371,-22.741c-0.897,1.71 -1.158,3.485 -1.343,5.268l-0,21.166l40.714,23.606l-0,-27.299Z" style="fill:#e0e0e0;fill-opacity:0.08;"/><path d="M122.899,71.243c-1.024,-1.051 -2.99,-2.298 -2.99,-2.298l-31.317,-17.909c0,-0 -1.477,-1.218 -2.798,-0.438c-1.411,0.833 -1.336,3.499 -1.453,5.847l0,25.569l40.662,23.476l0,-31.062c0,0 -0.806,-1.85 -2.104,-3.185Z" style="fill:#e0e0e0;fill-opacity:0.08;"/><path d="M125.003,105.49l-34.48,19.908l-0,11.11l45.973,-26.543l0,-35.98c0,-0 -0.131,-1.475 -0.592,-3.662c-0.262,-1.241 -1.722,-2.289 -5.777,-0.717c-2.562,0.993 -5.408,4.808 -5.124,4.94l0,30.944Z" style="fill:#e0e0e0;fill-opacity:0.08;"/><path d="M125.003,105.49l-34.48,19.908l-0,11.11l45.973,-26.543l0,-35.98c0,-0 -0.131,-1.475 -0.592,-3.662c-0.262,-1.241 -1.722,-2.289 -5.777,-0.717c-2.562,0.993 -5.408,4.808 -5.124,4.94l0,30.944Z" style="fill:#e0e0e0;fill-opacity:0.08;"/></g></g><g><path d="M101.229,157.174c1.624,-0.051 5.138,-1.446 5.138,-1.446l35.881,-20.716c0,-0 2.973,-1.68 3.792,-3.003c0.82,-1.324 1.126,-1.833 1.126,-4.938l-0,-19.259c-0,-5.612 -0.1,-9.921 -1.548,-12.804c-1.914,-3.812 -7.045,-5.854 -7.045,-5.854l-2.114,-1.221c-0,0 -25.53,14.74 -38.525,22.242c-4.586,2.648 -7.411,7.542 -7.411,12.838c-0,11.222 -0,29.499 -0,29.499l6.103,3.524c-0,-0 3.006,1.188 4.603,1.138Z" style="fill:#911515;"/><g><path d="M147.166,105.727c-0.013,-4.078 -0.213,-7.968 -1.541,-10.722c-0,-0 -19.792,11.426 -32.946,19.021c-7.085,4.09 -11.45,11.65 -11.45,19.831c0,10.46 0,23.317 0,23.317c1.6,-0.241 3.375,-0.817 5.195,-1.479l37.536,-21.671c-0,-0 2.041,-1.465 2.575,-2.547c0.535,-1.081 0.631,-3.944 0.631,-3.944l-0,-21.806Z" style="fill:#e0e0e0;fill-opacity:0.05;"/><path d="M147.166,105.848c-0.067,-4.003 -0.344,-7.824 -1.579,-10.822c0,0 -19.765,11.412 -32.908,19c-7.085,4.09 -11.45,11.65 -11.45,19.831c0,10.46 0,23.317 0,23.317c1.438,-0.149 3.208,-0.687 5.195,-1.479l34.85,-20.121c0,0 4.057,-2.161 5.039,-3.728c0.982,-1.567 0.853,-5.672 0.853,-5.672l-0,-20.326Z" style="fill:#e0e0e0;fill-opacity:0.05;"/><path d="M101.229,129.195l-10.706,-6.182l-0,29.499l5.983,3.455c1.589,0.678 3.164,1.093 4.723,1.207l0,-27.979Z" style="fill:#e0e0e0;fill-opacity:0.05;"/></g></g><path d="M90.523,122.889l-0,0.124c-0,-1.117 3.176,-7.891 5.353,-9.692c9.013,-7.454 22.894,-15.175 28.322,-18.309l-26.264,15.163c-4.55,2.628 -7.367,7.466 -7.411,12.714Z" style="fill:#1b1b1b;fill-opacity:0.19;"/></g></svg>
