<?xml version="1.0" encoding="UTF-8" standalone="no"?><!DOCTYPE svg PUBLIC "-//W3C//DTD SVG 1.1//EN" "http://www.w3.org/Graphics/SVG/1.1/DTD/svg11.dtd"><svg width="100%" height="100%" viewBox="0 0 200 200" version="1.1" xmlns="http://www.w3.org/2000/svg" xmlns:xlink="http://www.w3.org/1999/xlink" xml:space="preserve" xmlns:serif="http://www.serif.com/" style="fill-rule:evenodd;clip-rule:evenodd;stroke-linejoin:round;stroke-miterlimit:2;"><g><g><path d="M101.959,47.307l0.03,-0.018l0,60.348l-6.221,3.592l-0,0.018l-5.341,-3.084l-0,-5.817l-28.718,16.58l0,11.967l-6.154,3.553l-0,0.063l-0.055,-0.032l-0.016,0.01l-0,-0.019l-5.27,-3.043l-0,-41.187l-0.021,-0.012l40.243,-23.234l0.053,0.03l0,-19.149l-0.117,-0.068l6.224,-3.594l5.363,3.096Zm-11.542,41.886l0.01,0.005l-0,0.086l-0.017,-0.01l-28.701,16.571l0,-9.188l28.708,-16.575l0,9.111Z" style="fill:#412e21;"/><g><path d="M95.758,76.998l0,15.278l-5.341,-3.083l0,-9.111l5.341,-3.084Z" style="fill:#808080;fill-opacity:0.13;"/><path d="M50.214,90.222l5.341,3.083l-0,41.204l-5.341,-3.084l-0,-41.203Z" style="fill:#808080;fill-opacity:0.13;"/><path d="M90.489,47.873l5.341,3.084l0,19.226l-5.341,-3.084l0,-19.226Z" style="fill:#808080;fill-opacity:0.13;"/><path d="M90.427,102.346l5.337,-3.082l-0,11.967l0.004,-0.002l-0,0.018l-5.341,-3.084l-0,-5.817Z" style="fill:#808080;fill-opacity:0.13;"/><path d="M101.912,47.297l0.047,0.01l0.03,-0.018l0,60.348l-6.225,3.594l-0,-11.967l-34.055,19.662l0,11.967l-6.154,3.553l-0,0.063l-0.055,-0.032l-0.016,0.01l-0,-0.019l0.071,0.041l-0,-41.204l0.018,-0.031l40.126,-23.167l0.131,0.076l0,-0.152l0.09,-0.052l-0.09,-0.051l0,-18.971l6.082,-3.66Zm-6.154,44.979l-34.049,19.746l0,-15.365l34.049,-19.659l0,15.278Z" style="fill:#808080;fill-opacity:0.13;"/><path d="M101.912,47.297l0.047,0.01l0.03,-0.018l0,60.348l-6.225,3.594l-0,-11.967l-34.055,19.662l0,11.967l-6.154,3.553l-0,0.063l-0.055,-0.032l-0.016,0.01l-0,-0.019l0.071,0.041l-0,-41.204l0.018,-0.031l40.126,-23.167l0.131,0.076l0,-0.152l0.09,-0.052l-0.09,-0.051l0,-18.971l6.082,-3.66Zm-6.154,44.979l-34.049,19.746l0,-15.365l34.049,-19.659l0,15.278Z" style="fill:#808080;fill-opacity:0.13;"/></g></g><path d="M146.254,74.686c-2.197,-4.17 -7.228,-6.787 -7.228,-6.787l-29.808,-17.209c-0,-0 -1.729,-1.079 -4.383,-1.131c-2.512,-0.05 -4.452,1.17 -4.452,1.17c0,0 -5.778,2.319 -6.647,6.168c-0.358,1.591 -0.604,4.848 -0.604,4.848l0.042,29.175l-29.82,17.217c0,-0 -1.881,0.466 -4.618,3.559c-1.938,2.19 -2.15,6.494 -2.15,6.494c0,-0 -0.038,3.643 0.411,4.843c0.368,0.984 2.283,2.351 2.283,2.351l40.436,23.352l48.654,-28.091l-0,-36.152c-0,0 0.27,-5.281 -2.116,-9.807Z" style="fill:#244e27;"/><path d="M87.744,114.539c2.612,-1.149 5.509,-1.17 5.509,-1.17c0,-0 -2.323,0.155 -5.285,1.741c-2.634,1.412 -4.975,3.935 -4.975,3.935c0,0 1.993,-3.293 4.751,-4.506Z" style="fill:#1b1b1b;fill-opacity:0.68;"/><path d="M103.252,107.181c2.309,-0.878 4.829,-0.925 4.829,-0.925c0,-0 -2.026,0.139 -4.652,1.345c-2.337,1.073 -4.453,2.966 -4.453,2.966c-0,-0 1.838,-2.459 4.276,-3.386Z" style="fill:#1b1b1b;fill-opacity:0.68;"/><path d="M89.714,107.454c1.745,1.381 2.973,3.578 2.973,3.578c0,-0 -1.062,-1.689 -3.203,-3.103c-1.904,-1.259 -4.314,-1.703 -4.314,-1.703c0,0 2.7,-0.23 4.544,1.228Z" style="fill:#1b1b1b;fill-opacity:0.68;"/><path d="M102.619,115.424c1.277,1.132 2.225,2.787 2.225,2.787c-0,0 -0.812,-1.283 -2.367,-2.476c-1.384,-1.062 -3.09,-1.6 -3.09,-1.6c0,-0 1.882,0.093 3.232,1.289Z" style="fill:#1b1b1b;fill-opacity:0.68;"/><path d="M96.555,111.603c0.275,0.027 0.542,0.09 0.78,0.194c0.785,0.342 0.941,0.988 0.349,1.441c-0.593,0.453 -1.711,0.543 -2.496,0.201c-0.528,-0.229 -0.771,-0.596 -0.695,-0.949c0.053,0.209 0.242,0.406 0.556,0.542c0.637,0.278 1.547,0.202 2.031,-0.168c0.484,-0.37 0.36,-0.896 -0.277,-1.174c-0.079,-0.034 -0.162,-0.063 -0.248,-0.087Z" style="fill:#1b1b1b;fill-opacity:0.68;"/><path d="M102.619,115.424c1.277,1.132 2.225,2.787 2.225,2.787c-0,0 -0.812,-1.283 -2.367,-2.476c-1.384,-1.062 -3.09,-1.6 -3.09,-1.6c0,-0 1.882,0.093 3.232,1.289Z" style="fill:#1b1b1b;fill-opacity:0.68;"/><path d="M111.221,77.136c0.007,2.202 0.912,4.523 0.912,4.523c-0,0 -0.756,-2.236 -0.544,-4.759c0.187,-2.244 1.412,-3.998 1.412,-3.998c0,-0 -1.787,1.909 -1.78,4.234Z" style="fill:#1b1b1b;fill-opacity:0.68;"/><path d="M110.303,93.805c0.443,2.258 1.732,4.5 1.732,4.5c0,0 -1.136,-2.177 -1.442,-4.799c-0.274,-2.333 0.501,-4.323 0.501,-4.323c-0,-0 -1.259,2.237 -0.791,4.622Z" style="fill:#1b1b1b;fill-opacity:0.68;"/><path d="M116.594,89.414c-1.141,-0.945 -1.969,-2.483 -1.969,-2.483c-0,0 0.712,1.18 2.105,2.14c1.239,0.854 2.784,1.117 2.784,1.117c-0,-0 -1.715,0.224 -2.92,-0.774Z" style="fill:#1b1b1b;fill-opacity:0.68;"/><path d="M105.434,83.86c-1.141,-0.945 -1.969,-2.483 -1.969,-2.483c0,-0 0.712,1.18 2.105,2.139c1.24,0.855 2.784,1.117 2.784,1.117c0,0 -1.715,0.225 -2.92,-0.773Z" style="fill:#1b1b1b;fill-opacity:0.68;"/><path d="M111.059,85.983c0.047,0.256 0.129,0.498 0.246,0.701c0.388,0.672 1.018,0.672 1.405,-0c0.388,-0.672 0.388,-1.763 0,-2.435c-0.26,-0.451 -0.629,-0.599 -0.962,-0.444c0.204,0.002 0.407,0.138 0.562,0.406c0.315,0.545 0.313,1.433 -0.004,1.982c-0.317,0.549 -0.829,0.552 -1.144,0.007c-0.039,-0.067 -0.073,-0.14 -0.103,-0.217Z" style="fill:#1b1b1b;fill-opacity:0.68;"/><path d="M87.744,114.539c2.612,-1.149 5.509,-1.17 5.509,-1.17c0,-0 -2.323,0.155 -5.285,1.741c-2.634,1.412 -4.975,3.935 -4.975,3.935c0,0 1.993,-3.293 4.751,-4.506Z" style="fill:#1b1b1b;fill-opacity:0.68;"/><path d="M103.252,107.181c2.309,-0.878 4.829,-0.925 4.829,-0.925c0,-0 -2.026,0.139 -4.652,1.345c-2.337,1.073 -4.453,2.966 -4.453,2.966c-0,-0 1.838,-2.459 4.276,-3.386Z" style="fill:#1b1b1b;fill-opacity:0.68;"/><path d="M89.714,107.454c1.745,1.381 2.973,3.578 2.973,3.578c0,-0 -1.062,-1.689 -3.203,-3.103c-1.904,-1.259 -4.314,-1.703 -4.314,-1.703c0,0 2.7,-0.23 4.544,1.228Z" style="fill:#1b1b1b;fill-opacity:0.68;"/><path d="M102.619,115.424c1.277,1.132 2.225,2.787 2.225,2.787c-0,0 -0.812,-1.283 -2.367,-2.476c-1.384,-1.062 -3.09,-1.6 -3.09,-1.6c0,-0 1.882,0.093 3.232,1.289Z" style="fill:#1b1b1b;fill-opacity:0.68;"/><path d="M96.555,111.603c0.275,0.027 0.542,0.09 0.78,0.194c0.785,0.342 0.941,0.988 0.349,1.441c-0.593,0.453 -1.711,0.543 -2.496,0.201c-0.528,-0.229 -0.771,-0.596 -0.695,-0.949c0.053,0.209 0.242,0.406 0.556,0.542c0.637,0.278 1.547,0.202 2.031,-0.168c0.484,-0.37 0.36,-0.896 -0.277,-1.174c-0.079,-0.034 -0.162,-0.063 -0.248,-0.087Z" style="fill:#1b1b1b;fill-opacity:0.68;"/><path d="M102.619,115.424c1.277,1.132 2.225,2.787 2.225,2.787c-0,0 -0.812,-1.283 -2.367,-2.476c-1.384,-1.062 -3.09,-1.6 -3.09,-1.6c0,-0 1.882,0.093 3.232,1.289Z" style="fill:#1b1b1b;fill-opacity:0.68;"/><path d="M111.221,77.136c0.007,2.202 0.912,4.523 0.912,4.523c-0,0 -0.756,-2.236 -0.544,-4.759c0.187,-2.244 1.412,-3.998 1.412,-3.998c0,-0 -1.787,1.909 -1.78,4.234Z" style="fill:#1b1b1b;fill-opacity:0.68;"/><path d="M110.303,93.805c0.443,2.258 1.732,4.5 1.732,4.5c0,0 -1.136,-2.177 -1.442,-4.799c-0.274,-2.333 0.501,-4.323 0.501,-4.323c-0,-0 -1.259,2.237 -0.791,4.622Z" style="fill:#1b1b1b;fill-opacity:0.68;"/><path d="M116.594,89.414c-1.141,-0.945 -1.969,-2.483 -1.969,-2.483c-0,0 0.712,1.18 2.105,2.14c1.239,0.854 2.784,1.117 2.784,1.117c-0,-0 -1.715,0.224 -2.92,-0.774Z" style="fill:#1b1b1b;fill-opacity:0.68;"/><path d="M105.434,83.86c-1.141,-0.945 -1.969,-2.483 -1.969,-2.483c0,-0 0.712,1.18 2.105,2.139c1.24,0.855 2.784,1.117 2.784,1.117c0,0 -1.715,0.225 -2.92,-0.773Z" style="fill:#1b1b1b;fill-opacity:0.68;"/><path d="M111.059,85.983c0.047,0.256 0.129,0.498 0.246,0.701c0.388,0.672 1.018,0.672 1.405,-0c0.388,-0.672 0.388,-1.763 0,-2.435c-0.26,-0.451 -0.629,-0.599 -0.962,-0.444c0.204,0.002 0.407,0.138 0.562,0.406c0.315,0.545 0.313,1.433 -0.004,1.982c-0.317,0.549 -0.829,0.552 -1.144,0.007c-0.039,-0.067 -0.073,-0.14 -0.103,-0.217Z" style="fill:#1b1b1b;fill-opacity:0.68;"/><g><path d="M99.673,136.865l-41.666,-24.067c-0.949,1.81 -1.225,3.689 -1.421,5.576l-0,1.449c-0,0 0.071,2.355 0.403,3.169c0.381,0.933 2.106,2.284 2.106,2.284l40.578,23.428l0,-11.839Z" style="fill:#d1d1d1;fill-opacity:0.08;"/><path d="M133.937,79.633c-1.083,-1.113 -3.164,-2.432 -3.164,-2.432l-33.142,-18.953c-0,-0 -1.564,-1.29 -2.962,-0.464c-1.493,0.882 -1.414,3.703 -1.537,6.188l-0,27.06l43.033,24.845l-0,-32.873c-0,-0 -0.854,-1.959 -2.228,-3.371Z" style="fill:#d1d1d1;fill-opacity:0.08;"/><path d="M136.165,115.877l-36.492,21.069l0,11.758l48.655,-28.091l-0,-38.079c-0,0 -0.139,-1.56 -0.628,-3.875c-0.277,-1.314 -1.822,-2.422 -6.113,-0.758c-2.711,1.051 -5.723,5.088 -5.422,5.228l-0,32.748Z" style="fill:#d1d1d1;fill-opacity:0.08;"/><path d="M136.165,115.877l-36.492,21.069l0,11.758l48.655,-28.091l-0,-38.079c-0,0 -0.139,-1.56 -0.628,-3.875c-0.277,-1.314 -1.822,-2.422 -6.113,-0.758c-2.711,1.051 -5.723,5.088 -5.422,5.228l-0,32.748Z" style="fill:#d1d1d1;fill-opacity:0.08;"/></g><g><path d="M149.776,74.915l0.031,-0.018l-0,60.347l-6.222,3.593l0,0.017l-5.341,-3.083l0,-5.818l-28.717,16.58l-0,11.967l-6.155,3.553l0,0.063l-0.054,-0.031l-0.017,0.009l0,-0.019l-5.27,-3.042l0,-41.187l-0.02,-0.012l40.243,-23.235l0.053,0.031l-0,-19.149l-0.118,-0.069l6.225,-3.593l5.362,3.096Zm-11.541,41.885l0.009,0.006l0,0.085l-0.016,-0.009l-28.701,16.57l-0,-9.188l28.708,-16.574l-0,9.11Z" style="fill:#412e21;"/><g><path d="M143.576,104.606l-0,15.278l-5.341,-3.084l-0,-9.11l5.341,-3.084Z" style="fill:#808080;fill-opacity:0.13;"/><path d="M98.031,117.829l5.341,3.084l0,41.203l-5.341,-3.083l0,-41.204Z" style="fill:#808080;fill-opacity:0.13;"/><path d="M138.307,75.481l5.341,3.083l-0,19.226l-5.341,-3.083l-0,-19.226Z" style="fill:#808080;fill-opacity:0.13;"/><path d="M138.244,129.953l5.337,-3.081l0,11.967l0.004,-0.002l0,0.017l-5.341,-3.083l0,-5.818Z" style="fill:#808080;fill-opacity:0.13;"/><path d="M149.73,74.904l0.046,0.011l0.031,-0.018l-0,60.347l-6.226,3.595l0,-11.967l-34.054,19.661l-0,11.967l-6.155,3.553l0,0.063l-0.054,-0.031l-0.017,0.009l0,-0.019l0.071,0.041l0,-41.203l0.019,-0.032l40.126,-23.167l0.131,0.076l-0,-0.152l0.09,-0.051l-0.09,-0.052l-0,-18.971l6.082,-3.66Zm-6.154,44.98l-34.049,19.746l-0,-15.366l34.049,-19.658l-0,15.278Z" style="fill:#808080;fill-opacity:0.13;"/><path d="M149.73,74.904l0.046,0.011l0.031,-0.018l-0,60.347l-6.226,3.595l0,-11.967l-34.054,19.661l-0,11.967l-6.155,3.553l0,0.063l-0.054,-0.031l-0.017,0.009l0,-0.019l0.071,0.041l0,-41.203l0.019,-0.032l40.126,-23.167l0.131,0.076l-0,-0.152l0.09,-0.051l-0.09,-0.052l-0,-18.971l6.082,-3.66Zm-6.154,44.98l-34.049,19.746l-0,-15.366l34.049,-19.658l-0,15.278Z" style="fill:#808080;fill-opacity:0.13;"/></g></g></g></svg>