<?xml version="1.0" encoding="UTF-8" standalone="no"?><!DOCTYPE svg PUBLIC "-//W3C//DTD SVG 1.1//EN" "http://www.w3.org/Graphics/SVG/1.1/DTD/svg11.dtd"><svg width="100%" height="100%" viewBox="0 0 200 200" version="1.1" xmlns="http://www.w3.org/2000/svg" xmlns:xlink="http://www.w3.org/1999/xlink" xml:space="preserve" xmlns:serif="http://www.serif.com/" style="fill-rule:evenodd;clip-rule:evenodd;stroke-linejoin:round;stroke-miterlimit:2;"><g><g><path d="M20.9,110.807c-0,0 45.936,-26.521 45.936,-26.521l0,-38.058l-2.854,-1.648c-0,0 -3.019,-1.43 -6.246,-1.687c-2.723,-0.218 -5.935,-0.348 -10.142,2.081c-8.515,4.916 -21.292,12.293 -29.989,17.315c-4.587,2.648 -7.412,7.542 -7.412,12.838c-0,7.798 -0,19.003 -0,25.115c-0,2.683 0.392,3.114 0.822,4.093c0.399,0.908 1.756,1.779 1.756,1.779l8.129,4.693Z" style="fill:#911515;"/><g><path d="M66.836,46.228c0,0 -20.881,12.056 -34.487,19.911c-7.085,4.091 -11.449,11.65 -11.449,19.831c-0,10.99 -0,24.837 -0,24.837l45.936,-26.521l0,-38.058Z" style="fill:#e0e0e0;fill-opacity:0.05;"/><path d="M66.836,46.228c0,0 -20.881,12.056 -34.487,19.911c-7.085,4.091 -11.449,11.65 -11.449,19.831c-0,10.99 -0,24.837 -0,24.837l45.936,-26.521l0,-38.058Z" style="fill:#e0e0e0;fill-opacity:0.05;"/><path d="M20.9,81.308l-10.707,-6.181l-0,24.736c-0,-0 0.274,3.275 0.725,4.328c0.408,0.957 1.977,1.995 1.977,1.995l8.005,4.621l-0,-29.499Z" style="fill:#e0e0e0;fill-opacity:0.05;"/></g></g><g><g><path d="M21.672,87.119c0.741,-1.168 2.489,-2.243 2.489,-2.243l42.7,-24.653l112.349,64.865l-0.041,0.023l0.041,11.163l-45.947,26.527l-109.938,-63.472c0,-0 -1.456,-0.87 -1.857,-1.618c-0.402,-0.749 -0.554,-1.118 -0.554,-2.875l0,-4.454c0,-2.009 0.278,-2.508 0.758,-3.263Z" style="fill:#244e27;"/><path d="M21.323,87.737c-0,-0 2.524,0.875 4.312,1.907c17.293,9.984 107.628,61.971 107.628,61.971l45.906,-26.504l0.041,11.163l-45.947,26.527l-110.187,-63.616c0,0 -1.28,-0.85 -1.624,-1.503c-0.352,-0.666 -0.501,-0.914 -0.486,-2.496c0.014,-1.427 0.011,-3.189 -0.052,-4.731c-0.075,-1.87 0.36,-2.588 0.409,-2.718Z" style="fill:#8f8f8f;fill-opacity:0.2;"/><path d="M133.263,162.801l-0,-11.186l45.906,-26.504l0.041,11.163l-45.947,26.527Z" style="fill:#8f8f8f;fill-opacity:0.2;"/></g><path d="M178.407,91.964c0.603,1.135 0.803,1.406 0.803,4.263l-0,28.906l-11.493,6.635l-112.349,-64.864l0,-29.475c0,0 0.29,-2.752 0.762,-3.717c0.43,-0.878 2.07,-2.075 2.07,-2.075l5.951,-3.436c0,-0 1.151,-0.571 2.796,-0.625c1.523,-0.051 2.848,0.754 2.848,0.754l105.802,61.085c0,0 2.213,1.422 2.81,2.549Z" style="fill:#244e27;"/><g><g><path d="M56.088,35.111c0.909,-0.817 1.625,-0.485 1.625,-0.485l106.865,61.698c0,0 1.666,1.42 2.189,2.361c0.523,0.94 0.95,3.282 0.95,3.282l-0,29.801l-112.349,-64.864l0,-29.534c0.141,-1.007 0.345,-1.922 0.72,-2.259Z" style="fill:#8d8d8d;fill-opacity:0.14;"/></g></g><path d="M168.65,98.675c0.643,-1.186 1.886,-2.167 1.886,-2.167l7.866,-4.541c0.947,1.82 0.777,3.397 0.808,5.018l-0,28.148l-11.493,6.635l-0,-29.92c-0,0 0.157,-1.74 0.933,-3.173Z" style="fill:#8d8d8d;fill-opacity:0.14;"/><path d="M168.65,98.675c0.643,-1.186 1.886,-2.167 1.886,-2.167l7.866,-4.541c0.947,1.82 0.777,3.397 0.808,5.018l-0,28.148l-11.493,6.635l-0,-29.92c-0,0 0.157,-1.74 0.933,-3.173Z" style="fill:#8d8d8d;fill-opacity:0.14;"/><path d="M54.112,90.747c2.468,-1.085 5.205,-1.106 5.205,-1.106c0,0 -2.195,0.146 -4.993,1.646c-2.49,1.334 -4.701,3.718 -4.701,3.718c-0,-0 1.883,-3.112 4.489,-4.258Z" style="fill:#1b1b1b;fill-opacity:0.68;"/><path d="M68.766,83.794c2.181,-0.83 4.563,-0.874 4.563,-0.874c-0,0 -1.915,0.132 -4.396,1.271c-2.208,1.014 -4.208,2.802 -4.208,2.802c-0,0 1.737,-2.323 4.041,-3.199Z" style="fill:#1b1b1b;fill-opacity:0.68;"/><path d="M55.973,84.053c1.65,1.304 2.81,3.38 2.81,3.38c-0,-0 -1.004,-1.596 -3.027,-2.932c-1.799,-1.189 -4.076,-1.609 -4.076,-1.609c0,-0 2.551,-0.217 4.293,1.161Z" style="fill:#1b1b1b;fill-opacity:0.68;"/><path d="M73.888,54.014c0.006,2.081 0.861,4.275 0.861,4.275c0,-0 -0.714,-2.114 -0.514,-4.498c0.177,-2.12 1.334,-3.778 1.334,-3.778c0,0 -1.688,1.804 -1.681,4.001Z" style="fill:#1b1b1b;fill-opacity:0.68;"/><path d="M73.02,69.765c0.418,2.134 1.637,4.252 1.637,4.252c-0,0 -1.074,-2.057 -1.364,-4.535c-0.258,-2.204 0.474,-4.085 0.474,-4.085c0,0 -1.189,2.115 -0.747,4.368Z" style="fill:#1b1b1b;fill-opacity:0.68;"/><path d="M68.167,91.583c1.207,1.07 2.102,2.634 2.102,2.634c0,-0 -0.766,-1.213 -2.236,-2.34c-1.308,-1.003 -2.919,-1.512 -2.919,-1.512c-0,-0 1.778,0.088 3.053,1.218Z" style="fill:#1b1b1b;fill-opacity:0.68;"/><path d="M78.964,65.616c-1.078,-0.893 -1.86,-2.346 -1.86,-2.346c-0,-0 0.672,1.115 1.989,2.022c1.171,0.807 2.63,1.055 2.63,1.055c0,-0 -1.62,0.212 -2.759,-0.731Z" style="fill:#1b1b1b;fill-opacity:0.68;"/><path d="M68.419,60.368c-1.078,-0.893 -1.86,-2.347 -1.86,-2.347c-0,0 0.672,1.115 1.989,2.022c1.171,0.807 2.63,1.055 2.63,1.055c0,0 -1.62,0.213 -2.759,-0.73Z" style="fill:#1b1b1b;fill-opacity:0.68;"/><path d="M62.438,87.973c0.259,0.025 0.512,0.085 0.736,0.183c0.742,0.323 0.89,0.933 0.33,1.361c-0.56,0.429 -1.617,0.514 -2.359,0.191c-0.498,-0.217 -0.728,-0.563 -0.656,-0.897c0.05,0.197 0.229,0.383 0.526,0.512c0.601,0.263 1.461,0.191 1.919,-0.159c0.457,-0.35 0.34,-0.847 -0.262,-1.109c-0.074,-0.032 -0.153,-0.06 -0.234,-0.082Z" style="fill:#1b1b1b;fill-opacity:0.68;"/><path d="M68.167,91.583c1.207,1.07 2.102,2.634 2.102,2.634c0,-0 -0.766,-1.213 -2.236,-2.34c-1.308,-1.003 -2.919,-1.512 -2.919,-1.512c-0,-0 1.778,0.088 3.053,1.218Z" style="fill:#1b1b1b;fill-opacity:0.68;"/><path d="M84.355,107.782c2.468,-1.085 5.206,-1.105 5.206,-1.105c-0,-0 -2.196,0.146 -4.994,1.645c-2.489,1.334 -4.701,3.718 -4.701,3.718c-0,0 1.883,-3.111 4.489,-4.258Z" style="fill:#1b1b1b;fill-opacity:0.68;"/><path d="M99.009,100.829c2.181,-0.829 4.563,-0.874 4.563,-0.874c-0,0 -1.914,0.132 -4.396,1.272c-2.208,1.014 -4.208,2.802 -4.208,2.802c-0,-0 1.737,-2.324 4.041,-3.2Z" style="fill:#1b1b1b;fill-opacity:0.68;"/><path d="M86.216,101.088c1.65,1.304 2.81,3.38 2.81,3.38c-0,0 -1.004,-1.596 -3.026,-2.932c-1.8,-1.189 -4.077,-1.609 -4.077,-1.609c0,0 2.551,-0.217 4.293,1.161Z" style="fill:#1b1b1b;fill-opacity:0.68;"/><path d="M98.41,108.619c1.208,1.069 2.103,2.633 2.103,2.633c-0,0 -0.767,-1.213 -2.237,-2.34c-1.307,-1.003 -2.919,-1.512 -2.919,-1.512c-0,0 1.778,0.089 3.053,1.219Z" style="fill:#1b1b1b;fill-opacity:0.68;"/><path d="M92.681,105.008c0.259,0.025 0.512,0.085 0.736,0.183c0.742,0.323 0.89,0.933 0.33,1.362c-0.56,0.428 -1.617,0.513 -2.358,0.19c-0.498,-0.217 -0.729,-0.563 -0.657,-0.897c0.051,0.197 0.229,0.384 0.526,0.513c0.601,0.262 1.461,0.191 1.919,-0.159c0.457,-0.35 0.34,-0.847 -0.262,-1.11c-0.074,-0.032 -0.153,-0.059 -0.234,-0.082Z" style="fill:#1b1b1b;fill-opacity:0.68;"/><path d="M98.41,108.619c1.208,1.069 2.103,2.633 2.103,2.633c-0,0 -0.767,-1.213 -2.237,-2.34c-1.307,-1.003 -2.919,-1.512 -2.919,-1.512c-0,0 1.778,0.089 3.053,1.219Z" style="fill:#1b1b1b;fill-opacity:0.68;"/><path d="M116.053,126.509c2.468,-1.086 5.206,-1.106 5.206,-1.106c-0,0 -2.196,0.146 -4.994,1.646c-2.489,1.334 -4.701,3.718 -4.701,3.718c-0,-0 1.883,-3.112 4.489,-4.258Z" style="fill:#1b1b1b;fill-opacity:0.68;"/><path d="M130.707,119.556c2.181,-0.83 4.563,-0.874 4.563,-0.874c-0,-0 -1.914,0.131 -4.396,1.271c-2.208,1.014 -4.208,2.802 -4.208,2.802c0,0 1.737,-2.323 4.041,-3.199Z" style="fill:#1b1b1b;fill-opacity:0.68;"/><path d="M117.914,119.815c1.65,1.304 2.81,3.38 2.81,3.38c-0,-0 -1.004,-1.596 -3.026,-2.932c-1.8,-1.189 -4.077,-1.609 -4.077,-1.609c0,-0 2.551,-0.217 4.293,1.161Z" style="fill:#1b1b1b;fill-opacity:0.68;"/><path d="M130.108,127.345c1.208,1.07 2.103,2.634 2.103,2.634c-0,-0 -0.767,-1.213 -2.237,-2.34c-1.307,-1.003 -2.919,-1.512 -2.919,-1.512c-0,-0 1.778,0.088 3.053,1.218Z" style="fill:#1b1b1b;fill-opacity:0.68;"/><path d="M124.379,123.735c0.259,0.025 0.512,0.085 0.736,0.183c0.742,0.323 0.89,0.933 0.33,1.361c-0.56,0.429 -1.617,0.514 -2.358,0.191c-0.498,-0.217 -0.729,-0.564 -0.657,-0.897c0.051,0.197 0.229,0.383 0.526,0.512c0.601,0.262 1.461,0.191 1.919,-0.159c0.457,-0.35 0.34,-0.847 -0.262,-1.109c-0.074,-0.033 -0.153,-0.06 -0.234,-0.082Z" style="fill:#1b1b1b;fill-opacity:0.68;"/><path d="M130.108,127.345c1.208,1.07 2.103,2.634 2.103,2.634c-0,-0 -0.767,-1.213 -2.237,-2.34c-1.307,-1.003 -2.919,-1.512 -2.919,-1.512c-0,-0 1.778,0.088 3.053,1.218Z" style="fill:#1b1b1b;fill-opacity:0.68;"/><path d="M73.735,62.374c0.043,0.242 0.121,0.47 0.232,0.662c0.366,0.635 0.961,0.635 1.328,0c0.366,-0.635 0.366,-1.665 -0,-2.3c-0.246,-0.426 -0.596,-0.566 -0.909,-0.42c0.192,0.002 0.384,0.13 0.531,0.384c0.297,0.515 0.295,1.354 -0.004,1.872c-0.3,0.519 -0.784,0.522 -1.081,0.007c-0.037,-0.064 -0.07,-0.132 -0.097,-0.205Z" style="fill:#1b1b1b;fill-opacity:0.68;"/><path d="M103.707,71.231c0.006,2.08 0.861,4.274 0.861,4.274c0,-0 -0.714,-2.114 -0.514,-4.498c0.177,-2.12 1.335,-3.777 1.335,-3.777c-0,-0 -1.689,1.803 -1.682,4.001Z" style="fill:#1b1b1b;fill-opacity:0.68;"/><path d="M102.839,86.981c0.418,2.134 1.637,4.252 1.637,4.252c-0,0 -1.074,-2.057 -1.364,-4.535c-0.258,-2.204 0.474,-4.085 0.474,-4.085c0,0 -1.189,2.115 -0.747,4.368Z" style="fill:#1b1b1b;fill-opacity:0.68;"/><path d="M108.783,82.832c-1.078,-0.893 -1.86,-2.346 -1.86,-2.346c-0,-0 0.672,1.115 1.989,2.022c1.171,0.807 2.63,1.055 2.63,1.055c0,-0 -1.62,0.212 -2.759,-0.731Z" style="fill:#1b1b1b;fill-opacity:0.68;"/><path d="M98.238,77.584c-1.078,-0.893 -1.86,-2.347 -1.86,-2.347c-0,0 0.673,1.115 1.989,2.022c1.171,0.807 2.631,1.055 2.631,1.055c-0,0 -1.621,0.213 -2.76,-0.73Z" style="fill:#1b1b1b;fill-opacity:0.68;"/><path d="M103.554,79.59c0.044,0.242 0.121,0.47 0.232,0.662c0.366,0.635 0.961,0.635 1.328,0c0.366,-0.635 0.366,-1.665 -0,-2.3c-0.246,-0.426 -0.596,-0.566 -0.909,-0.42c0.192,0.002 0.384,0.13 0.531,0.384c0.297,0.515 0.295,1.354 -0.004,1.872c-0.3,0.519 -0.784,0.522 -1.081,0.007c-0.037,-0.064 -0.07,-0.132 -0.097,-0.205Z" style="fill:#1b1b1b;fill-opacity:0.68;"/><path d="M138.237,91.167c0.006,2.08 0.861,4.274 0.861,4.274c0,-0 -0.714,-2.114 -0.514,-4.497c0.177,-2.121 1.335,-3.778 1.335,-3.778c-0,-0 -1.689,1.803 -1.682,4.001Z" style="fill:#1b1b1b;fill-opacity:0.68;"/><path d="M137.369,106.917c0.419,2.134 1.637,4.252 1.637,4.252c0,0 -1.073,-2.057 -1.363,-4.535c-0.258,-2.204 0.474,-4.085 0.474,-4.085c-0,0 -1.19,2.115 -0.748,4.368Z" style="fill:#1b1b1b;fill-opacity:0.68;"/><path d="M143.313,102.768c-1.078,-0.893 -1.86,-2.346 -1.86,-2.346c-0,-0 0.673,1.115 1.989,2.022c1.171,0.807 2.631,1.055 2.631,1.055c-0,-0 -1.621,0.212 -2.76,-0.731Z" style="fill:#1b1b1b;fill-opacity:0.68;"/><path d="M132.768,97.52c-1.078,-0.893 -1.86,-2.347 -1.86,-2.347c0,0 0.673,1.115 1.989,2.022c1.171,0.807 2.631,1.056 2.631,1.056c-0,-0 -1.621,0.212 -2.76,-0.731Z" style="fill:#1b1b1b;fill-opacity:0.68;"/><path d="M138.084,99.526c0.044,0.242 0.121,0.47 0.232,0.662c0.366,0.635 0.961,0.635 1.328,0c0.366,-0.635 0.366,-1.665 -0,-2.3c-0.246,-0.426 -0.595,-0.566 -0.909,-0.42c0.193,0.002 0.385,0.13 0.531,0.384c0.297,0.515 0.296,1.354 -0.004,1.872c-0.299,0.519 -0.784,0.522 -1.081,0.007c-0.037,-0.063 -0.069,-0.132 -0.097,-0.205Z" style="fill:#1b1b1b;fill-opacity:0.68;"/><g><path d="M21.672,87.119c0.741,-1.168 2.489,-2.243 2.489,-2.243l42.7,-24.653l112.349,64.865l-0.041,0.023l0.041,11.163l-46.052,39.33l-112.244,-64.805l0,-20.417c0,-2.009 0.278,-2.508 0.758,-3.263Z" style="fill:#911515;"/><path d="M21.323,87.737c-0,-0 2.524,0.875 4.312,1.907c17.293,9.984 107.628,61.971 107.628,61.971l45.906,-26.504l0.041,11.163l-46.052,39.33l-112.244,-64.805c0,-0 0.063,-18.802 0,-20.344c-0.075,-1.87 0.36,-2.588 0.409,-2.718Z" style="fill:#8f8f8f;fill-opacity:0.2;"/><path d="M133.263,162.801l-0,-11.186l45.906,-26.504l0.041,11.163l-45.947,26.527Z" style="fill:#8f8f8f;fill-opacity:0.2;"/></g><path d="M178.407,91.964c0.603,1.135 0.803,1.406 0.803,4.263l-0,28.906l-11.493,6.635l-112.349,-64.864l0,-29.475c0,0 0.29,-2.752 0.762,-3.717c0.43,-0.878 2.07,-2.075 2.07,-2.075l5.951,-3.436c0,-0 1.151,-0.571 2.796,-0.625c1.523,-0.051 2.848,0.754 2.848,0.754l105.802,61.085c0,0 2.213,1.422 2.81,2.549Z" style="fill:#911515;"/><g><g><path d="M56.088,35.111c0.909,-0.817 1.625,-0.485 1.625,-0.485l106.865,61.698c0,0 1.666,1.42 2.189,2.361c0.523,0.94 0.95,3.282 0.95,3.282l-0,29.801l-112.349,-64.864l0,-29.534c0.141,-1.007 0.345,-1.922 0.72,-2.259Z" style="fill:#8d8d8d;fill-opacity:0.14;"/></g></g><path d="M168.65,98.675c0.643,-1.186 1.886,-2.167 1.886,-2.167l7.866,-4.541c0.947,1.82 0.777,3.397 0.808,5.018l-0,28.148l-11.493,6.635l-0,-29.92c-0,0 0.157,-1.74 0.933,-3.173Z" style="fill:#8d8d8d;fill-opacity:0.14;"/><path d="M168.65,98.675c0.643,-1.186 1.886,-2.167 1.886,-2.167l7.866,-4.541c0.947,1.82 0.777,3.397 0.808,5.018l-0,28.148l-11.493,6.635l-0,-29.92c-0,0 0.157,-1.74 0.933,-3.173Z" style="fill:#8d8d8d;fill-opacity:0.14;"/><path d="M54.112,90.747c2.468,-1.085 5.205,-1.106 5.205,-1.106c0,0 -2.195,0.146 -4.993,1.646c-2.49,1.334 -4.701,3.718 -4.701,3.718c-0,-0 1.883,-3.112 4.489,-4.258Z" style="fill:#1b1b1b;fill-opacity:0.68;"/><path d="M68.766,83.794c2.181,-0.83 4.563,-0.874 4.563,-0.874c-0,0 -1.915,0.132 -4.396,1.271c-2.208,1.014 -4.208,2.802 -4.208,2.802c-0,0 1.737,-2.323 4.041,-3.199Z" style="fill:#1b1b1b;fill-opacity:0.68;"/><path d="M55.973,84.053c1.65,1.304 2.81,3.38 2.81,3.38c-0,-0 -1.004,-1.596 -3.027,-2.932c-1.799,-1.189 -4.076,-1.609 -4.076,-1.609c0,-0 2.551,-0.217 4.293,1.161Z" style="fill:#1b1b1b;fill-opacity:0.68;"/><path d="M73.888,54.014c0.006,2.081 0.861,4.275 0.861,4.275c0,-0 -0.714,-2.114 -0.514,-4.498c0.177,-2.12 1.334,-3.778 1.334,-3.778c0,0 -1.688,1.804 -1.681,4.001Z" style="fill:#1b1b1b;fill-opacity:0.68;"/><path d="M73.02,69.765c0.418,2.134 1.637,4.252 1.637,4.252c-0,0 -1.074,-2.057 -1.364,-4.535c-0.258,-2.204 0.474,-4.085 0.474,-4.085c0,0 -1.189,2.115 -0.747,4.368Z" style="fill:#1b1b1b;fill-opacity:0.68;"/><path d="M68.167,91.583c1.207,1.07 2.102,2.634 2.102,2.634c0,-0 -0.766,-1.213 -2.236,-2.34c-1.308,-1.003 -2.919,-1.512 -2.919,-1.512c-0,-0 1.778,0.088 3.053,1.218Z" style="fill:#1b1b1b;fill-opacity:0.68;"/><path d="M78.964,65.616c-1.078,-0.893 -1.86,-2.346 -1.86,-2.346c-0,-0 0.672,1.115 1.989,2.022c1.171,0.807 2.63,1.055 2.63,1.055c0,-0 -1.62,0.212 -2.759,-0.731Z" style="fill:#1b1b1b;fill-opacity:0.68;"/><path d="M68.419,60.368c-1.078,-0.893 -1.86,-2.347 -1.86,-2.347c-0,0 0.672,1.115 1.989,2.022c1.171,0.807 2.63,1.055 2.63,1.055c0,0 -1.62,0.213 -2.759,-0.73Z" style="fill:#1b1b1b;fill-opacity:0.68;"/><path d="M62.438,87.973c0.259,0.025 0.512,0.085 0.736,0.183c0.742,0.323 0.89,0.933 0.33,1.361c-0.56,0.429 -1.617,0.514 -2.359,0.191c-0.498,-0.217 -0.728,-0.563 -0.656,-0.897c0.05,0.197 0.229,0.383 0.526,0.512c0.601,0.263 1.461,0.191 1.919,-0.159c0.457,-0.35 0.34,-0.847 -0.262,-1.109c-0.074,-0.032 -0.153,-0.06 -0.234,-0.082Z" style="fill:#1b1b1b;fill-opacity:0.68;"/><path d="M68.167,91.583c1.207,1.07 2.102,2.634 2.102,2.634c0,-0 -0.766,-1.213 -2.236,-2.34c-1.308,-1.003 -2.919,-1.512 -2.919,-1.512c-0,-0 1.778,0.088 3.053,1.218Z" style="fill:#1b1b1b;fill-opacity:0.68;"/><path d="M84.355,107.782c2.468,-1.085 5.206,-1.105 5.206,-1.105c-0,-0 -2.196,0.146 -4.994,1.645c-2.489,1.334 -4.701,3.718 -4.701,3.718c-0,0 1.883,-3.111 4.489,-4.258Z" style="fill:#1b1b1b;fill-opacity:0.68;"/><path d="M99.009,100.829c2.181,-0.829 4.563,-0.874 4.563,-0.874c-0,0 -1.914,0.132 -4.396,1.272c-2.208,1.014 -4.208,2.802 -4.208,2.802c-0,-0 1.737,-2.324 4.041,-3.2Z" style="fill:#1b1b1b;fill-opacity:0.68;"/><path d="M86.216,101.088c1.65,1.304 2.81,3.38 2.81,3.38c-0,0 -1.004,-1.596 -3.026,-2.932c-1.8,-1.189 -4.077,-1.609 -4.077,-1.609c0,0 2.551,-0.217 4.293,1.161Z" style="fill:#1b1b1b;fill-opacity:0.68;"/><path d="M98.41,108.619c1.208,1.069 2.103,2.633 2.103,2.633c-0,0 -0.767,-1.213 -2.237,-2.34c-1.307,-1.003 -2.919,-1.512 -2.919,-1.512c-0,0 1.778,0.089 3.053,1.219Z" style="fill:#1b1b1b;fill-opacity:0.68;"/><path d="M92.681,105.008c0.259,0.025 0.512,0.085 0.736,0.183c0.742,0.323 0.89,0.933 0.33,1.362c-0.56,0.428 -1.617,0.513 -2.358,0.19c-0.498,-0.217 -0.729,-0.563 -0.657,-0.897c0.051,0.197 0.229,0.384 0.526,0.513c0.601,0.262 1.461,0.191 1.919,-0.159c0.457,-0.35 0.34,-0.847 -0.262,-1.11c-0.074,-0.032 -0.153,-0.059 -0.234,-0.082Z" style="fill:#1b1b1b;fill-opacity:0.68;"/><path d="M98.41,108.619c1.208,1.069 2.103,2.633 2.103,2.633c-0,0 -0.767,-1.213 -2.237,-2.34c-1.307,-1.003 -2.919,-1.512 -2.919,-1.512c-0,0 1.778,0.089 3.053,1.219Z" style="fill:#1b1b1b;fill-opacity:0.68;"/><path d="M116.053,126.509c2.468,-1.086 5.206,-1.106 5.206,-1.106c-0,0 -2.196,0.146 -4.994,1.646c-2.489,1.334 -4.701,3.718 -4.701,3.718c-0,-0 1.883,-3.112 4.489,-4.258Z" style="fill:#1b1b1b;fill-opacity:0.68;"/><path d="M130.707,119.556c2.181,-0.83 4.563,-0.874 4.563,-0.874c-0,-0 -1.914,0.131 -4.396,1.271c-2.208,1.014 -4.208,2.802 -4.208,2.802c0,0 1.737,-2.323 4.041,-3.199Z" style="fill:#1b1b1b;fill-opacity:0.68;"/><path d="M117.914,119.815c1.65,1.304 2.81,3.38 2.81,3.38c-0,-0 -1.004,-1.596 -3.026,-2.932c-1.8,-1.189 -4.077,-1.609 -4.077,-1.609c0,-0 2.551,-0.217 4.293,1.161Z" style="fill:#1b1b1b;fill-opacity:0.68;"/><path d="M130.108,127.345c1.208,1.07 2.103,2.634 2.103,2.634c-0,-0 -0.767,-1.213 -2.237,-2.34c-1.307,-1.003 -2.919,-1.512 -2.919,-1.512c-0,-0 1.778,0.088 3.053,1.218Z" style="fill:#1b1b1b;fill-opacity:0.68;"/><path d="M124.379,123.735c0.259,0.025 0.512,0.085 0.736,0.183c0.742,0.323 0.89,0.933 0.33,1.361c-0.56,0.429 -1.617,0.514 -2.358,0.191c-0.498,-0.217 -0.729,-0.564 -0.657,-0.897c0.051,0.197 0.229,0.383 0.526,0.512c0.601,0.262 1.461,0.191 1.919,-0.159c0.457,-0.35 0.34,-0.847 -0.262,-1.109c-0.074,-0.033 -0.153,-0.06 -0.234,-0.082Z" style="fill:#1b1b1b;fill-opacity:0.68;"/><path d="M130.108,127.345c1.208,1.07 2.103,2.634 2.103,2.634c-0,-0 -0.767,-1.213 -2.237,-2.34c-1.307,-1.003 -2.919,-1.512 -2.919,-1.512c-0,-0 1.778,0.088 3.053,1.218Z" style="fill:#1b1b1b;fill-opacity:0.68;"/><path d="M73.735,62.374c0.043,0.242 0.121,0.47 0.232,0.662c0.366,0.635 0.961,0.635 1.328,0c0.366,-0.635 0.366,-1.665 -0,-2.3c-0.246,-0.426 -0.596,-0.566 -0.909,-0.42c0.192,0.002 0.384,0.13 0.531,0.384c0.297,0.515 0.295,1.354 -0.004,1.872c-0.3,0.519 -0.784,0.522 -1.081,0.007c-0.037,-0.064 -0.07,-0.132 -0.097,-0.205Z" style="fill:#1b1b1b;fill-opacity:0.68;"/><path d="M103.707,71.231c0.006,2.08 0.861,4.274 0.861,4.274c0,-0 -0.714,-2.114 -0.514,-4.498c0.177,-2.12 1.335,-3.777 1.335,-3.777c-0,-0 -1.689,1.803 -1.682,4.001Z" style="fill:#1b1b1b;fill-opacity:0.68;"/><path d="M102.839,86.981c0.418,2.134 1.637,4.252 1.637,4.252c-0,0 -1.074,-2.057 -1.364,-4.535c-0.258,-2.204 0.474,-4.085 0.474,-4.085c0,0 -1.189,2.115 -0.747,4.368Z" style="fill:#1b1b1b;fill-opacity:0.68;"/><path d="M108.783,82.832c-1.078,-0.893 -1.86,-2.346 -1.86,-2.346c-0,-0 0.672,1.115 1.989,2.022c1.171,0.807 2.63,1.055 2.63,1.055c0,-0 -1.62,0.212 -2.759,-0.731Z" style="fill:#1b1b1b;fill-opacity:0.68;"/><path d="M98.238,77.584c-1.078,-0.893 -1.86,-2.347 -1.86,-2.347c-0,0 0.673,1.115 1.989,2.022c1.171,0.807 2.631,1.055 2.631,1.055c-0,0 -1.621,0.213 -2.76,-0.73Z" style="fill:#1b1b1b;fill-opacity:0.68;"/><path d="M103.554,79.59c0.044,0.242 0.121,0.47 0.232,0.662c0.366,0.635 0.961,0.635 1.328,0c0.366,-0.635 0.366,-1.665 -0,-2.3c-0.246,-0.426 -0.596,-0.566 -0.909,-0.42c0.192,0.002 0.384,0.13 0.531,0.384c0.297,0.515 0.295,1.354 -0.004,1.872c-0.3,0.519 -0.784,0.522 -1.081,0.007c-0.037,-0.064 -0.07,-0.132 -0.097,-0.205Z" style="fill:#1b1b1b;fill-opacity:0.68;"/><path d="M138.237,91.167c0.006,2.08 0.861,4.274 0.861,4.274c0,-0 -0.714,-2.114 -0.514,-4.497c0.177,-2.121 1.335,-3.778 1.335,-3.778c-0,-0 -1.689,1.803 -1.682,4.001Z" style="fill:#1b1b1b;fill-opacity:0.68;"/><path d="M137.369,106.917c0.419,2.134 1.637,4.252 1.637,4.252c0,0 -1.073,-2.057 -1.363,-4.535c-0.258,-2.204 0.474,-4.085 0.474,-4.085c-0,0 -1.19,2.115 -0.748,4.368Z" style="fill:#1b1b1b;fill-opacity:0.68;"/><path d="M143.313,102.768c-1.078,-0.893 -1.86,-2.346 -1.86,-2.346c-0,-0 0.673,1.115 1.989,2.022c1.171,0.807 2.631,1.055 2.631,1.055c-0,-0 -1.621,0.212 -2.76,-0.731Z" style="fill:#1b1b1b;fill-opacity:0.68;"/><path d="M132.768,97.52c-1.078,-0.893 -1.86,-2.347 -1.86,-2.347c0,0 0.673,1.115 1.989,2.022c1.171,0.807 2.631,1.056 2.631,1.056c-0,-0 -1.621,0.212 -2.76,-0.731Z" style="fill:#1b1b1b;fill-opacity:0.68;"/><path d="M138.084,99.526c0.044,0.242 0.121,0.47 0.232,0.662c0.366,0.635 0.961,0.635 1.328,0c0.366,-0.635 0.366,-1.665 -0,-2.3c-0.246,-0.426 -0.595,-0.566 -0.909,-0.42c0.193,0.002 0.385,0.13 0.531,0.384c0.297,0.515 0.296,1.354 -0.004,1.872c-0.299,0.519 -0.784,0.522 -1.081,0.007c-0.037,-0.063 -0.069,-0.132 -0.097,-0.205Z" style="fill:#1b1b1b;fill-opacity:0.68;"/></g><g><path d="M143.865,180.282c1.624,-0.052 5.138,-1.447 5.138,-1.447l35.881,-20.716c0,0 2.972,-1.679 3.792,-3.002c0.82,-1.324 1.126,-1.833 1.126,-4.938l-0,-19.259c-0,-5.613 -0.1,-9.921 -1.548,-12.804c-1.914,-3.812 -7.045,-5.854 -7.045,-5.854l-2.114,-1.221c-0,0 -25.53,14.74 -38.525,22.242c-4.586,2.648 -7.412,7.542 -7.412,12.838c0,11.222 0,29.499 0,29.499l6.104,3.524c-0,-0 3.006,1.188 4.603,1.138Z" style="fill:#911515;"/><g><path d="M189.802,128.835c-0.013,-4.079 -0.213,-7.969 -1.541,-10.723c-0,0 -19.792,11.427 -32.946,19.022c-7.085,4.09 -11.45,11.65 -11.45,19.831c0,10.46 0,23.317 0,23.317c1.6,-0.241 3.375,-0.817 5.194,-1.479l37.537,-21.672c-0,0 2.041,-1.464 2.575,-2.546c0.535,-1.082 0.631,-3.944 0.631,-3.944l-0,-21.806Z" style="fill:#e0e0e0;fill-opacity:0.05;"/><path d="M189.802,128.956c-0.067,-4.003 -0.344,-7.825 -1.579,-10.822c-0,0 -19.765,11.412 -32.908,19c-7.085,4.09 -11.45,11.65 -11.45,19.831c0,10.46 0,23.317 0,23.317c1.438,-0.149 3.208,-0.688 5.195,-1.479l34.85,-20.121c0,-0 4.057,-2.162 5.038,-3.728c0.982,-1.567 0.854,-5.672 0.854,-5.672l-0,-20.326Z" style="fill:#e0e0e0;fill-opacity:0.05;"/><path d="M143.865,152.302l-10.707,-6.181l0,29.499l5.984,3.455c1.588,0.677 3.164,1.093 4.723,1.207l0,-27.98Z" style="fill:#e0e0e0;fill-opacity:0.05;"/></g></g><path d="M133.159,145.997l-0.001,0.124c0,-1.117 3.177,-7.891 5.354,-9.692c9.013,-7.454 22.894,-15.175 28.322,-18.309l-26.264,15.163c-4.55,2.628 -7.367,7.466 -7.411,12.714Z" style="fill:#262626;fill-opacity:0.19;"/></g></svg>