<?xml version="1.0" encoding="UTF-8" standalone="no"?><!DOCTYPE svg PUBLIC "-//W3C//DTD SVG 1.1//EN" "http://www.w3.org/Graphics/SVG/1.1/DTD/svg11.dtd"><svg width="100%" height="100%" viewBox="0 0 200 200" version="1.1" xmlns="http://www.w3.org/2000/svg" xmlns:xlink="http://www.w3.org/1999/xlink" xml:space="preserve" xmlns:serif="http://www.serif.com/" style="fill-rule:evenodd;clip-rule:evenodd;stroke-linejoin:round;stroke-miterlimit:2;"><g><g><path d="M143.385,67.402c-2.172,-4.12 -7.143,-6.706 -7.143,-6.706l-29.454,-17.006c-0,0 -1.709,-1.065 -4.331,-1.117c-2.482,-0.049 -4.399,1.156 -4.399,1.156c-0,0 -5.71,2.291 -6.568,6.095c-0.355,1.572 -0.598,4.791 -0.598,4.791l0.042,28.829l-29.466,17.012c-0,-0 -1.859,0.461 -4.564,3.517c-1.915,2.164 -1.379,11.553 -3.632,18.587c-1.35,4.216 -3.18,6.099 -3.18,6.099c-0.339,1.619 1.499,6.319 4.688,6.701c2.729,0.327 4.857,0.37 8.403,1.849c2.456,1.024 2.252,4.467 3.183,6.721c0.677,1.642 2.478,2.908 4.032,3.568c9.65,4.102 12.361,-1.27 18.094,4.764c2.351,2.475 2.927,4.846 8.864,5.13c16.704,0.799 15.768,-11.82 19.179,-11.072c6.753,1.479 12.929,0.426 19.744,-3.077c4.298,-2.21 0.795,-5.251 3.42,-7.954c3.373,-3.472 7.851,0.545 10.249,-8.693c-0,-0 -3.054,-9.494 -3.335,-14.493c-0.472,-8.405 -1.138,-35.01 -1.138,-35.01c0,-0 0.267,-5.218 -2.09,-9.691Z" style="fill:#24494e;"/><path d="M85.569,106.782c2.58,-1.135 5.443,-1.156 5.443,-1.156c0,0 -2.296,0.153 -5.222,1.721c-2.603,1.395 -4.916,3.888 -4.916,3.888c-0,0 1.969,-3.254 4.695,-4.453Z" style="fill:#1b1b1b;fill-opacity:0.68;"/><path d="M100.893,99.511c2.281,-0.867 4.771,-0.914 4.771,-0.914c0,0 -2.001,0.138 -4.596,1.33c-2.309,1.06 -4.401,2.93 -4.401,2.93c0,0 1.817,-2.429 4.226,-3.346Z" style="fill:#1b1b1b;fill-opacity:0.68;"/><path d="M87.515,99.782c1.725,1.364 2.938,3.534 2.938,3.534c-0,0 -1.05,-1.668 -3.165,-3.066c-1.882,-1.243 -4.263,-1.682 -4.263,-1.682c0,-0 2.668,-0.227 4.49,1.214Z" style="fill:#1b1b1b;fill-opacity:0.68;"/><path d="M100.267,107.657c1.262,1.119 2.198,2.754 2.198,2.754c0,0 -0.801,-1.268 -2.338,-2.447c-1.368,-1.049 -3.053,-1.581 -3.053,-1.581c-0,-0 1.859,0.092 3.193,1.274Z" style="fill:#1b1b1b;fill-opacity:0.68;"/><path d="M94.275,103.881c0.271,0.026 0.536,0.09 0.77,0.192c0.776,0.338 0.931,0.976 0.345,1.424c-0.585,0.448 -1.69,0.537 -2.466,0.199c-0.521,-0.227 -0.762,-0.589 -0.687,-0.938c0.053,0.206 0.24,0.401 0.55,0.536c0.629,0.274 1.528,0.199 2.007,-0.167c0.478,-0.366 0.356,-0.885 -0.273,-1.16c-0.079,-0.034 -0.161,-0.062 -0.246,-0.086Z" style="fill:#1b1b1b;fill-opacity:0.68;"/><path d="M100.267,107.657c1.262,1.119 2.198,2.754 2.198,2.754c0,0 -0.801,-1.268 -2.338,-2.447c-1.368,-1.049 -3.053,-1.581 -3.053,-1.581c-0,-0 1.859,0.092 3.193,1.274Z" style="fill:#1b1b1b;fill-opacity:0.68;"/><path d="M108.767,69.823c0.007,2.175 0.901,4.47 0.901,4.47c0,-0 -0.746,-2.21 -0.538,-4.703c0.186,-2.218 1.396,-3.951 1.396,-3.951c0,0 -1.766,1.886 -1.759,4.184Z" style="fill:#1b1b1b;fill-opacity:0.68;"/><path d="M107.86,86.295c0.437,2.231 1.712,4.446 1.712,4.446c-0,0 -1.123,-2.152 -1.426,-4.742c-0.27,-2.305 0.496,-4.272 0.496,-4.272c-0,-0 -1.244,2.211 -0.782,4.568Z" style="fill:#1b1b1b;fill-opacity:0.68;"/><path d="M114.076,81.955c-1.127,-0.933 -1.945,-2.453 -1.945,-2.453c-0,-0 0.703,1.166 2.08,2.114c1.224,0.844 2.751,1.104 2.751,1.104c-0,-0 -1.695,0.221 -2.886,-0.765Z" style="fill:#1b1b1b;fill-opacity:0.68;"/><path d="M103.049,76.467c-1.128,-0.934 -1.946,-2.454 -1.946,-2.454c0,0 0.704,1.166 2.08,2.115c1.225,0.844 2.751,1.103 2.751,1.103c0,0 -1.695,0.222 -2.885,-0.764Z" style="fill:#1b1b1b;fill-opacity:0.68;"/><path d="M108.607,78.565c0.046,0.253 0.127,0.492 0.243,0.692c0.383,0.664 1.006,0.664 1.389,0c0.383,-0.663 0.383,-1.741 -0,-2.405c-0.258,-0.446 -0.623,-0.592 -0.951,-0.439c0.202,0.002 0.402,0.136 0.556,0.401c0.31,0.539 0.309,1.416 -0.005,1.959c-0.313,0.542 -0.819,0.545 -1.13,0.007c-0.039,-0.067 -0.073,-0.139 -0.102,-0.215Z" style="fill:#1b1b1b;fill-opacity:0.68;"/><path d="M85.569,106.782c2.58,-1.135 5.443,-1.156 5.443,-1.156c0,0 -2.296,0.153 -5.222,1.721c-2.603,1.395 -4.916,3.888 -4.916,3.888c-0,0 1.969,-3.254 4.695,-4.453Z" style="fill:#1b1b1b;fill-opacity:0.68;"/><path d="M100.893,99.511c2.281,-0.867 4.771,-0.914 4.771,-0.914c0,0 -2.001,0.138 -4.596,1.33c-2.309,1.06 -4.401,2.93 -4.401,2.93c0,0 1.817,-2.429 4.226,-3.346Z" style="fill:#1b1b1b;fill-opacity:0.68;"/><path d="M87.515,99.782c1.725,1.364 2.938,3.534 2.938,3.534c-0,0 -1.05,-1.668 -3.165,-3.066c-1.882,-1.243 -4.263,-1.682 -4.263,-1.682c0,-0 2.668,-0.227 4.49,1.214Z" style="fill:#1b1b1b;fill-opacity:0.68;"/><path d="M100.267,107.657c1.262,1.119 2.198,2.754 2.198,2.754c0,0 -0.801,-1.268 -2.338,-2.447c-1.368,-1.049 -3.053,-1.581 -3.053,-1.581c-0,-0 1.859,0.092 3.193,1.274Z" style="fill:#1b1b1b;fill-opacity:0.68;"/><path d="M94.275,103.881c0.271,0.026 0.536,0.09 0.77,0.192c0.776,0.338 0.931,0.976 0.345,1.424c-0.585,0.448 -1.69,0.537 -2.466,0.199c-0.521,-0.227 -0.762,-0.589 -0.687,-0.938c0.053,0.206 0.24,0.401 0.55,0.536c0.629,0.274 1.528,0.199 2.007,-0.167c0.478,-0.366 0.356,-0.885 -0.273,-1.16c-0.079,-0.034 -0.161,-0.062 -0.246,-0.086Z" style="fill:#1b1b1b;fill-opacity:0.68;"/><path d="M100.267,107.657c1.262,1.119 2.198,2.754 2.198,2.754c0,0 -0.801,-1.268 -2.338,-2.447c-1.368,-1.049 -3.053,-1.581 -3.053,-1.581c-0,-0 1.859,0.092 3.193,1.274Z" style="fill:#1b1b1b;fill-opacity:0.68;"/><path d="M108.767,69.823c0.007,2.175 0.901,4.47 0.901,4.47c0,-0 -0.746,-2.21 -0.538,-4.703c0.186,-2.218 1.396,-3.951 1.396,-3.951c0,0 -1.766,1.886 -1.759,4.184Z" style="fill:#1b1b1b;fill-opacity:0.68;"/><path d="M107.86,86.295c0.437,2.231 1.712,4.446 1.712,4.446c-0,0 -1.123,-2.152 -1.426,-4.742c-0.27,-2.305 0.496,-4.272 0.496,-4.272c-0,-0 -1.244,2.211 -0.782,4.568Z" style="fill:#1b1b1b;fill-opacity:0.68;"/><path d="M114.076,81.955c-1.127,-0.933 -1.945,-2.453 -1.945,-2.453c-0,-0 0.703,1.166 2.08,2.114c1.224,0.844 2.751,1.104 2.751,1.104c-0,-0 -1.695,0.221 -2.886,-0.765Z" style="fill:#1b1b1b;fill-opacity:0.68;"/><path d="M103.049,76.467c-1.128,-0.934 -1.946,-2.454 -1.946,-2.454c0,0 0.704,1.166 2.08,2.115c1.225,0.844 2.751,1.103 2.751,1.103c0,0 -1.695,0.222 -2.885,-0.764Z" style="fill:#1b1b1b;fill-opacity:0.68;"/><path d="M108.607,78.565c0.046,0.253 0.127,0.492 0.243,0.692c0.383,0.664 1.006,0.664 1.389,0c0.383,-0.663 0.383,-1.741 -0,-2.405c-0.258,-0.446 -0.623,-0.592 -0.951,-0.439c0.202,0.002 0.402,0.136 0.556,0.401c0.31,0.539 0.309,1.416 -0.005,1.959c-0.313,0.542 -0.819,0.545 -1.13,0.007c-0.039,-0.067 -0.073,-0.139 -0.102,-0.215Z" style="fill:#1b1b1b;fill-opacity:0.68;"/><g><path d="M131.214,72.291c-1.071,-1.1 -3.126,-2.404 -3.126,-2.404l-32.75,-18.728c-0,-0 -1.545,-1.275 -2.926,-0.459c-1.476,0.872 -1.398,3.66 -1.52,6.115l0,26.739l42.523,24.551l-0,-32.484c-0,0 -0.843,-1.935 -2.201,-3.33Z" style="fill:#d1d1d1;fill-opacity:0.08;"/></g></g></g><path d="M144.536,133.197c-6.47,0.568 -6.776,-7.471 -9.686,-16.029c0.737,4.798 2.221,15.047 3.707,19.759c0.821,-2.493 3.409,-3.394 5.979,-3.73Z" style="fill:#9c9c9c;fill-opacity:0.2;"/><path d="M123.671,146.87c-4.014,-2.432 -7.127,-15.871 -7.281,-23.265c0.696,15.219 1.647,19.463 0.223,22.666c0.895,0.11 1.827,0.41 2.712,0.485c1.176,0.1 4.346,0.114 4.346,0.114Z" style="fill:#9c9c9c;fill-opacity:0.2;"/><path d="M64.901,138.752c2.47,2.272 4.999,-6.2 6.185,-18.727c-0.607,16.571 -2.215,24.384 -0.52,27.493c-1.854,-0.761 -3.235,-1.804 -3.926,-3.09c-0.951,-1.768 -0.487,-2.42 -1.739,-5.676Z" style="fill:#9c9c9c;fill-opacity:0.2;"/><path d="M51.821,133.441c6.47,0.567 9.611,-10.237 13.08,-18.577c-3.345,13.847 -2.982,16.68 -4.467,21.392c-0.801,-0.399 -4.19,-0.764 -6.393,-1.103c-0.754,-0.116 -1.911,-1.318 -2.22,-1.712Z" style="fill:#9c9c9c;fill-opacity:0.2;"/><path d="M83.021,149.146c6.47,0.568 9.684,-10.53 13.153,-18.87c-3.346,13.847 -3.184,20.119 1.333,27.026c-2.516,0.01 -4.201,-0.553 -5.493,-1.392c-3.188,-2.07 -2.838,-5.641 -8.993,-6.764Z" style="fill:#9c9c9c;fill-opacity:0.2;"/><path d="M114.838,147.296c-6.469,0.567 -5.956,-9.013 -9.425,-17.354c3.346,13.848 3.315,23.588 -1.635,26.915c7.18,-1.468 9.77,-7.569 11.06,-9.561Z" style="fill:#9c9c9c;fill-opacity:0.2;"/></svg>