<svg xmlns="http://www.w3.org/2000/svg" width="67.435" height="139.315" viewBox="0 0 67.435 139.315"><g transform="translate(0 0) scale(1,1)"><ellipse cx="10.5" cy="5.5" rx="10.5" ry="5.5" transform="translate(26.306 117.65)" fill="#f1f1f1"/><path d="M37.358-52.786Q36.284-22.558,35.211,7.672a7.679,7.679,0,0,1-6.855-.2,7.671,7.671,0,0,1-3.675-5.694q-.142-5.593-.189-11.37-.057-7.3.055-14.595c.086-6.207.154-15.511.064-28.886l12.747.286" transform="translate(11.078 116.405)" fill="#662c91"/><ellipse cx="10.5" cy="5.5" rx="10.5" ry="5.5" transform="matrix(0.921, -0.391, 0.391, 0.921, 35.991, 129.19)" fill="#f1f1f1"/><path d="M44.678-21.1c-.745,13.209-.89,24.092-.889,31.47a5.9,5.9,0,0,1-11.207,1.47Q32.2-4.51,31.683-21.1q-.5-15.885-1.121-31.545c6.855-4.707,10.282-4.483,12.125-3.491,5.028,2.709,3.191,13.781,1.992,35.036" transform="translate(13.833 114.757)" fill="#662c91"/><path id="M43.372-57.112,39.858-67.563c-2.254-4.561-3.1-8.543-1.874-9.415,1.278-.911,5.08,1.393,9.059,5.842,1.107,2.5,1.87,4.637,2.375,6.175,1.2,3.659,1.9,5.851,1.769,8.688a16.712,16.712,0,0,1-.912,4.569c-5.568,17.751-6.028,17.674-6.117,20.411-.121,3.7.645,6.21-1.14,7.853a4.481,4.481,0,0,1-4.672.845,4.513,4.513,0,0,1-2.48-3.9c-.078-2.208,1.687-3.033,3.167-6.11.786-1.633.925-2.722,1.464-5.912,1.088-6.455,1.012-9.131,2.286-15.762.234-1.219.449-2.209.588-2.837" transform="translate(16.233 105.496)" fill="#c6b199"/><path d="M42.807-68.681a71.085,71.085,0,0,0-5.1,8.614c-1.938,3.88-2.683,6.293-5.277,7.8a9.99,9.99,0,0,1-4.881,1.14c-3.838.2-8.807.389-14.73.442a18.281,18.281,0,0,1-3.052,1.952A12.557,12.557,0,0,1,8-48.029c-.758.244-1.734.556-1.915.273-.128-.2.2-.622.327-.782a3.142,3.142,0,0,1,1.578-1.05,9.927,9.927,0,0,0-2.077,1c-1.595.981-2.064,1.752-2.666,1.579-.272-.076-.612-.356-.85-1.306a13.974,13.974,0,0,1,2.544-1.692,14.209,14.209,0,0,1,2.144-.9c-.678.253-1.4.548-2.144.9a28.111,28.111,0,0,0-2.795,1.5,1.114,1.114,0,0,1-.519-.1,1.2,1.2,0,0,1-.594-.667,12.06,12.06,0,0,1,2.619-1.912,12,12,0,0,1,2.087-.886,15.341,15.341,0,0,0-1.82.736A15.115,15.115,0,0,0,.755-49.28a.745.745,0,0,1-.293-.1C-.03-49.669,0-50.5,0-50.673c.031-.96,2.1-2.063,4.971-2.847-.263-.06-.689-.148-1.219-.215-1.316-.169-1.784-.025-2.429-.35C.843-54.327.2-54.864.287-55.232s1.007-.748,4.919-.546a16.057,16.057,0,0,1,3.5-.273,16.112,16.112,0,0,1,3.456.488l15.257-3.5q3.757-7.862,7.514-15.723c5.426-5.337,10.513-8.05,12.01-6.827s-.137,6.67-4.136,12.93" transform="translate(0 103.357)" fill="#c6b199"/><path d="M48.233-56.756c.214,1.121.561,2.939.722,4.621A29.309,29.309,0,0,1,47.2-39.472a31.275,31.275,0,0,1-13.661,1.734A31.072,31.072,0,0,1,23.2-40.617q.706-8.165,1.851-16.837.569-4.273,1.217-8.395a12.612,12.612,0,0,1-2.507-2.706,12.672,12.672,0,0,1-1.531-3.058,18.218,18.218,0,0,1,5.245-6.665,16.013,16.013,0,0,1,7.976-3.5,15.374,15.374,0,0,1,9.6,1.883,15.869,15.869,0,0,1,4.269,3.8A20.874,20.874,0,0,1,53.214-69l-7.185,3.571a73.876,73.876,0,0,1,2.2,8.669" transform="translate(10.062 103.357)" fill="#f1f1f1"/><path d="M41.843-86.621a9.729,9.729,0,0,1-3.485,7.331q.24,2.464.478,4.929c-1.442,3.451-4.91,4.5-6.62,3.449-1.328-.815-1.932-3.1-1.227-5.42-.019-.318-.038-.638-.055-.956l-1.351-.43c-.439-.4-4.16-3.895-3.591-8.9.434-3.81,3.357-8.565,7.926-8.57,4.432-.006,7.789,4.412,7.926,8.57" transform="translate(11.738 97.341)" fill="#c6b199"/><path d="M42.231-85.951c-.076,1.573-.193,3.447-1.6,4.5a3.726,3.726,0,0,1-1.923.694c-.07-.408-.138-.816-.208-1.225a3.451,3.451,0,0,0,1.486-1.06,2.837,2.837,0,0,0,.662-2.462c-.166-.526-.642-1.28-1.278-1.28s-1.087.784-1.232,1.043a2.659,2.659,0,0,0-.331,1.278l-.883-.44c-.138-2.095-.771-2.876-1.336-3.2-.6-.344-1.042-.121-2.061-.67-.9-.484-.921-.854-1.559-.962-.735-.122-.9.336-1.915.321-.831-.013-.879-.325-1.528-.247a2.877,2.877,0,0,0-1.73,1.047c-.553.649-.648,1.273-.736,1.249-.137-.035.295-1.4.366-3.119.087-2.115-.424-3.433.1-3.706.394-.206.818.471,1.413.282.809-.254.6-1.678,1.344-1.98.937-.381,2.27,1.472,2.82,1.117.436-.28-.215-1.569.2-1.856.485-.34,1.64,1.272,3.793,2.243,2.114.954,2.666.153,3.938.972,2.484,1.6,2.278,5.88,2.2,7.459" transform="translate(11.783 96.671)" fill="#736256"/></g></svg>
