<svg xmlns="http://www.w3.org/2000/svg" width="30.133" height="139.441" viewBox="0 0 30.133 139.441"><g  transform="translate(0,0) scale(1,1)"><path d="M15.336-2.189c2.627-1.225,6.126-4.115,5.447-6.447-.614-2.109-4.335-2.691-6.137-2.716-.361,0-5.325.008-7.737,3.883C6.618-7,4.928-4.287,6-2.487c1.339,2.253,6.215,1.755,9.337.3" transform="translate(-1.178 133.071)" fill="#662c91"/><path d="M20.587,2.9c3.441-.9,7.571-3.4,7.283-5.623-.123-.944-1.013-1.58-1.809-2.148A8.11,8.11,0,0,0,20.727-6.16,11.389,11.389,0,0,0,13.6-2.822c-.628.748-2.385,3-1.677,4.627.971,2.231,5.943,1.812,8.666,1.1" transform="translate(2.25 135.968)" fill="#662c91"/><path d="M6.96.412c-.05.112-1.213,2.846.009,4.224,1.461,1.649,5.7.648,6.593-1.748a3.762,3.762,0,0,0-.27-2.827l-.984-2.07c.042-3.2.223-6.68.617-10.406.389-3.676.93-7.08,1.546-10.18L5.556-25.4a81.538,81.538,0,0,1,1.738,13A81.4,81.4,0,0,1,6.96.412" transform="translate(-1.229 125.19)" fill="#c6b199"/><path d="M13.242,19.888c-.164.556-.653,2.42.261,3.369,1.319,1.368,5.169.426,6.252-2a4.468,4.468,0,0,0-.108-3.43A95.021,95.021,0,0,1,19.93-4.952c1.1-8.1,2.648-11.363,3.118-18.332A58.335,58.335,0,0,0,20.262-45.1l-7.842.56c1.03,13.082,1.11,23.383.974,30.547-.08,4.11-.272,9.442-.3,18.067-.022,6.664.066,12.144.145,15.816" transform="translate(2.623 114.134)" fill="#c6b199"/><path d="M9.245-50.294Q7.965-62.941,6.685-75.587L4.754-73.221Q3.209-37.262,5.3-37.049q1.286.131,3.945-13.245" transform="translate(-2.047 97.027)" fill="#c6b199"/><path d="M7.129-84.013c-1.908,3.519-1.072,8.237,2.2,11.446q-.143,1.55-.286,3.1a4.64,4.64,0,0,0,1.205,1.514c1.816,1.475,4.744,1.417,7.537.042l-.422-4.062a3.558,3.558,0,0,0,2.862-1.141c.723-.938.262-1.9,1.305-3.452a2.41,2.41,0,0,0,.564-1.065c.109-.756-.381-1.213-.692-2.033a5.356,5.356,0,0,1-.167-2.51c.055-2.122-2.392-5.681-5.893-6.357-3.591-.693-6.819,1.936-8.218,4.515" transform="translate(-0.912 89.703)" fill="#c6b199"/><path d="M3.419,3.718c5.539,6.718,9.223,7.618,11.559,7.2,2.278-.4,3.141-2.031,6.3-3.463A18.618,18.618,0,0,1,31.669,6.2a88.163,88.163,0,0,0-.208-17.521C29.8-25.933,23.12-51.3,26.025-57.641a12.307,12.307,0,0,0,.816-2.348,12.186,12.186,0,0,0-.584-7.888c-.873-1.887-2.109-3.046-3.918-4.738A25.231,25.231,0,0,0,19.66-74.8c-2.793,1.375-5.72,1.433-7.536-.044a4.633,4.633,0,0,1-1.207-1.513,6.13,6.13,0,0,0-3.5,1.2c-.915.717-2.467,2.438-2.357,8.068.064,3.282.723,9.445,4.918,17.225A121.059,121.059,0,0,0,4.51-29.116,121.644,121.644,0,0,0,3.419,3.718" transform="translate(-2.784 96.595)"/><path d="M21.862-45.659c-2.957-15.465-.423-25.5-3.734-26.467-1.455-.428-3.06,1.18-3.242,1.364-2.162,2.189-1.272,6.076-.626,9.944,1.533,9.181-.158,7.166,1.393,15.716,1.936,10.677,6.262,24.667,8.675,24.319,1.14-.165,1.663-3.506,1.742-5.241a14.674,14.674,0,0,0-1.51-6.8c-.44-1.035-1.193-4.969-2.7-12.839" transform="translate(3.239 98.929)" fill="#c6b199"/><path d="M6.707-73.839c.265,4.4-1.61,5.5-1.105,8.155.746,3.943,5.828,6.636,7.183,5.786.715-.448.136-2,1.3-2.924.816-.645,1.549-.229,2.431-.77.642-.392,1.363-1.286,1.519-3.57a4.867,4.867,0,0,1,.4,1.236,7.488,7.488,0,0,1,.078,1.221,12.58,12.58,0,0,0,.607-5.348,13.85,13.85,0,0,0-1.547-5.309,2,2,0,0,1-2.026-.831,1.879,1.879,0,0,1,.831-2.66,1.827,1.827,0,0,1,1.8,1A3.094,3.094,0,0,1,18.7-80.28c1-1.14,2.685-.411,3.28-1.191.895-1.179-1-5.384-4.429-7.045-3.976-1.926-9.54-.19-11.249,3.079-.941,1.8-.676,3.992-.209,7.832.281,2.314.521,2.193.617,3.767" transform="translate(-1.252 89.321)" fill="#998575"/></g>
</svg>
