<svg width="100%" height="100%" viewBox="0 0 200 200" version="1.1" xmlns="http://www.w3.org/2000/svg" xmlns:xlink="http://www.w3.org/1999/xlink" xml:space="preserve" xmlns:serif="http://www.serif.com/" style="fill-rule:evenodd;clip-rule:evenodd;stroke-linejoin:round;stroke-miterlimit:2;"><g><path d="M89.268,167.862c3.367,-1.169 9.521,-1.816 11.747,1.735c1.101,1.753 1.105,4.315 -0,6.111c-1.934,3.148 -6.7,3.008 -11.586,2.867c-3.998,-0.118 -7.703,-0.226 -8.425,-2.075c-0.941,-2.406 3.473,-6.971 8.264,-8.638" style="fill:#9a9a9a;fill-rule:nonzero;"/><path d="M105.81,177.133c0.575,-0.428 2.493,-1.853 4.797,-1.508c3.374,0.505 5.833,4.545 5.914,7.769c0.172,6.794 -10.159,12.898 -13.743,10.732c-3.443,-2.079 -2.483,-12.893 3.032,-16.993" style="fill:#9a9a9a;fill-rule:nonzero;"/></g><path d="M104.725,95.582c-0.955,26.856 -1.907,53.714 -2.861,80.571c-0.364,0.178 -4.736,2.234 -9.136,-0.268c-4.334,-2.462 -4.857,-7.162 -4.897,-7.588c-0.126,-4.97 -0.213,-10.022 -0.252,-15.152c-0.05,-6.483 -0.018,-12.966 0.073,-19.45c0.115,-8.272 0.206,-20.671 0.086,-38.494c5.662,0.128 11.324,0.255 16.987,0.381" style="fill:#662d91;fill-rule:nonzero;"/><g opacity="0.2"><path d="M104.725,95.582c-0.955,26.856 -1.907,53.714 -2.861,80.571c-0.364,0.178 -4.736,2.234 -9.136,-0.268c-4.334,-2.462 -4.857,-7.162 -4.897,-7.588c-0.126,-4.97 -0.213,-10.022 -0.252,-15.152c-0.05,-6.483 -0.018,-12.966 0.073,-19.45c0.115,-8.272 0.206,-20.671 0.086,-38.494c5.662,0.128 11.324,0.255 16.987,0.381" style="fill-rule:nonzero;"/></g><path d="M118.151,135.615c-0.993,17.603 -1.187,32.106 -1.185,41.939c-0.73,3.743 -3.881,6.471 -7.474,6.61c-3.109,0.12 -6.061,-1.717 -7.461,-4.651c-0.335,-14.529 -0.734,-29.162 -1.198,-43.898c-0.443,-14.112 -0.943,-28.124 -1.495,-42.039c9.136,-6.272 13.702,-5.974 16.159,-4.652c6.7,3.611 4.253,18.366 2.654,46.691" style="fill:#662d91;fill-rule:nonzero;"/><path d="M119.609,75.279c-1.561,-4.642 -3.123,-9.286 -4.683,-13.928c-3.005,-6.079 -4.128,-11.385 -2.498,-12.546c1.704,-1.214 6.77,1.856 12.072,7.786c1.476,3.335 2.492,6.179 3.166,8.229c1.601,4.876 2.532,7.798 2.357,11.578c-0.116,2.544 -0.683,4.397 -1.215,6.089c-7.42,23.656 -8.034,23.553 -8.152,27.2c-0.161,4.927 0.859,8.276 -1.52,10.465c-1.467,1.352 -4.053,2.103 -6.226,1.127c-2.098,-0.943 -3.236,-3.237 -3.304,-5.192c-0.105,-2.942 2.248,-4.042 4.22,-8.142c1.047,-2.176 1.233,-3.628 1.952,-7.879c1.449,-8.603 1.349,-12.169 3.047,-21.006c0.311,-1.624 0.598,-2.944 0.784,-3.781" style="fill:#c7b299;fill-rule:nonzero;"/><path d="M97.223,57.011c-3.161,4.582 -5.345,8.562 -6.802,11.479c-2.583,5.171 -3.576,8.386 -7.033,10.392c-2.192,1.27 -4.248,1.4 -6.505,1.52c-5.114,0.265 -11.737,0.518 -19.629,0.588c-1.609,1.262 -3.036,2.081 -4.068,2.602c-0.106,0.056 -1.035,0.521 -2.342,0.941c-1.01,0.325 -2.311,0.741 -2.551,0.364c-0.171,-0.267 0.269,-0.829 0.435,-1.042c0.834,-1.065 2.093,-1.419 2.102,-1.399c0.008,0.015 -1.103,0.305 -2.768,1.329c-2.125,1.307 -2.751,2.335 -3.552,2.105c-0.362,-0.101 -0.815,-0.475 -1.133,-1.741c0.856,-0.716 1.981,-1.525 3.39,-2.255c1.034,-0.536 2.008,-0.917 2.857,-1.194c-0.904,0.337 -1.862,0.73 -2.857,1.194c-1.39,0.647 -2.631,1.33 -3.724,1.998c-0.153,0.006 -0.413,-0.006 -0.692,-0.138c-0.544,-0.255 -0.747,-0.766 -0.791,-0.888c0.815,-0.782 1.966,-1.725 3.49,-2.548c1.012,-0.547 1.963,-0.921 2.782,-1.181c-0.751,0.25 -1.57,0.57 -2.426,0.982c-1.769,0.856 -3.169,1.856 -4.224,2.747c-0.102,-0.012 -0.246,-0.043 -0.391,-0.128c-0.654,-0.391 -0.619,-1.502 -0.612,-1.729c0.041,-1.279 2.8,-2.748 6.625,-3.794c-0.35,-0.079 -0.918,-0.197 -1.624,-0.286c-1.754,-0.225 -2.378,-0.033 -3.237,-0.467c-0.643,-0.323 -1.5,-1.037 -1.384,-1.529c0.12,-0.511 1.341,-0.997 6.555,-0.728c1.233,-0.234 2.82,-0.422 4.663,-0.364c1.831,0.058 3.394,0.343 4.606,0.65c6.777,-1.552 13.554,-3.107 20.332,-4.659c3.337,-6.985 6.675,-13.969 10.014,-20.954c7.23,-7.112 14.01,-10.728 16.006,-9.098c1.984,1.622 -0.182,8.889 -5.512,17.231" style="fill:#c7b299;fill-rule:nonzero;"/><path d="M117.863,72.903c0.284,1.495 0.747,3.916 0.962,6.158c0.335,3.492 0.331,9.302 -2.333,16.875c-3.575,1.295 -10.078,3.105 -18.205,2.311c-6.003,-0.584 -10.724,-2.379 -13.785,-3.837c0.627,-7.253 1.438,-14.739 2.466,-22.438c0.506,-3.796 1.048,-7.527 1.623,-11.187c-0.947,-0.761 -2.196,-1.932 -3.342,-3.607c-1.047,-1.531 -1.667,-2.981 -2.04,-4.075c0.939,-2.029 2.979,-5.728 6.99,-8.882c1.547,-1.217 5.148,-3.947 10.63,-4.659c1.736,-0.225 7.306,-0.722 12.8,2.509c2.789,1.639 4.458,3.595 5.689,5.062c2.993,3.566 4.451,7.159 5.183,9.459c-3.193,1.585 -6.383,3.172 -9.575,4.758c0.871,2.722 2.005,6.675 2.937,11.553" style="fill:#f2f2f2;fill-rule:nonzero;"/><path d="M111.582,25.086c0.183,5.577 -4.027,9.248 -4.645,9.77c0.213,2.19 0.424,4.379 0.637,6.569c-1.922,4.599 -6.543,5.997 -8.821,4.595c-1.77,-1.086 -2.575,-4.127 -1.636,-7.222c-0.025,-0.424 -0.051,-0.85 -0.074,-1.274l-1.8,-0.573c-0.585,-0.532 -5.544,-5.19 -4.786,-11.865c0.579,-5.078 4.474,-11.414 10.563,-11.422c5.906,-0.007 10.38,5.88 10.562,11.422" style="fill:#c7b299;fill-rule:nonzero;"/><path d="M112.158,25.086c-0.1,2.097 -0.257,4.594 -2.131,5.995c-0.898,0.674 -1.893,0.868 -2.563,0.926c-0.093,-0.544 -0.184,-1.088 -0.277,-1.632c0.441,-0.165 1.291,-0.554 1.98,-1.413c0.215,-0.271 1.375,-1.716 0.883,-3.282c-0.221,-0.7 -0.856,-1.705 -1.703,-1.705c-0.866,0.002 -1.448,1.045 -1.642,1.39c-0.381,0.679 -0.438,1.334 -0.441,1.703c-0.393,-0.195 -0.784,-0.391 -1.177,-0.586c-0.184,-2.792 -1.028,-3.833 -1.781,-4.263c-0.802,-0.459 -1.388,-0.161 -2.747,-0.892c-1.201,-0.645 -1.228,-1.139 -2.078,-1.282c-0.979,-0.163 -1.204,0.447 -2.551,0.428c-1.107,-0.018 -1.171,-0.434 -2.037,-0.329c-1.244,0.153 -2.086,1.14 -2.305,1.396c-0.738,0.865 -0.864,1.695 -0.982,1.664c-0.182,-0.046 0.393,-1.864 0.488,-4.156c0.116,-2.819 -0.565,-4.574 0.132,-4.938c0.524,-0.275 1.09,0.627 1.883,0.375c1.079,-0.338 0.8,-2.236 1.791,-2.638c1.249,-0.507 3.026,1.961 3.758,1.488c0.58,-0.373 -0.287,-2.09 0.263,-2.474c0.646,-0.453 2.185,1.696 5.054,2.989c2.817,1.272 3.553,0.204 5.248,1.295c3.311,2.132 3.036,7.837 2.935,9.941" style="fill:#736357;fill-rule:nonzero;"/></svg>
