<?xml version="1.0" encoding="UTF-8" standalone="no"?><!DOCTYPE svg PUBLIC "-//W3C//DTD SVG 1.1//EN" "http://www.w3.org/Graphics/SVG/1.1/DTD/svg11.dtd"><svg width="100%" height="100%" viewBox="0 0 100 100" version="1.1" xmlns="http://www.w3.org/2000/svg" xmlns:xlink="http://www.w3.org/1999/xlink" xml:space="preserve" xmlns:serif="http://www.serif.com/" style="fill-rule:evenodd;clip-rule:evenodd;stroke-linejoin:round;stroke-miterlimit:2;"><path d="M53.929,91.921c-0.96,-0.465 -3.466,-1.68 -3.323,-3.015c0.139,-1.294 2.704,-2.109 4.453,-2.229c3.779,-0.258 6.646,2.533 7.505,3.437c0.084,1.1 -0.216,1.731 -0.493,2.096c-1.469,1.932 -5.728,0.881 -8.142,-0.289" style="fill:#2d7f91;fill-rule:nonzero;"/><path d="M47.473,93.995c-0.96,-0.466 -3.467,-1.681 -3.323,-3.015c0.139,-1.294 2.704,-2.109 4.453,-2.229c3.779,-0.258 6.646,2.533 7.504,3.437c0.085,1.1 -0.215,1.731 -0.492,2.096c-1.469,1.932 -5.728,0.881 -8.142,-0.289" style="fill:#2d7f91;fill-rule:nonzero;"/><path d="M60.303,47.096c0.726,5.928 1.325,12.188 1.74,18.758c0.491,7.75 0.675,15.114 0.636,22.041c-0.046,0.243 -0.42,2.017 -2.158,2.971c-1.666,0.915 -3.289,0.362 -3.535,0.274c-1.466,-6.143 -2.791,-13.057 -3.734,-20.656c-0.944,-7.612 -1.347,-14.651 -1.426,-20.974c2.826,-0.805 5.652,-1.61 8.477,-2.414" style="fill-rule:nonzero;"/><path d="M52.65,49.275c2.551,-0.726 5.102,-1.453 7.653,-2.179c0.726,5.928 1.325,12.188 1.74,18.758c0.491,7.75 0.675,15.114 0.636,22.041c-0.046,0.243 -0.42,2.017 -2.158,2.971c-1.666,0.915 -3.289,0.362 -3.535,0.274c-1.466,-6.143 -2.791,-13.057 -3.734,-20.656c-0.189,-1.518 -0.356,-3.014 -0.503,-4.487c-0.192,1.215 -0.345,1.936 -0.467,2.292c-0.045,0.131 -0.252,0.695 -0.286,1.469c-0.061,1.368 0.46,2.404 0.567,2.633c0.535,1.153 1.757,6.04 4.453,19.595c-0.308,0.366 -1.655,1.889 -3.934,2.152c-3.033,0.349 -5.059,-1.838 -5.257,-2.06c-1.38,-6.773 -2.479,-11.783 -3.264,-15.245c-0.332,-1.467 -0.749,-3.283 -1.079,-5.815c-0.548,-4.203 -0.493,-7.606 -0.404,-9.524c0.151,-3.226 0.652,-7.591 2.125,-12.608l7.447,0.389Z" style="fill:#1d1d1d;fill-rule:nonzero;"/><path d="M60.867,35.443c-1.291,-5.846 -2.581,-11.692 -3.871,-17.538c1.211,1.207 2.97,3.15 4.643,5.85c2.002,3.232 4.381,7.071 2.897,9.591c-0.32,0.543 -1.176,1.632 -3.669,2.097" style="fill:#f2f2f2;fill-rule:nonzero;"/><path d="M55.474,7.648c1.357,2.243 0.958,5.356 -1.087,7.558c0.095,0.674 0.19,1.347 0.284,2.021c-0.221,0.489 -0.502,0.814 -0.742,1.028c-1.142,1.023 -3.06,1.076 -4.931,0.263c0.05,-0.891 0.1,-1.781 0.149,-2.672c-1.324,0.221 -1.873,-0.067 -2.132,-0.357c-0.595,-0.667 -0.067,-1.804 -0.914,-2.659c-0.257,-0.26 -0.439,-0.29 -0.544,-0.57c-0.188,-0.507 0.213,-0.929 0.421,-1.657c0.236,-0.825 -0.038,-1.297 0.019,-1.845c0.164,-1.593 1.86,-3.405 3.959,-3.809c2.397,-0.461 4.53,1.066 5.518,2.699" style="fill:#c7b299;fill-rule:nonzero;"/><path d="M61.126,47.679c-1.644,0.667 -3.825,1.359 -6.451,1.702c-3.975,0.519 -7.298,0.019 -9.472,-0.495c-0.365,-4.677 -0.629,-9.581 -0.761,-14.695c-0.11,-4.312 -0.118,-8.478 -0.043,-12.485c0.466,-0.579 1.193,-1.349 2.241,-2.043c0.883,-0.586 1.718,-0.934 2.359,-1.146c1.871,0.814 3.789,0.761 4.931,-0.262c0.24,-0.215 0.52,-0.539 0.742,-1.028c0.602,0.034 1.471,0.17 2.325,0.678c2.357,1.402 2.835,4.587 3.075,6.553c1.019,8.336 1.053,21.756 1.054,23.221" style="fill:#2d7f91;fill-rule:nonzero;"/><path d="M43.65,42.149c0.324,-0.918 1.244,-2.679 2.258,-2.623c1.235,0.068 2.359,2.813 2.064,5.145c-0.132,1.048 -0.68,3.033 -1.802,3.195c-1.134,0.164 -2.356,-1.602 -2.703,-3.058c-0.298,-1.253 0.05,-2.283 0.183,-2.659" style="fill:#c7b299;fill-rule:nonzero;"/><path d="M46.838,33.068c-1.084,1.798 -2.585,2.883 -3.69,3.51c2.323,1.09 3.544,3.07 3.182,4.668c-0.304,1.344 -1.632,1.991 -1.749,2.046c-2.266,1.063 -5.821,-0.57 -7.351,-2.966c-2.416,-3.783 0.448,-9.111 1.939,-11.884c0.442,-0.823 4.264,-7.813 6.838,-7.089c2.267,0.637 3.526,7.242 0.831,11.715" style="fill:#f2f2f2;fill-rule:nonzero;"/><path d="M57.251,9.062c0.065,1.963 -1.349,4.436 -1.973,5.449c-0.151,-0.097 -0.358,-0.209 -0.619,-0.29c-0.157,-0.048 -0.301,-0.076 -0.425,-0.092c-0.305,0.161 -0.61,0.321 -0.915,0.481c-0.098,-0.088 -0.45,-0.377 -0.976,-0.389c-0.696,-0.016 -1.132,0.465 -1.194,0.535c-0.295,-0.736 -0.592,-1.472 -0.888,-2.208c0.7,-0.449 0.972,-1.234 0.725,-1.804c-0.2,-0.465 -0.68,-0.643 -0.802,-0.684c-0.322,0.486 -0.643,0.973 -0.965,1.46c-0.081,-0.027 -0.162,-0.054 -0.242,-0.08c-0.03,-0.538 -0.059,-1.076 -0.088,-1.613c-0.507,-0.649 -1.014,-1.298 -1.521,-1.946c-0.105,-0.03 -1.014,-0.303 -1.203,-1.034c-0.152,-0.59 0.256,-1.122 0.523,-1.459c1.418,-1.792 4.132,-1.888 4.4,-1.893c0.59,-0.013 3.203,-0.07 4.792,1.809c1.115,1.317 1.319,3.104 1.342,3.331c-0,-0 0.022,0.21 0.029,0.427" style="fill:#998675;fill-rule:nonzero;"/></svg>
