<?xml version="1.0" encoding="UTF-8" standalone="no"?><!DOCTYPE svg PUBLIC "-//W3C//DTD SVG 1.1//EN" "http://www.w3.org/Graphics/SVG/1.1/DTD/svg11.dtd"><svg width="100%" height="100%" viewBox="0 0 100 100" version="1.1" xmlns="http://www.w3.org/2000/svg" xmlns:xlink="http://www.w3.org/1999/xlink" xml:space="preserve" xmlns:serif="http://www.serif.com/" style="fill-rule:evenodd;clip-rule:evenodd;stroke-linejoin:round;stroke-miterlimit:2;"><path d="M41.669,84.133c1.739,-0.604 4.918,-0.938 6.068,0.896c0.569,0.906 0.571,2.229 -0,3.157c-0.999,1.626 -3.461,1.554 -5.985,1.481c-2.065,-0.061 -3.979,-0.117 -4.352,-1.072c-0.486,-1.243 1.794,-3.601 4.269,-4.462" style="fill:#222;fill-rule:nonzero;"/><path d="M49.653,46.796c-0.493,13.873 -0.985,27.747 -1.478,41.62c-0.188,0.092 -2.446,1.154 -4.719,-0.138c-2.239,-1.272 -2.509,-3.7 -2.53,-3.92c-0.065,-2.567 -0.11,-5.177 -0.13,-7.827c-0.026,-3.349 -0.009,-6.698 0.038,-10.047c0.059,-4.273 0.106,-10.678 0.044,-19.885c2.925,0.066 5.85,0.132 8.775,0.197" style="fill:#2d7f91;fill-rule:nonzero;"/><g opacity="0.2"><path d="M49.998,46.566c-0.493,13.873 -0.985,27.747 -1.478,41.62c-0.188,0.092 -2.446,1.154 -4.719,-0.138c-2.239,-1.272 -2.509,-3.7 -2.53,-3.92c-0.065,-2.567 -0.11,-5.177 -0.13,-7.827c-0.026,-3.349 -0.009,-6.698 0.038,-10.047c0.059,-4.273 0.106,-10.678 0.044,-19.885c2.925,0.066 5.85,0.132 8.775,0.197" style="fill-rule:nonzero;"/></g><path d="M50.214,88.922c0.297,-0.221 1.288,-0.957 2.478,-0.779c1.743,0.261 3.013,2.348 3.055,4.013c0.089,3.51 -5.248,6.663 -7.099,5.544c-1.779,-1.074 -1.283,-6.66 1.566,-8.778" style="fill:#222;fill-rule:nonzero;"/><path d="M56.589,67.476c-0.513,9.093 -0.613,16.585 -0.612,21.664c-0.377,1.934 -2.005,3.343 -3.861,3.415c-1.606,0.062 -3.131,-0.887 -3.854,-2.403c-0.173,-7.505 -0.379,-15.064 -0.619,-22.676c-0.229,-7.29 -0.487,-14.528 -0.772,-21.716c4.719,-3.24 7.078,-3.086 8.347,-2.403c3.461,1.865 2.197,9.487 1.371,24.119" style="fill:#2d7f91;fill-rule:nonzero;"/><path d="M57.342,36.308c-0.806,-2.398 -1.613,-4.797 -2.419,-7.195c-1.552,-3.14 -2.132,-5.881 -1.29,-6.481c0.88,-0.627 3.497,0.959 6.236,4.022c0.762,1.723 1.287,3.192 1.635,4.251c0.827,2.519 1.308,4.028 1.218,5.981c-0.06,1.314 -0.353,2.271 -0.628,3.145c-3.833,12.22 -4.15,12.167 -4.211,14.051c-0.083,2.545 0.444,4.275 -0.785,5.406c-0.758,0.698 -2.094,1.086 -3.216,0.582c-1.084,-0.487 -1.672,-1.672 -1.707,-2.682c-0.054,-1.52 1.161,-2.088 2.18,-4.206c0.541,-1.124 0.637,-1.874 1.008,-4.07c0.749,-4.444 0.697,-6.286 1.574,-10.851c0.161,-0.839 0.309,-1.521 0.405,-1.953" style="fill:#c7b299;fill-rule:nonzero;"/><path d="M45.778,26.871c-1.633,2.367 -2.761,4.423 -3.514,5.93c-1.334,2.671 -1.847,4.332 -3.633,5.368c-1.132,0.656 -2.194,0.723 -3.36,0.785c-2.642,0.137 -6.063,0.268 -10.14,0.304c-0.831,0.652 -1.568,1.075 -2.101,1.344c-0.055,0.029 -0.535,0.269 -1.21,0.486c-0.522,0.168 -1.194,0.383 -1.318,0.188c-0.088,-0.138 0.139,-0.428 0.225,-0.538c0.431,-0.55 1.081,-0.733 1.086,-0.723c0.004,0.008 -0.57,0.158 -1.43,0.687c-1.098,0.675 -1.421,1.206 -1.835,1.087c-0.187,-0.052 -0.421,-0.245 -0.585,-0.899c0.442,-0.37 1.023,-0.788 1.751,-1.165c0.534,-0.277 1.037,-0.474 1.476,-0.617c-0.467,0.174 -0.962,0.377 -1.476,0.617c-0.718,0.334 -1.359,0.687 -1.924,1.032c-0.079,0.003 -0.213,-0.003 -0.357,-0.071c-0.281,-0.132 -0.386,-0.396 -0.409,-0.459c0.421,-0.404 1.016,-0.891 1.803,-1.316c0.523,-0.283 1.014,-0.476 1.437,-0.61c-0.388,0.129 -0.811,0.294 -1.253,0.507c-0.914,0.442 -1.637,0.959 -2.182,1.419c-0.053,-0.006 -0.127,-0.022 -0.202,-0.066c-0.338,-0.202 -0.32,-0.776 -0.316,-0.893c0.021,-0.661 1.446,-1.42 3.422,-1.96c-0.181,-0.041 -0.474,-0.102 -0.839,-0.148c-0.906,-0.116 -1.228,-0.017 -1.672,-0.241c-0.332,-0.167 -0.775,-0.536 -0.715,-0.79c0.062,-0.264 0.693,-0.515 3.386,-0.376c0.637,-0.121 1.457,-0.218 2.409,-0.188c0.946,0.03 1.753,0.177 2.379,0.336c3.501,-0.802 7.002,-1.605 10.503,-2.407c1.724,-3.608 3.448,-7.216 5.173,-10.824c3.735,-3.674 7.237,-5.542 8.268,-4.7c1.025,0.838 -0.094,4.592 -2.847,8.901" style="fill:#c7b299;fill-rule:nonzero;"/><path d="M56.44,35.081c0.147,0.772 0.386,2.023 0.497,3.181c0.173,1.804 0.171,4.805 -1.205,8.717c-1.847,0.669 -5.206,1.604 -9.404,1.194c-3.101,-0.302 -5.54,-1.229 -7.121,-1.982c0.324,-3.747 0.743,-7.614 1.274,-11.591c0.261,-1.961 0.541,-3.888 0.838,-5.779c-0.489,-0.393 -1.134,-0.998 -1.726,-1.863c-0.541,-0.791 -0.861,-1.54 -1.054,-2.105c0.485,-1.048 1.539,-2.959 3.611,-4.588c0.799,-0.629 2.659,-2.039 5.491,-2.407c0.897,-0.116 3.774,-0.373 6.612,1.296c1.441,0.847 2.303,1.857 2.939,2.615c1.546,1.842 2.299,3.698 2.677,4.886c-1.649,0.819 -3.297,1.639 -4.946,2.458c0.45,1.406 1.036,3.448 1.517,5.968" style="fill:#f2f2f2;fill-rule:nonzero;"/><path d="M53.195,10.38c0.095,2.881 -2.08,4.777 -2.399,5.047c0.11,1.131 0.219,2.262 0.329,3.393c-0.993,2.376 -3.38,3.098 -4.557,2.374c-0.914,-0.561 -1.33,-2.132 -0.845,-3.731c-0.013,-0.219 -0.026,-0.439 -0.038,-0.658l-0.93,-0.296c-0.302,-0.275 -2.864,-2.681 -2.472,-6.129c0.299,-2.623 2.311,-5.896 5.456,-5.9c3.051,-0.004 5.362,3.037 5.456,5.9" style="fill:#c7b299;fill-rule:nonzero;"/><path d="M53.493,10.38c-0.052,1.083 -0.133,2.373 -1.101,3.097c-0.464,0.348 -0.978,0.448 -1.324,0.478c-0.048,-0.281 -0.095,-0.562 -0.143,-0.843c0.228,-0.085 0.667,-0.286 1.023,-0.73c0.111,-0.14 0.71,-0.886 0.456,-1.695c-0.114,-0.362 -0.442,-0.881 -0.88,-0.881c-0.447,0.001 -0.748,0.54 -0.848,0.718c-0.197,0.351 -0.226,0.689 -0.228,0.88c-0.203,-0.101 -0.405,-0.202 -0.608,-0.303c-0.095,-1.442 -0.531,-1.98 -0.92,-2.202c-0.414,-0.237 -0.717,-0.083 -1.419,-0.461c-0.62,-0.333 -0.634,-0.588 -1.073,-0.662c-0.506,-0.084 -0.622,0.231 -1.318,0.221c-0.572,-0.009 -0.605,-0.224 -1.052,-0.17c-0.643,0.079 -1.078,0.589 -1.191,0.721c-0.381,0.447 -0.446,0.876 -0.507,0.86c-0.094,-0.024 0.203,-0.963 0.252,-2.147c0.06,-1.456 -0.292,-2.363 0.068,-2.551c0.271,-0.142 0.563,0.324 0.973,0.194c0.557,-0.175 0.413,-1.155 0.925,-1.363c0.645,-0.262 1.563,1.013 1.941,0.769c0.3,-0.193 -0.148,-1.08 0.136,-1.278c0.334,-0.234 1.129,0.876 2.611,1.544c1.455,0.657 1.835,0.105 2.711,0.669c1.71,1.101 1.568,4.048 1.516,5.135" style="fill:#736357;fill-rule:nonzero;"/></svg>
