<?xml version="1.0" encoding="UTF-8" standalone="no"?><!DOCTYPE svg PUBLIC "-//W3C//DTD SVG 1.1//EN" "http://www.w3.org/Graphics/SVG/1.1/DTD/svg11.dtd"><svg width="100%" height="100%" viewBox="0 0 100 100" version="1.1" xmlns="http://www.w3.org/2000/svg" xmlns:xlink="http://www.w3.org/1999/xlink" xml:space="preserve" xmlns:serif="http://www.serif.com/" style="fill-rule:evenodd;clip-rule:evenodd;stroke-linejoin:round;stroke-miterlimit:2;"><path d="M49.142,90.737c1.683,-0.785 3.924,-2.636 3.489,-4.13c-0.393,-1.351 -2.777,-1.724 -3.931,-1.74c-0.231,-0.003 -3.411,0.005 -4.956,2.487c-0.186,0.3 -1.269,2.039 -0.583,3.192c0.858,1.443 3.981,1.124 5.981,0.191" style="fill-rule:nonzero;"/><path d="M54.701,95.854c2.204,-0.579 4.85,-2.181 4.665,-3.602c-0.079,-0.605 -0.649,-1.012 -1.159,-1.376c-1.331,-0.95 -2.82,-0.862 -3.416,-0.827c-2.392,0.142 -4.023,1.602 -4.567,2.138c-0.402,0.479 -1.528,1.922 -1.074,2.964c0.622,1.429 3.807,1.161 5.551,0.703" style="fill-rule:nonzero;"/><path d="M43.744,87.355c-0.032,0.072 -0.777,1.823 0.006,2.706c0.936,1.055 3.652,0.414 4.223,-1.121c0.268,-0.722 -0.007,-1.458 -0.173,-1.811c-0.21,-0.442 -0.42,-0.884 -0.63,-1.326c0.027,-2.047 0.143,-4.279 0.395,-6.666c0.249,-2.355 0.596,-4.535 0.99,-6.521c-1.903,-0.598 -3.807,-1.197 -5.71,-1.795c0.509,2.35 0.947,5.154 1.113,8.328c0.163,3.093 0.033,5.86 -0.214,8.205" style="fill:#c7b299;fill-rule:nonzero;"/><path d="M50.235,92.749c-0.105,0.356 -0.418,1.55 0.167,2.158c0.845,0.876 3.311,0.273 4.005,-1.282c0.414,-0.929 0.059,-1.889 -0.069,-2.197c-0.64,-6.114 -0.297,-11.061 0.181,-14.591c0.703,-5.186 1.696,-7.279 1.997,-11.743c0.389,-5.751 -0.698,-10.593 -1.784,-13.975c-1.675,0.12 -3.349,0.239 -5.023,0.359c0.66,8.38 0.711,14.978 0.624,19.567c-0.051,2.633 -0.174,6.048 -0.191,11.573c-0.014,4.269 0.042,7.779 0.093,10.131" style="fill:#c7b299;fill-rule:nonzero;"/><path d="M44.684,36.834c-0.547,-5.401 -1.093,-10.801 -1.64,-16.202c-0.412,0.505 -0.825,1.011 -1.237,1.516c-0.66,15.356 -0.543,23.079 0.35,23.17c0.549,0.056 1.391,-2.772 2.527,-8.484" style="fill:#c7b299;fill-rule:nonzero;"/><path d="M44.055,10.543c-1.222,2.254 -0.687,5.276 1.412,7.332c-0.061,0.662 -0.122,1.324 -0.183,1.987c0.239,0.467 0.527,0.771 0.772,0.97c1.163,0.945 3.039,0.908 4.828,0.027c-0.09,-0.867 -0.18,-1.735 -0.27,-2.602c1.095,-0.056 1.587,-0.411 1.833,-0.731c0.463,-0.601 0.168,-1.217 0.836,-2.211c0.18,-0.267 0.32,-0.399 0.361,-0.682c0.07,-0.484 -0.244,-0.777 -0.443,-1.302c-0.261,-0.686 -0.117,-1.225 -0.107,-1.608c0.035,-1.359 -1.532,-3.639 -3.775,-4.072c-2.3,-0.444 -4.368,1.24 -5.264,2.892" style="fill:#c7b299;fill-rule:nonzero;"/><path d="M40.479,71.156c3.548,4.303 5.908,4.88 7.404,4.614c1.459,-0.258 2.012,-1.301 4.035,-2.218c2.515,-1.142 5.001,-1.046 6.657,-0.808c0.419,-4.91 0.144,-8.785 -0.133,-11.223c-1.063,-9.358 -5.343,-25.61 -3.482,-29.669c0.057,-0.124 0.328,-0.691 0.523,-1.504c0.134,-0.558 0.671,-2.793 -0.374,-5.053c-0.559,-1.209 -1.351,-1.951 -2.51,-3.035c-0.665,-0.623 -1.272,-1.086 -1.716,-1.4c-1.789,0.881 -3.664,0.918 -4.827,-0.028c-0.245,-0.198 -0.534,-0.503 -0.773,-0.969c-0.609,0.031 -1.485,0.179 -2.239,0.77c-0.586,0.459 -1.58,1.562 -1.51,5.168c0.041,2.102 0.463,6.05 3.15,11.034c-1.344,3.722 -2.634,8.181 -3.506,13.289c-1.415,8.285 -1.261,15.524 -0.699,21.032" style="fill:#090909;fill-rule:nonzero;"/><path d="M56.151,41.021c-1.894,-9.906 -0.271,-16.332 -2.392,-16.954c-0.932,-0.274 -1.96,0.756 -2.077,0.874c-1.385,1.402 -0.815,3.892 -0.401,6.37c0.982,5.881 -0.101,4.59 0.892,10.067c1.24,6.839 4.011,15.801 5.557,15.578c0.73,-0.106 1.065,-2.246 1.116,-3.357c0.094,-2.02 -0.617,-3.53 -0.967,-4.354c-0.282,-0.663 -0.764,-3.183 -1.728,-8.224" style="fill:#c7b299;fill-rule:nonzero;"/><path d="M43.567,16.816c0.17,2.818 -1.031,3.521 -0.708,5.224c0.478,2.526 3.733,4.251 4.601,3.706c0.458,-0.287 0.087,-1.284 0.832,-1.873c0.523,-0.413 0.992,-0.147 1.557,-0.493c0.411,-0.251 0.873,-0.824 0.973,-2.287c0.096,0.2 0.198,0.467 0.257,0.792c0.085,0.468 0.029,0.78 0.05,0.782c0.05,0.006 0.543,-1.535 0.389,-3.426c-0.125,-1.536 -0.629,-2.712 -0.991,-3.401c-0.54,0.081 -1.055,-0.132 -1.298,-0.532c-0.369,-0.609 -0.055,-1.564 0.532,-1.704c0.384,-0.092 0.857,0.171 1.15,0.639c-0.06,-0.503 -0.041,-1.122 0.337,-1.553c0.638,-0.73 1.72,-0.263 2.101,-0.763c0.573,-0.755 -0.64,-3.449 -2.837,-4.513c-2.547,-1.234 -6.111,-0.122 -7.206,1.972c-0.603,1.153 -0.433,2.557 -0.134,5.017c0.18,1.482 0.334,1.405 0.395,2.413" style="fill:#998675;fill-rule:nonzero;"/></svg>
