<svg width="100%" height="100%" viewBox="0 0 200 200" version="1.1" xmlns="http://www.w3.org/2000/svg" xmlns:xlink="http://www.w3.org/1999/xlink" xml:space="preserve" xmlns:serif="http://www.serif.com/" style="fill-rule:evenodd;clip-rule:evenodd;stroke-linejoin:round;stroke-miterlimit:2;"><path d="M97.872,183.215c3.519,-1.641 8.204,-5.511 7.295,-8.635c-0.822,-2.825 -5.806,-3.605 -8.219,-3.638c-0.483,-0.006 -7.132,0.01 -10.362,5.2c-0.389,0.627 -2.653,4.263 -1.219,6.673c1.794,3.017 8.324,2.35 12.505,0.4" class="sub"/><path d="M109.495,193.913c4.608,-1.211 10.14,-4.56 9.753,-7.531c-0.165,-1.265 -1.357,-2.116 -2.423,-2.877c-2.783,-1.986 -5.896,-1.802 -7.142,-1.729c-5.001,0.297 -8.411,3.349 -9.548,4.47c-0.841,1.001 -3.195,4.018 -2.246,6.197c1.301,2.987 7.96,2.427 11.606,1.47" class="sub"/><path d="M86.586,176.142c-0.066,0.151 -1.624,3.812 0.013,5.658c1.957,2.208 7.635,0.867 8.829,-2.342c0.561,-1.509 -0.014,-3.048 -0.361,-3.786c-0.44,-0.924 -0.879,-1.849 -1.318,-2.773c0.057,-4.279 0.299,-8.946 0.826,-13.937c0.521,-4.923 1.246,-9.481 2.07,-13.634c-3.979,-1.25 -7.959,-2.502 -11.938,-3.753c1.064,4.914 1.98,10.776 2.327,17.412c0.341,6.467 0.069,12.252 -0.448,17.155" style="fill:#c7b299;fill-rule:nonzero;"/><path d="M100.159,187.42c-0.219,0.744 -0.874,3.24 0.349,4.512c1.767,1.831 6.923,0.57 8.374,-2.681c0.865,-1.942 0.123,-3.949 -0.145,-4.593c-1.338,-12.783 -0.621,-23.126 0.379,-30.507c1.47,-10.842 3.546,-15.218 4.175,-24.551c0.813,-12.024 -1.459,-22.148 -3.73,-29.219c-3.502,0.251 -7.002,0.5 -10.502,0.751c1.38,17.52 1.487,31.315 1.305,40.91c-0.107,5.505 -0.364,12.645 -0.399,24.196c-0.03,8.926 0.087,16.264 0.194,21.182" style="fill:#c7b299;fill-rule:nonzero;"/><path d="M88.552,70.517c-1.144,-11.293 -2.286,-22.583 -3.429,-33.875c-0.862,1.056 -1.725,2.114 -2.587,3.17c-1.38,32.105 -1.135,48.252 0.732,48.443c1.148,0.117 2.908,-5.796 5.284,-17.738" style="fill:#c7b299;fill-rule:nonzero;"/><path d="M87.237,15.548c-2.555,4.713 -1.437,11.031 2.952,15.33c-0.128,1.384 -0.255,2.768 -0.383,4.154c0.5,0.976 1.102,1.612 1.614,2.028c2.432,1.976 6.354,1.899 10.094,0.057c-0.188,-1.813 -0.376,-3.628 -0.564,-5.441c2.289,-0.117 3.318,-0.859 3.832,-1.528c0.968,-1.256 0.352,-2.544 1.748,-4.623c0.377,-0.558 0.669,-0.834 0.755,-1.426c0.146,-1.011 -0.51,-1.624 -0.926,-2.722c-0.546,-1.434 -0.245,-2.561 -0.224,-3.362c0.073,-2.841 -3.203,-7.608 -7.893,-8.513c-4.808,-0.929 -9.132,2.592 -11.005,6.046" style="fill:#c7b299;fill-rule:nonzero;"/><path d="M79.761,142.274c7.418,8.997 12.352,10.203 15.48,9.647c3.05,-0.539 4.206,-2.72 8.436,-4.637c5.258,-2.388 10.456,-2.187 13.918,-1.689c0.876,-10.266 0.301,-18.368 -0.278,-23.465c-2.222,-19.566 -11.171,-53.545 -7.28,-62.031c0.119,-0.259 0.686,-1.445 1.094,-3.145c0.28,-1.166 1.402,-5.839 -0.782,-10.564c-1.169,-2.528 -2.825,-4.079 -5.248,-6.346c-1.391,-1.302 -2.66,-2.27 -3.588,-2.927c-3.74,1.842 -7.661,1.92 -10.092,-0.058c-0.512,-0.414 -1.117,-1.052 -1.616,-2.026c-1.274,0.065 -3.105,0.374 -4.681,1.61c-1.226,0.959 -3.304,3.265 -3.158,10.805c0.086,4.394 0.968,12.649 6.586,23.069c-2.81,7.782 -5.507,17.105 -7.33,27.784c-2.958,17.322 -2.636,32.457 -1.461,43.973" class="main"/><path d="M112.528,79.271c-3.96,-20.711 -0.567,-34.147 -5.001,-35.447c-1.949,-0.573 -4.098,1.58 -4.343,1.827c-2.895,2.931 -1.704,8.137 -0.838,13.318c2.053,12.296 -0.211,9.597 1.865,21.048c2.592,14.299 8.386,33.036 11.618,32.57c1.527,-0.222 2.227,-4.696 2.334,-7.019c0.196,-4.223 -1.29,-7.38 -2.022,-9.103c-0.59,-1.386 -1.597,-6.655 -3.613,-17.194" style="fill:#c7b299;fill-rule:nonzero;"/><path d="M86.217,28.662c0.355,5.892 -2.156,7.362 -1.48,10.923c0.999,5.281 7.804,8.887 9.619,7.748c0.958,-0.6 0.182,-2.685 1.74,-3.916c1.093,-0.864 2.074,-0.307 3.255,-1.031c0.859,-0.525 1.825,-1.723 2.034,-4.781c0.201,0.418 0.414,0.976 0.538,1.655c0.177,0.979 0.06,1.631 0.104,1.635c0.105,0.013 1.135,-3.209 0.813,-7.163c-0.261,-3.211 -1.315,-5.67 -2.072,-7.11c-1.129,0.169 -2.205,-0.276 -2.713,-1.112c-0.772,-1.274 -0.115,-3.27 1.112,-3.563c0.803,-0.193 1.792,0.357 2.404,1.336c-0.125,-1.052 -0.085,-2.346 0.705,-3.247c1.334,-1.526 3.596,-0.55 4.393,-1.595c1.198,-1.579 -1.338,-7.211 -5.932,-9.436c-5.325,-2.58 -12.777,-0.255 -15.066,4.123c-1.261,2.411 -0.905,5.346 -0.28,10.489c0.376,3.099 0.698,2.938 0.826,5.045" style="fill:#998675;fill-rule:nonzero;"/></svg>
