<?xml version="1.0" encoding="UTF-8" standalone="no"?><!DOCTYPE svg PUBLIC "-//W3C//DTD SVG 1.1//EN" "http://www.w3.org/Graphics/SVG/1.1/DTD/svg11.dtd"><svg width="100%" height="100%" viewBox="0 0 200 200" version="1.1" xmlns="http://www.w3.org/2000/svg" xmlns:xlink="http://www.w3.org/1999/xlink" xml:space="preserve" xmlns:serif="http://www.serif.com/" style="fill-rule:evenodd;clip-rule:evenodd;stroke-linejoin:round;stroke-miterlimit:2;"><path d="M98.593,179.686c3.433,-1.602 8.004,-5.377 7.116,-8.425c-0.801,-2.755 -5.664,-3.516 -8.018,-3.549c-0.471,-0.006 -6.958,0.01 -10.109,5.073c-0.379,0.612 -2.588,4.159 -1.189,6.511c1.75,2.943 8.12,2.293 12.2,0.39" style="fill:#662d91;fill-rule:nonzero;"/><path d="M109.932,190.122c4.495,-1.181 9.893,-4.448 9.515,-7.347c-0.161,-1.234 -1.324,-2.064 -2.364,-2.806c-2.715,-1.938 -5.752,-1.759 -6.968,-1.687c-4.879,0.289 -8.206,3.267 -9.315,4.361c-0.82,0.977 -3.117,3.92 -2.191,6.045c1.269,2.915 7.766,2.369 11.323,1.434" style="fill:#662d91;fill-rule:nonzero;"/><path d="M87.582,172.786c-0.065,0.146 -1.585,3.718 0.012,5.519c1.91,2.154 7.45,0.847 8.614,-2.284c0.547,-1.473 -0.014,-2.974 -0.353,-3.694c-0.428,-0.902 -0.856,-1.804 -1.285,-2.705c0.056,-4.176 0.292,-8.728 0.806,-13.597c0.508,-4.804 1.216,-9.25 2.019,-13.301c-3.881,-1.22 -7.765,-2.442 -11.647,-3.662c1.039,4.794 1.932,10.513 2.271,16.987c0.332,6.309 0.067,11.953 -0.437,16.737" style="fill:#c7b299;fill-rule:nonzero;"/><path d="M100.824,183.788c-0.214,0.726 -0.853,3.162 0.34,4.402c1.724,1.787 6.754,0.557 8.17,-2.615c0.844,-1.895 0.12,-3.853 -0.141,-4.482c-1.306,-12.471 -0.606,-22.561 0.369,-29.762c1.434,-10.578 3.459,-14.847 4.073,-23.952c0.794,-11.731 -1.423,-21.608 -3.639,-28.506c-3.416,0.245 -6.831,0.487 -10.245,0.732c1.346,17.093 1.45,30.552 1.273,39.912c-0.104,5.371 -0.355,12.337 -0.39,23.606c-0.029,8.708 0.086,15.867 0.19,20.665" style="fill:#c7b299;fill-rule:nonzero;"/><path d="M89.499,69.737c-1.115,-11.017 -2.229,-22.031 -3.345,-33.048c-0.84,1.03 -1.683,2.062 -2.523,3.092c-1.346,31.323 -1.108,47.076 0.714,47.261c1.12,0.115 2.837,-5.654 5.154,-17.305" style="fill:#c7b299;fill-rule:nonzero;"/><path d="M88.217,16.11c-2.493,4.597 -1.402,10.762 2.88,14.955c-0.125,1.351 -0.249,2.701 -0.374,4.053c0.488,0.953 1.075,1.573 1.575,1.979c2.372,1.927 6.199,1.852 9.848,0.055c-0.183,-1.769 -0.367,-3.539 -0.551,-5.308c2.234,-0.114 3.237,-0.838 3.739,-1.491c0.945,-1.225 0.343,-2.482 1.705,-4.509c0.368,-0.545 0.653,-0.814 0.737,-1.392c0.143,-0.987 -0.498,-1.584 -0.904,-2.655c-0.532,-1.4 -0.238,-2.499 -0.218,-3.28c0.071,-2.772 -3.125,-7.423 -7.7,-8.306c-4.692,-0.906 -8.91,2.529 -10.737,5.899" style="fill:#c7b299;fill-rule:nonzero;"/><path d="M80.923,139.744c7.237,8.777 12.051,9.954 15.102,9.412c2.976,-0.527 4.104,-2.654 8.231,-4.525c5.13,-2.329 10.201,-2.133 13.578,-1.648c0.855,-10.015 0.294,-17.919 -0.271,-22.892c-2.168,-19.088 -10.898,-52.238 -7.102,-60.517c0.116,-0.253 0.669,-1.41 1.067,-3.068c0.273,-1.138 1.368,-5.697 -0.763,-10.307c-1.141,-2.466 -2.756,-3.98 -5.12,-6.191c-1.357,-1.271 -2.595,-2.215 -3.5,-2.855c-3.649,1.797 -7.474,1.872 -9.846,-0.058c-0.5,-0.403 -1.089,-1.026 -1.577,-1.976c-1.242,0.063 -3.029,0.365 -4.567,1.571c-1.195,0.936 -3.223,3.186 -3.08,10.541c0.084,4.288 0.944,12.34 6.425,22.507c-2.741,7.592 -5.373,16.687 -7.151,27.106c-2.886,16.899 -2.572,31.665 -1.426,42.9" style="fill-rule:nonzero;"/><path d="M112.891,78.277c-3.863,-20.205 -0.553,-33.313 -4.879,-34.582c-1.901,-0.558 -3.998,1.543 -4.237,1.783c-2.825,2.86 -1.662,7.939 -0.818,12.993c2.003,11.996 -0.206,9.363 1.82,20.535c2.529,13.95 8.181,32.23 11.335,31.775c1.489,-0.216 2.172,-4.581 2.276,-6.847c0.192,-4.121 -1.258,-7.201 -1.972,-8.882c-0.576,-1.352 -1.559,-6.492 -3.525,-16.775" style="fill:#c7b299;fill-rule:nonzero;"/><path d="M87.222,28.904c0.346,5.748 -2.103,7.182 -1.445,10.656c0.975,5.152 7.615,8.671 9.385,7.559c0.935,-0.585 0.178,-2.619 1.697,-3.82c1.067,-0.843 2.024,-0.3 3.176,-1.006c0.839,-0.512 1.781,-1.681 1.985,-4.665c0.196,0.408 0.404,0.953 0.524,1.615c0.174,0.955 0.059,1.592 0.102,1.596c0.102,0.012 1.108,-3.131 0.794,-6.989c-0.255,-3.133 -1.283,-5.531 -2.022,-6.937c-1.101,0.165 -2.152,-0.269 -2.647,-1.085c-0.753,-1.242 -0.112,-3.19 1.085,-3.476c0.783,-0.187 1.748,0.349 2.346,1.304c-0.123,-1.026 -0.084,-2.289 0.687,-3.168c1.301,-1.489 3.508,-0.537 4.285,-1.556c1.169,-1.54 -1.305,-7.036 -5.786,-9.206c-5.196,-2.517 -12.465,-0.249 -14.699,4.023c-1.23,2.351 -0.883,5.215 -0.273,10.233c0.367,3.023 0.681,2.866 0.806,4.922" style="fill:#998675;fill-rule:nonzero;"/></svg>