<?xml version="1.0" encoding="UTF-8" standalone="no"?><!DOCTYPE svg PUBLIC "-//W3C//DTD SVG 1.1//EN" "http://www.w3.org/Graphics/SVG/1.1/DTD/svg11.dtd"><svg width="100%" height="100%" viewBox="0 0 200 200" version="1.1" xmlns="http://www.w3.org/2000/svg" xmlns:xlink="http://www.w3.org/1999/xlink" xml:space="preserve" xmlns:serif="http://www.serif.com/" style="fill-rule:evenodd;clip-rule:evenodd;stroke-linecap:round;stroke-linejoin:round;stroke-miterlimit:1.5;"><path d="M56.832,62.741c2.275,-1.69 5.032,-3.369 8.32,-5.031c4.152,-2.099 8.118,-4.258 12.915,-5.482c31.123,-7.94 52.578,-5.466 61.871,5.482c3.02,3.558 5.158,7.312 7.92,10.773c0.788,0.989 1.52,1.955 2.195,2.903c2.636,3.276 7.45,9.303 8.667,9.062c2.41,-0.476 6.564,0.86 8.566,1.311c3.801,0.856 7.172,1.524 10.246,1.425c3.078,-0.099 5.052,2.578 6.535,4.206c4.092,4.492 -4.147,7.304 -7.739,11.298c-1.82,2.023 2.073,3.65 0.309,8.872c-2.079,6.154 -12.424,6.628 -12.791,10.469c-0.155,1.62 -0.673,2.513 0.731,5.655c1.403,3.143 4.729,8.535 7.619,11.279c3.182,3.021 4.374,3.211 -1.132,7.85c-11.763,9.912 -14.16,11.744 -22.077,6.723c-7.476,-4.742 -19.018,5.43 -29.203,-0.841c-5.108,-3.144 -14.84,-7.354 -23.126,-7.855c-7.187,-0.434 -30.186,16.12 -37.906,10.372c-12.525,-9.326 -10.559,6.778 -27.754,-4.163c-0.962,-0.612 -0.94,-4.541 -0.598,-5.242c0.688,-1.412 2.423,-2.813 3.39,-4.807c3.257,-6.724 4.111,-10.013 4.471,-12.676c0.707,-0.561 -0.809,0.676 -1.998,0.763c-3.595,0.264 -9.917,4.104 -14.373,0.42c-2.564,-2.12 -4.029,-3.147 -6.758,-3.899c-1.71,-0.47 -5.042,-1.569 -6.664,-2.681c-1.713,-1.175 -3.008,-2.532 -3.175,-3.002c-0.596,-1.675 0.249,-3.011 2.833,-4.332c2.188,-1.119 5.623,-2.227 10.486,-3.521c16.34,-4.349 21.517,-7.711 23.252,-12.461c1.785,-4.885 6.57,-13.957 6.57,-13.957c0,0 -1.804,-0.197 -2.719,-1.672c-4.87,-7.853 -10.418,-18.337 -5.45,-19.385c8.978,-1.894 9.328,1.42 16.567,2.144Z" style="fill:#492e17;"/><g><path d="M160.896,83.139c-0.619,-0.606 4.405,2.026 9.176,3.434c4.185,1.236 9.766,-0.09 10.203,-0.299c1.653,-0.789 0.606,-1.554 -0.913,-2.135c-0.572,-0.219 -1.27,-1.118 -1.83,-0.955c-0,0 1.448,0.023 2.952,0.91c1.413,0.833 2.865,2.507 3.583,3.296c2.886,3.168 -2.132,6.525 -5.35,8.796c-1.345,0.949 -2.389,2.502 -2.389,2.502c-0,0 -0.514,-4.392 -4.056,-8.332c-1.412,-1.572 -10.972,-6.821 -11.376,-7.217Z" style="fill:#110f0d;fill-opacity:0.1;"/><path d="M38.346,129.815c-0.065,1.978 -0.65,2.002 5.553,5.403c5.095,2.794 12.787,2.646 14.853,1.8c5.109,-2.089 9.95,-5.711 14.44,-5.299c4.055,0.372 7.824,4.867 11.245,1.906c1.617,-1.399 4.746,-26.525 5.994,-26.516c4.86,0.033 1.368,8.703 2.131,13.427c1.067,6.605 1.486,8.285 1.302,12.587c-0.077,1.821 4.335,7.279 2.794,7.717c-2.53,0.719 -6.525,1.542 -11.861,3.949c-9.27,4.181 -21.145,10.071 -26.045,6.423c-12.525,-9.326 -10.559,6.778 -27.754,-4.163c-0.962,-0.612 -0.94,-4.541 -0.598,-5.242c0.688,-1.412 2.423,-2.813 3.39,-4.807c3.257,-6.724 4.111,-10.013 4.471,-12.676c0.707,-0.561 0.209,1.736 0.085,5.491Z" style="fill:#110f0d;fill-opacity:0.1;"/><path d="M38.346,129.815c-0.065,1.978 -0.65,2.002 5.553,5.403c5.095,2.794 12.787,2.646 14.853,1.8c5.109,-2.089 9.95,-5.711 14.44,-5.299c4.055,0.372 7.824,4.867 11.245,1.906c1.617,-1.399 4.746,-26.525 5.994,-26.516c4.86,0.033 1.368,8.703 2.131,13.427c1.067,6.605 1.486,8.285 1.302,12.587c-0.077,1.821 4.335,7.279 2.794,7.717c-2.53,0.719 -6.525,1.542 -11.861,3.949c-9.27,4.181 -21.145,10.071 -26.045,6.423c-12.525,-9.326 -10.559,6.778 -27.754,-4.163c-0.962,-0.612 -0.94,-4.541 -0.598,-5.242c0.688,-1.412 2.423,-2.813 3.39,-4.807c3.257,-6.724 4.111,-10.013 4.471,-12.676c0.707,-0.561 0.209,1.736 0.085,5.491Z" style="fill:#110f0d;fill-opacity:0.1;"/><path d="M96.658,140.84c-3.842,-0.232 12.576,3.56 28.911,-1.706c4.566,-1.472 8.832,-6.407 13.005,-8.983c4.2,-2.593 19.567,8.275 20.567,0.845c1.103,-8.183 -12.322,-34.515 -10.783,-32.702c1.74,2.05 8.933,11.795 10.928,15.964c1.468,3.07 4.715,2.143 4.56,3.771c-0.155,1.62 -0.673,2.513 0.731,5.655c1.403,3.143 4.729,8.535 7.619,11.279c3.182,3.021 4.374,3.211 -1.132,7.85c-11.763,9.912 -14.16,11.744 -22.077,6.723c-7.476,-4.742 -19.018,5.43 -29.203,-0.841c-5.108,-3.144 -14.84,-7.354 -23.126,-7.855Z" style="fill:#110f0d;fill-opacity:0.1;"/><path d="M96.658,140.84c-3.842,-0.232 12.576,3.56 28.911,-1.706c4.566,-1.472 8.832,-6.407 13.005,-8.983c4.2,-2.593 19.567,8.275 20.567,0.845c1.103,-8.183 -12.322,-34.515 -10.783,-32.702c1.74,2.05 8.933,11.795 10.928,15.964c1.468,3.07 4.715,2.143 4.56,3.771c-0.155,1.62 -0.673,2.513 0.731,5.655c1.403,3.143 4.729,8.535 7.619,11.279c3.182,3.021 4.374,3.211 -1.132,7.85c-11.763,9.912 -14.16,11.744 -22.077,6.723c-7.476,-4.742 -19.018,5.43 -29.203,-0.841c-5.108,-3.144 -14.84,-7.354 -23.126,-7.855Z" style="fill:#110f0d;fill-opacity:0.1;"/><path d="M66.822,58.646c3.971,-2.007 7.763,-4.071 12.351,-5.242c29.764,-7.593 50.283,-5.227 59.169,5.242c2.889,3.404 4.933,6.994 7.574,10.304c11.62,14.56 10.442,24.273 -7.574,30.989c-12.783,4.765 -22.385,5.187 -35.76,6.269c-15.095,1.221 -28.398,-0.497 -35.76,-6.269c-16.718,-13.105 -26.739,-27.776 -0,-41.293Z" style="fill:#110f0d;fill-opacity:0.1;"/><path d="M106.447,132.932c-0.728,-6.998 2.309,-18.86 2.309,-18.86c0,0 5.795,22.342 9.904,25.475c4.107,3.131 8.788,11.142 8.788,11.142c0,-0 -5.692,-0.797 -6.804,-1.579c-5.825,-4.103 -12.291,-5.74 -15.157,-6.713c-2.284,-0.776 -4.468,-1.166 -4.468,-1.166c-0,0 5.887,-3.895 5.428,-8.299Z" style="fill:#110f0d;fill-opacity:0.1;"/><path d="M106.447,132.932c-0.728,-6.998 2.309,-18.86 2.309,-18.86c0,0 5.795,22.342 9.904,25.475c4.107,3.131 8.788,11.142 8.788,11.142c0,-0 -5.692,-0.797 -6.804,-1.579c-5.825,-4.103 -12.291,-5.74 -15.157,-6.713c-2.284,-0.776 -4.468,-1.166 -4.468,-1.166c-0,0 5.887,-3.895 5.428,-8.299Z" style="fill:#110f0d;fill-opacity:0.1;"/><path d="M145.38,114.867c-2.095,-6.391 -3.737,-15.12 -3.737,-15.12c0,-0 8.244,22.115 10.875,26.841c2.63,4.723 6.751,13.936 6.751,13.936c-0,-0 -2.749,-3.493 -3.444,-4.715c-3.644,-6.407 -6.952,-11.005 -8.48,-13.256c-1.219,-1.795 -2.294,-3.207 -2.294,-3.207c-0,-0 1.649,-0.457 0.329,-4.479Z" style="fill:#110f0d;fill-opacity:0.1;"/><path d="M145.38,114.867c-2.095,-6.391 -3.737,-15.12 -3.737,-15.12c0,-0 8.244,22.115 10.875,26.841c2.63,4.723 6.751,13.936 6.751,13.936c-0,-0 -2.749,-3.493 -3.444,-4.715c-3.644,-6.407 -6.952,-11.005 -8.48,-13.256c-1.219,-1.795 -2.294,-3.207 -2.294,-3.207c-0,-0 1.649,-0.457 0.329,-4.479Z" style="fill:#110f0d;fill-opacity:0.1;"/><path d="M145.38,114.867c-2.095,-6.391 -3.737,-15.12 -3.737,-15.12c0,-0 8.244,22.115 10.875,26.841c2.63,4.723 6.751,13.936 6.751,13.936c-0,-0 -2.749,-3.493 -3.444,-4.715c-3.644,-6.407 -6.952,-11.005 -8.48,-13.256c-1.219,-1.795 -2.294,-3.207 -2.294,-3.207c-0,-0 1.649,-0.457 0.329,-4.479Z" style="fill:#110f0d;fill-opacity:0.1;"/><path d="M97.731,116.25c1.273,-3.827 4.162,-7.277 4.162,-7.277c0,0 -3.472,14.685 -3.396,19.088c0.076,4.4 -0.724,11.517 -0.724,11.517c0,-0 -0.814,-4.424 -0.847,-5.584c-0.176,-6.082 -0.954,-11.453 -1.25,-13.951c-0.235,-1.991 -0.53,-3.728 -0.53,-3.728c-0,0 1.784,2.344 2.585,-0.065Z" style="fill:#110f0d;fill-opacity:0.1;"/><path d="M97.731,116.25c1.273,-3.827 4.162,-7.277 4.162,-7.277c0,0 -3.472,14.685 -3.396,19.088c0.076,4.4 -0.724,11.517 -0.724,11.517c0,-0 -0.814,-4.424 -0.847,-5.584c-0.176,-6.082 -0.954,-11.453 -1.25,-13.951c-0.235,-1.991 -0.53,-3.728 -0.53,-3.728c-0,0 1.784,2.344 2.585,-0.065Z" style="fill:#110f0d;fill-opacity:0.1;"/><path d="M97.731,116.25c1.273,-3.827 4.162,-7.277 4.162,-7.277c0,0 -3.472,14.685 -3.396,19.088c0.076,4.4 -0.724,11.517 -0.724,11.517c0,-0 -0.814,-4.424 -0.847,-5.584c-0.176,-6.082 -0.954,-11.453 -1.25,-13.951c-0.235,-1.991 -0.53,-3.728 -0.53,-3.728c-0,0 1.784,2.344 2.585,-0.065Z" style="fill:#110f0d;fill-opacity:0.1;"/><path d="M168.011,103.926c2.073,-0.117 4.261,-2.288 4.261,-2.288c0,0 -7.694,-1.225 -9.795,-2.918c-2.101,-1.692 -7.512,-15.275 -7.512,-15.275c0,0 5.093,13.51 5.828,15.423c0.774,2.013 3.872,4.856 5.018,6.115c0.914,1.003 1.694,1.986 1.694,1.986c-0,-0 -0.798,-2.969 0.506,-3.043Z" style="fill:#110f0d;fill-opacity:0.1;"/><path d="M49.568,112.35c2.675,-6.381 5.514,-15.091 5.514,-15.091c0,0 -9.916,22.088 -12.614,26.813c-2.696,4.722 -7.284,13.927 -7.284,13.927c-0,0 2.529,-3.496 3.237,-4.718c3.709,-6.406 6.832,-11.007 8.3,-13.259c1.171,-1.795 2.17,-3.209 2.17,-3.209c0,0 -1.007,-0.446 0.677,-4.463Z" style="fill:#110f0d;fill-opacity:0.1;"/><path d="M49.568,112.35c2.675,-6.381 5.514,-15.091 5.514,-15.091c0,0 -9.916,22.088 -12.614,26.813c-2.696,4.722 -7.284,13.927 -7.284,13.927c-0,0 2.529,-3.496 3.237,-4.718c3.709,-6.406 6.832,-11.007 8.3,-13.259c1.171,-1.795 2.17,-3.209 2.17,-3.209c0,0 -1.007,-0.446 0.677,-4.463Z" style="fill:#110f0d;fill-opacity:0.1;"/><path d="M49.568,112.35c2.675,-6.381 5.514,-15.091 5.514,-15.091c0,0 -9.916,22.088 -12.614,26.813c-2.696,4.722 -7.284,13.927 -7.284,13.927c-0,0 2.529,-3.496 3.237,-4.718c3.709,-6.406 6.832,-11.007 8.3,-13.259c1.171,-1.795 2.17,-3.209 2.17,-3.209c0,0 -1.007,-0.446 0.677,-4.463Z" style="fill:#110f0d;fill-opacity:0.1;"/><path d="M55.71,131.847c0.466,-3.581 0.301,-8.366 0.301,-8.366c-0,-0 -2.262,12.478 -3.315,15.219c-1.053,2.74 -2.446,7.998 -2.446,7.998c0,-0 1.306,-2.096 1.588,-2.806c1.479,-3.724 2.995,-6.456 3.677,-7.786c0.544,-1.06 1.049,-1.905 1.049,-1.905c-0,0 -1.147,-0.1 -0.854,-2.354Z" style="fill:#110f0d;fill-opacity:0.1;"/><path d="M55.71,131.847c0.466,-3.581 0.301,-8.366 0.301,-8.366c-0,-0 -2.262,12.478 -3.315,15.219c-1.053,2.74 -2.446,7.998 -2.446,7.998c0,-0 1.306,-2.096 1.588,-2.806c1.479,-3.724 2.995,-6.456 3.677,-7.786c0.544,-1.06 1.049,-1.905 1.049,-1.905c-0,0 -1.147,-0.1 -0.854,-2.354Z" style="fill:#110f0d;fill-opacity:0.1;"/><path d="M55.71,131.847c0.466,-3.581 0.301,-8.366 0.301,-8.366c-0,-0 -2.262,12.478 -3.315,15.219c-1.053,2.74 -2.446,7.998 -2.446,7.998c0,-0 1.306,-2.096 1.588,-2.806c1.479,-3.724 2.995,-6.456 3.677,-7.786c0.544,-1.06 1.049,-1.905 1.049,-1.905c-0,0 -1.147,-0.1 -0.854,-2.354Z" style="fill:#110f0d;fill-opacity:0.1;"/><path d="M40.847,114.231c3.599,-3.715 7.329,-14.989 7.329,-14.989c-0,1.236 -4.662,5.012 -7.786,5.995c-2.222,0.699 -2.899,4.43 -4.116,6.29c-1.972,3.011 -3.956,4.449 -5.711,5.067c-6.685,2.352 -5.957,0.082 -7.105,0.807c-4.696,2.965 -15.856,0.854 -15.856,0.854c0,0 1.822,1.675 4.632,2.38c1.35,0.339 3.506,0.455 6.123,1.926c1.595,0.897 3.702,3.194 4.914,3.747c2.847,1.297 3.314,0.436 4.292,0.372c5.143,-0.337 6.056,-1.426 8.066,-1.729c1.602,-0.241 2.632,-0.956 2.632,-0.956c0,0 0.494,-7.606 2.586,-9.764Z" style="fill:#110f0d;fill-opacity:0.1;"/><path d="M40.847,114.231c3.599,-3.715 7.329,-14.989 7.329,-14.989c-0,1.236 -4.662,5.012 -7.786,5.995c-2.222,0.699 -2.899,4.43 -4.116,6.29c-1.972,3.011 -3.956,4.449 -5.711,5.067c-6.685,2.352 -5.957,0.082 -7.105,0.807c-4.696,2.965 -15.856,0.854 -15.856,0.854c0,0 1.822,1.675 4.632,2.38c1.35,0.339 3.506,0.455 6.123,1.926c1.595,0.897 3.702,3.194 4.914,3.747c2.847,1.297 3.314,0.436 4.292,0.372c5.143,-0.337 6.056,-1.426 8.066,-1.729c1.602,-0.241 2.632,-0.956 2.632,-0.956c0,0 0.494,-7.606 2.586,-9.764Z" style="fill:#110f0d;fill-opacity:0.1;"/><path d="M61.08,108.323c0.231,-3.036 -0.254,-7.078 -0.254,-7.078c0,0 -1.45,10.589 -2.329,12.925c-0.879,2.336 -1.933,6.805 -1.933,6.805c-0,0 1.177,-1.795 1.414,-2.401c1.243,-3.175 2.589,-5.512 3.188,-6.648c0.478,-0.906 0.93,-1.629 0.93,-1.629c0,-0 -1.162,-0.064 -1.016,-1.974Z" style="fill:#110f0d;fill-opacity:0.1;"/><path d="M61.08,108.323c0.231,-3.036 -0.254,-7.078 -0.254,-7.078c0,0 -1.45,10.589 -2.329,12.925c-0.879,2.336 -1.933,6.805 -1.933,6.805c-0,0 1.177,-1.795 1.414,-2.401c1.243,-3.175 2.589,-5.512 3.188,-6.648c0.478,-0.906 0.93,-1.629 0.93,-1.629c0,-0 -1.162,-0.064 -1.016,-1.974Z" style="fill:#110f0d;fill-opacity:0.1;"/><path d="M133.031,120.135c0.642,2.976 2.255,6.713 2.255,6.713c0,0 -1.62,-10.564 -1.441,-13.054c0.179,-2.489 -0.081,-7.074 -0.081,-7.074c0,0 -0.618,2.056 -0.673,2.704c-0.289,3.398 -0.915,6.021 -1.167,7.281c-0.2,1.004 -0.428,1.826 -0.428,1.826c-0,0 1.132,-0.269 1.535,1.604Z" style="fill:#110f0d;fill-opacity:0.1;"/><path d="M133.031,120.135c0.642,2.976 2.255,6.713 2.255,6.713c0,0 -1.62,-10.564 -1.441,-13.054c0.179,-2.489 -0.081,-7.074 -0.081,-7.074c0,0 -0.618,2.056 -0.673,2.704c-0.289,3.398 -0.915,6.021 -1.167,7.281c-0.2,1.004 -0.428,1.826 -0.428,1.826c-0,0 1.132,-0.269 1.535,1.604Z" style="fill:#110f0d;fill-opacity:0.1;"/><path d="M133.031,120.135c0.642,2.976 2.255,6.713 2.255,6.713c0,0 -1.62,-10.564 -1.441,-13.054c0.179,-2.489 -0.081,-7.074 -0.081,-7.074c0,0 -0.618,2.056 -0.673,2.704c-0.289,3.398 -0.915,6.021 -1.167,7.281c-0.2,1.004 -0.428,1.826 -0.428,1.826c-0,0 1.132,-0.269 1.535,1.604Z" style="fill:#110f0d;fill-opacity:0.1;"/><path d="M137.868,140.067c1.343,2.732 3.813,5.968 3.813,5.968c-0,-0 -4.129,-9.858 -4.559,-12.317c-0.428,-2.458 -1.791,-6.844 -1.791,-6.844c0,0 -0.102,2.145 0.002,2.787c0.541,3.366 0.569,6.063 0.63,7.346c0.049,1.023 0.026,1.876 0.026,1.876c0,-0 1.034,-0.536 1.879,1.184Z" style="fill:#110f0d;fill-opacity:0.1;"/><path d="M86.41,135.789c0.728,-6.998 3.542,-29.41 3.542,-29.41c-0,-0 -14.266,32.207 -18.375,35.34c-4.107,3.132 -9.008,10.532 -9.008,10.532c0,-0 5.784,-0.413 7.024,-0.969c7.038,-3.157 15.157,-6.713 15.157,-6.713c0,0 -0.418,-0.975 0.11,-4.004c0.186,-1.066 1.431,-3.629 1.55,-4.776Z" style="fill:#110f0d;fill-opacity:0.1;"/><path d="M86.41,135.789c0.728,-6.998 3.542,-29.41 3.542,-29.41c-0,-0 -14.266,32.207 -18.375,35.34c-4.107,3.132 -9.008,10.532 -9.008,10.532c0,-0 5.784,-0.413 7.024,-0.969c7.038,-3.157 15.157,-6.713 15.157,-6.713c0,0 -0.418,-0.975 0.11,-4.004c0.186,-1.066 1.431,-3.629 1.55,-4.776Z" style="fill:#110f0d;fill-opacity:0.1;"/><path d="M40.847,114.231c3.599,-3.715 7.329,-14.989 7.329,-14.989c-0,1.236 -3.913,5.254 -6.785,6.827c-3.345,1.83 -3.848,5.203 -5.412,7.609c-2.402,3.695 -5.007,6.437 -6.3,8.177c-1.234,1.659 -8.176,3.172 -8.176,3.172c-0,-0 1.196,1.972 6.06,1.653c5.143,-0.337 6.056,-1.426 8.066,-1.729c1.602,-0.241 2.632,-0.956 2.632,-0.956c0,0 0.494,-7.606 2.586,-9.764Z" style="fill:#110f0d;fill-opacity:0.1;"/><path d="M40.847,114.231c3.599,-3.715 7.329,-14.989 7.329,-14.989c-0,1.236 -3.913,5.254 -6.785,6.827c-3.345,1.83 -3.848,5.203 -5.412,7.609c-2.402,3.695 -5.007,6.437 -6.3,8.177c-1.234,1.659 -8.176,3.172 -8.176,3.172c-0,-0 1.196,1.972 6.06,1.653c5.143,-0.337 6.056,-1.426 8.066,-1.729c1.602,-0.241 2.632,-0.956 2.632,-0.956c0,0 0.494,-7.606 2.586,-9.764Z" style="fill:#110f0d;fill-opacity:0.1;"/><path d="M48.81,73.193c1.775,-4.214 5.052,-7.673 5.052,-7.673c0,0 -4.08,3.815 -7.608,5.113c-3.527,1.297 -7.993,-7.408 -7.993,-7.408c0,-0 1.136,5.011 2.154,7.816c0.57,1.571 4.111,7.172 5.404,8.739c1.447,1.754 2.991,1.463 2.991,1.463c0,0 -1.836,-3.692 0,-8.05Z" style="fill:#110f0d;fill-opacity:0.1;"/><path d="M48.81,73.193c1.775,-4.214 5.052,-7.673 5.052,-7.673c0,0 -4.08,3.815 -7.608,5.113c-3.527,1.297 -7.993,-7.408 -7.993,-7.408c0,-0 1.136,5.011 2.154,7.816c0.57,1.571 4.111,7.172 5.404,8.739c1.447,1.754 2.991,1.463 2.991,1.463c0,0 -1.836,-3.692 0,-8.05Z" style="fill:#110f0d;fill-opacity:0.1;"/><path d="M48.81,73.193c1.775,-4.214 5.052,-7.673 5.052,-7.673c0,0 -4.08,3.815 -7.608,5.113c-3.527,1.297 -7.993,-7.408 -7.993,-7.408c0,-0 1.136,5.011 2.154,7.816c0.57,1.571 4.111,7.172 5.404,8.739c1.447,1.754 2.991,1.463 2.991,1.463c0,0 -1.836,-3.692 0,-8.05Z" style="fill:#110f0d;fill-opacity:0.1;"/><path d="M163.724,107.605c-1.777,-3.26 -4.455,-11.865 -4.455,-11.865c-0,1.68 7.898,13.423 10.163,11.457c2.328,-2.022 5.202,3.217 5.202,3.217c-0,0 -2.664,2.027 -3.234,2.21c-2.096,0.675 -2.775,1.517 -4.463,2.203c-1.268,0.516 -3.371,2.595 -3.031,2.966c0,-0 0.936,-8.136 -0.182,-10.188Z" style="fill:#110f0d;fill-opacity:0.1;"/><path d="M163.724,107.605c-1.777,-3.26 -4.455,-11.865 -4.455,-11.865c-0,1.68 7.898,13.423 10.163,11.457c2.328,-2.022 5.202,3.217 5.202,3.217c-0,0 -2.664,2.027 -3.234,2.21c-2.096,0.675 -2.775,1.517 -4.463,2.203c-1.268,0.516 -3.371,2.595 -3.031,2.966c0,-0 0.936,-8.136 -0.182,-10.188Z" style="fill:#110f0d;fill-opacity:0.1;"/><path d="M171.367,89.912c-1.913,0.122 -11.609,-6.503 -11.168,-7.712c-0.106,1.777 18.158,7.736 20.245,5.641c3.395,-3.408 4.737,2.233 4.737,2.233c-0,-0 -1.609,2.587 -2.93,3.758c-1.519,1.346 -2.29,1.259 -3.218,2.043c-0.975,0.822 -3.701,3.267 -3.42,3.666c0,0 -1.493,-9.804 -4.246,-9.629Z" style="fill:#110f0d;fill-opacity:0.1;"/><path d="M120.329,104.382c-0.314,1.222 -0.845,2.465 -0.647,3.667c1.143,6.946 1.051,7.953 1.346,11.972l-3.711,-12.191l-1.616,-2.545l4.628,-0.903Z" style="fill:#110f0d;fill-opacity:0.1;"/><path d="M120.329,104.382c-0.314,1.222 -0.845,2.465 -0.647,3.667c1.143,6.946 1.051,7.953 1.346,11.972l-3.711,-12.191l-1.616,-2.545l4.628,-0.903Z" style="fill:#110f0d;fill-opacity:0.1;"/><path d="M120.329,104.382c-0.314,1.222 -0.845,2.465 -0.647,3.667c1.143,6.946 1.051,7.953 1.346,11.972l-3.711,-12.191l-1.616,-2.545l4.628,-0.903Z" style="fill:#110f0d;fill-opacity:0.1;"/><path d="M73.891,104.046c0.313,1.223 0.845,2.466 0.647,3.668c-1.143,6.945 -1.051,7.953 -1.346,11.971l3.711,-12.191l1.616,-2.544l-4.628,-0.904Z" style="fill:#110f0d;fill-opacity:0.1;"/><path d="M73.891,104.046c0.313,1.223 0.845,2.466 0.647,3.668c-1.143,6.945 -1.051,7.953 -1.346,11.971l3.711,-12.191l1.616,-2.544l-4.628,-0.904Z" style="fill:#110f0d;fill-opacity:0.1;"/><path d="M73.891,104.046c0.313,1.223 0.845,2.466 0.647,3.668c-1.143,6.945 -1.051,7.953 -1.346,11.971l3.711,-12.191l1.616,-2.544l-4.628,-0.904Z" style="fill:#110f0d;fill-opacity:0.1;"/><path d="M48.465,84.556c-0.158,1.019 -1.177,4.578 -1.765,5.317c-3.395,4.265 -3.668,5.018 -5.32,7.676l7.416,-6.598l2.444,-1.043c-1.355,-1.223 -2.608,-3.194 -2.775,-5.352Z" style="fill:#110f0d;fill-opacity:0.1;"/></g><path d="M70.107,60.489c3.614,-1.827 7.066,-3.706 11.241,-4.771c27.092,-6.911 45.767,-4.758 53.856,4.771c2.629,3.098 4.489,6.365 6.893,9.378c10.576,13.253 9.504,22.093 -6.893,28.206c-11.636,4.337 -20.375,4.721 -32.549,5.705c-13.739,1.111 -25.847,-0.452 -32.548,-5.705c-15.216,-11.929 -24.337,-25.281 -0,-37.584Z" style="fill:#ab957b;"/><path d="M72.635,61.907c3.34,-1.688 6.53,-3.424 10.388,-4.409c25.034,-6.386 42.291,-4.396 49.765,4.409c2.429,2.862 4.148,5.882 6.37,8.666c9.772,12.246 8.782,20.415 -6.37,26.063c-10.752,4.008 -18.828,4.363 -30.076,5.272c-12.696,1.027 -23.884,-0.417 -30.077,-5.272c-14.06,-11.022 -22.488,-23.36 0,-34.729Z" style="fill:#492e17;fill-opacity:0.35;stroke:#948f8f;stroke-width:0.2px;"/><path d="M92.811,76.133c0.403,-0.203 7.51,-3.48 9.224,-3.934c3.792,-1.004 6.466,2.434 7.366,3.495c0.293,0.345 2.488,2.852 2.755,3.187c1.178,1.476 -1.047,2.998 -2.873,3.678c-1.296,0.483 -3.692,0.331 -5.048,0.44c-1.53,0.124 -6.217,-0.429 -6.963,-1.014c-1.695,-1.329 -7.171,-4.482 -4.461,-5.852Z" style="fill:#492e17;fill-opacity:0.42;"/><path d="M101.832,56.674c13.516,-1.278 23.067,1.234 27.956,6.994c2.181,2.57 3.725,5.282 5.72,7.781c8.775,10.997 7.885,18.332 -5.72,23.404c-9.654,3.598 -16.906,3.917 -27.007,4.734c-11.399,0.922 -21.446,-0.376 -27.006,-4.734c-12.625,-9.898 -20.193,-20.977 0,-31.185c2.999,-1.516 5.863,-3.075 9.328,-3.958c5.61,-1.432 10.786,-2.395 15.499,-2.911l0.515,-0.052c12.184,-0.824 21.408,1.602 27.223,7.771c-6.343,-7.473 -20.989,-9.162 -42.234,-3.742c-3.275,0.836 -5.981,2.309 -8.816,3.742c-19.085,9.648 -11.933,20.12 0,29.474c5.255,4.12 14.751,5.346 25.525,4.474c9.547,-0.772 16.401,-1.073 25.525,-4.474c12.859,-4.794 13.7,-11.726 5.406,-22.12c-1.885,-2.362 -3.344,-4.925 -5.406,-7.354c-4.631,-5.456 -14.918,-8.945 -27.738,-7.719l1.23,-0.125Z" style="fill:#492e17;fill-opacity:0.38;"/><path d="M101.91,60.526c11.086,-1.048 18.921,1.013 22.931,5.738c1.79,2.108 3.056,4.332 4.692,6.382c7.198,9.02 6.468,15.037 -4.692,19.197c-7.919,2.952 -13.867,3.213 -22.152,3.883c-9.351,0.756 -17.591,-0.308 -22.152,-3.883c-10.356,-8.118 -16.564,-17.206 -0,-25.579c2.46,-1.244 4.809,-2.523 7.651,-3.248c4.602,-1.174 8.847,-1.963 12.713,-2.387l0.422,-0.043c9.995,-0.676 16.432,1.758 21.202,6.819c-4.722,-5.699 -13.402,-7.019 -32.125,-3.733c-2.73,0.48 -7.227,3.446 -9.552,4.621c-15.655,7.914 -7.727,15.024 2.061,22.697c4.31,3.379 11.542,3.581 20.38,2.866c7.831,-0.634 12.832,-0.237 20.317,-3.027c10.548,-3.932 9.747,-9.568 2.945,-18.094c-1.547,-1.937 -2.555,-3.599 -4.246,-5.592c-3.799,-4.475 -10.888,-7.519 -21.404,-6.514l1.009,-0.103Z" style="fill:#492e17;fill-opacity:0.38;"/><path d="M102.014,65.626c7.87,-0.744 13.432,0.719 16.279,4.073c1.27,1.497 2.169,3.076 3.331,4.531c5.11,6.404 4.592,10.675 -3.331,13.629c-5.622,2.095 -9.845,2.281 -15.727,2.756c-6.638,0.537 -12.488,-0.218 -15.726,-2.756c-7.352,-5.764 -11.759,-12.215 -0,-18.16c1.746,-0.883 3.414,-1.791 5.431,-2.305c3.268,-0.834 6.282,-1.394 9.026,-1.695l0.3,-0.03c7.095,-0.48 10.775,0.951 14.161,4.543c-3.694,-4.352 -8.639,-5.123 -21.011,-1.967c-1.907,0.486 -4.768,2.305 -6.418,3.14c-11.114,5.618 -7.556,8.509 -0.607,13.956c3.06,2.399 8.27,4.132 14.545,3.624c5.559,-0.449 8.482,-0.511 13.795,-2.492c7.489,-2.791 8.113,-5.885 3.284,-11.937c-1.098,-1.376 -2.387,-2.909 -3.588,-4.324c-2.697,-3.177 -6.995,-5.227 -14.461,-4.513l0.717,-0.073Z" style="fill:#492e17;fill-opacity:0.38;"/></svg>