<?xml version="1.0" encoding="UTF-8" standalone="no"?><!DOCTYPE svg PUBLIC "-//W3C//DTD SVG 1.1//EN" "http://www.w3.org/Graphics/SVG/1.1/DTD/svg11.dtd"><svg width="100%" height="100%" viewBox="0 0 200 200" version="1.1" xmlns="http://www.w3.org/2000/svg" xmlns:xlink="http://www.w3.org/1999/xlink" xml:space="preserve" xmlns:serif="http://www.serif.com/" style="fill-rule:evenodd;clip-rule:evenodd;stroke-linejoin:round;stroke-miterlimit:2;"><path d="M142.337,20.807c-0,-7.029 -4.28,-10.265 -9.552,-7.221l-64.43,37.199c-5.272,3.043 -9.552,11.221 -9.552,18.25l0,112.444c0,7.029 4.28,10.264 9.552,7.22l64.43,-37.198c5.272,-3.044 9.552,-11.222 9.552,-18.25l-0,-112.444Z" style="fill:#d3d3d3;"/><path d="M139.465,13.357c0,0 -5.501,-5.178 -10.773,-2.134l-64.43,37.199c-5.272,3.043 -9.551,11.221 -9.551,18.25l-0,112.444c-0,7.029 7.301,9.992 7.301,9.992c-2.133,-1.202 -3.191,-4.202 -3.181,-7.031l-0.038,-113.315c-0.003,-6.967 4.539,-15.312 10.092,-18.303l63.579,-36.676c2.48,-1.416 4.98,-1.89 7.001,-0.426Z" style="fill:#d3d3d3;"/><path d="M139.465,13.357c0,0 -5.501,-5.178 -10.773,-2.134l-64.43,37.199c-5.272,3.043 -9.551,11.221 -9.551,18.25l-0,112.444c-0,7.029 7.301,9.992 7.301,9.992c-2.133,-1.202 -3.191,-4.202 -3.181,-7.031l-0.038,-113.315c-0.003,-6.967 4.539,-15.312 10.092,-18.303l63.579,-36.676c2.48,-1.416 4.98,-1.89 7.001,-0.426Z" style="fill:#898989;fill-opacity:0.49;"/><path d="M141.187,21.301c-0,-6.151 -3.745,-8.982 -8.358,-6.319l-64.556,37.272c-4.613,2.663 -8.358,9.819 -8.358,15.969l0,112.878c0,6.15 3.745,8.981 8.358,6.318l64.556,-37.272c4.613,-2.663 8.358,-9.818 8.358,-15.968l-0,-112.878Z" style="fill:#0f0f0f;"/><path d="M100.532,36.2c0.65,-0.375 1.177,-0.07 1.177,0.68c0,0.75 -0.527,1.664 -1.177,2.039c-0.65,0.375 -1.177,0.07 -1.177,-0.68c0,-0.75 0.527,-1.664 1.177,-2.039Z" style="fill:#5b5b5b;fill-opacity:0.49;"/><path d="M137.668,20.349l-74.242,42.864l-0,114.234l74.242,-42.864l-0,-114.234Z" style="fill:#bcd2d2;"/><path d="M137.668,20.349l-74.242,42.864l-0,114.234l74.242,-42.864l-0,-114.234Z" style="fill:#bcd2d2;"/><path d="M100.604,159.218c1.465,-0.845 2.654,-0.159 2.654,1.532c-0,1.691 -1.189,3.751 -2.654,4.596c-1.464,0.846 -2.653,0.159 -2.653,-1.532c-0,-1.691 1.189,-3.75 2.653,-4.596Z" style="fill:#5b5b5b;fill-opacity:0.47;"/></svg>