<?xml version="1.0" encoding="UTF-8" standalone="no"?><!DOCTYPE svg PUBLIC "-//W3C//DTD SVG 1.1//EN" "http://www.w3.org/Graphics/SVG/1.1/DTD/svg11.dtd"><svg width="100%" height="100%" viewBox="0 0 200 200" version="1.1" xmlns="http://www.w3.org/2000/svg" xmlns:xlink="http://www.w3.org/1999/xlink" xml:space="preserve" xmlns:serif="http://www.serif.com/" style="fill-rule:evenodd;clip-rule:evenodd;stroke-linejoin:round;stroke-miterlimit:2;"><g><path d="M124.551,147.006c-5.542,3.786 -13.859,2.698 -18.362,-0.035l-79.809,-46.041c-4.3,-2.21 -4.989,-4.888 -4.902,-6.216c-0,0 -0.891,7.239 4.148,10.148l80.599,46.534c5.039,2.909 12.671,3.225 17.035,0.706l53.328,-30.789c4.363,-2.519 2.933,-8.382 2.933,-8.382c-0.063,2.481 -2.61,3.797 -4.654,5.004l-50.316,29.071Z" style="fill:#d3d3d3;"/><path d="M124.551,147.006c-5.542,3.786 -13.859,2.698 -18.362,-0.035l-79.809,-46.041c-4.3,-2.21 -4.989,-4.888 -4.902,-6.216c-0,0 -0.891,7.239 4.148,10.148l80.599,46.534c5.039,2.909 12.671,3.225 17.035,0.706l53.328,-30.789c4.363,-2.519 2.933,-8.382 2.933,-8.382c-0.063,2.481 -2.61,3.797 -4.654,5.004l-50.316,29.071Z" style="fill:#848484;fill-opacity:0.53;"/><path d="M94.765,60.569c-5.038,-2.909 -12.671,-3.225 -17.034,-0.706l-53.328,30.789c-4.364,2.519 -3.816,6.926 1.223,9.835l80.599,46.534c5.039,2.909 12.671,3.225 17.035,0.706l53.328,-30.789c4.363,-2.519 3.815,-6.926 -1.223,-9.835l-80.6,-46.534Z" style="fill:#d3d3d3;"/><path d="M93.692,61.048c-4.409,-2.545 -11.087,-2.822 -14.905,-0.618l-53.433,30.85c-3.818,2.204 -3.338,6.06 1.07,8.605l80.911,46.714c4.409,2.545 11.087,2.822 14.905,0.618l53.433,-30.85c3.818,-2.204 3.338,-6.06 -1.07,-8.605l-80.911,-46.714Z" style="fill:#141414;"/><path d="M53.898,76.928c0.538,-0.311 1.411,-0.311 1.948,-0c0.538,0.31 0.538,0.815 0,1.125c-0.537,0.311 -1.41,0.311 -1.948,0c-0.538,-0.31 -0.538,-0.815 -0,-1.125Z" style="fill:#a9a9a9;fill-opacity:0.49;"/><path d="M88.641,61.495l-61.449,35.478l81.882,47.275l61.45,-35.478l-81.883,-47.275Z" style="fill:#bcd2d2;"/><path d="M142.166,127.821c1.212,-0.7 3.18,-0.7 4.393,0c1.212,0.7 1.212,1.836 -0,2.536c-1.213,0.7 -3.181,0.7 -4.393,0c-1.212,-0.7 -1.212,-1.836 0,-2.536Z" style="fill:#a9a9a9;fill-opacity:0.48;"/></g></svg>