<?xml version="1.0" encoding="UTF-8" standalone="no"?><!DOCTYPE svg PUBLIC "-//W3C//DTD SVG 1.1//EN" "http://www.w3.org/Graphics/SVG/1.1/DTD/svg11.dtd"><svg width="100%" height="100%" viewBox="0 0 200 200" version="1.1" xmlns="http://www.w3.org/2000/svg" xmlns:xlink="http://www.w3.org/1999/xlink" xml:space="preserve" xmlns:serif="http://www.serif.com/" style="fill-rule:evenodd;clip-rule:evenodd;stroke-linejoin:round;stroke-miterlimit:2;"><path d="M174.28,105.367c-14.159,9.46 -31.184,12.964 -35.875,8.183c-4.691,-4.78 8.125,-18.66 17.295,-27.658c9.169,-8.998 29.605,-3.394 31.93,3.026c1.233,3.404 -4.505,10.54 -13.35,16.449Z" style="fill:#ddd8c2;"/><path d="M187.393,88.382c0.093,0.178 0.172,0.356 0.237,0.536c1.233,3.404 -4.505,10.54 -13.35,16.449c-14.159,9.46 -31.184,12.964 -35.875,8.183c-1.64,-1.671 -1.141,-4.453 0.594,-7.751c0.152,0.583 0.435,1.1 0.867,1.54c4.691,4.78 21.716,1.277 35.875,-8.184c5.246,-3.504 9.399,-7.441 11.652,-10.773Z" style="fill:#848484;fill-opacity:0.14;"/><path d="M32.534,85.911c16.908,-0.883 32.783,3.686 33.904,9.055c1.121,5.37 -17.194,9.972 -29.77,12.598c-12.575,2.626 -26.077,-9.876 -24.339,-15.434c0.921,-2.947 9.643,-5.667 20.205,-6.219Z" style="fill:#ddd8c2;"/><path d="M58.715,89.141c4.389,1.603 7.269,3.649 7.723,5.825c1.121,5.37 -17.194,9.972 -29.77,12.598c-7.279,1.52 -14.867,-2.028 -19.632,-6.364c3.812,1.685 8.128,2.502 12.339,1.623c12.576,-2.626 30.891,-7.229 29.77,-12.598c-0.076,-0.366 -0.221,-0.727 -0.43,-1.084Z" style="fill:#818181;fill-opacity:0.21;"/><path d="M98.107,42.443c29.558,0 55.505,19.857 55.505,35.31c0,15.453 -33.094,40.675 -62.652,40.675c-29.558,-0 -49.862,-13.805 -47.43,-35.735c1.704,-15.359 25.018,-40.25 54.577,-40.25Z" style="fill:#4b8f46;"/><path d="M187.727,89.259c0.762,3.523 -4.888,10.39 -13.447,16.108c-14.159,9.46 -31.184,12.964 -35.875,8.183c-1.077,-1.097 -1.231,-2.675 -0.718,-4.563c0.085,0.841 0.397,1.569 0.976,2.159c4.691,4.781 21.716,1.277 35.876,-8.183c6.892,-4.605 11.898,-9.955 13.188,-13.704Z" style="fill:#848484;fill-opacity:0.14;"/><path d="M55.337,74.359l14.47,-12.075l7.415,-14.044l-3.701,14.036l24.643,10.962l19.879,-5.731l9.355,-15.723l-5.348,16.33l19.201,19.501l-21.834,-15.751l-18.634,4.033l-4.613,26.206l-0.774,-26.514l-22.93,-9.692l-17.129,8.462Z" style="fill:#fdfdfd;fill-opacity:0.27;"/><path d="M77.804,110.584c10.766,1.632 7.774,-4.856 19.966,-5.78c13.924,-1.055 11.628,7.238 23.799,3.872c10.337,-2.859 22.529,-16.456 28.602,-25.664c2.774,-4.206 2.349,-10.962 2.349,-10.962c-0.009,-1.85 12.135,0.304 12.15,12.722c0.014,10.381 -12.134,25.375 -12.513,26.237c-2.394,5.447 -11.298,11.71 -24.068,16.418c-9.3,3.429 -9.842,-4.909 -23.151,-0.779c-4.85,1.505 -13.104,8.56 -19.699,7.536c-19.954,-3.102 -42.941,-12.947 -50.504,-28.105c-2.354,-4.718 -1.655,-11.335 -0.738,-16.229c1.27,-6.772 9.519,-10.059 9.643,-7.536c0,0.012 -1.755,5.24 4.533,11.972c4.579,4.903 14.46,13.998 29.631,16.298Z" style="fill:#eaeaea;"/><path d="M162.434,76.761c1.322,1.989 2.232,4.616 2.236,8.011c0.014,10.381 -12.134,25.375 -12.513,26.237c-2.394,5.447 -11.298,11.71 -24.068,16.418c-9.3,3.429 -9.842,-4.909 -23.151,-0.779c-4.85,1.505 -13.104,8.56 -19.699,7.536c-19.954,-3.102 -42.941,-12.947 -50.504,-28.105c-0.125,-0.251 -0.242,-0.507 -0.35,-0.769c8.364,14.211 30.384,23.446 49.594,26.432c6.595,1.025 14.85,-6.031 19.699,-7.536c13.31,-4.13 13.851,4.208 23.151,0.779c12.77,-4.708 21.675,-10.97 24.069,-16.418c0.379,-0.862 12.526,-15.856 12.513,-26.237c-0.003,-2.155 -0.371,-4 -0.977,-5.569Zm-120.275,4.723c0.866,-0.09 1.449,0.173 1.481,0.83c0,0.006 -0.376,1.129 -0.156,3.001c-0.496,-0.744 -0.897,-1.46 -1.22,-2.139c-0.095,-0.65 -0.118,-1.218 -0.105,-1.692Z" style="fill:#868686;fill-opacity:0.2;"/><path d="M162.102,76.286c1.499,2.039 2.564,4.814 2.568,8.486c0.014,10.381 -12.134,25.375 -12.513,26.237c-2.394,5.447 -11.298,11.71 -24.068,16.418c-9.3,3.429 -9.842,-4.909 -23.151,-0.779c-4.85,1.505 -13.104,8.56 -19.699,7.536c-19.954,-3.102 -42.941,-12.947 -50.504,-28.105c-0.623,-1.248 -1.032,-2.629 -1.279,-4.075c8.521,14.003 30.33,23.107 49.376,26.067c6.595,1.025 14.849,-6.031 19.699,-7.535c13.309,-4.131 13.851,4.207 23.151,0.779c12.77,-4.708 21.674,-10.971 24.068,-16.418c0.379,-0.863 12.527,-15.857 12.514,-26.238c-0.001,-0.837 -0.058,-1.627 -0.162,-2.373Zm-120.485,5.291c1.158,-0.271 1.984,-0.049 2.023,0.737c0,0.006 -0.376,1.129 -0.156,3.001c-0.904,-1.357 -1.492,-2.616 -1.867,-3.738Z" style="fill:#868686;fill-opacity:0.2;"/><path d="M38.342,106.57c17.625,3.769 33.011,14.993 33.011,22.971c-0,7.977 -19.877,9.085 -33.41,9.085c-13.533,-0 -24.763,-21.812 -21.775,-29.208c1.585,-3.923 11.164,-5.203 22.174,-2.848Z" style="fill:#ddd8c2;"/><path d="M66.702,120.868c2.938,2.987 4.651,6.011 4.651,8.673c-0,7.977 -19.877,9.085 -33.41,9.085c-8.01,-0 -15.213,-7.642 -19.139,-15.412c3.963,4.887 9.159,8.607 14.748,8.607c13.533,0 33.41,-1.108 33.41,-9.085c-0,-0.606 -0.089,-1.23 -0.26,-1.868Z" style="fill:#757575;fill-opacity:0.14;"/><path d="M40.531,119.581c2.152,0.834 3.603,2.279 3.236,3.225c-0.366,0.946 -2.412,1.037 -4.564,0.204c-2.153,-0.834 -3.603,-2.279 -3.237,-3.226c0.367,-0.946 2.412,-1.037 4.565,-0.203Z"/><path d="M20.455,111.155c1.512,0.631 2.43,1.886 2.049,2.801c-0.382,0.915 -1.92,1.145 -3.432,0.514c-1.513,-0.63 -2.431,-1.886 -2.049,-2.801c0.382,-0.915 1.92,-1.145 3.432,-0.514Z"/><path d="M67.162,121.346c2.656,2.831 4.191,5.675 4.191,8.195c-0,7.977 -19.877,9.085 -33.41,9.085c-6.284,-0 -12.071,-4.703 -16.169,-10.482c3.822,4.304 8.626,7.446 13.762,7.446c13.533,-0 33.41,-1.108 33.41,-9.086c-0,-1.615 -0.631,-3.364 -1.784,-5.158Z" style="fill:#757575;fill-opacity:0.14;"/><path d="M103.979,155.291c-9.43,-15.36 -11.919,-34.241 -6.144,-39.745c5.775,-5.503 20.29,8.122 29.626,17.919c9.336,9.797 1.293,32.974 -6.123,35.913c-3.933,1.559 -11.468,-4.492 -17.359,-14.087Z" style="fill:#ddd8c2;"/><path d="M95.81,135.056c1.487,4.148 3.46,8.35 5.896,12.318c5.891,9.594 13.425,15.646 17.358,14.087c5.379,-2.132 11.086,-14.907 10.256,-25.504c6.239,10.762 -1.138,30.709 -7.982,33.421c-3.933,1.559 -11.468,-4.492 -17.359,-14.087c-4.016,-6.542 -6.773,-13.723 -8.169,-20.235Z" style="fill:#7b7b7b;fill-opacity:0.13;"/><path d="M130.953,139.991c2.917,11.085 -3.558,26.986 -9.615,29.387c-3.933,1.559 -11.468,-4.492 -17.359,-14.087c-4.016,-6.542 -6.773,-13.723 -8.169,-20.235c0.229,0.64 0.47,1.281 0.723,1.922c1.552,5.095 3.864,10.389 6.891,15.319c5.891,9.595 13.426,15.646 17.359,14.088c5.529,-2.192 11.407,-15.634 10.17,-26.394Z" style="fill:#7b7b7b;fill-opacity:0.13;"/></svg>