<?xml version="1.0" encoding="UTF-8" standalone="no"?><!DOCTYPE svg PUBLIC "-//W3C//DTD SVG 1.1//EN" "http://www.w3.org/Graphics/SVG/1.1/DTD/svg11.dtd"><svg width="100%" height="100%" viewBox="0 0 200 200" version="1.1" xmlns="http://www.w3.org/2000/svg" xmlns:xlink="http://www.w3.org/1999/xlink" xml:space="preserve" xmlns:serif="http://www.serif.com/" style="fill-rule:evenodd;clip-rule:evenodd;stroke-linejoin:round;stroke-miterlimit:2;"><path d="M41.006,68.697c-0,35.119 24.633,77.806 55.024,95.352c30.392,17.547 55.017,3.3 55.017,-31.819c0,-35.111 -24.625,-77.793 -55.017,-95.34c-30.391,-17.546 -55.024,-3.303 -55.024,31.807" style="fill:#ededed;fill-rule:nonzero;"/><path d="M41.006,68.608c-0,-35.144 24.708,-49.412 55.142,-31.84c30.434,17.571 55.142,60.369 55.142,95.513c0,35.144 -24.708,49.411 -55.142,31.84c-12.418,-7.169 -23.882,-18.538 -33.104,-31.874c-13.38,-19.348 -22.038,-42.835 -22.038,-63.639Zm5.465,3.155c0,31.686 22.241,70.209 49.682,86.051c27.44,15.843 49.675,2.998 49.675,-28.687c-0,-31.678 -22.235,-70.197 -49.675,-86.04c-27.441,-15.842 -49.682,-3.001 -49.682,28.676Z" style="fill:#1b1b1b;"/><path d="M132,169.267l0.229,0.378c0,0 0.693,-0.674 10.648,-6.421c9.959,-5.749 16.117,-18.08 16.117,-35.629c0,-35.085 -24.625,-77.746 -55.017,-95.293c-15.255,-8.807 -29.059,-9.611 -39.025,-3.789c-4.767,2.784 -6.639,3.846 -7.3,4.198l0.007,0.021c9.909,-5.414 23.446,-4.459 38.371,4.158c30.392,17.547 55.017,60.208 55.017,95.293c0,19.213 -7.381,32.172 -19.047,37.084Zm-74.369,-136.617c-0.083,0.054 -0.166,0.108 -0.247,0.166c-0.029,0.021 -0.002,0.032 0.031,0.017c0.023,-0.011 0.047,-0.023 0.071,-0.035c0.032,-0.017 0.065,-0.034 0.097,-0.05l0.069,-0.037l-0.021,-0.061Z" style="fill:#1b1b1b;fill-rule:nonzero;"/><path d="M132,169.074l0.229,0.378c0,-0 0.693,-0.675 10.648,-6.422c9.959,-5.748 16.117,-18.079 16.117,-35.629c0,-35.084 -24.625,-77.746 -55.017,-95.292c-15.255,-8.808 -29.059,-9.611 -39.025,-3.789c-4.767,2.784 -6.639,3.845 -7.3,4.197l0.007,0.021c9.909,-5.414 23.446,-4.458 38.371,4.159c30.392,17.546 55.017,60.208 55.017,95.292c0,19.214 -7.381,32.172 -19.047,37.085Zm-74.369,-136.618c-0.083,0.054 -0.166,0.108 -0.247,0.166c-0.029,0.021 -0.002,0.033 0.031,0.018c0.023,-0.012 0.047,-0.024 0.071,-0.035c0.032,-0.017 0.065,-0.034 0.097,-0.051l0.069,-0.037l-0.021,-0.061Z" style="fill:#a6a6a6;fill-opacity:0.29;fill-rule:nonzero;"/><path d="M88.689,98.704c0,-3.284 2.311,-4.616 5.157,-2.973c2.845,1.643 5.156,5.643 5.156,8.927c-0,3.284 -2.311,4.616 -5.156,2.973c-2.846,-1.643 -5.157,-5.643 -5.157,-8.927Z" style="fill:#818181;fill-opacity:0.48;"/><path d="M94.396,95.869c1.054,-7.063 1.898,-14.239 2.55,-21.533c0.382,-3.611 1.205,-6.975 0.703,-11.096c-0.532,-4.139 -1.376,-8.458 -3.444,-13.484l-0.753,-0.435c-2.039,2.662 -2.832,6.044 -3.335,9.585c-0.482,3.561 0.372,7.886 0.794,11.961c0.703,8.069 1.607,16.254 2.731,24.567l0.754,0.435Z" style="fill:#808080;fill-opacity:0.47;fill-rule:nonzero;"/><path d="M88.755,97.791c-4.364,-3.544 -8.734,-6.892 -13.098,-10.05c-2.305,-1.66 -4.597,-3.977 -6.895,-4.738c-2.305,-0.811 -4.597,-1.315 -6.895,-0.532l-0,0.765c2.305,3.434 4.596,5.583 6.901,7.419c2.299,1.885 4.597,2.218 6.895,3.208c4.343,1.857 8.686,3.53 13.028,5.005c-0.001,-0.055 -0.002,-0.11 -0.002,-0.164c0,-0.324 0.023,-0.628 0.066,-0.913Z" style="fill:#808080;fill-opacity:0.47;fill-rule:nonzero;"/><path d="M94.396,95.869c1.054,-7.063 1.898,-14.239 2.55,-21.533c0.382,-3.611 1.205,-6.975 0.703,-11.096c-0.532,-4.139 -1.376,-8.458 -3.444,-13.484l-0.753,-0.435c-2.039,2.662 -2.832,6.044 -3.335,9.585c-0.482,3.561 0.372,7.886 0.794,11.961c0.703,8.069 1.607,16.254 2.731,24.567l0.754,0.435Z" style="fill:#1b1b1b;fill-rule:nonzero;"/><path d="M88.755,97.791c-4.364,-3.544 -8.734,-6.892 -13.098,-10.05c-2.305,-1.66 -4.597,-3.977 -6.895,-4.738c-2.305,-0.811 -4.597,-1.315 -6.895,-0.532l-0,0.765c2.305,3.434 4.596,5.583 6.901,7.419c2.299,1.885 4.597,2.218 6.895,3.208c4.343,1.857 8.686,3.53 13.028,5.005c-0.001,-0.055 -0.002,-0.11 -0.002,-0.164c0,-0.324 0.023,-0.628 0.066,-0.913Z" style="fill:#1b1b1b;fill-rule:nonzero;"/><path d="M94.396,95.869c1.054,-7.063 1.898,-14.239 2.55,-21.533c0.382,-3.611 1.205,-6.975 0.703,-11.096c-0.532,-4.139 -1.376,-8.458 -3.444,-13.484l-0.753,-0.435c-2.039,2.662 -2.832,6.044 -3.335,9.585c-0.482,3.561 0.372,7.886 0.794,11.961c0.703,8.069 1.607,16.254 2.731,24.567l0.754,0.435Z" style="fill:#6f6f6f;fill-opacity:0.44;fill-rule:nonzero;"/><path d="M88.755,97.791c-4.364,-3.544 -8.734,-6.892 -13.098,-10.05c-2.305,-1.66 -4.597,-3.977 -6.895,-4.738c-2.305,-0.811 -4.597,-1.315 -6.895,-0.532l-0,0.765c2.305,3.434 4.596,5.583 6.901,7.419c2.299,1.885 4.597,2.218 6.895,3.208c4.343,1.857 8.686,3.53 13.028,5.005c-0.001,-0.055 -0.002,-0.11 -0.002,-0.164c0,-0.324 0.023,-0.628 0.066,-0.913Z" style="fill:#6f6f6f;fill-opacity:0.44;fill-rule:nonzero;"/><path d="M94.415,95.849l2.032,-1.142c1.054,-7.062 1.898,-14.238 2.551,-21.532c0.381,-3.611 1.205,-6.975 0.703,-11.097c-0.533,-4.139 -1.376,-8.457 -3.445,-13.483l-2.604,0.538c-0.012,0.096 -0.025,0.19 -0.037,0.282l0.59,0.341c2.068,5.026 2.912,9.345 3.444,13.484c0.502,4.121 -0.321,7.485 -0.703,11.096c-0.649,7.257 -2.566,21.472 -2.566,21.472l0.035,0.041Z" style="fill:#1b1b1b;fill-rule:nonzero;"/><path d="M89.672,95.778c-3.747,-2.994 -7.497,-5.844 -11.242,-8.555c-2.305,-1.66 -4.596,-3.977 -6.895,-4.738c-2.305,-0.811 -4.596,-1.315 -6.895,-0.531l0,0.133c1.373,0.057 2.745,0.432 4.122,0.916c2.298,0.761 4.59,3.078 6.895,4.738c4.364,3.158 8.734,6.506 13.098,10.05c0.131,-0.863 0.452,-1.543 0.917,-2.013Z" style="fill:#1b1b1b;fill-rule:nonzero;"/><path d="M88.689,98.704c0,-3.284 2.311,-4.616 5.157,-2.973c2.845,1.643 5.156,5.643 5.156,8.927c-0,3.284 -2.311,4.616 -5.156,2.973c-2.846,-1.643 -5.157,-5.643 -5.157,-8.927Z" style="fill:#1b1b1b;"/><path d="M93.428,93.829c-0.403,0.044 -0.776,0.159 -1.119,0.325c-0.9,0.437 -1.989,1.115 -1.989,1.115l0.016,0.028c0.92,-0.456 2.154,-0.349 3.51,0.434c2.845,1.643 5.156,5.643 5.156,8.927c-0,1.751 -0.657,2.947 -1.702,3.433l0.009,0.016c-0,0 1.514,-0.834 2.453,-1.429c0.883,-0.558 1.425,-1.691 1.425,-3.282c-0,-3.129 -2.098,-6.908 -4.758,-8.679l-2.033,1.152l-0.754,-0.435c-0.072,-0.536 -0.144,-1.07 -0.214,-1.605Z" style="fill:#1b1b1b;"/><path d="M94.396,95.869c1.054,-7.063 1.898,-14.239 2.55,-21.533c0.382,-3.611 1.205,-6.975 0.703,-11.096c-0.532,-4.139 -1.376,-8.458 -3.444,-13.484l-0.753,-0.435c-2.039,2.662 -2.832,6.044 -3.335,9.585c-0.482,3.561 0.372,7.886 0.794,11.961c0.703,8.069 1.607,16.254 2.731,24.567l0.754,0.435Z" style="fill:#1b1b1b;fill-rule:nonzero;"/><path d="M88.755,97.791c-4.364,-3.544 -8.734,-6.892 -13.098,-10.05c-2.305,-1.66 -4.597,-3.977 -6.895,-4.738c-2.305,-0.811 -4.597,-1.315 -6.895,-0.532l-0,0.765c2.305,3.434 4.596,5.583 6.901,7.419c2.299,1.885 4.597,2.218 6.895,3.208c4.343,1.857 8.686,3.53 13.028,5.005c-0.001,-0.055 -0.002,-0.11 -0.002,-0.164c0,-0.324 0.023,-0.628 0.066,-0.913Z" style="fill:#1b1b1b;fill-rule:nonzero;"/><path d="M94.396,95.869c1.054,-7.063 1.898,-14.239 2.55,-21.533c0.382,-3.611 1.205,-6.975 0.703,-11.096c-0.532,-4.139 -1.376,-8.458 -3.444,-13.484l-0.753,-0.435c-2.039,2.662 -2.832,6.044 -3.335,9.585c-0.482,3.561 0.372,7.886 0.794,11.961c0.703,8.069 1.607,16.254 2.731,24.567l0.754,0.435Z" style="fill:#6f6f6f;fill-opacity:0.44;fill-rule:nonzero;"/><path d="M88.755,97.791c-4.364,-3.544 -8.734,-6.892 -13.098,-10.05c-2.305,-1.66 -4.597,-3.977 -6.895,-4.738c-2.305,-0.811 -4.597,-1.315 -6.895,-0.532l-0,0.765c2.305,3.434 4.596,5.583 6.901,7.419c2.299,1.885 4.597,2.218 6.895,3.208c4.343,1.857 8.686,3.53 13.028,5.005c-0.001,-0.055 -0.002,-0.11 -0.002,-0.164c0,-0.324 0.023,-0.628 0.066,-0.913Z" style="fill:#6f6f6f;fill-opacity:0.44;fill-rule:nonzero;"/><path d="M94.415,95.849l2.032,-1.142c1.054,-7.062 1.898,-14.238 2.551,-21.532c0.381,-3.611 1.205,-6.975 0.703,-11.097c-0.533,-4.139 -1.376,-8.457 -3.445,-13.483l-2.604,0.538c-0.012,0.096 -0.025,0.19 -0.037,0.282l0.59,0.341c2.068,5.026 2.912,9.345 3.444,13.484c0.502,4.121 -0.321,7.485 -0.703,11.096c-0.649,7.257 -2.566,21.472 -2.566,21.472l0.035,0.041Z" style="fill:#1b1b1b;fill-rule:nonzero;"/><path d="M89.672,95.778c-3.747,-2.994 -7.497,-5.844 -11.242,-8.555c-2.305,-1.66 -4.596,-3.977 -6.895,-4.738c-2.305,-0.811 -4.596,-1.315 -6.895,-0.531l0,0.133c1.373,0.057 2.745,0.432 4.122,0.916c2.298,0.761 4.59,3.078 6.895,4.738c4.364,3.158 8.734,6.506 13.098,10.05c0.131,-0.863 0.452,-1.543 0.917,-2.013Z" style="fill:#1b1b1b;fill-rule:nonzero;"/><path d="M88.689,98.704c0,-1.712 0.628,-2.893 1.631,-3.399c0.923,-0.466 2.163,-0.361 3.526,0.426c2.845,1.643 5.156,5.643 5.156,8.927c-0,2.384 -1.219,3.74 -2.975,3.674c-0.663,-0.024 -1.402,-0.251 -2.181,-0.701c-2.846,-1.643 -5.157,-5.643 -5.157,-8.927Z" style="fill:#1b1b1b;"/><path d="M93.428,93.829c-0.403,0.044 -0.776,0.159 -1.119,0.325c-0.9,0.437 -1.989,1.115 -1.989,1.115l0.016,0.028c0.92,-0.456 2.154,-0.349 3.51,0.434c2.845,1.643 5.156,5.643 5.156,8.927c-0,1.751 -0.657,2.947 -1.702,3.433l0.009,0.016c-0,0 1.514,-0.834 2.453,-1.429c0.883,-0.558 1.425,-1.691 1.425,-3.282c-0,-3.129 -2.098,-6.908 -4.758,-8.679l-2.033,1.152l-0.754,-0.435c-0.072,-0.536 -0.144,-1.07 -0.214,-1.605Z" style="fill:#5b5b5b;fill-opacity:0.62;"/><path d="M49.915,52.725c-2.223,5.228 -3.444,11.616 -3.444,19.038c0,20.616 9.415,44.126 23.552,62.401c7.591,9.812 16.543,18.115 26.13,23.65c6.618,3.821 12.934,5.974 18.711,6.595c-3.52,-1.216 -7.16,-2.89 -10.887,-5.042c-16.635,-9.604 -31.545,-26.734 -41.634,-46.029c-8.344,-15.956 -13.39,-33.391 -13.39,-49.276c-0,-4.064 0.33,-7.848 0.962,-11.337Zm-8.909,15.905l-0,0.02c-0,18.242 6.655,38.529 17.315,56.269c-10.656,-17.763 -17.31,-38.055 -17.315,-56.289Z" style="fill:#1b1b1b;fill-rule:nonzero;"/><path d="M49.915,52.5c-2.223,5.229 -3.444,11.617 -3.444,19.039c0,20.615 9.415,44.125 23.552,62.4c7.591,9.813 16.543,18.116 26.13,23.651c6.618,3.821 12.934,5.973 18.711,6.595c-3.52,-1.216 -7.16,-2.89 -10.887,-5.042c-16.635,-9.605 -31.545,-26.735 -41.634,-46.03c-8.344,-15.955 -13.39,-33.391 -13.39,-49.276c-0,-4.064 0.33,-7.848 0.962,-11.337Zm-8.909,15.906l-0,0.02c-0,18.241 6.655,38.528 17.315,56.268c-10.656,-17.762 -17.31,-38.055 -17.315,-56.288Z" style="fill:#747474;fill-opacity:0.55;fill-rule:nonzero;"/></svg>