<?xml version="1.0" encoding="UTF-8" standalone="no"?><!DOCTYPE svg PUBLIC "-//W3C//DTD SVG 1.1//EN" "http://www.w3.org/Graphics/SVG/1.1/DTD/svg11.dtd"><svg width="100%" height="100%" viewBox="0 0 200 200" version="1.1" xmlns="http://www.w3.org/2000/svg" xmlns:xlink="http://www.w3.org/1999/xlink" xml:space="preserve" xmlns:serif="http://www.serif.com/" style="fill-rule:evenodd;clip-rule:evenodd;stroke-linejoin:round;stroke-miterlimit:2;"><path d="M175.716,180.71l-146.395,-84.521l-5.02,2.898l0.027,0.016l0,7.892l146.388,84.517l-0,0.017l5.003,-2.888l-0,-7.932l-0.003,0.001Zm-5.013,2.898l0.013,0.007l-0,-0.015l-0.013,0.008Z" style="fill:#673d18;"/><path d="M175.699,100.918l-146.358,-84.499l0,79.788l146.358,84.499l-0,-79.788Z" style="fill:#673d18;"/><path d="M175.689,92.992l-146.395,-84.521l-5.02,2.898l0.027,0.015l0,7.892l146.388,84.517l-0,0.018l5.003,-2.888l-0,-7.933l-0.003,0.002Zm-5.013,2.897l0.013,0.008l-0,-0.015l-0.013,0.007Z" style="fill:#673d18;"/><g><path d="M175.679,92.998l-146.368,-84.506l-5.01,2.892l146.388,84.517l-0,7.91l5.003,-2.888l-0,-7.91l0.007,-0.004l-0.007,-0.004l-0,-0.015l-0.013,0.008Z" style="fill:#888;fill-opacity:0.11;"/><path d="M175.679,92.998l-146.368,-84.506l-5.01,2.892l146.388,84.517l5.01,-2.892l-0.007,-0.004l-0,-0.015l-0.013,0.008Z" style="fill:#888;fill-opacity:0.11;"/><path d="M175.706,180.716l-146.368,-84.506l-5.01,2.893l146.388,84.517l-0,7.909l5.003,-2.888l-0,-7.91l0.007,-0.004l-0.007,-0.004l-0,-0.014l-0.013,0.007Z" style="fill:#888;fill-opacity:0.11;"/><path d="M175.706,180.716l-146.368,-84.506l-5.01,2.893l146.388,84.517l5.01,-2.893l-0.007,-0.004l-0,-0.014l-0.013,0.007Z" style="fill:#888;fill-opacity:0.11;"/><path d="M44.538,31.144l-15.197,-8.773l0,73.64l15.197,8.774l-0,-73.641Z" style="fill:#888;fill-opacity:0.11;"/><path d="M62.736,41.651l-15.197,-8.774l0,73.641l15.197,8.773l-0,-73.64Z" style="fill:#888;fill-opacity:0.11;"/><path d="M80.934,52.157l-15.197,-8.773l0,73.64l15.197,8.774l-0,-73.641Z" style="fill:#888;fill-opacity:0.11;"/><path d="M99.132,62.664l-15.197,-8.774l0,73.641l15.197,8.774l-0,-73.641Z" style="fill:#888;fill-opacity:0.11;"/><path d="M117.33,73.171l-15.197,-8.774l0,73.64l15.197,8.774l-0,-73.64Z" style="fill:#888;fill-opacity:0.11;"/><path d="M135.528,83.677l-15.197,-8.773l0,73.64l15.197,8.774l-0,-73.641Z" style="fill:#888;fill-opacity:0.11;"/><path d="M153.726,94.184l-15.197,-8.774l0,73.641l15.197,8.773l-0,-73.64Z" style="fill:#888;fill-opacity:0.11;"/><path d="M171.924,103.098l-1.285,0.742l-13.912,-7.923l0,73.64l15.197,8.774l-0,-75.233Z" style="fill:#888;fill-opacity:0.11;"/></g></svg>