<?xml version="1.0" encoding="UTF-8" standalone="no"?>
<!DOCTYPE svg PUBLIC "-//W3C//DTD SVG 1.1//EN" "http://www.w3.org/Graphics/SVG/1.1/DTD/svg11.dtd">
<svg width="100%" height="100%" viewBox="0 0 200 200" version="1.1" xmlns="http://www.w3.org/2000/svg" xmlns:xlink="http://www.w3.org/1999/xlink" xml:space="preserve" xmlns:serif="http://www.serif.com/" style="fill-rule:evenodd;clip-rule:evenodd;stroke-linejoin:round;stroke-miterlimit:2;">
    <g transform="matrix(5.87568,0,0,5.87568,-8611.4,-2583.97)">
        <path d="M1490.61,449.716C1491.02,449.897 1491.4,450.093 1491.77,450.305C1492.13,450.518 1492.48,450.74 1492.79,450.973L1492.79,450.973L1492.79,453.748C1492.85,453.863 1492.9,453.978 1492.95,454.095L1495.39,454.596C1495.52,455.186 1495.45,459.265 1495.39,459.566L1495.39,459.566L1495.39,459.566L1495.39,459.566L1495.39,459.566L1492.95,460.073L1492.95,460.071C1492.9,460.182 1492.85,460.295 1492.79,460.411L1492.79,460.413L1492.79,463.193C1492.48,463.426 1492.14,463.648 1491.77,463.859C1491.41,464.068 1491,464.267 1490.61,464.444L1490.61,464.453L1488.27,463.812L1488.27,463.813C1487.31,464.155 1486.27,464.401 1485.2,464.543L1485.2,464.542L1484.33,465.949L1484.33,465.951C1483.83,465.987 1483.32,466.005 1482.81,466.006L1484.33,465.951C1483.31,466.024 1482.27,466.024 1481.25,465.948L1480.38,464.54C1479.31,464.398 1478.27,464.152 1477.31,463.81L1474.97,464.45L1474.97,464.435L1474.97,464.45L1474.96,464.448C1474.56,464.268 1474.18,464.071 1473.81,463.859C1473.45,463.649 1473.11,463.429 1472.8,463.198L1472.79,460.413C1472.73,460.297 1472.68,460.183 1472.64,460.071L1472.64,460.073L1470.19,459.566L1470.19,459.559C1470.13,459.258 1470.1,458.958 1470.1,458.662L1470.09,455.467L1470.1,455.467L1470.1,455.465C1470.1,455.175 1470.13,454.884 1470.19,454.596L1472.64,454.095C1472.68,453.982 1472.73,453.87 1472.79,453.758L1472.8,450.974L1472.79,450.973C1473.11,450.741 1473.45,450.518 1473.82,450.305C1474.18,450.093 1474.57,449.897 1474.97,449.716L1477.31,450.356C1478.27,450.014 1479.31,449.77 1480.38,449.625L1481.25,448.215C1481.76,448.177 1482.28,448.159 1482.79,448.159L1481.25,448.215C1482.27,448.14 1483.31,448.14 1484.34,448.215L1485.2,449.625C1486.28,449.77 1487.31,450.014 1488.27,450.356L1490.61,449.716ZM1490.61,464.379L1490.61,464.383L1490.61,464.379Z" style="fill:rgb(224,222,222);"/>
    </g>
    <g transform="matrix(5.87568,0,0,5.87568,-11847.7,-545.283)">
        <g>
            <g transform="matrix(1,0,0,1,550.803,-346.971)">
                <path d="M1470.19,459.559L1470.19,456.376L1470.19,456.373C1470.13,456.072 1470.1,455.77 1470.1,455.467L1470.09,455.467L1470.1,458.662C1470.1,458.958 1470.13,459.258 1470.19,459.559Z" style="fill:rgb(135,135,135);fill-opacity:0.18;"/>
            </g>
            <g transform="matrix(1,0,0,1,550.803,-346.971)">
                <path d="M1470.19,456.376L1470.19,456.376L1470.19,459.566L1472.64,460.073L1472.64,456.881L1470.19,456.376Z" style="fill:rgb(135,135,135);fill-opacity:0.18;"/>
            </g>
            <g transform="matrix(-1,0,0,1,3516.39,-346.971)">
                <path d="M1470.19,456.376L1470.19,456.376L1470.19,459.566L1472.64,460.073L1472.64,456.881L1470.19,456.376Z" style="fill:rgb(135,135,135);fill-opacity:0.18;"/>
            </g>
            <g transform="matrix(1,0,0,1,550.803,-346.971)">
                <path d="M1492.79,460.003L1492.79,460.413C1492.85,460.297 1492.9,460.183 1492.95,460.071L1492.95,457.284L1492.95,456.881C1492.95,456.881 1492.93,456.93 1492.9,456.981C1492.89,457.025 1492.87,457.07 1492.86,457.083C1492.6,457.63 1492.21,458.158 1491.68,458.651L1492.79,460.003Z" style="fill:rgb(135,135,135);fill-opacity:0.18;fill-rule:nonzero;"/>
            </g>
            <g transform="matrix(1,0,0,1,550.803,-346.971)">
                <path d="M1492.79,460.003L1492.79,460.413C1492.85,460.297 1492.9,460.183 1492.95,460.071L1492.95,457.284L1492.95,456.881C1492.95,456.881 1492.93,456.93 1492.9,456.981C1492.89,457.025 1492.87,457.07 1492.86,457.083C1492.6,457.63 1492.21,458.158 1491.68,458.651L1492.79,460.003Z" style="fill:rgb(135,135,135);fill-opacity:0.18;fill-rule:nonzero;"/>
            </g>
            <g transform="matrix(-1,0,0,1,3516.39,-346.971)">
                <path d="M1492.79,460.003L1492.79,460.413C1492.85,460.297 1492.9,460.183 1492.95,460.071L1492.95,457.284L1492.95,456.881C1492.95,456.881 1492.93,456.93 1492.9,456.981C1492.89,457.025 1492.87,457.07 1492.86,457.083C1492.6,457.63 1492.21,458.158 1491.68,458.651L1492.79,460.003Z" style="fill:rgb(135,135,135);fill-opacity:0.18;fill-rule:nonzero;"/>
            </g>
            <g transform="matrix(1,0,0,1,550.803,-346.971)">
                <path d="M1492.79,450.973L1491.68,452.325C1492.16,452.774 1492.53,453.254 1492.79,453.748L1492.79,450.973Z" style="fill:rgb(135,135,135);fill-opacity:0.18;"/>
            </g>
            <g transform="matrix(1,0,0,1,550.803,-346.971)">
                <path d="M1472.8,450.974L1472.79,453.758C1473.05,453.26 1473.42,452.778 1473.9,452.325L1472.8,450.974Z" style="fill:rgb(135,135,135);fill-opacity:0.18;"/>
            </g>
            <g transform="matrix(1,0,0,1,550.803,-346.971)">
                <path d="M1481.25,465.948C1482.27,466.024 1483.31,466.024 1484.33,465.951L1484.33,465.951L1484.33,462.761C1483.32,462.834 1482.29,462.834 1481.28,462.761L1481.25,462.759L1481.25,465.948Z" style="fill:rgb(135,135,135);fill-opacity:0.18;"/>
            </g>
            <g transform="matrix(1,0,0,1,550.803,-346.971)">
                <path d="M1480.38,461.351L1480.38,464.54L1481.25,465.948L1481.25,465.948L1481.25,465.948L1481.25,462.759L1480.38,461.351Z" style="fill:rgb(135,135,135);fill-opacity:0.18;fill-rule:nonzero;"/>
            </g>
            <g transform="matrix(-1,0,0,1,3516.38,-346.971)">
                <path d="M1480.38,461.351L1480.38,464.54L1481.25,465.948L1481.25,465.948L1481.25,465.948L1481.25,462.761L1480.38,461.351Z" style="fill:rgb(135,135,135);fill-opacity:0.18;fill-rule:nonzero;"/>
            </g>
            <g transform="matrix(-1,0,0,1,3516.38,-346.971)">
                <path d="M1480.38,461.351L1480.38,464.54L1481.25,465.948L1481.25,465.948L1481.25,465.948L1481.25,462.761L1480.38,461.351Z" style="fill:rgb(135,135,135);fill-opacity:0.18;fill-rule:nonzero;"/>
            </g>
            <g transform="matrix(1,0,0,1,550.803,-346.971)">
                <path d="M1477.31,463.81L1477.31,460.62L1474.97,461.261L1474.97,464.45L1474.97,464.45L1477.31,463.809L1477.31,463.81Z" style="fill:rgb(135,135,135);fill-opacity:0.18;"/>
            </g>
            <g transform="matrix(1,0,0,1,550.803,-346.971)">
                <path d="M1477.31,463.81L1477.31,460.62L1474.97,461.261L1474.97,464.45L1474.97,464.45L1477.31,463.809L1477.31,463.81Z" style="fill:rgb(135,135,135);fill-opacity:0.18;"/>
            </g>
            <g transform="matrix(-1,0,0,1,3516.38,-346.968)">
                <path d="M1477.31,463.81L1477.31,460.62L1474.97,461.261L1474.97,464.45L1474.97,464.45L1477.31,463.809L1477.31,463.81Z" style="fill:rgb(135,135,135);fill-opacity:0.18;"/>
            </g>
            <g transform="matrix(-1,0,0,1,3516.39,-346.971)">
                <path d="M1492.79,460.003L1492.79,460.413C1492.85,460.297 1492.9,460.183 1492.95,460.071L1492.95,457.284L1492.95,456.881C1492.95,456.881 1492.93,456.93 1492.9,456.981C1492.89,457.025 1492.87,457.07 1492.86,457.083C1492.6,457.63 1492.21,458.158 1491.68,458.651L1492.79,460.003Z" style="fill:rgb(135,135,135);fill-opacity:0.18;fill-rule:nonzero;"/>
            </g>
            <g transform="matrix(1,0,0,1,550.803,-346.971)">
                <path d="M1480.38,461.351L1480.38,464.54L1481.25,465.948L1481.25,465.948L1481.25,465.948L1481.25,462.759L1480.38,461.351Z" style="fill:rgb(135,135,135);fill-opacity:0.18;fill-rule:nonzero;"/>
            </g>
            <g transform="matrix(-1,0,0,1,3516.38,-346.968)">
                <path d="M1477.31,463.81L1477.31,460.62L1474.97,461.261L1474.97,464.45L1474.97,464.45L1477.31,463.809L1477.31,463.81Z" style="fill:rgb(135,135,135);fill-opacity:0.18;"/>
            </g>
            <g transform="matrix(1,0,0,1,550.803,-346.971)">
                <path d="M1492.79,463.193L1492.79,460.003C1492.48,460.236 1492.14,460.458 1491.77,460.67C1491.41,460.878 1491,461.087 1490.61,461.264L1490.61,464.444C1491,464.267 1491.41,464.068 1491.77,463.859C1492.14,463.648 1492.48,463.426 1492.79,463.193Z" style="fill:rgb(135,135,135);fill-opacity:0.18;"/>
            </g>
            <g transform="matrix(1,0,0,1,550.803,-346.971)">
                <path d="M1472.8,460.008L1472.79,460.004L1472.8,463.187L1472.8,463.198C1473.11,463.429 1473.45,463.649 1473.81,463.859C1474.18,464.071 1474.56,464.268 1474.96,464.448L1474.97,464.45L1474.97,461.261L1474.96,461.258C1474.56,461.078 1474.18,460.882 1473.81,460.67C1473.45,460.459 1473.11,460.239 1472.8,460.008Z" style="fill:rgb(135,135,135);fill-opacity:0.18;"/>
            </g>
            <g transform="matrix(-1,0,0,1,3516.39,-346.964)">
                <path d="M1470.19,459.559L1470.19,456.376L1470.19,456.373C1470.13,456.072 1470.1,455.77 1470.1,455.467L1470.09,455.467L1470.1,458.662C1470.1,458.958 1470.13,459.258 1470.19,459.559Z" style="fill:rgb(135,135,135);fill-opacity:0.18;"/>
            </g>
            <g transform="matrix(1,0,0,1,550.803,-346.971)">
                <path d="M1477.31,460.62L1477.31,463.81C1478.27,464.152 1479.31,464.398 1480.38,464.54L1480.38,464.54L1480.38,462.339L1480.38,462.339L1480.38,461.351C1479.31,461.209 1478.27,460.963 1477.31,460.62Z" style="fill:rgb(135,135,135);fill-opacity:0.18;fill-rule:nonzero;"/>
            </g>
            <g transform="matrix(1,0,0,1,550.803,-346.971)">
                <path d="M1477.31,460.62L1477.31,463.81C1478.27,464.152 1479.31,464.398 1480.38,464.54L1480.38,464.54L1480.38,462.339L1480.38,462.339L1480.38,461.351C1479.31,461.209 1478.27,460.963 1477.31,460.62Z" style="fill:rgb(135,135,135);fill-opacity:0.18;fill-rule:nonzero;"/>
            </g>
            <g transform="matrix(1,0,0,1,550.803,-346.971)">
                <path d="M1477.31,460.62L1477.31,463.81C1478.27,464.152 1479.31,464.398 1480.38,464.54L1480.38,464.54L1480.38,462.339L1480.38,462.339L1480.38,461.351C1479.31,461.209 1478.27,460.963 1477.31,460.62Z" style="fill:rgb(135,135,135);fill-opacity:0.18;fill-rule:nonzero;"/>
            </g>
            <g transform="matrix(-1,0,0,1,3516.38,-346.968)">
                <path d="M1477.31,460.62L1477.31,463.81C1478.27,464.152 1479.31,464.398 1480.38,464.54L1480.38,464.54L1480.38,462.339L1480.38,462.339L1480.38,461.351C1479.31,461.209 1478.27,460.963 1477.31,460.62Z" style="fill:rgb(135,135,135);fill-opacity:0.18;fill-rule:nonzero;"/>
            </g>
            <g transform="matrix(-1,0,0,1,3516.38,-346.968)">
                <path d="M1477.31,460.62L1477.31,463.81C1478.27,464.152 1479.31,464.398 1480.38,464.54L1480.38,464.54L1480.38,462.339L1480.38,462.339L1480.38,461.351C1479.31,461.209 1478.27,460.963 1477.31,460.62Z" style="fill:rgb(135,135,135);fill-opacity:0.18;fill-rule:nonzero;"/>
            </g>
            <g transform="matrix(-1,0,0,1,3516.38,-346.968)">
                <path d="M1477.31,460.62L1477.31,463.81C1478.27,464.152 1479.31,464.398 1480.38,464.54L1480.38,464.54L1480.38,462.339L1480.38,462.339L1480.38,461.351C1479.31,461.209 1478.27,460.963 1477.31,460.62Z" style="fill:rgb(135,135,135);fill-opacity:0.18;fill-rule:nonzero;"/>
            </g>
        </g>
    </g>
</svg>
