<?xml version="1.0" encoding="UTF-8" standalone="no"?>
<!DOCTYPE svg PUBLIC "-//W3C//DTD SVG 1.1//EN" "http://www.w3.org/Graphics/SVG/1.1/DTD/svg11.dtd">
<svg width="100%" height="100%" viewBox="0 0 200 200" version="1.1" xmlns="http://www.w3.org/2000/svg" xmlns:xlink="http://www.w3.org/1999/xlink" xml:space="preserve" xmlns:serif="http://www.serif.com/" style="fill-rule:evenodd;clip-rule:evenodd;stroke-linejoin:round;stroke-miterlimit:2;">
    <g>
        <g transform="matrix(3.25813,0,0,3.25813,-4946.77,-1445.07)">
            <path d="M1549.21,458.537C1550.15,458.537 1551.09,458.571 1552.02,458.64L1553.6,461.21C1555.56,461.473 1557.44,461.918 1559.19,462.542L1563.46,461.375C1564.19,461.705 1564.89,462.062 1565.56,462.448C1566.23,462.836 1566.85,463.241 1567.42,463.666L1567.42,468.722C1567.53,468.931 1567.63,469.142 1567.71,469.354L1572.16,470.267C1572.39,471.343 1572.28,478.776 1572.16,479.324L1567.71,480.248L1567.71,480.244C1567.63,480.447 1567.54,480.653 1567.43,480.863L1567.42,480.868L1567.42,485.933C1566.85,486.358 1566.24,486.762 1565.57,487.148C1564.91,487.527 1564.16,487.891 1563.45,488.214L1563.45,488.229L1559.18,487.062L1559.18,487.062C1557.43,487.687 1555.54,488.135 1553.6,488.394L1553.6,488.392L1552.01,490.955L1552.01,490.959L1551.92,490.965L1551.84,490.971L1551.75,490.977L1551.66,490.983L1551.57,490.988L1551.49,490.993L1551.4,490.998L1551.31,491.003L1551.22,491.008L1551.13,491.012L1551.05,491.016L1550.96,491.02L1550.87,491.024L1550.78,491.028L1550.7,491.031L1550.61,491.034L1550.52,491.037L1550.43,491.04L1550.34,491.043L1550.26,491.045L1550.17,491.047L1550.08,491.049L1549.99,491.051L1549.9,491.053L1549.82,491.054L1549.73,491.055L1549.64,491.056L1549.55,491.057L1549.47,491.058L1549.38,491.058L1549.29,491.059L1549.25,491.059L1549.31,491.058L1549.36,491.058L1549.4,491.058L1549.48,491.058L1549.57,491.057L1549.66,491.056L1549.75,491.055L1549.83,491.054L1549.92,491.052L1550.01,491.051L1550.1,491.049L1550.18,491.047L1550.27,491.045L1550.36,491.042L1550.44,491.04L1550.53,491.037L1550.62,491.034L1550.71,491.031L1550.79,491.027L1550.88,491.024L1550.97,491.02L1551.05,491.016L1551.14,491.012L1551.23,491.007L1551.32,491.003L1551.4,490.998L1551.49,490.993L1551.58,490.988L1551.66,490.982L1551.75,490.977L1551.84,490.971L1551.92,490.965L1552.01,490.959L1549.25,491.059C1548.29,491.059 1547.34,491.024 1546.4,490.954L1544.81,488.389C1542.87,488.13 1540.97,487.682 1539.22,487.057L1534.96,488.225L1534.95,488.197L1534.95,488.225L1534.95,488.22C1534.21,487.892 1533.52,487.534 1532.85,487.148C1532.18,486.765 1531.57,486.364 1531,485.942L1530.99,480.868C1530.88,480.656 1530.79,480.449 1530.7,480.245L1530.7,480.248L1526.25,479.324L1526.25,479.311C1526.14,478.763 1526.07,478.217 1526.08,477.677L1526.07,471.855L1526.08,471.855L1526.08,471.852C1526.08,471.322 1526.14,470.793 1526.25,470.267L1530.7,469.355C1530.79,469.149 1530.88,468.944 1530.98,468.741L1530.99,463.667L1530.99,463.666C1531.56,463.242 1532.18,462.837 1532.85,462.448C1533.52,462.062 1534.22,461.705 1534.96,461.375L1539.22,462.542C1540.97,461.918 1542.86,461.474 1544.81,461.21L1546.39,458.64L1549.21,458.537ZM1563.45,488.094L1563.45,488.102L1563.45,488.094ZM1542.14,473.971C1542.5,473.611 1542.95,473.272 1543.49,472.964C1546.85,471.023 1552.3,471.023 1555.66,472.964C1556.2,473.272 1556.65,473.611 1557.01,473.971C1556.65,474.33 1556.2,474.669 1555.66,474.978C1552.3,476.918 1546.85,476.918 1543.49,474.978C1542.95,474.669 1542.5,474.33 1542.14,473.971ZM1547.97,458.557C1548,458.556 1548.03,458.555 1548.06,458.554L1547.97,458.557C1547.94,458.558 1547.91,458.559 1547.88,458.56L1547.97,458.557ZM1548.77,458.54C1548.91,458.538 1549.06,458.537 1549.21,458.537C1549.03,458.537 1548.85,458.538 1548.68,458.541L1548.77,458.54Z" style="fill:rgb(224,222,222);"/>
        </g>
        <g transform="matrix(3.25813,0,0,3.25813,-4946.77,-1445.07)">
            <path d="M1542.14,473.971C1540.21,472.067 1540.66,469.578 1543.49,467.946C1546.85,466.006 1552.3,466.006 1555.66,467.946C1558.49,469.578 1558.94,472.067 1557.01,473.971C1556.65,473.611 1556.2,473.272 1555.66,472.964C1552.3,471.023 1546.85,471.023 1543.49,472.964C1542.95,473.272 1542.5,473.611 1542.14,473.971Z" style="fill:rgb(135,135,135);fill-opacity:0.18;"/>
        </g>
        <g transform="matrix(3.25813,0,0,3.25813,-4946.77,-1445.07)">
            <path d="M1542.14,473.971C1540.21,472.067 1540.66,469.578 1543.49,467.946C1546.85,466.006 1552.3,466.006 1555.66,467.946C1558.49,469.578 1558.94,472.067 1557.01,473.971C1556.65,473.611 1556.2,473.272 1555.66,472.964C1552.3,471.023 1546.85,471.023 1543.49,472.964C1542.95,473.272 1542.5,473.611 1542.14,473.971Z" style="fill:rgb(135,135,135);fill-opacity:0.18;"/>
        </g>
        <g transform="matrix(5.93713,0,0,5.93713,-11973,-551.864)">
            <g>
                <g transform="matrix(1,0,0,1,550.803,-346.971)">
                    <path d="M1470.19,459.559L1470.19,456.376L1470.19,456.373C1470.13,456.072 1470.1,455.77 1470.1,455.467L1470.09,455.467L1470.1,458.662C1470.1,458.958 1470.13,459.258 1470.19,459.559Z" style="fill:rgb(135,135,135);fill-opacity:0.18;"/>
                </g>
                <g transform="matrix(1,0,0,1,550.803,-346.971)">
                    <path d="M1470.19,456.376L1470.19,456.376L1470.19,459.566L1472.64,460.073L1472.64,456.881L1470.19,456.376Z" style="fill:rgb(135,135,135);fill-opacity:0.18;"/>
                </g>
                <g transform="matrix(-1,0,0,1,3516.39,-346.971)">
                    <path d="M1470.19,456.376L1470.19,456.376L1470.19,459.566L1472.64,460.073L1472.64,456.881L1470.19,456.376Z" style="fill:rgb(135,135,135);fill-opacity:0.18;"/>
                </g>
                <g transform="matrix(1,0,0,1,550.803,-346.971)">
                    <path d="M1492.79,460.003L1492.79,460.413C1492.85,460.297 1492.9,460.183 1492.95,460.071L1492.95,457.284L1492.95,456.881C1492.95,456.881 1492.93,456.93 1492.9,456.981C1492.89,457.025 1492.87,457.07 1492.86,457.083C1492.6,457.63 1492.21,458.158 1491.68,458.651L1492.79,460.003Z" style="fill:rgb(135,135,135);fill-opacity:0.18;fill-rule:nonzero;"/>
                </g>
                <g transform="matrix(1,0,0,1,550.803,-346.971)">
                    <path d="M1492.79,460.003L1492.79,460.413C1492.85,460.297 1492.9,460.183 1492.95,460.071L1492.95,457.284L1492.95,456.881C1492.95,456.881 1492.93,456.93 1492.9,456.981C1492.89,457.025 1492.87,457.07 1492.86,457.083C1492.6,457.63 1492.21,458.158 1491.68,458.651L1492.79,460.003Z" style="fill:rgb(135,135,135);fill-opacity:0.18;fill-rule:nonzero;"/>
                </g>
                <g transform="matrix(-1,0,0,1,3516.39,-346.971)">
                    <path d="M1492.79,460.003L1492.79,460.413C1492.85,460.297 1492.9,460.183 1492.95,460.071L1492.95,457.284L1492.95,456.881C1492.95,456.881 1492.93,456.93 1492.9,456.981C1492.89,457.025 1492.87,457.07 1492.86,457.083C1492.6,457.63 1492.21,458.158 1491.68,458.651L1492.79,460.003Z" style="fill:rgb(135,135,135);fill-opacity:0.18;fill-rule:nonzero;"/>
                </g>
                <g transform="matrix(1,0,0,1,550.803,-346.971)">
                    <path d="M1492.79,450.973L1491.68,452.325C1492.16,452.774 1492.53,453.254 1492.79,453.748L1492.79,450.973Z" style="fill:rgb(135,135,135);fill-opacity:0.18;"/>
                </g>
                <g transform="matrix(1,0,0,1,550.803,-346.971)">
                    <path d="M1472.8,450.974L1472.79,453.758C1473.05,453.26 1473.42,452.778 1473.9,452.325L1472.8,450.974Z" style="fill:rgb(135,135,135);fill-opacity:0.18;"/>
                </g>
                <g transform="matrix(1,0,0,1,550.803,-346.971)">
                    <path d="M1481.25,465.948C1482.27,466.024 1483.31,466.024 1484.33,465.951L1484.33,465.951L1484.33,462.761C1483.32,462.834 1482.29,462.834 1481.28,462.761L1481.25,462.759L1481.25,465.948Z" style="fill:rgb(135,135,135);fill-opacity:0.18;"/>
                </g>
                <g transform="matrix(1,0,0,1,550.803,-346.971)">
                    <path d="M1480.38,461.351L1480.38,464.54L1481.25,465.948L1481.25,465.948L1481.25,465.948L1481.25,462.759L1480.38,461.351Z" style="fill:rgb(135,135,135);fill-opacity:0.18;fill-rule:nonzero;"/>
                </g>
                <g transform="matrix(-1,0,0,1,3516.38,-346.971)">
                    <path d="M1480.38,461.351L1480.38,464.54L1481.25,465.948L1481.25,465.948L1481.25,465.948L1481.25,462.761L1480.38,461.351Z" style="fill:rgb(135,135,135);fill-opacity:0.18;fill-rule:nonzero;"/>
                </g>
                <g transform="matrix(-1,0,0,1,3516.38,-346.971)">
                    <path d="M1480.38,461.351L1480.38,464.54L1481.25,465.948L1481.25,465.948L1481.25,465.948L1481.25,462.761L1480.38,461.351Z" style="fill:rgb(135,135,135);fill-opacity:0.18;fill-rule:nonzero;"/>
                </g>
                <g transform="matrix(1,0,0,1,550.803,-346.971)">
                    <path d="M1477.31,463.81L1477.31,460.62L1474.97,461.261L1474.97,464.45L1474.97,464.45L1477.31,463.809L1477.31,463.81Z" style="fill:rgb(135,135,135);fill-opacity:0.18;"/>
                </g>
                <g transform="matrix(1,0,0,1,550.803,-346.971)">
                    <path d="M1477.31,463.81L1477.31,460.62L1474.97,461.261L1474.97,464.45L1474.97,464.45L1477.31,463.809L1477.31,463.81Z" style="fill:rgb(135,135,135);fill-opacity:0.18;"/>
                </g>
                <g transform="matrix(-1,0,0,1,3516.38,-346.968)">
                    <path d="M1477.31,463.81L1477.31,460.62L1474.97,461.261L1474.97,464.45L1474.97,464.45L1477.31,463.809L1477.31,463.81Z" style="fill:rgb(135,135,135);fill-opacity:0.18;"/>
                </g>
                <g transform="matrix(-1,0,0,1,3516.39,-346.971)">
                    <path d="M1492.79,460.003L1492.79,460.413C1492.85,460.297 1492.9,460.183 1492.95,460.071L1492.95,457.284L1492.95,456.881C1492.95,456.881 1492.93,456.93 1492.9,456.981C1492.89,457.025 1492.87,457.07 1492.86,457.083C1492.6,457.63 1492.21,458.158 1491.68,458.651L1492.79,460.003Z" style="fill:rgb(135,135,135);fill-opacity:0.18;fill-rule:nonzero;"/>
                </g>
                <g transform="matrix(1,0,0,1,550.803,-346.971)">
                    <path d="M1480.38,461.351L1480.38,464.54L1481.25,465.948L1481.25,465.948L1481.25,465.948L1481.25,462.759L1480.38,461.351Z" style="fill:rgb(135,135,135);fill-opacity:0.18;fill-rule:nonzero;"/>
                </g>
                <g transform="matrix(-1,0,0,1,3516.38,-346.968)">
                    <path d="M1477.31,463.81L1477.31,460.62L1474.97,461.261L1474.97,464.45L1474.97,464.45L1477.31,463.809L1477.31,463.81Z" style="fill:rgb(135,135,135);fill-opacity:0.18;"/>
                </g>
                <g transform="matrix(1,0,0,1,550.803,-346.971)">
                    <path d="M1492.79,463.193L1492.79,460.003C1492.48,460.236 1492.14,460.458 1491.77,460.67C1491.41,460.878 1491,461.087 1490.61,461.264L1490.61,464.444C1491,464.267 1491.41,464.068 1491.77,463.859C1492.14,463.648 1492.48,463.426 1492.79,463.193Z" style="fill:rgb(135,135,135);fill-opacity:0.18;"/>
                </g>
                <g transform="matrix(1,0,0,1,550.803,-346.971)">
                    <path d="M1472.8,460.008L1472.79,460.004L1472.8,463.187L1472.8,463.198C1473.11,463.429 1473.45,463.649 1473.81,463.859C1474.18,464.071 1474.56,464.268 1474.96,464.448L1474.97,464.45L1474.97,461.261L1474.96,461.258C1474.56,461.078 1474.18,460.882 1473.81,460.67C1473.45,460.459 1473.11,460.239 1472.8,460.008Z" style="fill:rgb(135,135,135);fill-opacity:0.18;"/>
                </g>
                <g transform="matrix(-1,0,0,1,3516.39,-346.964)">
                    <path d="M1470.19,459.559L1470.19,456.376L1470.19,456.373C1470.13,456.072 1470.1,455.77 1470.1,455.467L1470.09,455.467L1470.1,458.662C1470.1,458.958 1470.13,459.258 1470.19,459.559Z" style="fill:rgb(135,135,135);fill-opacity:0.18;"/>
                </g>
                <g transform="matrix(1,0,0,1,550.803,-346.971)">
                    <path d="M1477.31,460.62L1477.31,463.81C1478.27,464.152 1479.31,464.398 1480.38,464.54L1480.38,464.54L1480.38,462.339L1480.38,462.339L1480.38,461.351C1479.31,461.209 1478.27,460.963 1477.31,460.62Z" style="fill:rgb(135,135,135);fill-opacity:0.18;fill-rule:nonzero;"/>
                </g>
                <g transform="matrix(1,0,0,1,550.803,-346.971)">
                    <path d="M1477.31,460.62L1477.31,463.81C1478.27,464.152 1479.31,464.398 1480.38,464.54L1480.38,464.54L1480.38,462.339L1480.38,462.339L1480.38,461.351C1479.31,461.209 1478.27,460.963 1477.31,460.62Z" style="fill:rgb(135,135,135);fill-opacity:0.18;fill-rule:nonzero;"/>
                </g>
                <g transform="matrix(1,0,0,1,550.803,-346.971)">
                    <path d="M1477.31,460.62L1477.31,463.81C1478.27,464.152 1479.31,464.398 1480.38,464.54L1480.38,464.54L1480.38,462.339L1480.38,462.339L1480.38,461.351C1479.31,461.209 1478.27,460.963 1477.31,460.62Z" style="fill:rgb(135,135,135);fill-opacity:0.18;fill-rule:nonzero;"/>
                </g>
                <g transform="matrix(-1,0,0,1,3516.38,-346.968)">
                    <path d="M1477.31,460.62L1477.31,463.81C1478.27,464.152 1479.31,464.398 1480.38,464.54L1480.38,464.54L1480.38,462.339L1480.38,462.339L1480.38,461.351C1479.31,461.209 1478.27,460.963 1477.31,460.62Z" style="fill:rgb(135,135,135);fill-opacity:0.18;fill-rule:nonzero;"/>
                </g>
                <g transform="matrix(-1,0,0,1,3516.38,-346.968)">
                    <path d="M1477.31,460.62L1477.31,463.81C1478.27,464.152 1479.31,464.398 1480.38,464.54L1480.38,464.54L1480.38,462.339L1480.38,462.339L1480.38,461.351C1479.31,461.209 1478.27,460.963 1477.31,460.62Z" style="fill:rgb(135,135,135);fill-opacity:0.18;fill-rule:nonzero;"/>
                </g>
                <g transform="matrix(-1,0,0,1,3516.38,-346.968)">
                    <path d="M1477.31,460.62L1477.31,463.81C1478.27,464.152 1479.31,464.398 1480.38,464.54L1480.38,464.54L1480.38,462.339L1480.38,462.339L1480.38,461.351C1479.31,461.209 1478.27,460.963 1477.31,460.62Z" style="fill:rgb(135,135,135);fill-opacity:0.18;fill-rule:nonzero;"/>
                </g>
            </g>
        </g>
    </g>
</svg>
