<?xml version="1.0" encoding="UTF-8" standalone="no"?><!DOCTYPE svg PUBLIC "-//W3C//DTD SVG 1.1//EN" "http://www.w3.org/Graphics/SVG/1.1/DTD/svg11.dtd"><svg width="100%" height="100%" viewBox="0 0 200 200" version="1.1" xmlns="http://www.w3.org/2000/svg" xmlns:xlink="http://www.w3.org/1999/xlink" xml:space="preserve" xmlns:serif="http://www.serif.com/" style="fill-rule:evenodd;clip-rule:evenodd;stroke-linejoin:round;stroke-miterlimit:2;"><path d="M120.571,195.392c-0.641,-0.34 -2.845,-1.624 -3.459,-1.996c-0.595,-0.36 -0.962,-1.11 -0.962,-2.17c0,-2.154 1.515,-4.777 3.38,-5.854c0.966,-0.558 1.839,-0.593 2.455,-0.196c0.099,0.063 2.808,1.553 3.426,1.982c0.546,0.378 0.879,1.107 0.879,2.116c-0,2.154 -1.515,4.777 -3.38,5.854c-0.907,0.524 -1.732,0.586 -2.339,0.264Z" style="fill:#393939;"/><path d="M123.042,189.198c0.957,-0.552 1.733,-0.104 1.733,1.001c0,1.104 -0.776,2.45 -1.733,3.002c-0.957,0.552 -1.733,0.104 -1.733,-1.001c-0,-1.105 0.776,-2.45 1.733,-3.002Z" style="fill:#9e9e9e;"/><path d="M136.179,186.381c-0.642,-0.34 -2.845,-1.625 -3.459,-1.996c-0.595,-0.36 -0.962,-1.11 -0.962,-2.17c-0,-2.154 1.514,-4.777 3.38,-5.854c0.966,-0.558 1.838,-0.593 2.454,-0.196c0.099,0.063 2.808,1.553 3.427,1.982c0.545,0.378 0.878,1.107 0.878,2.116c0,2.154 -1.514,4.777 -3.38,5.854c-0.907,0.524 -1.731,0.586 -2.338,0.264Z" style="fill:#393939;"/><path d="M138.65,180.187c0.956,-0.552 1.733,-0.104 1.733,1.001c0,1.104 -0.777,2.45 -1.733,3.002c-0.957,0.552 -1.734,0.104 -1.734,-1.001c0,-1.105 0.777,-2.45 1.734,-3.002Z" style="fill:#9e9e9e;"/><path d="M111.837,192.585l4.223,2.438l28.789,-16.621l0,-0.949c0,-1.253 -0.365,-2.182 -0.961,-2.687c-0.649,-0.549 -4.67,-2.73 -4.858,-2.787c-0.563,-0.172 -1.237,-0.072 -1.961,0.346l-22.385,12.924c-1.571,0.907 -2.847,3.344 -2.847,5.439l0,1.897Z" style="fill:#9e9e9e;"/><path d="M125.496,179.496l0,0l0,-65.942l6.566,-0l-0,65.942l-0,0c-0,0.487 -0.322,0.973 -0.965,1.345c-1.283,0.74 -3.364,0.742 -4.643,0.003c-0.644,-0.371 -0.963,-0.86 -0.958,-1.348Z" style="fill:#9e9e9e;"/><path d="M144.849,177.284c0,-2.3 -1.4,-3.358 -3.125,-2.363l-22.443,12.958c-1.728,0.998 -3.131,3.678 -3.131,5.982l0,1.11l28.699,-16.569l0,-1.118Z" style="fill:#383838;fill-opacity:0.18;"/><path d="M125.496,179.496l0,0l0,-65.942l6.566,-0l-0,65.942l-0,0c-0,0.487 -0.322,0.973 -0.965,1.345c-1.283,0.74 -3.364,0.742 -4.643,0.003c-0.644,-0.371 -0.963,-0.86 -0.958,-1.348Z" style="fill:#383838;fill-opacity:0.18;"/><path d="M132.062,118.763l-0,60.733c-0,0.487 -0.322,0.973 -0.965,1.345c-0.611,0.353 -1.403,0.538 -2.204,0.555l0,-62.633l3.169,-0Z" style="fill:#383838;fill-opacity:0.18;"/><path d="M120.497,195.349c-0.642,-0.34 -2.845,-1.624 -3.459,-1.996c-0.595,-0.36 -0.962,-1.11 -0.962,-2.17c0,-2.154 1.514,-4.777 3.38,-5.854c0.966,-0.558 1.838,-0.592 2.455,-0.196c0.099,0.063 2.808,1.554 3.426,1.982c0.546,0.378 0.878,1.107 0.878,2.116c0,2.154 -1.514,4.777 -3.379,5.854c-0.908,0.524 -1.732,0.586 -2.339,0.264Z" style="fill:#393939;"/><path d="M122.968,189.155c0.957,-0.552 1.733,-0.104 1.733,1.001c0,1.104 -0.776,2.45 -1.733,3.002c-0.957,0.552 -1.733,0.104 -1.733,-1.001c-0,-1.104 0.776,-2.45 1.733,-3.002Z" style="fill:#9e9e9e;"/><path d="M136.104,186.338c-0.641,-0.34 -2.845,-1.624 -3.459,-1.996c-0.595,-0.36 -0.961,-1.11 -0.961,-2.17c-0,-2.154 1.514,-4.777 3.379,-5.854c0.967,-0.558 1.839,-0.592 2.455,-0.196c0.099,0.063 2.808,1.554 3.426,1.982c0.546,0.378 0.879,1.107 0.879,2.116c-0,2.154 -1.514,4.777 -3.38,5.854c-0.907,0.524 -1.731,0.586 -2.339,0.264Z" style="fill:#393939;"/><path d="M138.576,180.144c0.956,-0.552 1.733,-0.104 1.733,1.001c-0,1.104 -0.777,2.45 -1.733,3.002c-0.957,0.552 -1.734,0.104 -1.734,-1.001c0,-1.104 0.777,-2.45 1.734,-3.002Z" style="fill:#9e9e9e;"/><path d="M111.763,192.542l4.223,2.438l28.789,-16.621l0,-0.949c0,-1.253 -0.365,-2.182 -0.961,-2.687c-0.649,-0.549 -4.671,-2.73 -4.859,-2.787c-0.562,-0.172 -1.236,-0.072 -1.961,0.346l-22.385,12.924c-1.571,0.907 -2.846,3.344 -2.846,5.439l0,1.897Z" style="fill:#9e9e9e;"/><path d="M125.422,179.454l0,-0l0,-65.943l6.566,-0l-0,65.943l-0,-0c-0,0.486 -0.322,0.973 -0.965,1.344c-1.283,0.741 -3.364,0.742 -4.643,0.004c-0.644,-0.372 -0.963,-0.86 -0.958,-1.348Z" style="fill:#9e9e9e;"/><path d="M144.775,177.241c0,-2.3 -1.4,-3.358 -3.125,-2.362l-22.443,12.957c-1.728,0.998 -3.131,3.679 -3.131,5.983l0,1.109l28.699,-16.569l0,-1.118Z" style="fill:#383838;fill-opacity:0.18;"/><path d="M125.422,179.454l0,-0l0,-65.943l6.566,-0l-0,65.943l-0,-0c-0,0.486 -0.322,0.973 -0.965,1.344c-1.283,0.741 -3.364,0.742 -4.643,0.004c-0.644,-0.372 -0.963,-0.86 -0.958,-1.348Z" style="fill:#383838;fill-opacity:0.18;"/><path d="M131.988,118.72l-0,60.734c-0,0.486 -0.322,0.973 -0.965,1.344c-0.611,0.353 -1.403,0.538 -2.204,0.555l0,-62.633l3.169,0Z" style="fill:#383838;fill-opacity:0.18;"/><path d="M63.884,162.664c-0.641,-0.34 -2.845,-1.625 -3.459,-1.996c-0.595,-0.36 -0.961,-1.11 -0.961,-2.17c-0,-2.154 1.514,-4.777 3.379,-5.854c0.967,-0.558 1.839,-0.593 2.455,-0.196c0.099,0.063 2.808,1.553 3.426,1.982c0.546,0.378 0.879,1.107 0.879,2.116c-0,2.154 -1.514,4.777 -3.38,5.854c-0.907,0.524 -1.731,0.586 -2.339,0.264Z" style="fill:#393939;"/><path d="M66.355,156.47c0.957,-0.552 1.734,-0.104 1.734,1.001c-0,1.104 -0.777,2.45 -1.734,3.002c-0.956,0.552 -1.733,0.104 -1.733,-1.001c0,-1.105 0.777,-2.45 1.733,-3.002Z" style="fill:#9e9e9e;"/><path d="M79.492,153.653c-0.641,-0.34 -2.845,-1.625 -3.459,-1.996c-0.595,-0.36 -0.962,-1.11 -0.962,-2.17c0,-2.154 1.515,-4.777 3.38,-5.854c0.966,-0.558 1.839,-0.593 2.455,-0.196c0.099,0.063 2.808,1.553 3.426,1.982c0.546,0.378 0.878,1.107 0.878,2.116c0,2.154 -1.514,4.777 -3.379,5.854c-0.907,0.524 -1.732,0.586 -2.339,0.264Z" style="fill:#393939;"/><path d="M81.963,147.459c0.957,-0.553 1.733,-0.104 1.733,1.001c0,1.104 -0.776,2.449 -1.733,3.002c-0.957,0.552 -1.733,0.104 -1.733,-1.001c-0,-1.105 0.776,-2.45 1.733,-3.002Z" style="fill:#9e9e9e;"/><path d="M55.151,159.857l4.222,2.438l28.79,-16.621l-0,-0.949c-0,-1.253 -0.365,-2.182 -0.961,-2.687c-0.65,-0.549 -4.671,-2.73 -4.859,-2.787c-0.562,-0.172 -1.237,-0.072 -1.961,0.346l-22.385,12.924c-1.571,0.907 -2.846,3.344 -2.846,5.439l-0,1.897Z" style="fill:#9e9e9e;"/><path d="M68.81,146.768l-0,0l-0,-65.942l6.565,-0l0,65.942l0,0c0,0.487 -0.321,0.973 -0.964,1.345c-1.283,0.74 -3.364,0.742 -4.644,0.003c-0.643,-0.371 -0.962,-0.86 -0.957,-1.348Z" style="fill:#9e9e9e;"/><path d="M88.163,144.556c-0,-2.3 -1.4,-3.358 -3.125,-2.363l-22.443,12.958c-1.728,0.998 -3.131,3.678 -3.131,5.982l-0,1.11l28.699,-16.569l-0,-1.118Z" style="fill:#383838;fill-opacity:0.18;"/><path d="M68.81,146.768l-0,0l-0,-65.942l6.565,-0l0,65.942l0,0c0,0.487 -0.321,0.973 -0.964,1.345c-1.283,0.74 -3.364,0.742 -4.644,0.003c-0.643,-0.371 -0.962,-0.86 -0.957,-1.348Z" style="fill:#383838;fill-opacity:0.18;"/><path d="M75.375,86.035l0,60.733c0,0.487 -0.321,0.973 -0.964,1.345c-0.612,0.353 -1.404,0.538 -2.204,0.555l-0,-62.633l3.168,-0Z" style="fill:#383838;fill-opacity:0.18;"/><path d="M61.645,97.041l-0.054,2.083l60.265,34.794l10.141,-5.856l0,-2.051l-60.264,-34.794l-10.088,5.824Z" style="fill:#a7a7a7;"/><path d="M71.733,91.217l-10.088,5.824l60.264,34.794l10.088,-5.824l-60.264,-34.794Z" style="fill:#5a5a5a;fill-opacity:0.24;"/><path d="M70.532,93.853l-5.678,3.278l56.898,32.85l5.678,-3.278l-56.898,-32.85Z" style="fill:#a7a7a7;"/><path d="M121.856,131.798l-0,2.12l10.141,-5.856l0,-2.119l-10.141,5.855Z" style="fill:#5a5a5a;fill-opacity:0.24;"/><path d="M71.829,5.148l-3.001,1.733l-0,85.995l60.232,34.775l3.002,-1.733l-0,-85.995l-60.233,-34.775Z" style="fill:#a7a7a7;"/><path d="M129.06,41.656l-60.232,-34.775l-0,85.995l60.232,34.775l0,-85.995Z" style="fill:#a7a7a7;"/><path d="M71.829,5.148l-3.001,1.733l-0,85.995l60.232,34.775l3.002,-1.733l-0,-85.995l-60.233,-34.775Z" style="fill:#a7a7a7;"/><path d="M129.06,41.656l-60.232,-34.775l-0,85.995l60.232,34.775l0,-85.995Z" style="fill:#a7a7a7;"/><path d="M129.06,41.656l0,85.995l3.002,-1.733l-0,-85.995l-60.233,-34.775l-3.001,1.733l60.232,34.775Z" style="fill:#484747;fill-opacity:0.19;"/><path d="M121.856,131.798l-0,2.12l10.141,-5.856l0,-2.119l-10.141,5.855Z" style="fill:#5a5a5a;fill-opacity:0.24;"/><path d="M125.851,43.423l-53.905,-31.121l0,78.747l53.905,31.122l-0,-78.748Z" style="fill:#fff;"/><path d="M129.06,41.656l0,85.989l2.937,-1.696l0,-85.989l-2.937,1.696Z" style="fill:#484848;fill-opacity:0.24;"/></svg>
