<?xml version="1.0" encoding="UTF-8" standalone="no"?><!DOCTYPE svg PUBLIC "-//W3C//DTD SVG 1.1//EN" "http://www.w3.org/Graphics/SVG/1.1/DTD/svg11.dtd"><svg width="100%" height="100%" viewBox="0 0 200 200" version="1.1" xmlns="http://www.w3.org/2000/svg" xmlns:xlink="http://www.w3.org/1999/xlink" xml:space="preserve" xmlns:serif="http://www.serif.com/" style="fill-rule:evenodd;clip-rule:evenodd;stroke-linejoin:round;stroke-miterlimit:2;"><path d="M46.471,142.331c-0.568,-0.301 -2.517,-1.437 -3.06,-1.765c-0.526,-0.319 -0.85,-0.982 -0.85,-1.92c-0,-1.905 1.339,-4.225 2.989,-5.178c0.855,-0.493 1.626,-0.523 2.171,-0.173c0.088,0.056 2.484,1.374 3.031,1.753c0.482,0.335 0.776,0.979 0.776,1.872c0,1.905 -1.339,4.225 -2.989,5.178c-0.802,0.463 -1.531,0.518 -2.068,0.233Z" style="fill:#393939;"/><path d="M48.656,136.852c0.846,-0.488 1.533,-0.091 1.533,0.886c0,0.977 -0.687,2.167 -1.533,2.655c-0.846,0.489 -1.533,0.092 -1.533,-0.885c0,-0.977 0.687,-2.167 1.533,-2.656Z" style="fill:#9e9e9e;"/><path d="M60.275,134.361c-0.567,-0.301 -2.516,-1.437 -3.059,-1.765c-0.527,-0.319 -0.851,-0.982 -0.851,-1.92c-0,-1.905 1.339,-4.225 2.989,-5.178c0.855,-0.493 1.626,-0.523 2.172,-0.173c0.087,0.056 2.483,1.374 3.03,1.753c0.483,0.335 0.777,0.979 0.777,1.872c-0,1.905 -1.34,4.225 -2.989,5.178c-0.803,0.463 -1.532,0.518 -2.069,0.233Z" style="fill:#393939;"/><path d="M62.461,128.882c0.846,-0.488 1.533,-0.091 1.533,0.886c-0,0.977 -0.687,2.167 -1.533,2.655c-0.846,0.489 -1.533,0.092 -1.533,-0.885c-0,-0.977 0.687,-2.167 1.533,-2.656Z" style="fill:#9e9e9e;"/><path d="M38.746,139.849l3.735,2.156l25.463,-14.701l0,-0.84c0,-1.108 -0.323,-1.93 -0.85,-2.376c-0.574,-0.486 -4.131,-2.415 -4.297,-2.465c-0.498,-0.152 -1.094,-0.064 -1.735,0.306l-19.799,11.431c-1.389,0.802 -2.517,2.958 -2.517,4.81l-0,1.679Z" style="fill:#9e9e9e;"/><path d="M50.827,128.272l-0,-0l-0,-58.325l5.807,0l-0,58.325l-0,-0c-0,0.43 -0.284,0.86 -0.853,1.189c-1.135,0.655 -2.975,0.657 -4.107,0.003c-0.569,-0.328 -0.852,-0.761 -0.847,-1.192Z" style="fill:#9e9e9e;"/><path d="M67.944,126.315c0,-2.034 -1.238,-2.97 -2.764,-2.09l-19.85,11.461c-1.529,0.882 -2.769,3.253 -2.769,5.291l-0,0.982l25.383,-14.655l0,-0.989Z" style="fill:#383838;fill-opacity:0.18;"/><path d="M50.827,128.272l-0,-0l-0,-58.325l5.807,0l-0,58.325l-0,-0c-0,0.43 -0.284,0.86 -0.853,1.189c-1.135,0.655 -2.975,0.657 -4.107,0.003c-0.569,-0.328 -0.852,-0.761 -0.847,-1.192Z" style="fill:#383838;fill-opacity:0.18;"/><path d="M56.634,74.555l-0,53.717c-0,0.43 -0.284,0.86 -0.853,1.189c-0.541,0.312 -1.242,0.476 -1.949,0.491l-0,-55.397l2.802,-0Z" style="fill:#383838;fill-opacity:0.18;"/><path d="M139.781,196.204c-0.568,-0.301 -2.517,-1.437 -3.06,-1.766c-0.526,-0.318 -0.85,-0.982 -0.85,-1.919c-0,-1.906 1.339,-4.226 2.989,-5.178c0.855,-0.494 1.626,-0.524 2.171,-0.174c0.088,0.057 2.484,1.375 3.031,1.754c0.482,0.334 0.777,0.979 0.777,1.872c-0,1.905 -1.34,4.225 -2.99,5.177c-0.802,0.464 -1.531,0.519 -2.068,0.234Z" style="fill:#393939;"/><path d="M141.966,190.725c0.846,-0.488 1.533,-0.092 1.533,0.885c0,0.977 -0.687,2.167 -1.533,2.656c-0.846,0.488 -1.533,0.091 -1.533,-0.886c0,-0.977 0.687,-2.166 1.533,-2.655Z" style="fill:#9e9e9e;"/><path d="M153.585,188.234c-0.567,-0.301 -2.516,-1.437 -3.059,-1.766c-0.527,-0.318 -0.851,-0.982 -0.851,-1.919c0,-1.906 1.339,-4.226 2.989,-5.178c0.855,-0.494 1.627,-0.524 2.172,-0.174c0.087,0.057 2.483,1.375 3.03,1.754c0.483,0.334 0.777,0.979 0.777,1.872c-0,1.905 -1.34,4.225 -2.989,5.177c-0.803,0.464 -1.532,0.519 -2.069,0.234Z" style="fill:#393939;"/><path d="M155.771,182.755c0.846,-0.488 1.533,-0.092 1.533,0.885c-0,0.977 -0.687,2.167 -1.533,2.656c-0.846,0.488 -1.533,0.091 -1.533,-0.886c-0,-0.977 0.687,-2.166 1.533,-2.655Z" style="fill:#9e9e9e;"/><path d="M132.056,193.721l3.735,2.156l25.463,-14.701l0,-0.839c0,-1.108 -0.323,-1.93 -0.85,-2.376c-0.574,-0.486 -4.131,-2.415 -4.297,-2.466c-0.498,-0.152 -1.094,-0.063 -1.735,0.307l-19.799,11.43c-1.389,0.803 -2.517,2.958 -2.517,4.811l-0,1.678Z" style="fill:#9e9e9e;"/><path d="M144.137,182.144l-0,0l-0,-58.324l5.807,-0l-0,58.324l-0,0c-0,0.43 -0.284,0.861 -0.853,1.189c-1.135,0.656 -2.975,0.657 -4.107,0.004c-0.569,-0.329 -0.851,-0.761 -0.847,-1.193Z" style="fill:#9e9e9e;"/><path d="M161.254,180.187c0,-2.034 -1.238,-2.97 -2.764,-2.089l-19.85,11.461c-1.529,0.882 -2.769,3.253 -2.769,5.291l-0,0.981l25.383,-14.655l0,-0.989Z" style="fill:#383838;fill-opacity:0.18;"/><path d="M144.137,182.144l-0,0l-0,-58.324l5.807,-0l-0,58.324l-0,0c-0,0.43 -0.284,0.861 -0.853,1.189c-1.135,0.656 -2.975,0.657 -4.107,0.004c-0.569,-0.329 -0.851,-0.761 -0.847,-1.193Z" style="fill:#383838;fill-opacity:0.18;"/><path d="M149.944,128.427l-0,53.717c-0,0.43 -0.284,0.861 -0.853,1.189c-0.541,0.312 -1.242,0.476 -1.949,0.492l-0,-55.398l2.802,0Z" style="fill:#383838;fill-opacity:0.18;"/><path d="M139.715,196.166c-0.567,-0.301 -2.516,-1.437 -3.059,-1.766c-0.527,-0.318 -0.851,-0.982 -0.851,-1.919c-0,-1.905 1.339,-4.225 2.989,-5.178c0.855,-0.493 1.626,-0.524 2.172,-0.173c0.087,0.056 2.483,1.374 3.03,1.753c0.483,0.334 0.777,0.979 0.777,1.872c-0,1.905 -1.34,4.225 -2.989,5.177c-0.803,0.464 -1.532,0.519 -2.069,0.234Z" style="fill:#393939;"/><path d="M141.901,190.687c0.846,-0.488 1.533,-0.092 1.533,0.885c-0,0.977 -0.687,2.167 -1.533,2.656c-0.846,0.488 -1.533,0.092 -1.533,-0.885c-0,-0.977 0.687,-2.167 1.533,-2.656Z" style="fill:#9e9e9e;"/><path d="M153.52,188.196c-0.568,-0.301 -2.517,-1.437 -3.06,-1.766c-0.526,-0.318 -0.851,-0.982 -0.851,-1.919c0,-1.905 1.34,-4.225 2.99,-5.178c0.854,-0.493 1.626,-0.524 2.171,-0.173c0.088,0.056 2.483,1.374 3.03,1.753c0.483,0.334 0.777,0.979 0.777,1.872c0,1.905 -1.339,4.225 -2.989,5.177c-0.802,0.464 -1.531,0.519 -2.068,0.234Z" style="fill:#393939;"/><path d="M155.705,182.717c0.846,-0.488 1.533,-0.092 1.533,0.885c0,0.977 -0.687,2.167 -1.533,2.656c-0.846,0.488 -1.533,0.092 -1.533,-0.885c0,-0.977 0.687,-2.167 1.533,-2.656Z" style="fill:#9e9e9e;"/><path d="M131.99,193.683l3.735,2.157l25.464,-14.702l-0,-0.839c-0,-1.108 -0.323,-1.93 -0.85,-2.376c-0.575,-0.486 -4.132,-2.415 -4.298,-2.466c-0.497,-0.152 -1.094,-0.063 -1.734,0.307l-19.799,11.431c-1.39,0.802 -2.518,2.957 -2.518,4.81l0,1.678Z" style="fill:#9e9e9e;"/><path d="M144.071,182.107l0,-0l0,-58.325l5.807,-0l0,58.325l0,-0c0,0.43 -0.284,0.86 -0.853,1.188c-1.135,0.656 -2.975,0.657 -4.107,0.004c-0.569,-0.329 -0.851,-0.761 -0.847,-1.192Z" style="fill:#9e9e9e;"/><path d="M161.189,180.15c-0,-2.034 -1.239,-2.971 -2.764,-2.09l-19.851,11.461c-1.528,0.882 -2.769,3.253 -2.769,5.291l-0,0.981l25.384,-14.655l-0,-0.988Z" style="fill:#383838;fill-opacity:0.18;"/><path d="M144.071,182.107l0,-0l0,-58.325l5.807,-0l0,58.325l0,-0c0,0.43 -0.284,0.86 -0.853,1.188c-1.135,0.656 -2.975,0.657 -4.107,0.004c-0.569,-0.329 -0.851,-0.761 -0.847,-1.192Z" style="fill:#383838;fill-opacity:0.18;"/><path d="M149.878,128.389l0,53.718c0,0.43 -0.284,0.86 -0.853,1.188c-0.54,0.313 -1.241,0.476 -1.949,0.492l0,-55.398l2.802,0Z" style="fill:#383838;fill-opacity:0.18;"/><path d="M53.408,80.951l-8.97,5.178l96.479,55.702l8.97,-5.179l-96.479,-55.701Z" style="fill:#a7a7a7;"/><path d="M44.438,84.255l0,1.874l96.479,55.702l8.97,-5.179l-0,-1.874l-96.479,-55.702l-8.97,5.179Z" style="fill:#a7a7a7;"/><path d="M50.806,80.579l-6.368,3.676l96.479,55.702l6.368,-3.677l-96.479,-55.701Z" style="fill:#5a5a5a;fill-opacity:0.24;"/><path d="M52.079,81.313l-5.022,2.9l93.933,54.232l5.022,-2.899l-93.933,-54.233Z" style="fill:#a7a7a7;"/><path d="M140.917,139.957l0,1.874l8.97,-5.179l-0,-1.874l-8.97,5.179Z" style="fill:#5a5a5a;fill-opacity:0.24;"/><path d="M140.917,139.957l0,1.874l8.97,-5.179l-0,-1.874l-8.97,5.179Z" style="fill:#5a5a5a;fill-opacity:0.24;"/><path d="M53.425,3.036l-2.598,1.5l-0,76.054l96.462,55.693l2.598,-1.5l-0,-76.055l-96.462,-55.692Z" style="fill:#9e9e9e;"/><path d="M144.45,61.792l-90.784,-52.415l-0,69.65l90.784,52.415l0,-69.65Z" style="fill:#fff;"/><path d="M147.289,60.228l0,76.055l2.598,-1.5l-0,-76.055l-96.462,-55.692l-2.598,1.5l96.462,55.692Z" style="fill:#484848;fill-opacity:0.24;"/><path d="M147.289,60.228l0,76.055l2.598,-1.5l-0,-76.055l-2.598,1.5Z" style="fill:#484848;fill-opacity:0.24;"/></svg>
