<?xml version="1.0" encoding="UTF-8" standalone="no"?><!DOCTYPE svg PUBLIC "-//W3C//DTD SVG 1.1//EN" "http://www.w3.org/Graphics/SVG/1.1/DTD/svg11.dtd"><svg width="100%" height="100%" viewBox="0 0 200 200" version="1.1" xmlns="http://www.w3.org/2000/svg" xmlns:xlink="http://www.w3.org/1999/xlink" xml:space="preserve" xmlns:serif="http://www.serif.com/" style="fill-rule:evenodd;clip-rule:evenodd;stroke-linejoin:round;stroke-miterlimit:2;"><path d="M121.321,172.564c0.436,-1.058 4.046,-2.527 4.665,-2.791c1.19,-0.508 2.157,-0.953 3.674,-0.077c2.483,1.433 4.499,4.925 4.499,7.792c0,1.395 -0.476,2.386 -1.252,2.872c-0.766,0.48 -3.875,3.159 -5.319,2.904c-0.7,0.115 -1.533,-0.065 -2.427,-0.581c-2.483,-1.433 -4.499,-4.925 -4.499,-7.792c0,-0.992 0.241,-1.78 0.659,-2.327Z" style="fill:#282828;fill-opacity:0.87;"/><path d="M121.321,172.564c0.436,-1.058 4.046,-2.527 4.665,-2.791c1.19,-0.508 2.157,-0.953 3.674,-0.077c2.483,1.433 4.499,4.925 4.499,7.792c0,1.395 -0.476,2.386 -1.252,2.872c-0.766,0.48 -3.875,3.159 -5.319,2.904c1.246,-0.205 2.072,-1.343 2.072,-3.178c0,-2.867 -2.016,-6.359 -4.499,-7.793c-1.624,-0.938 -3.049,-0.764 -3.84,0.271Z" style="fill:#818181;fill-opacity:0.87;"/><path d="M125.326,174.7c1.333,0.769 2.414,2.643 2.414,4.182c0,1.538 -1.081,2.163 -2.414,1.393c-1.332,-0.769 -2.414,-2.643 -2.414,-4.181c0,-1.539 1.082,-2.163 2.414,-1.394Z" style="fill:#282828;fill-opacity:0.4;"/><path d="M125.326,176.096c0.665,0.384 1.205,1.319 1.205,2.087c0,0.769 -0.54,1.08 -1.205,0.696c-0.665,-0.384 -1.205,-1.319 -1.205,-2.087c0,-0.768 0.54,-1.08 1.205,-0.696Z" style="fill-opacity:0.4;"/><path d="M66.532,171.548c0.436,-1.059 4.045,-2.528 4.664,-2.792c1.191,-0.508 2.158,-0.953 3.675,-0.077c2.483,1.434 4.499,4.925 4.499,7.793c0,1.394 -0.477,2.386 -1.252,2.871c-0.766,0.48 -3.875,3.16 -5.319,2.904c-0.701,0.115 -1.534,-0.065 -2.427,-0.58c-2.483,-1.434 -4.499,-4.926 -4.499,-7.793c0,-0.991 0.241,-1.779 0.659,-2.326Z" style="fill:#282828;fill-opacity:0.87;"/><path d="M66.532,171.548c0.436,-1.059 4.045,-2.528 4.664,-2.792c1.191,-0.508 2.158,-0.953 3.675,-0.077c2.483,1.434 4.499,4.925 4.499,7.793c0,1.394 -0.477,2.386 -1.252,2.871c-0.766,0.48 -3.875,3.16 -5.319,2.904c1.246,-0.205 2.072,-1.342 2.072,-3.178c0,-2.867 -2.016,-6.359 -4.499,-7.792c-1.624,-0.938 -3.049,-0.765 -3.84,0.271Z" style="fill:#818181;fill-opacity:0.87;"/><path d="M70.537,173.683c1.332,0.77 2.414,2.643 2.414,4.182c0,1.538 -1.082,2.163 -2.414,1.394c-1.333,-0.77 -2.414,-2.643 -2.414,-4.182c-0,-1.538 1.081,-2.163 2.414,-1.394Z" style="fill:#282828;fill-opacity:0.4;"/><path d="M70.537,175.079c0.665,0.384 1.205,1.32 1.205,2.088c0,0.768 -0.54,1.08 -1.205,0.696c-0.665,-0.384 -1.205,-1.32 -1.205,-2.088c-0,-0.768 0.54,-1.08 1.205,-0.696Z" style="fill-opacity:0.4;"/><path d="M116.989,145.073c0.436,-1.058 4.045,-2.527 4.664,-2.791c1.191,-0.508 2.158,-0.953 3.675,-0.077c2.483,1.433 4.499,4.925 4.499,7.792c-0,1.395 -0.477,2.386 -1.252,2.872c-0.766,0.48 -3.876,3.159 -5.319,2.904c-0.701,0.115 -1.534,-0.065 -2.427,-0.581c-2.483,-1.433 -4.499,-4.925 -4.499,-7.792c-0,-0.992 0.241,-1.779 0.659,-2.327Z" style="fill:#282828;fill-opacity:0.87;"/><path d="M116.989,145.073c0.436,-1.058 4.045,-2.527 4.664,-2.791c1.191,-0.508 2.158,-0.953 3.675,-0.077c2.483,1.433 4.499,4.925 4.499,7.792c-0,1.395 -0.477,2.386 -1.252,2.872c-0.766,0.48 -3.876,3.159 -5.319,2.904c1.246,-0.205 2.072,-1.343 2.072,-3.178c-0,-2.867 -2.016,-6.359 -4.499,-7.793c-1.625,-0.938 -3.049,-0.764 -3.84,0.271Z" style="fill:#818181;fill-opacity:0.87;"/><path d="M120.994,147.209c1.332,0.769 2.414,2.643 2.414,4.182c-0,1.538 -1.082,2.163 -2.414,1.393c-1.333,-0.769 -2.414,-2.642 -2.414,-4.181c-0,-1.539 1.081,-2.163 2.414,-1.394Z" style="fill:#282828;fill-opacity:0.4;"/><path d="M120.994,148.605c0.665,0.384 1.205,1.32 1.205,2.088c-0,0.768 -0.54,1.079 -1.205,0.695c-0.665,-0.384 -1.205,-1.319 -1.205,-2.087c-0,-0.768 0.54,-1.08 1.205,-0.696Z" style="fill-opacity:0.4;"/><path d="M69.254,145.784c0.436,-1.059 4.045,-2.528 4.664,-2.792c1.191,-0.508 2.158,-0.953 3.675,-0.077c2.483,1.434 4.499,4.925 4.499,7.793c-0,1.394 -0.477,2.386 -1.252,2.871c-0.766,0.48 -3.876,3.16 -5.319,2.904c-0.701,0.115 -1.534,-0.065 -2.427,-0.58c-2.483,-1.434 -4.499,-4.926 -4.499,-7.793c-0,-0.991 0.241,-1.779 0.659,-2.326Z" style="fill:#282828;fill-opacity:0.87;"/><path d="M69.254,145.784c0.436,-1.059 4.045,-2.528 4.664,-2.792c1.191,-0.508 2.158,-0.953 3.675,-0.077c2.483,1.434 4.499,4.925 4.499,7.793c-0,1.394 -0.477,2.386 -1.252,2.871c-0.766,0.48 -3.876,3.16 -5.319,2.904c1.246,-0.205 2.072,-1.342 2.072,-3.178c-0,-2.867 -2.016,-6.359 -4.499,-7.792c-1.625,-0.938 -3.049,-0.764 -3.84,0.271Z" style="fill:#818181;fill-opacity:0.87;"/><path d="M73.259,147.919c1.332,0.77 2.414,2.643 2.414,4.182c-0,1.539 -1.082,2.163 -2.414,1.394c-1.333,-0.769 -2.415,-2.643 -2.415,-4.182c0,-1.538 1.082,-2.163 2.415,-1.394Z" style="fill:#282828;fill-opacity:0.4;"/><path d="M73.259,149.315c0.665,0.385 1.205,1.32 1.205,2.088c-0,0.768 -0.54,1.08 -1.205,0.696c-0.665,-0.384 -1.205,-1.32 -1.205,-2.088c-0,-0.768 0.54,-1.08 1.205,-0.696Z" style="fill-opacity:0.4;"/><path d="M77.959,153.925c-0.998,0.227 -0.019,-1.116 -1.181,-4.156c-0.698,-1.828 -2.425,-3.515 -3.918,-4.377c-0.866,-0.5 -2.225,-0.664 -3.187,0.164c-1.163,1.001 -0.996,2.939 -1.078,2.942c-0.883,0.04 -0.126,-2.377 0.396,-2.973c0.947,-1.081 4.171,-2.965 4.948,-3.296c1.494,-0.637 2.707,-1.195 4.61,-0.097c2.469,1.426 4.57,4.474 5.335,7.468c0.069,0.269 0.079,0.601 -0.041,0.821c-0.12,0.22 -0.679,0.499 -0.679,0.499l-4.546,2.625c-0,-0 -0.425,0.327 -0.659,0.38Z" style="fill:#282828;"/><path d="M75.161,179.557c-0.998,0.227 -0.019,-1.116 -1.18,-4.156c-0.699,-1.828 -2.426,-3.515 -3.919,-4.377c-0.866,-0.5 -2.225,-0.664 -3.186,0.164c-1.163,1.001 -0.997,2.939 -1.079,2.942c-0.882,0.04 -0.126,-2.377 0.396,-2.973c0.947,-1.081 4.171,-2.965 4.948,-3.296c1.494,-0.637 2.506,-0.731 4.61,-0.097c3.152,0.951 5.044,4.144 5.335,7.468c0.025,0.276 0.079,0.601 -0.041,0.821c-0.12,0.22 -0.679,0.499 -0.679,0.499l-4.546,2.625c0,-0 -0.425,0.327 -0.659,0.38Z" style="fill:#282828;"/><path d="M125.655,153.061c-0.998,0.228 -0.019,-1.116 -1.181,-4.155c-0.698,-1.829 -2.425,-3.516 -3.918,-4.377c-0.867,-0.501 -2.225,-0.664 -3.187,0.163c-1.163,1.001 -0.996,2.939 -1.078,2.943c-0.883,0.039 -0.126,-2.378 0.396,-2.974c0.946,-1.08 4.171,-2.964 4.948,-3.296c1.494,-0.637 2.506,-0.731 4.61,-0.096c3.152,0.95 5.044,4.143 5.335,7.468c0.024,0.276 0.079,0.601 -0.041,0.821c-0.12,0.22 -0.68,0.499 -0.68,0.499l-4.545,2.624c-0,0 -0.425,0.327 -0.659,0.38Z" style="fill:#282828;"/><path d="M129.987,180.662c-0.998,0.228 -0.019,-1.116 -1.18,-4.156c-0.699,-1.828 -2.426,-3.515 -3.919,-4.376c-0.866,-0.501 -2.225,-0.665 -3.186,0.163c-1.163,1.001 -0.997,2.939 -1.079,2.943c-0.882,0.039 -0.126,-2.378 0.396,-2.974c0.947,-1.08 4.171,-2.964 4.948,-3.296c1.494,-0.637 2.506,-0.731 4.61,-0.096c3.152,0.95 5.044,4.143 5.335,7.468c0.025,0.276 0.079,0.601 -0.041,0.821c-0.12,0.22 -0.679,0.499 -0.679,0.499l-4.546,2.624c0,0 -0.425,0.327 -0.659,0.38Z" style="fill:#282828;"/><path d="M115.876,80.077c-0,0 1.115,-30.836 -6.813,-39.103c-11.314,-11.797 -45.886,-25.175 -61.428,-24.223c-22.137,1.355 -2.484,47.61 2.536,66.711c6.025,22.925 3.01,32.48 9.608,40.853c-0,0 16.412,8.221 32.826,15.032c3.003,1.246 5.8,1.934 8.217,1.817c2.38,-0.115 4.683,-0.731 6.92,-1.687c9.102,-3.892 17.107,-13.424 24.695,-17.804c7.854,-3.862 15.311,-10.527 17.046,-15.837c0.367,-6.026 5.667,-9.707 -13.537,-18.139c-15.23,-6.687 -20.07,-7.62 -20.07,-7.62Z" style="fill:#951515;"/><path d="M92.402,129.804c5.106,-34.3 4.806,-50.28 1.475,-61.659c-5.677,-19.392 4.675,-30.136 15.186,-27.171c-0,0 -0.852,-0.858 -1.321,-1.289c-12.476,-11.46 -45.129,-23.851 -60.107,-22.934c-22.137,1.355 -2.484,47.61 2.536,66.711c6.025,22.925 3.01,32.48 9.608,40.853c-0,0 16.412,8.221 32.826,15.032c1.876,0.779 3.672,1.339 5.345,1.622c1.005,0.169 2.872,0.195 2.872,0.195c0,-0 -9.31,-5.382 -8.42,-11.36Z" style="fill:#c7c7c7;fill-opacity:0.07;"/><path d="M115.876,80.379l-5.978,36.358c-0,0 6.835,-5.861 16.287,-11.318c6.914,-6.906 22.836,-10.842 24.191,-6.455c-0,0 -0.623,-2.284 -1.719,-3.537c-1.898,-2.17 -5.647,-4.629 -12.711,-7.73c-15.23,-6.687 -20.07,-7.318 -20.07,-7.318Z" style="fill:#c7c7c7;fill-opacity:0.07;"/><path d="M115.876,80.379l-5.978,36.358c-0,0 6.835,-5.861 16.287,-11.318c6.914,-6.906 22.836,-10.842 24.191,-6.455c-0,0 -0.623,-2.284 -1.719,-3.537c-1.898,-2.17 -5.647,-4.629 -12.711,-7.73c-15.23,-6.687 -20.07,-7.318 -20.07,-7.318Z" style="fill:#dbdbdb;fill-opacity:0.09;"/><path d="M119.317,91.061c2.997,-1.33 6.601,-1.645 6.601,-1.645c-0,-0 -2.86,0.38 -6.194,2.152c-2.968,1.576 -5.322,4.15 -5.322,4.15c0,0 1.75,-3.252 4.915,-4.657Z" style="fill:#1b1b1b;fill-opacity:0.68;"/><path d="M116.912,102.639c1.03,1.459 1.364,3.503 1.364,3.503c-0,0 -0.356,-1.593 -1.708,-3.15c-1.204,-1.385 -3.092,-2.183 -3.092,-2.183c-0,-0 2.348,0.289 3.436,1.83Z" style="fill:#1b1b1b;fill-opacity:0.68;"/><path d="M92.605,139.347c-0.133,0.566 -0.203,1.156 -0.203,1.763l-0,9.636c-0,4.233 3.436,7.67 7.67,7.67c4.233,0 7.67,-3.437 7.67,-7.67l-0,-9.636c-0,-0.537 -0.055,-1.06 -0.16,-1.565c-2.186,0.917 -4.437,1.507 -6.76,1.619c-2.416,0.117 -5.213,-0.571 -8.217,-1.817Z" style="fill:#282828;"/><path d="M99.038,148.461c0,-0 -14.362,-8.292 -18.857,-10.888c-0.999,-0.576 -2.166,-0.79 -3.304,-0.605c-5.989,0.931 -4.722,5.315 -3.537,6.057c2.198,1.374 9.457,5.928 9.457,5.928c0,0 5.43,2.287 7.49,4.56c0,0 -16.256,9.386 -20.883,12.057c-0.752,0.434 -1.215,1.236 -1.215,2.104c0,0.001 0,0.001 0,0.001c0,1.051 0.561,2.022 1.471,2.548c1.304,0.752 3.235,1.867 4.781,2.76c1.547,0.893 3.453,0.893 5,-0c6.292,-3.633 22.284,-12.866 22.284,-12.866c-0,-0 20.734,12.511 26.583,16.041c0.953,0.576 2.156,0.54 3.074,-0.091c1.183,-0.816 2.824,-2.009 4.069,-3.207c0.883,-0.848 0.48,-3.073 -0.393,-3.835c-0.038,-0.032 -0.078,-0.059 -0.12,-0.083c-1.015,-0.581 -24.462,-13.878 -24.462,-13.878c-0,0 13.389,-7.73 17.928,-10.35c0.917,-0.53 1.481,-1.511 1.477,-2.57c-0,-0 -0,-0.001 -0,-0.001c-0.004,-0.855 -0.461,-1.644 -1.201,-2.073c-1.204,-0.697 -3.106,-1.798 -4.699,-2.72c-1.76,-1.019 -3.93,-1.021 -5.692,-0.004c-5.969,3.447 -19.251,11.115 -19.251,11.115Z" style="fill:#282828;"/><path d="M99.6,158.349l-19.791,11.426c-1.775,1.025 -3.962,1.025 -5.737,-0c-1.528,-0.882 -3.336,-1.926 -4.54,-2.621c-0.361,-0.209 -0.662,-0.494 -0.887,-0.829c-0.292,0.435 -0.456,0.954 -0.456,1.497c0,0 0,0.001 0,0.001c0,0.96 0.512,1.846 1.343,2.325c1.204,0.696 3.012,1.74 4.54,2.622c1.775,1.025 3.962,1.025 5.737,-0c6.524,-3.767 21.916,-12.653 21.916,-12.653c-0,-0 20.213,12.197 26.354,15.903c1.103,0.666 2.495,0.619 3.551,-0.12c1.155,-0.81 2.66,-1.923 3.821,-3.04c0.683,-0.656 0.597,-2.136 0.118,-3.125c-0.036,0.046 -0.075,0.09 -0.118,0.13c-1.161,1.117 -2.666,2.23 -3.821,3.04c-1.056,0.739 -2.448,0.786 -3.551,0.12l-24.97,-15.068c2.706,-1.021 4.633,-3.637 4.633,-6.699l-0,-10.661c-0,-0.369 -0.028,-0.731 -0.082,-1.085c-0.8,0.338 -1.608,0.633 -2.426,0.877l0,7.73c0,3.951 -3.207,7.158 -7.157,7.158c-1.532,0 -2.952,-0.482 -4.116,-1.302c0.95,2.314 3.08,4.021 5.639,4.374Zm29.825,-17.534c-0.224,0.333 -0.523,0.616 -0.883,0.824c-4.397,2.538 -20.672,11.919 -20.672,11.919l2.617,1.484l18.055,-10.408c0.832,-0.481 1.343,-1.37 1.339,-2.33c0,-0.001 0,-0.002 0,-0.002c-0.002,-0.539 -0.165,-1.054 -0.456,-1.487Zm-56.713,-1.542c-0.829,1.538 -0.085,3.305 0.628,3.752c2.198,1.374 9.457,5.928 9.457,5.928c0,0 4.501,1.812 7.522,4.55l2.157,-1.245c-2.06,-2.274 -9.679,-6.3 -9.679,-6.3c0,0 -7.259,-4.553 -9.457,-5.928c-0.222,-0.139 -0.448,-0.407 -0.628,-0.757Z" style="fill-opacity:0.21;"/></svg>