<?xml version="1.0" encoding="UTF-8" standalone="no"?><!DOCTYPE svg PUBLIC "-//W3C//DTD SVG 1.1//EN" "http://www.w3.org/Graphics/SVG/1.1/DTD/svg11.dtd"><svg width="100%" height="100%" viewBox="0 0 200 200" version="1.1" xmlns="http://www.w3.org/2000/svg" xmlns:xlink="http://www.w3.org/1999/xlink" xml:space="preserve" xmlns:serif="http://www.serif.com/" style="fill-rule:evenodd;clip-rule:evenodd;stroke-linejoin:round;stroke-miterlimit:2;"><path d="M111.63,175.122c0.436,-1.059 4.045,-2.528 4.664,-2.792c1.191,-0.508 2.158,-0.953 3.675,-0.077c2.483,1.434 4.499,4.925 4.499,7.792c-0,1.395 -0.477,2.386 -1.252,2.872c-0.766,0.48 -3.876,3.159 -5.319,2.904c-0.701,0.115 -1.534,-0.065 -2.427,-0.58c-2.483,-1.434 -4.499,-4.926 -4.499,-7.793c-0,-0.992 0.241,-1.779 0.659,-2.326Z" style="fill:#282828;fill-opacity:0.87;"/><path d="M111.63,175.122c0.436,-1.059 4.045,-2.528 4.664,-2.792c1.191,-0.508 2.158,-0.953 3.675,-0.077c2.483,1.434 4.499,4.925 4.499,7.792c-0,1.395 -0.477,2.386 -1.252,2.872c-0.766,0.48 -3.876,3.159 -5.319,2.904c1.246,-0.205 2.072,-1.342 2.072,-3.178c-0,-2.867 -2.016,-6.359 -4.499,-7.793c-1.625,-0.937 -3.049,-0.764 -3.84,0.272Z" style="fill:#e5e5e5;fill-opacity:0.87;"/><path d="M115.635,177.257c1.332,0.77 2.414,2.643 2.414,4.182c-0,1.538 -1.082,2.163 -2.414,1.394c-1.333,-0.77 -2.414,-2.643 -2.414,-4.182c-0,-1.538 1.081,-2.163 2.414,-1.394Z" style="fill:#282828;fill-opacity:0.4;"/><path d="M115.635,178.653c0.665,0.384 1.205,1.32 1.205,2.088c-0,0.768 -0.54,1.08 -1.205,0.696c-0.665,-0.384 -1.205,-1.32 -1.205,-2.088c-0,-0.768 0.54,-1.08 1.205,-0.696Z" style="fill-opacity:0.4;"/><path d="M56.841,174.105c0.436,-1.059 4.045,-2.528 4.664,-2.792c1.191,-0.508 2.158,-0.953 3.675,-0.077c2.483,1.434 4.499,4.926 4.499,7.793c-0,1.394 -0.477,2.386 -1.253,2.872c-0.765,0.479 -3.875,3.159 -5.319,2.903c-0.7,0.115 -1.533,-0.064 -2.426,-0.58c-2.484,-1.434 -4.499,-4.926 -4.499,-7.793c-0,-0.991 0.241,-1.779 0.659,-2.326Z" style="fill:#282828;fill-opacity:0.87;"/><path d="M56.841,174.105c0.436,-1.059 4.045,-2.528 4.664,-2.792c1.191,-0.508 2.158,-0.953 3.675,-0.077c2.483,1.434 4.499,4.926 4.499,7.793c-0,1.394 -0.477,2.386 -1.253,2.872c-0.765,0.479 -3.875,3.159 -5.319,2.903c1.246,-0.205 2.073,-1.342 2.073,-3.178c-0,-2.867 -2.016,-6.359 -4.499,-7.792c-1.625,-0.938 -3.049,-0.764 -3.84,0.271Z" style="fill:#e5e5e5;fill-opacity:0.87;"/><path d="M60.845,176.241c1.333,0.769 2.415,2.643 2.415,4.181c-0,1.539 -1.082,2.163 -2.415,1.394c-1.332,-0.769 -2.414,-2.643 -2.414,-4.182c0,-1.538 1.082,-2.163 2.414,-1.393Z" style="fill:#282828;fill-opacity:0.4;"/><path d="M60.845,177.637c0.666,0.384 1.206,1.319 1.206,2.087c-0,0.768 -0.54,1.08 -1.206,0.696c-0.665,-0.384 -1.205,-1.319 -1.205,-2.088c0,-0.768 0.54,-1.079 1.205,-0.695Z" style="fill-opacity:0.4;"/><path d="M107.297,147.631c0.436,-1.059 4.046,-2.528 4.665,-2.792c1.19,-0.508 2.157,-0.953 3.674,-0.077c2.484,1.434 4.499,4.925 4.499,7.793c0,1.394 -0.476,2.386 -1.252,2.871c-0.766,0.48 -3.875,3.16 -5.319,2.904c-0.7,0.115 -1.533,-0.065 -2.427,-0.58c-2.483,-1.434 -4.499,-4.926 -4.499,-7.793c0,-0.991 0.241,-1.779 0.659,-2.326Z" style="fill:#282828;fill-opacity:0.87;"/><path d="M107.297,147.631c0.436,-1.059 4.046,-2.528 4.665,-2.792c1.19,-0.508 2.157,-0.953 3.674,-0.077c2.484,1.434 4.499,4.925 4.499,7.793c0,1.394 -0.476,2.386 -1.252,2.871c-0.766,0.48 -3.875,3.16 -5.319,2.904c1.246,-0.205 2.072,-1.342 2.072,-3.178c0,-2.867 -2.016,-6.359 -4.499,-7.792c-1.624,-0.938 -3.049,-0.765 -3.84,0.271Z" style="fill:#e5e5e5;fill-opacity:0.87;"/><path d="M111.302,149.766c1.333,0.77 2.414,2.643 2.414,4.182c0,1.538 -1.081,2.163 -2.414,1.394c-1.332,-0.77 -2.414,-2.643 -2.414,-4.182c0,-1.538 1.082,-2.163 2.414,-1.394Z" style="fill:#282828;fill-opacity:0.4;"/><path d="M111.302,151.162c0.665,0.384 1.205,1.32 1.205,2.088c0,0.768 -0.54,1.08 -1.205,0.696c-0.665,-0.384 -1.205,-1.32 -1.205,-2.088c0,-0.768 0.54,-1.08 1.205,-0.696Z" style="fill-opacity:0.4;"/><path d="M59.562,148.341c0.436,-1.059 4.046,-2.528 4.665,-2.792c1.19,-0.508 2.157,-0.952 3.674,-0.077c2.483,1.434 4.499,4.926 4.499,7.793c0,1.394 -0.476,2.386 -1.252,2.872c-0.766,0.479 -3.875,3.159 -5.319,2.903c-0.7,0.115 -1.533,-0.064 -2.427,-0.58c-2.483,-1.434 -4.499,-4.925 -4.499,-7.793c0,-0.991 0.241,-1.779 0.659,-2.326Z" style="fill:#282828;fill-opacity:0.87;"/><path d="M59.562,148.341c0.436,-1.059 4.046,-2.528 4.665,-2.792c1.19,-0.508 2.157,-0.952 3.674,-0.077c2.483,1.434 4.499,4.926 4.499,7.793c0,1.394 -0.476,2.386 -1.252,2.872c-0.766,0.479 -3.875,3.159 -5.319,2.903c1.246,-0.205 2.072,-1.342 2.072,-3.178c0,-2.867 -2.016,-6.359 -4.499,-7.792c-1.624,-0.938 -3.049,-0.764 -3.84,0.271Z" style="fill:#e5e5e5;fill-opacity:0.87;"/><path d="M63.567,150.477c1.333,0.769 2.414,2.643 2.414,4.181c0,1.539 -1.081,2.163 -2.414,1.394c-1.332,-0.769 -2.414,-2.643 -2.414,-4.182c-0,-1.538 1.082,-2.163 2.414,-1.393Z" style="fill:#282828;fill-opacity:0.4;"/><path d="M63.567,151.873c0.665,0.384 1.205,1.319 1.205,2.087c0,0.768 -0.54,1.08 -1.205,0.696c-0.665,-0.384 -1.205,-1.319 -1.205,-2.087c0,-0.769 0.54,-1.08 1.205,-0.696Z" style="fill-opacity:0.4;"/><path d="M68.267,156.482c-0.997,0.227 -0.018,-1.116 -1.18,-4.156c-0.699,-1.828 -2.426,-3.515 -3.918,-4.376c-0.867,-0.501 -2.226,-0.665 -3.187,0.163c-1.163,1.001 -0.997,2.939 -1.079,2.943c-0.882,0.039 -0.126,-2.378 0.397,-2.974c0.946,-1.08 4.171,-2.964 4.947,-3.296c1.494,-0.637 2.707,-1.195 4.61,-0.096c2.469,1.425 4.57,4.473 5.336,7.467c0.068,0.269 0.078,0.602 -0.042,0.822c-0.12,0.22 -0.679,0.498 -0.679,0.498l-4.546,2.625c0,-0 -0.424,0.327 -0.659,0.38Z" style="fill:#282828;"/><path d="M65.47,182.114c-0.998,0.227 -0.019,-1.116 -1.181,-4.156c-0.699,-1.828 -2.426,-3.515 -3.918,-4.377c-0.867,-0.5 -2.225,-0.664 -3.187,0.164c-1.163,1.001 -0.996,2.939 -1.078,2.942c-0.883,0.04 -0.126,-2.377 0.396,-2.973c0.946,-1.08 4.171,-2.965 4.948,-3.296c1.493,-0.637 2.506,-0.731 4.61,-0.096c3.152,0.95 5.044,4.143 5.335,7.467c0.024,0.277 0.079,0.601 -0.041,0.821c-0.121,0.22 -0.68,0.499 -0.68,0.499l-4.545,2.625c-0,-0 -0.425,0.327 -0.659,0.38Z" style="fill:#282828;"/><path d="M115.963,155.619c-0.997,0.227 -0.018,-1.116 -1.18,-4.156c-0.699,-1.829 -2.426,-3.515 -3.919,-4.377c-0.866,-0.5 -2.225,-0.664 -3.186,0.164c-1.163,1 -0.997,2.938 -1.079,2.942c-0.882,0.04 -0.126,-2.378 0.396,-2.974c0.947,-1.08 4.172,-2.964 4.948,-3.295c1.494,-0.638 2.506,-0.731 4.61,-0.097c3.152,0.951 5.044,4.144 5.336,7.468c0.024,0.276 0.078,0.601 -0.042,0.821c-0.12,0.22 -0.679,0.499 -0.679,0.499l-4.546,2.624c0,0 -0.424,0.327 -0.659,0.381Z" style="fill:#282828;"/><path d="M120.296,183.22c-0.998,0.227 -0.019,-1.116 -1.181,-4.156c-0.698,-1.829 -2.425,-3.515 -3.918,-4.377c-0.867,-0.5 -2.225,-0.664 -3.187,0.164c-1.163,1 -0.996,2.938 -1.078,2.942c-0.883,0.04 -0.126,-2.378 0.396,-2.974c0.946,-1.08 4.171,-2.964 4.948,-3.295c1.493,-0.638 2.506,-0.731 4.61,-0.097c3.152,0.95 5.044,4.144 5.335,7.468c0.024,0.276 0.079,0.601 -0.041,0.821c-0.121,0.22 -0.68,0.499 -0.68,0.499l-4.545,2.624c-0,0 -0.425,0.327 -0.659,0.381Z" style="fill:#282828;"/><path d="M94.586,19.103c-1.072,1.065 -1.498,2.212 -2.136,3.583c-6.104,13.129 3.571,61.148 2.992,60.995c-30.185,0.245 -37.76,2.896 -48.985,5.158c-12.766,4.01 -12.225,16.541 -2.494,22.755c-0,-0 31.536,32.882 47.168,32.127c12.061,-0.582 22.162,-14.034 31.614,-19.491c7.854,-3.862 15.312,-10.526 17.047,-15.837c0.366,-6.026 1.817,-14.409 7.749,-27.879c4.787,-10.87 15.729,-19.976 12.092,-29.503c-10.424,-27.304 -51.869,-45.008 -65.047,-31.908Z" style="fill:#951515;"/><path d="M95.16,20.218c-11.021,0.009 0.922,63.632 0.282,63.463c-30.185,0.245 -37.76,2.896 -48.985,5.158c-12.766,4.01 -9.73,12.583 1.184,18.884c0,0 28.618,31.062 44.25,30.306c12.062,-0.582 19.526,-13.362 28.978,-18.819c7.854,-3.861 13.653,-8.21 15.388,-13.52c0.366,-6.026 0.701,-15.287 6.633,-28.757c4.787,-10.87 15.722,-16.496 11.366,-26.028c-17.055,-22.769 -36.448,-34.448 -59.096,-30.687Z" style="fill:#e5e5e5;fill-opacity:0.06;"/><path d="M136.257,105.69c-6.782,3.682 -40.175,-21.84 -40.815,-22.009c-30.185,0.245 -37.76,2.896 -48.985,5.158c-12.766,4.01 -9.73,12.583 1.184,18.884c0,0 28.618,31.062 44.25,30.306c12.062,-0.582 19.526,-13.362 28.978,-18.819c7.854,-3.861 13.653,-8.21 15.388,-13.52Z" style="fill:#e5e5e5;fill-opacity:0.06;"/><path d="M82.914,141.905c-0.133,0.565 -0.204,1.155 -0.204,1.762l0,9.636c0,4.233 3.437,7.67 7.67,7.67c4.234,0 7.67,-3.437 7.67,-7.67l0,-9.636c0,-0.536 -0.055,-1.06 -0.16,-1.565c-2.186,0.917 -4.436,1.507 -6.759,1.619c-2.417,0.117 -5.214,-0.57 -8.217,-1.816Z" style="fill:#282828;"/><path d="M89.347,151.018c-0,0 -14.362,-8.292 -18.858,-10.887c-0.998,-0.577 -2.165,-0.791 -3.303,-0.606c-5.989,0.931 -4.723,5.315 -3.537,6.057c2.197,1.375 9.457,5.929 9.457,5.929c-0,-0 5.43,2.286 7.49,4.56c-0,-0 -16.257,9.385 -20.883,12.056c-0.752,0.434 -1.215,1.237 -1.215,2.105c-0,-0 -0,-0 -0,0c-0,1.051 0.561,2.022 1.471,2.548c1.303,0.753 3.234,1.867 4.78,2.76c1.547,0.893 3.453,0.893 5,-0c6.292,-3.633 22.284,-12.866 22.284,-12.866c0,0 20.734,12.512 26.583,16.041c0.954,0.576 2.156,0.54 3.075,-0.09c1.183,-0.816 2.823,-2.01 4.069,-3.207c0.883,-0.849 0.48,-3.074 -0.394,-3.836c-0.037,-0.031 -0.077,-0.059 -0.12,-0.083c-1.015,-0.58 -24.462,-13.877 -24.462,-13.877c0,-0 13.39,-7.731 17.928,-10.351c0.918,-0.53 1.481,-1.51 1.477,-2.57c0,-0 0,-0 0,-0.001c-0.003,-0.855 -0.46,-1.644 -1.2,-2.072c-1.204,-0.697 -3.106,-1.799 -4.699,-2.721c-1.761,-1.019 -3.931,-1.02 -5.692,-0.004c-5.97,3.447 -19.251,11.115 -19.251,11.115Z" style="fill:#282828;"/><path d="M89.908,160.906l-19.791,11.426c-1.775,1.025 -3.961,1.025 -5.736,0c-1.529,-0.882 -3.336,-1.926 -4.541,-2.621c-0.361,-0.209 -0.662,-0.494 -0.886,-0.829c-0.293,0.436 -0.456,0.955 -0.456,1.497c-0,0 -0,0.001 -0,0.002c-0,0.959 0.512,1.845 1.342,2.325c1.205,0.695 3.012,1.739 4.541,2.621c1.775,1.025 3.961,1.025 5.736,0c6.525,-3.767 21.916,-12.653 21.916,-12.653c0,0 20.214,12.197 26.354,15.903c1.103,0.666 2.495,0.619 3.551,-0.12c1.155,-0.809 2.66,-1.923 3.822,-3.039c0.683,-0.657 0.596,-2.137 0.118,-3.126c-0.037,0.046 -0.076,0.09 -0.118,0.131c-1.162,1.116 -2.667,2.23 -3.822,3.039c-1.056,0.739 -2.448,0.786 -3.551,0.12l-24.97,-15.068c2.707,-1.021 4.633,-3.636 4.633,-6.698l0,-10.661c0,-0.369 -0.028,-0.732 -0.082,-1.086c-0.8,0.339 -1.608,0.634 -2.425,0.878l-0,7.73c-0,3.95 -3.207,7.157 -7.158,7.157c-1.532,0 -2.951,-0.482 -4.116,-1.302c0.951,2.314 3.08,4.021 5.639,4.374Zm29.825,-17.534c-0.224,0.333 -0.523,0.617 -0.882,0.824c-4.397,2.539 -20.673,11.919 -20.673,11.919l2.617,1.484l18.056,-10.408c0.832,-0.48 1.343,-1.369 1.339,-2.33c-0,-0.001 -0,-0.001 -0,-0.002c-0.002,-0.539 -0.166,-1.054 -0.457,-1.487Zm-56.712,-1.542c-0.829,1.538 -0.086,3.305 0.628,3.752c2.197,1.375 9.457,5.929 9.457,5.929c-0,-0 4.501,1.812 7.521,4.549l2.157,-1.245c-2.06,-2.273 -9.678,-6.299 -9.678,-6.299c-0,-0 -7.26,-4.554 -9.457,-5.929c-0.223,-0.139 -0.448,-0.407 -0.628,-0.757Z" style="fill-opacity:0.21;"/><path d="M67.302,101.922c4.469,-1.45 8.957,-1.121 8.957,-1.121c-0,-0 -3.651,-0.051 -8.824,2.033c-4.603,1.854 -9.167,5.463 -9.167,5.463c-0,0 4.314,-4.843 9.034,-6.375Z" style="fill:#1b1b1b;fill-opacity:0.68;"/><path d="M94.038,92.479c3.898,-1.069 7.814,-0.827 7.814,-0.827c-0,0 -3.185,-0.037 -7.698,1.5c-4.015,1.368 -7.997,4.03 -7.997,4.03c0,-0 3.764,-3.573 7.881,-4.703Z" style="fill:#1b1b1b;fill-opacity:0.68;"/><path d="M86.308,118.128c3.43,-1.409 7.711,-1.09 7.711,-1.09c0,-0 -3.381,-0.05 -7.162,1.977c-3.365,1.803 -5.872,5.312 -5.872,5.312c0,0 1.699,-4.709 5.323,-6.199Z" style="fill:#1b1b1b;fill-opacity:0.68;"/><path d="M106.723,103.082c3.299,-1.742 7.546,-2.155 7.546,-2.155c-0,0 -3.342,0.498 -6.949,2.818c-3.21,2.064 -5.468,5.436 -5.468,5.436c-0,-0 1.386,-4.259 4.871,-6.099Z" style="fill:#1b1b1b;fill-opacity:0.68;"/><path d="M73.001,91.213c2.182,2.353 3.258,5.902 3.258,5.902c-0,0 -1.011,-2.743 -3.791,-5.197c-2.473,-2.184 -6.033,-3.172 -6.033,-3.172c-0,0 4.26,-0.018 6.566,2.467Z" style="fill:#1b1b1b;fill-opacity:0.68;"/><path d="M105.47,44.186c0.057,4.972 2.093,10.211 2.093,10.211c0,0 -1.705,-5.047 -1.289,-10.747c0.371,-5.071 3.034,-9.041 3.034,-9.041c-0,0 -3.898,4.324 -3.838,9.577Z" style="fill:#1b1b1b;fill-opacity:0.68;"/><path d="M127.214,51.7c-1.604,3.84 -1.308,9.662 -1.308,9.662c-0,0 0.084,-5.876 2.36,-10.114c1.014,-1.888 4.003,-5.895 4.003,-5.895c0,0 -3.36,2.291 -5.055,6.347Z" style="fill:#1b1b1b;fill-opacity:0.68;"/><path d="M103.562,76.611c0.822,4.904 3.639,9.768 3.639,9.768c0,-0 -2.462,-4.725 -2.927,-10.421c-0.414,-5.068 1.607,-9.4 1.607,-9.4c-0,-0 -3.186,4.872 -2.319,10.053Z" style="fill:#1b1b1b;fill-opacity:0.68;"/><path d="M117.014,83.85c-0.853,4.899 0.517,11.649 0.517,11.649c-0,-0 -1.009,-6.908 0.426,-12.44c0.64,-2.466 2.814,-7.904 2.814,-7.904c0,-0 -2.855,3.52 -3.757,8.695Z" style="fill:#1b1b1b;fill-opacity:0.68;"/><path d="M89.972,105.148c1.551,1.91 2.396,4.587 2.396,4.587c0,0 -0.773,-2.086 -2.732,-4.125c-1.743,-1.814 -4.179,-2.86 -4.179,-2.86c0,0 2.876,0.38 4.515,2.398Z" style="fill:#1b1b1b;fill-opacity:0.68;"/><path d="M106.366,118.244c1.552,1.91 2.397,4.588 2.397,4.588c-0,-0 -0.774,-2.086 -2.733,-4.125c-1.742,-1.814 -4.178,-2.86 -4.178,-2.86c-0,0 2.875,0.38 4.514,2.397Z" style="fill:#1b1b1b;fill-opacity:0.68;"/><path d="M133.521,76.607c-2.526,-1.811 -4.259,-5.119 -4.259,-5.119c0,0 1.507,2.511 4.614,4.269c2.764,1.564 6.302,1.638 6.302,1.638c-0,0 -3.99,1.125 -6.657,-0.788Z" style="fill:#1b1b1b;fill-opacity:0.68;"/><path d="M114.77,66.932c-1.844,-1.528 -3.182,-4.014 -3.182,-4.014c0,0 1.151,1.907 3.403,3.459c2.003,1.381 4.5,1.805 4.5,1.805c0,0 -2.773,0.363 -4.721,-1.25Z" style="fill:#1b1b1b;fill-opacity:0.68;"/><path d="M96.732,57.954c-1.844,-1.528 -3.182,-4.014 -3.182,-4.014c-0,0 1.15,1.907 3.402,3.459c2.004,1.38 4.5,1.805 4.5,1.805c0,-0 -2.772,0.363 -4.72,-1.25Z" style="fill:#1b1b1b;fill-opacity:0.68;"/><path d="M82.026,98.482c0.415,0.075 0.805,0.208 1.133,0.397c1.086,0.627 1.086,1.645 -0,2.272c-1.086,0.627 -2.849,0.627 -3.935,-0c-0.729,-0.421 -0.969,-1.018 -0.719,-1.555c0.004,0.33 0.223,0.658 0.657,0.908c0.881,0.509 2.316,0.506 3.203,-0.006c0.888,-0.513 0.893,-1.341 0.012,-1.85c-0.109,-0.063 -0.227,-0.118 -0.351,-0.166Z" style="fill:#1b1b1b;fill-opacity:0.68;"/><path d="M97.828,110.867c0.414,0.075 0.804,0.208 1.133,0.397c1.085,0.627 1.085,1.645 -0,2.272c-1.086,0.627 -2.85,0.627 -3.935,-0c-0.73,-0.421 -0.969,-1.018 -0.719,-1.555c0.004,0.33 0.223,0.658 0.657,0.908c0.881,0.509 2.316,0.506 3.203,-0.006c0.888,-0.513 0.893,-1.341 0.012,-1.85c-0.109,-0.063 -0.227,-0.118 -0.351,-0.166Z" style="fill:#1b1b1b;fill-opacity:0.68;"/><path d="M105.825,61.386c0.075,0.414 0.207,0.804 0.397,1.133c0.627,1.085 1.645,1.085 2.272,-0c0.627,-1.086 0.627,-2.85 -0,-3.936c-0.421,-0.729 -1.018,-0.968 -1.555,-0.718c0.33,0.004 0.658,0.223 0.908,0.657c0.509,0.88 0.506,2.316 -0.007,3.203c-0.512,0.888 -1.341,0.893 -1.849,0.012c-0.063,-0.109 -0.119,-0.227 -0.166,-0.351Z" style="fill:#1b1b1b;fill-opacity:0.68;"/><path d="M122.947,69.155c0.075,0.415 0.207,0.805 0.396,1.133c0.627,1.086 1.645,1.086 2.272,-0c0.627,-1.086 0.627,-2.849 0,-3.935c-0.421,-0.729 -1.018,-0.969 -1.555,-0.719c0.33,0.004 0.658,0.223 0.909,0.657c0.508,0.881 0.505,2.316 -0.007,3.204c-0.512,0.887 -1.341,0.892 -1.85,0.011c-0.063,-0.109 -0.118,-0.227 -0.165,-0.351Z" style="fill:#1b1b1b;fill-opacity:0.68;"/></svg>
