<?xml version="1.0" encoding="UTF-8" standalone="no"?><!DOCTYPE svg PUBLIC "-//W3C//DTD SVG 1.1//EN" "http://www.w3.org/Graphics/SVG/1.1/DTD/svg11.dtd"><svg width="100%" height="100%" viewBox="0 0 200 200" version="1.1" xmlns="http://www.w3.org/2000/svg" xmlns:xlink="http://www.w3.org/1999/xlink" xml:space="preserve" xmlns:serif="http://www.serif.com/" style="fill-rule:evenodd;clip-rule:evenodd;stroke-linejoin:round;stroke-miterlimit:2;"><path d="M76.991,54.916c8.442,-2.362 28.771,0.697 29.024,6.466c0.377,8.627 -1.095,9.407 -14.486,12.511c-10.006,2.32 -32.784,3.259 -38.941,1.806c-2.445,-0.577 -4.001,-2.104 -3.911,-4.878c0.095,-2.93 17.204,-12.796 28.314,-15.905Z" style="fill:none;stroke:#686868;stroke-width:3px;"/><path d="M117.226,104.016c0,0 3.89,23.337 7.133,34.687c3.3,11.547 12.666,34.597 12.666,34.597c0,0 -7.644,-17.036 -12.661,-34.59c-4.881,-17.081 -7.138,-34.694 -7.138,-34.694Z" style="fill:none;stroke:#686868;stroke-width:3px;"/><path d="M70.387,138.266c1.591,-1.061 3.753,-2.642 6.552,-0.967c1.615,0.967 2.498,5.249 2.498,5.249c-0,0 0.379,-4.653 6.077,-2.172c4.73,2.06 5.251,10.105 5.251,10.105c-0,0 0.978,-3.532 4.251,-2.245c5.269,2.072 4.009,6.539 3.919,9.905c-0.448,16.875 -1.649,37.94 -13.507,37.94c-11.859,0 -12.403,-7.582 -12.403,-24.461c-0,-16.878 -10.39,-28.183 -2.638,-33.354Z" style="fill:none;stroke:#686868;stroke-width:3px;"/><path d="M110.23,181.702l-17.139,9.992c3.35,-4.924 5.412,-18.329 6.039,-27.117c-0,-0 4.22,-1.538 8.738,3.923c4.236,5.12 2.362,13.202 2.362,13.202Z" style="fill:none;stroke:#686868;stroke-width:3px;"/><path d="M23.285,118.939c1.48,-1.211 2.587,-2.067 5.607,-0.833c3.264,1.335 3.815,4.217 3.815,4.217c0,-0 1.368,-3.333 6.532,-2.005c3.987,1.025 5.417,6.961 5.417,6.961c0,-0 1.901,-1.501 4.108,-0.805c3.85,1.213 4.624,6.119 4.861,9.478c1.014,14.342 1.513,30.321 -5.426,36.682c-1.209,1.108 -2.643,1.924 -4.339,2.389c-4.195,1.149 -8.162,-1.278 -11.162,-17.888c-3.015,-16.699 -16.627,-32.298 -9.413,-38.196Z" style="fill:none;stroke:#686868;stroke-width:3px;"/><path d="M76.991,54.916c8.442,-2.362 28.771,0.697 29.024,6.466c0.377,8.627 -1.095,9.407 -14.486,12.511c-10.006,2.32 -32.784,3.259 -38.941,1.806c-2.445,-0.577 -4.001,-2.104 -3.911,-4.878c0.095,-2.93 17.204,-12.796 28.314,-15.905Z" style="fill:none;stroke:#686868;stroke-width:3px;"/><path d="M72.75,56.312c-2.087,-4.704 -3.224,-10.024 -3.224,-15.709c0,-20.017 18.432,-34.402 38.448,-34.179c9.82,0.11 32.191,14.68 32.191,34.697c0,20.017 -16.506,34.99 -36.523,34.99c-4.438,-0 -8.585,-0.761 -12.349,-2.164c0.079,-0.018 0.158,-0.036 0.236,-0.054c13.391,-3.104 14.863,-3.884 14.486,-12.511c-0.253,-5.769 -20.582,-8.828 -29.024,-6.466c-1.34,0.375 -2.767,0.848 -4.241,1.396Z" style="fill:none;stroke:#686868;stroke-width:3px;"/><ellipse cx="80.637" cy="43.007" rx="4.26" ry="4.508" style="fill:none;stroke:#686868;stroke-width:3px;"/><circle cx="108.759" cy="49.719" r="4.66" style="fill:none;stroke:#686868;stroke-width:3px;"/><path d="M95.516,88.466c0.302,1.408 1.19,3.051 1.999,4.104c2.985,3.883 6.457,6.698 11.084,8.405c0.323,0.119 -0.937,2.383 -4.616,2.646c-2.138,0.153 -3.993,-0.672 -3.993,-0.672c0,0 0.465,2.783 1.232,4.788c1.14,2.978 4.264,5.992 4.264,5.992c0,0 -1.366,0.507 -4.369,-0.749c-1.33,-0.556 -2.273,-1.669 -2.273,-1.669c0,0 -0.838,1.698 -1.332,3.676c-0.277,1.109 -0.073,3.241 -0.073,3.241c0,0 -2.075,-1.153 -3.607,-2.812c-1.317,-1.427 -2.248,-2.739 -2.645,-3.746c-0.762,0.718 -1.954,1.498 -3.446,2.259c-2.012,1.027 -4.358,1.39 -4.358,1.39c0,0 0.929,-1.929 1.053,-3.066c0.222,-2.026 0.023,-3.91 0.023,-3.91c0,0 -1.27,0.718 -2.71,0.78c-3.252,0.139 -4.357,-0.81 -4.357,-0.81c0,0 3.973,-1.747 6.073,-4.146c1.414,-1.615 2.814,-4.065 2.814,-4.065c0,0 -2.027,0.132 -3.979,-0.752c-3.36,-1.52 -3.759,-4.08 -3.415,-4.08c4.932,0 9.164,-1.439 13.308,-4.049c1.187,-0.748 2.684,-2.083 3.421,-3.364l-0.098,0.609Z" style="fill:none;stroke:#686868;stroke-width:3px;"/><path d="M106.052,62.372c0.206,7.703 -1.662,8.54 -14.522,11.521c-10.006,2.32 -32.784,3.259 -38.941,1.806c-2.146,-0.506 -3.607,-1.745 -3.871,-3.916c0.733,1.245 2.02,1.965 3.654,2.256c6.267,1.114 27.262,-0.679 37.158,-3.37c13.272,-3.609 16.467,-4.563 16.522,-8.297Zm-0.104,-1.47c0.038,0.158 0.061,0.318 0.068,0.48c0.004,0.088 0.008,0.175 0.011,0.262c-0.018,-0.237 -0.044,-0.484 -0.079,-0.742Z" style="fill:none;stroke:#686868;stroke-width:3px;"/><path d="M106.052,62.38c0.205,7.695 -1.666,8.533 -14.521,11.513c-10.006,2.32 -32.784,3.259 -38.941,1.806c-2.146,-0.507 -3.607,-1.745 -3.871,-3.915c0.733,1.244 2.02,1.964 3.654,2.255c6.267,1.114 27.262,-0.679 37.158,-3.37c13.263,-3.606 16.463,-4.562 16.521,-8.289Zm-0.103,-1.476c0.038,0.157 0.06,0.316 0.068,0.478c0.003,0.085 0.007,0.17 0.01,0.254c-0.018,-0.234 -0.044,-0.477 -0.078,-0.732Z" style="fill:none;stroke:#686868;stroke-width:3px;"/><path d="M68.701,150.214c1.311,4.56 3.332,10.119 4.055,16.637l-23.161,4.25c3.976,-5.192 4.798,-14.386 4.588,-24.133l14.518,3.246Z" style="fill:none;stroke:#686868;stroke-width:3px;"/><path d="M54.184,147c-0.078,-3.666 -0.302,-7.41 -0.559,-11.048c-0.176,-2.501 -0.651,-5.859 -2.47,-7.913c2.791,-7.168 7.082,-14.694 11.701,-21.433c7.095,-10.351 17.135,-24.473 29.109,-32.417c3.587,1.249 7.503,1.922 11.677,1.922c5.489,0 10.713,-1.126 15.406,-3.173c18.558,14.069 55.529,55.115 55.529,71.591c0,12.789 -17.223,46.808 -24.764,45.943c-4.014,-0.46 -11.534,-14.743 -12.648,-16.9c-0.008,-0.104 -0.054,-0.195 -0.14,-0.272c-0,0 0.048,0.095 0.14,0.272c0.173,2.232 -16.932,10.427 -24.634,8.862c-0.861,-0.175 -1.718,-0.366 -2.572,-0.574l0.271,-0.158c0,0 1.874,-8.082 -2.362,-13.202c-4.518,-5.461 -8.738,-3.923 -8.738,-3.923c-0.11,1.533 -0.263,3.208 -0.459,4.953l-0.24,0c0.272,-3.82 0.406,-7.704 0.504,-11.389c0.09,-3.366 1.35,-7.833 -3.919,-9.905c-3.273,-1.287 -4.251,2.245 -4.251,2.245c0,0 -0.521,-8.045 -5.251,-10.105c-5.698,-2.481 -6.077,2.172 -6.077,2.172c0,0 -0.883,-4.282 -2.498,-5.249c-2.799,-1.675 -4.961,-0.094 -6.552,0.967c-3.797,2.533 -3.241,6.538 -1.686,11.948l-14.518,-3.246l0.001,0.032Zm-0.101,7.731c-0.005,0.092 -0.011,0.185 -0.016,0.276l-0,0l0.016,-0.276Zm0.009,-0.178l-0.008,0.154l0.013,-0.241l-0.005,0.087Zm0.011,-0.216l-0.004,0.08l0.013,-0.245l-0.009,0.165Zm0.022,-0.462l-0.012,0.276c0.004,-0.091 0.008,-0.183 0.012,-0.276Zm0.008,-0.19l-0.007,0.171l0.01,-0.245l-0.003,0.074Zm0.009,-0.218l-0.003,0.087l0.009,-0.226l-0.006,0.139Zm0.017,-0.455l-0.01,0.273c0.004,-0.091 0.007,-0.182 0.01,-0.273Zm0.007,-0.202l-0.006,0.186l0.008,-0.247l-0.002,0.061Zm0.006,-0.22l-0.002,0.091l0.006,-0.207l-0.004,0.116Zm0.012,-0.448l-0.007,0.267c0.003,-0.089 0.005,-0.178 0.007,-0.267Zm0.005,-0.215l-0.004,0.203l0.005,-0.25l-0.001,0.047Zm0.005,-0.222l-0.002,0.094l0.004,-0.189l-0.002,0.095Zm0.004,-0.222l-0.001,0.042l0.004,-0.231l-0.003,0.189Zm0.007,-0.479l-0.003,0.256c0.001,-0.086 0.002,-0.171 0.003,-0.256Zm0.002,-0.19l-0.001,0.095l0.002,-0.171l-0.001,0.076Zm0.003,-0.224l-0.001,0.044l0.002,-0.182l-0.001,0.138Zm0.002,-0.469l-0.001,0.247c0.001,-0.083 0.001,-0.164 0.001,-0.247Zm0.001,-0.204l-0,0.092l0,-0.151l0,0.059Zm0,-0.225l0,0.043l0,-0.147l0,0.104Zm-0,-0.459l0,0.236c0,-0.077 -0,-0.157 -0,-0.236Zm-0.001,-0.219l0,0.085l-0.001,-0.127l0.001,0.042Zm-0.002,-0.226l0,0.042l-0.001,-0.118l0.001,0.076Zm-0.003,-0.314l0.001,0.091l-0.001,-0.091Zm-0.004,-0.367l0.001,0.072l-0.001,-0.099l0,0.027Zm-0.003,-0.227l0.001,0.038l-0.002,-0.093l0.001,0.055Zm-0.004,-0.26l0.001,0.035l-0.001,-0.035Zm-0.008,-0.437l0.001,0.06l-0.001,-0.06Z" style="fill:none;stroke:#686868;stroke-width:3px;"/><path d="M85.959,85.321c-0,0 -14.483,17.998 -19.304,30.956c-0.143,0.345 -0.279,0.685 -0.406,1.019c-4.342,11.367 -4.611,23.158 -3.97,31.482l0.058,0.013c-0.55,-8.144 -0.17,-19.791 4.093,-31.894c0.073,-0.205 0.147,-0.412 0.225,-0.62c5.048,-12.195 19.304,-30.956 19.304,-30.956Z" style="fill:none;stroke:#686868;stroke-width:3px;"/></svg>