<?xml version="1.0" encoding="UTF-8" standalone="no"?><!DOCTYPE svg PUBLIC "-//W3C//DTD SVG 1.1//EN" "http://www.w3.org/Graphics/SVG/1.1/DTD/svg11.dtd"><svg width="100%" height="100%" viewBox="0 0 30 30" version="1.1" xmlns="http://www.w3.org/2000/svg" xmlns:xlink="http://www.w3.org/1999/xlink" xml:space="preserve" xmlns:serif="http://www.serif.com/" style="fill-rule:evenodd;clip-rule:evenodd;stroke-linejoin:round;stroke-miterlimit:2;"><rect id="Artboard1" x="0" y="0" width="30" height="30" style="fill:none;"/><path d="M7.826,5.677c0.182,-0.031 0.369,-0.048 0.56,-0.048l12.534,-0c1.782,-0 3.229,1.447 3.229,3.228l0,12.543c0,0.17 -0.013,0.337 -0.039,0.5c1.516,-0.265 2.669,-1.589 2.669,-3.18l-0,-12.543c-0,-1.781 -1.447,-3.228 -3.229,-3.228l-12.534,-0c-1.612,-0 -2.949,1.184 -3.19,2.728Z"/><path d="M21.984,11.177c0,-1.782 -1.447,-3.228 -3.228,-3.228l-12.535,-0c-1.782,-0 -3.228,1.446 -3.228,3.228l-0,12.543c-0,1.782 1.446,3.229 3.228,3.229l12.535,-0c1.781,-0 3.228,-1.447 3.228,-3.229l0,-12.543Zm-2.5,0l0,12.543c0,0.402 -0.326,0.729 -0.728,0.729l-12.535,-0c-0.402,-0 -0.728,-0.327 -0.728,-0.729c-0,0 -0,-12.543 -0,-12.543c-0,-0.402 0.326,-0.728 0.728,-0.728c0,-0 12.535,-0 12.535,-0c0.402,-0 0.728,0.326 0.728,0.728Z"/></svg>