<?xml version="1.0" encoding="UTF-8" standalone="no"?><!DOCTYPE svg PUBLIC "-//W3C//DTD SVG 1.1//EN" "http://www.w3.org/Graphics/SVG/1.1/DTD/svg11.dtd"><svg width="100%" height="100%" viewBox="0 0 200 200" version="1.1" xmlns="http://www.w3.org/2000/svg" xmlns:xlink="http://www.w3.org/1999/xlink" xml:space="preserve" xmlns:serif="http://www.serif.com/" style="fill-rule:evenodd;clip-rule:evenodd;stroke-linecap:square;stroke-miterlimit:1;"><g><g><path d="M75.451,167.023c-3.883,-1.588 -18.138,-9.831 -21.432,-12.353c-7.542,-5.774 -12.103,-16.314 -12.103,-30.707c-0,-31.937 22.455,-70.83 50.112,-86.798c13.735,-7.929 26.186,-8.724 35.241,-3.605c0.477,0.27 15.975,9.213 16.508,9.534c8.849,5.329 14.307,16.463 14.307,32.208c0,31.937 -22.455,70.83 -50.112,86.798c-12.406,7.162 -23.766,8.504 -32.521,4.923Z" style="fill:none;stroke:#6c6c6c;stroke-width:3px;"/><path d="M107.972,46.37c27.657,-15.968 50.112,-3.004 50.112,28.932c0,31.937 -22.455,70.83 -50.112,86.798c-27.658,15.968 -50.113,3.004 -50.113,-28.933c0,-31.936 22.455,-70.829 50.113,-86.797Z" style="fill:none;stroke:#6c6c6c;stroke-width:3px;"/><path d="M107.972,59.729c21.272,-12.282 38.543,-2.311 38.543,22.253c0,24.563 -17.271,54.477 -38.543,66.759c-21.273,12.282 -38.544,2.311 -38.544,-22.253c-0,-24.564 17.271,-54.478 38.544,-66.759Z" style="fill:none;stroke:#6c6c6c;stroke-width:3px;"/><path d="M77.521,149.091c-5.073,-4.61 -8.093,-12.33 -8.093,-22.603c-0,-24.564 17.271,-54.478 38.544,-66.759c8.896,-5.137 17.092,-6.381 23.62,-4.293c5.073,4.609 8.093,12.33 8.093,22.602c0,24.564 -17.27,54.478 -38.543,66.76c-8.897,5.136 -17.093,6.381 -23.621,4.293Z" style="fill:none;stroke:#6c6c6c;stroke-width:3px;"/><g><path d="M56.551,74.662l15.943,9.205c-3.454,5.993 -6.405,12.275 -8.733,18.641l-15.943,-9.204c2.328,-6.365 5.278,-12.648 8.733,-18.642Z" style="fill:none;stroke:#6c6c6c;stroke-width:3px;"/><path d="M83.027,43.295l15.944,9.205c-5.527,4.35 -10.739,9.567 -15.479,15.375l-15.943,-9.205c4.737,-5.806 9.95,-11.025 15.478,-15.375Z" style="fill:none;stroke:#6c6c6c;stroke-width:3px;"/><path d="M99.215,33.608c6.129,-2.521 11.901,-3.552 17.106,-3.217l15.944,9.205c-5.205,-0.336 -10.977,0.696 -17.107,3.217l-15.943,-9.205Z" style="fill:none;stroke:#6c6c6c;stroke-width:3px;"/><path d="M42.758,112.866l15.943,9.205c-0.553,3.757 -0.842,7.472 -0.842,11.096c0,3.413 0.256,6.609 0.748,9.578l-15.943,-9.205c-0.492,-2.969 -0.748,-6.165 -0.748,-9.577c-0,-3.625 0.289,-7.34 0.842,-11.097Z" style="fill:none;stroke:#6c6c6c;stroke-width:3px;"/><path d="M49.325,149.963l15.943,9.205c2.231,2.896 4.911,5.181 7.96,6.81c-5.49,-2.77 -16.383,-9.145 -19.209,-11.308c-1.727,-1.322 -3.298,-2.895 -4.694,-4.707Z" style="fill:none;stroke:#6c6c6c;stroke-width:3px;"/></g><g><path d="M122.262,63.152l6.564,3.79l0,15.011l-7.541,3.468c-0.495,0.232 -1.051,0.499 -1.67,0.803c-0.618,0.303 -1.267,0.651 -1.947,1.044c-0.371,0.214 -0.834,0.495 -1.391,0.843c-0.556,0.348 -1.082,0.718 -1.576,1.111c-0.331,0.262 -0.634,0.544 -0.909,0.847c0.259,0.048 0.522,0.098 0.789,0.151c1.453,0.285 2.782,0.802 3.988,1.551c0.913,0.567 5.358,3.041 6.564,3.79c1.205,0.749 2.225,1.792 3.06,3.13c0.834,1.337 1.252,3.13 1.252,5.378c-0,3.692 -1.051,7.55 -3.153,11.573c-2.102,4.023 -5.409,7.953 -9.922,11.789l-0,6.422l-15.393,8.887l-5.45,-3.044c-0,0 -1.665,0.686 -2.339,0.958c-0.556,0.215 -1.082,0.411 -1.576,0.59c-0.495,0.178 -0.959,0.339 -1.391,0.481c-0,0 -6.132,-3.932 -6.565,-3.789l0,-16.055c0.68,-0.178 1.376,-0.406 2.087,-0.683c0.711,-0.276 1.437,-0.575 2.179,-0.897c2.596,-0.91 5.595,-2.347 8.995,-4.31c1.962,-1.133 3.248,-2.308 3.856,-3.526c-0.611,-0.069 -1.238,-0.145 -1.882,-0.228c-1.515,-0.196 -2.937,-0.606 -4.266,-1.23c-1.298,-0.61 -6.996,-4.004 -7.202,-4.124c-1.046,-0.606 -1.931,-1.426 -2.654,-2.461c-0.865,-1.24 -1.298,-2.984 -1.298,-5.231c-0,-3.532 0.989,-7.033 2.967,-10.503c1.978,-3.47 4.637,-6.731 7.975,-9.782l-0,-6.743l15.393,-8.887l5.351,3.108l7.105,-3.232Z" style="fill:none;fill-rule:nonzero;stroke:#6c6c6c;stroke-width:3px;stroke-linecap:butt;stroke-linejoin:round;stroke-miterlimit:2;"/><path d="M100.977,142.74l-5.453,-3.045c-0,-0 -1.491,0.618 -2.336,0.959c-0.556,0.215 -1.082,0.411 -1.576,0.59c-0.495,0.178 -0.959,0.339 -1.391,0.481l-0,-16.054c0.68,-0.179 1.375,-0.406 2.086,-0.683c0.711,-0.276 1.437,-0.575 2.179,-0.897c2.597,-0.91 5.595,-2.347 8.995,-4.31c2.843,-1.642 4.265,-3.372 4.265,-5.192c0,-0.695 -0.432,-1.155 -1.298,-1.377c-0.865,-0.223 -1.963,-0.392 -3.292,-0.508c-1.329,-0.116 -2.751,-0.271 -4.265,-0.467c-1.515,-0.196 -2.937,-0.606 -4.266,-1.23c-1.329,-0.624 -2.426,-1.556 -3.292,-2.796c-0.865,-1.239 -1.298,-2.983 -1.298,-5.23c0,-3.532 0.989,-7.033 2.968,-10.503c1.978,-3.47 4.636,-6.731 7.974,-9.782l0,-6.743l15.393,-8.887l-0,5.539c0.927,-0.429 1.777,-0.826 2.55,-1.191c0.773,-0.366 1.468,-0.674 2.086,-0.924l7.82,-3.548l0,15.011l-7.541,3.468c-0.495,0.232 -1.051,0.499 -1.67,0.803c-0.618,0.303 -1.267,0.651 -1.947,1.044c-0.371,0.214 -0.834,0.495 -1.391,0.843c-0.556,0.348 -1.082,0.718 -1.576,1.111c-0.495,0.392 -0.927,0.829 -1.298,1.311c-0.371,0.482 -0.557,0.963 -0.557,1.445c0,0.428 0.418,0.722 1.252,0.883c0.835,0.16 1.855,0.32 3.06,0.481c1.206,0.16 2.535,0.383 3.987,0.668c1.453,0.285 2.782,0.802 3.988,1.551c1.205,0.749 2.225,1.792 3.06,3.13c0.834,1.337 1.252,3.13 1.252,5.378c-0,3.692 -1.051,7.55 -3.153,11.573c-2.102,4.023 -5.409,7.953 -9.922,11.789l-0,6.422l-15.393,8.887Z" style="fill:none;fill-rule:nonzero;stroke:#6c6c6c;stroke-width:3px;stroke-linecap:butt;stroke-linejoin:round;stroke-miterlimit:2;"/></g></g></g></svg>
