<?xml version="1.0" encoding="UTF-8" standalone="no"?><!DOCTYPE svg PUBLIC "-//W3C//DTD SVG 1.1//EN" "http://www.w3.org/Graphics/SVG/1.1/DTD/svg11.dtd"><svg width="100%" height="100%" viewBox="0 0 200 200" version="1.1" xmlns="http://www.w3.org/2000/svg" xmlns:xlink="http://www.w3.org/1999/xlink" xml:space="preserve" xmlns:serif="http://www.serif.com/" style="fill-rule:evenodd;clip-rule:evenodd;stroke-linejoin:round;stroke-miterlimit:2;"><path d="M149.181,28.111c-19.24,4.277 -31.727,11.411 -36.799,21.683c-3.4,9.357 -14.544,16.247 -34.501,20.329c-0.124,4.006 -1.737,7.254 -4.584,9.874l-0,55.355c21.384,-6.286 36.546,-13.796 40.053,-23.6c4.84,-11.258 15.836,-18.859 35.831,-21.113l0,-62.528Zm-3,3.794l0,56.091c-19.743,2.797 -30.618,11.011 -35.587,22.571c-0.025,0.057 -0.048,0.115 -0.069,0.174c-1.221,3.414 -4.153,6.429 -8.318,9.263c-6.245,4.25 -15.163,7.947 -25.91,11.305c-0,-0 -0,-50.058 -0,-50.058c2.316,-2.443 3.806,-5.308 4.354,-8.652c19.908,-4.429 30.909,-12.009 34.492,-21.619c4.478,-8.911 15.082,-15.043 31.038,-19.075l0,0Z" style="fill:#686868;"/><path d="M66.134,63.333c3.912,0 7.088,3.242 7.088,7.235c0,3.993 -3.176,7.234 -7.088,7.234c-3.913,0 -7.089,-3.241 -7.089,-7.234c-0,-3.993 3.176,-7.235 7.089,-7.235Zm-0,3c2.273,0 4.088,1.914 4.088,4.235c0,2.32 -1.815,4.234 -4.088,4.234c-2.274,0 -4.089,-1.914 -4.089,-4.234c-0,-2.321 1.815,-4.235 4.089,-4.235Z" style="fill:#686868;"/><path d="M69.933,80.759c-2.897,1.427 -5.666,1.531 -8.294,-0l-0,95.239l8.294,-0l-0,-95.239Zm-3,4.046l-0,88.193c-0,-0 -2.294,-0 -2.294,-0c-0,-0 -0,-88.154 -0,-88.154c0.757,0.071 1.522,0.058 2.294,-0.039l-0,0Z" style="fill:#686868;"/></svg>