<?xml version="1.0" encoding="UTF-8" standalone="no"?><!DOCTYPE svg PUBLIC "-//W3C//DTD SVG 1.1//EN" "http://www.w3.org/Graphics/SVG/1.1/DTD/svg11.dtd"><svg width="100%" height="100%" viewBox="0 0 200 200" version="1.1" xmlns="http://www.w3.org/2000/svg" xmlns:xlink="http://www.w3.org/1999/xlink" xml:space="preserve" xmlns:serif="http://www.serif.com/" style="fill-rule:evenodd;clip-rule:evenodd;stroke-linejoin:round;stroke-miterlimit:2;"><path d="M157.302,36.755l-27.283,15.751l0,0.231l-2.218,7.857l1.008,1.372l2.379,-8.469l26.114,-15.076l-0,-1.666Z" style="fill:#686868;"/><path d="M46.329,174.767l23.838,-13.763l0,-0.231l3.922,-19.62l-1.493,0.862l-3.598,17.998l-22.669,13.089l-0,1.665Z" style="fill:#686868;"/><path d="M137.235,33.204l-3.703,2.139l0,11.846l3.703,-2.138l0,-11.847Z" style="fill:#686868;"/><path d="M144.892,28.784l-3.703,2.138l0,11.846l3.703,-2.138l0,-11.846Z" style="fill:#686868;"/><path d="M152.391,24.972l-3.703,2.138l-0,11.846l3.703,-2.138l-0,-11.846Z" style="fill:#686868;"/><path d="M49.842,155.152l-3.703,2.138l0,11.846l3.703,-2.138l0,-11.846Z" style="fill:#686868;"/><path d="M57.538,150.709l-3.704,2.138l-0,11.846l3.704,-2.138l-0,-11.846Z" style="fill:#686868;"/><path d="M64.883,146.468l-3.703,2.138l0,11.846l3.703,-2.138l0,-11.846Z" style="fill:#686868;"/><path d="M33.721,73.099l-3.703,2.138l-0,11.847l3.703,-2.138l-0,-11.847Z" style="fill:#686868;"/><path d="M41.378,68.678l-3.703,2.138l0,11.847l3.703,-2.138l0,-11.847Z" style="fill:#686868;"/><path d="M48.799,64.394l-3.703,2.138l0,11.846l3.703,-2.138l0,-11.846Z" style="fill:#686868;"/><path d="M56.494,59.951l-3.703,2.138l0,11.847l3.703,-2.138l0,-11.847Z" style="fill:#686868;"/><path d="M63.84,55.71l-3.704,2.138l0,11.847l3.704,-2.138l0,-11.847Z" style="fill:#686868;"/><path d="M71.314,51.395l-3.703,2.138l-0,11.846l3.703,-2.138l-0,-11.846Z" style="fill:#686868;"/><path d="M97.937,56.452c20.045,-11.573 36.32,-2.177 36.32,20.969c0,23.147 -16.275,51.335 -36.32,62.908c-20.045,11.573 -36.32,2.177 -36.32,-20.969c0,-23.147 16.275,-51.335 36.32,-62.908Zm1.5,2.598c8.864,-5.117 16.863,-5.892 22.677,-2.535c5.814,3.357 9.143,10.671 9.143,20.906c0,22.191 -15.603,49.215 -34.82,60.31c-8.864,5.117 -16.863,5.892 -22.677,2.535c-5.814,-3.357 -9.143,-10.671 -9.143,-20.906c0,-22.191 15.603,-49.215 34.82,-60.31Z" style="fill:#686868;"/><path d="M138.83,100.776c1.169,-0.675 2.118,-0.127 2.118,1.223c0,1.35 -0.949,2.993 -2.118,3.668c-1.169,0.675 -2.118,0.127 -2.118,-1.222c0,-1.35 0.949,-2.994 2.118,-3.669Zm-0.183,2.34c0.061,0.04 0.122,0.076 0.18,0.11c0.059,0.034 0.121,0.069 0.186,0.101c-0.061,-0.04 -0.122,-0.076 -0.181,-0.11c-0.058,-0.034 -0.12,-0.069 -0.185,-0.101Z" style="fill:#686868;"/><path d="M138.83,108.623c1.169,-0.675 2.118,-0.127 2.118,1.223c0,1.35 -0.949,2.994 -2.118,3.669c-1.169,0.674 -2.118,0.127 -2.118,-1.223c0,-1.35 0.949,-2.994 2.118,-3.669Zm-0.18,2.342c0.06,0.039 0.12,0.075 0.177,0.108c0.058,0.033 0.119,0.068 0.184,0.1c-0.061,-0.04 -0.121,-0.075 -0.179,-0.109c-0.057,-0.033 -0.118,-0.067 -0.182,-0.099Z" style="fill:#686868;"/><path d="M138.83,116.471c1.169,-0.675 2.118,-0.127 2.118,1.222c0,1.35 -0.949,2.994 -2.118,3.669c-1.169,0.675 -2.118,0.127 -2.118,-1.223c0,-1.35 0.949,-2.994 2.118,-3.668Zm-0.183,2.34c0.061,0.04 0.122,0.076 0.181,0.11c0.058,0.034 0.12,0.069 0.185,0.101c-0.061,-0.04 -0.122,-0.076 -0.18,-0.11c-0.059,-0.034 -0.121,-0.069 -0.186,-0.101Z" style="fill:#686868;"/><path d="M138.83,124.318c1.169,-0.675 2.118,-0.127 2.118,1.223c0,1.349 -0.949,2.993 -2.118,3.668c-1.169,0.675 -2.118,0.127 -2.118,-1.223c0,-1.35 0.949,-2.993 2.118,-3.668Zm-0.184,2.339c0.061,0.041 0.122,0.077 0.181,0.111c0.059,0.034 0.121,0.069 0.187,0.102c-0.061,-0.041 -0.122,-0.077 -0.181,-0.111c-0.059,-0.034 -0.121,-0.069 -0.187,-0.102Z" style="fill:#686868;"/><path d="M97.937,56.452c-20.059,11.581 -36.32,39.746 -36.32,62.908c0,23.146 16.275,32.542 36.32,20.969c7.022,-4.054 13.892,-10.371 19.781,-18.186l-19.781,-23.752l0,-41.939Zm-3,5.529l0,37.496l18.932,22.732c-5.287,6.608 -11.292,11.977 -17.432,15.522c-8.864,5.117 -16.863,5.892 -22.677,2.535c-5.814,-3.357 -9.143,-10.671 -9.143,-20.906c0,-20.445 13.215,-44.956 30.32,-57.379Z" style="fill:#686868;"/><path d="M97.937,56.452c-20.059,11.581 -36.32,39.746 -36.32,62.908c0,0.976 0.03,1.935 0.089,2.874l36.231,-23.843l0,-41.939Zm-33.246,60.226c1.08,-19.868 13.884,-42.813 30.246,-54.697l-0,34.793l-30.246,19.904Z" style="fill:#686868;"/><path d="M97.937,56.452c-7.887,4.554 -15.559,11.948 -21.858,21.065l21.858,20.874l0,-41.939Zm-3,5.538l0,29.388l-14.906,-14.235c4.477,-6.076 9.578,-11.265 14.906,-15.153Z" style="fill:#686868;"/><path d="M97.937,56.452c-0.951,0.549 -0.951,11.034 -0.714,21.382c0.238,10.347 0.714,20.557 0.714,20.557l0,-41.939Z" style="fill:#686868;"/><path d="M162.294,88.904l-19.738,11.396l0,1.541l19.738,-11.395l0,-1.542Z" style="fill:#686868;"/><path d="M49.782,80.043l-19.738,11.396l-0,1.541l19.738,-11.396l-0,-1.541Z" style="fill:#686868;"/><path d="M49.675,83.772l-19.737,11.396l-0,1.541l19.737,-11.395l-0,-1.542Z" style="fill:#686868;"/><path d="M49.569,87.501l-19.738,11.396l0,1.541l19.738,-11.395l0,-1.542Z" style="fill:#686868;"/><path d="M162.294,96.751l-19.738,11.396l0,1.541l19.738,-11.395l0,-1.542Z" style="fill:#686868;"/><path d="M162.294,104.599l-19.738,11.395l0,1.542l19.738,-11.396l0,-1.541Z" style="fill:#686868;"/><path d="M162.294,112.446l-19.738,11.396l0,1.541l19.738,-11.396l0,-1.541Z" style="fill:#686868;"/></svg>