<svg width="100%" height="100%" viewBox="0 0 300 300" version="1.1" xmlns="http://www.w3.org/2000/svg" xmlns:xlink="http://www.w3.org/1999/xlink" xml:space="preserve" xmlns:serif="http://www.serif.com/" style="fill-rule:evenodd;clip-rule:evenodd;stroke-linejoin:round;stroke-miterlimit:2;"><path d="M148.392,5.207c0,0 0.162,0.002 0.162,0.002l0.006,-0l0.063,0.001l0.093,0.003l0.01,-0l0.078,0.003l0.074,0.003l0.015,0.001l0.084,0.005l0.062,0.003l0.02,0.002l0.087,0.006l0.055,0.004l0.023,0.002l0.089,0.008l0.049,0.004l0.009,0.001l0.018,0.002l0.089,0.01l0.045,0.004l0.01,0.002l0.02,0.002l0.088,0.011l0.043,0.005l0.011,0.002l0.022,0.002l0.085,0.012l0.043,0.006l0.011,0.002l0.024,0.003l0.083,0.014l0.042,0.006l0.013,0.002l0.024,0.004l0.08,0.014l0.043,0.008l0.014,0.002l0.025,0.005l0.076,0.014l0.045,0.009l0.015,0.003l0.025,0.005l0.072,0.015l0.047,0.009l0.017,0.004l0.024,0.005l0.068,0.016l0.05,0.011l0.018,0.004l0.024,0.005l0.064,0.016l0.053,0.013l0.019,0.005l0.023,0.005l0.059,0.016l0.057,0.014l0.02,0.006l0.021,0.006l0.056,0.015l0.06,0.016l0.022,0.007l0.019,0.005l0.053,0.016l0.063,0.018l0.023,0.007l0.018,0.006l0.048,0.015l0.067,0.021l0.024,0.007l0.016,0.006l0.046,0.015l0.07,0.023l0.024,0.008l0.014,0.005l0.044,0.015l0.073,0.025l0.023,0.009l0.014,0.005l0.041,0.015l0.076,0.028l0.023,0.009l0.012,0.004l0.04,0.015l0.078,0.03l0.023,0.009l0.01,0.005l0.04,0.016l0.08,0.032l0.021,0.009l0.009,0.004l0.041,0.017l0.081,0.034l0.019,0.008l0.009,0.004l0.042,0.019l0.081,0.036l0.017,0.007l0.008,0.004l0.045,0.021l0.081,0.037l0.021,0.01l0.049,0.024l0.079,0.038l0.017,0.009l0.056,0.028l0.076,0.038l0.013,0.007l0.065,0.034l0.069,0.036l0.009,0.005l0.082,0.044l0.056,0.031l0.004,0.002l0.141,0.08c0,0 116.578,67.307 116.578,67.307c3.094,1.786 5,5.087 5,8.66l0,134.613c0,-0 -0.001,0.162 -0.001,0.162l0,0.005l-0.002,0.063l-0.002,0.093l-0,0.011l-0.003,0.078l-0.003,0.073l-0.001,0.015l-0.005,0.085l-0.004,0.062l-0.001,0.019l-0.006,0.088l-0.004,0.054l-0.002,0.023l-0.008,0.089l-0.005,0.05l-0.001,0.008l-0.001,0.018l-0.01,0.089l-0.005,0.046l-0.001,0.009l-0.002,0.021l-0.011,0.087l-0.005,0.044l-0.002,0.01l-0.003,0.022l-0.012,0.086l-0.006,0.042l-0.001,0.012l-0.004,0.023l-0.013,0.083l-0.006,0.043l-0.003,0.012l-0.003,0.025l-0.014,0.079l-0.008,0.044l-0.002,0.013l-0.005,0.025l-0.014,0.076l-0.009,0.046l-0.003,0.015l-0.005,0.024l-0.015,0.072l-0.01,0.048l-0.003,0.016l-0.005,0.025l-0.016,0.068l-0.011,0.05l-0.004,0.018l-0.006,0.023l-0.015,0.064l-0.013,0.053l-0.005,0.02l-0.005,0.022l-0.016,0.06l-0.015,0.056l-0.005,0.021l-0.006,0.021l-0.015,0.056l-0.017,0.059l-0.006,0.023l-0.006,0.019l-0.015,0.052l-0.018,0.063l-0.008,0.023l-0.005,0.018l-0.015,0.049l-0.021,0.066l-0.008,0.024l-0.005,0.016l-0.015,0.046l-0.023,0.07l-0.008,0.024l-0.005,0.015l-0.015,0.043l-0.026,0.073l-0.008,0.024l-0.005,0.013l-0.015,0.041l-0.028,0.076l-0.009,0.023l-0.004,0.012l-0.016,0.041l-0.03,0.078l-0.009,0.022l-0.004,0.011l-0.016,0.04l-0.032,0.08l-0.009,0.02l-0.004,0.01l-0.017,0.04l-0.034,0.082l-0.009,0.018l-0.003,0.009l-0.019,0.042l-0.036,0.082l-0.008,0.016l-0.003,0.008l-0.021,0.045l-0.037,0.081l-0.01,0.021l-0.024,0.049l-0.038,0.079l-0.009,0.018l-0.028,0.055l-0.038,0.076l-0.007,0.013l-0.034,0.066l-0.036,0.069l-0.005,0.009l-0.045,0.081l-0.03,0.056l-0.003,0.005l-0.079,0.141c-0.028,0.047 -0.055,0.094 -0.084,0.141l-0.001,0.003l-0.033,0.054l-0.049,0.079l-0.005,0.009l-0.042,0.066l-0.039,0.062l-0.008,0.013l-0.047,0.071l-0.034,0.052l-0.011,0.016l-0.049,0.072l-0.031,0.046l-0.013,0.019l-0.052,0.073l-0.028,0.04l-0.005,0.007l-0.011,0.015l-0.052,0.072l-0.027,0.037l-0.006,0.008l-0.012,0.016l-0.053,0.071l-0.027,0.035l-0.006,0.008l-0.014,0.018l-0.053,0.068l-0.026,0.034l-0.008,0.009l-0.014,0.018l-0.053,0.066l-0.027,0.033l-0.008,0.01l-0.016,0.019l-0.052,0.062l-0.028,0.034l-0.009,0.011l-0.016,0.019l-0.051,0.059l-0.03,0.034l-0.01,0.012l-0.017,0.019l-0.049,0.055l-0.032,0.036l-0.011,0.012l-0.017,0.019l-0.047,0.051l-0.035,0.038l-0.013,0.013l-0.016,0.018l-0.045,0.048l-0.038,0.039l-0.014,0.014l-0.016,0.017l-0.043,0.044l-0.041,0.042l-0.015,0.015l-0.016,0.015l-0.041,0.041l-0.044,0.043l-0.017,0.016l-0.014,0.014l-0.04,0.038l-0.047,0.045l-0.018,0.017l-0.013,0.012l-0.038,0.035l-0.051,0.047l-0.019,0.017l-0.012,0.011l-0.036,0.032l-0.055,0.05l-0.019,0.016l-0.012,0.01l-0.035,0.03l-0.058,0.051l-0.02,0.016l-0.01,0.009l-0.034,0.029l-0.062,0.051l-0.019,0.016l-0.01,0.008l-0.034,0.027l-0.065,0.053l-0.019,0.015l-0.008,0.007l-0.034,0.026l-0.068,0.053l-0.018,0.014l-0.008,0.006l-0.036,0.027l-0.07,0.053l-0.016,0.012l-0.008,0.006l-0.037,0.027l-0.072,0.053l-0.015,0.01l-0.007,0.005l-0.041,0.029l-0.073,0.051l-0.019,0.013l-0.045,0.031l-0.073,0.05l-0.016,0.01l-0.052,0.034l-0.07,0.047l-0.013,0.008l-0.062,0.039l-0.066,0.042l-0.009,0.006l-0.079,0.048l-0.054,0.033l-0.003,0.002c-0.047,0.028 -0.094,0.056 -0.142,0.083c0,-0 -116.578,67.306 -116.578,67.306c-3.094,1.787 -6.906,1.787 -10,0l-116.578,-67.306c0,-0 -0.139,-0.082 -0.139,-0.082l-0.005,-0.003l-0.054,-0.033l-0.08,-0.048l-0.008,-0.006l-0.066,-0.042l-0.062,-0.039l-0.013,-0.008l-0.071,-0.047l-0.052,-0.034l-0.016,-0.01l-0.073,-0.05l-0.045,-0.031l-0.019,-0.013l-0.073,-0.051l-0.04,-0.029l-0.007,-0.005l-0.015,-0.01l-0.072,-0.053l-0.037,-0.027l-0.008,-0.006l-0.017,-0.012l-0.07,-0.053l-0.035,-0.027l-0.008,-0.006l-0.018,-0.014l-0.068,-0.053l-0.034,-0.026l-0.009,-0.007l-0.019,-0.015l-0.065,-0.053l-0.033,-0.027l-0.01,-0.008l-0.019,-0.016l-0.062,-0.051l-0.034,-0.029l-0.011,-0.009l-0.019,-0.016l-0.059,-0.051l-0.035,-0.03l-0.011,-0.01l-0.019,-0.016l-0.055,-0.05l-0.036,-0.032l-0.013,-0.011l-0.018,-0.017l-0.051,-0.047l-0.038,-0.035l-0.014,-0.012l-0.017,-0.017l-0.048,-0.045l-0.039,-0.038l-0.015,-0.014l-0.016,-0.016l-0.044,-0.043l-0.042,-0.041l-0.015,-0.015l-0.015,-0.015l-0.041,-0.042l-0.044,-0.044l-0.015,-0.017l-0.015,-0.014l-0.037,-0.039l-0.045,-0.048l-0.017,-0.018l-0.013,-0.013l-0.034,-0.038l-0.048,-0.051l-0.016,-0.019l-0.012,-0.012l-0.032,-0.036l-0.049,-0.055l-0.016,-0.019l-0.011,-0.012l-0.03,-0.034l-0.05,-0.059l-0.016,-0.019l-0.009,-0.011l-0.029,-0.034l-0.052,-0.062l-0.015,-0.019l-0.008,-0.01l-0.027,-0.033l-0.053,-0.066l-0.015,-0.018l-0.007,-0.009l-0.026,-0.034l-0.054,-0.068l-0.013,-0.018l-0.007,-0.008l-0.026,-0.035l-0.053,-0.071l-0.012,-0.016l-0.006,-0.008l-0.027,-0.037l-0.053,-0.072l-0.01,-0.015l-0.005,-0.007l-0.029,-0.04l-0.051,-0.073l-0.014,-0.019l-0.03,-0.046l-0.05,-0.072l-0.011,-0.016l-0.034,-0.052l-0.046,-0.071l-0.008,-0.013l-0.04,-0.062l-0.041,-0.066l-0.006,-0.009l-0.048,-0.079l-0.033,-0.054l-0.002,-0.003c-0.028,-0.047 -0.056,-0.094 -0.083,-0.141c-0,-0 -0.08,-0.141 -0.08,-0.141l-0.003,-0.005l-0.03,-0.056l-0.044,-0.081l-0.005,-0.009l-0.037,-0.069l-0.034,-0.066l-0.007,-0.013l-0.038,-0.076l-0.028,-0.055l-0.008,-0.018l-0.038,-0.079l-0.024,-0.049l-0.01,-0.021l-0.038,-0.081l-0.02,-0.045l-0.004,-0.008l-0.007,-0.016l-0.037,-0.082l-0.018,-0.042l-0.004,-0.009l-0.008,-0.018l-0.034,-0.082l-0.018,-0.04l-0.004,-0.01l-0.008,-0.02l-0.033,-0.08l-0.016,-0.04l-0.004,-0.011l-0.009,-0.022l-0.03,-0.078l-0.015,-0.041l-0.005,-0.012l-0.009,-0.023l-0.027,-0.076l-0.016,-0.041l-0.004,-0.013l-0.009,-0.024l-0.025,-0.073l-0.015,-0.043l-0.005,-0.015l-0.009,-0.024l-0.023,-0.07l-0.015,-0.046l-0.005,-0.016l-0.008,-0.024l-0.02,-0.066l-0.016,-0.049l-0.005,-0.018l-0.007,-0.023l-0.018,-0.063l-0.016,-0.052l-0.005,-0.019l-0.007,-0.023l-0.016,-0.059l-0.016,-0.056l-0.005,-0.021l-0.006,-0.021l-0.014,-0.056l-0.016,-0.06l-0.006,-0.022l-0.005,-0.02l-0.012,-0.053l-0.016,-0.064l-0.005,-0.023l-0.004,-0.018l-0.012,-0.05l-0.015,-0.068l-0.005,-0.025l-0.004,-0.016l-0.01,-0.048l-0.015,-0.072l-0.004,-0.024l-0.004,-0.015l-0.008,-0.046l-0.015,-0.076l-0.004,-0.025l-0.003,-0.013l-0.007,-0.044l-0.014,-0.079l-0.004,-0.025l-0.002,-0.012l-0.007,-0.043l-0.013,-0.083l-0.003,-0.023l-0.002,-0.012l-0.006,-0.042l-0.012,-0.086l-0.003,-0.022l-0.001,-0.01l-0.006,-0.044l-0.01,-0.087l-0.003,-0.021l-0.001,-0.009l-0.005,-0.046l-0.009,-0.089l-0.002,-0.018l-0.001,-0.008l-0.004,-0.05l-0.008,-0.089l-0.002,-0.023l-0.004,-0.054l-0.007,-0.088l-0.001,-0.019l-0.004,-0.062l-0.004,-0.085l-0.001,-0.015l-0.003,-0.073l-0.003,-0.078l-0.001,-0.011l-0.002,-0.093l-0.002,-0.063l0,-0.005l-0.001,-0.162c0,-0 0,-134.613 0,-134.613c0,-3.573 1.906,-6.874 5,-8.66l116.578,-67.307c0,0 0.141,-0.08 0.141,-0.08l0.005,-0.002l0.055,-0.031l0.082,-0.044l0.009,-0.005l0.069,-0.036l0.066,-0.034l0.013,-0.007l0.076,-0.038l0.055,-0.028l0.017,-0.009l0.08,-0.038l0.049,-0.024l0.021,-0.01l0.081,-0.037l0.045,-0.021l0.008,-0.004l0.016,-0.007l0.082,-0.036l0.042,-0.019l0.009,-0.004l0.018,-0.008l0.082,-0.034l0.04,-0.017l0.01,-0.004l0.02,-0.009l0.08,-0.032l0.04,-0.016l0.011,-0.005l0.022,-0.009l0.078,-0.03l0.041,-0.015l0.011,-0.004l0.024,-0.009l0.076,-0.028l0.041,-0.015l0.013,-0.005l0.024,-0.009l0.073,-0.025l0.043,-0.015l0.015,-0.005l0.024,-0.008l0.07,-0.023l0.046,-0.015l0.016,-0.006l0.024,-0.007l0.066,-0.021l0.049,-0.015l0.018,-0.006l0.023,-0.007l0.063,-0.018l0.052,-0.016l0.019,-0.005l0.023,-0.007l0.059,-0.016l0.056,-0.015l0.021,-0.006l0.021,-0.006l0.056,-0.014l0.06,-0.016l0.022,-0.005l0.02,-0.005l0.053,-0.013l0.064,-0.016l0.023,-0.005l0.018,-0.004l0.05,-0.011l0.068,-0.016l0.025,-0.005l0.016,-0.004l0.047,-0.009l0.072,-0.015l0.025,-0.005l0.015,-0.003l0.046,-0.009l0.075,-0.014l0.025,-0.005l0.014,-0.002l0.044,-0.008l0.079,-0.014l0.025,-0.004l0.012,-0.002l0.043,-0.006l0.083,-0.014l0.023,-0.003l0.012,-0.002l0.042,-0.006l0.086,-0.012l0.022,-0.002l0.01,-0.002l0.044,-0.005l0.087,-0.011l0.021,-0.002l0.009,-0.002l0.046,-0.004l0.089,-0.01l0.018,-0.002l0.008,-0.001l0.05,-0.004l0.088,-0.008l0.024,-0.002l0.054,-0.004l0.088,-0.006l0.019,-0.002l0.062,-0.003l0.085,-0.005l0.015,-0.001l0.073,-0.003l0.078,-0.003l0.011,-0l0.093,-0.003l0.063,-0.001l0.003,-0c0.055,-0.001 0.11,-0.002 0.164,-0.002Zm79.258,221.92l-158.515,-0l79.257,45.759l79.258,-45.759Zm-178.515,-20l198.515,-0l-99.258,-171.92l-99.257,171.92Zm-7.321,-118.84l0,91.519l79.258,-137.278l-79.258,45.759Zm133.899,-45.759l79.257,137.278l0,-91.519l-79.257,-45.759Z" style="fill:url(#_Radial1);"/><defs><radialGradient id="_Radial1" cx="0" cy="0" r="1" gradientUnits="userSpaceOnUse" gradientTransform="matrix(253.156,0,0,289.226,21.8141,149.82)"><stop offset="0" style="stop-color:#002dff;stop-opacity:1"/><stop offset="1" style="stop-color:#ab00ff;stop-opacity:1"/></radialGradient></defs></svg>