<svg xmlns="http://www.w3.org/2000/svg" width="497.718" height="567.612" viewBox="0 0 497.718 567.612">
  <path fill="#fff" style="opacity:0.3;" id="Union_21" data-name="Union 21" d="M-3844.9-4944.147h-.006l-.124,0-.182-.006h-.021l-.154-.006-.144-.006h-.03l-.167-.01-.122-.006-.038,0-.171-.012-.109-.008-.045,0-.175-.017-.1-.008-.017,0-.036,0-.174-.019-.09-.009-.019,0-.039,0-.173-.021-.086-.011-.019,0-.045-.006-.168-.024-.083-.01-.024,0-.044-.006-.164-.025-.083-.013-.024,0-.048-.008-.157-.027-.086-.015-.027,0-.048-.008-.151-.028-.088-.019-.03,0-.049-.01-.143-.028-.093-.02-.031-.007-.049-.01-.134-.03-.1-.022-.034-.009-.047-.01-.126-.029-.1-.026-.038-.01-.045-.01-.117-.031-.112-.028-.04-.01-.042-.013-.11-.029-.116-.032-.044-.013-.038-.01-.1-.03-.123-.037-.047-.014-.032-.01-.1-.03-.131-.041-.048-.015-.031-.01-.09-.029-.14-.045-.046-.016-.029-.011-.085-.029-.144-.049-.047-.019-.026-.008-.083-.029-.148-.055-.046-.017-.023-.009-.08-.031-.154-.058-.045-.017-.019-.007-.077-.033-.157-.063-.042-.016-.018-.008-.082-.035-.159-.067-.036-.015-.018-.008-.083-.036-.161-.071-.032-.015-.015-.006-.09-.042-.159-.073-.041-.021-.1-.046-.157-.075-.033-.017-.109-.055-.149-.072-.026-.014-.127-.067-.136-.07-.02-.009-.159-.087-.109-.06-.006,0c-.095-.052-.188-.1-.281-.159l-229.16-131.856a19.573,19.573,0,0,1-9.819-16.363c-.018-.185-.033-.369-.046-.554l0-.027,0-.038-.007-.122v-.024q-.014-.237-.021-.473v-.015l0-.122c0-.024,0-.05,0-.076l0-.108v-.009l0-.318v-263.535c0-.184,0-.367.008-.55v-.093c.008-.216.018-.432.033-.647v-.014l0-.053c.014-.2.031-.395.051-.591h0v0c.011-.106.022-.212.034-.318h0v0q.034-.286.075-.574l0-.015.007-.046,0-.012c.047-.31.1-.62.163-.926l0-.01,0-.014q.056-.276.12-.55l0-.018,0-.021c.066-.283.14-.562.218-.842l.008-.03,0-.008.018-.063,0-.01.015-.053c.023-.077.046-.154.069-.232l.006-.021.009-.028c.016-.053.034-.107.05-.16l.011-.038.007-.019.015-.049,0-.01.03-.091.016-.049.055-.162v0l.029-.083.043-.122c.036-.1.071-.2.109-.3l.009-.027.006-.015c.04-.106.08-.21.121-.315l.005-.012.008-.022.007-.017.081-.2.008-.021.006-.015a.312.312,0,0,0,.014-.035l0-.01.016-.037q.1-.24.207-.475l.01-.022,0-.009c.042-.092.083-.184.126-.274l0-.01.019-.042.022-.043c.029-.06.057-.12.087-.18l.013-.027.016-.035.056-.109.012-.024q.324-.642.695-1.257l0-.01.025-.04c.056-.094.113-.185.171-.278l.056-.089.078-.122.015-.024.056-.084.061-.093.042-.063.01-.015c.085-.126.171-.251.259-.375l.037-.052.023-.033.15-.207.016-.024.011-.014c.072-.1.147-.2.221-.294l.012-.018.013-.016.025-.033.018-.022.086-.112.053-.066.013-.015.007-.01.023-.029.1-.127.021-.025.057-.069.022-.028.037-.043.1-.121.018-.024.014-.014.018-.021.018-.023.027-.029c.052-.061.106-.122.159-.183l.024-.03.1-.107.064-.071.012-.013.021-.021.022-.026.035-.037.09-.1.036-.04.024-.024.009-.01.024-.027.013-.013.135-.142.013-.015.011-.01.035-.037.014-.015.032-.032c.031-.033.062-.064.094-.1l.038-.039.024-.024.016-.015.019-.02.022-.021c.051-.05.1-.1.154-.15l.024-.024.03-.029.048-.044.106-.1.017-.016.02-.019c.027-.025.052-.049.08-.074l.035-.032.1-.093.013-.011.043-.038.005-.006.071-.064.108-.1.019-.017.028-.023.012-.012.039-.032.111-.1.035-.03.018-.015.029-.024.011-.01.034-.027.118-.1.037-.03.023-.02.025-.02.008-.007.066-.053.059-.048.007-.006.062-.05.012-.01c.012-.008.023-.018.035-.026l.007-.006.049-.038.113-.088.039-.029.035-.028.015-.011.069-.053.067-.05.081-.06.023-.017.014-.011.073-.053.042-.03.124-.088.006,0,.012-.01.044-.03c.131-.093.263-.183.4-.274l.053-.035.031-.021.1-.067.066-.042q.174-.114.352-.224l.015-.011.157-.094.1-.065.008,0,.275-.16,83.711-48.167,145.3-83.6.082-.045.139-.078.057-.033h0l.089-.049.026-.015.054-.028.122-.065,0,0,.005,0q.276-.146.556-.284l.02-.01.028-.014c.086-.042.171-.083.258-.124l.008,0,.007,0c.084-.04.169-.078.255-.117h0c.091-.042.18-.081.271-.12h0l.019-.008.034-.016.023-.01c.175-.075.353-.148.53-.218h0l.044-.019.153-.059.042-.015c.127-.048.256-.095.384-.141l.026-.01.062-.022q.244-.085.49-.165l.011,0,.015,0c.092-.03.183-.059.275-.085l.017-.006.046-.013.01,0,.163-.048.052-.016.038-.01.046-.013.072-.019.2-.055.037-.009.027-.007.172-.044.03-.007.014,0,.224-.055.073-.019.044-.008.215-.049.054-.013.049-.009.031-.008.051-.01c.173-.037.348-.07.522-.1l.027,0,.014,0,.09-.017h.01l.155-.028.05-.007.023,0,.023,0,.165-.025.058-.01.046-.005.023,0,.083-.012.168-.023.021,0,.036,0,.006,0,.024,0,.282-.035.01,0,.047,0,.212-.022h.006l.036,0,.015,0,.066-.005.154-.013.051,0,.033,0c.1-.009.21-.016.315-.023l.016,0h.048l.232-.014h.008l.031,0,.06,0q.35-.015.7-.019l.193,0h.071c.124,0,.249,0,.373.005h.016q.242.006.485.017h.009l.03,0h.024l.209.012h.053l.021,0c.1.007.192.013.286.021h.024l.222.02.081.006.017,0,.036,0,.034,0,.172.019.056,0,.013,0,.04,0h.014l.216.027.032,0,.011,0,.024,0,.03,0,.167.023.084.012.021,0,.047.005.079.014.135.021.031,0,.027,0,.047.007.139.025.112.02.018,0,.033.006.1.019.066.012.055.011c.1.02.2.04.3.061l.043.008.034.008.047.009.067.017.176.04.023,0,.047.01.126.031.1.024.019.006.029.006.035.008.071.02.084.021.073.018.039.011.009,0,.126.035.015,0,.118.031.043.013.038.01.068.02c.029.01.058.018.087.026l.073.021.045.013.036.011.026.009q.1.031.2.064l.042.011.025.01.083.028.013,0,.137.045.048.015.028.01.087.03.143.049.043.016c.1.038.211.076.316.116l.012.005.079.029.153.058.045.019.014.006.214.086.028.011.042.018h0l.086.036.007,0,.159.067.038.016.017.007.062.028.165.073.014.007.034.013.015.008.064.029.044.021.141.064.041.02.088.042.04.02.124.059.025.014.2.1.072.036.025.013.038.021.154.08.071.037.019.01.161.085.11.061.008,0,.277.156,191.327,110.088,37.679,21.68.05.029.117.069.107.062.006,0,.053.032.057.033.094.058q.309.19.61.39l.018.011.041.028.225.154,0,0h0l.228.16.008.006.015.012c.079.056.156.111.232.168l.011.007.031.023.011.008q.124.092.245.186h0l.005,0c.069.054.139.107.208.162l.007,0,.037.029.127.1.016.014c.111.089.221.181.329.272l.025.021.045.04q.2.173.4.351h0l.005,0c.078.069.153.139.229.21l0,0,.026.024.152.145.028.025.02.021.016.016.024.023.06.058.15.147.018.018.028.029.115.117.022.021.008.01c.056.058.112.115.167.174l.047.049.021.023.17.184.025.026.018.021.023.026.014.014.026.029c.123.137.245.277.366.417l.01.012.006.007.122.145.048.057.032.039.015.019,0,0c.044.053.088.108.13.161l.024.029.028.036.015.018.041.053.079.1.037.046,0,.005c.011.015.022.03.035.045h0c.063.082.125.165.188.248l0,.005.014.019c.049.067.1.133.147.2l.018.022.009.013.033.046q.255.358.494.728l.009.014.017.027c.084.129.166.26.246.392l0,0,0,0c.053.086.1.174.157.262.023.04.048.08.07.121h0l.021.039q.223.387.429.785l.006.013,0,.007c.094.181.184.362.271.546l.007.015.005.011q.056.118.11.235l.018.041.008.016.014.033.007.015c.031.069.061.138.091.206l.009.02,0,.006c.048.111.1.223.142.335l.005.01.033.083.058.146,0,.008,0,0c0,.009.007.018.01.027l.014.034.008.023q.048.12.094.241l.013.036.014.039q.1.265.19.533l.036.087.033.08.007.021.018.043.058.155.031.077.01.024.016.044.055.149.029.082.01.025.016.047.051.144.028.084.009.028.016.048.046.136.031.088.01.033.015.046.039.131.031.1.011.035.015.045.036.125.03.1.01.037.014.044.031.116.032.111.009.04.01.041.03.11.031.118.01.044.01.037.024.1.031.125.01.045.008.037.021.1.031.134.011.048.006.033.019.093.03.141.01.049.005.029.017.089.03.148.007.048.005.028.015.085.027.155.007.048.005.024.014.083.025.161.007.048v.022l.012.083.025.167,0,.045,0,.019.011.085.022.171,0,.04,0,.02.009.09.019.172,0,.036v.018l.008.1.017.173,0,.045.007.107.013.171v.038l.008.123.009.166v.028l.006.144.007.153v.02l.006.183,0,.125v.009l0,.318v263.711a19.578,19.578,0,0,1-9.828,16.965l-229.161,131.856-.277.157-.008,0-.109.059-.161.087-.018.011-.135.071-.127.066-.026.013-.15.074-.11.054-.032.017-.156.077-.1.045-.042.02-.159.073-.09.041-.015.006-.031.015-.161.071-.083.037-.016.006-.038.018-.159.067-.08.035-.019.006-.04.017-.159.064-.076.031-.022.01-.043.016-.154.059-.079.032-.024.007-.045.02-.149.054-.083.03-.025.009-.047.017-.144.051-.087.028-.029.01-.046.016-.137.044-.092.03-.031.011-.047.016-.132.04-.1.03-.035.011-.045.012-.124.037-.1.03-.039.011-.043.013-.118.031-.109.03-.041.012-.042.01-.11.029-.117.028-.046.012-.038.009-.1.024-.125.032-.047.009-.036.009-.1.022-.134.03-.049.009-.032.008-.094.02-.142.029-.049.01-.031.006-.087.016-.15.027-.049.01-.027,0-.084.015-.157.027-.048.007-.024.005-.086.013-.162.025-.047.006-.022,0-.083.012-.168.023-.043,0-.021,0-.084.01-.173.022-.039,0-.018,0-.091.009-.175.019-.035,0-.016,0-.1.009-.174.016-.045,0-.107.008-.172.012-.04,0-.121.006-.166.01h-.03l-.146.006-.153.007h-.02l-.183,0-.124,0h-.011l-.318,0C-3844.68-4944.145-3844.786-4944.144-3844.9-4944.147Zm.075-60.112,42.311-73.036h-84.624Zm-54.513-14.819-33.727-58.217h-67.454Zm109.769-.427,100.438-57.79h-66.959Zm139.728-96.945-41.782-72.124-41.783,72.124Zm-324.973-112.188,64.993,112.188h129.99l64.994-112.191-64.344-111.068h-131.29Zm-64.992,112.188h84.058L-3997.772-5189Zm404.344-53.487v-115.58l-33.479,57.788Zm-418.618-.187,33.619-58.031-33.619-58.032Zm56.583-97.671,41.662-71.914h-83.323Zm305.344,0,41.661-71.914h-83.323Zm-64.994-112.188h66.464l-99.7-57.364Zm-129.99,0h84.623l-42.312-73.037Zm-45.366,0,32.986-56.937-98.955,56.938Z" transform="translate(4093.472 5511.754)"/>
</svg>
