<?xml version="1.0" encoding="UTF-8" standalone="no"?><!DOCTYPE svg PUBLIC "-//W3C//DTD SVG 1.1//EN" "http://www.w3.org/Graphics/SVG/1.1/DTD/svg11.dtd"><svg width="100%" height="100%" viewBox="0 0 200 200" version="1.1" xmlns="http://www.w3.org/2000/svg" xmlns:xlink="http://www.w3.org/1999/xlink" xml:space="preserve" xmlns:serif="http://www.serif.com/" style="fill-rule:evenodd;clip-rule:evenodd;stroke-linejoin:round;stroke-miterlimit:2;"><g><path d="M170.242,59.8l0.066,0.015l0.045,-0.025l-0,83.214l-8.962,4.957l-0,-16.501l-49.019,27.111l-0,16.501l-8.86,4.9l-0,0.086l-0.078,-0.042l-0.024,0.012l-0,-0.026l0.102,0.056l-0,-56.815l0.027,-0.045l57.76,-31.945l0.188,0.105l0,-0.21l0.13,-0.07l-0.13,-0.072l0,-26.159l8.755,-5.047Zm-8.859,62.024l-49.011,27.228l-0,-21.189l49.011,-27.107l0,21.068Z" style="fill:none;stroke:#898989;stroke-width:3px;"/><path d="M26.994,80.922l7.688,4.251l-0,56.817l-7.688,-4.252l-0,-56.816Z" style="fill:none;stroke:#898989;stroke-width:3px;"/><path d="M34.682,141.99c-0,0 -0.08,-0.043 -0.08,-0.043l0,-0.001l0.08,0.044Zm-0.08,-0.043l-0.023,0.013l0,-0.026l0.023,0.013Zm66.919,-116.472c-1.423,0.454 -2.312,0.989 -2.312,0.989c0,0 -3.715,1.429 -6.554,3.961l0,-3.646l8.755,-5.047l0.068,0.013l0.043,-0.024l0,3.754Zm-66.839,116.429l-0,-56.731l0.026,-0.043l54.084,-29.913l0.015,9.542l-45.267,25.036l-0,17.01c-1.121,0.732 -2.587,1.895 -4.279,3.728c-2.79,3.02 -3.095,8.955 -3.095,8.955c-0,-0 -0.055,5.023 0.591,6.678c0.53,1.357 3.287,3.242 3.287,3.242l3.496,1.934l-0,5.662l-8.858,4.9Z" style="fill:none;stroke:#898989;stroke-width:3px;"/><path d="M81.016,114.453c3.76,-1.584 7.93,-1.613 7.93,-1.613c-0,-0 -3.344,0.214 -7.607,2.401c-3.792,1.947 -7.162,5.426 -7.162,5.426c0,-0 2.869,-4.541 6.839,-6.214Z" style="fill:none;stroke:#898989;stroke-width:3px;"/><path d="M103.339,104.307c3.324,-1.21 6.951,-1.275 6.951,-1.275c0,-0 -2.916,0.191 -6.696,1.854c-3.364,1.48 -6.41,4.09 -6.41,4.09c-0,0 2.646,-3.391 6.155,-4.669Z" style="fill:none;stroke:#898989;stroke-width:3px;"/><path d="M83.852,104.684c2.512,1.904 4.279,4.933 4.279,4.933c0,0 -1.528,-2.329 -4.61,-4.278c-2.741,-1.736 -6.21,-2.349 -6.21,-2.349c-0,0 3.886,-0.317 6.541,1.694Z" style="fill:none;stroke:#898989;stroke-width:3px;"/><path d="M95.139,110.405c0.395,0.037 0.78,0.124 1.122,0.267c1.13,0.472 1.355,1.363 0.503,1.987c-0.854,0.625 -2.463,0.749 -3.593,0.278c-0.76,-0.316 -1.11,-0.822 -1.001,-1.309c0.077,0.288 0.349,0.56 0.801,0.747c0.917,0.384 2.227,0.279 2.923,-0.231c0.697,-0.511 0.518,-1.236 -0.399,-1.619c-0.113,-0.047 -0.233,-0.087 -0.356,-0.12Z" style="fill:none;stroke:#898989;stroke-width:3px;"/><path d="M114.81,62.877c0.01,3.037 1.313,6.237 1.313,6.237c-0,0 -1.088,-3.083 -0.783,-6.562c0.269,-3.094 2.032,-5.513 2.032,-5.513c0,0 -2.572,2.632 -2.562,5.838Z" style="fill:none;stroke:#898989;stroke-width:3px;"/><path d="M113.489,85.863c0.637,3.113 2.493,6.205 2.493,6.205c-0,-0 -1.635,-3.002 -2.076,-6.618c-0.394,-3.217 0.721,-5.961 0.721,-5.961c0,0 -1.812,3.085 -1.138,6.374Z" style="fill:none;stroke:#898989;stroke-width:3px;"/><path d="M122.544,79.808c-1.642,-1.303 -2.834,-3.424 -2.834,-3.424c-0,-0 1.025,1.627 3.03,2.951c1.783,1.177 4.007,1.54 4.007,1.54c0,0 -2.468,0.309 -4.203,-1.067Z" style="fill:none;stroke:#898989;stroke-width:3px;"/><path d="M106.48,72.149c-1.642,-1.303 -2.834,-3.424 -2.834,-3.424c-0,0 1.025,1.628 3.03,2.95c1.785,1.179 4.007,1.54 4.007,1.54c0,0 -2.469,0.31 -4.203,-1.066Z" style="fill:none;stroke:#898989;stroke-width:3px;"/><path d="M114.577,75.077c0.068,0.353 0.186,0.686 0.354,0.966c0.558,0.927 1.465,0.927 2.022,0c0.559,-0.926 0.559,-2.431 0,-3.357c-0.374,-0.622 -0.905,-0.826 -1.384,-0.613c0.293,0.003 0.585,0.191 0.809,0.56c0.453,0.752 0.45,1.976 -0.006,2.733c-0.456,0.757 -1.193,0.761 -1.647,0.01c-0.056,-0.092 -0.105,-0.193 -0.148,-0.299Z" style="fill:none;stroke:#898989;stroke-width:3px;"/><path d="M170.308,59.815l0.045,-0.025l-0,83.214l-8.957,4.954l0,0.024l-7.688,-4.251l0,-8.023l-41.336,22.863l-0,16.501l-8.86,4.9l-0,0.086l-0.078,-0.042l-0.024,0.012l-0,-0.026l-7.586,-4.195l-0,-56.794l-0.029,-0.016l57.928,-32.039l0.076,0.042l-0,-26.405l-0.17,-0.095l8.961,-4.954l7.718,4.269Zm-16.613,57.756l0.013,0.008l0,0.118l-0.023,-0.013l-41.313,22.849l-0,-12.67l41.323,-22.854l0,12.562Z" style="fill:none;stroke:#898989;stroke-width:3px;"/><path d="M170.308,59.815l0.045,-0.025l-0,83.214l-8.957,4.954l0,0.024l-7.688,-4.251l0,-8.023l-41.336,22.863l-0,16.501l-8.86,4.9l-0,0.086l-0.078,-0.042l-0.024,0.012l-0,-0.026l-7.586,-4.195l-0,-56.794l-0.029,-0.016l57.928,-32.039l0.076,0.042l-0,-26.405l-0.17,-0.095l8.961,-4.954l7.718,4.269Zm-16.613,57.756l0.013,0.008l0,0.118l-0.023,-0.013l-41.313,22.849l-0,-12.67l41.323,-22.854l0,12.562Z" style="fill:none;stroke:#898989;stroke-width:3px;"/><path d="M95.824,160.267l-55.78,-30.859c-0,-0 -2.757,-1.885 -3.287,-3.242c-0.646,-1.655 -0.591,-6.678 -0.591,-6.678c-0,-0 0.305,-5.935 3.095,-8.955c3.939,-4.265 6.647,-4.908 6.647,-4.908l42.924,-23.74l-0.06,-40.231c-0,0 0.354,-4.491 0.869,-6.685c1.251,-5.307 9.568,-8.505 9.568,-8.505c0,0 2.793,-1.682 6.409,-1.613c3.82,0.071 6.309,1.559 6.309,1.559l42.907,23.73c-0,0 4.128,2.057 7.512,5.541l-8.717,4.819l0.17,0.095l-0,26.405l-0.076,-0.042l-57.928,32.039l0.029,0.016l-0,41.254Zm57.871,-42.696l0.013,0.008l0,0.118l-0.023,-0.013l-41.313,22.849l-0,-12.67l41.323,-22.854l0,12.562Z" style="fill:none;stroke:#898989;stroke-width:3px;"/><path d="M150.716,116.298l-8.717,-4.82l8.717,-4.821l-0,9.641Zm-25.022,-13.838l25.022,-13.839l-0,-17.652c-0,-0 -1.23,-2.701 -3.207,-4.648c-1.559,-1.535 -4.555,-3.354 -4.555,-3.354l-47.706,-26.135c-0,0 -2.251,-1.779 -4.264,-0.64c-2.149,1.217 -2.035,5.107 -2.212,8.533l-0,37.314l36.922,20.421Z" style="fill:none;stroke:#898989;stroke-width:3px;"/><path d="M101.692,115.735c-1.871,-1.221 -3.916,-1.839 -3.916,-1.839c-0,0 2.481,0.118 4.397,1.573l-0.481,0.266Z" style="fill:none;stroke:#898989;stroke-width:3px;"/><path d="M161.383,100.756l0,21.068l-7.688,-4.253l0,-12.562l7.688,-4.253Z" style="fill:none;stroke:#898989;stroke-width:3px;"/><path d="M95.824,143.931l-57.613,-31.878c-1.366,2.495 -1.763,5.086 -2.045,7.689l-0,1.998c-0,-0 0.102,3.247 0.58,4.369c0.548,1.287 3.031,3.15 3.031,3.15l56.047,30.998l-0,-16.326Z" style="fill:none;stroke:#898989;stroke-width:3px;"/><path d="M153.708,135.708l7.683,-4.248l-0,16.501l0.005,-0.003l0,0.024l-7.688,-4.251l0,-8.023Z" style="fill:none;stroke:#898989;stroke-width:3px;"/><path d="M150.716,106.656l10.667,-5.9l0,21.068l-49.011,27.228l-0,-11.546l38.344,-21.208l-0,-9.642Z" style="fill:none;stroke:#898989;stroke-width:3px;"/><path d="M88.807,64.759l0.025,16.938l-3.968,-2.194l-0,-12.563l3.943,-2.181Z" style="fill:none;stroke:#898989;stroke-width:3px;"/><path d="M88.786,51.149l-3.819,-2.112l0,-26.511l7.688,4.253l0,3.646c-1.407,1.256 -2.599,2.784 -3.014,4.544c-0.515,2.194 -0.869,6.685 -0.869,6.685l0.014,9.495Z" style="fill:none;stroke:#898989;stroke-width:3px;"/><path d="M101.478,21.745l0.043,-0.024l0,3.754c-1.423,0.454 -2.312,0.989 -2.312,0.989c0,0 -8.317,3.198 -9.568,8.505c-0.515,2.194 -0.869,6.685 -0.869,6.685l0.06,40.231l-42.924,23.74c-0,0 -2.708,0.643 -6.647,4.908c-2.79,3.02 -3.095,8.955 -3.095,8.955c-0,-0 -0.055,5.023 0.591,6.678c0.53,1.357 3.287,3.242 3.287,3.242l3.496,1.934l-0,5.662l-8.858,4.9l-0,0.086l-0.08,-0.044l-0.023,0.014l0,-0.026l-7.585,-4.196l-0,-56.794l-0.031,-0.016l57.928,-32.038l0.076,0.041l0,-26.405l-0.168,-0.094l8.959,-4.956l7.72,4.269Zm-16.614,57.758l0.014,0.007l0,0.119l-0.024,-0.014l-41.314,22.85l-0,-12.67l41.324,-22.855l-0,12.563Z" style="fill:none;stroke:#898989;stroke-width:3px;"/></g></svg>