<?xml version="1.0" encoding="UTF-8" standalone="no"?><!DOCTYPE svg PUBLIC "-//W3C//DTD SVG 1.1//EN" "http://www.w3.org/Graphics/SVG/1.1/DTD/svg11.dtd"><svg width="100%" height="100%" viewBox="0 0 200 200" version="1.1" xmlns="http://www.w3.org/2000/svg" xmlns:xlink="http://www.w3.org/1999/xlink" xml:space="preserve" xmlns:serif="http://www.serif.com/" style="fill-rule:evenodd;clip-rule:evenodd;stroke-linejoin:round;stroke-miterlimit:2;"><g><path d="M135.252,143.833c-6.286,4.042 -11.805,4.398 -18.265,0.434l-97.811,-56.483c-1.793,-1.283 -2.644,-2.673 -2.775,-3.968c0,-0 -0.678,8.258 3.26,10.531l98.984,57.149c3.938,2.274 9.903,2.52 13.314,0.551l48.762,-28.152c3.41,-1.969 2.335,-9.699 2.335,-9.699c0.019,1.595 -1.134,2.719 -2.722,3.664l-45.082,25.973Z" style="fill:none;stroke:#949494;stroke-width:3px;"/><path d="M135.252,143.833c-5.974,4.423 -11.699,4.527 -18.316,0.41l-97.961,-56.558c-1.794,-1.282 -2.443,-2.574 -2.574,-3.869c0,-0 -0.678,8.258 3.26,10.531l98.984,57.149c3.938,2.274 9.903,2.52 13.314,0.551l48.762,-28.152c3.41,-1.969 2.335,-9.699 2.335,-9.699c0.019,1.595 -1.134,2.719 -2.722,3.664l-45.082,25.973Z" style="fill:none;stroke:#949494;stroke-width:3px;"/><path d="M80.781,52.787c-3.938,-2.274 -9.903,-2.521 -13.313,-0.552l-48.762,28.153c-3.411,1.969 -2.983,5.413 0.955,7.687l98.984,57.147c3.938,2.273 9.903,2.521 13.314,0.552l48.762,-28.153c3.41,-1.969 2.982,-5.413 -0.957,-7.687l-98.983,-57.147Z" style="fill:none;stroke:#949494;stroke-width:3px;"/><path d="M49.296,69.004c0.564,-0.325 1.476,-0.325 2.04,-0c0.563,0.324 0.563,0.851 0,1.176c-0.564,0.326 -1.476,0.326 -2.04,0c-0.563,-0.325 -0.563,-0.852 -0,-1.176Z" style="fill:none;stroke:#949494;stroke-width:3px;"/><path d="M79.979,59.143l-48.848,28.202l84.704,48.904l48.848,-28.202l-84.704,-48.904Z" style="fill:none;stroke:#949494;stroke-width:2.75px;stroke-linecap:round;stroke-miterlimit:1.5;"/><path d="M145.46,123.771c1.735,-1.002 4.552,-1.002 6.286,-0c1.735,1.002 1.735,2.628 0,3.63c-1.734,1 -4.551,1 -6.286,-0c-1.734,-1.002 -1.734,-2.628 0,-3.63Z" style="fill:none;stroke:#949494;stroke-width:3px;"/></g></svg>