<?xml version="1.0" encoding="UTF-8" standalone="no"?><!DOCTYPE svg PUBLIC "-//W3C//DTD SVG 1.1//EN" "http://www.w3.org/Graphics/SVG/1.1/DTD/svg11.dtd"><svg class="icon" width="100%" height="100%" viewBox="0 0 200 200" version="1.1" xmlns="http://www.w3.org/2000/svg" xmlns:xlink="http://www.w3.org/1999/xlink" xml:space="preserve" xmlns:serif="http://www.serif.com/" style="fill-rule:evenodd;clip-rule:evenodd;stroke-linejoin:round;stroke-miterlimit:2;"><rect id="Artboard1" x="0" y="0" width="200" height="200" style="fill:none;"/><path d="M6.899,68.68l30.418,-40.394l36.215,-21.256l51.642,0.228l36.382,21.325l31.281,40.097l-0.121,48.194l-92.848,76.554l-93.237,-78.784l0.268,-45.964Z" style="fill:#26bcb5;"/><path d="M192.716,116.874l-30.297,-57.746l-0.422,-29.981l30.84,39.533l-0.121,48.194Z" style="fill:#fff;fill-opacity:0.14;"/><path d="M6.899,68.68l30.418,-40.394l0.427,30.291l36.818,21.58l51.642,0.228l11.735,67.811l-77.079,-0.924l-54.229,-32.628l0.268,-45.964Z" style="fill-opacity:0.14;"/><path d="M6.899,68.68l30.418,-40.394l0.427,30.291l36.818,21.58l-13.702,67.115l-54.229,-32.628l0.268,-45.964Z" style="fill-opacity:0.14;"/><path d="M6.899,68.68l30.418,-40.394l0.427,30.291l-31.113,56.067l0.268,-45.964Z" style="fill-opacity:0.14;"/><path d="M73.532,7.03l51.642,0.228l36.818,21.58l0.427,30.29l-36.215,21.257l-51.642,-0.228l-36.818,-21.58l-0.427,-30.291l36.215,-21.256Z" style="fill:#fff;fill-opacity:0.14;"/><path d="M73.532,7.03l51.642,0.228l36.818,21.58l0.427,30.29l-36.215,21.257l-51.642,-0.228l-36.818,-21.58l-0.427,-30.291l36.215,-21.256Z" style="fill:#fff;fill-opacity:0.14;"/><path d="M99.868,193.428l-93.237,-78.784l54.229,32.628l77.079,0.924l54.777,-31.322l-92.848,76.554Z" style="fill-opacity:0.14;"/><path d="M99.868,193.428l-93.237,-78.784l54.229,32.628l77.079,0.924l-38.071,45.232Z" style="fill-opacity:0.14;"/><path d="M99.868,193.428l-93.237,-78.784l54.229,32.628l39.008,46.156Z" style="fill-opacity:0.14;"/><path d="M99.868,193.428l-49.068,-41.63l26.717,15.099l3.521,-10.979l8.25,12.228l14.585,4.596l7.022,-7.581l12.724,-8.482l0.507,7.741l26.759,-13.332l-51.017,42.34Z" style="fill-opacity:0.29;"/><path d="M99.868,193.428l-49.068,-41.63l26.717,15.099l3.521,-10.979l8.25,12.228l14.585,4.596l7.022,-7.581l12.724,-8.482l0.507,7.741l-24.258,29.008Z" style="fill-opacity:0.29;"/><path d="M99.868,193.428l-49.068,-41.63l26.717,15.099l22.351,26.531Z" style="fill-opacity:0.29;"/></svg>
