<svg width="100%" height="100%" viewBox="0 0 200 200" version="1.1" xmlns="http://www.w3.org/2000/svg"><path d="M102.601,9.337c-2.181,-1.259 -5.485,-1.396 -7.373,-0.306l-72.178,41.672c-1.889,1.091 -1.652,2.998 0.529,4.257l71.119,41.061c2.181,1.259 5.485,1.396 7.373,0.306l72.178,-41.672c1.889,-1.091 1.652,-2.998 -0.529,-4.257l-71.119,-41.061Z" style="fill:#ebebeb;"/><path d="M96.439,107.74c-0,-2.518 -1.533,-5.448 -3.422,-6.538l-72.178,-41.672c-1.888,-1.09 -3.422,0.069 -3.422,2.587l0,82.121c0,2.518 1.534,5.448 3.422,6.538l72.178,41.672c1.889,1.091 3.422,-0.068 3.422,-2.586l-0,-82.122Z" style="fill:#ebebeb;"/><path d="M180.412,61.673c0,-2.518 -1.533,-3.678 -3.421,-2.587l-72.178,41.672c-1.889,1.09 -3.422,4.02 -3.422,6.538l-0,82.121c-0,2.518 1.533,3.677 3.422,2.587l72.178,-41.672c1.888,-1.09 3.421,-4.02 3.421,-6.538l0,-82.121Z" style="fill:#ebebeb;"/></svg>
