<svg xmlns="http://www.w3.org/2000/svg" xmlns:xlink="http://www.w3.org/1999/xlink" width="248.406" height="239.708" viewBox="0 0 248.406 239.708">
  <defs>
    <linearGradient id="linear-gradient" x1="0.026" y1="0.536" x2="0.991" y2="0.228" gradientUnits="objectBoundingBox">
      <stop offset="0" stop-color="#ac71f2"/>
      <stop offset="1" stop-color="#c6f0ff"/>
    </linearGradient>
  </defs>
  <g id="" data-name=" 158" transform="translate(2499.458 -7828.089) rotate(60)">
    <g id="_156" data-name=" 156" transform="translate(5644 5916.097)">
      <path id="" d="M83.39,0h.152L83.6,0h.007l.051,0,.049,0h.01l.055,0,.041,0h.013l.057,0,.036,0h.015L84,.028l.032,0h.018l.059.007.03,0h.02l.058.007.028,0h.022l.056.008.028,0h.007l.016,0,.055.009.028,0h.009l.016,0L84.53.1,84.559.1h.009l.016,0,.05.009.03.006.01,0,.016,0,.047.01.031.006.011,0,.016,0,.045.011.033.007.012,0,.016,0,.042.011.035.009.013,0,.015,0,.039.011.038.009.013,0,.014,0,.037.01.04.011.014,0,.013,0,.035.011.042.012.015,0,.012,0,.032.01.044.014.016,0,.011,0,.03.01.046.015.016.005.009,0,.029.01L85.6.38l.015.006.009,0,.027.01.05.018.015.006.008,0,.026.01.051.02.015.006.007,0,.026.011L85.9.5,85.914.5l.006,0,.027.011L86,.539l.013.005.006,0,.028.013L86.1.583l.011,0,.005,0,.03.014L86.2.629l.014.007.032.016L86.3.676l.011.006L86.345.7l.05.025.009,0,.043.022.045.024.006,0,.054.029.037.02h0l.093.053,76.8,44.342a6.587,6.587,0,0,1,3.294,5.705v88.9l0,.051,0,.048v.01l0,.056,0,.041v.013l0,.058,0,.036v.015l-.005.059,0,.033v.017l-.007.059,0,.03v.02l-.007.057,0,.029v.007l0,.014-.008.057,0,.028v.008l0,.015-.009.055,0,.028,0,.008,0,.016-.009.052-.005.029v.009l0,.016-.009.05-.006.03,0,.01,0,.016-.01.047-.007.032,0,.011,0,.016-.011.045-.007.033,0,.012,0,.015-.01.042-.009.035,0,.013,0,.014-.011.04-.01.037,0,.014,0,.014-.01.037-.011.039,0,.015,0,.013-.01.034-.012.042-.005.015,0,.012-.01.032-.014.043-.005.016,0,.011-.01.03-.015.046-.005.016,0,.01-.01.028-.017.048-.005.016,0,.009-.01.027-.018.05-.006.015,0,.008-.01.027-.02.051-.006.014,0,.007-.011.026-.021.053-.006.013,0,.007-.011.026-.022.054-.006.012,0,.006-.013.028-.024.054-.005.011,0,.005-.014.03-.024.053-.007.014-.016.032-.025.052-.006.012-.018.036-.025.05,0,.009-.022.043-.024.045,0,.006-.03.053-.02.037,0,0-.052.093c-.018.031-.036.062-.055.093v0l-.022.036-.032.052,0,.006-.028.043-.026.041-.005.009-.031.047-.022.034-.007.011-.032.047-.02.03-.009.013-.034.048-.018.026,0,0-.007.01-.034.047-.018.024,0,.005-.008.011-.035.047-.018.023,0,.005-.009.012-.035.045-.017.022-.005.006-.009.012-.035.043-.018.022-.005.007-.011.013-.034.041-.018.022-.006.007-.011.013-.034.039-.02.022-.007.008-.011.013L165.1,144l-.021.024-.007.008-.011.013-.031.034-.023.025-.009.009-.011.012-.03.032-.025.026-.009.009-.011.011-.028.029-.027.028-.01.01-.011.01-.027.027-.029.028-.011.011-.009.009-.026.025-.031.03-.012.011-.009.008-.025.023-.034.031-.013.011-.008.007-.024.021-.036.033-.013.011-.008.007-.023.02-.038.034-.013.011-.007.006-.022.019-.041.034-.012.011-.007.005-.022.018-.043.035-.013.01-.005,0-.022.017-.045.035-.012.009-.005,0-.024.018-.046.035-.011.008-.005,0-.024.018-.047.035-.01.007,0,0-.027.019-.048.034-.013.009-.03.02-.048.033-.011.007-.034.022-.046.031-.009.005-.041.026-.043.028-.006,0-.052.032-.036.022h0l-.094.055-76.8,44.341a6.586,6.586,0,0,1-6.588,0l-76.8-44.341-.092-.054,0,0-.036-.022-.053-.032-.005,0-.043-.028-.041-.026-.009-.005-.047-.031-.034-.022-.011-.007-.048-.033-.03-.02-.013-.009-.048-.034-.026-.019,0,0-.01-.007-.047-.035-.024-.018-.005,0-.011-.008-.046-.035-.023-.018-.005,0-.012-.009-.045-.035L2.5,144.78l-.006,0-.013-.01-.043-.035-.022-.018-.007-.005L2.4,144.7l-.041-.034-.022-.019-.007-.006-.013-.011-.039-.034-.023-.02-.007-.007-.013-.011-.036-.033-.024-.021-.009-.007-.012-.011-.034-.031-.025-.023-.009-.008-.011-.011-.032-.03-.026-.025-.01-.009L2,144.337l-.029-.028-.028-.027-.01-.01-.01-.01-.027-.028-.029-.029-.01-.011-.01-.009-.024-.026-.03-.032-.011-.012-.009-.009-.022-.025-.032-.034-.011-.013-.008-.008L1.677,144l-.032-.036-.011-.013-.007-.008-.02-.022-.033-.039-.011-.013-.006-.007-.019-.022L1.5,143.8l-.01-.013-.005-.007-.018-.022-.035-.043-.01-.012,0-.006-.017-.022-.036-.045-.009-.012,0-.005-.017-.023-.035-.047-.008-.011,0-.005-.018-.024-.035-.047-.007-.01,0,0-.019-.026-.034-.048-.009-.013-.02-.03-.033-.047-.007-.011-.022-.034-.03-.047-.005-.009-.026-.041L1,143.1l0-.006-.032-.052L.939,143v0l-.055-.093-.053-.093,0,0-.02-.037-.029-.053,0-.006-.024-.045-.022-.043,0-.009-.025-.05-.018-.036-.005-.012-.025-.052-.016-.032-.007-.014L.6,142.368l-.013-.03,0-.005,0-.011-.024-.054-.012-.028,0-.006-.005-.012-.022-.054L.5,142.143l0-.007L.5,142.123l-.022-.053-.011-.026,0-.007-.006-.014-.02-.051-.01-.027,0-.008-.006-.015-.018-.05-.011-.027,0-.009L.38,141.82l-.016-.048-.01-.028,0-.01-.006-.016-.015-.046-.01-.03,0-.011-.005-.016L.3,141.571l-.011-.032,0-.012,0-.015-.012-.042-.011-.034,0-.013,0-.015-.011-.039-.011-.037,0-.014,0-.014-.009-.037-.011-.04,0-.014,0-.013-.008-.035-.011-.042,0-.015,0-.012-.008-.033-.01-.045,0-.016,0-.011-.007-.032-.01-.047,0-.016,0-.01-.005-.03-.01-.05,0-.016,0-.009,0-.029L.09,140.7l0-.016v-.008l0-.028-.009-.055,0-.015v-.008l0-.028-.008-.057,0-.014v-.007l0-.029-.007-.057,0-.014v-.006l0-.03-.006-.059v-.017l0-.033-.005-.059v-.015l0-.036,0-.058v-.013l0-.041,0-.056v-.01l0-.048,0-.051V50.93a6.587,6.587,0,0,1,3.294-5.705L80.1.883,80.189.83h0l.036-.02.054-.029.006,0,.045-.024L80.377.73l.009,0L80.436.7l.036-.018.011-.006.053-.025.032-.016.014-.007L80.636.6l.03-.014.005,0,.011,0,.054-.024.028-.013.006,0,.012-.005.054-.022.026-.011.007,0L80.881.5l.053-.021L80.96.465l.007,0,.014-.006.051-.02.027-.01.007,0,.016-.006L81.133.4l.027-.01.009,0L81.184.38l.048-.016.028-.01.01,0,.016-.005L81.333.33l.03-.01.011,0,.016,0L81.433.3l.032-.01.012,0,.015,0,.042-.012.034-.011.012,0,.015,0,.039-.011.037-.01.014,0,.014,0,.037-.009L81.775.2l.014,0,.013,0,.035-.009L81.88.175l.015,0,.012,0L81.94.162l.045-.011.016,0,.011,0L82.043.14,82.09.13l.016,0,.01,0,.03-.006L82.2.109l.016,0h.009L82.251.1,82.3.09l.016,0h.008l.028,0L82.41.073l.015,0h.008l.028,0,.057-.008h.021l.029,0,.057-.007h.02l.03,0,.059-.007h.017l.033,0,.058-.005h.016l.036,0,.058,0h.013l.041,0,.056,0h.01l.048,0,.051,0h.007l.061,0h.152Zm52.215,146.2H31.176L83.39,176.348,135.606,146.2ZM18,133.026H148.782L83.39,19.764ZM13.176,54.733v60.293L65.392,24.587ZM101.39,24.587,153.6,115.027V54.733Z" transform="translate(92.306 -4.948) rotate(60)" fill-rule="evenodd" fill="url(#linear-gradient)"/>
    </g>
    <g id="_157" data-name="157" transform="translate(5769.258 5928.955) rotate(60)">
      <path id="-2" data-name="" d="M83.39,0h.152L83.6,0h.007l.051,0,.049,0h.01l.055,0,.041,0h.013l.057,0,.036,0h.015L84,.028l.032,0h.018l.059.007.03,0h.02l.058.007.028,0h.022l.056.008.028,0h.007l.016,0,.055.009.028,0h.009l.016,0L84.53.1,84.559.1h.009l.016,0,.05.009.03.006.01,0,.016,0,.047.01.031.006.011,0,.016,0,.045.011.033.007.012,0,.016,0,.042.011.035.009.013,0,.015,0,.039.011.038.009.013,0,.014,0,.037.01.04.011.014,0,.013,0,.035.011.042.012.015,0,.012,0,.032.01.044.014.016,0,.011,0,.03.01.046.015.016.005.009,0,.029.01L85.6.38l.015.006.009,0,.027.01.05.018.015.006.008,0,.026.01.051.02.015.006.007,0,.026.011L85.9.5,85.914.5l.006,0,.027.011L86,.539l.013.005.006,0,.028.013L86.1.583l.011,0,.005,0,.03.014L86.2.629l.014.007.032.016L86.3.676l.011.006L86.345.7l.05.025.009,0,.043.022.045.024.006,0,.054.029.037.02h0l.093.053,76.8,44.342a6.587,6.587,0,0,1,3.294,5.705v88.9l0,.051,0,.048v.01l0,.056,0,.041v.013l0,.058,0,.036v.015l-.005.059,0,.033v.017l-.007.059,0,.03v.02l-.007.057,0,.029v.007l0,.014-.008.057,0,.028v.008l0,.015-.009.055,0,.028,0,.008,0,.016-.009.052-.005.029v.009l0,.016-.009.05-.006.03,0,.01,0,.016-.01.047-.007.032,0,.011,0,.016-.011.045-.007.033,0,.012,0,.015-.01.042-.009.035,0,.013,0,.014-.011.04-.01.037,0,.014,0,.014-.01.037-.011.039,0,.015,0,.013-.01.034-.012.042-.005.015,0,.012-.01.032-.014.043-.005.016,0,.011-.01.03-.015.046-.005.016,0,.01-.01.028-.017.048-.005.016,0,.009-.01.027-.018.05-.006.015,0,.008-.01.027-.02.051-.006.014,0,.007-.011.026-.021.053-.006.013,0,.007-.011.026-.022.054-.006.012,0,.006-.013.028-.024.054-.005.011,0,.005-.014.03-.024.053-.007.014-.016.032-.025.052-.006.012-.018.036-.025.05,0,.009-.022.043-.024.045,0,.006-.03.053-.02.037,0,0-.052.093c-.018.031-.036.062-.055.093v0l-.022.036-.032.052,0,.006-.028.043-.026.041-.005.009-.031.047-.022.034-.007.011-.032.047-.02.03-.009.013-.034.048-.018.026,0,0-.007.01-.034.047-.018.024,0,.005-.008.011-.035.047-.018.023,0,.005-.009.012-.035.045-.017.022-.005.006-.009.012-.035.043-.018.022-.005.007-.011.013-.034.041-.018.022-.006.007-.011.013-.034.039-.02.022-.007.008-.011.013L165.1,144l-.021.024-.007.008-.011.013-.031.034-.023.025-.009.009-.011.012-.03.032-.025.026-.009.009-.011.011-.028.029-.027.028-.01.01-.011.01-.027.027-.029.028-.011.011-.009.009-.026.025-.031.03-.012.011-.009.008-.025.023-.034.031-.013.011-.008.007-.024.021-.036.033-.013.011-.008.007-.023.02-.038.034-.013.011-.007.006-.022.019-.041.034-.012.011-.007.005-.022.018-.043.035-.013.01-.005,0-.022.017-.045.035-.012.009-.005,0-.024.018-.046.035-.011.008-.005,0-.024.018-.047.035-.01.007,0,0-.027.019-.048.034-.013.009-.03.02-.048.033-.011.007-.034.022-.046.031-.009.005-.041.026-.043.028-.006,0-.052.032-.036.022h0l-.094.055-76.8,44.341a6.586,6.586,0,0,1-6.588,0l-76.8-44.341-.092-.054,0,0-.036-.022-.053-.032-.005,0-.043-.028-.041-.026-.009-.005-.047-.031-.034-.022-.011-.007-.048-.033-.03-.02-.013-.009-.048-.034-.026-.019,0,0-.01-.007-.047-.035-.024-.018-.005,0-.011-.008-.046-.035-.023-.018-.005,0-.012-.009-.045-.035L2.5,144.78l-.006,0-.013-.01-.043-.035-.022-.018-.007-.005L2.4,144.7l-.041-.034-.022-.019-.007-.006-.013-.011-.039-.034-.023-.02-.007-.007-.013-.011-.036-.033-.024-.021-.009-.007-.012-.011-.034-.031-.025-.023-.009-.008-.011-.011-.032-.03-.026-.025-.01-.009L2,144.337l-.029-.028-.028-.027-.01-.01-.01-.01-.027-.028-.029-.029-.01-.011-.01-.009-.024-.026-.03-.032-.011-.012-.009-.009-.022-.025-.032-.034-.011-.013-.008-.008L1.677,144l-.032-.036-.011-.013-.007-.008-.02-.022-.033-.039-.011-.013-.006-.007-.019-.022L1.5,143.8l-.01-.013-.005-.007-.018-.022-.035-.043-.01-.012,0-.006-.017-.022-.036-.045-.009-.012,0-.005-.017-.023-.035-.047-.008-.011,0-.005-.018-.024-.035-.047-.007-.01,0,0-.019-.026-.034-.048-.009-.013-.02-.03-.033-.047-.007-.011-.022-.034-.03-.047-.005-.009-.026-.041L1,143.1l0-.006-.032-.052L.939,143v0l-.055-.093-.053-.093,0,0-.02-.037-.029-.053,0-.006-.024-.045-.022-.043,0-.009-.025-.05-.018-.036-.005-.012-.025-.052-.016-.032-.007-.014L.6,142.368l-.013-.03,0-.005,0-.011-.024-.054-.012-.028,0-.006-.005-.012-.022-.054L.5,142.143l0-.007L.5,142.123l-.022-.053-.011-.026,0-.007-.006-.014-.02-.051-.01-.027,0-.008-.006-.015-.018-.05-.011-.027,0-.009L.38,141.82l-.016-.048-.01-.028,0-.01-.006-.016-.015-.046-.01-.03,0-.011-.005-.016L.3,141.571l-.011-.032,0-.012,0-.015-.012-.042-.011-.034,0-.013,0-.015-.011-.039-.011-.037,0-.014,0-.014-.009-.037-.011-.04,0-.014,0-.013-.008-.035-.011-.042,0-.015,0-.012-.008-.033-.01-.045,0-.016,0-.011-.007-.032-.01-.047,0-.016,0-.01-.005-.03-.01-.05,0-.016,0-.009,0-.029L.09,140.7l0-.016v-.008l0-.028-.009-.055,0-.015v-.008l0-.028-.008-.057,0-.014v-.007l0-.029-.007-.057,0-.014v-.006l0-.03-.006-.059v-.017l0-.033-.005-.059v-.015l0-.036,0-.058v-.013l0-.041,0-.056v-.01l0-.048,0-.051V50.93a6.587,6.587,0,0,1,3.294-5.705L80.1.883,80.189.83h0l.036-.02.054-.029.006,0,.045-.024L80.377.73l.009,0L80.436.7l.036-.018.011-.006.053-.025.032-.016.014-.007L80.636.6l.03-.014.005,0,.011,0,.054-.024.028-.013.006,0,.012-.005.054-.022.026-.011.007,0L80.881.5l.053-.021L80.96.465l.007,0,.014-.006.051-.02.027-.01.007,0,.016-.006L81.133.4l.027-.01.009,0L81.184.38l.048-.016.028-.01.01,0,.016-.005L81.333.33l.03-.01.011,0,.016,0L81.433.3l.032-.01.012,0,.015,0,.042-.012.034-.011.012,0,.015,0,.039-.011.037-.01.014,0,.014,0,.037-.009L81.775.2l.014,0,.013,0,.035-.009L81.88.175l.015,0,.012,0L81.94.162l.045-.011.016,0,.011,0L82.043.14,82.09.13l.016,0,.01,0,.03-.006L82.2.109l.016,0h.009L82.251.1,82.3.09l.016,0h.008l.028,0L82.41.073l.015,0h.008l.028,0,.057-.008h.021l.029,0,.057-.007h.02l.03,0,.059-.007h.017l.033,0,.058-.005h.016l.036,0,.058,0h.013l.041,0,.056,0h.01l.048,0,.051,0h.007l.061,0h.152Zm52.215,146.2H31.176L83.39,176.348,135.606,146.2ZM18,133.026H148.782L83.39,19.764ZM13.176,54.733v60.293L65.392,24.587ZM101.39,24.587,153.6,115.027V54.733Z" transform="translate(92.306 -4.948) rotate(60)" fill-rule="evenodd" fill="url(#linear-gradient)"/>
    </g>
  </g>
</svg>
