<?xml version="1.0" encoding="UTF-8" standalone="no"?><!DOCTYPE svg PUBLIC "-//W3C//DTD SVG 1.1//EN" "http://www.w3.org/Graphics/SVG/1.1/DTD/svg11.dtd"><svg width="100%" height="100%" viewBox="0 0 200 200" version="1.1" xmlns="http://www.w3.org/2000/svg" xmlns:xlink="http://www.w3.org/1999/xlink" xml:space="preserve" xmlns:serif="http://www.serif.com/" style="fill-rule:evenodd;clip-rule:evenodd;stroke-linejoin:round;stroke-miterlimit:2;"><path id="名称未設定" d="M164.504,63.072l0.625,1.084l-0.001,-0.003l0.322,0.559l0.007,0.043l0.011,0.019l0.004,0.045l0.011,0.018l0.004,0.045l0.011,0.019l-0.327,0.307l0.013,0.022l0.004,0.044l0.014,0.025l0.004,0.044l0.002,0.078l-0.016,0.092l-0.002,0.045l0,0.083l-0.003,69.326c-0,1.838 -0.984,3.542 -2.576,4.46l-61.697,35.621l-0.043,0.006l-0.019,0.011l-0.047,0.006l-0.019,0.011l-0.047,0.006l-0.019,0.01l-0.044,0.005l-0.022,0.012l-0.045,0.004l-0.024,0.014l-0.044,0.004l-0.125,0.003l-0.024,0.015l-0.082,0l-0.084,-0.002l-0.032,0.001l-0.048,-0.001l-0.041,-0.002l-0.036,-0.001l-0.124,-0.008l-0.029,-0.001l-0.046,-0.005l-0.019,0.01l-0.047,-0.005l-0.016,0.009l-0.046,-0.005l-0.017,0.009l-0.452,-0.427l-0.016,0.009l-0.044,-0.007l-0.013,0.008l-0.041,-0.009l-0.016,0.009l-0.04,-0.006l-0.016,0.01l-0.037,-0.008l-0.024,-0.004l-0.06,-0.016l-0.032,-0.006l-0.145,-0.039l-0.059,-0.02l-0.059,-0.016l-0.023,-0.009l-0.036,-0.012l-0.009,-0.016l-0.037,-0.014l-0.01,-0.017l-0.037,-0.014l-0.009,-0.016l-0.042,-0.016l-0.009,-0.016l-0.042,-0.016l-0.009,-0.016l-0.043,-0.019l-0.009,-0.016l-0.043,-0.018l-0.011,-0.019l-0.041,-0.02l-0.024,-0.011l-0.111,-0.055l-0.032,-0.018l-0.036,-0.018l-0.534,-0.121l-0.028,-0.016l-0.073,-0.041l-60.049,-34.67c-1.593,-0.918 -2.577,-2.622 -2.576,-4.461l-0,-69.332l-0.002,-0.121l0.007,-0.044l0.002,-0.041l0.001,-0.036l0.009,-0.146l0.003,-0.027l0.006,-0.05l-0.011,-0.019l0.006,-0.047l-0.009,-0.016l0.028,-0.095l-0.01,-0.017l0.007,-0.043l-0.009,-0.016l0.007,-0.044l-0.008,-0.014l0.006,-0.039l-0.009,-0.016l0.006,-0.04l-0.009,-0.016l0.007,-0.037l0.004,-0.024l0.087,-0.18l0.007,-0.026l0.007,-0.032l0.045,-0.171l0.011,-0.031l0.056,-0.147l-0.013,-0.022l0.028,-0.052l0.012,-0.035l0.016,-0.01l0.014,-0.037l0.017,-0.009l0.012,-0.04l0.014,-0.008l0.013,-0.134l0.016,-0.009l0.016,-0.042l0.016,-0.009l0.017,-0.096l0.016,-0.009l0.018,-0.043l0.019,-0.011l0.02,-0.041l0.022,-0.012l0.019,-0.123l0.015,-0.03l0.016,-0.042l0.016,-0.034l0.024,-0.039l0.022,-0.042l0.017,-0.028l0.04,-0.073l0.042,-0.071l0.025,-0.014l0.03,-0.054l0.016,-0.053l0.021,-0.033l0.025,-0.037l0.025,-0.014l0.025,-0.061l0.022,-0.013l0.026,-0.036l0.019,-0.011l0.035,-0.082l0.019,-0.011l0.029,-0.038l0.019,-0.011l0.033,-0.073l1.572,-0.908l-0.185,-0.322l60.135,-34.718c1.591,-0.92 3.558,-0.92 5.15,-0.002l60.044,34.666l0.071,0.042l0.032,0.007l0.027,0.045l0.05,0.018l0.033,0.021l0.037,0.026l0.014,0.024l0.036,0.026l0.013,0.021l0.036,0.026l0.011,0.019l0.108,0.031l0.011,0.019l0.038,0.029l0.011,0.018l0.075,0.037l0.967,1.675l0.322,-0.186Zm-115.633,7.714l51.122,88.546l51.13,-88.535l-102.252,-0.011Z" style="fill:none;stroke:#919191;stroke-width:3px;"/></svg>