<svg id="logo" xmlns="http://www.w3.org/2000/svg" width="30" height="30" viewBox="0 0 62.245 60.065">
  <path d="M20.9,0h.165l.015,0h.012l.015,0h.013l.014,0h.013l.014,0h.013l.013,0h.014l.013,0h.014l.012,0h.015l.011,0,.008,0h.007l.011,0,.009,0H21.3l.01,0,.009,0h.007l.009,0,.01,0h.007l.009,0,.01,0h.007l.008,0,.011,0H21.4l.008,0,.012,0h.006l.007,0,.012,0h.006l.007,0,.013,0h.006l.007,0,.013,0H21.5l.007,0,.013.005h0l.007,0,.013.006h0l.007,0,.013.006h0l.007,0L21.6.157l0,0,.008,0,.013.006h0l.009,0,.013.006h0l.011.006.011.006h0L21.688.2,21.7.208h0l.023.013L40.966,11.332a1.651,1.651,0,0,1,.825,1.43V35.011h0v.133h0v0l0,.015v.008h0v0l0,.014V35.2l0,.014v.013l0,.014v.013l0,.013v.014l0,.013v.014l0,.012,0,.008v.007l0,.011,0,.008v.007l0,.011,0,.009v.007l0,.01,0,.009v.007l0,.009,0,.01v.007l0,.009,0,.01v.007l0,.008,0,.011v.007l0,.008,0,.012v.006l0,.007,0,.012v.006l0,.007,0,.013v.006l0,.007,0,.013,0,0v0l0,.007-.005.013v0l0,.007-.006.014v0h0l0,.007-.006.014v0h0l0,.007-.006.013,0,0,0,.008-.006.013v0l0,.009-.006.013v0l-.006.011-.006.011h0l-.007.013,0,.009h0l-.013.023-.014.023h0l-.005.009-.008.013h0l-.007.011-.006.01v0l-.008.012-.006.009,0,0-.008.012-.005.008,0,0-.009.012,0,.007h0l0,0-.009.012,0,.006h0l0,0-.009.012,0,.006h0l0,0L41.439,36l0,.006h0l0,0-.009.011,0,.005v0l0,0-.009.01,0,.006v0l0,0-.008.01,0,.006,0,0,0,0-.008.009-.005.006,0,0,0,0-.008.008-.006.006,0,0,0,0-.007.008-.006.006,0,0,0,0-.007.007-.007.007,0,0,0,0-.007.007-.007.007,0,0,0,0-.007.006-.008.007,0,0,0,0-.006.006-.008.008,0,0,0,0-.006.005-.009.008,0,0,0,0-.006,0-.01.008,0,0h0l-.006,0-.01.008,0,0h0l-.006,0-.011.009,0,0h0l-.006,0-.011.009,0,0h0l-.006,0-.012.009,0,0h0l-.006,0-.012.009,0,0h0l-.007,0-.012.008,0,0-.007.005-.012.008,0,0-.009.006-.012.008h0l-.01.006-.011.007h0L41,36.394l-.009.005h0l-.023.014L21.721,47.525a1.65,1.65,0,0,1-1.651,0L.825,36.414.8,36.4h0l-.009-.005L.78,36.386h0l-.011-.007-.01-.006h0l-.012-.008-.009-.006,0,0L.72,36.347l-.007-.005,0,0L.7,36.332l-.007,0h0l0,0-.012-.009-.006,0h0l0,0L.653,36.3l-.006,0h0l0,0-.011-.009-.006,0h0l0,0-.011-.009-.005,0h0l0,0-.01-.008-.006,0h0l0,0-.01-.008-.006,0,0,0,0,0-.009-.008-.006-.005,0,0,0,0L.531,36.2l-.006-.006,0,0,0,0-.008-.007-.006-.006,0,0,0,0-.007-.007-.007-.007,0,0,0,0-.007-.007-.007-.007,0,0,0,0-.006-.006-.007-.008,0,0,0,0L.438,36.1.43,36.1l0,0,0,0L.42,36.084l-.008-.009,0,0,0,0,0-.006-.008-.01,0,0v0l0-.006-.009-.01,0,0v0l0-.005L.36,36.013l0,0h0l0-.006-.009-.011,0,0h0l0-.006L.327,35.97l0,0h0l0-.006-.009-.012,0,0h0l0-.007-.008-.012,0,0,0-.008L.279,35.9l0,0-.006-.009L.264,35.88v0l-.007-.01L.25,35.857h0l-.008-.013-.005-.009h0l-.014-.023-.013-.023h0l0-.009L.2,35.763h0L.188,35.75l-.006-.011v0l-.006-.013,0-.009v0L.163,35.7l0-.008,0,0-.006-.013,0-.007h0v0L.14,35.649l0-.007h0v0l-.006-.014,0-.007v0L.119,35.6l0-.007v-.005l0-.013,0-.007v-.006l0-.013,0-.007v-.006l0-.012,0-.007v-.006l0-.012,0-.008v-.007l0-.011,0-.008V35.46l0-.01,0-.009v-.007l0-.01,0-.009v-.007l0-.009,0-.01v-.007l0-.009,0-.011v-.007l0-.008,0-.011v-.007l0-.008,0-.012V35.3l0-.013v-.014l0-.013v-.013l0-.014v-.013l0-.014V35.19l0-.014v0h0v-.025h0v-.133H0V12.762a1.651,1.651,0,0,1,.825-1.43L20.07.221l.023-.013h0L20.1.2,20.117.2h0L20.13.189l.011-.006h0l.013-.006.009,0h0l.013-.006.008,0,0,0,.013-.006.007,0h0L20.23.14l.007,0h0l.014-.006.007,0h0L20.28.119l.007,0h.005l.013,0,.007,0h.006l.013,0,.007,0h.006l.012,0,.007,0h.006l.012,0,.008,0h.007l.011,0,.008,0h.007l.01,0,.009,0h.007l.01,0,.009,0h.007l.009,0,.01,0H20.5l.009,0,.011,0h.007l.008,0,.011,0h.015l.012,0h.014l.012,0h.014l.013,0h.013l.014,0h.013l.014,0h.013l.014,0h.013l.015,0H20.9ZM33.98,36.635h0ZM4.51,33.333H37.281L20.9,4.952ZM3.3,28.823,16.386,6.161Zm22.1-22.662L38.49,28.823Z" transform="translate(41.349) rotate(60)" fill-rule="evenodd"/>
</svg>
