<?xml version="1.0" encoding="UTF-8" standalone="no"?><!DOCTYPE svg PUBLIC "-//W3C//DTD SVG 1.1//EN" "http://www.w3.org/Graphics/SVG/1.1/DTD/svg11.dtd"><svg width="100%" height="100%" viewBox="0 0 200 200" version="1.1" xmlns="http://www.w3.org/2000/svg" xmlns:xlink="http://www.w3.org/1999/xlink" xml:space="preserve" xmlns:serif="http://www.serif.com/" style="fill-rule:evenodd;clip-rule:evenodd;stroke-linejoin:round;stroke-miterlimit:2;"><path d="M28.566,126.152c0.189,0.213 0.477,0.401 0.929,0.472c0.176,0.028 0.355,0.024 0.53,-0.011l1.421,-0.287c2.372,0.218 5.38,0.679 8.997,1.672c0,-0 0,-0 0.001,-0c7.753,2.128 12.471,3.571 15.242,4.597c0.777,0.287 1.472,0.606 1.977,0.855c-0.053,0.047 -0.106,0.091 -0.157,0.133c-1.008,0.826 -2.318,1.764 -2.998,2.379c-0.761,0.688 -0.948,1.412 -0.938,1.719c-0,0.008 0,0.017 0.001,0.026c0.024,0.508 0.352,1.402 1.651,1.613c2.268,0.369 13.552,-1.344 15.704,-1.254c5.893,0.252 9.603,0.41 14.935,0.291c7.048,-0.157 12.595,-0.705 15.858,-0.885c0.244,-0.014 0.491,-0.022 0.73,-0.025c-0.371,0.536 -0.771,1.11 -1.042,1.492c-0.48,0.677 -0.754,1.263 -0.805,1.534c-0.118,0.623 0.099,1.058 0.346,1.346c0.001,0.001 0.002,0.002 0.003,0.003c0.232,0.271 0.791,0.721 1.776,0.488c1.419,-0.335 7.505,-3.683 14.357,-5.723c6.766,-2.01 8.099,-3.098 14.172,-4.975c4.51,-1.388 9.27,-2.486 14.194,-3.274c4.945,3.039 8.771,5.292 11.455,6.845c0,0.001 0.001,0.001 0.002,0.001c2.8,1.617 3.579,2.016 4.804,2.978c0.001,0 0.001,0.001 0.001,0.001c2.162,1.694 3.403,4.502 4.49,5.982c0.884,1.203 1.862,1.716 2.717,1.664c0.644,-0.038 1.302,-0.396 1.651,-1.335c0.179,-0.482 0.276,-1.325 0.454,-2.148c0.048,-0.218 0.103,-0.434 0.18,-0.63c0.038,-0.098 0.049,-0.206 0.125,-0.256c0,-0 0,-0.001 0,-0.001c0.778,-0.518 1.581,-0.295 2.224,-0.066c0.757,0.268 1.397,0.587 1.816,0.682c0.572,0.129 1.027,0.033 1.361,-0.14c0.37,-0.191 0.674,-0.492 0.847,-0.976c0.053,-0.147 0.161,-0.582 0.058,-1.234c-0.196,-1.235 -1.204,-4.236 -6.09,-6.542c-2.502,-1.182 -3.939,-1.747 -6.383,-2.83c-0,-0 -0.001,-0 -0.001,-0c-1.108,-0.49 -3.791,-1.674 -6.275,-2.932c-2.369,-1.201 -4.603,-2.488 -6.691,-3.852c0.791,-2.616 2.063,-5.176 3.787,-7.64c5.327,-7.591 14.36,-11.496 17.061,-13.168c0.506,-0.314 0.853,-0.595 1.042,-0.808c0.272,-0.306 0.393,-0.608 0.445,-0.855c0.143,-0.682 -0.021,-1.323 -0.818,-1.784c0,0 0,0 -0,0c-0.687,-0.396 -3.661,-1.319 -5.476,-1.962c0.07,-0.294 0.197,-0.786 0.341,-1.174c0.619,-1.666 1.655,-3.972 2.314,-6.902c1.074,-4.747 0.471,-7.84 -0.61,-13.064c-0.153,-0.739 -0.638,-2.852 -1.387,-4.07c-0.603,-0.979 -1.431,-1.475 -2.233,-1.492c-0,-0 -0.001,-0 -0.001,-0c-0.775,-0.016 -1.459,0.362 -2.016,1.1c-0.228,0.303 -0.443,0.688 -0.682,1.049c-0.057,0.086 -0.16,0.21 -0.227,0.287c-0.092,-0.049 -0.244,-0.135 -0.345,-0.215c-0.274,-0.219 -0.557,-0.513 -0.855,-0.866c-1.352,-1.596 -2.909,-4.247 -4.755,-7.308c0,-0.001 0,-0.001 -0,-0.001c-4.475,-7.407 -6.732,-10.801 -8.08,-12.141c-1.038,-1.033 -1.871,-1.207 -2.517,-1.146c-0.771,0.073 -1.204,0.437 -1.493,1.023c-0.099,0.202 -0.179,0.463 -0.229,0.79c-0.064,0.419 -0.073,1.15 -0.838,2.017c-0.001,0 -0.001,0.001 -0.001,0.001c-0.79,0.896 -1.731,1.29 -2.638,1.719c-1.28,0.606 -2.519,1.253 -3.556,2.56c-0.542,0.682 -0.737,1.16 -0.885,1.619c-0.118,0.365 -0.165,0.714 -0.677,1.378c-0.54,0.686 -1.233,1.325 -2.054,1.906c-1.681,-1.492 -2.788,-1.625 -3.461,-1.556c-0.014,0.002 -0.027,0.003 -0.041,0.005c-0.821,0.107 -1.341,0.496 -1.735,1.186c-0.334,0.585 -0.454,1.714 -1.348,3.233c-0.01,0.017 -0.019,0.034 -0.029,0.051c-0.77,1.432 -2.126,2.722 -3.922,3.804c-1.31,0.743 -2.831,1.333 -4.497,1.755c-4.166,-2.487 -8.809,-4.695 -13.837,-6.581c-0.001,-0 -0.001,-0 -0.002,-0.001c-4.854,-1.814 -10.96,-3.643 -14.726,-4.191c-1.303,-0.19 -2.364,-0.222 -3.071,-0.103c-0.533,0.09 -0.939,0.269 -1.227,0.478c-0,0 -0.001,0 -0.001,0.001c-0.676,0.49 -0.886,1.102 -0.829,1.776l-0.138,-0.046c-2.024,-0.689 -5.034,-1.94 -8.867,-3.132c0,-0 0,-0 -0,-0c-5.418,-1.684 -11.278,-2.866 -13.838,-2.873c-1.175,-0.003 -1.923,0.336 -2.235,0.628c-0,0 -0,0 -0.001,0.001c-0.548,0.513 -0.655,1.093 -0.483,1.712c0.019,0.068 0.044,0.139 0.076,0.212c-0.066,0.001 -0.132,0.001 -0.198,0c-3.492,-0.045 -9.647,-0.965 -15.406,-2.552c-5.621,-1.557 -8.994,-2.139 -11.349,-2.605c0,0 0,0 0,0c-1.446,-0.286 -2.47,-0.511 -3.416,-0.946c-0,-0 -0,-0 -0.001,-0c-3.28,-1.508 -5.633,0.335 -6.426,0.633c-0.741,0.267 -1.012,0.753 -1.128,1.135c-0.118,0.391 -0.114,0.835 0.154,1.313c0.151,0.268 0.55,0.682 1.213,1.134c0.854,0.584 2.326,1.476 3.667,2.887c0.735,0.779 2.692,2.671 6.64,6.439c0,0 0.001,0.001 0.001,0.001c0.267,0.254 1.973,1.852 3.04,3.486c0.241,0.37 0.449,0.739 0.581,1.091c0.058,0.156 0.097,0.409 0.107,0.474c-0.012,0.019 -0.022,0.038 -0.033,0.058c-0.052,0.1 -0.186,0.142 -0.333,0.196c-0.618,0.222 -1.286,0.683 -1.91,1.24c-0.629,0.561 -1.542,1.478 -1.675,1.611c-0.912,0.44 -1.038,1.129 -1.028,1.564c0.009,0.327 0.101,0.798 0.63,1.263c0.463,0.408 2.277,1.31 5.64,4.355c2.692,2.437 5.784,4.906 7.341,6.124c-0.808,0.446 -1.731,0.926 -2.264,1.139c-0,-0 -0,-0 -0,-0c-0.739,0.293 -1.15,0.78 -1.352,1.347c-0.213,0.601 -0.182,1.441 0.371,2.43c1.12,2.004 5.013,5.479 10.215,9.472c2.335,1.799 4.961,3.464 7.841,4.973c0.001,-0 -8.897,3.425 -8.897,3.425c-0.128,0.049 -0.249,0.116 -0.359,0.198c-0,-0 -2.264,1.687 -5.162,2.202c-2.28,0.4 -4.162,0.018 -5.058,0.123c-0.7,0.082 -1.158,0.368 -1.444,0.698c-0.001,0.001 -0.002,0.002 -0.003,0.003c-0.572,0.663 -0.595,1.352 -0.148,2.071c0.052,0.084 0.117,0.172 0.195,0.261c-1.086,0.382 -2.77,0.945 -4.257,1.315c-4.102,1.018 -8.997,2.056 -10.984,2.953c-1.01,0.457 -1.507,1.072 -1.658,1.494c-0.001,0.001 -0.001,0.001 -0.001,0.002c-0.193,0.54 -0.108,0.99 0.103,1.371c0.184,0.334 0.638,0.829 1.637,0.938c0.56,0.061 1.592,0.029 3.08,0.075Zm115.759,-0.67c-3.533,-2.095 -6.554,-3.882 -8.22,-4.861c-1.117,0.354 -2.517,0.562 -3.698,0.813c0,0 -0,0 -0.001,0c-7.042,1.493 -14.246,2.717 -21.565,3.664c-0.001,0 -0.001,0 -0.002,0.001c-20.129,2.57 -38.956,4.262 -58.27,3.292c3.898,1.227 6.031,2.068 7.091,2.675c1.869,1.07 1.76,2.24 1.506,2.863c-0.154,0.402 -0.668,1.049 -1.437,1.705c-0.199,0.171 -0.433,0.366 -0.684,0.57c0.687,-0.044 1.407,-0.101 2.082,-0.172c3.989,-0.419 8.619,-1.018 9.925,-0.964c0,0 0.001,0 0.001,0c5.817,0.249 9.479,0.408 14.741,0.29c0,-0 0,-0 0.001,-0c8.966,-0.199 15.508,-1.027 18.018,-0.933c0.699,0.026 1.195,0.141 1.488,0.271c0.421,0.187 0.676,0.455 0.835,0.718c0.222,0.366 0.392,1.116 -0.065,2.035l-0.058,0.111c2.76,-1.21 6.579,-2.766 10.214,-3.849c0.001,0 0.001,0 0.001,0c6.753,-2.006 8.083,-3.092 14.143,-4.966c0.001,0 0.002,0 0.002,-0c4.441,-1.367 9.117,-2.461 13.952,-3.263Zm-110.123,-61.575c0.655,0.628 1.392,1.332 2.217,2.12c0.364,0.346 2.989,2.854 4.078,5.047c0.694,1.399 0.756,2.732 0.177,3.683c-0.343,0.617 -0.993,1.197 -1.918,1.561c-0.018,0.007 -0.037,0.014 -0.055,0.02c-0.568,0.198 -1.186,0.896 -1.716,1.428c1,0.7 2.533,1.859 4.399,3.548c-0,-0 -0,-0 -0,-0c3.932,3.56 7.718,6.087 8.652,7.226c0.58,0.707 0.603,1.355 0.508,1.759c-0.096,0.403 -0.318,0.762 -0.735,1.032c0,0 0,0 0,0c-0.488,0.316 -2.337,1.36 -3.567,1.95c0.265,0.395 0.692,0.99 1.167,1.49c1.741,1.837 4.621,4.23 8.101,6.901c0.001,0 0.001,0.001 0.002,0.001c2.986,2.301 6.477,4.366 10.383,6.15c0.549,0.251 0.894,0.807 0.876,1.41c-0.018,0.604 -0.397,1.137 -0.96,1.354c-0,0 -11.934,4.593 -11.931,4.591c-0.677,0.468 -3.178,2.078 -6.252,2.624c-0.001,0 -0.002,0.001 -0.003,0.001c-1.027,0.18 -2.151,0.231 -3.093,0.232c0.029,0.21 0.02,0.42 -0.023,0.627c-0.105,0.504 -0.555,1.204 -1.582,1.73c-1.151,0.59 -3.34,1.223 -5.815,1.838c-0.44,0.109 -0.889,0.219 -1.343,0.327c4.284,0.296 6.74,-0.689 11.836,-0.207c28.176,2.63 57.029,1.095 83.862,-4.444l-8.868,-5.186c-15.467,-9.044 -30.973,-18.074 -46.518,-27.09c-13.403,-7.773 -28.097,-14.304 -41.879,-21.723Zm118.024,-2.564c0.869,8.677 0.475,17.047 -1.41,25.887c-0.001,0.001 -0.001,0.001 -0.001,0.002c-1.799,8.378 -4.747,16.659 -8.819,24.767c-0.872,1.737 -1.79,3.465 -2.755,5.184c2.101,1.203 5.793,3.289 10.029,5.676c0.876,-2.969 2.3,-5.877 4.255,-8.671c-0,-0 0,-0.001 0.001,-0.001c4.837,-6.893 12.5,-10.99 16.416,-13.134c-1.06,-0.348 -2.248,-0.723 -3.066,-1.021c-0.573,-0.209 -0.965,-0.53 -1.237,-0.911c-0.365,-0.51 -0.54,-1.178 -0.429,-2.033c0.208,-1.595 1.843,-4.441 2.754,-8.492c0,-0 0,-0.001 0.001,-0.002c0.97,-4.286 0.355,-7.076 -0.622,-11.793c-0,-0.001 -0,-0.002 -0,-0.002c-0.088,-0.424 -0.297,-1.412 -0.629,-2.297c-0.032,-0.084 -0.072,-0.175 -0.117,-0.268l-0.195,0.292c-0.588,0.861 -1.363,1.493 -2.395,1.572c-0.897,0.069 -1.929,-0.327 -2.979,-1.334c-1.597,-1.531 -3.516,-4.723 -5.816,-8.537c-1.14,-1.887 -2.127,-3.503 -2.986,-4.884Zm-4.891,-4.738c-0.136,0.203 -0.291,0.404 -0.464,0.6c-1.093,1.239 -2.348,1.852 -3.604,2.446c-0.883,0.418 -1.774,0.812 -2.489,1.713c-0,0.001 -0.001,0.001 -0.001,0.001c-0.418,0.526 -0.415,0.825 -0.546,1.201c-0.158,0.457 -0.393,0.991 -0.996,1.771c-0.003,0.003 -0.005,0.006 -0.007,0.009c-0.947,1.203 -2.243,2.31 -3.844,3.255c-0.602,0.356 -1.371,0.248 -1.852,-0.26c-0.553,-0.584 -1.004,-0.983 -1.385,-1.243l-0.116,-0.081c-0.201,0.619 -0.605,1.725 -1.203,2.748c-1,1.846 -2.71,3.554 -5.033,4.947c-0.01,0.006 -0.02,0.012 -0.03,0.018c-1.689,0.96 -3.696,1.717 -5.904,2.215c-0.38,0.086 -0.778,0.021 -1.11,-0.181c-4.15,-2.526 -8.804,-4.759 -13.862,-6.656c-4.651,-1.738 -10.498,-3.507 -14.107,-4.033c-0.364,-0.053 -0.762,-0.08 -1.119,-0.092c0.079,0.196 0.129,0.385 0.151,0.555c0.099,0.771 -0.133,1.425 -0.978,1.868c-0.517,0.271 -1.488,0.357 -2.86,-0.037c-1.971,-0.566 -5.32,-2.034 -9.786,-3.424c-4.039,-1.255 -8.335,-2.233 -11.163,-2.594c-0.073,-0.009 -0.147,-0.018 -0.221,-0.026c0.109,0.52 -0.035,1.017 -0.449,1.485c-0.327,0.369 -1.158,0.808 -2.501,0.912c-3.219,0.248 -10.713,-0.708 -17.657,-2.621c-0,-0 -0.001,-0 -0.001,-0.001c-3.586,-0.993 -6.239,-1.581 -8.291,-1.996c7.499,3.891 15.057,6.74 22.529,11.054c0.001,0 0.001,0 0.002,0.001c15.579,9.02 31.134,18.052 46.664,27.097c0,0 0,0.001 0.001,0.001c10.142,5.908 20.274,11.824 30.398,17.746l0,0c1.541,-2.809 2.947,-5.641 4.217,-8.495c0,-0.001 0.001,-0.002 0.001,-0.003c7.434,-16.603 10.326,-32.828 7.616,-49.9Zm-119.069,0.538c-0.507,-0.11 -0.963,-0.077 -1.361,0.019c0.221,0.16 0.456,0.334 0.698,0.52l0.281,-0.271c0.113,-0.109 0.242,-0.199 0.382,-0.268Z" style="fill:#817b7b;"/></svg>