<?xml version="1.0" encoding="UTF-8" standalone="no"?><!DOCTYPE svg PUBLIC "-//W3C//DTD SVG 1.1//EN" "http://www.w3.org/Graphics/SVG/1.1/DTD/svg11.dtd"><svg width="100%" height="100%" viewBox="0 0 200 200" version="1.1" xmlns="http://www.w3.org/2000/svg" xmlns:xlink="http://www.w3.org/1999/xlink" xml:space="preserve" xmlns:serif="http://www.serif.com/" style="fill-rule:evenodd;clip-rule:evenodd;stroke-linejoin:round;stroke-miterlimit:2;"><g><path d="M119.447,94.621c-0.17,1.201 -0.368,2.497 -0.611,3.941c-0.69,4.086 -0.869,5.481 -1.875,7.572c-1.896,3.941 -4.156,4.997 -4.056,7.825c0.065,1.879 1.159,4.084 3.176,4.99c2.087,0.937 4.573,0.216 5.983,-1.083l0.001,-0.001c-0.297,4.441 -0.639,9.388 -0.948,14.862c-0.954,16.917 -1.14,30.855 -1.139,40.304c-0.701,3.598 -3.73,6.22 -7.183,6.354c-2.988,0.115 -5.825,-1.65 -7.17,-4.471c-0.322,-13.962 -0.705,-28.025 -1.151,-42.187c-0.378,-12.012 -0.797,-23.949 -1.257,-35.814c7.198,0.484 12.956,-1.113 16.23,-2.292Z" style="fill:none;fill-rule:nonzero;stroke:#6a6a6a;stroke-width:3px;"/><path d="M118.903,175.76c0.396,0.957 0.624,1.955 0.647,2.882c0.166,6.531 -9.763,12.396 -13.207,10.315c-2.561,-1.547 -2.588,-8.121 -0.012,-12.841c1.499,2.109 3.927,3.367 6.464,3.269c2.498,-0.097 4.775,-1.496 6.108,-3.625Z" style="fill:none;fill-rule:nonzero;stroke:#6a6a6a;stroke-width:3px;"/><path d="M127.218,56.78l0.001,0.001c1.418,3.205 2.395,5.938 3.042,7.908c1.539,4.687 2.433,7.494 2.266,11.128c-0.112,2.444 -0.657,4.225 -1.168,5.851c-7.131,22.734 -7.721,22.636 -7.835,26.141c-0.154,4.734 0.826,7.953 -1.46,10.057c-1.41,1.299 -3.896,2.02 -5.983,1.083c-2.017,-0.906 -3.111,-3.111 -3.176,-4.99c-0.1,-2.828 2.16,-3.884 4.056,-7.825c1.006,-2.091 1.185,-3.486 1.875,-7.572c0.243,-1.443 0.441,-2.739 0.611,-3.941l0.076,-0.027c2.56,-7.278 2.563,-12.861 2.241,-16.217l0,-0.002l0,-0c0.3,-1.561 0.575,-2.83 0.754,-3.634c-1.5,-4.461 -3.001,-8.924 -4.501,-13.385l2.301,-1.143c2.3,-1.144 4.6,-2.288 6.901,-3.43l-0.001,-0.003Z" style="fill:none;fill-rule:nonzero;stroke:#6a6a6a;stroke-width:3px;"/><path d="M91.892,94.453c2.699,1.016 6.119,1.971 10.135,2.362c0.401,0.039 0.797,0.072 1.19,0.098c0.46,11.864 0.879,23.801 1.257,35.814c0.396,12.58 0.743,25.082 1.041,37.504l-0.052,1.453c-0.349,0.172 -4.55,2.147 -8.779,-0.256c-4.166,-2.367 -4.668,-6.884 -4.707,-7.293c-0.121,-4.776 -0.205,-9.632 -0.242,-14.562c-0.048,-6.23 -0.017,-12.461 0.071,-18.691c0.108,-7.863 0.195,-19.604 0.086,-36.429Z" style="fill:none;fill-rule:nonzero;stroke:#6a6a6a;stroke-width:3px;"/><path d="M91.993,164.276c0.11,0.88 0.812,4.948 4.691,7.152c2.725,1.549 5.439,1.279 7.118,0.845c-2.191,1.974 -6.196,1.857 -10.288,1.739c-3.842,-0.114 -7.403,-0.218 -8.097,-1.995c-0.813,-2.081 2.54,-5.841 6.576,-7.741Z" style="fill:none;fill-rule:nonzero;stroke:#6a6a6a;stroke-width:3px;"/><path d="M88.196,55.065c0.331,0.71 0.756,1.484 1.301,2.281c1.102,1.61 2.301,2.735 3.211,3.466c-0.552,3.518 -1.073,7.103 -1.559,10.752c-0.177,1.327 -0.348,2.648 -0.511,3.962c-0.783,1.079 -1.692,1.959 -2.931,2.678c-2.106,1.22 -4.081,1.345 -6.251,1.46c-4.915,0.255 -11.279,0.499 -18.864,0.566c-1.546,1.213 -2.917,2 -3.909,2.5c-0.102,0.054 -0.995,0.5 -2.251,0.904c-0.971,0.313 -2.222,0.713 -2.452,0.35c-0.164,-0.257 0.258,-0.796 0.418,-1.001c0.447,-0.57 1.02,-0.928 1.441,-1.13c0.374,-0.15 0.583,-0.208 0.58,-0.215c-0.004,-0.008 -0.244,0.054 -0.58,0.215c-0.467,0.187 -1.192,0.516 -2.081,1.063c-2.042,1.256 -2.643,2.244 -3.414,2.022c-0.347,-0.096 -0.783,-0.455 -1.088,-1.672c0.822,-0.689 1.903,-1.466 3.258,-2.168c0.956,-0.446 1.877,-0.824 2.746,-1.147c-0.817,0.266 -1.753,0.632 -2.746,1.147c-1.336,0.622 -2.529,1.279 -3.58,1.92c-0.147,0.006 -0.396,-0.005 -0.664,-0.132c-0.523,-0.245 -0.718,-0.736 -0.761,-0.854c0.783,-0.751 1.89,-1.657 3.355,-2.448c0.299,-0.162 0.594,-0.309 0.88,-0.441c0.628,-0.279 1.23,-0.507 1.793,-0.694c-0.544,0.173 -1.149,0.398 -1.793,0.694c-0.177,0.079 -0.357,0.162 -0.538,0.249c-1.701,0.823 -3.046,1.785 -4.06,2.64c-0.098,-0.011 -0.236,-0.041 -0.375,-0.122c-0.629,-0.376 -0.596,-1.444 -0.588,-1.662c0.039,-1.23 2.69,-2.642 6.366,-3.646c-0.337,-0.076 -0.882,-0.19 -1.561,-0.276c-1.685,-0.215 -2.284,-0.031 -3.11,-0.448c-0.618,-0.311 -1.442,-0.997 -1.331,-1.47c0.116,-0.491 1.29,-0.958 6.3,-0.699c1.185,-0.225 2.71,-0.406 4.482,-0.35c1.759,0.056 3.261,0.329 4.425,0.625l19.541,-4.478c2.3,-4.813 4.6,-9.627 6.901,-14.441Z" style="fill:none;fill-rule:nonzero;stroke:#6a6a6a;stroke-width:3px;"/><path d="M115.357,26.504c-0.097,2.015 -0.247,4.415 -2.048,5.762c-0.864,0.647 -1.82,0.833 -2.463,0.889c-0.09,-0.523 -0.177,-1.045 -0.267,-1.568c0.425,-0.158 1.241,-0.532 1.904,-1.358c0.206,-0.261 1.321,-1.649 0.848,-3.154c-0.212,-0.673 -0.822,-1.639 -1.637,-1.639c-0.832,0.002 -1.392,1.005 -1.578,1.336c-0.366,0.653 -0.42,1.282 -0.424,1.637c-0.378,-0.188 -0.753,-0.375 -1.131,-0.563c-0.177,-2.683 -0.988,-3.684 -1.712,-4.097c-0.77,-0.441 -1.334,-0.154 -2.64,-0.858c-1.153,-0.619 -1.179,-1.094 -1.996,-1.231c-0.941,-0.157 -1.157,0.429 -2.452,0.411c-1.064,-0.017 -1.125,-0.417 -1.957,-0.316c-1.196,0.147 -2.006,1.095 -2.216,1.341c-0.709,0.832 -0.83,1.63 -0.943,1.6c-0.175,-0.045 0.378,-1.792 0.469,-3.994c0.111,-2.709 -0.543,-4.397 0.126,-4.746c0.504,-0.265 1.048,0.602 1.81,0.361c1.037,-0.326 0.769,-2.149 1.721,-2.536c1.2,-0.488 2.908,1.884 3.611,1.43c0.559,-0.359 -0.275,-2.009 0.253,-2.377c0.622,-0.436 2.101,1.63 4.858,2.872c2.707,1.223 3.414,0.196 5.044,1.245c3.181,2.048 2.917,7.531 2.82,9.553" style="fill:none;fill-rule:nonzero;stroke:#6a6a6a;stroke-width:3px;"/><path d="M95.107,23.789c0.121,-0.216 0.277,-0.453 0.481,-0.693c0.21,-0.246 1.02,-1.194 2.216,-1.341c0.832,-0.101 0.893,0.299 1.957,0.316c1.295,0.018 1.511,-0.568 2.452,-0.411c0.817,0.137 0.843,0.612 1.996,1.231c1.306,0.704 1.87,0.417 2.64,0.858c0.724,0.413 1.535,1.414 1.712,4.097c0.378,0.188 0.753,0.375 1.131,0.563c0.004,-0.355 0.058,-0.984 0.424,-1.637c0.186,-0.331 0.746,-1.334 1.578,-1.336c0.815,0 1.425,0.966 1.637,1.639c0.473,1.505 -0.642,2.893 -0.848,3.154c-0.663,0.826 -1.479,1.2 -1.904,1.358c0.09,0.523 0.177,1.045 0.267,1.568c0.643,-0.056 1.599,-0.242 2.463,-0.889l0.022,-0.017c-1.165,2.065 -2.65,3.356 -2.992,3.645c0.205,2.104 0.408,4.208 0.613,6.312c-1.848,4.421 -6.289,5.764 -8.478,4.417c-1.701,-1.044 -2.475,-3.967 -1.572,-6.941c-0.025,-0.408 -0.049,-0.817 -0.071,-1.225l-1.73,-0.55c-0.562,-0.512 -5.329,-4.988 -4.599,-11.403c0.1,-0.88 0.304,-1.8 0.605,-2.715Z" style="fill:none;fill-rule:nonzero;stroke:#6a6a6a;stroke-width:3px;"/><path d="M110.796,40.604c1.855,0.35 3.921,1.015 5.975,2.224c2.681,1.575 4.285,3.454 5.468,4.865c2.876,3.427 4.277,6.879 4.98,9.09c-3.068,1.523 -6.134,3.049 -9.202,4.573c0.838,2.615 1.928,6.414 2.823,11.103c0.273,1.436 0.718,3.763 0.924,5.918c0.322,3.356 0.319,8.939 -2.241,16.217c-3.437,1.245 -9.686,2.984 -17.496,2.221c-5.769,-0.562 -10.307,-2.286 -13.248,-3.687c0.603,-6.971 1.382,-14.165 2.37,-21.564c0.486,-3.649 1.007,-7.234 1.559,-10.752c-0.91,-0.731 -2.109,-1.856 -3.211,-3.466c-1.006,-1.471 -1.602,-2.865 -1.961,-3.916c0.903,-1.95 2.863,-5.505 6.718,-8.535c1.081,-0.851 3.206,-2.471 6.312,-3.554c-0.243,2.347 0.527,4.434 1.908,5.282c2.189,1.347 6.63,0.004 8.478,-4.417c-0.052,-0.534 -0.104,-1.068 -0.156,-1.602Z" style="fill:none;fill-rule:nonzero;stroke:#6a6a6a;stroke-width:3px;"/></g></svg>