<svg width="100%" height="100%" viewBox="0 0 30 30" version="1.1" xmlns="http://www.w3.org/2000/svg" xmlns:xlink="http://www.w3.org/1999/xlink" xml:space="preserve" xmlns:serif="http://www.serif.com/" style="fill-rule:evenodd;clip-rule:evenodd;stroke-linejoin:round;stroke-miterlimit:2;"><rect id="Artboard1" x="0" y="0" width="30" height="30" style="fill:none;"/><path d="M25.681,13.561l-1.95,0l0,3l1.95,0l0,-3Zm-3.9,0l-1.95,0l0,3l1.95,0l0,-3Zm-3.9,0l-1.95,0l0,3l1.95,0l0,-3Zm-3.9,0l-1.95,0l0,3l1.95,0l0,-3Zm-3.9,0l-1.95,0l0,3l1.95,0l0,-3Zm-3.9,0l-1.95,0l0,3l1.95,0l0,-3Z"/><path d="M13.126,19.411c0.37,-0.566 1,-0.907 1.675,-0.907c0.676,0 1.306,0.341 1.675,0.907c0.933,1.43 2.102,3.221 3.085,4.728c0.402,0.615 0.434,1.4 0.084,2.045c-0.349,0.646 -1.024,1.048 -1.759,1.048c-1.917,-0 -4.253,-0 -6.17,-0c-0.734,-0 -1.409,-0.402 -1.759,-1.048c-0.349,-0.645 -0.317,-1.43 0.084,-2.045c0.984,-1.507 2.152,-3.298 3.085,-4.728Zm3.837,5.321l-2.162,-3.313l-2.162,3.313l4.324,-0Z"/><path d="M13.126,10.711c0.37,0.566 1,0.907 1.675,0.907c0.676,0 1.306,-0.341 1.675,-0.907c0.933,-1.43 2.102,-3.221 3.085,-4.728c0.402,-0.614 0.434,-1.399 0.084,-2.045c-0.349,-0.645 -1.024,-1.048 -1.759,-1.048c-1.917,0 -4.253,0 -6.17,0c-0.734,0 -1.409,0.403 -1.759,1.048c-0.349,0.646 -0.317,1.431 0.084,2.045c0.984,1.507 2.152,3.298 3.085,4.728Zm1.675,-2.008l2.162,-3.313l-4.324,0l2.162,3.313Z"/></svg>
