<svg width="100%" height="100%" viewBox="0 0 30 30" version="1.1" xmlns="http://www.w3.org/2000/svg" xmlns:xlink="http://www.w3.org/1999/xlink" xml:space="preserve" xmlns:serif="http://www.serif.com/" style="fill-rule:evenodd;clip-rule:evenodd;stroke-linejoin:round;stroke-miterlimit:2;"><rect id="Artboard1" x="0" y="0" width="30" height="30" style="fill:none;"/><g id="Artboard11" serif:id="Artboard1"><path d="M16.456,25.786l0,-1.95l-3,0l0,1.95l3,0Zm0,-3.9l0,-1.95l-3,0l0,1.95l3,0Zm0,-3.9l0,-1.95l-3,0l0,1.95l3,0Zm0,-3.9l0,-1.95l-3,0l0,1.95l3,0Zm0,-3.9l0,-1.95l-3,0l0,1.95l3,0Zm0,-3.9l0,-1.95l-3,0l0,1.95l3,0Z"/><path d="M10.606,13.231c0.566,0.369 0.907,0.999 0.907,1.675c0,0.676 -0.341,1.306 -0.907,1.675c-1.43,0.933 -3.22,2.102 -4.727,3.085c-0.615,0.401 -1.4,0.434 -2.046,0.084c-0.645,-0.349 -1.047,-1.025 -1.047,-1.759c-0,-1.917 -0,-4.253 -0,-6.17c-0,-0.734 0.402,-1.409 1.047,-1.759c0.646,-0.349 1.431,-0.317 2.046,0.084c1.507,0.983 3.297,2.152 4.727,3.085Zm-5.32,3.837l3.312,-2.162l-3.312,-2.162l-0,4.324Z"/><path d="M19.306,13.231c-0.566,0.369 -0.907,0.999 -0.907,1.675c0,0.676 0.341,1.306 0.907,1.675c1.43,0.933 3.221,2.102 4.728,3.085c0.615,0.401 1.4,0.434 2.045,0.084c0.646,-0.349 1.048,-1.025 1.048,-1.759c-0,-1.917 -0,-4.253 -0,-6.17c-0,-0.734 -0.402,-1.409 -1.048,-1.759c-0.645,-0.349 -1.43,-0.317 -2.045,0.084c-1.507,0.983 -3.298,2.152 -4.728,3.085Zm2.008,1.675l3.313,2.162l-0,-4.324l-3.313,2.162Z"/></g></svg>
