<?xml version="1.0" encoding="UTF-8" standalone="no"?><!DOCTYPE svg PUBLIC "-//W3C//DTD SVG 1.1//EN" "http://www.w3.org/Graphics/SVG/1.1/DTD/svg11.dtd"><svg width="100%" height="100%" viewBox="0 0 500 500" version="1.1" xmlns="http://www.w3.org/2000/svg" xmlns:xlink="http://www.w3.org/1999/xlink" xml:space="preserve" xmlns:serif="http://www.serif.com/" style="fill-rule:evenodd;clip-rule:evenodd;stroke-linecap:square;stroke-miterlimit:2;"><rect id="Artboard1" x="0" y="0" width="500" height="500" style="fill:none;"/><g><g><path d="M465.978,226.186l1.335,0.771l-276.522,159.65l-1.335,-0.771l276.522,-159.65Z" style="fill-opacity:0.05;"/><path d="M415.369,196.967l1.335,0.77l-276.522,159.65l-1.335,-0.77l276.522,-159.65Z" style="fill-opacity:0.05;"/><path d="M362.223,166.283l1.335,0.77l-276.522,159.651l-1.335,-0.771l276.522,-159.65Z" style="fill-opacity:0.05;"/><path d="M309.492,135.838l1.334,0.771l-276.522,159.65l-1.334,-0.771l276.522,-159.65Z" style="fill-opacity:0.05;"/></g><g><path d="M34.304,226.647l-1.334,0.771l276.522,159.65l1.334,-0.771l-276.522,-159.65Z" style="fill-opacity:0.05;"/><path d="M84.913,197.428l-1.334,0.77l276.522,159.65l1.335,-0.77l-276.523,-159.65Z" style="fill-opacity:0.05;"/><path d="M138.06,166.744l-1.335,0.77l276.522,159.65l1.335,-0.77l-276.522,-159.65Z" style="fill-opacity:0.05;"/><path d="M190.791,136.299l-1.335,0.771l276.522,159.65l1.335,-0.771l-276.522,-159.65Z" style="fill-opacity:0.05;"/></g><g><rect x="160.134" y="295.199" width="4.802" height="20.578" style="fill-rule:nonzero;stroke:#000;stroke-width:1px;"/><path d="M183.043,299.38c-0.141,0.226 -0.29,0.395 -0.445,0.508c-0.155,0.113 -0.355,0.17 -0.6,0.17c-0.217,-0 -0.45,-0.068 -0.699,-0.205c-0.25,-0.136 -0.532,-0.289 -0.848,-0.459c-0.315,-0.169 -0.675,-0.322 -1.08,-0.459c-0.405,-0.136 -0.866,-0.205 -1.384,-0.205c-0.895,0 -1.561,0.191 -1.999,0.572c-0.438,0.382 -0.657,0.897 -0.657,1.547c0,0.414 0.132,0.758 0.396,1.031c0.264,0.273 0.61,0.508 1.038,0.706c0.428,0.198 0.918,0.379 1.469,0.544c0.551,0.165 1.113,0.348 1.688,0.551c0.574,0.202 1.137,0.44 1.687,0.713c0.551,0.273 1.041,0.621 1.469,1.045c0.429,0.424 0.775,0.939 1.038,1.547c0.264,0.607 0.396,1.339 0.396,2.196c-0,0.951 -0.165,1.841 -0.495,2.669c-0.329,0.829 -0.807,1.551 -1.433,2.168c-0.626,0.617 -1.398,1.102 -2.316,1.455c-0.918,0.353 -1.961,0.53 -3.129,0.53c-0.64,-0 -1.292,-0.066 -1.956,-0.198c-0.664,-0.132 -1.306,-0.318 -1.928,-0.558c-0.621,-0.24 -1.205,-0.525 -1.751,-0.855c-0.546,-0.329 -1.022,-0.696 -1.427,-1.101l1.413,-2.232c0.103,-0.169 0.249,-0.306 0.438,-0.409c0.188,-0.104 0.39,-0.156 0.607,-0.156c0.282,0 0.567,0.09 0.854,0.269c0.288,0.179 0.612,0.376 0.975,0.593c0.362,0.216 0.779,0.414 1.25,0.593c0.471,0.179 1.026,0.268 1.667,0.268c0.866,0 1.539,-0.19 2.019,-0.572c0.48,-0.381 0.72,-0.986 0.72,-1.815c0,-0.48 -0.131,-0.87 -0.395,-1.172c-0.264,-0.301 -0.61,-0.551 -1.038,-0.748c-0.428,-0.198 -0.916,-0.372 -1.462,-0.523c-0.546,-0.151 -1.106,-0.318 -1.681,-0.501c-0.574,-0.184 -1.134,-0.41 -1.68,-0.678c-0.546,-0.269 -1.034,-0.622 -1.462,-1.06c-0.429,-0.437 -0.775,-0.983 -1.038,-1.638c-0.264,-0.654 -0.396,-1.462 -0.396,-2.422c0,-0.772 0.156,-1.525 0.466,-2.26c0.311,-0.734 0.768,-1.389 1.37,-1.963c0.603,-0.574 1.342,-1.033 2.218,-1.377c0.876,-0.344 1.878,-0.516 3.008,-0.516c0.631,0 1.245,0.05 1.843,0.149c0.598,0.099 1.166,0.244 1.702,0.438c0.537,0.193 1.038,0.423 1.504,0.692c0.466,0.268 0.883,0.572 1.25,0.911l-1.186,2.217Z" style="fill-rule:nonzero;stroke:#000;stroke-width:1px;"/><path d="M210.019,305.481c0,1.488 -0.256,2.872 -0.77,4.153c-0.513,1.28 -1.235,2.394 -2.168,3.34c-0.932,0.946 -2.055,1.688 -3.368,2.224c-1.314,0.537 -2.771,0.806 -4.371,0.806c-1.601,-0 -3.06,-0.269 -4.379,-0.806c-1.318,-0.536 -2.445,-1.278 -3.382,-2.224c-0.937,-0.946 -1.662,-2.06 -2.175,-3.34c-0.513,-1.281 -0.77,-2.665 -0.77,-4.153c-0,-1.487 0.257,-2.871 0.77,-4.152c0.513,-1.281 1.238,-2.392 2.175,-3.333c0.937,-0.942 2.064,-1.681 3.382,-2.218c1.319,-0.536 2.778,-0.805 4.379,-0.805c1.6,0 3.057,0.271 4.371,0.812c1.313,0.542 2.436,1.283 3.368,2.225c0.933,0.942 1.655,2.053 2.168,3.333c0.514,1.281 0.77,2.66 0.77,4.138Zm-4.887,0c0,-1.017 -0.131,-1.932 -0.395,-2.747c-0.264,-0.814 -0.643,-1.504 -1.137,-2.069c-0.494,-0.565 -1.099,-0.998 -1.815,-1.299c-0.716,-0.301 -1.53,-0.452 -2.443,-0.452c-0.923,-0 -1.745,0.151 -2.465,0.452c-0.72,0.301 -1.328,0.734 -1.822,1.299c-0.494,0.565 -0.873,1.255 -1.137,2.069c-0.263,0.815 -0.395,1.73 -0.395,2.747c-0,1.027 0.132,1.947 0.395,2.762c0.264,0.814 0.643,1.504 1.137,2.069c0.494,0.565 1.102,0.995 1.822,1.292c0.72,0.297 1.542,0.445 2.465,0.445c0.913,-0 1.727,-0.148 2.443,-0.445c0.716,-0.297 1.321,-0.727 1.815,-1.292c0.494,-0.565 0.873,-1.255 1.137,-2.069c0.264,-0.815 0.395,-1.735 0.395,-2.762Z" style="fill-rule:nonzero;stroke:#000;stroke-width:1px;"/><path d="M224.821,312.331c0.659,0 1.243,-0.056 1.751,-0.169c0.509,-0.113 0.989,-0.264 1.441,-0.452l-0,-3.121l-2.034,-0c-0.301,-0 -0.537,-0.08 -0.706,-0.241c-0.17,-0.16 -0.255,-0.362 -0.255,-0.607l0,-2.627l7.317,0l-0,8.686c-0.528,0.386 -1.076,0.718 -1.646,0.996c-0.57,0.278 -1.177,0.506 -1.822,0.685c-0.645,0.179 -1.332,0.311 -2.062,0.395c-0.73,0.085 -1.513,0.128 -2.351,0.128c-1.507,-0 -2.901,-0.266 -4.181,-0.798c-1.281,-0.532 -2.389,-1.267 -3.326,-2.204c-0.937,-0.937 -1.672,-2.048 -2.203,-3.333c-0.532,-1.285 -0.798,-2.681 -0.798,-4.188c-0,-1.534 0.254,-2.944 0.762,-4.23c0.509,-1.285 1.236,-2.394 2.182,-3.326c0.947,-0.932 2.091,-1.657 3.432,-2.175c1.342,-0.518 2.842,-0.777 4.499,-0.777c0.857,0 1.662,0.071 2.415,0.212c0.753,0.141 1.448,0.334 2.083,0.579c0.636,0.245 1.217,0.537 1.744,0.876c0.528,0.339 0.998,0.706 1.413,1.102l-1.384,2.104c-0.132,0.198 -0.29,0.353 -0.474,0.466c-0.183,0.113 -0.383,0.17 -0.6,0.17c-0.282,-0 -0.574,-0.095 -0.875,-0.283c-0.377,-0.226 -0.733,-0.421 -1.067,-0.586c-0.334,-0.165 -0.675,-0.299 -1.024,-0.403c-0.348,-0.103 -0.715,-0.178 -1.101,-0.226c-0.386,-0.047 -0.82,-0.07 -1.3,-0.07c-0.894,-0 -1.699,0.158 -2.415,0.473c-0.715,0.315 -1.325,0.76 -1.829,1.335c-0.504,0.574 -0.892,1.264 -1.165,2.069c-0.273,0.805 -0.41,1.702 -0.41,2.69c0,1.093 0.151,2.062 0.452,2.91c0.302,0.847 0.718,1.563 1.25,2.147c0.532,0.583 1.163,1.028 1.893,1.334c0.729,0.306 1.527,0.459 2.394,0.459Z" style="fill-rule:nonzero;stroke:#000;stroke-width:1px;"/><path d="M242.843,308.165l-0,7.613l-4.774,-0l-0,-20.579l6.694,0c1.488,0 2.757,0.153 3.807,0.459c1.05,0.306 1.906,0.732 2.57,1.279c0.664,0.546 1.147,1.191 1.448,1.935c0.301,0.743 0.452,1.553 0.452,2.429c-0,0.668 -0.09,1.299 -0.269,1.892c-0.178,0.594 -0.444,1.142 -0.798,1.646c-0.353,0.503 -0.786,0.953 -1.299,1.349c-0.513,0.395 -1.104,0.72 -1.772,0.974c0.32,0.16 0.619,0.358 0.896,0.593c0.278,0.236 0.521,0.523 0.728,0.862l4.378,7.161l-4.322,-0c-0.8,-0 -1.374,-0.302 -1.723,-0.904l-3.418,-5.975c-0.15,-0.263 -0.327,-0.452 -0.529,-0.565c-0.203,-0.113 -0.488,-0.169 -0.855,-0.169l-1.214,-0Zm-0,-3.291l1.92,0c0.65,0 1.203,-0.082 1.66,-0.247c0.457,-0.165 0.831,-0.393 1.123,-0.685c0.292,-0.292 0.503,-0.633 0.635,-1.024c0.132,-0.391 0.198,-0.812 0.198,-1.264c-0,-0.904 -0.294,-1.61 -0.883,-2.119c-0.588,-0.508 -1.499,-0.762 -2.733,-0.762l-1.92,-0l-0,6.101Z" style="fill-rule:nonzero;stroke:#000;stroke-width:1px;"/><path d="M278.83,315.778l-3.701,-0c-0.414,-0 -0.755,-0.097 -1.024,-0.29c-0.268,-0.193 -0.454,-0.44 -0.558,-0.742l-1.214,-3.587l-7.825,0l-1.214,3.587c-0.095,0.264 -0.278,0.502 -0.551,0.714c-0.273,0.212 -0.608,0.318 -1.003,0.318l-3.729,-0l7.966,-20.579l4.887,0l7.966,20.579Zm-13.22,-7.867l5.621,-0l-1.893,-5.636c-0.122,-0.357 -0.265,-0.779 -0.43,-1.264c-0.165,-0.485 -0.327,-1.01 -0.488,-1.575c-0.15,0.575 -0.306,1.107 -0.466,1.596c-0.16,0.49 -0.31,0.914 -0.452,1.272l-1.892,5.607Z" style="fill-rule:nonzero;stroke:#000;stroke-width:1px;"/><path d="M288.095,308.899l-0,6.879l-4.774,-0l-0,-20.579l7.259,0c1.451,0 2.696,0.172 3.736,0.516c1.041,0.344 1.897,0.817 2.571,1.419c0.673,0.603 1.17,1.314 1.49,2.133c0.32,0.819 0.48,1.704 0.48,2.655c-0,1.027 -0.165,1.968 -0.494,2.825c-0.33,0.857 -0.834,1.591 -1.512,2.203c-0.678,0.612 -1.537,1.09 -2.577,1.434c-1.041,0.343 -2.272,0.515 -3.694,0.515l-2.485,0Zm-0,-3.601l2.485,-0c1.243,-0 2.138,-0.297 2.684,-0.89c0.546,-0.593 0.819,-1.422 0.819,-2.486c0,-0.471 -0.07,-0.899 -0.212,-1.285c-0.141,-0.386 -0.355,-0.718 -0.642,-0.996c-0.288,-0.278 -0.65,-0.492 -1.088,-0.642c-0.438,-0.151 -0.958,-0.226 -1.561,-0.226l-2.485,-0l-0,6.525Z" style="fill-rule:nonzero;stroke:#000;stroke-width:1px;"/><path d="M322.133,315.778l-4.802,-0l-0,-8.701l-8.362,0l0,8.701l-4.802,-0l0,-20.579l4.802,0l0,8.602l8.362,-0l-0,-8.602l4.802,0l-0,20.579Z" style="fill-rule:nonzero;stroke:#000;stroke-width:1px;"/><path d="M338.601,307.953l-0,7.825l-4.774,-0l0,-7.825l-7.457,-12.754l4.209,0c0.414,0 0.744,0.097 0.988,0.29c0.245,0.193 0.443,0.44 0.594,0.741l2.909,5.989c0.235,0.48 0.452,0.923 0.65,1.327c0.197,0.405 0.372,0.805 0.522,1.201c0.141,-0.405 0.311,-0.81 0.509,-1.215c0.197,-0.405 0.409,-0.842 0.635,-1.313l2.882,-5.989c0.056,-0.122 0.134,-0.244 0.233,-0.367c0.098,-0.122 0.211,-0.233 0.339,-0.332c0.127,-0.099 0.273,-0.179 0.437,-0.24c0.165,-0.061 0.346,-0.092 0.544,-0.092l4.237,0l-7.457,12.754Z" style="fill-rule:nonzero;stroke:#000;stroke-width:1px;"/></g><path d="M197.196,288.639c-0,9.405 22.907,17.041 51.122,17.041c28.214,-0 51.121,-7.636 51.121,-17.041c0,-9.405 -22.907,-17.041 -51.121,-17.041c-28.215,0 -51.122,7.636 -51.122,17.041Z" style="fill-opacity:0.05;"/></g><g><path d="M189.242,178.039l19.991,-26.548l0.281,19.908l24.198,14.183l33.941,0.15l23.802,-13.971l-0.278,-19.705l20.269,25.983l-0.079,31.675l-36.002,20.585l-50.659,-0.607l-35.64,-21.444l0.176,-30.209Z" style="fill-opacity:0.14;"/><path d="M189.242,178.039l19.991,-26.548l23.802,-13.971l33.941,0.15l23.912,14.016l20.558,26.353l-0.079,31.675l-61.023,50.314l-61.278,-51.78l0.176,-30.209Z" style="fill:#26bcb5;"/><path d="M311.367,209.714l-19.912,-37.953l-0.278,-19.705l20.269,25.983l-0.079,31.675Z" style="fill:#fff;fill-opacity:0.14;"/><path d="M189.242,178.039l19.991,-26.548l0.281,19.908l24.198,14.183l33.941,0.15l7.712,44.567l-50.659,-0.607l-35.64,-21.444l0.176,-30.209Z" style="fill-opacity:0.14;"/><path d="M189.242,178.039l19.991,-26.548l0.281,19.908l24.198,14.183l-9.006,44.11l-35.64,-21.444l0.176,-30.209Z" style="fill-opacity:0.14;"/><path d="M189.242,178.039l19.991,-26.548l0.281,19.908l-20.448,36.849l0.176,-30.209Z" style="fill-opacity:0.14;"/><path d="M233.035,137.52l33.941,0.15l24.198,14.183l0.281,19.908l-23.802,13.971l-33.941,-0.15l-24.198,-14.183l-0.281,-19.908l23.802,-13.971Z" style="fill:#fff;fill-opacity:0.14;"/><path d="M233.035,137.52l33.941,0.15l24.198,14.183l0.281,19.908l-23.802,13.971l-33.941,-0.15l-24.198,-14.183l-0.281,-19.908l23.802,-13.971Z" style="fill:#fff;fill-opacity:0.14;"/><path d="M250.344,260.028l-61.278,-51.78l35.64,21.444l50.659,0.607l36.002,-20.585l-61.023,50.314Z" style="fill-opacity:0.14;"/><path d="M250.344,260.028l-61.278,-51.78l35.64,21.444l50.659,0.607l-25.021,29.729Z" style="fill-opacity:0.14;"/><path d="M250.344,260.028l-61.278,-51.78l35.64,21.444l25.638,30.336Z" style="fill-opacity:0.14;"/><g><g><path d="M250.344,260.028l-32.249,-27.361l17.559,9.923l2.314,-7.215l5.422,8.036l9.586,3.021l4.615,-4.982l8.363,-5.575l0.333,5.088l17.587,-8.762l-33.53,27.827Z" style="fill-opacity:0.29;"/><path d="M250.344,260.028l-32.249,-27.361l17.559,9.923l2.314,-7.215l5.422,8.036l9.586,3.021l4.615,-4.982l8.363,-5.575l0.333,5.088l-15.943,19.065Z" style="fill-opacity:0.29;"/><path d="M250.344,260.028l-32.249,-27.361l17.559,9.923l14.69,17.438Z" style="fill-opacity:0.29;"/></g></g></g></svg>